<svg id="D0210_-_intraoral_complete_set_of_radiographic_images" data-name="D0210 - intraoral complete set of radiographic images" xmlns="http://www.w3.org/2000/svg" xmlns:xlink="http://www.w3.org/1999/xlink" viewBox="0 0 69.46 69.46"><defs><style>.cls-1{stroke:#dcddde;stroke-width:1.06px;fill:url(#New_Gradient_Swatch_2);}.cls-1,.cls-7{stroke-miterlimit:10;}.cls-2{fill:url(#New_Gradient_Swatch_2-2);}.cls-3{fill:#184782;}.cls-4{fill:#22356c;}.cls-5{fill:#94d8e9;}.cls-6{fill:#64cbe2;}.cls-7{fill:none;stroke:#c8e9f2;stroke-width:0.35px;}.cls-10,.cls-8{fill:#00b3de;}.cls-9{fill:#286dae;}.cls-10{font-size:14px;font-family:ProximaNova-Bold, Proxima Nova;font-weight:700;letter-spacing:0.07em;}</style><linearGradient id="New_Gradient_Swatch_2" x1="34.73" y1="45.42" x2="34.73" y2="62.25" gradientUnits="userSpaceOnUse"><stop offset="0" stop-color="#fff" /><stop offset="1" stop-color="#f2f2f2" /></linearGradient><linearGradient id="New_Gradient_Swatch_2-2" x1="36" y1="24.22" x2="36" y2="7.14" xlink:href="#New_Gradient_Swatch_2" /></defs><title>D0210_intraoral complete_set_of_radiographic_images</title><rect class="cls-3" x="26.21" y="29.9" width="17.04" height="17.04" /><path class="cls-4" d="M44.22,31.47V47.91H27.78V31.47H44.22m.6-.6H27.18V48.51H44.82V30.87Z" transform="translate(-1.27 -1.27)" /><path class="cls-5" d="M38.26,43.64c.05,1.8-.71,2.8-.4,3,.48.27,2.13-.64,2.66-2.23.83-2.5-.16-3.83-.16-5.11,0-.66.48-.69.48-1.81v-3.3a1.45,1.45,0,0,0-1.5-1.44H37.05c-.53,0-.74.44-1.05.44s-.52-.44-1.05-.44H32.66a1.45,1.45,0,0,0-1.5,1.44v3.3c0,1.12.48,1.15.48,1.81,0,1.28-1,2.61-.16,5.11.53,1.6,2.18,2.5,2.66,2.23.31-.17-.45-1.17-.4-3a2.27,2.27,0,1,1,4.52,0Z" transform="translate(-1.27 -1.27)" /><path class="cls-6" d="M38.79,45.54A7.07,7.07,0,0,0,39,43.61a3,3,0,1,0-6,0,7.06,7.06,0,0,0,.22,1.93,3,3,0,0,1-1-1.4,5.46,5.46,0,0,1,0-3.42,6,6,0,0,0,.23-1.44,2,2,0,0,0-.28-1,1.4,1.4,0,0,1-.2-.81v-3.3a.7.7,0,0,1,.75-.69h2.29c.05,0,.1,0,.24.13a1.22,1.22,0,0,0,1.63,0c.15-.1.19-.12.24-.12h2.29a.7.7,0,0,1,.75.69v3.3a1.4,1.4,0,0,1-.2.81,2,2,0,0,0-.28,1,6,6,0,0,0,.23,1.44,5.45,5.45,0,0,1,0,3.42A3,3,0,0,1,38.79,45.54Z" transform="translate(-1.27 -1.27)" /><path class="cls-7" d="M38.26,43.64c.05,1.8-.71,2.8-.4,3,.48.27,2.13-.64,2.66-2.23.83-2.5-.16-3.83-.16-5.11,0-.66.48-.69.48-1.81v-3.3a1.45,1.45,0,0,0-1.5-1.44H37.05c-.53,0-.74.44-1.05.44s-.52-.44-1.05-.44H32.66a1.45,1.45,0,0,0-1.5,1.44v3.3c0,1.12.48,1.15.48,1.81,0,1.28-1,2.61-.16,5.11.53,1.6,2.18,2.5,2.66,2.23.31-.17-.45-1.17-.4-3a2.27,2.27,0,1,1,4.52,0Z" transform="translate(-1.27 -1.27)" /><path class="cls-8" d="M38.26,39.79a4.33,4.33,0,0,1,.84,1.71,3.54,3.54,0,0,0-.39-1.77,8.26,8.26,0,0,1-.89-1.82c-.15-.7,1.31-1.76.56-2.28s-1.8,1.06-2.38,1.06-1.72-1.53-2.38-1.06.72,1.59.56,2.28a10.67,10.67,0,0,1-.89,1.82,4.19,4.19,0,0,0-.39,1.77,4.33,4.33,0,0,1,.84-1.71,2.74,2.74,0,0,1,4.53,0Z" transform="translate(-1.27 -1.27)" /><rect class="cls-9" x="39.42" y="45.26" width="3.22" height="0.39" /><rect class="cls-9" x="39.42" y="45.96" width="3.22" height="0.39" /><rect class="cls-3" x="45.02" y="29.9" width="17.04" height="17.04" /><path class="cls-4" d="M63,31.47V47.91H46.6V31.47H63m.6-.6H46V48.51H63.63V30.87Z" transform="translate(-1.27 -1.27)" /><path class="cls-5" d="M57.07,43.64c.05,1.8-.71,2.8-.4,3,.48.27,2.13-.64,2.66-2.23.83-2.5-.16-3.83-.16-5.11,0-.66.48-.69.48-1.81v-3.3a1.45,1.45,0,0,0-1.5-1.44H55.87c-.53,0-.74.44-1.05.44s-.52-.44-1.05-.44H51.47A1.45,1.45,0,0,0,50,34.17v3.3c0,1.12.48,1.15.48,1.81,0,1.28-1,2.61-.16,5.11.53,1.6,2.18,2.5,2.66,2.23.31-.17-.45-1.17-.4-3a2.27,2.27,0,1,1,4.52,0Z" transform="translate(-1.27 -1.27)" /><path class="cls-6" d="M57.6,45.54a7.07,7.07,0,0,0,.22-1.93,3,3,0,1,0-6,0A7.06,7.06,0,0,0,52,45.54a3,3,0,0,1-1-1.4,5.46,5.46,0,0,1,0-3.42,6,6,0,0,0,.23-1.44,2,2,0,0,0-.28-1,1.4,1.4,0,0,1-.2-.81v-3.3a.7.7,0,0,1,.75-.69h2.29c.05,0,.1,0,.24.13a1.22,1.22,0,0,0,1.63,0c.15-.1.19-.12.24-.12h2.29a.7.7,0,0,1,.75.69v3.3a1.4,1.4,0,0,1-.2.81,2,2,0,0,0-.28,1,6,6,0,0,0,.23,1.44,5.45,5.45,0,0,1,0,3.42A3,3,0,0,1,57.6,45.54Z" transform="translate(-1.27 -1.27)" /><path class="cls-7" d="M57.07,43.64c.05,1.8-.71,2.8-.4,3,.48.27,2.13-.64,2.66-2.23.83-2.5-.16-3.83-.16-5.11,0-.66.48-.69.48-1.81v-3.3a1.45,1.45,0,0,0-1.5-1.44H55.87c-.53,0-.74.44-1.05.44s-.52-.44-1.05-.44H51.47A1.45,1.45,0,0,0,50,34.17v3.3c0,1.12.48,1.15.48,1.81,0,1.28-1,2.61-.16,5.11.53,1.6,2.18,2.5,2.66,2.23.31-.17-.45-1.17-.4-3a2.27,2.27,0,1,1,4.52,0Z" transform="translate(-1.27 -1.27)" /><path class="cls-8" d="M57.08,39.79a4.33,4.33,0,0,1,.84,1.71,3.54,3.54,0,0,0-.39-1.77,8.26,8.26,0,0,1-.89-1.82c-.15-.7,1.31-1.76.56-2.28s-1.8,1.06-2.38,1.06-1.72-1.53-2.38-1.06.72,1.59.56,2.28a10.67,10.67,0,0,1-.89,1.82,4.19,4.19,0,0,0-.39,1.77,4.33,4.33,0,0,1,.84-1.71,2.74,2.74,0,0,1,4.53,0Z" transform="translate(-1.27 -1.27)" /><rect class="cls-9" x="58.24" y="45.26" width="3.22" height="0.39" /><rect class="cls-9" x="58.24" y="45.96" width="3.22" height="0.39" /><rect class="cls-3" x="7.4" y="29.9" width="17.04" height="17.04" /><path class="cls-4" d="M25.4,31.47V47.91H9V31.47H25.4m.6-.6H8.37V48.51H26V30.87Z" transform="translate(-1.27 -1.27)" /><path class="cls-5" d="M19.44,43.64c.05,1.8-.71,2.8-.4,3,.48.27,2.13-.64,2.66-2.23.83-2.5-.16-3.83-.16-5.11,0-.66.48-.69.48-1.81v-3.3a1.45,1.45,0,0,0-1.5-1.44H18.24c-.53,0-.74.44-1.05.44s-.52-.44-1.05-.44H13.84a1.45,1.45,0,0,0-1.5,1.44v3.3c0,1.12.48,1.15.48,1.81,0,1.28-1,2.61-.16,5.11.53,1.6,2.18,2.5,2.66,2.23.31-.17-.45-1.17-.4-3a2.4,2.4,0,0,1,2.26-2.55A2.4,2.4,0,0,1,19.44,43.64Z" transform="translate(-1.27 -1.27)" /><path class="cls-6" d="M20,45.54a7.07,7.07,0,0,0,.22-1.93,3.15,3.15,0,0,0-3-3.28,3.15,3.15,0,0,0-3,3.28,7.06,7.06,0,0,0,.22,1.93,3,3,0,0,1-1-1.4,5.46,5.46,0,0,1,0-3.42,6,6,0,0,0,.23-1.44,2,2,0,0,0-.28-1,1.4,1.4,0,0,1-.2-.81v-3.3a.7.7,0,0,1,.75-.69h2.29c.05,0,.1,0,.24.13a1.22,1.22,0,0,0,1.63,0c.15-.1.19-.12.24-.12h2.29a.7.7,0,0,1,.75.69v3.3a1.4,1.4,0,0,1-.2.81,2,2,0,0,0-.28,1A6,6,0,0,0,21,40.71a5.45,5.45,0,0,1,0,3.42A3,3,0,0,1,20,45.54Z" transform="translate(-1.27 -1.27)" /><path class="cls-7" d="M19.44,43.64c.05,1.8-.71,2.8-.4,3,.48.27,2.13-.64,2.66-2.23.83-2.5-.16-3.83-.16-5.11,0-.66.48-.69.48-1.81v-3.3a1.45,1.45,0,0,0-1.5-1.44H18.24c-.53,0-.74.44-1.05.44s-.52-.44-1.05-.44H13.84a1.45,1.45,0,0,0-1.5,1.44v3.3c0,1.12.48,1.15.48,1.81,0,1.28-1,2.61-.16,5.11.53,1.6,2.18,2.5,2.66,2.23.31-.17-.45-1.17-.4-3a2.4,2.4,0,0,1,2.26-2.55A2.4,2.4,0,0,1,19.44,43.64Z" transform="translate(-1.27 -1.27)" /><path class="cls-8" d="M19.45,39.79a4.33,4.33,0,0,1,.84,1.71,3.54,3.54,0,0,0-.39-1.77A8.26,8.26,0,0,1,19,37.9c-.15-.7,1.31-1.76.56-2.28s-1.8,1.06-2.38,1.06-1.72-1.53-2.38-1.06.72,1.59.56,2.28a10.67,10.67,0,0,1-.89,1.82,4.19,4.19,0,0,0-.39,1.77,4.33,4.33,0,0,1,.84-1.71,2.74,2.74,0,0,1,4.53,0Z" transform="translate(-1.27 -1.27)" /><rect class="cls-9" x="20.61" y="45.26" width="3.22" height="0.39" /><rect class="cls-9" x="20.61" y="45.96" width="3.22" height="0.39" /><rect class="cls-3" x="26.21" y="11.09" width="17.04" height="17.04" /><path class="cls-4" d="M44.22,12.66V29.1H27.78V12.66H44.22m.6-.6H27.18V29.7H44.82V12.06Z" transform="translate(-1.27 -1.27)" /><path class="cls-5" d="M38.26,24.82c.05,1.8-.71,2.8-.4,3,.48.27,2.13-.64,2.66-2.23.83-2.5-.16-3.83-.16-5.11,0-.66.48-.69.48-1.81v-3.3a1.45,1.45,0,0,0-1.5-1.44H37.05c-.53,0-.74.44-1.05.44s-.52-.44-1.05-.44H32.66a1.45,1.45,0,0,0-1.5,1.44v3.3c0,1.12.48,1.15.48,1.81,0,1.28-1,2.61-.16,5.11.53,1.6,2.18,2.5,2.66,2.23.31-.17-.45-1.17-.4-3a2.27,2.27,0,1,1,4.52,0Z" transform="translate(-1.27 -1.27)" /><path class="cls-6" d="M38.79,26.73A7.07,7.07,0,0,0,39,24.8a3,3,0,1,0-6,0,7.06,7.06,0,0,0,.22,1.93,3,3,0,0,1-1-1.4,5.46,5.46,0,0,1,0-3.42,6,6,0,0,0,.23-1.44,2,2,0,0,0-.28-1,1.4,1.4,0,0,1-.2-.81v-3.3a.7.7,0,0,1,.75-.69h2.29c.05,0,.1,0,.24.13a1.22,1.22,0,0,0,1.63,0c.15-.1.19-.12.24-.12h2.29a.7.7,0,0,1,.75.69v3.3a1.4,1.4,0,0,1-.2.81,2,2,0,0,0-.28,1,6,6,0,0,0,.23,1.44,5.45,5.45,0,0,1,0,3.42A3,3,0,0,1,38.79,26.73Z" transform="translate(-1.27 -1.27)" /><path class="cls-7" d="M38.26,24.82c.05,1.8-.71,2.8-.4,3,.48.27,2.13-.64,2.66-2.23.83-2.5-.16-3.83-.16-5.11,0-.66.48-.69.48-1.81v-3.3a1.45,1.45,0,0,0-1.5-1.44H37.05c-.53,0-.74.44-1.05.44s-.52-.44-1.05-.44H32.66a1.45,1.45,0,0,0-1.5,1.44v3.3c0,1.12.48,1.15.48,1.81,0,1.28-1,2.61-.16,5.11.53,1.6,2.18,2.5,2.66,2.23.31-.17-.45-1.17-.4-3a2.27,2.27,0,1,1,4.52,0Z" transform="translate(-1.27 -1.27)" /><path class="cls-8" d="M38.26,21a4.33,4.33,0,0,1,.84,1.71,3.54,3.54,0,0,0-.39-1.77,8.26,8.26,0,0,1-.89-1.82c-.15-.7,1.31-1.76.56-2.28s-1.8,1.06-2.38,1.06-1.72-1.53-2.38-1.06.72,1.59.56,2.28a10.67,10.67,0,0,1-.89,1.82,4.19,4.19,0,0,0-.39,1.77A4.33,4.33,0,0,1,33.74,21a2.74,2.74,0,0,1,4.53,0Z" transform="translate(-1.27 -1.27)" /><rect class="cls-9" x="39.42" y="26.44" width="3.22" height="0.39" /><rect class="cls-9" x="39.42" y="27.14" width="3.22" height="0.39" /><rect class="cls-3" x="45.02" y="11.09" width="17.04" height="17.04" /><path class="cls-4" d="M63,12.66V29.1H46.6V12.66H63m.6-.6H46V29.7H63.63V12.06Z" transform="translate(-1.27 -1.27)" /><path class="cls-5" d="M57.07,24.82c.05,1.8-.71,2.8-.4,3,.48.27,2.13-.64,2.66-2.23.83-2.5-.16-3.83-.16-5.11,0-.66.48-.69.48-1.81v-3.3a1.45,1.45,0,0,0-1.5-1.44H55.87c-.53,0-.74.44-1.05.44s-.52-.44-1.05-.44H51.47A1.45,1.45,0,0,0,50,15.35v3.3c0,1.12.48,1.15.48,1.81,0,1.28-1,2.61-.16,5.11.53,1.6,2.18,2.5,2.66,2.23.31-.17-.45-1.17-.4-3a2.27,2.27,0,1,1,4.52,0Z" transform="translate(-1.27 -1.27)" /><path class="cls-6" d="M57.6,26.73a7.07,7.07,0,0,0,.22-1.93,3,3,0,1,0-6,0A7.06,7.06,0,0,0,52,26.73a3,3,0,0,1-1-1.4,5.46,5.46,0,0,1,0-3.42,6,6,0,0,0,.23-1.44,2,2,0,0,0-.28-1,1.4,1.4,0,0,1-.2-.81v-3.3a.7.7,0,0,1,.75-.69h2.29c.05,0,.1,0,.24.13a1.22,1.22,0,0,0,1.63,0c.15-.1.19-.12.24-.12h2.29a.7.7,0,0,1,.75.69v3.3a1.4,1.4,0,0,1-.2.81,2,2,0,0,0-.28,1,6,6,0,0,0,.23,1.44,5.45,5.45,0,0,1,0,3.42A3,3,0,0,1,57.6,26.73Z" transform="translate(-1.27 -1.27)" /><path class="cls-7" d="M57.07,24.82c.05,1.8-.71,2.8-.4,3,.48.27,2.13-.64,2.66-2.23.83-2.5-.16-3.83-.16-5.11,0-.66.48-.69.48-1.81v-3.3a1.45,1.45,0,0,0-1.5-1.44H55.87c-.53,0-.74.44-1.05.44s-.52-.44-1.05-.44H51.47A1.45,1.45,0,0,0,50,15.35v3.3c0,1.12.48,1.15.48,1.81,0,1.28-1,2.61-.16,5.11.53,1.6,2.18,2.5,2.66,2.23.31-.17-.45-1.17-.4-3a2.27,2.27,0,1,1,4.52,0Z" transform="translate(-1.27 -1.27)" /><path class="cls-8" d="M57.08,21a4.33,4.33,0,0,1,.84,1.71,3.54,3.54,0,0,0-.39-1.77,8.26,8.26,0,0,1-.89-1.82c-.15-.7,1.31-1.76.56-2.28s-1.8,1.06-2.38,1.06-1.72-1.53-2.38-1.06.72,1.59.56,2.28a10.67,10.67,0,0,1-.89,1.82,4.19,4.19,0,0,0-.39,1.77A4.33,4.33,0,0,1,52.55,21a2.74,2.74,0,0,1,4.53,0Z" transform="translate(-1.27 -1.27)" /><rect class="cls-9" x="58.24" y="26.44" width="3.22" height="0.39" /><rect class="cls-9" x="58.24" y="27.14" width="3.22" height="0.39" /><rect class="cls-3" x="7.4" y="11.09" width="17.04" height="17.04" /><path class="cls-4" d="M25.4,12.66V29.1H9V12.66H25.4m.6-.6H8.37V29.7H26V12.06Z" transform="translate(-1.27 -1.27)" /><path class="cls-5" d="M19.44,24.82c.05,1.8-.71,2.8-.4,3,.48.27,2.13-.64,2.66-2.23.83-2.5-.16-3.83-.16-5.11,0-.66.48-.69.48-1.81v-3.3a1.45,1.45,0,0,0-1.5-1.44H18.24c-.53,0-.74.44-1.05.44s-.52-.44-1.05-.44H13.84a1.45,1.45,0,0,0-1.5,1.44v3.3c0,1.12.48,1.15.48,1.81,0,1.28-1,2.61-.16,5.11.53,1.6,2.18,2.5,2.66,2.23.31-.17-.45-1.17-.4-3a2.4,2.4,0,0,1,2.26-2.55A2.4,2.4,0,0,1,19.44,24.82Z" transform="translate(-1.27 -1.27)" /><path class="cls-6" d="M20,26.73a7.07,7.07,0,0,0,.22-1.93,3.15,3.15,0,0,0-3-3.28,3.15,3.15,0,0,0-3,3.28,7.06,7.06,0,0,0,.22,1.93,3,3,0,0,1-1-1.4,5.46,5.46,0,0,1,0-3.42,6,6,0,0,0,.23-1.44,2,2,0,0,0-.28-1,1.4,1.4,0,0,1-.2-.81v-3.3a.7.7,0,0,1,.75-.69h2.29c.05,0,.1,0,.24.13a1.22,1.22,0,0,0,1.63,0c.15-.1.19-.12.24-.12h2.29a.7.7,0,0,1,.75.69v3.3a1.4,1.4,0,0,1-.2.81,2,2,0,0,0-.28,1A6,6,0,0,0,21,21.9a5.45,5.45,0,0,1,0,3.42A3,3,0,0,1,20,26.73Z" transform="translate(-1.27 -1.27)" /><path class="cls-7" d="M19.44,24.82c.05,1.8-.71,2.8-.4,3,.48.27,2.13-.64,2.66-2.23.83-2.5-.16-3.83-.16-5.11,0-.66.48-.69.48-1.81v-3.3a1.45,1.45,0,0,0-1.5-1.44H18.24c-.53,0-.74.44-1.05.44s-.52-.44-1.05-.44H13.84a1.45,1.45,0,0,0-1.5,1.44v3.3c0,1.12.48,1.15.48,1.81,0,1.28-1,2.61-.16,5.11.53,1.6,2.18,2.5,2.66,2.23.31-.17-.45-1.17-.4-3a2.4,2.4,0,0,1,2.26-2.55A2.4,2.4,0,0,1,19.44,24.82Z" transform="translate(-1.27 -1.27)" /><path class="cls-8" d="M19.45,21a4.33,4.33,0,0,1,.84,1.71,3.54,3.54,0,0,0-.39-1.77A8.26,8.26,0,0,1,19,19.08c-.15-.7,1.31-1.76.56-2.28s-1.8,1.06-2.38,1.06-1.72-1.53-2.38-1.06.72,1.59.56,2.28a10.67,10.67,0,0,1-.89,1.82,4.19,4.19,0,0,0-.39,1.77A4.33,4.33,0,0,1,14.92,21a2.74,2.74,0,0,1,4.53,0Z" transform="translate(-1.27 -1.27)" /><rect class="cls-9" x="20.61" y="26.44" width="3.22" height="0.39" /><rect class="cls-9" x="20.61" y="27.14" width="3.22" height="0.39" /><text class="cls-10" transform="translate(19.15 59.84)">FMX</text></svg>