<svg id="D0220_-_intraoral_periapical_first_radiographic_image" data-name="D0220 - intraoral periapical first radiographic image" xmlns="http://www.w3.org/2000/svg" xmlns:xlink="http://www.w3.org/1999/xlink" viewBox="0 0 69.46 69.46"><defs><style>.cls-1{stroke:#dcddde;stroke-width:1.06px;fill:url(#New_Gradient_Swatch_2);}.cls-1,.cls-7{stroke-miterlimit:10;}.cls-2{fill:url(#New_Gradient_Swatch_2-2);}.cls-3{fill:#184782;}.cls-4{fill:#22356c;}.cls-5{fill:#94d8e9;}.cls-6{fill:#64cbe2;}.cls-7{fill:none;stroke:#c8e9f2;stroke-width:1.17px;}.cls-8{fill:#00b3de;}.cls-9{fill:#286dae;}</style><linearGradient id="New_Gradient_Swatch_2" x1="34.73" y1="45.42" x2="34.73" y2="62.25" gradientUnits="userSpaceOnUse"><stop offset="0" stop-color="#fff" /><stop offset="1" stop-color="#f2f2f2" /></linearGradient><linearGradient id="New_Gradient_Swatch_2-2" x1="36" y1="24.22" x2="36" y2="7.14" xlink:href="#New_Gradient_Swatch_2" /></defs><title>D0220_intraoral_periapical_first_radiographic_image</title><rect class="cls-3" x="6.33" y="6.33" width="56.79" height="56.79" /><path class="cls-4" d="M63.39,8.61V63.39H8.61V8.61H63.39m2-2H6.61V65.39H65.39V6.61Z" transform="translate(-1.27 -1.27)" /><path class="cls-5" d="M43.52,49.14c.17,6-2.36,9.33-1.32,9.91,1.6.89,7.09-2.13,8.86-7.44,2.77-8.32-.53-12.76-.53-17,0-2.19,1.6-2.3,1.6-6v-11a4.83,4.83,0,0,0-5-4.79H39.51c-1.77,0-2.48,1.47-3.51,1.47s-1.74-1.47-3.51-1.47H24.86a4.83,4.83,0,0,0-5,4.79v11c0,3.72,1.6,3.83,1.6,6,0,4.25-3.31,8.7-.53,17,1.77,5.32,7.27,8.33,8.86,7.44,1-.58-1.5-3.9-1.32-9.91.15-5.22,3.67-8.5,7.53-8.5S43.37,43.93,43.52,49.14Z" transform="translate(-1.27 -1.27)" /><path class="cls-6" d="M45.3,55.5A23.55,23.55,0,0,0,46,49.07c-.18-6.23-4.49-10.92-10-10.92s-9.85,4.7-10,10.92a23.53,23.53,0,0,0,.72,6.42,10,10,0,0,1-3.39-4.68c-1.67-5-.87-8.26-.11-11.42A20.15,20.15,0,0,0,24,34.59,6.49,6.49,0,0,0,23,31.27a4.67,4.67,0,0,1-.66-2.7v-11a2.35,2.35,0,0,1,2.49-2.29h7.63c.18,0,.33.09.79.42a4.58,4.58,0,0,0,2.72,1,4.57,4.57,0,0,0,2.72-1c.49-.35.62-.42.79-.42h7.63a2.35,2.35,0,0,1,2.49,2.29v11a4.67,4.67,0,0,1-.66,2.7A6.5,6.5,0,0,0,48,34.59a20.17,20.17,0,0,0,.77,4.81c.77,3.15,1.56,6.41-.11,11.41A10,10,0,0,1,45.3,55.5Z" transform="translate(-1.27 -1.27)" /><path class="cls-7" d="M43.52,49.14c.17,6-2.36,9.33-1.32,9.91,1.6.89,7.09-2.13,8.86-7.44,2.77-8.32-.53-12.76-.53-17,0-2.19,1.6-2.3,1.6-6v-11a4.83,4.83,0,0,0-5-4.79H39.51c-1.77,0-2.48,1.47-3.51,1.47s-1.74-1.47-3.51-1.47H24.86a4.83,4.83,0,0,0-5,4.79v11c0,3.72,1.6,3.83,1.6,6,0,4.25-3.31,8.7-.53,17,1.77,5.32,7.27,8.33,8.86,7.44,1-.58-1.5-3.9-1.32-9.91.15-5.22,3.67-8.5,7.53-8.5S43.37,43.93,43.52,49.14Z" transform="translate(-1.27 -1.27)" /><path class="cls-8" d="M43.55,36.33A14.43,14.43,0,0,1,46.33,42,11.79,11.79,0,0,0,45,36.1c-1.42-2.94-2.44-3.75-3-6.08s4.38-5.85,1.88-7.62c-2.22-1.57-6,3.52-7.95,3.52s-5.72-5.09-7.95-3.52c-2.5,1.76,2.39,5.29,1.88,7.62s-1.66,3.11-3,6.08A14,14,0,0,0,25.67,42a14.43,14.43,0,0,1,2.78-5.68,9.15,9.15,0,0,1,15.1,0Z" transform="translate(-1.27 -1.27)" /><rect class="cls-9" x="50.37" y="57.52" width="10.74" height="1.29" /><rect class="cls-9" x="50.37" y="59.85" width="10.74" height="1.29" /></svg>