<svg id="D0230_-_intraoral_periapical_each_additional_radiographic_image" data-name="D0230 - intraoral periapical each additional radiographic image" xmlns="http://www.w3.org/2000/svg" xmlns:xlink="http://www.w3.org/1999/xlink" viewBox="0 0 69.46 69.46"><defs><style>.cls-1{stroke:#dcddde;stroke-width:1.06px;fill:url(#New_Gradient_Swatch_2);}.cls-1,.cls-7{stroke-miterlimit:10;}.cls-2{fill:url(#New_Gradient_Swatch_2-2);}.cls-10,.cls-3{fill:#184782;}.cls-4{fill:#22356c;}.cls-5{fill:#94d8e9;}.cls-6{fill:#64cbe2;}.cls-7{fill:none;stroke:#c8e9f2;stroke-width:1.17px;}.cls-8{fill:#00b3de;}.cls-9{fill:#286dae;}.cls-10{font-size:27.6px;font-family:ProximaNova-Black, Proxima Nova;}.cls-11{font-family:ProximaNova-Bold, Proxima Nova;font-weight:700;}</style><linearGradient id="New_Gradient_Swatch_2" x1="34.73" y1="45.42" x2="34.73" y2="62.25" gradientUnits="userSpaceOnUse"><stop offset="0" stop-color="#fff" /><stop offset="1" stop-color="#f2f2f2" /></linearGradient><linearGradient id="New_Gradient_Swatch_2-2" x1="36" y1="24.22" x2="36" y2="7.14" xlink:href="#New_Gradient_Swatch_2" /></defs><title>D0230_intraoral_periapical_each_additional_radiographic_image</title><rect class="cls-3" x="25.4" y="17.51" width="34.43" height="34.43" /><path class="cls-4" d="M60.1,19.79V52.21H27.67V19.79H60.1m2-2H25.67V54.21H62.1V17.79Z" transform="translate(-1.27 -1.27)" /><path class="cls-5" d="M48.54,44.14c.11,3.72-1.46,5.78-.82,6.14,1,.55,4.39-1.32,5.49-4.61,1.72-5.16-.33-7.91-.33-10.54,0-1.36,1-1.43,1-3.73V24.58a3,3,0,0,0-3.09-3H46.06c-1.1,0-1.54.91-2.18.91s-1.08-.91-2.18-.91H37a3,3,0,0,0-3.09,3v6.81c0,2.31,1,2.38,1,3.73,0,2.64-2,5.39-.33,10.54C35.64,49,39,50.83,40,50.29c.64-.36-.93-2.42-.82-6.14.09-3.23,2.27-5.26,4.66-5.26S48.45,40.91,48.54,44.14Z" transform="translate(-1.27 -1.27)" /><path class="cls-6" d="M49.65,48.08a14.59,14.59,0,0,0,.45-4c-.11-3.86-2.78-6.77-6.21-6.77s-6.1,2.91-6.21,6.77a14.58,14.58,0,0,0,.45,4,6.22,6.22,0,0,1-2.1-2.9,11.27,11.27,0,0,1-.07-7.07,12.49,12.49,0,0,0,.48-3,4,4,0,0,0-.58-2.06,2.9,2.9,0,0,1-.41-1.67V24.58A1.46,1.46,0,0,1,37,23.17H41.7c.11,0,.21.06.49.26a2.51,2.51,0,0,0,3.37,0c.3-.21.38-.26.49-.26h4.73a1.46,1.46,0,0,1,1.54,1.42v6.81a2.9,2.9,0,0,1-.41,1.67,4,4,0,0,0-.58,2.06,12.5,12.5,0,0,0,.48,3,11.26,11.26,0,0,1-.07,7.07A6.22,6.22,0,0,1,49.65,48.08Z" transform="translate(-1.27 -1.27)" /><path class="cls-7" d="M48.54,44.14c.11,3.72-1.46,5.78-.82,6.14,1,.55,4.39-1.32,5.49-4.61,1.72-5.16-.33-7.91-.33-10.54,0-1.36,1-1.43,1-3.73V24.58a3,3,0,0,0-3.09-3H46.06c-1.1,0-1.54.91-2.18.91s-1.08-.91-2.18-.91H37a3,3,0,0,0-3.09,3v6.81c0,2.31,1,2.38,1,3.73,0,2.64-2,5.39-.33,10.54C35.64,49,39,50.83,40,50.29c.64-.36-.93-2.42-.82-6.14.09-3.23,2.27-5.26,4.66-5.26S48.45,40.91,48.54,44.14Z" transform="translate(-1.27 -1.27)" /><path class="cls-8" d="M48.56,36.2a8.94,8.94,0,0,1,1.73,3.52,7.31,7.31,0,0,0-.81-3.66c-.88-1.82-1.51-2.32-1.83-3.77s2.71-3.63,1.16-4.72c-1.38-1-3.72,2.18-4.92,2.18S40.34,26.6,39,27.57c-1.55,1.09,1.48,3.28,1.16,4.72s-1,1.93-1.83,3.77a8.65,8.65,0,0,0-.81,3.66,8.94,8.94,0,0,1,1.73-3.52,5.67,5.67,0,0,1,9.35,0Z" transform="translate(-1.27 -1.27)" /><rect class="cls-9" x="52.31" y="48.85" width="6.66" height="0.8" /><rect class="cls-9" x="52.31" y="50.29" width="6.66" height="0.8" /><text class="cls-10" transform="translate(7.9 44.36)">+<tspan class="cls-11" x="14.08" y="0"></tspan></text></svg>