<svg id="D0274_-_bitewing_four_radiographic_images" data-name="D0274 - bitewing four radiographic images" xmlns="http://www.w3.org/2000/svg" xmlns:xlink="http://www.w3.org/1999/xlink" viewBox="0 0 69.46 69.46"><defs><style>.cls-1,.cls-8{fill:none;}.cls-2{stroke:#dcddde;stroke-width:1.06px;fill:url(#New_Gradient_Swatch_2);}.cls-2,.cls-8{stroke-miterlimit:10;}.cls-3{fill:url(#New_Gradient_Swatch_2-2);}.cls-4{fill:#22356c;}.cls-5{clip-path:url(#clip-path);}.cls-6{fill:#94d8e9;}.cls-7{fill:#64cbe2;}.cls-8{stroke:#c8e9f2;stroke-width:0.35px;}.cls-9{fill:#00b3de;}.cls-10{opacity:0.8;}.cls-11{fill:#184782;}.cls-12{clip-path:url(#clip-path-2);}.cls-13{clip-path:url(#clip-path-3);}.cls-14{clip-path:url(#clip-path-4);}</style><linearGradient id="New_Gradient_Swatch_2" x1="34.73" y1="45.42" x2="34.73" y2="62.25" gradientUnits="userSpaceOnUse"><stop offset="0" stop-color="#fff" /><stop offset="1" stop-color="#f2f2f2" /></linearGradient><linearGradient id="New_Gradient_Swatch_2-2" x1="36" y1="24.22" x2="36" y2="7.14" xlink:href="#New_Gradient_Swatch_2" /><clipPath id="clip-path" transform="translate(-1.27 -1.27)"><path class="cls-1" d="M11.26,10.59H31.11a4.13,4.13,0,0,1,4.13,4.13V30.06a3.86,3.86,0,0,1-3.86,3.86H11.26a4.13,4.13,0,0,1-4.13-4.13V14.73A4.13,4.13,0,0,1,11.26,10.59Z" /></clipPath><clipPath id="clip-path-2" transform="translate(-1.27 -1.27)"><path class="cls-1" d="M40.89,10.59H60.74a4.13,4.13,0,0,1,4.13,4.13V30.06A3.86,3.86,0,0,1,61,33.92H40.89a4.13,4.13,0,0,1-4.13-4.13V14.73A4.13,4.13,0,0,1,40.89,10.59Z" /></clipPath><clipPath id="clip-path-3" transform="translate(-1.27 -1.27)"><path class="cls-1" d="M11.26,38.08H31.11a4.13,4.13,0,0,1,4.13,4.13V57.55a3.86,3.86,0,0,1-3.86,3.86H11.26a4.13,4.13,0,0,1-4.13-4.13V42.21A4.13,4.13,0,0,1,11.26,38.08Z" /></clipPath><clipPath id="clip-path-4" transform="translate(-1.27 -1.27)"><path class="cls-1" d="M40.89,38.08H60.74a4.13,4.13,0,0,1,4.13,4.13V57.55A3.86,3.86,0,0,1,61,61.41H40.89a4.13,4.13,0,0,1-4.13-4.13V42.21A4.13,4.13,0,0,1,40.89,38.08Z" /></clipPath></defs><title>D0274_bitewing_four_radiographic_images</title><rect class="cls-4" x="5.86" y="9.32" width="28.11" height="23.32" rx="4.13" ry="4.13" /><g class="cls-5"><path class="cls-6" d="M23.45,34c.05,1.8-.71,2.8-.4,3,.48.27,2.13-.64,2.66-2.24.83-2.5-.16-3.83-.16-5.11,0-.66.48-.69.48-1.81v-3.3a1.45,1.45,0,0,0-1.5-1.44H22.24c-.53,0-.74.44-1.05.44s-.52-.44-1.06-.44H17.84a1.45,1.45,0,0,0-1.5,1.44v3.3c0,1.12.48,1.15.48,1.81,0,1.28-1,2.61-.16,5.11.53,1.6,2.18,2.5,2.66,2.24.31-.17-.45-1.17-.4-3a2.4,2.4,0,0,1,2.26-2.55A2.4,2.4,0,0,1,23.45,34Z" transform="translate(-1.27 -1.27)" /><path class="cls-7" d="M24,35.92A7.07,7.07,0,0,0,24.2,34a3.15,3.15,0,0,0-3-3.28,3.15,3.15,0,0,0-3,3.28,7.07,7.07,0,0,0,.22,1.93,3,3,0,0,1-1-1.4,5.46,5.46,0,0,1,0-3.43,6,6,0,0,0,.23-1.44,2,2,0,0,0-.28-1,1.4,1.4,0,0,1-.2-.81v-3.3a.71.71,0,0,1,.75-.69h2.29c.05,0,.1,0,.24.13A1.22,1.22,0,0,0,22,24c.15-.1.19-.12.24-.12h2.29a.71.71,0,0,1,.75.69v3.3a1.4,1.4,0,0,1-.2.81,2,2,0,0,0-.28,1A6.05,6.05,0,0,0,25,31.09a5.46,5.46,0,0,1,0,3.43A3,3,0,0,1,24,35.92Z" transform="translate(-1.27 -1.27)" /><path class="cls-8" d="M23.45,34c.05,1.8-.71,2.8-.4,3,.48.27,2.13-.64,2.66-2.24.83-2.5-.16-3.83-.16-5.11,0-.66.48-.69.48-1.81v-3.3a1.45,1.45,0,0,0-1.5-1.44H22.24c-.53,0-.74.44-1.05.44s-.52-.44-1.06-.44H17.84a1.45,1.45,0,0,0-1.5,1.44v3.3c0,1.12.48,1.15.48,1.81,0,1.28-1,2.61-.16,5.11.53,1.6,2.18,2.5,2.66,2.24.31-.17-.45-1.17-.4-3a2.4,2.4,0,0,1,2.26-2.55A2.4,2.4,0,0,1,23.45,34Z" transform="translate(-1.27 -1.27)" /><path class="cls-9" d="M23.45,30.17a4.33,4.33,0,0,1,.84,1.71,3.54,3.54,0,0,0-.39-1.77A8.27,8.27,0,0,1,23,28.27c-.15-.7,1.31-1.76.56-2.29S21.77,27,21.19,27,19.47,25.51,18.8,26s.72,1.59.56,2.29a10.68,10.68,0,0,1-.89,1.83,4.19,4.19,0,0,0-.39,1.77,4.33,4.33,0,0,1,.84-1.71,2.75,2.75,0,0,1,4.53,0Z" transform="translate(-1.27 -1.27)" /><path class="cls-6" d="M33.87,34c.05,1.8-.71,2.8-.4,3,.48.27,2.13-.64,2.66-2.24.83-2.5-.16-3.83-.16-5.11,0-.66.48-.69.48-1.81v-3.3A1.45,1.45,0,0,0,35,23.1H32.66c-.53,0-.74.44-1.05.44s-.52-.44-1.06-.44H28.26a1.45,1.45,0,0,0-1.5,1.44v3.3c0,1.12.48,1.15.48,1.81,0,1.28-1,2.61-.16,5.11.53,1.6,2.18,2.5,2.66,2.24.31-.17-.45-1.17-.4-3a2.28,2.28,0,1,1,4.52,0Z" transform="translate(-1.27 -1.27)" /><path class="cls-7" d="M34.4,35.92A7.07,7.07,0,0,0,34.62,34a3,3,0,1,0-6,0,7.07,7.07,0,0,0,.22,1.93,3,3,0,0,1-1-1.4,5.46,5.46,0,0,1,0-3.43A6,6,0,0,0,28,29.65a2,2,0,0,0-.28-1,1.4,1.4,0,0,1-.2-.81v-3.3a.71.71,0,0,1,.75-.69h2.29c.05,0,.1,0,.24.13a1.22,1.22,0,0,0,1.63,0c.15-.1.19-.12.24-.12H35a.71.71,0,0,1,.75.69v3.3a1.4,1.4,0,0,1-.2.81,2,2,0,0,0-.28,1,6.05,6.05,0,0,0,.23,1.44,5.46,5.46,0,0,1,0,3.43A3,3,0,0,1,34.4,35.92Z" transform="translate(-1.27 -1.27)" /><path class="cls-8" d="M33.87,34c.05,1.8-.71,2.8-.4,3,.48.27,2.13-.64,2.66-2.24.83-2.5-.16-3.83-.16-5.11,0-.66.48-.69.48-1.81v-3.3A1.45,1.45,0,0,0,35,23.1H32.66c-.53,0-.74.44-1.05.44s-.52-.44-1.06-.44H28.26a1.45,1.45,0,0,0-1.5,1.44v3.3c0,1.12.48,1.15.48,1.81,0,1.28-1,2.61-.16,5.11.53,1.6,2.18,2.5,2.66,2.24.31-.17-.45-1.17-.4-3a2.28,2.28,0,1,1,4.52,0Z" transform="translate(-1.27 -1.27)" /><path class="cls-9" d="M33.87,30.17a4.33,4.33,0,0,1,.84,1.71,3.54,3.54,0,0,0-.39-1.77,8.27,8.27,0,0,1-.89-1.83c-.15-.7,1.31-1.76.56-2.29S32.19,27,31.61,27,29.89,25.51,29.22,26s.72,1.59.56,2.29a10.68,10.68,0,0,1-.89,1.83,4.19,4.19,0,0,0-.39,1.77,4.33,4.33,0,0,1,.84-1.71,2.75,2.75,0,0,1,4.53,0Z" transform="translate(-1.27 -1.27)" /><path class="cls-6" d="M13,34c.05,1.8-.71,2.8-.4,3,.48.27,2.13-.64,2.66-2.24.83-2.5-.16-3.83-.16-5.11,0-.66.48-.69.48-1.81v-3.3a1.45,1.45,0,0,0-1.5-1.44H11.82c-.53,0-.74.44-1.05.44s-.52-.44-1.06-.44H7.42a1.45,1.45,0,0,0-1.5,1.44v3.3c0,1.12.48,1.15.48,1.81,0,1.28-1,2.61-.16,5.11.53,1.6,2.18,2.5,2.66,2.24.31-.17-.45-1.17-.4-3a2.4,2.4,0,0,1,2.26-2.55A2.4,2.4,0,0,1,13,34Z" transform="translate(-1.27 -1.27)" /><path class="cls-7" d="M13.56,35.92A7.07,7.07,0,0,0,13.78,34a3.15,3.15,0,0,0-3-3.28,3.15,3.15,0,0,0-3,3.28A7.07,7.07,0,0,0,8,35.92a3,3,0,0,1-1-1.4,5.46,5.46,0,0,1,0-3.43,6,6,0,0,0,.23-1.44,2,2,0,0,0-.28-1,1.4,1.4,0,0,1-.2-.81v-3.3a.71.71,0,0,1,.75-.69H9.71c.05,0,.1,0,.24.13a1.38,1.38,0,0,0,.82.31,1.37,1.37,0,0,0,.82-.32c.15-.1.19-.12.24-.12h2.29a.71.71,0,0,1,.75.69v3.3a1.4,1.4,0,0,1-.2.81,2,2,0,0,0-.28,1,6.05,6.05,0,0,0,.23,1.44,5.46,5.46,0,0,1,0,3.43A3,3,0,0,1,13.56,35.92Z" transform="translate(-1.27 -1.27)" /><path class="cls-8" d="M13,34c.05,1.8-.71,2.8-.4,3,.48.27,2.13-.64,2.66-2.24.83-2.5-.16-3.83-.16-5.11,0-.66.48-.69.48-1.81v-3.3a1.45,1.45,0,0,0-1.5-1.44H11.82c-.53,0-.74.44-1.05.44s-.52-.44-1.06-.44H7.42a1.45,1.45,0,0,0-1.5,1.44v3.3c0,1.12.48,1.15.48,1.81,0,1.28-1,2.61-.16,5.11.53,1.6,2.18,2.5,2.66,2.24.31-.17-.45-1.17-.4-3a2.4,2.4,0,0,1,2.26-2.55A2.4,2.4,0,0,1,13,34Z" transform="translate(-1.27 -1.27)" /><path class="cls-9" d="M13,30.17a4.33,4.33,0,0,1,.84,1.71,3.54,3.54,0,0,0-.39-1.77,8.27,8.27,0,0,1-.89-1.83c-.15-.7,1.31-1.76.56-2.29S11.35,27,10.77,27,9.05,25.51,8.38,26s.72,1.59.56,2.29a10.68,10.68,0,0,1-.89,1.83,4.19,4.19,0,0,0-.39,1.77,4.33,4.33,0,0,1,.84-1.71,2.75,2.75,0,0,1,4.53,0Z" transform="translate(-1.27 -1.27)" /><path class="cls-6" d="M23.45,10.5c.05-1.8-.71-2.8-.4-3,.48-.27,2.13.64,2.66,2.24.83,2.5-.16,3.83-.16,5.11,0,.66.48.69.48,1.81V20a1.45,1.45,0,0,1-1.5,1.44H22.24c-.53,0-.74-.44-1.05-.44s-.52.44-1.06.44H17.84A1.45,1.45,0,0,1,16.35,20v-3.3c0-1.12.48-1.15.48-1.81,0-1.28-1-2.61-.16-5.11.53-1.6,2.18-2.5,2.66-2.24.31.17-.45,1.17-.4,3a2.4,2.4,0,0,0,2.26,2.55A2.4,2.4,0,0,0,23.45,10.5Z" transform="translate(-1.27 -1.27)" /><path class="cls-7" d="M24,8.59a7.07,7.07,0,0,1,.22,1.93,3.15,3.15,0,0,1-3,3.28,3.15,3.15,0,0,1-3-3.28,7.07,7.07,0,0,1,.22-1.93,3,3,0,0,0-1,1.4,5.46,5.46,0,0,0,0,3.43,6,6,0,0,1,.23,1.44,2,2,0,0,1-.28,1,1.4,1.4,0,0,0-.2.81V20a.71.71,0,0,0,.75.69h2.29c.05,0,.1,0,.24-.13a1.22,1.22,0,0,1,1.63,0c.15.1.19.12.24.12h2.29a.71.71,0,0,0,.75-.69v-3.3a1.4,1.4,0,0,0-.2-.81,2,2,0,0,1-.28-1A6.05,6.05,0,0,1,25,13.42,5.46,5.46,0,0,0,25,10,3,3,0,0,0,24,8.59Z" transform="translate(-1.27 -1.27)" /><path class="cls-8" d="M23.45,10.5c.05-1.8-.71-2.8-.4-3,.48-.27,2.13.64,2.66,2.24.83,2.5-.16,3.83-.16,5.11,0,.66.48.69.48,1.81V20a1.45,1.45,0,0,1-1.5,1.44H22.24c-.53,0-.74-.44-1.05-.44s-.52.44-1.06.44H17.84A1.45,1.45,0,0,1,16.35,20v-3.3c0-1.12.48-1.15.48-1.81,0-1.28-1-2.61-.16-5.11.53-1.6,2.18-2.5,2.66-2.24.31.17-.45,1.17-.4,3a2.4,2.4,0,0,0,2.26,2.55A2.4,2.4,0,0,0,23.45,10.5Z" transform="translate(-1.27 -1.27)" /><path class="cls-9" d="M23.45,14.35a4.33,4.33,0,0,0,.84-1.71,3.54,3.54,0,0,1-.39,1.77A8.27,8.27,0,0,0,23,16.24c-.15.7,1.31,1.76.56,2.29s-1.8-1.06-2.39-1.06S19.47,19,18.8,18.53s.72-1.59.56-2.29a10.68,10.68,0,0,0-.89-1.83,4.19,4.19,0,0,1-.39-1.77,4.33,4.33,0,0,0,.84,1.71,2.75,2.75,0,0,0,4.53,0Z" transform="translate(-1.27 -1.27)" /><path class="cls-6" d="M33.87,10.5c.05-1.8-.71-2.8-.4-3,.48-.27,2.13.64,2.66,2.24.83,2.5-.16,3.83-.16,5.11,0,.66.48.69.48,1.81V20A1.45,1.45,0,0,1,35,21.41H32.66c-.53,0-.74-.44-1.05-.44s-.52.44-1.06.44H28.26A1.45,1.45,0,0,1,26.76,20v-3.3c0-1.12.48-1.15.48-1.81,0-1.28-1-2.61-.16-5.11.53-1.6,2.18-2.5,2.66-2.24.31.17-.45,1.17-.4,3a2.28,2.28,0,1,0,4.52,0Z" transform="translate(-1.27 -1.27)" /><path class="cls-7" d="M34.4,8.59a7.07,7.07,0,0,1,.22,1.93,3,3,0,1,1-6,0,7.07,7.07,0,0,1,.22-1.93,3,3,0,0,0-1,1.4,5.46,5.46,0,0,0,0,3.43A6,6,0,0,1,28,14.87a2,2,0,0,1-.28,1,1.4,1.4,0,0,0-.2.81V20a.71.71,0,0,0,.75.69h2.29c.05,0,.1,0,.24-.13a1.22,1.22,0,0,1,1.63,0c.15.1.19.12.24.12H35A.71.71,0,0,0,35.7,20v-3.3a1.4,1.4,0,0,0-.2-.81,2,2,0,0,1-.28-1,6.05,6.05,0,0,1,.23-1.44,5.46,5.46,0,0,0,0-3.43A3,3,0,0,0,34.4,8.59Z" transform="translate(-1.27 -1.27)" /><path class="cls-8" d="M33.87,10.5c.05-1.8-.71-2.8-.4-3,.48-.27,2.13.64,2.66,2.24.83,2.5-.16,3.83-.16,5.11,0,.66.48.69.48,1.81V20A1.45,1.45,0,0,1,35,21.41H32.66c-.53,0-.74-.44-1.05-.44s-.52.44-1.06.44H28.26A1.45,1.45,0,0,1,26.76,20v-3.3c0-1.12.48-1.15.48-1.81,0-1.28-1-2.61-.16-5.11.53-1.6,2.18-2.5,2.66-2.24.31.17-.45,1.17-.4,3a2.28,2.28,0,1,0,4.52,0Z" transform="translate(-1.27 -1.27)" /><path class="cls-9" d="M33.87,14.35a4.33,4.33,0,0,0,.84-1.71,3.54,3.54,0,0,1-.39,1.77,8.27,8.27,0,0,0-.89,1.83c-.15.7,1.31,1.76.56,2.29s-1.8-1.06-2.39-1.06S29.89,19,29.22,18.53s.72-1.59.56-2.29a10.68,10.68,0,0,0-.89-1.83,4.19,4.19,0,0,1-.39-1.77,4.33,4.33,0,0,0,.84,1.71,2.75,2.75,0,0,0,4.53,0Z" transform="translate(-1.27 -1.27)" /><path class="cls-6" d="M13,10.5c.05-1.8-.71-2.8-.4-3,.48-.27,2.13.64,2.66,2.24.83,2.5-.16,3.83-.16,5.11,0,.66.48.69.48,1.81V20a1.45,1.45,0,0,1-1.5,1.44H11.82c-.53,0-.74-.44-1.05-.44s-.52.44-1.06.44H7.42A1.45,1.45,0,0,1,5.93,20v-3.3c0-1.12.48-1.15.48-1.81,0-1.28-1-2.61-.16-5.11.53-1.6,2.18-2.5,2.66-2.24.31.17-.45,1.17-.4,3a2.4,2.4,0,0,0,2.26,2.55A2.4,2.4,0,0,0,13,10.5Z" transform="translate(-1.27 -1.27)" /><path class="cls-7" d="M13.56,8.59a7.07,7.07,0,0,1,.22,1.93,3.15,3.15,0,0,1-3,3.28,3.15,3.15,0,0,1-3-3.28A7.07,7.07,0,0,1,8,8.59,3,3,0,0,0,7,10a5.46,5.46,0,0,0,0,3.43,6,6,0,0,1,.23,1.44,2,2,0,0,1-.28,1,1.4,1.4,0,0,0-.2.81V20a.71.71,0,0,0,.75.69H9.71c.05,0,.1,0,.24-.13a1.38,1.38,0,0,1,.82-.31,1.37,1.37,0,0,1,.82.32c.15.1.19.12.24.12h2.29a.71.71,0,0,0,.75-.69v-3.3a1.4,1.4,0,0,0-.2-.81,2,2,0,0,1-.28-1,6.05,6.05,0,0,1,.23-1.44,5.46,5.46,0,0,0,0-3.43A3,3,0,0,0,13.56,8.59Z" transform="translate(-1.27 -1.27)" /><path class="cls-8" d="M13,10.5c.05-1.8-.71-2.8-.4-3,.48-.27,2.13.64,2.66,2.24.83,2.5-.16,3.83-.16,5.11,0,.66.48.69.48,1.81V20a1.45,1.45,0,0,1-1.5,1.44H11.82c-.53,0-.74-.44-1.05-.44s-.52.44-1.06.44H7.42A1.45,1.45,0,0,1,5.93,20v-3.3c0-1.12.48-1.15.48-1.81,0-1.28-1-2.61-.16-5.11.53-1.6,2.18-2.5,2.66-2.24.31.17-.45,1.17-.4,3a2.4,2.4,0,0,0,2.26,2.55A2.4,2.4,0,0,0,13,10.5Z" transform="translate(-1.27 -1.27)" /><path class="cls-9" d="M13,14.35a4.33,4.33,0,0,0,.84-1.71,3.54,3.54,0,0,1-.39,1.77,8.27,8.27,0,0,0-.89,1.83c-.15.7,1.31,1.76.56,2.29s-1.8-1.06-2.39-1.06S9.05,19,8.38,18.53s.72-1.59.56-2.29a10.68,10.68,0,0,0-.89-1.83,4.19,4.19,0,0,1-.39-1.77,4.33,4.33,0,0,0,.84,1.71,2.75,2.75,0,0,0,4.53,0Z" transform="translate(-1.27 -1.27)" /></g><g class="cls-10"><path class="cls-11" d="M31.11,11.34a3.39,3.39,0,0,1,3.38,3.38V29.79a3.39,3.39,0,0,1-3.38,3.38H11.26a3.39,3.39,0,0,1-3.38-3.38V14.73a3.39,3.39,0,0,1,3.38-3.38H31.11m0-.75H11.26a4.13,4.13,0,0,0-4.13,4.13V29.79a4.13,4.13,0,0,0,4.13,4.13H31.11a4.13,4.13,0,0,0,4.13-4.13V14.73a4.13,4.13,0,0,0-4.13-4.13Z" transform="translate(-1.27 -1.27)" /></g><rect class="cls-4" x="35.48" y="9.32" width="28.11" height="23.32" rx="4.13" ry="4.13" /><g class="cls-12"><path class="cls-6" d="M53.07,34c.05,1.8-.71,2.8-.4,3,.48.27,2.13-.64,2.66-2.24.83-2.5-.16-3.83-.16-5.11,0-.66.48-.69.48-1.81v-3.3a1.45,1.45,0,0,0-1.5-1.44H51.87c-.53,0-.74.44-1.05.44s-.52-.44-1.06-.44H47.47A1.45,1.45,0,0,0,46,24.54v3.3c0,1.12.48,1.15.48,1.81,0,1.28-1,2.61-.16,5.11.53,1.6,2.18,2.5,2.66,2.24.31-.17-.45-1.17-.4-3a2.28,2.28,0,1,1,4.52,0Z" transform="translate(-1.27 -1.27)" /><path class="cls-7" d="M53.6,35.92A7.07,7.07,0,0,0,53.82,34a3,3,0,1,0-6,0A7.07,7.07,0,0,0,48,35.92a3,3,0,0,1-1-1.4,5.46,5.46,0,0,1,0-3.43,6,6,0,0,0,.23-1.44,2,2,0,0,0-.28-1,1.4,1.4,0,0,1-.2-.81v-3.3a.71.71,0,0,1,.75-.69h2.29c.05,0,.1,0,.24.13a1.22,1.22,0,0,0,1.63,0c.15-.1.19-.12.24-.12h2.29a.71.71,0,0,1,.75.69v3.3a1.4,1.4,0,0,1-.2.81,2,2,0,0,0-.28,1,6.05,6.05,0,0,0,.23,1.44,5.46,5.46,0,0,1,0,3.43A3,3,0,0,1,53.6,35.92Z" transform="translate(-1.27 -1.27)" /><path class="cls-8" d="M53.07,34c.05,1.8-.71,2.8-.4,3,.48.27,2.13-.64,2.66-2.24.83-2.5-.16-3.83-.16-5.11,0-.66.48-.69.48-1.81v-3.3a1.45,1.45,0,0,0-1.5-1.44H51.87c-.53,0-.74.44-1.05.44s-.52-.44-1.06-.44H47.47A1.45,1.45,0,0,0,46,24.54v3.3c0,1.12.48,1.15.48,1.81,0,1.28-1,2.61-.16,5.11.53,1.6,2.18,2.5,2.66,2.24.31-.17-.45-1.17-.4-3a2.28,2.28,0,1,1,4.52,0Z" transform="translate(-1.27 -1.27)" /><path class="cls-9" d="M53.08,30.17a4.33,4.33,0,0,1,.84,1.71,3.54,3.54,0,0,0-.39-1.77,8.27,8.27,0,0,1-.89-1.83c-.15-.7,1.31-1.76.56-2.29S51.4,27,50.81,27,49.09,25.51,48.43,26s.72,1.59.56,2.29a10.68,10.68,0,0,1-.89,1.83,4.19,4.19,0,0,0-.39,1.77,4.33,4.33,0,0,1,.84-1.71,2.75,2.75,0,0,1,4.53,0Z" transform="translate(-1.27 -1.27)" /><path class="cls-6" d="M63.49,34c.05,1.8-.71,2.8-.4,3,.48.27,2.13-.64,2.66-2.24.83-2.5-.16-3.83-.16-5.11,0-.66.48-.69.48-1.81v-3.3a1.45,1.45,0,0,0-1.5-1.44H62.29c-.53,0-.74.44-1.05.44s-.52-.44-1.06-.44H57.89a1.45,1.45,0,0,0-1.5,1.44v3.3c0,1.12.48,1.15.48,1.81,0,1.28-1,2.61-.16,5.11.53,1.6,2.18,2.5,2.66,2.24.31-.17-.45-1.17-.4-3a2.28,2.28,0,1,1,4.52,0Z" transform="translate(-1.27 -1.27)" /><path class="cls-7" d="M64,35.92A7.07,7.07,0,0,0,64.24,34a3,3,0,1,0-6,0,7.07,7.07,0,0,0,.22,1.93,3,3,0,0,1-1-1.4,5.46,5.46,0,0,1,0-3.43,6,6,0,0,0,.23-1.44,2,2,0,0,0-.28-1,1.4,1.4,0,0,1-.2-.81v-3.3a.71.71,0,0,1,.75-.69h2.29c.05,0,.1,0,.24.13A1.22,1.22,0,0,0,62,24c.15-.1.19-.12.24-.12h2.29a.71.71,0,0,1,.75.69v3.3a1.4,1.4,0,0,1-.2.81,2,2,0,0,0-.28,1,6.05,6.05,0,0,0,.23,1.44,5.46,5.46,0,0,1,0,3.43A3,3,0,0,1,64,35.92Z" transform="translate(-1.27 -1.27)" /><path class="cls-8" d="M63.49,34c.05,1.8-.71,2.8-.4,3,.48.27,2.13-.64,2.66-2.24.83-2.5-.16-3.83-.16-5.11,0-.66.48-.69.48-1.81v-3.3a1.45,1.45,0,0,0-1.5-1.44H62.29c-.53,0-.74.44-1.05.44s-.52-.44-1.06-.44H57.89a1.45,1.45,0,0,0-1.5,1.44v3.3c0,1.12.48,1.15.48,1.81,0,1.28-1,2.61-.16,5.11.53,1.6,2.18,2.5,2.66,2.24.31-.17-.45-1.17-.4-3a2.28,2.28,0,1,1,4.52,0Z" transform="translate(-1.27 -1.27)" /><path class="cls-9" d="M63.5,30.17a4.33,4.33,0,0,1,.84,1.71,3.54,3.54,0,0,0-.39-1.77,8.27,8.27,0,0,1-.89-1.83c-.15-.7,1.31-1.76.56-2.29S61.82,27,61.23,27,59.51,25.51,58.85,26s.72,1.59.56,2.29a10.68,10.68,0,0,1-.89,1.83,4.19,4.19,0,0,0-.39,1.77A4.33,4.33,0,0,1,59,30.17a2.75,2.75,0,0,1,4.53,0Z" transform="translate(-1.27 -1.27)" /><path class="cls-6" d="M42.65,34c.05,1.8-.71,2.8-.4,3,.48.27,2.13-.64,2.66-2.24.83-2.5-.16-3.83-.16-5.11,0-.66.48-.69.48-1.81v-3.3a1.45,1.45,0,0,0-1.5-1.44H41.45c-.53,0-.74.44-1.05.44s-.52-.44-1.06-.44H37a1.45,1.45,0,0,0-1.5,1.44v3.3c0,1.12.48,1.15.48,1.81,0,1.28-1,2.61-.16,5.11.53,1.6,2.18,2.5,2.66,2.24.31-.17-.45-1.17-.4-3a2.28,2.28,0,1,1,4.52,0Z" transform="translate(-1.27 -1.27)" /><path class="cls-7" d="M43.19,35.92A7.07,7.07,0,0,0,43.4,34a3,3,0,1,0-6,0,7.07,7.07,0,0,0,.22,1.93,3,3,0,0,1-1-1.4,5.46,5.46,0,0,1,0-3.43,6,6,0,0,0,.23-1.44,2,2,0,0,0-.28-1,1.4,1.4,0,0,1-.2-.81v-3.3a.71.71,0,0,1,.75-.69h2.29c.05,0,.1,0,.24.13a1.22,1.22,0,0,0,1.63,0c.15-.1.19-.12.24-.12h2.29a.71.71,0,0,1,.75.69v3.3a1.4,1.4,0,0,1-.2.81,2,2,0,0,0-.28,1,6.05,6.05,0,0,0,.23,1.44,5.46,5.46,0,0,1,0,3.43A3,3,0,0,1,43.19,35.92Z" transform="translate(-1.27 -1.27)" /><path class="cls-8" d="M42.65,34c.05,1.8-.71,2.8-.4,3,.48.27,2.13-.64,2.66-2.24.83-2.5-.16-3.83-.16-5.11,0-.66.48-.69.48-1.81v-3.3a1.45,1.45,0,0,0-1.5-1.44H41.45c-.53,0-.74.44-1.05.44s-.52-.44-1.06-.44H37a1.45,1.45,0,0,0-1.5,1.44v3.3c0,1.12.48,1.15.48,1.81,0,1.28-1,2.61-.16,5.11.53,1.6,2.18,2.5,2.66,2.24.31-.17-.45-1.17-.4-3a2.28,2.28,0,1,1,4.52,0Z" transform="translate(-1.27 -1.27)" /><path class="cls-9" d="M42.66,30.17a4.33,4.33,0,0,1,.84,1.71,3.54,3.54,0,0,0-.39-1.77,8.27,8.27,0,0,1-.89-1.83c-.15-.7,1.31-1.76.56-2.29S41,27,40.39,27,38.68,25.51,38,26s.72,1.59.56,2.29a10.68,10.68,0,0,1-.89,1.83,4.19,4.19,0,0,0-.39,1.77,4.33,4.33,0,0,1,.84-1.71,2.75,2.75,0,0,1,4.53,0Z" transform="translate(-1.27 -1.27)" /><path class="cls-6" d="M53.07,10.5c.05-1.8-.71-2.8-.4-3,.48-.27,2.13.64,2.66,2.24.83,2.5-.16,3.83-.16,5.11,0,.66.48.69.48,1.81V20a1.45,1.45,0,0,1-1.5,1.44H51.87c-.53,0-.74-.44-1.05-.44s-.52.44-1.06.44H47.47A1.45,1.45,0,0,1,46,20v-3.3c0-1.12.48-1.15.48-1.81,0-1.28-1-2.61-.16-5.11.53-1.6,2.18-2.5,2.66-2.24.31.17-.45,1.17-.4,3a2.28,2.28,0,1,0,4.52,0Z" transform="translate(-1.27 -1.27)" /><path class="cls-7" d="M53.6,8.59a7.07,7.07,0,0,1,.22,1.93,3,3,0,1,1-6,0A7.07,7.07,0,0,1,48,8.59,3,3,0,0,0,47,10a5.46,5.46,0,0,0,0,3.43,6,6,0,0,1,.23,1.44,2,2,0,0,1-.28,1,1.4,1.4,0,0,0-.2.81V20a.71.71,0,0,0,.75.69h2.29c.05,0,.1,0,.24-.13a1.22,1.22,0,0,1,1.63,0c.15.1.19.12.24.12h2.29A.71.71,0,0,0,54.9,20v-3.3a1.4,1.4,0,0,0-.2-.81,2,2,0,0,1-.28-1,6.05,6.05,0,0,1,.23-1.44,5.46,5.46,0,0,0,0-3.43A3,3,0,0,0,53.6,8.59Z" transform="translate(-1.27 -1.27)" /><path class="cls-8" d="M53.07,10.5c.05-1.8-.71-2.8-.4-3,.48-.27,2.13.64,2.66,2.24.83,2.5-.16,3.83-.16,5.11,0,.66.48.69.48,1.81V20a1.45,1.45,0,0,1-1.5,1.44H51.87c-.53,0-.74-.44-1.05-.44s-.52.44-1.06.44H47.47A1.45,1.45,0,0,1,46,20v-3.3c0-1.12.48-1.15.48-1.81,0-1.28-1-2.61-.16-5.11.53-1.6,2.18-2.5,2.66-2.24.31.17-.45,1.17-.4,3a2.28,2.28,0,1,0,4.52,0Z" transform="translate(-1.27 -1.27)" /><path class="cls-9" d="M53.08,14.35a4.33,4.33,0,0,0,.84-1.71,3.54,3.54,0,0,1-.39,1.77,8.27,8.27,0,0,0-.89,1.83c-.15.7,1.31,1.76.56,2.29s-1.8-1.06-2.39-1.06S49.09,19,48.43,18.53s.72-1.59.56-2.29a10.68,10.68,0,0,0-.89-1.83,4.19,4.19,0,0,1-.39-1.77,4.33,4.33,0,0,0,.84,1.71,2.75,2.75,0,0,0,4.53,0Z" transform="translate(-1.27 -1.27)" /><path class="cls-6" d="M63.49,10.5c.05-1.8-.71-2.8-.4-3,.48-.27,2.13.64,2.66,2.24.83,2.5-.16,3.83-.16,5.11,0,.66.48.69.48,1.81V20a1.45,1.45,0,0,1-1.5,1.44H62.29c-.53,0-.74-.44-1.05-.44s-.52.44-1.06.44H57.89A1.45,1.45,0,0,1,56.39,20v-3.3c0-1.12.48-1.15.48-1.81,0-1.28-1-2.61-.16-5.11.53-1.6,2.18-2.5,2.66-2.24.31.17-.45,1.17-.4,3a2.28,2.28,0,1,0,4.52,0Z" transform="translate(-1.27 -1.27)" /><path class="cls-7" d="M64,8.59a7.07,7.07,0,0,1,.22,1.93,3,3,0,1,1-6,0,7.07,7.07,0,0,1,.22-1.93,3,3,0,0,0-1,1.4,5.46,5.46,0,0,0,0,3.43,6,6,0,0,1,.23,1.44,2,2,0,0,1-.28,1,1.4,1.4,0,0,0-.2.81V20a.71.71,0,0,0,.75.69h2.29c.05,0,.1,0,.24-.13a1.22,1.22,0,0,1,1.63,0c.15.1.19.12.24.12h2.29a.71.71,0,0,0,.75-.69v-3.3a1.4,1.4,0,0,0-.2-.81,2,2,0,0,1-.28-1,6.05,6.05,0,0,1,.23-1.44A5.46,5.46,0,0,0,65,10,3,3,0,0,0,64,8.59Z" transform="translate(-1.27 -1.27)" /><path class="cls-8" d="M63.49,10.5c.05-1.8-.71-2.8-.4-3,.48-.27,2.13.64,2.66,2.24.83,2.5-.16,3.83-.16,5.11,0,.66.48.69.48,1.81V20a1.45,1.45,0,0,1-1.5,1.44H62.29c-.53,0-.74-.44-1.05-.44s-.52.44-1.06.44H57.89A1.45,1.45,0,0,1,56.39,20v-3.3c0-1.12.48-1.15.48-1.81,0-1.28-1-2.61-.16-5.11.53-1.6,2.18-2.5,2.66-2.24.31.17-.45,1.17-.4,3a2.28,2.28,0,1,0,4.52,0Z" transform="translate(-1.27 -1.27)" /><path class="cls-9" d="M63.5,14.35a4.33,4.33,0,0,0,.84-1.71,3.54,3.54,0,0,1-.39,1.77,8.27,8.27,0,0,0-.89,1.83c-.15.7,1.31,1.76.56,2.29s-1.8-1.06-2.39-1.06S59.51,19,58.85,18.53s.72-1.59.56-2.29a10.68,10.68,0,0,0-.89-1.83,4.19,4.19,0,0,1-.39-1.77A4.33,4.33,0,0,0,59,14.35a2.75,2.75,0,0,0,4.53,0Z" transform="translate(-1.27 -1.27)" /><path class="cls-6" d="M42.65,10.5c.05-1.8-.71-2.8-.4-3,.48-.27,2.13.64,2.66,2.24.83,2.5-.16,3.83-.16,5.11,0,.66.48.69.48,1.81V20a1.45,1.45,0,0,1-1.5,1.44H41.45c-.53,0-.74-.44-1.05-.44s-.52.44-1.06.44H37A1.45,1.45,0,0,1,35.55,20v-3.3c0-1.12.48-1.15.48-1.81,0-1.28-1-2.61-.16-5.11.53-1.6,2.18-2.5,2.66-2.24.31.17-.45,1.17-.4,3a2.28,2.28,0,1,0,4.52,0Z" transform="translate(-1.27 -1.27)" /><path class="cls-7" d="M43.19,8.59a7.07,7.07,0,0,1,.22,1.93,3,3,0,1,1-6,0,7.07,7.07,0,0,1,.22-1.93,3,3,0,0,0-1,1.4,5.46,5.46,0,0,0,0,3.43,6,6,0,0,1,.23,1.44,2,2,0,0,1-.28,1,1.4,1.4,0,0,0-.2.81V20a.71.71,0,0,0,.75.69h2.29c.05,0,.1,0,.24-.13a1.22,1.22,0,0,1,1.63,0c.15.1.19.12.24.12h2.29a.71.71,0,0,0,.75-.69v-3.3a1.4,1.4,0,0,0-.2-.81,2,2,0,0,1-.28-1,6.05,6.05,0,0,1,.23-1.44,5.46,5.46,0,0,0,0-3.43A3,3,0,0,0,43.19,8.59Z" transform="translate(-1.27 -1.27)" /><path class="cls-8" d="M42.65,10.5c.05-1.8-.71-2.8-.4-3,.48-.27,2.13.64,2.66,2.24.83,2.5-.16,3.83-.16,5.11,0,.66.48.69.48,1.81V20a1.45,1.45,0,0,1-1.5,1.44H41.45c-.53,0-.74-.44-1.05-.44s-.52.44-1.06.44H37A1.45,1.45,0,0,1,35.55,20v-3.3c0-1.12.48-1.15.48-1.81,0-1.28-1-2.61-.16-5.11.53-1.6,2.18-2.5,2.66-2.24.31.17-.45,1.17-.4,3a2.28,2.28,0,1,0,4.52,0Z" transform="translate(-1.27 -1.27)" /><path class="cls-9" d="M42.66,14.35a4.33,4.33,0,0,0,.84-1.71,3.54,3.54,0,0,1-.39,1.77,8.27,8.27,0,0,0-.89,1.83c-.15.7,1.31,1.76.56,2.29s-1.8-1.06-2.39-1.06S38.68,19,38,18.53s.72-1.59.56-2.29a10.68,10.68,0,0,0-.89-1.83,4.19,4.19,0,0,1-.39-1.77,4.33,4.33,0,0,0,.84,1.71,2.75,2.75,0,0,0,4.53,0Z" transform="translate(-1.27 -1.27)" /></g><g class="cls-10"><path class="cls-11" d="M60.74,11.34a3.39,3.39,0,0,1,3.38,3.38V29.79a3.39,3.39,0,0,1-3.38,3.38H40.89a3.39,3.39,0,0,1-3.38-3.38V14.73a3.39,3.39,0,0,1,3.38-3.38H60.74m0-.75H40.89a4.13,4.13,0,0,0-4.13,4.13V29.79a4.13,4.13,0,0,0,4.13,4.13H60.74a4.13,4.13,0,0,0,4.13-4.13V14.73a4.13,4.13,0,0,0-4.13-4.13Z" transform="translate(-1.27 -1.27)" /></g><rect class="cls-4" x="5.86" y="36.81" width="28.11" height="23.32" rx="4.13" ry="4.13" /><g class="cls-13"><path class="cls-6" d="M23.45,61.5c.05,1.8-.71,2.8-.4,3,.48.27,2.13-.64,2.66-2.24.83-2.5-.16-3.83-.16-5.11,0-.66.48-.69.48-1.81V52a1.45,1.45,0,0,0-1.5-1.44H22.24c-.53,0-.74.44-1.05.44s-.52-.44-1.06-.44H17.84A1.45,1.45,0,0,0,16.35,52v3.3c0,1.12.48,1.15.48,1.81,0,1.28-1,2.61-.16,5.11.53,1.6,2.18,2.5,2.66,2.24.31-.17-.45-1.17-.4-3a2.4,2.4,0,0,1,2.26-2.55A2.4,2.4,0,0,1,23.45,61.5Z" transform="translate(-1.27 -1.27)" /><path class="cls-7" d="M24,63.41a7.07,7.07,0,0,0,.22-1.93,3.15,3.15,0,0,0-3-3.28,3.15,3.15,0,0,0-3,3.28,7.07,7.07,0,0,0,.22,1.93,3,3,0,0,1-1-1.4,5.46,5.46,0,0,1,0-3.43,6,6,0,0,0,.23-1.44,2,2,0,0,0-.28-1,1.4,1.4,0,0,1-.2-.81V52a.71.71,0,0,1,.75-.69h2.29c.05,0,.1,0,.24.13a1.22,1.22,0,0,0,1.63,0c.15-.1.19-.12.24-.12h2.29a.71.71,0,0,1,.75.69v3.3a1.4,1.4,0,0,1-.2.81,2,2,0,0,0-.28,1A6.05,6.05,0,0,0,25,58.58,5.46,5.46,0,0,1,25,62,3,3,0,0,1,24,63.41Z" transform="translate(-1.27 -1.27)" /><path class="cls-8" d="M23.45,61.5c.05,1.8-.71,2.8-.4,3,.48.27,2.13-.64,2.66-2.24.83-2.5-.16-3.83-.16-5.11,0-.66.48-.69.48-1.81V52a1.45,1.45,0,0,0-1.5-1.44H22.24c-.53,0-.74.44-1.05.44s-.52-.44-1.06-.44H17.84A1.45,1.45,0,0,0,16.35,52v3.3c0,1.12.48,1.15.48,1.81,0,1.28-1,2.61-.16,5.11.53,1.6,2.18,2.5,2.66,2.24.31-.17-.45-1.17-.4-3a2.4,2.4,0,0,1,2.26-2.55A2.4,2.4,0,0,1,23.45,61.5Z" transform="translate(-1.27 -1.27)" /><path class="cls-9" d="M23.45,57.65a4.33,4.33,0,0,1,.84,1.71,3.54,3.54,0,0,0-.39-1.77A8.27,8.27,0,0,1,23,55.76c-.15-.7,1.31-1.76.56-2.29s-1.8,1.06-2.39,1.06S19.47,53,18.8,53.47s.72,1.59.56,2.29a10.68,10.68,0,0,1-.89,1.83,4.19,4.19,0,0,0-.39,1.77,4.33,4.33,0,0,1,.84-1.71,2.75,2.75,0,0,1,4.53,0Z" transform="translate(-1.27 -1.27)" /><path class="cls-6" d="M33.87,61.5c.05,1.8-.71,2.8-.4,3,.48.27,2.13-.64,2.66-2.24.83-2.5-.16-3.83-.16-5.11,0-.66.48-.69.48-1.81V52A1.45,1.45,0,0,0,35,50.59H32.66c-.53,0-.74.44-1.05.44s-.52-.44-1.06-.44H28.26A1.45,1.45,0,0,0,26.76,52v3.3c0,1.12.48,1.15.48,1.81,0,1.28-1,2.61-.16,5.11.53,1.6,2.18,2.5,2.66,2.24.31-.17-.45-1.17-.4-3a2.28,2.28,0,1,1,4.52,0Z" transform="translate(-1.27 -1.27)" /><path class="cls-7" d="M34.4,63.41a7.07,7.07,0,0,0,.22-1.93,3,3,0,1,0-6,0,7.07,7.07,0,0,0,.22,1.93,3,3,0,0,1-1-1.4,5.46,5.46,0,0,1,0-3.43A6,6,0,0,0,28,57.13a2,2,0,0,0-.28-1,1.4,1.4,0,0,1-.2-.81V52a.71.71,0,0,1,.75-.69h2.29c.05,0,.1,0,.24.13a1.22,1.22,0,0,0,1.63,0c.15-.1.19-.12.24-.12H35a.71.71,0,0,1,.75.69v3.3a1.4,1.4,0,0,1-.2.81,2,2,0,0,0-.28,1,6.05,6.05,0,0,0,.23,1.44,5.46,5.46,0,0,1,0,3.43A3,3,0,0,1,34.4,63.41Z" transform="translate(-1.27 -1.27)" /><path class="cls-8" d="M33.87,61.5c.05,1.8-.71,2.8-.4,3,.48.27,2.13-.64,2.66-2.24.83-2.5-.16-3.83-.16-5.11,0-.66.48-.69.48-1.81V52A1.45,1.45,0,0,0,35,50.59H32.66c-.53,0-.74.44-1.05.44s-.52-.44-1.06-.44H28.26A1.45,1.45,0,0,0,26.76,52v3.3c0,1.12.48,1.15.48,1.81,0,1.28-1,2.61-.16,5.11.53,1.6,2.18,2.5,2.66,2.24.31-.17-.45-1.17-.4-3a2.28,2.28,0,1,1,4.52,0Z" transform="translate(-1.27 -1.27)" /><path class="cls-9" d="M33.87,57.65a4.33,4.33,0,0,1,.84,1.71,3.54,3.54,0,0,0-.39-1.77,8.27,8.27,0,0,1-.89-1.83c-.15-.7,1.31-1.76.56-2.29s-1.8,1.06-2.39,1.06S29.89,53,29.22,53.47s.72,1.59.56,2.29a10.68,10.68,0,0,1-.89,1.83,4.19,4.19,0,0,0-.39,1.77,4.33,4.33,0,0,1,.84-1.71,2.75,2.75,0,0,1,4.53,0Z" transform="translate(-1.27 -1.27)" /><path class="cls-6" d="M13,61.5c.05,1.8-.71,2.8-.4,3,.48.27,2.13-.64,2.66-2.24.83-2.5-.16-3.83-.16-5.11,0-.66.48-.69.48-1.81V52a1.45,1.45,0,0,0-1.5-1.44H11.82c-.53,0-.74.44-1.05.44s-.52-.44-1.06-.44H7.42A1.45,1.45,0,0,0,5.93,52v3.3c0,1.12.48,1.15.48,1.81,0,1.28-1,2.61-.16,5.11.53,1.6,2.18,2.5,2.66,2.24.31-.17-.45-1.17-.4-3a2.4,2.4,0,0,1,2.26-2.55A2.4,2.4,0,0,1,13,61.5Z" transform="translate(-1.27 -1.27)" /><path class="cls-7" d="M13.56,63.41a7.07,7.07,0,0,0,.22-1.93,3.15,3.15,0,0,0-3-3.28,3.15,3.15,0,0,0-3,3.28A7.07,7.07,0,0,0,8,63.41,3,3,0,0,1,7,62a5.46,5.46,0,0,1,0-3.43,6,6,0,0,0,.23-1.44,2,2,0,0,0-.28-1,1.4,1.4,0,0,1-.2-.81V52a.71.71,0,0,1,.75-.69H9.71c.05,0,.1,0,.24.13a1.38,1.38,0,0,0,.82.31,1.37,1.37,0,0,0,.82-.32c.15-.1.19-.12.24-.12h2.29a.71.71,0,0,1,.75.69v3.3a1.4,1.4,0,0,1-.2.81,2,2,0,0,0-.28,1,6.05,6.05,0,0,0,.23,1.44,5.46,5.46,0,0,1,0,3.43A3,3,0,0,1,13.56,63.41Z" transform="translate(-1.27 -1.27)" /><path class="cls-8" d="M13,61.5c.05,1.8-.71,2.8-.4,3,.48.27,2.13-.64,2.66-2.24.83-2.5-.16-3.83-.16-5.11,0-.66.48-.69.48-1.81V52a1.45,1.45,0,0,0-1.5-1.44H11.82c-.53,0-.74.44-1.05.44s-.52-.44-1.06-.44H7.42A1.45,1.45,0,0,0,5.93,52v3.3c0,1.12.48,1.15.48,1.81,0,1.28-1,2.61-.16,5.11.53,1.6,2.18,2.5,2.66,2.24.31-.17-.45-1.17-.4-3a2.4,2.4,0,0,1,2.26-2.55A2.4,2.4,0,0,1,13,61.5Z" transform="translate(-1.27 -1.27)" /><path class="cls-9" d="M13,57.65a4.33,4.33,0,0,1,.84,1.71,3.54,3.54,0,0,0-.39-1.77,8.27,8.27,0,0,1-.89-1.83c-.15-.7,1.31-1.76.56-2.29s-1.8,1.06-2.39,1.06S9.05,53,8.38,53.47s.72,1.59.56,2.29a10.68,10.68,0,0,1-.89,1.83,4.19,4.19,0,0,0-.39,1.77,4.33,4.33,0,0,1,.84-1.71,2.75,2.75,0,0,1,4.53,0Z" transform="translate(-1.27 -1.27)" /><path class="cls-6" d="M23.45,38c.05-1.8-.71-2.8-.4-3,.48-.27,2.13.64,2.66,2.24.83,2.5-.16,3.83-.16,5.11,0,.66.48.69.48,1.81v3.3a1.45,1.45,0,0,1-1.5,1.44H22.24c-.53,0-.74-.44-1.05-.44s-.52.44-1.06.44H17.84a1.45,1.45,0,0,1-1.5-1.44v-3.3c0-1.12.48-1.15.48-1.81,0-1.28-1-2.61-.16-5.11.53-1.6,2.18-2.5,2.66-2.24.31.17-.45,1.17-.4,3a2.4,2.4,0,0,0,2.26,2.55A2.4,2.4,0,0,0,23.45,38Z" transform="translate(-1.27 -1.27)" /><path class="cls-7" d="M24,36.08A7.07,7.07,0,0,1,24.2,38a3.15,3.15,0,0,1-3,3.28,3.15,3.15,0,0,1-3-3.28,7.07,7.07,0,0,1,.22-1.93,3,3,0,0,0-1,1.4,5.46,5.46,0,0,0,0,3.43,6,6,0,0,1,.23,1.44,2,2,0,0,1-.28,1,1.4,1.4,0,0,0-.2.81v3.3a.71.71,0,0,0,.75.69h2.29c.05,0,.1,0,.24-.13A1.22,1.22,0,0,1,22,48c.15.1.19.12.24.12h2.29a.71.71,0,0,0,.75-.69v-3.3a1.4,1.4,0,0,0-.2-.81,2,2,0,0,1-.28-1A6.05,6.05,0,0,1,25,40.91a5.46,5.46,0,0,0,0-3.43A3,3,0,0,0,24,36.08Z" transform="translate(-1.27 -1.27)" /><path class="cls-8" d="M23.45,38c.05-1.8-.71-2.8-.4-3,.48-.27,2.13.64,2.66,2.24.83,2.5-.16,3.83-.16,5.11,0,.66.48.69.48,1.81v3.3a1.45,1.45,0,0,1-1.5,1.44H22.24c-.53,0-.74-.44-1.05-.44s-.52.44-1.06.44H17.84a1.45,1.45,0,0,1-1.5-1.44v-3.3c0-1.12.48-1.15.48-1.81,0-1.28-1-2.61-.16-5.11.53-1.6,2.18-2.5,2.66-2.24.31.17-.45,1.17-.4,3a2.4,2.4,0,0,0,2.26,2.55A2.4,2.4,0,0,0,23.45,38Z" transform="translate(-1.27 -1.27)" /><path class="cls-9" d="M23.45,41.83a4.33,4.33,0,0,0,.84-1.71,3.54,3.54,0,0,1-.39,1.77A8.27,8.27,0,0,0,23,43.73c-.15.7,1.31,1.76.56,2.29S21.77,45,21.19,45,19.47,46.49,18.8,46s.72-1.59.56-2.29a10.68,10.68,0,0,0-.89-1.83,4.19,4.19,0,0,1-.39-1.77,4.33,4.33,0,0,0,.84,1.71,2.75,2.75,0,0,0,4.53,0Z" transform="translate(-1.27 -1.27)" /><path class="cls-6" d="M33.87,38c.05-1.8-.71-2.8-.4-3,.48-.27,2.13.64,2.66,2.24.83,2.5-.16,3.83-.16,5.11,0,.66.48.69.48,1.81v3.3A1.45,1.45,0,0,1,35,48.9H32.66c-.53,0-.74-.44-1.05-.44s-.52.44-1.06.44H28.26a1.45,1.45,0,0,1-1.5-1.44v-3.3c0-1.12.48-1.15.48-1.81,0-1.28-1-2.61-.16-5.11.53-1.6,2.18-2.5,2.66-2.24.31.17-.45,1.17-.4,3a2.28,2.28,0,1,0,4.52,0Z" transform="translate(-1.27 -1.27)" /><path class="cls-7" d="M34.4,36.08A7.07,7.07,0,0,1,34.62,38a3,3,0,1,1-6,0,7.07,7.07,0,0,1,.22-1.93,3,3,0,0,0-1,1.4,5.46,5.46,0,0,0,0,3.43A6,6,0,0,1,28,42.35a2,2,0,0,1-.28,1,1.4,1.4,0,0,0-.2.81v3.3a.71.71,0,0,0,.75.69h2.29c.05,0,.1,0,.24-.13a1.22,1.22,0,0,1,1.63,0c.15.1.19.12.24.12H35a.71.71,0,0,0,.75-.69v-3.3a1.4,1.4,0,0,0-.2-.81,2,2,0,0,1-.28-1,6.05,6.05,0,0,1,.23-1.44,5.46,5.46,0,0,0,0-3.43A3,3,0,0,0,34.4,36.08Z" transform="translate(-1.27 -1.27)" /><path class="cls-8" d="M33.87,38c.05-1.8-.71-2.8-.4-3,.48-.27,2.13.64,2.66,2.24.83,2.5-.16,3.83-.16,5.11,0,.66.48.69.48,1.81v3.3A1.45,1.45,0,0,1,35,48.9H32.66c-.53,0-.74-.44-1.05-.44s-.52.44-1.06.44H28.26a1.45,1.45,0,0,1-1.5-1.44v-3.3c0-1.12.48-1.15.48-1.81,0-1.28-1-2.61-.16-5.11.53-1.6,2.18-2.5,2.66-2.24.31.17-.45,1.17-.4,3a2.28,2.28,0,1,0,4.52,0Z" transform="translate(-1.27 -1.27)" /><path class="cls-9" d="M33.87,41.83a4.33,4.33,0,0,0,.84-1.71,3.54,3.54,0,0,1-.39,1.77,8.27,8.27,0,0,0-.89,1.83c-.15.7,1.31,1.76.56,2.29S32.19,45,31.61,45,29.89,46.49,29.22,46s.72-1.59.56-2.29a10.68,10.68,0,0,0-.89-1.83,4.19,4.19,0,0,1-.39-1.77,4.33,4.33,0,0,0,.84,1.71,2.75,2.75,0,0,0,4.53,0Z" transform="translate(-1.27 -1.27)" /><path class="cls-6" d="M13,38c.05-1.8-.71-2.8-.4-3,.48-.27,2.13.64,2.66,2.24.83,2.5-.16,3.83-.16,5.11,0,.66.48.69.48,1.81v3.3a1.45,1.45,0,0,1-1.5,1.44H11.82c-.53,0-.74-.44-1.05-.44s-.52.44-1.06.44H7.42a1.45,1.45,0,0,1-1.5-1.44v-3.3c0-1.12.48-1.15.48-1.81,0-1.28-1-2.61-.16-5.11.53-1.6,2.18-2.5,2.66-2.24.31.17-.45,1.17-.4,3a2.4,2.4,0,0,0,2.26,2.55A2.4,2.4,0,0,0,13,38Z" transform="translate(-1.27 -1.27)" /><path class="cls-7" d="M13.56,36.08A7.07,7.07,0,0,1,13.78,38a3.15,3.15,0,0,1-3,3.28,3.15,3.15,0,0,1-3-3.28A7.07,7.07,0,0,1,8,36.08a3,3,0,0,0-1,1.4,5.46,5.46,0,0,0,0,3.43,6,6,0,0,1,.23,1.44,2,2,0,0,1-.28,1,1.4,1.4,0,0,0-.2.81v3.3a.71.71,0,0,0,.75.69H9.71c.05,0,.1,0,.24-.13a1.38,1.38,0,0,1,.82-.31,1.37,1.37,0,0,1,.82.32c.15.1.19.12.24.12h2.29a.71.71,0,0,0,.75-.69v-3.3a1.4,1.4,0,0,0-.2-.81,2,2,0,0,1-.28-1,6.05,6.05,0,0,1,.23-1.44,5.46,5.46,0,0,0,0-3.43A3,3,0,0,0,13.56,36.08Z" transform="translate(-1.27 -1.27)" /><path class="cls-8" d="M13,38c.05-1.8-.71-2.8-.4-3,.48-.27,2.13.64,2.66,2.24.83,2.5-.16,3.83-.16,5.11,0,.66.48.69.48,1.81v3.3a1.45,1.45,0,0,1-1.5,1.44H11.82c-.53,0-.74-.44-1.05-.44s-.52.44-1.06.44H7.42a1.45,1.45,0,0,1-1.5-1.44v-3.3c0-1.12.48-1.15.48-1.81,0-1.28-1-2.61-.16-5.11.53-1.6,2.18-2.5,2.66-2.24.31.17-.45,1.17-.4,3a2.4,2.4,0,0,0,2.26,2.55A2.4,2.4,0,0,0,13,38Z" transform="translate(-1.27 -1.27)" /><path class="cls-9" d="M13,41.83a4.33,4.33,0,0,0,.84-1.71,3.54,3.54,0,0,1-.39,1.77,8.27,8.27,0,0,0-.89,1.83c-.15.7,1.31,1.76.56,2.29S11.35,45,10.77,45,9.05,46.49,8.38,46s.72-1.59.56-2.29a10.68,10.68,0,0,0-.89-1.83,4.19,4.19,0,0,1-.39-1.77,4.33,4.33,0,0,0,.84,1.71,2.75,2.75,0,0,0,4.53,0Z" transform="translate(-1.27 -1.27)" /></g><g class="cls-10"><path class="cls-11" d="M31.11,38.83a3.39,3.39,0,0,1,3.38,3.38V57.27a3.39,3.39,0,0,1-3.38,3.38H11.26a3.39,3.39,0,0,1-3.38-3.38V42.21a3.39,3.39,0,0,1,3.38-3.38H31.11m0-.75H11.26a4.13,4.13,0,0,0-4.13,4.13V57.27a4.13,4.13,0,0,0,4.13,4.13H31.11a4.13,4.13,0,0,0,4.13-4.13V42.21a4.13,4.13,0,0,0-4.13-4.13Z" transform="translate(-1.27 -1.27)" /></g><rect class="cls-4" x="35.48" y="36.81" width="28.11" height="23.32" rx="4.13" ry="4.13" /><g class="cls-14"><path class="cls-6" d="M53.07,61.5c.05,1.8-.71,2.8-.4,3,.48.27,2.13-.64,2.66-2.24.83-2.5-.16-3.83-.16-5.11,0-.66.48-.69.48-1.81V52a1.45,1.45,0,0,0-1.5-1.44H51.87c-.53,0-.74.44-1.05.44s-.52-.44-1.06-.44H47.47A1.45,1.45,0,0,0,46,52v3.3c0,1.12.48,1.15.48,1.81,0,1.28-1,2.61-.16,5.11.53,1.6,2.18,2.5,2.66,2.24.31-.17-.45-1.17-.4-3a2.28,2.28,0,1,1,4.52,0Z" transform="translate(-1.27 -1.27)" /><path class="cls-7" d="M53.6,63.41a7.07,7.07,0,0,0,.22-1.93,3,3,0,1,0-6,0A7.07,7.07,0,0,0,48,63.41,3,3,0,0,1,47,62a5.46,5.46,0,0,1,0-3.43,6,6,0,0,0,.23-1.44,2,2,0,0,0-.28-1,1.4,1.4,0,0,1-.2-.81V52a.71.71,0,0,1,.75-.69h2.29c.05,0,.1,0,.24.13a1.22,1.22,0,0,0,1.63,0c.15-.1.19-.12.24-.12h2.29a.71.71,0,0,1,.75.69v3.3a1.4,1.4,0,0,1-.2.81,2,2,0,0,0-.28,1,6.05,6.05,0,0,0,.23,1.44,5.46,5.46,0,0,1,0,3.43A3,3,0,0,1,53.6,63.41Z" transform="translate(-1.27 -1.27)" /><path class="cls-8" d="M53.07,61.5c.05,1.8-.71,2.8-.4,3,.48.27,2.13-.64,2.66-2.24.83-2.5-.16-3.83-.16-5.11,0-.66.48-.69.48-1.81V52a1.45,1.45,0,0,0-1.5-1.44H51.87c-.53,0-.74.44-1.05.44s-.52-.44-1.06-.44H47.47A1.45,1.45,0,0,0,46,52v3.3c0,1.12.48,1.15.48,1.81,0,1.28-1,2.61-.16,5.11.53,1.6,2.18,2.5,2.66,2.24.31-.17-.45-1.17-.4-3a2.28,2.28,0,1,1,4.52,0Z" transform="translate(-1.27 -1.27)" /><path class="cls-9" d="M53.08,57.65a4.33,4.33,0,0,1,.84,1.71,3.54,3.54,0,0,0-.39-1.77,8.27,8.27,0,0,1-.89-1.83c-.15-.7,1.31-1.76.56-2.29s-1.8,1.06-2.39,1.06S49.09,53,48.43,53.47s.72,1.59.56,2.29a10.68,10.68,0,0,1-.89,1.83,4.19,4.19,0,0,0-.39,1.77,4.33,4.33,0,0,1,.84-1.71,2.75,2.75,0,0,1,4.53,0Z" transform="translate(-1.27 -1.27)" /><path class="cls-6" d="M63.49,61.5c.05,1.8-.71,2.8-.4,3,.48.27,2.13-.64,2.66-2.24.83-2.5-.16-3.83-.16-5.11,0-.66.48-.69.48-1.81V52a1.45,1.45,0,0,0-1.5-1.44H62.29c-.53,0-.74.44-1.05.44s-.52-.44-1.06-.44H57.89A1.45,1.45,0,0,0,56.39,52v3.3c0,1.12.48,1.15.48,1.81,0,1.28-1,2.61-.16,5.11.53,1.6,2.18,2.5,2.66,2.24.31-.17-.45-1.17-.4-3a2.28,2.28,0,1,1,4.52,0Z" transform="translate(-1.27 -1.27)" /><path class="cls-7" d="M64,63.41a7.07,7.07,0,0,0,.22-1.93,3,3,0,1,0-6,0,7.07,7.07,0,0,0,.22,1.93,3,3,0,0,1-1-1.4,5.46,5.46,0,0,1,0-3.43,6,6,0,0,0,.23-1.44,2,2,0,0,0-.28-1,1.4,1.4,0,0,1-.2-.81V52a.71.71,0,0,1,.75-.69h2.29c.05,0,.1,0,.24.13a1.22,1.22,0,0,0,1.63,0c.15-.1.19-.12.24-.12h2.29a.71.71,0,0,1,.75.69v3.3a1.4,1.4,0,0,1-.2.81,2,2,0,0,0-.28,1,6.05,6.05,0,0,0,.23,1.44A5.46,5.46,0,0,1,65,62,3,3,0,0,1,64,63.41Z" transform="translate(-1.27 -1.27)" /><path class="cls-8" d="M63.49,61.5c.05,1.8-.71,2.8-.4,3,.48.27,2.13-.64,2.66-2.24.83-2.5-.16-3.83-.16-5.11,0-.66.48-.69.48-1.81V52a1.45,1.45,0,0,0-1.5-1.44H62.29c-.53,0-.74.44-1.05.44s-.52-.44-1.06-.44H57.89A1.45,1.45,0,0,0,56.39,52v3.3c0,1.12.48,1.15.48,1.81,0,1.28-1,2.61-.16,5.11.53,1.6,2.18,2.5,2.66,2.24.31-.17-.45-1.17-.4-3a2.28,2.28,0,1,1,4.52,0Z" transform="translate(-1.27 -1.27)" /><path class="cls-9" d="M63.5,57.65a4.33,4.33,0,0,1,.84,1.71,3.54,3.54,0,0,0-.39-1.77,8.27,8.27,0,0,1-.89-1.83c-.15-.7,1.31-1.76.56-2.29s-1.8,1.06-2.39,1.06S59.51,53,58.85,53.47s.72,1.59.56,2.29a10.68,10.68,0,0,1-.89,1.83,4.19,4.19,0,0,0-.39,1.77A4.33,4.33,0,0,1,59,57.65a2.75,2.75,0,0,1,4.53,0Z" transform="translate(-1.27 -1.27)" /><path class="cls-6" d="M42.65,61.5c.05,1.8-.71,2.8-.4,3,.48.27,2.13-.64,2.66-2.24.83-2.5-.16-3.83-.16-5.11,0-.66.48-.69.48-1.81V52a1.45,1.45,0,0,0-1.5-1.44H41.45c-.53,0-.74.44-1.05.44s-.52-.44-1.06-.44H37A1.45,1.45,0,0,0,35.55,52v3.3c0,1.12.48,1.15.48,1.81,0,1.28-1,2.61-.16,5.11.53,1.6,2.18,2.5,2.66,2.24.31-.17-.45-1.17-.4-3a2.28,2.28,0,1,1,4.52,0Z" transform="translate(-1.27 -1.27)" /><path class="cls-7" d="M43.19,63.41a7.07,7.07,0,0,0,.22-1.93,3,3,0,1,0-6,0,7.07,7.07,0,0,0,.22,1.93,3,3,0,0,1-1-1.4,5.46,5.46,0,0,1,0-3.43,6,6,0,0,0,.23-1.44,2,2,0,0,0-.28-1,1.4,1.4,0,0,1-.2-.81V52a.71.71,0,0,1,.75-.69h2.29c.05,0,.1,0,.24.13a1.22,1.22,0,0,0,1.63,0c.15-.1.19-.12.24-.12h2.29a.71.71,0,0,1,.75.69v3.3a1.4,1.4,0,0,1-.2.81,2,2,0,0,0-.28,1,6.05,6.05,0,0,0,.23,1.44,5.46,5.46,0,0,1,0,3.43A3,3,0,0,1,43.19,63.41Z" transform="translate(-1.27 -1.27)" /><path class="cls-8" d="M42.65,61.5c.05,1.8-.71,2.8-.4,3,.48.27,2.13-.64,2.66-2.24.83-2.5-.16-3.83-.16-5.11,0-.66.48-.69.48-1.81V52a1.45,1.45,0,0,0-1.5-1.44H41.45c-.53,0-.74.44-1.05.44s-.52-.44-1.06-.44H37A1.45,1.45,0,0,0,35.55,52v3.3c0,1.12.48,1.15.48,1.81,0,1.28-1,2.61-.16,5.11.53,1.6,2.18,2.5,2.66,2.24.31-.17-.45-1.17-.4-3a2.28,2.28,0,1,1,4.52,0Z" transform="translate(-1.27 -1.27)" /><path class="cls-9" d="M42.66,57.65a4.33,4.33,0,0,1,.84,1.71,3.54,3.54,0,0,0-.39-1.77,8.27,8.27,0,0,1-.89-1.83c-.15-.7,1.31-1.76.56-2.29s-1.8,1.06-2.39,1.06S38.68,53,38,53.47s.72,1.59.56,2.29a10.68,10.68,0,0,1-.89,1.83,4.19,4.19,0,0,0-.39,1.77,4.33,4.33,0,0,1,.84-1.71,2.75,2.75,0,0,1,4.53,0Z" transform="translate(-1.27 -1.27)" /><path class="cls-6" d="M53.07,38c.05-1.8-.71-2.8-.4-3,.48-.27,2.13.64,2.66,2.24.83,2.5-.16,3.83-.16,5.11,0,.66.48.69.48,1.81v3.3a1.45,1.45,0,0,1-1.5,1.44H51.87c-.53,0-.74-.44-1.05-.44s-.52.44-1.06.44H47.47A1.45,1.45,0,0,1,46,47.46v-3.3c0-1.12.48-1.15.48-1.81,0-1.28-1-2.61-.16-5.11.53-1.6,2.18-2.5,2.66-2.24.31.17-.45,1.17-.4,3a2.28,2.28,0,1,0,4.52,0Z" transform="translate(-1.27 -1.27)" /><path class="cls-7" d="M53.6,36.08A7.07,7.07,0,0,1,53.82,38a3,3,0,1,1-6,0A7.07,7.07,0,0,1,48,36.08a3,3,0,0,0-1,1.4,5.46,5.46,0,0,0,0,3.43,6,6,0,0,1,.23,1.44,2,2,0,0,1-.28,1,1.4,1.4,0,0,0-.2.81v3.3a.71.71,0,0,0,.75.69h2.29c.05,0,.1,0,.24-.13a1.22,1.22,0,0,1,1.63,0c.15.1.19.12.24.12h2.29a.71.71,0,0,0,.75-.69v-3.3a1.4,1.4,0,0,0-.2-.81,2,2,0,0,1-.28-1,6.05,6.05,0,0,1,.23-1.44,5.46,5.46,0,0,0,0-3.43A3,3,0,0,0,53.6,36.08Z" transform="translate(-1.27 -1.27)" /><path class="cls-8" d="M53.07,38c.05-1.8-.71-2.8-.4-3,.48-.27,2.13.64,2.66,2.24.83,2.5-.16,3.83-.16,5.11,0,.66.48.69.48,1.81v3.3a1.45,1.45,0,0,1-1.5,1.44H51.87c-.53,0-.74-.44-1.05-.44s-.52.44-1.06.44H47.47A1.45,1.45,0,0,1,46,47.46v-3.3c0-1.12.48-1.15.48-1.81,0-1.28-1-2.61-.16-5.11.53-1.6,2.18-2.5,2.66-2.24.31.17-.45,1.17-.4,3a2.28,2.28,0,1,0,4.52,0Z" transform="translate(-1.27 -1.27)" /><path class="cls-9" d="M53.08,41.83a4.33,4.33,0,0,0,.84-1.71,3.54,3.54,0,0,1-.39,1.77,8.27,8.27,0,0,0-.89,1.83c-.15.7,1.31,1.76.56,2.29S51.4,45,50.81,45,49.09,46.49,48.43,46s.72-1.59.56-2.29a10.68,10.68,0,0,0-.89-1.83,4.19,4.19,0,0,1-.39-1.77,4.33,4.33,0,0,0,.84,1.71,2.75,2.75,0,0,0,4.53,0Z" transform="translate(-1.27 -1.27)" /><path class="cls-6" d="M63.49,38c.05-1.8-.71-2.8-.4-3,.48-.27,2.13.64,2.66,2.24.83,2.5-.16,3.83-.16,5.11,0,.66.48.69.48,1.81v3.3a1.45,1.45,0,0,1-1.5,1.44H62.29c-.53,0-.74-.44-1.05-.44s-.52.44-1.06.44H57.89a1.45,1.45,0,0,1-1.5-1.44v-3.3c0-1.12.48-1.15.48-1.81,0-1.28-1-2.61-.16-5.11.53-1.6,2.18-2.5,2.66-2.24.31.17-.45,1.17-.4,3a2.28,2.28,0,1,0,4.52,0Z" transform="translate(-1.27 -1.27)" /><path class="cls-7" d="M64,36.08A7.07,7.07,0,0,1,64.24,38a3,3,0,1,1-6,0,7.07,7.07,0,0,1,.22-1.93,3,3,0,0,0-1,1.4,5.46,5.46,0,0,0,0,3.43,6,6,0,0,1,.23,1.44,2,2,0,0,1-.28,1,1.4,1.4,0,0,0-.2.81v3.3a.71.71,0,0,0,.75.69h2.29c.05,0,.1,0,.24-.13A1.22,1.22,0,0,1,62,48c.15.1.19.12.24.12h2.29a.71.71,0,0,0,.75-.69v-3.3a1.4,1.4,0,0,0-.2-.81,2,2,0,0,1-.28-1,6.05,6.05,0,0,1,.23-1.44,5.46,5.46,0,0,0,0-3.43A3,3,0,0,0,64,36.08Z" transform="translate(-1.27 -1.27)" /><path class="cls-8" d="M63.49,38c.05-1.8-.71-2.8-.4-3,.48-.27,2.13.64,2.66,2.24.83,2.5-.16,3.83-.16,5.11,0,.66.48.69.48,1.81v3.3a1.45,1.45,0,0,1-1.5,1.44H62.29c-.53,0-.74-.44-1.05-.44s-.52.44-1.06.44H57.89a1.45,1.45,0,0,1-1.5-1.44v-3.3c0-1.12.48-1.15.48-1.81,0-1.28-1-2.61-.16-5.11.53-1.6,2.18-2.5,2.66-2.24.31.17-.45,1.17-.4,3a2.28,2.28,0,1,0,4.52,0Z" transform="translate(-1.27 -1.27)" /><path class="cls-9" d="M63.5,41.83a4.33,4.33,0,0,0,.84-1.71,3.54,3.54,0,0,1-.39,1.77,8.27,8.27,0,0,0-.89,1.83c-.15.7,1.31,1.76.56,2.29S61.82,45,61.23,45,59.51,46.49,58.85,46s.72-1.59.56-2.29a10.68,10.68,0,0,0-.89-1.83,4.19,4.19,0,0,1-.39-1.77A4.33,4.33,0,0,0,59,41.83a2.75,2.75,0,0,0,4.53,0Z" transform="translate(-1.27 -1.27)" /><path class="cls-6" d="M42.65,38c.05-1.8-.71-2.8-.4-3,.48-.27,2.13.64,2.66,2.24.83,2.5-.16,3.83-.16,5.11,0,.66.48.69.48,1.81v3.3a1.45,1.45,0,0,1-1.5,1.44H41.45c-.53,0-.74-.44-1.05-.44s-.52.44-1.06.44H37a1.45,1.45,0,0,1-1.5-1.44v-3.3c0-1.12.48-1.15.48-1.81,0-1.28-1-2.61-.16-5.11.53-1.6,2.18-2.5,2.66-2.24.31.17-.45,1.17-.4,3a2.28,2.28,0,1,0,4.52,0Z" transform="translate(-1.27 -1.27)" /><path class="cls-7" d="M43.19,36.08A7.07,7.07,0,0,1,43.4,38a3,3,0,1,1-6,0,7.07,7.07,0,0,1,.22-1.93,3,3,0,0,0-1,1.4,5.46,5.46,0,0,0,0,3.43,6,6,0,0,1,.23,1.44,2,2,0,0,1-.28,1,1.4,1.4,0,0,0-.2.81v3.3a.71.71,0,0,0,.75.69h2.29c.05,0,.1,0,.24-.13a1.22,1.22,0,0,1,1.63,0c.15.1.19.12.24.12h2.29a.71.71,0,0,0,.75-.69v-3.3a1.4,1.4,0,0,0-.2-.81,2,2,0,0,1-.28-1,6.05,6.05,0,0,1,.23-1.44,5.46,5.46,0,0,0,0-3.43A3,3,0,0,0,43.19,36.08Z" transform="translate(-1.27 -1.27)" /><path class="cls-8" d="M42.65,38c.05-1.8-.71-2.8-.4-3,.48-.27,2.13.64,2.66,2.24.83,2.5-.16,3.83-.16,5.11,0,.66.48.69.48,1.81v3.3a1.45,1.45,0,0,1-1.5,1.44H41.45c-.53,0-.74-.44-1.05-.44s-.52.44-1.06.44H37a1.45,1.45,0,0,1-1.5-1.44v-3.3c0-1.12.48-1.15.48-1.81,0-1.28-1-2.61-.16-5.11.53-1.6,2.18-2.5,2.66-2.24.31.17-.45,1.17-.4,3a2.28,2.28,0,1,0,4.52,0Z" transform="translate(-1.27 -1.27)" /><path class="cls-9" d="M42.66,41.83a4.33,4.33,0,0,0,.84-1.71,3.54,3.54,0,0,1-.39,1.77,8.27,8.27,0,0,0-.89,1.83c-.15.7,1.31,1.76.56,2.29S41,45,40.39,45,38.68,46.49,38,46s.72-1.59.56-2.29a10.68,10.68,0,0,0-.89-1.83,4.19,4.19,0,0,1-.39-1.77,4.33,4.33,0,0,0,.84,1.71,2.75,2.75,0,0,0,4.53,0Z" transform="translate(-1.27 -1.27)" /></g><g class="cls-10"><path class="cls-11" d="M60.74,38.83a3.39,3.39,0,0,1,3.38,3.38V57.27a3.39,3.39,0,0,1-3.38,3.38H40.89a3.39,3.39,0,0,1-3.38-3.38V42.21a3.39,3.39,0,0,1,3.38-3.38H60.74m0-.75H40.89a4.13,4.13,0,0,0-4.13,4.13V57.27a4.13,4.13,0,0,0,4.13,4.13H60.74a4.13,4.13,0,0,0,4.13-4.13V42.21a4.13,4.13,0,0,0-4.13-4.13Z" transform="translate(-1.27 -1.27)" /></g></svg>