<svg id="D0272_-_bitewing_two_radiographic_images" data-name="D0272 - bitewing two radiographic images" xmlns="http://www.w3.org/2000/svg" xmlns:xlink="http://www.w3.org/1999/xlink" viewBox="0 0 69.46 69.46"><defs><style>.cls-1,.cls-8{fill:none;}.cls-2{stroke:#dcddde;stroke-width:1.06px;fill:url(#New_Gradient_Swatch_2);}.cls-2,.cls-8{stroke-miterlimit:10;}.cls-3{fill:url(#New_Gradient_Swatch_2-2);}.cls-4{fill:#22356c;}.cls-5{clip-path:url(#clip-path);}.cls-6{fill:#94d8e9;}.cls-7{fill:#64cbe2;}.cls-8{stroke:#c8e9f2;stroke-width:0.35px;}.cls-9{fill:#00b3de;}.cls-10{opacity:0.8;}.cls-11{fill:#184782;}.cls-12{clip-path:url(#clip-path-2);}</style><linearGradient id="New_Gradient_Swatch_2" x1="34.73" y1="45.42" x2="34.73" y2="62.25" gradientUnits="userSpaceOnUse"><stop offset="0" stop-color="#fff" /><stop offset="1" stop-color="#f2f2f2" /></linearGradient><linearGradient id="New_Gradient_Swatch_2-2" x1="36" y1="24.22" x2="36" y2="7.14" xlink:href="#New_Gradient_Swatch_2" /><clipPath id="clip-path" transform="translate(-1.27 -1.27)"><path class="cls-1" d="M11.26,24.34H31.11a4.13,4.13,0,0,1,4.13,4.13V43.81a3.86,3.86,0,0,1-3.86,3.86H11.26a4.13,4.13,0,0,1-4.13-4.13V28.47A4.13,4.13,0,0,1,11.26,24.34Z" /></clipPath><clipPath id="clip-path-2" transform="translate(-1.27 -1.27)"><path class="cls-1" d="M40.89,24.34H60.74a4.13,4.13,0,0,1,4.13,4.13V43.81A3.86,3.86,0,0,1,61,47.66H40.89a4.13,4.13,0,0,1-4.13-4.13V28.47A4.13,4.13,0,0,1,40.89,24.34Z" /></clipPath></defs><title>D0272_bitewing_two_radiographic_images</title><rect class="cls-4" x="5.86" y="23.07" width="28.11" height="23.32" rx="4.13" ry="4.13" /><g class="cls-5"><path class="cls-6" d="M23.45,47.76c.05,1.8-.71,2.8-.4,3,.48.27,2.13-.64,2.66-2.24.83-2.5-.16-3.83-.16-5.11,0-.66.48-.69.48-1.81v-3.3a1.45,1.45,0,0,0-1.5-1.44H22.24c-.53,0-.74.44-1.05.44s-.52-.44-1.06-.44H17.84a1.45,1.45,0,0,0-1.5,1.44v3.3c0,1.12.48,1.15.48,1.81,0,1.28-1,2.61-.16,5.11.53,1.6,2.18,2.5,2.66,2.24.31-.17-.45-1.17-.4-3a2.4,2.4,0,0,1,2.26-2.55A2.4,2.4,0,0,1,23.45,47.76Z" transform="translate(-1.27 -1.27)" /><path class="cls-7" d="M24,49.66a7.07,7.07,0,0,0,.22-1.93,3.15,3.15,0,0,0-3-3.28,3.15,3.15,0,0,0-3,3.28,7.07,7.07,0,0,0,.22,1.93,3,3,0,0,1-1-1.4,5.46,5.46,0,0,1,0-3.43,6,6,0,0,0,.23-1.44,2,2,0,0,0-.28-1,1.4,1.4,0,0,1-.2-.81v-3.3a.71.71,0,0,1,.75-.69h2.29c.05,0,.1,0,.24.13a1.22,1.22,0,0,0,1.63,0c.15-.1.19-.12.24-.12h2.29a.71.71,0,0,1,.75.69v3.3a1.4,1.4,0,0,1-.2.81,2,2,0,0,0-.28,1A6.05,6.05,0,0,0,25,44.83a5.46,5.46,0,0,1,0,3.43A3,3,0,0,1,24,49.66Z" transform="translate(-1.27 -1.27)" /><path class="cls-8" d="M23.45,47.76c.05,1.8-.71,2.8-.4,3,.48.27,2.13-.64,2.66-2.24.83-2.5-.16-3.83-.16-5.11,0-.66.48-.69.48-1.81v-3.3a1.45,1.45,0,0,0-1.5-1.44H22.24c-.53,0-.74.44-1.05.44s-.52-.44-1.06-.44H17.84a1.45,1.45,0,0,0-1.5,1.44v3.3c0,1.12.48,1.15.48,1.81,0,1.28-1,2.61-.16,5.11.53,1.6,2.18,2.5,2.66,2.24.31-.17-.45-1.17-.4-3a2.4,2.4,0,0,1,2.26-2.55A2.4,2.4,0,0,1,23.45,47.76Z" transform="translate(-1.27 -1.27)" /><path class="cls-9" d="M23.45,43.91a4.33,4.33,0,0,1,.84,1.71,3.54,3.54,0,0,0-.39-1.77A8.27,8.27,0,0,1,23,42c-.15-.7,1.31-1.76.56-2.29s-1.8,1.06-2.39,1.06-1.72-1.53-2.39-1.06.72,1.59.56,2.29a10.68,10.68,0,0,1-.89,1.83,4.19,4.19,0,0,0-.39,1.77,4.33,4.33,0,0,1,.84-1.71,2.75,2.75,0,0,1,4.53,0Z" transform="translate(-1.27 -1.27)" /><path class="cls-6" d="M33.87,47.76c.05,1.8-.71,2.8-.4,3,.48.27,2.13-.64,2.66-2.24C37,46,36,44.67,36,43.39c0-.66.48-.69.48-1.81v-3.3A1.45,1.45,0,0,0,35,36.84H32.66c-.53,0-.74.44-1.05.44s-.52-.44-1.06-.44H28.26a1.45,1.45,0,0,0-1.5,1.44v3.3c0,1.12.48,1.15.48,1.81,0,1.28-1,2.61-.16,5.11.53,1.6,2.18,2.5,2.66,2.24.31-.17-.45-1.17-.4-3a2.28,2.28,0,1,1,4.52,0Z" transform="translate(-1.27 -1.27)" /><path class="cls-7" d="M34.4,49.66a7.07,7.07,0,0,0,.22-1.93,3,3,0,1,0-6,0,7.07,7.07,0,0,0,.22,1.93,3,3,0,0,1-1-1.4,5.46,5.46,0,0,1,0-3.43A6,6,0,0,0,28,43.39a2,2,0,0,0-.28-1,1.4,1.4,0,0,1-.2-.81v-3.3a.71.71,0,0,1,.75-.69h2.29c.05,0,.1,0,.24.13a1.22,1.22,0,0,0,1.63,0c.15-.1.19-.12.24-.12H35a.71.71,0,0,1,.75.69v3.3a1.4,1.4,0,0,1-.2.81,2,2,0,0,0-.28,1,6.05,6.05,0,0,0,.23,1.44,5.46,5.46,0,0,1,0,3.43A3,3,0,0,1,34.4,49.66Z" transform="translate(-1.27 -1.27)" /><path class="cls-8" d="M33.87,47.76c.05,1.8-.71,2.8-.4,3,.48.27,2.13-.64,2.66-2.24C37,46,36,44.67,36,43.39c0-.66.48-.69.48-1.81v-3.3A1.45,1.45,0,0,0,35,36.84H32.66c-.53,0-.74.44-1.05.44s-.52-.44-1.06-.44H28.26a1.45,1.45,0,0,0-1.5,1.44v3.3c0,1.12.48,1.15.48,1.81,0,1.28-1,2.61-.16,5.11.53,1.6,2.18,2.5,2.66,2.24.31-.17-.45-1.17-.4-3a2.28,2.28,0,1,1,4.52,0Z" transform="translate(-1.27 -1.27)" /><path class="cls-9" d="M33.87,43.91a4.33,4.33,0,0,1,.84,1.71,3.54,3.54,0,0,0-.39-1.77A8.27,8.27,0,0,1,33.43,42c-.15-.7,1.31-1.76.56-2.29s-1.8,1.06-2.39,1.06-1.72-1.53-2.39-1.06.72,1.59.56,2.29a10.68,10.68,0,0,1-.89,1.83,4.19,4.19,0,0,0-.39,1.77,4.33,4.33,0,0,1,.84-1.71,2.75,2.75,0,0,1,4.53,0Z" transform="translate(-1.27 -1.27)" /><path class="cls-6" d="M13,47.76c.05,1.8-.71,2.8-.4,3,.48.27,2.13-.64,2.66-2.24.83-2.5-.16-3.83-.16-5.11,0-.66.48-.69.48-1.81v-3.3a1.45,1.45,0,0,0-1.5-1.44H11.82c-.53,0-.74.44-1.05.44s-.52-.44-1.06-.44H7.42a1.45,1.45,0,0,0-1.5,1.44v3.3c0,1.12.48,1.15.48,1.81,0,1.28-1,2.61-.16,5.11.53,1.6,2.18,2.5,2.66,2.24.31-.17-.45-1.17-.4-3a2.4,2.4,0,0,1,2.26-2.55A2.4,2.4,0,0,1,13,47.76Z" transform="translate(-1.27 -1.27)" /><path class="cls-7" d="M13.56,49.66a7.07,7.07,0,0,0,.22-1.93,3.15,3.15,0,0,0-3-3.28,3.15,3.15,0,0,0-3,3.28A7.07,7.07,0,0,0,8,49.66a3,3,0,0,1-1-1.4,5.46,5.46,0,0,1,0-3.43,6,6,0,0,0,.23-1.44,2,2,0,0,0-.28-1,1.4,1.4,0,0,1-.2-.81v-3.3a.71.71,0,0,1,.75-.69H9.71c.05,0,.1,0,.24.13a1.38,1.38,0,0,0,.82.31,1.37,1.37,0,0,0,.82-.32c.15-.1.19-.12.24-.12h2.29a.71.71,0,0,1,.75.69v3.3a1.4,1.4,0,0,1-.2.81,2,2,0,0,0-.28,1,6.05,6.05,0,0,0,.23,1.44,5.46,5.46,0,0,1,0,3.43A3,3,0,0,1,13.56,49.66Z" transform="translate(-1.27 -1.27)" /><path class="cls-8" d="M13,47.76c.05,1.8-.71,2.8-.4,3,.48.27,2.13-.64,2.66-2.24.83-2.5-.16-3.83-.16-5.11,0-.66.48-.69.48-1.81v-3.3a1.45,1.45,0,0,0-1.5-1.44H11.82c-.53,0-.74.44-1.05.44s-.52-.44-1.06-.44H7.42a1.45,1.45,0,0,0-1.5,1.44v3.3c0,1.12.48,1.15.48,1.81,0,1.28-1,2.61-.16,5.11.53,1.6,2.18,2.5,2.66,2.24.31-.17-.45-1.17-.4-3a2.4,2.4,0,0,1,2.26-2.55A2.4,2.4,0,0,1,13,47.76Z" transform="translate(-1.27 -1.27)" /><path class="cls-9" d="M13,43.91a4.33,4.33,0,0,1,.84,1.71,3.54,3.54,0,0,0-.39-1.77A8.27,8.27,0,0,1,12.59,42c-.15-.7,1.31-1.76.56-2.29s-1.8,1.06-2.39,1.06-1.72-1.53-2.39-1.06.72,1.59.56,2.29a10.68,10.68,0,0,1-.89,1.83,4.19,4.19,0,0,0-.39,1.77,4.33,4.33,0,0,1,.84-1.71,2.75,2.75,0,0,1,4.53,0Z" transform="translate(-1.27 -1.27)" /><path class="cls-6" d="M23.45,24.24c.05-1.8-.71-2.8-.4-3,.48-.27,2.13.64,2.66,2.24.83,2.5-.16,3.83-.16,5.11,0,.66.48.69.48,1.81v3.3a1.45,1.45,0,0,1-1.5,1.44H22.24c-.53,0-.74-.44-1.05-.44s-.52.44-1.06.44H17.84a1.45,1.45,0,0,1-1.5-1.44v-3.3c0-1.12.48-1.15.48-1.81,0-1.28-1-2.61-.16-5.11.53-1.6,2.18-2.5,2.66-2.24.31.17-.45,1.17-.4,3a2.4,2.4,0,0,0,2.26,2.55A2.4,2.4,0,0,0,23.45,24.24Z" transform="translate(-1.27 -1.27)" /><path class="cls-7" d="M24,22.34a7.07,7.07,0,0,1,.22,1.93,3.15,3.15,0,0,1-3,3.28,3.15,3.15,0,0,1-3-3.28,7.07,7.07,0,0,1,.22-1.93,3,3,0,0,0-1,1.4,5.46,5.46,0,0,0,0,3.43,6,6,0,0,1,.23,1.44,2,2,0,0,1-.28,1,1.4,1.4,0,0,0-.2.81v3.3a.71.71,0,0,0,.75.69h2.29c.05,0,.1,0,.24-.13a1.22,1.22,0,0,1,1.63,0c.15.1.19.12.24.12h2.29a.71.71,0,0,0,.75-.69v-3.3a1.4,1.4,0,0,0-.2-.81,2,2,0,0,1-.28-1A6.05,6.05,0,0,1,25,27.17a5.46,5.46,0,0,0,0-3.43A3,3,0,0,0,24,22.34Z" transform="translate(-1.27 -1.27)" /><path class="cls-8" d="M23.45,24.24c.05-1.8-.71-2.8-.4-3,.48-.27,2.13.64,2.66,2.24.83,2.5-.16,3.83-.16,5.11,0,.66.48.69.48,1.81v3.3a1.45,1.45,0,0,1-1.5,1.44H22.24c-.53,0-.74-.44-1.05-.44s-.52.44-1.06.44H17.84a1.45,1.45,0,0,1-1.5-1.44v-3.3c0-1.12.48-1.15.48-1.81,0-1.28-1-2.61-.16-5.11.53-1.6,2.18-2.5,2.66-2.24.31.17-.45,1.17-.4,3a2.4,2.4,0,0,0,2.26,2.55A2.4,2.4,0,0,0,23.45,24.24Z" transform="translate(-1.27 -1.27)" /><path class="cls-9" d="M23.45,28.09a4.33,4.33,0,0,0,.84-1.71,3.54,3.54,0,0,1-.39,1.77A8.27,8.27,0,0,0,23,30c-.15.7,1.31,1.76.56,2.29s-1.8-1.06-2.39-1.06-1.72,1.53-2.39,1.06.72-1.59.56-2.29a10.68,10.68,0,0,0-.89-1.83,4.19,4.19,0,0,1-.39-1.77,4.33,4.33,0,0,0,.84,1.71,2.75,2.75,0,0,0,4.53,0Z" transform="translate(-1.27 -1.27)" /><path class="cls-6" d="M33.87,24.24c.05-1.8-.71-2.8-.4-3,.48-.27,2.13.64,2.66,2.24C37,26,36,27.33,36,28.61c0,.66.48.69.48,1.81v3.3A1.45,1.45,0,0,1,35,35.16H32.66c-.53,0-.74-.44-1.05-.44s-.52.44-1.06.44H28.26a1.45,1.45,0,0,1-1.5-1.44v-3.3c0-1.12.48-1.15.48-1.81,0-1.28-1-2.61-.16-5.11.53-1.6,2.18-2.5,2.66-2.24.31.17-.45,1.17-.4,3a2.28,2.28,0,1,0,4.52,0Z" transform="translate(-1.27 -1.27)" /><path class="cls-7" d="M34.4,22.34a7.07,7.07,0,0,1,.22,1.93,3,3,0,1,1-6,0,7.07,7.07,0,0,1,.22-1.93,3,3,0,0,0-1,1.4,5.46,5.46,0,0,0,0,3.43A6,6,0,0,1,28,28.61a2,2,0,0,1-.28,1,1.4,1.4,0,0,0-.2.81v3.3a.71.71,0,0,0,.75.69h2.29c.05,0,.1,0,.24-.13a1.22,1.22,0,0,1,1.63,0c.15.1.19.12.24.12H35a.71.71,0,0,0,.75-.69v-3.3a1.4,1.4,0,0,0-.2-.81,2,2,0,0,1-.28-1,6.05,6.05,0,0,1,.23-1.44,5.46,5.46,0,0,0,0-3.43A3,3,0,0,0,34.4,22.34Z" transform="translate(-1.27 -1.27)" /><path class="cls-8" d="M33.87,24.24c.05-1.8-.71-2.8-.4-3,.48-.27,2.13.64,2.66,2.24C37,26,36,27.33,36,28.61c0,.66.48.69.48,1.81v3.3A1.45,1.45,0,0,1,35,35.16H32.66c-.53,0-.74-.44-1.05-.44s-.52.44-1.06.44H28.26a1.45,1.45,0,0,1-1.5-1.44v-3.3c0-1.12.48-1.15.48-1.81,0-1.28-1-2.61-.16-5.11.53-1.6,2.18-2.5,2.66-2.24.31.17-.45,1.17-.4,3a2.28,2.28,0,1,0,4.52,0Z" transform="translate(-1.27 -1.27)" /><path class="cls-9" d="M33.87,28.09a4.33,4.33,0,0,0,.84-1.71,3.54,3.54,0,0,1-.39,1.77A8.27,8.27,0,0,0,33.43,30c-.15.7,1.31,1.76.56,2.29s-1.8-1.06-2.39-1.06-1.72,1.53-2.39,1.06.72-1.59.56-2.29a10.68,10.68,0,0,0-.89-1.83,4.19,4.19,0,0,1-.39-1.77,4.33,4.33,0,0,0,.84,1.71,2.75,2.75,0,0,0,4.53,0Z" transform="translate(-1.27 -1.27)" /><path class="cls-6" d="M13,24.24c.05-1.8-.71-2.8-.4-3,.48-.27,2.13.64,2.66,2.24.83,2.5-.16,3.83-.16,5.11,0,.66.48.69.48,1.81v3.3a1.45,1.45,0,0,1-1.5,1.44H11.82c-.53,0-.74-.44-1.05-.44s-.52.44-1.06.44H7.42a1.45,1.45,0,0,1-1.5-1.44v-3.3c0-1.12.48-1.15.48-1.81,0-1.28-1-2.61-.16-5.11.53-1.6,2.18-2.5,2.66-2.24.31.17-.45,1.17-.4,3a2.4,2.4,0,0,0,2.26,2.55A2.4,2.4,0,0,0,13,24.24Z" transform="translate(-1.27 -1.27)" /><path class="cls-7" d="M13.56,22.34a7.07,7.07,0,0,1,.22,1.93,3.15,3.15,0,0,1-3,3.28,3.15,3.15,0,0,1-3-3.28A7.07,7.07,0,0,1,8,22.34a3,3,0,0,0-1,1.4,5.46,5.46,0,0,0,0,3.43,6,6,0,0,1,.23,1.44,2,2,0,0,1-.28,1,1.4,1.4,0,0,0-.2.81v3.3a.71.71,0,0,0,.75.69H9.71c.05,0,.1,0,.24-.13a1.38,1.38,0,0,1,.82-.31,1.37,1.37,0,0,1,.82.32c.15.1.19.12.24.12h2.29a.71.71,0,0,0,.75-.69v-3.3a1.4,1.4,0,0,0-.2-.81,2,2,0,0,1-.28-1,6.05,6.05,0,0,1,.23-1.44,5.46,5.46,0,0,0,0-3.43A3,3,0,0,0,13.56,22.34Z" transform="translate(-1.27 -1.27)" /><path class="cls-8" d="M13,24.24c.05-1.8-.71-2.8-.4-3,.48-.27,2.13.64,2.66,2.24.83,2.5-.16,3.83-.16,5.11,0,.66.48.69.48,1.81v3.3a1.45,1.45,0,0,1-1.5,1.44H11.82c-.53,0-.74-.44-1.05-.44s-.52.44-1.06.44H7.42a1.45,1.45,0,0,1-1.5-1.44v-3.3c0-1.12.48-1.15.48-1.81,0-1.28-1-2.61-.16-5.11.53-1.6,2.18-2.5,2.66-2.24.31.17-.45,1.17-.4,3a2.4,2.4,0,0,0,2.26,2.55A2.4,2.4,0,0,0,13,24.24Z" transform="translate(-1.27 -1.27)" /><path class="cls-9" d="M13,28.09a4.33,4.33,0,0,0,.84-1.71,3.54,3.54,0,0,1-.39,1.77A8.27,8.27,0,0,0,12.59,30c-.15.7,1.31,1.76.56,2.29s-1.8-1.06-2.39-1.06-1.72,1.53-2.39,1.06.72-1.59.56-2.29a10.68,10.68,0,0,0-.89-1.83,4.19,4.19,0,0,1-.39-1.77,4.33,4.33,0,0,0,.84,1.71,2.75,2.75,0,0,0,4.53,0Z" transform="translate(-1.27 -1.27)" /></g><g class="cls-10"><path class="cls-11" d="M31.11,25.09a3.39,3.39,0,0,1,3.38,3.38V43.53a3.39,3.39,0,0,1-3.38,3.38H11.26a3.39,3.39,0,0,1-3.38-3.38V28.47a3.39,3.39,0,0,1,3.38-3.38H31.11m0-.75H11.26a4.13,4.13,0,0,0-4.13,4.13V43.53a4.13,4.13,0,0,0,4.13,4.13H31.11a4.13,4.13,0,0,0,4.13-4.13V28.47a4.13,4.13,0,0,0-4.13-4.13Z" transform="translate(-1.27 -1.27)" /></g><rect class="cls-4" x="35.48" y="23.07" width="28.11" height="23.32" rx="4.13" ry="4.13" /><g class="cls-12"><path class="cls-6" d="M53.07,47.76c.05,1.8-.71,2.8-.4,3,.48.27,2.13-.64,2.66-2.24.83-2.5-.16-3.83-.16-5.11,0-.66.48-.69.48-1.81v-3.3a1.45,1.45,0,0,0-1.5-1.44H51.87c-.53,0-.74.44-1.05.44s-.52-.44-1.06-.44H47.47A1.45,1.45,0,0,0,46,38.28v3.3c0,1.12.48,1.15.48,1.81,0,1.28-1,2.61-.16,5.11.53,1.6,2.18,2.5,2.66,2.24.31-.17-.45-1.17-.4-3a2.28,2.28,0,1,1,4.52,0Z" transform="translate(-1.27 -1.27)" /><path class="cls-7" d="M53.6,49.66a7.07,7.07,0,0,0,.22-1.93,3,3,0,1,0-6,0A7.07,7.07,0,0,0,48,49.66a3,3,0,0,1-1-1.4,5.46,5.46,0,0,1,0-3.43,6,6,0,0,0,.23-1.44,2,2,0,0,0-.28-1,1.4,1.4,0,0,1-.2-.81v-3.3a.71.71,0,0,1,.75-.69h2.29c.05,0,.1,0,.24.13a1.22,1.22,0,0,0,1.63,0c.15-.1.19-.12.24-.12h2.29a.71.71,0,0,1,.75.69v3.3a1.4,1.4,0,0,1-.2.81,2,2,0,0,0-.28,1,6.05,6.05,0,0,0,.23,1.44,5.46,5.46,0,0,1,0,3.43A3,3,0,0,1,53.6,49.66Z" transform="translate(-1.27 -1.27)" /><path class="cls-8" d="M53.07,47.76c.05,1.8-.71,2.8-.4,3,.48.27,2.13-.64,2.66-2.24.83-2.5-.16-3.83-.16-5.11,0-.66.48-.69.48-1.81v-3.3a1.45,1.45,0,0,0-1.5-1.44H51.87c-.53,0-.74.44-1.05.44s-.52-.44-1.06-.44H47.47A1.45,1.45,0,0,0,46,38.28v3.3c0,1.12.48,1.15.48,1.81,0,1.28-1,2.61-.16,5.11.53,1.6,2.18,2.5,2.66,2.24.31-.17-.45-1.17-.4-3a2.28,2.28,0,1,1,4.52,0Z" transform="translate(-1.27 -1.27)" /><path class="cls-9" d="M53.08,43.91a4.33,4.33,0,0,1,.84,1.71,3.54,3.54,0,0,0-.39-1.77A8.27,8.27,0,0,1,52.64,42c-.15-.7,1.31-1.76.56-2.29s-1.8,1.06-2.39,1.06-1.72-1.53-2.39-1.06.72,1.59.56,2.29a10.68,10.68,0,0,1-.89,1.83,4.19,4.19,0,0,0-.39,1.77,4.33,4.33,0,0,1,.84-1.71,2.75,2.75,0,0,1,4.53,0Z" transform="translate(-1.27 -1.27)" /><path class="cls-6" d="M63.49,47.76c.05,1.8-.71,2.8-.4,3,.48.27,2.13-.64,2.66-2.24.83-2.5-.16-3.83-.16-5.11,0-.66.48-.69.48-1.81v-3.3a1.45,1.45,0,0,0-1.5-1.44H62.29c-.53,0-.74.44-1.05.44s-.52-.44-1.06-.44H57.89a1.45,1.45,0,0,0-1.5,1.44v3.3c0,1.12.48,1.15.48,1.81,0,1.28-1,2.61-.16,5.11.53,1.6,2.18,2.5,2.66,2.24.31-.17-.45-1.17-.4-3a2.28,2.28,0,1,1,4.52,0Z" transform="translate(-1.27 -1.27)" /><path class="cls-7" d="M64,49.66a7.07,7.07,0,0,0,.22-1.93,3,3,0,1,0-6,0,7.07,7.07,0,0,0,.22,1.93,3,3,0,0,1-1-1.4,5.46,5.46,0,0,1,0-3.43,6,6,0,0,0,.23-1.44,2,2,0,0,0-.28-1,1.4,1.4,0,0,1-.2-.81v-3.3a.71.71,0,0,1,.75-.69h2.29c.05,0,.1,0,.24.13a1.22,1.22,0,0,0,1.63,0c.15-.1.19-.12.24-.12h2.29a.71.71,0,0,1,.75.69v3.3a1.4,1.4,0,0,1-.2.81,2,2,0,0,0-.28,1,6.05,6.05,0,0,0,.23,1.44,5.46,5.46,0,0,1,0,3.43A3,3,0,0,1,64,49.66Z" transform="translate(-1.27 -1.27)" /><path class="cls-8" d="M63.49,47.76c.05,1.8-.71,2.8-.4,3,.48.27,2.13-.64,2.66-2.24.83-2.5-.16-3.83-.16-5.11,0-.66.48-.69.48-1.81v-3.3a1.45,1.45,0,0,0-1.5-1.44H62.29c-.53,0-.74.44-1.05.44s-.52-.44-1.06-.44H57.89a1.45,1.45,0,0,0-1.5,1.44v3.3c0,1.12.48,1.15.48,1.81,0,1.28-1,2.61-.16,5.11.53,1.6,2.18,2.5,2.66,2.24.31-.17-.45-1.17-.4-3a2.28,2.28,0,1,1,4.52,0Z" transform="translate(-1.27 -1.27)" /><path class="cls-9" d="M63.5,43.91a4.33,4.33,0,0,1,.84,1.71,3.54,3.54,0,0,0-.39-1.77A8.27,8.27,0,0,1,63.05,42c-.15-.7,1.31-1.76.56-2.29s-1.8,1.06-2.39,1.06-1.72-1.53-2.39-1.06.72,1.59.56,2.29a10.68,10.68,0,0,1-.89,1.83,4.19,4.19,0,0,0-.39,1.77A4.33,4.33,0,0,1,59,43.91a2.75,2.75,0,0,1,4.53,0Z" transform="translate(-1.27 -1.27)" /><path class="cls-6" d="M42.65,47.76c.05,1.8-.71,2.8-.4,3,.48.27,2.13-.64,2.66-2.24.83-2.5-.16-3.83-.16-5.11,0-.66.48-.69.48-1.81v-3.3a1.45,1.45,0,0,0-1.5-1.44H41.45c-.53,0-.74.44-1.05.44s-.52-.44-1.06-.44H37a1.45,1.45,0,0,0-1.5,1.44v3.3c0,1.12.48,1.15.48,1.81,0,1.28-1,2.61-.16,5.11.53,1.6,2.18,2.5,2.66,2.24.31-.17-.45-1.17-.4-3a2.28,2.28,0,1,1,4.52,0Z" transform="translate(-1.27 -1.27)" /><path class="cls-7" d="M43.19,49.66a7.07,7.07,0,0,0,.22-1.93,3,3,0,1,0-6,0,7.07,7.07,0,0,0,.22,1.93,3,3,0,0,1-1-1.4,5.46,5.46,0,0,1,0-3.43,6,6,0,0,0,.23-1.44,2,2,0,0,0-.28-1,1.4,1.4,0,0,1-.2-.81v-3.3a.71.71,0,0,1,.75-.69h2.29c.05,0,.1,0,.24.13a1.22,1.22,0,0,0,1.63,0c.15-.1.19-.12.24-.12h2.29a.71.71,0,0,1,.75.69v3.3a1.4,1.4,0,0,1-.2.81,2,2,0,0,0-.28,1,6.05,6.05,0,0,0,.23,1.44,5.46,5.46,0,0,1,0,3.43A3,3,0,0,1,43.19,49.66Z" transform="translate(-1.27 -1.27)" /><path class="cls-8" d="M42.65,47.76c.05,1.8-.71,2.8-.4,3,.48.27,2.13-.64,2.66-2.24.83-2.5-.16-3.83-.16-5.11,0-.66.48-.69.48-1.81v-3.3a1.45,1.45,0,0,0-1.5-1.44H41.45c-.53,0-.74.44-1.05.44s-.52-.44-1.06-.44H37a1.45,1.45,0,0,0-1.5,1.44v3.3c0,1.12.48,1.15.48,1.81,0,1.28-1,2.61-.16,5.11.53,1.6,2.18,2.5,2.66,2.24.31-.17-.45-1.17-.4-3a2.28,2.28,0,1,1,4.52,0Z" transform="translate(-1.27 -1.27)" /><path class="cls-9" d="M42.66,43.91a4.33,4.33,0,0,1,.84,1.71,3.54,3.54,0,0,0-.39-1.77A8.27,8.27,0,0,1,42.22,42c-.15-.7,1.31-1.76.56-2.29s-1.8,1.06-2.39,1.06S38.68,39.26,38,39.73s.72,1.59.56,2.29a10.68,10.68,0,0,1-.89,1.83,4.19,4.19,0,0,0-.39,1.77,4.33,4.33,0,0,1,.84-1.71,2.75,2.75,0,0,1,4.53,0Z" transform="translate(-1.27 -1.27)" /><path class="cls-6" d="M53.07,24.24c.05-1.8-.71-2.8-.4-3,.48-.27,2.13.64,2.66,2.24.83,2.5-.16,3.83-.16,5.11,0,.66.48.69.48,1.81v3.3a1.45,1.45,0,0,1-1.5,1.44H51.87c-.53,0-.74-.44-1.05-.44s-.52.44-1.06.44H47.47A1.45,1.45,0,0,1,46,33.72v-3.3c0-1.12.48-1.15.48-1.81,0-1.28-1-2.61-.16-5.11.53-1.6,2.18-2.5,2.66-2.24.31.17-.45,1.17-.4,3a2.28,2.28,0,1,0,4.52,0Z" transform="translate(-1.27 -1.27)" /><path class="cls-7" d="M53.6,22.34a7.07,7.07,0,0,1,.22,1.93,3,3,0,1,1-6,0A7.07,7.07,0,0,1,48,22.34a3,3,0,0,0-1,1.4,5.46,5.46,0,0,0,0,3.43,6,6,0,0,1,.23,1.44,2,2,0,0,1-.28,1,1.4,1.4,0,0,0-.2.81v3.3a.71.71,0,0,0,.75.69h2.29c.05,0,.1,0,.24-.13a1.22,1.22,0,0,1,1.63,0c.15.1.19.12.24.12h2.29a.71.71,0,0,0,.75-.69v-3.3a1.4,1.4,0,0,0-.2-.81,2,2,0,0,1-.28-1,6.05,6.05,0,0,1,.23-1.44,5.46,5.46,0,0,0,0-3.43A3,3,0,0,0,53.6,22.34Z" transform="translate(-1.27 -1.27)" /><path class="cls-8" d="M53.07,24.24c.05-1.8-.71-2.8-.4-3,.48-.27,2.13.64,2.66,2.24.83,2.5-.16,3.83-.16,5.11,0,.66.48.69.48,1.81v3.3a1.45,1.45,0,0,1-1.5,1.44H51.87c-.53,0-.74-.44-1.05-.44s-.52.44-1.06.44H47.47A1.45,1.45,0,0,1,46,33.72v-3.3c0-1.12.48-1.15.48-1.81,0-1.28-1-2.61-.16-5.11.53-1.6,2.18-2.5,2.66-2.24.31.17-.45,1.17-.4,3a2.28,2.28,0,1,0,4.52,0Z" transform="translate(-1.27 -1.27)" /><path class="cls-9" d="M53.08,28.09a4.33,4.33,0,0,0,.84-1.71,3.54,3.54,0,0,1-.39,1.77A8.27,8.27,0,0,0,52.64,30c-.15.7,1.31,1.76.56,2.29s-1.8-1.06-2.39-1.06-1.72,1.53-2.39,1.06.72-1.59.56-2.29a10.68,10.68,0,0,0-.89-1.83,4.19,4.19,0,0,1-.39-1.77,4.33,4.33,0,0,0,.84,1.71,2.75,2.75,0,0,0,4.53,0Z" transform="translate(-1.27 -1.27)" /><path class="cls-6" d="M63.49,24.24c.05-1.8-.71-2.8-.4-3,.48-.27,2.13.64,2.66,2.24.83,2.5-.16,3.83-.16,5.11,0,.66.48.69.48,1.81v3.3a1.45,1.45,0,0,1-1.5,1.44H62.29c-.53,0-.74-.44-1.05-.44s-.52.44-1.06.44H57.89a1.45,1.45,0,0,1-1.5-1.44v-3.3c0-1.12.48-1.15.48-1.81,0-1.28-1-2.61-.16-5.11.53-1.6,2.18-2.5,2.66-2.24.31.17-.45,1.17-.4,3a2.28,2.28,0,1,0,4.52,0Z" transform="translate(-1.27 -1.27)" /><path class="cls-7" d="M64,22.34a7.07,7.07,0,0,1,.22,1.93,3,3,0,1,1-6,0,7.07,7.07,0,0,1,.22-1.93,3,3,0,0,0-1,1.4,5.46,5.46,0,0,0,0,3.43,6,6,0,0,1,.23,1.44,2,2,0,0,1-.28,1,1.4,1.4,0,0,0-.2.81v3.3a.71.71,0,0,0,.75.69h2.29c.05,0,.1,0,.24-.13a1.22,1.22,0,0,1,1.63,0c.15.1.19.12.24.12h2.29a.71.71,0,0,0,.75-.69v-3.3a1.4,1.4,0,0,0-.2-.81,2,2,0,0,1-.28-1,6.05,6.05,0,0,1,.23-1.44,5.46,5.46,0,0,0,0-3.43A3,3,0,0,0,64,22.34Z" transform="translate(-1.27 -1.27)" /><path class="cls-8" d="M63.49,24.24c.05-1.8-.71-2.8-.4-3,.48-.27,2.13.64,2.66,2.24.83,2.5-.16,3.83-.16,5.11,0,.66.48.69.48,1.81v3.3a1.45,1.45,0,0,1-1.5,1.44H62.29c-.53,0-.74-.44-1.05-.44s-.52.44-1.06.44H57.89a1.45,1.45,0,0,1-1.5-1.44v-3.3c0-1.12.48-1.15.48-1.81,0-1.28-1-2.61-.16-5.11.53-1.6,2.18-2.5,2.66-2.24.31.17-.45,1.17-.4,3a2.28,2.28,0,1,0,4.52,0Z" transform="translate(-1.27 -1.27)" /><path class="cls-9" d="M63.5,28.09a4.33,4.33,0,0,0,.84-1.71,3.54,3.54,0,0,1-.39,1.77A8.27,8.27,0,0,0,63.05,30c-.15.7,1.31,1.76.56,2.29s-1.8-1.06-2.39-1.06-1.72,1.53-2.39,1.06.72-1.59.56-2.29a10.68,10.68,0,0,0-.89-1.83,4.19,4.19,0,0,1-.39-1.77A4.33,4.33,0,0,0,59,28.09a2.75,2.75,0,0,0,4.53,0Z" transform="translate(-1.27 -1.27)" /><path class="cls-6" d="M42.65,24.24c.05-1.8-.71-2.8-.4-3,.48-.27,2.13.64,2.66,2.24.83,2.5-.16,3.83-.16,5.11,0,.66.48.69.48,1.81v3.3a1.45,1.45,0,0,1-1.5,1.44H41.45c-.53,0-.74-.44-1.05-.44s-.52.44-1.06.44H37a1.45,1.45,0,0,1-1.5-1.44v-3.3c0-1.12.48-1.15.48-1.81,0-1.28-1-2.61-.16-5.11.53-1.6,2.18-2.5,2.66-2.24.31.17-.45,1.17-.4,3a2.28,2.28,0,1,0,4.52,0Z" transform="translate(-1.27 -1.27)" /><path class="cls-7" d="M43.19,22.34a7.07,7.07,0,0,1,.22,1.93,3,3,0,1,1-6,0,7.07,7.07,0,0,1,.22-1.93,3,3,0,0,0-1,1.4,5.46,5.46,0,0,0,0,3.43,6,6,0,0,1,.23,1.44,2,2,0,0,1-.28,1,1.4,1.4,0,0,0-.2.81v3.3a.71.71,0,0,0,.75.69h2.29c.05,0,.1,0,.24-.13a1.22,1.22,0,0,1,1.63,0c.15.1.19.12.24.12h2.29a.71.71,0,0,0,.75-.69v-3.3a1.4,1.4,0,0,0-.2-.81,2,2,0,0,1-.28-1,6.05,6.05,0,0,1,.23-1.44,5.46,5.46,0,0,0,0-3.43A3,3,0,0,0,43.19,22.34Z" transform="translate(-1.27 -1.27)" /><path class="cls-8" d="M42.65,24.24c.05-1.8-.71-2.8-.4-3,.48-.27,2.13.64,2.66,2.24.83,2.5-.16,3.83-.16,5.11,0,.66.48.69.48,1.81v3.3a1.45,1.45,0,0,1-1.5,1.44H41.45c-.53,0-.74-.44-1.05-.44s-.52.44-1.06.44H37a1.45,1.45,0,0,1-1.5-1.44v-3.3c0-1.12.48-1.15.48-1.81,0-1.28-1-2.61-.16-5.11.53-1.6,2.18-2.5,2.66-2.24.31.17-.45,1.17-.4,3a2.28,2.28,0,1,0,4.52,0Z" transform="translate(-1.27 -1.27)" /><path class="cls-9" d="M42.66,28.09a4.33,4.33,0,0,0,.84-1.71,3.54,3.54,0,0,1-.39,1.77A8.27,8.27,0,0,0,42.22,30c-.15.7,1.31,1.76.56,2.29s-1.8-1.06-2.39-1.06S38.68,32.74,38,32.27s.72-1.59.56-2.29a10.68,10.68,0,0,0-.89-1.83,4.19,4.19,0,0,1-.39-1.77,4.33,4.33,0,0,0,.84,1.71,2.75,2.75,0,0,0,4.53,0Z" transform="translate(-1.27 -1.27)" /></g><g class="cls-10"><path class="cls-11" d="M60.74,25.09a3.39,3.39,0,0,1,3.38,3.38V43.53a3.39,3.39,0,0,1-3.38,3.38H40.89a3.39,3.39,0,0,1-3.38-3.38V28.47a3.39,3.39,0,0,1,3.38-3.38H60.74m0-.75H40.89a4.13,4.13,0,0,0-4.13,4.13V43.53a4.13,4.13,0,0,0,4.13,4.13H60.74a4.13,4.13,0,0,0,4.13-4.13V28.47a4.13,4.13,0,0,0-4.13-4.13Z" transform="translate(-1.27 -1.27)" /></g></svg>