<svg id="D0277_-_vertical_bitewing_seven_to_eight_radiographic_images" data-name="D0277 - vertical bitewing seven to eight radiographic images" xmlns="http://www.w3.org/2000/svg" xmlns:xlink="http://www.w3.org/1999/xlink" viewBox="0 0 69.46 69.46"><defs><style>.cls-1,.cls-8{fill:none;}.cls-2{stroke:#dcddde;stroke-width:1.06px;fill:url(#New_Gradient_Swatch_2);}.cls-2,.cls-8{stroke-miterlimit:10;}.cls-3{fill:url(#New_Gradient_Swatch_2-2);}.cls-4{fill:#22356c;}.cls-5{clip-path:url(#clip-path);}.cls-6{fill:#94d8e9;}.cls-7{fill:#64cbe2;}.cls-8{stroke:#c8e9f2;stroke-width:0.2px;}.cls-9{fill:#00b3de;}.cls-10{opacity:0.8;}.cls-11{fill:#184782;}.cls-12{clip-path:url(#clip-path-2);}.cls-13{clip-path:url(#clip-path-3);}.cls-14{clip-path:url(#clip-path-4);}.cls-15{clip-path:url(#clip-path-5);}.cls-16{clip-path:url(#clip-path-6);}.cls-17{clip-path:url(#clip-path-7);}.cls-18{clip-path:url(#clip-path-8);}</style><linearGradient id="New_Gradient_Swatch_2" x1="34.73" y1="45.42" x2="34.73" y2="62.25" gradientUnits="userSpaceOnUse"><stop offset="0" stop-color="#fff" /><stop offset="1" stop-color="#f2f2f2" /></linearGradient><linearGradient id="New_Gradient_Swatch_2-2" x1="36" y1="24.22" x2="36" y2="7.14" xlink:href="#New_Gradient_Swatch_2" /><clipPath id="clip-path" transform="translate(-1.27 -1.27)"><path class="cls-1" d="M9.09,18.33H20.53a2.38,2.38,0,0,1,2.38,2.38v8.84a2.22,2.22,0,0,1-2.22,2.22H9.09a2.38,2.38,0,0,1-2.38-2.38V20.71A2.38,2.38,0,0,1,9.09,18.33Z" transform="translate(-10.24 39.86) rotate(-90)" /></clipPath><clipPath id="clip-path-2" transform="translate(-1.27 -1.27)"><path class="cls-1" d="M23.22,18.33H34.66A2.38,2.38,0,0,1,37,20.71v8.84a2.22,2.22,0,0,1-2.22,2.22H23.22a2.38,2.38,0,0,1-2.38-2.38V20.71a2.38,2.38,0,0,1,2.38-2.38Z" transform="translate(3.89 53.99) rotate(-90)" /></clipPath><clipPath id="clip-path-3" transform="translate(-1.27 -1.27)"><path class="cls-1" d="M37.34,18.33H48.78a2.38,2.38,0,0,1,2.38,2.38v8.84a2.22,2.22,0,0,1-2.22,2.22H37.34A2.38,2.38,0,0,1,35,29.39V20.71a2.38,2.38,0,0,1,2.38-2.38Z" transform="translate(18.01 68.11) rotate(-90)" /></clipPath><clipPath id="clip-path-4" transform="translate(-1.27 -1.27)"><path class="cls-1" d="M51.47,18.33H62.91a2.38,2.38,0,0,1,2.38,2.38v8.84a2.22,2.22,0,0,1-2.22,2.22H51.47a2.38,2.38,0,0,1-2.38-2.38V20.71a2.38,2.38,0,0,1,2.38-2.38Z" transform="translate(32.14 82.24) rotate(-90)" /></clipPath><clipPath id="clip-path-5" transform="translate(-1.27 -1.27)"><path class="cls-1" d="M9.09,40.23H20.53a2.38,2.38,0,0,1,2.38,2.38v8.84a2.22,2.22,0,0,1-2.22,2.22H9.09a2.38,2.38,0,0,1-2.38-2.38V42.61A2.38,2.38,0,0,1,9.09,40.23Z" transform="translate(-32.14 61.76) rotate(-90)" /></clipPath><clipPath id="clip-path-6" transform="translate(-1.27 -1.27)"><path class="cls-1" d="M23.22,40.23H34.66A2.38,2.38,0,0,1,37,42.61v8.84a2.22,2.22,0,0,1-2.22,2.22H23.22a2.38,2.38,0,0,1-2.38-2.38V42.61a2.38,2.38,0,0,1,2.38-2.38Z" transform="translate(-18.01 75.89) rotate(-90)" /></clipPath><clipPath id="clip-path-7" transform="translate(-1.27 -1.27)"><path class="cls-1" d="M37.34,40.23H48.78a2.38,2.38,0,0,1,2.38,2.38v8.84a2.22,2.22,0,0,1-2.22,2.22H37.34A2.38,2.38,0,0,1,35,51.29V42.61a2.38,2.38,0,0,1,2.38-2.38Z" transform="translate(-3.89 90.01) rotate(-90)" /></clipPath><clipPath id="clip-path-8" transform="translate(-1.27 -1.27)"><path class="cls-1" d="M51.47,40.23H62.91a2.38,2.38,0,0,1,2.38,2.38v8.84a2.22,2.22,0,0,1-2.22,2.22H51.47a2.38,2.38,0,0,1-2.38-2.38V42.61a2.38,2.38,0,0,1,2.38-2.38Z" transform="translate(10.24 104.14) rotate(-90)" /></clipPath></defs><title>D0277_vertical_bitewing_seven_to_eight_radiographic_images</title><rect class="cls-4" x="6.82" y="15.67" width="13.45" height="16.21" rx="2.38" ry="2.38" /><g class="cls-5"><path class="cls-6" d="M15.93,30.89c0,.9-.35,1.39-.2,1.48s1.06-.32,1.32-1.11c.41-1.24-.08-1.9-.08-2.54,0-.33.24-.34.24-.9V26.18a.72.72,0,0,0-.74-.71H15.34c-.26,0-.37.22-.52.22s-.26-.22-.52-.22H13.15a.72.72,0,0,0-.74.71v1.64c0,.56.24.57.24.9,0,.63-.49,1.3-.08,2.54.26.79,1.08,1.24,1.32,1.11s-.22-.58-.2-1.48a1.13,1.13,0,1,1,2.24,0Z" transform="translate(-1.27 -1.27)" /><path class="cls-7" d="M16.2,31.84a3.51,3.51,0,0,0,.11-1,1.5,1.5,0,1,0-3,0,3.51,3.51,0,0,0,.11,1,1.5,1.5,0,0,1-.51-.7,2.71,2.71,0,0,1,0-1.7,3,3,0,0,0,.11-.72,1,1,0,0,0-.14-.5.7.7,0,0,1-.1-.4V26.18a.35.35,0,0,1,.37-.34h1.14s0,0,.12.06a.6.6,0,0,0,.81,0c.07-.05.09-.06.12-.06h1.14a.35.35,0,0,1,.37.34v1.64a.7.7,0,0,1-.1.4,1,1,0,0,0-.14.5,3,3,0,0,0,.11.72,2.71,2.71,0,0,1,0,1.7A1.5,1.5,0,0,1,16.2,31.84Z" transform="translate(-1.27 -1.27)" /><path class="cls-8" d="M15.93,30.89c0,.9-.35,1.39-.2,1.48s1.06-.32,1.32-1.11c.41-1.24-.08-1.9-.08-2.54,0-.33.24-.34.24-.9V26.18a.72.72,0,0,0-.74-.71H15.34c-.26,0-.37.22-.52.22s-.26-.22-.52-.22H13.15a.72.72,0,0,0-.74.71v1.64c0,.56.24.57.24.9,0,.63-.49,1.3-.08,2.54.26.79,1.08,1.24,1.32,1.11s-.22-.58-.2-1.48a1.13,1.13,0,1,1,2.24,0Z" transform="translate(-1.27 -1.27)" /><path class="cls-9" d="M15.94,29a2.15,2.15,0,0,1,.42.85,1.76,1.76,0,0,0-.19-.88,4.11,4.11,0,0,1-.44-.91c-.08-.35.65-.87.28-1.14s-.89.53-1.18.53-.85-.76-1.18-.53.36.79.28,1.14a5.31,5.31,0,0,1-.44.91,2.08,2.08,0,0,0-.19.88,2.15,2.15,0,0,1,.42-.85,1.36,1.36,0,0,1,2.25,0Z" transform="translate(-1.27 -1.27)" /><path class="cls-6" d="M21.11,30.89c0,.9-.35,1.39-.2,1.48S22,32,22.23,31.26c.41-1.24-.08-1.9-.08-2.54,0-.33.24-.34.24-.9V26.18a.72.72,0,0,0-.74-.71H20.51c-.26,0-.37.22-.52.22s-.26-.22-.52-.22H18.33a.72.72,0,0,0-.74.71v1.64c0,.56.24.57.24.9,0,.63-.49,1.3-.08,2.54.26.79,1.08,1.24,1.32,1.11s-.22-.58-.2-1.48a1.13,1.13,0,1,1,2.24,0Z" transform="translate(-1.27 -1.27)" /><path class="cls-7" d="M21.37,31.84a3.51,3.51,0,0,0,.11-1,1.5,1.5,0,1,0-3,0,3.51,3.51,0,0,0,.11,1,1.5,1.5,0,0,1-.51-.7,2.71,2.71,0,0,1,0-1.7,3,3,0,0,0,.11-.72,1,1,0,0,0-.14-.5.7.7,0,0,1-.1-.4V26.18a.35.35,0,0,1,.37-.34h1.14s0,0,.12.06a.6.6,0,0,0,.81,0c.07-.05.09-.06.12-.06h1.14a.35.35,0,0,1,.37.34v1.64a.7.7,0,0,1-.1.4,1,1,0,0,0-.14.5,3,3,0,0,0,.11.72,2.71,2.71,0,0,1,0,1.7A1.5,1.5,0,0,1,21.37,31.84Z" transform="translate(-1.27 -1.27)" /><path class="cls-8" d="M21.11,30.89c0,.9-.35,1.39-.2,1.48S22,32,22.23,31.26c.41-1.24-.08-1.9-.08-2.54,0-.33.24-.34.24-.9V26.18a.72.72,0,0,0-.74-.71H20.51c-.26,0-.37.22-.52.22s-.26-.22-.52-.22H18.33a.72.72,0,0,0-.74.71v1.64c0,.56.24.57.24.9,0,.63-.49,1.3-.08,2.54.26.79,1.08,1.24,1.32,1.11s-.22-.58-.2-1.48a1.13,1.13,0,1,1,2.24,0Z" transform="translate(-1.27 -1.27)" /><path class="cls-9" d="M21.11,29a2.15,2.15,0,0,1,.42.85,1.76,1.76,0,0,0-.19-.88,4.11,4.11,0,0,1-.44-.91c-.08-.35.65-.87.28-1.14s-.89.53-1.18.53-.85-.76-1.18-.53.36.79.28,1.14a5.31,5.31,0,0,1-.44.91,2.08,2.08,0,0,0-.19.88,2.15,2.15,0,0,1,.42-.85,1.36,1.36,0,0,1,2.25,0Z" transform="translate(-1.27 -1.27)" /><path class="cls-6" d="M10.76,30.89c0,.9-.35,1.39-.2,1.48s1.06-.32,1.32-1.11c.41-1.24-.08-1.9-.08-2.54,0-.33.24-.34.24-.9V26.18a.72.72,0,0,0-.74-.71H10.16c-.26,0-.37.22-.52.22s-.26-.22-.52-.22H8a.72.72,0,0,0-.74.71v1.64c0,.56.24.57.24.9,0,.63-.49,1.3-.08,2.54.26.79,1.08,1.24,1.32,1.11s-.22-.58-.2-1.48a1.19,1.19,0,0,1,1.12-1.27A1.19,1.19,0,0,1,10.76,30.89Z" transform="translate(-1.27 -1.27)" /><path class="cls-7" d="M11,31.84a3.51,3.51,0,0,0,.11-1,1.56,1.56,0,0,0-1.49-1.63,1.57,1.57,0,0,0-1.5,1.63,3.51,3.51,0,0,0,.11,1,1.5,1.5,0,0,1-.51-.7,2.71,2.71,0,0,1,0-1.7,3,3,0,0,0,.11-.72,1,1,0,0,0-.14-.5.7.7,0,0,1-.1-.4V26.18A.35.35,0,0,1,8,25.84H9.11s0,0,.12.06a.6.6,0,0,0,.81,0c.07-.05.09-.06.12-.06H11.3a.35.35,0,0,1,.37.34v1.64a.7.7,0,0,1-.1.4,1,1,0,0,0-.14.5,3,3,0,0,0,.11.72,2.71,2.71,0,0,1,0,1.7A1.5,1.5,0,0,1,11,31.84Z" transform="translate(-1.27 -1.27)" /><path class="cls-8" d="M10.76,30.89c0,.9-.35,1.39-.2,1.48s1.06-.32,1.32-1.11c.41-1.24-.08-1.9-.08-2.54,0-.33.24-.34.24-.9V26.18a.72.72,0,0,0-.74-.71H10.16c-.26,0-.37.22-.52.22s-.26-.22-.52-.22H8a.72.72,0,0,0-.74.71v1.64c0,.56.24.57.24.9,0,.63-.49,1.3-.08,2.54.26.79,1.08,1.24,1.32,1.11s-.22-.58-.2-1.48a1.19,1.19,0,0,1,1.12-1.27A1.19,1.19,0,0,1,10.76,30.89Z" transform="translate(-1.27 -1.27)" /><path class="cls-9" d="M10.76,29a2.15,2.15,0,0,1,.42.85,1.76,1.76,0,0,0-.19-.88,4.11,4.11,0,0,1-.44-.91c-.08-.35.65-.87.28-1.14s-.89.53-1.18.53-.85-.76-1.18-.53.36.79.28,1.14a5.31,5.31,0,0,1-.44.91,2.08,2.08,0,0,0-.19.88A2.15,2.15,0,0,1,8.51,29a1.36,1.36,0,0,1,2.25,0Z" transform="translate(-1.27 -1.27)" /><path class="cls-6" d="M15.93,19.21c0-.9-.35-1.39-.2-1.48s1.06.32,1.32,1.11c.41,1.24-.08,1.9-.08,2.54,0,.33.24.34.24.9v1.64a.72.72,0,0,1-.74.71H15.34c-.26,0-.37-.22-.52-.22s-.26.22-.52.22H13.15a.72.72,0,0,1-.74-.71V22.28c0-.56.24-.57.24-.9,0-.63-.49-1.3-.08-2.54.26-.79,1.08-1.24,1.32-1.11s-.22.58-.2,1.48a1.13,1.13,0,1,0,2.24,0Z" transform="translate(-1.27 -1.27)" /><path class="cls-7" d="M16.2,18.26a3.51,3.51,0,0,1,.11,1,1.5,1.5,0,1,1-3,0,3.51,3.51,0,0,1,.11-1,1.5,1.5,0,0,0-.51.7,2.71,2.71,0,0,0,0,1.7,3,3,0,0,1,.11.72,1,1,0,0,1-.14.5.7.7,0,0,0-.1.4v1.64a.35.35,0,0,0,.37.34h1.14s0,0,.12-.06a.6.6,0,0,1,.81,0c.07.05.09.06.12.06h1.14a.35.35,0,0,0,.37-.34V22.28a.7.7,0,0,0-.1-.4,1,1,0,0,1-.14-.5,3,3,0,0,1,.11-.72,2.71,2.71,0,0,0,0-1.7A1.5,1.5,0,0,0,16.2,18.26Z" transform="translate(-1.27 -1.27)" /><path class="cls-8" d="M15.93,19.21c0-.9-.35-1.39-.2-1.48s1.06.32,1.32,1.11c.41,1.24-.08,1.9-.08,2.54,0,.33.24.34.24.9v1.64a.72.72,0,0,1-.74.71H15.34c-.26,0-.37-.22-.52-.22s-.26.22-.52.22H13.15a.72.72,0,0,1-.74-.71V22.28c0-.56.24-.57.24-.9,0-.63-.49-1.3-.08-2.54.26-.79,1.08-1.24,1.32-1.11s-.22.58-.2,1.48a1.13,1.13,0,1,0,2.24,0Z" transform="translate(-1.27 -1.27)" /><path class="cls-9" d="M15.94,21.12a2.15,2.15,0,0,0,.42-.85,1.76,1.76,0,0,1-.19.88,4.11,4.11,0,0,0-.44.91c-.08.35.65.87.28,1.14s-.89-.53-1.18-.53-.85.76-1.18.53.36-.79.28-1.14a5.31,5.31,0,0,0-.44-.91,2.08,2.08,0,0,1-.19-.88,2.15,2.15,0,0,0,.42.85,1.36,1.36,0,0,0,2.25,0Z" transform="translate(-1.27 -1.27)" /><path class="cls-6" d="M21.11,19.21c0-.9-.35-1.39-.2-1.48S22,18,22.23,18.84c.41,1.24-.08,1.9-.08,2.54,0,.33.24.34.24.9v1.64a.72.72,0,0,1-.74.71H20.51c-.26,0-.37-.22-.52-.22s-.26.22-.52.22H18.33a.72.72,0,0,1-.74-.71V22.28c0-.56.24-.57.24-.9,0-.63-.49-1.3-.08-2.54.26-.79,1.08-1.24,1.32-1.11s-.22.58-.2,1.48a1.13,1.13,0,1,0,2.24,0Z" transform="translate(-1.27 -1.27)" /><path class="cls-7" d="M21.37,18.26a3.51,3.51,0,0,1,.11,1,1.5,1.5,0,1,1-3,0,3.51,3.51,0,0,1,.11-1,1.5,1.5,0,0,0-.51.7,2.71,2.71,0,0,0,0,1.7,3,3,0,0,1,.11.72,1,1,0,0,1-.14.5.7.7,0,0,0-.1.4v1.64a.35.35,0,0,0,.37.34h1.14s0,0,.12-.06a.6.6,0,0,1,.81,0c.07.05.09.06.12.06h1.14a.35.35,0,0,0,.37-.34V22.28a.7.7,0,0,0-.1-.4,1,1,0,0,1-.14-.5,3,3,0,0,1,.11-.72,2.71,2.71,0,0,0,0-1.7A1.5,1.5,0,0,0,21.37,18.26Z" transform="translate(-1.27 -1.27)" /><path class="cls-8" d="M21.11,19.21c0-.9-.35-1.39-.2-1.48S22,18,22.23,18.84c.41,1.24-.08,1.9-.08,2.54,0,.33.24.34.24.9v1.64a.72.72,0,0,1-.74.71H20.51c-.26,0-.37-.22-.52-.22s-.26.22-.52.22H18.33a.72.72,0,0,1-.74-.71V22.28c0-.56.24-.57.24-.9,0-.63-.49-1.3-.08-2.54.26-.79,1.08-1.24,1.32-1.11s-.22.58-.2,1.48a1.13,1.13,0,1,0,2.24,0Z" transform="translate(-1.27 -1.27)" /><path class="cls-9" d="M21.11,21.12a2.15,2.15,0,0,0,.42-.85,1.76,1.76,0,0,1-.19.88,4.11,4.11,0,0,0-.44.91c-.08.35.65.87.28,1.14s-.89-.53-1.18-.53-.85.76-1.18.53.36-.79.28-1.14a5.31,5.31,0,0,0-.44-.91,2.08,2.08,0,0,1-.19-.88,2.15,2.15,0,0,0,.42.85,1.36,1.36,0,0,0,2.25,0Z" transform="translate(-1.27 -1.27)" /><path class="cls-6" d="M10.76,19.21c0-.9-.35-1.39-.2-1.48s1.06.32,1.32,1.11c.41,1.24-.08,1.9-.08,2.54,0,.33.24.34.24.9v1.64a.72.72,0,0,1-.74.71H10.16c-.26,0-.37-.22-.52-.22s-.26.22-.52.22H8a.72.72,0,0,1-.74-.71V22.28c0-.56.24-.57.24-.9,0-.63-.49-1.3-.08-2.54.26-.79,1.08-1.24,1.32-1.11s-.22.58-.2,1.48a1.19,1.19,0,0,0,1.12,1.27A1.19,1.19,0,0,0,10.76,19.21Z" transform="translate(-1.27 -1.27)" /><path class="cls-7" d="M11,18.26a3.51,3.51,0,0,1,.11,1,1.56,1.56,0,0,1-1.49,1.63,1.57,1.57,0,0,1-1.5-1.63,3.51,3.51,0,0,1,.11-1,1.5,1.5,0,0,0-.51.7,2.71,2.71,0,0,0,0,1.7,3,3,0,0,1,.11.72,1,1,0,0,1-.14.5.7.7,0,0,0-.1.4v1.64a.35.35,0,0,0,.37.34H9.11s0,0,.12-.06a.6.6,0,0,1,.81,0c.07.05.09.06.12.06H11.3a.35.35,0,0,0,.37-.34V22.28a.7.7,0,0,0-.1-.4,1,1,0,0,1-.14-.5,3,3,0,0,1,.11-.72,2.71,2.71,0,0,0,0-1.7A1.5,1.5,0,0,0,11,18.26Z" transform="translate(-1.27 -1.27)" /><path class="cls-8" d="M10.76,19.21c0-.9-.35-1.39-.2-1.48s1.06.32,1.32,1.11c.41,1.24-.08,1.9-.08,2.54,0,.33.24.34.24.9v1.64a.72.72,0,0,1-.74.71H10.16c-.26,0-.37-.22-.52-.22s-.26.22-.52.22H8a.72.72,0,0,1-.74-.71V22.28c0-.56.24-.57.24-.9,0-.63-.49-1.3-.08-2.54.26-.79,1.08-1.24,1.32-1.11s-.22.58-.2,1.48a1.19,1.19,0,0,0,1.12,1.27A1.19,1.19,0,0,0,10.76,19.21Z" transform="translate(-1.27 -1.27)" /><path class="cls-9" d="M10.76,21.12a2.15,2.15,0,0,0,.42-.85,1.76,1.76,0,0,1-.19.88,4.11,4.11,0,0,0-.44.91c-.08.35.65.87.28,1.14s-.89-.53-1.18-.53-.85.76-1.18.53.36-.79.28-1.14a5.31,5.31,0,0,0-.44-.91,2.08,2.08,0,0,1-.19-.88,2.15,2.15,0,0,0,.42.85,1.36,1.36,0,0,0,2.25,0Z" transform="translate(-1.27 -1.27)" /></g><g class="cls-10"><path class="cls-11" d="M19.15,17.38a2,2,0,0,1,1.95,1.95V30.77a2,2,0,0,1-1.95,1.95H10.47a2,2,0,0,1-1.95-1.95V19.33a2,2,0,0,1,1.95-1.95h8.68m0-.43H10.47a2.38,2.38,0,0,0-2.38,2.38V30.77a2.38,2.38,0,0,0,2.38,2.38h8.68a2.38,2.38,0,0,0,2.38-2.38V19.33a2.38,2.38,0,0,0-2.38-2.38Z" transform="translate(-1.27 -1.27)" /></g><rect class="cls-4" x="20.94" y="15.67" width="13.45" height="16.21" rx="2.38" ry="2.38" /><g class="cls-12"><path class="cls-6" d="M30.06,30.89c0,.9-.35,1.39-.2,1.48s1.06-.32,1.32-1.11c.41-1.24-.08-1.9-.08-2.54,0-.33.24-.34.24-.9V26.18a.72.72,0,0,0-.74-.71H29.46c-.26,0-.37.22-.52.22s-.26-.22-.52-.22H27.28a.72.72,0,0,0-.74.71v1.64c0,.56.24.57.24.9,0,.63-.49,1.3-.08,2.54C27,32,27.77,32.5,28,32.37s-.22-.58-.2-1.48a1.13,1.13,0,1,1,2.24,0Z" transform="translate(-1.27 -1.27)" /><path class="cls-7" d="M30.32,31.84a3.51,3.51,0,0,0,.11-1,1.5,1.5,0,1,0-3,0,3.51,3.51,0,0,0,.11,1,1.5,1.5,0,0,1-.51-.7,2.71,2.71,0,0,1,0-1.7,3,3,0,0,0,.11-.72,1,1,0,0,0-.14-.5.7.7,0,0,1-.1-.4V26.18a.35.35,0,0,1,.37-.34h1.14s0,0,.12.06a.6.6,0,0,0,.81,0c.07-.05.09-.06.12-.06H30.6a.35.35,0,0,1,.37.34v1.64a.7.7,0,0,1-.1.4,1,1,0,0,0-.14.5,3,3,0,0,0,.11.72,2.71,2.71,0,0,1,0,1.7A1.5,1.5,0,0,1,30.32,31.84Z" transform="translate(-1.27 -1.27)" /><path class="cls-8" d="M30.06,30.89c0,.9-.35,1.39-.2,1.48s1.06-.32,1.32-1.11c.41-1.24-.08-1.9-.08-2.54,0-.33.24-.34.24-.9V26.18a.72.72,0,0,0-.74-.71H29.46c-.26,0-.37.22-.52.22s-.26-.22-.52-.22H27.28a.72.72,0,0,0-.74.71v1.64c0,.56.24.57.24.9,0,.63-.49,1.3-.08,2.54C27,32,27.77,32.5,28,32.37s-.22-.58-.2-1.48a1.13,1.13,0,1,1,2.24,0Z" transform="translate(-1.27 -1.27)" /><path class="cls-9" d="M30.06,29a2.15,2.15,0,0,1,.42.85,1.76,1.76,0,0,0-.19-.88,4.11,4.11,0,0,1-.44-.91c-.08-.35.65-.87.28-1.14s-.89.53-1.18.53-.85-.76-1.18-.53.36.79.28,1.14a5.31,5.31,0,0,1-.44.91,2.08,2.08,0,0,0-.19.88,2.15,2.15,0,0,1,.42-.85,1.36,1.36,0,0,1,2.25,0Z" transform="translate(-1.27 -1.27)" /><path class="cls-6" d="M35.23,30.89c0,.9-.35,1.39-.2,1.48s1.06-.32,1.32-1.11c.41-1.24-.08-1.9-.08-2.54,0-.33.24-.34.24-.9V26.18a.72.72,0,0,0-.74-.71H34.64c-.26,0-.37.22-.52.22s-.26-.22-.52-.22H32.45a.72.72,0,0,0-.74.71v1.64c0,.56.24.57.24.9,0,.63-.49,1.3-.08,2.54.26.79,1.08,1.24,1.32,1.11s-.22-.58-.2-1.48a1.13,1.13,0,1,1,2.24,0Z" transform="translate(-1.27 -1.27)" /><path class="cls-7" d="M35.5,31.84a3.51,3.51,0,0,0,.11-1,1.5,1.5,0,1,0-3,0,3.51,3.51,0,0,0,.11,1,1.5,1.5,0,0,1-.51-.7,2.71,2.71,0,0,1,0-1.7,3,3,0,0,0,.11-.72,1,1,0,0,0-.14-.5.7.7,0,0,1-.1-.4V26.18a.35.35,0,0,1,.37-.34h1.14s0,0,.12.06a.6.6,0,0,0,.81,0c.07-.05.09-.06.12-.06h1.14a.35.35,0,0,1,.37.34v1.64a.7.7,0,0,1-.1.4,1,1,0,0,0-.14.5,3,3,0,0,0,.11.72,2.71,2.71,0,0,1,0,1.7A1.5,1.5,0,0,1,35.5,31.84Z" transform="translate(-1.27 -1.27)" /><path class="cls-8" d="M35.23,30.89c0,.9-.35,1.39-.2,1.48s1.06-.32,1.32-1.11c.41-1.24-.08-1.9-.08-2.54,0-.33.24-.34.24-.9V26.18a.72.72,0,0,0-.74-.71H34.64c-.26,0-.37.22-.52.22s-.26-.22-.52-.22H32.45a.72.72,0,0,0-.74.71v1.64c0,.56.24.57.24.9,0,.63-.49,1.3-.08,2.54.26.79,1.08,1.24,1.32,1.11s-.22-.58-.2-1.48a1.13,1.13,0,1,1,2.24,0Z" transform="translate(-1.27 -1.27)" /><path class="cls-9" d="M35.24,29a2.15,2.15,0,0,1,.42.85,1.76,1.76,0,0,0-.19-.88A4.11,4.11,0,0,1,35,28c-.08-.35.65-.87.28-1.14s-.89.53-1.18.53-.85-.76-1.18-.53.36.79.28,1.14a5.31,5.31,0,0,1-.44.91,2.08,2.08,0,0,0-.19.88A2.15,2.15,0,0,1,33,29a1.36,1.36,0,0,1,2.25,0Z" transform="translate(-1.27 -1.27)" /><path class="cls-6" d="M24.88,30.89c0,.9-.35,1.39-.2,1.48S25.74,32,26,31.26c.41-1.24-.08-1.9-.08-2.54,0-.33.24-.34.24-.9V26.18a.72.72,0,0,0-.74-.71H24.29c-.26,0-.37.22-.52.22s-.26-.22-.52-.22H22.1a.72.72,0,0,0-.74.71v1.64c0,.56.24.57.24.9,0,.63-.49,1.3-.08,2.54.26.79,1.08,1.24,1.32,1.11s-.22-.58-.2-1.48a1.13,1.13,0,1,1,2.24,0Z" transform="translate(-1.27 -1.27)" /><path class="cls-7" d="M25.15,31.84a3.51,3.51,0,0,0,.11-1,1.5,1.5,0,1,0-3,0,3.51,3.51,0,0,0,.11,1,1.5,1.5,0,0,1-.51-.7,2.71,2.71,0,0,1,0-1.7,3,3,0,0,0,.11-.72,1,1,0,0,0-.14-.5.7.7,0,0,1-.1-.4V26.18a.35.35,0,0,1,.37-.34h1.14s0,0,.12.06a.6.6,0,0,0,.81,0c.07-.05.09-.06.12-.06h1.14a.35.35,0,0,1,.37.34v1.64a.7.7,0,0,1-.1.4,1,1,0,0,0-.14.5,3,3,0,0,0,.11.72,2.71,2.71,0,0,1,0,1.7A1.5,1.5,0,0,1,25.15,31.84Z" transform="translate(-1.27 -1.27)" /><path class="cls-8" d="M24.88,30.89c0,.9-.35,1.39-.2,1.48S25.74,32,26,31.26c.41-1.24-.08-1.9-.08-2.54,0-.33.24-.34.24-.9V26.18a.72.72,0,0,0-.74-.71H24.29c-.26,0-.37.22-.52.22s-.26-.22-.52-.22H22.1a.72.72,0,0,0-.74.71v1.64c0,.56.24.57.24.9,0,.63-.49,1.3-.08,2.54.26.79,1.08,1.24,1.32,1.11s-.22-.58-.2-1.48a1.13,1.13,0,1,1,2.24,0Z" transform="translate(-1.27 -1.27)" /><path class="cls-9" d="M24.89,29a2.15,2.15,0,0,1,.42.85,1.76,1.76,0,0,0-.19-.88,4.11,4.11,0,0,1-.44-.91c-.08-.35.65-.87.28-1.14s-.89.53-1.18.53-.85-.76-1.18-.53.36.79.28,1.14a5.31,5.31,0,0,1-.44.91,2.08,2.08,0,0,0-.19.88,2.15,2.15,0,0,1,.42-.85,1.36,1.36,0,0,1,2.25,0Z" transform="translate(-1.27 -1.27)" /><path class="cls-6" d="M30.06,19.21c0-.9-.35-1.39-.2-1.48s1.06.32,1.32,1.11c.41,1.24-.08,1.9-.08,2.54,0,.33.24.34.24.9v1.64a.72.72,0,0,1-.74.71H29.46c-.26,0-.37-.22-.52-.22s-.26.22-.52.22H27.28a.72.72,0,0,1-.74-.71V22.28c0-.56.24-.57.24-.9,0-.63-.49-1.3-.08-2.54C27,18,27.77,17.6,28,17.73s-.22.58-.2,1.48a1.13,1.13,0,1,0,2.24,0Z" transform="translate(-1.27 -1.27)" /><path class="cls-7" d="M30.32,18.26a3.51,3.51,0,0,1,.11,1,1.5,1.5,0,1,1-3,0,3.51,3.51,0,0,1,.11-1A1.5,1.5,0,0,0,27,19a2.71,2.71,0,0,0,0,1.7,3,3,0,0,1,.11.72,1,1,0,0,1-.14.5.7.7,0,0,0-.1.4v1.64a.35.35,0,0,0,.37.34h1.14s0,0,.12-.06a.6.6,0,0,1,.81,0c.07.05.09.06.12.06H30.6a.35.35,0,0,0,.37-.34V22.28a.7.7,0,0,0-.1-.4,1,1,0,0,1-.14-.5,3,3,0,0,1,.11-.72,2.71,2.71,0,0,0,0-1.7A1.5,1.5,0,0,0,30.32,18.26Z" transform="translate(-1.27 -1.27)" /><path class="cls-8" d="M30.06,19.21c0-.9-.35-1.39-.2-1.48s1.06.32,1.32,1.11c.41,1.24-.08,1.9-.08,2.54,0,.33.24.34.24.9v1.64a.72.72,0,0,1-.74.71H29.46c-.26,0-.37-.22-.52-.22s-.26.22-.52.22H27.28a.72.72,0,0,1-.74-.71V22.28c0-.56.24-.57.24-.9,0-.63-.49-1.3-.08-2.54C27,18,27.77,17.6,28,17.73s-.22.58-.2,1.48a1.13,1.13,0,1,0,2.24,0Z" transform="translate(-1.27 -1.27)" /><path class="cls-9" d="M30.06,21.12a2.15,2.15,0,0,0,.42-.85,1.76,1.76,0,0,1-.19.88,4.11,4.11,0,0,0-.44.91c-.08.35.65.87.28,1.14s-.89-.53-1.18-.53-.85.76-1.18.53.36-.79.28-1.14a5.31,5.31,0,0,0-.44-.91,2.08,2.08,0,0,1-.19-.88,2.15,2.15,0,0,0,.42.85,1.36,1.36,0,0,0,2.25,0Z" transform="translate(-1.27 -1.27)" /><path class="cls-6" d="M35.23,19.21c0-.9-.35-1.39-.2-1.48s1.06.32,1.32,1.11c.41,1.24-.08,1.9-.08,2.54,0,.33.24.34.24.9v1.64a.72.72,0,0,1-.74.71H34.64c-.26,0-.37-.22-.52-.22s-.26.22-.52.22H32.45a.72.72,0,0,1-.74-.71V22.28c0-.56.24-.57.24-.9,0-.63-.49-1.3-.08-2.54.26-.79,1.08-1.24,1.32-1.11s-.22.58-.2,1.48a1.13,1.13,0,1,0,2.24,0Z" transform="translate(-1.27 -1.27)" /><path class="cls-7" d="M35.5,18.26a3.51,3.51,0,0,1,.11,1,1.5,1.5,0,1,1-3,0,3.51,3.51,0,0,1,.11-1,1.5,1.5,0,0,0-.51.7,2.71,2.71,0,0,0,0,1.7,3,3,0,0,1,.11.72,1,1,0,0,1-.14.5.7.7,0,0,0-.1.4v1.64a.35.35,0,0,0,.37.34h1.14s0,0,.12-.06a.6.6,0,0,1,.81,0c.07.05.09.06.12.06h1.14a.35.35,0,0,0,.37-.34V22.28a.7.7,0,0,0-.1-.4,1,1,0,0,1-.14-.5,3,3,0,0,1,.11-.72A2.71,2.71,0,0,0,36,19,1.5,1.5,0,0,0,35.5,18.26Z" transform="translate(-1.27 -1.27)" /><path class="cls-8" d="M35.23,19.21c0-.9-.35-1.39-.2-1.48s1.06.32,1.32,1.11c.41,1.24-.08,1.9-.08,2.54,0,.33.24.34.24.9v1.64a.72.72,0,0,1-.74.71H34.64c-.26,0-.37-.22-.52-.22s-.26.22-.52.22H32.45a.72.72,0,0,1-.74-.71V22.28c0-.56.24-.57.24-.9,0-.63-.49-1.3-.08-2.54.26-.79,1.08-1.24,1.32-1.11s-.22.58-.2,1.48a1.13,1.13,0,1,0,2.24,0Z" transform="translate(-1.27 -1.27)" /><path class="cls-9" d="M35.24,21.12a2.15,2.15,0,0,0,.42-.85,1.76,1.76,0,0,1-.19.88,4.11,4.11,0,0,0-.44.91c-.08.35.65.87.28,1.14s-.89-.53-1.18-.53-.85.76-1.18.53.36-.79.28-1.14a5.31,5.31,0,0,0-.44-.91,2.08,2.08,0,0,1-.19-.88,2.15,2.15,0,0,0,.42.85,1.36,1.36,0,0,0,2.25,0Z" transform="translate(-1.27 -1.27)" /><path class="cls-6" d="M24.88,19.21c0-.9-.35-1.39-.2-1.48S25.74,18,26,18.84c.41,1.24-.08,1.9-.08,2.54,0,.33.24.34.24.9v1.64a.72.72,0,0,1-.74.71H24.29c-.26,0-.37-.22-.52-.22s-.26.22-.52.22H22.1a.72.72,0,0,1-.74-.71V22.28c0-.56.24-.57.24-.9,0-.63-.49-1.3-.08-2.54.26-.79,1.08-1.24,1.32-1.11s-.22.58-.2,1.48a1.13,1.13,0,1,0,2.24,0Z" transform="translate(-1.27 -1.27)" /><path class="cls-7" d="M25.15,18.26a3.51,3.51,0,0,1,.11,1,1.5,1.5,0,1,1-3,0,3.51,3.51,0,0,1,.11-1,1.5,1.5,0,0,0-.51.7,2.71,2.71,0,0,0,0,1.7,3,3,0,0,1,.11.72,1,1,0,0,1-.14.5.7.7,0,0,0-.1.4v1.64a.35.35,0,0,0,.37.34h1.14s0,0,.12-.06a.6.6,0,0,1,.81,0c.07.05.09.06.12.06h1.14a.35.35,0,0,0,.37-.34V22.28a.7.7,0,0,0-.1-.4,1,1,0,0,1-.14-.5,3,3,0,0,1,.11-.72,2.71,2.71,0,0,0,0-1.7A1.5,1.5,0,0,0,25.15,18.26Z" transform="translate(-1.27 -1.27)" /><path class="cls-8" d="M24.88,19.21c0-.9-.35-1.39-.2-1.48S25.74,18,26,18.84c.41,1.24-.08,1.9-.08,2.54,0,.33.24.34.24.9v1.64a.72.72,0,0,1-.74.71H24.29c-.26,0-.37-.22-.52-.22s-.26.22-.52.22H22.1a.72.72,0,0,1-.74-.71V22.28c0-.56.24-.57.24-.9,0-.63-.49-1.3-.08-2.54.26-.79,1.08-1.24,1.32-1.11s-.22.58-.2,1.48a1.13,1.13,0,1,0,2.24,0Z" transform="translate(-1.27 -1.27)" /><path class="cls-9" d="M24.89,21.12a2.15,2.15,0,0,0,.42-.85,1.76,1.76,0,0,1-.19.88,4.11,4.11,0,0,0-.44.91c-.08.35.65.87.28,1.14s-.89-.53-1.18-.53-.85.76-1.18.53.36-.79.28-1.14a5.31,5.31,0,0,0-.44-.91,2.08,2.08,0,0,1-.19-.88,2.15,2.15,0,0,0,.42.85,1.36,1.36,0,0,0,2.25,0Z" transform="translate(-1.27 -1.27)" /></g><g class="cls-10"><path class="cls-11" d="M33.28,17.38a2,2,0,0,1,1.95,1.95V30.77a2,2,0,0,1-1.95,1.95H24.6a2,2,0,0,1-1.95-1.95V19.33a2,2,0,0,1,1.95-1.95h8.68m0-.43H24.6a2.38,2.38,0,0,0-2.38,2.38V30.77a2.38,2.38,0,0,0,2.38,2.38h8.68a2.38,2.38,0,0,0,2.38-2.38V19.33a2.38,2.38,0,0,0-2.38-2.38Z" transform="translate(-1.27 -1.27)" /></g><rect class="cls-4" x="35.07" y="15.67" width="13.45" height="16.21" rx="2.38" ry="2.38" /><g class="cls-13"><path class="cls-6" d="M44.18,30.89c0,.9-.35,1.39-.2,1.48S45,32,45.31,31.26c.41-1.24-.08-1.9-.08-2.54,0-.33.24-.34.24-.9V26.18a.72.72,0,0,0-.74-.71H43.59c-.26,0-.37.22-.52.22s-.26-.22-.52-.22H41.4a.72.72,0,0,0-.74.71v1.64c0,.56.24.57.24.9,0,.63-.49,1.3-.08,2.54.26.79,1.08,1.24,1.32,1.11s-.22-.58-.2-1.48a1.13,1.13,0,1,1,2.24,0Z" transform="translate(-1.27 -1.27)" /><path class="cls-7" d="M44.45,31.84a3.51,3.51,0,0,0,.11-1,1.5,1.5,0,1,0-3,0,3.51,3.51,0,0,0,.11,1,1.5,1.5,0,0,1-.51-.7,2.71,2.71,0,0,1,0-1.7,3,3,0,0,0,.11-.72,1,1,0,0,0-.14-.5.7.7,0,0,1-.1-.4V26.18a.35.35,0,0,1,.37-.34h1.14s0,0,.12.06a.6.6,0,0,0,.81,0c.07-.05.09-.06.12-.06h1.14a.35.35,0,0,1,.37.34v1.64a.7.7,0,0,1-.1.4,1,1,0,0,0-.14.5,3,3,0,0,0,.11.72,2.71,2.71,0,0,1,0,1.7A1.5,1.5,0,0,1,44.45,31.84Z" transform="translate(-1.27 -1.27)" /><path class="cls-8" d="M44.18,30.89c0,.9-.35,1.39-.2,1.48S45,32,45.31,31.26c.41-1.24-.08-1.9-.08-2.54,0-.33.24-.34.24-.9V26.18a.72.72,0,0,0-.74-.71H43.59c-.26,0-.37.22-.52.22s-.26-.22-.52-.22H41.4a.72.72,0,0,0-.74.71v1.64c0,.56.24.57.24.9,0,.63-.49,1.3-.08,2.54.26.79,1.08,1.24,1.32,1.11s-.22-.58-.2-1.48a1.13,1.13,0,1,1,2.24,0Z" transform="translate(-1.27 -1.27)" /><path class="cls-9" d="M44.19,29a2.15,2.15,0,0,1,.42.85,1.76,1.76,0,0,0-.19-.88A4.11,4.11,0,0,1,44,28c-.08-.35.65-.87.28-1.14s-.89.53-1.18.53-.85-.76-1.18-.53.36.79.28,1.14a5.31,5.31,0,0,1-.44.91,2.08,2.08,0,0,0-.19.88,2.15,2.15,0,0,1,.42-.85,1.36,1.36,0,0,1,2.25,0Z" transform="translate(-1.27 -1.27)" /><path class="cls-6" d="M49.36,30.89c0,.9-.35,1.39-.2,1.48s1.06-.32,1.32-1.11c.41-1.24-.08-1.9-.08-2.54,0-.33.24-.34.24-.9V26.18a.72.72,0,0,0-.74-.71H48.76c-.26,0-.37.22-.52.22s-.26-.22-.52-.22H46.58a.72.72,0,0,0-.74.71v1.64c0,.56.24.57.24.9,0,.63-.49,1.3-.08,2.54.26.79,1.08,1.24,1.32,1.11s-.22-.58-.2-1.48a1.13,1.13,0,1,1,2.24,0Z" transform="translate(-1.27 -1.27)" /><path class="cls-7" d="M49.62,31.84a3.51,3.51,0,0,0,.11-1,1.5,1.5,0,1,0-3,0,3.51,3.51,0,0,0,.11,1,1.5,1.5,0,0,1-.51-.7,2.71,2.71,0,0,1,0-1.7,3,3,0,0,0,.11-.72,1,1,0,0,0-.14-.5.7.7,0,0,1-.1-.4V26.18a.35.35,0,0,1,.37-.34h1.14s0,0,.12.06a.6.6,0,0,0,.81,0c.07-.05.09-.06.12-.06H49.9a.35.35,0,0,1,.37.34v1.64a.7.7,0,0,1-.1.4,1,1,0,0,0-.14.5,3,3,0,0,0,.11.72,2.71,2.71,0,0,1,0,1.7A1.5,1.5,0,0,1,49.62,31.84Z" transform="translate(-1.27 -1.27)" /><path class="cls-8" d="M49.36,30.89c0,.9-.35,1.39-.2,1.48s1.06-.32,1.32-1.11c.41-1.24-.08-1.9-.08-2.54,0-.33.24-.34.24-.9V26.18a.72.72,0,0,0-.74-.71H48.76c-.26,0-.37.22-.52.22s-.26-.22-.52-.22H46.58a.72.72,0,0,0-.74.71v1.64c0,.56.24.57.24.9,0,.63-.49,1.3-.08,2.54.26.79,1.08,1.24,1.32,1.11s-.22-.58-.2-1.48a1.13,1.13,0,1,1,2.24,0Z" transform="translate(-1.27 -1.27)" /><path class="cls-9" d="M49.36,29a2.15,2.15,0,0,1,.42.85,1.76,1.76,0,0,0-.19-.88,4.11,4.11,0,0,1-.44-.91c-.08-.35.65-.87.28-1.14s-.89.53-1.18.53-.85-.76-1.18-.53.36.79.28,1.14a5.31,5.31,0,0,1-.44.91,2.08,2.08,0,0,0-.19.88,2.15,2.15,0,0,1,.42-.85,1.36,1.36,0,0,1,2.25,0Z" transform="translate(-1.27 -1.27)" /><path class="cls-6" d="M39,30.89c0,.9-.35,1.39-.2,1.48s1.06-.32,1.32-1.11c.41-1.24-.08-1.9-.08-2.54,0-.33.24-.34.24-.9V26.18a.72.72,0,0,0-.74-.71H38.41c-.26,0-.37.22-.52.22s-.26-.22-.52-.22H36.23a.72.72,0,0,0-.74.71v1.64c0,.56.24.57.24.9,0,.63-.49,1.3-.08,2.54.26.79,1.08,1.24,1.32,1.11s-.22-.58-.2-1.48a1.13,1.13,0,1,1,2.24,0Z" transform="translate(-1.27 -1.27)" /><path class="cls-7" d="M39.28,31.84a3.51,3.51,0,0,0,.11-1,1.5,1.5,0,1,0-3,0,3.51,3.51,0,0,0,.11,1,1.5,1.5,0,0,1-.51-.7,2.71,2.71,0,0,1,0-1.7,3,3,0,0,0,.11-.72,1,1,0,0,0-.14-.5.7.7,0,0,1-.1-.4V26.18a.35.35,0,0,1,.37-.34h1.14s0,0,.12.06a.6.6,0,0,0,.81,0c.07-.05.09-.06.12-.06h1.14a.35.35,0,0,1,.37.34v1.64a.7.7,0,0,1-.1.4,1,1,0,0,0-.14.5,3,3,0,0,0,.11.72,2.71,2.71,0,0,1,0,1.7A1.5,1.5,0,0,1,39.28,31.84Z" transform="translate(-1.27 -1.27)" /><path class="cls-8" d="M39,30.89c0,.9-.35,1.39-.2,1.48s1.06-.32,1.32-1.11c.41-1.24-.08-1.9-.08-2.54,0-.33.24-.34.24-.9V26.18a.72.72,0,0,0-.74-.71H38.41c-.26,0-.37.22-.52.22s-.26-.22-.52-.22H36.23a.72.72,0,0,0-.74.71v1.64c0,.56.24.57.24.9,0,.63-.49,1.3-.08,2.54.26.79,1.08,1.24,1.32,1.11s-.22-.58-.2-1.48a1.13,1.13,0,1,1,2.24,0Z" transform="translate(-1.27 -1.27)" /><path class="cls-9" d="M39,29a2.15,2.15,0,0,1,.42.85,1.76,1.76,0,0,0-.19-.88,4.11,4.11,0,0,1-.44-.91c-.08-.35.65-.87.28-1.14s-.89.53-1.18.53-.85-.76-1.18-.53.36.79.28,1.14a5.31,5.31,0,0,1-.44.91,2.08,2.08,0,0,0-.19.88,2.15,2.15,0,0,1,.42-.85A1.36,1.36,0,0,1,39,29Z" transform="translate(-1.27 -1.27)" /><path class="cls-6" d="M44.18,19.21c0-.9-.35-1.39-.2-1.48S45,18,45.31,18.84c.41,1.24-.08,1.9-.08,2.54,0,.33.24.34.24.9v1.64a.72.72,0,0,1-.74.71H43.59c-.26,0-.37-.22-.52-.22s-.26.22-.52.22H41.4a.72.72,0,0,1-.74-.71V22.28c0-.56.24-.57.24-.9,0-.63-.49-1.3-.08-2.54.26-.79,1.08-1.24,1.32-1.11s-.22.58-.2,1.48a1.13,1.13,0,1,0,2.24,0Z" transform="translate(-1.27 -1.27)" /><path class="cls-7" d="M44.45,18.26a3.51,3.51,0,0,1,.11,1,1.5,1.5,0,1,1-3,0,3.51,3.51,0,0,1,.11-1,1.5,1.5,0,0,0-.51.7,2.71,2.71,0,0,0,0,1.7,3,3,0,0,1,.11.72,1,1,0,0,1-.14.5.7.7,0,0,0-.1.4v1.64a.35.35,0,0,0,.37.34h1.14s0,0,.12-.06a.6.6,0,0,1,.81,0c.07.05.09.06.12.06h1.14a.35.35,0,0,0,.37-.34V22.28a.7.7,0,0,0-.1-.4,1,1,0,0,1-.14-.5,3,3,0,0,1,.11-.72A2.71,2.71,0,0,0,45,19,1.5,1.5,0,0,0,44.45,18.26Z" transform="translate(-1.27 -1.27)" /><path class="cls-8" d="M44.18,19.21c0-.9-.35-1.39-.2-1.48S45,18,45.31,18.84c.41,1.24-.08,1.9-.08,2.54,0,.33.24.34.24.9v1.64a.72.72,0,0,1-.74.71H43.59c-.26,0-.37-.22-.52-.22s-.26.22-.52.22H41.4a.72.72,0,0,1-.74-.71V22.28c0-.56.24-.57.24-.9,0-.63-.49-1.3-.08-2.54.26-.79,1.08-1.24,1.32-1.11s-.22.58-.2,1.48a1.13,1.13,0,1,0,2.24,0Z" transform="translate(-1.27 -1.27)" /><path class="cls-9" d="M44.19,21.12a2.15,2.15,0,0,0,.42-.85,1.76,1.76,0,0,1-.19.88,4.11,4.11,0,0,0-.44.91c-.08.35.65.87.28,1.14s-.89-.53-1.18-.53-.85.76-1.18.53.36-.79.28-1.14a5.31,5.31,0,0,0-.44-.91,2.08,2.08,0,0,1-.19-.88,2.15,2.15,0,0,0,.42.85,1.36,1.36,0,0,0,2.25,0Z" transform="translate(-1.27 -1.27)" /><path class="cls-6" d="M49.36,19.21c0-.9-.35-1.39-.2-1.48s1.06.32,1.32,1.11c.41,1.24-.08,1.9-.08,2.54,0,.33.24.34.24.9v1.64a.72.72,0,0,1-.74.71H48.76c-.26,0-.37-.22-.52-.22s-.26.22-.52.22H46.58a.72.72,0,0,1-.74-.71V22.28c0-.56.24-.57.24-.9,0-.63-.49-1.3-.08-2.54.26-.79,1.08-1.24,1.32-1.11s-.22.58-.2,1.48a1.13,1.13,0,1,0,2.24,0Z" transform="translate(-1.27 -1.27)" /><path class="cls-7" d="M49.62,18.26a3.51,3.51,0,0,1,.11,1,1.5,1.5,0,1,1-3,0,3.51,3.51,0,0,1,.11-1,1.5,1.5,0,0,0-.51.7,2.71,2.71,0,0,0,0,1.7,3,3,0,0,1,.11.72,1,1,0,0,1-.14.5.7.7,0,0,0-.1.4v1.64a.35.35,0,0,0,.37.34h1.14s0,0,.12-.06a.6.6,0,0,1,.81,0c.07.05.09.06.12.06H49.9a.35.35,0,0,0,.37-.34V22.28a.7.7,0,0,0-.1-.4,1,1,0,0,1-.14-.5,3,3,0,0,1,.11-.72,2.71,2.71,0,0,0,0-1.7A1.5,1.5,0,0,0,49.62,18.26Z" transform="translate(-1.27 -1.27)" /><path class="cls-8" d="M49.36,19.21c0-.9-.35-1.39-.2-1.48s1.06.32,1.32,1.11c.41,1.24-.08,1.9-.08,2.54,0,.33.24.34.24.9v1.64a.72.72,0,0,1-.74.71H48.76c-.26,0-.37-.22-.52-.22s-.26.22-.52.22H46.58a.72.72,0,0,1-.74-.71V22.28c0-.56.24-.57.24-.9,0-.63-.49-1.3-.08-2.54.26-.79,1.08-1.24,1.32-1.11s-.22.58-.2,1.48a1.13,1.13,0,1,0,2.24,0Z" transform="translate(-1.27 -1.27)" /><path class="cls-9" d="M49.36,21.12a2.15,2.15,0,0,0,.42-.85,1.76,1.76,0,0,1-.19.88,4.11,4.11,0,0,0-.44.91c-.08.35.65.87.28,1.14s-.89-.53-1.18-.53-.85.76-1.18.53.36-.79.28-1.14a5.31,5.31,0,0,0-.44-.91,2.08,2.08,0,0,1-.19-.88,2.15,2.15,0,0,0,.42.85,1.36,1.36,0,0,0,2.25,0Z" transform="translate(-1.27 -1.27)" /><path class="cls-6" d="M39,19.21c0-.9-.35-1.39-.2-1.48s1.06.32,1.32,1.11c.41,1.24-.08,1.9-.08,2.54,0,.33.24.34.24.9v1.64a.72.72,0,0,1-.74.71H38.41c-.26,0-.37-.22-.52-.22s-.26.22-.52.22H36.23a.72.72,0,0,1-.74-.71V22.28c0-.56.24-.57.24-.9,0-.63-.49-1.3-.08-2.54.26-.79,1.08-1.24,1.32-1.11s-.22.58-.2,1.48a1.13,1.13,0,1,0,2.24,0Z" transform="translate(-1.27 -1.27)" /><path class="cls-7" d="M39.28,18.26a3.51,3.51,0,0,1,.11,1,1.5,1.5,0,1,1-3,0,3.51,3.51,0,0,1,.11-1A1.5,1.5,0,0,0,36,19a2.71,2.71,0,0,0,0,1.7,3,3,0,0,1,.11.72,1,1,0,0,1-.14.5.7.7,0,0,0-.1.4v1.64a.35.35,0,0,0,.37.34h1.14s0,0,.12-.06a.6.6,0,0,1,.81,0c.07.05.09.06.12.06h1.14a.35.35,0,0,0,.37-.34V22.28a.7.7,0,0,0-.1-.4,1,1,0,0,1-.14-.5,3,3,0,0,1,.11-.72,2.71,2.71,0,0,0,0-1.7A1.5,1.5,0,0,0,39.28,18.26Z" transform="translate(-1.27 -1.27)" /><path class="cls-8" d="M39,19.21c0-.9-.35-1.39-.2-1.48s1.06.32,1.32,1.11c.41,1.24-.08,1.9-.08,2.54,0,.33.24.34.24.9v1.64a.72.72,0,0,1-.74.71H38.41c-.26,0-.37-.22-.52-.22s-.26.22-.52.22H36.23a.72.72,0,0,1-.74-.71V22.28c0-.56.24-.57.24-.9,0-.63-.49-1.3-.08-2.54.26-.79,1.08-1.24,1.32-1.11s-.22.58-.2,1.48a1.13,1.13,0,1,0,2.24,0Z" transform="translate(-1.27 -1.27)" /><path class="cls-9" d="M39,21.12a2.15,2.15,0,0,0,.42-.85,1.76,1.76,0,0,1-.19.88,4.11,4.11,0,0,0-.44.91c-.08.35.65.87.28,1.14s-.89-.53-1.18-.53-.85.76-1.18.53.36-.79.28-1.14a5.31,5.31,0,0,0-.44-.91,2.08,2.08,0,0,1-.19-.88,2.15,2.15,0,0,0,.42.85,1.36,1.36,0,0,0,2.25,0Z" transform="translate(-1.27 -1.27)" /></g><g class="cls-10"><path class="cls-11" d="M47.4,17.38a2,2,0,0,1,1.95,1.95V30.77a2,2,0,0,1-1.95,1.95H38.72a2,2,0,0,1-1.95-1.95V19.33a2,2,0,0,1,1.95-1.95H47.4m0-.43H38.72a2.38,2.38,0,0,0-2.38,2.38V30.77a2.38,2.38,0,0,0,2.38,2.38H47.4a2.38,2.38,0,0,0,2.38-2.38V19.33a2.38,2.38,0,0,0-2.38-2.38Z" transform="translate(-1.27 -1.27)" /></g><rect class="cls-4" x="49.19" y="15.67" width="13.45" height="16.21" rx="2.38" ry="2.38" /><g class="cls-14"><path class="cls-6" d="M58.31,30.89c0,.9-.35,1.39-.2,1.48s1.06-.32,1.32-1.11c.41-1.24-.08-1.9-.08-2.54,0-.33.24-.34.24-.9V26.18a.72.72,0,0,0-.74-.71H57.71c-.26,0-.37.22-.52.22s-.26-.22-.52-.22H55.53a.72.72,0,0,0-.74.71v1.64c0,.56.24.57.24.9,0,.63-.49,1.3-.08,2.54.26.79,1.08,1.24,1.32,1.11s-.22-.58-.2-1.48a1.13,1.13,0,1,1,2.24,0Z" transform="translate(-1.27 -1.27)" /><path class="cls-7" d="M58.58,31.84a3.51,3.51,0,0,0,.11-1,1.5,1.5,0,1,0-3,0,3.51,3.51,0,0,0,.11,1,1.5,1.5,0,0,1-.51-.7,2.71,2.71,0,0,1,0-1.7,3,3,0,0,0,.11-.72,1,1,0,0,0-.14-.5.7.7,0,0,1-.1-.4V26.18a.35.35,0,0,1,.37-.34h1.14s0,0,.12.06a.6.6,0,0,0,.81,0c.07-.05.09-.06.12-.06h1.14a.35.35,0,0,1,.37.34v1.64a.7.7,0,0,1-.1.4,1,1,0,0,0-.14.5,3,3,0,0,0,.11.72,2.71,2.71,0,0,1,0,1.7A1.5,1.5,0,0,1,58.58,31.84Z" transform="translate(-1.27 -1.27)" /><path class="cls-8" d="M58.31,30.89c0,.9-.35,1.39-.2,1.48s1.06-.32,1.32-1.11c.41-1.24-.08-1.9-.08-2.54,0-.33.24-.34.24-.9V26.18a.72.72,0,0,0-.74-.71H57.71c-.26,0-.37.22-.52.22s-.26-.22-.52-.22H55.53a.72.72,0,0,0-.74.71v1.64c0,.56.24.57.24.9,0,.63-.49,1.3-.08,2.54.26.79,1.08,1.24,1.32,1.11s-.22-.58-.2-1.48a1.13,1.13,0,1,1,2.24,0Z" transform="translate(-1.27 -1.27)" /><path class="cls-9" d="M58.31,29a2.15,2.15,0,0,1,.42.85,1.76,1.76,0,0,0-.19-.88,4.11,4.11,0,0,1-.44-.91c-.08-.35.65-.87.28-1.14s-.89.53-1.18.53-.85-.76-1.18-.53.36.79.28,1.14a5.31,5.31,0,0,1-.44.91,2.08,2.08,0,0,0-.19.88,2.15,2.15,0,0,1,.42-.85,1.36,1.36,0,0,1,2.25,0Z" transform="translate(-1.27 -1.27)" /><path class="cls-6" d="M63.49,30.89c0,.9-.35,1.39-.2,1.48s1.06-.32,1.32-1.11c.41-1.24-.08-1.9-.08-2.54,0-.33.24-.34.24-.9V26.18a.72.72,0,0,0-.74-.71H62.89c-.26,0-.37.22-.52.22s-.26-.22-.52-.22H60.7a.72.72,0,0,0-.74.71v1.64c0,.56.24.57.24.9,0,.63-.49,1.3-.08,2.54.26.79,1.08,1.24,1.32,1.11s-.22-.58-.2-1.48a1.13,1.13,0,1,1,2.24,0Z" transform="translate(-1.27 -1.27)" /><path class="cls-7" d="M63.75,31.84a3.51,3.51,0,0,0,.11-1,1.5,1.5,0,1,0-3,0,3.51,3.51,0,0,0,.11,1,1.5,1.5,0,0,1-.51-.7,2.71,2.71,0,0,1,0-1.7,3,3,0,0,0,.11-.72,1,1,0,0,0-.14-.5.7.7,0,0,1-.1-.4V26.18a.35.35,0,0,1,.37-.34h1.14s0,0,.12.06a.6.6,0,0,0,.81,0c.07-.05.09-.06.12-.06H64a.35.35,0,0,1,.37.34v1.64a.7.7,0,0,1-.1.4,1,1,0,0,0-.14.5,3,3,0,0,0,.11.72,2.71,2.71,0,0,1,0,1.7A1.5,1.5,0,0,1,63.75,31.84Z" transform="translate(-1.27 -1.27)" /><path class="cls-8" d="M63.49,30.89c0,.9-.35,1.39-.2,1.48s1.06-.32,1.32-1.11c.41-1.24-.08-1.9-.08-2.54,0-.33.24-.34.24-.9V26.18a.72.72,0,0,0-.74-.71H62.89c-.26,0-.37.22-.52.22s-.26-.22-.52-.22H60.7a.72.72,0,0,0-.74.71v1.64c0,.56.24.57.24.9,0,.63-.49,1.3-.08,2.54.26.79,1.08,1.24,1.32,1.11s-.22-.58-.2-1.48a1.13,1.13,0,1,1,2.24,0Z" transform="translate(-1.27 -1.27)" /><path class="cls-9" d="M63.49,29a2.15,2.15,0,0,1,.42.85,1.76,1.76,0,0,0-.19-.88,4.11,4.11,0,0,1-.44-.91c-.08-.35.65-.87.28-1.14s-.89.53-1.18.53-.85-.76-1.18-.53.36.79.28,1.14a5.31,5.31,0,0,1-.44.91,2.08,2.08,0,0,0-.19.88,2.15,2.15,0,0,1,.42-.85,1.36,1.36,0,0,1,2.25,0Z" transform="translate(-1.27 -1.27)" /><path class="cls-6" d="M53.14,30.89c0,.9-.35,1.39-.2,1.48S54,32,54.26,31.26c.41-1.24-.08-1.9-.08-2.54,0-.33.24-.34.24-.9V26.18a.72.72,0,0,0-.74-.71H52.54c-.26,0-.37.22-.52.22s-.26-.22-.52-.22H50.35a.72.72,0,0,0-.74.71v1.64c0,.56.24.57.24.9,0,.63-.49,1.3-.08,2.54.26.79,1.08,1.24,1.32,1.11s-.22-.58-.2-1.48a1.13,1.13,0,1,1,2.24,0Z" transform="translate(-1.27 -1.27)" /><path class="cls-7" d="M53.4,31.84a3.51,3.51,0,0,0,.11-1,1.5,1.5,0,1,0-3,0,3.51,3.51,0,0,0,.11,1,1.5,1.5,0,0,1-.51-.7,2.71,2.71,0,0,1,0-1.7,3,3,0,0,0,.11-.72,1,1,0,0,0-.14-.5.7.7,0,0,1-.1-.4V26.18a.35.35,0,0,1,.37-.34h1.14s0,0,.12.06a.6.6,0,0,0,.81,0c.07-.05.09-.06.12-.06h1.14a.35.35,0,0,1,.37.34v1.64a.7.7,0,0,1-.1.4,1,1,0,0,0-.14.5,3,3,0,0,0,.11.72,2.71,2.71,0,0,1,0,1.7A1.5,1.5,0,0,1,53.4,31.84Z" transform="translate(-1.27 -1.27)" /><path class="cls-8" d="M53.14,30.89c0,.9-.35,1.39-.2,1.48S54,32,54.26,31.26c.41-1.24-.08-1.9-.08-2.54,0-.33.24-.34.24-.9V26.18a.72.72,0,0,0-.74-.71H52.54c-.26,0-.37.22-.52.22s-.26-.22-.52-.22H50.35a.72.72,0,0,0-.74.71v1.64c0,.56.24.57.24.9,0,.63-.49,1.3-.08,2.54.26.79,1.08,1.24,1.32,1.11s-.22-.58-.2-1.48a1.13,1.13,0,1,1,2.24,0Z" transform="translate(-1.27 -1.27)" /><path class="cls-9" d="M53.14,29a2.15,2.15,0,0,1,.42.85,1.76,1.76,0,0,0-.19-.88,4.11,4.11,0,0,1-.44-.91c-.08-.35.65-.87.28-1.14s-.89.53-1.18.53-.85-.76-1.18-.53.36.79.28,1.14a5.31,5.31,0,0,1-.44.91,2.08,2.08,0,0,0-.19.88,2.15,2.15,0,0,1,.42-.85,1.36,1.36,0,0,1,2.25,0Z" transform="translate(-1.27 -1.27)" /><path class="cls-6" d="M58.31,19.21c0-.9-.35-1.39-.2-1.48s1.06.32,1.32,1.11c.41,1.24-.08,1.9-.08,2.54,0,.33.24.34.24.9v1.64a.72.72,0,0,1-.74.71H57.71c-.26,0-.37-.22-.52-.22s-.26.22-.52.22H55.53a.72.72,0,0,1-.74-.71V22.28c0-.56.24-.57.24-.9,0-.63-.49-1.3-.08-2.54.26-.79,1.08-1.24,1.32-1.11s-.22.58-.2,1.48a1.13,1.13,0,1,0,2.24,0Z" transform="translate(-1.27 -1.27)" /><path class="cls-7" d="M58.58,18.26a3.51,3.51,0,0,1,.11,1,1.5,1.5,0,1,1-3,0,3.51,3.51,0,0,1,.11-1,1.5,1.5,0,0,0-.51.7,2.71,2.71,0,0,0,0,1.7,3,3,0,0,1,.11.72,1,1,0,0,1-.14.5.7.7,0,0,0-.1.4v1.64a.35.35,0,0,0,.37.34h1.14s0,0,.12-.06a.6.6,0,0,1,.81,0c.07.05.09.06.12.06h1.14a.35.35,0,0,0,.37-.34V22.28a.7.7,0,0,0-.1-.4,1,1,0,0,1-.14-.5,3,3,0,0,1,.11-.72,2.71,2.71,0,0,0,0-1.7A1.5,1.5,0,0,0,58.58,18.26Z" transform="translate(-1.27 -1.27)" /><path class="cls-8" d="M58.31,19.21c0-.9-.35-1.39-.2-1.48s1.06.32,1.32,1.11c.41,1.24-.08,1.9-.08,2.54,0,.33.24.34.24.9v1.64a.72.72,0,0,1-.74.71H57.71c-.26,0-.37-.22-.52-.22s-.26.22-.52.22H55.53a.72.72,0,0,1-.74-.71V22.28c0-.56.24-.57.24-.9,0-.63-.49-1.3-.08-2.54.26-.79,1.08-1.24,1.32-1.11s-.22.58-.2,1.48a1.13,1.13,0,1,0,2.24,0Z" transform="translate(-1.27 -1.27)" /><path class="cls-9" d="M58.31,21.12a2.15,2.15,0,0,0,.42-.85,1.76,1.76,0,0,1-.19.88,4.11,4.11,0,0,0-.44.91c-.08.35.65.87.28,1.14s-.89-.53-1.18-.53-.85.76-1.18.53.36-.79.28-1.14a5.31,5.31,0,0,0-.44-.91,2.08,2.08,0,0,1-.19-.88,2.15,2.15,0,0,0,.42.85,1.36,1.36,0,0,0,2.25,0Z" transform="translate(-1.27 -1.27)" /><path class="cls-6" d="M63.49,19.21c0-.9-.35-1.39-.2-1.48s1.06.32,1.32,1.11c.41,1.24-.08,1.9-.08,2.54,0,.33.24.34.24.9v1.64a.72.72,0,0,1-.74.71H62.89c-.26,0-.37-.22-.52-.22s-.26.22-.52.22H60.7a.72.72,0,0,1-.74-.71V22.28c0-.56.24-.57.24-.9,0-.63-.49-1.3-.08-2.54.26-.79,1.08-1.24,1.32-1.11s-.22.58-.2,1.48a1.13,1.13,0,1,0,2.24,0Z" transform="translate(-1.27 -1.27)" /><path class="cls-7" d="M63.75,18.26a3.51,3.51,0,0,1,.11,1,1.5,1.5,0,1,1-3,0,3.51,3.51,0,0,1,.11-1,1.5,1.5,0,0,0-.51.7,2.71,2.71,0,0,0,0,1.7,3,3,0,0,1,.11.72,1,1,0,0,1-.14.5.7.7,0,0,0-.1.4v1.64a.35.35,0,0,0,.37.34h1.14s0,0,.12-.06a.6.6,0,0,1,.81,0c.07.05.09.06.12.06H64a.35.35,0,0,0,.37-.34V22.28a.7.7,0,0,0-.1-.4,1,1,0,0,1-.14-.5,3,3,0,0,1,.11-.72,2.71,2.71,0,0,0,0-1.7A1.5,1.5,0,0,0,63.75,18.26Z" transform="translate(-1.27 -1.27)" /><path class="cls-8" d="M63.49,19.21c0-.9-.35-1.39-.2-1.48s1.06.32,1.32,1.11c.41,1.24-.08,1.9-.08,2.54,0,.33.24.34.24.9v1.64a.72.72,0,0,1-.74.71H62.89c-.26,0-.37-.22-.52-.22s-.26.22-.52.22H60.7a.72.72,0,0,1-.74-.71V22.28c0-.56.24-.57.24-.9,0-.63-.49-1.3-.08-2.54.26-.79,1.08-1.24,1.32-1.11s-.22.58-.2,1.48a1.13,1.13,0,1,0,2.24,0Z" transform="translate(-1.27 -1.27)" /><path class="cls-9" d="M63.49,21.12a2.15,2.15,0,0,0,.42-.85,1.76,1.76,0,0,1-.19.88,4.11,4.11,0,0,0-.44.91c-.08.35.65.87.28,1.14s-.89-.53-1.18-.53-.85.76-1.18.53.36-.79.28-1.14a5.31,5.31,0,0,0-.44-.91,2.08,2.08,0,0,1-.19-.88,2.15,2.15,0,0,0,.42.85,1.36,1.36,0,0,0,2.25,0Z" transform="translate(-1.27 -1.27)" /><path class="cls-6" d="M53.14,19.21c0-.9-.35-1.39-.2-1.48S54,18,54.26,18.84c.41,1.24-.08,1.9-.08,2.54,0,.33.24.34.24.9v1.64a.72.72,0,0,1-.74.71H52.54c-.26,0-.37-.22-.52-.22s-.26.22-.52.22H50.35a.72.72,0,0,1-.74-.71V22.28c0-.56.24-.57.24-.9,0-.63-.49-1.3-.08-2.54.26-.79,1.08-1.24,1.32-1.11s-.22.58-.2,1.48a1.13,1.13,0,1,0,2.24,0Z" transform="translate(-1.27 -1.27)" /><path class="cls-7" d="M53.4,18.26a3.51,3.51,0,0,1,.11,1,1.5,1.5,0,1,1-3,0,3.51,3.51,0,0,1,.11-1,1.5,1.5,0,0,0-.51.7,2.71,2.71,0,0,0,0,1.7,3,3,0,0,1,.11.72,1,1,0,0,1-.14.5.7.7,0,0,0-.1.4v1.64a.35.35,0,0,0,.37.34h1.14s0,0,.12-.06a.6.6,0,0,1,.81,0c.07.05.09.06.12.06h1.14a.35.35,0,0,0,.37-.34V22.28a.7.7,0,0,0-.1-.4,1,1,0,0,1-.14-.5,3,3,0,0,1,.11-.72,2.71,2.71,0,0,0,0-1.7A1.5,1.5,0,0,0,53.4,18.26Z" transform="translate(-1.27 -1.27)" /><path class="cls-8" d="M53.14,19.21c0-.9-.35-1.39-.2-1.48S54,18,54.26,18.84c.41,1.24-.08,1.9-.08,2.54,0,.33.24.34.24.9v1.64a.72.72,0,0,1-.74.71H52.54c-.26,0-.37-.22-.52-.22s-.26.22-.52.22H50.35a.72.72,0,0,1-.74-.71V22.28c0-.56.24-.57.24-.9,0-.63-.49-1.3-.08-2.54.26-.79,1.08-1.24,1.32-1.11s-.22.58-.2,1.48a1.13,1.13,0,1,0,2.24,0Z" transform="translate(-1.27 -1.27)" /><path class="cls-9" d="M53.14,21.12a2.15,2.15,0,0,0,.42-.85,1.76,1.76,0,0,1-.19.88,4.11,4.11,0,0,0-.44.91c-.08.35.65.87.28,1.14s-.89-.53-1.18-.53-.85.76-1.18.53.36-.79.28-1.14a5.31,5.31,0,0,0-.44-.91,2.08,2.08,0,0,1-.19-.88,2.15,2.15,0,0,0,.42.85,1.36,1.36,0,0,0,2.25,0Z" transform="translate(-1.27 -1.27)" /></g><g class="cls-10"><path class="cls-11" d="M61.53,17.38a2,2,0,0,1,1.95,1.95V30.77a2,2,0,0,1-1.95,1.95H52.85a2,2,0,0,1-1.95-1.95V19.33a2,2,0,0,1,1.95-1.95h8.68m0-.43H52.85a2.38,2.38,0,0,0-2.38,2.38V30.77a2.38,2.38,0,0,0,2.38,2.38h8.68a2.38,2.38,0,0,0,2.38-2.38V19.33a2.38,2.38,0,0,0-2.38-2.38Z" transform="translate(-1.27 -1.27)" /></g><rect class="cls-4" x="6.82" y="37.57" width="13.45" height="16.21" rx="2.38" ry="2.38" /><g class="cls-15"><path class="cls-6" d="M15.93,52.79c0,.9-.35,1.39-.2,1.48s1.06-.32,1.32-1.11c.41-1.24-.08-1.9-.08-2.54,0-.33.24-.34.24-.9V48.08a.72.72,0,0,0-.74-.71H15.34c-.26,0-.37.22-.52.22s-.26-.22-.52-.22H13.15a.72.72,0,0,0-.74.71v1.64c0,.56.24.57.24.9,0,.63-.49,1.3-.08,2.54.26.79,1.08,1.24,1.32,1.11s-.22-.58-.2-1.48a1.13,1.13,0,1,1,2.24,0Z" transform="translate(-1.27 -1.27)" /><path class="cls-7" d="M16.2,53.74a3.51,3.51,0,0,0,.11-1,1.5,1.5,0,1,0-3,0,3.51,3.51,0,0,0,.11,1,1.5,1.5,0,0,1-.51-.7,2.71,2.71,0,0,1,0-1.7,3,3,0,0,0,.11-.72,1,1,0,0,0-.14-.5.7.7,0,0,1-.1-.4V48.08a.35.35,0,0,1,.37-.34h1.14s0,0,.12.06a.6.6,0,0,0,.81,0c.07-.05.09-.06.12-.06h1.14a.35.35,0,0,1,.37.34v1.64a.7.7,0,0,1-.1.4,1,1,0,0,0-.14.5,3,3,0,0,0,.11.72,2.71,2.71,0,0,1,0,1.7A1.5,1.5,0,0,1,16.2,53.74Z" transform="translate(-1.27 -1.27)" /><path class="cls-8" d="M15.93,52.79c0,.9-.35,1.39-.2,1.48s1.06-.32,1.32-1.11c.41-1.24-.08-1.9-.08-2.54,0-.33.24-.34.24-.9V48.08a.72.72,0,0,0-.74-.71H15.34c-.26,0-.37.22-.52.22s-.26-.22-.52-.22H13.15a.72.72,0,0,0-.74.71v1.64c0,.56.24.57.24.9,0,.63-.49,1.3-.08,2.54.26.79,1.08,1.24,1.32,1.11s-.22-.58-.2-1.48a1.13,1.13,0,1,1,2.24,0Z" transform="translate(-1.27 -1.27)" /><path class="cls-9" d="M15.94,50.88a2.15,2.15,0,0,1,.42.85,1.76,1.76,0,0,0-.19-.88,4.11,4.11,0,0,1-.44-.91c-.08-.35.65-.87.28-1.14s-.89.53-1.18.53-.85-.76-1.18-.53.36.79.28,1.14a5.31,5.31,0,0,1-.44.91,2.08,2.08,0,0,0-.19.88,2.15,2.15,0,0,1,.42-.85,1.36,1.36,0,0,1,2.25,0Z" transform="translate(-1.27 -1.27)" /><path class="cls-6" d="M21.11,52.79c0,.9-.35,1.39-.2,1.48S22,54,22.23,53.16c.41-1.24-.08-1.9-.08-2.54,0-.33.24-.34.24-.9V48.08a.72.72,0,0,0-.74-.71H20.51c-.26,0-.37.22-.52.22s-.26-.22-.52-.22H18.33a.72.72,0,0,0-.74.71v1.64c0,.56.24.57.24.9,0,.63-.49,1.3-.08,2.54.26.79,1.08,1.24,1.32,1.11s-.22-.58-.2-1.48a1.13,1.13,0,1,1,2.24,0Z" transform="translate(-1.27 -1.27)" /><path class="cls-7" d="M21.37,53.74a3.51,3.51,0,0,0,.11-1,1.5,1.5,0,1,0-3,0,3.51,3.51,0,0,0,.11,1,1.5,1.5,0,0,1-.51-.7,2.71,2.71,0,0,1,0-1.7,3,3,0,0,0,.11-.72,1,1,0,0,0-.14-.5.7.7,0,0,1-.1-.4V48.08a.35.35,0,0,1,.37-.34h1.14s0,0,.12.06a.6.6,0,0,0,.81,0c.07-.05.09-.06.12-.06h1.14a.35.35,0,0,1,.37.34v1.64a.7.7,0,0,1-.1.4,1,1,0,0,0-.14.5,3,3,0,0,0,.11.72,2.71,2.71,0,0,1,0,1.7A1.5,1.5,0,0,1,21.37,53.74Z" transform="translate(-1.27 -1.27)" /><path class="cls-8" d="M21.11,52.79c0,.9-.35,1.39-.2,1.48S22,54,22.23,53.16c.41-1.24-.08-1.9-.08-2.54,0-.33.24-.34.24-.9V48.08a.72.72,0,0,0-.74-.71H20.51c-.26,0-.37.22-.52.22s-.26-.22-.52-.22H18.33a.72.72,0,0,0-.74.71v1.64c0,.56.24.57.24.9,0,.63-.49,1.3-.08,2.54.26.79,1.08,1.24,1.32,1.11s-.22-.58-.2-1.48a1.13,1.13,0,1,1,2.24,0Z" transform="translate(-1.27 -1.27)" /><path class="cls-9" d="M21.11,50.88a2.15,2.15,0,0,1,.42.85,1.76,1.76,0,0,0-.19-.88,4.11,4.11,0,0,1-.44-.91c-.08-.35.65-.87.28-1.14s-.89.53-1.18.53-.85-.76-1.18-.53.36.79.28,1.14a5.31,5.31,0,0,1-.44.91,2.08,2.08,0,0,0-.19.88,2.15,2.15,0,0,1,.42-.85,1.36,1.36,0,0,1,2.25,0Z" transform="translate(-1.27 -1.27)" /><path class="cls-6" d="M10.76,52.79c0,.9-.35,1.39-.2,1.48s1.06-.32,1.32-1.11c.41-1.24-.08-1.9-.08-2.54,0-.33.24-.34.24-.9V48.08a.72.72,0,0,0-.74-.71H10.16c-.26,0-.37.22-.52.22s-.26-.22-.52-.22H8a.72.72,0,0,0-.74.71v1.64c0,.56.24.57.24.9,0,.63-.49,1.3-.08,2.54.26.79,1.08,1.24,1.32,1.11s-.22-.58-.2-1.48a1.19,1.19,0,0,1,1.12-1.27A1.19,1.19,0,0,1,10.76,52.79Z" transform="translate(-1.27 -1.27)" /><path class="cls-7" d="M11,53.74a3.51,3.51,0,0,0,.11-1,1.56,1.56,0,0,0-1.49-1.63,1.57,1.57,0,0,0-1.5,1.63,3.51,3.51,0,0,0,.11,1,1.5,1.5,0,0,1-.51-.7,2.71,2.71,0,0,1,0-1.7,3,3,0,0,0,.11-.72,1,1,0,0,0-.14-.5.7.7,0,0,1-.1-.4V48.08A.35.35,0,0,1,8,47.74H9.11s0,0,.12.06a.6.6,0,0,0,.81,0c.07-.05.09-.06.12-.06H11.3a.35.35,0,0,1,.37.34v1.64a.7.7,0,0,1-.1.4,1,1,0,0,0-.14.5,3,3,0,0,0,.11.72,2.71,2.71,0,0,1,0,1.7A1.5,1.5,0,0,1,11,53.74Z" transform="translate(-1.27 -1.27)" /><path class="cls-8" d="M10.76,52.79c0,.9-.35,1.39-.2,1.48s1.06-.32,1.32-1.11c.41-1.24-.08-1.9-.08-2.54,0-.33.24-.34.24-.9V48.08a.72.72,0,0,0-.74-.71H10.16c-.26,0-.37.22-.52.22s-.26-.22-.52-.22H8a.72.72,0,0,0-.74.71v1.64c0,.56.24.57.24.9,0,.63-.49,1.3-.08,2.54.26.79,1.08,1.24,1.32,1.11s-.22-.58-.2-1.48a1.19,1.19,0,0,1,1.12-1.27A1.19,1.19,0,0,1,10.76,52.79Z" transform="translate(-1.27 -1.27)" /><path class="cls-9" d="M10.76,50.88a2.15,2.15,0,0,1,.42.85,1.76,1.76,0,0,0-.19-.88,4.11,4.11,0,0,1-.44-.91c-.08-.35.65-.87.28-1.14s-.89.53-1.18.53-.85-.76-1.18-.53.36.79.28,1.14a5.31,5.31,0,0,1-.44.91,2.08,2.08,0,0,0-.19.88,2.15,2.15,0,0,1,.42-.85,1.36,1.36,0,0,1,2.25,0Z" transform="translate(-1.27 -1.27)" /><path class="cls-6" d="M15.93,41.11c0-.9-.35-1.39-.2-1.48s1.06.32,1.32,1.11c.41,1.24-.08,1.9-.08,2.54,0,.33.24.34.24.9v1.64a.72.72,0,0,1-.74.71H15.34c-.26,0-.37-.22-.52-.22s-.26.22-.52.22H13.15a.72.72,0,0,1-.74-.71V44.18c0-.56.24-.57.24-.9,0-.63-.49-1.3-.08-2.54.26-.79,1.08-1.24,1.32-1.11s-.22.58-.2,1.48a1.13,1.13,0,1,0,2.24,0Z" transform="translate(-1.27 -1.27)" /><path class="cls-7" d="M16.2,40.16a3.51,3.51,0,0,1,.11,1,1.5,1.5,0,1,1-3,0,3.51,3.51,0,0,1,.11-1,1.5,1.5,0,0,0-.51.7,2.71,2.71,0,0,0,0,1.7,3,3,0,0,1,.11.72,1,1,0,0,1-.14.5.7.7,0,0,0-.1.4v1.64a.35.35,0,0,0,.37.34h1.14s0,0,.12-.06a.6.6,0,0,1,.81,0c.07.05.09.06.12.06h1.14a.35.35,0,0,0,.37-.34V44.18a.7.7,0,0,0-.1-.4,1,1,0,0,1-.14-.5,3,3,0,0,1,.11-.72,2.71,2.71,0,0,0,0-1.7A1.5,1.5,0,0,0,16.2,40.16Z" transform="translate(-1.27 -1.27)" /><path class="cls-8" d="M15.93,41.11c0-.9-.35-1.39-.2-1.48s1.06.32,1.32,1.11c.41,1.24-.08,1.9-.08,2.54,0,.33.24.34.24.9v1.64a.72.72,0,0,1-.74.71H15.34c-.26,0-.37-.22-.52-.22s-.26.22-.52.22H13.15a.72.72,0,0,1-.74-.71V44.18c0-.56.24-.57.24-.9,0-.63-.49-1.3-.08-2.54.26-.79,1.08-1.24,1.32-1.11s-.22.58-.2,1.48a1.13,1.13,0,1,0,2.24,0Z" transform="translate(-1.27 -1.27)" /><path class="cls-9" d="M15.94,43a2.15,2.15,0,0,0,.42-.85,1.76,1.76,0,0,1-.19.88,4.11,4.11,0,0,0-.44.91c-.08.35.65.87.28,1.14s-.89-.53-1.18-.53-.85.76-1.18.53.36-.79.28-1.14a5.31,5.31,0,0,0-.44-.91,2.08,2.08,0,0,1-.19-.88,2.15,2.15,0,0,0,.42.85,1.36,1.36,0,0,0,2.25,0Z" transform="translate(-1.27 -1.27)" /><path class="cls-6" d="M21.11,41.11c0-.9-.35-1.39-.2-1.48S22,40,22.23,40.74c.41,1.24-.08,1.9-.08,2.54,0,.33.24.34.24.9v1.64a.72.72,0,0,1-.74.71H20.51c-.26,0-.37-.22-.52-.22s-.26.22-.52.22H18.33a.72.72,0,0,1-.74-.71V44.18c0-.56.24-.57.24-.9,0-.63-.49-1.3-.08-2.54.26-.79,1.08-1.24,1.32-1.11s-.22.58-.2,1.48a1.13,1.13,0,1,0,2.24,0Z" transform="translate(-1.27 -1.27)" /><path class="cls-7" d="M21.37,40.16a3.51,3.51,0,0,1,.11,1,1.5,1.5,0,1,1-3,0,3.51,3.51,0,0,1,.11-1,1.5,1.5,0,0,0-.51.7,2.71,2.71,0,0,0,0,1.7,3,3,0,0,1,.11.72,1,1,0,0,1-.14.5.7.7,0,0,0-.1.4v1.64a.35.35,0,0,0,.37.34h1.14s0,0,.12-.06a.6.6,0,0,1,.81,0c.07.05.09.06.12.06h1.14a.35.35,0,0,0,.37-.34V44.18a.7.7,0,0,0-.1-.4,1,1,0,0,1-.14-.5,3,3,0,0,1,.11-.72,2.71,2.71,0,0,0,0-1.7A1.5,1.5,0,0,0,21.37,40.16Z" transform="translate(-1.27 -1.27)" /><path class="cls-8" d="M21.11,41.11c0-.9-.35-1.39-.2-1.48S22,40,22.23,40.74c.41,1.24-.08,1.9-.08,2.54,0,.33.24.34.24.9v1.64a.72.72,0,0,1-.74.71H20.51c-.26,0-.37-.22-.52-.22s-.26.22-.52.22H18.33a.72.72,0,0,1-.74-.71V44.18c0-.56.24-.57.24-.9,0-.63-.49-1.3-.08-2.54.26-.79,1.08-1.24,1.32-1.11s-.22.58-.2,1.48a1.13,1.13,0,1,0,2.24,0Z" transform="translate(-1.27 -1.27)" /><path class="cls-9" d="M21.11,43a2.15,2.15,0,0,0,.42-.85,1.76,1.76,0,0,1-.19.88,4.11,4.11,0,0,0-.44.91c-.08.35.65.87.28,1.14s-.89-.53-1.18-.53-.85.76-1.18.53.36-.79.28-1.14a5.31,5.31,0,0,0-.44-.91,2.08,2.08,0,0,1-.19-.88,2.15,2.15,0,0,0,.42.85,1.36,1.36,0,0,0,2.25,0Z" transform="translate(-1.27 -1.27)" /><path class="cls-6" d="M10.76,41.11c0-.9-.35-1.39-.2-1.48s1.06.32,1.32,1.11c.41,1.24-.08,1.9-.08,2.54,0,.33.24.34.24.9v1.64a.72.72,0,0,1-.74.71H10.16c-.26,0-.37-.22-.52-.22s-.26.22-.52.22H8a.72.72,0,0,1-.74-.71V44.18c0-.56.24-.57.24-.9,0-.63-.49-1.3-.08-2.54.26-.79,1.08-1.24,1.32-1.11s-.22.58-.2,1.48a1.19,1.19,0,0,0,1.12,1.27A1.19,1.19,0,0,0,10.76,41.11Z" transform="translate(-1.27 -1.27)" /><path class="cls-7" d="M11,40.16a3.51,3.51,0,0,1,.11,1,1.56,1.56,0,0,1-1.49,1.63,1.57,1.57,0,0,1-1.5-1.63,3.51,3.51,0,0,1,.11-1,1.5,1.5,0,0,0-.51.7,2.71,2.71,0,0,0,0,1.7,3,3,0,0,1,.11.72,1,1,0,0,1-.14.5.7.7,0,0,0-.1.4v1.64a.35.35,0,0,0,.37.34H9.11s0,0,.12-.06a.6.6,0,0,1,.81,0c.07.05.09.06.12.06H11.3a.35.35,0,0,0,.37-.34V44.18a.7.7,0,0,0-.1-.4,1,1,0,0,1-.14-.5,3,3,0,0,1,.11-.72,2.71,2.71,0,0,0,0-1.7A1.5,1.5,0,0,0,11,40.16Z" transform="translate(-1.27 -1.27)" /><path class="cls-8" d="M10.76,41.11c0-.9-.35-1.39-.2-1.48s1.06.32,1.32,1.11c.41,1.24-.08,1.9-.08,2.54,0,.33.24.34.24.9v1.64a.72.72,0,0,1-.74.71H10.16c-.26,0-.37-.22-.52-.22s-.26.22-.52.22H8a.72.72,0,0,1-.74-.71V44.18c0-.56.24-.57.24-.9,0-.63-.49-1.3-.08-2.54.26-.79,1.08-1.24,1.32-1.11s-.22.58-.2,1.48a1.19,1.19,0,0,0,1.12,1.27A1.19,1.19,0,0,0,10.76,41.11Z" transform="translate(-1.27 -1.27)" /><path class="cls-9" d="M10.76,43a2.15,2.15,0,0,0,.42-.85,1.76,1.76,0,0,1-.19.88,4.11,4.11,0,0,0-.44.91c-.08.35.65.87.28,1.14s-.89-.53-1.18-.53-.85.76-1.18.53.36-.79.28-1.14a5.31,5.31,0,0,0-.44-.91,2.08,2.08,0,0,1-.19-.88,2.15,2.15,0,0,0,.42.85,1.36,1.36,0,0,0,2.25,0Z" transform="translate(-1.27 -1.27)" /></g><g class="cls-10"><path class="cls-11" d="M19.15,39.28a2,2,0,0,1,1.95,1.95V52.67a2,2,0,0,1-1.95,1.95H10.47a2,2,0,0,1-1.95-1.95V41.23a2,2,0,0,1,1.95-1.95h8.68m0-.43H10.47a2.38,2.38,0,0,0-2.38,2.38V52.67a2.38,2.38,0,0,0,2.38,2.38h8.68a2.38,2.38,0,0,0,2.38-2.38V41.23a2.38,2.38,0,0,0-2.38-2.38Z" transform="translate(-1.27 -1.27)" /></g><rect class="cls-4" x="20.94" y="37.57" width="13.45" height="16.21" rx="2.38" ry="2.38" /><g class="cls-16"><path class="cls-6" d="M30.06,52.79c0,.9-.35,1.39-.2,1.48s1.06-.32,1.32-1.11c.41-1.24-.08-1.9-.08-2.54,0-.33.24-.34.24-.9V48.08a.72.72,0,0,0-.74-.71H29.46c-.26,0-.37.22-.52.22s-.26-.22-.52-.22H27.28a.72.72,0,0,0-.74.71v1.64c0,.56.24.57.24.9,0,.63-.49,1.3-.08,2.54C27,54,27.77,54.4,28,54.27s-.22-.58-.2-1.48a1.13,1.13,0,1,1,2.24,0Z" transform="translate(-1.27 -1.27)" /><path class="cls-7" d="M30.32,53.74a3.51,3.51,0,0,0,.11-1,1.5,1.5,0,1,0-3,0,3.51,3.51,0,0,0,.11,1A1.5,1.5,0,0,1,27,53a2.71,2.71,0,0,1,0-1.7,3,3,0,0,0,.11-.72,1,1,0,0,0-.14-.5.7.7,0,0,1-.1-.4V48.08a.35.35,0,0,1,.37-.34h1.14s0,0,.12.06a.6.6,0,0,0,.81,0c.07-.05.09-.06.12-.06H30.6a.35.35,0,0,1,.37.34v1.64a.7.7,0,0,1-.1.4,1,1,0,0,0-.14.5,3,3,0,0,0,.11.72,2.71,2.71,0,0,1,0,1.7A1.5,1.5,0,0,1,30.32,53.74Z" transform="translate(-1.27 -1.27)" /><path class="cls-8" d="M30.06,52.79c0,.9-.35,1.39-.2,1.48s1.06-.32,1.32-1.11c.41-1.24-.08-1.9-.08-2.54,0-.33.24-.34.24-.9V48.08a.72.72,0,0,0-.74-.71H29.46c-.26,0-.37.22-.52.22s-.26-.22-.52-.22H27.28a.72.72,0,0,0-.74.71v1.64c0,.56.24.57.24.9,0,.63-.49,1.3-.08,2.54C27,54,27.77,54.4,28,54.27s-.22-.58-.2-1.48a1.13,1.13,0,1,1,2.24,0Z" transform="translate(-1.27 -1.27)" /><path class="cls-9" d="M30.06,50.88a2.15,2.15,0,0,1,.42.85,1.76,1.76,0,0,0-.19-.88,4.11,4.11,0,0,1-.44-.91c-.08-.35.65-.87.28-1.14s-.89.53-1.18.53-.85-.76-1.18-.53.36.79.28,1.14a5.31,5.31,0,0,1-.44.91,2.08,2.08,0,0,0-.19.88,2.15,2.15,0,0,1,.42-.85,1.36,1.36,0,0,1,2.25,0Z" transform="translate(-1.27 -1.27)" /><path class="cls-6" d="M35.23,52.79c0,.9-.35,1.39-.2,1.48s1.06-.32,1.32-1.11c.41-1.24-.08-1.9-.08-2.54,0-.33.24-.34.24-.9V48.08a.72.72,0,0,0-.74-.71H34.64c-.26,0-.37.22-.52.22s-.26-.22-.52-.22H32.45a.72.72,0,0,0-.74.71v1.64c0,.56.24.57.24.9,0,.63-.49,1.3-.08,2.54.26.79,1.08,1.24,1.32,1.11s-.22-.58-.2-1.48a1.13,1.13,0,1,1,2.24,0Z" transform="translate(-1.27 -1.27)" /><path class="cls-7" d="M35.5,53.74a3.51,3.51,0,0,0,.11-1,1.5,1.5,0,1,0-3,0,3.51,3.51,0,0,0,.11,1,1.5,1.5,0,0,1-.51-.7,2.71,2.71,0,0,1,0-1.7,3,3,0,0,0,.11-.72,1,1,0,0,0-.14-.5.7.7,0,0,1-.1-.4V48.08a.35.35,0,0,1,.37-.34h1.14s0,0,.12.06a.6.6,0,0,0,.81,0c.07-.05.09-.06.12-.06h1.14a.35.35,0,0,1,.37.34v1.64a.7.7,0,0,1-.1.4,1,1,0,0,0-.14.5,3,3,0,0,0,.11.72A2.71,2.71,0,0,1,36,53,1.5,1.5,0,0,1,35.5,53.74Z" transform="translate(-1.27 -1.27)" /><path class="cls-8" d="M35.23,52.79c0,.9-.35,1.39-.2,1.48s1.06-.32,1.32-1.11c.41-1.24-.08-1.9-.08-2.54,0-.33.24-.34.24-.9V48.08a.72.72,0,0,0-.74-.71H34.64c-.26,0-.37.22-.52.22s-.26-.22-.52-.22H32.45a.72.72,0,0,0-.74.71v1.64c0,.56.24.57.24.9,0,.63-.49,1.3-.08,2.54.26.79,1.08,1.24,1.32,1.11s-.22-.58-.2-1.48a1.13,1.13,0,1,1,2.24,0Z" transform="translate(-1.27 -1.27)" /><path class="cls-9" d="M35.24,50.88a2.15,2.15,0,0,1,.42.85,1.76,1.76,0,0,0-.19-.88,4.11,4.11,0,0,1-.44-.91c-.08-.35.65-.87.28-1.14s-.89.53-1.18.53-.85-.76-1.18-.53.36.79.28,1.14a5.31,5.31,0,0,1-.44.91,2.08,2.08,0,0,0-.19.88,2.15,2.15,0,0,1,.42-.85,1.36,1.36,0,0,1,2.25,0Z" transform="translate(-1.27 -1.27)" /><path class="cls-6" d="M24.88,52.79c0,.9-.35,1.39-.2,1.48S25.74,54,26,53.16c.41-1.24-.08-1.9-.08-2.54,0-.33.24-.34.24-.9V48.08a.72.72,0,0,0-.74-.71H24.29c-.26,0-.37.22-.52.22s-.26-.22-.52-.22H22.1a.72.72,0,0,0-.74.71v1.64c0,.56.24.57.24.9,0,.63-.49,1.3-.08,2.54.26.79,1.08,1.24,1.32,1.11s-.22-.58-.2-1.48a1.13,1.13,0,1,1,2.24,0Z" transform="translate(-1.27 -1.27)" /><path class="cls-7" d="M25.15,53.74a3.51,3.51,0,0,0,.11-1,1.5,1.5,0,1,0-3,0,3.51,3.51,0,0,0,.11,1,1.5,1.5,0,0,1-.51-.7,2.71,2.71,0,0,1,0-1.7,3,3,0,0,0,.11-.72,1,1,0,0,0-.14-.5.7.7,0,0,1-.1-.4V48.08a.35.35,0,0,1,.37-.34h1.14s0,0,.12.06a.6.6,0,0,0,.81,0c.07-.05.09-.06.12-.06h1.14a.35.35,0,0,1,.37.34v1.64a.7.7,0,0,1-.1.4,1,1,0,0,0-.14.5,3,3,0,0,0,.11.72,2.71,2.71,0,0,1,0,1.7A1.5,1.5,0,0,1,25.15,53.74Z" transform="translate(-1.27 -1.27)" /><path class="cls-8" d="M24.88,52.79c0,.9-.35,1.39-.2,1.48S25.74,54,26,53.16c.41-1.24-.08-1.9-.08-2.54,0-.33.24-.34.24-.9V48.08a.72.72,0,0,0-.74-.71H24.29c-.26,0-.37.22-.52.22s-.26-.22-.52-.22H22.1a.72.72,0,0,0-.74.71v1.64c0,.56.24.57.24.9,0,.63-.49,1.3-.08,2.54.26.79,1.08,1.24,1.32,1.11s-.22-.58-.2-1.48a1.13,1.13,0,1,1,2.24,0Z" transform="translate(-1.27 -1.27)" /><path class="cls-9" d="M24.89,50.88a2.15,2.15,0,0,1,.42.85,1.76,1.76,0,0,0-.19-.88,4.11,4.11,0,0,1-.44-.91c-.08-.35.65-.87.28-1.14s-.89.53-1.18.53-.85-.76-1.18-.53.36.79.28,1.14a5.31,5.31,0,0,1-.44.91,2.08,2.08,0,0,0-.19.88,2.15,2.15,0,0,1,.42-.85,1.36,1.36,0,0,1,2.25,0Z" transform="translate(-1.27 -1.27)" /><path class="cls-6" d="M30.06,41.11c0-.9-.35-1.39-.2-1.48s1.06.32,1.32,1.11c.41,1.24-.08,1.9-.08,2.54,0,.33.24.34.24.9v1.64a.72.72,0,0,1-.74.71H29.46c-.26,0-.37-.22-.52-.22s-.26.22-.52.22H27.28a.72.72,0,0,1-.74-.71V44.18c0-.56.24-.57.24-.9,0-.63-.49-1.3-.08-2.54C27,40,27.77,39.5,28,39.63s-.22.58-.2,1.48a1.13,1.13,0,1,0,2.24,0Z" transform="translate(-1.27 -1.27)" /><path class="cls-7" d="M30.32,40.16a3.51,3.51,0,0,1,.11,1,1.5,1.5,0,1,1-3,0,3.51,3.51,0,0,1,.11-1,1.5,1.5,0,0,0-.51.7,2.71,2.71,0,0,0,0,1.7,3,3,0,0,1,.11.72,1,1,0,0,1-.14.5.7.7,0,0,0-.1.4v1.64a.35.35,0,0,0,.37.34h1.14s0,0,.12-.06a.6.6,0,0,1,.81,0c.07.05.09.06.12.06H30.6a.35.35,0,0,0,.37-.34V44.18a.7.7,0,0,0-.1-.4,1,1,0,0,1-.14-.5,3,3,0,0,1,.11-.72,2.71,2.71,0,0,0,0-1.7A1.5,1.5,0,0,0,30.32,40.16Z" transform="translate(-1.27 -1.27)" /><path class="cls-8" d="M30.06,41.11c0-.9-.35-1.39-.2-1.48s1.06.32,1.32,1.11c.41,1.24-.08,1.9-.08,2.54,0,.33.24.34.24.9v1.64a.72.72,0,0,1-.74.71H29.46c-.26,0-.37-.22-.52-.22s-.26.22-.52.22H27.28a.72.72,0,0,1-.74-.71V44.18c0-.56.24-.57.24-.9,0-.63-.49-1.3-.08-2.54C27,40,27.77,39.5,28,39.63s-.22.58-.2,1.48a1.13,1.13,0,1,0,2.24,0Z" transform="translate(-1.27 -1.27)" /><path class="cls-9" d="M30.06,43a2.15,2.15,0,0,0,.42-.85,1.76,1.76,0,0,1-.19.88,4.11,4.11,0,0,0-.44.91c-.08.35.65.87.28,1.14s-.89-.53-1.18-.53-.85.76-1.18.53.36-.79.28-1.14a5.31,5.31,0,0,0-.44-.91,2.08,2.08,0,0,1-.19-.88,2.15,2.15,0,0,0,.42.85,1.36,1.36,0,0,0,2.25,0Z" transform="translate(-1.27 -1.27)" /><path class="cls-6" d="M35.23,41.11c0-.9-.35-1.39-.2-1.48s1.06.32,1.32,1.11c.41,1.24-.08,1.9-.08,2.54,0,.33.24.34.24.9v1.64a.72.72,0,0,1-.74.71H34.64c-.26,0-.37-.22-.52-.22s-.26.22-.52.22H32.45a.72.72,0,0,1-.74-.71V44.18c0-.56.24-.57.24-.9,0-.63-.49-1.3-.08-2.54.26-.79,1.08-1.24,1.32-1.11s-.22.58-.2,1.48a1.13,1.13,0,1,0,2.24,0Z" transform="translate(-1.27 -1.27)" /><path class="cls-7" d="M35.5,40.16a3.51,3.51,0,0,1,.11,1,1.5,1.5,0,1,1-3,0,3.51,3.51,0,0,1,.11-1,1.5,1.5,0,0,0-.51.7,2.71,2.71,0,0,0,0,1.7,3,3,0,0,1,.11.72,1,1,0,0,1-.14.5.7.7,0,0,0-.1.4v1.64a.35.35,0,0,0,.37.34h1.14s0,0,.12-.06a.6.6,0,0,1,.81,0c.07.05.09.06.12.06h1.14a.35.35,0,0,0,.37-.34V44.18a.7.7,0,0,0-.1-.4,1,1,0,0,1-.14-.5,3,3,0,0,1,.11-.72,2.71,2.71,0,0,0,0-1.7A1.5,1.5,0,0,0,35.5,40.16Z" transform="translate(-1.27 -1.27)" /><path class="cls-8" d="M35.23,41.11c0-.9-.35-1.39-.2-1.48s1.06.32,1.32,1.11c.41,1.24-.08,1.9-.08,2.54,0,.33.24.34.24.9v1.64a.72.72,0,0,1-.74.71H34.64c-.26,0-.37-.22-.52-.22s-.26.22-.52.22H32.45a.72.72,0,0,1-.74-.71V44.18c0-.56.24-.57.24-.9,0-.63-.49-1.3-.08-2.54.26-.79,1.08-1.24,1.32-1.11s-.22.58-.2,1.48a1.13,1.13,0,1,0,2.24,0Z" transform="translate(-1.27 -1.27)" /><path class="cls-9" d="M35.24,43a2.15,2.15,0,0,0,.42-.85,1.76,1.76,0,0,1-.19.88A4.11,4.11,0,0,0,35,44c-.08.35.65.87.28,1.14s-.89-.53-1.18-.53-.85.76-1.18.53.36-.79.28-1.14a5.31,5.31,0,0,0-.44-.91,2.08,2.08,0,0,1-.19-.88A2.15,2.15,0,0,0,33,43a1.36,1.36,0,0,0,2.25,0Z" transform="translate(-1.27 -1.27)" /><path class="cls-6" d="M24.88,41.11c0-.9-.35-1.39-.2-1.48S25.74,40,26,40.74c.41,1.24-.08,1.9-.08,2.54,0,.33.24.34.24.9v1.64a.72.72,0,0,1-.74.71H24.29c-.26,0-.37-.22-.52-.22s-.26.22-.52.22H22.1a.72.72,0,0,1-.74-.71V44.18c0-.56.24-.57.24-.9,0-.63-.49-1.3-.08-2.54.26-.79,1.08-1.24,1.32-1.11s-.22.58-.2,1.48a1.13,1.13,0,1,0,2.24,0Z" transform="translate(-1.27 -1.27)" /><path class="cls-7" d="M25.15,40.16a3.51,3.51,0,0,1,.11,1,1.5,1.5,0,1,1-3,0,3.51,3.51,0,0,1,.11-1,1.5,1.5,0,0,0-.51.7,2.71,2.71,0,0,0,0,1.7,3,3,0,0,1,.11.72,1,1,0,0,1-.14.5.7.7,0,0,0-.1.4v1.64a.35.35,0,0,0,.37.34h1.14s0,0,.12-.06a.6.6,0,0,1,.81,0c.07.05.09.06.12.06h1.14a.35.35,0,0,0,.37-.34V44.18a.7.7,0,0,0-.1-.4,1,1,0,0,1-.14-.5,3,3,0,0,1,.11-.72,2.71,2.71,0,0,0,0-1.7A1.5,1.5,0,0,0,25.15,40.16Z" transform="translate(-1.27 -1.27)" /><path class="cls-8" d="M24.88,41.11c0-.9-.35-1.39-.2-1.48S25.74,40,26,40.74c.41,1.24-.08,1.9-.08,2.54,0,.33.24.34.24.9v1.64a.72.72,0,0,1-.74.71H24.29c-.26,0-.37-.22-.52-.22s-.26.22-.52.22H22.1a.72.72,0,0,1-.74-.71V44.18c0-.56.24-.57.24-.9,0-.63-.49-1.3-.08-2.54.26-.79,1.08-1.24,1.32-1.11s-.22.58-.2,1.48a1.13,1.13,0,1,0,2.24,0Z" transform="translate(-1.27 -1.27)" /><path class="cls-9" d="M24.89,43a2.15,2.15,0,0,0,.42-.85,1.76,1.76,0,0,1-.19.88,4.11,4.11,0,0,0-.44.91c-.08.35.65.87.28,1.14s-.89-.53-1.18-.53-.85.76-1.18.53.36-.79.28-1.14a5.31,5.31,0,0,0-.44-.91,2.08,2.08,0,0,1-.19-.88,2.15,2.15,0,0,0,.42.85,1.36,1.36,0,0,0,2.25,0Z" transform="translate(-1.27 -1.27)" /></g><g class="cls-10"><path class="cls-11" d="M33.28,39.28a2,2,0,0,1,1.95,1.95V52.67a2,2,0,0,1-1.95,1.95H24.6a2,2,0,0,1-1.95-1.95V41.23a2,2,0,0,1,1.95-1.95h8.68m0-.43H24.6a2.38,2.38,0,0,0-2.38,2.38V52.67a2.38,2.38,0,0,0,2.38,2.38h8.68a2.38,2.38,0,0,0,2.38-2.38V41.23a2.38,2.38,0,0,0-2.38-2.38Z" transform="translate(-1.27 -1.27)" /></g><rect class="cls-4" x="35.07" y="37.57" width="13.45" height="16.21" rx="2.38" ry="2.38" /><g class="cls-17"><path class="cls-6" d="M44.18,52.79c0,.9-.35,1.39-.2,1.48S45,54,45.31,53.16c.41-1.24-.08-1.9-.08-2.54,0-.33.24-.34.24-.9V48.08a.72.72,0,0,0-.74-.71H43.59c-.26,0-.37.22-.52.22s-.26-.22-.52-.22H41.4a.72.72,0,0,0-.74.71v1.64c0,.56.24.57.24.9,0,.63-.49,1.3-.08,2.54.26.79,1.08,1.24,1.32,1.11s-.22-.58-.2-1.48a1.13,1.13,0,1,1,2.24,0Z" transform="translate(-1.27 -1.27)" /><path class="cls-7" d="M44.45,53.74a3.51,3.51,0,0,0,.11-1,1.5,1.5,0,1,0-3,0,3.51,3.51,0,0,0,.11,1,1.5,1.5,0,0,1-.51-.7,2.71,2.71,0,0,1,0-1.7,3,3,0,0,0,.11-.72,1,1,0,0,0-.14-.5.7.7,0,0,1-.1-.4V48.08a.35.35,0,0,1,.37-.34h1.14s0,0,.12.06a.6.6,0,0,0,.81,0c.07-.05.09-.06.12-.06h1.14a.35.35,0,0,1,.37.34v1.64a.7.7,0,0,1-.1.4,1,1,0,0,0-.14.5,3,3,0,0,0,.11.72A2.71,2.71,0,0,1,45,53,1.5,1.5,0,0,1,44.45,53.74Z" transform="translate(-1.27 -1.27)" /><path class="cls-8" d="M44.18,52.79c0,.9-.35,1.39-.2,1.48S45,54,45.31,53.16c.41-1.24-.08-1.9-.08-2.54,0-.33.24-.34.24-.9V48.08a.72.72,0,0,0-.74-.71H43.59c-.26,0-.37.22-.52.22s-.26-.22-.52-.22H41.4a.72.72,0,0,0-.74.71v1.64c0,.56.24.57.24.9,0,.63-.49,1.3-.08,2.54.26.79,1.08,1.24,1.32,1.11s-.22-.58-.2-1.48a1.13,1.13,0,1,1,2.24,0Z" transform="translate(-1.27 -1.27)" /><path class="cls-9" d="M44.19,50.88a2.15,2.15,0,0,1,.42.85,1.76,1.76,0,0,0-.19-.88,4.11,4.11,0,0,1-.44-.91c-.08-.35.65-.87.28-1.14s-.89.53-1.18.53-.85-.76-1.18-.53.36.79.28,1.14a5.31,5.31,0,0,1-.44.91,2.08,2.08,0,0,0-.19.88,2.15,2.15,0,0,1,.42-.85,1.36,1.36,0,0,1,2.25,0Z" transform="translate(-1.27 -1.27)" /><path class="cls-6" d="M49.36,52.79c0,.9-.35,1.39-.2,1.48s1.06-.32,1.32-1.11c.41-1.24-.08-1.9-.08-2.54,0-.33.24-.34.24-.9V48.08a.72.72,0,0,0-.74-.71H48.76c-.26,0-.37.22-.52.22s-.26-.22-.52-.22H46.58a.72.72,0,0,0-.74.71v1.64c0,.56.24.57.24.9,0,.63-.49,1.3-.08,2.54.26.79,1.08,1.24,1.32,1.11s-.22-.58-.2-1.48a1.13,1.13,0,1,1,2.24,0Z" transform="translate(-1.27 -1.27)" /><path class="cls-7" d="M49.62,53.74a3.51,3.51,0,0,0,.11-1,1.5,1.5,0,1,0-3,0,3.51,3.51,0,0,0,.11,1,1.5,1.5,0,0,1-.51-.7,2.71,2.71,0,0,1,0-1.7,3,3,0,0,0,.11-.72,1,1,0,0,0-.14-.5.7.7,0,0,1-.1-.4V48.08a.35.35,0,0,1,.37-.34h1.14s0,0,.12.06a.6.6,0,0,0,.81,0c.07-.05.09-.06.12-.06H49.9a.35.35,0,0,1,.37.34v1.64a.7.7,0,0,1-.1.4,1,1,0,0,0-.14.5,3,3,0,0,0,.11.72,2.71,2.71,0,0,1,0,1.7A1.5,1.5,0,0,1,49.62,53.74Z" transform="translate(-1.27 -1.27)" /><path class="cls-8" d="M49.36,52.79c0,.9-.35,1.39-.2,1.48s1.06-.32,1.32-1.11c.41-1.24-.08-1.9-.08-2.54,0-.33.24-.34.24-.9V48.08a.72.72,0,0,0-.74-.71H48.76c-.26,0-.37.22-.52.22s-.26-.22-.52-.22H46.58a.72.72,0,0,0-.74.71v1.64c0,.56.24.57.24.9,0,.63-.49,1.3-.08,2.54.26.79,1.08,1.24,1.32,1.11s-.22-.58-.2-1.48a1.13,1.13,0,1,1,2.24,0Z" transform="translate(-1.27 -1.27)" /><path class="cls-9" d="M49.36,50.88a2.15,2.15,0,0,1,.42.85,1.76,1.76,0,0,0-.19-.88,4.11,4.11,0,0,1-.44-.91c-.08-.35.65-.87.28-1.14s-.89.53-1.18.53-.85-.76-1.18-.53.36.79.28,1.14a5.31,5.31,0,0,1-.44.91,2.08,2.08,0,0,0-.19.88,2.15,2.15,0,0,1,.42-.85,1.36,1.36,0,0,1,2.25,0Z" transform="translate(-1.27 -1.27)" /><path class="cls-6" d="M39,52.79c0,.9-.35,1.39-.2,1.48s1.06-.32,1.32-1.11c.41-1.24-.08-1.9-.08-2.54,0-.33.24-.34.24-.9V48.08a.72.72,0,0,0-.74-.71H38.41c-.26,0-.37.22-.52.22s-.26-.22-.52-.22H36.23a.72.72,0,0,0-.74.71v1.64c0,.56.24.57.24.9,0,.63-.49,1.3-.08,2.54.26.79,1.08,1.24,1.32,1.11s-.22-.58-.2-1.48a1.13,1.13,0,1,1,2.24,0Z" transform="translate(-1.27 -1.27)" /><path class="cls-7" d="M39.28,53.74a3.51,3.51,0,0,0,.11-1,1.5,1.5,0,1,0-3,0,3.51,3.51,0,0,0,.11,1A1.5,1.5,0,0,1,36,53a2.71,2.71,0,0,1,0-1.7,3,3,0,0,0,.11-.72,1,1,0,0,0-.14-.5.7.7,0,0,1-.1-.4V48.08a.35.35,0,0,1,.37-.34h1.14s0,0,.12.06a.6.6,0,0,0,.81,0c.07-.05.09-.06.12-.06h1.14a.35.35,0,0,1,.37.34v1.64a.7.7,0,0,1-.1.4,1,1,0,0,0-.14.5,3,3,0,0,0,.11.72,2.71,2.71,0,0,1,0,1.7A1.5,1.5,0,0,1,39.28,53.74Z" transform="translate(-1.27 -1.27)" /><path class="cls-8" d="M39,52.79c0,.9-.35,1.39-.2,1.48s1.06-.32,1.32-1.11c.41-1.24-.08-1.9-.08-2.54,0-.33.24-.34.24-.9V48.08a.72.72,0,0,0-.74-.71H38.41c-.26,0-.37.22-.52.22s-.26-.22-.52-.22H36.23a.72.72,0,0,0-.74.71v1.64c0,.56.24.57.24.9,0,.63-.49,1.3-.08,2.54.26.79,1.08,1.24,1.32,1.11s-.22-.58-.2-1.48a1.13,1.13,0,1,1,2.24,0Z" transform="translate(-1.27 -1.27)" /><path class="cls-9" d="M39,50.88a2.15,2.15,0,0,1,.42.85,1.76,1.76,0,0,0-.19-.88,4.11,4.11,0,0,1-.44-.91c-.08-.35.65-.87.28-1.14s-.89.53-1.18.53-.85-.76-1.18-.53.36.79.28,1.14a5.31,5.31,0,0,1-.44.91,2.08,2.08,0,0,0-.19.88,2.15,2.15,0,0,1,.42-.85,1.36,1.36,0,0,1,2.25,0Z" transform="translate(-1.27 -1.27)" /><path class="cls-6" d="M44.18,41.11c0-.9-.35-1.39-.2-1.48S45,40,45.31,40.74c.41,1.24-.08,1.9-.08,2.54,0,.33.24.34.24.9v1.64a.72.72,0,0,1-.74.71H43.59c-.26,0-.37-.22-.52-.22s-.26.22-.52.22H41.4a.72.72,0,0,1-.74-.71V44.18c0-.56.24-.57.24-.9,0-.63-.49-1.3-.08-2.54.26-.79,1.08-1.24,1.32-1.11s-.22.58-.2,1.48a1.13,1.13,0,1,0,2.24,0Z" transform="translate(-1.27 -1.27)" /><path class="cls-7" d="M44.45,40.16a3.51,3.51,0,0,1,.11,1,1.5,1.5,0,1,1-3,0,3.51,3.51,0,0,1,.11-1,1.5,1.5,0,0,0-.51.7,2.71,2.71,0,0,0,0,1.7,3,3,0,0,1,.11.72,1,1,0,0,1-.14.5.7.7,0,0,0-.1.4v1.64a.35.35,0,0,0,.37.34h1.14s0,0,.12-.06a.6.6,0,0,1,.81,0c.07.05.09.06.12.06h1.14a.35.35,0,0,0,.37-.34V44.18a.7.7,0,0,0-.1-.4,1,1,0,0,1-.14-.5,3,3,0,0,1,.11-.72,2.71,2.71,0,0,0,0-1.7A1.5,1.5,0,0,0,44.45,40.16Z" transform="translate(-1.27 -1.27)" /><path class="cls-8" d="M44.18,41.11c0-.9-.35-1.39-.2-1.48S45,40,45.31,40.74c.41,1.24-.08,1.9-.08,2.54,0,.33.24.34.24.9v1.64a.72.72,0,0,1-.74.71H43.59c-.26,0-.37-.22-.52-.22s-.26.22-.52.22H41.4a.72.72,0,0,1-.74-.71V44.18c0-.56.24-.57.24-.9,0-.63-.49-1.3-.08-2.54.26-.79,1.08-1.24,1.32-1.11s-.22.58-.2,1.48a1.13,1.13,0,1,0,2.24,0Z" transform="translate(-1.27 -1.27)" /><path class="cls-9" d="M44.19,43a2.15,2.15,0,0,0,.42-.85,1.76,1.76,0,0,1-.19.88A4.11,4.11,0,0,0,44,44c-.08.35.65.87.28,1.14s-.89-.53-1.18-.53-.85.76-1.18.53.36-.79.28-1.14a5.31,5.31,0,0,0-.44-.91,2.08,2.08,0,0,1-.19-.88,2.15,2.15,0,0,0,.42.85,1.36,1.36,0,0,0,2.25,0Z" transform="translate(-1.27 -1.27)" /><path class="cls-6" d="M49.36,41.11c0-.9-.35-1.39-.2-1.48s1.06.32,1.32,1.11c.41,1.24-.08,1.9-.08,2.54,0,.33.24.34.24.9v1.64a.72.72,0,0,1-.74.71H48.76c-.26,0-.37-.22-.52-.22s-.26.22-.52.22H46.58a.72.72,0,0,1-.74-.71V44.18c0-.56.24-.57.24-.9,0-.63-.49-1.3-.08-2.54.26-.79,1.08-1.24,1.32-1.11s-.22.58-.2,1.48a1.13,1.13,0,1,0,2.24,0Z" transform="translate(-1.27 -1.27)" /><path class="cls-7" d="M49.62,40.16a3.51,3.51,0,0,1,.11,1,1.5,1.5,0,1,1-3,0,3.51,3.51,0,0,1,.11-1,1.5,1.5,0,0,0-.51.7,2.71,2.71,0,0,0,0,1.7,3,3,0,0,1,.11.72,1,1,0,0,1-.14.5.7.7,0,0,0-.1.4v1.64a.35.35,0,0,0,.37.34h1.14s0,0,.12-.06a.6.6,0,0,1,.81,0c.07.05.09.06.12.06H49.9a.35.35,0,0,0,.37-.34V44.18a.7.7,0,0,0-.1-.4,1,1,0,0,1-.14-.5,3,3,0,0,1,.11-.72,2.71,2.71,0,0,0,0-1.7A1.5,1.5,0,0,0,49.62,40.16Z" transform="translate(-1.27 -1.27)" /><path class="cls-8" d="M49.36,41.11c0-.9-.35-1.39-.2-1.48s1.06.32,1.32,1.11c.41,1.24-.08,1.9-.08,2.54,0,.33.24.34.24.9v1.64a.72.72,0,0,1-.74.71H48.76c-.26,0-.37-.22-.52-.22s-.26.22-.52.22H46.58a.72.72,0,0,1-.74-.71V44.18c0-.56.24-.57.24-.9,0-.63-.49-1.3-.08-2.54.26-.79,1.08-1.24,1.32-1.11s-.22.58-.2,1.48a1.13,1.13,0,1,0,2.24,0Z" transform="translate(-1.27 -1.27)" /><path class="cls-9" d="M49.36,43a2.15,2.15,0,0,0,.42-.85,1.76,1.76,0,0,1-.19.88,4.11,4.11,0,0,0-.44.91c-.08.35.65.87.28,1.14s-.89-.53-1.18-.53-.85.76-1.18.53.36-.79.28-1.14a5.31,5.31,0,0,0-.44-.91,2.08,2.08,0,0,1-.19-.88,2.15,2.15,0,0,0,.42.85,1.36,1.36,0,0,0,2.25,0Z" transform="translate(-1.27 -1.27)" /><path class="cls-6" d="M39,41.11c0-.9-.35-1.39-.2-1.48s1.06.32,1.32,1.11c.41,1.24-.08,1.9-.08,2.54,0,.33.24.34.24.9v1.64a.72.72,0,0,1-.74.71H38.41c-.26,0-.37-.22-.52-.22s-.26.22-.52.22H36.23a.72.72,0,0,1-.74-.71V44.18c0-.56.24-.57.24-.9,0-.63-.49-1.3-.08-2.54.26-.79,1.08-1.24,1.32-1.11s-.22.58-.2,1.48a1.13,1.13,0,1,0,2.24,0Z" transform="translate(-1.27 -1.27)" /><path class="cls-7" d="M39.28,40.16a3.51,3.51,0,0,1,.11,1,1.5,1.5,0,1,1-3,0,3.51,3.51,0,0,1,.11-1,1.5,1.5,0,0,0-.51.7,2.71,2.71,0,0,0,0,1.7,3,3,0,0,1,.11.72,1,1,0,0,1-.14.5.7.7,0,0,0-.1.4v1.64a.35.35,0,0,0,.37.34h1.14s0,0,.12-.06a.6.6,0,0,1,.81,0c.07.05.09.06.12.06h1.14a.35.35,0,0,0,.37-.34V44.18a.7.7,0,0,0-.1-.4,1,1,0,0,1-.14-.5,3,3,0,0,1,.11-.72,2.71,2.71,0,0,0,0-1.7A1.5,1.5,0,0,0,39.28,40.16Z" transform="translate(-1.27 -1.27)" /><path class="cls-8" d="M39,41.11c0-.9-.35-1.39-.2-1.48s1.06.32,1.32,1.11c.41,1.24-.08,1.9-.08,2.54,0,.33.24.34.24.9v1.64a.72.72,0,0,1-.74.71H38.41c-.26,0-.37-.22-.52-.22s-.26.22-.52.22H36.23a.72.72,0,0,1-.74-.71V44.18c0-.56.24-.57.24-.9,0-.63-.49-1.3-.08-2.54.26-.79,1.08-1.24,1.32-1.11s-.22.58-.2,1.48a1.13,1.13,0,1,0,2.24,0Z" transform="translate(-1.27 -1.27)" /><path class="cls-9" d="M39,43a2.15,2.15,0,0,0,.42-.85,1.76,1.76,0,0,1-.19.88,4.11,4.11,0,0,0-.44.91c-.08.35.65.87.28,1.14s-.89-.53-1.18-.53-.85.76-1.18.53.36-.79.28-1.14a5.31,5.31,0,0,0-.44-.91,2.08,2.08,0,0,1-.19-.88,2.15,2.15,0,0,0,.42.85A1.36,1.36,0,0,0,39,43Z" transform="translate(-1.27 -1.27)" /></g><g class="cls-10"><path class="cls-11" d="M47.4,39.28a2,2,0,0,1,1.95,1.95V52.67a2,2,0,0,1-1.95,1.95H38.72a2,2,0,0,1-1.95-1.95V41.23a2,2,0,0,1,1.95-1.95H47.4m0-.43H38.72a2.38,2.38,0,0,0-2.38,2.38V52.67a2.38,2.38,0,0,0,2.38,2.38H47.4a2.38,2.38,0,0,0,2.38-2.38V41.23a2.38,2.38,0,0,0-2.38-2.38Z" transform="translate(-1.27 -1.27)" /></g><rect class="cls-4" x="49.19" y="37.57" width="13.45" height="16.21" rx="2.38" ry="2.38" /><g class="cls-18"><path class="cls-6" d="M58.31,52.79c0,.9-.35,1.39-.2,1.48s1.06-.32,1.32-1.11c.41-1.24-.08-1.9-.08-2.54,0-.33.24-.34.24-.9V48.08a.72.72,0,0,0-.74-.71H57.71c-.26,0-.37.22-.52.22s-.26-.22-.52-.22H55.53a.72.72,0,0,0-.74.71v1.64c0,.56.24.57.24.9,0,.63-.49,1.3-.08,2.54.26.79,1.08,1.24,1.32,1.11s-.22-.58-.2-1.48a1.13,1.13,0,1,1,2.24,0Z" transform="translate(-1.27 -1.27)" /><path class="cls-7" d="M58.58,53.74a3.51,3.51,0,0,0,.11-1,1.5,1.5,0,1,0-3,0,3.51,3.51,0,0,0,.11,1,1.5,1.5,0,0,1-.51-.7,2.71,2.71,0,0,1,0-1.7,3,3,0,0,0,.11-.72,1,1,0,0,0-.14-.5.7.7,0,0,1-.1-.4V48.08a.35.35,0,0,1,.37-.34h1.14s0,0,.12.06a.6.6,0,0,0,.81,0c.07-.05.09-.06.12-.06h1.14a.35.35,0,0,1,.37.34v1.64a.7.7,0,0,1-.1.4,1,1,0,0,0-.14.5,3,3,0,0,0,.11.72,2.71,2.71,0,0,1,0,1.7A1.5,1.5,0,0,1,58.58,53.74Z" transform="translate(-1.27 -1.27)" /><path class="cls-8" d="M58.31,52.79c0,.9-.35,1.39-.2,1.48s1.06-.32,1.32-1.11c.41-1.24-.08-1.9-.08-2.54,0-.33.24-.34.24-.9V48.08a.72.72,0,0,0-.74-.71H57.71c-.26,0-.37.22-.52.22s-.26-.22-.52-.22H55.53a.72.72,0,0,0-.74.71v1.64c0,.56.24.57.24.9,0,.63-.49,1.3-.08,2.54.26.79,1.08,1.24,1.32,1.11s-.22-.58-.2-1.48a1.13,1.13,0,1,1,2.24,0Z" transform="translate(-1.27 -1.27)" /><path class="cls-9" d="M58.31,50.88a2.15,2.15,0,0,1,.42.85,1.76,1.76,0,0,0-.19-.88,4.11,4.11,0,0,1-.44-.91c-.08-.35.65-.87.28-1.14s-.89.53-1.18.53-.85-.76-1.18-.53.36.79.28,1.14a5.31,5.31,0,0,1-.44.91,2.08,2.08,0,0,0-.19.88,2.15,2.15,0,0,1,.42-.85,1.36,1.36,0,0,1,2.25,0Z" transform="translate(-1.27 -1.27)" /><path class="cls-6" d="M63.49,52.79c0,.9-.35,1.39-.2,1.48s1.06-.32,1.32-1.11c.41-1.24-.08-1.9-.08-2.54,0-.33.24-.34.24-.9V48.08a.72.72,0,0,0-.74-.71H62.89c-.26,0-.37.22-.52.22s-.26-.22-.52-.22H60.7a.72.72,0,0,0-.74.71v1.64c0,.56.24.57.24.9,0,.63-.49,1.3-.08,2.54.26.79,1.08,1.24,1.32,1.11s-.22-.58-.2-1.48a1.13,1.13,0,1,1,2.24,0Z" transform="translate(-1.27 -1.27)" /><path class="cls-7" d="M63.75,53.74a3.51,3.51,0,0,0,.11-1,1.5,1.5,0,1,0-3,0,3.51,3.51,0,0,0,.11,1,1.5,1.5,0,0,1-.51-.7,2.71,2.71,0,0,1,0-1.7,3,3,0,0,0,.11-.72,1,1,0,0,0-.14-.5.7.7,0,0,1-.1-.4V48.08a.35.35,0,0,1,.37-.34h1.14s0,0,.12.06a.6.6,0,0,0,.81,0c.07-.05.09-.06.12-.06H64a.35.35,0,0,1,.37.34v1.64a.7.7,0,0,1-.1.4,1,1,0,0,0-.14.5,3,3,0,0,0,.11.72,2.71,2.71,0,0,1,0,1.7A1.5,1.5,0,0,1,63.75,53.74Z" transform="translate(-1.27 -1.27)" /><path class="cls-8" d="M63.49,52.79c0,.9-.35,1.39-.2,1.48s1.06-.32,1.32-1.11c.41-1.24-.08-1.9-.08-2.54,0-.33.24-.34.24-.9V48.08a.72.72,0,0,0-.74-.71H62.89c-.26,0-.37.22-.52.22s-.26-.22-.52-.22H60.7a.72.72,0,0,0-.74.71v1.64c0,.56.24.57.24.9,0,.63-.49,1.3-.08,2.54.26.79,1.08,1.24,1.32,1.11s-.22-.58-.2-1.48a1.13,1.13,0,1,1,2.24,0Z" transform="translate(-1.27 -1.27)" /><path class="cls-9" d="M63.49,50.88a2.15,2.15,0,0,1,.42.85,1.76,1.76,0,0,0-.19-.88,4.11,4.11,0,0,1-.44-.91c-.08-.35.65-.87.28-1.14s-.89.53-1.18.53-.85-.76-1.18-.53.36.79.28,1.14a5.31,5.31,0,0,1-.44.91,2.08,2.08,0,0,0-.19.88,2.15,2.15,0,0,1,.42-.85,1.36,1.36,0,0,1,2.25,0Z" transform="translate(-1.27 -1.27)" /><path class="cls-6" d="M53.14,52.79c0,.9-.35,1.39-.2,1.48S54,54,54.26,53.16c.41-1.24-.08-1.9-.08-2.54,0-.33.24-.34.24-.9V48.08a.72.72,0,0,0-.74-.71H52.54c-.26,0-.37.22-.52.22s-.26-.22-.52-.22H50.35a.72.72,0,0,0-.74.71v1.64c0,.56.24.57.24.9,0,.63-.49,1.3-.08,2.54.26.79,1.08,1.24,1.32,1.11s-.22-.58-.2-1.48a1.13,1.13,0,1,1,2.24,0Z" transform="translate(-1.27 -1.27)" /><path class="cls-7" d="M53.4,53.74a3.51,3.51,0,0,0,.11-1,1.5,1.5,0,1,0-3,0,3.51,3.51,0,0,0,.11,1,1.5,1.5,0,0,1-.51-.7,2.71,2.71,0,0,1,0-1.7,3,3,0,0,0,.11-.72,1,1,0,0,0-.14-.5.7.7,0,0,1-.1-.4V48.08a.35.35,0,0,1,.37-.34h1.14s0,0,.12.06a.6.6,0,0,0,.81,0c.07-.05.09-.06.12-.06h1.14a.35.35,0,0,1,.37.34v1.64a.7.7,0,0,1-.1.4,1,1,0,0,0-.14.5,3,3,0,0,0,.11.72,2.71,2.71,0,0,1,0,1.7A1.5,1.5,0,0,1,53.4,53.74Z" transform="translate(-1.27 -1.27)" /><path class="cls-8" d="M53.14,52.79c0,.9-.35,1.39-.2,1.48S54,54,54.26,53.16c.41-1.24-.08-1.9-.08-2.54,0-.33.24-.34.24-.9V48.08a.72.72,0,0,0-.74-.71H52.54c-.26,0-.37.22-.52.22s-.26-.22-.52-.22H50.35a.72.72,0,0,0-.74.71v1.64c0,.56.24.57.24.9,0,.63-.49,1.3-.08,2.54.26.79,1.08,1.24,1.32,1.11s-.22-.58-.2-1.48a1.13,1.13,0,1,1,2.24,0Z" transform="translate(-1.27 -1.27)" /><path class="cls-9" d="M53.14,50.88a2.15,2.15,0,0,1,.42.85,1.76,1.76,0,0,0-.19-.88,4.11,4.11,0,0,1-.44-.91c-.08-.35.65-.87.28-1.14s-.89.53-1.18.53-.85-.76-1.18-.53.36.79.28,1.14a5.31,5.31,0,0,1-.44.91,2.08,2.08,0,0,0-.19.88,2.15,2.15,0,0,1,.42-.85,1.36,1.36,0,0,1,2.25,0Z" transform="translate(-1.27 -1.27)" /><path class="cls-6" d="M58.31,41.11c0-.9-.35-1.39-.2-1.48s1.06.32,1.32,1.11c.41,1.24-.08,1.9-.08,2.54,0,.33.24.34.24.9v1.64a.72.72,0,0,1-.74.71H57.71c-.26,0-.37-.22-.52-.22s-.26.22-.52.22H55.53a.72.72,0,0,1-.74-.71V44.18c0-.56.24-.57.24-.9,0-.63-.49-1.3-.08-2.54.26-.79,1.08-1.24,1.32-1.11s-.22.58-.2,1.48a1.13,1.13,0,1,0,2.24,0Z" transform="translate(-1.27 -1.27)" /><path class="cls-7" d="M58.58,40.16a3.51,3.51,0,0,1,.11,1,1.5,1.5,0,1,1-3,0,3.51,3.51,0,0,1,.11-1,1.5,1.5,0,0,0-.51.7,2.71,2.71,0,0,0,0,1.7,3,3,0,0,1,.11.72,1,1,0,0,1-.14.5.7.7,0,0,0-.1.4v1.64a.35.35,0,0,0,.37.34h1.14s0,0,.12-.06a.6.6,0,0,1,.81,0c.07.05.09.06.12.06h1.14a.35.35,0,0,0,.37-.34V44.18a.7.7,0,0,0-.1-.4,1,1,0,0,1-.14-.5,3,3,0,0,1,.11-.72,2.71,2.71,0,0,0,0-1.7A1.5,1.5,0,0,0,58.58,40.16Z" transform="translate(-1.27 -1.27)" /><path class="cls-8" d="M58.31,41.11c0-.9-.35-1.39-.2-1.48s1.06.32,1.32,1.11c.41,1.24-.08,1.9-.08,2.54,0,.33.24.34.24.9v1.64a.72.72,0,0,1-.74.71H57.71c-.26,0-.37-.22-.52-.22s-.26.22-.52.22H55.53a.72.72,0,0,1-.74-.71V44.18c0-.56.24-.57.24-.9,0-.63-.49-1.3-.08-2.54.26-.79,1.08-1.24,1.32-1.11s-.22.58-.2,1.48a1.13,1.13,0,1,0,2.24,0Z" transform="translate(-1.27 -1.27)" /><path class="cls-9" d="M58.31,43a2.15,2.15,0,0,0,.42-.85,1.76,1.76,0,0,1-.19.88,4.11,4.11,0,0,0-.44.91c-.08.35.65.87.28,1.14s-.89-.53-1.18-.53-.85.76-1.18.53.36-.79.28-1.14a5.31,5.31,0,0,0-.44-.91,2.08,2.08,0,0,1-.19-.88,2.15,2.15,0,0,0,.42.85,1.36,1.36,0,0,0,2.25,0Z" transform="translate(-1.27 -1.27)" /><path class="cls-6" d="M63.49,41.11c0-.9-.35-1.39-.2-1.48s1.06.32,1.32,1.11c.41,1.24-.08,1.9-.08,2.54,0,.33.24.34.24.9v1.64a.72.72,0,0,1-.74.71H62.89c-.26,0-.37-.22-.52-.22s-.26.22-.52.22H60.7a.72.72,0,0,1-.74-.71V44.18c0-.56.24-.57.24-.9,0-.63-.49-1.3-.08-2.54.26-.79,1.08-1.24,1.32-1.11s-.22.58-.2,1.48a1.13,1.13,0,1,0,2.24,0Z" transform="translate(-1.27 -1.27)" /><path class="cls-7" d="M63.75,40.16a3.51,3.51,0,0,1,.11,1,1.5,1.5,0,1,1-3,0,3.51,3.51,0,0,1,.11-1,1.5,1.5,0,0,0-.51.7,2.71,2.71,0,0,0,0,1.7,3,3,0,0,1,.11.72,1,1,0,0,1-.14.5.7.7,0,0,0-.1.4v1.64a.35.35,0,0,0,.37.34h1.14s0,0,.12-.06a.6.6,0,0,1,.81,0c.07.05.09.06.12.06H64a.35.35,0,0,0,.37-.34V44.18a.7.7,0,0,0-.1-.4,1,1,0,0,1-.14-.5,3,3,0,0,1,.11-.72,2.71,2.71,0,0,0,0-1.7A1.5,1.5,0,0,0,63.75,40.16Z" transform="translate(-1.27 -1.27)" /><path class="cls-8" d="M63.49,41.11c0-.9-.35-1.39-.2-1.48s1.06.32,1.32,1.11c.41,1.24-.08,1.9-.08,2.54,0,.33.24.34.24.9v1.64a.72.72,0,0,1-.74.71H62.89c-.26,0-.37-.22-.52-.22s-.26.22-.52.22H60.7a.72.72,0,0,1-.74-.71V44.18c0-.56.24-.57.24-.9,0-.63-.49-1.3-.08-2.54.26-.79,1.08-1.24,1.32-1.11s-.22.58-.2,1.48a1.13,1.13,0,1,0,2.24,0Z" transform="translate(-1.27 -1.27)" /><path class="cls-9" d="M63.49,43a2.15,2.15,0,0,0,.42-.85,1.76,1.76,0,0,1-.19.88,4.11,4.11,0,0,0-.44.91c-.08.35.65.87.28,1.14s-.89-.53-1.18-.53-.85.76-1.18.53.36-.79.28-1.14a5.31,5.31,0,0,0-.44-.91,2.08,2.08,0,0,1-.19-.88,2.15,2.15,0,0,0,.42.85,1.36,1.36,0,0,0,2.25,0Z" transform="translate(-1.27 -1.27)" /><path class="cls-6" d="M53.14,41.11c0-.9-.35-1.39-.2-1.48S54,40,54.26,40.74c.41,1.24-.08,1.9-.08,2.54,0,.33.24.34.24.9v1.64a.72.72,0,0,1-.74.71H52.54c-.26,0-.37-.22-.52-.22s-.26.22-.52.22H50.35a.72.72,0,0,1-.74-.71V44.18c0-.56.24-.57.24-.9,0-.63-.49-1.3-.08-2.54.26-.79,1.08-1.24,1.32-1.11s-.22.58-.2,1.48a1.13,1.13,0,1,0,2.24,0Z" transform="translate(-1.27 -1.27)" /><path class="cls-7" d="M53.4,40.16a3.51,3.51,0,0,1,.11,1,1.5,1.5,0,1,1-3,0,3.51,3.51,0,0,1,.11-1,1.5,1.5,0,0,0-.51.7,2.71,2.71,0,0,0,0,1.7,3,3,0,0,1,.11.72,1,1,0,0,1-.14.5.7.7,0,0,0-.1.4v1.64a.35.35,0,0,0,.37.34h1.14s0,0,.12-.06a.6.6,0,0,1,.81,0c.07.05.09.06.12.06h1.14a.35.35,0,0,0,.37-.34V44.18a.7.7,0,0,0-.1-.4,1,1,0,0,1-.14-.5,3,3,0,0,1,.11-.72,2.71,2.71,0,0,0,0-1.7A1.5,1.5,0,0,0,53.4,40.16Z" transform="translate(-1.27 -1.27)" /><path class="cls-8" d="M53.14,41.11c0-.9-.35-1.39-.2-1.48S54,40,54.26,40.74c.41,1.24-.08,1.9-.08,2.54,0,.33.24.34.24.9v1.64a.72.72,0,0,1-.74.71H52.54c-.26,0-.37-.22-.52-.22s-.26.22-.52.22H50.35a.72.72,0,0,1-.74-.71V44.18c0-.56.24-.57.24-.9,0-.63-.49-1.3-.08-2.54.26-.79,1.08-1.24,1.32-1.11s-.22.58-.2,1.48a1.13,1.13,0,1,0,2.24,0Z" transform="translate(-1.27 -1.27)" /><path class="cls-9" d="M53.14,43a2.15,2.15,0,0,0,.42-.85,1.76,1.76,0,0,1-.19.88,4.11,4.11,0,0,0-.44.91c-.08.35.65.87.28,1.14s-.89-.53-1.18-.53-.85.76-1.18.53.36-.79.28-1.14a5.31,5.31,0,0,0-.44-.91,2.08,2.08,0,0,1-.19-.88,2.15,2.15,0,0,0,.42.85,1.36,1.36,0,0,0,2.25,0Z" transform="translate(-1.27 -1.27)" /></g><g class="cls-10"><path class="cls-11" d="M61.53,39.28a2,2,0,0,1,1.95,1.95V52.67a2,2,0,0,1-1.95,1.95H52.85a2,2,0,0,1-1.95-1.95V41.23a2,2,0,0,1,1.95-1.95h8.68m0-.43H52.85a2.38,2.38,0,0,0-2.38,2.38V52.67a2.38,2.38,0,0,0,2.38,2.38h8.68a2.38,2.38,0,0,0,2.38-2.38V41.23a2.38,2.38,0,0,0-2.38-2.38Z" transform="translate(-1.27 -1.27)" /></g></svg>