<svg id="D0330_-_panoramic_radiographic_image" data-name="D0330 - panoramic radiographic image" xmlns="http://www.w3.org/2000/svg" xmlns:xlink="http://www.w3.org/1999/xlink" viewBox="0 0 172.75 121.39"><defs><style>.cls-1{fill:none;}.cls-2{stroke:#dcddde;stroke-miterlimit:10;stroke-width:1.06px;fill:url(#New_Gradient_Swatch_2);}.cls-3{fill:url(#New_Gradient_Swatch_2-2);}.cls-4{fill:#184782;}.cls-5{fill:#22356c;}.cls-6{fill:#286dae;}.cls-7{clip-path:url(#clip-path);}.cls-8{fill:#94d8e9;stroke:#c8e9f2;stroke-linejoin:round;stroke-width:1.4px;}.cls-9{fill:#64cbe2;}.cls-10{fill:#c8e9f2;}.cls-11{opacity:0.9;}.cls-12{fill:#ef4e81;}.cls-13{opacity:0.8;}</style><linearGradient id="New_Gradient_Swatch_2" x1="86.37" y1="97.35" x2="86.37" y2="114.19" gradientUnits="userSpaceOnUse"><stop offset="0" stop-color="#fff" /><stop offset="1" stop-color="#f2f2f2" /></linearGradient><linearGradient id="New_Gradient_Swatch_2-2" x1="36" y1="24.22" x2="36" y2="7.14" xlink:href="#New_Gradient_Swatch_2" /><clipPath id="clip-path" transform="translate(50.37 50.67)"><rect class="cls-1" x="6.61" y="6.61" width="58.79" height="58.79" /></clipPath></defs><title>D0330_panoramic_radiographic_image</title><rect class="cls-4" x="57.98" y="58.27" width="56.79" height="56.79" /><path class="cls-5" d="M63.39,8.61V63.39H8.61V8.61H63.39m2-2H6.61V65.39H65.39V6.61Z" transform="translate(50.37 50.67)" /><rect class="cls-6" x="102.02" y="109.45" width="10.74" height="1.29" /><rect class="cls-6" x="102.02" y="111.78" width="10.74" height="1.29" /><g class="cls-7"><path class="cls-8" d="M33.65,10.44s-4.14.69-4.15-1.24,5-9.33,5-9.33S32.61-3,30.85-6.43s-.56-6.25.48-9.09,1.35-15.63-13-28.23-44.48-2.59-49.9.1c-2.78,1.38-20.9,8.33-17.7,35S-26,15.46-23.23,15.53s3.48,2.76,6.67,2.31,7.41-5.67,8.63-4.65,2,10.94,3,15.86,6,6.56,10.46,7.46,17.77,3.28,23.18,4.16c6.75,1.09,5.7-7.05,4.85-9.4a3.31,3.31,0,0,1,.49-3.6s-19.18.42-23-.53S6.26,22.5,6,20C5.44,15.53,4.66,7.71,4.66,7.71l3.58,2.1s1,9.6,2.52,10.11,23.5-1,23.5-1,.86-1.21.73-4.43S33.65,10.44,33.65,10.44ZM26.32-12c0,2.25,1,7-1,9s-7.22,4.2-8.8,2.73S12.4-6.88,13.19-8.89s8.5-4.31,10.38-5S26.32-13.78,26.32-12Z" transform="translate(50.37 50.67)" /><path class="cls-9" d="M30.13,38.26a4.32,4.32,0,0,1-1.05-.06C23.66,37.33,10.29,34.93,6,34.07.55,33-2,31.33-2.51,28.59-2.8,27-3.09,25-3.38,22.78c-1.11-8.14-1.57-10.34-3-11.5a3.12,3.12,0,0,0-2.3-.7c-1.43.13-2.73,1.13-4.37,2.39-1.18.9-3,2.27-3.91,2.4l-.14,0c-.66.06-1-.14-1.86-.74A7.51,7.51,0,0,0-23.16,13h-1c-13.45.38-20.87-6.8-22.69-22-1.87-15.62,3.43-26.46,15.75-32.21l.59-.28c2.88-1.43,12.75-4.87,23.31-5.82,7.34-.66,17.43-.26,23.84,5.36C30.21-30,29.66-18.2,29-16.37l-.14.39c-.18.49-.37,1-.55,1.53a3.86,3.86,0,0,0-.85-1.14,4,4,0,0,0-3.13-1,6.51,6.51,0,0,0-1.57.35l-.87.29c-6.41,2.12-10.07,3.72-11,6.12C9.5-6.32,13-.23,14.84,1.52a4.89,4.89,0,0,0,3.93,1.11,15.55,15.55,0,0,0,8.34-3.91,6.69,6.69,0,0,0,1.73-3.62c1,1.89,2,3.59,2.68,4.72C29.29,3.25,27,7.24,27,9.21a3.54,3.54,0,0,0,1.17,2.63,5.71,5.71,0,0,0,4.11,1.21,7.37,7.37,0,0,1,.21,1.56,10.54,10.54,0,0,1-.08,2c-8.44.55-17.32,1-20.26,1a48.15,48.15,0,0,1-1.44-8L10.59,8.3,1.69,3.07,2.18,8c0,.08.79,7.9,1.32,12.36.75,6.4,4.18,8.56,6.92,9.25,3.12.78,14.52.74,20.34.66a7,7,0,0,0,.42,1.9c.51,1.4.76,4.34,0,5.58A1.17,1.17,0,0,1,30.13,38.26Z" transform="translate(50.37 50.67)" /><path class="cls-10" d="M14.18,28.83c0,.86-.42,1.32-.27,1.41s1-.25,1.34-1c.47-1.17,0-1.84.07-2.45,0-.31.25-.32.28-.85l.09-1.58a.69.69,0,0,0-.68-.73l-1.1-.06c-.25,0-.37.19-.52.18s-.24-.23-.49-.24l-1.1-.06a.69.69,0,0,0-.76.65L11,25.68c0,.53.2.56.18.88,0,.61-.55,1.22-.22,2.44.21.78,1,1.26,1.21,1.14s-.18-.57-.11-1.43a1.15,1.15,0,0,1,1.15-1.16A1.15,1.15,0,0,1,14.18,28.83Z" transform="translate(50.37 50.67)" /><path class="cls-10" d="M19.19,29.1c0,.86-.36,1.34-.21,1.42s1-.29,1.29-1.06c.41-1.19-.05-1.84,0-2.45,0-.32.23-.33.24-.86l0-1.58a.69.69,0,0,0-.71-.7h-1.1c-.25,0-.36.21-.51.2s-.25-.21-.5-.22h-1.1a.69.69,0,0,0-.73.68l0,1.58c0,.54.22.55.22.87,0,.61-.49,1.25-.11,2.45.25.77,1,1.21,1.26,1.09S17,29.94,17,29.07a1.09,1.09,0,1,1,2.17,0Z" transform="translate(50.37 50.67)" /><path class="cls-10" d="M22.29,23.39a5.27,5.27,0,0,1,1.4.88c.35.29.27.44.23.78a9.46,9.46,0,0,1-.38,1.63c-.1.26-.25.29-.29.61-.19,1.55-.84,3.1-1.07,3.1s-.85-1.55-1-3.11c0-.32-.19-.36-.28-.62A9.46,9.46,0,0,1,20.53,25c0-.34-.11-.49.24-.78a5.27,5.27,0,0,1,1.42-.85Z" transform="translate(50.37 50.67)" /><path class="cls-10" d="M25.51,23.37a5.27,5.27,0,0,1,1.43.82c.36.28.28.43.26.77a9.46,9.46,0,0,1-.32,1.64c-.09.26-.24.3-.27.62-.14,1.56-.72,3.13-1,3.14s-.9-1.52-1.13-3.08c0-.32-.2-.35-.3-.61a9.46,9.46,0,0,1-.41-1.62c0-.34-.13-.49.21-.79a5.27,5.27,0,0,1,1.38-.9Z" transform="translate(50.37 50.67)" /><path class="cls-10" d="M28.67,23.54a4.44,4.44,0,0,1,1.23.83c.31.28.25.43.22.78a10.84,10.84,0,0,1-.27,1.64c-.07.26-.2.3-.23.62-.11,1.56-.6,3.13-.8,3.13s-.78-1.52-1-3.08c0-.32-.17-.35-.26-.61a10.84,10.84,0,0,1-.36-1.62c0-.34-.11-.49.18-.79a4.44,4.44,0,0,1,1.18-.9Z" transform="translate(50.37 50.67)" /><path class="cls-10" d="M32.35,27.27c0-.31.32-.34.3-.86l-.07-2.06c0-.4-.25-.67-.51-.66l-1.38,0c-.26,0-.48.29-.46.69l.07,2.06c0,.52.34.53.36.84a5.6,5.6,0,0,0,.95,2.91A5.52,5.52,0,0,0,32.35,27.27Z" transform="translate(50.37 50.67)" /><path class="cls-10" d="M22.13,27.36a1.7,1.7,0,0,0-.32-.84,7.76,7.76,0,0,1-.31-1.4h0c.22-.16.51-.36.71-.48.2.12.5.33.7.49h0a8.82,8.82,0,0,1-.32,1.39,1.64,1.64,0,0,0-.35.84c0,.13,0,.26-.06.38Q22.16,27.56,22.13,27.36Z" transform="translate(50.37 50.67)" /><path class="cls-10" d="M25.49,27.34a1.71,1.71,0,0,0-.35-.82,7.71,7.71,0,0,1-.36-1.39h0c.21-.17.49-.38.69-.5.21.12.51.31.72.46h0a8.82,8.82,0,0,1-.27,1.4,1.65,1.65,0,0,0-.32.86c0,.13,0,.26,0,.38C25.53,27.6,25.51,27.47,25.49,27.34Z" transform="translate(50.37 50.67)" /><path class="cls-10" d="M28.7,27.08a2,2,0,0,0-.18-.34,8.86,8.86,0,0,1-.33-1.44v-.06c.13-.13.3-.27.45-.39l.47.36v.06a10.13,10.13,0,0,1-.23,1.43A1.87,1.87,0,0,0,28.7,27.08Z" transform="translate(50.37 50.67)" /><path class="cls-10" d="M31.46,26.88a1.69,1.69,0,0,0-.19-.28l-.06-1.69h.37l.06,1.69A1.8,1.8,0,0,0,31.46,26.88Z" transform="translate(50.37 50.67)" /><path class="cls-10" d="M14.29,27.14a2,2,0,0,0-1.08-.39h-.29a2,2,0,0,0-.83.26c0-.07,0-.13,0-.21a1.55,1.55,0,0,0-.17-.79L12,24.66l.64,0a1.23,1.23,0,0,0,.66.25h.17a1.26,1.26,0,0,0,.52-.17l.64,0-.07,1.27a2.05,2.05,0,0,0-.28.85C14.28,27,14.28,27.07,14.29,27.14Z" transform="translate(50.37 50.67)" /><path class="cls-10" d="M19.22,27.4a2,2,0,0,0-1.1-.34h-.2a2,2,0,0,0-.91.31c0-.07,0-.14,0-.21a1.56,1.56,0,0,0-.2-.78V25h.65a1.23,1.23,0,0,0,.67.22h.12a1.25,1.25,0,0,0,.57-.2h.64l0,1.27a2,2,0,0,0-.24.86C19.21,27.27,19.21,27.34,19.22,27.4Z" transform="translate(50.37 50.67)" /><path class="cls-10" d="M22.18,26.37c0-.09-.15-.61-.21-1l.28-.19.27.19a9.9,9.9,0,0,1-.25,1l0,0Z" transform="translate(50.37 50.67)" /><path class="cls-10" d="M25.51,26.35c0-.09-.17-.6-.25-1l.27-.2.28.18a10,10,0,0,1-.21,1l0,.05Z" transform="translate(50.37 50.67)" /><path class="cls-10" d="M13.88,26.33a2.67,2.67,0,0,0-.59-.1h-.38l-.22,0a2.21,2.21,0,0,0-.1-.28l0-.55a1.75,1.75,0,0,0,.71.19h.25a1.8,1.8,0,0,0,.47-.11l0,.5A3.54,3.54,0,0,0,13.88,26.33Z" transform="translate(50.37 50.67)" /><path class="cls-10" d="M18.77,26.61a2.64,2.64,0,0,0-.6-.08h-.24l-.36.06a2.12,2.12,0,0,0-.11-.28v-.55a1.73,1.73,0,0,0,.71.16h.15a1.87,1.87,0,0,0,.58-.14v.5C18.85,26.39,18.81,26.5,18.77,26.61Z" transform="translate(50.37 50.67)" /><path class="cls-10" d="M15,18.22c0-.86-.34-1.34-.19-1.43s1,.31,1.27,1.07c.4,1.2-.08,1.84-.08,2.45,0,.32.23.33.23.87v1.58a.69.69,0,0,1-.72.69h-1.1c-.25,0-.36-.21-.5-.21s-.25.21-.51.21h-1.1a.69.69,0,0,1-.72-.69V21.17c0-.54.23-.55.23-.87,0-.61-.47-1.25-.07-2.45.26-.76,1-1.2,1.28-1.07s-.22.56-.19,1.43a1.09,1.09,0,1,0,2.17,0Z" transform="translate(50.37 50.67)" /><path class="cls-10" d="M19.73,18.2c0-.86-.35-1.34-.2-1.42s1,.3,1.28,1.06c.41,1.19-.06,1.84-.06,2.45,0,.32.23.33.24.87v1.58a.69.69,0,0,1-.71.69h-1.1c-.25,0-.36-.21-.51-.21s-.25.21-.5.21h-1.1a.69.69,0,0,1-.72-.68V21.19c0-.54.23-.55.22-.87,0-.61-.48-1.25-.09-2.45.25-.77,1-1.21,1.27-1.08s-.21.56-.18,1.43a1.09,1.09,0,1,0,2.17,0Z" transform="translate(50.37 50.67)" /><path class="cls-10" d="M23.12,23.6a5.27,5.27,0,0,0,1.34-1c.33-.31.24-.46.18-.8a9.46,9.46,0,0,0-.49-1.6c-.11-.25-.27-.27-.33-.59-.3-1.53-1-3-1.28-3s-.74,1.6-.81,3.18c0,.33-.16.37-.24.63a9.46,9.46,0,0,0-.24,1.66c0,.35-.08.5.29.76a5.27,5.27,0,0,0,1.47.76Z" transform="translate(50.37 50.67)" /><path class="cls-10" d="M26.75,23.64a5.27,5.27,0,0,0,1.36-.94c.33-.31.25-.45.19-.79a9.46,9.46,0,0,0-.46-1.61c-.11-.25-.26-.28-.32-.6-.27-1.54-1-3.06-1.22-3s-.77,1.59-.87,3.16c0,.33-.17.37-.25.63a9.46,9.46,0,0,0-.27,1.65c0,.34-.08.5.28.77a5.27,5.27,0,0,0,1.46.78Z" transform="translate(50.37 50.67)" /><path class="cls-10" d="M29.89,23.51a4.44,4.44,0,0,0,1.17-.91c.29-.3.22-.45.18-.79a10.84,10.84,0,0,0-.37-1.62c-.09-.25-.22-.28-.26-.61-.21-1.55-.8-3.08-1-3.07s-.68,1.56-.79,3.14c0,.33-.15.36-.22.62a10.84,10.84,0,0,0-.26,1.64c0,.34-.08.5.23.77a4.44,4.44,0,0,0,1.23.82Z" transform="translate(50.37 50.67)" /><path class="cls-10" d="M33.28,19.33c0,.31.34.31.36.84l.08,2.06c0,.4-.2.68-.46.69L31.88,23c-.26,0-.5-.26-.51-.66l-.08-2.06c0-.52.3-.55.3-.86a5.6,5.6,0,0,1,.73-3A5.52,5.52,0,0,1,33.28,19.33Z" transform="translate(50.37 50.67)" /><path class="cls-10" d="M14.56,22.28a1.24,1.24,0,0,0-.67-.21h-.11a1.24,1.24,0,0,0-.57.21h-.64V21a2,2,0,0,0,.23-.87c0-.07,0-.14,0-.2a2,2,0,0,0,1.1.33h.18a2,2,0,0,0,.92-.32c0,.07,0,.14,0,.21a1.56,1.56,0,0,0,.21.78v1.36Z" transform="translate(50.37 50.67)" /><path class="cls-10" d="M19.37,22.27a1.22,1.22,0,0,0-.68-.21h0a1.38,1.38,0,0,0-.66.22h-.64V21a2,2,0,0,0,.22-.87c0-.07,0-.14,0-.2a2,2,0,0,0,1.11.32h.16a2,2,0,0,0,.94-.33q0,.1,0,.21a1.56,1.56,0,0,0,.22.78l0,1.36Z" transform="translate(50.37 50.67)" /><path class="cls-10" d="M23,22.38c-.21-.11-.52-.29-.74-.43h0a8.66,8.66,0,0,1,.2-1.41,1.66,1.66,0,0,0,.28-.87c0-.13,0-.26,0-.39,0,.12.06.25.08.38a1.7,1.7,0,0,0,.39.81,7.73,7.73,0,0,1,.43,1.37h0C23.47,22,23.2,22.24,23,22.38Z" transform="translate(50.37 50.67)" /><path class="cls-10" d="M26.66,22.41c-.21-.11-.52-.29-.73-.44h0a8.6,8.6,0,0,1,.23-1.41,1.66,1.66,0,0,0,.29-.86c0-.13,0-.26,0-.39,0,.12.05.25.08.38a1.71,1.71,0,0,0,.37.82,7.86,7.86,0,0,1,.4,1.38h0C27.13,22.07,26.85,22.28,26.66,22.41Z" transform="translate(50.37 50.67)" /><path class="cls-10" d="M29.83,22.22l-.47-.36v-.06a10.1,10.1,0,0,1,.22-1.43,2,2,0,0,0,.17-.37,1.87,1.87,0,0,0,.18.34,8.94,8.94,0,0,1,.34,1.43v.06C30.15,21.95,30,22.1,29.83,22.22Z" transform="translate(50.37 50.67)" /><path class="cls-10" d="M32.37,21.79l-.06-1.69a1.8,1.8,0,0,0,.17-.29,1.68,1.68,0,0,0,.19.28l.07,1.69Z" transform="translate(50.37 50.67)" /><path class="cls-10" d="M14.59,21.59a1.73,1.73,0,0,0-.71-.15h-.14a1.84,1.84,0,0,0-.59.15v-.5c0-.11.09-.22.13-.33a2.65,2.65,0,0,0,.6.07h.21l.38-.06a2.1,2.1,0,0,0,.11.28Z" transform="translate(50.37 50.67)" /><path class="cls-10" d="M19.4,21.58a1.76,1.76,0,0,0-.72-.15h0a2.3,2.3,0,0,0-.7.17v-.5c0-.11.09-.22.12-.33a2.59,2.59,0,0,0,.6.06h.19a2.68,2.68,0,0,0,.4-.07,2.27,2.27,0,0,0,.11.28Z" transform="translate(50.37 50.67)" /><path class="cls-10" d="M22.68,21.7a9.56,9.56,0,0,1,.16-1l0-.05.07.08c0,.09.2.59.29,1l-.26.21Z" transform="translate(50.37 50.67)" /><path class="cls-10" d="M26.34,21.73a9.56,9.56,0,0,1,.18-1l0-.05.06.08c0,.09.19.6.28,1l-.27.21Z" transform="translate(50.37 50.67)" /><path class="cls-8" d="M37,14.52c-.13,3.22.73,4.43.73,4.43s22,1.48,23.5,1S63.76,9.81,63.76,9.81l3.58-2.1S66.56,15.53,66,20c-.29,2.48-1.25,6.17-5.05,7.13s-23,.53-23,.53a3.31,3.31,0,0,1,.49,3.6c-.86,2.35-1.9,10.49,4.85,9.4,5.4-.87,18.74-3.26,23.18-4.16S76,34,77,29.06s1.75-14.84,3-15.86,5.44,4.2,8.63,4.65,3.91-2.23,6.67-2.31S118.1,18.06,121.3-8.63s-14.92-33.64-17.7-35c-5.43-2.69-35.53-12.71-49.9-.1s-14.06,25.39-13,28.23,2.24,5.69.48,9.09-3.63,6.3-3.63,6.3,5,7.39,5,9.33-4.15,1.24-4.15,1.24S37.14,11.3,37,14.52ZM48.43-13.85c1.88.65,9.59,3,10.38,5S57-1.78,55.46-.3,48.58-1.08,46.66-3s-1-6.72-1-9C45.68-13.78,46.55-14.51,48.43-13.85Z" transform="translate(50.37 50.67)" /><path class="cls-9" d="M41.87,38.26a4.32,4.32,0,0,0,1.05-.06c5.41-.87,18.78-3.27,23.08-4.14,5.44-1.1,8-2.73,8.5-5.47.29-1.55.57-3.62.87-5.82,1.11-8.14,1.57-10.34,3-11.5a3.12,3.12,0,0,1,2.3-.7c1.43.13,2.73,1.13,4.37,2.39,1.18.9,3,2.27,3.91,2.4l.14,0c.66.06,1-.14,1.86-.74A7.51,7.51,0,0,1,95.16,13h1c13.45.38,20.87-6.8,22.69-22,1.87-15.62-3.43-26.46-15.75-32.21l-.59-.28c-2.88-1.43-12.75-4.87-23.31-5.82-7.34-.66-17.43-.26-23.84,5.36C41.79-30,42.34-18.2,43-16.37l.14.39c.18.49.37,1,.55,1.53a3.86,3.86,0,0,1,.85-1.14,4,4,0,0,1,3.13-1,6.51,6.51,0,0,1,1.57.35l.87.29c6.41,2.12,10.07,3.72,11,6.12C62.5-6.32,59-.23,57.16,1.52a4.89,4.89,0,0,1-3.93,1.11,15.55,15.55,0,0,1-8.34-3.91,6.69,6.69,0,0,1-1.73-3.62c-1,1.89-2,3.59-2.68,4.72C42.71,3.25,45,7.24,45,9.21a3.54,3.54,0,0,1-1.17,2.63,5.71,5.71,0,0,1-4.11,1.21,7.37,7.37,0,0,0-.21,1.56,10.54,10.54,0,0,0,.08,2c8.44.55,17.32,1,20.26,1a48.15,48.15,0,0,0,1.44-8l.13-1.25,8.9-5.22L69.82,8c0,.08-.79,7.9-1.32,12.36-.75,6.4-4.18,8.56-6.92,9.25-3.12.78-14.52.74-20.34.66a7,7,0,0,1-.42,1.9c-.51,1.4-.76,4.34,0,5.58A1.17,1.17,0,0,0,41.87,38.26Z" transform="translate(50.37 50.67)" /><path class="cls-10" d="M57.82,28.83c0,.86.42,1.32.27,1.41s-1-.25-1.34-1c-.47-1.17,0-1.84-.07-2.45,0-.31-.25-.32-.28-.85l-.09-1.58a.69.69,0,0,1,.68-.73l1.1-.06c.25,0,.37.19.52.18s.24-.23.49-.24l1.1-.06a.69.69,0,0,1,.76.65L61,25.68c0,.53-.2.56-.18.88,0,.61.55,1.22.22,2.44-.21.78-1,1.26-1.21,1.14s.18-.57.11-1.43a1.09,1.09,0,1,0-2.16.13Z" transform="translate(50.37 50.67)" /><path class="cls-10" d="M52.81,29.1c0,.86.36,1.34.21,1.42s-1-.29-1.29-1.06c-.41-1.19.05-1.84,0-2.45,0-.32-.23-.33-.24-.86l0-1.58a.69.69,0,0,1,.71-.7h1.1c.25,0,.36.21.51.2s.25-.21.5-.22h1.1a.69.69,0,0,1,.73.68l0,1.58c0,.54-.22.55-.22.87,0,.61.49,1.25.11,2.45-.25.77-1,1.21-1.26,1.09s.21-.56.17-1.43a1.09,1.09,0,1,0-2.17,0Z" transform="translate(50.37 50.67)" /><path class="cls-10" d="M49.71,23.39a5.27,5.27,0,0,0-1.4.88c-.35.29-.27.44-.23.78a9.46,9.46,0,0,0,.38,1.63c.1.26.25.29.29.61.19,1.55.84,3.1,1.07,3.1s.85-1.55,1-3.11c0-.32.19-.36.28-.62A9.46,9.46,0,0,0,51.47,25c0-.34.11-.49-.24-.78a5.27,5.27,0,0,0-1.42-.85Z" transform="translate(50.37 50.67)" /><path class="cls-10" d="M46.49,23.37a5.27,5.27,0,0,0-1.43.82c-.36.28-.28.43-.26.77a9.46,9.46,0,0,0,.32,1.64c.09.26.24.3.27.62.14,1.56.72,3.13,1,3.14s.9-1.52,1.13-3.08c0-.32.2-.35.3-.61a9.46,9.46,0,0,0,.41-1.62c0-.34.13-.49-.21-.79a5.27,5.27,0,0,0-1.38-.9Z" transform="translate(50.37 50.67)" /><path class="cls-10" d="M43.33,23.54a4.44,4.44,0,0,0-1.23.83c-.31.28-.25.43-.22.78a10.84,10.84,0,0,0,.27,1.64c.07.26.2.3.23.62.11,1.56.6,3.13.8,3.13s.78-1.52,1-3.08c0-.32.17-.35.26-.61a10.84,10.84,0,0,0,.36-1.62c0-.34.11-.49-.18-.79a4.44,4.44,0,0,0-1.18-.9Z" transform="translate(50.37 50.67)" /><path class="cls-10" d="M39.65,27.27c0-.31-.32-.34-.3-.86l.07-2.06c0-.4.25-.67.51-.66l1.38,0c.26,0,.48.29.46.69l-.07,2.06c0,.52-.34.53-.36.84a5.6,5.6,0,0,1-.95,2.91A5.52,5.52,0,0,1,39.65,27.27Z" transform="translate(50.37 50.67)" /><path class="cls-10" d="M49.87,27.36a1.7,1.7,0,0,1,.32-.84,7.76,7.76,0,0,0,.31-1.4h0c-.22-.16-.51-.36-.71-.48-.2.12-.5.33-.7.49h0a8.82,8.82,0,0,0,.32,1.39,1.64,1.64,0,0,1,.35.84c0,.13,0,.26.06.38Q49.84,27.56,49.87,27.36Z" transform="translate(50.37 50.67)" /><path class="cls-10" d="M46.51,27.34a1.71,1.71,0,0,1,.35-.82,7.71,7.71,0,0,0,.36-1.39h0c-.21-.17-.49-.38-.69-.5-.21.12-.51.31-.72.46h0a8.82,8.82,0,0,0,.27,1.4,1.65,1.65,0,0,1,.32.86c0,.13,0,.26,0,.38C46.47,27.6,46.49,27.47,46.51,27.34Z" transform="translate(50.37 50.67)" /><path class="cls-10" d="M43.3,27.08a2,2,0,0,1,.18-.34,8.86,8.86,0,0,0,.33-1.44v-.06c-.13-.13-.3-.27-.45-.39l-.47.36v.06a10.13,10.13,0,0,0,.23,1.43A1.87,1.87,0,0,1,43.3,27.08Z" transform="translate(50.37 50.67)" /><path class="cls-10" d="M40.54,26.88a1.69,1.69,0,0,1,.19-.28l.06-1.69h-.37l-.06,1.69A1.8,1.8,0,0,1,40.54,26.88Z" transform="translate(50.37 50.67)" /><path class="cls-10" d="M57.71,27.14a2,2,0,0,1,1.08-.39h.29a2,2,0,0,1,.83.26c0-.07,0-.13,0-.21a1.55,1.55,0,0,1,.17-.79L60,24.66l-.64,0a1.23,1.23,0,0,1-.66.25h-.17a1.26,1.26,0,0,1-.52-.17l-.64,0,.07,1.27a2.05,2.05,0,0,1,.28.85C57.72,27,57.72,27.07,57.71,27.14Z" transform="translate(50.37 50.67)" /><path class="cls-10" d="M52.78,27.4a2,2,0,0,1,1.1-.34h.2a2,2,0,0,1,.91.31c0-.07,0-.14,0-.21a1.56,1.56,0,0,1,.2-.78V25h-.65a1.23,1.23,0,0,1-.67.22h-.12a1.25,1.25,0,0,1-.57-.2h-.64l0,1.27a2,2,0,0,1,.24.86C52.79,27.27,52.79,27.34,52.78,27.4Z" transform="translate(50.37 50.67)" /><path class="cls-10" d="M49.82,26.37c0-.09.15-.61.21-1l-.28-.19-.27.19a9.9,9.9,0,0,0,.25,1l0,0Z" transform="translate(50.37 50.67)" /><path class="cls-10" d="M46.49,26.35c0-.09.17-.6.25-1l-.27-.2-.28.18a10,10,0,0,0,.21,1l0,.05Z" transform="translate(50.37 50.67)" /><path class="cls-10" d="M58.12,26.33a2.67,2.67,0,0,1,.59-.1h.38l.22,0a2.21,2.21,0,0,1,.1-.28l0-.55a1.75,1.75,0,0,1-.71.19h-.25a1.8,1.8,0,0,1-.47-.11l0,.5A3.54,3.54,0,0,1,58.12,26.33Z" transform="translate(50.37 50.67)" /><path class="cls-10" d="M53.23,26.61a2.64,2.64,0,0,1,.6-.08h.24l.36.06a2.12,2.12,0,0,1,.11-.28v-.55a1.73,1.73,0,0,1-.71.16h-.15a1.87,1.87,0,0,1-.58-.14v.5C53.15,26.39,53.19,26.5,53.23,26.61Z" transform="translate(50.37 50.67)" /><path class="cls-10" d="M57,18.22c0-.86.34-1.34.19-1.43s-1,.31-1.27,1.07c-.4,1.2.08,1.84.08,2.45,0,.32-.23.33-.23.87v1.58a.69.69,0,0,0,.72.69h1.1c.25,0,.36-.21.5-.21s.25.21.51.21h1.1a.69.69,0,0,0,.72-.69V21.17c0-.54-.23-.55-.23-.87,0-.61.47-1.25.07-2.45-.26-.76-1-1.2-1.28-1.07s.22.56.19,1.43a1.09,1.09,0,1,1-2.17,0Z" transform="translate(50.37 50.67)" /><path class="cls-10" d="M52.27,18.2c0-.86.35-1.34.2-1.42s-1,.3-1.28,1.06c-.41,1.19.06,1.84.06,2.45,0,.32-.23.33-.24.87v1.58a.69.69,0,0,0,.71.69h1.1c.25,0,.36-.21.51-.21s.25.21.5.21h1.1a.69.69,0,0,0,.72-.68V21.19c0-.54-.23-.55-.22-.87,0-.61.48-1.25.09-2.45-.25-.77-1-1.21-1.27-1.08s.21.56.18,1.43a1.09,1.09,0,1,1-2.17,0Z" transform="translate(50.37 50.67)" /><path class="cls-10" d="M48.88,23.6a5.27,5.27,0,0,1-1.34-1c-.33-.31-.24-.46-.18-.8a9.46,9.46,0,0,1,.49-1.6c.11-.25.27-.27.33-.59.3-1.53,1-3,1.28-3s.74,1.6.81,3.18c0,.33.16.37.24.63a9.46,9.46,0,0,1,.24,1.66c0,.35.08.5-.29.76a5.27,5.27,0,0,1-1.47.76Z" transform="translate(50.37 50.67)" /><path class="cls-10" d="M45.25,23.64a5.27,5.27,0,0,1-1.36-.94c-.33-.31-.25-.45-.19-.79a9.46,9.46,0,0,1,.46-1.61c.11-.25.26-.28.32-.6.27-1.54,1-3.06,1.22-3s.77,1.59.87,3.16c0,.33.17.37.25.63a9.46,9.46,0,0,1,.27,1.65c0,.34.08.5-.28.77a5.27,5.27,0,0,1-1.46.78Z" transform="translate(50.37 50.67)" /><path class="cls-10" d="M42.11,23.51a4.44,4.44,0,0,1-1.17-.91c-.29-.3-.22-.45-.18-.79a10.84,10.84,0,0,1,.37-1.62c.09-.25.22-.28.26-.61.21-1.55.8-3.08,1-3.07s.68,1.56.79,3.14c0,.33.15.36.22.62a10.84,10.84,0,0,1,.26,1.64c0,.34.08.5-.23.77a4.44,4.44,0,0,1-1.23.82Z" transform="translate(50.37 50.67)" /><path class="cls-10" d="M38.72,19.33c0,.31-.34.31-.36.84l-.08,2.06c0,.4.2.68.46.69l1.38.05c.26,0,.5-.26.51-.66l.08-2.06c0-.52-.3-.55-.3-.86a5.6,5.6,0,0,0-.73-3A5.52,5.52,0,0,0,38.72,19.33Z" transform="translate(50.37 50.67)" /><path class="cls-10" d="M57.44,22.28a1.24,1.24,0,0,1,.67-.21h.11a1.24,1.24,0,0,1,.57.21h.64V21a2,2,0,0,1-.23-.87c0-.07,0-.14,0-.2a2,2,0,0,1-1.1.33h-.18a2,2,0,0,1-.92-.32c0,.07,0,.14,0,.21a1.56,1.56,0,0,1-.21.78v1.36Z" transform="translate(50.37 50.67)" /><path class="cls-10" d="M52.63,22.27a1.22,1.22,0,0,1,.68-.21h0a1.38,1.38,0,0,1,.66.22h.64V21a2,2,0,0,1-.22-.87c0-.07,0-.14,0-.2a2,2,0,0,1-1.11.32h-.16a2,2,0,0,1-.94-.33q0,.1,0,.21a1.56,1.56,0,0,1-.22.78l0,1.36Z" transform="translate(50.37 50.67)" /><path class="cls-10" d="M49,22.38c.21-.11.52-.29.74-.43h0a8.66,8.66,0,0,0-.2-1.41,1.66,1.66,0,0,1-.28-.87c0-.13,0-.26,0-.39,0,.12-.06.25-.08.38a1.7,1.7,0,0,1-.39.81,7.73,7.73,0,0,0-.43,1.37h0C48.53,22,48.8,22.24,49,22.38Z" transform="translate(50.37 50.67)" /><path class="cls-10" d="M45.34,22.41c.21-.11.52-.29.73-.44h0a8.6,8.6,0,0,0-.23-1.41,1.66,1.66,0,0,1-.29-.86c0-.13,0-.26,0-.39,0,.12-.05.25-.08.38a1.71,1.71,0,0,1-.37.82,7.86,7.86,0,0,0-.4,1.38h0C44.87,22.07,45.15,22.28,45.34,22.41Z" transform="translate(50.37 50.67)" /><path class="cls-10" d="M42.17,22.22l.47-.36v-.06a10.1,10.1,0,0,0-.22-1.43,2,2,0,0,1-.17-.37,1.87,1.87,0,0,1-.18.34,8.94,8.94,0,0,0-.34,1.43v.06C41.85,21.95,42,22.1,42.17,22.22Z" transform="translate(50.37 50.67)" /><path class="cls-10" d="M39.63,21.79l.06-1.69a1.8,1.8,0,0,1-.17-.29,1.68,1.68,0,0,1-.19.28l-.07,1.69Z" transform="translate(50.37 50.67)" /><path class="cls-10" d="M57.41,21.59a1.73,1.73,0,0,1,.71-.15h.14a1.84,1.84,0,0,1,.59.15v-.5c0-.11-.09-.22-.13-.33a2.65,2.65,0,0,1-.6.07H57.9l-.38-.06a2.1,2.1,0,0,1-.11.28Z" transform="translate(50.37 50.67)" /><path class="cls-10" d="M52.6,21.58a1.76,1.76,0,0,1,.72-.15h0a2.3,2.3,0,0,1,.7.17v-.5c0-.11-.09-.22-.12-.33a2.59,2.59,0,0,1-.6.06h-.19a2.68,2.68,0,0,1-.4-.07,2.27,2.27,0,0,1-.11.28Z" transform="translate(50.37 50.67)" /><path class="cls-10" d="M49.32,21.7a9.56,9.56,0,0,0-.16-1l0-.05-.07.08c0,.09-.2.59-.29,1l.26.21Z" transform="translate(50.37 50.67)" /><path class="cls-10" d="M45.66,21.73a9.56,9.56,0,0,0-.18-1l0-.05-.06.08c0,.09-.19.6-.28,1l.27.21Z" transform="translate(50.37 50.67)" /></g><g class="cls-11"><path class="cls-12" d="M63.32,41.83c-2.48-1.29-5-2.78-7.65-4.47v4.32a56.72,56.72,0,0,1-39.34,0V37.35c-2.61,1.69-5.17,3.18-7.65,4.47q3.72,6,7.65,11.46V49a56.72,56.72,0,0,0,39.34,0v4.32Q59.59,47.86,63.32,41.83Z" transform="translate(50.37 50.67)" /></g><g class="cls-13"><path class="cls-5" d="M63.39,8.61V63.39H8.61V8.61H63.39m2-2H6.61V65.39H65.39V6.61Z" transform="translate(50.37 50.67)" /></g></svg>