<svg id="D0340_-_cephalmetric_radiographic_image" data-name="D0340 - cephalmetric radiographic image" xmlns="http://www.w3.org/2000/svg" xmlns:xlink="http://www.w3.org/1999/xlink" viewBox="0 0 72.77 77.95"><defs><style>.cls-1{fill:none;}.cls-2{stroke:#dcddde;stroke-miterlimit:10;stroke-width:1.06px;fill:url(#New_Gradient_Swatch_2);}.cls-3{fill:url(#New_Gradient_Swatch_2-2);}.cls-4{fill:#184782;}.cls-5{fill:#22356c;}.cls-6{fill:#286dae;}.cls-7{clip-path:url(#clip-path);}.cls-8{fill:#94d8e9;stroke:#c8e9f2;stroke-linejoin:round;stroke-width:0.94px;}.cls-9{fill:#64cbe2;}.cls-10{fill:#c8e9f2;}.cls-11{opacity:0.8;}</style><linearGradient id="New_Gradient_Swatch_2" x1="38.05" y1="53.91" x2="38.05" y2="70.74" gradientUnits="userSpaceOnUse"><stop offset="0" stop-color="#fff" /><stop offset="1" stop-color="#f2f2f2" /></linearGradient><linearGradient id="New_Gradient_Swatch_2-2" x1="36" y1="24.22" x2="36" y2="7.14" xlink:href="#New_Gradient_Swatch_2" /><clipPath id="clip-path" transform="translate(2.05 7.22)"><rect class="cls-1" x="6.61" y="6.61" width="58.79" height="58.79" /></clipPath></defs><title>D0340_cephalmetric_radiographic_image</title><rect class="cls-4" x="9.65" y="14.83" width="56.79" height="56.79" /><path class="cls-5" d="M63.39,8.61V63.39H8.61V8.61H63.39m2-2H6.61V65.39H65.39V6.61Z" transform="translate(2.05 7.22)" /><rect class="cls-6" x="53.69" y="66.01" width="10.74" height="1.29" /><rect class="cls-6" x="53.69" y="68.34" width="10.74" height="1.29" /><g class="cls-7"><path class="cls-8" d="M54.35,33.79s-2.78.47-2.78-.83,3.34-6.26,3.34-6.26-1.26-1.95-2.44-4.23-.38-4.19.32-6.1S53.69,5.88,44-2.58,14.2-4.31,10.56-2.51C8.69-1.58-3.47,3.08-1.32,21S14.32,37.16,16.17,37.21s2.33,1.85,4.47,1.55,5-3.81,5.79-3.12,1.37,7.34,2,10.64,4,4.4,7,5S47.38,53.49,51,54.08c4.53.73,3.83-4.73,3.25-6.31a2.22,2.22,0,0,1,.33-2.41s-12.87.28-15.42-.35-3.2-3.12-3.39-4.78c-.35-3-.88-8.27-.88-8.27l2.4,1.41S38,39.81,39,40.15s15.77-.65,15.77-.65a5.13,5.13,0,0,0,.49-3C55.16,34.37,54.35,33.79,54.35,33.79ZM49.42,18.73c0,1.51.64,4.71-.65,6s-4.84,2.82-5.91,1.83-2.78-4.41-2.25-5.76,5.7-2.9,7-3.33S49.42,17.54,49.42,18.73Z" transform="translate(2.05 7.22)" /><path class="cls-9" d="M52,52.46a2.9,2.9,0,0,1-.71,0c-3.63-.59-12.61-2.2-15.49-2.78-3.65-.74-5.36-1.84-5.71-3.67-.19-1-.38-2.43-.58-3.9-.74-5.46-1.05-6.94-2-7.72A2.09,2.09,0,0,0,26,33.89,6.25,6.25,0,0,0,23,35.49a8.71,8.71,0,0,1-2.62,1.61h-.1c-.44,0-.66-.1-1.25-.5a5,5,0,0,0-2.85-1.08h-.65C6.54,35.8,1.56,31,.34,20.8-.92,10.31,2.64,3,10.9-.82L11.3-1A52.87,52.87,0,0,1,26.95-4.91c4.93-.44,11.7-.18,16,3.59,9.09,8,8.72,15.89,8.27,17.11l-.1.26c-.12.33-.25.67-.37,1a2.59,2.59,0,0,0-.57-.76,2.65,2.65,0,0,0-2.1-.66,4.37,4.37,0,0,0-1.05.24l-.58.19c-4.3,1.42-6.76,2.5-7.39,4.11-.92,2.33,1.4,6.42,2.67,7.6a3.28,3.28,0,0,0,2.64.75A10.44,10.44,0,0,0,50,25.93a4.49,4.49,0,0,0,1.16-2.43c.67,1.27,1.34,2.41,1.8,3.17-1.5,2.3-3,5-3,6.3a2.38,2.38,0,0,0,.78,1.77,3.83,3.83,0,0,0,2.76.81,5,5,0,0,1,.14,1.05,7.07,7.07,0,0,1-.06,1.31c-5.66.37-11.62.67-13.6.65a32.31,32.31,0,0,1-1-5.36l-.09-.84-6-3.51.33,3.28c0,.05.53,5.3.88,8.3.51,4.3,2.81,5.75,4.65,6.21,2.1.53,9.74.5,13.65.44a4.69,4.69,0,0,0,.28,1.28c.34.94.51,2.91,0,3.75A.78.78,0,0,1,52,52.46Z" transform="translate(2.05 7.22)" /><path class="cls-10" d="M41.28,46.13c0,.58-.28.89-.18.95s.7-.17.9-.67c.31-.79,0-1.23,0-1.64,0-.21.17-.21.19-.57l.06-1.06a.47.47,0,0,0-.45-.49l-.74,0c-.17,0-.25.13-.35.12s-.16-.15-.33-.16l-.74,0a.47.47,0,0,0-.51.43L39.11,44c0,.36.13.38.12.59,0,.41-.37.82-.15,1.64.14.52.65.84.81.77s-.12-.38-.07-1a.73.73,0,1,1,1.45.08Z" transform="translate(2.05 7.22)" /><path class="cls-10" d="M44.64,46.31c0,.58-.24.9-.14,1s.69-.2.86-.71c.28-.8,0-1.23,0-1.64,0-.21.16-.22.16-.58V43.28a.47.47,0,0,0-.48-.47H44.3c-.17,0-.24.14-.34.14s-.17-.14-.34-.15h-.74a.47.47,0,0,0-.49.46V44.3c0,.36.15.37.15.58,0,.41-.33.84-.07,1.64.16.52.69.81.85.73s-.14-.38-.12-1a.73.73,0,1,1,1.45,0Z" transform="translate(2.05 7.22)" /><path class="cls-10" d="M46.72,42.48a3.54,3.54,0,0,1,.94.59c.23.2.18.3.15.53a6.35,6.35,0,0,1-.25,1.09c-.07.17-.17.19-.19.41a4,4,0,0,1-.72,2.08A4,4,0,0,1,46,45.09c0-.22-.13-.24-.19-.41a6.35,6.35,0,0,1-.24-1.1c0-.23-.07-.33.16-.52a3.54,3.54,0,0,1,1-.57Z" transform="translate(2.05 7.22)" /><path class="cls-10" d="M48.88,42.47a3.54,3.54,0,0,1,1,.55c.24.19.19.29.17.52a6.35,6.35,0,0,1-.21,1.1c-.06.17-.16.2-.18.42a4,4,0,0,1-.64,2.1,4,4,0,0,1-.76-2.06c0-.22-.13-.24-.2-.41a6.35,6.35,0,0,1-.28-1.09c0-.23-.08-.33.14-.53a3.54,3.54,0,0,1,.93-.61Z" transform="translate(2.05 7.22)" /><path class="cls-10" d="M51,42.58a3,3,0,0,1,.82.56c.21.19.16.29.15.52a7.28,7.28,0,0,1-.18,1.1c0,.17-.14.2-.15.42a4.44,4.44,0,0,1-.54,2.1,4.45,4.45,0,0,1-.66-2.07c0-.22-.12-.24-.17-.41A7.28,7.28,0,0,1,50,43.71c0-.23-.07-.33.12-.53a3,3,0,0,1,.79-.6Z" transform="translate(2.05 7.22)" /><path class="cls-10" d="M53.47,45.08c0-.21.22-.23.2-.58l0-1.38c0-.27-.17-.45-.34-.44l-.93,0c-.17,0-.32.2-.31.46l0,1.38c0,.35.23.36.24.56a3.76,3.76,0,0,0,.63,2A3.7,3.7,0,0,0,53.47,45.08Z" transform="translate(2.05 7.22)" /><path class="cls-10" d="M46.62,45.14a1.14,1.14,0,0,0-.22-.56,5.21,5.21,0,0,1-.21-.94h0c.15-.11.34-.24.48-.32.14.08.33.22.47.33h0a5.92,5.92,0,0,1-.22.93,1.1,1.1,0,0,0-.23.57c0,.09,0,.17,0,.26Q46.63,45.28,46.62,45.14Z" transform="translate(2.05 7.22)" /><path class="cls-10" d="M48.87,45.13a1.15,1.15,0,0,0-.24-.55,5.18,5.18,0,0,1-.24-.93h0c.14-.12.33-.25.46-.34.14.08.34.21.48.31h0a5.92,5.92,0,0,1-.18.94,1.11,1.11,0,0,0-.21.57c0,.09,0,.17,0,.26C48.9,45.3,48.88,45.22,48.87,45.13Z" transform="translate(2.05 7.22)" /><path class="cls-10" d="M51,45a1.31,1.31,0,0,0-.12-.23,6,6,0,0,1-.22-1v0l.3-.26.32.24v0a6.8,6.8,0,0,1-.15,1A1.26,1.26,0,0,0,51,45Z" transform="translate(2.05 7.22)" /><path class="cls-10" d="M52.88,44.82a1.14,1.14,0,0,0-.13-.18l0-1.14H53l0,1.13A1.21,1.21,0,0,0,52.88,44.82Z" transform="translate(2.05 7.22)" /><path class="cls-10" d="M41.35,45a1.34,1.34,0,0,0-.73-.26h-.2a1.34,1.34,0,0,0-.56.18s0-.09,0-.14a1,1,0,0,0-.11-.53l0-.91.43,0a.82.82,0,0,0,.45.17h.11a.85.85,0,0,0,.35-.12l.43,0,0,.85a1.38,1.38,0,0,0-.19.57S41.35,45,41.35,45Z" transform="translate(2.05 7.22)" /><path class="cls-10" d="M44.66,45.17a1.33,1.33,0,0,0-.74-.23h-.13a1.33,1.33,0,0,0-.61.21s0-.09,0-.14a1,1,0,0,0-.14-.53v-.91h.44a.83.83,0,0,0,.45.15H44a.84.84,0,0,0,.38-.14h.43v.85a1.37,1.37,0,0,0-.16.58S44.65,45.13,44.66,45.17Z" transform="translate(2.05 7.22)" /><path class="cls-10" d="M46.65,44.48c0-.06-.1-.41-.14-.67l.19-.13.18.13a6.65,6.65,0,0,1-.17.69l0,0Z" transform="translate(2.05 7.22)" /><path class="cls-10" d="M48.88,44.47c0-.06-.12-.4-.17-.66l.18-.13.19.12a6.73,6.73,0,0,1-.14.69l0,0Z" transform="translate(2.05 7.22)" /><path class="cls-10" d="M41.07,44.45a1.79,1.79,0,0,0-.4-.07h-.25l-.15,0a1.48,1.48,0,0,0-.06-.19l0-.37a1.17,1.17,0,0,0,.48.13h.17a1.21,1.21,0,0,0,.32-.07l0,.33A2.37,2.37,0,0,0,41.07,44.45Z" transform="translate(2.05 7.22)" /><path class="cls-10" d="M44.36,44.64a1.77,1.77,0,0,0-.4-.05H43.8l-.24,0a1.42,1.42,0,0,0-.07-.19v-.37a1.16,1.16,0,0,0,.48.11h.1a1.25,1.25,0,0,0,.39-.1v.33C44.41,44.49,44.38,44.57,44.36,44.64Z" transform="translate(2.05 7.22)" /><path class="cls-10" d="M41.8,39c0-.58-.23-.9-.13-1s.68.21.85.72c.27.8-.05,1.23-.06,1.64,0,.21.15.22.15.58v1.06a.47.47,0,0,1-.48.46H41.4c-.17,0-.24-.14-.34-.14s-.17.14-.34.14H40a.47.47,0,0,1-.48-.46V41c0-.36.15-.37.16-.58,0-.41-.32-.84,0-1.64.17-.51.7-.8.86-.72s-.15.38-.13,1a.73.73,0,1,0,1.45,0Z" transform="translate(2.05 7.22)" /><path class="cls-10" d="M45,39c0-.58-.23-.9-.13-1s.69.2.86.71c.27.8,0,1.23,0,1.64,0,.21.16.22.16.58V42a.47.47,0,0,1-.48.47h-.74c-.17,0-.24-.14-.34-.14s-.17.14-.34.14h-.74a.47.47,0,0,1-.48-.46V41c0-.36.15-.37.15-.58,0-.41-.32-.84-.06-1.64.17-.51.7-.81.85-.72s-.14.38-.12,1A.73.73,0,1,0,45,39Z" transform="translate(2.05 7.22)" /><path class="cls-10" d="M47.28,42.62a3.54,3.54,0,0,0,.9-.65c.22-.21.16-.31.12-.54A6.35,6.35,0,0,0,48,40.36c-.08-.17-.18-.18-.22-.4a4,4,0,0,0-.86-2,4,4,0,0,0-.54,2.13c0,.22-.11.25-.16.43A6.35,6.35,0,0,0,46,41.61c0,.23-.05.34.2.51a3.54,3.54,0,0,0,1,.51Z" transform="translate(2.05 7.22)" /><path class="cls-10" d="M49.71,42.65a3.54,3.54,0,0,0,.91-.63c.22-.21.17-.3.13-.53a6.35,6.35,0,0,0-.31-1.08c-.07-.17-.18-.19-.21-.4a4,4,0,0,0-.82-2,4,4,0,0,0-.58,2.12c0,.22-.11.25-.17.42a6.35,6.35,0,0,0-.18,1.11c0,.23-.06.33.19.51a3.54,3.54,0,0,0,1,.53Z" transform="translate(2.05 7.22)" /><path class="cls-10" d="M51.82,42.56a3,3,0,0,0,.79-.61c.19-.2.15-.3.12-.53a7.28,7.28,0,0,0-.25-1.09c-.06-.17-.15-.19-.18-.41a4.44,4.44,0,0,0-.67-2.06A4.45,4.45,0,0,0,51.1,40c0,.22-.1.24-.15.42a7.28,7.28,0,0,0-.17,1.1c0,.23-.05.33.15.52a3,3,0,0,0,.83.55Z" transform="translate(2.05 7.22)" /><path class="cls-10" d="M54.1,39.76c0,.21.23.21.24.56l.05,1.38c0,.27-.14.46-.31.47l-.93,0c-.17,0-.33-.17-.34-.44l-.05-1.38c0-.35.2-.37.2-.58a3.76,3.76,0,0,1,.49-2A3.7,3.7,0,0,1,54.1,39.76Z" transform="translate(2.05 7.22)" /><path class="cls-10" d="M41.53,41.74a.83.83,0,0,0-.45-.14H41a.83.83,0,0,0-.38.14h-.43v-.85a1.37,1.37,0,0,0,.16-.58s0-.09,0-.14a1.33,1.33,0,0,0,.74.22h.12a1.33,1.33,0,0,0,.62-.22s0,.09,0,.14a1,1,0,0,0,.14.52v.91Z" transform="translate(2.05 7.22)" /><path class="cls-10" d="M44.76,41.73a.82.82,0,0,0-.46-.14h0a.93.93,0,0,0-.44.15h-.43v-.85a1.37,1.37,0,0,0,.15-.58s0-.09,0-.14a1.33,1.33,0,0,0,.74.22h.11a1.33,1.33,0,0,0,.63-.22s0,.09,0,.14a1,1,0,0,0,.14.52l0,.91Z" transform="translate(2.05 7.22)" /><path class="cls-10" d="M47.2,41.8c-.14-.07-.35-.19-.5-.29h0a5.81,5.81,0,0,1,.14-.95A1.11,1.11,0,0,0,47,40c0-.09,0-.18,0-.26,0,.08,0,.17.06.25a1.14,1.14,0,0,0,.26.55,5.19,5.19,0,0,1,.29.92h0C47.51,41.56,47.33,41.71,47.2,41.8Z" transform="translate(2.05 7.22)" /><path class="cls-10" d="M49.65,41.82c-.14-.07-.35-.2-.49-.29h0a5.77,5.77,0,0,1,.16-.94,1.12,1.12,0,0,0,.2-.58c0-.09,0-.17,0-.26,0,.08,0,.17.05.25a1.14,1.14,0,0,0,.25.55,5.27,5.27,0,0,1,.27.92h0C50,41.59,49.78,41.74,49.65,41.82Z" transform="translate(2.05 7.22)" /><path class="cls-10" d="M51.78,41.69l-.32-.24v0a6.78,6.78,0,0,1,.15-1,1.36,1.36,0,0,0,.12-.25,1.26,1.26,0,0,0,.12.23,6,6,0,0,1,.23,1v0Z" transform="translate(2.05 7.22)" /><path class="cls-10" d="M53.49,41.4l0-1.14a1.21,1.21,0,0,0,.11-.19,1.13,1.13,0,0,0,.13.18l0,1.14Z" transform="translate(2.05 7.22)" /><path class="cls-10" d="M41.56,41.27a1.16,1.16,0,0,0-.48-.1H41a1.24,1.24,0,0,0-.39.1v-.33c0-.07.06-.15.09-.22a1.78,1.78,0,0,0,.4,0h.14l.26,0a1.41,1.41,0,0,0,.07.19Z" transform="translate(2.05 7.22)" /><path class="cls-10" d="M44.78,41.26a1.18,1.18,0,0,0-.48-.1h0a1.54,1.54,0,0,0-.47.11v-.34c0-.07.06-.15.08-.22a1.74,1.74,0,0,0,.4,0h.13l.27,0a1.52,1.52,0,0,0,.08.19Z" transform="translate(2.05 7.22)" /><path class="cls-10" d="M47,41.35a6.42,6.42,0,0,1,.11-.7l0,0,0,.05c0,.06.13.4.2.65l-.18.14Z" transform="translate(2.05 7.22)" /><path class="cls-10" d="M49.44,41.37a6.41,6.41,0,0,1,.12-.7l0,0,0,.05c0,.06.13.4.19.66l-.18.14Z" transform="translate(2.05 7.22)" /></g><g class="cls-11"><path class="cls-5" d="M63.39,8.61V63.39H8.61V8.61H63.39m2-2H6.61V65.39H65.39V6.61Z" transform="translate(2.05 7.22)" /></g></svg>