<svg id="D0363_-_cone_beam_3d_reconstruction" data-name="D0363 - cone beam 3d reconstruction" xmlns="http://www.w3.org/2000/svg" xmlns:xlink="http://www.w3.org/1999/xlink" viewBox="0 0 69.46 69.46"><defs><style>.cls-1{stroke:#dcddde;stroke-width:1.06px;fill:url(#New_Gradient_Swatch_2);}.cls-1,.cls-6,.cls-8{stroke-miterlimit:10;}.cls-2{fill:url(#New_Gradient_Swatch_2-2);}.cls-3{fill:#eaeeef;}.cls-4{fill:#fff;}.cls-5{fill:#d8dee0;}.cls-6,.cls-8{fill:none;stroke-width:1.3px;}.cls-6{stroke:#0b4f94;}.cls-7{fill:#0b4f94;}.cls-8{stroke:#00b3de;}.cls-9{font-size:14px;fill:#00b3de;font-family:ProximaNova-Bold, Proxima Nova;font-weight:700;}</style><linearGradient id="New_Gradient_Swatch_2" x1="34.73" y1="45.42" x2="34.73" y2="62.25" gradientUnits="userSpaceOnUse"><stop offset="0" stop-color="#fff" /><stop offset="1" stop-color="#f2f2f2" /></linearGradient><linearGradient id="New_Gradient_Swatch_2-2" x1="36" y1="24.22" x2="36" y2="7.14" xlink:href="#New_Gradient_Swatch_2" /></defs><title>D0363_cone_beam_3d_reconstruction</title><path class="cls-3" d="M40.45,39.48c.13,4.9-1.86,8.27-1,8.48,1.25.33,5.57-3.53,7-8.35C48.55,32.08,46,29.25,46,25.75c0-1.8,1.25-2.3,1.25-5.36v-9C47.21,9,45.38,8,43.29,8.68l-6,1.92c-1.39.45-1.95,1.83-2.76,2.09s-1.37-.77-2.76-.32l-6,1.92a5.78,5.78,0,0,0-3.92,5.19v9c0,3.06,1.25,2.75,1.25,4.56,0,3.5-2.6,8-.42,14.13,1.39,3.93,5.71,5,7,3.89.82-.74-1.18-2.83-1-7.82.12-4.33,2.88-7.91,5.92-8.88S40.33,35.23,40.45,39.48Z" transform="translate(-1.46 -1.48)" /><path class="cls-4" d="M35.6,34.16v-.54A11,11,0,0,0,27,40.69c-1.87,5.26.71,9.19,2.48,10.49l.14-.09c.82-.74-1.18-2.83-1-7.82.12-4.33,2.88-7.91,5.92-8.88A5.37,5.37,0,0,1,35.6,34.16Z" transform="translate(-1.46 -1.48)" /><path class="cls-5" d="M24.56,48.45A13.51,13.51,0,0,1,23,41.06c0-2.38,1.28-5.92,1.42-8.2S23,30.42,23,28V19.33a11.38,11.38,0,0,1,.8-3.89,5.55,5.55,0,0,0-1.94,4v9c0,3.06,1.25,2.75,1.25,4.56,0,3.5-2.6,8-.42,14.13a6.29,6.29,0,0,0,5.72,4.31A6.34,6.34,0,0,1,24.56,48.45Z" transform="translate(-1.46 -1.48)" /><path class="cls-4" d="M46.37,39.62C48.55,32.08,46,29.25,46,25.75c0-1.8,1.25-2.3,1.25-5.36v-9C47.21,9,45.38,8,43.29,8.68l-6,1.92c-1.39.45-1.95,1.83-2.76,2.09s-1.37-.77-2.76-.32l-6,1.92a5.83,5.83,0,0,0-3.9,4.86,4.75,4.75,0,0,1,2-1.2L32,15.33c1-.32,1.2.22,2.51-.2s1.34-1,2.71-1.47l3.23-1c2.88-.92,3.43.15,3.43,2.59V21c0,3.74-1.24,3.77-1.24,5.71s.82,1.89,1.37,7.25c.36,3.55-1.65,9.87-4.53,13.09l-.28.33c0,.36,0,.58.18.62C40.66,48.3,45,44.44,46.37,39.62Z" transform="translate(-1.46 -1.48)" /><path class="cls-5" d="M39.45,47.21A36.17,36.17,0,0,0,41,42.95c.72-2.74.76-5.63-.48-7.63s-3.48-2-5.22-1.6l.07.48c2.68-.41,5,1.44,5.07,5.29a26,26,0,0,1-1.14,7.42Z" transform="translate(-1.46 -1.48)" /><path class="cls-6" d="M40.45,39.48c.13,4.9-1.86,8.27-1,8.48,1.25.33,5.57-3.53,7-8.35C48.55,32.08,46,29.25,46,25.75c0-1.8,1.25-2.3,1.25-5.36v-9C47.21,9,45.38,8,43.29,8.68l-6,1.92c-1.39.45-1.95,1.83-2.76,2.09s-1.37-.77-2.76-.32l-6,1.92a5.78,5.78,0,0,0-3.92,5.19v9c0,3.06,1.25,2.75,1.25,4.56,0,3.5-2.6,8-.42,14.13,1.39,3.93,5.71,5,7,3.89.82-.74-1.18-2.83-1-7.82.12-4.33,2.88-7.91,5.92-8.88S40.33,35.23,40.45,39.48Z" transform="translate(-1.46 -1.48)" /><polygon class="cls-7" points="58.31 16.92 44.96 6.83 34.92 9.56 33.68 11.3 30.31 10.88 22.34 13.96 20.56 15.77 20.4 28.81 21.64 31.05 21.33 34.03 20.25 40.11 21.02 44.96 23.46 49.62 35.91 59.14 33.75 55.32 37.45 48.61 40.85 49.48 50.31 56.84 54.9 54.2 58.61 46.62 55.67 37.43 58.61 21.91 58.31 16.92" /><path class="cls-3" d="M53.48,49.47c.13,4.9-1.86,8.27-1,8.48,1.25.33,5.57-3.53,7-8.35C61.59,42.06,59,39.24,59,35.74c0-1.8,1.25-2.3,1.25-5.36v-9c0-2.33-1.83-3.35-3.92-2.68l-6,1.92c-1.39.45-1.95,1.83-2.76,2.09s-1.37-.77-2.76-.32l-6,1.92a5.78,5.78,0,0,0-3.92,5.19v9c0,3.06,1.25,2.75,1.25,4.56,0,3.5-2.6,8-.42,14.13,1.39,3.93,5.71,5,7,3.89.82-.74-1.18-2.83-1-7.82.12-4.33,2.88-7.91,5.92-8.88S53.37,45.22,53.48,49.47Z" transform="translate(-1.46 -1.48)" /><path class="cls-4" d="M48.63,44.15v-.54a11,11,0,0,0-8.57,7.06c-1.87,5.26.71,9.19,2.48,10.49l.14-.09c.82-.74-1.18-2.83-1-7.82.12-4.33,2.88-7.91,5.92-8.88A5.37,5.37,0,0,1,48.63,44.15Z" transform="translate(-1.46 -1.48)" /><path class="cls-5" d="M37.6,58.43A13.51,13.51,0,0,1,36,51c0-2.38,1.28-5.92,1.42-8.2S36,40.4,36,38V29.31a11.38,11.38,0,0,1,.8-3.89,5.55,5.55,0,0,0-1.94,4v9c0,3.06,1.25,2.75,1.25,4.56,0,3.5-2.6,8-.42,14.13a6.29,6.29,0,0,0,5.72,4.31A6.34,6.34,0,0,1,37.6,58.43Z" transform="translate(-1.46 -1.48)" /><path class="cls-4" d="M59.41,49.6C61.59,42.06,59,39.24,59,35.74c0-1.8,1.25-2.3,1.25-5.36v-9c0-2.33-1.83-3.35-3.92-2.68l-6,1.92c-1.39.45-1.95,1.83-2.76,2.09s-1.37-.77-2.76-.32l-6,1.92a5.83,5.83,0,0,0-3.9,4.86,4.75,4.75,0,0,1,2-1.2l8.17-2.61c1-.32,1.2.22,2.51-.2s1.34-1,2.71-1.47l3.23-1c2.88-.92,3.43.15,3.43,2.59V31c0,3.74-1.24,3.77-1.24,5.71s.82,1.89,1.37,7.25c.36,3.55-1.65,9.87-4.53,13.09l-.28.33c0,.36,0,.58.18.62C53.7,58.28,58,54.42,59.41,49.6Z" transform="translate(-1.46 -1.48)" /><path class="cls-5" d="M52.49,57.2a36.17,36.17,0,0,0,1.56-4.27c.72-2.74.76-5.63-.48-7.63s-3.48-2-5.22-1.6l.07.48c2.68-.41,5,1.44,5.07,5.29a26,26,0,0,1-1.14,7.42Z" transform="translate(-1.46 -1.48)" /><path class="cls-8" d="M53.48,49.47c.13,4.9-1.86,8.27-1,8.48,1.25.33,5.57-3.53,7-8.35C61.59,42.06,59,39.24,59,35.74c0-1.8,1.25-2.3,1.25-5.36v-9c0-2.33-1.83-3.35-3.92-2.68l-6,1.92c-1.39.45-1.95,1.83-2.76,2.09s-1.37-.77-2.76-.32l-6,1.92a5.78,5.78,0,0,0-3.92,5.19v9c0,3.06,1.25,2.75,1.25,4.56,0,3.5-2.6,8-.42,14.13,1.39,3.93,5.71,5,7,3.89.82-.74-1.18-2.83-1-7.82.12-4.33,2.88-7.91,5.92-8.88S53.37,45.22,53.48,49.47Z" transform="translate(-1.46 -1.48)" /><text class="cls-9" transform="translate(7.08 62.31)">3D</text></svg>