<svg xmlns="http://www.w3.org/2000/svg" xmlns:xlink="http://www.w3.org/1999/xlink" viewBox="0 0 69.46 77.32"><defs><style>.cls-1,.cls-16,.cls-21,.cls-8{fill:none;}.cls-2{isolation:isolate;}.cls-3{stroke:#dcddde;stroke-width:1.06px;fill:url(#New_Gradient_Swatch_2);}.cls-16,.cls-21,.cls-3,.cls-8{stroke-miterlimit:10;}.cls-4{fill:url(#New_Gradient_Swatch_2-2);}.cls-5{fill:#eaeeef;}.cls-10,.cls-11,.cls-12,.cls-13,.cls-14,.cls-23,.cls-6,.cls-9{fill:#fff;}.cls-7{fill:#d8dee0;}.cls-8{stroke:#b1bfc4;stroke-width:1.4px;}.cls-11,.cls-13,.cls-21,.cls-9{stroke:#fff;}.cls-10,.cls-11,.cls-12,.cls-13,.cls-14,.cls-21,.cls-9{stroke-linecap:round;}.cls-10,.cls-11,.cls-12,.cls-13,.cls-14,.cls-9{stroke-linejoin:round;}.cls-9{stroke-width:1.7px;}.cls-10,.cls-12,.cls-14{stroke:#acdcf6;}.cls-10{stroke-width:0.74px;}.cls-11{stroke-width:1.16px;}.cls-12{stroke-width:0.5px;}.cls-13{stroke-width:0.78px;}.cls-14{stroke-width:0.34px;}.cls-15{clip-path:url(#clip-path);}.cls-16{stroke:#6f8f97;stroke-width:2.8px;}.cls-17{fill:#ffcf75;}.cls-18{fill:#181a1d;opacity:0.07;mix-blend-mode:multiply;}.cls-19{fill:#64cbe2;}.cls-20,.cls-23{opacity:0.3;}.cls-21{stroke-width:0.67px;}.cls-22{fill:#0b4f94;}</style><linearGradient id="New_Gradient_Swatch_2" x1="34.73" y1="45.42" x2="34.73" y2="62.25" gradientUnits="userSpaceOnUse"><stop offset="0" stop-color="#fff" /><stop offset="1" stop-color="#f2f2f2" /></linearGradient><linearGradient id="New_Gradient_Swatch_2-2" x1="36" y1="24.22" x2="36" y2="7.14" xlink:href="#New_Gradient_Swatch_2" /><clipPath id="clip-path" transform="translate(-1.27 -1.27)"><path class="cls-1" d="M5.2,66.8C6.4,65.6,6.4,6.4,5.2,5.2,6.4,6.4,65.6,6.4,66.8,5.2,65.6,6.4,65.6,65.6,66.8,66.8,65.6,65.6,6.4,65.6,5.2,66.8Z" /></clipPath></defs><title>D1110_prophylaxis_adult</title><g class="cls-2"><g id="D1110_-_prophylaxis_adult" data-name="D1110 - prophylaxis adult"><path class="cls-5" d="M44.36,50.49c.19,6.68-2.63,10.37-1.47,11,1.77,1,7.88-2.36,9.85-8.27,3.08-9.24-.59-14.18-.59-18.91,0-2.44,1.77-2.56,1.77-6.7V15.42a5.36,5.36,0,0,0-5.54-5.32H39.9c-2,0-2.75,1.63-3.9,1.63s-1.93-1.63-3.9-1.63H23.62a5.36,5.36,0,0,0-5.54,5.32V27.63c0,4.14,1.77,4.26,1.77,6.7,0,4.73-3.67,9.66-.59,18.91,2,5.91,8.08,9.26,9.85,8.27,1.15-.64-1.66-4.34-1.47-11,.17-5.8,4.07-9.44,8.36-9.44S44.19,44.7,44.36,50.49Z" transform="translate(-1.27 -1.27)" /><path class="cls-5" d="M44.36,50.72c.19,6.68-2.63,10.37-1.47,11,1.77,1,7.88-2.36,9.85-8.27,3.08-9.24-.59-14.18-.59-18.91,0-2.44,1.77-2.56,1.77-6.7V15.64a5.36,5.36,0,0,0-5.54-5.32H39.9c-2,0-2.75,1.63-3.9,1.63s-1.93-1.63-3.9-1.63H23.62a5.36,5.36,0,0,0-5.54,5.32V27.85c0,4.14,1.77,4.26,1.77,6.7,0,4.73-3.67,9.66-.59,18.91,2,5.91,8.08,9.26,9.85,8.27,1.15-.64-1.66-4.34-1.47-11,.17-5.8,4.07-9.44,8.36-9.44S44.19,44.92,44.36,50.72Z" transform="translate(-1.27 -1.27)" /><path class="cls-6" d="M37.51,41.21l0-.72s-8.94-1.73-12.11,5.84c-2.64,6.3,1,12.72,3.5,15.25a1.28,1.28,0,0,0,.19-.07c1.15-.64-1.66-4.34-1.47-11,.17-5.8,4.07-9.44,8.36-9.44A7.55,7.55,0,0,1,37.51,41.21Z" transform="translate(-1.27 -1.27)" /><path class="cls-7" d="M21.9,55.74a20.88,20.88,0,0,1-2.21-10.66c0-3.22,1.81-7.44,2-10.46s-2-3.92-2-7.14V15.72a12.13,12.13,0,0,1,1.13-4.91,5.16,5.16,0,0,0-2.75,4.61V27.63c0,4.14,1.77,4.26,1.77,6.7,0,4.73-3.67,9.66-.59,18.91,1.53,4.58,5.54,7.61,8.09,8.29A13.79,13.79,0,0,1,21.9,55.74Z" transform="translate(-1.27 -1.27)" /><path class="cls-6" d="M52.74,53.23c3.08-9.24-.59-14.18-.59-18.91,0-2.44,1.77-2.56,1.77-6.7V15.42a5.36,5.36,0,0,0-5.54-5.32H39.9c-2,0-2.75,1.63-3.9,1.63s-1.93-1.63-3.9-1.63H23.62A5.38,5.38,0,0,0,18.1,15a4.91,4.91,0,0,1,2.8-.76H32.45c1.42,0,1.7.82,3.55.82s1.89-.81,3.83-.81h4.56c4.08,0,4.85,1.69,4.85,5V27c0,5-1.75,4.56-1.75,7.18s1.16,2.91,1.94,10.38c.52,5-2.33,12.62-6.41,15.72a5.05,5.05,0,0,0-.39.33c-.07.46,0,.77.25.92C44.66,62.49,50.77,59.14,52.74,53.23Z" transform="translate(-1.27 -1.27)" /><path class="cls-7" d="M43,60.51a34.36,34.36,0,0,0,2.21-5.09,13.89,13.89,0,0,0-.68-10.52,8.62,8.62,0,0,0-7.38-4.41l.1.68c3.79.61,7,4.08,7.16,9.33A28.87,28.87,0,0,1,42.75,60Z" transform="translate(-1.27 -1.27)" /><path class="cls-8" d="M44.36,50.49c.19,6.68-2.63,10.37-1.47,11,1.77,1,7.88-2.36,9.85-8.27,3.08-9.24-.59-14.18-.59-18.91,0-2.44,1.77-2.56,1.77-6.7V15.42a5.36,5.36,0,0,0-5.54-5.32H39.9c-2,0-2.75,1.63-3.9,1.63s-1.93-1.63-3.9-1.63H23.62a5.36,5.36,0,0,0-5.54,5.32V27.63c0,4.14,1.77,4.26,1.77,6.7,0,4.73-3.67,9.66-.59,18.91,2,5.91,8.08,9.26,9.85,8.27,1.15-.64-1.66-4.34-1.47-11,.17-5.8,4.07-9.44,8.36-9.44S44.19,44.7,44.36,50.49Z" transform="translate(-1.27 -1.27)" /><path class="cls-9" d="M25.4,27.21a1.66,1.66,0,0,0,1.41-1.41l.5-3.51.5,3.51a1.66,1.66,0,0,0,1.41,1.41l3.51.5-3.51.5a1.66,1.66,0,0,0-1.41,1.41l-.5,3.51-.5-3.51A1.66,1.66,0,0,0,25.4,28.2l-3.51-.5Z" transform="translate(-1.27 -1.27)" /><path class="cls-10" d="M25.23,27a1.66,1.66,0,0,0,1.41-1.41l.5-3.51.5,3.51A1.66,1.66,0,0,0,29,27l3.51.5L29,28a1.66,1.66,0,0,0-1.41,1.41l-.5,3.51-.5-3.51A1.66,1.66,0,0,0,25.23,28l-3.51-.5Z" transform="translate(-1.27 -1.27)" /><path class="cls-11" d="M45,19a1.13,1.13,0,0,0,1-1l.34-2.39.34,2.39a1.13,1.13,0,0,0,1,1l2.39.34-2.39.34a1.13,1.13,0,0,0-1,1l-.34,2.39-.34-2.39a1.13,1.13,0,0,0-1-1l-2.39-.34Z" transform="translate(-1.27 -1.27)" /><path class="cls-12" d="M44.84,18.9a1.13,1.13,0,0,0,1-1l.34-2.39.34,2.39a1.13,1.13,0,0,0,1,1l2.39.34-2.39.34a1.13,1.13,0,0,0-1,1l-.34,2.39-.34-2.39a1.13,1.13,0,0,0-1-1l-2.39-.34Z" transform="translate(-1.27 -1.27)" /><path class="cls-13" d="M30.57,15.12a.76.76,0,0,0,.65-.65l.23-1.62.23,1.62a.76.76,0,0,0,.65.65l1.62.23-1.62.23a.76.76,0,0,0-.65.65l-.23,1.62-.23-1.62a.76.76,0,0,0-.65-.65L29,15.35Z" transform="translate(-1.27 -1.27)" /><path class="cls-14" d="M30.5,15a.76.76,0,0,0,.65-.65l.23-1.62.23,1.62a.76.76,0,0,0,.65.65l1.62.23-1.62.23a.76.76,0,0,0-.65.65l-.23,1.62-.23-1.62a.76.76,0,0,0-.65-.65l-1.62-.23Z" transform="translate(-1.27 -1.27)" /><g class="cls-15"><path class="cls-16" d="M48.92,29.66c.75-2.06.28-3.46-1.56-4.13l-8.23-3s-.29.11-.77.87l-4-2.11s-1.07.07-2.15,3-.52,4.3-.52,4.3l4.46,1.09a3.47,3.47,0,0,0,0,1.16l4.65,1.69c.87.32,1.3.47.94,1.45l-6.3,17.32A5.61,5.61,0,0,1,33,54.12l-.5-.06L25.33,73.65,34,76.8l7.13-19.59-.61-.37a5.1,5.1,0,0,1-.14-3.69Z" transform="translate(-1.27 -1.27)" /><path class="cls-17" d="M31.65,28.62l6.62,1.61,2.1-5.77L34.32,21.3s-1.07.07-2.15,3S31.65,28.62,31.65,28.62Z" transform="translate(-1.27 -1.27)" /><path class="cls-18" d="M40.38,24.46,37.76,23.1a18.72,18.72,0,0,0-1.28,2.15,9.81,9.81,0,0,0-1,2.76l-4-1a3.8,3.8,0,0,0,.12,1.61l6.62,1.61Z" transform="translate(-1.27 -1.27)" /><path class="cls-19" d="M39.13,22.54s-.85.3-2.11,3.77-.93,4.57-.93,4.57l4.65,1.69c.87.32,1.3.47.94,1.45l-6.3,17.32a5.68,5.68,0,0,1-2.57,2.87L40.6,57a5.15,5.15,0,0,1-.23-3.88l8.55-23.49c.75-2.06.28-3.46-1.56-4.13Z" transform="translate(-1.27 -1.27)" /><g class="cls-20"><path class="cls-6" d="M40.37,53.14l8.55-23.49c.75-2.06.28-3.46-1.56-4.13l-.56-.2a3.3,3.3,0,0,1,.6,3.78L38.71,53a24.13,24.13,0,0,0-.65,3.11L40.6,57A5.15,5.15,0,0,1,40.37,53.14Z" transform="translate(-1.27 -1.27)" /><line class="cls-21" x1="36.34" y1="49.23" x2="38.97" y2="50.26" /><line class="cls-21" x1="36.84" y1="47.75" x2="39.47" y2="48.78" /><line class="cls-21" x1="37.34" y1="46.27" x2="39.97" y2="47.3" /><line class="cls-21" x1="37.84" y1="44.8" x2="40.47" y2="45.82" /><line class="cls-21" x1="38.35" y1="43.32" x2="40.97" y2="44.34" /></g><path class="cls-22" d="M34,76.8l-8.66-3.15,7.13-19.59a20.07,20.07,0,0,1,4.42,1,23.61,23.61,0,0,1,4.24,2.16Z" transform="translate(-1.27 -1.27)" /><path class="cls-23" d="M31.4,75.86,34,76.8l7.13-19.59a25.25,25.25,0,0,0-2.43-1.37Z" transform="translate(-1.27 -1.27)" /></g></g></g></svg>