<svg xmlns="http://www.w3.org/2000/svg" xmlns:xlink="http://www.w3.org/1999/xlink" viewBox="0 0 69.46 77.32"><defs><style>.cls-1,.cls-16,.cls-21,.cls-8{fill:none;}.cls-2{isolation:isolate;}.cls-3{stroke:#dcddde;stroke-width:1.06px;fill:url(#New_Gradient_Swatch_2);}.cls-16,.cls-21,.cls-3,.cls-8{stroke-miterlimit:10;}.cls-4{fill:url(#New_Gradient_Swatch_2-2);}.cls-5{fill:#eaeeef;}.cls-10,.cls-11,.cls-12,.cls-13,.cls-14,.cls-23,.cls-6,.cls-9{fill:#fff;}.cls-7{fill:#d8dee0;}.cls-8{stroke:#b1bfc4;stroke-width:1.4px;}.cls-11,.cls-13,.cls-21,.cls-9{stroke:#fff;}.cls-10,.cls-11,.cls-12,.cls-13,.cls-14,.cls-21,.cls-9{stroke-linecap:round;}.cls-10,.cls-11,.cls-12,.cls-13,.cls-14,.cls-9{stroke-linejoin:round;}.cls-9{stroke-width:1.7px;}.cls-10,.cls-12,.cls-14{stroke:#acdcf6;}.cls-10{stroke-width:0.74px;}.cls-11{stroke-width:1.16px;}.cls-12{stroke-width:0.5px;}.cls-13{stroke-width:0.78px;}.cls-14{stroke-width:0.34px;}.cls-15{clip-path:url(#clip-path);}.cls-16{stroke:#6f8f97;stroke-width:2.8px;}.cls-17{fill:#aa99c9;}.cls-18{fill:#181a1d;opacity:0.07;mix-blend-mode:multiply;}.cls-19{fill:#64cbe2;}.cls-20,.cls-23{opacity:0.3;}.cls-21{stroke-width:0.67px;}.cls-22{fill:#0b4f94;}</style><linearGradient id="New_Gradient_Swatch_2" x1="34.73" y1="45.42" x2="34.73" y2="62.25" gradientUnits="userSpaceOnUse"><stop offset="0" stop-color="#fff" /><stop offset="1" stop-color="#f2f2f2" /></linearGradient><linearGradient id="New_Gradient_Swatch_2-2" x1="36" y1="24.22" x2="36" y2="7.14" xlink:href="#New_Gradient_Swatch_2" /><clipPath id="clip-path" transform="translate(-1.27 -1.27)"><path class="cls-1" d="M5.2,66.8C6.4,65.6,6.4,6.4,5.2,5.2,6.4,6.4,65.6,6.4,66.8,5.2,65.6,6.4,65.6,65.6,66.8,66.8,65.6,65.6,6.4,65.6,5.2,66.8Z" /></clipPath></defs><title>D1120_prophylaxis_child</title><g class="cls-2"><g id="D1120_-_prophylaxis_child" data-name="D1120 - prophylaxis child"><path class="cls-5" d="M41.62,39.35c.13,4.48-1.76,7-1,7.4,1.19.66,5.29-1.59,6.62-5.56,2.07-6.21-.4-9.53-.4-12.7,0-1.64,1.19-1.72,1.19-4.5v-8.2a3.6,3.6,0,0,0-3.72-3.57H38.62c-1.32,0-1.85,1.09-2.62,1.09s-1.3-1.09-2.62-1.09H27.68A3.6,3.6,0,0,0,24,15.79V24c0,2.78,1.19,2.86,1.19,4.5,0,3.18-2.47,6.49-.4,12.7,1.32,4,5.42,6.22,6.62,5.56.78-.43-1.12-2.91-1-7.4C30.49,35.45,33.12,33,36,33S41.5,35.45,41.62,39.35Z" transform="translate(-1.27 -1.27)" /><path class="cls-5" d="M41.62,39.5c.13,4.48-1.76,7-1,7.4,1.19.66,5.29-1.59,6.62-5.56,2.07-6.21-.4-9.53-.4-12.7,0-1.64,1.19-1.72,1.19-4.5v-8.2a3.6,3.6,0,0,0-3.72-3.57H38.62c-1.32,0-1.85,1.09-2.62,1.09s-1.3-1.09-2.62-1.09H27.68A3.6,3.6,0,0,0,24,15.94v8.2c0,2.78,1.19,2.86,1.19,4.5,0,3.18-2.47,6.49-.4,12.7,1.32,4,5.42,6.22,6.62,5.56.78-.43-1.12-2.91-1-7.4.11-3.89,2.74-6.34,5.62-6.34S41.5,35.61,41.62,39.5Z" transform="translate(-1.27 -1.27)" /><path class="cls-6" d="M37,33.11v-.48s-6-1.16-8.14,3.92c-1.77,4.23.67,8.54,2.35,10.24l.13,0c.78-.43-1.12-2.91-1-7.4C30.49,35.45,33.12,33,36,33A5.07,5.07,0,0,1,37,33.11Z" transform="translate(-1.27 -1.27)" /><path class="cls-7" d="M26.53,42.87A14,14,0,0,1,25,35.71c0-2.16,1.22-5,1.35-7S25,26.05,25,23.89V16a8.15,8.15,0,0,1,.76-3.3A3.47,3.47,0,0,0,24,15.79V24c0,2.78,1.19,2.86,1.19,4.5,0,3.18-2.47,6.49-.4,12.7a9,9,0,0,0,5.43,5.57A9.26,9.26,0,0,1,26.53,42.87Z" transform="translate(-1.27 -1.27)" /><path class="cls-6" d="M47.24,41.19c2.07-6.21-.4-9.53-.4-12.7,0-1.64,1.19-1.72,1.19-4.5v-8.2a3.6,3.6,0,0,0-3.72-3.57H38.62c-1.32,0-1.85,1.09-2.62,1.09s-1.3-1.09-2.62-1.09H27.68A3.61,3.61,0,0,0,24,15.49,3.3,3.3,0,0,1,25.86,15h7.76c1,0,1.14.55,2.38.55S37.27,15,38.57,15h3.06c2.74,0,3.26,1.13,3.26,3.35v5.22c0,3.39-1.17,3.06-1.17,4.82s.78,2,1.3,7c.35,3.33-1.56,8.48-4.3,10.56l-.26.22c0,.31,0,.52.17.62C41.82,47.41,45.92,45.16,47.24,41.19Z" transform="translate(-1.27 -1.27)" /><path class="cls-7" d="M40.67,46.08a23.08,23.08,0,0,0,1.48-3.42,9.33,9.33,0,0,0-.46-7.07,5.79,5.79,0,0,0-5-3l.07.45c2.55.41,4.71,2.74,4.81,6.27a19.39,19.39,0,0,1-1.08,6.4Z" transform="translate(-1.27 -1.27)" /><path class="cls-8" d="M41.62,39.35c.13,4.48-1.76,7-1,7.4,1.19.66,5.29-1.59,6.62-5.56,2.07-6.21-.4-9.53-.4-12.7,0-1.64,1.19-1.72,1.19-4.5v-8.2a3.6,3.6,0,0,0-3.72-3.57H38.62c-1.32,0-1.85,1.09-2.62,1.09s-1.3-1.09-2.62-1.09H27.68A3.6,3.6,0,0,0,24,15.79V24c0,2.78,1.19,2.86,1.19,4.5,0,3.18-2.47,6.49-.4,12.7,1.32,4,5.42,6.22,6.62,5.56.78-.43-1.12-2.91-1-7.4C30.49,35.45,33.12,33,36,33S41.5,35.45,41.62,39.35Z" transform="translate(-1.27 -1.27)" /><path class="cls-9" d="M26.75,25a1.66,1.66,0,0,0,1.41-1.41l.5-3.51.5,3.51A1.66,1.66,0,0,0,30.56,25l3.51.5-3.51.5a1.66,1.66,0,0,0-1.41,1.41l-.5,3.51-.5-3.51A1.66,1.66,0,0,0,26.75,26l-3.51-.5Z" transform="translate(-1.27 -1.27)" /><path class="cls-10" d="M26.58,24.82A1.66,1.66,0,0,0,28,23.41l.5-3.51.5,3.51a1.66,1.66,0,0,0,1.41,1.41l3.51.5-3.51.5A1.66,1.66,0,0,0,29,27.22l-.5,3.51L28,27.22a1.66,1.66,0,0,0-1.41-1.41l-3.51-.5Z" transform="translate(-1.27 -1.27)" /><path class="cls-11" d="M41.21,17.67a1.13,1.13,0,0,0,1-1l.34-2.39.34,2.39a1.13,1.13,0,0,0,1,1L46.2,18l-2.39.34a1.13,1.13,0,0,0-1,1l-.34,2.39-.34-2.39a1.13,1.13,0,0,0-1-1L38.82,18Z" transform="translate(-1.27 -1.27)" /><path class="cls-12" d="M41.1,17.53a1.13,1.13,0,0,0,1-1l.34-2.39.34,2.39a1.13,1.13,0,0,0,1,1l2.39.34-2.39.34a1.13,1.13,0,0,0-1,1l-.34,2.39-.34-2.39a1.13,1.13,0,0,0-1-1l-2.39-.34Z" transform="translate(-1.27 -1.27)" /><path class="cls-13" d="M31.46,14.92a.76.76,0,0,0,.65-.65l.23-1.62.23,1.62a.76.76,0,0,0,.65.65l1.62.23-1.62.23a.76.76,0,0,0-.65.65l-.23,1.62L32.11,16a.76.76,0,0,0-.65-.65l-1.62-.23Z" transform="translate(-1.27 -1.27)" /><path class="cls-14" d="M31.39,14.83a.76.76,0,0,0,.65-.65l.23-1.62.23,1.62a.76.76,0,0,0,.65.65l1.62.23-1.62.23a.76.76,0,0,0-.65.65l-.23,1.62L32,15.94a.76.76,0,0,0-.65-.65l-1.62-.23Z" transform="translate(-1.27 -1.27)" /><g class="cls-15"><path class="cls-16" d="M51.92,29.66c.75-2.06.28-3.46-1.56-4.13l-8.23-3s-.29.11-.77.87l-4-2.11s-1.07.07-2.15,3-.52,4.3-.52,4.3l4.46,1.09a3.47,3.47,0,0,0,0,1.16l4.65,1.69c.87.32,1.3.47.94,1.45l-6.3,17.32A5.61,5.61,0,0,1,36,54.12l-.5-.06L28.33,73.65,37,76.8l7.13-19.59-.61-.37a5.1,5.1,0,0,1-.14-3.69Z" transform="translate(-1.27 -1.27)" /><path class="cls-17" d="M34.66,28.62l6.62,1.61,2.1-5.77L37.32,21.3s-1.07.07-2.15,3S34.66,28.62,34.66,28.62Z" transform="translate(-1.27 -1.27)" /><path class="cls-18" d="M43.38,24.46,40.77,23.1a18.72,18.72,0,0,0-1.28,2.15,9.81,9.81,0,0,0-1,2.76l-4-1a3.8,3.8,0,0,0,.12,1.61l6.62,1.61Z" transform="translate(-1.27 -1.27)" /><path class="cls-19" d="M42.13,22.54s-.85.3-2.11,3.77-.93,4.57-.93,4.57l4.65,1.69c.87.32,1.3.47.94,1.45l-6.3,17.32a5.68,5.68,0,0,1-2.57,2.87L43.61,57a5.15,5.15,0,0,1-.23-3.88l8.55-23.49c.75-2.06.28-3.46-1.56-4.13Z" transform="translate(-1.27 -1.27)" /><g class="cls-20"><path class="cls-6" d="M43.37,53.14l8.55-23.49c.75-2.06.28-3.46-1.56-4.13l-.56-.2a3.3,3.3,0,0,1,.6,3.78L41.71,53a24.13,24.13,0,0,0-.65,3.11l2.54.93A5.15,5.15,0,0,1,43.37,53.14Z" transform="translate(-1.27 -1.27)" /><line class="cls-21" x1="39.34" y1="49.23" x2="41.97" y2="50.26" /><line class="cls-21" x1="39.84" y1="47.75" x2="42.47" y2="48.78" /><line class="cls-21" x1="40.35" y1="46.27" x2="42.97" y2="47.3" /><line class="cls-21" x1="40.85" y1="44.8" x2="43.47" y2="45.82" /><line class="cls-21" x1="41.35" y1="43.32" x2="43.98" y2="44.34" /></g><path class="cls-22" d="M37,76.8l-8.66-3.15,7.13-19.59a20.07,20.07,0,0,1,4.42,1,23.61,23.61,0,0,1,4.24,2.16Z" transform="translate(-1.27 -1.27)" /><path class="cls-23" d="M34.41,75.86,37,76.8l7.13-19.59a25.25,25.25,0,0,0-2.43-1.37Z" transform="translate(-1.27 -1.27)" /></g></g></g></svg>