<svg id="D1206_-_topical_application_of_flouride_varnish" data-name="D1206 - topical application of flouride varnish" xmlns="http://www.w3.org/2000/svg" xmlns:xlink="http://www.w3.org/1999/xlink" viewBox="0 0 71.69 71.1"><defs><style>.cls-1,.cls-7{fill:none;}.cls-2{stroke:#dcddde;stroke-width:1.06px;fill:url(#New_Gradient_Swatch_2);}.cls-10,.cls-2,.cls-7{stroke-miterlimit:10;}.cls-3{fill:url(#New_Gradient_Swatch_2-2);}.cls-4{fill:#eaeeef;}.cls-14,.cls-5{fill:#fff;}.cls-6{fill:#d8dee0;}.cls-7{stroke:#b1bfc4;stroke-width:1.4px;}.cls-8{fill:#d1dce0;}.cls-9{clip-path:url(#clip-path);}.cls-10{fill:#231f20;stroke:#6f8f97;stroke-width:2.8px;}.cls-11{fill:#929da4;}.cls-12{fill:#87c879;}.cls-13{fill:#aeb5ba;}.cls-14{opacity:0.3;}</style><linearGradient id="New_Gradient_Swatch_2" x1="36.96" y1="45.42" x2="36.96" y2="62.25" gradientUnits="userSpaceOnUse"><stop offset="0" stop-color="#fff" /><stop offset="1" stop-color="#f2f2f2" /></linearGradient><linearGradient id="New_Gradient_Swatch_2-2" x1="36" y1="24.22" x2="36" y2="7.14" xlink:href="#New_Gradient_Swatch_2" /><clipPath id="clip-path" transform="translate(0.96 -1.27)"><path class="cls-1" d="M5.2,66.8C6.4,65.6,6.4,6.4,5.2,5.2,6.4,6.4,65.6,6.4,66.8,5.2,65.6,6.4,65.6,65.6,66.8,66.8,65.6,65.6,6.4,65.6,5.2,66.8Z" /></clipPath></defs><title>D1206_topical_application_of_flouride_varnish</title><path class="cls-4" d="M44.37,50.6c.19,6.68-2.63,10.37-1.47,11,1.78,1,7.89-2.36,9.86-8.27,3.09-9.24-.59-14.18-.59-18.91,0-2.44,1.78-2.56,1.78-6.7V15.53a5.37,5.37,0,0,0-5.55-5.32H39.91c-2,0-2.76,1.63-3.91,1.63s-1.94-1.63-3.91-1.63H23.6A5.37,5.37,0,0,0,18,15.53V27.74c0,4.14,1.78,4.26,1.78,6.7,0,4.73-3.68,9.66-.59,18.91,2,5.91,8.09,9.26,9.86,8.27,1.16-.64-1.66-4.34-1.47-11,.17-5.8,4.08-9.44,8.38-9.44S44.21,44.81,44.37,50.6Z" transform="translate(0.96 -1.27)" /><path class="cls-5" d="M37.51,41.32l0-.72s-9-1.73-12.13,5.84c-2.64,6.3,1,12.72,3.51,15.25a1.28,1.28,0,0,0,.19-.07c1.16-.64-1.66-4.34-1.47-11,.17-5.8,4.08-9.44,8.38-9.44A7.57,7.57,0,0,1,37.51,41.32Z" transform="translate(0.96 -1.27)" /><path class="cls-6" d="M21.88,55.85a20.85,20.85,0,0,1-2.22-10.66c0-3.22,1.81-7.44,2-10.46s-2-3.92-2-7.14V15.83a12.11,12.11,0,0,1,1.14-4.91A5.16,5.16,0,0,0,18,15.53V27.74c0,4.14,1.78,4.26,1.78,6.7,0,4.73-3.68,9.66-.59,18.91,1.53,4.58,5.54,7.61,8.1,8.29A13.8,13.8,0,0,1,21.88,55.85Z" transform="translate(0.96 -1.27)" /><path class="cls-5" d="M52.76,53.34c3.09-9.24-.59-14.18-.59-18.91,0-2.44,1.78-2.56,1.78-6.7V15.53a5.37,5.37,0,0,0-5.55-5.32H39.91c-2,0-2.76,1.63-3.91,1.63s-1.94-1.63-3.91-1.63H23.6a5.38,5.38,0,0,0-5.53,4.87,4.93,4.93,0,0,1,2.81-.76H32.45c1.42,0,1.71.82,3.55.82s1.89-.81,3.84-.81H44.4c4.08,0,4.86,1.69,4.86,5v7.76c0,5-1.75,4.56-1.75,7.18s1.17,2.91,1.94,10.38c.52,5-2.33,12.62-6.42,15.72a5.06,5.06,0,0,0-.39.33c-.07.46,0,.77.25.92C44.68,62.6,50.79,59.25,52.76,53.34Z" transform="translate(0.96 -1.27)" /><path class="cls-6" d="M43,60.62a34.33,34.33,0,0,0,2.21-5.09A13.87,13.87,0,0,0,44.5,45a8.63,8.63,0,0,0-7.39-4.41l.1.68c3.8.61,7,4.08,7.17,9.33a28.83,28.83,0,0,1-1.61,9.53Z" transform="translate(0.96 -1.27)" /><path class="cls-7" d="M44.37,50.6c.19,6.68-2.63,10.37-1.47,11,1.78,1,7.89-2.36,9.86-8.27,3.09-9.24-.59-14.18-.59-18.91,0-2.44,1.78-2.56,1.78-6.7V15.53a5.37,5.37,0,0,0-5.55-5.32H39.91c-2,0-2.76,1.63-3.91,1.63s-1.94-1.63-3.91-1.63H23.6A5.37,5.37,0,0,0,18,15.53V27.74c0,4.14,1.78,4.26,1.78,6.7,0,4.73-3.68,9.66-.59,18.91,2,5.91,8.09,9.26,9.86,8.27,1.16-.64-1.66-4.34-1.47-11,.17-5.8,4.08-9.44,8.38-9.44S44.21,44.81,44.37,50.6Z" transform="translate(0.96 -1.27)" /><path class="cls-8" d="M37.42,32.29s2-2.66,2.17-8.1a14.05,14.05,0,0,0-2.81-8.72s.14,1.48-.56,1.55-1.82-.93-1.82-.93.35.62-.35.68a.78.78,0,0,1-.84-.62s0,.8-1.82.88a7.74,7.74,0,0,1-2.2-.53c-.81.74-2.15-.37-2.15-.37a11.14,11.14,0,0,1,1.56,4.59c.3,3.93-.74,5-.74,5l1.42,3.44,4.63,1.92Z" transform="translate(0.96 -1.27)" /><g class="cls-9"><path class="cls-10" d="M35.64,27.85c-.06,0-.72,1.05-1.13,1.48a11.51,11.51,0,0,0,.39-1.79c-.31-.11-.64-.22-1-.32-.64-.18-1.3-.33-1.91-.46a6.74,6.74,0,0,1-.86,2.56,7.09,7.09,0,0,0,0-2.73c-1.27-.23-2.19-.32-2.19-.32a3.84,3.84,0,0,1,.44,3.34c-.49,1-1.77,1.48-2.54,3a4.35,4.35,0,0,0-.46,2.55l-.22,0L1,67.31l4,3.13L31.36,39.31a2.58,2.58,0,0,0-.2-.48c1.72,0,3.38-1,5.1-3.41a11.41,11.41,0,0,0,2-6A5.78,5.78,0,0,0,35.64,27.85Z" transform="translate(0.96 -1.27)" /><path class="cls-11" d="M28.46,38.12a4,4,0,0,1-1.65-5.48c.77-1.56,2-2,2.54-3a3.84,3.84,0,0,0-.44-3.34s.92.1,2.19.32a7.09,7.09,0,0,1,0,2.73A6.75,6.75,0,0,0,32,26.76c.61.13,1.26.28,1.91.46.36.1.69.21,1,.32a11.51,11.51,0,0,1-.39,1.79c.41-.43,1.07-1.5,1.13-1.48a5.78,5.78,0,0,1,2.61,1.62,11.41,11.41,0,0,1-2,6C33.66,39.09,31.18,39.47,28.46,38.12Z" transform="translate(0.96 -1.27)" /><path class="cls-12" d="M26.13,35.15a6.94,6.94,0,0,1,3.25,1.57,5.64,5.64,0,0,1,2,2.59L5,70.44,1,67.31Z" transform="translate(0.96 -1.27)" /><path class="cls-13" d="M35.64,27.85c-.06,0-.72,1.05-1.13,1.48a11.62,11.62,0,0,0,.39-1.79c-.31-.11-.64-.22-1-.32-.64-.18-1.3-.33-1.91-.46a6.74,6.74,0,0,1-.86,2.56,7.09,7.09,0,0,0,0-2.73c-1.27-.23-2.19-.32-2.19-.32a3.84,3.84,0,0,1,.44,3.34,4.3,4.3,0,0,1-1.12,1.28c-.09.49,0,.9.41,1,.69.24,1.55-.57,1.71-.49s.41.94,1.1,1.1,1.94-.69,3-.33,1.95,1.28,1.79,3.21a11.41,11.41,0,0,0,2-6A5.8,5.8,0,0,0,35.64,27.85Z" transform="translate(0.96 -1.27)" /><path class="cls-14" d="M1.86,68,27.74,35.67a6.21,6.21,0,0,0-1.6-.52L1,67.31Z" transform="translate(0.96 -1.27)" /></g></svg>