<svg xmlns="http://www.w3.org/2000/svg" xmlns:xlink="http://www.w3.org/1999/xlink" viewBox="0 0 69.46 69.46"><defs><style>.cls-1,.cls-10,.cls-13,.cls-8,.cls-9{fill:none;}.cls-2{isolation:isolate;}.cls-3{stroke:#dcddde;stroke-width:1.06px;fill:url(#New_Gradient_Swatch_2);}.cls-10,.cls-13,.cls-3,.cls-8,.cls-9{stroke-miterlimit:10;}.cls-4{fill:url(#New_Gradient_Swatch_2-2);}.cls-5{fill:#eaeeef;}.cls-12,.cls-6{fill:#fff;}.cls-7{fill:#d8dee0;}.cls-10,.cls-8,.cls-9{stroke:#b1bfc4;}.cls-8{stroke-width:1.4px;}.cls-9{stroke-linecap:round;}.cls-10{stroke-width:2.8px;}.cls-11{fill:#00b3de;}.cls-12{opacity:0.3;}.cls-13{stroke:#ebeded;stroke-width:1.08px;}.cls-14{fill:#181a1d;opacity:0.07;mix-blend-mode:multiply;}.cls-15{clip-path:url(#clip-path);}.cls-16{fill:#e8ebec;}.cls-17{fill:#d5dbde;}.cls-18{fill:#5c2d84;}</style><linearGradient id="New_Gradient_Swatch_2" x1="34.73" y1="45.42" x2="34.73" y2="62.25" gradientUnits="userSpaceOnUse"><stop offset="0" stop-color="#fff" /><stop offset="1" stop-color="#f2f2f2" /></linearGradient><linearGradient id="New_Gradient_Swatch_2-2" x1="36" y1="24.22" x2="36" y2="7.14" xlink:href="#New_Gradient_Swatch_2" /><clipPath id="clip-path" transform="translate(-1.27 -1.27)"><rect class="cls-1" x="5.8" y="5.8" width="60.4" height="60.4" transform="translate(72) rotate(90)" /></clipPath></defs><title>D1330_oral_hygiene_instructions</title><g class="cls-2"><g id="D1330_-_oral_hygiene_instructions" data-name="D1330 - oral hygiene instructions"><path class="cls-5" d="M29.3,55.28c.14,4.8-1.89,7.46-1.06,7.92,1.27.71,5.66-1.7,7.08-5.95,2.22-6.65-.42-10.2-.42-13.59,0-1.75,1.27-1.84,1.27-4.81V30.06a3.86,3.86,0,0,0-4-3.82H26.1c-1.42,0-2,1.17-2.81,1.17s-1.39-1.17-2.81-1.17H14.39a3.86,3.86,0,0,0-4,3.82v8.78c0,3,1.27,3.06,1.27,4.81,0,3.4-2.64,6.95-.42,13.59,1.42,4.25,5.81,6.66,7.08,5.95.83-.46-1.19-3.12-1.06-7.92.12-4.17,2.93-6.79,6-6.79S29.19,51.11,29.3,55.28Z" transform="translate(-1.27 -1.27)" /><path class="cls-6" d="M24.38,48.6v-.52s-6.43-1.24-8.71,4.2c-1.9,4.53.72,9.14,2.52,11l.14,0c.83-.46-1.19-3.12-1.06-7.92.12-4.17,2.93-6.79,6-6.79A5.43,5.43,0,0,1,24.38,48.6Z" transform="translate(-1.27 -1.27)" /><path class="cls-7" d="M13.16,59a15,15,0,0,1-1.59-7.66c0-2.31,1.3-5.35,1.45-7.52S11.57,41,11.57,38.73V30.27a8.72,8.72,0,0,1,.82-3.53,3.71,3.71,0,0,0-2,3.31v8.78c0,3,1.27,3.06,1.27,4.81,0,3.4-2.64,6.95-.42,13.59a9.6,9.6,0,0,0,5.82,6A9.92,9.92,0,0,1,13.16,59Z" transform="translate(-1.27 -1.27)" /><path class="cls-6" d="M35.33,57.25c2.22-6.65-.42-10.2-.42-13.59,0-1.75,1.27-1.84,1.27-4.81V30.06a3.86,3.86,0,0,0-4-3.82H26.1c-1.42,0-2,1.17-2.81,1.17s-1.39-1.17-2.81-1.17H14.39a3.87,3.87,0,0,0-4,3.5,3.53,3.53,0,0,1,2-.54h8.3c1,0,1.22.59,2.55.59s1.36-.59,2.75-.59h3.28c2.93,0,3.49,1.21,3.49,3.59v5.58c0,3.63-1.26,3.28-1.26,5.16S32.4,45.62,33,51c.37,3.56-1.67,9.07-4.61,11.3l-.28.24c0,.33,0,.56.18.66C29.52,63.9,33.91,61.49,35.33,57.25Z" transform="translate(-1.27 -1.27)" /><path class="cls-7" d="M28.29,62.48a24.7,24.7,0,0,0,1.59-3.66,10,10,0,0,0-.49-7.56,6.19,6.19,0,0,0-5.31-3.17l.07.49c2.73.44,5,2.94,5.15,6.71a20.76,20.76,0,0,1-1.15,6.85Z" transform="translate(-1.27 -1.27)" /><path class="cls-8" d="M29.3,55.28c.14,4.8-1.89,7.46-1.06,7.92,1.27.71,5.66-1.7,7.08-5.95,2.22-6.65-.42-10.2-.42-13.59,0-1.75,1.27-1.84,1.27-4.81V30.06a3.86,3.86,0,0,0-4-3.82H26.1c-1.42,0-2,1.17-2.81,1.17s-1.39-1.17-2.81-1.17H14.39a3.86,3.86,0,0,0-4,3.82v8.78c0,3,1.27,3.06,1.27,4.81,0,3.4-2.64,6.95-.42,13.59,1.42,4.25,5.81,6.66,7.08,5.95.83-.46-1.19-3.12-1.06-7.92.12-4.17,2.93-6.79,6-6.79S29.19,51.11,29.3,55.28Z" transform="translate(-1.27 -1.27)" /><path class="cls-9" d="M50.5,24h.32a4.2,4.2,0,0,1,4.2,4.2,4.66,4.66,0,0,1-4.66,4.66,5.18,5.18,0,0,1-5.18-5.18,5.76,5.76,0,0,1,5.76-5.76,6.4,6.4,0,0,1,6.4,6.4,7.11,7.11,0,0,1-7.11,7.11,7.9,7.9,0,0,1-7.9-7.9,8.78,8.78,0,0,1,8.78-8.78,9.75,9.75,0,0,1,9.75,9.75c0,5.42-3.44,15-3.44,15" transform="translate(-1.27 -1.27)" /><path class="cls-10" d="M58.69,61.32H45.26a.9.9,0,0,1-.9-.85l-.91-17.32a.9.9,0,0,1,.9-.95H59.59a.9.9,0,0,1,.9.95l-.91,17.32A.9.9,0,0,1,58.69,61.32Z" transform="translate(-1.27 -1.27)" /><path class="cls-11" d="M58.69,61.32H45.26a.9.9,0,0,1-.9-.85l-.91-17.32a.9.9,0,0,1,.9-.95H59.59a.9.9,0,0,1,.9.95l-.91,17.32A.9.9,0,0,1,58.69,61.32Z" transform="translate(-1.27 -1.27)" /><path class="cls-12" d="M59.59,42.2h-4.2a38.61,38.61,0,0,1,.26,8.49,55.16,55.16,0,0,1-1.9,10.63h4.93a.9.9,0,0,0,.9-.85l.91-17.32A.9.9,0,0,0,59.59,42.2Z" transform="translate(-1.27 -1.27)" /><path class="cls-13" d="M53.68,55c0,1.28-.5,2-.28,2.11s1.51-.45,1.89-1.59c.59-1.77-.11-2.72-.11-3.63,0-.47.34-.49.34-1.28V48.31a1,1,0,0,0-1.06-1H52.83c-.38,0-.53.31-.75.31s-.37-.31-.75-.31H49.7a1,1,0,0,0-1.06,1v2.34c0,.79.34.82.34,1.28,0,.91-.7,1.85-.11,3.63.38,1.13,1.55,1.77,1.89,1.59s-.32-.83-.28-2.11a1.62,1.62,0,1,1,3.21,0Z" transform="translate(-1.27 -1.27)" /><path class="cls-14" d="M44.36,42.2a.9.9,0,0,0-.9.95l.91,17.32a.9.9,0,0,0,.9.85h.3c-.23-2.37-.61-6.65-.7-10-.07-2.9,0-6.59,0-9.12Z" transform="translate(-1.27 -1.27)" /><g class="cls-15"><path class="cls-10" d="M68.27,9.62H12.11a.73.73,0,0,0-.73.73v2.41a.73.73,0,0,0,.73.73h.63c0,1.4-.11,4.61-.24,5.58-.17,1.25-.83,1.75,1.5,1.75h1c.13,0,.58-3.57.73-3.57s.15,3.58.26,3.58l11.5.11c.13,0,.35-3.23.48-3.23s.59,3.24.72,3.24l3.21,0c.13,0,0-2.37.14-2.37s.55,2.37.69,2.38h1.23c1.33,0,.76-.69.5-1.67a31.57,31.57,0,0,1-.27-5.83h1c1.33,0,1.58-1.75,3.08-1.75s8.25,1.75,16,1.75h14a.73.73,0,0,0,.73-.73V10.35A.73.73,0,0,0,68.27,9.62Z" transform="translate(-1.27 -1.27)" /><path class="cls-16" d="M12.75,12.83s-.08,5-.25,6.25-.83,1.75,1.5,1.75h1c.13,0,.58-3.57.73-3.57s.15,3.58.26,3.58l11.5.11c.13,0,.35-3.23.48-3.23s.59,3.24.72,3.24l3.21,0c.13,0,0-2.37.14-2.37s.55,2.37.69,2.38h1.23c1.33,0,.76-.69.5-1.67a37.47,37.47,0,0,1-.25-6.42Z" transform="translate(-1.27 -1.27)" /><path class="cls-17" d="M12.72,14.15H34.14c0-.73,0-1.23,0-1.23l-21.42-.08S12.74,13.38,12.72,14.15Z" transform="translate(-1.27 -1.27)" /><path class="cls-18" d="M68.27,13.5h-14c-7.75,0-14.5-1.75-16-1.75S36.5,13.5,35.17,13.5H12.11a.73.73,0,0,1-.73-.73V10.35a.73.73,0,0,1,.73-.73H68.27a.73.73,0,0,1,.73.73v2.41A.73.73,0,0,1,68.27,13.5Z" transform="translate(-1.27 -1.27)" /><path class="cls-12" d="M68.27,9.62H12.11a.73.73,0,0,0-.73.73v.09H69v-.09A.73.73,0,0,0,68.27,9.62Z" transform="translate(-1.27 -1.27)" /></g></g></g></svg>