<svg xmlns="http://www.w3.org/2000/svg" xmlns:xlink="http://www.w3.org/1999/xlink" viewBox="0 0 69.46 69.46"><defs><style>.cls-1{isolation:isolate;}.cls-2{stroke:#dcddde;stroke-width:1.06px;fill:url(#New_Gradient_Swatch_2);}.cls-10,.cls-11,.cls-12,.cls-2,.cls-7,.cls-9{stroke-miterlimit:10;}.cls-3{fill:url(#New_Gradient_Swatch_2-2);}.cls-4{fill:#eaeeef;}.cls-5{fill:#fff;}.cls-6{fill:#d8dee0;}.cls-10,.cls-11,.cls-12,.cls-7,.cls-9{fill:none;}.cls-7{stroke:#b1bfc4;stroke-width:1.4px;}.cls-8{mix-blend-mode:multiply;}.cls-10,.cls-11,.cls-12,.cls-9{stroke:#00b3de;stroke-linecap:round;stroke-width:1.5px;}.cls-10{stroke-dasharray:0.5 2.5;}.cls-11{stroke-dasharray:0.5 2.5;}.cls-12{stroke-dasharray:0.49 2.43;}</style><linearGradient id="New_Gradient_Swatch_2" x1="34.73" y1="45.42" x2="34.73" y2="62.25" gradientUnits="userSpaceOnUse"><stop offset="0" stop-color="#fff" /><stop offset="1" stop-color="#f2f2f2" /></linearGradient><linearGradient id="New_Gradient_Swatch_2-2" x1="36" y1="24.22" x2="36" y2="7.14" xlink:href="#New_Gradient_Swatch_2" /></defs><title>D1351_sealant_per_tooth</title><g class="cls-1"><g id="D1351_-_sealant_per_tooth" data-name="D1351 - sealant per tooth"><path class="cls-4" d="M44.37,50.6c.19,6.68-2.63,10.37-1.47,11,1.78,1,7.89-2.36,9.86-8.27,3.09-9.24-.59-14.18-.59-18.91,0-2.44,1.78-2.56,1.78-6.7V15.53a5.37,5.37,0,0,0-5.55-5.32H39.91c-2,0-2.76,1.63-3.91,1.63s-1.94-1.63-3.91-1.63H23.6A5.37,5.37,0,0,0,18,15.53V27.74c0,4.14,1.78,4.26,1.78,6.7,0,4.73-3.68,9.66-.59,18.91,2,5.91,8.09,9.26,9.86,8.27,1.16-.64-1.66-4.34-1.47-11,.17-5.8,4.08-9.44,8.38-9.44S44.21,44.81,44.37,50.6Z" transform="translate(-1.27 -1.27)" /><path class="cls-5" d="M37.51,41.32l0-.72s-9-1.73-12.13,5.84c-2.64,6.3,1,12.72,3.51,15.25a1.28,1.28,0,0,0,.19-.07c1.16-.64-1.66-4.34-1.47-11,.17-5.8,4.08-9.44,8.38-9.44A7.57,7.57,0,0,1,37.51,41.32Z" transform="translate(-1.27 -1.27)" /><path class="cls-6" d="M21.88,55.85a20.85,20.85,0,0,1-2.22-10.66c0-3.22,1.81-7.44,2-10.46s-2-3.92-2-7.14V15.83a12.11,12.11,0,0,1,1.14-4.91A5.16,5.16,0,0,0,18,15.53V27.74c0,4.14,1.78,4.26,1.78,6.7,0,4.73-3.68,9.66-.59,18.91,1.53,4.58,5.54,7.61,8.1,8.29A13.8,13.8,0,0,1,21.88,55.85Z" transform="translate(-1.27 -1.27)" /><path class="cls-5" d="M52.76,53.34c3.09-9.24-.59-14.18-.59-18.91,0-2.44,1.78-2.56,1.78-6.7V15.53a5.37,5.37,0,0,0-5.55-5.32H39.91c-2,0-2.76,1.63-3.91,1.63s-1.94-1.63-3.91-1.63H23.6a5.38,5.38,0,0,0-5.53,4.87,4.93,4.93,0,0,1,2.81-.76H32.45c1.42,0,1.71.82,3.55.82s1.89-.81,3.84-.81H44.4c4.08,0,4.86,1.69,4.86,5v7.76c0,5-1.75,4.56-1.75,7.18s1.17,2.91,1.94,10.38c.52,5-2.33,12.62-6.42,15.72a5.06,5.06,0,0,0-.39.33c-.07.46,0,.77.25.92C44.68,62.6,50.79,59.25,52.76,53.34Z" transform="translate(-1.27 -1.27)" /><path class="cls-6" d="M43,60.62a34.33,34.33,0,0,0,2.21-5.09A13.87,13.87,0,0,0,44.5,45a8.63,8.63,0,0,0-7.39-4.41l.1.68c3.8.61,7,4.08,7.17,9.33a28.83,28.83,0,0,1-1.61,9.53Z" transform="translate(-1.27 -1.27)" /><path class="cls-7" d="M44.37,50.6c.19,6.68-2.63,10.37-1.47,11,1.78,1,7.89-2.36,9.86-8.27,3.09-9.24-.59-14.18-.59-18.91,0-2.44,1.78-2.56,1.78-6.7V15.53a5.37,5.37,0,0,0-5.55-5.32H39.91c-2,0-2.76,1.63-3.91,1.63s-1.94-1.63-3.91-1.63H23.6A5.37,5.37,0,0,0,18,15.53V27.74c0,4.14,1.78,4.26,1.78,6.7,0,4.73-3.68,9.66-.59,18.91,2,5.91,8.09,9.26,9.86,8.27,1.16-.64-1.66-4.34-1.47-11,.17-5.8,4.08-9.44,8.38-9.44S44.21,44.81,44.37,50.6Z" transform="translate(-1.27 -1.27)" /><g class="cls-8"><polyline class="cls-9" points="14.56 16.04 14.31 16.04 14.31 15.79" /><path class="cls-10" d="M15.64,14.57a7.87,7.87,0,0,1,8-6.85H32.1a5.79,5.79,0,0,1,2.64.63" transform="translate(-1.27 -1.27)" /><polyline class="cls-9" points="34.52 7.71 34.73 7.85 34.93 7.71" /><path class="cls-11" d="M38.44,7.9a5.8,5.8,0,0,1,1.46-.18h8.48a7.85,7.85,0,0,1,8,7.82v.28" transform="translate(-1.27 -1.27)" /><polyline class="cls-9" points="55.15 15.79 55.15 16.04 54.9 16.04" /><line class="cls-12" x1="52.47" y1="16.04" x2="15.77" y2="16.04" /></g></g></g></svg>