<svg id="D2161_-_amalgam_four_or_more_surfaces_primary_or_permanent" data-name="D2161 - amalgam four or more surfaces primary or permanent" xmlns="http://www.w3.org/2000/svg" xmlns:xlink="http://www.w3.org/1999/xlink" viewBox="0 0 69.46 78.98"><defs><style>.cls-1,.cls-15{fill:none;}.cls-2{stroke:#dcddde;stroke-width:1.06px;fill:url(#New_Gradient_Swatch_2);}.cls-15,.cls-2{stroke-miterlimit:10;}.cls-3{fill:url(#New_Gradient_Swatch_2-2);}.cls-4{fill:#eaeeef;}.cls-5{fill:#fff;}.cls-6{fill:#d8dee0;}.cls-7{clip-path:url(#clip-path);}.cls-8{fill:#737577;}.cls-9{fill:#808285;}.cls-10{fill:#8f9194;}.cls-11{fill:#9d9fa2;}.cls-12{fill:#919396;}.cls-13{fill:#babcbe;}.cls-14{fill:#b1b3b6;}.cls-15{stroke:#b1bfc4;stroke-width:1.4px;}.cls-16{font-size:14px;fill:#aeb5ba;font-family:ProximaNova-Bold, Proxima Nova;font-weight:700;}.cls-17{opacity:0.75;}.cls-18{fill:#f1f2f2;}</style><linearGradient id="New_Gradient_Swatch_2" x1="34.73" y1="54.94" x2="34.73" y2="71.78" gradientUnits="userSpaceOnUse"><stop offset="0" stop-color="#fff" /><stop offset="1" stop-color="#f2f2f2" /></linearGradient><linearGradient id="New_Gradient_Swatch_2-2" x1="36" y1="24.22" x2="36" y2="7.14" xlink:href="#New_Gradient_Swatch_2" /><clipPath id="clip-path" transform="translate(-1.27 8.25)"><path class="cls-1" d="M32,10.54c2.22,0,2.27,1.46,4,1.46s1.75-1.37,3.79-1.46h8.48a5.07,5.07,0,0,1,.58,0,2,2,0,0,1-2.18,1.59c-2.54-.17-3.54-.51-4,.57-.21.56.78,1.25.27,2.63-.64,1.73-3.07.51-4.72,1.64-2,1.36-2.1,4-3.63,3.72-1.76-.36-.89-2.49-2.17-4-.91-1.09-2-.5-3.19-1.34-2.36-1.64-.13-3.54-1.89-3.58-2.29,0-4.54,1-4.38-1.22l.51,0Z" /></clipPath></defs><title>D2161_amalgam_four_or_more_surfaces_primary_or_permanent</title><path class="cls-4" d="M44.36,50.6c.19,6.68-2.63,10.37-1.47,11,1.77,1,7.88-2.36,9.85-8.27,3.08-9.24-.59-14.18-.59-18.91,0-2.44,1.77-2.56,1.77-6.7V15.53a5.36,5.36,0,0,0-5.54-5.32H39.9c-2,0-2.75,1.63-3.9,1.63s-1.93-1.63-3.9-1.63H23.62a5.36,5.36,0,0,0-5.54,5.32V27.74c0,4.14,1.77,4.26,1.77,6.7,0,4.73-3.67,9.66-.59,18.91,2,5.91,8.08,9.26,9.85,8.27,1.15-.64-1.66-4.34-1.47-11,.17-5.8,4.07-9.44,8.36-9.44S44.19,44.81,44.36,50.6Z" transform="translate(-1.27 8.25)" /><path class="cls-5" d="M37.51,41.32l0-.72s-8.94-1.73-12.11,5.84c-2.64,6.3,1,12.72,3.5,15.25a1.28,1.28,0,0,0,.19-.07c1.15-.64-1.66-4.34-1.47-11,.17-5.8,4.07-9.44,8.36-9.44A7.55,7.55,0,0,1,37.51,41.32Z" transform="translate(-1.27 8.25)" /><path class="cls-6" d="M21.9,55.85a20.88,20.88,0,0,1-2.21-10.66c0-3.22,1.81-7.44,2-10.46s-2-3.92-2-7.14V15.83a12.13,12.13,0,0,1,1.13-4.91,5.16,5.16,0,0,0-2.75,4.61V27.74c0,4.14,1.77,4.26,1.77,6.7,0,4.73-3.67,9.66-.59,18.91,1.53,4.58,5.54,7.61,8.09,8.29A13.79,13.79,0,0,1,21.9,55.85Z" transform="translate(-1.27 8.25)" /><path class="cls-5" d="M52.74,53.34c3.08-9.24-.59-14.18-.59-18.91,0-2.44,1.77-2.56,1.77-6.7V15.53a5.36,5.36,0,0,0-5.54-5.32H39.9c-2,0-2.75,1.63-3.9,1.63s-1.93-1.63-3.9-1.63H23.62a5.38,5.38,0,0,0-5.52,4.87,4.91,4.91,0,0,1,2.8-.76H32.45c1.42,0,1.7.82,3.55.82s1.89-.81,3.83-.81h4.56c4.08,0,4.85,1.69,4.85,5v7.76c0,5-1.75,4.56-1.75,7.18s1.16,2.91,1.94,10.38c.52,5-2.33,12.62-6.41,15.72a5.05,5.05,0,0,0-.39.33c-.07.46,0,.77.25.92C44.66,62.6,50.77,59.25,52.74,53.34Z" transform="translate(-1.27 8.25)" /><g class="cls-7"><rect class="cls-8" x="18.76" y="-2.34" width="28.58" height="28.58" transform="translate(46.69 52.03) rotate(-135)" /><rect class="cls-9" x="32.91" y="1.82" width="8.6" height="28.58" transform="translate(50.85 62.07) rotate(-135)" /><rect class="cls-10" x="34.25" y="1.93" width="6.11" height="28.58" transform="translate(50.95 62.32) rotate(-135)" /><rect class="cls-9" x="28.64" y="-3.76" width="5.97" height="28.58" transform="translate(45.27 48.59) rotate(-135)" /><rect class="cls-11" x="35.98" y="1.44" width="1.68" height="28.58" transform="translate(50.46 61.14) rotate(-135)" /><rect class="cls-10" x="31.82" y="-2.73" width="1.68" height="28.58" transform="translate(46.3 51.08) rotate(-135)" /><rect class="cls-12" x="30.02" y="-5.04" width="0.65" height="28.58" transform="translate(43.99 45.51) rotate(-135)" /><rect class="cls-13" x="36.77" y="1.54" width="0.31" height="28.58" transform="translate(50.57 61.38) rotate(-135)" /><rect class="cls-14" x="30.18" y="-5.09" width="0.21" height="28.58" transform="translate(43.93 45.37) rotate(-135)" /></g><path class="cls-6" d="M43,60.62a34.36,34.36,0,0,0,2.21-5.09A13.89,13.89,0,0,0,44.48,45a8.62,8.62,0,0,0-7.38-4.41l.1.68c3.79.61,7,4.08,7.16,9.33a28.87,28.87,0,0,1-1.61,9.53Z" transform="translate(-1.27 8.25)" /><path class="cls-15" d="M44.36,50.6c.19,6.68-2.63,10.37-1.47,11,1.77,1,7.88-2.36,9.85-8.27,3.08-9.24-.59-14.18-.59-18.91,0-2.44,1.77-2.56,1.77-6.7V15.53a5.36,5.36,0,0,0-5.54-5.32H39.9c-2,0-2.75,1.63-3.9,1.63s-1.93-1.63-3.9-1.63H23.62a5.36,5.36,0,0,0-5.54,5.32V27.74c0,4.14,1.77,4.26,1.77,6.7,0,4.73-3.67,9.66-.59,18.91,2,5.91,8.08,9.26,9.85,8.27,1.15-.64-1.66-4.34-1.47-11,.17-5.8,4.07-9.44,8.36-9.44S44.19,44.81,44.36,50.6Z" transform="translate(-1.27 8.25)" /><text class="cls-16" transform="translate(27.02 43.22)">4+</text><g class="cls-17"><path class="cls-18" d="M37.23,13.91a1.09,1.09,0,0,0,.93-.93l.33-2.31L38.81,13a1.09,1.09,0,0,0,.93.93l2.31.33-2.31.33a1.09,1.09,0,0,0-.93.93l-.33,2.31-.33-2.31a1.09,1.09,0,0,0-.93-.93l-2.31-.33Z" transform="translate(-1.27 8.25)" /><path class="cls-18" d="M35,17a.53.53,0,0,0,.45-.45l.16-1.12.16,1.12a.53.53,0,0,0,.45.45l1.12.16-1.12.16a.53.53,0,0,0-.45.45l-.16,1.12-.16-1.12a.53.53,0,0,0-.45-.45l-1.12-.16Z" transform="translate(-1.27 8.25)" /></g></svg>