<svg id="D2160_-_amalgam_three_surfaces_primary_or_permanent" data-name="D2160 - amalgam three surfaces primary or permanent" xmlns="http://www.w3.org/2000/svg" xmlns:xlink="http://www.w3.org/1999/xlink" viewBox="0 0 69.46 78.98"><defs><style>.cls-1,.cls-15{fill:none;}.cls-2{stroke:#dcddde;stroke-width:1.06px;fill:url(#New_Gradient_Swatch_2);}.cls-15,.cls-2{stroke-miterlimit:10;}.cls-3{fill:url(#New_Gradient_Swatch_2-2);}.cls-4{fill:#eaeeef;}.cls-5{fill:#fff;}.cls-6{fill:#d8dee0;}.cls-7{clip-path:url(#clip-path);}.cls-8{fill:#737577;}.cls-9{fill:#808285;}.cls-10{fill:#8f9194;}.cls-11{fill:#9d9fa2;}.cls-12{fill:#919396;}.cls-13{fill:#babcbe;}.cls-14{fill:#b1b3b6;}.cls-15{stroke:#b1bfc4;stroke-width:1.4px;}.cls-16{font-size:14px;fill:#aeb5ba;font-family:ProximaNova-Bold, Proxima Nova;font-weight:700;}.cls-17{opacity:0.75;}.cls-18{fill:#f1f2f2;}</style><linearGradient id="New_Gradient_Swatch_2" x1="34.73" y1="54.94" x2="34.73" y2="71.78" gradientUnits="userSpaceOnUse"><stop offset="0" stop-color="#fff" /><stop offset="1" stop-color="#f2f2f2" /></linearGradient><linearGradient id="New_Gradient_Swatch_2-2" x1="36" y1="24.22" x2="36" y2="7.14" xlink:href="#New_Gradient_Swatch_2" /><clipPath id="clip-path" transform="translate(-1.27 8.25)"><path class="cls-1" d="M32,10.54c2.23,0,2.27,1.46,4,1.46s1.75-1.37,3.8-1.46h8.49a5.08,5.08,0,0,1,.58,0,2,2,0,0,1-2.18,1.59c-2.55-.17-3.55-.51-4,.57-.21.56.78,1.25.27,2.63-.64,1.73-3.08.51-4.73,1.64-2,1.36-2.1,4-3.64,3.72-1.76-.36-.9-2.49-2.17-4-.91-1.09-2-.5-3.19-1.34-2.37-1.64-.13-3.54-1.9-3.58-2.3,0-4.55,1-4.39-1.22l.51,0Z" /></clipPath></defs><title>D2160_amalgam_three_surfaces_primary_or_permanent</title><path class="cls-4" d="M44.37,50.6c.19,6.68-2.63,10.37-1.47,11,1.78,1,7.89-2.36,9.86-8.27,3.09-9.24-.59-14.18-.59-18.91,0-2.44,1.78-2.56,1.78-6.7V15.53a5.37,5.37,0,0,0-5.55-5.32H39.91c-2,0-2.76,1.63-3.91,1.63s-1.94-1.63-3.91-1.63H23.6A5.37,5.37,0,0,0,18,15.53V27.74c0,4.14,1.78,4.26,1.78,6.7,0,4.73-3.68,9.66-.59,18.91,2,5.91,8.09,9.26,9.86,8.27,1.16-.64-1.66-4.34-1.47-11,.17-5.8,4.08-9.44,8.38-9.44S44.21,44.81,44.37,50.6Z" transform="translate(-1.27 8.25)" /><path class="cls-5" d="M37.51,41.32l0-.72s-9-1.73-12.13,5.84c-2.64,6.3,1,12.72,3.51,15.25a1.28,1.28,0,0,0,.19-.07c1.16-.64-1.66-4.34-1.47-11,.17-5.8,4.08-9.44,8.38-9.44A7.57,7.57,0,0,1,37.51,41.32Z" transform="translate(-1.27 8.25)" /><path class="cls-6" d="M21.88,55.85a20.85,20.85,0,0,1-2.22-10.66c0-3.22,1.81-7.44,2-10.46s-2-3.92-2-7.14V15.83a12.11,12.11,0,0,1,1.14-4.91A5.16,5.16,0,0,0,18,15.53V27.74c0,4.14,1.78,4.26,1.78,6.7,0,4.73-3.68,9.66-.59,18.91,1.53,4.58,5.54,7.61,8.1,8.29A13.8,13.8,0,0,1,21.88,55.85Z" transform="translate(-1.27 8.25)" /><path class="cls-5" d="M52.76,53.34c3.09-9.24-.59-14.18-.59-18.91,0-2.44,1.78-2.56,1.78-6.7V15.53a5.37,5.37,0,0,0-5.55-5.32H39.91c-2,0-2.76,1.63-3.91,1.63s-1.94-1.63-3.91-1.63H23.6a5.38,5.38,0,0,0-5.53,4.87,4.93,4.93,0,0,1,2.81-.76H32.45c1.42,0,1.71.82,3.55.82s1.89-.81,3.84-.81H44.4c4.08,0,4.86,1.69,4.86,5v7.76c0,5-1.75,4.56-1.75,7.18s1.17,2.91,1.94,10.38c.52,5-2.33,12.62-6.42,15.72a5.06,5.06,0,0,0-.39.33c-.07.46,0,.77.25.92C44.68,62.6,50.79,59.25,52.76,53.34Z" transform="translate(-1.27 8.25)" /><g class="cls-7"><polygon class="cls-8" points="11.53 20.21 31.77 40.42 52.01 20.21 31.77 0 11.53 20.21" /><polygon class="cls-9" points="22.77 31.43 28.86 37.51 49.1 17.3 43.01 11.22 22.77 31.43" /><polygon class="cls-10" points="23.75 32.41 28.08 36.73 48.32 16.53 44 12.21 23.75 32.41" /><polygon class="cls-9" points="18.11 26.78 22.34 31 42.58 10.79 38.35 6.57 18.11 26.78" /><polygon class="cls-11" points="24.84 33.49 26.02 34.68 46.27 14.47 45.08 13.28 24.84 33.49" /><polygon class="cls-10" points="20.66 29.33 21.85 30.51 42.09 10.31 40.9 9.12 20.66 29.33" /><polygon class="cls-12" points="18.71 27.38 19.17 27.84 39.41 7.63 38.95 7.17 18.71 27.38" /><polygon class="cls-13" points="25.42 34.08 25.64 34.3 45.88 14.09 45.66 13.87 25.42 34.08" /><polygon class="cls-14" points="18.81 27.48 18.96 27.63 39.2 7.42 39.05 7.27 18.81 27.48" /></g><path class="cls-6" d="M43,60.62a34.33,34.33,0,0,0,2.21-5.09A13.87,13.87,0,0,0,44.5,45a8.63,8.63,0,0,0-7.39-4.41l.1.68c3.8.61,7,4.08,7.17,9.33a28.83,28.83,0,0,1-1.61,9.53Z" transform="translate(-1.27 8.25)" /><path class="cls-15" d="M44.37,50.6c.19,6.68-2.63,10.37-1.47,11,1.78,1,7.89-2.36,9.86-8.27,3.09-9.24-.59-14.18-.59-18.91,0-2.44,1.78-2.56,1.78-6.7V15.53a5.37,5.37,0,0,0-5.55-5.32H39.91c-2,0-2.76,1.63-3.91,1.63s-1.94-1.63-3.91-1.63H23.6A5.37,5.37,0,0,0,18,15.53V27.74c0,4.14,1.78,4.26,1.78,6.7,0,4.73-3.68,9.66-.59,18.91,2,5.91,8.09,9.26,9.86,8.27,1.16-.64-1.66-4.34-1.47-11,.17-5.8,4.08-9.44,8.38-9.44S44.21,44.81,44.37,50.6Z" transform="translate(-1.27 8.25)" /><text class="cls-16" transform="translate(30.62 43.22)">3</text><g class="cls-17"><path class="cls-18" d="M37.23,13.91a1.09,1.09,0,0,0,.93-.93l.33-2.31L38.81,13a1.09,1.09,0,0,0,.93.93l2.31.33-2.31.33a1.09,1.09,0,0,0-.93.93l-.33,2.31-.33-2.31a1.09,1.09,0,0,0-.93-.93l-2.31-.33Z" transform="translate(-1.27 8.25)" /><path class="cls-18" d="M35,17a.53.53,0,0,0,.45-.45l.16-1.12.16,1.12a.53.53,0,0,0,.45.45l1.12.16-1.12.16a.53.53,0,0,0-.45.45l-.16,1.12-.16-1.12a.53.53,0,0,0-.45-.45l-1.12-.16Z" transform="translate(-1.27 8.25)" /></g></svg>