<svg id="D2330_-_resin_based_composite_one_surface_anterior" data-name="D2330 - resin based composite one surface anterior" xmlns="http://www.w3.org/2000/svg" xmlns:xlink="http://www.w3.org/1999/xlink" viewBox="0 0 69.46 69.46"><defs><style>.cls-1{stroke:#dcddde;stroke-width:1.06px;fill:url(#New_Gradient_Swatch_2);}.cls-1,.cls-7{stroke-miterlimit:10;}.cls-2{fill:url(#New_Gradient_Swatch_2-2);}.cls-3{fill:#eaeeef;}.cls-4{fill:#d8dee0;}.cls-5{fill:#fff;}.cls-6{fill:#d8d2cc;}.cls-7{fill:none;stroke:#b1bfc4;stroke-width:1.4px;}.cls-8{font-size:14px;fill:#aeb5ba;font-family:ProximaNova-Bold, Proxima Nova;font-weight:700;}</style><linearGradient id="New_Gradient_Swatch_2" x1="34.73" y1="45.42" x2="34.73" y2="62.25" gradientUnits="userSpaceOnUse"><stop offset="0" stop-color="#fff" /><stop offset="1" stop-color="#f2f2f2" /></linearGradient><linearGradient id="New_Gradient_Swatch_2-2" x1="36" y1="24.22" x2="36" y2="7.14" xlink:href="#New_Gradient_Swatch_2" /></defs><title>D2330_resin_based_composite_one_surface_anterior</title><path class="cls-3" d="M45.64,38.53c.12-2.43,3.77-2.56,3.77-6.7V15.62a5.36,5.36,0,0,0-5.54-5.32H28.12a5.36,5.36,0,0,0-5.54,5.32V31.83c0,4.14,3.64,4.26,3.77,6.7C27,50.21,34.25,61.7,36,61.7S45,50.28,45.64,38.53Z" transform="translate(-1.27 -1.27)" /><path class="cls-4" d="M30.81,51.24c-1-3.28-2.54-8.42-2.54-12.71,0-3-4.07-3.73-4.07-7V15.92A12.13,12.13,0,0,1,25.33,11h0a5.16,5.16,0,0,0-2.75,4.61V31.83c0,4.14,3.64,4.26,3.77,6.7.53,9.36,5.28,18.6,8,21.9l.46.12C33.85,59.53,32.32,56.12,30.81,51.24Z" transform="translate(-1.27 -1.27)" /><path class="cls-5" d="M42.09,36c0,2.62-.09,4.25-1.07,11.7a27.36,27.36,0,0,1-6,12.91,1.45,1.45,0,0,1-.23.2c.53.57,1,.89,1.26.89,1.75,0,9-11.42,9.64-23.18.12-2.43,3.77-2.56,3.77-6.7V15.62a5.36,5.36,0,0,0-5.54-5.32H28.12a5.39,5.39,0,0,0-5.48,4.53c0,.12,0,.23,0,.35h0a4.91,4.91,0,0,1,2.8-.76H40.26c4.08,0,4.85,1.69,4.85,5v9.41C45.12,33.86,42.09,33.38,42.09,36Z" transform="translate(-1.27 -1.27)" /><path class="cls-6" d="M45.41,10.54a3,3,0,0,1,.45,0c0,.51-.58,2.29-1.67,2.19-1.95-.17-2.71-.51-3,.57-.16.56.6,1.25.21,2.63-.49,1.73-2.35.51-3.61,1.64C36.22,19,36.15,21,35,20.73c-1.35-.36-.68-2.12-1.66-3.65-.7-1.09-1.51-.5-2.44-1.34-1.81-1.64-.1-3.54-1.45-3.58-1.75,0-3.48.63-3.35-1.59l.39,0Z" transform="translate(-1.27 -1.27)" /><path class="cls-7" d="M45.64,38.53c.12-2.43,3.77-2.56,3.77-6.7V15.62a5.36,5.36,0,0,0-5.54-5.32H28.12a5.36,5.36,0,0,0-5.54,5.32V31.83c0,4.14,3.64,4.26,3.77,6.7C27,50.21,34.25,61.7,36,61.7S45,50.28,45.64,38.53Z" transform="translate(-1.27 -1.27)" /><text class="cls-8" transform="translate(30.85 33.69)">1</text></svg>