<svg xmlns="http://www.w3.org/2000/svg" xmlns:xlink="http://www.w3.org/1999/xlink" viewBox="0 0 69.46 69.46"><defs><style>.cls-1{isolation:isolate;}.cls-2{stroke:#dcddde;stroke-width:1.06px;fill:url(#New_Gradient_Swatch_2);}.cls-11,.cls-16,.cls-2,.cls-7{stroke-miterlimit:10;}.cls-3{fill:url(#New_Gradient_Swatch_2-2);}.cls-4{fill:#ebe3d7;}.cls-13,.cls-14,.cls-5,.cls-9{fill:#fff;}.cls-5{opacity:0.6;}.cls-15,.cls-6{fill:#181a1d;mix-blend-mode:multiply;}.cls-6{opacity:0.07;}.cls-11,.cls-16,.cls-7{fill:none;stroke-width:1.4px;}.cls-7{stroke:#b2b6b0;}.cls-8{fill:#eaeeef;}.cls-10{fill:#d8dee0;}.cls-11{stroke:#b1bfc4;}.cls-12{fill:#dd7b7f;}.cls-13{opacity:0.7;font-size:14px;font-family:ProximaNova-Bold, Proxima Nova;font-weight:700;}.cls-14{opacity:0.3;}.cls-15{opacity:0.05;}.cls-16{stroke:#b94656;}</style><linearGradient id="New_Gradient_Swatch_2" x1="34.73" y1="45.42" x2="34.73" y2="62.25" gradientUnits="userSpaceOnUse"><stop offset="0" stop-color="#fff" /><stop offset="1" stop-color="#f2f2f2" /></linearGradient><linearGradient id="New_Gradient_Swatch_2-2" x1="36" y1="24.22" x2="36" y2="7.14" xlink:href="#New_Gradient_Swatch_2" /></defs><title>D2642_onlay_porcelain_ceramic_two_surfaces</title><g class="cls-1"><g id="D2642_-onlay_porcelain_ceramic_two_surfaces" data-name="D2642 -onlay porcelain/ceramic, two surfaces"><path class="cls-4" d="M33.1,20.77A19.68,19.68,0,0,1,45,17.15h8.92v-2.8A5.36,5.36,0,0,0,48.38,9H39.9c-2,0-2.75,1.63-3.9,1.63S34.07,9,32.1,9H23.62a5.36,5.36,0,0,0-5.54,5.32v9.3h6.26C28.5,23.65,30.63,22.32,33.1,20.77Z" transform="translate(-1.27 -1.27)" /><path class="cls-5" d="M53.92,14.35A5.36,5.36,0,0,0,48.38,9H39.9c-2,0-2.75,1.63-3.9,1.63S34.07,9,32.1,9H23.62A5.38,5.38,0,0,0,18.1,13.9a4.91,4.91,0,0,1,2.8-.76H32.45c1.42,0,1.7.82,3.55.82s1.89-.81,3.83-.81h4.56c3.65,0,4.65,1.35,4.82,4h4.71Z" transform="translate(-1.27 -1.27)" /><path class="cls-6" d="M20,10.27a5.43,5.43,0,0,1,.49-.34A5.46,5.46,0,0,0,20,10.27Z" transform="translate(-1.27 -1.27)" /><path class="cls-6" d="M19.81,10.46a5.23,5.23,0,0,0-.59.61A5.23,5.23,0,0,1,19.81,10.46Z" transform="translate(-1.27 -1.27)" /><path class="cls-6" d="M20.82,9.75h0l0,0Z" transform="translate(-1.27 -1.27)" /><path class="cls-6" d="M18.11,13.84A5.17,5.17,0,0,1,18.63,12,5.14,5.14,0,0,0,18.11,13.84Z" transform="translate(-1.27 -1.27)" /><path class="cls-6" d="M18.72,11.83a5.08,5.08,0,0,1,.44-.67A5.08,5.08,0,0,0,18.72,11.83Z" transform="translate(-1.27 -1.27)" /><path class="cls-6" d="M18.11,13.9c0,.15,0,.29,0,.45v9.3h1.61v-9a10.28,10.28,0,0,1,.1-1.39A4.44,4.44,0,0,0,18.11,13.9Z" transform="translate(-1.27 -1.27)" /><path class="cls-7" d="M33.1,20.77A19.68,19.68,0,0,1,45,17.15h8.92v-2.8A5.36,5.36,0,0,0,48.38,9H39.9c-2,0-2.75,1.63-3.9,1.63S34.07,9,32.1,9H23.62a5.36,5.36,0,0,0-5.54,5.32v9.3h6.26C28.5,23.65,30.63,22.32,33.1,20.77Z" transform="translate(-1.27 -1.27)" /><path class="cls-8" d="M53.92,27.74V20.33H45a17.75,17.75,0,0,0-10.84,3.32c-2.5,1.57-5.08,3.18-9.83,3.18H18.08v.91c0,4.14,1.77,4.26,1.77,6.7,0,4.73-3.67,9.66-.59,18.91,2,5.91,8.08,9.26,9.85,8.27,1.15-.64-1.66-4.34-1.47-11,.17-5.8,4.07-9.44,8.36-9.44s8.19,3.64,8.36,9.44c.19,6.68-2.63,10.37-1.47,11,1.77,1,7.88-2.36,9.85-8.27,3.08-9.24-.59-14.18-.59-18.91C52.15,32,53.92,31.88,53.92,27.74Z" transform="translate(-1.27 -1.27)" /><path class="cls-9" d="M53.92,27.74V20.33H49.24v6.75c0,5-1.75,4.56-1.75,7.18s1.16,2.91,1.94,10.38c.52,5-2.33,12.62-6.41,15.72a5,5,0,0,0-.39.33c-.07.46,0,.77.25.92,1.77,1,7.88-2.36,9.85-8.27,3.08-9.24-.59-14.18-.59-18.91C52.15,32,53.92,31.88,53.92,27.74Z" transform="translate(-1.27 -1.27)" /><path class="cls-10" d="M21.9,55.85a20.88,20.88,0,0,1-2.21-10.66c0-3.22,1.81-7.44,2-10.46s-2-3.92-2-7.14v-.76H18.08v.91c0,4.14,1.77,4.26,1.77,6.7,0,4.73-3.67,9.66-.59,18.91,1.53,4.58,5.54,7.61,8.09,8.29A13.79,13.79,0,0,1,21.9,55.85Z" transform="translate(-1.27 -1.27)" /><path class="cls-11" d="M53.92,27.74V20.33H45a17.75,17.75,0,0,0-10.84,3.32c-2.5,1.57-5.08,3.18-9.83,3.18H18.08v.91c0,4.14,1.77,4.26,1.77,6.7,0,4.73-3.67,9.66-.59,18.91,2,5.91,8.08,9.26,9.85,8.27,1.15-.64-1.66-4.34-1.47-11,.17-5.8,4.07-9.44,8.36-9.44s8.19,3.64,8.36,9.44c.19,6.68-2.63,10.37-1.47,11,1.77,1,7.88-2.36,9.85-8.27,3.08-9.24-.59-14.18-.59-18.91C52.15,32,53.92,31.88,53.92,27.74Z" transform="translate(-1.27 -1.27)" /><path class="cls-9" d="M37.51,41.32l0-.72s-8.94-1.73-12.11,5.84c-2.64,6.3,1,12.72,3.5,15.25a1.28,1.28,0,0,0,.19-.07c1.15-.64-1.66-4.34-1.47-11,.17-5.8,4.07-9.44,8.36-9.44A7.55,7.55,0,0,1,37.51,41.32Z" transform="translate(-1.27 -1.27)" /><path class="cls-10" d="M43,60.62a34.36,34.36,0,0,0,2.21-5.09A13.89,13.89,0,0,0,44.48,45a8.62,8.62,0,0,0-7.38-4.41l.1.68c3.79.61,7,4.08,7.16,9.33a28.87,28.87,0,0,1-1.61,9.53Z" transform="translate(-1.27 -1.27)" /><path class="cls-12" d="M57.48,61.82c4.64,0,3.93-6.63,2.92-13.49s-3.53-19-6.66-16.15S43.63,39.41,36,39.41,21.38,35,18.25,32.19s-5.65,9.29-6.66,16.15S9.88,61.82,14.52,61.82Z" transform="translate(-1.27 -1.27)" /><text class="cls-13" transform="translate(30.53 56.69)">2</text><path class="cls-14" d="M57.48,61.82c4.64,0,3.93-6.63,2.92-13.49s-3.53-19-6.66-16.15a27,27,0,0,1-3.28,2.49,72.62,72.62,0,0,1,5.36,14,38.21,38.21,0,0,1,1.44,13.16Z" transform="translate(-1.27 -1.27)" /><path class="cls-15" d="M13.91,44.55c.8-4.15,2.85-9.92,5.77-11.19-.54-.41-1-.81-1.43-1.18-3.13-2.82-5.65,9.29-6.66,16.15C10.8,53.76,10.2,59,12.28,61,11.81,56,13,49.25,13.91,44.55Z" transform="translate(-1.27 -1.27)" /><path class="cls-16" d="M57.48,61.82c4.64,0,3.93-6.63,2.92-13.49s-3.53-19-6.66-16.15S43.63,39.41,36,39.41,21.38,35,18.25,32.19s-5.65,9.29-6.66,16.15S9.88,61.82,14.52,61.82Z" transform="translate(-1.27 -1.27)" /></g></g></svg>