<svg id="D2750_-_crown_porcelain_fused_to_high_noble_metal" data-name="D2750 - crown porcelain fused to high noble metal" xmlns="http://www.w3.org/2000/svg" xmlns:xlink="http://www.w3.org/1999/xlink" viewBox="0 0 69.46 75.46"><defs><style>.cls-1,.cls-11,.cls-7{fill:none;}.cls-2{stroke:#dcddde;stroke-width:1.06px;fill:url(#New_Gradient_Swatch_2);}.cls-11,.cls-2,.cls-7{stroke-miterlimit:10;}.cls-3{fill:url(#New_Gradient_Swatch_2-2);}.cls-4{fill:#eaeeef;}.cls-5,.cls-9{fill:#fff;}.cls-6{fill:#d8dee0;}.cls-7{stroke:#b1bfc4;}.cls-11,.cls-7{stroke-width:1.4px;}.cls-8{fill:#ebe3d7;}.cls-9{opacity:0.6;}.cls-10{fill:#d9d4ca;}.cls-11{stroke:#b2b6b0;}.cls-12{clip-path:url(#clip-path);}.cls-13{fill:#dcb406;}.cls-14{fill:#e7c762;}.cls-15{fill:#eed68f;}.cls-16{fill:#f5e6bf;}.cls-17{fill:#f2dda5;}.cls-18{fill:#faf3e3;}.cls-19{fill:#f9efd7;}.cls-20{opacity:0.75;}</style><linearGradient id="New_Gradient_Swatch_2" x1="34.73" y1="51.42" x2="34.73" y2="68.26" gradientUnits="userSpaceOnUse"><stop offset="0" stop-color="#fff" /><stop offset="1" stop-color="#f2f2f2" /></linearGradient><linearGradient id="New_Gradient_Swatch_2-2" x1="35.94" y1="24.25" x2="35.94" y2="7.16" xlink:href="#New_Gradient_Swatch_2" /><clipPath id="clip-path" transform="translate(-1.27 4.73)"><path class="cls-1" d="M51.13,19.56l-1.05-.95a5.76,5.76,0,0,0-4.14-1.69h-6.8a4.49,4.49,0,0,0-2.73,1l-.29.21a.24.24,0,0,1-.27,0l-.24-.19a4.5,4.5,0,0,0-2.73-1h-6.8a5.76,5.76,0,0,0-4.13,1.68l-1.05.94v-3.7l.49-.22a11.21,11.21,0,0,1,4.7-1H45.93a11.22,11.22,0,0,1,4.71,1l.49.22Z" /></clipPath></defs><title>D2750_crown_porcelain_fused_to_high_noble_metal</title><path class="cls-4" d="M42.71,52.52c.15,5.36-2.11,8.32-1.18,8.84,1.42.79,6.32-1.9,7.9-6.64C51.91,47.3,49,43.34,49,39.55c0-2,1.42-2.05,1.42-5.37v-9.8a4.3,4.3,0,0,0-4.45-4.27h-6.8c-1.58,0-2.21,1.31-3.13,1.31s-1.55-1.31-3.13-1.31h-6.8a4.3,4.3,0,0,0-4.45,4.27v9.8c0,3.32,1.42,3.42,1.42,5.37,0,3.79-2.95,7.75-.47,15.17,1.58,4.74,6.48,7.43,7.9,6.64.93-.51-1.33-3.48-1.18-8.84.13-4.65,3.27-7.58,6.71-7.58S42.58,47.87,42.71,52.52Z" transform="translate(-1.27 4.73)" /><path class="cls-5" d="M37.21,45.07v-.58S30,43.11,27.5,49.18c-2.12,5.05.8,10.21,2.81,12.24l.16-.05c.93-.51-1.33-3.48-1.18-8.84.13-4.65,3.27-7.58,6.71-7.58A6.06,6.06,0,0,1,37.21,45.07Z" transform="translate(-1.27 4.73)" /><path class="cls-6" d="M24.69,56.73a16.75,16.75,0,0,1-1.78-8.55c0-2.58,1.45-6,1.61-8.39s-1.61-3.15-1.61-5.73V24.62a9.73,9.73,0,0,1,.91-3.94,4.15,4.15,0,0,0-2.21,3.7v9.8c0,3.32,1.42,3.42,1.42,5.37,0,3.79-2.95,7.75-.47,15.17a10.72,10.72,0,0,0,6.49,6.65A11.07,11.07,0,0,1,24.69,56.73Z" transform="translate(-1.27 4.73)" /><path class="cls-5" d="M49.43,54.72C51.91,47.3,49,43.34,49,39.55c0-2,1.42-2.05,1.42-5.37v-9.8a4.3,4.3,0,0,0-4.45-4.27h-6.8c-1.58,0-2.21,1.31-3.13,1.31s-1.55-1.31-3.13-1.31h-6.8A4.31,4.31,0,0,0,21.64,24a3.94,3.94,0,0,1,2.25-.61h9.27c1.14,0,1.37.66,2.85.66s1.52-.65,3.07-.65h3.66c3.27,0,3.89,1.35,3.89,4v6.23c0,4.05-1.4,3.66-1.4,5.76s.93,2.34,1.56,8.33c.41,4-1.87,10.12-5.14,12.62l-.31.26c-.05.37,0,.62.2.74C43,62.15,47.85,59.47,49.43,54.72Z" transform="translate(-1.27 4.73)" /><path class="cls-6" d="M41.58,60.56a27.57,27.57,0,0,0,1.77-4.09A11.15,11.15,0,0,0,42.81,48a6.91,6.91,0,0,0-5.92-3.54L37,45c3,.49,5.63,3.28,5.75,7.49a23.17,23.17,0,0,1-1.29,7.65Z" transform="translate(-1.27 4.73)" /><path class="cls-7" d="M42.71,52.52c.15,5.36-2.11,8.32-1.18,8.84,1.42.79,6.32-1.9,7.9-6.64C51.91,47.3,49,43.34,49,39.55c0-2,1.42-2.05,1.42-5.37v-9.8a4.3,4.3,0,0,0-4.45-4.27h-6.8c-1.58,0-2.21,1.31-3.13,1.31s-1.55-1.31-3.13-1.31h-6.8a4.3,4.3,0,0,0-4.45,4.27v9.8c0,3.32,1.42,3.42,1.42,5.37,0,3.79-2.95,7.75-.47,15.17,1.58,4.74,6.48,7.43,7.9,6.64.93-.51-1.33-3.48-1.18-8.84.13-4.65,3.27-7.58,6.71-7.58S42.58,47.87,42.71,52.52Z" transform="translate(-1.27 4.73)" /><path class="cls-8" d="M32.87,14.11H45.93a10.75,10.75,0,0,1,4.5,1V8.5h0L48,11.25,45.62,8.5h0l-2.4,2.75L40.82,8.5h0l-2.4,2.75L36,8.5h0l-2.4,2.75L31.2,8.5h0l-2.4,2.75L26.39,8.5h0L24,11.25,21.58,8.5h0v6.58a10.75,10.75,0,0,1,4.49-1Z" transform="translate(-1.27 4.73)" /><path class="cls-9" d="M50.44,15.09V8.5h0L48,11.25l-1.5-1.72v4.6A10.69,10.69,0,0,1,50.44,15.09Z" transform="translate(-1.27 4.73)" /><path class="cls-10" d="M22.81,9.91,21.58,8.5h0v6.58a10.45,10.45,0,0,1,1.24-.48Z" transform="translate(-1.27 4.73)" /><path class="cls-11" d="M32.87,14.11H45.93a10.75,10.75,0,0,1,4.5,1V8.5h0L48,11.25,45.62,8.5l-2.4,2.75L40.82,8.5l-2.4,2.75L36,8.5,33.6,11.25,31.2,8.5l-2.4,2.75L26.39,8.5,24,11.25,21.58,8.5h0v6.58a10.75,10.75,0,0,1,4.49-1Z" transform="translate(-1.27 4.73)" /><g class="cls-12"><polygon class="cls-13" points="13.59 20.21 33.84 40.42 54.08 20.21 33.84 0 13.59 20.21" /><polygon class="cls-14" points="24.84 31.43 30.93 37.51 51.17 17.3 45.08 11.22 24.84 31.43" /><polygon class="cls-15" points="25.82 32.41 30.15 36.73 50.39 16.53 46.06 12.21 25.82 32.41" /><polygon class="cls-14" points="20.18 26.78 24.4 31 44.64 10.79 40.42 6.57 20.18 26.78" /><polygon class="cls-16" points="26.9 33.49 28.09 34.68 48.33 14.47 47.14 13.28 26.9 33.49" /><polygon class="cls-15" points="22.73 29.33 23.92 30.51 44.16 10.31 42.97 9.12 22.73 29.33" /><polygon class="cls-17" points="20.78 27.38 21.24 27.84 41.48 7.63 41.02 7.17 20.78 27.38" /><polygon class="cls-18" points="27.49 34.08 27.71 34.3 47.95 14.09 47.73 13.87 27.49 34.08" /><polygon class="cls-19" points="20.88 27.48 21.02 27.63 41.27 7.42 41.12 7.27 20.88 27.48" /></g><g class="cls-20"><path class="cls-5" d="M41.8,15.16a1,1,0,0,0,.85-.85l.3-2.11.3,2.11a1,1,0,0,0,.85.85l2.11.3-2.11.3a1,1,0,0,0-.85.85l-.3,2.11-.3-2.11a1,1,0,0,0-.85-.85l-2.11-.3Z" transform="translate(-1.27 4.73)" /></g></svg>