<svg id="D2791_-_full_cast_predominately_base_metal" data-name="D2791 - full cast predominately base metal" xmlns="http://www.w3.org/2000/svg" xmlns:xlink="http://www.w3.org/1999/xlink" viewBox="0 0 69.46 76.46"><defs><style>.cls-1,.cls-16,.cls-7{fill:none;}.cls-2{stroke:#dcddde;stroke-width:1.06px;fill:url(#New_Gradient_Swatch_2);}.cls-16,.cls-2,.cls-7{stroke-miterlimit:10;}.cls-3{fill:url(#New_Gradient_Swatch_2-2);}.cls-4{fill:#eaeeef;}.cls-5{fill:#fff;}.cls-6{fill:#d8dee0;}.cls-7{stroke:#b1bfc4;}.cls-16,.cls-7{stroke-width:1.4px;}.cls-8{clip-path:url(#clip-path);}.cls-9{fill:#737577;}.cls-10{fill:#808285;}.cls-11{fill:#8f9194;}.cls-12{fill:#9d9fa2;}.cls-13{fill:#919396;}.cls-14{fill:#babcbe;}.cls-15{fill:#b1b3b6;}.cls-16{stroke:#5f6062;}.cls-17{opacity:0.75;}</style><linearGradient id="New_Gradient_Swatch_2" x1="34.73" y1="52.42" x2="34.73" y2="69.26" gradientUnits="userSpaceOnUse"><stop offset="0" stop-color="#fff" /><stop offset="1" stop-color="#f2f2f2" /></linearGradient><linearGradient id="New_Gradient_Swatch_2-2" x1="36" y1="24.22" x2="36" y2="7.14" xlink:href="#New_Gradient_Swatch_2" /><clipPath id="clip-path" transform="translate(-1.27 5.74)"><path class="cls-1" d="M26.06,16.42h6.8a5,5,0,0,1,3,1.11l.11.08.11-.08a5,5,0,0,1,3-1.11h6.8a6.27,6.27,0,0,1,4.5,1.84V8.5h0L48,11.25,45.62,8.5l-2.4,2.75L40.82,8.5l-2.4,2.75L36,8.5,33.6,11.25,31.2,8.5l-2.4,2.75L26.39,8.5,24,11.25,21.58,8.5h0v9.74A6.27,6.27,0,0,1,26.06,16.42Z" /></clipPath></defs><title>D2791_full_cast_predominately_base_metal</title><path class="cls-4" d="M42.71,52.52c.15,5.36-2.11,8.32-1.18,8.84,1.42.79,6.32-1.9,7.9-6.64C51.91,47.3,49,43.34,49,39.55c0-2,1.42-2.05,1.42-5.37v-9.8a4.3,4.3,0,0,0-4.45-4.27h-6.8c-1.58,0-2.21,1.31-3.13,1.31s-1.55-1.31-3.13-1.31h-6.8a4.3,4.3,0,0,0-4.45,4.27v9.8c0,3.32,1.42,3.42,1.42,5.37,0,3.79-2.95,7.75-.47,15.17,1.58,4.74,6.48,7.43,7.9,6.64.93-.51-1.33-3.48-1.18-8.84.13-4.65,3.27-7.58,6.71-7.58S42.58,47.87,42.71,52.52Z" transform="translate(-1.27 5.74)" /><path class="cls-5" d="M37.21,45.07v-.58S30,43.11,27.5,49.18c-2.12,5.05.8,10.21,2.81,12.24l.16-.05c.93-.51-1.33-3.48-1.18-8.84.13-4.65,3.27-7.58,6.71-7.58A6.06,6.06,0,0,1,37.21,45.07Z" transform="translate(-1.27 5.74)" /><path class="cls-6" d="M24.69,56.73a16.75,16.75,0,0,1-1.78-8.55c0-2.58,1.45-6,1.61-8.39s-1.61-3.15-1.61-5.73V24.62a9.73,9.73,0,0,1,.91-3.94,4.15,4.15,0,0,0-2.21,3.7v9.8c0,3.32,1.42,3.42,1.42,5.37,0,3.79-2.95,7.75-.47,15.17a10.72,10.72,0,0,0,6.49,6.65A11.07,11.07,0,0,1,24.69,56.73Z" transform="translate(-1.27 5.74)" /><path class="cls-5" d="M49.43,54.72C51.91,47.3,49,43.34,49,39.55c0-2,1.42-2.05,1.42-5.37v-9.8a4.3,4.3,0,0,0-4.45-4.27h-6.8c-1.58,0-2.21,1.31-3.13,1.31s-1.55-1.31-3.13-1.31h-6.8A4.31,4.31,0,0,0,21.64,24a3.94,3.94,0,0,1,2.25-.61h9.27c1.14,0,1.37.66,2.85.66s1.52-.65,3.07-.65h3.66c3.27,0,3.89,1.35,3.89,4v6.23c0,4.05-1.4,3.66-1.4,5.76s.93,2.34,1.56,8.33c.41,4-1.87,10.12-5.14,12.62l-.31.26c-.05.37,0,.62.2.74C43,62.15,47.85,59.47,49.43,54.72Z" transform="translate(-1.27 5.74)" /><path class="cls-6" d="M41.58,60.56a27.57,27.57,0,0,0,1.77-4.09A11.15,11.15,0,0,0,42.81,48a6.91,6.91,0,0,0-5.92-3.54L37,45c3,.49,5.63,3.28,5.75,7.49a23.17,23.17,0,0,1-1.29,7.65Z" transform="translate(-1.27 5.74)" /><path class="cls-7" d="M42.71,52.52c.15,5.36-2.11,8.32-1.18,8.84,1.42.79,6.32-1.9,7.9-6.64C51.91,47.3,49,43.34,49,39.55c0-2,1.42-2.05,1.42-5.37v-9.8a4.3,4.3,0,0,0-4.45-4.27h-6.8c-1.58,0-2.21,1.31-3.13,1.31s-1.55-1.31-3.13-1.31h-6.8a4.3,4.3,0,0,0-4.45,4.27v9.8c0,3.32,1.42,3.42,1.42,5.37,0,3.79-2.95,7.75-.47,15.17,1.58,4.74,6.48,7.43,7.9,6.64.93-.51-1.33-3.48-1.18-8.84.13-4.65,3.27-7.58,6.71-7.58S42.58,47.87,42.71,52.52Z" transform="translate(-1.27 5.74)" /><g class="cls-8"><polygon class="cls-9" points="13.59 20.21 33.84 40.42 54.08 20.21 33.84 0 13.59 20.21" /><polygon class="cls-10" points="24.84 31.43 30.93 37.51 51.17 17.3 45.08 11.22 24.84 31.43" /><polygon class="cls-11" points="25.82 32.41 30.15 36.73 50.39 16.53 46.06 12.21 25.82 32.41" /><polygon class="cls-10" points="20.18 26.78 24.4 31 44.64 10.79 40.42 6.57 20.18 26.78" /><polygon class="cls-12" points="26.9 33.49 28.09 34.68 48.33 14.47 47.14 13.28 26.9 33.49" /><polygon class="cls-11" points="22.73 29.33 23.92 30.51 44.16 10.31 42.97 9.12 22.73 29.33" /><polygon class="cls-13" points="20.78 27.38 21.24 27.84 41.48 7.63 41.02 7.17 20.78 27.38" /><polygon class="cls-14" points="27.49 34.08 27.71 34.3 47.95 14.09 47.73 13.87 27.49 34.08" /><polygon class="cls-15" points="20.88 27.48 21.02 27.63 41.27 7.42 41.12 7.27 20.88 27.48" /></g><path class="cls-16" d="M26.06,16.42h6.8a5,5,0,0,1,3,1.11l.11.08.11-.08a5,5,0,0,1,3-1.11h6.8a6.27,6.27,0,0,1,4.5,1.84V8.5h0L48,11.25,45.62,8.5l-2.4,2.75L40.82,8.5l-2.4,2.75L36,8.5,33.6,11.25,31.2,8.5l-2.4,2.75L26.39,8.5,24,11.25,21.58,8.5h0v9.74A6.27,6.27,0,0,1,26.06,16.42Z" transform="translate(-1.27 5.74)" /><g class="cls-17"><path class="cls-5" d="M41.8,14.16a1,1,0,0,0,.85-.85l.3-2.11.3,2.11a1,1,0,0,0,.85.85l2.11.3-2.11.3a1,1,0,0,0-.85.85l-.3,2.11-.3-2.11a1,1,0,0,0-.85-.85l-2.11-.3Z" transform="translate(-1.27 5.74)" /></g></svg>