<svg xmlns="http://www.w3.org/2000/svg" xmlns:xlink="http://www.w3.org/1999/xlink" viewBox="0 0 79.6 77.49"><defs><style>.cls-1,.cls-12,.cls-18,.cls-8{fill:none;}.cls-2{isolation:isolate;}.cls-3{stroke:#dcddde;stroke-width:1.06px;fill:url(#New_Gradient_Swatch_2);}.cls-12,.cls-18,.cls-3,.cls-8{stroke-miterlimit:10;}.cls-4{fill:url(#New_Gradient_Swatch_2-2);}.cls-5{fill:#eaeeef;}.cls-10,.cls-17,.cls-6{fill:#fff;}.cls-7{fill:#d8dee0;}.cls-8{stroke:#b1bfc4;}.cls-12,.cls-18,.cls-8{stroke-width:1.4px;}.cls-9{fill:#ebe3d7;}.cls-10{opacity:0.6;}.cls-11{fill:#d9d4ca;}.cls-12{stroke:#b2b6b0;}.cls-13{fill:#1ab4af;}.cls-14{clip-path:url(#clip-path);}.cls-15{fill:#79cdcc;}.cls-16{fill:#181a1d;opacity:0.07;mix-blend-mode:multiply;}.cls-17{opacity:0.4;}.cls-18{stroke:#00b1ac;}</style><linearGradient id="New_Gradient_Swatch_2" x1="44.87" y1="53.45" x2="44.87" y2="70.28" gradientUnits="userSpaceOnUse"><stop offset="0" stop-color="#fff" /><stop offset="1" stop-color="#f2f2f2" /></linearGradient><linearGradient id="New_Gradient_Swatch_2-2" x1="36" y1="24.22" x2="36" y2="7.14" xlink:href="#New_Gradient_Swatch_2" /><clipPath id="clip-path" transform="translate(8.87 6.76)"><path class="cls-1" d="M5.2,66.8C6.4,65.6,6.4,6.4,5.2,5.2,6.4,6.4,65.6,6.4,66.8,5.2,65.6,6.4,65.6,65.6,66.8,66.8,65.6,65.6,6.4,65.6,5.2,66.8Z" /></clipPath></defs><title>D2920_recement_or_rebond_crown</title><g class="cls-2"><g id="D2920_-_recement_or_rebond_crown" data-name="D2920 - recement or rebond crown"><path class="cls-5" d="M42.71,52.52c.15,5.36-2.11,8.32-1.18,8.84,1.42.79,6.32-1.9,7.9-6.64C51.91,47.3,49,43.34,49,39.55c0-2,1.42-2.05,1.42-5.37v-9.8a4.3,4.3,0,0,0-4.45-4.27h-6.8c-1.58,0-2.21,1.31-3.13,1.31s-1.55-1.31-3.13-1.31h-6.8a4.3,4.3,0,0,0-4.45,4.27v9.8c0,3.32,1.42,3.42,1.42,5.37,0,3.79-2.95,7.75-.47,15.17,1.58,4.74,6.48,7.43,7.9,6.64.93-.51-1.33-3.48-1.18-8.84.13-4.65,3.27-7.58,6.71-7.58S42.58,47.87,42.71,52.52Z" transform="translate(8.87 6.76)" /><path class="cls-6" d="M37.21,45.07v-.58S30,43.11,27.5,49.18c-2.12,5.05.8,10.21,2.81,12.24l.16-.05c.93-.51-1.33-3.48-1.18-8.84.13-4.65,3.27-7.58,6.71-7.58A6.06,6.06,0,0,1,37.21,45.07Z" transform="translate(8.87 6.76)" /><path class="cls-7" d="M24.69,56.73a16.75,16.75,0,0,1-1.78-8.55c0-2.58,1.45-6,1.61-8.39s-1.61-3.15-1.61-5.73V24.62a9.73,9.73,0,0,1,.91-3.94,4.15,4.15,0,0,0-2.21,3.7v9.8c0,3.32,1.42,3.42,1.42,5.37,0,3.79-2.95,7.75-.47,15.17a10.72,10.72,0,0,0,6.49,6.65A11.07,11.07,0,0,1,24.69,56.73Z" transform="translate(8.87 6.76)" /><path class="cls-6" d="M49.43,54.72C51.91,47.3,49,43.34,49,39.55c0-2,1.42-2.05,1.42-5.37v-9.8a4.3,4.3,0,0,0-4.45-4.27h-6.8c-1.58,0-2.21,1.31-3.13,1.31s-1.55-1.31-3.13-1.31h-6.8A4.31,4.31,0,0,0,21.64,24a3.94,3.94,0,0,1,2.25-.61h9.27c1.14,0,1.37.66,2.85.66s1.52-.65,3.07-.65h3.66c3.27,0,3.89,1.35,3.89,4v6.23c0,4.05-1.4,3.66-1.4,5.76s.93,2.34,1.56,8.33c.41,4-1.87,10.12-5.14,12.62l-.31.26c-.05.37,0,.62.2.74C43,62.15,47.85,59.47,49.43,54.72Z" transform="translate(8.87 6.76)" /><path class="cls-7" d="M41.58,60.56a27.57,27.57,0,0,0,1.77-4.09A11.15,11.15,0,0,0,42.81,48a6.91,6.91,0,0,0-5.92-3.54L37,45c3,.49,5.63,3.28,5.75,7.49a23.17,23.17,0,0,1-1.29,7.65Z" transform="translate(8.87 6.76)" /><path class="cls-8" d="M42.71,52.52c.15,5.36-2.11,8.32-1.18,8.84,1.42.79,6.32-1.9,7.9-6.64C51.91,47.3,49,43.34,49,39.55c0-2,1.42-2.05,1.42-5.37v-9.8a4.3,4.3,0,0,0-4.45-4.27h-6.8c-1.58,0-2.21,1.31-3.13,1.31s-1.55-1.31-3.13-1.31h-6.8a4.3,4.3,0,0,0-4.45,4.27v9.8c0,3.32,1.42,3.42,1.42,5.37,0,3.79-2.95,7.75-.47,15.17,1.58,4.74,6.48,7.43,7.9,6.64.93-.51-1.33-3.48-1.18-8.84.13-4.65,3.27-7.58,6.71-7.58S42.58,47.87,42.71,52.52Z" transform="translate(8.87 6.76)" /><path class="cls-9" d="M26.06,16.42h6.8a5,5,0,0,1,3,1.11l.11.08.11-.08a5,5,0,0,1,3-1.11h6.8a6.27,6.27,0,0,1,4.5,1.84V8.5h0L48,11.25,45.62,8.5h0l-2.4,2.75L40.82,8.5h0l-2.4,2.75L36,8.5h0l-2.4,2.75L31.2,8.5h0l-2.4,2.75L26.39,8.5h0L24,11.25,21.58,8.5h0v9.74A6.27,6.27,0,0,1,26.06,16.42Z" transform="translate(8.87 6.76)" /><path class="cls-10" d="M50.44,8.5h0L48,11.25l-1.5-1.72v6.91a6.23,6.23,0,0,1,3.91,1.81Z" transform="translate(8.87 6.76)" /><path class="cls-11" d="M21.58,8.5h0v9.74a6.09,6.09,0,0,1,1.24-1V9.91Z" transform="translate(8.87 6.76)" /><path class="cls-12" d="M26.06,16.42h6.8a5,5,0,0,1,3,1.11l.11.08.11-.08a5,5,0,0,1,3-1.11h6.8a6.27,6.27,0,0,1,4.5,1.84V8.5h0L48,11.25,45.62,8.5l-2.4,2.75L40.82,8.5l-2.4,2.75L36,8.5,33.6,11.25,31.2,8.5l-2.4,2.75L26.39,8.5,24,11.25,21.58,8.5h0v9.74A6.27,6.27,0,0,1,26.06,16.42Z" transform="translate(8.87 6.76)" /><path class="cls-13" d="M19.41,22.27a1.48,1.48,0,1,1-3,0,6.61,6.61,0,0,1,1.48-3A6.61,6.61,0,0,1,19.41,22.27Z" transform="translate(8.87 6.76)" /><g class="cls-14"><path class="cls-15" d="M18.32,16.76a2.41,2.41,0,0,1-.48,1,1.78,1.78,0,0,1-.83.53L-7.82,1.82-1.23-5.7Z" transform="translate(8.87 6.76)" /><polygon class="cls-16" points="2.14 7.89 26.55 24.43 25.89 24.84 0.91 8.53 2.14 7.89" /><polygon class="cls-17" points="5.52 3.06 26.58 24.3 26.98 23.49 7.4 1.01 5.52 3.06" /><path class="cls-18" d="M18.32,16.76a2.41,2.41,0,0,1-.48,1,1.78,1.78,0,0,1-.83.53L-7.82,1.82-1.23-5.7Z" transform="translate(8.87 6.76)" /></g></g></g></svg>