<svg id="D2931_-_prefabricated_stainless_steel_crown_primary_tooth_copy" data-name="D2931 - prefabricated stainless steel crown, primary tooth copy" xmlns="http://www.w3.org/2000/svg" xmlns:xlink="http://www.w3.org/1999/xlink" viewBox="0 0 69.46 69.46"><defs><style>.cls-1,.cls-16,.cls-7{fill:none;}.cls-2{stroke:#dcddde;stroke-width:1.06px;fill:url(#New_Gradient_Swatch_2);}.cls-16,.cls-2,.cls-7{stroke-miterlimit:10;}.cls-3{fill:url(#New_Gradient_Swatch_2-2);}.cls-4{fill:#eaeeef;}.cls-5{fill:#fff;}.cls-6{fill:#d8dee0;}.cls-7{stroke:#b1bfc4;}.cls-16,.cls-7{stroke-width:1.4px;}.cls-8{clip-path:url(#clip-path);}.cls-9{fill:#125d74;}.cls-10{fill:#346c81;}.cls-11{fill:#587f91;}.cls-12{fill:#7391a0;}.cls-13{fill:#628394;}.cls-14{fill:#a6b4bd;}.cls-15{fill:#95a9b4;}.cls-16{stroke:#004157;}.cls-17{opacity:0.75;}</style><linearGradient id="New_Gradient_Swatch_2" x1="34.73" y1="45.42" x2="34.73" y2="62.25" gradientUnits="userSpaceOnUse"><stop offset="0" stop-color="#fff" /><stop offset="1" stop-color="#f2f2f2" /></linearGradient><linearGradient id="New_Gradient_Swatch_2-2" x1="36" y1="24.22" x2="36" y2="7.14" xlink:href="#New_Gradient_Swatch_2" /><clipPath id="clip-path" transform="translate(-1.27 -1.27)"><path class="cls-1" d="M29.61,22.6H34a3.22,3.22,0,0,1,1.94.71l.07.05.07-.05A3.21,3.21,0,0,1,38,22.6h4.38a4,4,0,0,1,2.9,1.19V17.5h0l-1.55,1.77L42.19,17.5l-1.55,1.77L39.1,17.5l-1.55,1.77L36,17.5l-1.55,1.77L32.91,17.5l-1.55,1.77L29.82,17.5l-1.55,1.77L26.73,17.5h0v6.27A4,4,0,0,1,29.61,22.6Z" /></clipPath></defs><title>D2931_prefabricated_stainless_steel_crown_primary_tooth_copy</title><path class="cls-4" d="M40.32,47.26c.1,3.45-1.36,5.35-.76,5.69.92.51,4.07-1.22,5.08-4.27,1.59-4.77-.31-7.32-.31-9.76,0-1.26.92-1.32.92-3.46v-6.3a2.77,2.77,0,0,0-2.86-2.75H38c-1,0-1.42.84-2,.84s-1-.84-2-.84H29.61a2.77,2.77,0,0,0-2.86,2.75v6.3c0,2.14.92,2.2.92,3.46,0,2.44-1.9,5-.31,9.76,1,3.05,4.17,4.78,5.08,4.27.6-.33-.86-2.24-.76-5.69.09-3,2.1-4.87,4.32-4.87S40.23,44.27,40.32,47.26Z" transform="translate(-1.27 -1.27)" /><path class="cls-5" d="M36.78,42.47V42.1s-4.62-.89-6.25,3c-1.36,3.25.52,6.57,1.81,7.87l.1,0c.6-.33-.86-2.24-.76-5.69.09-3,2.1-4.87,4.32-4.87A3.9,3.9,0,0,1,36.78,42.47Z" transform="translate(-1.27 -1.27)" /><path class="cls-6" d="M28.72,50a10.78,10.78,0,0,1-1.14-5.5c0-1.66.93-3.84,1-5.4s-1-2-1-3.69V29.31a6.26,6.26,0,0,1,.59-2.53,2.67,2.67,0,0,0-1.42,2.38v6.3c0,2.14.92,2.2.92,3.46,0,2.44-1.9,5-.31,9.76A6.89,6.89,0,0,0,31.54,53,7.12,7.12,0,0,1,28.72,50Z" transform="translate(-1.27 -1.27)" /><path class="cls-5" d="M44.64,48.68c1.59-4.77-.31-7.32-.31-9.76,0-1.26.92-1.32.92-3.46v-6.3a2.77,2.77,0,0,0-2.86-2.75H38c-1,0-1.42.84-2,.84s-1-.84-2-.84H29.61a2.78,2.78,0,0,0-2.85,2.52,2.54,2.54,0,0,1,1.45-.39h6c.73,0,.88.42,1.83.42s1-.42,2-.42h2.36c2.1,0,2.51.87,2.51,2.58v4c0,2.61-.9,2.36-.9,3.71s.6,1.5,1,5.36c.27,2.56-1.2,6.51-3.31,8.12l-.2.17c0,.24,0,.4.13.47C40.48,53.46,43.63,51.73,44.64,48.68Z" transform="translate(-1.27 -1.27)" /><path class="cls-6" d="M39.59,52.43a17.74,17.74,0,0,0,1.14-2.63,7.17,7.17,0,0,0-.35-5.43,4.45,4.45,0,0,0-3.81-2.28l.05.35c2,.32,3.62,2.11,3.7,4.82a14.91,14.91,0,0,1-.83,4.92Z" transform="translate(-1.27 -1.27)" /><path class="cls-7" d="M40.32,47.26c.1,3.45-1.36,5.35-.76,5.69.92.51,4.07-1.22,5.08-4.27,1.59-4.77-.31-7.32-.31-9.76,0-1.26.92-1.32.92-3.46v-6.3a2.77,2.77,0,0,0-2.86-2.75H38c-1,0-1.42.84-2,.84s-1-.84-2-.84H29.61a2.77,2.77,0,0,0-2.86,2.75v6.3c0,2.14.92,2.2.92,3.46,0,2.44-1.9,5-.31,9.76,1,3.05,4.17,4.78,5.08,4.27.6-.33-.86-2.24-.76-5.69.09-3,2.1-4.87,4.32-4.87S40.23,44.27,40.32,47.26Z" transform="translate(-1.27 -1.27)" /><g class="cls-8"><polygon class="cls-9" points="21.13 20.07 34.16 33.07 47.18 20.07 34.16 7.07 21.13 20.07" /><polygon class="cls-10" points="28.37 27.29 32.28 31.2 45.31 18.2 41.39 14.29 28.37 27.29" /><polygon class="cls-11" points="29 27.93 31.78 30.7 44.81 17.7 42.02 14.92 29 27.93" /><polygon class="cls-10" points="25.37 24.3 28.09 27.02 41.11 14.01 38.39 11.3 25.37 24.3" /><polygon class="cls-12" points="29.69 28.62 30.46 29.38 43.48 16.38 42.72 15.62 29.69 28.62" /><polygon class="cls-11" points="27.01 25.94 27.77 26.7 40.8 13.7 40.03 12.94 27.01 25.94" /><polygon class="cls-13" points="25.76 24.69 26.05 24.98 39.07 11.98 38.78 11.69 25.76 24.69" /><polygon class="cls-14" points="30.07 29 30.21 29.14 43.24 16.14 43.09 15.99 30.07 29" /><polygon class="cls-15" points="25.82 24.75 25.91 24.85 38.94 11.85 38.84 11.75 25.82 24.75" /></g><path class="cls-16" d="M29.61,22.6H34a3.22,3.22,0,0,1,1.94.71l.07.05.07-.05A3.21,3.21,0,0,1,38,22.6h4.38a3.8,3.8,0,0,1,2.9.78V17.5h0l-1.55,1.77L42.19,17.5l-1.55,1.77L39.1,17.5l-1.55,1.77L36,17.5l-1.55,1.77L32.91,17.5l-1.55,1.77L29.82,17.5l-1.55,1.77L26.73,17.5h0v5.87A3.81,3.81,0,0,1,29.61,22.6Z" transform="translate(-1.27 -1.27)" /><g class="cls-17"><path class="cls-5" d="M40,20.67a.85.85,0,0,0,.73-.73L41,18.13l.26,1.81a.85.85,0,0,0,.73.73l1.81.26L42,21.18a.85.85,0,0,0-.73.73L41,23.71l-.26-1.81a.85.85,0,0,0-.73-.73l-1.81-.26Z" transform="translate(-1.27 -1.27)" /></g></svg>