<svg xmlns="http://www.w3.org/2000/svg" xmlns:xlink="http://www.w3.org/1999/xlink" viewBox="0 0 69.46 69.46"><defs><style>.cls-1{isolation:isolate;}.cls-2{stroke:#dcddde;stroke-width:1.06px;fill:url(#New_Gradient_Swatch_2);}.cls-11,.cls-2,.cls-4{stroke-miterlimit:10;}.cls-3{fill:url(#New_Gradient_Swatch_2-2);}.cls-4{fill:#b1b3b6;stroke:#b1b3b6;stroke-width:2.8px;}.cls-5{fill:#d8d2cc;}.cls-6,.cls-9{fill:#fff;}.cls-6{opacity:0.3;}.cls-7{fill:#181a1d;opacity:0.07;mix-blend-mode:multiply;}.cls-8{fill:#eaeeef;}.cls-10{fill:#d8dee0;}.cls-11{fill:none;stroke:#b1bfc4;stroke-width:1.4px;}.cls-12{fill:#737577;}</style><linearGradient id="New_Gradient_Swatch_2" x1="34.73" y1="45.42" x2="34.73" y2="62.25" gradientUnits="userSpaceOnUse"><stop offset="0" stop-color="#fff" /><stop offset="1" stop-color="#f2f2f2" /></linearGradient><linearGradient id="New_Gradient_Swatch_2-2" x1="36" y1="24.22" x2="36" y2="7.14" xlink:href="#New_Gradient_Swatch_2" /></defs><title>D2954_prefab_post_and_core_in_addition_to_crown</title><g class="cls-1"><g id="D2954_-_prefab_post_and_core_in_addition_to_crown" data-name="D2954 - prefab post and core in addition to crown"><path class="cls-4" d="M44.29,18.44c-.45-1.18-1.41-1.91-3.27-2.28l-2.08-.25c-.85-.05-1.82-.07-2.94,0s-2.08,0-2.94,0L31,16.16c-1.86.37-2.82,1.09-3.27,2.28a73.56,73.56,0,0,0-2.5,12.05H46.79A73.56,73.56,0,0,0,44.29,18.44Z" transform="translate(-1.27 -1.27)" /><path class="cls-5" d="M46.79,30.49a73.56,73.56,0,0,0-2.5-12.05c-.75-2-2.87-2.67-8.29-2.57-5.41-.1-7.54.61-8.29,2.57a73.56,73.56,0,0,0-2.5,12.05Z" transform="translate(-1.27 -1.27)" /><path class="cls-6" d="M46.73,30.08a72.5,72.5,0,0,0-2.44-11.64,3.19,3.19,0,0,0-1.87-1.86l2.26,13.36Z" transform="translate(-1.27 -1.27)" /><path class="cls-7" d="M28.21,17.56a3.18,3.18,0,0,0-.5.87,70,70,0,0,0-2.33,10.85l.8.22Z" transform="translate(-1.27 -1.27)" /><path class="cls-8" d="M47.2,29.49c-1.42-.05-4.53-2.34-5.94-4.73-1.89-3.21-.73-4.41-5.25-4.41s-3.36,1.21-5.25,4.41c-1.41,2.39-4.52,4.68-5.94,4.73l-2.18.07c.41,3.41,3.6,3.67,3.73,5.95C27,47.19,34.25,58.68,36,58.68s9-11.42,9.64-23.18c.12-2.28,3.32-2.54,3.73-5.95Z" transform="translate(-1.27 -1.27)" /><path class="cls-9" d="M47.2,29.49a5.49,5.49,0,0,1-2.45-1.11c-.8,2.4-2.66,2.55-2.66,4.61,0,2.62-.09,4.25-1.07,11.7a27.36,27.36,0,0,1-6,12.91,1.45,1.45,0,0,1-.23.2c.53.57,1,.89,1.26.89,1.75,0,9-11.42,9.64-23.18.12-2.28,3.32-2.54,3.73-5.95Z" transform="translate(-1.27 -1.27)" /><path class="cls-10" d="M28.27,35.52c0-2.7-3.25-3.56-3.94-6l-1.71.06c.41,3.41,3.6,3.67,3.73,5.95.53,9.36,5.28,18.6,8,21.9l.46.12c-1-1-2.53-4.43-4-9.3C29.79,44.94,28.27,39.8,28.27,35.52Z" transform="translate(-1.27 -1.27)" /><path class="cls-11" d="M47.2,29.49c-1.42-.05-4.53-2.34-5.94-4.73-1.89-3.21-.73-4.41-5.25-4.41s-3.36,1.21-5.25,4.41c-1.41,2.39-4.52,4.68-5.94,4.73l-2.18.07c.41,3.41,3.6,3.67,3.73,5.95C27,47.19,34.25,58.68,36,58.68s9-11.42,9.64-23.18c.12-2.28,3.32-2.54,3.73-5.95Z" transform="translate(-1.27 -1.27)" /><rect class="cls-12" x="32.85" y="15.72" width="3.75" height="30.16" /><rect class="cls-6" x="35.26" y="15.72" width="1.34" height="30.16" /><rect class="cls-7" x="32.85" y="15.72" width="0.42" height="30.16" /></g></g></svg>