<svg xmlns="http://www.w3.org/2000/svg" xmlns:xlink="http://www.w3.org/1999/xlink" viewBox="0 0 69.46 69.46"><defs><style>.cls-1{isolation:isolate;}.cls-2{stroke:#dcddde;stroke-width:1.06px;fill:url(#New_Gradient_Swatch_2);}.cls-11,.cls-12,.cls-2,.cls-4{stroke-miterlimit:10;}.cls-3{fill:url(#New_Gradient_Swatch_2-2);}.cls-4{fill:#b1b3b6;stroke:#b1b3b6;stroke-width:2.8px;}.cls-5{fill:#d8d2cc;}.cls-6,.cls-9{fill:#fff;}.cls-6{opacity:0.3;}.cls-7{fill:#181a1d;opacity:0.07;mix-blend-mode:multiply;}.cls-8{fill:#eaeeef;}.cls-10{fill:#d8dee0;}.cls-11,.cls-12{fill:none;stroke:#b1bfc4;}.cls-11{stroke-width:1.3px;}.cls-12{stroke-width:1.4px;}.cls-13{fill:#737577;}</style><linearGradient id="New_Gradient_Swatch_2" x1="34.73" y1="45.42" x2="34.73" y2="62.25" gradientUnits="userSpaceOnUse"><stop offset="0" stop-color="#fff" /><stop offset="1" stop-color="#f2f2f2" /></linearGradient><linearGradient id="New_Gradient_Swatch_2-2" x1="36" y1="24.22" x2="36" y2="7.14" xlink:href="#New_Gradient_Swatch_2" /></defs><title>D2950_core_build_up_including_any_pins</title><g class="cls-1"><g id="D2950_-_core_build_up_including_any_pins" data-name="D2950 - core build up including any pins"><path class="cls-4" d="M46.46,22.1c-.57-1.23-1.78-2-4.13-2.37l-2.63-.26c-1.08-.05-2.3-.07-3.71,0s-2.63,0-3.71,0l-2.63.26c-2.35.39-3.56,1.14-4.13,2.37a65.29,65.29,0,0,0-3.15,12.56H49.61A65.29,65.29,0,0,0,46.46,22.1Z" transform="translate(-1.27 -1.27)" /><path class="cls-5" d="M49.61,34.66A65.28,65.28,0,0,0,46.46,22.1c-.95-2-3.63-2.79-10.46-2.68-6.83-.11-9.51.63-10.46,2.68a65.28,65.28,0,0,0-3.15,12.56Z" transform="translate(-1.27 -1.27)" /><path class="cls-6" d="M49.54,34.23A64.39,64.39,0,0,0,46.46,22.1a3.73,3.73,0,0,0-2.36-1.94l2.85,13.93Z" transform="translate(-1.27 -1.27)" /><path class="cls-7" d="M26.17,21.19a3.23,3.23,0,0,0-.63.91,62.27,62.27,0,0,0-2.95,11.31l1,.23Z" transform="translate(-1.27 -1.27)" /><path class="cls-8" d="M52.54,32.68l-5.34-.18c-1.42-.05-4.53-2.34-5.94-4.73-1.89-3.21-.73-4.41-5.25-4.41s-3.36,1.21-5.25,4.41c-1.41,2.39-4.52,4.68-5.94,4.73l-5.35.18a3.93,3.93,0,0,1,.39,1.76c0,4.73-3.67,9.66-.59,18.91,2,5.91,8.08,9.26,9.85,8.27,1.15-.64-1.66-4.34-1.47-11,.17-5.8,4.07-9.44,8.36-9.44s8.19,3.64,8.36,9.44c.19,6.68-2.63,10.37-1.47,11,1.77,1,7.88-2.36,9.85-8.27,3.08-9.24-.59-14.18-.59-18.91A3.93,3.93,0,0,1,52.54,32.68Z" transform="translate(-1.27 -1.27)" /><path class="cls-9" d="M37.51,41.32l0-.72s-8.94-1.73-12.11,5.84c-2.64,6.3,1,12.72,3.5,15.25a1.28,1.28,0,0,0,.19-.07c1.15-.64-1.66-4.34-1.47-11,.17-5.8,4.07-9.44,8.36-9.44A7.55,7.55,0,0,1,37.51,41.32Z" transform="translate(-1.27 -1.27)" /><path class="cls-10" d="M43,60.62a34.36,34.36,0,0,0,2.21-5.09A13.89,13.89,0,0,0,44.48,45a8.62,8.62,0,0,0-7.38-4.41l.1.68c3.79.61,7,4.08,7.16,9.33a28.87,28.87,0,0,1-1.61,9.53Z" transform="translate(-1.27 -1.27)" /><path class="cls-9" d="M52.54,32.68l-4.67-.15a3.78,3.78,0,0,0-.37,1.74c0,2.62,1.16,2.91,1.94,10.38.52,5-2.33,12.62-6.41,15.72a5,5,0,0,0-.39.33c-.07.46,0,.77.25.92,1.77,1,7.88-2.36,9.85-8.27,3.08-9.24-.59-14.18-.59-18.91A3.93,3.93,0,0,1,52.54,32.68Z" transform="translate(-1.27 -1.27)" /><path class="cls-10" d="M21.9,55.85a20.88,20.88,0,0,1-2.21-10.66c0-3.22,1.81-7.44,2-10.46a5,5,0,0,0-.3-2.12l-1.94.06a3.93,3.93,0,0,1,.39,1.76c0,4.73-3.67,9.66-.59,18.91,1.53,4.58,5.54,7.61,8.09,8.29A13.79,13.79,0,0,1,21.9,55.85Z" transform="translate(-1.27 -1.27)" /><path class="cls-11" d="M52.54,32.68l-5.34-.18c-1.42-.05-4.53-2.34-5.94-4.73-1.89-3.21-.73-4.41-5.25-4.41s-3.36,1.21-5.25,4.41c-1.41,2.39-4.52,4.68-5.94,4.73l-5.35.18a3.93,3.93,0,0,1,.39,1.76c0,4.73-3.67,9.66-.59,18.91,2,5.91,8.08,9.26,9.85,8.27,1.15-.64-1.66-4.34-1.47-11,.17-5.8,4.07-9.44,8.36-9.44s8.19,3.64,8.36,9.44c.19,6.68-2.63,10.37-1.47,11,1.77,1,7.88-2.36,9.85-8.27,3.08-9.24-.59-14.18-.59-18.91A3.93,3.93,0,0,1,52.54,32.68Z" transform="translate(-1.27 -1.27)" /><path class="cls-12" d="M52.54,32.68l-5.34-.18c-1.42-.05-4.53-2.34-5.94-4.73-1.89-3.21-.73-4.41-5.25-4.41s-3.36,1.21-5.25,4.41c-1.41,2.39-4.52,4.68-5.94,4.73l-5.35.18a3.93,3.93,0,0,1,.39,1.76c0,4.73-3.67,9.66-.59,18.91,2,5.91,8.08,9.26,9.85,8.27,1.15-.64-1.66-4.34-1.47-11,.17-5.8,4.07-9.44,8.36-9.44s8.19,3.64,8.36,9.44c.19,6.68-2.63,10.37-1.47,11,1.77,1,7.88-2.36,9.85-8.27,3.08-9.24-.59-14.18-.59-18.91A3.93,3.93,0,0,1,52.54,32.68Z" transform="translate(-1.27 -1.27)" /><rect class="cls-13" x="30.4" y="18.74" width="2.63" height="17.08" /><rect class="cls-6" x="32.08" y="18.74" width="0.94" height="17.08" /><rect class="cls-7" x="30.4" y="18.74" width="0.29" height="17.08" /><rect class="cls-13" x="36.43" y="18.74" width="2.63" height="17.08" /><rect class="cls-6" x="38.12" y="18.74" width="0.94" height="17.08" /><rect class="cls-7" x="36.43" y="18.74" width="0.29" height="17.08" /></g></g></svg>