<svg xmlns="http://www.w3.org/2000/svg" xmlns:xlink="http://www.w3.org/1999/xlink" viewBox="0 0 69.46 80.83"><defs><style>.cls-1{isolation:isolate;}.cls-2{stroke:#dcddde;stroke-width:1.06px;fill:url(#New_Gradient_Swatch_2);}.cls-11,.cls-17,.cls-2,.cls-7{stroke-miterlimit:10;}.cls-3{fill:url(#New_Gradient_Swatch_2-2);}.cls-4{fill:#d9d4ca;}.cls-5{fill:#ebe3d7;}.cls-16,.cls-6,.cls-9{fill:#fff;}.cls-6{opacity:0.6;}.cls-11,.cls-12,.cls-17,.cls-7{fill:none;}.cls-7{stroke:#b2b6b0;}.cls-11,.cls-17,.cls-7{stroke-width:1.3px;}.cls-8{fill:#dd7b7f;}.cls-9{opacity:0.3;}.cls-10{fill:#181a1d;opacity:0.05;mix-blend-mode:multiply;}.cls-11{stroke:#b94656;}.cls-12{stroke:#991b4a;stroke-linecap:round;stroke-linejoin:round;stroke-width:0.83px;}.cls-13{fill:#991b4a;}.cls-14{fill:#eaeeef;}.cls-15{fill:#d8dee0;}.cls-17{stroke:#b1bfc4;}</style><linearGradient id="New_Gradient_Swatch_2" x1="34.73" y1="56.79" x2="34.73" y2="73.63" gradientUnits="userSpaceOnUse"><stop offset="0" stop-color="#fff" /><stop offset="1" stop-color="#f2f2f2" /></linearGradient><linearGradient id="New_Gradient_Swatch_2-2" x1="36" y1="24.22" x2="36" y2="7.14" xlink:href="#New_Gradient_Swatch_2" /></defs><title>D2962_labial_veneer_porcelain_laminate_laboratory</title><g class="cls-1"><g id="D2962_-_labial_veneer_porcelain_laminate_laboratory" data-name="D2962 - labial veneer (porcelain laminate), laboratory"><line class="cls-4" x1="21.54" y1="7.38" x2="21.54" /><path class="cls-5" d="M42.33,25.81c.08,1.44,2.48,1.52,2.48,4v9.62a3.38,3.38,0,0,1-3.64,3.16H30.83a3.38,3.38,0,0,1-3.64-3.16V29.78c0-2.45,2.39-2.53,2.48-4,.43-6.94,5.19-13.76,6.33-13.76S41.94,18.83,42.33,25.81Z" transform="translate(-1.27 10.1)" /><path class="cls-4" d="M32.59,18.26a25.55,25.55,0,0,0-1.67,7.54c0,1.79-2.68,2.22-2.68,4.13v9.3A6.64,6.64,0,0,0,29,42.14h0a3,3,0,0,1-1.8-2.74V29.78c0-2.45,2.39-2.53,2.48-4a24.15,24.15,0,0,1,5.28-13l.3-.07C34.58,13.34,33.58,15.37,32.59,18.26Z" transform="translate(-1.27 10.1)" /><path class="cls-6" d="M40,27.31a41.5,41.5,0,0,0-.71-6.94,15.63,15.63,0,0,0-4-7.66.93.93,0,0,0-.15-.12,1.55,1.55,0,0,1,.83-.53c1.15,0,5.94,6.78,6.33,13.76.08,1.44,2.48,1.52,2.48,4v9.62a3.38,3.38,0,0,1-3.64,3.16H30.83a3.47,3.47,0,0,1-3.6-2.69c0-.07,0-.14,0-.21h0a3.49,3.49,0,0,0,1.84.45H38.8c2.68,0,3.19-1,3.19-3V31.57C42,28.58,40,28.86,40,27.31Z" transform="translate(-1.27 10.1)" /><path class="cls-7" d="M42.33,25.81c.08,1.44,2.48,1.52,2.48,4v9.62a3.38,3.38,0,0,1-3.64,3.16H30.83a3.38,3.38,0,0,1-3.64-3.16V29.78c0-2.45,2.39-2.53,2.48-4,.43-6.94,5.19-13.76,6.33-13.76S41.94,18.83,42.33,25.81Z" transform="translate(-1.27 10.1)" /><path class="cls-8" d="M47.62,10.68c2.51,0,2.13,4.11,1.58,8.36s-1.91,11.75-3.6,10-5.47-4.48-9.6-4.48S28.09,27.29,26.4,29s-3.06-5.76-3.6-10-.93-8.36,1.58-8.36Z" transform="translate(-1.27 10.1)" /><path class="cls-9" d="M47.62,10.68c2.51,0,2.13,4.11,1.58,8.36s-1.91,11.75-3.6,10a15,15,0,0,0-1.77-1.54,49.09,49.09,0,0,0,2.9-8.67,27,27,0,0,0,.78-8.15Z" transform="translate(-1.27 10.1)" /><path class="cls-10" d="M24.05,21.37c.43,2.57,1.54,6.15,3.12,6.93-.29.26-.55.5-.77.73-1.69,1.75-3.06-5.76-3.6-10-.43-3.36-.75-6.63.37-7.85A46.23,46.23,0,0,0,24.05,21.37Z" transform="translate(-1.27 10.1)" /><path class="cls-11" d="M47.62,10.68c2.51,0,2.13,4.11,1.58,8.36s-1.91,11.75-3.6,10-5.47-4.48-9.6-4.48S28.09,27.29,26.4,29s-3.06-5.76-3.6-10-.93-8.36,1.58-8.36Z" transform="translate(-1.27 10.1)" /><line class="cls-12" x1="34.73" y1="63.75" x2="34.73" y2="46.2" /><polygon class="cls-13" points="38.11 48.94 37.5 49.51 34.73 46.52 31.95 49.51 31.35 48.94 34.73 45.31 38.11 48.94" /><path class="cls-14" d="M36,48.73a64.67,64.67,0,0,1-8.57-.53,2.79,2.79,0,0,0-.21,1.07v9.62A3.38,3.38,0,0,0,30.83,62H41.17a3.38,3.38,0,0,0,3.64-3.16V49.27a2.78,2.78,0,0,0-.22-1.08A64.48,64.48,0,0,1,36,48.73Z" transform="translate(-1.27 10.1)" /><path class="cls-15" d="M28.25,49.41a1.9,1.9,0,0,1,.33-1.07L27.4,48.2a2.79,2.79,0,0,0-.21,1.07v9.62A3,3,0,0,0,29,61.63h0a6.64,6.64,0,0,1-.74-2.91Z" transform="translate(-1.27 10.1)" /><path class="cls-16" d="M41.15,48.54A3.4,3.4,0,0,1,42,51.06v5.59c0,2-.51,3-3.19,3H29a3.49,3.49,0,0,1-1.84-.45h0c0,.07,0,.14,0,.21A3.47,3.47,0,0,0,30.83,62H41.17a3.38,3.38,0,0,0,3.64-3.16V49.27a2.78,2.78,0,0,0-.22-1.08C43.54,48.34,42.38,48.45,41.15,48.54Z" transform="translate(-1.27 10.1)" /><path class="cls-17" d="M36,48.73a64.67,64.67,0,0,1-8.57-.53,2.79,2.79,0,0,0-.21,1.07v9.62A3.38,3.38,0,0,0,30.83,62H41.17a3.38,3.38,0,0,0,3.64-3.16V49.27a2.78,2.78,0,0,0-.22-1.08A64.48,64.48,0,0,1,36,48.73Z" transform="translate(-1.27 10.1)" /></g></g></svg>