<svg xmlns="http://www.w3.org/2000/svg" xmlns:xlink="http://www.w3.org/1999/xlink" viewBox="0 0 69.46 69.46"><defs><style>.cls-1,.cls-17,.cls-18,.cls-9{fill:none;}.cls-2{isolation:isolate;}.cls-3{stroke:#dcddde;stroke-width:1.06px;fill:url(#New_Gradient_Swatch_2);}.cls-12,.cls-17,.cls-18,.cls-3,.cls-9{stroke-miterlimit:10;}.cls-4{fill:url(#New_Gradient_Swatch_2-2);}.cls-5{clip-path:url(#clip-path);}.cls-6{fill:#eaeeef;}.cls-7{fill:#d8dee0;}.cls-8{fill:#fff;}.cls-9{stroke:#b1bfc4;stroke-width:1.4px;}.cls-10{fill:url(#New_Gradient_Swatch_1);}.cls-11{clip-path:url(#clip-path-2);}.cls-12{fill:#6f8f97;stroke:#6f8f97;stroke-width:2.8px;}.cls-13{fill:#b1b3b6;}.cls-14{fill:#67c8c7;}.cls-15{fill:#79cdcc;}.cls-16{opacity:0.3;}.cls-17,.cls-18{stroke:#fff;stroke-linecap:round;}.cls-17{stroke-width:0.81px;}.cls-18{stroke-width:0.87px;}.cls-19,.cls-20{fill:#181a1d;opacity:0.07;}.cls-19{mix-blend-mode:multiply;}</style><linearGradient id="New_Gradient_Swatch_2" x1="34.73" y1="45.42" x2="34.73" y2="62.25" gradientUnits="userSpaceOnUse"><stop offset="0" stop-color="#fff" /><stop offset="1" stop-color="#f2f2f2" /></linearGradient><linearGradient id="New_Gradient_Swatch_2-2" x1="36.03" y1="24.32" x2="36.03" y2="7.23" xlink:href="#New_Gradient_Swatch_2" /><clipPath id="clip-path" transform="translate(-1.27 -1.27)"><path class="cls-1" d="M34.69,62.56l-11.5,2.25-13-2.5L8.31,20.06l9.56-1.75,3.59,1.3a1.94,1.94,0,0,0,1.69.73,2.1,2.1,0,0,0,1.75-.73l2.4-1.36,9.81,1.38Z" /></clipPath><linearGradient id="New_Gradient_Swatch_1" x1="23.19" y1="21.88" x2="23.19" y2="56.09" gradientUnits="userSpaceOnUse"><stop offset="0" stop-color="#87a0a7" /><stop offset="1" stop-color="#79959d" /></linearGradient><clipPath id="clip-path-2" transform="translate(-1.27 -1.27)"><path class="cls-1" d="M5.23,66.9c1.21-1.21,1.21-60.4,0-61.61,1.21,1.21,60.4,1.21,61.61,0-1.21,1.21-1.21,60.4,0,61.61C65.63,65.69,6.44,65.69,5.23,66.9Z" /></clipPath></defs><title>D3310_endodontic_therapy_anterior_tooth</title><g class="cls-2"><g id="D3310_-_endodontic_therapy_anterior_tooth" data-name="D3310 - endodontic therapy anterior tooth"><g class="cls-5"><path class="cls-6" d="M31.45,44.15c.1-2.07,3.21-2.18,3.21-5.69V24.68a4.56,4.56,0,0,0-4.71-4.52H16.56a4.56,4.56,0,0,0-4.71,4.52V38.46c0,3.52,3.09,3.62,3.21,5.69.56,9.93,6.71,19.7,8.2,19.7S30.94,54.14,31.45,44.15Z" transform="translate(-1.27 -1.27)" /><path class="cls-7" d="M18.84,55c-.87-2.79-2.16-7.16-2.16-10.8,0-2.57-3.46-3.17-3.46-5.91V24.93a10.31,10.31,0,0,1,1-4.17h0a4.39,4.39,0,0,0-2.34,3.92V38.46c0,3.52,3.09,3.62,3.21,5.69.45,8,4.49,15.81,6.84,18.61l.39.1C21.42,62,20.13,59.1,18.84,55Z" transform="translate(-1.27 -1.27)" /><path class="cls-8" d="M28.43,42c0,2.23-.08,3.61-.91,9.95a23.26,23.26,0,0,1-5.14,11,1.23,1.23,0,0,1-.2.17c.45.49.83.76,1.07.76,1.48,0,7.69-9.71,8.2-19.7.1-2.07,3.21-2.18,3.21-5.69V24.68a4.56,4.56,0,0,0-4.71-4.52H16.56A4.58,4.58,0,0,0,11.9,24c0,.1,0,.2,0,.29h0a4.18,4.18,0,0,1,2.38-.64H26.88c3.46,0,4.12,1.43,4.12,4.24v8C31,40.19,28.43,39.78,28.43,42Z" transform="translate(-1.27 -1.27)" /><path class="cls-9" d="M31.45,44.15c.1-2.07,3.21-2.18,3.21-5.69V24.68a4.56,4.56,0,0,0-4.71-4.52H16.56a4.56,4.56,0,0,0-4.71,4.52V38.46c0,3.52,3.09,3.62,3.21,5.69.56,9.93,6.71,19.7,8.2,19.7S30.94,54.14,31.45,44.15Z" transform="translate(-1.27 -1.27)" /></g><path class="cls-10" d="M24.23,56.77l-1,.6-1-.6-.68-37.16a1.94,1.94,0,0,0,1.69.73,2.1,2.1,0,0,0,1.75-.73Z" transform="translate(-1.27 -1.27)" /><g class="cls-11"><path class="cls-12" d="M55.2,44.9a6.12,6.12,0,0,1-.58-2.61V20.2h2a.87.87,0,0,0,.87-.87v-.24h.11a.7.7,0,0,0,.7-.7V11a.7.7,0,0,0-.7-.7h-.11V10a.87.87,0,0,0-.87-.87H45.54A4.59,4.59,0,0,0,41,13.74v.42l-12.19.17a.64.64,0,0,0-.53-.3c-.36,0-.88.29-.88.65s.52.65.88.65a.64.64,0,0,0,.53-.3L41,15.2v.42a4.59,4.59,0,0,0,4.59,4.59H46V43.76a17,17,0,0,0,.49,4.06l4.71,19H64.7Z" transform="translate(-1.27 -1.27)" /><polygon class="cls-13" points="27.4 13.76 41.2 13.95 41.2 12.86 27.4 13.05 27.4 13.76" /><path class="cls-13" d="M28.88,14.68a.65.65,0,0,1-.65.65c-.36,0-.88-.29-.88-.65s.52-.65.88-.65A.65.65,0,0,1,28.88,14.68Z" transform="translate(-1.27 -1.27)" /><path class="cls-14" d="M47.49,9h8.82a.7.7,0,0,1,.7.7v7.42a.7.7,0,0,1-.7.7H47.49a3.66,3.66,0,0,1-3.66-3.66v-1.5A3.66,3.66,0,0,1,47.49,9Z" /><path class="cls-15" d="M46,19.44V43.76a17.05,17.05,0,0,0,.49,4.06l4.71,19H64.7L55.2,44.9a6.12,6.12,0,0,1-.58-2.61V19.38Z" transform="translate(-1.27 -1.27)" /><path class="cls-14" d="M44.26,7.88H55.32a.87.87,0,0,1,.87.87v9.3a.87.87,0,0,1-.87.87H44.26a4.59,4.59,0,0,1-4.59-4.59V12.47A4.59,4.59,0,0,1,44.26,7.88Z" /><g class="cls-16"><line class="cls-17" x1="52.22" y1="28.74" x2="46.73" y2="28.74" /><line class="cls-17" x1="52.22" y1="30.64" x2="46.73" y2="30.64" /><line class="cls-17" x1="52.22" y1="32.53" x2="46.73" y2="32.53" /><line class="cls-17" x1="52.22" y1="34.42" x2="46.73" y2="34.42" /><line class="cls-18" x1="54.65" y1="47.6" x2="47.85" y2="48.72" /><line class="cls-18" x1="55.06" y1="49.37" x2="48.26" y2="50.5" /><line class="cls-18" x1="55.48" y1="51.15" x2="48.68" y2="52.27" /><line class="cls-18" x1="55.89" y1="52.92" x2="49.09" y2="54.04" /><line class="cls-18" x1="56.3" y1="54.69" x2="49.51" y2="55.82" /><path class="cls-8" d="M55.2,44.9a6.12,6.12,0,0,1-.58-2.61V20.22H52.43V40.83a11.26,11.26,0,0,0,.47,4.31c.5,1.44,6.56,18.34,7.83,21.68h4Z" transform="translate(-1.27 -1.27)" /></g><path class="cls-19" d="M41.47,11.66A4.53,4.53,0,0,0,41,13.74v1.88A4.58,4.58,0,0,0,43,19.45a5.93,5.93,0,0,1-1.56-3.89Z" transform="translate(-1.27 -1.27)" /><path class="cls-20" d="M52.18,66.83c-.42-1.64-4.53-16-5-18.37a22.89,22.89,0,0,1-.65-5.38V20.2H46V43.76a17,17,0,0,0,.49,4.06l4.71,19Z" transform="translate(-1.27 -1.27)" /><g class="cls-16"><path class="cls-8" d="M58.28,11a.7.7,0,0,0-.7-.7h-.11V10a.87.87,0,0,0-.87-.87H45.54a4.56,4.56,0,0,0-3.19,1.3l0,1.25A5.19,5.19,0,0,1,44.92,11H58.28Z" transform="translate(-1.27 -1.27)" /><path class="cls-8" d="M57.58,10.27h-.11V10a.87.87,0,0,0-.87-.87h-1v11h1a.87.87,0,0,0,.87-.87v-.24h.11a.7.7,0,0,0,.7-.7V11A.7.7,0,0,0,57.58,10.27Z" transform="translate(-1.27 -1.27)" /></g></g></g></g></svg>