<svg xmlns="http://www.w3.org/2000/svg" xmlns:xlink="http://www.w3.org/1999/xlink" viewBox="0 0 69.46 69.46"><defs><style>.cls-1,.cls-18,.cls-19,.cls-9{fill:none;}.cls-2{isolation:isolate;}.cls-3{stroke:#dcddde;stroke-width:1.06px;fill:url(#New_Gradient_Swatch_2);}.cls-13,.cls-18,.cls-19,.cls-3,.cls-9{stroke-miterlimit:10;}.cls-4{fill:url(#New_Gradient_Swatch_2-2);}.cls-5{clip-path:url(#clip-path);}.cls-6{fill:#eaeeef;}.cls-7{fill:#fff;}.cls-8{fill:#d8dee0;}.cls-9{stroke:#b1bfc4;stroke-width:1.4px;}.cls-10{fill:url(#New_Gradient_Swatch_1);}.cls-11{fill:url(#New_Gradient_Swatch_1-2);}.cls-12{clip-path:url(#clip-path-2);}.cls-13{fill:#6f8f97;stroke:#6f8f97;stroke-width:2.8px;}.cls-14{fill:#b1b3b6;}.cls-15{fill:#67c8c7;}.cls-16{fill:#79cdcc;}.cls-17{opacity:0.3;}.cls-18,.cls-19{stroke:#fff;stroke-linecap:round;}.cls-18{stroke-width:0.81px;}.cls-19{stroke-width:0.87px;}.cls-20,.cls-21{fill:#181a1d;opacity:0.07;}.cls-20{mix-blend-mode:multiply;}</style><linearGradient id="New_Gradient_Swatch_2" x1="34.73" y1="45.42" x2="34.73" y2="62.25" gradientUnits="userSpaceOnUse"><stop offset="0" stop-color="#fff" /><stop offset="1" stop-color="#f2f2f2" /></linearGradient><linearGradient id="New_Gradient_Swatch_2-2" x1="36.03" y1="24.32" x2="36.03" y2="7.23" xlink:href="#New_Gradient_Swatch_2" /><clipPath id="clip-path" transform="translate(-1.27 -1.27)"><path class="cls-1" d="M39.85,18.25l-3.4,1.36a2.1,2.1,0,0,1-1.75.73A1.94,1.94,0,0,1,33,19.61l-2.59-1.3L27,18.94,22,18.25l-1.4,1.36a2.1,2.1,0,0,1-1.75.73,1.94,1.94,0,0,1-1.69-.73l-4.59-1.3L8.05,20.06,9.93,62.31l8,2.5,8.83.79,9-.79,8-2.17L46.21,19.7Z" /></clipPath><linearGradient id="New_Gradient_Swatch_1" x1="17.92" y1="21.83" x2="17.92" y2="55.26" gradientUnits="userSpaceOnUse"><stop offset="0" stop-color="#87a0a7" /><stop offset="1" stop-color="#79959d" /></linearGradient><linearGradient id="New_Gradient_Swatch_1-2" x1="35.73" y1="21.83" x2="35.73" y2="55.26" xlink:href="#New_Gradient_Swatch_1" /><clipPath id="clip-path-2" transform="translate(-1.27 -1.27)"><path class="cls-1" d="M5.23,66.9c1.21-1.21,1.21-60.4,0-61.61,1.21,1.21,60.4,1.21,61.61,0-1.21,1.21-1.21,60.4,0,61.61C65.63,65.69,6.44,65.69,5.23,66.9Z" /></clipPath></defs><title>D3330_endodontic_therapy_molar_tooth</title><g class="cls-2"><g id="D3330_-_endodontic_therapy_molar_tooth" data-name="D3330 - endodontic therapy molar tooth"><g class="cls-5"><path class="cls-6" d="M33.93,54.49c.16,5.67-2.23,8.81-1.25,9.36,1.51.84,6.7-2,8.37-7,2.62-7.86-.5-12.05-.5-16.07,0-2.07,1.51-2.18,1.51-5.69V24.68a4.56,4.56,0,0,0-4.71-4.52h-7.2c-1.67,0-2.34,1.38-3.32,1.38s-1.64-1.38-3.32-1.38H16.3a4.56,4.56,0,0,0-4.71,4.52V35.06c0,3.52,1.51,3.62,1.51,5.69,0,4-3.12,8.21-.5,16.07,1.67,5,6.86,7.87,8.37,7,1-.55-1.41-3.69-1.25-9.36.14-4.93,3.46-8,7.11-8S33.79,49.56,33.93,54.49Z" transform="translate(-1.27 -1.27)" /><path class="cls-7" d="M28.11,46.6V46s-7.6-1.47-10.29,5c-2.24,5.35.85,10.81,3,13l.16-.06c1-.55-1.41-3.69-1.25-9.36.14-4.93,3.46-8,7.11-8A6.42,6.42,0,0,1,28.11,46.6Z" transform="translate(-1.27 -1.27)" /><path class="cls-8" d="M14.85,58.95A17.74,17.74,0,0,1,13,49.89c0-2.74,1.54-6.32,1.71-8.89S13,37.67,13,34.93v-10a10.31,10.31,0,0,1,1-4.17,4.39,4.39,0,0,0-2.34,3.92V35.06c0,3.52,1.51,3.62,1.51,5.69,0,4-3.12,8.21-.5,16.07a11.35,11.35,0,0,0,6.87,7A11.72,11.72,0,0,1,14.85,58.95Z" transform="translate(-1.27 -1.27)" /><path class="cls-7" d="M41.05,56.82c2.62-7.86-.5-12.05-.5-16.07,0-2.07,1.51-2.18,1.51-5.69V24.68a4.56,4.56,0,0,0-4.71-4.52H30.14c-1.67,0-2.34,1.38-3.32,1.38s-1.64-1.38-3.32-1.38H16.3a4.57,4.57,0,0,0-4.69,4.14A4.18,4.18,0,0,1,14,23.66h9.82c1.21,0,1.45.69,3,.69s1.6-.69,3.25-.69H34c3.46,0,4.12,1.43,4.12,4.24v6.6c0,4.29-1.48,3.88-1.48,6.1s1,2.47,1.65,8.83c.44,4.21-2,10.72-5.44,13.36a4.29,4.29,0,0,0-.33.28c-.06.39,0,.66.21.78C34.19,64.69,39.38,61.84,41.05,56.82Z" transform="translate(-1.27 -1.27)" /><path class="cls-8" d="M32.74,63a29.21,29.21,0,0,0,1.88-4.33A11.81,11.81,0,0,0,34,49.73,7.32,7.32,0,0,0,27.76,46l.08.57c3.22.52,6,3.47,6.09,7.93a24.54,24.54,0,0,1-1.37,8.1Z" transform="translate(-1.27 -1.27)" /><path class="cls-9" d="M33.93,54.49c.16,5.67-2.23,8.81-1.25,9.36,1.51.84,6.7-2,8.37-7,2.62-7.86-.5-12.05-.5-16.07,0-2.07,1.51-2.18,1.51-5.69V24.68a4.56,4.56,0,0,0-4.71-4.52h-7.2c-1.67,0-2.34,1.38-3.32,1.38s-1.64-1.38-3.32-1.38H16.3a4.56,4.56,0,0,0-4.71,4.52V35.06c0,3.52,1.51,3.62,1.51,5.69,0,4-3.12,8.21-.5,16.07,1.67,5,6.86,7.87,8.37,7,1-.55-1.41-3.69-1.25-9.36.14-4.93,3.46-8,7.11-8S33.79,49.56,33.93,54.49Z" transform="translate(-1.27 -1.27)" /></g><path class="cls-10" d="M17.27,55.91l-1,.6-1-.6,2-36.29a1.94,1.94,0,0,0,1.69.73,2.1,2.1,0,0,0,1.75-.73Z" transform="translate(-1.27 -1.27)" /><path class="cls-11" d="M38.46,55.91l-1,.6-1-.6L33,19.61a1.94,1.94,0,0,0,1.69.73,2.1,2.1,0,0,0,1.75-.73Z" transform="translate(-1.27 -1.27)" /><g class="cls-12"><path class="cls-13" d="M58.21,44.9a6.12,6.12,0,0,1-.58-2.61V20.2h2a.87.87,0,0,0,.87-.87v-.24h.11a.7.7,0,0,0,.7-.7V11a.7.7,0,0,0-.7-.7h-.11V10a.87.87,0,0,0-.87-.87H48.54A4.59,4.59,0,0,0,44,13.74v.42l-12.19.17a.64.64,0,0,0-.53-.3c-.36,0-.88.29-.88.65s.52.65.88.65a.64.64,0,0,0,.53-.3L44,15.2v.42a4.59,4.59,0,0,0,4.59,4.59H49V43.76a17,17,0,0,0,.49,4.06l4.71,19H67.7Z" transform="translate(-1.27 -1.27)" /><polygon class="cls-14" points="30.4 13.76 44.2 13.95 44.2 12.86 30.4 13.05 30.4 13.76" /><path class="cls-14" d="M31.88,14.68a.65.65,0,0,1-.65.65c-.36,0-.88-.29-.88-.65s.52-.65.88-.65A.65.65,0,0,1,31.88,14.68Z" transform="translate(-1.27 -1.27)" /><path class="cls-15" d="M50.49,9h8.82a.7.7,0,0,1,.7.7v7.42a.7.7,0,0,1-.7.7H50.49a3.66,3.66,0,0,1-3.66-3.66v-1.5A3.66,3.66,0,0,1,50.49,9Z" /><path class="cls-16" d="M49,19.44V43.76a17.05,17.05,0,0,0,.49,4.06L54.23,67l13.52,0L58.21,44.9a6.12,6.12,0,0,1-.58-2.61V19.38Z" transform="translate(-1.27 -1.27)" /><path class="cls-15" d="M47.27,7.88H58.32a.87.87,0,0,1,.87.87v9.3a.87.87,0,0,1-.87.87H47.27a4.59,4.59,0,0,1-4.59-4.59V12.47a4.59,4.59,0,0,1,4.59-4.59Z" /><g class="cls-17"><line class="cls-18" x1="55.23" y1="28.74" x2="49.73" y2="28.74" /><line class="cls-18" x1="55.23" y1="30.64" x2="49.73" y2="30.64" /><line class="cls-18" x1="55.23" y1="32.53" x2="49.73" y2="32.53" /><line class="cls-18" x1="55.23" y1="34.42" x2="49.73" y2="34.42" /><line class="cls-19" x1="57.65" y1="47.6" x2="50.85" y2="48.72" /><line class="cls-19" x1="58.06" y1="49.37" x2="51.27" y2="50.5" /><line class="cls-19" x1="58.48" y1="51.15" x2="51.68" y2="52.27" /><line class="cls-19" x1="58.89" y1="52.92" x2="52.09" y2="54.04" /><line class="cls-19" x1="59.31" y1="54.69" x2="52.51" y2="55.82" /><path class="cls-7" d="M58.21,44.9a6.12,6.12,0,0,1-.58-2.61V20.22H55.44V40.83a11.26,11.26,0,0,0,.47,4.31c.5,1.44,6.56,18.34,7.9,21.85h4Z" transform="translate(-1.27 -1.27)" /></g><path class="cls-20" d="M44.47,11.66A4.53,4.53,0,0,0,44,13.74v1.88A4.58,4.58,0,0,0,46,19.45a5.93,5.93,0,0,1-1.56-3.89Z" transform="translate(-1.27 -1.27)" /><path class="cls-21" d="M55.18,66.83c-.42-1.64-4.53-16-5-18.37a22.89,22.89,0,0,1-.65-5.38V20.2H49V43.76a17,17,0,0,0,.49,4.06l4.71,19Z" transform="translate(-1.27 -1.27)" /><g class="cls-17"><path class="cls-7" d="M61.28,11a.7.7,0,0,0-.7-.7h-.11V10a.87.87,0,0,0-.87-.87H48.54a4.56,4.56,0,0,0-3.19,1.3l0,1.25A5.19,5.19,0,0,1,47.92,11H61.28Z" transform="translate(-1.27 -1.27)" /><path class="cls-7" d="M60.58,10.27h-.11V10a.87.87,0,0,0-.87-.87h-1v11h1a.87.87,0,0,0,.87-.87v-.24h.11a.7.7,0,0,0,.7-.7V11A.7.7,0,0,0,60.58,10.27Z" transform="translate(-1.27 -1.27)" /></g></g></g></g></svg>