<svg xmlns="http://www.w3.org/2000/svg" xmlns:xlink="http://www.w3.org/1999/xlink" viewBox="0 0 69.46 72"><defs><style>.cls-1,.cls-15,.cls-17,.cls-18,.cls-19,.cls-8{fill:none;}.cls-2{isolation:isolate;}.cls-3{stroke:#dcddde;stroke-width:1.06px;fill:url(#New_Gradient_Swatch_2);}.cls-15,.cls-23,.cls-3,.cls-8{stroke-miterlimit:10;}.cls-4{fill:url(#New_Gradient_Swatch_2-2);}.cls-5{fill:#eaeeef;}.cls-10,.cls-13,.cls-6{fill:#fff;}.cls-7{fill:#d8dee0;}.cls-8{stroke:#b1bfc4;}.cls-15,.cls-8{stroke-width:1.4px;}.cls-9{fill:#dd7b7f;}.cls-10{opacity:0.7;font-size:14px;font-family:ProximaNova-Bold, Proxima Nova;font-weight:700;}.cls-11{letter-spacing:0.07em;}.cls-12{letter-spacing:0em;}.cls-13{opacity:0.3;}.cls-14{fill:#181a1d;opacity:0.05;}.cls-14,.cls-16{mix-blend-mode:multiply;}.cls-15{stroke:#b94656;}.cls-17,.cls-18,.cls-19{stroke:#3c3d3d;stroke-linejoin:round;stroke-width:0.7px;}.cls-18{stroke-dasharray:2.87 1.91;}.cls-19{stroke-dasharray:2.87 1.91;}.cls-20{clip-path:url(#clip-path);}.cls-21{fill:#3c3d3d;}.cls-22{clip-path:url(#clip-path-2);}.cls-23{fill:#6f8f97;stroke:#6f8f97;stroke-width:2.8px;}.cls-24{fill:#83d2e7;}.cls-25{fill:#b94656;}.cls-26{fill:#e2bb82;}</style><linearGradient id="New_Gradient_Swatch_2" x1="34.73" y1="47.96" x2="34.73" y2="64.79" gradientUnits="userSpaceOnUse"><stop offset="0" stop-color="#fff" /><stop offset="1" stop-color="#f2f2f2" /></linearGradient><linearGradient id="New_Gradient_Swatch_2-2" x1="36" y1="24.22" x2="36" y2="7.14" xlink:href="#New_Gradient_Swatch_2" /><clipPath id="clip-path" transform="translate(-1.27 1.27)"><rect class="cls-1" x="27.21" y="25.88" width="17.87" height="12.42" /></clipPath><clipPath id="clip-path-2" transform="translate(-1.27 1.27)"><path class="cls-1" d="M5.2,66.8C6.4,65.6,6.4,6.4,5.2,5.2,6.4,6.4,65.6,6.4,66.8,5.2,65.6,6.4,65.6,65.6,66.8,66.8,65.6,65.6,6.4,65.6,5.2,66.8Z" /></clipPath></defs><title>D4341_periodontal_scaling_and_root_planning_4_or_more</title><g class="cls-2"><g id="D4211_-_gingivectomy_or_gingivoplasty_one_to_three_contiguous_teeth" data-name="D4211 - gingivectomy or gingivoplasty one to three contiguous teeth"><path class="cls-5" d="M44.36,50.6c.19,6.68-2.63,10.37-1.47,11,1.77,1,7.88-2.36,9.85-8.27,3.08-9.24-.59-14.18-.59-18.91,0-2.44,1.77-2.56,1.77-6.7V15.53a5.36,5.36,0,0,0-5.54-5.32H39.9c-2,0-2.75,1.63-3.9,1.63s-1.93-1.63-3.9-1.63H23.62a5.36,5.36,0,0,0-5.54,5.32V27.74c0,4.14,1.77,4.26,1.77,6.7,0,4.73-3.67,9.66-.59,18.91,2,5.91,8.08,9.26,9.85,8.27,1.15-.64-1.66-4.34-1.47-11,.17-5.8,4.07-9.44,8.36-9.44S44.19,44.81,44.36,50.6Z" transform="translate(-1.27 1.27)" /><path class="cls-6" d="M37.51,41.32l0-.72s-8.94-1.73-12.11,5.84c-2.64,6.3,1,12.72,3.5,15.25a1.28,1.28,0,0,0,.19-.07c1.15-.64-1.66-4.34-1.47-11,.17-5.8,4.07-9.44,8.36-9.44A7.55,7.55,0,0,1,37.51,41.32Z" transform="translate(-1.27 1.27)" /><path class="cls-7" d="M21.9,55.85a20.88,20.88,0,0,1-2.21-10.66c0-3.22,1.81-7.44,2-10.46s-2-3.92-2-7.14V15.83a12.13,12.13,0,0,1,1.13-4.91,5.16,5.16,0,0,0-2.75,4.61V27.74c0,4.14,1.77,4.26,1.77,6.7,0,4.73-3.67,9.66-.59,18.91,1.53,4.58,5.54,7.61,8.09,8.29A13.79,13.79,0,0,1,21.9,55.85Z" transform="translate(-1.27 1.27)" /><path class="cls-6" d="M52.74,53.34c3.08-9.24-.59-14.18-.59-18.91,0-2.44,1.77-2.56,1.77-6.7V15.53a5.36,5.36,0,0,0-5.54-5.32H39.9c-2,0-2.75,1.63-3.9,1.63s-1.93-1.63-3.9-1.63H23.62a5.38,5.38,0,0,0-5.52,4.87,4.91,4.91,0,0,1,2.8-.76H32.45c1.42,0,1.7.82,3.55.82s1.89-.81,3.83-.81h4.56c4.08,0,4.85,1.69,4.85,5v7.76c0,5-1.75,4.56-1.75,7.18s1.16,2.91,1.94,10.38c.52,5-2.33,12.62-6.41,15.72a5.05,5.05,0,0,0-.39.33c-.07.46,0,.77.25.92C44.66,62.6,50.77,59.25,52.74,53.34Z" transform="translate(-1.27 1.27)" /><path class="cls-7" d="M43,60.62a34.36,34.36,0,0,0,2.21-5.09A13.89,13.89,0,0,0,44.48,45a8.62,8.62,0,0,0-7.38-4.41l.1.68c3.79.61,7,4.08,7.16,9.33a28.87,28.87,0,0,1-1.61,9.53Z" transform="translate(-1.27 1.27)" /><path class="cls-8" d="M44.36,50.6c.19,6.68-2.63,10.37-1.47,11,1.77,1,7.88-2.36,9.85-8.27,3.08-9.24-.59-14.18-.59-18.91,0-2.44,1.77-2.56,1.77-6.7V15.53a5.36,5.36,0,0,0-5.54-5.32H39.9c-2,0-2.75,1.63-3.9,1.63s-1.93-1.63-3.9-1.63H23.62a5.36,5.36,0,0,0-5.54,5.32V27.74c0,4.14,1.77,4.26,1.77,6.7,0,4.73-3.67,9.66-.59,18.91,2,5.91,8.08,9.26,9.85,8.27,1.15-.64-1.66-4.34-1.47-11,.17-5.8,4.07-9.44,8.36-9.44S44.19,44.81,44.36,50.6Z" transform="translate(-1.27 1.27)" /><path class="cls-9" d="M57.48,61.82c4.64,0,3.93-6.63,2.92-13.49s-3.53-19-6.66-16.15S43.63,39.41,36,39.41,21.38,35,18.25,32.19s-5.65,9.29-6.66,16.15S9.88,61.82,14.52,61.82Z" transform="translate(-1.27 1.27)" /><text class="cls-10" transform="translate(23.1 59.24)"><tspan class="cls-11">1</tspan><tspan x="6.73" y="-1">–</tspan><tspan class="cls-12" x="15.04" y="0">3</tspan></text><path class="cls-13" d="M57.48,61.82c4.64,0,3.93-6.63,2.92-13.49s-3.53-19-6.66-16.15a27,27,0,0,1-3.28,2.49,72.62,72.62,0,0,1,5.36,14,38.21,38.21,0,0,1,1.44,13.16Z" transform="translate(-1.27 1.27)" /><path class="cls-14" d="M13.91,44.55c.8-4.15,2.85-9.92,5.77-11.19-.54-.41-1-.81-1.43-1.18-3.13-2.82-5.65,9.29-6.66,16.15C10.8,53.76,10.2,59,12.28,61,11.81,56,13,49.25,13.91,44.55Z" transform="translate(-1.27 1.27)" /><path class="cls-15" d="M57.48,61.82c4.64,0,3.93-6.63,2.92-13.49s-3.53-19-6.66-16.15S43.63,39.41,36,39.41,21.38,35,18.25,32.19s-5.65,9.29-6.66,16.15S9.88,61.82,14.52,61.82Z" transform="translate(-1.27 1.27)" /><g class="cls-16"><path class="cls-17" d="M53.11,32.7a13.14,13.14,0,0,0,.28-1.47c-.35.3-.74.62-1.16.95" transform="translate(-1.27 1.27)" /><path class="cls-18" d="M50.69,33.29C47,35.78,41.7,38.37,36,38.37c-6.13,0-11.84-3-15.47-5.62" transform="translate(-1.27 1.27)" /><path class="cls-17" d="M19.76,32.17c-.42-.33-.81-.65-1.16-.95a13.14,13.14,0,0,0,.28,1.47" transform="translate(-1.27 1.27)" /><path class="cls-19" d="M19.48,34.52C21.87,40.41,28.36,44.76,36,44.76c8,0,14.78-4.8,16.85-11.15" transform="translate(-1.27 1.27)" /><g class="cls-20"><polygon class="cls-21" points="27.28 36.04 29.31 33.78 39.71 33.94 39.68 35.16 27.28 36.04" /><path class="cls-21" d="M42.59,31.27a2.21,2.21,0,1,0,2.38,2A2.21,2.21,0,0,0,42.59,31.27Zm.29,3.43A1.24,1.24,0,1,1,44,33.37,1.24,1.24,0,0,1,42.89,34.71Z" transform="translate(-1.27 1.27)" /><polygon class="cls-21" points="32.16 42.95 34.98 41.84 38.45 32.03 37.29 31.63 32.16 42.95" /><path class="cls-21" d="M40.53,26.79a2.21,2.21,0,1,0,1.06,2.94A2.21,2.21,0,0,0,40.53,26.79Zm-.41.87a1.24,1.24,0,1,1-1.65.59A1.24,1.24,0,0,1,40.12,27.67Z" transform="translate(-1.27 1.27)" /></g></g></g><g id="D4341_-_periodontal_scaling_and_root_planning_4_or_more" data-name="D4341 - periodontal scaling and root planning 4 or more"><path class="cls-5" d="M44.36,50.6c.19,6.68-2.63,10.37-1.47,11,1.77,1,7.88-2.36,9.85-8.27,3.08-9.24-.59-14.18-.59-18.91,0-2.44,1.77-2.56,1.77-6.7V15.53a5.36,5.36,0,0,0-5.54-5.32H39.9c-2,0-2.75,1.63-3.9,1.63s-1.93-1.63-3.9-1.63H23.62a5.36,5.36,0,0,0-5.54,5.32V27.74c0,4.14,1.77,4.26,1.77,6.7,0,4.73-3.67,9.66-.59,18.91,2,5.91,8.08,9.26,9.85,8.27,1.15-.64-1.66-4.34-1.47-11,.17-5.8,4.07-9.44,8.36-9.44S44.19,44.81,44.36,50.6Z" transform="translate(-1.27 1.27)" /><path class="cls-6" d="M37.51,41.32l0-.72s-8.94-1.73-12.11,5.84c-2.64,6.3,1,12.72,3.5,15.25a1.28,1.28,0,0,0,.19-.07c1.15-.64-1.66-4.34-1.47-11,.17-5.8,4.07-9.44,8.36-9.44A7.55,7.55,0,0,1,37.51,41.32Z" transform="translate(-1.27 1.27)" /><path class="cls-7" d="M21.9,55.85a20.88,20.88,0,0,1-2.21-10.66c0-3.22,1.81-7.44,2-10.46s-2-3.92-2-7.14V15.83a12.13,12.13,0,0,1,1.13-4.91,5.16,5.16,0,0,0-2.75,4.61V27.74c0,4.14,1.77,4.26,1.77,6.7,0,4.73-3.67,9.66-.59,18.91,1.53,4.58,5.54,7.61,8.09,8.29A13.79,13.79,0,0,1,21.9,55.85Z" transform="translate(-1.27 1.27)" /><path class="cls-6" d="M52.74,53.34c3.08-9.24-.59-14.18-.59-18.91,0-2.44,1.77-2.56,1.77-6.7V15.53a5.36,5.36,0,0,0-5.54-5.32H39.9c-2,0-2.75,1.63-3.9,1.63s-1.93-1.63-3.9-1.63H23.62a5.38,5.38,0,0,0-5.52,4.87,4.91,4.91,0,0,1,2.8-.76H32.45c1.42,0,1.7.82,3.55.82s1.89-.81,3.83-.81h4.56c4.08,0,4.85,1.69,4.85,5v7.76c0,5-1.75,4.56-1.75,7.18s1.16,2.91,1.94,10.38c.52,5-2.33,12.62-6.41,15.72a5.05,5.05,0,0,0-.39.33c-.07.46,0,.77.25.92C44.66,62.6,50.77,59.25,52.74,53.34Z" transform="translate(-1.27 1.27)" /><path class="cls-7" d="M43,60.62a34.36,34.36,0,0,0,2.21-5.09A13.89,13.89,0,0,0,44.48,45a8.62,8.62,0,0,0-7.38-4.41l.1.68c3.79.61,7,4.08,7.16,9.33a28.87,28.87,0,0,1-1.61,9.53Z" transform="translate(-1.27 1.27)" /><path class="cls-8" d="M44.36,50.6c.19,6.68-2.63,10.37-1.47,11,1.77,1,7.88-2.36,9.85-8.27,3.08-9.24-.59-14.18-.59-18.91,0-2.44,1.77-2.56,1.77-6.7V15.53a5.36,5.36,0,0,0-5.54-5.32H39.9c-2,0-2.75,1.63-3.9,1.63s-1.93-1.63-3.9-1.63H23.62a5.36,5.36,0,0,0-5.54,5.32V27.74c0,4.14,1.77,4.26,1.77,6.7,0,4.73-3.67,9.66-.59,18.91,2,5.91,8.08,9.26,9.85,8.27,1.15-.64-1.66-4.34-1.47-11,.17-5.8,4.07-9.44,8.36-9.44S44.19,44.81,44.36,50.6Z" transform="translate(-1.27 1.27)" /><g class="cls-22"><path class="cls-23" d="M27.38,41.28,31,40.66c.94-.16,1.61-.75,3-2.73s2.79-4.62,3.49-5.6.53-2,.26-3.61S36.39,23.27,36,21s.52-3.75,2.05-6.13L47.15.72,51,3.45s-9.26,11.4-10.85,13.4-2,2.94-1.77,4.35,1.41,6.61,1.63,7.92.57,2.22-1.15,4.63-3.44,5.31-4.07,6.18a3.49,3.49,0,0,1-2.89,1.74c-1.88.32-3.33.27-4.27.43S26.54,41.42,27.38,41.28Z" transform="translate(-1.27 1.27)" /><path class="cls-24" d="M27.38,41.28,31,40.66c.94-.16,1.61-.75,3-2.73s2.79-4.62,3.49-5.6.53-2,.26-3.61S36.39,23.27,36,21s.52-3.75,2.05-6.13L47.15.72,51,3.45s-9.26,11.4-10.85,13.4-2,2.94-1.77,4.35,1.41,6.61,1.63,7.92.57,2.22-1.15,4.63-3.44,5.31-4.07,6.18a3.49,3.49,0,0,1-2.89,1.74c-1.88.32-3.33.27-4.27.43S26.54,41.42,27.38,41.28Z" transform="translate(-1.27 1.27)" /><path class="cls-13" d="M40,29.12c-.22-1.31-1.39-6.52-1.63-7.92s.18-2.35,1.77-4.35S51,3.45,51,3.45L49.32,2.27,38.93,16.88c-1,1.44-1.85,2.07-1.46,4.4s1.66,7.54,1.81,8.4a3,3,0,0,1-.36,2.5c-.59.83-4.43,7.05-4.9,7.72a3.23,3.23,0,0,1-1.72,1.37c-.48.14-1.63.44-2.38.63.6,0,1.24-.11,2-.23a3.49,3.49,0,0,0,2.89-1.74c.62-.88,2.35-3.77,4.07-6.18S40.21,30.43,40,29.12Z" transform="translate(-1.27 1.27)" /></g><path class="cls-9" d="M57.48,61.82c4.64,0,3.93-6.63,2.92-13.49s-3.53-19-6.66-16.15S43.63,39.41,36,39.41,21.38,35,18.25,32.19s-5.65,9.29-6.66,16.15S9.88,61.82,14.52,61.82Z" transform="translate(-1.27 1.27)" /><text class="cls-10" transform="translate(27.02 59.24)">4+</text><path class="cls-13" d="M57.48,61.82c4.64,0,3.93-6.63,2.92-13.49s-3.53-19-6.66-16.15a27,27,0,0,1-3.28,2.49,72.62,72.62,0,0,1,5.36,14,38.21,38.21,0,0,1,1.44,13.16Z" transform="translate(-1.27 1.27)" /><path class="cls-14" d="M13.91,44.55c.8-4.15,2.85-9.92,5.77-11.19-.54-.41-1-.81-1.43-1.18-3.13-2.82-5.65,9.29-6.66,16.15C10.8,53.76,10.2,59,12.28,61,11.81,56,13,49.25,13.91,44.55Z" transform="translate(-1.27 1.27)" /><path class="cls-15" d="M57.48,61.82c4.64,0,3.93-6.63,2.92-13.49s-3.53-19-6.66-16.15S43.63,39.41,36,39.41,21.38,35,18.25,32.19s-5.65,9.29-6.66,16.15S9.88,61.82,14.52,61.82Z" transform="translate(-1.27 1.27)" /><path class="cls-25" d="M27.62,42.11c-1,0-1.07-.66-.27-.82l.77-.15c.06,0,0-.08,0-.08-1.58.09-2,.44-2,1s.77.73,1.27.72c1.45,0,3,0,4.77-.11,2.14-.12,2.63-.75,3.57-2.2.06-.1.56-.94,1-1.78l-.62,0h-.55c-.3.46-.59.9-.83,1.25a3.24,3.24,0,0,1-2.87,1.71C29.89,41.89,28.57,42.07,27.62,42.11Z" transform="translate(-1.27 1.27)" /><circle class="cls-26" cx="25.5" cy="27.86" r="2.19" transform="translate(-2.29 2.24) rotate(-2.12)" /><circle class="cls-26" cx="28.41" cy="34.54" r="1.39" transform="translate(-2.53 2.35) rotate(-2.12)" /><circle class="cls-26" cx="29.79" cy="30.48" r="1.24" transform="translate(-2.38 2.4) rotate(-2.12)" /><circle class="cls-26" cx="31.69" cy="32.69" r="0.87" transform="translate(-2.46 2.47) rotate(-2.12)" /><circle class="cls-26" cx="31.76" cy="36.09" r="1.06" transform="translate(-2.59 2.47) rotate(-2.12)" /><circle class="cls-26" cx="23.7" cy="32.7" r="1.06" transform="translate(-2.47 2.17) rotate(-2.12)" /><circle class="cls-26" cx="26.69" cy="31.63" r="0.87" transform="translate(-2.43 2.28) rotate(-2.12)" /><circle class="cls-26" cx="21.74" cy="29.93" r="0.87" transform="translate(-2.37 2.1) rotate(-2.12)" /></g></g></svg>