<svg xmlns="http://www.w3.org/2000/svg" xmlns:xlink="http://www.w3.org/1999/xlink" viewBox="0 0 69.46 80.51"><defs><style>.cls-1,.cls-15,.cls-17,.cls-18,.cls-19,.cls-30,.cls-33,.cls-8{fill:none;}.cls-2{isolation:isolate;}.cls-3{stroke:#dcddde;stroke-width:1.06px;fill:url(#New_Gradient_Swatch_2);}.cls-15,.cls-3,.cls-30,.cls-36,.cls-8{stroke-miterlimit:10;}.cls-4{fill:url(#New_Gradient_Swatch_2-2);}.cls-5{fill:#eaeeef;}.cls-10,.cls-13,.cls-6{fill:#fff;}.cls-7{fill:#d8dee0;}.cls-30,.cls-8{stroke:#b1bfc4;}.cls-15,.cls-8{stroke-width:1.4px;}.cls-9{fill:#dd7b7f;}.cls-10{opacity:0.7;font-size:14px;font-family:ProximaNova-Bold, Proxima Nova;font-weight:700;}.cls-11{letter-spacing:0.07em;}.cls-12{letter-spacing:0em;}.cls-13{opacity:0.3;}.cls-14,.cls-31,.cls-32{fill:#181a1d;}.cls-14{opacity:0.05;}.cls-14,.cls-16,.cls-31{mix-blend-mode:multiply;}.cls-15,.cls-33{stroke:#b94656;}.cls-17,.cls-18,.cls-19{stroke:#3c3d3d;stroke-width:0.7px;}.cls-17,.cls-18,.cls-19,.cls-33{stroke-linejoin:round;}.cls-18{stroke-dasharray:2.87 1.91;}.cls-19{stroke-dasharray:2.87 1.91;}.cls-20{clip-path:url(#clip-path);}.cls-21{fill:#3c3d3d;}.cls-22{fill:url(#New_Gradient_Swatch_2-4);}.cls-23{fill:url(#New_Gradient_Swatch_2-5);}.cls-24{fill:url(#New_Gradient_Swatch_2-6);}.cls-25{fill:url(#New_Gradient_Swatch_2-7);}.cls-26{fill:url(#New_Gradient_Swatch_2-8);}.cls-27{fill:url(#New_Gradient_Swatch_2-9);}.cls-28{fill:url(#New_Gradient_Swatch_2-10);}.cls-29{fill:url(#New_Gradient_Swatch_2-11);}.cls-31,.cls-32{opacity:0.07;}.cls-33{stroke-linecap:round;stroke-width:1.2px;}.cls-34{fill:#b1bfc4;}.cls-35{clip-path:url(#clip-path-2);}.cls-36{fill:#9bc0d3;stroke:#6f8f97;stroke-width:2.4px;}.cls-37{fill:#83d2e7;}</style><linearGradient id="New_Gradient_Swatch_2" x1="34.73" y1="56.48" x2="34.73" y2="73.31" gradientUnits="userSpaceOnUse"><stop offset="0" stop-color="#fff" /><stop offset="1" stop-color="#f2f2f2" /></linearGradient><linearGradient id="New_Gradient_Swatch_2-2" x1="36" y1="24.22" x2="36" y2="7.14" xlink:href="#New_Gradient_Swatch_2" /><clipPath id="clip-path" transform="translate(-1.27 9.79)"><rect class="cls-1" x="27.21" y="25.88" width="17.87" height="12.42" /></clipPath><linearGradient id="New_Gradient_Swatch_2-4" x1="36.03" y1="24.32" x2="36.03" y2="7.23" xlink:href="#New_Gradient_Swatch_2" /><linearGradient id="New_Gradient_Swatch_2-5" x1="51.47" y1="39.28" x2="51.47" y2="36.41" xlink:href="#New_Gradient_Swatch_2" /><linearGradient id="New_Gradient_Swatch_2-6" x1="54.35" y1="37.35" x2="54.35" y2="35.12" gradientTransform="matrix(1, 0, 0, -1, -1.27, 89.68)" xlink:href="#New_Gradient_Swatch_2" /><linearGradient id="New_Gradient_Swatch_2-7" x1="48.37" y1="36.67" x2="48.37" y2="34.17" gradientTransform="matrix(1, 0, 0, -1, -1.27, 89.68)" xlink:href="#New_Gradient_Swatch_2" /><linearGradient id="New_Gradient_Swatch_2-8" x1="41.85" y1="36.67" x2="41.85" y2="34.17" gradientTransform="matrix(1, 0, 0, -1, -1.27, 89.68)" xlink:href="#New_Gradient_Swatch_2" /><linearGradient id="New_Gradient_Swatch_2-9" x1="35.02" y1="36.67" x2="35.02" y2="34.17" gradientTransform="matrix(1, 0, 0, -1, -1.27, 89.68)" xlink:href="#New_Gradient_Swatch_2" /><linearGradient id="New_Gradient_Swatch_2-10" x1="43.49" y1="38.34" x2="43.49" y2="35.09" xlink:href="#New_Gradient_Swatch_2" /><linearGradient id="New_Gradient_Swatch_2-11" x1="33.8" y1="38.34" x2="33.8" y2="35.09" xlink:href="#New_Gradient_Swatch_2" /><clipPath id="clip-path-2" transform="translate(-1.27 9.79)"><path class="cls-1" d="M5.2,66.8C6.4,65.6,6.4,6.4,5.2,5.2,6.4,6.4,65.6,6.4,66.8,5.2,65.6,6.4,65.6,65.6,66.8,66.8,65.6,65.6,6.4,65.6,5.2,66.8Z" /></clipPath></defs><title>D4355_full_mouth_debridement</title><g class="cls-2"><g id="D4211_-_gingivectomy_or_gingivoplasty_one_to_three_contiguous_teeth" data-name="D4211 - gingivectomy or gingivoplasty one to three contiguous teeth"><path class="cls-5" d="M44.36,50.6c.19,6.68-2.63,10.37-1.47,11,1.77,1,7.88-2.36,9.85-8.27,3.08-9.24-.59-14.18-.59-18.91,0-2.44,1.77-2.56,1.77-6.7V15.53a5.36,5.36,0,0,0-5.54-5.32H39.9c-2,0-2.75,1.63-3.9,1.63s-1.93-1.63-3.9-1.63H23.62a5.36,5.36,0,0,0-5.54,5.32V27.74c0,4.14,1.77,4.26,1.77,6.7,0,4.73-3.67,9.66-.59,18.91,2,5.91,8.08,9.26,9.85,8.27,1.15-.64-1.66-4.34-1.47-11,.17-5.8,4.07-9.44,8.36-9.44S44.19,44.81,44.36,50.6Z" transform="translate(-1.27 9.79)" /><path class="cls-6" d="M37.51,41.32l0-.72s-8.94-1.73-12.11,5.84c-2.64,6.3,1,12.72,3.5,15.25a1.28,1.28,0,0,0,.19-.07c1.15-.64-1.66-4.34-1.47-11,.17-5.8,4.07-9.44,8.36-9.44A7.55,7.55,0,0,1,37.51,41.32Z" transform="translate(-1.27 9.79)" /><path class="cls-7" d="M21.9,55.85a20.88,20.88,0,0,1-2.21-10.66c0-3.22,1.81-7.44,2-10.46s-2-3.92-2-7.14V15.83a12.13,12.13,0,0,1,1.13-4.91,5.16,5.16,0,0,0-2.75,4.61V27.74c0,4.14,1.77,4.26,1.77,6.7,0,4.73-3.67,9.66-.59,18.91,1.53,4.58,5.54,7.61,8.09,8.29A13.79,13.79,0,0,1,21.9,55.85Z" transform="translate(-1.27 9.79)" /><path class="cls-6" d="M52.74,53.34c3.08-9.24-.59-14.18-.59-18.91,0-2.44,1.77-2.56,1.77-6.7V15.53a5.36,5.36,0,0,0-5.54-5.32H39.9c-2,0-2.75,1.63-3.9,1.63s-1.93-1.63-3.9-1.63H23.62a5.38,5.38,0,0,0-5.52,4.87,4.91,4.91,0,0,1,2.8-.76H32.45c1.42,0,1.7.82,3.55.82s1.89-.81,3.83-.81h4.56c4.08,0,4.85,1.69,4.85,5v7.76c0,5-1.75,4.56-1.75,7.18s1.16,2.91,1.94,10.38c.52,5-2.33,12.62-6.41,15.72a5.05,5.05,0,0,0-.39.33c-.07.46,0,.77.25.92C44.66,62.6,50.77,59.25,52.74,53.34Z" transform="translate(-1.27 9.79)" /><path class="cls-7" d="M43,60.62a34.36,34.36,0,0,0,2.21-5.09A13.89,13.89,0,0,0,44.48,45a8.62,8.62,0,0,0-7.38-4.41l.1.68c3.79.61,7,4.08,7.16,9.33a28.87,28.87,0,0,1-1.61,9.53Z" transform="translate(-1.27 9.79)" /><path class="cls-8" d="M44.36,50.6c.19,6.68-2.63,10.37-1.47,11,1.77,1,7.88-2.36,9.85-8.27,3.08-9.24-.59-14.18-.59-18.91,0-2.44,1.77-2.56,1.77-6.7V15.53a5.36,5.36,0,0,0-5.54-5.32H39.9c-2,0-2.75,1.63-3.9,1.63s-1.93-1.63-3.9-1.63H23.62a5.36,5.36,0,0,0-5.54,5.32V27.74c0,4.14,1.77,4.26,1.77,6.7,0,4.73-3.67,9.66-.59,18.91,2,5.91,8.08,9.26,9.85,8.27,1.15-.64-1.66-4.34-1.47-11,.17-5.8,4.07-9.44,8.36-9.44S44.19,44.81,44.36,50.6Z" transform="translate(-1.27 9.79)" /><path class="cls-9" d="M57.48,61.82c4.64,0,3.93-6.63,2.92-13.49s-3.53-19-6.66-16.15S43.63,39.41,36,39.41,21.38,35,18.25,32.19s-5.65,9.29-6.66,16.15S9.88,61.82,14.52,61.82Z" transform="translate(-1.27 9.79)" /><text class="cls-10" transform="translate(23.1 67.75)"><tspan class="cls-11">1</tspan><tspan x="6.73" y="-1">–</tspan><tspan class="cls-12" x="15.04" y="0">3</tspan></text><path class="cls-13" d="M57.48,61.82c4.64,0,3.93-6.63,2.92-13.49s-3.53-19-6.66-16.15a27,27,0,0,1-3.28,2.49,72.62,72.62,0,0,1,5.36,14,38.21,38.21,0,0,1,1.44,13.16Z" transform="translate(-1.27 9.79)" /><path class="cls-14" d="M13.91,44.55c.8-4.15,2.85-9.92,5.77-11.19-.54-.41-1-.81-1.43-1.18-3.13-2.82-5.65,9.29-6.66,16.15C10.8,53.76,10.2,59,12.28,61,11.81,56,13,49.25,13.91,44.55Z" transform="translate(-1.27 9.79)" /><path class="cls-15" d="M57.48,61.82c4.64,0,3.93-6.63,2.92-13.49s-3.53-19-6.66-16.15S43.63,39.41,36,39.41,21.38,35,18.25,32.19s-5.65,9.29-6.66,16.15S9.88,61.82,14.52,61.82Z" transform="translate(-1.27 9.79)" /><g class="cls-16"><path class="cls-17" d="M53.11,32.7a13.14,13.14,0,0,0,.28-1.47c-.35.3-.74.62-1.16.95" transform="translate(-1.27 9.79)" /><path class="cls-18" d="M50.69,33.29C47,35.78,41.7,38.37,36,38.37c-6.13,0-11.84-3-15.47-5.62" transform="translate(-1.27 9.79)" /><path class="cls-17" d="M19.76,32.17c-.42-.33-.81-.65-1.16-.95a13.14,13.14,0,0,0,.28,1.47" transform="translate(-1.27 9.79)" /><path class="cls-19" d="M19.48,34.52C21.87,40.41,28.36,44.76,36,44.76c8,0,14.78-4.8,16.85-11.15" transform="translate(-1.27 9.79)" /><g class="cls-20"><polygon class="cls-21" points="27.28 44.55 29.31 42.3 39.71 42.45 39.68 43.68 27.28 44.55" /><path class="cls-21" d="M42.59,31.27a2.21,2.21,0,1,0,2.38,2A2.21,2.21,0,0,0,42.59,31.27Zm.29,3.43A1.24,1.24,0,1,1,44,33.37,1.24,1.24,0,0,1,42.89,34.71Z" transform="translate(-1.27 9.79)" /><polygon class="cls-21" points="32.16 51.47 34.98 50.35 38.45 40.55 37.29 40.15 32.16 51.47" /><path class="cls-21" d="M40.53,26.79a2.21,2.21,0,1,0,1.06,2.94A2.21,2.21,0,0,0,40.53,26.79Zm-.41.87a1.24,1.24,0,1,1-1.65.59A1.24,1.24,0,0,1,40.12,27.67Z" transform="translate(-1.27 9.79)" /></g></g></g><g id="D4355_-_full_mouth_debridement" data-name="D4355 - full mouth debridement"><path class="cls-22" d="M5.23,66.9c1.21-1.21,1.21-60.4,0-61.61,1.21,1.21,60.4,1.21,61.61,0-1.21,1.21-1.21,60.4,0,61.61C65.63,65.69,6.44,65.69,5.23,66.9Z" transform="translate(-1.27 9.79)" /><path class="cls-5" d="M36,43.68V38.62A1.54,1.54,0,0,0,34.55,37H30.42A1.54,1.54,0,0,0,29,38.62v5.07c0,1.29,1.82,2.65,3.54,2.65S36,45,36,43.68Z" transform="translate(-1.27 9.79)" /><path class="cls-5" d="M29,43.28V38.52A1.45,1.45,0,0,0,27.6,37H23.72a1.45,1.45,0,0,0-1.37,1.56v4.77c0,1.22,1.71,2.49,3.33,2.49S29,44.5,29,43.28Z" transform="translate(-1.27 9.79)" /><path class="cls-5" d="M22.35,42.63V38.36A1.3,1.3,0,0,0,21.13,37H17.65a1.3,1.3,0,0,0-1.22,1.4v4.27c0,1.09,1.53,2.23,3,2.23S22.35,43.72,22.35,42.63Z" transform="translate(-1.27 9.79)" /><path class="cls-5" d="M16.43,42.19V38.25A1.22,1.22,0,0,0,15.26,37H12a1.22,1.22,0,0,0-1.16,1.29v3.94c0,1,1.46,2.06,2.84,2.06S16.43,43.19,16.43,42.19Z" transform="translate(-1.27 9.79)" /><path class="cls-5" d="M36,43.68V38.62A1.54,1.54,0,0,1,37.45,37h4.13A1.54,1.54,0,0,1,43,38.62v5.07c0,1.29-1.82,2.65-3.54,2.65S36,45,36,43.68Z" transform="translate(-1.27 9.79)" /><path class="cls-5" d="M43,43.28V38.52A1.45,1.45,0,0,1,44.4,37h3.88a1.45,1.45,0,0,1,1.37,1.56v4.77c0,1.22-1.71,2.49-3.33,2.49S43,44.5,43,43.28Z" transform="translate(-1.27 9.79)" /><path class="cls-5" d="M49.65,42.63V38.36A1.3,1.3,0,0,1,50.87,37h3.48a1.3,1.3,0,0,1,1.22,1.4v4.27c0,1.09-1.53,2.23-3,2.23S49.65,43.72,49.65,42.63Z" transform="translate(-1.27 9.79)" /><path class="cls-5" d="M55.57,42.19V38.25A1.22,1.22,0,0,1,56.74,37H60a1.22,1.22,0,0,1,1.16,1.29v3.94c0,1-1.46,2.06-2.84,2.06S55.57,43.19,55.57,42.19Z" transform="translate(-1.27 9.79)" /><path class="cls-5" d="M25.85,27.8V34.7A2.15,2.15,0,0,0,27.94,37h6A2.15,2.15,0,0,0,36,34.7V27.8c0-1.76-2.63-3.6-5.11-3.6S25.85,26,25.85,27.8Z" transform="translate(-1.27 9.79)" /><path class="cls-5" d="M17.82,29v6a1.81,1.81,0,0,0,1.66,2h4.71a1.81,1.81,0,0,0,1.66-2V29c0-1.53-2.08-3.14-4-3.14S17.82,27.44,17.82,29Z" transform="translate(-1.27 9.79)" /><path class="cls-5" d="M10.79,30.23v5.07A1.54,1.54,0,0,0,12.24,37h4.13a1.54,1.54,0,0,0,1.45-1.66V30.23c0-1.29-1.82-2.65-3.54-2.65S10.79,28.94,10.79,30.23Z" transform="translate(-1.27 9.79)" /><polygon class="cls-7" points="10.93 38.37 10.93 46.56 10.07 46.33 9.46 45.08 9.46 39.29 10.07 38.66 10.93 38.37" /><polygon class="cls-7" points="10.96 46.68 10.96 53.63 10.47 53.4 9.86 52.14 9.86 47.6 10.47 46.97 10.96 46.68" /><polygon class="cls-7" points="16.56 46.68 16.56 53.63 16.07 53.4 15.46 52.14 15.46 47.6 16.07 46.97 16.56 46.68" /><polygon class="cls-7" points="22.53 46.68 22.53 54.96 22.04 54.73 21.42 53.48 21.42 47.6 22.04 46.97 22.53 46.68" /><polygon class="cls-7" points="29.12 46.68 29.12 54.96 28.63 54.73 28.02 53.48 28.02 47.6 28.63 46.97 29.12 46.68" /><polygon class="cls-7" points="17.95 36.61 17.95 46.56 17.08 46.33 16.47 45.08 16.47 37.54 17.08 36.9 17.95 36.61" /><polygon class="cls-7" points="26.01 35.27 26.01 46.56 25.14 46.33 24.53 45.08 24.53 36.19 25.14 35.56 26.01 35.27" /><path class="cls-5" d="M46.15,27.8V34.7A2.15,2.15,0,0,1,44.06,37h-6A2.15,2.15,0,0,1,36,34.7V27.8c0-1.76,2.63-3.6,5.11-3.6S46.15,26,46.15,27.8Z" transform="translate(-1.27 9.79)" /><path class="cls-5" d="M54.18,29v6a1.81,1.81,0,0,1-1.66,2H47.81a1.81,1.81,0,0,1-1.66-2V29c0-1.53,2.08-3.14,4-3.14S54.18,27.44,54.18,29Z" transform="translate(-1.27 9.79)" /><path class="cls-5" d="M61.21,30.23v5.07A1.54,1.54,0,0,1,59.76,37H55.64a1.54,1.54,0,0,1-1.45-1.66V30.23c0-1.29,1.82-2.65,3.54-2.65S61.21,28.94,61.21,30.23Z" transform="translate(-1.27 9.79)" /><polygon class="cls-23" points="50.11 36.08 50.11 46.44 52.8 46.44 52.84 38.06 51.41 36.56 50.11 36.08" /><polygon class="cls-24" points="51.67 54.82 51.67 46.9 54.46 46.78 54.49 52.72 53.06 54.22 51.67 54.82" /><polygon class="cls-25" points="46.02 55.79 46.02 46.78 48.14 46.78 48.17 53.81 46.74 55.31 46.02 55.79" /><polygon class="cls-26" points="39.81 55.79 39.81 46.78 41.32 46.78 41.35 53.81 40.71 55.03 39.81 55.79" /><polygon class="cls-27" points="33.17 55.79 33.17 46.78 34.31 46.78 34.34 53.81 33.7 55.03 33.17 55.79" /><polygon class="cls-28" points="42.47 34.72 42.47 46.44 44.49 46.44 44.52 38.06 43.91 35.6 42.47 34.72" /><polygon class="cls-29" points="33.03 34.72 33.03 46.44 34.54 46.44 34.57 38.06 33.96 35.6 33.03 34.72" /><path class="cls-6" d="M61.14,36.9l.11-6.9s.21-1.09-1.2-2a4,4,0,0,0-2.61-.67v9.57Z" transform="translate(-1.27 9.79)" /><path class="cls-6" d="M58.19,37.34v7.21a2.71,2.71,0,0,0,1.9-.57,2.51,2.51,0,0,0,1.28-1.86l-.23-4.78Z" transform="translate(-1.27 9.79)" /><path class="cls-30" d="M36,43.68V38.62A1.54,1.54,0,0,0,34.55,37H30.42A1.54,1.54,0,0,0,29,38.62v5.07c0,1.29,1.82,2.65,3.54,2.65S36,45,36,43.68Z" transform="translate(-1.27 9.79)" /><path class="cls-30" d="M29,43.28V38.52A1.45,1.45,0,0,0,27.6,37H23.72a1.45,1.45,0,0,0-1.37,1.56v4.77c0,1.22,1.71,2.49,3.33,2.49S29,44.5,29,43.28Z" transform="translate(-1.27 9.79)" /><path class="cls-30" d="M22.35,42.63V38.36A1.3,1.3,0,0,0,21.13,37H17.65a1.3,1.3,0,0,0-1.22,1.4v4.27c0,1.09,1.53,2.23,3,2.23S22.35,43.72,22.35,42.63Z" transform="translate(-1.27 9.79)" /><path class="cls-30" d="M16.43,42.19V38.25A1.22,1.22,0,0,0,15.26,37H12a1.22,1.22,0,0,0-1.16,1.29v3.94c0,1,1.46,2.06,2.84,2.06S16.43,43.19,16.43,42.19Z" transform="translate(-1.27 9.79)" /><path class="cls-30" d="M36,43.68V38.62A1.54,1.54,0,0,1,37.45,37h4.13A1.54,1.54,0,0,1,43,38.62v5.07c0,1.29-1.82,2.65-3.54,2.65S36,45,36,43.68Z" transform="translate(-1.27 9.79)" /><path class="cls-30" d="M43,43.28V38.52A1.45,1.45,0,0,1,44.4,37h3.88a1.45,1.45,0,0,1,1.37,1.56v4.77c0,1.22-1.71,2.49-3.33,2.49S43,44.5,43,43.28Z" transform="translate(-1.27 9.79)" /><path class="cls-30" d="M49.65,42.63V38.36A1.3,1.3,0,0,1,50.87,37h3.48a1.3,1.3,0,0,1,1.22,1.4v4.27c0,1.09-1.53,2.23-3,2.23S49.65,43.72,49.65,42.63Z" transform="translate(-1.27 9.79)" /><path class="cls-30" d="M55.57,42.19V38.25A1.22,1.22,0,0,1,56.74,37H60a1.22,1.22,0,0,1,1.16,1.29v3.94c0,1-1.46,2.06-2.84,2.06S55.57,43.19,55.57,42.19Z" transform="translate(-1.27 9.79)" /><path class="cls-30" d="M25.85,27.8V34.7A2.15,2.15,0,0,0,27.94,37h6A2.15,2.15,0,0,0,36,34.7V27.8c0-1.76-2.63-3.6-5.11-3.6S25.85,26,25.85,27.8Z" transform="translate(-1.27 9.79)" /><path class="cls-30" d="M17.82,29v6a1.81,1.81,0,0,0,1.66,2h4.71a1.81,1.81,0,0,0,1.66-2V29c0-1.53-2.08-3.14-4-3.14S17.82,27.44,17.82,29Z" transform="translate(-1.27 9.79)" /><path class="cls-30" d="M10.79,30.23v5.07A1.54,1.54,0,0,0,12.24,37h4.13a1.54,1.54,0,0,0,1.45-1.66V30.23c0-1.29-1.82-2.65-3.54-2.65S10.79,28.94,10.79,30.23Z" transform="translate(-1.27 9.79)" /><path class="cls-30" d="M46.15,27.8V34.7A2.15,2.15,0,0,1,44.06,37h-6A2.15,2.15,0,0,1,36,34.7V27.8c0-1.76,2.63-3.6,5.11-3.6S46.15,26,46.15,27.8Z" transform="translate(-1.27 9.79)" /><path class="cls-30" d="M54.18,29v6a1.81,1.81,0,0,1-1.66,2H47.81a1.81,1.81,0,0,1-1.66-2V29c0-1.53,2.08-3.14,4-3.14S54.18,27.44,54.18,29Z" transform="translate(-1.27 9.79)" /><path class="cls-30" d="M61.21,30.23v5.07A1.54,1.54,0,0,1,59.76,37H55.64a1.54,1.54,0,0,1-1.45-1.66V30.23c0-1.29,1.82-2.65,3.54-2.65S61.21,28.94,61.21,30.23Z" transform="translate(-1.27 9.79)" /><path class="cls-9" d="M63.17,24.33C59.17,20.83,50,15,36,15S12.83,20.83,8.83,24.33c-2.9,2.54,2,6.09,2,5.9,0-1.29,1.77-2.65,3.49-2.65s3.54,1.36,3.54,2.65c0,.22,0-.88,0-1.26,0-1.53,2-3.14,4-3.14s4,1.61,4,3.14V27.8c0-1.76,2.56-3.6,5-3.6S36,26,36,27.8c0-1.76,2.63-3.6,5.11-3.6s5,1.85,5,3.6V29c0-1.53,2.08-3.14,4-3.14s4,1.61,4,3.14c0,.38,0,1.47,0,1.26,0-1.29,1.82-2.65,3.54-2.65s3.49,1.36,3.49,2.65C61.21,30.42,66.07,26.87,63.17,24.33Z" transform="translate(-1.27 9.79)" /><path class="cls-31" d="M10.46,23.46s-1,.22-.64,2.42a6.94,6.94,0,0,0,1.77,2.56l-1,1.31L8.06,27.41l0-2.53Z" transform="translate(-1.27 9.79)" /><path class="cls-13" d="M61.25,30s3-1.87,3-4.12S60.63,22,58.38,20.75a92.64,92.64,0,0,0-9.58-3.66s6.74,4,8.86,5.73-.27,4.5-.27,4.5,2.25.23,2.93.92A4.35,4.35,0,0,1,61.25,30Z" transform="translate(-1.27 9.79)" /><path class="cls-9" d="M62.36,45.28c-.49-1.37-.87-2.38-1.15-3.1h0c0,1-1.46,2.06-2.84,2.06s-2.8-1.06-2.8-2.06c0-.24,0,.15,0,.44,0,1.09-1.53,2.23-3,2.23s-2.94-1.14-2.94-2.23c0-.29,0,.29,0,.66,0,1.22-1.71,2.49-3.33,2.49S43,44.5,43,43.28c0-.37,0,0,0,.4,0,1.29-1.82,2.65-3.54,2.65S36,45,36,43.68c0,1.29-1.77,2.65-3.49,2.65S29,45,29,43.68c0-.42,0-.77,0-.4,0,1.22-1.67,2.49-3.28,2.49s-3.33-1.28-3.33-2.49c0-.37,0-.95,0-.66,0,1.09-1.49,2.23-2.94,2.23s-3-1.14-3-2.23c0-.29,0-.68,0-.44,0,1-1.42,2.06-2.8,2.06s-2.84-1.06-2.84-2.06h0c-.28.72-.66,1.72-1.15,3.1C7.82,50.39,15.21,55,36,55.14,56.79,55,64.18,50.39,62.36,45.28Z" transform="translate(-1.27 9.79)" /><path class="cls-32" d="M12.09,44a8.61,8.61,0,0,0-.81,3.75,7,7,0,0,0,1.39,3.17l-2.6-1.85L9,46.3l1.73-3.81Z" transform="translate(-1.27 9.79)" /><path class="cls-13" d="M61.38,42.13a7.65,7.65,0,0,1,1.38,5.5c-.5,3.13-4.12,4-6.5,4.88a59.36,59.36,0,0,1-7.37,1.75s5.71-1.51,9.26-4.85c1.37-1.29-.2-5.45-.2-5.45a1.94,1.94,0,0,0,2.22-.07A2.34,2.34,0,0,0,61.38,42.13Z" transform="translate(-1.27 9.79)" /><path class="cls-33" d="M63.17,24.33C59.17,20.83,50,15,36,15S12.83,20.83,8.83,24.33c-2.9,2.54,2,6.09,2,5.9,0-1.29,1.77-2.65,3.49-2.65s3.54,1.36,3.54,2.65c0,.22,0-.88,0-1.26,0-1.53,2-3.14,4-3.14s4,1.61,4,3.14V27.8c0-1.76,2.56-3.6,5-3.6S36,26,36,27.8c0-1.76,2.63-3.6,5.11-3.6s5,1.85,5,3.6V29c0-1.53,2.08-3.14,4-3.14s4,1.61,4,3.14c0,.38,0,1.47,0,1.26,0-1.29,1.82-2.65,3.54-2.65s3.49,1.36,3.49,2.65C61.21,30.42,66.07,26.87,63.17,24.33Z" transform="translate(-1.27 9.79)" /><path class="cls-33" d="M62.36,45.28c-.49-1.37-.87-2.38-1.15-3.1h0c0,1-1.46,2.06-2.84,2.06s-2.8-1.06-2.8-2.06c0-.24,0,.15,0,.44,0,1.09-1.53,2.23-3,2.23s-2.94-1.14-2.94-2.23c0-.29,0,.29,0,.66,0,1.22-1.71,2.49-3.33,2.49S43,44.5,43,43.28c0-.37,0,0,0,.4,0,1.29-1.82,2.65-3.54,2.65S36,45,36,43.68c0,1.29-1.77,2.65-3.49,2.65S29,45,29,43.68c0-.42,0-.77,0-.4,0,1.22-1.67,2.49-3.28,2.49s-3.33-1.28-3.33-2.49c0-.37,0-.95,0-.66,0,1.09-1.49,2.23-2.94,2.23s-3-1.14-3-2.23c0-.29,0-.68,0-.44,0,1-1.42,2.06-2.8,2.06s-2.84-1.06-2.84-2.06h0c-.28.72-.66,1.72-1.15,3.1C7.82,50.39,15.21,55,36,55.14,56.79,55,64.18,50.39,62.36,45.28Z" transform="translate(-1.27 9.79)" /><circle class="cls-34" cx="34.68" cy="46.56" r="0.7" /><g class="cls-35"><path class="cls-36" d="M40.54,26.18l2.12-.36c.54-.09.93-.44,1.75-1.58s1.62-2.68,2-3.26.31-1.17.15-2.1-.82-3.17-1-4.48.3-2.18,1.19-3.56,13-19,13-19L62-6.52S48.88,10.82,48,12s-1.17,1.71-1,2.53.82,3.84.95,4.6a2.77,2.77,0,0,1-.67,2.69c-1,1.4-2,3.08-2.36,3.59a2,2,0,0,1-1.68,1c-1.09.18-1.93.16-2.48.25S40.05,26.27,40.54,26.18Z" transform="translate(-1.27 9.79)" /><path class="cls-37" d="M40.54,26.18l2.12-.36c.54-.09.93-.44,1.75-1.58s1.62-2.68,2-3.26.31-1.17.15-2.1-.82-3.17-1-4.48.3-2.18,1.19-3.56,13-19,13-19L62-6.52S48.88,10.82,48,12s-1.17,1.71-1,2.53.82,3.84.95,4.6a2.77,2.77,0,0,1-.67,2.69c-1,1.4-2,3.08-2.36,3.59a2,2,0,0,1-1.68,1c-1.09.18-1.93.16-2.48.25S40.05,26.27,40.54,26.18Z" transform="translate(-1.27 9.79)" /><path class="cls-13" d="M47.87,19.12c-.13-.76-.81-3.79-.95-4.6S47,13.15,48,12,62-6.52,62-6.52l-1-.69C59.46-5,47.73,11.33,47.25,12c-.6.84-1.08,1.2-.85,2.56s1,4.38,1.05,4.88a1.77,1.77,0,0,1-.21,1.46c-.34.48-2.57,4.1-2.85,4.49a1.88,1.88,0,0,1-1,.79L42,26.55c.35,0,.72-.06,1.15-.14a2,2,0,0,0,1.68-1c.36-.51,1.37-2.19,2.36-3.59A2.77,2.77,0,0,0,47.87,19.12Z" transform="translate(-1.27 9.79)" /></g></g></g></svg>