<svg xmlns="http://www.w3.org/2000/svg" xmlns:xlink="http://www.w3.org/1999/xlink" viewBox="0 0 69.46 69.46"><defs><style>.cls-1,.cls-15,.cls-17,.cls-18,.cls-19,.cls-22,.cls-8{fill:none;}.cls-2{isolation:isolate;}.cls-3{stroke:#dcddde;stroke-width:1.06px;fill:url(#New_Gradient_Swatch_2);}.cls-15,.cls-22,.cls-24,.cls-28,.cls-3,.cls-8{stroke-miterlimit:10;}.cls-4{fill:url(#New_Gradient_Swatch_2-2);}.cls-5{fill:#eaeeef;}.cls-10,.cls-13,.cls-6{fill:#fff;}.cls-7{fill:#d8dee0;}.cls-22,.cls-8{stroke:#b1bfc4;}.cls-15,.cls-8{stroke-width:1.4px;}.cls-9{fill:#dd7b7f;}.cls-10{opacity:0.7;font-size:14px;font-family:ProximaNova-Bold, Proxima Nova;font-weight:700;}.cls-11{letter-spacing:0.07em;}.cls-12{letter-spacing:0em;}.cls-13{opacity:0.3;}.cls-14,.cls-27{fill:#181a1d;}.cls-14{opacity:0.05;}.cls-14,.cls-16,.cls-27{mix-blend-mode:multiply;}.cls-15{stroke:#b94656;}.cls-17,.cls-18,.cls-19{stroke:#3c3d3d;stroke-linejoin:round;stroke-width:0.7px;}.cls-18{stroke-dasharray:2.87 1.91;}.cls-19{stroke-dasharray:2.87 1.91;}.cls-20{clip-path:url(#clip-path);}.cls-21{fill:#3c3d3d;}.cls-22{stroke-width:0.85px;}.cls-23{fill:#e2bb82;}.cls-24{fill:#6f8f97;}.cls-24,.cls-28{stroke:#116c91;stroke-width:2.4px;}.cls-25{fill:#83d2e7;}.cls-26{fill:#009cb6;}.cls-27{opacity:0.07;}.cls-28{fill:#116c91;}.cls-29{fill:#dcddde;}.cls-30{clip-path:url(#clip-path-2);}</style><linearGradient id="New_Gradient_Swatch_2" x1="34.73" y1="45.42" x2="34.73" y2="62.25" gradientUnits="userSpaceOnUse"><stop offset="0" stop-color="#fff" /><stop offset="1" stop-color="#f2f2f2" /></linearGradient><linearGradient id="New_Gradient_Swatch_2-2" x1="36" y1="24.22" x2="36" y2="7.14" xlink:href="#New_Gradient_Swatch_2" /><clipPath id="clip-path" transform="translate(-1.27 -1.27)"><rect class="cls-1" x="27.21" y="25.88" width="17.87" height="12.42" /></clipPath><clipPath id="clip-path-2" transform="translate(-1.27 -1.27)"><ellipse class="cls-1" cx="14.59" cy="14.83" rx="4.01" ry="3.73" /></clipPath></defs><title>D4910_periodontal_maintenance</title><g class="cls-2"><g id="D4910_-_periodontal_maintenance" data-name="D4910 - periodontal maintenance"><path class="cls-5" d="M52.24,54.47c.12,4.34-1.71,6.74-1,7.16,1.15.64,5.12-1.54,6.4-5.38,2-6-.38-9.22-.38-12.3,0-1.58,1.15-1.67,1.15-4.35V31.66a3.49,3.49,0,0,0-3.6-3.46H49.34c-1.28,0-1.79,1.06-2.54,1.06s-1.26-1.06-2.54-1.06H38.76a3.49,3.49,0,0,0-3.6,3.46V39.6c0,2.69,1.15,2.77,1.15,4.35,0,3.07-2.39,6.28-.38,12.3,1.28,3.84,5.25,6,6.4,5.38.75-.42-1.08-2.82-1-7.16.11-3.77,2.65-6.14,5.44-6.14S52.14,50.7,52.24,54.47Z" transform="translate(-1.27 -1.27)" /><path class="cls-5" d="M52.24,54.62c.12,4.34-1.71,6.74-1,7.16,1.15.64,5.12-1.54,6.4-5.38,2-6-.38-9.22-.38-12.3,0-1.58,1.15-1.67,1.15-4.35V31.81a3.49,3.49,0,0,0-3.6-3.46H49.34c-1.28,0-1.79,1.06-2.54,1.06s-1.26-1.06-2.54-1.06H38.76a3.49,3.49,0,0,0-3.6,3.46v7.94c0,2.69,1.15,2.77,1.15,4.35,0,3.07-2.39,6.28-.38,12.3,1.28,3.84,5.25,6,6.4,5.38.75-.42-1.08-2.82-1-7.16.11-3.77,2.65-6.14,5.44-6.14S52.14,50.85,52.24,54.62Z" transform="translate(-1.27 -1.27)" /><path class="cls-6" d="M47.79,48.43V48s-5.81-1.13-7.88,3.8c-1.72,4.09.65,8.27,2.28,9.92l.13,0c.75-.42-1.08-2.82-1-7.16.11-3.77,2.65-6.14,5.44-6.14A4.91,4.91,0,0,1,47.79,48.43Z" transform="translate(-1.27 -1.27)" /><path class="cls-7" d="M37.64,57.88A13.58,13.58,0,0,1,36.2,51c0-2.09,1.18-4.84,1.31-6.8S36.2,41.6,36.2,39.51V31.86a7.89,7.89,0,0,1,.74-3.19,3.36,3.36,0,0,0-1.79,3V39.6c0,2.69,1.15,2.77,1.15,4.35,0,3.07-2.39,6.28-.38,12.3a8.68,8.68,0,0,0,5.26,5.39A9,9,0,0,1,37.64,57.88Z" transform="translate(-1.27 -1.27)" /><path class="cls-6" d="M57.69,56.25c2-6-.38-9.22-.38-12.3,0-1.58,1.15-1.67,1.15-4.35V31.66a3.49,3.49,0,0,0-3.6-3.46H49.34c-1.28,0-1.79,1.06-2.54,1.06s-1.26-1.06-2.54-1.06H38.76a3.5,3.5,0,0,0-3.59,3.17A3.2,3.2,0,0,1,37,30.88H44.5c.93,0,1.11.53,2.31.53s1.23-.53,2.49-.53h3c2.65,0,3.16,1.1,3.16,3.24v5c0,3.28-1.14,3-1.14,4.67s.76,1.89,1.26,6.75c.33,3.22-1.51,8.2-4.17,10.22l-.25.21c0,.3,0,.5.16.6C52.44,62.27,56.41,60.1,57.69,56.25Z" transform="translate(-1.27 -1.27)" /><path class="cls-7" d="M51.33,61a22.34,22.34,0,0,0,1.43-3.31,9,9,0,0,0-.44-6.84A5.6,5.6,0,0,0,47.52,48l.06.44c2.47.4,4.56,2.66,4.66,6.07a18.77,18.77,0,0,1-1,6.2Z" transform="translate(-1.27 -1.27)" /><path class="cls-22" d="M52.24,54.47c.12,4.34-1.71,6.74-1,7.16,1.15.64,5.12-1.54,6.4-5.38,2-6-.38-9.22-.38-12.3,0-1.58,1.15-1.67,1.15-4.35V31.66a3.49,3.49,0,0,0-3.6-3.46H49.34c-1.28,0-1.79,1.06-2.54,1.06s-1.26-1.06-2.54-1.06H38.76a3.49,3.49,0,0,0-3.6,3.46V39.6c0,2.69,1.15,2.77,1.15,4.35,0,3.07-2.39,6.28-.38,12.3,1.28,3.84,5.25,6,6.4,5.38.75-.42-1.08-2.82-1-7.16.11-3.77,2.65-6.14,5.44-6.14S52.14,50.7,52.24,54.47Z" transform="translate(-1.27 -1.27)" /><path class="cls-5" d="M52.24,54.54c.12,4.34-1.71,6.74-1,7.16,1.15.64,5.12-1.54,6.4-5.38,2-6-.38-9.22-.38-12.3,0-1.58,1.15-1.67,1.15-4.35V31.73a3.49,3.49,0,0,0-3.6-3.46H49.34c-1.28,0-1.79,1.06-2.54,1.06s-1.26-1.06-2.54-1.06H38.76a3.49,3.49,0,0,0-3.6,3.46v7.94c0,2.69,1.15,2.77,1.15,4.35,0,3.07-2.39,6.28-.38,12.3,1.28,3.84,5.25,6,6.4,5.38.75-.42-1.08-2.82-1-7.16.11-3.77,2.65-6.14,5.44-6.14S52.14,50.77,52.24,54.54Z" transform="translate(-1.27 -1.27)" /><path class="cls-6" d="M47.79,48.51V48s-5.81-1.13-7.88,3.8c-1.72,4.09.65,8.27,2.28,9.92l.13,0c.75-.42-1.08-2.82-1-7.16.11-3.77,2.65-6.14,5.44-6.14A4.91,4.91,0,0,1,47.79,48.51Z" transform="translate(-1.27 -1.27)" /><path class="cls-7" d="M37.64,58A13.58,13.58,0,0,1,36.2,51c0-2.09,1.18-4.84,1.31-6.8s-1.31-2.55-1.31-4.64V31.93a7.89,7.89,0,0,1,.74-3.19,3.36,3.36,0,0,0-1.79,3v7.94c0,2.69,1.15,2.77,1.15,4.35,0,3.07-2.39,6.28-.38,12.3a8.68,8.68,0,0,0,5.26,5.39A9,9,0,0,1,37.64,58Z" transform="translate(-1.27 -1.27)" /><path class="cls-6" d="M57.69,56.33c2-6-.38-9.22-.38-12.3,0-1.58,1.15-1.67,1.15-4.35V31.73a3.49,3.49,0,0,0-3.6-3.46H49.34c-1.28,0-1.79,1.06-2.54,1.06s-1.26-1.06-2.54-1.06H38.76a3.5,3.5,0,0,0-3.59,3.17A3.2,3.2,0,0,1,37,31H44.5c.93,0,1.11.53,2.31.53S48,31,49.3,31h3c2.65,0,3.16,1.1,3.16,3.24v5c0,3.28-1.14,3-1.14,4.67s.76,1.89,1.26,6.75c.33,3.22-1.51,8.2-4.17,10.22l-.25.21c0,.3,0,.5.16.6C52.44,62.35,56.41,60.17,57.69,56.33Z" transform="translate(-1.27 -1.27)" /><path class="cls-7" d="M51.33,61.06a22.34,22.34,0,0,0,1.43-3.31,9,9,0,0,0-.44-6.84A5.6,5.6,0,0,0,47.52,48l.06.44c2.47.4,4.56,2.66,4.66,6.07a18.77,18.77,0,0,1-1,6.2Z" transform="translate(-1.27 -1.27)" /><path class="cls-8" d="M52.24,54.54c.12,4.34-1.71,6.74-1,7.16,1.15.64,5.12-1.54,6.4-5.38,2-6-.38-9.22-.38-12.3,0-1.58,1.15-1.67,1.15-4.35V31.73a3.49,3.49,0,0,0-3.6-3.46H49.34c-1.28,0-1.79,1.06-2.54,1.06s-1.26-1.06-2.54-1.06H38.76a3.49,3.49,0,0,0-3.6,3.46v7.94c0,2.69,1.15,2.77,1.15,4.35,0,3.07-2.39,6.28-.38,12.3,1.28,3.84,5.25,6,6.4,5.38.75-.42-1.08-2.82-1-7.16.11-3.77,2.65-6.14,5.44-6.14S52.14,50.77,52.24,54.54Z" transform="translate(-1.27 -1.27)" /><path class="cls-9" d="M60.78,61.84c3,0,2.56-4.31,1.9-8.77s-2.3-12.34-4.33-10.5-6.58,4.7-11.54,4.7-9.51-2.86-11.54-4.7-3.67,6-4.33,10.5-1.11,8.77,1.9,8.77Z" transform="translate(-1.27 -1.27)" /><path class="cls-13" d="M60.78,61.84c3,0,2.56-4.31,1.9-8.77s-2.3-12.34-4.33-10.5a17.58,17.58,0,0,1-2.13,1.62,47.23,47.23,0,0,1,3.49,9.1,24.85,24.85,0,0,1,.94,8.56Z" transform="translate(-1.27 -1.27)" /><path class="cls-14" d="M32.44,50.61c.52-2.7,1.86-6.45,3.75-7.27-.35-.27-.66-.53-.93-.77-2-1.84-3.67,6-4.33,10.5-.52,3.53-.91,7,.44,8.24C31.08,58,31.85,53.66,32.44,50.61Z" transform="translate(-1.27 -1.27)" /><path class="cls-15" d="M60.78,61.84c3,0,2.56-4.31,1.9-8.77s-2.3-12.34-4.33-10.5-6.58,4.7-11.54,4.7-9.51-2.86-11.54-4.7-3.67,6-4.33,10.5-1.11,8.77,1.9,8.77Z" transform="translate(-1.27 -1.27)" /><circle class="cls-23" cx="40.87" cy="39.55" r="1.42" transform="translate(-2.71 0.27) rotate(-2.12)" /><circle class="cls-23" cx="42.76" cy="43.89" r="0.9" transform="translate(-2.87 0.34) rotate(-2.12)" /><circle class="cls-23" cx="43.66" cy="41.25" r="0.81" transform="translate(-2.77 0.37) rotate(-2.12)" /><circle class="cls-23" cx="44.89" cy="42.69" r="0.57" transform="translate(-2.82 0.42) rotate(-2.12)" /><circle class="cls-23" cx="44.94" cy="44.9" r="0.69" transform="translate(-2.9 0.42) rotate(-2.12)" /><circle class="cls-23" cx="39.7" cy="42.69" r="0.69" transform="translate(-2.83 0.23) rotate(-2.12)" /><circle class="cls-23" cx="41.64" cy="42" r="0.57" transform="translate(-2.8 0.3) rotate(-2.12)" /><circle class="cls-23" cx="38.42" cy="40.89" r="0.57" transform="translate(-2.76 0.18) rotate(-2.12)" /><path class="cls-24" d="M23,29.55a.66.66,0,0,0-.67.66q0,1.05,0,2.13c0,16.32-.1,29.55,2,29.55s2-13.23,2-29.55q0-1.07,0-2.13a.66.66,0,0,0-.67-.66Z" transform="translate(-1.27 -1.27)" /><path class="cls-24" d="M26.44,10.7l1.11,1.11c.29.29.37.66.37,1.68s-.17,2.28-.17,2.8-.31.83-.8,1.31-1.83,1.54-2.51,2.23a3.46,3.46,0,0,0-.8,2.63l-.34,7.13h2s-.4-6.22-.45-7.31,0-1.51.46-1.94S27.4,18.4,27.8,18a2,2,0,0,0,.74-1.88c0-1.26.11-2.68.11-3.14a1.48,1.48,0,0,0-.57-1.31c-.57-.57-1.08-.91-1.37-1.2S26.18,10.44,26.44,10.7Z" transform="translate(-1.27 -1.27)" /><path class="cls-25" d="M26.44,10.7l1.11,1.11c.29.29.37.66.37,1.68s-.17,2.28-.17,2.8-.31.83-.8,1.31-1.83,1.54-2.51,2.23a3.46,3.46,0,0,0-.8,2.63l-.34,7.13h2s-.4-6.22-.45-7.31,0-1.51.46-1.94S27.4,18.4,27.8,18a2,2,0,0,0,.74-1.88c0-1.26.11-2.68.11-3.14a1.48,1.48,0,0,0-.57-1.31c-.57-.57-1.08-.91-1.37-1.2S26.18,10.44,26.44,10.7Z" transform="translate(-1.27 -1.27)" /><path class="cls-13" d="M27.8,18c-.4.4-2.08,1.91-2.51,2.34s-.51.86-.46,1.94.45,7.31.45,7.31h-.87V22c0-.75-.13-1.17.58-1.88s2.43-2.2,2.69-2.46a1.29,1.29,0,0,0,.49-1c0-.43.2-3.53.2-3.88a1.37,1.37,0,0,0-.26-.9c-.13-.17-.45-.55-.67-.81.2.16.4.34.63.57A1.48,1.48,0,0,1,28.66,13c0,.46-.11,1.88-.11,3.14A2,2,0,0,1,27.8,18Z" transform="translate(-1.27 -1.27)" /><path class="cls-26" d="M23,29.55a.66.66,0,0,0-.67.66q0,1.05,0,2.13c0,16.32-.1,29.55,2,29.55s2-13.23,2-29.55q0-1.07,0-2.13a.66.66,0,0,0-.67-.66Z" transform="translate(-1.27 -1.27)" /><path class="cls-13" d="M26.29,32.34q0-1.07,0-2.13a.66.66,0,0,0-.67-.66h-.91V40c0,4.87.08,17.44-.12,19.06a20,20,0,0,1-.52,2.76.5.5,0,0,0,.24.07C26.39,61.89,26.29,48.66,26.29,32.34Z" transform="translate(-1.27 -1.27)" /><path class="cls-27" d="M22.84,41.43V29.59a.65.65,0,0,0-.5.63q0,1.05,0,2.13c0,12.39-.06,23,.83,27.38C22.87,55.17,22.84,45.11,22.84,41.43Z" transform="translate(-1.27 -1.27)" /><path class="cls-28" d="M19.28,14.7a4.53,4.53,0,0,0-4.69-4.36A4.53,4.53,0,0,0,9.9,14.7,4.47,4.47,0,0,0,14,19c0,.29-.39,10.58-.39,10.58h2S15.13,19.35,15.12,19A4.48,4.48,0,0,0,19.28,14.7Z" transform="translate(-1.27 -1.27)" /><path class="cls-24" d="M13.31,29.55a.66.66,0,0,0-.67.66q0,1.05,0,2.13c0,16.32-.1,29.55,2,29.55s2-13.23,2-29.55q0-1.07,0-2.13a.66.66,0,0,0-.67-.66Z" transform="translate(-1.27 -1.27)" /><path class="cls-25" d="M15.12,19H14c0,.23-.39,10.59-.39,10.59h2S15.12,19.18,15.12,19Z" transform="translate(-1.27 -1.27)" /><path class="cls-26" d="M13.31,29.55a.66.66,0,0,0-.67.66q0,1.05,0,2.13c0,16.32-.1,29.55,2,29.55s2-13.23,2-29.55q0-1.07,0-2.13a.66.66,0,0,0-.67-.66Z" transform="translate(-1.27 -1.27)" /><path class="cls-13" d="M16.59,32.34q0-1.07,0-2.13a.66.66,0,0,0-.67-.66H15V40c0,4.87.08,17.44-.12,19.06a20,20,0,0,1-.52,2.76.5.5,0,0,0,.24.07C16.69,61.89,16.59,48.66,16.59,32.34Z" transform="translate(-1.27 -1.27)" /><path class="cls-27" d="M13.14,41.43V29.59a.65.65,0,0,0-.5.63q0,1.05,0,2.13c0,12.39-.06,23,.83,27.38C13.17,55.17,13.14,45.11,13.14,41.43Z" transform="translate(-1.27 -1.27)" /><path class="cls-13" d="M15.12,19h-.4c0,.09,0,8.62,0,10.59h.87S15.12,19.18,15.12,19Z" transform="translate(-1.27 -1.27)" /><ellipse class="cls-25" cx="13.32" cy="13.43" rx="4.69" ry="4.36" /><path class="cls-13" d="M14.59,10.34l-.22,0a4.68,4.68,0,0,1,4.7,4.45,4.6,4.6,0,0,1-2,3.59,4.29,4.29,0,0,0,2.23-3.7A4.53,4.53,0,0,0,14.59,10.34Z" transform="translate(-1.27 -1.27)" /><ellipse class="cls-29" cx="13.32" cy="13.56" rx="4.01" ry="3.73" /><g class="cls-30"><polygon class="cls-6" points="20.23 9.28 18.75 9.28 11.49 18.22 12.97 18.22 20.23 9.28" /><polygon class="cls-6" points="18.12 9.28 17.73 9.28 10.47 18.22 10.86 18.22 18.12 9.28" /></g></g></g></svg>