<svg xmlns="http://www.w3.org/2000/svg" xmlns:xlink="http://www.w3.org/1999/xlink" viewBox="0 0 69.46 69.46"><defs><style>.cls-1,.cls-15,.cls-17,.cls-18,.cls-19,.cls-23,.cls-24,.cls-30,.cls-32,.cls-8{fill:none;}.cls-2{isolation:isolate;}.cls-3{stroke:#dcddde;stroke-width:1.06px;fill:url(#New_Gradient_Swatch_2);}.cls-15,.cls-23,.cls-3,.cls-30,.cls-8{stroke-miterlimit:10;}.cls-4{fill:url(#New_Gradient_Swatch_2-2);}.cls-5{fill:#eaeeef;}.cls-10,.cls-13,.cls-6{fill:#fff;}.cls-7{fill:#d8dee0;}.cls-30,.cls-8{stroke:#b1bfc4;}.cls-15,.cls-8{stroke-width:1.4px;}.cls-9{fill:#dd7b7f;}.cls-10{opacity:0.7;font-size:14px;font-family:ProximaNova-Bold, Proxima Nova;font-weight:700;}.cls-11{letter-spacing:0.07em;}.cls-12{letter-spacing:0em;}.cls-13{opacity:0.3;}.cls-14,.cls-31{fill:#181a1d;}.cls-14{opacity:0.05;}.cls-14,.cls-16{mix-blend-mode:multiply;}.cls-15{stroke:#b94656;}.cls-17,.cls-18,.cls-19{stroke:#3c3d3d;stroke-width:0.7px;}.cls-17,.cls-18,.cls-19,.cls-24,.cls-32{stroke-linejoin:round;}.cls-18{stroke-dasharray:2.87 1.91;}.cls-19{stroke-dasharray:2.87 1.91;}.cls-20{clip-path:url(#clip-path);}.cls-21{fill:#3c3d3d;}.cls-22{fill:url(#New_Gradient_Swatch_2-4);}.cls-23,.cls-24{stroke:#d8dee0;}.cls-24,.cls-32{stroke-linecap:round;stroke-width:1.2px;}.cls-25{fill:#c41e62;}.cls-26{fill:url(#New_Gradient_Swatch_2-5);}.cls-27{fill:url(#New_Gradient_Swatch_2-6);}.cls-28{fill:url(#New_Gradient_Swatch_2-7);}.cls-29{fill:url(#New_Gradient_Swatch_2-8);}.cls-31{opacity:0.07;}.cls-32{stroke:#991b4a;}</style><linearGradient id="New_Gradient_Swatch_2" x1="34.73" y1="45.42" x2="34.73" y2="62.25" gradientUnits="userSpaceOnUse"><stop offset="0" stop-color="#fff" /><stop offset="1" stop-color="#f2f2f2" /></linearGradient><linearGradient id="New_Gradient_Swatch_2-2" x1="36" y1="24.22" x2="36" y2="7.14" xlink:href="#New_Gradient_Swatch_2" /><clipPath id="clip-path" transform="translate(-1.27 -1.27)"><rect class="cls-1" x="27.21" y="25.88" width="17.87" height="12.42" /></clipPath><linearGradient id="New_Gradient_Swatch_2-4" x1="36.03" y1="24.32" x2="36.03" y2="7.23" xlink:href="#New_Gradient_Swatch_2" /><linearGradient id="New_Gradient_Swatch_2-5" x1="54.35" y1="35.34" x2="54.35" y2="33.11" gradientTransform="matrix(1, 0, 0, -1, -1.27, 78.62)" xlink:href="#New_Gradient_Swatch_2" /><linearGradient id="New_Gradient_Swatch_2-6" x1="48.37" y1="34.67" x2="48.37" y2="32.17" gradientTransform="matrix(1, 0, 0, -1, -1.27, 78.62)" xlink:href="#New_Gradient_Swatch_2" /><linearGradient id="New_Gradient_Swatch_2-7" x1="41.85" y1="34.67" x2="41.85" y2="32.17" gradientTransform="matrix(1, 0, 0, -1, -1.27, 78.62)" xlink:href="#New_Gradient_Swatch_2" /><linearGradient id="New_Gradient_Swatch_2-8" x1="35.02" y1="34.67" x2="35.02" y2="32.17" gradientTransform="matrix(1, 0, 0, -1, -1.27, 78.62)" xlink:href="#New_Gradient_Swatch_2" /></defs><title>D5120_complete_denture_mandibular</title><g class="cls-2"><g id="D4211_-_gingivectomy_or_gingivoplasty_one_to_three_contiguous_teeth" data-name="D4211 - gingivectomy or gingivoplasty one to three contiguous teeth"><path class="cls-5" d="M44.36,50.6c.19,6.68-2.63,10.37-1.47,11,1.77,1,7.88-2.36,9.85-8.27,3.08-9.24-.59-14.18-.59-18.91,0-2.44,1.77-2.56,1.77-6.7V15.53a5.36,5.36,0,0,0-5.54-5.32H39.9c-2,0-2.75,1.63-3.9,1.63s-1.93-1.63-3.9-1.63H23.62a5.36,5.36,0,0,0-5.54,5.32V27.74c0,4.14,1.77,4.26,1.77,6.7,0,4.73-3.67,9.66-.59,18.91,2,5.91,8.08,9.26,9.85,8.27,1.15-.64-1.66-4.34-1.47-11,.17-5.8,4.07-9.44,8.36-9.44S44.19,44.81,44.36,50.6Z" transform="translate(-1.27 -1.27)" /><path class="cls-6" d="M37.51,41.32l0-.72s-8.94-1.73-12.11,5.84c-2.64,6.3,1,12.72,3.5,15.25a1.28,1.28,0,0,0,.19-.07c1.15-.64-1.66-4.34-1.47-11,.17-5.8,4.07-9.44,8.36-9.44A7.55,7.55,0,0,1,37.51,41.32Z" transform="translate(-1.27 -1.27)" /><path class="cls-7" d="M21.9,55.85a20.88,20.88,0,0,1-2.21-10.66c0-3.22,1.81-7.44,2-10.46s-2-3.92-2-7.14V15.83a12.13,12.13,0,0,1,1.13-4.91,5.16,5.16,0,0,0-2.75,4.61V27.74c0,4.14,1.77,4.26,1.77,6.7,0,4.73-3.67,9.66-.59,18.91,1.53,4.58,5.54,7.61,8.09,8.29A13.79,13.79,0,0,1,21.9,55.85Z" transform="translate(-1.27 -1.27)" /><path class="cls-6" d="M52.74,53.34c3.08-9.24-.59-14.18-.59-18.91,0-2.44,1.77-2.56,1.77-6.7V15.53a5.36,5.36,0,0,0-5.54-5.32H39.9c-2,0-2.75,1.63-3.9,1.63s-1.93-1.63-3.9-1.63H23.62a5.38,5.38,0,0,0-5.52,4.87,4.91,4.91,0,0,1,2.8-.76H32.45c1.42,0,1.7.82,3.55.82s1.89-.81,3.83-.81h4.56c4.08,0,4.85,1.69,4.85,5v7.76c0,5-1.75,4.56-1.75,7.18s1.16,2.91,1.94,10.38c.52,5-2.33,12.62-6.41,15.72a5.05,5.05,0,0,0-.39.33c-.07.46,0,.77.25.92C44.66,62.6,50.77,59.25,52.74,53.34Z" transform="translate(-1.27 -1.27)" /><path class="cls-7" d="M43,60.62a34.36,34.36,0,0,0,2.21-5.09A13.89,13.89,0,0,0,44.48,45a8.62,8.62,0,0,0-7.38-4.41l.1.68c3.79.61,7,4.08,7.16,9.33a28.87,28.87,0,0,1-1.61,9.53Z" transform="translate(-1.27 -1.27)" /><path class="cls-8" d="M44.36,50.6c.19,6.68-2.63,10.37-1.47,11,1.77,1,7.88-2.36,9.85-8.27,3.08-9.24-.59-14.18-.59-18.91,0-2.44,1.77-2.56,1.77-6.7V15.53a5.36,5.36,0,0,0-5.54-5.32H39.9c-2,0-2.75,1.63-3.9,1.63s-1.93-1.63-3.9-1.63H23.62a5.36,5.36,0,0,0-5.54,5.32V27.74c0,4.14,1.77,4.26,1.77,6.7,0,4.73-3.67,9.66-.59,18.91,2,5.91,8.08,9.26,9.85,8.27,1.15-.64-1.66-4.34-1.47-11,.17-5.8,4.07-9.44,8.36-9.44S44.19,44.81,44.36,50.6Z" transform="translate(-1.27 -1.27)" /><path class="cls-9" d="M57.48,61.82c4.64,0,3.93-6.63,2.92-13.49s-3.53-19-6.66-16.15S43.63,39.41,36,39.41,21.38,35,18.25,32.19s-5.65,9.29-6.66,16.15S9.88,61.82,14.52,61.82Z" transform="translate(-1.27 -1.27)" /><text class="cls-10" transform="translate(23.1 56.69)"><tspan class="cls-11">1</tspan><tspan x="6.73" y="-1">–</tspan><tspan class="cls-12" x="15.04" y="0">3</tspan></text><path class="cls-13" d="M57.48,61.82c4.64,0,3.93-6.63,2.92-13.49s-3.53-19-6.66-16.15a27,27,0,0,1-3.28,2.49,72.62,72.62,0,0,1,5.36,14,38.21,38.21,0,0,1,1.44,13.16Z" transform="translate(-1.27 -1.27)" /><path class="cls-14" d="M13.91,44.55c.8-4.15,2.85-9.92,5.77-11.19-.54-.41-1-.81-1.43-1.18-3.13-2.82-5.65,9.29-6.66,16.15C10.8,53.76,10.2,59,12.28,61,11.81,56,13,49.25,13.91,44.55Z" transform="translate(-1.27 -1.27)" /><path class="cls-15" d="M57.48,61.82c4.64,0,3.93-6.63,2.92-13.49s-3.53-19-6.66-16.15S43.63,39.41,36,39.41,21.38,35,18.25,32.19s-5.65,9.29-6.66,16.15S9.88,61.82,14.52,61.82Z" transform="translate(-1.27 -1.27)" /><g class="cls-16"><path class="cls-17" d="M53.11,32.7a13.14,13.14,0,0,0,.28-1.47c-.35.3-.74.62-1.16.95" transform="translate(-1.27 -1.27)" /><path class="cls-18" d="M50.69,33.29C47,35.78,41.7,38.37,36,38.37c-6.13,0-11.84-3-15.47-5.62" transform="translate(-1.27 -1.27)" /><path class="cls-17" d="M19.76,32.17c-.42-.33-.81-.65-1.16-.95a13.14,13.14,0,0,0,.28,1.47" transform="translate(-1.27 -1.27)" /><path class="cls-19" d="M19.48,34.52C21.87,40.41,28.36,44.76,36,44.76c8,0,14.78-4.8,16.85-11.15" transform="translate(-1.27 -1.27)" /><g class="cls-20"><polygon class="cls-21" points="27.28 33.49 29.31 31.24 39.71 31.39 39.68 32.62 27.28 33.49" /><path class="cls-21" d="M42.59,31.27a2.21,2.21,0,1,0,2.38,2A2.21,2.21,0,0,0,42.59,31.27Zm.29,3.43A1.24,1.24,0,1,1,44,33.37,1.24,1.24,0,0,1,42.89,34.71Z" transform="translate(-1.27 -1.27)" /><polygon class="cls-21" points="32.16 40.41 34.98 39.3 38.45 29.49 37.29 29.09 32.16 40.41" /><path class="cls-21" d="M40.53,26.79a2.21,2.21,0,1,0,1.06,2.94A2.21,2.21,0,0,0,40.53,26.79Zm-.41.87a1.24,1.24,0,1,1-1.65.59A1.24,1.24,0,0,1,40.12,27.67Z" transform="translate(-1.27 -1.27)" /></g></g></g><g id="D5120_-_complete_denture_mandibular" data-name="D5120 - complete denture mandibular"><path class="cls-22" d="M5.23,66.9c1.21-1.21,1.21-60.4,0-61.61,1.21,1.21,60.4,1.21,61.61,0-1.21,1.21-1.21,60.4,0,61.61C65.63,65.69,6.44,65.69,5.23,66.9Z" transform="translate(-1.27 -1.27)" /><path class="cls-1" d="M25.85,25.8v6.89A2.15,2.15,0,0,0,27.94,35h6A2.15,2.15,0,0,0,36,32.69V25.8c0-1.76-2.63-3.6-5.11-3.6S25.85,24,25.85,25.8Z" transform="translate(-1.27 -1.27)" /><path class="cls-1" d="M17.82,27v6a1.81,1.81,0,0,0,1.66,2h4.71a1.81,1.81,0,0,0,1.66-2V27c0-1.53-2.08-3.14-4-3.14S17.82,25.44,17.82,27Z" transform="translate(-1.27 -1.27)" /><path class="cls-1" d="M10.79,28.23v5.07A1.54,1.54,0,0,0,12.24,35h4.13a1.54,1.54,0,0,0,1.45-1.66V28.23c0-1.29-1.82-2.65-3.54-2.65S10.79,26.94,10.79,28.23Z" transform="translate(-1.27 -1.27)" /><path class="cls-1" d="M46.15,25.8v6.89A2.15,2.15,0,0,1,44.06,35h-6A2.15,2.15,0,0,1,36,32.69V25.8c0-1.76,2.63-3.6,5.11-3.6S46.15,24,46.15,25.8Z" transform="translate(-1.27 -1.27)" /><path class="cls-1" d="M54.18,27v6a1.81,1.81,0,0,1-1.66,2H47.81a1.81,1.81,0,0,1-1.66-2V27c0-1.53,2.08-3.14,4-3.14S54.18,25.44,54.18,27Z" transform="translate(-1.27 -1.27)" /><path class="cls-1" d="M61.21,28.23v5.07A1.54,1.54,0,0,1,59.76,35H55.64a1.54,1.54,0,0,1-1.45-1.66V28.23c0-1.29,1.82-2.65,3.54-2.65S61.21,26.94,61.21,28.23Z" transform="translate(-1.27 -1.27)" /><polygon class="cls-1" points="10.93 25.31 10.93 33.5 10.07 33.27 9.46 32.02 9.46 26.23 10.07 25.6 10.93 25.31" /><polygon class="cls-1" points="17.95 23.55 17.95 33.5 17.08 33.27 16.47 32.02 16.47 24.48 17.08 23.84 17.95 23.55" /><polygon class="cls-1" points="26.01 22.21 26.01 33.5 25.14 33.27 24.53 32.02 24.53 23.13 25.14 22.5 26.01 22.21" /><polygon class="cls-1" points="50.11 23.02 50.11 33.38 52.8 33.38 52.84 25 51.41 23.5 50.11 23.02" /><polygon class="cls-1" points="42.47 21.66 42.47 33.38 44.49 33.38 44.52 25 43.91 22.54 42.47 21.66" /><polygon class="cls-1" points="33.03 21.66 33.03 33.38 34.54 33.38 34.57 25 33.96 22.54 33.03 21.66" /><path class="cls-1" d="M61.14,34.9l.11-6.9s.21-1.09-1.2-2a4,4,0,0,0-2.61-.67v9.57Z" transform="translate(-1.27 -1.27)" /><path class="cls-23" d="M25.85,25.8v6.89A2.15,2.15,0,0,0,27.94,35h6A2.15,2.15,0,0,0,36,32.69V25.8c0-1.76-2.63-3.6-5.11-3.6S25.85,24,25.85,25.8Z" transform="translate(-1.27 -1.27)" /><path class="cls-23" d="M17.82,27v6a1.81,1.81,0,0,0,1.66,2h4.71a1.81,1.81,0,0,0,1.66-2V27c0-1.53-2.08-3.14-4-3.14S17.82,25.44,17.82,27Z" transform="translate(-1.27 -1.27)" /><path class="cls-23" d="M10.79,28.23v5.07A1.54,1.54,0,0,0,12.24,35h4.13a1.54,1.54,0,0,0,1.45-1.66V28.23c0-1.29-1.82-2.65-3.54-2.65S10.79,26.94,10.79,28.23Z" transform="translate(-1.27 -1.27)" /><path class="cls-23" d="M46.15,25.8v6.89A2.15,2.15,0,0,1,44.06,35h-6A2.15,2.15,0,0,1,36,32.69V25.8c0-1.76,2.63-3.6,5.11-3.6S46.15,24,46.15,25.8Z" transform="translate(-1.27 -1.27)" /><path class="cls-23" d="M54.18,27v6a1.81,1.81,0,0,1-1.66,2H47.81a1.81,1.81,0,0,1-1.66-2V27c0-1.53,2.08-3.14,4-3.14S54.18,25.44,54.18,27Z" transform="translate(-1.27 -1.27)" /><path class="cls-23" d="M61.21,28.23v5.07A1.54,1.54,0,0,1,59.76,35H55.64a1.54,1.54,0,0,1-1.45-1.66V28.23c0-1.29,1.82-2.65,3.54-2.65S61.21,26.94,61.21,28.23Z" transform="translate(-1.27 -1.27)" /><path class="cls-1" d="M63.17,22.33C59.17,18.83,50,13,36,13S12.83,18.83,8.83,22.33c-2.9,2.54,2,6.09,2,5.9,0-1.29,1.77-2.65,3.49-2.65s3.54,1.36,3.54,2.65c0,.22,0-.88,0-1.26,0-1.53,2-3.14,4-3.14s4,1.61,4,3.14V25.8c0-1.76,2.56-3.6,5-3.6S36,24,36,25.8c0-1.76,2.63-3.6,5.11-3.6s5,1.85,5,3.6V27c0-1.53,2.08-3.14,4-3.14s4,1.61,4,3.14c0,.38,0,1.47,0,1.26,0-1.29,1.82-2.65,3.54-2.65s3.49,1.36,3.49,2.65C61.21,28.42,66.07,24.87,63.17,22.33Z" transform="translate(-1.27 -1.27)" /><path class="cls-24" d="M63.17,22.33C59.17,18.83,50,13,36,13S12.83,18.83,8.83,22.33c-2.9,2.54,2,6.09,2,5.9,0-1.29,1.77-2.65,3.49-2.65s3.54,1.36,3.54,2.65c0,.22,0-.88,0-1.26,0-1.53,2-3.14,4-3.14s4,1.61,4,3.14V25.8c0-1.76,2.56-3.6,5-3.6S36,24,36,25.8c0-1.76,2.63-3.6,5.11-3.6s5,1.85,5,3.6V27c0-1.53,2.08-3.14,4-3.14s4,1.61,4,3.14c0,.38,0,1.47,0,1.26,0-1.29,1.82-2.65,3.54-2.65s3.49,1.36,3.49,2.65C61.21,28.42,66.07,24.87,63.17,22.33Z" transform="translate(-1.27 -1.27)" /><path class="cls-25" d="M61.72,50.38c4.6,2.37-.23-5.47-.51-6.2h0c0,1-1.46,2.06-2.84,2.06s-2.8-1.06-2.8-2.06c0-.24,0,.15,0,.44,0,1.09-1.53,2.23-3,2.23s-2.94-1.14-2.94-2.23c0-.29,0,.29,0,.66,0,1.22-1.71,2.49-3.33,2.49S43,46.5,43,45.29c0-.37,0,0,0,.4,0,1.29-1.82,2.65-3.54,2.65S36,47,36,45.68c0,1.29-1.77,2.65-3.49,2.65S29,47,29,45.68c0-.42,0-.77,0-.4,0,1.22-1.67,2.49-3.28,2.49s-3.33-1.28-3.33-2.49c0-.37,0-.95,0-.66,0,1.09-1.49,2.23-2.94,2.23s-3-1.14-3-2.23c0-.29,0-.68,0-.44,0,1-1.42,2.06-2.8,2.06s-2.84-1.06-2.84-2.06h0c-.28.72-5.07,8.61-.5,6.19,4.72-2.5,21,6.39,25.71.74C40.82,56.86,56.53,47.71,61.72,50.38Z" transform="translate(-1.27 -1.27)" /><path class="cls-5" d="M36,45.68V40.62A1.54,1.54,0,0,0,34.55,39H30.42A1.54,1.54,0,0,0,29,40.62v5.07c0,1.29,1.82,2.65,3.54,2.65S36,47,36,45.68Z" transform="translate(-1.27 -1.27)" /><path class="cls-5" d="M29,45.29V40.52A1.45,1.45,0,0,0,27.6,39H23.72a1.45,1.45,0,0,0-1.37,1.56v4.77c0,1.22,1.71,2.49,3.33,2.49S29,46.5,29,45.29Z" transform="translate(-1.27 -1.27)" /><path class="cls-5" d="M22.35,44.63V40.36A1.3,1.3,0,0,0,21.13,39H17.65a1.3,1.3,0,0,0-1.22,1.4v4.27c0,1.09,1.53,2.23,3,2.23S22.35,45.72,22.35,44.63Z" transform="translate(-1.27 -1.27)" /><path class="cls-5" d="M16.43,44.19V40.25A1.22,1.22,0,0,0,15.26,39H12a1.22,1.22,0,0,0-1.16,1.29v3.94c0,1,1.46,2.06,2.84,2.06S16.43,45.2,16.43,44.19Z" transform="translate(-1.27 -1.27)" /><path class="cls-5" d="M36,45.68V40.62A1.54,1.54,0,0,1,37.45,39h4.13A1.54,1.54,0,0,1,43,40.62v5.07c0,1.29-1.82,2.65-3.54,2.65S36,47,36,45.68Z" transform="translate(-1.27 -1.27)" /><path class="cls-5" d="M43,45.29V40.52A1.45,1.45,0,0,1,44.4,39h3.88a1.45,1.45,0,0,1,1.37,1.56v4.77c0,1.22-1.71,2.49-3.33,2.49S43,46.5,43,45.29Z" transform="translate(-1.27 -1.27)" /><path class="cls-5" d="M49.65,44.63V40.36A1.3,1.3,0,0,1,50.87,39h3.48a1.3,1.3,0,0,1,1.22,1.4v4.27c0,1.09-1.53,2.23-3,2.23S49.65,45.72,49.65,44.63Z" transform="translate(-1.27 -1.27)" /><path class="cls-5" d="M55.57,44.19V40.25A1.22,1.22,0,0,1,56.74,39H60a1.22,1.22,0,0,1,1.16,1.29v3.94c0,1-1.46,2.06-2.84,2.06S55.57,45.2,55.57,44.19Z" transform="translate(-1.27 -1.27)" /><polygon class="cls-7" points="10.96 37.62 10.96 44.57 10.47 44.34 9.86 43.09 9.86 38.54 10.47 37.91 10.96 37.62" /><polygon class="cls-7" points="16.56 37.62 16.56 44.57 16.07 44.34 15.46 43.09 15.46 38.54 16.07 37.91 16.56 37.62" /><polygon class="cls-7" points="22.53 37.62 22.53 45.9 22.04 45.67 21.42 44.42 21.42 38.54 22.04 37.91 22.53 37.62" /><polygon class="cls-7" points="29.12 37.62 29.12 45.9 28.63 45.67 28.02 44.42 28.02 38.54 28.63 37.91 29.12 37.62" /><polygon class="cls-26" points="51.67 45.76 51.67 37.84 54.46 37.72 54.49 43.66 53.06 45.16 51.67 45.76" /><polygon class="cls-27" points="46.02 46.73 46.02 37.72 48.14 37.72 48.17 44.76 46.74 46.25 46.02 46.73" /><polygon class="cls-28" points="39.81 46.73 39.81 37.72 41.32 37.72 41.35 44.76 40.71 45.98 39.81 46.73" /><polygon class="cls-29" points="33.17 46.73 33.17 37.72 34.31 37.72 34.34 44.76 33.7 45.98 33.17 46.73" /><path class="cls-6" d="M58.19,39.34v7.21a2.71,2.71,0,0,0,1.9-.57,2.51,2.51,0,0,0,1.28-1.86l-.23-4.78Z" transform="translate(-1.27 -1.27)" /><path class="cls-30" d="M36,45.68V40.62A1.54,1.54,0,0,0,34.55,39H30.42A1.54,1.54,0,0,0,29,40.62v5.07c0,1.29,1.82,2.65,3.54,2.65S36,47,36,45.68Z" transform="translate(-1.27 -1.27)" /><path class="cls-30" d="M29,45.29V40.52A1.45,1.45,0,0,0,27.6,39H23.72a1.45,1.45,0,0,0-1.37,1.56v4.77c0,1.22,1.71,2.49,3.33,2.49S29,46.5,29,45.29Z" transform="translate(-1.27 -1.27)" /><path class="cls-30" d="M22.35,44.63V40.36A1.3,1.3,0,0,0,21.13,39H17.65a1.3,1.3,0,0,0-1.22,1.4v4.27c0,1.09,1.53,2.23,3,2.23S22.35,45.72,22.35,44.63Z" transform="translate(-1.27 -1.27)" /><path class="cls-30" d="M16.43,44.19V40.25A1.22,1.22,0,0,0,15.26,39H12a1.22,1.22,0,0,0-1.16,1.29v3.94c0,1,1.46,2.06,2.84,2.06S16.43,45.2,16.43,44.19Z" transform="translate(-1.27 -1.27)" /><path class="cls-30" d="M36,45.68V40.62A1.54,1.54,0,0,1,37.45,39h4.13A1.54,1.54,0,0,1,43,40.62v5.07c0,1.29-1.82,2.65-3.54,2.65S36,47,36,45.68Z" transform="translate(-1.27 -1.27)" /><path class="cls-30" d="M43,45.29V40.52A1.45,1.45,0,0,1,44.4,39h3.88a1.45,1.45,0,0,1,1.37,1.56v4.77c0,1.22-1.71,2.49-3.33,2.49S43,46.5,43,45.29Z" transform="translate(-1.27 -1.27)" /><path class="cls-30" d="M49.65,44.63V40.36A1.3,1.3,0,0,1,50.87,39h3.48a1.3,1.3,0,0,1,1.22,1.4v4.27c0,1.09-1.53,2.23-3,2.23S49.65,45.72,49.65,44.63Z" transform="translate(-1.27 -1.27)" /><path class="cls-30" d="M55.57,44.19V40.25A1.22,1.22,0,0,1,56.74,39H60a1.22,1.22,0,0,1,1.16,1.29v3.94c0,1-1.46,2.06-2.84,2.06S55.57,45.2,55.57,44.19Z" transform="translate(-1.27 -1.27)" /><path class="cls-31" d="M12.09,46s-1.7,2.33-1.53,4-1.75.94-1.75.94L8,50.69l.88-2.87,1.89-3.32Z" transform="translate(-1.27 -1.27)" /><path class="cls-13" d="M61.38,44.13a30.21,30.21,0,0,1,2.5,5.5c.56,1.88-.94.88-2.31.81-2.53-.11-2.94-.19-2.87-.5a7.12,7.12,0,0,0-.76-4,1.94,1.94,0,0,0,2.22-.07A2.34,2.34,0,0,0,61.38,44.13Z" transform="translate(-1.27 -1.27)" /><path class="cls-32" d="M61.72,50.38c4.6,2.37-.23-5.47-.51-6.2h0c0,1-1.46,2.06-2.84,2.06s-2.8-1.06-2.8-2.06c0-.24,0,.15,0,.44,0,1.09-1.53,2.23-3,2.23s-2.94-1.14-2.94-2.23c0-.29,0,.29,0,.66,0,1.22-1.71,2.49-3.33,2.49S43,46.5,43,45.29c0-.37,0,0,0,.4,0,1.29-1.82,2.65-3.54,2.65S36,47,36,45.68c0,1.29-1.77,2.65-3.49,2.65S29,47,29,45.68c0-.42,0-.77,0-.4,0,1.22-1.67,2.49-3.28,2.49s-3.33-1.28-3.33-2.49c0-.37,0-.95,0-.66,0,1.09-1.49,2.23-2.94,2.23s-3-1.14-3-2.23c0-.29,0-.68,0-.44,0,1-1.42,2.06-2.8,2.06s-2.84-1.06-2.84-2.06h0c-.28.72-5.07,8.61-.5,6.19,4.72-2.5,21,6.39,25.71.74C40.82,56.86,56.53,47.71,61.72,50.38Z" transform="translate(-1.27 -1.27)" /></g></g></svg>