<svg xmlns="http://www.w3.org/2000/svg" xmlns:xlink="http://www.w3.org/1999/xlink" viewBox="0 0 69.46 69.46"><defs><style>.cls-1{isolation:isolate;}.cls-2{stroke:#dcddde;stroke-width:1.06px;fill:url(#New_Gradient_Swatch_2);}.cls-16,.cls-2{stroke-miterlimit:10;}.cls-3{fill:url(#New_Gradient_Swatch_2-2);}.cls-4{fill:#dd7b7f;}.cls-5{fill:#181a1d;opacity:0.07;mix-blend-mode:multiply;}.cls-15,.cls-6{fill:#fff;}.cls-6{opacity:0.3;}.cls-16,.cls-18,.cls-7,.cls-8{fill:none;}.cls-7{stroke:#b94656;}.cls-18,.cls-7,.cls-8{stroke-linecap:round;stroke-linejoin:round;}.cls-18,.cls-7{stroke-width:1.2px;}.cls-8{stroke:#ef4e81;stroke-width:0.9px;}.cls-9{fill:#ef4e81;}.cls-10{fill:#eaeeef;}.cls-11{fill:#d8dee0;}.cls-12{fill:url(#New_Gradient_Swatch_2-3);}.cls-13{fill:url(#New_Gradient_Swatch_2-4);}.cls-14{fill:url(#New_Gradient_Swatch_2-5);}.cls-16{stroke:#b1bfc4;}.cls-17{fill:#c41e62;}.cls-18{stroke:#991b4a;}</style><linearGradient id="New_Gradient_Swatch_2" x1="34.73" y1="45.42" x2="34.73" y2="62.25" gradientUnits="userSpaceOnUse"><stop offset="0" stop-color="#fff" /><stop offset="1" stop-color="#f2f2f2" /></linearGradient><linearGradient id="New_Gradient_Swatch_2-2" x1="36.03" y1="24.32" x2="36.03" y2="7.23" xlink:href="#New_Gradient_Swatch_2" /><linearGradient id="New_Gradient_Swatch_2-3" x1="51.47" y1="49.07" x2="51.47" y2="46.2" xlink:href="#New_Gradient_Swatch_2" /><linearGradient id="New_Gradient_Swatch_2-4" x1="43.49" y1="48.13" x2="43.49" y2="44.88" xlink:href="#New_Gradient_Swatch_2" /><linearGradient id="New_Gradient_Swatch_2-5" x1="33.8" y1="48.13" x2="33.8" y2="44.88" xlink:href="#New_Gradient_Swatch_2" /></defs><title>D5130_immediate_denture_maxillary</title><g class="cls-1"><g id="D5130_-_immediate_denture_maxillary" data-name="D5130 - immediate denture maxillary"><path class="cls-4" d="M63.17,22.33C59.17,18.83,50,13,36,13S12.83,18.83,8.83,22.33c-2.9,2.54,2,6.09,2,5.9,0-1.29,1.77-2.65,3.49-2.65s3.54,1.36,3.54,2.65c0,.22,0-.88,0-1.26,0-1.53,2-3.14,4-3.14s4,1.61,4,3.14V25.8c0-1.76,2.56-3.6,5-3.6S36,24,36,25.8c0-1.76,2.63-3.6,5.11-3.6s5,1.85,5,3.6V27c0-1.53,2.08-3.14,4-3.14s4,1.61,4,3.14c0,.38,0,1.47,0,1.26,0-1.29,1.82-2.65,3.54-2.65s3.49,1.36,3.49,2.65C61.21,28.42,66.07,24.87,63.17,22.33Z" transform="translate(-1.27 -1.27)" /><path class="cls-5" d="M10.46,21.46s-1,.22-.64,2.42a6.94,6.94,0,0,0,1.77,2.56l-1,1.31L8.06,25.4l0-2.53Z" transform="translate(-1.27 -1.27)" /><path class="cls-6" d="M61.25,28s3-1.87,3-4.12S60.63,20,58.38,18.75a92.64,92.64,0,0,0-9.58-3.66s6.74,4,8.86,5.73-.27,4.5-.27,4.5,2.25.23,2.93.92A4.35,4.35,0,0,1,61.25,28Z" transform="translate(-1.27 -1.27)" /><path class="cls-7" d="M63.17,22.33C59.17,18.83,50,13,36,13S12.83,18.83,8.83,22.33c-2.9,2.54,2,6.09,2,5.9,0-1.29,1.77-2.65,3.49-2.65s3.54,1.36,3.54,2.65c0,.22,0-.88,0-1.26,0-1.53,2-3.14,4-3.14s4,1.61,4,3.14V25.8c0-1.76,2.56-3.6,5-3.6S36,24,36,25.8c0-1.76,2.63-3.6,5.11-3.6s5,1.85,5,3.6V27c0-1.53,2.08-3.14,4-3.14s4,1.61,4,3.14c0,.38,0,1.47,0,1.26,0-1.29,1.82-2.65,3.54-2.65s3.49,1.36,3.49,2.65C61.21,28.42,66.07,24.87,63.17,22.33Z" transform="translate(-1.27 -1.27)" /><line class="cls-8" x1="34.73" y1="41.18" x2="34.73" y2="29.21" /><polygon class="cls-9" points="38.41 32.19 37.75 32.8 34.73 29.55 31.71 32.8 31.05 32.19 34.73 28.23 38.41 32.19" /><line class="cls-8" x1="52.06" y1="44.62" x2="52.06" y2="32.64" /><polygon class="cls-9" points="55.74 35.63 55.08 36.24 52.06 32.99 49.04 36.24 48.38 35.63 52.06 31.67 55.74 35.63" /><line class="cls-8" x1="17.4" y1="44.62" x2="17.4" y2="32.64" /><polygon class="cls-9" points="21.08 35.63 20.42 36.24 17.4 32.99 14.38 36.24 13.72 35.63 17.4 31.67 21.08 35.63" /><path class="cls-10" d="M25.85,48.66v6.89a2.15,2.15,0,0,0,2.1,2.26h6A2.15,2.15,0,0,0,36,55.55V48.66c0-1.76-2.63-3.6-5.11-3.6S25.85,46.9,25.85,48.66Z" transform="translate(-1.27 -1.27)" /><path class="cls-10" d="M17.82,49.83v6a1.81,1.81,0,0,0,1.66,2h4.71a1.81,1.81,0,0,0,1.66-2v-6c0-1.53-2.08-3.14-4-3.14S17.82,48.29,17.82,49.83Z" transform="translate(-1.27 -1.27)" /><path class="cls-10" d="M10.79,51.08v5.07a1.54,1.54,0,0,0,1.45,1.66h4.13a1.54,1.54,0,0,0,1.45-1.66V51.08c0-1.29-1.82-2.65-3.54-2.65S10.79,49.79,10.79,51.08Z" transform="translate(-1.27 -1.27)" /><path class="cls-10" d="M46.15,48.66v6.89a2.15,2.15,0,0,1-2.1,2.26h-6A2.15,2.15,0,0,1,36,55.55V48.66c0-1.76,2.63-3.6,5.11-3.6S46.15,46.9,46.15,48.66Z" transform="translate(-1.27 -1.27)" /><path class="cls-10" d="M54.18,49.83v6a1.81,1.81,0,0,1-1.66,2H47.81a1.81,1.81,0,0,1-1.66-2v-6c0-1.53,2.08-3.14,4-3.14S54.18,48.29,54.18,49.83Z" transform="translate(-1.27 -1.27)" /><path class="cls-10" d="M61.21,51.08v5.07a1.54,1.54,0,0,1-1.45,1.66H55.64a1.54,1.54,0,0,1-1.45-1.66V51.08c0-1.29,1.82-2.65,3.54-2.65S61.21,49.79,61.21,51.08Z" transform="translate(-1.27 -1.27)" /><polygon class="cls-11" points="10.93 48.16 10.93 56.36 10.07 56.13 9.46 54.87 9.46 49.09 10.07 48.45 10.93 48.16" /><polygon class="cls-11" points="17.95 46.41 17.95 56.36 17.08 56.13 16.47 54.87 16.47 47.33 17.08 46.7 17.95 46.41" /><polygon class="cls-11" points="26.01 45.06 26.01 56.36 25.14 56.13 24.53 54.87 24.53 45.98 25.14 45.35 26.01 45.06" /><polygon class="cls-12" points="50.11 45.87 50.11 56.23 52.8 56.23 52.84 47.85 51.41 46.35 50.11 45.87" /><polygon class="cls-13" points="42.47 44.51 42.47 56.23 44.49 56.23 44.52 47.85 43.91 45.4 42.47 44.51" /><polygon class="cls-14" points="33.03 44.51 33.03 56.23 34.54 56.23 34.57 47.85 33.96 45.4 33.03 44.51" /><path class="cls-15" d="M61.14,57.76l.11-6.9s.21-1.09-1.2-2a4,4,0,0,0-2.61-.67v9.57Z" transform="translate(-1.27 -1.27)" /><path class="cls-16" d="M25.85,48.66v6.89a2.15,2.15,0,0,0,2.1,2.26h6A2.15,2.15,0,0,0,36,55.55V48.66c0-1.76-2.63-3.6-5.11-3.6S25.85,46.9,25.85,48.66Z" transform="translate(-1.27 -1.27)" /><path class="cls-16" d="M17.82,49.83v6a1.81,1.81,0,0,0,1.66,2h4.71a1.81,1.81,0,0,0,1.66-2v-6c0-1.53-2.08-3.14-4-3.14S17.82,48.29,17.82,49.83Z" transform="translate(-1.27 -1.27)" /><path class="cls-16" d="M10.79,51.08v5.07a1.54,1.54,0,0,0,1.45,1.66h4.13a1.54,1.54,0,0,0,1.45-1.66V51.08c0-1.29-1.82-2.65-3.54-2.65S10.79,49.79,10.79,51.08Z" transform="translate(-1.27 -1.27)" /><path class="cls-16" d="M46.15,48.66v6.89a2.15,2.15,0,0,1-2.1,2.26h-6A2.15,2.15,0,0,1,36,55.55V48.66c0-1.76,2.63-3.6,5.11-3.6S46.15,46.9,46.15,48.66Z" transform="translate(-1.27 -1.27)" /><path class="cls-16" d="M54.18,49.83v6a1.81,1.81,0,0,1-1.66,2H47.81a1.81,1.81,0,0,1-1.66-2v-6c0-1.53,2.08-3.14,4-3.14S54.18,48.29,54.18,49.83Z" transform="translate(-1.27 -1.27)" /><path class="cls-16" d="M61.21,51.08v5.07a1.54,1.54,0,0,1-1.45,1.66H55.64a1.54,1.54,0,0,1-1.45-1.66V51.08c0-1.29,1.82-2.65,3.54-2.65S61.21,49.79,61.21,51.08Z" transform="translate(-1.27 -1.27)" /><path class="cls-17" d="M63.68,43.4c-11.1,5-20.81-8-27.68-.78-7.34-7.34-16.21,5.86-27.68.77-3.52-1.56,2.47,7.88,2.47,7.69,0-1.29,1.77-2.65,3.49-2.65s3.54,1.36,3.54,2.65c0,.22,0-.88,0-1.26,0-1.53,2-3.14,4-3.14s4,1.61,4,3.14V48.66c0-1.76,2.56-3.6,5-3.6S36,46.9,36,48.66c0-1.76,2.63-3.6,5.11-3.6s5,1.85,5,3.6v1.17c0-1.53,2.08-3.14,4-3.14s4,1.61,4,3.14c0,.38,0,1.47,0,1.26,0-1.29,1.82-2.65,3.54-2.65s3.49,1.36,3.49,2.65C61.21,51.28,67.2,41.83,63.68,43.4Z" transform="translate(-1.27 -1.27)" /><path class="cls-5" d="M8.84,43.37a19.66,19.66,0,0,0,1.28,3.31,6.21,6.21,0,0,0,1.79,2.5L10.59,50.6,8.67,47.69l-1.52-4Z" transform="translate(-1.27 -1.27)" /><path class="cls-6" d="M61.25,50.85a13.19,13.19,0,0,0,2.53-4.18c.75-2.12,1.82-4.65-.67-3-1.7,1.1-3.95.37-4,1.08a7.2,7.2,0,0,1-1.35,3.68s1.89,0,2.56.69A4.35,4.35,0,0,1,61.25,50.85Z" transform="translate(-1.27 -1.27)" /><path class="cls-18" d="M63.68,43.4c-11.1,5-20.81-8-27.68-.78-7.34-7.34-16.21,5.86-27.68.77-3.52-1.56,2.47,7.88,2.47,7.69,0-1.29,1.77-2.65,3.49-2.65s3.54,1.36,3.54,2.65c0,.22,0-.88,0-1.26,0-1.53,2-3.14,4-3.14s4,1.61,4,3.14V48.66c0-1.76,2.56-3.6,5-3.6S36,46.9,36,48.66c0-1.76,2.63-3.6,5.11-3.6s5,1.85,5,3.6v1.17c0-1.53,2.08-3.14,4-3.14s4,1.61,4,3.14c0,.38,0,1.47,0,1.26,0-1.29,1.82-2.65,3.54-2.65s3.49,1.36,3.49,2.65C61.21,51.28,67.2,41.83,63.68,43.4Z" transform="translate(-1.27 -1.27)" /></g></g></svg>