<svg id="D5140_-_immediate_denture_mandibular" data-name="D5140 - immediate denture mandibular" xmlns="http://www.w3.org/2000/svg" xmlns:xlink="http://www.w3.org/1999/xlink" viewBox="0 0 69.46 69.46"><defs><style>.cls-1{stroke:#dcddde;stroke-width:1.06px;fill:url(#New_Gradient_Swatch_2);}.cls-1,.cls-17{stroke-miterlimit:10;}.cls-2{fill:url(#New_Gradient_Swatch_2-2);}.cls-17,.cls-18,.cls-3,.cls-8{fill:none;}.cls-3{stroke:#ef4e81;stroke-width:0.9px;}.cls-18,.cls-3,.cls-8{stroke-linecap:round;stroke-linejoin:round;}.cls-4{fill:#ef4e81;}.cls-5{fill:#dd7b7f;}.cls-6{fill:#181a1d;opacity:0.07;}.cls-16,.cls-7{fill:#fff;}.cls-7{opacity:0.3;}.cls-8{stroke:#b94656;}.cls-18,.cls-8{stroke-width:1.2px;}.cls-9{fill:#c41e62;}.cls-10{fill:#eaeeef;}.cls-11{fill:#d8dee0;}.cls-12{fill:url(#New_Gradient_Swatch_2-3);}.cls-13{fill:url(#New_Gradient_Swatch_2-4);}.cls-14{fill:url(#New_Gradient_Swatch_2-5);}.cls-15{fill:url(#New_Gradient_Swatch_2-6);}.cls-17{stroke:#b1bfc4;}.cls-18{stroke:#991b4a;}</style><linearGradient id="New_Gradient_Swatch_2" x1="34.73" y1="45.42" x2="34.73" y2="62.25" gradientUnits="userSpaceOnUse"><stop offset="0" stop-color="#fff" /><stop offset="1" stop-color="#f2f2f2" /></linearGradient><linearGradient id="New_Gradient_Swatch_2-2" x1="36.03" y1="24.32" x2="36.03" y2="7.23" xlink:href="#New_Gradient_Swatch_2" /><linearGradient id="New_Gradient_Swatch_2-3" x1="54.35" y1="59.23" x2="54.35" y2="57" gradientTransform="matrix(1, 0, 0, -1, -1.27, 78.62)" xlink:href="#New_Gradient_Swatch_2" /><linearGradient id="New_Gradient_Swatch_2-4" x1="48.37" y1="58.56" x2="48.37" y2="56.06" gradientTransform="matrix(1, 0, 0, -1, -1.27, 78.62)" xlink:href="#New_Gradient_Swatch_2" /><linearGradient id="New_Gradient_Swatch_2-5" x1="41.85" y1="58.56" x2="41.85" y2="56.06" gradientTransform="matrix(1, 0, 0, -1, -1.27, 78.62)" xlink:href="#New_Gradient_Swatch_2" /><linearGradient id="New_Gradient_Swatch_2-6" x1="35.02" y1="58.56" x2="35.02" y2="56.06" gradientTransform="matrix(1, 0, 0, -1, -1.27, 78.62)" xlink:href="#New_Gradient_Swatch_2" /></defs><title>D5140_immediate_denture_mandibular</title><line class="cls-3" x1="34.73" y1="25.66" x2="34.73" y2="39.64" /><polygon class="cls-4" points="31.05 36.66 31.71 36.05 34.73 39.3 37.75 36.05 38.41 36.66 34.73 40.62 31.05 36.66" /><line class="cls-3" x1="52.06" y1="24.23" x2="52.06" y2="36.2" /><polygon class="cls-4" points="48.38 33.22 49.04 32.61 52.06 35.86 55.08 32.61 55.74 33.22 52.06 37.18 48.38 33.22" /><line class="cls-3" x1="17.4" y1="24.23" x2="17.4" y2="36.2" /><polygon class="cls-4" points="13.72 33.22 14.38 32.61 17.4 35.86 20.42 32.61 21.08 33.22 17.4 37.18 13.72 33.22" /><path class="cls-5" d="M62.36,47.28c-.49-1.37-.87-2.38-1.15-3.1h0c0,1-1.46,2.06-2.84,2.06s-2.8-1.06-2.8-2.06c0-.24,0,.15,0,.44,0,1.09-1.53,2.23-3,2.23s-2.94-1.14-2.94-2.23c0-.29,0,.29,0,.66,0,1.22-1.71,2.49-3.33,2.49S43,46.5,43,45.29c0-.37,0,0,0,.4,0,1.29-1.82,2.65-3.54,2.65S36,47,36,45.68c0,1.29-1.77,2.65-3.49,2.65S29,47,29,45.68c0-.42,0-.77,0-.4,0,1.22-1.67,2.49-3.28,2.49s-3.33-1.28-3.33-2.49c0-.37,0-.95,0-.66,0,1.09-1.49,2.23-2.94,2.23s-3-1.14-3-2.23c0-.29,0-.68,0-.44,0,1-1.42,2.06-2.8,2.06s-2.84-1.06-2.84-2.06h0c-.28.72-.66,1.72-1.15,3.1C7.82,52.39,15.21,57,36,57.14,56.79,57,64.18,52.39,62.36,47.28Z" transform="translate(-1.27 -1.27)" /><path class="cls-6" d="M12.09,46a8.61,8.61,0,0,0-.81,3.75,7,7,0,0,0,1.39,3.17l-2.6-1.85L9,48.3l1.73-3.81Z" transform="translate(-1.27 -1.27)" /><path class="cls-7" d="M61.38,44.13a7.65,7.65,0,0,1,1.38,5.5c-.5,3.13-4.12,4-6.5,4.88a59.36,59.36,0,0,1-7.37,1.75s5.71-1.51,9.26-4.85c1.37-1.29-.2-5.45-.2-5.45a1.94,1.94,0,0,0,2.22-.07A2.34,2.34,0,0,0,61.38,44.13Z" transform="translate(-1.27 -1.27)" /><path class="cls-8" d="M62.36,47.28c-.49-1.37-.87-2.38-1.15-3.1h0c0,1-1.46,2.06-2.84,2.06s-2.8-1.06-2.8-2.06c0-.24,0,.15,0,.44,0,1.09-1.53,2.23-3,2.23s-2.94-1.14-2.94-2.23c0-.29,0,.29,0,.66,0,1.22-1.71,2.49-3.33,2.49S43,46.5,43,45.29c0-.37,0,0,0,.4,0,1.29-1.82,2.65-3.54,2.65S36,47,36,45.68c0,1.29-1.77,2.65-3.49,2.65S29,47,29,45.68c0-.42,0-.77,0-.4,0,1.22-1.67,2.49-3.28,2.49s-3.33-1.28-3.33-2.49c0-.37,0-.95,0-.66,0,1.09-1.49,2.23-2.94,2.23s-3-1.14-3-2.23c0-.29,0-.68,0-.44,0,1-1.42,2.06-2.8,2.06s-2.84-1.06-2.84-2.06h0c-.28.72-.66,1.72-1.15,3.1C7.82,52.39,15.21,57,36,57.14,56.79,57,64.18,52.39,62.36,47.28Z" transform="translate(-1.27 -1.27)" /><path class="cls-9" d="M61.72,26.49c4.6,2.37-.23-5.47-.51-6.2h0c0,1-1.46,2.06-2.84,2.06s-2.8-1.06-2.8-2.06c0-.24,0,.15,0,.44,0,1.09-1.53,2.23-3,2.23s-2.94-1.14-2.94-2.23c0-.29,0,.29,0,.66,0,1.22-1.71,2.49-3.33,2.49S43,22.61,43,21.4c0-.37,0,0,0,.4,0,1.29-1.82,2.65-3.54,2.65S36,23.08,36,21.79c0,1.29-1.77,2.65-3.49,2.65S29,23.08,29,21.79c0-.42,0-.77,0-.4,0,1.22-1.67,2.49-3.28,2.49s-3.33-1.28-3.33-2.49c0-.37,0-.95,0-.66,0,1.09-1.49,2.23-2.94,2.23s-3-1.14-3-2.23c0-.29,0-.68,0-.44,0,1-1.42,2.06-2.8,2.06s-2.84-1.06-2.84-2.06h0c-.28.72-5.07,8.61-.5,6.19,4.72-2.5,21,6.39,25.71.74C40.82,33,56.53,23.82,61.72,26.49Z" transform="translate(-1.27 -1.27)" /><path class="cls-10" d="M36,21.79V16.73a1.54,1.54,0,0,0-1.45-1.66H30.42A1.54,1.54,0,0,0,29,16.73v5.07c0,1.29,1.82,2.65,3.54,2.65S36,23.08,36,21.79Z" transform="translate(-1.27 -1.27)" /><path class="cls-10" d="M29,21.4V16.63a1.45,1.45,0,0,0-1.37-1.56H23.72a1.45,1.45,0,0,0-1.37,1.56V21.4c0,1.22,1.71,2.49,3.33,2.49S29,22.61,29,21.4Z" transform="translate(-1.27 -1.27)" /><path class="cls-10" d="M22.35,20.74V16.47a1.3,1.3,0,0,0-1.22-1.4H17.65a1.3,1.3,0,0,0-1.22,1.4v4.27c0,1.09,1.53,2.23,3,2.23S22.35,21.83,22.35,20.74Z" transform="translate(-1.27 -1.27)" /><path class="cls-10" d="M16.43,20.3V16.36a1.22,1.22,0,0,0-1.16-1.29H12a1.22,1.22,0,0,0-1.16,1.29V20.3c0,1,1.46,2.06,2.84,2.06S16.43,21.31,16.43,20.3Z" transform="translate(-1.27 -1.27)" /><path class="cls-10" d="M36,21.79V16.73a1.54,1.54,0,0,1,1.45-1.66h4.13A1.54,1.54,0,0,1,43,16.73v5.07c0,1.29-1.82,2.65-3.54,2.65S36,23.08,36,21.79Z" transform="translate(-1.27 -1.27)" /><path class="cls-10" d="M43,21.4V16.63a1.45,1.45,0,0,1,1.37-1.56h3.88a1.45,1.45,0,0,1,1.37,1.56V21.4c0,1.22-1.71,2.49-3.33,2.49S43,22.61,43,21.4Z" transform="translate(-1.27 -1.27)" /><path class="cls-10" d="M49.65,20.74V16.47a1.3,1.3,0,0,1,1.22-1.4h3.48a1.3,1.3,0,0,1,1.22,1.4v4.27c0,1.09-1.53,2.23-3,2.23S49.65,21.83,49.65,20.74Z" transform="translate(-1.27 -1.27)" /><path class="cls-10" d="M55.57,20.3V16.36a1.22,1.22,0,0,1,1.16-1.29H60a1.22,1.22,0,0,1,1.16,1.29V20.3c0,1-1.46,2.06-2.84,2.06S55.57,21.31,55.57,20.3Z" transform="translate(-1.27 -1.27)" /><polygon class="cls-11" points="10.96 13.73 10.96 20.68 10.47 20.45 9.86 19.2 9.86 14.65 10.47 14.02 10.96 13.73" /><polygon class="cls-11" points="16.56 13.73 16.56 20.68 16.07 20.45 15.46 19.2 15.46 14.65 16.07 14.02 16.56 13.73" /><polygon class="cls-11" points="22.53 13.73 22.53 22.01 22.04 21.78 21.42 20.53 21.42 14.65 22.04 14.02 22.53 13.73" /><polygon class="cls-11" points="29.12 13.73 29.12 22.01 28.63 21.78 28.02 20.53 28.02 14.65 28.63 14.02 29.12 13.73" /><polygon class="cls-12" points="51.67 21.87 51.67 13.95 54.46 13.83 54.49 19.77 53.06 21.27 51.67 21.87" /><polygon class="cls-13" points="46.02 22.84 46.02 13.83 48.14 13.83 48.17 20.86 46.74 22.36 46.02 22.84" /><polygon class="cls-14" points="39.81 22.84 39.81 13.83 41.32 13.83 41.35 20.86 40.71 22.09 39.81 22.84" /><polygon class="cls-15" points="33.17 22.84 33.17 13.83 34.31 13.83 34.34 20.86 33.7 22.09 33.17 22.84" /><path class="cls-16" d="M58.19,15.45v7.21a2.71,2.71,0,0,0,1.9-.57,2.51,2.51,0,0,0,1.28-1.86l-.23-4.78Z" transform="translate(-1.27 -1.27)" /><path class="cls-17" d="M36,21.79V16.73a1.54,1.54,0,0,0-1.45-1.66H30.42A1.54,1.54,0,0,0,29,16.73v5.07c0,1.29,1.82,2.65,3.54,2.65S36,23.08,36,21.79Z" transform="translate(-1.27 -1.27)" /><path class="cls-17" d="M29,21.4V16.63a1.45,1.45,0,0,0-1.37-1.56H23.72a1.45,1.45,0,0,0-1.37,1.56V21.4c0,1.22,1.71,2.49,3.33,2.49S29,22.61,29,21.4Z" transform="translate(-1.27 -1.27)" /><path class="cls-17" d="M22.35,20.74V16.47a1.3,1.3,0,0,0-1.22-1.4H17.65a1.3,1.3,0,0,0-1.22,1.4v4.27c0,1.09,1.53,2.23,3,2.23S22.35,21.83,22.35,20.74Z" transform="translate(-1.27 -1.27)" /><path class="cls-17" d="M16.43,20.3V16.36a1.22,1.22,0,0,0-1.16-1.29H12a1.22,1.22,0,0,0-1.16,1.29V20.3c0,1,1.46,2.06,2.84,2.06S16.43,21.31,16.43,20.3Z" transform="translate(-1.27 -1.27)" /><path class="cls-17" d="M36,21.79V16.73a1.54,1.54,0,0,1,1.45-1.66h4.13A1.54,1.54,0,0,1,43,16.73v5.07c0,1.29-1.82,2.65-3.54,2.65S36,23.08,36,21.79Z" transform="translate(-1.27 -1.27)" /><path class="cls-17" d="M43,21.4V16.63a1.45,1.45,0,0,1,1.37-1.56h3.88a1.45,1.45,0,0,1,1.37,1.56V21.4c0,1.22-1.71,2.49-3.33,2.49S43,22.61,43,21.4Z" transform="translate(-1.27 -1.27)" /><path class="cls-17" d="M49.65,20.74V16.47a1.3,1.3,0,0,1,1.22-1.4h3.48a1.3,1.3,0,0,1,1.22,1.4v4.27c0,1.09-1.53,2.23-3,2.23S49.65,21.83,49.65,20.74Z" transform="translate(-1.27 -1.27)" /><path class="cls-17" d="M55.57,20.3V16.36a1.22,1.22,0,0,1,1.16-1.29H60a1.22,1.22,0,0,1,1.16,1.29V20.3c0,1-1.46,2.06-2.84,2.06S55.57,21.31,55.57,20.3Z" transform="translate(-1.27 -1.27)" /><path class="cls-6" d="M12.09,22.1s-1.7,2.33-1.53,4S8.81,27,8.81,27L8,26.8l.88-2.87,1.89-3.32Z" transform="translate(-1.27 -1.27)" /><path class="cls-7" d="M61.38,20.24a30.21,30.21,0,0,1,2.5,5.5c.56,1.88-.94.88-2.31.81-2.53-.11-2.94-.19-2.87-.5a7.12,7.12,0,0,0-.76-4A1.94,1.94,0,0,0,60.15,22,2.34,2.34,0,0,0,61.38,20.24Z" transform="translate(-1.27 -1.27)" /><path class="cls-18" d="M61.72,26.49c4.6,2.37-.23-5.47-.51-6.2h0c0,1-1.46,2.06-2.84,2.06s-2.8-1.06-2.8-2.06c0-.24,0,.15,0,.44,0,1.09-1.53,2.23-3,2.23s-2.94-1.14-2.94-2.23c0-.29,0,.29,0,.66,0,1.22-1.71,2.49-3.33,2.49S43,22.61,43,21.4c0-.37,0,0,0,.4,0,1.29-1.82,2.65-3.54,2.65S36,23.08,36,21.79c0,1.29-1.77,2.65-3.49,2.65S29,23.08,29,21.79c0-.42,0-.77,0-.4,0,1.22-1.67,2.49-3.28,2.49s-3.33-1.28-3.33-2.49c0-.37,0-.95,0-.66,0,1.09-1.49,2.23-2.94,2.23s-3-1.14-3-2.23c0-.29,0-.68,0-.44,0,1-1.42,2.06-2.8,2.06s-2.84-1.06-2.84-2.06h0c-.28.72-5.07,8.61-.5,6.19,4.72-2.5,21,6.39,25.71.74C40.82,33,56.53,23.82,61.72,26.49Z" transform="translate(-1.27 -1.27)" /></svg>