<svg xmlns="http://www.w3.org/2000/svg" xmlns:xlink="http://www.w3.org/1999/xlink" viewBox="0 0 69.46 69.46"><defs><style>.cls-1{isolation:isolate;}.cls-2{stroke:#dcddde;stroke-width:1.06px;fill:url(#New_Gradient_Swatch_2);}.cls-15,.cls-2,.cls-8{stroke-miterlimit:10;}.cls-3{fill:url(#New_Gradient_Swatch_2-2);}.cls-4{fill:#eaeeef;}.cls-5{fill:#d8dee0;}.cls-6{fill:url(#New_Gradient_Swatch_2-3);}.cls-11,.cls-7{fill:#fff;}.cls-12,.cls-13,.cls-20,.cls-8{fill:none;}.cls-8{stroke:#b1bfc4;}.cls-9{fill:#dd7b7f;}.cls-10{fill:#181a1d;opacity:0.07;mix-blend-mode:multiply;}.cls-11{opacity:0.3;}.cls-12{stroke:#b94656;}.cls-12,.cls-13,.cls-20{stroke-linecap:round;stroke-linejoin:round;}.cls-12,.cls-20{stroke-width:1.2px;}.cls-13{stroke:#ef4e81;stroke-width:0.9px;}.cls-14{fill:#ef4e81;}.cls-15,.cls-16{fill:#babcbe;}.cls-15{stroke:#919396;stroke-width:2px;}.cls-17{fill:url(#New_Gradient_Swatch_2-4);}.cls-18{fill:url(#New_Gradient_Swatch_2-5);}.cls-19{fill:#c41e62;}.cls-20{stroke:#991b4a;}</style><linearGradient id="New_Gradient_Swatch_2" x1="34.73" y1="45.42" x2="34.73" y2="62.25" gradientUnits="userSpaceOnUse"><stop offset="0" stop-color="#fff" /><stop offset="1" stop-color="#f2f2f2" /></linearGradient><linearGradient id="New_Gradient_Swatch_2-2" x1="36.03" y1="24.32" x2="36.03" y2="7.23" xlink:href="#New_Gradient_Swatch_2" /><linearGradient id="New_Gradient_Swatch_2-3" x1="51.47" y1="26.22" x2="51.47" y2="23.35" xlink:href="#New_Gradient_Swatch_2" /><linearGradient id="New_Gradient_Swatch_2-4" x1="43.49" y1="48.13" x2="43.49" y2="44.88" xlink:href="#New_Gradient_Swatch_2" /><linearGradient id="New_Gradient_Swatch_2-5" x1="33.8" y1="48.13" x2="33.8" y2="44.88" xlink:href="#New_Gradient_Swatch_2" /></defs><title>D5213_maxillary_partial_denture_cast_metal_framework</title><g class="cls-1"><g id="D5213_-_maxillary_partial_denture_cast_metal_framework" data-name="D5213 - maxillary partial denture, cast metal framework"><path class="cls-4" d="M17.82,27v6a1.81,1.81,0,0,0,1.66,2h4.71a1.81,1.81,0,0,0,1.66-2V27c0-1.53-2.08-3.14-4-3.14S17.82,25.44,17.82,27Z" transform="translate(-1.27 -1.27)" /><path class="cls-4" d="M10.79,28.23v5.07A1.54,1.54,0,0,0,12.24,35h4.13a1.54,1.54,0,0,0,1.45-1.66V28.23c0-1.29-1.82-2.65-3.54-2.65S10.79,26.94,10.79,28.23Z" transform="translate(-1.27 -1.27)" /><path class="cls-4" d="M54.18,27v6a1.81,1.81,0,0,1-1.66,2H47.81a1.81,1.81,0,0,1-1.66-2V27c0-1.53,2.08-3.14,4-3.14S54.18,25.44,54.18,27Z" transform="translate(-1.27 -1.27)" /><path class="cls-4" d="M61.21,28.23v5.07A1.54,1.54,0,0,1,59.76,35H55.64a1.54,1.54,0,0,1-1.45-1.66V28.23c0-1.29,1.82-2.65,3.54-2.65S61.21,26.94,61.21,28.23Z" transform="translate(-1.27 -1.27)" /><polygon class="cls-5" points="10.93 25.31 10.93 33.5 10.07 33.27 9.46 32.02 9.46 26.23 10.07 25.6 10.93 25.31" /><polygon class="cls-5" points="17.95 23.55 17.95 33.5 17.08 33.27 16.47 32.02 16.47 24.48 17.08 23.84 17.95 23.55" /><polygon class="cls-6" points="50.11 23.02 50.11 33.38 52.8 33.38 52.84 25 51.41 23.5 50.11 23.02" /><path class="cls-7" d="M61.14,34.9l.11-6.9s.21-1.09-1.2-2a4,4,0,0,0-2.61-.67v9.57Z" transform="translate(-1.27 -1.27)" /><path class="cls-8" d="M17.82,27v6a1.81,1.81,0,0,0,1.66,2h4.71a1.81,1.81,0,0,0,1.66-2V27c0-1.53-2.08-3.14-4-3.14S17.82,25.44,17.82,27Z" transform="translate(-1.27 -1.27)" /><path class="cls-8" d="M10.79,28.23v5.07A1.54,1.54,0,0,0,12.24,35h4.13a1.54,1.54,0,0,0,1.45-1.66V28.23c0-1.29-1.82-2.65-3.54-2.65S10.79,26.94,10.79,28.23Z" transform="translate(-1.27 -1.27)" /><path class="cls-8" d="M54.18,27v6a1.81,1.81,0,0,1-1.66,2H47.81a1.81,1.81,0,0,1-1.66-2V27c0-1.53,2.08-3.14,4-3.14S54.18,25.44,54.18,27Z" transform="translate(-1.27 -1.27)" /><path class="cls-8" d="M61.21,28.23v5.07A1.54,1.54,0,0,1,59.76,35H55.64a1.54,1.54,0,0,1-1.45-1.66V28.23c0-1.29,1.82-2.65,3.54-2.65S61.21,26.94,61.21,28.23Z" transform="translate(-1.27 -1.27)" /><path class="cls-9" d="M63.17,22.33C59.17,18.83,50,13,36,13S12.83,18.83,8.83,22.33c-2.9,2.54,2,6.09,2,5.9,0-1.29,1.77-2.65,3.49-2.65s3.54,1.36,3.54,2.65c0,.22,0-.88,0-1.26,0-1.53,2-3.14,4-3.14s4,1.61,4,3.14V25.8c0-1.76,2.56-3.6,5-3.6S36,24,36,25.8c0-1.76,2.63-3.6,5.11-3.6s5,1.85,5,3.6V27c0-1.53,2.08-3.14,4-3.14s4,1.61,4,3.14c0,.38,0,1.47,0,1.26,0-1.29,1.82-2.65,3.54-2.65s3.49,1.36,3.49,2.65C61.21,28.42,66.07,24.87,63.17,22.33Z" transform="translate(-1.27 -1.27)" /><path class="cls-10" d="M10.46,21.46s-1,.22-.64,2.42a6.94,6.94,0,0,0,1.77,2.56l-1,1.31L8.06,25.4l0-2.53Z" transform="translate(-1.27 -1.27)" /><path class="cls-11" d="M61.25,28s3-1.87,3-4.12S60.63,20,58.38,18.75a92.64,92.64,0,0,0-9.58-3.66s6.74,4,8.86,5.73-.27,4.5-.27,4.5,2.25.23,2.93.92A4.35,4.35,0,0,1,61.25,28Z" transform="translate(-1.27 -1.27)" /><path class="cls-12" d="M63.17,22.33C59.17,18.83,50,13,36,13S12.83,18.83,8.83,22.33c-2.9,2.54,2,6.09,2,5.9,0-1.29,1.77-2.65,3.49-2.65s3.54,1.36,3.54,2.65c0,.22,0-.88,0-1.26,0-1.53,2-3.14,4-3.14s4,1.61,4,3.14V25.8c0-1.76,2.56-3.6,5-3.6S36,24,36,25.8c0-1.76,2.63-3.6,5.11-3.6s5,1.85,5,3.6V27c0-1.53,2.08-3.14,4-3.14s4,1.61,4,3.14c0,.38,0,1.47,0,1.26,0-1.29,1.82-2.65,3.54-2.65s3.49,1.36,3.49,2.65C61.21,28.42,66.07,24.87,63.17,22.33Z" transform="translate(-1.27 -1.27)" /><line class="cls-13" x1="34.73" y1="41.18" x2="34.73" y2="29.21" /><polygon class="cls-14" points="38.41 32.19 37.75 32.8 34.73 29.55 31.71 32.8 31.05 32.19 34.73 28.23 38.41 32.19" /><path class="cls-15" d="M61.79,51.52a3.68,3.68,0,0,0-.16-.46,3.74,3.74,0,0,0-1.08-1.39,4.63,4.63,0,0,0-2.31-.91,6,6,0,0,0-2.81.34l-.36.16c-4.24-3.43-10.3-5-19.07-5s-14.85,1.6-19.08,5l-.39-.17a6,6,0,0,0-2.81-.34,4.63,4.63,0,0,0-2.31.91,3.74,3.74,0,0,0-1.08,1.39,3.68,3.68,0,0,0-.16.46l0,.16a.21.21,0,0,0,.39.14,4.32,4.32,0,0,1,.27-.53,3.15,3.15,0,0,1,1-1.07,4,4,0,0,1,2-.62,5.68,5.68,0,0,1,2.39.4,5.12,5.12,0,0,1,1.07.58A4.49,4.49,0,0,1,19,53.21a3.22,3.22,0,0,1,0,1.44,4.07,4.07,0,0,1-.2.54h0a.21.21,0,0,0,.35.22l.11-.14a2.39,2.39,0,0,0,.28-.42,3.16,3.16,0,0,0,.35-1.77,4.35,4.35,0,0,0-1-2.35,4.56,4.56,0,0,0-.81-.78c4-3.06,9.71-4.49,17.94-4.49S49.93,46.91,53.92,50a4.58,4.58,0,0,0-.83.8,4.35,4.35,0,0,0-1,2.35,3.16,3.16,0,0,0,.35,1.77,2.38,2.38,0,0,0,.28.42l.11.14a.21.21,0,0,0,.35-.22h0a4.08,4.08,0,0,1-.2-.54,3.22,3.22,0,0,1,0-1.44,4.49,4.49,0,0,1,1.74-2.62A5.12,5.12,0,0,1,55.78,50a5.68,5.68,0,0,1,2.39-.4,4,4,0,0,1,2,.62,3.15,3.15,0,0,1,1,1.07,4.34,4.34,0,0,1,.27.53.21.21,0,1,0,.39-.14Z" transform="translate(-1.27 -1.27)" /><path class="cls-16" d="M61.79,51.52a3.68,3.68,0,0,0-.16-.46,3.74,3.74,0,0,0-1.08-1.39,4.63,4.63,0,0,0-2.31-.91,6,6,0,0,0-2.81.34l-.36.16c-4.24-3.43-10.3-5-19.07-5s-14.85,1.6-19.08,5l-.39-.17a6,6,0,0,0-2.81-.34,4.63,4.63,0,0,0-2.31.91,3.74,3.74,0,0,0-1.08,1.39,3.68,3.68,0,0,0-.16.46l0,.16a.21.21,0,0,0,.39.14,4.32,4.32,0,0,1,.27-.53,3.15,3.15,0,0,1,1-1.07,4,4,0,0,1,2-.62,5.68,5.68,0,0,1,2.39.4,5.12,5.12,0,0,1,1.07.58A4.49,4.49,0,0,1,19,53.21a3.22,3.22,0,0,1,0,1.44,4.07,4.07,0,0,1-.2.54h0a.21.21,0,0,0,.35.22l.11-.14a2.39,2.39,0,0,0,.28-.42,3.16,3.16,0,0,0,.35-1.77,4.35,4.35,0,0,0-1-2.35,4.56,4.56,0,0,0-.81-.78c4-3.06,9.71-4.49,17.94-4.49S49.93,46.91,53.92,50a4.58,4.58,0,0,0-.83.8,4.35,4.35,0,0,0-1,2.35,3.16,3.16,0,0,0,.35,1.77,2.38,2.38,0,0,0,.28.42l.11.14a.21.21,0,0,0,.35-.22h0a4.08,4.08,0,0,1-.2-.54,3.22,3.22,0,0,1,0-1.44,4.49,4.49,0,0,1,1.74-2.62A5.12,5.12,0,0,1,55.78,50a5.68,5.68,0,0,1,2.39-.4,4,4,0,0,1,2,.62,3.15,3.15,0,0,1,1,1.07,4.34,4.34,0,0,1,.27.53.21.21,0,1,0,.39-.14Z" transform="translate(-1.27 -1.27)" /><path class="cls-4" d="M25.85,48.66v6.89a2.15,2.15,0,0,0,2.1,2.26h6A2.15,2.15,0,0,0,36,55.55V48.66c0-1.76-2.63-3.6-5.11-3.6S25.85,46.9,25.85,48.66Z" transform="translate(-1.27 -1.27)" /><path class="cls-4" d="M46.15,48.66v6.89a2.15,2.15,0,0,1-2.1,2.26h-6A2.15,2.15,0,0,1,36,55.55V48.66c0-1.76,2.63-3.6,5.11-3.6S46.15,46.9,46.15,48.66Z" transform="translate(-1.27 -1.27)" /><polygon class="cls-5" points="26.01 45.06 26.01 56.36 25.14 56.13 24.53 54.87 24.53 45.98 25.14 45.35 26.01 45.06" /><polygon class="cls-17" points="42.47 44.51 42.47 56.23 44.49 56.23 44.52 47.85 43.91 45.4 42.47 44.51" /><polygon class="cls-18" points="33.03 44.51 33.03 56.23 34.54 56.23 34.57 47.85 33.96 45.4 33.03 44.51" /><path class="cls-8" d="M25.85,48.66v6.89a2.15,2.15,0,0,0,2.1,2.26h6A2.15,2.15,0,0,0,36,55.55V48.66c0-1.76-2.63-3.6-5.11-3.6S25.85,46.9,25.85,48.66Z" transform="translate(-1.27 -1.27)" /><path class="cls-8" d="M46.15,48.66v6.89a2.15,2.15,0,0,1-2.1,2.26h-6A2.15,2.15,0,0,1,36,55.55V48.66c0-1.76,2.63-3.6,5.11-3.6S46.15,46.9,46.15,48.66Z" transform="translate(-1.27 -1.27)" /><path class="cls-19" d="M50.67,42.4c-6.77,3.33-7.8-7-14.67.22-7.34-7.34-7.55,3.06-14.67-.23-3.5-1.61,4.52,7.43,4.52,7.43V48.66c0-1.76,2.56-3.6,5-3.6S36,46.9,36,48.66c0-1.76,2.63-3.6,5.11-3.6s5,1.85,5,3.6v1.17S54.13,40.7,50.67,42.4Z" transform="translate(-1.27 -1.27)" /><path class="cls-11" d="M46.37,49.35a13.19,13.19,0,0,0,3.39-3.52c1.2-1.91,2.8-4.14,0-3.11-1.9.7-3.36-.58-3.58.1a7.2,7.2,0,0,1-2.12,3.29,4.23,4.23,0,0,1,1.78,1.31A4.35,4.35,0,0,1,46.37,49.35Z" transform="translate(-1.27 -1.27)" /><path class="cls-10" d="M22.16,42.33s.55.88,1.86,2.69a7.48,7.48,0,0,0,2.51,2.29l-1.47,1.76-2.57-2.74-2-3.69Z" transform="translate(-1.27 -1.27)" /><path class="cls-20" d="M50.67,42.4c-6.77,3.33-7.8-7-14.67.22-7.34-7.34-7.55,3.06-14.67-.23-3.5-1.61,4.52,7.43,4.52,7.43V48.66c0-1.76,2.56-3.6,5-3.6S36,46.9,36,48.66c0-1.76,2.63-3.6,5.11-3.6s5,1.85,5,3.6v1.17S54.13,40.7,50.67,42.4Z" transform="translate(-1.27 -1.27)" /></g></g></svg>