<svg id="D5214_-_mandibular_partial_denture_cast_metal_framework" data-name="D5214 - mandibular partial denture, cast metal framework" xmlns="http://www.w3.org/2000/svg" xmlns:xlink="http://www.w3.org/1999/xlink" viewBox="0 0 69.46 69.46"><defs><style>.cls-1{stroke:#dcddde;stroke-width:1.06px;fill:url(#New_Gradient_Swatch_2);}.cls-1,.cls-10,.cls-3{stroke-miterlimit:10;}.cls-2{fill:url(#New_Gradient_Swatch_2-2);}.cls-3,.cls-4{fill:#babcbe;}.cls-3{stroke:#919396;stroke-width:2px;}.cls-5{fill:#eaeeef;}.cls-6{fill:#d8dee0;}.cls-7{fill:url(#New_Gradient_Swatch_2-3);}.cls-8{fill:url(#New_Gradient_Swatch_2-4);}.cls-13,.cls-9{fill:#fff;}.cls-10,.cls-14,.cls-15,.cls-20{fill:none;}.cls-10{stroke:#b1bfc4;}.cls-11{fill:#dd7b7f;}.cls-12{fill:#181a1d;opacity:0.07;}.cls-13{opacity:0.3;}.cls-14{stroke:#b94656;}.cls-14,.cls-15,.cls-20{stroke-linecap:round;stroke-linejoin:round;}.cls-14,.cls-20{stroke-width:1.2px;}.cls-15{stroke:#ef4e81;stroke-width:0.9px;}.cls-16{fill:#ef4e81;}.cls-17{fill:url(#New_Gradient_Swatch_2-5);}.cls-18{fill:url(#New_Gradient_Swatch_2-6);}.cls-19{fill:#c41e62;}.cls-20{stroke:#991b4a;}</style><linearGradient id="New_Gradient_Swatch_2" x1="34.73" y1="45.42" x2="34.73" y2="62.25" gradientUnits="userSpaceOnUse"><stop offset="0" stop-color="#fff" /><stop offset="1" stop-color="#f2f2f2" /></linearGradient><linearGradient id="New_Gradient_Swatch_2-2" x1="36.03" y1="24.32" x2="36.03" y2="7.23" xlink:href="#New_Gradient_Swatch_2" /><linearGradient id="New_Gradient_Swatch_2-3" x1="54.35" y1="35.34" x2="54.35" y2="33.11" gradientTransform="matrix(1, 0, 0, -1, -1.27, 78.62)" xlink:href="#New_Gradient_Swatch_2" /><linearGradient id="New_Gradient_Swatch_2-4" x1="48.37" y1="34.67" x2="48.37" y2="32.17" gradientTransform="matrix(1, 0, 0, -1, -1.27, 78.62)" xlink:href="#New_Gradient_Swatch_2" /><linearGradient id="New_Gradient_Swatch_2-5" x1="41.85" y1="58.56" x2="41.85" y2="56.06" gradientTransform="matrix(1, 0, 0, -1, -1.27, 78.62)" xlink:href="#New_Gradient_Swatch_2" /><linearGradient id="New_Gradient_Swatch_2-6" x1="35.02" y1="58.56" x2="35.02" y2="56.06" gradientTransform="matrix(1, 0, 0, -1, -1.27, 78.62)" xlink:href="#New_Gradient_Swatch_2" /></defs><title>D5214_mandibular_partial_denture_cast_metal_framework</title><path class="cls-3" d="M61.19,19.51a3,3,0,0,1-.16.4A3.33,3.33,0,0,1,60,21.12a4.84,4.84,0,0,1-2.26.8,6.55,6.55,0,0,1-2.75-.3l-.35-.14c-4.14,3-10.06,4.39-18.63,4.39s-14.5-1.4-18.64-4.4l-.38.15a6.55,6.55,0,0,1-2.75.3,4.84,4.84,0,0,1-2.26-.8,3.33,3.33,0,0,1-1.05-1.21,3,3,0,0,1-.16-.4l0-.14a.18.18,0,0,1,.12-.23.21.21,0,0,1,.26.11,3.62,3.62,0,0,0,.26.46,2.91,2.91,0,0,0,1,.93,4.25,4.25,0,0,0,1.94.54,6.14,6.14,0,0,0,2.33-.35,5.22,5.22,0,0,0,1-.51,4.08,4.08,0,0,0,.83-.7A3.62,3.62,0,0,0,19.39,18a2.52,2.52,0,0,0,0-1.26,3.33,3.33,0,0,0-.2-.47h0a.17.17,0,0,1,.05-.22.22.22,0,0,1,.28,0l.11.12a2.08,2.08,0,0,1,.27.36,2.51,2.51,0,0,1,.35,1.54,3.59,3.59,0,0,1-1,2,4.27,4.27,0,0,1-.79.68C22.38,23.53,28,24.78,36,24.78s13.6-1.24,17.5-3.9a4.29,4.29,0,0,1-.81-.7,3.59,3.59,0,0,1-1-2,2.51,2.51,0,0,1,.35-1.54,2.08,2.08,0,0,1,.27-.36l.11-.12a.22.22,0,0,1,.25,0,.17.17,0,0,1,.09.24h0a3.34,3.34,0,0,0-.2.47,2.52,2.52,0,0,0,0,1.26,3.62,3.62,0,0,0,.87,1.59,4.08,4.08,0,0,0,.83.7,5.22,5.22,0,0,0,1,.51,6.14,6.14,0,0,0,2.33.35,4.25,4.25,0,0,0,1.94-.54,2.91,2.91,0,0,0,1-.93,3.64,3.64,0,0,0,.26-.46.21.21,0,0,1,.26-.11.18.18,0,0,1,.12.23Z" transform="translate(-1.27 -1.27)" /><path class="cls-4" d="M61.19,19.51a3,3,0,0,1-.16.4A3.33,3.33,0,0,1,60,21.12a4.84,4.84,0,0,1-2.26.8,6.55,6.55,0,0,1-2.75-.3l-.35-.14c-4.14,3-10.06,4.39-18.63,4.39s-14.5-1.4-18.64-4.4l-.38.15a6.55,6.55,0,0,1-2.75.3,4.84,4.84,0,0,1-2.26-.8,3.33,3.33,0,0,1-1.05-1.21,3,3,0,0,1-.16-.4l0-.14a.18.18,0,0,1,.12-.23.21.21,0,0,1,.26.11,3.62,3.62,0,0,0,.26.46,2.91,2.91,0,0,0,1,.93,4.25,4.25,0,0,0,1.94.54,6.14,6.14,0,0,0,2.33-.35,5.22,5.22,0,0,0,1-.51,4.08,4.08,0,0,0,.83-.7A3.62,3.62,0,0,0,19.39,18a2.52,2.52,0,0,0,0-1.26,3.33,3.33,0,0,0-.2-.47h0a.17.17,0,0,1,.05-.22.22.22,0,0,1,.28,0l.11.12a2.08,2.08,0,0,1,.27.36,2.51,2.51,0,0,1,.35,1.54,3.59,3.59,0,0,1-1,2,4.27,4.27,0,0,1-.79.68C22.38,23.53,28,24.78,36,24.78s13.6-1.24,17.5-3.9a4.29,4.29,0,0,1-.81-.7,3.59,3.59,0,0,1-1-2,2.51,2.51,0,0,1,.35-1.54,2.08,2.08,0,0,1,.27-.36l.11-.12a.22.22,0,0,1,.25,0,.17.17,0,0,1,.09.24h0a3.34,3.34,0,0,0-.2.47,2.52,2.52,0,0,0,0,1.26,3.62,3.62,0,0,0,.87,1.59,4.08,4.08,0,0,0,.83.7,5.22,5.22,0,0,0,1,.51,6.14,6.14,0,0,0,2.33.35,4.25,4.25,0,0,0,1.94-.54,2.91,2.91,0,0,0,1-.93,3.64,3.64,0,0,0,.26-.46.21.21,0,0,1,.26-.11.18.18,0,0,1,.12.23Z" transform="translate(-1.27 -1.27)" /><path class="cls-5" d="M29,45.29V40.52A1.45,1.45,0,0,0,27.6,39H23.72a1.45,1.45,0,0,0-1.37,1.56v4.77c0,1.22,1.71,2.49,3.33,2.49S29,46.5,29,45.29Z" transform="translate(-1.27 -1.27)" /><path class="cls-5" d="M22.35,44.63V40.36A1.3,1.3,0,0,0,21.13,39H17.65a1.3,1.3,0,0,0-1.22,1.4v4.27c0,1.09,1.53,2.23,3,2.23S22.35,45.72,22.35,44.63Z" transform="translate(-1.27 -1.27)" /><path class="cls-5" d="M16.43,44.19V40.25A1.22,1.22,0,0,0,15.26,39H12a1.22,1.22,0,0,0-1.16,1.29v3.94c0,1,1.46,2.06,2.84,2.06S16.43,45.2,16.43,44.19Z" transform="translate(-1.27 -1.27)" /><path class="cls-5" d="M43,45.29V40.52A1.45,1.45,0,0,1,44.4,39h3.88a1.45,1.45,0,0,1,1.37,1.56v4.77c0,1.22-1.71,2.49-3.33,2.49S43,46.5,43,45.29Z" transform="translate(-1.27 -1.27)" /><path class="cls-5" d="M49.65,44.63V40.36A1.3,1.3,0,0,1,50.87,39h3.48a1.3,1.3,0,0,1,1.22,1.4v4.27c0,1.09-1.53,2.23-3,2.23S49.65,45.72,49.65,44.63Z" transform="translate(-1.27 -1.27)" /><path class="cls-5" d="M55.57,44.19V40.25A1.22,1.22,0,0,1,56.74,39H60a1.22,1.22,0,0,1,1.16,1.29v3.94c0,1-1.46,2.06-2.84,2.06S55.57,45.2,55.57,44.19Z" transform="translate(-1.27 -1.27)" /><polygon class="cls-6" points="10.96 37.62 10.96 44.57 10.47 44.34 9.86 43.09 9.86 38.54 10.47 37.91 10.96 37.62" /><polygon class="cls-6" points="16.56 37.62 16.56 44.57 16.07 44.34 15.46 43.09 15.46 38.54 16.07 37.91 16.56 37.62" /><polygon class="cls-6" points="22.53 37.62 22.53 45.9 22.04 45.67 21.42 44.42 21.42 38.54 22.04 37.91 22.53 37.62" /><polygon class="cls-7" points="51.67 45.76 51.67 37.84 54.46 37.72 54.49 43.66 53.06 45.16 51.67 45.76" /><polygon class="cls-8" points="46.02 46.73 46.02 37.72 48.14 37.72 48.17 44.76 46.74 46.25 46.02 46.73" /><path class="cls-9" d="M58.19,39.34v7.21a2.71,2.71,0,0,0,1.9-.57,2.51,2.51,0,0,0,1.28-1.86l-.23-4.78Z" transform="translate(-1.27 -1.27)" /><path class="cls-10" d="M29,45.29V40.52A1.45,1.45,0,0,0,27.6,39H23.72a1.45,1.45,0,0,0-1.37,1.56v4.77c0,1.22,1.71,2.49,3.33,2.49S29,46.5,29,45.29Z" transform="translate(-1.27 -1.27)" /><path class="cls-10" d="M22.35,44.63V40.36A1.3,1.3,0,0,0,21.13,39H17.65a1.3,1.3,0,0,0-1.22,1.4v4.27c0,1.09,1.53,2.23,3,2.23S22.35,45.72,22.35,44.63Z" transform="translate(-1.27 -1.27)" /><path class="cls-10" d="M16.43,44.19V40.25A1.22,1.22,0,0,0,15.26,39H12a1.22,1.22,0,0,0-1.16,1.29v3.94c0,1,1.46,2.06,2.84,2.06S16.43,45.2,16.43,44.19Z" transform="translate(-1.27 -1.27)" /><path class="cls-10" d="M43,45.29V40.52A1.45,1.45,0,0,1,44.4,39h3.88a1.45,1.45,0,0,1,1.37,1.56v4.77c0,1.22-1.71,2.49-3.33,2.49S43,46.5,43,45.29Z" transform="translate(-1.27 -1.27)" /><path class="cls-10" d="M49.65,44.63V40.36A1.3,1.3,0,0,1,50.87,39h3.48a1.3,1.3,0,0,1,1.22,1.4v4.27c0,1.09-1.53,2.23-3,2.23S49.65,45.72,49.65,44.63Z" transform="translate(-1.27 -1.27)" /><path class="cls-10" d="M55.57,44.19V40.25A1.22,1.22,0,0,1,56.74,39H60a1.22,1.22,0,0,1,1.16,1.29v3.94c0,1-1.46,2.06-2.84,2.06S55.57,45.2,55.57,44.19Z" transform="translate(-1.27 -1.27)" /><path class="cls-11" d="M62.36,47.28c-.49-1.37-.87-2.38-1.15-3.1h0c0,1-1.46,2.06-2.84,2.06s-2.8-1.06-2.8-2.06c0-.24,0,.15,0,.44,0,1.09-1.53,2.23-3,2.23s-2.94-1.14-2.94-2.23c0-.29,0,.29,0,.66,0,1.22-1.71,2.49-3.33,2.49S43,46.5,43,45.29c0-.37,0,0,0,.4,0,1.29-1.82,2.65-3.54,2.65S36,47,36,45.68c0,1.29-1.77,2.65-3.49,2.65S29,47,29,45.68c0-.42,0-.77,0-.4,0,1.22-1.67,2.49-3.28,2.49s-3.33-1.28-3.33-2.49c0-.37,0-.95,0-.66,0,1.09-1.49,2.23-2.94,2.23s-3-1.14-3-2.23c0-.29,0-.68,0-.44,0,1-1.42,2.06-2.8,2.06s-2.84-1.06-2.84-2.06h0c-.28.72-.66,1.72-1.15,3.1C7.82,52.39,15.21,57,36,57.14,56.79,57,64.18,52.39,62.36,47.28Z" transform="translate(-1.27 -1.27)" /><path class="cls-12" d="M12.09,46a8.61,8.61,0,0,0-.81,3.75,7,7,0,0,0,1.39,3.17l-2.6-1.85L9,48.3l1.73-3.81Z" transform="translate(-1.27 -1.27)" /><path class="cls-13" d="M61.38,44.13a7.65,7.65,0,0,1,1.38,5.5c-.5,3.13-4.12,4-6.5,4.88a59.36,59.36,0,0,1-7.37,1.75s5.71-1.51,9.26-4.85c1.37-1.29-.2-5.45-.2-5.45a1.94,1.94,0,0,0,2.22-.07A2.34,2.34,0,0,0,61.38,44.13Z" transform="translate(-1.27 -1.27)" /><path class="cls-14" d="M62.36,47.28c-.49-1.37-.87-2.38-1.15-3.1h0c0,1-1.46,2.06-2.84,2.06s-2.8-1.06-2.8-2.06c0-.24,0,.15,0,.44,0,1.09-1.53,2.23-3,2.23s-2.94-1.14-2.94-2.23c0-.29,0,.29,0,.66,0,1.22-1.71,2.49-3.33,2.49S43,46.5,43,45.29c0-.37,0,0,0,.4,0,1.29-1.82,2.65-3.54,2.65S36,47,36,45.68c0,1.29-1.77,2.65-3.49,2.65S29,47,29,45.68c0-.42,0-.77,0-.4,0,1.22-1.67,2.49-3.28,2.49s-3.33-1.28-3.33-2.49c0-.37,0-.95,0-.66,0,1.09-1.49,2.23-2.94,2.23s-3-1.14-3-2.23c0-.29,0-.68,0-.44,0,1-1.42,2.06-2.8,2.06s-2.84-1.06-2.84-2.06h0c-.28.72-.66,1.72-1.15,3.1C7.82,52.39,15.21,57,36,57.14,56.79,57,64.18,52.39,62.36,47.28Z" transform="translate(-1.27 -1.27)" /><line class="cls-15" x1="34.73" y1="25.66" x2="34.73" y2="39.64" /><polygon class="cls-16" points="31.05 36.66 31.71 36.05 34.73 39.3 37.75 36.05 38.41 36.66 34.73 40.62 31.05 36.66" /><path class="cls-5" d="M36,21.79V16.73a1.54,1.54,0,0,0-1.45-1.66H30.42A1.54,1.54,0,0,0,29,16.73v5.07c0,1.29,1.82,2.65,3.54,2.65S36,23.08,36,21.79Z" transform="translate(-1.27 -1.27)" /><path class="cls-5" d="M36,21.79V16.73a1.54,1.54,0,0,1,1.45-1.66h4.13A1.54,1.54,0,0,1,43,16.73v5.07c0,1.29-1.82,2.65-3.54,2.65S36,23.08,36,21.79Z" transform="translate(-1.27 -1.27)" /><polygon class="cls-6" points="29.12 13.73 29.12 22.01 28.63 21.78 28.02 20.53 28.02 14.65 28.63 14.02 29.12 13.73" /><polygon class="cls-17" points="39.81 22.84 39.81 13.83 41.32 13.83 41.35 20.86 40.71 22.09 39.81 22.84" /><polygon class="cls-18" points="33.17 22.84 33.17 13.83 34.31 13.83 34.34 20.86 33.7 22.09 33.17 22.84" /><path class="cls-10" d="M36,21.79V16.73a1.54,1.54,0,0,0-1.45-1.66H30.42A1.54,1.54,0,0,0,29,16.73v5.07c0,1.29,1.82,2.65,3.54,2.65S36,23.08,36,21.79Z" transform="translate(-1.27 -1.27)" /><path class="cls-10" d="M36,21.79V16.73a1.54,1.54,0,0,1,1.45-1.66h4.13A1.54,1.54,0,0,1,43,16.73v5.07c0,1.29-1.82,2.65-3.54,2.65S36,23.08,36,21.79Z" transform="translate(-1.27 -1.27)" /><path class="cls-19" d="M43,21.4c0-.37,0,0,0,.4,0,1.29-1.82,2.65-3.54,2.65S36,23.08,36,21.79c0,1.29-1.77,2.65-3.49,2.65S29,23.08,29,21.79c0-.42,0-.77,0-.4,0,0-8.24,9.51-3.67,7.09,4.72-2.5,6,4.38,10.7-1.26,4.82,5.75,5.51-1.4,10.71,1.27C51.32,30.86,43,21.4,43,21.4Z" transform="translate(-1.27 -1.27)" /><path class="cls-13" d="M43.17,21.76a61.12,61.12,0,0,1,4.37,5.7c1.17,1.88-.59.68-2,.58-1.21-.08-3,.48-3,.17a9.22,9.22,0,0,0-1.83-3.92s.87.65,1.8-.5A2.34,2.34,0,0,0,43.17,21.76Z" transform="translate(-1.27 -1.27)" /><path class="cls-12" d="M29.79,23.33s-2.4,2.42-2.64,4.08c-.16,1.08-2.53,1.42-2.53,1.42l-.75-.41,2.06-3.49,2.51-2.88Z" transform="translate(-1.27 -1.27)" /><path class="cls-20" d="M43,21.4c0-.37,0,0,0,.4,0,1.29-1.82,2.65-3.54,2.65S36,23.08,36,21.79c0,1.29-1.77,2.65-3.49,2.65S29,23.08,29,21.79c0-.42,0-.77,0-.4,0,0-8.24,9.51-3.67,7.09,4.72-2.5,6,4.38,10.7-1.26,4.82,5.75,5.51-1.4,10.71,1.27C51.32,30.86,43,21.4,43,21.4Z" transform="translate(-1.27 -1.27)" /></svg>