<svg id="D5226_-_mandibular_partial_denture_flexible_base" data-name="D5226 - mandibular partial denture, flexible base" xmlns="http://www.w3.org/2000/svg" xmlns:xlink="http://www.w3.org/1999/xlink" viewBox="0 0 69.46 69.46"><defs><style>.cls-1{stroke:#dcddde;stroke-width:1.06px;fill:url(#New_Gradient_Swatch_2);}.cls-1,.cls-8{stroke-miterlimit:10;}.cls-2{fill:url(#New_Gradient_Swatch_2-2);}.cls-3{fill:#eaeeef;}.cls-4{fill:#d8dee0;}.cls-5{fill:url(#New_Gradient_Swatch_2-3);}.cls-6{fill:url(#New_Gradient_Swatch_2-4);}.cls-11,.cls-7{fill:#fff;}.cls-12,.cls-13,.cls-18,.cls-8{fill:none;}.cls-8{stroke:#b1bfc4;}.cls-9{fill:#dd7b7f;}.cls-10{fill:#181a1d;opacity:0.07;}.cls-11{opacity:0.3;}.cls-12{stroke:#b94656;}.cls-12,.cls-13,.cls-18{stroke-linecap:round;stroke-linejoin:round;}.cls-12,.cls-18{stroke-width:1.2px;}.cls-13{stroke:#ef4e81;stroke-width:0.9px;}.cls-14{fill:#ef4e81;}.cls-15{fill:url(#New_Gradient_Swatch_2-5);}.cls-16{fill:url(#New_Gradient_Swatch_2-6);}.cls-17{fill:#c41e62;}.cls-18{stroke:#991b4a;}</style><linearGradient id="New_Gradient_Swatch_2" x1="34.73" y1="45.42" x2="34.73" y2="62.25" gradientUnits="userSpaceOnUse"><stop offset="0" stop-color="#fff" /><stop offset="1" stop-color="#f2f2f2" /></linearGradient><linearGradient id="New_Gradient_Swatch_2-2" x1="36.03" y1="24.32" x2="36.03" y2="7.23" xlink:href="#New_Gradient_Swatch_2" /><linearGradient id="New_Gradient_Swatch_2-3" x1="54.35" y1="35.34" x2="54.35" y2="33.11" gradientTransform="matrix(1, 0, 0, -1, -1.27, 78.62)" xlink:href="#New_Gradient_Swatch_2" /><linearGradient id="New_Gradient_Swatch_2-4" x1="48.37" y1="34.67" x2="48.37" y2="32.17" gradientTransform="matrix(1, 0, 0, -1, -1.27, 78.62)" xlink:href="#New_Gradient_Swatch_2" /><linearGradient id="New_Gradient_Swatch_2-5" x1="41.85" y1="58.56" x2="41.85" y2="56.06" gradientTransform="matrix(1, 0, 0, -1, -1.27, 78.62)" xlink:href="#New_Gradient_Swatch_2" /><linearGradient id="New_Gradient_Swatch_2-6" x1="35.02" y1="58.56" x2="35.02" y2="56.06" gradientTransform="matrix(1, 0, 0, -1, -1.27, 78.62)" xlink:href="#New_Gradient_Swatch_2" /></defs><title>D5226_mandibular_partial_denture_flexible_base</title><path class="cls-3" d="M29,45.29V40.52A1.45,1.45,0,0,0,27.6,39H23.72a1.45,1.45,0,0,0-1.37,1.56v4.77c0,1.22,1.71,2.49,3.33,2.49S29,46.5,29,45.29Z" transform="translate(-1.27 -1.27)" /><path class="cls-3" d="M22.35,44.63V40.36A1.3,1.3,0,0,0,21.13,39H17.65a1.3,1.3,0,0,0-1.22,1.4v4.27c0,1.09,1.53,2.23,3,2.23S22.35,45.72,22.35,44.63Z" transform="translate(-1.27 -1.27)" /><path class="cls-3" d="M16.43,44.19V40.25A1.22,1.22,0,0,0,15.26,39H12a1.22,1.22,0,0,0-1.16,1.29v3.94c0,1,1.46,2.06,2.84,2.06S16.43,45.2,16.43,44.19Z" transform="translate(-1.27 -1.27)" /><path class="cls-3" d="M43,45.29V40.52A1.45,1.45,0,0,1,44.4,39h3.88a1.45,1.45,0,0,1,1.37,1.56v4.77c0,1.22-1.71,2.49-3.33,2.49S43,46.5,43,45.29Z" transform="translate(-1.27 -1.27)" /><path class="cls-3" d="M49.65,44.63V40.36A1.3,1.3,0,0,1,50.87,39h3.48a1.3,1.3,0,0,1,1.22,1.4v4.27c0,1.09-1.53,2.23-3,2.23S49.65,45.72,49.65,44.63Z" transform="translate(-1.27 -1.27)" /><path class="cls-3" d="M55.57,44.19V40.25A1.22,1.22,0,0,1,56.74,39H60a1.22,1.22,0,0,1,1.16,1.29v3.94c0,1-1.46,2.06-2.84,2.06S55.57,45.2,55.57,44.19Z" transform="translate(-1.27 -1.27)" /><polygon class="cls-4" points="10.96 37.62 10.96 44.57 10.47 44.34 9.86 43.09 9.86 38.54 10.47 37.91 10.96 37.62" /><polygon class="cls-4" points="16.56 37.62 16.56 44.57 16.07 44.34 15.46 43.09 15.46 38.54 16.07 37.91 16.56 37.62" /><polygon class="cls-4" points="22.53 37.62 22.53 45.9 22.04 45.67 21.42 44.42 21.42 38.54 22.04 37.91 22.53 37.62" /><polygon class="cls-5" points="51.67 45.76 51.67 37.84 54.46 37.72 54.49 43.66 53.06 45.16 51.67 45.76" /><polygon class="cls-6" points="46.02 46.73 46.02 37.72 48.14 37.72 48.17 44.76 46.74 46.25 46.02 46.73" /><path class="cls-7" d="M58.19,39.34v7.21a2.71,2.71,0,0,0,1.9-.57,2.51,2.51,0,0,0,1.28-1.86l-.23-4.78Z" transform="translate(-1.27 -1.27)" /><path class="cls-8" d="M29,45.29V40.52A1.45,1.45,0,0,0,27.6,39H23.72a1.45,1.45,0,0,0-1.37,1.56v4.77c0,1.22,1.71,2.49,3.33,2.49S29,46.5,29,45.29Z" transform="translate(-1.27 -1.27)" /><path class="cls-8" d="M22.35,44.63V40.36A1.3,1.3,0,0,0,21.13,39H17.65a1.3,1.3,0,0,0-1.22,1.4v4.27c0,1.09,1.53,2.23,3,2.23S22.35,45.72,22.35,44.63Z" transform="translate(-1.27 -1.27)" /><path class="cls-8" d="M16.43,44.19V40.25A1.22,1.22,0,0,0,15.26,39H12a1.22,1.22,0,0,0-1.16,1.29v3.94c0,1,1.46,2.06,2.84,2.06S16.43,45.2,16.43,44.19Z" transform="translate(-1.27 -1.27)" /><path class="cls-8" d="M43,45.29V40.52A1.45,1.45,0,0,1,44.4,39h3.88a1.45,1.45,0,0,1,1.37,1.56v4.77c0,1.22-1.71,2.49-3.33,2.49S43,46.5,43,45.29Z" transform="translate(-1.27 -1.27)" /><path class="cls-8" d="M49.65,44.63V40.36A1.3,1.3,0,0,1,50.87,39h3.48a1.3,1.3,0,0,1,1.22,1.4v4.27c0,1.09-1.53,2.23-3,2.23S49.65,45.72,49.65,44.63Z" transform="translate(-1.27 -1.27)" /><path class="cls-8" d="M55.57,44.19V40.25A1.22,1.22,0,0,1,56.74,39H60a1.22,1.22,0,0,1,1.16,1.29v3.94c0,1-1.46,2.06-2.84,2.06S55.57,45.2,55.57,44.19Z" transform="translate(-1.27 -1.27)" /><path class="cls-9" d="M62.36,47.28c-.49-1.37-.87-2.38-1.15-3.1h0c0,1-1.46,2.06-2.84,2.06s-2.8-1.06-2.8-2.06c0-.24,0,.15,0,.44,0,1.09-1.53,2.23-3,2.23s-2.94-1.14-2.94-2.23c0-.29,0,.29,0,.66,0,1.22-1.71,2.49-3.33,2.49S43,46.5,43,45.29c0-.37,0,0,0,.4,0,1.29-1.82,2.65-3.54,2.65S36,47,36,45.68c0,1.29-1.77,2.65-3.49,2.65S29,47,29,45.68c0-.42,0-.77,0-.4,0,1.22-1.67,2.49-3.28,2.49s-3.33-1.28-3.33-2.49c0-.37,0-.95,0-.66,0,1.09-1.49,2.23-2.94,2.23s-3-1.14-3-2.23c0-.29,0-.68,0-.44,0,1-1.42,2.06-2.8,2.06s-2.84-1.06-2.84-2.06h0c-.28.72-.66,1.72-1.15,3.1C7.82,52.39,15.21,57,36,57.14,56.79,57,64.18,52.39,62.36,47.28Z" transform="translate(-1.27 -1.27)" /><path class="cls-10" d="M12.09,46a8.61,8.61,0,0,0-.81,3.75,7,7,0,0,0,1.39,3.17l-2.6-1.85L9,48.3l1.73-3.81Z" transform="translate(-1.27 -1.27)" /><path class="cls-11" d="M61.38,44.13a7.65,7.65,0,0,1,1.38,5.5c-.5,3.13-4.12,4-6.5,4.88a59.36,59.36,0,0,1-7.37,1.75s5.71-1.51,9.26-4.85c1.37-1.29-.2-5.45-.2-5.45a1.94,1.94,0,0,0,2.22-.07A2.34,2.34,0,0,0,61.38,44.13Z" transform="translate(-1.27 -1.27)" /><path class="cls-12" d="M62.36,47.28c-.49-1.37-.87-2.38-1.15-3.1h0c0,1-1.46,2.06-2.84,2.06s-2.8-1.06-2.8-2.06c0-.24,0,.15,0,.44,0,1.09-1.53,2.23-3,2.23s-2.94-1.14-2.94-2.23c0-.29,0,.29,0,.66,0,1.22-1.71,2.49-3.33,2.49S43,46.5,43,45.29c0-.37,0,0,0,.4,0,1.29-1.82,2.65-3.54,2.65S36,47,36,45.68c0,1.29-1.77,2.65-3.49,2.65S29,47,29,45.68c0-.42,0-.77,0-.4,0,1.22-1.67,2.49-3.28,2.49s-3.33-1.28-3.33-2.49c0-.37,0-.95,0-.66,0,1.09-1.49,2.23-2.94,2.23s-3-1.14-3-2.23c0-.29,0-.68,0-.44,0,1-1.42,2.06-2.8,2.06s-2.84-1.06-2.84-2.06h0c-.28.72-.66,1.72-1.15,3.1C7.82,52.39,15.21,57,36,57.14,56.79,57,64.18,52.39,62.36,47.28Z" transform="translate(-1.27 -1.27)" /><line class="cls-13" x1="34.73" y1="25.66" x2="34.73" y2="39.64" /><polygon class="cls-14" points="31.05 36.66 31.71 36.05 34.73 39.3 37.75 36.05 38.41 36.66 34.73 40.62 31.05 36.66" /><path class="cls-3" d="M36,21.79V16.73a1.54,1.54,0,0,0-1.45-1.66H30.42A1.54,1.54,0,0,0,29,16.73v5.07c0,1.29,1.82,2.65,3.54,2.65S36,23.08,36,21.79Z" transform="translate(-1.27 -1.27)" /><path class="cls-3" d="M36,21.79V16.73a1.54,1.54,0,0,1,1.45-1.66h4.13A1.54,1.54,0,0,1,43,16.73v5.07c0,1.29-1.82,2.65-3.54,2.65S36,23.08,36,21.79Z" transform="translate(-1.27 -1.27)" /><polygon class="cls-4" points="29.12 13.73 29.12 22.01 28.63 21.78 28.02 20.53 28.02 14.65 28.63 14.02 29.12 13.73" /><polygon class="cls-15" points="39.81 22.84 39.81 13.83 41.32 13.83 41.35 20.86 40.71 22.09 39.81 22.84" /><polygon class="cls-16" points="33.17 22.84 33.17 13.83 34.31 13.83 34.34 20.86 33.7 22.09 33.17 22.84" /><path class="cls-8" d="M36,21.79V16.73a1.54,1.54,0,0,0-1.45-1.66H30.42A1.54,1.54,0,0,0,29,16.73v5.07c0,1.29,1.82,2.65,3.54,2.65S36,23.08,36,21.79Z" transform="translate(-1.27 -1.27)" /><path class="cls-8" d="M36,21.79V16.73a1.54,1.54,0,0,1,1.45-1.66h4.13A1.54,1.54,0,0,1,43,16.73v5.07c0,1.29-1.82,2.65-3.54,2.65S36,23.08,36,21.79Z" transform="translate(-1.27 -1.27)" /><path class="cls-17" d="M36,21.79c0,1.29,1.77,2.65,3.49,2.65S43,23.08,43,21.79c0-.22,0-.33,0-.42h.23c-.32,1.69.28,4,2.36,4.19s3.51-1.4,3.86-3.33a2.54,2.54,0,0,0-.19-1.51l.83,0a2.9,2.9,0,0,0-.22,1.74A2.87,2.87,0,0,0,52.77,25c2.09,0,3-1.62,3.13-3.49a3.73,3.73,0,0,0-.13-1.15l.57.09c0,.08-.06.14-.08.22a2.87,2.87,0,0,0,2.23,3.76,3.06,3.06,0,0,0,3.39-2.82c1.11,0,3.39,3,1,4.22-3.79,1.9-17.83,6.85-26.91,3.4-9.08,3.45-23.12-1.51-26.91-3.4-2.37-1.18-.09-4.22,1-4.22a3.06,3.06,0,0,0,3.39,2.82,2.87,2.87,0,0,0,2.23-3.76c0-.08-.05-.15-.08-.22l.57-.09a3.73,3.73,0,0,0-.13,1.15c.09,1.87,1,3.54,3.13,3.49a2.87,2.87,0,0,0,2.88-2.54,2.9,2.9,0,0,0-.22-1.74l.83,0a2.54,2.54,0,0,0-.19,1.51c.35,1.93,1.64,3.54,3.86,3.33s2.68-2.5,2.36-4.19H29c0,.09,0,.2,0,.42,0,1.29,1.82,2.65,3.54,2.65S36,23.08,36,21.79Z" transform="translate(-1.27 -1.27)" /><path class="cls-11" d="M62.37,21.66s.13.13,1.17,1.43c1.22,1.53.45,2.48-.84,3-2.37.9-2.77,1-2.84.68a4.3,4.3,0,0,0-1.53-2.61s2,.33,2.8-.91A6.71,6.71,0,0,1,62.37,21.66Z" transform="translate(-1.27 -1.27)" /><path class="cls-10" d="M10.8,23a5,5,0,0,0-.54,2.23c-.15,1.68-1.6.25-1.6.25l-.65-1,1-1.68,1.06-1.12Z" transform="translate(-1.27 -1.27)" /><path class="cls-18" d="M36,21.79c0,1.29,1.77,2.65,3.49,2.65S43,23.08,43,21.79c0-.22,0-.33,0-.42h.23c-.32,1.69.28,4,2.36,4.19s3.51-1.4,3.86-3.33a2.54,2.54,0,0,0-.19-1.51l.83,0a2.9,2.9,0,0,0-.22,1.74A2.87,2.87,0,0,0,52.77,25c2.09,0,3-1.62,3.13-3.49a3.73,3.73,0,0,0-.13-1.15l.57.09c0,.08-.06.14-.08.22a2.87,2.87,0,0,0,2.23,3.76,3.06,3.06,0,0,0,3.39-2.82c1.11,0,3.39,3,1,4.22-3.79,1.9-17.83,6.85-26.91,3.4-9.08,3.45-23.12-1.51-26.91-3.4-2.37-1.18-.09-4.22,1-4.22a3.06,3.06,0,0,0,3.39,2.82,2.87,2.87,0,0,0,2.23-3.76c0-.08-.05-.15-.08-.22l.57-.09a3.73,3.73,0,0,0-.13,1.15c.09,1.87,1,3.54,3.13,3.49a2.87,2.87,0,0,0,2.88-2.54,2.9,2.9,0,0,0-.22-1.74l.83,0a2.54,2.54,0,0,0-.19,1.51c.35,1.93,1.64,3.54,3.86,3.33s2.68-2.5,2.36-4.19H29c0,.09,0,.2,0,.42,0,1.29,1.82,2.65,3.54,2.65S36,23.08,36,21.79Z" transform="translate(-1.27 -1.27)" /></svg>