<svg xmlns="http://www.w3.org/2000/svg" xmlns:xlink="http://www.w3.org/1999/xlink" viewBox="0 0 69.46 69.46"><defs><style>.cls-1{isolation:isolate;}.cls-2{stroke:#dcddde;stroke-width:1.06px;fill:url(#New_Gradient_Swatch_2);}.cls-2,.cls-9{stroke-miterlimit:10;}.cls-3{fill:url(#New_Gradient_Swatch_2-2);}.cls-4{fill:#c41e62;}.cls-5{fill:#eaeeef;}.cls-6{fill:#d8dee0;}.cls-7{fill:url(#New_Gradient_Swatch_2-3);}.cls-12,.cls-8{fill:#fff;}.cls-13,.cls-14,.cls-18,.cls-9{fill:none;}.cls-9{stroke:#b1bfc4;}.cls-10{fill:#dd7b7f;}.cls-11{fill:#181a1d;opacity:0.07;mix-blend-mode:multiply;}.cls-12{opacity:0.3;}.cls-13{stroke:#b94656;}.cls-13,.cls-14,.cls-18{stroke-linecap:round;stroke-linejoin:round;}.cls-13,.cls-18{stroke-width:1.2px;}.cls-14{stroke:#ef4e81;stroke-width:0.9px;}.cls-15{fill:#ef4e81;}.cls-16{fill:url(#New_Gradient_Swatch_2-4);}.cls-17{fill:url(#New_Gradient_Swatch_2-5);}.cls-18{stroke:#991b4a;}</style><linearGradient id="New_Gradient_Swatch_2" x1="34.73" y1="45.42" x2="34.73" y2="62.25" gradientUnits="userSpaceOnUse"><stop offset="0" stop-color="#fff" /><stop offset="1" stop-color="#f2f2f2" /></linearGradient><linearGradient id="New_Gradient_Swatch_2-2" x1="36.03" y1="24.32" x2="36.03" y2="7.23" xlink:href="#New_Gradient_Swatch_2" /><linearGradient id="New_Gradient_Swatch_2-3" x1="51.47" y1="26.22" x2="51.47" y2="23.35" xlink:href="#New_Gradient_Swatch_2" /><linearGradient id="New_Gradient_Swatch_2-4" x1="43.49" y1="48.13" x2="43.49" y2="44.88" xlink:href="#New_Gradient_Swatch_2" /><linearGradient id="New_Gradient_Swatch_2-5" x1="33.8" y1="48.13" x2="33.8" y2="44.88" xlink:href="#New_Gradient_Swatch_2" /></defs><title>D5225_maxillary_partial_dental_flexible_base</title><g class="cls-1"><g id="D5225_-_maxillary_partial_dental_flexible_base" data-name="D5225 - maxillary partial dental, flexible base"><path class="cls-4" d="M62.09,46.4C60,44.79,42.88,35.35,36,42.62c-7.34-7.34-24.09,2.73-25.68,3.78-2.61,1.71-1.7,4.11-.45,4.55a3.87,3.87,0,1,1,7.4,1.92q.77,0,1.54,0a4,4,0,0,1-1.17-2.19,4.07,4.07,0,0,1,8-1.35,3.94,3.94,0,0,1,0,1.14,1.43,1.43,0,0,0,.15-.58c0-.25,0-1,0-1.2,0-1.76,2.56-3.6,5-3.6S36,46.9,36,48.66c0-1.76,2.63-3.6,5.11-3.6s5,1.85,5,3.6c0,.16,0,1,0,1.22a1.56,1.56,0,0,0,.15.57,3.94,3.94,0,0,1,0-1.15,4.07,4.07,0,0,1,8,1.35,4,4,0,0,1-1,2.06c.45,0,.9,0,1.35,0A3.87,3.87,0,1,1,62.14,51C63.54,50.79,64.63,48.38,62.09,46.4Z" transform="translate(-1.27 -1.27)" /><path class="cls-5" d="M17.82,27v6a1.81,1.81,0,0,0,1.66,2h4.71a1.81,1.81,0,0,0,1.66-2V27c0-1.53-2.08-3.14-4-3.14S17.82,25.44,17.82,27Z" transform="translate(-1.27 -1.27)" /><path class="cls-5" d="M10.79,28.23v5.07A1.54,1.54,0,0,0,12.24,35h4.13a1.54,1.54,0,0,0,1.45-1.66V28.23c0-1.29-1.82-2.65-3.54-2.65S10.79,26.94,10.79,28.23Z" transform="translate(-1.27 -1.27)" /><path class="cls-5" d="M54.18,27v6a1.81,1.81,0,0,1-1.66,2H47.81a1.81,1.81,0,0,1-1.66-2V27c0-1.53,2.08-3.14,4-3.14S54.18,25.44,54.18,27Z" transform="translate(-1.27 -1.27)" /><path class="cls-5" d="M61.21,28.23v5.07A1.54,1.54,0,0,1,59.76,35H55.64a1.54,1.54,0,0,1-1.45-1.66V28.23c0-1.29,1.82-2.65,3.54-2.65S61.21,26.94,61.21,28.23Z" transform="translate(-1.27 -1.27)" /><polygon class="cls-6" points="10.93 25.31 10.93 33.5 10.07 33.27 9.46 32.02 9.46 26.23 10.07 25.6 10.93 25.31" /><polygon class="cls-6" points="17.95 23.55 17.95 33.5 17.08 33.27 16.47 32.02 16.47 24.48 17.08 23.84 17.95 23.55" /><polygon class="cls-7" points="50.11 23.02 50.11 33.38 52.8 33.38 52.84 25 51.41 23.5 50.11 23.02" /><path class="cls-8" d="M61.14,34.9l.11-6.9s.21-1.09-1.2-2a4,4,0,0,0-2.61-.67v9.57Z" transform="translate(-1.27 -1.27)" /><path class="cls-9" d="M17.82,27v6a1.81,1.81,0,0,0,1.66,2h4.71a1.81,1.81,0,0,0,1.66-2V27c0-1.53-2.08-3.14-4-3.14S17.82,25.44,17.82,27Z" transform="translate(-1.27 -1.27)" /><path class="cls-9" d="M10.79,28.23v5.07A1.54,1.54,0,0,0,12.24,35h4.13a1.54,1.54,0,0,0,1.45-1.66V28.23c0-1.29-1.82-2.65-3.54-2.65S10.79,26.94,10.79,28.23Z" transform="translate(-1.27 -1.27)" /><path class="cls-9" d="M54.18,27v6a1.81,1.81,0,0,1-1.66,2H47.81a1.81,1.81,0,0,1-1.66-2V27c0-1.53,2.08-3.14,4-3.14S54.18,25.44,54.18,27Z" transform="translate(-1.27 -1.27)" /><path class="cls-9" d="M61.21,28.23v5.07A1.54,1.54,0,0,1,59.76,35H55.64a1.54,1.54,0,0,1-1.45-1.66V28.23c0-1.29,1.82-2.65,3.54-2.65S61.21,26.94,61.21,28.23Z" transform="translate(-1.27 -1.27)" /><path class="cls-10" d="M63.17,22.33C59.17,18.83,50,13,36,13S12.83,18.83,8.83,22.33c-2.9,2.54,2,6.09,2,5.9,0-1.29,1.77-2.65,3.49-2.65s3.54,1.36,3.54,2.65c0,.22,0-.88,0-1.26,0-1.53,2-3.14,4-3.14s4,1.61,4,3.14V25.8c0-1.76,2.56-3.6,5-3.6S36,24,36,25.8c0-1.76,2.63-3.6,5.11-3.6s5,1.85,5,3.6V27c0-1.53,2.08-3.14,4-3.14s4,1.61,4,3.14c0,.38,0,1.47,0,1.26,0-1.29,1.82-2.65,3.54-2.65s3.49,1.36,3.49,2.65C61.21,28.42,66.07,24.87,63.17,22.33Z" transform="translate(-1.27 -1.27)" /><path class="cls-11" d="M10.46,21.46s-1,.22-.64,2.42a6.94,6.94,0,0,0,1.77,2.56l-1,1.31L8.06,25.4l0-2.53Z" transform="translate(-1.27 -1.27)" /><path class="cls-12" d="M61.25,28s3-1.87,3-4.12S60.63,20,58.38,18.75a92.64,92.64,0,0,0-9.58-3.66s6.74,4,8.86,5.73-.27,4.5-.27,4.5,2.25.23,2.93.92A4.35,4.35,0,0,1,61.25,28Z" transform="translate(-1.27 -1.27)" /><path class="cls-13" d="M63.17,22.33C59.17,18.83,50,13,36,13S12.83,18.83,8.83,22.33c-2.9,2.54,2,6.09,2,5.9,0-1.29,1.77-2.65,3.49-2.65s3.54,1.36,3.54,2.65c0,.22,0-.88,0-1.26,0-1.53,2-3.14,4-3.14s4,1.61,4,3.14V25.8c0-1.76,2.56-3.6,5-3.6S36,24,36,25.8c0-1.76,2.63-3.6,5.11-3.6s5,1.85,5,3.6V27c0-1.53,2.08-3.14,4-3.14s4,1.61,4,3.14c0,.38,0,1.47,0,1.26,0-1.29,1.82-2.65,3.54-2.65s3.49,1.36,3.49,2.65C61.21,28.42,66.07,24.87,63.17,22.33Z" transform="translate(-1.27 -1.27)" /><line class="cls-14" x1="34.73" y1="41.18" x2="34.73" y2="29.21" /><polygon class="cls-15" points="38.41 32.19 37.75 32.8 34.73 29.55 31.71 32.8 31.05 32.19 34.73 28.23 38.41 32.19" /><path class="cls-5" d="M25.85,48.66v6.89a2.15,2.15,0,0,0,2.1,2.26h6A2.15,2.15,0,0,0,36,55.55V48.66c0-1.76-2.63-3.6-5.11-3.6S25.85,46.9,25.85,48.66Z" transform="translate(-1.27 -1.27)" /><path class="cls-5" d="M46.15,48.66v6.89a2.15,2.15,0,0,1-2.1,2.26h-6A2.15,2.15,0,0,1,36,55.55V48.66c0-1.76,2.63-3.6,5.11-3.6S46.15,46.9,46.15,48.66Z" transform="translate(-1.27 -1.27)" /><polygon class="cls-6" points="26.01 45.06 26.01 56.36 25.14 56.13 24.53 54.87 24.53 45.98 25.14 45.35 26.01 45.06" /><polygon class="cls-16" points="42.47 44.51 42.47 56.23 44.49 56.23 44.52 47.85 43.91 45.4 42.47 44.51" /><polygon class="cls-17" points="33.03 44.51 33.03 56.23 34.54 56.23 34.57 47.85 33.96 45.4 33.03 44.51" /><path class="cls-9" d="M25.85,48.66v6.89a2.15,2.15,0,0,0,2.1,2.26h6A2.15,2.15,0,0,0,36,55.55V48.66c0-1.76-2.63-3.6-5.11-3.6S25.85,46.9,25.85,48.66Z" transform="translate(-1.27 -1.27)" /><path class="cls-9" d="M46.15,48.66v6.89a2.15,2.15,0,0,1-2.1,2.26h-6A2.15,2.15,0,0,1,36,55.55V48.66c0-1.76,2.63-3.6,5.11-3.6S46.15,46.9,46.15,48.66Z" transform="translate(-1.27 -1.27)" /><path class="cls-11" d="M9.6,46.89s.23-.76.52-.22c1,1.83,1.22,1.5,1.22,1.5L9.9,51.05,8.54,49.69l-.3-1.29Z" transform="translate(-1.27 -1.27)" /><path class="cls-12" d="M62.09,51.17s.47.68,1.81-1.48a3.1,3.1,0,0,0-1.06-3.1c-1.75-1-3-2.42-3-1.36,0,2.33-1.51,2.34-1.51,2.34s2.19.18,2.72,1A13.1,13.1,0,0,1,62.09,51.17Z" transform="translate(-1.27 -1.27)" /><path class="cls-18" d="M62.09,46.4C60,44.79,42.88,35.35,36,42.62c-7.34-7.34-24.09,2.73-25.68,3.78-2.61,1.71-1.7,4.11-.45,4.55a3.87,3.87,0,1,1,7.4,1.92q.77,0,1.54,0a4,4,0,0,1-1.17-2.19,4.07,4.07,0,0,1,8-1.35,3.94,3.94,0,0,1,0,1.14,1.43,1.43,0,0,0,.15-.58c0-.25,0-1,0-1.2,0-1.76,2.56-3.6,5-3.6S36,46.9,36,48.66c0-1.76,2.63-3.6,5.11-3.6s5,1.85,5,3.6c0,.16,0,1,0,1.22a1.56,1.56,0,0,0,.15.57,3.94,3.94,0,0,1,0-1.15,4.07,4.07,0,0,1,8,1.35,4,4,0,0,1-1,2.06c.45,0,.9,0,1.35,0A3.87,3.87,0,1,1,62.14,51C63.54,50.79,64.63,48.38,62.09,46.4Z" transform="translate(-1.27 -1.27)" /></g></g></svg>