<svg xmlns="http://www.w3.org/2000/svg" xmlns:xlink="http://www.w3.org/1999/xlink" viewBox="0 0 69.46 69.46"><defs><style>.cls-1{isolation:isolate;}.cls-2{stroke:#dcddde;stroke-width:1.06px;fill:url(#New_Gradient_Swatch_2);}.cls-2,.cls-7{stroke-miterlimit:10;}.cls-3{fill:url(#New_Gradient_Swatch_2-2);}.cls-4{fill:#dd7b7f;}.cls-5{fill:#fff;opacity:0.3;}.cls-6{fill:#181a1d;opacity:0.05;mix-blend-mode:multiply;}.cls-7{fill:none;stroke:#b94656;stroke-width:1.4px;}.cls-8{fill:#737577;stroke:#737577;stroke-linejoin:round;stroke-width:2.8px;}.cls-9{fill:#8f9194;}.cls-10{fill:#babcbe;}</style><linearGradient id="New_Gradient_Swatch_2" x1="34.73" y1="45.42" x2="34.73" y2="62.25" gradientUnits="userSpaceOnUse"><stop offset="0" stop-color="#fff" /><stop offset="1" stop-color="#f2f2f2" /></linearGradient><linearGradient id="New_Gradient_Swatch_2-2" x1="36" y1="24.22" x2="36" y2="7.14" xlink:href="#New_Gradient_Swatch_2" /></defs><title>D6010_surgical_placement_of_implant_body_endosteal_implant</title><g class="cls-1"><g id="D6010_-_surgical_placement_of_implant_body_endosteal_implant" data-name="D6010 - surgical placement of implant body, endosteal implant"><path class="cls-4" d="M57.51,61.91c4.64,0,3.94-6.64,2.93-13.5s-3.53-19-6.66-16.17S43.64,39.48,36,39.48s-14.64-4.41-17.77-7.23-5.65,9.3-6.66,16.17-1.72,13.5,2.93,13.5Z" transform="translate(-1.27 -1.27)" /><path class="cls-5" d="M57.51,61.91c4.64,0,3.94-6.64,2.93-13.5s-3.53-19-6.66-16.17a27.06,27.06,0,0,1-3.28,2.49,72.7,72.7,0,0,1,5.37,14A38.25,38.25,0,0,1,57.3,61.91Z" transform="translate(-1.27 -1.27)" /><path class="cls-6" d="M13.89,44.63c.8-4.16,2.86-9.93,5.77-11.2-.54-.41-1-.81-1.43-1.18-3.13-2.83-5.65,9.3-6.66,16.17-.8,5.43-1.4,10.7.68,12.68C11.79,56.07,13,49.33,13.89,44.63Z" transform="translate(-1.27 -1.27)" /><path class="cls-7" d="M57.51,61.91c4.64,0,3.94-6.64,2.93-13.5s-3.53-19-6.66-16.17S43.64,39.48,36,39.48s-14.64-4.41-17.77-7.23-5.65,9.3-6.66,16.17-1.72,13.5,2.93,13.5Z" transform="translate(-1.27 -1.27)" /><path class="cls-8" d="M31.36,37s0,0,0,.06c.24.09,1.12.7,1.12,4.68,0,4.68,0,15.51,0,15.51l.93,1.07h5.23l.9-1.07s0-10.79,0-15.51c0-4,.87-4.59,1.11-4.68,0,0,0,0,0-.06Z" transform="translate(-1.27 -1.27)" /><path class="cls-9" d="M40.71,37H31.29s1.18,0,1.18,4.7,0,15.51,0,15.51l.93,1.07h5.23l.9-1.07s0-10.79,0-15.51S40.71,37,40.71,37Z" transform="translate(-1.27 -1.27)" /><polygon class="cls-10" points="38.26 55.39 31.2 55.96 31.2 55.51 38.26 54.93 38.26 55.39" /><polygon class="cls-10" points="38.26 54.32 31.2 54.9 31.2 54.44 38.26 53.87 38.26 54.32" /><polygon class="cls-10" points="38.26 53.26 31.2 53.83 31.2 53.37 38.26 52.8 38.26 53.26" /><polygon class="cls-10" points="38.26 52.19 31.2 52.76 31.2 52.31 38.26 51.74 38.26 52.19" /><polygon class="cls-10" points="38.26 51.13 31.2 51.7 31.2 51.24 38.26 50.67 38.26 51.13" /><polygon class="cls-10" points="38.26 50.06 31.2 50.63 31.2 50.18 38.26 49.6 38.26 50.06" /><polygon class="cls-10" points="38.26 48.99 31.2 49.57 31.2 49.11 38.26 48.54 38.26 48.99" /><polygon class="cls-10" points="38.26 47.93 31.2 48.5 31.2 48.04 38.26 47.47 38.26 47.93" /><polygon class="cls-10" points="38.26 46.86 31.2 47.43 31.2 46.98 38.26 46.41 38.26 46.86" /><polygon class="cls-10" points="38.26 45.8 31.2 46.37 31.2 45.91 38.26 45.34 38.26 45.8" /><polygon class="cls-10" points="38.26 44.73 31.2 45.3 31.2 44.85 38.26 44.27 38.26 44.73" /><polygon class="cls-10" points="38.26 43.66 31.2 44.24 31.2 43.78 38.26 43.21 38.26 43.66" /><polygon class="cls-10" points="38.26 42.6 31.2 43.17 31.2 42.72 38.26 42.14 38.26 42.6" /><polygon class="cls-10" points="38.26 41.53 31.2 42.1 31.2 41.65 38.26 41.08 38.26 41.53" /><polygon class="cls-10" points="38.26 40.47 31.2 41.04 31.2 40.58 38.26 40.01 38.26 40.47" /></g></g></svg>