<svg xmlns="http://www.w3.org/2000/svg" xmlns:xlink="http://www.w3.org/1999/xlink" viewBox="0 0 69.46 69.46"><defs><style>.cls-1{isolation:isolate;}.cls-2{stroke:#dcddde;stroke-width:1.06px;fill:url(#New_Gradient_Swatch_2);}.cls-11,.cls-15,.cls-2,.cls-7{stroke-miterlimit:10;}.cls-3{fill:url(#New_Gradient_Swatch_2-2);}.cls-4{fill:#eaeeef;}.cls-13,.cls-5,.cls-9{fill:#fff;}.cls-6{fill:#d8dee0;}.cls-11,.cls-15,.cls-7{fill:none;stroke-width:1.4px;}.cls-7{stroke:#b1bfc4;}.cls-8{fill:#ebe3d7;}.cls-9{opacity:0.6;}.cls-10,.cls-14{fill:#181a1d;}.cls-10{opacity:0.07;}.cls-10,.cls-14,.cls-16{mix-blend-mode:multiply;}.cls-11{stroke:#b2b6b0;}.cls-12{fill:#dd7b7f;}.cls-13{opacity:0.3;}.cls-14{opacity:0.05;}.cls-15{stroke:#b94656;}.cls-16{opacity:0;}.cls-17{fill:#b94656;}.cls-18{fill:#737577;stroke:#737577;stroke-linejoin:round;stroke-width:2.8px;}.cls-19{fill:#b1bfc4;}.cls-20{fill:#8f9194;}.cls-21{fill:#babcbe;}</style><linearGradient id="New_Gradient_Swatch_2" x1="34.73" y1="45.42" x2="34.73" y2="62.25" gradientUnits="userSpaceOnUse"><stop offset="0" stop-color="#fff" /><stop offset="1" stop-color="#f2f2f2" /></linearGradient><linearGradient id="New_Gradient_Swatch_2-2" x1="36" y1="24.22" x2="36" y2="7.14" xlink:href="#New_Gradient_Swatch_2" /></defs><title>D6058_abutment_supoorted_porcelain_ceramic_crown</title><g class="cls-1"><g id="D6058_-_abutment_supoorted_porcelain_ceramic_crown" data-name="D6058 - abutment supoorted porcelain/ceramic crown"><path class="cls-4" d="M42.71,52.57c.15,5.36-2.11,8.32-1.18,8.84,1.42.79,6.32-1.9,7.9-6.64C51.91,47.35,49,43.39,49,39.6c0-2,1.42-2.05,1.42-5.37v-9.8a4.3,4.3,0,0,0-4.45-4.27h-6.8c-1.58,0-2.21,1.31-3.13,1.31s-1.55-1.31-3.13-1.31h-6.8a4.3,4.3,0,0,0-4.45,4.27v9.8c0,3.32,1.42,3.42,1.42,5.37,0,3.79-2.95,7.75-.47,15.17,1.58,4.74,6.48,7.43,7.9,6.64.93-.51-1.33-3.48-1.18-8.84C29.42,47.92,32.56,45,36,45S42.58,47.92,42.71,52.57Z" transform="translate(-1.27 -1.27)" /><path class="cls-5" d="M37.21,45.12v-.58S30,43.15,27.5,49.23c-2.12,5.05.8,10.21,2.81,12.24l.16-.05c.93-.51-1.33-3.48-1.18-8.84C29.42,47.92,32.56,45,36,45A6.06,6.06,0,0,1,37.21,45.12Z" transform="translate(-1.27 -1.27)" /><path class="cls-6" d="M24.69,56.78a16.75,16.75,0,0,1-1.78-8.55c0-2.58,1.45-6,1.61-8.39s-1.61-3.15-1.61-5.73V24.66a9.73,9.73,0,0,1,.91-3.94,4.15,4.15,0,0,0-2.21,3.7v9.8c0,3.32,1.42,3.42,1.42,5.37,0,3.79-2.95,7.75-.47,15.17a10.72,10.72,0,0,0,6.49,6.65A11.07,11.07,0,0,1,24.69,56.78Z" transform="translate(-1.27 -1.27)" /><path class="cls-5" d="M49.43,54.77C51.91,47.35,49,43.39,49,39.6c0-2,1.42-2.05,1.42-5.37v-9.8a4.3,4.3,0,0,0-4.45-4.27h-6.8c-1.58,0-2.21,1.31-3.13,1.31s-1.55-1.31-3.13-1.31h-6.8a4.31,4.31,0,0,0-4.43,3.91,3.94,3.94,0,0,1,2.25-.61h9.27c1.14,0,1.37.66,2.85.66s1.52-.65,3.07-.65h3.66c3.27,0,3.89,1.35,3.89,4V33.7c0,4.05-1.4,3.66-1.4,5.76s.93,2.34,1.56,8.33c.41,4-1.87,10.12-5.14,12.62l-.31.26c-.05.37,0,.62.2.74C43,62.2,47.85,59.51,49.43,54.77Z" transform="translate(-1.27 -1.27)" /><path class="cls-6" d="M41.58,60.61a27.57,27.57,0,0,0,1.77-4.09,11.15,11.15,0,0,0-.54-8.44,6.91,6.91,0,0,0-5.92-3.54l.08.54c3,.49,5.63,3.28,5.75,7.49a23.17,23.17,0,0,1-1.29,7.65Z" transform="translate(-1.27 -1.27)" /><path class="cls-7" d="M42.71,52.57c.15,5.36-2.11,8.32-1.18,8.84,1.42.79,6.32-1.9,7.9-6.64C51.91,47.35,49,43.39,49,39.6c0-2,1.42-2.05,1.42-5.37v-9.8a4.3,4.3,0,0,0-4.45-4.27h-6.8c-1.58,0-2.21,1.31-3.13,1.31s-1.55-1.31-3.13-1.31h-6.8a4.3,4.3,0,0,0-4.45,4.27v9.8c0,3.32,1.42,3.42,1.42,5.37,0,3.79-2.95,7.75-.47,15.17,1.58,4.74,6.48,7.43,7.9,6.64.93-.51-1.33-3.48-1.18-8.84C29.42,47.92,32.56,45,36,45S42.58,47.92,42.71,52.57Z" transform="translate(-1.27 -1.27)" /><path class="cls-8" d="M26.06,16.46h6.8a5,5,0,0,1,3,1.11l.11.08.11-.08a5,5,0,0,1,3-1.11h6.8a6.27,6.27,0,0,1,4.5,1.84V8.55h0L48,11.3l-2.4-2.75h0l-2.4,2.75-2.4-2.75h0l-2.4,2.75L36,8.55h0L33.6,11.3,31.2,8.55h0l-2.4,2.75-2.4-2.75h0L24,11.3l-2.4-2.75h0v9.74A6.27,6.27,0,0,1,26.06,16.46Z" transform="translate(-1.27 -1.27)" /><path class="cls-9" d="M50.44,8.55h0L48,11.3l-1.5-1.72v6.91a6.23,6.23,0,0,1,3.91,1.81Z" transform="translate(-1.27 -1.27)" /><path class="cls-10" d="M21.58,8.55h0v9.74a6.09,6.09,0,0,1,1.24-1V10Z" transform="translate(-1.27 -1.27)" /><path class="cls-11" d="M26.06,16.46h6.8a5,5,0,0,1,3,1.11l.11.08.11-.08a5,5,0,0,1,3-1.11h6.8a6.27,6.27,0,0,1,4.5,1.84V8.55h0L48,11.3l-2.4-2.75-2.4,2.75-2.4-2.75-2.4,2.75L36,8.55,33.6,11.3,31.2,8.55l-2.4,2.75-2.4-2.75L24,11.3l-2.4-2.75h0v9.74A6.27,6.27,0,0,1,26.06,16.46Z" transform="translate(-1.27 -1.27)" /><path class="cls-12" d="M52.53,63.06c3.57,0,3-5.1,2.25-10.38s-2.72-14.6-5.12-12.43S41.87,45.81,36,45.81s-11.26-3.39-13.66-5.56S18,47.4,17.22,52.68,15.9,63.06,19.47,63.06Z" transform="translate(-1.27 -1.27)" /><path class="cls-13" d="M52.53,63.06c3.57,0,3-5.1,2.25-10.38s-2.72-14.6-5.12-12.43a20.8,20.8,0,0,1-2.53,1.91,55.89,55.89,0,0,1,4.13,10.77,29.41,29.41,0,0,1,1.11,10.13Z" transform="translate(-1.27 -1.27)" /><path class="cls-14" d="M19,49.77c.62-3.2,2.2-7.64,4.44-8.61-.41-.32-.78-.62-1.1-.91C19.93,38.08,18,47.4,17.22,52.68c-.61,4.17-1.07,8.23.52,9.75C17.38,58.57,18.3,53.39,19,49.77Z" transform="translate(-1.27 -1.27)" /><path class="cls-15" d="M52.53,63.06c3.57,0,3-5.1,2.25-10.38s-2.72-14.6-5.12-12.43S41.87,45.81,36,45.81s-11.26-3.39-13.66-5.56S18,47.4,17.22,52.68,15.9,63.06,19.47,63.06Z" transform="translate(-1.27 -1.27)" /><path class="cls-15" d="M52.53,63.06c3.57,0,3-5.1,2.25-10.38s-2.72-14.6-5.12-12.43S41.87,45.81,36,45.81s-11.26-3.39-13.66-5.56S18,47.4,17.22,52.68,15.9,63.06,19.47,63.06Z" transform="translate(-1.27 -1.27)" /><g class="cls-16"><path class="cls-17" d="M22.57,54.77c1.58,4.74,6.48,7.43,7.9,6.64.93-.51-1.33-3.48-1.18-8.84.12-4.22,2.72-7,5.77-7.49a22,22,0,0,1-12-5.16C22.87,43.62,20.16,47.56,22.57,54.77Z" transform="translate(-1.27 -1.27)" /><path class="cls-17" d="M42.71,52.57c.15,5.36-2.11,8.32-1.18,8.84,1.42.79,6.32-1.9,7.9-6.64,2.4-7.21-.3-11.15-.46-14.85a22,22,0,0,1-12,5.16C40,45.56,42.59,48.35,42.71,52.57Z" transform="translate(-1.27 -1.27)" /></g><path class="cls-18" d="M37.81,37.9H34.19c0,4.51-1.48,5.8-1.76,6,0,0,0,0,0,0,.18.07.86.54.86,3.6,0,3.6,0,11.93,0,11.93l.72.82h4l.69-.82s0-8.29,0-11.93c0-3.06.67-3.53.86-3.6,0,0,0,0,0,0C39.27,43.72,37.81,42.56,37.81,37.9Z" transform="translate(-1.27 -1.27)" /><path class="cls-19" d="M39.62,43.94H32.38s1.81-1,1.81-6h3.62C37.81,43.09,39.62,43.94,39.62,43.94Z" transform="translate(-1.27 -1.27)" /><path class="cls-20" d="M39.62,43.94H32.38s.9,0,.9,3.61,0,11.93,0,11.93l.72.82h4l.69-.82s0-8.29,0-11.93S39.62,43.94,39.62,43.94Z" transform="translate(-1.27 -1.27)" /><polygon class="cls-21" points="37.44 57.75 32.01 58.19 32.01 57.84 37.44 57.4 37.44 57.75" /><polygon class="cls-21" points="37.44 56.93 32.01 57.37 32.01 57.02 37.44 56.58 37.44 56.93" /><polygon class="cls-21" points="37.44 56.11 32.01 56.55 32.01 56.2 37.44 55.76 37.44 56.11" /><polygon class="cls-21" points="37.44 55.29 32.01 55.73 32.01 55.38 37.44 54.94 37.44 55.29" /><polygon class="cls-21" points="37.44 54.47 32.01 54.91 32.01 54.56 37.44 54.12 37.44 54.47" /><polygon class="cls-21" points="37.44 53.65 32.01 54.09 32.01 53.74 37.44 53.3 37.44 53.65" /><polygon class="cls-21" points="37.44 52.83 32.01 53.27 32.01 52.92 37.44 52.48 37.44 52.83" /><polygon class="cls-21" points="37.44 52.01 32.01 52.45 32.01 52.1 37.44 51.66 37.44 52.01" /><polygon class="cls-21" points="37.44 51.2 32.01 51.63 32.01 51.28 37.44 50.84 37.44 51.2" /><polygon class="cls-21" points="37.44 50.38 32.01 50.81 32.01 50.47 37.44 50.02 37.44 50.38" /><polygon class="cls-21" points="37.44 49.56 32.01 50 32.01 49.65 37.44 49.2 37.44 49.56" /><polygon class="cls-21" points="37.44 48.74 32.01 49.18 32.01 48.83 37.44 48.39 37.44 48.74" /><polygon class="cls-21" points="37.44 47.92 32.01 48.36 32.01 48.01 37.44 47.57 37.44 47.92" /><polygon class="cls-21" points="37.44 47.1 32.01 47.54 32.01 47.19 37.44 46.75 37.44 47.1" /><polygon class="cls-21" points="37.44 46.28 32.01 46.72 32.01 46.37 37.44 45.93 37.44 46.28" /></g></g></svg>