<svg xmlns="http://www.w3.org/2000/svg" xmlns:xlink="http://www.w3.org/1999/xlink" viewBox="0 0 69.46 69.46"><defs><style>.cls-1{isolation:isolate;}.cls-2{stroke:#dcddde;stroke-width:1.06px;fill:url(#New_Gradient_Swatch_2);}.cls-2,.cls-7{stroke-miterlimit:10;}.cls-3{fill:url(#New_Gradient_Swatch_2-2);}.cls-4{fill:#dd7b7f;}.cls-5{fill:#fff;opacity:0.3;}.cls-6{fill:#181a1d;opacity:0.05;mix-blend-mode:multiply;}.cls-7{fill:none;stroke:#b94656;stroke-width:1.4px;}.cls-8{fill:#737577;stroke:#737577;stroke-linejoin:round;stroke-width:2.8px;}.cls-9{fill:#b1bfc4;}.cls-10{fill:#8f9194;}.cls-11{fill:#babcbe;}</style><linearGradient id="New_Gradient_Swatch_2" x1="34.73" y1="45.42" x2="34.73" y2="62.25" gradientUnits="userSpaceOnUse"><stop offset="0" stop-color="#fff" /><stop offset="1" stop-color="#f2f2f2" /></linearGradient><linearGradient id="New_Gradient_Swatch_2-2" x1="36" y1="24.22" x2="36" y2="7.14" xlink:href="#New_Gradient_Swatch_2" /></defs><title>D6057_custom_fabricated_abutment</title><g class="cls-1"><g id="D6057_-_custom_fabricated_abutment" data-name="D6057 - custom fabricated abutment"><path class="cls-4" d="M57.48,61.82c4.64,0,3.93-6.63,2.92-13.49s-3.53-19-6.66-16.15S43.63,39.41,36,39.41,21.38,35,18.25,32.19s-5.65,9.29-6.66,16.15S9.88,61.82,14.52,61.82Z" transform="translate(-1.27 -1.27)" /><path class="cls-5" d="M57.48,61.82c4.64,0,3.93-6.63,2.92-13.49s-3.53-19-6.66-16.15a27,27,0,0,1-3.28,2.49,72.62,72.62,0,0,1,5.36,14,38.21,38.21,0,0,1,1.44,13.16Z" transform="translate(-1.27 -1.27)" /><path class="cls-6" d="M13.91,44.55c.8-4.15,2.85-9.92,5.77-11.19-.54-.41-1-.81-1.43-1.18-3.13-2.82-5.65,9.29-6.66,16.15C10.8,53.76,10.2,59,12.28,61,11.81,56,13,49.25,13.91,44.55Z" transform="translate(-1.27 -1.27)" /><path class="cls-7" d="M57.48,61.82c4.64,0,3.93-6.63,2.92-13.49s-3.53-19-6.66-16.15S43.63,39.41,36,39.41,21.38,35,18.25,32.19s-5.65,9.29-6.66,16.15S9.88,61.82,14.52,61.82Z" transform="translate(-1.27 -1.27)" /><path class="cls-7" d="M57.48,61.82c4.64,0,3.93-6.63,2.92-13.49s-3.53-19-6.66-16.15S43.63,39.41,36,39.41,21.38,35,18.25,32.19s-5.65,9.29-6.66,16.15S9.88,61.82,14.52,61.82Z" transform="translate(-1.27 -1.27)" /><path class="cls-8" d="M42.59,37c-.36-.21-2.24-1.52-3.2-6.28C39,29,39,26.45,38.25,26.45s-1.1,1.26-2.36,1.26c-1.7,0-1.31-3.51-2.19-3.51s-.63,3.29-.81,4.61c-.82,6.14-3.17,7.92-3.5,8.15,0,0,0,0,0,0,.35,0,3.08.32,3.08,4.69,0,4.67,0,15.5,0,15.5l.93,1.07h5.23l.9-1.07s0-10.78,0-15.5c0-4.39,2.7-4.67,3.07-4.69C42.61,37,42.63,37,42.59,37Z" transform="translate(-1.27 -1.27)" /><path class="cls-9" d="M42.65,37H29.35s2.66-1.54,3.55-8.17c.18-1.32-.07-4.61.81-4.61s.49,3.51,2.19,3.51c1.26,0,1.59-1.26,2.36-1.26S39,29,39.39,30.67C40.46,35.95,42.65,37,42.65,37Z" transform="translate(-1.27 -1.27)" /><path class="cls-10" d="M42.64,37H29.35s3.12,0,3.12,4.69,0,15.5,0,15.5l.93,1.07h5.23l.9-1.07s0-10.78,0-15.5S42.64,37,42.64,37Z" transform="translate(-1.27 -1.27)" /><polygon class="cls-11" points="38.25 55.3 31.2 55.88 31.2 55.42 38.25 54.85 38.25 55.3" /><polygon class="cls-11" points="38.25 54.24 31.2 54.81 31.2 54.35 38.25 53.78 38.25 54.24" /><polygon class="cls-11" points="38.25 53.17 31.2 53.74 31.2 53.29 38.25 52.72 38.25 53.17" /><polygon class="cls-11" points="38.25 52.11 31.2 52.68 31.2 52.23 38.25 51.65 38.25 52.11" /><polygon class="cls-11" points="38.25 51.04 31.2 51.62 31.2 51.16 38.25 50.59 38.25 51.04" /><polygon class="cls-11" points="38.25 49.98 31.2 50.55 31.2 50.1 38.25 49.52 38.25 49.98" /><polygon class="cls-11" points="38.25 48.91 31.2 49.49 31.2 49.03 38.25 48.46 38.25 48.91" /><polygon class="cls-11" points="38.25 47.85 31.2 48.42 31.2 47.97 38.25 47.4 38.25 47.85" /><polygon class="cls-11" points="38.25 46.78 31.2 47.36 31.2 46.9 38.25 46.33 38.25 46.78" /><polygon class="cls-11" points="38.25 45.72 31.2 46.29 31.2 45.84 38.25 45.27 38.25 45.72" /><polygon class="cls-11" points="38.25 44.66 31.2 45.23 31.2 44.77 38.25 44.2 38.25 44.66" /><polygon class="cls-11" points="38.25 43.59 31.2 44.16 31.2 43.71 38.25 43.14 38.25 43.59" /><polygon class="cls-11" points="38.25 42.53 31.2 43.1 31.2 42.64 38.25 42.07 38.25 42.53" /><polygon class="cls-11" points="38.25 41.46 31.2 42.03 31.2 41.58 38.25 41.01 38.25 41.46" /><polygon class="cls-11" points="38.25 40.4 31.2 40.97 31.2 40.51 38.25 39.94 38.25 40.4" /></g></g></svg>