<svg xmlns="http://www.w3.org/2000/svg" xmlns:xlink="http://www.w3.org/1999/xlink" viewBox="0 0 69.46 76.46"><defs><style>.cls-1,.cls-17,.cls-22,.cls-8{fill:none;}.cls-2{isolation:isolate;}.cls-3{stroke:#dcddde;stroke-width:1.06px;fill:url(#New_Gradient_Swatch_2);}.cls-17,.cls-22,.cls-3,.cls-8{stroke-miterlimit:10;}.cls-4{fill:url(#New_Gradient_Swatch_2-2);}.cls-5{fill:#eaeeef;}.cls-20,.cls-6{fill:#fff;}.cls-7{fill:#d8dee0;}.cls-8{stroke:#b1bfc4;}.cls-17,.cls-22,.cls-8{stroke-width:1.4px;}.cls-9{clip-path:url(#clip-path);}.cls-10{fill:#dcb406;}.cls-11{fill:#e7c762;}.cls-12{fill:#eed68f;}.cls-13{fill:#f5e6bf;}.cls-14{fill:#f2dda5;}.cls-15{fill:#faf3e3;}.cls-16{fill:#f9efd7;}.cls-17{stroke:#c6a306;}.cls-18{opacity:0.75;}.cls-19{fill:#dd7b7f;}.cls-20{opacity:0.3;}.cls-21{fill:#181a1d;opacity:0.05;}.cls-21,.cls-23{mix-blend-mode:multiply;}.cls-22{stroke:#b94656;}.cls-23{opacity:0;}.cls-24{fill:#b94656;}.cls-25{fill:#737577;stroke:#737577;stroke-linejoin:round;stroke-width:2.8px;}.cls-26{fill:#8f9194;}.cls-27{fill:#babcbe;}</style><linearGradient id="New_Gradient_Swatch_2" x1="34.73" y1="52.42" x2="34.73" y2="69.26" gradientUnits="userSpaceOnUse"><stop offset="0" stop-color="#fff" /><stop offset="1" stop-color="#f2f2f2" /></linearGradient><linearGradient id="New_Gradient_Swatch_2-2" x1="36" y1="24.22" x2="36" y2="7.14" xlink:href="#New_Gradient_Swatch_2" /><clipPath id="clip-path" transform="translate(-1.27 5.74)"><path class="cls-1" d="M26.06,16.42h6.8a5,5,0,0,1,3,1.11l.11.08.11-.08a5,5,0,0,1,3-1.11h6.8a6.27,6.27,0,0,1,4.5,1.84V8.5h0L48,11.25,45.62,8.5l-2.4,2.75L40.82,8.5l-2.4,2.75L36,8.5,33.6,11.25,31.2,8.5l-2.4,2.75L26.39,8.5,24,11.25,21.58,8.5h0v9.74A6.27,6.27,0,0,1,26.06,16.42Z" /></clipPath></defs><title>D6067_implant_supported_metal_crown_titanium_titanium_alloy_high_noble_metal</title><g class="cls-2"><g id="D6067_-_implant_supported_metal_crown_titanium_titanium_alloy_high_noble_metal_" data-name="D6067 - implant supported metal crown (titanium, titanium alloy, high noble metal)"><path class="cls-5" d="M42.71,52.52c.15,5.36-2.11,8.32-1.18,8.84,1.42.79,6.32-1.9,7.9-6.64C51.91,47.3,49,43.34,49,39.55c0-2,1.42-2.05,1.42-5.37v-9.8a4.3,4.3,0,0,0-4.45-4.27h-6.8c-1.58,0-2.21,1.31-3.13,1.31s-1.55-1.31-3.13-1.31h-6.8a4.3,4.3,0,0,0-4.45,4.27v9.8c0,3.32,1.42,3.42,1.42,5.37,0,3.79-2.95,7.75-.47,15.17,1.58,4.74,6.48,7.43,7.9,6.64.93-.51-1.33-3.48-1.18-8.84.13-4.65,3.27-7.58,6.71-7.58S42.58,47.87,42.71,52.52Z" transform="translate(-1.27 5.74)" /><path class="cls-6" d="M37.21,45.07v-.58S30,43.11,27.5,49.18c-2.12,5.05.8,10.21,2.81,12.24l.16-.05c.93-.51-1.33-3.48-1.18-8.84.13-4.65,3.27-7.58,6.71-7.58A6.06,6.06,0,0,1,37.21,45.07Z" transform="translate(-1.27 5.74)" /><path class="cls-7" d="M24.69,56.73a16.75,16.75,0,0,1-1.78-8.55c0-2.58,1.45-6,1.61-8.39s-1.61-3.15-1.61-5.73V24.62a9.73,9.73,0,0,1,.91-3.94,4.15,4.15,0,0,0-2.21,3.7v9.8c0,3.32,1.42,3.42,1.42,5.37,0,3.79-2.95,7.75-.47,15.17a10.72,10.72,0,0,0,6.49,6.65A11.07,11.07,0,0,1,24.69,56.73Z" transform="translate(-1.27 5.74)" /><path class="cls-6" d="M49.43,54.72C51.91,47.3,49,43.34,49,39.55c0-2,1.42-2.05,1.42-5.37v-9.8a4.3,4.3,0,0,0-4.45-4.27h-6.8c-1.58,0-2.21,1.31-3.13,1.31s-1.55-1.31-3.13-1.31h-6.8A4.31,4.31,0,0,0,21.64,24a3.94,3.94,0,0,1,2.25-.61h9.27c1.14,0,1.37.66,2.85.66s1.52-.65,3.07-.65h3.66c3.27,0,3.89,1.35,3.89,4v6.23c0,4.05-1.4,3.66-1.4,5.76s.93,2.34,1.56,8.33c.41,4-1.87,10.12-5.14,12.62l-.31.26c-.05.37,0,.62.2.74C43,62.15,47.85,59.47,49.43,54.72Z" transform="translate(-1.27 5.74)" /><path class="cls-7" d="M41.58,60.56a27.57,27.57,0,0,0,1.77-4.09A11.15,11.15,0,0,0,42.81,48a6.91,6.91,0,0,0-5.92-3.54L37,45c3,.49,5.63,3.28,5.75,7.49a23.17,23.17,0,0,1-1.29,7.65Z" transform="translate(-1.27 5.74)" /><path class="cls-8" d="M42.71,52.52c.15,5.36-2.11,8.32-1.18,8.84,1.42.79,6.32-1.9,7.9-6.64C51.91,47.3,49,43.34,49,39.55c0-2,1.42-2.05,1.42-5.37v-9.8a4.3,4.3,0,0,0-4.45-4.27h-6.8c-1.58,0-2.21,1.31-3.13,1.31s-1.55-1.31-3.13-1.31h-6.8a4.3,4.3,0,0,0-4.45,4.27v9.8c0,3.32,1.42,3.42,1.42,5.37,0,3.79-2.95,7.75-.47,15.17,1.58,4.74,6.48,7.43,7.9,6.64.93-.51-1.33-3.48-1.18-8.84.13-4.65,3.27-7.58,6.71-7.58S42.58,47.87,42.71,52.52Z" transform="translate(-1.27 5.74)" /><g class="cls-9"><polygon class="cls-10" points="13.59 20.21 33.84 40.42 54.08 20.21 33.84 0 13.59 20.21" /><polygon class="cls-11" points="24.84 31.43 30.93 37.51 51.17 17.3 45.08 11.22 24.84 31.43" /><polygon class="cls-12" points="25.82 32.41 30.15 36.73 50.39 16.53 46.06 12.21 25.82 32.41" /><polygon class="cls-11" points="20.18 26.78 24.4 31 44.64 10.79 40.42 6.57 20.18 26.78" /><polygon class="cls-13" points="26.9 33.49 28.09 34.68 48.33 14.47 47.14 13.28 26.9 33.49" /><polygon class="cls-12" points="22.73 29.33 23.92 30.51 44.16 10.31 42.97 9.12 22.73 29.33" /><polygon class="cls-14" points="20.78 27.38 21.24 27.84 41.48 7.63 41.02 7.17 20.78 27.38" /><polygon class="cls-15" points="27.49 34.08 27.71 34.3 47.95 14.09 47.73 13.87 27.49 34.08" /><polygon class="cls-16" points="20.88 27.48 21.02 27.63 41.27 7.42 41.12 7.27 20.88 27.48" /></g><path class="cls-17" d="M26.06,16.42h6.8a5,5,0,0,1,3,1.11l.11.08.11-.08a5,5,0,0,1,3-1.11h6.8a6.27,6.27,0,0,1,4.5,1.84V8.5h0L48,11.25,45.62,8.5l-2.4,2.75L40.82,8.5l-2.4,2.75L36,8.5,33.6,11.25,31.2,8.5l-2.4,2.75L26.39,8.5,24,11.25,21.58,8.5h0v9.74A6.27,6.27,0,0,1,26.06,16.42Z" transform="translate(-1.27 5.74)" /><g class="cls-18"><path class="cls-6" d="M41.8,14.16a1,1,0,0,0,.85-.85l.3-2.11.3,2.11a1,1,0,0,0,.85.85l2.11.3-2.11.3a1,1,0,0,0-.85.85l-.3,2.11-.3-2.11a1,1,0,0,0-.85-.85l-2.11-.3Z" transform="translate(-1.27 5.74)" /></g><path class="cls-19" d="M52.53,63.06c3.57,0,3-5.1,2.25-10.38s-2.72-14.6-5.12-12.43S41.87,45.81,36,45.81s-11.26-3.39-13.66-5.56S18,47.4,17.22,52.68,15.9,63.06,19.47,63.06Z" transform="translate(-1.27 5.74)" /><path class="cls-20" d="M52.53,63.06c3.57,0,3-5.1,2.25-10.38s-2.72-14.6-5.12-12.43a20.8,20.8,0,0,1-2.53,1.91,55.89,55.89,0,0,1,4.13,10.77,29.41,29.41,0,0,1,1.11,10.13Z" transform="translate(-1.27 5.74)" /><path class="cls-21" d="M19,49.77c.62-3.2,2.2-7.64,4.44-8.61-.41-.32-.78-.62-1.1-.91C19.93,38.08,18,47.4,17.22,52.68c-.61,4.17-1.07,8.23.52,9.75C17.38,58.57,18.3,53.39,19,49.77Z" transform="translate(-1.27 5.74)" /><path class="cls-22" d="M52.53,63.06c3.57,0,3-5.1,2.25-10.38s-2.72-14.6-5.12-12.43S41.87,45.81,36,45.81s-11.26-3.39-13.66-5.56S18,47.4,17.22,52.68,15.9,63.06,19.47,63.06Z" transform="translate(-1.27 5.74)" /><path class="cls-22" d="M52.53,63.06c3.57,0,3-5.1,2.25-10.38s-2.72-14.6-5.12-12.43S41.87,45.81,36,45.81s-11.26-3.39-13.66-5.56S18,47.4,17.22,52.68,15.9,63.06,19.47,63.06Z" transform="translate(-1.27 5.74)" /><g class="cls-23"><path class="cls-24" d="M22.57,54.77c1.58,4.74,6.48,7.43,7.9,6.64.93-.51-1.33-3.48-1.18-8.84.12-4.22,2.72-7,5.77-7.49a22,22,0,0,1-12-5.16C22.87,43.62,20.16,47.56,22.57,54.77Z" transform="translate(-1.27 5.74)" /><path class="cls-24" d="M42.71,52.57c.15,5.36-2.11,8.32-1.18,8.84,1.42.79,6.32-1.9,7.9-6.64,2.4-7.21-.3-11.15-.46-14.85a22,22,0,0,1-12,5.16C40,45.56,42.59,48.35,42.71,52.57Z" transform="translate(-1.27 5.74)" /></g><path class="cls-25" d="M32.43,43.91s0,0,0,0c.18.07.86.54.86,3.6,0,3.6,0,11.93,0,11.93l.72.82h4l.69-.82s0-8.29,0-11.93c0-3.06.67-3.53.86-3.6,0,0,0,0,0,0Z" transform="translate(-1.27 5.74)" /><path class="cls-26" d="M39.62,43.94H32.38s.9,0,.9,3.61,0,11.93,0,11.93l.72.82h4l.69-.82s0-8.29,0-11.93S39.62,43.94,39.62,43.94Z" transform="translate(-1.27 5.74)" /><polygon class="cls-27" points="37.44 64.76 32.01 65.2 32.01 64.85 37.44 64.41 37.44 64.76" /><polygon class="cls-27" points="37.44 63.94 32.01 64.38 32.01 64.03 37.44 63.59 37.44 63.94" /><polygon class="cls-27" points="37.44 63.12 32.01 63.56 32.01 63.21 37.44 62.77 37.44 63.12" /><polygon class="cls-27" points="37.44 62.3 32.01 62.74 32.01 62.39 37.44 61.95 37.44 62.3" /><polygon class="cls-27" points="37.44 61.48 32.01 61.92 32.01 61.57 37.44 61.13 37.44 61.48" /><polygon class="cls-27" points="37.44 60.66 32.01 61.1 32.01 60.75 37.44 60.31 37.44 60.66" /><polygon class="cls-27" points="37.44 59.84 32.01 60.28 32.01 59.93 37.44 59.49 37.44 59.84" /><polygon class="cls-27" points="37.44 59.02 32.01 59.46 32.01 59.11 37.44 58.67 37.44 59.02" /><polygon class="cls-27" points="37.44 58.2 32.01 58.64 32.01 58.29 37.44 57.85 37.44 58.2" /><polygon class="cls-27" points="37.44 57.38 32.01 57.82 32.01 57.47 37.44 57.03 37.44 57.38" /><polygon class="cls-27" points="37.44 56.56 32.01 57 32.01 56.65 37.44 56.21 37.44 56.56" /><polygon class="cls-27" points="37.44 55.74 32.01 56.18 32.01 55.83 37.44 55.39 37.44 55.74" /><polygon class="cls-27" points="37.44 54.92 32.01 55.37 32.01 55.01 37.44 54.57 37.44 54.92" /><polygon class="cls-27" points="37.44 54.1 32.01 54.55 32.01 54.2 37.44 53.76 37.44 54.1" /><polygon class="cls-27" points="37.44 53.29 32.01 53.73 32.01 53.38 37.44 52.94 37.44 53.29" /></g></g></svg>