<svg xmlns="http://www.w3.org/2000/svg" xmlns:xlink="http://www.w3.org/1999/xlink" viewBox="0 0 69.46 69.46"><defs><style>.cls-1,.cls-26,.cls-27,.cls-30,.cls-8{fill:none;}.cls-2{isolation:isolate;}.cls-3{stroke:#dcddde;stroke-width:1.06px;fill:url(#New_Gradient_Swatch_2);}.cls-26,.cls-3,.cls-30,.cls-8{stroke-miterlimit:10;}.cls-4{fill:url(#New_Gradient_Swatch_2-2);}.cls-5{fill:#eaeeef;}.cls-10,.cls-25,.cls-6{fill:#fff;}.cls-7{fill:#d8dee0;}.cls-8{stroke:#b1bfc4;}.cls-26,.cls-30,.cls-8{stroke-width:0.83px;}.cls-9{fill:#ebe3d7;}.cls-10{opacity:0.6;}.cls-11,.cls-24{fill:#181a1d;}.cls-11{opacity:0.07;}.cls-11,.cls-22,.cls-24{mix-blend-mode:multiply;}.cls-12{clip-path:url(#clip-path);}.cls-13{fill:#653635;}.cls-14{fill:#805753;}.cls-15{fill:#96716d;}.cls-16{fill:#bca4a0;}.cls-17{fill:#a78884;}.cls-18{fill:#e3dad8;}.cls-19{fill:#cebcb9;}.cls-20{clip-path:url(#clip-path-2);}.cls-21{fill:#dd7b7f;}.cls-22{opacity:0.5;}.cls-23{fill:#b94656;}.cls-24{opacity:0.05;}.cls-25{opacity:0.3;}.cls-26{stroke:#b94656;}.cls-27{stroke:#116c91;stroke-linecap:round;stroke-linejoin:round;stroke-width:0.9px;}.cls-28{fill:#116c91;}.cls-29{clip-path:url(#clip-path-3);}.cls-30{stroke:#b2b6b0;}.cls-31{opacity:0.75;}</style><linearGradient id="New_Gradient_Swatch_2" x1="34.73" y1="45.42" x2="34.73" y2="62.25" gradientUnits="userSpaceOnUse"><stop offset="0" stop-color="#fff" /><stop offset="1" stop-color="#f2f2f2" /></linearGradient><linearGradient id="New_Gradient_Swatch_2-2" x1="36" y1="24.22" x2="36" y2="7.14" xlink:href="#New_Gradient_Swatch_2" /><clipPath id="clip-path" transform="translate(-1.27 -1.27)"><path class="cls-1" d="M62,25l-.62.49a3.4,3.4,0,0,0-2.45-1h-4a2.65,2.65,0,0,0-1.61.6l-.17.12a.14.14,0,0,1-.16,0L52.79,25a2.66,2.66,0,0,0-1.61-.6h-4a3.4,3.4,0,0,0-2.44,1l-.62-.49V21.81l.29-.13a6.62,6.62,0,0,1,2.77-.6H58.89a6.62,6.62,0,0,1,2.78.6l.29.13Z" /></clipPath><clipPath id="clip-path-2" transform="translate(-1.27 -1.27)"><path class="cls-1" d="M27.9,25l-.62.49a3.4,3.4,0,0,0-2.45-1h-4a2.65,2.65,0,0,0-1.61.6l-.17.12a.14.14,0,0,1-.16,0L18.74,25a2.66,2.66,0,0,0-1.61-.6h-4a3.4,3.4,0,0,0-2.44,1l-.62-.49V21.81l.29-.13a6.62,6.62,0,0,1,2.77-.6H24.83a6.62,6.62,0,0,1,2.78.6l.29.13Z" /></clipPath><clipPath id="clip-path-3" transform="translate(-1.27 -1.27)"><path class="cls-1" d="M44.48,21.63a6.61,6.61,0,0,0-2.62-.54H30.14a6.61,6.61,0,0,0-2.65.56v3.63l-.21.16h.43a3.4,3.4,0,0,1,2.44-1h4a2.66,2.66,0,0,1,1.61.6l.14.11a.14.14,0,0,0,.16,0l.17-.12a2.65,2.65,0,0,1,1.61-.6h4a3.4,3.4,0,0,1,2.45,1h.42l-.25-.21Z" /></clipPath></defs><title>D6242_pontic_porcelain_fused_to_noble_metal</title><g class="cls-2"><g id="D6242_-_pontic_porcelain_fused_to_noble_metal" data-name="D6242 - pontic, porcelain fused to noble metal"><path class="cls-5" d="M40,45.86c.09,3.16-1.24,4.91-.7,5.21.84.47,3.73-1.12,4.66-3.92,1.46-4.38-.28-6.71-.28-9,0-1.15.84-1.21.84-3.17V29.26a2.54,2.54,0,0,0-2.62-2.52h-4c-.93,0-1.3.77-1.85.77s-.92-.77-1.85-.77h-4a2.54,2.54,0,0,0-2.62,2.52V35c0,2,.84,2,.84,3.17,0,2.24-1.74,4.58-.28,9,.93,2.8,3.82,4.38,4.66,3.92.55-.3-.79-2.05-.7-5.21.08-2.74,1.93-4.47,4-4.47S39.88,43.12,40,45.86Z" transform="translate(-1.27 -1.27)" /><path class="cls-6" d="M36.71,41.47v-.34s-4.23-.82-5.73,2.77c-1.25,3,.47,6,1.66,7.22l.09,0c.55-.3-.79-2.05-.7-5.21.08-2.74,1.93-4.47,4-4.47A3.57,3.57,0,0,1,36.71,41.47Z" transform="translate(-1.27 -1.27)" /><path class="cls-7" d="M29.33,48.35a9.88,9.88,0,0,1-1-5c0-1.52.86-3.52,1-5s-1-1.86-1-3.38V29.4a5.74,5.74,0,0,1,.54-2.32,2.45,2.45,0,0,0-1.3,2.18V35c0,2,.84,2,.84,3.17,0,2.24-1.74,4.58-.28,9a6.32,6.32,0,0,0,3.83,3.92A6.53,6.53,0,0,1,29.33,48.35Z" transform="translate(-1.27 -1.27)" /><path class="cls-6" d="M43.93,47.16c1.46-4.38-.28-6.71-.28-9,0-1.15.84-1.21.84-3.17V29.26a2.54,2.54,0,0,0-2.62-2.52h-4c-.93,0-1.3.77-1.85.77s-.92-.77-1.85-.77h-4A2.55,2.55,0,0,0,27.53,29a2.33,2.33,0,0,1,1.33-.36h5.47c.67,0,.81.39,1.68.39s.89-.39,1.81-.39H40c1.93,0,2.3.8,2.3,2.36v3.68c0,2.39-.83,2.16-.83,3.4s.55,1.38.92,4.92c.24,2.35-1.1,6-3,7.44l-.18.16c0,.22,0,.37.12.43C40.1,51.55,43,50,43.93,47.16Z" transform="translate(-1.27 -1.27)" /><path class="cls-7" d="M39.29,50.61a16.27,16.27,0,0,0,1-2.41,6.58,6.58,0,0,0-.32-5,4.08,4.08,0,0,0-3.5-2.09l0,.32A4.3,4.3,0,0,1,40,45.86a13.67,13.67,0,0,1-.76,4.51Z" transform="translate(-1.27 -1.27)" /><path class="cls-8" d="M40,45.86c.09,3.16-1.24,4.91-.7,5.21.84.47,3.73-1.12,4.66-3.92,1.46-4.38-.28-6.71-.28-9,0-1.15.84-1.21.84-3.17V29.26a2.54,2.54,0,0,0-2.62-2.52h-4c-.93,0-1.3.77-1.85.77s-.92-.77-1.85-.77h-4a2.54,2.54,0,0,0-2.62,2.52V35c0,2,.84,2,.84,3.17,0,2.24-1.74,4.58-.28,9,.93,2.8,3.82,4.38,4.66,3.92.55-.3-.79-2.05-.7-5.21.08-2.74,1.93-4.47,4-4.47S39.88,43.12,40,45.86Z" transform="translate(-1.27 -1.27)" /><path class="cls-9" d="M34.15,20.79h7.71a6.34,6.34,0,0,1,2.66.58V15.48h0L43.1,17.1l-1.42-1.62h0L40.26,17.1l-1.42-1.62h0L37.42,17.1,36,15.48h0L34.59,17.1l-1.42-1.62h0L31.75,17.1l-1.42-1.62h0L28.91,17.1l-1.42-1.62h0v5.89a6.34,6.34,0,0,1,2.65-.57Z" transform="translate(-1.27 -1.27)" /><path class="cls-10" d="M44.52,21.36V15.48h0L43.1,17.1l-.89-1V20.8A6.31,6.31,0,0,1,44.52,21.36Z" transform="translate(-1.27 -1.27)" /><path class="cls-11" d="M28.22,16.31l-.73-.83h0v5.89a6.16,6.16,0,0,1,.73-.28Z" transform="translate(-1.27 -1.27)" /><path class="cls-9" d="M51.18,20.79h7.71a6.34,6.34,0,0,1,2.66.58V15.48h0L60.13,17.1l-1.42-1.62h0L57.29,17.1l-1.42-1.62h0L54.45,17.1,53,15.48h0L51.61,17.1l-1.42-1.62h0L48.78,17.1l-1.42-1.62h0L45.94,17.1l-1.42-1.62h0v5.89a6.34,6.34,0,0,1,2.65-.57Z" transform="translate(-1.27 -1.27)" /><path class="cls-10" d="M61.55,21.36V15.48h0L60.13,17.1l-.89-1V20.8A6.31,6.31,0,0,1,61.55,21.36Z" transform="translate(-1.27 -1.27)" /><path class="cls-11" d="M45.25,16.31l-.73-.83h0v5.89a6.16,6.16,0,0,1,.73-.28Z" transform="translate(-1.27 -1.27)" /><g class="cls-12"><polygon class="cls-13" points="39.31 22.41 51.27 34.35 63.23 22.41 51.27 10.47 39.31 22.41" /><polygon class="cls-14" points="45.95 29.04 49.55 32.64 61.51 20.7 57.91 17.1 45.95 29.04" /><polygon class="cls-15" points="46.53 29.63 49.09 32.18 61.05 20.24 58.49 17.68 46.53 29.63" /><polygon class="cls-14" points="43.2 26.3 45.7 28.79 57.66 16.85 55.16 14.36 43.2 26.3" /><polygon class="cls-16" points="47.17 30.26 47.87 30.96 59.84 19.02 59.13 18.32 47.17 30.26" /><polygon class="cls-15" points="44.71 27.8 45.41 28.5 57.37 16.56 56.67 15.86 44.71 27.8" /><polygon class="cls-17" points="43.55 26.65 43.83 26.92 55.79 14.98 55.52 14.71 43.55 26.65" /><polygon class="cls-18" points="47.52 30.61 47.65 30.74 59.61 18.8 59.48 18.67 47.52 30.61" /><polygon class="cls-19" points="43.61 26.71 43.7 26.8 55.66 14.86 55.57 14.77 43.61 26.71" /></g><path class="cls-9" d="M17.12,20.79h7.71a6.34,6.34,0,0,1,2.66.58V15.48h0L26.07,17.1l-1.42-1.62h0L23.23,17.1l-1.42-1.62h0L20.39,17.1,19,15.48h0L17.56,17.1l-1.42-1.62h0L14.72,17.1,13.3,15.48h0L11.88,17.1l-1.42-1.62h0v5.89a6.34,6.34,0,0,1,2.65-.57Z" transform="translate(-1.27 -1.27)" /><path class="cls-10" d="M27.49,21.36V15.48h0L26.07,17.1l-.89-1V20.8A6.31,6.31,0,0,1,27.49,21.36Z" transform="translate(-1.27 -1.27)" /><path class="cls-11" d="M11.19,16.31l-.73-.83h0v5.89a6.16,6.16,0,0,1,.73-.28Z" transform="translate(-1.27 -1.27)" /><g class="cls-20"><polygon class="cls-13" points="5.22 22.41 17.19 34.35 29.15 22.41 17.19 10.47 5.22 22.41" /><polygon class="cls-14" points="11.87 29.04 15.47 32.64 27.43 20.7 23.83 17.1 11.87 29.04" /><polygon class="cls-15" points="12.45 29.63 15.01 32.18 26.97 20.24 24.41 17.68 12.45 29.63" /><polygon class="cls-14" points="9.12 26.3 11.61 28.79 23.57 16.85 21.07 14.36 9.12 26.3" /><polygon class="cls-16" points="13.09 30.26 13.79 30.96 25.75 19.02 25.05 18.32 13.09 30.26" /><polygon class="cls-15" points="10.62 27.8 11.32 28.5 23.29 16.56 22.58 15.86 10.62 27.8" /><polygon class="cls-17" points="9.47 26.65 9.74 26.92 21.7 14.98 21.43 14.71 9.47 26.65" /><polygon class="cls-18" points="13.43 30.61 13.56 30.74 25.52 18.8 25.39 18.67 13.43 30.61" /><polygon class="cls-19" points="9.53 26.71 9.62 26.8 21.58 14.86 21.49 14.77 9.53 26.71" /></g><path class="cls-5" d="M23,45.86c.09,3.16-1.24,4.91-.7,5.21C23.13,51.55,26,50,27,47.16c1.46-4.38-.28-6.71-.28-9,0-1.15.84-1.21.84-3.17V29.26a2.54,2.54,0,0,0-2.62-2.52h-4c-.93,0-1.3.77-1.85.77s-.92-.77-1.85-.77h-4a2.54,2.54,0,0,0-2.62,2.52V35c0,2,.84,2,.84,3.17,0,2.24-1.74,4.58-.28,9,.93,2.8,3.82,4.38,4.66,3.92.55-.3-.79-2.05-.7-5.21.08-2.74,1.93-4.47,4-4.47S22.91,43.12,23,45.86Z" transform="translate(-1.27 -1.27)" /><path class="cls-6" d="M19.74,41.47v-.34s-4.23-.82-5.73,2.77c-1.25,3,.47,6,1.66,7.22l.09,0c.55-.3-.79-2.05-.7-5.21.08-2.74,1.93-4.47,4-4.47A3.57,3.57,0,0,1,19.74,41.47Z" transform="translate(-1.27 -1.27)" /><path class="cls-7" d="M12.36,48.35a9.88,9.88,0,0,1-1-5c0-1.52.86-3.52,1-5s-1-1.86-1-3.38V29.4a5.74,5.74,0,0,1,.54-2.32,2.45,2.45,0,0,0-1.3,2.18V35c0,2,.84,2,.84,3.17,0,2.24-1.74,4.58-.28,9a6.32,6.32,0,0,0,3.83,3.92A6.53,6.53,0,0,1,12.36,48.35Z" transform="translate(-1.27 -1.27)" /><path class="cls-6" d="M27,47.16c1.46-4.38-.28-6.71-.28-9,0-1.15.84-1.21.84-3.17V29.26a2.54,2.54,0,0,0-2.62-2.52h-4c-.93,0-1.3.77-1.85.77s-.92-.77-1.85-.77h-4A2.55,2.55,0,0,0,10.55,29a2.33,2.33,0,0,1,1.33-.36h5.47c.67,0,.81.39,1.68.39s.89-.39,1.81-.39H23c1.93,0,2.3.8,2.3,2.36v3.68c0,2.39-.83,2.16-.83,3.4s.55,1.38.92,4.92c.24,2.35-1.1,6-3,7.44l-.18.16c0,.22,0,.37.12.43C23.13,51.55,26,50,27,47.16Z" transform="translate(-1.27 -1.27)" /><path class="cls-7" d="M22.32,50.61a16.27,16.27,0,0,0,1-2.41,6.58,6.58,0,0,0-.32-5,4.08,4.08,0,0,0-3.5-2.09l0,.32A4.3,4.3,0,0,1,23,45.86a13.67,13.67,0,0,1-.76,4.51Z" transform="translate(-1.27 -1.27)" /><path class="cls-8" d="M23,45.86c.09,3.16-1.24,4.91-.7,5.21C23.13,51.55,26,50,27,47.16c1.46-4.38-.28-6.71-.28-9,0-1.15.84-1.21.84-3.17V29.26a2.54,2.54,0,0,0-2.62-2.52h-4c-.93,0-1.3.77-1.85.77s-.92-.77-1.85-.77h-4a2.54,2.54,0,0,0-2.62,2.52V35c0,2,.84,2,.84,3.17,0,2.24-1.74,4.58-.28,9,.93,2.8,3.82,4.38,4.66,3.92.55-.3-.79-2.05-.7-5.21.08-2.74,1.93-4.47,4-4.47S22.91,43.12,23,45.86Z" transform="translate(-1.27 -1.27)" /><path class="cls-5" d="M56.93,45.86c.09,3.16-1.24,4.91-.7,5.21.84.47,3.73-1.12,4.66-3.92,1.46-4.38-.28-6.71-.28-9,0-1.15.84-1.21.84-3.17V29.26a2.54,2.54,0,0,0-2.62-2.52h-4c-.93,0-1.3.77-1.85.77s-.92-.77-1.85-.77h-4a2.54,2.54,0,0,0-2.62,2.52V35c0,2,.84,2,.84,3.17,0,2.24-1.74,4.58-.28,9,.93,2.8,3.82,4.38,4.66,3.92.55-.3-.79-2.05-.7-5.21.08-2.74,1.93-4.47,4-4.47S56.85,43.12,56.93,45.86Z" transform="translate(-1.27 -1.27)" /><path class="cls-6" d="M53.69,41.47v-.34s-4.23-.82-5.73,2.77c-1.25,3,.47,6,1.66,7.22l.09,0c.55-.3-.79-2.05-.7-5.21.08-2.74,1.93-4.47,4-4.47A3.57,3.57,0,0,1,53.69,41.47Z" transform="translate(-1.27 -1.27)" /><path class="cls-7" d="M46.3,48.35a9.88,9.88,0,0,1-1-5c0-1.52.86-3.52,1-5s-1-1.86-1-3.38V29.4a5.74,5.74,0,0,1,.54-2.32,2.45,2.45,0,0,0-1.3,2.18V35c0,2,.84,2,.84,3.17,0,2.24-1.74,4.58-.28,9a6.32,6.32,0,0,0,3.83,3.92A6.53,6.53,0,0,1,46.3,48.35Z" transform="translate(-1.27 -1.27)" /><path class="cls-6" d="M60.9,47.16c1.46-4.38-.28-6.71-.28-9,0-1.15.84-1.21.84-3.17V29.26a2.54,2.54,0,0,0-2.62-2.52h-4c-.93,0-1.3.77-1.85.77s-.92-.77-1.85-.77h-4A2.55,2.55,0,0,0,44.5,29a2.33,2.33,0,0,1,1.33-.36h5.47c.67,0,.81.39,1.68.39s.89-.39,1.81-.39h2.16c1.93,0,2.3.8,2.3,2.36v3.68c0,2.39-.83,2.16-.83,3.4s.55,1.38.92,4.92c.24,2.35-1.1,6-3,7.44l-.18.16c0,.22,0,.37.12.43C57.07,51.55,60,50,60.9,47.16Z" transform="translate(-1.27 -1.27)" /><path class="cls-7" d="M56.27,50.61a16.27,16.27,0,0,0,1-2.41,6.58,6.58,0,0,0-.32-5,4.08,4.08,0,0,0-3.5-2.09l0,.32a4.3,4.3,0,0,1,3.39,4.42,13.67,13.67,0,0,1-.76,4.51Z" transform="translate(-1.27 -1.27)" /><path class="cls-8" d="M56.93,45.86c.09,3.16-1.24,4.91-.7,5.21.84.47,3.73-1.12,4.66-3.92,1.46-4.38-.28-6.71-.28-9,0-1.15.84-1.21.84-3.17V29.26a2.54,2.54,0,0,0-2.62-2.52h-4c-.93,0-1.3.77-1.85.77s-.92-.77-1.85-.77h-4a2.54,2.54,0,0,0-2.62,2.52V35c0,2,.84,2,.84,3.17,0,2.24-1.74,4.58-.28,9,.93,2.8,3.82,4.38,4.66,3.92.55-.3-.79-2.05-.7-5.21.08-2.74,1.93-4.47,4-4.47S56.85,43.12,56.93,45.86Z" transform="translate(-1.27 -1.27)" /><path class="cls-21" d="M64.06,45.43c-.46-3.11-1.6-8.62-3-7.33A13.08,13.08,0,0,1,53,41.38a13.08,13.08,0,0,1-8.06-3.28l-.06,0,0,0L44.73,38l0,0-.08,0h-.24l-.08,0,0,0-.09.05,0,0-.06,0A13.08,13.08,0,0,1,36,41.38a13.08,13.08,0,0,1-8.06-3.28l-.05,0,0,0-.08,0,0,0-.08,0h-.24l-.08,0,0,0-.08,0,0,0-.05,0A13.08,13.08,0,0,1,19,41.38,13.08,13.08,0,0,1,11,38.1c-1.42-1.28-2.56,4.22-3,7.33s-.78,6.12,1.33,6.12H62.73C64.83,51.55,64.51,48.54,64.06,45.43Z" transform="translate(-1.27 -1.27)" /><g class="cls-22"><path class="cls-23" d="M11.63,46.95c.88,2.63,3.6,4.12,4.39,3.68.51-.29-.74-1.93-.65-4.9a4,4,0,0,1,3.2-4.16,12.21,12.21,0,0,1-6.68-2.86C11.79,40.76,10.29,42.95,11.63,46.95Z" transform="translate(-1.27 -1.27)" /><path class="cls-23" d="M22.8,45.73c.08,3-1.17,4.62-.65,4.9.79.44,3.51-1.05,4.39-3.68,1.33-4-.17-6.19-.25-8.24a12.2,12.2,0,0,1-6.68,2.86A4,4,0,0,1,22.8,45.73Z" transform="translate(-1.27 -1.27)" /></g><g class="cls-22"><path class="cls-23" d="M45.75,46.95c.88,2.63,3.6,4.12,4.39,3.68.51-.29-.74-1.93-.65-4.9a4,4,0,0,1,3.2-4.16A12.21,12.21,0,0,1,46,38.71C45.92,40.76,44.42,42.95,45.75,46.95Z" transform="translate(-1.27 -1.27)" /><path class="cls-23" d="M56.93,45.73c.08,3-1.17,4.62-.65,4.9.79.44,3.51-1.05,4.39-3.68,1.33-4-.17-6.19-.25-8.24a12.2,12.2,0,0,1-6.68,2.86A4,4,0,0,1,56.93,45.73Z" transform="translate(-1.27 -1.27)" /></g><path class="cls-24" d="M9,43.71c.36-1.89,1.3-4.51,2.62-5.08-.24-.19-.46-.37-.65-.54-1.42-1.28-2.56,4.22-3,7.33-.36,2.46-.63,4.86.31,5.75A29.72,29.72,0,0,1,9,43.71Z" transform="translate(-1.27 -1.27)" /><path class="cls-25" d="M62.73,51.55c2.11,0,1.79-3,1.33-6.12s-1.6-8.62-3-7.33a12.27,12.27,0,0,1-1.49,1.13A33,33,0,0,1,62,45.58a17.35,17.35,0,0,1,.66,6Z" transform="translate(-1.27 -1.27)" /><path class="cls-26" d="M64.06,45.43c-.46-3.11-1.6-8.62-3-7.33A13.08,13.08,0,0,1,53,41.38a13.08,13.08,0,0,1-8.06-3.28l-.06,0,0,0L44.73,38l0,0-.08,0h-.24l-.08,0,0,0-.09.05,0,0-.06,0A13.08,13.08,0,0,1,36,41.38a13.08,13.08,0,0,1-8.06-3.28l-.05,0,0,0-.08,0,0,0-.08,0h-.24l-.08,0,0,0-.08,0,0,0-.05,0A13.08,13.08,0,0,1,19,41.38,13.08,13.08,0,0,1,11,38.1c-1.42-1.28-2.56,4.22-3,7.33s-.78,6.12,1.33,6.12H62.73C64.83,51.55,64.51,48.54,64.06,45.43Z" transform="translate(-1.27 -1.27)" /><line class="cls-27" x1="34.73" y1="6.73" x2="34.73" y2="11.89" /><polygon class="cls-28" points="31.05 8.91 31.71 8.29 34.73 11.54 37.75 8.29 38.41 8.91 34.73 12.87 31.05 8.91" /><g class="cls-29"><polygon class="cls-13" points="22.27 22.41 34.23 34.35 46.19 22.41 34.23 10.47 22.27 22.41" /><polygon class="cls-14" points="28.91 29.04 32.51 32.64 44.47 20.7 40.87 17.1 28.91 29.04" /><polygon class="cls-15" points="29.49 29.63 32.05 32.18 44.01 20.24 41.45 17.68 29.49 29.63" /><polygon class="cls-14" points="26.16 26.3 28.65 28.79 40.61 16.85 38.12 14.36 26.16 26.3" /><polygon class="cls-16" points="30.13 30.26 30.83 30.96 42.79 19.02 42.09 18.32 30.13 30.26" /><polygon class="cls-15" points="27.66 27.8 28.37 28.5 40.33 16.56 39.62 15.86 27.66 27.8" /><polygon class="cls-17" points="26.51 26.65 26.78 26.92 38.74 14.98 38.47 14.71 26.51 26.65" /><polygon class="cls-18" points="30.48 30.61 30.61 30.74 42.57 18.8 42.44 18.67 30.48 30.61" /><polygon class="cls-19" points="26.57 26.71 26.66 26.8 38.62 14.86 38.53 14.77 26.57 26.71" /></g><path class="cls-30" d="M44.52,21.36a6.34,6.34,0,0,1,2.65-.57H58.89a6.34,6.34,0,0,1,2.66.58V15.48h0L60.13,17.1l-1.42-1.62L57.29,17.1l-1.42-1.62L54.45,17.1,53,15.48,51.61,17.1l-1.42-1.62L48.78,17.1l-1.42-1.62L45.94,17.1l-1.42-1.62L43.1,17.1l-1.42-1.62L40.26,17.1l-1.42-1.62L37.42,17.1,36,15.48,34.59,17.1l-1.42-1.62L31.75,17.1l-1.42-1.62L28.91,17.1l-1.42-1.62L26.07,17.1l-1.42-1.62L23.23,17.1l-1.42-1.62L20.39,17.1,19,15.48,17.56,17.1l-1.42-1.62L14.72,17.1,13.3,15.48,11.88,17.1l-1.42-1.62h0v5.89a6.34,6.34,0,0,1,2.65-.57H24.83a6.34,6.34,0,0,1,2.66.58,6.49,6.49,0,0,1,2.65-.58H41.86A6.36,6.36,0,0,1,44.52,21.36Z" transform="translate(-1.27 -1.27)" /><g class="cls-31"><path class="cls-6" d="M40.2,22.35a.78.78,0,0,0,.67-.67L41.1,20l.23,1.66a.78.78,0,0,0,.67.67l1.66.23L42,22.82a.78.78,0,0,0-.67.67l-.23,1.66-.23-1.66a.78.78,0,0,0-.67-.67l-1.66-.23Z" transform="translate(-1.27 -1.27)" /></g><g class="cls-31"><path class="cls-6" d="M57.23,22.35a.78.78,0,0,0,.67-.67L58.13,20l.23,1.66a.78.78,0,0,0,.67.67l1.66.23L59,22.82a.78.78,0,0,0-.67.67l-.23,1.66-.23-1.66a.78.78,0,0,0-.67-.67l-1.66-.23Z" transform="translate(-1.27 -1.27)" /></g><g class="cls-31"><path class="cls-6" d="M23.17,22.35a.78.78,0,0,0,.67-.67L24.07,20l.23,1.66a.78.78,0,0,0,.67.67l1.66.23L25,22.82a.78.78,0,0,0-.67.67l-.23,1.66-.23-1.66a.78.78,0,0,0-.67-.67l-1.66-.23Z" transform="translate(-1.27 -1.27)" /></g></g></g></svg>