<svg xmlns="http://www.w3.org/2000/svg" xmlns:xlink="http://www.w3.org/1999/xlink" viewBox="0 0 69.46 69.46"><defs><style>.cls-1{isolation:isolate;}.cls-2{stroke:#dcddde;stroke-width:1.06px;fill:url(#New_Gradient_Swatch_2);}.cls-10,.cls-11,.cls-19,.cls-2{stroke-miterlimit:10;}.cls-3{fill:url(#New_Gradient_Swatch_2-2);}.cls-4{fill:#ebe3d7;}.cls-18,.cls-5,.cls-8{fill:#fff;}.cls-5{opacity:0.6;}.cls-6{fill:#d9d4ca;}.cls-7{fill:#eaeeef;}.cls-9{fill:#d8dee0;}.cls-10,.cls-11,.cls-15,.cls-19{fill:none;}.cls-10{stroke:#b1bfc4;}.cls-10,.cls-11,.cls-19{stroke-width:0.83px;}.cls-11{stroke:#b2b6b0;}.cls-12{fill:#dd7b7f;}.cls-13{opacity:0.5;}.cls-13,.cls-17{mix-blend-mode:multiply;}.cls-14{fill:#b94656;}.cls-15{stroke:#116c91;stroke-linecap:round;stroke-linejoin:round;stroke-width:0.9px;}.cls-16{fill:#116c91;}.cls-17{fill:#181a1d;opacity:0.05;}.cls-18{opacity:0.3;}.cls-19{stroke:#b94656;}</style><linearGradient id="New_Gradient_Swatch_2" x1="34.73" y1="45.42" x2="34.73" y2="62.25" gradientUnits="userSpaceOnUse"><stop offset="0" stop-color="#fff" /><stop offset="1" stop-color="#f2f2f2" /></linearGradient><linearGradient id="New_Gradient_Swatch_2-2" x1="36" y1="24.22" x2="36" y2="7.14" xlink:href="#New_Gradient_Swatch_2" /></defs><title>D6740_crown_porcelain_ceramic</title><g class="cls-1"><g id="D6740_-_crown_porcelain_ceramic" data-name="D6740 - crown, porcelain/ceramic"><path class="cls-4" d="M13.11,24.17h4a3,3,0,0,1,1.78.66l.07,0,.06,0a3,3,0,0,1,1.78-.66h4a3.7,3.7,0,0,1,2.66,1.09V19.5h0l-1.42,1.63L24.66,19.5h0l-1.42,1.63L21.82,19.5h0L20.4,21.12,19,19.5h0l-1.42,1.63L16.14,19.5h0l-1.42,1.63L13.3,19.5h0l-1.42,1.63L10.46,19.5h0v5.75A3.7,3.7,0,0,1,13.11,24.17Z" transform="translate(-1.27 -1.27)" /><path class="cls-5" d="M27.5,19.5h0l-1.42,1.63-.89-1v4.08a3.68,3.68,0,0,1,2.31,1.07Z" transform="translate(-1.27 -1.27)" /><path class="cls-6" d="M10.46,19.5h0v5.75a3.6,3.6,0,0,1,.73-.56V20.33Z" transform="translate(-1.27 -1.27)" /><path class="cls-4" d="M30.13,24.17h4a3,3,0,0,1,1.78.66l.07,0,.06,0a3,3,0,0,1,1.78-.66h4a3.7,3.7,0,0,1,2.66,1.09V19.5h0L43.1,21.12,41.68,19.5h0l-1.42,1.63L38.84,19.5h0l-1.42,1.63L36,19.5h0l-1.42,1.63L33.16,19.5h0l-1.42,1.63L30.33,19.5h0l-1.42,1.63L27.49,19.5h0v5.75A3.7,3.7,0,0,1,30.13,24.17Z" transform="translate(-1.27 -1.27)" /><path class="cls-5" d="M44.52,19.5h0L43.1,21.12l-.89-1v4.08a3.68,3.68,0,0,1,2.31,1.07Z" transform="translate(-1.27 -1.27)" /><path class="cls-6" d="M27.49,19.5h0v5.75a3.6,3.6,0,0,1,.73-.56V20.33Z" transform="translate(-1.27 -1.27)" /><path class="cls-4" d="M47.18,24.17h4a3,3,0,0,1,1.78.66l.07,0,.06,0a3,3,0,0,1,1.78-.66h4a3.7,3.7,0,0,1,2.66,1.09V19.5h0l-1.42,1.63L58.72,19.5h0L57.3,21.12,55.89,19.5h0l-1.42,1.63L53,19.5h0l-1.42,1.63L50.21,19.5h0l-1.42,1.63L47.37,19.5h0l-1.42,1.63L44.53,19.5h0v5.75A3.7,3.7,0,0,1,47.18,24.17Z" transform="translate(-1.27 -1.27)" /><path class="cls-5" d="M61.56,19.5h0l-1.42,1.63-.89-1v4.08a3.68,3.68,0,0,1,2.31,1.07Z" transform="translate(-1.27 -1.27)" /><path class="cls-6" d="M44.53,19.5h0v5.75a3.6,3.6,0,0,1,.73-.56V20.33Z" transform="translate(-1.27 -1.27)" /><path class="cls-7" d="M40,45.86c.09,3.16-1.24,4.91-.7,5.21.84.47,3.73-1.12,4.66-3.92,1.46-4.38-.28-6.71-.28-9,0-1.15.84-1.21.84-3.17V29.26a2.54,2.54,0,0,0-2.62-2.52h-4c-.93,0-1.3.77-1.85.77s-.92-.77-1.85-.77h-4a2.54,2.54,0,0,0-2.62,2.52V35c0,2,.84,2,.84,3.17,0,2.24-1.74,4.58-.28,9,.93,2.8,3.82,4.38,4.66,3.92.55-.3-.79-2.05-.7-5.21.08-2.74,1.93-4.47,4-4.47S39.88,43.12,40,45.86Z" transform="translate(-1.27 -1.27)" /><path class="cls-8" d="M36.71,41.47v-.34s-4.23-.82-5.73,2.77c-1.25,3,.47,6,1.66,7.22l.09,0c.55-.3-.79-2.05-.7-5.21.08-2.74,1.93-4.47,4-4.47A3.57,3.57,0,0,1,36.71,41.47Z" transform="translate(-1.27 -1.27)" /><path class="cls-9" d="M29.33,48.35a9.88,9.88,0,0,1-1-5c0-1.52.86-3.52,1-5s-1-1.86-1-3.38V29.4a5.74,5.74,0,0,1,.54-2.32,2.45,2.45,0,0,0-1.3,2.18V35c0,2,.84,2,.84,3.17,0,2.24-1.74,4.58-.28,9a6.32,6.32,0,0,0,3.83,3.92A6.53,6.53,0,0,1,29.33,48.35Z" transform="translate(-1.27 -1.27)" /><path class="cls-8" d="M43.93,47.16c1.46-4.38-.28-6.71-.28-9,0-1.15.84-1.21.84-3.17V29.26a2.54,2.54,0,0,0-2.62-2.52h-4c-.93,0-1.3.77-1.85.77s-.92-.77-1.85-.77h-4A2.55,2.55,0,0,0,27.53,29a2.33,2.33,0,0,1,1.33-.36h5.47c.67,0,.81.39,1.68.39s.89-.39,1.81-.39H40c1.93,0,2.3.8,2.3,2.36v3.68c0,2.39-.83,2.16-.83,3.4s.55,1.38.92,4.92c.24,2.35-1.1,6-3,7.44l-.18.16c0,.22,0,.37.12.43C40.1,51.55,43,50,43.93,47.16Z" transform="translate(-1.27 -1.27)" /><path class="cls-9" d="M39.29,50.61a16.27,16.27,0,0,0,1-2.41,6.58,6.58,0,0,0-.32-5,4.08,4.08,0,0,0-3.5-2.09l0,.32A4.3,4.3,0,0,1,40,45.86a13.67,13.67,0,0,1-.76,4.51Z" transform="translate(-1.27 -1.27)" /><path class="cls-10" d="M40,45.86c.09,3.16-1.24,4.91-.7,5.21.84.47,3.73-1.12,4.66-3.92,1.46-4.38-.28-6.71-.28-9,0-1.15.84-1.21.84-3.17V29.26a2.54,2.54,0,0,0-2.62-2.52h-4c-.93,0-1.3.77-1.85.77s-.92-.77-1.85-.77h-4a2.54,2.54,0,0,0-2.62,2.52V35c0,2,.84,2,.84,3.17,0,2.24-1.74,4.58-.28,9,.93,2.8,3.82,4.38,4.66,3.92.55-.3-.79-2.05-.7-5.21.08-2.74,1.93-4.47,4-4.47S39.88,43.12,40,45.86Z" transform="translate(-1.27 -1.27)" /><path class="cls-11" d="M44.79,25a3.73,3.73,0,0,1,2.38-.83h4a3,3,0,0,1,1.78.66l.07,0,.06,0a3,3,0,0,1,1.78-.66h4a3.72,3.72,0,0,1,2.38.84l.28-.21V19.48h0L60.13,21.1l-1.42-1.62L57.29,21.1l-1.42-1.62L54.45,21.1,53,19.48,51.61,21.1l-1.42-1.62L48.78,21.1l-1.42-1.62L45.94,21.1l-1.42-1.62L43.1,21.1l-1.42-1.62L40.26,21.1l-1.42-1.62L37.42,21.1,36,19.48,34.59,21.1l-1.42-1.62L31.75,21.1l-1.42-1.62L28.91,21.1l-1.42-1.62L26.07,21.1l-1.42-1.62L23.23,21.1l-1.42-1.62L20.39,21.1,19,19.48,17.56,21.1l-1.42-1.62L14.72,21.1,13.3,19.48,11.88,21.1l-1.42-1.62h0v5.3l.27.21a3.73,3.73,0,0,1,2.38-.83h4a3,3,0,0,1,1.78.66l.07,0,.06,0a3,3,0,0,1,1.78-.66h4a3.72,3.72,0,0,1,2.38.84l.27.21.27-.21a3.73,3.73,0,0,1,2.38-.83h4a3,3,0,0,1,1.78.66l.07,0,.06,0a3,3,0,0,1,1.78-.66h4a3.72,3.72,0,0,1,2.38.84l.28.22Z" transform="translate(-1.27 -1.27)" /><path class="cls-7" d="M23,45.86c.09,3.16-1.24,4.91-.7,5.21C23.13,51.55,26,50,27,47.16c1.46-4.38-.28-6.71-.28-9,0-1.15.84-1.21.84-3.17V29.26a2.54,2.54,0,0,0-2.62-2.52h-4c-.93,0-1.3.77-1.85.77s-.92-.77-1.85-.77h-4a2.54,2.54,0,0,0-2.62,2.52V35c0,2,.84,2,.84,3.17,0,2.24-1.74,4.58-.28,9,.93,2.8,3.82,4.38,4.66,3.92.55-.3-.79-2.05-.7-5.21.08-2.74,1.93-4.47,4-4.47S22.91,43.12,23,45.86Z" transform="translate(-1.27 -1.27)" /><path class="cls-8" d="M19.74,41.47v-.34s-4.23-.82-5.73,2.77c-1.25,3,.47,6,1.66,7.22l.09,0c.55-.3-.79-2.05-.7-5.21.08-2.74,1.93-4.47,4-4.47A3.57,3.57,0,0,1,19.74,41.47Z" transform="translate(-1.27 -1.27)" /><path class="cls-9" d="M12.36,48.35a9.88,9.88,0,0,1-1-5c0-1.52.86-3.52,1-5s-1-1.86-1-3.38V29.4a5.74,5.74,0,0,1,.54-2.32,2.45,2.45,0,0,0-1.3,2.18V35c0,2,.84,2,.84,3.17,0,2.24-1.74,4.58-.28,9a6.32,6.32,0,0,0,3.83,3.92A6.53,6.53,0,0,1,12.36,48.35Z" transform="translate(-1.27 -1.27)" /><path class="cls-8" d="M27,47.16c1.46-4.38-.28-6.71-.28-9,0-1.15.84-1.21.84-3.17V29.26a2.54,2.54,0,0,0-2.62-2.52h-4c-.93,0-1.3.77-1.85.77s-.92-.77-1.85-.77h-4A2.55,2.55,0,0,0,10.55,29a2.33,2.33,0,0,1,1.33-.36h5.47c.67,0,.81.39,1.68.39s.89-.39,1.81-.39H23c1.93,0,2.3.8,2.3,2.36v3.68c0,2.39-.83,2.16-.83,3.4s.55,1.38.92,4.92c.24,2.35-1.1,6-3,7.44l-.18.16c0,.22,0,.37.12.43C23.13,51.55,26,50,27,47.16Z" transform="translate(-1.27 -1.27)" /><path class="cls-9" d="M22.32,50.61a16.27,16.27,0,0,0,1-2.41,6.58,6.58,0,0,0-.32-5,4.08,4.08,0,0,0-3.5-2.09l0,.32A4.3,4.3,0,0,1,23,45.86a13.67,13.67,0,0,1-.76,4.51Z" transform="translate(-1.27 -1.27)" /><path class="cls-10" d="M23,45.86c.09,3.16-1.24,4.91-.7,5.21C23.13,51.55,26,50,27,47.16c1.46-4.38-.28-6.71-.28-9,0-1.15.84-1.21.84-3.17V29.26a2.54,2.54,0,0,0-2.62-2.52h-4c-.93,0-1.3.77-1.85.77s-.92-.77-1.85-.77h-4a2.54,2.54,0,0,0-2.62,2.52V35c0,2,.84,2,.84,3.17,0,2.24-1.74,4.58-.28,9,.93,2.8,3.82,4.38,4.66,3.92.55-.3-.79-2.05-.7-5.21.08-2.74,1.93-4.47,4-4.47S22.91,43.12,23,45.86Z" transform="translate(-1.27 -1.27)" /><path class="cls-7" d="M56.93,45.86c.09,3.16-1.24,4.91-.7,5.21.84.47,3.73-1.12,4.66-3.92,1.46-4.38-.28-6.71-.28-9,0-1.15.84-1.21.84-3.17V29.26a2.54,2.54,0,0,0-2.62-2.52h-4c-.93,0-1.3.77-1.85.77s-.92-.77-1.85-.77h-4a2.54,2.54,0,0,0-2.62,2.52V35c0,2,.84,2,.84,3.17,0,2.24-1.74,4.58-.28,9,.93,2.8,3.82,4.38,4.66,3.92.55-.3-.79-2.05-.7-5.21.08-2.74,1.93-4.47,4-4.47S56.85,43.12,56.93,45.86Z" transform="translate(-1.27 -1.27)" /><path class="cls-8" d="M53.69,41.47v-.34s-4.23-.82-5.73,2.77c-1.25,3,.47,6,1.66,7.22l.09,0c.55-.3-.79-2.05-.7-5.21.08-2.74,1.93-4.47,4-4.47A3.57,3.57,0,0,1,53.69,41.47Z" transform="translate(-1.27 -1.27)" /><path class="cls-9" d="M46.3,48.35a9.88,9.88,0,0,1-1-5c0-1.52.86-3.52,1-5s-1-1.86-1-3.38V29.4a5.74,5.74,0,0,1,.54-2.32,2.45,2.45,0,0,0-1.3,2.18V35c0,2,.84,2,.84,3.17,0,2.24-1.74,4.58-.28,9a6.32,6.32,0,0,0,3.83,3.92A6.53,6.53,0,0,1,46.3,48.35Z" transform="translate(-1.27 -1.27)" /><path class="cls-8" d="M60.9,47.16c1.46-4.38-.28-6.71-.28-9,0-1.15.84-1.21.84-3.17V29.26a2.54,2.54,0,0,0-2.62-2.52h-4c-.93,0-1.3.77-1.85.77s-.92-.77-1.85-.77h-4A2.55,2.55,0,0,0,44.5,29a2.33,2.33,0,0,1,1.33-.36h5.47c.67,0,.81.39,1.68.39s.89-.39,1.81-.39h2.16c1.93,0,2.3.8,2.3,2.36v3.68c0,2.39-.83,2.16-.83,3.4s.55,1.38.92,4.92c.24,2.35-1.1,6-3,7.44l-.18.16c0,.22,0,.37.12.43C57.07,51.55,60,50,60.9,47.16Z" transform="translate(-1.27 -1.27)" /><path class="cls-9" d="M56.27,50.61a16.27,16.27,0,0,0,1-2.41,6.58,6.58,0,0,0-.32-5,4.08,4.08,0,0,0-3.5-2.09l0,.32a4.3,4.3,0,0,1,3.39,4.42,13.67,13.67,0,0,1-.76,4.51Z" transform="translate(-1.27 -1.27)" /><path class="cls-10" d="M56.93,45.86c.09,3.16-1.24,4.91-.7,5.21.84.47,3.73-1.12,4.66-3.92,1.46-4.38-.28-6.71-.28-9,0-1.15.84-1.21.84-3.17V29.26a2.54,2.54,0,0,0-2.62-2.52h-4c-.93,0-1.3.77-1.85.77s-.92-.77-1.85-.77h-4a2.54,2.54,0,0,0-2.62,2.52V35c0,2,.84,2,.84,3.17,0,2.24-1.74,4.58-.28,9,.93,2.8,3.82,4.38,4.66,3.92.55-.3-.79-2.05-.7-5.21.08-2.74,1.93-4.47,4-4.47S56.85,43.12,56.93,45.86Z" transform="translate(-1.27 -1.27)" /><path class="cls-12" d="M64.06,45.43c-.46-3.11-1.6-8.62-3-7.33A13.08,13.08,0,0,1,53,41.38a13.08,13.08,0,0,1-8.06-3.28l-.06,0,0,0L44.73,38l0,0-.08,0h-.24l-.08,0,0,0-.09.05,0,0-.06,0A13.08,13.08,0,0,1,36,41.38a13.08,13.08,0,0,1-8.06-3.28l-.05,0,0,0-.08,0,0,0-.08,0h-.24l-.08,0,0,0-.08,0,0,0-.05,0A13.08,13.08,0,0,1,19,41.38,13.08,13.08,0,0,1,11,38.1c-1.42-1.28-2.56,4.22-3,7.33s-.78,6.12,1.33,6.12H62.73C64.83,51.55,64.51,48.54,64.06,45.43Z" transform="translate(-1.27 -1.27)" /><g class="cls-13"><path class="cls-14" d="M11.63,46.95c.88,2.63,3.6,4.12,4.39,3.68.51-.29-.74-1.93-.65-4.9a4,4,0,0,1,3.2-4.16,12.21,12.21,0,0,1-6.68-2.86C11.79,40.76,10.29,42.95,11.63,46.95Z" transform="translate(-1.27 -1.27)" /><path class="cls-14" d="M22.8,45.73c.08,3-1.17,4.62-.65,4.9.79.44,3.51-1.05,4.39-3.68,1.33-4-.17-6.19-.25-8.24a12.2,12.2,0,0,1-6.68,2.86A4,4,0,0,1,22.8,45.73Z" transform="translate(-1.27 -1.27)" /></g><g class="cls-13"><path class="cls-14" d="M45.75,46.95c.88,2.63,3.6,4.12,4.39,3.68.51-.29-.74-1.93-.65-4.9a4,4,0,0,1,3.2-4.16A12.21,12.21,0,0,1,46,38.71C45.92,40.76,44.42,42.95,45.75,46.95Z" transform="translate(-1.27 -1.27)" /><path class="cls-14" d="M56.93,45.73c.08,3-1.17,4.62-.65,4.9.79.44,3.51-1.05,4.39-3.68,1.33-4-.17-6.19-.25-8.24a12.2,12.2,0,0,1-6.68,2.86A4,4,0,0,1,56.93,45.73Z" transform="translate(-1.27 -1.27)" /></g><line class="cls-15" x1="51.75" y1="7.73" x2="51.75" y2="14.89" /><polygon class="cls-16" points="48.07 11.91 48.73 11.3 51.75 14.55 54.77 11.3 55.43 11.91 51.75 15.87 48.07 11.91" /><line class="cls-15" x1="17.71" y1="7.73" x2="17.71" y2="14.89" /><polygon class="cls-16" points="14.03 11.91 14.69 11.3 17.71 14.55 20.73 11.3 21.39 11.91 17.71 15.87 14.03 11.91" /><path class="cls-17" d="M9,43.71c.36-1.89,1.3-4.51,2.62-5.08-.24-.19-.46-.37-.65-.54-1.42-1.28-2.56,4.22-3,7.33-.36,2.46-.63,4.86.31,5.75A29.72,29.72,0,0,1,9,43.71Z" transform="translate(-1.27 -1.27)" /><path class="cls-18" d="M62.73,51.55c2.11,0,1.79-3,1.33-6.12s-1.6-8.62-3-7.33a12.27,12.27,0,0,1-1.49,1.13A33,33,0,0,1,62,45.58a17.35,17.35,0,0,1,.66,6Z" transform="translate(-1.27 -1.27)" /><path class="cls-19" d="M64.06,45.43c-.46-3.11-1.6-8.62-3-7.33A13.08,13.08,0,0,1,53,41.38a13.08,13.08,0,0,1-8.06-3.28l-.06,0,0,0L44.73,38l0,0-.08,0h-.24l-.08,0,0,0-.09.05,0,0-.06,0A13.08,13.08,0,0,1,36,41.38a13.08,13.08,0,0,1-8.06-3.28l-.05,0,0,0-.08,0,0,0-.08,0h-.24l-.08,0,0,0-.08,0,0,0-.05,0A13.08,13.08,0,0,1,19,41.38,13.08,13.08,0,0,1,11,38.1c-1.42-1.28-2.56,4.22-3,7.33s-.78,6.12,1.33,6.12H62.73C64.83,51.55,64.51,48.54,64.06,45.43Z" transform="translate(-1.27 -1.27)" /></g></g></svg>