<svg xmlns="http://www.w3.org/2000/svg" xmlns:xlink="http://www.w3.org/1999/xlink" viewBox="0 0 69.46 69.46"><defs><style>.cls-1,.cls-26,.cls-27,.cls-30,.cls-8{fill:none;}.cls-2{isolation:isolate;}.cls-3{stroke:#dcddde;stroke-width:1.06px;fill:url(#New_Gradient_Swatch_2);}.cls-26,.cls-3,.cls-30,.cls-8{stroke-miterlimit:10;}.cls-4{fill:url(#New_Gradient_Swatch_2-2);}.cls-5{fill:#eaeeef;}.cls-10,.cls-25,.cls-6{fill:#fff;}.cls-7{fill:#d8dee0;}.cls-8{stroke:#b1bfc4;}.cls-26,.cls-30,.cls-8{stroke-width:0.83px;}.cls-9{fill:#ebe3d7;}.cls-10{opacity:0.6;}.cls-11,.cls-24{fill:#181a1d;}.cls-11{opacity:0.07;}.cls-11,.cls-22,.cls-24{mix-blend-mode:multiply;}.cls-12{clip-path:url(#clip-path);}.cls-13{fill:#dcb406;}.cls-14{fill:#e7c762;}.cls-15{fill:#eed68f;}.cls-16{fill:#f5e6bf;}.cls-17{fill:#f2dda5;}.cls-18{fill:#faf3e3;}.cls-19{fill:#f9efd7;}.cls-20{clip-path:url(#clip-path-2);}.cls-21{fill:#dd7b7f;}.cls-22{opacity:0.5;}.cls-23{fill:#b94656;}.cls-24{opacity:0.05;}.cls-25{opacity:0.3;}.cls-26{stroke:#b94656;}.cls-27{stroke:#116c91;stroke-linecap:round;stroke-linejoin:round;stroke-width:0.9px;}.cls-28{fill:#116c91;}.cls-29{clip-path:url(#clip-path-3);}.cls-30{stroke:#b2b6b0;}.cls-31{opacity:0.75;}</style><linearGradient id="New_Gradient_Swatch_2" x1="34.73" y1="45.42" x2="34.73" y2="62.25" gradientUnits="userSpaceOnUse"><stop offset="0" stop-color="#fff" /><stop offset="1" stop-color="#f2f2f2" /></linearGradient><linearGradient id="New_Gradient_Swatch_2-2" x1="36" y1="24.22" x2="36" y2="7.14" xlink:href="#New_Gradient_Swatch_2" /><clipPath id="clip-path" transform="translate(-1.27 -1.27)"><path class="cls-1" d="M62,25l-.62.49a3.4,3.4,0,0,0-2.45-1h-4a2.65,2.65,0,0,0-1.61.6l-.17.12a.14.14,0,0,1-.16,0L52.79,25a2.66,2.66,0,0,0-1.61-.6h-4a3.4,3.4,0,0,0-2.44,1l-.62-.49V21.81l.29-.13a6.62,6.62,0,0,1,2.77-.6H58.89a6.62,6.62,0,0,1,2.78.6l.29.13Z" /></clipPath><clipPath id="clip-path-2" transform="translate(-1.27 -1.27)"><path class="cls-1" d="M27.9,25l-.62.49a3.4,3.4,0,0,0-2.45-1h-4a2.65,2.65,0,0,0-1.61.6l-.17.12a.14.14,0,0,1-.16,0L18.74,25a2.66,2.66,0,0,0-1.61-.6h-4a3.4,3.4,0,0,0-2.44,1l-.62-.49V21.81l.29-.13a6.62,6.62,0,0,1,2.77-.6H24.83a6.62,6.62,0,0,1,2.78.6l.29.13Z" /></clipPath><clipPath id="clip-path-3" transform="translate(-1.27 -1.27)"><path class="cls-1" d="M44.48,21.63a6.61,6.61,0,0,0-2.62-.54H30.14a6.61,6.61,0,0,0-2.65.56v3.63l-.21.16h.43a3.4,3.4,0,0,1,2.44-1h4a2.66,2.66,0,0,1,1.61.6l.14.11a.14.14,0,0,0,.16,0l.17-.12a2.65,2.65,0,0,1,1.61-.6h4a3.4,3.4,0,0,1,2.45,1h.42l-.25-.21Z" /></clipPath></defs><title>D6750_crown_porcelain_fused_to_high_noble_metal</title><g class="cls-2"><g id="D6750_-_crown_porcelain_fused_to_high_noble_metal" data-name="D6750 - crown, porcelain fused to high noble metal"><path class="cls-5" d="M40,45.86c.09,3.16-1.24,4.91-.7,5.21.84.47,3.73-1.12,4.66-3.92,1.46-4.38-.28-6.71-.28-9,0-1.15.84-1.21.84-3.17V29.26a2.54,2.54,0,0,0-2.62-2.52h-4c-.93,0-1.3.77-1.85.77s-.92-.77-1.85-.77h-4a2.54,2.54,0,0,0-2.62,2.52V35c0,2,.84,2,.84,3.17,0,2.24-1.74,4.58-.28,9,.93,2.8,3.82,4.38,4.66,3.92.55-.3-.79-2.05-.7-5.21.08-2.74,1.93-4.47,4-4.47S39.88,43.12,40,45.86Z" transform="translate(-1.27 -1.27)" /><path class="cls-6" d="M36.71,41.47v-.34s-4.23-.82-5.73,2.77c-1.25,3,.47,6,1.66,7.22l.09,0c.55-.3-.79-2.05-.7-5.21.08-2.74,1.93-4.47,4-4.47A3.57,3.57,0,0,1,36.71,41.47Z" transform="translate(-1.27 -1.27)" /><path class="cls-7" d="M29.33,48.35a9.88,9.88,0,0,1-1-5c0-1.52.86-3.52,1-5s-1-1.86-1-3.38V29.4a5.74,5.74,0,0,1,.54-2.32,2.45,2.45,0,0,0-1.3,2.18V35c0,2,.84,2,.84,3.17,0,2.24-1.74,4.58-.28,9a6.32,6.32,0,0,0,3.83,3.92A6.53,6.53,0,0,1,29.33,48.35Z" transform="translate(-1.27 -1.27)" /><path class="cls-6" d="M43.93,47.16c1.46-4.38-.28-6.71-.28-9,0-1.15.84-1.21.84-3.17V29.26a2.54,2.54,0,0,0-2.62-2.52h-4c-.93,0-1.3.77-1.85.77s-.92-.77-1.85-.77h-4A2.55,2.55,0,0,0,27.53,29a2.33,2.33,0,0,1,1.33-.36h5.47c.67,0,.81.39,1.68.39s.89-.39,1.81-.39H40c1.93,0,2.3.8,2.3,2.36v3.68c0,2.39-.83,2.16-.83,3.4s.55,1.38.92,4.92c.24,2.35-1.1,6-3,7.44l-.18.16c0,.22,0,.37.12.43C40.1,51.55,43,50,43.93,47.16Z" transform="translate(-1.27 -1.27)" /><path class="cls-7" d="M39.29,50.61a16.27,16.27,0,0,0,1-2.41,6.58,6.58,0,0,0-.32-5,4.08,4.08,0,0,0-3.5-2.09l0,.32A4.3,4.3,0,0,1,40,45.86a13.67,13.67,0,0,1-.76,4.51Z" transform="translate(-1.27 -1.27)" /><path class="cls-8" d="M40,45.86c.09,3.16-1.24,4.91-.7,5.21.84.47,3.73-1.12,4.66-3.92,1.46-4.38-.28-6.71-.28-9,0-1.15.84-1.21.84-3.17V29.26a2.54,2.54,0,0,0-2.62-2.52h-4c-.93,0-1.3.77-1.85.77s-.92-.77-1.85-.77h-4a2.54,2.54,0,0,0-2.62,2.52V35c0,2,.84,2,.84,3.17,0,2.24-1.74,4.58-.28,9,.93,2.8,3.82,4.38,4.66,3.92.55-.3-.79-2.05-.7-5.21.08-2.74,1.93-4.47,4-4.47S39.88,43.12,40,45.86Z" transform="translate(-1.27 -1.27)" /><path class="cls-9" d="M34.15,20.79h7.71a6.34,6.34,0,0,1,2.66.58V15.48h0L43.1,17.1l-1.42-1.62h0L40.26,17.1l-1.42-1.62h0L37.42,17.1,36,15.48h0L34.59,17.1l-1.42-1.62h0L31.75,17.1l-1.42-1.62h0L28.91,17.1l-1.42-1.62h0v5.89a6.34,6.34,0,0,1,2.65-.57Z" transform="translate(-1.27 -1.27)" /><path class="cls-10" d="M44.52,21.36V15.48h0L43.1,17.1l-.89-1V20.8A6.31,6.31,0,0,1,44.52,21.36Z" transform="translate(-1.27 -1.27)" /><path class="cls-11" d="M28.22,16.31l-.73-.83h0v5.89a6.16,6.16,0,0,1,.73-.28Z" transform="translate(-1.27 -1.27)" /><path class="cls-9" d="M51.18,20.79h7.71a6.34,6.34,0,0,1,2.66.58V15.48h0L60.13,17.1l-1.42-1.62h0L57.29,17.1l-1.42-1.62h0L54.45,17.1,53,15.48h0L51.61,17.1l-1.42-1.62h0L48.78,17.1l-1.42-1.62h0L45.94,17.1l-1.42-1.62h0v5.89a6.34,6.34,0,0,1,2.65-.57Z" transform="translate(-1.27 -1.27)" /><path class="cls-10" d="M61.55,21.36V15.48h0L60.13,17.1l-.89-1V20.8A6.31,6.31,0,0,1,61.55,21.36Z" transform="translate(-1.27 -1.27)" /><path class="cls-11" d="M45.25,16.31l-.73-.83h0v5.89a6.16,6.16,0,0,1,.73-.28Z" transform="translate(-1.27 -1.27)" /><g class="cls-12"><polygon class="cls-13" points="39.29 22.32 51.23 34.24 63.17 22.32 51.23 10.4 39.29 22.32" /><polygon class="cls-14" points="45.92 28.94 49.51 32.53 61.46 20.61 57.86 17.02 45.92 28.94" /><polygon class="cls-15" points="46.5 29.52 49.05 32.07 61 20.15 58.44 17.6 46.5 29.52" /><polygon class="cls-14" points="43.17 26.2 45.66 28.69 57.61 16.77 55.11 14.28 43.17 26.2" /><polygon class="cls-16" points="47.14 30.16 47.84 30.86 59.78 18.94 59.08 18.24 47.14 30.16" /><polygon class="cls-15" points="44.68 27.7 45.38 28.4 57.32 16.48 56.62 15.78 44.68 27.7" /><polygon class="cls-17" points="43.53 26.55 43.8 26.82 55.74 14.9 55.47 14.63 43.53 26.55" /><polygon class="cls-18" points="47.48 30.5 47.61 30.64 59.56 18.71 59.43 18.58 47.48 30.5" /><polygon class="cls-19" points="43.58 26.61 43.67 26.7 55.61 14.78 55.53 14.69 43.58 26.61" /></g><path class="cls-9" d="M17.12,20.79h7.71a6.34,6.34,0,0,1,2.66.58V15.48h0L26.07,17.1l-1.42-1.62h0L23.23,17.1l-1.42-1.62h0L20.39,17.1,19,15.48h0L17.56,17.1l-1.42-1.62h0L14.72,17.1,13.3,15.48h0L11.88,17.1l-1.42-1.62h0v5.89a6.34,6.34,0,0,1,2.65-.57Z" transform="translate(-1.27 -1.27)" /><path class="cls-10" d="M27.49,21.36V15.48h0L26.07,17.1l-.89-1V20.8A6.31,6.31,0,0,1,27.49,21.36Z" transform="translate(-1.27 -1.27)" /><path class="cls-11" d="M11.19,16.31l-.73-.83h0v5.89a6.16,6.16,0,0,1,.73-.28Z" transform="translate(-1.27 -1.27)" /><g class="cls-20"><polygon class="cls-13" points="5.23 22.32 17.17 34.24 29.12 22.32 17.17 10.4 5.23 22.32" /><polygon class="cls-14" points="11.86 28.94 15.46 32.53 27.4 20.61 23.81 17.02 11.86 28.94" /><polygon class="cls-15" points="12.44 29.52 15 32.07 26.94 20.15 24.39 17.6 12.44 29.52" /><polygon class="cls-14" points="9.12 26.2 11.61 28.69 23.55 16.77 21.06 14.28 9.12 26.2" /><polygon class="cls-16" points="13.08 30.16 13.78 30.86 25.73 18.94 25.02 18.24 13.08 30.16" /><polygon class="cls-15" points="10.62 27.7 11.32 28.4 23.26 16.48 22.56 15.78 10.62 27.7" /><polygon class="cls-17" points="9.47 26.55 9.74 26.82 21.68 14.9 21.41 14.63 9.47 26.55" /><polygon class="cls-18" points="13.43 30.5 13.56 30.64 25.5 18.71 25.37 18.58 13.43 30.5" /><polygon class="cls-19" points="9.53 26.61 9.62 26.7 21.56 14.78 21.47 14.69 9.53 26.61" /></g><path class="cls-5" d="M23,45.86c.09,3.16-1.24,4.91-.7,5.21C23.13,51.55,26,50,27,47.16c1.46-4.38-.28-6.71-.28-9,0-1.15.84-1.21.84-3.17V29.26a2.54,2.54,0,0,0-2.62-2.52h-4c-.93,0-1.3.77-1.85.77s-.92-.77-1.85-.77h-4a2.54,2.54,0,0,0-2.62,2.52V35c0,2,.84,2,.84,3.17,0,2.24-1.74,4.58-.28,9,.93,2.8,3.82,4.38,4.66,3.92.55-.3-.79-2.05-.7-5.21.08-2.74,1.93-4.47,4-4.47S22.91,43.12,23,45.86Z" transform="translate(-1.27 -1.27)" /><path class="cls-6" d="M19.74,41.47v-.34s-4.23-.82-5.73,2.77c-1.25,3,.47,6,1.66,7.22l.09,0c.55-.3-.79-2.05-.7-5.21.08-2.74,1.93-4.47,4-4.47A3.57,3.57,0,0,1,19.74,41.47Z" transform="translate(-1.27 -1.27)" /><path class="cls-7" d="M12.36,48.35a9.88,9.88,0,0,1-1-5c0-1.52.86-3.52,1-5s-1-1.86-1-3.38V29.4a5.74,5.74,0,0,1,.54-2.32,2.45,2.45,0,0,0-1.3,2.18V35c0,2,.84,2,.84,3.17,0,2.24-1.74,4.58-.28,9a6.32,6.32,0,0,0,3.83,3.92A6.53,6.53,0,0,1,12.36,48.35Z" transform="translate(-1.27 -1.27)" /><path class="cls-6" d="M27,47.16c1.46-4.38-.28-6.71-.28-9,0-1.15.84-1.21.84-3.17V29.26a2.54,2.54,0,0,0-2.62-2.52h-4c-.93,0-1.3.77-1.85.77s-.92-.77-1.85-.77h-4A2.55,2.55,0,0,0,10.55,29a2.33,2.33,0,0,1,1.33-.36h5.47c.67,0,.81.39,1.68.39s.89-.39,1.81-.39H23c1.93,0,2.3.8,2.3,2.36v3.68c0,2.39-.83,2.16-.83,3.4s.55,1.38.92,4.92c.24,2.35-1.1,6-3,7.44l-.18.16c0,.22,0,.37.12.43C23.13,51.55,26,50,27,47.16Z" transform="translate(-1.27 -1.27)" /><path class="cls-7" d="M22.32,50.61a16.27,16.27,0,0,0,1-2.41,6.58,6.58,0,0,0-.32-5,4.08,4.08,0,0,0-3.5-2.09l0,.32A4.3,4.3,0,0,1,23,45.86a13.67,13.67,0,0,1-.76,4.51Z" transform="translate(-1.27 -1.27)" /><path class="cls-8" d="M23,45.86c.09,3.16-1.24,4.91-.7,5.21C23.13,51.55,26,50,27,47.16c1.46-4.38-.28-6.71-.28-9,0-1.15.84-1.21.84-3.17V29.26a2.54,2.54,0,0,0-2.62-2.52h-4c-.93,0-1.3.77-1.85.77s-.92-.77-1.85-.77h-4a2.54,2.54,0,0,0-2.62,2.52V35c0,2,.84,2,.84,3.17,0,2.24-1.74,4.58-.28,9,.93,2.8,3.82,4.38,4.66,3.92.55-.3-.79-2.05-.7-5.21.08-2.74,1.93-4.47,4-4.47S22.91,43.12,23,45.86Z" transform="translate(-1.27 -1.27)" /><path class="cls-5" d="M56.93,45.86c.09,3.16-1.24,4.91-.7,5.21.84.47,3.73-1.12,4.66-3.92,1.46-4.38-.28-6.71-.28-9,0-1.15.84-1.21.84-3.17V29.26a2.54,2.54,0,0,0-2.62-2.52h-4c-.93,0-1.3.77-1.85.77s-.92-.77-1.85-.77h-4a2.54,2.54,0,0,0-2.62,2.52V35c0,2,.84,2,.84,3.17,0,2.24-1.74,4.58-.28,9,.93,2.8,3.82,4.38,4.66,3.92.55-.3-.79-2.05-.7-5.21.08-2.74,1.93-4.47,4-4.47S56.85,43.12,56.93,45.86Z" transform="translate(-1.27 -1.27)" /><path class="cls-6" d="M53.69,41.47v-.34s-4.23-.82-5.73,2.77c-1.25,3,.47,6,1.66,7.22l.09,0c.55-.3-.79-2.05-.7-5.21.08-2.74,1.93-4.47,4-4.47A3.57,3.57,0,0,1,53.69,41.47Z" transform="translate(-1.27 -1.27)" /><path class="cls-7" d="M46.3,48.35a9.88,9.88,0,0,1-1-5c0-1.52.86-3.52,1-5s-1-1.86-1-3.38V29.4a5.74,5.74,0,0,1,.54-2.32,2.45,2.45,0,0,0-1.3,2.18V35c0,2,.84,2,.84,3.17,0,2.24-1.74,4.58-.28,9a6.32,6.32,0,0,0,3.83,3.92A6.53,6.53,0,0,1,46.3,48.35Z" transform="translate(-1.27 -1.27)" /><path class="cls-6" d="M60.9,47.16c1.46-4.38-.28-6.71-.28-9,0-1.15.84-1.21.84-3.17V29.26a2.54,2.54,0,0,0-2.62-2.52h-4c-.93,0-1.3.77-1.85.77s-.92-.77-1.85-.77h-4A2.55,2.55,0,0,0,44.5,29a2.33,2.33,0,0,1,1.33-.36h5.47c.67,0,.81.39,1.68.39s.89-.39,1.81-.39h2.16c1.93,0,2.3.8,2.3,2.36v3.68c0,2.39-.83,2.16-.83,3.4s.55,1.38.92,4.92c.24,2.35-1.1,6-3,7.44l-.18.16c0,.22,0,.37.12.43C57.07,51.55,60,50,60.9,47.16Z" transform="translate(-1.27 -1.27)" /><path class="cls-7" d="M56.27,50.61a16.27,16.27,0,0,0,1-2.41,6.58,6.58,0,0,0-.32-5,4.08,4.08,0,0,0-3.5-2.09l0,.32a4.3,4.3,0,0,1,3.39,4.42,13.67,13.67,0,0,1-.76,4.51Z" transform="translate(-1.27 -1.27)" /><path class="cls-8" d="M56.93,45.86c.09,3.16-1.24,4.91-.7,5.21.84.47,3.73-1.12,4.66-3.92,1.46-4.38-.28-6.71-.28-9,0-1.15.84-1.21.84-3.17V29.26a2.54,2.54,0,0,0-2.62-2.52h-4c-.93,0-1.3.77-1.85.77s-.92-.77-1.85-.77h-4a2.54,2.54,0,0,0-2.62,2.52V35c0,2,.84,2,.84,3.17,0,2.24-1.74,4.58-.28,9,.93,2.8,3.82,4.38,4.66,3.92.55-.3-.79-2.05-.7-5.21.08-2.74,1.93-4.47,4-4.47S56.85,43.12,56.93,45.86Z" transform="translate(-1.27 -1.27)" /><path class="cls-21" d="M64.06,45.43c-.46-3.11-1.6-8.62-3-7.33A13.08,13.08,0,0,1,53,41.38a13.08,13.08,0,0,1-8.06-3.28l-.06,0,0,0L44.73,38l0,0-.08,0h-.24l-.08,0,0,0-.09.05,0,0-.06,0A13.08,13.08,0,0,1,36,41.38a13.08,13.08,0,0,1-8.06-3.28l-.05,0,0,0-.08,0,0,0-.08,0h-.24l-.08,0,0,0-.08,0,0,0-.05,0A13.08,13.08,0,0,1,19,41.38,13.08,13.08,0,0,1,11,38.1c-1.42-1.28-2.56,4.22-3,7.33s-.78,6.12,1.33,6.12H62.73C64.83,51.55,64.51,48.54,64.06,45.43Z" transform="translate(-1.27 -1.27)" /><g class="cls-22"><path class="cls-23" d="M11.63,46.95c.88,2.63,3.6,4.12,4.39,3.68.51-.29-.74-1.93-.65-4.9a4,4,0,0,1,3.2-4.16,12.21,12.21,0,0,1-6.68-2.86C11.79,40.76,10.29,42.95,11.63,46.95Z" transform="translate(-1.27 -1.27)" /><path class="cls-23" d="M22.8,45.73c.08,3-1.17,4.62-.65,4.9.79.44,3.51-1.05,4.39-3.68,1.33-4-.17-6.19-.25-8.24a12.2,12.2,0,0,1-6.68,2.86A4,4,0,0,1,22.8,45.73Z" transform="translate(-1.27 -1.27)" /></g><g class="cls-22"><path class="cls-23" d="M45.75,46.95c.88,2.63,3.6,4.12,4.39,3.68.51-.29-.74-1.93-.65-4.9a4,4,0,0,1,3.2-4.16A12.21,12.21,0,0,1,46,38.71C45.92,40.76,44.42,42.95,45.75,46.95Z" transform="translate(-1.27 -1.27)" /><path class="cls-23" d="M56.93,45.73c.08,3-1.17,4.62-.65,4.9.79.44,3.51-1.05,4.39-3.68,1.33-4-.17-6.19-.25-8.24a12.2,12.2,0,0,1-6.68,2.86A4,4,0,0,1,56.93,45.73Z" transform="translate(-1.27 -1.27)" /></g><path class="cls-24" d="M9,43.71c.36-1.89,1.3-4.51,2.62-5.08-.24-.19-.46-.37-.65-.54-1.42-1.28-2.56,4.22-3,7.33-.36,2.46-.63,4.86.31,5.75A29.72,29.72,0,0,1,9,43.71Z" transform="translate(-1.27 -1.27)" /><path class="cls-25" d="M62.73,51.55c2.11,0,1.79-3,1.33-6.12s-1.6-8.62-3-7.33a12.27,12.27,0,0,1-1.49,1.13A33,33,0,0,1,62,45.58a17.35,17.35,0,0,1,.66,6Z" transform="translate(-1.27 -1.27)" /><path class="cls-26" d="M64.06,45.43c-.46-3.11-1.6-8.62-3-7.33A13.08,13.08,0,0,1,53,41.38a13.08,13.08,0,0,1-8.06-3.28l-.06,0,0,0L44.73,38l0,0-.08,0h-.24l-.08,0,0,0-.09.05,0,0-.06,0A13.08,13.08,0,0,1,36,41.38a13.08,13.08,0,0,1-8.06-3.28l-.05,0,0,0-.08,0,0,0-.08,0h-.24l-.08,0,0,0-.08,0,0,0-.05,0A13.08,13.08,0,0,1,19,41.38,13.08,13.08,0,0,1,11,38.1c-1.42-1.28-2.56,4.22-3,7.33s-.78,6.12,1.33,6.12H62.73C64.83,51.55,64.51,48.54,64.06,45.43Z" transform="translate(-1.27 -1.27)" /><line class="cls-27" x1="51.75" y1="6.73" x2="51.75" y2="11.89" /><polygon class="cls-28" points="48.07 8.91 48.73 8.29 51.75 11.54 54.77 8.29 55.43 8.91 51.75 12.87 48.07 8.91" /><line class="cls-27" x1="17.71" y1="6.73" x2="17.71" y2="11.89" /><polygon class="cls-28" points="14.03 8.91 14.69 8.29 17.71 11.54 20.73 8.29 21.39 8.91 17.71 12.87 14.03 8.91" /><g class="cls-29"><polygon class="cls-13" points="22.26 22.32 34.2 34.24 46.14 22.32 34.2 10.4 22.26 22.32" /><polygon class="cls-14" points="28.89 28.94 32.48 32.53 44.43 20.61 40.83 17.02 28.89 28.94" /><polygon class="cls-15" points="29.47 29.52 32.03 32.07 43.97 20.15 41.41 17.6 29.47 29.52" /><polygon class="cls-14" points="26.14 26.2 28.64 28.69 40.58 16.77 38.09 14.28 26.14 26.2" /><polygon class="cls-16" points="30.11 30.16 30.81 30.86 42.75 18.94 42.05 18.24 30.11 30.16" /><polygon class="cls-15" points="27.65 27.7 28.35 28.4 40.29 16.48 39.59 15.78 27.65 27.7" /><polygon class="cls-17" points="26.5 26.55 26.77 26.82 38.71 14.9 38.44 14.63 26.5 26.55" /><polygon class="cls-18" points="30.45 30.5 30.59 30.64 42.53 18.71 42.4 18.58 30.45 30.5" /><polygon class="cls-19" points="26.56 26.61 26.64 26.7 38.59 14.78 38.5 14.69 26.56 26.61" /></g><path class="cls-30" d="M44.52,21.36a6.34,6.34,0,0,1,2.65-.57H58.89a6.34,6.34,0,0,1,2.66.58V15.48h0L60.13,17.1l-1.42-1.62L57.29,17.1l-1.42-1.62L54.45,17.1,53,15.48,51.61,17.1l-1.42-1.62L48.78,17.1l-1.42-1.62L45.94,17.1l-1.42-1.62L43.1,17.1l-1.42-1.62L40.26,17.1l-1.42-1.62L37.42,17.1,36,15.48,34.59,17.1l-1.42-1.62L31.75,17.1l-1.42-1.62L28.91,17.1l-1.42-1.62L26.07,17.1l-1.42-1.62L23.23,17.1l-1.42-1.62L20.39,17.1,19,15.48,17.56,17.1l-1.42-1.62L14.72,17.1,13.3,15.48,11.88,17.1l-1.42-1.62h0v5.89a6.34,6.34,0,0,1,2.65-.57H24.83a6.34,6.34,0,0,1,2.66.58,6.49,6.49,0,0,1,2.65-.58H41.86A6.36,6.36,0,0,1,44.52,21.36Z" transform="translate(-1.27 -1.27)" /><g class="cls-31"><path class="cls-6" d="M40.2,22.35a.78.78,0,0,0,.67-.67L41.1,20l.23,1.66a.78.78,0,0,0,.67.67l1.66.23L42,22.82a.78.78,0,0,0-.67.67l-.23,1.66-.23-1.66a.78.78,0,0,0-.67-.67l-1.66-.23Z" transform="translate(-1.27 -1.27)" /></g><g class="cls-31"><path class="cls-6" d="M57.23,22.35a.78.78,0,0,0,.67-.67L58.13,20l.23,1.66a.78.78,0,0,0,.67.67l1.66.23L59,22.82a.78.78,0,0,0-.67.67l-.23,1.66-.23-1.66a.78.78,0,0,0-.67-.67l-1.66-.23Z" transform="translate(-1.27 -1.27)" /></g><g class="cls-31"><path class="cls-6" d="M23.17,22.35a.78.78,0,0,0,.67-.67L24.07,20l.23,1.66a.78.78,0,0,0,.67.67l1.66.23L25,22.82a.78.78,0,0,0-.67.67l-.23,1.66-.23-1.66a.78.78,0,0,0-.67-.67l-1.66-.23Z" transform="translate(-1.27 -1.27)" /></g></g></g></svg>