<svg xmlns="http://www.w3.org/2000/svg" xmlns:xlink="http://www.w3.org/1999/xlink" viewBox="0 0 69.46 69.46"><defs><style>.cls-1,.cls-22,.cls-26,.cls-27,.cls-8{fill:none;}.cls-2{isolation:isolate;}.cls-3{stroke:#dcddde;stroke-width:1.06px;fill:url(#New_Gradient_Swatch_2);}.cls-26,.cls-27,.cls-3,.cls-8{stroke-miterlimit:10;}.cls-4{fill:url(#New_Gradient_Swatch_2-2);}.cls-5{fill:#eaeeef;}.cls-25,.cls-6{fill:#fff;}.cls-7{fill:#d8dee0;}.cls-8{stroke:#b1bfc4;}.cls-26,.cls-27,.cls-8{stroke-width:0.83px;}.cls-9{clip-path:url(#clip-path);}.cls-10{fill:#dcb406;}.cls-11{fill:#e7c762;}.cls-12{fill:#eed68f;}.cls-13{fill:#f5e6bf;}.cls-14{fill:#f2dda5;}.cls-15{fill:#faf3e3;}.cls-16{fill:#f9efd7;}.cls-17{clip-path:url(#clip-path-2);}.cls-18{clip-path:url(#clip-path-3);}.cls-19{fill:#dd7b7f;}.cls-20{opacity:0.5;}.cls-20,.cls-24{mix-blend-mode:multiply;}.cls-21{fill:#b94656;}.cls-22{stroke:#116c91;stroke-linecap:round;stroke-linejoin:round;stroke-width:0.9px;}.cls-23{fill:#116c91;}.cls-24{fill:#181a1d;opacity:0.05;}.cls-25{opacity:0.3;}.cls-26{stroke:#b94656;}.cls-27{stroke:#c6a306;}.cls-28{opacity:0.75;}.cls-29{fill:url(#New_Gradient_Swatch_2-3);}</style><linearGradient id="New_Gradient_Swatch_2" x1="34.73" y1="45.42" x2="34.73" y2="62.25" gradientUnits="userSpaceOnUse"><stop offset="0" stop-color="#fff" /><stop offset="1" stop-color="#f2f2f2" /></linearGradient><linearGradient id="New_Gradient_Swatch_2-2" x1="36" y1="24.22" x2="36" y2="7.14" xlink:href="#New_Gradient_Swatch_2" /><clipPath id="clip-path" transform="translate(-1.27 -1.27)"><path class="cls-1" d="M30.14,24.15h4a3,3,0,0,1,1.78.66l.07,0,.06,0a3,3,0,0,1,1.78-.66h4a3.7,3.7,0,0,1,2.66,1.09V19.48h0L43.1,21.1l-1.42-1.62L40.26,21.1l-1.42-1.62L37.42,21.1,36,19.48,34.59,21.1l-1.42-1.62L31.75,21.1l-1.42-1.62L28.91,21.1l-1.42-1.62h0v5.75A3.7,3.7,0,0,1,30.14,24.15Z" /></clipPath><clipPath id="clip-path-2" transform="translate(-1.27 -1.27)"><path class="cls-1" d="M13.11,24.15h4a3,3,0,0,1,1.78.66l.07,0,.06,0a3,3,0,0,1,1.78-.66h4a3.7,3.7,0,0,1,2.66,1.09V19.48h0L26.07,21.1l-1.42-1.62L23.23,21.1l-1.42-1.62L20.39,21.1,19,19.48,17.56,21.1l-1.42-1.62L14.72,21.1,13.3,19.48,11.88,21.1l-1.42-1.62h0v5.75A3.7,3.7,0,0,1,13.11,24.15Z" /></clipPath><clipPath id="clip-path-3" transform="translate(-1.27 -1.27)"><path class="cls-1" d="M47.17,24.15h4a3,3,0,0,1,1.78.66l.07,0,.06,0a3,3,0,0,1,1.78-.66h4a3.7,3.7,0,0,1,2.66,1.09V19.48h0L60.13,21.1l-1.42-1.62L57.29,21.1l-1.42-1.62L54.45,21.1,53,19.48,51.61,21.1l-1.42-1.62L48.78,21.1l-1.42-1.62L45.94,21.1l-1.42-1.62h0v5.75A3.7,3.7,0,0,1,47.17,24.15Z" /></clipPath><linearGradient id="New_Gradient_Swatch_2-3" x1="54.57" y1="23" x2="59.68" y2="23" xlink:href="#New_Gradient_Swatch_2" /></defs><title>D6790_crown_full_cast_high_noble_metal</title><g class="cls-2"><g id="D6790_-_crown_full_cast_high_noble_metal" data-name="D6790 - crown, full cast high noble metal"><path class="cls-5" d="M40,45.86c.09,3.16-1.24,4.91-.7,5.21.84.47,3.73-1.12,4.66-3.92,1.46-4.38-.28-6.71-.28-9,0-1.15.84-1.21.84-3.17V29.26a2.54,2.54,0,0,0-2.62-2.52h-4c-.93,0-1.3.77-1.85.77s-.92-.77-1.85-.77h-4a2.54,2.54,0,0,0-2.62,2.52V35c0,2,.84,2,.84,3.17,0,2.24-1.74,4.58-.28,9,.93,2.8,3.82,4.38,4.66,3.92.55-.3-.79-2.05-.7-5.21.08-2.74,1.93-4.47,4-4.47S39.88,43.12,40,45.86Z" transform="translate(-1.27 -1.27)" /><path class="cls-6" d="M36.71,41.47v-.34s-4.23-.82-5.73,2.77c-1.25,3,.47,6,1.66,7.22l.09,0c.55-.3-.79-2.05-.7-5.21.08-2.74,1.93-4.47,4-4.47A3.57,3.57,0,0,1,36.71,41.47Z" transform="translate(-1.27 -1.27)" /><path class="cls-7" d="M29.33,48.35a9.88,9.88,0,0,1-1-5c0-1.52.86-3.52,1-5s-1-1.86-1-3.38V29.4a5.74,5.74,0,0,1,.54-2.32,2.45,2.45,0,0,0-1.3,2.18V35c0,2,.84,2,.84,3.17,0,2.24-1.74,4.58-.28,9a6.32,6.32,0,0,0,3.83,3.92A6.53,6.53,0,0,1,29.33,48.35Z" transform="translate(-1.27 -1.27)" /><path class="cls-6" d="M43.93,47.16c1.46-4.38-.28-6.71-.28-9,0-1.15.84-1.21.84-3.17V29.26a2.54,2.54,0,0,0-2.62-2.52h-4c-.93,0-1.3.77-1.85.77s-.92-.77-1.85-.77h-4A2.55,2.55,0,0,0,27.53,29a2.33,2.33,0,0,1,1.33-.36h5.47c.67,0,.81.39,1.68.39s.89-.39,1.81-.39H40c1.93,0,2.3.8,2.3,2.36v3.68c0,2.39-.83,2.16-.83,3.4s.55,1.38.92,4.92c.24,2.35-1.1,6-3,7.44l-.18.16c0,.22,0,.37.12.43C40.1,51.55,43,50,43.93,47.16Z" transform="translate(-1.27 -1.27)" /><path class="cls-7" d="M39.29,50.61a16.27,16.27,0,0,0,1-2.41,6.58,6.58,0,0,0-.32-5,4.08,4.08,0,0,0-3.5-2.09l0,.32A4.3,4.3,0,0,1,40,45.86a13.67,13.67,0,0,1-.76,4.51Z" transform="translate(-1.27 -1.27)" /><path class="cls-8" d="M40,45.86c.09,3.16-1.24,4.91-.7,5.21.84.47,3.73-1.12,4.66-3.92,1.46-4.38-.28-6.71-.28-9,0-1.15.84-1.21.84-3.17V29.26a2.54,2.54,0,0,0-2.62-2.52h-4c-.93,0-1.3.77-1.85.77s-.92-.77-1.85-.77h-4a2.54,2.54,0,0,0-2.62,2.52V35c0,2,.84,2,.84,3.17,0,2.24-1.74,4.58-.28,9,.93,2.8,3.82,4.38,4.66,3.92.55-.3-.79-2.05-.7-5.21.08-2.74,1.93-4.47,4-4.47S39.88,43.12,40,45.86Z" transform="translate(-1.27 -1.27)" /><g class="cls-9"><polygon class="cls-10" points="22.26 21.73 34.2 33.65 46.14 21.73 34.2 9.81 22.26 21.73" /><polygon class="cls-11" points="28.89 28.35 32.48 31.94 44.43 20.02 40.83 16.43 28.89 28.35" /><polygon class="cls-12" points="29.47 28.93 32.03 31.48 43.97 19.56 41.41 17.01 29.47 28.93" /><polygon class="cls-11" points="26.14 25.61 28.64 28.1 40.58 16.18 38.09 13.69 26.14 25.61" /><polygon class="cls-13" points="30.11 29.57 30.81 30.27 42.75 18.35 42.05 17.65 30.11 29.57" /><polygon class="cls-12" points="27.65 27.11 28.35 27.81 40.29 15.89 39.59 15.19 27.65 27.11" /><polygon class="cls-14" points="26.5 25.96 26.77 26.23 38.71 14.31 38.44 14.04 26.5 25.96" /><polygon class="cls-15" points="30.45 29.91 30.59 30.04 42.53 18.12 42.4 17.99 30.45 29.91" /><polygon class="cls-16" points="26.56 26.02 26.64 26.11 38.59 14.19 38.5 14.1 26.56 26.02" /></g><g class="cls-17"><polygon class="cls-10" points="5.23 21.73 17.17 33.65 29.12 21.73 17.17 9.81 5.23 21.73" /><polygon class="cls-11" points="11.86 28.35 15.46 31.94 27.4 20.02 23.81 16.43 11.86 28.35" /><polygon class="cls-12" points="12.44 28.93 15 31.48 26.94 19.56 24.39 17.01 12.44 28.93" /><polygon class="cls-11" points="9.12 25.61 11.61 28.1 23.55 16.18 21.06 13.69 9.12 25.61" /><polygon class="cls-13" points="13.08 29.57 13.78 30.27 25.73 18.35 25.02 17.65 13.08 29.57" /><polygon class="cls-12" points="10.62 27.11 11.32 27.81 23.26 15.89 22.56 15.19 10.62 27.11" /><polygon class="cls-14" points="9.47 25.96 9.74 26.23 21.68 14.31 21.41 14.04 9.47 25.96" /><polygon class="cls-15" points="13.43 29.91 13.56 30.04 25.5 18.12 25.37 17.99 13.43 29.91" /><polygon class="cls-16" points="9.53 26.02 9.62 26.11 21.56 14.19 21.47 14.1 9.53 26.02" /></g><g class="cls-18"><polygon class="cls-10" points="39.29 21.73 51.23 33.65 63.17 21.73 51.23 9.81 39.29 21.73" /><polygon class="cls-11" points="45.92 28.35 49.51 31.94 61.46 20.02 57.86 16.43 45.92 28.35" /><polygon class="cls-12" points="46.5 28.93 49.05 31.48 61 19.56 58.44 17.01 46.5 28.93" /><polygon class="cls-11" points="43.17 25.61 45.66 28.1 57.61 16.18 55.11 13.69 43.17 25.61" /><polygon class="cls-13" points="47.14 29.57 47.84 30.27 59.78 18.35 59.08 17.65 47.14 29.57" /><polygon class="cls-12" points="44.68 27.11 45.38 27.81 57.32 15.89 56.62 15.19 44.68 27.11" /><polygon class="cls-14" points="43.53 25.96 43.8 26.23 55.74 14.31 55.47 14.04 43.53 25.96" /><polygon class="cls-15" points="47.48 29.91 47.61 30.04 59.56 18.12 59.43 17.99 47.48 29.91" /><polygon class="cls-16" points="43.58 26.02 43.67 26.11 55.61 14.19 55.53 14.1 43.58 26.02" /></g><path class="cls-5" d="M23,45.86c.09,3.16-1.24,4.91-.7,5.21C23.13,51.55,26,50,27,47.16c1.46-4.38-.28-6.71-.28-9,0-1.15.84-1.21.84-3.17V29.26a2.54,2.54,0,0,0-2.62-2.52h-4c-.93,0-1.3.77-1.85.77s-.92-.77-1.85-.77h-4a2.54,2.54,0,0,0-2.62,2.52V35c0,2,.84,2,.84,3.17,0,2.24-1.74,4.58-.28,9,.93,2.8,3.82,4.38,4.66,3.92.55-.3-.79-2.05-.7-5.21.08-2.74,1.93-4.47,4-4.47S22.91,43.12,23,45.86Z" transform="translate(-1.27 -1.27)" /><path class="cls-6" d="M19.74,41.47v-.34s-4.23-.82-5.73,2.77c-1.25,3,.47,6,1.66,7.22l.09,0c.55-.3-.79-2.05-.7-5.21.08-2.74,1.93-4.47,4-4.47A3.57,3.57,0,0,1,19.74,41.47Z" transform="translate(-1.27 -1.27)" /><path class="cls-7" d="M12.36,48.35a9.88,9.88,0,0,1-1-5c0-1.52.86-3.52,1-5s-1-1.86-1-3.38V29.4a5.74,5.74,0,0,1,.54-2.32,2.45,2.45,0,0,0-1.3,2.18V35c0,2,.84,2,.84,3.17,0,2.24-1.74,4.58-.28,9a6.32,6.32,0,0,0,3.83,3.92A6.53,6.53,0,0,1,12.36,48.35Z" transform="translate(-1.27 -1.27)" /><path class="cls-6" d="M27,47.16c1.46-4.38-.28-6.71-.28-9,0-1.15.84-1.21.84-3.17V29.26a2.54,2.54,0,0,0-2.62-2.52h-4c-.93,0-1.3.77-1.85.77s-.92-.77-1.85-.77h-4A2.55,2.55,0,0,0,10.55,29a2.33,2.33,0,0,1,1.33-.36h5.47c.67,0,.81.39,1.68.39s.89-.39,1.81-.39H23c1.93,0,2.3.8,2.3,2.36v3.68c0,2.39-.83,2.16-.83,3.4s.55,1.38.92,4.92c.24,2.35-1.1,6-3,7.44l-.18.16c0,.22,0,.37.12.43C23.13,51.55,26,50,27,47.16Z" transform="translate(-1.27 -1.27)" /><path class="cls-7" d="M22.32,50.61a16.27,16.27,0,0,0,1-2.41,6.58,6.58,0,0,0-.32-5,4.08,4.08,0,0,0-3.5-2.09l0,.32A4.3,4.3,0,0,1,23,45.86a13.67,13.67,0,0,1-.76,4.51Z" transform="translate(-1.27 -1.27)" /><path class="cls-8" d="M23,45.86c.09,3.16-1.24,4.91-.7,5.21C23.13,51.55,26,50,27,47.16c1.46-4.38-.28-6.71-.28-9,0-1.15.84-1.21.84-3.17V29.26a2.54,2.54,0,0,0-2.62-2.52h-4c-.93,0-1.3.77-1.85.77s-.92-.77-1.85-.77h-4a2.54,2.54,0,0,0-2.62,2.52V35c0,2,.84,2,.84,3.17,0,2.24-1.74,4.58-.28,9,.93,2.8,3.82,4.38,4.66,3.92.55-.3-.79-2.05-.7-5.21.08-2.74,1.93-4.47,4-4.47S22.91,43.12,23,45.86Z" transform="translate(-1.27 -1.27)" /><path class="cls-5" d="M56.93,45.86c.09,3.16-1.24,4.91-.7,5.21.84.47,3.73-1.12,4.66-3.92,1.46-4.38-.28-6.71-.28-9,0-1.15.84-1.21.84-3.17V29.26a2.54,2.54,0,0,0-2.62-2.52h-4c-.93,0-1.3.77-1.85.77s-.92-.77-1.85-.77h-4a2.54,2.54,0,0,0-2.62,2.52V35c0,2,.84,2,.84,3.17,0,2.24-1.74,4.58-.28,9,.93,2.8,3.82,4.38,4.66,3.92.55-.3-.79-2.05-.7-5.21.08-2.74,1.93-4.47,4-4.47S56.85,43.12,56.93,45.86Z" transform="translate(-1.27 -1.27)" /><path class="cls-6" d="M53.69,41.47v-.34s-4.23-.82-5.73,2.77c-1.25,3,.47,6,1.66,7.22l.09,0c.55-.3-.79-2.05-.7-5.21.08-2.74,1.93-4.47,4-4.47A3.57,3.57,0,0,1,53.69,41.47Z" transform="translate(-1.27 -1.27)" /><path class="cls-7" d="M46.3,48.35a9.88,9.88,0,0,1-1-5c0-1.52.86-3.52,1-5s-1-1.86-1-3.38V29.4a5.74,5.74,0,0,1,.54-2.32,2.45,2.45,0,0,0-1.3,2.18V35c0,2,.84,2,.84,3.17,0,2.24-1.74,4.58-.28,9a6.32,6.32,0,0,0,3.83,3.92A6.53,6.53,0,0,1,46.3,48.35Z" transform="translate(-1.27 -1.27)" /><path class="cls-6" d="M60.9,47.16c1.46-4.38-.28-6.71-.28-9,0-1.15.84-1.21.84-3.17V29.26a2.54,2.54,0,0,0-2.62-2.52h-4c-.93,0-1.3.77-1.85.77s-.92-.77-1.85-.77h-4A2.55,2.55,0,0,0,44.5,29a2.33,2.33,0,0,1,1.33-.36h5.47c.67,0,.81.39,1.68.39s.89-.39,1.81-.39h2.16c1.93,0,2.3.8,2.3,2.36v3.68c0,2.39-.83,2.16-.83,3.4s.55,1.38.92,4.92c.24,2.35-1.1,6-3,7.44l-.18.16c0,.22,0,.37.12.43C57.07,51.55,60,50,60.9,47.16Z" transform="translate(-1.27 -1.27)" /><path class="cls-7" d="M56.27,50.61a16.27,16.27,0,0,0,1-2.41,6.58,6.58,0,0,0-.32-5,4.08,4.08,0,0,0-3.5-2.09l0,.32a4.3,4.3,0,0,1,3.39,4.42,13.67,13.67,0,0,1-.76,4.51Z" transform="translate(-1.27 -1.27)" /><path class="cls-8" d="M56.93,45.86c.09,3.16-1.24,4.91-.7,5.21.84.47,3.73-1.12,4.66-3.92,1.46-4.38-.28-6.71-.28-9,0-1.15.84-1.21.84-3.17V29.26a2.54,2.54,0,0,0-2.62-2.52h-4c-.93,0-1.3.77-1.85.77s-.92-.77-1.85-.77h-4a2.54,2.54,0,0,0-2.62,2.52V35c0,2,.84,2,.84,3.17,0,2.24-1.74,4.58-.28,9,.93,2.8,3.82,4.38,4.66,3.92.55-.3-.79-2.05-.7-5.21.08-2.74,1.93-4.47,4-4.47S56.85,43.12,56.93,45.86Z" transform="translate(-1.27 -1.27)" /><path class="cls-19" d="M64.06,45.43c-.46-3.11-1.6-8.62-3-7.33A13.08,13.08,0,0,1,53,41.38a13.08,13.08,0,0,1-8.06-3.28l-.06,0,0,0L44.73,38l0,0-.08,0h-.24l-.08,0,0,0-.09.05,0,0-.06,0A13.08,13.08,0,0,1,36,41.38a13.08,13.08,0,0,1-8.06-3.28l-.05,0,0,0-.08,0,0,0-.08,0h-.24l-.08,0,0,0-.08,0,0,0-.05,0A13.08,13.08,0,0,1,19,41.38,13.08,13.08,0,0,1,11,38.1c-1.42-1.28-2.56,4.22-3,7.33s-.78,6.12,1.33,6.12H62.73C64.83,51.55,64.51,48.54,64.06,45.43Z" transform="translate(-1.27 -1.27)" /><g class="cls-20"><path class="cls-21" d="M11.63,46.95c.88,2.63,3.6,4.12,4.39,3.68.51-.29-.74-1.93-.65-4.9a4,4,0,0,1,3.2-4.16,12.21,12.21,0,0,1-6.68-2.86C11.79,40.76,10.29,42.95,11.63,46.95Z" transform="translate(-1.27 -1.27)" /><path class="cls-21" d="M22.8,45.73c.08,3-1.17,4.62-.65,4.9.79.44,3.51-1.05,4.39-3.68,1.33-4-.17-6.19-.25-8.24a12.2,12.2,0,0,1-6.68,2.86A4,4,0,0,1,22.8,45.73Z" transform="translate(-1.27 -1.27)" /></g><g class="cls-20"><path class="cls-21" d="M45.75,46.95c.88,2.63,3.6,4.12,4.39,3.68.51-.29-.74-1.93-.65-4.9a4,4,0,0,1,3.2-4.16A12.21,12.21,0,0,1,46,38.71C45.92,40.76,44.42,42.95,45.75,46.95Z" transform="translate(-1.27 -1.27)" /><path class="cls-21" d="M56.93,45.73c.08,3-1.17,4.62-.65,4.9.79.44,3.51-1.05,4.39-3.68,1.33-4-.17-6.19-.25-8.24a12.2,12.2,0,0,1-6.68,2.86A4,4,0,0,1,56.93,45.73Z" transform="translate(-1.27 -1.27)" /></g><line class="cls-22" x1="17.71" y1="7.73" x2="17.71" y2="14.89" /><polygon class="cls-23" points="14.03 11.91 14.69 11.3 17.71 14.55 20.73 11.3 21.39 11.91 17.71 15.87 14.03 11.91" /><line class="cls-22" x1="51.75" y1="7.73" x2="51.75" y2="14.89" /><polygon class="cls-23" points="48.07 11.91 48.73 11.3 51.75 14.55 54.77 11.3 55.43 11.91 51.75 15.87 48.07 11.91" /><path class="cls-24" d="M9,43.71c.36-1.89,1.3-4.51,2.62-5.08-.24-.19-.46-.37-.65-.54-1.42-1.28-2.56,4.22-3,7.33-.36,2.46-.63,4.86.31,5.75A29.72,29.72,0,0,1,9,43.71Z" transform="translate(-1.27 -1.27)" /><path class="cls-25" d="M62.73,51.55c2.11,0,1.79-3,1.33-6.12s-1.6-8.62-3-7.33a12.27,12.27,0,0,1-1.49,1.13A33,33,0,0,1,62,45.58a17.35,17.35,0,0,1,.66,6Z" transform="translate(-1.27 -1.27)" /><path class="cls-26" d="M64.06,45.43c-.46-3.11-1.6-8.62-3-7.33A13.08,13.08,0,0,1,53,41.38a13.08,13.08,0,0,1-8.06-3.28l-.06,0,0,0L44.73,38l0,0-.08,0h-.24l-.08,0,0,0-.09.05,0,0-.06,0A13.08,13.08,0,0,1,36,41.38a13.08,13.08,0,0,1-8.06-3.28l-.05,0,0,0-.08,0,0,0-.08,0h-.24l-.08,0,0,0-.08,0,0,0-.05,0A13.08,13.08,0,0,1,19,41.38,13.08,13.08,0,0,1,11,38.1c-1.42-1.28-2.56,4.22-3,7.33s-.78,6.12,1.33,6.12H62.73C64.83,51.55,64.51,48.54,64.06,45.43Z" transform="translate(-1.27 -1.27)" /><path class="cls-27" d="M44.79,25a3.73,3.73,0,0,1,2.38-.83h4a3,3,0,0,1,1.78.66l.07,0,.06,0a3,3,0,0,1,1.78-.66h4a3.72,3.72,0,0,1,2.38.84l.28-.21V19.48h0L60.13,21.1l-1.42-1.62L57.29,21.1l-1.42-1.62L54.45,21.1,53,19.48,51.61,21.1l-1.42-1.62L48.78,21.1l-1.42-1.62L45.94,21.1l-1.42-1.62L43.1,21.1l-1.42-1.62L40.26,21.1l-1.42-1.62L37.42,21.1,36,19.48,34.59,21.1l-1.42-1.62L31.75,21.1l-1.42-1.62L28.91,21.1l-1.42-1.62L26.07,21.1l-1.42-1.62L23.23,21.1l-1.42-1.62L20.39,21.1,19,19.48,17.56,21.1l-1.42-1.62L14.72,21.1,13.3,19.48,11.88,21.1l-1.42-1.62h0v5.3l.27.21a3.73,3.73,0,0,1,2.38-.83h4a3,3,0,0,1,1.78.66l.07,0,.06,0a3,3,0,0,1,1.78-.66h4a3.72,3.72,0,0,1,2.38.84l.27.21.27-.21a3.73,3.73,0,0,1,2.38-.83h4a3,3,0,0,1,1.78.66l.07,0,.06,0a3,3,0,0,1,1.78-.66h4a3.72,3.72,0,0,1,2.38.84l.28.22Z" transform="translate(-1.27 -1.27)" /><g class="cls-28"><path class="cls-6" d="M39.2,22.76a.78.78,0,0,0,.67-.67l.23-1.66.23,1.66a.78.78,0,0,0,.67.67l1.66.23L41,23.23a.78.78,0,0,0-.67.67l-.23,1.66-.23-1.66a.78.78,0,0,0-.67-.67L37.54,23Z" transform="translate(-1.27 -1.27)" /></g><g class="cls-28"><path class="cls-6" d="M22.17,22.76a.78.78,0,0,0,.67-.67l.23-1.66.23,1.66a.78.78,0,0,0,.67.67l1.66.23L24,23.23a.78.78,0,0,0-.67.67l-.23,1.66-.23-1.66a.78.78,0,0,0-.67-.67L20.52,23Z" transform="translate(-1.27 -1.27)" /></g><g class="cls-28"><path class="cls-29" d="M56.23,22.76a.78.78,0,0,0,.67-.67l.23-1.66.23,1.66a.78.78,0,0,0,.67.67l1.66.23L58,23.23a.78.78,0,0,0-.67.67l-.23,1.66-.23-1.66a.78.78,0,0,0-.67-.67L54.57,23Z" transform="translate(-1.27 -1.27)" /></g></g></g></svg>