<svg xmlns="http://www.w3.org/2000/svg" xmlns:xlink="http://www.w3.org/1999/xlink" viewBox="0 0 72.91 69.46"><defs><style>.cls-1,.cls-13,.cls-18,.cls-22,.cls-9{fill:none;}.cls-2{isolation:isolate;}.cls-3{stroke:#dcddde;stroke-width:1.06px;fill:url(#New_Gradient_Swatch_2);}.cls-18,.cls-3,.cls-9{stroke-miterlimit:10;}.cls-4{fill:url(#New_Gradient_Swatch_2-2);}.cls-5{fill:#eaeeef;}.cls-6{fill:#d8dee0;}.cls-7{fill:url(#New_Gradient_Swatch_2-3);}.cls-12,.cls-17,.cls-8{fill:#fff;}.cls-9{stroke:#b1bfc4;}.cls-10{fill:#dd7b7f;}.cls-11{fill:#181a1d;opacity:0.07;mix-blend-mode:multiply;}.cls-12{opacity:0.3;}.cls-13{stroke:#b94656;}.cls-13,.cls-22{stroke-linecap:round;stroke-linejoin:round;stroke-width:1.2px;}.cls-14{fill:#1ab4af;}.cls-15{clip-path:url(#clip-path);}.cls-16{fill:#79cdcc;}.cls-17{opacity:0.4;}.cls-18{stroke:#00b1ac;stroke-width:1.4px;}.cls-19{fill:url(#New_Gradient_Swatch_2-4);}.cls-20{fill:url(#New_Gradient_Swatch_2-5);}.cls-21{fill:#c41e62;}.cls-22{stroke:#991b4a;}</style><linearGradient id="New_Gradient_Swatch_2" x1="38.19" y1="45.42" x2="38.19" y2="62.25" gradientUnits="userSpaceOnUse"><stop offset="0" stop-color="#fff" /><stop offset="1" stop-color="#f2f2f2" /></linearGradient><linearGradient id="New_Gradient_Swatch_2-2" x1="36.03" y1="24.32" x2="36.03" y2="7.23" xlink:href="#New_Gradient_Swatch_2" /><linearGradient id="New_Gradient_Swatch_2-3" x1="54.93" y1="26.22" x2="54.93" y2="23.35" xlink:href="#New_Gradient_Swatch_2" /><clipPath id="clip-path" transform="translate(2.19 -1.27)"><path class="cls-1" d="M5.2,66.8C6.4,65.6,6.4,6.4,5.2,5.2,6.4,6.4,65.6,6.4,66.8,5.2,65.6,6.4,65.6,65.6,66.8,66.8,65.6,65.6,6.4,65.6,5.2,66.8Z" /></clipPath><linearGradient id="New_Gradient_Swatch_2-4" x1="46.95" y1="50.13" x2="46.95" y2="46.88" xlink:href="#New_Gradient_Swatch_2" /><linearGradient id="New_Gradient_Swatch_2-5" x1="37.26" y1="50.13" x2="37.26" y2="46.88" xlink:href="#New_Gradient_Swatch_2" /></defs><title>D6930_recement_or_rebond_fixed_partial_denture</title><g class="cls-2"><g id="D6930_-_re-cement_or_re-bond_fixed_partial_denture" data-name="D6930 - re-cement or re-bond fixed partial denture"><path class="cls-5" d="M17.82,27v6a1.81,1.81,0,0,0,1.66,2h4.71a1.81,1.81,0,0,0,1.66-2V27c0-1.53-2.08-3.14-4-3.14S17.82,25.44,17.82,27Z" transform="translate(2.19 -1.27)" /><path class="cls-5" d="M10.79,28.23v5.07A1.54,1.54,0,0,0,12.24,35h4.13a1.54,1.54,0,0,0,1.45-1.66V28.23c0-1.29-1.82-2.65-3.54-2.65S10.79,26.94,10.79,28.23Z" transform="translate(2.19 -1.27)" /><path class="cls-5" d="M54.18,27v6a1.81,1.81,0,0,1-1.66,2H47.81a1.81,1.81,0,0,1-1.66-2V27c0-1.53,2.08-3.14,4-3.14S54.18,25.44,54.18,27Z" transform="translate(2.19 -1.27)" /><path class="cls-5" d="M61.21,28.23v5.07A1.54,1.54,0,0,1,59.76,35H55.64a1.54,1.54,0,0,1-1.45-1.66V28.23c0-1.29,1.82-2.65,3.54-2.65S61.21,26.94,61.21,28.23Z" transform="translate(2.19 -1.27)" /><polygon class="cls-6" points="14.39 25.31 14.39 33.5 13.53 33.27 12.91 32.02 12.91 26.23 13.53 25.6 14.39 25.31" /><polygon class="cls-6" points="21.41 23.55 21.41 33.5 20.54 33.27 19.93 32.02 19.93 24.48 20.54 23.84 21.41 23.55" /><polygon class="cls-7" points="53.57 23.02 53.57 33.38 56.27 33.38 56.3 25 54.87 23.5 53.57 23.02" /><path class="cls-8" d="M61.14,34.9l.11-6.9s.21-1.09-1.2-2a4,4,0,0,0-2.61-.67v9.57Z" transform="translate(2.19 -1.27)" /><path class="cls-9" d="M17.82,27v6a1.81,1.81,0,0,0,1.66,2h4.71a1.81,1.81,0,0,0,1.66-2V27c0-1.53-2.08-3.14-4-3.14S17.82,25.44,17.82,27Z" transform="translate(2.19 -1.27)" /><path class="cls-9" d="M10.79,28.23v5.07A1.54,1.54,0,0,0,12.24,35h4.13a1.54,1.54,0,0,0,1.45-1.66V28.23c0-1.29-1.82-2.65-3.54-2.65S10.79,26.94,10.79,28.23Z" transform="translate(2.19 -1.27)" /><path class="cls-9" d="M54.18,27v6a1.81,1.81,0,0,1-1.66,2H47.81a1.81,1.81,0,0,1-1.66-2V27c0-1.53,2.08-3.14,4-3.14S54.18,25.44,54.18,27Z" transform="translate(2.19 -1.27)" /><path class="cls-9" d="M61.21,28.23v5.07A1.54,1.54,0,0,1,59.76,35H55.64a1.54,1.54,0,0,1-1.45-1.66V28.23c0-1.29,1.82-2.65,3.54-2.65S61.21,26.94,61.21,28.23Z" transform="translate(2.19 -1.27)" /><path class="cls-10" d="M63.17,22.33C59.17,18.83,50,13,36,13S12.83,18.83,8.83,22.33c-2.9,2.54,2,6.09,2,5.9,0-1.29,1.77-2.65,3.49-2.65s3.54,1.36,3.54,2.65c0,.22,0-.88,0-1.26,0-1.53,2-3.14,4-3.14s4,1.61,4,3.14V25.8c0-1.76,2.56-3.6,5-3.6S36,24,36,25.8c0-1.76,2.63-3.6,5.11-3.6s5,1.85,5,3.6V27c0-1.53,2.08-3.14,4-3.14s4,1.61,4,3.14c0,.38,0,1.47,0,1.26,0-1.29,1.82-2.65,3.54-2.65s3.49,1.36,3.49,2.65C61.21,28.42,66.07,24.87,63.17,22.33Z" transform="translate(2.19 -1.27)" /><path class="cls-11" d="M10.46,21.46s-1,.22-.64,2.42a6.94,6.94,0,0,0,1.77,2.56l-1,1.31L8.06,25.4l0-2.53Z" transform="translate(2.19 -1.27)" /><path class="cls-12" d="M61.25,28s3-1.87,3-4.12S60.63,20,58.38,18.75a92.64,92.64,0,0,0-9.58-3.66s6.74,4,8.86,5.73-.27,4.5-.27,4.5,2.25.23,2.93.92A4.35,4.35,0,0,1,61.25,28Z" transform="translate(2.19 -1.27)" /><path class="cls-13" d="M63.17,22.33C59.17,18.83,50,13,36,13S12.83,18.83,8.83,22.33c-2.9,2.54,2,6.09,2,5.9,0-1.29,1.77-2.65,3.49-2.65s3.54,1.36,3.54,2.65c0,.22,0-.88,0-1.26,0-1.53,2-3.14,4-3.14s4,1.61,4,3.14V25.8c0-1.76,2.56-3.6,5-3.6S36,24,36,25.8c0-1.76,2.63-3.6,5.11-3.6s5,1.85,5,3.6V27c0-1.53,2.08-3.14,4-3.14s4,1.61,4,3.14c0,.38,0,1.47,0,1.26,0-1.29,1.82-2.65,3.54-2.65s3.49,1.36,3.49,2.65C61.21,28.42,66.07,24.87,63.17,22.33Z" transform="translate(2.19 -1.27)" /><path class="cls-14" d="M25.79,41.9a1.48,1.48,0,1,1-3,0,6.61,6.61,0,0,1,1.48-3A6.61,6.61,0,0,1,25.79,41.9Z" transform="translate(2.19 -1.27)" /><g class="cls-15"><path class="cls-16" d="M25,36.15a2.41,2.41,0,0,1-.48,1,1.78,1.78,0,0,1-.83.53L-1.13,21.21l6.59-7.52Z" transform="translate(2.19 -1.27)" /><polygon class="cls-11" points="2.14 19.24 26.55 35.79 25.89 36.2 0.91 19.89 2.14 19.24" /><polygon class="cls-17" points="5.52 14.41 26.58 35.65 26.98 34.84 7.4 12.36 5.52 14.41" /><path class="cls-18" d="M25,36.15a2.41,2.41,0,0,1-.48,1,1.78,1.78,0,0,1-.83.53L-1.13,21.21l6.59-7.52Z" transform="translate(2.19 -1.27)" /></g><path class="cls-5" d="M25.85,50.66v6.89a2.15,2.15,0,0,0,2.1,2.26h6A2.15,2.15,0,0,0,36,57.55V50.66c0-1.76-2.63-3.6-5.11-3.6S25.85,48.9,25.85,50.66Z" transform="translate(2.19 -1.27)" /><path class="cls-5" d="M46.15,50.66v6.89a2.15,2.15,0,0,1-2.1,2.26h-6A2.15,2.15,0,0,1,36,57.55V50.66c0-1.76,2.63-3.6,5.11-3.6S46.15,48.9,46.15,50.66Z" transform="translate(2.19 -1.27)" /><polygon class="cls-6" points="29.47 47.06 29.47 58.36 28.6 58.13 27.99 56.88 27.99 47.98 28.6 47.35 29.47 47.06" /><polygon class="cls-19" points="45.92 46.51 45.92 58.23 47.95 58.23 47.98 49.85 47.37 47.4 45.92 46.51" /><polygon class="cls-20" points="36.49 46.51 36.49 58.23 38 58.23 38.03 49.85 37.42 47.4 36.49 46.51" /><path class="cls-9" d="M25.85,50.66v6.89a2.15,2.15,0,0,0,2.1,2.26h6A2.15,2.15,0,0,0,36,57.55V50.66c0-1.76-2.63-3.6-5.11-3.6S25.85,48.9,25.85,50.66Z" transform="translate(2.19 -1.27)" /><path class="cls-9" d="M46.15,50.66v6.89a2.15,2.15,0,0,1-2.1,2.26h-6A2.15,2.15,0,0,1,36,57.55V50.66c0-1.76,2.63-3.6,5.11-3.6S46.15,48.9,46.15,50.66Z" transform="translate(2.19 -1.27)" /><path class="cls-21" d="M50.67,44.4c-6.77,3.33-7.8-7-14.67.22-7.34-7.34-7.55,3.06-14.67-.23-3.5-1.61,4.52,7.43,4.52,7.43V50.66c0-1.76,2.56-3.6,5-3.6S36,48.9,36,50.66c0-1.76,2.63-3.6,5.11-3.6s5,1.85,5,3.6v1.17S54.13,42.7,50.67,44.4Z" transform="translate(2.19 -1.27)" /><path class="cls-12" d="M46.37,51.35a13.19,13.19,0,0,0,3.39-3.52c1.2-1.91,2.8-4.14,0-3.11-1.9.7-3.36-.58-3.58.1a7.2,7.2,0,0,1-2.12,3.29,4.23,4.23,0,0,1,1.78,1.31A4.35,4.35,0,0,1,46.37,51.35Z" transform="translate(2.19 -1.27)" /><path class="cls-11" d="M22.16,44.34s.55.88,1.86,2.69a7.48,7.48,0,0,0,2.51,2.29l-1.47,1.76-2.57-2.74-2-3.69Z" transform="translate(2.19 -1.27)" /><path class="cls-22" d="M50.67,44.4c-6.77,3.33-7.8-7-14.67.22-7.34-7.34-7.55,3.06-14.67-.23-3.5-1.61,4.52,7.43,4.52,7.43V50.66c0-1.76,2.56-3.6,5-3.6S36,48.9,36,50.66c0-1.76,2.63-3.6,5.11-3.6s5,1.85,5,3.6v1.17S54.13,42.7,50.67,44.4Z" transform="translate(2.19 -1.27)" /></g></g></svg>