<svg xmlns="http://www.w3.org/2000/svg" xmlns:xlink="http://www.w3.org/1999/xlink" viewBox="0 0 69.46 69.46"><defs><style>.cls-1{isolation:isolate;}.cls-2{stroke:#dcddde;stroke-width:1.06px;fill:url(#New_Gradient_Swatch_2);}.cls-13,.cls-2,.cls-7{stroke-miterlimit:10;}.cls-3{fill:url(#New_Gradient_Swatch_2-2);}.cls-4{fill:#dd7b7f;}.cls-11,.cls-5{fill:#fff;}.cls-5{opacity:0.3;}.cls-6{fill:#181a1d;opacity:0.05;}.cls-6,.cls-8{mix-blend-mode:multiply;}.cls-13,.cls-14,.cls-7{fill:none;}.cls-7{stroke:#b94656;stroke-width:0.95px;}.cls-9{fill:#b94656;}.cls-10{fill:#eaeeef;}.cls-12{fill:#d8dee0;}.cls-13{stroke:#b1bfc4;stroke-width:0.88px;}.cls-14{stroke:#1ab4af;stroke-linecap:round;stroke-linejoin:round;stroke-width:0.81px;}.cls-15{fill:#1ab4af;}</style><linearGradient id="New_Gradient_Swatch_2" x1="34.73" y1="45.42" x2="34.73" y2="62.25" gradientUnits="userSpaceOnUse"><stop offset="0" stop-color="#fff" /><stop offset="1" stop-color="#f2f2f2" /></linearGradient><linearGradient id="New_Gradient_Swatch_2-2" x1="36" y1="24.22" x2="36" y2="7.14" xlink:href="#New_Gradient_Swatch_2" /></defs><title>D7111_extraction_coronal_remnants_deciduous_tooth</title><g class="cls-1"><g id="D7111_-_extraction_coronal_remnants_-_deciduous_tooth" data-name="D7111 - extraction, coronal remnants - deciduous tooth"><path class="cls-4" d="M46.44,58.94c2.25,0,1.91-3.22,1.42-6.55s-1.72-9.22-3.23-7.85A14,14,0,0,1,36,48.05a14,14,0,0,1-8.62-3.51c-1.52-1.37-2.74,4.52-3.23,7.85s-.83,6.55,1.42,6.55Z" transform="translate(-1.27 -1.27)" /><path class="cls-5" d="M46.44,58.94c2.25,0,1.91-3.22,1.42-6.55s-1.72-9.22-3.23-7.85A13.13,13.13,0,0,1,43,45.75a35.29,35.29,0,0,1,2.61,6.8,18.57,18.57,0,0,1,.7,6.39Z" transform="translate(-1.27 -1.27)" /><path class="cls-6" d="M25.27,50.55c.39-2,1.39-4.82,2.8-5.43-.26-.2-.49-.39-.69-.57-1.52-1.37-2.74,4.52-3.23,7.85-.39,2.64-.68,5.2.33,6.15A31.8,31.8,0,0,1,25.27,50.55Z" transform="translate(-1.27 -1.27)" /><path class="cls-7" d="M46.44,58.94c2.25,0,1.91-3.22,1.42-6.55s-1.72-9.22-3.23-7.85A14,14,0,0,1,36,48.05a14,14,0,0,1-8.62-3.51c-1.52-1.37-2.74,4.52-3.23,7.85s-.83,6.55,1.42,6.55Z" transform="translate(-1.27 -1.27)" /><g class="cls-8"><path class="cls-9" d="M31.29,57.35a1.91,1.91,0,0,0,1.58.07c.57-.32.38-1,.13-1.81a11.84,11.84,0,0,1-.6-3.93,4,4,0,0,1,3.19-4.1,13.77,13.77,0,0,1-7.88-3.37l0,0a12,12,0,0,1-.34,1.8,11.63,11.63,0,0,0,.1,7.17A7.09,7.09,0,0,0,31.29,57.35Z" transform="translate(-1.27 -1.27)" /><path class="cls-9" d="M39.6,51.68a11.85,11.85,0,0,1-.6,3.93c-.25.83-.44,1.49.13,1.81a1.23,1.23,0,0,0,.61.14,2.75,2.75,0,0,0,1-.21,7.08,7.08,0,0,0,3.87-4.21,11.64,11.64,0,0,0,.1-7.17,11.91,11.91,0,0,1-.34-1.8l0,0a13.77,13.77,0,0,1-7.88,3.37A4,4,0,0,1,39.6,51.68Z" transform="translate(-1.27 -1.27)" /></g><path class="cls-10" d="M40.06,35.53c.09,3.24-1.28,5-.71,5.35.86.48,3.83-1.15,4.78-4,1.5-4.49-.29-6.89-.29-9.19,0-1.18.86-1.24.86-3.25V18.49A2.61,2.61,0,0,0,42,15.91H37.9c-1,0-1.34.79-1.9.79s-.94-.79-1.9-.79H30a2.61,2.61,0,0,0-2.69,2.58v5.93c0,2,.86,2.07.86,3.25,0,2.3-1.78,4.7-.29,9.19,1,2.87,3.92,4.5,4.78,4,.56-.31-.81-2.11-.71-5.35.08-2.82,2-4.59,4.06-4.59S40,32.71,40.06,35.53Z" transform="translate(-1.27 -1.27)" /><path class="cls-11" d="M36.73,31v-.35s-4.34-.84-5.88,2.84c-1.28,3.06.49,6.18,1.7,7.41l.09,0c.56-.31-.81-2.11-.71-5.35.08-2.82,2-4.59,4.06-4.59A3.67,3.67,0,0,1,36.73,31Z" transform="translate(-1.27 -1.27)" /><path class="cls-12" d="M29.15,38.08a10.14,10.14,0,0,1-1.07-5.18c0-1.56.88-3.62,1-5.08s-1-1.91-1-3.47V18.63a5.89,5.89,0,0,1,.55-2.39,2.51,2.51,0,0,0-1.34,2.24v5.93c0,2,.86,2.07.86,3.25,0,2.3-1.78,4.7-.29,9.19a6.49,6.49,0,0,0,3.93,4A6.7,6.7,0,0,1,29.15,38.08Z" transform="translate(-1.27 -1.27)" /><path class="cls-11" d="M44.13,36.86c1.5-4.49-.29-6.89-.29-9.19,0-1.18.86-1.24.86-3.25V18.49A2.61,2.61,0,0,0,42,15.91H37.9c-1,0-1.34.79-1.9.79s-.94-.79-1.9-.79H30a2.61,2.61,0,0,0-2.68,2.37,2.39,2.39,0,0,1,1.36-.37h5.61c.69,0,.83.4,1.72.4s.92-.4,1.86-.4h2.22c2,0,2.36.82,2.36,2.42V24.1c0,2.45-.85,2.22-.85,3.49s.57,1.41.94,5c.25,2.41-1.13,6.13-3.11,7.64l-.19.16c0,.22,0,.38.12.45C40.21,41.36,43.18,39.73,44.13,36.86Z" transform="translate(-1.27 -1.27)" /><path class="cls-12" d="M39.38,40.4a16.69,16.69,0,0,0,1.07-2.47,6.75,6.75,0,0,0-.33-5.11,4.19,4.19,0,0,0-3.59-2.14l0,.33a4.42,4.42,0,0,1,3.48,4.54,14,14,0,0,1-.78,4.63Z" transform="translate(-1.27 -1.27)" /><path class="cls-13" d="M40.06,35.53c.09,3.24-1.28,5-.71,5.35.86.48,3.83-1.15,4.78-4,1.5-4.49-.29-6.89-.29-9.19,0-1.18.86-1.24.86-3.25V18.49A2.61,2.61,0,0,0,42,15.91H37.9c-1,0-1.34.79-1.9.79s-.94-.79-1.9-.79H30a2.61,2.61,0,0,0-2.69,2.58v5.93c0,2,.86,2.07.86,3.25,0,2.3-1.78,4.7-.29,9.19,1,2.87,3.92,4.5,4.78,4,.56-.31-.81-2.11-.71-5.35.08-2.82,2-4.59,4.06-4.59S40,32.71,40.06,35.53Z" transform="translate(-1.27 -1.27)" /><line class="cls-14" x1="34.73" y1="44.37" x2="34.73" y2="39.93" /><polygon class="cls-15" points="37.44 42.13 36.96 42.58 34.73 40.18 32.5 42.58 32.01 42.13 34.73 39.21 37.44 42.13" /></g></g></svg>