<svg xmlns="http://www.w3.org/2000/svg" xmlns:xlink="http://www.w3.org/1999/xlink" viewBox="0 0 69.46 69.46"><defs><style>.cls-1{isolation:isolate;}.cls-2{stroke:#dcddde;stroke-width:1.06px;fill:url(#New_Gradient_Swatch_2);}.cls-13,.cls-2,.cls-7{stroke-miterlimit:10;}.cls-3{fill:url(#New_Gradient_Swatch_2-2);}.cls-4{fill:#dd7b7f;}.cls-11,.cls-5{fill:#fff;}.cls-5{opacity:0.3;}.cls-6{fill:#181a1d;opacity:0.05;}.cls-6,.cls-8{mix-blend-mode:multiply;}.cls-13,.cls-14,.cls-7{fill:none;}.cls-7{stroke:#b94656;stroke-width:1.4px;}.cls-9{fill:#b94656;}.cls-10{fill:#eaeeef;}.cls-12{fill:#d8dee0;}.cls-13{stroke:#b1bfc4;stroke-width:1.3px;}.cls-14{stroke:#1ab4af;stroke-linecap:round;stroke-linejoin:round;stroke-width:0.9px;}.cls-15{fill:#1ab4af;}</style><linearGradient id="New_Gradient_Swatch_2" x1="34.73" y1="45.42" x2="34.73" y2="62.25" gradientUnits="userSpaceOnUse"><stop offset="0" stop-color="#fff" /><stop offset="1" stop-color="#f2f2f2" /></linearGradient><linearGradient id="New_Gradient_Swatch_2-2" x1="36" y1="24.22" x2="36" y2="7.14" xlink:href="#New_Gradient_Swatch_2" /></defs><title>D7140_extraction_erupted_tooth_or_exposed_root</title><g class="cls-1"><g id="D7140_-_extraction_erupted_tooth_or_exposed_root" data-name="D7140 - extraction, erupted tooth or exposed root"><path class="cls-4" d="M51.46,62.61c3.34,0,2.83-4.77,2.1-9.71S51,39.24,48.78,41.28s-7.29,5.2-12.78,5.2-10.53-3.17-12.78-5.2S19.16,48,18.43,52.9s-1.23,9.71,2.1,9.71Z" transform="translate(-1.27 -1.27)" /><path class="cls-5" d="M51.46,62.61c3.34,0,2.83-4.77,2.1-9.71S51,39.24,48.78,41.28a19.46,19.46,0,0,1-2.36,1.79,52.28,52.28,0,0,1,3.86,10.07,27.5,27.5,0,0,1,1,9.47Z" transform="translate(-1.27 -1.27)" /><path class="cls-6" d="M20.1,50.18c.58-3,2.05-7.14,4.15-8.05-.39-.3-.73-.58-1-.85C21,39.24,19.16,48,18.43,52.9c-.57,3.9-1,7.7.49,9.12C18.59,58.41,19.45,53.56,20.1,50.18Z" transform="translate(-1.27 -1.27)" /><path class="cls-7" d="M51.46,62.61c3.34,0,2.83-4.77,2.1-9.71S51,39.24,48.78,41.28s-7.29,5.2-12.78,5.2-10.53-3.17-12.78-5.2S19.16,48,18.43,52.9s-1.23,9.71,2.1,9.71Z" transform="translate(-1.27 -1.27)" /><g class="cls-8"><path class="cls-9" d="M29,60.25a2.82,2.82,0,0,0,2.35.1c.85-.47.56-1.45.19-2.68a17.54,17.54,0,0,1-.9-5.83c.1-3.66,2.41-5.76,4.72-6.08a20.4,20.4,0,0,1-11.67-5l-.07-.05a17.72,17.72,0,0,1-.51,2.67A17.23,17.23,0,0,0,23.29,54,10.5,10.5,0,0,0,29,60.25Z" transform="translate(-1.27 -1.27)" /><path class="cls-9" d="M41.33,51.85a17.55,17.55,0,0,1-.9,5.83c-.37,1.23-.66,2.21.19,2.68a1.83,1.83,0,0,0,.9.21A4.07,4.07,0,0,0,43,60.25,10.49,10.49,0,0,0,48.7,54a17.24,17.24,0,0,0,.15-10.61,17.65,17.65,0,0,1-.51-2.67l-.07.05a20.41,20.41,0,0,1-11.67,5C38.92,46.09,41.22,48.19,41.33,51.85Z" transform="translate(-1.27 -1.27)" /></g><path class="cls-10" d="M42,38.31c.14,4.81-1.89,7.46-1.06,7.93,1.28.71,5.67-1.7,7.09-6,2.22-6.65-.43-10.21-.43-13.61,0-1.75,1.28-1.84,1.28-4.82V13.06a3.86,3.86,0,0,0-4-3.83h-6.1c-1.42,0-2,1.17-2.81,1.17s-1.39-1.17-2.81-1.17h-6.1a3.86,3.86,0,0,0-4,3.83v8.79c0,3,1.28,3.07,1.28,4.82,0,3.4-2.64,7-.43,13.61,1.42,4.25,5.81,6.66,7.09,6,.83-.46-1.2-3.12-1.06-7.93.12-4.17,2.93-6.8,6-6.8S41.9,34.14,42,38.31Z" transform="translate(-1.27 -1.27)" /><path class="cls-11" d="M37.08,31.63v-.52s-6.43-1.25-8.72,4.2c-1.9,4.53.72,9.15,2.52,11l.14,0c.83-.46-1.2-3.12-1.06-7.93.12-4.17,2.93-6.8,6-6.8A5.43,5.43,0,0,1,37.08,31.63Z" transform="translate(-1.27 -1.27)" /><path class="cls-12" d="M25.85,42.08a15,15,0,0,1-1.59-7.67c0-2.32,1.3-5.36,1.45-7.53s-1.45-2.82-1.45-5.14V13.28a8.73,8.73,0,0,1,.82-3.53,3.72,3.72,0,0,0-2,3.32v8.79c0,3,1.28,3.07,1.28,4.82,0,3.4-2.64,7-.43,13.61a9.61,9.61,0,0,0,5.82,6A9.93,9.93,0,0,1,25.85,42.08Z" transform="translate(-1.27 -1.27)" /><path class="cls-11" d="M48,40.28c2.22-6.65-.43-10.21-.43-13.61,0-1.75,1.28-1.84,1.28-4.82V13.06a3.86,3.86,0,0,0-4-3.83h-6.1c-1.42,0-2,1.17-2.81,1.17s-1.39-1.17-2.81-1.17h-6.1a3.87,3.87,0,0,0-4,3.51,3.54,3.54,0,0,1,2-.55h8.31c1,0,1.23.59,2.55.59s1.36-.59,2.76-.59H42c2.93,0,3.49,1.21,3.49,3.59v5.59c0,3.63-1.26,3.28-1.26,5.17s.84,2.1,1.4,7.47C46,37.59,44,43.1,41.06,45.34l-.28.24c0,.33,0,.56.18.66C42.24,46.94,46.63,44.53,48,40.28Z" transform="translate(-1.27 -1.27)" /><path class="cls-12" d="M41,45.52a24.73,24.73,0,0,0,1.59-3.66,10,10,0,0,0-.49-7.57,6.2,6.2,0,0,0-5.31-3.18l.07.49c2.73.44,5,2.94,5.15,6.72a20.78,20.78,0,0,1-1.16,6.86Z" transform="translate(-1.27 -1.27)" /><path class="cls-13" d="M42,38.31c.14,4.81-1.89,7.46-1.06,7.93,1.28.71,5.67-1.7,7.09-6,2.22-6.65-.43-10.21-.43-13.61,0-1.75,1.28-1.84,1.28-4.82V13.06a3.86,3.86,0,0,0-4-3.83h-6.1c-1.42,0-2,1.17-2.81,1.17s-1.39-1.17-2.81-1.17h-6.1a3.86,3.86,0,0,0-4,3.83v8.79c0,3,1.28,3.07,1.28,4.82,0,3.4-2.64,7-.43,13.61,1.42,4.25,5.81,6.66,7.09,6,.83-.46-1.2-3.12-1.06-7.93.12-4.17,2.93-6.8,6-6.8S41.9,34.14,42,38.31Z" transform="translate(-1.27 -1.27)" /><line class="cls-14" x1="34.73" y1="41.69" x2="34.73" y2="34.67" /><polygon class="cls-15" points="38.41 37.65 37.75 38.26 34.73 35.01 31.71 38.26 31.05 37.65 34.73 33.69 38.41 37.65" /></g></g></svg>