<svg xmlns="http://www.w3.org/2000/svg" xmlns:xlink="http://www.w3.org/1999/xlink" viewBox="0 0 69.46 69.46"><defs><style>.cls-1,.cls-15,.cls-20{fill:none;}.cls-2{isolation:isolate;}.cls-3{stroke:#dcddde;stroke-width:1.06px;fill:url(#New_Gradient_Swatch_2);}.cls-15,.cls-22,.cls-3{stroke-miterlimit:10;}.cls-4{fill:url(#New_Gradient_Swatch_2-2);}.cls-5{fill:#eaeeef;}.cls-6{fill:#d8dee0;}.cls-7{fill:url(#New_Gradient_Swatch_2-3);}.cls-8{fill:url(#New_Gradient_Swatch_2-4);}.cls-9{fill:url(#New_Gradient_Swatch_2-5);}.cls-10{fill:url(#New_Gradient_Swatch_2-6);}.cls-11{fill:url(#New_Gradient_Swatch_2-7);}.cls-12{fill:url(#New_Gradient_Swatch_2-8);}.cls-13{fill:url(#New_Gradient_Swatch_2-9);}.cls-14,.cls-18{fill:#fff;}.cls-15{stroke:#b1bfc4;}.cls-16{fill:#dd7b7f;}.cls-17,.cls-19{fill:#181a1d;opacity:0.07;}.cls-17{mix-blend-mode:multiply;}.cls-18{opacity:0.3;}.cls-20,.cls-22{stroke:#b94656;stroke-linecap:round;stroke-width:1.2px;}.cls-20{stroke-linejoin:round;}.cls-21{fill:#b1bfc4;}.cls-22{fill:#c56e72;}.cls-23{clip-path:url(#clip-path);}.cls-24{fill:#3c3d3d;}</style><linearGradient id="New_Gradient_Swatch_2" x1="34.73" y1="45.42" x2="34.73" y2="62.25" gradientUnits="userSpaceOnUse"><stop offset="0" stop-color="#fff" /><stop offset="1" stop-color="#f2f2f2" /></linearGradient><linearGradient id="New_Gradient_Swatch_2-2" x1="36.03" y1="24.32" x2="36.03" y2="7.23" xlink:href="#New_Gradient_Swatch_2" /><linearGradient id="New_Gradient_Swatch_2-3" x1="51.47" y1="31.22" x2="51.47" y2="28.35" xlink:href="#New_Gradient_Swatch_2" /><linearGradient id="New_Gradient_Swatch_2-4" x1="54.35" y1="34.34" x2="54.35" y2="32.11" gradientTransform="matrix(1, 0, 0, -1, -1.27, 78.62)" xlink:href="#New_Gradient_Swatch_2" /><linearGradient id="New_Gradient_Swatch_2-5" x1="48.37" y1="33.67" x2="48.37" y2="31.17" gradientTransform="matrix(1, 0, 0, -1, -1.27, 78.62)" xlink:href="#New_Gradient_Swatch_2" /><linearGradient id="New_Gradient_Swatch_2-6" x1="41.85" y1="33.67" x2="41.85" y2="31.17" gradientTransform="matrix(1, 0, 0, -1, -1.27, 78.62)" xlink:href="#New_Gradient_Swatch_2" /><linearGradient id="New_Gradient_Swatch_2-7" x1="35.02" y1="33.67" x2="35.02" y2="31.17" gradientTransform="matrix(1, 0, 0, -1, -1.27, 78.62)" xlink:href="#New_Gradient_Swatch_2" /><linearGradient id="New_Gradient_Swatch_2-8" x1="43.49" y1="30.28" x2="43.49" y2="27.03" xlink:href="#New_Gradient_Swatch_2" /><linearGradient id="New_Gradient_Swatch_2-9" x1="33.8" y1="30.28" x2="33.8" y2="27.03" xlink:href="#New_Gradient_Swatch_2" /><clipPath id="clip-path" transform="translate(-1.27 -1.27)"><path class="cls-1" d="M39.37,23a42.08,42.08,0,0,1,2.92-4.82l10.08,3.78L51,29.69l-7.44,5.69L29,24.69l1.44-5.12Z" /></clipPath></defs><title>D7960_frenulectomy</title><g class="cls-2"><g id="D7960_-_frenulectomy" data-name="D7960 - frenulectomy"><path class="cls-5" d="M36,46.68V41.62A1.54,1.54,0,0,0,34.55,40H30.42A1.54,1.54,0,0,0,29,41.62v5.07c0,1.29,1.82,2.65,3.54,2.65S36,48,36,46.68Z" transform="translate(-1.27 -1.27)" /><path class="cls-5" d="M29,46.29V41.52A1.45,1.45,0,0,0,27.6,40H23.72a1.45,1.45,0,0,0-1.37,1.56v4.77c0,1.22,1.71,2.49,3.33,2.49S29,47.5,29,46.29Z" transform="translate(-1.27 -1.27)" /><path class="cls-5" d="M22.35,45.63V41.36A1.3,1.3,0,0,0,21.13,40H17.65a1.3,1.3,0,0,0-1.22,1.4v4.27c0,1.09,1.53,2.23,3,2.23S22.35,46.72,22.35,45.63Z" transform="translate(-1.27 -1.27)" /><path class="cls-5" d="M16.43,45.19V41.25A1.22,1.22,0,0,0,15.26,40H12a1.22,1.22,0,0,0-1.16,1.29v3.94c0,1,1.46,2.06,2.84,2.06S16.43,46.2,16.43,45.19Z" transform="translate(-1.27 -1.27)" /><path class="cls-5" d="M36,46.68V41.62A1.54,1.54,0,0,1,37.45,40h4.13A1.54,1.54,0,0,1,43,41.62v5.07c0,1.29-1.82,2.65-3.54,2.65S36,48,36,46.68Z" transform="translate(-1.27 -1.27)" /><path class="cls-5" d="M43,46.29V41.52A1.45,1.45,0,0,1,44.4,40h3.88a1.45,1.45,0,0,1,1.37,1.56v4.77c0,1.22-1.71,2.49-3.33,2.49S43,47.5,43,46.29Z" transform="translate(-1.27 -1.27)" /><path class="cls-5" d="M49.65,45.63V41.36A1.3,1.3,0,0,1,50.87,40h3.48a1.3,1.3,0,0,1,1.22,1.4v4.27c0,1.09-1.53,2.23-3,2.23S49.65,46.72,49.65,45.63Z" transform="translate(-1.27 -1.27)" /><path class="cls-5" d="M55.57,45.19V41.25A1.22,1.22,0,0,1,56.74,40H60a1.22,1.22,0,0,1,1.16,1.29v3.94c0,1-1.46,2.06-2.84,2.06S55.57,46.2,55.57,45.19Z" transform="translate(-1.27 -1.27)" /><path class="cls-5" d="M25.85,30.81V37.7A2.15,2.15,0,0,0,27.94,40h6A2.15,2.15,0,0,0,36,37.7V30.81c0-1.76-2.63-3.6-5.11-3.6S25.85,29,25.85,30.81Z" transform="translate(-1.27 -1.27)" /><path class="cls-5" d="M17.82,32v6a1.81,1.81,0,0,0,1.66,2h4.71a1.81,1.81,0,0,0,1.66-2V32c0-1.53-2.08-3.14-4-3.14S17.82,30.44,17.82,32Z" transform="translate(-1.27 -1.27)" /><path class="cls-5" d="M10.79,33.23V38.3A1.54,1.54,0,0,0,12.24,40h4.13a1.54,1.54,0,0,0,1.45-1.66V33.23c0-1.29-1.82-2.65-3.54-2.65S10.79,31.94,10.79,33.23Z" transform="translate(-1.27 -1.27)" /><polygon class="cls-6" points="10.93 30.31 10.93 38.51 10.07 38.28 9.46 37.02 9.46 31.24 10.07 30.6 10.93 30.31" /><polygon class="cls-6" points="10.96 38.62 10.96 45.57 10.47 45.34 9.86 44.09 9.86 39.54 10.47 38.91 10.96 38.62" /><polygon class="cls-6" points="16.56 38.62 16.56 45.57 16.07 45.34 15.46 44.09 15.46 39.54 16.07 38.91 16.56 38.62" /><polygon class="cls-6" points="22.53 38.62 22.53 46.9 22.04 46.67 21.42 45.42 21.42 39.54 22.04 38.91 22.53 38.62" /><polygon class="cls-6" points="29.12 38.62 29.12 46.9 28.63 46.67 28.02 45.42 28.02 39.54 28.63 38.91 29.12 38.62" /><polygon class="cls-6" points="17.95 28.56 17.95 38.51 17.08 38.28 16.47 37.02 16.47 29.48 17.08 28.84 17.95 28.56" /><polygon class="cls-6" points="26.01 27.21 26.01 38.51 25.14 38.28 24.53 37.02 24.53 28.13 25.14 27.5 26.01 27.21" /><path class="cls-5" d="M46.15,30.81V37.7A2.15,2.15,0,0,1,44.06,40h-6A2.15,2.15,0,0,1,36,37.7V30.81c0-1.76,2.63-3.6,5.11-3.6S46.15,29,46.15,30.81Z" transform="translate(-1.27 -1.27)" /><path class="cls-5" d="M54.18,32v6a1.81,1.81,0,0,1-1.66,2H47.81a1.81,1.81,0,0,1-1.66-2V32c0-1.53,2.08-3.14,4-3.14S54.18,30.44,54.18,32Z" transform="translate(-1.27 -1.27)" /><path class="cls-5" d="M61.21,33.23V38.3A1.54,1.54,0,0,1,59.76,40H55.64a1.54,1.54,0,0,1-1.45-1.66V33.23c0-1.29,1.82-2.65,3.54-2.65S61.21,31.94,61.21,33.23Z" transform="translate(-1.27 -1.27)" /><polygon class="cls-7" points="50.11 28.02 50.11 38.38 52.8 38.38 52.84 30 51.41 28.5 50.11 28.02" /><polygon class="cls-8" points="51.67 46.76 51.67 38.84 54.46 38.72 54.49 44.66 53.06 46.16 51.67 46.76" /><polygon class="cls-9" points="46.02 47.73 46.02 38.72 48.14 38.72 48.17 45.76 46.74 47.26 46.02 47.73" /><polygon class="cls-10" points="39.81 47.73 39.81 38.72 41.32 38.72 41.35 45.76 40.71 46.98 39.81 47.73" /><polygon class="cls-11" points="33.17 47.73 33.17 38.72 34.31 38.72 34.34 45.76 33.7 46.98 33.17 47.73" /><polygon class="cls-12" points="42.47 26.66 42.47 38.38 44.49 38.38 44.52 30 43.91 27.55 42.47 26.66" /><polygon class="cls-13" points="33.03 26.66 33.03 38.38 34.54 38.38 34.57 30 33.96 27.55 33.03 26.66" /><path class="cls-14" d="M61.14,39.91l.11-6.9s.21-1.09-1.2-2a4,4,0,0,0-2.61-.67v9.57Z" transform="translate(-1.27 -1.27)" /><path class="cls-14" d="M58.19,40.34v7.21a2.71,2.71,0,0,0,1.9-.57,2.51,2.51,0,0,0,1.28-1.86l-.23-4.78Z" transform="translate(-1.27 -1.27)" /><path class="cls-15" d="M36,46.68V41.62A1.54,1.54,0,0,0,34.55,40H30.42A1.54,1.54,0,0,0,29,41.62v5.07c0,1.29,1.82,2.65,3.54,2.65S36,48,36,46.68Z" transform="translate(-1.27 -1.27)" /><path class="cls-15" d="M29,46.29V41.52A1.45,1.45,0,0,0,27.6,40H23.72a1.45,1.45,0,0,0-1.37,1.56v4.77c0,1.22,1.71,2.49,3.33,2.49S29,47.5,29,46.29Z" transform="translate(-1.27 -1.27)" /><path class="cls-15" d="M22.35,45.63V41.36A1.3,1.3,0,0,0,21.13,40H17.65a1.3,1.3,0,0,0-1.22,1.4v4.27c0,1.09,1.53,2.23,3,2.23S22.35,46.72,22.35,45.63Z" transform="translate(-1.27 -1.27)" /><path class="cls-15" d="M16.43,45.19V41.25A1.22,1.22,0,0,0,15.26,40H12a1.22,1.22,0,0,0-1.16,1.29v3.94c0,1,1.46,2.06,2.84,2.06S16.43,46.2,16.43,45.19Z" transform="translate(-1.27 -1.27)" /><path class="cls-15" d="M36,46.68V41.62A1.54,1.54,0,0,1,37.45,40h4.13A1.54,1.54,0,0,1,43,41.62v5.07c0,1.29-1.82,2.65-3.54,2.65S36,48,36,46.68Z" transform="translate(-1.27 -1.27)" /><path class="cls-15" d="M43,46.29V41.52A1.45,1.45,0,0,1,44.4,40h3.88a1.45,1.45,0,0,1,1.37,1.56v4.77c0,1.22-1.71,2.49-3.33,2.49S43,47.5,43,46.29Z" transform="translate(-1.27 -1.27)" /><path class="cls-15" d="M49.65,45.63V41.36A1.3,1.3,0,0,1,50.87,40h3.48a1.3,1.3,0,0,1,1.22,1.4v4.27c0,1.09-1.53,2.23-3,2.23S49.65,46.72,49.65,45.63Z" transform="translate(-1.27 -1.27)" /><path class="cls-15" d="M55.57,45.19V41.25A1.22,1.22,0,0,1,56.74,40H60a1.22,1.22,0,0,1,1.16,1.29v3.94c0,1-1.46,2.06-2.84,2.06S55.57,46.2,55.57,45.19Z" transform="translate(-1.27 -1.27)" /><path class="cls-15" d="M25.85,30.81V37.7A2.15,2.15,0,0,0,27.94,40h6A2.15,2.15,0,0,0,36,37.7V30.81c0-1.76-2.63-3.6-5.11-3.6S25.85,29,25.85,30.81Z" transform="translate(-1.27 -1.27)" /><path class="cls-15" d="M17.82,32v6a1.81,1.81,0,0,0,1.66,2h4.71a1.81,1.81,0,0,0,1.66-2V32c0-1.53-2.08-3.14-4-3.14S17.82,30.44,17.82,32Z" transform="translate(-1.27 -1.27)" /><path class="cls-15" d="M10.79,33.23V38.3A1.54,1.54,0,0,0,12.24,40h4.13a1.54,1.54,0,0,0,1.45-1.66V33.23c0-1.29-1.82-2.65-3.54-2.65S10.79,31.94,10.79,33.23Z" transform="translate(-1.27 -1.27)" /><path class="cls-15" d="M46.15,30.81V37.7A2.15,2.15,0,0,1,44.06,40h-6A2.15,2.15,0,0,1,36,37.7V30.81c0-1.76,2.63-3.6,5.11-3.6S46.15,29,46.15,30.81Z" transform="translate(-1.27 -1.27)" /><path class="cls-15" d="M54.18,32v6a1.81,1.81,0,0,1-1.66,2H47.81a1.81,1.81,0,0,1-1.66-2V32c0-1.53,2.08-3.14,4-3.14S54.18,30.44,54.18,32Z" transform="translate(-1.27 -1.27)" /><path class="cls-15" d="M61.21,33.23V38.3A1.54,1.54,0,0,1,59.76,40H55.64a1.54,1.54,0,0,1-1.45-1.66V33.23c0-1.29,1.82-2.65,3.54-2.65S61.21,31.94,61.21,33.23Z" transform="translate(-1.27 -1.27)" /><path class="cls-16" d="M63.17,27.34C59.17,23.84,50,18,36,18S12.83,23.84,8.83,27.34c-2.9,2.54,2,6.09,2,5.9,0-1.29,1.77-2.65,3.49-2.65s3.54,1.36,3.54,2.65c0,.22,0-.88,0-1.26,0-1.53,2-3.14,4-3.14s4,1.61,4,3.14V30.81c0-1.76,2.56-3.6,5-3.6S36,29,36,30.81c0-1.76,2.63-3.6,5.11-3.6s5,1.85,5,3.6V32c0-1.53,2.08-3.14,4-3.14s4,1.61,4,3.14c0,.38,0,1.47,0,1.26,0-1.29,1.82-2.65,3.54-2.65s3.49,1.36,3.49,2.65C61.21,33.43,66.07,29.87,63.17,27.34Z" transform="translate(-1.27 -1.27)" /><path class="cls-17" d="M10.46,26.46s-1,.22-.64,2.42a6.94,6.94,0,0,0,1.77,2.56l-1,1.31L8.06,30.41l0-2.53Z" transform="translate(-1.27 -1.27)" /><path class="cls-18" d="M61.25,33s3-1.87,3-4.12S60.63,25,58.38,23.75a92.64,92.64,0,0,0-9.58-3.66s6.74,4,8.86,5.73-.27,4.5-.27,4.5,2.25.23,2.93.92A4.35,4.35,0,0,1,61.25,33Z" transform="translate(-1.27 -1.27)" /><path class="cls-16" d="M62.36,48.29c-.49-1.37-.87-2.38-1.15-3.1h0c0,1-1.46,2.06-2.84,2.06s-2.8-1.06-2.8-2.06c0-.24,0,.15,0,.44,0,1.09-1.53,2.23-3,2.23s-2.94-1.14-2.94-2.23c0-.29,0,.29,0,.66,0,1.22-1.71,2.49-3.33,2.49S43,47.5,43,46.29c0-.37,0,0,0,.4,0,1.29-1.82,2.65-3.54,2.65S36,48,36,46.68c0,1.29-1.77,2.65-3.49,2.65S29,48,29,46.68c0-.42,0-.77,0-.4,0,1.22-1.67,2.49-3.28,2.49s-3.33-1.28-3.33-2.49c0-.37,0-.95,0-.66,0,1.09-1.49,2.23-2.94,2.23s-3-1.14-3-2.23c0-.29,0-.68,0-.44,0,1-1.42,2.06-2.8,2.06s-2.84-1.06-2.84-2.06h0c-.28.72-.66,1.72-1.15,3.1C7.82,53.39,15.21,58,36,58.14,56.79,58,64.18,53.39,62.36,48.29Z" transform="translate(-1.27 -1.27)" /><path class="cls-19" d="M12.09,47a8.61,8.61,0,0,0-.81,3.75,7,7,0,0,0,1.39,3.17l-2.6-1.85L9,49.3l1.73-3.81Z" transform="translate(-1.27 -1.27)" /><path class="cls-18" d="M61.38,45.13a7.65,7.65,0,0,1,1.38,5.5c-.5,3.13-4.12,4-6.5,4.88a59.36,59.36,0,0,1-7.37,1.75s5.71-1.51,9.26-4.85c1.37-1.29-.2-5.45-.2-5.45a1.94,1.94,0,0,0,2.22-.07A2.34,2.34,0,0,0,61.38,45.13Z" transform="translate(-1.27 -1.27)" /><path class="cls-20" d="M63.17,27.34C59.17,23.84,50,18,36,18S12.83,23.84,8.83,27.34c-2.9,2.54,2,6.09,2,5.9,0-1.29,1.77-2.65,3.49-2.65s3.54,1.36,3.54,2.65c0,.22,0-.88,0-1.26,0-1.53,2-3.14,4-3.14s4,1.61,4,3.14V30.81c0-1.76,2.56-3.6,5-3.6S36,29,36,30.81c0-1.76,2.63-3.6,5.11-3.6s5,1.85,5,3.6V32c0-1.53,2.08-3.14,4-3.14s4,1.61,4,3.14c0,.38,0,1.47,0,1.26,0-1.29,1.82-2.65,3.54-2.65s3.49,1.36,3.49,2.65C61.21,33.43,66.07,29.87,63.17,27.34Z" transform="translate(-1.27 -1.27)" /><path class="cls-20" d="M62.36,48.29c-.49-1.37-.87-2.38-1.15-3.1h0c0,1-1.46,2.06-2.84,2.06s-2.8-1.06-2.8-2.06c0-.24,0,.15,0,.44,0,1.09-1.53,2.23-3,2.23s-2.94-1.14-2.94-2.23c0-.29,0,.29,0,.66,0,1.22-1.71,2.49-3.33,2.49S43,47.5,43,46.29c0-.37,0,0,0,.4,0,1.29-1.82,2.65-3.54,2.65S36,48,36,46.68c0,1.29-1.77,2.65-3.49,2.65S29,48,29,46.68c0-.42,0-.77,0-.4,0,1.22-1.67,2.49-3.28,2.49s-3.33-1.28-3.33-2.49c0-.37,0-.95,0-.66,0,1.09-1.49,2.23-2.94,2.23s-3-1.14-3-2.23c0-.29,0-.68,0-.44,0,1-1.42,2.06-2.8,2.06s-2.84-1.06-2.84-2.06h0c-.28.72-.66,1.72-1.15,3.1C7.82,53.39,15.21,58,36,58.14,56.79,58,64.18,53.39,62.36,48.29Z" transform="translate(-1.27 -1.27)" /><circle class="cls-21" cx="34.68" cy="38.5" r="0.7" /><path class="cls-22" d="M36.08,29c2.23-6.28,6.6-13.81,10.65-16.17-2.36.2-8.17,1-11.25,5.15" transform="translate(-1.27 -1.27)" /><g class="cls-23"><polygon class="cls-24" points="36.49 13.34 39.55 14.97 42.24 26.59 40.87 26.89 36.49 13.34" /><path class="cls-24" d="M45.5,29.27a2.53,2.53,0,1,0-1.58,3.21A2.53,2.53,0,0,0,45.5,29.27Zm-3.74,1.27a1.42,1.42,0,1,1,1.8.89A1.42,1.42,0,0,1,41.76,30.54Z" transform="translate(-1.27 -1.27)" /><polygon class="cls-24" points="30.13 20.66 32.15 23.49 44.01 24.66 44.14 23.26 30.13 20.66" /><path class="cls-24" d="M49.92,25.74a2.53,2.53,0,1,0-3,2A2.53,2.53,0,0,0,49.92,25.74Zm-1.09-.22a1.42,1.42,0,1,1-1.11-1.67A1.42,1.42,0,0,1,48.83,25.53Z" transform="translate(-1.27 -1.27)" /></g></g></g></svg>