<svg xmlns="http://www.w3.org/2000/svg" xmlns:xlink="http://www.w3.org/1999/xlink" viewBox="0 0 69.46 69.46"><defs><style>.cls-1{isolation:isolate;}.cls-2{stroke:#dcddde;stroke-width:1.06px;fill:url(#New_Gradient_Swatch_2);}.cls-2,.cls-4,.cls-6{stroke-miterlimit:10;}.cls-3{fill:url(#New_Gradient_Swatch_2-2);}.cls-4{fill:#592d8e;stroke:#592d8e;}.cls-4,.cls-6{stroke-width:2.8px;}.cls-5{fill:#808285;}.cls-6{fill:none;stroke:#b1b3b6;}.cls-7{fill:#7c60aa;}.cls-8{fill:#181a1d;opacity:0.07;mix-blend-mode:multiply;}.cls-9{fill:#fff;opacity:0.3;}.cls-10,.cls-13{fill:#eaeeef;}.cls-11{fill:#737577;}.cls-12{fill:#b1b3b6;}.cls-13{font-size:11.16px;font-family:ProximaNova-Bold, Proxima Nova;}.cls-14,.cls-16{font-weight:700;}.cls-15{font-size:5.58px;font-family:ProximaNova-Black, Proxima Nova;letter-spacing:-0.07em;}.cls-16{letter-spacing:0em;}</style><linearGradient id="New_Gradient_Swatch_2" x1="34.73" y1="45.42" x2="34.73" y2="62.25" gradientUnits="userSpaceOnUse"><stop offset="0" stop-color="#fff" /><stop offset="1" stop-color="#f2f2f2" /></linearGradient><linearGradient id="New_Gradient_Swatch_2-2" x1="36.03" y1="24.32" x2="36.03" y2="7.23" xlink:href="#New_Gradient_Swatch_2" /></defs><title>D9230_inhalation_of_nitrous_oxide_analgesia_anxiolysis</title><g class="cls-1"><g id="D9230_-_inhalation_of_nitrous_oxide_analgesia_anxiolysis" data-name="D9230 - inhalation of nitrous oxide/analgesia, anxiolysis"><path class="cls-4" d="M58.7,37.46A17,17,0,0,0,41.9,20.51h-2v-.35H38.13v-.54a4.46,4.46,0,1,0-3.43,0v4.6a8.56,8.56,0,0,0-8.13,8.55V49.71a14.14,14.14,0,0,1-7.11-12.25V28.82H20.6a4.74,4.74,0,0,0,4-2.2A6.07,6.07,0,0,0,25.1,21l-2.73-6.65a4.89,4.89,0,0,0-4.49-3.21,4.89,4.89,0,0,0-4.49,3.21L10.65,21a6.07,6.07,0,0,0,.54,5.62,4.74,4.74,0,0,0,4,2.2h1.53v8.64a17,17,0,0,0,9.91,15.39v7.58a1.32,1.32,0,0,0,1.32,1.32H44.94a1.32,1.32,0,0,0,1.32-1.32V53.77A17,17,0,0,0,58.7,37.46ZM46.26,50.85V32.73a8.52,8.52,0,0,0-8.13-8.51v-.58h1.72v-.33h2a14.14,14.14,0,0,1,4.37,27.54Z" transform="translate(-1.27 -1.27)" /><rect class="cls-5" x="33.43" y="17.9" width="3.43" height="5.72" /><path class="cls-6" d="M41.75,53a15.55,15.55,0,0,0,.15-31.09H38.15" transform="translate(-1.27 -1.27)" /><path class="cls-6" d="M33.61,53A15.55,15.55,0,0,1,18.07,37.45V28" transform="translate(-1.27 -1.27)" /><rect class="cls-5" x="36.17" y="19.96" width="3.48" height="3.88" transform="translate(14.74 58.54) rotate(-90)" /><path class="cls-7" d="M33.87,22.93h2.59A8.53,8.53,0,0,1,45,31.46v27.7a1.32,1.32,0,0,1-1.32,1.32H26.62a1.32,1.32,0,0,1-1.32-1.32V31.51A8.57,8.57,0,0,1,33.87,22.93Z" /><path class="cls-8" d="M27.29,60.75V32.59a8.72,8.72,0,0,1,5-7.88,8.57,8.57,0,0,0-5.71,8.07V60.43a1.3,1.3,0,0,0,1.11,1.28A1.34,1.34,0,0,1,27.29,60.75Z" transform="translate(-1.27 -1.27)" /><path class="cls-9" d="M38,24.22A8.13,8.13,0,0,1,43.77,32V60.84a1.24,1.24,0,0,1-.4.91h1.57a1.32,1.32,0,0,0,1.32-1.32V32.73A8.52,8.52,0,0,0,38,24.22Z" transform="translate(-1.27 -1.27)" /><circle class="cls-5" cx="35.14" cy="14.23" r="4.46" /><circle class="cls-10" cx="35.14" cy="14.23" r="3.12" /><circle class="cls-11" cx="35.14" cy="14.23" r="0.62" /><path class="cls-10" d="M17.87,27.42H15.14c-2.61,0-4.32-3.16-3.2-5.89l1.75-4.27,1-2.38a3.35,3.35,0,0,1,6.39,0l1,2.38,1.75,4.27c1.12,2.73-.59,5.89-3.2,5.89Z" transform="translate(-1.27 -1.27)" /><path class="cls-7" d="M20.6,28.82H15.14a4.74,4.74,0,0,1-4-2.2A6.07,6.07,0,0,1,10.65,21l2.73-6.65a4.89,4.89,0,0,1,4.49-3.21,4.89,4.89,0,0,1,4.49,3.21L25.1,21a6.07,6.07,0,0,1-.54,5.62A4.74,4.74,0,0,1,20.6,28.82ZM17.87,13.93A2.12,2.12,0,0,0,16,15.41l-2.73,6.65a3.24,3.24,0,0,0,.27,3,2,2,0,0,0,1.63,1H20.6a2,2,0,0,0,1.63-1,3.24,3.24,0,0,0,.27-3l-2.73-6.65A2.12,2.12,0,0,0,17.87,13.93Z" transform="translate(-1.27 -1.27)" /><path class="cls-8" d="M11.79,26.77A6.21,6.21,0,0,1,11.24,21L14,14.21a5.22,5.22,0,0,1,3-3,5,5,0,0,0-3.65,3.13L10.65,21a6.07,6.07,0,0,0,.54,5.62,4.85,4.85,0,0,0,2.93,2.08A5.07,5.07,0,0,1,11.79,26.77Z" transform="translate(-1.27 -1.27)" /><path class="cls-9" d="M25.1,21l-2.73-6.65a4.92,4.92,0,0,0-4.13-3.18,5.27,5.27,0,0,1,3,3L24,21a6.27,6.27,0,0,1-.56,5.81,5.11,5.11,0,0,1-2.39,2,4.78,4.78,0,0,0,3.48-2.17A6.07,6.07,0,0,0,25.1,21Z" transform="translate(-1.27 -1.27)" /><circle class="cls-12" cx="16.6" cy="19.66" r="2.06" /><path class="cls-7" d="M33.92,15.51h1.41a1.09,1.09,0,0,0,1.06,1.09V18A2.5,2.5,0,0,1,33.92,15.51Z" transform="translate(-1.27 -1.27)" /><rect class="cls-11" x="35.01" y="14.04" width="2.8" height="0.39" /><text class="cls-13" transform="translate(26.35 42.79)"><tspan class="cls-14">N</tspan><tspan class="cls-15" x="8.13" y="1.39">2</tspan><tspan class="cls-16" x="11.17" y="0">0</tspan></text></g></g></svg>