<svg xmlns="http://www.w3.org/2000/svg" xmlns:xlink="http://www.w3.org/1999/xlink" viewBox="0 0 69.46 69.46"><defs><style>.cls-1{isolation:isolate;}.cls-2{stroke:#dcddde;stroke-width:1.06px;fill:url(#New_Gradient_Swatch_2);}.cls-2,.cls-4{stroke-miterlimit:10;}.cls-3{fill:url(#New_Gradient_Swatch_2-2);}.cls-4,.cls-6{fill:#116c91;}.cls-4{stroke:#116c91;stroke-width:2.8px;}.cls-5{fill:#009cb6;}.cls-7{fill:#64cbe2;}.cls-8{fill:#fff;opacity:0.3;}.cls-9{fill:#181a1d;opacity:0.07;mix-blend-mode:multiply;}</style><linearGradient id="New_Gradient_Swatch_2" x1="34.73" y1="45.42" x2="34.73" y2="62.25" gradientUnits="userSpaceOnUse"><stop offset="0" stop-color="#fff" /><stop offset="1" stop-color="#f2f2f2" /></linearGradient><linearGradient id="New_Gradient_Swatch_2-2" x1="36" y1="24.32" x2="36" y2="7.23" xlink:href="#New_Gradient_Swatch_2" /></defs><title>D9940_occlusal_guard_by_report</title><g class="cls-1"><g id="D9940_-_occlusal_guard_by_report" data-name="D9940 - occlusal guard, by report"><path class="cls-4" d="M62.85,30c0-5.45-2.33-6.37-3-6.51a23.32,23.32,0,0,0-5.11-1.16c-.81-.06-.81.13-1.09.73-2.16,4.68-6.16,8.71-10.42,10a21.81,21.81,0,0,1-14.55,0c-4.26-1.3-8.26-5.32-10.42-10-.28-.6-.28-.79-1.09-.73a23.35,23.35,0,0,0-5.11,1.16c-.62.14-3,1.05-3,6.52,0,3.14,3,4.6,3,4.6a8.1,8.1,0,0,0,1.45,5.68A7.87,7.87,0,0,0,17.26,43a7.58,7.58,0,0,0,3.14,4.47A9.67,9.67,0,0,0,24.88,49s.24,3.39,5.2,4.47A6.36,6.36,0,0,0,36,52.17a6.36,6.36,0,0,0,5.93,1.33c5-1.08,5.2-4.47,5.2-4.47a9.67,9.67,0,0,0,4.47-1.57A7.58,7.58,0,0,0,54.74,43a7.87,7.87,0,0,0,3.63-2.66,8.1,8.1,0,0,0,1.45-5.68S62.85,33.19,62.85,30Z" transform="translate(-1.27 -1.27)" /><path class="cls-5" d="M60.46,23.82c-1.09-.73-4.72-1.38-5.68-1.45-.81-.06-.81.13-1.09.73-2.16,4.68-6.16,8.71-10.42,10a21.81,21.81,0,0,1-14.55,0c-4.26-1.3-8.26-5.32-10.42-10-.28-.6-.28-.79-1.09-.73-1,.07-4.6.73-5.68,1.45s-1,3.87-1,3.87L12.5,33l6.65,9.31,12.94,5,3.84-2.85,4,2.85,12.94-5L59.5,33l1.93-5.32S61.55,24.54,60.46,23.82Z" transform="translate(-1.27 -1.27)" /><path class="cls-6" d="M60.31,27.91s-2.67-.69-3.76-.83c-.73-.1-1-.2-1.2.55a14.11,14.11,0,0,1-6.21,8.52,21.65,21.65,0,0,1-13.22,4,21.21,21.21,0,0,1-13.09-4,16.46,16.46,0,0,1-6.21-8.52c-.24-.73-.46-.65-1.2-.55-1.09.14-3.76.83-3.76.83s-.6,2.86.25,4.31,8,11.13,12.33,13.66c4,2.35,10.63,3,11.6,3.13H36c1-.09,7.7-.78,11.73-3.13,4.35-2.54,11.49-12.21,12.33-13.66S60.31,27.91,60.31,27.91Z" transform="translate(-1.27 -1.27)" /><path class="cls-7" d="M60.46,23.82c-1.09-.73-4.72-1.38-5.68-1.45-.81-.06-.81.13-1.09.73-2.16,4.68-6.16,8.71-10.42,10a21.81,21.81,0,0,1-14.55,0c-4.26-1.3-8.26-5.32-10.42-10-.28-.6-.28-.79-1.09-.73-1,.07-4.6.73-5.68,1.45s-1,3.87-1,3.87L12.5,33l6.65,9.31,12.94,5,3.84-2.85,4,2.85,12.94-5L59.5,33l1.93-5.32S61.55,24.54,60.46,23.82Zm-43.22-.31,0,.06c2.39,5.19,6.66,9.26,11.12,10.62a22.63,22.63,0,0,0,7.53,1.3H36a22.63,22.63,0,0,0,7.56-1.3c4.47-1.36,8.73-5.43,11.12-10.62l0-.06a23.53,23.53,0,0,1,4.37.95,2.15,2.15,0,0,1,.22,2.29,5.11,5.11,0,0,1-1.85,2.17l-.65.33,0,.72c0,.07,0,1.65-2.25,3.17a7.47,7.47,0,0,1-2.16,1.08l-.71.18-.15.7s-.31,1.37-3,2.83a8,8,0,0,1-2.79,1l-.51.06-.29.41c0,.06-1.12,1.51-4.37,1.92a14,14,0,0,1-1.72.11,10.9,10.9,0,0,1-2.68-.29L36,41l-.3.08a10.89,10.89,0,0,1-2.68.3,14,14,0,0,1-1.72-.11C28,40.9,27,39.45,26.94,39.4L26.65,39l-.51,0a8,8,0,0,1-2.79-1c-2.61-1.45-2.94-2.79-2.95-2.79h0l-.11-.76-.74-.16a7.4,7.4,0,0,1-2.17-1.08C15.1,31.62,15.12,30,15.13,30l0-.73-.65-.33a5.08,5.08,0,0,1-1.87-2.17,2.13,2.13,0,0,1,.22-2.3A23.71,23.71,0,0,1,17.24,23.51Z" transform="translate(-1.27 -1.27)" /><path class="cls-8" d="M60.46,23.82c-1.09-.73-4.72-1.38-5.68-1.45-.81-.06-.81.13-1.09.73-2.16,4.68-6.16,8.71-10.42,10a21.81,21.81,0,0,1-14.55,0c-4.26-1.3-8.26-5.32-10.42-10-.28-.6-.28-.79-1.09-.73-1,.07-4.6.73-5.68,1.45s-1,3.87-1,3.87L12.5,33l6.65,9.31,12.94,5,3.84-2.85,4,2.85,12.94-5L59.5,33l1.93-5.32S61.55,24.54,60.46,23.82Zm-43.22-.31,0,.06c2.39,5.19,6.66,9.26,11.12,10.62a22.63,22.63,0,0,0,7.53,1.3H36a22.63,22.63,0,0,0,7.56-1.3c4.47-1.36,8.73-5.43,11.12-10.62l0-.06a23.53,23.53,0,0,1,4.37.95,2.15,2.15,0,0,1,.22,2.29,5.11,5.11,0,0,1-1.85,2.17l-.65.33,0,.72c0,.07,0,1.65-2.25,3.17a7.47,7.47,0,0,1-2.16,1.08l-.71.18-.15.7s-.31,1.37-3,2.83a8,8,0,0,1-2.79,1l-.51.06-.29.41c0,.06-1.12,1.51-4.37,1.92a14,14,0,0,1-1.72.11,10.9,10.9,0,0,1-2.68-.29L36,41l-.3.08a10.89,10.89,0,0,1-2.68.3,14,14,0,0,1-1.72-.11C28,40.9,27,39.45,26.94,39.4L26.65,39l-.51,0a8,8,0,0,1-2.79-1c-2.61-1.45-2.94-2.79-2.95-2.79h0l-.11-.76-.74-.16a7.4,7.4,0,0,1-2.17-1.08C15.1,31.62,15.12,30,15.13,30l0-.73-.65-.33a5.08,5.08,0,0,1-1.87-2.17,2.13,2.13,0,0,1,.22-2.3A23.71,23.71,0,0,1,17.24,23.51Z" transform="translate(-1.27 -1.27)" /><path class="cls-7" d="M62.85,30c0-6.29-3.11-6.54-3.11-6.54a3.35,3.35,0,0,1,.57,3.76A6,6,0,0,1,58,29.9s.18,2.2-2.73,4.13a8,8,0,0,1-2.55,1.24s-.23,1.78-3.49,3.6A8.85,8.85,0,0,1,46,40s-1.25,1.9-5.12,2.38A13.1,13.1,0,0,1,36,42.16a13.1,13.1,0,0,1-4.84.22C27.29,41.89,26,40,26,40a8.85,8.85,0,0,1-3.22-1.13c-3.27-1.81-3.49-3.6-3.49-3.6A8,8,0,0,1,16.77,34C13.87,32.1,14,29.9,14,29.9a6,6,0,0,1-2.35-2.64,3.35,3.35,0,0,1,.57-3.76S9.16,23.75,9.16,30c0,3.14,3,4.6,3,4.6a8.1,8.1,0,0,0,1.45,5.68A7.87,7.87,0,0,0,17.26,43a7.58,7.58,0,0,0,3.14,4.47A9.67,9.67,0,0,0,24.88,49s.24,3.39,5.2,4.47A6.36,6.36,0,0,0,36,52.17a6.36,6.36,0,0,0,5.93,1.33c5-1.08,5.2-4.47,5.2-4.47a9.67,9.67,0,0,0,4.47-1.57A7.58,7.58,0,0,0,54.74,43a7.87,7.87,0,0,0,3.63-2.66,8.1,8.1,0,0,0,1.45-5.68S62.85,33.19,62.85,30Z" transform="translate(-1.27 -1.27)" /><path class="cls-8" d="M59.74,23.5a3.35,3.35,0,0,1,.57,3.76c-.15.28-.3.53-.45.75a6.27,6.27,0,0,1,1.41,2.41,10.48,10.48,0,0,1,.6,2.47,4.68,4.68,0,0,0,1-2.85C62.85,23.75,59.74,23.5,59.74,23.5Z" transform="translate(-1.27 -1.27)" /><path class="cls-8" d="M58,30a4.83,4.83,0,0,1-2.11,3.61A13.6,13.6,0,0,1,57,37.43a18.27,18.27,0,0,1,.34,4,7.85,7.85,0,0,0,1-1.08,8.07,8.07,0,0,0,1.46-5.62c-.18-.6-.46-1.55-.74-2.4A11.42,11.42,0,0,0,58,30Z" transform="translate(-1.27 -1.27)" /><path class="cls-8" d="M52.62,35.48A5,5,0,0,1,51,37.67a14.07,14.07,0,0,1,1.44,4.39c.34,1.88.51,3.26.59,4.23a8,8,0,0,0,1.72-3.16,27.72,27.72,0,0,0-.72-4A19.68,19.68,0,0,0,52.62,35.48Z" transform="translate(-1.27 -1.27)" /><path class="cls-8" d="M45.8,40.19a5.53,5.53,0,0,1-1.54,1.16,44.13,44.13,0,0,1,.87,5.18c.27,2.4.34,4.2.35,5.32a4.72,4.72,0,0,0,1.62-2.66c-.08-1.25-.23-2.9-.52-4.65C46.23,42.38,46,41,45.8,40.19Z" transform="translate(-1.27 -1.27)" /><path class="cls-9" d="M26.16,40.19c-.16.8-.42,2.19-.78,4.35-.29,1.75-.44,3.39-.52,4.65a4.13,4.13,0,0,0,.43,1.18c.09-1,.26-2.84.56-4.89.24-1.67.65-4,.8-4.82A4.46,4.46,0,0,1,26.16,40.19Z" transform="translate(-1.27 -1.27)" /><path class="cls-9" d="M19.34,35.48A19.68,19.68,0,0,0,18,39.12a27.72,27.72,0,0,0-.72,4,7.62,7.62,0,0,0,.36,1,34.67,34.67,0,0,1,.76-4.23,14.65,14.65,0,0,1,1.3-3.75A3.29,3.29,0,0,1,19.34,35.48Z" transform="translate(-1.27 -1.27)" /><path class="cls-9" d="M14,30a11.42,11.42,0,0,0-1.14,2.33c-.28.85-.56,1.8-.74,2.4a8.19,8.19,0,0,0,0,1.53,22.58,22.58,0,0,1,.9-3,15,15,0,0,1,1.12-2.46A3.15,3.15,0,0,1,14,30Z" transform="translate(-1.27 -1.27)" /><path class="cls-9" d="M9.12,30a4.56,4.56,0,0,0,.33,1.7,15.8,15.8,0,0,1,.66-5.55,5.61,5.61,0,0,1,2-2.52l.15-.18S9.12,23.75,9.12,30Z" transform="translate(-1.27 -1.27)" /><path class="cls-8" d="M35.94,42.17c-.1,0-.37.09-.79.16A44.06,44.06,0,0,0,34.94,48c0,2.62.14,4.08.22,4.85a4.31,4.31,0,0,0,.84-.64l0,0Z" transform="translate(-1.27 -1.27)" /></g></g></svg>