<svg xmlns="http://www.w3.org/2000/svg" xmlns:xlink="http://www.w3.org/1999/xlink" viewBox="0 0 69.46 69.46"><defs><style>.cls-1{isolation:isolate;}.cls-2{stroke:#dcddde;stroke-width:1.06px;fill:url(#New_Gradient_Swatch_2);}.cls-2,.cls-4{stroke-miterlimit:10;}.cls-3{fill:url(#New_Gradient_Swatch_2-2);}.cls-4{fill:#737577;stroke:#22356c;stroke-width:2.8px;}.cls-5{fill:#c6431b;}.cls-6{fill:#f05123;}.cls-7{fill:#22356c;}.cls-8{fill:#286dae;}.cls-9{fill:#184782;}.cls-10{fill:#3d85c6;}.cls-11{fill:#181a1d;opacity:0.07;mix-blend-mode:multiply;}.cls-12{fill:#fff;opacity:0.3;}</style><linearGradient id="New_Gradient_Swatch_2" x1="34.73" y1="45.42" x2="34.73" y2="62.25" gradientUnits="userSpaceOnUse"><stop offset="0" stop-color="#fff" /><stop offset="1" stop-color="#f2f2f2" /></linearGradient><linearGradient id="New_Gradient_Swatch_2-2" x1="36" y1="24.32" x2="36" y2="7.23" xlink:href="#New_Gradient_Swatch_2" /></defs><title>D9941_fabrication_of_athletic_mouthguard</title><g class="cls-1"><g id="D9941-_fabrication_of_athletic_mouthguard" data-name="D9941- fabrication of athletic mouthguard"><path class="cls-4" d="M61.38,24.86c-.07.08-1.17,2.08-2.84,4.75-3.58-.13-3.62-.8-4-2.57-.15-.69-.39-1.89-.59-3.06,0-.26-1.27-.76-1.64-.15-2,3.33-4.67,12.39-11.72,12.92-4,.3-4.59.3-4.59.3s-.58,0-4.59-.3c-7-.54-9.67-9.6-11.72-12.92-.37-.61-1.6-.11-1.64.15-.2,1.17-.44,2.37-.59,3.06-.39,1.77-.42,2.44-4,2.57-1.68-2.67-2.77-4.67-2.84-4.75C10,24.18,9,25,9.06,25.29a27.44,27.44,0,0,0,1,3.88c.93,3.88,2.58,8,6.74,13.79,3.38,4.7,4.49,8.31,16.11,8.83L34.2,53.5H36V51.86h0V53.5h1.8L39,51.79c11.63-.52,12.74-4.13,16.12-8.83,4.16-5.78,5.81-9.91,6.74-13.79a27.44,27.44,0,0,0,1-3.88C63,25,62,24.18,61.38,24.86Z" transform="translate(-1.27 -1.27)" /><path class="cls-5" d="M36,47.95V37s-.58,0-4.59-.3c-7-.54-9.67-9.6-11.72-12.92-.37-.61-1.6-.11-1.64.15-.2,1.17-.44,2.37-.59,3.06C17,29,17,29.58,12.52,29.63c0,0,5.32,6.85,8.09,10.88S27.06,47.95,36,47.95" transform="translate(-1.27 -1.27)" /><path class="cls-6" d="M19,37.37c4,4.84,6.33,6.3,17,6.3v8.19C21.48,51.86,20.49,48,16.83,43,12.67,37.18,11,33.05,10.1,29.17a27.45,27.45,0,0,1-1-3.88C9,25,10,24.18,10.62,24.86A98,98,0,0,0,19,37.37Z" transform="translate(-1.27 -1.27)" /><path class="cls-7" d="M36,47.95V37s.58,0,4.59-.3c7-.54,9.67-9.6,11.72-12.92.37-.61,1.6-.11,1.64.15.2,1.17.44,2.37.59,3.06.42,1.91.42,2.54,4.94,2.6,0,0-5.32,6.85-8.09,10.88S44.94,47.95,36,47.95" transform="translate(-1.27 -1.27)" /><path class="cls-8" d="M53,37.37c-4,4.84-6.33,6.3-17,6.3v8.19c14.52,0,15.51-3.82,19.17-8.9,4.16-5.78,5.81-9.91,6.74-13.79a27.45,27.45,0,0,0,1-3.88c.05-.26-.92-1.11-1.56-.43A98,98,0,0,1,53,37.37Z" transform="translate(-1.27 -1.27)" /><path class="cls-5" d="M36,49.2V47.4H31v1.76L34.2,53.5H36Z" transform="translate(-1.27 -1.27)" /><path class="cls-9" d="M36,49.2V47.4h5v1.76L37.8,53.5H36Z" transform="translate(-1.27 -1.27)" /><path class="cls-5" d="M36,49.2V47.4H31v1.76L34.2,53.5H36Z" transform="translate(-1.27 -1.27)" /><polygon class="cls-10" points="39.69 46.14 39.69 47.9 36.53 52.23 36.53 50.24 39.69 46.14" /><polygon class="cls-11" points="29.76 46.14 29.76 47.9 32.92 52.23 32.92 50.24 29.76 46.14" /><path class="cls-12" d="M62.93,25.24c-.05-.3-.95-1-1.55-.37A98,98,0,0,1,53,37.37c-4,4.84-6.33,6.3-17,6.3s-13-1.46-17-6.3a98,98,0,0,1-8.35-12.5c-.6-.65-1.5.07-1.55.37a76,76,0,0,0,10.83,15c2,2.13,2.75,4.26,16.11,4.26s14.07-2.13,16.11-4.26A75.92,75.92,0,0,0,62.93,25.24Z" transform="translate(-1.27 -1.27)" /><path class="cls-12" d="M52.31,23.83c-2,3.33-4.67,12.39-11.72,12.92-4,.31-4.59.3-4.59.3s-.58,0-4.59-.3c-7-.54-9.67-9.6-11.72-12.92-.35-.58-1.45-.16-1.61.1a79.18,79.18,0,0,0,5.65,9.62c2.84,4.05,5,4.31,12.27,4.31s9.92-1,12.27-4.31a78.59,78.59,0,0,0,5.65-9.62C53.77,23.67,52.66,23.25,52.31,23.83Z" transform="translate(-1.27 -1.27)" /></g></g></svg>