<svg id="D9975_-_external_bleaching_for_home" data-name="D9975 -= external bleaching for home" xmlns="http://www.w3.org/2000/svg" xmlns:xlink="http://www.w3.org/1999/xlink" viewBox="0 0 69.46 69.46"><defs><style>.cls-1,.cls-14,.cls-5,.cls-9{fill:none;}.cls-2{stroke:#dcddde;stroke-width:1.06px;fill:url(#New_Gradient_Swatch_2);}.cls-14,.cls-2,.cls-5,.cls-9{stroke-miterlimit:10;}.cls-3{fill:url(#New_Gradient_Swatch_2-2);}.cls-4{fill:#592d8e;}.cls-5{stroke:#9883bd;stroke-width:1.4px;}.cls-6{fill:#e0dfc0;}.cls-7{fill:#f4efcb;}.cls-8{fill:#d1d2b6;}.cls-9{stroke:#acb59e;}.cls-14,.cls-9{stroke-width:1.3px;}.cls-10{clip-path:url(#clip-path);}.cls-11{fill:#eff2f3;}.cls-12,.cls-15,.cls-16{fill:#fff;}.cls-13{fill:#d8dee0;}.cls-14{stroke:#b1bfc4;}.cls-15{stroke:#fff;stroke-width:1.7px;}.cls-15,.cls-16{stroke-linecap:round;stroke-linejoin:round;}.cls-16{stroke:#acdcf6;stroke-width:0.74px;}</style><linearGradient id="New_Gradient_Swatch_2" x1="34.73" y1="45.42" x2="34.73" y2="62.25" gradientUnits="userSpaceOnUse"><stop offset="0" stop-color="#fff" /><stop offset="1" stop-color="#f2f2f2" /></linearGradient><linearGradient id="New_Gradient_Swatch_2-2" x1="36" y1="24.22" x2="36" y2="7.14" xlink:href="#New_Gradient_Swatch_2" /><clipPath id="clip-path" transform="translate(-1.27 -1.27)"><path class="cls-1" d="M34.54,24.75c-1.85.22-7.68,1-5.14,6.11.71,1.41,3.37,1.76,5.14,3.83s1.31,4.54,1.61,5.95c1,4.76,6.51,6.4,11.6.49S51.89,26.81,49,25.26,34.54,24.75,34.54,24.75Z" /></clipPath></defs><title>D9975_external_bleaching_for_home</title><polygon class="cls-4" points="60.86 33.76 34.73 10 22.88 20.77 22.88 11.53 15.46 11.53 15.46 27.52 8.6 33.76 14.01 33.76 14.01 59.95 55.45 59.95 55.45 33.76 60.86 33.76" /><polygon class="cls-5" points="60.86 33.76 34.73 10 22.88 20.77 22.88 11.53 15.46 11.53 15.46 27.52 8.6 33.76 14.01 33.76 14.01 59.95 55.45 59.95 55.45 33.76 60.86 33.76" /><path class="cls-6" d="M41.22,50.68c.12,4-1.59,6.27-.89,6.66,1.07.6,4.77-1.43,6-5,1.86-5.59-.36-8.58-.36-11.44,0-1.47,1.07-1.55,1.07-4.05V29.47a3.24,3.24,0,0,0-3.35-3.22H38.52c-1.19,0-1.67,1-2.36,1s-1.17-1-2.36-1H28.67a3.24,3.24,0,0,0-3.35,3.22v7.39c0,2.5,1.07,2.58,1.07,4.05,0,2.86-2.22,5.85-.36,11.44,1.19,3.57,4.89,5.6,6,5,.7-.39-1-2.62-.89-6.66.1-3.51,2.46-5.71,5.06-5.71S41.12,47.18,41.22,50.68Z" transform="translate(-1.27 -1.27)" /><path class="cls-7" d="M37.07,45.07v-.44s-5.41-1-7.33,3.53c-1.6,3.81.6,7.69,2.12,9.22l.12,0c.7-.39-1-2.62-.89-6.66.1-3.51,2.46-5.71,5.06-5.71A4.57,4.57,0,0,1,37.07,45.07Z" transform="translate(-1.27 -1.27)" /><path class="cls-8" d="M27.63,53.86a12.63,12.63,0,0,1-1.34-6.45c0-1.95,1.09-4.5,1.22-6.33s-1.22-2.37-1.22-4.32V29.65a7.34,7.34,0,0,1,.69-3,3.12,3.12,0,0,0-1.66,2.79v7.39c0,2.5,1.07,2.58,1.07,4.05,0,2.86-2.22,5.85-.36,11.44a8.08,8.08,0,0,0,4.89,5A8.34,8.34,0,0,1,27.63,53.86Z" transform="translate(-1.27 -1.27)" /><path class="cls-7" d="M46.28,52.34c1.86-5.59-.36-8.58-.36-11.44,0-1.47,1.07-1.55,1.07-4.05V29.47a3.24,3.24,0,0,0-3.35-3.22H38.52c-1.19,0-1.67,1-2.36,1s-1.17-1-2.36-1H28.67a3.25,3.25,0,0,0-3.34,2.95,3,3,0,0,1,1.7-.46h7c.86,0,1,.49,2.15.49s1.14-.49,2.32-.49h2.76c2.47,0,2.94,1,2.94,3v4.7c0,3.05-1.06,2.76-1.06,4.34s.7,1.76,1.17,6.28c.31,3-1.41,7.63-3.87,9.51l-.24.2c0,.28,0,.47.15.56C41.4,57.94,45.09,55.92,46.28,52.34Z" transform="translate(-1.27 -1.27)" /><path class="cls-8" d="M40.37,56.74a20.79,20.79,0,0,0,1.33-3.08,8.41,8.41,0,0,0-.41-6.36,5.21,5.21,0,0,0-4.47-2.67l.06.41c2.29.37,4.24,2.47,4.33,5.65a17.46,17.46,0,0,1-1,5.77Z" transform="translate(-1.27 -1.27)" /><path class="cls-9" d="M41.22,50.68c.12,4-1.59,6.27-.89,6.66,1.07.6,4.77-1.43,6-5,1.86-5.59-.36-8.58-.36-11.44,0-1.47,1.07-1.55,1.07-4.05V29.47a3.24,3.24,0,0,0-3.35-3.22H38.52c-1.19,0-1.67,1-2.36,1s-1.17-1-2.36-1H28.67a3.24,3.24,0,0,0-3.35,3.22v7.39c0,2.5,1.07,2.58,1.07,4.05,0,2.86-2.22,5.85-.36,11.44,1.19,3.57,4.89,5.6,6,5,.7-.39-1-2.62-.89-6.66.1-3.51,2.46-5.71,5.06-5.71S41.12,47.18,41.22,50.68Z" transform="translate(-1.27 -1.27)" /><g class="cls-10"><path class="cls-11" d="M41.22,50.68c.12,4-1.59,6.27-.89,6.66,1.07.6,4.77-1.43,6-5,1.86-5.59-.36-8.58-.36-11.44,0-1.47,1.07-1.55,1.07-4.05V29.47a3.24,3.24,0,0,0-3.35-3.22H38.52c-1.19,0-1.67,1-2.36,1s-1.17-1-2.36-1H28.67a3.24,3.24,0,0,0-3.35,3.22v7.39c0,2.5,1.07,2.58,1.07,4.05,0,2.86-2.22,5.85-.36,11.44,1.19,3.57,4.89,5.6,6,5,.7-.39-1-2.62-.89-6.66.1-3.51,2.46-5.71,5.06-5.71S41.12,47.18,41.22,50.68Z" transform="translate(-1.27 -1.27)" /><path class="cls-12" d="M37.07,45.07v-.44s-5.41-1-7.33,3.53c-1.6,3.81.6,7.69,2.12,9.22l.12,0c.7-.39-1-2.62-.89-6.66.1-3.51,2.46-5.71,5.06-5.71A4.57,4.57,0,0,1,37.07,45.07Z" transform="translate(-1.27 -1.27)" /><path class="cls-13" d="M27.63,53.86a12.63,12.63,0,0,1-1.34-6.45c0-1.95,1.09-4.5,1.22-6.33s-1.22-2.37-1.22-4.32V29.65a7.34,7.34,0,0,1,.69-3,3.12,3.12,0,0,0-1.66,2.79v7.39c0,2.5,1.07,2.58,1.07,4.05,0,2.86-2.22,5.85-.36,11.44a8.08,8.08,0,0,0,4.89,5A8.34,8.34,0,0,1,27.63,53.86Z" transform="translate(-1.27 -1.27)" /><path class="cls-12" d="M46.28,52.34c1.86-5.59-.36-8.58-.36-11.44,0-1.47,1.07-1.55,1.07-4.05V29.47a3.24,3.24,0,0,0-3.35-3.22H38.52c-1.19,0-1.67,1-2.36,1s-1.17-1-2.36-1H28.67a3.25,3.25,0,0,0-3.34,2.95,3,3,0,0,1,1.7-.46h7c.86,0,1,.49,2.15.49s1.14-.49,2.32-.49h2.76c2.47,0,2.94,1,2.94,3v4.7c0,3.05-1.06,2.76-1.06,4.34s.7,1.76,1.17,6.28c.31,3-1.41,7.63-3.87,9.51l-.24.2c0,.28,0,.47.15.56C41.4,57.94,45.09,55.92,46.28,52.34Z" transform="translate(-1.27 -1.27)" /><path class="cls-13" d="M40.37,56.74a20.79,20.79,0,0,0,1.33-3.08,8.41,8.41,0,0,0-.41-6.36,5.21,5.21,0,0,0-4.47-2.67l.06.41c2.29.37,4.24,2.47,4.33,5.65a17.46,17.46,0,0,1-1,5.77Z" transform="translate(-1.27 -1.27)" /><path class="cls-14" d="M41.22,50.68c.12,4-1.59,6.27-.89,6.66,1.07.6,4.77-1.43,6-5,1.86-5.59-.36-8.58-.36-11.44,0-1.47,1.07-1.55,1.07-4.05V29.47a3.24,3.24,0,0,0-3.35-3.22H38.52c-1.19,0-1.67,1-2.36,1s-1.17-1-2.36-1H28.67a3.24,3.24,0,0,0-3.35,3.22v7.39c0,2.5,1.07,2.58,1.07,4.05,0,2.86-2.22,5.85-.36,11.44,1.19,3.57,4.89,5.6,6,5,.7-.39-1-2.62-.89-6.66.1-3.51,2.46-5.71,5.06-5.71S41.12,47.18,41.22,50.68Z" transform="translate(-1.27 -1.27)" /></g><path class="cls-15" d="M39.9,36.47a1.37,1.37,0,0,0,1.16-1.16l.41-2.9.41,2.9A1.37,1.37,0,0,0,43,36.47l2.9.41-2.9.41a1.37,1.37,0,0,0-1.16,1.16l-.41,2.9-.41-2.9a1.37,1.37,0,0,0-1.16-1.16L37,36.87Z" transform="translate(-1.27 -1.27)" /><path class="cls-16" d="M39.77,36.3a1.37,1.37,0,0,0,1.16-1.16l.41-2.9.41,2.9a1.37,1.37,0,0,0,1.16,1.16l2.9.41-2.9.41a1.37,1.37,0,0,0-1.16,1.16l-.41,2.9-.41-2.9a1.37,1.37,0,0,0-1.16-1.16l-2.9-.41Z" transform="translate(-1.27 -1.27)" /><path class="cls-15" d="M35.44,31a.89.89,0,0,0,.76-.76l.27-1.88.27,1.88a.89.89,0,0,0,.76.76l1.88.27-1.88.27a.89.89,0,0,0-.76.76l-.27,1.88-.27-1.88a.89.89,0,0,0-.76-.76l-1.88-.27Z" transform="translate(-1.27 -1.27)" /><path class="cls-16" d="M35.35,30.86a.89.89,0,0,0,.76-.76l.27-1.88.27,1.88a.89.89,0,0,0,.76.76l1.88.27-1.88.27a.89.89,0,0,0-.76.76L36.38,34l-.27-1.88a.89.89,0,0,0-.76-.76l-1.88-.27Z" transform="translate(-1.27 -1.27)" /></svg>