<svg id="D9972_-_external_bleaching_in_office" data-name="D9972 - external bleaching in office" xmlns="http://www.w3.org/2000/svg" xmlns:xlink="http://www.w3.org/1999/xlink" viewBox="0 0 69.46 69.46"><defs><style>.cls-1,.cls-12,.cls-7{fill:none;}.cls-2{stroke:#dcddde;stroke-width:1.06px;fill:url(#New_Gradient_Swatch_2);}.cls-12,.cls-2,.cls-7{stroke-miterlimit:10;}.cls-3{fill:url(#New_Gradient_Swatch_2-2);}.cls-4{fill:#e0dfc0;}.cls-5{fill:#f4efcb;}.cls-6{fill:#d1d2b6;}.cls-7{stroke:#acb59e;}.cls-12,.cls-7{stroke-width:1.3px;}.cls-8{clip-path:url(#clip-path);}.cls-9{fill:#eff2f3;}.cls-10,.cls-13,.cls-14{fill:#fff;}.cls-11{fill:#d8dee0;}.cls-12{stroke:#b1bfc4;}.cls-13{stroke:#fff;stroke-width:1.7px;}.cls-13,.cls-14{stroke-linecap:round;stroke-linejoin:round;}.cls-14{stroke:#acdcf6;stroke-width:0.74px;}</style><linearGradient id="New_Gradient_Swatch_2" x1="34.73" y1="45.42" x2="34.73" y2="62.25" gradientUnits="userSpaceOnUse"><stop offset="0" stop-color="#fff" /><stop offset="1" stop-color="#f2f2f2" /></linearGradient><linearGradient id="New_Gradient_Swatch_2-2" x1="36" y1="24.22" x2="36" y2="7.14" xlink:href="#New_Gradient_Swatch_2" /><clipPath id="clip-path" transform="translate(-1.27 -1.27)"><path class="cls-1" d="M33.2,10.66c-2.84.34-11.83,1.6-7.92,9.42,1.09,2.17,5.19,2.72,7.92,5.9s2,7,2.49,9.17c1.57,7.34,10,9.85,17.87.76s6.37-22.06,1.93-24.45S33.2,10.66,33.2,10.66Z" /></clipPath></defs><title>D9972_external_bleaching_in_office</title><path class="cls-4" d="M43.48,50.62c.18,6.22-2.45,9.67-1.37,10.26,1.65.92,7.34-2.2,9.18-7.71,2.87-8.62-.55-13.22-.55-17.62,0-2.27,1.65-2.39,1.65-6.24V17.93a5,5,0,0,0-5.16-5h-7.9c-1.84,0-2.57,1.52-3.64,1.52S33.88,13,32,13h-7.9a5,5,0,0,0-5.16,5V29.31c0,3.85,1.65,4,1.65,6.24,0,4.41-3.42,9-.55,17.62,1.84,5.51,7.53,8.63,9.18,7.71,1.08-.6-1.55-4-1.37-10.26.15-5.4,3.8-8.8,7.8-8.8S43.32,45.22,43.48,50.62Z" transform="translate(-1.27 -1.27)" /><path class="cls-5" d="M37.09,42V41.3s-8.33-1.61-11.29,5.44c-2.46,5.87.93,11.85,3.27,14.21a1.19,1.19,0,0,0,.18-.06c1.08-.6-1.55-4-1.37-10.26.15-5.4,3.8-8.8,7.8-8.8A7,7,0,0,1,37.09,42Z" transform="translate(-1.27 -1.27)" /><path class="cls-6" d="M22.55,55.51a19.46,19.46,0,0,1-2.06-9.93c0-3,1.69-6.94,1.87-9.75s-1.87-3.66-1.87-6.65v-11a11.3,11.3,0,0,1,1.06-4.58A4.81,4.81,0,0,0,19,17.93V29.31c0,3.85,1.65,4,1.65,6.24,0,4.41-3.42,9-.55,17.62,1.42,4.27,5.16,7.1,7.54,7.73A12.85,12.85,0,0,1,22.55,55.51Z" transform="translate(-1.27 -1.27)" /><path class="cls-5" d="M51.29,53.18c2.87-8.62-.55-13.22-.55-17.62,0-2.27,1.65-2.39,1.65-6.24V17.93a5,5,0,0,0-5.16-5h-7.9c-1.84,0-2.57,1.52-3.64,1.52S33.88,13,32,13h-7.9A5,5,0,0,0,19,17.52a4.58,4.58,0,0,1,2.61-.71H32.38c1.33,0,1.59.76,3.31.76s1.76-.76,3.57-.76h4.25c3.8,0,4.52,1.57,4.52,4.65V28.7c0,4.7-1.63,4.25-1.63,6.69s1.09,2.71,1.81,9.68c.48,4.62-2.17,11.76-6,14.65a4.71,4.71,0,0,0-.36.31c-.06.43,0,.72.23.86C43.76,61.8,49.45,58.68,51.29,53.18Z" transform="translate(-1.27 -1.27)" /><path class="cls-6" d="M42.17,60a32,32,0,0,0,2.06-4.74,13,13,0,0,0-.63-9.81,8,8,0,0,0-6.88-4.11l.09.63c3.54.57,6.53,3.81,6.67,8.7A26.91,26.91,0,0,1,42,59.51Z" transform="translate(-1.27 -1.27)" /><path class="cls-7" d="M43.48,50.62c.18,6.22-2.45,9.67-1.37,10.26,1.65.92,7.34-2.2,9.18-7.71,2.87-8.62-.55-13.22-.55-17.62,0-2.27,1.65-2.39,1.65-6.24V17.93a5,5,0,0,0-5.16-5h-7.9c-1.84,0-2.57,1.52-3.64,1.52S33.88,13,32,13h-7.9a5,5,0,0,0-5.16,5V29.31c0,3.85,1.65,4,1.65,6.24,0,4.41-3.42,9-.55,17.62,1.84,5.51,7.53,8.63,9.18,7.71,1.08-.6-1.55-4-1.37-10.26.15-5.4,3.8-8.8,7.8-8.8S43.32,45.22,43.48,50.62Z" transform="translate(-1.27 -1.27)" /><g class="cls-8"><path class="cls-9" d="M43.48,50.62c.18,6.22-2.45,9.67-1.37,10.26,1.65.92,7.34-2.2,9.18-7.71,2.87-8.62-.55-13.22-.55-17.62,0-2.27,1.65-2.39,1.65-6.24V17.93a5,5,0,0,0-5.16-5h-7.9c-1.84,0-2.57,1.52-3.64,1.52S33.88,13,32,13h-7.9a5,5,0,0,0-5.16,5V29.31c0,3.85,1.65,4,1.65,6.24,0,4.41-3.42,9-.55,17.62,1.84,5.51,7.53,8.63,9.18,7.71,1.08-.6-1.55-4-1.37-10.26.15-5.4,3.8-8.8,7.8-8.8S43.32,45.22,43.48,50.62Z" transform="translate(-1.27 -1.27)" /><path class="cls-10" d="M37.09,42V41.3s-8.33-1.61-11.29,5.44c-2.46,5.87.93,11.85,3.27,14.21a1.19,1.19,0,0,0,.18-.06c1.08-.6-1.55-4-1.37-10.26.15-5.4,3.8-8.8,7.8-8.8A7,7,0,0,1,37.09,42Z" transform="translate(-1.27 -1.27)" /><path class="cls-11" d="M22.55,55.51a19.46,19.46,0,0,1-2.06-9.93c0-3,1.69-6.94,1.87-9.75s-1.87-3.66-1.87-6.65v-11a11.3,11.3,0,0,1,1.06-4.58A4.81,4.81,0,0,0,19,17.93V29.31c0,3.85,1.65,4,1.65,6.24,0,4.41-3.42,9-.55,17.62,1.42,4.27,5.16,7.1,7.54,7.73A12.85,12.85,0,0,1,22.55,55.51Z" transform="translate(-1.27 -1.27)" /><path class="cls-10" d="M51.29,53.18c2.87-8.62-.55-13.22-.55-17.62,0-2.27,1.65-2.39,1.65-6.24V17.93a5,5,0,0,0-5.16-5h-7.9c-1.84,0-2.57,1.52-3.64,1.52S33.88,13,32,13h-7.9A5,5,0,0,0,19,17.52a4.58,4.58,0,0,1,2.61-.71H32.38c1.33,0,1.59.76,3.31.76s1.76-.76,3.57-.76h4.25c3.8,0,4.52,1.57,4.52,4.65V28.7c0,4.7-1.63,4.25-1.63,6.69s1.09,2.71,1.81,9.68c.48,4.62-2.17,11.76-6,14.65a4.71,4.71,0,0,0-.36.31c-.06.43,0,.72.23.86C43.76,61.8,49.45,58.68,51.29,53.18Z" transform="translate(-1.27 -1.27)" /><path class="cls-11" d="M42.17,60a32,32,0,0,0,2.06-4.74,13,13,0,0,0-.63-9.81,8,8,0,0,0-6.88-4.11l.09.63c3.54.57,6.53,3.81,6.67,8.7A26.91,26.91,0,0,1,42,59.51Z" transform="translate(-1.27 -1.27)" /><path class="cls-12" d="M43.48,50.62c.18,6.22-2.45,9.67-1.37,10.26,1.65.92,7.34-2.2,9.18-7.71,2.87-8.62-.55-13.22-.55-17.62,0-2.27,1.65-2.39,1.65-6.24V17.93a5,5,0,0,0-5.16-5h-7.9c-1.84,0-2.57,1.52-3.64,1.52S33.88,13,32,13h-7.9a5,5,0,0,0-5.16,5V29.31c0,3.85,1.65,4,1.65,6.24,0,4.41-3.42,9-.55,17.62,1.84,5.51,7.53,8.63,9.18,7.71,1.08-.6-1.55-4-1.37-10.26.15-5.4,3.8-8.8,7.8-8.8S43.32,45.22,43.48,50.62Z" transform="translate(-1.27 -1.27)" /></g><path class="cls-13" d="M41.46,28.72a2.11,2.11,0,0,0,1.79-1.79l.63-4.46.63,4.46a2.11,2.11,0,0,0,1.79,1.79l4.46.63L46.3,30a2.11,2.11,0,0,0-1.79,1.79l-.63,4.46-.63-4.46A2.11,2.11,0,0,0,41.46,30L37,29.35Z" transform="translate(-1.27 -1.27)" /><path class="cls-14" d="M41.25,28.47A2.11,2.11,0,0,0,43,26.67l.63-4.46.63,4.46a2.11,2.11,0,0,0,1.79,1.79l4.46.63-4.46.63a2.11,2.11,0,0,0-1.79,1.79L43.67,36,43,31.52a2.11,2.11,0,0,0-1.79-1.79l-4.46-.63Z" transform="translate(-1.27 -1.27)" /><path class="cls-13" d="M34.58,20.24a1.37,1.37,0,0,0,1.17-1.17l.41-2.9.41,2.9a1.37,1.37,0,0,0,1.17,1.17l2.9.41-2.9.41a1.37,1.37,0,0,0-1.17,1.17l-.41,2.9-.41-2.9a1.37,1.37,0,0,0-1.17-1.17l-2.9-.41Z" transform="translate(-1.27 -1.27)" /><path class="cls-14" d="M34.44,20.08a1.37,1.37,0,0,0,1.17-1.17L36,16l.41,2.9a1.37,1.37,0,0,0,1.17,1.17l2.9.41-2.9.41a1.37,1.37,0,0,0-1.17,1.17L36,25l-.41-2.9a1.37,1.37,0,0,0-1.17-1.17l-2.9-.41Z" transform="translate(-1.27 -1.27)" /></svg>