<svg id="D9986_-_missed_appointment" data-name="D9986 - missed appointment" xmlns="http://www.w3.org/2000/svg" xmlns:xlink="http://www.w3.org/1999/xlink" viewBox="0 0 69.46 69.46"><defs><style>.cls-1{stroke:#dcddde;stroke-width:1.06px;fill:url(#New_Gradient_Swatch_2);}.cls-1,.cls-10,.cls-11,.cls-12,.cls-13,.cls-14,.cls-15,.cls-16,.cls-4,.cls-5,.cls-6,.cls-7,.cls-8,.cls-9{stroke-miterlimit:10;}.cls-2{fill:url(#New_Gradient_Swatch_2-2);}.cls-3{fill:#7c60aa;}.cls-10,.cls-11,.cls-12,.cls-13,.cls-4,.cls-5,.cls-6,.cls-7,.cls-8,.cls-9{stroke:#d8dee0;}.cls-10,.cls-11,.cls-12,.cls-13,.cls-14,.cls-15,.cls-16,.cls-4,.cls-5,.cls-6,.cls-7,.cls-8,.cls-9{stroke-width:1.4px;}.cls-4{fill:url(#New_Gradient_Swatch_2-3);}.cls-5{fill:url(#New_Gradient_Swatch_2-4);}.cls-6{fill:url(#New_Gradient_Swatch_2-5);}.cls-7{fill:url(#New_Gradient_Swatch_2-6);}.cls-8{fill:url(#New_Gradient_Swatch_2-7);}.cls-9{fill:url(#New_Gradient_Swatch_2-8);}.cls-10{fill:url(#New_Gradient_Swatch_2-9);}.cls-11{fill:url(#New_Gradient_Swatch_2-10);}.cls-12{fill:url(#New_Gradient_Swatch_2-11);}.cls-13{fill:url(#New_Gradient_Swatch_2-12);}.cls-14{stroke:#808285;fill:url(#New_Gradient_Swatch_2-13);}.cls-15{fill:none;stroke:#5c2d84;}.cls-16{fill:#ee2f24;stroke:#3c3d3d;}</style><linearGradient id="New_Gradient_Swatch_2" x1="34.73" y1="45.42" x2="34.73" y2="62.25" gradientUnits="userSpaceOnUse"><stop offset="0" stop-color="#fff" /><stop offset="1" stop-color="#f2f2f2" /></linearGradient><linearGradient id="New_Gradient_Swatch_2-2" x1="36" y1="24.22" x2="36" y2="7.14" xlink:href="#New_Gradient_Swatch_2" /><linearGradient id="New_Gradient_Swatch_2-3" x1="34.83" y1="28.49" x2="34.83" y2="28.49" xlink:href="#New_Gradient_Swatch_2" /><linearGradient id="New_Gradient_Swatch_2-4" x1="34.83" y1="35.27" x2="34.83" y2="35.27" xlink:href="#New_Gradient_Swatch_2" /><linearGradient id="New_Gradient_Swatch_2-5" x1="34.83" y1="42.05" x2="34.83" y2="42.05" xlink:href="#New_Gradient_Swatch_2" /><linearGradient id="New_Gradient_Swatch_2-6" x1="34.83" y1="48.82" x2="34.83" y2="48.82" xlink:href="#New_Gradient_Swatch_2" /><linearGradient id="New_Gradient_Swatch_2-7" x1="16.76" y1="32.17" x2="16.76" y2="22.77" xlink:href="#New_Gradient_Swatch_2" /><linearGradient id="New_Gradient_Swatch_2-8" x1="23.99" y1="32.17" x2="23.99" y2="22.77" xlink:href="#New_Gradient_Swatch_2" /><linearGradient id="New_Gradient_Swatch_2-9" x1="31.22" y1="32.17" x2="31.22" y2="22.77" xlink:href="#New_Gradient_Swatch_2" /><linearGradient id="New_Gradient_Swatch_2-10" x1="38.44" y1="32.17" x2="38.44" y2="22.77" xlink:href="#New_Gradient_Swatch_2" /><linearGradient id="New_Gradient_Swatch_2-11" x1="45.67" y1="32.17" x2="45.67" y2="22.77" xlink:href="#New_Gradient_Swatch_2" /><linearGradient id="New_Gradient_Swatch_2-12" x1="52.9" y1="32.17" x2="52.9" y2="22.77" xlink:href="#New_Gradient_Swatch_2" /><linearGradient id="New_Gradient_Swatch_2-13" x1="60.13" y1="27.97" x2="60.13" y2="18.89" xlink:href="#New_Gradient_Swatch_2" /></defs><title>D9986_missed_appointment</title><rect class="cls-3" x="9.32" y="14.03" width="50.38" height="7.5" /><line class="cls-4" x1="9.53" y1="28.49" x2="60.13" y2="28.49" /><line class="cls-5" x1="9.53" y1="35.27" x2="60.13" y2="35.27" /><line class="cls-6" x1="9.53" y1="42.05" x2="60.13" y2="42.05" /><line class="cls-7" x1="9.53" y1="48.82" x2="60.13" y2="48.82" /><line class="cls-8" x1="16.76" y1="55.6" x2="16.76" y2="21.7" /><line class="cls-9" x1="23.99" y1="55.6" x2="23.99" y2="21.7" /><line class="cls-10" x1="31.22" y1="55.6" x2="31.22" y2="21.7" /><line class="cls-11" x1="38.44" y1="55.6" x2="38.44" y2="21.7" /><line class="cls-12" x1="45.67" y1="55.6" x2="45.67" y2="21.7" /><line class="cls-13" x1="52.9" y1="55.6" x2="52.9" y2="21.7" /><line class="cls-14" x1="60.13" y1="50.6" x2="60.13" y2="17.86" /><rect class="cls-15" x="9.53" y="13.85" width="50.6" height="41.75" /><line class="cls-15" x1="9.53" y1="21.71" x2="60.13" y2="21.71" /><polygon class="cls-16" points="38.08 42.21 31.63 42.21 30.6 17.18 39.11 17.18 38.08 42.21" /><circle class="cls-16" cx="34.67" cy="48.47" r="3.66" /></svg>