<?xml version="1.0" encoding="utf-8"?>
<svg viewBox="0 0 72 72" xmlns="http://www.w3.org/2000/svg">
  <defs>
    <style>.cls-1{fill:none;}.cls-2{isolation:isolate;}.cls-3{stroke:#dcddde;stroke-width:1.06px;fill:url(#New_Gradient_Swatch_2);}.cls-10,.cls-3,.cls-5{stroke-miterlimit:10;}.cls-4{fill:url(#New_Gradient_Swatch_2-2);}.cls-5{fill:#6f8f97;}.cls-10,.cls-5{stroke:#116c91;stroke-width:2.4px;}.cls-6{fill:#83d2e7;}.cls-13,.cls-7{fill:#fff;}.cls-7{opacity:0.3;}.cls-8{fill:#009cb6;}.cls-9{fill:#181a1d;opacity:0.07;mix-blend-mode:multiply;}.cls-10{fill:#116c91;}.cls-11{fill:#dcddde;}.cls-12{clip-path:url(#clip-path);}</style>
  </defs>
  <title>NewButtonIcons_FINAL</title>
  <g class="cls-2">
    <g id="D0120_-_periodic_oral_eval" data-name="D0120 - periodic oral eval">
      <path class="cls-5" d="M43.62,34.38a.74.74,0,0,0-1,0L40.89,36C28,48.9,17.53,59.25,19.17,60.88S31.15,52,44,39.16l1.67-1.68a.74.74,0,0,0,0-1Z"/>
      <path class="cls-5" d="M61.17,22.22V24c0,.45-.22.81-1,1.62s-1.93,1.66-2.34,2.07-.9.4-1.66.4-2.65-.23-3.73-.23-1.71.54-2.7,1.44l-5.89,5.35,1.57,1.57S50,31,50.78,30.09s1.21-1.17,1.89-1.17,3.19.14,3.82.14a2.25,2.25,0,0,0,2.07-.9c1-1,2.2-2,2.56-2.38a1.65,1.65,0,0,0,.58-1.48c0-.9-.13-1.57-.13-2S61.17,21.82,61.17,22.22Z"/>
      <path class="cls-6" d="M61.17,22.22V24c0,.45-.22.81-1,1.62s-1.93,1.66-2.34,2.07-.9.4-1.66.4-2.65-.23-3.73-.23-1.71.54-2.7,1.44l-5.89,5.35,1.57,1.57S50,31,50.78,30.09s1.21-1.17,1.89-1.17,3.19.14,3.82.14a2.25,2.25,0,0,0,2.07-.9c1-1,2.2-2,2.56-2.38a1.65,1.65,0,0,0,.58-1.48c0-.9-.13-1.57-.13-2S61.17,21.82,61.17,22.22Z"/>
      <path class="cls-7" d="M56.49,29.05c-.63,0-3.15-.14-3.82-.14s-1.08.27-1.89,1.17-5.4,6.11-5.4,6.11l-.68-.68,6-6c.59-.59.82-1,1.94-1s3.65.18,4.06.18a1.44,1.44,0,0,0,1.14-.36c.34-.34,2.94-2.62,3.21-2.89a1.53,1.53,0,0,0,.5-.91c0-.24.08-.79.11-1.16,0,.28,0,.59,0,.94a1.65,1.65,0,0,1-.58,1.48c-.36.36-1.57,1.39-2.56,2.38A2.25,2.25,0,0,1,56.49,29.05Z"/>
      <path class="cls-8" d="M43.62,34.38a.74.74,0,0,0-1,0L40.89,36C28,48.9,17.53,59.25,19.17,60.88S31.15,52,44,39.16l1.67-1.68a.74.74,0,0,0,0-1Z"/>
      <path class="cls-7" d="M44,39.16l1.67-1.68a.74.74,0,0,0,0-1L45,35.72l-8.22,8.22c-3.84,3.84-13.68,13.8-15.11,14.93A22.28,22.28,0,0,1,19,60.64a.55.55,0,0,0,.13.25C20.8,62.52,31.15,52,44,39.16Z"/>
      <path class="cls-9" d="M34.12,43.61l9.33-9.33a.73.73,0,0,0-.89.1L40.89,36C31.13,45.81,22.73,54.11,20,58.27,23.32,54.45,31.22,46.51,34.12,43.61Z"/>
      <path class="cls-10" d="M52.38,19.74a5.05,5.05,0,0,0-.26-7.13A5.05,5.05,0,0,0,45,12.35,5,5,0,0,0,44.82,19c-.25.21-8.65,8-8.65,8l1.57,1.57s7.7-8.43,8-8.7A5,5,0,0,0,52.38,19.74Z"/>
      <path class="cls-5" d="M36,26.74a.74.74,0,0,0-1,0l-1.68,1.67C20.39,41.26,9.89,51.61,11.53,53.24s12-8.86,24.84-21.72L38,29.84a.74.74,0,0,0,0-1Z"/>
      <path class="cls-6" d="M45.71,19.85l-.9-.9c-.2.17-8.65,8-8.65,8l1.57,1.57S45.57,20,45.71,19.85Z"/>
      <path class="cls-8" d="M36,26.74a.74.74,0,0,0-1,0l-1.68,1.67C20.39,41.26,9.89,51.61,11.53,53.24s12-8.86,24.84-21.72L38,29.84a.74.74,0,0,0,0-1Z"/>
      <path class="cls-7" d="M36.36,31.52,38,29.84a.74.74,0,0,0,0-1l-.72-.72L29.09,36.3C25.25,40.14,15.41,50.1,14,51.23A22.28,22.28,0,0,1,11.39,53a.55.55,0,0,0,.13.25C13.16,54.88,23.51,44.38,36.36,31.52Z"/>
      <path class="cls-9" d="M26.48,36l9.33-9.33a.73.73,0,0,0-.89.1l-1.68,1.67c-9.76,9.76-18.16,18.07-20.92,22.22C15.68,46.81,23.58,38.87,26.48,36Z"/>
      <path class="cls-7" d="M45.71,19.85l-.32-.32-8.34,8.34.68.68S45.57,20,45.71,19.85Z"/>
      <ellipse class="cls-6" cx="48.68" cy="16.05" rx="4.86" ry="5.23" transform="translate(2.91 39.12) rotate(-45)"/>
      <path class="cls-7" d="M52.12,12.61c-.06-.06-.13-.1-.19-.16a5.21,5.21,0,0,1,.2,7.21,5.12,5.12,0,0,1-4.42,1.24,4.78,4.78,0,0,0,4.67-1.16A5.05,5.05,0,0,0,52.12,12.61Z"/>
      <ellipse class="cls-11" cx="48.58" cy="16.15" rx="4.15" ry="4.47" transform="translate(2.81 39.08) rotate(-45)"/>
      <g class="cls-12">
        <polygon class="cls-13" points="57.4 18.22 56.23 17.06 43.47 18.38 44.63 19.55 57.4 18.22"/>
        <polygon class="cls-13" points="55.73 16.56 55.43 16.25 42.66 17.57 42.97 17.88 55.73 16.56"/>
      </g>
    </g>
  </g>
</svg>