<?xml version="1.0" encoding="utf-8"?>
<!-- Generator: Adobe Illustrator 19.2.1, SVG Export Plug-In . SVG Version: 6.00 Build 0)  -->
<svg version="1.1" id="Layer_1" xmlns="http://www.w3.org/2000/svg" xmlns:xlink="http://www.w3.org/1999/xlink" x="0px" y="0px"
	 viewBox="0 0 432 432" style="enable-background:new 0 0 432 432;" xml:space="preserve">
<style type="text/css">
	.st0{fill:#2DABCB;}
	.st1{fill-rule:evenodd;clip-rule:evenodd;fill:#424143;}
	.st2{fill:#FFFFFF;}
</style>
<path class="st0" d="M32.8,36v360h366.3V36H32.8z M76.1,366.1c-5.6,0-10.1-4.5-10.1-10.1c0-5.6,4.5-10.1,10.1-10.1
	c5.6,0,10.1,4.5,10.1,10.1C86.2,361.6,81.7,366.1,76.1,366.1z M76.1,316.1c-5.6,0-10.1-4.5-10.1-10.1c0-5.6,4.5-10.1,10.1-10.1
	c5.6,0,10.1,4.5,10.1,10.1C86.2,311.6,81.7,316.1,76.1,316.1z M76.1,266.1c-5.6,0-10.1-4.5-10.1-10.1c0-5.6,4.5-10.1,10.1-10.1
	c5.6,0,10.1,4.5,10.1,10.1C86.2,261.6,81.7,266.1,76.1,266.1z M353,365.9H108c-5.5,0-10-4.5-10-10s4.5-10,10-10h245
	c5.5,0,10,4.5,10,10S358.5,365.9,353,365.9z M353,315.9H108c-5.5,0-10-4.5-10-10s4.5-10,10-10h245c5.5,0,10,4.5,10,10
	S358.5,315.9,353,315.9z M353,265.9H108c-5.5,0-10-4.5-10-10s4.5-10,10-10h245c5.5,0,10,4.5,10,10S358.5,265.9,353,265.9z"/>
<g>
	<path class="st2" d="M216,89.8c-16.2,0-29.3,13.1-29.3,29.3c0,4.2,0.9,8.1,2.5,11.7C193,142.5,204,151,216.9,151
		c16.2,0,29.3-13.1,29.3-29.3c0-4.2-0.9-8.1-2.5-11.7C240,98.2,229,89.8,216,89.8z"/>
	<path class="st2" d="M216,60.2c-44.5,0-80.8,36.2-80.8,80.7c0,44.5,36.2,80.7,80.8,80.7c44.5,0,80.7-36.2,80.7-80.7
		C296.7,96.5,260.5,60.2,216,60.2z M264.9,192.1c-6.8-14.5-18.1-25.6-31.7-30.7l-16.6,19.4l-16.1-19.4
		c-13.9,5.2-25.4,16.8-32.1,31.9c-14.2-13-23.2-31.6-23.2-52.3c0-39,31.7-70.8,70.8-70.8c39,0,70.8,31.7,70.8,70.8
		C286.8,161.1,278.4,179.2,264.9,192.1z"/>
</g>
</svg>
