<?xml version="1.0" encoding="utf-8"?>
<!-- Generator: Adobe Illustrator 19.2.1, SVG Export Plug-In . SVG Version: 6.00 Build 0)  -->
<svg version="1.1" id="Layer_1" xmlns="http://www.w3.org/2000/svg" xmlns:xlink="http://www.w3.org/1999/xlink" x="0px" y="0px"
	 viewBox="0 0 432 432" style="enable-background:new 0 0 432 432;" xml:space="preserve">
<style type="text/css">
	.st0{fill:#2DABCB;}
	.st1{fill-rule:evenodd;clip-rule:evenodd;fill:#424143;}
	.st2{fill:#FFFFFF;}
</style>
<g>
	<g>
		<g>
			<path class="st0" d="M112.4,68.2c0-6.4,5.2-11.5,11.5-11.5H139c6.4,0,11.5,5.2,11.5,11.5v41.7c0,6.4-5.1,11.5-11.5,11.5h-15.1
				c-6.3,0-11.5-5.2-11.5-11.5V68.2z"/>
		</g>
		<g>
			<path class="st0" d="M281.4,68.2c0-6.4,5.2-11.5,11.5-11.5H308c6.4,0,11.5,5.2,11.5,11.5v41.7c0,6.4-5.1,11.5-11.5,11.5h-15.1
				c-6.3,0-11.5-5.2-11.5-11.5V68.2z"/>
		</g>
	</g>
	<g>
		<path class="st0" d="M374.7,90.5h-40v33.8c0,6.4-5.2,11.5-11.5,11.5h-46c-6.4,0-11.5-5.2-11.5-11.5V90.5h-99.2v33.8
			c0,6.4-5.2,11.5-11.5,11.5h-46c-6.4,0-11.5-5.2-11.5-11.5V90.5h-40c-15.9,0-28.8,12.9-28.8,28.8v227.2c0,15.9,12.9,28.8,28.8,28.8
			h317.4c15.9,0,28.8-12.9,28.8-28.8V119.3C403.5,103.4,390.6,90.5,374.7,90.5z M128.1,319.6H92.8v-35.2h35.2V319.6z M128.1,267.4
			H92.8v-35.2h35.2V267.4z M128.1,215.3H92.8v-35.2h35.2V215.3z M198.4,319.6h-35.2v-35.2h35.2V319.6z M198.4,267.4h-35.2v-35.2
			h35.2V267.4z M198.4,215.3h-35.2v-35.2h35.2V215.3z M268.8,319.6h-35.2v-35.2h35.2V319.6z M268.8,267.4h-35.2v-35.2h35.2V267.4z
			 M268.8,215.3h-35.2v-35.2h35.2V215.3z M339.1,319.6h-35.2v-35.2h35.2V319.6z M339.1,267.4h-35.2v-35.2h35.2V267.4z M339.1,215.3
			h-35.2v-35.2h35.2V215.3z"/>
	</g>
</g>
</svg>
