<?xml version="1.0" encoding="utf-8"?>
<!-- Generator: Adobe Illustrator 19.2.1, SVG Export Plug-In . SVG Version: 6.00 Build 0)  -->
<svg version="1.1" id="Layer_1" xmlns="http://www.w3.org/2000/svg" xmlns:xlink="http://www.w3.org/1999/xlink" x="0px" y="0px"
	 viewBox="0 0 432 432" style="enable-background:new 0 0 432 432;" xml:space="preserve">
<style type="text/css">
	.st0{fill:#2DABCB;}
	.st1{fill-rule:evenodd;clip-rule:evenodd;fill:#2DABCB;}
	.st2{fill:#FFFFFF;}
</style>
<path class="st1" d="M326.8,176.9c2.4,13.3,3.6,28.7,3.6,46.4c0,71.8-19.7,135.1-49.8,172.6c-6.1-90.5-32.8-158.6-64.7-158.6
	c-31.7,0-58.3,67.2-64.6,156.8c-29.2-37.8-48.4-100.2-48.4-170.9c0-16.9,1-31.7,3-44.6C78.4,123.6,83.7,61.5,118.5,39.2
	c11.5-7.4,40.6-0.2,73.2,2.9l37.5,26.1L199,94.7l17.9,11.7L183.4,147l47,44.5c1.3,1.3,3,1.9,4.7,1.9c1.8,0,3.6-0.7,5-2.1
	c2.6-2.8,2.5-7.1-0.3-9.7l-37.6-35.7l35.1-42.6l-15.6-10.2L251.4,67l-33.9-23.6c41.1-0.3,81.9-13.2,96-4.1
	C347.9,61.3,353.5,122.3,326.8,176.9z"/>
</svg>
