<?xml version="1.0" encoding="utf-8"?>
<!-- Generator: Adobe Illustrator 19.2.1, SVG Export Plug-In . SVG Version: 6.00 Build 0)  -->
<svg version="1.1" id="Layer_1" xmlns="http://www.w3.org/2000/svg" xmlns:xlink="http://www.w3.org/1999/xlink" x="0px" y="0px"
	 viewBox="0 0 432 432" style="enable-background:new 0 0 432 432;" xml:space="preserve">
<style type="text/css">
	.st0{fill:#2DABCB;}
	.st1{fill-rule:evenodd;clip-rule:evenodd;fill:#424143;}
	.st2{fill:#FFFFFF;}
</style>
<path class="st0" d="M32.8,36v360h366.3V36H32.8z M76.1,366.1c-5.6,0-10.1-4.5-10.1-10.1c0-5.6,4.5-10.1,10.1-10.1
	c5.6,0,10.1,4.5,10.1,10.1C86.2,361.6,81.7,366.1,76.1,366.1z M76.1,316.1c-5.6,0-10.1-4.5-10.1-10.1c0-5.6,4.5-10.1,10.1-10.1
	c5.6,0,10.1,4.5,10.1,10.1C86.2,311.6,81.7,316.1,76.1,316.1z M76.1,266.1c-5.6,0-10.1-4.5-10.1-10.1c0-5.6,4.5-10.1,10.1-10.1
	c5.6,0,10.1,4.5,10.1,10.1C86.2,261.6,81.7,266.1,76.1,266.1z M353,365.9H108c-5.5,0-10-4.5-10-10s4.5-10,10-10h245
	c5.5,0,10,4.5,10,10S358.5,365.9,353,365.9z M353,315.9H108c-5.5,0-10-4.5-10-10s4.5-10,10-10h245c5.5,0,10,4.5,10,10
	S358.5,315.9,353,315.9z M353,265.9H108c-5.5,0-10-4.5-10-10s4.5-10,10-10h245c5.5,0,10,4.5,10,10S358.5,265.9,353,265.9z"/>
<g>
	<path class="st2" d="M294.4,70.2v7.8c5.1,0.5,9.5,1.6,13.2,3.2c3.7,1.6,6.9,4,9.6,7.2c2.2,2.5,3.8,5,5,7.6c1.2,2.6,1.8,5,1.8,7.1
		c0,2.4-0.9,4.5-2.6,6.2c-1.8,1.8-3.9,2.6-6.4,2.6c-4.7,0-7.8-2.5-9.2-7.6c-1.6-6-5.4-10-11.5-12v30c6,1.6,10.7,3.1,14.2,4.5
		c3.5,1.3,6.7,3.3,9.5,5.8c3,2.6,5.3,5.8,6.9,9.5c1.6,3.7,2.4,7.7,2.4,12.1c0,5.5-1.3,10.6-3.9,15.4c-2.6,4.8-6.4,8.7-11.3,11.7
		c-5,3-10.9,4.8-17.8,5.4v8.4c0,2.8-0.3,4.9-0.8,6.2c-0.6,1.3-1.8,1.9-3.6,1.9c-1.7,0-2.9-0.5-3.6-1.6c-0.7-1.1-1-2.7-1-4.9v-10
		c-5.6-0.6-10.5-1.9-14.7-4c-4.2-2-7.7-4.5-10.5-7.5c-2.8-3-4.9-6.1-6.2-9.4c-1.3-3.2-2-6.4-2-9.5c0-2.3,0.9-4.4,2.7-6.2
		c1.8-1.8,4-2.8,6.7-2.8c2.2,0,4,0.5,5.5,1.5c1.5,1,2.5,2.4,3.1,4.3c1.3,3.9,2.4,7,3.4,9c1,2.1,2.4,4,4.4,5.7c1.9,1.7,4.5,3.1,7.7,4
		v-33.5c-6.4-1.8-11.8-3.8-16.1-5.9c-4.3-2.2-7.8-5.3-10.5-9.3c-2.7-4-4-9.2-4-15.6c0-8.3,2.6-15,7.9-20.3
		c5.3-5.3,12.9-8.4,22.8-9.2v-7.6c0-4,1.5-6.1,4.5-6.1C292.8,64.2,294.4,66.2,294.4,70.2z M285.2,119.6V92c-4,1.2-7.2,2.8-9.4,4.8
		c-2.3,2-3.4,4.9-3.4,8.9c0,3.8,1.1,6.7,3.2,8.6C277.7,116.2,280.9,118,285.2,119.6z M294.4,141v31.6c4.9-1,8.6-2.9,11.2-5.8
		c2.6-2.9,4-6.3,4-10.2c0-4.2-1.3-7.4-3.9-9.7C303.1,144.5,299.4,142.6,294.4,141z"/>
</g>
<g>
	<path class="st2" d="M178.2,195.8h-31.6v-46.6H99.8v-32.1h46.9V70.2h31.6v46.9h47.1v32.1h-47.1V195.8z"/>
</g>
</svg>
