<?xml version="1.0" encoding="utf-8"?>
<!-- Generator: Adobe Illustrator 19.2.1, SVG Export Plug-In . SVG Version: 6.00 Build 0)  -->
<svg version="1.1" id="Layer_1" xmlns="http://www.w3.org/2000/svg" xmlns:xlink="http://www.w3.org/1999/xlink" x="0px" y="0px"
	 viewBox="0 0 432 432" style="enable-background:new 0 0 432 432;" xml:space="preserve">
<style type="text/css">
	.st0{fill:#2DABCB;}
	.st1{fill-rule:evenodd;clip-rule:evenodd;fill:#424143;}
	.st2{fill:#FFFFFF;}
</style>
<g>
	<path class="st0" d="M202.7,72.6c0,3.7-3,6.7-6.7,6.7h-26.7v230.1c0,27.6-22.5,50-50,50c-27.6,0-50-22.4-50-50v-16.7H96v-13.3H69.3
		v-20H96V246H69.3v-20H96v-13.3H69.3v-20H96v-13.3H69.3v-20H96V146H69.3v-20H96v-13.3H69.3V79.3H42.7c-3.7,0-6.7-2.9-6.7-6.7
		c0-3.7,3-6.7,6.7-6.7H196C199.7,66,202.7,69,202.7,72.6z"/>
	<path class="st0" d="M389.3,66H236c-3.7,0-6.7,3-6.7,6.7s3,6.7,6.7,6.7h20V146v13.3v150c0,31.3,25.4,56.7,56.7,56.7
		s56.7-25.5,56.7-56.7v-150V146V79.3h20c3.7,0,6.7-3,6.7-6.7S393,66,389.3,66z M342.7,309.3c0,16.5-13.5,30-30,30H306V326h6.7
		c9.2,0,16.7-7.5,16.7-16.7v-6.7h13.3V309.3z M356,146h-86.7V79.3H356V146z"/>
</g>
</svg>
