<?xml version="1.0" encoding="utf-8"?>
<!-- Generator: Adobe Illustrator 19.2.1, SVG Export Plug-In . SVG Version: 6.00 Build 0)  -->
<svg version="1.1" id="Layer_1" xmlns="http://www.w3.org/2000/svg" xmlns:xlink="http://www.w3.org/1999/xlink" x="0px" y="0px"
	 viewBox="0 0 432 432" style="enable-background:new 0 0 432 432;" xml:space="preserve">
<style type="text/css">
	.st0{fill:#2DABCB;}
	.st1{fill-rule:evenodd;clip-rule:evenodd;fill:#424143;}
	.st2{fill:#FFFFFF;}
</style>
<path class="st0" d="M392.6,255.4L324.3,216l68.3-39.4c1.6-0.9,2.7-2.4,3.2-4.1c0.5-1.7,0.2-3.6-0.7-5.1l-47.4-82.1
	c-1.9-3.2-6-4.3-9.3-2.5l-68.3,39.4V43.3c0-3.7-3-6.8-6.8-6.8h-94.8c-3.7,0-6.8,3-6.8,6.8v78.8L93.6,82.8c-3.2-1.9-7.4-0.8-9.3,2.5
	l-47.4,82.1c-0.9,1.6-1.1,3.4-0.7,5.1c0.5,1.7,1.6,3.2,3.2,4.1l68.3,39.4l-68.3,39.4c-1.6,0.9-2.7,2.4-3.2,4.1
	c-0.5,1.7-0.2,3.6,0.7,5.1l47.4,82.1c0.9,1.6,2.4,2.7,4.1,3.2c1.7,0.5,3.6,0.2,5.1-0.7l68.3-39.4v78.8c0,3.7,3,6.8,6.8,6.8h94.8
	c3.7,0,6.8-3,6.8-6.8v-78.8l68.3,39.4c1.6,0.9,3.4,1.1,5.1,0.7c1.7-0.5,3.2-1.6,4.1-3.2l47.4-82.1c0.9-1.6,1.1-3.4,0.7-5.1
	C395.3,257.8,394.2,256.3,392.6,255.4z M342.9,285.3c-1.9,3.3-5.3,5.2-8.8,5.2c-1.7,0-3.4-0.4-5-1.3L219,226.8l-110.1,62.3
	c-1.6,0.9-3.3,1.3-5,1.3c-3.5,0-7-1.9-8.8-5.2c-2.8-4.9-1-11.1,3.8-13.8l99.5-56.3l-96.5-54.6c-4.9-2.8-6.6-9-3.8-13.8
	c2.8-4.9,9-6.6,13.8-3.8L219,203.5l107.1-60.6c4.9-2.8,11.1-1.1,13.8,3.8c2.8,4.9,1,11.1-3.8,13.8l-96.5,54.6l99.5,56.3
	C344,274.2,345.7,280.5,342.9,285.3z"/>
</svg>
