<?xml version="1.0" encoding="utf-8"?>
<!-- Generator: Adobe Illustrator 19.2.1, SVG Export Plug-In . SVG Version: 6.00 Build 0)  -->
<svg version="1.1" id="Layer_1" xmlns="http://www.w3.org/2000/svg" xmlns:xlink="http://www.w3.org/1999/xlink" x="0px" y="0px"
	 viewBox="0 0 432 432" style="enable-background:new 0 0 432 432;" xml:space="preserve">
<style type="text/css">
	.st0{fill:#2DABCB;}
	.st1{fill-rule:evenodd;clip-rule:evenodd;fill:#424143;}
	.st2{fill:#FFFFFF;}
</style>
<path class="st0" d="M76.9,79.3v273.3h278.1V79.3H76.9z M126.1,276.1c-5.6,0-10.1-4.5-10.1-10.1c0-5.6,4.5-10.1,10.1-10.1
	c5.6,0,10.1,4.5,10.1,10.1C136.2,271.6,131.7,276.1,126.1,276.1z M126.1,226.1c-5.6,0-10.1-4.5-10.1-10.1c0-5.6,4.5-10.1,10.1-10.1
	c5.6,0,10.1,4.5,10.1,10.1C136.2,221.6,131.7,226.1,126.1,226.1z M126.1,176.1c-5.6,0-10.1-4.5-10.1-10.1c0-5.6,4.5-10.1,10.1-10.1
	c5.6,0,10.1,4.5,10.1,10.1C136.2,171.6,131.7,176.1,126.1,176.1z M306,275.9H158c-5.5,0-10-4.5-10-10s4.5-10,10-10h148
	c5.5,0,10,4.5,10,10S311.5,275.9,306,275.9z M306,225.9H158c-5.5,0-10-4.5-10-10s4.5-10,10-10h148c5.5,0,10,4.5,10,10
	S311.5,225.9,306,225.9z M306,175.9H158c-5.5,0-10-4.5-10-10s4.5-10,10-10h148c5.5,0,10,4.5,10,10S311.5,175.9,306,175.9z"/>
</svg>
