<svg id="Layer_1" data-name="Layer 1" xmlns="http://www.w3.org/2000/svg" xmlns:xlink="http://www.w3.org/1999/xlink" viewBox="0 0 365.15 495.69"><defs><style>.cls-1{fill:none;}.cls-2,.cls-3{fill:#2DABCB;}.cls-3{fill-rule:evenodd;}.cls-4{clip-path:url(#clip-path);}</style><clipPath id="clip-path" transform="translate(-41.42 -51.15)"><rect class="cls-1" x="92.92" y="105.37" width="237.43" height="280.6"/></clipPath></defs><title>Fuse_Icon_Perio</title><path class="cls-2" d="M100.42,128.34C114.77,128.33,135.5,140,146,140s30.81-11.42,45-11.42c8.83,0,15.23,4.45,15.23,18.92a157,157,0,0,1-1.61,23.76c14.77,29.37,11.9,62.47-6.6,74.34-2,1.25-4.86,1.72-8.48,1.72-10.5,0-27-3.92-43.49-3.92s-33,3.92-43.49,3.92c-3.62,0-6.53-.47-8.48-1.72-18.3-11.75-21.31-44.25-7.08-73.38A141.65,141.65,0,0,1,85,147.52c0-14.66,6.47-19.18,15.4-19.18m0-15h0c-11.44,0-18.32,4.85-22.07,8.92-5.52,6-8.32,14.49-8.32,25.26a167.23,167.23,0,0,0,1.42,22.57c-6.64,15.33-9.5,31.77-8.07,46.78,1.76,18.47,9.77,33.16,22.57,41.37,5.72,3.67,12.2,4.09,16.58,4.09a152.79,152.79,0,0,0,19-1.76c7.66-1,16.34-2.16,24.52-2.16s16.87,1.15,24.53,2.16a152.78,152.78,0,0,0,19,1.76c4.38,0,10.86-.42,16.58-4.09,12.94-8.3,21-23.19,22.62-41.92C230,201,227,184.36,220,168.87a184,184,0,0,0,1.15-21.35c0-10.69-2.79-19.13-8.29-25.07-3.73-4-10.57-8.85-21.94-8.85-10.17,0-21.08,3.83-30.71,7.21C155.51,122.47,148.35,125,146,125s-9.61-2.6-14.4-4.3c-9.78-3.46-20.86-7.38-31.18-7.38Z" transform="translate(-41.42 -51.15)"/><path class="cls-2" d="M256.42,128.34C270.77,128.33,291.5,140,302,140s30.81-11.42,45-11.42c8.83,0,15.23,4.45,15.23,18.92a157,157,0,0,1-1.61,23.76c14.77,29.37,11.9,62.47-6.6,74.34-2,1.25-4.86,1.72-8.48,1.72-10.5,0-27-3.92-43.49-3.92s-33,3.92-43.49,3.92c-3.62,0-6.53-.47-8.48-1.72-18.3-11.75-21.31-44.25-7.08-73.38A141.65,141.65,0,0,1,241,147.52c0-14.66,6.47-19.18,15.4-19.18m0-15h0c-11.44,0-18.32,4.85-22.07,8.92-5.52,6-8.32,14.49-8.32,25.26a167.23,167.23,0,0,0,1.42,22.57c-6.64,15.33-9.5,31.77-8.07,46.78,1.76,18.47,9.77,33.16,22.57,41.37,5.72,3.67,12.2,4.09,16.58,4.09a152.79,152.79,0,0,0,19-1.76c7.66-1,16.34-2.16,24.52-2.16s16.87,1.15,24.53,2.16a152.78,152.78,0,0,0,19,1.76c4.38,0,10.86-.42,16.58-4.09,12.94-8.3,21-23.19,22.62-41.92C386,201,383,184.36,376,168.87a184,184,0,0,0,1.15-21.35c0-10.69-2.79-19.13-8.29-25.07-3.73-4-10.57-8.85-21.94-8.85-10.17,0-21.08,3.83-30.71,7.21C311.51,122.47,304.35,125,302,125s-9.61-2.6-14.4-4.3c-9.78-3.46-20.86-7.38-31.18-7.38Z" transform="translate(-41.42 -51.15)"/><path class="cls-3" d="M149.27,150.35c26.71,0,50.54,17.79,66.2,33.22a12.17,12.17,0,0,0,17.06,0c15.66-15.44,39.49-33.22,66.2-33.22,26.21,0,49.67,11.21,65.33,25a12.21,12.21,0,0,0,20-6.58L406.3,65.94a12.22,12.22,0,0,0-11.94-14.8H53.65A12.22,12.22,0,0,0,41.7,65.94L63.92,168.81a12.21,12.21,0,0,0,20,6.58C99.6,161.56,123.06,150.35,149.27,150.35Z" transform="translate(-41.42 -51.15)"/><g class="cls-4"><path class="cls-2" d="M185,276.24a6.79,6.79,0,0,0-2.45-4.56L132,230.57l24.77-30.43c2.46-2.94,4.76-6,7.34-8.85s3.89-6.72,5.86-10.07c3.59-6.95,7.3-13.81,10.59-21-6.38,4.68-12.35,9.7-18.43,14.64-2.87,2.6-6.46,4.63-8.67,7.78s-4.8,6-7.17,9l-29,35.67a6.75,6.75,0,0,0,1,9.51L171.8,280.4l2.1,20.44-13.45,1.38,25.09,244.62,40.36-4.14L200.81,298.08l-13.45,1.38Z" transform="translate(-41.42 -51.15)"/></g></svg>