<?xml version="1.0" encoding="utf-8"?>
<!-- Generator: Adobe Illustrator 19.2.1, SVG Export Plug-In . SVG Version: 6.00 Build 0)  -->
<svg version="1.1" id="Layer_1" xmlns="http://www.w3.org/2000/svg" xmlns:xlink="http://www.w3.org/1999/xlink" x="0px" y="0px"
	 viewBox="0 0 432 432" style="enable-background:new 0 0 432 432;" xml:space="preserve">
<style type="text/css">
	.st0{fill:#2DABCB;}
	.st1{fill-rule:evenodd;clip-rule:evenodd;fill:#424143;}
	.st2{fill:#FFFFFF;}
</style>
<g>
	<g>
		<path class="st0" d="M391.8,253.3c-7.4-24.7-24.1-45.1-46.8-57.3c-22.7-12.2-48.9-14.8-73.6-7.4c-24.7,7.5-45.1,24.1-57.3,46.8
			c-12.2,22.7-14.8,48.9-7.4,73.6c7.4,24.7,24.1,45.1,46.8,57.3c22.7,12.2,48.9,14.8,73.6,7.4c24.7-7.4,45.1-24.1,57.3-46.8
			C396.7,304.2,399.3,278,391.8,253.3z M225.7,303.4c-5.9-19.7-3.8-40.5,5.9-58.5c9.7-18.1,25.9-31.3,45.5-37.2
			c19.7-5.9,40.4-3.8,58.5,5.9c18.1,9.7,31.3,25.9,37.2,45.5c5.9,19.7,3.8,40.5-5.9,58.5c-9.7,18.1-25.9,31.3-45.6,37.2
			C282.1,366.6,237.5,342.7,225.7,303.4z"/>
		<path class="st0" d="M355.3,254l-117.7,35.5c-5.2,1.6-8.2,7.1-6.6,12.3c0.8,2.6,2.6,4.7,4.8,5.9c2.2,1.2,4.9,1.5,7.5,0.7L361,273
			c5.2-1.6,8.2-7.1,6.6-12.4C366,255.4,360.5,252.4,355.3,254z"/>
		<path class="st0" d="M218.8,62.3c-33.5-18-75.4-5.4-93.4,28.1l-35.9,66.8l-45.3,84.3c-18,33.5-5.4,75.4,28.1,93.4
			c33.5,18,75.4,5.4,93.4-28.1l45.3-84.3l35.9-66.8C264.9,122.2,252.3,80.3,218.8,62.3z M193.6,213.2l-86.6-46.5l35.9-66.8
			c12.8-23.9,42.7-32.9,66.6-20.1c23.9,12.8,32.9,42.7,20,66.6L193.6,213.2z"/>
	</g>
</g>
</svg>
