<?xml version="1.0" encoding="utf-8"?>
<!-- Generator: Adobe Illustrator 19.2.1, SVG Export Plug-In . SVG Version: 6.00 Build 0)  -->
<svg version="1.1" id="Layer_1" xmlns="http://www.w3.org/2000/svg" xmlns:xlink="http://www.w3.org/1999/xlink" x="0px" y="0px"
	 viewBox="0 0 432 432" style="enable-background:new 0 0 432 432;" xml:space="preserve">
<style type="text/css">
	.st0{fill:#2DABCB;}
	.st1{fill-rule:evenodd;clip-rule:evenodd;fill:#424143;}
	.st2{fill:#FFFFFF;}
</style>
<g>
	<g>
		<path class="st0" d="M322.7,94.3c0-31.1-25.3-56.4-56.4-56.4c-31.1,0-56.4,25.3-56.4,56.4c0,28.9,22,52.5,50,55.7v16.1h-12.6V396
			H260h12.6h12.6V166.1h-12.6V150C300.7,146.8,322.7,123.2,322.7,94.3z M266.3,50.6c24.1,0,43.7,19.6,43.7,43.7
			c0,24.1-19.6,43.7-43.7,43.7c-24.1,0-43.7-19.6-43.7-43.7C222.6,70.2,242.2,50.6,266.3,50.6z"/>
		<path class="st0" d="M169.5,144.3c0-1.6-0.6-3.2-1.8-4.5l-43.1-43l25.9-25.9c2.6-2.5,5-5.1,7.7-7.5c2.7-2.4,4.3-5.9,6.4-8.8
			c4-6.1,8.1-12.1,11.9-18.5c-6.4,3.7-12.4,7.8-18.5,11.9c-2.9,2.1-6.4,3.7-8.8,6.4c-2.4,2.7-5,5.1-7.5,7.7l-30.4,30.4
			c-2.5,2.5-2.5,6.5,0,8.9l45.7,45.7v19.2h-12.6V396h37.9V166.1h-12.6V144.3z"/>
	</g>
</g>
</svg>
