<?xml version="1.0" encoding="utf-8"?>
<!-- Generator: Adobe Illustrator 19.2.1, SVG Export Plug-In . SVG Version: 6.00 Build 0)  -->
<svg version="1.1" id="Layer_1" xmlns="http://www.w3.org/2000/svg" xmlns:xlink="http://www.w3.org/1999/xlink" x="0px" y="0px"
	 viewBox="0 0 432 432" style="enable-background:new 0 0 432 432;" xml:space="preserve">
<style type="text/css">
	.st0{fill:#2DABCB;}
	.st1{fill-rule:evenodd;clip-rule:evenodd;fill:#424143;}
	.st2{fill:#FFFFFF;}
</style>
<g>
	<path class="st0" d="M216,33.5c-60.2,0-109.2,49-109.2,109.2c0,60.2,49,109.2,109.2,109.2c60.2,0,109.2-49,109.2-109.2
		C325.2,82.5,276.2,33.5,216,33.5z M216,228.2c-45.6,0-83-35.9-85.4-81c13.7-1.7,36.2-8.5,58.2-32.9c0,0,28.7,45.6,111.6,42.4
		C293.7,197.2,258.4,228.2,216,228.2z"/>
	<path class="st0" d="M195.4,398.5h41.2H253h143v-71.6c0-33.6-27.3-60.9-60.9-60.9h-22l-64.2,111.2l-10.9-57.3l12-20.8
		c0.8-1.4,0.8-3.1,0-4.4L235,268.4c-0.8-1.4-2.3-2.2-3.8-2.2h-30.2c-1.6,0-3.1,0.8-3.8,2.2l-15.1,26.2c-0.8,1.4-0.8,3.1,0,4.4
		l12,20.8l-10.9,57.3L118.9,266h-22C63.3,266,36,293.3,36,326.9v71.6h143H195.4z M299.2,342.9c0-2.6,2.1-4.7,4.7-4.7h15v-15
		c0-2.6,2.1-4.7,4.7-4.7h11.7c2.6,0,4.7,2.1,4.7,4.7v15h15c2.6,0,4.7,2.1,4.7,4.7v11.7c0,2.6-2.1,4.7-4.7,4.7h-15v15
		c0,2.6-2.1,4.7-4.7,4.7h-11.7c-2.6,0-4.7-2.1-4.7-4.7v-15h-15c-2.6,0-4.7-2.1-4.7-4.7V342.9z"/>
</g>
</svg>
