<?xml version="1.0" encoding="utf-8"?>
<!-- Generator: Adobe Illustrator 19.2.1, SVG Export Plug-In . SVG Version: 6.00 Build 0)  -->
<svg version="1.1" id="Layer_1" xmlns="http://www.w3.org/2000/svg" xmlns:xlink="http://www.w3.org/1999/xlink" x="0px" y="0px"
	 viewBox="0 0 361 274.2" style="enable-background:new 0 0 361 274.2;" xml:space="preserve">
<style type="text/css">
	.st0{fill:#2DABCB;}
</style>
<path class="st0" d="M0.5-0.3v274.8h360V-0.3H0.5z M39.4,31.4H18.5V18.7h20.9V31.4z M112.7,31.4H49.9V18.7h62.8V31.4z M225,140
	c0,27.9-7.7,52.5-19.3,67.1c-2.4-35.1-12.7-61.6-25.1-61.6c-12.3,0-22.6,26.1-25.1,60.9c-11.4-14.7-18.8-38.9-18.8-66.4
	c0-6.6,0.4-12.3,1.2-17.3c-10.8-21.4-8.7-45.6,4.8-54.2c5.5-3.6,21.7,1.6,37.9,1.6s32.3-5.2,37.9-1.6c13.3,8.6,15.5,32.3,5.2,53.5
	C224.5,127.1,225,133.1,225,140z"/>
</svg>
