<?xml version="1.0" encoding="utf-8"?>
<!-- Generator: Adobe Illustrator 19.2.1, SVG Export Plug-In . SVG Version: 6.00 Build 0)  -->
<svg version="1.1" id="Layer_1" xmlns="http://www.w3.org/2000/svg" xmlns:xlink="http://www.w3.org/1999/xlink" x="0px" y="0px"
	 viewBox="0 0 365.1 335" style="enable-background:new 0 0 365.1 335;" xml:space="preserve">
<style type="text/css">
	.st0{fill:#2DABCB;}
	.st1{clip-path:url(#SVGID_2_);}
</style>
<title>perio_updated</title>
<path class="st0" d="M59,77.2c14.3,0,35.1,11.7,45.6,11.7s30.8-11.4,45-11.4c8.8,0,15.2,4.4,15.2,18.9c0.1,7.9-0.5,15.9-1.6,23.8
	c14.8,29.4,11.9,62.5-6.6,74.3c-2,1.2-4.9,1.7-8.5,1.7c-10.5,0-27-3.9-43.5-3.9s-33,3.9-43.5,3.9c-3.6,0-6.5-0.5-8.5-1.7
	c-18.3-11.8-21.3-44.2-7.1-73.4c-1.4-8.2-2.1-16.4-2-24.7C43.6,81.7,50,77.2,59,77.2 M59,62.2L59,62.2c-11.4,0-18.3,4.9-22.1,8.9
	c-5.5,6-8.3,14.5-8.3,25.3c0,7.5,0.4,15.1,1.4,22.6c-6.6,15.3-9.5,31.8-8.1,46.8c1.8,18.5,9.8,33.2,22.6,41.4
	c5.7,3.7,12.2,4.1,16.6,4.1c6.4-0.2,12.7-0.8,19-1.8c7.7-1,16.3-2.2,24.5-2.2s16.9,1.1,24.5,2.2c6.3,1,12.6,1.6,19,1.8
	c4.4,0,10.9-0.4,16.6-4.1c12.9-8.3,21-23.2,22.6-41.9c1.2-15.3-1.8-32-8.8-47.4c0.8-7.1,1.2-14.2,1.1-21.3c0-10.7-2.8-19.1-8.3-25.1
	c-3.7-4-10.6-8.9-21.9-8.9c-10.2,0-21.1,3.8-30.7,7.2c-4.7,1.7-11.9,4.2-14.2,4.2s-9.6-2.6-14.4-4.3C80.4,66.1,69.3,62.2,59,62.2
	L59,62.2z"/>
<path class="st0" d="M215,77.2c14.4,0,35.1,11.7,45.6,11.7c10.5,0,30.8-11.4,45-11.4c8.8,0,15.2,4.4,15.2,18.9
	c0.1,7.9-0.5,15.9-1.6,23.8c14.8,29.4,11.9,62.5-6.6,74.3c-2,1.2-4.9,1.7-8.5,1.7c-10.5,0-27-3.9-43.5-3.9s-33,3.9-43.5,3.9
	c-3.6,0-6.5-0.5-8.5-1.7c-18.3-11.8-21.3-44.2-7.1-73.4c-1.4-8.2-2.1-16.4-2-24.7C199.6,81.7,206.1,77.2,215,77.2 M215,62.2
	L215,62.2c-11.4,0-18.3,4.9-22.1,8.9c-5.5,6-8.3,14.5-8.3,25.3c0,7.5,0.4,15.1,1.4,22.6c-6.6,15.3-9.5,31.8-8.1,46.8
	c1.8,18.5,9.8,33.2,22.6,41.4c5.7,3.7,12.2,4.1,16.6,4.1c6.4-0.2,12.7-0.8,19-1.8c7.7-1,16.3-2.2,24.5-2.2c8.2,0,16.9,1.1,24.5,2.2
	c6.3,1,12.6,1.6,19,1.8c4.4,0,10.9-0.4,16.6-4.1c12.9-8.3,21-23.2,22.6-41.9c1.2-15.3-1.8-32-8.8-47.4c0.8-7.1,1.2-14.2,1.1-21.3
	c0-10.7-2.8-19.1-8.3-25.1c-3.7-4-10.6-8.9-21.9-8.9c-10.2,0-21.1,3.8-30.7,7.2c-4.7,1.7-11.9,4.2-14.2,4.2s-9.6-2.6-14.4-4.3
	C236.4,66.1,225.3,62.2,215,62.2L215,62.2z"/>
<path class="st0" d="M107.8,99.2c26.7,0,50.5,17.8,66.2,33.2c4.7,4.7,12.3,4.7,17.1,0c15.7-15.4,39.5-33.2,66.2-33.2
	c26.2,0,49.7,11.2,65.3,25c5.1,4.5,12.8,4,17.2-1.1c1.4-1.6,2.3-3.4,2.8-5.5l22.2-102.8c1.4-6.6-2.8-13.1-9.4-14.5
	c-0.8-0.2-1.7-0.3-2.6-0.3H12.2C5.5,0,0,5.4,0,12.2c0,0.9,0.1,1.8,0.3,2.6l22.3,102.9c1.4,6.6,7.9,10.8,14.5,9.3
	c2-0.4,3.9-1.4,5.5-2.8C58.2,110.4,81.6,99.2,107.8,99.2z"/>
<g>
	<defs>
		<rect id="SVGID_1_" x="51.5" y="54.2" width="237.4" height="280.6"/>
	</defs>
	<clipPath id="SVGID_2_">
		<use xlink:href="#SVGID_1_"  style="overflow:visible;"/>
	</clipPath>
	<g class="st1">
		<path class="st0" d="M143.6,225.1c-0.2-1.8-1.1-3.4-2.4-4.6l-50.6-41.1l24.8-30.4c2.5-2.9,4.8-6,7.3-8.9s3.9-6.7,5.9-10.1
			c3.6-6.9,7.3-13.8,10.6-21c-6.4,4.7-12.3,9.7-18.4,14.6c-2.9,2.6-6.5,4.6-8.7,7.8s-4.8,6-7.2,9l-29,35.7c-2.3,2.9-1.9,7.1,1,9.5
			c0,0,0,0,0,0l0,0l53.5,43.6l2.1,20.4l-13.5,1.4l25.1,244.6l40.4-4.1l-25.1-244.6l-13.4,1.4L143.6,225.1z"/>
	</g>
</g>
</svg>
