<?xml version="1.0" encoding="UTF-8" standalone="no"?>
<!-- Created with Inkscape (http://www.inkscape.org/) -->

<svg
   xmlns:dc="http://purl.org/dc/elements/1.1/"
   xmlns:cc="http://creativecommons.org/ns#"
   xmlns:rdf="http://www.w3.org/1999/02/22-rdf-syntax-ns#"
   xmlns:svg="http://www.w3.org/2000/svg"
   xmlns="http://www.w3.org/2000/svg"
   xmlns:sodipodi="http://sodipodi.sourceforge.net/DTD/sodipodi-0.dtd"
   xmlns:inkscape="http://www.inkscape.org/namespaces/inkscape"
   width="30.948559mm"
   height="34.784157mm"
   viewBox="0 0 109.66025 123.25095"
   id="svg2"
   version="1.1"
   inkscape:version="0.91 r13725"
   sodipodi:docname="condition.svg">
  <defs
     id="defs4" />
  <sodipodi:namedview
     id="base"
     pagecolor="#ffffff"
     bordercolor="#666666"
     borderopacity="1.0"
     inkscape:pageopacity="0.0"
     inkscape:pageshadow="2"
     inkscape:zoom="0.35"
     inkscape:cx="-751.59845"
     inkscape:cy="64.482622"
     inkscape:document-units="px"
     inkscape:current-layer="layer1"
     showgrid="false"
     fit-margin-top="0"
     fit-margin-left="0"
     fit-margin-right="0"
     fit-margin-bottom="0"
     inkscape:window-width="1920"
     inkscape:window-height="1021"
     inkscape:window-x="1432"
     inkscape:window-y="-8"
     inkscape:window-maximized="1" />
  <metadata
     id="metadata7">
    <rdf:RDF>
      <cc:Work
         rdf:about="">
        <dc:format>image/svg+xml</dc:format>
        <dc:type
           rdf:resource="http://purl.org/dc/dcmitype/StillImage" />
        <dc:title></dc:title>
      </cc:Work>
    </rdf:RDF>
  </metadata>
  <g
     inkscape:label="Layer 1"
     inkscape:groupmode="layer"
     id="layer1"
     transform="translate(-639.45559,-473.59387)">
    <g
       transform="translate(446.48699,231.6567)"
       id="g5751">
      <path
         inkscape:connector-curvature="0"
         id="path5672"
         d="m 223.9056,277.65908 -5.38524,-2.8936 -0.006,-4.932 c -0.004,-2.8808 0.12379,-4.7924 0.30671,-4.5962 0.17224,0.1847 2.57878,3.5178 5.34787,7.4069 2.76909,3.8891 5.19323,7.27 5.38698,7.513 0.63782,0.8002 -0.20435,0.4278 -5.64987,-2.4981 z"
         style="opacity:0.87000002;fill:#333333;fill-opacity:0.9372549;stroke:#000000;stroke-width:0;stroke-miterlimit:4;stroke-dasharray:none;stroke-opacity:0.52941165" />
      <path
         inkscape:connector-curvature="0"
         id="path5674"
         d="m 224.69464,287.29278 c -5.44472,-1.5393 -10.90384,-3.0605 -12.13137,-3.3805 -1.22753,-0.32 -2.10257,-0.6967 -1.94454,-0.8371 0.50858,-0.4519 9.2749,-2.2089 9.87395,-1.979 0.55845,0.2143 13.02628,7.6173 14.44529,8.5772 1.17357,0.7938 0.11684,0.5482 -10.24333,-2.3806 z"
         style="opacity:0.87000002;fill:#333333;fill-opacity:0.9372549;stroke:#000000;stroke-width:0;stroke-miterlimit:4;stroke-dasharray:none;stroke-opacity:0.52941165" />
      <path
         id="path5963"
         d="m 285.74498,275.22968 c -1.4139,-0.014 -2.87226,0.043 -3.8711,0.1758 -1.24671,0.1651 -4.70192,0.8961 -7.65429,1.6191 -5.89042,1.4448 -9.06081,1.9085 -12.22853,1.8067 -2.87086,-0.095 -5.24717,-0.4869 -10.20898,-1.6719 2.70491,4.6692 4.73242,8.3327 4.73242,8.5976 0,0.5926 -2.31182,1.4247 -11.74219,4.2286 -2.87311,0.8543 -5.14006,1.7896 -5.03711,2.08 0.10291,0.2905 3.34442,3.077 7.20313,6.1914 6.61932,5.343 6.90447,5.6592 5.03711,5.6016 -1.08856,-0.034 -11.89242,-1.2998 -24.00782,-2.8144 -1.43045,-0.1788 -2.33195,-0.3074 -3.6914,-0.4805 0.0788,0.2729 0.17901,0.5642 0.27148,0.7422 0.12367,0.238 0.42325,0.9531 0.66992,1.5879 0.9367,2.425 1.18516,3.0316 1.28516,3.0996 0.054,0.039 0.20789,0.3646 0.33789,0.7207 0.13001,0.3572 0.41419,0.9426 0.63086,1.2988 0.21801,0.355 0.39453,0.6939 0.39453,0.7559 0,0.06 0.22976,0.5224 0.50977,1.0254 0.28067,0.5014 0.51172,0.9586 0.51172,1.0156 0,0.055 0.2247,0.5084 0.49804,1.0058 0.27401,0.498 0.55247,1.0964 0.61914,1.3282 0.0667,0.2335 0.18367,0.4931 0.26367,0.5781 0.24701,0.2685 1.45789,3.5581 1.5879,4.3144 0.0667,0.398 0.21031,0.8108 0.32031,0.9239 0.14334,0.1458 0.23422,2.9086 0.32422,9.8789 0.07,5.3226 0.19653,10.2279 0.2832,10.9023 0.48642,3.78891 1.49088,9.13761 2.12891,11.32231 0.13933,0.4759 0.38239,1.3527 0.53906,1.9473 0.15734,0.5953 0.34544,1.1475 0.41211,1.2265 0.07,0.079 0.21869,0.5022 0.33203,0.9375 0.36868,1.4109 1.3564,3.6386 2.33203,5.2637 1.04697,1.7445 1.29818,2.0599 2.46289,3.0937 1.02931,0.914 1.42228,1.123 2.72266,1.4395 l 0.002,0 c 0.59362,0.1352 1.19398,0.2504 1.33399,0.1934 0.14,-0.045 0.57988,-0.1312 0.97656,-0.1992 1.38438,-0.234 2.38554,-0.9241 3.11523,-2.1485 0.53702,-0.9022 1.31825,-3.5251 1.54492,-5.1796 0.22668,-1.6665 0.097,-7.5725 -0.29101,-13.2891 -0.47569,-7.01441 -0.30379,-9.81231 0.79492,-12.97271 0.83136,-2.3912 2.26766,-4.4259 4.02539,-5.7011 0.77403,-0.5619 2.83071,-1.5118 3.27539,-1.5118 0.17467,0 0.36153,-0.055 0.4082,-0.123 0.18901,-0.2601 2.86779,-0.4931 4.75586,-0.4141 1.87867,0.08 4.20312,0.5777 4.86915,1.0469 0.14068,0.096 0.48562,0.2761 0.76563,0.4004 0.28068,0.1227 0.89455,0.5355 1.36523,0.9199 2.20469,1.7941 3.37745,3.9291 4.24414,7.7305 0.40469,1.7862 0.47083,2.2935 0.4375,5.0469 -0.007,1.684 -0.0866,3.67811 -0.16992,4.43161 -0.50002,4.4142 -0.71914,8.4439 -0.61914,11.3223 0.10781,3.1514 0.13403,3.3454 0.83399,5.8574 0.72602,2.6053 1.91432,4.0933 3.55078,4.4551 0.40301,0.085 0.96217,0.2095 1.24219,0.2715 0.28074,0.062 0.7022,0.062 0.93554,0 0.23401,-0.062 0.74351,-0.1807 1.13086,-0.2657 1.98934,-0.433 4.31664,-3.0848 5.95703,-6.7851 1.23071,-2.776 2.86437,-8.4981 3.53907,-12.4024 0.25134,-1.464 0.32504,-1.8263 0.51171,-2.5957 0.0473,-0.1984 0.21385,-1.56181 0.36719,-3.02931 0.21001,-1.9948 0.28927,-4.775 0.33594,-11.0156 0.0553,-8.1783 0.10304,-9.013 0.65039,-11.2656 0.21934,-0.9028 1.69619,-4.5215 2.29687,-5.6289 2.82371,-5.2027 5.18356,-10.8037 6.25586,-14.8516 0.58735,-2.2242 0.62477,-6.1343 0.0801,-8.5566 -0.8293,-3.6861 -1.88839,-6.0231 -3.70312,-8.1797 -2.12168,-2.5211 -5.48675,-4.3708 -9.18555,-5.0508 -0.81803,-0.15 -2.18766,-0.2358 -3.60156,-0.25 z m -61.55665,9.7676 c -0.01,0.024 -0.0199,0.047 -0.0293,0.07 0.012,-0.012 0.0586,-0.038 0.0586,-0.045 -3e-5,0 -0.0255,-0.019 -0.0293,-0.025 z"
         style="opacity:1;fill:#666666;fill-opacity:1;stroke:#666666;stroke-width:0.01566294;stroke-miterlimit:4;stroke-dasharray:none;stroke-opacity:1"
         inkscape:connector-curvature="0" />
      <path
         inkscape:connector-curvature="0"
         id="path5678"
         d="m 238.53401,280.33598 c -0.53385,-4.2305 -1.05504,-8.1835 -1.1582,-8.7844 l -0.18756,-1.0927 4.89012,-1.7055 c 2.68957,-0.938 5.10736,-1.7829 5.37287,-1.8776 0.36391,-0.1298 0.41789,0.037 0.2193,0.6768 -0.49322,1.5894 -7.69518,19.9397 -7.93106,20.208 -0.12916,0.1469 -0.67162,-3.1942 -1.20547,-7.4246 z"
         style="opacity:0.87000002;fill:#333333;fill-opacity:0.9372549;stroke:#000000;stroke-width:0;stroke-miterlimit:4;stroke-dasharray:none;stroke-opacity:0.52941165" />
      <path
         inkscape:connector-curvature="0"
         id="path5610"
         d="m 239.73513,241.93718 a 40.024675,40.02466 0 0 0 -40.02275,40.0267 40.024675,40.02466 0 0 0 8.1183,24.0793 l -14.23926,15.5076 c -0.86483,0.9418 -0.82418,2.4185 0.0919,3.3106 l 6.02326,5.867 c 0.91601,0.8922 2.35005,0.8518 3.21488,-0.09 l 14.33306,-15.6092 a 40.024675,40.02466 0 0 0 22.48067,6.9575 40.024675,40.02466 0 0 0 40.02668,-40.0229 40.024675,40.02466 0 0 0 -40.02668,-40.0266 z m 0.48273,8.3274 a 32.01974,32.019725 0 0 1 32.01782,32.0178 32.01974,32.019725 0 0 1 -32.01782,32.0199 32.01974,32.019725 0 0 1 -32.01781,-32.0199 32.01974,32.019725 0 0 1 32.01781,-32.0178 z"
         style="opacity:1;fill:#808080;fill-opacity:1;stroke:#000000;stroke-width:0;stroke-miterlimit:4;stroke-dasharray:none;stroke-opacity:0.52941165" />
      <path
         inkscape:connector-curvature="0"
         id="path5628"
         d="m 235.53784,313.84878 c -11.04272,-1.7035 -20.7281,-9.3849 -24.85045,-19.7086 -1.78516,-4.4707 -2.05595,-6.0499 -2.04906,-11.9498 0.004,-4.7107 0.11538,-5.8827 0.76272,-8.1368 3.21784,-11.2042 11.64563,-19.575 22.76767,-22.6141 2.43486,-0.6653 3.55223,-0.765 8.31619,-0.7414 4.96741,0.024 5.78866,0.1134 8.43248,0.9188 11.51121,3.5042 19.80416,12.3932 22.45561,24.0694 0.79172,3.4866 0.79343,10.0571 0.004,13.3417 -2.91974,12.1396 -11.89741,21.3426 -23.58922,24.1813 -3.27671,0.7957 -9.2244,1.1062 -12.24941,0.6395 l 0,0 z"
         style="opacity:0.5;fill:#ffffff;fill-opacity:1;stroke:#000000;stroke-width:0;stroke-miterlimit:4;stroke-dasharray:none;stroke-opacity:0.52941165" />
    </g>
  </g>
</svg>
