<?xml version="1.0" encoding="UTF-8" standalone="no"?>
<!-- Created with Inkscape (http://www.inkscape.org/) -->

<svg
   xmlns:dc="http://purl.org/dc/elements/1.1/"
   xmlns:cc="http://creativecommons.org/ns#"
   xmlns:rdf="http://www.w3.org/1999/02/22-rdf-syntax-ns#"
   xmlns:svg="http://www.w3.org/2000/svg"
   xmlns="http://www.w3.org/2000/svg"
   xmlns:sodipodi="http://sodipodi.sourceforge.net/DTD/sodipodi-0.dtd"
   xmlns:inkscape="http://www.inkscape.org/namespaces/inkscape"
   width="36.124443mm"
   height="36.124443mm"
   viewBox="0 0 128 127.99999"
   id="svg2"
   version="1.1"
   inkscape:version="0.91 r13725"
   sodipodi:docname="prop_service.svg">
  <defs
     id="defs4" />
  <sodipodi:namedview
     id="base"
     pagecolor="#ffffff"
     bordercolor="#666666"
     borderopacity="1.0"
     inkscape:pageopacity="0.0"
     inkscape:pageshadow="2"
     inkscape:zoom="1.979899"
     inkscape:cx="-196.38369"
     inkscape:cy="-10.39544"
     inkscape:document-units="px"
     inkscape:current-layer="g4156"
     showgrid="false"
     fit-margin-top="0"
     fit-margin-left="0"
     fit-margin-right="0"
     fit-margin-bottom="0"
     inkscape:window-width="1920"
     inkscape:window-height="1021"
     inkscape:window-x="1432"
     inkscape:window-y="-8"
     inkscape:window-maximized="1" />
  <metadata
     id="metadata7">
    <rdf:RDF>
      <cc:Work
         rdf:about="">
        <dc:format>image/svg+xml</dc:format>
        <dc:type
           rdf:resource="http://purl.org/dc/dcmitype/StillImage" />
        <dc:title />
      </cc:Work>
    </rdf:RDF>
  </metadata>
  <g
     inkscape:label="Layer 1"
     inkscape:groupmode="layer"
     id="layer1"
     transform="translate(350.00452,-347.48959)">
    <g
       id="g4156">
      <circle
         r="59.701546"
         cy="411.48959"
         cx="-286.00452"
         id="path5933"
         style="opacity:1;fill:#e6e6e6;fill-opacity:1;stroke:#ff5555;stroke-width:8.59700051;stroke-miterlimit:4;stroke-dasharray:none;stroke-opacity:1" />
      <path
         inkscape:connector-curvature="0"
         id="path4462-9-0"
         d="m -278.4992,461.91698 c -1.0495,-1.70876 -0.022,-37.14259 1.14503,-39.50337 0.8928,-1.80543 10.2348,-1.80543 11.12778,0 1.1676,2.36078 2.19463,37.79461 1.14497,39.50337 -0.57058,0.92899 -3.28606,1.56074 -6.70892,1.56074 -3.42288,0 -6.13823,-0.63175 -6.70886,-1.56074 z"
         style="opacity:1;fill:#666666;fill-opacity:1;stroke:none;stroke-width:0;stroke-miterlimit:4;stroke-dasharray:none;stroke-opacity:1" />
      <path
         inkscape:connector-curvature="0"
         id="path4466-8-7"
         d="m -276.78954,417.07868 c 0,-1.67321 0.82646,-3.63465 1.83653,-4.35844 1.4226,-1.01959 1.83641,-3.86124 1.83641,-12.61288 l 0,-11.29683 5.53761,-3.37058 c 5.99343,-3.6479 8.35559,-7.36215 7.2033,-11.32683 -0.89002,-3.06228 -5.43659,-5.79714 -9.63689,-5.79714 -1.70729,0 -3.10402,-0.47567 -3.10402,-1.05717 0,-1.57746 5.75219,-1.27645 9.7533,0.51024 8.26643,3.69123 7.04801,13.77087 -2.31092,19.11919 l -4.99373,2.85357 0,10.8312 c 0,8.33775 0.42276,11.13391 1.83638,12.14723 1.01014,0.72379 1.83646,2.68523 1.83646,4.35844 0,2.84431 -0.3184,3.0423 -4.89712,3.0423 -4.57895,0 -4.89731,-0.19793 -4.89731,-3.0423 z"
         style="opacity:1;fill:#808080;fill-opacity:1;stroke:none;stroke-width:0;stroke-miterlimit:4;stroke-dasharray:none;stroke-opacity:1" />
      <path
         inkscape:connector-curvature="0"
         id="path4466-8-7-8"
         d="m -300.70877,390.15722 0,9.78811 c 0,8.75175 -0.41297,11.59336 -1.83549,12.61302 -1.01017,0.72386 -1.83767,2.68611 -1.83767,4.35932 0,2.84439 0.3192,3.04168 4.89821,3.04168 4.57876,0 4.89595,-0.19735 4.89595,-3.04168 0,-1.67321 -0.82547,-3.63546 -1.83547,-4.35932 -1.41361,-1.01333 -1.83544,-3.80998 -1.83544,-12.14774 l 0,-10.25339 -2.45009,0 z"
         style="opacity:1;fill:#808080;fill-opacity:1;stroke:none;stroke-width:0;stroke-miterlimit:4;stroke-dasharray:none;stroke-opacity:1" />
      <path
         inkscape:connector-curvature="0"
         id="path4462-9-0-8"
         d="m -305.83577,461.66412 c -1.04942,-1.7088 -0.022,-37.14236 1.14508,-39.50333 0.8929,-1.80529 10.23481,-1.80529 11.12798,0 1.16742,2.36097 2.1945,37.79453 1.14488,39.50333 -0.57069,0.92896 -3.28604,1.56065 -6.70884,1.56065 -3.42306,0 -6.1384,-0.63169 -6.7091,-1.56065 z"
         style="opacity:1;fill:#666666;fill-opacity:1;stroke:none;stroke-width:0;stroke-miterlimit:4;stroke-dasharray:none;stroke-opacity:1" />
      <path
         inkscape:connector-curvature="0"
         id="path5818-5"
         d="m -299.83948,360.47772 a 16.166041,16.166042 0 0 0 -16.16535,16.16727 16.166041,16.166042 0 0 0 16.16535,16.16516 16.166041,16.166042 0 0 0 16.16726,-16.16516 16.166041,16.166042 0 0 0 -16.16726,-16.16727 z m 0.20399,2.71821 a 13.471711,13.471711 0 0 1 13.47268,13.47278 13.471711,13.471711 0 0 1 -13.47268,13.47053 13.471711,13.471711 0 0 1 -13.47077,-13.47053 13.471711,13.471711 0 0 1 13.47077,-13.47278 z"
         style="opacity:1;fill:#808080;fill-opacity:1;stroke:#000000;stroke-width:0;stroke-miterlimit:4;stroke-dasharray:none;stroke-opacity:0.52941165" />
      <path
         inkscape:connector-curvature="0"
         id="path4159"
         d="m -300.87457,390.05475 c -5.20334,-0.52847 -9.54929,-3.87502 -11.37421,-8.75884 -1.10723,-2.9638 -1.07095,-6.5473 0.0972,-9.51493 2.60823,-6.62828 9.94666,-10.09413 16.68675,-7.88097 7.08823,2.32724 10.92492,9.95219 8.5689,17.02886 -1.58301,4.75481 -5.76591,8.27558 -10.72163,9.02428 -0.88472,0.13377 -2.45728,0.18282 -3.25693,0.10158 z"
         style="opacity:0.5;fill:#ffffff;fill-opacity:1;stroke:none;stroke-width:0.31600001;stroke-miterlimit:4;stroke-dasharray:none;stroke-opacity:1" />
    </g>
  </g>
</svg>
