<?xml version="1.0" encoding="UTF-8" standalone="no"?>
<!-- Created with Inkscape (http://www.inkscape.org/) -->

<svg
   xmlns:dc="http://purl.org/dc/elements/1.1/"
   xmlns:cc="http://creativecommons.org/ns#"
   xmlns:rdf="http://www.w3.org/1999/02/22-rdf-syntax-ns#"
   xmlns:svg="http://www.w3.org/2000/svg"
   xmlns="http://www.w3.org/2000/svg"
   xmlns:sodipodi="http://sodipodi.sourceforge.net/DTD/sodipodi-0.dtd"
   xmlns:inkscape="http://www.inkscape.org/namespaces/inkscape"
   width="28.222223mm"
   height="28.564238mm"
   viewBox="0 0 100.00001 101.21186"
   id="svg2"
   version="1.1"
   inkscape:version="0.91 r13725"
   sodipodi:docname="services.svg">
  <defs
     id="defs4" />
  <sodipodi:namedview
     id="base"
     pagecolor="#ffffff"
     bordercolor="#666666"
     borderopacity="1.0"
     inkscape:pageopacity="0.0"
     inkscape:pageshadow="2"
     inkscape:zoom="0.35"
     inkscape:cx="234.11958"
     inkscape:cy="-61.507086"
     inkscape:document-units="px"
     inkscape:current-layer="layer1"
     showgrid="false"
     fit-margin-top="0"
     fit-margin-left="0"
     fit-margin-right="0"
     fit-margin-bottom="0"
     inkscape:window-width="1920"
     inkscape:window-height="1021"
     inkscape:window-x="1432"
     inkscape:window-y="-8"
     inkscape:window-maximized="1" />
  <metadata
     id="metadata7">
    <rdf:RDF>
      <cc:Work
         rdf:about="">
        <dc:format>image/svg+xml</dc:format>
        <dc:type
           rdf:resource="http://purl.org/dc/dcmitype/StillImage" />
        <dc:title></dc:title>
      </cc:Work>
    </rdf:RDF>
  </metadata>
  <g
     inkscape:label="Layer 1"
     inkscape:groupmode="layer"
     id="layer1"
     transform="translate(346.26245,-369.64327)">
    <ellipse
       style="opacity:1;fill:#b3b3b3;fill-opacity:1;stroke:#000000;stroke-width:0;stroke-miterlimit:4;stroke-dasharray:none;stroke-opacity:0.52941165"
       id="path5933"
       cx="-296.26245"
       cy="420.83096"
       rx="49.999996"
       ry="50.02417" />
    <ellipse
       style="opacity:1;fill:#4d4d4d;fill-opacity:1;stroke:#000000;stroke-width:0;stroke-miterlimit:4;stroke-dasharray:none;stroke-opacity:0.52941165"
       id="path5818"
       cx="-308.51172"
       cy="384.34915"
       rx="14.705876"
       ry="14.705877" />
    <circle
       style="opacity:0.9;fill:#f2f2f2;fill-opacity:1;stroke:#000000;stroke-width:0;stroke-miterlimit:4;stroke-dasharray:none;stroke-opacity:0.52941165"
       id="path5818-1"
       cx="-308.33752"
       cy="384.42252"
       r="12.254902" />
    <path
       style="opacity:1;fill:#666666;fill-opacity:1;stroke:none;stroke-width:0;stroke-miterlimit:4;stroke-dasharray:none;stroke-opacity:1"
       d="m -289.35037,463.96131 c -0.9548,-1.55459 -0.021,-33.78775 1.0415,-35.93529 0.8122,-1.64235 9.3105,-1.64235 10.1227,0 1.0622,2.14754 1.9964,34.3807 1.0415,35.93529 -0.519,0.84508 -2.9892,1.41971 -6.1029,1.41971 -3.1136,0 -5.5837,-0.57463 -6.1028,-1.41971 z"
       id="path4462-9-0"
       inkscape:connector-curvature="0" />
    <path
       style="opacity:1;fill:#4d4d4d;fill-opacity:1;stroke:none;stroke-width:0;stroke-miterlimit:4;stroke-dasharray:none;stroke-opacity:1"
       d="m -287.79527,423.17283 c 0,-1.5221 0.7518,-3.30627 1.6706,-3.96477 1.2943,-0.92756 1.6706,-3.51236 1.6706,-11.47363 l 0,-10.27633 5.0376,-3.06623 c 5.452,-3.31847 7.6007,-6.6973 6.5525,-10.30374 -0.8096,-2.7857 -4.9454,-5.27354 -8.7665,-5.27354 -1.553,0 -2.8236,-0.43279 -2.8236,-0.96174 0,-1.43493 5.2328,-1.16117 8.8725,0.46415 7.5197,3.35789 6.4113,12.52706 -2.1024,17.39228 l -4.5426,2.59593 0,9.8528 c 0,7.58475 0.3846,10.12838 1.6706,11.05005 0.9189,0.6585 1.6706,2.44267 1.6706,3.96477 0,2.58755 -0.2896,2.7675 -4.4549,2.7675 -4.1653,0 -4.455,-0.1799 -4.455,-2.7675 z"
       id="path4466-8-7"
       inkscape:connector-curvature="0" />
    <path
       style="opacity:1;fill:#4d4d4d;fill-opacity:1;stroke:none;stroke-width:0;stroke-miterlimit:4;stroke-dasharray:none;stroke-opacity:1"
       d="m -309.55407,398.68314 0,8.90395 c 0,7.96126 -0.3755,10.5461 -1.6697,11.47365 -0.9189,0.6585 -1.6717,2.4435 -1.6717,3.96561 0,2.5876 0.2905,2.76692 4.4558,2.76692 4.1654,0 4.4539,-0.17937 4.4539,-2.76692 0,-1.52211 -0.7509,-3.30711 -1.6697,-3.96561 -1.286,-0.92166 -1.6698,-3.46572 -1.6698,-11.05048 l 0,-9.32712 -2.2288,0 z"
       id="path4466-8-7-8"
       inkscape:connector-curvature="0" />
    <path
       style="opacity:1;fill:#666666;fill-opacity:1;stroke:none;stroke-width:0;stroke-miterlimit:4;stroke-dasharray:none;stroke-opacity:1"
       d="m -314.21777,463.73132 c -0.9548,-1.55458 -0.021,-33.78775 1.0415,-35.93529 0.8123,-1.64235 9.3105,-1.64235 10.1228,0 1.0621,2.14754 1.9963,34.38071 1.0415,35.93529 -0.5191,0.84508 -2.9892,1.41972 -6.1029,1.41972 -3.1137,0 -5.5838,-0.57464 -6.1029,-1.41972 z"
       id="path4462-9-0-8"
       inkscape:connector-curvature="0" />
  </g>
</svg>
