<?xml version="1.0" encoding="UTF-8" standalone="no"?>
<!-- Created with Inkscape (http://www.inkscape.org/) -->

<svg
   xmlns:dc="http://purl.org/dc/elements/1.1/"
   xmlns:cc="http://creativecommons.org/ns#"
   xmlns:rdf="http://www.w3.org/1999/02/22-rdf-syntax-ns#"
   xmlns:svg="http://www.w3.org/2000/svg"
   xmlns="http://www.w3.org/2000/svg"
   xmlns:sodipodi="http://sodipodi.sourceforge.net/DTD/sodipodi-0.dtd"
   xmlns:inkscape="http://www.inkscape.org/namespaces/inkscape"
   width="36.124447mm"
   height="36.124447mm"
   viewBox="0 0 128.00001 128.00001"
   id="svg2"
   version="1.1"
   inkscape:version="0.91 r13725"
   sodipodi:docname="condition.svg">
  <defs
     id="defs4" />
  <sodipodi:namedview
     id="base"
     pagecolor="#ffffff"
     bordercolor="#666666"
     borderopacity="1.0"
     inkscape:pageopacity="0.0"
     inkscape:pageshadow="2"
     inkscape:zoom="2.8284271"
     inkscape:cx="0.81004476"
     inkscape:cy="38.571064"
     inkscape:document-units="px"
     inkscape:current-layer="layer1"
     showgrid="false"
     fit-margin-top="0"
     fit-margin-left="0"
     fit-margin-right="0"
     fit-margin-bottom="0"
     inkscape:window-width="1920"
     inkscape:window-height="1021"
     inkscape:window-x="1432"
     inkscape:window-y="-8"
     inkscape:window-maximized="1" />
  <metadata
     id="metadata7">
    <rdf:RDF>
      <cc:Work
         rdf:about="">
        <dc:format>image/svg+xml</dc:format>
        <dc:type
           rdf:resource="http://purl.org/dc/dcmitype/StillImage" />
        <dc:title />
      </cc:Work>
    </rdf:RDF>
  </metadata>
  <g
     inkscape:label="Layer 1"
     inkscape:groupmode="layer"
     id="layer1"
     transform="translate(-645.27795,-456.21154)">
    <ellipse
       style="opacity:1;fill:#f2f2f2;fill-opacity:1;stroke:#2a9bdc;stroke-width:8.598;stroke-miterlimit:4;stroke-dasharray:none;stroke-opacity:1"
       id="path4139"
       cx="709.27795"
       cy="520.21155"
       rx="59.700951"
       ry="59.700947" />
    <g
       id="g4140"
       transform="matrix(0.97826029,0,0,0.97826029,16.409781,11.360071)">
      <path
         inkscape:connector-curvature="0"
         id="path5672"
         d="m 683.20625,497.90561 -4.51796,-2.42759 -0.005,-4.13771 c -0.003,-2.41686 0.10385,-4.02059 0.25732,-3.85599 0.1445,0.15495 2.16347,2.95126 4.4866,6.21403 2.32314,3.26278 4.35688,6.09919 4.51942,6.30306 0.53511,0.67132 -0.17143,0.3589 -4.73997,-2.0958 z"
         style="opacity:0.87000002;fill:#666666;fill-opacity:1;stroke:#000000;stroke-width:0;stroke-miterlimit:4;stroke-dasharray:none;stroke-opacity:0.52941165" />
      <path
         inkscape:connector-curvature="0"
         id="path5674"
         d="m 683.86822,505.98784 c -4.56787,-1.29141 -9.14781,-2.56762 -10.17765,-2.83609 -1.02984,-0.26846 -1.76396,-0.58449 -1.63138,-0.70228 0.42667,-0.37912 7.78121,-1.85317 8.28378,-1.66029 0.46851,0.17979 10.92843,6.39055 12.11891,7.19587 0.98457,0.66596 0.098,0.45991 -8.59366,-1.99721 z"
         style="opacity:0.87000002;fill:#666666;fill-opacity:1;stroke:#000000;stroke-width:0;stroke-miterlimit:4;stroke-dasharray:none;stroke-opacity:0.52941165" />
      <path
         id="path5963"
         d="m 735.08655,495.86746 c -1.18619,-0.0117 -2.40968,0.0361 -3.24767,0.1475 -1.04592,0.1385 -3.94469,0.75178 -6.42158,1.35834 -4.94179,1.21212 -7.60159,1.60114 -10.25916,1.51574 -2.40851,-0.0797 -4.40212,-0.40849 -8.56485,-1.40265 2.26929,3.91723 3.97028,6.99074 3.97028,7.21298 0,0.49717 -1.93951,1.19526 -9.85114,3.5476 -2.41041,0.71672 -4.31227,1.50139 -4.2259,1.74502 0.0863,0.24371 2.80581,2.58145 6.04308,5.19429 5.5533,4.48252 5.79252,4.7478 4.2259,4.69947 -0.91325,-0.0285 -9.97718,-1.09047 -20.14142,-2.36115 -1.20008,-0.15 -1.95639,-0.25789 -3.09691,-0.40311 0.0661,0.22895 0.15018,0.47334 0.22776,0.62267 0.10375,0.19967 0.35509,0.79961 0.56203,1.33217 0.78584,2.03446 0.99429,2.54337 1.07819,2.60042 0.0453,0.0327 0.17441,0.30588 0.28347,0.60463 0.10908,0.29967 0.34749,0.7908 0.52926,1.08963 0.18291,0.29783 0.33099,0.58215 0.33099,0.63417 0,0.0503 0.19277,0.43827 0.42768,0.86026 0.23546,0.42065 0.42931,0.80422 0.42931,0.85204 0,0.0461 0.18851,0.42652 0.41783,0.84382 0.22988,0.4178 0.46349,0.91982 0.51943,1.11429 0.056,0.1959 0.15409,0.41369 0.22121,0.48501 0.20722,0.22525 1.2231,2.98508 1.33217,3.61957 0.056,0.33391 0.17643,0.68022 0.26872,0.7751 0.12026,0.12233 0.19651,2.44018 0.27201,8.28793 0.0587,4.46542 0.16487,8.58073 0.23759,9.14652 0.40808,3.17872 1.25078,7.66602 1.78606,9.49888 0.11689,0.39926 0.3208,1.13486 0.45224,1.63369 0.132,0.49943 0.28981,0.9627 0.34574,1.02898 0.0587,0.0663 0.18347,0.42132 0.27856,0.78652 0.3093,1.18368 1.13795,3.05261 1.95646,4.41599 0.87836,1.46355 1.08911,1.72816 2.06625,2.59547 0.86354,0.7668 1.19322,0.94215 2.28418,1.20767 l 0.002,0 c 0.49801,0.11343 1.00168,0.21007 1.11915,0.16225 0.11744,-0.0378 0.48649,-0.11006 0.81928,-0.16711 1.16143,-0.19632 2.00136,-0.77528 2.61353,-1.80249 0.45054,-0.75691 1.10595,-2.9574 1.29612,-4.34544 0.19017,-1.39812 0.0814,-6.35297 -0.24415,-11.14893 -0.39907,-5.88475 -0.25486,-8.23206 0.66691,-10.88349 0.69747,-2.00609 1.90246,-3.71311 3.3771,-4.78295 0.64938,-0.4714 2.37484,-1.26833 2.7479,-1.26833 0.14654,0 0.30331,-0.0461 0.34246,-0.10318 0.15858,-0.21822 2.40594,-0.4137 3.98994,-0.34741 1.57612,0.0671 3.52622,0.48466 4.08499,0.87829 0.11802,0.0806 0.40741,0.23164 0.64233,0.33592 0.23547,0.10294 0.75049,0.44926 1.14536,0.77175 1.84963,1.50517 2.83352,3.29633 3.56064,6.48553 0.33951,1.49853 0.395,1.92413 0.36703,4.2341 -0.006,1.4128 -0.0726,3.08576 -0.14255,3.71791 -0.41949,3.70331 -0.60333,7.08404 -0.51943,9.49887 0.0904,2.64388 0.11245,2.80664 0.69968,4.91408 0.6091,2.18573 1.60602,3.43409 2.97893,3.73763 0.33811,0.0713 0.80722,0.17576 1.04214,0.22777 0.23554,0.052 0.58911,0.052 0.78488,0 0.19632,-0.052 0.62376,-0.15159 0.94874,-0.22291 1.66895,-0.36327 3.62145,-2.588 4.99766,-5.69238 1.0325,-2.32893 2.40307,-7.1295 2.96911,-10.40502 0.21086,-1.22823 0.27269,-1.53218 0.4293,-2.17767 0.0397,-0.16645 0.17942,-1.31028 0.30806,-2.54145 0.17618,-1.67354 0.24268,-4.006 0.28184,-9.24157 0.0464,-6.8612 0.0864,-7.56148 0.54564,-9.4513 0.18401,-0.7574 1.42302,-3.79332 1.92697,-4.72238 2.36896,-4.36482 4.34876,-9.06379 5.24837,-12.45979 0.49276,-1.866 0.52415,-5.14638 0.0672,-7.17858 -0.69575,-3.09246 -1.58427,-5.05309 -3.10675,-6.86238 -1.77998,-2.11508 -4.60312,-3.66689 -7.70624,-4.23738 -0.68628,-0.12584 -1.83534,-0.19783 -3.02153,-0.20974 z m -51.6431,8.19456 c -0.009,0.0202 -0.0167,0.0394 -0.0246,0.0587 0.0101,-0.0101 0.0491,-0.0319 0.0491,-0.0378 -3e-5,0 -0.0213,-0.016 -0.0246,-0.0209 z"
         style="opacity:1;fill:#666666;fill-opacity:1;stroke:#666666;stroke-width:0.01314047;stroke-miterlimit:4;stroke-dasharray:none;stroke-opacity:1"
         inkscape:connector-curvature="0" />
      <path
         inkscape:connector-curvature="0"
         id="path5678"
         d="m 695.47879,500.15141 c -0.44787,-3.54919 -0.88513,-6.86557 -0.97168,-7.3697 l -0.15735,-0.91672 4.10258,-1.43083 c 2.25642,-0.78694 4.28483,-1.49577 4.50758,-1.57522 0.3053,-0.1089 0.3506,0.031 0.18399,0.5678 -0.41379,1.33343 -6.4559,16.72847 -6.65379,16.95356 -0.10836,0.12324 -0.56346,-2.67979 -1.01133,-6.22889 z"
         style="opacity:0.87000002;fill:#666666;fill-opacity:1;stroke:#000000;stroke-width:0;stroke-miterlimit:4;stroke-dasharray:none;stroke-opacity:0.52941165" />
      <path
         inkscape:connector-curvature="0"
         id="path5610"
         d="m 696.48647,467.93663 a 33.578804,33.578791 0 0 0 -33.57718,33.58051 33.578804,33.578791 0 0 0 6.81086,20.20139 l -11.94607,13.01014 c -0.72554,0.79013 -0.69144,2.02901 0.0771,2.77743 l 5.05322,4.92214 c 0.76849,0.74851 1.97158,0.71462 2.69714,-0.0755 l 12.02475,-13.09538 a 33.578804,33.578791 0 0 0 18.86022,5.83701 33.578804,33.578791 0 0 0 33.58049,-33.57731 33.578804,33.578791 0 0 0 -33.58049,-33.58043 z m 0.40499,6.9863 a 26.863043,26.86303 0 0 1 26.86143,26.86142 26.863043,26.86303 0 0 1 -26.86143,26.86318 26.863043,26.86303 0 0 1 -26.86143,-26.86318 26.863043,26.86303 0 0 1 26.86143,-26.86142 z"
         style="opacity:1;fill:#4d4d4d;fill-opacity:1;stroke:#000000;stroke-width:0;stroke-miterlimit:4;stroke-dasharray:none;stroke-opacity:0.52941165" />
      <path
         inkscape:connector-curvature="0"
         id="path5628"
         d="m 692.96514,528.26706 c -9.26431,-1.42916 -17.38988,-7.87349 -20.84835,-16.53458 -1.49766,-3.75071 -1.72484,-5.07558 -1.71906,-10.02532 0.003,-3.95205 0.0968,-4.9353 0.63989,-6.82639 2.69961,-9.39979 9.77013,-16.4225 19.101,-18.97216 2.04272,-0.55815 2.98014,-0.64179 6.97688,-0.622 4.16742,0.0202 4.85642,0.0951 7.07445,0.77084 9.65736,2.93985 16.61476,10.39731 18.8392,20.19308 0.6642,2.92509 0.66564,8.43743 0.003,11.19305 -2.44953,10.18455 -9.98137,17.90543 -19.79023,20.28697 -2.74901,0.66755 -7.73884,0.92805 -10.27669,0.53651 l 0,0 z"
         style="opacity:0.5;fill:#ffffff;fill-opacity:1;stroke:#000000;stroke-width:0;stroke-miterlimit:4;stroke-dasharray:none;stroke-opacity:0.52941165" />
    </g>
  </g>
</svg>
