<?xml version="1.0" encoding="UTF-8" standalone="no"?>
<!-- Created with Inkscape (http://www.inkscape.org/) -->

<svg
   xmlns:dc="http://purl.org/dc/elements/1.1/"
   xmlns:cc="http://creativecommons.org/ns#"
   xmlns:rdf="http://www.w3.org/1999/02/22-rdf-syntax-ns#"
   xmlns:svg="http://www.w3.org/2000/svg"
   xmlns="http://www.w3.org/2000/svg"
   xmlns:sodipodi="http://sodipodi.sourceforge.net/DTD/sodipodi-0.dtd"
   xmlns:inkscape="http://www.inkscape.org/namespaces/inkscape"
   width="26.611622mm"
   height="30.95015mm"
   viewBox="0 0 94.29315 109.66588"
   id="svg2"
   version="1.1"
   inkscape:version="0.91 r13725"
   sodipodi:docname="txplan.svg">
  <defs
     id="defs4" />
  <sodipodi:namedview
     id="base"
     pagecolor="#ffffff"
     bordercolor="#666666"
     borderopacity="1.0"
     inkscape:pageopacity="0.0"
     inkscape:pageshadow="2"
     inkscape:zoom="0.35"
     inkscape:cx="-1358.7376"
     inkscape:cy="425.02985"
     inkscape:document-units="px"
     inkscape:current-layer="layer1"
     showgrid="false"
     fit-margin-top="0"
     fit-margin-left="0"
     fit-margin-right="0"
     fit-margin-bottom="0"
     inkscape:window-width="1920"
     inkscape:window-height="1021"
     inkscape:window-x="1432"
     inkscape:window-y="-8"
     inkscape:window-maximized="1" />
  <metadata
     id="metadata7">
    <rdf:RDF>
      <cc:Work
         rdf:about="">
        <dc:format>image/svg+xml</dc:format>
        <dc:type
           rdf:resource="http://purl.org/dc/dcmitype/StillImage" />
        <dc:title></dc:title>
      </cc:Work>
    </rdf:RDF>
  </metadata>
  <g
     inkscape:label="Layer 1"
     inkscape:groupmode="layer"
     id="layer1"
     transform="translate(-1246.5947,-847.72619)">
    <rect
       style="opacity:1;fill:#666666;fill-opacity:1;stroke:#000000;stroke-width:0.10763244;stroke-miterlimit:4;stroke-dasharray:none;stroke-opacity:0.52941165"
       id="rect5734"
       width="94.185524"
       height="104.01587"
       x="1246.6486"
       y="853.32239"
       ry="17.06282" />
    <rect
       style="opacity:0.69263994;fill:#ececec;fill-opacity:1;stroke:#000000;stroke-width:0;stroke-miterlimit:4;stroke-dasharray:none;stroke-opacity:0.52941165"
       id="rect5734-8"
       width="60.246696"
       height="91.00161"
       x="1263.6366"
       y="858.57739"
       ry="0" />
    <path
       d="m 1274.099,882.43986 a 3.1766481,3.1766481 0 1 0 0.5927,6.32554 l 37.9534,0 a 3.1630959,3.1630959 0 1 0 0,-6.32554 l -37.9534,0 a 3.1630959,3.1630959 0 0 0 -0.5927,0 z"
       id="path3601-2"
       style="color:#000000;font-style:normal;font-variant:normal;font-weight:normal;font-stretch:normal;font-size:medium;line-height:normal;font-family:Sans;-inkscape-font-specification:Sans;text-indent:0;text-align:start;text-decoration:none;text-decoration-line:none;letter-spacing:normal;word-spacing:normal;text-transform:none;direction:ltr;block-progression:tb;writing-mode:lr-tb;baseline-shift:baseline;text-anchor:start;display:inline;overflow:visible;visibility:visible;fill:#666666;fill-opacity:1;stroke:none;stroke-width:1;marker:none;enable-background:accumulate"
       inkscape:connector-curvature="0" />
    <path
       d="m 1274.0595,897.09096 a 3.1331723,3.1766481 0 1 0 0.5846,6.32556 l 31.1949,0 a 3.1198057,3.1630959 0 1 0 0,-6.32556 l -31.1949,0 a 3.1198057,3.1630959 0 0 0 -0.5846,0 z"
       id="path3601-2-3"
       style="color:#000000;font-style:normal;font-variant:normal;font-weight:normal;font-stretch:normal;font-size:medium;line-height:normal;font-family:Sans;-inkscape-font-specification:Sans;text-indent:0;text-align:start;text-decoration:none;text-decoration-line:none;letter-spacing:normal;word-spacing:normal;text-transform:none;direction:ltr;block-progression:tb;writing-mode:lr-tb;baseline-shift:baseline;text-anchor:start;display:inline;overflow:visible;visibility:visible;fill:#666666;fill-opacity:1;stroke:none;stroke-width:1;marker:none;enable-background:accumulate"
       inkscape:connector-curvature="0" />
    <path
       d="m 1273.9292,911.74208 a 2.9900689,3.1766481 0 1 0 0.5579,6.32555 l 35.7242,0 a 2.9773127,3.1630959 0 1 0 0,-6.32555 l -35.7242,0 a 2.9773127,3.1630959 0 0 0 -0.5579,0 z"
       id="path3601-2-3-2"
       style="color:#000000;font-style:normal;font-variant:normal;font-weight:normal;font-stretch:normal;font-size:medium;line-height:normal;font-family:Sans;-inkscape-font-specification:Sans;text-indent:0;text-align:start;text-decoration:none;text-decoration-line:none;letter-spacing:normal;word-spacing:normal;text-transform:none;direction:ltr;block-progression:tb;writing-mode:lr-tb;baseline-shift:baseline;text-anchor:start;display:inline;overflow:visible;visibility:visible;fill:#666666;fill-opacity:1;stroke:none;stroke-width:1;marker:none;enable-background:accumulate"
       inkscape:connector-curvature="0" />
    <path
       d="m 1274.9968,926.3932 a 4.1631815,3.1766481 0 1 0 0.7768,6.32555 l 24.87,0 a 4.1454204,3.1630959 0 1 0 0,-6.32555 l -24.87,0 a 4.1454204,3.1630959 0 0 0 -0.7768,0 z"
       id="path3601-2-3-3"
       style="color:#000000;font-style:normal;font-variant:normal;font-weight:normal;font-stretch:normal;font-size:medium;line-height:normal;font-family:Sans;-inkscape-font-specification:Sans;text-indent:0;text-align:start;text-decoration:none;text-decoration-line:none;letter-spacing:normal;word-spacing:normal;text-transform:none;direction:ltr;block-progression:tb;writing-mode:lr-tb;baseline-shift:baseline;text-anchor:start;display:inline;overflow:visible;visibility:visible;fill:#666666;fill-opacity:1;stroke:none;stroke-width:1;marker:none;enable-background:accumulate"
       inkscape:connector-curvature="0" />
    <path
       d="m 1264.2709,858.59207 c -7.1689,0 -13.1456,5.70888 -13.1456,12.55663 l 0,69.06152 c 0,6.84776 5.9767,12.55664 13.1456,12.55664 l 59.1553,0 c 7.169,0 13.1457,-5.70888 13.1457,-12.55664 l 0,-69.06152 c 0,-6.84775 -5.9767,-12.55663 -13.1457,-12.55663 0,27.20603 0,54.41211 0,81.61815 l -59.1553,0 c 0,-27.20604 0,-54.41212 0,-81.61815 z"
       sodipodi:nodetypes="csssssscccc"
       id="rect10788"
       inkscape:connector-curvature="0"
       style="color:#000000;font-style:normal;font-variant:normal;font-weight:normal;font-stretch:normal;font-size:medium;line-height:normal;font-family:Sans;-inkscape-font-specification:Sans;text-indent:0;text-align:start;text-decoration:none;text-decoration-line:none;letter-spacing:normal;word-spacing:normal;text-transform:none;direction:ltr;block-progression:tb;writing-mode:lr-tb;text-anchor:start;display:inline;overflow:visible;visibility:visible;opacity:0.47999998;fill:#b3b3b3;fill-opacity:1;stroke:none;stroke-width:2;marker:none;enable-background:new" />
    <path
       d="m 1274.3726,847.78828 a 3.4998052,3.4998052 0 0 0 -2.8433,3.49947 l 0,20.99674 a 3.4998052,3.4998052 0 1 0 6.9989,0 l 0,-20.99674 a 3.4998052,3.4998052 0 0 0 -4.1556,-3.49947 z"
       id="path3601-2-3-3-9"
       style="color:#000000;font-style:normal;font-variant:normal;font-weight:normal;font-stretch:normal;font-size:medium;line-height:normal;font-family:Sans;-inkscape-font-specification:Sans;text-indent:0;text-align:start;text-decoration:none;text-decoration-line:none;letter-spacing:normal;word-spacing:normal;text-transform:none;direction:ltr;block-progression:tb;writing-mode:lr-tb;baseline-shift:baseline;text-anchor:start;display:inline;overflow:visible;visibility:visible;fill:#808080;fill-opacity:1;stroke:none;stroke-width:1;marker:none;enable-background:accumulate"
       inkscape:connector-curvature="0" />
    <path
       d="m 1287.0238,847.78836 a 3.4997997,3.4997997 0 0 0 -2.8433,3.49947 l 0,20.99671 a 3.4997997,3.4997997 0 1 0 6.9989,0 l 0,-20.99671 a 3.4997997,3.4997997 0 0 0 -4.1556,-3.49947 z"
       id="path3601-2-3-3-9-3"
       style="color:#000000;font-style:normal;font-variant:normal;font-weight:normal;font-stretch:normal;font-size:medium;line-height:normal;font-family:Sans;-inkscape-font-specification:Sans;text-indent:0;text-align:start;text-decoration:none;text-decoration-line:none;letter-spacing:normal;word-spacing:normal;text-transform:none;direction:ltr;block-progression:tb;writing-mode:lr-tb;baseline-shift:baseline;text-anchor:start;display:inline;overflow:visible;visibility:visible;fill:#808080;fill-opacity:1;stroke:none;stroke-width:1;marker:none;enable-background:accumulate"
       inkscape:connector-curvature="0" />
    <path
       d="m 1299.6749,847.78828 a 3.4998052,3.4998052 0 0 0 -2.8433,3.49947 l 0,20.99674 a 3.4998052,3.4998052 0 1 0 6.9989,0 l 0,-20.99674 a 3.4998052,3.4998052 0 0 0 -4.1556,-3.49947 z"
       id="path3601-2-3-3-9-3-3"
       style="color:#000000;font-style:normal;font-variant:normal;font-weight:normal;font-stretch:normal;font-size:medium;line-height:normal;font-family:Sans;-inkscape-font-specification:Sans;text-indent:0;text-align:start;text-decoration:none;text-decoration-line:none;letter-spacing:normal;word-spacing:normal;text-transform:none;direction:ltr;block-progression:tb;writing-mode:lr-tb;baseline-shift:baseline;text-anchor:start;display:inline;overflow:visible;visibility:visible;fill:#808080;fill-opacity:1;stroke:none;stroke-width:1;marker:none;enable-background:accumulate"
       inkscape:connector-curvature="0" />
    <path
       d="m 1312.326,847.78828 a 3.4998052,3.4998052 0 0 0 -2.8433,3.49947 l 0,20.99674 a 3.4998052,3.4998052 0 1 0 6.9989,0 l 0,-20.99674 a 3.4998052,3.4998052 0 0 0 -4.1556,-3.49947 z"
       id="path3601-2-3-3-9-3-3-7"
       style="color:#000000;font-style:normal;font-variant:normal;font-weight:normal;font-stretch:normal;font-size:medium;line-height:normal;font-family:Sans;-inkscape-font-specification:Sans;text-indent:0;text-align:start;text-decoration:none;text-decoration-line:none;letter-spacing:normal;word-spacing:normal;text-transform:none;direction:ltr;block-progression:tb;writing-mode:lr-tb;baseline-shift:baseline;text-anchor:start;display:inline;overflow:visible;visibility:visible;fill:#808080;fill-opacity:1;stroke:none;stroke-width:1;marker:none;enable-background:accumulate"
       inkscape:connector-curvature="0" />
  </g>
</svg>
