<?xml version="1.0" encoding="utf-8"?>
<svg viewBox="0 0 72 72" xmlns="http://www.w3.org/2000/svg">
  <defs>
    <style>.cls-1{isolation:isolate;}.cls-2{stroke:#dcddde;stroke-width:1.06px;fill:url(#New_Gradient_Swatch_2);}.cls-2,.cls-4,.cls-6,.cls-7,.cls-8,.cls-9{stroke-miterlimit:10;}.cls-3{fill:url(#New_Gradient_Swatch_2-2);}.cls-4,.cls-6,.cls-7,.cls-8,.cls-9{fill:none;}.cls-4{stroke:#cbd4d7;}.cls-4,.cls-6,.cls-8{stroke-width:1.3px;}.cls-5{mix-blend-mode:multiply;}.cls-6,.cls-7{stroke:#009cb6;}.cls-7,.cls-9{stroke-width:2px;}.cls-8,.cls-9{stroke:#2fafcc;}</style>
  </defs>
  <title>DrawTypeButtonIcons_r2</title>
  <g id="icon">
    <path class="cls-4" d="M44.36,50.6c.19,6.68-2.63,10.37-1.47,11,1.77,1,7.88-2.36,9.85-8.27,3.08-9.24-.59-14.18-.59-18.91,0-2.44,1.77-2.56,1.77-6.7V15.53a5.36,5.36,0,0,0-5.54-5.32H39.9c-2,0-2.75,1.63-3.9,1.63s-1.93-1.63-3.9-1.63H23.62a5.36,5.36,0,0,0-5.54,5.32V27.74c0,4.14,1.77,4.26,1.77,6.7,0,4.73-3.67,9.66-.59,18.91,2,5.91,8.08,9.26,9.85,8.27,1.15-.64-1.66-4.34-1.47-11,.17-5.8,4.07-9.44,8.36-9.44S44.19,44.81,44.36,50.6Z"/>
    <g class="cls-5">
      <line class="cls-6" x1="30.08" y1="41.92" x2="35.36" y2="36.64"/>
      <line class="cls-6" x1="34.44" y1="45.15" x2="39.16" y2="40.43"/>
      <line class="cls-6" x1="39.62" y1="47.56" x2="42.96" y2="44.23"/>
      <line class="cls-6" x1="26.85" y1="37.56" x2="31.57" y2="32.84"/>
      <line class="cls-6" x1="24.44" y1="32.38" x2="27.77" y2="29.05"/>
      <line class="cls-6" x1="21.05" y1="10.34" x2="16.34" y2="15.06"/>
      <line class="cls-6" x1="23.47" y1="15.52" x2="20.13" y2="18.86"/>
      <path class="cls-7" d="M64.63,52.48c-8.71-8.71-23.93.37-34.7-10.4s-3.1-27.4-10.4-34.7"/>
      <line class="cls-6" x1="61.66" y1="50.95" x2="56.94" y2="55.66"/>
      <line class="cls-6" x1="56.48" y1="48.53" x2="53.14" y2="51.87"/>
    </g>
    <g class="cls-5">
      <line class="cls-8" x1="41.92" y1="30.08" x2="36.64" y2="35.36"/>
      <line class="cls-8" x1="45.15" y1="34.44" x2="40.43" y2="39.16"/>
      <line class="cls-8" x1="47.56" y1="39.62" x2="44.23" y2="42.96"/>
      <line class="cls-8" x1="37.56" y1="26.85" x2="32.84" y2="31.57"/>
      <line class="cls-8" x1="32.38" y1="24.44" x2="29.05" y2="27.77"/>
      <line class="cls-8" x1="10.34" y1="21.05" x2="15.06" y2="16.34"/>
      <line class="cls-8" x1="15.52" y1="23.47" x2="18.86" y2="20.13"/>
      <path class="cls-9" d="M52.48,64.63c-8.71-8.71.37-23.93-10.4-34.7s-27.4-3.1-34.7-10.4"/>
      <line class="cls-8" x1="50.95" y1="61.66" x2="55.66" y2="56.94"/>
      <line class="cls-8" x1="48.53" y1="56.48" x2="51.87" y2="53.14"/>
    </g>
  </g>
</svg>