<?xml version="1.0" encoding="utf-8"?>
<svg id="D0120_-_periodic_oral_eval" viewBox="0 0 72 72" xmlns="http://www.w3.org/2000/svg">
  <defs>
    <style>.cls-1{stroke:#dcddde;stroke-width:1.06px;fill:url(#New_Gradient_Swatch_2);}.cls-1,.cls-6{stroke-miterlimit:10;}.cls-2{fill:url(#New_Gradient_Swatch_2-2);}.cls-3{fill:#eaeeef;}.cls-4{fill:#d8dee0;}.cls-5{fill:#fff;}.cls-6{fill:none;stroke:#b1bfc4;stroke-width:1.4px;}</style>
  </defs>
  <title>NewButtonIcons_FINAL</title>
  <path class="cls-3" d="M50.91,37c0-2,1.46-2.11,1.46-5.52V21.42A4.42,4.42,0,0,0,47.8,17h-7c-1.63,0-2.27,1.34-3.22,1.34S36,17.1,34.45,17L30.09,20.4l1.21,2L28.17,25,27.87,28l-5.08,2.14v1.36c0,3.41,1.46,3.51,1.46,5.52,0,3.9-3,8-.49,15.58,1.63,4.87,6.67,7.63,8.13,6.82,1-.53-1.37-3.57-1.21-9.08.14-4.78,3.36-7.78,6.9-7.78s6.76,3,6.9,7.78c.16,5.5-2.17,8.55-1.21,9.08,1.46.81,6.5-1.95,8.13-6.82C53.94,45,50.91,40.9,50.91,37Z"/>
  <path class="cls-4" d="M22.79,31.48c0,3.41,1.46,3.51,1.46,5.52,0,3.9-3,8-.49,15.58a11,11,0,0,0,6.68,6.83,11.37,11.37,0,0,1-4.49-4.77,17.18,17.18,0,0,1-1.83-8.78c0-2.65,1.49-6.13,1.66-8.62S24.12,34,24.12,31.36v-1.8l-1.33.56Z"/>
  <path class="cls-5" d="M50.91,37c0-2,1.46-2.11,1.46-5.52V21.42A4.42,4.42,0,0,0,47.8,17h-7c-1.63,0-2.27,1.34-3.22,1.34S36,17.1,34.45,17L30.09,20.4l0,0h4.54c1.17,0,1.41.67,2.93.67s1.56-.67,3.16-.67h3.77c3.36,0,4,1.39,4,4.11v6.4c0,4.16-1.44,3.76-1.44,5.92s1,2.4,1.6,8.56c.43,4.09-1.92,10.4-5.29,13a4.17,4.17,0,0,0-.32.27c-.05.38,0,.64.2.76,1.46.81,6.5-1.95,8.13-6.82C53.94,45,50.91,40.9,50.91,37Z"/>
  <path class="cls-5" d="M38.82,42.67v-.59s-7.38-1.43-10,4.81c-2.18,5.19.83,10.48,2.89,12.57l.16-.06c1-.53-1.37-3.57-1.21-9.08.14-4.78,3.36-7.78,6.9-7.78A6.24,6.24,0,0,1,38.82,42.67Z"/>
  <path class="cls-4" d="M43.32,58.58a28.29,28.29,0,0,0,1.82-4.2,11.43,11.43,0,0,0-.56-8.67,7.11,7.11,0,0,0-6.09-3.64l.08.56c3.13.5,5.79,3.37,5.91,7.69a23.76,23.76,0,0,1-1.33,7.86Z"/>
  <path class="cls-6" d="M50.91,37c0-2,1.46-2.11,1.46-5.52V21.42A4.42,4.42,0,0,0,47.8,17h-7c-1.63,0-2.27,1.34-3.22,1.34S36,17.1,34.45,17L30.09,20.4l1.21,2L28.17,25,27.87,28l-5.08,2.14v1.36c0,3.41,1.46,3.51,1.46,5.52,0,3.9-3,8-.49,15.58,1.63,4.87,6.67,7.63,8.13,6.82,1-.53-1.37-3.57-1.21-9.08.14-4.78,3.36-7.78,6.9-7.78s6.76,3,6.9,7.78c.16,5.5-2.17,8.55-1.21,9.08,1.46.81,6.5-1.95,8.13-6.82C53.94,45,50.91,40.9,50.91,37Z"/>
  <path class="cls-3" d="M22.16,22l3.14-2.63-1.21-2L28.45,14H21.36a4.42,4.42,0,0,0-4.57,4.38v8.7L21.86,25Z"/>
  <path class="cls-4" d="M19.05,14.62a4.26,4.26,0,0,0-2.27,3.8v8.7l1.33-.56v-7.9A10,10,0,0,1,19.05,14.62Z"/>
  <path class="cls-5" d="M28.45,14H21.36a4.44,4.44,0,0,0-4.56,4,4.06,4.06,0,0,1,2.31-.62h5l0,0Z"/>
  <path class="cls-6" d="M22.16,22l3.14-2.63-1.21-2L28.45,14H21.36a4.42,4.42,0,0,0-4.57,4.38v8.7L21.86,25Z"/>
</svg>