<?xml version="1.0" encoding="utf-8"?>
<svg viewBox="0 0 72 72" xmlns="http://www.w3.org/2000/svg">
  <defs>
    <style>.cls-1{isolation:isolate;}.cls-2{stroke:#dcddde;stroke-width:1.06px;fill:url(#New_Gradient_Swatch_2);}.cls-2,.cls-7{stroke-miterlimit:10;}.cls-3{fill:url(#New_Gradient_Swatch_2-2);}.cls-4{fill:#eaeeef;}.cls-5{fill:#fff;}.cls-6{fill:#d8dee0;}.cls-7{fill:none;stroke:#b1bfc4;stroke-width:1.3px;}.cls-8{fill:#c42837;mix-blend-mode:multiply;}</style>
  </defs>
  <title>DrawTypeButtonIcons_r2</title>
  <g id="icon">
    <path class="cls-4" d="M44.36,21.4c.19-6.68-2.63-10.37-1.47-11,1.77-1,7.88,2.36,9.85,8.27,3.08,9.24-.59,14.18-.59,18.91,0,2.44,1.77,2.56,1.77,6.7V56.47a5.36,5.36,0,0,1-5.54,5.32H39.9c-2,0-2.75-1.63-3.9-1.63s-1.93,1.63-3.9,1.63H23.62a5.36,5.36,0,0,1-5.54-5.32V44.26c0-4.14,1.77-4.26,1.77-6.7,0-4.73-3.67-9.66-.59-18.91,2-5.91,8.08-9.26,9.85-8.27,1.15.64-1.66,4.34-1.47,11,.17,5.8,4.07,9.44,8.36,9.44S44.19,27.19,44.36,21.4Z"/>
    <path class="cls-5" d="M37.51,30.68l0,.72s-8.94,1.73-12.11-5.84c-2.64-6.3,1-12.72,3.5-15.25a1.28,1.28,0,0,1,.19.07c1.15.64-1.66,4.34-1.47,11,.17,5.8,4.07,9.44,8.36,9.44A7.55,7.55,0,0,0,37.51,30.68Z"/>
    <path class="cls-6" d="M21.9,16.15a20.88,20.88,0,0,0-2.21,10.66c0,3.22,1.81,7.44,2,10.46s-2,3.92-2,7.14V56.17a12.13,12.13,0,0,0,1.13,4.91,5.16,5.16,0,0,1-2.75-4.61V44.26c0-4.14,1.77-4.26,1.77-6.7,0-4.73-3.67-9.66-.59-18.91,1.53-4.58,5.54-7.61,8.09-8.29A13.79,13.79,0,0,0,21.9,16.15Z"/>
    <path class="cls-5" d="M52.74,18.66c3.08,9.24-.59,14.18-.59,18.91,0,2.44,1.77,2.56,1.77,6.7V56.47a5.36,5.36,0,0,1-5.54,5.32H39.9c-2,0-2.75-1.63-3.9-1.63s-1.93,1.63-3.9,1.63H23.62a5.38,5.38,0,0,1-5.52-4.87,4.91,4.91,0,0,0,2.8.76H32.45c1.42,0,1.7-.82,3.55-.82s1.89.81,3.83.81h4.56c4.08,0,4.85-1.69,4.85-5V44.92c0-5-1.75-4.56-1.75-7.18s1.16-2.91,1.94-10.38c.52-5-2.33-12.62-6.41-15.72a5.05,5.05,0,0,1-.39-.33c-.07-.46,0-.77.25-.92C44.66,9.4,50.77,12.75,52.74,18.66Z"/>
    <path class="cls-6" d="M43,11.38a34.36,34.36,0,0,1,2.21,5.09A13.89,13.89,0,0,1,44.48,27a8.62,8.62,0,0,1-7.38,4.41l.1-.68c3.79-.61,7-4.08,7.16-9.33a28.87,28.87,0,0,0-1.61-9.53Z"/>
    <path class="cls-7" d="M44.36,21.4c.19-6.68-2.63-10.37-1.47-11,1.77-1,7.88,2.36,9.85,8.27,3.08,9.24-.59,14.18-.59,18.91,0,2.44,1.77,2.56,1.77,6.7V56.47a5.36,5.36,0,0,1-5.54,5.32H39.9c-2,0-2.75-1.63-3.9-1.63s-1.93,1.63-3.9,1.63H23.62a5.36,5.36,0,0,1-5.54-5.32V44.26c0-4.14,1.77-4.26,1.77-6.7,0-4.73-3.67-9.66-.59-18.91,2-5.91,8.08-9.26,9.85-8.27,1.15.64-1.66,4.34-1.47,11,.17,5.8,4.07,9.44,8.36,9.44S44.19,27.19,44.36,21.4Z"/>
    <path class="cls-8" d="M50.78,39S44.16,33.75,36,33.75,21.22,39,21.22,39,27.84,44.17,36,44.17,50.78,39,50.78,39Z"/>
  </g>
</svg>