<?xml version="1.0" encoding="utf-8"?>
<svg viewBox="0 0 72 72" xmlns="http://www.w3.org/2000/svg">
  <defs>
    <style>.cls-1{isolation:isolate;}.cls-2{stroke:#dcddde;stroke-width:1.06px;fill:url(#New_Gradient_Swatch_2);}.cls-2,.cls-7{stroke-miterlimit:10;}.cls-3{fill:url(#New_Gradient_Swatch_2-2);}.cls-4{fill:#eaeeef;}.cls-5{fill:#fff;}.cls-6{fill:#d8dee0;}.cls-7{fill:none;stroke:#b1bfc4;stroke-width:1.3px;}.cls-8,.cls-9{mix-blend-mode:multiply;}.cls-8{font-size:14px;font-family:ProximaNova-Bold, Proxima Nova;font-weight:700;}.cls-10,.cls-8{fill:#797979;}</style>
  </defs>
  <title>DrawTypeButtonIcons_r2</title>
  <path class="cls-4" d="M 44.36 50.6 C 44.55 57.28 41.73 60.97 42.89 61.6 C 44.66 62.6 50.77 59.24 52.74 53.33 C 55.82 44.09 52.15 39.15 52.15 34.42 C 52.15 31.98 53.92 31.86 53.92 27.72 L 53.92 15.53 C 53.899 12.514 51.395 10.109 48.38 10.21 L 39.9 10.21 C 37.9 10.21 37.15 11.84 36 11.84 C 34.85 11.84 34.07 10.21 32.1 10.21 L 23.62 10.21 C 20.605 10.109 18.101 12.514 18.08 15.53 L 18.08 27.74 C 18.08 31.88 19.85 32 19.85 34.44 C 19.85 39.17 16.18 44.1 19.26 53.35 C 21.26 59.26 27.34 62.61 29.11 61.62 C 30.26 60.98 27.45 57.28 27.64 50.62 C 27.81 44.82 31.71 41.18 36 41.18 C 40.29 41.18 44.19 44.81 44.36 50.6 Z"/>
  <path class="cls-5" d="M 37.51 41.32 L 37.51 40.6 C 37.51 40.6 28.57 38.87 25.4 46.44 C 22.76 52.74 26.4 59.16 28.9 61.69 C 28.965 61.672 29.029 61.648 29.09 61.62 C 30.24 60.98 27.43 57.28 27.62 50.62 C 27.79 44.82 31.69 41.18 35.98 41.18 C 36.493 41.175 37.006 41.221 37.51 41.32 Z"/>
  <path class="cls-6" d="M 21.9 55.85 C 20.234 52.555 19.471 48.876 19.69 45.19 C 19.69 41.97 21.5 37.75 21.69 34.73 C 21.88 31.71 19.69 30.81 19.69 27.59 L 19.69 15.83 C 19.719 14.132 20.104 12.46 20.82 10.92 C 19.113 11.821 18.052 13.6 18.07 15.53 L 18.07 27.74 C 18.07 31.88 19.84 32 19.84 34.44 C 19.84 39.17 16.17 44.1 19.25 53.35 C 20.78 57.93 24.79 60.96 27.34 61.64 C 24.998 60.285 23.106 58.272 21.9 55.85 Z"/>
  <path class="cls-5" d="M 52.74 53.34 C 55.82 44.1 52.15 39.16 52.15 34.43 C 52.15 31.99 53.92 31.87 53.92 27.73 L 53.92 15.53 C 53.899 12.514 51.395 10.109 48.38 10.21 L 39.9 10.21 C 37.9 10.21 37.15 11.84 36 11.84 C 34.85 11.84 34.07 10.21 32.1 10.21 L 23.62 10.21 C 20.784 10.124 18.368 12.255 18.1 15.08 C 18.935 14.55 19.911 14.286 20.9 14.32 L 32.45 14.32 C 33.87 14.32 34.15 15.14 36 15.14 C 37.85 15.14 37.89 14.33 39.83 14.33 L 44.39 14.33 C 48.47 14.33 49.24 16.02 49.24 19.33 L 49.24 27.09 C 49.24 32.09 47.49 31.65 47.49 34.27 C 47.49 36.89 48.65 37.18 49.43 44.65 C 49.95 49.65 47.1 57.27 43.02 60.37 C 42.885 60.473 42.754 60.583 42.63 60.7 C 42.56 61.16 42.63 61.47 42.88 61.62 C 44.66 62.6 50.77 59.25 52.74 53.34 Z"/>
  <path class="cls-6" d="M 43 60.62 C 43.873 58.986 44.612 57.283 45.21 55.53 C 46.362 52.061 46.099 48.277 44.48 45 C 42.981 42.321 40.17 40.641 37.1 40.59 L 37.2 41.27 C 40.99 41.88 44.2 45.35 44.36 50.6 C 44.363 53.845 43.818 57.066 42.75 60.13 Z"/>
  <path class="cls-7" d="M 44.36 50.6 C 44.55 57.28 41.73 60.97 42.89 61.6 C 44.66 62.6 50.77 59.24 52.74 53.33 C 55.82 44.09 52.15 39.15 52.15 34.42 C 52.15 31.98 53.92 31.86 53.92 27.72 L 53.92 15.53 C 53.899 12.514 51.395 10.109 48.38 10.21 L 39.9 10.21 C 37.9 10.21 37.15 11.84 36 11.84 C 34.85 11.84 34.07 10.21 32.1 10.21 L 23.62 10.21 C 20.605 10.109 18.101 12.514 18.08 15.53 L 18.08 27.74 C 18.08 31.88 19.85 32 19.85 34.44 C 19.85 39.17 16.18 44.1 19.26 53.35 C 21.26 59.26 27.34 62.61 29.11 61.62 C 30.26 60.98 27.45 57.28 27.64 50.62 C 27.81 44.82 31.71 41.18 36 41.18 C 40.29 41.18 44.19 44.81 44.36 50.6 Z"/>
  <g class="cls-9">
    <circle class="cls-10" cx="23.04" cy="50.24" r="3.68"/>
  </g>
  <g class="cls-9">
    <circle class="cls-10" cx="49.01" cy="50.24" r="3.68"/>
  </g>
</svg>