<?xml version="1.0" encoding="utf-8"?>
<svg viewBox="0 0 72 72" xmlns="http://www.w3.org/2000/svg">
  <defs>
    <style>.cls-1{stroke:#dcddde;stroke-width:1.06px;fill:url(#New_Gradient_Swatch_2);}.cls-1,.cls-6{stroke-miterlimit:10;}.cls-2{fill:url(#New_Gradient_Swatch_2-2);}.cls-3{fill:#eaeeef;}.cls-4{fill:#fff;}.cls-5{fill:#d8dee0;}.cls-6{fill:none;stroke:#b1bfc4;stroke-width:1.3px;}.cls-7{fill:#fed409;}</style>
  </defs>
  <title>DrawTypeButtonIcons_r2</title>
  <path class="cls-3" d="M 49.31 50.6 C 49.5 57.28 46.68 60.97 47.84 61.6 C 49.61 62.6 55.72 59.24 57.69 53.33 C 60.77 44.09 57.1 39.15 57.1 34.42 C 57.1 31.98 58.87 31.86 58.87 27.72 L 58.87 15.53 C 58.849 12.514 56.345 10.109 53.33 10.21 L 44.85 10.21 C 42.85 10.21 42.1 11.84 40.95 11.84 C 39.8 11.84 39 10.21 37 10.21 L 28.57 10.21 C 25.544 10.091 23.02 12.502 23 15.53 L 23 27.74 C 23 31.88 24.77 32 24.77 34.44 C 24.77 39.17 21.1 44.1 24.18 53.35 C 26.18 59.26 32.26 62.61 34.03 61.62 C 35.18 60.98 32.37 57.28 32.56 50.62 C 32.73 44.82 36.63 41.18 40.92 41.18 C 45.21 41.18 49.14 44.81 49.31 50.6 Z"/>
  <path class="cls-4" d="M 42.46 41.32 L 42.46 40.6 C 42.46 40.6 33.52 38.87 30.35 46.44 C 27.71 52.74 31.35 59.16 33.85 61.69 C 33.915 61.672 33.979 61.648 34.04 61.62 C 35.19 60.98 32.38 57.28 32.57 50.62 C 32.74 44.82 36.64 41.18 40.93 41.18 C 41.443 41.175 41.956 41.221 42.46 41.32 Z"/>
  <path class="cls-5" d="M 26.85 55.85 C 25.184 52.555 24.421 48.876 24.64 45.19 C 24.64 41.97 26.45 37.75 26.64 34.73 C 26.83 31.71 24.64 30.81 24.64 27.59 L 24.64 15.83 C 24.669 14.132 25.054 12.46 25.77 10.92 C 24.056 11.816 22.986 13.596 23 15.53 L 23 27.74 C 23 31.88 24.77 32 24.77 34.44 C 24.77 39.17 21.1 44.1 24.18 53.35 C 25.71 57.93 29.72 60.96 32.27 61.64 C 29.935 60.282 28.051 58.269 26.85 55.85 Z"/>
  <path class="cls-4" d="M 57.69 53.34 C 60.77 44.1 57.1 39.16 57.1 34.43 C 57.1 31.99 58.87 31.87 58.87 27.73 L 58.87 15.53 C 58.849 12.514 56.345 10.109 53.33 10.21 L 44.85 10.21 C 42.85 10.21 42.1 11.84 40.95 11.84 C 39.8 11.84 39 10.21 37 10.21 L 28.57 10.21 C 25.734 10.124 23.318 12.255 23.05 15.08 C 23.885 14.55 24.861 14.286 25.85 14.32 L 37.4 14.32 C 38.82 14.32 39.1 15.14 40.95 15.14 C 42.8 15.14 42.84 14.33 44.78 14.33 L 49.34 14.33 C 53.42 14.33 54.19 16.02 54.19 19.33 L 54.19 27.09 C 54.19 32.09 52.44 31.65 52.44 34.27 C 52.44 36.89 53.6 37.18 54.38 44.65 C 54.9 49.65 52.05 57.27 47.97 60.37 C 47.835 60.473 47.704 60.583 47.58 60.7 C 47.51 61.16 47.58 61.47 47.83 61.62 C 49.61 62.6 55.72 59.25 57.69 53.34 Z"/>
  <path class="cls-5" d="M 47.91 60.62 C 48.783 58.986 49.522 57.283 50.12 55.53 C 51.284 52.066 51.036 48.283 49.43 45 C 47.931 42.321 45.12 40.641 42.05 40.59 L 42.15 41.27 C 45.94 41.88 49.15 45.35 49.31 50.6 C 49.313 53.845 48.768 57.066 47.7 60.13 Z"/>
  <path class="cls-6" d="M 49.31 50.6 C 49.5 57.28 46.68 60.97 47.84 61.6 C 49.61 62.6 55.72 59.24 57.69 53.33 C 60.77 44.09 57.1 39.15 57.1 34.42 C 57.1 31.98 58.87 31.86 58.87 27.72 L 58.87 15.53 C 58.849 12.514 56.345 10.109 53.33 10.21 L 44.85 10.21 C 42.85 10.21 42.1 11.84 40.95 11.84 C 39.8 11.84 39 10.21 37 10.21 L 28.57 10.21 C 25.544 10.091 23.02 12.502 23 15.53 L 23 27.74 C 23 31.88 24.77 32 24.77 34.44 C 24.77 39.17 21.1 44.1 24.18 53.35 C 26.18 59.26 32.26 62.61 34.03 61.62 C 35.18 60.98 32.37 57.28 32.56 50.62 C 32.73 44.82 36.63 41.18 40.92 41.18 C 45.21 41.18 49.14 44.81 49.31 50.6 Z"/>
  <path class="cls-7" d="M 11 29.9 C 11 28.419 12.189 27.212 13.67 27.19 C 15.741 27.19 17.035 29.432 16 31.225 C 15.519 32.057 14.631 32.57 13.67 32.57 C 12.202 32.554 11.016 31.368 11 29.9 Z M 11.8 24.99 L 11.1 9.99 L 16.21 9.99 L 15.54 24.99 Z"/>
</svg>