<?xml version="1.0" encoding="UTF-8" standalone="no"?>
<!-- Generator: Adobe Illustrator 19.2.1, SVG Export Plug-In . SVG Version: 6.00 Build 0)  -->

<svg
   xmlns:dc="http://purl.org/dc/elements/1.1/"
   xmlns:cc="http://creativecommons.org/ns#"
   xmlns:rdf="http://www.w3.org/1999/02/22-rdf-syntax-ns#"
   xmlns:svg="http://www.w3.org/2000/svg"
   xmlns="http://www.w3.org/2000/svg"
   xmlns:sodipodi="http://sodipodi.sourceforge.net/DTD/sodipodi-0.dtd"
   xmlns:inkscape="http://www.inkscape.org/namespaces/inkscape"
   version="1.1"
   id="Layer_1"
   x="0px"
   y="0px"
   viewBox="0 0 85.14453 100.63134"
   xml:space="preserve"
   inkscape:version="0.91 r13725"
   sodipodi:docname="txplan-proposed.svg"
   width="85.144531"
   height="100.63134"><metadata
     id="metadata21"><rdf:RDF><cc:Work
         rdf:about=""><dc:format>image/svg+xml</dc:format><dc:type
           rdf:resource="http://purl.org/dc/dcmitype/StillImage" /><dc:title></dc:title></cc:Work></rdf:RDF></metadata><defs
     id="defs19" /><sodipodi:namedview
     pagecolor="#ffffff"
     bordercolor="#666666"
     borderopacity="1"
     objecttolerance="10"
     gridtolerance="10"
     guidetolerance="10"
     inkscape:pageopacity="0"
     inkscape:pageshadow="2"
     inkscape:window-width="1920"
     inkscape:window-height="1061"
     id="namedview17"
     showgrid="false"
     fit-margin-top="0"
     fit-margin-left="0"
     fit-margin-right="0"
     fit-margin-bottom="0"
     inkscape:zoom="6.5422061"
     inkscape:cx="-4.7152576"
     inkscape:cy="49.66949"
     inkscape:window-x="1912"
     inkscape:window-y="-8"
     inkscape:window-maximized="1"
     inkscape:current-layer="Layer_1" /><style
     type="text/css"
     id="style3">
	.st0{fill:#FDC010;}
	.st1{fill:#FFFFFF;}
	.st2{font-family:'Helvetica-Bold';}
	.st3{font-size:18px;}
</style><path
     style="fill:#ff9955"
     d="M 7.2695312 20.203125 C 3.2421812 20.203125 0 23.445306 0 27.472656 L 0 93.361328 C 0 97.388678 3.2421812 100.63086 7.2695312 100.63086 L 77.875 100.63086 C 81.90235 100.63086 85.144531 97.388678 85.144531 93.361328 L 85.144531 27.472656 C 85.144531 23.445306 81.90235 20.203125 77.875 20.203125 L 70.474609 20.203125 L 70.474609 31.947266 L 14.667969 31.947266 L 14.667969 20.203125 L 7.2695312 20.203125 z M 79.636719 54.103516 L 81.982422 54.103516 L 81.982422 64.183594 C 81.982422 64.428594 82.023802 64.603984 82.105469 64.708984 C 82.187135 64.813984 82.327057 64.873099 82.525391 64.884766 L 82.525391 66.878906 C 82.117057 66.960573 81.78401 67.001953 81.527344 67.001953 C 81.107344 67.001953 80.762474 66.895547 80.494141 66.685547 C 80.225807 66.475547 80.074063 66.201615 80.039062 65.863281 L 79.986328 65.287109 C 79.647995 65.870443 79.188802 66.313854 78.605469 66.617188 C 78.033802 66.908854 77.432734 67.054688 76.802734 67.054688 C 76.172734 67.054688 75.589401 66.930547 75.052734 66.685547 C 74.516068 66.440547 74.054922 66.103542 73.669922 65.671875 C 73.284922 65.240208 72.981432 64.737682 72.759766 64.166016 C 72.549766 63.582682 72.445313 62.959922 72.445312 62.294922 C 72.445312 61.629922 72.543854 61.01112 72.742188 60.439453 C 72.952188 59.867786 73.237943 59.36526 73.599609 58.933594 C 73.961276 58.501927 74.392865 58.164922 74.894531 57.919922 C 75.396198 57.674922 75.944063 57.550781 76.539062 57.550781 C 77.215729 57.550781 77.822708 57.714349 78.359375 58.041016 C 78.907708 58.367682 79.333385 58.793359 79.636719 59.318359 L 79.636719 54.103516 z M 57.068359 57.533203 C 57.756693 57.533203 58.397188 57.633698 58.992188 57.832031 C 59.598854 58.030365 60.15263 58.351589 60.654297 58.794922 L 59.710938 60.210938 C 59.244271 59.860937 58.789036 59.60474 58.345703 59.441406 C 57.914036 59.278073 57.482448 59.197266 57.050781 59.197266 C 56.654115 59.197266 56.321068 59.278073 56.052734 59.441406 C 55.784401 59.60474 55.650391 59.866849 55.650391 60.228516 C 55.650391 60.391849 55.679948 60.525859 55.738281 60.630859 C 55.808281 60.735859 55.912734 60.830443 56.052734 60.912109 C 56.192734 60.993776 56.374036 61.074583 56.595703 61.15625 C 56.829036 61.22625 57.114792 61.303099 57.453125 61.384766 C 58.083125 61.548099 58.619167 61.709714 59.0625 61.873047 C 59.5175 62.03638 59.884062 62.223594 60.164062 62.433594 C 60.455729 62.643594 60.666589 62.889922 60.794922 63.169922 C 60.934922 63.438255 61.005859 63.763438 61.005859 64.148438 C 61.005859 65.046771 60.672813 65.758203 60.007812 66.283203 C 59.342813 66.796536 58.438255 67.054688 57.294922 67.054688 C 56.524922 67.054688 55.772109 66.930547 55.037109 66.685547 C 54.302109 66.440547 53.673437 66.091719 53.148438 65.636719 L 54.023438 64.166016 C 54.583438 64.562682 55.125391 64.866172 55.650391 65.076172 C 56.187057 65.274505 56.717188 65.373047 57.242188 65.373047 C 57.708854 65.373047 58.07737 65.286328 58.345703 65.111328 C 58.614036 64.936328 58.748047 64.686042 58.748047 64.359375 C 58.748047 64.032708 58.590391 63.792292 58.275391 63.640625 C 57.960391 63.488958 57.446042 63.315521 56.734375 63.117188 C 56.139375 62.953854 55.632891 62.796198 55.212891 62.644531 C 54.792891 62.492865 54.453932 62.323385 54.197266 62.136719 C 53.940599 61.938385 53.753385 61.715703 53.636719 61.470703 C 53.520052 61.214036 53.462891 60.910547 53.462891 60.560547 C 53.462891 60.09388 53.549609 59.674115 53.724609 59.300781 C 53.911276 58.927448 54.167474 58.614089 54.494141 58.357422 C 54.820807 58.089089 55.201146 57.884141 55.632812 57.744141 C 56.076146 57.604141 56.555026 57.533203 57.068359 57.533203 z M 9.3144531 57.550781 C 9.9327865 57.550781 10.504297 57.67888 11.029297 57.935547 C 11.554297 58.180547 12.00362 58.519505 12.376953 58.951172 C 12.761953 59.371172 13.057578 59.873698 13.267578 60.457031 C 13.489245 61.028698 13.601562 61.635677 13.601562 62.277344 C 13.601562 62.942344 13.501068 63.565104 13.302734 64.148438 C 13.104401 64.731771 12.824557 65.240208 12.462891 65.671875 C 12.112891 66.103542 11.693125 66.440547 11.203125 66.685547 C 10.713125 66.930547 10.177083 67.054688 9.59375 67.054688 C 8.8704167 67.054688 8.2397917 66.897031 7.703125 66.582031 C 7.1664583 66.255365 6.7466927 65.817865 6.4433594 65.269531 L 6.4433594 70.607422 L 4.0976562 70.607422 L 4.0976562 57.708984 L 6.1464844 57.708984 L 6.1464844 59.283203 C 6.4848177 58.746536 6.9223177 58.326771 7.4589844 58.023438 C 7.995651 57.708438 8.6144531 57.550781 9.3144531 57.550781 z M 25.765625 57.550781 C 26.512292 57.550781 27.176432 57.67888 27.759766 57.935547 C 28.354766 58.192214 28.857292 58.542995 29.265625 58.986328 C 29.685625 59.417995 30.006849 59.920521 30.228516 60.492188 C 30.450182 61.063854 30.560547 61.66888 30.560547 62.310547 C 30.560547 62.940547 30.450182 63.541615 30.228516 64.113281 C 30.006849 64.684948 29.691536 65.193385 29.283203 65.636719 C 28.87487 66.068385 28.372344 66.413255 27.777344 66.669922 C 27.182344 66.926589 26.512292 67.054688 25.765625 67.054688 C 25.018958 67.054688 24.346953 66.926589 23.751953 66.669922 C 23.156953 66.413255 22.650469 66.068385 22.230469 65.636719 C 21.822135 65.193385 21.506823 64.684948 21.285156 64.113281 C 21.06349 63.541615 20.953125 62.940547 20.953125 62.310547 C 20.953125 61.66888 21.06349 61.063854 21.285156 60.492188 C 21.506823 59.920521 21.822135 59.417995 22.230469 58.986328 C 22.650469 58.542995 23.156953 58.192214 23.751953 57.935547 C 24.346953 57.67888 25.018958 57.550781 25.765625 57.550781 z M 37.341797 57.550781 C 37.96013 57.550781 38.531641 57.67888 39.056641 57.935547 C 39.581641 58.180547 40.030964 58.519505 40.404297 58.951172 C 40.789297 59.371172 41.084922 59.873698 41.294922 60.457031 C 41.516589 61.028698 41.628906 61.635677 41.628906 62.277344 C 41.628906 62.942344 41.528411 63.565104 41.330078 64.148438 C 41.131745 64.731771 40.851901 65.240208 40.490234 65.671875 C 40.140234 66.103542 39.720469 66.440547 39.230469 66.685547 C 38.740469 66.930547 38.204427 67.054688 37.621094 67.054688 C 36.89776 67.054688 36.267135 66.897031 35.730469 66.582031 C 35.193802 66.255365 34.774036 65.817865 34.470703 65.269531 L 34.470703 70.607422 L 32.125 70.607422 L 32.125 57.708984 L 34.173828 57.708984 L 34.173828 59.283203 C 34.512161 58.746536 34.949661 58.326771 35.486328 58.023438 C 36.022995 57.708438 36.641797 57.550781 37.341797 57.550781 z M 47.46875 57.550781 C 48.215417 57.550781 48.88151 57.67888 49.464844 57.935547 C 50.059844 58.192214 50.560417 58.542995 50.96875 58.986328 C 51.38875 59.417995 51.709974 59.920521 51.931641 60.492188 C 52.153307 61.063854 52.263672 61.66888 52.263672 62.310547 C 52.263672 62.940547 52.153307 63.541615 51.931641 64.113281 C 51.709974 64.684948 51.394661 65.193385 50.986328 65.636719 C 50.577995 66.068385 50.077422 66.413255 49.482422 66.669922 C 48.887422 66.926589 48.215417 67.054688 47.46875 67.054688 C 46.722083 67.054688 46.052031 66.926589 45.457031 66.669922 C 44.862031 66.413255 44.353594 66.068385 43.933594 65.636719 C 43.52526 65.193385 43.211901 64.684948 42.990234 64.113281 C 42.768568 63.541615 42.65625 62.940547 42.65625 62.310547 C 42.65625 61.66888 42.768568 61.063854 42.990234 60.492188 C 43.211901 59.920521 43.52526 59.417995 43.933594 58.986328 C 44.353594 58.542995 44.862031 58.192214 45.457031 57.935547 C 46.052031 57.67888 46.722083 57.550781 47.46875 57.550781 z M 66.78125 57.550781 C 67.527917 57.550781 68.19401 57.67888 68.777344 57.935547 C 69.372344 58.192214 69.872917 58.537083 70.28125 58.96875 C 70.70125 59.400417 71.016562 59.902943 71.226562 60.474609 C 71.448229 61.046276 71.558594 61.641432 71.558594 62.259766 C 71.558594 62.411432 71.552682 62.557266 71.541016 62.697266 C 71.541016 62.837266 71.529193 62.953542 71.505859 63.046875 L 64.419922 63.046875 C 64.454922 63.408542 64.541641 63.729766 64.681641 64.009766 C 64.821641 64.289766 65.002943 64.528229 65.224609 64.726562 C 65.446276 64.924896 65.696563 65.076641 65.976562 65.181641 C 66.256563 65.286641 66.548229 65.339844 66.851562 65.339844 C 67.318229 65.339844 67.755729 65.227526 68.164062 65.005859 C 68.584063 64.772526 68.869818 64.469036 69.021484 64.095703 L 71.033203 64.65625 C 70.69487 65.35625 70.152917 65.933672 69.40625 66.388672 C 68.67125 66.832005 67.790339 67.054688 66.763672 67.054688 C 66.028672 67.054688 65.364531 66.930547 64.769531 66.685547 C 64.174531 66.42888 63.666094 66.085964 63.246094 65.654297 C 62.826094 65.22263 62.500911 64.720104 62.267578 64.148438 C 62.045911 63.576771 61.933594 62.975703 61.933594 62.345703 C 61.933594 61.69237 62.045911 61.081432 62.267578 60.509766 C 62.489245 59.926432 62.808516 59.417995 63.228516 58.986328 C 63.648516 58.542995 64.156953 58.192214 64.751953 57.935547 C 65.35862 57.67888 66.034583 57.550781 66.78125 57.550781 z M 20.195312 57.585938 L 20.474609 57.585938 C 20.544609 57.585938 20.607682 57.591849 20.666016 57.603516 L 20.666016 59.738281 C 19.954349 59.749948 19.319766 59.88987 18.759766 60.158203 C 18.199766 60.41487 17.797734 60.807031 17.552734 61.332031 L 17.552734 66.878906 L 15.207031 66.878906 L 15.207031 57.708984 L 17.359375 57.708984 L 17.359375 59.669922 C 17.522708 59.354922 17.715833 59.073125 17.9375 58.828125 C 18.159167 58.571458 18.39763 58.350729 18.654297 58.164062 C 18.910964 57.977396 19.167161 57.837474 19.423828 57.744141 C 19.692161 57.639141 19.950312 57.585937 20.195312 57.585938 z M 66.746094 59.248047 C 66.431094 59.248047 66.133516 59.307161 65.853516 59.423828 C 65.585182 59.528828 65.346719 59.680573 65.136719 59.878906 C 64.926719 60.07724 64.751328 60.315703 64.611328 60.595703 C 64.482995 60.875703 64.408099 61.185104 64.384766 61.523438 L 69.144531 61.523438 C 69.086198 60.835104 68.83 60.28724 68.375 59.878906 C 67.931667 59.458906 67.38776 59.248047 66.746094 59.248047 z M 8.6660156 59.546875 C 8.444349 59.546875 8.2177083 59.588255 7.984375 59.669922 C 7.7510417 59.739922 7.5342708 59.844375 7.3359375 59.984375 C 7.1376042 60.124375 6.9563021 60.287943 6.7929688 60.474609 C 6.6413021 60.661276 6.525026 60.864271 6.4433594 61.085938 L 6.4433594 63.238281 C 6.6533594 63.763281 6.9745833 64.200781 7.40625 64.550781 C 7.8379167 64.889115 8.304974 65.058594 8.8066406 65.058594 C 9.1566406 65.058594 9.4759115 64.983698 9.7675781 64.832031 C 10.070911 64.680365 10.329062 64.475417 10.539062 64.21875 C 10.749063 63.962083 10.91263 63.664505 11.029297 63.326172 C 11.145964 62.987839 11.203125 62.63901 11.203125 62.277344 C 11.203125 61.892344 11.140052 61.535651 11.011719 61.208984 C 10.883385 60.870651 10.702083 60.578984 10.46875 60.333984 C 10.247083 60.088984 9.9790625 59.895859 9.6640625 59.755859 C 9.3607292 59.615859 9.0276823 59.546875 8.6660156 59.546875 z M 25.765625 59.546875 C 25.427292 59.546875 25.111979 59.615859 24.820312 59.755859 C 24.528646 59.895859 24.272448 60.088984 24.050781 60.333984 C 23.840781 60.578984 23.671302 60.870651 23.542969 61.208984 C 23.426302 61.547318 23.367187 61.91388 23.367188 62.310547 C 23.367188 62.71888 23.426302 63.093307 23.542969 63.431641 C 23.671302 63.758307 23.840781 64.044062 24.050781 64.289062 C 24.272448 64.534062 24.528646 64.727188 24.820312 64.867188 C 25.111979 64.995521 25.427292 65.058594 25.765625 65.058594 C 26.103958 65.058594 26.419271 64.995521 26.710938 64.867188 C 27.002604 64.727188 27.252891 64.534062 27.462891 64.289062 C 27.684557 64.044063 27.854036 63.752396 27.970703 63.414062 C 28.099036 63.075729 28.162109 62.703255 28.162109 62.294922 C 28.162109 61.898255 28.099036 61.52974 27.970703 61.191406 C 27.854036 60.853073 27.684557 60.561406 27.462891 60.316406 C 27.252891 60.071406 27.002604 59.884193 26.710938 59.755859 C 26.419271 59.615859 26.103958 59.546875 25.765625 59.546875 z M 36.693359 59.546875 C 36.471693 59.546875 36.245052 59.588255 36.011719 59.669922 C 35.778385 59.739922 35.561615 59.844375 35.363281 59.984375 C 35.164948 60.124375 34.983646 60.287943 34.820312 60.474609 C 34.668646 60.661276 34.55237 60.864271 34.470703 61.085938 L 34.470703 63.238281 C 34.680703 63.763281 35.001927 64.200781 35.433594 64.550781 C 35.86526 64.889115 36.332318 65.058594 36.833984 65.058594 C 37.183984 65.058594 37.503255 64.983698 37.794922 64.832031 C 38.098255 64.680365 38.356406 64.475417 38.566406 64.21875 C 38.776406 63.962083 38.939974 63.664505 39.056641 63.326172 C 39.173307 62.987839 39.230469 62.63901 39.230469 62.277344 C 39.230469 61.892344 39.167396 61.535651 39.039062 61.208984 C 38.910729 60.870651 38.729427 60.578984 38.496094 60.333984 C 38.274427 60.088984 38.006406 59.895859 37.691406 59.755859 C 37.388073 59.615859 37.055026 59.546875 36.693359 59.546875 z M 47.46875 59.546875 C 47.130417 59.546875 46.815104 59.615859 46.523438 59.755859 C 46.231771 59.895859 45.975573 60.088984 45.753906 60.333984 C 45.543906 60.578984 45.374427 60.870651 45.246094 61.208984 C 45.129427 61.547318 45.072266 61.91388 45.072266 62.310547 C 45.072266 62.71888 45.129427 63.093307 45.246094 63.431641 C 45.374427 63.758307 45.543906 64.044062 45.753906 64.289062 C 45.975573 64.534062 46.231771 64.727188 46.523438 64.867188 C 46.815104 64.995521 47.130417 65.058594 47.46875 65.058594 C 47.807083 65.058594 48.122396 64.995521 48.414062 64.867188 C 48.705729 64.727188 48.956016 64.534062 49.166016 64.289062 C 49.387682 64.044063 49.557161 63.752396 49.673828 63.414062 C 49.802161 63.075729 49.867187 62.703255 49.867188 62.294922 C 49.867188 61.898255 49.802161 61.52974 49.673828 61.191406 C 49.557161 60.853073 49.387682 60.561406 49.166016 60.316406 C 48.956016 60.071406 48.705729 59.884193 48.414062 59.755859 C 48.122396 59.615859 47.807083 59.546875 47.46875 59.546875 z M 77.275391 59.546875 C 76.925391 59.546875 76.598255 59.621771 76.294922 59.773438 C 76.003255 59.925104 75.752969 60.135964 75.542969 60.404297 C 75.332969 60.660964 75.169401 60.958542 75.052734 61.296875 C 74.936068 61.635208 74.876953 61.984036 74.876953 62.345703 C 74.876953 62.730703 74.941979 63.087396 75.070312 63.414062 C 75.198646 63.740729 75.374036 64.026484 75.595703 64.271484 C 75.81737 64.516484 76.079479 64.709609 76.382812 64.849609 C 76.697812 64.989609 77.040729 65.058594 77.414062 65.058594 C 77.635729 65.058594 77.864323 65.023125 78.097656 64.953125 C 78.33099 64.871458 78.545807 64.761094 78.744141 64.621094 C 78.942474 64.481094 79.117865 64.317526 79.269531 64.130859 C 79.432865 63.944193 79.555052 63.741198 79.636719 63.519531 L 79.636719 61.332031 C 79.543385 61.075365 79.409375 60.840859 79.234375 60.630859 C 79.071042 60.409193 78.87987 60.223932 78.658203 60.072266 C 78.448203 59.908932 78.219609 59.77888 77.974609 59.685547 C 77.741276 59.592214 77.508724 59.546875 77.275391 59.546875 z "
     id="rect5-1" /><rect
     x="16.918905"
     y="18.661619"
     class="st0"
     width="51.309628"
     height="11.110153"
     id="rect9-8"
     style="fill:#ff7f2a" /><path
     style="fill:#ff7f2a"
     d="M 42.72317,1.319652e-7 A 10.420221,10.539062 0 0 0 32.30324,10.539063 10.420221,10.539062 0 0 0 42.72317,21.078125 10.420221,10.539062 0 0 0 53.14504,10.539063 10.420221,10.539062 0 0 0 42.72317,1.319652e-7 Z M 42.86379,4.279297 a 6,6 0 0 1 6,6 6,6 0 0 1 -6,6 6,6 0 0 1 -6,-6 6,6 0 0 1 6,-6 z"
     id="circle11-8"
     inkscape:connector-curvature="0" /></svg>