<?xml version="1.0" encoding="UTF-8" standalone="no"?>
<!-- Generator: Adobe Illustrator 19.2.1, SVG Export Plug-In . SVG Version: 6.00 Build 0)  -->

<svg
   xmlns:dc="http://purl.org/dc/elements/1.1/"
   xmlns:cc="http://creativecommons.org/ns#"
   xmlns:rdf="http://www.w3.org/1999/02/22-rdf-syntax-ns#"
   xmlns:svg="http://www.w3.org/2000/svg"
   xmlns="http://www.w3.org/2000/svg"
   xmlns:sodipodi="http://sodipodi.sourceforge.net/DTD/sodipodi-0.dtd"
   xmlns:inkscape="http://www.inkscape.org/namespaces/inkscape"
   version="1.1"
   id="Layer_1"
   x="0px"
   y="0px"
   viewBox="0 0 85.14453 100.63134"
   xml:space="preserve"
   inkscape:version="0.91 r13725"
   sodipodi:docname="txplan-accepted.svg"
   width="85.144531"
   height="100.63134"><metadata
     id="metadata21"><rdf:RDF><cc:Work
         rdf:about=""><dc:format>image/svg+xml</dc:format><dc:type
           rdf:resource="http://purl.org/dc/dcmitype/StillImage" /><dc:title></dc:title></cc:Work></rdf:RDF></metadata><defs
     id="defs19" /><sodipodi:namedview
     pagecolor="#ffffff"
     bordercolor="#666666"
     borderopacity="1"
     objecttolerance="10"
     gridtolerance="10"
     guidetolerance="10"
     inkscape:pageopacity="0"
     inkscape:pageshadow="2"
     inkscape:window-width="1920"
     inkscape:window-height="1061"
     id="namedview17"
     showgrid="false"
     fit-margin-top="0"
     fit-margin-left="0"
     fit-margin-right="0"
     fit-margin-bottom="0"
     inkscape:zoom="4.6260383"
     inkscape:cx="22.581373"
     inkscape:cy="48.495472"
     inkscape:window-x="1912"
     inkscape:window-y="-8"
     inkscape:window-maximized="1"
     inkscape:current-layer="Layer_1" /><style
     type="text/css"
     id="style3">
	.st0{fill:#FDC010;}
	.st1{fill:#FFFFFF;}
	.st2{font-family:'Helvetica-Bold';}
	.st3{font-size:18px;}
</style><path
     style="fill:#87de87"
     d="M 7.2695312 20.203125 C 3.2421812 20.203125 0 23.445306 0 27.472656 L 0 93.361328 C 0 97.388678 3.2421812 100.63086 7.2695312 100.63086 L 77.875 100.63086 C 81.90235 100.63086 85.144531 97.388678 85.144531 93.361328 L 85.144531 27.472656 C 85.144531 23.445306 81.90235 20.203125 77.875 20.203125 L 70.474609 20.203125 L 70.474609 31.947266 L 14.667969 31.947266 L 14.667969 20.203125 L 7.2695312 20.203125 z M 78.783203 54.103516 L 81.126953 54.103516 L 81.126953 64.183594 C 81.126953 64.428594 81.168333 64.603984 81.25 64.708984 C 81.331667 64.813984 81.471589 64.873099 81.669922 64.884766 L 81.669922 66.878906 C 81.261589 66.960573 80.928542 67.001953 80.671875 67.001953 C 80.251875 67.001953 79.908958 66.895547 79.640625 66.685547 C 79.372292 66.475547 79.220547 66.201615 79.185547 65.863281 L 79.132812 65.287109 C 78.794479 65.870443 78.333333 66.313854 77.75 66.617188 C 77.178333 66.908854 76.577266 67.054688 75.947266 67.054688 C 75.317266 67.054688 74.733932 66.930547 74.197266 66.685547 C 73.660599 66.440547 73.199453 66.103542 72.814453 65.671875 C 72.429453 65.240208 72.127917 64.737682 71.90625 64.166016 C 71.69625 63.582682 71.589844 62.959922 71.589844 62.294922 C 71.589844 61.629922 71.690339 61.01112 71.888672 60.439453 C 72.098672 59.867786 72.384427 59.36526 72.746094 58.933594 C 73.10776 58.501927 73.539349 58.164922 74.041016 57.919922 C 74.542682 57.674922 75.090547 57.550781 75.685547 57.550781 C 76.362214 57.550781 76.969193 57.714349 77.505859 58.041016 C 78.054193 58.367682 78.47987 58.793359 78.783203 59.318359 L 78.783203 54.103516 z M 55.6875 54.734375 L 58.033203 54.734375 L 58.033203 57.708984 L 59.957031 57.708984 L 59.957031 59.511719 L 58.033203 59.511719 L 58.033203 63.992188 C 58.033203 64.318854 58.11401 64.551406 58.277344 64.691406 C 58.452344 64.81974 58.663203 64.884766 58.908203 64.884766 C 59.153203 64.884766 59.391667 64.843385 59.625 64.761719 C 59.858333 64.680052 60.045547 64.609115 60.185547 64.550781 L 60.658203 66.40625 C 60.343203 66.54625 59.958906 66.686172 59.503906 66.826172 C 59.048906 66.966172 58.570026 67.037109 58.068359 67.037109 C 57.741693 67.037109 57.432292 66.995729 57.140625 66.914062 C 56.860625 66.832396 56.610339 66.704297 56.388672 66.529297 C 56.178672 66.34263 56.009193 66.108125 55.880859 65.828125 C 55.752526 65.536458 55.6875 65.18763 55.6875 64.779297 L 55.6875 59.511719 L 54.480469 59.511719 L 54.480469 57.708984 L 55.6875 57.708984 L 55.6875 54.734375 z M 7.7910156 57.550781 C 9.109349 57.550781 10.130182 57.877917 10.853516 58.53125 C 11.588516 59.172917 11.955078 60.107031 11.955078 61.332031 L 11.955078 64.183594 C 11.955078 64.428594 11.996458 64.603984 12.078125 64.708984 C 12.171458 64.813984 12.317292 64.873099 12.515625 64.884766 L 12.515625 66.878906 C 12.118958 66.960573 11.776042 67.001953 11.484375 67.001953 C 11.041042 67.001953 10.696172 66.901458 10.451172 66.703125 C 10.217839 66.504792 10.072005 66.242682 10.013672 65.916016 L 9.9609375 65.408203 C 9.5526042 65.94487 9.0559896 66.354766 8.4726562 66.634766 C 7.8893229 66.914766 7.2665625 67.054688 6.6015625 67.054688 C 6.1582292 67.054688 5.744375 66.98375 5.359375 66.84375 C 4.974375 66.692083 4.6413281 66.489089 4.3613281 66.232422 C 4.0813281 65.964089 3.8586458 65.654688 3.6953125 65.304688 C 3.5436458 64.954688 3.46875 64.568438 3.46875 64.148438 C 3.46875 63.716771 3.5613802 63.320651 3.7480469 62.958984 C 3.9463802 62.585651 4.214401 62.270339 4.5527344 62.013672 C 4.9027344 61.757005 5.3185417 61.559922 5.796875 61.419922 C 6.2752083 61.268255 6.7994271 61.191406 7.3710938 61.191406 C 7.7794271 61.191406 8.1755469 61.226875 8.5605469 61.296875 C 8.9572135 61.366875 9.3079948 61.465417 9.6113281 61.59375 L 9.6113281 61.068359 C 9.6113281 60.461693 9.4359375 59.996589 9.0859375 59.669922 C 8.7476042 59.343255 8.2411198 59.179688 7.5644531 59.179688 C 7.0744531 59.179688 6.5955729 59.266406 6.1289062 59.441406 C 5.6622396 59.616406 5.1833594 59.872604 4.6933594 60.210938 L 3.9765625 58.724609 C 5.1548958 57.942943 6.4260156 57.550781 7.7910156 57.550781 z M 18.400391 57.550781 C 19.403724 57.550781 20.255078 57.767552 20.955078 58.199219 C 21.666745 58.630885 22.196875 59.196484 22.546875 59.896484 L 20.253906 60.595703 C 20.055573 60.25737 19.793464 60.001172 19.466797 59.826172 C 19.14013 59.639505 18.779479 59.546875 18.382812 59.546875 C 18.044479 59.546875 17.729167 59.615859 17.4375 59.755859 C 17.145833 59.884193 16.889635 60.071406 16.667969 60.316406 C 16.457969 60.54974 16.28849 60.835495 16.160156 61.173828 C 16.04349 61.512161 15.984375 61.886589 15.984375 62.294922 C 15.984375 62.703255 16.049401 63.075729 16.177734 63.414062 C 16.306068 63.752396 16.475547 64.044063 16.685547 64.289062 C 16.907214 64.534062 17.163411 64.727188 17.455078 64.867188 C 17.746745 64.995521 18.056146 65.058594 18.382812 65.058594 C 18.802813 65.058594 19.187109 64.954141 19.537109 64.744141 C 19.898776 64.534141 20.149063 64.277943 20.289062 63.974609 L 22.582031 64.673828 C 22.267031 65.373828 21.748724 65.945339 21.025391 66.388672 C 20.302057 66.832005 19.432969 67.054688 18.417969 67.054688 C 17.671302 67.054688 16.999297 66.926589 16.404297 66.669922 C 15.809297 66.413255 15.302813 66.068385 14.882812 65.636719 C 14.462812 65.193385 14.135677 64.684948 13.902344 64.113281 C 13.680677 63.529948 13.570313 62.924922 13.570312 62.294922 C 13.570312 61.653255 13.680677 61.046276 13.902344 60.474609 C 14.12401 59.902943 14.445234 59.400417 14.865234 58.96875 C 15.285234 58.537083 15.791719 58.192214 16.386719 57.935547 C 16.981719 57.67888 17.653724 57.550781 18.400391 57.550781 z M 28.175781 57.550781 C 29.179115 57.550781 30.030469 57.767552 30.730469 58.199219 C 31.442135 58.630885 31.972266 59.196484 32.322266 59.896484 L 30.029297 60.595703 C 29.830964 60.25737 29.568854 60.001172 29.242188 59.826172 C 28.915521 59.639505 28.55487 59.546875 28.158203 59.546875 C 27.81987 59.546875 27.504557 59.615859 27.212891 59.755859 C 26.921224 59.884193 26.665026 60.071406 26.443359 60.316406 C 26.233359 60.54974 26.06388 60.835495 25.935547 61.173828 C 25.81888 61.512161 25.759766 61.886589 25.759766 62.294922 C 25.759766 62.703255 25.824792 63.075729 25.953125 63.414062 C 26.081458 63.752396 26.250938 64.044063 26.460938 64.289062 C 26.682604 64.534062 26.938802 64.727188 27.230469 64.867188 C 27.522135 64.995521 27.831536 65.058594 28.158203 65.058594 C 28.578203 65.058594 28.9625 64.954141 29.3125 64.744141 C 29.674167 64.534141 29.924453 64.277943 30.064453 63.974609 L 32.357422 64.673828 C 32.042422 65.373828 31.524115 65.945339 30.800781 66.388672 C 30.077448 66.832005 29.208359 67.054688 28.193359 67.054688 C 27.446693 67.054688 26.774687 66.926589 26.179688 66.669922 C 25.584687 66.413255 25.078203 66.068385 24.658203 65.636719 C 24.238203 65.193385 23.911068 64.684948 23.677734 64.113281 C 23.456068 63.529948 23.345703 62.924922 23.345703 62.294922 C 23.345703 61.653255 23.456068 61.046276 23.677734 60.474609 C 23.899401 59.902943 24.220625 59.400417 24.640625 58.96875 C 25.060625 58.537083 25.567109 58.192214 26.162109 57.935547 C 26.757109 57.67888 27.429115 57.550781 28.175781 57.550781 z M 37.96875 57.550781 C 38.715417 57.550781 39.379557 57.67888 39.962891 57.935547 C 40.557891 58.192214 41.060417 58.537083 41.46875 58.96875 C 41.88875 59.400417 42.204062 59.902943 42.414062 60.474609 C 42.635729 61.046276 42.746094 61.641432 42.746094 62.259766 C 42.746094 62.411432 42.740182 62.557266 42.728516 62.697266 C 42.728516 62.837266 42.716693 62.953542 42.693359 63.046875 L 35.605469 63.046875 C 35.640469 63.408542 35.727188 63.729766 35.867188 64.009766 C 36.007188 64.289766 36.18849 64.528229 36.410156 64.726562 C 36.631823 64.924896 36.884063 65.076641 37.164062 65.181641 C 37.444063 65.286641 37.735729 65.339844 38.039062 65.339844 C 38.505729 65.339844 38.943229 65.227526 39.351562 65.005859 C 39.771562 64.772526 40.057318 64.469036 40.208984 64.095703 L 42.220703 64.65625 C 41.88237 65.35625 41.340417 65.933672 40.59375 66.388672 C 39.85875 66.832005 38.977839 67.054688 37.951172 67.054688 C 37.216172 67.054688 36.550078 66.930547 35.955078 66.685547 C 35.360078 66.42888 34.853594 66.085964 34.433594 65.654297 C 34.013594 65.22263 33.686458 64.720104 33.453125 64.148438 C 33.231458 63.576771 33.121094 62.975703 33.121094 62.345703 C 33.121094 61.69237 33.231458 61.081432 33.453125 60.509766 C 33.674792 59.926432 33.996016 59.417995 34.416016 58.986328 C 34.836016 58.542995 35.3425 58.192214 35.9375 57.935547 C 36.544167 57.67888 37.222083 57.550781 37.96875 57.550781 z M 49.40625 57.550781 C 50.024583 57.550781 50.596094 57.67888 51.121094 57.935547 C 51.646094 58.180547 52.095417 58.519505 52.46875 58.951172 C 52.85375 59.371172 53.151328 59.873698 53.361328 60.457031 C 53.582995 61.028698 53.693359 61.635677 53.693359 62.277344 C 53.693359 62.942344 53.594818 63.565104 53.396484 64.148438 C 53.198151 64.731771 52.918307 65.240208 52.556641 65.671875 C 52.206641 66.103542 51.786875 66.440547 51.296875 66.685547 C 50.806875 66.930547 50.26888 67.054688 49.685547 67.054688 C 48.962214 67.054688 48.333542 66.897031 47.796875 66.582031 C 47.260208 66.255365 46.840443 65.817865 46.537109 65.269531 L 46.537109 70.607422 L 44.191406 70.607422 L 44.191406 57.708984 L 46.238281 57.708984 L 46.238281 59.283203 C 46.576615 58.746536 47.014115 58.326771 47.550781 58.023438 C 48.087448 57.708438 48.70625 57.550781 49.40625 57.550781 z M 65.927734 57.550781 C 66.674401 57.550781 67.338542 57.67888 67.921875 57.935547 C 68.516875 58.192214 69.019401 58.537083 69.427734 58.96875 C 69.847734 59.400417 70.163047 59.902943 70.373047 60.474609 C 70.594714 61.046276 70.705078 61.641432 70.705078 62.259766 C 70.705078 62.411432 70.699167 62.557266 70.6875 62.697266 C 70.6875 62.837266 70.675677 62.953542 70.652344 63.046875 L 63.564453 63.046875 C 63.599453 63.408542 63.686172 63.729766 63.826172 64.009766 C 63.966172 64.289766 64.147474 64.528229 64.369141 64.726562 C 64.590807 64.924896 64.843047 65.076641 65.123047 65.181641 C 65.403047 65.286641 65.694714 65.339844 65.998047 65.339844 C 66.464714 65.339844 66.902214 65.227526 67.310547 65.005859 C 67.730547 64.772526 68.016302 64.469036 68.167969 64.095703 L 70.179688 64.65625 C 69.841354 65.35625 69.299401 65.933672 68.552734 66.388672 C 67.817734 66.832005 66.936823 67.054688 65.910156 67.054688 C 65.175156 67.054688 64.509062 66.930547 63.914062 66.685547 C 63.319063 66.42888 62.812578 66.085964 62.392578 65.654297 C 61.972578 65.22263 61.645443 64.720104 61.412109 64.148438 C 61.190443 63.576771 61.080078 62.975703 61.080078 62.345703 C 61.080078 61.69237 61.190443 61.081432 61.412109 60.509766 C 61.633776 59.926432 61.955 59.417995 62.375 58.986328 C 62.795 58.542995 63.301484 58.192214 63.896484 57.935547 C 64.503151 57.67888 65.181068 57.550781 65.927734 57.550781 z M 37.933594 59.248047 C 37.618594 59.248047 37.321016 59.307161 37.041016 59.423828 C 36.772682 59.528828 36.532266 59.680573 36.322266 59.878906 C 36.112266 60.07724 35.938828 60.315703 35.798828 60.595703 C 35.670495 60.875703 35.593646 61.185104 35.570312 61.523438 L 40.330078 61.523438 C 40.271745 60.835104 40.015547 60.28724 39.560547 59.878906 C 39.117214 59.458906 38.57526 59.248047 37.933594 59.248047 z M 65.892578 59.248047 C 65.577578 59.248047 65.28 59.307161 65 59.423828 C 64.731667 59.528828 64.49125 59.680573 64.28125 59.878906 C 64.07125 60.07724 63.897813 60.315703 63.757812 60.595703 C 63.629479 60.875703 63.55263 61.185104 63.529297 61.523438 L 68.289062 61.523438 C 68.230729 60.835104 67.974531 60.28724 67.519531 59.878906 C 67.076198 59.458906 66.534245 59.248047 65.892578 59.248047 z M 48.759766 59.546875 C 48.538099 59.546875 48.309505 59.588255 48.076172 59.669922 C 47.842839 59.739922 47.628021 59.844375 47.429688 59.984375 C 47.231354 60.124375 47.050052 60.287943 46.886719 60.474609 C 46.735052 60.661276 46.618776 60.864271 46.537109 61.085938 L 46.537109 63.238281 C 46.747109 63.763281 47.06638 64.200781 47.498047 64.550781 C 47.929714 64.889115 48.396771 65.058594 48.898438 65.058594 C 49.248437 65.058594 49.569661 64.983698 49.861328 64.832031 C 50.164661 64.680365 50.420859 64.475417 50.630859 64.21875 C 50.840859 63.962083 51.004427 63.664505 51.121094 63.326172 C 51.23776 62.987839 51.296875 62.63901 51.296875 62.277344 C 51.296875 61.892344 51.231849 61.535651 51.103516 61.208984 C 50.975182 60.870651 50.79388 60.578984 50.560547 60.333984 C 50.33888 60.088984 50.070859 59.895859 49.755859 59.755859 C 49.452526 59.615859 49.121432 59.546875 48.759766 59.546875 z M 76.419922 59.546875 C 76.069922 59.546875 75.742786 59.621771 75.439453 59.773438 C 75.147786 59.925104 74.8975 60.135964 74.6875 60.404297 C 74.4775 60.660964 74.313932 60.958542 74.197266 61.296875 C 74.080599 61.635208 74.023437 61.984036 74.023438 62.345703 C 74.023438 62.730703 74.08651 63.087396 74.214844 63.414062 C 74.343177 63.740729 74.518568 64.026484 74.740234 64.271484 C 74.961901 64.516484 75.22401 64.709609 75.527344 64.849609 C 75.842344 64.989609 76.187214 65.058594 76.560547 65.058594 C 76.782214 65.058594 77.008854 65.023125 77.242188 64.953125 C 77.475521 64.871458 77.692292 64.761094 77.890625 64.621094 C 78.088958 64.481094 78.264349 64.317526 78.416016 64.130859 C 78.579349 63.944193 78.701536 63.741198 78.783203 63.519531 L 78.783203 61.332031 C 78.68987 61.075365 78.555859 60.840859 78.380859 60.630859 C 78.217526 60.409193 78.024401 60.223932 77.802734 60.072266 C 77.592734 59.908932 77.366094 59.77888 77.121094 59.685547 C 76.88776 59.592214 76.653255 59.546875 76.419922 59.546875 z M 7.7558594 62.503906 C 7.1491927 62.503906 6.6525781 62.643828 6.2675781 62.923828 C 5.8825781 63.192161 5.6914063 63.537031 5.6914062 63.957031 C 5.6914062 64.353698 5.843151 64.684792 6.1464844 64.953125 C 6.4498177 65.209792 6.8222917 65.339844 7.265625 65.339844 C 7.6622917 65.339844 8.0367188 65.268906 8.3867188 65.128906 C 8.7483854 64.988906 9.0282292 64.801693 9.2265625 64.568359 C 9.4832292 64.370026 9.6113281 64.149297 9.6113281 63.904297 L 9.6113281 62.853516 C 9.3313281 62.748516 9.0278385 62.667708 8.7011719 62.609375 C 8.3745052 62.539375 8.0591927 62.503906 7.7558594 62.503906 z "
     id="rect5-1" /><rect
     x="16.918905"
     y="18.661619"
     class="st0"
     width="51.309628"
     height="11.110153"
     id="rect9-8"
     style="fill:#5fd35f" /><path
     style="fill:#5fd35f"
     d="M 42.72317,1.319652e-7 A 10.420221,10.539062 0 0 0 32.30324,10.539063 10.420221,10.539062 0 0 0 42.72317,21.078125 10.420221,10.539062 0 0 0 53.14504,10.539063 10.420221,10.539062 0 0 0 42.72317,1.319652e-7 Z M 42.86379,4.279297 a 6,6 0 0 1 6,6 6,6 0 0 1 -6,6 6,6 0 0 1 -6,-6 6,6 0 0 1 6,-6 z"
     id="circle11-8"
     inkscape:connector-curvature="0" /></svg>