<?xml version="1.0" encoding="UTF-8" standalone="no"?>
<!-- Generator: Adobe Illustrator 19.2.1, SVG Export Plug-In . SVG Version: 6.00 Build 0)  -->

<svg
   xmlns:dc="http://purl.org/dc/elements/1.1/"
   xmlns:cc="http://creativecommons.org/ns#"
   xmlns:rdf="http://www.w3.org/1999/02/22-rdf-syntax-ns#"
   xmlns:svg="http://www.w3.org/2000/svg"
   xmlns="http://www.w3.org/2000/svg"
   xmlns:sodipodi="http://sodipodi.sourceforge.net/DTD/sodipodi-0.dtd"
   xmlns:inkscape="http://www.inkscape.org/namespaces/inkscape"
   version="1.1"
   id="Layer_1"
   x="0px"
   y="0px"
   viewBox="0 0 85.14453 100.63134"
   xml:space="preserve"
   inkscape:version="0.91 r13725"
   sodipodi:docname="txplan-rejected.svg"
   width="85.144531"
   height="100.63134"><metadata
     id="metadata21"><rdf:RDF><cc:Work
         rdf:about=""><dc:format>image/svg+xml</dc:format><dc:type
           rdf:resource="http://purl.org/dc/dcmitype/StillImage" /><dc:title></dc:title></cc:Work></rdf:RDF></metadata><defs
     id="defs19" /><sodipodi:namedview
     pagecolor="#ffffff"
     bordercolor="#666666"
     borderopacity="1"
     objecttolerance="10"
     gridtolerance="10"
     guidetolerance="10"
     inkscape:pageopacity="0"
     inkscape:pageshadow="2"
     inkscape:window-width="1920"
     inkscape:window-height="1061"
     id="namedview17"
     showgrid="false"
     fit-margin-top="0"
     fit-margin-left="0"
     fit-margin-right="0"
     fit-margin-bottom="0"
     inkscape:zoom="5.4137863"
     inkscape:cx="18.42004"
     inkscape:cy="41.686348"
     inkscape:window-x="1912"
     inkscape:window-y="-8"
     inkscape:window-maximized="1"
     inkscape:current-layer="Layer_1" /><style
     type="text/css"
     id="style3">
	.st0{fill:#FDC010;}
	.st1{fill:#FFFFFF;}
	.st2{font-family:'Helvetica-Bold';}
	.st3{font-size:18px;}
</style><g
     id="g4140"><path
       id="rect5-1"
       d="M 7.2695312 20.203125 C 3.2421812 20.203125 0 23.445306 0 27.472656 L 0 93.361328 C 0 97.388678 3.2421812 100.63086 7.2695312 100.63086 L 77.875 100.63086 C 81.90235 100.63086 85.144531 97.388678 85.144531 93.361328 L 85.144531 27.472656 C 85.144531 23.445306 81.90235 20.203125 77.875 20.203125 L 70.474609 20.203125 L 70.474609 31.947266 L 14.667969 31.947266 L 14.667969 20.203125 L 7.2695312 20.203125 z M 26.082031 53.826172 L 28.427734 53.826172 L 28.427734 56.154297 L 26.082031 56.154297 L 26.082031 53.826172 z M 74.566406 53.826172 L 76.910156 53.826172 L 76.910156 63.90625 C 76.910156 64.15125 76.951536 64.326641 77.033203 64.431641 C 77.11487 64.536641 77.254792 64.595755 77.453125 64.607422 L 77.453125 66.601562 C 77.044792 66.683229 76.711745 66.724609 76.455078 66.724609 C 76.035078 66.724609 75.692161 66.620156 75.423828 66.410156 C 75.155495 66.200156 75.00375 65.924271 74.96875 65.585938 L 74.916016 65.009766 C 74.577682 65.593099 74.116536 66.03651 73.533203 66.339844 C 72.961536 66.63151 72.360469 66.777344 71.730469 66.777344 C 71.100469 66.777344 70.517135 66.655156 69.980469 66.410156 C 69.443802 66.165156 68.982656 65.826198 68.597656 65.394531 C 68.212656 64.962865 67.909167 64.460339 67.6875 63.888672 C 67.4775 63.305339 67.373047 62.682578 67.373047 62.017578 C 67.373047 61.352578 67.471589 60.733776 67.669922 60.162109 C 67.879922 59.590443 68.165677 59.087917 68.527344 58.65625 C 68.88901 58.224583 69.320599 57.887578 69.822266 57.642578 C 70.323932 57.397578 70.87375 57.273438 71.46875 57.273438 C 72.145417 57.273438 72.750443 57.437005 73.287109 57.763672 C 73.835443 58.090339 74.263073 58.516016 74.566406 59.041016 L 74.566406 53.826172 z M 51.470703 54.457031 L 53.816406 54.457031 L 53.816406 57.431641 L 55.740234 57.431641 L 55.740234 59.234375 L 53.816406 59.234375 L 53.816406 63.714844 C 53.816406 64.04151 53.897214 64.274062 54.060547 64.414062 C 54.235547 64.542396 54.446406 64.607422 54.691406 64.607422 C 54.936406 64.607422 55.17487 64.566042 55.408203 64.484375 C 55.641536 64.402708 55.82875 64.331771 55.96875 64.273438 L 56.441406 66.128906 C 56.126406 66.268906 55.740156 66.408828 55.285156 66.548828 C 54.830156 66.688828 54.353229 66.759766 53.851562 66.759766 C 53.524896 66.759766 53.215495 66.718385 52.923828 66.636719 C 52.643828 66.555052 52.391589 66.426953 52.169922 66.251953 C 51.959922 66.065286 51.792396 65.832734 51.664062 65.552734 C 51.535729 65.261068 51.470703 64.910286 51.470703 64.501953 L 51.470703 59.234375 L 50.263672 59.234375 L 50.263672 57.431641 L 51.470703 57.431641 L 51.470703 54.457031 z M 19.771484 57.273438 C 20.518151 57.273438 21.182292 57.40349 21.765625 57.660156 C 22.360625 57.916823 22.863151 58.25974 23.271484 58.691406 C 23.691484 59.123073 24.006797 59.625599 24.216797 60.197266 C 24.438464 60.768932 24.548828 61.364089 24.548828 61.982422 C 24.548828 62.134089 24.542917 62.279922 24.53125 62.419922 C 24.53125 62.559922 24.519427 62.676198 24.496094 62.769531 L 17.408203 62.769531 C 17.443203 63.131198 17.531875 63.452422 17.671875 63.732422 C 17.811875 64.012422 17.993177 64.250885 18.214844 64.449219 C 18.43651 64.647552 18.686797 64.799297 18.966797 64.904297 C 19.246797 65.009297 19.538464 65.0625 19.841797 65.0625 C 20.308464 65.0625 20.745964 64.950182 21.154297 64.728516 C 21.574297 64.495182 21.860052 64.193646 22.011719 63.820312 L 24.023438 64.378906 C 23.685104 65.078906 23.143151 65.656328 22.396484 66.111328 C 21.661484 66.554661 20.780573 66.777344 19.753906 66.777344 C 19.018906 66.777344 18.354766 66.655156 17.759766 66.410156 C 17.164766 66.15349 16.656328 65.80862 16.236328 65.376953 C 15.816328 64.945286 15.489193 64.44276 15.255859 63.871094 C 15.034193 63.299427 14.923828 62.700312 14.923828 62.070312 C 14.923828 61.416979 15.034193 60.804089 15.255859 60.232422 C 15.477526 59.649089 15.79875 59.140651 16.21875 58.708984 C 16.63875 58.265651 17.147188 57.916823 17.742188 57.660156 C 18.348854 57.40349 19.024818 57.273438 19.771484 57.273438 z M 34.84375 57.273438 C 35.590417 57.273438 36.25651 57.40349 36.839844 57.660156 C 37.434844 57.916823 37.935417 58.25974 38.34375 58.691406 C 38.76375 59.123073 39.079062 59.625599 39.289062 60.197266 C 39.510729 60.768932 39.623047 61.364089 39.623047 61.982422 C 39.623047 62.134089 39.617135 62.279922 39.605469 62.419922 C 39.605469 62.559922 39.593646 62.676198 39.570312 62.769531 L 32.482422 62.769531 C 32.517422 63.131198 32.604141 63.452422 32.744141 63.732422 C 32.884141 64.012422 33.065443 64.250885 33.287109 64.449219 C 33.508776 64.647552 33.759063 64.799297 34.039062 64.904297 C 34.319063 65.009297 34.610729 65.0625 34.914062 65.0625 C 35.380729 65.0625 35.818229 64.950182 36.226562 64.728516 C 36.646562 64.495182 36.932318 64.193646 37.083984 63.820312 L 39.097656 64.378906 C 38.759323 65.078906 38.215417 65.656328 37.46875 66.111328 C 36.73375 66.554661 35.854792 66.777344 34.828125 66.777344 C 34.093125 66.777344 33.427031 66.655156 32.832031 66.410156 C 32.237031 66.15349 31.730547 65.80862 31.310547 65.376953 C 30.890547 64.945286 30.563411 64.44276 30.330078 63.871094 C 30.108411 63.299427 29.998047 62.700313 29.998047 62.070312 C 29.998047 61.416979 30.108411 60.804089 30.330078 60.232422 C 30.551745 59.649089 30.872969 59.140651 31.292969 58.708984 C 31.712969 58.265651 32.219453 57.916823 32.814453 57.660156 C 33.42112 57.40349 34.097083 57.273438 34.84375 57.273438 z M 45.320312 57.273438 C 46.323646 57.273438 47.175 57.490208 47.875 57.921875 C 48.586667 58.353542 49.11875 58.919141 49.46875 59.619141 L 47.175781 60.320312 C 46.977448 59.981979 46.715339 59.723828 46.388672 59.548828 C 46.062005 59.362161 45.699401 59.269531 45.302734 59.269531 C 44.964401 59.269531 44.649089 59.338516 44.357422 59.478516 C 44.065755 59.606849 43.809557 59.794062 43.587891 60.039062 C 43.377891 60.272396 43.208411 60.558151 43.080078 60.896484 C 42.963411 61.234818 42.90625 61.609245 42.90625 62.017578 C 42.90625 62.425911 42.969323 62.798385 43.097656 63.136719 C 43.22599 63.475052 43.395469 63.766719 43.605469 64.011719 C 43.827135 64.256719 44.083333 64.449844 44.375 64.589844 C 44.666667 64.718177 44.976068 64.78125 45.302734 64.78125 C 45.722734 64.78125 46.107031 64.676797 46.457031 64.466797 C 46.818698 64.256797 47.070938 64.000599 47.210938 63.697266 L 49.501953 64.396484 C 49.186953 65.096484 48.668646 65.667995 47.945312 66.111328 C 47.221979 66.554661 46.352891 66.777344 45.337891 66.777344 C 44.591224 66.777344 43.921172 66.649245 43.326172 66.392578 C 42.731172 66.135911 42.222734 65.791042 41.802734 65.359375 C 41.382734 64.916042 41.055599 64.407604 40.822266 63.835938 C 40.600599 63.252604 40.490234 62.647578 40.490234 62.017578 C 40.490234 61.375911 40.600599 60.768932 40.822266 60.197266 C 41.043932 59.625599 41.365156 59.123073 41.785156 58.691406 C 42.205156 58.25974 42.713594 57.916823 43.308594 57.660156 C 43.903594 57.40349 44.573646 57.273438 45.320312 57.273438 z M 61.708984 57.273438 C 62.455651 57.273438 63.121745 57.40349 63.705078 57.660156 C 64.300078 57.916823 64.800651 58.25974 65.208984 58.691406 C 65.628984 59.123073 65.944297 59.625599 66.154297 60.197266 C 66.375964 60.768932 66.488281 61.364089 66.488281 61.982422 C 66.488281 62.134089 66.48237 62.279922 66.470703 62.419922 C 66.470703 62.559922 66.45888 62.676198 66.435547 62.769531 L 59.347656 62.769531 C 59.382656 63.131198 59.469375 63.452422 59.609375 63.732422 C 59.749375 64.012422 59.930677 64.250885 60.152344 64.449219 C 60.37401 64.647552 60.624297 64.799297 60.904297 64.904297 C 61.184297 65.009297 61.475964 65.0625 61.779297 65.0625 C 62.245964 65.0625 62.683464 64.950182 63.091797 64.728516 C 63.511797 64.495182 63.797552 64.193646 63.949219 63.820312 L 65.962891 64.378906 C 65.624557 65.078906 65.080651 65.656328 64.333984 66.111328 C 63.598984 66.554661 62.720026 66.777344 61.693359 66.777344 C 60.958359 66.777344 60.292266 66.655156 59.697266 66.410156 C 59.102266 66.15349 58.595781 65.80862 58.175781 65.376953 C 57.755781 64.945286 57.428646 64.44276 57.195312 63.871094 C 56.973646 63.299427 56.863281 62.700312 56.863281 62.070312 C 56.863281 61.416979 56.973646 60.804089 57.195312 60.232422 C 57.416979 59.649089 57.738203 59.140651 58.158203 58.708984 C 58.578203 58.265651 59.084688 57.916823 59.679688 57.660156 C 60.286354 57.40349 60.962318 57.273438 61.708984 57.273438 z M 14.166016 57.308594 L 14.445312 57.308594 C 14.515312 57.308594 14.580339 57.314505 14.638672 57.326172 L 14.638672 59.460938 C 13.927005 59.472604 13.290469 59.614479 12.730469 59.882812 C 12.170469 60.139479 11.768438 60.529688 11.523438 61.054688 L 11.523438 66.601562 L 9.1777344 66.601562 L 9.1777344 57.431641 L 11.330078 57.431641 L 11.330078 59.392578 C 11.493411 59.077578 11.686536 58.797734 11.908203 58.552734 C 12.12987 58.296068 12.368333 58.073385 12.625 57.886719 C 12.881667 57.700052 13.139818 57.56013 13.396484 57.466797 C 13.664818 57.361797 13.921016 57.308594 14.166016 57.308594 z M 26.082031 57.431641 L 28.427734 57.431641 L 28.427734 66.671875 C 28.427734 67.161875 28.344974 67.611198 28.181641 68.019531 C 28.018307 68.439531 27.791667 68.794271 27.5 69.085938 C 27.22 69.389271 26.881042 69.623776 26.484375 69.787109 C 26.099375 69.950443 25.685521 70.03125 25.242188 70.03125 C 24.798854 70.03125 24.379089 69.962266 23.982422 69.822266 C 23.585755 69.693932 23.229062 69.488984 22.914062 69.208984 L 23.929688 67.617188 C 24.058021 67.745521 24.215677 67.838151 24.402344 67.896484 C 24.58901 67.966484 24.776224 68.001953 24.962891 68.001953 C 25.266224 68.001953 25.528333 67.891589 25.75 67.669922 C 25.971667 67.459922 26.082031 67.18599 26.082031 66.847656 L 26.082031 57.431641 z M 19.736328 58.972656 C 19.421328 58.972656 19.12375 59.029818 18.84375 59.146484 C 18.575417 59.251484 18.336953 59.403229 18.126953 59.601562 C 17.916953 59.799896 17.741563 60.040313 17.601562 60.320312 C 17.473229 60.600312 17.39638 60.90776 17.373047 61.246094 L 22.134766 61.246094 C 22.076432 60.55776 21.818281 60.009896 21.363281 59.601562 C 20.919948 59.181563 20.377995 58.972656 19.736328 58.972656 z M 34.810547 58.972656 C 34.495547 58.972656 34.197969 59.029818 33.917969 59.146484 C 33.649635 59.251484 33.409219 59.403229 33.199219 59.601562 C 32.989219 59.799896 32.813828 60.040312 32.673828 60.320312 C 32.545495 60.600312 32.470599 60.90776 32.447266 61.246094 L 37.207031 61.246094 C 37.148698 60.55776 36.8925 60.009896 36.4375 59.601562 C 35.994167 59.181563 35.452214 58.972656 34.810547 58.972656 z M 61.675781 58.972656 C 61.360781 58.972656 61.063203 59.029818 60.783203 59.146484 C 60.51487 59.251484 60.274453 59.403229 60.064453 59.601562 C 59.854453 59.799896 59.679062 60.040312 59.539062 60.320312 C 59.410729 60.600312 59.335833 60.90776 59.3125 61.246094 L 64.072266 61.246094 C 64.013932 60.55776 63.757734 60.009896 63.302734 59.601562 C 62.859401 59.181563 62.317448 58.972656 61.675781 58.972656 z M 72.203125 59.269531 C 71.853125 59.269531 71.52599 59.344427 71.222656 59.496094 C 70.93099 59.64776 70.680703 59.85862 70.470703 60.126953 C 70.260703 60.38362 70.097135 60.681198 69.980469 61.019531 C 69.863802 61.357865 69.804687 61.708646 69.804688 62.070312 C 69.804688 62.455312 69.869714 62.810052 69.998047 63.136719 C 70.12638 63.463385 70.301771 63.749141 70.523438 63.994141 C 70.745104 64.239141 71.007214 64.432266 71.310547 64.572266 C 71.625547 64.712266 71.970417 64.78125 72.34375 64.78125 C 72.565417 64.78125 72.792057 64.747734 73.025391 64.677734 C 73.258724 64.596068 73.475495 64.48375 73.673828 64.34375 C 73.872161 64.20375 74.045599 64.040182 74.197266 63.853516 C 74.360599 63.666849 74.48474 63.463854 74.566406 63.242188 L 74.566406 61.054688 C 74.473073 60.798021 74.337109 60.563516 74.162109 60.353516 C 73.998776 60.131849 73.807604 59.946589 73.585938 59.794922 C 73.375937 59.631589 73.147344 59.50349 72.902344 59.410156 C 72.66901 59.316823 72.436458 59.269531 72.203125 59.269531 z "
       style="fill:#999999" /><rect
       style="fill:#808080"
       id="rect9-8"
       height="11.110153"
       width="51.309628"
       class="st0"
       y="18.661619"
       x="16.918905" /><path
       inkscape:connector-curvature="0"
       id="circle11-8"
       d="M 42.72317,1.319652e-7 A 10.420221,10.539062 0 0 0 32.30324,10.539063 10.420221,10.539062 0 0 0 42.72317,21.078125 10.420221,10.539062 0 0 0 53.14504,10.539063 10.420221,10.539062 0 0 0 42.72317,1.319652e-7 Z M 42.86379,4.279297 a 6,6 0 0 1 6,6 6,6 0 0 1 -6,6 6,6 0 0 1 -6,-6 6,6 0 0 1 6,-6 z"
       style="fill:#808080" /></g></svg>