<?xml version="1.0" encoding="utf-8"?>
<!-- Generator: Adobe Illustrator 19.2.1, SVG Export Plug-In . SVG Version: 6.00 Build 0)  -->
<svg version="1.1" id="Layer_1" xmlns="http://www.w3.org/2000/svg" xmlns:xlink="http://www.w3.org/1999/xlink" x="0px" y="0px"
	 viewBox="0 0 518.7 209.5" style="enable-background:new 0 0 518.7 209.5;" xml:space="preserve">
<style type="text/css">
	.st0{fill:#00B5E1;}
	.st1{fill:#5B2C86;}
	.st2{fill:#0D4E96;}
</style>
<g>
	<path class="st0" d="M325,169.4c-3.9,1-8.9,2-15.2,3.1c-6.2,1.1-13,1.6-20.5,1.6c-7,0-12.9-1-17.6-3c-4.7-2-8.5-4.8-11.3-8.3
		c-2.8-3.6-4.9-7.8-6.1-12.7c-1.2-4.9-1.8-10.4-1.8-16.2V84.9h20.2v45.6c0,9.3,1.4,16,4.1,20c2.7,4,7.5,6,14.2,6
		c2.4,0,5-0.1,7.7-0.3c2.7-0.2,4.7-0.5,6.1-0.8V84.9H325V169.4z"/>
	<path class="st0" d="M372.5,157.6c5.3,0,9.2-0.6,11.7-1.9c2.4-1.3,3.7-3.5,3.7-6.6c0-2.9-1.3-5.3-3.9-7.2
		c-2.6-1.9-6.9-3.9-12.9-6.2c-3.7-1.3-7-2.7-10.1-4.2c-3.1-1.5-5.7-3.2-7.9-5.2c-2.2-2-4-4.4-5.2-7.2c-1.3-2.8-1.9-6.3-1.9-10.4
		c0-8,2.9-14.3,8.8-18.9c5.9-4.6,13.9-6.9,24-6.9c5.1,0,10,0.5,14.7,1.4c4.7,0.9,8.2,1.9,10.5,2.7l-3.7,16.3c-2.2-1-5.1-1.9-8.5-2.7
		c-3.4-0.8-7.4-1.2-12-1.2c-4.1,0-7.4,0.7-10,2.1c-2.6,1.4-3.8,3.5-3.8,6.4c0,1.4,0.2,2.7,0.7,3.8c0.5,1.1,1.4,2.1,2.6,3.1
		c1.2,0.9,2.8,1.9,4.8,2.8c2,0.9,4.4,1.9,7.3,2.9c4.8,1.8,8.8,3.5,12.2,5.2c3.3,1.7,6.1,3.7,8.2,5.8c2.2,2.2,3.7,4.6,4.7,7.4
		c1,2.8,1.5,6.1,1.5,10c0,8.3-3.1,14.6-9.2,18.9c-6.2,4.3-15,6.4-26.4,6.4c-7.7,0-13.8-0.6-18.5-1.9c-4.7-1.3-7.9-2.3-9.8-3.1
		l3.5-16.8c3,1.2,6.6,2.4,10.7,3.5C362.4,157,367.2,157.6,372.5,157.6z"/>
	<path class="st0" d="M422,128.9c0-7.7,1.1-14.4,3.4-20.2c2.3-5.8,5.3-10.6,9.1-14.4c3.8-3.8,8.1-6.7,13-8.7c4.9-1.9,9.9-2.9,15-2.9
		c12,0,21.3,3.7,28.1,11.2c6.7,7.4,10.1,18.5,10.1,33.3c0,1.1,0,2.4-0.1,3.7c-0.1,1.4-0.1,2.6-0.2,3.7h-57.5c0.6,7,3,12.4,7.4,16.2
		c4.4,3.8,10.7,5.7,19.1,5.7c4.9,0,9.4-0.4,13.4-1.3c4.1-0.9,7.2-1.8,9.6-2.8l2.7,16.5c-1.1,0.6-2.6,1.1-4.6,1.7
		c-1.9,0.6-4.2,1.2-6.7,1.7c-2.5,0.5-5.2,0.9-8.1,1.2c-2.9,0.3-5.8,0.5-8.8,0.5c-7.7,0-14.3-1.1-20-3.4c-5.7-2.3-10.3-5.4-14-9.5
		c-3.7-4.1-6.4-8.8-8.2-14.3C422.9,141.5,422,135.5,422,128.9z M480.4,119.9c0-2.8-0.4-5.4-1.2-7.9c-0.8-2.5-1.9-4.7-3.4-6.5
		c-1.5-1.8-3.3-3.3-5.5-4.3c-2.2-1.1-4.7-1.6-7.7-1.6c-3.1,0-5.8,0.6-8.2,1.7c-2.3,1.2-4.3,2.7-5.9,4.6c-1.6,1.9-2.9,4.1-3.7,6.5
		c-0.9,2.4-1.5,4.9-1.8,7.5H480.4z"/>
	<path class="st0" d="M173,172.4V84.8h59.1V105h-38.9v15h34.6v18.7h-34.6v33.9H173z"/>
	<g>
		<path class="st0" d="M291.8,202.1c0,0.9,0,1.8,0.2,2.6h-1.8l-0.2-1.3H290c-0.6,0.8-1.7,1.6-3.3,1.6c-2.2,0-3.3-1.5-3.3-3.1
			c0-2.6,2.3-4,6.4-4v-0.2c0-0.9-0.2-2.5-2.4-2.5c-1,0-2,0.3-2.8,0.8l-0.4-1.3c0.9-0.6,2.2-0.9,3.5-0.9c3.3,0,4,2.2,4,4.4V202.1z
			 M289.9,199.2c-2.1,0-4.5,0.3-4.5,2.4c0,1.3,0.8,1.8,1.8,1.8c1.4,0,2.3-0.9,2.6-1.8c0.1-0.2,0.1-0.4,0.1-0.6V199.2z"/>
		<path class="st0" d="M299.6,190c0.9-0.2,2.1-0.3,3.7-0.3c1.9,0,3.3,0.4,4.2,1.2c0.8,0.7,1.3,1.8,1.3,3.1c0,1.3-0.4,2.4-1.1,3.2
			c-1,1.1-2.7,1.6-4.5,1.6c-0.6,0-1.1,0-1.5-0.1v5.9h-1.9V190z M301.5,197.2c0.4,0.1,0.9,0.2,1.6,0.2c2.3,0,3.7-1.1,3.7-3.2
			c0-2-1.4-2.9-3.5-2.9c-0.8,0-1.5,0.1-1.8,0.2V197.2z"/>
		<path class="st0" d="M318.2,202.1c0,0.9,0,1.8,0.2,2.6h-1.8l-0.2-1.3h-0.1c-0.6,0.8-1.7,1.6-3.3,1.6c-2.2,0-3.3-1.5-3.3-3.1
			c0-2.6,2.3-4,6.4-4v-0.2c0-0.9-0.2-2.5-2.4-2.5c-1,0-2,0.3-2.8,0.8l-0.4-1.3c0.9-0.6,2.2-0.9,3.5-0.9c3.3,0,4,2.2,4,4.4V202.1z
			 M316.3,199.2c-2.1,0-4.5,0.3-4.5,2.4c0,1.3,0.8,1.8,1.8,1.8c1.4,0,2.3-0.9,2.6-1.8c0.1-0.2,0.1-0.4,0.1-0.6V199.2z"/>
		<path class="st0" d="M323.5,191.5v2.5h2.8v1.5h-2.8v5.7c0,1.3,0.4,2.1,1.5,2.1c0.5,0,0.8,0,1.1-0.1l0.1,1.5
			c-0.4,0.2-1,0.3-1.7,0.3c-0.9,0-1.6-0.3-2.1-0.8c-0.5-0.6-0.7-1.5-0.7-2.8v-5.8H320V194h1.6v-2L323.5,191.5z"/>
		<path class="st0" d="M330.8,191.5v2.5h2.8v1.5h-2.8v5.7c0,1.3,0.4,2.1,1.5,2.1c0.5,0,0.8,0,1.1-0.1l0.1,1.5
			c-0.4,0.2-1,0.3-1.7,0.3c-0.9,0-1.6-0.3-2.1-0.8c-0.5-0.6-0.7-1.5-0.7-2.8v-5.8h-1.6V194h1.6v-2L330.8,191.5z"/>
		<path class="st0" d="M336.7,199.7c0,2.6,1.7,3.7,3.7,3.7c1.4,0,2.2-0.2,2.9-0.5l0.3,1.4c-0.7,0.3-1.8,0.7-3.5,0.7
			c-3.3,0-5.2-2.2-5.2-5.4c0-3.2,1.9-5.7,5-5.7c3.5,0,4.4,3.1,4.4,5c0,0.4,0,0.7-0.1,0.9H336.7z M342.4,198.3c0-1.2-0.5-3.1-2.7-3.1
			c-2,0-2.8,1.8-3,3.1H342.4z"/>
		<path class="st0" d="M346.6,197.3c0-1.3,0-2.3-0.1-3.3h1.7l0.1,2.1h0.1c0.5-1.4,1.6-2.3,2.9-2.3c0.2,0,0.4,0,0.5,0.1v1.8
			c-0.2,0-0.4-0.1-0.7-0.1c-1.4,0-2.3,1-2.6,2.5c0,0.3-0.1,0.6-0.1,0.9v5.7h-1.9V197.3z"/>
		<path class="st0" d="M353.6,202.7c0.6,0.4,1.6,0.8,2.6,0.8c1.4,0,2.1-0.7,2.1-1.6c0-0.9-0.5-1.4-2-2c-1.9-0.7-2.8-1.7-2.8-3
			c0-1.7,1.4-3.1,3.7-3.1c1.1,0,2,0.3,2.6,0.7l-0.5,1.4c-0.4-0.3-1.2-0.6-2.2-0.6c-1.1,0-1.8,0.7-1.8,1.5c0,0.9,0.6,1.3,2,1.8
			c1.8,0.7,2.8,1.6,2.8,3.2c0,1.9-1.5,3.2-4,3.2c-1.2,0-2.2-0.3-3-0.7L353.6,202.7z"/>
		<path class="st0" d="M372.2,199.2c0,3.9-2.7,5.7-5.3,5.7c-2.9,0-5.1-2.1-5.1-5.5c0-3.6,2.3-5.7,5.3-5.7
			C370.1,193.8,372.2,196,372.2,199.2z M363.7,199.4c0,2.3,1.3,4.1,3.2,4.1c1.8,0,3.2-1.7,3.2-4.1c0-1.8-0.9-4.1-3.2-4.1
			C364.7,195.2,363.7,197.3,363.7,199.4z"/>
		<path class="st0" d="M374.6,196.9c0-1.1,0-2-0.1-2.9h1.7l0.1,1.8h0c0.5-1,1.8-2,3.5-2c1.5,0,3.8,0.9,3.8,4.5v6.4h-1.9v-6.1
			c0-1.7-0.6-3.1-2.5-3.1c-1.3,0-2.3,0.9-2.6,2c-0.1,0.2-0.1,0.6-0.1,0.9v6.4h-1.9V196.9z"/>
		<path class="st0" d="M393.4,191.5h-4.5v-1.6h11v1.6h-4.5v13.2h-1.9V191.5z"/>
		<path class="st0" d="M401,199.7c0,2.6,1.7,3.7,3.7,3.7c1.4,0,2.2-0.2,2.9-0.5l0.3,1.4c-0.7,0.3-1.8,0.7-3.5,0.7
			c-3.3,0-5.2-2.2-5.2-5.4c0-3.2,1.9-5.7,5-5.7c3.5,0,4.4,3.1,4.4,5c0,0.4,0,0.7-0.1,0.9H401z M406.7,198.3c0-1.2-0.5-3.1-2.7-3.1
			c-2,0-2.8,1.8-3,3.1H406.7z"/>
		<path class="st0" d="M418.5,204.3c-0.5,0.3-1.6,0.6-3.1,0.6c-3.2,0-5.3-2.2-5.3-5.5c0-3.3,2.2-5.7,5.7-5.7c1.1,0,2.2,0.3,2.7,0.5
			l-0.4,1.5c-0.5-0.3-1.2-0.5-2.2-0.5c-2.4,0-3.8,1.8-3.8,4c0,2.5,1.6,4,3.7,4c1.1,0,1.8-0.3,2.4-0.5L418.5,204.3z"/>
		<path class="st0" d="M420.8,189h1.9v6.6h0c0.3-0.5,0.8-1,1.4-1.4c0.6-0.3,1.3-0.5,2-0.5c1.4,0,3.7,0.9,3.7,4.6v6.3h-1.9v-6.1
			c0-1.7-0.6-3.2-2.5-3.2c-1.3,0-2.2,0.9-2.6,1.9c-0.1,0.3-0.1,0.5-0.1,0.9v6.4h-1.9V189z"/>
		<path class="st0" d="M433,196.9c0-1.1,0-2-0.1-2.9h1.7l0.1,1.8h0c0.5-1,1.8-2,3.5-2c1.5,0,3.8,0.9,3.8,4.5v6.4h-1.9v-6.1
			c0-1.7-0.6-3.1-2.5-3.1c-1.3,0-2.3,0.9-2.6,2c-0.1,0.2-0.1,0.6-0.1,0.9v6.4H433V196.9z"/>
		<path class="st0" d="M454.8,199.2c0,3.9-2.7,5.7-5.3,5.7c-2.9,0-5.1-2.1-5.1-5.5c0-3.6,2.3-5.7,5.3-5.7
			C452.8,193.8,454.8,196,454.8,199.2z M446.4,199.4c0,2.3,1.3,4.1,3.2,4.1c1.8,0,3.2-1.7,3.2-4.1c0-1.8-0.9-4.1-3.2-4.1
			C447.4,195.2,446.4,197.3,446.4,199.4z"/>
		<path class="st0" d="M457.3,189h1.9v15.6h-1.9V189z"/>
		<path class="st0" d="M472.1,199.2c0,3.9-2.7,5.7-5.3,5.7c-2.9,0-5.1-2.1-5.1-5.5c0-3.6,2.3-5.7,5.3-5.7
			C470,193.8,472.1,196,472.1,199.2z M463.6,199.4c0,2.3,1.3,4.1,3.2,4.1c1.8,0,3.2-1.7,3.2-4.1c0-1.8-0.9-4.1-3.2-4.1
			C464.6,195.2,463.6,197.3,463.6,199.4z"/>
		<path class="st0" d="M483.6,203.1c0,2.4-0.5,3.9-1.5,4.9c-1,1-2.5,1.3-3.9,1.3c-1.3,0-2.7-0.3-3.5-0.9l0.5-1.5
			c0.7,0.4,1.8,0.8,3.1,0.8c2,0,3.4-1,3.4-3.7v-1.2h0c-0.6,1-1.7,1.8-3.4,1.8c-2.6,0-4.5-2.2-4.5-5.2c0-3.6,2.4-5.7,4.8-5.7
			c1.8,0,2.9,1,3.3,1.8h0l0.1-1.6h1.7c0,0.8-0.1,1.6-0.1,2.9V203.1z M481.7,198.2c0-0.3,0-0.6-0.1-0.9c-0.4-1.1-1.3-2-2.7-2
			c-1.8,0-3.2,1.6-3.2,4c0,2.1,1.1,3.8,3.1,3.8c1.2,0,2.3-0.7,2.7-2c0.1-0.3,0.2-0.7,0.2-1V198.2z"/>
		<path class="st0" d="M487.5,194l2.3,6.3c0.2,0.7,0.5,1.5,0.7,2.2h0c0.2-0.6,0.4-1.5,0.7-2.2l2.1-6.2h2l-2.9,7.6
			c-1.4,3.7-2.3,5.5-3.6,6.7c-0.9,0.8-1.9,1.2-2.4,1.3l-0.5-1.6c0.5-0.2,1.1-0.5,1.7-0.9c0.5-0.4,1.2-1.2,1.6-2.2
			c0.1-0.2,0.2-0.4,0.2-0.5c0-0.1,0-0.3-0.1-0.5l-3.9-9.8H487.5z"/>
	</g>
	<g>
		<path class="st1" d="M89.6,66.3c-2.8,0-5.4-1.7-6.6-4.4c-1.5-3.6,0.2-7.8,3.9-9.3l19.6-8.1c3.6-1.5,7.8,0.2,9.3,3.9
			c1.5,3.6-0.2,7.8-3.9,9.3l-19.6,8.1C91.5,66.1,90.5,66.3,89.6,66.3z"/>
		<ellipse transform="matrix(0.9239 -0.3827 0.3827 0.9239 -6.5681 52.6263)" class="st1" cx="129" cy="42.8" rx="7.1" ry="7.1"/>
		<path class="st0" d="M109.3,92.3c-0.9,0-1.8-0.2-2.7-0.5l-19.6-8.1c-3.6-1.5-5.4-5.7-3.9-9.3s5.7-5.4,9.3-3.9l19.6,8.1
			c3.6,1.5,5.4,5.7,3.9,9.3C114.7,90.6,112.1,92.3,109.3,92.3z"/>
		<ellipse transform="matrix(0.3827 -0.9239 0.9239 0.3827 -6.5682 176.7801)" class="st2" cx="129" cy="93.3" rx="7.1" ry="7.1"/>
		<path class="st1" d="M85.1,116.4c-2.8,0-5.4-1.7-6.6-4.4l-8.1-19.6c-1.5-3.6,0.2-7.8,3.9-9.3c3.6-1.5,7.8,0.2,9.3,3.9l8.1,19.6
			c1.5,3.6-0.2,7.8-3.9,9.3C87,116.2,86,116.4,85.1,116.4z"/>
		<ellipse transform="matrix(0.9239 -0.3827 0.3827 0.9239 -42.2642 45.5258)" class="st1" cx="93.3" cy="129" rx="7.1" ry="7.1"/>
		<path class="st0" d="M51,116.4c-0.9,0-1.8-0.2-2.7-0.5c-3.6-1.5-5.4-5.7-3.9-9.3l8.1-19.6c1.5-3.6,5.7-5.4,9.3-3.9
			c3.6,1.5,5.4,5.7,3.9,9.3L57.6,112C56.4,114.7,53.8,116.4,51,116.4z"/>
		<ellipse transform="matrix(0.3827 -0.9239 0.9239 0.3827 -92.7461 119.1976)" class="st2" cx="42.8" cy="129" rx="7.1" ry="7.1"/>
		<path class="st1" d="M26.9,92.3c-2.8,0-5.4-1.7-6.6-4.4c-1.5-3.6,0.2-7.8,3.9-9.3l19.6-8.1c3.6-1.5,7.8,0.2,9.3,3.9
			c1.5,3.6-0.2,7.8-3.9,9.3l-19.6,8.1C28.7,92.1,27.8,92.3,26.9,92.3z"/>
		<ellipse transform="matrix(0.9239 -0.3827 0.3827 0.9239 -35.1637 9.8297)" class="st1" cx="7.1" cy="93.3" rx="7.1" ry="7.1"/>
		<path class="st0" d="M46.5,66.3c-0.9,0-1.8-0.2-2.7-0.5l-19.6-8.1c-3.6-1.5-5.4-5.7-3.9-9.3c1.5-3.6,5.7-5.4,9.3-3.9l19.6,8.1
			c3.6,1.5,5.4,5.7,3.9,9.3C51.9,64.6,49.3,66.3,46.5,66.3z"/>
		<ellipse transform="matrix(0.3827 -0.9239 0.9239 0.3827 -35.1636 33.0198)" class="st2" cx="7.1" cy="42.8" rx="7.1" ry="7.1"/>
		<path class="st1" d="M59.1,53.6c-2.8,0-5.4-1.7-6.6-4.4l-8.1-19.6c-1.5-3.6,0.2-7.8,3.9-9.3c3.6-1.5,7.8,0.2,9.3,3.9l8.1,19.6
			c1.5,3.6-0.2,7.8-3.9,9.3C61,53.4,60,53.6,59.1,53.6z"/>
		<ellipse transform="matrix(0.9239 -0.3827 0.3827 0.9239 0.5324 16.9302)" class="st1" cx="42.8" cy="7.1" rx="7.1" ry="7.1"/>
		<path class="st0" d="M77,53.6c-0.9,0-1.8-0.2-2.7-0.5c-3.6-1.5-5.4-5.7-3.9-9.3l8.1-19.6c1.5-3.6,5.7-5.4,9.3-3.9
			c3.6,1.5,5.4,5.7,3.9,9.3l-8.1,19.6C82.4,52,79.8,53.6,77,53.6z"/>
		<ellipse transform="matrix(0.3827 -0.9239 0.9239 0.3827 51.0143 90.6023)" class="st2" cx="93.3" cy="7.1" rx="7.1" ry="7.1"/>
	</g>
	<g>
		<g>
			<path class="st0" d="M512.8,93.8l-1.4-2.5h-1.1v2.5h-1.5v-7h3.3c1.5,0,2.3,1,2.3,2.3c0,1.2-0.8,1.9-1.5,2.1l1.6,2.7H512.8z
				 M513,89c0-0.6-0.5-0.9-1-0.9h-1.6V90h1.6C512.5,90,513,89.6,513,89z"/>
		</g>
		<path class="st0" d="M511.6,97.5c-3.9,0-7.1-3.2-7.1-7.1s3.2-7.1,7.1-7.1c3.9,0,7.1,3.2,7.1,7.1S515.5,97.5,511.6,97.5z
			 M511.6,84.6c-3.2,0-5.8,2.6-5.8,5.8s2.6,5.8,5.8,5.8c3.2,0,5.8-2.6,5.8-5.8S514.8,84.6,511.6,84.6z"/>
	</g>
</g>
</svg>
