<?xml version="1.0" encoding="utf-8"?>
<!-- Generator: Adobe Illustrator 19.2.1, SVG Export Plug-In . SVG Version: 6.00 Build 0)  -->
<svg version="1.1" id="Layer_1" xmlns="http://www.w3.org/2000/svg" xmlns:xlink="http://www.w3.org/1999/xlink" x="0px" y="0px"
	 viewBox="0 0 518.7 209.5" style="enable-background:new 0 0 518.7 209.5;" xml:space="preserve">
<style type="text/css">
	.st0{fill:#5B2C86;}
	.st1{fill:#00B5E1;}
	.st2{fill:#0D4E96;}
	.st3{fill:#FFFFFF;}
</style>
<g>
	<path class="st3" d="M325.6,169.4c-3.9,1-8.9,2-15.2,3.1c-6.2,1.1-13,1.6-20.5,1.6c-7,0-12.9-1-17.6-3c-4.7-2-8.5-4.8-11.3-8.3
		c-2.8-3.6-4.9-7.8-6.1-12.7c-1.2-4.9-1.8-10.4-1.8-16.2V84.9h20.2v45.6c0,9.3,1.4,16,4.1,20c2.7,4,7.5,6,14.2,6
		c2.4,0,5-0.1,7.7-0.3c2.7-0.2,4.7-0.5,6.1-0.8V84.9h20.1V169.4z"/>
	<path class="st3" d="M373,157.6c5.3,0,9.2-0.6,11.7-1.9c2.4-1.3,3.7-3.5,3.7-6.6c0-2.9-1.3-5.3-3.9-7.2c-2.6-1.9-6.9-3.9-12.9-6.2
		c-3.7-1.3-7-2.7-10.1-4.2c-3.1-1.5-5.7-3.2-7.9-5.2c-2.2-2-4-4.4-5.2-7.2c-1.3-2.8-1.9-6.3-1.9-10.4c0-8,2.9-14.3,8.8-18.9
		c5.9-4.6,13.9-6.9,24-6.9c5.1,0,10,0.5,14.7,1.4c4.7,0.9,8.2,1.9,10.5,2.7l-3.7,16.3c-2.2-1-5.1-1.9-8.5-2.7
		c-3.4-0.8-7.4-1.2-12-1.2c-4.1,0-7.4,0.7-10,2.1c-2.6,1.4-3.8,3.5-3.8,6.4c0,1.4,0.2,2.7,0.7,3.8c0.5,1.1,1.4,2.1,2.6,3.1
		c1.2,0.9,2.8,1.9,4.8,2.8c2,0.9,4.4,1.9,7.3,2.9c4.8,1.8,8.8,3.5,12.2,5.2c3.3,1.7,6.1,3.7,8.2,5.8c2.2,2.2,3.7,4.6,4.7,7.4
		c1,2.8,1.5,6.1,1.5,10c0,8.3-3.1,14.6-9.2,18.9c-6.2,4.3-15,6.4-26.4,6.4c-7.7,0-13.8-0.6-18.5-1.9c-4.7-1.3-7.9-2.3-9.8-3.1
		l3.5-16.8c3,1.2,6.6,2.4,10.7,3.5C363,157,367.7,157.6,373,157.6z"/>
	<path class="st3" d="M422.5,128.9c0-7.7,1.1-14.4,3.4-20.2c2.3-5.8,5.3-10.6,9.1-14.4c3.8-3.8,8.1-6.7,13-8.7
		c4.9-1.9,9.9-2.9,15-2.9c12,0,21.3,3.7,28.1,11.2c6.7,7.4,10.1,18.5,10.1,33.3c0,1.1,0,2.4-0.1,3.7c-0.1,1.4-0.1,2.6-0.2,3.7h-57.5
		c0.6,7,3,12.4,7.4,16.2c4.4,3.8,10.7,5.7,19.1,5.7c4.9,0,9.4-0.4,13.4-1.3c4.1-0.9,7.2-1.8,9.6-2.8l2.7,16.5
		c-1.1,0.6-2.6,1.1-4.6,1.7c-1.9,0.6-4.2,1.2-6.7,1.7c-2.5,0.5-5.2,0.9-8.1,1.2c-2.9,0.3-5.8,0.5-8.8,0.5c-7.7,0-14.3-1.1-20-3.4
		c-5.7-2.3-10.3-5.4-14-9.5c-3.7-4.1-6.4-8.8-8.2-14.3C423.4,141.5,422.5,135.5,422.5,128.9z M480.9,119.9c0-2.8-0.4-5.4-1.2-7.9
		c-0.8-2.5-1.9-4.7-3.4-6.5c-1.5-1.8-3.3-3.3-5.5-4.3c-2.2-1.1-4.7-1.6-7.7-1.6c-3.1,0-5.8,0.6-8.2,1.7c-2.3,1.2-4.3,2.7-5.9,4.6
		c-1.6,1.9-2.9,4.1-3.7,6.5c-0.9,2.4-1.5,4.9-1.8,7.5H480.9z"/>
	<path class="st3" d="M173.6,172.4V84.8h59.1V105h-38.9v15h34.6v18.7h-34.6v33.9H173.6z"/>
	<g>
		<path class="st3" d="M292.3,202.1c0,0.9,0,1.8,0.2,2.6h-1.8l-0.2-1.3h-0.1c-0.6,0.8-1.7,1.6-3.3,1.6c-2.2,0-3.3-1.5-3.3-3.1
			c0-2.6,2.3-4,6.4-4v-0.2c0-0.9-0.2-2.5-2.4-2.5c-1,0-2,0.3-2.8,0.8l-0.4-1.3c0.9-0.6,2.2-0.9,3.5-0.9c3.3,0,4,2.2,4,4.4V202.1z
			 M290.4,199.2c-2.1,0-4.5,0.3-4.5,2.4c0,1.3,0.8,1.8,1.8,1.8c1.4,0,2.3-0.9,2.6-1.8c0.1-0.2,0.1-0.4,0.1-0.6V199.2z"/>
		<path class="st3" d="M300.2,190c0.9-0.2,2.1-0.3,3.7-0.3c1.9,0,3.3,0.4,4.2,1.2c0.8,0.7,1.3,1.8,1.3,3.1c0,1.3-0.4,2.4-1.1,3.2
			c-1,1.1-2.7,1.6-4.5,1.6c-0.6,0-1.1,0-1.5-0.1v5.9h-1.9V190z M302.1,197.2c0.4,0.1,0.9,0.2,1.6,0.2c2.3,0,3.7-1.1,3.7-3.2
			c0-2-1.4-2.9-3.5-2.9c-0.8,0-1.5,0.1-1.8,0.2V197.2z"/>
		<path class="st3" d="M318.7,202.1c0,0.9,0,1.8,0.2,2.6h-1.8l-0.2-1.3h-0.1c-0.6,0.8-1.7,1.6-3.3,1.6c-2.2,0-3.3-1.5-3.3-3.1
			c0-2.6,2.3-4,6.4-4v-0.2c0-0.9-0.2-2.5-2.4-2.5c-1,0-2,0.3-2.8,0.8l-0.4-1.3c0.9-0.6,2.2-0.9,3.5-0.9c3.3,0,4,2.2,4,4.4V202.1z
			 M316.8,199.2c-2.1,0-4.5,0.3-4.5,2.4c0,1.3,0.8,1.8,1.8,1.8c1.4,0,2.3-0.9,2.6-1.8c0.1-0.2,0.1-0.4,0.1-0.6V199.2z"/>
		<path class="st3" d="M324.1,191.5v2.5h2.8v1.5h-2.8v5.7c0,1.3,0.4,2.1,1.5,2.1c0.5,0,0.8,0,1.1-0.1l0.1,1.5
			c-0.4,0.2-1,0.3-1.7,0.3c-0.9,0-1.6-0.3-2.1-0.8c-0.5-0.6-0.7-1.5-0.7-2.8v-5.8h-1.6V194h1.6v-2L324.1,191.5z"/>
		<path class="st3" d="M331.3,191.5v2.5h2.8v1.5h-2.8v5.7c0,1.3,0.4,2.1,1.5,2.1c0.5,0,0.8,0,1.1-0.1l0.1,1.5
			c-0.4,0.2-1,0.3-1.7,0.3c-0.9,0-1.6-0.3-2.1-0.8c-0.5-0.6-0.7-1.5-0.7-2.8v-5.8h-1.6V194h1.6v-2L331.3,191.5z"/>
		<path class="st3" d="M337.2,199.7c0,2.6,1.7,3.7,3.7,3.7c1.4,0,2.2-0.2,2.9-0.5l0.3,1.4c-0.7,0.3-1.8,0.7-3.5,0.7
			c-3.3,0-5.2-2.2-5.2-5.4c0-3.2,1.9-5.7,5-5.7c3.5,0,4.4,3.1,4.4,5c0,0.4,0,0.7-0.1,0.9H337.2z M342.9,198.3c0-1.2-0.5-3.1-2.7-3.1
			c-2,0-2.8,1.8-3,3.1H342.9z"/>
		<path class="st3" d="M347.2,197.3c0-1.3,0-2.3-0.1-3.3h1.7l0.1,2.1h0.1c0.5-1.4,1.6-2.3,2.9-2.3c0.2,0,0.4,0,0.5,0.1v1.8
			c-0.2,0-0.4-0.1-0.7-0.1c-1.4,0-2.3,1-2.6,2.5c0,0.3-0.1,0.6-0.1,0.9v5.7h-1.9V197.3z"/>
		<path class="st3" d="M354.1,202.7c0.6,0.4,1.6,0.8,2.6,0.8c1.4,0,2.1-0.7,2.1-1.6c0-0.9-0.5-1.4-2-2c-1.9-0.7-2.8-1.7-2.8-3
			c0-1.7,1.4-3.1,3.7-3.1c1.1,0,2,0.3,2.6,0.7l-0.5,1.4c-0.4-0.3-1.2-0.6-2.2-0.6c-1.1,0-1.8,0.7-1.8,1.5c0,0.9,0.6,1.3,2,1.8
			c1.8,0.7,2.8,1.6,2.8,3.2c0,1.9-1.5,3.2-4,3.2c-1.2,0-2.2-0.3-3-0.7L354.1,202.7z"/>
		<path class="st3" d="M372.7,199.2c0,3.9-2.7,5.7-5.3,5.7c-2.9,0-5.1-2.1-5.1-5.5c0-3.6,2.3-5.7,5.3-5.7
			C370.6,193.8,372.7,196,372.7,199.2z M364.2,199.4c0,2.3,1.3,4.1,3.2,4.1c1.8,0,3.2-1.7,3.2-4.1c0-1.8-0.9-4.1-3.2-4.1
			C365.2,195.2,364.2,197.3,364.2,199.4z"/>
		<path class="st3" d="M375.1,196.9c0-1.1,0-2-0.1-2.9h1.7l0.1,1.8h0c0.5-1,1.8-2,3.5-2c1.5,0,3.8,0.9,3.8,4.5v6.4h-1.9v-6.1
			c0-1.7-0.6-3.1-2.5-3.1c-1.3,0-2.3,0.9-2.6,2c-0.1,0.2-0.1,0.6-0.1,0.9v6.4h-1.9V196.9z"/>
		<path class="st3" d="M394,191.5h-4.5v-1.6h11v1.6h-4.5v13.2H394V191.5z"/>
		<path class="st3" d="M401.5,199.7c0,2.6,1.7,3.7,3.7,3.7c1.4,0,2.2-0.2,2.9-0.5l0.3,1.4c-0.7,0.3-1.8,0.7-3.5,0.7
			c-3.3,0-5.2-2.2-5.2-5.4c0-3.2,1.9-5.7,5-5.7c3.5,0,4.4,3.1,4.4,5c0,0.4,0,0.7-0.1,0.9H401.5z M407.2,198.3c0-1.2-0.5-3.1-2.7-3.1
			c-2,0-2.8,1.8-3,3.1H407.2z"/>
		<path class="st3" d="M419.1,204.3c-0.5,0.3-1.6,0.6-3.1,0.6c-3.2,0-5.3-2.2-5.3-5.5c0-3.3,2.2-5.7,5.7-5.7c1.1,0,2.2,0.3,2.7,0.5
			l-0.4,1.5c-0.5-0.3-1.2-0.5-2.2-0.5c-2.4,0-3.8,1.8-3.8,4c0,2.5,1.6,4,3.7,4c1.1,0,1.8-0.3,2.4-0.5L419.1,204.3z"/>
		<path class="st3" d="M421.3,189h1.9v6.6h0c0.3-0.5,0.8-1,1.4-1.4c0.6-0.3,1.3-0.5,2-0.5c1.4,0,3.7,0.9,3.7,4.6v6.3h-1.9v-6.1
			c0-1.7-0.6-3.2-2.5-3.2c-1.3,0-2.2,0.9-2.6,1.9c-0.1,0.3-0.1,0.5-0.1,0.9v6.4h-1.9V189z"/>
		<path class="st3" d="M433.5,196.9c0-1.1,0-2-0.1-2.9h1.7l0.1,1.8h0c0.5-1,1.8-2,3.5-2c1.5,0,3.8,0.9,3.8,4.5v6.4h-1.9v-6.1
			c0-1.7-0.6-3.1-2.5-3.1c-1.3,0-2.3,0.9-2.6,2c-0.1,0.2-0.1,0.6-0.1,0.9v6.4h-1.9V196.9z"/>
		<path class="st3" d="M455.4,199.2c0,3.9-2.7,5.7-5.3,5.7c-2.9,0-5.1-2.1-5.1-5.5c0-3.6,2.3-5.7,5.3-5.7
			C453.3,193.8,455.4,196,455.4,199.2z M446.9,199.4c0,2.3,1.3,4.1,3.2,4.1c1.8,0,3.2-1.7,3.2-4.1c0-1.8-0.9-4.1-3.2-4.1
			C447.9,195.2,446.9,197.3,446.9,199.4z"/>
		<path class="st3" d="M457.8,189h1.9v15.6h-1.9V189z"/>
		<path class="st3" d="M472.6,199.2c0,3.9-2.7,5.7-5.3,5.7c-2.9,0-5.1-2.1-5.1-5.5c0-3.6,2.3-5.7,5.3-5.7
			C470.6,193.8,472.6,196,472.6,199.2z M464.2,199.4c0,2.3,1.3,4.1,3.2,4.1c1.8,0,3.2-1.7,3.2-4.1c0-1.8-0.9-4.1-3.2-4.1
			C465.2,195.2,464.2,197.3,464.2,199.4z"/>
		<path class="st3" d="M484.1,203.1c0,2.4-0.5,3.9-1.5,4.9c-1,1-2.5,1.3-3.9,1.3c-1.3,0-2.7-0.3-3.5-0.9l0.5-1.5
			c0.7,0.4,1.8,0.8,3.1,0.8c2,0,3.4-1,3.4-3.7v-1.2h0c-0.6,1-1.7,1.8-3.4,1.8c-2.6,0-4.5-2.2-4.5-5.2c0-3.6,2.4-5.7,4.8-5.7
			c1.8,0,2.9,1,3.3,1.8h0l0.1-1.6h1.7c0,0.8-0.1,1.6-0.1,2.9V203.1z M482.2,198.2c0-0.3,0-0.6-0.1-0.9c-0.4-1.1-1.3-2-2.7-2
			c-1.8,0-3.2,1.6-3.2,4c0,2.1,1.1,3.8,3.1,3.8c1.2,0,2.3-0.7,2.7-2c0.1-0.3,0.2-0.7,0.2-1V198.2z"/>
		<path class="st3" d="M488.1,194l2.3,6.3c0.2,0.7,0.5,1.5,0.7,2.2h0c0.2-0.6,0.4-1.5,0.7-2.2l2.1-6.2h2l-2.9,7.6
			c-1.4,3.7-2.3,5.5-3.6,6.7c-0.9,0.8-1.9,1.2-2.4,1.3l-0.5-1.6c0.5-0.2,1.1-0.5,1.7-0.9c0.5-0.4,1.2-1.2,1.6-2.2
			c0.1-0.2,0.2-0.4,0.2-0.5c0-0.1,0-0.3-0.1-0.5l-3.9-9.8H488.1z"/>
	</g>
	<g>
		<path class="st3" d="M90.2,66.3c-2.8,0-5.4-1.7-6.6-4.4c-1.5-3.6,0.2-7.8,3.9-9.3l19.6-8.1c3.6-1.5,7.8,0.2,9.3,3.9
			c1.5,3.6-0.2,7.8-3.9,9.3l-19.6,8.1C92,66.1,91.1,66.3,90.2,66.3z"/>
		<ellipse transform="matrix(0.9239 -0.3827 0.3827 0.9239 -6.5281 52.8275)" class="st3" cx="129.5" cy="42.8" rx="7.1" ry="7.1"/>
		<path class="st3" d="M109.8,92.3c-0.9,0-1.8-0.2-2.7-0.5l-19.6-8.1c-3.6-1.5-5.4-5.7-3.9-9.3s5.7-5.4,9.3-3.9l19.6,8.1
			c3.6,1.5,5.4,5.7,3.9,9.3C115.2,90.6,112.6,92.3,109.8,92.3z"/>
		
			<ellipse transform="matrix(0.3827 -0.9239 0.9239 0.3827 -6.2437 177.2659)" class="st3" cx="129.5" cy="93.3" rx="7.1" ry="7.1"/>
		<path class="st3" d="M85.7,116.4c-2.8,0-5.4-1.7-6.6-4.4l-8.1-19.6c-1.5-3.6,0.2-7.8,3.9-9.3c3.6-1.5,7.8,0.2,9.3,3.9l8.1,19.6
			c1.5,3.6-0.2,7.8-3.9,9.3C87.5,116.2,86.6,116.4,85.7,116.4z"/>
		<ellipse transform="matrix(0.9239 -0.3827 0.3827 0.9239 -42.2242 45.727)" class="st3" cx="93.8" cy="129" rx="7.1" ry="7.1"/>
		<path class="st3" d="M51.5,116.4c-0.9,0-1.8-0.2-2.7-0.5c-3.6-1.5-5.4-5.7-3.9-9.3l8.1-19.6c1.5-3.6,5.7-5.4,9.3-3.9
			c3.6,1.5,5.4,5.7,3.9,9.3L58.1,112C57,114.7,54.3,116.4,51.5,116.4z"/>
		<ellipse transform="matrix(0.3827 -0.9239 0.9239 0.3827 -92.4215 119.6834)" class="st3" cx="43.3" cy="129" rx="7.1" ry="7.1"/>
		<path class="st3" d="M27.4,92.3c-2.8,0-5.4-1.7-6.6-4.4c-1.5-3.6,0.2-7.8,3.9-9.3l19.6-8.1c3.6-1.5,7.8,0.2,9.3,3.9
			c1.5,3.6-0.2,7.8-3.9,9.3l-19.6,8.1C29.2,92.1,28.3,92.3,27.4,92.3z"/>
		<ellipse transform="matrix(0.9239 -0.3827 0.3827 0.9239 -35.1237 10.0309)" class="st3" cx="7.7" cy="93.3" rx="7.1" ry="7.1"/>
		<path class="st3" d="M47,66.3c-0.9,0-1.8-0.2-2.7-0.5l-19.6-8.1c-3.6-1.5-5.4-5.7-3.9-9.3c1.5-3.6,5.7-5.4,9.3-3.9l19.6,8.1
			c3.6,1.5,5.4,5.7,3.9,9.3C52.5,64.6,49.8,66.3,47,66.3z"/>
		<ellipse transform="matrix(0.3827 -0.9239 0.9239 0.3827 -34.839 33.5055)" class="st3" cx="7.7" cy="42.8" rx="7.1" ry="7.1"/>
		<path class="st3" d="M59.7,53.6c-2.8,0-5.4-1.7-6.6-4.4l-8.1-19.6c-1.5-3.6,0.2-7.8,3.9-9.3c3.6-1.5,7.8,0.2,9.3,3.9l8.1,19.6
			c1.5,3.6-0.2,7.8-3.9,9.3C61.5,53.4,60.6,53.6,59.7,53.6z"/>
		<ellipse transform="matrix(0.9239 -0.3827 0.3827 0.9239 0.5724 17.1314)" class="st3" cx="43.3" cy="7.1" rx="7.1" ry="7.1"/>
		<path class="st3" d="M77.5,53.6c-0.9,0-1.8-0.2-2.7-0.5c-3.6-1.5-5.4-5.7-3.9-9.3l8.1-19.6c1.5-3.6,5.7-5.4,9.3-3.9
			c3.6,1.5,5.4,5.7,3.9,9.3l-8.1,19.6C83,52,80.3,53.6,77.5,53.6z"/>
		<ellipse transform="matrix(0.3827 -0.9239 0.9239 0.3827 51.3389 91.0881)" class="st3" cx="93.8" cy="7.1" rx="7.1" ry="7.1"/>
	</g>
	<g>
		<path class="st3" d="M507.2,82.8v1.9h-2.4v6.1h-2.2v-6.1h-2.4v-1.9H507.2z M517.5,82.8c0.1,0.8,0.3,1.9,0.3,3.1
			c0.1,1.3,0.2,2.9,0.3,4.9h-2.1c0-0.8-0.1-1.7-0.1-2.7c0-1-0.1-1.8-0.2-2.6c-0.2,0.3-0.4,0.7-0.6,1.1c-0.2,0.4-0.4,0.8-0.6,1.2
			c-0.2,0.4-0.4,0.8-0.6,1.1c-0.2,0.4-0.3,0.6-0.4,0.8h-1.2c-0.1-0.2-0.2-0.5-0.4-0.8c-0.2-0.3-0.4-0.7-0.6-1.1
			c-0.2-0.4-0.4-0.8-0.6-1.2c-0.2-0.4-0.4-0.8-0.6-1.1c-0.1,0.8-0.1,1.7-0.2,2.6c0,1-0.1,1.8-0.1,2.7h-2.1c0.2-2,0.3-3.6,0.4-4.9
			s0.2-2.3,0.3-3.1h2.2c0.3,0.6,0.6,1.2,1,2c0.4,0.8,0.8,1.6,1.2,2.5c0.4-0.8,0.8-1.7,1.3-2.5s0.8-1.5,1-2H517.5z"/>
	</g>
</g>
</svg>
