<?xml version="1.0" encoding="UTF-8"?>
<svg xmlns="http://www.w3.org/2000/svg" xmlns:xlink="http://www.w3.org/1999/xlink" width="20px" height="20px" viewBox="0 0 20 20" version="1.1">
<g id="surface1">
<path style=" stroke:none;fill-rule:nonzero;fill:rgb(100%,100%,100%);fill-opacity:1;" d="M 8.332031 13.332031 L 8.332031 12.5 L 2.507812 12.5 L 2.5 15.832031 C 2.5 16.757812 3.242188 17.5 4.167969 17.5 L 15.832031 17.5 C 16.757812 17.5 17.5 16.757812 17.5 15.832031 L 17.5 12.5 L 11.667969 12.5 L 11.667969 13.332031 Z M 16.667969 5.832031 L 13.324219 5.832031 L 13.324219 4.167969 L 11.660156 2.5 L 8.324219 2.5 L 6.660156 4.167969 L 6.660156 5.832031 L 3.332031 5.832031 C 2.417969 5.832031 1.667969 6.582031 1.667969 7.5 L 1.667969 10 C 1.667969 10.925781 2.410156 11.667969 3.332031 11.667969 L 8.332031 11.667969 L 8.332031 10 L 11.667969 10 L 11.667969 11.667969 L 16.667969 11.667969 C 17.582031 11.667969 18.332031 10.917969 18.332031 10 L 18.332031 7.5 C 18.332031 6.582031 17.582031 5.832031 16.667969 5.832031 Z M 11.667969 5.832031 L 8.332031 5.832031 L 8.332031 4.167969 L 11.667969 4.167969 Z M 11.667969 5.832031 "/>
</g>
</svg>
