<?xml version="1.0" encoding="UTF-8" standalone="no"?>
<!-- Created with Inkscape (http://www.inkscape.org/) -->

<svg
   xmlns:dc="http://purl.org/dc/elements/1.1/"
   xmlns:cc="http://creativecommons.org/ns#"
   xmlns:rdf="http://www.w3.org/1999/02/22-rdf-syntax-ns#"
   xmlns:svg="http://www.w3.org/2000/svg"
   xmlns="http://www.w3.org/2000/svg"
   xmlns:sodipodi="http://sodipodi.sourceforge.net/DTD/sodipodi-0.dtd"
   xmlns:inkscape="http://www.inkscape.org/namespaces/inkscape"
   width="33.866665mm"
   height="44.932533mm"
   viewBox="0 0 119.99999 159.20976"
   id="svg2"
   version="1.1"
   inkscape:version="0.91 r13725"
   sodipodi:docname="tooth_tag.svg">
  <defs
     id="defs4" />
  <sodipodi:namedview
     id="base"
     pagecolor="#ffffff"
     bordercolor="#666666"
     borderopacity="1.0"
     inkscape:pageopacity="0.0"
     inkscape:pageshadow="2"
     inkscape:zoom="0.35"
     inkscape:cx="-651.85727"
     inkscape:cy="65.102708"
     inkscape:document-units="px"
     inkscape:current-layer="layer1"
     showgrid="false"
     fit-margin-top="0"
     fit-margin-left="0"
     fit-margin-right="0"
     fit-margin-bottom="0"
     inkscape:window-width="1920"
     inkscape:window-height="1021"
     inkscape:window-x="1432"
     inkscape:window-y="-8"
     inkscape:window-maximized="1" />
  <metadata
     id="metadata7">
    <rdf:RDF>
      <cc:Work
         rdf:about="">
        <dc:format>image/svg+xml</dc:format>
        <dc:type
           rdf:resource="http://purl.org/dc/dcmitype/StillImage" />
        <dc:title></dc:title>
      </cc:Work>
    </rdf:RDF>
  </metadata>
  <g
     inkscape:label="Layer 1"
     inkscape:groupmode="layer"
     id="layer1"
     transform="translate(-368.28584,-438.25514)">
    <path
       style="opacity:1;fill:#666666;fill-opacity:1;stroke:#666666;stroke-width:0.0255148;stroke-miterlimit:4;stroke-dasharray:none;stroke-opacity:1"
       d="m 399.91601,597.09635 c -1.95054,-0.56301 -2.54055,-0.93102 -4.08448,-2.54705 -1.74704,-1.82894 -2.12464,-2.38825 -3.69507,-5.47391 -1.46343,-2.87496 -2.94396,-6.81744 -3.49697,-9.31289 -0.17001,-0.77201 -0.39501,-1.51823 -0.50001,-1.65843 -0.1,-0.14 -0.38001,-1.11632 -0.61601,-2.16884 -0.23501,-1.05242 -0.59902,-2.60245 -0.80802,-3.44437 -0.95702,-3.86437 -2.46595,-13.32596 -3.19556,-20.02919 -0.13001,-1.19273 -0.32001,-9.8726 -0.42501,-19.28838 -0.135,-12.33145 -0.27001,-17.21974 -0.48501,-17.47765 -0.165,-0.197 -0.38001,-0.93202 -0.48001,-1.63373 -0.195,-1.33803 -2.01244,-7.15934 -2.38295,-7.63395 -0.12,-0.151 -0.295,-0.61201 -0.39501,-1.02272 -0.1,-0.41101 -0.51701,-1.46813 -0.92801,-2.34945 -0.41001,-0.88101 -0.74902,-1.68213 -0.74902,-1.77963 0,-0.1 -0.34501,-0.90602 -0.76601,-1.79744 -0.42001,-0.89101 -0.76502,-1.70673 -0.76502,-1.81263 0,-0.106 -0.265,-0.70902 -0.59201,-1.33893 -0.32501,-0.63001 -0.75102,-1.66283 -0.94602,-2.29424 -0.195,-0.63202 -0.42501,-1.20563 -0.50601,-1.27583 -0.15,-0.124 -0.52401,-1.19592 -1.92904,-5.48561 -0.37,-1.12272 -0.82001,-2.38564 -1.00552,-2.80665 -0.185,-0.42101 -0.42,-1.22473 -0.52301,-1.78604 -0.105,-0.56201 -0.35,-1.47983 -0.54901,-2.04124 -0.66801,-1.88014 -1.51403,-7.24874 -1.77843,-11.29152 -0.07,-1.15592 0.09,-3.31177 0.42501,-5.74091 1.32842,-9.48499 4.86089,-16.31783 10.68451,-20.66811 2.11954,-1.58313 2.65655,-1.87114 6.23752,-3.34617 2.64295,-1.08852 7.50455,-1.58353 11.66013,-1.18722 2.82045,0.26901 8.36396,1.35693 9.20958,1.80714 0.225,0.119 0.68301,0.269 1.02092,0.333 0.33501,0.07 1.44553,0.35601 2.46305,0.65001 9.02108,2.60376 12.60555,3.33127 17.31464,3.51417 4.75149,0.18501 9.50659,-0.64401 18.34206,-3.19656 4.42849,-1.27932 9.61209,-2.57265 11.48213,-2.86486 2.99646,-0.469 8.75447,-0.401 11.20852,0.13101 5.54811,1.20252 10.59711,4.47719 13.77957,8.93687 2.72205,3.81488 4.30808,7.94726 5.55201,14.46889 0.81702,4.28508 0.76101,11.20252 -0.12,15.1377 -1.60844,7.16094 -5.146,17.06833 -9.38149,26.27321 -0.90102,1.95834 -3.11606,8.36117 -3.44507,9.9577 -0.82101,3.98488 -0.89301,5.46381 -0.97602,19.93199 -0.07,11.04042 -0.19,15.95962 -0.50501,19.48839 -0.23,2.59615 -0.48,5.0074 -0.55101,5.3581 -0.28,1.36103 -0.39,2.00264 -0.76701,4.59269 -1.01202,6.90724 -3.46097,17.03144 -5.30701,21.94264 -2.46054,6.54572 -5.95351,11.23712 -8.93747,12.00313 -0.58101,0.149 -1.34453,0.36201 -1.69554,0.47301 -0.35,0.11 -0.98201,0.112 -1.40312,0.002 -0.42001,-0.109 -1.25993,-0.32701 -1.86444,-0.48401 -2.45465,-0.63701 -4.23508,-3.27356 -5.3241,-7.88315 -1.04993,-4.44369 -1.09133,-4.7881 -1.25303,-10.36251 -0.15,-5.0922 0.18,-12.21944 0.93002,-20.02909 0.125,-1.33323 0.245,-4.8612 0.255,-7.83996 0.05,-4.87089 -0.05,-5.77001 -0.65701,-8.93027 -1.30002,-6.72464 -3.05846,-10.50221 -6.36542,-13.67567 -0.70602,-0.67702 -1.62804,-1.40863 -2.04904,-1.62543 -0.42001,-0.21701 -0.93702,-0.53601 -1.14803,-0.71102 -0.99902,-0.82701 -4.48509,-1.70943 -7.30304,-1.84963 -2.83206,-0.14001 -6.84914,0.269 -7.13264,0.72901 -0.07,0.123 -0.35001,0.224 -0.61201,0.224 -0.66702,0 -3.75448,1.67854 -4.9155,2.67246 -2.63655,2.25654 -4.79049,5.85551 -6.03752,10.085 -1.64803,5.59171 -1.90504,10.543 -1.19152,22.95205 0.58201,10.1128 0.77501,20.5607 0.43501,23.50956 -0.34001,2.92706 -1.50953,7.56515 -2.31505,9.16048 -1.09452,2.16664 -2.59805,3.39037 -4.67459,3.80418 -0.59501,0.118 -1.25343,0.274 -1.46343,0.345 -0.21,0.07 -1.11162,-0.08 -2.00204,-0.338 l 0,0 z"
       id="path5963"
       inkscape:connector-curvature="0" />
  </g>
</svg>
