<?xml version="1.0" encoding="UTF-8" standalone="no"?>
<svg
   xmlns:dc="http://purl.org/dc/elements/1.1/"
   xmlns:cc="http://creativecommons.org/ns#"
   xmlns:rdf="http://www.w3.org/1999/02/22-rdf-syntax-ns#"
   xmlns:svg="http://www.w3.org/2000/svg"
   xmlns="http://www.w3.org/2000/svg"
   xmlns:sodipodi="http://sodipodi.sourceforge.net/DTD/sodipodi-0.dtd"
   xmlns:inkscape="http://www.inkscape.org/namespaces/inkscape"
   width="1792"
   height="1792"
   viewBox="0 0 1792 1792"
   version="1.1"
   id="svg4"
   sodipodi:docname="usd.svg"
   inkscape:version="0.92.2 5c3e80d, 2017-08-06">
  <metadata
     id="metadata10">
    <rdf:RDF>
      <cc:Work
         rdf:about="">
        <dc:format>image/svg+xml</dc:format>
        <dc:type
           rdf:resource="http://purl.org/dc/dcmitype/StillImage" />
      </cc:Work>
    </rdf:RDF>
  </metadata>
  <defs
     id="defs8" />
  <sodipodi:namedview
     pagecolor="#ffffff"
     bordercolor="#666666"
     borderopacity="1"
     objecttolerance="10"
     gridtolerance="10"
     guidetolerance="10"
     inkscape:pageopacity="0"
     inkscape:pageshadow="2"
     inkscape:window-width="774"
     inkscape:window-height="480"
     id="namedview6"
     showgrid="false"
     inkscape:zoom="0.13169643"
     inkscape:cx="896"
     inkscape:cy="896"
     inkscape:window-x="0"
     inkscape:window-y="0"
     inkscape:window-maximized="0"
     inkscape:current-layer="svg4" />
  <path
     d="M1362 1185q0 153-99.5 263.5t-258.5 136.5v175q0 14-9 23t-23 9h-135q-13 0-22.5-9.5t-9.5-22.5v-175q-66-9-127.5-31t-101.5-44.5-74-48-46.5-37.5-17.5-18q-17-21-2-41l103-135q7-10 23-12 15-2 24 9l2 2q113 99 243 125 37 8 74 8 81 0 142.5-43t61.5-122q0-28-15-53t-33.5-42-58.5-37.5-66-32-80-32.5q-39-16-61.5-25t-61.5-26.5-62.5-31-56.5-35.5-53.5-42.5-43.5-49-35.5-58-21-66.5-8.5-78q0-138 98-242t255-134v-180q0-13 9.5-22.5t22.5-9.5h135q14 0 23 9t9 23v176q57 6 110.5 23t87 33.5 63.5 37.5 39 29 15 14q17 18 5 38l-81 146q-8 15-23 16-14 3-27-7-3-3-14.5-12t-39-26.5-58.5-32-74.5-26-85.5-11.5q-95 0-155 43t-60 111q0 26 8.5 48t29.5 41.5 39.5 33 56 31 60.5 27 70 27.5q53 20 81 31.5t76 35 75.5 42.5 62 50 53 63.5 31.5 76.5 13 94z"
     id="path2"
     style="fill:#04b3de;fill-opacity:1" />
</svg>
