<svg id="Layer_1" data-name="Layer 1" xmlns="http://www.w3.org/2000/svg" viewBox="0 0 16 16"><defs><style>.cls-1{fill:#fff;}.cls-2,.cls-4{fill:none;stroke:#464646;stroke-miterlimit:10;}.cls-2{stroke-width:1.3px;}.cls-3,.cls-5{fill:#464646;}.cls-4{stroke-width:1.51px;}.cls-5{font-size:7.31px;font-family:Ubuntu-Bold, Ubuntu;font-weight:700;}</style></defs><title>18T0105_PtAlertFlagIcons_FINAL2</title><rect class="cls-1" width="16" height="16"/><path class="cls-2" d="M9.76,7.49c.67.91,1.11,1.54,1.33,1.86a5,5,0,0,1,.62,1.16,3.29,3.29,0,0,1,.16,1.09,3.42,3.42,0,0,1-.52,1.84,3.86,3.86,0,0,1-1.41,1.34,3.82,3.82,0,0,1-1.94.5,3.82,3.82,0,0,1-1.94-.5,3.86,3.86,0,0,1-1.41-1.34,3.42,3.42,0,0,1-.52-1.84,3.29,3.29,0,0,1,.16-1.09,5,5,0,0,1,.62-1.16c.22-.32.66-1,1.33-1.86C7.39,6,8.59,5.91,9.76,7.49Z"/><circle class="cls-3" cx="8" cy="11.44" r="1.61"/><path class="cls-4" d="M8.22,11.8s1.78,2.4,4.27,2.4H16"/><text class="cls-5" transform="translate(0.33 5.25)">DDS</text></svg>