<svg id="Layer_1" data-name="Layer 1" xmlns="http://www.w3.org/2000/svg" viewBox="0 0 16 16"><defs><style>.cls-1{fill:#fff;}.cls-2{fill:#464646;}</style></defs><title>18T0105_PtAlertFlagIcons_FINAL2</title><rect class="cls-1" width="16" height="16"/><path class="cls-2" d="M8.83,15.92a7.68,7.68,0,0,1-3.95-1.07A8,8,0,0,1,2,12,7.73,7.73,0,0,1,.92,8,7.67,7.67,0,0,1,2,4a7.93,7.93,0,0,1,2.9-2.88,7.68,7.68,0,0,1,4-1.07,7.85,7.85,0,0,1,1.46.13.36.36,0,0,1,.29.31.37.37,0,0,1-.17.4,5.88,5.88,0,0,0-2.3,2.26A6,6,0,0,0,7.26,6.3,6.14,6.14,0,0,0,11,12a6.14,6.14,0,0,0,3.62.4.31.31,0,0,1,.37.17A.36.36,0,0,1,15,13a7.77,7.77,0,0,1-2.72,2.17A7.91,7.91,0,0,1,8.83,15.92Z"/></svg>