<svg id="Layer_1" data-name="Layer 1" xmlns="http://www.w3.org/2000/svg" viewBox="0 0 16 16"><defs><style>.cls-1{fill:#fff;}.cls-2,.cls-3{fill:#464646;}.cls-3{font-size:7px;font-family:Ubuntu-Bold, Ubuntu;font-weight:700;}</style></defs><title>18T0105_PtAlertFlagIcons_FINAL2</title><rect class="cls-1" width="16" height="16"/><path class="cls-2" d="M6.84,13.62a2.37,2.37,0,0,0-.94.92.78.78,0,0,0-.11.65.82.82,0,0,0,.39.54.85.85,0,0,0,.66.1.76.76,0,0,0,.54-.4.85.85,0,0,1,1.44,0,.79.79,0,0,0,.57.35A.82.82,0,0,0,10,15.6a.8.8,0,0,0,.36-.55.94.94,0,0,0-.14-.65,2.78,2.78,0,0,0-.93-.81,2.49,2.49,0,0,0-1.21-.3A2.59,2.59,0,0,0,6.84,13.62Z"/><path class="cls-2" d="M5.56,10.49A5.18,5.18,0,0,0,3.68,12.3a.82.82,0,0,0-.11.65.85.85,0,0,0,.39.54.88.88,0,0,0,.67.11.85.85,0,0,0,.54-.41A3.4,3.4,0,0,1,6.41,12a3.35,3.35,0,0,1,1.7-.45,3.44,3.44,0,0,1,1.6.39A3.37,3.37,0,0,1,11,13a.88.88,0,0,0,.57.36.8.8,0,0,0,.65-.14.81.81,0,0,0,.38-.71.75.75,0,0,0-.16-.48,5,5,0,0,0-1.87-1.65,5.09,5.09,0,0,0-2.41-.6A5,5,0,0,0,5.56,10.49Z"/><path class="cls-2" d="M1.35,10.71a.84.84,0,0,0,.39.54.88.88,0,0,0,.67.11A.82.82,0,0,0,3,11a5.94,5.94,0,0,1,2.18-2.1,5.8,5.8,0,0,1,3-.79,6,6,0,0,1,2.82.69,5.81,5.81,0,0,1,2.16,1.93.91.91,0,0,0,.57.34.84.84,0,0,0,.65-.13.81.81,0,0,0,.35-.56.89.89,0,0,0-.14-.65,8,8,0,0,0-2.8-2.46,7.75,7.75,0,0,0-7.43.12,7.94,7.94,0,0,0-2.83,2.72A.83.83,0,0,0,1.35,10.71Z"/><text class="cls-3" transform="translate(2.59 5.07)">NO</text></svg>