<svg id="Layer_1" data-name="Layer 1" xmlns="http://www.w3.org/2000/svg" viewBox="0 0 16 16"><defs><style>.cls-1{fill:#fff;}.cls-2{fill:#464646;}</style></defs><title>18T0105_PtAlertFlagIcons_FINAL2</title><rect class="cls-1" width="16" height="16"/><path class="cls-2" d="M14.44,2.05a1.23,1.23,0,0,1,.91.37,1.26,1.26,0,0,1,.38.92v9.44a1.26,1.26,0,0,1-.38.92,1.23,1.23,0,0,1-.91.37H1.56A1.26,1.26,0,0,1,.27,12.78V3.34A1.26,1.26,0,0,1,1.56,2.05ZM1.72,3.34a.14.14,0,0,0-.11.05.18.18,0,0,0-.05.11V4.62H14.44V3.5a.18.18,0,0,0,0-.11.15.15,0,0,0-.11-.05Zm12.56,9.44a.15.15,0,0,0,.11,0,.16.16,0,0,0,0-.11V8.06H1.56v4.56a.16.16,0,0,0,.05.11.14.14,0,0,0,.11,0ZM5.42,10.1a.31.31,0,0,0-.32-.32H3.17a.31.31,0,0,0-.32.32v1.07a.32.32,0,0,0,.09.23.33.33,0,0,0,.23.1H5.1a.33.33,0,0,0,.23-.1.32.32,0,0,0,.09-.23Zm5.16,0a.33.33,0,0,0-.1-.23.32.32,0,0,0-.23-.09H6.6a.29.29,0,0,0-.22.09.29.29,0,0,0-.1.23v1.07a.29.29,0,0,0,.1.23.3.3,0,0,0,.22.1h3.65a.34.34,0,0,0,.33-.33Z"/></svg>