<svg id="Layer_1" data-name="Layer 1" xmlns="http://www.w3.org/2000/svg" xmlns:xlink="http://www.w3.org/1999/xlink" viewBox="0 0 16 16"><defs><style>.cls-1{fill:none;}.cls-2{fill:#fff;}.cls-3{clip-path:url(#clip-path);}.cls-4{fill:#464646;}</style><clipPath id="clip-path"><rect class="cls-1" width="16" height="16"/></clipPath></defs><title>18T0105_PtAlertFlagIcons_FINAL2</title><rect class="cls-2" width="16" height="16"/><g class="cls-3"><path class="cls-4" d="M1.79,8.11h0a4.55,4.55,0,0,1,4.55,4.55v6.21a0,0,0,0,1,0,0h-9a0,0,0,0,1,0,0v-6.3A4.46,4.46,0,0,1,1.79,8.11Z" transform="translate(10.08 2.65) rotate(45)"/><path class="cls-4" d="M9.37,7.93c.7-.7,2.12-.42,3.17.63a3.07,3.07,0,0,1,.29.34,4.42,4.42,0,0,0,.47-.39,4.93,4.93,0,1,0-7,0A4.87,4.87,0,0,0,9.18,9.9,1.8,1.8,0,0,1,9.37,7.93Z"/><path class="cls-4" d="M14.69,12.66a.31.31,0,0,1,.16-.21.41.41,0,0,1,.27,0l.32.1a.31.31,0,0,1,.22.16.29.29,0,0,1,0,.26l-.77,2.68a.35.35,0,0,1-.17.21.3.3,0,0,1-.26,0l-2.68-.78a.32.32,0,0,1-.21-.16.3.3,0,0,1,0-.26l.09-.33a.33.33,0,0,1,.17-.21.3.3,0,0,1,.26,0l1.3.36-1.71-3.13a.3.3,0,0,1,0-.26.28.28,0,0,1,.17-.21l.3-.17a.32.32,0,0,1,.27,0,.29.29,0,0,1,.2.16L14.3,14Z"/></g></svg>