<svg id="Layer_1" data-name="Layer 1" xmlns="http://www.w3.org/2000/svg" viewBox="0 0 16 16"><defs><style>.cls-1{fill:#fff;}.cls-2,.cls-3{fill:#464646;}.cls-3{font-size:6.97px;font-family:Ubuntu-Bold, Ubuntu;font-weight:700;}</style></defs><title>18T0105_PtAlertFlagIcons_FINAL2</title><rect class="cls-1" width="16" height="16"/><path class="cls-2" d="M2.33,6.06a2.24,2.24,0,0,1,1.11.29,2.3,2.3,0,0,1,.8.81,2.19,2.19,0,0,1,0,2.21,2.36,2.36,0,0,1-.8.8,2.19,2.19,0,0,1-2.21,0,2.19,2.19,0,0,1-.8-.8,2.22,2.22,0,0,1,.8-3A2.23,2.23,0,0,1,2.33,6.06Zm0,4a1.72,1.72,0,0,0,.89-.24,1.76,1.76,0,0,0,.65-.65,1.72,1.72,0,0,0,.24-.89,1.78,1.78,0,0,0-.89-1.54,1.72,1.72,0,0,0-.89-.24,1.75,1.75,0,0,0-.89.24,1.92,1.92,0,0,0-.65.65,1.75,1.75,0,0,0-.24.89,1.72,1.72,0,0,0,.24.89,1.92,1.92,0,0,0,.65.65A1.75,1.75,0,0,0,2.33,10Z"/><path class="cls-2" d="M8,6.06a2.18,2.18,0,0,1,1.1.29,2.25,2.25,0,0,1,.81.81,2.19,2.19,0,0,1,0,2.21,2.3,2.3,0,0,1-.81.8,2.09,2.09,0,0,1-1.1.3,2.12,2.12,0,0,1-1.1-.3,2.3,2.3,0,0,1-.81-.8,2.25,2.25,0,0,1,0-2.21,2.25,2.25,0,0,1,.81-.81A2.2,2.2,0,0,1,8,6.06Z"/><path class="cls-2" d="M13.63,6.06a2.2,2.2,0,0,1,1.1.29,2.25,2.25,0,0,1,.81.81,2.25,2.25,0,0,1,0,2.21,2.3,2.3,0,0,1-.81.8,2.12,2.12,0,0,1-1.1.3,2.09,2.09,0,0,1-1.1-.3,2.3,2.3,0,0,1-.81-.8,2.19,2.19,0,0,1,0-2.21,2.25,2.25,0,0,1,.81-.81A2.18,2.18,0,0,1,13.63,6.06Zm0,4a1.72,1.72,0,0,0,.89-.24,1.84,1.84,0,0,0,.65-.65,1.72,1.72,0,0,0,.24-.89,1.75,1.75,0,0,0-.24-.89,1.84,1.84,0,0,0-.65-.65,1.77,1.77,0,0,0-1.78,0,1.84,1.84,0,0,0-.65.65,1.75,1.75,0,0,0-.24.89,1.72,1.72,0,0,0,.24.89,1.84,1.84,0,0,0,.65.65A1.72,1.72,0,0,0,13.63,10Z"/><path class="cls-2" d="M2.33,11.43a2.15,2.15,0,0,1,1.11.3,2.19,2.19,0,0,1,.8.8,2.19,2.19,0,0,1,0,2.21,2.27,2.27,0,0,1-.8.8,2.19,2.19,0,0,1-2.21,0,2.12,2.12,0,0,1-.8-.8,2.19,2.19,0,0,1,0-2.21,2.05,2.05,0,0,1,.8-.8A2.14,2.14,0,0,1,2.33,11.43Z"/><path class="cls-2" d="M8,11.43a2.09,2.09,0,0,1,1.1.3,2.19,2.19,0,0,1,.81,3,2.22,2.22,0,0,1-.81.8,2.09,2.09,0,0,1-1.1.3,2.12,2.12,0,0,1-1.1-.3,2.22,2.22,0,0,1-.81-.8,2.19,2.19,0,0,1,.81-3A2.12,2.12,0,0,1,8,11.43Zm0,4a1.72,1.72,0,0,0,.89-.24,1.76,1.76,0,0,0,.65-.65,1.75,1.75,0,0,0,0-1.77,1.76,1.76,0,0,0-.65-.65,1.77,1.77,0,0,0-1.78,0,1.76,1.76,0,0,0-.65.65,1.75,1.75,0,0,0,0,1.77,1.76,1.76,0,0,0,.65.65A1.72,1.72,0,0,0,8,15.41Z"/><path class="cls-2" d="M13.63,11.43a2.12,2.12,0,0,1,1.1.3,2.22,2.22,0,0,1,.81,3,2.22,2.22,0,0,1-.81.8,2.12,2.12,0,0,1-1.1.3,2.09,2.09,0,0,1-1.1-.3,2.22,2.22,0,0,1-.81-.8,2.19,2.19,0,0,1,.81-3A2.09,2.09,0,0,1,13.63,11.43Z"/><text class="cls-3" transform="translate(3.11 5.02)">PD</text></svg>