<svg id="Layer_1" data-name="Layer 1" xmlns="http://www.w3.org/2000/svg" xmlns:xlink="http://www.w3.org/1999/xlink" viewBox="0 0 16 16"><defs><style>.cls-1{fill:none;}.cls-2{fill:#fff;}.cls-3{fill:#474747;}.cls-4{fill:#464646;}.cls-5{clip-path:url(#clip-path);}</style><clipPath id="clip-path"><rect class="cls-1" width="16" height="16"/></clipPath></defs><title>18T0105_PtAlertFlagIcons_FINAL2</title><rect class="cls-2" width="16" height="16"/><path class="cls-3" d="M14.7,1.3V14.7H1.3V1.3H14.7M16,0H0V16H16V0Z"/><path class="cls-4" d="M10.94,9.65a2.23,2.23,0,0,1,1.15.31,2.2,2.2,0,0,1,.83.83,2.23,2.23,0,0,1,.31,1.15v.49a.52.52,0,0,1-.14.35.5.5,0,0,1-.35.14H3.26a.5.5,0,0,1-.35-.14.52.52,0,0,1-.14-.35v-.49a2.23,2.23,0,0,1,.31-1.15A2.2,2.2,0,0,1,3.91,10a2.23,2.23,0,0,1,1.15-.31h.59A4.43,4.43,0,0,0,8,10.3a4.41,4.41,0,0,0,2.35-.65ZM4.73,5.73A3.28,3.28,0,0,0,8,9a3.25,3.25,0,0,0,2.83-1.64,3.21,3.21,0,0,0,.44-1.63A3.27,3.27,0,0,0,9.64,2.9,3.15,3.15,0,0,0,8,2.46a3.12,3.12,0,0,0-1.63.44,3.19,3.19,0,0,0-1.2,1.19A3.25,3.25,0,0,0,4.73,5.73Z"/><g class="cls-5"><rect class="cls-2" x="1.96" y="9.84" width="20.05" height="4.23" transform="translate(-4.94 11.97) rotate(-45)"/><rect class="cls-4" x="2.36" y="10.54" width="19.19" height="2.83" transform="translate(-4.95 11.96) rotate(-45)"/></g></svg>