<svg id="Layer_1" data-name="Layer 1" xmlns="http://www.w3.org/2000/svg" viewBox="0 0 16 16"><defs><style>.cls-1{fill:#fff;}.cls-2{font-size:7.59px;font-family:Ubuntu-Bold, Ubuntu;font-weight:700;}.cls-2,.cls-3{fill:#464646;}</style></defs><title>18T0105_PtAlertFlagIcons_FINAL2</title><rect class="cls-1" width="16" height="16"/><text class="cls-2" transform="translate(1.41 15.52)">ESP</text><path class="cls-3" d="M12.53,5.91a4.85,4.85,0,0,1-1.91,1.37A6.65,6.65,0,0,1,8,7.79a6.76,6.76,0,0,1-2.43-.44A4.9,4.9,0,0,1,3,8.37a.23.23,0,0,1-.14,0,.15.15,0,0,1-.08-.11s0-.11.11-.19L3,7.9a2.72,2.72,0,0,0,.48-.53A3.37,3.37,0,0,0,3.84,6.3a3.8,3.8,0,0,1-.79-1.07A2.73,2.73,0,0,1,2.77,4a3,3,0,0,1,.71-1.9A5,5,0,0,1,5.38.74,6.83,6.83,0,0,1,8,.24a6.74,6.74,0,0,1,2.61.5,4.92,4.92,0,0,1,1.91,1.37,2.91,2.91,0,0,1,0,3.8Z"/></svg>