<svg id="Layer_1" data-name="Layer 1" xmlns="http://www.w3.org/2000/svg" viewBox="0 0 16 16"><defs><style>.cls-1,.cls-2,.cls-5{fill:#fff;}.cls-2,.cls-4{stroke:red;stroke-linecap:round;stroke-linejoin:round;}.cls-2{stroke-width:1.3px;}.cls-3{fill:red;}.cls-4{fill:red;stroke-width:1.02px;}.cls-5{font-size:5.5px;font-family:Ubuntu, Ubuntu;}</style></defs><title>18T0105_PtAlertFlagIcons_FINAL</title><rect class="cls-1" width="16" height="16"/><circle class="cls-2" cx="7.29" cy="7.26" r="6.57"/><circle class="cls-3" cx="2.97" cy="7.22" r="0.59"/><circle class="cls-3" cx="3.19" cy="9.04" r="0.59"/><circle class="cls-3" cx="4.83" cy="7.9" r="0.59"/><circle class="cls-3" cx="11.61" cy="7.22" r="0.59"/><circle class="cls-3" cx="11.39" cy="9.04" r="0.59"/><circle class="cls-3" cx="9.75" cy="7.9" r="0.59"/><path class="cls-4" d="M5.32,11.25A2,2,0,0,1,7.26,10a2.08,2.08,0,0,1,2,1.28"/><circle class="cls-3" cx="5.39" cy="4.89" r="1.06"/><path class="cls-1" d="M5.83,3.3a2.65,2.65,0,0,1-.94,1.18,3.36,3.36,0,0,1-1.51.32L4.3,3.5Z"/><circle class="cls-3" cx="9.19" cy="4.89" r="1.06"/><path class="cls-1" d="M8.75,3.3a2.65,2.65,0,0,0,.94,1.18,3.36,3.36,0,0,0,1.51.32l-.92-1.3Z"/></svg> 