<svg id="Layer_1" data-name="Layer 1" xmlns="http://www.w3.org/2000/svg" viewBox="0 0 16 16"><defs><style>.cls-1{fill:#fff;}.cls-2{fill:#464646;}</style></defs><title>18T0105_PtAlertFlagIcons_FINAL2</title><rect class="cls-1" width="16" height="16"/><path class="cls-2" d="M8,.11A7.68,7.68,0,0,1,12,1.18a8,8,0,0,1,2.88,2.88,7.83,7.83,0,0,1,0,7.9A8,8,0,0,1,12,14.84a7.83,7.83,0,0,1-7.9,0A8,8,0,0,1,1.17,12a7.83,7.83,0,0,1,0-7.9A8,8,0,0,1,4.05,1.18,7.68,7.68,0,0,1,8,.11Zm-4.14,12A5.6,5.6,0,0,0,6.2,13.58a6,6,0,0,0,5.17-.76L3.19,4.63a5.93,5.93,0,0,0-1,2.49,5.84,5.84,0,0,0,.21,2.69A5.6,5.6,0,0,0,3.86,12.15Zm8.28-8.28A5.6,5.6,0,0,0,9.8,2.44a5.84,5.84,0,0,0-2.69-.21,5.93,5.93,0,0,0-2.49,1l8.19,8.18a6,6,0,0,0,.76-5.17A5.6,5.6,0,0,0,12.14,3.87Z"/><path class="cls-2" d="M3.55,8.47a.3.3,0,0,1,.1-.21.32.32,0,0,1,.21-.08.28.28,0,0,1,.2.09l.71.7A37.46,37.46,0,0,1,9.45,5.09a2,2,0,0,1,2.06.57,2.28,2.28,0,0,1,.55,1,2.59,2.59,0,0,1,.08,1.1.29.29,0,0,1-.1.16.33.33,0,0,1-.17,0,.19.19,0,0,1-.14-.11,2.4,2.4,0,0,0-.9-1.06,1.15,1.15,0,0,0-1.05,0C9.44,7,6.45,9.69,6,10.17l.77.77a.28.28,0,0,1,.09.2.31.31,0,0,1-.07.21.27.27,0,0,1-.21.1l-2.89.22a.26.26,0,0,1-.23-.09.32.32,0,0,1-.09-.23Z"/></svg>