<svg id="Layer_1" data-name="Layer 1" xmlns="http://www.w3.org/2000/svg" viewBox="0 0 16 16"><defs><style>.cls-1{fill:#fff;}.cls-2{fill:#464646;}</style></defs><title>18T0105_PtAlertFlagIcons_FINAL2</title><rect class="cls-1" width="16" height="16"/><path class="cls-2" d="M7,4.3a1.34,1.34,0,0,1,1,.41,1.37,1.37,0,0,1,.42,1v4a.69.69,0,0,1-.21.5.67.67,0,0,1-.5.21H7.19v4A.67.67,0,0,1,7,15a.69.69,0,0,1-.5.21H4.58a.69.69,0,0,1-.5-.21.67.67,0,0,1-.21-.5v-4H3.4a.67.67,0,0,1-.5-.21.69.69,0,0,1-.21-.5v-4a1.4,1.4,0,0,1,.41-1,1.37,1.37,0,0,1,1-.41h.33a2.7,2.7,0,0,0,2.18,0ZM5.53,0A1.85,1.85,0,0,0,3.64,1.93,1.85,1.85,0,0,0,5.53,3.82,1.85,1.85,0,0,0,7.42,1.93,1.85,1.85,0,0,0,5.53,0Z"/><path class="cls-1" d="M8.82,9.29s-.65-.66-.93-.9-1.25.22-.62,1S8.57,11,8.57,11Z"/><path class="cls-2" d="M13.81,8.48a1.32,1.32,0,0,1,0,1.85l-1.07,1.08v3.23A1.3,1.3,0,0,1,11.43,16h-.15a1.36,1.36,0,0,1-.87-.32,1.34,1.34,0,0,1-.87.32H9.39a1.3,1.3,0,0,1-1.31-1.31V11.41L7,10.33A1.32,1.32,0,0,1,7,8.48a1.27,1.27,0,0,1,1.47-.26A2,2,0,0,1,9.16,7.1a1.93,1.93,0,0,1,2.5,0,2,2,0,0,1,.68,1.12,1.27,1.27,0,0,1,1.47.26Zm-.62,1.23a.38.38,0,0,0,.13-.3.39.39,0,0,0-.13-.31A.4.4,0,0,0,12.88,9a.42.42,0,0,0-.31.13l-1.32,1.32H9.57L8.25,9.1A.42.42,0,0,0,7.94,9a.4.4,0,0,0-.31.13.39.39,0,0,0-.13.31.38.38,0,0,0,.13.3L9,11v3.6a.43.43,0,0,0,.12.31.42.42,0,0,0,.31.13h.15A.42.42,0,0,0,9.85,15a.43.43,0,0,0,.12-.31V12.9h.88v1.74A.43.43,0,0,0,11,15a.42.42,0,0,0,.31.13h.15a.42.42,0,0,0,.31-.13.44.44,0,0,0,.13-.31V11Zm-2.78-2.2a1.06,1.06,0,0,0-.77.32,1.1,1.1,0,0,0,0,1.55,1.09,1.09,0,0,0,1.54,0,1.1,1.1,0,0,0,0-1.55A1.06,1.06,0,0,0,10.41,7.51Z"/></svg>