<svg id="Layer_1" data-name="Layer 1" xmlns="http://www.w3.org/2000/svg" viewBox="0 0 16 16"><defs><style>.cls-1{fill:#fff;}.cls-2{fill:#464646;}</style></defs><title>18T0105_PtAlertFlagIcons_FINAL2</title><rect class="cls-1" width="16" height="16"/><path class="cls-2" d="M7,6.45,8.88,8.29A.4.4,0,0,1,9,8.58a.38.38,0,0,1-.12.29l-.19.19a.41.41,0,0,1-.3.12.4.4,0,0,1-.29-.12L.31,1.27A.38.38,0,0,1,.19,1,.4.4,0,0,1,.31.69L.5.5A.4.4,0,0,1,.79.38.38.38,0,0,1,1.08.5L5.87,5.28a6.24,6.24,0,0,0,.87-1.39L5.71,3a.49.49,0,0,1-.14-.23.43.43,0,0,1,0-.25L6.42.64A.34.34,0,0,1,6.6.43a.35.35,0,0,1,.28,0L8.67.81A.33.33,0,0,1,8.91,1,.4.4,0,0,1,9,1.2a8.18,8.18,0,0,1-.52,2.86A8.47,8.47,0,0,1,7,6.45ZM4.2,6.67l-.5.26-.84-1a.49.49,0,0,0-.24-.14.37.37,0,0,0-.25,0L.45,6.6a.43.43,0,0,0-.21.19.39.39,0,0,0,0,.28L.62,8.86a.33.33,0,0,0,.14.24A.47.47,0,0,0,1,9.18a8,8,0,0,0,2.3-.33,8.07,8.07,0,0,0,2.08-1Z"/><path class="cls-2" d="M15.75,11.68a.14.14,0,0,1,.05.11.15.15,0,0,1,0,.13l-.35.44a.14.14,0,0,1-.12.06.21.21,0,0,1-.13-.05L11.84,9.64a.18.18,0,0,0-.11-.05.16.16,0,0,0-.11.05L8.28,12.37a.18.18,0,0,1-.12.05A.14.14,0,0,1,8,12.36l-.35-.44a.2.2,0,0,1,0-.13.19.19,0,0,1,0-.11l3.6-3a.64.64,0,0,1,.43-.16.66.66,0,0,1,.44.16l1.26,1v-1a.17.17,0,0,1,.17-.17h.79a.17.17,0,0,1,.12,0,.13.13,0,0,1,.05.12v2Zm-1.19.86a.24.24,0,0,0-.05-.14l-2.67-2.18a.17.17,0,0,0-.11,0,.15.15,0,0,0-.11,0L9,12.4a.2.2,0,0,0-.06.14v2a.37.37,0,0,0,.1.24.33.33,0,0,0,.24.1h1.65a.17.17,0,0,0,.17-.17V13.15a.17.17,0,0,1,.17-.17h1a.17.17,0,0,1,.17.17v1.59a.17.17,0,0,0,.17.17h1.64a.3.3,0,0,0,.24-.1.33.33,0,0,0,.1-.24Z"/></svg>