<svg id="Layer_1" data-name="Layer 1" xmlns="http://www.w3.org/2000/svg" viewBox="0 0 16 16"><defs><style>.cls-1{fill:#fff;}.cls-2{fill:#464646;}</style></defs><title>18T0105_PtAlertFlagIcons_FINAL2</title><rect class="cls-1" width="16" height="16"/><path class="cls-2" d="M11.2,13.86H1a.52.52,0,0,1-.38-.15.5.5,0,0,1-.15-.37v-.53a2.36,2.36,0,0,1,.72-1.75,2.38,2.38,0,0,1,1.75-.72h.63a5,5,0,0,0,5.09,0h.63a2.38,2.38,0,0,1,1.56.55l-.25.25a1.1,1.1,0,0,0,0,1.57l.7.7a1.16,1.16,0,0,0,.36.25A.53.53,0,0,1,11.2,13.86ZM3,4.34A3.49,3.49,0,0,1,4.32,3.06a3.49,3.49,0,0,1,3.53,0A3.65,3.65,0,0,1,9.13,4.34a3.49,3.49,0,0,1,0,3.53A3.65,3.65,0,0,1,7.85,9.15a3.49,3.49,0,0,1-3.53,0A3.49,3.49,0,0,1,3,7.87,3.49,3.49,0,0,1,3,4.34Zm12.59,7.58a.36.36,0,0,0-.07-.22l-1.09-1.06,1.09-1.06a.36.36,0,0,0,.07-.22.28.28,0,0,0-.07-.21l-.73-.73a.3.3,0,0,0-.21-.07.34.34,0,0,0-.22.07L13.34,9.51,12.28,8.42a.37.37,0,0,0-.23-.07.27.27,0,0,0-.2.07l-.73.73a.28.28,0,0,0-.07.21.36.36,0,0,0,.07.22l1.09,1.06L11.12,11.7a.36.36,0,0,0-.07.22.28.28,0,0,0,.07.21l.73.73a.27.27,0,0,0,.2.07.37.37,0,0,0,.23-.07l1.06-1.09,1.06,1.09a.34.34,0,0,0,.22.07.3.3,0,0,0,.21-.07l.73-.73A.28.28,0,0,0,15.63,11.92Z"/></svg>