<svg id="Layer_1" data-name="Layer 1" xmlns="http://www.w3.org/2000/svg" viewBox="0 0 16 16"><defs><style>.cls-1{fill:#fff;}.cls-2{fill:#464646;}.cls-3{fill:none;stroke:#464646;stroke-miterlimit:10;stroke-width:1.3px;}</style></defs><title>18T0105_PtAlertFlagIcons_FINAL2</title><rect class="cls-1" width="16" height="16"/><circle class="cls-2" cx="5.94" cy="4.29" r="1.16"/><path class="cls-2" d="M11,9.63a.58.58,0,0,1-.73-.38,2.33,2.33,0,0,0-4.44,0,.59.59,0,0,1-.73.38A.58.58,0,0,1,4.7,8.9a3.49,3.49,0,0,1,6.66,0A.58.58,0,0,1,11,9.63Z"/><circle class="cls-2" cx="10.11" cy="4.29" r="1.16"/><path class="cls-3" d="M14.08,3A2.15,2.15,0,0,0,11.93.8H9.3c-.4,0-.8.5-1.3.5S7.17.8,6.7.8H4.07A2.15,2.15,0,0,0,1.92,3V7.53c0,1,.69,1.38.69,1.58A9.85,9.85,0,0,0,2.32,12c.37,2.34,1.82,3.42,2.62,3.14S4.58,10.94,8,10.94s2.25,3.93,3.05,4.22,2.25-.8,2.62-3.14a10.14,10.14,0,0,0-.29-2.91c0-.26.69-.5.69-1.58Z"/></svg>