<svg id="Layer_1" data-name="Layer 1" xmlns="http://www.w3.org/2000/svg" viewBox="0 0 16 16"><defs><style>.cls-1{fill:#fff;}.cls-2{fill:#464646;}</style></defs><title>18T0105_PtAlertFlagIcons_FINAL2</title><rect class="cls-1" width="16" height="16"/><path class="cls-2" d="M15.41,14.91a.17.17,0,0,1,.12.05.13.13,0,0,1,.05.12v.28H9.23v-.28a.17.17,0,0,1,0-.12.21.21,0,0,1,.12-.05h.29V8.45A.34.34,0,0,1,10,8.11h4.76a.33.33,0,0,1,.24.1.3.3,0,0,1,.1.24v6.46ZM11.05,9.18v.57a.13.13,0,0,0,0,.12.17.17,0,0,0,.12.05h.56a.17.17,0,0,0,.12-.05.13.13,0,0,0,0-.12V9.18a.16.16,0,0,0,0-.12A.17.17,0,0,0,11.78,9h-.56a.17.17,0,0,0-.12.05A.16.16,0,0,0,11.05,9.18Zm0,1.36v.57a.13.13,0,0,0,0,.12.17.17,0,0,0,.12,0h.56a.17.17,0,0,0,.12,0,.13.13,0,0,0,0-.12v-.57a.16.16,0,0,0,0-.12.17.17,0,0,0-.12-.05h-.56a.17.17,0,0,0-.12.05A.16.16,0,0,0,11.05,10.54Zm.73,2.1a.17.17,0,0,0,.17-.17V11.9a.16.16,0,0,0,0-.12.17.17,0,0,0-.12,0h-.56a.17.17,0,0,0-.12,0,.16.16,0,0,0,0,.12v.57a.17.17,0,0,0,.17.17Zm1.08,2.27V13.72a.17.17,0,0,0-.17-.17h-.57a.21.21,0,0,0-.12,0,.17.17,0,0,0-.05.12v1.19Zm.91-5.16V9.18a.21.21,0,0,0,0-.12A.17.17,0,0,0,13.6,9H13a.17.17,0,0,0-.12.05.21.21,0,0,0-.05.12v.57a.17.17,0,0,0,.17.17h.57a.17.17,0,0,0,.17-.17Zm0,1.36v-.57a.21.21,0,0,0,0-.12.17.17,0,0,0-.12-.05H13a.17.17,0,0,0-.12.05.21.21,0,0,0-.05.12v.57a.17.17,0,0,0,.17.17h.57a.17.17,0,0,0,.17-.17Zm0,1.36V11.9a.21.21,0,0,0,0-.12.17.17,0,0,0-.12,0H13a.17.17,0,0,0-.12,0,.21.21,0,0,0-.05.12v.57a.17.17,0,0,0,.05.12.13.13,0,0,0,.12.05h.57a.13.13,0,0,0,.12-.05A.17.17,0,0,0,13.77,12.47Z"/><path class="cls-2" d="M7,6.45,8.88,8.29A.4.4,0,0,1,9,8.58a.38.38,0,0,1-.12.29l-.19.19a.41.41,0,0,1-.3.12.4.4,0,0,1-.29-.12L.31,1.27A.38.38,0,0,1,.19,1,.4.4,0,0,1,.31.69L.5.5A.4.4,0,0,1,.79.38.38.38,0,0,1,1.08.5L5.87,5.28a6.24,6.24,0,0,0,.87-1.39L5.71,3a.49.49,0,0,1-.14-.23.43.43,0,0,1,0-.25L6.42.64A.34.34,0,0,1,6.6.43a.35.35,0,0,1,.28,0L8.67.81A.33.33,0,0,1,8.91,1,.4.4,0,0,1,9,1.2a8.18,8.18,0,0,1-.52,2.86A8.47,8.47,0,0,1,7,6.45ZM4.2,6.67l-.5.26-.84-1a.49.49,0,0,0-.24-.14.37.37,0,0,0-.25,0L.45,6.6a.43.43,0,0,0-.21.19.39.39,0,0,0,0,.28L.62,8.86a.33.33,0,0,0,.14.24A.47.47,0,0,0,1,9.18a8,8,0,0,0,2.3-.33,8.07,8.07,0,0,0,2.08-1Z"/></svg>