<svg id="Layer_1" data-name="Layer 1" xmlns="http://www.w3.org/2000/svg" viewBox="0 0 16 16"><defs><style>.cls-1{fill:#fff;}.cls-2{fill:#464646;}</style></defs><title>18T0105_PtAlertFlagIcons_FINAL2</title><rect class="cls-1" width="16" height="16"/><path class="cls-2" d="M1.5,14.14a.58.58,0,0,1-.18.42.57.57,0,0,1-.41.17H.63a.61.61,0,0,1-.42-.17A.61.61,0,0,1,0,14.14V9.41A.61.61,0,0,1,.21,9a.61.61,0,0,1,.42-.17H.91A.57.57,0,0,1,1.32,9a.58.58,0,0,1,.18.42Zm10.27-4a1.1,1.1,0,0,1-.78.32H8.53a1.19,1.19,0,0,1,.31.86,1.16,1.16,0,0,1-.46.89,1,1,0,0,1,.1.88,1.09,1.09,0,0,1-.49.67,1.34,1.34,0,0,1-.34,1.31,2.11,2.11,0,0,1-1.46.44h-.4a3.4,3.4,0,0,1-1.08-.17A3.69,3.69,0,0,1,3.92,15a4.87,4.87,0,0,0-.54-.24,3.93,3.93,0,0,0-.64-.2.53.53,0,0,1-.34-.19A.52.52,0,0,1,2.25,14V9.75a1.16,1.16,0,0,1,.69-1.08,8.44,8.44,0,0,0,1.5-.81A2.91,2.91,0,0,0,5.6,6.77a1,1,0,0,1,1-.71,1.12,1.12,0,0,1,.73.25,1.28,1.28,0,0,1,.42.62,1.17,1.17,0,0,1-.06.78,4,4,0,0,1-.35.62H11a1.06,1.06,0,0,1,.78.32,1,1,0,0,1,0,1.5Z"/><path class="cls-2" d="M14.17,4.18a2.65,2.65,0,0,1,.5,1,1.51,1.51,0,0,1-.1,1,.31.31,0,0,1-.19.18.34.34,0,0,1-.26,0l-1.71-.82-.63,1.31,0,0-.59.46a.11.11,0,0,1-.11,0,.1.1,0,0,1-.07-.1V6.46a.07.07,0,0,1,0,0l.63-1.32L9.88,4.27a.32.32,0,0,1-.17-.19.34.34,0,0,1,0-.26,1.51,1.51,0,0,1,.72-.69A2.39,2.39,0,0,1,11.5,2.9l.86-1.41-.53-.26A.32.32,0,0,1,11.66,1a.31.31,0,0,1,0-.25L12,.18A.35.35,0,0,1,12.15,0a.33.33,0,0,1,.26,0l3.43,1.65a.31.31,0,0,1,.18.19.31.31,0,0,1,0,.25l-.29.61a.32.32,0,0,1-.19.17.34.34,0,0,1-.26,0l-.53-.26Z"/></svg>