<svg id="Layer_1" data-name="Layer 1" xmlns="http://www.w3.org/2000/svg" viewBox="0 0 16 16"><defs><style>.cls-1{fill:#fff;}.cls-2{fill:#464646;}</style></defs><title>18T0105_PtAlertFlagIcons_FINAL2</title><rect class="cls-1" width="16" height="16"/><path class="cls-2" d="M9.36,2.41a.59.59,0,0,0,.35.33.54.54,0,0,0,.45-.05L12,1.58a.59.59,0,0,1,.7,0,.54.54,0,0,1,.23.65l-.5,2a.47.47,0,0,0,.1.44.54.54,0,0,0,.4.23l2.1.16a.59.59,0,0,1,.54.43.58.58,0,0,1-.2.68L13.74,7.57a.54.54,0,0,0-.21.43.56.56,0,0,0,.21.43l1.58,1.33a.58.58,0,0,1,.2.68.59.59,0,0,1-.54.43l-2.1.15a.58.58,0,0,0-.4.24.47.47,0,0,0-.1.44l.5,2a.55.55,0,0,1-.23.65.6.6,0,0,1-.7,0l-1.79-1.11a.54.54,0,0,0-.45-.05.59.59,0,0,0-.35.33L8.59,15.5a.64.64,0,0,1-1.18,0l-.77-1.91a.59.59,0,0,0-.35-.33.54.54,0,0,0-.45.05L4.05,14.42a.6.6,0,0,1-.7,0,.55.55,0,0,1-.23-.65l.5-2a.47.47,0,0,0-.1-.44.58.58,0,0,0-.4-.24L1,10.87a.59.59,0,0,1-.54-.43.58.58,0,0,1,.2-.68L2.26,8.43A.56.56,0,0,0,2.47,8a.54.54,0,0,0-.21-.43L.68,6.24a.58.58,0,0,1-.2-.68A.59.59,0,0,1,1,5.13L3.12,5a.54.54,0,0,0,.4-.23.47.47,0,0,0,.1-.44l-.5-2a.54.54,0,0,1,.23-.65.59.59,0,0,1,.7,0L5.84,2.69a.54.54,0,0,0,.45.05.59.59,0,0,0,.35-.33L7.41.5A.64.64,0,0,1,8.59.5ZM11.63,5.9A4.31,4.31,0,0,0,10.1,4.37a4.15,4.15,0,0,0-4.2,0A4.31,4.31,0,0,0,4.37,5.9a4.15,4.15,0,0,0,0,4.2A4.31,4.31,0,0,0,5.9,11.63a4.15,4.15,0,0,0,4.2,0,4.31,4.31,0,0,0,1.53-1.53,4.15,4.15,0,0,0,0-4.2Zm-.85,3.7a3.23,3.23,0,0,1-1.17,1.18,3.23,3.23,0,0,1-3.22,0A3.23,3.23,0,0,1,5.22,9.6,3.07,3.07,0,0,1,4.79,8a3.13,3.13,0,0,1,.43-1.61A3.28,3.28,0,0,1,6.39,5.22a3.23,3.23,0,0,1,3.22,0,3.28,3.28,0,0,1,1.17,1.17A3.13,3.13,0,0,1,11.21,8,3.07,3.07,0,0,1,10.78,9.6Z"/></svg>