<svg id="Layer_1" data-name="Layer 1" xmlns="http://www.w3.org/2000/svg" viewBox="0 0 16 16"><defs><style>.cls-1{fill:#fff;}.cls-2{fill:#464646;}</style></defs><title>18T0105_PtAlertFlagIcons_FINAL2</title><rect class="cls-1" width="16" height="16"/><path class="cls-2" d="M7.91.78a7.05,7.05,0,0,1,3.63,1A7.48,7.48,0,0,1,14.19,4.4a7.19,7.19,0,0,1,0,7.25,7.48,7.48,0,0,1-2.65,2.65,7.19,7.19,0,0,1-7.25,0,7.48,7.48,0,0,1-2.65-2.65,7.19,7.19,0,0,1,0-7.25A7.48,7.48,0,0,1,4.29,1.75,7,7,0,0,1,7.91.78Zm3.4,8a.72.72,0,0,0,0-1.23L6.16,4.37a.64.64,0,0,0-.7,0A.67.67,0,0,0,5.11,5v6.09a.67.67,0,0,0,.35.61.64.64,0,0,0,.7,0Z"/></svg>