<svg id="Layer_1" data-name="Layer 1" xmlns="http://www.w3.org/2000/svg" viewBox="0 0 16 16"><defs><style>.cls-1{fill:#fff;}.cls-2{fill:#464646;}</style></defs><title>18T0105_PtAlertFlagIcons_FINAL2</title><rect class="cls-1" width="16" height="16"/><path class="cls-2" d="M8,.6a8.45,8.45,0,0,1,4,1,7.57,7.57,0,0,1,2.89,2.56,6.4,6.4,0,0,1,1.05,3.56,6.25,6.25,0,0,1-1.07,3.55A7.58,7.58,0,0,1,12,13.8a8.45,8.45,0,0,1-4,.95,8.36,8.36,0,0,1-2.5-.37,9.87,9.87,0,0,1-4.32,1.46.93.93,0,0,1-.66-.19A1,1,0,0,1,.13,15a1,1,0,0,1,.11-.85,2.16,2.16,0,0,1,.5-.54l.05-.07A4.75,4.75,0,0,0,1.37,13a3.15,3.15,0,0,0,.44-.92A6.78,6.78,0,0,1,.53,10a6.44,6.44,0,0,1,.62-5.92A7.72,7.72,0,0,1,4,1.56,8.34,8.34,0,0,1,8,.6ZM8,13.12a7.45,7.45,0,0,0,3.61-.88,6.26,6.26,0,0,0,2.22-2.08,4.56,4.56,0,0,0,.77-2.48,4.59,4.59,0,0,0-.77-2.49,6.14,6.14,0,0,0-2.22-2.07A7.34,7.34,0,0,0,8,2.24a7.27,7.27,0,0,0-3.6.88A6.09,6.09,0,0,0,2.17,5.19,4.68,4.68,0,0,0,1.4,7.68,4.57,4.57,0,0,0,2,9.85,6.24,6.24,0,0,0,3.3,11.49,4.53,4.53,0,0,1,2.75,13a5.87,5.87,0,0,1-1.13,1.46,6.25,6.25,0,0,0,2.09-.78,15.8,15.8,0,0,0,1.62-1.06A7.52,7.52,0,0,0,8,13.12Z"/><path class="cls-2" d="M5,6.22a.18.18,0,0,1-.13-.06.17.17,0,0,1,0-.12V5.49a.72.72,0,0,1,.72-.72h.73V4a.17.17,0,0,1,.05-.13.19.19,0,0,1,.13-.05h.6A.17.17,0,0,1,7.27,4v.79H9.2V4a.18.18,0,0,1,.06-.13.17.17,0,0,1,.13-.05H10a.17.17,0,0,1,.18.18v.79h.72a.72.72,0,0,1,.73.72V6a.17.17,0,0,1,0,.12.18.18,0,0,1-.13.06Zm6.4.48a.17.17,0,0,1,.18.18V10.8a.72.72,0,0,1-.21.52.7.7,0,0,1-.52.21H5.58a.69.69,0,0,1-.51-.21.72.72,0,0,1-.21-.52V6.88A.17.17,0,0,1,5,6.7Zm-4.7,1a.17.17,0,0,0-.13,0H6a.13.13,0,0,0-.12,0,.16.16,0,0,0-.06.13v.6a.18.18,0,0,0,.06.13A.17.17,0,0,0,6,8.63h.61a.17.17,0,0,0,.18-.18v-.6A.19.19,0,0,0,6.74,7.72Zm0,1.93a.17.17,0,0,0-.13-.05H6a.13.13,0,0,0-.12.05.16.16,0,0,0-.06.13v.6a.18.18,0,0,0,.06.13.17.17,0,0,0,.12.05h.61a.17.17,0,0,0,.18-.18v-.6A.19.19,0,0,0,6.74,9.65ZM8.67,7.72a.17.17,0,0,0-.13,0h-.6a.17.17,0,0,0-.18.18v.6a.17.17,0,0,0,0,.13.19.19,0,0,0,.13.05h.6a.17.17,0,0,0,.18-.18v-.6A.19.19,0,0,0,8.67,7.72Zm0,1.93a.17.17,0,0,0-.13-.05h-.6a.17.17,0,0,0-.18.18v.6a.17.17,0,0,0,0,.13.19.19,0,0,0,.13.05h.6a.17.17,0,0,0,.18-.18v-.6A.19.19,0,0,0,8.67,9.65ZM10.6,7.72a.17.17,0,0,0-.13,0h-.6a.17.17,0,0,0-.18.18v.6a.17.17,0,0,0,.05.13.19.19,0,0,0,.13.05h.6a.21.21,0,0,0,.13-.05.17.17,0,0,0,.05-.13v-.6A.15.15,0,0,0,10.6,7.72Zm0,1.93a.17.17,0,0,0-.13-.05h-.6a.17.17,0,0,0-.18.18v.6a.17.17,0,0,0,.05.13.19.19,0,0,0,.13.05h.6a.21.21,0,0,0,.13-.05.17.17,0,0,0,.05-.13v-.6A.15.15,0,0,0,10.6,9.65Z"/></svg>