<svg id="Layer_1" data-name="Layer 1" xmlns="http://www.w3.org/2000/svg" viewBox="0 0 16 16"><defs><style>.cls-1,.cls-3{fill:#fff;}.cls-2{fill:#464646;}.cls-3{font-size:6.13px;font-family:Ubuntu-Bold, Ubuntu;font-weight:700;}</style></defs><title>18T0105_PtAlertFlagIcons_FINAL2</title><rect class="cls-1" width="16" height="16"/><path class="cls-2" d="M15.34,3.46a.6.6,0,0,1,.6.59v8.31a.6.6,0,0,1-.6.59H.67a.61.61,0,0,1-.42-.17.61.61,0,0,1-.17-.42V4.05a.61.61,0,0,1,.17-.42.61.61,0,0,1,.42-.17ZM1.27,6.63V9.8a2,2,0,0,1,1.4.58,1.92,1.92,0,0,1,.58,1.41h9.52a2,2,0,0,1,2-2V6.63a1.89,1.89,0,0,1-1.4-.58,1.91,1.91,0,0,1-.58-1.4H3.25a1.91,1.91,0,0,1-.58,1.4A1.91,1.91,0,0,1,1.27,6.63ZM5.63,8.22A3.11,3.11,0,0,0,6,9.6a2.72,2.72,0,0,0,.87,1A2,2,0,0,0,8,11a2.07,2.07,0,0,0,1.19-.37,2.61,2.61,0,0,0,.86-1,3.07,3.07,0,0,0,0-2.77,2.61,2.61,0,0,0-.86-1A2.07,2.07,0,0,0,8,5.44a2,2,0,0,0-1.19.37,2.72,2.72,0,0,0-.87,1A3.12,3.12,0,0,0,5.63,8.22Z"/><text class="cls-3" transform="translate(7.12 10.34)">!</text></svg>