<svg id="Layer_1" data-name="Layer 1" xmlns="http://www.w3.org/2000/svg" viewBox="0 0 16 16"><defs><style>.cls-1{fill:#fff;}.cls-2{fill:#464646;}</style></defs><title>18T0105_PtAlertFlagIcons_FINAL2</title><rect class="cls-1" width="16" height="16"/><path class="cls-2" d="M9.19,1.34c-1,.18-5.64.93-7,1.3A2.45,2.45,0,0,0,.33,5.12a3.09,3.09,0,0,0,1.44,3c.56.46,3.18,2.7,3.83,3.17a3.22,3.22,0,0,0,2.66.18c1-.28,5.36-1.38,6.21-1.59a1.87,1.87,0,0,0,1.39-2.28A2,2,0,0,0,13.45,6.1c-1,.16-4.84,1-5.53,1.15-1,.25-.87,1.62.39,1.39,1.44-.26,5-1.11,5.49-1.2a.49.49,0,0,1,.15,1c-.75.19-5,1.2-5.8,1.34A1.76,1.76,0,0,1,5.87,8.27,1.69,1.69,0,0,1,7.2,6.41c.74-.2,6.9-1.52,7.54-1.67s1-1.07-.33-1.68c-1.08-.49-2.33-1.07-3.08-1.4A3.51,3.51,0,0,0,9.19,1.34Z"/><path class="cls-2" d="M.79,8.44a.82.82,0,0,0-.6.75c-.09.61.33.93.79,1.49s3.55,3.41,4,3.83a3.13,3.13,0,0,0,2.61.42c1-.28,6.7-2,7.38-2.17,1.16-.36,1-2.12-.37-1.8s-5.89,1.57-6.92,1.81a3.28,3.28,0,0,1-3.16-1C3.45,10.77.79,8.44.79,8.44Z"/><path class="cls-1" d="M7.21,1.52S12,4,12.57,4.31a1.38,1.38,0,0,1,.47.86l-1.89.41a.81.81,0,0,0-.38-.77c-.62-.32-5.42-3-5.42-3Z"/></svg>