<svg id="Layer_1" data-name="Layer 1" xmlns="http://www.w3.org/2000/svg" viewBox="0 0 16 16"><defs><style>.cls-1{fill:#fff;}.cls-2{fill:#464646;}</style></defs><title>18T0105_PtAlertFlagIcons_FINAL2</title><rect class="cls-1" width="16" height="16"/><path class="cls-2" d="M14.15,9.88a13,13,0,0,1-2.68,3.84,9.22,9.22,0,0,1-2.92,2,1.32,1.32,0,0,1-1.1,0,9,9,0,0,1-3.19-2.26A12.08,12.08,0,0,1,1.73,9.52a14.06,14.06,0,0,1-1-5.39,1.48,1.48,0,0,1,.24-.82,1.39,1.39,0,0,1,.67-.52L7.45.36a1.32,1.32,0,0,1,1.1,0l5.84,2.43a1.39,1.39,0,0,1,.67.52,1.48,1.48,0,0,1,.24.82A14.06,14.06,0,0,1,14.15,9.88ZM13,6.26a.47.47,0,0,0,.15-.35A.5.5,0,0,0,13,5.56l-.67-.67a.48.48,0,0,0-.7,0L7,9.46,4.9,7.33a.5.5,0,0,0-.35-.15.47.47,0,0,0-.35.15L3.53,8a.46.46,0,0,0,0,.7l3.16,3.16A.41.41,0,0,0,7,12a.4.4,0,0,0,.33-.15Z"/></svg>