<svg id="Layer_1" data-name="Layer 1" xmlns="http://www.w3.org/2000/svg" viewBox="0 0 16 16"><defs><style>.cls-1{fill:#fff;}.cls-2{fill:#464646;}</style></defs><title>18T0105_PtAlertFlagIcons_FINAL2</title><rect class="cls-1" width="16" height="16"/><path class="cls-2" d="M8,13.28a5,5,0,0,0,3.23-1.12,5.07,5.07,0,0,0,1.82-2.87.35.35,0,0,1,.13-.19A.36.36,0,0,1,13.4,9h1.45a.33.33,0,0,1,.28.13.37.37,0,0,1,.08.28,7.26,7.26,0,0,1-1.36,3.05,7.56,7.56,0,0,1-2.56,2.14A7.09,7.09,0,0,1,8,15.41a7.33,7.33,0,0,1-5.59-2.57l.12,2.42a.3.3,0,0,1-.07.28.38.38,0,0,1-.28.11H.79a.34.34,0,0,1-.25-.11.34.34,0,0,1-.11-.25V9.38a.36.36,0,0,1,.11-.25A.33.33,0,0,1,.79,9H6.7a.33.33,0,0,1,.25.1.35.35,0,0,1,.1.25v1.39A.33.33,0,0,1,7,11a.34.34,0,0,1-.25.11l-3-.15a5.15,5.15,0,0,0,1.85,1.68A5,5,0,0,0,8,13.28ZM13.46.91a.4.4,0,0,1,.11-.29.36.36,0,0,1,.25-.1h1.39a.39.39,0,0,1,.25.1.35.35,0,0,1,.1.26v5.9a.35.35,0,0,1-.1.26.39.39,0,0,1-.25.1H9.3A.36.36,0,0,1,9.05,7a.36.36,0,0,1-.11-.26V5.4a.36.36,0,0,1,.11-.26A.4.4,0,0,1,9.33,5l3,.15A5.18,5.18,0,0,0,10.46,3.5,5.08,5.08,0,0,0,8,2.88a5.18,5.18,0,0,0-5,4,.3.3,0,0,1-.14.19.37.37,0,0,1-.22.08H1.14A.37.37,0,0,1,.86,7a.35.35,0,0,1-.07-.29,7.28,7.28,0,0,1,1.36-3A7.53,7.53,0,0,1,4.7,1.54,7.16,7.16,0,0,1,8,.76a7.13,7.13,0,0,1,3.1.68,7.29,7.29,0,0,1,2.48,1.89Z"/></svg>