<svg id="Layer_1" data-name="Layer 1" xmlns="http://www.w3.org/2000/svg" viewBox="0 0 16 16"><defs><style>.cls-1{fill:#fff;}.cls-2,.cls-3{fill:#464646;}.cls-3{font-size:7.92px;font-family:Ubuntu-Bold, Ubuntu;font-weight:700;}</style></defs><title>18T0105_PtAlertFlagIcons_FINAL2</title><rect class="cls-1" width="16" height="16"/><path class="cls-2" d="M7.49.52A.55.55,0,0,1,7.8.23a.68.68,0,0,1,.4,0,.55.55,0,0,1,.31.29L9.65,2.83l2.57.37a.6.6,0,0,1,.36.21.69.69,0,0,1,.12.39.55.55,0,0,1-.17.37L10.67,6l.44,2.56a.57.57,0,0,1-.08.4.5.5,0,0,1-.32.23.53.53,0,0,1-.41-.05L8,7.93,5.7,9.12a.51.51,0,0,1-.4.05A.52.52,0,0,1,5,8.94a.57.57,0,0,1-.08-.4L5.33,6,3.47,4.17A.55.55,0,0,1,3.3,3.8a.63.63,0,0,1,.13-.39.55.55,0,0,1,.36-.21l2.56-.37Z"/><text class="cls-3" transform="translate(-0.45 15.43)">RDH</text></svg>