<svg id="Layer_1" data-name="Layer 1" xmlns="http://www.w3.org/2000/svg" viewBox="0 0 16 16"><defs><style>.cls-1{fill:#fff;}.cls-2{fill:#464646;}</style></defs><title>18T0105_PtAlertFlagIcons_FINAL2</title><rect class="cls-1" width="16" height="16"/><path class="cls-2" d="M11.46,7.91a2.58,2.58,0,0,1,2.6,2.6v4.73a.62.62,0,0,1-.19.46.64.64,0,0,1-.46.19H2.59a.64.64,0,0,1-.46-.19.62.62,0,0,1-.19-.46V10.51a2.58,2.58,0,0,1,2.6-2.6H6a4.75,4.75,0,0,0,2,.43,4.57,4.57,0,0,0,2-.43ZM4.54,3.58A3.38,3.38,0,0,0,5,5.32,3.22,3.22,0,0,0,6.25,6.58a3.56,3.56,0,0,0,3.5,0A3.22,3.22,0,0,0,11,5.32a3.38,3.38,0,0,0,.46-1.74A3.44,3.44,0,0,0,11,1.83,3.36,3.36,0,0,0,9.75.57a3.56,3.56,0,0,0-3.5,0A3.36,3.36,0,0,0,5,1.83,3.44,3.44,0,0,0,4.54,3.58Z"/><rect class="cls-1" x="7.44" y="8.84" width="1.13" height="1.13" transform="translate(-4.31 8.41) rotate(-45)"/><polygon class="cls-1" points="9.04 14.49 8 15.7 6.96 14.49 8 8.61 9.04 14.49"/><rect class="cls-1" x="10.15" y="10.28" width="2.26" height="1" rx="0.25" ry="0.25"/></svg>