<svg id="Layer_1" data-name="Layer 1" xmlns="http://www.w3.org/2000/svg" viewBox="0 0 16 16"><defs><style>.cls-1{fill:#fff;}.cls-2{fill:#464646;}</style></defs><title>18T0105_PtAlertFlagIcons_FINAL2</title><rect class="cls-1" width="16" height="16"/><path class="cls-2" d="M14.17.57A1,1,0,0,1,15,.73a.9.9,0,0,1,.38.75V11.77a1.58,1.58,0,0,1-.82,1.31,3.48,3.48,0,0,1-2,.56,3.48,3.48,0,0,1-2-.56,1.59,1.59,0,0,1-.81-1.31,1.59,1.59,0,0,1,.81-1.32,3.47,3.47,0,0,1,2-.55,3.61,3.61,0,0,1,1.41.26V4.49L6,7v6.67A1.57,1.57,0,0,1,5.22,15a3.42,3.42,0,0,1-2,.56,3.45,3.45,0,0,1-2-.56,1.46,1.46,0,0,1,0-2.63,3.45,3.45,0,0,1,2-.55,3.79,3.79,0,0,1,1.4.26V4.28a.92.92,0,0,1,.18-.54,1,1,0,0,1,.46-.36Z"/></svg>