<svg id="Layer_1" data-name="Layer 1" xmlns="http://www.w3.org/2000/svg" viewBox="0 0 16 16"><defs><style>.cls-1{fill:#fff;}.cls-2{fill:#464646;}</style></defs><title>18T0105_PtAlertFlagIcons_FINAL2</title><rect class="cls-1" width="16" height="16"/><path class="cls-2" d="M7.88,2.89a14.33,14.33,0,0,1,4.75,1h0a4.91,4.91,0,0,1,.57,0,1.33,1.33,0,0,1,.68.11,2.14,2.14,0,0,1,.16,1.27c-.1.32.51,1.09.51,2.51s-.6,2.47-.45,2.78a2,2,0,0,1,0,1.28C14,12,13.45,12,13,12a1.51,1.51,0,0,1-.43,0h-.1a14.07,14.07,0,0,1-5.08,1c-2.49,0-3.58-1.08-4.12-1.08h-.1A1.93,1.93,0,0,1,2.7,12,1.28,1.28,0,0,1,2,11.79c-.12-.15,0-.76.14-1.08a11.33,11.33,0,0,1-.69-3A9.43,9.43,0,0,1,2,5.14C1.87,4.77,1.87,4,2,3.88a2.46,2.46,0,0,1,.77-.08,6.79,6.79,0,0,1,.76,0h0a10.74,10.74,0,0,1,4.33-.95m0-1.3a10.82,10.82,0,0,0-4.49.93c-.21,0-.43,0-.6,0a2.88,2.88,0,0,0-1.35.22C.5,3.19.55,4.44.64,5.08h0A7.37,7.37,0,0,0,.1,7.74a8.41,8.41,0,0,0,.63,2.94,2.13,2.13,0,0,0,.22,2,2,2,0,0,0,1.75.62,4.58,4.58,0,0,0,.55,0l.21.1a8.55,8.55,0,0,0,4,.95,12.46,12.46,0,0,0,4.91-.87l.2-.08a3.73,3.73,0,0,0,.5,0c1.59,0,2-.6,2.13-.8a3.15,3.15,0,0,0,.26-2.19c0-.06,0-.14.06-.22a8,8,0,0,0,.39-2.36,6.44,6.44,0,0,0-.46-2.37l0-.13a2.75,2.75,0,0,0-.69-2.33,2.3,2.3,0,0,0-1.46-.37l-.52,0-.29-.11a11.9,11.9,0,0,0-4.54-.89Z"/><path class="cls-2" d="M12.46,5.18a4.75,4.75,0,0,0-.71,2.38,6.35,6.35,0,0,0,.72,3c.12.26.29.24.43-.07a7.63,7.63,0,0,0,.62-2.4A5.81,5.81,0,0,0,13,5.18C12.88,4.93,12.64,4.92,12.46,5.18Z"/></svg>