<svg id="Layer_1" data-name="Layer 1" xmlns="http://www.w3.org/2000/svg" viewBox="0 0 16 16"><defs><style>.cls-1{fill:#fff;}.cls-2,.cls-3{fill:none;stroke:#464646;}.cls-2{stroke-miterlimit:10;stroke-width:1.3px;}.cls-3{stroke-linecap:round;stroke-linejoin:round;}</style></defs><title>18T0105_PtAlertFlagIcons_FINAL2</title><rect class="cls-1" width="16" height="16"/><path class="cls-2" d="M12.8,2.41A1.7,1.7,0,0,0,11.1.71H9c-.32,0-.64.39-1,.39S7.34.71,7,.71H4.9a1.7,1.7,0,0,0-1.7,1.7V6c0,.81.55,1.08.55,1.24a7.85,7.85,0,0,0-.23,2.3C3.81,11.41,5,12.27,5.59,12S5.3,8.71,8,8.71,9.78,11.82,10.41,12s1.78-.63,2.07-2.47a8,8,0,0,0-.23-2.3c0-.21.55-.4.55-1.24Z"/><polyline class="cls-3" points="1.91 10.14 0.74 11.38 2.39 12.06 1.91 14.33 3.9 13.51 4.6 15.29 6.64 13.71 8.02 15.43 9.39 13.78 11.54 15.35 11.99 13.44 14.6 14.05 13.78 11.79 15.29 10.97 14.33 9.66"/></svg>