<svg id="Layer_1" data-name="Layer 1" xmlns="http://www.w3.org/2000/svg" viewBox="0 0 16 16"><defs><style>.cls-1,.cls-3{fill:#fff;}.cls-2{fill:red;}.cls-3,.cls-4{stroke:red;stroke-width:1.3px;}.cls-3{stroke-miterlimit:10;}.cls-4{fill:red;stroke-linecap:round;stroke-linejoin:round;}</style></defs><title>18T0105_PtAlertFlagIcons_FINAL</title><rect class="cls-1" width="16" height="16"/><path class="cls-2" d="M9.54,2.6A5.18,5.18,0,0,0,7.7.75,5.06,5.06,0,0,0,5.17.06,4.94,4.94,0,0,0,2.65.74,5,5,0,0,0,.8,2.58,4.82,4.82,0,0,0,.11,5.1,4.88,4.88,0,0,0,.79,7.63,5,5,0,0,0,2.63,9.47a4.82,4.82,0,0,0,2.52.69,4.9,4.9,0,0,0,2.52-.67A5.1,5.1,0,0,0,9.52,7.65a4.82,4.82,0,0,0,.69-2.52A4.94,4.94,0,0,0,9.54,2.6Zm-5,6.2a3.77,3.77,0,0,1-1.23-.44A3.72,3.72,0,0,1,1.42,5.1a3.73,3.73,0,0,1,.5-1.88A3.58,3.58,0,0,1,3.29,1.86a3.54,3.54,0,0,1,1.23-.43ZM8.4,7A3.72,3.72,0,0,1,7,8.37a3.68,3.68,0,0,1-1.23.43l0-7.37A3.68,3.68,0,0,1,8.41,3.24a3.73,3.73,0,0,1,.5,1.88A3.61,3.61,0,0,1,8.4,7Z"/><rect class="cls-3" x="1.85" y="6.35" width="14.15" height="6.73" rx="3.37" ry="3.37" transform="translate(-4.01 7.15) rotate(-36.2)"/><path class="cls-4" d="M11.43,12c-.75.55-2.25-.21-3.34-1.71S6.7,7.14,7.45,6.59"/></svg> 