<svg id="Layer_1" data-name="Layer 1" xmlns="http://www.w3.org/2000/svg" viewBox="0 0 16 16"><defs><style>.cls-1{fill:#fff;}.cls-2{fill:#464646;}.cls-3{fill:none;stroke:#464646;stroke-linecap:round;stroke-linejoin:round;stroke-width:0.7px;}</style></defs><title>18T0105_PtAlertFlagIcons_FINAL2</title><rect class="cls-1" width="16" height="16"/><path class="cls-2" d="M12.25,4a1.27,1.27,0,0,1-.43-1A1.37,1.37,0,1,1,14.56,3a1.31,1.31,0,0,1-.37,1,1.34,1.34,0,0,1-1,.43A1.31,1.31,0,0,1,12.25,4Z"/><path class="cls-2" d="M12.1,4.85l-.73-.68A.7.7,0,0,0,11,4L7.81,3.06c-.52-.15-1,0-1,.63s.14,3,.14,3a.73.73,0,0,0,.25.55.66.66,0,0,0,.42.17L7.12,8,4.73,14.57a.89.89,0,0,0,0,.78,1,1,0,0,0,.58.52,1,1,0,0,0,.76,0,1,1,0,0,0,.5-.56l1.13-3.09L9,15.28a1,1,0,0,0,.54.54.94.94,0,0,0,.77,0,1,1,0,0,0,.54-.55.88.88,0,0,0,0-.76L8.8,9.46l1.85-1.91-.23,2.62a.77.77,0,0,0,.18.56.75.75,0,0,0,.51.26.73.73,0,0,0,.55-.17.85.85,0,0,0,.27-.52l.41-4.84A.66.66,0,0,0,12.1,4.85Zm-3.9,2a2,2,0,0,0,0-.28L8.14,4.47,10,4.93Z"/><polyline class="cls-3" points="4.85 6.59 2.72 5.67 4.83 4.75 3.31 2.98 5.44 2.94 5.05 0.94 6.68 1.65 7.49 0.36 8.57 1.64"/></svg>