<svg id="Layer_1" data-name="Layer 1" xmlns="http://www.w3.org/2000/svg" viewBox="0 0 16 16"><defs><style>.cls-1{fill:#fff;}.cls-2{fill:#464646;}</style></defs><title>18T0105_PtAlertFlagIcons_FINAL2</title><rect class="cls-1" width="16" height="16"/><path class="cls-2" d="M14.58,2a1.11,1.11,0,0,1,.82.34,1.13,1.13,0,0,1,.34.82V11.5a.58.58,0,0,1-.58.58h-1a2.27,2.27,0,0,1-.68,1.65,2.23,2.23,0,0,1-1.64.67,2.29,2.29,0,0,1-2.32-2.32H6.45a2.23,2.23,0,0,1-.68,1.65,2.23,2.23,0,0,1-1.64.67,2.29,2.29,0,0,1-2.32-2.32h-1a.58.58,0,0,1-.58-.58v-.39a.58.58,0,0,1,.17-.41.57.57,0,0,1,.41-.17H1V7.92a1.15,1.15,0,0,1,.34-.82L3.79,4.68a1.15,1.15,0,0,1,.82-.34H5.68V3.18A1.09,1.09,0,0,1,6,2.36,1.09,1.09,0,0,1,6.84,2ZM5.68,8.21V5.5H4.61L2.19,7.92v.29Zm-1.55,5a1.16,1.16,0,0,0,.82-2,1.09,1.09,0,0,0-.82-.34,1.16,1.16,0,0,0-.82,2A1.09,1.09,0,0,0,4.13,13.24Zm8.51-7A.27.27,0,0,0,12.35,6H11V4.63a.31.31,0,0,0-.29-.29H9.93a.27.27,0,0,0-.2.09.25.25,0,0,0-.09.2V6H8.29A.27.27,0,0,0,8,6.28v.77a.27.27,0,0,0,.29.29H9.64V8.7A.31.31,0,0,0,9.93,9h.78a.25.25,0,0,0,.2-.09A.27.27,0,0,0,11,8.7V7.34h1.35a.27.27,0,0,0,.29-.29Zm-.77,7a1.11,1.11,0,0,0,.82-.34,1.16,1.16,0,0,0,0-1.64,1.11,1.11,0,0,0-.82-.34,1.16,1.16,0,0,0-.82,2A1.09,1.09,0,0,0,11.87,13.24Z"/></svg>