<svg id="Layer_1" data-name="Layer 1" xmlns="http://www.w3.org/2000/svg" xmlns:xlink="http://www.w3.org/1999/xlink" viewBox="0 0 16 16"><defs><style>.cls-1,.cls-5{fill:none;}.cls-2{fill:#fff;}.cls-3{fill:#464646;}.cls-4{clip-path:url(#clip-path);}.cls-5{stroke:#fff;stroke-linecap:round;stroke-linejoin:round;stroke-width:0.85px;}</style><clipPath id="clip-path"><rect class="cls-1" x="0.01" y="0.01" width="15.95" height="15.96"/></clipPath></defs><title>18T0105_PtAlertFlagIcons_FINAL2</title><rect class="cls-2" width="16" height="16"/><rect class="cls-3" x="0.01" y="0.01" width="15.95" height="15.96"/><g class="cls-4"><polyline class="cls-5" points="6.06 9.78 6.48 11.59 7.95 8.99"/><line class="cls-5" x1="5.38" y1="8.58" x2="5" y2="8.13"/><line class="cls-5" x1="6.81" y1="12.35" x2="9.81" y2="9.44"/><line class="cls-5" x1="7.31" y1="13.03" x2="10.81" y2="10.76"/><line class="cls-5" x1="7.68" y1="13.49" x2="10.81" y2="12.67"/><line class="cls-5" x1="8.52" y1="7.86" x2="9.01" y2="6.71"/><line class="cls-5" x1="9.34" y1="5.42" x2="9.53" y2="4.54"/><line class="cls-5" x1="10.38" y1="8.49" x2="11.25" y2="6.9"/><line class="cls-5" x1="11.74" y1="5.75" x2="12.14" y2="4.7"/><line class="cls-5" x1="11.79" y1="10.03" x2="12.89" y2="8.58"/><line class="cls-5" x1="13.55" y1="7.56" x2="13.96" y2="6.75"/><line class="cls-5" x1="12.01" y1="12.22" x2="13.27" y2="11.35"/><line class="cls-5" x1="14.21" y1="10.42" x2="14.77" y2="9.73"/><line class="cls-5" x1="5.58" y1="13.04" x2="1.06" y2="16.36"/><line class="cls-5" x1="6.59" y1="14.28" x2="1.03" y2="18.28"/></g><path class="cls-2" d="M1.18,3.76a.37.37,0,0,1-.09-.25.35.35,0,0,1,.09-.25l.52-.5a.28.28,0,0,1,.24-.11.31.31,0,0,1,.25.11L3.75,4.31,7.07,1A.35.35,0,0,1,7.33.87.3.3,0,0,1,7.57,1l.51.49a.33.33,0,0,1,.1.25.32.32,0,0,1-.1.25L4,6.06a.34.34,0,0,1-.25.11.31.31,0,0,1-.25-.11Z"/></svg>