<svg xmlns="http://www.w3.org/2000/svg" viewBox="0 0 59 283"><defs><style>.a7-cls-1{isolation:isolate}.a7-cls-2,.a7-cls-24{fill:#c5c7c9}.a7-cls-24{stroke:none}.a7-cls-2{stroke:#c5c7c9;stroke-width:5px}.a7-cls-19,.a7-cls-2,.a7-cls-21,.a7-cls-23,.a7-cls-25,.a7-cls-26,.a7-cls-29,.a7-cls-32,.a7-cls-33{stroke-miterlimit:10}.a7-cls-3{fill:#f5d7cf;stroke:none}.a7-cls-4,.a7-cls-5{fill:#fae8e3;stroke:none}.a7-cls-5{fill:#f2c6bc}.a7-cls-6,.a7-cls-7{fill:#eeefef;stroke:none}.a7-cls-7{fill:#e2e3e4}.a7-cls-8,.a7-cls-9{fill:#fbfbfb;stroke:none}.a7-cls-9{font-size:15px;fill:#929497;font-family:ProximaNova-Semibold,Proxima Nova,sans-serif;font-weight:700}.a7-cls-10,.a7-cls-27,.a7-cls-36{fill:#3c3d3d;stroke:none}.a7-cls-10{opacity:.55}.a7-cls-11{fill:#ffd403;stroke:none}.a7-cls-12,.a7-cls-31{fill:#ffef3e;stroke:none}.a7-cls-13,.a7-cls-14,.a7-cls-20{fill:#c52636;stroke:none}.a7-cls-14{fill:none}.a7-cls-19,.a7-cls-21,.a7-cls-23,.a7-cls-25,.a7-cls-26,.a7-cls-29,.a7-cls-32,.a7-cls-33{fill:none}.a7-cls-16,.a7-cls-37{fill:#28418b;stroke:none}.a7-cls-17,.a7-cls-18{fill:#787878;stroke:none}.a7-cls-19,.a7-cls-21,.a7-cls-23,.a7-cls-29,.a7-cls-32,.a7-cls-33{stroke:#c52636}.a7-cls-19,.a7-cls-21,.a7-cls-26{stroke-width:2px}.a7-cls-21{stroke-linecap:round}.a7-cls-22{fill:#fff;stroke:none}.a7-cls-25,.a7-cls-26{stroke:#28418b}.a7-cls-25{stroke-width:3px}.a7-cls-28{opacity:.6}.a7-cls-29{stroke-width:4px}.a7-cls-30{fill:#f05b85;stroke:none}.a7-cls-32,.a7-cls-33{stroke-width:1.25px}.a7-cls-34,.a7-cls-35{fill:#9b9999;stroke:none}.a7-cls-35{fill:#dbdbdc}.c7-cls-1{isolation:isolate}.a7-cls-38{font-size:33px;fill:#28418b;font-family:ProximaNova-Semibold,Proxima Nova,sans-serif;font-weight:700;stroke:none}.c7-cls-16,.c7-cls-2{fill:#c5c7c9;stroke:none}.c7-cls-2{stroke:#c5c7c9;stroke-width:5px}.c7-cls-2,.c7-cls-20,.c7-cls-21{stroke-miterlimit:10}.c7-cls-3{fill:#eeefef;stroke:none}.c7-cls-4,.c7-cls-5{fill:#fbfbfb;stroke:none}.c7-cls-5{fill:#e2e3e4}.c7-cls-17,.c7-cls-6{fill:#3c3d3d;stroke:none}.c7-cls-6{opacity:.55}.c7-cls-20,.c7-cls-21{fill:none}.c7-cls-7,.c7-cls-9{fill:none;stroke:none}.c7-cls-9{fill:#28418b}.c7-cls-10,.c7-cls-11{fill:#787878;stroke:none}.c7-cls-12,.c7-cls-13,.c7-cls-19{fill:#ffef3e;stroke:none}.c7-cls-13{fill:#fff}.c7-cls-14,.c7-cls-15{fill:#c52636;stroke:none}.c7-cls-18{opacity:.6}.c7-cls-20,.c7-cls-21{stroke:#c52636;stroke-width:1.25px}.a7-msng-cls-1{isolation:isolate}.a7-msng-cls-2{fill:#c5c7c9;stroke:#c5c7c9;stroke-width:5px}.a7-msng-cls-11,.a7-msng-cls-2{stroke-miterlimit:10}.a7-msng-cls-3{fill:#f5d7cf;stroke:none}.a7-msng-cls-4{fill:#fae8e3;stroke:none}.a7-msng-cls-5{fill:#f2c6bc;stroke:none}.a7-msng-cls-6{fill:#eeefef;stroke:none}.a7-msng-cls-7{fill:#e2e3e4;stroke:none}.a7-msng-cls-8{fill:#fbfbfb;stroke:none}.a7-msng-cls-9{font-size:15px;fill:#929497;font-family:ProximaNova-Semibold,Proxima Nova;font-weight:700;stroke:none}.a7-msng-cls-11{fill:none}.a7-msng-cls-12{fill:none;stroke:none}.a7-msng-cls-11{stroke:#787878;stroke-width:6.25px}</style></defs><g class="a7-cls-1"><g id="_7A" data-name="#7A"><path d="M16.28 117.89a12.69 12.69 0 0 1 2.94-6c.28-8 .87-16.88 1.56-25.94 1.71-22.43 4.36-44.23 6.68-44.09 1.87.11 6.92 21.63 10 44.27 1.29 9.41 2.23 18.53 2.66 26.42 1.71 2.39 2.88 5.76 3.59 10.24 1.29 8.1 1.85 20.45 0 24.13-1.31 2.6-10.46 4.34-14.67 4s-13.37-1-14.53-4.69.03-20.35 1.77-28.34z" class="a7-cls-2"/><path d="M40.4 119.77a286.69 286.69 0 0 0-2.9-33.68c-3.1-22.64-8.15-44.16-10-44.27-2.32-.14-5 21.67-6.68 44.09C19.82 98.63 19 111.06 19 121c0 2.94 21.44 2.11 21.4-1.23z" class="a7-cls-3"/><path d="M29 118.57l-5 .78s.27-24 .48-42c.35-28.77 2.26-32.54 2.65-33.2s-.91 3.07-.45 24.37C27 81.42 29 118.57 29 118.57z" class="a7-cls-4"/><path d="M36.13 85.1c-1-9.75-2.31-19.3-3.58-27.26 1.73 7.92 3.54 18 5 28.25a286.69 286.69 0 0 1 2.91 33.68c0 .61-.71 1.13-1.87 1.57-.14-9.96-1.05-22.83-2.46-36.24zM20.79 85.92c1.27-16.65 3.06-33 4.85-40.19-1.25 8.94-2.46 23.93-3.35 39.19-.79 13.49-1.42 26.68-1.44 37.29-1.11-.29-1.79-.7-1.79-1.22-.06-9.93.76-22.36 1.73-35.07z" class="a7-cls-5"/><path d="M43.74 146.88c1.85-3.68 1.29-16 0-24.13-1.6-10.07-5.52-14.58-12.64-14.76s-13.1 1.91-14.82 9.9-2.91 24.65-1.74 28.3 10.31 4.34 14.53 4.69 13.36-1.4 14.67-4z" class="a7-cls-6"/><path d="M41.3 123.33c-.78-6.71-2.22-11.24-4.47-13.88 3.6 2.06 5.81 6.36 6.91 13.3 1.29 8.1 1.85 20.45 0 24.13a4.27 4.27 0 0 1-1.92 1.6c.87-5.7.4-17.21-.52-25.15zM16.28 117.89c.9-4.11 2.92-6.65 5.63-8.13-1.59 1.75-2.78 4.33-3.37 8-1.32 8.26-2.23 24.68-1.66 30.69a4.3 4.3 0 0 1-2.35-2.31c-1.15-3.6.01-20.26 1.75-28.25z" class="a7-cls-7"/><path d="M23.2 150.24c-.06-5.12 0-13.85.44-25.22.41-9.79 1.32-14.44 2-16.58a20.34 20.34 0 0 1 2.89-.4c-.25 2.38-.67 7.91-.81 19.19-.11 9.2.31 18.48.59 23.58-1.47-.12-3.31-.29-5.11-.57z" class="a7-cls-8"/><text class="a7-cls-9" transform="translate(25.51 20.51)">7</text></g><defs><g id="a7_bone_graft" data-name="bone graft"><path d="M2 23.31h55V111H2z" class="a7-cls-16" data-color-action="fill" style="fill:inherit"/><path d="M16.28 117.89a12.69 12.69 0 0 1 2.94-6c.28-8 .87-16.88 1.56-25.94 1.71-22.43 4.36-44.23 6.68-44.09 1.87.11 6.92 21.63 10 44.27 1.29 9.41 2.23 18.53 2.66 26.42 1.71 2.39 2.88 5.76 3.59 10.24 1.29 8.1 1.85 20.45 0 24.13-1.31 2.6-10.46 4.34-14.67 4s-13.37-1-14.53-4.69.03-20.35 1.77-28.34z" class="a7-cls-2"/><path d="M40.4 119.77a286.69 286.69 0 0 0-2.9-33.68c-3.1-22.64-8.15-44.16-10-44.27-2.32-.14-5 21.67-6.68 44.09C19.82 98.63 19 111.06 19 121c0 2.94 21.44 2.11 21.4-1.23z" class="a7-cls-3"/><path d="M29 118.57l-5 .78s.27-24 .48-42c.35-28.77 2.26-32.54 2.65-33.2s-.91 3.07-.45 24.37C27 81.42 29 118.57 29 118.57z" class="a7-cls-4"/><path d="M36.13 85.1c-1-9.75-2.31-19.3-3.58-27.26 1.73 7.92 3.54 18 5 28.25a286.69 286.69 0 0 1 2.91 33.68c0 .61-.71 1.13-1.87 1.57-.14-9.96-1.05-22.83-2.46-36.24zM20.79 85.92c1.27-16.65 3.06-33 4.85-40.19-1.25 8.94-2.46 23.93-3.35 39.19-.79 13.49-1.42 26.68-1.44 37.29-1.11-.29-1.79-.7-1.79-1.22-.06-9.93.76-22.36 1.73-35.07z" class="a7-cls-5"/><path d="M43.74 146.88c1.85-3.68 1.29-16 0-24.13-1.6-10.07-5.52-14.58-12.64-14.76s-13.1 1.91-14.82 9.9-2.91 24.65-1.74 28.3 10.31 4.34 14.53 4.69 13.36-1.4 14.67-4z" class="a7-cls-6"/><path d="M41.3 123.33c-.78-6.71-2.22-11.24-4.47-13.88 3.6 2.06 5.81 6.36 6.91 13.3 1.29 8.1 1.85 20.45 0 24.13a4.27 4.27 0 0 1-1.92 1.6c.87-5.7.4-17.21-.52-25.15zM16.28 117.89c.9-4.11 2.92-6.65 5.63-8.13-1.59 1.75-2.78 4.33-3.37 8-1.32 8.26-2.23 24.68-1.66 30.69a4.3 4.3 0 0 1-2.35-2.31c-1.15-3.6.01-20.26 1.75-28.25z" class="a7-cls-7"/><path d="M23.2 150.24c-.06-5.12 0-13.85.44-25.22.41-9.79 1.32-14.44 2-16.58a20.34 20.34 0 0 1 2.89-.4c-.25 2.38-.67 7.91-.81 19.19-.11 9.2.31 18.48.59 23.58-1.47-.12-3.31-.29-5.11-.57z" class="a7-cls-8"/></g><g id="a7_splinted_crowns" data-name="splinted crowns"><path d="M2 104.58h55v7.67H2z" class="a7-cls-12" data-color-action="fill" style="fill:inherit"/><path d="M16.28 117.89a12.69 12.69 0 0 1 2.94-6c.28-8 .87-16.88 1.56-25.94 1.71-22.43 4.36-44.23 6.68-44.09 1.87.11 6.92 21.63 10 44.27 1.29 9.41 2.23 18.53 2.66 26.42 1.71 2.39 2.88 5.76 3.59 10.24 1.29 8.1 1.85 20.45 0 24.13-1.31 2.6-10.46 4.34-14.67 4s-13.37-1-14.53-4.69.03-20.35 1.77-28.34z" class="a7-cls-2"/><path d="M40.4 119.77a286.69 286.69 0 0 0-2.9-33.68c-3.1-22.64-8.15-44.16-10-44.27-2.32-.14-5 21.67-6.68 44.09C19.82 98.63 19 111.06 19 121c0 2.94 21.44 2.11 21.4-1.23z" class="a7-cls-3"/><path d="M29 118.57l-5 .78s.27-24 .48-42c.35-28.77 2.26-32.54 2.65-33.2s-.91 3.07-.45 24.37C27 81.42 29 118.57 29 118.57z" class="a7-cls-4"/><path d="M36.13 85.1c-1-9.75-2.31-19.3-3.58-27.26 1.73 7.92 3.54 18 5 28.25a286.69 286.69 0 0 1 2.91 33.68c0 .61-.71 1.13-1.87 1.57-.14-9.96-1.05-22.83-2.46-36.24zM20.79 85.92c1.27-16.65 3.06-33 4.85-40.19-1.25 8.94-2.46 23.93-3.35 39.19-.79 13.49-1.42 26.68-1.44 37.29-1.11-.29-1.79-.7-1.79-1.22-.06-9.93.76-22.36 1.73-35.07z" class="a7-cls-5"/><path d="M43.74 146.88c1.85-3.68 1.29-16 0-24.13-1.6-10.07-5.52-14.58-12.64-14.76s-13.1 1.91-14.82 9.9-2.91 24.65-1.74 28.3 10.31 4.34 14.53 4.69 13.36-1.4 14.67-4z" class="a7-cls-6"/><path d="M41.3 123.33c-.78-6.71-2.22-11.24-4.47-13.88 3.6 2.06 5.81 6.36 6.91 13.3 1.29 8.1 1.85 20.45 0 24.13a4.27 4.27 0 0 1-1.92 1.6c.87-5.7.4-17.21-.52-25.15zM16.28 117.89c.9-4.11 2.92-6.65 5.63-8.13-1.59 1.75-2.78 4.33-3.37 8-1.32 8.26-2.23 24.68-1.66 30.69a4.3 4.3 0 0 1-2.35-2.31c-1.15-3.6.01-20.26 1.75-28.25z" class="a7-cls-7"/><path d="M23.2 150.24c-.06-5.12 0-13.85.44-25.22.41-9.79 1.32-14.44 2-16.58a20.34 20.34 0 0 1 2.89-.4c-.25 2.38-.67 7.91-.81 19.19-.11 9.2.31 18.48.59 23.58-1.47-.12-3.31-.29-5.11-.57z" class="a7-cls-8"/></g><path id="a7_mesial_incisal" d="M36.19 150.26c3.49-.69 6.8-1.89 7.55-3.38a8.85 8.85 0 0 0 .68-2.21c-1.68 1.3-5.42 2.31-9 2.84z" class="a7-cls-10" data-color-action="fill" style="fill:inherit" data-name="mesial incisal"/><path id="a7_central_incisal" d="M29 147.87c-1.54-.12-3.69-.27-5.91-.56l-.78 2.8c2.48.42 5 .62 6.73.76a27.87 27.87 0 0 0 7.12-.61l-.82-2.76a31.47 31.47 0 0 1-6.34.37z" class="a7-cls-10" data-color-action="fill" style="fill:inherit" data-name="central incisal"/><path id="a7_distal_incisal" d="M14.26 144.68a8.56 8.56 0 0 0 .28 1.51c.69 2.16 4.18 3.28 7.79 3.92l.78-2.8c-3.4-.44-6.97-1.21-8.85-2.63z" class="a7-cls-10" data-color-action="fill" style="fill:inherit" data-name="distal incisal"/><path id="a7_mesial" d="M38.52 138.46l6.27 3.17a81.79 81.79 0 0 0-.31-12.83c-1.91.16-4.63.82-5.09 3.18s-.19 4.78-.87 6.48z" class="a7-cls-10" data-color-action="fill" style="fill:inherit"/><path id="a7_line_angle_2" d="M38.52 138.46a3.63 3.63 0 0 1-2.11 2.08 12.74 12.74 0 0 1-2.9.74l1.86 6.22c3.63-.53 7.37-1.53 9-2.84a25.71 25.71 0 0 0 .37-3z" class="a7-cls-10" data-color-action="fill" style="fill:inherit" data-name="line angle 2"/><path id="a7_facial" d="M29 147.87a31.47 31.47 0 0 0 6.34-.37l-1.86-6.22a37.31 37.31 0 0 1-8.78.19l-1.61 5.84c2.25.29 4.39.45 5.91.56z" class="a7-cls-10" data-color-action="fill" style="fill:inherit"/><path id="a7_line_angle_1" d="M24.73 141.47c-.56-.06-1-.13-1.46-.21a3.64 3.64 0 0 1-2.48-2.48l-6.68 3.87c0 .77.08 1.45.15 2 1.88 1.42 5.45 2.18 8.86 2.63z" class="a7-cls-10" data-color-action="fill" style="fill:inherit" data-name="line angle 1"/><path id="a7_distal" d="M14.11 142.65l6.68-3.87a24.07 24.07 0 0 1-1.22-5.8c-.34-2.47-2.78-3.61-4.86-4.13a114.29 114.29 0 0 0-.6 13.8z" class="a7-cls-10" data-color-action="fill" style="fill:inherit"/><ellipse id="a7_mid_facial" cx="28.92" cy="126.93" class="a7-cls-10" rx="4.61" ry="9.46" data-color-action="fill" style="fill:inherit" data-name="mid facial"/><path id="a7_facial_V" d="M20.15 111a14.58 14.58 0 0 0 18.32-.32A11 11 0 0 0 31.1 108c-4.3-.11-8.18.61-10.95 3z" class="a7-cls-10" data-color-action="fill" style="fill:inherit" data-name="facial V"/><path id="a7_veneer" d="M43.74 146.88c1.85-3.68 1.29-16 0-24.13-1.6-10.07-5.52-14.58-12.64-14.76s-13.1 1.91-14.82 9.9-2.91 24.65-1.74 28.3 10.31 4.34 14.53 4.69 13.36-1.4 14.67-4z" class="a7-cls-12" data-color-action="fill" style="fill:inherit"/><path id="a7_tissue_graft" d="M46.97 93.66L29.5 107.54 12.03 93.66h34.94z" class="a7-cls-13" data-color-action="fill" style="fill:inherit" data-name="tissue graft"/><path id="a7_tipped_lingual" d="M28 3.25h3v3h-3z" class="a7-cls-14" data-name="tipped lingual"/><g id="a7_tipped_facial" class="a7-cls-15" data-name="tipped facial"><path d="M25.85 154.5c1.26 3.37 4.74 3.85 7.69-5.32.5-1.56 4.42-1.76 3.84 0-2 6.08-5.31 10.2-9.06 9.27a4.86 4.86 0 0 1-3-3.38c.19-.17.42-.42.53-.57z" class="a7-cls-16" data-color-action="fill" style="fill:inherit"/><path d="M27.93 151.58h12.94l-2.94-9.64-10 9.64z" class="a7-cls-16" data-color-action="fill" style="fill:inherit"/></g><path id="a7_surface_restoration_incisal" d="M29.07 150.87c4 .33 12.51-1.23 14.42-3.64l-5.89-4.55a26.61 26.61 0 0 1-7.35 1.23h-.82a45.27 45.27 0 0 1-8.34-1.21v-.12L15 147c2.12 2.93 10.19 3.55 14.07 3.87z" class="a7-cls-17" data-color-action="fill" style="fill:inherit" data-name="surface restoration incisal"/><path id="a7_surface_restoration_mesial" d="M43.74 146.88c1.85-3.68 1.29-16 0-24.13 0-.14 0-.27-.07-.41a11.52 11.52 0 0 1-6.25-5.1c.62 9.18.61 22.73.25 25.41h-.07l5.89 4.55a2.17 2.17 0 0 0 .25-.32z" class="a7-cls-17" data-color-action="fill" style="fill:inherit" data-name="surface restoration mesial"/><path id="a7_surface_restoration_facial" d="M29.53 112.8a14.59 14.59 0 0 1-6.16-1.37 11.45 11.45 0 0 1-1.37 5.51c-.7 9.72-1 22.44-.88 25.74a45.27 45.27 0 0 0 8.34 1.21h.82a26.6 26.6 0 0 0 7.42-1.26c.36-2.68.37-16.23-.25-25.41a11.43 11.43 0 0 1-1.58-5.79v-.1a14.58 14.58 0 0 1-6.34 1.47z" class="a7-cls-15 a7-cls-18" data-color-action="fill" style="fill:inherit" data-name="surface restoration facial"/><path id="a7_surface_restoration_facial_V" d="M35.85 111.36a11.55 11.55 0 0 1 .24-2.26 12.3 12.3 0 0 0-5-1.1 20 20 0 0 0-8 1.19 11.55 11.55 0 0 1 .23 2.25 14.53 14.53 0 0 0 12.48-.07z" class="a7-cls-15 a7-cls-18" data-color-action="fill" style="fill:inherit" data-name="surface restoration facial V"/><path id="a7_surface_restoration_distal" d="M22 116.94a11.53 11.53 0 0 1-6.49 5.43c-1.26 8.57-1.92 20.77-.95 23.82a2.82 2.82 0 0 0 .43.8l6.13-4.43c-.12-3.46.17-16.01.88-25.62z" class="a7-cls-17" data-color-action="fill" style="fill:inherit" data-name="surface restoration distal"/><g id="a7_supra-erupted" class="a7-cls-15"><path d="M29.5 101.88V94.2" class="a7-cls-19" data-color-action="stroke" style="stroke:inherit"/><path d="M33.49 100.71l-3.99 6.91-3.99-6.91h7.98z" class="a7-cls-20" data-color-action="fill" style="fill:inherit"/></g><g id="a7_sub-erupted" class="a7-cls-15"><path d="M29.5 99.94v7.68" class="a7-cls-19" data-color-action="stroke" style="stroke:inherit"/><path d="M25.51 101.11l3.99-6.91 3.99 6.91h-7.98z" class="a7-cls-20" data-color-action="fill" style="fill:inherit"/></g><text id="a7_sealant" class="a7-cls-38" transform="translate(19.7 200.47)" data-color-action="fill" style="fill:inherit">S</text><g id="a7_rotated_mesial" class="a7-cls-15" data-name="rotated mesial"><path d="M7.71 128.18c-3 1.79-2.3 5.46 10.23 5.81 5.3.15 8.95 0 8.95 0l-.07 3s-1 .07-8.22-.24c-7.62-.32-14-1.83-13.75-6a4 4 0 0 1 2.31-2.92c.17.17.41.28.55.35z" class="a7-cls-16" data-color-action="fill" style="fill:inherit"/><path d="M20.41 129.47v11.89l10.39-5.9-10.39-5.99z" class="a7-cls-16" data-color-action="fill" style="fill:inherit"/></g><g id="a7_rotated_distal" class="a7-cls-15" data-name="rotated distal"><path d="M51.55 128.18c3 1.79 2.3 5.46-10.23 5.81-5.3.15-8.95 0-8.95 0l.07 3s1 .07 8.22-.24c7.62-.32 14-1.83 13.75-6a4 4 0 0 0-2.31-2.92c-.17.17-.42.28-.55.35z" class="a7-cls-16" data-color-action="fill" style="fill:inherit"/><path d="M38.85 129.47v11.89l-10.4-5.9 10.4-5.99z" class="a7-cls-16" data-color-action="fill" style="fill:inherit"/></g><circle id="a7_root_decay" cx="28.25" cy="70.47" r="4.33" class="a7-cls-15 a7-cls-18" data-color-action="fill" style="fill:inherit" data-name="root decay"/><path id="a7_root_canal" d="M27.63 45.62l1.62 60.75" class="a7-cls-21" data-color-action="stroke" style="stroke:inherit" data-name="root canal"/><path id="a7_root_abrasion" d="M26.21 60.42h3.5v13.83h-3.5z" class="a7-cls-15 a7-cls-23" data-color-action="stroke" style="stroke:inherit" data-name="root abrasion"/><g id="a7_post"><path d="M27.5 85.39h3.14v41.77H27.5z" class="a7-cls-18" data-color-action="fill" style="fill:inherit"/><path d="M28.37 85.39h.47v41.77h-.47z" class="a7-cls-24"/></g><g id="a7_pins"><path d="M25.32 95.72h2.42v23.43h-2.42z" class="a7-cls-18" data-color-action="fill" style="fill:inherit"/><path d="M25.99 95.72h.36v23.43h-.36z" class="a7-cls-24"/><path d="M29.91 95.72h2.42v23.43h-2.42z" class="a7-cls-18" data-color-action="fill" style="fill:inherit"/><path d="M30.57 95.72h.36v23.43h-.36z" class="a7-cls-24"/></g><path id="a7_open_contact_mesial" d="M32.69 103.99l7.5 4.75 7.5-4.75" class="a7-cls-25" data-color-action="stroke" style="stroke:inherit" data-name="open contact mesial"/><path id="a7_open_contact_distal" d="M11.67 103.99l7.5 4.75 7.5-4.75" class="a7-cls-25" data-color-action="stroke" style="stroke:inherit" data-name="open contact distal"/><g id="a7_mesial_drift" class="a7-cls-15" data-name="mesial drift"><path d="M32.59 131.16H20.67" class="a7-cls-26" data-color-action="stroke" style="stroke:inherit"/><path d="M31.43 127.17l6.9 3.99-6.9 3.99v-7.98z" class="a7-cls-16" data-color-action="fill" style="fill:inherit"/></g><path id="a7_lingual_abfraction" d="M28 3.25h3v3h-3z" class="a7-cls-14" data-name="lingual abfraction"/><ellipse id="a7_internal_root_resorption" cx="28.03" cy="66.1" class="a7-cls-15 a7-cls-20" rx="3.98" ry="9.84" transform="rotate(-3.19 27.988 66.191)" data-color-action="fill" style="fill:inherit" data-name="internal root resorption"/><g id="a7_impacted_mesial" class="a7-cls-15" data-name="impacted mesial"><ellipse cx="29.51" cy="96.05" class="a7-cls-26" rx="24.15" ry="63.55" data-color-action="stroke" style="stroke:inherit"/><path d="M18.11 96.05H5.35" class="a7-cls-26" data-color-action="stroke" style="stroke:inherit"/><path d="M16.94 92.06l6.91 3.99-6.91 3.99v-7.98z" class="a7-cls-16" data-color-action="fill" style="fill:inherit"/></g><g id="a7_impacted_distal" class="a7-cls-15" data-name="impacted distal"><ellipse cx="29.5" cy="96.05" class="a7-cls-26" rx="24.15" ry="63.55" data-color-action="stroke" style="stroke:inherit"/><path d="M40.91 96.05h12.76" class="a7-cls-26" data-color-action="stroke" style="stroke:inherit"/><path d="M42.08 100.04l-6.91-3.99 6.91-3.99v7.98z" class="a7-cls-16" data-color-action="fill" style="fill:inherit"/></g><path id="a7_gortex_membranes" d="M2 93.83h55v16.42H2z" class="a7-cls-13" data-color-action="fill" style="fill:inherit" data-name="gortex membranes"/><path id="a7_frenum_pull" d="M19.51 108.58l10.66-6.75 10.65 6.75" class="a7-cls-29" data-color-action="stroke" style="stroke:inherit" data-name="frenum pull"/><path id="a7_external_root_resorption" d="M35.11 70.9a9.74 9.74 0 0 0-2.57 7.44 8.62 8.62 0 0 0 4.89 7.27c-.7-5.04-1.49-10.02-2.32-14.71zm-12.79-2.27c-.52 5-1 10.43-1.43 15.9 1.6-.76 4.26-2.75 4.82-7.64.6-5.29-2.01-7.48-3.39-8.26z" class="a7-cls-15 a7-cls-20" data-color-action="fill" style="fill:inherit" data-name="external root resorption"/><g id="a7_distal_drift" class="a7-cls-15" data-name="distal drift"><path d="M26.41 131.16h11.92" class="a7-cls-26" data-color-action="stroke" style="stroke:inherit"/><path d="M27.57 135.15l-6.9-3.99 6.9-3.99v7.98z" class="a7-cls-16" data-color-action="fill" style="fill:inherit"/></g><path id="a7_three_quarter_crown" d="M14.6 130.07c-.6 6.93-.76 13.93-.06 16.12 1.16 3.65 10.31 4.34 14.53 4.69s13.37-1.39 14.67-4 1.41-9.93.85-16.81z" class="a7-cls-15 a7-cls-31" data-color-action="fill" style="fill:inherit" data-name="three quarter crown"/><path id="a7_crown" d="M43.74 146.88c1.85-3.68 1.29-16 0-24.13-1.6-10.07-5.52-14.58-12.64-14.76s-13.1 1.91-14.82 9.9-2.91 24.65-1.74 28.3 10.31 4.34 14.53 4.69 13.36-1.4 14.67-4z" class="a7-cls-12" data-color-action="fill" style="fill:inherit"/><path id="a7_cracked_surface_incisal" d="M28.17 142.84l3.84 3.83H27l5 4.74h-5l3.83 3.83" class="a7-cls-32" data-color-action="stroke" style="stroke:inherit" data-name="cracked surface incisal"/><path id="a7_cracked_surface_mesial" d="M41.34 123.82l3.83 3.83h-5.01l5.01 4.75h-5.01l3.83 3.83" class="a7-cls-32" data-color-action="stroke" style="stroke:inherit" data-name="cracked surface mesial"/><path id="a7_cracked_surface_facial" d="M28.17 123.82l3.84 3.83H27l5 4.75h-5l3.83 3.83" class="a7-cls-32" data-color-action="stroke" style="stroke:inherit" data-name="cracked surface facial"/><path id="a7_cracked_surface_facial_V" d="M28.17 123.82l3.84 3.83H27l5 4.75h-5l3.83 3.83" class="a7-cls-32" data-color-action="stroke" style="stroke:inherit" data-name="cracked surface facial V"/><path id="a7_cracked_surface_distal" d="M13.34 123.82l3.83 3.83h-5l5 4.75h-5l3.83 3.83" class="a7-cls-32" data-color-action="stroke" style="stroke:inherit" data-name="cracked surface distal"/><g id="a7_chipped_surface_incisal" class="a7-cls-15" data-name="chipped surface incisal"><path d="M25.67 144.51l8.33 8.33M34 144.51l-8.33 8.33" class="a7-cls-33" data-color-action="stroke" style="stroke:inherit"/></g><g id="a7_chipped_surface_mesial" class="a7-cls-15" data-name="chipped surface mesial"><path d="M37.83 125.49l8.33 8.34M46.16 125.49l-8.33 8.34" class="a7-cls-33" data-color-action="stroke" style="stroke:inherit"/></g><g id="a7_chipped_surface_facial" class="a7-cls-15" data-name="chipped surface facial"><path d="M25.67 125.49l8.33 8.34M34 125.49l-8.33 8.34" class="a7-cls-33" data-color-action="stroke" style="stroke:inherit"/></g><g id="a7_chipped_surface_facial_V" class="a7-cls-15" data-name="chipped surface facial V"><path d="M25.67 125.49l8.33 8.34M34 125.49l-8.33 8.34" class="a7-cls-33" data-color-action="stroke" style="stroke:inherit"/></g><g id="a7_chipped_surface_distal" class="a7-cls-15" data-name="chipped surface distal"><path d="M11.67 125.49l8.33 8.34M20 125.49l-8.33 8.34" class="a7-cls-33" data-color-action="stroke" style="stroke:inherit"/></g><path id="a7_buccal_abfraction" d="M39.36 107.74a17.54 17.54 0 0 1-9.69 3.42 17.54 17.54 0 0 1-9.67-3.42 17.54 17.54 0 0 1 9.69-3.42 17.54 17.54 0 0 1 9.67 3.42z" class="a7-cls-13" data-color-action="fill" style="fill:inherit" data-name="buccal abfraction"/><g id="a7_braces"><path d="M22.59 121.97h13.45v18.19H22.59z" class="a7-cls-24"/><path d="M22.59 139.48h13.45v.68H22.59zM22.59 131.21h13.45v1.36H22.59z" class="a7-cls-34" data-color-action="fill" style="fill:inherit"/><path d="M22.59 121.97h13.45v.89H22.59z" class="a7-cls-35" data-color-action="fill" style="fill:inherit"/><rect width="4.11" height="7.94" x="22.3" y="121.99" class="a7-cls-27" rx=".49" ry=".49" data-color-action="fill" style="fill:inherit"/><path d="M25.92 122h-3.13a.49.49 0 0 0-.49.49v5.83a13.14 13.14 0 0 0 4.11 0v-5.83a.49.49 0 0 0-.49-.49z" class="a7-cls-18" data-color-action="fill" style="fill:inherit"/><path d="M26.08 123.4v-1.11a.16.16 0 0 0-.16-.16h-3.13a.16.16 0 0 0-.16.16v1.11z" class="a7-cls-24"/><rect width="4.11" height="7.94" x="32.22" y="121.99" class="a7-cls-27" rx=".49" ry=".49" data-color-action="fill" style="fill:inherit"/><path d="M35.84 122h-3.13a.49.49 0 0 0-.49.49v5.83a13.14 13.14 0 0 0 4.11 0v-5.83a.49.49 0 0 0-.49-.49z" class="a7-cls-18" data-color-action="fill" style="fill:inherit"/><path d="M36 123.4v-1.11a.16.16 0 0 0-.16-.16h-3.13a.16.16 0 0 0-.16.16v1.11z" class="a7-cls-24"/><rect width="4.11" height="7.94" x="22.3" y="132.27" class="a7-cls-27" rx=".49" ry=".49" data-color-action="fill" style="fill:inherit"/><path d="M25.92 132.27h-3.13a.49.49 0 0 0-.49.49v5.83a13.14 13.14 0 0 0 4.11 0v-5.83a.49.49 0 0 0-.49-.49z" class="a7-cls-18" data-color-action="fill" style="fill:inherit"/><path d="M26.08 133.68v-1.11a.16.16 0 0 0-.16-.16h-3.13a.16.16 0 0 0-.16.16v1.11z" class="a7-cls-24"/><rect width="4.11" height="7.94" x="32.22" y="132.27" class="a7-cls-27" rx=".49" ry=".49" data-color-action="fill" style="fill:inherit"/><path d="M35.84 132.27h-3.13a.49.49 0 0 0-.49.49v5.83a13.14 13.14 0 0 0 4.11 0v-5.83a.49.49 0 0 0-.49-.49z" class="a7-cls-18" data-color-action="fill" style="fill:inherit"/><path d="M36 133.68v-1.11a.16.16 0 0 0-.16-.16h-3.13a.16.16 0 0 0-.16.16v1.11z" class="a7-cls-24"/><path d="M8.21 130.38h42.21v1.45H8.21z" class="a7-cls-18" data-color-action="fill" style="fill:inherit"/><path d="M8.21 131.58h42.21v.25H8.21z" class="a7-cls-27" data-color-action="fill" style="fill:inherit"/><path d="M8.21 130.58h42.21v.4H8.21z" class="a7-cls-24"/></g><path id="a7_apicoectomy" d="M36.84 30.14L29.5 41.81l-7.34-11.67h14.68z" class="a7-cls-17" data-color-action="fill" style="fill:inherit"/><circle id="a7_abscess" cx="29.5" cy="35.65" r="6.5" class="a7-cls-37" data-color-action="fill" style="fill:inherit"/><g id="a7_blunted_roots" data-name="blunted roots"><path d="M2 22h55v59.99H2z" class="a7-cls-22"/><path d="M2 82.08h55v2H2z" class="a7-cls-36" data-color-action="fill" style="fill:inherit"/></g><path id="a7_root_amputation" d="M2 21.67h55v86.14H2z" class="a7-cls-22" data-name="root amputation"/><path id="a7_missing_crown" d="M2 108.91h55v50.26H2z" class="a7-cls-22" data-name="missing crown"/><g id="a7_missing_tooth" data-name="missing tooth"><path d="M16.28 117.89a12.69 12.69 0 0 1 2.94-6c.28-8 .87-16.88 1.56-25.94 1.71-22.43 4.36-44.23 6.68-44.09 1.87.11 6.92 21.63 10 44.27 1.29 9.41 2.23 18.53 2.66 26.42 1.71 2.39 2.88 5.76 3.59 10.24 1.29 8.1 1.85 20.45 0 24.13-1.31 2.6-10.46 4.34-14.67 4s-13.37-1-14.53-4.69.03-20.35 1.77-28.34z" class="a7-cls-2"/><path d="M40.4 119.77a286.69 286.69 0 0 0-2.9-33.68c-3.1-22.64-8.15-44.16-10-44.27-2.32-.14-5 21.67-6.68 44.09C19.82 98.63 19 111.06 19 121c0 2.94 21.44 2.11 21.4-1.23z" class="a7-cls-22"/><path d="M29 118.57l-5 .78s.27-24 .48-42c.35-28.77 2.26-32.54 2.65-33.2s-.91 3.07-.45 24.37C27 81.42 29 118.57 29 118.57zM36.13 85.1c-1-9.75-2.31-19.3-3.58-27.26 1.73 7.92 3.54 18 5 28.25a286.69 286.69 0 0 1 2.91 33.68c0 .61-.71 1.13-1.87 1.57-.14-9.96-1.05-22.83-2.46-36.24zM20.79 85.92c1.27-16.65 3.06-33 4.85-40.19-1.25 8.94-2.46 23.93-3.35 39.19-.79 13.49-1.42 26.68-1.44 37.29-1.11-.29-1.79-.7-1.79-1.22-.06-9.93.76-22.36 1.73-35.07z" class="a7-cls-22"/><path d="M43.74 146.88c1.85-3.68 1.29-16 0-24.13-1.6-10.07-5.52-14.58-12.64-14.76s-13.1 1.91-14.82 9.9-2.91 24.65-1.74 28.3 10.31 4.34 14.53 4.69 13.36-1.4 14.67-4z" class="a7-cls-22"/><path d="M41.3 123.33c-.78-6.71-2.22-11.24-4.47-13.88 3.6 2.06 5.81 6.36 6.91 13.3 1.29 8.1 1.85 20.45 0 24.13a4.27 4.27 0 0 1-1.92 1.6c.87-5.7.4-17.21-.52-25.15zM16.28 117.89c.9-4.11 2.92-6.65 5.63-8.13-1.59 1.75-2.78 4.33-3.37 8-1.32 8.26-2.23 24.68-1.66 30.69a4.3 4.3 0 0 1-2.35-2.31c-1.15-3.6.01-20.26 1.75-28.25zM23.2 150.24c-.06-5.12 0-13.85.44-25.22.41-9.79 1.32-14.44 2-16.58a20.34 20.34 0 0 1 2.89-.4c-.25 2.38-.67 7.91-.81 19.19-.11 9.2.31 18.48.59 23.58-1.47-.12-3.31-.29-5.11-.57z" class="a7-cls-22"/></g><g id="a7_extracted_tooth" class="a7-msng-cls-10" data-name="extracted tooth"><path d="M9 108.83l41.67 41.66M50.67 108.83L9 150.49" class="a7-msng-cls-11" data-color-action="stroke" style="stroke:inherit"/></g><g id="a7_denture"><path d="M2 23.16h55v135.01H2z" class="a7-cls-22"/><path d="M57 100.22A22.63 22.63 0 0 0 44.78 97c-7.64 0-10 3.22-15.79 3.22S19.15 97 13.2 97A24.26 24.26 0 0 0 2 100.22v57.94h55z" class="a7-cls-30" data-color-action="fill" style="fill:inherit"/><path d="M43.74 146.88c1.85-3.68 1.29-16 0-24.13-1.6-10.07-5.52-14.58-12.64-14.76s-13.1 1.91-14.82 9.9-2.91 24.65-1.74 28.3 10.31 4.34 14.53 4.69 13.36-1.4 14.67-4z" class="a7-cls-2"/><path d="M43.74 146.88c1.85-3.68 1.29-16 0-24.13-1.6-10.07-5.52-14.58-12.64-14.76s-13.1 1.91-14.82 9.9-2.91 24.65-1.74 28.3 10.31 4.34 14.53 4.69 13.36-1.4 14.67-4z" class="a7-cls-6"/><path d="M41.3 123.33c-.78-6.71-2.22-11.24-4.47-13.88 3.6 2.06 5.81 6.36 6.91 13.3 1.29 8.1 1.85 20.45 0 24.13a4.27 4.27 0 0 1-1.92 1.6c.87-5.7.4-17.21-.52-25.15zM16.28 117.89c.9-4.11 2.92-6.65 5.63-8.13-1.59 1.75-2.78 4.33-3.37 8-1.32 8.26-2.23 24.68-1.66 30.69a4.3 4.3 0 0 1-2.35-2.31c-1.15-3.6.01-20.26 1.75-28.25z" class="a7-cls-7"/><path d="M23.2 150.24c-.06-5.12 0-13.85.44-25.22.41-9.79 1.32-14.44 2-16.58a20.34 20.34 0 0 1 2.89-.4c-.25 2.38-.67 7.91-.81 19.19-.11 9.2.31 18.48.59 23.58-1.47-.12-3.31-.29-5.11-.57z" class="a7-cls-8"/></g><g id="a7_maryland_bridge_pontic" class="a7-cls-15" data-name="maryland bridge pontic"><path d="M43.74 146.88c1.85-3.68 1.29-16 0-24.13-1.6-10.07-5.52-14.58-12.64-14.76s-13.1 1.91-14.82 9.9-2.91 24.65-1.74 28.3 10.31 4.34 14.53 4.69 13.36-1.4 14.67-4z" class="a7-cls-20" data-color-action="fill" style="fill:inherit"/><path d="M2 126.33h55V134H2z" class="a7-cls-20" data-color-action="fill" style="fill:inherit"/></g><g id="a7_maryland_bridge_abutment_mesial" data-name="maryland bridge abutment mesial"><path d="M22.02 126.33H57V134H22.02z" class="a7-cls-15 a7-cls-20" data-color-action="fill" style="fill:inherit"/><path d="M16.28 117.89a12.69 12.69 0 0 1 2.94-6c.28-8 .87-16.88 1.56-25.94 1.71-22.43 4.36-44.23 6.68-44.09 1.87.11 6.92 21.63 10 44.27 1.29 9.41 2.23 18.53 2.66 26.42 1.71 2.39 2.88 5.76 3.59 10.24 1.29 8.1 1.85 20.45 0 24.13-1.31 2.6-10.46 4.34-14.67 4s-13.37-1-14.53-4.69.03-20.35 1.77-28.34z" class="a7-cls-2"/><path d="M40.4 119.77a286.69 286.69 0 0 0-2.9-33.68c-3.1-22.64-8.15-44.16-10-44.27-2.32-.14-5 21.67-6.68 44.09C19.82 98.63 19 111.06 19 121c0 2.94 21.44 2.11 21.4-1.23z" class="a7-cls-3"/><path d="M29 118.57l-5 .78s.27-24 .48-42c.35-28.77 2.26-32.54 2.65-33.2s-.91 3.07-.45 24.37C27 81.42 29 118.57 29 118.57z" class="a7-cls-4"/><path d="M36.13 85.1c-1-9.75-2.31-19.3-3.58-27.26 1.73 7.92 3.54 18 5 28.25a286.69 286.69 0 0 1 2.91 33.68c0 .61-.71 1.13-1.87 1.57-.14-9.96-1.05-22.83-2.46-36.24zM20.79 85.92c1.27-16.65 3.06-33 4.85-40.19-1.25 8.94-2.46 23.93-3.35 39.19-.79 13.49-1.42 26.68-1.44 37.29-1.11-.29-1.79-.7-1.79-1.22-.06-9.93.76-22.36 1.73-35.07z" class="a7-cls-5"/><path d="M43.74 146.88c1.85-3.68 1.29-16 0-24.13-1.6-10.07-5.52-14.58-12.64-14.76s-13.1 1.91-14.82 9.9-2.91 24.65-1.74 28.3 10.31 4.34 14.53 4.69 13.36-1.4 14.67-4z" class="a7-cls-6"/><path d="M41.3 123.33c-.78-6.71-2.22-11.24-4.47-13.88 3.6 2.06 5.81 6.36 6.91 13.3 1.29 8.1 1.85 20.45 0 24.13a4.27 4.27 0 0 1-1.92 1.6c.87-5.7.4-17.21-.52-25.15zM16.28 117.89c.9-4.11 2.92-6.65 5.63-8.13-1.59 1.75-2.78 4.33-3.37 8-1.32 8.26-2.23 24.68-1.66 30.69a4.3 4.3 0 0 1-2.35-2.31c-1.15-3.6.01-20.26 1.75-28.25z" class="a7-cls-7"/><path d="M23.2 150.24c-.06-5.12 0-13.85.44-25.22.41-9.79 1.32-14.44 2-16.58a20.34 20.34 0 0 1 2.89-.4c-.25 2.38-.67 7.91-.81 19.19-.11 9.2.31 18.48.59 23.58-1.47-.12-3.31-.29-5.11-.57z" class="a7-cls-8"/></g><g id="a7_maryland_bridge_abutment_distal" data-name="maryland bridge abutment distal"><path d="M2 126.33h34.98V134H2z" class="a7-cls-15 a7-cls-20" data-color-action="fill" style="fill:inherit"/><path d="M16.28 117.89a12.69 12.69 0 0 1 2.94-6c.28-8 .87-16.88 1.56-25.94 1.71-22.43 4.36-44.23 6.68-44.09 1.87.11 6.92 21.63 10 44.27 1.29 9.41 2.23 18.53 2.66 26.42 1.71 2.39 2.88 5.76 3.59 10.24 1.29 8.1 1.85 20.45 0 24.13-1.31 2.6-10.46 4.34-14.67 4s-13.37-1-14.53-4.69.03-20.35 1.77-28.34z" class="a7-cls-2"/><path d="M40.4 119.77a286.69 286.69 0 0 0-2.9-33.68c-3.1-22.64-8.15-44.16-10-44.27-2.32-.14-5 21.67-6.68 44.09C19.82 98.63 19 111.06 19 121c0 2.94 21.44 2.11 21.4-1.23z" class="a7-cls-3"/><path d="M29 118.57l-5 .78s.27-24 .48-42c.35-28.77 2.26-32.54 2.65-33.2s-.91 3.07-.45 24.37C27 81.42 29 118.57 29 118.57z" class="a7-cls-4"/><path d="M36.13 85.1c-1-9.75-2.31-19.3-3.58-27.26 1.73 7.92 3.54 18 5 28.25a286.69 286.69 0 0 1 2.91 33.68c0 .61-.71 1.13-1.87 1.57-.14-9.96-1.05-22.83-2.46-36.24zM20.79 85.92c1.27-16.65 3.06-33 4.85-40.19-1.25 8.94-2.46 23.93-3.35 39.19-.79 13.49-1.42 26.68-1.44 37.29-1.11-.29-1.79-.7-1.79-1.22-.06-9.93.76-22.36 1.73-35.07z" class="a7-cls-5"/><path d="M43.74 146.88c1.85-3.68 1.29-16 0-24.13-1.6-10.07-5.52-14.58-12.64-14.76s-13.1 1.91-14.82 9.9-2.91 24.65-1.74 28.3 10.31 4.34 14.53 4.69 13.36-1.4 14.67-4z" class="a7-cls-6"/><path d="M41.3 123.33c-.78-6.71-2.22-11.24-4.47-13.88 3.6 2.06 5.81 6.36 6.91 13.3 1.29 8.1 1.85 20.45 0 24.13a4.27 4.27 0 0 1-1.92 1.6c.87-5.7.4-17.21-.52-25.15zM16.28 117.89c.9-4.11 2.92-6.65 5.63-8.13-1.59 1.75-2.78 4.33-3.37 8-1.32 8.26-2.23 24.68-1.66 30.69a4.3 4.3 0 0 1-2.35-2.31c-1.15-3.6.01-20.26 1.75-28.25z" class="a7-cls-7"/><path d="M23.2 150.24c-.06-5.12 0-13.85.44-25.22.41-9.79 1.32-14.44 2-16.58a20.34 20.34 0 0 1 2.89-.4c-.25 2.38-.67 7.91-.81 19.19-.11 9.2.31 18.48.59 23.58-1.47-.12-3.31-.29-5.11-.57z" class="a7-cls-8"/></g><g id="a7_maryland_bridge_abutment" data-name="maryland bridge abutment"><path d="M2 126.33h55V134H2z" class="a7-cls-15 a7-cls-20" data-color-action="fill" style="fill:inherit"/><path d="M16.28 117.89a12.69 12.69 0 0 1 2.94-6c.28-8 .87-16.88 1.56-25.94 1.71-22.43 4.36-44.23 6.68-44.09 1.87.11 6.92 21.63 10 44.27 1.29 9.41 2.23 18.53 2.66 26.42 1.71 2.39 2.88 5.76 3.59 10.24 1.29 8.1 1.85 20.45 0 24.13-1.31 2.6-10.46 4.34-14.67 4s-13.37-1-14.53-4.69.03-20.35 1.77-28.34z" class="a7-cls-2"/><path d="M40.4 119.77a286.69 286.69 0 0 0-2.9-33.68c-3.1-22.64-8.15-44.16-10-44.27-2.32-.14-5 21.67-6.68 44.09C19.82 98.63 19 111.06 19 121c0 2.94 21.44 2.11 21.4-1.23z" class="a7-cls-3"/><path d="M29 118.57l-5 .78s.27-24 .48-42c.35-28.77 2.26-32.54 2.65-33.2s-.91 3.07-.45 24.37C27 81.42 29 118.57 29 118.57z" class="a7-cls-4"/><path d="M36.13 85.1c-1-9.75-2.31-19.3-3.58-27.26 1.73 7.92 3.54 18 5 28.25a286.69 286.69 0 0 1 2.91 33.68c0 .61-.71 1.13-1.87 1.57-.14-9.96-1.05-22.83-2.46-36.24zM20.79 85.92c1.27-16.65 3.06-33 4.85-40.19-1.25 8.94-2.46 23.93-3.35 39.19-.79 13.49-1.42 26.68-1.44 37.29-1.11-.29-1.79-.7-1.79-1.22-.06-9.93.76-22.36 1.73-35.07z" class="a7-cls-5"/><path d="M43.74 146.88c1.85-3.68 1.29-16 0-24.13-1.6-10.07-5.52-14.58-12.64-14.76s-13.1 1.91-14.82 9.9-2.91 24.65-1.74 28.3 10.31 4.34 14.53 4.69 13.36-1.4 14.67-4z" class="a7-cls-6"/><path d="M41.3 123.33c-.78-6.71-2.22-11.24-4.47-13.88 3.6 2.06 5.81 6.36 6.91 13.3 1.29 8.1 1.85 20.45 0 24.13a4.27 4.27 0 0 1-1.92 1.6c.87-5.7.4-17.21-.52-25.15zM16.28 117.89c.9-4.11 2.92-6.65 5.63-8.13-1.59 1.75-2.78 4.33-3.37 8-1.32 8.26-2.23 24.68-1.66 30.69a4.3 4.3 0 0 1-2.35-2.31c-1.15-3.6.01-20.26 1.75-28.25z" class="a7-cls-7"/><path d="M23.2 150.24c-.06-5.12 0-13.85.44-25.22.41-9.79 1.32-14.44 2-16.58a20.34 20.34 0 0 1 2.89-.4c-.25 2.38-.67 7.91-.81 19.19-.11 9.2.31 18.48.59 23.58-1.47-.12-3.31-.29-5.11-.57z" class="a7-cls-8"/></g><g id="a7_bridge_abutment_mesial" class="a7-cls-15" data-name="bridge abutment mesial"><path d="M22.02 127.33H57V135H22.02z" class="a7-cls-18" data-color-action="fill" style="fill:inherit"/><path d="M43.74 146.88c1.85-3.68 1.29-16 0-24.13-1.6-10.07-5.52-14.58-12.64-14.76s-13.1 1.91-14.82 9.9-2.91 24.65-1.74 28.3 10.31 4.34 14.53 4.69 13.36-1.4 14.67-4z" class="a7-cls-18" data-color-action="fill" style="fill:inherit"/></g><g id="a7_bridge_abutment_distal" class="a7-cls-15" data-name="bridge abutment distal"><path d="M2 127.33h34.98V135H2z" class="a7-cls-18" data-color-action="fill" style="fill:inherit"/><path d="M43.74 146.88c1.85-3.68 1.29-16 0-24.13-1.6-10.07-5.52-14.58-12.64-14.76s-13.1 1.91-14.82 9.9-2.91 24.65-1.74 28.3 10.31 4.34 14.53 4.69 13.36-1.4 14.67-4z" class="a7-cls-18" data-color-action="fill" style="fill:inherit"/></g><g id="a7_bridge_abutment" class="a7-cls-15" data-name="bridge abutment"><path d="M2 127.33h55V135H2z" class="a7-cls-18" data-color-action="fill" style="fill:inherit"/><path d="M43.74 146.88c1.85-3.68 1.29-16 0-24.13-1.6-10.07-5.52-14.58-12.64-14.76s-13.1 1.91-14.82 9.9-2.91 24.65-1.74 28.3 10.31 4.34 14.53 4.69 13.36-1.4 14.67-4z" class="a7-cls-18" data-color-action="fill" style="fill:inherit"/></g><g id="a7_bridge_pontic" data-name="bridge pontic"><path d="M16.28 117.89a12.69 12.69 0 0 1 2.94-6c.28-8 .87-16.88 1.56-25.94 1.71-22.43 4.36-44.23 6.68-44.09 1.87.11 6.92 21.63 10 44.27 1.29 9.41 2.23 18.53 2.66 26.42 1.71 2.39 2.88 5.76 3.59 10.24 1.29 8.1 1.85 20.45 0 24.13-1.31 2.6-10.46 4.34-14.67 4s-13.37-1-14.53-4.69.03-20.35 1.77-28.34z" class="a7-cls-2"/><path d="M40.4 119.77a286.69 286.69 0 0 0-2.9-33.68c-3.1-22.64-8.15-44.16-10-44.27-2.32-.14-5 21.67-6.68 44.09C19.82 98.63 19 111.06 19 121c0 2.94 21.44 2.11 21.4-1.23z" class="a7-cls-22"/><path d="M29 118.57l-5 .78s.27-24 .48-42c.35-28.77 2.26-32.54 2.65-33.2s-.91 3.07-.45 24.37C27 81.42 29 118.57 29 118.57zM36.13 85.1c-1-9.75-2.31-19.3-3.58-27.26 1.73 7.92 3.54 18 5 28.25a286.69 286.69 0 0 1 2.91 33.68c0 .61-.71 1.13-1.87 1.57-.14-9.96-1.05-22.83-2.46-36.24zM20.79 85.92c1.27-16.65 3.06-33 4.85-40.19-1.25 8.94-2.46 23.93-3.35 39.19-.79 13.49-1.42 26.68-1.44 37.29-1.11-.29-1.79-.7-1.79-1.22-.06-9.93.76-22.36 1.73-35.07z" class="a7-cls-22"/><path d="M43.74 146.88c1.85-3.68 1.29-16 0-24.13-1.6-10.07-5.52-14.58-12.64-14.76s-13.1 1.91-14.82 9.9-2.91 24.65-1.74 28.3 10.31 4.34 14.53 4.69 13.36-1.4 14.67-4z" class="a7-cls-6"/><path d="M41.3 123.33c-.78-6.71-2.22-11.24-4.47-13.88 3.6 2.06 5.81 6.36 6.91 13.3 1.29 8.1 1.85 20.45 0 24.13a4.27 4.27 0 0 1-1.92 1.6c.87-5.7.4-17.21-.52-25.15zM16.28 117.89c.9-4.11 2.92-6.65 5.63-8.13-1.59 1.75-2.78 4.33-3.37 8-1.32 8.26-2.23 24.68-1.66 30.69a4.3 4.3 0 0 1-2.35-2.31c-1.15-3.6.01-20.26 1.75-28.25z" class="a7-cls-7"/><path d="M23.2 150.24c-.06-5.12 0-13.85.44-25.22.41-9.79 1.32-14.44 2-16.58a20.34 20.34 0 0 1 2.89-.4c-.25 2.38-.67 7.91-.81 19.19-.11 9.2.31 18.48.59 23.58-1.47-.12-3.31-.29-5.11-.57z" class="a7-cls-8"/><g class="a7-cls-15"><path d="M2 127.33h55V135H2z" class="a7-cls-18" data-color-action="fill" style="fill:inherit"/><path d="M43.74 146.88c1.85-3.68 1.29-16 0-24.13-1.6-10.07-5.52-14.58-12.64-14.76s-13.1 1.91-14.82 9.9-2.91 24.65-1.74 28.3 10.31 4.34 14.53 4.69 13.36-1.4 14.67-4z" class="a7-cls-18" data-color-action="fill" style="fill:inherit"/></g></g><g id="a7_implant_mini" data-name="implant mini"><path d="M2.39 22.04h55v137.17h-55z" class="a7-cls-22"/><path d="M29.72 83.07h-.44l-1 8.49v40.84h2.44V91.56l-1-8.49z" class="a7-cls-18" data-color-action="fill" style="fill:inherit"/><path d="M29.42 83.07h-.07l-.4 8.49v40.84h.37V91.56l.1-8.49z" class="a7-cls-24"/><path d="M28.28 131.77h2.44v.63h-2.44z" class="a7-cls-27" data-color-action="fill" style="fill:inherit"/><g class="a7-cls-28"><path d="M28.28 131.77l2.44-1v.63l-2.44 1v-.63zM28.28 130.32l2.44-1v.63l-2.44 1v-.63zM28.28 128.88l2.44-1v.63l-2.44 1v-.63zM28.28 127.43l2.44-1v.63l-2.44 1v-.63zM28.28 125.98l2.44-1v.64l-2.44 1v-.64zM28.28 124.54l2.44-1v.63l-2.44 1v-.63zM28.28 123.09l2.44-1v.64l-2.44 1v-.64zM28.28 121.65l2.44-1v.63l-2.44 1v-.63zM28.28 120.2l2.44-1v.63l-2.44 1.01v-.64zM28.28 118.76l2.44-1v.63l-2.44 1v-.63zM28.28 117.31l2.44-1v.63l-2.44 1v-.63zM28.28 115.87l2.44-1v.63l-2.44 1v-.63zM28.28 114.42l2.44-1v.63l-2.44 1v-.63zM28.28 112.98l2.44-1v.63l-2.44 1v-.63zM28.28 111.53l2.44-1v.63l-2.44 1v-.63zM28.28 110.08l2.44-1v.64l-2.44 1v-.64zM28.28 108.64l2.44-1v.63l-2.44 1v-.63zM28.28 107.19l2.44-1v.64l-2.44 1v-.64zM28.28 105.75l2.44-1v.63l-2.44 1v-.63zM28.28 104.3l2.44-1v.64l-2.44 1v-.64zM28.28 102.86l2.44-1v.63l-2.44 1v-.63zM28.28 101.41l2.44-1v.63l-2.44 1.01v-.64zM28.28 99.97l2.44-1v.63l-2.44 1v-.63zM28.28 98.52l2.44-1v.63l-2.44 1v-.63zM28.28 97.08l2.44-1v.63l-2.44 1v-.63zM28.28 95.63l2.44-1v.63l-2.44 1v-.63zM28.28 94.19l2.44-1v.63l-2.44 1v-.63zM28.28 92.74l2.44-1v.63l-2.44 1v-.63zM28.28 91.56l.03-.28 2.27-.93.07.61-2.37.97v-.37zM28.49 89.76l1.93-.79.07.61-2.08.85.08-.67zM28.67 88.24l1.58-.65.08.61-1.74.71.08-.67zM28.85 86.72l1.24-.5.07.6-1.39.57.08-.67zM29.03 85.21l.9-.37.07.6-1.05.43.08-.66zM29.2 83.69l.57-.23.07.6-.71.29.07-.66z" class="a7-cls-27" data-color-action="fill" style="fill:inherit"/></g><circle cx="29.5" cy="136.27" r="2.24" class="a7-cls-18" data-color-action="fill" style="fill:inherit"/><path d="M27.67 132.06h3.67v3h-3.67z" class="a7-cls-18" data-color-action="fill" style="fill:inherit"/><path d="M28.49 132.06h.55v3h-.55z" class="a7-cls-24"/><path d="M28.7 137.63h-.21a2.32 2.32 0 0 1-.52-1.29 2.37 2.37 0 0 1 .52-1.3H29a2 2 0 0 0-.73 1.37 1.5 1.5 0 0 0 .43 1.22z" class="a7-cls-24"/><path d="M28.28 125.7h2.44v.63h-2.44z" class="a7-cls-27" data-color-action="fill" style="fill:inherit"/><path d="M32.11 132.08h-5.22l.87-5.71h3.48l.87 5.71z" class="a7-cls-18" data-color-action="fill" style="fill:inherit"/><path d="M28.85 132.08h-.79l.48-5.71h.53l-.22 5.71z" class="a7-cls-24"/></g><g id="a7_implant_cylinder" data-name="implant cylinder"><path d="M2 22h55v137.17H2z" class="a7-cls-22"/><path d="M26.17 86.01h6.67v49.33h-6.67zM24.5 135.35h10v3h-10z" class="a7-cls-18" data-color-action="fill" style="fill:inherit"/><path d="M28 86.01h1v49.33h-1zM26.75 135.35h1.5v3h-1.5z" class="a7-cls-24"/><path d="M24.5 82.99h10v3h-10z" class="a7-cls-18" data-color-action="fill" style="fill:inherit"/><path d="M26.75 82.99h1.5v3h-1.5z" class="a7-cls-24"/><path d="M26.17 134.71h6.67v.63h-6.67zM26.17 86.01h6.67v.63h-6.67z" class="a7-cls-27" data-color-action="fill" style="fill:inherit"/><g class="a7-cls-28"><path d="M32.83 87.65l-6.66-1.01v-.63l6.66 1v.64zM32.83 89.09l-6.66-1v-.63l6.66 1v.63zM32.83 90.54l-6.66-1v-.64l6.66 1.01v.63zM32.83 91.98l-6.66-1v-.63l6.66 1v.63zM32.83 93.43l-6.66-1v-.63l6.66 1v.63zM32.83 94.87l-6.66-1v-.63l6.66 1v.63zM32.83 96.32l-6.66-1v-.63l6.66 1v.63zM32.83 97.76l-6.66-1v-.63l6.66 1v.63zM32.83 99.21l-6.66-1v-.63l6.66 1v.63zM32.83 100.66l-6.66-1.01v-.63l6.66 1v.64zM32.83 102.1l-6.66-1v-.63l6.66 1v.63zM32.83 103.55l-6.66-1v-.64l6.66 1v.64zM32.83 104.99l-6.66-1v-.63l6.66 1v.63zM32.83 106.44l-6.66-1v-.64l6.66 1.01v.63zM32.83 107.88l-6.66-1v-.63l6.66 1v.63zM32.83 109.33l-6.66-1v-.64l6.66 1v.64zM32.83 110.77l-6.66-1v-.63l6.66 1v.63zM32.83 112.22l-6.66-1v-.63l6.66 1v.63zM32.83 113.66l-6.66-1v-.63l6.66 1v.63zM32.83 115.11l-6.66-1v-.63l6.66 1v.63zM32.83 116.56l-6.66-1.01v-.63l6.66 1v.64zM32.83 118l-6.66-1v-.63l6.66 1v.63zM32.83 119.45l-6.66-1.01v-.63l6.66 1v.64zM32.83 120.89l-6.66-1v-.63l6.66 1v.63zM32.83 122.34l-6.66-1v-.64l6.66 1v.64zM32.83 123.78l-6.66-1v-.63l6.66 1v.63zM32.83 125.23l-6.66-1v-.64l6.66 1v.64zM32.83 126.67l-6.66-1v-.63l6.66 1v.63zM32.83 128.12l-6.66-1v-.63l6.66 1v.63zM32.83 129.56l-6.66-1v-.63l6.66 1v.63zM32.83 131.01l-6.66-1v-.63l6.66 1v.63zM32.83 132.46l-6.66-1.01v-.63l6.66 1v.64zM32.83 133.9l-6.66-1v-.63l6.66 1v.63zM32.83 135.35l-6.66-1.01v-.63l6.66 1v.64z" class="a7-cls-27" data-color-action="fill" style="fill:inherit"/></g></g><g id="a7_implant_blade" data-name="implant blade"><path d="M2 22h55v137.17H2z" class="a7-cls-22"/><path d="M26.17 86.01h6.67v49.33h-6.67zM24.5 135.35h10v3h-10z" class="a7-cls-18" data-color-action="fill" style="fill:inherit"/><path d="M28 86.01h1v49.33h-1zM26.75 135.35h1.5v3h-1.5z" class="a7-cls-24"/><path d="M26.17 134.71h6.67v.63h-6.67z" class="a7-cls-27" data-color-action="fill" style="fill:inherit"/></g><path id="a7_watch_tooth" d="M8.27 27.73a3.26 3.26 0 0 1 3.22-3.26 3.24 3.24 0 1 1 0 6.47 3.25 3.25 0 0 1-3.22-3.21zm1-5.91L8.39 3.73h6.15l-.8 18.09z" class="a7-cls-11" data-color-action="fill" style="fill:inherit" data-name="watch tooth"/><path id="a7_border" d="M0 0h59v161H0z" class="a7-cls-14"/></defs></g><g class="c7-cls-1" transform="translate(0 217)"><g id="_7C" data-name="#7C"><path d="M43.74 14.85c1.85 3.68 1.29 16 0 24.13-1.6 10.07-5.52 14.58-12.64 14.76s-13.1-1.91-14.81-9.9-2.91-24.65-1.74-28.3 10.31-4.34 14.53-4.69 13.35 1.4 14.66 4z" class="c7-cls-2"/><path d="M43.74 14.85c1.85 3.68 1.29 16 0 24.13-1.6 10.07-5.52 14.58-12.64 14.76s-13.1-1.91-14.81-9.9-2.91-24.65-1.74-28.3 10.31-4.34 14.53-4.69 13.35 1.4 14.66 4z" class="c7-cls-3"/><path d="M36.6 13.58c-4.75-1-8.52-1-14.41.49a35.14 35.14 0 0 0-7.93 3 8.56 8.56 0 0 1 .29-1.54c1.16-3.65 10.31-4.34 14.53-4.69s13.37 1.39 14.67 4a7.18 7.18 0 0 1 .47 1.33 37.59 37.59 0 0 0-7.62-2.59z" class="c7-cls-4"/><path d="M39.38 45s-.53 3.54-3.44 4.91a14.1 14.1 0 0 1-9.17 1.15c-2.78-.66-6.39-3.28-6.55-4.75s1 .66 3.6 1.64 6.72.82 8.19-.33.82.82 2.29.66 4.1-4.07 5.08-3.28z" class="c7-cls-5"/></g><defs><g id="c7_splinted_crowns" data-name="splinted crowns"><path d="M2 51.09h55v7.67H2z" class="c7-cls-12" data-color-action="fill" style="fill:inherit"/><path d="M43.74 14.85c1.85 3.68 1.29 16 0 24.13-1.6 10.07-5.52 14.58-12.64 14.76s-13.1-1.91-14.81-9.9-2.91-24.65-1.74-28.3 10.31-4.34 14.53-4.69 13.35 1.4 14.66 4z" class="c7-cls-2"/><path d="M43.74 14.85c1.85 3.68 1.29 16 0 24.13-1.6 10.07-5.52 14.58-12.64 14.76s-13.1-1.91-14.81-9.9-2.91-24.65-1.74-28.3 10.31-4.34 14.53-4.69 13.35 1.4 14.66 4z" class="c7-cls-3"/><path d="M36.6 13.58c-4.75-1-8.52-1-14.41.49a35.14 35.14 0 0 0-7.93 3 8.56 8.56 0 0 1 .29-1.54c1.16-3.65 10.31-4.34 14.53-4.69s13.37 1.39 14.67 4a7.18 7.18 0 0 1 .47 1.33 37.59 37.59 0 0 0-7.62-2.59z" class="c7-cls-4"/><path d="M39.38 45s-.53 3.54-3.44 4.91a14.1 14.1 0 0 1-9.17 1.15c-2.78-.66-6.39-3.28-6.55-4.75s1 .66 3.6 1.64 6.72.82 8.19-.33.82.82 2.29.66 4.1-4.07 5.08-3.28z" class="c7-cls-5"/></g><path id="c7_lingual_V" d="M20.15 50.78a14.58 14.58 0 0 1 18.32.32 11 11 0 0 1-7.37 2.64c-4.3.1-8.18-.62-10.95-2.96z" class="c7-cls-6" data-color-action="fill" style="fill:inherit" data-name="lingual V"/><ellipse id="c7_mid_lingual" cx="28.92" cy="34.8" class="c7-cls-6" rx="4.61" ry="9.46" data-color-action="fill" style="fill:inherit" data-name="mid lingual"/><path id="c7_mesial" d="M38.52 23.27l6.27-3.17a81.79 81.79 0 0 1-.31 12.83c-1.91-.16-4.63-.82-5.09-3.18s-.19-4.75-.87-6.48z" class="c7-cls-6" data-color-action="fill" style="fill:inherit"/><path id="c7_line_angle_4" d="M33.51 20.45l2.68-9c3.49.69 6.8 1.89 7.55 3.38a15.28 15.28 0 0 1 1 5.25l-6.27 3.17a3.63 3.63 0 0 0-2.11-2.08 12.74 12.74 0 0 0-2.85-.72z" class="c7-cls-6" data-color-action="fill" style="fill:inherit" data-name="line angle 4"/><path id="c7_lingual" d="M22.34 11.62c2.48-.42 5-.62 6.73-.76a27.87 27.87 0 0 1 7.12.61l-2.68 9a37.31 37.31 0 0 0-8.78-.19z" class="c7-cls-6" data-color-action="fill" style="fill:inherit"/><path id="c7_line_angle_3" d="M14.11 19.08a15.21 15.21 0 0 1 .43-3.54c.69-2.16 4.18-3.28 7.79-3.92l2.39 8.64c-.56.06-1 .13-1.46.21A3.64 3.64 0 0 0 20.79 23z" class="c7-cls-6" data-color-action="fill" style="fill:inherit" data-name="line angle 3"/><path id="c7_distal" d="M14.11 19.08L20.79 23a24.07 24.07 0 0 0-1.22 5.8c-.34 2.47-2.78 3.61-4.86 4.13a114.29 114.29 0 0 1-.6-13.85z" class="c7-cls-6" data-color-action="fill" style="fill:inherit"/><g id="c7_veneer"><path d="M28 1.25h3v3h-3z" class="c7-cls-7"/><path d="M28 1.25h3v3h-3z" class="c7-cls-7"/><path d="M28 1.25h3v3h-3z" class="c7-cls-7"/></g><g id="c7_tissue_graft" data-name="tissue graft"><path d="M28 1.25h3v3h-3z" class="c7-cls-7"/><path d="M28 1.25h3v3h-3z" class="c7-cls-7"/><path d="M28 1.25h3v3h-3z" class="c7-cls-7"/></g><g id="c7_tipped_lingual" class="c7-cls-8" data-name="tipped lingual"><path d="M30.35 5.93c-1.26-3.37-4.74-3.85-7.69 5.32-.5 1.56-4.42 1.76-3.84 0C20.84 5.15 24.14 1 27.89 2a4.86 4.86 0 0 1 3 3.38c-.2.15-.43.41-.54.55z" class="c7-cls-9" data-color-action="fill" style="fill:inherit"/><path d="M28.27 8.85H15.33l2.94 9.64 10-9.64z" class="c7-cls-9" data-color-action="fill" style="fill:inherit"/></g><g id="c7_tipped_facial" data-name="tipped facial"><path d="M28 1.25h3v3h-3z" class="c7-cls-7"/><path d="M28 1.25h3v3h-3z" class="c7-cls-7"/><path d="M28 1.25h3v3h-3z" class="c7-cls-7"/></g><path id="c7_surface_restoration_mesial" d="M43.74 14.9c1.85 3.68 1.29 16 0 24.13 0 .14 0 .27-.07.41a11.52 11.52 0 0 0-6.25 5.1c.62-9.18.61-22.73.25-25.41h-.07l5.89-4.55a2.17 2.17 0 0 1 .25.32z" class="c7-cls-10" data-color-action="fill" style="fill:inherit" data-name="surface restoration mesial"/><path id="c7_surface_restoration_lingual" d="M29.53 49a14.59 14.59 0 0 0-6.16 1.37A11.45 11.45 0 0 0 22 44.84c-.7-9.72-1-22.44-.88-25.74a45.27 45.27 0 0 1 8.34-1.21h.82a26.6 26.6 0 0 1 7.42 1.26c.36 2.68.37 16.23-.25 25.41a11.43 11.43 0 0 0-1.58 5.79v.1A14.58 14.58 0 0 0 29.53 49z" class="c7-cls-8 c7-cls-11" data-color-action="fill" style="fill:inherit" data-name="surface restoration lingual"/><path id="c7_surface_restoration_lingual_V" d="M35.85 50.42a11.55 11.55 0 0 0 .24 2.26 12.3 12.3 0 0 1-5 1.1 20 20 0 0 1-8-1.19 11.55 11.55 0 0 0 .23-2.25 14.53 14.53 0 0 1 12.48.07z" class="c7-cls-8 c7-cls-11" data-color-action="fill" style="fill:inherit" data-name="surface restoration lingual V"/><path id="c7_surface_restoration_distal" d="M22 44.84a11.53 11.53 0 0 0-6.49-5.43c-1.26-8.57-1.92-20.77-.95-23.82a2.82 2.82 0 0 1 .43-.8l6.13 4.43c-.12 3.46.17 16.01.88 25.62z" class="c7-cls-10" data-color-action="fill" style="fill:inherit" data-name="surface restoration distal"/><path id="c7_surface_restoration_incisal" d="M29.07 10.9c4-.33 12.51 1.23 14.42 3.64l-5.89 4.55a26.61 26.61 0 0 0-7.35-1.23h-.82a45.27 45.27 0 0 0-8.33 1.24v.12L15 14.79c2.12-2.94 10.19-3.57 14.07-3.89z" class="c7-cls-10" data-color-action="fill" style="fill:inherit" data-name="surface restoration incisal"/><g id="c7_supra-erupted"><path d="M28 1.25h3v3h-3z" class="c7-cls-7"/><path d="M28 1.25h3v3h-3z" class="c7-cls-7"/><path d="M28 1.25h3v3h-3z" class="c7-cls-7"/></g><g id="c7_sub-erupted"><path d="M28 1.25h3v3h-3z" class="c7-cls-7"/><path d="M28 1.25h3v3h-3z" class="c7-cls-7"/><path d="M28 1.25h3v3h-3z" class="c7-cls-7"/></g><g id="c7_sealant"><path d="M28 1.25h3v3h-3z" class="c7-cls-7"/><path d="M28 1.25h3v3h-3z" class="c7-cls-7"/><path d="M28 1.25h3v3h-3z" class="c7-cls-7"/></g><g id="c7_root_decay" data-name="root decay"><path d="M28 1.25h3v3h-3z" class="c7-cls-7"/><path d="M28 1.25h3v3h-3z" class="c7-cls-7"/><path d="M28 1.25h3v3h-3z" class="c7-cls-7"/></g><g id="c7_root_canal" data-name="root canal"><path d="M28 1.25h3v3h-3z" class="c7-cls-7"/><path d="M28 1.25h3v3h-3z" class="c7-cls-7"/><path d="M28 1.25h3v3h-3z" class="c7-cls-7"/></g><g id="c7_root_abrasion" data-name="root abrasion"><path d="M28 1.25h3v3h-3z" class="c7-cls-7"/><path d="M28 1.25h3v3h-3z" class="c7-cls-7"/><path d="M28 1.25h3v3h-3z" class="c7-cls-7"/></g><g id="c7_open_contact_mesial" data-name="open contact mesial"><path d="M28 1.25h3v3h-3z" class="c7-cls-7"/><path d="M28 1.25h3v3h-3z" class="c7-cls-7"/><path d="M28 1.25h3v3h-3z" class="c7-cls-7"/></g><g id="c7_open_contact_distal" data-name="open contact distal"><path d="M28 1.25h3v3h-3z" class="c7-cls-7"/><path d="M28 1.25h3v3h-3z" class="c7-cls-7"/><path d="M28 1.25h3v3h-3z" class="c7-cls-7"/></g><path id="c7_lingual_abfraction" d="M41.2 54.84S36 59 29.5 59s-11.7-4.12-11.7-4.12 5.2-4.16 11.7-4.16 11.7 4.12 11.7 4.12z" class="c7-cls-15" data-color-action="fill" style="fill:inherit" data-name="lingual abfraction"/><g id="c7_internal_root_resorption" data-name="internal root resorption"><path d="M28 1.25h3v3h-3z" class="c7-cls-7"/><path d="M28 1.25h3v3h-3z" class="c7-cls-7"/><path d="M28 1.25h3v3h-3z" class="c7-cls-7"/></g><g id="c7_gortex_membranes" data-name="gortex membranes"><path d="M28 1.25h3v3h-3z" class="c7-cls-7"/><path d="M28 1.25h3v3h-3z" class="c7-cls-7"/><path d="M28 1.25h3v3h-3z" class="c7-cls-7"/></g><g id="c7_frenum_pull" data-name="frenum pull"><path d="M28 1.25h3v3h-3z" class="c7-cls-7"/><path d="M28 1.25h3v3h-3z" class="c7-cls-7"/><path d="M28 1.25h3v3h-3z" class="c7-cls-7"/></g><g id="c7_external_root_resorption" data-name="external root resorption"><path d="M28 1.25h3v3h-3z" class="c7-cls-7"/><path d="M28 1.25h3v3h-3z" class="c7-cls-7"/><path d="M28 1.25h3v3h-3z" class="c7-cls-7"/></g><path id="c7_three_quarter_crown" d="M44.62 31.36c.53-6.79.45-13.87-.88-16.51s-10.46-4.34-14.67-4-13.37 1-14.53 4.69c-.69 2.17-.56 9 0 15.81z" class="c7-cls-8 c7-cls-19" data-color-action="fill" style="fill:inherit" data-name="three quarter crown"/><path id="c7_crown" d="M43.74 14.85c1.85 3.68 1.29 16 0 24.13-1.6 10.07-5.52 14.58-12.64 14.76s-13.1-1.91-14.81-9.9-2.91-24.65-1.74-28.3 10.31-4.34 14.53-4.69 13.35 1.4 14.66 4z" class="c7-cls-8 c7-cls-19" data-color-action="fill" style="fill:inherit"/><path id="c7_cracked_surface_mesial" d="M41.34 21.57l3.83 3.83h-5.01l5.01 4.75h-5.01l3.83 3.82" class="c7-cls-20" data-color-action="stroke" style="stroke:inherit" data-name="cracked surface mesial"/><path id="c7_cracked_surface_lingual" d="M28.17 21.57l3.84 3.83H27l5 4.75h-5l3.83 3.82" class="c7-cls-20" data-color-action="stroke" style="stroke:inherit" data-name="cracked surface lingual"/><path id="c7_cracked_surface_lingual_V" d="M28.17 21.57l3.84 3.83H27l5 4.75h-5l3.83 3.82" class="c7-cls-20" data-color-action="stroke" style="stroke:inherit" data-name="cracked surface lingual V"/><path id="c7_cracked_surface_distal" d="M13.34 21.57l3.83 3.83h-5l5 4.75h-5L16 33.97" class="c7-cls-20" data-color-action="stroke" style="stroke:inherit" data-name="cracked surface distal"/><g id="c7_chipped_surface_mesial" class="c7-cls-8" data-name="chipped surface mesial"><path d="M37.83 23.24l8.33 8.33M46.16 23.24l-8.33 8.33" class="c7-cls-21" data-color-action="stroke" style="stroke:inherit"/></g><g id="c7_chipped_surface_lingual" class="c7-cls-8" data-name="chipped surface lingual"><path d="M25.67 23.24L34 31.57M34 23.24l-8.33 8.33" class="c7-cls-21" data-color-action="stroke" style="stroke:inherit"/></g><g id="c7_chipped_surface_lingual_V" class="c7-cls-8" data-name="chipped surface lingual V"><path d="M25.67 23.24L34 31.57M34 23.24l-8.33 8.33" class="c7-cls-21" data-color-action="stroke" style="stroke:inherit"/></g><g id="c7_chipped_surface_distal" class="c7-cls-8" data-name="chipped surface distal"><path d="M11.67 23.24L20 31.57M20 23.24l-8.33 8.33" class="c7-cls-21" data-color-action="stroke" style="stroke:inherit"/></g><g id="c7_buccal_abfraction" data-name="buccal abfraction"><path d="M28 1.25h3v3h-3z" class="c7-cls-7"/><path d="M28 1.25h3v3h-3z" class="c7-cls-7"/><path d="M28 1.25h3v3h-3z" class="c7-cls-7"/></g><g id="c7_braces"><path d="M28 1.25h3v3h-3z" class="c7-cls-7"/><path d="M28 1.25h3v3h-3z" class="c7-cls-7"/><path d="M28 1.25h3v3h-3z" class="c7-cls-7"/></g><g id="c7_apicoectomy"><path d="M28 1.25h3v3h-3z" class="c7-cls-7"/><path d="M28 1.25h3v3h-3z" class="c7-cls-7"/><path d="M28 1.25h3v3h-3z" class="c7-cls-7"/></g><g id="c7_abscess"><path d="M28 1.25h3v3h-3z" class="c7-cls-7"/><path d="M28 1.25h3v3h-3z" class="c7-cls-7"/><path d="M28 1.25h3v3h-3z" class="c7-cls-7"/></g><g id="c7_blunted_roots" data-name="blunted roots"><path d="M28 1.25h3v3h-3z" class="c7-cls-7"/><path d="M28 1.25h3v3h-3z" class="c7-cls-7"/><path d="M28 1.25h3v3h-3z" class="c7-cls-7"/></g><g id="c7_root_amputation" data-name="root amputation"><path d="M28 1.25h3v3h-3z" class="c7-cls-7"/><path d="M28 1.25h3v3h-3z" class="c7-cls-7"/><path d="M28 1.25h3v3h-3z" class="c7-cls-7"/></g><g id="c7_missing_crown" data-name="missing crown"><path d="M28 1.25h3v3h-3z" class="c7-cls-7"/><path d="M28 1.25h3v3h-3z" class="c7-cls-7"/><path d="M28 1.25h3v3h-3z" class="c7-cls-7"/><path d="M2 2.02h55V64H2z" class="c7-cls-13"/></g><g id="c7_missing_tooth" data-name="missing tooth"><path d="M43.74 14.85c1.85 3.68 1.29 16 0 24.13-1.6 10.07-5.52 14.58-12.64 14.76s-13.1-1.91-14.81-9.9-2.91-24.65-1.74-28.3 10.31-4.34 14.53-4.69 13.35 1.4 14.66 4z" class="c7-cls-2"/><path d="M43.74 14.85c1.85 3.68 1.29 16 0 24.13-1.6 10.07-5.52 14.58-12.64 14.76s-13.1-1.91-14.81-9.9-2.91-24.65-1.74-28.3 10.31-4.34 14.53-4.69 13.35 1.4 14.66 4z" class="c7-cls-13"/><path d="M36.6 13.58c-4.75-1-8.52-1-14.41.49a35.14 35.14 0 0 0-7.93 3 8.56 8.56 0 0 1 .29-1.54c1.16-3.65 10.31-4.34 14.53-4.69s13.37 1.39 14.67 4a7.18 7.18 0 0 1 .47 1.33 37.59 37.59 0 0 0-7.62-2.59zM39.38 45s-.53 3.54-3.44 4.91a14.1 14.1 0 0 1-9.17 1.15c-2.78-.66-6.39-3.28-6.55-4.75s1 .66 3.6 1.64 6.72.82 8.19-.33.82.82 2.29.66 4.1-4.07 5.08-3.28z" class="c7-cls-13"/></g><g id="c7_maryland_bridge_pontic" class="c7-cls-8" data-name="maryland bridge pontic"><path d="M2 27.96h55v7.67H2z" class="c7-cls-14" data-color-action="fill" style="fill:inherit"/><path d="M43.74 14.85c1.85 3.68 1.29 16 0 24.13-1.6 10.07-5.52 14.58-12.64 14.76s-13.1-1.91-14.81-9.9-2.91-24.65-1.74-28.3 10.31-4.34 14.53-4.69 13.35 1.4 14.66 4z" class="c7-cls-14" data-color-action="fill" style="fill:inherit"/></g><g id="c7_maryland_bridge_abutment_mesial" class="c7-cls-8" data-name="maryland bridge abutment mesial"><path d="M36.58 28.17H57v7.67H36.58z" class="c7-cls-14" data-color-action="fill" style="fill:inherit"/><ellipse cx="37.81" cy="32" class="c7-cls-14" rx="5.61" ry="12.9" data-color-action="fill" style="fill:inherit"/></g><g id="c7_maryland_bridge_abutment_distal" class="c7-cls-8" data-name="maryland bridge abutment distal"><path d="M2 28.17h20.42v7.67H2z" class="c7-cls-14" data-color-action="fill" style="fill:inherit"/><ellipse cx="21.19" cy="32" class="c7-cls-14" rx="5.61" ry="12.9" data-color-action="fill" style="fill:inherit"/></g><g id="c7_maryland_bridge_abutment" class="c7-cls-8" data-name="maryland bridge abutment"><path d="M36.58 28.17H57v7.67H36.58zM2 28.17h20.42v7.67H2z" class="c7-cls-14" data-color-action="fill" style="fill:inherit"/><ellipse cx="21.19" cy="32" class="c7-cls-14" rx="5.61" ry="12.9" data-color-action="fill" style="fill:inherit"/><ellipse cx="37.81" cy="32" class="c7-cls-14" rx="5.61" ry="12.9" data-color-action="fill" style="fill:inherit"/></g><g id="c7_bridge_abutment_mesial" class="c7-cls-8" data-name="bridge abutment mesial"><path d="M43.74 14.85c1.85 3.68 1.29 16 0 24.13-1.6 10.07-5.52 14.58-12.64 14.76s-13.1-1.91-14.81-9.9-2.91-24.65-1.74-28.3 10.31-4.34 14.53-4.69 13.35 1.4 14.66 4z" class="c7-cls-11" data-color-action="fill" style="fill:inherit"/><path d="M22.02 27.74H57v7.67H22.02z" class="c7-cls-11" data-color-action="fill" style="fill:inherit"/></g><g id="c7_bridge_abutment_distal" class="c7-cls-8" data-name="bridge abutment distal"><path d="M43.74 14.85c1.85 3.68 1.29 16 0 24.13-1.6 10.07-5.52 14.58-12.64 14.76s-13.1-1.91-14.81-9.9-2.91-24.65-1.74-28.3 10.31-4.34 14.53-4.69 13.35 1.4 14.66 4z" class="c7-cls-11" data-color-action="fill" style="fill:inherit"/><path d="M2 27.74h34.98v7.67H2z" class="c7-cls-11" data-color-action="fill" style="fill:inherit"/></g><g id="c7_bridge_abutment" class="c7-cls-8" data-name="bridge abutment"><path d="M43.74 14.85c1.85 3.68 1.29 16 0 24.13-1.6 10.07-5.52 14.58-12.64 14.76s-13.1-1.91-14.81-9.9-2.91-24.65-1.74-28.3 10.31-4.34 14.53-4.69 13.35 1.4 14.66 4z" class="c7-cls-11" data-color-action="fill" style="fill:inherit"/><path d="M2 27.74h55v7.67H2z" class="c7-cls-11" data-color-action="fill" style="fill:inherit"/></g><g id="c7_bridge_pontic" class="c7-cls-8" data-name="bridge pontic"><path d="M43.74 14.85c1.85 3.68 1.29 16 0 24.13-1.6 10.07-5.52 14.58-12.64 14.76s-13.1-1.91-14.81-9.9-2.91-24.65-1.74-28.3 10.31-4.34 14.53-4.69 13.35 1.4 14.66 4z" class="c7-cls-11" data-color-action="fill" style="fill:inherit"/><path d="M2 27.74h55v7.67H2z" class="c7-cls-11" data-color-action="fill" style="fill:inherit"/></g><g id="c7_implant_mini" data-name="implant mini"><path d="M2 2.02h55V64H2z" class="c7-cls-13"/><path d="M29.72 66h-.44l-1-8.5V16.67h2.44V57.5l-1 8.5z" class="c7-cls-11" data-color-action="fill" style="fill:inherit"/><path d="M29.42 66h-.07l-.4-8.5V16.67h.37V57.5l.1 8.5z" class="c7-cls-16"/><path d="M28.28 16.67h2.44v.63h-2.44z" class="c7-cls-17" data-color-action="fill" style="fill:inherit"/><g class="c7-cls-18"><path d="M28.28 17.3l2.44 1v-.63l-2.44-1v.63zM28.28 18.75l2.44 1v-.64l-2.44-1v.64zM28.28 20.19l2.44 1v-.63l-2.44-1v.63zM28.28 21.64l2.44 1V22l-2.44-1v.64zM28.28 23.08l2.44 1v-.63l-2.44-1v.63zM28.28 24.53l2.44 1v-.64l-2.44-1v.64zM28.28 25.97l2.44 1v-.63l-2.44-1v.63zM28.28 27.42l2.44 1v-.63l-2.44-1v.63zM28.28 28.86l2.44 1v-.63l-2.44-1v.63zM28.28 30.31l2.44 1v-.63l-2.44-1v.63zM28.28 31.75l2.44 1.01v-.64l-2.44-1v.63zM28.28 33.2l2.44 1v-.63l-2.44-1v.63zM28.28 34.65l2.44 1v-.64l-2.44-1v.64zM28.28 36.09l2.44 1v-.63l-2.44-1v.63zM28.28 37.54l2.44 1v-.64l-2.44-1v.64zM28.28 38.98l2.44 1v-.63l-2.44-1v.63zM28.28 40.43l2.44 1v-.63l-2.44-1.01v.64zM28.28 41.87l2.44 1v-.63l-2.44-1v.63zM28.28 43.32l2.44 1v-.63l-2.44-1v.63zM28.28 44.76l2.44 1v-.63l-2.44-1v.63zM28.28 46.21l2.44 1v-.63l-2.44-1v.63zM28.28 47.65l2.44 1.01v-.64l-2.44-1v.63zM28.28 49.1l2.44 1v-.63l-2.44-1v.63zM28.28 50.55l2.44 1v-.64l-2.44-1v.64zM28.28 51.99l2.44 1v-.63l-2.44-1v.63zM28.28 53.44l2.44 1v-.64l-2.44-1v.64zM28.28 54.88l2.44 1v-.63l-2.44-1v.63zM28.28 56.33l2.44 1v-.63l-2.44-1.01v.64zM28.28 57.5l.03.29 2.27.92.07-.6-2.37-.97v.36zM28.49 59.3l1.93.79.07-.6-2.08-.85.08.66zM28.67 60.82l1.58.65.08-.6-1.74-.71.08.66zM28.85 62.34l1.24.51.07-.6-1.39-.57.08.66zM29.03 63.86l.9.37.07-.6-1.05-.43.08.66zM29.2 65.38l.57.23.07-.6-.71-.3.07.67z" class="c7-cls-17" data-color-action="fill" style="fill:inherit"/></g><circle cx="29.5" cy="12.79" r="2.24" class="c7-cls-11" data-color-action="fill" style="fill:inherit"/><path d="M27.67 14.01h3.67v3h-3.67z" class="c7-cls-11" data-color-action="fill" style="fill:inherit"/><path d="M28.49 14.01h.55v3h-.55z" class="c7-cls-16"/><path d="M28.7 11.44h-.21a2.32 2.32 0 0 0-.49 1.28 2.37 2.37 0 0 0 .52 1.3H29a2 2 0 0 1-.73-1.37 1.5 1.5 0 0 1 .43-1.21z" class="c7-cls-16"/><path d="M28.28 22.74h2.44v.63h-2.44z" class="c7-cls-17" data-color-action="fill" style="fill:inherit"/><path d="M32.11 16.99h-5.22l.87 5.71h3.48l.87-5.71z" class="c7-cls-11" data-color-action="fill" style="fill:inherit"/><path d="M28.85 16.99h-.79l.48 5.71h.53l-.22-5.71z" class="c7-cls-16"/></g><g id="c7_implant_cylinder" data-name="implant cylinder"><path d="M2 2.02h55V64H2z" class="c7-cls-13"/><path d="M26.17 13.67h6.67V63h-6.67zM24.5 63h10v3h-10z" class="c7-cls-11" data-color-action="fill" style="fill:inherit"/><path d="M28 13.67h1V63h-1zM26.75 63h1.5v3h-1.5z" class="c7-cls-16"/><path d="M24.5 10.64h10v3h-10z" class="c7-cls-11" data-color-action="fill" style="fill:inherit"/><path d="M26.75 10.64h1.5v3h-1.5z" class="c7-cls-16"/><path d="M26.17 62.37h6.67V63h-6.67zM26.17 13.67h6.67v.63h-6.67z" class="c7-cls-17" data-color-action="fill" style="fill:inherit"/><g class="c7-cls-18"><path d="M32.83 15.3l-6.66-1v-.63l6.66 1v.63zM32.83 16.75l-6.66-1v-.63l6.66 1v.63zM32.83 18.19l-6.66-1v-.63l6.66 1v.63zM32.83 19.64l-6.66-1v-.63l6.66 1v.63zM32.83 21.08l-6.66-1v-.63l6.66 1v.63zM32.83 22.53l-6.66-1v-.63l6.66 1v.63zM32.83 23.98l-6.66-1v-.64l6.66 1v.64zM32.83 25.42l-6.66-1v-.63l6.66 1v.63zM32.83 26.87l-6.66-1.01v-.63l6.66 1v.64zM32.83 28.31l-6.66-1v-.63l6.66 1v.63zM32.83 29.76l-6.66-1v-.64l6.66 1.01v.63zM32.83 31.2l-6.66-1v-.63l6.66 1v.63zM32.83 32.65l-6.66-1v-.63l6.66 1v.63zM32.83 34.09l-6.66-1v-.63l6.66 1v.63zM32.83 35.54l-6.66-1v-.63l6.66 1v.63zM32.83 36.98l-6.66-1v-.63l6.66 1v.63zM32.83 38.43l-6.66-1v-.63l6.66 1v.63zM32.83 39.88l-6.66-1v-.64l6.66 1v.64zM32.83 41.32l-6.66-1v-.63l6.66 1v.63zM32.83 42.77l-6.66-1v-.64l6.66 1v.64zM32.83 44.21l-6.66-1v-.63l6.66 1v.63zM32.83 45.66l-6.66-1v-.64l6.66 1v.64zM32.83 47.1l-6.66-1v-.63l6.66 1v.63zM32.83 48.55l-6.66-1v-.64l6.66 1.01v.63zM32.83 49.99l-6.66-1v-.63l6.66 1v.63zM32.83 51.44l-6.66-1v-.63l6.66 1v.63zM32.83 52.88l-6.66-1v-.63l6.66 1v.63zM32.83 54.33l-6.66-1v-.63l6.66 1v.63zM32.83 55.77l-6.66-1v-.63l6.66 1v.63zM32.83 57.22l-6.66-1v-.63l6.66 1v.63zM32.83 58.67l-6.66-1.01v-.63l6.66 1v.64zM32.83 60.11l-6.66-1v-.63l6.66 1v.63zM32.83 61.56l-6.66-1v-.64l6.66 1v.64zM32.83 63l-6.66-1v-.63l6.66 1V63z" class="c7-cls-17" data-color-action="fill" style="fill:inherit"/></g></g><g id="c7_implant_blade" data-name="implant blade"><path d="M2 2.02h55V64H2z" class="c7-cls-13"/><path d="M26.17 13.64h6.67v49.33h-6.67zM24.5 10.64h10v3h-10z" class="c7-cls-11" data-color-action="fill" style="fill:inherit"/><path d="M28 13.64h1v49.33h-1zM26.75 10.64h1.5v3h-1.5z" class="c7-cls-16"/><path d="M26.17 13.64h6.67v.63h-6.67z" class="c7-cls-17" data-color-action="fill" style="fill:inherit"/></g><g id="c7_border"><path d="M0 0h59v66H0z" class="c7-cls-7"/><path d="M0 0h59v66H0z" class="c7-cls-7" transform="rotate(-180 29.5 33)"/></g></defs></g></svg>