<svg xmlns="http://www.w3.org/2000/svg" viewBox="0 0 59 283"><defs><style>.a22-cls-1{isolation:isolate}.a22-cls-2,.a22-cls-25{fill:#c5c7c9}.a22-cls-25{stroke:none}.a22-cls-2{stroke:#c5c7c9;stroke-width:5px}.a22-cls-19,.a22-cls-2,.a22-cls-22,.a22-cls-24,.a22-cls-26,.a22-cls-27,.a22-cls-30,.a22-cls-32,.a22-cls-33{stroke-miterlimit:10}.a22-cls-3{fill:#f5d7cf;stroke:none}.a22-cls-4,.a22-cls-5{fill:#f2c6bc;stroke:none}.a22-cls-5{fill:#fae8e3}.a22-cls-6,.a22-cls-7{fill:#eeefef;stroke:none}.a22-cls-7{fill:#e2e3e4}.a22-cls-8,.a22-cls-9{fill:#fbfbfb;stroke:none}.a22-cls-9{font-size:15px;fill:#929497;font-family:ProximaNova-Semibold,Proxima Nova,sans-serif;font-weight:700}.a22-cls-10,.a22-cls-28,.a22-cls-36{fill:#3c3d3d;stroke:none}.a22-cls-10{opacity:.55}.a22-cls-11{fill:#ffd403;stroke:none}.a22-cls-13,.a22-cls-21{fill:#ffef3e;stroke:none}.a22-cls-14,.a22-cls-20{fill:#c52636;stroke:none}.a22-cls-15{fill:none;stroke:none}.a22-cls-19,.a22-cls-22,.a22-cls-24,.a22-cls-26,.a22-cls-27,.a22-cls-30,.a22-cls-32,.a22-cls-33{fill:none}.a22-cls-16,.a22-cls-37{fill:#28418b;stroke:none}.a22-cls-17,.a22-cls-18{fill:#787878;stroke:none}.a22-cls-19,.a22-cls-22,.a22-cls-24,.a22-cls-30,.a22-cls-32,.a22-cls-33{stroke:#c52636}.a22-cls-19,.a22-cls-22,.a22-cls-27{stroke-width:2px}.a22-cls-22{stroke-linecap:round}.a22-cls-23{fill:#fff;stroke:none}.a22-cls-26,.a22-cls-27{stroke:#28418b}.a22-cls-26{stroke-width:3px}.a22-cls-29{opacity:.6}.a22-cls-30{stroke-width:4px}.a22-cls-31{fill:#f05b85;stroke:none}.a22-cls-32,.a22-cls-33{stroke-width:1.25px}.a22-cls-34{fill:#9b9999;stroke:none}.a22-cls-35{fill:#dbdbdc;stroke:none}.a22-cls-38{font-size:33px;fill:#28418b;font-family:ProximaNova-Semibold,Proxima Nova,sans-serif;font-weight:700;stroke:none}.c22-cls-1{isolation:isolate}.c22-cls-16,.c22-cls-2{fill:#c5c7c9;stroke:none}.c22-cls-2{stroke:#c5c7c9;stroke-width:5px}.c22-cls-2,.c22-cls-20,.c22-cls-21{stroke-miterlimit:10}.c22-cls-3{fill:#eeefef;stroke:none}.c22-cls-4,.c22-cls-5{fill:#e2e3e4;stroke:none}.c22-cls-5{fill:#fbfbfb}.c22-cls-17,.c22-cls-6{fill:#3c3d3d;stroke:none}.c22-cls-6{opacity:.55}.c22-cls-20,.c22-cls-21{fill:none}.c22-cls-7,.c22-cls-9{fill:none;stroke:none}.c22-cls-9{fill:#28418b}.c22-cls-10,.c22-cls-11{fill:#787878;stroke:none}.c22-cls-12,.c22-cls-19{fill:#ffef3e;stroke:none}.c22-cls-13{fill:#fff;stroke:none}.c22-cls-14,.c22-cls-15{fill:#c52636;stroke:none}.c22-cls-18{opacity:.6}.c22-cls-20,.c22-cls-21{stroke:#c52636;stroke-width:1.25px}.a22-msng-cls-1{isolation:isolate}.a22-msng-cls-2{fill:#c5c7c9;stroke:#c5c7c9;stroke-width:5px}.a22-msng-cls-11,.a22-msng-cls-2{stroke-miterlimit:10}.a22-msng-cls-3{fill:#f5d7cf;stroke:none}.a22-msng-cls-4{fill:#f2c6bc;stroke:none}.a22-msng-cls-5{fill:#fae8e3;stroke:none}.a22-msng-cls-6{fill:#eeefef;stroke:none}.a22-msng-cls-7{fill:#e2e3e4;stroke:none}.a22-msng-cls-8{fill:#fbfbfb;stroke:none}.a22-msng-cls-9{font-size:15px;fill:#929497;font-family:ProximaNova-Semibold,Proxima Nova;font-weight:700;stroke:none}.a22-msng-cls-11{fill:none}.a22-msng-cls-12{fill:none;stroke:none}.a22-msng-cls-11{stroke:#787878;stroke-width:6.25px}</style></defs><g class="a22-cls-1" transform="translate(0 122)"><g id="_22A" data-name="#22A"><path d="M28.69 7.1c-2.82-.38-15.37 6-16.14 7s0 9.35.51 13.7c.48 4.09 2.46 15.1 4.47 18.52.12 7.42.74 24.74 2.32 36.95 1.85 14.3 12 41.42 15.53 40.56s1.48-30.57 1.73-40.19c.22-8.52 1.69-28.94 2.46-36.48 1.51-1.31 3.35-8 4-10.64s4-18.31 3.07-19.72-15.13-9.32-17.95-9.7z" class="a22-cls-2"/><path d="M17.52 43.49c0 4.21.49 25.52 2.34 39.82s12 41.42 15.53 40.56 1.48-30.57 1.73-40.19 2.1-34.4 2.71-38.68-22.19-12.24-22.31-1.51z" class="a22-cls-3"/><path d="M22.1 82.66C21 73 19.77 59.36 19.77 52.37a109.23 109.23 0 0 0-.72-12.55h-.09a4.88 4.88 0 0 0-1.45 3.65c0 4.21.49 25.52 2.34 39.82 1.18 9.14 5.74 23.52 9.81 32.48-1.61-5.2-3.68-12-4.16-14.48a152.07 152.07 0 0 1-3.4-18.63zM37.12 83.68c.23-9 1.88-31.46 2.59-37.71l-1.83.31s-1.43 10.93-1.79 19.54-.54 20.79-.36 26.89a132.55 132.55 0 0 0 1.79 15.67c-.01-9.06-.52-19.65-.4-24.7z" class="a22-cls-4"/><path d="M31.52 49.08c-.64 4.05-1.46 16.8-1.31 34.77s3.94 37.55 4.38 37.25-1.75-29.1-1.32-39.59.73-21.77 1.9-33.31c.24-2.33-2.77-4.67-3.65.88z" class="a22-cls-5"/><path d="M17.93 46.93c-2.14-2.51-4.35-14.73-4.87-19.08s-1.28-12.68-.51-13.7 13.32-7.43 16.14-7 17 8.32 17.93 9.73-2.43 17-3.07 19.72-2.55 9.69-4.1 10.71-17.8 3.97-21.52-.38z" class="a22-cls-6"/><path d="M15.87 27.81c-.42-4.76-1.06-13.86-.42-15a7.11 7.11 0 0 1 1.41-1.27 22.63 22.63 0 0 0-4.3 2.58c-.77 1 0 9.35.51 13.7s2.72 16.57 4.87 19.08a4.82 4.82 0 0 0 1.68 1.19c-1.69-3.62-3.35-15.78-3.75-20.28zM46.62 16.83c-.37-.58-3-2.29-6.22-4.12a17.12 17.12 0 0 1 3.3 3.06c.74 1.54-2 18.62-2.55 21.56a68.49 68.49 0 0 1-2.59 10.33 4 4 0 0 0 .89-.36c1.54-1 3.46-8.07 4.1-10.76s3.97-18.3 3.07-19.71z" class="a22-cls-7"/><path d="M32.86 8.73c0 6 0 20.27-.16 24.83A111.85 111.85 0 0 1 31.07 49c1-.1 2-.23 3-.37a85.88 85.88 0 0 0 2.73-14.09c.44-5.15 1.14-16.23 1.17-23.18-1.77-.97-3.55-1.89-5.11-2.63z" class="a22-cls-8"/><text class="a22-cls-9" transform="translate(20.57 150.74)">22</text></g><defs><g id="a22_bone_graft" data-name="bone graft"><path d="M2 45.83h55v91.86H2z" class="a22-cls-16" transform="rotate(-180 29.5 91.76)" data-color-action="fill" style="fill:inherit"/><path d="M28.69 7.1c-2.82-.38-15.37 6-16.14 7s0 9.35.51 13.7c.48 4.09 2.46 15.1 4.47 18.52.12 7.42.74 24.74 2.32 36.95 1.85 14.3 12 41.42 15.53 40.56s1.48-30.57 1.73-40.19c.22-8.52 1.69-28.94 2.46-36.48 1.51-1.31 3.35-8 4-10.64s4-18.31 3.07-19.72-15.13-9.32-17.95-9.7z" class="a22-cls-2"/><path d="M17.52 43.49c0 4.21.49 25.52 2.34 39.82s12 41.42 15.53 40.56 1.48-30.57 1.73-40.19 2.1-34.4 2.71-38.68-22.19-12.24-22.31-1.51z" class="a22-cls-3"/><path d="M22.1 82.66C21 73 19.77 59.36 19.77 52.37a109.23 109.23 0 0 0-.72-12.55h-.09a4.88 4.88 0 0 0-1.45 3.65c0 4.21.49 25.52 2.34 39.82 1.18 9.14 5.74 23.52 9.81 32.48-1.61-5.2-3.68-12-4.16-14.48a152.07 152.07 0 0 1-3.4-18.63zM37.12 83.68c.23-9 1.88-31.46 2.59-37.71l-1.83.31s-1.43 10.93-1.79 19.54-.54 20.79-.36 26.89a132.55 132.55 0 0 0 1.79 15.67c-.01-9.06-.52-19.65-.4-24.7z" class="a22-cls-4"/><path d="M31.52 49.08c-.64 4.05-1.46 16.8-1.31 34.77s3.94 37.55 4.38 37.25-1.75-29.1-1.32-39.59.73-21.77 1.9-33.31c.24-2.33-2.77-4.67-3.65.88z" class="a22-cls-5"/><path d="M17.93 46.93c-2.14-2.51-4.35-14.73-4.87-19.08s-1.28-12.68-.51-13.7 13.32-7.43 16.14-7 17 8.32 17.93 9.73-2.43 17-3.07 19.72-2.55 9.69-4.1 10.71-17.8 3.97-21.52-.38z" class="a22-cls-6"/><path d="M15.87 27.81c-.42-4.76-1.06-13.86-.42-15a7.11 7.11 0 0 1 1.41-1.27 22.63 22.63 0 0 0-4.3 2.58c-.77 1 0 9.35.51 13.7s2.72 16.57 4.87 19.08a4.82 4.82 0 0 0 1.68 1.19c-1.69-3.62-3.35-15.78-3.75-20.28zM46.62 16.83c-.37-.58-3-2.29-6.22-4.12a17.12 17.12 0 0 1 3.3 3.06c.74 1.54-2 18.62-2.55 21.56a68.49 68.49 0 0 1-2.59 10.33 4 4 0 0 0 .89-.36c1.54-1 3.46-8.07 4.1-10.76s3.97-18.3 3.07-19.71z" class="a22-cls-7"/><path d="M32.86 8.73c0 6 0 20.27-.16 24.83A111.85 111.85 0 0 1 31.07 49c1-.1 2-.23 3-.37a85.88 85.88 0 0 0 2.73-14.09c.44-5.15 1.14-16.23 1.17-23.18-1.77-.97-3.55-1.89-5.11-2.63z" class="a22-cls-8"/></g><g id="a22_splinted_crowns" data-name="splinted crowns"><path d="M2 45.76h55v7.67H2z" class="a22-cls-21" transform="rotate(-180 29.5 49.59)" data-color-action="fill" style="fill:inherit"/><path d="M28.69 7.1c-2.82-.38-15.37 6-16.14 7s0 9.35.51 13.7c.48 4.09 2.46 15.1 4.47 18.52.12 7.42.74 24.74 2.32 36.95 1.85 14.3 12 41.42 15.53 40.56s1.48-30.57 1.73-40.19c.22-8.52 1.69-28.94 2.46-36.48 1.51-1.31 3.35-8 4-10.64s4-18.31 3.07-19.72-15.13-9.32-17.95-9.7z" class="a22-cls-2"/><path d="M17.52 43.49c0 4.21.49 25.52 2.34 39.82s12 41.42 15.53 40.56 1.48-30.57 1.73-40.19 2.1-34.4 2.71-38.68-22.19-12.24-22.31-1.51z" class="a22-cls-3"/><path d="M22.1 82.66C21 73 19.77 59.36 19.77 52.37a109.23 109.23 0 0 0-.72-12.55h-.09a4.88 4.88 0 0 0-1.45 3.65c0 4.21.49 25.52 2.34 39.82 1.18 9.14 5.74 23.52 9.81 32.48-1.61-5.2-3.68-12-4.16-14.48a152.07 152.07 0 0 1-3.4-18.63zM37.12 83.68c.23-9 1.88-31.46 2.59-37.71l-1.83.31s-1.43 10.93-1.79 19.54-.54 20.79-.36 26.89a132.55 132.55 0 0 0 1.79 15.67c-.01-9.06-.52-19.65-.4-24.7z" class="a22-cls-4"/><path d="M31.52 49.08c-.64 4.05-1.46 16.8-1.31 34.77s3.94 37.55 4.38 37.25-1.75-29.1-1.32-39.59.73-21.77 1.9-33.31c.24-2.33-2.77-4.67-3.65.88z" class="a22-cls-5"/><path d="M17.93 46.93c-2.14-2.51-4.35-14.73-4.87-19.08s-1.28-12.68-.51-13.7 13.32-7.43 16.14-7 17 8.32 17.93 9.73-2.43 17-3.07 19.72-2.55 9.69-4.1 10.71-17.8 3.97-21.52-.38z" class="a22-cls-6"/><path d="M15.87 27.81c-.42-4.76-1.06-13.86-.42-15a7.11 7.11 0 0 1 1.41-1.27 22.63 22.63 0 0 0-4.3 2.58c-.77 1 0 9.35.51 13.7s2.72 16.57 4.87 19.08a4.82 4.82 0 0 0 1.68 1.19c-1.69-3.62-3.35-15.78-3.75-20.28zM46.62 16.83c-.37-.58-3-2.29-6.22-4.12a17.12 17.12 0 0 1 3.3 3.06c.74 1.54-2 18.62-2.55 21.56a68.49 68.49 0 0 1-2.59 10.33 4 4 0 0 0 .89-.36c1.54-1 3.46-8.07 4.1-10.76s3.97-18.3 3.07-19.71z" class="a22-cls-7"/><path d="M32.86 8.73c0 6 0 20.27-.16 24.83A111.85 111.85 0 0 1 31.07 49c1-.1 2-.23 3-.37a85.88 85.88 0 0 0 2.73-14.09c.44-5.15 1.14-16.23 1.17-23.18-1.77-.97-3.55-1.89-5.11-2.63z" class="a22-cls-8"/></g><path id="a22_facial_V" d="M38.09 47.81c-3.73 1-13.64 2.43-18.36.37a14.86 14.86 0 0 1 18.36-.37z" class="a22-cls-10" data-color-action="fill" style="fill:inherit" data-name="facial V"/><path id="a22_mid_facial" d="M34.1 30.85c.05-5.56-2.07-10-4.73-9.91s-4.75 4.7-4.74 10.18 2.09 9.71 4.66 9.67 4.71-4.46 4.81-9.94z" class="a22-cls-10" data-color-action="fill" style="fill:inherit" data-name="mid facial"/><path id="a22_mesial" d="M12.49 14.28l5.2 6.78a7.27 7.27 0 0 0-.69 2.5 12.29 12.29 0 0 1-3.41 7.85 67.25 67.25 0 0 1-.52-3.56c-.5-4.22-1.23-12.13-.58-13.57z" class="a22-cls-10" data-color-action="fill" style="fill:inherit"/><path id="a22_facial" d="M28.47 10.28a18.25 18.25 0 0 0-4.65.62l1.48 5.81a28.66 28.66 0 0 1 3.76-.25 24.49 24.49 0 0 1 4.09.28l1.62-4.82a39.41 39.41 0 0 0-6.3-1.64z" class="a22-cls-10" data-color-action="fill" style="fill:inherit"/><g id="a22_line_angle_1" data-name="line angle 1"><path d="M12.49 14.28l5.2 6.78c1.25-2.55 4-3.85 7.61-4.34l-1.48-5.81c-3.3.74-7.55 2-11.26 3.23a.9.9 0 0 0-.07.14zM33.15 16.75c3.49.58 5.4 2.17 6.49 5.41L45 15.54l-.08-.05c-3.4-1.28-7.08-2.58-10.17-3.56z" class="a22-cls-10" data-color-action="fill" style="fill:inherit"/></g><path id="a22_distal" d="M40.56 26.48a22.65 22.65 0 0 0-.92-4.32L45 15.54a7.3 7.3 0 0 1 1.61 1.29c.63 1-.84 9.07-2 14.69a6.35 6.35 0 0 1-4.05-5.04z" class="a22-cls-10" data-color-action="fill" style="fill:inherit"/><path id="a22_mesial_incisal" d="M23.23 8.6c-4.56 1.86-10.13 4.84-10.67 5.53 3.71-1.22 8-2.49 11.26-3.23z" class="a22-cls-10" data-color-action="fill" style="fill:inherit" data-name="mesial incisal"/><path id="a22_cnetral_incisal" d="M28.47 10.28a39.41 39.41 0 0 1 6.3 1.64l.65-1.92a32.58 32.58 0 0 0-6.73-2.9c-1-.13-3.07.53-5.46 1.51l.59 2.3a18.25 18.25 0 0 1 4.65-.63z" class="a22-cls-10" data-color-action="fill" style="fill:inherit" data-name="cnetral incisal"/><path id="a22_distal_incisal" d="M44.93 15.49c-2.17-1.46-6-3.69-9.52-5.48l-.65 1.93c3.09.97 6.77 2.27 10.17 3.55z" class="a22-cls-10" data-color-action="fill" style="fill:inherit" data-name="distal incisal"/><path id="a22_veneer" d="M17.93 46.93c-2.14-2.51-4.35-14.73-4.87-19.08s-1.28-12.68-.51-13.7 13.32-7.43 16.14-7 17 8.32 17.93 9.73-2.43 17-3.07 19.72-2.55 9.69-4.1 10.71-17.8 3.97-21.52-.38z" class="a22-cls-12 a22-cls-13" data-color-action="fill" style="fill:inherit"/><path id="a22_tissue_graft" d="M12.03 63.34L29.5 49.46l17.47 13.88H12.03z" class="a22-cls-14" data-color-action="fill" style="fill:inherit" data-name="tissue graft"/><path id="a22_tipped_lingual" d="M28 154.75h3v3h-3z" class="a22-cls-15" transform="rotate(-180 29.5 156.25)" data-name="tipped lingual"/><g id="a22_tipped_facial" class="a22-cls-12" data-name="tipped facial"><path d="M33.15 5.1c-1.26-3.37-4.74-3.85-7.69 5.32C25 12 21 12.17 21.63 10.4c2-6.08 5.31-10.2 9.06-9.27a4.86 4.86 0 0 1 3 3.38c-.2.19-.43.49-.54.59z" class="a22-cls-16" data-color-action="fill" style="fill:inherit"/><path d="M31.07 8.02H18.13l2.94 9.64 10-9.64z" class="a22-cls-16" data-color-action="fill" style="fill:inherit"/></g><path id="a22_surface_restoration_mesial" d="M12.55 14.14c-.77 1 0 9.35.51 13.7.24 2.07.87 5.93 1.7 9.68a11.52 11.52 0 0 1 7 6.24C21 37.26 20.32 29.62 20 27c-.4-3.38-.64-6.42-.74-8.52L13 13.77a2.26 2.26 0 0 0-.45.37z" class="a22-cls-17" data-color-action="fill" style="fill:inherit" data-name="surface restoration mesial"/><path id="a22_surface_restoration_facial" d="M35.53 45.45a11.46 11.46 0 0 1 1.05-2.66c1.18-8.68 2.6-20 2.95-22.47a109.4 109.4 0 0 0-11.42-6.08 68 68 0 0 0-8.85 3.95c.09 2.1.34 5.28.76 8.83.3 2.59 1 10.23 1.79 16.74a11.67 11.67 0 0 1 .53 1.43 15.38 15.38 0 0 1 13.2.26z" class="a22-cls-12 a22-cls-18" data-color-action="fill" style="fill:inherit" data-name="surface restoration facial"/><path id="a22_surface_restoration_facial_V" d="M22.81 49a42.84 42.84 0 0 0 12.36-.55v-.11a11.48 11.48 0 0 1 .37-2.88 15.38 15.38 0 0 0-13.2-.26 11.35 11.35 0 0 1 .5 3.3l-.03.5z" class="a22-cls-12 a22-cls-18" data-color-action="fill" style="fill:inherit" data-name="surface restoration facial V"/><path id="a22_surface_restoration_distal" d="M46.31 16.5l-6.83 4.23c-.42 3.1-1.77 13.78-2.89 22.07a11.52 11.52 0 0 1 6.77-5.47l.19-.77c.64-2.69 4-18.31 3.07-19.72a1.8 1.8 0 0 0-.31-.34z" class="a22-cls-17" data-color-action="fill" style="fill:inherit" data-name="surface restoration distal"/><path id="a22_surface_restoration_incisal" d="M28.69 7.1c-2.58-.35-13.31 5-15.7 6.67l6.28 4.74v-.31a68 68 0 0 1 8.85-3.95 109.4 109.4 0 0 1 11.42 6.08l-.06.41 6.83-4.23C44 14.47 31.33 7.46 28.69 7.1z" class="a22-cls-17" data-color-action="fill" style="fill:inherit" data-name="surface restoration incisal"/><g id="a22_supra-erupted" class="a22-cls-12"><path d="M28.5 56.12v7.68" class="a22-cls-19" data-color-action="stroke" style="stroke:inherit"/><path d="M24.51 57.29l3.99-6.91 3.99 6.91h-7.98z" class="a22-cls-20" data-color-action="fill" style="fill:inherit"/></g><g id="a22_sub-erupted" class="a22-cls-12"><path d="M28.5 58.06v-7.68" class="a22-cls-19" data-color-action="stroke" style="stroke:inherit"/><path d="M32.49 56.89L28.5 63.8l-3.99-6.91h7.98z" class="a22-cls-20" data-color-action="fill" style="fill:inherit"/></g><text id="a22_sealant" class="a22-cls-38" transform="translate(19.7 -18.45)" data-color-action="fill" style="fill:inherit">S</text><g id="a22_rotated_mesial" class="a22-cls-12" data-name="rotated mesial"><path d="M53.13 32.82c3-1.79 2.3-5.46-10.23-5.81-5.3-.15-8.95 0-8.95 0L34 24s1-.07 8.22.24c7.62.32 14 1.83 13.75 6a4 4 0 0 1-2.31 2.92c-.15-.16-.4-.27-.53-.34z" class="a22-cls-16" data-color-action="fill" style="fill:inherit"/><path d="M40.43 31.53V19.64l-10.4 5.9 10.4 5.99z" class="a22-cls-16" data-color-action="fill" style="fill:inherit"/></g><g id="a22_rotated_distal" class="a22-cls-12" data-name="rotated distal"><path d="M5.87 32.82C2.88 31 3.56 27.36 16.1 27c5.3-.15 8.95 0 8.95 0L25 24s-1-.07-8.22.24c-7.62.32-14 1.83-13.75 6a4 4 0 0 0 2.31 2.92c.15-.16.4-.27.53-.34z" class="a22-cls-16" data-color-action="fill" style="fill:inherit"/><path d="M18.57 31.53V19.64l10.4 5.9-10.4 5.99z" class="a22-cls-16" data-color-action="fill" style="fill:inherit"/></g><circle id="a22_root_decay" cx="32.1" cy="106.97" r="4.33" class="a22-cls-12 a22-cls-18" data-color-action="fill" style="fill:inherit" data-name="root decay"/><path id="a22_root_canal" d="M34.67 119.17L29.33 53.5" class="a22-cls-22" data-color-action="stroke" style="stroke:inherit" data-name="root canal"/><path id="a22_root_abrasion" d="M30.27 97.58h3.5v13.83h-3.5z" class="a22-cls-12 a22-cls-24" transform="rotate(-180 32.025 104.5)" data-color-action="stroke" style="stroke:inherit" data-name="root abrasion"/><g id="a22_post"><path d="M28.35 31.84h3.14v41.77h-3.14z" class="a22-cls-18" transform="rotate(-180 29.925 52.725)" data-color-action="fill" style="fill:inherit"/><path d="M30.16 31.84h.47v41.77h-.47z" class="a22-cls-25" transform="rotate(-180 30.4 52.725)"/></g><g id="a22_pins"><path d="M31.26 39.84h2.42v23.43h-2.42z" class="a22-cls-18" transform="rotate(-180 32.465 51.56)" data-color-action="fill" style="fill:inherit"/><path d="M32.65 39.84h.36v23.43h-.36z" class="a22-cls-25" transform="rotate(-180 32.83 51.56)"/><path d="M26.68 39.84h2.42v23.43h-2.42z" class="a22-cls-18" transform="rotate(-180 27.885 51.56)" data-color-action="fill" style="fill:inherit"/><path d="M28.07 39.84h.36v23.43h-.36z" class="a22-cls-25" transform="rotate(-180 28.25 51.56)"/></g><path id="a22_open_contact_mesial" d="M25.31 56.01l-7.5-4.75-7.5 4.75" class="a22-cls-26" data-color-action="stroke" style="stroke:inherit" data-name="open contact mesial"/><path id="a22_open_contact_distal" d="M48.33 56.01l-7.5-4.75-7.5 4.75" class="a22-cls-26" data-color-action="stroke" style="stroke:inherit" data-name="open contact distal"/><g id="a22_mesial_drift" class="a22-cls-12" data-name="mesial drift"><path d="M26.41 27.84h11.92" class="a22-cls-27" data-color-action="stroke" style="stroke:inherit"/><path d="M27.57 31.82l-6.9-3.98 6.9-3.99v7.97z" class="a22-cls-16" data-color-action="fill" style="fill:inherit"/></g><path id="a22_lingual_abfraction" d="M28 154.75h3v3h-3z" class="a22-cls-15" transform="rotate(-180 29.5 156.25)" data-name="lingual abfraction"/><ellipse id="a22_internal_root_resorption" cx="31.09" cy="101.4" class="a22-cls-12 a22-cls-20" rx="3.98" ry="9.84" transform="rotate(-3.19 31.138 101.5)" data-color-action="fill" style="fill:inherit" data-name="internal root resorption"/><g id="a22_impacted_mesial" class="a22-cls-12" data-name="impacted mesial"><ellipse cx="29.49" cy="68.87" class="a22-cls-27" rx="24.15" ry="67.46" data-color-action="stroke" style="stroke:inherit"/><path d="M40.89 68.87h12.76" class="a22-cls-27" data-color-action="stroke" style="stroke:inherit"/><path d="M42.06 72.86l-6.91-3.99 6.91-3.99v7.98z" class="a22-cls-16" data-color-action="fill" style="fill:inherit"/></g><g id="a22_impacted_distal" class="a22-cls-12" data-name="impacted distal"><ellipse cx="29.5" cy="68.87" class="a22-cls-27" rx="24.15" ry="67.46" data-color-action="stroke" style="stroke:inherit"/><path d="M18.09 68.87H5.33" class="a22-cls-27" data-color-action="stroke" style="stroke:inherit"/><path d="M16.93 64.88l6.9 3.99-6.9 3.99v-7.98z" class="a22-cls-16" data-color-action="fill" style="fill:inherit"/></g><path id="a22_gortex_membranes" d="M2 45.75h55v16.42H2z" class="a22-cls-14" transform="rotate(-180 29.5 53.96)" data-color-action="fill" style="fill:inherit" data-name="gortex membranes"/><path id="a22_frenum_pull" d="M39.49 50.42l-10.66 6.75-10.65-6.75" class="a22-cls-30" data-color-action="stroke" style="stroke:inherit" data-name="frenum pull"/><path id="a22_external_root_resorption" d="M19.25 77.87c.19 1.89.39 3.72.61 5.44A86.84 86.84 0 0 0 22 93.76a10.64 10.64 0 0 0 2.55-8.44 9.35 9.35 0 0 0-5.3-7.45zm13.36 7.58c-.09 5.91 3.09 8 4.64 8.65-.11-4.23-.2-8-.13-10.42 0-1.92.16-4.44.32-7.28-1.58.83-4.73 3.21-4.83 9.04z" class="a22-cls-12 a22-cls-20" data-color-action="fill" style="fill:inherit" data-name="external root resorption"/><g id="a22_distal_drift" class="a22-cls-12" data-name="distal drift"><path d="M32.59 27.84H20.67" class="a22-cls-27" data-color-action="stroke" style="stroke:inherit"/><path d="M31.43 23.85l6.9 3.99-6.9 3.98v-7.97z" class="a22-cls-16" data-color-action="fill" style="fill:inherit"/></g><path id="a22_three_quarter_crown" d="M13.33 29.82c-.11-.76-.21-1.43-.27-2-.51-4.35-1.28-12.68-.51-13.7s13.32-7.43 16.14-7 17 8.32 17.93 9.73c.57.9-.57 7.57-1.65 13z" class="a22-cls-21" data-color-action="fill" style="fill:inherit" data-name="three quarter crown"/><path id="a22_crown" d="M17.93 46.93c-2.14-2.51-4.35-14.73-4.87-19.08s-1.28-12.68-.51-13.7 13.32-7.43 16.14-7 17 8.32 17.93 9.73-2.43 17-3.07 19.72-2.55 9.69-4.1 10.71-17.8 3.97-21.52-.38z" class="a22-cls-12 a22-cls-13" data-color-action="fill" style="fill:inherit"/><path id="a22_cracked_surface_incisal" d="M30.83 15.16L27 11.33h5l-5-4.75h5l-3.83-3.83" class="a22-cls-32" data-color-action="stroke" style="stroke:inherit" data-name="cracked surface incisal"/><path id="a22_cracked_surface_mesial" d="M17.66 35.18l-3.83-3.84h5.01l-5.01-4.74h5.01l-3.83-3.83" class="a22-cls-32" data-color-action="stroke" style="stroke:inherit" data-name="cracked surface mesial"/><path id="a22_cracked_surface_facial" d="M30.83 35.18L27 31.34h5l-5-4.74h5l-3.83-3.83" class="a22-cls-32" data-color-action="stroke" style="stroke:inherit" data-name="cracked surface facial"/><path id="a22_cracked_surface_facial_V" d="M30.83 35.18L27 31.34h5l-5-4.74h5l-3.83-3.83" class="a22-cls-32" data-color-action="stroke" style="stroke:inherit" data-name="cracked surface facial V"/><path id="a22_cracked_surface_distal" d="M45.66 35.18l-3.83-3.84h5l-5-4.74h5L43 22.77" class="a22-cls-32" data-color-action="stroke" style="stroke:inherit" data-name="cracked surface distal"/><g id="a22_chipped_surface_incisal" class="a22-cls-12" data-name="chipped surface incisal"><path d="M33.33 13.49L25 5.16M25 13.49l8.33-8.33" class="a22-cls-33" data-color-action="stroke" style="stroke:inherit"/></g><g id="a22_chipped_surface_mesial" class="a22-cls-12" data-name="chipped surface mesial"><path d="M21.17 33.5l-8.33-8.33M12.84 33.5l8.33-8.33" class="a22-cls-33" data-color-action="stroke" style="stroke:inherit"/></g><g id="a22_chipped_surface_facial" class="a22-cls-12" data-name="chipped surface facial"><path d="M33.33 33.5L25 25.17M25 33.5l8.33-8.33" class="a22-cls-33" data-color-action="stroke" style="stroke:inherit"/></g><g id="a22_chipped_surface_facial_V" class="a22-cls-12" data-name="chipped surface facial V"><path d="M33.33 33.5L25 25.17M25 33.5l8.33-8.33" class="a22-cls-33" data-color-action="stroke" style="stroke:inherit"/></g><g id="a22_chipped_surface_distal" class="a22-cls-12" data-name="chipped surface distal"><path d="M47.33 33.5L39 25.17M39 33.5l8.33-8.33" class="a22-cls-33" data-color-action="stroke" style="stroke:inherit"/></g><path id="a22_buccal_abfraction" d="M18.22 49.25a20.1 20.1 0 0 1 11.11-3.92 20.1 20.1 0 0 1 11.11 3.92 20.1 20.1 0 0 1-11.11 3.92 20.1 20.1 0 0 1-11.11-3.92z" class="a22-cls-14" data-color-action="fill" style="fill:inherit" data-name="buccal abfraction"/><g id="a22_braces"><path d="M22.96 20.84h13.45v18.19H22.96z" class="a22-cls-25" transform="rotate(-180 29.69 29.94)"/><path d="M22.96 20.84h13.45v.68H22.96z" class="a22-cls-34" transform="rotate(-180 29.69 21.185)" data-color-action="fill" style="fill:inherit"/><path d="M22.96 28.43h13.45v1.36H22.96z" class="a22-cls-34" transform="rotate(-180 29.69 29.11)" data-color-action="fill" style="fill:inherit"/><path d="M22.96 38.14h13.45v.89H22.96z" class="a22-cls-35" transform="rotate(-180 29.69 38.585)" data-color-action="fill" style="fill:inherit"/><rect width="4.11" height="7.94" x="32.59" y="31.07" class="a22-cls-28" rx=".49" ry=".49" transform="rotate(-180 34.64 35.04)" data-color-action="fill" style="fill:inherit"/><path d="M33.08 39h3.13a.49.49 0 0 0 .49-.49v-5.83a13.14 13.14 0 0 0-4.11 0v5.83a.49.49 0 0 0 .49.49z" class="a22-cls-18" data-color-action="fill" style="fill:inherit"/><path d="M32.92 37.6v1.11a.16.16 0 0 0 .16.16h3.13a.16.16 0 0 0 .16-.16V37.6z" class="a22-cls-25"/><rect width="4.11" height="7.94" x="22.67" y="31.07" class="a22-cls-28" rx=".49" ry=".49" transform="rotate(-180 24.725 35.04)" data-color-action="fill" style="fill:inherit"/><path d="M23.16 39h3.13a.49.49 0 0 0 .49-.49v-5.83a13.14 13.14 0 0 0-4.11 0v5.83a.49.49 0 0 0 .49.49z" class="a22-cls-18" data-color-action="fill" style="fill:inherit"/><path d="M23 37.6v1.11a.16.16 0 0 0 .16.16h3.13a.16.16 0 0 0 .16-.16V37.6z" class="a22-cls-25"/><rect width="4.11" height="7.94" x="32.59" y="20.79" class="a22-cls-28" rx=".49" ry=".49" transform="rotate(-180 34.64 24.76)" data-color-action="fill" style="fill:inherit"/><path d="M33.08 28.73h3.13a.49.49 0 0 0 .49-.49V22.4a13.14 13.14 0 0 0-4.11 0v5.83a.49.49 0 0 0 .49.5z" class="a22-cls-18" data-color-action="fill" style="fill:inherit"/><path d="M32.92 27.32v1.11a.16.16 0 0 0 .16.16h3.13a.16.16 0 0 0 .16-.16v-1.11z" class="a22-cls-25"/><rect width="4.11" height="7.94" x="22.67" y="20.79" class="a22-cls-28" rx=".49" ry=".49" transform="rotate(-180 24.725 24.76)" data-color-action="fill" style="fill:inherit"/><path d="M23.16 28.73h3.13a.49.49 0 0 0 .49-.49V22.4a13.14 13.14 0 0 0-4.11 0v5.83a.49.49 0 0 0 .49.5z" class="a22-cls-18" data-color-action="fill" style="fill:inherit"/><path d="M23 27.32v1.11a.16.16 0 0 0 .16.16h3.13a.16.16 0 0 0 .16-.16v-1.11z" class="a22-cls-25"/><path d="M8.58 29.17h42.21v1.45H8.58z" class="a22-cls-18" transform="rotate(-180 29.685 29.895)" data-color-action="fill" style="fill:inherit"/><path d="M8.58 29.17h42.21v.25H8.58z" class="a22-cls-28" transform="rotate(-180 29.685 29.295)" data-color-action="fill" style="fill:inherit"/><path d="M8.58 30.02h42.21v.4H8.58z" class="a22-cls-25" transform="rotate(-180 29.685 30.22)"/></g><path id="a22_apicoectomy" d="M22.16 133.86l7.34-11.67 7.34 11.67H22.16z" class="a22-cls-17" data-color-action="fill" style="fill:inherit"/><circle id="a22_abscess" cx="29.5" cy="129.36" r="6.5" class="a22-cls-37" data-color-action="fill" style="fill:inherit"/><g id="a22_blunted_roots" data-name="blunted roots"><path d="M2 77.01h55V139H2z" class="a22-cls-23" transform="rotate(-180 29.5 108.005)"/><path d="M2 74.92h55v2H2z" class="a22-cls-36" transform="rotate(-180 29.5 75.92)" data-color-action="fill" style="fill:inherit"/></g><path id="a22_root_amputation" d="M2 48.9h55v90.43H2z" class="a22-cls-23" transform="rotate(-180 29.5 94.12)" data-name="root amputation"/><path id="a22_missing_crown" d="M2 1.83h55v47.15H2z" class="a22-cls-23" transform="rotate(-180 29.5 25.41)" data-name="missing crown"/><g id="a22_missing_tooth" data-name="missing tooth"><path d="M28.69 7.1c-2.82-.38-15.37 6-16.14 7s0 9.35.51 13.7c.48 4.09 2.46 15.1 4.47 18.52.12 7.42.74 24.74 2.32 36.95 1.85 14.3 12 41.42 15.53 40.56s1.48-30.57 1.73-40.19c.22-8.52 1.69-28.94 2.46-36.48 1.51-1.31 3.35-8 4-10.64s4-18.31 3.07-19.72-15.13-9.32-17.95-9.7z" class="a22-cls-2"/><path d="M17.52 43.49c0 4.21.49 25.52 2.34 39.82s12 41.42 15.53 40.56 1.48-30.57 1.73-40.19 2.1-34.4 2.71-38.68-22.19-12.24-22.31-1.51z" class="a22-cls-23"/><path d="M22.1 82.66C21 73 19.77 59.36 19.77 52.37a109.23 109.23 0 0 0-.72-12.55h-.09a4.88 4.88 0 0 0-1.45 3.65c0 4.21.49 25.52 2.34 39.82 1.18 9.14 5.74 23.52 9.81 32.48-1.61-5.2-3.68-12-4.16-14.48a152.07 152.07 0 0 1-3.4-18.63zM37.12 83.68c.23-9 1.88-31.46 2.59-37.71l-1.83.31s-1.43 10.93-1.79 19.54-.54 20.79-.36 26.89a132.55 132.55 0 0 0 1.79 15.67c-.01-9.06-.52-19.65-.4-24.7zM31.52 49.08c-.64 4.05-1.46 16.8-1.31 34.77s3.94 37.55 4.38 37.25-1.75-29.1-1.32-39.59.73-21.77 1.9-33.31c.24-2.33-2.77-4.67-3.65.88z" class="a22-cls-23"/><path d="M17.93 46.93c-2.14-2.51-4.35-14.73-4.87-19.08s-1.28-12.68-.51-13.7 13.32-7.43 16.14-7 17 8.32 17.93 9.73-2.43 17-3.07 19.72-2.55 9.69-4.1 10.71-17.8 3.97-21.52-.38z" class="a22-cls-23"/><path d="M15.87 27.81c-.42-4.76-1.06-13.86-.42-15a7.11 7.11 0 0 1 1.41-1.27 22.63 22.63 0 0 0-4.3 2.58c-.77 1 0 9.35.51 13.7s2.72 16.57 4.87 19.08a4.82 4.82 0 0 0 1.68 1.19c-1.69-3.62-3.35-15.78-3.75-20.28zM46.62 16.83c-.37-.58-3-2.29-6.22-4.12a17.12 17.12 0 0 1 3.3 3.06c.74 1.54-2 18.62-2.55 21.56a68.49 68.49 0 0 1-2.59 10.33 4 4 0 0 0 .89-.36c1.54-1 3.46-8.07 4.1-10.76s3.97-18.3 3.07-19.71zM32.86 8.73c0 6 0 20.27-.16 24.83A111.85 111.85 0 0 1 31.07 49c1-.1 2-.23 3-.37a85.88 85.88 0 0 0 2.73-14.09c.44-5.15 1.14-16.23 1.17-23.18-1.77-.97-3.55-1.89-5.11-2.63z" class="a22-cls-23"/></g><g id="a22_extracted_tooth" class="a22-msng-cls-10" data-name="extracted tooth"><path d="M9 10.51l41.67 41.66M50.67 10.51L9 52.17" class="a22-msng-cls-11" data-color-action="stroke" style="stroke:inherit"/></g><g id="a22_denture"><path d="M2 2.83h55v135.01H2z" class="a22-cls-23" transform="rotate(-180 29.5 70.34)"/><path d="M57 60.78A22.63 22.63 0 0 1 44.78 64c-7.64 0-10-3.22-15.79-3.22S19.15 64 13.2 64A24.26 24.26 0 0 1 2 60.78V2.83h55z" class="a22-cls-31" data-color-action="fill" style="fill:inherit"/><path d="M17.93 46.93c-2.14-2.51-4.35-14.73-4.87-19.08s-1.28-12.68-.51-13.7 13.32-7.43 16.14-7 17 8.32 17.93 9.73-2.43 17-3.07 19.72-2.55 9.69-4.1 10.71-17.8 3.97-21.52-.38z" class="a22-cls-2"/><path d="M17.93 46.93c-2.14-2.51-4.35-14.73-4.87-19.08s-1.28-12.68-.51-13.7 13.32-7.43 16.14-7 17 8.32 17.93 9.73-2.43 17-3.07 19.72-2.55 9.69-4.1 10.71-17.8 3.97-21.52-.38z" class="a22-cls-6"/><path d="M15.87 27.81c-.42-4.76-1.06-13.86-.42-15a7.11 7.11 0 0 1 1.41-1.27 22.63 22.63 0 0 0-4.3 2.58c-.77 1 0 9.35.51 13.7s2.72 16.57 4.87 19.08a4.82 4.82 0 0 0 1.68 1.19c-1.69-3.62-3.35-15.78-3.75-20.28zM46.62 16.83c-.37-.58-3-2.29-6.22-4.12a17.12 17.12 0 0 1 3.3 3.06c.74 1.54-2 18.62-2.55 21.56a68.49 68.49 0 0 1-2.59 10.33 4 4 0 0 0 .89-.36c1.54-1 3.46-8.07 4.1-10.76s3.97-18.3 3.07-19.71z" class="a22-cls-7"/><path d="M32.86 8.73c0 6 0 20.27-.16 24.83A111.85 111.85 0 0 1 31.07 49c1-.1 2-.23 3-.37a85.88 85.88 0 0 0 2.73-14.09c.44-5.15 1.14-16.23 1.17-23.18-1.77-.97-3.55-1.89-5.11-2.63z" class="a22-cls-8"/></g><g id="a22_maryland_bridge_pontic" class="a22-cls-12" data-name="maryland bridge pontic"><path d="M17.93 46.93c-2.14-2.51-4.35-14.73-4.87-19.08s-1.28-12.68-.51-13.7 13.32-7.43 16.14-7 17 8.32 17.93 9.73-2.43 17-3.07 19.72-2.55 9.69-4.1 10.71-17.8 3.97-21.52-.38z" class="a22-cls-20" data-color-action="fill" style="fill:inherit"/><path d="M2 26h55v7.67H2z" class="a22-cls-20" transform="rotate(-180 29.5 29.835)" data-color-action="fill" style="fill:inherit"/></g><g id="a22_maryland_bridge_abutment_mesial" data-name="maryland bridge abutment mesial"><path d="M2 26h34.98v7.67H2z" class="a22-cls-12 a22-cls-20" transform="rotate(-180 19.49 29.835)" data-color-action="fill" style="fill:inherit"/><path d="M28.69 7.1c-2.82-.38-15.37 6-16.14 7s0 9.35.51 13.7c.48 4.09 2.46 15.1 4.47 18.52.12 7.42.74 24.74 2.32 36.95 1.85 14.3 12 41.42 15.53 40.56s1.48-30.57 1.73-40.19c.22-8.52 1.69-28.94 2.46-36.48 1.51-1.31 3.35-8 4-10.64s4-18.31 3.07-19.72-15.13-9.32-17.95-9.7z" class="a22-cls-2"/><path d="M17.52 43.49c0 4.21.49 25.52 2.34 39.82s12 41.42 15.53 40.56 1.48-30.57 1.73-40.19 2.1-34.4 2.71-38.68-22.19-12.24-22.31-1.51z" class="a22-cls-3"/><path d="M22.1 82.66C21 73 19.77 59.36 19.77 52.37a109.23 109.23 0 0 0-.72-12.55h-.09a4.88 4.88 0 0 0-1.45 3.65c0 4.21.49 25.52 2.34 39.82 1.18 9.14 5.74 23.52 9.81 32.48-1.61-5.2-3.68-12-4.16-14.48a152.07 152.07 0 0 1-3.4-18.63zM37.12 83.68c.23-9 1.88-31.46 2.59-37.71l-1.83.31s-1.43 10.93-1.79 19.54-.54 20.79-.36 26.89a132.55 132.55 0 0 0 1.79 15.67c-.01-9.06-.52-19.65-.4-24.7z" class="a22-cls-4"/><path d="M31.52 49.08c-.64 4.05-1.46 16.8-1.31 34.77s3.94 37.55 4.38 37.25-1.75-29.1-1.32-39.59.73-21.77 1.9-33.31c.24-2.33-2.77-4.67-3.65.88z" class="a22-cls-5"/><path d="M17.93 46.93c-2.14-2.51-4.35-14.73-4.87-19.08s-1.28-12.68-.51-13.7 13.32-7.43 16.14-7 17 8.32 17.93 9.73-2.43 17-3.07 19.72-2.55 9.69-4.1 10.71-17.8 3.97-21.52-.38z" class="a22-cls-6"/><path d="M15.87 27.81c-.42-4.76-1.06-13.86-.42-15a7.11 7.11 0 0 1 1.41-1.27 22.63 22.63 0 0 0-4.3 2.58c-.77 1 0 9.35.51 13.7s2.72 16.57 4.87 19.08a4.82 4.82 0 0 0 1.68 1.19c-1.69-3.62-3.35-15.78-3.75-20.28zM46.62 16.83c-.37-.58-3-2.29-6.22-4.12a17.12 17.12 0 0 1 3.3 3.06c.74 1.54-2 18.62-2.55 21.56a68.49 68.49 0 0 1-2.59 10.33 4 4 0 0 0 .89-.36c1.54-1 3.46-8.07 4.1-10.76s3.97-18.3 3.07-19.71z" class="a22-cls-7"/><path d="M32.86 8.73c0 6 0 20.27-.16 24.83A111.85 111.85 0 0 1 31.07 49c1-.1 2-.23 3-.37a85.88 85.88 0 0 0 2.73-14.09c.44-5.15 1.14-16.23 1.17-23.18-1.77-.97-3.55-1.89-5.11-2.63z" class="a22-cls-8"/></g><g id="a22_maryland_bridge_abutment_distal" data-name="maryland bridge abutment distal"><path d="M22.02 26H57v7.67H22.02z" class="a22-cls-12 a22-cls-20" transform="rotate(-180 39.51 29.835)" data-color-action="fill" style="fill:inherit"/><path d="M28.69 7.1c-2.82-.38-15.37 6-16.14 7s0 9.35.51 13.7c.48 4.09 2.46 15.1 4.47 18.52.12 7.42.74 24.74 2.32 36.95 1.85 14.3 12 41.42 15.53 40.56s1.48-30.57 1.73-40.19c.22-8.52 1.69-28.94 2.46-36.48 1.51-1.31 3.35-8 4-10.64s4-18.31 3.07-19.72-15.13-9.32-17.95-9.7z" class="a22-cls-2"/><path d="M17.52 43.49c0 4.21.49 25.52 2.34 39.82s12 41.42 15.53 40.56 1.48-30.57 1.73-40.19 2.1-34.4 2.71-38.68-22.19-12.24-22.31-1.51z" class="a22-cls-3"/><path d="M22.1 82.66C21 73 19.77 59.36 19.77 52.37a109.23 109.23 0 0 0-.72-12.55h-.09a4.88 4.88 0 0 0-1.45 3.65c0 4.21.49 25.52 2.34 39.82 1.18 9.14 5.74 23.52 9.81 32.48-1.61-5.2-3.68-12-4.16-14.48a152.07 152.07 0 0 1-3.4-18.63zM37.12 83.68c.23-9 1.88-31.46 2.59-37.71l-1.83.31s-1.43 10.93-1.79 19.54-.54 20.79-.36 26.89a132.55 132.55 0 0 0 1.79 15.67c-.01-9.06-.52-19.65-.4-24.7z" class="a22-cls-4"/><path d="M31.52 49.08c-.64 4.05-1.46 16.8-1.31 34.77s3.94 37.55 4.38 37.25-1.75-29.1-1.32-39.59.73-21.77 1.9-33.31c.24-2.33-2.77-4.67-3.65.88z" class="a22-cls-5"/><path d="M17.93 46.93c-2.14-2.51-4.35-14.73-4.87-19.08s-1.28-12.68-.51-13.7 13.32-7.43 16.14-7 17 8.32 17.93 9.73-2.43 17-3.07 19.72-2.55 9.69-4.1 10.71-17.8 3.97-21.52-.38z" class="a22-cls-6"/><path d="M15.87 27.81c-.42-4.76-1.06-13.86-.42-15a7.11 7.11 0 0 1 1.41-1.27 22.63 22.63 0 0 0-4.3 2.58c-.77 1 0 9.35.51 13.7s2.72 16.57 4.87 19.08a4.82 4.82 0 0 0 1.68 1.19c-1.69-3.62-3.35-15.78-3.75-20.28zM46.62 16.83c-.37-.58-3-2.29-6.22-4.12a17.12 17.12 0 0 1 3.3 3.06c.74 1.54-2 18.62-2.55 21.56a68.49 68.49 0 0 1-2.59 10.33 4 4 0 0 0 .89-.36c1.54-1 3.46-8.07 4.1-10.76s3.97-18.3 3.07-19.71z" class="a22-cls-7"/><path d="M32.86 8.73c0 6 0 20.27-.16 24.83A111.85 111.85 0 0 1 31.07 49c1-.1 2-.23 3-.37a85.88 85.88 0 0 0 2.73-14.09c.44-5.15 1.14-16.23 1.17-23.18-1.77-.97-3.55-1.89-5.11-2.63z" class="a22-cls-8"/></g><g id="a22_maryland_bridge_abutment" data-name="maryland bridge abutment"><path d="M2 26h55v7.67H2z" class="a22-cls-12 a22-cls-20" transform="rotate(-180 29.5 29.835)" data-color-action="fill" style="fill:inherit"/><path d="M28.69 7.1c-2.82-.38-15.37 6-16.14 7s0 9.35.51 13.7c.48 4.09 2.46 15.1 4.47 18.52.12 7.42.74 24.74 2.32 36.95 1.85 14.3 12 41.42 15.53 40.56s1.48-30.57 1.73-40.19c.22-8.52 1.69-28.94 2.46-36.48 1.51-1.31 3.35-8 4-10.64s4-18.31 3.07-19.72-15.13-9.32-17.95-9.7z" class="a22-cls-2"/><path d="M17.52 43.49c0 4.21.49 25.52 2.34 39.82s12 41.42 15.53 40.56 1.48-30.57 1.73-40.19 2.1-34.4 2.71-38.68-22.19-12.24-22.31-1.51z" class="a22-cls-3"/><path d="M22.1 82.66C21 73 19.77 59.36 19.77 52.37a109.23 109.23 0 0 0-.72-12.55h-.09a4.88 4.88 0 0 0-1.45 3.65c0 4.21.49 25.52 2.34 39.82 1.18 9.14 5.74 23.52 9.81 32.48-1.61-5.2-3.68-12-4.16-14.48a152.07 152.07 0 0 1-3.4-18.63zM37.12 83.68c.23-9 1.88-31.46 2.59-37.71l-1.83.31s-1.43 10.93-1.79 19.54-.54 20.79-.36 26.89a132.55 132.55 0 0 0 1.79 15.67c-.01-9.06-.52-19.65-.4-24.7z" class="a22-cls-4"/><path d="M31.52 49.08c-.64 4.05-1.46 16.8-1.31 34.77s3.94 37.55 4.38 37.25-1.75-29.1-1.32-39.59.73-21.77 1.9-33.31c.24-2.33-2.77-4.67-3.65.88z" class="a22-cls-5"/><path d="M17.93 46.93c-2.14-2.51-4.35-14.73-4.87-19.08s-1.28-12.68-.51-13.7 13.32-7.43 16.14-7 17 8.32 17.93 9.73-2.43 17-3.07 19.72-2.55 9.69-4.1 10.71-17.8 3.97-21.52-.38z" class="a22-cls-6"/><path d="M15.87 27.81c-.42-4.76-1.06-13.86-.42-15a7.11 7.11 0 0 1 1.41-1.27 22.63 22.63 0 0 0-4.3 2.58c-.77 1 0 9.35.51 13.7s2.72 16.57 4.87 19.08a4.82 4.82 0 0 0 1.68 1.19c-1.69-3.62-3.35-15.78-3.75-20.28zM46.62 16.83c-.37-.58-3-2.29-6.22-4.12a17.12 17.12 0 0 1 3.3 3.06c.74 1.54-2 18.62-2.55 21.56a68.49 68.49 0 0 1-2.59 10.33 4 4 0 0 0 .89-.36c1.54-1 3.46-8.07 4.1-10.76s3.97-18.3 3.07-19.71z" class="a22-cls-7"/><path d="M32.86 8.73c0 6 0 20.27-.16 24.83A111.85 111.85 0 0 1 31.07 49c1-.1 2-.23 3-.37a85.88 85.88 0 0 0 2.73-14.09c.44-5.15 1.14-16.23 1.17-23.18-1.77-.97-3.55-1.89-5.11-2.63z" class="a22-cls-8"/></g><g id="a22_bridge_abutment_mesial" class="a22-cls-12" data-name="bridge abutment mesial"><path d="M17.93 46.93c-2.14-2.51-4.35-14.73-4.87-19.08s-1.28-12.68-.51-13.7 13.32-7.43 16.14-7 17 8.32 17.93 9.73-2.43 17-3.07 19.72-2.55 9.69-4.1 10.71-17.8 3.97-21.52-.38z" class="a22-cls-18" data-color-action="fill" style="fill:inherit"/><path d="M2 26h34.98v7.67H2z" class="a22-cls-18" transform="rotate(-180 19.49 29.835)" data-color-action="fill" style="fill:inherit"/></g><g id="a22_bridge_abutment_distal" class="a22-cls-12" data-name="bridge abutment distal"><path d="M17.93 46.93c-2.14-2.51-4.35-14.73-4.87-19.08s-1.28-12.68-.51-13.7 13.32-7.43 16.14-7 17 8.32 17.93 9.73-2.43 17-3.07 19.72-2.55 9.69-4.1 10.71-17.8 3.97-21.52-.38z" class="a22-cls-18" data-color-action="fill" style="fill:inherit"/><path d="M22.02 26H57v7.67H22.02z" class="a22-cls-18" transform="rotate(-180 39.51 29.835)" data-color-action="fill" style="fill:inherit"/></g><g id="a22_bridge_abutment" class="a22-cls-12" data-name="bridge abutment"><path d="M17.93 46.93c-2.14-2.51-4.35-14.73-4.87-19.08s-1.28-12.68-.51-13.7 13.32-7.43 16.14-7 17 8.32 17.93 9.73-2.43 17-3.07 19.72-2.55 9.69-4.1 10.71-17.8 3.97-21.52-.38z" class="a22-cls-18" data-color-action="fill" style="fill:inherit"/><path d="M2 26h55v7.67H2z" class="a22-cls-18" transform="rotate(-180 29.5 29.835)" data-color-action="fill" style="fill:inherit"/></g><g id="a22_bridge_pontic" data-name="bridge pontic"><path d="M28.69 7.1c-2.82-.38-15.37 6-16.14 7s0 9.35.51 13.7c.48 4.09 2.46 15.1 4.47 18.52.12 7.42.74 24.74 2.32 36.95 1.85 14.3 12 41.42 15.53 40.56s1.48-30.57 1.73-40.19c.22-8.52 1.69-28.94 2.46-36.48 1.51-1.31 3.35-8 4-10.64s4-18.31 3.07-19.72-15.13-9.32-17.95-9.7z" class="a22-cls-2"/><path d="M17.52 43.49c0 4.21.49 25.52 2.34 39.82s12 41.42 15.53 40.56 1.48-30.57 1.73-40.19 2.1-34.4 2.71-38.68-22.19-12.24-22.31-1.51z" class="a22-cls-23"/><path d="M22.1 82.66C21 73 19.77 59.36 19.77 52.37a109.23 109.23 0 0 0-.72-12.55h-.09a4.88 4.88 0 0 0-1.45 3.65c0 4.21.49 25.52 2.34 39.82 1.18 9.14 5.74 23.52 9.81 32.48-1.61-5.2-3.68-12-4.16-14.48a152.07 152.07 0 0 1-3.4-18.63zM37.12 83.68c.23-9 1.88-31.46 2.59-37.71l-1.83.31s-1.43 10.93-1.79 19.54-.54 20.79-.36 26.89a132.55 132.55 0 0 0 1.79 15.67c-.01-9.06-.52-19.65-.4-24.7zM31.52 49.08c-.64 4.05-1.46 16.8-1.31 34.77s3.94 37.55 4.38 37.25-1.75-29.1-1.32-39.59.73-21.77 1.9-33.31c.24-2.33-2.77-4.67-3.65.88z" class="a22-cls-23"/><path d="M17.93 46.93c-2.14-2.51-4.35-14.73-4.87-19.08s-1.28-12.68-.51-13.7 13.32-7.43 16.14-7 17 8.32 17.93 9.73-2.43 17-3.07 19.72-2.55 9.69-4.1 10.71-17.8 3.97-21.52-.38z" class="a22-cls-6"/><path d="M15.87 27.81c-.42-4.76-1.06-13.86-.42-15a7.11 7.11 0 0 1 1.41-1.27 22.63 22.63 0 0 0-4.3 2.58c-.77 1 0 9.35.51 13.7s2.72 16.57 4.87 19.08a4.82 4.82 0 0 0 1.68 1.19c-1.69-3.62-3.35-15.78-3.75-20.28zM46.62 16.83c-.37-.58-3-2.29-6.22-4.12a17.12 17.12 0 0 1 3.3 3.06c.74 1.54-2 18.62-2.55 21.56a68.49 68.49 0 0 1-2.59 10.33 4 4 0 0 0 .89-.36c1.54-1 3.46-8.07 4.1-10.76s3.97-18.3 3.07-19.71z" class="a22-cls-7"/><path d="M32.86 8.73c0 6 0 20.27-.16 24.83A111.85 111.85 0 0 1 31.07 49c1-.1 2-.23 3-.37a85.88 85.88 0 0 0 2.73-14.09c.44-5.15 1.14-16.23 1.17-23.18-1.77-.97-3.55-1.89-5.11-2.63z" class="a22-cls-8"/><g class="a22-cls-12"><path d="M17.93 46.93c-2.14-2.51-4.35-14.73-4.87-19.08s-1.28-12.68-.51-13.7 13.32-7.43 16.14-7 17 8.32 17.93 9.73-2.43 17-3.07 19.72-2.55 9.69-4.1 10.71-17.8 3.97-21.52-.38z" class="a22-cls-18" data-color-action="fill" style="fill:inherit"/><path d="M2 26h55v7.67H2z" class="a22-cls-18" transform="rotate(-180 29.5 29.835)" data-color-action="fill" style="fill:inherit"/></g></g><g id="a22_implant_mini" data-name="implant mini"><path d="M1.61 1.79h55v137.17h-55z" class="a22-cls-23" transform="rotate(-180 29.115 70.375)"/><path d="M29.28 77.93h.44l1-8.49V28.6h-2.44v40.84l1 8.49z" class="a22-cls-18" data-color-action="fill" style="fill:inherit"/><path d="M29.58 77.93h.07l.4-8.49V28.6h-.37v40.84l-.1 8.49z" class="a22-cls-25"/><path d="M28.28 28.6h2.44v.63h-2.44z" class="a22-cls-28" transform="rotate(-180 29.5 28.915)" data-color-action="fill" style="fill:inherit"/><g class="a22-cls-29"><path d="M30.72 29.23l-2.44 1v-.63l2.44-1v.63zM30.72 30.68l-2.44 1v-.63l2.44-1v.63zM30.72 32.12l-2.44 1v-.63l2.44-1v.63zM30.72 33.57l-2.44 1v-.63l2.44-1v.63zM30.72 35.02l-2.44 1v-.64l2.44-1v.64zM30.72 36.46l-2.44 1v-.63l2.44-1v.63zM30.72 37.91l-2.44 1v-.64l2.44-1v.64zM30.72 39.35l-2.44 1v-.63l2.44-1v.63zM30.72 40.8l-2.44 1v-.64l2.44-1v.64zM30.72 42.24l-2.44 1v-.63l2.44-1v.63zM30.72 43.69l-2.44 1v-.64l2.44-1v.64zM30.72 45.13l-2.44 1v-.63l2.44-1v.63zM30.72 46.58l-2.44 1v-.63l2.44-1v.63zM30.72 48.02l-2.44 1v-.63l2.44-1v.63zM30.72 49.47l-2.44 1v-.63l2.44-1v.63zM30.72 50.91l-2.44 1v-.63l2.44-1v.63zM30.72 52.36l-2.44 1v-.63l2.44-1v.63zM30.72 53.8l-2.44 1.01v-.64l2.44-1v.63zM30.72 55.25l-2.44 1v-.63l2.44-1v.63zM30.72 56.7l-2.44 1v-.64l2.44-1v.64zM30.72 58.14l-2.44 1v-.63l2.44-1v.63zM30.72 59.59l-2.44 1v-.63l2.44-1.01v.64zM30.72 61.03l-2.44 1v-.63l2.44-1v.63zM30.72 62.48l-2.44 1v-.63l2.44-1v.63zM30.72 63.92l-2.44 1v-.63l2.44-1v.63zM30.72 65.37l-2.44 1v-.63l2.44-1v.63zM30.72 66.81l-2.44 1v-.63l2.44-1v.63zM30.72 68.26l-2.44 1v-.63l2.44-1v.63zM30.72 69.44l-.03.28-2.27.93-.07-.61 2.37-.97v.37zM30.51 71.24l-1.93.79-.07-.61 2.08-.85-.08.67zM30.33 72.76l-1.58.65-.08-.61 1.74-.71-.08.67zM30.15 74.28l-1.24.5-.07-.6 1.39-.57-.08.67zM29.97 75.79l-.9.37-.07-.6 1.05-.43-.08.66zM29.8 77.31l-.57.23-.07-.6.71-.29-.07.66z" class="a22-cls-28" data-color-action="fill" style="fill:inherit"/></g><circle cx="29.5" cy="24.73" r="2.24" class="a22-cls-18" data-color-action="fill" style="fill:inherit"/><path d="M27.67 25.95h3.67v3h-3.67z" class="a22-cls-18" transform="rotate(-180 29.5 27.445)" data-color-action="fill" style="fill:inherit"/><path d="M29.96 25.95h.55v3h-.55z" class="a22-cls-25"/><path d="M30.3 23.37h.21a2.32 2.32 0 0 1 .49 1.29 2.37 2.37 0 0 1-.52 1.3H30a2 2 0 0 0 .73-1.37 1.5 1.5 0 0 0-.43-1.22z" class="a22-cls-25"/><path d="M28.28 34.67h2.44v.63h-2.44z" class="a22-cls-28" transform="rotate(-180 29.5 34.985)" data-color-action="fill" style="fill:inherit"/><path d="M26.89 28.92h5.22l-.87 5.71h-3.48l-.87-5.71z" class="a22-cls-18" data-color-action="fill" style="fill:inherit"/><path d="M30.15 28.92h.79l-.48 5.71h-.53l.22-5.71z" class="a22-cls-25"/></g><g id="a22_implant_cylinder" data-name="implant cylinder"><path d="M2 1.83h55V139H2z" class="a22-cls-23" transform="rotate(-180 29.5 70.415)"/><path d="M26.17 25.65h6.67v49.33h-6.67z" class="a22-cls-18" transform="rotate(-180 29.5 50.32)" data-color-action="fill" style="fill:inherit"/><path d="M24.5 22.66h10v3h-10z" class="a22-cls-18" transform="rotate(-180 29.5 24.155)" data-color-action="fill" style="fill:inherit"/><path d="M30 25.65h1v49.33h-1z" class="a22-cls-25" transform="rotate(-180 30.5 50.32)"/><path d="M30.75 22.66h1.5v3h-1.5z" class="a22-cls-25" transform="rotate(-180 31.5 24.155)"/><path d="M24.5 75.02h10v3h-10z" class="a22-cls-18" transform="rotate(-180 29.5 76.515)" data-color-action="fill" style="fill:inherit"/><path d="M30.75 75.02h1.5v3h-1.5z" class="a22-cls-25" transform="rotate(-180 31.5 76.515)"/><path d="M26.17 25.65h6.67v.63h-6.67z" class="a22-cls-28" transform="rotate(-180 29.5 25.97)" data-color-action="fill" style="fill:inherit"/><path d="M26.17 74.35h6.67v.63h-6.67z" class="a22-cls-28" transform="rotate(-180 29.5 74.67)" data-color-action="fill" style="fill:inherit"/><g class="a22-cls-29"><path d="M26.17 73.35l6.66 1.01v.63l-6.66-1v-.64zM26.17 71.91l6.66 1v.63l-6.66-1v-.63zM26.17 70.46l6.66 1v.64l-6.66-1.01v-.63zM26.17 69.02l6.66 1v.63l-6.66-1v-.63zM26.17 67.57l6.66 1v.63l-6.66-1v-.63zM26.17 66.13l6.66 1v.63l-6.66-1v-.63zM26.17 64.68l6.66 1v.63l-6.66-1v-.63zM26.17 63.24l6.66 1v.63l-6.66-1v-.63zM26.17 61.79l6.66 1v.63l-6.66-1v-.63zM26.17 60.34l6.66 1.01v.63l-6.66-1v-.64zM26.17 58.9l6.66 1v.63l-6.66-1v-.63zM26.17 57.45l6.66 1v.64l-6.66-1v-.64zM26.17 56.01l6.66 1v.63l-6.66-1v-.63zM26.17 54.56l6.66 1v.64l-6.66-1v-.64zM26.17 53.12l6.66 1v.63l-6.66-1v-.63zM26.17 51.67l6.66 1v.63l-6.66-1v-.63zM26.17 50.23l6.66 1v.63l-6.66-1v-.63zM26.17 48.78l6.66 1v.63l-6.66-1v-.63zM26.17 47.34l6.66 1v.63l-6.66-1v-.63zM26.17 45.89l6.66 1v.63l-6.66-1v-.63zM26.17 44.45l6.66 1v.63l-6.66-1v-.63zM26.17 43l6.66 1v.63l-6.66-1V43zM26.17 41.55l6.66 1v.64l-6.66-1v-.64zM26.17 40.11l6.66 1v.63l-6.66-1v-.63zM26.17 38.66l6.66 1v.64l-6.66-1v-.64zM26.17 37.22l6.66 1v.63l-6.66-1v-.63zM26.17 35.77l6.66 1v.64l-6.66-1v-.64zM26.17 34.33l6.66 1v.63l-6.66-1v-.63zM26.17 32.88l6.66 1v.63l-6.66-1v-.63zM26.17 31.44l6.66 1v.63l-6.66-1v-.63zM26.17 29.99l6.66 1v.63l-6.66-1v-.63zM26.17 28.55l6.66 1v.63l-6.66-1v-.63zM26.17 27.1l6.66 1v.63l-6.66-1v-.63zM26.17 25.65l6.66 1.01v.63l-6.66-1v-.64z" class="a22-cls-28" data-color-action="fill" style="fill:inherit"/></g></g><g id="a22_implant_blade" data-name="implant blade"><path d="M2 1.83h55V139H2z" class="a22-cls-23" transform="rotate(-180 29.5 70.415)"/><path d="M26.17 25.65h6.67v49.33h-6.67z" class="a22-cls-18" transform="rotate(-180 29.5 50.32)" data-color-action="fill" style="fill:inherit"/><path d="M24.5 22.66h10v3h-10z" class="a22-cls-18" transform="rotate(-180 29.5 24.155)" data-color-action="fill" style="fill:inherit"/><path d="M30 25.65h1v49.33h-1z" class="a22-cls-25" transform="rotate(-180 30.5 50.32)"/><path d="M30.75 22.66h1.5v3h-1.5z" class="a22-cls-25" transform="rotate(-180 31.5 24.155)"/><path d="M26.17 25.65h6.67v.63h-6.67z" class="a22-cls-28" transform="rotate(-180 29.5 25.97)" data-color-action="fill" style="fill:inherit"/></g><path id="a22_watch_tooth" d="M8.27 153.9a3.26 3.26 0 0 1 3.22-3.26 3.24 3.24 0 1 1 0 6.47 3.25 3.25 0 0 1-3.22-3.21zm1-5.91l-.88-18.09h6.15l-.8 18.1z" class="a22-cls-11" data-color-action="fill" style="fill:inherit" data-name="watch tooth"/><path id="a22_border" d="M0 0h59v161H0z" class="a22-cls-15"/></defs></g><g class="c22-cls-1"><g id="_22C" data-name="#22C"><path d="M17.93 18.34c-2.14 2.51-4.35 14.73-4.87 19.08s-1.28 12.68-.51 13.7 13.32 7.43 16.14 7 17-8.32 17.93-9.73-2.43-17-3.07-19.72S41 19 39.45 18s-17.8-4-21.52.34z" class="c22-cls-2"/><path d="M17.93 18.34c-2.14 2.51-4.35 14.73-4.87 19.08s-1.28 12.68-.51 13.7 13.32 7.43 16.14 7 17-8.32 17.93-9.73-2.43-17-3.07-19.72S41 19 39.45 18s-17.8-4-21.52.34z" class="c22-cls-3"/><path d="M21.32 19.66a108.42 108.42 0 0 1 13.4.36c1.87.29 5.22.81 7.25 3.1-.78-2.38-1.7-4.62-2.52-5.16-1.54-1-17.8-4-21.52.38a16 16 0 0 0-2.11 5.12c1.6-1.82 3.7-3.68 5.5-3.8z" class="c22-cls-4"/><path d="M12.55 51.13c.77 1 13.32 7.43 16.14 7s17-8.32 17.93-9.73c.31-.48.12-2.64-.29-5.38a10.35 10.35 0 0 1-2.55 4c-2 1.63-14.31 8-16.3 8s-9.06-2.72-12.13-4.53a8.1 8.1 0 0 1-3.08-3.36c-.08 1.99-.03 3.59.28 4z" class="c22-cls-5"/></g><defs><g id="c22_splinted_crowns" data-name="splinted crowns"><path d="M2 10.87h55v7.67H2z" class="c22-cls-12" transform="rotate(-180 29.5 14.7)" data-color-action="fill" style="fill:inherit"/><path d="M17.93 18.34c-2.14 2.51-4.35 14.73-4.87 19.08s-1.28 12.68-.51 13.7 13.32 7.43 16.14 7 17-8.32 17.93-9.73-2.43-17-3.07-19.72S41 19 39.45 18s-17.8-4-21.52.34z" class="c22-cls-2"/><path d="M17.93 18.34c-2.14 2.51-4.35 14.73-4.87 19.08s-1.28 12.68-.51 13.7 13.32 7.43 16.14 7 17-8.32 17.93-9.73-2.43-17-3.07-19.72S41 19 39.45 18s-17.8-4-21.52.34z" class="c22-cls-3"/><path d="M21.32 19.66a108.42 108.42 0 0 1 13.4.36c1.87.29 5.22.81 7.25 3.1-.78-2.38-1.7-4.62-2.52-5.16-1.54-1-17.8-4-21.52.38a16 16 0 0 0-2.11 5.12c1.6-1.82 3.7-3.68 5.5-3.8z" class="c22-cls-4"/><path d="M12.55 51.13c.77 1 13.32 7.43 16.14 7s17-8.32 17.93-9.73c.31-.48.12-2.64-.29-5.38a10.35 10.35 0 0 1-2.55 4c-2 1.63-14.31 8-16.3 8s-9.06-2.72-12.13-4.53a8.1 8.1 0 0 1-3.08-3.36c-.08 1.99-.03 3.59.28 4z" class="c22-cls-5"/></g><path id="c22_mesial" d="M12.49 51l5.2-6.78a7.27 7.27 0 0 1-.69-2.5 12.29 12.29 0 0 0-3.41-7.85 67.25 67.25 0 0 0-.52 3.56c-.5 4.21-1.23 12.11-.58 13.57z" class="c22-cls-6" data-color-action="fill" style="fill:inherit"/><path id="c22_line_angle_4" d="M23.23 56.66l2.07-8.11c-3.6-.49-6.36-1.8-7.61-4.34L12.49 51a.9.9 0 0 0 .07.14c.5.66 6.09 3.66 10.67 5.52z" class="c22-cls-6" data-color-action="fill" style="fill:inherit" data-name="line angle 4"/><path id="c22_lingual" d="M28.69 58.17a32.58 32.58 0 0 0 6.73-2.9l-2.27-6.75a24.49 24.49 0 0 1-4.09.28 28.66 28.66 0 0 1-3.76-.25l-2.07 8.11c2.39.98 4.49 1.64 5.46 1.51z" class="c22-cls-6" data-color-action="fill" style="fill:inherit"/><path id="c22_line_angle_3" d="M45 49.73l-5.37-6.62c-1.09 3.24-3 4.83-6.49 5.41l2.27 6.75A109.15 109.15 0 0 0 45 49.73z" class="c22-cls-6" data-color-action="fill" style="fill:inherit" data-name="line angle 3"/><path id="c22_distal" d="M40.56 38.79a22.65 22.65 0 0 1-.92 4.32L45 49.73a7.3 7.3 0 0 0 1.61-1.29c.63-1-.84-9.07-2-14.69a6.35 6.35 0 0 0-4.05 5.04z" class="c22-cls-6" data-color-action="fill" style="fill:inherit"/><path id="c22_mid_lingual" d="M34.1 34.42c.05 5.56-2.07 10-4.73 9.91s-4.75-4.7-4.74-10.18 2.09-9.71 4.66-9.67 4.71 4.45 4.81 9.94z" class="c22-cls-6" data-color-action="fill" style="fill:inherit" data-name="mid lingual"/><path id="c22_lingual_V" d="M38.09 17.46c-3.73-1-13.64-2.43-18.36-.37A15 15 0 0 0 29 20.45a15.09 15.09 0 0 0 9.09-2.99z" class="c22-cls-6" data-color-action="fill" style="fill:inherit" data-name="lingual V"/><g id="c22_veneer"><path d="M28 61.75h3v3h-3z" class="c22-cls-7" transform="rotate(-180 29.5 63.25)"/><path d="M28 61.75h3v3h-3z" class="c22-cls-7" transform="rotate(-180 29.5 63.25)"/><path d="M28 61.75h3v3h-3z" class="c22-cls-7" transform="rotate(-180 29.5 63.25)"/></g><g id="c22_tissue_graft" data-name="tissue graft"><path d="M28 61.75h3v3h-3z" class="c22-cls-7" transform="rotate(-180 29.5 63.25)"/><path d="M28 61.75h3v3h-3z" class="c22-cls-7" transform="rotate(-180 29.5 63.25)"/><path d="M28 61.75h3v3h-3z" class="c22-cls-7" transform="rotate(-180 29.5 63.25)"/></g><g id="c22_tipped_lingual" class="c22-cls-8" data-name="tipped lingual"><path d="M28.65 61.07c1.26 3.37 4.74 3.85 7.69-5.32.5-1.56 4.42-1.76 3.84 0-2 6.08-5.31 10.2-9.06 9.27a4.86 4.86 0 0 1-3-3.38c.19-.17.42-.42.53-.57z" class="c22-cls-9" data-color-action="fill" style="fill:inherit"/><path d="M30.73 58.15h12.94l-2.94-9.64-10 9.64z" class="c22-cls-9" data-color-action="fill" style="fill:inherit"/></g><g id="c22_tipped_facial" data-name="tipped facial"><path d="M28 61.75h3v3h-3z" class="c22-cls-7" transform="rotate(-180 29.5 63.25)"/><path d="M28 61.75h3v3h-3z" class="c22-cls-7" transform="rotate(-180 29.5 63.25)"/><path d="M28 61.75h3v3h-3z" class="c22-cls-7" transform="rotate(-180 29.5 63.25)"/></g><path id="c22_surface_restoration_incisal" d="M28.69 58.22c-2.58.35-13.31-5-15.7-6.67l6.28-4.74v.31a68 68 0 0 0 8.85 3.95A109.4 109.4 0 0 0 39.54 45l-.06-.41 6.83 4.23c-2.31 2.03-14.98 9.04-17.62 9.4z" class="c22-cls-10" data-color-action="fill" style="fill:inherit" data-name="surface restoration incisal"/><path id="c22_surface_restoration_mesial" d="M12.55 51.18c-.77-1 0-9.35.51-13.7.24-2.07.87-5.93 1.7-9.68a11.52 11.52 0 0 0 7-6.24C21 28.06 20.32 35.7 20 38.29c-.4 3.38-.64 6.42-.74 8.52L13 51.55a2.26 2.26 0 0 1-.45-.37z" class="c22-cls-10" data-color-action="fill" style="fill:inherit" data-name="surface restoration mesial"/><path id="c22_surface_restoration_lingual" d="M35.53 19.86a11.46 11.46 0 0 0 1.05 2.66c1.18 8.68 2.6 20 2.95 22.47a109.4 109.4 0 0 1-11.42 6.08 68 68 0 0 1-8.85-3.95c.09-2.1.34-5.28.76-8.83.3-2.59 1-10.23 1.79-16.74a11.67 11.67 0 0 0 .53-1.43 15.38 15.38 0 0 0 13.2-.26z" class="c22-cls-8 c22-cls-11" data-color-action="fill" style="fill:inherit" data-name="surface restoration lingual"/><path id="c22_surface_restoration_lingual_V" d="M22.81 16.33a42.84 42.84 0 0 1 12.36.55v.11a11.48 11.48 0 0 0 .37 2.88 15.38 15.38 0 0 1-13.2.26 11.35 11.35 0 0 0 .5-3.3l-.03-.5z" class="c22-cls-8 c22-cls-11" data-color-action="fill" style="fill:inherit" data-name="surface restoration lingual V"/><path id="c22_surface_restoration_distal" d="M46.31 48.82l-6.83-4.23c-.42-3.1-1.77-13.78-2.89-22.07A11.52 11.52 0 0 0 43.36 28l.19.77c.64 2.69 4 18.31 3.07 19.72a1.8 1.8 0 0 1-.31.33z" class="c22-cls-10" data-color-action="fill" style="fill:inherit" data-name="surface restoration distal"/><g id="c22_supra-erupted"><path d="M28 61.75h3v3h-3z" class="c22-cls-7" transform="rotate(-180 29.5 63.25)"/><path d="M28 61.75h3v3h-3z" class="c22-cls-7" transform="rotate(-180 29.5 63.25)"/><path d="M28 61.75h3v3h-3z" class="c22-cls-7" transform="rotate(-180 29.5 63.25)"/></g><g id="c22_sub-erupted"><path d="M28 61.75h3v3h-3z" class="c22-cls-7" transform="rotate(-180 29.5 63.25)"/><path d="M28 61.75h3v3h-3z" class="c22-cls-7" transform="rotate(-180 29.5 63.25)"/><path d="M28 61.75h3v3h-3z" class="c22-cls-7" transform="rotate(-180 29.5 63.25)"/></g><g id="c22_sealant"><path d="M28 61.75h3v3h-3z" class="c22-cls-7" transform="rotate(-180 29.5 63.25)"/><path d="M28 61.75h3v3h-3z" class="c22-cls-7" transform="rotate(-180 29.5 63.25)"/><path d="M28 61.75h3v3h-3z" class="c22-cls-7" transform="rotate(-180 29.5 63.25)"/></g><g id="c22_root_decay" data-name="root decay"><path d="M28 61.75h3v3h-3z" class="c22-cls-7" transform="rotate(-180 29.5 63.25)"/><path d="M28 61.75h3v3h-3z" class="c22-cls-7" transform="rotate(-180 29.5 63.25)"/><path d="M28 61.75h3v3h-3z" class="c22-cls-7" transform="rotate(-180 29.5 63.25)"/></g><g id="c22_root_canal" data-name="root canal"><path d="M28 61.75h3v3h-3z" class="c22-cls-7" transform="rotate(-180 29.5 63.25)"/><path d="M28 61.75h3v3h-3z" class="c22-cls-7" transform="rotate(-180 29.5 63.25)"/><path d="M28 61.75h3v3h-3z" class="c22-cls-7" transform="rotate(-180 29.5 63.25)"/></g><g id="c22_root_abrasion" data-name="root abrasion"><path d="M28 61.75h3v3h-3z" class="c22-cls-7" transform="rotate(-180 29.5 63.25)"/><path d="M28 61.75h3v3h-3z" class="c22-cls-7" transform="rotate(-180 29.5 63.25)"/><path d="M28 61.75h3v3h-3z" class="c22-cls-7" transform="rotate(-180 29.5 63.25)"/></g><g id="c22_open_contact_mesial" data-name="open contact mesial"><path d="M28 61.75h3v3h-3z" class="c22-cls-7" transform="rotate(-180 29.5 63.25)"/><path d="M28 61.75h3v3h-3z" class="c22-cls-7" transform="rotate(-180 29.5 63.25)"/><path d="M28 61.75h3v3h-3z" class="c22-cls-7" transform="rotate(-180 29.5 63.25)"/></g><g id="c22_open_contact_distal" data-name="open contact distal"><path d="M28 61.75h3v3h-3z" class="c22-cls-7" transform="rotate(-180 29.5 63.25)"/><path d="M28 61.75h3v3h-3z" class="c22-cls-7" transform="rotate(-180 29.5 63.25)"/><path d="M28 61.75h3v3h-3z" class="c22-cls-7" transform="rotate(-180 29.5 63.25)"/></g><path id="c22_lingual_abfraction" d="M17 16.16s5.61-4.42 12.53-4.42S42 16.16 42 16.16s-5.61 4.42-12.53 4.42S17 16.16 17 16.16z" class="c22-cls-15" data-color-action="fill" style="fill:inherit" data-name="lingual abfraction"/><g id="c22_internal_root_resorption" data-name="internal root resorption"><path d="M28 61.75h3v3h-3z" class="c22-cls-7" transform="rotate(-180 29.5 63.25)"/><path d="M28 61.75h3v3h-3z" class="c22-cls-7" transform="rotate(-180 29.5 63.25)"/><path d="M28 61.75h3v3h-3z" class="c22-cls-7" transform="rotate(-180 29.5 63.25)"/></g><g id="c22_gortex_membranes" data-name="gortex membranes"><path d="M28 61.75h3v3h-3z" class="c22-cls-7" transform="rotate(-180 29.5 63.25)"/><path d="M28 61.75h3v3h-3z" class="c22-cls-7" transform="rotate(-180 29.5 63.25)"/><path d="M28 61.75h3v3h-3z" class="c22-cls-7" transform="rotate(-180 29.5 63.25)"/></g><g id="c22_frenum_pull" data-name="frenum pull"><path d="M28 61.75h3v3h-3z" class="c22-cls-7" transform="rotate(-180 29.5 63.25)"/><path d="M28 61.75h3v3h-3z" class="c22-cls-7" transform="rotate(-180 29.5 63.25)"/><path d="M28 61.75h3v3h-3z" class="c22-cls-7" transform="rotate(-180 29.5 63.25)"/></g><g id="c22_external_root_resorption" data-name="external root resorption"><path d="M28 61.75h3v3h-3z" class="c22-cls-7" transform="rotate(-180 29.5 63.25)"/><path d="M28 61.75h3v3h-3z" class="c22-cls-7" transform="rotate(-180 29.5 63.25)"/><path d="M28 61.75h3v3h-3z" class="c22-cls-7" transform="rotate(-180 29.5 63.25)"/></g><path id="c22_three_quarter_crown" d="M13.21 36.29h31.93c1 5.24 2 11.29 1.48 12.14-.9 1.41-15.11 9.35-17.93 9.73s-15.37-6-16.14-7 0-9.35.51-13.7c.04-.37.09-.75.15-1.17z" class="c22-cls-8 c22-cls-19" data-color-action="fill" style="fill:inherit" data-name="three quarter crown"/><path id="c22_crown" d="M17.93 18.34c-2.14 2.51-4.35 14.73-4.87 19.08s-1.28 12.68-.51 13.7 13.32 7.43 16.14 7 17-8.32 17.93-9.73-2.43-17-3.07-19.72S41 19 39.45 18s-17.8-4-21.52.34z" class="c22-cls-8 c22-cls-19" data-color-action="fill" style="fill:inherit"/><path id="c22_cracked_surface_mesial" d="M16.66 45.19l-3.83-3.84h5l-5-4.74h5l-3.82-3.83" class="c22-cls-20" data-color-action="stroke" style="stroke:inherit" data-name="cracked surface mesial"/><path id="c22_cracked_surface_lingual" d="M29.83 45.19L26 41.35h5l-5-4.74h5l-3.83-3.83" class="c22-cls-20" data-color-action="stroke" style="stroke:inherit" data-name="cracked surface lingual"/><path id="c22_cracked_surface_lingual_V" d="M29.83 45.19L26 41.35h5l-5-4.74h5l-3.83-3.83" class="c22-cls-20" data-color-action="stroke" style="stroke:inherit" data-name="cracked surface lingual V"/><path id="c22_cracked_surface_distal" d="M44.66 45.19l-3.83-3.84h5l-5-4.74h5L42 32.78" class="c22-cls-20" data-color-action="stroke" style="stroke:inherit" data-name="cracked surface distal"/><g id="c22_chipped_surface_mesial" class="c22-cls-8" data-name="chipped surface mesial"><path d="M20.17 43.51l-8.34-8.33M11.83 43.51l8.34-8.33" class="c22-cls-21" data-color-action="stroke" style="stroke:inherit"/></g><g id="c22_chipped_surface_lingual" class="c22-cls-8" data-name="chipped surface lingual"><path d="M32.33 43.51L24 35.18M24 43.51l8.33-8.33" class="c22-cls-21" data-color-action="stroke" style="stroke:inherit"/></g><g id="c22_chipped_surface_lingual_V" class="c22-cls-8" data-name="chipped surface lingual V"><path d="M32.33 43.51L24 35.18M24 43.51l8.33-8.33" class="c22-cls-21" data-color-action="stroke" style="stroke:inherit"/></g><g id="c22_chipped_surface_distal" class="c22-cls-8" data-name="chipped surface distal"><path d="M46.33 43.51L38 35.18M38 43.51l8.33-8.33" class="c22-cls-21" data-color-action="stroke" style="stroke:inherit"/></g><g id="c22_buccal_abfraction" data-name="buccal abfraction"><path d="M28 61.75h3v3h-3z" class="c22-cls-7" transform="rotate(-180 29.5 63.25)"/><path d="M28 61.75h3v3h-3z" class="c22-cls-7" transform="rotate(-180 29.5 63.25)"/><path d="M28 61.75h3v3h-3z" class="c22-cls-7" transform="rotate(-180 29.5 63.25)"/></g><g id="c22_braces"><path d="M28 61.75h3v3h-3z" class="c22-cls-7" transform="rotate(-180 29.5 63.25)"/><path d="M28 61.75h3v3h-3z" class="c22-cls-7" transform="rotate(-180 29.5 63.25)"/><path d="M28 61.75h3v3h-3z" class="c22-cls-7" transform="rotate(-180 29.5 63.25)"/></g><g id="c22_apicoectomy"><path d="M28 61.75h3v3h-3z" class="c22-cls-7" transform="rotate(-180 29.5 63.25)"/><path d="M28 61.75h3v3h-3z" class="c22-cls-7" transform="rotate(-180 29.5 63.25)"/><path d="M28 61.75h3v3h-3z" class="c22-cls-7" transform="rotate(-180 29.5 63.25)"/></g><g id="c22_abscess"><path d="M28 61.75h3v3h-3z" class="c22-cls-7" transform="rotate(-180 29.5 63.25)"/><path d="M28 61.75h3v3h-3z" class="c22-cls-7" transform="rotate(-180 29.5 63.25)"/><path d="M28 61.75h3v3h-3z" class="c22-cls-7" transform="rotate(-180 29.5 63.25)"/></g><g id="c22_blunted_roots" data-name="blunted roots"><path d="M28 61.75h3v3h-3z" class="c22-cls-7" transform="rotate(-180 29.5 63.25)"/><path d="M28 61.75h3v3h-3z" class="c22-cls-7" transform="rotate(-180 29.5 63.25)"/><path d="M28 61.75h3v3h-3z" class="c22-cls-7" transform="rotate(-180 29.5 63.25)"/></g><g id="c22_root_amputation" data-name="root amputation"><path d="M28 61.75h3v3h-3z" class="c22-cls-7" transform="rotate(-180 29.5 63.25)"/><path d="M28 61.75h3v3h-3z" class="c22-cls-7" transform="rotate(-180 29.5 63.25)"/><path d="M28 61.75h3v3h-3z" class="c22-cls-7" transform="rotate(-180 29.5 63.25)"/></g><g id="c22_missing_crown" data-name="missing crown"><path d="M28 61.75h3v3h-3z" class="c22-cls-7" transform="rotate(-180 29.5 63.25)"/><path d="M28 61.75h3v3h-3z" class="c22-cls-7" transform="rotate(-180 29.5 63.25)"/><path d="M28 61.75h3v3h-3z" class="c22-cls-7" transform="rotate(-180 29.5 63.25)"/><path d="M2 2h55v61.98H2z" class="c22-cls-13" transform="rotate(-180 29.5 32.99)"/></g><g id="c22_missing_tooth" data-name="missing tooth"><path d="M17.93 18.34c-2.14 2.51-4.35 14.73-4.87 19.08s-1.28 12.68-.51 13.7 13.32 7.43 16.14 7 17-8.32 17.93-9.73-2.43-17-3.07-19.72S41 19 39.45 18s-17.8-4-21.52.34z" class="c22-cls-2"/><path d="M17.93 18.34c-2.14 2.51-4.35 14.73-4.87 19.08s-1.28 12.68-.51 13.7 13.32 7.43 16.14 7 17-8.32 17.93-9.73-2.43-17-3.07-19.72S41 19 39.45 18s-17.8-4-21.52.34z" class="c22-cls-13"/><path d="M21.32 19.66a108.42 108.42 0 0 1 13.4.36c1.87.29 5.22.81 7.25 3.1-.78-2.38-1.7-4.62-2.52-5.16-1.54-1-17.8-4-21.52.38a16 16 0 0 0-2.11 5.12c1.6-1.82 3.7-3.68 5.5-3.8zM12.55 51.13c.77 1 13.32 7.43 16.14 7s17-8.32 17.93-9.73c.31-.48.12-2.64-.29-5.38a10.35 10.35 0 0 1-2.55 4c-2 1.63-14.31 8-16.3 8s-9.06-2.72-12.13-4.53a8.1 8.1 0 0 1-3.08-3.36c-.08 1.99-.03 3.59.28 4z" class="c22-cls-13"/></g><g id="c22_maryland_bridge_pontic" class="c22-cls-8" data-name="maryland bridge pontic"><path d="M17.93 18.34c-2.14 2.51-4.35 14.73-4.87 19.08s-1.28 12.68-.51 13.7 13.32 7.43 16.14 7 17-8.32 17.93-9.73-2.43-17-3.07-19.72S41 19 39.45 18s-17.8-4-21.52.34z" class="c22-cls-14" data-color-action="fill" style="fill:inherit"/><path d="M2 31.37h55v7.67H2z" class="c22-cls-14" transform="rotate(-180 29.5 35.205)" data-color-action="fill" style="fill:inherit"/></g><g id="c22_maryland_bridge_abutment_mesial" class="c22-cls-8" data-name="maryland bridge abutment mesial"><path d="M2 32.17h20.42v7.67H2z" class="c22-cls-14" data-color-action="fill" style="fill:inherit"/><ellipse cx="21.19" cy="36.01" class="c22-cls-14" rx="5.61" ry="12.9" data-color-action="fill" style="fill:inherit"/></g><g id="c22_maryland_bridge_abutment_distal" class="c22-cls-8" data-name="maryland bridge abutment distal"><path d="M36.58 32.17H57v7.67H36.58z" class="c22-cls-14" data-color-action="fill" style="fill:inherit"/><ellipse cx="37.81" cy="36.01" class="c22-cls-14" rx="5.61" ry="12.9" data-color-action="fill" style="fill:inherit"/></g><g id="c22_maryland_bridge_abutment" class="c22-cls-8" data-name="maryland bridge abutment"><path d="M2 32.17h20.42v7.67H2zM36.58 32.17H57v7.67H36.58z" class="c22-cls-14" data-color-action="fill" style="fill:inherit"/><ellipse cx="37.81" cy="36.01" class="c22-cls-14" rx="5.61" ry="12.9" data-color-action="fill" style="fill:inherit"/><ellipse cx="21.19" cy="36.01" class="c22-cls-14" rx="5.61" ry="12.9" data-color-action="fill" style="fill:inherit"/></g><g id="c22_bridge_abutment_mesial" class="c22-cls-8" data-name="bridge abutment mesial"><path d="M17.93 18.34c-2.14 2.51-4.35 14.73-4.87 19.08s-1.28 12.68-.51 13.7 13.32 7.43 16.14 7 17-8.32 17.93-9.73-2.43-17-3.07-19.72S41 19 39.45 18s-17.8-4-21.52.34z" class="c22-cls-11" data-color-action="fill" style="fill:inherit"/><path d="M2 31.6h34.98v7.67H2z" class="c22-cls-11" transform="rotate(-180 19.49 35.43)" data-color-action="fill" style="fill:inherit"/></g><g id="c22_bridge_abutment_distal" class="c22-cls-8" data-name="bridge abutment distal"><path d="M17.93 18.34c-2.14 2.51-4.35 14.73-4.87 19.08s-1.28 12.68-.51 13.7 13.32 7.43 16.14 7 17-8.32 17.93-9.73-2.43-17-3.07-19.72S41 19 39.45 18s-17.8-4-21.52.34z" class="c22-cls-11" data-color-action="fill" style="fill:inherit"/><path d="M22.02 31.6H57v7.67H22.02z" class="c22-cls-11" transform="rotate(-180 39.51 35.43)" data-color-action="fill" style="fill:inherit"/></g><g id="c22_bridge_abutment" class="c22-cls-8" data-name="bridge abutment"><path d="M17.93 18.34c-2.14 2.51-4.35 14.73-4.87 19.08s-1.28 12.68-.51 13.7 13.32 7.43 16.14 7 17-8.32 17.93-9.73-2.43-17-3.07-19.72S41 19 39.45 18s-17.8-4-21.52.34z" class="c22-cls-11" data-color-action="fill" style="fill:inherit"/><path d="M2 31.6h55v7.67H2z" class="c22-cls-11" transform="rotate(-180 29.5 35.43)" data-color-action="fill" style="fill:inherit"/></g><g id="c22_bridge_pontic" class="c22-cls-8" data-name="bridge pontic"><path d="M17.93 18.34c-2.14 2.51-4.35 14.73-4.87 19.08s-1.28 12.68-.51 13.7 13.32 7.43 16.14 7 17-8.32 17.93-9.73-2.43-17-3.07-19.72S41 19 39.45 18s-17.8-4-21.52.34z" class="c22-cls-11" data-color-action="fill" style="fill:inherit"/><path d="M2 31.6h55v7.67H2z" class="c22-cls-11" transform="rotate(-180 29.5 35.43)" data-color-action="fill" style="fill:inherit"/></g><g id="c22_implant_mini" data-name="implant mini"><path d="M2 2h55v61.98H2z" class="c22-cls-13" transform="rotate(-180 29.5 32.99)"/><path d="M29.28 0h.44l1 8.5v40.83h-2.44V8.5l1-8.5z" class="c22-cls-11" data-color-action="fill" style="fill:inherit"/><path d="M29.58 0h.07l.4 8.5v40.83h-.37V8.5l-.1-8.5z" class="c22-cls-16"/><path d="M28.28 48.7h2.44v.63h-2.44z" class="c22-cls-17" transform="rotate(-180 29.5 49.015)" data-color-action="fill" style="fill:inherit"/><g class="c22-cls-18"><path d="M30.72 48.7l-2.44-1v.63l2.44 1v-.63zM30.72 47.26l-2.44-1v.63l2.44 1v-.63zM30.72 45.81l-2.44-1v.63l2.44 1v-.63zM30.72 44.36l-2.44-1V44l2.44 1v-.64zM30.72 42.92l-2.44-1v.63l2.44 1v-.63zM30.72 41.47l-2.44-1v.63l2.44 1.01v-.64zM30.72 40.03l-2.44-1v.63l2.44 1v-.63zM30.72 38.58l-2.44-1v.63l2.44 1.01v-.64zM30.72 37.14l-2.44-1v.63l2.44 1v-.63zM30.72 35.69l-2.44-1v.63l2.44 1v-.63zM30.72 34.25l-2.44-1.01v.64l2.44 1v-.63zM30.72 32.8l-2.44-1v.63l2.44 1v-.63zM30.72 31.36l-2.44-1v.63l2.44 1v-.63zM30.72 29.91l-2.44-1v.63l2.44 1v-.63zM30.72 28.46l-2.44-1v.64l2.44 1v-.64zM30.72 27.02l-2.44-1v.63l2.44 1v-.63zM30.72 25.57l-2.44-1v.63l2.44 1.01v-.64zM30.72 24.13l-2.44-1v.63l2.44 1v-.63zM30.72 22.68l-2.44-1v.63l2.44 1.01v-.64zM30.72 21.24l-2.44-1v.63l2.44 1v-.63zM30.72 19.79l-2.44-1v.63l2.44 1v-.63zM30.72 18.35l-2.44-1.01v.64l2.44 1v-.63zM30.72 16.9l-2.44-1v.63l2.44 1v-.63zM30.72 15.46l-2.44-1v.63l2.44 1v-.63zM30.72 14.01l-2.44-1v.63l2.44 1v-.63zM30.72 12.56l-2.44-1v.64l2.44 1v-.64zM30.72 11.12l-2.44-1v.63l2.44 1v-.63zM30.72 9.67l-2.44-1v.63l2.44 1.01v-.64zM30.72 8.5l-.03-.29-2.27-.92-.07.6 2.37.97V8.5zM30.51 6.7l-1.93-.79-.07.6 2.08.85-.08-.66zM30.33 5.18l-1.58-.65-.08.6 1.74.71-.08-.66zM30.15 3.66l-1.24-.51-.07.6 1.39.57-.08-.66zM29.97 2.14l-.9-.37-.07.6 1.05.43-.08-.66zM29.8.62l-.57-.23-.07.6.71.3-.07-.67z" class="c22-cls-17" data-color-action="fill" style="fill:inherit"/></g><circle cx="29.5" cy="53.21" r="2.24" class="c22-cls-11" data-color-action="fill" style="fill:inherit"/><path d="M27.67 48.99h3.67v3h-3.67z" class="c22-cls-11" transform="rotate(-180 29.5 50.49)" data-color-action="fill" style="fill:inherit"/><path d="M29.96 48.99h.55v3h-.55z" class="c22-cls-16"/><path d="M30.3 54.56h.21a2.32 2.32 0 0 0 .49-1.28 2.37 2.37 0 0 0-.52-1.3H30a2 2 0 0 1 .73 1.37 1.5 1.5 0 0 1-.43 1.21z" class="c22-cls-16"/><path d="M28.28 42.63h2.44v.63h-2.44z" class="c22-cls-17" transform="rotate(-180 29.5 42.95)" data-color-action="fill" style="fill:inherit"/><path d="M26.89 49.01h5.22l-.87-5.71h-3.48l-.87 5.71z" class="c22-cls-11" data-color-action="fill" style="fill:inherit"/><path d="M30.15 49.01h.79l-.48-5.71h-.53l.22 5.71z" class="c22-cls-16"/></g><g id="c22_implant_cylinder" data-name="implant cylinder"><path d="M2 2h55v61.98H2z" class="c22-cls-13" transform="rotate(-180 29.5 32.99)"/><path d="M26.17 3h6.67v49.33h-6.67z" class="c22-cls-11" transform="rotate(-180 29.5 27.665)" data-color-action="fill" style="fill:inherit"/><path d="M24.5 0h10v3h-10z" class="c22-cls-11" transform="rotate(-180 29.5 1.5)" data-color-action="fill" style="fill:inherit"/><path d="M30 3h1v49.33h-1z" class="c22-cls-16" transform="rotate(-180 30.5 27.665)"/><path d="M30.75 0h1.5v3h-1.5z" class="c22-cls-16" transform="rotate(-180 31.5 1.5)"/><path d="M24.5 52.36h10v3h-10z" class="c22-cls-11" transform="rotate(-180 29.5 53.86)" data-color-action="fill" style="fill:inherit"/><path d="M30.75 52.36h1.5v3h-1.5z" class="c22-cls-16" transform="rotate(-180 31.5 53.86)"/><path d="M26.17 3h6.67v.63h-6.67z" class="c22-cls-17" transform="rotate(-180 29.5 3.315)" data-color-action="fill" style="fill:inherit"/><path d="M26.17 51.7h6.67v.63h-6.67z" class="c22-cls-17" transform="rotate(-180 29.5 52.015)" data-color-action="fill" style="fill:inherit"/><g class="c22-cls-18"><path d="M26.17 50.7l6.66 1v.63l-6.66-1v-.63zM26.17 49.25l6.66 1v.63l-6.66-1v-.63zM26.17 47.81l6.66 1v.63l-6.66-1v-.63zM26.17 46.36l6.66 1v.63l-6.66-1v-.63zM26.17 44.92l6.66 1v.63l-6.66-1v-.63zM26.17 43.47l6.66 1v.63l-6.66-1v-.63zM26.17 42.02l6.66 1v.64l-6.66-1v-.64zM26.17 40.58l6.66 1v.63l-6.66-1v-.63zM26.17 39.13l6.66 1v.64l-6.66-1v-.64zM26.17 37.69l6.66 1v.63l-6.66-1v-.63zM26.17 36.24l6.66 1v.64l-6.66-1v-.64zM26.17 34.8l6.66 1v.63l-6.66-1v-.63zM26.17 33.35l6.66 1v.63l-6.66-1v-.63zM26.17 31.91l6.66 1v.63l-6.66-1v-.63zM26.17 30.46l6.66 1v.63l-6.66-1v-.63zM26.17 29.02l6.66 1v.63l-6.66-1v-.63zM26.17 27.57l6.66 1v.63l-6.66-1v-.63zM26.17 26.13l6.66 1v.63l-6.66-1v-.63zM26.17 24.68l6.66 1v.63l-6.66-1v-.63zM26.17 23.23l6.66 1v.64l-6.66-1v-.64zM26.17 21.79l6.66 1v.63l-6.66-1v-.63zM26.17 20.34l6.66 1v.64l-6.66-1v-.64zM26.17 18.9l6.66 1v.63l-6.66-1v-.63zM26.17 17.45l6.66 1v.64l-6.66-1.01v-.63zM26.17 16.01l6.66 1v.63l-6.66-1v-.63zM26.17 14.56l6.66 1v.63l-6.66-1v-.63zM26.17 13.12l6.66 1v.63l-6.66-1v-.63zM26.17 11.67l6.66 1v.63l-6.66-1v-.63zM26.17 10.22l6.66 1v.64l-6.66-1v-.64zM26.17 8.78l6.66 1v.63l-6.66-1v-.63zM26.17 7.33l6.66 1.01v.63l-6.66-1v-.64zM26.17 5.89l6.66 1v.63l-6.66-1v-.63zM26.17 4.44l6.66 1v.64l-6.66-1v-.64zM26.17 3l6.66 1v.63l-6.66-1V3z" class="c22-cls-17" data-color-action="fill" style="fill:inherit"/></g></g><g id="c22_implant_blade" data-name="implant blade"><path d="M2 2h55v61.98H2z" class="c22-cls-13" transform="rotate(-180 29.5 32.99)"/><path d="M26.17 3.03h6.67v49.33h-6.67z" class="c22-cls-11" transform="rotate(-180 29.5 27.69)" data-color-action="fill" style="fill:inherit"/><path d="M24.5 52.36h10v3h-10z" class="c22-cls-11" transform="rotate(-180 29.5 53.86)" data-color-action="fill" style="fill:inherit"/><path d="M30 3.03h1v49.33h-1z" class="c22-cls-16" transform="rotate(-180 30.5 27.69)"/><path d="M30.75 52.36h1.5v3h-1.5z" class="c22-cls-16" transform="rotate(-180 31.5 53.86)"/><path d="M26.17 51.73h6.67v.63h-6.67z" class="c22-cls-17" transform="rotate(-180 29.5 52.045)" data-color-action="fill" style="fill:inherit"/></g><path id="c22_border" d="M0 0h59v66H0z" class="c22-cls-7" transform="rotate(-180 29.5 33)"/></defs></g></svg>