<svg xmlns="http://www.w3.org/2000/svg" viewBox="0 0 59 283"><defs><style>.a24-cls-1{isolation:isolate}.a24-cls-2{font-size:15px;fill:#929497;font-family:ProximaNova-Semibold,Proxima Nova,sans-serif;font-weight:700;stroke:none}.a24-cls-25,.a24-cls-3{fill:#c5c7c9;stroke:none}.a24-cls-3{stroke:#c5c7c9;stroke-width:5px}.a24-cls-19,.a24-cls-22,.a24-cls-24,.a24-cls-26,.a24-cls-27,.a24-cls-3,.a24-cls-30,.a24-cls-32,.a24-cls-33{stroke-miterlimit:10}.a24-cls-4,.a24-cls-5{fill:#f5d7cf;stroke:none}.a24-cls-5{fill:#f2c6bc}.a24-cls-6,.a24-cls-7{fill:#fae8e3;stroke:none}.a24-cls-7{fill:#eeefef}.a24-cls-8,.a24-cls-9{fill:#e2e3e4;stroke:none}.a24-cls-9{fill:#fbfbfb}.a24-cls-10,.a24-cls-28,.a24-cls-36{fill:#3c3d3d;stroke:none}.a24-cls-10{opacity:.55}.a24-cls-11{fill:#ffd403;stroke:none}.a24-cls-13,.a24-cls-21{fill:#ffef3e;stroke:none}.a24-cls-14,.a24-cls-20{fill:#c52636;stroke:none}.a24-cls-15{fill:none;stroke:none}.a24-cls-19,.a24-cls-22,.a24-cls-24,.a24-cls-26,.a24-cls-27,.a24-cls-30,.a24-cls-32,.a24-cls-33{fill:none}.a24-cls-16,.a24-cls-37{fill:#28418b;stroke:none}.a24-cls-17,.a24-cls-18{fill:#787878;stroke:none}.a24-cls-19,.a24-cls-22,.a24-cls-24,.a24-cls-30,.a24-cls-32,.a24-cls-33{stroke:#c52636}.a24-cls-19,.a24-cls-22,.a24-cls-27{stroke-width:2px}.a24-cls-22{stroke-linecap:round}.a24-cls-23{fill:#fff;stroke:none}.a24-cls-26,.a24-cls-27{stroke:#28418b}.a24-cls-26{stroke-width:3px}.a24-cls-29{opacity:.6}.a24-cls-30{stroke-width:4px}.a24-cls-31{fill:#f05b85;stroke:none}.a24-cls-32,.a24-cls-33{stroke-width:1.25px}.a24-cls-34{fill:#9b9999;stroke:none}.a24-cls-35{fill:#dbdbdc;stroke:none}.a24-cls-38{font-size:33px;fill:#28418b;font-family:ProximaNova-Semibold,Proxima Nova,sans-serif;font-weight:700;stroke:none}.c24-cls-1{isolation:isolate}.c24-cls-16,.c24-cls-2{fill:#c5c7c9;stroke:none}.c24-cls-2{stroke:#c5c7c9;stroke-width:5px}.c24-cls-2,.c24-cls-20,.c24-cls-21{stroke-miterlimit:10}.c24-cls-3{fill:#eeefef;stroke:none}.c24-cls-4,.c24-cls-5{fill:#e2e3e4;stroke:none}.c24-cls-5{fill:#fbfbfb}.c24-cls-17,.c24-cls-6{fill:#3c3d3d;stroke:none}.c24-cls-6{opacity:.55}.c24-cls-20,.c24-cls-21{fill:none}.c24-cls-7,.c24-cls-9{fill:none;stroke:none}.c24-cls-9{fill:#28418b}.c24-cls-10,.c24-cls-11{fill:#787878;stroke:none}.c24-cls-12,.c24-cls-19{fill:#ffef3e;stroke:none}.c24-cls-13{fill:#fff;stroke:none}.c24-cls-14,.c24-cls-15{fill:#c52636;stroke:none}.c24-cls-18{opacity:.6}.c24-cls-20,.c24-cls-21{stroke:#c52636;stroke-width:1.25px}.a24-msng-cls-1{isolation:isolate}.a24-msng-cls-2{font-size:15px;fill:#929497;font-family:ProximaNova-Semibold,Proxima Nova;font-weight:700;stroke:none}.a24-msng-cls-3{fill:#c5c7c9;stroke:#c5c7c9;stroke-width:5px}.a24-msng-cls-11,.a24-msng-cls-3{stroke-miterlimit:10}.a24-msng-cls-4{fill:#f5d7cf;stroke:none}.a24-msng-cls-5{fill:#f2c6bc;stroke:none}.a24-msng-cls-6{fill:#fae8e3;stroke:none}.a24-msng-cls-7{fill:#eeefef;stroke:none}.a24-msng-cls-8{fill:#e2e3e4;stroke:none}.a24-msng-cls-9{fill:#fbfbfb;stroke:none}.a24-msng-cls-11{fill:none}.a24-msng-cls-12{fill:none;stroke:none}.a24-msng-cls-11{stroke:#787878;stroke-width:6.25px}</style></defs><g class="a24-cls-1" transform="translate(0 122)"><g id="_24A" data-name="#24A"><text class="a24-cls-2" transform="translate(21.16 150.74)">74</text><path d="M17.77 10.72c-2 1.66-3.59 24.21 1 31.34a3.37 3.37 0 0 0 .67.75c0 5.56 1.74 27.21 4.47 40.71 3 14.67 9.64 22.88 10.85 22.31 2.34-1.11-.19-9.84.49-25.89.48-11.37 4-33.88 4.41-36.47a2.37 2.37 0 0 0 .33-.22c4.41-3.6 4-26 .8-29.64S19.38 9.4 17.77 10.72z" class="a24-cls-3"/><path d="M19.45 41.73c-.29 2.82 1.48 27.12 4.44 41.79s9.64 22.88 10.85 22.31c2.34-1.11-.19-9.84.49-25.89.49-11.59 4.11-34.78 4.44-36.61 1.1-6.33-19.36-9.98-20.22-1.6z" class="a24-cls-4"/><path d="M21.37 47.62c-.13-3 .18-6.46-.54-8.69a4.38 4.38 0 0 0-1.38 2.8c-.29 2.82 1.48 27.12 4.44 41.79a58.84 58.84 0 0 0 5.19 15.24A57.88 57.88 0 0 1 25 84.18c-.95-7.7-3.45-32.26-3.63-36.56zM35.23 79.94c.49-11.59 4.11-34.78 4.44-36.61a3 3 0 0 0-.54-2.25 5.12 5.12 0 0 0-1.27 2.24c-.72 3-1.61 11.29-2.69 20.08a151.47 151.47 0 0 0-.9 24.2 39.33 39.33 0 0 0 1.06 6.14c-.2-3.74-.33-8.35-.1-13.8z" class="a24-cls-5"/><path d="M31.57 45c.17 3-.78 15.07-1.42 21.47-.72 7.17-.72 17.93.84 26 .83 4.33 2.1 9.67 2.84 9.38s-1.46-10.27-1.53-14.8c-.36-22 3.13-40 3.13-42s-4.06-3.62-3.86-.05z" class="a24-cls-6"/><path d="M18.74 42.05c-4.57-7.13-3-29.67-1-31.34 1.62-1.31 19.8-.71 23 2.9s3.6 26-.8 29.64c-2.39 1.99-18.43 3.12-21.2-1.2z" class="a24-cls-7"/><path d="M19.94 10.22a5.14 5.14 0 0 0-2.17.5c-2 1.66-3.59 24.21 1 31.34a4.91 4.91 0 0 0 2.34 1.71c-2.75-7.57-2.31-26.91-1.17-33.55zM40.77 13.62a6.18 6.18 0 0 0-2.34-1.42c1.9 5.35 2.18 25-.1 31.79a5 5 0 0 0 1.67-.73c4.38-3.61 4-26.04.77-29.64z" class="a24-cls-8"/><path d="M31.78 27.58c.14 4.14 0 13.87-.21 17.39 1.13-.05 2.22-.15 3.22-.28a116.7 116.7 0 0 0 .75-16c-.28-4.86-.79-13.95-1-17.61-1.19-.24-2.46-.43-3.76-.58.33 3.94.85 12.81 1 17.08z" class="a24-cls-9"/></g><defs><g id="a74_bone_graft" data-name="bone graft"><path d="M2 43.25h55v94.44H2z" class="a24-cls-16" transform="rotate(-180 29.5 90.47)" data-color-action="fill" style="fill:inherit"/><path d="M17.77 10.72c-2 1.66-3.59 24.21 1 31.34a3.37 3.37 0 0 0 .67.75c0 5.56 1.74 27.21 4.47 40.71 3 14.67 9.64 22.88 10.85 22.31 2.34-1.11-.19-9.84.49-25.89.48-11.37 4-33.88 4.41-36.47a2.37 2.37 0 0 0 .33-.22c4.41-3.6 4-26 .8-29.64S19.38 9.4 17.77 10.72z" class="a24-cls-3"/><path d="M19.45 41.73c-.29 2.82 1.48 27.12 4.44 41.79s9.64 22.88 10.85 22.31c2.34-1.11-.19-9.84.49-25.89.49-11.59 4.11-34.78 4.44-36.61 1.1-6.33-19.36-9.98-20.22-1.6z" class="a24-cls-4"/><path d="M21.37 47.62c-.13-3 .18-6.46-.54-8.69a4.38 4.38 0 0 0-1.38 2.8c-.29 2.82 1.48 27.12 4.44 41.79a58.84 58.84 0 0 0 5.19 15.24A57.88 57.88 0 0 1 25 84.18c-.95-7.7-3.45-32.26-3.63-36.56zM35.23 79.94c.49-11.59 4.11-34.78 4.44-36.61a3 3 0 0 0-.54-2.25 5.12 5.12 0 0 0-1.27 2.24c-.72 3-1.61 11.29-2.69 20.08a151.47 151.47 0 0 0-.9 24.2 39.33 39.33 0 0 0 1.06 6.14c-.2-3.74-.33-8.35-.1-13.8z" class="a24-cls-5"/><path d="M31.57 45c.17 3-.78 15.07-1.42 21.47-.72 7.17-.72 17.93.84 26 .83 4.33 2.1 9.67 2.84 9.38s-1.46-10.27-1.53-14.8c-.36-22 3.13-40 3.13-42s-4.06-3.62-3.86-.05z" class="a24-cls-6"/><path d="M18.74 42.05c-4.57-7.13-3-29.67-1-31.34 1.62-1.31 19.8-.71 23 2.9s3.6 26-.8 29.64c-2.39 1.99-18.43 3.12-21.2-1.2z" class="a24-cls-7"/><path d="M19.94 10.22a5.14 5.14 0 0 0-2.17.5c-2 1.66-3.59 24.21 1 31.34a4.91 4.91 0 0 0 2.34 1.71c-2.75-7.57-2.31-26.91-1.17-33.55zM40.77 13.62a6.18 6.18 0 0 0-2.34-1.42c1.9 5.35 2.18 25-.1 31.79a5 5 0 0 0 1.67-.73c4.38-3.61 4-26.04.77-29.64z" class="a24-cls-8"/><path d="M31.78 27.58c.14 4.14 0 13.87-.21 17.39 1.13-.05 2.22-.15 3.22-.28a116.7 116.7 0 0 0 .75-16c-.28-4.86-.79-13.95-1-17.61-1.19-.24-2.46-.43-3.76-.58.33 3.94.85 12.81 1 17.08z" class="a24-cls-9"/></g><g id="a74_splinted_crowns" data-name="splinted crowns"><path d="M2 41.68h55v7.67H2z" class="a24-cls-21" transform="rotate(-180 29.5 45.51)" data-color-action="fill" style="fill:inherit"/><path d="M17.77 10.72c-2 1.66-3.59 24.21 1 31.34a3.37 3.37 0 0 0 .67.75c0 5.56 1.74 27.21 4.47 40.71 3 14.67 9.64 22.88 10.85 22.31 2.34-1.11-.19-9.84.49-25.89.48-11.37 4-33.88 4.41-36.47a2.37 2.37 0 0 0 .33-.22c4.41-3.6 4-26 .8-29.64S19.38 9.4 17.77 10.72z" class="a24-cls-3"/><path d="M19.45 41.73c-.29 2.82 1.48 27.12 4.44 41.79s9.64 22.88 10.85 22.31c2.34-1.11-.19-9.84.49-25.89.49-11.59 4.11-34.78 4.44-36.61 1.1-6.33-19.36-9.98-20.22-1.6z" class="a24-cls-4"/><path d="M21.37 47.62c-.13-3 .18-6.46-.54-8.69a4.38 4.38 0 0 0-1.38 2.8c-.29 2.82 1.48 27.12 4.44 41.79a58.84 58.84 0 0 0 5.19 15.24A57.88 57.88 0 0 1 25 84.18c-.95-7.7-3.45-32.26-3.63-36.56zM35.23 79.94c.49-11.59 4.11-34.78 4.44-36.61a3 3 0 0 0-.54-2.25 5.12 5.12 0 0 0-1.27 2.24c-.72 3-1.61 11.29-2.69 20.08a151.47 151.47 0 0 0-.9 24.2 39.33 39.33 0 0 0 1.06 6.14c-.2-3.74-.33-8.35-.1-13.8z" class="a24-cls-5"/><path d="M31.57 45c.17 3-.78 15.07-1.42 21.47-.72 7.17-.72 17.93.84 26 .83 4.33 2.1 9.67 2.84 9.38s-1.46-10.27-1.53-14.8c-.36-22 3.13-40 3.13-42s-4.06-3.62-3.86-.05z" class="a24-cls-6"/><path d="M18.74 42.05c-4.57-7.13-3-29.67-1-31.34 1.62-1.31 19.8-.71 23 2.9s3.6 26-.8 29.64c-2.39 1.99-18.43 3.12-21.2-1.2z" class="a24-cls-7"/><path d="M19.94 10.22a5.14 5.14 0 0 0-2.17.5c-2 1.66-3.59 24.21 1 31.34a4.91 4.91 0 0 0 2.34 1.71c-2.75-7.57-2.31-26.91-1.17-33.55zM40.77 13.62a6.18 6.18 0 0 0-2.34-1.42c1.9 5.35 2.18 25-.1 31.79a5 5 0 0 0 1.67-.73c4.38-3.61 4-26.04.77-29.64z" class="a24-cls-8"/><path d="M31.78 27.58c.14 4.14 0 13.87-.21 17.39 1.13-.05 2.22-.15 3.22-.28a116.7 116.7 0 0 0 .75-16c-.28-4.86-.79-13.95-1-17.61-1.19-.24-2.46-.43-3.76-.58.33 3.94.85 12.81 1 17.08z" class="a24-cls-9"/></g><path id="a74_facial_V_pre_exisiting" d="M38.41 44c-3.67 1.13-11.88 1.61-16.58.07a13.15 13.15 0 0 1 8.34-2.85A13.16 13.16 0 0 1 38.41 44z" class="a24-cls-10" data-color-action="fill" style="fill:inherit" data-name="facial V – pre exisiting"/><ellipse id="a74_mid_facial" cx="29.81" cy="29.15" class="a24-cls-10" rx="4.04" ry="8.29" data-color-action="fill" style="fill:inherit" data-name="mid facial"/><path id="a74_mesial" d="M16.06 18.41l4.68 2.54c-.69 1.8-.31 4.32-.74 6.9-.32 1.94-2.18 2.79-4 3.16a78 78 0 0 1 .06-12.6z" class="a24-cls-10" data-color-action="fill" style="fill:inherit"/><path id="a74_line_angle_2" d="M20.73 20.95a3.41 3.41 0 0 1 2.2-2.1 12.35 12.35 0 0 1 3-.6l-1.59-5.14c-3.76-.09-6.84.11-7.66.56a45 45 0 0 0-.64 4.74z" class="a24-cls-10" data-color-action="fill" style="fill:inherit" data-name="line angle 2"/><path id="a74_facial" d="M24.36 13.11l1.59 5.14a35.51 35.51 0 0 1 8.67.38l1.1-4.38a71.61 71.61 0 0 0-11.36-1.14z" class="a24-cls-10" data-color-action="fill" style="fill:inherit"/><path id="a74_line_angle_1" d="M35.72 14.25l-1.1 4.38c.52.1 1 .2 1.37.31a3.82 3.82 0 0 1 2.3 2.6l4.3-2.5c-.12-.76-.27-1.46-.43-2.11a3.12 3.12 0 0 0-.25-.31c-1.01-1.02-3.33-1.8-6.19-2.37z" class="a24-cls-10" data-color-action="fill" style="fill:inherit" data-name="line angle 1"/><path id="a74_distal" d="M39.42 27.21a25.52 25.52 0 0 0-1.14-5.68l4.3-2.5a60.57 60.57 0 0 1 .57 12c-1.66-.56-3.44-1.65-3.73-3.82z" class="a24-cls-10" data-color-action="fill" style="fill:inherit"/><path id="a74_mesial_incisal" d="M24.36 13.11l-.94-3c-2.9 0-5.14.21-5.66.64a6.2 6.2 0 0 0-1.07 2.95c.83-.48 3.9-.7 7.67-.59z" class="a24-cls-10" data-color-action="fill" style="fill:inherit" data-name="mesial incisal"/><path id="a74_central_incisal" d="M35.72 14.25l.68-2.7a57.25 57.25 0 0 0-13-1.46l.94 3a71.61 71.61 0 0 1 11.38 1.16z" class="a24-cls-10" data-color-action="fill" style="fill:inherit" data-name="central incisal"/><path id="a74_distal_incisal" d="M41.9 16.62a3.12 3.12 0 0 1 .25.31 8.29 8.29 0 0 0-1.38-3.31 9.37 9.37 0 0 0-4.38-2.07l-.68 2.7c2.87.57 5.19 1.35 6.19 2.37z" class="a24-cls-10" data-color-action="fill" style="fill:inherit" data-name="distal incisal"/><path id="a74_veneer" d="M18.74 42.05c-4.57-7.13-3-29.67-1-31.34 1.62-1.31 19.8-.71 23 2.9s3.6 26-.8 29.64c-2.39 1.99-18.43 3.12-21.2-1.2z" class="a24-cls-12 a24-cls-13" data-color-action="fill" style="fill:inherit"/><path id="a74_tissue_graft" d="M12.03 59.34L29.5 45.46l17.47 13.88H12.03z" class="a24-cls-14" data-color-action="fill" style="fill:inherit" data-name="tissue graft"/><path id="a74_tipped_lingual" d="M28 154.75h3v3h-3z" class="a24-cls-15" transform="rotate(-180 29.5 156.25)" data-name="tipped lingual"/><g id="a74_tipped_facial" class="a24-cls-12" data-name="tipped facial"><path d="M33.15 6.5c-1.26-3.37-4.74-3.85-7.69 5.32-.5 1.56-4.42 1.76-3.84 0 2-6.08 5.31-10.2 9.06-9.27a4.86 4.86 0 0 1 3 3.38c-.19.17-.42.42-.53.57z" class="a24-cls-16" data-color-action="fill" style="fill:inherit"/><path d="M31.07 9.42H18.13l2.94 9.64 10-9.64z" class="a24-cls-16" data-color-action="fill" style="fill:inherit"/></g><path id="a74_surface_restoration_mesial" d="M17.77 10.72C16.19 12 14.92 25.67 16.5 35.14a11.52 11.52 0 0 1 6.87 6.46c-.68-8-.69-20.38-.18-24.51h.05l-5.4-6.41z" class="a24-cls-17" data-color-action="fill" style="fill:inherit" data-name="surface restoration mesial"/><path id="a74_surface_restoration_facial" d="M35.85 41.76a11.82 11.82 0 0 1 .42-1.36c.26-8-.12-19.06-.89-21.88a46.56 46.56 0 0 0-12.15-1.44c-.51 4.13-.5 16.49.18 24.51 0 .08.05.17.09.26a15.31 15.31 0 0 1 12.39-.09z" class="a24-cls-12 a24-cls-18" data-color-action="fill" style="fill:inherit" data-name="surface restoration facial"/><path id="a74_surface_restoration_facial_V" d="M35.5 44.59v-.09a11.29 11.29 0 0 1 .35-2.74 15.31 15.31 0 0 0-12.39.09 11.44 11.44 0 0 1 .7 2.75 38.72 38.72 0 0 0 11.34-.01z" class="a24-cls-12 a24-cls-18" data-color-action="fill" style="fill:inherit" data-name="surface restoration facial V"/><path id="a74_surface_restoration_distal" d="M40.4 13.26l-5 5.4c.74 3 1.11 13.87.85 21.74A11.51 11.51 0 0 1 43 33.74c.76-7.85-.14-17.83-2.18-20.13a3.25 3.25 0 0 0-.42-.35z" class="a24-cls-17" data-color-action="fill" style="fill:inherit" data-name="surface restoration distal"/><path id="a74_surface_restoration_incisal" d="M17.84 10.67l5.4 6.41a46.54 46.54 0 0 1 12.13 1.44v.14l5-5.4c-3.96-3.26-20.59-3.8-22.53-2.59z" class="a24-cls-17" data-color-action="fill" style="fill:inherit" data-name="surface restoration incisal"/><g id="a74_supra-erupted" class="a24-cls-12"><path d="M29.5 52.12v7.68" class="a24-cls-19" data-color-action="stroke" style="stroke:inherit"/><path d="M25.51 53.29l3.99-6.91 3.99 6.91h-7.98z" class="a24-cls-20" data-color-action="fill" style="fill:inherit"/></g><g id="a74_sub-erupted" class="a24-cls-12"><path d="M29.5 54.05v-7.67" class="a24-cls-19" data-color-action="stroke" style="stroke:inherit"/><path d="M33.49 52.89L29.5 59.8l-3.99-6.91h7.98z" class="a24-cls-20" data-color-action="fill" style="fill:inherit"/></g><text id="a74_sealant" class="a24-cls-38" transform="translate(19.7 -18.45)" data-color-action="fill" style="fill:inherit">S</text><g id="a74_rotated_mesial" class="a24-cls-12" data-name="rotated mesial"><path d="M53.13 32.82c3-1.79 2.3-5.46-10.23-5.81-5.3-.15-8.95 0-8.95 0L34 24s1-.07 8.22.24c7.62.32 14 1.83 13.75 6a4 4 0 0 1-2.31 2.92c-.15-.16-.4-.27-.53-.34z" class="a24-cls-16" data-color-action="fill" style="fill:inherit"/><path d="M40.43 31.53V19.64l-10.4 5.9 10.4 5.99z" class="a24-cls-16" data-color-action="fill" style="fill:inherit"/></g><g id="a74_rotated_distal" class="a24-cls-12" data-name="rotated distal"><path d="M5.87 32.82C2.88 31 3.56 27.36 16.1 27c5.3-.15 8.95 0 8.95 0L25 24s-1-.07-8.22.24c-7.62.32-14 1.83-13.75 6a4 4 0 0 0 2.31 2.92c.15-.16.4-.27.53-.34z" class="a24-cls-16" data-color-action="fill" style="fill:inherit"/><path d="M18.57 31.53V19.64l10.4 5.9-10.4 5.99z" class="a24-cls-16" data-color-action="fill" style="fill:inherit"/></g><circle id="a74_root_decay" cx="29.92" cy="85.92" r="4.33" class="a24-cls-12 a24-cls-18" data-color-action="fill" style="fill:inherit" data-name="root decay"/><path id="a74_root_canal" d="M32.5 100l-3.62-52.87" class="a24-cls-22" data-color-action="stroke" style="stroke:inherit" data-name="root canal"/><path id="a74_root_abrasion" d="M28.67 79.88h3.5v13.83h-3.5z" class="a24-cls-12 a24-cls-24" transform="rotate(-180 30.415 86.8)" data-color-action="stroke" style="stroke:inherit" data-name="root abrasion"/><g id="a74_post"><path d="M28.35 27.84h3.14v41.77h-3.14z" class="a24-cls-18" transform="rotate(-180 29.925 48.72)" data-color-action="fill" style="fill:inherit"/><path d="M30.16 27.84h.47v41.77h-.47z" class="a24-cls-25" transform="rotate(-180 30.4 48.72)"/></g><g id="a74_pins"><path d="M31.26 33.84h2.42v23.43h-2.42z" class="a24-cls-18" transform="rotate(-180 32.465 45.555)" data-color-action="fill" style="fill:inherit"/><path d="M32.65 33.84h.36v23.43h-.36z" class="a24-cls-25" transform="rotate(-180 32.83 45.555)"/><path d="M26.68 33.84h2.42v23.43h-2.42z" class="a24-cls-18" transform="rotate(-180 27.885 45.555)" data-color-action="fill" style="fill:inherit"/><path d="M28.07 33.84h.36v23.43h-.36z" class="a24-cls-25" transform="rotate(-180 28.25 45.555)"/></g><path id="a74_open_contact_mesial" d="M27.31 51l-7.5-4.75-7.5 4.75" class="a24-cls-26" data-color-action="stroke" style="stroke:inherit" data-name="open contact mesial"/><path id="a74_open_contact_distal" d="M46.33 51l-7.5-4.75-7.5 4.75" class="a24-cls-26" data-color-action="stroke" style="stroke:inherit" data-name="open contact distal"/><g id="a74_mesial_drift" class="a24-cls-12" data-name="mesial drift"><path d="M26.41 27.84h11.92" class="a24-cls-27" data-color-action="stroke" style="stroke:inherit"/><path d="M27.57 31.82l-6.9-3.98 6.9-3.99v7.97z" class="a24-cls-16" data-color-action="fill" style="fill:inherit"/></g><path id="a74_lingual_abfraction" d="M28 154.75h3v3h-3z" class="a24-cls-15" transform="rotate(-180 29.5 156.25)" data-name="lingual abfraction"/><ellipse id="a74_internal_root_resorption" cx="30.34" cy="85.99" class="a24-cls-12 a24-cls-20" rx="3.38" ry="8.36" transform="rotate(-3.19 30.31 86.023)" data-color-action="fill" style="fill:inherit" data-name="internal root resorption"/><g id="a74_impacted_mesial" class="a24-cls-12" data-name="impacted mesial"><ellipse cx="29.49" cy="57.7" class="a24-cls-27" rx="24.15" ry="56.3" data-color-action="stroke" style="stroke:inherit"/><path d="M40.89 57.7h12.76" class="a24-cls-27" data-color-action="stroke" style="stroke:inherit"/><path d="M42.06 61.69l-6.91-3.99 6.91-3.99v7.98z" class="a24-cls-16" data-color-action="fill" style="fill:inherit"/></g><g id="a74_impacted_distal" class="a24-cls-12" data-name="impacted distal"><ellipse cx="29.5" cy="57.7" class="a24-cls-27" rx="24.15" ry="56.3" data-color-action="stroke" style="stroke:inherit"/><path d="M18.09 57.7H5.33" class="a24-cls-27" data-color-action="stroke" style="stroke:inherit"/><path d="M16.93 53.71l6.9 3.99-6.9 3.99v-7.98z" class="a24-cls-16" data-color-action="fill" style="fill:inherit"/></g><path id="a74_gortex_membranes" d="M2 40.75h55v16.42H2z" class="a24-cls-14" transform="rotate(-180 29.5 48.955)" data-color-action="fill" style="fill:inherit" data-name="gortex membranes"/><path id="a74_frenum_pull" d="M40.49 46.41l-10.65 6.75-10.66-6.75" class="a24-cls-30" data-color-action="stroke" style="stroke:inherit" data-name="frenum pull"/><path id="a74_external_root_resorption" d="M31.29 82.74c-.1 5 2.55 6.8 3.89 7.39-.09-3-.11-6.37 0-10.19.06-1.49.18-3.18.33-5-1.25.66-4.12 2.64-4.22 7.8zm-8.6-6.05c.37 2.41.77 4.73 1.2 6.83a64.71 64.71 0 0 0 1.75 6.75 9.1 9.1 0 0 0 2-7.2 8 8 0 0 0-4.95-6.38z" class="a24-cls-12 a24-cls-20" data-color-action="fill" style="fill:inherit" data-name="external root resorption"/><g id="a74_distal_drift" class="a24-cls-12" data-name="distal drift"><path d="M32.59 27.84H20.67" class="a24-cls-27" data-color-action="stroke" style="stroke:inherit"/><path d="M31.43 23.85l6.9 3.99-6.9 3.98v-7.97z" class="a24-cls-16" data-color-action="fill" style="fill:inherit"/></g><path id="a74_three_quarter_crown" d="M15.8 27.43c-.23-7.87.78-15.76 2-16.71 1.62-1.31 19.8-.71 23 2.9 1.52 1.71 2.41 7.66 2.45 13.82z" class="a24-cls-12 a24-cls-13" data-color-action="fill" style="fill:inherit" data-name="three quarter crown"/><path id="a74_crown" d="M18.74 42.05c-4.57-7.13-3-29.67-1-31.34 1.62-1.31 19.8-.71 23 2.9s3.6 26-.8 29.64c-2.39 1.99-18.43 3.12-21.2-1.2z" class="a24-cls-12 a24-cls-13" data-color-action="fill" style="fill:inherit"/><path id="a74_cracked_surface_incisal" d="M30.83 18.16L27 14.33h5l-5-4.74h5l-3.83-3.83" class="a24-cls-32" data-color-action="stroke" style="stroke:inherit" data-name="cracked surface incisal"/><path id="a74_cracked_surface_mesial" d="M19.66 32.17l-3.83-3.83h5.01l-5.01-4.74h5.01l-3.83-3.83" class="a24-cls-32" data-color-action="stroke" style="stroke:inherit" data-name="cracked surface mesial"/><path id="a74_cracked_surface_facial" d="M30.83 32.17L27 28.34h5l-5-4.74h5l-3.83-3.83" class="a24-cls-32" data-color-action="stroke" style="stroke:inherit" data-name="cracked surface facial"/><path id="a74_cracked_surface_facial_V" d="M30.83 32.17L27 28.34h5l-5-4.74h5l-3.83-3.83" class="a24-cls-32" data-color-action="stroke" style="stroke:inherit" data-name="cracked surface facial V"/><path id="a74_cracked_surface_distal" d="M41.66 32.17l-3.83-3.83h5l-5-4.74h5L39 19.77" class="a24-cls-32" data-color-action="stroke" style="stroke:inherit" data-name="cracked surface distal"/><g id="a74_chipped_surface_incisal" class="a24-cls-12" data-name="chipped surface incisal"><path d="M33.33 16.49L25 8.16M25 16.49l8.33-8.33" class="a24-cls-33" data-color-action="stroke" style="stroke:inherit"/></g><g id="a74_chipped_surface_mesial" class="a24-cls-12" data-name="chipped surface mesial"><path d="M23.17 30.5l-8.33-8.33M14.84 30.5l8.33-8.33" class="a24-cls-33" data-color-action="stroke" style="stroke:inherit"/></g><g id="a74_chipped_surface_facial" class="a24-cls-12" data-name="chipped surface facial"><path d="M33.33 30.5L25 22.17M25 30.5l8.33-8.33" class="a24-cls-33" data-color-action="stroke" style="stroke:inherit"/></g><g id="a74_chipped_surface_facial_V" class="a24-cls-12" data-name="chipped surface facial V"><path d="M33.33 30.5L25 22.17M25 30.5l8.33-8.33" class="a24-cls-33" data-color-action="stroke" style="stroke:inherit"/></g><g id="a74_chipped_surface_distal" class="a24-cls-12" data-name="chipped surface distal"><path d="M43.33 30.5L35 22.17M35 30.5l8.33-8.33" class="a24-cls-33" data-color-action="stroke" style="stroke:inherit"/></g><path id="a74_buccal_abfraction" d="M19.64 44.63a17.53 17.53 0 0 1 9.69-3.42A17.53 17.53 0 0 1 39 44.63 17.53 17.53 0 0 1 29.33 48a17.53 17.53 0 0 1-9.69-3.37z" class="a24-cls-14" data-color-action="fill" style="fill:inherit" data-name="buccal abfraction"/><g id="a74_braces"><path d="M22.96 18.84h13.45v18.19H22.96z" class="a24-cls-25" transform="rotate(-180 29.69 27.935)"/><path d="M22.96 18.84h13.45v.68H22.96z" class="a24-cls-34" transform="rotate(-180 29.69 19.18)" data-color-action="fill" style="fill:inherit"/><path d="M22.96 26.43h13.45v1.36H22.96z" class="a24-cls-34" transform="rotate(-180 29.69 27.11)" data-color-action="fill" style="fill:inherit"/><path d="M22.96 36.14h13.45v.89H22.96z" class="a24-cls-35" transform="rotate(-180 29.69 36.585)" data-color-action="fill" style="fill:inherit"/><rect width="4.11" height="7.94" x="32.59" y="29.07" class="a24-cls-28" rx=".49" ry=".49" transform="rotate(-180 34.64 33.04)" data-color-action="fill" style="fill:inherit"/><path d="M33.08 37h3.13a.49.49 0 0 0 .49-.49v-5.83a13.14 13.14 0 0 0-4.11 0v5.83a.49.49 0 0 0 .49.49z" class="a24-cls-18" data-color-action="fill" style="fill:inherit"/><path d="M32.92 35.6v1.11a.16.16 0 0 0 .16.16h3.13a.16.16 0 0 0 .16-.16V35.6z" class="a24-cls-25"/><rect width="4.11" height="7.94" x="22.67" y="29.07" class="a24-cls-28" rx=".49" ry=".49" transform="rotate(-180 24.725 33.04)" data-color-action="fill" style="fill:inherit"/><path d="M23.16 37h3.13a.49.49 0 0 0 .49-.49v-5.83a13.14 13.14 0 0 0-4.11 0v5.83a.49.49 0 0 0 .49.49z" class="a24-cls-18" data-color-action="fill" style="fill:inherit"/><path d="M23 35.6v1.11a.16.16 0 0 0 .16.16h3.13a.16.16 0 0 0 .16-.16V35.6z" class="a24-cls-25"/><rect width="4.11" height="7.94" x="32.59" y="18.79" class="a24-cls-28" rx=".49" ry=".49" transform="rotate(-180 34.64 22.755)" data-color-action="fill" style="fill:inherit"/><path d="M33.08 26.73h3.13a.49.49 0 0 0 .49-.49V20.4a13.14 13.14 0 0 0-4.11 0v5.83a.49.49 0 0 0 .49.5z" class="a24-cls-18" data-color-action="fill" style="fill:inherit"/><path d="M32.92 25.32v1.11a.16.16 0 0 0 .16.16h3.13a.16.16 0 0 0 .16-.16v-1.11z" class="a24-cls-25"/><rect width="4.11" height="7.94" x="22.67" y="18.79" class="a24-cls-28" rx=".49" ry=".49" transform="rotate(-180 24.725 22.755)" data-color-action="fill" style="fill:inherit"/><path d="M23.16 26.73h3.13a.49.49 0 0 0 .49-.49V20.4a13.14 13.14 0 0 0-4.11 0v5.83a.49.49 0 0 0 .49.5z" class="a24-cls-18" data-color-action="fill" style="fill:inherit"/><path d="M23 25.32v1.11a.16.16 0 0 0 .16.16h3.13a.16.16 0 0 0 .16-.16v-1.11z" class="a24-cls-25"/><path d="M8.58 27.17h42.21v1.45H8.58z" class="a24-cls-18" transform="rotate(-180 29.685 27.895)" data-color-action="fill" style="fill:inherit"/><path d="M8.58 27.17h42.21v.25H8.58z" class="a24-cls-28" transform="rotate(-180 29.685 27.295)" data-color-action="fill" style="fill:inherit"/><path d="M8.58 28.02h42.21v.4H8.58z" class="a24-cls-25" transform="rotate(-180 29.685 28.22)"/></g><path id="a74_apicoectomy" d="M22.16 116.84l7.34-11.66 7.34 11.66H22.16z" class="a24-cls-17" data-color-action="fill" style="fill:inherit"/><circle id="a74_abscess" cx="29.5" cy="111.34" r="6.5" class="a24-cls-37" data-color-action="fill" style="fill:inherit"/><g id="a74_blunted_roots" data-name="blunted roots"><path d="M2 69h55v70H2z" class="a24-cls-23" transform="rotate(-180 29.5 104)"/><path d="M2 66.92h55v2H2z" class="a24-cls-36" transform="rotate(-180 29.5 67.915)" data-color-action="fill" style="fill:inherit"/></g><path id="a74_root_amputation" d="M2 45.03h55v94.31H2z" class="a24-cls-23" transform="rotate(-180 29.5 92.18)" data-name="root amputation"/><path id="a74_missing_crown" d="M2 1.83h55v43.3H2z" class="a24-cls-23" transform="rotate(-180 29.5 23.485)" data-name="missing crown"/><g id="a74_missing_tooth" data-name="missing tooth"><path d="M17.77 10.72c-2 1.66-3.59 24.21 1 31.34a3.37 3.37 0 0 0 .67.75c0 5.56 1.74 27.21 4.47 40.71 3 14.67 9.64 22.88 10.85 22.31 2.34-1.11-.19-9.84.49-25.89.48-11.37 4-33.88 4.41-36.47a2.37 2.37 0 0 0 .33-.22c4.41-3.6 4-26 .8-29.64S19.38 9.4 17.77 10.72z" class="a24-cls-3"/><path d="M19.45 41.73c-.29 2.82 1.48 27.12 4.44 41.79s9.64 22.88 10.85 22.31c2.34-1.11-.19-9.84.49-25.89.49-11.59 4.11-34.78 4.44-36.61 1.1-6.33-19.36-9.98-20.22-1.6z" class="a24-cls-23"/><path d="M21.37 47.62c-.13-3 .18-6.46-.54-8.69a4.38 4.38 0 0 0-1.38 2.8c-.29 2.82 1.48 27.12 4.44 41.79a58.84 58.84 0 0 0 5.19 15.24A57.88 57.88 0 0 1 25 84.18c-.95-7.7-3.45-32.26-3.63-36.56zM35.23 79.94c.49-11.59 4.11-34.78 4.44-36.61a3 3 0 0 0-.54-2.25 5.12 5.12 0 0 0-1.27 2.24c-.72 3-1.61 11.29-2.69 20.08a151.47 151.47 0 0 0-.9 24.2 39.33 39.33 0 0 0 1.06 6.14c-.2-3.74-.33-8.35-.1-13.8z" class="a24-cls-23"/><path d="M31.57 45c.17 3-.78 15.07-1.42 21.47-.72 7.17-.72 17.93.84 26 .83 4.33 2.1 9.67 2.84 9.38s-1.46-10.27-1.53-14.8c-.36-22 3.13-40 3.13-42s-4.06-3.62-3.86-.05z" class="a24-cls-23"/><path d="M18.74 42.05c-4.57-7.13-3-29.67-1-31.34 1.62-1.31 19.8-.71 23 2.9s3.6 26-.8 29.64c-2.39 1.99-18.43 3.12-21.2-1.2z" class="a24-cls-23"/><path d="M19.94 10.22a5.14 5.14 0 0 0-2.17.5c-2 1.66-3.59 24.21 1 31.34a4.91 4.91 0 0 0 2.34 1.71c-2.75-7.57-2.31-26.91-1.17-33.55zM40.77 13.62a6.18 6.18 0 0 0-2.34-1.42c1.9 5.35 2.18 25-.1 31.79a5 5 0 0 0 1.67-.73c4.38-3.61 4-26.04.77-29.64zM31.78 27.58c.14 4.14 0 13.87-.21 17.39 1.13-.05 2.22-.15 3.22-.28a116.7 116.7 0 0 0 .75-16c-.28-4.86-.79-13.95-1-17.61-1.19-.24-2.46-.43-3.76-.58.33 3.94.85 12.81 1 17.08z" class="a24-cls-23"/></g><g id="a74_extracted_tooth" class="a24-msng-cls-10" data-name="extracted tooth"><path d="M9 10.51l41.67 41.66M50.67 10.51L9 52.17" class="a24-msng-cls-11" data-color-action="stroke" style="stroke:inherit"/></g><g id="a74_denture"><path d="M2 2.83h55v135.01H2z" class="a24-cls-23" transform="rotate(-180 29.5 70.34)"/><path d="M57 60.78A22.63 22.63 0 0 1 44.78 64c-7.64 0-10-3.22-15.79-3.22S19.15 64 13.2 64A24.26 24.26 0 0 1 2 60.78V2.83h55z" class="a24-cls-31" data-color-action="fill" style="fill:inherit"/><path d="M18.74 42.05c-4.57-7.13-3-29.67-1-31.34 1.62-1.31 19.8-.71 23 2.9s3.6 26-.8 29.64c-2.39 1.99-18.43 3.12-21.2-1.2z" class="a24-cls-3"/><path d="M18.74 42.05c-4.57-7.13-3-29.67-1-31.34 1.62-1.31 19.8-.71 23 2.9s3.6 26-.8 29.64c-2.39 1.99-18.43 3.12-21.2-1.2z" class="a24-cls-7"/><path d="M19.94 10.22a5.14 5.14 0 0 0-2.17.5c-2 1.66-3.59 24.21 1 31.34a4.91 4.91 0 0 0 2.34 1.71c-2.75-7.57-2.31-26.91-1.17-33.55zM40.77 13.62a6.18 6.18 0 0 0-2.34-1.42c1.9 5.35 2.18 25-.1 31.79a5 5 0 0 0 1.67-.73c4.38-3.61 4-26.04.77-29.64z" class="a24-cls-8"/><path d="M31.78 27.58c.14 4.14 0 13.87-.21 17.39 1.13-.05 2.22-.15 3.22-.28a116.7 116.7 0 0 0 .75-16c-.28-4.86-.79-13.95-1-17.61-1.19-.24-2.46-.43-3.76-.58.33 3.94.85 12.81 1 17.08z" class="a24-cls-9"/></g><g id="a74_maryland_bridge_pontic" class="a24-cls-12" data-name="maryland bridge pontic"><path d="M18.74 42.05c-4.57-7.13-3-29.67-1-31.34 1.62-1.31 19.8-.71 23 2.9s3.6 26-.8 29.64c-2.39 1.99-18.43 3.12-21.2-1.2z" class="a24-cls-20" data-color-action="fill" style="fill:inherit"/><path d="M2 23h55v7.67H2z" class="a24-cls-20" transform="rotate(-180 29.5 26.835)" data-color-action="fill" style="fill:inherit"/></g><g id="a74_maryland_bridge_abutment_mesial" data-name="maryland bridge abutment mesial"><path d="M2 23h34.98v7.67H2z" class="a24-cls-12 a24-cls-20" transform="rotate(-180 19.49 26.835)" data-color-action="fill" style="fill:inherit"/><path d="M17.77 10.72c-2 1.66-3.59 24.21 1 31.34a3.37 3.37 0 0 0 .67.75c0 5.56 1.74 27.21 4.47 40.71 3 14.67 9.64 22.88 10.85 22.31 2.34-1.11-.19-9.84.49-25.89.48-11.37 4-33.88 4.41-36.47a2.37 2.37 0 0 0 .33-.22c4.41-3.6 4-26 .8-29.64S19.38 9.4 17.77 10.72z" class="a24-cls-3"/><path d="M19.45 41.73c-.29 2.82 1.48 27.12 4.44 41.79s9.64 22.88 10.85 22.31c2.34-1.11-.19-9.84.49-25.89.49-11.59 4.11-34.78 4.44-36.61 1.1-6.33-19.36-9.98-20.22-1.6z" class="a24-cls-4"/><path d="M21.37 47.62c-.13-3 .18-6.46-.54-8.69a4.38 4.38 0 0 0-1.38 2.8c-.29 2.82 1.48 27.12 4.44 41.79a58.84 58.84 0 0 0 5.19 15.24A57.88 57.88 0 0 1 25 84.18c-.95-7.7-3.45-32.26-3.63-36.56zM35.23 79.94c.49-11.59 4.11-34.78 4.44-36.61a3 3 0 0 0-.54-2.25 5.12 5.12 0 0 0-1.27 2.24c-.72 3-1.61 11.29-2.69 20.08a151.47 151.47 0 0 0-.9 24.2 39.33 39.33 0 0 0 1.06 6.14c-.2-3.74-.33-8.35-.1-13.8z" class="a24-cls-5"/><path d="M31.57 45c.17 3-.78 15.07-1.42 21.47-.72 7.17-.72 17.93.84 26 .83 4.33 2.1 9.67 2.84 9.38s-1.46-10.27-1.53-14.8c-.36-22 3.13-40 3.13-42s-4.06-3.62-3.86-.05z" class="a24-cls-6"/><path d="M18.74 42.05c-4.57-7.13-3-29.67-1-31.34 1.62-1.31 19.8-.71 23 2.9s3.6 26-.8 29.64c-2.39 1.99-18.43 3.12-21.2-1.2z" class="a24-cls-7"/><path d="M19.94 10.22a5.14 5.14 0 0 0-2.17.5c-2 1.66-3.59 24.21 1 31.34a4.91 4.91 0 0 0 2.34 1.71c-2.75-7.57-2.31-26.91-1.17-33.55zM40.77 13.62a6.18 6.18 0 0 0-2.34-1.42c1.9 5.35 2.18 25-.1 31.79a5 5 0 0 0 1.67-.73c4.38-3.61 4-26.04.77-29.64z" class="a24-cls-8"/><path d="M31.78 27.58c.14 4.14 0 13.87-.21 17.39 1.13-.05 2.22-.15 3.22-.28a116.7 116.7 0 0 0 .75-16c-.28-4.86-.79-13.95-1-17.61-1.19-.24-2.46-.43-3.76-.58.33 3.94.85 12.81 1 17.08z" class="a24-cls-9"/></g><g id="a74_maryland_bridge_abutment_distal" data-name="maryland bridge abutment distal"><path d="M22.02 23H57v7.67H22.02z" class="a24-cls-12 a24-cls-20" transform="rotate(-180 39.51 26.835)" data-color-action="fill" style="fill:inherit"/><path d="M17.77 10.72c-2 1.66-3.59 24.21 1 31.34a3.37 3.37 0 0 0 .67.75c0 5.56 1.74 27.21 4.47 40.71 3 14.67 9.64 22.88 10.85 22.31 2.34-1.11-.19-9.84.49-25.89.48-11.37 4-33.88 4.41-36.47a2.37 2.37 0 0 0 .33-.22c4.41-3.6 4-26 .8-29.64S19.38 9.4 17.77 10.72z" class="a24-cls-3"/><path d="M19.45 41.73c-.29 2.82 1.48 27.12 4.44 41.79s9.64 22.88 10.85 22.31c2.34-1.11-.19-9.84.49-25.89.49-11.59 4.11-34.78 4.44-36.61 1.1-6.33-19.36-9.98-20.22-1.6z" class="a24-cls-4"/><path d="M21.37 47.62c-.13-3 .18-6.46-.54-8.69a4.38 4.38 0 0 0-1.38 2.8c-.29 2.82 1.48 27.12 4.44 41.79a58.84 58.84 0 0 0 5.19 15.24A57.88 57.88 0 0 1 25 84.18c-.95-7.7-3.45-32.26-3.63-36.56zM35.23 79.94c.49-11.59 4.11-34.78 4.44-36.61a3 3 0 0 0-.54-2.25 5.12 5.12 0 0 0-1.27 2.24c-.72 3-1.61 11.29-2.69 20.08a151.47 151.47 0 0 0-.9 24.2 39.33 39.33 0 0 0 1.06 6.14c-.2-3.74-.33-8.35-.1-13.8z" class="a24-cls-5"/><path d="M31.57 45c.17 3-.78 15.07-1.42 21.47-.72 7.17-.72 17.93.84 26 .83 4.33 2.1 9.67 2.84 9.38s-1.46-10.27-1.53-14.8c-.36-22 3.13-40 3.13-42s-4.06-3.62-3.86-.05z" class="a24-cls-6"/><path d="M18.74 42.05c-4.57-7.13-3-29.67-1-31.34 1.62-1.31 19.8-.71 23 2.9s3.6 26-.8 29.64c-2.39 1.99-18.43 3.12-21.2-1.2z" class="a24-cls-7"/><path d="M19.94 10.22a5.14 5.14 0 0 0-2.17.5c-2 1.66-3.59 24.21 1 31.34a4.91 4.91 0 0 0 2.34 1.71c-2.75-7.57-2.31-26.91-1.17-33.55zM40.77 13.62a6.18 6.18 0 0 0-2.34-1.42c1.9 5.35 2.18 25-.1 31.79a5 5 0 0 0 1.67-.73c4.38-3.61 4-26.04.77-29.64z" class="a24-cls-8"/><path d="M31.78 27.58c.14 4.14 0 13.87-.21 17.39 1.13-.05 2.22-.15 3.22-.28a116.7 116.7 0 0 0 .75-16c-.28-4.86-.79-13.95-1-17.61-1.19-.24-2.46-.43-3.76-.58.33 3.94.85 12.81 1 17.08z" class="a24-cls-9"/></g><g id="a74_maryland_bridge_abutment" data-name="maryland bridge abutment"><path d="M2 23h55v7.67H2z" class="a24-cls-12 a24-cls-20" transform="rotate(-180 29.5 26.835)" data-color-action="fill" style="fill:inherit"/><path d="M17.77 10.72c-2 1.66-3.59 24.21 1 31.34a3.37 3.37 0 0 0 .67.75c0 5.56 1.74 27.21 4.47 40.71 3 14.67 9.64 22.88 10.85 22.31 2.34-1.11-.19-9.84.49-25.89.48-11.37 4-33.88 4.41-36.47a2.37 2.37 0 0 0 .33-.22c4.41-3.6 4-26 .8-29.64S19.38 9.4 17.77 10.72z" class="a24-cls-3"/><path d="M19.45 41.73c-.29 2.82 1.48 27.12 4.44 41.79s9.64 22.88 10.85 22.31c2.34-1.11-.19-9.84.49-25.89.49-11.59 4.11-34.78 4.44-36.61 1.1-6.33-19.36-9.98-20.22-1.6z" class="a24-cls-4"/><path d="M21.37 47.62c-.13-3 .18-6.46-.54-8.69a4.38 4.38 0 0 0-1.38 2.8c-.29 2.82 1.48 27.12 4.44 41.79a58.84 58.84 0 0 0 5.19 15.24A57.88 57.88 0 0 1 25 84.18c-.95-7.7-3.45-32.26-3.63-36.56zM35.23 79.94c.49-11.59 4.11-34.78 4.44-36.61a3 3 0 0 0-.54-2.25 5.12 5.12 0 0 0-1.27 2.24c-.72 3-1.61 11.29-2.69 20.08a151.47 151.47 0 0 0-.9 24.2 39.33 39.33 0 0 0 1.06 6.14c-.2-3.74-.33-8.35-.1-13.8z" class="a24-cls-5"/><path d="M31.57 45c.17 3-.78 15.07-1.42 21.47-.72 7.17-.72 17.93.84 26 .83 4.33 2.1 9.67 2.84 9.38s-1.46-10.27-1.53-14.8c-.36-22 3.13-40 3.13-42s-4.06-3.62-3.86-.05z" class="a24-cls-6"/><path d="M18.74 42.05c-4.57-7.13-3-29.67-1-31.34 1.62-1.31 19.8-.71 23 2.9s3.6 26-.8 29.64c-2.39 1.99-18.43 3.12-21.2-1.2z" class="a24-cls-7"/><path d="M19.94 10.22a5.14 5.14 0 0 0-2.17.5c-2 1.66-3.59 24.21 1 31.34a4.91 4.91 0 0 0 2.34 1.71c-2.75-7.57-2.31-26.91-1.17-33.55zM40.77 13.62a6.18 6.18 0 0 0-2.34-1.42c1.9 5.35 2.18 25-.1 31.79a5 5 0 0 0 1.67-.73c4.38-3.61 4-26.04.77-29.64z" class="a24-cls-8"/><path d="M31.78 27.58c.14 4.14 0 13.87-.21 17.39 1.13-.05 2.22-.15 3.22-.28a116.7 116.7 0 0 0 .75-16c-.28-4.86-.79-13.95-1-17.61-1.19-.24-2.46-.43-3.76-.58.33 3.94.85 12.81 1 17.08z" class="a24-cls-9"/></g><g id="a74_bridge_abutment_mesial" class="a24-cls-12" data-name="bridge abutment mesial"><path d="M18.74 42.05c-4.57-7.13-3-29.67-1-31.34 1.62-1.31 19.8-.71 23 2.9s3.6 26-.8 29.64c-2.39 1.99-18.43 3.12-21.2-1.2z" class="a24-cls-18" data-color-action="fill" style="fill:inherit"/><path d="M2 23h34.98v7.67H2z" class="a24-cls-18" transform="rotate(-180 19.49 26.835)" data-color-action="fill" style="fill:inherit"/></g><g id="a74_bridge_abutment_distal" class="a24-cls-12" data-name="bridge abutment distal"><path d="M18.74 42.05c-4.57-7.13-3-29.67-1-31.34 1.62-1.31 19.8-.71 23 2.9s3.6 26-.8 29.64c-2.39 1.99-18.43 3.12-21.2-1.2z" class="a24-cls-18" data-color-action="fill" style="fill:inherit"/><path d="M22.02 23H57v7.67H22.02z" class="a24-cls-18" transform="rotate(-180 39.51 26.835)" data-color-action="fill" style="fill:inherit"/></g><g id="a74_bridge_abutment" class="a24-cls-12" data-name="bridge abutment"><path d="M18.74 42.05c-4.57-7.13-3-29.67-1-31.34 1.62-1.31 19.8-.71 23 2.9s3.6 26-.8 29.64c-2.39 1.99-18.43 3.12-21.2-1.2z" class="a24-cls-18" data-color-action="fill" style="fill:inherit"/><path d="M2 23h55v7.67H2z" class="a24-cls-18" transform="rotate(-180 29.5 26.835)" data-color-action="fill" style="fill:inherit"/></g><g id="a74_bridge_pontic" data-name="bridge pontic"><path d="M17.77 10.72c-2 1.66-3.59 24.21 1 31.34a3.37 3.37 0 0 0 .67.75c0 5.56 1.74 27.21 4.47 40.71 3 14.67 9.64 22.88 10.85 22.31 2.34-1.11-.19-9.84.49-25.89.48-11.37 4-33.88 4.41-36.47a2.37 2.37 0 0 0 .33-.22c4.41-3.6 4-26 .8-29.64S19.38 9.4 17.77 10.72z" class="a24-cls-3"/><path d="M19.45 41.73c-.29 2.82 1.48 27.12 4.44 41.79s9.64 22.88 10.85 22.31c2.34-1.11-.19-9.84.49-25.89.49-11.59 4.11-34.78 4.44-36.61 1.1-6.33-19.36-9.98-20.22-1.6z" class="a24-cls-23"/><path d="M21.37 47.62c-.13-3 .18-6.46-.54-8.69a4.38 4.38 0 0 0-1.38 2.8c-.29 2.82 1.48 27.12 4.44 41.79a58.84 58.84 0 0 0 5.19 15.24A57.88 57.88 0 0 1 25 84.18c-.95-7.7-3.45-32.26-3.63-36.56zM35.23 79.94c.49-11.59 4.11-34.78 4.44-36.61a3 3 0 0 0-.54-2.25 5.12 5.12 0 0 0-1.27 2.24c-.72 3-1.61 11.29-2.69 20.08a151.47 151.47 0 0 0-.9 24.2 39.33 39.33 0 0 0 1.06 6.14c-.2-3.74-.33-8.35-.1-13.8z" class="a24-cls-23"/><path d="M31.57 45c.17 3-.78 15.07-1.42 21.47-.72 7.17-.72 17.93.84 26 .83 4.33 2.1 9.67 2.84 9.38s-1.46-10.27-1.53-14.8c-.36-22 3.13-40 3.13-42s-4.06-3.62-3.86-.05z" class="a24-cls-23"/><path d="M18.74 42.05c-4.57-7.13-3-29.67-1-31.34 1.62-1.31 19.8-.71 23 2.9s3.6 26-.8 29.64c-2.39 1.99-18.43 3.12-21.2-1.2z" class="a24-cls-7"/><path d="M19.94 10.22a5.14 5.14 0 0 0-2.17.5c-2 1.66-3.59 24.21 1 31.34a4.91 4.91 0 0 0 2.34 1.71c-2.75-7.57-2.31-26.91-1.17-33.55zM40.77 13.62a6.18 6.18 0 0 0-2.34-1.42c1.9 5.35 2.18 25-.1 31.79a5 5 0 0 0 1.67-.73c4.38-3.61 4-26.04.77-29.64z" class="a24-cls-8"/><path d="M31.78 27.58c.14 4.14 0 13.87-.21 17.39 1.13-.05 2.22-.15 3.22-.28a116.7 116.7 0 0 0 .75-16c-.28-4.86-.79-13.95-1-17.61-1.19-.24-2.46-.43-3.76-.58.33 3.94.85 12.81 1 17.08z" class="a24-cls-9"/><g class="a24-cls-12"><path d="M18.74 42.05c-4.57-7.13-3-29.67-1-31.34 1.62-1.31 19.8-.71 23 2.9s3.6 26-.8 29.64c-2.39 1.99-18.43 3.12-21.2-1.2z" class="a24-cls-18" data-color-action="fill" style="fill:inherit"/><path d="M2 23h55v7.67H2z" class="a24-cls-18" transform="rotate(-180 29.5 26.835)" data-color-action="fill" style="fill:inherit"/></g></g><g id="a74_implant_mini" data-name="implant mini"><path d="M1.61 1.79h55v137.17h-55z" class="a24-cls-23" transform="rotate(-180 29.115 70.375)"/><path d="M29.28 77.93h.44l1-8.49V28.6h-2.44v40.84l1 8.49z" class="a24-cls-18" data-color-action="fill" style="fill:inherit"/><path d="M29.58 77.93h.07l.4-8.49V28.6h-.37v40.84l-.1 8.49z" class="a24-cls-25"/><path d="M28.28 28.6h2.44v.63h-2.44z" class="a24-cls-28" transform="rotate(-180 29.5 28.915)" data-color-action="fill" style="fill:inherit"/><g class="a24-cls-29"><path d="M30.72 29.23l-2.44 1v-.63l2.44-1v.63zM30.72 30.68l-2.44 1v-.63l2.44-1v.63zM30.72 32.12l-2.44 1v-.63l2.44-1v.63zM30.72 33.57l-2.44 1v-.63l2.44-1v.63zM30.72 35.02l-2.44 1v-.64l2.44-1v.64zM30.72 36.46l-2.44 1v-.63l2.44-1v.63zM30.72 37.91l-2.44 1v-.64l2.44-1v.64zM30.72 39.35l-2.44 1v-.63l2.44-1v.63zM30.72 40.8l-2.44 1v-.64l2.44-1v.64zM30.72 42.24l-2.44 1v-.63l2.44-1v.63zM30.72 43.69l-2.44 1v-.64l2.44-1v.64zM30.72 45.13l-2.44 1v-.63l2.44-1v.63zM30.72 46.58l-2.44 1v-.63l2.44-1v.63zM30.72 48.02l-2.44 1v-.63l2.44-1v.63zM30.72 49.47l-2.44 1v-.63l2.44-1v.63zM30.72 50.91l-2.44 1v-.63l2.44-1v.63zM30.72 52.36l-2.44 1v-.63l2.44-1v.63zM30.72 53.8l-2.44 1.01v-.64l2.44-1v.63zM30.72 55.25l-2.44 1v-.63l2.44-1v.63zM30.72 56.7l-2.44 1v-.64l2.44-1v.64zM30.72 58.14l-2.44 1v-.63l2.44-1v.63zM30.72 59.59l-2.44 1v-.63l2.44-1.01v.64zM30.72 61.03l-2.44 1v-.63l2.44-1v.63zM30.72 62.48l-2.44 1v-.63l2.44-1v.63zM30.72 63.92l-2.44 1v-.63l2.44-1v.63zM30.72 65.37l-2.44 1v-.63l2.44-1v.63zM30.72 66.81l-2.44 1v-.63l2.44-1v.63zM30.72 68.26l-2.44 1v-.63l2.44-1v.63zM30.72 69.44l-.03.28-2.27.93-.07-.61 2.37-.97v.37zM30.51 71.24l-1.93.79-.07-.61 2.08-.85-.08.67zM30.33 72.76l-1.58.65-.08-.61 1.74-.71-.08.67zM30.15 74.28l-1.24.5-.07-.6 1.39-.57-.08.67zM29.97 75.79l-.9.37-.07-.6 1.05-.43-.08.66zM29.8 77.31l-.57.23-.07-.6.71-.29-.07.66z" class="a24-cls-28" data-color-action="fill" style="fill:inherit"/></g><circle cx="29.5" cy="24.73" r="2.24" class="a24-cls-18" data-color-action="fill" style="fill:inherit"/><path d="M27.67 25.95h3.67v3h-3.67z" class="a24-cls-18" transform="rotate(-180 29.5 27.445)" data-color-action="fill" style="fill:inherit"/><path d="M29.96 25.95h.55v3h-.55z" class="a24-cls-25"/><path d="M30.3 23.37h.21a2.32 2.32 0 0 1 .49 1.29 2.37 2.37 0 0 1-.52 1.3H30a2 2 0 0 0 .73-1.37 1.5 1.5 0 0 0-.43-1.22z" class="a24-cls-25"/><path d="M28.28 34.67h2.44v.63h-2.44z" class="a24-cls-28" transform="rotate(-180 29.5 34.985)" data-color-action="fill" style="fill:inherit"/><path d="M26.89 28.92h5.22l-.87 5.71h-3.48l-.87-5.71z" class="a24-cls-18" data-color-action="fill" style="fill:inherit"/><path d="M30.15 28.92h.79l-.48 5.71h-.53l.22-5.71z" class="a24-cls-25"/></g><g id="a74_implant_cylinder" data-name="implant cylinder"><path d="M2 1.83h55V139H2z" class="a24-cls-23" transform="rotate(-180 29.5 70.415)"/><path d="M26.17 25.65h6.67v49.33h-6.67z" class="a24-cls-18" transform="rotate(-180 29.5 50.32)" data-color-action="fill" style="fill:inherit"/><path d="M24.5 22.66h10v3h-10z" class="a24-cls-18" transform="rotate(-180 29.5 24.155)" data-color-action="fill" style="fill:inherit"/><path d="M30 25.65h1v49.33h-1z" class="a24-cls-25" transform="rotate(-180 30.5 50.32)"/><path d="M30.75 22.66h1.5v3h-1.5z" class="a24-cls-25" transform="rotate(-180 31.5 24.155)"/><path d="M24.5 75.02h10v3h-10z" class="a24-cls-18" transform="rotate(-180 29.5 76.515)" data-color-action="fill" style="fill:inherit"/><path d="M30.75 75.02h1.5v3h-1.5z" class="a24-cls-25" transform="rotate(-180 31.5 76.515)"/><path d="M26.17 25.65h6.67v.63h-6.67z" class="a24-cls-28" transform="rotate(-180 29.5 25.97)" data-color-action="fill" style="fill:inherit"/><path d="M26.17 74.35h6.67v.63h-6.67z" class="a24-cls-28" transform="rotate(-180 29.5 74.67)" data-color-action="fill" style="fill:inherit"/><g class="a24-cls-29"><path d="M26.17 73.35l6.66 1.01v.63l-6.66-1v-.64zM26.17 71.91l6.66 1v.63l-6.66-1v-.63zM26.17 70.46l6.66 1v.64l-6.66-1.01v-.63zM26.17 69.02l6.66 1v.63l-6.66-1v-.63zM26.17 67.57l6.66 1v.63l-6.66-1v-.63zM26.17 66.13l6.66 1v.63l-6.66-1v-.63zM26.17 64.68l6.66 1v.63l-6.66-1v-.63zM26.17 63.24l6.66 1v.63l-6.66-1v-.63zM26.17 61.79l6.66 1v.63l-6.66-1v-.63zM26.17 60.34l6.66 1.01v.63l-6.66-1v-.64zM26.17 58.9l6.66 1v.63l-6.66-1v-.63zM26.17 57.45l6.66 1v.64l-6.66-1v-.64zM26.17 56.01l6.66 1v.63l-6.66-1v-.63zM26.17 54.56l6.66 1v.64l-6.66-1v-.64zM26.17 53.12l6.66 1v.63l-6.66-1v-.63zM26.17 51.67l6.66 1v.63l-6.66-1v-.63zM26.17 50.23l6.66 1v.63l-6.66-1v-.63zM26.17 48.78l6.66 1v.63l-6.66-1v-.63zM26.17 47.34l6.66 1v.63l-6.66-1v-.63zM26.17 45.89l6.66 1v.63l-6.66-1v-.63zM26.17 44.45l6.66 1v.63l-6.66-1v-.63zM26.17 43l6.66 1v.63l-6.66-1V43zM26.17 41.55l6.66 1v.64l-6.66-1v-.64zM26.17 40.11l6.66 1v.63l-6.66-1v-.63zM26.17 38.66l6.66 1v.64l-6.66-1v-.64zM26.17 37.22l6.66 1v.63l-6.66-1v-.63zM26.17 35.77l6.66 1v.64l-6.66-1v-.64zM26.17 34.33l6.66 1v.63l-6.66-1v-.63zM26.17 32.88l6.66 1v.63l-6.66-1v-.63zM26.17 31.44l6.66 1v.63l-6.66-1v-.63zM26.17 29.99l6.66 1v.63l-6.66-1v-.63zM26.17 28.55l6.66 1v.63l-6.66-1v-.63zM26.17 27.1l6.66 1v.63l-6.66-1v-.63zM26.17 25.65l6.66 1.01v.63l-6.66-1v-.64z" class="a24-cls-28" data-color-action="fill" style="fill:inherit"/></g></g><g id="a74_implant_blade" data-name="implant blade"><path d="M2 1.83h55V139H2z" class="a24-cls-23" transform="rotate(-180 29.5 70.415)"/><path d="M26.17 25.65h6.67v49.33h-6.67z" class="a24-cls-18" transform="rotate(-180 29.5 50.32)" data-color-action="fill" style="fill:inherit"/><path d="M24.5 22.66h10v3h-10z" class="a24-cls-18" transform="rotate(-180 29.5 24.155)" data-color-action="fill" style="fill:inherit"/><path d="M30 25.65h1v49.33h-1z" class="a24-cls-25" transform="rotate(-180 30.5 50.32)"/><path d="M30.75 22.66h1.5v3h-1.5z" class="a24-cls-25" transform="rotate(-180 31.5 24.155)"/><path d="M26.17 25.65h6.67v.63h-6.67z" class="a24-cls-28" transform="rotate(-180 29.5 25.97)" data-color-action="fill" style="fill:inherit"/></g><path id="a74_watch_tooth" d="M8.27 153.9a3.26 3.26 0 0 1 3.22-3.26 3.24 3.24 0 1 1 0 6.47 3.25 3.25 0 0 1-3.22-3.21zm1-5.91l-.88-18.09h6.15l-.8 18.1z" class="a24-cls-11" data-color-action="fill" style="fill:inherit" data-name="watch tooth"/><path id="a74_border" d="M0 0h59v161H0z" class="a24-cls-15"/></defs></g><g class="c24-cls-1"><g id="_24C" data-name="#24C"><path d="M18.74 23.21c-4.57 7.13-3 29.67-1 31.34 1.62 1.31 19.8.71 23-2.9s3.6-26-.8-29.64c-2.39-2.01-18.43-3.12-21.2 1.2z" class="c24-cls-2"/><path d="M18.74 23.21c-4.57 7.13-3 29.67-1 31.34 1.62 1.31 19.8.71 23-2.9s3.6-26-.8-29.64c-2.39-2.01-18.43-3.12-21.2 1.2z" class="c24-cls-3"/><path d="M18.85 31.14c.19-1.71 1.85-6.64 3.8-7.06a35.28 35.28 0 0 1 8.51-.72c2.17.18 4.71.36 6.34 1.27 1.15.64 2 4.89 2.17 6s-.36 2.72-1.27.72-2-5.07-5.07-5.25-5.43-.72-6.7.18-2.59 0-3.44.36c-1.45.54-2.17 2-3.08 4.17-.5 1.19-1.44 1.96-1.26.33z" class="c24-cls-4"/><path d="M42.16 48.32A19.19 19.19 0 0 1 39 50.7c-2 1.09-5.25 1.09-9.06 1.45s-10.14.91-12.13-.36a7.06 7.06 0 0 1-1.22-1c.34 2 .77 3.4 1.22 3.76 1.62 1.31 19.8.71 23-2.9a8.33 8.33 0 0 0 1.35-3.33z" class="c24-cls-5"/></g><defs><g id="c74_splinted_crowns" data-name="splinted crowns"><path d="M2 15.05h55v7.67H2z" class="c24-cls-12" transform="rotate(-180 29.5 18.89)" data-color-action="fill" style="fill:inherit"/><path d="M18.74 23.21c-4.57 7.13-3 29.67-1 31.34 1.62 1.31 19.8.71 23-2.9s3.6-26-.8-29.64c-2.39-2.01-18.43-3.12-21.2 1.2z" class="c24-cls-2"/><path d="M18.74 23.21c-4.57 7.13-3 29.67-1 31.34 1.62 1.31 19.8.71 23-2.9s3.6-26-.8-29.64c-2.39-2.01-18.43-3.12-21.2 1.2z" class="c24-cls-3"/><path d="M18.85 31.14c.19-1.71 1.85-6.64 3.8-7.06a35.28 35.28 0 0 1 8.51-.72c2.17.18 4.71.36 6.34 1.27 1.15.64 2 4.89 2.17 6s-.36 2.72-1.27.72-2-5.07-5.07-5.25-5.43-.72-6.7.18-2.59 0-3.44.36c-1.45.54-2.17 2-3.08 4.17-.5 1.19-1.44 1.96-1.26.33z" class="c24-cls-4"/><path d="M42.16 48.32A19.19 19.19 0 0 1 39 50.7c-2 1.09-5.25 1.09-9.06 1.45s-10.14.91-12.13-.36a7.06 7.06 0 0 1-1.22-1c.34 2 .77 3.4 1.22 3.76 1.62 1.31 19.8.71 23-2.9a8.33 8.33 0 0 0 1.35-3.33z" class="c24-cls-5"/></g><path id="c74_mesial" d="M16.06 46.86l4.68-2.54c-.69-1.8-.31-4.32-.74-6.9-.32-1.94-2.18-2.79-4-3.16a78 78 0 0 0 .06 12.6z" class="c24-cls-6" data-color-action="fill" style="fill:inherit"/><path id="c74_line_angle_4" d="M22.93 46.42a3.41 3.41 0 0 1-2.2-2.1l-4.68 2.54c.36 4.05 1 7.12 1.71 7.69.52.42 2.76.65 5.66.64L25.95 47a12.35 12.35 0 0 1-3.02-.58z" class="c24-cls-6" data-color-action="fill" style="fill:inherit" data-name="line angle 4"/><path id="c74_lingual" d="M34.62 46.64a35.51 35.51 0 0 1-8.67.38l-2.53 8.16a57.25 57.25 0 0 0 13-1.46z" class="c24-cls-6" data-color-action="fill" style="fill:inherit"/><path id="c74_line_angle_3" d="M40.77 51.65c.78-.88 1.39-2.86 1.81-5.42l-4.3-2.5a3.82 3.82 0 0 1-2.3 2.6c-.38.11-.85.21-1.37.31l1.78 7.08a9.37 9.37 0 0 0 4.38-2.07z" class="c24-cls-6" data-color-action="fill" style="fill:inherit" data-name="line angle 3"/><path id="c74_distal" d="M39.42 38.06a25.52 25.52 0 0 1-1.14 5.68l4.3 2.5a60.57 60.57 0 0 0 .57-12c-1.66.56-3.44 1.65-3.73 3.82z" class="c24-cls-6" data-color-action="fill" style="fill:inherit"/><ellipse id="c74_mid_lingual" cx="29.81" cy="36.12" class="c24-cls-6" rx="4.04" ry="8.29" data-color-action="fill" style="fill:inherit" data-name="mid lingual"/><path id="c74_lingual_V" d="M38.41 21.3c-3.67-1.13-11.88-1.61-16.58-.07a13.15 13.15 0 0 0 8.34 2.85 13.16 13.16 0 0 0 8.24-2.78z" class="c24-cls-6" data-color-action="fill" style="fill:inherit" data-name="lingual V"/><g id="c74_veneer"><path d="M28 61.75h3v3h-3z" class="c24-cls-7" transform="rotate(-180 29.5 63.25)"/><path d="M28 61.75h3v3h-3z" class="c24-cls-7" transform="rotate(-180 29.5 63.25)"/><path d="M28 61.75h3v3h-3z" class="c24-cls-7" transform="rotate(-180 29.5 63.25)"/></g><g id="c74_tissue_graft" data-name="tissue graft"><path d="M28 61.75h3v3h-3z" class="c24-cls-7" transform="rotate(-180 29.5 63.25)"/><path d="M28 61.75h3v3h-3z" class="c24-cls-7" transform="rotate(-180 29.5 63.25)"/><path d="M28 61.75h3v3h-3z" class="c24-cls-7" transform="rotate(-180 29.5 63.25)"/></g><g id="c74_tipped_lingual" class="c24-cls-8" data-name="tipped lingual"><path d="M28.65 59.07c1.26 3.37 4.74 3.85 7.69-5.32.5-1.56 4.42-1.76 3.84 0-2 6.08-5.31 10.2-9.06 9.27a4.86 4.86 0 0 1-3-3.38c.19-.17.42-.43.53-.57z" class="c24-cls-9" data-color-action="fill" style="fill:inherit"/><path d="M30.73 56.15h12.94l-2.94-9.64-10 9.64z" class="c24-cls-9" data-color-action="fill" style="fill:inherit"/></g><g id="c74_tipped_facial" data-name="tipped facial"><path d="M28 61.75h3v3h-3z" class="c24-cls-7" transform="rotate(-180 29.5 63.25)"/><path d="M28 61.75h3v3h-3z" class="c24-cls-7" transform="rotate(-180 29.5 63.25)"/><path d="M28 61.75h3v3h-3z" class="c24-cls-7" transform="rotate(-180 29.5 63.25)"/></g><path id="c74_surface_restoration_incisal" d="M17.84 54.65l5.4-6.41a46.54 46.54 0 0 0 12.14-1.44v-.14l5 5.4c-3.97 3.25-20.6 3.8-22.54 2.59z" class="c24-cls-10" data-color-action="fill" style="fill:inherit" data-name="surface restoration incisal"/><path id="c74_surface_restoration_mesial" d="M17.77 54.61c-1.58-1.28-2.85-14.95-1.27-24.42a11.52 11.52 0 0 0 6.87-6.46c-.68 8-.69 20.38-.18 24.51h.05l-5.4 6.41z" class="c24-cls-10" data-color-action="fill" style="fill:inherit" data-name="surface restoration mesial"/><path id="c74_surface_restoration_lingual" d="M35.85 23.56a11.82 11.82 0 0 0 .42 1.36c.26 8-.12 19.06-.89 21.88a46.56 46.56 0 0 1-12.15 1.44c-.51-4.13-.5-16.49.18-24.51 0-.08.05-.17.09-.26a15.31 15.31 0 0 0 12.39.09z" class="c24-cls-8 c24-cls-11" data-color-action="fill" style="fill:inherit" data-name="surface restoration lingual"/><path id="c74_surface_restoration_lingual_V" d="M35.5 20.73v.09a11.29 11.29 0 0 0 .35 2.74 15.31 15.31 0 0 1-12.39-.09 11.44 11.44 0 0 0 .7-2.75 38.72 38.72 0 0 1 11.34.01z" class="c24-cls-8 c24-cls-11" data-color-action="fill" style="fill:inherit" data-name="surface restoration lingual V"/><path id="c74_surface_restoration_distal" d="M40.4 52.06l-5-5.4c.74-3 1.11-13.87.85-21.74A11.51 11.51 0 0 0 43 31.58c.76 7.85-.14 17.83-2.18 20.13a3.25 3.25 0 0 1-.42.35z" class="c24-cls-10" data-color-action="fill" style="fill:inherit" data-name="surface restoration distal"/><g id="c74_supra-erupted"><path d="M28 61.75h3v3h-3z" class="c24-cls-7" transform="rotate(-180 29.5 63.25)"/><path d="M28 61.75h3v3h-3z" class="c24-cls-7" transform="rotate(-180 29.5 63.25)"/><path d="M28 61.75h3v3h-3z" class="c24-cls-7" transform="rotate(-180 29.5 63.25)"/></g><g id="c74_sub-erupted"><path d="M28 61.75h3v3h-3z" class="c24-cls-7" transform="rotate(-180 29.5 63.25)"/><path d="M28 61.75h3v3h-3z" class="c24-cls-7" transform="rotate(-180 29.5 63.25)"/><path d="M28 61.75h3v3h-3z" class="c24-cls-7" transform="rotate(-180 29.5 63.25)"/></g><g id="c74_sealant"><path d="M28 61.75h3v3h-3z" class="c24-cls-7" transform="rotate(-180 29.5 63.25)"/><path d="M28 61.75h3v3h-3z" class="c24-cls-7" transform="rotate(-180 29.5 63.25)"/><path d="M28 61.75h3v3h-3z" class="c24-cls-7" transform="rotate(-180 29.5 63.25)"/></g><g id="c74_root_decay" data-name="root decay"><path d="M28 61.75h3v3h-3z" class="c24-cls-7" transform="rotate(-180 29.5 63.25)"/><path d="M28 61.75h3v3h-3z" class="c24-cls-7" transform="rotate(-180 29.5 63.25)"/><path d="M28 61.75h3v3h-3z" class="c24-cls-7" transform="rotate(-180 29.5 63.25)"/></g><g id="c74_root_canal" data-name="root canal"><path d="M28 61.75h3v3h-3z" class="c24-cls-7" transform="rotate(-180 29.5 63.25)"/><path d="M28 61.75h3v3h-3z" class="c24-cls-7" transform="rotate(-180 29.5 63.25)"/><path d="M28 61.75h3v3h-3z" class="c24-cls-7" transform="rotate(-180 29.5 63.25)"/></g><g id="c74_root_abrasion" data-name="root abrasion"><path d="M28 61.75h3v3h-3z" class="c24-cls-7" transform="rotate(-180 29.5 63.25)"/><path d="M28 61.75h3v3h-3z" class="c24-cls-7" transform="rotate(-180 29.5 63.25)"/><path d="M28 61.75h3v3h-3z" class="c24-cls-7" transform="rotate(-180 29.5 63.25)"/></g><g id="c74_open_contact_mesial" data-name="open contact mesial"><path d="M28 61.75h3v3h-3z" class="c24-cls-7" transform="rotate(-180 29.5 63.25)"/><path d="M28 61.75h3v3h-3z" class="c24-cls-7" transform="rotate(-180 29.5 63.25)"/><path d="M28 61.75h3v3h-3z" class="c24-cls-7" transform="rotate(-180 29.5 63.25)"/></g><g id="c74_open_contact_distal" data-name="open contact distal"><path d="M28 61.75h3v3h-3z" class="c24-cls-7" transform="rotate(-180 29.5 63.25)"/><path d="M28 61.75h3v3h-3z" class="c24-cls-7" transform="rotate(-180 29.5 63.25)"/><path d="M28 61.75h3v3h-3z" class="c24-cls-7" transform="rotate(-180 29.5 63.25)"/></g><path id="c74_lingual_abfraction" d="M17.83 19.16s5.22-4.11 11.67-4.11 11.67 4.11 11.67 4.11-5.22 4.11-11.67 4.11-11.67-4.11-11.67-4.11z" class="c24-cls-15" data-color-action="fill" style="fill:inherit" data-name="lingual abfraction"/><g id="c74_internal_root_resorption" data-name="internal root resorption"><path d="M28 61.75h3v3h-3z" class="c24-cls-7" transform="rotate(-180 29.5 63.25)"/><path d="M28 61.75h3v3h-3z" class="c24-cls-7" transform="rotate(-180 29.5 63.25)"/><path d="M28 61.75h3v3h-3z" class="c24-cls-7" transform="rotate(-180 29.5 63.25)"/></g><g id="c74_gortex_membranes" data-name="gortex membranes"><path d="M28 61.75h3v3h-3z" class="c24-cls-7" transform="rotate(-180 29.5 63.25)"/><path d="M28 61.75h3v3h-3z" class="c24-cls-7" transform="rotate(-180 29.5 63.25)"/><path d="M28 61.75h3v3h-3z" class="c24-cls-7" transform="rotate(-180 29.5 63.25)"/></g><g id="c74_frenum_pull" data-name="frenum pull"><path d="M28 61.75h3v3h-3z" class="c24-cls-7" transform="rotate(-180 29.5 63.25)"/><path d="M28 61.75h3v3h-3z" class="c24-cls-7" transform="rotate(-180 29.5 63.25)"/><path d="M28 61.75h3v3h-3z" class="c24-cls-7" transform="rotate(-180 29.5 63.25)"/></g><g id="c74_external_root_resorption" data-name="external root resorption"><path d="M28 61.75h3v3h-3z" class="c24-cls-7" transform="rotate(-180 29.5 63.25)"/><path d="M28 61.75h3v3h-3z" class="c24-cls-7" transform="rotate(-180 29.5 63.25)"/><path d="M28 61.75h3v3h-3z" class="c24-cls-7" transform="rotate(-180 29.5 63.25)"/></g><path id="c74_three_quarter_crown" d="M43.19 39.48C43 45 42.16 50.1 40.77 51.65c-3.2 3.6-21.39 4.21-23 2.9-1.1-.89-2-7.77-2-15.06z" class="c24-cls-8 c24-cls-19" data-color-action="fill" style="fill:inherit" data-name="three quarter crown"/><path id="c74_crown" d="M18.74 23.21c-4.57 7.13-3 29.67-1 31.34 1.62 1.31 19.8.71 23-2.9s3.6-26-.8-29.64c-2.39-2.01-18.43-3.12-21.2 1.2z" class="c24-cls-8 c24-cls-19" data-color-action="fill" style="fill:inherit"/><path id="c74_cracked_surface_mesial" d="M19.66 46.19l-3.83-3.84h5.01l-5.01-4.74h5.01l-3.83-3.83" class="c24-cls-20" data-color-action="stroke" style="stroke:inherit" data-name="cracked surface mesial"/><path id="c74_cracked_surface_lingual" d="M30.83 46.19L27 42.35h5l-5-4.74h5l-3.83-3.83" class="c24-cls-20" data-color-action="stroke" style="stroke:inherit" data-name="cracked surface lingual"/><path id="c74_cracked_surface_lingual_V" d="M30.83 46.19L27 42.35h5l-5-4.74h5l-3.83-3.83" class="c24-cls-20" data-color-action="stroke" style="stroke:inherit" data-name="cracked surface lingual V"/><path id="c74_cracked_surface_distal" d="M41.66 46.19l-3.83-3.84h5l-5-4.74h5L39 33.78" class="c24-cls-20" data-color-action="stroke" style="stroke:inherit" data-name="cracked surface distal"/><g id="c74_chipped_surface_mesial" class="c24-cls-8" data-name="chipped surface mesial"><path d="M23.17 44.51l-8.33-8.33M14.84 44.51l8.33-8.33" class="c24-cls-21" data-color-action="stroke" style="stroke:inherit"/></g><g id="c74_chipped_surface_lingual" class="c24-cls-8" data-name="chipped surface lingual"><path d="M33.33 44.51L25 36.18M25 44.51l8.33-8.33" class="c24-cls-21" data-color-action="stroke" style="stroke:inherit"/></g><g id="c74_chipped_surface_lingual_V" class="c24-cls-8" data-name="chipped surface lingual V"><path d="M33.33 44.51L25 36.18M25 44.51l8.33-8.33" class="c24-cls-21" data-color-action="stroke" style="stroke:inherit"/></g><g id="c74_chipped_surface_distal" class="c24-cls-8" data-name="chipped surface distal"><path d="M43.33 44.51L35 36.18M35 44.51l8.33-8.33" class="c24-cls-21" data-color-action="stroke" style="stroke:inherit"/></g><g id="c74_buccal_abfraction" data-name="buccal abfraction"><path d="M28 61.75h3v3h-3z" class="c24-cls-7" transform="rotate(-180 29.5 63.25)"/><path d="M28 61.75h3v3h-3z" class="c24-cls-7" transform="rotate(-180 29.5 63.25)"/><path d="M28 61.75h3v3h-3z" class="c24-cls-7" transform="rotate(-180 29.5 63.25)"/></g><g id="c74_braces"><path d="M28 61.75h3v3h-3z" class="c24-cls-7" transform="rotate(-180 29.5 63.25)"/><path d="M28 61.75h3v3h-3z" class="c24-cls-7" transform="rotate(-180 29.5 63.25)"/><path d="M28 61.75h3v3h-3z" class="c24-cls-7" transform="rotate(-180 29.5 63.25)"/></g><g id="c74_apicoectomy"><path d="M28 61.75h3v3h-3z" class="c24-cls-7" transform="rotate(-180 29.5 63.25)"/><path d="M28 61.75h3v3h-3z" class="c24-cls-7" transform="rotate(-180 29.5 63.25)"/><path d="M28 61.75h3v3h-3z" class="c24-cls-7" transform="rotate(-180 29.5 63.25)"/></g><g id="c74_abscess"><path d="M28 61.75h3v3h-3z" class="c24-cls-7" transform="rotate(-180 29.5 63.25)"/><path d="M28 61.75h3v3h-3z" class="c24-cls-7" transform="rotate(-180 29.5 63.25)"/><path d="M28 61.75h3v3h-3z" class="c24-cls-7" transform="rotate(-180 29.5 63.25)"/></g><g id="c74_blunted_roots" data-name="blunted roots"><path d="M28 61.75h3v3h-3z" class="c24-cls-7" transform="rotate(-180 29.5 63.25)"/><path d="M28 61.75h3v3h-3z" class="c24-cls-7" transform="rotate(-180 29.5 63.25)"/><path d="M28 61.75h3v3h-3z" class="c24-cls-7" transform="rotate(-180 29.5 63.25)"/></g><g id="c74_root_amputation" data-name="root amputation"><path d="M28 61.75h3v3h-3z" class="c24-cls-7" transform="rotate(-180 29.5 63.25)"/><path d="M28 61.75h3v3h-3z" class="c24-cls-7" transform="rotate(-180 29.5 63.25)"/><path d="M28 61.75h3v3h-3z" class="c24-cls-7" transform="rotate(-180 29.5 63.25)"/></g><g id="c74_missing_crown" data-name="missing crown"><path d="M28 61.75h3v3h-3z" class="c24-cls-7" transform="rotate(-180 29.5 63.25)"/><path d="M28 61.75h3v3h-3z" class="c24-cls-7" transform="rotate(-180 29.5 63.25)"/><path d="M28 61.75h3v3h-3z" class="c24-cls-7" transform="rotate(-180 29.5 63.25)"/><path d="M2 2h55v61.98H2z" class="c24-cls-13" transform="rotate(-180 29.5 32.99)"/></g><g id="c74_missing_tooth" data-name="missing tooth"><path d="M18.74 23.21c-4.57 7.13-3 29.67-1 31.34 1.62 1.31 19.8.71 23-2.9s3.6-26-.8-29.64c-2.39-2.01-18.43-3.12-21.2 1.2z" class="c24-cls-2"/><path d="M18.74 23.21c-4.57 7.13-3 29.67-1 31.34 1.62 1.31 19.8.71 23-2.9s3.6-26-.8-29.64c-2.39-2.01-18.43-3.12-21.2 1.2z" class="c24-cls-13"/><path d="M18.85 31.14c.19-1.71 1.85-6.64 3.8-7.06a35.28 35.28 0 0 1 8.51-.72c2.17.18 4.71.36 6.34 1.27 1.15.64 2 4.89 2.17 6s-.36 2.72-1.27.72-2-5.07-5.07-5.25-5.43-.72-6.7.18-2.59 0-3.44.36c-1.45.54-2.17 2-3.08 4.17-.5 1.19-1.44 1.96-1.26.33zM42.16 48.32A19.19 19.19 0 0 1 39 50.7c-2 1.09-5.25 1.09-9.06 1.45s-10.14.91-12.13-.36a7.06 7.06 0 0 1-1.22-1c.34 2 .77 3.4 1.22 3.76 1.62 1.31 19.8.71 23-2.9a8.33 8.33 0 0 0 1.35-3.33z" class="c24-cls-13"/></g><g id="c74_maryland_bridge_pontic" class="c24-cls-8" data-name="maryland bridge pontic"><path d="M18.74 23.21c-4.57 7.13-3 29.67-1 31.34 1.62 1.31 19.8.71 23-2.9s3.6-26-.8-29.64c-2.39-2.01-18.43-3.12-21.2 1.2z" class="c24-cls-14" data-color-action="fill" style="fill:inherit"/><path d="M2 33.37h55v7.67H2z" class="c24-cls-14" transform="rotate(-180 29.5 37.205)" data-color-action="fill" style="fill:inherit"/></g><g id="c74_maryland_bridge_abutment_mesial" class="c24-cls-8" data-name="maryland bridge abutment mesial"><path d="M2 34.17h20.42v7.67H2z" class="c24-cls-14" data-color-action="fill" style="fill:inherit"/><ellipse cx="21.19" cy="38.01" class="c24-cls-14" rx="5.61" ry="12.9" data-color-action="fill" style="fill:inherit"/></g><g id="c74_maryland_bridge_abutment_distal" class="c24-cls-8" data-name="maryland bridge abutment distal"><path d="M36.58 34.17H57v7.67H36.58z" class="c24-cls-14" data-color-action="fill" style="fill:inherit"/><ellipse cx="37.81" cy="38.01" class="c24-cls-14" rx="5.61" ry="12.9" data-color-action="fill" style="fill:inherit"/></g><g id="c74_maryland_bridge_abutment" class="c24-cls-8" data-name="maryland bridge abutment"><path d="M2 34.17h20.42v7.67H2zM36.58 34.17H57v7.67H36.58z" class="c24-cls-14" data-color-action="fill" style="fill:inherit"/><ellipse cx="37.81" cy="38.01" class="c24-cls-14" rx="5.61" ry="12.9" data-color-action="fill" style="fill:inherit"/><ellipse cx="21.19" cy="38.01" class="c24-cls-14" rx="5.61" ry="12.9" data-color-action="fill" style="fill:inherit"/></g><g id="c74_bridge_abutment_mesial" class="c24-cls-8" data-name="bridge abutment mesial"><path d="M18.74 23.21c-4.57 7.13-3 29.67-1 31.34 1.62 1.31 19.8.71 23-2.9s3.6-26-.8-29.64c-2.39-2.01-18.43-3.12-21.2 1.2z" class="c24-cls-11" data-color-action="fill" style="fill:inherit"/><path d="M2 33.6h34.98v7.67H2z" class="c24-cls-11" transform="rotate(-180 19.49 37.43)" data-color-action="fill" style="fill:inherit"/></g><g id="c74_bridge_abutment_distal" class="c24-cls-8" data-name="bridge abutment distal"><path d="M18.74 23.21c-4.57 7.13-3 29.67-1 31.34 1.62 1.31 19.8.71 23-2.9s3.6-26-.8-29.64c-2.39-2.01-18.43-3.12-21.2 1.2z" class="c24-cls-11" data-color-action="fill" style="fill:inherit"/><path d="M22.02 33.6H57v7.67H22.02z" class="c24-cls-11" transform="rotate(-180 39.51 37.43)" data-color-action="fill" style="fill:inherit"/></g><g id="c74_bridge_abutment" class="c24-cls-8" data-name="bridge abutment"><path d="M18.74 23.21c-4.57 7.13-3 29.67-1 31.34 1.62 1.31 19.8.71 23-2.9s3.6-26-.8-29.64c-2.39-2.01-18.43-3.12-21.2 1.2z" class="c24-cls-11" data-color-action="fill" style="fill:inherit"/><path d="M2 33.6h55v7.67H2z" class="c24-cls-11" transform="rotate(-180 29.5 37.43)" data-color-action="fill" style="fill:inherit"/></g><g id="c74_bridge_pontic" class="c24-cls-8" data-name="bridge pontic"><path d="M18.74 23.21c-4.57 7.13-3 29.67-1 31.34 1.62 1.31 19.8.71 23-2.9s3.6-26-.8-29.64c-2.39-2.01-18.43-3.12-21.2 1.2z" class="c24-cls-11" data-color-action="fill" style="fill:inherit"/><path d="M2 33.6h55v7.67H2z" class="c24-cls-11" transform="rotate(-180 29.5 37.43)" data-color-action="fill" style="fill:inherit"/></g><g id="c74_implant_mini" data-name="implant mini"><path d="M2 2h55v61.98H2z" class="c24-cls-13" transform="rotate(-180 29.5 32.99)"/><path d="M29.28 0h.44l1 8.5v40.83h-2.44V8.5l1-8.5z" class="c24-cls-11" data-color-action="fill" style="fill:inherit"/><path d="M29.58 0h.07l.4 8.5v40.83h-.37V8.5l-.1-8.5z" class="c24-cls-16"/><path d="M28.28 48.7h2.44v.63h-2.44z" class="c24-cls-17" transform="rotate(-180 29.5 49.015)" data-color-action="fill" style="fill:inherit"/><g class="c24-cls-18"><path d="M30.72 48.7l-2.44-1v.63l2.44 1v-.63zM30.72 47.26l-2.44-1v.63l2.44 1v-.63zM30.72 45.81l-2.44-1v.63l2.44 1v-.63zM30.72 44.36l-2.44-1V44l2.44 1v-.64zM30.72 42.92l-2.44-1v.63l2.44 1v-.63zM30.72 41.47l-2.44-1v.63l2.44 1.01v-.64zM30.72 40.03l-2.44-1v.63l2.44 1v-.63zM30.72 38.58l-2.44-1v.63l2.44 1.01v-.64zM30.72 37.14l-2.44-1v.63l2.44 1v-.63zM30.72 35.69l-2.44-1v.63l2.44 1v-.63zM30.72 34.25l-2.44-1.01v.64l2.44 1v-.63zM30.72 32.8l-2.44-1v.63l2.44 1v-.63zM30.72 31.36l-2.44-1v.63l2.44 1v-.63zM30.72 29.91l-2.44-1v.63l2.44 1v-.63zM30.72 28.46l-2.44-1v.64l2.44 1v-.64zM30.72 27.02l-2.44-1v.63l2.44 1v-.63zM30.72 25.57l-2.44-1v.63l2.44 1.01v-.64zM30.72 24.13l-2.44-1v.63l2.44 1v-.63zM30.72 22.68l-2.44-1v.63l2.44 1.01v-.64zM30.72 21.24l-2.44-1v.63l2.44 1v-.63zM30.72 19.79l-2.44-1v.63l2.44 1v-.63zM30.72 18.35l-2.44-1.01v.64l2.44 1v-.63zM30.72 16.9l-2.44-1v.63l2.44 1v-.63zM30.72 15.46l-2.44-1v.63l2.44 1v-.63zM30.72 14.01l-2.44-1v.63l2.44 1v-.63zM30.72 12.56l-2.44-1v.64l2.44 1v-.64zM30.72 11.12l-2.44-1v.63l2.44 1v-.63zM30.72 9.67l-2.44-1v.63l2.44 1.01v-.64zM30.72 8.5l-.03-.29-2.27-.92-.07.6 2.37.97V8.5zM30.51 6.7l-1.93-.79-.07.6 2.08.85-.08-.66zM30.33 5.18l-1.58-.65-.08.6 1.74.71-.08-.66zM30.15 3.66l-1.24-.51-.07.6 1.39.57-.08-.66zM29.97 2.14l-.9-.37-.07.6 1.05.43-.08-.66zM29.8.62l-.57-.23-.07.6.71.3-.07-.67z" class="c24-cls-17" data-color-action="fill" style="fill:inherit"/></g><circle cx="29.5" cy="53.21" r="2.24" class="c24-cls-11" data-color-action="fill" style="fill:inherit"/><path d="M27.67 48.99h3.67v3h-3.67z" class="c24-cls-11" transform="rotate(-180 29.5 50.49)" data-color-action="fill" style="fill:inherit"/><path d="M29.96 48.99h.55v3h-.55z" class="c24-cls-16"/><path d="M30.3 54.56h.21a2.32 2.32 0 0 0 .49-1.28 2.37 2.37 0 0 0-.52-1.3H30a2 2 0 0 1 .73 1.37 1.5 1.5 0 0 1-.43 1.21z" class="c24-cls-16"/><path d="M28.28 42.63h2.44v.63h-2.44z" class="c24-cls-17" transform="rotate(-180 29.5 42.95)" data-color-action="fill" style="fill:inherit"/><path d="M26.89 49.01h5.22l-.87-5.71h-3.48l-.87 5.71z" class="c24-cls-11" data-color-action="fill" style="fill:inherit"/><path d="M30.15 49.01h.79l-.48-5.71h-.53l.22 5.71z" class="c24-cls-16"/></g><g id="c74_implant_cylinder" data-name="implant cylinder"><path d="M2 2h55v61.98H2z" class="c24-cls-13" transform="rotate(-180 29.5 32.99)"/><path d="M26.17 3h6.67v49.33h-6.67z" class="c24-cls-11" transform="rotate(-180 29.5 27.665)" data-color-action="fill" style="fill:inherit"/><path d="M24.5 0h10v3h-10z" class="c24-cls-11" transform="rotate(-180 29.5 1.5)" data-color-action="fill" style="fill:inherit"/><path d="M30 3h1v49.33h-1z" class="c24-cls-16" transform="rotate(-180 30.5 27.665)"/><path d="M30.75 0h1.5v3h-1.5z" class="c24-cls-16" transform="rotate(-180 31.5 1.5)"/><path d="M24.5 52.36h10v3h-10z" class="c24-cls-11" transform="rotate(-180 29.5 53.86)" data-color-action="fill" style="fill:inherit"/><path d="M30.75 52.36h1.5v3h-1.5z" class="c24-cls-16" transform="rotate(-180 31.5 53.86)"/><path d="M26.17 3h6.67v.63h-6.67z" class="c24-cls-17" transform="rotate(-180 29.5 3.315)" data-color-action="fill" style="fill:inherit"/><path d="M26.17 51.7h6.67v.63h-6.67z" class="c24-cls-17" transform="rotate(-180 29.5 52.015)" data-color-action="fill" style="fill:inherit"/><g class="c24-cls-18"><path d="M26.17 50.7l6.66 1v.63l-6.66-1v-.63zM26.17 49.25l6.66 1v.63l-6.66-1v-.63zM26.17 47.81l6.66 1v.63l-6.66-1v-.63zM26.17 46.36l6.66 1v.63l-6.66-1v-.63zM26.17 44.92l6.66 1v.63l-6.66-1v-.63zM26.17 43.47l6.66 1v.63l-6.66-1v-.63zM26.17 42.02l6.66 1v.64l-6.66-1v-.64zM26.17 40.58l6.66 1v.63l-6.66-1v-.63zM26.17 39.13l6.66 1v.64l-6.66-1v-.64zM26.17 37.69l6.66 1v.63l-6.66-1v-.63zM26.17 36.24l6.66 1v.64l-6.66-1v-.64zM26.17 34.8l6.66 1v.63l-6.66-1v-.63zM26.17 33.35l6.66 1v.63l-6.66-1v-.63zM26.17 31.91l6.66 1v.63l-6.66-1v-.63zM26.17 30.46l6.66 1v.63l-6.66-1v-.63zM26.17 29.02l6.66 1v.63l-6.66-1v-.63zM26.17 27.57l6.66 1v.63l-6.66-1v-.63zM26.17 26.13l6.66 1v.63l-6.66-1v-.63zM26.17 24.68l6.66 1v.63l-6.66-1v-.63zM26.17 23.23l6.66 1v.64l-6.66-1v-.64zM26.17 21.79l6.66 1v.63l-6.66-1v-.63zM26.17 20.34l6.66 1v.64l-6.66-1v-.64zM26.17 18.9l6.66 1v.63l-6.66-1v-.63zM26.17 17.45l6.66 1v.64l-6.66-1.01v-.63zM26.17 16.01l6.66 1v.63l-6.66-1v-.63zM26.17 14.56l6.66 1v.63l-6.66-1v-.63zM26.17 13.12l6.66 1v.63l-6.66-1v-.63zM26.17 11.67l6.66 1v.63l-6.66-1v-.63zM26.17 10.22l6.66 1v.64l-6.66-1v-.64zM26.17 8.78l6.66 1v.63l-6.66-1v-.63zM26.17 7.33l6.66 1.01v.63l-6.66-1v-.64zM26.17 5.89l6.66 1v.63l-6.66-1v-.63zM26.17 4.44l6.66 1v.64l-6.66-1v-.64zM26.17 3l6.66 1v.63l-6.66-1V3z" class="c24-cls-17" data-color-action="fill" style="fill:inherit"/></g></g><g id="c74_implant_blade" data-name="implant blade"><path d="M2 2h55v61.98H2z" class="c24-cls-13" transform="rotate(-180 29.5 32.99)"/><path d="M26.17 3.03h6.67v49.33h-6.67z" class="c24-cls-11" transform="rotate(-180 29.5 27.69)" data-color-action="fill" style="fill:inherit"/><path d="M24.5 52.36h10v3h-10z" class="c24-cls-11" transform="rotate(-180 29.5 53.86)" data-color-action="fill" style="fill:inherit"/><path d="M30 3.03h1v49.33h-1z" class="c24-cls-16" transform="rotate(-180 30.5 27.69)"/><path d="M30.75 52.36h1.5v3h-1.5z" class="c24-cls-16" transform="rotate(-180 31.5 53.86)"/><path d="M26.17 51.73h6.67v.63h-6.67z" class="c24-cls-17" transform="rotate(-180 29.5 52.045)" data-color-action="fill" style="fill:inherit"/></g><path id="c74_border" d="M0 0h59v66H0z" class="c24-cls-7" transform="rotate(-180 29.5 33)"/></defs></g></svg>