<svg version="1.1" xmlns="http://www.w3.org/2000/svg" xmlns:xlink="http://www.w3.org/1999/xlink" x="0px" y="0px" viewBox="0 0 59 283" style="enable-background:new 0 0 59 161;" xml:space="preserve"><defs><style type="text/css">.aG-cls-2{fill:#C4C6C7;stroke:#C4C6C7;stroke-width:5;stroke-miterlimit:10;}.aG-cls-3{fill:#F5D7CF;stroke:none;}.aG-cls-4{fill:#FAE8E3;stroke:none;}.aG-cls-5{fill:#F2C6BC;stroke:none;}.aG-cls-6{fill:#EEEFEF;stroke:none;}.aG-cls-7{fill:#E2E3E4;stroke:none;}.aG-cls-8{fill:#FBFBFB;stroke:none;}.aG-cls-9{fill:#929497;stroke:none;}.aG-cls-10{font-family:'ProximaNova-Semibold',sans-serif;}.aG-cls-11{font-size:15px;}.aG-cls-12{opacity:0.55;fill:#3C3D3D;stroke:none;}.aG-cls-13{fill:#FFD403;stroke:none;}.aG-cls-14{fill:none;stroke:#C52636;stroke-width:3.622;stroke-miterlimit:10;}.aG-cls-15{font-family:'ProximaNova-Bold',sans-serif;}.aG-cls-16{font-size:13.6587px;}.aG-cls-17{fill:#28418B;stroke:none;}.aG-cls-18{fill:#787878;stroke:none;}.aG-cls-19{fill:none;stroke:#C52636;stroke-width:2;stroke-miterlimit:10;}.aG-cls-20{fill:#C52636;stroke:none;}.aG-cls-21{fill:none;stroke:none;}.aG-cls-22{fill:none;stroke:#C52636;stroke-width:2;stroke-linecap:round;stroke-miterlimit:10;}.aG-cls-23{fill:#C5C7C9;stroke:none;}.aG-cls-24{fill:#FFF;stroke:none;}.aG-cls-25{fill:none;stroke:#28418B;stroke-width:2;stroke-miterlimit:10;}.aG-cls-26{fill:#FFEF3E;stroke:none;}.aG-cls-27{fill:none;stroke:#C52636;stroke-width:1.25;stroke-miterlimit:10;}.aG-cls-28{fill:#9B9999;stroke:none;}.aG-cls-29{fill:#DBDBDC;stroke:none;}.aG-cls-30{fill:#3C3D3D;stroke:none;}.cG-cls-2{fill:#C4C6C7;stroke:#C4C6C7;stroke-width:5;stroke-miterlimit:10;}.cG-cls-3{fill:#EEEFEF;stroke:none;}.cG-cls-4{fill:#FBFBFB;stroke:none;}.cG-cls-5{fill:#E2E3E4;stroke:none;}.cG-cls-6{opacity:0.55;fill:#3C3D3D;stroke:none;}.cG-cls-7{fill:#28418B;stroke:none;}.cG-cls-8{fill:#787878;stroke:none;}.cG-cls-9{fill:#FFF;stroke:none;}.cG-cls-10{fill:#FFEF3E;stroke:none;}.cG-cls-11{fill:none;stroke:#C52636;stroke-width:1.25;stroke-miterlimit:10;}.cG-cls-12{fill:none;stroke:none;}.aG-cls-31{font-family:'ProximaNova-Semibold',sans-serif;font-size:33px;fill:#28418B;stroke:none;}.aG-msng-cls-1{isolation:isolate;}.aG-msng-cls-2{fill:#C4C6C7;stroke:#C4C6C7;stroke-width:5px;}.aG-msng-cls-11,.aG-msng-cls-2{stroke-miterlimit:10;}.aG-msng-cls-3{fill:#F5D7CF;stroke:none;}.aG-msng-cls-4{fill:#FAE8E3;stroke:none;}.aG-msng-cls-5{fill:#F2C6BC;stroke:none;}.aG-msng-cls-6{fill:#EEEFEF;stroke:none;}.aG-msng-cls-7{fill:#E2E3E4;stroke:none;}.aG-msng-cls-8{fill:#FBFBFB;stroke:none;}.aG-msng-cls-9{font-size:15px;fill:#929497;font-family:ProximaNova-Semibold,Proxima Nova;font-weight:700;stroke:none;}.aG-msng-cls-10{}.aG-msng-cls-11,.aG-msng-cls-12{fill:none;stroke:none;}.aG-msng-cls-11{stroke:#787878;stroke-width:6.25px;}</style></defs><title>ToothG_Layered</title><g class="aG-cls-1"><g id="_Ga">	<g>		<path class="aG-cls-2" d="M18.7,128.8c0.8-2.7,1.8-4.6,3.2-6c0.3-5.5,0.9-12,1.9-18.7c2.2-15.5,5.7-30.2,7-30.2    c1.6-0.1,3.5,14.8,4.7,30.1c0.5,6.5,0.9,12.8,1.1,18.5c1.1,0.8,1.9,1.9,2.5,3.4c1.7,4.8,3.7,16,3,18.8c-0.7,2.8-8.6,3.4-12.3,3.7    c-3.7,0.3-11.5-1.1-12.5-3.1C16,142.5,17.3,133.9,18.7,128.8z" />		<path class="aG-cls-3" d="M21.8,127.2c0.1-6.3,0.8-14.5,2-23c2.2-15.5,5.7-30.2,7-30.2c1.6-0.1,3.5,14.8,4.7,30.1    c0.7,8.7,1.2,17.2,1.2,23.9C36.7,130,21.8,129.4,21.8,127.2z" />		<g>			<path class="aG-cls-4" d="M29.7,126.3l3.5,0.5c0,0-0.2-16.4-0.3-28.6c-0.2-19.6-1.6-22.2-1.9-22.7c-0.3-0.5,0.6,2.1,0.3,16.6     C31.2,101,29.7,126.3,29.7,126.3z" />		</g>		<g>			<path class="aG-cls-5" d="M24.8,103.5c0.7-6.7,1.6-13.2,2.5-18.6c-1.2,5.4-2.5,12.3-3.5,19.3c-1.2,8.5-2,16.7-2,23     c0,0.4,0.5,0.8,1.3,1.1C23.2,121.4,23.8,112.6,24.8,103.5z" />			<path class="aG-cls-5" d="M35.5,104c-0.9-11.4-2.1-22.5-3.4-27.4c0.9,6.1,1.7,16.3,2.3,26.8c0.6,9.2,1,18.2,1,25.5     c0.8-0.2,1.3-0.5,1.3-0.8C36.7,121.2,36.2,112.7,35.5,104z" />		</g>		<path class="aG-cls-6" d="M17.3,145.2c-1.3-2.8,0-11.4,1.4-16.4c1.6-5.8,4.6-8.2,9.6-8.3c5-0.1,9.2,1,10.8,5.4c1.7,4.8,3.7,16,3,18.8    c-0.7,2.8-8.6,3.4-12.3,3.7C26.1,148.7,18.3,147.3,17.3,145.2z" />		<g>			<path class="aG-cls-7" d="M20.5,129.2c0.8-3.9,2-6.4,3.7-7.9c-2.6,1.1-4.4,3.5-5.5,7.5c-1.4,5.1-2.7,13.7-1.4,16.4     c0.2,0.5,0.8,0.9,1.5,1.2C18.5,142.1,19.5,134.1,20.5,129.2z" />			<path class="aG-cls-7" d="M39.1,125.9c-0.8-2.3-2.4-3.7-4.3-4.5c1.2,0.9,2.1,2.4,2.7,4.4c1.3,4.9,2.9,16,2.8,20.6     c1-0.5,1.7-1.1,1.8-1.8C42.8,142,40.8,130.7,39.1,125.9z" />		</g>		<path class="aG-cls-8" d="M34.9,147.9c-0.1-4-0.4-10.3-1-17.7c-0.5-5.7-1.2-8.3-1.7-9.4c-0.6-0.1-1.3-0.2-2-0.2c0.2,1.3,0.5,4.3,0.7,11    c0.2,6.1-0.1,12.8-0.3,16.8C31.7,148.2,33.3,148.1,34.9,147.9z" />	</g>	<text transform="matrix(1 0 0 1 24.1224 20.508)" class="aG-cls-9 aG-cls-10 aG-cls-11">G</text></g><defs><g id="aG_bone_graft" style="">	<g>		<g>							<ellipse transform="matrix(0.1539 -0.9881 0.9881 0.1539 -106.1107 120.5387)" class="aG-cls-14" cx="17.3" cy="122.2" rx="12.7" ry="12.7" data-color-action="stroke" style="stroke:inherit" />			<line class="aG-cls-14" x1="10.3" y1="112.6" x2="24.3" y2="131.8" data-color-action="stroke" style="stroke:inherit" />		</g>		<text transform="matrix(1 0 0 1 6.7033 126.808)" class="aG-cls-15 aG-cls-16">NA</text>	</g></g><g id="aG_splinted_crowns" style="">	<g>		<g>							<ellipse transform="matrix(0.1539 -0.9881 0.9881 0.1539 -106.1107 120.5387)" class="aG-cls-14" cx="17.3" cy="122.2" rx="12.7" ry="12.7" data-color-action="stroke" style="stroke:inherit" />			<line class="aG-cls-14" x1="10.3" y1="112.6" x2="24.3" y2="131.8" data-color-action="stroke" style="stroke:inherit" />		</g>		<text transform="matrix(1 0 0 1 6.7033 126.808)" class="aG-cls-15 aG-cls-16">NA</text>	</g></g><g id="aG_mesial" style="">	<path class="aG-cls-12" d="M20.6,134.7c0.4,2.2,0.2,4.3,0.8,5.8l-4.6,2.3c-0.2-2.8,0.3-7,1.1-10.6C19.2,132.6,20.4,133.3,20.6,134.7z" data-color-action="fill" style="fill:inherit" /></g><g id="aG_line_angle_2" style="">	<path class="aG-cls-12" d="M23.3,142.4c0.7,0.3,1.6,0.5,2.6,0.7l-1.5,5c-3.3-0.5-6.5-1.5-7.1-2.8c-0.3-0.6-0.4-1.4-0.5-2.4l4.6-2.3   C21.7,141.3,22.3,142,23.3,142.4z" data-color-action="fill" style="fill:inherit" /></g><g id="aG_facial" style="">	<path class="aG-cls-12" d="M33.8,143.2l1.3,4.6c-1.9,0.3-3.9,0.4-5.3,0.5c-1.4,0.1-3.4,0-5.4-0.3l1.5-5   C28.4,143.5,31.6,143.4,33.8,143.2z" data-color-action="fill" style="fill:inherit" /></g><g id="aG_line_angle_1" style="">	<path class="aG-cls-12" d="M35.1,143c1.1-0.2,1.7-1.1,2.2-2.2l4.9,2.8c0,0.4-0.1,0.8-0.1,1.1c-0.5,1.8-3.7,2.7-7,3.2l-1.3-4.6   C34.3,143.2,34.7,143.1,35.1,143z" data-color-action="fill" style="fill:inherit" /></g><g id="aG_distal" style="">	<path class="aG-cls-12" d="M42.2,143.7l-4.9-2.8c0.7-1.6,0.9-3.7,1.1-5.2c0.2-1.5,1.2-2.4,2.5-3C41.7,136.8,42.3,141.3,42.2,143.7z" data-color-action="fill" style="fill:inherit" /></g><g id="aG_mid_facial" style="">	<ellipse class="aG-cls-12" cx="29.5" cy="132.9" rx="3.5" ry="5.6" data-color-action="fill" style="fill:inherit" /></g><g id="aG_facial_V" style="">	<path class="aG-cls-12" d="M23.7,121.6c1.3-0.7,2.8-1,4.6-1c2.8-0.1,5.3,0.3,7.3,1.3c-1.6,1.2-3.6,1.9-5.8,1.9   C27.5,123.8,25.3,122.9,23.7,121.6z" data-color-action="fill" style="fill:inherit" /></g><g id="aG_veneer" style="">	<g>		<g>							<ellipse transform="matrix(0.1539 -0.9881 0.9881 0.1539 -106.1107 120.5387)" class="aG-cls-14" cx="17.3" cy="122.2" rx="12.7" ry="12.7" data-color-action="stroke" style="stroke:inherit" />			<line class="aG-cls-14" x1="10.3" y1="112.6" x2="24.3" y2="131.8" data-color-action="stroke" style="stroke:inherit" />		</g>		<text transform="matrix(1 0 0 1 6.7033 126.808)" class="aG-cls-15 aG-cls-16">NA</text>	</g></g><g id="aG_tissue_graft" style="">	<g>		<g>							<ellipse transform="matrix(0.1539 -0.9881 0.9881 0.1539 -106.1107 120.5387)" class="aG-cls-14" cx="17.3" cy="122.2" rx="12.7" ry="12.7" data-color-action="stroke" style="stroke:inherit" />			<line class="aG-cls-14" x1="10.3" y1="112.6" x2="24.3" y2="131.8" data-color-action="stroke" style="stroke:inherit" />		</g>		<text transform="matrix(1 0 0 1 6.7033 126.808)" class="aG-cls-15 aG-cls-16">NA</text>	</g></g><g id="aG_tipped_facial" style="">	<g>		<path class="aG-cls-17" d="M32.9,151.7c-1.2,3.2-4.5,3.6-7.2-5c-0.5-1.5-4.2-1.7-3.6,0c1.9,5.7,5,9.6,8.5,8.7c1.2-0.3,2.3-1.6,2.8-3.2    C33.2,152.1,33,151.9,32.9,151.7z" data-color-action="fill" style="fill:inherit" />		<polygon class="aG-cls-17" points="31,149 18.8,149 21.6,139.9   " data-color-action="fill" style="fill:inherit" />	</g></g><g id="aG_surface_restoration_incisal" style="">	<path class="aG-cls-18" d="M29.8,148.4c-3.5,0.3-11-1-12.3-3l6.3-4.6l0,0c1.4,0.3,3.4,0.6,5,0.6c0,0,0,0,0,0c0.2,0,0.3,0,0.5,0l0.2,0   c2.4-0.2,4.3-0.4,5.6-0.6c0-0.1,0-0.1,0-0.2l7,4.2C41.1,147.6,33.4,148.1,29.8,148.4z" data-color-action="fill" style="fill:inherit" /></g><g id="aG_surface_restoration_mesial" style="">	<path class="aG-cls-18" d="M17.3,145.2c-1-2.2-0.4-8.1,0.6-13c3.1-1.2,5.5-3.6,6.7-6.7c-0.5,6.3-0.8,13.7-0.8,15.2l-6.3,4.6   C17.4,145.4,17.4,145.3,17.3,145.2z" data-color-action="fill" style="fill:inherit" /></g><g id="aG_surface_restoration_facial" style="">	<g>		<path class="aG-cls-18" d="M33.2,123.5c0.2,0.8,0.4,1.6,0.7,2.3c0.5,5.9,0.9,12.8,1.1,14.9c-1.3,0.2-3.2,0.4-5.6,0.6l-0.2,0    c-0.2,0-0.3,0-0.5,0c0,0,0,0,0,0c-1.6,0-3.5-0.3-5-0.6c0.1-1.5,0.4-8.9,0.8-15.2c0.3-0.7,0.5-1.4,0.6-2.1c1.3,0.4,2.6,0.6,4.1,0.6    C30.7,124.1,32,123.9,33.2,123.5z" data-color-action="fill" style="fill:inherit" />			</g></g><g id="aG_surface_restoration_facial_V" style="">	<g>				<path class="aG-cls-18" d="M25.4,120.9c0.9-0.2,1.9-0.4,2.9-0.4c1.7,0,3.3,0.1,4.7,0.4c0,0.1,0,0.2,0,0.3c0,0.8,0.1,1.5,0.2,2.3    c-1.3,0.4-2.6,0.6-4,0.6c-1.4,0-2.8-0.2-4.1-0.6c0.1-0.6,0.2-1.3,0.2-2C25.4,121.3,25.4,121.1,25.4,120.9z" data-color-action="fill" style="fill:inherit" />	</g></g><g id="aG_surface_restoration_distal" style="">	<path class="aG-cls-18" d="M34,125.9c1.3,2.9,3.7,5.2,6.8,6.2c1.1,5,1.8,10.8,1.3,12.6c0,0,0,0.1,0,0.1l-7-4.2   C34.8,138.3,34.5,131.6,34,125.9z" data-color-action="fill" style="fill:inherit" /></g><g id="aG_supra-erupted" style="">	<g>		<g>							<ellipse transform="matrix(0.1539 -0.9881 0.9881 0.1539 -106.1107 120.5387)" class="aG-cls-14" cx="17.3" cy="122.2" rx="12.7" ry="12.7" data-color-action="stroke" style="stroke:inherit" />			<line class="aG-cls-14" x1="10.3" y1="112.6" x2="24.3" y2="131.8" data-color-action="stroke" style="stroke:inherit" />		</g>		<text transform="matrix(1 0 0 1 6.7033 126.808)" class="aG-cls-15 aG-cls-16">NA</text>	</g></g><g id="aG_sub-erupted" style="">	<g>		<g>			<line class="aG-cls-19" x1="29.5" y1="112" x2="29.5" y2="118.9" data-color-action="stroke" style="stroke:inherit" />			<g>				<polygon class="aG-cls-20" points="25.5,113.2 29.5,106.3 33.5,113.2     " data-color-action="fill" style="fill:inherit" />			</g>		</g>	</g></g><g id="aG_sealant" style=""><text class="aG-cls-31" transform="matrix(1 0 0 1 19.7 200.47)" data-color-action="fill" style="fill:inherit">S</text></g><g id="aG_tipped_lingual" style="">	<rect x="28" y="3.2" transform="matrix(-1 -4.486867e-11 4.486867e-11 -1 59 9.5)" class="aG-cls-21" width="3" height="3" /></g><g id="aG_rotated_mesial" style="">	<g>		<path class="aG-cls-17" d="M50.5,127.1c2.8,1.7,2.2,5.1-9.6,5.5c-5,0.1-8.4,0-8.4,0l0.1,2.8c0,0,0.9,0.1,7.7-0.2    c7.2-0.3,13.2-1.7,12.9-5.6c-0.1-1-1-2.1-2.2-2.7C50.9,126.9,50.6,127,50.5,127.1z" data-color-action="fill" style="fill:inherit" />		<polygon class="aG-cls-17" points="38.6,128.3 38.6,139.4 28.8,133.9   " data-color-action="fill" style="fill:inherit" />	</g></g><g id="aG_rotated_distal" style="">	<g>		<path class="aG-cls-17" d="M8.2,127.1c-2.8,1.7-2.2,5.1,9.6,5.5c5,0.1,8.4,0,8.4,0l-0.1,2.8c0,0-0.9,0.1-7.7-0.2    c-7.2-0.3-13.2-1.7-12.9-5.6c0.1-1,1-2.1,2.2-2.7C7.9,126.9,8.1,127,8.2,127.1z" data-color-action="fill" style="fill:inherit" />		<polygon class="aG-cls-17" points="20.2,128.3 20.2,139.4 29.9,133.9   " data-color-action="fill" style="fill:inherit" />	</g></g><g id="aG_root_tips" style="">	<g>		<g>							<ellipse transform="matrix(0.1539 -0.9881 0.9881 0.1539 -106.1107 120.5387)" class="aG-cls-14" cx="17.3" cy="122.2" rx="12.7" ry="12.7" data-color-action="stroke" style="stroke:inherit" />			<line class="aG-cls-14" x1="10.3" y1="112.6" x2="24.3" y2="131.8" data-color-action="stroke" style="stroke:inherit" />		</g>		<text transform="matrix(1 0 0 1 6.7033 126.808)" class="aG-cls-15 aG-cls-16">NA</text>	</g></g><g id="aG_root_decay" style="">	<g>		<g>							<ellipse transform="matrix(0.1539 -0.9881 0.9881 0.1539 -106.1107 120.5387)" class="aG-cls-14" cx="17.3" cy="122.2" rx="12.7" ry="12.7" data-color-action="stroke" style="stroke:inherit" />			<line class="aG-cls-14" x1="10.3" y1="112.6" x2="24.3" y2="131.8" data-color-action="stroke" style="stroke:inherit" />		</g>		<text transform="matrix(1 0 0 1 6.7033 126.808)" class="aG-cls-15 aG-cls-16">NA</text>	</g></g><g id="aG_root_canal" style="">	<line class="aG-cls-22" x1="30.7" y1="77.4" x2="29.6" y2="118.5" data-color-action="stroke" style="stroke:inherit" /></g><g id="aG_root_abrasion" style="">	<g>		<g>							<ellipse transform="matrix(0.1539 -0.9881 0.9881 0.1539 -106.1107 120.5387)" class="aG-cls-14" cx="17.3" cy="122.2" rx="12.7" ry="12.7" data-color-action="stroke" style="stroke:inherit" />			<line class="aG-cls-14" x1="10.3" y1="112.6" x2="24.3" y2="131.8" data-color-action="stroke" style="stroke:inherit" />		</g>		<text transform="matrix(1 0 0 1 6.7033 126.808)" class="aG-cls-15 aG-cls-16">NA</text>	</g></g><g id="aG_post" style="">	<g>		<g>							<ellipse transform="matrix(0.1539 -0.9881 0.9881 0.1539 -106.1107 120.5387)" class="aG-cls-14" cx="17.3" cy="122.2" rx="12.7" ry="12.7" data-color-action="stroke" style="stroke:inherit" />			<line class="aG-cls-14" x1="10.3" y1="112.6" x2="24.3" y2="131.8" data-color-action="stroke" style="stroke:inherit" />		</g>		<text transform="matrix(1 0 0 1 6.7033 126.808)" class="aG-cls-15 aG-cls-16">NA</text>	</g></g><g id="aG_pins" style="">	<g>		<g>							<rect x="30.2" y="109.6" transform="matrix(-1 -4.561297e-11 4.561297e-11 -1 62.6813 241.1991)" class="aG-cls-18" width="2.3" height="22" data-color-action="fill" style="fill:inherit" />							<rect x="31.5" y="109.6" transform="matrix(-1 -4.267887e-11 4.267887e-11 -1 63.3637 241.1991)" class="aG-cls-23" width="0.3" height="22" />		</g>		<g>							<rect x="25.9" y="109.6" transform="matrix(-1 -4.481272e-11 4.481272e-11 -1 54.0674 241.1991)" class="aG-cls-18" width="2.3" height="22" data-color-action="fill" style="fill:inherit" />							<rect x="27.2" y="109.6" transform="matrix(-1 -4.801371e-11 4.801371e-11 -1 54.7499 241.1991)" class="aG-cls-23" width="0.3" height="22" />		</g>	</g></g><g id="aG_open_contact_mesial" style="">	<g>		<g>							<ellipse transform="matrix(0.1539 -0.9881 0.9881 0.1539 -106.1107 120.5387)" class="aG-cls-14" cx="17.3" cy="122.2" rx="12.7" ry="12.7" data-color-action="stroke" style="stroke:inherit" />			<line class="aG-cls-14" x1="10.3" y1="112.6" x2="24.3" y2="131.8" data-color-action="stroke" style="stroke:inherit" />		</g>		<text transform="matrix(1 0 0 1 6.7033 126.808)" class="aG-cls-15 aG-cls-16">NA</text>	</g></g><g id="aG_open_contact_distal" style="">	<g>		<g>							<ellipse transform="matrix(0.1539 -0.9881 0.9881 0.1539 -106.1107 120.5387)" class="aG-cls-14" cx="17.3" cy="122.2" rx="12.7" ry="12.7" data-color-action="stroke" style="stroke:inherit" />			<line class="aG-cls-14" x1="10.3" y1="112.6" x2="24.3" y2="131.8" data-color-action="stroke" style="stroke:inherit" />		</g>		<text transform="matrix(1 0 0 1 6.7033 126.808)" class="aG-cls-15 aG-cls-16">NA</text>	</g></g><g id="aG_mesial_drift" style="">	<g>		<g>			<line class="aG-cls-25" x1="26.9" y1="134.6" x2="37.8" y2="134.6" data-color-action="stroke" style="stroke:inherit" />			<g>				<polygon class="aG-cls-17" points="28.1,138.6 21.2,134.6 28.1,130.6     " data-color-action="fill" style="fill:inherit" />			</g>		</g>	</g></g><g id="aG_lingual_abfraction" style="">	<g>		<g>							<ellipse transform="matrix(0.1539 -0.9881 0.9881 0.1539 -106.1107 120.5387)" class="aG-cls-14" cx="17.3" cy="122.2" rx="12.7" ry="12.7" data-color-action="stroke" style="stroke:inherit" />			<line class="aG-cls-14" x1="10.3" y1="112.6" x2="24.3" y2="131.8" data-color-action="stroke" style="stroke:inherit" />		</g>		<text transform="matrix(1 0 0 1 6.7033 126.808)" class="aG-cls-15 aG-cls-16">NA</text>	</g></g><g id="aG_internal_root_resorption" style="">	<g>		<g>							<ellipse transform="matrix(0.1539 -0.9881 0.9881 0.1539 -106.1107 120.5387)" class="aG-cls-14" cx="17.3" cy="122.2" rx="12.7" ry="12.7" data-color-action="stroke" style="stroke:inherit" />			<line class="aG-cls-14" x1="10.3" y1="112.6" x2="24.3" y2="131.8" data-color-action="stroke" style="stroke:inherit" />		</g>		<text transform="matrix(1 0 0 1 6.7033 126.808)" class="aG-cls-15 aG-cls-16">NA</text>	</g></g><g id="aG_impacted_mesial" style="">	<g>		<g>							<ellipse transform="matrix(0.1539 -0.9881 0.9881 0.1539 -106.1107 120.5387)" class="aG-cls-14" cx="17.3" cy="122.2" rx="12.7" ry="12.7" data-color-action="stroke" style="stroke:inherit" />			<line class="aG-cls-14" x1="10.3" y1="112.6" x2="24.3" y2="131.8" data-color-action="stroke" style="stroke:inherit" />		</g>		<text transform="matrix(1 0 0 1 6.7033 126.808)" class="aG-cls-15 aG-cls-16">NA</text>	</g></g><g id="aG_impacted_distal" style="">	<g>		<g>							<ellipse transform="matrix(0.1539 -0.9881 0.9881 0.1539 -106.1107 120.5387)" class="aG-cls-14" cx="17.3" cy="122.2" rx="12.7" ry="12.7" data-color-action="stroke" style="stroke:inherit" />			<line class="aG-cls-14" x1="10.3" y1="112.6" x2="24.3" y2="131.8" data-color-action="stroke" style="stroke:inherit" />		</g>		<text transform="matrix(1 0 0 1 6.7033 126.808)" class="aG-cls-15 aG-cls-16">NA</text>	</g></g><g id="aG_gortex_membranes" style="">	<g>		<g>							<ellipse transform="matrix(0.1539 -0.9881 0.9881 0.1539 -106.1107 120.5387)" class="aG-cls-14" cx="17.3" cy="122.2" rx="12.7" ry="12.7" data-color-action="stroke" style="stroke:inherit" />			<line class="aG-cls-14" x1="10.3" y1="112.6" x2="24.3" y2="131.8" data-color-action="stroke" style="stroke:inherit" />		</g>		<text transform="matrix(1 0 0 1 6.7033 126.808)" class="aG-cls-15 aG-cls-16">NA</text>	</g></g><g id="aG_frenum_pull" style="">	<g>		<g>							<ellipse transform="matrix(0.1539 -0.9881 0.9881 0.1539 -106.1107 120.5387)" class="aG-cls-14" cx="17.3" cy="122.2" rx="12.7" ry="12.7" data-color-action="stroke" style="stroke:inherit" />			<line class="aG-cls-14" x1="10.3" y1="112.6" x2="24.3" y2="131.8" data-color-action="stroke" style="stroke:inherit" />		</g>		<text transform="matrix(1 0 0 1 6.7033 126.808)" class="aG-cls-15 aG-cls-16">NA</text>	</g></g><g id="aG_external_root_resorption" style="">	<g>		<g>							<ellipse transform="matrix(0.1539 -0.9881 0.9881 0.1539 -106.1107 120.5387)" class="aG-cls-14" cx="17.3" cy="122.2" rx="12.7" ry="12.7" data-color-action="stroke" style="stroke:inherit" />			<line class="aG-cls-14" x1="10.3" y1="112.6" x2="24.3" y2="131.8" data-color-action="stroke" style="stroke:inherit" />		</g>		<text transform="matrix(1 0 0 1 6.7033 126.808)" class="aG-cls-15 aG-cls-16">NA</text>	</g></g><g id="aG_diastema_mesial" style="">	<g>		<g>							<ellipse transform="matrix(0.1539 -0.9881 0.9881 0.1539 -106.1107 120.5387)" class="aG-cls-14" cx="17.3" cy="122.2" rx="12.7" ry="12.7" data-color-action="stroke" style="stroke:inherit" />			<line class="aG-cls-14" x1="10.3" y1="112.6" x2="24.3" y2="131.8" data-color-action="stroke" style="stroke:inherit" />		</g>		<text transform="matrix(1 0 0 1 6.7033 126.808)" class="aG-cls-15 aG-cls-16">NA</text>	</g></g><g id="aG_diastema_distal" style="">	<g>		<g>							<ellipse transform="matrix(0.1539 -0.9881 0.9881 0.1539 -106.1107 120.5387)" class="aG-cls-14" cx="17.3" cy="122.2" rx="12.7" ry="12.7" data-color-action="stroke" style="stroke:inherit" />			<line class="aG-cls-14" x1="10.3" y1="112.6" x2="24.3" y2="131.8" data-color-action="stroke" style="stroke:inherit" />		</g>		<text transform="matrix(1 0 0 1 6.7033 126.808)" class="aG-cls-15 aG-cls-16">NA</text>	</g></g><g id="aG_distal_drift" style="">	<g>		<g>			<line class="aG-cls-25" x1="32.1" y1="134.6" x2="21.2" y2="134.6" data-color-action="stroke" style="stroke:inherit" />			<g>				<polygon class="aG-cls-17" points="30.9,130.6 37.8,134.6 30.9,138.6     " data-color-action="fill" style="fill:inherit" />			</g>		</g>	</g></g><g id="aG_three_quarter_crown" style="">	<g>		<g>							<ellipse transform="matrix(0.1539 -0.9881 0.9881 0.1539 -106.1107 120.5387)" class="aG-cls-14" cx="17.3" cy="122.2" rx="12.7" ry="12.7" data-color-action="stroke" style="stroke:inherit" />			<line class="aG-cls-14" x1="10.3" y1="112.6" x2="24.3" y2="131.8" data-color-action="stroke" style="stroke:inherit" />		</g>		<text transform="matrix(1 0 0 1 6.7033 126.808)" class="aG-cls-15 aG-cls-16">NA</text>	</g></g><g id="aG_crown" style="">	<path class="aG-cls-26" d="M17.3,145.2c-1.3-2.8,0-11.4,1.4-16.4c1.6-5.8,4.6-8.2,9.6-8.3c5-0.1,9.2,1,10.8,5.4c1.7,4.8,3.7,16,3,18.8   c-0.7,2.8-8.6,3.4-12.3,3.7C26.1,148.7,18.3,147.3,17.3,145.2z" data-color-action="fill" style="fill:inherit" /></g><g id="aG_cracked_surface_incisal" style="">	<polyline class="aG-cls-27" points="28.8,140.8 32.7,144.6 27.7,144.6 32.7,149.4 27.7,149.4 31.5,153.2  " data-color-action="stroke" style="stroke:inherit" /></g><g id="aG_cracked_surface_mesial" style="">	<polyline class="aG-cls-27" points="18.2,128.8 22.1,132.7 17.1,132.7 22.1,137.4 17.1,137.4 20.9,141.2  " data-color-action="stroke" style="stroke:inherit" /></g><g id="aG_cracked_surface_facial" style="">	<polyline class="aG-cls-27" points="28.6,128.8 32.5,132.7 27.5,132.7 32.5,137.4 27.5,137.4 31.3,141.2  " data-color-action="stroke" style="stroke:inherit" /></g><g id="aG_cracked_surface_facial_V" style="">	<polyline class="aG-cls-27" points="28.6,128.8 32.5,132.7 27.5,132.7 32.5,137.4 27.5,137.4 31.3,141.2  " data-color-action="stroke" style="stroke:inherit" /></g><g id="aG_cracked_surface_distal" style="">	<polyline class="aG-cls-27" points="39.2,128.8 43.1,132.7 38.1,132.7 43.1,137.4 38.1,137.4 41.9,141.2  " data-color-action="stroke" style="stroke:inherit" /></g><g id="aG_chipped_surface_incisal" style="">	<g>		<line class="aG-cls-27" x1="34" y1="142.5" x2="25.7" y2="150.8" data-color-action="stroke" style="stroke:inherit" />		<line class="aG-cls-27" x1="25.7" y1="142.5" x2="34" y2="150.8" data-color-action="stroke" style="stroke:inherit" />	</g></g><g id="aG_chipped_surface_mesial" style="">	<g>		<line class="aG-cls-27" x1="24.4" y1="130.5" x2="16.1" y2="138.8" data-color-action="stroke" style="stroke:inherit" />		<line class="aG-cls-27" x1="16.1" y1="130.5" x2="24.4" y2="138.8" data-color-action="stroke" style="stroke:inherit" />	</g></g><g id="aG_chipped_surface_facial" style="">	<g>		<line class="aG-cls-27" x1="33.8" y1="130.5" x2="25.5" y2="138.8" data-color-action="stroke" style="stroke:inherit" />		<line class="aG-cls-27" x1="25.5" y1="130.5" x2="33.8" y2="138.8" data-color-action="stroke" style="stroke:inherit" />	</g></g><g id="aG_chipped_surface_facial_V" style="">	<g>		<line class="aG-cls-27" x1="33.8" y1="130.5" x2="25.5" y2="138.8" data-color-action="stroke" style="stroke:inherit" />		<line class="aG-cls-27" x1="25.5" y1="130.5" x2="33.8" y2="138.8" data-color-action="stroke" style="stroke:inherit" />	</g></g><g id="aG_chipped_surface_distal" style="">	<g>		<line class="aG-cls-27" x1="43.6" y1="130.5" x2="35.2" y2="138.8" data-color-action="stroke" style="stroke:inherit" />		<line class="aG-cls-27" x1="35.2" y1="130.5" x2="43.6" y2="138.8" data-color-action="stroke" style="stroke:inherit" />	</g></g><g id="aG_buccal_abfraction" style="">	<g>		<g>							<ellipse transform="matrix(0.1539 -0.9881 0.9881 0.1539 -106.1107 120.5387)" class="aG-cls-14" cx="17.3" cy="122.2" rx="12.7" ry="12.7" data-color-action="stroke" style="stroke:inherit" />			<line class="aG-cls-14" x1="10.3" y1="112.6" x2="24.3" y2="131.8" data-color-action="stroke" style="stroke:inherit" />		</g>		<text transform="matrix(1 0 0 1 6.7033 126.808)" class="aG-cls-15 aG-cls-16">NA</text>	</g></g><g id="aG_braces" style="">	<g>		<g>			<rect x="22.6" y="126" class="aG-cls-23" width="13.5" height="18.2" />			<rect x="22.6" y="143.5" class="aG-cls-28" width="13.5" height="0.7" data-color-action="fill" style="fill:inherit" />			<rect x="22.6" y="135.2" class="aG-cls-28" width="13.5" height="1.4" data-color-action="fill" style="fill:inherit" />			<rect x="22.6" y="126" class="aG-cls-29" width="13.5" height="0.9" data-color-action="fill" style="fill:inherit" />			<g>				<g>					<g>						<path class="aG-cls-30" d="M25.9,126h-3.1c-0.3,0-0.5,0.2-0.5,0.5v7c0,0.3,0.2,0.5,0.5,0.5h3.1c0.3,0,0.5-0.2,0.5-0.5v-7        C26.4,126.2,26.2,126,25.9,126z" data-color-action="fill" style="fill:inherit" />						<path class="aG-cls-18" d="M25.9,126h-3.1c-0.3,0-0.5,0.2-0.5,0.5v5.8c0.7,0.1,1.3,0.2,2,0.2c0.7,0,1.4-0.1,2.1-0.2v-5.8        C26.4,126.2,26.2,126,25.9,126z" data-color-action="fill" style="fill:inherit" />						<path class="aG-cls-23" d="M26.1,127.4v-1.1c0-0.1-0.1-0.2-0.2-0.2h-3.1c-0.1,0-0.2,0.1-0.2,0.2v1.1H26.1z" />					</g>					<g>						<path class="aG-cls-30" d="M35.8,126h-3.1c-0.3,0-0.5,0.2-0.5,0.5v7c0,0.3,0.2,0.5,0.5,0.5h3.1c0.3,0,0.5-0.2,0.5-0.5v-7        C36.3,126.2,36.1,126,35.8,126z" data-color-action="fill" style="fill:inherit" />						<path class="aG-cls-18" d="M35.8,126h-3.1c-0.3,0-0.5,0.2-0.5,0.5v5.8c0.7,0.1,1.3,0.2,2,0.2c0.7,0,1.4-0.1,2.1-0.2v-5.8        C36.3,126.2,36.1,126,35.8,126z" data-color-action="fill" style="fill:inherit" />						<path class="aG-cls-23" d="M36,127.4v-1.1c0-0.1-0.1-0.2-0.2-0.2h-3.1c-0.1,0-0.2,0.1-0.2,0.2v1.1H36z" />					</g>				</g>				<g>					<g>						<path class="aG-cls-30" d="M25.9,136.3h-3.1c-0.3,0-0.5,0.2-0.5,0.5v7c0,0.3,0.2,0.5,0.5,0.5h3.1c0.3,0,0.5-0.2,0.5-0.5v-7        C26.4,136.5,26.2,136.3,25.9,136.3z" data-color-action="fill" style="fill:inherit" />						<path class="aG-cls-18" d="M25.9,136.3h-3.1c-0.3,0-0.5,0.2-0.5,0.5v5.8c0.7,0.1,1.3,0.2,2,0.2c0.7,0,1.4-0.1,2.1-0.2v-5.8        C26.4,136.5,26.2,136.3,25.9,136.3z" data-color-action="fill" style="fill:inherit" />						<path class="aG-cls-23" d="M26.1,137.7v-1.1c0-0.1-0.1-0.2-0.2-0.2h-3.1c-0.1,0-0.2,0.1-0.2,0.2v1.1H26.1z" />					</g>					<g>						<path class="aG-cls-30" d="M35.8,136.3h-3.1c-0.3,0-0.5,0.2-0.5,0.5v7c0,0.3,0.2,0.5,0.5,0.5h3.1c0.3,0,0.5-0.2,0.5-0.5v-7        C36.3,136.5,36.1,136.3,35.8,136.3z" data-color-action="fill" style="fill:inherit" />						<path class="aG-cls-18" d="M35.8,136.3h-3.1c-0.3,0-0.5,0.2-0.5,0.5v5.8c0.7,0.1,1.3,0.2,2,0.2c0.7,0,1.4-0.1,2.1-0.2v-5.8        C36.3,136.5,36.1,136.3,35.8,136.3z" data-color-action="fill" style="fill:inherit" />						<path class="aG-cls-23" d="M36,137.7v-1.1c0-0.1-0.1-0.2-0.2-0.2h-3.1c-0.1,0-0.2,0.1-0.2,0.2v1.1H36z" />					</g>				</g>			</g>		</g>		<g>			<rect x="8.2" y="134.4" class="aG-cls-18" width="42.2" height="1.4" data-color-action="fill" style="fill:inherit" />			<rect x="8.2" y="135.6" class="aG-cls-30" width="42.2" height="0.2" data-color-action="fill" style="fill:inherit" />			<rect x="8.2" y="134.6" class="aG-cls-23" width="42.2" height="0.4" />		</g>	</g></g><g id="aG_apicoectomy" style="">	<g>		<g>							<ellipse transform="matrix(0.1539 -0.9881 0.9881 0.1539 -106.1107 120.5387)" class="aG-cls-14" cx="17.3" cy="122.2" rx="12.7" ry="12.7" data-color-action="stroke" style="stroke:inherit" />			<line class="aG-cls-14" x1="10.3" y1="112.6" x2="24.3" y2="131.8" data-color-action="stroke" style="stroke:inherit" />		</g>		<text transform="matrix(1 0 0 1 6.7033 126.808)" class="aG-cls-15 aG-cls-16">NA</text>	</g></g><g id="aG_abscess" style="">	<circle class="aG-cls-17" cx="29.5" cy="71" r="6.1" data-color-action="fill" style="fill:inherit" /></g><g id="aG_blunted_roots" style="">	<g>		<g>							<ellipse transform="matrix(0.1539 -0.9881 0.9881 0.1539 -106.1107 120.5387)" class="aG-cls-14" cx="17.3" cy="122.2" rx="12.7" ry="12.7" data-color-action="stroke" style="stroke:inherit" />			<line class="aG-cls-14" x1="10.3" y1="112.6" x2="24.3" y2="131.8" data-color-action="stroke" style="stroke:inherit" />		</g>		<text transform="matrix(1 0 0 1 6.7033 126.808)" class="aG-cls-15 aG-cls-16">NA</text>	</g></g><g id="aG_root_amputation" style="">	<g>		<g>							<ellipse transform="matrix(0.1539 -0.9881 0.9881 0.1539 -106.1107 120.5387)" class="aG-cls-14" cx="17.3" cy="122.2" rx="12.7" ry="12.7" data-color-action="stroke" style="stroke:inherit" />			<line class="aG-cls-14" x1="10.3" y1="112.6" x2="24.3" y2="131.8" data-color-action="stroke" style="stroke:inherit" />		</g>		<text transform="matrix(1 0 0 1 6.7033 126.808)" class="aG-cls-15 aG-cls-16">NA</text>	</g></g><g id="aG_missing_crown" style="">	<g>		<g>							<ellipse transform="matrix(0.1539 -0.9881 0.9881 0.1539 -106.1107 120.5387)" class="aG-cls-14" cx="17.3" cy="122.2" rx="12.7" ry="12.7" data-color-action="stroke" style="stroke:inherit" />			<line class="aG-cls-14" x1="10.3" y1="112.6" x2="24.3" y2="131.8" data-color-action="stroke" style="stroke:inherit" />		</g>		<text transform="matrix(1 0 0 1 6.7033 126.808)" class="aG-cls-15 aG-cls-16">NA</text>	</g></g><g id="aG_missing_tooth" style="" data-name="missing tooth">	<g>		<path class="aG-cls-2" d="M18.7,128.8c0.8-2.7,1.8-4.6,3.2-6c0.3-5.5,0.9-12,1.9-18.7c2.2-15.5,5.7-30.2,7-30.2    c1.6-0.1,3.5,14.8,4.7,30.1c0.5,6.5,0.9,12.8,1.1,18.5c1.1,0.8,1.9,1.9,2.5,3.4c1.7,4.8,3.7,16,3,18.8c-0.7,2.8-8.6,3.4-12.3,3.7    c-3.7,0.3-11.5-1.1-12.5-3.1C16,142.5,17.3,133.9,18.7,128.8z" data-color-action="fill,stroke" style="fill,stroke:inherit" />		<path class="aG-cls-24" d="M21.8,127.2c0.1-6.3,0.8-14.5,2-23c2.2-15.5,5.7-30.2,7-30.2c1.6-0.1,3.5,14.8,4.7,30.1    c0.7,8.7,1.2,17.2,1.2,23.9C36.7,130,21.8,129.4,21.8,127.2z" />		<g>			<path class="aG-cls-24" d="M29.7,126.3l3.5,0.5c0,0-0.2-16.4-0.3-28.6c-0.2-19.6-1.6-22.2-1.9-22.7c-0.3-0.5,0.6,2.1,0.3,16.6     C31.2,101,29.7,126.3,29.7,126.3z" />		</g>		<g>			<path class="aG-cls-24" d="M24.8,103.5c0.7-6.7,1.6-13.2,2.5-18.6c-1.2,5.4-2.5,12.3-3.5,19.3c-1.2,8.5-2,16.7-2,23     c0,0.4,0.5,0.8,1.3,1.1C23.2,121.4,23.8,112.6,24.8,103.5z" />			<path class="aG-cls-24" d="M35.5,104c-0.9-11.4-2.1-22.5-3.4-27.4c0.9,6.1,1.7,16.3,2.3,26.8c0.6,9.2,1,18.2,1,25.5     c0.8-0.2,1.3-0.5,1.3-0.8C36.7,121.2,36.2,112.7,35.5,104z" />		</g>		<path class="aG-cls-24" d="M17.3,145.2c-1.3-2.8,0-11.4,1.4-16.4c1.6-5.8,4.6-8.2,9.6-8.3c5-0.1,9.2,1,10.8,5.4c1.7,4.8,3.7,16,3,18.8    c-0.7,2.8-8.6,3.4-12.3,3.7C26.1,148.7,18.3,147.3,17.3,145.2z" />		<g>			<path class="aG-cls-24" d="M20.5,129.2c0.8-3.9,2-6.4,3.7-7.9c-2.6,1.1-4.4,3.5-5.5,7.5c-1.4,5.1-2.7,13.7-1.4,16.4     c0.2,0.5,0.8,0.9,1.5,1.2C18.5,142.1,19.5,134.1,20.5,129.2z" />			<path class="aG-cls-24" d="M39.1,125.9c-0.8-2.3-2.4-3.7-4.3-4.5c1.2,0.9,2.1,2.4,2.7,4.4c1.3,4.9,2.9,16,2.8,20.6     c1-0.5,1.7-1.1,1.8-1.8C42.8,142,40.8,130.7,39.1,125.9z" />		</g>		<path class="aG-cls-24" d="M34.9,147.9c-0.1-4-0.4-10.3-1-17.7c-0.5-5.7-1.2-8.3-1.7-9.4c-0.6-0.1-1.3-0.2-2-0.2    c0.2,1.3,0.5,4.3,0.7,11c0.2,6.1-0.1,12.8-0.3,16.8C31.7,148.2,33.3,148.1,34.9,147.9z" />	</g></g><g id="aG_extracted_tooth" data-name="extracted tooth" style=""><g class="aG-msng-cls-10"><line class="aG-msng-cls-11" x1="9" y1="108.83" x2="50.67" y2="150.49" data-color-action="stroke" style="stroke:inherit" /><line class="aG-msng-cls-11" x1="50.67" y1="108.83" x2="9" y2="150.49" data-color-action="stroke" style="stroke:inherit" /></g></g><g id="aG_denture" style="">	<g>		<g>							<ellipse transform="matrix(0.1539 -0.9881 0.9881 0.1539 -106.1107 120.5387)" class="aG-cls-14" cx="17.3" cy="122.2" rx="12.7" ry="12.7" data-color-action="stroke" style="stroke:inherit" />			<line class="aG-cls-14" x1="10.3" y1="112.6" x2="24.3" y2="131.8" data-color-action="stroke" style="stroke:inherit" />		</g>		<text transform="matrix(1 0 0 1 6.7033 126.808)" class="aG-cls-15 aG-cls-16">NA</text>	</g></g><g id="aG_maryland_bridge_pontic" style="">	<g>		<g>							<ellipse transform="matrix(0.1539 -0.9881 0.9881 0.1539 -106.1107 120.5387)" class="aG-cls-14" cx="17.3" cy="122.2" rx="12.7" ry="12.7" data-color-action="stroke" style="stroke:inherit" />			<line class="aG-cls-14" x1="10.3" y1="112.6" x2="24.3" y2="131.8" data-color-action="stroke" style="stroke:inherit" />		</g>		<text transform="matrix(1 0 0 1 6.7033 126.808)" class="aG-cls-15 aG-cls-16">NA</text>	</g></g><g id="aG_maryland_bridge_abutment_mesial" style="">	<g>		<g>							<ellipse transform="matrix(0.1539 -0.9881 0.9881 0.1539 -106.1107 120.5387)" class="aG-cls-14" cx="17.3" cy="122.2" rx="12.7" ry="12.7" data-color-action="stroke" style="stroke:inherit" />			<line class="aG-cls-14" x1="10.3" y1="112.6" x2="24.3" y2="131.8" data-color-action="stroke" style="stroke:inherit" />		</g>		<text transform="matrix(1 0 0 1 6.7033 126.808)" class="aG-cls-15 aG-cls-16">NA</text>	</g></g><g id="aG_maryland_bridge_abutment_distal" style="">	<g>		<g>							<ellipse transform="matrix(0.1539 -0.9881 0.9881 0.1539 -106.1107 120.5387)" class="aG-cls-14" cx="17.3" cy="122.2" rx="12.7" ry="12.7" data-color-action="stroke" style="stroke:inherit" />			<line class="aG-cls-14" x1="10.3" y1="112.6" x2="24.3" y2="131.8" data-color-action="stroke" style="stroke:inherit" />		</g>		<text transform="matrix(1 0 0 1 6.7033 126.808)" class="aG-cls-15 aG-cls-16">NA</text>	</g></g><g id="aG_maryland_bridge_abutment" style="">	<g>		<g>							<ellipse transform="matrix(0.1539 -0.9881 0.9881 0.1539 -106.1107 120.5387)" class="aG-cls-14" cx="17.3" cy="122.2" rx="12.7" ry="12.7" data-color-action="stroke" style="stroke:inherit" />			<line class="aG-cls-14" x1="10.3" y1="112.6" x2="24.3" y2="131.8" data-color-action="stroke" style="stroke:inherit" />		</g>		<text transform="matrix(1 0 0 1 6.7033 126.808)" class="aG-cls-15 aG-cls-16">NA</text>	</g></g><g id="aG_bridge_abutment_mesial" style="">	<g>		<g>							<ellipse transform="matrix(0.1539 -0.9881 0.9881 0.1539 -106.1107 120.5387)" class="aG-cls-14" cx="17.3" cy="122.2" rx="12.7" ry="12.7" data-color-action="stroke" style="stroke:inherit" />			<line class="aG-cls-14" x1="10.3" y1="112.6" x2="24.3" y2="131.8" data-color-action="stroke" style="stroke:inherit" />		</g>		<text transform="matrix(1 0 0 1 6.7033 126.808)" class="aG-cls-15 aG-cls-16">NA</text>	</g></g><g id="aG_bridge_abutment_distal" style="">	<g>		<g>							<ellipse transform="matrix(0.1539 -0.9881 0.9881 0.1539 -106.1107 120.5387)" class="aG-cls-14" cx="17.3" cy="122.2" rx="12.7" ry="12.7" data-color-action="stroke" style="stroke:inherit" />			<line class="aG-cls-14" x1="10.3" y1="112.6" x2="24.3" y2="131.8" data-color-action="stroke" style="stroke:inherit" />		</g>		<text transform="matrix(1 0 0 1 6.7033 126.808)" class="aG-cls-15 aG-cls-16">NA</text>	</g></g><g id="aG_bridge_abutment" style="">	<g>		<g>							<ellipse transform="matrix(0.1539 -0.9881 0.9881 0.1539 -106.1107 120.5387)" class="aG-cls-14" cx="17.3" cy="122.2" rx="12.7" ry="12.7" data-color-action="stroke" style="stroke:inherit" />			<line class="aG-cls-14" x1="10.3" y1="112.6" x2="24.3" y2="131.8" data-color-action="stroke" style="stroke:inherit" />		</g>		<text transform="matrix(1 0 0 1 6.7033 126.808)" class="aG-cls-15 aG-cls-16">NA</text>	</g></g><g id="aG_bridge_pontic" style="">	<g>		<g>							<ellipse transform="matrix(0.1539 -0.9881 0.9881 0.1539 -106.1107 120.5387)" class="aG-cls-14" cx="17.3" cy="122.2" rx="12.7" ry="12.7" data-color-action="stroke" style="stroke:inherit" />			<line class="aG-cls-14" x1="10.3" y1="112.6" x2="24.3" y2="131.8" data-color-action="stroke" style="stroke:inherit" />		</g>		<text transform="matrix(1 0 0 1 6.7033 126.808)" class="aG-cls-15 aG-cls-16">NA</text>	</g></g><g id="aG_implant_mini" style="">	<g>		<g>							<ellipse transform="matrix(0.1539 -0.9881 0.9881 0.1539 -106.1107 120.5387)" class="aG-cls-14" cx="17.3" cy="122.2" rx="12.7" ry="12.7" data-color-action="stroke" style="stroke:inherit" />			<line class="aG-cls-14" x1="10.3" y1="112.6" x2="24.3" y2="131.8" data-color-action="stroke" style="stroke:inherit" />		</g>		<text transform="matrix(1 0 0 1 6.7033 126.808)" class="aG-cls-15 aG-cls-16">NA</text>	</g></g><g id="aG_implant_cylinder" style="">	<g>		<g>							<ellipse transform="matrix(0.1539 -0.9881 0.9881 0.1539 -106.1107 120.5387)" class="aG-cls-14" cx="17.3" cy="122.2" rx="12.7" ry="12.7" data-color-action="stroke" style="stroke:inherit" />			<line class="aG-cls-14" x1="10.3" y1="112.6" x2="24.3" y2="131.8" data-color-action="stroke" style="stroke:inherit" />		</g>		<text transform="matrix(1 0 0 1 6.7033 126.808)" class="aG-cls-15 aG-cls-16">NA</text>	</g></g><g id="aG_implant_blade" style="">	<g>		<g>							<ellipse transform="matrix(0.1539 -0.9881 0.9881 0.1539 -106.1107 120.5387)" class="aG-cls-14" cx="17.3" cy="122.2" rx="12.7" ry="12.7" data-color-action="stroke" style="stroke:inherit" />			<line class="aG-cls-14" x1="10.3" y1="112.6" x2="24.3" y2="131.8" data-color-action="stroke" style="stroke:inherit" />		</g>		<text transform="matrix(1 0 0 1 6.7033 126.808)" class="aG-cls-15 aG-cls-16">NA</text>	</g></g><g id="aG_watch_tooth" style="">	<g>		<path class="aG-cls-13" d="M8.3,27.7c0-1.8,1.4-3.3,3.2-3.3c1.8,0,3.3,1.5,3.3,3.3c0,1.7-1.5,3.2-3.3,3.2C9.7,30.9,8.3,29.5,8.3,27.7z     M9.2,21.8L8.4,3.7h6.2l-0.8,18.1H9.2z" data-color-action="fill" style="fill:inherit" />	</g></g><g id="aG_border" style="">	<rect y="0" transform="matrix(-1 -4.488910e-11 4.488910e-11 -1 59 161)" class="aG-cls-21" width="59" height="161" /></g></defs></g><g class="cG-cls-1" transform="translate(0 217)"><g id="_Gc">	<g>		<path class="cG-cls-2" d="M17.3,14c-1.3,2.8,0,11.4,1.4,16.4c1.6,5.8,4.6,8.2,9.6,8.3c5,0.1,9.2-1,10.8-5.4c1.7-4.8,3.7-16,3-18.8    c-0.7-2.8-8.6-3.4-12.3-3.7C26.1,10.6,18.3,12,17.3,14z" />		<g>			<path class="cG-cls-3" d="M17.3,14c-1.3,2.8,0,11.4,1.4,16.4c1.6,5.8,4.6,8.2,9.6,8.3c5,0.1,9.2-1,10.8-5.4c1.7-4.8,3.7-16,3-18.8     c-0.7-2.8-8.6-3.4-12.3-3.7C26.1,10.6,18.3,12,17.3,14z" />		</g>		<path class="cG-cls-4" d="M17.3,14c1-2,8.8-3.4,12.5-3.1c3.6,0.3,11.5,0.8,12.3,3.7c0.1,0.4,0.1,0.9,0.1,1.6c-1.5-0.5-4.4-1.5-7.4-1.8    c-4.2-0.5-7.9-0.8-10.6-0.3c-1.9,0.4-5.4,1.4-7.3,1.9C17,15.2,17.1,14.5,17.3,14z" />		<path class="cG-cls-5" d="M37.5,30.8c0,0-0.2,2.4-1.7,3.9c-1.6,1.5-5,1.7-7,1.6c-2-0.1-4.3-0.7-5.5-2c-1.2-1.3-2.6-3.5-2-3.7    c0.6-0.2,2.4,2.3,3.8,2.7c1.4,0.4,2.4,1,3.6,0.7c1.1-0.3,1.8-1.6,3.7-1.2c1.8,0.3,2.7,0.6,3.5-0.3C36.6,31.7,36.7,30.4,37.5,30.8z    " />	</g></g><defs><g id="cG_lingual_V" style="">	<path class="cG-cls-6" d="M23.7,37.7c1.3,0.7,2.8,1,4.6,1c2.8,0.1,5.3-0.3,7.3-1.3c-1.6-1.2-3.6-1.9-5.8-1.9   C27.5,35.5,25.3,36.3,23.7,37.7z" data-color-action="fill" style="fill:inherit" /></g><g id="cG_mid_lingual" style="">	<ellipse class="cG-cls-6" cx="29.5" cy="26.3" rx="3.5" ry="5.6" data-color-action="fill" style="fill:inherit" /></g><g id="cG_mesial" style="">	<path class="cG-cls-6" d="M20.7,24.5c0.4-2.2,0.2-4.3,0.8-5.8l-4.6-2.3c-0.2,2.8,0.3,7,1.1,10.6C19.2,26.6,20.4,25.9,20.7,24.5z" data-color-action="fill" style="fill:inherit" /></g><g id="cG_line_angle_4" style="">	<path class="cG-cls-6" d="M23.3,16.9c0.7-0.3,1.6-0.5,2.6-0.7l-1.5-5c-3.3,0.5-6.5,1.5-7.1,2.8c-0.3,0.6-0.4,1.4-0.5,2.4l4.6,2.3   C21.8,17.9,22.3,17.3,23.3,16.9z" data-color-action="fill" style="fill:inherit" /></g><g id="cG_lingual" style="">	<path class="cG-cls-6" d="M33.8,16l1.3-4.6c-1.9-0.3-3.9-0.4-5.3-0.5c-1.4-0.1-3.4,0-5.4,0.3l1.5,5C28.5,15.8,31.6,15.8,33.8,16z" data-color-action="fill" style="fill:inherit" /></g><g id="cG_line_angle_3" style="">	<path class="cG-cls-6" d="M35.1,16.2c1.1,0.2,1.7,1.1,2.2,2.2l4.9-2.8c0-0.4-0.1-0.8-0.1-1.1c-0.5-1.8-3.7-2.7-7-3.2L33.8,16   C34.3,16.1,34.7,16.1,35.1,16.2z" data-color-action="fill" style="fill:inherit" /></g><g id="cG_distal" style="">	<path class="cG-cls-6" d="M42.2,15.6l-4.9,2.8c0.7,1.6,0.9,3.7,1.1,5.2c0.2,1.5,1.2,2.4,2.5,3C41.7,22.5,42.3,17.9,42.2,15.6z" data-color-action="fill" style="fill:inherit" /></g><g id="cG_tipped_lingual" style="">	<g>		<path class="cG-cls-7" d="M26,7.5c1.2-3.2,4.5-3.6,7.2,5c0.5,1.5,4.2,1.7,3.6,0c-1.9-5.7-5-9.6-8.5-8.7C27.1,4.1,26,5.4,25.5,7    C25.7,7.1,25.9,7.4,26,7.5z" data-color-action="fill" style="fill:inherit" />		<polygon class="cG-cls-7" points="28,10.2 40.1,10.2 37.4,19.3   " data-color-action="fill" style="fill:inherit" />	</g></g><g id="cG_tipped_facial" style=""></g><g id="cG_surface_restoration_mesial" style="">	<path class="cG-cls-8" d="M17.3,14c-1,2.2-0.4,8.1,0.6,13c3.1,1.2,5.5,3.6,6.7,6.7c-0.5-6.3-0.8-13.7-0.8-15.2l-6.3-4.6   C17.4,13.9,17.4,14,17.3,14z" data-color-action="fill" style="fill:inherit" /></g><g id="cG_surface_restoration_lingual" style="">	<g>		<path class="cG-cls-8" d="M33.2,35.8c0.2-0.8,0.4-1.6,0.7-2.3c0.5-5.9,0.9-12.8,1.1-14.9c-1.3-0.2-3.2-0.4-5.6-0.6l-0.2,0    c-0.2,0-0.3,0-0.5,0c0,0,0,0,0,0c-1.6,0-3.5,0.3-5,0.6c0.1,1.5,0.4,8.9,0.8,15.2c0.3,0.7,0.5,1.4,0.6,2.1c1.3-0.4,2.6-0.6,4.1-0.6    C30.7,35.1,32,35.4,33.2,35.8z" data-color-action="fill" style="fill:inherit" />			</g></g><g id="cG_surface_restoration_lingual_V" style="">	<g>				<path class="cG-cls-8" d="M25.4,38.4c0.9,0.2,1.9,0.4,2.9,0.4c1.7,0,3.3-0.1,4.7-0.4c0-0.1,0-0.2,0-0.3c0-0.8,0.1-1.5,0.2-2.3    c-1.3-0.4-2.6-0.6-4-0.6c-1.4,0-2.8,0.2-4.1,0.6c0.1,0.6,0.2,1.3,0.2,2C25.4,38,25.4,38.2,25.4,38.4z" data-color-action="fill" style="fill:inherit" />	</g></g><g id="cG_surface_restoration_distal" style="">	<path class="cG-cls-8" d="M34,33.4c1.3-2.9,3.7-5.2,6.8-6.2c1.1-5,1.8-10.8,1.3-12.6c0,0,0-0.1,0-0.1l-7,4.2C34.8,21,34.5,27.6,34,33.4z   " data-color-action="fill" style="fill:inherit" /></g><g id="cG_surface_restoration_incisal" style="">	<path class="cG-cls-8" d="M29.8,10.9c-3.5-0.3-11,1-12.3,3l6.3,4.6c0,0,0,0,0,0c1.4-0.3,3.4-0.6,5-0.6c0,0,0,0,0,0c0.2,0,0.3,0,0.5,0   l0.2,0c2.4,0.2,4.3,0.4,5.6,0.6c0,0.1,0,0.1,0,0.2l7-4.2C41.1,11.7,33.4,11.2,29.8,10.9z" data-color-action="fill" style="fill:inherit" /></g><g id="cG_sub-erupted" style=""></g><g id="cG_rotated_mesial" style=""></g><g id="cG_rotated_distal" style=""></g><g id="cG_root_canal" style=""></g><g id="cG_pins" style=""></g><g id="cG_mesial_drift" style=""></g><g id="cG_distal_drift" style=""></g><g id="cG_crown" style="">	<path class="cG-cls-10" d="M17.3,14c-1.3,2.8,0,11.4,1.4,16.4c1.6,5.8,4.6,8.2,9.6,8.3c5,0.1,9.2-1,10.8-5.4c1.7-4.8,3.7-16,3-18.8   c-0.7-2.8-8.6-3.4-12.3-3.7C26.1,10.6,18.3,12,17.3,14z" data-color-action="fill" style="fill:inherit" /></g><g id="cG_cracked_surface_mesial" style="">	<polyline class="cG-cls-11" points="17.8,17.6 21.7,21.4 16.7,21.4 21.7,26.1 16.7,26.1 20.5,30  " data-color-action="stroke" style="stroke:inherit" /></g><g id="cG_cracked_surface_lingual" style="">	<polyline class="cG-cls-11" points="28.6,17.6 32.5,21.4 27.5,21.4 32.5,26.1 27.5,26.1 31.3,30  " data-color-action="stroke" style="stroke:inherit" /></g><g id="cG_cracked_surface_lingual_V" style="">	<polyline class="cG-cls-11" points="28.6,17.6 32.5,21.4 27.5,21.4 32.5,26.1 27.5,26.1 31.3,30  " data-color-action="stroke" style="stroke:inherit" /></g><g id="cG_cracked_surface_distal" style="">	<polyline class="cG-cls-11" points="39.5,17.6 43.3,21.4 38.3,21.4 43.3,26.1 38.3,26.1 42.1,30  " data-color-action="stroke" style="stroke:inherit" /></g><g id="cG_chipped_surface_mesial" style="">	<g>		<line class="cG-cls-11" x1="24" y1="19.2" x2="15.7" y2="27.6" data-color-action="stroke" style="stroke:inherit" />		<line class="cG-cls-11" x1="15.7" y1="19.2" x2="24" y2="27.6" data-color-action="stroke" style="stroke:inherit" />	</g></g><g id="cG_chipped_surface_lingual" style="">	<g>		<line class="cG-cls-11" x1="33.8" y1="19.2" x2="25.5" y2="27.6" data-color-action="stroke" style="stroke:inherit" />		<line class="cG-cls-11" x1="25.5" y1="19.2" x2="33.8" y2="27.6" data-color-action="stroke" style="stroke:inherit" />	</g></g><g id="cG_chipped_surface_lingual_V" style="">	<g>		<line class="cG-cls-11" x1="33.8" y1="19.2" x2="25.5" y2="27.6" data-color-action="stroke" style="stroke:inherit" />		<line class="cG-cls-11" x1="25.5" y1="19.2" x2="33.8" y2="27.6" data-color-action="stroke" style="stroke:inherit" />	</g></g><g id="cG_chipped_surface_distal" style="">	<g>		<line class="cG-cls-11" x1="43.8" y1="19.2" x2="35.5" y2="27.6" data-color-action="stroke" style="stroke:inherit" />		<line class="cG-cls-11" x1="35.5" y1="19.2" x2="43.8" y2="27.6" data-color-action="stroke" style="stroke:inherit" />	</g></g><g id="cG_abscess" style=""></g><g id="cG_missing_tooth" style="" data-name="missing tooth">	<g>		<path class="cG-cls-2" d="M17.3,14c-1.3,2.8,0,11.4,1.4,16.4c1.6,5.8,4.6,8.2,9.6,8.3c5,0.1,9.2-1,10.8-5.4c1.7-4.8,3.7-16,3-18.8    c-0.7-2.8-8.6-3.4-12.3-3.7C26.1,10.6,18.3,12,17.3,14z" data-color-action="fill,stroke" style="fill,stroke:inherit" />		<g>			<path class="cG-cls-9" d="M17.3,14c-1.3,2.8,0,11.4,1.4,16.4c1.6,5.8,4.6,8.2,9.6,8.3c5,0.1,9.2-1,10.8-5.4c1.7-4.8,3.7-16,3-18.8     c-0.7-2.8-8.6-3.4-12.3-3.7C26.1,10.6,18.3,12,17.3,14z" />		</g>		<path class="cG-cls-9" d="M17.3,14c1-2,8.8-3.4,12.5-3.1c3.6,0.3,11.5,0.8,12.3,3.7c0.1,0.4,0.1,0.9,0.1,1.6c-1.5-0.5-4.4-1.5-7.4-1.8    c-4.2-0.5-7.9-0.8-10.6-0.3c-1.9,0.4-5.4,1.4-7.3,1.9C17,15.2,17.1,14.5,17.3,14z" />		<path class="cG-cls-9" d="M37.5,30.8c0,0-0.2,2.4-1.7,3.9c-1.6,1.5-5,1.7-7,1.6c-2-0.1-4.3-0.7-5.5-2c-1.2-1.3-2.6-3.5-2-3.7    c0.6-0.2,2.4,2.3,3.8,2.7c1.4,0.4,2.4,1,3.6,0.7c1.1-0.3,1.8-1.6,3.7-1.2c1.8,0.3,2.7,0.6,3.5-0.3C36.6,31.7,36.7,30.4,37.5,30.8z    " />	</g></g><g id="cG_watch_tooth" style=""></g><g id="cG_border" style="">	<rect x="0" transform="matrix(-1 -4.488910e-11 4.488910e-11 -1 59 66)" class="cG-cls-12" width="59" height="66" />	<rect class="cG-cls-12" width="59" height="66" /></g></defs></g></svg>