<svg version="1.1" xmlns="http://www.w3.org/2000/svg" xmlns:xlink="http://www.w3.org/1999/xlink" x="0px" y="0px" viewBox="0 0 59 283" style="enable-background:new 0 0 59 161;" xml:space="preserve"><defs><style type="text/css">.aA-cls-2{fill:#C4C6C7;stroke:#C4C6C7;stroke-width:5;stroke-miterlimit:10;}.aA-cls-3{fill:#F5D7CF;stroke:none;}.aA-cls-4{fill:#F2C6BC;stroke:none;}.aA-cls-5{fill:#FAE8E3;stroke:none;}.aA-cls-6{fill:#EEEFEF;stroke:none;}.aA-cls-7{fill:#FBFBFB;stroke:none;}.aA-cls-8{fill:#E2E3E4;stroke:none;}.aA-cls-9{fill:#929497;stroke:none;}.aA-cls-10{font-family:'ProximaNova-Semibold',sans-serif;}.aA-cls-11{font-size:15px;}.aA-cls-12{opacity:0.55;fill:#3C3D3D;stroke:none;}.aA-cls-13{fill:#FFD403;stroke:none;}.aA-cls-14{fill:none;stroke:#C52636;stroke-width:3.622;stroke-miterlimit:10;}.aA-cls-15{font-family:'ProximaNova-Bold',sans-serif;}.aA-cls-16{font-size:13.6587px;}.aA-cls-17{fill:none;stroke:none;}.aA-cls-18{fill:#28418B;stroke:none;}.aA-cls-19{fill:#787878;stroke:none;}.aA-cls-20{fill:none;stroke:#C52636;stroke-width:2;stroke-miterlimit:10;}.aA-cls-21{fill:#C52636;stroke:none;}.aA-cls-22{fill:none;stroke:#C52636;stroke-width:2;stroke-linecap:round;stroke-miterlimit:10;}.aA-cls-23{fill:#C5C7C9;stroke:none;}.aA-cls-24{fill:#FFF;stroke:none;}.aA-cls-25{fill:none;stroke:#28418B;stroke-width:2;stroke-miterlimit:10;}.aA-cls-26{fill:#FFEF3E;stroke:none;}.aA-cls-27{fill:none;stroke:#C52636;stroke-width:1.25;stroke-miterlimit:10;}.aA-cls-28{fill:#9B9999;stroke:none;}.aA-cls-29{fill:#DBDBDC;stroke:none;}.aA-cls-30{fill:#3C3D3D;stroke:none;}.bA-cls-2{fill:#C4C6C7;stroke:#C4C6C7;stroke-width:5;stroke-miterlimit:10;}.bA-cls-3{fill:#EEEFEF;stroke:none;}.bA-cls-4{fill:#E2E3E4;stroke:none;}.bA-cls-5{fill:#FBFBFB;stroke:none;}.bA-cls-6{opacity:0.55;fill:#3C3D3D;stroke:none;}.bA-cls-7{fill:#787878;stroke:none;}.bA-cls-8{fill:none;stroke:none;}.bA-cls-9{fill:#28418B;stroke:none;}.bA-cls-10{font-family:'ProximaNova-Semibold',sans-serif;}.bA-cls-11{font-size:33px;}.bA-cls-12{fill:#FFF;stroke:none;}.bA-cls-13{fill:#FFEF3E;stroke:none;}.bA-cls-14{fill:none;stroke:#C52636;stroke-width:1.25;stroke-miterlimit:10;}.cA-cls-2{fill:#C4C6C7;stroke:#C4C6C7;stroke-width:5;stroke-miterlimit:10;}.cA-cls-3{fill:#EEEFEF;stroke:none;}.cA-cls-4{fill:#E2E3E4;stroke:none;}.cA-cls-5{fill:#FBFBFB;stroke:none;}.cA-cls-6{opacity:0.55;fill:#3C3D3D;stroke:none;}.cA-cls-7{fill:#28418B;stroke:none;}.cA-cls-8{fill:none;stroke:none;}.cA-cls-9{fill:#787878;stroke:none;}.cA-cls-10{fill:#FFF;stroke:none;}.cA-cls-11{fill:#FFEF3E;stroke:none;}.cA-cls-12{fill:none;stroke:#C52636;stroke-width:1.25;stroke-miterlimit:10;}.aA-msng-cls-1{isolation:isolate;}.aA-msng-cls-2{fill:#C4C6C7;stroke:#C4C6C7;stroke-width:5px;}.aA-msng-cls-11,.aA-msng-cls-2{stroke-miterlimit:10;}.aA-msng-cls-3{fill:#F5D7CF;stroke:none;}.aA-msng-cls-4{fill:#F2C6BC;stroke:none;}.aA-msng-cls-5{fill:#FAE8E3;stroke:none;}.aA-msng-cls-6{fill:#EEEFEF;stroke:none;}.aA-msng-cls-7{fill:#FBFBFB;stroke:none;}.aA-msng-cls-8{fill:#E2E3E4;stroke:none;}.aA-msng-cls-9{font-size:15px;fill:#929497;font-family:ProximaNova-Semibold,Proxima Nova;font-weight:700;stroke:none;}.aA-msng-cls-10{}.aA-msng-cls-11,.aA-msng-cls-12{fill:none;stroke:none;}.aA-msng-cls-11{stroke:#787878;stroke-width:6.25px;}</style></defs><title>ToothAS_Layered</title><g class="aA-cls-1"><g id="_Aa"><g><path class="aA-cls-2" d="M50.9,129.6c-0.8-3.8-1.5-7.1-2.7-8.5c-2.2-7.1-1.3-20.7-0.9-27.1c0.6-9.4-2-19.9-4.5-20.2    c-1.3-0.2-2,9.2-3.9,17.6c-1,4.4-3.3,8.4-5.5,10.9c-1.2-2.7-2.4-6-3.2-9.1c-2.5-10.4-1.7-19-2.8-19.3c-1.1-0.3-3.3,3.1-4.4,9.7    c-0.7,3.9-1.3,10.8-1.4,16.5c-2.3-2.5-4.5-5.7-5.7-9.2c-2.9-8.5-4.7-18.6-6.7-18.7c-2-0.1-3.4,5.7-2,14.3    c0.8,4.7,7.3,25.6,7.2,27.7c-0.2,2.5-1,4.3-1.8,6.2c-0.1,0-0.2,0.1-0.2,0.1c-2.6,1.4-3.1,10.8-4,15.7c-0.8,4.6,3.3,8.8,10.5,10.3    c2,0.4,5.2-0.7,8.3-1.8c1.9-0.7,3.2,0.1,4.9,0.8c3.4,1.5,6,3.2,9.1,3.1s7.9-1,10.7-6.5C52.8,140.1,52.1,135.2,50.9,129.6z" /><path class="aA-cls-3" d="M36.2,108c0,0-4.2-7.7-5.9-14.9c-2.5-10.4-1.7-19-2.8-19.3c-1.1-0.3-3.3,3.1-4.4,9.7    c-1.1,6.5-2.2,21.4-0.8,24.7C23.7,111.4,35.5,113.6,36.2,108z" /><path class="aA-cls-4" d="M22.3,108.1c-1.3-3-0.4-16.1,0.6-23.2c-0.2,5.5,0.3,12.8,1.6,14.4c1.9,2.3,5.7,2.8,6.2,1.4    c0.5-1.4-1.6-6-2.2-11.6c-0.3-2.9-0.2-5.8-0.1-8c0.3,3.3,0.7,7.5,1.8,12c1.7,7.2,5.9,14.9,5.9,14.9    C35.5,113.6,23.7,111.4,22.3,108.1z" /><path class="aA-cls-3" d="M49.4,123.6c-3.6-5.8-2.5-22.3-2-29.6c0.6-9.4-2-19.9-4.5-20.2c-1.3-0.2-2,9.2-3.9,17.6    c-1.7,7.3-6.8,13.7-9.8,13.5c-3-0.1-10.6-6.4-13.2-14.1c-2.9-8.5-4.7-18.6-6.7-18.7c-2-0.1-3.4,5.7-2,14.3    c0.8,4.7,7.3,25.6,7.2,27.7c-0.3,3.6-1.7,5.8-3,8.6C10.4,124.9,50.6,125.6,49.4,123.6z" /><path class="aA-cls-5" d="M8.8,73.8c-0.4-0.4-1,1.5-0.7,5.2c0.5,8.5,4,17.7,8.3,25.6c3.1,5.7,4.4,11.2,2.8,15.1    c-1.6,3.9-3.7,6.8,0.4,6.3c2.8-0.4,3.8-5.5,4-9.2c0.3-9.7-8.3-13.2-13.9-33.1C7.8,76.9,9.5,74.4,8.8,73.8z" /><path class="aA-cls-4" d="M44.7,108.1c0,5.2-0.3,11.6,1,13.2c0.4,0.5,1.3,1.1,3.3,1.7c-3.3-6.3-2.1-21.9-1.6-28.9    c0.3-5.1-0.3-10.6-1.4-14.6c0.4,3.8,0.8,9.7,0.3,12.5C45.7,96.3,44.7,104.1,44.7,108.1z" /><path class="aA-cls-4" d="M7.3,86.3c0.8,4.7,7.3,25.6,7.2,27.7c-0.3,2.9-1.2,4.9-2.3,7.1l1.7-0.3c0,0,1.3-1.4,2.1-4.1    c1-3.5-0.1-6.2-1.5-10.2c-1.7-4.9-3.7-9.9-6.6-22.8c-1.3-5.7-0.4-8.8-0.2-10.3C6.7,75.5,6.3,80.2,7.3,86.3z" /><path class="aA-cls-4" d="M12.6,79.3c1,4.8,2.4,10.3,3.2,12.9c1.1,4,8.7,16.7,14.8,15.1c6.1-1.6,9.6-14.9,10.1-17.8    c0.7-4.2,0.7-8.1,0.8-11.9c-0.6,3.5-1.3,8.8-2.5,13.7c-1.7,7.3-6.8,13.7-9.8,13.5c-3-0.1-10.6-6.4-13.2-14.1    C14.6,86.9,13.5,82.7,12.6,79.3z" /><path class="aA-cls-6" d="M47.7,120.6c1.5,0.8,2.3,4.6,3.3,9c1.2,5.6,1.9,10.5,1,12.3c-2.8,5.4-7.5,6.4-10.7,6.5    c-3.2,0.1-5.7-1.6-9.1-3.1c-1.7-0.7-3-1.5-4.9-0.8c-3.1,1.1-6.3,2.2-8.3,1.8c-7.2-1.6-11.3-5.8-10.5-10.3c0.9-4.8,1.4-14.3,4-15.7    C15.9,118.3,42.6,117.8,47.7,120.6z" /><path class="aA-cls-7" d="M37.6,143.9c0-0.8-1.3-2.6-1.6-3.6c-0.3-1-0.9-0.4-0.9,0.2c0,0.6-0.3,3.1,0.2,3.7    C35.9,144.9,37.6,145,37.6,143.9z" /><path class="aA-cls-8" d="M12.4,120.2C12.4,120.2,12.4,120.2,12.4,120.2c-0.1,0.1-0.2,0.1-0.3,0.2c-2.4,1.9-2.9,10.8-3.7,15.5    c-0.5,2.8,0.9,5.5,3.6,7.5c-0.9-1.1-1.6-2.7-1.8-4.7c-0.4-3.9,1.3-14.4,3.1-18.8C13,120,12.6,120.1,12.4,120.2z" /><path class="aA-cls-8" d="M49.5,145.2c0.9-0.9,1.7-1.9,2.4-3.3c0.9-1.8,0.2-6.7-1-12.3c-1-4.5-1.8-8.2-3.3-9c-0.4-0.2-1-0.4-1.6-0.6    c1,1.9,2.2,5.7,3.1,10.3c1.4,7,2,11.6,0.8,14.2C49.8,144.7,49.7,145,49.5,145.2z" /><path class="aA-cls-8" d="M27.2,144.4c1.9-0.7,3.2,0.1,4.9,0.8c0.8,0.4,1.6,0.7,2.3,1.1c-1.3-0.7-3.3-2.4-4.4-2.7    c-1.4-0.4-2.1-0.3-2.7,0.1c-0.2,0.1-1,0.7-1.7,1.2C26.1,144.8,26.7,144.6,27.2,144.4z" /><path class="aA-cls-5" d="M42.6,77.8c-0.8-0.2,0.8,2.7-0.7,15.5c-1.1,9.4-3.5,12.6-3,13c0.5,0.4,3.3-4.8,4.6-14.4    C44.2,85.9,43.2,78,42.6,77.8z" /><path class="aA-cls-5" d="M26.7,75.9c0.4,0.2-0.7,2.5-1.2,6.8s0.4,8.1,0.1,8.2s-1.5-4.5-1-8.3C25.1,78.9,26.5,75.9,26.7,75.9z" /><path class="aA-cls-7" d="M23.3,118.8c-1.3,0.1-2.6,0.1-3.8,0.2c-0.5,1.9-1.2,4.9-1.5,7.2c-0.6,5.1-0.9,10.8,0,17.4    c0.1,0.8,0.2,1.6,0.3,2.5c0.2,0,0.3,0.1,0.5,0.1c1.1,0.2,2.4,0,4-0.4c-0.2-0.8-0.5-1.5-0.5-2.2c-0.3-2.2-1.4-8.5-0.6-18.5    C21.9,122.8,22.8,120.4,23.3,118.8z" />	</g><text transform="matrix(1 0 0 1 19.2925 20.508)" class="aA-cls-9 aA-cls-10 aA-cls-11">AS</text></g><defs><g id="aAS_bone_graft" style=""><g><g>			<ellipse transform="matrix(0.1539 -0.9881 0.9881 0.1539 -106.1107 120.5387)" class="aA-cls-14" cx="17.3" cy="122.2" rx="12.7" ry="12.7" data-color-action="stroke" style="stroke:inherit" /><line class="aA-cls-14" x1="10.3" y1="112.6" x2="24.3" y2="131.8" data-color-action="stroke" style="stroke:inherit" />		</g><text transform="matrix(1 0 0 1 6.7033 126.808)" class="aA-cls-15 aA-cls-16">NA</text>	</g></g><g id="aAS_splinted_crowns" style=""><g><g>			<ellipse transform="matrix(0.1539 -0.9881 0.9881 0.1539 -106.1107 120.5387)" class="aA-cls-14" cx="17.3" cy="122.2" rx="12.7" ry="12.7" data-color-action="stroke" style="stroke:inherit" /><line class="aA-cls-14" x1="10.3" y1="112.6" x2="24.3" y2="131.8" data-color-action="stroke" style="stroke:inherit" />		</g><text transform="matrix(1 0 0 1 6.7033 126.808)" class="aA-cls-15 aA-cls-16">NA</text>	</g></g><g id="aAS_mesial" style=""><path class="aA-cls-12" d="M47.8,135.2c-0.1,0.9-0.3,1.9-0.5,2.9l3.6,5.6c0.4-0.5,0.7-1.1,1-1.7c0.9-1.7,0.3-6.1-0.8-11.3   C49.5,131.5,48.1,132.9,47.8,135.2z" data-color-action="fill" style="fill:inherit" /></g><g id="aAS_line_angle_2" style=""><path class="aA-cls-12" d="M41.3,142c-1.6-0.1-2.7-0.4-3.7-0.8l1.6,7c0.7,0.1,1.3,0.2,2,0.2c2.8-0.1,6.8-0.8,9.6-4.7l-3.6-5.6   C46.6,140.3,45.2,142.3,41.3,142z" data-color-action="fill" style="fill:inherit" /></g><g id="aAS_groove_1" style=""><path class="aA-cls-12" d="M31.3,138.1c-2.6-0.2-4.5,1.2-7.1,2.1l-1.4,5.6c1.4-0.4,2.9-0.9,4.4-1.4c1.9-0.7,3.2,0.1,4.9,0.8   c2.7,1.1,4.8,2.4,7.1,2.9l-1.6-7C35.2,140.1,34.2,138.4,31.3,138.1z" data-color-action="fill" style="fill:inherit" /></g><g id="aAS_line_angle_1" style=""><path class="aA-cls-12" d="M19.2,141c-2.4-0.1-4-1.7-5.3-4l-3.6,4.8c1.8,2,4.7,3.5,8.5,4.4c1.1,0.2,2.4,0,3.9-0.4l1.4-5.6   C22.8,140.8,21.2,141.2,19.2,141z" data-color-action="fill" style="fill:inherit" /></g><g id="aAS_distal" style=""><path class="aA-cls-12" d="M10.4,141.9l3.6-4.8c-0.8-1.5-1.4-3.3-2-5.3c-0.4-1.4-1.4-2.4-2.6-3.1c-0.4,2.6-0.7,5.2-1,7.1   C8,138,8.7,140.1,10.4,141.9z" data-color-action="fill" style="fill:inherit" /></g><g id="aAS_buccal_pit" style=""><ellipse class="aA-cls-12" cx="29.5" cy="130.4" rx="3.7" ry="6" data-color-action="fill" style="fill:inherit" /></g><g id="aAS_buccal_V" style=""><path class="aA-cls-12" d="M17.3,119.2c3.8,1.7,8,2.8,12.3,2.8c4.4,0,8.7-1,12.6-2.7C35.1,118.4,23.9,118.5,17.3,119.2z" data-color-action="fill" style="fill:inherit" /></g><g id="aAS_veneer" style=""><g><g>			<ellipse transform="matrix(0.1539 -0.9881 0.9881 0.1539 -106.1107 120.5387)" class="aA-cls-14" cx="17.3" cy="122.2" rx="12.7" ry="12.7" data-color-action="stroke" style="stroke:inherit" /><line class="aA-cls-14" x1="10.3" y1="112.6" x2="24.3" y2="131.8" data-color-action="stroke" style="stroke:inherit" />		</g><text transform="matrix(1 0 0 1 6.7033 126.808)" class="aA-cls-15 aA-cls-16">NA</text>	</g></g><g id="aAS_tissue_graft" style=""><g><g>			<ellipse transform="matrix(0.1539 -0.9881 0.9881 0.1539 -106.1107 120.5387)" class="aA-cls-14" cx="17.3" cy="122.2" rx="12.7" ry="12.7" data-color-action="stroke" style="stroke:inherit" /><line class="aA-cls-14" x1="10.3" y1="112.6" x2="24.3" y2="131.8" data-color-action="stroke" style="stroke:inherit" />		</g><text transform="matrix(1 0 0 1 6.7033 126.808)" class="aA-cls-15 aA-cls-16">NA</text>	</g></g><g id="aAS_tipped_lingual" style=""><rect x="28" y="3.2" class="aA-cls-17" width="3" height="3" /></g><g id="aAS_tipped_facial" style=""><g><path class="aA-cls-18" d="M26.1,148.8c1.2,3.2,4.5,3.6,7.2-5c0.5-1.5,4.2-1.7,3.6,0c-1.9,5.7-5,9.6-8.5,8.7c-1.2-0.3-2.3-1.6-2.8-3.2    C25.8,149.2,26,148.9,26.1,148.8z" data-color-action="fill" style="fill:inherit" /><polygon class="aA-cls-18" points="28,146 40.2,146 37.4,137   " data-color-action="fill" style="fill:inherit" />	</g></g><g id="aAS_surface_restoration_occlusal" style=""><path class="aA-cls-19" d="M27.2,144.4c1.9-0.7,3.2,0.1,4.9,0.8c3.4,1.5,6,3.2,9.1,3.1c2,0,4.7-0.5,7.1-2.2l-3.6-6   c-0.7,0.7-1.8,1.2-3.6,1.2l0,0c-0.8,0-2.1-0.6-3.6-1.4c-0.8-0.4-1.7-0.8-2.6-1.2l-0.5-0.2c-1.4-0.6-3.3-1.4-5.8-1.4   c-1.3,0-2.5,0.2-3.8,0.7c-1.2,0.4-3.8,1.3-4.8,1.5c-1-0.2-1.9-0.6-2.5-0.9l-5.2,5.1c1.7,1.2,3.9,2.1,6.6,2.7   C20.9,146.7,24.1,145.6,27.2,144.4z" data-color-action="fill" style="fill:inherit" /></g><g id="aAS_surface_restoration_mesial" style=""><path class="aA-cls-19" d="M51.9,141.9c0.9-1.8,0.2-6.7-1-12.3c-0.1-0.5-0.2-1-0.3-1.5c-3.2-0.3-6-1.9-7.9-4.3c0.6,3.2,1.2,6.5,1.4,7.2   c1.1,5.2,1.3,7.4,1.3,8.3c-0.2,0.3-0.4,0.6-0.6,0.8l3.6,6C49.7,145.2,50.9,143.8,51.9,141.9z" data-color-action="fill" style="fill:inherit" /></g><g id="aAS_surface_restoration_buccal" style=""><g><path class="aA-cls-19" d="M42.7,123.8c-1-1.2-1.7-2.6-2.1-4.2c-3.1,2.4-6.9,3.8-11.1,3.8c-4,0-7.6-1.3-10.6-3.5    c-0.3,1.3-0.8,2.6-1.5,3.7c-0.7,3.9-1.4,8.1-1.5,9c-0.2,1.5-0.4,2.9-0.6,4.2c0.3,0.4,1.6,1.7,4.7,2.4c1-0.1,3.6-1,4.8-1.5    c1.2-0.4,2.5-0.7,3.8-0.7c2.5,0,4.4,0.8,5.8,1.4l0.5,0.2c0.9,0.4,1.8,0.8,2.6,1.2c1.5,0.7,2.9,1.4,3.6,1.4l0,0c2.4,0,3.5-1,4.2-2    c0-0.8-0.1-3.1-1.3-8.3C43.9,130.3,43.3,127,42.7,123.8z" data-color-action="fill" style="fill:inherit" />	</g></g><g id="aAS_surface_restoration_buccal_V" style=""><g><path class="aA-cls-19" d="M40.6,119.7c-0.1-0.2-0.1-0.4-0.2-0.6c-6.4-0.6-15.2-0.5-21.3,0c0,0.3-0.1,0.7-0.2,1c3,2.2,6.6,3.5,10.6,3.5    C33.7,123.5,37.5,122.1,40.6,119.7z" data-color-action="fill" style="fill:inherit" />	</g></g><g id="aAS_surface_restoration_distal" style=""><path class="aA-cls-19" d="M15.3,136.9c0.2-1.3,0.4-2.7,0.6-4.2c0.1-1,0.8-5.2,1.5-9c-1.7,2.8-4.6,4.8-8.1,5.3c-0.4,2.5-0.6,5-1,6.9   c-0.5,2.9,0.9,5.6,3.9,7.6l5.2-5.1C16.2,137.8,15.5,137.2,15.3,136.9z" data-color-action="fill" style="fill:inherit" /></g><g id="aAS_supra-erupted" style=""><g><g>			<ellipse transform="matrix(0.1539 -0.9881 0.9881 0.1539 -106.1107 120.5387)" class="aA-cls-14" cx="17.3" cy="122.2" rx="12.7" ry="12.7" data-color-action="stroke" style="stroke:inherit" /><line class="aA-cls-14" x1="10.3" y1="112.6" x2="24.3" y2="131.8" data-color-action="stroke" style="stroke:inherit" />		</g><text transform="matrix(1 0 0 1 6.7033 126.808)" class="aA-cls-15 aA-cls-16">NA</text>	</g></g><g id="aAS_sub-erupted" style=""><g><g><line class="aA-cls-20" x1="29.5" y1="110.2" x2="29.5" y2="117.1" data-color-action="stroke" style="stroke:inherit" /><g><polygon class="aA-cls-21" points="25.5,111.4 29.5,104.5 33.5,111.4     " data-color-action="fill" style="fill:inherit" />			</g>		</g>	</g></g><g id="aAS_sealant" style=""><rect x="28" y="3.2" class="aA-cls-17" width="3" height="3" /></g><g id="aAS_root_tips" style=""><g><g>			<ellipse transform="matrix(0.1539 -0.9881 0.9881 0.1539 -106.1107 120.5387)" class="aA-cls-14" cx="17.3" cy="122.2" rx="12.7" ry="12.7" data-color-action="stroke" style="stroke:inherit" /><line class="aA-cls-14" x1="10.3" y1="112.6" x2="24.3" y2="131.8" data-color-action="stroke" style="stroke:inherit" />		</g><text transform="matrix(1 0 0 1 6.7033 126.808)" class="aA-cls-15 aA-cls-16">NA</text>	</g></g><g id="aAS_rotated_mesial" style=""><g><path class="aA-cls-18" d="M6.4,127c-2.8,1.7-2.2,5.1,9.6,5.5c5,0.1,8.4,0,8.4,0l-0.1,2.8c0,0-0.9,0.1-7.7-0.2    c-7.2-0.3-13.2-1.7-12.9-5.6c0.1-1,1-2.1,2.2-2.7C6.1,126.8,6.3,126.9,6.4,127z" data-color-action="fill" style="fill:inherit" /><polygon class="aA-cls-18" points="18.4,128.2 18.4,139.4 28.2,133.8   " data-color-action="fill" style="fill:inherit" />	</g></g><g id="aAS_rotated_distal" style=""><g><path class="aA-cls-18" d="M53.8,127c2.8,1.7,2.2,5.1-9.6,5.5c-5,0.1-8.4,0-8.4,0l0.1,2.8c0,0,0.9,0.1,7.7-0.2    c7.2-0.3,13.2-1.7,12.9-5.6c-0.1-1-1-2.1-2.2-2.7C54.2,126.8,53.9,126.9,53.8,127z" data-color-action="fill" style="fill:inherit" /><polygon class="aA-cls-18" points="41.9,128.2 41.9,139.4 32.1,133.8   " data-color-action="fill" style="fill:inherit" />	</g></g><g id="aAS_root_decay" style=""><g><g>			<ellipse transform="matrix(0.1539 -0.9881 0.9881 0.1539 -106.1107 120.5387)" class="aA-cls-14" cx="17.3" cy="122.2" rx="12.7" ry="12.7" data-color-action="stroke" style="stroke:inherit" /><line class="aA-cls-14" x1="10.3" y1="112.6" x2="24.3" y2="131.8" data-color-action="stroke" style="stroke:inherit" />		</g><text transform="matrix(1 0 0 1 6.7033 126.808)" class="aA-cls-15 aA-cls-16">NA</text>	</g><g id="root_decay_3"><g><g>			<ellipse transform="matrix(0.1539 -0.9881 0.9881 0.1539 -106.1107 120.5387)" class="aA-cls-14" cx="17.3" cy="122.2" rx="12.7" ry="12.7" data-color-action="stroke" style="stroke:inherit" /><line class="aA-cls-14" x1="10.3" y1="112.6" x2="24.3" y2="131.8" data-color-action="stroke" style="stroke:inherit" />		</g><text transform="matrix(1 0 0 1 6.7033 126.808)" class="aA-cls-15 aA-cls-16">NA</text>	</g></g><g id="root_decay_2"><g><g>			<ellipse transform="matrix(0.1539 -0.9881 0.9881 0.1539 -106.1107 120.5387)" class="aA-cls-14" cx="17.3" cy="122.2" rx="12.7" ry="12.7" data-color-action="stroke" style="stroke:inherit" /><line class="aA-cls-14" x1="10.3" y1="112.6" x2="24.3" y2="131.8" data-color-action="stroke" style="stroke:inherit" />		</g><text transform="matrix(1 0 0 1 6.7033 126.808)" class="aA-cls-15 aA-cls-16">NA</text>	</g></g><g id="root_decay_1"><g><g>			<ellipse transform="matrix(0.1539 -0.9881 0.9881 0.1539 -106.1107 120.5387)" class="aA-cls-14" cx="17.3" cy="122.2" rx="12.7" ry="12.7" data-color-action="stroke" style="stroke:inherit" /><line class="aA-cls-14" x1="10.3" y1="112.6" x2="24.3" y2="131.8" data-color-action="stroke" style="stroke:inherit" />		</g><text transform="matrix(1 0 0 1 6.7033 126.808)" class="aA-cls-15 aA-cls-16">NA</text>	</g></g></g><g id="aAS_root_canal" style=""><line class="aA-cls-22" x1="43.3" y1="79.7" x2="38.9" y2="116.5" data-color-action="stroke" style="stroke:inherit" /><g id="root_canal_3"><line class="aA-cls-22" x1="43.3" y1="79.7" x2="38.9" y2="116.5" data-color-action="stroke" style="stroke:inherit" /></g><g id="root_canal_2"><line class="aA-cls-22" x1="26.4" y1="79.2" x2="28.3" y2="116.2" data-color-action="stroke" style="stroke:inherit" /></g><g id="root_canal_1"><line class="aA-cls-22" x1="9" y1="74.8" x2="19.6" y2="116.5" data-color-action="stroke" style="stroke:inherit" /></g></g><g id="aAS_root_abrasion" style=""><g><g>			<ellipse transform="matrix(0.1539 -0.9881 0.9881 0.1539 -106.1107 120.5387)" class="aA-cls-14" cx="17.3" cy="122.2" rx="12.7" ry="12.7" data-color-action="stroke" style="stroke:inherit" /><line class="aA-cls-14" x1="10.3" y1="112.6" x2="24.3" y2="131.8" data-color-action="stroke" style="stroke:inherit" />		</g><text transform="matrix(1 0 0 1 6.7033 126.808)" class="aA-cls-15 aA-cls-16">NA</text>	</g><g id="root_abrasion_3"><g><g>			<ellipse transform="matrix(0.1539 -0.9881 0.9881 0.1539 -106.1107 120.5387)" class="aA-cls-14" cx="17.3" cy="122.2" rx="12.7" ry="12.7" data-color-action="stroke" style="stroke:inherit" /><line class="aA-cls-14" x1="10.3" y1="112.6" x2="24.3" y2="131.8" data-color-action="stroke" style="stroke:inherit" />		</g><text transform="matrix(1 0 0 1 6.7033 126.808)" class="aA-cls-15 aA-cls-16">NA</text>	</g></g><g id="root_abrasion_2"><g><g>			<ellipse transform="matrix(0.1539 -0.9881 0.9881 0.1539 -106.1107 120.5387)" class="aA-cls-14" cx="17.3" cy="122.2" rx="12.7" ry="12.7" data-color-action="stroke" style="stroke:inherit" /><line class="aA-cls-14" x1="10.3" y1="112.6" x2="24.3" y2="131.8" data-color-action="stroke" style="stroke:inherit" />		</g><text transform="matrix(1 0 0 1 6.7033 126.808)" class="aA-cls-15 aA-cls-16">NA</text>	</g></g><g id="root_abrasion_1"><g><g>			<ellipse transform="matrix(0.1539 -0.9881 0.9881 0.1539 -106.1107 120.5387)" class="aA-cls-14" cx="17.3" cy="122.2" rx="12.7" ry="12.7" data-color-action="stroke" style="stroke:inherit" /><line class="aA-cls-14" x1="10.3" y1="112.6" x2="24.3" y2="131.8" data-color-action="stroke" style="stroke:inherit" />		</g><text transform="matrix(1 0 0 1 6.7033 126.808)" class="aA-cls-15 aA-cls-16">NA</text>	</g></g></g><g id="aAS_post" style=""><g><g>			<ellipse transform="matrix(0.1539 -0.9881 0.9881 0.1539 -106.1107 120.5387)" class="aA-cls-14" cx="17.3" cy="122.2" rx="12.7" ry="12.7" data-color-action="stroke" style="stroke:inherit" /><line class="aA-cls-14" x1="10.3" y1="112.6" x2="24.3" y2="131.8" data-color-action="stroke" style="stroke:inherit" />		</g><text transform="matrix(1 0 0 1 6.7033 126.808)" class="aA-cls-15 aA-cls-16">NA</text>	</g></g><g id="aAS_pins" style=""><g><g><rect x="19.5" y="109.6" class="aA-cls-19" width="2.3" height="22" data-color-action="fill" style="fill:inherit" /><rect x="20.1" y="109.6" class="aA-cls-23" width="0.3" height="22" />		</g><g><rect x="23.8" y="109.6" class="aA-cls-19" width="2.3" height="22" data-color-action="fill" style="fill:inherit" /><rect x="24.4" y="109.6" class="aA-cls-23" width="0.3" height="22" />		</g>	</g><g><g><rect x="33.9" y="109.6" class="aA-cls-19" width="2.3" height="22" data-color-action="fill" style="fill:inherit" /><rect x="34.6" y="109.6" class="aA-cls-23" width="0.3" height="22" />		</g><g><rect x="38.2" y="109.6" class="aA-cls-19" width="2.3" height="22" data-color-action="fill" style="fill:inherit" /><rect x="38.9" y="109.6" class="aA-cls-23" width="0.3" height="22" />		</g>	</g></g><g id="aAS_open_contact_mesial" style=""><g><g>			<ellipse transform="matrix(0.1539 -0.9881 0.9881 0.1539 -106.1107 120.5387)" class="aA-cls-14" cx="17.3" cy="122.2" rx="12.7" ry="12.7" data-color-action="stroke" style="stroke:inherit" /><line class="aA-cls-14" x1="10.3" y1="112.6" x2="24.3" y2="131.8" data-color-action="stroke" style="stroke:inherit" />		</g><text transform="matrix(1 0 0 1 6.7033 126.808)" class="aA-cls-15 aA-cls-16">NA</text>	</g></g><g id="aAS_open_contact_distal" style=""><g><g>			<ellipse transform="matrix(0.1539 -0.9881 0.9881 0.1539 -106.1107 120.5387)" class="aA-cls-14" cx="17.3" cy="122.2" rx="12.7" ry="12.7" data-color-action="stroke" style="stroke:inherit" /><line class="aA-cls-14" x1="10.3" y1="112.6" x2="24.3" y2="131.8" data-color-action="stroke" style="stroke:inherit" />		</g><text transform="matrix(1 0 0 1 6.7033 126.808)" class="aA-cls-15 aA-cls-16">NA</text>	</g></g><g id="aAS_mesial_drift" style=""><g><g><line class="aA-cls-25" x1="32.1" y1="133.6" x2="21.2" y2="133.6" data-color-action="stroke" style="stroke:inherit" /><g><polygon class="aA-cls-18" points="30.9,129.6 37.8,133.6 30.9,137.5     " data-color-action="fill" style="fill:inherit" />			</g>		</g>	</g></g><g id="aAS_lingual_abfraction" style=""><g><g>			<ellipse transform="matrix(0.1539 -0.9881 0.9881 0.1539 -106.1107 120.5387)" class="aA-cls-14" cx="17.3" cy="122.2" rx="12.7" ry="12.7" data-color-action="stroke" style="stroke:inherit" /><line class="aA-cls-14" x1="10.3" y1="112.6" x2="24.3" y2="131.8" data-color-action="stroke" style="stroke:inherit" />		</g><text transform="matrix(1 0 0 1 6.7033 126.808)" class="aA-cls-15 aA-cls-16">NA</text>	</g></g><g id="aAS_internal_root_resorption" style=""><g><g>			<ellipse transform="matrix(0.1539 -0.9881 0.9881 0.1539 -106.1107 120.5387)" class="aA-cls-14" cx="17.3" cy="122.2" rx="12.7" ry="12.7" data-color-action="stroke" style="stroke:inherit" /><line class="aA-cls-14" x1="10.3" y1="112.6" x2="24.3" y2="131.8" data-color-action="stroke" style="stroke:inherit" />		</g><text transform="matrix(1 0 0 1 6.7033 126.808)" class="aA-cls-15 aA-cls-16">NA</text>	</g></g><g id="aAS_impacted_mesial" style=""><g><g>			<ellipse transform="matrix(0.1539 -0.9881 0.9881 0.1539 -106.1107 120.5387)" class="aA-cls-14" cx="17.3" cy="122.2" rx="12.7" ry="12.7" data-color-action="stroke" style="stroke:inherit" /><line class="aA-cls-14" x1="10.3" y1="112.6" x2="24.3" y2="131.8" data-color-action="stroke" style="stroke:inherit" />		</g><text transform="matrix(1 0 0 1 6.7033 126.808)" class="aA-cls-15 aA-cls-16">NA</text>	</g></g><g id="aAS_impacted_distal" style=""><g><g>			<ellipse transform="matrix(0.1539 -0.9881 0.9881 0.1539 -106.1107 120.5387)" class="aA-cls-14" cx="17.3" cy="122.2" rx="12.7" ry="12.7" data-color-action="stroke" style="stroke:inherit" /><line class="aA-cls-14" x1="10.3" y1="112.6" x2="24.3" y2="131.8" data-color-action="stroke" style="stroke:inherit" />		</g><text transform="matrix(1 0 0 1 6.7033 126.808)" class="aA-cls-15 aA-cls-16">NA</text>	</g></g><g id="aAS_gortex_membranes" style=""><g><g>			<ellipse transform="matrix(0.1539 -0.9881 0.9881 0.1539 -106.1107 120.5387)" class="aA-cls-14" cx="17.3" cy="122.2" rx="12.7" ry="12.7" data-color-action="stroke" style="stroke:inherit" /><line class="aA-cls-14" x1="10.3" y1="112.6" x2="24.3" y2="131.8" data-color-action="stroke" style="stroke:inherit" />		</g><text transform="matrix(1 0 0 1 6.7033 126.808)" class="aA-cls-15 aA-cls-16">NA</text>	</g></g><g id="aAS_frenum_pull" style=""><g><g>			<ellipse transform="matrix(0.1539 -0.9881 0.9881 0.1539 -106.1107 120.5387)" class="aA-cls-14" cx="17.3" cy="122.2" rx="12.7" ry="12.7" data-color-action="stroke" style="stroke:inherit" /><line class="aA-cls-14" x1="10.3" y1="112.6" x2="24.3" y2="131.8" data-color-action="stroke" style="stroke:inherit" />		</g><text transform="matrix(1 0 0 1 6.7033 126.808)" class="aA-cls-15 aA-cls-16">NA</text>	</g></g><g id="aAS_external_root_resorption" style=""><g><g>			<ellipse transform="matrix(0.1539 -0.9881 0.9881 0.1539 -106.1107 120.5387)" class="aA-cls-14" cx="17.3" cy="122.2" rx="12.7" ry="12.7" data-color-action="stroke" style="stroke:inherit" /><line class="aA-cls-14" x1="10.3" y1="112.6" x2="24.3" y2="131.8" data-color-action="stroke" style="stroke:inherit" />		</g><text transform="matrix(1 0 0 1 6.7033 126.808)" class="aA-cls-15 aA-cls-16">NA</text>	</g></g><g id="aAS_diastema_mesial" style=""><g><g>			<ellipse transform="matrix(0.1539 -0.9881 0.9881 0.1539 -106.1107 120.5387)" class="aA-cls-14" cx="17.3" cy="122.2" rx="12.7" ry="12.7" data-color-action="stroke" style="stroke:inherit" /><line class="aA-cls-14" x1="10.3" y1="112.6" x2="24.3" y2="131.8" data-color-action="stroke" style="stroke:inherit" />		</g><text transform="matrix(1 0 0 1 6.7033 126.808)" class="aA-cls-15 aA-cls-16">NA</text>	</g></g><g id="aAS_diastema_distal" style=""><g><g>			<ellipse transform="matrix(0.1539 -0.9881 0.9881 0.1539 -106.1107 120.5387)" class="aA-cls-14" cx="17.3" cy="122.2" rx="12.7" ry="12.7" data-color-action="stroke" style="stroke:inherit" /><line class="aA-cls-14" x1="10.3" y1="112.6" x2="24.3" y2="131.8" data-color-action="stroke" style="stroke:inherit" />		</g><text transform="matrix(1 0 0 1 6.7033 126.808)" class="aA-cls-15 aA-cls-16">NA</text>	</g></g><g id="aAS_distal_drift" style=""><g><g><line class="aA-cls-25" x1="27" y1="133.6" x2="37.8" y2="133.6" data-color-action="stroke" style="stroke:inherit" /><g><polygon class="aA-cls-18" points="28.1,137.5 21.2,133.6 28.1,129.6     " data-color-action="fill" style="fill:inherit" />			</g>		</g>	</g></g><g id="aAS_three_quarter_crown" style=""><g><g>			<ellipse transform="matrix(0.1539 -0.9881 0.9881 0.1539 -106.1107 120.5387)" class="aA-cls-14" cx="17.3" cy="122.2" rx="12.7" ry="12.7" data-color-action="stroke" style="stroke:inherit" /><line class="aA-cls-14" x1="10.3" y1="112.6" x2="24.3" y2="131.8" data-color-action="stroke" style="stroke:inherit" />		</g><text transform="matrix(1 0 0 1 6.7033 126.808)" class="aA-cls-15 aA-cls-16">NA</text>	</g></g><g id="aAS_crown" style=""><path class="aA-cls-26" d="M47.7,120.6c1.5,0.8,2.3,4.6,3.3,9c1.2,5.6,1.9,10.5,1,12.3c-2.8,5.4-7.5,6.4-10.7,6.5   c-3.2,0.1-5.7-1.6-9.1-3.1c-1.7-0.7-3-1.5-4.9-0.8c-3.1,1.1-6.3,2.2-8.3,1.8c-7.2-1.6-11.3-5.8-10.5-10.3c0.9-4.8,1.4-14.3,4-15.7   C15.9,118.3,42.6,117.8,47.7,120.6z" data-color-action="fill" style="fill:inherit" /></g><g id="aAS_cracked_surface_mesial" style=""><polyline class="aA-cls-27" points="44.3,126.8 48.2,130.7 43.2,130.7 48.2,135.4 43.2,135.4 47,139.2  " data-color-action="stroke" style="stroke:inherit" /></g><g id="aAS_cracked_surface_buccal" style=""><polyline class="aA-cls-27" points="29.2,126.8 33,130.7 28,130.7 33,135.4 28,135.4 31.8,139.2  " data-color-action="stroke" style="stroke:inherit" /></g><g id="aAS_cracked_surface_buccal_V" style=""><polyline class="aA-cls-27" points="29.2,126.8 33,130.7 28,130.7 33,135.4 28,135.4 31.8,139.2  " data-color-action="stroke" style="stroke:inherit" /></g><g id="aAS_cracked_surface_distal" style=""><polyline class="aA-cls-27" points="13.3,126.8 17.2,130.7 12.2,130.7 17.2,135.4 12.2,135.4 16,139.2  " data-color-action="stroke" style="stroke:inherit" /></g><g id="aAS_chipped_surface_mesial" style=""><g><line class="aA-cls-27" x1="40.8" y1="128.5" x2="49.2" y2="136.8" data-color-action="stroke" style="stroke:inherit" /><line class="aA-cls-27" x1="49.2" y1="128.5" x2="40.8" y2="136.8" data-color-action="stroke" style="stroke:inherit" />	</g></g><g id="aAS_chipped_surface_buccal" style=""><g><line class="aA-cls-27" x1="26.7" y1="128.5" x2="35" y2="136.8" data-color-action="stroke" style="stroke:inherit" /><line class="aA-cls-27" x1="35" y1="128.5" x2="26.7" y2="136.8" data-color-action="stroke" style="stroke:inherit" />	</g></g><g id="aAS_chipped_surface_buccal_V" style=""><g><line class="aA-cls-27" x1="26.7" y1="128.5" x2="35" y2="136.8" data-color-action="stroke" style="stroke:inherit" /><line class="aA-cls-27" x1="35" y1="128.5" x2="26.7" y2="136.8" data-color-action="stroke" style="stroke:inherit" />	</g></g><g id="aAS_chipped_surface_distal" style=""><g><line class="aA-cls-27" x1="11.7" y1="128.5" x2="20" y2="136.8" data-color-action="stroke" style="stroke:inherit" /><line class="aA-cls-27" x1="20" y1="128.5" x2="11.7" y2="136.8" data-color-action="stroke" style="stroke:inherit" />	</g></g><g id="aAS_buccal_abfraction" style=""><g><g>			<ellipse transform="matrix(0.1539 -0.9881 0.9881 0.1539 -106.1107 120.5387)" class="aA-cls-14" cx="17.3" cy="122.2" rx="12.7" ry="12.7" data-color-action="stroke" style="stroke:inherit" /><line class="aA-cls-14" x1="10.3" y1="112.6" x2="24.3" y2="131.8" data-color-action="stroke" style="stroke:inherit" />		</g><text transform="matrix(1 0 0 1 6.7033 126.808)" class="aA-cls-15 aA-cls-16">NA</text>	</g></g><g id="aAS_braces" style=""><g><g><rect x="23.6" y="123" class="aA-cls-23" width="13.5" height="18.2" /><rect x="23.6" y="140.5" class="aA-cls-28" width="13.5" height="0.7" data-color-action="fill" style="fill:inherit" /><rect x="23.6" y="132.2" class="aA-cls-28" width="13.5" height="1.4" data-color-action="fill" style="fill:inherit" /><rect x="23.6" y="123" class="aA-cls-29" width="13.5" height="0.9" data-color-action="fill" style="fill:inherit" /><g><g><g><path class="aA-cls-30" d="M26.9,123h-3.1c-0.3,0-0.5,0.2-0.5,0.5v7c0,0.3,0.2,0.5,0.5,0.5h3.1c0.3,0,0.5-0.2,0.5-0.5v-7        C27.4,123.2,27.2,123,26.9,123z" data-color-action="fill" style="fill:inherit" /><path class="aA-cls-19" d="M26.9,123h-3.1c-0.3,0-0.5,0.2-0.5,0.5v5.8c0.7,0.1,1.3,0.2,2,0.2c0.7,0,1.4-0.1,2.1-0.2v-5.8        C27.4,123.2,27.2,123,26.9,123z" data-color-action="fill" style="fill:inherit" /><path class="aA-cls-23" d="M27.1,124.4v-1.1c0-0.1-0.1-0.2-0.2-0.2h-3.1c-0.1,0-0.2,0.1-0.2,0.2v1.1H27.1z" />					</g><g><path class="aA-cls-30" d="M36.8,123h-3.1c-0.3,0-0.5,0.2-0.5,0.5v7c0,0.3,0.2,0.5,0.5,0.5h3.1c0.3,0,0.5-0.2,0.5-0.5v-7        C37.3,123.2,37.1,123,36.8,123z" data-color-action="fill" style="fill:inherit" /><path class="aA-cls-19" d="M36.8,123h-3.1c-0.3,0-0.5,0.2-0.5,0.5v5.8c0.7,0.1,1.3,0.2,2,0.2c0.7,0,1.4-0.1,2.1-0.2v-5.8        C37.3,123.2,37.1,123,36.8,123z" data-color-action="fill" style="fill:inherit" /><path class="aA-cls-23" d="M37,124.4v-1.1c0-0.1-0.1-0.2-0.2-0.2h-3.1c-0.1,0-0.2,0.1-0.2,0.2v1.1H37z" />					</g>				</g><g><g><path class="aA-cls-30" d="M26.9,133.3h-3.1c-0.3,0-0.5,0.2-0.5,0.5v7c0,0.3,0.2,0.5,0.5,0.5h3.1c0.3,0,0.5-0.2,0.5-0.5v-7        C27.4,133.5,27.2,133.3,26.9,133.3z" data-color-action="fill" style="fill:inherit" /><path class="aA-cls-19" d="M26.9,133.3h-3.1c-0.3,0-0.5,0.2-0.5,0.5v5.8c0.7,0.1,1.3,0.2,2,0.2c0.7,0,1.4-0.1,2.1-0.2v-5.8        C27.4,133.5,27.2,133.3,26.9,133.3z" data-color-action="fill" style="fill:inherit" /><path class="aA-cls-23" d="M27.1,134.7v-1.1c0-0.1-0.1-0.2-0.2-0.2h-3.1c-0.1,0-0.2,0.1-0.2,0.2v1.1H27.1z" />					</g><g><path class="aA-cls-30" d="M36.8,133.3h-3.1c-0.3,0-0.5,0.2-0.5,0.5v7c0,0.3,0.2,0.5,0.5,0.5h3.1c0.3,0,0.5-0.2,0.5-0.5v-7        C37.3,133.5,37.1,133.3,36.8,133.3z" data-color-action="fill" style="fill:inherit" /><path class="aA-cls-19" d="M36.8,133.3h-3.1c-0.3,0-0.5,0.2-0.5,0.5v5.8c0.7,0.1,1.3,0.2,2,0.2c0.7,0,1.4-0.1,2.1-0.2v-5.8        C37.3,133.5,37.1,133.3,36.8,133.3z" data-color-action="fill" style="fill:inherit" /><path class="aA-cls-23" d="M37,134.7v-1.1c0-0.1-0.1-0.2-0.2-0.2h-3.1c-0.1,0-0.2,0.1-0.2,0.2v1.1H37z" />					</g>				</g>			</g>		</g><g><rect x="9.2" y="131.4" class="aA-cls-19" width="42.2" height="1.4" data-color-action="fill" style="fill:inherit" /><rect x="9.2" y="132.6" class="aA-cls-30" width="42.2" height="0.2" data-color-action="fill" style="fill:inherit" /><rect x="9.2" y="131.6" class="aA-cls-23" width="42.2" height="0.4" />		</g>	</g></g><g id="aAS_apicoectomy" style=""><g><g>			<ellipse transform="matrix(0.1539 -0.9881 0.9881 0.1539 -106.1107 120.5387)" class="aA-cls-14" cx="17.3" cy="122.2" rx="12.7" ry="12.7" data-color-action="stroke" style="stroke:inherit" /><line class="aA-cls-14" x1="10.3" y1="112.6" x2="24.3" y2="131.8" data-color-action="stroke" style="stroke:inherit" />		</g><text transform="matrix(1 0 0 1 6.7033 126.808)" class="aA-cls-15 aA-cls-16">NA</text>	</g></g><g id="aAS_abscess" style=""><circle class="aA-cls-18" cx="29.5" cy="70.7" r="6.1" data-color-action="fill" style="fill:inherit" /></g><g id="aAS_blunted_roots" style=""><g><g>			<ellipse transform="matrix(0.1539 -0.9881 0.9881 0.1539 -106.1107 120.5387)" class="aA-cls-14" cx="17.3" cy="122.2" rx="12.7" ry="12.7" data-color-action="stroke" style="stroke:inherit" /><line class="aA-cls-14" x1="10.3" y1="112.6" x2="24.3" y2="131.8" data-color-action="stroke" style="stroke:inherit" />		</g><text transform="matrix(1 0 0 1 6.7033 126.808)" class="aA-cls-15 aA-cls-16">NA</text>	</g></g><g id="aAS_root_amputation" style=""><g><g>			<ellipse transform="matrix(0.1539 -0.9881 0.9881 0.1539 -106.1107 120.5387)" class="aA-cls-14" cx="17.3" cy="122.2" rx="12.7" ry="12.7" data-color-action="stroke" style="stroke:inherit" /><line class="aA-cls-14" x1="10.3" y1="112.6" x2="24.3" y2="131.8" data-color-action="stroke" style="stroke:inherit" />		</g><text transform="matrix(1 0 0 1 6.7033 126.808)" class="aA-cls-15 aA-cls-16">NA</text>	</g><g id="root_amputation_3"><g><g>			<ellipse transform="matrix(0.1539 -0.9881 0.9881 0.1539 -106.1107 120.5387)" class="aA-cls-14" cx="17.3" cy="122.2" rx="12.7" ry="12.7" data-color-action="stroke" style="stroke:inherit" /><line class="aA-cls-14" x1="10.3" y1="112.6" x2="24.3" y2="131.8" data-color-action="stroke" style="stroke:inherit" />		</g><text transform="matrix(1 0 0 1 6.7033 126.808)" class="aA-cls-15 aA-cls-16">NA</text>	</g></g><g id="root_amputation_2"><g><g>			<ellipse transform="matrix(0.1539 -0.9881 0.9881 0.1539 -106.1107 120.5387)" class="aA-cls-14" cx="17.3" cy="122.2" rx="12.7" ry="12.7" data-color-action="stroke" style="stroke:inherit" /><line class="aA-cls-14" x1="10.3" y1="112.6" x2="24.3" y2="131.8" data-color-action="stroke" style="stroke:inherit" />		</g><text transform="matrix(1 0 0 1 6.7033 126.808)" class="aA-cls-15 aA-cls-16">NA</text>	</g></g><g id="root_amputation_1"><g><g>			<ellipse transform="matrix(0.1539 -0.9881 0.9881 0.1539 -106.1107 120.5387)" class="aA-cls-14" cx="17.3" cy="122.2" rx="12.7" ry="12.7" data-color-action="stroke" style="stroke:inherit" /><line class="aA-cls-14" x1="10.3" y1="112.6" x2="24.3" y2="131.8" data-color-action="stroke" style="stroke:inherit" />		</g><text transform="matrix(1 0 0 1 6.7033 126.808)" class="aA-cls-15 aA-cls-16">NA</text>	</g></g></g><g id="aAS_missing_crown" style=""><g><g>			<ellipse transform="matrix(0.1539 -0.9881 0.9881 0.1539 -106.1107 120.5387)" class="aA-cls-14" cx="17.3" cy="122.2" rx="12.7" ry="12.7" data-color-action="stroke" style="stroke:inherit" /><line class="aA-cls-14" x1="10.3" y1="112.6" x2="24.3" y2="131.8" data-color-action="stroke" style="stroke:inherit" />		</g><text transform="matrix(1 0 0 1 6.7033 126.808)" class="aA-cls-15 aA-cls-16">NA</text>	</g></g><g id="aAS_missing_tooth" style="" data-name="missing tooth"><g><path class="aA-cls-2" d="M50.9,129.6c-0.8-3.8-1.5-7.1-2.7-8.5c-2.2-7.1-1.3-20.7-0.9-27.1c0.6-9.4-2-19.9-4.5-20.2    c-1.3-0.2-2,9.2-3.9,17.6c-1,4.4-3.3,8.4-5.5,10.9c-1.2-2.7-2.4-6-3.2-9.1c-2.5-10.4-1.7-19-2.8-19.3c-1.1-0.3-3.3,3.1-4.4,9.7    c-0.7,3.9-1.3,10.8-1.4,16.5c-2.3-2.5-4.5-5.7-5.7-9.2c-2.9-8.5-4.7-18.6-6.7-18.7c-2-0.1-3.4,5.7-2,14.3    c0.8,4.7,7.3,25.6,7.2,27.7c-0.2,2.5-1,4.3-1.8,6.2c-0.1,0-0.2,0.1-0.2,0.1c-2.6,1.4-3.1,10.8-4,15.7c-0.8,4.6,3.3,8.8,10.5,10.3    c2,0.4,5.2-0.7,8.3-1.8c1.9-0.7,3.2,0.1,4.9,0.8c3.4,1.5,6,3.2,9.1,3.1s7.9-1,10.7-6.5C52.8,140.1,52.1,135.2,50.9,129.6z" data-color-action="fill,stroke" style="fill,stroke:inherit" /><path class="aA-cls-24" d="M36.2,108c0,0-4.2-7.7-5.9-14.9c-2.5-10.4-1.7-19-2.8-19.3c-1.1-0.3-3.3,3.1-4.4,9.7    c-1.1,6.5-2.2,21.4-0.8,24.7C23.7,111.4,35.5,113.6,36.2,108z" /><path class="aA-cls-24" d="M22.3,108.1c-1.3-3-0.4-16.1,0.6-23.2c-0.2,5.5,0.3,12.8,1.6,14.4c1.9,2.3,5.7,2.8,6.2,1.4    c0.5-1.4-1.6-6-2.2-11.6c-0.3-2.9-0.2-5.8-0.1-8c0.3,3.3,0.7,7.5,1.8,12c1.7,7.2,5.9,14.9,5.9,14.9    C35.5,113.6,23.7,111.4,22.3,108.1z" /><path class="aA-cls-24" d="M49.4,123.6c-3.6-5.8-2.5-22.3-2-29.6c0.6-9.4-2-19.9-4.5-20.2c-1.3-0.2-2,9.2-3.9,17.6    c-1.7,7.3-6.8,13.7-9.8,13.5c-3-0.1-10.6-6.4-13.2-14.1c-2.9-8.5-4.7-18.6-6.7-18.7c-2-0.1-3.4,5.7-2,14.3    c0.8,4.7,7.3,25.6,7.2,27.7c-0.3,3.6-1.7,5.8-3,8.6C10.4,124.9,50.6,125.6,49.4,123.6z" /><path class="aA-cls-24" d="M8.8,73.8c-0.4-0.4-1,1.5-0.7,5.2c0.5,8.5,4,17.7,8.3,25.6c3.1,5.7,4.4,11.2,2.8,15.1    c-1.6,3.9-3.7,6.8,0.4,6.3c2.8-0.4,3.8-5.5,4-9.2c0.3-9.7-8.3-13.2-13.9-33.1C7.8,76.9,9.5,74.4,8.8,73.8z" /><path class="aA-cls-24" d="M44.7,108.1c0,5.2-0.3,11.6,1,13.2c0.4,0.5,1.3,1.1,3.3,1.7c-3.3-6.3-2.1-21.9-1.6-28.9    c0.3-5.1-0.3-10.6-1.4-14.6c0.4,3.8,0.8,9.7,0.3,12.5C45.7,96.3,44.7,104.1,44.7,108.1z" /><path class="aA-cls-24" d="M7.3,86.3c0.8,4.7,7.3,25.6,7.2,27.7c-0.3,2.9-1.2,4.9-2.3,7.1l1.7-0.3c0,0,1.3-1.4,2.1-4.1    c1-3.5-0.1-6.2-1.5-10.2c-1.7-4.9-3.7-9.9-6.6-22.8c-1.3-5.7-0.4-8.8-0.2-10.3C6.7,75.5,6.3,80.2,7.3,86.3z" /><path class="aA-cls-24" d="M12.6,79.3c1,4.8,2.4,10.3,3.2,12.9c1.1,4,8.7,16.7,14.8,15.1c6.1-1.6,9.6-14.9,10.1-17.8    c0.7-4.2,0.7-8.1,0.8-11.9c-0.6,3.5-1.3,8.8-2.5,13.7c-1.7,7.3-6.8,13.7-9.8,13.5c-3-0.1-10.6-6.4-13.2-14.1    C14.6,86.9,13.5,82.7,12.6,79.3z" /><path class="aA-cls-24" d="M47.7,120.6c1.5,0.8,2.3,4.6,3.3,9c1.2,5.6,1.9,10.5,1,12.3c-2.8,5.4-7.5,6.4-10.7,6.5    c-3.2,0.1-5.7-1.6-9.1-3.1c-1.7-0.7-3-1.5-4.9-0.8c-3.1,1.1-6.3,2.2-8.3,1.8c-7.2-1.6-11.3-5.8-10.5-10.3c0.9-4.8,1.4-14.3,4-15.7    C15.9,118.3,42.6,117.8,47.7,120.6z" /><path class="aA-cls-24" d="M37.6,143.9c0-0.8-1.3-2.6-1.6-3.6c-0.3-1-0.9-0.4-0.9,0.2c0,0.6-0.3,3.1,0.2,3.7    C35.9,144.9,37.6,145,37.6,143.9z" /><path class="aA-cls-24" d="M12.4,120.2C12.4,120.2,12.4,120.2,12.4,120.2c-0.1,0.1-0.2,0.1-0.3,0.2c-2.4,1.9-2.9,10.8-3.7,15.5    c-0.5,2.8,0.9,5.5,3.6,7.5c-0.9-1.1-1.6-2.7-1.8-4.7c-0.4-3.9,1.3-14.4,3.1-18.8C13,120,12.6,120.1,12.4,120.2z" /><path class="aA-cls-24" d="M49.5,145.2c0.9-0.9,1.7-1.9,2.4-3.3c0.9-1.8,0.2-6.7-1-12.3c-1-4.5-1.8-8.2-3.3-9c-0.4-0.2-1-0.4-1.6-0.6    c1,1.9,2.2,5.7,3.1,10.3c1.4,7,2,11.6,0.8,14.2C49.8,144.7,49.7,145,49.5,145.2z" /><path class="aA-cls-24" d="M27.2,144.4c1.9-0.7,3.2,0.1,4.9,0.8c0.8,0.4,1.6,0.7,2.3,1.1c-1.3-0.7-3.3-2.4-4.4-2.7    c-1.4-0.4-2.1-0.3-2.7,0.1c-0.2,0.1-1,0.7-1.7,1.2C26.1,144.8,26.7,144.6,27.2,144.4z" /><path class="aA-cls-24" d="M42.6,77.8c-0.8-0.2,0.8,2.7-0.7,15.5c-1.1,9.4-3.5,12.6-3,13c0.5,0.4,3.3-4.8,4.6-14.4    C44.2,85.9,43.2,78,42.6,77.8z" /><path class="aA-cls-24" d="M26.7,75.9c0.4,0.2-0.7,2.5-1.2,6.8s0.4,8.1,0.1,8.2s-1.5-4.5-1-8.3C25.1,78.9,26.5,75.9,26.7,75.9z" /><path class="aA-cls-24" d="M23.3,118.8c-1.3,0.1-2.6,0.1-3.8,0.2c-0.5,1.9-1.2,4.9-1.5,7.2c-0.6,5.1-0.9,10.8,0,17.4    c0.1,0.8,0.2,1.6,0.3,2.5c0.2,0,0.3,0.1,0.5,0.1c1.1,0.2,2.4,0,4-0.4c-0.2-0.8-0.5-1.5-0.5-2.2c-0.3-2.2-1.4-8.5-0.6-18.5    C21.9,122.8,22.8,120.4,23.3,118.8z" />	</g></g><g id="aAS_extracted_tooth" data-name="extracted tooth" style=""><g class="aA-msng-cls-10"><line class="aA-msng-cls-11" x1="9" y1="108.83" x2="50.67" y2="150.49" data-color-action="stroke" style="stroke:inherit" /><line class="aA-msng-cls-11" x1="50.67" y1="108.83" x2="9" y2="150.49" data-color-action="stroke" style="stroke:inherit" /></g></g><g id="aAS_denture" style=""><g><g>			<ellipse transform="matrix(0.1539 -0.9881 0.9881 0.1539 -106.1107 120.5387)" class="aA-cls-14" cx="17.3" cy="122.2" rx="12.7" ry="12.7" data-color-action="stroke" style="stroke:inherit" /><line class="aA-cls-14" x1="10.3" y1="112.6" x2="24.3" y2="131.8" data-color-action="stroke" style="stroke:inherit" />		</g><text transform="matrix(1 0 0 1 6.7033 126.808)" class="aA-cls-15 aA-cls-16">NA</text>	</g></g><g id="aAS_maryland_bridge_pontic" style=""><g><g>			<ellipse transform="matrix(0.1539 -0.9881 0.9881 0.1539 -106.1107 120.5387)" class="aA-cls-14" cx="17.3" cy="122.2" rx="12.7" ry="12.7" data-color-action="stroke" style="stroke:inherit" /><line class="aA-cls-14" x1="10.3" y1="112.6" x2="24.3" y2="131.8" data-color-action="stroke" style="stroke:inherit" />		</g><text transform="matrix(1 0 0 1 6.7033 126.808)" class="aA-cls-15 aA-cls-16">NA</text>	</g></g><g id="aAS_maryland_bridge_abutment_mesial" style=""><g><g>			<ellipse transform="matrix(0.1539 -0.9881 0.9881 0.1539 -106.1107 120.5387)" class="aA-cls-14" cx="17.3" cy="122.2" rx="12.7" ry="12.7" data-color-action="stroke" style="stroke:inherit" /><line class="aA-cls-14" x1="10.3" y1="112.6" x2="24.3" y2="131.8" data-color-action="stroke" style="stroke:inherit" />		</g><text transform="matrix(1 0 0 1 6.7033 126.808)" class="aA-cls-15 aA-cls-16">NA</text>	</g></g><g id="aAS_maryland_bridge_abutment_distal" style=""><g><g>			<ellipse transform="matrix(0.1539 -0.9881 0.9881 0.1539 -106.1107 120.5387)" class="aA-cls-14" cx="17.3" cy="122.2" rx="12.7" ry="12.7" data-color-action="stroke" style="stroke:inherit" /><line class="aA-cls-14" x1="10.3" y1="112.6" x2="24.3" y2="131.8" data-color-action="stroke" style="stroke:inherit" />		</g><text transform="matrix(1 0 0 1 6.7033 126.808)" class="aA-cls-15 aA-cls-16">NA</text>	</g></g><g id="aAS_maryland_bridge_abutment" style=""><g><g>			<ellipse transform="matrix(0.1539 -0.9881 0.9881 0.1539 -106.1107 120.5387)" class="aA-cls-14" cx="17.3" cy="122.2" rx="12.7" ry="12.7" data-color-action="stroke" style="stroke:inherit" /><line class="aA-cls-14" x1="10.3" y1="112.6" x2="24.3" y2="131.8" data-color-action="stroke" style="stroke:inherit" />		</g><text transform="matrix(1 0 0 1 6.7033 126.808)" class="aA-cls-15 aA-cls-16">NA</text>	</g></g><g id="aAS_bridge_abutment_mesial" style=""><g><g>			<ellipse transform="matrix(0.1539 -0.9881 0.9881 0.1539 -106.1107 120.5387)" class="aA-cls-14" cx="17.3" cy="122.2" rx="12.7" ry="12.7" data-color-action="stroke" style="stroke:inherit" /><line class="aA-cls-14" x1="10.3" y1="112.6" x2="24.3" y2="131.8" data-color-action="stroke" style="stroke:inherit" />		</g><text transform="matrix(1 0 0 1 6.7033 126.808)" class="aA-cls-15 aA-cls-16">NA</text>	</g></g><g id="aAS_bridge_abutment_distal" style=""><g><g>			<ellipse transform="matrix(0.1539 -0.9881 0.9881 0.1539 -106.1107 120.5387)" class="aA-cls-14" cx="17.3" cy="122.2" rx="12.7" ry="12.7" data-color-action="stroke" style="stroke:inherit" /><line class="aA-cls-14" x1="10.3" y1="112.6" x2="24.3" y2="131.8" data-color-action="stroke" style="stroke:inherit" />		</g><text transform="matrix(1 0 0 1 6.7033 126.808)" class="aA-cls-15 aA-cls-16">NA</text>	</g></g><g id="aAS_bridge_abutment" style=""><g><g>			<ellipse transform="matrix(0.1539 -0.9881 0.9881 0.1539 -106.1107 120.5387)" class="aA-cls-14" cx="17.3" cy="122.2" rx="12.7" ry="12.7" data-color-action="stroke" style="stroke:inherit" /><line class="aA-cls-14" x1="10.3" y1="112.6" x2="24.3" y2="131.8" data-color-action="stroke" style="stroke:inherit" />		</g><text transform="matrix(1 0 0 1 6.7033 126.808)" class="aA-cls-15 aA-cls-16">NA</text>	</g></g><g id="aAS_bridge_pontic" style=""><g><g>			<ellipse transform="matrix(0.1539 -0.9881 0.9881 0.1539 -106.1107 120.5387)" class="aA-cls-14" cx="17.3" cy="122.2" rx="12.7" ry="12.7" data-color-action="stroke" style="stroke:inherit" /><line class="aA-cls-14" x1="10.3" y1="112.6" x2="24.3" y2="131.8" data-color-action="stroke" style="stroke:inherit" />		</g><text transform="matrix(1 0 0 1 6.7033 126.808)" class="aA-cls-15 aA-cls-16">NA</text>	</g></g><g id="aAS_implant_mini" style=""><g><g>			<ellipse transform="matrix(0.1539 -0.9881 0.9881 0.1539 -106.1107 120.5387)" class="aA-cls-14" cx="17.3" cy="122.2" rx="12.7" ry="12.7" data-color-action="stroke" style="stroke:inherit" /><line class="aA-cls-14" x1="10.3" y1="112.6" x2="24.3" y2="131.8" data-color-action="stroke" style="stroke:inherit" />		</g><text transform="matrix(1 0 0 1 6.7033 126.808)" class="aA-cls-15 aA-cls-16">NA</text>	</g></g><g id="aAS_implant_cylinder" style=""><g><g>			<ellipse transform="matrix(0.1539 -0.9881 0.9881 0.1539 -106.1107 120.5387)" class="aA-cls-14" cx="17.3" cy="122.2" rx="12.7" ry="12.7" data-color-action="stroke" style="stroke:inherit" /><line class="aA-cls-14" x1="10.3" y1="112.6" x2="24.3" y2="131.8" data-color-action="stroke" style="stroke:inherit" />		</g><text transform="matrix(1 0 0 1 6.7033 126.808)" class="aA-cls-15 aA-cls-16">NA</text>	</g></g><g id="aAS_implant_blade" style=""><g><g>			<ellipse transform="matrix(0.1539 -0.9881 0.9881 0.1539 -106.1107 120.5387)" class="aA-cls-14" cx="17.3" cy="122.2" rx="12.7" ry="12.7" data-color-action="stroke" style="stroke:inherit" /><line class="aA-cls-14" x1="10.3" y1="112.6" x2="24.3" y2="131.8" data-color-action="stroke" style="stroke:inherit" />		</g><text transform="matrix(1 0 0 1 6.7033 126.808)" class="aA-cls-15 aA-cls-16">NA</text>	</g></g><g id="aAS_watch_tooth" style=""><g><path class="aA-cls-13" d="M8.3,27.7c0-1.8,1.4-3.3,3.2-3.3c1.8,0,3.3,1.5,3.3,3.3c0,1.7-1.5,3.2-3.3,3.2C9.7,30.9,8.3,29.5,8.3,27.7z     M9.2,21.8L8.4,3.7h6.2l-0.8,18.1H9.2z" data-color-action="fill" style="fill:inherit" />	</g></g><g id="aAS_border" style=""><rect y="0" transform="matrix(-1 -4.488910e-11 4.488910e-11 -1 59 161)" class="aA-cls-17" width="59" height="161" /></g></defs></g><g class="bA-cls-1" transform="translate(0 161)"><g id="_Ab">	<g>		<g>			<path class="bA-cls-2" d="M50.4,15c1,1.3,1.1,7,0.8,10.8c-0.4,3.8-1,5-1,6.8s1,3.4,0.4,7.3c-0.6,3.9-7.5,6.6-9.3,6.9     c-8,1.1-13.3-2.9-16.5-2c-3.4,1-8.9,1-12.4-0.7c-2.1-1-4.6-4.2-4.8-7.4s0.7-7,0.3-8S7.7,25.1,8.3,21c0.3-2.1,2.2-7.7,8.1-8.2     c9.3-0.9,12.2-4.6,23-3.6C46.5,9.8,48.4,12.5,50.4,15z" />		</g>		<g>			<path class="bA-cls-3" d="M50.4,15c1,1.3,1.1,7,0.8,10.8c-0.4,3.8-1,5-1,6.8s1,3.4,0.4,7.3c-0.6,3.9-7.5,6.6-9.3,6.9     c-8,1.1-13.3-2.9-16.5-2c-3.4,1-8.9,1-12.4-0.7c-2.1-1-4.6-4.2-4.8-7.4s0.7-7,0.3-8S7.7,25.1,8.3,21c0.3-2.1,2.2-7.7,8.1-8.2     c9.3-0.9,12.2-4.6,23-3.6C46.5,9.8,48.4,12.5,50.4,15z" />		</g>		<path class="bA-cls-4" d="M51.2,24.8c-0.7,0.9-1.7,1.7-2.7,2.3c-1.8,1,0.1,6.5,0.1,9.5c0,3-1.3,5.2-2.8,6.1c-1.5,0.9-7.5,1.5-10,1.3    c-2.5-0.1-6.9-2.1-9.6-2.5c-2.7-0.4-6.5,2.1-9,1.8c-2.5-0.3-5.5-2.2-6.9-3.8c-1.5-1.6-1.5-6.4-1.2-7.8c0.3-1.5,2.4-1.5,2.5-2.5    c0.1-1-1.5-0.3-2.8-1.3c-0.5-0.4-0.8-0.9-1.1-1.4c0,1.1,0,1.9,0.2,2.4c0.4,1.1-0.5,4.8-0.3,8c0.2,3.2,2.7,6.3,4.8,7.4    c3.4,1.7,8.9,1.7,12.4,0.7c3.2-0.9,8.5,3.1,16.5,2c1.8-0.3,8.7-2.9,9.3-6.9c0.6-3.9-0.4-5.6-0.4-7.3c0-1.8,0.6-3,1-6.8    C51.2,25.5,51.2,25.2,51.2,24.8z" />		<path class="bA-cls-4" d="M14.7,29.1c0.7,1,2.1-1.3,3.1-0.6s1,5.6,1.9,5.2s0.1-5.3,1.3-5.5s4-0.6,5.2-0.6c1.2,0,0.9,1.9,1.9,1.6    c1-0.3,0.4-1.9,2.4-1.9s5.3,0.6,6.8,0.7c1.5,0.1,1.5,7.1,2.7,6.6s-0.6-5.5,0.1-5.9c0.7-0.4,3.1-0.1,3.2-0.7    c0.1-0.6-2.5-0.9-2.8-1.6s5-6.2,4.1-6.6c-0.9-0.4-6.8,6.9-8.4,6.5c-1.6-0.4-3.1-0.6-4.4-0.7c-1.3-0.1-3.4-8.4-4.4-7.7    s2.7,6.4,1.6,6.9c-1,0.6-4.3,1.5-5.5,1.5c-1.2,0-4.6-4.9-5.2-4.4c-0.6,0.4,3.4,4.6,1.8,4.7S14,28.1,14.7,29.1z" />		<path class="bA-cls-5" d="M51,16.6c-0.1-0.8-0.3-1.3-0.6-1.7c-2-2.5-3.9-5.2-11-5.9c-10.8-1-13.8,2.7-23,3.6c-0.5,0-1,0.1-1.5,0.3    c1.4,0.1,2.6,0.7,3.2,0.7c1.2,0.1,4.2,0.6,6.4,0c2.2-0.6,5.5-1.6,7.3-1.9c4-0.7,9.2,0.3,10.7,0.6C44.8,12.8,49.5,15.2,51,16.6z" />	</g></g><defs><g id="bAS_cusp_4" style="">	<path class="bA-cls-6" d="M29.4,33.7l6.9,13.2c1.5,0.2,3.2,0.2,5-0.1c1.8-0.3,8.7-2.9,9.3-6.9c0-0.1,0-0.2,0-0.3l-18.2-7   C31.6,33.2,30.5,33.6,29.4,33.7z" data-color-action="fill" style="fill:inherit" /></g><g id="bAS_groove_2" style="">	<path class="bA-cls-6" d="M28.7,33.8c-0.7,0-1.3-0.1-1.9-0.3l-6.2,12c1.6-0.1,3.1-0.3,4.3-0.6c2.4-0.7,6.2,1.5,11.4,2.1l-6.9-13.2   C29.2,33.7,28.9,33.8,28.7,33.8z" data-color-action="fill" style="fill:inherit" /></g><g id="bAS_cusp_3" style="">	<path class="bA-cls-6" d="M24.3,32.2L7.8,37.6c0.5,2.9,2.8,5.6,4.7,6.5c2.2,1.1,5.3,1.5,8.1,1.4l6.2-12C25.8,33.2,25,32.8,24.3,32.2z" data-color-action="fill" style="fill:inherit" /></g><g id="bAS_mesial" style="">	<path class="bA-cls-6" d="M50.7,38.7c0.2-3-0.5-4.5-0.5-6.1c0-1.8,0.6-3,1-6.8c0.2-2,0.3-4.5,0.1-6.7c-1.9,2.2-4.6,6.1-4.8,9.5   C46.3,31.4,48.6,35.5,50.7,38.7z" data-color-action="fill" style="fill:inherit" /></g><g id="bAS_mesial_pit" style="">	<path class="bA-cls-6" d="M34.9,28.3c0,1.8-1,3.3-2.5,4.3l18.2,7c0-0.3,0.1-0.7,0.1-1c-2.1-3.1-4.4-7.3-4.2-10c0.2-3.5,2.8-7.3,4.8-9.5   c0-0.4-0.1-0.9-0.1-1.2l-18.3,6.5C34.1,25.3,34.9,26.7,34.9,28.3z" data-color-action="fill" style="fill:inherit" /></g><g id="bAS_central_pit" style="">	<ellipse class="bA-cls-6" cx="28.7" cy="28.3" rx="6.2" ry="5.4" data-color-action="fill" style="fill:inherit" /></g><g id="bAS_distal_pit" style="">	<path class="bA-cls-6" d="M22.5,28.3c0-1.7,0.9-3.2,2.3-4.2L9.1,18.2c-0.1,0.2-0.2,0.4-0.3,0.7c1.7,2,3.3,4.8,3.4,8.7   c0.1,3.4-2.3,7.2-4.5,9.6c0,0.2,0,0.3,0.1,0.4l16.5-5.4C23.2,31.2,22.5,29.9,22.5,28.3z" data-color-action="fill" style="fill:inherit" /></g><g id="bAS_distal" style="">	<path class="bA-cls-6" d="M8.8,18.9c-0.3,0.8-0.5,1.6-0.6,2.1c-0.6,4.1-0.7,6.7-0.3,7.7s-0.5,4.8-0.3,8c0,0.1,0,0.3,0.1,0.4   c2.2-2.4,4.6-6.3,4.5-9.6C12.2,23.6,10.6,20.8,8.8,18.9z" data-color-action="fill" style="fill:inherit" /></g><g id="bAS_cusp_2" style="">	<path class="bA-cls-6" d="M32.8,24.3l18.3-6.5c-0.2-1.4-0.4-2.4-0.8-2.9c-2-2.5-3.9-5.2-11-5.9C38.5,9.1,37.7,9,36.9,9l-6.8,14.1   C31.2,23.3,32.1,23.7,32.8,24.3z" data-color-action="fill" style="fill:inherit" /></g><g id="bAS_groove_1" style="">	<path class="bA-cls-6" d="M28.7,22.9c0.5,0,1,0.1,1.5,0.2L36.9,9c-6.9-0.2-10.4,1.7-15.7,2.9l6.2,11.1C27.8,23,28.2,22.9,28.7,22.9z" data-color-action="fill" style="fill:inherit" /></g><g id="bAS_cusp_1" style="">	<path class="bA-cls-6" d="M27.4,23.1l-6.2-11.1c-1.4,0.3-3,0.6-4.8,0.8c-4.1,0.4-6.3,3.1-7.3,5.5l15.7,5.9   C25.5,23.6,26.4,23.2,27.4,23.1z" data-color-action="fill" style="fill:inherit" /></g><g id="bAS_tipped_lingual" style=""></g><g id="bAS_tipped_facial" style=""></g><g id="bAS_surface_restoration_lingual" style="">	<path class="bA-cls-7" d="M40.7,42.9C40,43,39.2,43,38.4,43c-2.8,0-5.2-0.7-7.3-1.3c-1.8-0.5-3.5-1-5.2-1c-0.8,0-1.5,0.1-2.2,0.3   c-1.1,0.3-2.7,0.5-4.2,0.5c-1.7,0-3.2-0.2-4.4-0.6l-3.1,3c0.1,0.1,0.3,0.2,0.4,0.2c3.4,1.7,8.9,1.7,12.4,0.7   c3.2-0.9,8.5,3.1,16.5,2c1.3-0.2,5.4-1.7,7.7-4.1l-3-2.6C44.9,41.2,42.1,42.6,40.7,42.9z" data-color-action="fill" style="fill:inherit" /></g><g id="bAS_surface_restoration_mesial" style="">	<path class="bA-cls-7" d="M50.6,40c0.6-3.9-0.4-5.6-0.4-7.3s0.6-3,1-6.8c0.4-3.8,0.2-9.5-0.8-10.8c-0.8-1-1.5-2-2.6-2.8l-2.2,3.4   c0.5,0.5,0.9,1,1.4,1.6c0.3,1.2,0.5,5,0.2,8.2c-0.2,1.7-0.4,2.8-0.6,3.8c-0.2,1.1-0.4,2.2-0.4,3.5c0,1,0.2,1.8,0.3,2.6   c0.2,1.1,0.4,2.2,0.1,4.2c-0.1,0.2-0.3,0.5-0.6,0.7l3,2.6C49.8,41.9,50.4,41,50.6,40z" data-color-action="fill" style="fill:inherit" /></g><g id="bAS_surface_restoration_occlusal" style="">	<path class="bA-cls-7" d="M39.1,13.1C38,13,36.9,13,35.9,13c-3.8,0-6.4,0.8-9.4,1.6c-2.7,0.8-5.7,1.7-9.8,2.1c-3.9,0.4-4.5,4.7-4.6,4.8   c-0.6,4.3-0.5,5.6-0.5,5.9c0.5,1.4,0.3,2.8,0.1,4.8c-0.1,1.4-0.3,2.9-0.2,4.2c0.1,1.6,1.6,3.6,2.6,4c1.2,0.6,3.2,1,5.3,1   c1.5,0,3-0.2,4.2-0.5c0.7-0.2,1.4-0.3,2.2-0.3c1.7,0,3.4,0.5,5.2,1c2.1,0.6,4.5,1.3,7.3,1.3c0.8,0,1.5-0.1,2.3-0.2   c1.7-0.3,5.6-2.4,5.9-3.5c0.3-1.9,0.1-3-0.1-4.2c-0.1-0.8-0.3-1.6-0.3-2.6c0-1.3,0.2-2.3,0.4-3.5c0.2-1,0.4-2.1,0.6-3.8   c0.3-3.3,0.1-7-0.2-8.2C45.4,15.1,44.1,13.6,39.1,13.1z" data-color-action="fill" style="fill:inherit" /></g><g id="bAS_surface_restoration_distal" style="">	<path class="bA-cls-7" d="M14.3,40.5c-1-0.5-2.5-2.4-2.6-4c-0.1-1.3,0.1-2.9,0.2-4.2c0.2-2,0.3-3.5-0.1-4.8c0-0.3-0.2-1.6,0.5-5.9   c0-0.1,0.4-2.5,2.2-3.9l-2.8-2.9c-2.3,2-3.1,4.8-3.3,6.2c-0.6,4.1-0.7,6.7-0.3,7.7s-0.5,4.8-0.3,8c0.2,3,2.4,5.9,4.4,7.1l3.1-3   C14.8,40.8,14.5,40.7,14.3,40.5z" data-color-action="fill" style="fill:inherit" /></g><g id="bAS_surface_restoration_buccal" style="">	<path class="bA-cls-7" d="M16.8,16.7c4.1-0.4,7.1-1.3,9.8-2.1c3-0.9,5.5-1.6,9.4-1.6c1,0,2,0.1,3.2,0.2c3.6,0.3,5.3,1.2,6.5,2.4l2.2-3.4   c-1.7-1.4-4.1-2.6-8.4-3c-10.8-1-13.8,2.7-23,3.6c-2.1,0.2-3.6,1-4.8,2l2.8,2.9C15,17.1,15.8,16.8,16.8,16.7z" data-color-action="fill" style="fill:inherit" /></g><g id="bAS_sub-erupted" style="">	<rect x="28" y="1.2" class="bA-cls-8" width="3" height="3" />	<rect x="28" y="1.2" class="bA-cls-8" width="3" height="3" />	<rect x="28" y="1.2" class="bA-cls-8" width="3" height="3" /></g><g id="bAS_sealant" style="">	<text transform="matrix(1 0 0 1 19.699 39.47)" class="bA-cls-9 bA-cls-10 bA-cls-11" data-color-action="fill" style="fill:inherit">S</text></g><g id="bAS_rotated_mesial" style=""></g><g id="bAS_rotated_distal" style=""></g><g id="bAS_root_canal" style="">	<rect x="28" y="1.2" class="bA-cls-8" width="3" height="3" />	<rect x="28" y="1.2" class="bA-cls-8" width="3" height="3" />	<rect x="28" y="1.2" class="bA-cls-8" width="3" height="3" /></g><g id="bAS_pins" style="">	<rect x="28" y="1.2" class="bA-cls-8" width="3" height="3" />	<rect x="28" y="1.2" class="bA-cls-8" width="3" height="3" />	<rect x="28" y="1.2" class="bA-cls-8" width="3" height="3" /></g><g id="bAS_mesial_drift" style=""></g><g id="bAS_distal_drift" style=""></g><g id="bAS_crown" style="">	<g>		<path class="bA-cls-13" d="M50.4,15c1,1.3,1.1,7,0.8,10.8c-0.4,3.8-1,5-1,6.8s1,3.4,0.4,7.3c-0.6,3.9-7.5,6.6-9.3,6.9    c-8,1.1-13.3-2.9-16.5-2c-3.4,1-8.9,1-12.4-0.7c-2.1-1-4.6-4.2-4.8-7.4s0.7-7,0.3-8S7.7,25.1,8.3,21c0.3-2.1,2.2-7.7,8.1-8.2    c9.3-0.9,12.2-4.6,23-3.6C46.5,9.8,48.4,12.5,50.4,15z" data-color-action="fill" style="fill:inherit" />	</g></g><g id="bAS_cracked_surface_occlusal" style="">	<polyline class="bA-cls-14" points="28.2,23.7 32,27.6 27,27.6 32,32.3 27,32.3 30.8,36.1  " data-color-action="stroke" style="stroke:inherit" /></g><g id="bAS_chipped_surface_occlusal" style="">	<g>		<line class="bA-cls-14" x1="25.7" y1="25.4" x2="34" y2="33.7" data-color-action="stroke" style="stroke:inherit" />		<line class="bA-cls-14" x1="34" y1="25.4" x2="25.7" y2="33.7" data-color-action="stroke" style="stroke:inherit" />	</g></g><g id="bAS_abscess" style="">	<rect x="28" y="1.2" class="bA-cls-8" width="3" height="3" />	<rect x="28" y="1.2" class="bA-cls-8" width="3" height="3" />	<rect x="28" y="1.2" class="bA-cls-8" width="3" height="3" /></g><g id="bAS_missing_tooth" style="" data-name="missing tooth">	<g>		<g>			<path class="bA-cls-2" d="M50.4,15c1,1.3,1.1,7,0.8,10.8c-0.4,3.8-1,5-1,6.8s1,3.4,0.4,7.3c-0.6,3.9-7.5,6.6-9.3,6.9     c-8,1.1-13.3-2.9-16.5-2c-3.4,1-8.9,1-12.4-0.7c-2.1-1-4.6-4.2-4.8-7.4s0.7-7,0.3-8S7.7,25.1,8.3,21c0.3-2.1,2.2-7.7,8.1-8.2     c9.3-0.9,12.2-4.6,23-3.6C46.5,9.8,48.4,12.5,50.4,15z" data-color-action="fill,stroke" style="fill,stroke:inherit" />		</g>		<g>			<path class="bA-cls-12" d="M50.4,15c1,1.3,1.1,7,0.8,10.8c-0.4,3.8-1,5-1,6.8s1,3.4,0.4,7.3c-0.6,3.9-7.5,6.6-9.3,6.9     c-8,1.1-13.3-2.9-16.5-2c-3.4,1-8.9,1-12.4-0.7c-2.1-1-4.6-4.2-4.8-7.4s0.7-7,0.3-8S7.7,25.1,8.3,21c0.3-2.1,2.2-7.7,8.1-8.2     c9.3-0.9,12.2-4.6,23-3.6C46.5,9.8,48.4,12.5,50.4,15z" />		</g>		<path class="bA-cls-12" d="M51.2,24.8c-0.7,0.9-1.7,1.7-2.7,2.3c-1.8,1,0.1,6.5,0.1,9.5c0,3-1.3,5.2-2.8,6.1c-1.5,0.9-7.5,1.5-10,1.3    c-2.5-0.1-6.9-2.1-9.6-2.5c-2.7-0.4-6.5,2.1-9,1.8c-2.5-0.3-5.5-2.2-6.9-3.8c-1.5-1.6-1.5-6.4-1.2-7.8c0.3-1.5,2.4-1.5,2.5-2.5    c0.1-1-1.5-0.3-2.8-1.3c-0.5-0.4-0.8-0.9-1.1-1.4c0,1.1,0,1.9,0.2,2.4c0.4,1.1-0.5,4.8-0.3,8c0.2,3.2,2.7,6.3,4.8,7.4    c3.4,1.7,8.9,1.7,12.4,0.7c3.2-0.9,8.5,3.1,16.5,2c1.8-0.3,8.7-2.9,9.3-6.9c0.6-3.9-0.4-5.6-0.4-7.3c0-1.8,0.6-3,1-6.8    C51.2,25.5,51.2,25.2,51.2,24.8z" />		<path class="bA-cls-12" d="M14.7,29.1c0.7,1,2.1-1.3,3.1-0.6s1,5.6,1.9,5.2s0.1-5.3,1.3-5.5s4-0.6,5.2-0.6c1.2,0,0.9,1.9,1.9,1.6    c1-0.3,0.4-1.9,2.4-1.9s5.3,0.6,6.8,0.7c1.5,0.1,1.5,7.1,2.7,6.6s-0.6-5.5,0.1-5.9c0.7-0.4,3.1-0.1,3.2-0.7    c0.1-0.6-2.5-0.9-2.8-1.6s5-6.2,4.1-6.6c-0.9-0.4-6.8,6.9-8.4,6.5c-1.6-0.4-3.1-0.6-4.4-0.7c-1.3-0.1-3.4-8.4-4.4-7.7    s2.7,6.4,1.6,6.9c-1,0.6-4.3,1.5-5.5,1.5c-1.2,0-4.6-4.9-5.2-4.4c-0.6,0.4,3.4,4.6,1.8,4.7S14,28.1,14.7,29.1z" />		<path class="bA-cls-12" d="M51,16.6c-0.1-0.8-0.3-1.3-0.6-1.7c-2-2.5-3.9-5.2-11-5.9c-10.8-1-13.8,2.7-23,3.6c-0.5,0-1,0.1-1.5,0.3    c1.4,0.1,2.6,0.7,3.2,0.7c1.2,0.1,4.2,0.6,6.4,0c2.2-0.6,5.5-1.6,7.3-1.9c4-0.7,9.2,0.3,10.7,0.6C44.8,12.8,49.5,15.2,51,16.6z" />	</g></g><g id="bAS_watch_tooth" style=""></g><g id="bAS_border" style="">	<rect class="bA-cls-8" width="59" height="56" />	<rect x="0" y="0" transform="matrix(-1 -3.807544e-11 3.807544e-11 -1 59 56)" class="bA-cls-8" width="59" height="56" /></g></defs></g><g class="cA-cls-1" transform="translate(0 217)"><g id="_Ac">	<g>		<path class="cA-cls-2" d="M46.8,40c1.5-0.8,2.3-4.6,3.3-9c1.2-5.6,1.9-10.5,1-12.3c-2.8-5.4-7.5-6.4-10.7-6.5c-3.2-0.1-5.7,1.6-9.1,3.1    c-1.7,0.7-3,1.5-4.9,0.8C23.2,15,20,13.9,18,14.3c-7.2,1.6-11.3,5.8-10.5,10.3c0.9,4.8,1.4,14.3,4,15.7C15,42.3,41.7,42.8,46.8,40    z" />		<path class="cA-cls-3" d="M46.8,40c1.5-0.8,2.3-4.6,3.3-9c1.2-5.6,1.9-10.5,1-12.3c-2.8-5.4-7.5-6.4-10.7-6.5c-3.2-0.1-5.7,1.6-9.1,3.1    c-1.7,0.7-3,1.5-4.9,0.8C23.2,15,20,13.9,18,14.3c-7.2,1.6-11.3,5.8-10.5,10.3c0.9,4.8,1.4,14.3,4,15.7C15,42.3,41.7,42.8,46.8,40    z" />		<path class="cA-cls-4" d="M28.6,19.6c1.3-0.1,1.5,1.8,1.4,2.5c-0.1,0.8-0.4,2-0.9,1.9c-0.5-0.1-0.9-1.1-1-2.1    C28,20.9,27.7,19.7,28.6,19.6z" />		<path class="cA-cls-5" d="M51,18.7c-2.8-5.4-7.5-6.4-10.7-6.5c-3.2-0.1-5.7,1.6-9.1,3.1c-1.7,0.7-3,1.5-4.9,0.8    C23.2,15,20,13.9,18,14.3C11,15.9,6.9,20,7.5,24.4c0.5-1.6,1.4-3.5,2.7-4.4c2.4-1.7,6.3-3,7.7-3.4c1.5-0.3,6.6,1.7,9,2.1    s6.6-1.3,8.5-2.5c2.5-1.6,5.6-2.1,8.2-1.1c1.5,0.6,5.6,2.7,7.2,6c0.2,0.5,0.4,1.2,0.5,2C51.5,21.1,51.5,19.5,51,18.7z" />		<path class="cA-cls-4" d="M26.6,39.5c-4.3-0.1-13-1-14.7-1.5c-0.9-0.2-1.8-1.1-2.5-1.9c0.5,2.1,1.2,3.7,2.2,4.2    c3.5,1.9,30.2,2.4,35.3-0.4c0.8-0.4,1.3-1.6,1.8-3.2c-0.7,0.5-2,1.2-3.6,1.4C42.6,38.5,30.9,39.6,26.6,39.5z" />	</g></g><defs><g id="cAS_lingual_V" style="">	<path class="cA-cls-6" d="M16.4,41.4c3.8-1.7,8-2.8,12.3-2.8c4.4,0,8.7,1,12.6,2.7C34.2,42.2,23,42.1,16.4,41.4z" data-color-action="fill" style="fill:inherit" /></g><g id="cAS_lingual_pit" style="">	<ellipse class="cA-cls-6" cx="28.6" cy="30.2" rx="3.7" ry="6" data-color-action="fill" style="fill:inherit" /></g><g id="cAS_mesial" style="">	<path class="cA-cls-6" d="M46.9,25.4c-0.1-0.9-0.3-1.9-0.5-2.9l3.6-5.6c0.4,0.5,0.7,1.1,1,1.7c0.9,1.7,0.3,6.1-0.8,11.3   C48.6,29.1,47.2,27.7,46.9,25.4z" data-color-action="fill" style="fill:inherit" /></g><g id="cAS_line_angle_4" style="">	<path class="cA-cls-6" d="M40.4,18.5c-1.6,0.1-2.7,0.4-3.7,0.8l1.6-7c0.7-0.1,1.3-0.2,2-0.2c2.8,0.1,6.8,0.8,9.6,4.7l-3.6,5.6   C45.7,20.3,44.3,18.3,40.4,18.5z" data-color-action="fill" style="fill:inherit" /></g><g id="cAS_groove_2" style="">	<path class="cA-cls-6" d="M30.5,22.4c-2.6,0.2-4.5-1.2-7.1-2.1l-1.4-5.6c1.4,0.4,2.9,0.9,4.4,1.4c1.9,0.7,3.2-0.1,4.9-0.8   c2.7-1.1,4.8-2.4,7.1-2.9l-1.6,7C34.3,20.5,33.3,22.2,30.5,22.4z" data-color-action="fill" style="fill:inherit" /></g><g id="cAS_line_angle_3" style="">	<path class="cA-cls-6" d="M18.4,19.5c-2.4,0.1-4,1.7-5.3,4l-3.6-4.8c1.8-2,4.7-3.5,8.5-4.4c1.1-0.2,2.4,0,3.9,0.4l1.4,5.6   C21.9,19.8,20.3,19.4,18.4,19.5z" data-color-action="fill" style="fill:inherit" /></g><g id="cAS_distal" style="">	<path class="cA-cls-6" d="M9.5,18.7l3.6,4.8c-0.8,1.5-1.4,3.3-2,5.3c-0.4,1.4-1.4,2.4-2.6,3.1c-0.4-2.6-0.7-5.2-1-7.1   C7.1,22.5,7.9,20.5,9.5,18.7z" data-color-action="fill" style="fill:inherit" /></g><g id="cAS_tipped_lingual" style="">	<g>		<path class="cA-cls-7" d="M31.8,10.8c-1.2-3.2-4.5-3.6-7.2,5c-0.5,1.5-4.2,1.7-3.6,0c1.9-5.7,5-9.6,8.5-8.7c1.2,0.3,2.3,1.6,2.8,3.2    C32.1,10.4,31.9,10.6,31.8,10.8z" data-color-action="fill" style="fill:inherit" />		<polygon class="cA-cls-7" points="29.9,13.5 17.7,13.5 20.5,22.6   " data-color-action="fill" style="fill:inherit" />	</g>	<rect x="28" y="3.2" class="cA-cls-8" width="3" height="3" /></g><g id="cAS_tipped_facial" style=""></g><g id="cAS_surface_restoration_mesial" style="">	<path class="cA-cls-9" d="M51.1,18.8c0.9,1.8,0.2,6.7-1,12.3c-0.1,0.5-0.2,1-0.3,1.5c-3.2,0.3-6,1.9-7.9,4.3c0.6-3.2,1.2-6.5,1.4-7.2   c1.1-5.2,1.3-7.4,1.3-8.3c-0.2-0.3-0.4-0.6-0.6-0.8l3.6-6C48.8,15.5,50.1,16.8,51.1,18.8z" data-color-action="fill" style="fill:inherit" /></g><g id="cAS_surface_restoration_lingual" style="">	<g>		<path class="cA-cls-9" d="M41.9,36.8c-1,1.2-1.7,2.6-2.1,4.2c-3.1-2.4-6.9-3.8-11.1-3.8c-4,0-7.6,1.3-10.6,3.5    c-0.3-1.3-0.8-2.6-1.5-3.7c-0.7-3.9-1.4-8.1-1.5-9c-0.2-1.5-0.4-2.9-0.6-4.2c0.3-0.4,1.6-1.7,4.7-2.4c1,0.1,3.6,1,4.8,1.5    c1.2,0.4,2.5,0.7,3.8,0.7c2.5,0,4.4-0.8,5.8-1.4l0.5-0.2c0.9-0.4,1.8-0.8,2.6-1.2c1.5-0.7,2.9-1.4,3.6-1.4l0,0c2.4,0,3.5,1,4.2,2    c0,0.8-0.1,3.1-1.3,8.3C43.1,30.3,42.5,33.6,41.9,36.8z" data-color-action="fill" style="fill:inherit" />			</g></g><g id="cAS_surface_restoration_lingual_V" style="">	<g>				<path class="cA-cls-9" d="M39.8,41c-0.1,0.2-0.1,0.4-0.2,0.6c-6.4,0.6-15.2,0.5-21.3,0c0-0.3-0.1-0.7-0.2-1c3-2.2,6.6-3.5,10.6-3.5    C32.9,37.2,36.7,38.6,39.8,41z" data-color-action="fill" style="fill:inherit" />	</g></g><g id="cAS_surface_restoration_distal" style="">	<path class="cA-cls-9" d="M14.5,23.7c0.2,1.3,0.4,2.7,0.6,4.2c0.1,1,0.8,5.2,1.5,9c-1.7-2.8-4.6-4.8-8.1-5.3c-0.4-2.5-0.6-5-1-6.9   c-0.5-2.9,0.9-5.6,3.9-7.6l5.2,5.1C15.4,22.8,14.7,23.4,14.5,23.7z" data-color-action="fill" style="fill:inherit" /></g><g id="cAS_surface_restoration_occlusal" style="">	<path class="cA-cls-9" d="M26.4,16.2c1.9,0.7,3.2-0.1,4.9-0.8c3.4-1.5,6-3.2,9.1-3.1c2,0,4.7,0.5,7.1,2.2l-3.6,6   c-0.7-0.7-1.8-1.2-3.6-1.2l0,0c-0.8,0-2.1,0.6-3.6,1.4c-0.8,0.4-1.7,0.8-2.6,1.2L33.6,22c-1.4,0.6-3.3,1.4-5.8,1.4   c-1.3,0-2.5-0.2-3.8-0.7c-1.2-0.4-3.8-1.3-4.8-1.5c-1,0.2-1.9,0.6-2.5,0.9l-5.2-5.1c1.7-1.2,3.9-2.1,6.6-2.7   C20.1,14,23.2,15.1,26.4,16.2z" data-color-action="fill" style="fill:inherit" /></g><g id="cAS_sub-erupted" style=""></g><g id="cAS_rotated_mesial" style=""></g><g id="cAS_rotate_distal" style=""></g><g id="cAS_root_canal" style=""></g><g id="cAS_pins" style=""></g><g id="cAS_mesial_drift" style=""></g><g id="cAS_distal_drift" style=""></g><g id="cAS_crown" style="">	<path class="cA-cls-11" d="M46.8,40c1.5-0.8,2.3-4.6,3.3-9c1.2-5.6,1.9-10.5,1-12.3c-2.8-5.4-7.5-6.4-10.7-6.5c-3.2-0.1-5.7,1.6-9.1,3.1   c-1.7,0.7-3,1.5-4.9,0.8C23.2,15,20,13.9,18,14.3c-7.2,1.6-11.3,5.8-10.5,10.3c0.9,4.8,1.4,14.3,4,15.7C15,42.3,41.7,42.8,46.8,40z   " data-color-action="fill" style="fill:inherit" /></g><g id="cAS_cracked_surface_mesial" style="">	<polyline class="cA-cls-12" points="43.3,21.7 47.2,25.6 42.2,25.6 47.2,30.3 42.2,30.3 46,34.1  " data-color-action="stroke" style="stroke:inherit" /></g><g id="cAS_cracked_surface_lingual" style="">	<polyline class="cA-cls-12" points="28.2,21.7 32,25.6 27,25.6 32,30.3 27,30.3 30.8,34.1  " data-color-action="stroke" style="stroke:inherit" /></g><g id="cAS_cracked_surface_lingual_V" style="">	<polyline class="cA-cls-12" points="28.2,21.7 32,25.6 27,25.6 32,30.3 27,30.3 30.8,34.1  " data-color-action="stroke" style="stroke:inherit" /></g><g id="cAS_cracked_surface_distal" style="">	<polyline class="cA-cls-12" points="12.3,21.7 16.2,25.6 11.2,25.6 16.2,30.3 11.2,30.3 15,34.1  " data-color-action="stroke" style="stroke:inherit" /></g><g id="cAS_chipped_surface_mesial" style="">	<g>		<line class="cA-cls-12" x1="39.8" y1="23.4" x2="48.2" y2="31.7" data-color-action="stroke" style="stroke:inherit" />		<line class="cA-cls-12" x1="48.2" y1="23.4" x2="39.8" y2="31.7" data-color-action="stroke" style="stroke:inherit" />	</g></g><g id="cAS_chipped_surface_lingual" style="">	<g>		<line class="cA-cls-12" x1="25.7" y1="23.4" x2="34" y2="31.7" data-color-action="stroke" style="stroke:inherit" />		<line class="cA-cls-12" x1="34" y1="23.4" x2="25.7" y2="31.7" data-color-action="stroke" style="stroke:inherit" />	</g></g><g id="cAS_chipped_surface_lingual_V" style="">	<g>		<line class="cA-cls-12" x1="25.7" y1="23.4" x2="34" y2="31.7" data-color-action="stroke" style="stroke:inherit" />		<line class="cA-cls-12" x1="34" y1="23.4" x2="25.7" y2="31.7" data-color-action="stroke" style="stroke:inherit" />	</g></g><g id="cAS_chipped_surface_distal" style="">	<g>		<line class="cA-cls-12" x1="10.7" y1="23.4" x2="19" y2="31.7" data-color-action="stroke" style="stroke:inherit" />		<line class="cA-cls-12" x1="19" y1="23.4" x2="10.7" y2="31.7" data-color-action="stroke" style="stroke:inherit" />	</g></g><g id="cAS_abscess" style=""></g><g id="cAS_missing_tooth" style="" data-name="missing tooth">	<g>		<path class="cA-cls-2" d="M46.8,40c1.5-0.8,2.3-4.6,3.3-9c1.2-5.6,1.9-10.5,1-12.3c-2.8-5.4-7.5-6.4-10.7-6.5c-3.2-0.1-5.7,1.6-9.1,3.1    c-1.7,0.7-3,1.5-4.9,0.8C23.2,15,20,13.9,18,14.3c-7.2,1.6-11.3,5.8-10.5,10.3c0.9,4.8,1.4,14.3,4,15.7C15,42.3,41.7,42.8,46.8,40    z" data-color-action="fill,stroke" style="fill,stroke:inherit" />		<path class="cA-cls-10" d="M46.8,40c1.5-0.8,2.3-4.6,3.3-9c1.2-5.6,1.9-10.5,1-12.3c-2.8-5.4-7.5-6.4-10.7-6.5c-3.2-0.1-5.7,1.6-9.1,3.1    c-1.7,0.7-3,1.5-4.9,0.8C23.2,15,20,13.9,18,14.3c-7.2,1.6-11.3,5.8-10.5,10.3c0.9,4.8,1.4,14.3,4,15.7C15,42.3,41.7,42.8,46.8,40    z" />		<path class="cA-cls-10" d="M28.6,19.6c1.3-0.1,1.5,1.8,1.4,2.5c-0.1,0.8-0.4,2-0.9,1.9c-0.5-0.1-0.9-1.1-1-2.1    C28,20.9,27.7,19.7,28.6,19.6z" />		<path class="cA-cls-10" d="M51,18.7c-2.8-5.4-7.5-6.4-10.7-6.5c-3.2-0.1-5.7,1.6-9.1,3.1c-1.7,0.7-3,1.5-4.9,0.8    C23.2,15,20,13.9,18,14.3C11,15.9,6.9,20,7.5,24.4c0.5-1.6,1.4-3.5,2.7-4.4c2.4-1.7,6.3-3,7.7-3.4c1.5-0.3,6.6,1.7,9,2.1    s6.6-1.3,8.5-2.5c2.5-1.6,5.6-2.1,8.2-1.1c1.5,0.6,5.6,2.7,7.2,6c0.2,0.5,0.4,1.2,0.5,2C51.5,21.1,51.5,19.5,51,18.7z" />		<path class="cA-cls-10" d="M26.6,39.5c-4.3-0.1-13-1-14.7-1.5c-0.9-0.2-1.8-1.1-2.5-1.9c0.5,2.1,1.2,3.7,2.2,4.2    c3.5,1.9,30.2,2.4,35.3-0.4c0.8-0.4,1.3-1.6,1.8-3.2c-0.7,0.5-2,1.2-3.6,1.4C42.6,38.5,30.9,39.6,26.6,39.5z" />	</g></g><g id="cAS_watch_tooth" style=""></g><g id="cAS_border" style="">	<rect class="cA-cls-8" width="59" height="66" />	<rect x="0" transform="matrix(-1 -4.488910e-11 4.488910e-11 -1 59 66)" class="cA-cls-8" width="59" height="66" /></g></defs></g></svg>