<svg xmlns="http://www.w3.org/2000/svg" viewBox="0 0 59 283"><defs><style>.a11-cls-1{isolation:isolate}.a11-cls-2{font-size:15px;fill:#929497;font-family:ProximaNova-Semibold,Proxima Nova,sans-serif;font-weight:700;stroke:none}.a11-cls-24,.a11-cls-3{fill:#c5c7c9;stroke:none}.a11-cls-3{stroke:#c5c7c9;stroke-width:5px}.a11-cls-19,.a11-cls-21,.a11-cls-23,.a11-cls-25,.a11-cls-26,.a11-cls-29,.a11-cls-3,.a11-cls-32,.a11-cls-33{stroke-miterlimit:10}.a11-cls-4,.a11-cls-5{fill:#f5d7cf;stroke:none}.a11-cls-5{fill:#fae8e3}.a11-cls-6,.a11-cls-7{fill:#f2c6bc;stroke:none}.a11-cls-7{fill:#eeefef}.a11-cls-8,.a11-cls-9{fill:#e2e3e4;stroke:none}.a11-cls-9{fill:#fbfbfb}.a11-cls-10,.a11-cls-27,.a11-cls-36{fill:#3c3d3d;stroke:none}.a11-cls-10{opacity:.55}.a11-cls-11{fill:#ffd403;stroke:none}.a11-cls-12,.a11-cls-31{fill:#ffef3e;stroke:none}.a11-cls-13,.a11-cls-20{fill:#c52636;stroke:none}.a11-cls-14{fill:none;stroke:none}.a11-cls-19,.a11-cls-21,.a11-cls-23,.a11-cls-25,.a11-cls-26,.a11-cls-29,.a11-cls-32,.a11-cls-33{fill:none}.a11-cls-16,.a11-cls-37{fill:#28418b;stroke:none}.a11-cls-17,.a11-cls-18{fill:#787878;stroke:none}.a11-cls-19,.a11-cls-21,.a11-cls-23,.a11-cls-29,.a11-cls-32,.a11-cls-33{stroke:#c52636}.a11-cls-19,.a11-cls-21,.a11-cls-26{stroke-width:2px}.a11-cls-21{stroke-linecap:round}.a11-cls-22{fill:#fff;stroke:none}.a11-cls-25,.a11-cls-26{stroke:#28418b}.a11-cls-25{stroke-width:3px}.a11-cls-28{opacity:.6}.a11-cls-29{stroke-width:4px}.a11-cls-30{fill:#f05b85;stroke:none}.a11-cls-32,.a11-cls-33{stroke-width:1.25px}.a11-cls-34{fill:#9b9999;stroke:none}.a11-cls-35{fill:#dbdbdc;stroke:none}.a11-cls-38{font-size:33px;fill:#28418b;font-family:ProximaNova-Semibold,Proxima Nova,sans-serif;font-weight:700;stroke:none}.c11-cls-1{isolation:isolate}.c11-cls-16,.c11-cls-2{fill:#c5c7c9;stroke:none}.c11-cls-2{stroke:#c5c7c9;stroke-width:5px}.c11-cls-2,.c11-cls-20,.c11-cls-21{stroke-miterlimit:10}.c11-cls-3{fill:#eeefef;stroke:none}.c11-cls-4,.c11-cls-5{fill:#fbfbfb;stroke:none}.c11-cls-5{fill:#e2e3e4}.c11-cls-17,.c11-cls-6{fill:#3c3d3d;stroke:none}.c11-cls-6{opacity:.55}.c11-cls-20,.c11-cls-21{fill:none}.c11-cls-7,.c11-cls-9{fill:none;stroke:none}.c11-cls-9{fill:#28418b}.c11-cls-10,.c11-cls-11{fill:#787878;stroke:none}.c11-cls-12,.c11-cls-19{fill:#ffef3e;stroke:none}.c11-cls-13{fill:#fff;stroke:none}.c11-cls-14,.c11-cls-15{fill:#c52636;stroke:none}.c11-cls-18{opacity:.6}.c11-cls-20,.c11-cls-21{stroke:#c52636;stroke-width:1.25px}.a11-msng-cls-1{isolation:isolate}.a11-msng-cls-2{font-size:15px;fill:#929497;font-family:ProximaNova-Semibold,Proxima Nova;font-weight:700;stroke:none}.a11-msng-cls-3{fill:#c5c7c9;stroke:#c5c7c9;stroke-width:5px}.a11-msng-cls-11,.a11-msng-cls-3{stroke-miterlimit:10}.a11-msng-cls-4{fill:#f5d7cf;stroke:none}.a11-msng-cls-5{fill:#fae8e3;stroke:none}.a11-msng-cls-6{fill:#f2c6bc;stroke:none}.a11-msng-cls-7{fill:#eeefef;stroke:none}.a11-msng-cls-8{fill:#e2e3e4;stroke:none}.a11-msng-cls-9{fill:#fbfbfb;stroke:none}.a11-msng-cls-11{fill:none}.a11-msng-cls-12{fill:none;stroke:none}.a11-msng-cls-11{stroke:#787878;stroke-width:6.25px}</style></defs><g class="a11-cls-1"><g id="_11A" data-name="#11A"><text class="a11-cls-2" transform="translate(23.8 20.51)">11</text><path d="M41.74 114c-.53-6.73-2.58-25.94-3.09-39.68C38 55.65 37 30.3 35.3 30.19S27 42.87 21.43 75.11c-2.27 13-4 31.27-4.56 38.35-3.13 5.79-6.29 29.94-4.61 31.95 3.82 4.54 14.92 10 18.38 9.48s15.64-10.48 16.45-13.83-2.49-20.72-5.35-27.06z" class="a11-cls-3"/><path d="M16.71 116.2c0-2.53 2-25.56 4.71-41.1C27 42.87 33.58 30.09 35.3 30.19s2.7 25.46 3.35 44.14c.6 16.2 3.34 40 3.22 42s-25.13 5.86-25.16-.13z" class="a11-cls-4"/><path d="M35.3 112.77s-.63-4.63-1-15.51c-.4-12.92.34-46.21.79-51.29s1.5-11.42.73-11.6S33 48.59 32 60.43s-1.72 27.38-2 35.35-.11 17.14-.11 17.14z" class="a11-cls-5"/><path d="M23 77.85c.87-7.13 2.83-20.11 4.17-28.85-1.87 6.68-3.86 15.29-5.74 26.1-2.71 15.53-4.72 38.57-4.71 41.1 0 1 .75 1.75 2 2.26l1.28-3.31s1.2-22.61 3-37.3zM41.86 116.32c.13-2-2.62-25.79-3.22-42-.41-11.15-.91-24.68-1.61-33.8-.15 9.92-.43 29.68-.37 41.47.08 16.23 1 32.4 1 32.4L38 118c2.3-.59 3.83-1.19 3.86-1.68z" class="a11-cls-6"/><path d="M12.26 145.41c-1.69-2 1.48-26.18 4.61-32s21.54-5.76 24.48-.25 6.56 24.5 5.74 27.85-13 13.34-16.45 13.83-14.57-4.89-18.38-9.43z" class="a11-cls-7"/><path d="M14.92 147.29c-1.43-2.19 1.25-28.52 3.9-34.82a5.34 5.34 0 0 1 1-1.57 6.5 6.5 0 0 0-3 2.55c-3.13 5.78-6.3 29.95-4.61 32a20.51 20.51 0 0 0 3.7 3.25 14.61 14.61 0 0 1-.99-1.41zM41.35 113.21a5.9 5.9 0 0 0-2.67-2.32 4.82 4.82 0 0 1 .84 1.32c2.49 6 5.54 26.7 4.85 30.35-.23 1.22-1.55 3.26-3.3 5.45 3.07-2.68 5.66-5.47 6-6.95.84-3.35-2.78-22.34-5.72-27.85z" class="a11-cls-8"/><path d="M38.65 150c0-5.08-.06-12.35-.37-16.7-.44-6.22-1.66-18.59-2.86-23.58a25.66 25.66 0 0 0-4.43-.61 142.75 142.75 0 0 1 2.33 24.19c.24 9.42-.1 16.92-.33 20.6a44 44 0 0 0 5.66-3.9z" class="a11-cls-9"/></g><defs><g id="a11_bone_graft" data-name="bone graft"><path d="M2 23.31h55v91.86H2z" class="a11-cls-16" data-color-action="fill" style="fill:inherit"/><path d="M41.74 114c-.53-6.73-2.58-25.94-3.09-39.68C38 55.65 37 30.3 35.3 30.19S27 42.87 21.43 75.11c-2.27 13-4 31.27-4.56 38.35-3.13 5.79-6.29 29.94-4.61 31.95 3.82 4.54 14.92 10 18.38 9.48s15.64-10.48 16.45-13.83-2.49-20.72-5.35-27.06z" class="a11-cls-3"/><path d="M16.71 116.2c0-2.53 2-25.56 4.71-41.1C27 42.87 33.58 30.09 35.3 30.19s2.7 25.46 3.35 44.14c.6 16.2 3.34 40 3.22 42s-25.13 5.86-25.16-.13z" class="a11-cls-4"/><path d="M35.3 112.77s-.63-4.63-1-15.51c-.4-12.92.34-46.21.79-51.29s1.5-11.42.73-11.6S33 48.59 32 60.43s-1.72 27.38-2 35.35-.11 17.14-.11 17.14z" class="a11-cls-5"/><path d="M23 77.85c.87-7.13 2.83-20.11 4.17-28.85-1.87 6.68-3.86 15.29-5.74 26.1-2.71 15.53-4.72 38.57-4.71 41.1 0 1 .75 1.75 2 2.26l1.28-3.31s1.2-22.61 3-37.3zM41.86 116.32c.13-2-2.62-25.79-3.22-42-.41-11.15-.91-24.68-1.61-33.8-.15 9.92-.43 29.68-.37 41.47.08 16.23 1 32.4 1 32.4L38 118c2.3-.59 3.83-1.19 3.86-1.68z" class="a11-cls-6"/><path d="M12.26 145.41c-1.69-2 1.48-26.18 4.61-32s21.54-5.76 24.48-.25 6.56 24.5 5.74 27.85-13 13.34-16.45 13.83-14.57-4.89-18.38-9.43z" class="a11-cls-7"/><path d="M14.92 147.29c-1.43-2.19 1.25-28.52 3.9-34.82a5.34 5.34 0 0 1 1-1.57 6.5 6.5 0 0 0-3 2.55c-3.13 5.78-6.3 29.95-4.61 32a20.51 20.51 0 0 0 3.7 3.25 14.61 14.61 0 0 1-.99-1.41zM41.35 113.21a5.9 5.9 0 0 0-2.67-2.32 4.82 4.82 0 0 1 .84 1.32c2.49 6 5.54 26.7 4.85 30.35-.23 1.22-1.55 3.26-3.3 5.45 3.07-2.68 5.66-5.47 6-6.95.84-3.35-2.78-22.34-5.72-27.85z" class="a11-cls-8"/><path d="M38.65 150c0-5.08-.06-12.35-.37-16.7-.44-6.22-1.66-18.59-2.86-23.58a25.66 25.66 0 0 0-4.43-.61 142.75 142.75 0 0 1 2.33 24.19c.24 9.42-.1 16.92-.33 20.6a44 44 0 0 0 5.66-3.9z" class="a11-cls-9"/></g><g id="a11_splinted_crowns" data-name="splinted crowns"><path d="M2 105.58h55v7.67H2z" class="a11-cls-12" transform="rotate(-180 29.5 109.41)" data-color-action="fill" style="fill:inherit"/><path d="M41.74 114c-.53-6.73-2.58-25.94-3.09-39.68C38 55.65 37 30.3 35.3 30.19S27 42.87 21.43 75.11c-2.27 13-4 31.27-4.56 38.35-3.13 5.79-6.29 29.94-4.61 31.95 3.82 4.54 14.92 10 18.38 9.48s15.64-10.48 16.45-13.83-2.49-20.72-5.35-27.06z" class="a11-cls-3"/><path d="M16.71 116.2c0-2.53 2-25.56 4.71-41.1C27 42.87 33.58 30.09 35.3 30.19s2.7 25.46 3.35 44.14c.6 16.2 3.34 40 3.22 42s-25.13 5.86-25.16-.13z" class="a11-cls-4"/><path d="M35.3 112.77s-.63-4.63-1-15.51c-.4-12.92.34-46.21.79-51.29s1.5-11.42.73-11.6S33 48.59 32 60.43s-1.72 27.38-2 35.35-.11 17.14-.11 17.14z" class="a11-cls-5"/><path d="M23 77.85c.87-7.13 2.83-20.11 4.17-28.85-1.87 6.68-3.86 15.29-5.74 26.1-2.71 15.53-4.72 38.57-4.71 41.1 0 1 .75 1.75 2 2.26l1.28-3.31s1.2-22.61 3-37.3zM41.86 116.32c.13-2-2.62-25.79-3.22-42-.41-11.15-.91-24.68-1.61-33.8-.15 9.92-.43 29.68-.37 41.47.08 16.23 1 32.4 1 32.4L38 118c2.3-.59 3.83-1.19 3.86-1.68z" class="a11-cls-6"/><path d="M12.26 145.41c-1.69-2 1.48-26.18 4.61-32s21.54-5.76 24.48-.25 6.56 24.5 5.74 27.85-13 13.34-16.45 13.83-14.57-4.89-18.38-9.43z" class="a11-cls-7"/><path d="M14.92 147.29c-1.43-2.19 1.25-28.52 3.9-34.82a5.34 5.34 0 0 1 1-1.57 6.5 6.5 0 0 0-3 2.55c-3.13 5.78-6.3 29.95-4.61 32a20.51 20.51 0 0 0 3.7 3.25 14.61 14.61 0 0 1-.99-1.41zM41.35 113.21a5.9 5.9 0 0 0-2.67-2.32 4.82 4.82 0 0 1 .84 1.32c2.49 6 5.54 26.7 4.85 30.35-.23 1.22-1.55 3.26-3.3 5.45 3.07-2.68 5.66-5.47 6-6.95.84-3.35-2.78-22.34-5.72-27.85z" class="a11-cls-8"/><path d="M38.65 150c0-5.08-.06-12.35-.37-16.7-.44-6.22-1.66-18.59-2.86-23.58a25.66 25.66 0 0 0-4.43-.61 142.75 142.75 0 0 1 2.33 24.19c.24 9.42-.1 16.92-.33 20.6a44 44 0 0 0 5.66-3.9z" class="a11-cls-9"/></g><path id="a11_mesial_incisal" d="M13.09 146.28a38.33 38.33 0 0 0 10.33 6.62l.61-2.33a66.85 66.85 0 0 1-10.94-4.29z" class="a11-cls-10" data-color-action="fill" style="fill:inherit" data-name="mesial incisal"/><path id="a11_central_incisal" d="M30.48 151.62a19.72 19.72 0 0 1-6.45-1l-.61 2.33c3 1.36 5.78 2.19 7.22 2 1.25-.18 3.65-1.6 6.23-3.5l-.68-2a20.26 20.26 0 0 1-5.71 2.17z" class="a11-cls-10" data-color-action="fill" style="fill:inherit" data-name="central incisal"/><path id="a11_distal_incisal" d="M36.87 151.39a56.16 56.16 0 0 0 8.34-7.44 81.16 81.16 0 0 1-9 5.47z" class="a11-cls-10" data-color-action="fill" style="fill:inherit" data-name="distal incisal"/><path id="a11_mesial" d="M17.94 136.42a6.48 6.48 0 0 0 .72 2.34l-5.7 7.4c-.25-.25-.49-.5-.7-.75-1-1.14-.35-9.39.92-17.38 2.08 1.37 4.23 3.86 4.76 8.39z" class="a11-cls-10" data-color-action="fill" style="fill:inherit"/><path id="a11_line_angle_2" d="M26.15 142.49c-3.51-.29-6.23-1.38-7.49-3.73l-5.7 7.4.13.12a66.85 66.85 0 0 0 10.91 4.3z" class="a11-cls-10" data-color-action="fill" style="fill:inherit" data-name="line angle 2"/><path id="a11_facial" d="M30.48 151.62a20.26 20.26 0 0 0 5.71-2.21l-2.53-7.32a24.54 24.54 0 0 1-3.9.44 28.58 28.58 0 0 1-3.62-.05l-2.14 8.1a19.72 19.72 0 0 0 6.48 1.04z" class="a11-cls-10" data-color-action="fill" style="fill:inherit"/><path id="a11_line_angle_1" d="M39.84 136.85c-1.07 3-2.88 4.55-6.18 5.24l2.53 7.32a81.16 81.16 0 0 0 9-5.47l.29-.33z" class="a11-cls-10" data-color-action="fill" style="fill:inherit" data-name="line angle 1"/><path id="a11_distal" d="M47.09 141.06a7.54 7.54 0 0 1-1.59 2.56l-5.66-6.76a21.42 21.42 0 0 0 .93-4c.43-2.91 2.7-4.42 4.8-5.19 1.21 5.93 1.94 11.69 1.52 13.39z" class="a11-cls-10" data-color-action="fill" style="fill:inherit"/><ellipse id="a11_mid_facial" cx="30.08" cy="128.93" class="a11-cls-10" rx="4.61" ry="9.46" data-color-action="fill" style="fill:inherit" data-name="mid facial"/><path id="a11_facial_V" d="M19.25 111.21a15.37 15.37 0 0 0 10.55 4.32 15.19 15.19 0 0 0 10.09-3.93c-4.39-3.19-15.41-3.36-20.64-.39z" class="a11-cls-10" data-color-action="fill" style="fill:inherit" data-name="facial V"/><path id="a11_veneer" d="M12.26 145.41c-1.69-2 1.48-26.18 4.61-32s21.54-5.76 24.48-.25 6.56 24.5 5.74 27.85-13 13.34-16.45 13.83-14.57-4.89-18.38-9.43z" class="a11-cls-12" data-color-action="fill" style="fill:inherit"/><path id="a11_tissue_graft" d="M12.03 94.66l17.47 13.88 17.47-13.88H12.03z" class="a11-cls-13" data-color-action="fill" style="fill:inherit" data-name="tissue graft"/><path id="a11_tipped_lingual" d="M28 3.25h3v3h-3z" class="a11-cls-14" transform="rotate(-180 29.5 4.75)" data-name="tipped lingual"/><g id="a11_tipped_facial" class="a11-cls-15" data-name="tipped facial"><path d="M33.15 156.9c-1.26 3.37-4.74 3.85-7.69-5.32-.5-1.56-4.42-1.76-3.84 0 2 6.08 5.31 10.2 9.06 9.27a4.86 4.86 0 0 0 3-3.38c-.19-.17-.42-.47-.53-.57z" class="a11-cls-16" data-color-action="fill" style="fill:inherit"/><path d="M31.07 153.98H18.13l2.94-9.64 10 9.64z" class="a11-cls-16" data-color-action="fill" style="fill:inherit"/></g><path id="a11_surface_restoration_incisal" d="M30.64 154.89c-3.11.44-12.34-3.89-17-8.06l5.1-5.1v.28a36.35 36.35 0 0 0 10.89 5.79 50.49 50.49 0 0 0 10.4-8.56l5.19 4.67c-3.7 4.29-11.85 10.59-14.58 10.98z" class="a11-cls-17" data-color-action="fill" style="fill:inherit" data-name="surface restoration incisal"/><path id="a11_surface_restoration_distal" d="M40.21 139.06c-.11-2.81-1.25-13.48-2.58-21.8a11.51 11.51 0 0 0 6.65 4.74c1.91 7.54 3.36 16.85 2.81 19.11a8.36 8.36 0 0 1-1.85 2.86l-5.19-4.67z" class="a11-cls-17" data-color-action="fill" style="fill:inherit" data-name="surface restoration distal"/><path id="a11_surface_restoration_facial" d="M22.78 111.93a13.81 13.81 0 0 0 12.94-.08 11.43 11.43 0 0 0 1.92 5.41c1.33 8.32 2.47 19 2.58 21.8a49.88 49.88 0 0 1-10.56 8.74 36.35 36.35 0 0 1-10.9-5.8c0-3.67 1-15.93 2.2-24.9a11.44 11.44 0 0 0 1.82-5.17z" class="a11-cls-15 a11-cls-18" data-color-action="fill" style="fill:inherit" data-name="surface restoration facial"/><path id="a11_surface_restoration_facial_V" d="M22.78 111.93c0-.36.06-.72.06-1.09v-1a28.23 28.23 0 0 1 12.93 0c0 .33-.05.66-.05 1v1a13.81 13.81 0 0 1-12.94.08z" class="a11-cls-15 a11-cls-18" data-color-action="fill" style="fill:inherit" data-name="surface restoration facial V"/><path id="a11_surface_restoration_mesial" d="M12.26 145.41c-1.21-1.43.07-14.2 2-23.47a11.51 11.51 0 0 0 6.74-4.83c-1.19 8.77-2.17 20.67-2.2 24.62l-5.1 5.1a14.85 14.85 0 0 1-1.44-1.42z" class="a11-cls-17" data-color-action="fill" style="fill:inherit" data-name="surface restoration mesial"/><g id="a11_supra-erupted" class="a11-cls-15"><path d="M28.5 102.88V95.2" class="a11-cls-19" data-color-action="stroke" style="stroke:inherit"/><path d="M32.49 101.71l-3.99 6.91-3.99-6.91h7.98z" class="a11-cls-20" data-color-action="fill" style="fill:inherit"/></g><g id="a11_sub-erupted" class="a11-cls-15"><path d="M28.5 100.94v7.68" class="a11-cls-19" data-color-action="stroke" style="stroke:inherit"/><path d="M24.51 102.11l3.99-6.91 3.99 6.91h-7.98z" class="a11-cls-20" data-color-action="fill" style="fill:inherit"/></g><text id="a11_sealant" class="a11-cls-38" transform="translate(19.7 200.47)" data-color-action="fill" style="fill:inherit">S</text><g id="a11_rotated_mesial" class="a11-cls-15" data-name="rotated mesial"><path d="M51.29 128.18c3 1.79 2.3 5.46-10.23 5.81-5.3.15-8.95 0-8.95 0l.07 3s1 .07 8.22-.24c7.62-.32 14-1.83 13.75-6a4 4 0 0 0-2.31-2.92c-.17.17-.41.28-.55.35z" class="a11-cls-16" data-color-action="fill" style="fill:inherit"/><path d="M38.59 129.47v11.89l-10.39-5.9 10.39-5.99z" class="a11-cls-16" data-color-action="fill" style="fill:inherit"/></g><g id="a11_rotated_distal" class="a11-cls-15" data-name="rotated distal"><path d="M7.45 128.18c-3 1.79-2.3 5.46 10.23 5.81 5.3.15 8.95 0 8.95 0l-.07 3s-1 .07-8.22-.24c-7.62-.32-14-1.83-13.75-6a4 4 0 0 1 2.31-2.92c.17.17.42.28.55.35z" class="a11-cls-16" data-color-action="fill" style="fill:inherit"/><path d="M20.15 129.47v11.89l10.4-5.9-10.4-5.99z" class="a11-cls-16" data-color-action="fill" style="fill:inherit"/></g><circle id="a11_root_decay" cx="32" cy="56.5" r="4.33" class="a11-cls-15 a11-cls-18" data-color-action="fill" style="fill:inherit" data-name="root decay"/><path id="a11_root_canal" d="M33.53 35.99l-4.2 71.51" class="a11-cls-21" data-color-action="stroke" style="stroke:inherit" data-name="root canal"/><path id="a11_root_abrasion" d="M29.94 49.5h3.5v13.83h-3.5z" class="a11-cls-15 a11-cls-23" transform="rotate(-180 31.69 56.415)" data-color-action="stroke" style="stroke:inherit" data-name="root abrasion"/><g id="a11_post"><path d="M28.35 87.39h3.14v41.77h-3.14z" class="a11-cls-18" transform="rotate(-180 29.925 108.275)" data-color-action="fill" style="fill:inherit"/><path d="M30.16 87.39h.47v41.77h-.47z" class="a11-cls-24" transform="rotate(-180 30.4 108.275)"/></g><g id="a11_pins"><path d="M31.26 97.72h2.42v23.43h-2.42z" class="a11-cls-18" transform="rotate(-180 32.465 109.44)" data-color-action="fill" style="fill:inherit"/><path d="M32.65 97.72h.36v23.43h-.36z" class="a11-cls-24" transform="rotate(-180 32.83 109.44)"/><path d="M26.68 97.72h2.42v23.43h-2.42z" class="a11-cls-18" transform="rotate(-180 27.885 109.44)" data-color-action="fill" style="fill:inherit"/><path d="M28.07 97.72h.36v23.43h-.36z" class="a11-cls-24" transform="rotate(-180 28.25 109.44)"/></g><path id="a11_open_contact_mesial" d="M25.31 104.99l-7.5 4.75-7.5-4.75" class="a11-cls-25" data-color-action="stroke" style="stroke:inherit" data-name="open contact mesial"/><path id="a11_open_contact_distal" d="M48.33 104.99l-7.5 4.75-7.5-4.75" class="a11-cls-25" data-color-action="stroke" style="stroke:inherit" data-name="open contact distal"/><g id="a11_mesial_drift" class="a11-cls-15" data-name="mesial drift"><path d="M26.41 133.16h11.92" class="a11-cls-26" data-color-action="stroke" style="stroke:inherit"/><path d="M27.57 137.15l-6.9-3.99 6.9-3.98v7.97z" class="a11-cls-16" data-color-action="fill" style="fill:inherit"/></g><path id="a11_lingual_abfraction" d="M28 3.25h3v3h-3z" class="a11-cls-14" transform="rotate(-180 29.5 4.75)" data-name="lingual abfraction"/><ellipse id="a11_internal_root_resorption" cx="31.09" cy="59.6" class="a11-cls-15 a11-cls-20" rx="9.84" ry="3.98" transform="rotate(-86.81 31.086 59.599)" data-color-action="fill" style="fill:inherit" data-name="internal root resorption"/><g id="a11_impacted_mesial" class="a11-cls-15" data-name="impacted mesial"><ellipse cx="29.5" cy="92.13" class="a11-cls-26" rx="24.15" ry="67.46" data-color-action="stroke" style="stroke:inherit"/><path d="M40.91 92.13h12.76" class="a11-cls-26" data-color-action="stroke" style="stroke:inherit"/><path d="M42.08 96.12l-6.91-3.99 6.91-3.99v7.98z" class="a11-cls-16" data-color-action="fill" style="fill:inherit"/></g><g id="a11_impacted_distal" class="a11-cls-15" data-name="impacted distal"><ellipse cx="29.51" cy="92.13" class="a11-cls-26" rx="24.15" ry="67.46" data-color-action="stroke" style="stroke:inherit"/><path d="M18.11 92.13H5.35" class="a11-cls-26" data-color-action="stroke" style="stroke:inherit"/><path d="M16.94 88.14l6.91 3.99-6.91 3.99v-7.98z" class="a11-cls-16" data-color-action="fill" style="fill:inherit"/></g><path id="a11_gortex_membranes" d="M2 95.83h55v16.42H2z" class="a11-cls-13" transform="rotate(-180 29.5 104.04)" data-color-action="fill" style="fill:inherit" data-name="gortex membranes"/><path id="a11_frenum_pull" d="M39.49 108.58l-10.66-6.75-10.65 6.75" class="a11-cls-29" data-color-action="stroke" style="stroke:inherit" data-name="frenum pull"/><path id="a11_external_root_resorption" d="M33.95 74.89c.1 6.42 3.89 8.65 5.24 9.24-.23-3.41-.42-6.74-.54-9.81-.09-2.56-.19-5.25-.3-8-1.62.8-4.49 2.95-4.4 8.57zm-13.7 7.74A9.4 9.4 0 0 0 25.9 75a10.62 10.62 0 0 0-2.82-8.73q-.83 4.15-1.65 8.83c-.43 2.37-.81 4.9-1.18 7.53z" class="a11-cls-15 a11-cls-20" data-color-action="fill" style="fill:inherit" data-name="external root resorption"/><g id="a11_distal_drift" class="a11-cls-15" data-name="distal drift"><path d="M32.59 133.16H20.67" class="a11-cls-26" data-color-action="stroke" style="stroke:inherit"/><path d="M31.43 129.18l6.9 3.98-6.9 3.99v-7.97z" class="a11-cls-16" data-color-action="fill" style="fill:inherit"/></g><path id="a11_three_quarter_crown" d="M46 129.67c1 5.2 1.5 9.89 1.13 11.39-.82 3.35-13 13.34-16.45 13.83s-14.56-4.94-18.38-9.48c-.89-1.06-.43-8.3.67-15.74z" class="a11-cls-15 a11-cls-31" data-color-action="fill" style="fill:inherit" data-name="three quarter crown"/><path id="a11_crown" d="M12.26 145.41c-1.69-2 1.48-26.18 4.61-32s21.54-5.76 24.48-.25 6.56 24.5 5.74 27.85-13 13.34-16.45 13.83-14.57-4.89-18.38-9.43z" class="a11-cls-12" data-color-action="fill" style="fill:inherit"/><path id="a11_cracked_surface_incisal" d="M28.17 145.84l3.84 3.83H27l5 4.75h-5l3.83 3.83" class="a11-cls-32" data-color-action="stroke" style="stroke:inherit" data-name="cracked surface incisal"/><path id="a11_cracked_surface_distal" d="M41.34 125.82l3.83 3.84h-5.01l5.01 4.74h-5.01l3.83 3.83" class="a11-cls-32" data-color-action="stroke" style="stroke:inherit" data-name="cracked surface distal"/><path id="a11_cracked_surface_facial" d="M28.17 125.82l3.84 3.84H27l5 4.74h-5l3.83 3.83" class="a11-cls-32" data-color-action="stroke" style="stroke:inherit" data-name="cracked surface facial"/><path id="a11_cracked_surface_facial_V" d="M28.17 125.82l3.84 3.84H27l5 4.74h-5l3.83 3.83" class="a11-cls-32" data-color-action="stroke" style="stroke:inherit" data-name="cracked surface facial V"/><path id="a11_cracked_surface_mesial" d="M13.34 125.82l3.83 3.84h-5l5 4.74h-5l3.83 3.83" class="a11-cls-32" data-color-action="stroke" style="stroke:inherit" data-name="cracked surface mesial"/><g id="a11_chipped_surface_incisal" class="a11-cls-15" data-name="chipped surface incisal"><path d="M25.67 147.51l8.33 8.33M34 147.51l-8.33 8.33" class="a11-cls-33" data-color-action="stroke" style="stroke:inherit"/></g><g id="a11_chipped_surface_distal" class="a11-cls-15" data-name="chipped surface distal"><path d="M37.83 127.5l8.33 8.33M46.16 127.5l-8.33 8.33" class="a11-cls-33" data-color-action="stroke" style="stroke:inherit"/></g><g id="a11_chipped_surface_facial" class="a11-cls-15" data-name="chipped surface facial"><path d="M25.67 127.5l8.33 8.33M34 127.5l-8.33 8.33" class="a11-cls-33" data-color-action="stroke" style="stroke:inherit"/></g><g id="a11_chipped_surface_facial_V" class="a11-cls-15" data-name="chipped surface facial V"><path d="M25.67 127.5l8.33 8.33M34 127.5l-8.33 8.33" class="a11-cls-33" data-color-action="stroke" style="stroke:inherit"/></g><g id="a11_chipped_surface_mesial" class="a11-cls-15" data-name="chipped surface mesial"><path d="M11.67 127.5l8.33 8.33M20 127.5l-8.33 8.33" class="a11-cls-33" data-color-action="stroke" style="stroke:inherit"/></g><path id="a11_buccal_abfraction" d="M18.22 110.75a20.1 20.1 0 0 0 11.11 3.92 20.1 20.1 0 0 0 11.11-3.92 20.1 20.1 0 0 0-11.11-3.92 20.1 20.1 0 0 0-11.11 3.92z" class="a11-cls-13" data-color-action="fill" style="fill:inherit" data-name="buccal abfraction"/><g id="a11_braces"><path d="M22.96 121.97h13.45v18.19H22.96z" class="a11-cls-24" transform="rotate(-180 29.69 131.06)"/><path d="M22.96 139.48h13.45v.68H22.96z" class="a11-cls-34" transform="rotate(-180 29.69 139.815)" data-color-action="fill" style="fill:inherit"/><path d="M22.96 131.21h13.45v1.36H22.96z" class="a11-cls-34" transform="rotate(-180 29.69 131.89)" data-color-action="fill" style="fill:inherit"/><path d="M22.96 121.97h13.45v.89H22.96z" class="a11-cls-35" transform="rotate(-180 29.69 122.415)" data-color-action="fill" style="fill:inherit"/><rect width="4.11" height="7.94" x="32.59" y="121.99" class="a11-cls-27" rx=".49" ry=".49" transform="rotate(-180 34.64 125.96)" data-color-action="fill" style="fill:inherit"/><path d="M33.08 122h3.13a.49.49 0 0 1 .49.49v5.83a13.14 13.14 0 0 1-4.11 0v-5.83a.49.49 0 0 1 .49-.49z" class="a11-cls-18" data-color-action="fill" style="fill:inherit"/><path d="M32.92 123.4v-1.11a.16.16 0 0 1 .16-.16h3.13a.16.16 0 0 1 .16.16v1.11z" class="a11-cls-24"/><rect width="4.11" height="7.94" x="22.67" y="121.99" class="a11-cls-27" rx=".49" ry=".49" transform="rotate(-180 24.725 125.96)" data-color-action="fill" style="fill:inherit"/><path d="M23.16 122h3.13a.49.49 0 0 1 .49.49v5.83a13.14 13.14 0 0 1-4.11 0v-5.83a.49.49 0 0 1 .49-.49z" class="a11-cls-18" data-color-action="fill" style="fill:inherit"/><path d="M23 123.4v-1.11a.16.16 0 0 1 .16-.16h3.13a.16.16 0 0 1 .16.16v1.11z" class="a11-cls-24"/><rect width="4.11" height="7.94" x="32.59" y="132.27" class="a11-cls-27" rx=".49" ry=".49" transform="rotate(-180 34.64 136.24)" data-color-action="fill" style="fill:inherit"/><path d="M33.08 132.27h3.13a.49.49 0 0 1 .49.49v5.83a13.14 13.14 0 0 1-4.11 0v-5.83a.49.49 0 0 1 .49-.49z" class="a11-cls-18" data-color-action="fill" style="fill:inherit"/><path d="M32.92 133.68v-1.11a.16.16 0 0 1 .16-.16h3.13a.16.16 0 0 1 .16.16v1.11z" class="a11-cls-24"/><rect width="4.11" height="7.94" x="22.67" y="132.27" class="a11-cls-27" rx=".49" ry=".49" transform="rotate(-180 24.725 136.24)" data-color-action="fill" style="fill:inherit"/><path d="M23.16 132.27h3.13a.49.49 0 0 1 .49.49v5.83a13.14 13.14 0 0 1-4.11 0v-5.83a.49.49 0 0 1 .49-.49z" class="a11-cls-18" data-color-action="fill" style="fill:inherit"/><path d="M23 133.68v-1.11a.16.16 0 0 1 .16-.16h3.13a.16.16 0 0 1 .16.16v1.11z" class="a11-cls-24"/><path d="M8.58 130.38h42.21v1.45H8.58z" class="a11-cls-18" transform="rotate(-180 29.685 131.105)" data-color-action="fill" style="fill:inherit"/><path d="M8.58 131.58h42.21v.25H8.58z" class="a11-cls-27" transform="rotate(-180 29.685 131.705)" data-color-action="fill" style="fill:inherit"/><path d="M8.58 130.58h42.21v.4H8.58z" class="a11-cls-24" transform="rotate(-180 29.685 130.78)"/></g><path id="a11_apicoectomy" d="M22.16 25.14l7.34 11.67 7.34-11.67H22.16z" class="a11-cls-17" data-color-action="fill" style="fill:inherit"/><circle id="a11_abscess" cx="29.5" cy="29.64" r="6.5" class="a11-cls-37" data-color-action="fill" style="fill:inherit"/><g id="a11_blunted_roots" data-name="blunted roots"><path d="M2 22h55v57.99H2z" class="a11-cls-22" transform="rotate(-180 29.5 50.995)"/><path d="M2 80.07h55v2H2z" class="a11-cls-36" transform="rotate(-180 29.5 81.075)" data-color-action="fill" style="fill:inherit"/></g><path id="a11_root_amputation" d="M2 21.67h55v87.24H2z" class="a11-cls-22" transform="rotate(-180 29.5 65.285)" data-name="root amputation"/><path id="a11_missing_crown" d="M2 109.49h55v49.68H2z" class="a11-cls-22" transform="rotate(-180 29.5 134.325)" data-name="missing crown"/><g id="a11_missing_tooth" data-name="missing tooth"><path d="M41.74 114c-.53-6.73-2.58-25.94-3.09-39.68C38 55.65 37 30.3 35.3 30.19S27 42.87 21.43 75.11c-2.27 13-4 31.27-4.56 38.35-3.13 5.79-6.29 29.94-4.61 31.95 3.82 4.54 14.92 10 18.38 9.48s15.64-10.48 16.45-13.83-2.49-20.72-5.35-27.06z" class="a11-cls-3"/><path d="M16.71 116.2c0-2.53 2-25.56 4.71-41.1C27 42.87 33.58 30.09 35.3 30.19s2.7 25.46 3.35 44.14c.6 16.2 3.34 40 3.22 42s-25.13 5.86-25.16-.13z" class="a11-cls-22"/><path d="M35.3 112.77s-.63-4.63-1-15.51c-.4-12.92.34-46.21.79-51.29s1.5-11.42.73-11.6S33 48.59 32 60.43s-1.72 27.38-2 35.35-.11 17.14-.11 17.14zM23 77.85c.87-7.13 2.83-20.11 4.17-28.85-1.87 6.68-3.86 15.29-5.74 26.1-2.71 15.53-4.72 38.57-4.71 41.1 0 1 .75 1.75 2 2.26l1.28-3.31s1.2-22.61 3-37.3zM41.86 116.32c.13-2-2.62-25.79-3.22-42-.41-11.15-.91-24.68-1.61-33.8-.15 9.92-.43 29.68-.37 41.47.08 16.23 1 32.4 1 32.4L38 118c2.3-.59 3.83-1.19 3.86-1.68z" class="a11-cls-22"/><path d="M12.26 145.41c-1.69-2 1.48-26.18 4.61-32s21.54-5.76 24.48-.25 6.56 24.5 5.74 27.85-13 13.34-16.45 13.83-14.57-4.89-18.38-9.43z" class="a11-cls-22"/><path d="M14.92 147.29c-1.43-2.19 1.25-28.52 3.9-34.82a5.34 5.34 0 0 1 1-1.57 6.5 6.5 0 0 0-3 2.55c-3.13 5.78-6.3 29.95-4.61 32a20.51 20.51 0 0 0 3.7 3.25 14.61 14.61 0 0 1-.99-1.41zM41.35 113.21a5.9 5.9 0 0 0-2.67-2.32 4.82 4.82 0 0 1 .84 1.32c2.49 6 5.54 26.7 4.85 30.35-.23 1.22-1.55 3.26-3.3 5.45 3.07-2.68 5.66-5.47 6-6.95.84-3.35-2.78-22.34-5.72-27.85zM38.65 150c0-5.08-.06-12.35-.37-16.7-.44-6.22-1.66-18.59-2.86-23.58a25.66 25.66 0 0 0-4.43-.61 142.75 142.75 0 0 1 2.33 24.19c.24 9.42-.1 16.92-.33 20.6a44 44 0 0 0 5.66-3.9z" class="a11-cls-22"/></g><g id="a11_extracted_tooth" class="a11-msng-cls-10" data-name="extracted tooth"><path d="M9 108.83l41.67 41.66M50.67 108.83L9 150.49" class="a11-msng-cls-11" data-color-action="stroke" style="stroke:inherit"/></g><g id="a11_denture"><path d="M2 23.16h55v135.01H2z" class="a11-cls-22"/><path d="M57 100.22A22.63 22.63 0 0 0 44.78 97c-7.64 0-10 3.22-15.79 3.22S19.15 97 13.2 97A24.26 24.26 0 0 0 2 100.22v57.94h55z" class="a11-cls-30" data-color-action="fill" style="fill:inherit"/><path d="M12.26 145.41c-1.69-2 1.48-26.18 4.61-32s21.54-5.76 24.48-.25 6.56 24.5 5.74 27.85-13 13.34-16.45 13.83-14.57-4.89-18.38-9.43z" class="a11-cls-3"/><path d="M12.26 145.41c-1.69-2 1.48-26.18 4.61-32s21.54-5.76 24.48-.25 6.56 24.5 5.74 27.85-13 13.34-16.45 13.83-14.57-4.89-18.38-9.43z" class="a11-cls-7"/><path d="M14.92 147.29c-1.43-2.19 1.25-28.52 3.9-34.82a5.34 5.34 0 0 1 1-1.57 6.5 6.5 0 0 0-3 2.55c-3.13 5.78-6.3 29.95-4.61 32a20.51 20.51 0 0 0 3.7 3.25 14.61 14.61 0 0 1-.99-1.41zM41.35 113.21a5.9 5.9 0 0 0-2.67-2.32 4.82 4.82 0 0 1 .84 1.32c2.49 6 5.54 26.7 4.85 30.35-.23 1.22-1.55 3.26-3.3 5.45 3.07-2.68 5.66-5.47 6-6.95.84-3.35-2.78-22.34-5.72-27.85z" class="a11-cls-8"/><path d="M38.65 150c0-5.08-.06-12.35-.37-16.7-.44-6.22-1.66-18.59-2.86-23.58a25.66 25.66 0 0 0-4.43-.61 142.75 142.75 0 0 1 2.33 24.19c.24 9.42-.1 16.92-.33 20.6a44 44 0 0 0 5.66-3.9z" class="a11-cls-9"/></g><g id="a11_maryland_bridge_pontic" class="a11-cls-15" data-name="maryland bridge pontic"><path d="M2 126.33h55V134H2z" class="a11-cls-20" transform="rotate(-180 29.5 130.16)" data-color-action="fill" style="fill:inherit"/><path d="M12.26 145.41c-1.69-2 1.48-26.18 4.61-32s21.54-5.76 24.48-.25 6.56 24.5 5.74 27.85-13 13.34-16.45 13.83-14.57-4.89-18.38-9.43z" class="a11-cls-20" data-color-action="fill" style="fill:inherit"/></g><g id="a11_maryland_bridge_abutment_mesial" data-name="maryland bridge abutment mesial"><path d="M2 126.33h34.98V134H2z" class="a11-cls-15 a11-cls-20" transform="rotate(-180 19.49 130.16)" data-color-action="fill" style="fill:inherit"/><path d="M41.74 114c-.53-6.73-2.58-25.94-3.09-39.68C38 55.65 37 30.3 35.3 30.19S27 42.87 21.43 75.11c-2.27 13-4 31.27-4.56 38.35-3.13 5.79-6.29 29.94-4.61 31.95 3.82 4.54 14.92 10 18.38 9.48s15.64-10.48 16.45-13.83-2.49-20.72-5.35-27.06z" class="a11-cls-3"/><path d="M16.71 116.2c0-2.53 2-25.56 4.71-41.1C27 42.87 33.58 30.09 35.3 30.19s2.7 25.46 3.35 44.14c.6 16.2 3.34 40 3.22 42s-25.13 5.86-25.16-.13z" class="a11-cls-4"/><path d="M35.3 112.77s-.63-4.63-1-15.51c-.4-12.92.34-46.21.79-51.29s1.5-11.42.73-11.6S33 48.59 32 60.43s-1.72 27.38-2 35.35-.11 17.14-.11 17.14z" class="a11-cls-5"/><path d="M23 77.85c.87-7.13 2.83-20.11 4.17-28.85-1.87 6.68-3.86 15.29-5.74 26.1-2.71 15.53-4.72 38.57-4.71 41.1 0 1 .75 1.75 2 2.26l1.28-3.31s1.2-22.61 3-37.3zM41.86 116.32c.13-2-2.62-25.79-3.22-42-.41-11.15-.91-24.68-1.61-33.8-.15 9.92-.43 29.68-.37 41.47.08 16.23 1 32.4 1 32.4L38 118c2.3-.59 3.83-1.19 3.86-1.68z" class="a11-cls-6"/><path d="M12.26 145.41c-1.69-2 1.48-26.18 4.61-32s21.54-5.76 24.48-.25 6.56 24.5 5.74 27.85-13 13.34-16.45 13.83-14.57-4.89-18.38-9.43z" class="a11-cls-7"/><path d="M14.92 147.29c-1.43-2.19 1.25-28.52 3.9-34.82a5.34 5.34 0 0 1 1-1.57 6.5 6.5 0 0 0-3 2.55c-3.13 5.78-6.3 29.95-4.61 32a20.51 20.51 0 0 0 3.7 3.25 14.61 14.61 0 0 1-.99-1.41zM41.35 113.21a5.9 5.9 0 0 0-2.67-2.32 4.82 4.82 0 0 1 .84 1.32c2.49 6 5.54 26.7 4.85 30.35-.23 1.22-1.55 3.26-3.3 5.45 3.07-2.68 5.66-5.47 6-6.95.84-3.35-2.78-22.34-5.72-27.85z" class="a11-cls-8"/><path d="M38.65 150c0-5.08-.06-12.35-.37-16.7-.44-6.22-1.66-18.59-2.86-23.58a25.66 25.66 0 0 0-4.43-.61 142.75 142.75 0 0 1 2.33 24.19c.24 9.42-.1 16.92-.33 20.6a44 44 0 0 0 5.66-3.9z" class="a11-cls-9"/></g><g id="a11_maryland_bridge_abutment_distal" data-name="maryland bridge abutment distal"><path d="M22.02 126.33H57V134H22.02z" class="a11-cls-15 a11-cls-20" transform="rotate(-180 39.51 130.16)" data-color-action="fill" style="fill:inherit"/><path d="M41.74 114c-.53-6.73-2.58-25.94-3.09-39.68C38 55.65 37 30.3 35.3 30.19S27 42.87 21.43 75.11c-2.27 13-4 31.27-4.56 38.35-3.13 5.79-6.29 29.94-4.61 31.95 3.82 4.54 14.92 10 18.38 9.48s15.64-10.48 16.45-13.83-2.49-20.72-5.35-27.06z" class="a11-cls-3"/><path d="M16.71 116.2c0-2.53 2-25.56 4.71-41.1C27 42.87 33.58 30.09 35.3 30.19s2.7 25.46 3.35 44.14c.6 16.2 3.34 40 3.22 42s-25.13 5.86-25.16-.13z" class="a11-cls-4"/><path d="M35.3 112.77s-.63-4.63-1-15.51c-.4-12.92.34-46.21.79-51.29s1.5-11.42.73-11.6S33 48.59 32 60.43s-1.72 27.38-2 35.35-.11 17.14-.11 17.14z" class="a11-cls-5"/><path d="M23 77.85c.87-7.13 2.83-20.11 4.17-28.85-1.87 6.68-3.86 15.29-5.74 26.1-2.71 15.53-4.72 38.57-4.71 41.1 0 1 .75 1.75 2 2.26l1.28-3.31s1.2-22.61 3-37.3zM41.86 116.32c.13-2-2.62-25.79-3.22-42-.41-11.15-.91-24.68-1.61-33.8-.15 9.92-.43 29.68-.37 41.47.08 16.23 1 32.4 1 32.4L38 118c2.3-.59 3.83-1.19 3.86-1.68z" class="a11-cls-6"/><path d="M12.26 145.41c-1.69-2 1.48-26.18 4.61-32s21.54-5.76 24.48-.25 6.56 24.5 5.74 27.85-13 13.34-16.45 13.83-14.57-4.89-18.38-9.43z" class="a11-cls-7"/><path d="M14.92 147.29c-1.43-2.19 1.25-28.52 3.9-34.82a5.34 5.34 0 0 1 1-1.57 6.5 6.5 0 0 0-3 2.55c-3.13 5.78-6.3 29.95-4.61 32a20.51 20.51 0 0 0 3.7 3.25 14.61 14.61 0 0 1-.99-1.41zM41.35 113.21a5.9 5.9 0 0 0-2.67-2.32 4.82 4.82 0 0 1 .84 1.32c2.49 6 5.54 26.7 4.85 30.35-.23 1.22-1.55 3.26-3.3 5.45 3.07-2.68 5.66-5.47 6-6.95.84-3.35-2.78-22.34-5.72-27.85z" class="a11-cls-8"/><path d="M38.65 150c0-5.08-.06-12.35-.37-16.7-.44-6.22-1.66-18.59-2.86-23.58a25.66 25.66 0 0 0-4.43-.61 142.75 142.75 0 0 1 2.33 24.19c.24 9.42-.1 16.92-.33 20.6a44 44 0 0 0 5.66-3.9z" class="a11-cls-9"/></g><g id="a11_maryland_bridge_abutment" data-name="maryland bridge abutment"><path d="M2 126.33h55V134H2z" class="a11-cls-15 a11-cls-20" transform="rotate(-180 29.5 130.16)" data-color-action="fill" style="fill:inherit"/><path d="M41.74 114c-.53-6.73-2.58-25.94-3.09-39.68C38 55.65 37 30.3 35.3 30.19S27 42.87 21.43 75.11c-2.27 13-4 31.27-4.56 38.35-3.13 5.79-6.29 29.94-4.61 31.95 3.82 4.54 14.92 10 18.38 9.48s15.64-10.48 16.45-13.83-2.49-20.72-5.35-27.06z" class="a11-cls-3"/><path d="M16.71 116.2c0-2.53 2-25.56 4.71-41.1C27 42.87 33.58 30.09 35.3 30.19s2.7 25.46 3.35 44.14c.6 16.2 3.34 40 3.22 42s-25.13 5.86-25.16-.13z" class="a11-cls-4"/><path d="M35.3 112.77s-.63-4.63-1-15.51c-.4-12.92.34-46.21.79-51.29s1.5-11.42.73-11.6S33 48.59 32 60.43s-1.72 27.38-2 35.35-.11 17.14-.11 17.14z" class="a11-cls-5"/><path d="M23 77.85c.87-7.13 2.83-20.11 4.17-28.85-1.87 6.68-3.86 15.29-5.74 26.1-2.71 15.53-4.72 38.57-4.71 41.1 0 1 .75 1.75 2 2.26l1.28-3.31s1.2-22.61 3-37.3zM41.86 116.32c.13-2-2.62-25.79-3.22-42-.41-11.15-.91-24.68-1.61-33.8-.15 9.92-.43 29.68-.37 41.47.08 16.23 1 32.4 1 32.4L38 118c2.3-.59 3.83-1.19 3.86-1.68z" class="a11-cls-6"/><path d="M12.26 145.41c-1.69-2 1.48-26.18 4.61-32s21.54-5.76 24.48-.25 6.56 24.5 5.74 27.85-13 13.34-16.45 13.83-14.57-4.89-18.38-9.43z" class="a11-cls-7"/><path d="M14.92 147.29c-1.43-2.19 1.25-28.52 3.9-34.82a5.34 5.34 0 0 1 1-1.57 6.5 6.5 0 0 0-3 2.55c-3.13 5.78-6.3 29.95-4.61 32a20.51 20.51 0 0 0 3.7 3.25 14.61 14.61 0 0 1-.99-1.41zM41.35 113.21a5.9 5.9 0 0 0-2.67-2.32 4.82 4.82 0 0 1 .84 1.32c2.49 6 5.54 26.7 4.85 30.35-.23 1.22-1.55 3.26-3.3 5.45 3.07-2.68 5.66-5.47 6-6.95.84-3.35-2.78-22.34-5.72-27.85z" class="a11-cls-8"/><path d="M38.65 150c0-5.08-.06-12.35-.37-16.7-.44-6.22-1.66-18.59-2.86-23.58a25.66 25.66 0 0 0-4.43-.61 142.75 142.75 0 0 1 2.33 24.19c.24 9.42-.1 16.92-.33 20.6a44 44 0 0 0 5.66-3.9z" class="a11-cls-9"/></g><g id="a11_bridge_abutment_mesial" class="a11-cls-15" data-name="bridge abutment mesial"><path d="M2 127.33h34.98V135H2z" class="a11-cls-18" transform="rotate(-180 19.49 131.165)" data-color-action="fill" style="fill:inherit"/><path d="M12.26 145.41c-1.69-2 1.48-26.18 4.61-32s21.54-5.76 24.48-.25 6.56 24.5 5.74 27.85-13 13.34-16.45 13.83-14.57-4.89-18.38-9.43z" class="a11-cls-18" data-color-action="fill" style="fill:inherit"/></g><g id="a11_bridge_abutment_distal" class="a11-cls-15" data-name="bridge abutment distal"><path d="M22.02 127.33H57V135H22.02z" class="a11-cls-18" transform="rotate(-180 39.51 131.165)" data-color-action="fill" style="fill:inherit"/><path d="M12.26 145.41c-1.69-2 1.48-26.18 4.61-32s21.54-5.76 24.48-.25 6.56 24.5 5.74 27.85-13 13.34-16.45 13.83-14.57-4.89-18.38-9.43z" class="a11-cls-18" data-color-action="fill" style="fill:inherit"/></g><g id="a11_bridge_abutment" class="a11-cls-15" data-name="bridge abutment"><path d="M2 127.33h55V135H2z" class="a11-cls-18" transform="rotate(-180 29.5 131.165)" data-color-action="fill" style="fill:inherit"/><path d="M12.26 145.41c-1.69-2 1.48-26.18 4.61-32s21.54-5.76 24.48-.25 6.56 24.5 5.74 27.85-13 13.34-16.45 13.83-14.57-4.89-18.38-9.43z" class="a11-cls-18" data-color-action="fill" style="fill:inherit"/></g><g id="a11_bridge_pontic" data-name="bridge pontic"><path d="M41.74 114c-.53-6.73-2.58-25.94-3.09-39.68C38 55.65 37 30.3 35.3 30.19S27 42.87 21.43 75.11c-2.27 13-4 31.27-4.56 38.35-3.13 5.79-6.29 29.94-4.61 31.95 3.82 4.54 14.92 10 18.38 9.48s15.64-10.48 16.45-13.83-2.49-20.72-5.35-27.06z" class="a11-cls-3"/><path d="M16.71 116.2c0-2.53 2-25.56 4.71-41.1C27 42.87 33.58 30.09 35.3 30.19s2.7 25.46 3.35 44.14c.6 16.2 3.34 40 3.22 42s-25.13 5.86-25.16-.13z" class="a11-cls-22"/><path d="M35.3 112.77s-.63-4.63-1-15.51c-.4-12.92.34-46.21.79-51.29s1.5-11.42.73-11.6S33 48.59 32 60.43s-1.72 27.38-2 35.35-.11 17.14-.11 17.14zM23 77.85c.87-7.13 2.83-20.11 4.17-28.85-1.87 6.68-3.86 15.29-5.74 26.1-2.71 15.53-4.72 38.57-4.71 41.1 0 1 .75 1.75 2 2.26l1.28-3.31s1.2-22.61 3-37.3zM41.86 116.32c.13-2-2.62-25.79-3.22-42-.41-11.15-.91-24.68-1.61-33.8-.15 9.92-.43 29.68-.37 41.47.08 16.23 1 32.4 1 32.4L38 118c2.3-.59 3.83-1.19 3.86-1.68z" class="a11-cls-22"/><path d="M12.26 145.41c-1.69-2 1.48-26.18 4.61-32s21.54-5.76 24.48-.25 6.56 24.5 5.74 27.85-13 13.34-16.45 13.83-14.57-4.89-18.38-9.43z" class="a11-cls-7"/><path d="M14.92 147.29c-1.43-2.19 1.25-28.52 3.9-34.82a5.34 5.34 0 0 1 1-1.57 6.5 6.5 0 0 0-3 2.55c-3.13 5.78-6.3 29.95-4.61 32a20.51 20.51 0 0 0 3.7 3.25 14.61 14.61 0 0 1-.99-1.41zM41.35 113.21a5.9 5.9 0 0 0-2.67-2.32 4.82 4.82 0 0 1 .84 1.32c2.49 6 5.54 26.7 4.85 30.35-.23 1.22-1.55 3.26-3.3 5.45 3.07-2.68 5.66-5.47 6-6.95.84-3.35-2.78-22.34-5.72-27.85z" class="a11-cls-8"/><path d="M38.65 150c0-5.08-.06-12.35-.37-16.7-.44-6.22-1.66-18.59-2.86-23.58a25.66 25.66 0 0 0-4.43-.61 142.75 142.75 0 0 1 2.33 24.19c.24 9.42-.1 16.92-.33 20.6a44 44 0 0 0 5.66-3.9z" class="a11-cls-9"/><g class="a11-cls-15"><path d="M2 127.33h55V135H2z" class="a11-cls-18" transform="rotate(-180 29.5 131.165)" data-color-action="fill" style="fill:inherit"/><path d="M12.26 145.41c-1.69-2 1.48-26.18 4.61-32s21.54-5.76 24.48-.25 6.56 24.5 5.74 27.85-13 13.34-16.45 13.83-14.57-4.89-18.38-9.43z" class="a11-cls-18" data-color-action="fill" style="fill:inherit"/></g></g><g id="a11_implant_mini" data-name="implant mini"><path d="M1.61 22.04h55v137.17h-55z" class="a11-cls-22" transform="rotate(-180 29.115 90.625)"/><path d="M29.28 83.07h.44l1 8.49v40.84h-2.44V91.56l1-8.49z" class="a11-cls-18" data-color-action="fill" style="fill:inherit"/><path d="M29.58 83.07h.07l.4 8.49v40.84h-.37V91.56l-.1-8.49z" class="a11-cls-24"/><path d="M28.28 131.77h2.44v.63h-2.44z" class="a11-cls-27" transform="rotate(-180 29.5 132.085)" data-color-action="fill" style="fill:inherit"/><g class="a11-cls-28"><path d="M30.72 131.77l-2.44-1v.63l2.44 1v-.63zM30.72 130.32l-2.44-1v.63l2.44 1v-.63zM30.72 128.88l-2.44-1v.63l2.44 1v-.63zM30.72 127.43l-2.44-1v.63l2.44 1v-.63zM30.72 125.98l-2.44-1v.64l2.44 1v-.64zM30.72 124.54l-2.44-1v.63l2.44 1v-.63zM30.72 123.09l-2.44-1v.64l2.44 1v-.64zM30.72 121.65l-2.44-1v.63l2.44 1v-.63zM30.72 120.2l-2.44-1v.63l2.44 1.01v-.64zM30.72 118.76l-2.44-1v.63l2.44 1v-.63zM30.72 117.31l-2.44-1v.63l2.44 1v-.63zM30.72 115.87l-2.44-1v.63l2.44 1v-.63zM30.72 114.42l-2.44-1v.63l2.44 1v-.63zM30.72 112.98l-2.44-1v.63l2.44 1v-.63zM30.72 111.53l-2.44-1v.63l2.44 1v-.63zM30.72 110.08l-2.44-1v.64l2.44 1v-.64zM30.72 108.64l-2.44-1v.63l2.44 1v-.63zM30.72 107.19l-2.44-1v.64l2.44 1v-.64zM30.72 105.75l-2.44-1v.63l2.44 1v-.63zM30.72 104.3l-2.44-1v.64l2.44 1v-.64zM30.72 102.86l-2.44-1v.63l2.44 1v-.63zM30.72 101.41l-2.44-1v.63l2.44 1.01v-.64zM30.72 99.97l-2.44-1v.63l2.44 1v-.63zM30.72 98.52l-2.44-1v.63l2.44 1v-.63zM30.72 97.08l-2.44-1v.63l2.44 1v-.63zM30.72 95.63l-2.44-1v.63l2.44 1v-.63zM30.72 94.19l-2.44-1v.63l2.44 1v-.63zM30.72 92.74l-2.44-1v.63l2.44 1v-.63zM30.72 91.56l-.03-.28-2.27-.93-.07.61 2.37.97v-.37zM30.51 89.76l-1.93-.79-.07.61 2.08.85-.08-.67zM30.33 88.24l-1.58-.65-.08.61 1.74.71-.08-.67zM30.15 86.72l-1.24-.5-.07.6 1.39.57-.08-.67zM29.97 85.21l-.9-.37-.07.6 1.05.43-.08-.66zM29.8 83.69l-.57-.23-.07.6.71.29-.07-.66z" class="a11-cls-27" data-color-action="fill" style="fill:inherit"/></g><circle cx="29.5" cy="136.27" r="2.24" class="a11-cls-18" data-color-action="fill" style="fill:inherit"/><path d="M27.67 132.06h3.67v3h-3.67z" class="a11-cls-18" transform="rotate(-180 29.5 133.555)" data-color-action="fill" style="fill:inherit"/><path d="M29.96 132.06h.55v3h-.55z" class="a11-cls-24"/><path d="M30.3 137.63h.21a2.32 2.32 0 0 0 .52-1.29 2.37 2.37 0 0 0-.52-1.3H30a2 2 0 0 1 .73 1.37 1.5 1.5 0 0 1-.43 1.22z" class="a11-cls-24"/><path d="M28.28 125.7h2.44v.63h-2.44z" class="a11-cls-27" transform="rotate(-180 29.5 126.015)" data-color-action="fill" style="fill:inherit"/><path d="M26.89 132.08h5.22l-.87-5.71h-3.48l-.87 5.71z" class="a11-cls-18" data-color-action="fill" style="fill:inherit"/><path d="M30.15 132.08h.79l-.48-5.71h-.53l.22 5.71z" class="a11-cls-24"/></g><g id="a11_implant_cylinder" data-name="implant cylinder"><path d="M2 22h55v137.17H2z" class="a11-cls-22" transform="rotate(-180 29.5 90.585)"/><path d="M26.17 86.01h6.67v49.33h-6.67z" class="a11-cls-18" transform="rotate(-180 29.5 110.68)" data-color-action="fill" style="fill:inherit"/><path d="M24.5 135.35h10v3h-10z" class="a11-cls-18" transform="rotate(-180 29.5 136.845)" data-color-action="fill" style="fill:inherit"/><path d="M30 86.01h1v49.33h-1z" class="a11-cls-24" transform="rotate(-180 30.5 110.68)"/><path d="M30.75 135.35h1.5v3h-1.5z" class="a11-cls-24" transform="rotate(-180 31.5 136.845)"/><path d="M24.5 82.99h10v3h-10z" class="a11-cls-18" transform="rotate(-180 29.5 84.485)" data-color-action="fill" style="fill:inherit"/><path d="M30.75 82.99h1.5v3h-1.5z" class="a11-cls-24" transform="rotate(-180 31.5 84.485)"/><path d="M26.17 134.71h6.67v.63h-6.67z" class="a11-cls-27" transform="rotate(-180 29.5 135.03)" data-color-action="fill" style="fill:inherit"/><path d="M26.17 86.01h6.67v.63h-6.67z" class="a11-cls-27" transform="rotate(-180 29.5 86.33)" data-color-action="fill" style="fill:inherit"/><g class="a11-cls-28"><path d="M26.17 87.65l6.66-1.01v-.63l-6.66 1v.64zM26.17 89.09l6.66-1v-.63l-6.66 1v.63zM26.17 90.54l6.66-1v-.64l-6.66 1.01v.63zM26.17 91.98l6.66-1v-.63l-6.66 1v.63zM26.17 93.43l6.66-1v-.63l-6.66 1v.63zM26.17 94.87l6.66-1v-.63l-6.66 1v.63zM26.17 96.32l6.66-1v-.63l-6.66 1v.63zM26.17 97.76l6.66-1v-.63l-6.66 1v.63zM26.17 99.21l6.66-1v-.63l-6.66 1v.63zM26.17 100.66l6.66-1.01v-.63l-6.66 1v.64zM26.17 102.1l6.66-1v-.63l-6.66 1v.63zM26.17 103.55l6.66-1v-.64l-6.66 1v.64zM26.17 104.99l6.66-1v-.63l-6.66 1v.63zM26.17 106.44l6.66-1v-.64l-6.66 1.01v.63zM26.17 107.88l6.66-1v-.63l-6.66 1v.63zM26.17 109.33l6.66-1v-.64l-6.66 1v.64zM26.17 110.77l6.66-1v-.63l-6.66 1v.63zM26.17 112.22l6.66-1v-.63l-6.66 1v.63zM26.17 113.66l6.66-1v-.63l-6.66 1v.63zM26.17 115.11l6.66-1v-.63l-6.66 1v.63zM26.17 116.56l6.66-1.01v-.63l-6.66 1v.64zM26.17 118l6.66-1v-.63l-6.66 1v.63zM26.17 119.45l6.66-1.01v-.63l-6.66 1v.64zM26.17 120.89l6.66-1v-.63l-6.66 1v.63zM26.17 122.34l6.66-1v-.64l-6.66 1v.64zM26.17 123.78l6.66-1v-.63l-6.66 1v.63zM26.17 125.23l6.66-1v-.64l-6.66 1v.64zM26.17 126.67l6.66-1v-.63l-6.66 1v.63zM26.17 128.12l6.66-1v-.63l-6.66 1v.63zM26.17 129.56l6.66-1v-.63l-6.66 1v.63zM26.17 131.01l6.66-1v-.63l-6.66 1v.63zM26.17 132.46l6.66-1.01v-.63l-6.66 1v.64zM26.17 133.9l6.66-1v-.63l-6.66 1v.63zM26.17 135.35l6.66-1.01v-.63l-6.66 1v.64z" class="a11-cls-27" data-color-action="fill" style="fill:inherit"/></g></g><g id="a11_implant_blade" data-name="implant blade"><path d="M2 22h55v137.17H2z" class="a11-cls-22" transform="rotate(-180 29.5 90.585)"/><path d="M26.17 86.01h6.67v49.33h-6.67z" class="a11-cls-18" transform="rotate(-180 29.5 110.68)" data-color-action="fill" style="fill:inherit"/><path d="M24.5 135.35h10v3h-10z" class="a11-cls-18" transform="rotate(-180 29.5 136.845)" data-color-action="fill" style="fill:inherit"/><path d="M30 86.01h1v49.33h-1z" class="a11-cls-24" transform="rotate(-180 30.5 110.68)"/><path d="M30.75 135.35h1.5v3h-1.5z" class="a11-cls-24" transform="rotate(-180 31.5 136.845)"/><path d="M26.17 134.71h6.67v.63h-6.67z" class="a11-cls-27" transform="rotate(-180 29.5 135.03)" data-color-action="fill" style="fill:inherit"/></g><path id="a11_watch_tooth" d="M8.27 27.73a3.26 3.26 0 0 1 3.22-3.26 3.24 3.24 0 1 1 0 6.47 3.25 3.25 0 0 1-3.22-3.21zm1-5.91L8.39 3.73h6.15l-.8 18.09z" class="a11-cls-11" data-color-action="fill" style="fill:inherit" data-name="watch tooth"/><path id="a11_border" d="M0 0h59v161H0z" class="a11-cls-14" transform="rotate(-180 29.5 80.5)"/></defs></g><g class="c11-cls-1" transform="translate(0 217)"><g id="_11C" data-name="#11C"><path d="M12.26 18.33c-1.69 2 1.48 26.18 4.61 32s21.54 5.76 24.48.25S47.91 26 47.09 22.67 34.1 9.33 30.64 8.84s-14.57 4.95-18.38 9.49z" class="c11-cls-2"/><path d="M12.26 18.33c-1.69 2 1.48 26.18 4.61 32s21.54 5.76 24.48.25S47.91 26 47.09 22.67 34.1 9.33 30.64 8.84s-14.57 4.95-18.38 9.49z" class="c11-cls-3"/><path d="M47.09 22.67c-.82-3.35-13-13.34-16.45-13.83s-14.56 4.94-18.38 9.48c-.33.39-.47 1.65-.47 3.44a3.72 3.72 0 0 1 1.5-2.28c2.2-1.58 12.7-7.89 16.13-7.69s13.66 8.58 14.69 9.81c.9 1.08 2.57 3 2.94 5.09a15 15 0 0 0 .04-4.02z" class="c11-cls-4"/><path d="M39.51 49c-2.06 1.17-5.83 1.92-10.29 2s-8.92-.34-11.32-1.78A8.41 8.41 0 0 1 15.61 47a18.64 18.64 0 0 0 1.26 3.26c3.13 5.8 21.54 5.74 24.48.27a25.18 25.18 0 0 0 1.52-3.79A30.57 30.57 0 0 1 39.51 49z" class="c11-cls-5"/></g><defs><g id="c11_splinted_crowns" data-name="splinted crowns"><path d="M2 52.09h55v7.67H2z" class="c11-cls-12" transform="rotate(-180 29.5 55.925)" data-color-action="fill" style="fill:inherit"/><path d="M12.26 18.33c-1.69 2 1.48 26.18 4.61 32s21.54 5.76 24.48.25S47.91 26 47.09 22.67 34.1 9.33 30.64 8.84s-14.57 4.95-18.38 9.49z" class="c11-cls-2"/><path d="M12.26 18.33c-1.69 2 1.48 26.18 4.61 32s21.54 5.76 24.48.25S47.91 26 47.09 22.67 34.1 9.33 30.64 8.84s-14.57 4.95-18.38 9.49z" class="c11-cls-3"/><path d="M47.09 22.67c-.82-3.35-13-13.34-16.45-13.83s-14.56 4.94-18.38 9.48c-.33.39-.47 1.65-.47 3.44a3.72 3.72 0 0 1 1.5-2.28c2.2-1.58 12.7-7.89 16.13-7.69s13.66 8.58 14.69 9.81c.9 1.08 2.57 3 2.94 5.09a15 15 0 0 0 .04-4.02z" class="c11-cls-4"/><path d="M39.51 49c-2.06 1.17-5.83 1.92-10.29 2s-8.92-.34-11.32-1.78A8.41 8.41 0 0 1 15.61 47a18.64 18.64 0 0 0 1.26 3.26c3.13 5.8 21.54 5.74 24.48.27a25.18 25.18 0 0 0 1.52-3.79A30.57 30.57 0 0 1 39.51 49z" class="c11-cls-5"/></g><path id="c11_lingual_V" d="M19.25 52.52A15.37 15.37 0 0 1 29.8 48.2a15.19 15.19 0 0 1 10.09 3.93c-4.39 3.19-15.41 3.36-20.64.39z" class="c11-cls-6" data-color-action="fill" style="fill:inherit" data-name="lingual V"/><ellipse id="c11_mid_lingual" cx="30.08" cy="34.8" class="c11-cls-6" rx="4.61" ry="9.46" data-color-action="fill" style="fill:inherit" data-name="mid lingual"/><path id="c11_mesial" d="M17.94 27.31a6.48 6.48 0 0 1 .72-2.31L13 17.57c-.25.25-.49.5-.7.75-1 1.14-.35 9.39.92 17.38 2.04-1.36 4.19-3.85 4.72-8.39z" class="c11-cls-6" data-color-action="fill" style="fill:inherit"/><path id="c11_line_angle_4" d="M26.15 21.25l-2.73-10.42A37.92 37.92 0 0 0 13 17.57l5.7 7.4c1.22-2.34 3.94-3.43 7.45-3.72z" class="c11-cls-6" data-color-action="fill" style="fill:inherit" data-name="line angle 4"/><path id="c11_lingual" d="M29.77 21.19a24.54 24.54 0 0 1 3.9.44l3.21-9.29c-2.58-1.9-5-3.32-6.23-3.5-1.44-.2-4.21.63-7.22 2l2.73 10.42a28.58 28.58 0 0 1 3.61-.07z" class="c11-cls-6" data-color-action="fill" style="fill:inherit"/><path id="c11_line_angle_3" d="M39.84 26.88l5.66-6.76a54.65 54.65 0 0 0-8.63-7.77l-3.21 9.29c3.34.68 5.11 2.22 6.18 5.24z" class="c11-cls-6" data-color-action="fill" style="fill:inherit" data-name="line angle 3"/><path id="c11_distal" d="M47.09 22.67a7.54 7.54 0 0 0-1.59-2.56l-5.66 6.76a21.42 21.42 0 0 1 .93 4c.43 2.91 2.7 4.42 4.8 5.19 1.21-5.93 1.94-11.68 1.52-13.39z" class="c11-cls-6" data-color-action="fill" style="fill:inherit"/><g id="c11_veneer"><path d="M28 1.25h3v3h-3z" class="c11-cls-7" transform="rotate(-180 29.5 2.75)"/><path d="M28 1.25h3v3h-3z" class="c11-cls-7" transform="rotate(-180 29.5 2.75)"/><path d="M28 1.25h3v3h-3z" class="c11-cls-7" transform="rotate(-180 29.5 2.75)"/></g><g id="c11_tissue_graft" data-name="tissue graft"><path d="M28 1.25h3v3h-3z" class="c11-cls-7" transform="rotate(-180 29.5 2.75)"/><path d="M28 1.25h3v3h-3z" class="c11-cls-7" transform="rotate(-180 29.5 2.75)"/><path d="M28 1.25h3v3h-3z" class="c11-cls-7" transform="rotate(-180 29.5 2.75)"/></g><g id="c11_tipped_lingual" class="c11-cls-8" data-name="tipped lingual"><path d="M28.65 5.93c1.26-3.37 4.74-3.85 7.69 5.32.5 1.56 4.42 1.76 3.84 0C38.16 5.15 34.86 1 31.11 2a4.86 4.86 0 0 0-3 3.38c.2.15.43.41.54.55z" class="c11-cls-9" data-color-action="fill" style="fill:inherit"/><path d="M30.73 8.85h12.94l-2.94 9.64-10-9.64z" class="c11-cls-9" data-color-action="fill" style="fill:inherit"/></g><g id="c11_tipped_facial" data-name="tipped facial"><path d="M28 1.25h3v3h-3z" class="c11-cls-7" transform="rotate(-180 29.5 2.75)"/><path d="M28 1.25h3v3h-3z" class="c11-cls-7" transform="rotate(-180 29.5 2.75)"/><path d="M28 1.25h3v3h-3z" class="c11-cls-7" transform="rotate(-180 29.5 2.75)"/></g><path id="c11_surface_restoration_distal" d="M40.21 24.66c-.11 2.81-1.25 13.48-2.58 21.8a11.51 11.51 0 0 1 6.65-4.69c1.91-7.54 3.36-16.85 2.81-19.11a8.36 8.36 0 0 0-1.85-2.86l-5.19 4.67z" class="c11-cls-10" data-color-action="fill" style="fill:inherit" data-name="surface restoration distal"/><path id="c11_surface_restoration_lingual" d="M22.78 51.8a13.81 13.81 0 0 1 12.94.08 11.43 11.43 0 0 1 1.92-5.41c1.33-8.32 2.47-19 2.58-21.8a49.88 49.88 0 0 0-10.56-8.74 36.35 36.35 0 0 0-10.89 5.79c0 3.67 1 15.93 2.2 24.9a11.44 11.44 0 0 1 1.81 5.18z" class="c11-cls-8 c11-cls-11" data-color-action="fill" style="fill:inherit" data-name="surface restoration lingual"/><path id="c11_surface_restoration_lingual_V" d="M22.78 51.8c0 .36.06.72.06 1.09v1a28.23 28.23 0 0 0 12.93 0c0-.33-.05-.66-.05-1v-1a13.81 13.81 0 0 0-12.94-.08z" class="c11-cls-8 c11-cls-11" data-color-action="fill" style="fill:inherit" data-name="surface restoration lingual V"/><path id="c11_surface_restoration_mesial" d="M12.26 18.32c-1.21 1.43.07 14.2 2 23.47A11.51 11.51 0 0 1 21 46.61c-1.19-8.77-2.17-20.67-2.2-24.62l-5.1-5.1a14.85 14.85 0 0 0-1.44 1.43z" class="c11-cls-10" data-color-action="fill" style="fill:inherit" data-name="surface restoration mesial"/><path id="c11_surface_restoration_incisal" d="M30.64 8.83c-3.11-.44-12.34 3.89-17 8.06l5.1 5.1v-.28a36.35 36.35 0 0 1 10.89-5.79 50.49 50.49 0 0 1 10.4 8.56l5.19-4.67c-3.7-4.29-11.85-10.59-14.58-10.98z" class="c11-cls-10" data-color-action="fill" style="fill:inherit" data-name="surface restoration incisal"/><g id="c11_supra-erupted"><path d="M28 1.25h3v3h-3z" class="c11-cls-7" transform="rotate(-180 29.5 2.75)"/><path d="M28 1.25h3v3h-3z" class="c11-cls-7" transform="rotate(-180 29.5 2.75)"/><path d="M28 1.25h3v3h-3z" class="c11-cls-7" transform="rotate(-180 29.5 2.75)"/></g><g id="c11_sub-erupted"><path d="M28 1.25h3v3h-3z" class="c11-cls-7" transform="rotate(-180 29.5 2.75)"/><path d="M28 1.25h3v3h-3z" class="c11-cls-7" transform="rotate(-180 29.5 2.75)"/><path d="M28 1.25h3v3h-3z" class="c11-cls-7" transform="rotate(-180 29.5 2.75)"/></g><g id="c11_sealant"><path d="M28 1.25h3v3h-3z" class="c11-cls-7" transform="rotate(-180 29.5 2.75)"/><path d="M28 1.25h3v3h-3z" class="c11-cls-7" transform="rotate(-180 29.5 2.75)"/><path d="M28 1.25h3v3h-3z" class="c11-cls-7" transform="rotate(-180 29.5 2.75)"/></g><g id="c11_root_decay" data-name="root decay"><path d="M28 1.25h3v3h-3z" class="c11-cls-7" transform="rotate(-180 29.5 2.75)"/><path d="M28 1.25h3v3h-3z" class="c11-cls-7" transform="rotate(-180 29.5 2.75)"/><path d="M28 1.25h3v3h-3z" class="c11-cls-7" transform="rotate(-180 29.5 2.75)"/></g><g id="c11_root_canal" data-name="root canal"><path d="M28 1.25h3v3h-3z" class="c11-cls-7" transform="rotate(-180 29.5 2.75)"/><path d="M28 1.25h3v3h-3z" class="c11-cls-7" transform="rotate(-180 29.5 2.75)"/><path d="M28 1.25h3v3h-3z" class="c11-cls-7" transform="rotate(-180 29.5 2.75)"/></g><g id="c11_root_abrasion" data-name="root abrasion"><path d="M28 1.25h3v3h-3z" class="c11-cls-7" transform="rotate(-180 29.5 2.75)"/><path d="M28 1.25h3v3h-3z" class="c11-cls-7" transform="rotate(-180 29.5 2.75)"/><path d="M28 1.25h3v3h-3z" class="c11-cls-7" transform="rotate(-180 29.5 2.75)"/></g><g id="c11_open_contact_mesial" data-name="open contact mesial"><path d="M28 1.25h3v3h-3z" class="c11-cls-7" transform="rotate(-180 29.5 2.75)"/><path d="M28 1.25h3v3h-3z" class="c11-cls-7" transform="rotate(-180 29.5 2.75)"/><path d="M28 1.25h3v3h-3z" class="c11-cls-7" transform="rotate(-180 29.5 2.75)"/></g><g id="c11_open_contact_distal" data-name="open contact distal"><path d="M28 1.25h3v3h-3z" class="c11-cls-7" transform="rotate(-180 29.5 2.75)"/><path d="M28 1.25h3v3h-3z" class="c11-cls-7" transform="rotate(-180 29.5 2.75)"/><path d="M28 1.25h3v3h-3z" class="c11-cls-7" transform="rotate(-180 29.5 2.75)"/></g><path id="c11_lingual_abfraction" d="M17 55.84s5.61 4.42 12.53 4.42S42 55.84 42 55.84s-5.61-4.42-12.53-4.42S17 55.84 17 55.84z" class="c11-cls-15" data-color-action="fill" style="fill:inherit" data-name="lingual abfraction"/><g id="c11_internal_root_resorption" data-name="internal root resorption"><path d="M28 1.25h3v3h-3z" class="c11-cls-7" transform="rotate(-180 29.5 2.75)"/><path d="M28 1.25h3v3h-3z" class="c11-cls-7" transform="rotate(-180 29.5 2.75)"/><path d="M28 1.25h3v3h-3z" class="c11-cls-7" transform="rotate(-180 29.5 2.75)"/></g><g id="c11_gortex_membranes" data-name="gortex membranes"><path d="M28 1.25h3v3h-3z" class="c11-cls-7" transform="rotate(-180 29.5 2.75)"/><path d="M28 1.25h3v3h-3z" class="c11-cls-7" transform="rotate(-180 29.5 2.75)"/><path d="M28 1.25h3v3h-3z" class="c11-cls-7" transform="rotate(-180 29.5 2.75)"/></g><g id="c11_frenum_pull" data-name="frenum pull"><path d="M28 1.25h3v3h-3z" class="c11-cls-7" transform="rotate(-180 29.5 2.75)"/><path d="M28 1.25h3v3h-3z" class="c11-cls-7" transform="rotate(-180 29.5 2.75)"/><path d="M28 1.25h3v3h-3z" class="c11-cls-7" transform="rotate(-180 29.5 2.75)"/></g><g id="c11_external_root_resorption" data-name="external root resorption"><path d="M28 1.25h3v3h-3z" class="c11-cls-7" transform="rotate(-180 29.5 2.75)"/><path d="M28 1.25h3v3h-3z" class="c11-cls-7" transform="rotate(-180 29.5 2.75)"/><path d="M28 1.25h3v3h-3z" class="c11-cls-7" transform="rotate(-180 29.5 2.75)"/></g><path id="c11_three_quarter_crown" d="M12.73 32.71c-1-6.95-1.31-13.39-.47-14.38 3.82-4.54 14.92-10 18.38-9.48s15.64 10.48 16.45 13.82c.34 1.38-.08 5.4-.89 10z" class="c11-cls-8 c11-cls-19" data-color-action="fill" style="fill:inherit" data-name="three quarter crown"/><path id="c11_crown" d="M12.26 18.33c-1.69 2 1.48 26.18 4.61 32s21.54 5.76 24.48.25S47.91 26 47.09 22.67 34.1 9.33 30.64 8.84s-14.57 4.95-18.38 9.49z" class="c11-cls-8 c11-cls-19" data-color-action="fill" style="fill:inherit"/><path id="c11_cracked_surface_distal" d="M41.34 23.74l3.83 3.83h-5.01l5.01 4.75h-5.01l3.83 3.83" class="c11-cls-20" data-color-action="stroke" style="stroke:inherit" data-name="cracked surface distal"/><path id="c11_cracked_surface_lingual" d="M28.17 23.74l3.84 3.83H27l5 4.75h-5l3.83 3.83" class="c11-cls-20" data-color-action="stroke" style="stroke:inherit" data-name="cracked surface lingual"/><path id="c11_cracked_surface_lingual_V" d="M28.17 23.74l3.84 3.83H27l5 4.75h-5l3.83 3.83" class="c11-cls-20" data-color-action="stroke" style="stroke:inherit" data-name="cracked surface lingual V"/><path id="c11_cracked_surface_mesial" d="M13.34 23.74l3.83 3.83h-5l5 4.75h-5L16 36.15" class="c11-cls-20" data-color-action="stroke" style="stroke:inherit" data-name="cracked surface mesial"/><g id="c11_chipped_surface_distal" class="c11-cls-8" data-name="chipped surface distal"><path d="M37.83 25.41l8.33 8.34M46.16 25.41l-8.33 8.34" class="c11-cls-21" data-color-action="stroke" style="stroke:inherit"/></g><g id="c11_chipped_surface_lingual" class="c11-cls-8" data-name="chipped surface lingual"><path d="M25.67 25.41L34 33.75M34 25.41l-8.33 8.34" class="c11-cls-21" data-color-action="stroke" style="stroke:inherit"/></g><g id="c11_chipped_surface_lingual_V" class="c11-cls-8" data-name="chipped surface lingual V"><path d="M25.67 25.41L34 33.75M34 25.41l-8.33 8.34" class="c11-cls-21" data-color-action="stroke" style="stroke:inherit"/></g><g id="c11_chipped_surface_mesial" class="c11-cls-8" data-name="chipped surface mesial"><path d="M11.67 25.41L20 33.75M20 25.41l-8.33 8.34" class="c11-cls-21" data-color-action="stroke" style="stroke:inherit"/></g><g id="c11_buccal_abfraction" data-name="buccal abfraction"><path d="M28 1.25h3v3h-3z" class="c11-cls-7" transform="rotate(-180 29.5 2.75)"/><path d="M28 1.25h3v3h-3z" class="c11-cls-7" transform="rotate(-180 29.5 2.75)"/><path d="M28 1.25h3v3h-3z" class="c11-cls-7" transform="rotate(-180 29.5 2.75)"/></g><g id="c11_braces"><path d="M28 1.25h3v3h-3z" class="c11-cls-7" transform="rotate(-180 29.5 2.75)"/><path d="M28 1.25h3v3h-3z" class="c11-cls-7" transform="rotate(-180 29.5 2.75)"/><path d="M28 1.25h3v3h-3z" class="c11-cls-7" transform="rotate(-180 29.5 2.75)"/></g><g id="c11_apicoectomy"><path d="M28 1.25h3v3h-3z" class="c11-cls-7" transform="rotate(-180 29.5 2.75)"/><path d="M28 1.25h3v3h-3z" class="c11-cls-7" transform="rotate(-180 29.5 2.75)"/><path d="M28 1.25h3v3h-3z" class="c11-cls-7" transform="rotate(-180 29.5 2.75)"/></g><g id="c11_abscess"><path d="M28 1.25h3v3h-3z" class="c11-cls-7" transform="rotate(-180 29.5 2.75)"/><path d="M28 1.25h3v3h-3z" class="c11-cls-7" transform="rotate(-180 29.5 2.75)"/><path d="M28 1.25h3v3h-3z" class="c11-cls-7" transform="rotate(-180 29.5 2.75)"/></g><g id="c11_blunted_roots" data-name="blunted roots"><path d="M28 1.25h3v3h-3z" class="c11-cls-7" transform="rotate(-180 29.5 2.75)"/><path d="M28 1.25h3v3h-3z" class="c11-cls-7" transform="rotate(-180 29.5 2.75)"/><path d="M28 1.25h3v3h-3z" class="c11-cls-7" transform="rotate(-180 29.5 2.75)"/></g><g id="c11_root_amputation" data-name="root amputation"><path d="M28 1.25h3v3h-3z" class="c11-cls-7" transform="rotate(-180 29.5 2.75)"/><path d="M28 1.25h3v3h-3z" class="c11-cls-7" transform="rotate(-180 29.5 2.75)"/><path d="M28 1.25h3v3h-3z" class="c11-cls-7" transform="rotate(-180 29.5 2.75)"/></g><g id="c11_missing_crown" data-name="missing crown"><path d="M28 1.25h3v3h-3z" class="c11-cls-7" transform="rotate(-180 29.5 2.75)"/><path d="M28 1.25h3v3h-3z" class="c11-cls-7" transform="rotate(-180 29.5 2.75)"/><path d="M28 1.25h3v3h-3z" class="c11-cls-7" transform="rotate(-180 29.5 2.75)"/><path d="M2 2.02h55V64H2z" class="c11-cls-13" transform="rotate(-180 29.5 33.01)"/></g><g id="c11_missing_tooth" data-name="missing tooth"><path d="M12.26 18.33c-1.69 2 1.48 26.18 4.61 32s21.54 5.76 24.48.25S47.91 26 47.09 22.67 34.1 9.33 30.64 8.84s-14.57 4.95-18.38 9.49z" class="c11-cls-2"/><path d="M12.26 18.33c-1.69 2 1.48 26.18 4.61 32s21.54 5.76 24.48.25S47.91 26 47.09 22.67 34.1 9.33 30.64 8.84s-14.57 4.95-18.38 9.49z" class="c11-cls-13"/><path d="M47.09 22.67c-.82-3.35-13-13.34-16.45-13.83s-14.56 4.94-18.38 9.48c-.33.39-.47 1.65-.47 3.44a3.72 3.72 0 0 1 1.5-2.28c2.2-1.58 12.7-7.89 16.13-7.69s13.66 8.58 14.69 9.81c.9 1.08 2.57 3 2.94 5.09a15 15 0 0 0 .04-4.02zM39.51 49c-2.06 1.17-5.83 1.92-10.29 2s-8.92-.34-11.32-1.78A8.41 8.41 0 0 1 15.61 47a18.64 18.64 0 0 0 1.26 3.26c3.13 5.8 21.54 5.74 24.48.27a25.18 25.18 0 0 0 1.52-3.79A30.57 30.57 0 0 1 39.51 49z" class="c11-cls-13"/></g><g id="c11_maryland_bridge_pontic" class="c11-cls-8" data-name="maryland bridge pontic"><path d="M2 28.96h55v7.67H2z" class="c11-cls-14" transform="rotate(-180 29.5 32.8)" data-color-action="fill" style="fill:inherit"/><path d="M12.26 18.33c-1.69 2 1.48 26.18 4.61 32s21.54 5.76 24.48.25S47.91 26 47.09 22.67 34.1 9.33 30.64 8.84s-14.57 4.95-18.38 9.49z" class="c11-cls-14" data-color-action="fill" style="fill:inherit"/></g><g id="c11_maryland_bridge_abutment_mesial" class="c11-cls-8" data-name="maryland bridge abutment mesial"><path d="M2 28.17h20.42v7.67H2z" class="c11-cls-14" data-color-action="fill" style="fill:inherit"/><ellipse cx="21.19" cy="32" class="c11-cls-14" rx="5.61" ry="12.9" data-color-action="fill" style="fill:inherit"/></g><g id="c11_maryland_bridge_abutment_distal" class="c11-cls-8" data-name="maryland bridge abutment distal"><path d="M36.58 28.17H57v7.67H36.58z" class="c11-cls-14" data-color-action="fill" style="fill:inherit"/><ellipse cx="37.81" cy="32" class="c11-cls-14" rx="5.61" ry="12.9" data-color-action="fill" style="fill:inherit"/></g><g id="c11_maryland_bridge_abutment" class="c11-cls-8" data-name="maryland bridge abutment"><path d="M36.58 28.17H57v7.67H36.58zM2 28.17h20.42v7.67H2z" class="c11-cls-14" data-color-action="fill" style="fill:inherit"/><ellipse cx="21.19" cy="32" class="c11-cls-14" rx="5.61" ry="12.9" data-color-action="fill" style="fill:inherit"/><ellipse cx="37.81" cy="32" class="c11-cls-14" rx="5.61" ry="12.9" data-color-action="fill" style="fill:inherit"/></g><g id="c11_bridge_abutment_mesial" class="c11-cls-8" data-name="bridge abutment mesial"><path d="M12.26 18.33c-1.69 2 1.48 26.18 4.61 32s21.54 5.76 24.48.25S47.91 26 47.09 22.67 34.1 9.33 30.64 8.84s-14.57 4.95-18.38 9.49z" class="c11-cls-11" data-color-action="fill" style="fill:inherit"/><path d="M2 28.74h34.98v7.67H2z" class="c11-cls-11" transform="rotate(-180 19.49 32.57)" data-color-action="fill" style="fill:inherit"/></g><g id="c11_bridge_abutment_distal" class="c11-cls-8" data-name="bridge abutment distal"><path d="M12.26 18.33c-1.69 2 1.48 26.18 4.61 32s21.54 5.76 24.48.25S47.91 26 47.09 22.67 34.1 9.33 30.64 8.84s-14.57 4.95-18.38 9.49z" class="c11-cls-11" data-color-action="fill" style="fill:inherit"/><path d="M22.02 28.74H57v7.67H22.02z" class="c11-cls-11" transform="rotate(-180 39.51 32.57)" data-color-action="fill" style="fill:inherit"/></g><g id="c11_bridge_abutment" class="c11-cls-8" data-name="bridge abutment"><path d="M12.26 18.33c-1.69 2 1.48 26.18 4.61 32s21.54 5.76 24.48.25S47.91 26 47.09 22.67 34.1 9.33 30.64 8.84s-14.57 4.95-18.38 9.49z" class="c11-cls-11" data-color-action="fill" style="fill:inherit"/><path d="M2 28.74h55v7.67H2z" class="c11-cls-11" transform="rotate(-180 29.5 32.57)" data-color-action="fill" style="fill:inherit"/></g><g id="c11_bridge_pontic" class="c11-cls-8" data-name="bridge pontic"><path d="M12.26 18.33c-1.69 2 1.48 26.18 4.61 32s21.54 5.76 24.48.25S47.91 26 47.09 22.67 34.1 9.33 30.64 8.84s-14.57 4.95-18.38 9.49z" class="c11-cls-11" data-color-action="fill" style="fill:inherit"/><path d="M2 28.74h55v7.67H2z" class="c11-cls-11" transform="rotate(-180 29.5 32.57)" data-color-action="fill" style="fill:inherit"/></g><g id="c11_implant_mini" data-name="implant mini"><path d="M2 2.02h55V64H2z" class="c11-cls-13" transform="rotate(-180 29.5 33.01)"/><path d="M29.28 66h.44l1-8.5V16.67h-2.44V57.5l1 8.5z" class="c11-cls-11" data-color-action="fill" style="fill:inherit"/><path d="M29.58 66h.07l.4-8.5V16.67h-.37V57.5l-.1 8.5z" class="c11-cls-16"/><path d="M28.28 16.67h2.44v.63h-2.44z" class="c11-cls-17" transform="rotate(-180 29.5 16.985)" data-color-action="fill" style="fill:inherit"/><g class="c11-cls-18"><path d="M30.72 17.3l-2.44 1v-.63l2.44-1v.63zM30.72 18.75l-2.44 1v-.64l2.44-1v.64zM30.72 20.19l-2.44 1v-.63l2.44-1v.63zM30.72 21.64l-2.44 1V22l2.44-1v.64zM30.72 23.08l-2.44 1v-.63l2.44-1v.63zM30.72 24.53l-2.44 1v-.64l2.44-1v.64zM30.72 25.97l-2.44 1v-.63l2.44-1v.63zM30.72 27.42l-2.44 1v-.63l2.44-1v.63zM30.72 28.86l-2.44 1v-.63l2.44-1v.63zM30.72 30.31l-2.44 1v-.63l2.44-1v.63zM30.72 31.75l-2.44 1.01v-.64l2.44-1v.63zM30.72 33.2l-2.44 1v-.63l2.44-1v.63zM30.72 34.65l-2.44 1v-.64l2.44-1v.64zM30.72 36.09l-2.44 1v-.63l2.44-1v.63zM30.72 37.54l-2.44 1v-.64l2.44-1v.64zM30.72 38.98l-2.44 1v-.63l2.44-1v.63zM30.72 40.43l-2.44 1v-.63l2.44-1.01v.64zM30.72 41.87l-2.44 1v-.63l2.44-1v.63zM30.72 43.32l-2.44 1v-.63l2.44-1v.63zM30.72 44.76l-2.44 1v-.63l2.44-1v.63zM30.72 46.21l-2.44 1v-.63l2.44-1v.63zM30.72 47.65l-2.44 1.01v-.64l2.44-1v.63zM30.72 49.1l-2.44 1v-.63l2.44-1v.63zM30.72 50.55l-2.44 1v-.64l2.44-1v.64zM30.72 51.99l-2.44 1v-.63l2.44-1v.63zM30.72 53.44l-2.44 1v-.64l2.44-1v.64zM30.72 54.88l-2.44 1v-.63l2.44-1v.63zM30.72 56.33l-2.44 1v-.63l2.44-1.01v.64zM30.72 57.5l-.03.29-2.27.92-.07-.6 2.37-.97v.36zM30.51 59.3l-1.93.79-.07-.6 2.08-.85-.08.66zM30.33 60.82l-1.58.65-.08-.6 1.74-.71-.08.66zM30.15 62.34l-1.24.51-.07-.6 1.39-.57-.08.66zM29.97 63.86l-.9.37-.07-.6 1.05-.43-.08.66zM29.8 65.38l-.57.23-.07-.6.71-.3-.07.67z" class="c11-cls-17" data-color-action="fill" style="fill:inherit"/></g><circle cx="29.5" cy="12.79" r="2.24" class="c11-cls-11" data-color-action="fill" style="fill:inherit"/><path d="M27.67 14.01h3.67v3h-3.67z" class="c11-cls-11" transform="rotate(-180 29.5 15.51)" data-color-action="fill" style="fill:inherit"/><path d="M29.96 14.01h.55v3h-.55z" class="c11-cls-16"/><path d="M30.3 11.44h.21a2.32 2.32 0 0 1 .49 1.28 2.37 2.37 0 0 1-.52 1.3H30a2 2 0 0 0 .73-1.37 1.5 1.5 0 0 0-.43-1.21z" class="c11-cls-16"/><path d="M28.28 22.74h2.44v.63h-2.44z" class="c11-cls-17" transform="rotate(-180 29.5 23.05)" data-color-action="fill" style="fill:inherit"/><path d="M26.89 16.99h5.22l-.87 5.71h-3.48l-.87-5.71z" class="c11-cls-11" data-color-action="fill" style="fill:inherit"/><path d="M30.15 16.99h.79l-.48 5.71h-.53l.22-5.71z" class="c11-cls-16"/></g><g id="c11_implant_cylinder" data-name="implant cylinder"><path d="M2 2.02h55V64H2z" class="c11-cls-13" transform="rotate(-180 29.5 33.01)"/><path d="M26.17 13.67h6.67V63h-6.67z" class="c11-cls-11" transform="rotate(-180 29.5 38.335)" data-color-action="fill" style="fill:inherit"/><path d="M24.5 63h10v3h-10z" class="c11-cls-11" transform="rotate(-180 29.5 64.5)" data-color-action="fill" style="fill:inherit"/><path d="M30 13.67h1V63h-1z" class="c11-cls-16" transform="rotate(-180 30.5 38.335)"/><path d="M30.75 63h1.5v3h-1.5z" class="c11-cls-16" transform="rotate(-180 31.5 64.5)"/><path d="M24.5 10.64h10v3h-10z" class="c11-cls-11" transform="rotate(-180 29.5 12.14)" data-color-action="fill" style="fill:inherit"/><path d="M30.75 10.64h1.5v3h-1.5z" class="c11-cls-16" transform="rotate(-180 31.5 12.14)"/><path d="M26.17 62.37h6.67V63h-6.67z" class="c11-cls-17" transform="rotate(-180 29.5 62.685)" data-color-action="fill" style="fill:inherit"/><path d="M26.17 13.67h6.67v.63h-6.67z" class="c11-cls-17" transform="rotate(-180 29.5 13.985)" data-color-action="fill" style="fill:inherit"/><g class="c11-cls-18"><path d="M26.17 15.3l6.66-1v-.63l-6.66 1v.63zM26.17 16.75l6.66-1v-.63l-6.66 1v.63zM26.17 18.19l6.66-1v-.63l-6.66 1v.63zM26.17 19.64l6.66-1v-.63l-6.66 1v.63zM26.17 21.08l6.66-1v-.63l-6.66 1v.63zM26.17 22.53l6.66-1v-.63l-6.66 1v.63zM26.17 23.98l6.66-1v-.64l-6.66 1v.64zM26.17 25.42l6.66-1v-.63l-6.66 1v.63zM26.17 26.87l6.66-1.01v-.63l-6.66 1v.64zM26.17 28.31l6.66-1v-.63l-6.66 1v.63zM26.17 29.76l6.66-1v-.64l-6.66 1.01v.63zM26.17 31.2l6.66-1v-.63l-6.66 1v.63zM26.17 32.65l6.66-1v-.63l-6.66 1v.63zM26.17 34.09l6.66-1v-.63l-6.66 1v.63zM26.17 35.54l6.66-1v-.63l-6.66 1v.63zM26.17 36.98l6.66-1v-.63l-6.66 1v.63zM26.17 38.43l6.66-1v-.63l-6.66 1v.63zM26.17 39.88l6.66-1v-.64l-6.66 1v.64zM26.17 41.32l6.66-1v-.63l-6.66 1v.63zM26.17 42.77l6.66-1v-.64l-6.66 1v.64zM26.17 44.21l6.66-1v-.63l-6.66 1v.63zM26.17 45.66l6.66-1v-.64l-6.66 1v.64zM26.17 47.1l6.66-1v-.63l-6.66 1v.63zM26.17 48.55l6.66-1v-.64l-6.66 1.01v.63zM26.17 49.99l6.66-1v-.63l-6.66 1v.63zM26.17 51.44l6.66-1v-.63l-6.66 1v.63zM26.17 52.88l6.66-1v-.63l-6.66 1v.63zM26.17 54.33l6.66-1v-.63l-6.66 1v.63zM26.17 55.77l6.66-1v-.63l-6.66 1v.63zM26.17 57.22l6.66-1v-.63l-6.66 1v.63zM26.17 58.67l6.66-1.01v-.63l-6.66 1v.64zM26.17 60.11l6.66-1v-.63l-6.66 1v.63zM26.17 61.56l6.66-1v-.64l-6.66 1v.64zM26.17 63l6.66-1v-.63l-6.66 1V63z" class="c11-cls-17" data-color-action="fill" style="fill:inherit"/></g></g><g id="c11_implant_blade" data-name="implant blade"><path d="M2 2.02h55V64H2z" class="c11-cls-13" transform="rotate(-180 29.5 33.01)"/><path d="M26.17 13.64h6.67v49.33h-6.67z" class="c11-cls-11" transform="rotate(-180 29.5 38.31)" data-color-action="fill" style="fill:inherit"/><path d="M24.5 10.64h10v3h-10z" class="c11-cls-11" transform="rotate(-180 29.5 12.14)" data-color-action="fill" style="fill:inherit"/><path d="M30 13.64h1v49.33h-1z" class="c11-cls-16" transform="rotate(-180 30.5 38.31)"/><path d="M30.75 10.64h1.5v3h-1.5z" class="c11-cls-16" transform="rotate(-180 31.5 12.14)"/><path d="M26.17 13.64h6.67v.63h-6.67z" class="c11-cls-17" transform="rotate(-180 29.5 13.955)" data-color-action="fill" style="fill:inherit"/></g><g id="c11_border"><path d="M0 0h59v66H0z" class="c11-cls-7"/><path d="M0 0h59v66H0z" class="c11-cls-7" transform="rotate(-180 29.5 33)"/></g></defs></g></svg>