<svg xmlns="http://www.w3.org/2000/svg" viewBox="0 0 59 283"><defs><style>.a9-cls-1{isolation:isolate}.a9-cls-2,.a9-cls-25{fill:#c5c7c9}.a9-cls-25{stroke:none}.a9-cls-2{stroke:#c5c7c9;stroke-width:5px}.a9-cls-19,.a9-cls-2,.a9-cls-22,.a9-cls-24,.a9-cls-26,.a9-cls-27,.a9-cls-30,.a9-cls-32,.a9-cls-33{stroke-miterlimit:10}.a9-cls-3{fill:#f5d7cf;stroke:none}.a9-cls-4,.a9-cls-5{fill:#fae8e3;stroke:none}.a9-cls-5{fill:#f2c6bc}.a9-cls-6,.a9-cls-7{fill:#eeefef;stroke:none}.a9-cls-7{fill:#e2e3e4}.a9-cls-8,.a9-cls-9{fill:#fbfbfb;stroke:none}.a9-cls-9{font-size:15px;fill:#929497;font-family:ProximaNova-Semibold,Proxima Nova,sans-serif;font-weight:700}.a9-cls-10,.a9-cls-28,.a9-cls-36{fill:#3c3d3d;stroke:none}.a9-cls-10{opacity:.55}.a9-cls-11{fill:#ffd403;stroke:none}.a9-cls-13,.a9-cls-21{fill:#ffef3e;stroke:none}.a9-cls-14,.a9-cls-15,.a9-cls-20{fill:#c52636;stroke:none}.a9-cls-15{fill:none}.a9-cls-19,.a9-cls-22,.a9-cls-24,.a9-cls-26,.a9-cls-27,.a9-cls-30,.a9-cls-32,.a9-cls-33{fill:none}.a9-cls-16,.a9-cls-37{fill:#28418b;stroke:none}.a9-cls-17,.a9-cls-18{fill:#787878;stroke:none}.a9-cls-19,.a9-cls-22,.a9-cls-24,.a9-cls-30,.a9-cls-32,.a9-cls-33{stroke:#c52636}.a9-cls-19,.a9-cls-22,.a9-cls-27{stroke-width:2px}.a9-cls-22{stroke-linecap:round}.a9-cls-23{fill:#fff;stroke:none}.a9-cls-26,.a9-cls-27{stroke:#28418b}.a9-cls-26{stroke-width:3px}.a9-cls-29{opacity:.6}.a9-cls-30{stroke-width:4px}.a9-cls-31{fill:#f05b85;stroke:none}.a9-cls-32,.a9-cls-33{stroke-width:1.25px}.a9-cls-34{fill:#9b9999;stroke:none}.a9-cls-35,.a9-cls-38{fill:#dbdbdc;stroke:none}.a9-cls-38{font-size:33px;fill:#28418b;font-family:ProximaNova-Semibold,Proxima Nova,sans-serif;font-weight:700}.c9-cls-1{isolation:isolate}.c9-cls-16,.c9-cls-2{fill:#c5c7c9;stroke:none}.c9-cls-2{stroke:#c5c7c9;stroke-width:5px}.c9-cls-2,.c9-cls-20,.c9-cls-21{stroke-miterlimit:10}.c9-cls-3{fill:#eeefef;stroke:none}.c9-cls-4,.c9-cls-5{fill:#fbfbfb;stroke:none}.c9-cls-5{fill:#e2e3e4}.c9-cls-17,.c9-cls-6{fill:#3c3d3d;stroke:none}.c9-cls-6{opacity:.55}.c9-cls-20,.c9-cls-21{fill:none}.c9-cls-7,.c9-cls-9{fill:none;stroke:none}.c9-cls-9{fill:#28418b}.c9-cls-10,.c9-cls-11{fill:#787878;stroke:none}.c9-cls-12,.c9-cls-13,.c9-cls-19{fill:#ffef3e;stroke:none}.c9-cls-13{fill:#fff}.c9-cls-14,.c9-cls-15{fill:#c52636;stroke:none}.c9-cls-18{opacity:.6}.c9-cls-20,.c9-cls-21{stroke:#c52636;stroke-width:1.25px}.a9-msng-cls-1{isolation:isolate}.a9-msng-cls-2{fill:#c5c7c9;stroke:#c5c7c9;stroke-width:5px}.a9-msng-cls-11,.a9-msng-cls-2{stroke-miterlimit:10}.a9-msng-cls-3{fill:#f5d7cf;stroke:none}.a9-msng-cls-4{fill:#fae8e3;stroke:none}.a9-msng-cls-5{fill:#f2c6bc;stroke:none}.a9-msng-cls-6{fill:#eeefef;stroke:none}.a9-msng-cls-7{fill:#e2e3e4;stroke:none}.a9-msng-cls-8{fill:#fbfbfb;stroke:none}.a9-msng-cls-9{font-size:15px;fill:#929497;font-family:ProximaNova-Semibold,Proxima Nova;font-weight:700;stroke:none}.a9-msng-cls-11{fill:none}.a9-msng-cls-12{fill:none;stroke:none}.a9-msng-cls-11{stroke:#787878;stroke-width:6.25px}</style></defs><g class="a9-cls-1"><g id="_9A" data-name="#9A"><path d="M46.18 116a12.79 12.79 0 0 0-3.53-6.22c-.21-9.69-1.08-21.15-2.15-32.84-2.17-23.66-5.5-46.7-8.44-46.55-2.37.12-8.74 22.85-12.65 46.76a266.43 266.43 0 0 0-3.62 33.53c-2 2.5-3.4 6-4.26 10.48-1.62 8.56-2.33 21.61 0 25.49 1.65 2.75 13.2 4.58 18.52 4.22s16.87-1.1 18.34-5-.01-21.41-2.21-29.87z" class="a9-cls-2"/><path d="M15.74 112.73c.13-9.77 1.51-22.41 3.67-35.58 3.91-23.92 10.29-46.64 12.65-46.76C35 30.24 38.33 53.28 40.5 77c1.23 13.43 2.2 26.56 2.2 37 0 3.13-27.01 2.25-26.96-1.27z" class="a9-cls-3"/><path d="M30.08 111.46l6.37.82S36.12 87 35.84 68C35.41 37.58 33 33.6 32.5 32.89s1.15 3.24.57 25.74c-.36 13.59-2.99 52.83-2.99 52.83z" class="a9-cls-4"/><path d="M21.14 76.11c1.3-10.3 2.92-20.38 4.52-28.8-2.19 8.37-4.47 19-6.25 29.84-2.16 13.16-3.54 25.81-3.67 35.58 0 .64.89 1.2 2.36 1.66a354.67 354.67 0 0 1 3.04-38.28zM40.5 77c-1.61-17.59-3.86-34.81-6.12-42.46C36 44 37.48 59.79 38.61 75.91c1 14.25 1.8 28.19 1.82 39.39 1.4-.31 2.26-.74 2.26-1.29.01-10.48-.97-23.62-2.19-37.01z" class="a9-cls-5"/><path d="M11.52 146.65c-2.33-3.88-1.62-16.93 0-25.49 2-10.64 7-15.4 16-15.59s16.5 2 18.7 10.45 3.67 26 2.2 29.89-13 4.58-18.34 5-16.91-1.51-18.56-4.26z" class="a9-cls-6"/><path d="M14.6 121.78c1-7.09 2.81-11.87 5.65-14.67-4.55 2.17-7.33 6.72-8.73 14.05-1.62 8.56-2.33 21.61 0 25.49a5.24 5.24 0 0 0 2.42 1.69c-1.09-6.02-.5-18.18.66-26.56zM46.18 116a12.35 12.35 0 0 0-7.11-8.59c2 1.85 3.51 4.57 4.25 8.5 1.66 8.72 2.82 26.07 2.09 32.42a5.06 5.06 0 0 0 3-2.44c1.44-3.82-.03-21.43-2.23-29.89z" class="a9-cls-7"/><path d="M37.46 150.2c.07-5.41 0-14.64-.56-26.65-.52-10.34-1.66-15.25-2.48-17.51a30.41 30.41 0 0 0-3.64-.42 195.66 195.66 0 0 1 1 20.27c.14 9.72-.39 19.53-.75 24.91 1.83-.12 4.11-.3 6.43-.6z" class="a9-cls-8"/><text class="a9-cls-9" transform="translate(20.49 20.51)">59</text></g><defs><g id="a59_bone_graft" data-name="bone graft"><path d="M2 23.31h55V111H2z" class="a9-cls-16" data-color-action="fill" style="fill:inherit"/><path d="M46.18 116a12.79 12.79 0 0 0-3.53-6.22c-.21-9.69-1.08-21.15-2.15-32.84-2.17-23.66-5.5-46.7-8.44-46.55-2.37.12-8.74 22.85-12.65 46.76a266.43 266.43 0 0 0-3.62 33.53c-2 2.5-3.4 6-4.26 10.48-1.62 8.56-2.33 21.61 0 25.49 1.65 2.75 13.2 4.58 18.52 4.22s16.87-1.1 18.34-5-.01-21.41-2.21-29.87z" class="a9-cls-2"/><path d="M15.74 112.73c.13-9.77 1.51-22.41 3.67-35.58 3.91-23.92 10.29-46.64 12.65-46.76C35 30.24 38.33 53.28 40.5 77c1.23 13.43 2.2 26.56 2.2 37 0 3.13-27.01 2.25-26.96-1.27z" class="a9-cls-3"/><path d="M30.08 111.46l6.37.82S36.12 87 35.84 68C35.41 37.58 33 33.6 32.5 32.89s1.15 3.24.57 25.74c-.36 13.59-2.99 52.83-2.99 52.83z" class="a9-cls-4"/><path d="M21.14 76.11c1.3-10.3 2.92-20.38 4.52-28.8-2.19 8.37-4.47 19-6.25 29.84-2.16 13.16-3.54 25.81-3.67 35.58 0 .64.89 1.2 2.36 1.66a354.67 354.67 0 0 1 3.04-38.28zM40.5 77c-1.61-17.59-3.86-34.81-6.12-42.46C36 44 37.48 59.79 38.61 75.91c1 14.25 1.8 28.19 1.82 39.39 1.4-.31 2.26-.74 2.26-1.29.01-10.48-.97-23.62-2.19-37.01z" class="a9-cls-5"/><path d="M11.52 146.65c-2.33-3.88-1.62-16.93 0-25.49 2-10.64 7-15.4 16-15.59s16.5 2 18.7 10.45 3.67 26 2.2 29.89-13 4.58-18.34 5-16.91-1.51-18.56-4.26z" class="a9-cls-6"/><path d="M14.6 121.78c1-7.09 2.81-11.87 5.65-14.67-4.55 2.17-7.33 6.72-8.73 14.05-1.62 8.56-2.33 21.61 0 25.49a5.24 5.24 0 0 0 2.42 1.69c-1.09-6.02-.5-18.18.66-26.56zM46.18 116a12.35 12.35 0 0 0-7.11-8.59c2 1.85 3.51 4.57 4.25 8.5 1.66 8.72 2.82 26.07 2.09 32.42a5.06 5.06 0 0 0 3-2.44c1.44-3.82-.03-21.43-2.23-29.89z" class="a9-cls-7"/><path d="M37.46 150.2c.07-5.41 0-14.64-.56-26.65-.52-10.34-1.66-15.25-2.48-17.51a30.41 30.41 0 0 0-3.64-.42 195.66 195.66 0 0 1 1 20.27c.14 9.72-.39 19.53-.75 24.91 1.83-.12 4.11-.3 6.43-.6z" class="a9-cls-8"/></g><g id="a59_splinted_crowns" data-name="splinted crowns"><path d="M2 102.57h55v7.67H2z" class="a9-cls-21" transform="rotate(-180 29.5 106.405)" data-color-action="fill" style="fill:inherit"/><path d="M46.18 116a12.79 12.79 0 0 0-3.53-6.22c-.21-9.69-1.08-21.15-2.15-32.84-2.17-23.66-5.5-46.7-8.44-46.55-2.37.12-8.74 22.85-12.65 46.76a266.43 266.43 0 0 0-3.62 33.53c-2 2.5-3.4 6-4.26 10.48-1.62 8.56-2.33 21.61 0 25.49 1.65 2.75 13.2 4.58 18.52 4.22s16.87-1.1 18.34-5-.01-21.41-2.21-29.87z" class="a9-cls-2"/><path d="M15.74 112.73c.13-9.77 1.51-22.41 3.67-35.58 3.91-23.92 10.29-46.64 12.65-46.76C35 30.24 38.33 53.28 40.5 77c1.23 13.43 2.2 26.56 2.2 37 0 3.13-27.01 2.25-26.96-1.27z" class="a9-cls-3"/><path d="M30.08 111.46l6.37.82S36.12 87 35.84 68C35.41 37.58 33 33.6 32.5 32.89s1.15 3.24.57 25.74c-.36 13.59-2.99 52.83-2.99 52.83z" class="a9-cls-4"/><path d="M21.14 76.11c1.3-10.3 2.92-20.38 4.52-28.8-2.19 8.37-4.47 19-6.25 29.84-2.16 13.16-3.54 25.81-3.67 35.58 0 .64.89 1.2 2.36 1.66a354.67 354.67 0 0 1 3.04-38.28zM40.5 77c-1.61-17.59-3.86-34.81-6.12-42.46C36 44 37.48 59.79 38.61 75.91c1 14.25 1.8 28.19 1.82 39.39 1.4-.31 2.26-.74 2.26-1.29.01-10.48-.97-23.62-2.19-37.01z" class="a9-cls-5"/><path d="M11.52 146.65c-2.33-3.88-1.62-16.93 0-25.49 2-10.64 7-15.4 16-15.59s16.5 2 18.7 10.45 3.67 26 2.2 29.89-13 4.58-18.34 5-16.91-1.51-18.56-4.26z" class="a9-cls-6"/><path d="M14.6 121.78c1-7.09 2.81-11.87 5.65-14.67-4.55 2.17-7.33 6.72-8.73 14.05-1.62 8.56-2.33 21.61 0 25.49a5.24 5.24 0 0 0 2.42 1.69c-1.09-6.02-.5-18.18.66-26.56zM46.18 116a12.35 12.35 0 0 0-7.11-8.59c2 1.85 3.51 4.57 4.25 8.5 1.66 8.72 2.82 26.07 2.09 32.42a5.06 5.06 0 0 0 3-2.44c1.44-3.82-.03-21.43-2.23-29.89z" class="a9-cls-7"/><path d="M37.46 150.2c.07-5.41 0-14.64-.56-26.65-.52-10.34-1.66-15.25-2.48-17.51a30.41 30.41 0 0 0-3.64-.42 195.66 195.66 0 0 1 1 20.27c.14 9.72-.39 19.53-.75 24.91 1.83-.12 4.11-.3 6.43-.6z" class="a9-cls-8"/></g><path id="a59_mesial_incisal" d="M10.72 144.54a7.8 7.8 0 0 0 .8 2.11c.89 1.48 4.66 2.7 8.78 3.46l.9-2.74c-4.2-.57-8.46-1.57-10.48-2.83z" class="a9-cls-10" data-color-action="fill" style="fill:inherit" data-name="mesial incisal"/><path id="a59_central_incisal" d="M30.1 147.87a49.4 49.4 0 0 1-8.88-.49l-.9 2.74a44.3 44.3 0 0 0 9.73.76c2.15-.15 5.33-.36 8.43-.8l-1-2.78c-2.78.29-5.48.45-7.38.57z" class="a9-cls-10" data-color-action="fill" style="fill:inherit" data-name="central incisal"/><path id="a59_distal_incisal" d="M38.47 150.07c4.58-.67 9-1.86 9.91-4.15a7.17 7.17 0 0 0 .32-1.38c-2.4 1.49-6.94 2.28-11.23 2.74z" class="a9-cls-10" data-color-action="fill" style="fill:inherit" data-name="distal incisal"/><path id="a59_mesial" d="M10.21 141.24l8.44-4.1a21.8 21.8 0 0 1-1.56-6.14c-.44-2.7-3.69-3.9-6.39-4.44a74.35 74.35 0 0 0-.49 14.68z" class="a9-cls-10" data-color-action="fill" style="fill:inherit"/><path id="a59_line_angle_2" d="M23.65 140c-.7-.07-1.33-.14-1.85-.23a4.33 4.33 0 0 1-3.15-2.64l-8.44 4.1a22.23 22.23 0 0 0 .51 3.3c2 1.26 6.24 2.26 10.49 2.84z" class="a9-cls-10" data-color-action="fill" style="fill:inherit" data-name="line angle 2"/><path id="a59_facial" d="M30.1 147.87c1.93-.12 4.6-.28 7.38-.58l-2.67-7.48a57 57 0 0 1-11.16.2l-2.44 7.36a49.4 49.4 0 0 0 8.89.5z" class="a9-cls-10" data-color-action="fill" style="fill:inherit"/><path id="a59_line_angle_1" d="M41.17 136.81a4.26 4.26 0 0 1-2.68 2.19 18.66 18.66 0 0 1-3.68.79l2.67 7.48c4.29-.46 8.82-1.26 11.23-2.74a31.55 31.55 0 0 0 .29-4.43z" class="a9-cls-10" data-color-action="fill" style="fill:inherit" data-name="line angle 1"/><path id="a59_distal" d="M41.17 136.81L49 140.1a115.94 115.94 0 0 0-1-13.51c-2.34.26-5.23 1.05-5.76 3.33-.55 2.59-.24 5.08-1.07 6.89z" class="a9-cls-10" data-color-action="fill" style="fill:inherit"/><ellipse id="a59_mid_facial" cx="28.92" cy="126.93" class="a9-cls-10" rx="4.85" ry="9.95" data-color-action="fill" style="fill:inherit" data-name="mid facial"/><path id="a59_facial_V" d="M18.44 108.17a15.71 15.71 0 0 0 10.35 3.7 15.56 15.56 0 0 0 10.86-4.16c-3.31-1.69-7.55-2.23-12.17-2.13a15.83 15.83 0 0 0-9.04 2.59z" class="a9-cls-10" data-color-action="fill" style="fill:inherit" data-name="facial V"/><path id="a59_veneer" d="M11.52 146.65c-2.33-3.88-1.62-16.93 0-25.49 2-10.64 7-15.4 16-15.59s16.5 2 18.7 10.45 3.67 26 2.2 29.89-13 4.58-18.34 5-16.91-1.51-18.56-4.26z" class="a9-cls-12 a9-cls-13" data-color-action="fill" style="fill:inherit"/><path id="a59_tissue_graft" d="M12.03 91.65l17.47 13.89 17.47-13.89H12.03z" class="a9-cls-14" data-color-action="fill" style="fill:inherit" data-name="tissue graft"/><path id="a59_tipped_lingual" d="M28 3.25h3v3h-3z" class="a9-cls-15" transform="rotate(-180 29.5 4.75)" data-name="tipped lingual"/><g id="a59_tipped_facial" class="a9-cls-12" data-name="tipped facial"><path d="M33.15 154.5c-1.26 3.37-4.74 3.85-7.69-5.32-.5-1.56-4.42-1.76-3.84 0 2 6.08 5.31 10.2 9.06 9.27a4.86 4.86 0 0 0 3-3.38 4.48 4.48 0 0 1-.53-.57z" class="a9-cls-16" data-color-action="fill" style="fill:inherit"/><path d="M31.07 151.58H18.13l2.94-9.64 10 9.64z" class="a9-cls-16" data-color-action="fill" style="fill:inherit"/></g><path id="a59_surface_restoration_incisal" d="M11.87 147.08l5.49-4.91a40.34 40.34 0 0 0 11.2 1.73h1.27c6.94-.48 10.39-1.09 12.08-1.63l5.5 5c-3.25 2.74-12.7 3.34-17.36 3.66-5.05.29-15.67-1.34-18.18-3.85z" class="a9-cls-17" data-color-action="fill" style="fill:inherit" data-name="surface restoration incisal"/><path id="a59_surface_restoration_distal" d="M41.93 142.23c.23-3.77-.56-17-1.78-26a11.45 11.45 0 0 0 6.79 3.19c1.75 9.07 2.73 23.1 1.44 26.49a3.21 3.21 0 0 1-1 1.29l-5.5-5z" class="a9-cls-17" data-color-action="fill" style="fill:inherit" data-name="surface restoration distal"/><path id="a59_surface_restoration_facial" d="M22 108.75a14.92 14.92 0 0 0 14.79.56 11.47 11.47 0 0 0 3.41 6.93c1.22 9 2 22.22 1.78 26-1.68.54-5.12 1.16-12.11 1.64H28.6a40.34 40.34 0 0 1-11.2-1.73c-.53-3-.8-16.7.26-25.16a11.47 11.47 0 0 0 4.34-8.24z" class="a9-cls-12 a9-cls-18" data-color-action="fill" style="fill:inherit" data-name="surface restoration facial"/><path id="a59_surface_restoration_facial_V" d="M22 108.75V108a11.54 11.54 0 0 0-.11-1.52 18.78 18.78 0 0 1 5.59-.91 31 31 0 0 1 9.28 1 10.7 10.7 0 0 0 0 2.7 14.92 14.92 0 0 1-14.76-.52z" class="a9-cls-12 a9-cls-18" data-color-action="fill" style="fill:inherit" data-name="surface restoration facial V"/><path id="a59_surface_restoration_mesial" d="M11.52 146.65c-2.33-3.88-1.62-16.93 0-25.49.12-.61.24-1.19.38-1.76a11.43 11.43 0 0 0 5.71-2.4c-1.06 8.45-.79 22.1-.26 25.15l-5.49 4.91a2.28 2.28 0 0 1-.34-.41z" class="a9-cls-17" data-color-action="fill" style="fill:inherit" data-name="surface restoration mesial"/><g id="a59_supra-erupted" class="a9-cls-12"><path d="M29.5 98.87V91.2" class="a9-cls-19" data-color-action="stroke" style="stroke:inherit"/><path d="M33.49 97.71l-3.99 6.9-3.99-6.9h7.98z" class="a9-cls-20" data-color-action="fill" style="fill:inherit"/></g><g id="a59_sub-erupted" class="a9-cls-12"><path d="M29.5 96.94v7.67" class="a9-cls-19" data-color-action="stroke" style="stroke:inherit"/><path d="M25.51 98.11l3.99-6.91 3.99 6.91h-7.98z" class="a9-cls-20" data-color-action="fill" style="fill:inherit"/></g><text id="a59_sealant" class="a9-cls-38" transform="translate(19.7 200.47)" data-color-action="fill" style="fill:inherit">S</text><g id="a59_rotated_mesial" class="a9-cls-12" data-name="rotated mesial"><path d="M53.13 128.18c3 1.79 2.3 5.46-10.23 5.81-5.3.15-8.95 0-8.95 0l.07 3s1 .07 8.22-.24c7.62-.32 14-1.83 13.75-6a4 4 0 0 0-2.31-2.92c-.17.17-.42.28-.55.35z" class="a9-cls-16" data-color-action="fill" style="fill:inherit"/><path d="M40.43 129.47v11.89l-10.4-5.9 10.4-5.99z" class="a9-cls-16" data-color-action="fill" style="fill:inherit"/></g><g id="a59_rotated_distal" class="a9-cls-12" data-name="rotated distal"><path d="M5.87 128.18c-3 1.79-2.3 5.46 10.23 5.81 5.3.15 8.95 0 8.95 0L25 137s-1 .07-8.22-.24c-7.62-.32-14-1.83-13.75-6a4 4 0 0 1 2.31-2.92c.15.16.4.27.53.34z" class="a9-cls-16" data-color-action="fill" style="fill:inherit"/><path d="M18.57 129.47v11.89l10.4-5.9-10.4-5.99z" class="a9-cls-16" data-color-action="fill" style="fill:inherit"/></g><circle id="a59_root_decay" cx="31.25" cy="52.62" r="4.33" class="a9-cls-12 a9-cls-18" data-color-action="fill" style="fill:inherit" data-name="root decay"/><path id="a59_root_canal" d="M32.17 36.33L29.33 102" class="a9-cls-22" data-color-action="stroke" style="stroke:inherit" data-name="root canal"/><path id="a59_root_abrasion" d="M28.79 46.66h3.5v13.83h-3.5z" class="a9-cls-12 a9-cls-24" transform="rotate(-180 30.54 53.575)" data-color-action="stroke" style="stroke:inherit" data-name="root abrasion"/><g id="a59_post"><path d="M28.35 82.39h3.14v41.77h-3.14z" class="a9-cls-18" transform="rotate(-180 29.925 103.27)" data-color-action="fill" style="fill:inherit"/><path d="M30.16 82.39h.47v41.77h-.47z" class="a9-cls-25" transform="rotate(-180 30.4 103.27)"/></g><g id="a59_pins"><path d="M31.26 93.72h2.42v23.43h-2.42z" class="a9-cls-18" transform="rotate(-180 32.465 105.435)" data-color-action="fill" style="fill:inherit"/><path d="M32.65 93.72h.36v23.43h-.36z" class="a9-cls-25" transform="rotate(-180 32.83 105.435)"/><path d="M26.68 93.72h2.42v23.43h-2.42z" class="a9-cls-18" transform="rotate(-180 27.885 105.435)" data-color-action="fill" style="fill:inherit"/><path d="M28.07 93.72h.36v23.43h-.36z" class="a9-cls-25" transform="rotate(-180 28.25 105.435)"/></g><path id="a59_open_contact_mesial" d="M24.31 100.99l-7.5 4.75-7.5-4.75" class="a9-cls-26" data-color-action="stroke" style="stroke:inherit" data-name="open contact mesial"/><path id="a59_open_contact_distal" d="M49.33 100.99l-7.5 4.75-7.5-4.75" class="a9-cls-26" data-color-action="stroke" style="stroke:inherit" data-name="open contact distal"/><g id="a59_mesial_drift" class="a9-cls-12" data-name="mesial drift"><path d="M26.41 131.16h11.92" class="a9-cls-27" data-color-action="stroke" style="stroke:inherit"/><path d="M27.57 135.15l-6.9-3.99 6.9-3.99v7.98z" class="a9-cls-16" data-color-action="fill" style="fill:inherit"/></g><path id="a59_lingual_abfraction" d="M28 3.25h3v3h-3z" class="a9-cls-15" transform="rotate(-180 29.5 4.75)" data-name="lingual abfraction"/><ellipse id="a59_internal_root_resorption" cx="30.97" cy="63.76" class="a9-cls-12 a9-cls-20" rx="9.84" ry="3.98" transform="rotate(-86.81 30.965 63.76)" data-color-action="fill" style="fill:inherit" data-name="internal root resorption"/><g id="a59_impacted_mesial" class="a9-cls-12" data-name="impacted mesial"><ellipse cx="29.5" cy="91.71" class="a9-cls-27" rx="24.15" ry="67.88" data-color-action="stroke" style="stroke:inherit"/><path d="M40.91 91.71h12.76" class="a9-cls-27" data-color-action="stroke" style="stroke:inherit"/><path d="M42.08 95.7l-6.91-3.98 6.91-3.99v7.97z" class="a9-cls-16" data-color-action="fill" style="fill:inherit"/></g><g id="a59_impacted_distal" class="a9-cls-12" data-name="impacted distal"><ellipse cx="29.51" cy="91.71" class="a9-cls-27" rx="24.15" ry="67.88" data-color-action="stroke" style="stroke:inherit"/><path d="M18.11 91.71H5.35" class="a9-cls-27" data-color-action="stroke" style="stroke:inherit"/><path d="M16.94 87.73l6.91 3.99-6.91 3.98v-7.97z" class="a9-cls-16" data-color-action="fill" style="fill:inherit"/></g><path id="a59_gortex_membranes" d="M2 93.83h55v16.42H2z" class="a9-cls-14" transform="rotate(-180 29.5 102.035)" data-color-action="fill" style="fill:inherit" data-name="gortex membranes"/><path id="a59_frenum_pull" d="M40.49 104.58l-10.65-6.75-10.66 6.75" class="a9-cls-30" data-color-action="stroke" style="stroke:inherit" data-name="frenum pull"/><path id="a59_external_root_resorption" d="M19.23 78.27A10.4 10.4 0 0 0 25.67 70a11.76 11.76 0 0 0-3-9.87c-1.16 5.4-2.26 11.18-3.22 17zM33.94 68c.78 6.84 5 9 6.61 9.56L40.5 77c-.6-6.59-1.3-13.14-2-19.14-1.5.67-5.35 3.19-4.56 10.14z" class="a9-cls-12 a9-cls-20" data-color-action="fill" style="fill:inherit" data-name="external root resorption"/><g id="a59_distal_drift" class="a9-cls-12" data-name="distal drift"><path d="M32.59 131.16H20.67" class="a9-cls-27" data-color-action="stroke" style="stroke:inherit"/><path d="M31.43 127.17l6.9 3.99-6.9 3.99v-7.98z" class="a9-cls-16" data-color-action="fill" style="fill:inherit"/></g><path id="a59_three_quarter_crown" d="M10.43 129.07c-.68 7.21-.59 14.78 1.09 17.59s13.2 4.58 18.52 4.22 16.87-1.1 18.34-5c.88-2.31.7-9.58-.06-16.85z" class="a9-cls-12 a9-cls-13" data-color-action="fill" style="fill:inherit" data-name="three quarter crown"/><path id="a59_crown" d="M11.52 146.65c-2.33-3.88-1.62-16.93 0-25.49 2-10.64 7-15.4 16-15.59s16.5 2 18.7 10.45 3.67 26 2.2 29.89-13 4.58-18.34 5-16.91-1.51-18.56-4.26z" class="a9-cls-21" data-color-action="fill" style="fill:inherit"/><path id="a59_cracked_surface_incisal" d="M28.17 142.84l3.84 3.83H27l5 4.74h-5l3.83 3.83" class="a9-cls-32" data-color-action="stroke" style="stroke:inherit" data-name="cracked surface incisal"/><path id="a59_cracked_surface_distal" d="M41.34 123.82l3.83 3.83h-5.01l5.01 4.75h-5.01l3.83 3.83" class="a9-cls-32" data-color-action="stroke" style="stroke:inherit" data-name="cracked surface distal"/><path id="a59_cracked_surface_facial" d="M28.17 123.82l3.84 3.83H27l5 4.75h-5l3.83 3.83" class="a9-cls-32" data-color-action="stroke" style="stroke:inherit" data-name="cracked surface facial"/><path id="a59_cracked_surface_facial_V" d="M28.17 123.82l3.84 3.83H27l5 4.75h-5l3.83 3.83" class="a9-cls-32" data-color-action="stroke" style="stroke:inherit" data-name="cracked surface facial V"/><path id="a59_cracked_surface_mesial" d="M13.34 123.82l3.83 3.83h-5l5 4.75h-5l3.83 3.83" class="a9-cls-32" data-color-action="stroke" style="stroke:inherit" data-name="cracked surface mesial"/><g id="a59_chipped_surface_incisal" class="a9-cls-12" data-name="chipped surface incisal"><path d="M25.67 144.51l8.33 8.33M34 144.51l-8.33 8.33" class="a9-cls-33" data-color-action="stroke" style="stroke:inherit"/></g><g id="a59_chipped_surface_distal" class="a9-cls-12" data-name="chipped surface distal"><path d="M37.83 125.49l8.33 8.34M46.16 125.49l-8.33 8.34" class="a9-cls-33" data-color-action="stroke" style="stroke:inherit"/></g><g id="a59_chipped_surface_facial" class="a9-cls-12" data-name="chipped surface facial"><path d="M25.67 125.49l8.33 8.34M34 125.49l-8.33 8.34" class="a9-cls-33" data-color-action="stroke" style="stroke:inherit"/></g><g id="a59_chipped_surface_facial_V" class="a9-cls-12" data-name="chipped surface facial V"><path d="M25.67 125.49l8.33 8.34M34 125.49l-8.33 8.34" class="a9-cls-33" data-color-action="stroke" style="stroke:inherit"/></g><g id="a59_chipped_surface_mesial" class="a9-cls-12" data-name="chipped surface mesial"><path d="M11.67 125.49l8.33 8.34M20 125.49l-8.33 8.34" class="a9-cls-33" data-color-action="stroke" style="stroke:inherit"/></g><path id="a59_buccal_abfraction" d="M16.81 106.74s5.61 4.42 12.53 4.42 12.53-4.42 12.53-4.42-5.61-4.42-12.53-4.42-12.53 4.42-12.53 4.42z" class="a9-cls-14" data-color-action="fill" style="fill:inherit" data-name="buccal abfraction"/><g id="a59_braces"><path d="M22.96 120.97h13.45v18.19H22.96z" class="a9-cls-25" transform="rotate(-180 29.69 130.06)"/><path d="M22.96 138.48h13.45v.68H22.96z" class="a9-cls-34" transform="rotate(-180 29.69 138.815)" data-color-action="fill" style="fill:inherit"/><path d="M22.96 130.21h13.45v1.36H22.96z" class="a9-cls-34" transform="rotate(-180 29.69 130.89)" data-color-action="fill" style="fill:inherit"/><path d="M22.96 120.97h13.45v.89H22.96z" class="a9-cls-35" transform="rotate(-180 29.69 121.41)" data-color-action="fill" style="fill:inherit"/><rect width="4.11" height="7.94" x="32.59" y="120.99" class="a9-cls-28" rx=".49" ry=".49" transform="rotate(-180 34.64 124.96)" data-color-action="fill" style="fill:inherit"/><path d="M33.08 121h3.13a.49.49 0 0 1 .49.49v5.83a13.14 13.14 0 0 1-4.11 0v-5.83a.49.49 0 0 1 .49-.49z" class="a9-cls-18" data-color-action="fill" style="fill:inherit"/><path d="M32.92 122.39v-1.11a.16.16 0 0 1 .16-.16h3.13a.16.16 0 0 1 .16.16v1.11z" class="a9-cls-25"/><rect width="4.11" height="7.94" x="22.67" y="120.99" class="a9-cls-28" rx=".49" ry=".49" transform="rotate(-180 24.725 124.96)" data-color-action="fill" style="fill:inherit"/><path d="M23.16 121h3.13a.49.49 0 0 1 .49.49v5.83a13.14 13.14 0 0 1-4.11 0v-5.83a.49.49 0 0 1 .49-.49z" class="a9-cls-18" data-color-action="fill" style="fill:inherit"/><path d="M23 122.39v-1.11a.16.16 0 0 1 .16-.16h3.13a.16.16 0 0 1 .16.16v1.11z" class="a9-cls-25"/><rect width="4.11" height="7.94" x="32.59" y="131.27" class="a9-cls-28" rx=".49" ry=".49" transform="rotate(-180 34.64 135.24)" data-color-action="fill" style="fill:inherit"/><path d="M33.08 131.27h3.13a.49.49 0 0 1 .49.49v5.83a13.14 13.14 0 0 1-4.11 0v-5.83a.49.49 0 0 1 .49-.49z" class="a9-cls-18" data-color-action="fill" style="fill:inherit"/><path d="M32.92 132.68v-1.11a.16.16 0 0 1 .16-.16h3.13a.16.16 0 0 1 .16.16v1.11z" class="a9-cls-25"/><rect width="4.11" height="7.94" x="22.67" y="131.27" class="a9-cls-28" rx=".49" ry=".49" transform="rotate(-180 24.725 135.24)" data-color-action="fill" style="fill:inherit"/><path d="M23.16 131.27h3.13a.49.49 0 0 1 .49.49v5.83a13.14 13.14 0 0 1-4.11 0v-5.83a.49.49 0 0 1 .49-.49z" class="a9-cls-18" data-color-action="fill" style="fill:inherit"/><path d="M23 132.68v-1.11a.16.16 0 0 1 .16-.16h3.13a.16.16 0 0 1 .16.16v1.11z" class="a9-cls-25"/><path d="M8.58 129.38h42.21v1.45H8.58z" class="a9-cls-18" transform="rotate(-180 29.685 130.105)" data-color-action="fill" style="fill:inherit"/><path d="M8.58 130.58h42.21v.25H8.58z" class="a9-cls-28" transform="rotate(-180 29.685 130.705)" data-color-action="fill" style="fill:inherit"/><path d="M8.58 129.58h42.21v.4H8.58z" class="a9-cls-25" transform="rotate(-180 29.685 129.775)"/></g><path id="a59_apicoectomy" d="M22.16 26.14l7.34 11.67 7.34-11.67H22.16z" class="a9-cls-17" data-color-action="fill" style="fill:inherit"/><circle id="a59_abscess" cx="29.5" cy="31.64" r="6.5" class="a9-cls-37" data-color-action="fill" style="fill:inherit"/><g id="a59_blunted_roots" data-name="blunted roots"><path d="M2 22h55v59.99H2z" class="a9-cls-23" transform="rotate(-180 29.5 51.995)"/><path d="M2 82.08h55v2H2z" class="a9-cls-36" transform="rotate(-180 29.5 83.075)" data-color-action="fill" style="fill:inherit"/></g><path id="a59_root_amputation" d="M2 21.67h55v83.57H2z" class="a9-cls-23" transform="rotate(-180 29.5 63.45)" data-name="root amputation"/><path id="a59_missing_crown" d="M2 106.06h55v53.11H2z" class="a9-cls-23" transform="rotate(-180 29.5 132.61)" data-name="missing crown"/><g id="a59_missing_tooth" data-name="missing tooth"><path d="M46.18 116a12.79 12.79 0 0 0-3.53-6.22c-.21-9.69-1.08-21.15-2.15-32.84-2.17-23.66-5.5-46.7-8.44-46.55-2.37.12-8.74 22.85-12.65 46.76a266.43 266.43 0 0 0-3.62 33.53c-2 2.5-3.4 6-4.26 10.48-1.62 8.56-2.33 21.61 0 25.49 1.65 2.75 13.2 4.58 18.52 4.22s16.87-1.1 18.34-5-.01-21.41-2.21-29.87z" class="a9-cls-2"/><path d="M15.74 112.73c.13-9.77 1.51-22.41 3.67-35.58 3.91-23.92 10.29-46.64 12.65-46.76C35 30.24 38.33 53.28 40.5 77c1.23 13.43 2.2 26.56 2.2 37 0 3.13-27.01 2.25-26.96-1.27z" class="a9-cls-23"/><path d="M30.08 111.46l6.37.82S36.12 87 35.84 68C35.41 37.58 33 33.6 32.5 32.89s1.15 3.24.57 25.74c-.36 13.59-2.99 52.83-2.99 52.83zM21.14 76.11c1.3-10.3 2.92-20.38 4.52-28.8-2.19 8.37-4.47 19-6.25 29.84-2.16 13.16-3.54 25.81-3.67 35.58 0 .64.89 1.2 2.36 1.66a354.67 354.67 0 0 1 3.04-38.28zM40.5 77c-1.61-17.59-3.86-34.81-6.12-42.46C36 44 37.48 59.79 38.61 75.91c1 14.25 1.8 28.19 1.82 39.39 1.4-.31 2.26-.74 2.26-1.29.01-10.48-.97-23.62-2.19-37.01z" class="a9-cls-23"/><path d="M11.52 146.65c-2.33-3.88-1.62-16.93 0-25.49 2-10.64 7-15.4 16-15.59s16.5 2 18.7 10.45 3.67 26 2.2 29.89-13 4.58-18.34 5-16.91-1.51-18.56-4.26z" class="a9-cls-23"/><path d="M14.6 121.78c1-7.09 2.81-11.87 5.65-14.67-4.55 2.17-7.33 6.72-8.73 14.05-1.62 8.56-2.33 21.61 0 25.49a5.24 5.24 0 0 0 2.42 1.69c-1.09-6.02-.5-18.18.66-26.56zM46.18 116a12.35 12.35 0 0 0-7.11-8.59c2 1.85 3.51 4.57 4.25 8.5 1.66 8.72 2.82 26.07 2.09 32.42a5.06 5.06 0 0 0 3-2.44c1.44-3.82-.03-21.43-2.23-29.89zM37.46 150.2c.07-5.41 0-14.64-.56-26.65-.52-10.34-1.66-15.25-2.48-17.51a30.41 30.41 0 0 0-3.64-.42 195.66 195.66 0 0 1 1 20.27c.14 9.72-.39 19.53-.75 24.91 1.83-.12 4.11-.3 6.43-.6z" class="a9-cls-23"/></g><g id="a59_extracted_tooth" class="a9-msng-cls-10" data-name="extracted tooth"><path d="M9 108.83l41.67 41.66M50.67 108.83L9 150.49" class="a9-msng-cls-11" data-color-action="stroke" style="stroke:inherit"/></g><g id="a59_denture"><path d="M2 23.16h55v135.01H2z" class="a9-cls-23"/><path d="M57 100.22A22.63 22.63 0 0 0 44.78 97c-7.64 0-10 3.22-15.79 3.22S19.15 97 13.2 97A24.26 24.26 0 0 0 2 100.22v57.94h55z" class="a9-cls-31" data-color-action="fill" style="fill:inherit"/><path d="M11.52 146.65c-2.33-3.88-1.62-16.93 0-25.49 2-10.64 7-15.4 16-15.59s16.5 2 18.7 10.45 3.67 26 2.2 29.89-13 4.58-18.34 5-16.91-1.51-18.56-4.26z" class="a9-cls-2"/><path d="M11.52 146.65c-2.33-3.88-1.62-16.93 0-25.49 2-10.64 7-15.4 16-15.59s16.5 2 18.7 10.45 3.67 26 2.2 29.89-13 4.58-18.34 5-16.91-1.51-18.56-4.26z" class="a9-cls-6"/><path d="M14.6 121.78c1-7.09 2.81-11.87 5.65-14.67-4.55 2.17-7.33 6.72-8.73 14.05-1.62 8.56-2.33 21.61 0 25.49a5.24 5.24 0 0 0 2.42 1.69c-1.09-6.02-.5-18.18.66-26.56zM46.18 116a12.35 12.35 0 0 0-7.11-8.59c2 1.85 3.51 4.57 4.25 8.5 1.66 8.72 2.82 26.07 2.09 32.42a5.06 5.06 0 0 0 3-2.44c1.44-3.82-.03-21.43-2.23-29.89z" class="a9-cls-7"/><path d="M37.46 150.2c.07-5.41 0-14.64-.56-26.65-.52-10.34-1.66-15.25-2.48-17.51a30.41 30.41 0 0 0-3.64-.42 195.66 195.66 0 0 1 1 20.27c.14 9.72-.39 19.53-.75 24.91 1.83-.12 4.11-.3 6.43-.6z" class="a9-cls-8"/></g><g id="a59_maryland_bridge_pontic" class="a9-cls-12" data-name="maryland bridge pontic"><path d="M2 126.33h55V134H2z" class="a9-cls-20" transform="rotate(-180 29.5 130.16)" data-color-action="fill" style="fill:inherit"/><path d="M11.52 146.65c-2.33-3.88-1.62-16.93 0-25.49 2-10.64 7-15.4 16-15.59s16.5 2 18.7 10.45 3.67 26 2.2 29.89-13 4.58-18.34 5-16.91-1.51-18.56-4.26z" class="a9-cls-20" data-color-action="fill" style="fill:inherit"/></g><g id="a59_maryland_bridge_abutment_mesial" data-name="maryland bridge abutment mesial"><path d="M2 126.33h34.98V134H2z" class="a9-cls-12 a9-cls-20" transform="rotate(-180 19.49 130.16)" data-color-action="fill" style="fill:inherit"/><path d="M46.18 116a12.79 12.79 0 0 0-3.53-6.22c-.21-9.69-1.08-21.15-2.15-32.84-2.17-23.66-5.5-46.7-8.44-46.55-2.37.12-8.74 22.85-12.65 46.76a266.43 266.43 0 0 0-3.62 33.53c-2 2.5-3.4 6-4.26 10.48-1.62 8.56-2.33 21.61 0 25.49 1.65 2.75 13.2 4.58 18.52 4.22s16.87-1.1 18.34-5-.01-21.41-2.21-29.87z" class="a9-cls-2"/><path d="M15.74 112.73c.13-9.77 1.51-22.41 3.67-35.58 3.91-23.92 10.29-46.64 12.65-46.76C35 30.24 38.33 53.28 40.5 77c1.23 13.43 2.2 26.56 2.2 37 0 3.13-27.01 2.25-26.96-1.27z" class="a9-cls-3"/><path d="M30.08 111.46l6.37.82S36.12 87 35.84 68C35.41 37.58 33 33.6 32.5 32.89s1.15 3.24.57 25.74c-.36 13.59-2.99 52.83-2.99 52.83z" class="a9-cls-4"/><path d="M21.14 76.11c1.3-10.3 2.92-20.38 4.52-28.8-2.19 8.37-4.47 19-6.25 29.84-2.16 13.16-3.54 25.81-3.67 35.58 0 .64.89 1.2 2.36 1.66a354.67 354.67 0 0 1 3.04-38.28zM40.5 77c-1.61-17.59-3.86-34.81-6.12-42.46C36 44 37.48 59.79 38.61 75.91c1 14.25 1.8 28.19 1.82 39.39 1.4-.31 2.26-.74 2.26-1.29.01-10.48-.97-23.62-2.19-37.01z" class="a9-cls-5"/><path d="M11.52 146.65c-2.33-3.88-1.62-16.93 0-25.49 2-10.64 7-15.4 16-15.59s16.5 2 18.7 10.45 3.67 26 2.2 29.89-13 4.58-18.34 5-16.91-1.51-18.56-4.26z" class="a9-cls-6"/><path d="M14.6 121.78c1-7.09 2.81-11.87 5.65-14.67-4.55 2.17-7.33 6.72-8.73 14.05-1.62 8.56-2.33 21.61 0 25.49a5.24 5.24 0 0 0 2.42 1.69c-1.09-6.02-.5-18.18.66-26.56zM46.18 116a12.35 12.35 0 0 0-7.11-8.59c2 1.85 3.51 4.57 4.25 8.5 1.66 8.72 2.82 26.07 2.09 32.42a5.06 5.06 0 0 0 3-2.44c1.44-3.82-.03-21.43-2.23-29.89z" class="a9-cls-7"/><path d="M37.46 150.2c.07-5.41 0-14.64-.56-26.65-.52-10.34-1.66-15.25-2.48-17.51a30.41 30.41 0 0 0-3.64-.42 195.66 195.66 0 0 1 1 20.27c.14 9.72-.39 19.53-.75 24.91 1.83-.12 4.11-.3 6.43-.6z" class="a9-cls-8"/></g><g id="a59_maryland_bridge_abutment_distal" data-name="maryland bridge abutment distal"><path d="M22.02 126.33H57V134H22.02z" class="a9-cls-12 a9-cls-20" transform="rotate(-180 39.51 130.16)" data-color-action="fill" style="fill:inherit"/><path d="M46.18 116a12.79 12.79 0 0 0-3.53-6.22c-.21-9.69-1.08-21.15-2.15-32.84-2.17-23.66-5.5-46.7-8.44-46.55-2.37.12-8.74 22.85-12.65 46.76a266.43 266.43 0 0 0-3.62 33.53c-2 2.5-3.4 6-4.26 10.48-1.62 8.56-2.33 21.61 0 25.49 1.65 2.75 13.2 4.58 18.52 4.22s16.87-1.1 18.34-5-.01-21.41-2.21-29.87z" class="a9-cls-2"/><path d="M15.74 112.73c.13-9.77 1.51-22.41 3.67-35.58 3.91-23.92 10.29-46.64 12.65-46.76C35 30.24 38.33 53.28 40.5 77c1.23 13.43 2.2 26.56 2.2 37 0 3.13-27.01 2.25-26.96-1.27z" class="a9-cls-3"/><path d="M30.08 111.46l6.37.82S36.12 87 35.84 68C35.41 37.58 33 33.6 32.5 32.89s1.15 3.24.57 25.74c-.36 13.59-2.99 52.83-2.99 52.83z" class="a9-cls-4"/><path d="M21.14 76.11c1.3-10.3 2.92-20.38 4.52-28.8-2.19 8.37-4.47 19-6.25 29.84-2.16 13.16-3.54 25.81-3.67 35.58 0 .64.89 1.2 2.36 1.66a354.67 354.67 0 0 1 3.04-38.28zM40.5 77c-1.61-17.59-3.86-34.81-6.12-42.46C36 44 37.48 59.79 38.61 75.91c1 14.25 1.8 28.19 1.82 39.39 1.4-.31 2.26-.74 2.26-1.29.01-10.48-.97-23.62-2.19-37.01z" class="a9-cls-5"/><path d="M11.52 146.65c-2.33-3.88-1.62-16.93 0-25.49 2-10.64 7-15.4 16-15.59s16.5 2 18.7 10.45 3.67 26 2.2 29.89-13 4.58-18.34 5-16.91-1.51-18.56-4.26z" class="a9-cls-6"/><path d="M14.6 121.78c1-7.09 2.81-11.87 5.65-14.67-4.55 2.17-7.33 6.72-8.73 14.05-1.62 8.56-2.33 21.61 0 25.49a5.24 5.24 0 0 0 2.42 1.69c-1.09-6.02-.5-18.18.66-26.56zM46.18 116a12.35 12.35 0 0 0-7.11-8.59c2 1.85 3.51 4.57 4.25 8.5 1.66 8.72 2.82 26.07 2.09 32.42a5.06 5.06 0 0 0 3-2.44c1.44-3.82-.03-21.43-2.23-29.89z" class="a9-cls-7"/><path d="M37.46 150.2c.07-5.41 0-14.64-.56-26.65-.52-10.34-1.66-15.25-2.48-17.51a30.41 30.41 0 0 0-3.64-.42 195.66 195.66 0 0 1 1 20.27c.14 9.72-.39 19.53-.75 24.91 1.83-.12 4.11-.3 6.43-.6z" class="a9-cls-8"/></g><g id="a59_maryland_bridge_abutment" data-name="maryland bridge abutment"><path d="M2 126.33h55V134H2z" class="a9-cls-12 a9-cls-20" transform="rotate(-180 29.5 130.16)" data-color-action="fill" style="fill:inherit"/><path d="M46.18 116a12.79 12.79 0 0 0-3.53-6.22c-.21-9.69-1.08-21.15-2.15-32.84-2.17-23.66-5.5-46.7-8.44-46.55-2.37.12-8.74 22.85-12.65 46.76a266.43 266.43 0 0 0-3.62 33.53c-2 2.5-3.4 6-4.26 10.48-1.62 8.56-2.33 21.61 0 25.49 1.65 2.75 13.2 4.58 18.52 4.22s16.87-1.1 18.34-5-.01-21.41-2.21-29.87z" class="a9-cls-2"/><path d="M15.74 112.73c.13-9.77 1.51-22.41 3.67-35.58 3.91-23.92 10.29-46.64 12.65-46.76C35 30.24 38.33 53.28 40.5 77c1.23 13.43 2.2 26.56 2.2 37 0 3.13-27.01 2.25-26.96-1.27z" class="a9-cls-3"/><path d="M30.08 111.46l6.37.82S36.12 87 35.84 68C35.41 37.58 33 33.6 32.5 32.89s1.15 3.24.57 25.74c-.36 13.59-2.99 52.83-2.99 52.83z" class="a9-cls-4"/><path d="M21.14 76.11c1.3-10.3 2.92-20.38 4.52-28.8-2.19 8.37-4.47 19-6.25 29.84-2.16 13.16-3.54 25.81-3.67 35.58 0 .64.89 1.2 2.36 1.66a354.67 354.67 0 0 1 3.04-38.28zM40.5 77c-1.61-17.59-3.86-34.81-6.12-42.46C36 44 37.48 59.79 38.61 75.91c1 14.25 1.8 28.19 1.82 39.39 1.4-.31 2.26-.74 2.26-1.29.01-10.48-.97-23.62-2.19-37.01z" class="a9-cls-5"/><path d="M11.52 146.65c-2.33-3.88-1.62-16.93 0-25.49 2-10.64 7-15.4 16-15.59s16.5 2 18.7 10.45 3.67 26 2.2 29.89-13 4.58-18.34 5-16.91-1.51-18.56-4.26z" class="a9-cls-6"/><path d="M14.6 121.78c1-7.09 2.81-11.87 5.65-14.67-4.55 2.17-7.33 6.72-8.73 14.05-1.62 8.56-2.33 21.61 0 25.49a5.24 5.24 0 0 0 2.42 1.69c-1.09-6.02-.5-18.18.66-26.56zM46.18 116a12.35 12.35 0 0 0-7.11-8.59c2 1.85 3.51 4.57 4.25 8.5 1.66 8.72 2.82 26.07 2.09 32.42a5.06 5.06 0 0 0 3-2.44c1.44-3.82-.03-21.43-2.23-29.89z" class="a9-cls-7"/><path d="M37.46 150.2c.07-5.41 0-14.64-.56-26.65-.52-10.34-1.66-15.25-2.48-17.51a30.41 30.41 0 0 0-3.64-.42 195.66 195.66 0 0 1 1 20.27c.14 9.72-.39 19.53-.75 24.91 1.83-.12 4.11-.3 6.43-.6z" class="a9-cls-8"/></g><g id="a59_bridge_abutment_mesial" class="a9-cls-12" data-name="bridge abutment mesial"><path d="M11.52 146.65c-2.33-3.88-1.62-16.93 0-25.49 2-10.64 7-15.4 16-15.59s16.5 2 18.7 10.45 3.67 26 2.2 29.89-13 4.58-18.34 5-16.91-1.51-18.56-4.26z" class="a9-cls-18" data-color-action="fill" style="fill:inherit"/><path d="M2 127.33h34.98V135H2z" class="a9-cls-18" transform="rotate(-180 19.49 131.165)" data-color-action="fill" style="fill:inherit"/></g><g id="a59_bridge_abutment_distal" class="a9-cls-12" data-name="bridge abutment distal"><path d="M11.52 146.65c-2.33-3.88-1.62-16.93 0-25.49 2-10.64 7-15.4 16-15.59s16.5 2 18.7 10.45 3.67 26 2.2 29.89-13 4.58-18.34 5-16.91-1.51-18.56-4.26z" class="a9-cls-18" data-color-action="fill" style="fill:inherit"/><path d="M22.02 127.33H57V135H22.02z" class="a9-cls-18" transform="rotate(-180 39.51 131.165)" data-color-action="fill" style="fill:inherit"/></g><g id="a59_bridge_abutment" class="a9-cls-12" data-name="bridge abutment"><path d="M11.52 146.65c-2.33-3.88-1.62-16.93 0-25.49 2-10.64 7-15.4 16-15.59s16.5 2 18.7 10.45 3.67 26 2.2 29.89-13 4.58-18.34 5-16.91-1.51-18.56-4.26z" class="a9-cls-18" data-color-action="fill" style="fill:inherit"/><path d="M2 127.33h55V135H2z" class="a9-cls-18" transform="rotate(-180 29.5 131.165)" data-color-action="fill" style="fill:inherit"/></g><g id="a59_bridge_pontic" data-name="bridge pontic"><path d="M46.18 116a12.79 12.79 0 0 0-3.53-6.22c-.21-9.69-1.08-21.15-2.15-32.84-2.17-23.66-5.5-46.7-8.44-46.55-2.37.12-8.74 22.85-12.65 46.76a266.43 266.43 0 0 0-3.62 33.53c-2 2.5-3.4 6-4.26 10.48-1.62 8.56-2.33 21.61 0 25.49 1.65 2.75 13.2 4.58 18.52 4.22s16.87-1.1 18.34-5-.01-21.41-2.21-29.87z" class="a9-cls-2"/><path d="M15.74 112.73c.13-9.77 1.51-22.41 3.67-35.58 3.91-23.92 10.29-46.64 12.65-46.76C35 30.24 38.33 53.28 40.5 77c1.23 13.43 2.2 26.56 2.2 37 0 3.13-27.01 2.25-26.96-1.27z" class="a9-cls-23"/><path d="M30.08 111.46l6.37.82S36.12 87 35.84 68C35.41 37.58 33 33.6 32.5 32.89s1.15 3.24.57 25.74c-.36 13.59-2.99 52.83-2.99 52.83zM21.14 76.11c1.3-10.3 2.92-20.38 4.52-28.8-2.19 8.37-4.47 19-6.25 29.84-2.16 13.16-3.54 25.81-3.67 35.58 0 .64.89 1.2 2.36 1.66a354.67 354.67 0 0 1 3.04-38.28zM40.5 77c-1.61-17.59-3.86-34.81-6.12-42.46C36 44 37.48 59.79 38.61 75.91c1 14.25 1.8 28.19 1.82 39.39 1.4-.31 2.26-.74 2.26-1.29.01-10.48-.97-23.62-2.19-37.01z" class="a9-cls-23"/><path d="M11.52 146.65c-2.33-3.88-1.62-16.93 0-25.49 2-10.64 7-15.4 16-15.59s16.5 2 18.7 10.45 3.67 26 2.2 29.89-13 4.58-18.34 5-16.91-1.51-18.56-4.26z" class="a9-cls-6"/><path d="M14.6 121.78c1-7.09 2.81-11.87 5.65-14.67-4.55 2.17-7.33 6.72-8.73 14.05-1.62 8.56-2.33 21.61 0 25.49a5.24 5.24 0 0 0 2.42 1.69c-1.09-6.02-.5-18.18.66-26.56zM46.18 116a12.35 12.35 0 0 0-7.11-8.59c2 1.85 3.51 4.57 4.25 8.5 1.66 8.72 2.82 26.07 2.09 32.42a5.06 5.06 0 0 0 3-2.44c1.44-3.82-.03-21.43-2.23-29.89z" class="a9-cls-7"/><path d="M37.46 150.2c.07-5.41 0-14.64-.56-26.65-.52-10.34-1.66-15.25-2.48-17.51a30.41 30.41 0 0 0-3.64-.42 195.66 195.66 0 0 1 1 20.27c.14 9.72-.39 19.53-.75 24.91 1.83-.12 4.11-.3 6.43-.6z" class="a9-cls-8"/><g class="a9-cls-12"><path d="M11.52 146.65c-2.33-3.88-1.62-16.93 0-25.49 2-10.64 7-15.4 16-15.59s16.5 2 18.7 10.45 3.67 26 2.2 29.89-13 4.58-18.34 5-16.91-1.51-18.56-4.26z" class="a9-cls-18" data-color-action="fill" style="fill:inherit"/><path d="M2 127.33h55V135H2z" class="a9-cls-18" transform="rotate(-180 29.5 131.165)" data-color-action="fill" style="fill:inherit"/></g></g><g id="a59_implant_mini" data-name="implant mini"><path d="M1.61 22.04h55v137.17h-55z" class="a9-cls-23" transform="rotate(-180 29.115 90.625)"/><path d="M29.28 83.07h.44l1 8.49v40.84h-2.44V91.56l1-8.49z" class="a9-cls-18" data-color-action="fill" style="fill:inherit"/><path d="M29.58 83.07h.07l.4 8.49v40.84h-.37V91.56l-.1-8.49z" class="a9-cls-25"/><path d="M28.28 131.77h2.44v.63h-2.44z" class="a9-cls-28" transform="rotate(-180 29.5 132.085)" data-color-action="fill" style="fill:inherit"/><g class="a9-cls-29"><path d="M30.72 131.77l-2.44-1v.63l2.44 1v-.63zM30.72 130.32l-2.44-1v.63l2.44 1v-.63zM30.72 128.88l-2.44-1v.63l2.44 1v-.63zM30.72 127.43l-2.44-1v.63l2.44 1v-.63zM30.72 125.98l-2.44-1v.64l2.44 1v-.64zM30.72 124.54l-2.44-1v.63l2.44 1v-.63zM30.72 123.09l-2.44-1v.64l2.44 1v-.64zM30.72 121.65l-2.44-1v.63l2.44 1v-.63zM30.72 120.2l-2.44-1v.63l2.44 1.01v-.64zM30.72 118.76l-2.44-1v.63l2.44 1v-.63zM30.72 117.31l-2.44-1v.63l2.44 1v-.63zM30.72 115.87l-2.44-1v.63l2.44 1v-.63zM30.72 114.42l-2.44-1v.63l2.44 1v-.63zM30.72 112.98l-2.44-1v.63l2.44 1v-.63zM30.72 111.53l-2.44-1v.63l2.44 1v-.63zM30.72 110.08l-2.44-1v.64l2.44 1v-.64zM30.72 108.64l-2.44-1v.63l2.44 1v-.63zM30.72 107.19l-2.44-1v.64l2.44 1v-.64zM30.72 105.75l-2.44-1v.63l2.44 1v-.63zM30.72 104.3l-2.44-1v.64l2.44 1v-.64zM30.72 102.86l-2.44-1v.63l2.44 1v-.63zM30.72 101.41l-2.44-1v.63l2.44 1.01v-.64zM30.72 99.97l-2.44-1v.63l2.44 1v-.63zM30.72 98.52l-2.44-1v.63l2.44 1v-.63zM30.72 97.08l-2.44-1v.63l2.44 1v-.63zM30.72 95.63l-2.44-1v.63l2.44 1v-.63zM30.72 94.19l-2.44-1v.63l2.44 1v-.63zM30.72 92.74l-2.44-1v.63l2.44 1v-.63zM30.72 91.56l-.03-.28-2.27-.93-.07.61 2.37.97v-.37zM30.51 89.76l-1.93-.79-.07.61 2.08.85-.08-.67zM30.33 88.24l-1.58-.65-.08.61 1.74.71-.08-.67zM30.15 86.72l-1.24-.5-.07.6 1.39.57-.08-.67zM29.97 85.21l-.9-.37-.07.6 1.05.43-.08-.66zM29.8 83.69l-.57-.23-.07.6.71.29-.07-.66z" class="a9-cls-28" data-color-action="fill" style="fill:inherit"/></g><circle cx="29.5" cy="136.27" r="2.24" class="a9-cls-18" data-color-action="fill" style="fill:inherit"/><path d="M27.67 132.06h3.67v3h-3.67z" class="a9-cls-18" transform="rotate(-180 29.5 133.555)" data-color-action="fill" style="fill:inherit"/><path d="M29.96 132.06h.55v3h-.55z" class="a9-cls-25"/><path d="M30.3 137.63h.21a2.32 2.32 0 0 0 .52-1.29 2.37 2.37 0 0 0-.52-1.3H30a2 2 0 0 1 .73 1.37 1.5 1.5 0 0 1-.43 1.22z" class="a9-cls-25"/><path d="M28.28 125.7h2.44v.63h-2.44z" class="a9-cls-28" transform="rotate(-180 29.5 126.015)" data-color-action="fill" style="fill:inherit"/><path d="M26.89 132.08h5.22l-.87-5.71h-3.48l-.87 5.71z" class="a9-cls-18" data-color-action="fill" style="fill:inherit"/><path d="M30.15 132.08h.79l-.48-5.71h-.53l.22 5.71z" class="a9-cls-25"/></g><g id="a59_implant_cylinder" data-name="implant cylinder"><path d="M2 22h55v137.17H2z" class="a9-cls-23" transform="rotate(-180 29.5 90.585)"/><path d="M26.17 86.01h6.67v49.33h-6.67z" class="a9-cls-18" transform="rotate(-180 29.5 110.68)" data-color-action="fill" style="fill:inherit"/><path d="M24.5 135.35h10v3h-10z" class="a9-cls-18" transform="rotate(-180 29.5 136.845)" data-color-action="fill" style="fill:inherit"/><path d="M30 86.01h1v49.33h-1z" class="a9-cls-25" transform="rotate(-180 30.5 110.68)"/><path d="M30.75 135.35h1.5v3h-1.5z" class="a9-cls-25" transform="rotate(-180 31.5 136.845)"/><path d="M24.5 82.99h10v3h-10z" class="a9-cls-18" transform="rotate(-180 29.5 84.485)" data-color-action="fill" style="fill:inherit"/><path d="M30.75 82.99h1.5v3h-1.5z" class="a9-cls-25" transform="rotate(-180 31.5 84.485)"/><path d="M26.17 134.71h6.67v.63h-6.67z" class="a9-cls-28" transform="rotate(-180 29.5 135.03)" data-color-action="fill" style="fill:inherit"/><path d="M26.17 86.01h6.67v.63h-6.67z" class="a9-cls-28" transform="rotate(-180 29.5 86.33)" data-color-action="fill" style="fill:inherit"/><g class="a9-cls-29"><path d="M26.17 87.65l6.66-1.01v-.63l-6.66 1v.64zM26.17 89.09l6.66-1v-.63l-6.66 1v.63zM26.17 90.54l6.66-1v-.64l-6.66 1.01v.63zM26.17 91.98l6.66-1v-.63l-6.66 1v.63zM26.17 93.43l6.66-1v-.63l-6.66 1v.63zM26.17 94.87l6.66-1v-.63l-6.66 1v.63zM26.17 96.32l6.66-1v-.63l-6.66 1v.63zM26.17 97.76l6.66-1v-.63l-6.66 1v.63zM26.17 99.21l6.66-1v-.63l-6.66 1v.63zM26.17 100.66l6.66-1.01v-.63l-6.66 1v.64zM26.17 102.1l6.66-1v-.63l-6.66 1v.63zM26.17 103.55l6.66-1v-.64l-6.66 1v.64zM26.17 104.99l6.66-1v-.63l-6.66 1v.63zM26.17 106.44l6.66-1v-.64l-6.66 1.01v.63zM26.17 107.88l6.66-1v-.63l-6.66 1v.63zM26.17 109.33l6.66-1v-.64l-6.66 1v.64zM26.17 110.77l6.66-1v-.63l-6.66 1v.63zM26.17 112.22l6.66-1v-.63l-6.66 1v.63zM26.17 113.66l6.66-1v-.63l-6.66 1v.63zM26.17 115.11l6.66-1v-.63l-6.66 1v.63zM26.17 116.56l6.66-1.01v-.63l-6.66 1v.64zM26.17 118l6.66-1v-.63l-6.66 1v.63zM26.17 119.45l6.66-1.01v-.63l-6.66 1v.64zM26.17 120.89l6.66-1v-.63l-6.66 1v.63zM26.17 122.34l6.66-1v-.64l-6.66 1v.64zM26.17 123.78l6.66-1v-.63l-6.66 1v.63zM26.17 125.23l6.66-1v-.64l-6.66 1v.64zM26.17 126.67l6.66-1v-.63l-6.66 1v.63zM26.17 128.12l6.66-1v-.63l-6.66 1v.63zM26.17 129.56l6.66-1v-.63l-6.66 1v.63zM26.17 131.01l6.66-1v-.63l-6.66 1v.63zM26.17 132.46l6.66-1.01v-.63l-6.66 1v.64zM26.17 133.9l6.66-1v-.63l-6.66 1v.63zM26.17 135.35l6.66-1.01v-.63l-6.66 1v.64z" class="a9-cls-28" data-color-action="fill" style="fill:inherit"/></g></g><g id="a59_implant_blade" data-name="implant blade"><path d="M2 22h55v137.17H2z" class="a9-cls-23" transform="rotate(-180 29.5 90.585)"/><path d="M26.17 86.01h6.67v49.33h-6.67z" class="a9-cls-18" transform="rotate(-180 29.5 110.68)" data-color-action="fill" style="fill:inherit"/><path d="M24.5 135.35h10v3h-10z" class="a9-cls-18" transform="rotate(-180 29.5 136.845)" data-color-action="fill" style="fill:inherit"/><path d="M30 86.01h1v49.33h-1z" class="a9-cls-25" transform="rotate(-180 30.5 110.68)"/><path d="M30.75 135.35h1.5v3h-1.5z" class="a9-cls-25" transform="rotate(-180 31.5 136.845)"/><path d="M26.17 134.71h6.67v.63h-6.67z" class="a9-cls-28" transform="rotate(-180 29.5 135.03)" data-color-action="fill" style="fill:inherit"/></g><path id="a59_watch_tooth" d="M8.27 27.73a3.26 3.26 0 0 1 3.22-3.26 3.24 3.24 0 1 1 0 6.47 3.25 3.25 0 0 1-3.22-3.21zm1-5.91L8.39 3.73h6.15l-.8 18.09z" class="a9-cls-11" data-color-action="fill" style="fill:inherit" data-name="watch tooth"/><path id="a59_border" d="M0 0h59v161H0z" class="a9-cls-15"/></defs></g><g class="c9-cls-1" transform="translate(0 217)"><g id="_9C" data-name="#9C"><path d="M11.52 15.08C9.19 19 9.9 32 11.52 40.57c2 10.64 7 15.4 16 15.59s16.5-2 18.7-10.45 3.67-26 2.2-29.89-13-4.58-18.34-5-16.91 1.51-18.56 4.26z" class="c9-cls-2"/><path d="M11.52 15.08C9.19 19 9.9 32 11.52 40.57c2 10.64 7 15.4 16 15.59s16.5-2 18.7-10.45 3.67-26 2.2-29.89-13-4.58-18.34-5-16.91 1.51-18.56 4.26z" class="c9-cls-3"/><path d="M48.82 18.12c-2.55-3.26-13.24-4.35-18.36-4.89-5.46-.58-17.53.77-19.34 3.37a5.84 5.84 0 0 0-.46.83 8.31 8.31 0 0 1 .86-2.36c1.65-2.75 13.2-4.58 18.52-4.21s16.87 1.1 18.34 5a9.35 9.35 0 0 1 .44 2.26z" class="c9-cls-4"/><path d="M15.53 42.59c-.67.83-.17 2.5 1.5 5.17s2.83 6.17 11.17 6 10.33-3 11.5-4.67 3.67-9.67 3-10.17-3.75 7.33-6 8c-1.43.42-.83-3.92-3.17-2.25-1.06.76-.84 5.58-5.42 5.67s-5.92-1.34-7.58-2.92c-1.31-1.24-4.34-5.67-5-4.83z" class="c9-cls-5"/></g><defs><g id="c59_splinted_crowns" data-name="splinted crowns"><path d="M2 53.09h55v7.67H2z" class="c9-cls-12" transform="rotate(-180 29.5 56.925)" data-color-action="fill" style="fill:inherit"/><path d="M11.52 15.08C9.19 19 9.9 32 11.52 40.57c2 10.64 7 15.4 16 15.59s16.5-2 18.7-10.45 3.67-26 2.2-29.89-13-4.58-18.34-5-16.91 1.51-18.56 4.26z" class="c9-cls-2"/><path d="M11.52 15.08C9.19 19 9.9 32 11.52 40.57c2 10.64 7 15.4 16 15.59s16.5-2 18.7-10.45 3.67-26 2.2-29.89-13-4.58-18.34-5-16.91 1.51-18.56 4.26z" class="c9-cls-3"/><path d="M48.82 18.12c-2.55-3.26-13.24-4.35-18.36-4.89-5.46-.58-17.53.77-19.34 3.37a5.84 5.84 0 0 0-.46.83 8.31 8.31 0 0 1 .86-2.36c1.65-2.75 13.2-4.58 18.52-4.21s16.87 1.1 18.34 5a9.35 9.35 0 0 1 .44 2.26z" class="c9-cls-4"/><path d="M15.53 42.59c-.67.83-.17 2.5 1.5 5.17s2.83 6.17 11.17 6 10.33-3 11.5-4.67 3.67-9.67 3-10.17-3.75 7.33-6 8c-1.43.42-.83-3.92-3.17-2.25-1.06.76-.84 5.58-5.42 5.67s-5.92-1.34-7.58-2.92c-1.31-1.24-4.34-5.67-5-4.83z" class="c9-cls-5"/></g><path id="c59_lingual_V" d="M18.44 53.56a15.71 15.71 0 0 1 10.35-3.7A15.56 15.56 0 0 1 39.65 54c-3.31 1.69-7.55 2.23-12.17 2.13a15.83 15.83 0 0 1-9.04-2.57z" class="c9-cls-6" data-color-action="fill" style="fill:inherit" data-name="lingual V"/><ellipse id="c59_mid_lingual" cx="28.92" cy="34.81" class="c9-cls-6" rx="4.85" ry="9.95" data-color-action="fill" style="fill:inherit" data-name="mid lingual"/><path id="c59_mesial" d="M10.21 20.49l8.44 4.1a21.8 21.8 0 0 0-1.56 6.16c-.44 2.7-3.69 3.9-6.39 4.44a74.35 74.35 0 0 1-.49-14.7z" class="c9-cls-6" data-color-action="fill" style="fill:inherit"/><path id="c59_line_angle_4" d="M10.21 20.49a13.69 13.69 0 0 1 1.31-5.41c.89-1.48 4.66-2.7 8.78-3.46l3.34 10.1c-.7.07-1.33.14-1.85.23a4.33 4.33 0 0 0-3.15 2.64z" class="c9-cls-6" data-color-action="fill" style="fill:inherit" data-name="line angle 4"/><path id="c59_lingual" d="M20.31 11.62a44.3 44.3 0 0 1 9.69-.76c2.15.15 5.33.36 8.43.8l-3.62 10.26a57 57 0 0 0-11.16-.2z" class="c9-cls-6" data-color-action="fill" style="fill:inherit"/><path id="c59_line_angle_3" d="M34.81 21.92l3.66-10.26c4.58.67 9 1.86 9.91 4.15a20 20 0 0 1 .62 5.82l-7.8 3.29a4.26 4.26 0 0 0-2.68-2.21 18.66 18.66 0 0 0-3.71-.79z" class="c9-cls-6" data-color-action="fill" style="fill:inherit" data-name="line angle 3"/><path id="c59_distal" d="M41.17 24.92L49 21.63a115.94 115.94 0 0 1-1 13.51c-2.34-.26-5.23-1.05-5.76-3.33-.55-2.59-.24-5.08-1.07-6.89z" class="c9-cls-6" data-color-action="fill" style="fill:inherit"/><g id="c59_veneer"><path d="M28 1.25h3v3h-3z" class="c9-cls-7" transform="rotate(-180 29.5 2.75)"/><path d="M28 1.25h3v3h-3z" class="c9-cls-7" transform="rotate(-180 29.5 2.75)"/><path d="M28 1.25h3v3h-3z" class="c9-cls-7" transform="rotate(-180 29.5 2.75)"/></g><g id="c59_tissue_graft" data-name="tissue graft"><path d="M28 1.25h3v3h-3z" class="c9-cls-7" transform="rotate(-180 29.5 2.75)"/><path d="M28 1.25h3v3h-3z" class="c9-cls-7" transform="rotate(-180 29.5 2.75)"/><path d="M28 1.25h3v3h-3z" class="c9-cls-7" transform="rotate(-180 29.5 2.75)"/></g><g id="c59_tipped_lingual" class="c9-cls-8" data-name="tipped lingual"><path d="M28.65 5.93c1.26-3.37 4.74-3.85 7.69 5.32.5 1.56 4.42 1.76 3.84 0C38.16 5.15 34.86 1 31.11 2a4.86 4.86 0 0 0-3 3.38c.2.15.43.41.54.55z" class="c9-cls-9" data-color-action="fill" style="fill:inherit"/><path d="M30.73 8.85h12.94l-2.94 9.64-10-9.64z" class="c9-cls-9" data-color-action="fill" style="fill:inherit"/></g><g id="c59_tipped_facial" data-name="tipped facial"><path d="M28 1.25h3v3h-3z" class="c9-cls-7" transform="rotate(-180 29.5 2.75)"/><path d="M28 1.25h3v3h-3z" class="c9-cls-7" transform="rotate(-180 29.5 2.75)"/><path d="M28 1.25h3v3h-3z" class="c9-cls-7" transform="rotate(-180 29.5 2.75)"/></g><path id="c59_surface_restoration_distal" d="M41.93 19.51c.23 3.77-.56 17-1.78 26a11.45 11.45 0 0 1 6.79-3.19c1.75-9.07 2.73-23.1 1.44-26.49a3.21 3.21 0 0 0-1-1.29l-5.5 5z" class="c9-cls-10" data-color-action="fill" style="fill:inherit" data-name="surface restoration distal"/><path id="c59_surface_restoration_lingual" d="M22 53a14.92 14.92 0 0 1 14.79-.56 11.47 11.47 0 0 1 3.41-6.93c1.22-9 2-22.22 1.78-26-1.68-.54-5.12-1.16-12.11-1.64H28.6a40.34 40.34 0 0 0-11.2 1.73c-.53 3-.8 16.7.26 25.16A11.47 11.47 0 0 1 22 53z" class="c9-cls-8 c9-cls-11" data-color-action="fill" style="fill:inherit" data-name="surface restoration lingual"/><path id="c59_surface_restoration_lingual_V" d="M22 53v.75a11.54 11.54 0 0 1-.11 1.52 18.78 18.78 0 0 0 5.59.91 31 31 0 0 0 9.28-1 10.7 10.7 0 0 1 0-2.7A14.92 14.92 0 0 0 22 53z" class="c9-cls-8 c9-cls-11" data-color-action="fill" style="fill:inherit" data-name="surface restoration lingual V"/><path id="c59_surface_restoration_mesial" d="M11.52 15.09C9.19 19 9.9 32 11.52 40.58c.12.61.24 1.19.38 1.76a11.43 11.43 0 0 1 5.71 2.38c-1.06-8.45-.79-22.1-.26-25.15l-5.49-4.91a2.28 2.28 0 0 0-.34.43z" class="c9-cls-10" data-color-action="fill" style="fill:inherit" data-name="surface restoration mesial"/><path id="c59_surface_restoration_incisal" d="M11.87 14.66l5.49 4.91a40.34 40.34 0 0 1 11.2-1.73h1.27c6.94.48 10.39 1.09 12.08 1.63l5.5-5c-3.26-2.68-12.71-3.28-17.41-3.6-5-.35-15.62 1.28-18.13 3.79z" class="c9-cls-10" data-color-action="fill" style="fill:inherit" data-name="surface restoration incisal"/><g id="c59_supra-erupted"><path d="M28 1.25h3v3h-3z" class="c9-cls-7" transform="rotate(-180 29.5 2.75)"/><path d="M28 1.25h3v3h-3z" class="c9-cls-7" transform="rotate(-180 29.5 2.75)"/><path d="M28 1.25h3v3h-3z" class="c9-cls-7" transform="rotate(-180 29.5 2.75)"/></g><g id="c59_sub-erupted"><path d="M28 1.25h3v3h-3z" class="c9-cls-7" transform="rotate(-180 29.5 2.75)"/><path d="M28 1.25h3v3h-3z" class="c9-cls-7" transform="rotate(-180 29.5 2.75)"/><path d="M28 1.25h3v3h-3z" class="c9-cls-7" transform="rotate(-180 29.5 2.75)"/></g><g id="c59_sealant"><path d="M28 1.25h3v3h-3z" class="c9-cls-7" transform="rotate(-180 29.5 2.75)"/><path d="M28 1.25h3v3h-3z" class="c9-cls-7" transform="rotate(-180 29.5 2.75)"/><path d="M28 1.25h3v3h-3z" class="c9-cls-7" transform="rotate(-180 29.5 2.75)"/></g><g id="c59_root_decay" data-name="root decay"><path d="M28 1.25h3v3h-3z" class="c9-cls-7" transform="rotate(-180 29.5 2.75)"/><path d="M28 1.25h3v3h-3z" class="c9-cls-7" transform="rotate(-180 29.5 2.75)"/><path d="M28 1.25h3v3h-3z" class="c9-cls-7" transform="rotate(-180 29.5 2.75)"/></g><g id="c59_root_canal" data-name="root canal"><path d="M28 1.25h3v3h-3z" class="c9-cls-7" transform="rotate(-180 29.5 2.75)"/><path d="M28 1.25h3v3h-3z" class="c9-cls-7" transform="rotate(-180 29.5 2.75)"/><path d="M28 1.25h3v3h-3z" class="c9-cls-7" transform="rotate(-180 29.5 2.75)"/></g><g id="c59_root_abrasion" data-name="root abrasion"><path d="M28 1.25h3v3h-3z" class="c9-cls-7" transform="rotate(-180 29.5 2.75)"/><path d="M28 1.25h3v3h-3z" class="c9-cls-7" transform="rotate(-180 29.5 2.75)"/><path d="M28 1.25h3v3h-3z" class="c9-cls-7" transform="rotate(-180 29.5 2.75)"/></g><g id="c59_open_contact_mesial" data-name="open contact mesial"><path d="M28 1.25h3v3h-3z" class="c9-cls-7" transform="rotate(-180 29.5 2.75)"/><path d="M28 1.25h3v3h-3z" class="c9-cls-7" transform="rotate(-180 29.5 2.75)"/><path d="M28 1.25h3v3h-3z" class="c9-cls-7" transform="rotate(-180 29.5 2.75)"/></g><g id="c59_open_contact_distal" data-name="open contact distal"><path d="M28 1.25h3v3h-3z" class="c9-cls-7" transform="rotate(-180 29.5 2.75)"/><path d="M28 1.25h3v3h-3z" class="c9-cls-7" transform="rotate(-180 29.5 2.75)"/><path d="M28 1.25h3v3h-3z" class="c9-cls-7" transform="rotate(-180 29.5 2.75)"/></g><path id="c59_lingual_abfraction" d="M15.59 57.85s6.23 4.9 13.91 4.9 13.91-4.9 13.91-4.9-6.23-4.9-13.91-4.9-13.91 4.9-13.91 4.9z" class="c9-cls-15" data-color-action="fill" style="fill:inherit" data-name="lingual abfraction"/><g id="c59_internal_root_resorption" data-name="internal root resorption"><path d="M28 1.25h3v3h-3z" class="c9-cls-7" transform="rotate(-180 29.5 2.75)"/><path d="M28 1.25h3v3h-3z" class="c9-cls-7" transform="rotate(-180 29.5 2.75)"/><path d="M28 1.25h3v3h-3z" class="c9-cls-7" transform="rotate(-180 29.5 2.75)"/></g><g id="c59_gortex_membranes" data-name="gortex membranes"><path d="M28 1.25h3v3h-3z" class="c9-cls-7" transform="rotate(-180 29.5 2.75)"/><path d="M28 1.25h3v3h-3z" class="c9-cls-7" transform="rotate(-180 29.5 2.75)"/><path d="M28 1.25h3v3h-3z" class="c9-cls-7" transform="rotate(-180 29.5 2.75)"/></g><g id="c59_frenum_pull" data-name="frenum pull"><path d="M28 1.25h3v3h-3z" class="c9-cls-7" transform="rotate(-180 29.5 2.75)"/><path d="M28 1.25h3v3h-3z" class="c9-cls-7" transform="rotate(-180 29.5 2.75)"/><path d="M28 1.25h3v3h-3z" class="c9-cls-7" transform="rotate(-180 29.5 2.75)"/></g><g id="c59_external_root_resorption" data-name="external root resorption"><path d="M28 1.25h3v3h-3z" class="c9-cls-7" transform="rotate(-180 29.5 2.75)"/><path d="M28 1.25h3v3h-3z" class="c9-cls-7" transform="rotate(-180 29.5 2.75)"/><path d="M28 1.25h3v3h-3z" class="c9-cls-7" transform="rotate(-180 29.5 2.75)"/></g><path id="c59_three_quarter_crown" d="M10.42 32.52c-.67-7.17-.56-14.66 1.11-17.44s13.2-4.59 18.47-4.22 16.87 1.1 18.34 5c.88 2.3.71 9.49 0 16.71z" class="c9-cls-8 c9-cls-19" data-color-action="fill" style="fill:inherit" data-name="three quarter crown"/><path id="c59_crown" d="M11.52 15.08C9.19 19 9.9 32 11.52 40.57c2 10.64 7 15.4 16 15.59s16.5-2 18.7-10.45 3.67-26 2.2-29.89-13-4.58-18.34-5-16.91 1.51-18.56 4.26z" class="c9-cls-8 c9-cls-19" data-color-action="fill" style="fill:inherit"/><path id="c59_cracked_surface_distal" d="M41.34 23.57l3.83 3.83h-5.01l5.01 4.75h-5.01l3.83 3.83" class="c9-cls-20" data-color-action="stroke" style="stroke:inherit" data-name="cracked surface distal"/><path id="c59_cracked_surface_lingual" d="M28.17 23.57l3.84 3.83H27l5 4.75h-5l3.83 3.83" class="c9-cls-20" data-color-action="stroke" style="stroke:inherit" data-name="cracked surface lingual"/><path id="c59_cracked_surface_lingual_V" d="M28.17 23.57l3.84 3.83H27l5 4.75h-5l3.83 3.83" class="c9-cls-20" data-color-action="stroke" style="stroke:inherit" data-name="cracked surface lingual V"/><path id="c59_cracked_surface_mesial" d="M13.34 23.57l3.83 3.83h-5l5 4.75h-5L16 35.98" class="c9-cls-20" data-color-action="stroke" style="stroke:inherit" data-name="cracked surface mesial"/><g id="c59_chipped_surface_distal" class="c9-cls-8" data-name="chipped surface distal"><path d="M37.83 25.24l8.33 8.34M46.16 25.24l-8.33 8.34" class="c9-cls-21" data-color-action="stroke" style="stroke:inherit"/></g><g id="c59_chipped_surface_lingual" class="c9-cls-8" data-name="chipped surface lingual"><path d="M25.67 25.24L34 33.58M34 25.24l-8.33 8.34" class="c9-cls-21" data-color-action="stroke" style="stroke:inherit"/></g><g id="c59_chipped_surface_lingual_V" class="c9-cls-8" data-name="chipped surface lingual V"><path d="M25.67 25.24L34 33.58M34 25.24l-8.33 8.34" class="c9-cls-21" data-color-action="stroke" style="stroke:inherit"/></g><g id="c59_chipped_surface_mesial" class="c9-cls-8" data-name="chipped surface mesial"><path d="M11.67 25.24L20 33.58M20 25.24l-8.33 8.34" class="c9-cls-21" data-color-action="stroke" style="stroke:inherit"/></g><g id="c59_buccal_abfraction" data-name="buccal abfraction"><path d="M28 1.25h3v3h-3z" class="c9-cls-7" transform="rotate(-180 29.5 2.75)"/><path d="M28 1.25h3v3h-3z" class="c9-cls-7" transform="rotate(-180 29.5 2.75)"/><path d="M28 1.25h3v3h-3z" class="c9-cls-7" transform="rotate(-180 29.5 2.75)"/></g><g id="c59_braces"><path d="M28 1.25h3v3h-3z" class="c9-cls-7" transform="rotate(-180 29.5 2.75)"/><path d="M28 1.25h3v3h-3z" class="c9-cls-7" transform="rotate(-180 29.5 2.75)"/><path d="M28 1.25h3v3h-3z" class="c9-cls-7" transform="rotate(-180 29.5 2.75)"/></g><g id="c59_apicoectomy"><path d="M28 1.25h3v3h-3z" class="c9-cls-7" transform="rotate(-180 29.5 2.75)"/><path d="M28 1.25h3v3h-3z" class="c9-cls-7" transform="rotate(-180 29.5 2.75)"/><path d="M28 1.25h3v3h-3z" class="c9-cls-7" transform="rotate(-180 29.5 2.75)"/></g><g id="c59_abscess"><path d="M28 1.25h3v3h-3z" class="c9-cls-7" transform="rotate(-180 29.5 2.75)"/><path d="M28 1.25h3v3h-3z" class="c9-cls-7" transform="rotate(-180 29.5 2.75)"/><path d="M28 1.25h3v3h-3z" class="c9-cls-7" transform="rotate(-180 29.5 2.75)"/></g><g id="c59_blunted_roots" data-name="blunted roots"><path d="M28 1.25h3v3h-3z" class="c9-cls-7" transform="rotate(-180 29.5 2.75)"/><path d="M28 1.25h3v3h-3z" class="c9-cls-7" transform="rotate(-180 29.5 2.75)"/><path d="M28 1.25h3v3h-3z" class="c9-cls-7" transform="rotate(-180 29.5 2.75)"/></g><g id="c59_root_amputation" data-name="root amputation"><path d="M28 1.25h3v3h-3z" class="c9-cls-7" transform="rotate(-180 29.5 2.75)"/><path d="M28 1.25h3v3h-3z" class="c9-cls-7" transform="rotate(-180 29.5 2.75)"/><path d="M28 1.25h3v3h-3z" class="c9-cls-7" transform="rotate(-180 29.5 2.75)"/></g><g id="c59_missing_crown" data-name="missing crown"><path d="M28 1.25h3v3h-3z" class="c9-cls-7" transform="rotate(-180 29.5 2.75)"/><path d="M28 1.25h3v3h-3z" class="c9-cls-7" transform="rotate(-180 29.5 2.75)"/><path d="M28 1.25h3v3h-3z" class="c9-cls-7" transform="rotate(-180 29.5 2.75)"/><path d="M2 2.02h55V64H2z" class="c9-cls-13" transform="rotate(-180 29.5 33.01)"/></g><g id="c59_missing_tooth" data-name="missing tooth"><path d="M11.52 15.08C9.19 19 9.9 32 11.52 40.57c2 10.64 7 15.4 16 15.59s16.5-2 18.7-10.45 3.67-26 2.2-29.89-13-4.58-18.34-5-16.91 1.51-18.56 4.26z" class="c9-cls-2"/><path d="M11.52 15.08C9.19 19 9.9 32 11.52 40.57c2 10.64 7 15.4 16 15.59s16.5-2 18.7-10.45 3.67-26 2.2-29.89-13-4.58-18.34-5-16.91 1.51-18.56 4.26z" class="c9-cls-13"/><path d="M48.82 18.12c-2.55-3.26-13.24-4.35-18.36-4.89-5.46-.58-17.53.77-19.34 3.37a5.84 5.84 0 0 0-.46.83 8.31 8.31 0 0 1 .86-2.36c1.65-2.75 13.2-4.58 18.52-4.21s16.87 1.1 18.34 5a9.35 9.35 0 0 1 .44 2.26zM15.53 42.59c-.67.83-.17 2.5 1.5 5.17s2.83 6.17 11.17 6 10.33-3 11.5-4.67 3.67-9.67 3-10.17-3.75 7.33-6 8c-1.43.42-.83-3.92-3.17-2.25-1.06.76-.84 5.58-5.42 5.67s-5.92-1.34-7.58-2.92c-1.31-1.24-4.34-5.67-5-4.83z" class="c9-cls-13"/></g><g id="c59_maryland_bridge_pontic" class="c9-cls-8" data-name="maryland bridge pontic"><path d="M2 28.96h55v7.67H2z" class="c9-cls-14" transform="rotate(-180 29.5 32.8)" data-color-action="fill" style="fill:inherit"/><path d="M11.52 15.08C9.19 19 9.9 32 11.52 40.57c2 10.64 7 15.4 16 15.59s16.5-2 18.7-10.45 3.67-26 2.2-29.89-13-4.58-18.34-5-16.91 1.51-18.56 4.26z" class="c9-cls-14" data-color-action="fill" style="fill:inherit"/></g><g id="c59_maryland_bridge_abutment_mesial" class="c9-cls-8" data-name="maryland bridge abutment mesial"><path d="M2 28.17h20.42v7.67H2z" class="c9-cls-14" data-color-action="fill" style="fill:inherit"/><ellipse cx="21.19" cy="32" class="c9-cls-14" rx="5.61" ry="12.9" data-color-action="fill" style="fill:inherit"/></g><g id="c59_maryland_bridge_abutment_distal" class="c9-cls-8" data-name="maryland bridge abutment distal"><path d="M36.58 28.17H57v7.67H36.58z" class="c9-cls-14" data-color-action="fill" style="fill:inherit"/><ellipse cx="37.81" cy="32" class="c9-cls-14" rx="5.61" ry="12.9" data-color-action="fill" style="fill:inherit"/></g><g id="c59_maryland_bridge_abutment" class="c9-cls-8" data-name="maryland bridge abutment"><path d="M36.58 28.17H57v7.67H36.58zM2 28.17h20.42v7.67H2z" class="c9-cls-14" data-color-action="fill" style="fill:inherit"/><ellipse cx="21.19" cy="32" class="c9-cls-14" rx="5.61" ry="12.9" data-color-action="fill" style="fill:inherit"/><ellipse cx="37.81" cy="32" class="c9-cls-14" rx="5.61" ry="12.9" data-color-action="fill" style="fill:inherit"/></g><g id="c59_bridge_abutment_mesial" class="c9-cls-8" data-name="bridge abutment mesial"><path d="M11.52 15.08C9.19 19 9.9 32 11.52 40.57c2 10.64 7 15.4 16 15.59s16.5-2 18.7-10.45 3.67-26 2.2-29.89-13-4.58-18.34-5-16.91 1.51-18.56 4.26z" class="c9-cls-11" data-color-action="fill" style="fill:inherit"/><path d="M2 28.74h34.98v7.67H2z" class="c9-cls-11" transform="rotate(-180 19.49 32.57)" data-color-action="fill" style="fill:inherit"/></g><g id="c59_bridge_abutment_distal" class="c9-cls-8" data-name="bridge abutment distal"><path d="M11.52 15.08C9.19 19 9.9 32 11.52 40.57c2 10.64 7 15.4 16 15.59s16.5-2 18.7-10.45 3.67-26 2.2-29.89-13-4.58-18.34-5-16.91 1.51-18.56 4.26z" class="c9-cls-11" data-color-action="fill" style="fill:inherit"/><path d="M22.02 28.74H57v7.67H22.02z" class="c9-cls-11" transform="rotate(-180 39.51 32.57)" data-color-action="fill" style="fill:inherit"/></g><g id="c59_bridge_abutment" class="c9-cls-8" data-name="bridge abutment"><path d="M11.52 15.08C9.19 19 9.9 32 11.52 40.57c2 10.64 7 15.4 16 15.59s16.5-2 18.7-10.45 3.67-26 2.2-29.89-13-4.58-18.34-5-16.91 1.51-18.56 4.26z" class="c9-cls-11" data-color-action="fill" style="fill:inherit"/><path d="M2 28.74h55v7.67H2z" class="c9-cls-11" transform="rotate(-180 29.5 32.57)" data-color-action="fill" style="fill:inherit"/></g><g id="c59_bridge_pontic" class="c9-cls-8" data-name="bridge pontic"><path d="M11.52 15.08C9.19 19 9.9 32 11.52 40.57c2 10.64 7 15.4 16 15.59s16.5-2 18.7-10.45 3.67-26 2.2-29.89-13-4.58-18.34-5-16.91 1.51-18.56 4.26z" class="c9-cls-11" data-color-action="fill" style="fill:inherit"/><path d="M2 28.74h55v7.67H2z" class="c9-cls-11" transform="rotate(-180 29.5 32.57)" data-color-action="fill" style="fill:inherit"/></g><g id="c59_implant_mini" data-name="implant mini"><path d="M2 2.02h55V64H2z" class="c9-cls-13" transform="rotate(-180 29.5 33.01)"/><path d="M29.28 66h.44l1-8.5V16.67h-2.44V57.5l1 8.5z" class="c9-cls-11" data-color-action="fill" style="fill:inherit"/><path d="M29.58 66h.07l.4-8.5V16.67h-.37V57.5l-.1 8.5z" class="c9-cls-16"/><path d="M28.28 16.67h2.44v.63h-2.44z" class="c9-cls-17" transform="rotate(-180 29.5 16.985)" data-color-action="fill" style="fill:inherit"/><g class="c9-cls-18"><path d="M30.72 17.3l-2.44 1v-.63l2.44-1v.63zM30.72 18.75l-2.44 1v-.64l2.44-1v.64zM30.72 20.19l-2.44 1v-.63l2.44-1v.63zM30.72 21.64l-2.44 1V22l2.44-1v.64zM30.72 23.08l-2.44 1v-.63l2.44-1v.63zM30.72 24.53l-2.44 1v-.64l2.44-1v.64zM30.72 25.97l-2.44 1v-.63l2.44-1v.63zM30.72 27.42l-2.44 1v-.63l2.44-1v.63zM30.72 28.86l-2.44 1v-.63l2.44-1v.63zM30.72 30.31l-2.44 1v-.63l2.44-1v.63zM30.72 31.75l-2.44 1.01v-.64l2.44-1v.63zM30.72 33.2l-2.44 1v-.63l2.44-1v.63zM30.72 34.65l-2.44 1v-.64l2.44-1v.64zM30.72 36.09l-2.44 1v-.63l2.44-1v.63zM30.72 37.54l-2.44 1v-.64l2.44-1v.64zM30.72 38.98l-2.44 1v-.63l2.44-1v.63zM30.72 40.43l-2.44 1v-.63l2.44-1.01v.64zM30.72 41.87l-2.44 1v-.63l2.44-1v.63zM30.72 43.32l-2.44 1v-.63l2.44-1v.63zM30.72 44.76l-2.44 1v-.63l2.44-1v.63zM30.72 46.21l-2.44 1v-.63l2.44-1v.63zM30.72 47.65l-2.44 1.01v-.64l2.44-1v.63zM30.72 49.1l-2.44 1v-.63l2.44-1v.63zM30.72 50.55l-2.44 1v-.64l2.44-1v.64zM30.72 51.99l-2.44 1v-.63l2.44-1v.63zM30.72 53.44l-2.44 1v-.64l2.44-1v.64zM30.72 54.88l-2.44 1v-.63l2.44-1v.63zM30.72 56.33l-2.44 1v-.63l2.44-1.01v.64zM30.72 57.5l-.03.29-2.27.92-.07-.6 2.37-.97v.36zM30.51 59.3l-1.93.79-.07-.6 2.08-.85-.08.66zM30.33 60.82l-1.58.65-.08-.6 1.74-.71-.08.66zM30.15 62.34l-1.24.51-.07-.6 1.39-.57-.08.66zM29.97 63.86l-.9.37-.07-.6 1.05-.43-.08.66zM29.8 65.38l-.57.23-.07-.6.71-.3-.07.67z" class="c9-cls-17" data-color-action="fill" style="fill:inherit"/></g><circle cx="29.5" cy="12.79" r="2.24" class="c9-cls-11" data-color-action="fill" style="fill:inherit"/><path d="M27.67 14.01h3.67v3h-3.67z" class="c9-cls-11" transform="rotate(-180 29.5 15.51)" data-color-action="fill" style="fill:inherit"/><path d="M29.96 14.01h.55v3h-.55z" class="c9-cls-16"/><path d="M30.3 11.44h.21a2.32 2.32 0 0 1 .49 1.28 2.37 2.37 0 0 1-.52 1.3H30a2 2 0 0 0 .73-1.37 1.5 1.5 0 0 0-.43-1.21z" class="c9-cls-16"/><path d="M28.28 22.74h2.44v.63h-2.44z" class="c9-cls-17" transform="rotate(-180 29.5 23.05)" data-color-action="fill" style="fill:inherit"/><path d="M26.89 16.99h5.22l-.87 5.71h-3.48l-.87-5.71z" class="c9-cls-11" data-color-action="fill" style="fill:inherit"/><path d="M30.15 16.99h.79l-.48 5.71h-.53l.22-5.71z" class="c9-cls-16"/></g><g id="c59_implant_cylinder" data-name="implant cylinder"><path d="M2 2.02h55V64H2z" class="c9-cls-13" transform="rotate(-180 29.5 33.01)"/><path d="M26.17 13.67h6.67V63h-6.67z" class="c9-cls-11" transform="rotate(-180 29.5 38.335)" data-color-action="fill" style="fill:inherit"/><path d="M24.5 63h10v3h-10z" class="c9-cls-11" transform="rotate(-180 29.5 64.5)" data-color-action="fill" style="fill:inherit"/><path d="M30 13.67h1V63h-1z" class="c9-cls-16" transform="rotate(-180 30.5 38.335)"/><path d="M30.75 63h1.5v3h-1.5z" class="c9-cls-16" transform="rotate(-180 31.5 64.5)"/><path d="M24.5 10.64h10v3h-10z" class="c9-cls-11" transform="rotate(-180 29.5 12.14)" data-color-action="fill" style="fill:inherit"/><path d="M30.75 10.64h1.5v3h-1.5z" class="c9-cls-16" transform="rotate(-180 31.5 12.14)"/><path d="M26.17 62.37h6.67V63h-6.67z" class="c9-cls-17" transform="rotate(-180 29.5 62.685)" data-color-action="fill" style="fill:inherit"/><path d="M26.17 13.67h6.67v.63h-6.67z" class="c9-cls-17" transform="rotate(-180 29.5 13.985)" data-color-action="fill" style="fill:inherit"/><g class="c9-cls-18"><path d="M26.17 15.3l6.66-1v-.63l-6.66 1v.63zM26.17 16.75l6.66-1v-.63l-6.66 1v.63zM26.17 18.19l6.66-1v-.63l-6.66 1v.63zM26.17 19.64l6.66-1v-.63l-6.66 1v.63zM26.17 21.08l6.66-1v-.63l-6.66 1v.63zM26.17 22.53l6.66-1v-.63l-6.66 1v.63zM26.17 23.98l6.66-1v-.64l-6.66 1v.64zM26.17 25.42l6.66-1v-.63l-6.66 1v.63zM26.17 26.87l6.66-1.01v-.63l-6.66 1v.64zM26.17 28.31l6.66-1v-.63l-6.66 1v.63zM26.17 29.76l6.66-1v-.64l-6.66 1.01v.63zM26.17 31.2l6.66-1v-.63l-6.66 1v.63zM26.17 32.65l6.66-1v-.63l-6.66 1v.63zM26.17 34.09l6.66-1v-.63l-6.66 1v.63zM26.17 35.54l6.66-1v-.63l-6.66 1v.63zM26.17 36.98l6.66-1v-.63l-6.66 1v.63zM26.17 38.43l6.66-1v-.63l-6.66 1v.63zM26.17 39.88l6.66-1v-.64l-6.66 1v.64zM26.17 41.32l6.66-1v-.63l-6.66 1v.63zM26.17 42.77l6.66-1v-.64l-6.66 1v.64zM26.17 44.21l6.66-1v-.63l-6.66 1v.63zM26.17 45.66l6.66-1v-.64l-6.66 1v.64zM26.17 47.1l6.66-1v-.63l-6.66 1v.63zM26.17 48.55l6.66-1v-.64l-6.66 1.01v.63zM26.17 49.99l6.66-1v-.63l-6.66 1v.63zM26.17 51.44l6.66-1v-.63l-6.66 1v.63zM26.17 52.88l6.66-1v-.63l-6.66 1v.63zM26.17 54.33l6.66-1v-.63l-6.66 1v.63zM26.17 55.77l6.66-1v-.63l-6.66 1v.63zM26.17 57.22l6.66-1v-.63l-6.66 1v.63zM26.17 58.67l6.66-1.01v-.63l-6.66 1v.64zM26.17 60.11l6.66-1v-.63l-6.66 1v.63zM26.17 61.56l6.66-1v-.64l-6.66 1v.64zM26.17 63l6.66-1v-.63l-6.66 1V63z" class="c9-cls-17" data-color-action="fill" style="fill:inherit"/></g></g><g id="c59_implant_blade" data-name="implant blade"><path d="M2 2.02h55V64H2z" class="c9-cls-13" transform="rotate(-180 29.5 33.01)"/><path d="M26.17 13.64h6.67v49.33h-6.67z" class="c9-cls-11" transform="rotate(-180 29.5 38.31)" data-color-action="fill" style="fill:inherit"/><path d="M24.5 10.64h10v3h-10z" class="c9-cls-11" transform="rotate(-180 29.5 12.14)" data-color-action="fill" style="fill:inherit"/><path d="M30 13.64h1v49.33h-1z" class="c9-cls-16" transform="rotate(-180 30.5 38.31)"/><path d="M30.75 10.64h1.5v3h-1.5z" class="c9-cls-16" transform="rotate(-180 31.5 12.14)"/><path d="M26.17 13.64h6.67v.63h-6.67z" class="c9-cls-17" transform="rotate(-180 29.5 13.955)" data-color-action="fill" style="fill:inherit"/></g><path id="c59_border" d="M0 0h59v66H0z" class="c9-cls-7"/></defs></g></svg>