<svg xmlns="http://www.w3.org/2000/svg" viewBox="0 0 59 283"><defs><style>.a20-cls-1{isolation:isolate}.a20-cls-2,.a20-cls-25{fill:#c5c7c9}.a20-cls-25{stroke:none}.a20-cls-2{stroke:#c5c7c9;stroke-width:5px}.a20-cls-19,.a20-cls-2,.a20-cls-22,.a20-cls-24,.a20-cls-26,.a20-cls-27,.a20-cls-30,.a20-cls-32,.a20-cls-33{stroke-miterlimit:10}.a20-cls-3{fill:#f5d7cf;stroke:none}.a20-cls-4,.a20-cls-5{fill:#f2c6bc;stroke:none}.a20-cls-5{fill:#fae8e3}.a20-cls-6,.a20-cls-7{fill:#eeefef;stroke:none}.a20-cls-7{fill:#e2e3e4}.a20-cls-8,.a20-cls-9{fill:#fbfbfb;stroke:none}.a20-cls-9{font-size:15px;fill:#929497;font-family:ProximaNova-Semibold,Proxima Nova,sans-serif;font-weight:700}.a20-cls-10,.a20-cls-28,.a20-cls-36{fill:#3c3d3d;stroke:none}.a20-cls-10{opacity:.55}.a20-cls-11{fill:#ffd403;stroke:none}.a20-cls-13,.a20-cls-21{fill:#ffef3e;stroke:none}.a20-cls-14,.a20-cls-20{fill:#c52636;stroke:none}.a20-cls-15{fill:none;stroke:none}.a20-cls-19,.a20-cls-22,.a20-cls-24,.a20-cls-26,.a20-cls-27,.a20-cls-30,.a20-cls-32,.a20-cls-33{fill:none}.a20-cls-16,.a20-cls-37{fill:#28418b;stroke:none}.a20-cls-17,.a20-cls-18{fill:#787878;stroke:none}.a20-cls-19,.a20-cls-22,.a20-cls-24,.a20-cls-30,.a20-cls-32,.a20-cls-33{stroke:#c52636}.a20-cls-19,.a20-cls-22,.a20-cls-27{stroke-width:2px}.a20-cls-22{stroke-linecap:round}.a20-cls-23{fill:#fff;stroke:none}.a20-cls-26,.a20-cls-27{stroke:#28418b}.a20-cls-26{stroke-width:3px}.a20-cls-29{opacity:.6}.a20-cls-30{stroke-width:4px}.a20-cls-31{fill:#f05b85;stroke:none}.a20-cls-32,.a20-cls-33{stroke-width:1.25px}.a20-cls-34{fill:#9b9999;stroke:none}.a20-cls-35{fill:#dbdbdc;stroke:none}.b20-cls-1{isolation:isolate}.b20-cls-2{fill:#c5c7c9;stroke:#c5c7c9;stroke-width:5px}.b20-cls-17,.b20-cls-18,.b20-cls-2{stroke-miterlimit:10}.b20-cls-3,.b20-cls-4{fill:#eeefef;stroke:none}.b20-cls-4{fill:#e2e3e4}.b20-cls-5,.b20-cls-6{fill:#e0e0e0;stroke:none}.b20-cls-6{fill:#fcfcfc}.b20-cls-15,.b20-cls-7{fill:#3c3d3d;stroke:none}.b20-cls-7{opacity:.55}.b20-cls-17,.b20-cls-18{fill:none}.b20-cls-8{fill:none;stroke:none}.b20-cls-14,.b20-cls-9{fill:#787878;stroke:none}.b20-cls-10{font-size:33px;fill:#28418b;font-family:ProximaNova-Semibold,Proxima Nova,sans-serif;font-weight:700;stroke:none}.b20-cls-11{fill:#fff;stroke:none}.b20-cls-13{fill:#c52636;stroke:none}.b20-cls-16{fill:#ffef3e;stroke:none}.b20-cls-17,.b20-cls-18{stroke:#c52636;stroke-width:1.25px}.c20-cls-1{isolation:isolate}.c20-cls-16,.c20-cls-2{fill:#c5c7c9;stroke:none}.c20-cls-2{stroke:#c5c7c9;stroke-width:5px}.c20-cls-2,.c20-cls-20,.c20-cls-21{stroke-miterlimit:10}.c20-cls-3{fill:#eeefef;stroke:none}.c20-cls-4,.c20-cls-5{fill:#e2e3e4;stroke:none}.c20-cls-5{fill:#fbfbfb}.c20-cls-17,.c20-cls-6{fill:#3c3d3d;stroke:none}.c20-cls-6{opacity:.55}.c20-cls-20,.c20-cls-21{fill:none}.c20-cls-7,.c20-cls-9{fill:none;stroke:none}.c20-cls-9{fill:#28418b}.c20-cls-10,.c20-cls-11{fill:#787878;stroke:none}.c20-cls-12,.c20-cls-19{fill:#ffef3e;stroke:none}.c20-cls-13{fill:#fff;stroke:none}.c20-cls-14,.c20-cls-15{fill:#c52636;stroke:none}.c20-cls-18{opacity:.6}.c20-cls-20,.c20-cls-21{stroke:#c52636;stroke-width:1.25px}.a20-msng-cls-1{isolation:isolate}.a20-msng-cls-2{fill:#c5c7c9;stroke:#c5c7c9;stroke-width:5px}.a20-msng-cls-11,.a20-msng-cls-2{stroke-miterlimit:10}.a20-msng-cls-3{fill:#f5d7cf;stroke:none}.a20-msng-cls-4{fill:#f2c6bc;stroke:none}.a20-msng-cls-5{fill:#fae8e3;stroke:none}.a20-msng-cls-6{fill:#eeefef;stroke:none}.a20-msng-cls-7{fill:#e2e3e4;stroke:none}.a20-msng-cls-8{fill:#fbfbfb;stroke:none}.a20-msng-cls-9{font-size:15px;fill:#929497;font-family:ProximaNova-Semibold,Proxima Nova;font-weight:700;stroke:none}.a20-msng-cls-11{fill:none}.a20-msng-cls-12{fill:none;stroke:none}.a20-msng-cls-11{stroke:#787878;stroke-width:6.25px}</style></defs><g class="a20-cls-1" transform="translate(0 122)"><g id="_20A" data-name="#20A"><path d="M29 8.09C25.94 7.83 14.28 16 12.49 18.72s4 19.11 5.34 22.52a235.92 235.92 0 0 0 1 30.08c1.48 15.41 8.63 34 10.48 33.41s1.48-20 2.71-33.9a172.56 172.56 0 0 1 5.1-28.42 1.65 1.65 0 0 0 .82-.63c1.15-2.31 9.22-21.13 8.84-23.69S32.08 8.34 29 8.09z" class="a20-cls-2"/><path d="M18 38.89c-.41 3.2-.62 17 .86 32.42s8.63 34 10.48 33.41 1.48-20 2.71-33.9a166.49 166.49 0 0 1 5.55-30c.99-3.04-18.24-12.53-19.6-1.93z" class="a20-cls-3"/><path d="M21 70.8c-.72-7.53-.9-24.38-.9-27.78a3.91 3.91 0 0 0-2.16-3.32 220.52 220.52 0 0 0 .94 31.63A107.78 107.78 0 0 0 25.81 99c-.6-2.63-1.33-6-1.81-8.84-.86-5.74-2.3-11.83-3-19.36zM37.61 40.87a1.2 1.2 0 0 0-.18-.93c-.63-.06-1.3.42-1.74 1.46-1.08 2.51-4.12 19.54-4.84 25.45a119 119 0 0 0-.36 19.36c.15 1.9.34 3.56.51 5.12.26-6.39.49-14 1.06-20.51a166.49 166.49 0 0 1 5.55-29.95z" class="a20-cls-4"/><path d="M29.9 42.61c-.45 2.95-2 16.65-2.48 27.9-.46 11.7.73 30.68 1.31 30.68s-.3-21 .58-31.85a200.33 200.33 0 0 1 4.38-27c.6-2.65-3.2-3.52-3.79.27z" class="a20-cls-5"/><path d="M18 41.64c-.93-2.16-7.3-20.24-5.51-22.92S25.94 7.83 29 8.09s17.42 7.43 17.8 10-7.67 21.37-8.8 23.68-18.85 2.56-20-.13z" class="a20-cls-6"/><path d="M15.87 17.27a17.61 17.61 0 0 1 2.2-3.44 28.06 28.06 0 0 0-5.58 4.88c-1.79 2.7 4.58 20.77 5.51 22.93.26.61 1.38 1.07 3 1.39-.82-2.35-6.42-22.53-5.13-25.76zM46.81 18.08c-.14-.93-2.11-2.46-4.72-4.05a5.27 5.27 0 0 1 1.3 2.47c.18 3-6.18 22.66-7.48 26.32 1.09-.28 1.85-.63 2.06-1 1.16-2.36 9.23-21.18 8.84-23.74z" class="a20-cls-7"/><path d="M33.9 9.77c-.31 5.68-1 13.64-1.68 18.84s-2.14 12-2.73 14.94c1.12 0 2.21-.11 3.22-.21.81-3.34 2.58-9.07 3.29-14.24.76-5.64 2.09-12.71 2.54-17.09-1.54-.83-3.19-1.6-4.64-2.24z" class="a20-cls-8"/><text class="a20-cls-9" transform="translate(20.89 150.74)">70</text></g><defs><g id="a70_bone_graft" data-name="bone graft"><path d="M2 42h55v95.69H2z" class="a20-cls-16" transform="rotate(-180 29.5 89.845)" data-color-action="fill" style="fill:inherit"/><path d="M29 8.09C25.94 7.83 14.28 16 12.49 18.72s4 19.11 5.34 22.52a235.92 235.92 0 0 0 1 30.08c1.48 15.41 8.63 34 10.48 33.41s1.48-20 2.71-33.9a172.56 172.56 0 0 1 5.1-28.42 1.65 1.65 0 0 0 .82-.63c1.15-2.31 9.22-21.13 8.84-23.69S32.08 8.34 29 8.09z" class="a20-cls-2"/><path d="M18 38.89c-.41 3.2-.62 17 .86 32.42s8.63 34 10.48 33.41 1.48-20 2.71-33.9a166.49 166.49 0 0 1 5.55-30c.99-3.04-18.24-12.53-19.6-1.93z" class="a20-cls-3"/><path d="M21 70.8c-.72-7.53-.9-24.38-.9-27.78a3.91 3.91 0 0 0-2.16-3.32 220.52 220.52 0 0 0 .94 31.63A107.78 107.78 0 0 0 25.81 99c-.6-2.63-1.33-6-1.81-8.84-.86-5.74-2.3-11.83-3-19.36zM37.61 40.87a1.2 1.2 0 0 0-.18-.93c-.63-.06-1.3.42-1.74 1.46-1.08 2.51-4.12 19.54-4.84 25.45a119 119 0 0 0-.36 19.36c.15 1.9.34 3.56.51 5.12.26-6.39.49-14 1.06-20.51a166.49 166.49 0 0 1 5.55-29.95z" class="a20-cls-4"/><path d="M29.9 42.61c-.45 2.95-2 16.65-2.48 27.9-.46 11.7.73 30.68 1.31 30.68s-.3-21 .58-31.85a200.33 200.33 0 0 1 4.38-27c.6-2.65-3.2-3.52-3.79.27z" class="a20-cls-5"/><path d="M18 41.64c-.93-2.16-7.3-20.24-5.51-22.92S25.94 7.83 29 8.09s17.42 7.43 17.8 10-7.67 21.37-8.8 23.68-18.85 2.56-20-.13z" class="a20-cls-6"/><path d="M15.87 17.27a17.61 17.61 0 0 1 2.2-3.44 28.06 28.06 0 0 0-5.58 4.88c-1.79 2.7 4.58 20.77 5.51 22.93.26.61 1.38 1.07 3 1.39-.82-2.35-6.42-22.53-5.13-25.76zM46.81 18.08c-.14-.93-2.11-2.46-4.72-4.05a5.27 5.27 0 0 1 1.3 2.47c.18 3-6.18 22.66-7.48 26.32 1.09-.28 1.85-.63 2.06-1 1.16-2.36 9.23-21.18 8.84-23.74z" class="a20-cls-7"/><path d="M33.9 9.77c-.31 5.68-1 13.64-1.68 18.84s-2.14 12-2.73 14.94c1.12 0 2.21-.11 3.22-.21.81-3.34 2.58-9.07 3.29-14.24.76-5.64 2.09-12.71 2.54-17.09-1.54-.83-3.19-1.6-4.64-2.24z" class="a20-cls-8"/></g><g id="a70_splinted_crowns" data-name="splinted crowns"><path d="M2 41.42h55v7.67H2z" class="a20-cls-21" transform="rotate(-180 29.5 45.255)" data-color-action="fill" style="fill:inherit"/><path d="M29 8.09C25.94 7.83 14.28 16 12.49 18.72s4 19.11 5.34 22.52a235.92 235.92 0 0 0 1 30.08c1.48 15.41 8.63 34 10.48 33.41s1.48-20 2.71-33.9a172.56 172.56 0 0 1 5.1-28.42 1.65 1.65 0 0 0 .82-.63c1.15-2.31 9.22-21.13 8.84-23.69S32.08 8.34 29 8.09z" class="a20-cls-2"/><path d="M18 38.89c-.41 3.2-.62 17 .86 32.42s8.63 34 10.48 33.41 1.48-20 2.71-33.9a166.49 166.49 0 0 1 5.55-30c.99-3.04-18.24-12.53-19.6-1.93z" class="a20-cls-3"/><path d="M21 70.8c-.72-7.53-.9-24.38-.9-27.78a3.91 3.91 0 0 0-2.16-3.32 220.52 220.52 0 0 0 .94 31.63A107.78 107.78 0 0 0 25.81 99c-.6-2.63-1.33-6-1.81-8.84-.86-5.74-2.3-11.83-3-19.36zM37.61 40.87a1.2 1.2 0 0 0-.18-.93c-.63-.06-1.3.42-1.74 1.46-1.08 2.51-4.12 19.54-4.84 25.45a119 119 0 0 0-.36 19.36c.15 1.9.34 3.56.51 5.12.26-6.39.49-14 1.06-20.51a166.49 166.49 0 0 1 5.55-29.95z" class="a20-cls-4"/><path d="M29.9 42.61c-.45 2.95-2 16.65-2.48 27.9-.46 11.7.73 30.68 1.31 30.68s-.3-21 .58-31.85a200.33 200.33 0 0 1 4.38-27c.6-2.65-3.2-3.52-3.79.27z" class="a20-cls-5"/><path d="M18 41.64c-.93-2.16-7.3-20.24-5.51-22.92S25.94 7.83 29 8.09s17.42 7.43 17.8 10-7.67 21.37-8.8 23.68-18.85 2.56-20-.13z" class="a20-cls-6"/><path d="M15.87 17.27a17.61 17.61 0 0 1 2.2-3.44 28.06 28.06 0 0 0-5.58 4.88c-1.79 2.7 4.58 20.77 5.51 22.93.26.61 1.38 1.07 3 1.39-.82-2.35-6.42-22.53-5.13-25.76zM46.81 18.08c-.14-.93-2.11-2.46-4.72-4.05a5.27 5.27 0 0 1 1.3 2.47c.18 3-6.18 22.66-7.48 26.32 1.09-.28 1.85-.63 2.06-1 1.16-2.36 9.23-21.18 8.84-23.74z" class="a20-cls-7"/><path d="M33.9 9.77c-.31 5.68-1 13.64-1.68 18.84s-2.14 12-2.73 14.94c1.12 0 2.21-.11 3.22-.21.81-3.34 2.58-9.07 3.29-14.24.76-5.64 2.09-12.71 2.54-17.09-1.54-.83-3.19-1.6-4.64-2.24z" class="a20-cls-8"/></g><path id="a70_buccal_V" d="M35.77 42.85c-4.45 1.07-14.16 1-17-.52a16.63 16.63 0 0 1 8.58-2.25 15.94 15.94 0 0 1 8.42 2.77z" class="a20-cls-10" data-color-action="fill" style="fill:inherit" data-name="buccal V"/><ellipse id="a70_buccal" cx="28.5" cy="27.28" class="a20-cls-10" rx="4.69" ry="8.25" data-color-action="fill" style="fill:inherit"/><path id="a70_mesial" d="M12.49 18.72a7.23 7.23 0 0 1 .84-1l5 2.43c-2.45 2.43-.57 7.92.23 10.48.31 1-.37 2.73-3.34 2.85-1.92-5.93-3.81-13.14-2.73-14.76z" class="a20-cls-10" data-color-action="fill" style="fill:inherit"/><path id="a70_line_angle_2" d="M22 17a32.05 32.05 0 0 0-3.64 3.08l-5-2.43A51 51 0 0 1 20.72 12z" class="a20-cls-10" data-color-action="fill" style="fill:inherit" data-name="line angle 2"/><path id="a70_cusp_1" d="M29 8.09c1.27.11 4.47 1.39 7.81 3l-1.43 5.42a20 20 0 0 0-7-1.8A10.47 10.47 0 0 0 22 17l-1.24-5C24.1 9.78 27.54 8 29 8.09z" class="a20-cls-10" data-color-action="fill" style="fill:inherit" data-name="cusp 1"/><path id="a70_line_angle_1" d="M46.81 18.08a2.38 2.38 0 0 1 0 .59L40 21.23a5.92 5.92 0 0 0-.44-1.18 8.79 8.79 0 0 0-4.21-3.5l1.43-5.42c4.78 2.35 9.81 5.44 10.03 6.95z" class="a20-cls-10" data-color-action="fill" style="fill:inherit" data-name="line angle 1"/><path id="a70_distal" d="M39 30.48c.72-2.48 1.78-6.43 1-9.25l6.76-2.56c-.29 2.39-2.92 9.22-5.26 14.88-1.75-.37-3.02-1.29-2.5-3.07z" class="a20-cls-10" data-color-action="fill" style="fill:inherit"/><path id="a70_veneer" d="M18 41.64c-.93-2.16-7.3-20.24-5.51-22.92S25.94 7.83 29 8.09s17.42 7.43 17.8 10-7.67 21.37-8.8 23.68-18.85 2.56-20-.13z" class="a20-cls-12 a20-cls-13" data-color-action="fill" style="fill:inherit"/><path id="a70_tissue_graft" d="M10.03 57.34L27.5 43.45l17.47 13.89H10.03z" class="a20-cls-14" data-color-action="fill" style="fill:inherit" data-name="tissue graft"/><path id="a70_tipped_lingual" d="M28 154.75h3v3h-3z" class="a20-cls-15" transform="rotate(-180 29.5 156.25)" data-name="tipped lingual"/><g id="a70_tipped_facial" class="a20-cls-12" data-name="tipped facial"><path d="M33.15 5.5c-1.26-3.37-4.74-3.85-7.69 5.32-.5 1.56-4.42 1.76-3.84 0 2-6.08 5.31-10.2 9.06-9.27a4.86 4.86 0 0 1 3 3.38c-.19.17-.42.42-.53.57z" class="a20-cls-16" data-color-action="fill" style="fill:inherit"/><path d="M31.07 8.42H18.13l2.94 9.64 10-9.64z" class="a20-cls-16" data-color-action="fill" style="fill:inherit"/></g><path id="a70_surface_restoration_mesial" d="M12.49 18.72c-1 1.54.62 8.1 2.39 13.85a11.52 11.52 0 0 1 6.81 6c-1-6.53-2-14.56-2.38-16.79.6-.52 1.36-1.11 2.2-1.73l-4.63-5.26a23 23 0 0 0-4.39 3.93z" class="a20-cls-17" data-color-action="fill" style="fill:inherit" data-name="surface restoration mesial"/><path id="a70_surface_restoration_buccal" d="M33.72 40.59a11.41 11.41 0 0 1 1.48-3.37c1.47-6.52 3-14.22 3.9-16.83a66.86 66.86 0 0 0-10.1-5.1 55 55 0 0 0-9.65 6.43C19.66 24 20.64 32 21.68 38.51a11.49 11.49 0 0 1 .82 2.29 13.79 13.79 0 0 1 11.22-.21z" class="a20-cls-12 a20-cls-18" data-color-action="fill" style="fill:inherit" data-name="surface restoration buccal"/><path id="a70_surface_restoration_buccal_V" d="M33.35 43.26a11.52 11.52 0 0 1 .38-2.68 13.79 13.79 0 0 0-11.22.21 11.42 11.42 0 0 1 .32 2.51 48.52 48.52 0 0 0 10.52-.04z" class="a20-cls-12 a20-cls-18" data-color-action="fill" style="fill:inherit" data-name="surface restoration buccal V"/><path id="a70_surface_restoration_distal" d="M42.94 14.55l-5.21 5c.49.28 1 .56 1.37.82-.88 2.63-2.42 10.33-3.9 16.85a11.5 11.5 0 0 1 6.8-4.86c2.44-6 5-12.81 4.79-14.28-.1-.83-1.67-2.13-3.85-3.53z" class="a20-cls-17" data-color-action="fill" style="fill:inherit" data-name="surface restoration distal"/><path id="a70_surface_restoration_occlusal" d="M29 8.09c-2.05-.17-7.93 3.43-12.15 6.64L21.5 20a50.44 50.44 0 0 1 7.5-4.71 66 66 0 0 1 8.78 4.28l5.21-5C38.36 11.61 31.1 8.26 29 8.09z" class="a20-cls-17" data-color-action="fill" style="fill:inherit" data-name="surface restoration occlusal"/><g id="a70_supra-erupted" class="a20-cls-12"><path d="M27.5 50.12v7.67" class="a20-cls-19" data-color-action="stroke" style="stroke:inherit"/><path d="M23.51 51.28l3.99-6.9 3.99 6.9h-7.98z" class="a20-cls-20" data-color-action="fill" style="fill:inherit"/></g><g id="a70_sub-erupted" class="a20-cls-12"><path d="M27.5 52.05v-7.67" class="a20-cls-19" data-color-action="stroke" style="stroke:inherit"/><path d="M31.49 50.89l-3.99 6.9-3.99-6.9h7.98z" class="a20-cls-20" data-color-action="fill" style="fill:inherit"/></g><path id="a70_sealant" d="M28 154.75h3v3h-3z" class="a20-cls-15" transform="rotate(-180 29.5 156.25)"/><g id="a70_rotated_mesial" class="a20-cls-12" data-name="rotated mesial"><path d="M53.13 32.82c3-1.79 2.3-5.46-10.23-5.81-5.3-.15-8.95 0-8.95 0L34 24s1-.07 8.22.24c7.62.32 14 1.83 13.75 6a4 4 0 0 1-2.31 2.92c-.15-.16-.4-.27-.53-.34z" class="a20-cls-16" data-color-action="fill" style="fill:inherit"/><path d="M40.43 31.53V19.64l-10.4 5.9 10.4 5.99z" class="a20-cls-16" data-color-action="fill" style="fill:inherit"/></g><g id="a70_rotated_distal" class="a20-cls-12" data-name="rotated distal"><path d="M5.87 32.82C2.88 31 3.56 27.36 16.1 27c5.3-.15 8.95 0 8.95 0L25 24s-1-.07-8.22.24c-7.62.32-14 1.83-13.75 6a4 4 0 0 0 2.31 2.92c.15-.16.4-.27.53-.34z" class="a20-cls-16" data-color-action="fill" style="fill:inherit"/><path d="M18.57 31.53V19.64l10.4 5.9-10.4 5.99z" class="a20-cls-16" data-color-action="fill" style="fill:inherit"/></g><circle id="a70_root_decay" cx="26.67" cy="86.33" r="4.33" class="a20-cls-12 a20-cls-18" data-color-action="fill" style="fill:inherit" data-name="root decay"/><path id="a70_root_canal" d="M28.33 100.5L27 46.17" class="a20-cls-22" data-color-action="stroke" style="stroke:inherit" data-name="root canal"/><path id="a70_root_abrasion" d="M24.25 77.83h3.5v13.83h-3.5z" class="a20-cls-12 a20-cls-24" transform="rotate(-180 26 84.75)" data-color-action="stroke" style="stroke:inherit" data-name="root abrasion"/><g id="a70_post"><path d="M26.35 30.84h3.14v41.77h-3.14z" class="a20-cls-18" transform="rotate(-180 27.925 51.725)" data-color-action="fill" style="fill:inherit"/><path d="M28.16 30.84h.47v41.77h-.47z" class="a20-cls-25" transform="rotate(-180 28.395 51.725)"/></g><g id="a70_pins"><path d="M29.26 35.84h2.42v23.43h-2.42z" class="a20-cls-18" transform="rotate(-180 30.465 47.555)" data-color-action="fill" style="fill:inherit"/><path d="M30.65 35.84h.36v23.43h-.36z" class="a20-cls-25" transform="rotate(-180 30.83 47.555)"/><path d="M24.67 35.84h2.42v23.43h-2.42z" class="a20-cls-18" transform="rotate(-180 25.885 47.555)" data-color-action="fill" style="fill:inherit"/><path d="M26.06 35.84h.36v23.43h-.36z" class="a20-cls-25" transform="rotate(-180 26.245 47.555)"/></g><path id="a70_open_contact_mesial" d="M25.31 51l-7.5-4.75-7.5 4.75" class="a20-cls-26" data-color-action="stroke" style="stroke:inherit" data-name="open contact mesial"/><path id="a70_open_contact_distal" d="M45.33 51l-7.5-4.75-7.5 4.75" class="a20-cls-26" data-color-action="stroke" style="stroke:inherit" data-name="open contact distal"/><g id="a70_mesial_drift" class="a20-cls-12" data-name="mesial drift"><path d="M26.41 27.84h11.92" class="a20-cls-27" data-color-action="stroke" style="stroke:inherit"/><path d="M27.57 31.82l-6.9-3.98 6.9-3.99v7.97z" class="a20-cls-16" data-color-action="fill" style="fill:inherit"/></g><path id="a70_lingual_abfraction" d="M28 154.75h3v3h-3z" class="a20-cls-15" transform="rotate(-180 29.5 156.25)" data-name="lingual abfraction"/><ellipse id="a70_internal_root_resorption" cx="27" cy="84.17" class="a20-cls-12 a20-cls-20" rx="3.34" ry="8.27" transform="rotate(-4.8 26.946 84.186)" data-color-action="fill" style="fill:inherit" data-name="internal root resorption"/><g id="a70_impacted_mesial" class="a20-cls-12" data-name="impacted mesial"><ellipse cx="29.49" cy="59.7" class="a20-cls-27" rx="24.15" ry="58.3" data-color-action="stroke" style="stroke:inherit"/><path d="M40.89 59.7h12.76" class="a20-cls-27" data-color-action="stroke" style="stroke:inherit"/><path d="M42.06 63.69l-6.91-3.99 6.91-3.99v7.98z" class="a20-cls-16" data-color-action="fill" style="fill:inherit"/></g><g id="a70_impacted_distal" class="a20-cls-12" data-name="impacted distal"><ellipse cx="29.5" cy="59.7" class="a20-cls-27" rx="24.15" ry="58.3" data-color-action="stroke" style="stroke:inherit"/><path d="M18.09 59.7H5.33" class="a20-cls-27" data-color-action="stroke" style="stroke:inherit"/><path d="M16.93 55.71l6.9 3.99-6.9 3.99v-7.98z" class="a20-cls-16" data-color-action="fill" style="fill:inherit"/></g><path id="a70_gortex_membranes" d="M2 40.75h55v16.42H2z" class="a20-cls-14" transform="rotate(-180 29.5 48.955)" data-color-action="fill" style="fill:inherit" data-name="gortex membranes"/><path id="a70_frenum_pull" d="M37.49 45.41l-10.66 6.75-10.65-6.75" class="a20-cls-30" data-color-action="stroke" style="stroke:inherit" data-name="frenum pull"/><path id="a70_external_root_resorption" d="M27.8 75.61c-.42 5.19 1.89 7.57 3.48 8.58.18-4.51.41-9.19.78-13.37q.16-1.78.36-3.53c-1.73 1.02-4.22 3.32-4.62 8.32zm-9.13-6.5l.2 2.2a94.2 94.2 0 0 0 2.33 13.17 10.65 10.65 0 0 0 2.35-8 9.31 9.31 0 0 0-4.88-7.37z" class="a20-cls-12 a20-cls-20" data-color-action="fill" style="fill:inherit" data-name="external root resorption"/><g id="a70_distal_drift" class="a20-cls-12" data-name="distal drift"><path d="M32.59 27.84H20.67" class="a20-cls-27" data-color-action="stroke" style="stroke:inherit"/><path d="M31.43 23.85l6.9 3.99-6.9 3.98v-7.97z" class="a20-cls-16" data-color-action="fill" style="fill:inherit"/></g><path id="a70_three_quarter_crown" d="M13.52 27.83c-1.1-4.2-1.78-8-1-9.12C14.28 16 25.94 7.83 29 8.09s17.42 7.43 17.8 10c.17 1.1-1.24 5.23-3 9.76z" class="a20-cls-12 a20-cls-13" data-color-action="fill" style="fill:inherit" data-name="three quarter crown"/><path id="a70_crown" d="M18 41.64c-.93-2.16-7.3-20.24-5.51-22.92S25.94 7.83 29 8.09s17.42 7.43 17.8 10-7.67 21.37-8.8 23.68-18.85 2.56-20-.13z" class="a20-cls-12 a20-cls-13" data-color-action="fill" style="fill:inherit"/><path id="a70_cracked_surface_mesial" d="M17.66 32.17l-3.83-3.83h5.01l-5.01-4.74h5.01l-3.83-3.83" class="a20-cls-32" data-color-action="stroke" style="stroke:inherit" data-name="cracked surface mesial"/><path id="a70_cracked_surface_buccal" d="M30.83 32.17L27 28.34h5l-5-4.74h5l-3.83-3.83" class="a20-cls-32" data-color-action="stroke" style="stroke:inherit" data-name="cracked surface buccal"/><path id="a70_cracked_surface_buccal_V" d="M30.83 32.17L27 28.34h5l-5-4.74h5l-3.83-3.83" class="a20-cls-32" data-color-action="stroke" style="stroke:inherit" data-name="cracked surface buccal V"/><path id="a70_cracked_surface_distal" d="M44.66 32.17l-3.83-3.83h5l-5-4.74h5L42 19.77" class="a20-cls-32" data-color-action="stroke" style="stroke:inherit" data-name="cracked surface distal"/><g id="a70_chipped_surface_mesial" class="a20-cls-12" data-name="chipped surface mesial"><path d="M21.17 30.5l-8.33-8.33M12.84 30.5l8.33-8.33" class="a20-cls-33" data-color-action="stroke" style="stroke:inherit"/></g><g id="a70_chipped_surface_buccal" class="a20-cls-12" data-name="chipped surface buccal"><path d="M33.33 30.5L25 22.17M25 30.5l8.33-8.33" class="a20-cls-33" data-color-action="stroke" style="stroke:inherit"/></g><g id="a70_chipped_surface_buccal_V" class="a20-cls-12" data-name="chipped surface buccal V"><path d="M33.33 30.5L25 22.17M25 30.5l8.33-8.33" class="a20-cls-33" data-color-action="stroke" style="stroke:inherit"/></g><g id="a70_chipped_surface_distal" class="a20-cls-12" data-name="chipped surface distal"><path d="M46.33 30.5L38 22.17M38 30.5l8.33-8.33" class="a20-cls-33" data-color-action="stroke" style="stroke:inherit"/></g><path id="a70_buccal_abfraction" d="M15.89 43.42A20.1 20.1 0 0 1 27 39.5a20.1 20.1 0 0 1 11.11 3.92A20.1 20.1 0 0 1 27 47.34a20.1 20.1 0 0 1-11.11-3.92z" class="a20-cls-14" data-color-action="fill" style="fill:inherit" data-name="buccal abfraction"/><g id="a70_braces"><path d="M22.96 17.84h13.45v18.19H22.96z" class="a20-cls-25" transform="rotate(-180 29.69 26.935)"/><path d="M22.96 17.84h13.45v.68H22.96z" class="a20-cls-34" transform="rotate(-180 29.69 18.18)" data-color-action="fill" style="fill:inherit"/><path d="M22.96 25.43h13.45v1.36H22.96z" class="a20-cls-34" transform="rotate(-180 29.69 26.11)" data-color-action="fill" style="fill:inherit"/><path d="M22.96 35.14h13.45v.89H22.96z" class="a20-cls-35" transform="rotate(-180 29.69 35.585)" data-color-action="fill" style="fill:inherit"/><rect width="4.11" height="7.94" x="32.59" y="28.07" class="a20-cls-28" rx=".49" ry=".49" transform="rotate(-180 34.64 32.04)" data-color-action="fill" style="fill:inherit"/><path d="M33.08 36h3.13a.49.49 0 0 0 .49-.49v-5.83a13.14 13.14 0 0 0-4.11 0v5.83a.49.49 0 0 0 .49.49z" class="a20-cls-18" data-color-action="fill" style="fill:inherit"/><path d="M32.92 34.6v1.11a.16.16 0 0 0 .16.16h3.13a.16.16 0 0 0 .16-.16V34.6z" class="a20-cls-25"/><rect width="4.11" height="7.94" x="22.67" y="28.07" class="a20-cls-28" rx=".49" ry=".49" transform="rotate(-180 24.725 32.04)" data-color-action="fill" style="fill:inherit"/><path d="M23.16 36h3.13a.49.49 0 0 0 .49-.49v-5.83a13.14 13.14 0 0 0-4.11 0v5.83a.49.49 0 0 0 .49.49z" class="a20-cls-18" data-color-action="fill" style="fill:inherit"/><path d="M23 34.6v1.11a.16.16 0 0 0 .16.16h3.13a.16.16 0 0 0 .16-.16V34.6z" class="a20-cls-25"/><rect width="4.11" height="7.94" x="32.59" y="17.79" class="a20-cls-28" rx=".49" ry=".49" transform="rotate(-180 34.64 21.755)" data-color-action="fill" style="fill:inherit"/><path d="M33.08 25.72h3.13a.49.49 0 0 0 .49-.49V19.4a13.14 13.14 0 0 0-4.11 0v5.83a.49.49 0 0 0 .49.49z" class="a20-cls-18" data-color-action="fill" style="fill:inherit"/><path d="M32.92 24.32v1.11a.16.16 0 0 0 .16.16h3.13a.16.16 0 0 0 .16-.16v-1.11z" class="a20-cls-25"/><rect width="4.11" height="7.94" x="22.67" y="17.79" class="a20-cls-28" rx=".49" ry=".49" transform="rotate(-180 24.725 21.755)" data-color-action="fill" style="fill:inherit"/><path d="M23.16 25.72h3.13a.49.49 0 0 0 .49-.49V19.4a13.14 13.14 0 0 0-4.11 0v5.83a.49.49 0 0 0 .49.49z" class="a20-cls-18" data-color-action="fill" style="fill:inherit"/><path d="M23 24.32v1.11a.16.16 0 0 0 .16.16h3.13a.16.16 0 0 0 .16-.16v-1.11z" class="a20-cls-25"/><path d="M8.58 26.17h42.21v1.45H8.58z" class="a20-cls-18" transform="rotate(-180 29.685 26.895)" data-color-action="fill" style="fill:inherit"/><path d="M8.58 26.17h42.21v.25H8.58z" class="a20-cls-28" transform="rotate(-180 29.685 26.295)" data-color-action="fill" style="fill:inherit"/><path d="M8.58 27.02h42.21v.4H8.58z" class="a20-cls-25" transform="rotate(-180 29.685 27.22)"/></g><path id="a70_apicoectomy" d="M22.16 122.85l7.34-11.67 7.34 11.67H22.16z" class="a20-cls-17" data-color-action="fill" style="fill:inherit"/><circle id="a70_abscess" cx="29.5" cy="118.35" r="6.5" class="a20-cls-37" data-color-action="fill" style="fill:inherit"/><g id="a70_blunted_roots" data-name="blunted roots"><path d="M2 71h55v68H2z" class="a20-cls-23" transform="rotate(-180 29.5 105)"/><path d="M2 68.92h55v2H2z" class="a20-cls-36" transform="rotate(-180 29.5 69.915)" data-color-action="fill" style="fill:inherit"/></g><path id="a70_root_amputation" d="M2 43.74h55v95.59H2z" class="a20-cls-23" transform="rotate(-180 29.5 91.54)" data-name="root amputation"/><path id="a70_missing_crown" d="M2 1.83h55v41.86H2z" class="a20-cls-23" transform="rotate(-180 29.5 22.76)" data-name="missing crown"/><g id="a70_missing_tooth" data-name="missing tooth"><path d="M29 8.09C25.94 7.83 14.28 16 12.49 18.72s4 19.11 5.34 22.52a235.92 235.92 0 0 0 1 30.08c1.48 15.41 8.63 34 10.48 33.41s1.48-20 2.71-33.9a172.56 172.56 0 0 1 5.1-28.42 1.65 1.65 0 0 0 .82-.63c1.15-2.31 9.22-21.13 8.84-23.69S32.08 8.34 29 8.09z" class="a20-cls-2"/><path d="M18 38.89c-.41 3.2-.62 17 .86 32.42s8.63 34 10.48 33.41 1.48-20 2.71-33.9a166.49 166.49 0 0 1 5.55-30c.99-3.04-18.24-12.53-19.6-1.93z" class="a20-cls-23"/><path d="M21 70.8c-.72-7.53-.9-24.38-.9-27.78a3.91 3.91 0 0 0-2.16-3.32 220.52 220.52 0 0 0 .94 31.63A107.78 107.78 0 0 0 25.81 99c-.6-2.63-1.33-6-1.81-8.84-.86-5.74-2.3-11.83-3-19.36zM37.61 40.87a1.2 1.2 0 0 0-.18-.93c-.63-.06-1.3.42-1.74 1.46-1.08 2.51-4.12 19.54-4.84 25.45a119 119 0 0 0-.36 19.36c.15 1.9.34 3.56.51 5.12.26-6.39.49-14 1.06-20.51a166.49 166.49 0 0 1 5.55-29.95z" class="a20-cls-23"/><path d="M29.9 42.61c-.45 2.95-2 16.65-2.48 27.9-.46 11.7.73 30.68 1.31 30.68s-.3-21 .58-31.85a200.33 200.33 0 0 1 4.38-27c.6-2.65-3.2-3.52-3.79.27z" class="a20-cls-23"/><path d="M18 41.64c-.93-2.16-7.3-20.24-5.51-22.92S25.94 7.83 29 8.09s17.42 7.43 17.8 10-7.67 21.37-8.8 23.68-18.85 2.56-20-.13z" class="a20-cls-23"/><path d="M15.87 17.27a17.61 17.61 0 0 1 2.2-3.44 28.06 28.06 0 0 0-5.58 4.88c-1.79 2.7 4.58 20.77 5.51 22.93.26.61 1.38 1.07 3 1.39-.82-2.35-6.42-22.53-5.13-25.76zM46.81 18.08c-.14-.93-2.11-2.46-4.72-4.05a5.27 5.27 0 0 1 1.3 2.47c.18 3-6.18 22.66-7.48 26.32 1.09-.28 1.85-.63 2.06-1 1.16-2.36 9.23-21.18 8.84-23.74zM33.9 9.77c-.31 5.68-1 13.64-1.68 18.84s-2.14 12-2.73 14.94c1.12 0 2.21-.11 3.22-.21.81-3.34 2.58-9.07 3.29-14.24.76-5.64 2.09-12.71 2.54-17.09-1.54-.83-3.19-1.6-4.64-2.24z" class="a20-cls-23"/></g><g id="a70_extracted_tooth" class="a20-msng-cls-10" data-name="extracted tooth"><path d="M9 10.51l41.67 41.66M50.67 10.51L9 52.17" class="a20-msng-cls-11" data-color-action="stroke" style="stroke:inherit"/></g><g id="a70_denture"><path d="M2 2.83h55v135.01H2z" class="a20-cls-23" transform="rotate(-180 29.5 70.34)"/><path d="M57 60.78A22.63 22.63 0 0 1 44.78 64c-7.64 0-10-3.22-15.79-3.22S19.15 64 13.2 64A24.26 24.26 0 0 1 2 60.78V2.83h55z" class="a20-cls-31" data-color-action="fill" style="fill:inherit"/><path d="M18 41.64c-.93-2.16-7.3-20.24-5.51-22.92S25.94 7.83 29 8.09s17.42 7.43 17.8 10-7.67 21.37-8.8 23.68-18.85 2.56-20-.13z" class="a20-cls-2"/><path d="M18 41.64c-.93-2.16-7.3-20.24-5.51-22.92S25.94 7.83 29 8.09s17.42 7.43 17.8 10-7.67 21.37-8.8 23.68-18.85 2.56-20-.13z" class="a20-cls-6"/><path d="M15.87 17.27a17.61 17.61 0 0 1 2.2-3.44 28.06 28.06 0 0 0-5.58 4.88c-1.79 2.7 4.58 20.77 5.51 22.93.26.61 1.38 1.07 3 1.39-.82-2.35-6.42-22.53-5.13-25.76zM46.81 18.08c-.14-.93-2.11-2.46-4.72-4.05a5.27 5.27 0 0 1 1.3 2.47c.18 3-6.18 22.66-7.48 26.32 1.09-.28 1.85-.63 2.06-1 1.16-2.36 9.23-21.18 8.84-23.74z" class="a20-cls-7"/><path d="M33.9 9.77c-.31 5.68-1 13.64-1.68 18.84s-2.14 12-2.73 14.94c1.12 0 2.21-.11 3.22-.21.81-3.34 2.58-9.07 3.29-14.24.76-5.64 2.09-12.71 2.54-17.09-1.54-.83-3.19-1.6-4.64-2.24z" class="a20-cls-8"/></g><g id="a70_maryland_bridge_pontic" class="a20-cls-12" data-name="maryland bridge pontic"><path d="M18 41.64c-.93-2.16-7.3-20.24-5.51-22.92S25.94 7.83 29 8.09s17.42 7.43 17.8 10-7.67 21.37-8.8 23.68-18.85 2.56-20-.13z" class="a20-cls-20" data-color-action="fill" style="fill:inherit"/><path d="M2 22h55v7.67H2z" class="a20-cls-20" transform="rotate(-180 29.5 25.835)" data-color-action="fill" style="fill:inherit"/></g><g id="a70_maryland_bridge_abutment_mesial" data-name="maryland bridge abutment mesial"><path d="M2 22h34.98v7.67H2z" class="a20-cls-12 a20-cls-20" transform="rotate(-180 19.49 25.835)" data-color-action="fill" style="fill:inherit"/><path d="M29 8.09C25.94 7.83 14.28 16 12.49 18.72s4 19.11 5.34 22.52a235.92 235.92 0 0 0 1 30.08c1.48 15.41 8.63 34 10.48 33.41s1.48-20 2.71-33.9a172.56 172.56 0 0 1 5.1-28.42 1.65 1.65 0 0 0 .82-.63c1.15-2.31 9.22-21.13 8.84-23.69S32.08 8.34 29 8.09z" class="a20-cls-2"/><path d="M18 38.89c-.41 3.2-.62 17 .86 32.42s8.63 34 10.48 33.41 1.48-20 2.71-33.9a166.49 166.49 0 0 1 5.55-30c.99-3.04-18.24-12.53-19.6-1.93z" class="a20-cls-3"/><path d="M21 70.8c-.72-7.53-.9-24.38-.9-27.78a3.91 3.91 0 0 0-2.16-3.32 220.52 220.52 0 0 0 .94 31.63A107.78 107.78 0 0 0 25.81 99c-.6-2.63-1.33-6-1.81-8.84-.86-5.74-2.3-11.83-3-19.36zM37.61 40.87a1.2 1.2 0 0 0-.18-.93c-.63-.06-1.3.42-1.74 1.46-1.08 2.51-4.12 19.54-4.84 25.45a119 119 0 0 0-.36 19.36c.15 1.9.34 3.56.51 5.12.26-6.39.49-14 1.06-20.51a166.49 166.49 0 0 1 5.55-29.95z" class="a20-cls-4"/><path d="M29.9 42.61c-.45 2.95-2 16.65-2.48 27.9-.46 11.7.73 30.68 1.31 30.68s-.3-21 .58-31.85a200.33 200.33 0 0 1 4.38-27c.6-2.65-3.2-3.52-3.79.27z" class="a20-cls-5"/><path d="M18 41.64c-.93-2.16-7.3-20.24-5.51-22.92S25.94 7.83 29 8.09s17.42 7.43 17.8 10-7.67 21.37-8.8 23.68-18.85 2.56-20-.13z" class="a20-cls-6"/><path d="M15.87 17.27a17.61 17.61 0 0 1 2.2-3.44 28.06 28.06 0 0 0-5.58 4.88c-1.79 2.7 4.58 20.77 5.51 22.93.26.61 1.38 1.07 3 1.39-.82-2.35-6.42-22.53-5.13-25.76zM46.81 18.08c-.14-.93-2.11-2.46-4.72-4.05a5.27 5.27 0 0 1 1.3 2.47c.18 3-6.18 22.66-7.48 26.32 1.09-.28 1.85-.63 2.06-1 1.16-2.36 9.23-21.18 8.84-23.74z" class="a20-cls-7"/><path d="M33.9 9.77c-.31 5.68-1 13.64-1.68 18.84s-2.14 12-2.73 14.94c1.12 0 2.21-.11 3.22-.21.81-3.34 2.58-9.07 3.29-14.24.76-5.64 2.09-12.71 2.54-17.09-1.54-.83-3.19-1.6-4.64-2.24z" class="a20-cls-8"/></g><g id="a70_maryland_bridge_abutment_distal" data-name="maryland bridge abutment distal"><path d="M22.02 22H57v7.67H22.02z" class="a20-cls-12 a20-cls-20" transform="rotate(-180 39.51 25.835)" data-color-action="fill" style="fill:inherit"/><path d="M29 8.09C25.94 7.83 14.28 16 12.49 18.72s4 19.11 5.34 22.52a235.92 235.92 0 0 0 1 30.08c1.48 15.41 8.63 34 10.48 33.41s1.48-20 2.71-33.9a172.56 172.56 0 0 1 5.1-28.42 1.65 1.65 0 0 0 .82-.63c1.15-2.31 9.22-21.13 8.84-23.69S32.08 8.34 29 8.09z" class="a20-cls-2"/><path d="M18 38.89c-.41 3.2-.62 17 .86 32.42s8.63 34 10.48 33.41 1.48-20 2.71-33.9a166.49 166.49 0 0 1 5.55-30c.99-3.04-18.24-12.53-19.6-1.93z" class="a20-cls-3"/><path d="M21 70.8c-.72-7.53-.9-24.38-.9-27.78a3.91 3.91 0 0 0-2.16-3.32 220.52 220.52 0 0 0 .94 31.63A107.78 107.78 0 0 0 25.81 99c-.6-2.63-1.33-6-1.81-8.84-.86-5.74-2.3-11.83-3-19.36zM37.61 40.87a1.2 1.2 0 0 0-.18-.93c-.63-.06-1.3.42-1.74 1.46-1.08 2.51-4.12 19.54-4.84 25.45a119 119 0 0 0-.36 19.36c.15 1.9.34 3.56.51 5.12.26-6.39.49-14 1.06-20.51a166.49 166.49 0 0 1 5.55-29.95z" class="a20-cls-4"/><path d="M29.9 42.61c-.45 2.95-2 16.65-2.48 27.9-.46 11.7.73 30.68 1.31 30.68s-.3-21 .58-31.85a200.33 200.33 0 0 1 4.38-27c.6-2.65-3.2-3.52-3.79.27z" class="a20-cls-5"/><path d="M18 41.64c-.93-2.16-7.3-20.24-5.51-22.92S25.94 7.83 29 8.09s17.42 7.43 17.8 10-7.67 21.37-8.8 23.68-18.85 2.56-20-.13z" class="a20-cls-6"/><path d="M15.87 17.27a17.61 17.61 0 0 1 2.2-3.44 28.06 28.06 0 0 0-5.58 4.88c-1.79 2.7 4.58 20.77 5.51 22.93.26.61 1.38 1.07 3 1.39-.82-2.35-6.42-22.53-5.13-25.76zM46.81 18.08c-.14-.93-2.11-2.46-4.72-4.05a5.27 5.27 0 0 1 1.3 2.47c.18 3-6.18 22.66-7.48 26.32 1.09-.28 1.85-.63 2.06-1 1.16-2.36 9.23-21.18 8.84-23.74z" class="a20-cls-7"/><path d="M33.9 9.77c-.31 5.68-1 13.64-1.68 18.84s-2.14 12-2.73 14.94c1.12 0 2.21-.11 3.22-.21.81-3.34 2.58-9.07 3.29-14.24.76-5.64 2.09-12.71 2.54-17.09-1.54-.83-3.19-1.6-4.64-2.24z" class="a20-cls-8"/></g><g id="a70_maryland_bridge_abutment" data-name="maryland bridge abutment"><path d="M2 22h55v7.67H2z" class="a20-cls-12 a20-cls-20" transform="rotate(-180 29.5 25.835)" data-color-action="fill" style="fill:inherit"/><path d="M29 8.09C25.94 7.83 14.28 16 12.49 18.72s4 19.11 5.34 22.52a235.92 235.92 0 0 0 1 30.08c1.48 15.41 8.63 34 10.48 33.41s1.48-20 2.71-33.9a172.56 172.56 0 0 1 5.1-28.42 1.65 1.65 0 0 0 .82-.63c1.15-2.31 9.22-21.13 8.84-23.69S32.08 8.34 29 8.09z" class="a20-cls-2"/><path d="M18 38.89c-.41 3.2-.62 17 .86 32.42s8.63 34 10.48 33.41 1.48-20 2.71-33.9a166.49 166.49 0 0 1 5.55-30c.99-3.04-18.24-12.53-19.6-1.93z" class="a20-cls-3"/><path d="M21 70.8c-.72-7.53-.9-24.38-.9-27.78a3.91 3.91 0 0 0-2.16-3.32 220.52 220.52 0 0 0 .94 31.63A107.78 107.78 0 0 0 25.81 99c-.6-2.63-1.33-6-1.81-8.84-.86-5.74-2.3-11.83-3-19.36zM37.61 40.87a1.2 1.2 0 0 0-.18-.93c-.63-.06-1.3.42-1.74 1.46-1.08 2.51-4.12 19.54-4.84 25.45a119 119 0 0 0-.36 19.36c.15 1.9.34 3.56.51 5.12.26-6.39.49-14 1.06-20.51a166.49 166.49 0 0 1 5.55-29.95z" class="a20-cls-4"/><path d="M29.9 42.61c-.45 2.95-2 16.65-2.48 27.9-.46 11.7.73 30.68 1.31 30.68s-.3-21 .58-31.85a200.33 200.33 0 0 1 4.38-27c.6-2.65-3.2-3.52-3.79.27z" class="a20-cls-5"/><path d="M18 41.64c-.93-2.16-7.3-20.24-5.51-22.92S25.94 7.83 29 8.09s17.42 7.43 17.8 10-7.67 21.37-8.8 23.68-18.85 2.56-20-.13z" class="a20-cls-6"/><path d="M15.87 17.27a17.61 17.61 0 0 1 2.2-3.44 28.06 28.06 0 0 0-5.58 4.88c-1.79 2.7 4.58 20.77 5.51 22.93.26.61 1.38 1.07 3 1.39-.82-2.35-6.42-22.53-5.13-25.76zM46.81 18.08c-.14-.93-2.11-2.46-4.72-4.05a5.27 5.27 0 0 1 1.3 2.47c.18 3-6.18 22.66-7.48 26.32 1.09-.28 1.85-.63 2.06-1 1.16-2.36 9.23-21.18 8.84-23.74z" class="a20-cls-7"/><path d="M33.9 9.77c-.31 5.68-1 13.64-1.68 18.84s-2.14 12-2.73 14.94c1.12 0 2.21-.11 3.22-.21.81-3.34 2.58-9.07 3.29-14.24.76-5.64 2.09-12.71 2.54-17.09-1.54-.83-3.19-1.6-4.64-2.24z" class="a20-cls-8"/></g><g id="a70_bridge_abutment_mesial" class="a20-cls-12" data-name="bridge abutment mesial"><path d="M2 22h34.98v7.67H2z" class="a20-cls-18" transform="rotate(-180 19.49 25.835)" data-color-action="fill" style="fill:inherit"/><path d="M18 41.64c-.93-2.16-7.3-20.24-5.51-22.92S25.94 7.83 29 8.09s17.42 7.43 17.8 10-7.67 21.37-8.8 23.68-18.85 2.56-20-.13z" class="a20-cls-18" data-color-action="fill" style="fill:inherit"/></g><g id="a70_bridge_abutment_distal" class="a20-cls-12" data-name="bridge abutment distal"><path d="M22.02 22H57v7.67H22.02z" class="a20-cls-18" transform="rotate(-180 39.51 25.835)" data-color-action="fill" style="fill:inherit"/><path d="M18 41.64c-.93-2.16-7.3-20.24-5.51-22.92S25.94 7.83 29 8.09s17.42 7.43 17.8 10-7.67 21.37-8.8 23.68-18.85 2.56-20-.13z" class="a20-cls-18" data-color-action="fill" style="fill:inherit"/></g><g id="a70_bridge_abutment" class="a20-cls-12" data-name="bridge abutment"><path d="M2 22h55v7.67H2z" class="a20-cls-18" transform="rotate(-180 29.5 25.835)" data-color-action="fill" style="fill:inherit"/><path d="M18 41.64c-.93-2.16-7.3-20.24-5.51-22.92S25.94 7.83 29 8.09s17.42 7.43 17.8 10-7.67 21.37-8.8 23.68-18.85 2.56-20-.13z" class="a20-cls-18" data-color-action="fill" style="fill:inherit"/></g><g id="a70_bridge_pontic" data-name="bridge pontic"><path d="M29 8.09C25.94 7.83 14.28 16 12.49 18.72s4 19.11 5.34 22.52a235.92 235.92 0 0 0 1 30.08c1.48 15.41 8.63 34 10.48 33.41s1.48-20 2.71-33.9a172.56 172.56 0 0 1 5.1-28.42 1.65 1.65 0 0 0 .82-.63c1.15-2.31 9.22-21.13 8.84-23.69S32.08 8.34 29 8.09z" class="a20-cls-2"/><path d="M18 38.89c-.41 3.2-.62 17 .86 32.42s8.63 34 10.48 33.41 1.48-20 2.71-33.9a166.49 166.49 0 0 1 5.55-30c.99-3.04-18.24-12.53-19.6-1.93z" class="a20-cls-23"/><path d="M21 70.8c-.72-7.53-.9-24.38-.9-27.78a3.91 3.91 0 0 0-2.16-3.32 220.52 220.52 0 0 0 .94 31.63A107.78 107.78 0 0 0 25.81 99c-.6-2.63-1.33-6-1.81-8.84-.86-5.74-2.3-11.83-3-19.36zM37.61 40.87a1.2 1.2 0 0 0-.18-.93c-.63-.06-1.3.42-1.74 1.46-1.08 2.51-4.12 19.54-4.84 25.45a119 119 0 0 0-.36 19.36c.15 1.9.34 3.56.51 5.12.26-6.39.49-14 1.06-20.51a166.49 166.49 0 0 1 5.55-29.95z" class="a20-cls-23"/><path d="M29.9 42.61c-.45 2.95-2 16.65-2.48 27.9-.46 11.7.73 30.68 1.31 30.68s-.3-21 .58-31.85a200.33 200.33 0 0 1 4.38-27c.6-2.65-3.2-3.52-3.79.27z" class="a20-cls-23"/><path d="M18 41.64c-.93-2.16-7.3-20.24-5.51-22.92S25.94 7.83 29 8.09s17.42 7.43 17.8 10-7.67 21.37-8.8 23.68-18.85 2.56-20-.13z" class="a20-cls-6"/><path d="M15.87 17.27a17.61 17.61 0 0 1 2.2-3.44 28.06 28.06 0 0 0-5.58 4.88c-1.79 2.7 4.58 20.77 5.51 22.93.26.61 1.38 1.07 3 1.39-.82-2.35-6.42-22.53-5.13-25.76zM46.81 18.08c-.14-.93-2.11-2.46-4.72-4.05a5.27 5.27 0 0 1 1.3 2.47c.18 3-6.18 22.66-7.48 26.32 1.09-.28 1.85-.63 2.06-1 1.16-2.36 9.23-21.18 8.84-23.74z" class="a20-cls-7"/><path d="M33.9 9.77c-.31 5.68-1 13.64-1.68 18.84s-2.14 12-2.73 14.94c1.12 0 2.21-.11 3.22-.21.81-3.34 2.58-9.07 3.29-14.24.76-5.64 2.09-12.71 2.54-17.09-1.54-.83-3.19-1.6-4.64-2.24z" class="a20-cls-8"/><g class="a20-cls-12"><path d="M2 22h55v7.67H2z" class="a20-cls-18" transform="rotate(-180 29.5 25.835)" data-color-action="fill" style="fill:inherit"/><path d="M18 41.64c-.93-2.16-7.3-20.24-5.51-22.92S25.94 7.83 29 8.09s17.42 7.43 17.8 10-7.67 21.37-8.8 23.68-18.85 2.56-20-.13z" class="a20-cls-18" data-color-action="fill" style="fill:inherit"/></g></g><g id="a70_implant_mini" data-name="implant mini"><path d="M1.61 1.79h55v137.17h-55z" class="a20-cls-23" transform="rotate(-180 29.115 70.375)"/><path d="M29.28 77.93h.44l1-8.49V28.6h-2.44v40.84l1 8.49z" class="a20-cls-18" data-color-action="fill" style="fill:inherit"/><path d="M29.58 77.93h.07l.4-8.49V28.6h-.37v40.84l-.1 8.49z" class="a20-cls-25"/><path d="M28.28 28.6h2.44v.63h-2.44z" class="a20-cls-28" transform="rotate(-180 29.5 28.915)" data-color-action="fill" style="fill:inherit"/><g class="a20-cls-29"><path d="M30.72 29.23l-2.44 1v-.63l2.44-1v.63zM30.72 30.68l-2.44 1v-.63l2.44-1v.63zM30.72 32.12l-2.44 1v-.63l2.44-1v.63zM30.72 33.57l-2.44 1v-.63l2.44-1v.63zM30.72 35.02l-2.44 1v-.64l2.44-1v.64zM30.72 36.46l-2.44 1v-.63l2.44-1v.63zM30.72 37.91l-2.44 1v-.64l2.44-1v.64zM30.72 39.35l-2.44 1v-.63l2.44-1v.63zM30.72 40.8l-2.44 1v-.64l2.44-1v.64zM30.72 42.24l-2.44 1v-.63l2.44-1v.63zM30.72 43.69l-2.44 1v-.64l2.44-1v.64zM30.72 45.13l-2.44 1v-.63l2.44-1v.63zM30.72 46.58l-2.44 1v-.63l2.44-1v.63zM30.72 48.02l-2.44 1v-.63l2.44-1v.63zM30.72 49.47l-2.44 1v-.63l2.44-1v.63zM30.72 50.91l-2.44 1v-.63l2.44-1v.63zM30.72 52.36l-2.44 1v-.63l2.44-1v.63zM30.72 53.8l-2.44 1.01v-.64l2.44-1v.63zM30.72 55.25l-2.44 1v-.63l2.44-1v.63zM30.72 56.7l-2.44 1v-.64l2.44-1v.64zM30.72 58.14l-2.44 1v-.63l2.44-1v.63zM30.72 59.59l-2.44 1v-.63l2.44-1.01v.64zM30.72 61.03l-2.44 1v-.63l2.44-1v.63zM30.72 62.48l-2.44 1v-.63l2.44-1v.63zM30.72 63.92l-2.44 1v-.63l2.44-1v.63zM30.72 65.37l-2.44 1v-.63l2.44-1v.63zM30.72 66.81l-2.44 1v-.63l2.44-1v.63zM30.72 68.26l-2.44 1v-.63l2.44-1v.63zM30.72 69.44l-.03.28-2.27.93-.07-.61 2.37-.97v.37zM30.51 71.24l-1.93.79-.07-.61 2.08-.85-.08.67zM30.33 72.76l-1.58.65-.08-.61 1.74-.71-.08.67zM30.15 74.28l-1.24.5-.07-.6 1.39-.57-.08.67zM29.97 75.79l-.9.37-.07-.6 1.05-.43-.08.66zM29.8 77.31l-.57.23-.07-.6.71-.29-.07.66z" class="a20-cls-28" data-color-action="fill" style="fill:inherit"/></g><circle cx="29.5" cy="24.73" r="2.24" class="a20-cls-18" data-color-action="fill" style="fill:inherit"/><path d="M27.67 25.95h3.67v3h-3.67z" class="a20-cls-18" transform="rotate(-180 29.5 27.445)" data-color-action="fill" style="fill:inherit"/><path d="M29.96 25.95h.55v3h-.55z" class="a20-cls-25"/><path d="M30.3 23.37h.21a2.32 2.32 0 0 1 .49 1.29 2.37 2.37 0 0 1-.52 1.3H30a2 2 0 0 0 .73-1.37 1.5 1.5 0 0 0-.43-1.22z" class="a20-cls-25"/><path d="M28.28 34.67h2.44v.63h-2.44z" class="a20-cls-28" transform="rotate(-180 29.5 34.985)" data-color-action="fill" style="fill:inherit"/><path d="M26.89 28.92h5.22l-.87 5.71h-3.48l-.87-5.71z" class="a20-cls-18" data-color-action="fill" style="fill:inherit"/><path d="M30.15 28.92h.79l-.48 5.71h-.53l.22-5.71z" class="a20-cls-25"/></g><g id="a70_implant_cylinder" data-name="implant cylinder"><path d="M2 1.83h55V139H2z" class="a20-cls-23" transform="rotate(-180 29.5 70.415)"/><path d="M26.17 25.65h6.67v49.33h-6.67z" class="a20-cls-18" transform="rotate(-180 29.5 50.32)" data-color-action="fill" style="fill:inherit"/><path d="M24.5 22.66h10v3h-10z" class="a20-cls-18" transform="rotate(-180 29.5 24.155)" data-color-action="fill" style="fill:inherit"/><path d="M30 25.65h1v49.33h-1z" class="a20-cls-25" transform="rotate(-180 30.5 50.32)"/><path d="M30.75 22.66h1.5v3h-1.5z" class="a20-cls-25" transform="rotate(-180 31.5 24.155)"/><path d="M24.5 75.02h10v3h-10z" class="a20-cls-18" transform="rotate(-180 29.5 76.515)" data-color-action="fill" style="fill:inherit"/><path d="M30.75 75.02h1.5v3h-1.5z" class="a20-cls-25" transform="rotate(-180 31.5 76.515)"/><path d="M26.17 25.65h6.67v.63h-6.67z" class="a20-cls-28" transform="rotate(-180 29.5 25.97)" data-color-action="fill" style="fill:inherit"/><path d="M26.17 74.35h6.67v.63h-6.67z" class="a20-cls-28" transform="rotate(-180 29.5 74.67)" data-color-action="fill" style="fill:inherit"/><g class="a20-cls-29"><path d="M26.17 73.35l6.66 1.01v.63l-6.66-1v-.64zM26.17 71.91l6.66 1v.63l-6.66-1v-.63zM26.17 70.46l6.66 1v.64l-6.66-1.01v-.63zM26.17 69.02l6.66 1v.63l-6.66-1v-.63zM26.17 67.57l6.66 1v.63l-6.66-1v-.63zM26.17 66.13l6.66 1v.63l-6.66-1v-.63zM26.17 64.68l6.66 1v.63l-6.66-1v-.63zM26.17 63.24l6.66 1v.63l-6.66-1v-.63zM26.17 61.79l6.66 1v.63l-6.66-1v-.63zM26.17 60.34l6.66 1.01v.63l-6.66-1v-.64zM26.17 58.9l6.66 1v.63l-6.66-1v-.63zM26.17 57.45l6.66 1v.64l-6.66-1v-.64zM26.17 56.01l6.66 1v.63l-6.66-1v-.63zM26.17 54.56l6.66 1v.64l-6.66-1v-.64zM26.17 53.12l6.66 1v.63l-6.66-1v-.63zM26.17 51.67l6.66 1v.63l-6.66-1v-.63zM26.17 50.23l6.66 1v.63l-6.66-1v-.63zM26.17 48.78l6.66 1v.63l-6.66-1v-.63zM26.17 47.34l6.66 1v.63l-6.66-1v-.63zM26.17 45.89l6.66 1v.63l-6.66-1v-.63zM26.17 44.45l6.66 1v.63l-6.66-1v-.63zM26.17 43l6.66 1v.63l-6.66-1V43zM26.17 41.55l6.66 1v.64l-6.66-1v-.64zM26.17 40.11l6.66 1v.63l-6.66-1v-.63zM26.17 38.66l6.66 1v.64l-6.66-1v-.64zM26.17 37.22l6.66 1v.63l-6.66-1v-.63zM26.17 35.77l6.66 1v.64l-6.66-1v-.64zM26.17 34.33l6.66 1v.63l-6.66-1v-.63zM26.17 32.88l6.66 1v.63l-6.66-1v-.63zM26.17 31.44l6.66 1v.63l-6.66-1v-.63zM26.17 29.99l6.66 1v.63l-6.66-1v-.63zM26.17 28.55l6.66 1v.63l-6.66-1v-.63zM26.17 27.1l6.66 1v.63l-6.66-1v-.63zM26.17 25.65l6.66 1.01v.63l-6.66-1v-.64z" class="a20-cls-28" data-color-action="fill" style="fill:inherit"/></g></g><g id="a70_implant_blade" data-name="implant blade"><path d="M2 1.83h55V139H2z" class="a20-cls-23" transform="rotate(-180 29.5 70.415)"/><path d="M26.17 25.65h6.67v49.33h-6.67z" class="a20-cls-18" transform="rotate(-180 29.5 50.32)" data-color-action="fill" style="fill:inherit"/><path d="M24.5 22.66h10v3h-10z" class="a20-cls-18" transform="rotate(-180 29.5 24.155)" data-color-action="fill" style="fill:inherit"/><path d="M30 25.65h1v49.33h-1z" class="a20-cls-25" transform="rotate(-180 30.5 50.32)"/><path d="M30.75 22.66h1.5v3h-1.5z" class="a20-cls-25" transform="rotate(-180 31.5 24.155)"/><path d="M26.17 25.65h6.67v.63h-6.67z" class="a20-cls-28" transform="rotate(-180 29.5 25.97)" data-color-action="fill" style="fill:inherit"/></g><path id="a70_watch_tooth" d="M8.27 153.9a3.26 3.26 0 0 1 3.22-3.26 3.24 3.24 0 1 1 0 6.47 3.25 3.25 0 0 1-3.22-3.21zm1-5.91l-.88-18.09h6.15l-.8 18.1z" class="a20-cls-11" data-color-action="fill" style="fill:inherit" data-name="watch tooth"/><path id="a70_border" d="M0 0h59v161H0z" class="a20-cls-15"/></defs></g><g class="b20-cls-1" transform="translate(0 66)"><g id="_20B" data-name="#20B"><path d="M12.21 28.39c.36 3.21 14 18.15 17.17 17.91s17.17-11.78 17.41-16.19S42.38 13.43 38.45 12s-14.22-3.72-17.17-1S12 26.18 12.21 28.39z" class="b20-cls-2"/><path d="M12.21 28.39c.36 3.21 14 18.15 17.17 17.91s17.17-11.78 17.41-16.19S42.38 13.43 38.45 12s-14.22-3.72-17.17-1S12 26.18 12.21 28.39z" class="b20-cls-3"/><path d="M20 30.3c.58.58 1.37-2.06 4.11-2.28s7.31-1.14 8.68 0 3.2 4.34 3.88 3.88-2.06-2.28-1.14-3 2.06.46 2.06-.69-1.37 0-1.83-.91 1.14-3.66.46-4.34-1.83 3.43-3.43 3.2-8.68.91-9.82.46-3.43-3.43-4.34-2.51 2.51 2.06 2.51 3.2-1.85 2.31-1.14 2.99z" class="b20-cls-4"/><path d="M28 12.49c2.74.23 8.68.91 10.51 2.06 1.27.8 3.65 2.69 5 3.78-1.51-3.12-3.32-5.73-5-6.36-3.92-1.47-14.23-3.68-17.17-1a24.41 24.41 0 0 0-3.47 4.81 21.16 21.16 0 0 1 3.07-2.38 15.65 15.65 0 0 1 7.06-.91z" class="b20-cls-5"/><path d="M29.38 46.3c2.78-.21 13.85-9.07 16.73-14.24-2.81 2.16-7.51 5.63-9.46 6.93a24.86 24.86 0 0 1-8 3.2c-1.37.23-5.48-2.28-8.22-4.34a65.82 65.82 0 0 1-7-6.95c3.44 5.32 13.3 15.6 15.95 15.4z" class="b20-cls-6"/></g><defs><g id="b70_splinted_crowns" data-name="splinted crowns"><path d="M28 51.75h3v3h-3z" class="b20-cls-8" transform="rotate(-180 29.5 53.25)"/><path d="M28 51.75h3v3h-3z" class="b20-cls-8" transform="rotate(-180 29.5 53.25)"/><path d="M28 51.75h3v3h-3z" class="b20-cls-8" transform="rotate(-180 29.5 53.25)"/></g><path id="b70_line_angle_2" d="M23.42 42.32a80.45 80.45 0 0 1-8.17-8.89l15-4.2z" class="b20-cls-7" data-color-action="fill" style="fill:inherit" data-name="line angle 2"/><path id="b70_cusp_1" d="M37 41.6c-3.24 2.61-6.34 4.6-7.64 4.7-1.09.08-3.39-1.6-6-4l6.87-13.08z" class="b20-cls-7" data-color-action="fill" style="fill:inherit" data-name="cusp 1"/><path id="b70_line_angle_1" d="M44.46 34.41A53.35 53.35 0 0 1 37 41.6l-6.71-12.37z" class="b20-cls-7" data-color-action="fill" style="fill:inherit" data-name="line angle 1"/><path id="b70_mesial" d="M16.7 26.18a14.61 14.61 0 0 1-2.7 5.58 9.74 9.74 0 0 1-1.8-3.37c-.13-1.17 1.59-5.2 3.67-9.15.73 2.14 1.35 5.05.83 6.94z" class="b20-cls-7" data-color-action="fill" style="fill:inherit"/><path id="b70_mesial_pit" d="M31.11 22.64l-.82 6.59-15 4.2c-.45-.58-.87-1.14-1.24-1.67a14.61 14.61 0 0 0 2.7-5.58c.52-1.89-.1-4.8-.83-6.94.4-.76.81-1.52 1.23-2.25z" class="b20-cls-7" data-color-action="fill" style="fill:inherit" data-name="mesial pit"/><path id="b70_distal_pit" d="M31.11 22.64L44 19.48c.29.65.56 1.31.81 2a9.67 9.67 0 0 0-2 5.78 10.69 10.69 0 0 0 2.38 6.2c-.23.32-.48.64-.75 1l-14.15-5.23z" class="b20-cls-7" data-color-action="fill" style="fill:inherit" data-name="distal pit"/><path id="b70_distal" d="M44.8 21.45c1.28 3.35 2.1 6.74 2 8.65a7.2 7.2 0 0 1-1.59 3.33 10.69 10.69 0 0 1-2.38-6.2 9.67 9.67 0 0 1 1.97-5.78z" class="b20-cls-7" data-color-action="fill" style="fill:inherit"/><path id="b70_line_angle_4" d="M17.11 17a29.21 29.21 0 0 1 4.18-6 5.93 5.93 0 0 1 3.38-1.19l6.45 12.86z" class="b20-cls-7" data-color-action="fill" style="fill:inherit" data-name="line angle 4"/><path id="b70_cusp_2" d="M24.66 9.78c3.86-.4 9.46.77 12.71 1.8l-6.26 11.06z" class="b20-cls-7" data-color-action="fill" style="fill:inherit" data-name="cusp 2"/><path id="b70_line_angle_3" d="M37.37 11.59c.39.13.76.25 1.08.37 1.88.71 3.94 3.9 5.54 7.52l-12.88 3.16z" class="b20-cls-7" data-color-action="fill" style="fill:inherit" data-name="line angle 3"/><g id="b70_veneer"><path d="M28 51.75h3v3h-3z" class="b20-cls-8" transform="rotate(-180 29.5 53.25)"/><path d="M28 51.75h3v3h-3z" class="b20-cls-8" transform="rotate(-180 29.5 53.25)"/><path d="M28 51.75h3v3h-3z" class="b20-cls-8" transform="rotate(-180 29.5 53.25)"/></g><g id="b70_tissue_graft" data-name="tissue graft"><path d="M28 51.75h3v3h-3z" class="b20-cls-8" transform="rotate(-180 29.5 53.25)"/><path d="M28 51.75h3v3h-3z" class="b20-cls-8" transform="rotate(-180 29.5 53.25)"/><path d="M28 51.75h3v3h-3z" class="b20-cls-8" transform="rotate(-180 29.5 53.25)"/></g><path id="b70_surface_restoration_buccal" d="M29.41 42.09c-1.82-1.12-5.12-4.36-8-7.55l-2.6 3.11c4.08 4.49 8.84 8.78 10.56 8.65s6.34-3.39 10.43-7.09L37.42 36c-2.78 2.58-5.99 5.15-8.01 6.09z" class="b20-cls-9" data-color-action="fill" style="fill:inherit" data-name="surface restoration buccal"/><path id="b70_surface_restoration_mesial" d="M16.3 28a62.3 62.3 0 0 1 5.31-10.78l-2.45-3.56C16 18.32 12 26.63 12.21 28.39c.16 1.48 3.14 5.44 6.61 9.26l2.6-3.11A43.59 43.59 0 0 1 16.3 28z" class="b20-cls-9" data-color-action="fill" style="fill:inherit" data-name="surface restoration mesial"/><path id="b70_surface_restoration_occlusal" d="M37 15.67a36.9 36.9 0 0 0-10.62-2 6.79 6.79 0 0 0-2.44.3c-2 2-6.73 11-7.6 14 1.62 3.07 9.79 12.08 13.1 14.1 4-1.86 12.55-10 13.4-12.36C42.87 26.26 39 17 37 15.67z" class="b20-cls-9" data-color-action="fill" style="fill:inherit" data-name="surface restoration occlusal"/><path id="b70_surface_restoration_distal" d="M46.79 30.11c.16-3-1.88-9.45-4.42-13.85l-3.19 2.45c1.83 3.4 3.67 8.6 3.62 11-.42 1.18-2.7 3.73-5.39 6.25l2.38 3.23c3.69-3.31 6.89-6.99 7-9.08z" class="b20-cls-9" data-color-action="fill" style="fill:inherit" data-name="surface restoration distal"/><path id="b70_surface_restoration_lingual" d="M23.9 14a6.79 6.79 0 0 1 2.44-.3 36.9 36.9 0 0 1 10.62 2 9.3 9.3 0 0 1 2.22 3l3.19-2.45c-1.25-2.16-2.62-3.82-3.92-4.31-3.92-1.47-14.23-3.68-17.17-1a16 16 0 0 0-2.13 2.68l2.45 3.56A19.05 19.05 0 0 1 23.9 14z" class="b20-cls-9" data-color-action="fill" style="fill:inherit" data-name="surface restoration lingual"/><g id="b70_supra-erupted"><path d="M28 51.75h3v3h-3z" class="b20-cls-8" transform="rotate(-180 29.5 53.25)"/><path d="M28 51.75h3v3h-3z" class="b20-cls-8" transform="rotate(-180 29.5 53.25)"/><path d="M28 51.75h3v3h-3z" class="b20-cls-8" transform="rotate(-180 29.5 53.25)"/></g><g id="b70_sub-erupted"><path d="M28 51.75h3v3h-3z" class="b20-cls-8" transform="rotate(-180 29.5 53.25)"/><path d="M28 51.75h3v3h-3z" class="b20-cls-8" transform="rotate(-180 29.5 53.25)"/><path d="M28 51.75h3v3h-3z" class="b20-cls-8" transform="rotate(-180 29.5 53.25)"/></g><text id="b70_sealant" class="b20-cls-10" transform="translate(19.7 37.55)" data-color-action="fill" style="fill:inherit">S</text><g id="b70_root_decay" data-name="root decay"><path d="M28 51.75h3v3h-3z" class="b20-cls-8" transform="rotate(-180 29.5 53.25)"/><path d="M28 51.75h3v3h-3z" class="b20-cls-8" transform="rotate(-180 29.5 53.25)"/><path d="M28 51.75h3v3h-3z" class="b20-cls-8" transform="rotate(-180 29.5 53.25)"/></g><g id="b70_root_canal" data-name="root canal"><path d="M28 51.75h3v3h-3z" class="b20-cls-8" transform="rotate(-180 29.5 53.25)"/><path d="M28 51.75h3v3h-3z" class="b20-cls-8" transform="rotate(-180 29.5 53.25)"/><path d="M28 51.75h3v3h-3z" class="b20-cls-8" transform="rotate(-180 29.5 53.25)"/></g><g id="b70_root_abrasion" data-name="root abrasion"><path d="M28 51.75h3v3h-3z" class="b20-cls-8" transform="rotate(-180 29.5 53.25)"/><path d="M28 51.75h3v3h-3z" class="b20-cls-8" transform="rotate(-180 29.5 53.25)"/><path d="M28 51.75h3v3h-3z" class="b20-cls-8" transform="rotate(-180 29.5 53.25)"/></g><g id="b70_post"><path d="M28 51.75h3v3h-3z" class="b20-cls-8" transform="rotate(-180 29.5 53.25)"/><path d="M28 51.75h3v3h-3z" class="b20-cls-8" transform="rotate(-180 29.5 53.25)"/><path d="M28 51.75h3v3h-3z" class="b20-cls-8" transform="rotate(-180 29.5 53.25)"/></g><g id="b70_pins"><path d="M28 51.75h3v3h-3z" class="b20-cls-8" transform="rotate(-180 29.5 53.25)"/><path d="M28 51.75h3v3h-3z" class="b20-cls-8" transform="rotate(-180 29.5 53.25)"/><path d="M28 51.75h3v3h-3z" class="b20-cls-8" transform="rotate(-180 29.5 53.25)"/></g><g id="b70_open_contact_mesial" data-name="open contact mesial"><path d="M28 51.75h3v3h-3z" class="b20-cls-8" transform="rotate(-180 29.5 53.25)"/><path d="M28 51.75h3v3h-3z" class="b20-cls-8" transform="rotate(-180 29.5 53.25)"/><path d="M28 51.75h3v3h-3z" class="b20-cls-8" transform="rotate(-180 29.5 53.25)"/></g><g id="b70_open_contact_distal" data-name="open contact distal"><path d="M28 51.75h3v3h-3z" class="b20-cls-8" transform="rotate(-180 29.5 53.25)"/><path d="M28 51.75h3v3h-3z" class="b20-cls-8" transform="rotate(-180 29.5 53.25)"/><path d="M28 51.75h3v3h-3z" class="b20-cls-8" transform="rotate(-180 29.5 53.25)"/></g><g id="b70_lingual_abfraction" data-name="lingual abfraction"><path d="M28 51.75h3v3h-3z" class="b20-cls-8" transform="rotate(-180 29.5 53.25)"/><path d="M28 51.75h3v3h-3z" class="b20-cls-8" transform="rotate(-180 29.5 53.25)"/><path d="M28 51.75h3v3h-3z" class="b20-cls-8" transform="rotate(-180 29.5 53.25)"/></g><g id="b70_internal_root_resorption" data-name="internal root resorption"><path d="M28 51.75h3v3h-3z" class="b20-cls-8" transform="rotate(-180 29.5 53.25)"/><path d="M28 51.75h3v3h-3z" class="b20-cls-8" transform="rotate(-180 29.5 53.25)"/><path d="M28 51.75h3v3h-3z" class="b20-cls-8" transform="rotate(-180 29.5 53.25)"/></g><g id="b70_gortex_membranes" data-name="gortex membranes"><path d="M28 51.75h3v3h-3z" class="b20-cls-8" transform="rotate(-180 29.5 53.25)"/><path d="M28 51.75h3v3h-3z" class="b20-cls-8" transform="rotate(-180 29.5 53.25)"/><path d="M28 51.75h3v3h-3z" class="b20-cls-8" transform="rotate(-180 29.5 53.25)"/></g><g id="b70_frenum_pull" data-name="frenum pull"><path d="M28 51.75h3v3h-3z" class="b20-cls-8" transform="rotate(-180 29.5 53.25)"/><path d="M28 51.75h3v3h-3z" class="b20-cls-8" transform="rotate(-180 29.5 53.25)"/><path d="M28 51.75h3v3h-3z" class="b20-cls-8" transform="rotate(-180 29.5 53.25)"/></g><g id="b70_external_root_resorption" data-name="external root resorption"><path d="M28 51.75h3v3h-3z" class="b20-cls-8" transform="rotate(-180 29.5 53.25)"/><path d="M28 51.75h3v3h-3z" class="b20-cls-8" transform="rotate(-180 29.5 53.25)"/><path d="M28 51.75h3v3h-3z" class="b20-cls-8" transform="rotate(-180 29.5 53.25)"/></g><path id="b70_three_quarter_crown" d="M12.21 28.39c.36 3.21 14 18.15 17.17 17.91s17.17-11.78 17.41-16.19S42.38 13.43 38.45 12s-14.22-3.72-17.17-1S12 26.18 12.21 28.39z" class="b20-cls-12 b20-cls-16" data-color-action="fill" style="fill:inherit" data-name="three quarter crown"/><path id="b70_crown" d="M12.21 28.39c.36 3.21 14 18.15 17.17 17.91s17.17-11.78 17.41-16.19S42.38 13.43 38.45 12s-14.22-3.72-17.17-1S12 26.18 12.21 28.39z" class="b20-cls-12 b20-cls-16" data-color-action="fill" style="fill:inherit"/><path id="b70_cracked_surface_occlusal" d="M30.83 32.17L27 28.34h5l-5-4.74h5l-3.83-3.83" class="b20-cls-17" data-color-action="stroke" style="stroke:inherit" data-name="cracked surface occlusal"/><g id="b70_chipped_surface_occlusal" class="b20-cls-12" data-name="chipped surface occlusal"><path d="M33.33 30.5L25 22.17M25 30.5l8.33-8.33" class="b20-cls-18" data-color-action="stroke" style="stroke:inherit"/></g><g id="b70_buccal_abfraction" data-name="buccal abfraction"><path d="M28 51.75h3v3h-3z" class="b20-cls-8" transform="rotate(-180 29.5 53.25)"/><path d="M28 51.75h3v3h-3z" class="b20-cls-8" transform="rotate(-180 29.5 53.25)"/><path d="M28 51.75h3v3h-3z" class="b20-cls-8" transform="rotate(-180 29.5 53.25)"/></g><g id="b70_braces"><path d="M28 51.75h3v3h-3z" class="b20-cls-8" transform="rotate(-180 29.5 53.25)"/><path d="M28 51.75h3v3h-3z" class="b20-cls-8" transform="rotate(-180 29.5 53.25)"/><path d="M28 51.75h3v3h-3z" class="b20-cls-8" transform="rotate(-180 29.5 53.25)"/></g><g id="b70_apicoectomy"><path d="M28 51.75h3v3h-3z" class="b20-cls-8" transform="rotate(-180 29.5 53.25)"/><path d="M28 51.75h3v3h-3z" class="b20-cls-8" transform="rotate(-180 29.5 53.25)"/><path d="M28 51.75h3v3h-3z" class="b20-cls-8" transform="rotate(-180 29.5 53.25)"/></g><g id="b70_abscess"><path d="M28 51.75h3v3h-3z" class="b20-cls-8" transform="rotate(-180 29.5 53.25)"/><path d="M28 51.75h3v3h-3z" class="b20-cls-8" transform="rotate(-180 29.5 53.25)"/><path d="M28 51.75h3v3h-3z" class="b20-cls-8" transform="rotate(-180 29.5 53.25)"/></g><g id="b70_blunted_roots" data-name="blunted roots"><path d="M28 51.75h3v3h-3z" class="b20-cls-8" transform="rotate(-180 29.5 53.25)"/><path d="M28 51.75h3v3h-3z" class="b20-cls-8" transform="rotate(-180 29.5 53.25)"/><path d="M28 51.75h3v3h-3z" class="b20-cls-8" transform="rotate(-180 29.5 53.25)"/></g><g id="b70_root_amputation" data-name="root amputation"><path d="M28 51.75h3v3h-3z" class="b20-cls-8" transform="rotate(-180 29.5 53.25)"/><path d="M28 51.75h3v3h-3z" class="b20-cls-8" transform="rotate(-180 29.5 53.25)"/><path d="M28 51.75h3v3h-3z" class="b20-cls-8" transform="rotate(-180 29.5 53.25)"/></g><path id="b70_missing_crown" d="M2 2.21h55v51.77H2z" class="b20-cls-11" transform="rotate(-180 29.5 28.095)" data-name="missing crown"/><g id="b70_missing_tooth" data-name="missing tooth"><path d="M12.21 28.39c.36 3.21 14 18.15 17.17 17.91s17.17-11.78 17.41-16.19S42.38 13.43 38.45 12s-14.22-3.72-17.17-1S12 26.18 12.21 28.39z" class="b20-cls-2"/><path d="M12.21 28.39c.36 3.21 14 18.15 17.17 17.91s17.17-11.78 17.41-16.19S42.38 13.43 38.45 12s-14.22-3.72-17.17-1S12 26.18 12.21 28.39z" class="b20-cls-11"/><path d="M20 30.3c.58.58 1.37-2.06 4.11-2.28s7.31-1.14 8.68 0 3.2 4.34 3.88 3.88-2.06-2.28-1.14-3 2.06.46 2.06-.69-1.37 0-1.83-.91 1.14-3.66.46-4.34-1.83 3.43-3.43 3.2-8.68.91-9.82.46-3.43-3.43-4.34-2.51 2.51 2.06 2.51 3.2-1.85 2.31-1.14 2.99zM28 12.49c2.74.23 8.68.91 10.51 2.06 1.27.8 3.65 2.69 5 3.78-1.51-3.12-3.32-5.73-5-6.36-3.92-1.47-14.23-3.68-17.17-1a24.41 24.41 0 0 0-3.47 4.81 21.16 21.16 0 0 1 3.07-2.38 15.65 15.65 0 0 1 7.06-.91z" class="b20-cls-11"/><path d="M29.38 46.3c2.78-.21 13.85-9.07 16.73-14.24-2.81 2.16-7.51 5.63-9.46 6.93a24.86 24.86 0 0 1-8 3.2c-1.37.23-5.48-2.28-8.22-4.34a65.82 65.82 0 0 1-7-6.95c3.44 5.32 13.3 15.6 15.95 15.4z" class="b20-cls-11"/></g><g id="b70_maryland_bridge_pontic" class="b20-cls-12" data-name="maryland bridge pontic"><path d="M12.21 28.39c.36 3.21 14 18.15 17.17 17.91s17.17-11.78 17.41-16.19S42.38 13.43 38.45 12s-14.22-3.72-17.17-1S12 26.18 12.21 28.39z" class="b20-cls-13" data-color-action="fill" style="fill:inherit"/><path d="M2 24.17h20.42v7.67H2zM36.58 24.17H57v7.67H36.58z" class="b20-cls-13" data-color-action="fill" style="fill:inherit"/></g><g id="b70_maryland_bridge_abutment_mesial" data-name="maryland bridge abutment mesial"><g class="b20-cls-12"><path d="M2 24.17h20.42v7.67H2z" class="b20-cls-13" data-color-action="fill" style="fill:inherit"/><ellipse cx="21.19" cy="28" class="b20-cls-13" rx="5.61" ry="12.9" data-color-action="fill" style="fill:inherit"/></g><path d="M12.21 28.39c.36 3.21 14 18.15 17.17 17.91s17.17-11.78 17.41-16.19S42.38 13.43 38.45 12s-14.22-3.72-17.17-1S12 26.18 12.21 28.39z" class="b20-cls-2"/><path d="M12.21 28.39c.36 3.21 14 18.15 17.17 17.91s17.17-11.78 17.41-16.19S42.38 13.43 38.45 12s-14.22-3.72-17.17-1S12 26.18 12.21 28.39z" class="b20-cls-3"/><path d="M20 30.3c.58.58 1.37-2.06 4.11-2.28s7.31-1.14 8.68 0 3.2 4.34 3.88 3.88-2.06-2.28-1.14-3 2.06.46 2.06-.69-1.37 0-1.83-.91 1.14-3.66.46-4.34-1.83 3.43-3.43 3.2-8.68.91-9.82.46-3.43-3.43-4.34-2.51 2.51 2.06 2.51 3.2-1.85 2.31-1.14 2.99z" class="b20-cls-4"/><path d="M28 12.49c2.74.23 8.68.91 10.51 2.06 1.27.8 3.65 2.69 5 3.78-1.51-3.12-3.32-5.73-5-6.36-3.92-1.47-14.23-3.68-17.17-1a24.41 24.41 0 0 0-3.47 4.81 21.16 21.16 0 0 1 3.07-2.38 15.65 15.65 0 0 1 7.06-.91z" class="b20-cls-5"/><path d="M29.38 46.3c2.78-.21 13.85-9.07 16.73-14.24-2.81 2.16-7.51 5.63-9.46 6.93a24.86 24.86 0 0 1-8 3.2c-1.37.23-5.48-2.28-8.22-4.34a65.82 65.82 0 0 1-7-6.95c3.44 5.32 13.3 15.6 15.95 15.4z" class="b20-cls-6"/></g><g id="b70_maryland_bridge_abutment_distal" data-name="maryland bridge abutment distal"><g class="b20-cls-12"><path d="M36.58 24.17H57v7.67H36.58z" class="b20-cls-13" data-color-action="fill" style="fill:inherit"/><ellipse cx="37.81" cy="28" class="b20-cls-13" rx="5.61" ry="12.9" data-color-action="fill" style="fill:inherit"/></g><path d="M12.21 28.39c.36 3.21 14 18.15 17.17 17.91s17.17-11.78 17.41-16.19S42.38 13.43 38.45 12s-14.22-3.72-17.17-1S12 26.18 12.21 28.39z" class="b20-cls-2"/><path d="M12.21 28.39c.36 3.21 14 18.15 17.17 17.91s17.17-11.78 17.41-16.19S42.38 13.43 38.45 12s-14.22-3.72-17.17-1S12 26.18 12.21 28.39z" class="b20-cls-3"/><path d="M20 30.3c.58.58 1.37-2.06 4.11-2.28s7.31-1.14 8.68 0 3.2 4.34 3.88 3.88-2.06-2.28-1.14-3 2.06.46 2.06-.69-1.37 0-1.83-.91 1.14-3.66.46-4.34-1.83 3.43-3.43 3.2-8.68.91-9.82.46-3.43-3.43-4.34-2.51 2.51 2.06 2.51 3.2-1.85 2.31-1.14 2.99z" class="b20-cls-4"/><path d="M28 12.49c2.74.23 8.68.91 10.51 2.06 1.27.8 3.65 2.69 5 3.78-1.51-3.12-3.32-5.73-5-6.36-3.92-1.47-14.23-3.68-17.17-1a24.41 24.41 0 0 0-3.47 4.81 21.16 21.16 0 0 1 3.07-2.38 15.65 15.65 0 0 1 7.06-.91z" class="b20-cls-5"/><path d="M29.38 46.3c2.78-.21 13.85-9.07 16.73-14.24-2.81 2.16-7.51 5.63-9.46 6.93a24.86 24.86 0 0 1-8 3.2c-1.37.23-5.48-2.28-8.22-4.34a65.82 65.82 0 0 1-7-6.95c3.44 5.32 13.3 15.6 15.95 15.4z" class="b20-cls-6"/></g><g id="b70_maryland_bridge_abutment" data-name="maryland bridge abutment"><g class="b20-cls-12"><path d="M2 24.17h20.42v7.67H2zM36.58 24.17H57v7.67H36.58z" class="b20-cls-13" data-color-action="fill" style="fill:inherit"/><ellipse cx="37.81" cy="28" class="b20-cls-13" rx="5.61" ry="12.9" data-color-action="fill" style="fill:inherit"/><ellipse cx="21.19" cy="28" class="b20-cls-13" rx="5.61" ry="12.9" data-color-action="fill" style="fill:inherit"/></g><path d="M12.21 28.39c.36 3.21 14 18.15 17.17 17.91s17.17-11.78 17.41-16.19S42.38 13.43 38.45 12s-14.22-3.72-17.17-1S12 26.18 12.21 28.39z" class="b20-cls-2"/><path d="M12.21 28.39c.36 3.21 14 18.15 17.17 17.91s17.17-11.78 17.41-16.19S42.38 13.43 38.45 12s-14.22-3.72-17.17-1S12 26.18 12.21 28.39z" class="b20-cls-3"/><path d="M20 30.3c.58.58 1.37-2.06 4.11-2.28s7.31-1.14 8.68 0 3.2 4.34 3.88 3.88-2.06-2.28-1.14-3 2.06.46 2.06-.69-1.37 0-1.83-.91 1.14-3.66.46-4.34-1.83 3.43-3.43 3.2-8.68.91-9.82.46-3.43-3.43-4.34-2.51 2.51 2.06 2.51 3.2-1.85 2.31-1.14 2.99z" class="b20-cls-4"/><path d="M28 12.49c2.74.23 8.68.91 10.51 2.06 1.27.8 3.65 2.69 5 3.78-1.51-3.12-3.32-5.73-5-6.36-3.92-1.47-14.23-3.68-17.17-1a24.41 24.41 0 0 0-3.47 4.81 21.16 21.16 0 0 1 3.07-2.38 15.65 15.65 0 0 1 7.06-.91z" class="b20-cls-5"/><path d="M29.38 46.3c2.78-.21 13.85-9.07 16.73-14.24-2.81 2.16-7.51 5.63-9.46 6.93a24.86 24.86 0 0 1-8 3.2c-1.37.23-5.48-2.28-8.22-4.34a65.82 65.82 0 0 1-7-6.95c3.44 5.32 13.3 15.6 15.95 15.4z" class="b20-cls-6"/></g><path id="b70_bridge_abutment" d="M12.21 28.39c.36 3.21 14 18.15 17.17 17.91s17.17-11.78 17.41-16.19S42.38 13.43 38.45 12s-14.22-3.72-17.17-1S12 26.18 12.21 28.39z" class="b20-cls-12 b20-cls-14" data-color-action="fill" style="fill:inherit" data-name="bridge abutment"/><g id="b70_bridge_pontic" data-name="bridge pontic"><path d="M12.21 28.39c.36 3.21 14 18.15 17.17 17.91s17.17-11.78 17.41-16.19S42.38 13.43 38.45 12s-14.22-3.72-17.17-1S12 26.18 12.21 28.39z" class="b20-cls-2"/><path d="M12.21 28.39c.36 3.21 14 18.15 17.17 17.91s17.17-11.78 17.41-16.19S42.38 13.43 38.45 12s-14.22-3.72-17.17-1S12 26.18 12.21 28.39z" class="b20-cls-3"/><path d="M20 30.3c.58.58 1.37-2.06 4.11-2.28s7.31-1.14 8.68 0 3.2 4.34 3.88 3.88-2.06-2.28-1.14-3 2.06.46 2.06-.69-1.37 0-1.83-.91 1.14-3.66.46-4.34-1.83 3.43-3.43 3.2-8.68.91-9.82.46-3.43-3.43-4.34-2.51 2.51 2.06 2.51 3.2-1.85 2.31-1.14 2.99z" class="b20-cls-4"/><path d="M28 12.49c2.74.23 8.68.91 10.51 2.06 1.27.8 3.65 2.69 5 3.78-1.51-3.12-3.32-5.73-5-6.36-3.92-1.47-14.23-3.68-17.17-1a24.41 24.41 0 0 0-3.47 4.81 21.16 21.16 0 0 1 3.07-2.38 15.65 15.65 0 0 1 7.06-.91z" class="b20-cls-5"/><path d="M29.38 46.3c2.78-.21 13.85-9.07 16.73-14.24-2.81 2.16-7.51 5.63-9.46 6.93a24.86 24.86 0 0 1-8 3.2c-1.37.23-5.48-2.28-8.22-4.34a65.82 65.82 0 0 1-7-6.95c3.44 5.32 13.3 15.6 15.95 15.4z" class="b20-cls-6"/><path d="M12.21 28.39c.36 3.21 14 18.15 17.17 17.91s17.17-11.78 17.41-16.19S42.38 13.43 38.45 12s-14.22-3.72-17.17-1S12 26.18 12.21 28.39z" class="b20-cls-12 b20-cls-14" data-color-action="fill" style="fill:inherit"/></g><g id="b70_implant_mini" data-name="implant mini"><path d="M2 2.21h55v51.77H2z" class="b20-cls-11" transform="rotate(-180 29.5 28.095)"/><circle cx="29.5" cy="28" r="2.61" class="b20-cls-14" data-color-action="fill" style="fill:inherit"/></g><g id="b70_implant_cylinder" data-name="implant cylinder"><path d="M2 2.21h55v51.77H2z" class="b20-cls-11" transform="rotate(-180 29.5 28.095)"/><circle cx="29.5" cy="28" r="5" class="b20-cls-14" data-color-action="fill" style="fill:inherit"/><path d="M34.5 28a5 5 0 0 0-.09-.89h-9.82a4.46 4.46 0 0 0 0 1.78h9.82a5 5 0 0 0 .09-.89z" class="b20-cls-15" data-color-action="fill" style="fill:inherit"/></g><g id="b70_implant_blade" data-name="implant blade"><path d="M2 2.21h55v51.77H2z" class="b20-cls-11" transform="rotate(-180 29.5 28.095)"/><circle cx="29.5" cy="28" r="5" class="b20-cls-14" data-color-action="fill" style="fill:inherit"/></g><g id="b70_border"><path d="M0 0h59v56H0z" class="b20-cls-8"/><path d="M0 0h59v56H0z" class="b20-cls-8" transform="rotate(-180 29.5 28)"/></g></defs></g><g class="c20-cls-1"><g id="_20C" data-name="#20C"><path d="M18 23.63c-.93 2.16-7.3 20.24-5.51 22.92S25.94 57.44 29 57.18s17.42-7.43 17.8-10S39.13 25.8 38 23.5s-18.85-2.56-20 .13z" class="c20-cls-2"/><path d="M18 23.63c-.93 2.16-7.3 20.24-5.51 22.92S25.94 57.44 29 57.18s17.42-7.43 17.8-10S39.13 25.8 38 23.5s-18.85-2.56-20 .13z" class="c20-cls-3"/><path d="M35.08 25.15a9.41 9.41 0 0 1 4.36 1.63c-.7-1.6-1.23-2.8-1.47-3.28-1.15-2.31-18.83-2.56-20 .13-.18.42-.57 1.46-1.07 2.87A11.82 11.82 0 0 1 22 25c3.12 0 10.73.15 13.08.15z" class="c20-cls-4"/><path d="M12.49 46.55C14.28 49.24 25.94 57.44 29 57.18s17.42-7.43 17.8-10a14.24 14.24 0 0 0-1-4.33c-.31.92-.29 2.66-.93 3.84-1.09 2-15.58 7.43-17 7.24s-11.23-6.7-13.22-8a7.27 7.27 0 0 1-2.28-3c-.27 1.74-.27 3.07.12 3.62z" class="c20-cls-5"/></g><defs><g id="c70_splinted_crowns" data-name="splinted crowns"><path d="M2 16.25h55v7.67H2z" class="c20-cls-12" transform="rotate(-180 29.5 20.085)" data-color-action="fill" style="fill:inherit"/><path d="M18 23.63c-.93 2.16-7.3 20.24-5.51 22.92S25.94 57.44 29 57.18s17.42-7.43 17.8-10S39.13 25.8 38 23.5s-18.85-2.56-20 .13z" class="c20-cls-2"/><path d="M18 23.63c-.93 2.16-7.3 20.24-5.51 22.92S25.94 57.44 29 57.18s17.42-7.43 17.8-10S39.13 25.8 38 23.5s-18.85-2.56-20 .13z" class="c20-cls-3"/><path d="M35.08 25.15a9.41 9.41 0 0 1 4.36 1.63c-.7-1.6-1.23-2.8-1.47-3.28-1.15-2.31-18.83-2.56-20 .13-.18.42-.57 1.46-1.07 2.87A11.82 11.82 0 0 1 22 25c3.12 0 10.73.15 13.08.15z" class="c20-cls-4"/><path d="M12.49 46.55C14.28 49.24 25.94 57.44 29 57.18s17.42-7.43 17.8-10a14.24 14.24 0 0 0-1-4.33c-.31.92-.29 2.66-.93 3.84-1.09 2-15.58 7.43-17 7.24s-11.23-6.7-13.22-8a7.27 7.27 0 0 1-2.28-3c-.27 1.74-.27 3.07.12 3.62z" class="c20-cls-5"/></g><path id="c70_mesial" d="M12.49 46.55a7.23 7.23 0 0 0 .84 1l5-2.43c-2.45-2.43-.57-7.92.23-10.48.31-1-.37-2.73-3.34-2.85-1.92 5.93-3.81 13.14-2.73 14.76z" class="c20-cls-6" data-color-action="fill" style="fill:inherit"/><path id="c70_line_angle_4" d="M22 48.22a32.05 32.05 0 0 1-3.64-3.08l-5 2.43a51 51 0 0 0 7.39 5.74z" class="c20-cls-6" data-color-action="fill" style="fill:inherit" data-name="line angle 4"/><path id="c70_cusp_2" d="M29 57.18c1.27-.11 4.47-1.39 7.81-3l-1.43-5.42a20 20 0 0 1-7 1.8A10.47 10.47 0 0 1 22 48.22l-1.24 5c3.34 2.27 6.78 4.08 8.24 3.96z" class="c20-cls-6" data-color-action="fill" style="fill:inherit" data-name="cusp 2"/><path id="c70_line_angle_3" d="M46.81 47.19a2.38 2.38 0 0 0 0-.59L40 44a5.92 5.92 0 0 1-.44 1.18 8.79 8.79 0 0 1-4.21 3.5l1.43 5.42c4.78-2.32 9.81-5.41 10.03-6.91z" class="c20-cls-6" data-color-action="fill" style="fill:inherit" data-name="line angle 3"/><path id="c70_distal" d="M39 34.78c.72 2.48 1.78 6.43 1 9.25l6.8 2.57c-.29-2.39-2.92-9.22-5.26-14.88-1.79.36-3.06 1.28-2.54 3.06z" class="c20-cls-6" data-color-action="fill" style="fill:inherit"/><ellipse id="c70_lingual" cx="28.5" cy="37.99" class="c20-cls-6" rx="4.69" ry="8.25" data-color-action="fill" style="fill:inherit"/><path id="c70_lingual_V" d="M35.77 22.42c-4.45-1.07-14.16-1-17 .52a16.63 16.63 0 0 0 8.58 2.25 15.94 15.94 0 0 0 8.42-2.77z" class="c20-cls-6" data-color-action="fill" style="fill:inherit" data-name="lingual V"/><g id="c70_veneer"><path d="M28 61.75h3v3h-3z" class="c20-cls-7" transform="rotate(-180 29.5 63.25)"/><path d="M28 61.75h3v3h-3z" class="c20-cls-7" transform="rotate(-180 29.5 63.25)"/><path d="M28 61.75h3v3h-3z" class="c20-cls-7" transform="rotate(-180 29.5 63.25)"/></g><g id="c70_tissue_graft" data-name="tissue graft"><path d="M28 61.75h3v3h-3z" class="c20-cls-7" transform="rotate(-180 29.5 63.25)"/><path d="M28 61.75h3v3h-3z" class="c20-cls-7" transform="rotate(-180 29.5 63.25)"/><path d="M28 61.75h3v3h-3z" class="c20-cls-7" transform="rotate(-180 29.5 63.25)"/></g><g id="c70_tipped_lingual" class="c20-cls-8" data-name="tipped lingual"><path d="M28.65 61.07c1.26 3.37 4.74 3.85 7.69-5.32.5-1.56 4.42-1.76 3.84 0-2 6.08-5.31 10.2-9.06 9.27a4.86 4.86 0 0 1-3-3.38c.19-.17.42-.42.53-.57z" class="c20-cls-9" data-color-action="fill" style="fill:inherit"/><path d="M30.73 58.15h12.94l-2.94-9.64-10 9.64z" class="c20-cls-9" data-color-action="fill" style="fill:inherit"/></g><g id="c70_tipped_facial" data-name="tipped facial"><path d="M28 61.75h3v3h-3z" class="c20-cls-7" transform="rotate(-180 29.5 63.25)"/><path d="M28 61.75h3v3h-3z" class="c20-cls-7" transform="rotate(-180 29.5 63.25)"/><path d="M28 61.75h3v3h-3z" class="c20-cls-7" transform="rotate(-180 29.5 63.25)"/></g><path id="c70_surface_restoration_occlusal" d="M29 57.2c-2.05.17-7.93-3.43-12.15-6.64l4.65-5.26A50.44 50.44 0 0 0 29 50a66 66 0 0 0 8.78-4.28l5.21 5C38.36 53.68 31.1 57 29 57.2z" class="c20-cls-10" data-color-action="fill" style="fill:inherit" data-name="surface restoration occlusal"/><path id="c70_surface_restoration_mesial" d="M12.49 46.57c-1-1.54.62-8.1 2.39-13.85a11.52 11.52 0 0 0 6.81-6c-1 6.53-2 14.56-2.38 16.79.6.52 1.36 1.11 2.2 1.73l-4.63 5.26a23 23 0 0 1-4.39-3.93z" class="c20-cls-10" data-color-action="fill" style="fill:inherit" data-name="surface restoration mesial"/><path id="c70_surface_restoration_lingual" d="M33.72 24.7a11.41 11.41 0 0 0 1.48 3.37c1.47 6.52 3 14.22 3.9 16.83A66.86 66.86 0 0 1 29 50a55 55 0 0 1-9.65-6.43c.36-2.24 1.34-10.27 2.38-16.79a11.49 11.49 0 0 0 .82-2.29 13.79 13.79 0 0 0 11.22.21z" class="c20-cls-8 c20-cls-11" data-color-action="fill" style="fill:inherit" data-name="surface restoration lingual"/><path id="c70_surface_restoration_lingual_V" d="M33.35 22a11.52 11.52 0 0 0 .38 2.68 13.79 13.79 0 0 1-11.22-.21 11.42 11.42 0 0 0 .31-2.47 48.52 48.52 0 0 1 10.53 0z" class="c20-cls-8 c20-cls-11" data-color-action="fill" style="fill:inherit" data-name="surface restoration lingual V"/><path id="c70_surface_restoration_distal" d="M42.94 50.74l-5.21-5c.49-.28 1-.56 1.37-.82-.88-2.61-2.43-10.31-3.9-16.83a11.5 11.5 0 0 0 6.8 4.84c2.44 6 5 12.81 4.79 14.28-.1.79-1.67 2.13-3.85 3.53z" class="c20-cls-10" data-color-action="fill" style="fill:inherit" data-name="surface restoration distal"/><g id="c70_supra-erupted"><path d="M28 61.75h3v3h-3z" class="c20-cls-7" transform="rotate(-180 29.5 63.25)"/><path d="M28 61.75h3v3h-3z" class="c20-cls-7" transform="rotate(-180 29.5 63.25)"/><path d="M28 61.75h3v3h-3z" class="c20-cls-7" transform="rotate(-180 29.5 63.25)"/></g><g id="c70_sub-erupted"><path d="M28 61.75h3v3h-3z" class="c20-cls-7" transform="rotate(-180 29.5 63.25)"/><path d="M28 61.75h3v3h-3z" class="c20-cls-7" transform="rotate(-180 29.5 63.25)"/><path d="M28 61.75h3v3h-3z" class="c20-cls-7" transform="rotate(-180 29.5 63.25)"/></g><g id="c70_sealant"><path d="M28 61.75h3v3h-3z" class="c20-cls-7" transform="rotate(-180 29.5 63.25)"/><path d="M28 61.75h3v3h-3z" class="c20-cls-7" transform="rotate(-180 29.5 63.25)"/><path d="M28 61.75h3v3h-3z" class="c20-cls-7" transform="rotate(-180 29.5 63.25)"/></g><g id="c70_root_decay" data-name="root decay"><path d="M28 61.75h3v3h-3z" class="c20-cls-7" transform="rotate(-180 29.5 63.25)"/><path d="M28 61.75h3v3h-3z" class="c20-cls-7" transform="rotate(-180 29.5 63.25)"/><path d="M28 61.75h3v3h-3z" class="c20-cls-7" transform="rotate(-180 29.5 63.25)"/></g><g id="c70_root_canal" data-name="root canal"><path d="M28 61.75h3v3h-3z" class="c20-cls-7" transform="rotate(-180 29.5 63.25)"/><path d="M28 61.75h3v3h-3z" class="c20-cls-7" transform="rotate(-180 29.5 63.25)"/><path d="M28 61.75h3v3h-3z" class="c20-cls-7" transform="rotate(-180 29.5 63.25)"/></g><g id="c70_root_abrasion" data-name="root abrasion"><path d="M28 61.75h3v3h-3z" class="c20-cls-7" transform="rotate(-180 29.5 63.25)"/><path d="M28 61.75h3v3h-3z" class="c20-cls-7" transform="rotate(-180 29.5 63.25)"/><path d="M28 61.75h3v3h-3z" class="c20-cls-7" transform="rotate(-180 29.5 63.25)"/></g><g id="c70_open_contact_mesial" data-name="open contact mesial"><path d="M28 61.75h3v3h-3z" class="c20-cls-7" transform="rotate(-180 29.5 63.25)"/><path d="M28 61.75h3v3h-3z" class="c20-cls-7" transform="rotate(-180 29.5 63.25)"/><path d="M28 61.75h3v3h-3z" class="c20-cls-7" transform="rotate(-180 29.5 63.25)"/></g><g id="c70_open_contact_distal" data-name="open contact distal"><path d="M28 61.75h3v3h-3z" class="c20-cls-7" transform="rotate(-180 29.5 63.25)"/><path d="M28 61.75h3v3h-3z" class="c20-cls-7" transform="rotate(-180 29.5 63.25)"/><path d="M28 61.75h3v3h-3z" class="c20-cls-7" transform="rotate(-180 29.5 63.25)"/></g><path id="c70_lingual_abfraction" d="M16.7 19.16S22 15 28.5 15s11.8 4.16 11.8 4.16-5.3 4.16-11.8 4.16-11.8-4.16-11.8-4.16z" class="c20-cls-15" data-color-action="fill" style="fill:inherit" data-name="lingual abfraction"/><g id="c70_internal_root_resorption" data-name="internal root resorption"><path d="M28 61.75h3v3h-3z" class="c20-cls-7" transform="rotate(-180 29.5 63.25)"/><path d="M28 61.75h3v3h-3z" class="c20-cls-7" transform="rotate(-180 29.5 63.25)"/><path d="M28 61.75h3v3h-3z" class="c20-cls-7" transform="rotate(-180 29.5 63.25)"/></g><g id="c70_gortex_membranes" data-name="gortex membranes"><path d="M28 61.75h3v3h-3z" class="c20-cls-7" transform="rotate(-180 29.5 63.25)"/><path d="M28 61.75h3v3h-3z" class="c20-cls-7" transform="rotate(-180 29.5 63.25)"/><path d="M28 61.75h3v3h-3z" class="c20-cls-7" transform="rotate(-180 29.5 63.25)"/></g><g id="c70_frenum_pull" data-name="frenum pull"><path d="M28 61.75h3v3h-3z" class="c20-cls-7" transform="rotate(-180 29.5 63.25)"/><path d="M28 61.75h3v3h-3z" class="c20-cls-7" transform="rotate(-180 29.5 63.25)"/><path d="M28 61.75h3v3h-3z" class="c20-cls-7" transform="rotate(-180 29.5 63.25)"/></g><g id="c70_external_root_resorption" data-name="external root resorption"><path d="M28 61.75h3v3h-3z" class="c20-cls-7" transform="rotate(-180 29.5 63.25)"/><path d="M28 61.75h3v3h-3z" class="c20-cls-7" transform="rotate(-180 29.5 63.25)"/><path d="M28 61.75h3v3h-3z" class="c20-cls-7" transform="rotate(-180 29.5 63.25)"/></g><path id="c70_three_quarter_crown" d="M13.47 37.62c-1.07 4.12-1.72 7.82-1 8.93C14.28 49.24 25.94 57.44 29 57.18s17.42-7.43 17.8-10c.16-1.09-1.2-5.12-2.91-9.57z" class="c20-cls-8 c20-cls-19" data-color-action="fill" style="fill:inherit" data-name="three quarter crown"/><path id="c70_crown" d="M18 23.63c-.93 2.16-7.3 20.24-5.51 22.92S25.94 57.44 29 57.18s17.42-7.43 17.8-10S39.13 25.8 38 23.5s-18.85-2.56-20 .13z" class="c20-cls-8 c20-cls-19" data-color-action="fill" style="fill:inherit"/><path id="c70_cracked_surface_mesial" d="M17.66 46.19l-3.83-3.84h5.01l-5.01-4.74h5.01l-3.83-3.83" class="c20-cls-20" data-color-action="stroke" style="stroke:inherit" data-name="cracked surface mesial"/><path id="c70_cracked_surface_lingual" d="M30.83 46.19L27 42.35h5l-5-4.74h5l-3.83-3.83" class="c20-cls-20" data-color-action="stroke" style="stroke:inherit" data-name="cracked surface lingual"/><path id="c70_cracked_surface_lingual_V" d="M30.83 46.19L27 42.35h5l-5-4.74h5l-3.83-3.83" class="c20-cls-20" data-color-action="stroke" style="stroke:inherit" data-name="cracked surface lingual V"/><path id="c70_cracked_surface_distal" d="M44.66 46.19l-3.83-3.84h5l-5-4.74h5L42 33.78" class="c20-cls-20" data-color-action="stroke" style="stroke:inherit" data-name="cracked surface distal"/><g id="c70_chipped_surface_mesial" class="c20-cls-8" data-name="chipped surface mesial"><path d="M21.17 44.51l-8.33-8.33M12.84 44.51l8.33-8.33" class="c20-cls-21" data-color-action="stroke" style="stroke:inherit"/></g><g id="c70_chipped_surface_lingual" class="c20-cls-8" data-name="chipped surface lingual"><path d="M33.33 44.51L25 36.18M25 44.51l8.33-8.33" class="c20-cls-21" data-color-action="stroke" style="stroke:inherit"/></g><g id="c70_chipped_surface_lingual_V" class="c20-cls-8" data-name="chipped surface lingual V"><path d="M33.33 44.51L25 36.18M25 44.51l8.33-8.33" class="c20-cls-21" data-color-action="stroke" style="stroke:inherit"/></g><g id="c70_chipped_surface_distal" class="c20-cls-8" data-name="chipped surface distal"><path d="M46.33 44.51L38 36.18M38 44.51l8.33-8.33" class="c20-cls-21" data-color-action="stroke" style="stroke:inherit"/></g><g id="c70_buccal_abfraction" data-name="buccal abfraction"><path d="M28 61.75h3v3h-3z" class="c20-cls-7" transform="rotate(-180 29.5 63.25)"/><path d="M28 61.75h3v3h-3z" class="c20-cls-7" transform="rotate(-180 29.5 63.25)"/><path d="M28 61.75h3v3h-3z" class="c20-cls-7" transform="rotate(-180 29.5 63.25)"/></g><g id="c70_braces"><path d="M28 61.75h3v3h-3z" class="c20-cls-7" transform="rotate(-180 29.5 63.25)"/><path d="M28 61.75h3v3h-3z" class="c20-cls-7" transform="rotate(-180 29.5 63.25)"/><path d="M28 61.75h3v3h-3z" class="c20-cls-7" transform="rotate(-180 29.5 63.25)"/></g><g id="c70_apicoectomy"><path d="M28 61.75h3v3h-3z" class="c20-cls-7" transform="rotate(-180 29.5 63.25)"/><path d="M28 61.75h3v3h-3z" class="c20-cls-7" transform="rotate(-180 29.5 63.25)"/><path d="M28 61.75h3v3h-3z" class="c20-cls-7" transform="rotate(-180 29.5 63.25)"/></g><g id="c70_abscess"><path d="M28 61.75h3v3h-3z" class="c20-cls-7" transform="rotate(-180 29.5 63.25)"/><path d="M28 61.75h3v3h-3z" class="c20-cls-7" transform="rotate(-180 29.5 63.25)"/><path d="M28 61.75h3v3h-3z" class="c20-cls-7" transform="rotate(-180 29.5 63.25)"/></g><g id="c70_blunted_roots" data-name="blunted roots"><path d="M28 61.75h3v3h-3z" class="c20-cls-7" transform="rotate(-180 29.5 63.25)"/><path d="M28 61.75h3v3h-3z" class="c20-cls-7" transform="rotate(-180 29.5 63.25)"/><path d="M28 61.75h3v3h-3z" class="c20-cls-7" transform="rotate(-180 29.5 63.25)"/></g><g id="c70_root_amputation" data-name="root amputation"><path d="M28 61.75h3v3h-3z" class="c20-cls-7" transform="rotate(-180 29.5 63.25)"/><path d="M28 61.75h3v3h-3z" class="c20-cls-7" transform="rotate(-180 29.5 63.25)"/><path d="M28 61.75h3v3h-3z" class="c20-cls-7" transform="rotate(-180 29.5 63.25)"/></g><g id="c70_missing_crown" data-name="missing crown"><path d="M28 61.75h3v3h-3z" class="c20-cls-7" transform="rotate(-180 29.5 63.25)"/><path d="M28 61.75h3v3h-3z" class="c20-cls-7" transform="rotate(-180 29.5 63.25)"/><path d="M28 61.75h3v3h-3z" class="c20-cls-7" transform="rotate(-180 29.5 63.25)"/><path d="M2 2h55v61.98H2z" class="c20-cls-13" transform="rotate(-180 29.5 32.99)"/></g><g id="c70_missing_tooth" data-name="missing tooth"><path d="M18 23.63c-.93 2.16-7.3 20.24-5.51 22.92S25.94 57.44 29 57.18s17.42-7.43 17.8-10S39.13 25.8 38 23.5s-18.85-2.56-20 .13z" class="c20-cls-2"/><path d="M18 23.63c-.93 2.16-7.3 20.24-5.51 22.92S25.94 57.44 29 57.18s17.42-7.43 17.8-10S39.13 25.8 38 23.5s-18.85-2.56-20 .13z" class="c20-cls-13"/><path d="M35.08 25.15a9.41 9.41 0 0 1 4.36 1.63c-.7-1.6-1.23-2.8-1.47-3.28-1.15-2.31-18.83-2.56-20 .13-.18.42-.57 1.46-1.07 2.87A11.82 11.82 0 0 1 22 25c3.12 0 10.73.15 13.08.15zM12.49 46.55C14.28 49.24 25.94 57.44 29 57.18s17.42-7.43 17.8-10a14.24 14.24 0 0 0-1-4.33c-.31.92-.29 2.66-.93 3.84-1.09 2-15.58 7.43-17 7.24s-11.23-6.7-13.22-8a7.27 7.27 0 0 1-2.28-3c-.27 1.74-.27 3.07.12 3.62z" class="c20-cls-13"/></g><g id="c70_maryland_bridge_pontic" class="c20-cls-8" data-name="maryland bridge pontic"><path d="M18 23.63c-.93 2.16-7.3 20.24-5.51 22.92S25.94 57.44 29 57.18s17.42-7.43 17.8-10S39.13 25.8 38 23.5s-18.85-2.56-20 .13z" class="c20-cls-14" data-color-action="fill" style="fill:inherit"/><path d="M2 32.37h55v7.67H2z" class="c20-cls-14" transform="rotate(-180 29.5 36.205)" data-color-action="fill" style="fill:inherit"/></g><g id="c70_maryland_bridge_abutment_mesial" class="c20-cls-8" data-name="maryland bridge abutment mesial"><path d="M2 34.17h20.42v7.67H2z" class="c20-cls-14" data-color-action="fill" style="fill:inherit"/><ellipse cx="21.19" cy="38.01" class="c20-cls-14" rx="5.61" ry="12.9" data-color-action="fill" style="fill:inherit"/></g><g id="c70_maryland_bridge_abutment_distal" class="c20-cls-8" data-name="maryland bridge abutment distal"><path d="M36.58 34.17H57v7.67H36.58z" class="c20-cls-14" data-color-action="fill" style="fill:inherit"/><ellipse cx="37.81" cy="38.01" class="c20-cls-14" rx="5.61" ry="12.9" data-color-action="fill" style="fill:inherit"/></g><g id="c70_maryland_bridge_abutment" class="c20-cls-8" data-name="maryland bridge abutment"><path d="M2 34.17h20.42v7.67H2zM36.58 34.17H57v7.67H36.58z" class="c20-cls-14" data-color-action="fill" style="fill:inherit"/><ellipse cx="37.81" cy="38.01" class="c20-cls-14" rx="5.61" ry="12.9" data-color-action="fill" style="fill:inherit"/><ellipse cx="21.19" cy="38.01" class="c20-cls-14" rx="5.61" ry="12.9" data-color-action="fill" style="fill:inherit"/></g><g id="c70_bridge_abutment_mesial" class="c20-cls-8" data-name="bridge abutment mesial"><path d="M18 23.63c-.93 2.16-7.3 20.24-5.51 22.92S25.94 57.44 29 57.18s17.42-7.43 17.8-10S39.13 25.8 38 23.5s-18.85-2.56-20 .13z" class="c20-cls-11" data-color-action="fill" style="fill:inherit"/><path d="M2 32.6h34.98v7.67H2z" class="c20-cls-11" transform="rotate(-180 19.49 36.43)" data-color-action="fill" style="fill:inherit"/></g><g id="c70_bridge_abutment_distal" class="c20-cls-8" data-name="bridge abutment distal"><path d="M18 23.63c-.93 2.16-7.3 20.24-5.51 22.92S25.94 57.44 29 57.18s17.42-7.43 17.8-10S39.13 25.8 38 23.5s-18.85-2.56-20 .13z" class="c20-cls-11" data-color-action="fill" style="fill:inherit"/><path d="M22.02 32.6H57v7.67H22.02z" class="c20-cls-11" transform="rotate(-180 39.51 36.43)" data-color-action="fill" style="fill:inherit"/></g><g id="c70_bridge_abutment" class="c20-cls-8" data-name="bridge abutment"><path d="M18 23.63c-.93 2.16-7.3 20.24-5.51 22.92S25.94 57.44 29 57.18s17.42-7.43 17.8-10S39.13 25.8 38 23.5s-18.85-2.56-20 .13z" class="c20-cls-11" data-color-action="fill" style="fill:inherit"/><path d="M2 32.6h55v7.67H2z" class="c20-cls-11" transform="rotate(-180 29.5 36.43)" data-color-action="fill" style="fill:inherit"/></g><g id="c70_bridge_pontic" class="c20-cls-8" data-name="bridge pontic"><path d="M18 23.63c-.93 2.16-7.3 20.24-5.51 22.92S25.94 57.44 29 57.18s17.42-7.43 17.8-10S39.13 25.8 38 23.5s-18.85-2.56-20 .13z" class="c20-cls-11" data-color-action="fill" style="fill:inherit"/><path d="M2 32.6h55v7.67H2z" class="c20-cls-11" transform="rotate(-180 29.5 36.43)" data-color-action="fill" style="fill:inherit"/></g><g id="c70_implant_mini" data-name="implant mini"><path d="M2 2h55v61.98H2z" class="c20-cls-13" transform="rotate(-180 29.5 32.99)"/><path d="M29.28 0h.44l1 8.5v40.83h-2.44V8.5l1-8.5z" class="c20-cls-11" data-color-action="fill" style="fill:inherit"/><path d="M29.58 0h.07l.4 8.5v40.83h-.37V8.5l-.1-8.5z" class="c20-cls-16"/><path d="M28.28 48.7h2.44v.63h-2.44z" class="c20-cls-17" transform="rotate(-180 29.5 49.015)" data-color-action="fill" style="fill:inherit"/><g class="c20-cls-18"><path d="M30.72 48.7l-2.44-1v.63l2.44 1v-.63zM30.72 47.26l-2.44-1v.63l2.44 1v-.63zM30.72 45.81l-2.44-1v.63l2.44 1v-.63zM30.72 44.36l-2.44-1V44l2.44 1v-.64zM30.72 42.92l-2.44-1v.63l2.44 1v-.63zM30.72 41.47l-2.44-1v.63l2.44 1.01v-.64zM30.72 40.03l-2.44-1v.63l2.44 1v-.63zM30.72 38.58l-2.44-1v.63l2.44 1.01v-.64zM30.72 37.14l-2.44-1v.63l2.44 1v-.63zM30.72 35.69l-2.44-1v.63l2.44 1v-.63zM30.72 34.25l-2.44-1.01v.64l2.44 1v-.63zM30.72 32.8l-2.44-1v.63l2.44 1v-.63zM30.72 31.36l-2.44-1v.63l2.44 1v-.63zM30.72 29.91l-2.44-1v.63l2.44 1v-.63zM30.72 28.46l-2.44-1v.64l2.44 1v-.64zM30.72 27.02l-2.44-1v.63l2.44 1v-.63zM30.72 25.57l-2.44-1v.63l2.44 1.01v-.64zM30.72 24.13l-2.44-1v.63l2.44 1v-.63zM30.72 22.68l-2.44-1v.63l2.44 1.01v-.64zM30.72 21.24l-2.44-1v.63l2.44 1v-.63zM30.72 19.79l-2.44-1v.63l2.44 1v-.63zM30.72 18.35l-2.44-1.01v.64l2.44 1v-.63zM30.72 16.9l-2.44-1v.63l2.44 1v-.63zM30.72 15.46l-2.44-1v.63l2.44 1v-.63zM30.72 14.01l-2.44-1v.63l2.44 1v-.63zM30.72 12.56l-2.44-1v.64l2.44 1v-.64zM30.72 11.12l-2.44-1v.63l2.44 1v-.63zM30.72 9.67l-2.44-1v.63l2.44 1.01v-.64zM30.72 8.5l-.03-.29-2.27-.92-.07.6 2.37.97V8.5zM30.51 6.7l-1.93-.79-.07.6 2.08.85-.08-.66zM30.33 5.18l-1.58-.65-.08.6 1.74.71-.08-.66zM30.15 3.66l-1.24-.51-.07.6 1.39.57-.08-.66zM29.97 2.14l-.9-.37-.07.6 1.05.43-.08-.66zM29.8.62l-.57-.23-.07.6.71.3-.07-.67z" class="c20-cls-17" data-color-action="fill" style="fill:inherit"/></g><circle cx="29.5" cy="53.21" r="2.24" class="c20-cls-11" data-color-action="fill" style="fill:inherit"/><path d="M27.67 48.99h3.67v3h-3.67z" class="c20-cls-11" transform="rotate(-180 29.5 50.49)" data-color-action="fill" style="fill:inherit"/><path d="M29.96 48.99h.55v3h-.55z" class="c20-cls-16"/><path d="M30.3 54.56h.21a2.32 2.32 0 0 0 .49-1.28 2.37 2.37 0 0 0-.52-1.3H30a2 2 0 0 1 .73 1.37 1.5 1.5 0 0 1-.43 1.21z" class="c20-cls-16"/><path d="M28.28 42.63h2.44v.63h-2.44z" class="c20-cls-17" transform="rotate(-180 29.5 42.95)" data-color-action="fill" style="fill:inherit"/><path d="M26.89 49.01h5.22l-.87-5.71h-3.48l-.87 5.71z" class="c20-cls-11" data-color-action="fill" style="fill:inherit"/><path d="M30.15 49.01h.79l-.48-5.71h-.53l.22 5.71z" class="c20-cls-16"/></g><g id="c70_implant_cylinder" data-name="implant cylinder"><path d="M2 2h55v61.98H2z" class="c20-cls-13" transform="rotate(-180 29.5 32.99)"/><path d="M26.17 3h6.67v49.33h-6.67z" class="c20-cls-11" transform="rotate(-180 29.5 27.665)" data-color-action="fill" style="fill:inherit"/><path d="M24.5 0h10v3h-10z" class="c20-cls-11" transform="rotate(-180 29.5 1.5)" data-color-action="fill" style="fill:inherit"/><path d="M30 3h1v49.33h-1z" class="c20-cls-16" transform="rotate(-180 30.5 27.665)"/><path d="M30.75 0h1.5v3h-1.5z" class="c20-cls-16" transform="rotate(-180 31.5 1.5)"/><path d="M24.5 52.36h10v3h-10z" class="c20-cls-11" transform="rotate(-180 29.5 53.86)" data-color-action="fill" style="fill:inherit"/><path d="M30.75 52.36h1.5v3h-1.5z" class="c20-cls-16" transform="rotate(-180 31.5 53.86)"/><path d="M26.17 3h6.67v.63h-6.67z" class="c20-cls-17" transform="rotate(-180 29.5 3.315)" data-color-action="fill" style="fill:inherit"/><path d="M26.17 51.7h6.67v.63h-6.67z" class="c20-cls-17" transform="rotate(-180 29.5 52.015)" data-color-action="fill" style="fill:inherit"/><g class="c20-cls-18"><path d="M26.17 50.7l6.66 1v.63l-6.66-1v-.63zM26.17 49.25l6.66 1v.63l-6.66-1v-.63zM26.17 47.81l6.66 1v.63l-6.66-1v-.63zM26.17 46.36l6.66 1v.63l-6.66-1v-.63zM26.17 44.92l6.66 1v.63l-6.66-1v-.63zM26.17 43.47l6.66 1v.63l-6.66-1v-.63zM26.17 42.02l6.66 1v.64l-6.66-1v-.64zM26.17 40.58l6.66 1v.63l-6.66-1v-.63zM26.17 39.13l6.66 1v.64l-6.66-1v-.64zM26.17 37.69l6.66 1v.63l-6.66-1v-.63zM26.17 36.24l6.66 1v.64l-6.66-1v-.64zM26.17 34.8l6.66 1v.63l-6.66-1v-.63zM26.17 33.35l6.66 1v.63l-6.66-1v-.63zM26.17 31.91l6.66 1v.63l-6.66-1v-.63zM26.17 30.46l6.66 1v.63l-6.66-1v-.63zM26.17 29.02l6.66 1v.63l-6.66-1v-.63zM26.17 27.57l6.66 1v.63l-6.66-1v-.63zM26.17 26.13l6.66 1v.63l-6.66-1v-.63zM26.17 24.68l6.66 1v.63l-6.66-1v-.63zM26.17 23.23l6.66 1v.64l-6.66-1v-.64zM26.17 21.79l6.66 1v.63l-6.66-1v-.63zM26.17 20.34l6.66 1v.64l-6.66-1v-.64zM26.17 18.9l6.66 1v.63l-6.66-1v-.63zM26.17 17.45l6.66 1v.64l-6.66-1.01v-.63zM26.17 16.01l6.66 1v.63l-6.66-1v-.63zM26.17 14.56l6.66 1v.63l-6.66-1v-.63zM26.17 13.12l6.66 1v.63l-6.66-1v-.63zM26.17 11.67l6.66 1v.63l-6.66-1v-.63zM26.17 10.22l6.66 1v.64l-6.66-1v-.64zM26.17 8.78l6.66 1v.63l-6.66-1v-.63zM26.17 7.33l6.66 1.01v.63l-6.66-1v-.64zM26.17 5.89l6.66 1v.63l-6.66-1v-.63zM26.17 4.44l6.66 1v.64l-6.66-1v-.64zM26.17 3l6.66 1v.63l-6.66-1V3z" class="c20-cls-17" data-color-action="fill" style="fill:inherit"/></g></g><g id="c70_implant_blade" data-name="implant blade"><path d="M2 2h55v61.98H2z" class="c20-cls-13" transform="rotate(-180 29.5 32.99)"/><path d="M26.17 3.03h6.67v49.33h-6.67z" class="c20-cls-11" transform="rotate(-180 29.5 27.69)" data-color-action="fill" style="fill:inherit"/><path d="M24.5 52.36h10v3h-10z" class="c20-cls-11" transform="rotate(-180 29.5 53.86)" data-color-action="fill" style="fill:inherit"/><path d="M30 3.03h1v49.33h-1z" class="c20-cls-16" transform="rotate(-180 30.5 27.69)"/><path d="M30.75 52.36h1.5v3h-1.5z" class="c20-cls-16" transform="rotate(-180 31.5 53.86)"/><path d="M26.17 51.73h6.67v.63h-6.67z" class="c20-cls-17" transform="rotate(-180 29.5 52.045)" data-color-action="fill" style="fill:inherit"/></g><path id="c70_border" d="M0 0h59v66H0z" class="c20-cls-7" transform="rotate(-180 29.5 33)"/></defs></g></svg>