<svg version="1.1" xmlns="http://www.w3.org/2000/svg" xmlns:xlink="http://www.w3.org/1999/xlink" x="0px" y="0px" viewBox="0 0 59 283" style="enable-background:new 0 0 59 161;" xml:space="preserve"><defs><style type="text/css">.aT-cls-2{fill:#929497;stroke:none;}.aT-cls-3{font-family:'ProximaNova-Semibold',sans-serif;}.aT-cls-4{font-size:15px;}.aT-cls-5{fill:#C4C6C7;stroke:#C4C6C7;stroke-width:5;stroke-miterlimit:10;}.aT-cls-6{fill:#F5D7CF;stroke:none;}.aT-cls-7{fill:#F2C6BC;stroke:none;}.aT-cls-8{fill:#FAE8E3;stroke:none;}.aT-cls-9{fill:#EEEFEF;stroke:none;}.aT-cls-10{fill:#E2E3E4;stroke:none;}.aT-cls-11{fill:#FBFBFB;stroke:none;}.aT-cls-12{fill:#E0E0E0;stroke:none;}.aT-cls-13{fill:#FCFCFC;stroke:none;}.aT-cls-14{opacity:0.55;fill:#3C3D3D;stroke:none;}.aT-cls-15{fill:#FFD403;stroke:none;}.aT-cls-16{fill:none;stroke:#C52636;stroke-width:3.622;stroke-miterlimit:10;}.aT-cls-17{font-family:'ProximaNova-Bold',sans-serif;}.aT-cls-18{font-size:13.6587px;}.aT-cls-19{fill:none;stroke:none;}.aT-cls-20{fill:#28418B;stroke:none;}.aT-cls-21{fill:#787878;stroke:none;}.aT-cls-22{fill:none;stroke:#C52636;stroke-width:2;stroke-miterlimit:10;}.aT-cls-23{fill:#C52636;stroke:none;}.aT-cls-24{fill:none;stroke:#C52636;stroke-width:2;stroke-linecap:round;stroke-miterlimit:10;}.aT-cls-25{fill:#C5C7C9;stroke:none;}.aT-cls-26{fill:#FFF;stroke:none;}.aT-cls-27{fill:none;stroke:#28418B;stroke-width:2;stroke-miterlimit:10;}.aT-cls-28{fill:#FFEF3E;stroke:none;}.aT-cls-29{fill:none;stroke:#C52636;stroke-width:1.25;stroke-miterlimit:10;}.aT-cls-30{fill:#9B9999;stroke:none;}.aT-cls-31{fill:#DBDBDC;stroke:none;}.aT-cls-32{fill:#3C3D3D;stroke:none;}.bT-cls-2{fill:#C5C7C9;stroke:#C5C7C9;stroke-width:5;stroke-miterlimit:10;}.bT-cls-3{fill:#EEEFEF;stroke:none;}.bT-cls-4{fill:#E2E3E4;stroke:none;}.bT-cls-5{fill:#E0E0E0;stroke:none;}.bT-cls-6{fill:#FCFCFC;stroke:none;}.bT-cls-7{opacity:0.55;fill:#3C3D3D;stroke:none;}.bT-cls-8{fill:#787878;stroke:none;}.bT-cls-9{fill:none;stroke:none;}.bT-cls-10{fill:#28418B;stroke:none;}.bT-cls-11{font-family:'ProximaNova-Semibold',sans-serif;}.bT-cls-12{font-size:33px;}.bT-cls-13{fill:#FFF;stroke:none;}.bT-cls-14{fill:#FFEF3E;stroke:none;}.bT-cls-15{fill:none;stroke:#C52636;stroke-width:1.25;stroke-miterlimit:10;}.cT-cls-2{fill:#C4C6C7;stroke:#C4C6C7;stroke-width:5;stroke-miterlimit:10;}.cT-cls-3{fill:#EEEFEF;stroke:none;}.cT-cls-4{fill:#E2E3E4;stroke:none;}.cT-cls-5{fill:#FBFBFB;stroke:none;}.cT-cls-6{opacity:0.55;fill:#3C3D3D;stroke:none;}.cT-cls-7{fill:#28418B;stroke:none;}.cT-cls-8{fill:#787878;stroke:none;}.cT-cls-9{fill:#FFF;stroke:none;}.cT-cls-10{fill:#FFEF3E;stroke:none;}.cT-cls-11{fill:none;stroke:#C52636;stroke-width:1.25;stroke-miterlimit:10;}.cT-cls-12{fill:none;stroke:none;}.aT-msng-cls-1{isolation:isolate;}.aT-msng-cls-2{font-size:15px;fill:#929497;font-family:ProximaNova-Semibold,Proxima Nova;font-weight:700;stroke:none;}.aT-msng-cls-3{fill:#C4C6C7;stroke:#C4C6C7;stroke-width:5px;}.aT-msng-cls-13,.aT-msng-cls-3{stroke-miterlimit:10;}.aT-msng-cls-4{fill:#F5D7CF;stroke:none;}.aT-msng-cls-5{fill:#F2C6BC;stroke:none;}.aT-msng-cls-6{fill:#FAE8E3;stroke:none;}.aT-msng-cls-7{fill:#EEEFEF;stroke:none;}.aT-msng-cls-8{fill:#E2E3E4;stroke:none;}.aT-msng-cls-9{fill:#FBFBFB;stroke:none;}.aT-msng-cls-10{fill:#E0E0E0;stroke:none;}.aT-msng-cls-11{fill:#FCFCFC;stroke:none;}.aT-msng-cls-12{}.aT-msng-cls-13,.aT-msng-cls-14{fill:none;stroke:none;}.aT-msng-cls-13{stroke:#787878;stroke-width:6.25px;}</style></defs><title>ToothTS_Layered</title><g class="aT-cls-1" transform="translate(0 122)"><g id="_Ta">	<text transform="matrix(1 0 0 1 20.0121 150.7422)" class="aT-cls-2 aT-cls-3 aT-cls-4">TS</text>	<g>		<path class="aT-cls-5" d="M52.8,58c-0.4-8-4.9-14.9-6.9-18.7c0-0.1,0-0.2,0-0.3c-0.5-3,2.1-10.1,2.5-13.1c0.7-5,1-9.5-6.4-10.4    c-4.5-0.5-5.7-0.6-6.9-0.2c-1.2,0.4-2.2,0.4-3.6-0.4c-1-0.6-2.1-1-5-1.1c-1.6-0.1-4.2,0.1-5.7,0.8c-0.6,0.3-0.9,0.2-1.7-0.1    c-1.3-0.6-5.4-0.7-6.5-0.4c-4,1-4.6,3.3-4.7,5.3c-0.2,2.8,1,9.9,1.7,12.3c0.7,2.4,0.1,5.5-0.2,6.5c0,0.1,0,0.1,0.1,0.2    C6.3,50,4.8,62.5,7.8,72.2c0.1,0.5,0.3,0.9,0.4,1.3l0,0c0.6,1.6,1.7,3.6,3,5.6c2.8,4.4,6.6,8.8,8.2,8.4c2.3-0.5,0-10.2-0.7-16.5    c-0.7-6.3,4.6-17.2,11-17.8c6.4-0.5,12.4,14.5,12.3,21.3c-0.1,6.9-0.7,13.1,2,13.6C46.4,88.7,53.5,71.9,52.8,58z" />		<path class="aT-cls-6" d="M52.8,58c-0.5-9.7-7-17.8-7.8-20.7c-2-7.2-30.2-11.8-35-0.7h0c-0.1,0.3-0.3,0.7-0.4,1    C6.4,49.5,4.8,62.3,7.8,72.2c0.1,0.5,0.3,0.9,0.4,1.3l0,0c0.6,1.6,1.7,3.6,3,5.6c2.8,4.4,6.6,8.8,8.2,8.4c2.3-0.5,0-10.2-0.7-16.5    c-0.7-6.3,4.6-17.2,11-17.8c6.4-0.5,12.4,14.5,12.3,21.3c-0.1,6.9-0.7,13.1,2,13.6C46.4,88.7,53.5,71.9,52.8,58z" />		<path class="aT-cls-7" d="M45.3,38c1.1,3.3,7.1,10.9,7.6,20c0.4,8.9-2.4,19.1-5,25c0.6-2.2,1.4-5.7,1.8-8.2c1.5-8.5,1.7-12.5,1.3-17.6    c-0.3-5.1-6.6-14.5-7.2-17.3C43.6,39.2,44.4,38.5,45.3,38z" />		<path class="aT-cls-7" d="M16.6,68.5c-0.2-5.9,3.3-12,5.5-14.4c2.7-3,6.7-4,9.4-2.9c3.4,1.4,7.4,5.5,8.6,8.9c1.3,3.4,2.9,8.3,2.8,14.7    c0,2-0.7,4.6-1.1,6.7c0-2.1,0.1-4.4,0.1-6.8c0.1-6.9-5.9-21.8-12.3-21.3c-6.4,0.5-11.7,11.5-11,17.8c0.4,3.8,1.4,8.7,1.6,12.2    c-0.1-0.2-0.2-0.3-0.3-0.5C18.2,79,16.8,73,16.6,68.5z" />		<path class="aT-cls-7" d="M9.7,37.7c0.1-0.4,0.2-0.7,0.4-1l2.7,1.2c0,0-1.3,3.7-2.1,7c-0.8,3.3-2.4,8-2.7,14.5    C7.6,65.2,8.8,72.2,10,75.8c0.4,1.2,0.9,2.6,1.5,3.9c-1.4-2.2-2.7-4.4-3.4-6.2C4.6,63.5,6.2,50.1,9.7,37.7z" />		<path class="aT-cls-8" d="M20.3,40.2c-0.7,3.2-5.7,10.8-5.7,21.7s3.2,21.6,2.4,22c-0.8,0.4-3.9-11.4-5.2-17.6c-2-10.2,1.9-20.9,4-26    S20.8,37.8,20.3,40.2z" />		<path class="aT-cls-9" d="M45.9,39c-0.5-3,2.1-10.1,2.5-13.1c0.7-5,1-9.5-6.4-10.4c-4.5-0.5-5.7-0.6-6.9-0.2c-1.2,0.4-2.2,0.4-3.6-0.4    c-1-0.6-2.1-1-5-1.1c-1.6-0.1-4.2,0.1-5.7,0.8c-0.6,0.3-0.9,0.2-1.7-0.1c-1.3-0.6-5.4-0.7-6.5-0.4c-4,1-4.6,3.3-4.7,5.3    c-0.2,2.8,1,9.9,1.7,12.3s0.1,5.5-0.2,6.5s9.1,3,17.7,3.1C35.7,41.3,46.4,41.7,45.9,39z" />		<path class="aT-cls-10" d="M42.5,15.6c2.6,2.8,2.7,7.8,2.7,10.8c0.1,3.1-2,10.6-2,14.4c1.8-0.3,2.9-0.9,2.7-1.8    c-0.5-3,2.1-10.1,2.5-13.1C49.2,20.9,49.4,16.6,42.5,15.6z" />		<path class="aT-cls-11" d="M34.6,17.2c1.1,0.3,0.1,3,0.1,4.7c0,1.7,0.6,4.9,0,4.7c-0.6-0.2-1.1-3.2-1.5-4.7    C32.8,20.3,32.1,16.5,34.6,17.2z" />		<path class="aT-cls-8" d="M43.9,85c-0.5-0.3,1.4-7.9,0.5-15.6c-1-8.9-4.5-16.6-3.9-16.9s4,6.4,4.7,8.9c1,3.4,1.7,9,1,14.1    C45.6,80.6,44.6,85.4,43.9,85z" />		<path class="aT-cls-12" d="M12.6,32.9c-0.6-2.7-1.6-10.6-1.4-13.7c0.1-1.9,1.3-3.9,3-5.2c-0.6,0-1.2,0.1-1.5,0.1c-4,1-4.6,3.3-4.7,5.3    c-0.2,2.8,1,9.9,1.7,12.3c0.7,2.4,0.1,5.5-0.2,6.5c-0.1,0.4,1,0.9,3,1.4C13,37.5,13,34.6,12.6,32.9z" />		<path class="aT-cls-13" d="M20.8,40.9c0.3-2.9,0.4-7.6-0.1-9.8c-0.7-3-1.8-10.9-1.4-13.3c0.2-1.1,0.6-2.2,1-3c-0.3,0-0.6,0-1.2-0.3    c-0.5-0.2-1.4-0.4-2.3-0.5c-0.5,0.8-1,1.9-1.2,2.7c-1,4.6,0.2,11.6,1,14.5c0.6,2.2,0.6,5.9-0.1,9C17.8,40.5,19.3,40.7,20.8,40.9z" />	</g></g><defs><g id="aTS_bone_graft" style="">	<g>		<g>							<ellipse transform="matrix(0.1539 -0.9881 0.9881 0.1539 -23.6537 49.9275)" class="aT-cls-16" cx="17.3" cy="38.8" rx="12.7" ry="12.7" data-color-action="stroke" style="stroke:inherit" />			<line class="aT-cls-16" x1="10.3" y1="29.2" x2="24.3" y2="48.4" data-color-action="stroke" style="stroke:inherit" />		</g>		<text transform="matrix(1 0 0 1 6.7031 43.357)" class="aT-cls-17 aT-cls-18">NA</text>	</g></g><g id="aTS_splinted_crowns" style="">	<g>		<g>							<ellipse transform="matrix(0.1539 -0.9881 0.9881 0.1539 -23.6537 49.9275)" class="aT-cls-16" cx="17.3" cy="38.8" rx="12.7" ry="12.7" data-color-action="stroke" style="stroke:inherit" />			<line class="aT-cls-16" x1="10.3" y1="29.2" x2="24.3" y2="48.4" data-color-action="stroke" style="stroke:inherit" />		</g>		<text transform="matrix(1 0 0 1 6.7031 43.357)" class="aT-cls-17 aT-cls-18">NA</text>	</g></g><g id="aTS_buccal_V" style="">	<path class="aT-cls-14" d="M18.5,40.6c2.7,0.4,5.7,0.6,8.6,0.7c4.2,0.1,8.9,0.2,12.6-0.1c-3.4-1.4-7.1-2.2-10.9-2.3   C25.2,38.8,21.7,39.4,18.5,40.6z" data-color-action="fill" style="fill:inherit" /></g><g id="aTS_buccal_pit" style="">	<ellipse class="aT-cls-14" cx="28.6" cy="30.8" rx="3.9" ry="6.6" data-color-action="fill" style="fill:inherit" /></g><g id="aTS_mesial" style="">	<path class="aT-cls-14" d="M48.3,19.1l-4.1,5.2c0.3,1,0.2,2.4,0.3,3.4c0.2,1.9,1,4.1,2.1,5.4c0.7-2.8,1.6-5.6,1.8-7.3   C48.9,23.3,49.1,21,48.3,19.1z" data-color-action="fill" style="fill:inherit" /></g><g id="aTS_line_angle_2" style="">	<path class="aT-cls-14" d="M42.1,15.5c-2.8-0.3-4.4-0.5-5.4-0.4l-1.5,6.2c0.9-0.4,2.8-0.7,4.3-0.7c3.8-0.1,4.1,1.4,4.7,3.7l4.1-5.2   C47.5,17.3,45.7,16,42.1,15.5z" data-color-action="fill" style="fill:inherit" /></g><g id="aTS_groove_1" style="">	<path class="aT-cls-14" d="M35.1,15.4c-1.2,0.4-2.2,0.4-3.6-0.4c-1-0.6-2.1-1-5-1.1c-1.5-0.1-3.7,0.1-5.3,0.6l1.5,6.3   c2.5,1.1,3.9,2.2,6.3,2.1c2.8-0.1,3.8-0.5,6.2-1.5l1.5-6.2C36,15.1,35.6,15.2,35.1,15.4z" data-color-action="fill" style="fill:inherit" /></g><g id="aTS_line_angle_1" style="">	<path class="aT-cls-14" d="M20.8,14.6c-0.6,0.3-0.9,0.2-1.7-0.1c-1.3-0.6-5.4-0.7-6.5-0.4c-2.5,0.6-3.6,1.7-4.2,3l4.3,6.6   c1.2-2.3,2.8-3.8,5.2-3.8c1.9,0,3.5,0.4,4.8,1l-1.5-6.3C21,14.5,20.9,14.5,20.8,14.6z" data-color-action="fill" style="fill:inherit" /></g><g id="aTS_distal" style="">	<path class="aT-cls-14" d="M10.7,28.9c0.6-2,1.2-3.8,2-5.3L8.4,17c-0.3,0.8-0.5,1.6-0.5,2.3C7.7,21.9,8.8,28.1,9.5,31   C10,30.5,10.5,29.8,10.7,28.9z" data-color-action="fill" style="fill:inherit" /></g><g id="aTS_veneer" style="">	<g>		<g>							<ellipse transform="matrix(0.1539 -0.9881 0.9881 0.1539 -23.6537 49.9275)" class="aT-cls-16" cx="17.3" cy="38.8" rx="12.7" ry="12.7" data-color-action="stroke" style="stroke:inherit" />			<line class="aT-cls-16" x1="10.3" y1="29.2" x2="24.3" y2="48.4" data-color-action="stroke" style="stroke:inherit" />		</g>		<text transform="matrix(1 0 0 1 6.7031 43.357)" class="aT-cls-17 aT-cls-18">NA</text>	</g></g><g id="aTS_tissue_graft" style="">	<g>		<g>							<ellipse transform="matrix(0.1539 -0.9881 0.9881 0.1539 -23.6537 49.9275)" class="aT-cls-16" cx="17.3" cy="38.8" rx="12.7" ry="12.7" data-color-action="stroke" style="stroke:inherit" />			<line class="aT-cls-16" x1="10.3" y1="29.2" x2="24.3" y2="48.4" data-color-action="stroke" style="stroke:inherit" />		</g>		<text transform="matrix(1 0 0 1 6.7031 43.357)" class="aT-cls-17 aT-cls-18">NA</text>	</g></g><g id="aTS_tipped_lingual" style="">	<rect x="28" y="154.8" class="aT-cls-19" width="3" height="3" /></g><g id="aTS_tipped_facial" style="">	<g>		<path class="aT-cls-20" d="M26.1,10.4c1.2-3.2,4.5-3.6,7.2,5c0.5,1.5,4.2,1.7,3.6,0c-1.9-5.7-5-9.6-8.5-8.7c-1.2,0.3-2.3,1.6-2.8,3.2    C25.8,10.1,26,10.3,26.1,10.4z" data-color-action="fill" style="fill:inherit" />		<polygon class="aT-cls-20" points="28.1,13.2 40.2,13.2 37.5,22.3   " data-color-action="fill" style="fill:inherit" />	</g></g><g id="aTS_surface_restoration_mesial" style="">	<path class="aT-cls-21" d="M41.8,23.1c0,0.4-0.1,1-0.2,1.7c-0.1,0.6-0.5,2.1-0.8,3.4c-0.3,1-1,4.4-1.6,7.9c1.7-3,4.7-5.1,8.3-5.6   c0.5-1.9,1-3.6,1.1-4.7c0.4-2.9,0.7-5.6-0.6-7.6L41.8,23.1z" data-color-action="fill" style="fill:inherit" /></g><g id="aTS_surface_restoration_buccal" style="">	<g>		<path class="aT-cls-21" d="M38,38.7c0.3-0.9,0.6-1.7,1.1-2.5c0.7-3.5,1.4-6.9,1.6-7.9c0.4-1.3,0.8-2.8,0.8-3.4c0.2-1.1,0.2-1.8,0.3-2.3    c-0.2,0-0.4-0.1-0.6-0.1c-1.6-0.2-3.3-0.4-4.1-0.4h0c-1.2,0.4-2.3,0.6-3.4,0.6c-1.9,0-3.7-0.5-5.6-1.6l0,0c0,0-0.4-0.1-1.9-0.2    c-0.1,0-0.3,0-0.4,0c-1.1,0-2,0.2-2.2,0.2c-1.2,0.5-2.3,0.7-3.4,0.7c-1.4,0-2.5-0.4-3.4-0.7c-0.3-0.1-1-0.1-1.8-0.1    c0.2,2.3,0.9,7,1.5,8.9c0.1,0.5,0.2,2.8,0.3,5.6c0.3,0.8,0.5,1.6,0.7,2.4C20.1,36,23.4,35,27,35C31.1,35,34.9,36.4,38,38.7z" data-color-action="fill" style="fill:inherit" />			</g></g><g id="aTS_surface_restoration_buccal_V" style="">	<g>				<path class="aT-cls-21" d="M17.5,40.4c2.9,0.4,6.3,0.8,9.6,0.8c3.4,0,7.2,0.1,10.4,0c0.1-0.9,0.2-1.8,0.5-2.6c-3.1-2.3-6.9-3.7-11-3.7    c-3.6,0-6.9,1-9.7,2.8c0.1,0.6,0.2,1.2,0.2,1.9C17.5,39.9,17.5,40.2,17.5,40.4z" data-color-action="fill" style="fill:inherit" />	</g></g><g id="aTS_surface_restoration_distal" style="">	<path class="aT-cls-21" d="M7.9,19.3c-0.2,2,0.4,6.1,1,9.2c3.5,0.9,6.4,3.5,7.7,6.8c-0.1-2.8-0.2-5.1-0.3-5.6C15.9,28,15.2,24,15,21.6   l-5.2-6.2C8.3,16.5,8,18,7.9,19.3z" data-color-action="fill" style="fill:inherit" /></g><g id="aTS_surface_restoration_occlusal" style="">	<path class="aT-cls-21" d="M42.1,15.5c-4.5-0.5-5.7-0.6-6.9-0.2c-1.2,0.4-2.2,0.4-3.6-0.4c-1-0.6-2.1-1-5-1.1c-1.6-0.1-4.2,0.1-5.7,0.8   c-0.6,0.3-0.9,0.2-1.7-0.1c-1.3-0.6-5.4-0.7-6.5-0.4c-1.3,0.3-2.2,0.8-2.9,1.3l5.2,6.2c0-0.2,0-0.4-0.1-0.6c0.8,0,1.4,0.1,1.8,0.1   c0.9,0.4,2,0.7,3.4,0.7c1.1,0,2.3-0.2,3.4-0.7c0.2-0.1,1.1-0.2,2.2-0.2c0.1,0,0.3,0,0.4,0C27.6,20.9,28,21,28,21l0,0   c1.9,1.1,3.7,1.6,5.6,1.6c1.1,0,2.2-0.2,3.4-0.6h0c0.8,0,2.5,0.2,4.1,0.4c0.2,0,0.4,0.1,0.6,0.1c0,0.2,0,0.4,0,0.6l6.1-4.8   C46.9,16.9,45.2,15.9,42.1,15.5z" data-color-action="fill" style="fill:inherit" /></g><g id="aTS_supra-erupted" style="">	<g>		<g>							<ellipse transform="matrix(0.1539 -0.9881 0.9881 0.1539 -23.6537 49.9275)" class="aT-cls-16" cx="17.3" cy="38.8" rx="12.7" ry="12.7" data-color-action="stroke" style="stroke:inherit" />			<line class="aT-cls-16" x1="10.3" y1="29.2" x2="24.3" y2="48.4" data-color-action="stroke" style="stroke:inherit" />		</g>		<text transform="matrix(1 0 0 1 6.7031 43.357)" class="aT-cls-17 aT-cls-18">NA</text>	</g></g><g id="aTS_sub-erupted" style="">	<g>		<g>			<line class="aT-cls-22" x1="29.5" y1="50" x2="29.5" y2="43.1" data-color-action="stroke" style="stroke:inherit" />			<g>				<polygon class="aT-cls-23" points="33.5,48.8 29.5,55.7 25.5,48.8     " data-color-action="fill" style="fill:inherit" />			</g>		</g>	</g></g><g id="aTS_rotated_mesial" style="">	<g>		<path class="aT-cls-20" d="M4.1,34.3c-2.8-1.7-2.2-5.1,9.6-5.5c5-0.1,8.4,0,8.4,0L22.1,26c0,0-0.9-0.1-7.7,0.2    c-7.2,0.3-13.2,1.7-12.9,5.6c0.1,1,1,2.1,2.2,2.7C3.8,34.5,4,34.3,4.1,34.3z" data-color-action="fill" style="fill:inherit" />		<polygon class="aT-cls-20" points="16.1,33 16.1,21.9 25.8,27.4   " data-color-action="fill" style="fill:inherit" />	</g></g><g id="aTS_rotated_distal" style="">	<g>		<path class="aT-cls-20" d="M53.2,34.3c2.8-1.7,2.2-5.1-9.6-5.5c-5-0.1-8.4,0-8.4,0l0.1-2.8c0,0,0.9-0.1,7.7,0.2    c7.2,0.3,13.2,1.7,12.9,5.6c-0.1,1-1,2.1-2.2,2.7C53.5,34.5,53.3,34.3,53.2,34.3z" data-color-action="fill" style="fill:inherit" />		<polygon class="aT-cls-20" points="41.2,33 41.2,21.9 31.5,27.4   " data-color-action="fill" style="fill:inherit" />	</g></g><g id="aTS_root_tips" style="">	<g>		<g>							<ellipse transform="matrix(0.1539 -0.9881 0.9881 0.1539 -23.6537 49.9275)" class="aT-cls-16" cx="17.3" cy="38.8" rx="12.7" ry="12.7" data-color-action="stroke" style="stroke:inherit" />			<line class="aT-cls-16" x1="10.3" y1="29.2" x2="24.3" y2="48.4" data-color-action="stroke" style="stroke:inherit" />		</g>		<text transform="matrix(1 0 0 1 6.7031 43.357)" class="aT-cls-17 aT-cls-18">NA</text>	</g></g><g id="aTS_root_decay" style="">	<g>		<g>							<ellipse transform="matrix(0.1539 -0.9881 0.9881 0.1539 -23.6537 49.9275)" class="aT-cls-16" cx="17.3" cy="38.8" rx="12.7" ry="12.7" data-color-action="stroke" style="stroke:inherit" />			<line class="aT-cls-16" x1="10.3" y1="29.2" x2="24.3" y2="48.4" data-color-action="stroke" style="stroke:inherit" />		</g>		<text transform="matrix(1 0 0 1 6.7031 43.357)" class="aT-cls-17 aT-cls-18">NA</text>	</g><g id="root_decay_2">	<g>		<g>							<ellipse transform="matrix(0.1539 -0.9881 0.9881 0.1539 -23.6537 49.9275)" class="aT-cls-16" cx="17.3" cy="38.8" rx="12.7" ry="12.7" data-color-action="stroke" style="stroke:inherit" />			<line class="aT-cls-16" x1="10.3" y1="29.2" x2="24.3" y2="48.4" data-color-action="stroke" style="stroke:inherit" />		</g>		<text transform="matrix(1 0 0 1 6.7031 43.357)" class="aT-cls-17 aT-cls-18">NA</text>	</g></g><g id="root_decay_1">	<g>		<g>							<ellipse transform="matrix(0.1539 -0.9881 0.9881 0.1539 -23.6537 49.9275)" class="aT-cls-16" cx="17.3" cy="38.8" rx="12.7" ry="12.7" data-color-action="stroke" style="stroke:inherit" />			<line class="aT-cls-16" x1="10.3" y1="29.2" x2="24.3" y2="48.4" data-color-action="stroke" style="stroke:inherit" />		</g>		<text transform="matrix(1 0 0 1 6.7031 43.357)" class="aT-cls-17 aT-cls-18">NA</text>	</g></g></g><g id="aTS_root_canal" style="">	<line class="aT-cls-24" x1="47" y1="79.6" x2="42" y2="43.1" data-color-action="stroke" style="stroke:inherit" /><g id="root_canal_2">	<line class="aT-cls-24" x1="47" y1="79.6" x2="42" y2="43.1" data-color-action="stroke" style="stroke:inherit" /></g><g id="root_canal_1">	<line class="aT-cls-24" x1="15.2" y1="81.2" x2="14.6" y2="42.3" data-color-action="stroke" style="stroke:inherit" /></g></g><g id="aTS_root_abrasion" style="">	<g>		<g>							<ellipse transform="matrix(0.1539 -0.9881 0.9881 0.1539 -23.6537 49.9275)" class="aT-cls-16" cx="17.3" cy="38.8" rx="12.7" ry="12.7" data-color-action="stroke" style="stroke:inherit" />			<line class="aT-cls-16" x1="10.3" y1="29.2" x2="24.3" y2="48.4" data-color-action="stroke" style="stroke:inherit" />		</g>		<text transform="matrix(1 0 0 1 6.7031 43.357)" class="aT-cls-17 aT-cls-18">NA</text>	</g><g id="root_abrasion_2">	<g>		<g>							<ellipse transform="matrix(0.1539 -0.9881 0.9881 0.1539 -23.6537 49.9275)" class="aT-cls-16" cx="17.3" cy="38.8" rx="12.7" ry="12.7" data-color-action="stroke" style="stroke:inherit" />			<line class="aT-cls-16" x1="10.3" y1="29.2" x2="24.3" y2="48.4" data-color-action="stroke" style="stroke:inherit" />		</g>		<text transform="matrix(1 0 0 1 6.7031 43.357)" class="aT-cls-17 aT-cls-18">NA</text>	</g></g><g id="root_abrasion_1">	<g>		<g>							<ellipse transform="matrix(0.1539 -0.9881 0.9881 0.1539 -23.6537 49.9275)" class="aT-cls-16" cx="17.3" cy="38.8" rx="12.7" ry="12.7" data-color-action="stroke" style="stroke:inherit" />			<line class="aT-cls-16" x1="10.3" y1="29.2" x2="24.3" y2="48.4" data-color-action="stroke" style="stroke:inherit" />		</g>		<text transform="matrix(1 0 0 1 6.7031 43.357)" class="aT-cls-17 aT-cls-18">NA</text>	</g></g></g><g id="aTS_pins" style="">	<g>		<g>			<rect x="16.1" y="29" class="aT-cls-21" width="2.3" height="22" data-color-action="fill" style="fill:inherit" />			<rect x="16.8" y="29" class="aT-cls-25" width="0.3" height="22" />		</g>		<g>			<rect x="20.4" y="29" class="aT-cls-21" width="2.3" height="22" data-color-action="fill" style="fill:inherit" />			<rect x="21.1" y="29" class="aT-cls-25" width="0.3" height="22" />		</g>	</g>	<g>		<g>			<rect x="35" y="29" class="aT-cls-21" width="2.3" height="22" data-color-action="fill" style="fill:inherit" />			<rect x="35.6" y="29" class="aT-cls-25" width="0.3" height="22" />		</g>		<g>			<rect x="39.3" y="29" class="aT-cls-21" width="2.3" height="22" data-color-action="fill" style="fill:inherit" />			<rect x="39.9" y="29" class="aT-cls-25" width="0.3" height="22" />		</g>	</g></g><g id="aTS_post" style="">	<g>		<g>							<ellipse transform="matrix(0.1539 -0.9881 0.9881 0.1539 -23.6537 49.9275)" class="aT-cls-16" cx="17.3" cy="38.8" rx="12.7" ry="12.7" data-color-action="stroke" style="stroke:inherit" />			<line class="aT-cls-16" x1="10.3" y1="29.2" x2="24.3" y2="48.4" data-color-action="stroke" style="stroke:inherit" />		</g>		<text transform="matrix(1 0 0 1 6.7031 43.357)" class="aT-cls-17 aT-cls-18">NA</text>	</g></g><g id="aTS_open_contact_mesial" style="">	<g>		<g>							<ellipse transform="matrix(0.1539 -0.9881 0.9881 0.1539 -23.6537 49.9275)" class="aT-cls-16" cx="17.3" cy="38.8" rx="12.7" ry="12.7" data-color-action="stroke" style="stroke:inherit" />			<line class="aT-cls-16" x1="10.3" y1="29.2" x2="24.3" y2="48.4" data-color-action="stroke" style="stroke:inherit" />		</g>		<text transform="matrix(1 0 0 1 6.7031 43.357)" class="aT-cls-17 aT-cls-18">NA</text>	</g></g><g id="aTS_open_contact_distal" style="">	<g>		<g>							<ellipse transform="matrix(0.1539 -0.9881 0.9881 0.1539 -23.6537 49.9275)" class="aT-cls-16" cx="17.3" cy="38.8" rx="12.7" ry="12.7" data-color-action="stroke" style="stroke:inherit" />			<line class="aT-cls-16" x1="10.3" y1="29.2" x2="24.3" y2="48.4" data-color-action="stroke" style="stroke:inherit" />		</g>		<text transform="matrix(1 0 0 1 6.7031 43.357)" class="aT-cls-17 aT-cls-18">NA</text>	</g></g><g id="aTS_mesial_drift" style="">	<g>		<g>			<line class="aT-cls-27" x1="32.1" y1="28.6" x2="21.2" y2="28.6" data-color-action="stroke" style="stroke:inherit" />			<g>				<polygon class="aT-cls-20" points="30.9,24.6 37.8,28.6 30.9,32.6     " data-color-action="fill" style="fill:inherit" />			</g>		</g>	</g></g><g id="aTS_lingual_abfraction" style="">	<g>		<g>							<ellipse transform="matrix(0.1539 -0.9881 0.9881 0.1539 -23.6537 49.9275)" class="aT-cls-16" cx="17.3" cy="38.8" rx="12.7" ry="12.7" data-color-action="stroke" style="stroke:inherit" />			<line class="aT-cls-16" x1="10.3" y1="29.2" x2="24.3" y2="48.4" data-color-action="stroke" style="stroke:inherit" />		</g>		<text transform="matrix(1 0 0 1 6.7031 43.357)" class="aT-cls-17 aT-cls-18">NA</text>	</g></g><g id="aTS_internal_root_resorption" style="">	<g>		<g>							<ellipse transform="matrix(0.1539 -0.9881 0.9881 0.1539 -23.6537 49.9275)" class="aT-cls-16" cx="17.3" cy="38.8" rx="12.7" ry="12.7" data-color-action="stroke" style="stroke:inherit" />			<line class="aT-cls-16" x1="10.3" y1="29.2" x2="24.3" y2="48.4" data-color-action="stroke" style="stroke:inherit" />		</g>		<text transform="matrix(1 0 0 1 6.7031 43.357)" class="aT-cls-17 aT-cls-18">NA</text>	</g></g><g id="aTS_impacted_mesial" style="">	<g>		<g>							<ellipse transform="matrix(0.1539 -0.9881 0.9881 0.1539 -23.6537 49.9275)" class="aT-cls-16" cx="17.3" cy="38.8" rx="12.7" ry="12.7" data-color-action="stroke" style="stroke:inherit" />			<line class="aT-cls-16" x1="10.3" y1="29.2" x2="24.3" y2="48.4" data-color-action="stroke" style="stroke:inherit" />		</g>		<text transform="matrix(1 0 0 1 6.7031 43.357)" class="aT-cls-17 aT-cls-18">NA</text>	</g></g><g id="aTS_impacted_distal" style="">	<g>		<g>							<ellipse transform="matrix(0.1539 -0.9881 0.9881 0.1539 -23.6537 49.9275)" class="aT-cls-16" cx="17.3" cy="38.8" rx="12.7" ry="12.7" data-color-action="stroke" style="stroke:inherit" />			<line class="aT-cls-16" x1="10.3" y1="29.2" x2="24.3" y2="48.4" data-color-action="stroke" style="stroke:inherit" />		</g>		<text transform="matrix(1 0 0 1 6.7031 43.357)" class="aT-cls-17 aT-cls-18">NA</text>	</g></g><g id="aTS_gortex_membranes" style="">	<g>		<g>							<ellipse transform="matrix(0.1539 -0.9881 0.9881 0.1539 -23.6537 49.9275)" class="aT-cls-16" cx="17.3" cy="38.8" rx="12.7" ry="12.7" data-color-action="stroke" style="stroke:inherit" />			<line class="aT-cls-16" x1="10.3" y1="29.2" x2="24.3" y2="48.4" data-color-action="stroke" style="stroke:inherit" />		</g>		<text transform="matrix(1 0 0 1 6.7031 43.357)" class="aT-cls-17 aT-cls-18">NA</text>	</g></g><g id="aTS_frenum_pull" style="">	<g>		<g>							<ellipse transform="matrix(0.1539 -0.9881 0.9881 0.1539 -23.6537 49.9275)" class="aT-cls-16" cx="17.3" cy="38.8" rx="12.7" ry="12.7" data-color-action="stroke" style="stroke:inherit" />			<line class="aT-cls-16" x1="10.3" y1="29.2" x2="24.3" y2="48.4" data-color-action="stroke" style="stroke:inherit" />		</g>		<text transform="matrix(1 0 0 1 6.7031 43.357)" class="aT-cls-17 aT-cls-18">NA</text>	</g></g><g id="aTS_external_root_resorption" style="">	<g>		<g>							<ellipse transform="matrix(0.1539 -0.9881 0.9881 0.1539 -23.6537 49.9275)" class="aT-cls-16" cx="17.3" cy="38.8" rx="12.7" ry="12.7" data-color-action="stroke" style="stroke:inherit" />			<line class="aT-cls-16" x1="10.3" y1="29.2" x2="24.3" y2="48.4" data-color-action="stroke" style="stroke:inherit" />		</g>		<text transform="matrix(1 0 0 1 6.7031 43.357)" class="aT-cls-17 aT-cls-18">NA</text>	</g></g><g id="aTS_diastema_mesial" style="">	<g>		<g>							<ellipse transform="matrix(0.1539 -0.9881 0.9881 0.1539 -23.6537 49.9275)" class="aT-cls-16" cx="17.3" cy="38.8" rx="12.7" ry="12.7" data-color-action="stroke" style="stroke:inherit" />			<line class="aT-cls-16" x1="10.3" y1="29.2" x2="24.3" y2="48.4" data-color-action="stroke" style="stroke:inherit" />		</g>		<text transform="matrix(1 0 0 1 6.7031 43.357)" class="aT-cls-17 aT-cls-18">NA</text>	</g></g><g id="aTS_diastema_distal" style="">	<g>		<g>							<ellipse transform="matrix(0.1539 -0.9881 0.9881 0.1539 -23.6537 49.9275)" class="aT-cls-16" cx="17.3" cy="38.8" rx="12.7" ry="12.7" data-color-action="stroke" style="stroke:inherit" />			<line class="aT-cls-16" x1="10.3" y1="29.2" x2="24.3" y2="48.4" data-color-action="stroke" style="stroke:inherit" />		</g>		<text transform="matrix(1 0 0 1 6.7031 43.357)" class="aT-cls-17 aT-cls-18">NA</text>	</g></g><g id="aTS_distal_drift" style="">	<g>		<g>			<line class="aT-cls-27" x1="27" y1="28.6" x2="37.8" y2="28.6" data-color-action="stroke" style="stroke:inherit" />			<g>				<polygon class="aT-cls-20" points="28.1,32.6 21.2,28.6 28.1,24.6     " data-color-action="fill" style="fill:inherit" />			</g>		</g>	</g></g><g id="aTS_three_quarter_crown" style="">	<g>		<g>							<ellipse transform="matrix(0.1539 -0.9881 0.9881 0.1539 -23.6537 49.9275)" class="aT-cls-16" cx="17.3" cy="38.8" rx="12.7" ry="12.7" data-color-action="stroke" style="stroke:inherit" />			<line class="aT-cls-16" x1="10.3" y1="29.2" x2="24.3" y2="48.4" data-color-action="stroke" style="stroke:inherit" />		</g>		<text transform="matrix(1 0 0 1 6.7031 43.357)" class="aT-cls-17 aT-cls-18">NA</text>	</g></g><g id="aTS_crown" style="">	<path class="aT-cls-28" d="M45.9,39c-0.5-3,2.1-10.1,2.5-13.1c0.7-5,1-9.5-6.4-10.4c-4.5-0.5-5.7-0.6-6.9-0.2c-1.2,0.4-2.2,0.4-3.6-0.4   c-1-0.6-2.1-1-5-1.1c-1.6-0.1-4.2,0.1-5.7,0.8c-0.6,0.3-0.9,0.2-1.7-0.1c-1.3-0.6-5.4-0.7-6.5-0.4c-4,1-4.6,3.3-4.7,5.3   c-0.2,2.8,1,9.9,1.7,12.3s0.1,5.5-0.2,6.5s9.1,3,17.7,3.1C35.7,41.3,46.4,41.7,45.9,39z" data-color-action="fill" style="fill:inherit" /></g><g id="aTS_cracked_surface_distal" style="">	<polyline class="aT-cls-29" points="14.7,32.2 10.8,28.3 15.8,28.3 10.8,23.6 15.8,23.6 12,19.8  " data-color-action="stroke" style="stroke:inherit" /></g><g id="aTS_cracked_surface_buccal" style="">	<polyline class="aT-cls-29" points="29.8,32.2 26,28.3 31,28.3 26,23.6 31,23.6 27.2,19.8  " data-color-action="stroke" style="stroke:inherit" /></g><g id="aTS_cracked_surface_buccal_V" style="">	<polyline class="aT-cls-29" points="29.8,32.2 26,28.3 31,28.3 26,23.6 31,23.6 27.2,19.8  " data-color-action="stroke" style="stroke:inherit" /></g><g id="aTS_cracked_surface_mesial" style="">	<polyline class="aT-cls-29" points="45.7,32.2 41.8,28.3 46.8,28.3 41.8,23.6 46.8,23.6 43,19.8  " data-color-action="stroke" style="stroke:inherit" /></g><g id="aTS_chipped_surface_distal" style="">	<g>		<line class="aT-cls-29" x1="18.2" y1="30.5" x2="9.8" y2="22.2" data-color-action="stroke" style="stroke:inherit" />		<line class="aT-cls-29" x1="9.8" y1="30.5" x2="18.2" y2="22.2" data-color-action="stroke" style="stroke:inherit" />	</g></g><g id="aTS_chipped_surface_buccal" style="">	<g>		<line class="aT-cls-29" x1="32.3" y1="30.5" x2="24" y2="22.2" data-color-action="stroke" style="stroke:inherit" />		<line class="aT-cls-29" x1="24" y1="30.5" x2="32.3" y2="22.2" data-color-action="stroke" style="stroke:inherit" />	</g></g><g id="aTS_chipped_surface_buccal_V" style="">	<g>		<line class="aT-cls-29" x1="32.3" y1="30.5" x2="24" y2="22.2" data-color-action="stroke" style="stroke:inherit" />		<line class="aT-cls-29" x1="24" y1="30.5" x2="32.3" y2="22.2" data-color-action="stroke" style="stroke:inherit" />	</g></g><g id="aTS_chipped_surface_mesial" style="">	<g>		<line class="aT-cls-29" x1="47.3" y1="30.5" x2="39" y2="22.2" data-color-action="stroke" style="stroke:inherit" />		<line class="aT-cls-29" x1="39" y1="30.5" x2="47.3" y2="22.2" data-color-action="stroke" style="stroke:inherit" />	</g></g><g id="aTS_buccal_abfraction" style="">	<g>		<g>							<ellipse transform="matrix(0.1539 -0.9881 0.9881 0.1539 -23.6537 49.9275)" class="aT-cls-16" cx="17.3" cy="38.8" rx="12.7" ry="12.7" data-color-action="stroke" style="stroke:inherit" />			<line class="aT-cls-16" x1="10.3" y1="29.2" x2="24.3" y2="48.4" data-color-action="stroke" style="stroke:inherit" />		</g>		<text transform="matrix(1 0 0 1 6.7031 43.357)" class="aT-cls-17 aT-cls-18">NA</text>	</g></g><g id="aTS_braces" style="">	<g>		<g>							<rect x="22" y="18.8" transform="matrix(-1 -4.489399e-11 4.489399e-11 -1 57.3758 55.8721)" class="aT-cls-25" width="13.5" height="18.2" />							<rect x="22" y="18.8" transform="matrix(-1 -4.489399e-11 4.489399e-11 -1 57.3758 38.3631)" class="aT-cls-30" width="13.5" height="0.7" data-color-action="fill" style="fill:inherit" />							<rect x="22" y="26.4" transform="matrix(-1 -4.489399e-11 4.489399e-11 -1 57.3758 54.2187)" class="aT-cls-30" width="13.5" height="1.4" data-color-action="fill" style="fill:inherit" />							<rect x="22" y="36.1" transform="matrix(-1 -4.489399e-11 4.489399e-11 -1 57.3758 73.1707)" class="aT-cls-31" width="13.5" height="0.9" data-color-action="fill" style="fill:inherit" />			<g>				<g>					<g>						<path class="aT-cls-32" d="M32.1,37h3.1c0.3,0,0.5-0.2,0.5-0.5v-7c0-0.3-0.2-0.5-0.5-0.5h-3.1c-0.3,0-0.5,0.2-0.5,0.5v7        C31.6,36.8,31.8,37,32.1,37z" data-color-action="fill" style="fill:inherit" />						<path class="aT-cls-21" d="M32.1,37h3.1c0.3,0,0.5-0.2,0.5-0.5v-5.8c-0.7-0.1-1.3-0.2-2-0.2c-0.7,0-1.4,0.1-2.1,0.2v5.8        C31.6,36.8,31.8,37,32.1,37z" data-color-action="fill" style="fill:inherit" />						<path class="aT-cls-25" d="M31.9,35.6v1.1c0,0.1,0.1,0.2,0.2,0.2h3.1c0.1,0,0.2-0.1,0.2-0.2v-1.1H31.9z" />					</g>					<g>						<path class="aT-cls-32" d="M22.2,37h3.1c0.3,0,0.5-0.2,0.5-0.5v-7c0-0.3-0.2-0.5-0.5-0.5h-3.1c-0.3,0-0.5,0.2-0.5,0.5v7        C21.7,36.8,21.9,37,22.2,37z" data-color-action="fill" style="fill:inherit" />						<path class="aT-cls-21" d="M22.2,37h3.1c0.3,0,0.5-0.2,0.5-0.5v-5.8c-0.7-0.1-1.3-0.2-2-0.2c-0.7,0-1.4,0.1-2.1,0.2v5.8        C21.7,36.8,21.9,37,22.2,37z" data-color-action="fill" style="fill:inherit" />						<path class="aT-cls-25" d="M22,35.6v1.1c0,0.1,0.1,0.2,0.2,0.2h3.1c0.1,0,0.2-0.1,0.2-0.2v-1.1H22z" />					</g>				</g>				<g>					<g>						<path class="aT-cls-32" d="M32.1,26.7h3.1c0.3,0,0.5-0.2,0.5-0.5v-7c0-0.3-0.2-0.5-0.5-0.5h-3.1c-0.3,0-0.5,0.2-0.5,0.5v7        C31.6,26.5,31.8,26.7,32.1,26.7z" data-color-action="fill" style="fill:inherit" />						<path class="aT-cls-21" d="M32.1,26.7h3.1c0.3,0,0.5-0.2,0.5-0.5v-5.8c-0.7-0.1-1.3-0.2-2-0.2c-0.7,0-1.4,0.1-2.1,0.2v5.8        C31.6,26.5,31.8,26.7,32.1,26.7z" data-color-action="fill" style="fill:inherit" />						<path class="aT-cls-25" d="M31.9,25.3v1.1c0,0.1,0.1,0.2,0.2,0.2h3.1c0.1,0,0.2-0.1,0.2-0.2v-1.1H31.9z" />					</g>					<g>						<path class="aT-cls-32" d="M22.2,26.7h3.1c0.3,0,0.5-0.2,0.5-0.5v-7c0-0.3-0.2-0.5-0.5-0.5h-3.1c-0.3,0-0.5,0.2-0.5,0.5v7        C21.7,26.5,21.9,26.7,22.2,26.7z" data-color-action="fill" style="fill:inherit" />						<path class="aT-cls-21" d="M22.2,26.7h3.1c0.3,0,0.5-0.2,0.5-0.5v-5.8c-0.7-0.1-1.3-0.2-2-0.2c-0.7,0-1.4,0.1-2.1,0.2v5.8        C21.7,26.5,21.9,26.7,22.2,26.7z" data-color-action="fill" style="fill:inherit" />						<path class="aT-cls-25" d="M22,25.3v1.1c0,0.1,0.1,0.2,0.2,0.2h3.1c0.1,0,0.2-0.1,0.2-0.2v-1.1H22z" />					</g>				</g>			</g>		</g>		<g>							<rect x="7.6" y="27.2" transform="matrix(-1 -4.490154e-11 4.490154e-11 -1 57.3659 55.7893)" class="aT-cls-21" width="42.2" height="1.4" data-color-action="fill" style="fill:inherit" />							<rect x="7.6" y="27.2" transform="matrix(-1 -4.490154e-11 4.490154e-11 -1 57.3659 54.5874)" class="aT-cls-32" width="42.2" height="0.2" data-color-action="fill" style="fill:inherit" />							<rect x="7.6" y="28" transform="matrix(-1 -4.490154e-11 4.490154e-11 -1 57.3659 56.4404)" class="aT-cls-25" width="42.2" height="0.4" />		</g>	</g></g><g id="aTS_apicoectomy" style="">	<g>		<g>							<ellipse transform="matrix(0.1539 -0.9881 0.9881 0.1539 -23.6537 49.9275)" class="aT-cls-16" cx="17.3" cy="38.8" rx="12.7" ry="12.7" data-color-action="stroke" style="stroke:inherit" />			<line class="aT-cls-16" x1="10.3" y1="29.2" x2="24.3" y2="48.4" data-color-action="stroke" style="stroke:inherit" />		</g>		<text transform="matrix(1 0 0 1 6.7031 43.357)" class="aT-cls-17 aT-cls-18">NA</text>	</g></g><g id="aTS_abscess" style="">	<circle class="aT-cls-20" cx="29.5" cy="91.1" r="6.1" data-color-action="fill" style="fill:inherit" /></g><g id="aTS_blunted_roots" style="">	<g>		<g>							<ellipse transform="matrix(0.1539 -0.9881 0.9881 0.1539 -23.6537 49.9275)" class="aT-cls-16" cx="17.3" cy="38.8" rx="12.7" ry="12.7" data-color-action="stroke" style="stroke:inherit" />			<line class="aT-cls-16" x1="10.3" y1="29.2" x2="24.3" y2="48.4" data-color-action="stroke" style="stroke:inherit" />		</g>		<text transform="matrix(1 0 0 1 6.7031 43.357)" class="aT-cls-17 aT-cls-18">NA</text>	</g></g><g id="aTS_root_amputation" style="">	<g>		<g>							<ellipse transform="matrix(0.1539 -0.9881 0.9881 0.1539 -23.6537 49.9275)" class="aT-cls-16" cx="17.3" cy="38.8" rx="12.7" ry="12.7" data-color-action="stroke" style="stroke:inherit" />			<line class="aT-cls-16" x1="10.3" y1="29.2" x2="24.3" y2="48.4" data-color-action="stroke" style="stroke:inherit" />		</g>		<text transform="matrix(1 0 0 1 6.7031 43.357)" class="aT-cls-17 aT-cls-18">NA</text>	</g><g id="root_amputation_2">	<g>		<g>							<ellipse transform="matrix(0.1539 -0.9881 0.9881 0.1539 -23.6537 49.9275)" class="aT-cls-16" cx="17.3" cy="38.8" rx="12.7" ry="12.7" data-color-action="stroke" style="stroke:inherit" />			<line class="aT-cls-16" x1="10.3" y1="29.2" x2="24.3" y2="48.4" data-color-action="stroke" style="stroke:inherit" />		</g>		<text transform="matrix(1 0 0 1 6.7031 43.357)" class="aT-cls-17 aT-cls-18">NA</text>	</g></g><g id="root_amputation_1">	<g>		<g>							<ellipse transform="matrix(0.1539 -0.9881 0.9881 0.1539 -23.6537 49.9275)" class="aT-cls-16" cx="17.3" cy="38.8" rx="12.7" ry="12.7" data-color-action="stroke" style="stroke:inherit" />			<line class="aT-cls-16" x1="10.3" y1="29.2" x2="24.3" y2="48.4" data-color-action="stroke" style="stroke:inherit" />		</g>		<text transform="matrix(1 0 0 1 6.7031 43.357)" class="aT-cls-17 aT-cls-18">NA</text>	</g></g></g><g id="aTS_missing_crown" style="">	<g>		<g>							<ellipse transform="matrix(0.1539 -0.9881 0.9881 0.1539 -23.6537 49.9275)" class="aT-cls-16" cx="17.3" cy="38.8" rx="12.7" ry="12.7" data-color-action="stroke" style="stroke:inherit" />			<line class="aT-cls-16" x1="10.3" y1="29.2" x2="24.3" y2="48.4" data-color-action="stroke" style="stroke:inherit" />		</g>		<text transform="matrix(1 0 0 1 6.7031 43.357)" class="aT-cls-17 aT-cls-18">NA</text>	</g></g><g id="aTS_missing_tooth" style="" data-name="missing tooth">	<g>		<path class="aT-cls-5" d="M52.8,58c-0.4-8-4.9-14.9-6.9-18.7c0-0.1,0-0.2,0-0.3c-0.5-3,2.1-10.1,2.5-13.1c0.7-5,1-9.5-6.4-10.4    c-4.5-0.5-5.7-0.6-6.9-0.2c-1.2,0.4-2.2,0.4-3.6-0.4c-1-0.6-2.1-1-5-1.1c-1.6-0.1-4.2,0.1-5.7,0.8c-0.6,0.3-0.9,0.2-1.7-0.1    c-1.3-0.6-5.4-0.7-6.5-0.4c-4,1-4.6,3.3-4.7,5.3c-0.2,2.8,1,9.9,1.7,12.3c0.7,2.4,0.1,5.5-0.2,6.5c0,0.1,0,0.1,0.1,0.2    C6.3,50,4.8,62.5,7.8,72.2c0.1,0.5,0.3,0.9,0.4,1.3l0,0c0.6,1.6,1.7,3.6,3,5.6c2.8,4.4,6.6,8.8,8.2,8.4c2.3-0.5,0-10.2-0.7-16.5    c-0.7-6.3,4.6-17.2,11-17.8c6.4-0.5,12.4,14.5,12.3,21.3c-0.1,6.9-0.7,13.1,2,13.6C46.4,88.7,53.5,71.9,52.8,58z" data-color-action="fill,stroke" style="fill,stroke:inherit" />		<path class="aT-cls-26" d="M52.8,58c-0.5-9.7-7-17.8-7.8-20.7c-2-7.2-30.2-11.8-35-0.7h0c-0.1,0.3-0.3,0.7-0.4,1    C6.4,49.5,4.8,62.3,7.8,72.2c0.1,0.5,0.3,0.9,0.4,1.3l0,0c0.6,1.6,1.7,3.6,3,5.6c2.8,4.4,6.6,8.8,8.2,8.4c2.3-0.5,0-10.2-0.7-16.5    c-0.7-6.3,4.6-17.2,11-17.8c6.4-0.5,12.4,14.5,12.3,21.3c-0.1,6.9-0.7,13.1,2,13.6C46.4,88.7,53.5,71.9,52.8,58z" />		<path class="aT-cls-26" d="M45.3,38c1.1,3.3,7.1,10.9,7.6,20c0.4,8.9-2.4,19.1-5,25c0.6-2.2,1.4-5.7,1.8-8.2c1.5-8.5,1.7-12.5,1.3-17.6    c-0.3-5.1-6.6-14.5-7.2-17.3C43.6,39.2,44.4,38.5,45.3,38z" />		<path class="aT-cls-26" d="M16.6,68.5c-0.2-5.9,3.3-12,5.5-14.4c2.7-3,6.7-4,9.4-2.9c3.4,1.4,7.4,5.5,8.6,8.9c1.3,3.4,2.9,8.3,2.8,14.7    c0,2-0.7,4.6-1.1,6.7c0-2.1,0.1-4.4,0.1-6.8c0.1-6.9-5.9-21.8-12.3-21.3c-6.4,0.5-11.7,11.5-11,17.8c0.4,3.8,1.4,8.7,1.6,12.2    c-0.1-0.2-0.2-0.3-0.3-0.5C18.2,79,16.8,73,16.6,68.5z" />		<path class="aT-cls-26" d="M9.7,37.7c0.1-0.4,0.2-0.7,0.4-1l2.7,1.2c0,0-1.3,3.7-2.1,7c-0.8,3.3-2.4,8-2.7,14.5    C7.6,65.2,8.8,72.2,10,75.8c0.4,1.2,0.9,2.6,1.5,3.9c-1.4-2.2-2.7-4.4-3.4-6.2C4.6,63.5,6.2,50.1,9.7,37.7z" />		<path class="aT-cls-26" d="M20.3,40.2c-0.7,3.2-5.7,10.8-5.7,21.7s3.2,21.6,2.4,22c-0.8,0.4-3.9-11.4-5.2-17.6c-2-10.2,1.9-20.9,4-26    S20.8,37.8,20.3,40.2z" />		<path class="aT-cls-26" d="M45.9,39c-0.5-3,2.1-10.1,2.5-13.1c0.7-5,1-9.5-6.4-10.4c-4.5-0.5-5.7-0.6-6.9-0.2c-1.2,0.4-2.2,0.4-3.6-0.4    c-1-0.6-2.1-1-5-1.1c-1.6-0.1-4.2,0.1-5.7,0.8c-0.6,0.3-0.9,0.2-1.7-0.1c-1.3-0.6-5.4-0.7-6.5-0.4c-4,1-4.6,3.3-4.7,5.3    c-0.2,2.8,1,9.9,1.7,12.3s0.1,5.5-0.2,6.5s9.1,3,17.7,3.1C35.7,41.3,46.4,41.7,45.9,39z" />		<path class="aT-cls-26" d="M42.5,15.6c2.6,2.8,2.7,7.8,2.7,10.8c0.1,3.1-2,10.6-2,14.4c1.8-0.3,2.9-0.9,2.7-1.8    c-0.5-3,2.1-10.1,2.5-13.1C49.2,20.9,49.4,16.6,42.5,15.6z" />		<path class="aT-cls-26" d="M34.6,17.2c1.1,0.3,0.1,3,0.1,4.7c0,1.7,0.6,4.9,0,4.7c-0.6-0.2-1.1-3.2-1.5-4.7    C32.8,20.3,32.1,16.5,34.6,17.2z" />		<path class="aT-cls-26" d="M43.9,85c-0.5-0.3,1.4-7.9,0.5-15.6c-1-8.9-4.5-16.6-3.9-16.9s4,6.4,4.7,8.9c1,3.4,1.7,9,1,14.1    C45.6,80.6,44.6,85.4,43.9,85z" />		<path class="aT-cls-26" d="M12.6,32.9c-0.6-2.7-1.6-10.6-1.4-13.7c0.1-1.9,1.3-3.9,3-5.2c-0.6,0-1.2,0.1-1.5,0.1c-4,1-4.6,3.3-4.7,5.3    c-0.2,2.8,1,9.9,1.7,12.3c0.7,2.4,0.1,5.5-0.2,6.5c-0.1,0.4,1,0.9,3,1.4C13,37.5,13,34.6,12.6,32.9z" />		<path class="aT-cls-26" d="M20.8,40.9c0.3-2.9,0.4-7.6-0.1-9.8c-0.7-3-1.8-10.9-1.4-13.3c0.2-1.1,0.6-2.2,1-3c-0.3,0-0.6,0-1.2-0.3    c-0.5-0.2-1.4-0.4-2.3-0.5c-0.5,0.8-1,1.9-1.2,2.7c-1,4.6,0.2,11.6,1,14.5c0.6,2.2,0.6,5.9-0.1,9C17.8,40.5,19.3,40.7,20.8,40.9z" />	</g></g><g id="aTS_extracted_tooth" data-name="extracted tooth" style=""><g class="aT-msng-cls-12"><line class="aT-msng-cls-13" x1="9" y1="10.51" x2="50.67" y2="52.17" data-color-action="stroke" style="stroke:inherit" /><line class="aT-msng-cls-13" x1="50.67" y1="10.51" x2="9" y2="52.17" data-color-action="stroke" style="stroke:inherit" /></g></g><g id="aTS_denture" style="">	<g>		<g>							<ellipse transform="matrix(0.1539 -0.9881 0.9881 0.1539 -23.6537 49.9275)" class="aT-cls-16" cx="17.3" cy="38.8" rx="12.7" ry="12.7" data-color-action="stroke" style="stroke:inherit" />			<line class="aT-cls-16" x1="10.3" y1="29.2" x2="24.3" y2="48.4" data-color-action="stroke" style="stroke:inherit" />		</g>		<text transform="matrix(1 0 0 1 6.7031 43.357)" class="aT-cls-17 aT-cls-18">NA</text>	</g></g><g id="aTS_maryland_bridge_pontic" style="">	<g>		<g>							<ellipse transform="matrix(0.1539 -0.9881 0.9881 0.1539 -23.6537 49.9275)" class="aT-cls-16" cx="17.3" cy="38.8" rx="12.7" ry="12.7" data-color-action="stroke" style="stroke:inherit" />			<line class="aT-cls-16" x1="10.3" y1="29.2" x2="24.3" y2="48.4" data-color-action="stroke" style="stroke:inherit" />		</g>		<text transform="matrix(1 0 0 1 6.7031 43.357)" class="aT-cls-17 aT-cls-18">NA</text>	</g></g><g id="aTS_maryland_bridge_abutment_mesial" style="">	<g>		<g>							<ellipse transform="matrix(0.1539 -0.9881 0.9881 0.1539 -23.6537 49.9275)" class="aT-cls-16" cx="17.3" cy="38.8" rx="12.7" ry="12.7" data-color-action="stroke" style="stroke:inherit" />			<line class="aT-cls-16" x1="10.3" y1="29.2" x2="24.3" y2="48.4" data-color-action="stroke" style="stroke:inherit" />		</g>		<text transform="matrix(1 0 0 1 6.7031 43.357)" class="aT-cls-17 aT-cls-18">NA</text>	</g></g><g id="aTS_maryland_bridge_abutment_distal" style="">	<g>		<g>							<ellipse transform="matrix(0.1539 -0.9881 0.9881 0.1539 -23.6537 49.9275)" class="aT-cls-16" cx="17.3" cy="38.8" rx="12.7" ry="12.7" data-color-action="stroke" style="stroke:inherit" />			<line class="aT-cls-16" x1="10.3" y1="29.2" x2="24.3" y2="48.4" data-color-action="stroke" style="stroke:inherit" />		</g>		<text transform="matrix(1 0 0 1 6.7031 43.357)" class="aT-cls-17 aT-cls-18">NA</text>	</g></g><g id="aTS_maryland_bridge_abutment" style="">	<g>		<g>							<ellipse transform="matrix(0.1539 -0.9881 0.9881 0.1539 -23.6537 49.9275)" class="aT-cls-16" cx="17.3" cy="38.8" rx="12.7" ry="12.7" data-color-action="stroke" style="stroke:inherit" />			<line class="aT-cls-16" x1="10.3" y1="29.2" x2="24.3" y2="48.4" data-color-action="stroke" style="stroke:inherit" />		</g>		<text transform="matrix(1 0 0 1 6.7031 43.357)" class="aT-cls-17 aT-cls-18">NA</text>	</g></g><g id="aTS_bridge_abutment_mesial" style="">	<g>		<g>							<ellipse transform="matrix(0.1539 -0.9881 0.9881 0.1539 -23.6537 49.9275)" class="aT-cls-16" cx="17.3" cy="38.8" rx="12.7" ry="12.7" data-color-action="stroke" style="stroke:inherit" />			<line class="aT-cls-16" x1="10.3" y1="29.2" x2="24.3" y2="48.4" data-color-action="stroke" style="stroke:inherit" />		</g>		<text transform="matrix(1 0 0 1 6.7031 43.357)" class="aT-cls-17 aT-cls-18">NA</text>	</g></g><g id="aTS_bridge_abutment_distal" style="">	<g>		<g>							<ellipse transform="matrix(0.1539 -0.9881 0.9881 0.1539 -23.6537 49.9275)" class="aT-cls-16" cx="17.3" cy="38.8" rx="12.7" ry="12.7" data-color-action="stroke" style="stroke:inherit" />			<line class="aT-cls-16" x1="10.3" y1="29.2" x2="24.3" y2="48.4" data-color-action="stroke" style="stroke:inherit" />		</g>		<text transform="matrix(1 0 0 1 6.7031 43.357)" class="aT-cls-17 aT-cls-18">NA</text>	</g></g><g id="aTS_bridge_abutment" style="">	<g>		<g>							<ellipse transform="matrix(0.1539 -0.9881 0.9881 0.1539 -23.6537 49.9275)" class="aT-cls-16" cx="17.3" cy="38.8" rx="12.7" ry="12.7" data-color-action="stroke" style="stroke:inherit" />			<line class="aT-cls-16" x1="10.3" y1="29.2" x2="24.3" y2="48.4" data-color-action="stroke" style="stroke:inherit" />		</g>		<text transform="matrix(1 0 0 1 6.7031 43.357)" class="aT-cls-17 aT-cls-18">NA</text>	</g></g><g id="aTS_bridge_pontic" style="">	<g>		<g>							<ellipse transform="matrix(0.1539 -0.9881 0.9881 0.1539 -23.6537 49.9275)" class="aT-cls-16" cx="17.3" cy="38.8" rx="12.7" ry="12.7" data-color-action="stroke" style="stroke:inherit" />			<line class="aT-cls-16" x1="10.3" y1="29.2" x2="24.3" y2="48.4" data-color-action="stroke" style="stroke:inherit" />		</g>		<text transform="matrix(1 0 0 1 6.7031 43.357)" class="aT-cls-17 aT-cls-18">NA</text>	</g></g><g id="aTS_implant_mini" style="">	<g>		<g>							<ellipse transform="matrix(0.1539 -0.9881 0.9881 0.1539 -23.6537 49.9275)" class="aT-cls-16" cx="17.3" cy="38.8" rx="12.7" ry="12.7" data-color-action="stroke" style="stroke:inherit" />			<line class="aT-cls-16" x1="10.3" y1="29.2" x2="24.3" y2="48.4" data-color-action="stroke" style="stroke:inherit" />		</g>		<text transform="matrix(1 0 0 1 6.7031 43.357)" class="aT-cls-17 aT-cls-18">NA</text>	</g></g><g id="aTS_implant_cylinder" style="">	<g>		<g>							<ellipse transform="matrix(0.1539 -0.9881 0.9881 0.1539 -23.6537 49.9275)" class="aT-cls-16" cx="17.3" cy="38.8" rx="12.7" ry="12.7" data-color-action="stroke" style="stroke:inherit" />			<line class="aT-cls-16" x1="10.3" y1="29.2" x2="24.3" y2="48.4" data-color-action="stroke" style="stroke:inherit" />		</g>		<text transform="matrix(1 0 0 1 6.7031 43.357)" class="aT-cls-17 aT-cls-18">NA</text>	</g></g><g id="aTS_implant_blade" style="">	<g>		<g>							<ellipse transform="matrix(0.1539 -0.9881 0.9881 0.1539 -23.6537 49.9275)" class="aT-cls-16" cx="17.3" cy="38.8" rx="12.7" ry="12.7" data-color-action="stroke" style="stroke:inherit" />			<line class="aT-cls-16" x1="10.3" y1="29.2" x2="24.3" y2="48.4" data-color-action="stroke" style="stroke:inherit" />		</g>		<text transform="matrix(1 0 0 1 6.7031 43.357)" class="aT-cls-17 aT-cls-18">NA</text>	</g></g><g id="aTS_watch_tooth" style="">	<g>		<path class="aT-cls-15" d="M8.3,153.9c0-1.8,1.4-3.3,3.2-3.3c1.8,0,3.3,1.5,3.3,3.3c0,1.7-1.5,3.2-3.3,3.2    C9.7,157.1,8.3,155.6,8.3,153.9z M9.2,148l-0.8-18.1h6.2L13.7,148H9.2z" data-color-action="fill" style="fill:inherit" />	</g></g><g id="aTS_border" style="">	<rect transform="matrix(-1 8.977784e-11 -8.977784e-11 -1 59 161)" class="aT-cls-19" width="59" height="161" /></g></defs></g><g class="bT-cls-1" transform="translate(0 66)"><g id="_Tb">	<g>		<path class="bT-cls-2" d="M48.5,12.8c1,2.1,1.7,7.7,0.8,9.5c-0.8,1.8-2.5,2.2-1.5,3c1.1,0.8,1.7,2.6,1.7,4.7s0.2,6.7-1.3,8.5    c-1.5,1.8-4.2,4.7-5,5.7c-0.8,1-6.1,1.8-10.9,1.8s-12.4,0.2-13.9-0.6C17,44.6,12,40,10.7,37.3C9.4,34.7,9,27.2,9.4,25.6    c0.4-1.6,2.1-3.2,1.9-4.3c-0.2-1-0.4-6.1,0.4-8.3s3.6-3,6.7-3c4.4,0,8.6,0,9.5,0.6c0.8,0.6,2.5,0.2,4,0.2    C33.4,10.8,46.6,8.7,48.5,12.8z" />		<path class="bT-cls-3" d="M48.5,12.8c1,2.1,1.7,7.7,0.8,9.5c-0.8,1.8-2.5,2.2-1.5,3c1.1,0.8,1.7,2.6,1.7,4.7s0.2,6.7-1.3,8.5    c-1.5,1.8-4.2,4.7-5,5.7c-0.8,1-6.1,1.8-10.9,1.8s-12.4,0.2-13.9-0.6C17,44.6,12,40,10.7,37.3C9.4,34.7,9,27.2,9.4,25.6    c0.4-1.6,2.1-3.2,1.9-4.3c-0.2-1-0.4-6.1,0.4-8.3s3.6-3,6.7-3c4.4,0,8.6,0,9.5,0.6c0.8,0.6,2.5,0.2,4,0.2    C33.4,10.8,46.6,8.7,48.5,12.8z" />		<path class="bT-cls-4" d="M37.8,26.9c-0.3,0.7-4.3-0.1-5.4,1c-1.1,1,2.8,6.4,1.6,6.4s-2.4-6.2-6.6-6.6c-1.7-0.2-2.8,0.1-3.9,1.1    c-1.1,1-3.3,5-3.7,4.3c-0.4-0.6,1.6-3.7,2.5-5c0.8-1.2-4-1.6-3.6-2.4c0.4-0.8,5,0.6,6.5,0.2s1.3-7.3,2.5-6.9    c1.3,0.4-0.2,4.9,1.3,5.7C30.4,25.5,38.2,25.9,37.8,26.9z" />		<path class="bT-cls-5" d="M46.6,25.4c-0.2-0.8,2-3.9,1.8-5.5c-0.2-1.6-1.2-5.1-2-5.9c-0.8-0.8-4.4-1.5-7-1.7s-5.8-0.6-8.2,0.1    c-1.6,0.4-2.3,0.7-3.3,0.2c-1.3-0.7-3.1-0.9-6.2-1.1c-3.1-0.2-6.6-1.1-7.6,1.3c-1,2.4-2,4.5-2,6.3c0,1.8,0,3.9-2.4,5.7    c0,0-0.1,0-0.1,0c0.6-1.4,1.8-2.6,1.6-3.5c-0.2-1-0.4-6.1,0.4-8.3c0.8-2.2,3.6-3,6.7-3c4.4,0,8.6,0,9.5,0.6c0.8,0.6,2.5,0.2,4,0.2    s14.7-2,16.6,2c1,2.1,1.7,7.7,0.8,9.5c-0.8,1.8-2.5,2.2-1.5,3c0.8,0.6,1.3,1.7,1.5,3C48.4,27.2,46.8,26,46.6,25.4z" />		<path class="bT-cls-6" d="M44.6,41.7c-1.4,0.8-3.1,1-4.5,0.9c-2.4-0.2-3.4-1-4.8-0.6s-2.7,1.9-6.1,2.6c-3.5,0.7-6.8-1-7.5-1.4    c-1.4-0.9-2.4-2.4-5.4-2.5c-1.5,0-2.9-0.6-4.1-1.3c2,2.5,5.2,5.3,6.3,5.9c1.5,0.8,9,0.6,13.9,0.6s10.1-0.8,10.9-1.8    c0.8-1,3.6-3.9,5-5.7c0,0,0,0,0,0C47.2,39.7,45.7,41.2,44.6,41.7z" />	</g></g><defs><g id="bTS_cusp_1" style="">	<path class="bT-cls-7" d="M31.7,32.3l5.8,13.4c2.9-0.3,5.3-0.9,5.8-1.5c0.8-1,3.6-3.9,5-5.7c0.3-0.4,0.5-0.9,0.7-1.4l-15.1-6.2   C33.3,31.5,32.5,32,31.7,32.3z" data-color-action="fill" style="fill:inherit" /></g><g id="bTS_groove_1" style="">	<path class="bT-cls-7" d="M29.9,32.6c-0.2,0-0.5,0-0.7,0L23.6,46c2.8,0.1,6.2,0,8.8,0c1.7,0,3.5-0.1,5.1-0.3l-5.8-13.4   C31.1,32.5,30.5,32.6,29.9,32.6z" data-color-action="fill" style="fill:inherit" /></g><g id="bTS_cusp_2" style="">	<path class="bT-cls-7" d="M26.6,31.4l-15,7.4c1.9,2.6,5.6,6,6.9,6.7c0.7,0.4,2.7,0.5,5.1,0.6l5.7-13.5C28.3,32.4,27.3,32,26.6,31.4z" data-color-action="fill" style="fill:inherit" /></g><g id="bTS_mesial" style="">	<path class="bT-cls-7" d="M49.4,35.4c0.3-2,0.2-4.2,0.2-5.4c0-2-0.6-3.9-1.7-4.7c-1.1-0.8,0.6-1.2,1.5-3c0.5-1.1,0.5-3.7,0.1-6   c-1.8,2.3-4.5,6.1-4.5,10.2C44.9,29.9,47.3,33,49.4,35.4z" data-color-action="fill" style="fill:inherit" /></g><g id="bTS_mesial_pit" style="">	<path class="bT-cls-7" d="M33.5,21.9c1.3,1.1,2.1,2.8,2.1,4.7c0,1.7-0.7,3.2-1.7,4.3L49,37.1c0.2-0.5,0.3-1.1,0.4-1.7   c-2-2.5-4.5-5.5-4.5-8.9c0.1-4.1,2.7-7.9,4.5-10.2c-0.1-0.3-0.1-0.7-0.2-1L33.5,21.9z" data-color-action="fill" style="fill:inherit" /></g><g id="bTS_central_pit" style="">	<path class="bT-cls-7" d="M24.3,26.6c0,2,0.9,3.7,2.3,4.8c0.8,0.6,1.7,1,2.7,1.2c0.2,0,0.4,0,0.7,0c0.6,0,1.2-0.1,1.7-0.3   c0.8-0.3,1.6-0.8,2.2-1.4c1.1-1.1,1.7-2.6,1.7-4.3c0-1.9-0.8-3.6-2.1-4.7c-0.7-0.6-1.5-1-2.4-1.2c-0.4-0.1-0.8-0.1-1.2-0.1   c-0.5,0-0.9,0.1-1.3,0.2c-0.9,0.2-1.7,0.7-2.4,1.4v0C25,23.2,24.3,24.8,24.3,26.6z" data-color-action="fill" style="fill:inherit" /></g><g id="bTS_distal_pit" style="">	<path class="bT-cls-7" d="M24.3,26.6c0-1.8,0.7-3.4,1.9-4.5l-14.9-6.9c-0.2,1.4-0.2,3-0.1,4.2c1.3,2.2,2.5,4.9,2.6,7.5   c0.2,2.9-1.5,6.7-3.3,9.9c0.1,0.2,0.1,0.3,0.2,0.5c0.2,0.4,0.5,0.9,0.9,1.4l15-7.4C25.2,30.3,24.3,28.5,24.3,26.6z" data-color-action="fill" style="fill:inherit" /></g><g id="bTS_distal" style="">	<path class="bT-cls-7" d="M11.2,19.4c0,0.9,0.1,1.6,0.2,1.9c0.2,1-1.5,2.6-1.9,4.3c-0.4,1.5,0,8.3,1.1,11.3c1.8-3.3,3.4-7,3.3-9.9   C13.6,24.3,12.4,21.6,11.2,19.4z" data-color-action="fill" style="fill:inherit" /></g><g id="bTS_cusp_3" style="">	<path class="bT-cls-7" d="M33.5,21.9l15.8-6.6c-0.2-1-0.5-1.9-0.7-2.5c-1.3-2.8-8.2-2.7-12.7-2.4l-4.7,10.2C32,20.9,32.8,21.3,33.5,21.9   z" data-color-action="fill" style="fill:inherit" /></g><g id="bTS_groove_2" style="">	<path class="bT-cls-7" d="M29.9,20.5c0.4,0,0.8,0,1.2,0.1l4.7-10.2c-1.9,0.1-3.4,0.3-3.9,0.3c-1.5,0-3.2,0.4-4-0.2   c-0.4-0.3-1.7-0.5-3.5-0.5l4.2,10.7C29,20.6,29.5,20.5,29.9,20.5z" data-color-action="fill" style="fill:inherit" /></g><g id="bTS_cusp_4" style="">	<path class="bT-cls-7" d="M28.6,20.7L24.4,10c-1.7-0.1-3.8-0.1-6-0.1c-3.2,0-5.9,0.8-6.7,3c-0.2,0.6-0.4,1.4-0.5,2.2l14.9,6.9   C26.9,21.4,27.7,21,28.6,20.7z" data-color-action="fill" style="fill:inherit" /></g><g id="bTS_tipped_lingual" style=""></g><g id="bTS_tipped_facial" style=""></g><g id="bTS_surface_restoration_buccal" style="">	<path class="bT-cls-8" d="M44.6,36.8c-0.8,0.9-1.7,2-2.6,2.9c-0.5,0.6-1,1.1-1.4,1.5c-1.2,0.4-4.4,0.9-8.3,0.9c-0.8,0-1.6,0-2.5,0   c-0.9,0-1.9,0-2.9,0c-4.4,0-6.1-0.2-6.7-0.3c-0.8-0.6-2.6-2.2-4-3.7l-2.8,2.8c1.9,2,4.2,4,5.1,4.5c1.5,0.8,9,0.6,13.9,0.6   s10.1-0.8,10.9-1.8c0.8-1,3.4-3.7,4.9-5.5L44.6,36.8z" data-color-action="fill" style="fill:inherit" /></g><g id="bTS_surface_restoration_mesial" style="">	<path class="bT-cls-8" d="M45.7,20.7c-0.1,0.1-0.2,0.3-0.4,0.5c-0.6,0.6-1.8,1.9-1.7,4c0.1,0.7,0.4,2.1,1.7,3.2c0.1,0.2,0.3,0.8,0.3,1.6   l0,0.7c0,2.9-0.1,4.7-0.4,5.4c-0.2,0.2-0.4,0.4-0.5,0.6l3.6,2c0.1-0.1,0.1-0.1,0.2-0.2c1.5-1.8,1.3-6.5,1.3-8.5   c0-2-0.6-3.9-1.7-4.7c-1.1-0.8,0.6-1.2,1.5-3c0.8-1.8,0.1-7.4-0.8-9.5c-0.1-0.3-0.3-0.5-0.6-0.8l-2.9,3   C45.5,16.5,45.9,19.6,45.7,20.7z" data-color-action="fill" style="fill:inherit" /></g><g id="bTS_surface_restoration_occlusal" style="">	<path class="bT-cls-8" d="M40.1,14.2c-2.4,0-4.9,0.2-6.3,0.4c-0.9,0.1-1.4,0.1-1.8,0.1c-0.3,0-0.7,0-1,0.1c-0.5,0-1,0.1-1.5,0.1   c-0.5,0-1.9,0-3.2-0.7c-1.3-0.2-5.1-0.2-7.7-0.2c-1.9,0-2.8,0.4-3,0.5c-0.4,1.2-0.4,4.9-0.2,6c0.4,2.1-0.6,3.8-1.3,5   c-0.2,0.3-0.5,0.8-0.6,1c-0.2,1.6,0.3,7.6,1,9.1c0.7,1.6,4.5,5.2,5.9,6.2c0.6,0.1,2.3,0.3,6.7,0.3c1,0,2,0,2.9,0c0.9,0,1.7,0,2.5,0   c3.9,0,7.1-0.5,8.3-0.9c0.4-0.4,0.8-0.9,1.4-1.5c1-1.1,2.3-2.5,3.1-3.5c0.3-0.7,0.5-2.5,0.4-5.4l0-0.7c0-0.8-0.2-1.4-0.3-1.6   c-1.4-1.1-1.7-2.5-1.7-3.2c-0.2-2,1.1-3.3,1.7-4c0.2-0.2,0.3-0.4,0.4-0.5c0.2-1.1-0.1-4.4-0.6-5.9C44.6,14.7,43.2,14.2,40.1,14.2z" data-color-action="fill" style="fill:inherit" /></g><g id="bTS_surface_restoration_distal" style="">	<path class="bT-cls-8" d="M14.3,35.6c-0.7-1.5-1.2-7.4-1-9.1c0.1-0.2,0.4-0.7,0.6-1c0.7-1.2,1.8-2.9,1.3-5c-0.2-1.1-0.2-4.8,0.2-6   c0,0,0,0,0,0l-2.9-2.8c-0.4,0.4-0.7,0.8-0.9,1.3c-0.8,2.2-0.6,7.3-0.4,8.3c0.2,1-1.5,2.6-1.9,4.3c-0.4,1.6,0,9.1,1.3,11.8   c0.5,1,1.5,2.3,2.7,3.6l2.8-2.8C15.3,37.1,14.6,36.2,14.3,35.6z" data-color-action="fill" style="fill:inherit" /></g><g id="bTS_surface_restoration_lingual" style="">	<path class="bT-cls-8" d="M18.5,13.9c2.6,0,6.4,0,7.7,0.2c1.3,0.7,2.7,0.7,3.2,0.7c0.5,0,1,0,1.5-0.1c0.3,0,0.7-0.1,1-0.1   c0.4,0,0.9,0,1.8-0.1c1.5-0.1,3.9-0.4,6.3-0.4c3.1,0,4.5,0.4,5,0.6c0,0,0,0.1,0,0.1l2.9-3c-3.1-3-14.7-1.3-16-1.3   c-1.5,0-3.2,0.4-4-0.2c-0.8-0.6-5-0.6-9.5-0.6c-2.4,0-4.6,0.5-5.9,1.7l2.9,2.8C15.7,14.3,16.6,13.9,18.5,13.9z" data-color-action="fill" style="fill:inherit" /></g><g id="bTS_sub-erupted" style="">	<rect x="28" y="51.8" class="bT-cls-9" width="3" height="3" />	<rect x="28" y="51.8" class="bT-cls-9" width="3" height="3" />	<rect x="28" y="51.8" class="bT-cls-9" width="3" height="3" /></g><g id="bTS_sealant" style="">	<text transform="matrix(1 0 0 1 19.699 39.47)" class="bT-cls-10 bT-cls-11 bT-cls-12" data-color-action="fill" style="fill:inherit">S</text></g><g id="bTS_rotated_mesial" style=""></g><g id="bTS_rotated_distal" style=""></g><g id="bTS_root_canal" style="">	<rect x="28" y="51.8" class="bT-cls-9" width="3" height="3" />	<rect x="28" y="51.8" class="bT-cls-9" width="3" height="3" />	<rect x="28" y="51.8" class="bT-cls-9" width="3" height="3" /></g><g id="bTS_pins" style="">	<rect x="28" y="51.8" class="bT-cls-9" width="3" height="3" />	<rect x="28" y="51.8" class="bT-cls-9" width="3" height="3" />	<rect x="28" y="51.8" class="bT-cls-9" width="3" height="3" /></g><g id="bTS_mesial_drift" style=""></g><g id="bTS_distal_drift" style=""></g><g id="bTS_crown" style="">	<path class="bT-cls-14" d="M48.5,12.8c1,2.1,1.7,7.7,0.8,9.5c-0.8,1.8-2.5,2.2-1.5,3c1.1,0.8,1.7,2.6,1.7,4.7s0.2,6.7-1.3,8.5   c-1.5,1.8-4.2,4.7-5,5.7c-0.8,1-6.1,1.8-10.9,1.8s-12.4,0.2-13.9-0.6C17,44.6,12,40,10.7,37.3C9.4,34.7,9,27.2,9.4,25.6   c0.4-1.6,2.1-3.2,1.9-4.3c-0.2-1-0.4-6.1,0.4-8.3s3.6-3,6.7-3c4.4,0,8.6,0,9.5,0.6c0.8,0.6,2.5,0.2,4,0.2   C33.4,10.8,46.6,8.7,48.5,12.8z" data-color-action="fill" style="fill:inherit" /></g><g id="bTS_cracked_surface_occlusal" style="">	<polyline class="bT-cls-15" points="30.8,32.2 27,28.3 32,28.3 27,23.6 32,23.6 28.2,19.8  " data-color-action="stroke" style="stroke:inherit" /></g><g id="bTS_chipped_surface_occlusal" style="">	<g>		<line class="bT-cls-15" x1="33.3" y1="30.5" x2="25" y2="22.2" data-color-action="stroke" style="stroke:inherit" />		<line class="bT-cls-15" x1="25" y1="30.5" x2="33.3" y2="22.2" data-color-action="stroke" style="stroke:inherit" />	</g></g><g id="bTS_abscess" style="">	<rect x="28" y="51.8" class="bT-cls-9" width="3" height="3" />	<rect x="28" y="51.8" class="bT-cls-9" width="3" height="3" />	<rect x="28" y="51.8" class="bT-cls-9" width="3" height="3" /></g><g id="bTS_missing_tooth" style="" data-name="missing tooth">	<g>		<path class="bT-cls-2" d="M48.5,12.8c1,2.1,1.7,7.7,0.8,9.5c-0.8,1.8-2.5,2.2-1.5,3c1.1,0.8,1.7,2.6,1.7,4.7s0.2,6.7-1.3,8.5    c-1.5,1.8-4.2,4.7-5,5.7c-0.8,1-6.1,1.8-10.9,1.8s-12.4,0.2-13.9-0.6C17,44.6,12,40,10.7,37.3C9.4,34.7,9,27.2,9.4,25.6    c0.4-1.6,2.1-3.2,1.9-4.3c-0.2-1-0.4-6.1,0.4-8.3s3.6-3,6.7-3c4.4,0,8.6,0,9.5,0.6c0.8,0.6,2.5,0.2,4,0.2    C33.4,10.8,46.6,8.7,48.5,12.8z" />		<path class="bT-cls-13" d="M48.5,12.8c1,2.1,1.7,7.7,0.8,9.5c-0.8,1.8-2.5,2.2-1.5,3c1.1,0.8,1.7,2.6,1.7,4.7s0.2,6.7-1.3,8.5    c-1.5,1.8-4.2,4.7-5,5.7c-0.8,1-6.1,1.8-10.9,1.8s-12.4,0.2-13.9-0.6C17,44.6,12,40,10.7,37.3C9.4,34.7,9,27.2,9.4,25.6    c0.4-1.6,2.1-3.2,1.9-4.3c-0.2-1-0.4-6.1,0.4-8.3s3.6-3,6.7-3c4.4,0,8.6,0,9.5,0.6c0.8,0.6,2.5,0.2,4,0.2    C33.4,10.8,46.6,8.7,48.5,12.8z" />		<path class="bT-cls-13" d="M37.8,26.9c-0.3,0.7-4.3-0.1-5.4,1c-1.1,1,2.8,6.4,1.6,6.4s-2.4-6.2-6.6-6.6c-1.7-0.2-2.8,0.1-3.9,1.1    c-1.1,1-3.3,5-3.7,4.3c-0.4-0.6,1.6-3.7,2.5-5c0.8-1.2-4-1.6-3.6-2.4c0.4-0.8,5,0.6,6.5,0.2s1.3-7.3,2.5-6.9    c1.3,0.4-0.2,4.9,1.3,5.7C30.4,25.5,38.2,25.9,37.8,26.9z" />		<path class="bT-cls-13" d="M46.6,25.4c-0.2-0.8,2-3.9,1.8-5.5c-0.2-1.6-1.2-5.1-2-5.9c-0.8-0.8-4.4-1.5-7-1.7s-5.8-0.6-8.2,0.1    c-1.6,0.4-2.3,0.7-3.3,0.2c-1.3-0.7-3.1-0.9-6.2-1.1c-3.1-0.2-6.6-1.1-7.6,1.3c-1,2.4-2,4.5-2,6.3c0,1.8,0,3.9-2.4,5.7    c0,0-0.1,0-0.1,0c0.6-1.4,1.8-2.6,1.6-3.5c-0.2-1-0.4-6.1,0.4-8.3c0.8-2.2,3.6-3,6.7-3c4.4,0,8.6,0,9.5,0.6c0.8,0.6,2.5,0.2,4,0.2    s14.7-2,16.6,2c1,2.1,1.7,7.7,0.8,9.5c-0.8,1.8-2.5,2.2-1.5,3c0.8,0.6,1.3,1.7,1.5,3C48.4,27.2,46.8,26,46.6,25.4z" />		<path class="bT-cls-13" d="M44.6,41.7c-1.4,0.8-3.1,1-4.5,0.9c-2.4-0.2-3.4-1-4.8-0.6s-2.7,1.9-6.1,2.6c-3.5,0.7-6.8-1-7.5-1.4    c-1.4-0.9-2.4-2.4-5.4-2.5c-1.5,0-2.9-0.6-4.1-1.3c2,2.5,5.2,5.3,6.3,5.9c1.5,0.8,9,0.6,13.9,0.6s10.1-0.8,10.9-1.8    c0.8-1,3.6-3.9,5-5.7c0,0,0,0,0,0C47.2,39.7,45.7,41.2,44.6,41.7z" />	</g></g><g id="bTS_watch_tooth" style=""></g><g id="bTS_border" style="">	<rect y="0" class="bT-cls-9" width="59" height="56" />	<rect x="0" y="0" transform="matrix(-1 3.807520e-11 -3.807520e-11 -1 59 56)" class="bT-cls-9" width="59" height="56" /></g></defs></g><g class="cT-cls-1"><g id="_Tc">	<g>		<g>			<path class="cT-cls-2" d="M47.1,29c-0.5,3,2.1,10.1,2.5,13.1c0.7,5,1,9.5-6.4,10.4c-4.5,0.5-5.7,0.6-6.9,0.2c-1.2-0.4-2.2-0.4-3.6,0.4     c-1,0.6-2.1,1-5,1.1c-1.6,0.1-4.2-0.1-5.7-0.8c-0.6-0.3-0.9-0.2-1.7,0.1c-1.3,0.6-5.4,0.7-6.5,0.4c-4-1-4.6-3.3-4.7-5.3     c-0.2-2.8,1-9.9,1.7-12.3c0.7-2.4,0.1-5.5-0.2-6.5c-0.3-1,9.1-3,17.7-3.1S47.6,26.3,47.1,29z" />		</g>		<g>			<path class="cT-cls-3" d="M47.1,29c-0.5,3,2.1,10.1,2.5,13.1c0.7,5,1,9.5-6.4,10.4c-4.5,0.5-5.7,0.6-6.9,0.2c-1.2-0.4-2.2-0.4-3.6,0.4     c-1,0.6-2.1,1-5,1.1c-1.6,0.1-4.2-0.1-5.7-0.8c-0.6-0.3-0.9-0.2-1.7,0.1c-1.3,0.6-5.4,0.7-6.5,0.4c-4-1-4.6-3.3-4.7-5.3     c-0.2-2.8,1-9.9,1.7-12.3c0.7-2.4,0.1-5.5-0.2-6.5c-0.3-1,9.1-3,17.7-3.1S47.6,26.3,47.1,29z" />		</g>		<path class="cT-cls-4" d="M21,49.9c-1.2,0.1-1.5-1.3-1.4-1.8c0.1-0.6,0.3-1.5,0.9-1.4s0.9,0.8,1,1.6C21.6,49,21.9,49.9,21,49.9z" />		<path class="cT-cls-4" d="M35.2,49.2c1.2,0.1,1.6-1.6,1.4-2.3c-0.1-0.7-0.3-1.8-0.8-1.8c-0.5,0-0.9,1-1.1,2    C34.5,48,34.3,49.1,35.2,49.2z" />		<path class="cT-cls-5" d="M9.1,48.7c0.2,2,0.7,4.3,4.7,5.3c1.1,0.3,5.2,0.1,6.5-0.4c0.8-0.4,1.1-0.4,1.7-0.1c1.6,0.7,4.1,0.9,5.7,0.8    c3-0.2,4-0.6,5-1.1c1.4-0.8,2.4-0.8,3.6-0.4c1.3,0.4,2.5,0.4,6.9-0.2c6.4-0.8,7.1-4.2,6.7-8.4c-0.4,1.1-1,2.7-1.9,3.8    c-1.5,1.9-4.8,3.1-6.2,2.9c-1.9-0.2-4.3,0-5.8-0.6c-1.4-0.6-2.5,0.2-3.9,0.8c-1.4,0.6-3.6,0.8-5.3,0.8c-1.6,0-3.8-0.4-5.1-1.1    c-1.3-0.7-2.2,0.4-3.5,0.6c-1.3,0.2-3.4,0.6-6.1-0.2c-1.6-0.5-2.6-2.3-3.1-4.2C9,47.6,9,48.2,9.1,48.7z" />		<path class="cT-cls-4" d="M28.6,29.6c4.8,0,12.6-0.6,15.4,0.2c1.5,0.4,2.5,0.9,3.1,1.2c-0.1-0.8-0.1-1.5,0-2.1    c0.5-2.7-10.2-2.3-18.9-2.2c-8.6,0.1-18,2.1-17.7,3.1c0.2,0.5,0.4,1.5,0.5,2.7c0.7-0.7,1.8-1.4,3.7-1.7    C19,30.3,23.8,29.6,28.6,29.6z" />	</g></g><defs><g id="cTS_mesial" style="">	<path class="cT-cls-6" d="M49.4,48.9l-4.1-5.2c0.3-1,0.2-2.4,0.3-3.4c0.2-1.9,1-4.1,2.1-5.4c0.7,2.8,1.6,5.6,1.8,7.3   C50,44.7,50.2,47,49.4,48.9z" data-color-action="fill" style="fill:inherit" /></g><g id="cTS_line_angle_4" style="">	<path class="cT-cls-6" d="M43.2,52.5c-2.8,0.3-4.4,0.5-5.4,0.4l-1.5-6.2c0.9,0.4,2.8,0.7,4.3,0.7c3.8,0.1,4.1-1.4,4.7-3.7l4.1,5.2   C48.7,50.7,46.9,52,43.2,52.5z" data-color-action="fill" style="fill:inherit" /></g><g id="cTS_groove_2" style="">	<path class="cT-cls-6" d="M36.3,52.6c-1.2-0.4-2.2-0.4-3.6,0.4c-1,0.6-2.1,1-5,1.1c-1.5,0.1-3.7-0.1-5.3-0.6l1.5-6.3   c2.5-1.1,3.9-2.2,6.3-2.1c2.8,0.1,3.8,0.5,6.2,1.5l1.5,6.2C37.2,52.9,36.7,52.8,36.3,52.6z" data-color-action="fill" style="fill:inherit" /></g><g id="cTS_line_angle_3" style="">	<path class="cT-cls-6" d="M21.9,53.4c-0.6-0.3-0.9-0.2-1.7,0.1c-1.3,0.6-5.4,0.7-6.5,0.4c-2.5-0.6-3.6-1.7-4.2-3l4.3-6.6   c1.2,2.3,2.8,3.8,5.2,3.8c1.9,0,3.5-0.4,4.8-1l-1.5,6.3C22.2,53.5,22,53.5,21.9,53.4z" data-color-action="fill" style="fill:inherit" /></g><g id="cTS_distal" style="">	<path class="cT-cls-6" d="M11.9,39.1c0.6,2,1.2,3.8,2,5.3L9.6,51c-0.3-0.8-0.5-1.6-0.5-2.3c-0.2-2.6,0.8-8.8,1.6-11.7   C11.2,37.5,11.6,38.2,11.9,39.1z" data-color-action="fill" style="fill:inherit" /></g><g id="cTS_lingual_pit" style="">	<ellipse class="cT-cls-6" cx="29.7" cy="37.2" rx="3.9" ry="6.6" data-color-action="fill" style="fill:inherit" /></g><g id="cTS_lingual_V" style="">	<path class="cT-cls-6" d="M19.6,27.4c2.7-0.4,5.7-0.6,8.6-0.7c4.2-0.1,8.9-0.2,12.6,0.1c-3.4,1.4-7.1,2.2-10.9,2.3   C26.4,29.2,22.9,28.6,19.6,27.4z" data-color-action="fill" style="fill:inherit" /></g><g id="cTS_tipped_lingual" style="">	<g>		<path class="cT-cls-7" d="M31.3,57.1c-1.2,3.2-4.5,3.6-7.2-5c-0.5-1.5-4.2-1.7-3.6,0c1.9,5.7,5,9.6,8.5,8.7c1.2-0.3,2.3-1.6,2.8-3.2    C31.6,57.5,31.4,57.3,31.3,57.1z" data-color-action="fill" style="fill:inherit" />		<polygon class="cT-cls-7" points="29.3,54.4 17.1,54.4 19.9,45.3   " data-color-action="fill" style="fill:inherit" />	</g></g><g id="cTS_tipped_facial" style=""></g><g id="cTS_surface_restoration_occlusal" style="">	<path class="cT-cls-8" d="M43.3,52.6c-4.5,0.5-5.7,0.6-6.9,0.2c-1.2-0.4-2.2-0.4-3.6,0.4c-1,0.6-2.1,1-5,1.1c-1.6,0.1-4.2-0.1-5.7-0.8   c-0.6-0.3-0.9-0.2-1.7,0.1c-1.3,0.6-5.4,0.7-6.5,0.4c-1.3-0.3-2.2-0.8-2.9-1.3l5.2-6.2c0,0.2,0,0.4-0.1,0.6c0.8,0,1.4-0.1,1.8-0.1   c0.9-0.4,2-0.7,3.4-0.7c1.1,0,2.3,0.2,3.4,0.7c0.2,0.1,1.1,0.2,2.2,0.2c0.1,0,0.3,0,0.4,0c1.5-0.1,1.9-0.2,1.9-0.2l0,0   c1.9-1.1,3.7-1.6,5.6-1.6c1.1,0,2.2,0.2,3.4,0.6h0c0.8,0,2.5-0.2,4.1-0.4c0.2,0,0.4-0.1,0.6-0.1c0-0.2,0-0.4,0-0.6l6.1,4.8   C48.1,51.2,46.3,52.2,43.3,52.6z" data-color-action="fill" style="fill:inherit" /></g><g id="cTS_surface_restoration_mesial" style="">	<path class="cT-cls-8" d="M43,45c0-0.4-0.1-1-0.2-1.7c-0.1-0.6-0.5-2.1-0.8-3.4c-0.3-1-1-4.4-1.6-7.9c1.7,3,4.7,5.1,8.3,5.6   c0.5,1.9,1,3.6,1.1,4.7c0.4,2.9,0.7,5.6-0.6,7.6L43,45z" data-color-action="fill" style="fill:inherit" /></g><g id="cTS_surface_restoration_lingual" style="">	<g>		<path class="cT-cls-8" d="M39.2,29.4c0.3,0.9,0.6,1.7,1.1,2.5c0.7,3.5,1.4,6.9,1.6,7.9c0.4,1.3,0.8,2.8,0.8,3.4    c0.2,1.1,0.2,1.8,0.3,2.3c-0.2,0-0.4,0.1-0.6,0.1c-1.6,0.2-3.3,0.4-4.1,0.4h0c-1.2-0.4-2.3-0.6-3.4-0.6c-1.9,0-3.7,0.5-5.6,1.6    l0,0c0,0-0.4,0.1-1.9,0.2c-0.1,0-0.3,0-0.4,0c-1.1,0-2-0.2-2.2-0.2c-1.2-0.5-2.3-0.7-3.4-0.7c-1.4,0-2.5,0.4-3.4,0.7    c-0.3,0.1-1,0.1-1.8,0.1c0.2-2.3,0.9-7,1.5-8.9c0.1-0.5,0.2-2.8,0.3-5.6c0.3-0.8,0.5-1.6,0.7-2.4c2.8,1.8,6.1,2.8,9.7,2.8    C32.3,33.1,36.1,31.7,39.2,29.4z" data-color-action="fill" style="fill:inherit" />			</g></g><g id="cTS_surface_restoration_lingual_V" style="">	<g>				<path class="cT-cls-8" d="M18.6,27.7c2.9-0.4,6.3-0.8,9.6-0.8c3.4,0,7.2-0.1,10.4,0c0.1,0.9,0.2,1.8,0.5,2.6c-3.1,2.3-6.9,3.7-11,3.7    c-3.6,0-6.9-1-9.7-2.8c0.1-0.6,0.2-1.2,0.2-1.9C18.7,28.2,18.7,27.9,18.6,27.7z" data-color-action="fill" style="fill:inherit" />	</g></g><g id="cTS_surface_restoration_distal" style="">	<path class="cT-cls-8" d="M9.1,48.8c-0.2-2,0.4-6.1,1-9.2c3.5-0.9,6.4-3.5,7.7-6.8c-0.1,2.8-0.2,5.1-0.3,5.6c-0.5,1.7-1.2,5.8-1.4,8.2   l-5.2,6.2C9.5,51.6,9.2,50.1,9.1,48.8z" data-color-action="fill" style="fill:inherit" /></g><g id="cTS_sub-erupted" style=""></g><g id="cTS_rotated_mesial" style=""></g><g id="cTS_rotate_distal" style=""></g><g id="cTS_root_canal" style=""></g><g id="cTS_pins" style=""></g><g id="cTS_mesial_drift" style=""></g><g id="cTS_distal_drift" style=""></g><g id="cTS_crown" style="">	<path class="cT-cls-10" d="M47.1,29c-0.5,3,2.1,10.1,2.5,13.1c0.7,5,1,9.5-6.4,10.4c-4.5,0.5-5.7,0.6-6.9,0.2c-1.2-0.4-2.2-0.4-3.6,0.4   c-1,0.6-2.1,1-5,1.1c-1.6,0.1-4.2-0.1-5.7-0.8c-0.6-0.3-0.9-0.2-1.7,0.1c-1.3,0.6-5.4,0.7-6.5,0.4c-4-1-4.6-3.3-4.7-5.3   c-0.2-2.8,1-9.9,1.7-12.3c0.7-2.4,0.1-5.5-0.2-6.5c-0.3-1,9.1-3,17.7-3.1S47.6,26.3,47.1,29z" data-color-action="fill" style="fill:inherit" /></g><g id="cTS_cracked_surface_distal" style="">	<polyline class="cT-cls-11" points="15.7,46.2 11.8,42.4 16.8,42.4 11.8,37.6 16.8,37.6 13,33.8  " data-color-action="stroke" style="stroke:inherit" /></g><g id="cTS_cracked_surface_lingual" style="">	<polyline class="cT-cls-11" points="30.8,46.2 27,42.4 32,42.4 27,37.6 32,37.6 28.2,33.8  " data-color-action="stroke" style="stroke:inherit" /></g><g id="cTS_cracked_surface_lingual_V" style="">	<polyline class="cT-cls-11" points="30.8,46.2 27,42.4 32,42.4 27,37.6 32,37.6 28.2,33.8  " data-color-action="stroke" style="stroke:inherit" /></g><g id="cTS_cracked_surface_mesial" style="">	<polyline class="cT-cls-11" points="46.7,46.2 42.8,42.4 47.8,42.4 42.8,37.6 47.8,37.6 44,33.8  " data-color-action="stroke" style="stroke:inherit" /></g><g id="cTS_chipped_surface_distal" style="">	<g>		<line class="cT-cls-11" x1="19.2" y1="44.5" x2="10.8" y2="36.2" data-color-action="stroke" style="stroke:inherit" />		<line class="cT-cls-11" x1="10.8" y1="44.5" x2="19.2" y2="36.2" data-color-action="stroke" style="stroke:inherit" />	</g></g><g id="cTS_chipped_surface_lingual" style="">	<g>		<line class="cT-cls-11" x1="33.3" y1="44.5" x2="25" y2="36.2" data-color-action="stroke" style="stroke:inherit" />		<line class="cT-cls-11" x1="25" y1="44.5" x2="33.3" y2="36.2" data-color-action="stroke" style="stroke:inherit" />	</g></g><g id="cTS_chipped_surface_lingual_V" style="">	<g>		<line class="cT-cls-11" x1="33.3" y1="44.5" x2="25" y2="36.2" data-color-action="stroke" style="stroke:inherit" />		<line class="cT-cls-11" x1="25" y1="44.5" x2="33.3" y2="36.2" data-color-action="stroke" style="stroke:inherit" />	</g></g><g id="cTS_chipped_surface_mesial" style="">	<g>		<line class="cT-cls-11" x1="48.3" y1="44.5" x2="40" y2="36.2" data-color-action="stroke" style="stroke:inherit" />		<line class="cT-cls-11" x1="40" y1="44.5" x2="48.3" y2="36.2" data-color-action="stroke" style="stroke:inherit" />	</g></g><g id="cTS_abscess" style=""></g><g id="cTS_missing_tooth" style="" data-name="missing tooth">	<g>		<g>			<path class="cT-cls-2" d="M47.1,29c-0.5,3,2.1,10.1,2.5,13.1c0.7,5,1,9.5-6.4,10.4c-4.5,0.5-5.7,0.6-6.9,0.2c-1.2-0.4-2.2-0.4-3.6,0.4     c-1,0.6-2.1,1-5,1.1c-1.6,0.1-4.2-0.1-5.7-0.8c-0.6-0.3-0.9-0.2-1.7,0.1c-1.3,0.6-5.4,0.7-6.5,0.4c-4-1-4.6-3.3-4.7-5.3     c-0.2-2.8,1-9.9,1.7-12.3c0.7-2.4,0.1-5.5-0.2-6.5c-0.3-1,9.1-3,17.7-3.1S47.6,26.3,47.1,29z" data-color-action="fill,stroke" style="fill,stroke:inherit" />		</g>		<g>			<path class="cT-cls-9" d="M47.1,29c-0.5,3,2.1,10.1,2.5,13.1c0.7,5,1,9.5-6.4,10.4c-4.5,0.5-5.7,0.6-6.9,0.2c-1.2-0.4-2.2-0.4-3.6,0.4     c-1,0.6-2.1,1-5,1.1c-1.6,0.1-4.2-0.1-5.7-0.8c-0.6-0.3-0.9-0.2-1.7,0.1c-1.3,0.6-5.4,0.7-6.5,0.4c-4-1-4.6-3.3-4.7-5.3     c-0.2-2.8,1-9.9,1.7-12.3c0.7-2.4,0.1-5.5-0.2-6.5c-0.3-1,9.1-3,17.7-3.1S47.6,26.3,47.1,29z" />		</g>		<path class="cT-cls-9" d="M21,49.9c-1.2,0.1-1.5-1.3-1.4-1.8c0.1-0.6,0.3-1.5,0.9-1.4s0.9,0.8,1,1.6C21.6,49,21.9,49.9,21,49.9z" />		<path class="cT-cls-9" d="M35.2,49.2c1.2,0.1,1.6-1.6,1.4-2.3c-0.1-0.7-0.3-1.8-0.8-1.8c-0.5,0-0.9,1-1.1,2    C34.5,48,34.3,49.1,35.2,49.2z" />		<path class="cT-cls-9" d="M9.1,48.7c0.2,2,0.7,4.3,4.7,5.3c1.1,0.3,5.2,0.1,6.5-0.4c0.8-0.4,1.1-0.4,1.7-0.1c1.6,0.7,4.1,0.9,5.7,0.8    c3-0.2,4-0.6,5-1.1c1.4-0.8,2.4-0.8,3.6-0.4c1.3,0.4,2.5,0.4,6.9-0.2c6.4-0.8,7.1-4.2,6.7-8.4c-0.4,1.1-1,2.7-1.9,3.8    c-1.5,1.9-4.8,3.1-6.2,2.9c-1.9-0.2-4.3,0-5.8-0.6c-1.4-0.6-2.5,0.2-3.9,0.8c-1.4,0.6-3.6,0.8-5.3,0.8c-1.6,0-3.8-0.4-5.1-1.1    c-1.3-0.7-2.2,0.4-3.5,0.6c-1.3,0.2-3.4,0.6-6.1-0.2c-1.6-0.5-2.6-2.3-3.1-4.2C9,47.6,9,48.2,9.1,48.7z" />		<path class="cT-cls-9" d="M28.6,29.6c4.8,0,12.6-0.6,15.4,0.2c1.5,0.4,2.5,0.9,3.1,1.2c-0.1-0.8-0.1-1.5,0-2.1    c0.5-2.7-10.2-2.3-18.9-2.2c-8.6,0.1-18,2.1-17.7,3.1c0.2,0.5,0.4,1.5,0.5,2.7c0.7-0.7,1.8-1.4,3.7-1.7    C19,30.3,23.8,29.6,28.6,29.6z" />	</g></g><g id="cTS_watch_tooth" style=""></g><g id="cTS_border" style="">	<rect transform="matrix(-1 8.977784e-11 -8.977784e-11 -1 59 66)" class="cT-cls-12" width="59" height="66" /></g></defs></g></svg>