<svg version="1.1" xmlns="http://www.w3.org/2000/svg" xmlns:xlink="http://www.w3.org/1999/xlink" x="0px" y="0px" viewBox="0 0 59 283" style="enable-background:new 0 0 59 161;" xml:space="preserve"><defs><style type="text/css">.aS-cls-2{fill:#929497;stroke:none;}.aS-cls-3{font-family:'ProximaNova-Semibold',sans-serif;}.aS-cls-4{font-size:15px;}.aS-cls-5{fill:#C4C6C7;stroke:#C4C6C7;stroke-width:5;stroke-miterlimit:10;}.aS-cls-6{fill:#F5D7CF;stroke:none;}.aS-cls-7{fill:#F2C6BC;stroke:none;}.aS-cls-8{fill:#FAE8E3;stroke:none;}.aS-cls-9{fill:#EEEFEF;stroke:none;}.aS-cls-10{fill:#E2E3E4;stroke:none;}.aS-cls-11{fill:#FBFBFB;stroke:none;}.aS-cls-12{opacity:0.55;fill:#3C3D3D;stroke:none;}.aS-cls-13{fill:#FFD403;stroke:none;}.aS-cls-14{fill:none;stroke:#C52636;stroke-width:3.622;stroke-miterlimit:10;}.aS-cls-15{font-family:'ProximaNova-Bold',sans-serif;}.aS-cls-16{font-size:13.6587px;}.aS-cls-17{fill:none;stroke:none;}.aS-cls-18{fill:#28418B;stroke:none;}.aS-cls-19{fill:#787878;stroke:none;}.aS-cls-20{fill:none;stroke:#C52636;stroke-width:2;stroke-miterlimit:10;}.aS-cls-21{fill:#C52636;stroke:none;}.aS-cls-22{fill:none;stroke:#C52636;stroke-width:2;stroke-linecap:round;stroke-miterlimit:10;}.aS-cls-23{fill:#C5C7C9;stroke:none;}.aS-cls-24{fill:#FFF;stroke:none;}.aS-cls-25{fill:none;stroke:#28418B;stroke-width:2;stroke-miterlimit:10;}.aS-cls-26{fill:#FFEF3E;stroke:none;}.aS-cls-27{fill:none;stroke:#C52636;stroke-width:1.25;stroke-miterlimit:10;}.aS-cls-28{fill:#9B9999;stroke:none;}.aS-cls-29{fill:#DBDBDC;stroke:none;}.aS-cls-30{fill:#3C3D3D;stroke:none;}.bS-cls-2{fill:#C4C6C7;stroke:#C4C6C7;stroke-width:5;stroke-miterlimit:10;}.bS-cls-3{fill:#EEEFEF;stroke:none;}.bS-cls-4{fill:#FCFCFC;stroke:none;}.bS-cls-5{fill:#E2E3E4;stroke:none;}.bS-cls-6{opacity:0.55;fill:#3C3D3D;stroke:none;}.bS-cls-7{fill:#787878;stroke:none;}.bS-cls-8{fill:none;stroke:none;}.bS-cls-9{fill:#28418B;stroke:none;}.bS-cls-10{font-family:'ProximaNova-Semibold',sans-serif;}.bS-cls-11{font-size:33px;}.bS-cls-12{fill:#FFF;stroke:none;}.bS-cls-13{fill:#FFEF3E;stroke:none;}.bS-cls-14{fill:none;stroke:#C52636;stroke-width:1.25;stroke-miterlimit:10;}.cS-cls-2{fill:#C4C6C7;stroke:#C4C6C7;stroke-width:5;stroke-miterlimit:10;}.cS-cls-3{fill:#EEEFEF;stroke:none;}.cS-cls-4{fill:#E2E3E4;stroke:none;}.cS-cls-5{fill:#FBFBFB;stroke:none;}.cS-cls-6{opacity:0.55;fill:#3C3D3D;stroke:none;}.cS-cls-7{fill:#28418B;stroke:none;}.cS-cls-8{fill:#787878;stroke:none;}.cS-cls-9{fill:#FFF;stroke:none;}.cS-cls-10{fill:#FFEF3E;stroke:none;}.cS-cls-11{fill:none;stroke:#C52636;stroke-width:1.25;stroke-miterlimit:10;}.cS-cls-12{fill:none;stroke:none;}.aS-msng-cls-1{isolation:isolate;}.aS-msng-cls-2{font-size:15px;fill:#929497;font-family:ProximaNova-Semibold,Proxima Nova;font-weight:700;stroke:none;}.aS-msng-cls-3{fill:#C4C6C7;stroke:#C4C6C7;stroke-width:5px;}.aS-msng-cls-11,.aS-msng-cls-3{stroke-miterlimit:10;}.aS-msng-cls-4{fill:#F5D7CF;stroke:none;}.aS-msng-cls-5{fill:#F2C6BC;stroke:none;}.aS-msng-cls-6{fill:#FAE8E3;stroke:none;}.aS-msng-cls-7{fill:#EEEFEF;stroke:none;}.aS-msng-cls-8{fill:#E2E3E4;stroke:none;}.aS-msng-cls-9{fill:#FBFBFB;stroke:none;}.aS-msng-cls-10{}.aS-msng-cls-11,.aS-msng-cls-12{fill:none;stroke:none;}.aS-msng-cls-11{stroke:#787878;stroke-width:6.25px;}</style></defs><title>ToothSS_Layered</title><g class="aS-cls-1" transform="translate(0 122)"><g id="_Sa">	<text transform="matrix(1 0 0 1 19.8847 150.7422)" class="aS-cls-2 aS-cls-3 aS-cls-4">SS</text>	<g>		<path class="aS-cls-5" d="M46.5,40.7c-0.6-2.6-1.1-3.9-1.1-5.3c0,0,0,0,0,0c1.6-2.6,2.7-9.7,2.9-12.1c0.2-2.3-0.8-8.1-3.4-9.2    c-2.9-1.2-11.4-1-13.1,0.1c-1.7,1-2.5,0.9-3.2,0.4c-0.9-0.7-6.5-1.8-11.2-1c-4.7,0.8-5.5,5.3-5.4,9.2c0.1,3.9,1.4,11.6,2.3,13.2    c0,0,0.1,0.1,0.1,0.1c0.1,1.3-0.1,2.7-0.7,5c-2.9,11.3-5,17.9-2.9,23.4c1.7,4.5,7.4,11.5,9,11.1c1.6-0.4-2.1-7.3-1.7-15.1    c0.3-5.2,5.9-14,13.3-13.4c5.2,0.4,10,10,8.1,20.1c-1.2,6.6-3,11-1.6,11.6c1.4,0.6,7.9-6.2,10.2-14.9    C50.3,56.4,47.7,45.6,46.5,40.7z" />		<path class="aS-cls-6" d="M46.6,30.7c-2,4.9-1.2,5.1-0.1,10c1.1,4.9,3.7,15.7,1.7,23.4c-2.4,8.7-8.8,15.5-10.2,14.9s0.4-5,1.6-11.6    c1.8-10.1-2.9-19.7-8.1-20.1c-7.4-0.6-13,8.2-13.3,13.4c-0.4,7.8,3.4,14.7,1.7,15.1c-1.6,0.4-7.3-6.6-9-11.1    c-2-5.5,0-12.1,2.9-23.4c1-4,0.8-5.3,0.1-8.1C13.3,30.7,48.7,25.7,46.6,30.7z" />		<path class="aS-cls-7" d="M46.3,48.8c-1.1-6.5-2.3-9-2.7-10.9c-0.4-1.9,0-6.2,0-6.2h2.6c-1.5,3.9-0.7,4.4,0.3,8.9    c1.1,4.9,3.7,15.7,1.7,23.4c-1.2,4.5-3.5,8.4-5.7,11.2c1.8-3.4,4.2-8.9,4.7-11.8C47.8,60,47.5,56.2,46.3,48.8z" />		<path class="aS-cls-7" d="M21.5,48.2c3.6-3.9,8.6-3.9,10.4-3.6s6.5,3,8,8c1.8,6.2,1.4,10.4,0.5,14.2c-0.5,2.1-1.3,4.2-2.1,6.1    c0.4-1.6,0.8-3.5,1.2-5.7c1.8-10.1-2.9-19.7-8.1-20.1c-7.4-0.6-13,8.2-13.3,13.4c-0.2,3.8,0.6,7.3,1.3,10c-1.1-3-2.4-7.3-2.5-10.3    C16.8,55.8,18.9,51,21.5,48.2z" />		<path class="aS-cls-7" d="M13.8,41.1c1-4,0.8-5.3,0.1-8.1c-0.1-0.4,0.8-0.8,2.3-1.3l0.6,0.2c0,0-0.1,4.6-0.4,5.9c-0.3,1.3-1.6,5.6-3,10    S10.1,58.5,11,63.2c0.4,1.9,0.6,2.6,1.1,4.1c-0.5-0.9-1-1.9-1.3-2.7C8.8,59,10.9,52.4,13.8,41.1z" />		<path class="aS-cls-8" d="M19.1,35.5c0.3,1.2,0.1,2.3-0.1,3.2c-0.2,0.8-1.5,4.3-4,10.5c-2.5,6.2-2.4,11.8-1.9,15.1    c0.4,2.2,3.5,8.6,3.8,8.1s-2.8-5.5-3.1-10.9c-0.4-6.7,5.4-17.5,6.6-19.8c1.2-2.3,1.9-4.7,1.8-6C22.1,34.4,18.6,33.8,19.1,35.5z" />		<path class="aS-cls-9" d="M45.4,35.4c1.6-2.6,2.7-9.7,2.9-12.1c0.2-2.3-0.8-8.1-3.4-9.2c-2.9-1.2-11.4-1-13.1,0.1    c-1.7,1-2.5,0.9-3.2,0.4c-0.9-0.7-6.5-1.8-11.2-1c-4.7,0.8-5.5,5.3-5.4,9.2c0.1,3.9,1.4,11.6,2.3,13.2S43.5,38.5,45.4,35.4z" />		<g>			<path class="aS-cls-10" d="M45.4,23.4c0.2-2.3-0.6-8-2.4-9.8c0.7,0.1,1.4,0.3,1.9,0.5c2.6,1.1,3.6,6.9,3.4,9.2     c-0.2,2.4-1.3,9.5-2.9,12.1c-0.3,0.4-1.1,0.8-2.3,1.1C44.4,33.6,45.3,26,45.4,23.4z" />			<path class="aS-cls-10" d="M17.4,13.6c0.1,0,0.1,0,0.2,0c-2.3,1.8-2.8,5.8-2.7,9.2c0.1,3.9,1,11.3,1.8,13.9c-1.3-0.2-2.1-0.4-2.3-0.7     c-1-1.6-2.2-9.3-2.3-13.2C11.9,18.9,12.8,14.4,17.4,13.6z" />		</g>		<path class="aS-cls-11" d="M33.8,17.5c1.2,0.6,0.1,5.6-0.5,5.5C32.6,22.9,32.4,16.8,33.8,17.5z" />		<path class="aS-cls-8" d="M39,76.1c0.5,0.3,4.1-4.9,5-11.4c1.2-8.8-2.1-18.1-2.7-17.9c-0.5,0.2,1,2.7,1.6,8.5    c0.5,4.8-0.5,10.6-1.2,13.1C41,70.8,38.2,75.6,39,76.1z" />		<path class="aS-cls-11" d="M19.5,34.9c-0.1-1.8-1-6.1-1-11.4c0-3.4,1-8.5,1.6-10.2c1.2,0,2.3,0,3.4,0.1c-0.7,1.6-2.1,7.2-1.8,11.6    c0.2,3.3,1.2,9.7,1,12.2c-1.1-0.1-2.2-0.1-3.2-0.2C19.8,36.4,19.6,36.3,19.5,34.9z" />	</g></g><defs><g id="aSS_bone_graft" style="">	<g>		<g>							<ellipse transform="matrix(0.1539 -0.9881 0.9881 0.1539 -23.6537 49.9275)" class="aS-cls-14" cx="17.3" cy="38.8" rx="12.7" ry="12.7" data-color-action="stroke" style="stroke:inherit" />			<line class="aS-cls-14" x1="10.3" y1="29.2" x2="24.3" y2="48.4" data-color-action="stroke" style="stroke:inherit" />		</g>		<text transform="matrix(1 0 0 1 6.7031 43.357)" class="aS-cls-15 aS-cls-16">NA</text>	</g></g><g id="aSS_splinted_crowns" style="">	<g>		<g>							<ellipse transform="matrix(0.1539 -0.9881 0.9881 0.1539 -23.6537 49.9275)" class="aS-cls-14" cx="17.3" cy="38.8" rx="12.7" ry="12.7" data-color-action="stroke" style="stroke:inherit" />			<line class="aS-cls-14" x1="10.3" y1="29.2" x2="24.3" y2="48.4" data-color-action="stroke" style="stroke:inherit" />		</g>		<text transform="matrix(1 0 0 1 6.7031 43.357)" class="aS-cls-15 aS-cls-16">NA</text>	</g></g><g id="aSS_buccal_V" style="">	<path class="aS-cls-12" d="M20.2,37.1c5.8,0.5,14.6,0.5,20.1-0.1c-3.1-1.3-6.5-2-10-2C26.8,35,23.4,35.8,20.2,37.1z" data-color-action="fill" style="fill:inherit" /></g><g id="aSS_buccal_pit" style="">	<ellipse class="aS-cls-12" cx="30.2" cy="27.5" rx="3.4" ry="5.6" data-color-action="fill" style="fill:inherit" /></g><g id="aSS_mesial" style="">	<path class="aS-cls-12" d="M47,16.5l-2.8,4.3c0.2,0.8,0.3,1.7,0.4,2.5c0.3,2.1,1.6,3.3,3.1,4.1c0.3-1.7,0.5-3.1,0.6-4   C48.4,21.8,48,18.7,47,16.5z" data-color-action="fill" style="fill:inherit" /></g><g id="aSS_line_angle_2" style="">	<path class="aS-cls-12" d="M44.9,14.1c-1.6-0.7-4.7-0.9-7.6-0.8l-1,4.6c0.8-0.3,1.7-0.6,3-0.6c3.2-0.1,4.4,1.6,4.9,3.5l2.8-4.3   C46.4,15.4,45.7,14.5,44.9,14.1z" data-color-action="fill" style="fill:inherit" /></g><g id="aSS_groove_1" style="">	<path class="aS-cls-12" d="M31.8,14.2c-1.7,1-2.5,0.9-3.2,0.4c-0.5-0.4-2.3-0.9-4.7-1.1l1.2,4.9c2.1,0.8,3.7,2.1,5.9,2   c2.4-0.1,3.2-1.6,5.2-2.4l1-4.6C34.8,13.4,32.6,13.7,31.8,14.2z" data-color-action="fill" style="fill:inherit" /></g><g id="aSS_line_angle_1" style="">	<path class="aS-cls-12" d="M17.4,13.6c-2,0.3-3.2,1.3-4.1,2.7l3.3,4.6c1-1.9,2.3-3.2,4.3-3.2c1.6-0.1,3,0.3,4.1,0.8L24,13.5   C22,13.3,19.6,13.2,17.4,13.6z" data-color-action="fill" style="fill:inherit" /></g><g id="aSS_distal" style="">	<path class="aS-cls-12" d="M15.1,25.3c0.5-1.7,1-3.2,1.6-4.4l-3.3-4.6c-1.2,1.8-1.4,4.3-1.4,6.6c0,1.4,0.2,3.2,0.5,5.2   C13.7,27.5,14.7,26.6,15.1,25.3z" data-color-action="fill" style="fill:inherit" /></g><g id="aSS_veneer" style="">	<g>		<g>							<ellipse transform="matrix(0.1539 -0.9881 0.9881 0.1539 -23.6537 49.9275)" class="aS-cls-14" cx="17.3" cy="38.8" rx="12.7" ry="12.7" data-color-action="stroke" style="stroke:inherit" />			<line class="aS-cls-14" x1="10.3" y1="29.2" x2="24.3" y2="48.4" data-color-action="stroke" style="stroke:inherit" />		</g>		<text transform="matrix(1 0 0 1 6.7031 43.357)" class="aS-cls-15 aS-cls-16">NA</text>	</g></g><g id="aSS_tissue_graft" style="">	<g>		<g>							<ellipse transform="matrix(0.1539 -0.9881 0.9881 0.1539 -23.6537 49.9275)" class="aS-cls-14" cx="17.3" cy="38.8" rx="12.7" ry="12.7" data-color-action="stroke" style="stroke:inherit" />			<line class="aS-cls-14" x1="10.3" y1="29.2" x2="24.3" y2="48.4" data-color-action="stroke" style="stroke:inherit" />		</g>		<text transform="matrix(1 0 0 1 6.7031 43.357)" class="aS-cls-15 aS-cls-16">NA</text>	</g></g><g id="aSS_tipped_lingual" style="">	<rect x="28" y="154.8" class="aS-cls-17" width="3" height="3" /></g><g id="aSS_tipped_facial" style="">	<g>		<path class="aS-cls-18" d="M25.1,9.9c1.2-3.2,4.5-3.6,7.2,5c0.5,1.5,4.2,1.7,3.6,0c-1.9-5.7-5-9.6-8.5-8.7c-1.2,0.3-2.3,1.6-2.8,3.2    C24.8,9.6,25,9.8,25.1,9.9z" data-color-action="fill" style="fill:inherit" />		<polygon class="aS-cls-18" points="27,12.7 39.2,12.7 36.4,21.8   " data-color-action="fill" style="fill:inherit" />	</g></g><g id="aSS_surface_restoration_mesial" style="">	<path class="aS-cls-19" d="M45.2,14.3l-4.5,6.1c0.1,0,0.2,0,0.3,0c0.2,0.8,0.4,1.8,0.3,2.3C41.2,24,41.1,29,41,33.4   c1.3-2.9,3.8-5.2,6.8-6.3c0.3-1.6,0.4-3,0.5-3.8C48.5,21.2,47.6,15.8,45.2,14.3z" data-color-action="fill" style="fill:inherit" /></g><g id="aSS_surface_restoration_buccal" style="">	<g>		<path class="aS-cls-19" d="M40.4,35.1c0.2-0.6,0.4-1.2,0.6-1.8c0.2-4.4,0.2-9.4,0.3-10.6c0-0.5-0.1-1.5-0.3-2.3    c-0.6-0.1-1.5-0.1-2.5-0.1c-1.8,0-3.1,0.1-3.7,0.3c-1.3,0.7-3,1.4-5.1,1.4c-1.6,0-3-0.4-4.4-1.2c-0.7-0.2-2.3-0.5-4.2-0.5    c-0.7,0-1.3,0-1.9,0.1c-0.1,0.4-0.2,1.1-0.1,2.2c0,1.4,0.6,7.7,1.1,12.2c0,0,0,0,0,0.1c3-1.5,6.3-2.4,9.9-2.4    C33.8,32.5,37.3,33.5,40.4,35.1z" data-color-action="fill" style="fill:inherit" />			</g></g><g id="aSS_surface_restoration_buccal_V" style="">	<g>				<path class="aS-cls-19" d="M40,37c0.1-0.6,0.2-1.3,0.3-1.9c-3.1-1.7-6.6-2.6-10.4-2.6c-3.6,0-6.9,0.9-9.9,2.4c0.3,0.7,0.6,1.5,0.8,2.3    C26.5,37.6,34.7,37.7,40,37z" data-color-action="fill" style="fill:inherit" />	</g></g><g id="aSS_surface_restoration_distal" style="">	<path class="aS-cls-19" d="M12,22.8c0,1.5,0.3,3.6,0.6,5.7c3.3,0.9,6.1,3.2,7.5,6.3c-0.5-4.5-1-10.8-1.1-12.2c0-1,0-1.6,0.1-2l-5-5.4   C12.3,17.1,12,20.1,12,22.8z" data-color-action="fill" style="fill:inherit" /></g><g id="aSS_surface_restoration_occlusal" style="">	<path class="aS-cls-19" d="M44.9,14.1c-2.9-1.2-11.4-1-13.1,0.1c-1.7,1-2.5,0.9-3.2,0.4c-0.9-0.7-6.5-1.8-11.2-1   c-1.4,0.2-2.5,0.8-3.3,1.6l5,5.4c0-0.1,0-0.1,0-0.2c0.6-0.1,1.2-0.1,1.9-0.1c1.9,0,3.5,0.3,4.2,0.5c1.3,0.8,2.8,1.2,4.4,1.2   c2.1,0,3.8-0.7,5.1-1.4c0.6-0.1,1.9-0.3,3.7-0.3c0.9,0,1.7,0,2.2,0.1l4.5-6.1C45.1,14.3,45,14.2,44.9,14.1z" data-color-action="fill" style="fill:inherit" /></g><g id="aSS_supra-erupted" style="">	<g>		<g>							<ellipse transform="matrix(0.1539 -0.9881 0.9881 0.1539 -23.6537 49.9275)" class="aS-cls-14" cx="17.3" cy="38.8" rx="12.7" ry="12.7" data-color-action="stroke" style="stroke:inherit" />			<line class="aS-cls-14" x1="10.3" y1="29.2" x2="24.3" y2="48.4" data-color-action="stroke" style="stroke:inherit" />		</g>		<text transform="matrix(1 0 0 1 6.7031 43.357)" class="aS-cls-15 aS-cls-16">NA</text>	</g></g><g id="aSS_sub-erupted" style="">	<g>		<g>			<line class="aS-cls-20" x1="29.5" y1="45.8" x2="29.5" y2="39" data-color-action="stroke" style="stroke:inherit" />			<g>				<polygon class="aS-cls-21" points="33.5,44.7 29.5,51.6 25.5,44.7     " data-color-action="fill" style="fill:inherit" />			</g>		</g>	</g></g><g id="aSS_rotated_mesial" style="">	<g>		<path class="aS-cls-18" d="M7.4,30.9c-2.8-1.7-2.2-5.1,9.6-5.5c5-0.1,8.4,0,8.4,0l-0.1-2.8c0,0-0.9-0.1-7.7,0.2    c-7.2,0.3-13.2,1.7-12.9,5.6c0.1,1,1,2.1,2.2,2.7C7.1,31.1,7.3,31,7.4,30.9z" data-color-action="fill" style="fill:inherit" />		<polygon class="aS-cls-18" points="19.4,29.7 19.4,18.5 29.1,24.1   " data-color-action="fill" style="fill:inherit" />	</g></g><g id="aSS_rotated_distal" style="">	<g>		<path class="aS-cls-18" d="M51.8,30.9c2.8-1.7,2.2-5.1-9.6-5.5c-5-0.1-8.4,0-8.4,0l0.1-2.8c0,0,0.9-0.1,7.7,0.2    c7.2,0.3,13.2,1.7,12.9,5.6c-0.1,1-1,2.1-2.2,2.7C52.2,31.1,52,31,51.8,30.9z" data-color-action="fill" style="fill:inherit" />		<polygon class="aS-cls-18" points="39.9,29.7 39.9,18.5 30.1,24.1   " data-color-action="fill" style="fill:inherit" />	</g></g><g id="aSS_root_tips" style="">	<g>		<g>							<ellipse transform="matrix(0.1539 -0.9881 0.9881 0.1539 -23.6537 49.9275)" class="aS-cls-14" cx="17.3" cy="38.8" rx="12.7" ry="12.7" data-color-action="stroke" style="stroke:inherit" />			<line class="aS-cls-14" x1="10.3" y1="29.2" x2="24.3" y2="48.4" data-color-action="stroke" style="stroke:inherit" />		</g>		<text transform="matrix(1 0 0 1 6.7031 43.357)" class="aS-cls-15 aS-cls-16">NA</text>	</g></g><g id="aSS_root_decay" style="">	<g>		<g>							<ellipse transform="matrix(0.1539 -0.9881 0.9881 0.1539 -23.6537 49.9275)" class="aS-cls-14" cx="17.3" cy="38.8" rx="12.7" ry="12.7" data-color-action="stroke" style="stroke:inherit" />			<line class="aS-cls-14" x1="10.3" y1="29.2" x2="24.3" y2="48.4" data-color-action="stroke" style="stroke:inherit" />		</g>		<text transform="matrix(1 0 0 1 6.7031 43.357)" class="aS-cls-15 aS-cls-16">NA</text>	</g><g id="root_decay_2">	<g>		<g>							<ellipse transform="matrix(0.1539 -0.9881 0.9881 0.1539 -23.6537 49.9275)" class="aS-cls-14" cx="17.3" cy="38.8" rx="12.7" ry="12.7" data-color-action="stroke" style="stroke:inherit" />			<line class="aS-cls-14" x1="10.3" y1="29.2" x2="24.3" y2="48.4" data-color-action="stroke" style="stroke:inherit" />		</g>		<text transform="matrix(1 0 0 1 6.7031 43.357)" class="aS-cls-15 aS-cls-16">NA</text>	</g></g><g id="root_decay_1">	<g>		<g>							<ellipse transform="matrix(0.1539 -0.9881 0.9881 0.1539 -23.6537 49.9275)" class="aS-cls-14" cx="17.3" cy="38.8" rx="12.7" ry="12.7" data-color-action="stroke" style="stroke:inherit" />			<line class="aS-cls-14" x1="10.3" y1="29.2" x2="24.3" y2="48.4" data-color-action="stroke" style="stroke:inherit" />		</g>		<text transform="matrix(1 0 0 1 6.7031 43.357)" class="aS-cls-15 aS-cls-16">NA</text>	</g></g></g><g id="aSS_root_canal" style="">	<line class="aS-cls-22" x1="43.5" y1="67.3" x2="41.1" y2="38.9" data-color-action="stroke" style="stroke:inherit" /><g id="root_canal_2">	<line class="aS-cls-22" x1="43.5" y1="67.3" x2="41.1" y2="38.9" data-color-action="stroke" style="stroke:inherit" /></g><g id="root_canal_1">	<line class="aS-cls-22" x1="14.2" y1="67.8" x2="19.2" y2="39.2" data-color-action="stroke" style="stroke:inherit" /></g></g><g id="aSS_root_abrasion" style="">	<g>		<g>							<ellipse transform="matrix(0.1539 -0.9881 0.9881 0.1539 -23.6537 49.9275)" class="aS-cls-14" cx="17.3" cy="38.8" rx="12.7" ry="12.7" data-color-action="stroke" style="stroke:inherit" />			<line class="aS-cls-14" x1="10.3" y1="29.2" x2="24.3" y2="48.4" data-color-action="stroke" style="stroke:inherit" />		</g>		<text transform="matrix(1 0 0 1 6.7031 43.357)" class="aS-cls-15 aS-cls-16">NA</text>	</g><g id="root_abrasion_2">	<g>		<g>							<ellipse transform="matrix(0.1539 -0.9881 0.9881 0.1539 -23.6537 49.9275)" class="aS-cls-14" cx="17.3" cy="38.8" rx="12.7" ry="12.7" data-color-action="stroke" style="stroke:inherit" />			<line class="aS-cls-14" x1="10.3" y1="29.2" x2="24.3" y2="48.4" data-color-action="stroke" style="stroke:inherit" />		</g>		<text transform="matrix(1 0 0 1 6.7031 43.357)" class="aS-cls-15 aS-cls-16">NA</text>	</g></g><g id="root_abrasion_1">	<g>		<g>							<ellipse transform="matrix(0.1539 -0.9881 0.9881 0.1539 -23.6537 49.9275)" class="aS-cls-14" cx="17.3" cy="38.8" rx="12.7" ry="12.7" data-color-action="stroke" style="stroke:inherit" />			<line class="aS-cls-14" x1="10.3" y1="29.2" x2="24.3" y2="48.4" data-color-action="stroke" style="stroke:inherit" />		</g>		<text transform="matrix(1 0 0 1 6.7031 43.357)" class="aS-cls-15 aS-cls-16">NA</text>	</g></g></g><g id="aSS_pins" style="">	<g>		<g>			<rect x="18.4" y="24.7" class="aS-cls-19" width="2.3" height="22" data-color-action="fill" style="fill:inherit" />			<rect x="19.1" y="24.7" class="aS-cls-23" width="0.3" height="22" />		</g>		<g>			<rect x="22.8" y="24.7" class="aS-cls-19" width="2.3" height="22" data-color-action="fill" style="fill:inherit" />			<rect x="23.4" y="24.7" class="aS-cls-23" width="0.3" height="22" />		</g>	</g>	<g>		<g>			<rect x="34" y="24.7" class="aS-cls-19" width="2.3" height="22" data-color-action="fill" style="fill:inherit" />			<rect x="34.6" y="24.7" class="aS-cls-23" width="0.3" height="22" />		</g>		<g>			<rect x="38.3" y="24.7" class="aS-cls-19" width="2.3" height="22" data-color-action="fill" style="fill:inherit" />			<rect x="38.9" y="24.7" class="aS-cls-23" width="0.3" height="22" />		</g>	</g></g><g id="aSS_post" style="">	<g>		<g>							<ellipse transform="matrix(0.1539 -0.9881 0.9881 0.1539 -23.6537 49.9275)" class="aS-cls-14" cx="17.3" cy="38.8" rx="12.7" ry="12.7" data-color-action="stroke" style="stroke:inherit" />			<line class="aS-cls-14" x1="10.3" y1="29.2" x2="24.3" y2="48.4" data-color-action="stroke" style="stroke:inherit" />		</g>		<text transform="matrix(1 0 0 1 6.7031 43.357)" class="aS-cls-15 aS-cls-16">NA</text>	</g></g><g id="aSS_open_contact_mesial" style="">	<g>		<g>							<ellipse transform="matrix(0.1539 -0.9881 0.9881 0.1539 -23.6537 49.9275)" class="aS-cls-14" cx="17.3" cy="38.8" rx="12.7" ry="12.7" data-color-action="stroke" style="stroke:inherit" />			<line class="aS-cls-14" x1="10.3" y1="29.2" x2="24.3" y2="48.4" data-color-action="stroke" style="stroke:inherit" />		</g>		<text transform="matrix(1 0 0 1 6.7031 43.357)" class="aS-cls-15 aS-cls-16">NA</text>	</g></g><g id="aSS_open_contact_distal" style="">	<g>		<g>							<ellipse transform="matrix(0.1539 -0.9881 0.9881 0.1539 -23.6537 49.9275)" class="aS-cls-14" cx="17.3" cy="38.8" rx="12.7" ry="12.7" data-color-action="stroke" style="stroke:inherit" />			<line class="aS-cls-14" x1="10.3" y1="29.2" x2="24.3" y2="48.4" data-color-action="stroke" style="stroke:inherit" />		</g>		<text transform="matrix(1 0 0 1 6.7031 43.357)" class="aS-cls-15 aS-cls-16">NA</text>	</g></g><g id="aSS_mesial_drift" style="">	<g>		<g>			<line class="aS-cls-25" x1="32.1" y1="25.3" x2="21.2" y2="25.3" data-color-action="stroke" style="stroke:inherit" />			<g>				<polygon class="aS-cls-18" points="30.9,21.3 37.8,25.3 30.9,29.3     " data-color-action="fill" style="fill:inherit" />			</g>		</g>	</g></g><g id="aSS_lingual_abfraction" style="">	<g>		<g>							<ellipse transform="matrix(0.1539 -0.9881 0.9881 0.1539 -23.6537 49.9275)" class="aS-cls-14" cx="17.3" cy="38.8" rx="12.7" ry="12.7" data-color-action="stroke" style="stroke:inherit" />			<line class="aS-cls-14" x1="10.3" y1="29.2" x2="24.3" y2="48.4" data-color-action="stroke" style="stroke:inherit" />		</g>		<text transform="matrix(1 0 0 1 6.7031 43.357)" class="aS-cls-15 aS-cls-16">NA</text>	</g></g><g id="aSS_internal_root_resorption" style="">	<g>		<g>							<ellipse transform="matrix(0.1539 -0.9881 0.9881 0.1539 -23.6537 49.9275)" class="aS-cls-14" cx="17.3" cy="38.8" rx="12.7" ry="12.7" data-color-action="stroke" style="stroke:inherit" />			<line class="aS-cls-14" x1="10.3" y1="29.2" x2="24.3" y2="48.4" data-color-action="stroke" style="stroke:inherit" />		</g>		<text transform="matrix(1 0 0 1 6.7031 43.357)" class="aS-cls-15 aS-cls-16">NA</text>	</g></g><g id="aSS_impacted_mesial" style="">	<g>		<g>							<ellipse transform="matrix(0.1539 -0.9881 0.9881 0.1539 -23.6537 49.9275)" class="aS-cls-14" cx="17.3" cy="38.8" rx="12.7" ry="12.7" data-color-action="stroke" style="stroke:inherit" />			<line class="aS-cls-14" x1="10.3" y1="29.2" x2="24.3" y2="48.4" data-color-action="stroke" style="stroke:inherit" />		</g>		<text transform="matrix(1 0 0 1 6.7031 43.357)" class="aS-cls-15 aS-cls-16">NA</text>	</g></g><g id="aSS_impacted_distal" style="">	<g>		<g>							<ellipse transform="matrix(0.1539 -0.9881 0.9881 0.1539 -23.6537 49.9275)" class="aS-cls-14" cx="17.3" cy="38.8" rx="12.7" ry="12.7" data-color-action="stroke" style="stroke:inherit" />			<line class="aS-cls-14" x1="10.3" y1="29.2" x2="24.3" y2="48.4" data-color-action="stroke" style="stroke:inherit" />		</g>		<text transform="matrix(1 0 0 1 6.7031 43.357)" class="aS-cls-15 aS-cls-16">NA</text>	</g></g><g id="aSS_gortex_membranes" style="">	<g>		<g>							<ellipse transform="matrix(0.1539 -0.9881 0.9881 0.1539 -23.6537 49.9275)" class="aS-cls-14" cx="17.3" cy="38.8" rx="12.7" ry="12.7" data-color-action="stroke" style="stroke:inherit" />			<line class="aS-cls-14" x1="10.3" y1="29.2" x2="24.3" y2="48.4" data-color-action="stroke" style="stroke:inherit" />		</g>		<text transform="matrix(1 0 0 1 6.7031 43.357)" class="aS-cls-15 aS-cls-16">NA</text>	</g></g><g id="aSS_frenum_pull" style="">	<g>		<g>							<ellipse transform="matrix(0.1539 -0.9881 0.9881 0.1539 -23.6537 49.9275)" class="aS-cls-14" cx="17.3" cy="38.8" rx="12.7" ry="12.7" data-color-action="stroke" style="stroke:inherit" />			<line class="aS-cls-14" x1="10.3" y1="29.2" x2="24.3" y2="48.4" data-color-action="stroke" style="stroke:inherit" />		</g>		<text transform="matrix(1 0 0 1 6.7031 43.357)" class="aS-cls-15 aS-cls-16">NA</text>	</g></g><g id="aSS_external_root_resorption" style="">	<g>		<g>							<ellipse transform="matrix(0.1539 -0.9881 0.9881 0.1539 -23.6537 49.9275)" class="aS-cls-14" cx="17.3" cy="38.8" rx="12.7" ry="12.7" data-color-action="stroke" style="stroke:inherit" />			<line class="aS-cls-14" x1="10.3" y1="29.2" x2="24.3" y2="48.4" data-color-action="stroke" style="stroke:inherit" />		</g>		<text transform="matrix(1 0 0 1 6.7031 43.357)" class="aS-cls-15 aS-cls-16">NA</text>	</g></g><g id="aSS_diastema_mesial" style="">	<g>		<g>							<ellipse transform="matrix(0.1539 -0.9881 0.9881 0.1539 -23.6537 49.9275)" class="aS-cls-14" cx="17.3" cy="38.8" rx="12.7" ry="12.7" data-color-action="stroke" style="stroke:inherit" />			<line class="aS-cls-14" x1="10.3" y1="29.2" x2="24.3" y2="48.4" data-color-action="stroke" style="stroke:inherit" />		</g>		<text transform="matrix(1 0 0 1 6.7031 43.357)" class="aS-cls-15 aS-cls-16">NA</text>	</g></g><g id="aSS_diastema_distal" style="">	<g>		<g>							<ellipse transform="matrix(0.1539 -0.9881 0.9881 0.1539 -23.6537 49.9275)" class="aS-cls-14" cx="17.3" cy="38.8" rx="12.7" ry="12.7" data-color-action="stroke" style="stroke:inherit" />			<line class="aS-cls-14" x1="10.3" y1="29.2" x2="24.3" y2="48.4" data-color-action="stroke" style="stroke:inherit" />		</g>		<text transform="matrix(1 0 0 1 6.7031 43.357)" class="aS-cls-15 aS-cls-16">NA</text>	</g></g><g id="aSS_distal_drift" style="">	<g>		<g>			<line class="aS-cls-25" x1="26.9" y1="25.3" x2="37.8" y2="25.3" data-color-action="stroke" style="stroke:inherit" />			<g>				<polygon class="aS-cls-18" points="28.1,29.3 21.2,25.3 28.1,21.3     " data-color-action="fill" style="fill:inherit" />			</g>		</g>	</g></g><g id="aSS_three_quarter_crown" style="">	<g>		<g>							<ellipse transform="matrix(0.1539 -0.9881 0.9881 0.1539 -23.6537 49.9275)" class="aS-cls-14" cx="17.3" cy="38.8" rx="12.7" ry="12.7" data-color-action="stroke" style="stroke:inherit" />			<line class="aS-cls-14" x1="10.3" y1="29.2" x2="24.3" y2="48.4" data-color-action="stroke" style="stroke:inherit" />		</g>		<text transform="matrix(1 0 0 1 6.7031 43.357)" class="aS-cls-15 aS-cls-16">NA</text>	</g></g><g id="aSS_crown" style="">	<path class="aS-cls-26" d="M45.4,35.4c1.6-2.6,2.7-9.7,2.9-12.1c0.2-2.3-0.8-8.1-3.4-9.2c-2.9-1.2-11.4-1-13.1,0.1   c-1.7,1-2.5,0.9-3.2,0.4c-0.9-0.7-6.5-1.8-11.2-1c-4.7,0.8-5.5,5.3-5.4,9.2c0.1,3.9,1.4,11.6,2.3,13.2S43.5,38.5,45.4,35.4z" data-color-action="fill" style="fill:inherit" /></g><g id="aSS_cracked_surface_distal" style="">	<polyline class="aS-cls-27" points="15.7,29.2 11.8,25.3 16.8,25.3 11.8,20.6 16.8,20.6 13,16.8  " data-color-action="stroke" style="stroke:inherit" /></g><g id="aSS_cracked_surface_buccal" style="">	<polyline class="aS-cls-27" points="30.8,29.2 27,25.3 32,25.3 27,20.6 32,20.6 28.2,16.8  " data-color-action="stroke" style="stroke:inherit" /></g><g id="aSS_cracked_surface_buccal_V" style="">	<polyline class="aS-cls-27" points="30.8,29.2 27,25.3 32,25.3 27,20.6 32,20.6 28.2,16.8  " data-color-action="stroke" style="stroke:inherit" /></g><g id="aSS_cracked_surface_mesial" style="">	<polyline class="aS-cls-27" points="46.7,29.2 42.8,25.3 47.8,25.3 42.8,20.6 47.8,20.6 44,16.8  " data-color-action="stroke" style="stroke:inherit" /></g><g id="aSS_chipped_surface_distal" style="">	<g>		<line class="aS-cls-27" x1="19.2" y1="27.5" x2="10.8" y2="19.2" data-color-action="stroke" style="stroke:inherit" />		<line class="aS-cls-27" x1="10.8" y1="27.5" x2="19.2" y2="19.2" data-color-action="stroke" style="stroke:inherit" />	</g></g><g id="aSS_chipped_surface_buccal" style="">	<g>		<line class="aS-cls-27" x1="33.3" y1="27.5" x2="25" y2="19.2" data-color-action="stroke" style="stroke:inherit" />		<line class="aS-cls-27" x1="25" y1="27.5" x2="33.3" y2="19.2" data-color-action="stroke" style="stroke:inherit" />	</g></g><g id="aSS_chipped_surface_buccal_V" style="">	<g>		<line class="aS-cls-27" x1="33.3" y1="27.5" x2="25" y2="19.2" data-color-action="stroke" style="stroke:inherit" />		<line class="aS-cls-27" x1="25" y1="27.5" x2="33.3" y2="19.2" data-color-action="stroke" style="stroke:inherit" />	</g></g><g id="aSS_chipped_surface_mesial" style="">	<g>		<line class="aS-cls-27" x1="48.3" y1="27.5" x2="40" y2="19.2" data-color-action="stroke" style="stroke:inherit" />		<line class="aS-cls-27" x1="40" y1="27.5" x2="48.3" y2="19.2" data-color-action="stroke" style="stroke:inherit" />	</g></g><g id="aSS_buccal_abfraction" style="">	<g>		<g>							<ellipse transform="matrix(0.1539 -0.9881 0.9881 0.1539 -23.6537 49.9275)" class="aS-cls-14" cx="17.3" cy="38.8" rx="12.7" ry="12.7" data-color-action="stroke" style="stroke:inherit" />			<line class="aS-cls-14" x1="10.3" y1="29.2" x2="24.3" y2="48.4" data-color-action="stroke" style="stroke:inherit" />		</g>		<text transform="matrix(1 0 0 1 6.7031 43.357)" class="aS-cls-15 aS-cls-16">NA</text>	</g></g><g id="aSS_braces" style="">	<g>		<g>							<rect x="23" y="16.8" transform="matrix(-1 -4.489399e-11 4.489399e-11 -1 59.3774 51.8689)" class="aS-cls-23" width="13.5" height="18.2" />							<rect x="23" y="16.8" transform="matrix(-1 -4.489399e-11 4.489399e-11 -1 59.3774 34.3599)" class="aS-cls-28" width="13.5" height="0.7" data-color-action="fill" style="fill:inherit" />							<rect x="23" y="24.4" transform="matrix(-1 -4.489399e-11 4.489399e-11 -1 59.3774 50.2155)" class="aS-cls-28" width="13.5" height="1.4" data-color-action="fill" style="fill:inherit" />							<rect x="23" y="34.1" transform="matrix(-1 -4.489399e-11 4.489399e-11 -1 59.3774 69.1675)" class="aS-cls-29" width="13.5" height="0.9" data-color-action="fill" style="fill:inherit" />			<g>				<g>					<g>						<path class="aS-cls-30" d="M33.1,35h3.1c0.3,0,0.5-0.2,0.5-0.5v-7c0-0.3-0.2-0.5-0.5-0.5h-3.1c-0.3,0-0.5,0.2-0.5,0.5v7        C32.6,34.8,32.8,35,33.1,35z" data-color-action="fill" style="fill:inherit" />						<path class="aS-cls-19" d="M33.1,35h3.1c0.3,0,0.5-0.2,0.5-0.5v-5.8c-0.7-0.1-1.3-0.2-2-0.2c-0.7,0-1.4,0.1-2.1,0.2v5.8        C32.6,34.8,32.8,35,33.1,35z" data-color-action="fill" style="fill:inherit" />						<path class="aS-cls-23" d="M32.9,33.6v1.1c0,0.1,0.1,0.2,0.2,0.2h3.1c0.1,0,0.2-0.1,0.2-0.2v-1.1H32.9z" />					</g>					<g>						<path class="aS-cls-30" d="M23.2,35h3.1c0.3,0,0.5-0.2,0.5-0.5v-7c0-0.3-0.2-0.5-0.5-0.5h-3.1c-0.3,0-0.5,0.2-0.5,0.5v7        C22.7,34.8,22.9,35,23.2,35z" data-color-action="fill" style="fill:inherit" />						<path class="aS-cls-19" d="M23.2,35h3.1c0.3,0,0.5-0.2,0.5-0.5v-5.8c-0.7-0.1-1.3-0.2-2-0.2c-0.7,0-1.4,0.1-2.1,0.2v5.8        C22.7,34.8,22.9,35,23.2,35z" data-color-action="fill" style="fill:inherit" />						<path class="aS-cls-23" d="M23,33.6v1.1c0,0.1,0.1,0.2,0.2,0.2h3.1c0.1,0,0.2-0.1,0.2-0.2v-1.1H23z" />					</g>				</g>				<g>					<g>						<path class="aS-cls-30" d="M33.1,24.7h3.1c0.3,0,0.5-0.2,0.5-0.5v-7c0-0.3-0.2-0.5-0.5-0.5h-3.1c-0.3,0-0.5,0.2-0.5,0.5v7        C32.6,24.5,32.8,24.7,33.1,24.7z" data-color-action="fill" style="fill:inherit" />						<path class="aS-cls-19" d="M33.1,24.7h3.1c0.3,0,0.5-0.2,0.5-0.5v-5.8c-0.7-0.1-1.3-0.2-2-0.2c-0.7,0-1.4,0.1-2.1,0.2v5.8        C32.6,24.5,32.8,24.7,33.1,24.7z" data-color-action="fill" style="fill:inherit" />						<path class="aS-cls-23" d="M32.9,23.3v1.1c0,0.1,0.1,0.2,0.2,0.2h3.1c0.1,0,0.2-0.1,0.2-0.2v-1.1H32.9z" />					</g>					<g>						<path class="aS-cls-30" d="M23.2,24.7h3.1c0.3,0,0.5-0.2,0.5-0.5v-7c0-0.3-0.2-0.5-0.5-0.5h-3.1c-0.3,0-0.5,0.2-0.5,0.5v7        C22.7,24.5,22.9,24.7,23.2,24.7z" data-color-action="fill" style="fill:inherit" />						<path class="aS-cls-19" d="M23.2,24.7h3.1c0.3,0,0.5-0.2,0.5-0.5v-5.8c-0.7-0.1-1.3-0.2-2-0.2c-0.7,0-1.4,0.1-2.1,0.2v5.8        C22.7,24.5,22.9,24.7,23.2,24.7z" data-color-action="fill" style="fill:inherit" />						<path class="aS-cls-23" d="M23,23.3v1.1c0,0.1,0.1,0.2,0.2,0.2h3.1c0.1,0,0.2-0.1,0.2-0.2v-1.1H23z" />					</g>				</g>			</g>		</g>		<g>							<rect x="8.6" y="25.2" transform="matrix(-1 -4.490154e-11 4.490154e-11 -1 59.3675 51.7861)" class="aS-cls-19" width="42.2" height="1.4" data-color-action="fill" style="fill:inherit" />							<rect x="8.6" y="25.2" transform="matrix(-1 -4.490154e-11 4.490154e-11 -1 59.3675 50.5842)" class="aS-cls-30" width="42.2" height="0.2" data-color-action="fill" style="fill:inherit" />							<rect x="8.6" y="26" transform="matrix(-1 -4.490154e-11 4.490154e-11 -1 59.3675 52.4372)" class="aS-cls-23" width="42.2" height="0.4" />		</g>	</g></g><g id="aSS_apicoectomy" style="">	<g>		<g>							<ellipse transform="matrix(0.1539 -0.9881 0.9881 0.1539 -23.6537 49.9275)" class="aS-cls-14" cx="17.3" cy="38.8" rx="12.7" ry="12.7" data-color-action="stroke" style="stroke:inherit" />			<line class="aS-cls-14" x1="10.3" y1="29.2" x2="24.3" y2="48.4" data-color-action="stroke" style="stroke:inherit" />		</g>		<text transform="matrix(1 0 0 1 6.7031 43.357)" class="aS-cls-15 aS-cls-16">NA</text>	</g></g><g id="aSS_abscess" style="">	<circle class="aS-cls-18" cx="29.5" cy="81.9" r="6.1" data-color-action="fill" style="fill:inherit" /></g><g id="aSS_blunted_roots" style="">	<g>		<g>							<ellipse transform="matrix(0.1539 -0.9881 0.9881 0.1539 -23.6537 49.9275)" class="aS-cls-14" cx="17.3" cy="38.8" rx="12.7" ry="12.7" data-color-action="stroke" style="stroke:inherit" />			<line class="aS-cls-14" x1="10.3" y1="29.2" x2="24.3" y2="48.4" data-color-action="stroke" style="stroke:inherit" />		</g>		<text transform="matrix(1 0 0 1 6.7031 43.357)" class="aS-cls-15 aS-cls-16">NA</text>	</g></g><g id="aSS_root_amputation" style="">	<g>		<g>							<ellipse transform="matrix(0.1539 -0.9881 0.9881 0.1539 -23.6537 49.9275)" class="aS-cls-14" cx="17.3" cy="38.8" rx="12.7" ry="12.7" data-color-action="stroke" style="stroke:inherit" />			<line class="aS-cls-14" x1="10.3" y1="29.2" x2="24.3" y2="48.4" data-color-action="stroke" style="stroke:inherit" />		</g>		<text transform="matrix(1 0 0 1 6.7031 43.357)" class="aS-cls-15 aS-cls-16">NA</text>	</g><g id="root_amputation_2">	<g>		<g>							<ellipse transform="matrix(0.1539 -0.9881 0.9881 0.1539 -23.6537 49.9275)" class="aS-cls-14" cx="17.3" cy="38.8" rx="12.7" ry="12.7" data-color-action="stroke" style="stroke:inherit" />			<line class="aS-cls-14" x1="10.3" y1="29.2" x2="24.3" y2="48.4" data-color-action="stroke" style="stroke:inherit" />		</g>		<text transform="matrix(1 0 0 1 6.7031 43.357)" class="aS-cls-15 aS-cls-16">NA</text>	</g></g><g id="root_amputation_1">	<g>		<g>							<ellipse transform="matrix(0.1539 -0.9881 0.9881 0.1539 -23.6537 49.9275)" class="aS-cls-14" cx="17.3" cy="38.8" rx="12.7" ry="12.7" data-color-action="stroke" style="stroke:inherit" />			<line class="aS-cls-14" x1="10.3" y1="29.2" x2="24.3" y2="48.4" data-color-action="stroke" style="stroke:inherit" />		</g>		<text transform="matrix(1 0 0 1 6.7031 43.357)" class="aS-cls-15 aS-cls-16">NA</text>	</g></g></g><g id="aSS_missing_crown" style="">	<g>		<g>							<ellipse transform="matrix(0.1539 -0.9881 0.9881 0.1539 -23.6537 49.9275)" class="aS-cls-14" cx="17.3" cy="38.8" rx="12.7" ry="12.7" data-color-action="stroke" style="stroke:inherit" />			<line class="aS-cls-14" x1="10.3" y1="29.2" x2="24.3" y2="48.4" data-color-action="stroke" style="stroke:inherit" />		</g>		<text transform="matrix(1 0 0 1 6.7031 43.357)" class="aS-cls-15 aS-cls-16">NA</text>	</g></g><g id="aSS_missing_tooth" style="" data-name="missing tooth">	<g>		<path class="aS-cls-5" d="M46.5,40.7c-0.6-2.6-1.1-3.9-1.1-5.3c0,0,0,0,0,0c1.6-2.6,2.7-9.7,2.9-12.1c0.2-2.3-0.8-8.1-3.4-9.2    c-2.9-1.2-11.4-1-13.1,0.1c-1.7,1-2.5,0.9-3.2,0.4c-0.9-0.7-6.5-1.8-11.2-1c-4.7,0.8-5.5,5.3-5.4,9.2c0.1,3.9,1.4,11.6,2.3,13.2    c0,0,0.1,0.1,0.1,0.1c0.1,1.3-0.1,2.7-0.7,5c-2.9,11.3-5,17.9-2.9,23.4c1.7,4.5,7.4,11.5,9,11.1c1.6-0.4-2.1-7.3-1.7-15.1    c0.3-5.2,5.9-14,13.3-13.4c5.2,0.4,10,10,8.1,20.1c-1.2,6.6-3,11-1.6,11.6c1.4,0.6,7.9-6.2,10.2-14.9    C50.3,56.4,47.7,45.6,46.5,40.7z" data-color-action="fill,stroke" style="fill,stroke:inherit" />		<path class="aS-cls-24" d="M46.6,30.7c-2,4.9-1.2,5.1-0.1,10c1.1,4.9,3.7,15.7,1.7,23.4c-2.4,8.7-8.8,15.5-10.2,14.9s0.4-5,1.6-11.6    c1.8-10.1-2.9-19.7-8.1-20.1c-7.4-0.6-13,8.2-13.3,13.4c-0.4,7.8,3.4,14.7,1.7,15.1c-1.6,0.4-7.3-6.6-9-11.1    c-2-5.5,0-12.1,2.9-23.4c1-4,0.8-5.3,0.1-8.1C13.3,30.7,48.7,25.7,46.6,30.7z" />		<path class="aS-cls-24" d="M46.3,48.8c-1.1-6.5-2.3-9-2.7-10.9c-0.4-1.9,0-6.2,0-6.2h2.6c-1.5,3.9-0.7,4.4,0.3,8.9    c1.1,4.9,3.7,15.7,1.7,23.4c-1.2,4.5-3.5,8.4-5.7,11.2c1.8-3.4,4.2-8.9,4.7-11.8C47.8,60,47.5,56.2,46.3,48.8z" />		<path class="aS-cls-24" d="M21.5,48.2c3.6-3.9,8.6-3.9,10.4-3.6s6.5,3,8,8c1.8,6.2,1.4,10.4,0.5,14.2c-0.5,2.1-1.3,4.2-2.1,6.1    c0.4-1.6,0.8-3.5,1.2-5.7c1.8-10.1-2.9-19.7-8.1-20.1c-7.4-0.6-13,8.2-13.3,13.4c-0.2,3.8,0.6,7.3,1.3,10c-1.1-3-2.4-7.3-2.5-10.3    C16.8,55.8,18.9,51,21.5,48.2z" />		<path class="aS-cls-24" d="M13.8,41.1c1-4,0.8-5.3,0.1-8.1c-0.1-0.4,0.8-0.8,2.3-1.3l0.6,0.2c0,0-0.1,4.6-0.4,5.9    c-0.3,1.3-1.6,5.6-3,10S10.1,58.5,11,63.2c0.4,1.9,0.6,2.6,1.1,4.1c-0.5-0.9-1-1.9-1.3-2.7C8.8,59,10.9,52.4,13.8,41.1z" />		<path class="aS-cls-24" d="M19.1,35.5c0.3,1.2,0.1,2.3-0.1,3.2c-0.2,0.8-1.5,4.3-4,10.5c-2.5,6.2-2.4,11.8-1.9,15.1    c0.4,2.2,3.5,8.6,3.8,8.1s-2.8-5.5-3.1-10.9c-0.4-6.7,5.4-17.5,6.6-19.8c1.2-2.3,1.9-4.7,1.8-6C22.1,34.4,18.6,33.8,19.1,35.5z" />		<path class="aS-cls-24" d="M45.4,35.4c1.6-2.6,2.7-9.7,2.9-12.1c0.2-2.3-0.8-8.1-3.4-9.2c-2.9-1.2-11.4-1-13.1,0.1    c-1.7,1-2.5,0.9-3.2,0.4c-0.9-0.7-6.5-1.8-11.2-1c-4.7,0.8-5.5,5.3-5.4,9.2c0.1,3.9,1.4,11.6,2.3,13.2S43.5,38.5,45.4,35.4z" />		<g>			<path class="aS-cls-24" d="M45.4,23.4c0.2-2.3-0.6-8-2.4-9.8c0.7,0.1,1.4,0.3,1.9,0.5c2.6,1.1,3.6,6.9,3.4,9.2     c-0.2,2.4-1.3,9.5-2.9,12.1c-0.3,0.4-1.1,0.8-2.3,1.1C44.4,33.6,45.3,26,45.4,23.4z" />			<path class="aS-cls-24" d="M17.4,13.6c0.1,0,0.1,0,0.2,0c-2.3,1.8-2.8,5.8-2.7,9.2c0.1,3.9,1,11.3,1.8,13.9c-1.3-0.2-2.1-0.4-2.3-0.7     c-1-1.6-2.2-9.3-2.3-13.2C11.9,18.9,12.8,14.4,17.4,13.6z" />		</g>		<path class="aS-cls-24" d="M33.8,17.5c1.2,0.6,0.1,5.6-0.5,5.5C32.6,22.9,32.4,16.8,33.8,17.5z" />		<path class="aS-cls-24" d="M39,76.1c0.5,0.3,4.1-4.9,5-11.4c1.2-8.8-2.1-18.1-2.7-17.9c-0.5,0.2,1,2.7,1.6,8.5    c0.5,4.8-0.5,10.6-1.2,13.1C41,70.8,38.2,75.6,39,76.1z" />		<path class="aS-cls-24" d="M19.5,34.9c-0.1-1.8-1-6.1-1-11.4c0-3.4,1-8.5,1.6-10.2c1.2,0,2.3,0,3.4,0.1c-0.7,1.6-2.1,7.2-1.8,11.6    c0.2,3.3,1.2,9.7,1,12.2c-1.1-0.1-2.2-0.1-3.2-0.2C19.8,36.4,19.6,36.3,19.5,34.9z" />	</g></g><g id="aSS_extracted_tooth" data-name="extracted tooth" style=""><g class="aS-msng-cls-10"><line class="aS-msng-cls-11" x1="9" y1="10.51" x2="50.67" y2="52.17" data-color-action="stroke" style="stroke:inherit" /><line class="aS-msng-cls-11" x1="50.67" y1="10.51" x2="9" y2="52.17" data-color-action="stroke" style="stroke:inherit" /></g></g><g id="aSS_denture" style="">	<g>		<g>							<ellipse transform="matrix(0.1539 -0.9881 0.9881 0.1539 -23.6537 49.9275)" class="aS-cls-14" cx="17.3" cy="38.8" rx="12.7" ry="12.7" data-color-action="stroke" style="stroke:inherit" />			<line class="aS-cls-14" x1="10.3" y1="29.2" x2="24.3" y2="48.4" data-color-action="stroke" style="stroke:inherit" />		</g>		<text transform="matrix(1 0 0 1 6.7031 43.357)" class="aS-cls-15 aS-cls-16">NA</text>	</g></g><g id="aSS_maryland_bridge_pontic" style="">	<g>		<g>							<ellipse transform="matrix(0.1539 -0.9881 0.9881 0.1539 -23.6537 49.9275)" class="aS-cls-14" cx="17.3" cy="38.8" rx="12.7" ry="12.7" data-color-action="stroke" style="stroke:inherit" />			<line class="aS-cls-14" x1="10.3" y1="29.2" x2="24.3" y2="48.4" data-color-action="stroke" style="stroke:inherit" />		</g>		<text transform="matrix(1 0 0 1 6.7031 43.357)" class="aS-cls-15 aS-cls-16">NA</text>	</g></g><g id="aSS_maryland_bridge_abutment_mesial" style="">	<g>		<g>							<ellipse transform="matrix(0.1539 -0.9881 0.9881 0.1539 -23.6537 49.9275)" class="aS-cls-14" cx="17.3" cy="38.8" rx="12.7" ry="12.7" data-color-action="stroke" style="stroke:inherit" />			<line class="aS-cls-14" x1="10.3" y1="29.2" x2="24.3" y2="48.4" data-color-action="stroke" style="stroke:inherit" />		</g>		<text transform="matrix(1 0 0 1 6.7031 43.357)" class="aS-cls-15 aS-cls-16">NA</text>	</g></g><g id="aSS_maryland_bridge_abutment_distal" style="">	<g>		<g>							<ellipse transform="matrix(0.1539 -0.9881 0.9881 0.1539 -23.6537 49.9275)" class="aS-cls-14" cx="17.3" cy="38.8" rx="12.7" ry="12.7" data-color-action="stroke" style="stroke:inherit" />			<line class="aS-cls-14" x1="10.3" y1="29.2" x2="24.3" y2="48.4" data-color-action="stroke" style="stroke:inherit" />		</g>		<text transform="matrix(1 0 0 1 6.7031 43.357)" class="aS-cls-15 aS-cls-16">NA</text>	</g></g><g id="aSS_maryland_bridge_abutment" style="">	<g>		<g>							<ellipse transform="matrix(0.1539 -0.9881 0.9881 0.1539 -23.6537 49.9275)" class="aS-cls-14" cx="17.3" cy="38.8" rx="12.7" ry="12.7" data-color-action="stroke" style="stroke:inherit" />			<line class="aS-cls-14" x1="10.3" y1="29.2" x2="24.3" y2="48.4" data-color-action="stroke" style="stroke:inherit" />		</g>		<text transform="matrix(1 0 0 1 6.7031 43.357)" class="aS-cls-15 aS-cls-16">NA</text>	</g></g><g id="aSS_bridge_abutment_mesial" style="">	<g>		<g>							<ellipse transform="matrix(0.1539 -0.9881 0.9881 0.1539 -23.6537 49.9275)" class="aS-cls-14" cx="17.3" cy="38.8" rx="12.7" ry="12.7" data-color-action="stroke" style="stroke:inherit" />			<line class="aS-cls-14" x1="10.3" y1="29.2" x2="24.3" y2="48.4" data-color-action="stroke" style="stroke:inherit" />		</g>		<text transform="matrix(1 0 0 1 6.7031 43.357)" class="aS-cls-15 aS-cls-16">NA</text>	</g></g><g id="aSS_bridge_abutment_distal" style="">	<g>		<g>							<ellipse transform="matrix(0.1539 -0.9881 0.9881 0.1539 -23.6537 49.9275)" class="aS-cls-14" cx="17.3" cy="38.8" rx="12.7" ry="12.7" data-color-action="stroke" style="stroke:inherit" />			<line class="aS-cls-14" x1="10.3" y1="29.2" x2="24.3" y2="48.4" data-color-action="stroke" style="stroke:inherit" />		</g>		<text transform="matrix(1 0 0 1 6.7031 43.357)" class="aS-cls-15 aS-cls-16">NA</text>	</g></g><g id="aSS_bridge_abutment" style="">	<g>		<g>							<ellipse transform="matrix(0.1539 -0.9881 0.9881 0.1539 -23.6537 49.9275)" class="aS-cls-14" cx="17.3" cy="38.8" rx="12.7" ry="12.7" data-color-action="stroke" style="stroke:inherit" />			<line class="aS-cls-14" x1="10.3" y1="29.2" x2="24.3" y2="48.4" data-color-action="stroke" style="stroke:inherit" />		</g>		<text transform="matrix(1 0 0 1 6.7031 43.357)" class="aS-cls-15 aS-cls-16">NA</text>	</g></g><g id="aSS_bridge_pontic" style="">	<g>		<g>							<ellipse transform="matrix(0.1539 -0.9881 0.9881 0.1539 -23.6537 49.9275)" class="aS-cls-14" cx="17.3" cy="38.8" rx="12.7" ry="12.7" data-color-action="stroke" style="stroke:inherit" />			<line class="aS-cls-14" x1="10.3" y1="29.2" x2="24.3" y2="48.4" data-color-action="stroke" style="stroke:inherit" />		</g>		<text transform="matrix(1 0 0 1 6.7031 43.357)" class="aS-cls-15 aS-cls-16">NA</text>	</g></g><g id="aSS_implant_mini" style="">	<g>		<g>							<ellipse transform="matrix(0.1539 -0.9881 0.9881 0.1539 -23.6537 49.9275)" class="aS-cls-14" cx="17.3" cy="38.8" rx="12.7" ry="12.7" data-color-action="stroke" style="stroke:inherit" />			<line class="aS-cls-14" x1="10.3" y1="29.2" x2="24.3" y2="48.4" data-color-action="stroke" style="stroke:inherit" />		</g>		<text transform="matrix(1 0 0 1 6.7031 43.357)" class="aS-cls-15 aS-cls-16">NA</text>	</g></g><g id="aSS_implant_cylinder" style="">	<g>		<g>							<ellipse transform="matrix(0.1539 -0.9881 0.9881 0.1539 -23.6537 49.9275)" class="aS-cls-14" cx="17.3" cy="38.8" rx="12.7" ry="12.7" data-color-action="stroke" style="stroke:inherit" />			<line class="aS-cls-14" x1="10.3" y1="29.2" x2="24.3" y2="48.4" data-color-action="stroke" style="stroke:inherit" />		</g>		<text transform="matrix(1 0 0 1 6.7031 43.357)" class="aS-cls-15 aS-cls-16">NA</text>	</g></g><g id="aSS_implant_blade" style="">	<g>		<g>							<ellipse transform="matrix(0.1539 -0.9881 0.9881 0.1539 -23.6537 49.9275)" class="aS-cls-14" cx="17.3" cy="38.8" rx="12.7" ry="12.7" data-color-action="stroke" style="stroke:inherit" />			<line class="aS-cls-14" x1="10.3" y1="29.2" x2="24.3" y2="48.4" data-color-action="stroke" style="stroke:inherit" />		</g>		<text transform="matrix(1 0 0 1 6.7031 43.357)" class="aS-cls-15 aS-cls-16">NA</text>	</g></g><g id="aSS_watch_tooth" style="">	<g>		<path class="aS-cls-13" d="M8.3,153.9c0-1.8,1.4-3.3,3.2-3.3c1.8,0,3.3,1.5,3.3,3.3c0,1.7-1.5,3.2-3.3,3.2    C9.7,157.1,8.3,155.6,8.3,153.9z M9.2,148l-0.8-18.1h6.2L13.7,148H9.2z" data-color-action="fill" style="fill:inherit" />	</g></g><g id="aSS_border" style="">	<rect transform="matrix(-1 8.977784e-11 -8.977784e-11 -1 59 161)" class="aS-cls-17" width="59" height="161" /></g></defs></g><g class="bS-cls-1" transform="translate(0 66)"><g id="_Sb">	<g>		<g>			<path class="bS-cls-2" d="M47.1,17.3c1,2.4,1.1,10,1.1,12.2s0.6,5.6-0.4,7.8c-1.1,2.2-4,5.9-5.7,6.8c-1.7,0.9-19.3,0.1-22.3-0.9     c-3-1-6.2-5.4-6.6-7c-0.4-1.7-1.9-6.5-1.5-8.1s-1.1-5.4-1.1-7.5c0-2.1,0.6-6,2.4-7.3c1.9-1.4,6.6-2.1,12.3-1.7     c5.9,0.4,7.8,2,11.2,2.5C42.2,15.1,46.2,15.2,47.1,17.3z" />			<path class="bS-cls-3" d="M47.1,17.3c1,2.4,1.1,10,1.1,12.2s0.6,5.6-0.4,7.8c-1.1,2.2-4,5.9-5.7,6.8c-1.7,0.9-19.3,0.1-22.3-0.9     c-3-1-6.2-5.4-6.6-7c-0.4-1.7-1.9-6.5-1.5-8.1s-1.1-5.4-1.1-7.5c0-2.1,0.6-6,2.4-7.3c1.9-1.4,6.6-2.1,12.3-1.7     c5.9,0.4,7.8,2,11.2,2.5C42.2,15.1,46.2,15.2,47.1,17.3z" />			<path class="bS-cls-4" d="M17.3,40.9c2.2,0.8,7.8,0.3,10.4,0.4c2.4,0.1,5.4,2.1,8.6,1.9c2.7-0.1,4.4,0.1,7.1-1.2c1-0.5,3.6-3.2,3-2.4     c-1.3,1.9-3.2,3.9-4.4,4.6c-1.7,0.9-19.3,0.1-22.3-0.9c-1.9-0.6-3.8-2.6-5.1-4.4C13.9,37.8,15.1,40.1,17.3,40.9z" />		</g>		<path class="bS-cls-5" d="M15.8,23.8c-0.3,0.6,1.1,0.7,2.8,1.1s1.9,1.1,0.4,3.2c-1.6,2.1-2.3,2.7-1.9,2.9c0.4,0.2,4.3-3.5,5.2-4.1    c0.8-0.7,3.8-0.3,4.7,0c0.9,0.3,2.4,0.3,1.9,1.8c-0.5,1.5-1.4,3.1-0.6,3.1c0.8,0.1,2.1-3.1,2.6-3.5s3.2,1.2,4.8,1.2    c1.6-0.1,4.5-0.7,5.7-0.6s1.1,2.8,1.9,2.6c0.8-0.1-0.1-2-0.2-2.6c-0.1-0.6,3.4-2.5,2.5-3.4c-1-0.9-2.9,2-3.6,2.2    c-0.7,0.2-5,0.3-5.7,0.1s1.7-5.4,0.8-5.1c-0.9,0.3-2.7,4.3-3.8,4.2c-1.1-0.1-5.3-1.9-7-2.1c-1.7-0.2-3.7,0.3-4.2-0.6    c-0.5-0.9-2.1-3.5-2.5-2.9c-0.3,0.6,0.9,2.6,0.2,2.6S16.2,23.1,15.8,23.8z" />		<path class="bS-cls-5" d="M47.1,17.3c-0.9-2.1-4.9-2.2-10.5-3.2c-3.4-0.6-5.3-2.1-11.2-2.5c-5.8-0.4-10.4,0.3-12.3,1.7    c-1.8,1.3-2.4,5.2-2.4,7.3c0,1.7,1,4.6,1.1,6.5c0.3-0.8,0.5-1.9,0.4-2.6c-0.2-1.3-0.8-3.7-0.2-5.7s0.6-3.4,2-4.1    c1.4-0.7,5-1.4,7.9-1.4c2.9,0.1,7.4,0.3,9.8,1.2c2.4,0.9,9.1,1.9,10.9,2.2c1.8,0.3,3.2,0,3.7,2.1c0.5,1.7,1.3,4.1,1.8,6.1    C48,22,47.7,18.7,47.1,17.3z" />	</g></g><defs><g id="bSS_cusp_1__x2013__pre_exisiting" style="">	<path class="bS-cls-6" d="M31.9,32.5l5,12.1c2.6,0,4.5-0.1,5-0.4c1.7-0.9,4.7-4.6,5.7-6.8c0.1-0.2,0.1-0.3,0.2-0.5L34.2,31   C33.6,31.6,32.8,32.2,31.9,32.5z" data-color-action="fill" style="fill:inherit" /></g><g id="bSS_groove_1" style="">	<path class="bS-cls-6" d="M30.2,32.8c-0.2,0-0.5,0-0.7,0L25,44c3.7,0.3,8.4,0.5,12,0.5l-5-12.1C31.4,32.6,30.8,32.8,30.2,32.8z" data-color-action="fill" style="fill:inherit" /></g><g id="bSS_cusp_2" style="">	<path class="bS-cls-6" d="M26.8,31.5L14,37.9c1.2,2,3.5,4.5,5.7,5.3c0.8,0.3,2.8,0.6,5.3,0.8l4.5-11.3C28.5,32.6,27.5,32.1,26.8,31.5z" data-color-action="fill" style="fill:inherit" /></g><g id="bSS_mesial" style="">	<path class="bS-cls-6" d="M48.4,33.7c0-1.5-0.2-3-0.2-4.2c0-1.8,0-7-0.6-10.3c-1.2,2.1-2.2,4.5-2.3,7.1C45.3,29.1,46.8,31.6,48.4,33.7z" data-color-action="fill" style="fill:inherit" /></g><g id="bSS_mesial_pit" style="">	<path class="bS-cls-6" d="M46.2,16.2l-12.4,5.3c1.3,1.2,2.1,2.9,2.1,4.9c0,1.8-0.7,3.4-1.7,4.5L48,36.8c0.3-0.9,0.4-2,0.4-3.1   c-1.6-2.2-3-4.6-3-7.4c0-2.6,1.1-5.1,2.3-7.1c-0.1-0.8-0.3-1.5-0.5-2C47,16.9,46.6,16.5,46.2,16.2z" data-color-action="fill" style="fill:inherit" /></g><g id="bSS_central_pit" style="">	<path class="bS-cls-6" d="M24.4,26.5c0,2.1,0.9,3.9,2.3,5c0.8,0.6,1.7,1.1,2.7,1.2c0.2,0,0.5,0,0.7,0c0.6,0,1.2-0.1,1.8-0.3   c0.8-0.3,1.6-0.8,2.2-1.5c1.1-1.1,1.7-2.7,1.7-4.5c0-2-0.8-3.7-2.1-4.9c-0.7-0.6-1.5-1.1-2.4-1.3c-0.4-0.1-0.8-0.1-1.2-0.1   c-0.5,0-0.9,0.1-1.4,0.2c-0.9,0.2-1.8,0.7-2.5,1.4v0C25.2,22.9,24.4,24.6,24.4,26.5z" data-color-action="fill" style="fill:inherit" /></g><g id="bSS_distal_pit" style="">	<path class="bS-cls-6" d="M24.4,26.5c0-1.9,0.7-3.5,1.9-4.7l-14.5-6.9c-0.5,1-0.8,2.2-1,3.4c1.4,2.5,2.8,5.9,2.9,8.6   c0.1,1.9-0.5,4.1-1.4,6.3c0.3,1.3,0.7,2.4,0.8,3.1c0.1,0.4,0.4,1.1,0.8,1.7l12.7-6.4C25.4,30.3,24.4,28.5,24.4,26.5z" data-color-action="fill" style="fill:inherit" /></g><g id="bSS_distal" style="">	<path class="bS-cls-6" d="M10.8,18.2c-0.1,0.9-0.2,1.7-0.2,2.3c0,2.1,1.5,5.9,1.1,7.5c-0.3,1,0.2,3.1,0.7,5.1c0.9-2.2,1.5-4.4,1.4-6.3   C13.6,24.1,12.2,20.7,10.8,18.2z" data-color-action="fill" style="fill:inherit" /></g><g id="bSS_cusp_3" style="">	<path class="bS-cls-6" d="M33.8,21.6l12.4-5.3c-1.7-1.1-5.1-1.3-9.6-2.1c-0.8-0.1-1.5-0.3-2.3-0.6l-3,6.7C32.3,20.5,33.1,20.9,33.8,21.6   z" data-color-action="fill" style="fill:inherit" /></g><g id="bSS_groove_2" style="">	<path class="bS-cls-6" d="M30.2,20.2c0.4,0,0.8,0,1.2,0.1l3-6.7c-2.3-0.7-4.4-1.6-8.8-2l3.3,8.8C29.3,20.2,29.7,20.2,30.2,20.2z" data-color-action="fill" style="fill:inherit" /></g><g id="bSS_cusp_4" style="">	<path class="bS-cls-6" d="M28.8,20.3l-3.3-8.8c0,0-0.1,0-0.1,0c-5.8-0.4-10.4,0.3-12.3,1.7c-0.5,0.4-0.9,0.9-1.2,1.6l14.5,6.9   C27.1,21.1,27.9,20.6,28.8,20.3z" data-color-action="fill" style="fill:inherit" /></g><g id="bSS_tipped_lingual" style=""></g><g id="bSS_tipped_facial" style=""></g><g id="bSS_surface_restoration_buccal" style="">	<path class="bS-cls-7" d="M40.4,40.4c-0.5,0.1-1.5,0.1-3.6,0.1c-6.6,0-14.4-0.7-15.8-1.1c-0.7-0.2-1.7-1.2-2.5-2.1l-3.3,2.4   c1.3,1.5,2.9,3,4.5,3.6c3,1,20.6,1.8,22.3,0.9c1.3-0.7,3.3-3,4.7-5.1l-3.2-2.4C42.6,38.1,41.2,39.8,40.4,40.4z" data-color-action="fill" style="fill:inherit" /></g><g id="bSS_surface_restoration_mesial" style="">	<path class="bS-cls-7" d="M48.2,29.5c0-2.3-0.1-9.9-1.1-12.2c-0.1-0.3-0.3-0.5-0.5-0.7l-2.9,3.8c0.2,1.7,0.5,4.7,0.5,9.2   c0,0.7,0,1.5,0.1,2.2c0.1,1.2,0.2,3.2-0.1,3.9c-0.2,0.3-0.4,0.7-0.6,1.1l3.2,2.4c0.4-0.6,0.8-1.2,1-1.8   C48.8,35.1,48.2,31.8,48.2,29.5z" data-color-action="fill" style="fill:inherit" /></g><g id="bSS_surface_restoration_occlusal" style="">	<path class="bS-cls-7" d="M44.2,29.5c0-5.4-0.3-8.8-0.6-10.1c-0.9-0.3-2.8-0.6-4.4-0.8c-1-0.1-2.1-0.3-3.2-0.5c-1.6-0.3-2.8-0.7-4.1-1.1   c-1.8-0.6-3.6-1.2-6.8-1.4c-1-0.1-2-0.1-2.9-0.1c-4.1,0-6.1,0.7-6.7,1c-0.4,0.6-0.9,2.5-0.9,4.1c0,0.4,0.3,1.7,0.5,2.5   c0.5,2.1,0.9,4,0.5,5.8c0,1.1,0.9,4.2,1.1,5.3c0.1,0.4,0.2,0.8,0.3,1c0.4,1.1,2.7,3.9,4,4.3c1.4,0.4,9.1,1.1,15.8,1.1   c2,0,3.1-0.1,3.6-0.1c1-0.8,3-3.3,3.8-4.8c0.3-0.7,0.2-2.7,0.1-3.9C44.2,31,44.2,30.2,44.2,29.5z" data-color-action="fill" style="fill:inherit" /></g><g id="bSS_surface_restoration_distal" style="">	<path class="bS-cls-7" d="M17,35.1c-0.1-0.3-0.2-0.6-0.3-1c-0.3-1-1.1-4.2-1.1-5.3c0.4-1.8,0-3.8-0.5-5.8c-0.2-0.8-0.5-2-0.5-2.5   c0-1.6,0.5-3.5,0.9-4.1c0.2-0.1,0.7-0.3,1.4-0.5l-2.7-3.3c-0.4,0.2-0.8,0.4-1.1,0.6c-1.8,1.3-2.4,5.2-2.4,7.3   c0,2.1,1.5,5.9,1.1,7.5c-0.4,1.6,1.1,6.5,1.5,8.1c0.2,0.8,1,2.1,2.1,3.5l3.3-2.4C17.8,36.5,17.2,35.6,17,35.1z" data-color-action="fill" style="fill:inherit" /></g><g id="bSS_surface_restoration_lingual" style="">	<path class="bS-cls-7" d="M22.2,15.5c0.9,0,1.9,0,2.9,0.1c3.2,0.2,4.9,0.8,6.8,1.4c1.2,0.4,2.5,0.8,4.1,1.1c1.1,0.2,2.2,0.4,3.2,0.5   c1.6,0.2,3.5,0.5,4.4,0.8c0,0.2,0.1,0.6,0.2,0.9l2.9-3.8c-1.5-1.4-5.1-1.6-10-2.4c-3.4-0.6-5.3-2.1-11.2-2.5   c-4.8-0.3-8.9,0.1-11.2,1.1l2.7,3.3C18,15.7,19.7,15.5,22.2,15.5z" data-color-action="fill" style="fill:inherit" /></g><g id="bSS_sub-erupted" style="">	<rect x="28" y="51.8" class="bS-cls-8" width="3" height="3" />	<rect x="28" y="51.8" class="bS-cls-8" width="3" height="3" />	<rect x="28" y="51.8" class="bS-cls-8" width="3" height="3" /></g><g id="bSS_sealant" style="">	<text transform="matrix(1 0 0 1 19.699 39.47)" class="bS-cls-9 bS-cls-10 bS-cls-11" data-color-action="fill" style="fill:inherit">S</text></g><g id="bSS_rotated_mesial" style=""></g><g id="bSS_rotated_distal" style=""></g><g id="bSS_root_canal" style="">	<rect x="28" y="51.8" class="bS-cls-8" width="3" height="3" />	<rect x="28" y="51.8" class="bS-cls-8" width="3" height="3" />	<rect x="28" y="51.8" class="bS-cls-8" width="3" height="3" /></g><g id="bSS_pins" style="">	<rect x="28" y="51.8" class="bS-cls-8" width="3" height="3" />	<rect x="28" y="51.8" class="bS-cls-8" width="3" height="3" />	<rect x="28" y="51.8" class="bS-cls-8" width="3" height="3" /></g><g id="bSS_mesial_drift" style=""></g><g id="bSS_distal_drift" style=""></g><g id="bSS_crown" style="">	<path class="bS-cls-13" d="M47.1,17.3c1,2.4,1.1,10,1.1,12.2s0.6,5.6-0.4,7.8c-1.1,2.2-4,5.9-5.7,6.8c-1.7,0.9-19.3,0.1-22.3-0.9   c-3-1-6.2-5.4-6.6-7c-0.4-1.7-1.9-6.5-1.5-8.1s-1.1-5.4-1.1-7.5c0-2.1,0.6-6,2.4-7.3c1.9-1.4,6.6-2.1,12.3-1.7   c5.9,0.4,7.8,2,11.2,2.5C42.2,15.1,46.2,15.2,47.1,17.3z" data-color-action="fill" style="fill:inherit" /></g><g id="bSS_cracked_surface_occlusal" style="">	<polyline class="bS-cls-14" points="30.8,33.2 27,29.3 32,29.3 27,24.6 32,24.6 28.2,20.8  " data-color-action="stroke" style="stroke:inherit" /></g><g id="bSS_chipped_surface_occlusal" style="">	<g>		<line class="bS-cls-14" x1="33.3" y1="31.5" x2="25" y2="23.2" data-color-action="stroke" style="stroke:inherit" />		<line class="bS-cls-14" x1="25" y1="31.5" x2="33.3" y2="23.2" data-color-action="stroke" style="stroke:inherit" />	</g></g><g id="bSS_abscess" style="">	<rect x="28" y="51.8" class="bS-cls-8" width="3" height="3" />	<rect x="28" y="51.8" class="bS-cls-8" width="3" height="3" />	<rect x="28" y="51.8" class="bS-cls-8" width="3" height="3" /></g><g id="bSS_missing_tooth" style="" data-name="missing tooth">	<g>		<g>			<path class="bS-cls-2" d="M47.1,17.3c1,2.4,1.1,10,1.1,12.2s0.6,5.6-0.4,7.8c-1.1,2.2-4,5.9-5.7,6.8c-1.7,0.9-19.3,0.1-22.3-0.9     c-3-1-6.2-5.4-6.6-7c-0.4-1.7-1.9-6.5-1.5-8.1s-1.1-5.4-1.1-7.5c0-2.1,0.6-6,2.4-7.3c1.9-1.4,6.6-2.1,12.3-1.7     c5.9,0.4,7.8,2,11.2,2.5C42.2,15.1,46.2,15.2,47.1,17.3z" data-color-action="fill,stroke" style="fill,stroke:inherit" />			<path class="bS-cls-12" d="M47.1,17.3c1,2.4,1.1,10,1.1,12.2s0.6,5.6-0.4,7.8c-1.1,2.2-4,5.9-5.7,6.8c-1.7,0.9-19.3,0.1-22.3-0.9     c-3-1-6.2-5.4-6.6-7c-0.4-1.7-1.9-6.5-1.5-8.1s-1.1-5.4-1.1-7.5c0-2.1,0.6-6,2.4-7.3c1.9-1.4,6.6-2.1,12.3-1.7     c5.9,0.4,7.8,2,11.2,2.5C42.2,15.1,46.2,15.2,47.1,17.3z" />			<path class="bS-cls-12" d="M17.3,40.9c2.2,0.8,7.8,0.3,10.4,0.4c2.4,0.1,5.4,2.1,8.6,1.9c2.7-0.1,4.4,0.1,7.1-1.2c1-0.5,3.6-3.2,3-2.4     c-1.3,1.9-3.2,3.9-4.4,4.6c-1.7,0.9-19.3,0.1-22.3-0.9c-1.9-0.6-3.8-2.6-5.1-4.4C13.9,37.8,15.1,40.1,17.3,40.9z" />		</g>		<path class="bS-cls-12" d="M15.8,23.8c-0.3,0.6,1.1,0.7,2.8,1.1s1.9,1.1,0.4,3.2c-1.6,2.1-2.3,2.7-1.9,2.9c0.4,0.2,4.3-3.5,5.2-4.1    c0.8-0.7,3.8-0.3,4.7,0c0.9,0.3,2.4,0.3,1.9,1.8c-0.5,1.5-1.4,3.1-0.6,3.1c0.8,0.1,2.1-3.1,2.6-3.5s3.2,1.2,4.8,1.2    c1.6-0.1,4.5-0.7,5.7-0.6s1.1,2.8,1.9,2.6c0.8-0.1-0.1-2-0.2-2.6c-0.1-0.6,3.4-2.5,2.5-3.4c-1-0.9-2.9,2-3.6,2.2    c-0.7,0.2-5,0.3-5.7,0.1s1.7-5.4,0.8-5.1c-0.9,0.3-2.7,4.3-3.8,4.2c-1.1-0.1-5.3-1.9-7-2.1c-1.7-0.2-3.7,0.3-4.2-0.6    c-0.5-0.9-2.1-3.5-2.5-2.9c-0.3,0.6,0.9,2.6,0.2,2.6S16.2,23.1,15.8,23.8z" />		<path class="bS-cls-12" d="M47.1,17.3c-0.9-2.1-4.9-2.2-10.5-3.2c-3.4-0.6-5.3-2.1-11.2-2.5c-5.8-0.4-10.4,0.3-12.3,1.7    c-1.8,1.3-2.4,5.2-2.4,7.3c0,1.7,1,4.6,1.1,6.5c0.3-0.8,0.5-1.9,0.4-2.6c-0.2-1.3-0.8-3.7-0.2-5.7s0.6-3.4,2-4.1    c1.4-0.7,5-1.4,7.9-1.4c2.9,0.1,7.4,0.3,9.8,1.2c2.4,0.9,9.1,1.9,10.9,2.2c1.8,0.3,3.2,0,3.7,2.1c0.5,1.7,1.3,4.1,1.8,6.1    C48,22,47.7,18.7,47.1,17.3z" />	</g></g><g id="bSS_watch_tooth" style=""></g><g id="bSS_border" style="">	<rect y="0" class="bS-cls-8" width="59" height="56" />	<rect x="0" y="0" transform="matrix(-1 3.807520e-11 -3.807520e-11 -1 59 56)" class="bS-cls-8" width="59" height="56" /></g></defs></g><g class="cS-cls-1"><g id="_Sc">	<g>		<g>			<path class="cS-cls-2" d="M44.7,32.1c1.6,2.6,2.7,9.7,2.9,12.1c0.2,2.3-0.8,8.1-3.4,9.2c-2.9,1.2-11.4,1-13.1-0.1     c-1.7-1-2.5-0.9-3.2-0.4c-0.9,0.7-6.5,1.8-11.2,1s-5.5-5.3-5.4-9.2c0.1-3.9,1.4-11.6,2.3-13.2C14.7,29.8,42.8,29,44.7,32.1z" />		</g>		<g>			<path class="cS-cls-3" d="M44.7,32.1c1.6,2.6,2.7,9.7,2.9,12.1c0.2,2.3-0.8,8.1-3.4,9.2c-2.9,1.2-11.4,1-13.1-0.1     c-1.7-1-2.5-0.9-3.2-0.4c-0.9,0.7-6.5,1.8-11.2,1s-5.5-5.3-5.4-9.2c0.1-3.9,1.4-11.6,2.3-13.2C14.7,29.8,42.8,29,44.7,32.1z" />		</g>		<path class="cS-cls-4" d="M28.6,49.6c-1.2,0.1-1.6-1.3-1.5-2c0.1-0.6,0.3-1.6,0.8-1.6c0.5,0,0.9,0.9,1.1,1.7S29.4,49.5,28.6,49.6z" />		<path class="cS-cls-5" d="M16.8,53.9c4.7,0.8,10.3-0.3,11.2-1c0.7-0.5,1.5-0.6,3.2,0.4c1.7,1,10.2,1.3,13.1,0.1    c1.4-0.6,2.3-2.5,2.8-4.5c-0.9,1.3-2,2.4-2.8,2.7c-1.2,0.5-3.8,0.7-7,0.7s-5.9-1.1-7.4-1.6c-1.5-0.6-2.4,0.5-4.5,1.2    c-2.1,0.7-7.3,0.6-10.8-0.1c-1.7-0.3-2.5-1.9-3-3.7C12,50.8,13.4,53.3,16.8,53.9z" />		<path class="cS-cls-4" d="M36.4,32.8c3.8,0.3,7.7,1.1,9.3,1.5c-0.3-0.9-0.6-1.7-1-2.2c-1.9-3.1-30.1-2.3-31-0.6    c-0.2,0.4-0.5,1.2-0.8,2.3c1.5-0.4,3.8-1,6.3-1C23.4,32.8,31.4,32.4,36.4,32.8z" />	</g></g><defs><g id="cSS_mesial" style="">	<path class="cS-cls-6" d="M46.3,51l-2.8-4.3c0.2-0.8,0.3-1.7,0.4-2.5c0.3-2.1,1.6-3.3,3.1-4.1c0.3,1.7,0.5,3.1,0.6,4   C47.8,45.7,47.4,48.8,46.3,51z" data-color-action="fill" style="fill:inherit" /></g><g id="cSS_line_angle_4" style="">	<path class="cS-cls-6" d="M44.2,53.4c-1.6,0.7-4.7,0.9-7.6,0.8l-1-4.6c0.8,0.3,1.7,0.6,3,0.6c3.2,0.1,4.4-1.6,4.9-3.5l2.8,4.3   C45.8,52.1,45.1,53,44.2,53.4z" data-color-action="fill" style="fill:inherit" /></g><g id="cSS_groove_2" style="">	<path class="cS-cls-6" d="M31.1,53.3c-1.7-1-2.5-0.9-3.2-0.4c-0.5,0.4-2.3,0.9-4.7,1.1l1.2-4.9c2.1-0.8,3.7-2.1,5.9-2   c2.4,0.1,3.2,1.6,5.2,2.4l1,4.6C34.1,54.1,31.9,53.8,31.1,53.3z" data-color-action="fill" style="fill:inherit" /></g><g id="cSS_line_angle_3" style="">	<path class="cS-cls-6" d="M16.8,53.9c-2-0.3-3.2-1.3-4.1-2.7l3.3-4.6c1,1.9,2.3,3.2,4.3,3.2c1.6,0.1,3-0.3,4.1-0.8L23.3,54   C21.3,54.2,18.9,54.3,16.8,53.9z" data-color-action="fill" style="fill:inherit" /></g><g id="cSS_distal" style="">	<path class="cS-cls-6" d="M14.4,42.2c0.5,1.7,1,3.2,1.6,4.4l-3.3,4.6c-1.2-1.8-1.4-4.3-1.4-6.6c0-1.4,0.2-3.2,0.5-5.2   C13,40,14.1,40.9,14.4,42.2z" data-color-action="fill" style="fill:inherit" /></g><g id="cSS_lingual_pit" style="">	<ellipse class="cS-cls-6" cx="29.6" cy="40" rx="3.4" ry="5.6" data-color-action="fill" style="fill:inherit" /></g><g id="cSS_lingual_V" style="">	<path class="cS-cls-6" d="M19.5,30.4c5.8-0.5,14.6-0.5,20.1,0.1c-3.1,1.3-6.5,2-10,2C26.1,32.5,22.7,31.7,19.5,30.4z" data-color-action="fill" style="fill:inherit" /></g><g id="cSS_tipped_lingual" style="">	<g>		<path class="cS-cls-7" d="M31.4,57c-1.2,3.2-4.5,3.6-7.2-5c-0.5-1.5-4.2-1.7-3.6,0c1.9,5.7,5,9.6,8.5,8.7c1.2-0.3,2.3-1.6,2.8-3.2    C31.7,57.4,31.5,57.1,31.4,57z" data-color-action="fill" style="fill:inherit" />		<polygon class="cS-cls-7" points="29.4,54.2 17.2,54.2 20,45.2   " data-color-action="fill" style="fill:inherit" />	</g></g><g id="cSS_tipped_facial" style=""></g><g id="cSS_surface_restoration_occlusal" style="">	<path class="cS-cls-8" d="M44.3,53.4c-2.9,1.2-11.4,1-13.1-0.1c-1.7-1-2.5-0.9-3.2-0.4c-0.9,0.7-6.5,1.8-11.2,1   c-1.4-0.2-2.5-0.8-3.3-1.6l5-5.4c0,0.1,0,0.1,0,0.2c0.6,0.1,1.2,0.1,1.9,0.1c1.9,0,3.5-0.3,4.2-0.5c1.3-0.8,2.8-1.2,4.4-1.2   c2.1,0,3.8,0.7,5.1,1.4c0.6,0.1,1.9,0.3,3.7,0.3c0.9,0,1.7,0,2.2-0.1l4.5,6.1C44.6,53.3,44.5,53.4,44.3,53.4z" data-color-action="fill" style="fill:inherit" /></g><g id="cSS_surface_restoration_mesial" style="">	<path class="cS-cls-8" d="M44.7,53.2l-4.5-6.1c0.1,0,0.2,0,0.3,0c0.2-0.8,0.4-1.8,0.3-2.3c-0.1-1.2-0.2-6.3-0.3-10.6   c1.3,2.9,3.8,5.2,6.8,6.3c0.3,1.6,0.4,3,0.5,3.8C47.9,46.4,47,51.7,44.7,53.2z" data-color-action="fill" style="fill:inherit" /></g><g id="cSS_surface_restoration_lingual" style="">	<g>		<path class="cS-cls-8" d="M39.8,32.4c0.2,0.6,0.4,1.2,0.6,1.8c0.2,4.4,0.2,9.4,0.3,10.6c0,0.5-0.1,1.5-0.3,2.3    c-0.6,0.1-1.5,0.1-2.5,0.1c-1.8,0-3.1-0.1-3.7-0.3c-1.3-0.7-3-1.4-5.1-1.4c-1.6,0-3,0.4-4.4,1.2c-0.7,0.2-2.3,0.5-4.2,0.5    c-0.7,0-1.3,0-1.9-0.1c-0.1-0.4-0.2-1.1-0.1-2.2c0-1.4,0.6-7.7,1.1-12.2c0,0,0,0,0-0.1c3,1.5,6.3,2.4,9.9,2.4    C33.2,35.1,36.8,34.1,39.8,32.4z" data-color-action="fill" style="fill:inherit" />			</g></g><g id="cSS_surface_restoration_lingual_V" style="">	<g>				<path class="cS-cls-8" d="M39.5,30.5c0.1,0.6,0.2,1.3,0.3,1.9c-3.1,1.7-6.6,2.6-10.4,2.6c-3.6,0-6.9-0.9-9.9-2.4    c0.3-0.7,0.6-1.5,0.8-2.3C26,29.9,34.2,29.9,39.5,30.5z" data-color-action="fill" style="fill:inherit" />	</g></g><g id="cSS_surface_restoration_distal" style="">	<path class="cS-cls-8" d="M11.5,44.7c0-1.5,0.3-3.6,0.6-5.7c3.3-0.9,6.1-3.2,7.5-6.3c-0.5,4.5-1,10.8-1.1,12.2c0,1,0,1.6,0.1,2l-5,5.4   C11.8,50.4,11.4,47.4,11.5,44.7z" data-color-action="fill" style="fill:inherit" /></g><g id="cSS_sub-erupted" style=""></g><g id="cSS_rotated_mesial" style=""></g><g id="cSS_rotate_distal" style=""></g><g id="cSS_root_canal" style=""></g><g id="cSS_pins" style=""></g><g id="cSS_mesial_drift" style=""></g><g id="cSS_distal_drift" style=""></g><g id="cSS_crown" style="">	<path class="cS-cls-10" d="M44.7,32.1c1.6,2.6,2.7,9.7,2.9,12.1c0.2,2.3-0.8,8.1-3.4,9.2c-2.9,1.2-11.4,1-13.1-0.1   c-1.7-1-2.5-0.9-3.2-0.4c-0.9,0.7-6.5,1.8-11.2,1s-5.5-5.3-5.4-9.2c0.1-3.9,1.4-11.6,2.3-13.2C14.7,29.8,42.8,29,44.7,32.1z" data-color-action="fill" style="fill:inherit" /></g><g id="cSS_cracked_surface_distal" style="">	<polyline class="cS-cls-11" points="16.7,48.2 12.8,44.4 17.8,44.4 12.8,39.6 17.8,39.6 14,35.8  " data-color-action="stroke" style="stroke:inherit" /></g><g id="cSS_cracked_surface_lingual" style="">	<polyline class="cS-cls-11" points="30.8,48.2 27,44.4 32,44.4 27,39.6 32,39.6 28.2,35.8  " data-color-action="stroke" style="stroke:inherit" /></g><g id="cSS_cracked_surface_lingual_V" style="">	<polyline class="cS-cls-11" points="30.8,48.2 27,44.4 32,44.4 27,39.6 32,39.6 28.2,35.8  " data-color-action="stroke" style="stroke:inherit" /></g><g id="cSS_cracked_surface_mesial" style="">	<polyline class="cS-cls-11" points="45.7,48.2 41.8,44.4 46.8,44.4 41.8,39.6 46.8,39.6 43,35.8  " data-color-action="stroke" style="stroke:inherit" /></g><g id="cSS_chipped_surface_distal" style="">	<g>		<line class="cS-cls-11" x1="20.2" y1="46.5" x2="11.8" y2="38.2" data-color-action="stroke" style="stroke:inherit" />		<line class="cS-cls-11" x1="11.8" y1="46.5" x2="20.2" y2="38.2" data-color-action="stroke" style="stroke:inherit" />	</g></g><g id="cSS_chipped_surface_lingual" style="">	<g>		<line class="cS-cls-11" x1="33.3" y1="46.5" x2="25" y2="38.2" data-color-action="stroke" style="stroke:inherit" />		<line class="cS-cls-11" x1="25" y1="46.5" x2="33.3" y2="38.2" data-color-action="stroke" style="stroke:inherit" />	</g></g><g id="cSS_chipped_surface_lingual_V" style="">	<g>		<line class="cS-cls-11" x1="33.3" y1="46.5" x2="25" y2="38.2" data-color-action="stroke" style="stroke:inherit" />		<line class="cS-cls-11" x1="25" y1="46.5" x2="33.3" y2="38.2" data-color-action="stroke" style="stroke:inherit" />	</g></g><g id="cSS_chipped_surface_mesial" style="">	<g>		<line class="cS-cls-11" x1="47.3" y1="46.5" x2="39" y2="38.2" data-color-action="stroke" style="stroke:inherit" />		<line class="cS-cls-11" x1="39" y1="46.5" x2="47.3" y2="38.2" data-color-action="stroke" style="stroke:inherit" />	</g></g><g id="cSS_abscess" style=""></g><g id="cSS_missing_tooth" style="" data-name="missing tooth">	<g>		<g>			<path class="cS-cls-2" d="M44.7,32.1c1.6,2.6,2.7,9.7,2.9,12.1c0.2,2.3-0.8,8.1-3.4,9.2c-2.9,1.2-11.4,1-13.1-0.1     c-1.7-1-2.5-0.9-3.2-0.4c-0.9,0.7-6.5,1.8-11.2,1s-5.5-5.3-5.4-9.2c0.1-3.9,1.4-11.6,2.3-13.2C14.7,29.8,42.8,29,44.7,32.1z" data-color-action="fill,stroke" style="fill,stroke:inherit" />		</g>		<g>			<path class="cS-cls-9" d="M44.7,32.1c1.6,2.6,2.7,9.7,2.9,12.1c0.2,2.3-0.8,8.1-3.4,9.2c-2.9,1.2-11.4,1-13.1-0.1     c-1.7-1-2.5-0.9-3.2-0.4c-0.9,0.7-6.5,1.8-11.2,1s-5.5-5.3-5.4-9.2c0.1-3.9,1.4-11.6,2.3-13.2C14.7,29.8,42.8,29,44.7,32.1z" />		</g>		<path class="cS-cls-9" d="M28.6,49.6c-1.2,0.1-1.6-1.3-1.5-2c0.1-0.6,0.3-1.6,0.8-1.6c0.5,0,0.9,0.9,1.1,1.7S29.4,49.5,28.6,49.6z" />		<path class="cS-cls-9" d="M16.8,53.9c4.7,0.8,10.3-0.3,11.2-1c0.7-0.5,1.5-0.6,3.2,0.4c1.7,1,10.2,1.3,13.1,0.1    c1.4-0.6,2.3-2.5,2.8-4.5c-0.9,1.3-2,2.4-2.8,2.7c-1.2,0.5-3.8,0.7-7,0.7s-5.9-1.1-7.4-1.6c-1.5-0.6-2.4,0.5-4.5,1.2    c-2.1,0.7-7.3,0.6-10.8-0.1c-1.7-0.3-2.5-1.9-3-3.7C12,50.8,13.4,53.3,16.8,53.9z" />		<path class="cS-cls-9" d="M36.4,32.8c3.8,0.3,7.7,1.1,9.3,1.5c-0.3-0.9-0.6-1.7-1-2.2c-1.9-3.1-30.1-2.3-31-0.6    c-0.2,0.4-0.5,1.2-0.8,2.3c1.5-0.4,3.8-1,6.3-1C23.4,32.8,31.4,32.4,36.4,32.8z" />	</g></g><g id="cSS_watch_tooth" style=""></g><g id="cSS_border" style="">	<rect transform="matrix(-1 8.977784e-11 -8.977784e-11 -1 59 66)" class="cS-cls-12" width="59" height="66" /></g></defs></g></svg>