<svg xmlns="http://www.w3.org/2000/svg" viewBox="0 0 59 283"><defs><style>.a21-cls-1{isolation:isolate}.a21-cls-2,.a21-cls-25{fill:#c5c7c9}.a21-cls-25{stroke:none}.a21-cls-2{stroke:#c5c7c9;stroke-width:5px}.a21-cls-19,.a21-cls-2,.a21-cls-22,.a21-cls-24,.a21-cls-26,.a21-cls-27,.a21-cls-30,.a21-cls-32,.a21-cls-33{stroke-miterlimit:10}.a21-cls-3{fill:#f5d7cf;stroke:none}.a21-cls-4,.a21-cls-5{fill:#f2c6bc;stroke:none}.a21-cls-5{fill:#fae8e3}.a21-cls-6,.a21-cls-7{fill:#eeefef;stroke:none}.a21-cls-7{fill:#e2e3e4}.a21-cls-8,.a21-cls-9{fill:#fbfbfb;stroke:none}.a21-cls-9{font-size:15px;fill:#929497;font-family:ProximaNova-Semibold,Proxima Nova,sans-serif;font-weight:700}.a21-cls-10,.a21-cls-28,.a21-cls-36{fill:#3c3d3d;stroke:none}.a21-cls-10{opacity:.55}.a21-cls-11{fill:#ffd403;stroke:none}.a21-cls-13,.a21-cls-21{fill:#ffef3e;stroke:none}.a21-cls-14,.a21-cls-20{fill:#c52636;stroke:none}.a21-cls-15{fill:none;stroke:none}.a21-cls-19,.a21-cls-22,.a21-cls-24,.a21-cls-26,.a21-cls-27,.a21-cls-30,.a21-cls-32,.a21-cls-33{fill:none}.a21-cls-16,.a21-cls-37{fill:#28418b;stroke:none}.a21-cls-17,.a21-cls-18{fill:#787878;stroke:none}.a21-cls-19,.a21-cls-22,.a21-cls-24,.a21-cls-30,.a21-cls-32,.a21-cls-33{stroke:#c52636}.a21-cls-19,.a21-cls-22,.a21-cls-27{stroke-width:2px}.a21-cls-22{stroke-linecap:round}.a21-cls-23{fill:#fff;stroke:none}.a21-cls-26,.a21-cls-27{stroke:#28418b}.a21-cls-26{stroke-width:3px}.a21-cls-29{opacity:.6}.a21-cls-30{stroke-width:4px}.a21-cls-31{fill:#f05b85;stroke:none}.a21-cls-32,.a21-cls-33{stroke-width:1.25px}.a21-cls-34{fill:#9b9999;stroke:none}.a21-cls-35{fill:#dbdbdc;stroke:none}.b21-cls-1{isolation:isolate}.b21-cls-2{fill:#c5c7c9;stroke:#c5c7c9;stroke-width:5px}.b21-cls-17,.b21-cls-18,.b21-cls-2{stroke-miterlimit:10}.b21-cls-3,.b21-cls-4{fill:#eeefef;stroke:none}.b21-cls-4{fill:#e2e3e4}.b21-cls-5,.b21-cls-6{fill:#fcfcfc;stroke:none}.b21-cls-6{fill:#e0e0e0}.b21-cls-15,.b21-cls-7{fill:#3c3d3d;stroke:none}.b21-cls-7{opacity:.55}.b21-cls-17,.b21-cls-18{fill:none}.b21-cls-8{fill:none;stroke:none}.b21-cls-14,.b21-cls-9{fill:#787878;stroke:none}.b21-cls-10{font-size:33px;fill:#28418b;font-family:ProximaNova-Semibold,Proxima Nova,sans-serif;font-weight:700;stroke:none}.b21-cls-11{fill:#fff;stroke:none}.b21-cls-13{fill:#c52636;stroke:none}.b21-cls-16{fill:#ffef3e;stroke:none}.b21-cls-17,.b21-cls-18{stroke:#c52636;stroke-width:1.25px}.c21-cls-1{isolation:isolate}.c21-cls-16,.c21-cls-2{fill:#c5c7c9;stroke:none}.c21-cls-2{stroke:#c5c7c9;stroke-width:5px}.c21-cls-2,.c21-cls-20,.c21-cls-21{stroke-miterlimit:10}.c21-cls-3{fill:#eeefef;stroke:none}.c21-cls-4,.c21-cls-5{fill:#e2e3e4;stroke:none}.c21-cls-5{fill:#fbfbfb}.c21-cls-17,.c21-cls-6{fill:#3c3d3d;stroke:none}.c21-cls-6{opacity:.55}.c21-cls-20,.c21-cls-21{fill:none}.c21-cls-7,.c21-cls-9{fill:none;stroke:none}.c21-cls-9{fill:#28418b}.c21-cls-10,.c21-cls-11{fill:#787878;stroke:none}.c21-cls-12,.c21-cls-19{fill:#ffef3e;stroke:none}.c21-cls-13{fill:#fff;stroke:none}.c21-cls-14,.c21-cls-15{fill:#c52636;stroke:none}.c21-cls-18{opacity:.6}.c21-cls-20,.c21-cls-21{stroke:#c52636;stroke-width:1.25px}.a21-msng-cls-1{isolation:isolate}.a21-msng-cls-2{fill:#c5c7c9;stroke:#c5c7c9;stroke-width:5px}.a21-msng-cls-11,.a21-msng-cls-2{stroke-miterlimit:10}.a21-msng-cls-3{fill:#f5d7cf;stroke:none}.a21-msng-cls-4{fill:#f2c6bc;stroke:none}.a21-msng-cls-5{fill:#fae8e3;stroke:none}.a21-msng-cls-6{fill:#eeefef;stroke:none}.a21-msng-cls-7{fill:#e2e3e4;stroke:none}.a21-msng-cls-8{fill:#fbfbfb;stroke:none}.a21-msng-cls-9{font-size:15px;fill:#929497;font-family:ProximaNova-Semibold,Proxima Nova;font-weight:700;stroke:none}.a21-msng-cls-11{fill:none}.a21-msng-cls-12{fill:none;stroke:none}.a21-msng-cls-11{stroke:#787878;stroke-width:6.25px}</style></defs><g class="a21-cls-1" transform="translate(0 122)"><g id="_21A" data-name="#21A"><path d="M27.25 9.08c-1.92 0-9.09 5.64-12.55 9.09-2.57 2.57-1.08 7.85.64 11.91 1.79 4.23 3.71 8.77 4.48 10.37a1.76 1.76 0 0 0 .49.6c0 4.93-.67 17.15.12 25.66C22 84 26 96.18 28.57 101.85c2 4.29 3.7 2.1 3.82-3.08s.8-21.7 1.36-31.07a243.21 243.21 0 0 1 3.72-27.47.55.55 0 0 0 .16-.16c.64-1.28 2.06-5 3.07-7.43 1.28-3.07 5.12-10.25 5-12.29S29.17 9.08 27.25 9.08z" class="a21-cls-2"/><path d="M20.31 40c.07 3.95-.73 17.53.12 26.75C22 84 26 96.18 28.57 101.85c2 4.29 3.7 2.1 3.82-3.08s.8-21.7 1.36-31.07c.74-12.45 3.58-26.38 4.07-29.46S20.18 33.31 20.31 40z" class="a21-cls-3"/><path d="M21.92 55.48c0-8.25 0-12.19.18-14.7a3.43 3.43 0 0 0-1.32-2.55 3.1 3.1 0 0 0-.47 1.77c.07 3.95-.73 17.53.12 26.75a133.41 133.41 0 0 0 5.43 28c-.78-3.82-1.62-8.35-2.14-12.14a241.83 241.83 0 0 1-1.8-27.13zM37.59 39.53l-1.5.17s-2 10-2.87 18.1S31.6 78.42 32 83.26c.16 2.1.45 4.61.73 6.78.28-7.07.69-16.22 1.06-22.34.62-11.16 2.96-23.51 3.8-28.17z" class="a21-cls-4"/><path d="M30.25 41.46c-.54 2.9-1.17 3.8-1.75 18.85s.58 40.32 1.75 40.32c.46 0-.29-26.59.29-34.92s2.34-22.06 2.63-24.25-2.04-4.67-2.92 0z" class="a21-cls-5"/><path d="M19.82 40.46c-.77-1.61-2.69-6.15-4.48-10.37-1.72-4.07-3.21-9.34-.64-11.91 3.46-3.46 10.63-9.09 12.55-9.09s18.31 9.21 18.44 11.26-3.71 9.22-5 12.29c-1 2.44-2.43 6.15-3.07 7.43s-16.14 3.85-17.8.39z" class="a21-cls-6"/><path d="M19 32.09c-1.63-4.75-3.32-11.37-1.54-14.82.47-.91 1.05-1.95 1.7-3-1.67 1.36-3.26 2.77-4.42 3.94-2.57 2.57-1.08 7.85.64 11.91 1.79 4.23 3.71 8.77 4.48 10.37a3.45 3.45 0 0 0 2.53 1.43c-.8-2.15-2.12-6-3.39-9.83zM38.93 15c1.87 2.3 3.2 4.29 3.16 5.17-.11 2.66-3.62 11.31-4.74 14.74-.62 1.88-1.39 4.36-2 6.08 1.25-.32 2.1-.66 2.23-.94.64-1.28 2.06-5 3.07-7.43 1.28-3.07 5.12-10.25 5-12.29-.02-.86-3.09-3.07-6.72-5.33z" class="a21-cls-7"/><path d="M32.1 11.16c0 3.66.11 9.3-.17 14.95A127.29 127.29 0 0 1 29.83 42c.89-.09 1.76-.21 2.58-.35a125.94 125.94 0 0 0 3.29-15.88c.27-3.14.55-8.44.63-12.3-1.46-.84-2.92-1.63-4.23-2.31z" class="a21-cls-8"/><text class="a21-cls-9" transform="translate(22.19 150.74)">21</text></g><defs><g id="a21_bone_graft" data-name="bone graft"><path d="M2 40.33h55v97.36H2z" class="a21-cls-16" transform="rotate(-180 29.5 89.01)" data-color-action="fill" style="fill:inherit"/><path d="M27.25 9.08c-1.92 0-9.09 5.64-12.55 9.09-2.57 2.57-1.08 7.85.64 11.91 1.79 4.23 3.71 8.77 4.48 10.37a1.76 1.76 0 0 0 .49.6c0 4.93-.67 17.15.12 25.66C22 84 26 96.18 28.57 101.85c2 4.29 3.7 2.1 3.82-3.08s.8-21.7 1.36-31.07a243.21 243.21 0 0 1 3.72-27.47.55.55 0 0 0 .16-.16c.64-1.28 2.06-5 3.07-7.43 1.28-3.07 5.12-10.25 5-12.29S29.17 9.08 27.25 9.08z" class="a21-cls-2"/><path d="M20.31 40c.07 3.95-.73 17.53.12 26.75C22 84 26 96.18 28.57 101.85c2 4.29 3.7 2.1 3.82-3.08s.8-21.7 1.36-31.07c.74-12.45 3.58-26.38 4.07-29.46S20.18 33.31 20.31 40z" class="a21-cls-3"/><path d="M21.92 55.48c0-8.25 0-12.19.18-14.7a3.43 3.43 0 0 0-1.32-2.55 3.1 3.1 0 0 0-.47 1.77c.07 3.95-.73 17.53.12 26.75a133.41 133.41 0 0 0 5.43 28c-.78-3.82-1.62-8.35-2.14-12.14a241.83 241.83 0 0 1-1.8-27.13zM37.59 39.53l-1.5.17s-2 10-2.87 18.1S31.6 78.42 32 83.26c.16 2.1.45 4.61.73 6.78.28-7.07.69-16.22 1.06-22.34.62-11.16 2.96-23.51 3.8-28.17z" class="a21-cls-4"/><path d="M30.25 41.46c-.54 2.9-1.17 3.8-1.75 18.85s.58 40.32 1.75 40.32c.46 0-.29-26.59.29-34.92s2.34-22.06 2.63-24.25-2.04-4.67-2.92 0z" class="a21-cls-5"/><path d="M19.82 40.46c-.77-1.61-2.69-6.15-4.48-10.37-1.72-4.07-3.21-9.34-.64-11.91 3.46-3.46 10.63-9.09 12.55-9.09s18.31 9.21 18.44 11.26-3.71 9.22-5 12.29c-1 2.44-2.43 6.15-3.07 7.43s-16.14 3.85-17.8.39z" class="a21-cls-6"/><path d="M19 32.09c-1.63-4.75-3.32-11.37-1.54-14.82.47-.91 1.05-1.95 1.7-3-1.67 1.36-3.26 2.77-4.42 3.94-2.57 2.57-1.08 7.85.64 11.91 1.79 4.23 3.71 8.77 4.48 10.37a3.45 3.45 0 0 0 2.53 1.43c-.8-2.15-2.12-6-3.39-9.83zM38.93 15c1.87 2.3 3.2 4.29 3.16 5.17-.11 2.66-3.62 11.31-4.74 14.74-.62 1.88-1.39 4.36-2 6.08 1.25-.32 2.1-.66 2.23-.94.64-1.28 2.06-5 3.07-7.43 1.28-3.07 5.12-10.25 5-12.29-.02-.86-3.09-3.07-6.72-5.33z" class="a21-cls-7"/><path d="M32.1 11.16c0 3.66.11 9.3-.17 14.95A127.29 127.29 0 0 1 29.83 42c.89-.09 1.76-.21 2.58-.35a125.94 125.94 0 0 0 3.29-15.88c.27-3.14.55-8.44.63-12.3-1.46-.84-2.92-1.63-4.23-2.31z" class="a21-cls-8"/></g><g id="a21_splinted_crowns" data-name="splinted crowns"><path d="M2 39.75h55v7.67H2z" class="a21-cls-21" transform="rotate(-180 29.5 43.585)" data-color-action="fill" style="fill:inherit"/><path d="M27.25 9.08c-1.92 0-9.09 5.64-12.55 9.09-2.57 2.57-1.08 7.85.64 11.91 1.79 4.23 3.71 8.77 4.48 10.37a1.76 1.76 0 0 0 .49.6c0 4.93-.67 17.15.12 25.66C22 84 26 96.18 28.57 101.85c2 4.29 3.7 2.1 3.82-3.08s.8-21.7 1.36-31.07a243.21 243.21 0 0 1 3.72-27.47.55.55 0 0 0 .16-.16c.64-1.28 2.06-5 3.07-7.43 1.28-3.07 5.12-10.25 5-12.29S29.17 9.08 27.25 9.08z" class="a21-cls-2"/><path d="M20.31 40c.07 3.95-.73 17.53.12 26.75C22 84 26 96.18 28.57 101.85c2 4.29 3.7 2.1 3.82-3.08s.8-21.7 1.36-31.07c.74-12.45 3.58-26.38 4.07-29.46S20.18 33.31 20.31 40z" class="a21-cls-3"/><path d="M21.92 55.48c0-8.25 0-12.19.18-14.7a3.43 3.43 0 0 0-1.32-2.55 3.1 3.1 0 0 0-.47 1.77c.07 3.95-.73 17.53.12 26.75a133.41 133.41 0 0 0 5.43 28c-.78-3.82-1.62-8.35-2.14-12.14a241.83 241.83 0 0 1-1.8-27.13zM37.59 39.53l-1.5.17s-2 10-2.87 18.1S31.6 78.42 32 83.26c.16 2.1.45 4.61.73 6.78.28-7.07.69-16.22 1.06-22.34.62-11.16 2.96-23.51 3.8-28.17z" class="a21-cls-4"/><path d="M30.25 41.46c-.54 2.9-1.17 3.8-1.75 18.85s.58 40.32 1.75 40.32c.46 0-.29-26.59.29-34.92s2.34-22.06 2.63-24.25-2.04-4.67-2.92 0z" class="a21-cls-5"/><path d="M19.82 40.46c-.77-1.61-2.69-6.15-4.48-10.37-1.72-4.07-3.21-9.34-.64-11.91 3.46-3.46 10.63-9.09 12.55-9.09s18.31 9.21 18.44 11.26-3.71 9.22-5 12.29c-1 2.44-2.43 6.15-3.07 7.43s-16.14 3.85-17.8.39z" class="a21-cls-6"/><path d="M19 32.09c-1.63-4.75-3.32-11.37-1.54-14.82.47-.91 1.05-1.95 1.7-3-1.67 1.36-3.26 2.77-4.42 3.94-2.57 2.57-1.08 7.85.64 11.91 1.79 4.23 3.71 8.77 4.48 10.37a3.45 3.45 0 0 0 2.53 1.43c-.8-2.15-2.12-6-3.39-9.83zM38.93 15c1.87 2.3 3.2 4.29 3.16 5.17-.11 2.66-3.62 11.31-4.74 14.74-.62 1.88-1.39 4.36-2 6.08 1.25-.32 2.1-.66 2.23-.94.64-1.28 2.06-5 3.07-7.43 1.28-3.07 5.12-10.25 5-12.29-.02-.86-3.09-3.07-6.72-5.33z" class="a21-cls-7"/><path d="M32.1 11.16c0 3.66.11 9.3-.17 14.95A127.29 127.29 0 0 1 29.83 42c.89-.09 1.76-.21 2.58-.35a125.94 125.94 0 0 0 3.29-15.88c.27-3.14.55-8.44.63-12.3-1.46-.84-2.92-1.63-4.23-2.31z" class="a21-cls-8"/></g><path id="a21_buccal_V_pre_exisiting" d="M35.8 40.9c-3.5 1-11 1.93-14.43.71a15.64 15.64 0 0 1 14.43-.71z" class="a21-cls-10" data-color-action="fill" style="fill:inherit" data-name="buccal V – pre exisiting"/><ellipse id="a21_buccal" cx="28.76" cy="28.34" class="a21-cls-10" rx="3.96" ry="6.97" data-color-action="fill" style="fill:inherit"/><path id="a21_mesial" d="M13.58 20.14l5.64 2.15c-2.09 2-.21 6.17.6 8.14.33.81-.29 2.29-3.34 2.35l-1.14-2.69c-1.34-3.21-2.57-7.16-1.76-9.95z" class="a21-cls-10" data-color-action="fill" style="fill:inherit"/><path id="a21_line_angle_2" d="M20.24 13.33l2.14 6.41a27.59 27.59 0 0 0-3.14 2.51L13.6 20.1a4.48 4.48 0 0 1 1.11-2 66.15 66.15 0 0 1 5.53-4.77z" class="a21-cls-10" data-color-action="fill" style="fill:inherit" data-name="line angle 2"/><path id="a21_cusp_1" d="M27.25 9.08c.86 0 4.64 1.86 8.56 4.1l-1.45 5.74A20.14 20.14 0 0 0 28 17.75a10.16 10.16 0 0 0-5.61 2l-2.14-6.41c2.93-2.34 5.87-4.26 7-4.26z" class="a21-cls-10" data-color-action="fill" style="fill:inherit" data-name="cusp 1"/><path id="a21_line_angle_1" d="M45.47 19.87l-6.79 2.53a4.3 4.3 0 0 0-.43-.9 7.8 7.8 0 0 0-3.9-2.58l1.45-5.74c4.25 2.42 8.65 5.28 9.67 6.69z" class="a21-cls-10" data-color-action="fill" style="fill:inherit" data-name="line angle 1"/><path id="a21_distal" d="M38.11 29.63c.55-2 1.35-5.06.57-7.23l6.78-2.53a1 1 0 0 1 .22.48c.12 1.91-3.23 8.3-4.71 11.64-1.85-.16-3.29-.83-2.86-2.36z" class="a21-cls-10" data-color-action="fill" style="fill:inherit"/><path id="a21_veneer" d="M19.82 40.46c-.77-1.61-2.69-6.15-4.48-10.37-1.72-4.07-3.21-9.34-.64-11.91 3.46-3.46 10.63-9.09 12.55-9.09s18.31 9.21 18.44 11.26-3.71 9.22-5 12.29c-1 2.44-2.43 6.15-3.07 7.43s-16.14 3.85-17.8.39z" class="a21-cls-12 a21-cls-13" data-color-action="fill" style="fill:inherit"/><path id="a21_tissue_graft" d="M11.03 56.34L28.5 42.45l17.47 13.89H11.03z" class="a21-cls-14" data-color-action="fill" style="fill:inherit" data-name="tissue graft"/><path id="a21_tipped_lingual" d="M28 154.75h3v3h-3z" class="a21-cls-15" transform="rotate(-180 29.5 156.25)" data-name="tipped lingual"/><g id="a21_tipped_facial" class="a21-cls-12" data-name="tipped facial"><path d="M33.15 5.5c-1.26-3.37-4.74-3.85-7.69 5.32-.5 1.56-4.42 1.76-3.84 0 2-6.08 5.31-10.2 9.06-9.27a4.86 4.86 0 0 1 3 3.38c-.19.17-.42.42-.53.57z" class="a21-cls-16" data-color-action="fill" style="fill:inherit"/><path d="M31.07 8.42H18.13l2.94 9.64 10-9.64z" class="a21-cls-16" data-color-action="fill" style="fill:inherit"/></g><path id="a21_surface_restoration_mesial" d="M23.09 37.09c-1.29-6.43-2.73-14.2-2.76-14.63.48-.45 1-.91 1.5-1.36l-5.29-4.66c-.68.61-1.31 1.2-1.84 1.73-2.57 2.57-1.08 7.85.64 11.91l.82 1.92a11.5 11.5 0 0 1 6.93 5.09z" class="a21-cls-17" data-color-action="fill" style="fill:inherit" data-name="surface restoration mesial"/><path id="a21_surface_restoration_buccal" d="M32.27 38.53a11.41 11.41 0 0 1 1.53-3c1.68-5.84 3.55-12.3 3.87-13l-.93-.6-.4-.25c-2.81-1.77-6.46-3.84-8.82-5a62.44 62.44 0 0 0-5.69 4.43c-.52.45-1 .91-1.5 1.36 0 .43 1.47 8.2 2.76 14.63a11.55 11.55 0 0 1 .91 1.8 12.57 12.57 0 0 1 8.29-.38z" class="a21-cls-12 a21-cls-18" data-color-action="fill" style="fill:inherit" data-name="surface restoration buccal"/><path id="a21_surface_restoration_buccal_V" d="M31.69 41.73a11.5 11.5 0 0 1 .58-3.21 12.57 12.57 0 0 0-8.27.38 11.33 11.33 0 0 1 .8 3.25 38 38 0 0 0 6.89-.42z" class="a21-cls-12 a21-cls-18" data-color-action="fill" style="fill:inherit" data-name="surface restoration buccal V"/><path id="a21_surface_restoration_distal" d="M37.66 22.51c-.31.71-2.19 7.16-3.87 13a11.48 11.48 0 0 1 7.73-4.72c1.63-3.49 4.27-8.74 4.16-10.45 0-.64-1.69-2-4-3.55l-5.36 4.86.4.25z" class="a21-cls-17" data-color-action="fill" style="fill:inherit" data-name="surface restoration distal"/><path id="a21_surface_restoration_occlusal" d="M27.25 9.08c-1.62 0-7 4-10.71 7.36l5.29 4.66a62.43 62.43 0 0 1 5.69-4.43c2.35 1.15 6 3.22 8.81 5l5.36-4.86c-5.01-3.4-13.13-7.73-14.44-7.73z" class="a21-cls-17" data-color-action="fill" style="fill:inherit" data-name="surface restoration occlusal"/><g id="a21_supra-erupted" class="a21-cls-12"><path d="M28.5 49.12v7.67" class="a21-cls-19" data-color-action="stroke" style="stroke:inherit"/><path d="M24.51 50.28l3.99-6.9 3.99 6.9h-7.98z" class="a21-cls-20" data-color-action="fill" style="fill:inherit"/></g><g id="a21_sub-erupted" class="a21-cls-12"><path d="M28.5 51.05v-7.67" class="a21-cls-19" data-color-action="stroke" style="stroke:inherit"/><path d="M32.49 49.88l-3.99 6.91-3.99-6.91h7.98z" class="a21-cls-20" data-color-action="fill" style="fill:inherit"/></g><path id="a21_sealant" d="M28 154.75h3v3h-3z" class="a21-cls-15" transform="rotate(-180 29.5 156.25)"/><g id="a21_rotated_mesial" class="a21-cls-12" data-name="rotated mesial"><path d="M53.13 32.82c3-1.79 2.3-5.46-10.23-5.81-5.3-.15-8.95 0-8.95 0L34 24s1-.07 8.22.24c7.62.32 14 1.83 13.75 6a4 4 0 0 1-2.31 2.92c-.15-.16-.4-.27-.53-.34z" class="a21-cls-16" data-color-action="fill" style="fill:inherit"/><path d="M40.43 31.53V19.64l-10.4 5.9 10.4 5.99z" class="a21-cls-16" data-color-action="fill" style="fill:inherit"/></g><g id="a21_rotated_distal" class="a21-cls-12" data-name="rotated distal"><path d="M5.87 32.82C2.88 31 3.56 27.36 16.1 27c5.3-.15 8.95 0 8.95 0L25 24s-1-.07-8.22.24c-7.62.32-14 1.83-13.75 6a4 4 0 0 0 2.31 2.92c.15-.16.4-.27.53-.34z" class="a21-cls-16" data-color-action="fill" style="fill:inherit"/><path d="M18.57 31.53V19.64l10.4 5.9-10.4 5.99z" class="a21-cls-16" data-color-action="fill" style="fill:inherit"/></g><circle id="a21_root_decay" cx="28.25" cy="84.75" r="4.33" class="a21-cls-12 a21-cls-18" data-color-action="fill" style="fill:inherit" data-name="root decay"/><path id="a21_root_canal" d="M30 98.5l-2.67-54.17" class="a21-cls-22" data-color-action="stroke" style="stroke:inherit" data-name="root canal"/><path id="a21_root_abrasion" d="M26.75 76.66h3.5v13.83h-3.5z" class="a21-cls-12 a21-cls-24" transform="rotate(-180 28.5 83.575)" data-color-action="stroke" style="stroke:inherit" data-name="root abrasion"/><g id="a21_post"><path d="M26.35 23.83h3.14V65.6h-3.14z" class="a21-cls-18" transform="rotate(-180 27.925 44.72)" data-color-action="fill" style="fill:inherit"/><path d="M28.16 23.83h.47V65.6h-.47z" class="a21-cls-25" transform="rotate(-180 28.395 44.72)"/></g><g id="a21_pins"><path d="M29.26 30.84h2.42v23.43h-2.42z" class="a21-cls-18" transform="rotate(-180 30.465 42.555)" data-color-action="fill" style="fill:inherit"/><path d="M30.65 30.84h.36v23.43h-.36z" class="a21-cls-25" transform="rotate(-180 30.83 42.555)"/><path d="M24.67 30.84h2.42v23.43h-2.42z" class="a21-cls-18" transform="rotate(-180 25.885 42.555)" data-color-action="fill" style="fill:inherit"/><path d="M26.06 30.84h.36v23.43h-.36z" class="a21-cls-25" transform="rotate(-180 26.245 42.555)"/></g><path id="a21_open_contact_mesial" d="M25.31 49l-7.5-4.75-7.5 4.75" class="a21-cls-26" data-color-action="stroke" style="stroke:inherit" data-name="open contact mesial"/><path id="a21_open_contact_distal" d="M44.32 49l-7.49-4.75-7.5 4.75" class="a21-cls-26" data-color-action="stroke" style="stroke:inherit" data-name="open contact distal"/><g id="a21_mesial_drift" class="a21-cls-12" data-name="mesial drift"><path d="M26.41 27.84h11.92" class="a21-cls-27" data-color-action="stroke" style="stroke:inherit"/><path d="M27.57 31.82l-6.9-3.98 6.9-3.99v7.97z" class="a21-cls-16" data-color-action="fill" style="fill:inherit"/></g><path id="a21_lingual_abfraction" d="M28 154.75h3v3h-3z" class="a21-cls-15" transform="rotate(-180 29.5 156.25)" data-name="lingual abfraction"/><ellipse id="a21_internal_root_resorption" cx="28.3" cy="82.9" class="a21-cls-12 a21-cls-20" rx="3.19" ry="7.9" transform="rotate(-3.19 28.415 83.095)" data-color-action="fill" style="fill:inherit" data-name="internal root resorption"/><g id="a21_impacted_mesial" class="a21-cls-12" data-name="impacted mesial"><ellipse cx="29.49" cy="57.29" class="a21-cls-27" rx="20.72" ry="55.88" data-color-action="stroke" style="stroke:inherit"/><path d="M40.09 57.29h10.13" class="a21-cls-27" data-color-action="stroke" style="stroke:inherit"/><path d="M41.26 61.27l-6.91-3.99 6.91-3.98v7.97z" class="a21-cls-16" data-color-action="fill" style="fill:inherit"/></g><g id="a21_impacted_distal" class="a21-cls-12" data-name="impacted distal"><ellipse cx="29.5" cy="57.29" class="a21-cls-27" rx="20.72" ry="55.88" data-color-action="stroke" style="stroke:inherit"/><path d="M18.9 57.29H8.76" class="a21-cls-27" data-color-action="stroke" style="stroke:inherit"/><path d="M17.73 53.3l6.91 3.98-6.91 3.99V53.3z" class="a21-cls-16" data-color-action="fill" style="fill:inherit"/></g><path id="a21_gortex_membranes" d="M2 39.75h55v16.42H2z" class="a21-cls-14" transform="rotate(-180 29.5 47.955)" data-color-action="fill" style="fill:inherit" data-name="gortex membranes"/><path id="a21_frenum_pull" d="M38.49 43.41l-10.66 6.75-10.65-6.75" class="a21-cls-30" data-color-action="stroke" style="stroke:inherit" data-name="frenum pull"/><path id="a21_external_root_resorption" d="M20.82 70.4a142.27 142.27 0 0 0 2.69 15.68A10.64 10.64 0 0 0 26 78.27a9.39 9.39 0 0 0-5.18-7.87zm8.5 7c-.63 5.55 2 8 3.52 8.91.23-5.6.52-11.85.8-16.72-1.7 1.06-3.81 3.3-4.32 7.77z" class="a21-cls-12 a21-cls-20" data-color-action="fill" style="fill:inherit" data-name="external root resorption"/><g id="a21_distal_drift" class="a21-cls-12" data-name="distal drift"><path d="M32.59 27.84H20.67" class="a21-cls-27" data-color-action="stroke" style="stroke:inherit"/><path d="M31.43 23.85l6.9 3.99-6.9 3.98v-7.97z" class="a21-cls-16" data-color-action="fill" style="fill:inherit"/></g><path id="a21_three_quarter_crown" d="M14.29 27.33c-1.14-3.46-1.62-7.14.4-9.16 3.46-3.46 10.63-9.09 12.55-9.09s18.32 9.22 18.45 11.27c.07 1.19-1.2 4.13-2.53 7z" class="a21-cls-12 a21-cls-13" data-color-action="fill" style="fill:inherit" data-name="three quarter crown"/><path id="a21_crown" d="M19.82 40.46c-.77-1.61-2.69-6.15-4.48-10.37-1.72-4.07-3.21-9.34-.64-11.91 3.46-3.46 10.63-9.09 12.55-9.09s18.31 9.21 18.44 11.26-3.71 9.22-5 12.29c-1 2.44-2.43 6.15-3.07 7.43s-16.14 3.85-17.8.39z" class="a21-cls-12 a21-cls-13" data-color-action="fill" style="fill:inherit"/><path id="a21_cracked_surface_mesial" d="M16.66 30.17l-3.83-3.83h5l-5-4.75h5l-3.82-3.82" class="a21-cls-32" data-color-action="stroke" style="stroke:inherit" data-name="cracked surface mesial"/><path id="a21_cracked_surface_buccal" d="M29.83 30.17L26 26.34h5l-5-4.75h5l-3.83-3.82" class="a21-cls-32" data-color-action="stroke" style="stroke:inherit" data-name="cracked surface buccal"/><path id="a21_cracked_surface_buccal_V" d="M29.83 30.17L26 26.34h5l-5-4.75h5l-3.83-3.82" class="a21-cls-32" data-color-action="stroke" style="stroke:inherit" data-name="cracked surface buccal V"/><path id="a21_cracked_surface_distal" d="M44.66 30.17l-3.83-3.83h5l-5-4.75h5L42 17.77" class="a21-cls-32" data-color-action="stroke" style="stroke:inherit" data-name="cracked surface distal"/><g id="a21_chipped_surface_mesial" class="a21-cls-12" data-name="chipped surface mesial"><path d="M20.17 28.5l-8.34-8.33M11.83 28.5l8.34-8.33" class="a21-cls-33" data-color-action="stroke" style="stroke:inherit"/></g><g id="a21_chipped_surface_buccal" class="a21-cls-12" data-name="chipped surface buccal"><path d="M32.33 28.5L24 20.17M24 28.5l8.33-8.33" class="a21-cls-33" data-color-action="stroke" style="stroke:inherit"/></g><g id="a21_chipped_surface_buccal_V" class="a21-cls-12" data-name="chipped surface buccal V"><path d="M32.33 28.5L24 20.17M24 28.5l8.33-8.33" class="a21-cls-33" data-color-action="stroke" style="stroke:inherit"/></g><g id="a21_chipped_surface_distal" class="a21-cls-12" data-name="chipped surface distal"><path d="M46.33 28.5L38 20.17M38 28.5l8.33-8.33" class="a21-cls-33" data-color-action="stroke" style="stroke:inherit"/></g><path id="a21_buccal_abfraction" d="M19.44 41.91a16.7 16.7 0 0 1 9.23-3.25 16.7 16.7 0 0 1 9.23 3.25 16.7 16.7 0 0 1-9.23 3.25 16.7 16.7 0 0 1-9.23-3.25z" class="a21-cls-14" data-color-action="fill" style="fill:inherit" data-name="buccal abfraction"/><g id="a21_braces"><path d="M22.96 16.84h13.45v18.19H22.96z" class="a21-cls-25" transform="rotate(-180 29.69 25.935)"/><path d="M22.96 16.84h13.45v.68H22.96z" class="a21-cls-34" transform="rotate(-180 29.69 17.18)" data-color-action="fill" style="fill:inherit"/><path d="M22.96 24.43h13.45v1.36H22.96z" class="a21-cls-34" transform="rotate(-180 29.69 25.11)" data-color-action="fill" style="fill:inherit"/><path d="M22.96 34.14h13.45v.89H22.96z" class="a21-cls-35" transform="rotate(-180 29.69 34.585)" data-color-action="fill" style="fill:inherit"/><rect width="4.11" height="7.94" x="32.59" y="27.07" class="a21-cls-28" rx=".49" ry=".49" transform="rotate(-180 34.64 31.04)" data-color-action="fill" style="fill:inherit"/><path d="M33.08 35h3.13a.49.49 0 0 0 .49-.49v-5.83a13.14 13.14 0 0 0-4.11 0v5.83a.49.49 0 0 0 .49.49z" class="a21-cls-18" data-color-action="fill" style="fill:inherit"/><path d="M32.92 33.6v1.11a.16.16 0 0 0 .16.16h3.13a.16.16 0 0 0 .16-.16V33.6z" class="a21-cls-25"/><rect width="4.11" height="7.94" x="22.67" y="27.07" class="a21-cls-28" rx=".49" ry=".49" transform="rotate(-180 24.725 31.04)" data-color-action="fill" style="fill:inherit"/><path d="M23.16 35h3.13a.49.49 0 0 0 .49-.49v-5.83a13.14 13.14 0 0 0-4.11 0v5.83a.49.49 0 0 0 .49.49z" class="a21-cls-18" data-color-action="fill" style="fill:inherit"/><path d="M23 33.6v1.11a.16.16 0 0 0 .16.16h3.13a.16.16 0 0 0 .16-.16V33.6z" class="a21-cls-25"/><rect width="4.11" height="7.94" x="32.59" y="16.79" class="a21-cls-28" rx=".49" ry=".49" transform="rotate(-180 34.64 20.755)" data-color-action="fill" style="fill:inherit"/><path d="M33.08 24.72h3.13a.49.49 0 0 0 .49-.49V18.4a13.14 13.14 0 0 0-4.11 0v5.83a.49.49 0 0 0 .49.49z" class="a21-cls-18" data-color-action="fill" style="fill:inherit"/><path d="M32.92 23.32v1.11a.16.16 0 0 0 .16.16h3.13a.16.16 0 0 0 .16-.16v-1.11z" class="a21-cls-25"/><rect width="4.11" height="7.94" x="22.67" y="16.79" class="a21-cls-28" rx=".49" ry=".49" transform="rotate(-180 24.725 20.755)" data-color-action="fill" style="fill:inherit"/><path d="M23.16 24.72h3.13a.49.49 0 0 0 .49-.49V18.4a13.14 13.14 0 0 0-4.11 0v5.83a.49.49 0 0 0 .49.49z" class="a21-cls-18" data-color-action="fill" style="fill:inherit"/><path d="M23 23.32v1.11a.16.16 0 0 0 .16.16h3.13a.16.16 0 0 0 .16-.16v-1.11z" class="a21-cls-25"/><path d="M8.58 25.17h42.21v1.45H8.58z" class="a21-cls-18" transform="rotate(-180 29.685 25.895)" data-color-action="fill" style="fill:inherit"/><path d="M8.58 25.17h42.21v.25H8.58z" class="a21-cls-28" transform="rotate(-180 29.685 25.29)" data-color-action="fill" style="fill:inherit"/><path d="M8.58 26.02h42.21v.4H8.58z" class="a21-cls-25" transform="rotate(-180 29.685 26.22)"/></g><path id="a21_apicoectomy" d="M22.16 114.84l7.34-11.66 7.34 11.66H22.16z" class="a21-cls-17" data-color-action="fill" style="fill:inherit"/><circle id="a21_abscess" cx="29.5" cy="110.34" r="6.5" class="a21-cls-37" data-color-action="fill" style="fill:inherit"/><g id="a21_blunted_roots" data-name="blunted roots"><path d="M2 63h55v76H2z" class="a21-cls-23" transform="rotate(-180 29.5 101)"/><path d="M2 60.91h55v2H2z" class="a21-cls-36" transform="rotate(-180 29.5 61.91)" data-color-action="fill" style="fill:inherit"/></g><path id="a21_root_amputation" d="M2 42.38h55v96.95H2z" class="a21-cls-23" transform="rotate(-180 29.5 90.855)" data-name="root amputation"/><path id="a21_missing_crown" d="M2 1.83h55v48.72H2z" class="a21-cls-23" transform="rotate(-180 29.5 26.19)" data-name="missing crown"/><g id="a21_missing_tooth" data-name="missing tooth"><path d="M27.25 9.08c-1.92 0-9.09 5.64-12.55 9.09-2.57 2.57-1.08 7.85.64 11.91 1.79 4.23 3.71 8.77 4.48 10.37a1.76 1.76 0 0 0 .49.6c0 4.93-.67 17.15.12 25.66C22 84 26 96.18 28.57 101.85c2 4.29 3.7 2.1 3.82-3.08s.8-21.7 1.36-31.07a243.21 243.21 0 0 1 3.72-27.47.55.55 0 0 0 .16-.16c.64-1.28 2.06-5 3.07-7.43 1.28-3.07 5.12-10.25 5-12.29S29.17 9.08 27.25 9.08z" class="a21-cls-2"/><path d="M20.31 40c.07 3.95-.73 17.53.12 26.75C22 84 26 96.18 28.57 101.85c2 4.29 3.7 2.1 3.82-3.08s.8-21.7 1.36-31.07c.74-12.45 3.58-26.38 4.07-29.46S20.18 33.31 20.31 40z" class="a21-cls-23"/><path d="M21.92 55.48c0-8.25 0-12.19.18-14.7a3.43 3.43 0 0 0-1.32-2.55 3.1 3.1 0 0 0-.47 1.77c.07 3.95-.73 17.53.12 26.75a133.41 133.41 0 0 0 5.43 28c-.78-3.82-1.62-8.35-2.14-12.14a241.83 241.83 0 0 1-1.8-27.13zM37.59 39.53l-1.5.17s-2 10-2.87 18.1S31.6 78.42 32 83.26c.16 2.1.45 4.61.73 6.78.28-7.07.69-16.22 1.06-22.34.62-11.16 2.96-23.51 3.8-28.17zM30.25 41.46c-.54 2.9-1.17 3.8-1.75 18.85s.58 40.32 1.75 40.32c.46 0-.29-26.59.29-34.92s2.34-22.06 2.63-24.25-2.04-4.67-2.92 0z" class="a21-cls-23"/><path d="M19.82 40.46c-.77-1.61-2.69-6.15-4.48-10.37-1.72-4.07-3.21-9.34-.64-11.91 3.46-3.46 10.63-9.09 12.55-9.09s18.31 9.21 18.44 11.26-3.71 9.22-5 12.29c-1 2.44-2.43 6.15-3.07 7.43s-16.14 3.85-17.8.39z" class="a21-cls-23"/><path d="M19 32.09c-1.63-4.75-3.32-11.37-1.54-14.82.47-.91 1.05-1.95 1.7-3-1.67 1.36-3.26 2.77-4.42 3.94-2.57 2.57-1.08 7.85.64 11.91 1.79 4.23 3.71 8.77 4.48 10.37a3.45 3.45 0 0 0 2.53 1.43c-.8-2.15-2.12-6-3.39-9.83zM38.93 15c1.87 2.3 3.2 4.29 3.16 5.17-.11 2.66-3.62 11.31-4.74 14.74-.62 1.88-1.39 4.36-2 6.08 1.25-.32 2.1-.66 2.23-.94.64-1.28 2.06-5 3.07-7.43 1.28-3.07 5.12-10.25 5-12.29-.02-.86-3.09-3.07-6.72-5.33zM32.1 11.16c0 3.66.11 9.3-.17 14.95A127.29 127.29 0 0 1 29.83 42c.89-.09 1.76-.21 2.58-.35a125.94 125.94 0 0 0 3.29-15.88c.27-3.14.55-8.44.63-12.3-1.46-.84-2.92-1.63-4.23-2.31z" class="a21-cls-23"/></g><g id="a21_extracted_tooth" class="a21-msng-cls-10" data-name="extracted tooth"><path d="M9 10.51l41.67 41.66M50.67 10.51L9 52.17" class="a21-msng-cls-11" data-color-action="stroke" style="stroke:inherit"/></g><g id="a21_denture"><path d="M2 2.83h55v135.01H2z" class="a21-cls-23" transform="rotate(-180 29.5 70.34)"/><path d="M57 60.78A22.63 22.63 0 0 1 44.78 64c-7.64 0-10-3.22-15.79-3.22S19.15 64 13.2 64A24.26 24.26 0 0 1 2 60.78V2.83h55z" class="a21-cls-31" data-color-action="fill" style="fill:inherit"/><path d="M19.82 40.46c-.77-1.61-2.69-6.15-4.48-10.37-1.72-4.07-3.21-9.34-.64-11.91 3.46-3.46 10.63-9.09 12.55-9.09s18.31 9.21 18.44 11.26-3.71 9.22-5 12.29c-1 2.44-2.43 6.15-3.07 7.43s-16.14 3.85-17.8.39z" class="a21-cls-2"/><path d="M19.82 40.46c-.77-1.61-2.69-6.15-4.48-10.37-1.72-4.07-3.21-9.34-.64-11.91 3.46-3.46 10.63-9.09 12.55-9.09s18.31 9.21 18.44 11.26-3.71 9.22-5 12.29c-1 2.44-2.43 6.15-3.07 7.43s-16.14 3.85-17.8.39z" class="a21-cls-6"/><path d="M19 32.09c-1.63-4.75-3.32-11.37-1.54-14.82.47-.91 1.05-1.95 1.7-3-1.67 1.36-3.26 2.77-4.42 3.94-2.57 2.57-1.08 7.85.64 11.91 1.79 4.23 3.71 8.77 4.48 10.37a3.45 3.45 0 0 0 2.53 1.43c-.8-2.15-2.12-6-3.39-9.83zM38.93 15c1.87 2.3 3.2 4.29 3.16 5.17-.11 2.66-3.62 11.31-4.74 14.74-.62 1.88-1.39 4.36-2 6.08 1.25-.32 2.1-.66 2.23-.94.64-1.28 2.06-5 3.07-7.43 1.28-3.07 5.12-10.25 5-12.29-.02-.86-3.09-3.07-6.72-5.33z" class="a21-cls-7"/><path d="M32.1 11.16c0 3.66.11 9.3-.17 14.95A127.29 127.29 0 0 1 29.83 42c.89-.09 1.76-.21 2.58-.35a125.94 125.94 0 0 0 3.29-15.88c.27-3.14.55-8.44.63-12.3-1.46-.84-2.92-1.63-4.23-2.31z" class="a21-cls-8"/></g><g id="a21_maryland_bridge_pontic" class="a21-cls-12" data-name="maryland bridge pontic"><path d="M19.82 40.46c-.77-1.61-2.69-6.15-4.48-10.37-1.72-4.07-3.21-9.34-.64-11.91 3.46-3.46 10.63-9.09 12.55-9.09s18.31 9.21 18.44 11.26-3.71 9.22-5 12.29c-1 2.44-2.43 6.15-3.07 7.43s-16.14 3.85-17.8.39z" class="a21-cls-20" data-color-action="fill" style="fill:inherit"/><path d="M2 24h55v7.67H2z" class="a21-cls-20" transform="rotate(-180 29.5 27.835)" data-color-action="fill" style="fill:inherit"/></g><g id="a21_maryland_bridge_abutment_mesial" data-name="maryland bridge abutment mesial"><path d="M2 24h34.98v7.67H2z" class="a21-cls-12 a21-cls-20" transform="rotate(-180 19.49 27.835)" data-color-action="fill" style="fill:inherit"/><path d="M27.25 9.08c-1.92 0-9.09 5.64-12.55 9.09-2.57 2.57-1.08 7.85.64 11.91 1.79 4.23 3.71 8.77 4.48 10.37a1.76 1.76 0 0 0 .49.6c0 4.93-.67 17.15.12 25.66C22 84 26 96.18 28.57 101.85c2 4.29 3.7 2.1 3.82-3.08s.8-21.7 1.36-31.07a243.21 243.21 0 0 1 3.72-27.47.55.55 0 0 0 .16-.16c.64-1.28 2.06-5 3.07-7.43 1.28-3.07 5.12-10.25 5-12.29S29.17 9.08 27.25 9.08z" class="a21-cls-2"/><path d="M20.31 40c.07 3.95-.73 17.53.12 26.75C22 84 26 96.18 28.57 101.85c2 4.29 3.7 2.1 3.82-3.08s.8-21.7 1.36-31.07c.74-12.45 3.58-26.38 4.07-29.46S20.18 33.31 20.31 40z" class="a21-cls-3"/><path d="M21.92 55.48c0-8.25 0-12.19.18-14.7a3.43 3.43 0 0 0-1.32-2.55 3.1 3.1 0 0 0-.47 1.77c.07 3.95-.73 17.53.12 26.75a133.41 133.41 0 0 0 5.43 28c-.78-3.82-1.62-8.35-2.14-12.14a241.83 241.83 0 0 1-1.8-27.13zM37.59 39.53l-1.5.17s-2 10-2.87 18.1S31.6 78.42 32 83.26c.16 2.1.45 4.61.73 6.78.28-7.07.69-16.22 1.06-22.34.62-11.16 2.96-23.51 3.8-28.17z" class="a21-cls-4"/><path d="M30.25 41.46c-.54 2.9-1.17 3.8-1.75 18.85s.58 40.32 1.75 40.32c.46 0-.29-26.59.29-34.92s2.34-22.06 2.63-24.25-2.04-4.67-2.92 0z" class="a21-cls-5"/><path d="M19.82 40.46c-.77-1.61-2.69-6.15-4.48-10.37-1.72-4.07-3.21-9.34-.64-11.91 3.46-3.46 10.63-9.09 12.55-9.09s18.31 9.21 18.44 11.26-3.71 9.22-5 12.29c-1 2.44-2.43 6.15-3.07 7.43s-16.14 3.85-17.8.39z" class="a21-cls-6"/><path d="M19 32.09c-1.63-4.75-3.32-11.37-1.54-14.82.47-.91 1.05-1.95 1.7-3-1.67 1.36-3.26 2.77-4.42 3.94-2.57 2.57-1.08 7.85.64 11.91 1.79 4.23 3.71 8.77 4.48 10.37a3.45 3.45 0 0 0 2.53 1.43c-.8-2.15-2.12-6-3.39-9.83zM38.93 15c1.87 2.3 3.2 4.29 3.16 5.17-.11 2.66-3.62 11.31-4.74 14.74-.62 1.88-1.39 4.36-2 6.08 1.25-.32 2.1-.66 2.23-.94.64-1.28 2.06-5 3.07-7.43 1.28-3.07 5.12-10.25 5-12.29-.02-.86-3.09-3.07-6.72-5.33z" class="a21-cls-7"/><path d="M32.1 11.16c0 3.66.11 9.3-.17 14.95A127.29 127.29 0 0 1 29.83 42c.89-.09 1.76-.21 2.58-.35a125.94 125.94 0 0 0 3.29-15.88c.27-3.14.55-8.44.63-12.3-1.46-.84-2.92-1.63-4.23-2.31z" class="a21-cls-8"/></g><g id="a21_maryland_bridge_abutment_distal" data-name="maryland bridge abutment distal"><path d="M22.02 24H57v7.67H22.02z" class="a21-cls-12 a21-cls-20" transform="rotate(-180 39.51 27.835)" data-color-action="fill" style="fill:inherit"/><path d="M27.25 9.08c-1.92 0-9.09 5.64-12.55 9.09-2.57 2.57-1.08 7.85.64 11.91 1.79 4.23 3.71 8.77 4.48 10.37a1.76 1.76 0 0 0 .49.6c0 4.93-.67 17.15.12 25.66C22 84 26 96.18 28.57 101.85c2 4.29 3.7 2.1 3.82-3.08s.8-21.7 1.36-31.07a243.21 243.21 0 0 1 3.72-27.47.55.55 0 0 0 .16-.16c.64-1.28 2.06-5 3.07-7.43 1.28-3.07 5.12-10.25 5-12.29S29.17 9.08 27.25 9.08z" class="a21-cls-2"/><path d="M20.31 40c.07 3.95-.73 17.53.12 26.75C22 84 26 96.18 28.57 101.85c2 4.29 3.7 2.1 3.82-3.08s.8-21.7 1.36-31.07c.74-12.45 3.58-26.38 4.07-29.46S20.18 33.31 20.31 40z" class="a21-cls-3"/><path d="M21.92 55.48c0-8.25 0-12.19.18-14.7a3.43 3.43 0 0 0-1.32-2.55 3.1 3.1 0 0 0-.47 1.77c.07 3.95-.73 17.53.12 26.75a133.41 133.41 0 0 0 5.43 28c-.78-3.82-1.62-8.35-2.14-12.14a241.83 241.83 0 0 1-1.8-27.13zM37.59 39.53l-1.5.17s-2 10-2.87 18.1S31.6 78.42 32 83.26c.16 2.1.45 4.61.73 6.78.28-7.07.69-16.22 1.06-22.34.62-11.16 2.96-23.51 3.8-28.17z" class="a21-cls-4"/><path d="M30.25 41.46c-.54 2.9-1.17 3.8-1.75 18.85s.58 40.32 1.75 40.32c.46 0-.29-26.59.29-34.92s2.34-22.06 2.63-24.25-2.04-4.67-2.92 0z" class="a21-cls-5"/><path d="M19.82 40.46c-.77-1.61-2.69-6.15-4.48-10.37-1.72-4.07-3.21-9.34-.64-11.91 3.46-3.46 10.63-9.09 12.55-9.09s18.31 9.21 18.44 11.26-3.71 9.22-5 12.29c-1 2.44-2.43 6.15-3.07 7.43s-16.14 3.85-17.8.39z" class="a21-cls-6"/><path d="M19 32.09c-1.63-4.75-3.32-11.37-1.54-14.82.47-.91 1.05-1.95 1.7-3-1.67 1.36-3.26 2.77-4.42 3.94-2.57 2.57-1.08 7.85.64 11.91 1.79 4.23 3.71 8.77 4.48 10.37a3.45 3.45 0 0 0 2.53 1.43c-.8-2.15-2.12-6-3.39-9.83zM38.93 15c1.87 2.3 3.2 4.29 3.16 5.17-.11 2.66-3.62 11.31-4.74 14.74-.62 1.88-1.39 4.36-2 6.08 1.25-.32 2.1-.66 2.23-.94.64-1.28 2.06-5 3.07-7.43 1.28-3.07 5.12-10.25 5-12.29-.02-.86-3.09-3.07-6.72-5.33z" class="a21-cls-7"/><path d="M32.1 11.16c0 3.66.11 9.3-.17 14.95A127.29 127.29 0 0 1 29.83 42c.89-.09 1.76-.21 2.58-.35a125.94 125.94 0 0 0 3.29-15.88c.27-3.14.55-8.44.63-12.3-1.46-.84-2.92-1.63-4.23-2.31z" class="a21-cls-8"/></g><g id="a21_maryland_bridge_abutment" data-name="maryland bridge abutment"><path d="M2 24h55v7.67H2z" class="a21-cls-12 a21-cls-20" transform="rotate(-180 29.5 27.835)" data-color-action="fill" style="fill:inherit"/><path d="M27.25 9.08c-1.92 0-9.09 5.64-12.55 9.09-2.57 2.57-1.08 7.85.64 11.91 1.79 4.23 3.71 8.77 4.48 10.37a1.76 1.76 0 0 0 .49.6c0 4.93-.67 17.15.12 25.66C22 84 26 96.18 28.57 101.85c2 4.29 3.7 2.1 3.82-3.08s.8-21.7 1.36-31.07a243.21 243.21 0 0 1 3.72-27.47.55.55 0 0 0 .16-.16c.64-1.28 2.06-5 3.07-7.43 1.28-3.07 5.12-10.25 5-12.29S29.17 9.08 27.25 9.08z" class="a21-cls-2"/><path d="M20.31 40c.07 3.95-.73 17.53.12 26.75C22 84 26 96.18 28.57 101.85c2 4.29 3.7 2.1 3.82-3.08s.8-21.7 1.36-31.07c.74-12.45 3.58-26.38 4.07-29.46S20.18 33.31 20.31 40z" class="a21-cls-3"/><path d="M21.92 55.48c0-8.25 0-12.19.18-14.7a3.43 3.43 0 0 0-1.32-2.55 3.1 3.1 0 0 0-.47 1.77c.07 3.95-.73 17.53.12 26.75a133.41 133.41 0 0 0 5.43 28c-.78-3.82-1.62-8.35-2.14-12.14a241.83 241.83 0 0 1-1.8-27.13zM37.59 39.53l-1.5.17s-2 10-2.87 18.1S31.6 78.42 32 83.26c.16 2.1.45 4.61.73 6.78.28-7.07.69-16.22 1.06-22.34.62-11.16 2.96-23.51 3.8-28.17z" class="a21-cls-4"/><path d="M30.25 41.46c-.54 2.9-1.17 3.8-1.75 18.85s.58 40.32 1.75 40.32c.46 0-.29-26.59.29-34.92s2.34-22.06 2.63-24.25-2.04-4.67-2.92 0z" class="a21-cls-5"/><path d="M19.82 40.46c-.77-1.61-2.69-6.15-4.48-10.37-1.72-4.07-3.21-9.34-.64-11.91 3.46-3.46 10.63-9.09 12.55-9.09s18.31 9.21 18.44 11.26-3.71 9.22-5 12.29c-1 2.44-2.43 6.15-3.07 7.43s-16.14 3.85-17.8.39z" class="a21-cls-6"/><path d="M19 32.09c-1.63-4.75-3.32-11.37-1.54-14.82.47-.91 1.05-1.95 1.7-3-1.67 1.36-3.26 2.77-4.42 3.94-2.57 2.57-1.08 7.85.64 11.91 1.79 4.23 3.71 8.77 4.48 10.37a3.45 3.45 0 0 0 2.53 1.43c-.8-2.15-2.12-6-3.39-9.83zM38.93 15c1.87 2.3 3.2 4.29 3.16 5.17-.11 2.66-3.62 11.31-4.74 14.74-.62 1.88-1.39 4.36-2 6.08 1.25-.32 2.1-.66 2.23-.94.64-1.28 2.06-5 3.07-7.43 1.28-3.07 5.12-10.25 5-12.29-.02-.86-3.09-3.07-6.72-5.33z" class="a21-cls-7"/><path d="M32.1 11.16c0 3.66.11 9.3-.17 14.95A127.29 127.29 0 0 1 29.83 42c.89-.09 1.76-.21 2.58-.35a125.94 125.94 0 0 0 3.29-15.88c.27-3.14.55-8.44.63-12.3-1.46-.84-2.92-1.63-4.23-2.31z" class="a21-cls-8"/></g><g id="a21_bridge_abutment_mesial" class="a21-cls-12" data-name="bridge abutment mesial"><path d="M19.82 40.46c-.77-1.61-2.69-6.15-4.48-10.37-1.72-4.07-3.21-9.34-.64-11.91 3.46-3.46 10.63-9.09 12.55-9.09s18.31 9.21 18.44 11.26-3.71 9.22-5 12.29c-1 2.44-2.43 6.15-3.07 7.43s-16.14 3.85-17.8.39z" class="a21-cls-18" data-color-action="fill" style="fill:inherit"/><path d="M2 24h34.98v7.67H2z" class="a21-cls-18" transform="rotate(-180 19.49 27.835)" data-color-action="fill" style="fill:inherit"/></g><g id="a21_bridge_abutment_distal" class="a21-cls-12" data-name="bridge abutment distal"><path d="M19.82 40.46c-.77-1.61-2.69-6.15-4.48-10.37-1.72-4.07-3.21-9.34-.64-11.91 3.46-3.46 10.63-9.09 12.55-9.09s18.31 9.21 18.44 11.26-3.71 9.22-5 12.29c-1 2.44-2.43 6.15-3.07 7.43s-16.14 3.85-17.8.39z" class="a21-cls-18" data-color-action="fill" style="fill:inherit"/><path d="M22.02 24H57v7.67H22.02z" class="a21-cls-18" transform="rotate(-180 39.51 27.835)" data-color-action="fill" style="fill:inherit"/></g><g id="a21_bridge_abutment" class="a21-cls-12" data-name="bridge abutment"><path d="M19.82 40.46c-.77-1.61-2.69-6.15-4.48-10.37-1.72-4.07-3.21-9.34-.64-11.91 3.46-3.46 10.63-9.09 12.55-9.09s18.31 9.21 18.44 11.26-3.71 9.22-5 12.29c-1 2.44-2.43 6.15-3.07 7.43s-16.14 3.85-17.8.39z" class="a21-cls-18" data-color-action="fill" style="fill:inherit"/><path d="M2 24h55v7.67H2z" class="a21-cls-18" transform="rotate(-180 29.5 27.835)" data-color-action="fill" style="fill:inherit"/></g><g id="a21_bridge_pontic" data-name="bridge pontic"><path d="M27.25 9.08c-1.92 0-9.09 5.64-12.55 9.09-2.57 2.57-1.08 7.85.64 11.91 1.79 4.23 3.71 8.77 4.48 10.37a1.76 1.76 0 0 0 .49.6c0 4.93-.67 17.15.12 25.66C22 84 26 96.18 28.57 101.85c2 4.29 3.7 2.1 3.82-3.08s.8-21.7 1.36-31.07a243.21 243.21 0 0 1 3.72-27.47.55.55 0 0 0 .16-.16c.64-1.28 2.06-5 3.07-7.43 1.28-3.07 5.12-10.25 5-12.29S29.17 9.08 27.25 9.08z" class="a21-cls-2"/><path d="M20.31 40c.07 3.95-.73 17.53.12 26.75C22 84 26 96.18 28.57 101.85c2 4.29 3.7 2.1 3.82-3.08s.8-21.7 1.36-31.07c.74-12.45 3.58-26.38 4.07-29.46S20.18 33.31 20.31 40z" class="a21-cls-23"/><path d="M21.92 55.48c0-8.25 0-12.19.18-14.7a3.43 3.43 0 0 0-1.32-2.55 3.1 3.1 0 0 0-.47 1.77c.07 3.95-.73 17.53.12 26.75a133.41 133.41 0 0 0 5.43 28c-.78-3.82-1.62-8.35-2.14-12.14a241.83 241.83 0 0 1-1.8-27.13zM37.59 39.53l-1.5.17s-2 10-2.87 18.1S31.6 78.42 32 83.26c.16 2.1.45 4.61.73 6.78.28-7.07.69-16.22 1.06-22.34.62-11.16 2.96-23.51 3.8-28.17zM30.25 41.46c-.54 2.9-1.17 3.8-1.75 18.85s.58 40.32 1.75 40.32c.46 0-.29-26.59.29-34.92s2.34-22.06 2.63-24.25-2.04-4.67-2.92 0z" class="a21-cls-23"/><path d="M19.82 40.46c-.77-1.61-2.69-6.15-4.48-10.37-1.72-4.07-3.21-9.34-.64-11.91 3.46-3.46 10.63-9.09 12.55-9.09s18.31 9.21 18.44 11.26-3.71 9.22-5 12.29c-1 2.44-2.43 6.15-3.07 7.43s-16.14 3.85-17.8.39z" class="a21-cls-6"/><path d="M19 32.09c-1.63-4.75-3.32-11.37-1.54-14.82.47-.91 1.05-1.95 1.7-3-1.67 1.36-3.26 2.77-4.42 3.94-2.57 2.57-1.08 7.85.64 11.91 1.79 4.23 3.71 8.77 4.48 10.37a3.45 3.45 0 0 0 2.53 1.43c-.8-2.15-2.12-6-3.39-9.83zM38.93 15c1.87 2.3 3.2 4.29 3.16 5.17-.11 2.66-3.62 11.31-4.74 14.74-.62 1.88-1.39 4.36-2 6.08 1.25-.32 2.1-.66 2.23-.94.64-1.28 2.06-5 3.07-7.43 1.28-3.07 5.12-10.25 5-12.29-.02-.86-3.09-3.07-6.72-5.33z" class="a21-cls-7"/><path d="M32.1 11.16c0 3.66.11 9.3-.17 14.95A127.29 127.29 0 0 1 29.83 42c.89-.09 1.76-.21 2.58-.35a125.94 125.94 0 0 0 3.29-15.88c.27-3.14.55-8.44.63-12.3-1.46-.84-2.92-1.63-4.23-2.31z" class="a21-cls-8"/><g class="a21-cls-12"><path d="M19.82 40.46c-.77-1.61-2.69-6.15-4.48-10.37-1.72-4.07-3.21-9.34-.64-11.91 3.46-3.46 10.63-9.09 12.55-9.09s18.31 9.21 18.44 11.26-3.71 9.22-5 12.29c-1 2.44-2.43 6.15-3.07 7.43s-16.14 3.85-17.8.39z" class="a21-cls-18" data-color-action="fill" style="fill:inherit"/><path d="M2 24h55v7.67H2z" class="a21-cls-18" transform="rotate(-180 29.5 27.835)" data-color-action="fill" style="fill:inherit"/></g></g><g id="a21_implant_mini" data-name="implant mini"><path d="M1.61 1.79h55v137.17h-55z" class="a21-cls-23" transform="rotate(-180 29.115 70.375)"/><path d="M29.28 77.93h.44l1-8.49V28.6h-2.44v40.84l1 8.49z" class="a21-cls-18" data-color-action="fill" style="fill:inherit"/><path d="M29.58 77.93h.07l.4-8.49V28.6h-.37v40.84l-.1 8.49z" class="a21-cls-25"/><path d="M28.28 28.6h2.44v.63h-2.44z" class="a21-cls-28" transform="rotate(-180 29.5 28.915)" data-color-action="fill" style="fill:inherit"/><g class="a21-cls-29"><path d="M30.72 29.23l-2.44 1v-.63l2.44-1v.63zM30.72 30.68l-2.44 1v-.63l2.44-1v.63zM30.72 32.12l-2.44 1v-.63l2.44-1v.63zM30.72 33.57l-2.44 1v-.63l2.44-1v.63zM30.72 35.02l-2.44 1v-.64l2.44-1v.64zM30.72 36.46l-2.44 1v-.63l2.44-1v.63zM30.72 37.91l-2.44 1v-.64l2.44-1v.64zM30.72 39.35l-2.44 1v-.63l2.44-1v.63zM30.72 40.8l-2.44 1v-.64l2.44-1v.64zM30.72 42.24l-2.44 1v-.63l2.44-1v.63zM30.72 43.69l-2.44 1v-.64l2.44-1v.64zM30.72 45.13l-2.44 1v-.63l2.44-1v.63zM30.72 46.58l-2.44 1v-.63l2.44-1v.63zM30.72 48.02l-2.44 1v-.63l2.44-1v.63zM30.72 49.47l-2.44 1v-.63l2.44-1v.63zM30.72 50.91l-2.44 1v-.63l2.44-1v.63zM30.72 52.36l-2.44 1v-.63l2.44-1v.63zM30.72 53.8l-2.44 1.01v-.64l2.44-1v.63zM30.72 55.25l-2.44 1v-.63l2.44-1v.63zM30.72 56.7l-2.44 1v-.64l2.44-1v.64zM30.72 58.14l-2.44 1v-.63l2.44-1v.63zM30.72 59.59l-2.44 1v-.63l2.44-1.01v.64zM30.72 61.03l-2.44 1v-.63l2.44-1v.63zM30.72 62.48l-2.44 1v-.63l2.44-1v.63zM30.72 63.92l-2.44 1v-.63l2.44-1v.63zM30.72 65.37l-2.44 1v-.63l2.44-1v.63zM30.72 66.81l-2.44 1v-.63l2.44-1v.63zM30.72 68.26l-2.44 1v-.63l2.44-1v.63zM30.72 69.44l-.03.28-2.27.93-.07-.61 2.37-.97v.37zM30.51 71.24l-1.93.79-.07-.61 2.08-.85-.08.67zM30.33 72.76l-1.58.65-.08-.61 1.74-.71-.08.67zM30.15 74.28l-1.24.5-.07-.6 1.39-.57-.08.67zM29.97 75.79l-.9.37-.07-.6 1.05-.43-.08.66zM29.8 77.31l-.57.23-.07-.6.71-.29-.07.66z" class="a21-cls-28" data-color-action="fill" style="fill:inherit"/></g><circle cx="29.5" cy="24.73" r="2.24" class="a21-cls-18" data-color-action="fill" style="fill:inherit"/><path d="M27.67 25.95h3.67v3h-3.67z" class="a21-cls-18" transform="rotate(-180 29.5 27.445)" data-color-action="fill" style="fill:inherit"/><path d="M29.96 25.95h.55v3h-.55z" class="a21-cls-25"/><path d="M30.3 23.37h.21a2.32 2.32 0 0 1 .49 1.29 2.37 2.37 0 0 1-.52 1.3H30a2 2 0 0 0 .73-1.37 1.5 1.5 0 0 0-.43-1.22z" class="a21-cls-25"/><path d="M28.28 34.67h2.44v.63h-2.44z" class="a21-cls-28" transform="rotate(-180 29.5 34.985)" data-color-action="fill" style="fill:inherit"/><path d="M26.89 28.92h5.22l-.87 5.71h-3.48l-.87-5.71z" class="a21-cls-18" data-color-action="fill" style="fill:inherit"/><path d="M30.15 28.92h.79l-.48 5.71h-.53l.22-5.71z" class="a21-cls-25"/></g><g id="a21_implant_cylinder" data-name="implant cylinder"><path d="M2 1.83h55V139H2z" class="a21-cls-23" transform="rotate(-180 29.5 70.415)"/><path d="M26.17 25.65h6.67v49.33h-6.67z" class="a21-cls-18" transform="rotate(-180 29.5 50.32)" data-color-action="fill" style="fill:inherit"/><path d="M24.5 22.66h10v3h-10z" class="a21-cls-18" transform="rotate(-180 29.5 24.155)" data-color-action="fill" style="fill:inherit"/><path d="M30 25.65h1v49.33h-1z" class="a21-cls-25" transform="rotate(-180 30.5 50.32)"/><path d="M30.75 22.66h1.5v3h-1.5z" class="a21-cls-25" transform="rotate(-180 31.5 24.155)"/><path d="M24.5 75.02h10v3h-10z" class="a21-cls-18" transform="rotate(-180 29.5 76.515)" data-color-action="fill" style="fill:inherit"/><path d="M30.75 75.02h1.5v3h-1.5z" class="a21-cls-25" transform="rotate(-180 31.5 76.515)"/><path d="M26.17 25.65h6.67v.63h-6.67z" class="a21-cls-28" transform="rotate(-180 29.5 25.97)" data-color-action="fill" style="fill:inherit"/><path d="M26.17 74.35h6.67v.63h-6.67z" class="a21-cls-28" transform="rotate(-180 29.5 74.67)" data-color-action="fill" style="fill:inherit"/><g class="a21-cls-29"><path d="M26.17 73.35l6.66 1.01v.63l-6.66-1v-.64zM26.17 71.91l6.66 1v.63l-6.66-1v-.63zM26.17 70.46l6.66 1v.64l-6.66-1.01v-.63zM26.17 69.02l6.66 1v.63l-6.66-1v-.63zM26.17 67.57l6.66 1v.63l-6.66-1v-.63zM26.17 66.13l6.66 1v.63l-6.66-1v-.63zM26.17 64.68l6.66 1v.63l-6.66-1v-.63zM26.17 63.24l6.66 1v.63l-6.66-1v-.63zM26.17 61.79l6.66 1v.63l-6.66-1v-.63zM26.17 60.34l6.66 1.01v.63l-6.66-1v-.64zM26.17 58.9l6.66 1v.63l-6.66-1v-.63zM26.17 57.45l6.66 1v.64l-6.66-1v-.64zM26.17 56.01l6.66 1v.63l-6.66-1v-.63zM26.17 54.56l6.66 1v.64l-6.66-1v-.64zM26.17 53.12l6.66 1v.63l-6.66-1v-.63zM26.17 51.67l6.66 1v.63l-6.66-1v-.63zM26.17 50.23l6.66 1v.63l-6.66-1v-.63zM26.17 48.78l6.66 1v.63l-6.66-1v-.63zM26.17 47.34l6.66 1v.63l-6.66-1v-.63zM26.17 45.89l6.66 1v.63l-6.66-1v-.63zM26.17 44.45l6.66 1v.63l-6.66-1v-.63zM26.17 43l6.66 1v.63l-6.66-1V43zM26.17 41.55l6.66 1v.64l-6.66-1v-.64zM26.17 40.11l6.66 1v.63l-6.66-1v-.63zM26.17 38.66l6.66 1v.64l-6.66-1v-.64zM26.17 37.22l6.66 1v.63l-6.66-1v-.63zM26.17 35.77l6.66 1v.64l-6.66-1v-.64zM26.17 34.33l6.66 1v.63l-6.66-1v-.63zM26.17 32.88l6.66 1v.63l-6.66-1v-.63zM26.17 31.44l6.66 1v.63l-6.66-1v-.63zM26.17 29.99l6.66 1v.63l-6.66-1v-.63zM26.17 28.55l6.66 1v.63l-6.66-1v-.63zM26.17 27.1l6.66 1v.63l-6.66-1v-.63zM26.17 25.65l6.66 1.01v.63l-6.66-1v-.64z" class="a21-cls-28" data-color-action="fill" style="fill:inherit"/></g></g><g id="a21_implant_blade" data-name="implant blade"><path d="M2 1.83h55V139H2z" class="a21-cls-23" transform="rotate(-180 29.5 70.415)"/><path d="M26.17 25.65h6.67v49.33h-6.67z" class="a21-cls-18" transform="rotate(-180 29.5 50.32)" data-color-action="fill" style="fill:inherit"/><path d="M24.5 22.66h10v3h-10z" class="a21-cls-18" transform="rotate(-180 29.5 24.155)" data-color-action="fill" style="fill:inherit"/><path d="M30 25.65h1v49.33h-1z" class="a21-cls-25" transform="rotate(-180 30.5 50.32)"/><path d="M30.75 22.66h1.5v3h-1.5z" class="a21-cls-25" transform="rotate(-180 31.5 24.155)"/><path d="M26.17 25.65h6.67v.63h-6.67z" class="a21-cls-28" transform="rotate(-180 29.5 25.97)" data-color-action="fill" style="fill:inherit"/></g><path id="a21_watch_tooth" d="M8.27 153.9a3.26 3.26 0 0 1 3.22-3.26 3.24 3.24 0 1 1 0 6.47 3.25 3.25 0 0 1-3.22-3.21zm1-5.91l-.88-18.09h6.15l-.8 18.1z" class="a21-cls-11" data-color-action="fill" style="fill:inherit" data-name="watch tooth"/><path id="a21_border" d="M0 0h59v161H0z" class="a21-cls-15"/></defs></g><g class="b21-cls-1" transform="translate(0 66)"><g id="_21B" data-name="#21B"><path d="M12.33 29.06c.7 3.13 14.85 17.13 19.19 17.13 3.91 0 14.37-12.83 15.08-16.91.91-5.25-5.26-16.43-8.22-17.82-3.88-1.83-13.25-2.74-16.45.46-2.3 2.3-10.06 15.08-9.6 17.14z" class="b21-cls-2"/><path d="M12.33 29.06c.7 3.13 14.85 17.13 19.19 17.13 3.91 0 14.37-12.83 15.08-16.91.91-5.25-5.26-16.43-8.22-17.82-3.88-1.83-13.25-2.74-16.45.46-2.3 2.3-10.06 15.08-9.6 17.14z" class="b21-cls-3"/><path d="M20.1 30.43c1.19.3 2.74-3.66 4.57-4.34s7.08-1.83 8.91-1.14 4.11 4.57 4.8 4.11-1.83-3-2.06-4.34 3-4.8 2.06-5.48-3.2 3.43-4.57 3.88-7.08 1.6-7.54.69-2.74-4.34-3.43-3.43 1.14 3.2.91 4.11-4.57 5.71-3.65 5.94z" class="b21-cls-4"/><path d="M31.52 46.19c3.72 0 13.35-11.59 14.9-16.24a53.13 53.13 0 0 1-4.16 4.58c-1.83 1.6-8.91 7.77-11.88 7.54s-8-3.88-10.28-5.48c-1.43-1-4.54-3.69-6.68-5.57 3.51 4.98 14.39 15.17 18.1 15.17z" class="b21-cls-5"/><path d="M21.93 13.52c1.6-.46 8.45-1.6 11-1.37s5.25.23 7.08 2.28c.94 1.05 2.41 2.59 3.63 3.83-1.74-3.34-3.84-6.15-5.23-6.8-3.88-1.83-13.25-2.74-16.45.46a30.35 30.35 0 0 0-2.94 4 10.06 10.06 0 0 1 2.91-2.4z" class="b21-cls-6"/></g><defs><g id="b21_splinted_crowns" data-name="splinted crowns"><path d="M28 51.75h3v3h-3z" class="b21-cls-8" transform="rotate(-180 29.5 53.25)"/><path d="M28 51.75h3v3h-3z" class="b21-cls-8" transform="rotate(-180 29.5 53.25)"/><path d="M28 51.75h3v3h-3z" class="b21-cls-8" transform="rotate(-180 29.5 53.25)"/></g><path id="b21_line_angle_2" d="M23.59 41.48a77.21 77.21 0 0 1-8.36-8.17l14.62-4.46z" class="b21-cls-7" data-color-action="fill" style="fill:inherit" data-name="line angle 2"/><path id="b21_cusp_1" d="M37.56 42.18c-2.35 2.33-4.62 4-6 4-1.65 0-4.72-2-7.93-4.71l6.26-12.63z" class="b21-cls-7" data-color-action="fill" style="fill:inherit" data-name="cusp 1"/><path id="b21_line_angle_1" d="M44.42 33.75a54.15 54.15 0 0 1-6.87 8.43l-7.7-13.33z" class="b21-cls-7" data-color-action="fill" style="fill:inherit" data-name="line angle 1"/><path id="b21_mesial" d="M16.76 19.45a11.2 11.2 0 0 1 .61 6.92 12.22 12.22 0 0 1-3 5.9 10.59 10.59 0 0 1-2-3.22c-.29-1.12 1.95-5.5 4.39-9.6z" class="b21-cls-7" data-color-action="fill" style="fill:inherit"/><path id="b21_mesial_pit" d="M16.76 19.45l.59-1 13.1 4.36-.6 6-14.62 4.5c-.31-.36-.59-.7-.86-1a12.22 12.22 0 0 0 3-5.9 11.2 11.2 0 0 0-.61-6.96z" class="b21-cls-7" data-color-action="fill" style="fill:inherit" data-name="mesial pit"/><path id="b21_distal_pit" d="M29.85 28.85l.6-6L44 19.14l.21.46c-1.52 1.9-3.18 4.33-3 7.14a10.43 10.43 0 0 0 3.34 6.73l-.17.27z" class="b21-cls-7" data-color-action="fill" style="fill:inherit" data-name="distal pit"/><path id="b21_distal" d="M44.26 19.61c1.63 3.45 2.77 7.21 2.34 9.68a13.77 13.77 0 0 1-2 4.2 10.43 10.43 0 0 1-3.34-6.73c-.19-2.82 1.47-5.25 3-7.15z" class="b21-cls-7" data-color-action="fill" style="fill:inherit"/><path id="b21_line_angle_4" d="M24 10.68l6.5 12.15-13.1-4.36a46.45 46.45 0 0 1 4.57-6.55A5.91 5.91 0 0 1 24 10.68z" class="b21-cls-7" data-color-action="fill" style="fill:inherit" data-name="line angle 4"/><path id="b21_cusp_2" d="M24 10.68c3.55-1.4 9.3-.93 12.89.21l-6.4 11.94z" class="b21-cls-7" data-color-action="fill" style="fill:inherit" data-name="cusp 2"/><path id="b21_line_angle_3" d="M36.85 10.89a12.55 12.55 0 0 1 1.53.58c1.51.71 3.85 4 5.67 7.68l-13.6 3.68z" class="b21-cls-7" data-color-action="fill" style="fill:inherit" data-name="line angle 3"/><g id="b21_veneer"><path d="M28 51.75h3v3h-3z" class="b21-cls-8" transform="rotate(-180 29.5 53.25)"/><path d="M28 51.75h3v3h-3z" class="b21-cls-8" transform="rotate(-180 29.5 53.25)"/><path d="M28 51.75h3v3h-3z" class="b21-cls-8" transform="rotate(-180 29.5 53.25)"/></g><g id="b21_tissue_graft" data-name="tissue graft"><path d="M28 51.75h3v3h-3z" class="b21-cls-8" transform="rotate(-180 29.5 53.25)"/><path d="M28 51.75h3v3h-3z" class="b21-cls-8" transform="rotate(-180 29.5 53.25)"/><path d="M28 51.75h3v3h-3z" class="b21-cls-8" transform="rotate(-180 29.5 53.25)"/></g><path id="b21_surface_restoration_buccal" d="M31.44 42.1c-1.7-.69-5.53-3.74-9-7l-2.83 2.8c4.39 4.24 9.57 8.29 11.91 8.29 2.05 0 5.9-3.53 9.2-7.47l-2.86-2.8c-2.3 2.79-4.86 5.42-6.42 6.18z" class="b21-cls-9" data-color-action="fill" style="fill:inherit" data-name="surface restoration buccal"/><path id="b21_surface_restoration_mesial" d="M16.49 28.53a66 66 0 0 1 4.56-8.43L18 17.48c-2.89 4.52-6 10.26-5.67 11.58s3.51 5.21 7.28 8.84l2.87-2.75a40.24 40.24 0 0 1-5.99-6.62z" class="b21-cls-9" data-color-action="fill" style="fill:inherit" data-name="surface restoration mesial"/><path id="b21_surface_restoration_occlusal" d="M36.56 15a19.84 19.84 0 0 0-7.11-1.23c-3.08 0-4.44.68-4.7.95-1.62 1.62-7.05 10.6-8.26 13.78 2.4 3.89 12 12.36 14.94 13.57C34.56 40.55 42 31.27 42.66 28.6c.54-3.12-4.02-12.01-6.1-13.6z" class="b21-cls-9" data-color-action="fill" style="fill:inherit" data-name="surface restoration occlusal"/><path id="b21_surface_restoration_distal" d="M43.45 18l-3.1 2.75c1.45 2.94 2.6 6.22 2.31 7.87-.31 1.36-2.4 4.43-4.79 7.32l2.86 2.8c3-3.58 5.54-7.49 5.87-9.43.5-2.88-1.11-7.5-3.15-11.31z" class="b21-cls-9" data-color-action="fill" style="fill:inherit" data-name="surface restoration distal"/><path id="b21_surface_restoration_lingual" d="M24.75 14.75c.26-.26 1.62-.95 4.7-.95a19.84 19.84 0 0 1 7.11 1.2c1 .73 2.49 3.08 3.78 5.69L43.45 18c-1.71-3.21-3.72-5.88-5.07-6.51-3.88-1.83-13.25-2.74-16.45.46a40.45 40.45 0 0 0-4 5.56l3.08 2.61a39.79 39.79 0 0 1 3.74-5.37z" class="b21-cls-9" data-color-action="fill" style="fill:inherit" data-name="surface restoration lingual"/><g id="b21_supra-erupted"><path d="M28 51.75h3v3h-3z" class="b21-cls-8" transform="rotate(-180 29.5 53.25)"/><path d="M28 51.75h3v3h-3z" class="b21-cls-8" transform="rotate(-180 29.5 53.25)"/><path d="M28 51.75h3v3h-3z" class="b21-cls-8" transform="rotate(-180 29.5 53.25)"/></g><g id="b21_sub-erupted"><path d="M28 51.75h3v3h-3z" class="b21-cls-8" transform="rotate(-180 29.5 53.25)"/><path d="M28 51.75h3v3h-3z" class="b21-cls-8" transform="rotate(-180 29.5 53.25)"/><path d="M28 51.75h3v3h-3z" class="b21-cls-8" transform="rotate(-180 29.5 53.25)"/></g><text id="b21_sealant" class="b21-cls-10" transform="translate(19.7 37.55)" data-color-action="fill" style="fill:inherit">S</text><g id="b21_root_decay" data-name="root decay"><path d="M28 51.75h3v3h-3z" class="b21-cls-8" transform="rotate(-180 29.5 53.25)"/><path d="M28 51.75h3v3h-3z" class="b21-cls-8" transform="rotate(-180 29.5 53.25)"/><path d="M28 51.75h3v3h-3z" class="b21-cls-8" transform="rotate(-180 29.5 53.25)"/></g><g id="b21_root_canal" data-name="root canal"><path d="M28 51.75h3v3h-3z" class="b21-cls-8" transform="rotate(-180 29.5 53.25)"/><path d="M28 51.75h3v3h-3z" class="b21-cls-8" transform="rotate(-180 29.5 53.25)"/><path d="M28 51.75h3v3h-3z" class="b21-cls-8" transform="rotate(-180 29.5 53.25)"/></g><g id="b21_root_abrasion" data-name="root abrasion"><path d="M28 51.75h3v3h-3z" class="b21-cls-8" transform="rotate(-180 29.5 53.25)"/><path d="M28 51.75h3v3h-3z" class="b21-cls-8" transform="rotate(-180 29.5 53.25)"/><path d="M28 51.75h3v3h-3z" class="b21-cls-8" transform="rotate(-180 29.5 53.25)"/></g><g id="b21_post"><path d="M28 51.75h3v3h-3z" class="b21-cls-8" transform="rotate(-180 29.5 53.25)"/><path d="M28 51.75h3v3h-3z" class="b21-cls-8" transform="rotate(-180 29.5 53.25)"/><path d="M28 51.75h3v3h-3z" class="b21-cls-8" transform="rotate(-180 29.5 53.25)"/></g><g id="b21_pins"><path d="M28 51.75h3v3h-3z" class="b21-cls-8" transform="rotate(-180 29.5 53.25)"/><path d="M28 51.75h3v3h-3z" class="b21-cls-8" transform="rotate(-180 29.5 53.25)"/><path d="M28 51.75h3v3h-3z" class="b21-cls-8" transform="rotate(-180 29.5 53.25)"/></g><g id="b21_open_contact_mesial" data-name="open contact mesial"><path d="M28 51.75h3v3h-3z" class="b21-cls-8" transform="rotate(-180 29.5 53.25)"/><path d="M28 51.75h3v3h-3z" class="b21-cls-8" transform="rotate(-180 29.5 53.25)"/><path d="M28 51.75h3v3h-3z" class="b21-cls-8" transform="rotate(-180 29.5 53.25)"/></g><g id="b21_open_contact_distal" data-name="open contact distal"><path d="M28 51.75h3v3h-3z" class="b21-cls-8" transform="rotate(-180 29.5 53.25)"/><path d="M28 51.75h3v3h-3z" class="b21-cls-8" transform="rotate(-180 29.5 53.25)"/><path d="M28 51.75h3v3h-3z" class="b21-cls-8" transform="rotate(-180 29.5 53.25)"/></g><g id="b21_lingual_abfraction" data-name="lingual abfraction"><path d="M28 51.75h3v3h-3z" class="b21-cls-8" transform="rotate(-180 29.5 53.25)"/><path d="M28 51.75h3v3h-3z" class="b21-cls-8" transform="rotate(-180 29.5 53.25)"/><path d="M28 51.75h3v3h-3z" class="b21-cls-8" transform="rotate(-180 29.5 53.25)"/></g><g id="b21_internal_root_resorption" data-name="internal root resorption"><path d="M28 51.75h3v3h-3z" class="b21-cls-8" transform="rotate(-180 29.5 53.25)"/><path d="M28 51.75h3v3h-3z" class="b21-cls-8" transform="rotate(-180 29.5 53.25)"/><path d="M28 51.75h3v3h-3z" class="b21-cls-8" transform="rotate(-180 29.5 53.25)"/></g><g id="b21_gortex_membranes" data-name="gortex membranes"><path d="M28 51.75h3v3h-3z" class="b21-cls-8" transform="rotate(-180 29.5 53.25)"/><path d="M28 51.75h3v3h-3z" class="b21-cls-8" transform="rotate(-180 29.5 53.25)"/><path d="M28 51.75h3v3h-3z" class="b21-cls-8" transform="rotate(-180 29.5 53.25)"/></g><g id="b21_frenum_pull" data-name="frenum pull"><path d="M28 51.75h3v3h-3z" class="b21-cls-8" transform="rotate(-180 29.5 53.25)"/><path d="M28 51.75h3v3h-3z" class="b21-cls-8" transform="rotate(-180 29.5 53.25)"/><path d="M28 51.75h3v3h-3z" class="b21-cls-8" transform="rotate(-180 29.5 53.25)"/></g><g id="b21_external_root_resorption" data-name="external root resorption"><path d="M28 51.75h3v3h-3z" class="b21-cls-8" transform="rotate(-180 29.5 53.25)"/><path d="M28 51.75h3v3h-3z" class="b21-cls-8" transform="rotate(-180 29.5 53.25)"/><path d="M28 51.75h3v3h-3z" class="b21-cls-8" transform="rotate(-180 29.5 53.25)"/></g><path id="b21_three_quarter_crown" d="M12.33 29.06c.7 3.13 14.85 17.13 19.19 17.13 3.91 0 14.37-12.83 15.08-16.91.91-5.25-5.26-16.43-8.22-17.82-3.88-1.83-13.25-2.74-16.45.46-2.3 2.3-10.06 15.08-9.6 17.14z" class="b21-cls-12 b21-cls-16" data-color-action="fill" style="fill:inherit" data-name="three quarter crown"/><path id="b21_crown" d="M12.33 29.06c.7 3.13 14.85 17.13 19.19 17.13 3.91 0 14.37-12.83 15.08-16.91.91-5.25-5.26-16.43-8.22-17.82-3.88-1.83-13.25-2.74-16.45.46-2.3 2.3-10.06 15.08-9.6 17.14z" class="b21-cls-12 b21-cls-16" data-color-action="fill" style="fill:inherit"/><path id="b21_cracked_surface_occlusal" d="M31.83 31.17L28 27.34h5l-5-4.74h5l-3.83-3.83" class="b21-cls-17" data-color-action="stroke" style="stroke:inherit" data-name="cracked surface occlusal"/><g id="b21_chipped_surface_occlusal" class="b21-cls-12" data-name="chipped surface occlusal"><path d="M34.33 29.5L26 21.17M26 29.5l8.33-8.33" class="b21-cls-18" data-color-action="stroke" style="stroke:inherit"/></g><g id="b21_buccal_abfraction" data-name="buccal abfraction"><path d="M28 51.75h3v3h-3z" class="b21-cls-8" transform="rotate(-180 29.5 53.25)"/><path d="M28 51.75h3v3h-3z" class="b21-cls-8" transform="rotate(-180 29.5 53.25)"/><path d="M28 51.75h3v3h-3z" class="b21-cls-8" transform="rotate(-180 29.5 53.25)"/></g><g id="b21_braces"><path d="M28 51.75h3v3h-3z" class="b21-cls-8" transform="rotate(-180 29.5 53.25)"/><path d="M28 51.75h3v3h-3z" class="b21-cls-8" transform="rotate(-180 29.5 53.25)"/><path d="M28 51.75h3v3h-3z" class="b21-cls-8" transform="rotate(-180 29.5 53.25)"/></g><g id="b21_apicoectomy"><path d="M28 51.75h3v3h-3z" class="b21-cls-8" transform="rotate(-180 29.5 53.25)"/><path d="M28 51.75h3v3h-3z" class="b21-cls-8" transform="rotate(-180 29.5 53.25)"/><path d="M28 51.75h3v3h-3z" class="b21-cls-8" transform="rotate(-180 29.5 53.25)"/></g><g id="b21_abscess"><path d="M28 51.75h3v3h-3z" class="b21-cls-8" transform="rotate(-180 29.5 53.25)"/><path d="M28 51.75h3v3h-3z" class="b21-cls-8" transform="rotate(-180 29.5 53.25)"/><path d="M28 51.75h3v3h-3z" class="b21-cls-8" transform="rotate(-180 29.5 53.25)"/></g><g id="b21_blunted_roots" data-name="blunted roots"><path d="M28 51.75h3v3h-3z" class="b21-cls-8" transform="rotate(-180 29.5 53.25)"/><path d="M28 51.75h3v3h-3z" class="b21-cls-8" transform="rotate(-180 29.5 53.25)"/><path d="M28 51.75h3v3h-3z" class="b21-cls-8" transform="rotate(-180 29.5 53.25)"/></g><g id="b21_root_amputation" data-name="root amputation"><path d="M28 51.75h3v3h-3z" class="b21-cls-8" transform="rotate(-180 29.5 53.25)"/><path d="M28 51.75h3v3h-3z" class="b21-cls-8" transform="rotate(-180 29.5 53.25)"/><path d="M28 51.75h3v3h-3z" class="b21-cls-8" transform="rotate(-180 29.5 53.25)"/></g><path id="b21_missing_crown" d="M2 2.21h55v51.77H2z" class="b21-cls-11" transform="rotate(-180 29.5 28.095)" data-name="missing crown"/><g id="b21_missing_tooth" data-name="missing tooth"><path d="M12.33 29.06c.7 3.13 14.85 17.13 19.19 17.13 3.91 0 14.37-12.83 15.08-16.91.91-5.25-5.26-16.43-8.22-17.82-3.88-1.83-13.25-2.74-16.45.46-2.3 2.3-10.06 15.08-9.6 17.14z" class="b21-cls-2"/><path d="M12.33 29.06c.7 3.13 14.85 17.13 19.19 17.13 3.91 0 14.37-12.83 15.08-16.91.91-5.25-5.26-16.43-8.22-17.82-3.88-1.83-13.25-2.74-16.45.46-2.3 2.3-10.06 15.08-9.6 17.14z" class="b21-cls-11"/><path d="M20.1 30.43c1.19.3 2.74-3.66 4.57-4.34s7.08-1.83 8.91-1.14 4.11 4.57 4.8 4.11-1.83-3-2.06-4.34 3-4.8 2.06-5.48-3.2 3.43-4.57 3.88-7.08 1.6-7.54.69-2.74-4.34-3.43-3.43 1.14 3.2.91 4.11-4.57 5.71-3.65 5.94zM31.52 46.19c3.72 0 13.35-11.59 14.9-16.24a53.13 53.13 0 0 1-4.16 4.58c-1.83 1.6-8.91 7.77-11.88 7.54s-8-3.88-10.28-5.48c-1.43-1-4.54-3.69-6.68-5.57 3.51 4.98 14.39 15.17 18.1 15.17zM21.93 13.52c1.6-.46 8.45-1.6 11-1.37s5.25.23 7.08 2.28c.94 1.05 2.41 2.59 3.63 3.83-1.74-3.34-3.84-6.15-5.23-6.8-3.88-1.83-13.25-2.74-16.45.46a30.35 30.35 0 0 0-2.94 4 10.06 10.06 0 0 1 2.91-2.4z" class="b21-cls-11"/></g><g id="b21_maryland_bridge_pontic" class="b21-cls-12" data-name="maryland bridge pontic"><path d="M12.33 29.06c.7 3.13 14.85 17.13 19.19 17.13 3.91 0 14.37-12.83 15.08-16.91.91-5.25-5.26-16.43-8.22-17.82-3.88-1.83-13.25-2.74-16.45.46-2.3 2.3-10.06 15.08-9.6 17.14z" class="b21-cls-13" data-color-action="fill" style="fill:inherit"/><path d="M2 24.17h20.42v7.67H2zM36.58 24.17H57v7.67H36.58z" class="b21-cls-13" data-color-action="fill" style="fill:inherit"/></g><g id="b21_maryland_bridge_abutment_mesial" data-name="maryland bridge abutment mesial"><g class="b21-cls-12"><path d="M2 24.17h20.42v7.67H2z" class="b21-cls-13" data-color-action="fill" style="fill:inherit"/><ellipse cx="21.19" cy="28" class="b21-cls-13" rx="5.61" ry="12.9" data-color-action="fill" style="fill:inherit"/></g><path d="M12.33 29.06c.7 3.13 14.85 17.13 19.19 17.13 3.91 0 14.37-12.83 15.08-16.91.91-5.25-5.26-16.43-8.22-17.82-3.88-1.83-13.25-2.74-16.45.46-2.3 2.3-10.06 15.08-9.6 17.14z" class="b21-cls-2"/><path d="M12.33 29.06c.7 3.13 14.85 17.13 19.19 17.13 3.91 0 14.37-12.83 15.08-16.91.91-5.25-5.26-16.43-8.22-17.82-3.88-1.83-13.25-2.74-16.45.46-2.3 2.3-10.06 15.08-9.6 17.14z" class="b21-cls-3"/><path d="M20.1 30.43c1.19.3 2.74-3.66 4.57-4.34s7.08-1.83 8.91-1.14 4.11 4.57 4.8 4.11-1.83-3-2.06-4.34 3-4.8 2.06-5.48-3.2 3.43-4.57 3.88-7.08 1.6-7.54.69-2.74-4.34-3.43-3.43 1.14 3.2.91 4.11-4.57 5.71-3.65 5.94z" class="b21-cls-4"/><path d="M31.52 46.19c3.72 0 13.35-11.59 14.9-16.24a53.13 53.13 0 0 1-4.16 4.58c-1.83 1.6-8.91 7.77-11.88 7.54s-8-3.88-10.28-5.48c-1.43-1-4.54-3.69-6.68-5.57 3.51 4.98 14.39 15.17 18.1 15.17z" class="b21-cls-5"/><path d="M21.93 13.52c1.6-.46 8.45-1.6 11-1.37s5.25.23 7.08 2.28c.94 1.05 2.41 2.59 3.63 3.83-1.74-3.34-3.84-6.15-5.23-6.8-3.88-1.83-13.25-2.74-16.45.46a30.35 30.35 0 0 0-2.94 4 10.06 10.06 0 0 1 2.91-2.4z" class="b21-cls-6"/></g><g id="b21_maryland_bridge_abutment_distal" data-name="maryland bridge abutment distal"><g class="b21-cls-12"><path d="M36.58 24.17H57v7.67H36.58z" class="b21-cls-13" data-color-action="fill" style="fill:inherit"/><ellipse cx="37.81" cy="28" class="b21-cls-13" rx="5.61" ry="12.9" data-color-action="fill" style="fill:inherit"/></g><path d="M12.33 29.06c.7 3.13 14.85 17.13 19.19 17.13 3.91 0 14.37-12.83 15.08-16.91.91-5.25-5.26-16.43-8.22-17.82-3.88-1.83-13.25-2.74-16.45.46-2.3 2.3-10.06 15.08-9.6 17.14z" class="b21-cls-2"/><path d="M12.33 29.06c.7 3.13 14.85 17.13 19.19 17.13 3.91 0 14.37-12.83 15.08-16.91.91-5.25-5.26-16.43-8.22-17.82-3.88-1.83-13.25-2.74-16.45.46-2.3 2.3-10.06 15.08-9.6 17.14z" class="b21-cls-3"/><path d="M20.1 30.43c1.19.3 2.74-3.66 4.57-4.34s7.08-1.83 8.91-1.14 4.11 4.57 4.8 4.11-1.83-3-2.06-4.34 3-4.8 2.06-5.48-3.2 3.43-4.57 3.88-7.08 1.6-7.54.69-2.74-4.34-3.43-3.43 1.14 3.2.91 4.11-4.57 5.71-3.65 5.94z" class="b21-cls-4"/><path d="M31.52 46.19c3.72 0 13.35-11.59 14.9-16.24a53.13 53.13 0 0 1-4.16 4.58c-1.83 1.6-8.91 7.77-11.88 7.54s-8-3.88-10.28-5.48c-1.43-1-4.54-3.69-6.68-5.57 3.51 4.98 14.39 15.17 18.1 15.17z" class="b21-cls-5"/><path d="M21.93 13.52c1.6-.46 8.45-1.6 11-1.37s5.25.23 7.08 2.28c.94 1.05 2.41 2.59 3.63 3.83-1.74-3.34-3.84-6.15-5.23-6.8-3.88-1.83-13.25-2.74-16.45.46a30.35 30.35 0 0 0-2.94 4 10.06 10.06 0 0 1 2.91-2.4z" class="b21-cls-6"/></g><g id="b21_maryland_bridge_abutment" data-name="maryland bridge abutment"><g class="b21-cls-12"><path d="M2 24.17h20.42v7.67H2zM36.58 24.17H57v7.67H36.58z" class="b21-cls-13" data-color-action="fill" style="fill:inherit"/><ellipse cx="37.81" cy="28" class="b21-cls-13" rx="5.61" ry="12.9" data-color-action="fill" style="fill:inherit"/><ellipse cx="21.19" cy="28" class="b21-cls-13" rx="5.61" ry="12.9" data-color-action="fill" style="fill:inherit"/></g><path d="M12.33 29.06c.7 3.13 14.85 17.13 19.19 17.13 3.91 0 14.37-12.83 15.08-16.91.91-5.25-5.26-16.43-8.22-17.82-3.88-1.83-13.25-2.74-16.45.46-2.3 2.3-10.06 15.08-9.6 17.14z" class="b21-cls-2"/><path d="M12.33 29.06c.7 3.13 14.85 17.13 19.19 17.13 3.91 0 14.37-12.83 15.08-16.91.91-5.25-5.26-16.43-8.22-17.82-3.88-1.83-13.25-2.74-16.45.46-2.3 2.3-10.06 15.08-9.6 17.14z" class="b21-cls-3"/><path d="M20.1 30.43c1.19.3 2.74-3.66 4.57-4.34s7.08-1.83 8.91-1.14 4.11 4.57 4.8 4.11-1.83-3-2.06-4.34 3-4.8 2.06-5.48-3.2 3.43-4.57 3.88-7.08 1.6-7.54.69-2.74-4.34-3.43-3.43 1.14 3.2.91 4.11-4.57 5.71-3.65 5.94z" class="b21-cls-4"/><path d="M31.52 46.19c3.72 0 13.35-11.59 14.9-16.24a53.13 53.13 0 0 1-4.16 4.58c-1.83 1.6-8.91 7.77-11.88 7.54s-8-3.88-10.28-5.48c-1.43-1-4.54-3.69-6.68-5.57 3.51 4.98 14.39 15.17 18.1 15.17z" class="b21-cls-5"/><path d="M21.93 13.52c1.6-.46 8.45-1.6 11-1.37s5.25.23 7.08 2.28c.94 1.05 2.41 2.59 3.63 3.83-1.74-3.34-3.84-6.15-5.23-6.8-3.88-1.83-13.25-2.74-16.45.46a30.35 30.35 0 0 0-2.94 4 10.06 10.06 0 0 1 2.91-2.4z" class="b21-cls-6"/></g><path id="b21_bridge_abutment" d="M12.33 29.06c.7 3.13 14.85 17.13 19.19 17.13 3.91 0 14.37-12.83 15.08-16.91.91-5.25-5.26-16.43-8.22-17.82-3.88-1.83-13.25-2.74-16.45.46-2.3 2.3-10.06 15.08-9.6 17.14z" class="b21-cls-12 b21-cls-14" data-color-action="fill" style="fill:inherit" data-name="bridge abutment"/><path id="b21_bridge_pontic" d="M12.33 29.06c.7 3.13 14.85 17.13 19.19 17.13 3.91 0 14.37-12.83 15.08-16.91.91-5.25-5.26-16.43-8.22-17.82-3.88-1.83-13.25-2.74-16.45.46-2.3 2.3-10.06 15.08-9.6 17.14z" class="b21-cls-12 b21-cls-14" data-color-action="fill" style="fill:inherit" data-name="bridge pontic"/><g id="b21_implant_mini" data-name="implant mini"><path d="M2 2.21h55v51.77H2z" class="b21-cls-11" transform="rotate(-180 29.5 28.095)"/><circle cx="29.5" cy="28" r="2.61" class="b21-cls-14" data-color-action="fill" style="fill:inherit"/></g><g id="b21_implant_cylinder" data-name="implant cylinder"><path d="M2 2.21h55v51.77H2z" class="b21-cls-11" transform="rotate(-180 29.5 28.095)"/><circle cx="29.5" cy="28" r="5" class="b21-cls-14" data-color-action="fill" style="fill:inherit"/><path d="M34.5 28a5 5 0 0 0-.09-.89h-9.82a4.46 4.46 0 0 0 0 1.78h9.82a5 5 0 0 0 .09-.89z" class="b21-cls-15" data-color-action="fill" style="fill:inherit"/></g><g id="b21_implant_blade" data-name="implant blade"><path d="M2 2.21h55v51.77H2z" class="b21-cls-11" transform="rotate(-180 29.5 28.095)"/><circle cx="29.5" cy="28" r="5" class="b21-cls-14" data-color-action="fill" style="fill:inherit"/></g><g id="b21_border"><path d="M0 0h59v56H0z" class="b21-cls-8"/><path d="M0 0h59v56H0z" class="b21-cls-8" transform="rotate(-180 29.5 28)"/></g></defs></g><g class="c21-cls-1"><g id="_21C" data-name="#21C"><path d="M19.82 24.81C19 26.42 17.13 31 15.33 35.18c-1.72 4.07-3.21 9.34-.64 11.91 3.46 3.46 10.63 9.09 12.55 9.09S45.56 47 45.69 44.92s-3.71-9.22-5-12.29c-1-2.44-2.43-6.15-3.07-7.43s-16.14-3.85-17.8-.39z" class="c21-cls-2"/><path d="M19.82 24.81C19 26.42 17.13 31 15.33 35.18c-1.72 4.07-3.21 9.34-.64 11.91 3.46 3.46 10.63 9.09 12.55 9.09S45.56 47 45.69 44.92s-3.71-9.22-5-12.29c-1-2.44-2.43-6.15-3.07-7.43s-16.14-3.85-17.8-.39z" class="c21-cls-3"/><path d="M22.5 26.09c3.26.36 13.4.36 14.85 1.63.68.59 1.55 1.5 2.29 2.3-.78-2-1.58-4-2-4.82-.64-1.28-16.14-3.84-17.8-.38-.23.49-.57 1.24-1 2.17a5.27 5.27 0 0 1 3.66-.9z" class="c21-cls-4"/><path d="M14.69 47.09c3.46 3.46 10.63 9.09 12.55 9.09S45.56 47 45.69 44.92a10.5 10.5 0 0 0-1-3.53A11.31 11.31 0 0 1 43.14 44c-1.09 1.45-15.94 9.06-16.84 8.87s-7.43-4.32-10.3-7.4a10.84 10.84 0 0 1-2.49-4.29c-.41 2.35-.2 4.52 1.18 5.91z" class="c21-cls-5"/></g><defs><g id="c21_splinted_crowns" data-name="splinted crowns"><path d="M2 16.43h55v7.67H2z" class="c21-cls-12" transform="rotate(-180 29.5 20.265)" data-color-action="fill" style="fill:inherit"/><path d="M19.82 24.81C19 26.42 17.13 31 15.33 35.18c-1.72 4.07-3.21 9.34-.64 11.91 3.46 3.46 10.63 9.09 12.55 9.09S45.56 47 45.69 44.92s-3.71-9.22-5-12.29c-1-2.44-2.43-6.15-3.07-7.43s-16.14-3.85-17.8-.39z" class="c21-cls-2"/><path d="M19.82 24.81C19 26.42 17.13 31 15.33 35.18c-1.72 4.07-3.21 9.34-.64 11.91 3.46 3.46 10.63 9.09 12.55 9.09S45.56 47 45.69 44.92s-3.71-9.22-5-12.29c-1-2.44-2.43-6.15-3.07-7.43s-16.14-3.85-17.8-.39z" class="c21-cls-3"/><path d="M22.5 26.09c3.26.36 13.4.36 14.85 1.63.68.59 1.55 1.5 2.29 2.3-.78-2-1.58-4-2-4.82-.64-1.28-16.14-3.84-17.8-.38-.23.49-.57 1.24-1 2.17a5.27 5.27 0 0 1 3.66-.9z" class="c21-cls-4"/><path d="M14.69 47.09c3.46 3.46 10.63 9.09 12.55 9.09S45.56 47 45.69 44.92a10.5 10.5 0 0 0-1-3.53A11.31 11.31 0 0 1 43.14 44c-1.09 1.45-15.94 9.06-16.84 8.87s-7.43-4.32-10.3-7.4a10.84 10.84 0 0 1-2.49-4.29c-.41 2.35-.2 4.52 1.18 5.91z" class="c21-cls-5"/></g><path id="c21_mesial" d="M13.58 45.13L19.22 43c-2.09-2-.21-6.17.6-8.14.33-.81-.29-2.29-3.34-2.35l-1.14 2.69c-1.34 3.19-2.57 7.14-1.76 9.93z" class="c21-cls-6" data-color-action="fill" style="fill:inherit"/><path id="c21_line_angle_4" d="M20.24 51.94l2.14-6.41A27.59 27.59 0 0 1 19.25 43l-5.64 2.15a4.48 4.48 0 0 0 1.11 2 66.15 66.15 0 0 0 5.52 4.79z" class="c21-cls-6" data-color-action="fill" style="fill:inherit" data-name="line angle 4"/><path id="c21_cusp_2" d="M27.25 56.19c.86 0 4.64-1.86 8.56-4.1l-1.45-5.74A20.14 20.14 0 0 1 28 47.52a10.16 10.16 0 0 1-5.61-2l-2.14 6.41c2.93 2.31 5.87 4.26 7 4.26z" class="c21-cls-6" data-color-action="fill" style="fill:inherit" data-name="cusp 2"/><path id="c21_line_angle_3" d="M45.47 45.4l-6.78-2.53a4.3 4.3 0 0 1-.43.9 7.8 7.8 0 0 1-3.9 2.58l1.45 5.74c4.24-2.42 8.64-5.28 9.66-6.69z" class="c21-cls-6" data-color-action="fill" style="fill:inherit" data-name="line angle 3"/><path id="c21_distal" d="M38.11 35.64c.55 2 1.35 5.06.57 7.23l6.78 2.53a1 1 0 0 0 .22-.48c.12-1.91-3.23-8.3-4.71-11.64-1.85.16-3.29.83-2.86 2.36z" class="c21-cls-6" data-color-action="fill" style="fill:inherit"/><ellipse id="c21_lingual" cx="28.76" cy="36.93" class="c21-cls-6" rx="3.96" ry="6.97" data-color-action="fill" style="fill:inherit"/><path id="c21_lingual_V" d="M35.8 24.36c-3.5-1-11-1.93-14.43-.71a15.64 15.64 0 0 0 14.43.71z" class="c21-cls-6" data-color-action="fill" style="fill:inherit" data-name="lingual V"/><g id="c21_veneer"><path d="M28 61.75h3v3h-3z" class="c21-cls-7" transform="rotate(-180 29.5 63.25)"/><path d="M28 61.75h3v3h-3z" class="c21-cls-7" transform="rotate(-180 29.5 63.25)"/><path d="M28 61.75h3v3h-3z" class="c21-cls-7" transform="rotate(-180 29.5 63.25)"/></g><g id="c21_tissue_graft" data-name="tissue graft"><path d="M28 61.75h3v3h-3z" class="c21-cls-7" transform="rotate(-180 29.5 63.25)"/><path d="M28 61.75h3v3h-3z" class="c21-cls-7" transform="rotate(-180 29.5 63.25)"/><path d="M28 61.75h3v3h-3z" class="c21-cls-7" transform="rotate(-180 29.5 63.25)"/></g><g id="c21_tipped_lingual" class="c21-cls-8" data-name="tipped lingual"><path d="M28.65 60.07c1.26 3.37 4.74 3.85 7.69-5.32.5-1.56 4.42-1.76 3.84 0-2 6.08-5.31 10.2-9.06 9.27a4.86 4.86 0 0 1-3-3.38c.19-.17.42-.43.53-.57z" class="c21-cls-9" data-color-action="fill" style="fill:inherit"/><path d="M30.73 57.15h12.94l-2.94-9.64-10 9.64z" class="c21-cls-9" data-color-action="fill" style="fill:inherit"/></g><g id="c21_tipped_facial" data-name="tipped facial"><path d="M28 61.75h3v3h-3z" class="c21-cls-7" transform="rotate(-180 29.5 63.25)"/><path d="M28 61.75h3v3h-3z" class="c21-cls-7" transform="rotate(-180 29.5 63.25)"/><path d="M28 61.75h3v3h-3z" class="c21-cls-7" transform="rotate(-180 29.5 63.25)"/></g><path id="c21_surface_restoration_occlusal" d="M27.25 56.18c-1.62 0-7-4-10.71-7.36l5.29-4.66a62.43 62.43 0 0 0 5.69 4.43c2.35-1.15 6-3.22 8.81-5l5.36 4.86c-5.01 3.4-13.13 7.73-14.44 7.73z" class="c21-cls-10" data-color-action="fill" style="fill:inherit" data-name="surface restoration occlusal"/><path id="c21_surface_restoration_mesial" d="M23.09 28.17c-1.29 6.43-2.73 14.2-2.76 14.63.48.45 1 .91 1.5 1.36l-5.29 4.66c-.68-.61-1.31-1.2-1.84-1.73-2.57-2.57-1.08-7.85.64-11.91l.83-1.95a11.5 11.5 0 0 0 6.92-5.06z" class="c21-cls-10" data-color-action="fill" style="fill:inherit" data-name="surface restoration mesial"/><path id="c21_surface_restoration_lingual" d="M32.27 26.73a11.41 11.41 0 0 0 1.53 3c1.68 5.84 3.55 12.3 3.87 13l-.93.6-.4.25c-2.81 1.77-6.46 3.84-8.82 5a62.44 62.44 0 0 1-5.69-4.43c-.52-.45-1-.91-1.5-1.36 0-.43 1.47-8.2 2.76-14.63a11.55 11.55 0 0 0 .9-1.81 12.57 12.57 0 0 0 8.29.38z" class="c21-cls-8 c21-cls-11" data-color-action="fill" style="fill:inherit" data-name="surface restoration lingual"/><path id="c21_surface_restoration_lingual_V" d="M31.69 23.53a11.5 11.5 0 0 0 .58 3.21 12.57 12.57 0 0 1-8.27-.39 11.33 11.33 0 0 0 .8-3.25 38 38 0 0 1 6.89.43z" class="c21-cls-8 c21-cls-11" data-color-action="fill" style="fill:inherit" data-name="surface restoration lingual V"/><path id="c21_surface_restoration_distal" d="M37.66 42.75c-.31-.71-2.19-7.16-3.87-13a11.48 11.48 0 0 0 7.73 4.72c1.63 3.49 4.27 8.74 4.16 10.45 0 .64-1.69 2-4 3.55l-5.34-4.87.4-.25z" class="c21-cls-10" data-color-action="fill" style="fill:inherit" data-name="surface restoration distal"/><g id="c21_supra-erupted"><path d="M28 61.75h3v3h-3z" class="c21-cls-7" transform="rotate(-180 29.5 63.25)"/><path d="M28 61.75h3v3h-3z" class="c21-cls-7" transform="rotate(-180 29.5 63.25)"/><path d="M28 61.75h3v3h-3z" class="c21-cls-7" transform="rotate(-180 29.5 63.25)"/></g><g id="c21_sub-erupted"><path d="M28 61.75h3v3h-3z" class="c21-cls-7" transform="rotate(-180 29.5 63.25)"/><path d="M28 61.75h3v3h-3z" class="c21-cls-7" transform="rotate(-180 29.5 63.25)"/><path d="M28 61.75h3v3h-3z" class="c21-cls-7" transform="rotate(-180 29.5 63.25)"/></g><g id="c21_sealant"><path d="M28 61.75h3v3h-3z" class="c21-cls-7" transform="rotate(-180 29.5 63.25)"/><path d="M28 61.75h3v3h-3z" class="c21-cls-7" transform="rotate(-180 29.5 63.25)"/><path d="M28 61.75h3v3h-3z" class="c21-cls-7" transform="rotate(-180 29.5 63.25)"/></g><g id="c21_root_decay" data-name="root decay"><path d="M28 61.75h3v3h-3z" class="c21-cls-7" transform="rotate(-180 29.5 63.25)"/><path d="M28 61.75h3v3h-3z" class="c21-cls-7" transform="rotate(-180 29.5 63.25)"/><path d="M28 61.75h3v3h-3z" class="c21-cls-7" transform="rotate(-180 29.5 63.25)"/></g><g id="c21_root_canal" data-name="root canal"><path d="M28 61.75h3v3h-3z" class="c21-cls-7" transform="rotate(-180 29.5 63.25)"/><path d="M28 61.75h3v3h-3z" class="c21-cls-7" transform="rotate(-180 29.5 63.25)"/><path d="M28 61.75h3v3h-3z" class="c21-cls-7" transform="rotate(-180 29.5 63.25)"/></g><g id="c21_root_abrasion" data-name="root abrasion"><path d="M28 61.75h3v3h-3z" class="c21-cls-7" transform="rotate(-180 29.5 63.25)"/><path d="M28 61.75h3v3h-3z" class="c21-cls-7" transform="rotate(-180 29.5 63.25)"/><path d="M28 61.75h3v3h-3z" class="c21-cls-7" transform="rotate(-180 29.5 63.25)"/></g><g id="c21_open_contact_mesial" data-name="open contact mesial"><path d="M28 61.75h3v3h-3z" class="c21-cls-7" transform="rotate(-180 29.5 63.25)"/><path d="M28 61.75h3v3h-3z" class="c21-cls-7" transform="rotate(-180 29.5 63.25)"/><path d="M28 61.75h3v3h-3z" class="c21-cls-7" transform="rotate(-180 29.5 63.25)"/></g><g id="c21_open_contact_distal" data-name="open contact distal"><path d="M28 61.75h3v3h-3z" class="c21-cls-7" transform="rotate(-180 29.5 63.25)"/><path d="M28 61.75h3v3h-3z" class="c21-cls-7" transform="rotate(-180 29.5 63.25)"/><path d="M28 61.75h3v3h-3z" class="c21-cls-7" transform="rotate(-180 29.5 63.25)"/></g><path id="c21_lingual_abfraction" d="M19.33 21.16a18.4 18.4 0 0 1 10.17-3.58 18.4 18.4 0 0 1 10.17 3.58 18.4 18.4 0 0 1-10.17 3.59 18.4 18.4 0 0 1-10.17-3.59z" class="c21-cls-15" data-color-action="fill" style="fill:inherit" data-name="lingual abfraction"/><g id="c21_internal_root_resorption" data-name="internal root resorption"><path d="M28 61.75h3v3h-3z" class="c21-cls-7" transform="rotate(-180 29.5 63.25)"/><path d="M28 61.75h3v3h-3z" class="c21-cls-7" transform="rotate(-180 29.5 63.25)"/><path d="M28 61.75h3v3h-3z" class="c21-cls-7" transform="rotate(-180 29.5 63.25)"/></g><g id="c21_gortex_membranes" data-name="gortex membranes"><path d="M28 61.75h3v3h-3z" class="c21-cls-7" transform="rotate(-180 29.5 63.25)"/><path d="M28 61.75h3v3h-3z" class="c21-cls-7" transform="rotate(-180 29.5 63.25)"/><path d="M28 61.75h3v3h-3z" class="c21-cls-7" transform="rotate(-180 29.5 63.25)"/></g><g id="c21_frenum_pull" data-name="frenum pull"><path d="M28 61.75h3v3h-3z" class="c21-cls-7" transform="rotate(-180 29.5 63.25)"/><path d="M28 61.75h3v3h-3z" class="c21-cls-7" transform="rotate(-180 29.5 63.25)"/><path d="M28 61.75h3v3h-3z" class="c21-cls-7" transform="rotate(-180 29.5 63.25)"/></g><g id="c21_external_root_resorption" data-name="external root resorption"><path d="M28 61.75h3v3h-3z" class="c21-cls-7" transform="rotate(-180 29.5 63.25)"/><path d="M28 61.75h3v3h-3z" class="c21-cls-7" transform="rotate(-180 29.5 63.25)"/><path d="M28 61.75h3v3h-3z" class="c21-cls-7" transform="rotate(-180 29.5 63.25)"/></g><path id="c21_three_quarter_crown" d="M43.23 38.08c1.3 2.8 2.53 5.66 2.46 6.83-.13 2-16.52 11.27-18.44 11.27s-9.09-5.64-12.55-9.09c-2-2-1.55-5.6-.45-9z" class="c21-cls-8 c21-cls-19" data-color-action="fill" style="fill:inherit" data-name="three quarter crown"/><path id="c21_crown" d="M19.82 24.81C19 26.42 17.13 31 15.33 35.18c-1.72 4.07-3.21 9.34-.64 11.91 3.46 3.46 10.63 9.09 12.55 9.09S45.56 47 45.69 44.92s-3.71-9.22-5-12.29c-1-2.44-2.43-6.15-3.07-7.43s-16.14-3.85-17.8-.39z" class="c21-cls-8 c21-cls-19" data-color-action="fill" style="fill:inherit"/><path id="c21_cracked_surface_mesial" d="M15.66 46.19l-3.83-3.84h5l-5-4.74h5l-3.82-3.83" class="c21-cls-20" data-color-action="stroke" style="stroke:inherit" data-name="cracked surface mesial"/><path id="c21_cracked_surface_lingual" d="M28.83 46.19l-3.84-3.84H30l-5.01-4.74H30l-3.83-3.83" class="c21-cls-20" data-color-action="stroke" style="stroke:inherit" data-name="cracked surface lingual"/><path id="c21_cracked_surface_lingual_V" d="M28.83 46.19l-3.84-3.84H30l-5.01-4.74H30l-3.83-3.83" class="c21-cls-20" data-color-action="stroke" style="stroke:inherit" data-name="cracked surface lingual V"/><path id="c21_cracked_surface_distal" d="M43.66 46.19l-3.83-3.84h5l-5-4.74h5L41 33.78" class="c21-cls-20" data-color-action="stroke" style="stroke:inherit" data-name="cracked surface distal"/><g id="c21_chipped_surface_mesial" class="c21-cls-8" data-name="chipped surface mesial"><path d="M19.17 44.51l-8.34-8.33M10.83 44.51l8.34-8.33" class="c21-cls-21" data-color-action="stroke" style="stroke:inherit"/></g><g id="c21_chipped_surface_lingual" class="c21-cls-8" data-name="chipped surface lingual"><path d="M31.33 44.51L23 36.18M23 44.51l8.33-8.33" class="c21-cls-21" data-color-action="stroke" style="stroke:inherit"/></g><g id="c21_chipped_surface_lingual_V" class="c21-cls-8" data-name="chipped surface lingual V"><path d="M31.33 44.51L23 36.18M23 44.51l8.33-8.33" class="c21-cls-21" data-color-action="stroke" style="stroke:inherit"/></g><g id="c21_chipped_surface_distal" class="c21-cls-8" data-name="chipped surface distal"><path d="M45.33 44.51L37 36.18M37 44.51l8.33-8.33" class="c21-cls-21" data-color-action="stroke" style="stroke:inherit"/></g><g id="c21_buccal_abfraction" data-name="buccal abfraction"><path d="M28 61.75h3v3h-3z" class="c21-cls-7" transform="rotate(-180 29.5 63.25)"/><path d="M28 61.75h3v3h-3z" class="c21-cls-7" transform="rotate(-180 29.5 63.25)"/><path d="M28 61.75h3v3h-3z" class="c21-cls-7" transform="rotate(-180 29.5 63.25)"/></g><g id="c21_braces"><path d="M28 61.75h3v3h-3z" class="c21-cls-7" transform="rotate(-180 29.5 63.25)"/><path d="M28 61.75h3v3h-3z" class="c21-cls-7" transform="rotate(-180 29.5 63.25)"/><path d="M28 61.75h3v3h-3z" class="c21-cls-7" transform="rotate(-180 29.5 63.25)"/></g><g id="c21_apicoectomy"><path d="M28 61.75h3v3h-3z" class="c21-cls-7" transform="rotate(-180 29.5 63.25)"/><path d="M28 61.75h3v3h-3z" class="c21-cls-7" transform="rotate(-180 29.5 63.25)"/><path d="M28 61.75h3v3h-3z" class="c21-cls-7" transform="rotate(-180 29.5 63.25)"/></g><g id="c21_abscess"><path d="M28 61.75h3v3h-3z" class="c21-cls-7" transform="rotate(-180 29.5 63.25)"/><path d="M28 61.75h3v3h-3z" class="c21-cls-7" transform="rotate(-180 29.5 63.25)"/><path d="M28 61.75h3v3h-3z" class="c21-cls-7" transform="rotate(-180 29.5 63.25)"/></g><g id="c21_blunted_roots" data-name="blunted roots"><path d="M28 61.75h3v3h-3z" class="c21-cls-7" transform="rotate(-180 29.5 63.25)"/><path d="M28 61.75h3v3h-3z" class="c21-cls-7" transform="rotate(-180 29.5 63.25)"/><path d="M28 61.75h3v3h-3z" class="c21-cls-7" transform="rotate(-180 29.5 63.25)"/></g><g id="c21_root_amputation" data-name="root amputation"><path d="M28 61.75h3v3h-3z" class="c21-cls-7" transform="rotate(-180 29.5 63.25)"/><path d="M28 61.75h3v3h-3z" class="c21-cls-7" transform="rotate(-180 29.5 63.25)"/><path d="M28 61.75h3v3h-3z" class="c21-cls-7" transform="rotate(-180 29.5 63.25)"/></g><g id="c21_missing_crown" data-name="missing crown"><path d="M28 61.75h3v3h-3z" class="c21-cls-7" transform="rotate(-180 29.5 63.25)"/><path d="M28 61.75h3v3h-3z" class="c21-cls-7" transform="rotate(-180 29.5 63.25)"/><path d="M28 61.75h3v3h-3z" class="c21-cls-7" transform="rotate(-180 29.5 63.25)"/><path d="M2 2h55v61.98H2z" class="c21-cls-13" transform="rotate(-180 29.5 32.99)"/></g><g id="c21_missing_tooth" data-name="missing tooth"><path d="M19.82 24.81C19 26.42 17.13 31 15.33 35.18c-1.72 4.07-3.21 9.34-.64 11.91 3.46 3.46 10.63 9.09 12.55 9.09S45.56 47 45.69 44.92s-3.71-9.22-5-12.29c-1-2.44-2.43-6.15-3.07-7.43s-16.14-3.85-17.8-.39z" class="c21-cls-2"/><path d="M19.82 24.81C19 26.42 17.13 31 15.33 35.18c-1.72 4.07-3.21 9.34-.64 11.91 3.46 3.46 10.63 9.09 12.55 9.09S45.56 47 45.69 44.92s-3.71-9.22-5-12.29c-1-2.44-2.43-6.15-3.07-7.43s-16.14-3.85-17.8-.39z" class="c21-cls-13"/><path d="M22.5 26.09c3.26.36 13.4.36 14.85 1.63.68.59 1.55 1.5 2.29 2.3-.78-2-1.58-4-2-4.82-.64-1.28-16.14-3.84-17.8-.38-.23.49-.57 1.24-1 2.17a5.27 5.27 0 0 1 3.66-.9zM14.69 47.09c3.46 3.46 10.63 9.09 12.55 9.09S45.56 47 45.69 44.92a10.5 10.5 0 0 0-1-3.53A11.31 11.31 0 0 1 43.14 44c-1.09 1.45-15.94 9.06-16.84 8.87s-7.43-4.32-10.3-7.4a10.84 10.84 0 0 1-2.49-4.29c-.41 2.35-.2 4.52 1.18 5.91z" class="c21-cls-13"/></g><g id="c21_maryland_bridge_pontic" class="c21-cls-8" data-name="maryland bridge pontic"><path d="M19.82 24.81C19 26.42 17.13 31 15.33 35.18c-1.72 4.07-3.21 9.34-.64 11.91 3.46 3.46 10.63 9.09 12.55 9.09S45.56 47 45.69 44.92s-3.71-9.22-5-12.29c-1-2.44-2.43-6.15-3.07-7.43s-16.14-3.85-17.8-.39z" class="c21-cls-14" data-color-action="fill" style="fill:inherit"/><path d="M2 33.37h55v7.67H2z" class="c21-cls-14" transform="rotate(-180 29.5 37.205)" data-color-action="fill" style="fill:inherit"/></g><g id="c21_maryland_bridge_abutment_mesial" class="c21-cls-8" data-name="maryland bridge abutment mesial"><path d="M2 34.17h20.42v7.67H2z" class="c21-cls-14" data-color-action="fill" style="fill:inherit"/><ellipse cx="21.19" cy="38.01" class="c21-cls-14" rx="5.61" ry="12.9" data-color-action="fill" style="fill:inherit"/></g><g id="c21_maryland_bridge_abutment_distal" class="c21-cls-8" data-name="maryland bridge abutment distal"><path d="M36.58 34.17H57v7.67H36.58z" class="c21-cls-14" data-color-action="fill" style="fill:inherit"/><ellipse cx="37.81" cy="38.01" class="c21-cls-14" rx="5.61" ry="12.9" data-color-action="fill" style="fill:inherit"/></g><g id="c21_maryland_bridge_abutment" class="c21-cls-8" data-name="maryland bridge abutment"><path d="M2 34.17h20.42v7.67H2zM36.58 34.17H57v7.67H36.58z" class="c21-cls-14" data-color-action="fill" style="fill:inherit"/><ellipse cx="37.81" cy="38.01" class="c21-cls-14" rx="5.61" ry="12.9" data-color-action="fill" style="fill:inherit"/><ellipse cx="21.19" cy="38.01" class="c21-cls-14" rx="5.61" ry="12.9" data-color-action="fill" style="fill:inherit"/></g><g id="c21_bridge_abutment_mesial" class="c21-cls-8" data-name="bridge abutment mesial"><path d="M19.82 24.81C19 26.42 17.13 31 15.33 35.18c-1.72 4.07-3.21 9.34-.64 11.91 3.46 3.46 10.63 9.09 12.55 9.09S45.56 47 45.69 44.92s-3.71-9.22-5-12.29c-1-2.44-2.43-6.15-3.07-7.43s-16.14-3.85-17.8-.39z" class="c21-cls-11" data-color-action="fill" style="fill:inherit"/><path d="M2 33.6h34.98v7.67H2z" class="c21-cls-11" transform="rotate(-180 19.49 37.43)" data-color-action="fill" style="fill:inherit"/></g><g id="c21_bridge_abutment_distal" class="c21-cls-8" data-name="bridge abutment distal"><path d="M19.82 24.81C19 26.42 17.13 31 15.33 35.18c-1.72 4.07-3.21 9.34-.64 11.91 3.46 3.46 10.63 9.09 12.55 9.09S45.56 47 45.69 44.92s-3.71-9.22-5-12.29c-1-2.44-2.43-6.15-3.07-7.43s-16.14-3.85-17.8-.39z" class="c21-cls-11" data-color-action="fill" style="fill:inherit"/><path d="M22.02 33.6H57v7.67H22.02z" class="c21-cls-11" transform="rotate(-180 39.51 37.43)" data-color-action="fill" style="fill:inherit"/></g><g id="c21_bridge_abutment" class="c21-cls-8" data-name="bridge abutment"><path d="M19.82 24.81C19 26.42 17.13 31 15.33 35.18c-1.72 4.07-3.21 9.34-.64 11.91 3.46 3.46 10.63 9.09 12.55 9.09S45.56 47 45.69 44.92s-3.71-9.22-5-12.29c-1-2.44-2.43-6.15-3.07-7.43s-16.14-3.85-17.8-.39z" class="c21-cls-11" data-color-action="fill" style="fill:inherit"/><path d="M2 33.6h55v7.67H2z" class="c21-cls-11" transform="rotate(-180 29.5 37.43)" data-color-action="fill" style="fill:inherit"/></g><g id="c21_bridge_pontic" class="c21-cls-8" data-name="bridge pontic"><path d="M19.82 24.81C19 26.42 17.13 31 15.33 35.18c-1.72 4.07-3.21 9.34-.64 11.91 3.46 3.46 10.63 9.09 12.55 9.09S45.56 47 45.69 44.92s-3.71-9.22-5-12.29c-1-2.44-2.43-6.15-3.07-7.43s-16.14-3.85-17.8-.39z" class="c21-cls-11" data-color-action="fill" style="fill:inherit"/><path d="M2 33.6h55v7.67H2z" class="c21-cls-11" transform="rotate(-180 29.5 37.43)" data-color-action="fill" style="fill:inherit"/></g><g id="c21_implant_mini" data-name="implant mini"><path d="M2 2h55v61.98H2z" class="c21-cls-13" transform="rotate(-180 29.5 32.99)"/><path d="M29.28 0h.44l1 8.5v40.83h-2.44V8.5l1-8.5z" class="c21-cls-11" data-color-action="fill" style="fill:inherit"/><path d="M29.58 0h.07l.4 8.5v40.83h-.37V8.5l-.1-8.5z" class="c21-cls-16"/><path d="M28.28 48.7h2.44v.63h-2.44z" class="c21-cls-17" transform="rotate(-180 29.5 49.015)" data-color-action="fill" style="fill:inherit"/><g class="c21-cls-18"><path d="M30.72 48.7l-2.44-1v.63l2.44 1v-.63zM30.72 47.26l-2.44-1v.63l2.44 1v-.63zM30.72 45.81l-2.44-1v.63l2.44 1v-.63zM30.72 44.36l-2.44-1V44l2.44 1v-.64zM30.72 42.92l-2.44-1v.63l2.44 1v-.63zM30.72 41.47l-2.44-1v.63l2.44 1.01v-.64zM30.72 40.03l-2.44-1v.63l2.44 1v-.63zM30.72 38.58l-2.44-1v.63l2.44 1.01v-.64zM30.72 37.14l-2.44-1v.63l2.44 1v-.63zM30.72 35.69l-2.44-1v.63l2.44 1v-.63zM30.72 34.25l-2.44-1.01v.64l2.44 1v-.63zM30.72 32.8l-2.44-1v.63l2.44 1v-.63zM30.72 31.36l-2.44-1v.63l2.44 1v-.63zM30.72 29.91l-2.44-1v.63l2.44 1v-.63zM30.72 28.46l-2.44-1v.64l2.44 1v-.64zM30.72 27.02l-2.44-1v.63l2.44 1v-.63zM30.72 25.57l-2.44-1v.63l2.44 1.01v-.64zM30.72 24.13l-2.44-1v.63l2.44 1v-.63zM30.72 22.68l-2.44-1v.63l2.44 1.01v-.64zM30.72 21.24l-2.44-1v.63l2.44 1v-.63zM30.72 19.79l-2.44-1v.63l2.44 1v-.63zM30.72 18.35l-2.44-1.01v.64l2.44 1v-.63zM30.72 16.9l-2.44-1v.63l2.44 1v-.63zM30.72 15.46l-2.44-1v.63l2.44 1v-.63zM30.72 14.01l-2.44-1v.63l2.44 1v-.63zM30.72 12.56l-2.44-1v.64l2.44 1v-.64zM30.72 11.12l-2.44-1v.63l2.44 1v-.63zM30.72 9.67l-2.44-1v.63l2.44 1.01v-.64zM30.72 8.5l-.03-.29-2.27-.92-.07.6 2.37.97V8.5zM30.51 6.7l-1.93-.79-.07.6 2.08.85-.08-.66zM30.33 5.18l-1.58-.65-.08.6 1.74.71-.08-.66zM30.15 3.66l-1.24-.51-.07.6 1.39.57-.08-.66zM29.97 2.14l-.9-.37-.07.6 1.05.43-.08-.66zM29.8.62l-.57-.23-.07.6.71.3-.07-.67z" class="c21-cls-17" data-color-action="fill" style="fill:inherit"/></g><circle cx="29.5" cy="53.21" r="2.24" class="c21-cls-11" data-color-action="fill" style="fill:inherit"/><path d="M27.67 48.99h3.67v3h-3.67z" class="c21-cls-11" transform="rotate(-180 29.5 50.49)" data-color-action="fill" style="fill:inherit"/><path d="M29.96 48.99h.55v3h-.55z" class="c21-cls-16"/><path d="M30.3 54.56h.21a2.32 2.32 0 0 0 .49-1.28 2.37 2.37 0 0 0-.52-1.3H30a2 2 0 0 1 .73 1.37 1.5 1.5 0 0 1-.43 1.21z" class="c21-cls-16"/><path d="M28.28 42.63h2.44v.63h-2.44z" class="c21-cls-17" transform="rotate(-180 29.5 42.95)" data-color-action="fill" style="fill:inherit"/><path d="M26.89 49.01h5.22l-.87-5.71h-3.48l-.87 5.71z" class="c21-cls-11" data-color-action="fill" style="fill:inherit"/><path d="M30.15 49.01h.79l-.48-5.71h-.53l.22 5.71z" class="c21-cls-16"/></g><g id="c21_implant_cylinder" data-name="implant cylinder"><path d="M2 2h55v61.98H2z" class="c21-cls-13" transform="rotate(-180 29.5 32.99)"/><path d="M26.17 3h6.67v49.33h-6.67z" class="c21-cls-11" transform="rotate(-180 29.5 27.665)" data-color-action="fill" style="fill:inherit"/><path d="M24.5 0h10v3h-10z" class="c21-cls-11" transform="rotate(-180 29.5 1.5)" data-color-action="fill" style="fill:inherit"/><path d="M30 3h1v49.33h-1z" class="c21-cls-16" transform="rotate(-180 30.5 27.665)"/><path d="M30.75 0h1.5v3h-1.5z" class="c21-cls-16" transform="rotate(-180 31.5 1.5)"/><path d="M24.5 52.36h10v3h-10z" class="c21-cls-11" transform="rotate(-180 29.5 53.86)" data-color-action="fill" style="fill:inherit"/><path d="M30.75 52.36h1.5v3h-1.5z" class="c21-cls-16" transform="rotate(-180 31.5 53.86)"/><path d="M26.17 3h6.67v.63h-6.67z" class="c21-cls-17" transform="rotate(-180 29.5 3.315)" data-color-action="fill" style="fill:inherit"/><path d="M26.17 51.7h6.67v.63h-6.67z" class="c21-cls-17" transform="rotate(-180 29.5 52.015)" data-color-action="fill" style="fill:inherit"/><g class="c21-cls-18"><path d="M26.17 50.7l6.66 1v.63l-6.66-1v-.63zM26.17 49.25l6.66 1v.63l-6.66-1v-.63zM26.17 47.81l6.66 1v.63l-6.66-1v-.63zM26.17 46.36l6.66 1v.63l-6.66-1v-.63zM26.17 44.92l6.66 1v.63l-6.66-1v-.63zM26.17 43.47l6.66 1v.63l-6.66-1v-.63zM26.17 42.02l6.66 1v.64l-6.66-1v-.64zM26.17 40.58l6.66 1v.63l-6.66-1v-.63zM26.17 39.13l6.66 1v.64l-6.66-1v-.64zM26.17 37.69l6.66 1v.63l-6.66-1v-.63zM26.17 36.24l6.66 1v.64l-6.66-1v-.64zM26.17 34.8l6.66 1v.63l-6.66-1v-.63zM26.17 33.35l6.66 1v.63l-6.66-1v-.63zM26.17 31.91l6.66 1v.63l-6.66-1v-.63zM26.17 30.46l6.66 1v.63l-6.66-1v-.63zM26.17 29.02l6.66 1v.63l-6.66-1v-.63zM26.17 27.57l6.66 1v.63l-6.66-1v-.63zM26.17 26.13l6.66 1v.63l-6.66-1v-.63zM26.17 24.68l6.66 1v.63l-6.66-1v-.63zM26.17 23.23l6.66 1v.64l-6.66-1v-.64zM26.17 21.79l6.66 1v.63l-6.66-1v-.63zM26.17 20.34l6.66 1v.64l-6.66-1v-.64zM26.17 18.9l6.66 1v.63l-6.66-1v-.63zM26.17 17.45l6.66 1v.64l-6.66-1.01v-.63zM26.17 16.01l6.66 1v.63l-6.66-1v-.63zM26.17 14.56l6.66 1v.63l-6.66-1v-.63zM26.17 13.12l6.66 1v.63l-6.66-1v-.63zM26.17 11.67l6.66 1v.63l-6.66-1v-.63zM26.17 10.22l6.66 1v.64l-6.66-1v-.64zM26.17 8.78l6.66 1v.63l-6.66-1v-.63zM26.17 7.33l6.66 1.01v.63l-6.66-1v-.64zM26.17 5.89l6.66 1v.63l-6.66-1v-.63zM26.17 4.44l6.66 1v.64l-6.66-1v-.64zM26.17 3l6.66 1v.63l-6.66-1V3z" class="c21-cls-17" data-color-action="fill" style="fill:inherit"/></g></g><g id="c21_implant_blade" data-name="implant blade"><path d="M2 2h55v61.98H2z" class="c21-cls-13" transform="rotate(-180 29.5 32.99)"/><path d="M26.17 3.03h6.67v49.33h-6.67z" class="c21-cls-11" transform="rotate(-180 29.5 27.69)" data-color-action="fill" style="fill:inherit"/><path d="M24.5 52.36h10v3h-10z" class="c21-cls-11" transform="rotate(-180 29.5 53.86)" data-color-action="fill" style="fill:inherit"/><path d="M30 3.03h1v49.33h-1z" class="c21-cls-16" transform="rotate(-180 30.5 27.69)"/><path d="M30.75 52.36h1.5v3h-1.5z" class="c21-cls-16" transform="rotate(-180 31.5 53.86)"/><path d="M26.17 51.73h6.67v.63h-6.67z" class="c21-cls-17" transform="rotate(-180 29.5 52.045)" data-color-action="fill" style="fill:inherit"/></g><path id="c21_border" d="M0 0h59v66H0z" class="c21-cls-7" transform="rotate(-180 29.5 33)"/></defs></g></svg>