<svg xmlns="http://www.w3.org/2000/svg" viewBox="0 0 59 283"><defs><style>.a23-cls-1{isolation:isolate}.a23-cls-2,.a23-cls-25{fill:#c5c7c9}.a23-cls-25{stroke:none}.a23-cls-2{stroke:#c5c7c9;stroke-width:5px}.a23-cls-19,.a23-cls-2,.a23-cls-22,.a23-cls-24,.a23-cls-26,.a23-cls-27,.a23-cls-30,.a23-cls-32,.a23-cls-33{stroke-miterlimit:10}.a23-cls-3{fill:#f5d7cf;stroke:none}.a23-cls-4,.a23-cls-5{fill:#f2c6bc;stroke:none}.a23-cls-5{fill:#fae8e3}.a23-cls-6,.a23-cls-7{fill:#eeefef;stroke:none}.a23-cls-7{fill:#e2e3e4}.a23-cls-8,.a23-cls-9{fill:#fbfbfb;stroke:none}.a23-cls-9{font-size:15px;fill:#929497;font-family:ProximaNova-Semibold,Proxima Nova,sans-serif;font-weight:700}.a23-cls-10,.a23-cls-28,.a23-cls-36{fill:#3c3d3d;stroke:none}.a23-cls-10{opacity:.55}.a23-cls-11{fill:#ffd403;stroke:none}.a23-cls-13,.a23-cls-21{fill:#ffef3e;stroke:none}.a23-cls-14,.a23-cls-20{fill:#c52636;stroke:none}.a23-cls-15{fill:none;stroke:none}.a23-cls-19,.a23-cls-22,.a23-cls-24,.a23-cls-26,.a23-cls-27,.a23-cls-30,.a23-cls-32,.a23-cls-33{fill:none}.a23-cls-16,.a23-cls-37{fill:#28418b;stroke:none}.a23-cls-17,.a23-cls-18{fill:#787878;stroke:none}.a23-cls-19,.a23-cls-22,.a23-cls-24,.a23-cls-30,.a23-cls-32,.a23-cls-33{stroke:#c52636}.a23-cls-19,.a23-cls-22,.a23-cls-27{stroke-width:2px}.a23-cls-22{stroke-linecap:round}.a23-cls-23{fill:#fff;stroke:none}.a23-cls-26,.a23-cls-27{stroke:#28418b}.a23-cls-26{stroke-width:3px}.a23-cls-29{opacity:.6}.a23-cls-30{stroke-width:4px}.a23-cls-31{fill:#f05b85;stroke:none}.a23-cls-32,.a23-cls-33{stroke-width:1.25px}.a23-cls-34{fill:#9b9999;stroke:none}.a23-cls-35{fill:#dbdbdc;stroke:none}.a23-cls-38{font-size:33px;fill:#28418b;font-family:ProximaNova-Semibold,Proxima Nova,sans-serif;font-weight:700;stroke:none}.c23-cls-1{isolation:isolate}.c23-cls-16,.c23-cls-2{fill:#c5c7c9;stroke:none}.c23-cls-2{stroke:#c5c7c9;stroke-width:5px}.c23-cls-2,.c23-cls-20,.c23-cls-21{stroke-miterlimit:10}.c23-cls-3{fill:#eeefef;stroke:none}.c23-cls-4,.c23-cls-5{fill:#e2e3e4;stroke:none}.c23-cls-5{fill:#fbfbfb}.c23-cls-17,.c23-cls-6{fill:#3c3d3d;stroke:none}.c23-cls-6{opacity:.55}.c23-cls-20,.c23-cls-21{fill:none}.c23-cls-7,.c23-cls-9{fill:none;stroke:none}.c23-cls-9{fill:#28418b}.c23-cls-10,.c23-cls-11{fill:#787878;stroke:none}.c23-cls-12,.c23-cls-19{fill:#ffef3e;stroke:none}.c23-cls-13{fill:#fff;stroke:none}.c23-cls-14,.c23-cls-15{fill:#c52636;stroke:none}.c23-cls-18{opacity:.6}.c23-cls-20,.c23-cls-21{stroke:#c52636;stroke-width:1.25px}.a23-msng-cls-1{isolation:isolate}.a23-msng-cls-2{fill:#c5c7c9;stroke:#c5c7c9;stroke-width:5px}.a23-msng-cls-11,.a23-msng-cls-2{stroke-miterlimit:10}.a23-msng-cls-3{fill:#f5d7cf;stroke:none}.a23-msng-cls-4{fill:#f2c6bc;stroke:none}.a23-msng-cls-5{fill:#fae8e3;stroke:none}.a23-msng-cls-6{fill:#eeefef;stroke:none}.a23-msng-cls-7{fill:#e2e3e4;stroke:none}.a23-msng-cls-8{fill:#fbfbfb;stroke:none}.a23-msng-cls-9{font-size:15px;fill:#929497;font-family:ProximaNova-Semibold,Proxima Nova;font-weight:700;stroke:none}.a23-msng-cls-11{fill:none}.a23-msng-cls-12{fill:none;stroke:none}.a23-msng-cls-11{stroke:#787878;stroke-width:6.25px}</style></defs><g class="a23-cls-1" transform="translate(0 122)"><g id="_23A" data-name="#23A"><path d="M40.42 46c4.08-5.36 4-27.38 1.62-31.78-2.31-4.22-23.65-4.9-25.36-3.44-2.16 1.85-2 28.82 2.31 34.84l.11.13c.76 8.67 3.32 31.84 4 37 1.48 11.59 9.37 33.66 12.94 33s1-21.08 1.36-35A245.88 245.88 0 0 1 40.42 46z" class="a23-cls-2"/><path d="M18.88 42.68c0 3 3.42 34 4.19 40.07 1.48 11.59 9.37 33.66 12.94 33s1-21.08 1.36-35a250.41 250.41 0 0 1 3.33-36.59c1.05-6.97-21.82-11.59-21.82-1.48z" class="a23-cls-3"/><path d="M23.88 74.08c-.9-7.53-2.15-23.48-2.15-26.35 0-1.58-1.26-4.75-2.38-7.27a5.32 5.32 0 0 0-.46 2.22c0 3 3.42 34 4.19 40.07a105.12 105.12 0 0 0 8.83 28.31 50.62 50.62 0 0 1-3-8.65c-1.62-6.64-4.13-20.8-5.03-28.33zM37.37 80.77a250.4 250.4 0 0 1 3.33-36.61 3.14 3.14 0 0 0-.14-1.46l-2.16 2.16s-1.79 13.44-2.33 22.41-.18 25.63.54 30.29c.34 2.22.85 4.73 1.32 7.16-.1-7.16-.75-16.49-.56-23.95z" class="a23-cls-4"/><path d="M31.44 48.31c-.42 3.63-.73 7.6-.15 22.64s3 41.64 4.53 41.64c.44 0-1.9-29.07-2.19-37.11s.58-23.52 1-27.61-2.75-3.36-3.19.44z" class="a23-cls-5"/><path d="M19 45.61c-4.35-6-4.47-33-2.31-34.84C18.39 9.32 39.73 10 42 14.24c2.51 4.6 2.47 28.4-2.18 32.4-2.51 2.2-17.56 3.5-20.82-1.03z" class="a23-cls-6"/><path d="M20.85 46.11c-3.33-5.89-3.64-30.85-2.24-35.84a4.5 4.5 0 0 0-1.94.5c-2.16 1.85-2 28.82 2.31 34.84a6.73 6.73 0 0 0 3.57 2.18 4.76 4.76 0 0 1-1.7-1.68zM42 14.24a5.27 5.27 0 0 0-2.78-1.91 2.76 2.76 0 0 1 .55.81C41.87 18 41.84 43 38 47.19a3 3 0 0 1-.72.55 7 7 0 0 0 2.56-1.1c4.67-4 4.71-27.8 2.16-32.4z" class="a23-cls-7"/><path d="M31.58 29.88c0 6-.52 15.47-.63 18.74 1 0 2.05-.13 3-.25A140 140 0 0 0 35.51 30c0-4.44-.24-14.53-.71-18.9-1.39-.26-2.87-.47-4.38-.64.43 3.99 1.16 13.49 1.16 19.42z" class="a23-cls-8"/><text class="a23-cls-9" transform="translate(21.2 150.74)">73</text></g><defs><g id="a73_bone_graft" data-name="bone graft"><path d="M2 45.83h55v91.86H2z" class="a23-cls-16" transform="rotate(-180 29.5 91.76)" data-color-action="fill" style="fill:inherit"/><path d="M40.42 46c4.08-5.36 4-27.38 1.62-31.78-2.31-4.22-23.65-4.9-25.36-3.44-2.16 1.85-2 28.82 2.31 34.84l.11.13c.76 8.67 3.32 31.84 4 37 1.48 11.59 9.37 33.66 12.94 33s1-21.08 1.36-35A245.88 245.88 0 0 1 40.42 46z" class="a23-cls-2"/><path d="M18.88 42.68c0 3 3.42 34 4.19 40.07 1.48 11.59 9.37 33.66 12.94 33s1-21.08 1.36-35a250.41 250.41 0 0 1 3.33-36.59c1.05-6.97-21.82-11.59-21.82-1.48z" class="a23-cls-3"/><path d="M23.88 74.08c-.9-7.53-2.15-23.48-2.15-26.35 0-1.58-1.26-4.75-2.38-7.27a5.32 5.32 0 0 0-.46 2.22c0 3 3.42 34 4.19 40.07a105.12 105.12 0 0 0 8.83 28.31 50.62 50.62 0 0 1-3-8.65c-1.62-6.64-4.13-20.8-5.03-28.33zM37.37 80.77a250.4 250.4 0 0 1 3.33-36.61 3.14 3.14 0 0 0-.14-1.46l-2.16 2.16s-1.79 13.44-2.33 22.41-.18 25.63.54 30.29c.34 2.22.85 4.73 1.32 7.16-.1-7.16-.75-16.49-.56-23.95z" class="a23-cls-4"/><path d="M31.44 48.31c-.42 3.63-.73 7.6-.15 22.64s3 41.64 4.53 41.64c.44 0-1.9-29.07-2.19-37.11s.58-23.52 1-27.61-2.75-3.36-3.19.44z" class="a23-cls-5"/><path d="M19 45.61c-4.35-6-4.47-33-2.31-34.84C18.39 9.32 39.73 10 42 14.24c2.51 4.6 2.47 28.4-2.18 32.4-2.51 2.2-17.56 3.5-20.82-1.03z" class="a23-cls-6"/><path d="M20.85 46.11c-3.33-5.89-3.64-30.85-2.24-35.84a4.5 4.5 0 0 0-1.94.5c-2.16 1.85-2 28.82 2.31 34.84a6.73 6.73 0 0 0 3.57 2.18 4.76 4.76 0 0 1-1.7-1.68zM42 14.24a5.27 5.27 0 0 0-2.78-1.91 2.76 2.76 0 0 1 .55.81C41.87 18 41.84 43 38 47.19a3 3 0 0 1-.72.55 7 7 0 0 0 2.56-1.1c4.67-4 4.71-27.8 2.16-32.4z" class="a23-cls-7"/><path d="M31.58 29.88c0 6-.52 15.47-.63 18.74 1 0 2.05-.13 3-.25A140 140 0 0 0 35.51 30c0-4.44-.24-14.53-.71-18.9-1.39-.26-2.87-.47-4.38-.64.43 3.99 1.16 13.49 1.16 19.42z" class="a23-cls-8"/></g><g id="a73_splinted_crowns" data-name="splinted crowns"><path d="M2 45.26h55v7.67H2z" class="a23-cls-21" transform="rotate(-180 29.5 49.09)" data-color-action="fill" style="fill:inherit"/><path d="M40.42 46c4.08-5.36 4-27.38 1.62-31.78-2.31-4.22-23.65-4.9-25.36-3.44-2.16 1.85-2 28.82 2.31 34.84l.11.13c.76 8.67 3.32 31.84 4 37 1.48 11.59 9.37 33.66 12.94 33s1-21.08 1.36-35A245.88 245.88 0 0 1 40.42 46z" class="a23-cls-2"/><path d="M18.88 42.68c0 3 3.42 34 4.19 40.07 1.48 11.59 9.37 33.66 12.94 33s1-21.08 1.36-35a250.41 250.41 0 0 1 3.33-36.59c1.05-6.97-21.82-11.59-21.82-1.48z" class="a23-cls-3"/><path d="M23.88 74.08c-.9-7.53-2.15-23.48-2.15-26.35 0-1.58-1.26-4.75-2.38-7.27a5.32 5.32 0 0 0-.46 2.22c0 3 3.42 34 4.19 40.07a105.12 105.12 0 0 0 8.83 28.31 50.62 50.62 0 0 1-3-8.65c-1.62-6.64-4.13-20.8-5.03-28.33zM37.37 80.77a250.4 250.4 0 0 1 3.33-36.61 3.14 3.14 0 0 0-.14-1.46l-2.16 2.16s-1.79 13.44-2.33 22.41-.18 25.63.54 30.29c.34 2.22.85 4.73 1.32 7.16-.1-7.16-.75-16.49-.56-23.95z" class="a23-cls-4"/><path d="M31.44 48.31c-.42 3.63-.73 7.6-.15 22.64s3 41.64 4.53 41.64c.44 0-1.9-29.07-2.19-37.11s.58-23.52 1-27.61-2.75-3.36-3.19.44z" class="a23-cls-5"/><path d="M19 45.61c-4.35-6-4.47-33-2.31-34.84C18.39 9.32 39.73 10 42 14.24c2.51 4.6 2.47 28.4-2.18 32.4-2.51 2.2-17.56 3.5-20.82-1.03z" class="a23-cls-6"/><path d="M20.85 46.11c-3.33-5.89-3.64-30.85-2.24-35.84a4.5 4.5 0 0 0-1.94.5c-2.16 1.85-2 28.82 2.31 34.84a6.73 6.73 0 0 0 3.57 2.18 4.76 4.76 0 0 1-1.7-1.68zM42 14.24a5.27 5.27 0 0 0-2.78-1.91 2.76 2.76 0 0 1 .55.81C41.87 18 41.84 43 38 47.19a3 3 0 0 1-.72.55 7 7 0 0 0 2.56-1.1c4.67-4 4.71-27.8 2.16-32.4z" class="a23-cls-7"/><path d="M31.58 29.88c0 6-.52 15.47-.63 18.74 1 0 2.05-.13 3-.25A140 140 0 0 0 35.51 30c0-4.44-.24-14.53-.71-18.9-1.39-.26-2.87-.47-4.38-.64.43 3.99 1.16 13.49 1.16 19.42z" class="a23-cls-8"/></g><path id="a73_facial_V" d="M37.32 47.73c-3.89 1-10.79 1.4-15.11-.05a13.7 13.7 0 0 1 15.11.05z" class="a23-cls-10" data-color-action="fill" style="fill:inherit" data-name="facial V"/><ellipse id="a73_mid_facial" cx="29.62" cy="32.21" class="a23-cls-10" rx="4.66" ry="9.56" data-color-action="fill" style="fill:inherit" data-name="mid facial"/><path id="a73_mesial" d="M15.33 19.83l4.31 2.59c-.77 2.22-.35 5.32-.82 8.51A4.35 4.35 0 0 1 16 34.31a107.2 107.2 0 0 1-.67-14.48z" class="a23-cls-10" data-color-action="fill" style="fill:inherit"/><path id="a73_line_angle_2" d="M19.64 22.42a4 4 0 0 1 2.45-2.59 12.57 12.57 0 0 1 3.35-.74l-1.67-6a32 32 0 0 0-8 .49 53.35 53.35 0 0 0-.46 6.23z" class="a23-cls-10" data-color-action="fill" style="fill:inherit" data-name="line angle 2"/><path id="a73_facial" d="M23.77 13.11l1.67 6a35.69 35.69 0 0 1 9.64.47l1.19-5.25a79.66 79.66 0 0 0-12.5-1.22z" class="a23-cls-10" data-color-action="fill" style="fill:inherit"/><path id="a73_line_angle_1" d="M35.09 19.56c.58.12 1.1.24 1.52.38 1.22.38 2 1.63 2.55 3.2l4.22-2.72a34.76 34.76 0 0 0-.54-3.71c-1.12-1-3.56-1.83-6.56-2.41z" class="a23-cls-10" data-color-action="fill" style="fill:inherit" data-name="line angle 1"/><path id="a73_distal" d="M40.43 30.15a34.5 34.5 0 0 0-1.27-7l4.22-2.72a79.39 79.39 0 0 1 0 13.88 5.34 5.34 0 0 1-2.95-4.16z" class="a23-cls-10" data-color-action="fill" style="fill:inherit"/><path id="a73_mesial_incisal" d="M23.77 13.11l-.84-3c-3.23 0-5.71.24-6.25.7a5.65 5.65 0 0 0-.88 2.82 32 32 0 0 1 7.97-.52z" class="a23-cls-10" data-color-action="fill" style="fill:inherit" data-name="mesial incisal"/><path id="a73_central_incisal" d="M36.28 14.31l.61-2.72a63.91 63.91 0 0 0-14-1.51l.84 3a79.66 79.66 0 0 1 12.55 1.23z" class="a23-cls-10" data-color-action="fill" style="fill:inherit" data-name="central incisal"/><path id="a73_distal_incisal" d="M42.84 16.72a9.66 9.66 0 0 0-.8-2.48c-.61-1.12-2.57-2-5.15-2.64l-.61 2.72c3 .57 5.44 1.36 6.56 2.4z" class="a23-cls-10" data-color-action="fill" style="fill:inherit" data-name="distal incisal"/><path id="a73_veneer" d="M19 45.61c-4.35-6-4.47-33-2.31-34.84C18.39 9.32 39.73 10 42 14.24c2.51 4.6 2.47 28.4-2.18 32.4-2.51 2.2-17.56 3.5-20.82-1.03z" class="a23-cls-12 a23-cls-13" data-color-action="fill" style="fill:inherit"/><path id="a73_tissue_graft" d="M12.03 63.34L29.5 49.46l17.47 13.88H12.03z" class="a23-cls-14" data-color-action="fill" style="fill:inherit" data-name="tissue graft"/><path id="a73_tipped_lingual" d="M28 154.75h3v3h-3z" class="a23-cls-15" transform="rotate(-180 29.5 156.25)" data-name="tipped lingual"/><g id="a73_tipped_facial" class="a23-cls-12" data-name="tipped facial"><path d="M33.15 6.5c-1.26-3.37-4.74-3.85-7.69 5.32-.5 1.56-4.42 1.76-3.84 0 2-6.08 5.31-10.2 9.06-9.27a4.86 4.86 0 0 1 3 3.38c-.19.17-.42.42-.53.57z" class="a23-cls-16" data-color-action="fill" style="fill:inherit"/><path d="M31.07 9.42H18.13l2.94 9.64 10-9.64z" class="a23-cls-16" data-color-action="fill" style="fill:inherit"/></g><path id="a73_surface_restoration_incisal" d="M42 14.24C39.73 10 18.39 9.32 16.68 10.78a.91.91 0 0 0-.15.18l5.89 6.43v-.31h.3a52.31 52.31 0 0 1 13.41 1.55v.21l5.89-4.52z" class="a23-cls-17" data-color-action="fill" style="fill:inherit" data-name="surface restoration incisal"/><path id="a73_surface_restoration_mesial" d="M16.29 36.7a11.52 11.52 0 0 1 6.56 6.08 253.59 253.59 0 0 1-.44-25.39L16.52 11c-1.42 2.09-1.72 15.86-.23 25.7z" class="a23-cls-17" data-color-action="fill" style="fill:inherit" data-name="surface restoration mesial"/><path id="a73_surface_restoration_facial" d="M35.15 45.68a11.59 11.59 0 0 1 .9-2.6c.68-8.58.91-20.71.09-24.45a52.31 52.31 0 0 0-13.41-1.55h-.3a249.71 249.71 0 0 0 .42 25.69 11.57 11.57 0 0 1 .77 2.33 13.9 13.9 0 0 1 11.53.57z" class="a23-cls-12 a23-cls-18" data-color-action="fill" style="fill:inherit" data-name="surface restoration facial"/><path id="a73_surface_restoration_facial_V" d="M23.84 48.11a32.6 32.6 0 0 0 11 .11v-.1a11.31 11.31 0 0 1 .28-2.44 13.9 13.9 0 0 0-11.53-.57 11.36 11.36 0 0 1 .26 2.39c.03.21 0 .41-.01.61z" class="a23-cls-12 a23-cls-18" data-color-action="fill" style="fill:inherit" data-name="surface restoration facial V"/><path id="a73_surface_restoration_distal" d="M36.18 18.84c.77 3.95.54 15.8-.13 24.24a11.52 11.52 0 0 1 7-6c1.13-8.47.59-19.66-1-22.78z" class="a23-cls-17" data-color-action="fill" style="fill:inherit" data-name="surface restoration distal"/><g id="a73_supra-erupted" class="a23-cls-12"><path d="M29.5 55.12v7.68" class="a23-cls-19" data-color-action="stroke" style="stroke:inherit"/><path d="M25.51 56.29l3.99-6.91 3.99 6.91h-7.98z" class="a23-cls-20" data-color-action="fill" style="fill:inherit"/></g><g id="a73_sub-erupted" class="a23-cls-12"><path d="M29.5 57.06v-7.68" class="a23-cls-19" data-color-action="stroke" style="stroke:inherit"/><path d="M33.49 55.89L29.5 62.8l-3.99-6.91h7.98z" class="a23-cls-20" data-color-action="fill" style="fill:inherit"/></g><text id="a73_sealant" class="a23-cls-38" transform="translate(19.7 -18.45)" data-color-action="fill" style="fill:inherit">S</text><g id="a73_rotated_mesial" class="a23-cls-12" data-name="rotated mesial"><path d="M53.13 32.82c3-1.79 2.3-5.46-10.23-5.81-5.3-.15-8.95 0-8.95 0L34 24s1-.07 8.22.24c7.62.32 14 1.83 13.75 6a4 4 0 0 1-2.31 2.92c-.15-.16-.4-.27-.53-.34z" class="a23-cls-16" data-color-action="fill" style="fill:inherit"/><path d="M40.43 31.53V19.64l-10.4 5.9 10.4 5.99z" class="a23-cls-16" data-color-action="fill" style="fill:inherit"/></g><g id="a73_rotated_distal" class="a23-cls-12" data-name="rotated distal"><path d="M5.87 32.82C2.88 31 3.56 27.36 16.1 27c5.3-.15 8.95 0 8.95 0L25 24s-1-.07-8.22.24c-7.62.32-14 1.83-13.75 6a4 4 0 0 0 2.31 2.92c.15-.16.4-.27.53-.34z" class="a23-cls-16" data-color-action="fill" style="fill:inherit"/><path d="M18.57 31.53V19.64l10.4 5.9-10.4 5.99z" class="a23-cls-16" data-color-action="fill" style="fill:inherit"/></g><circle id="a73_root_decay" cx="33" cy="99.38" r="4.33" class="a23-cls-12 a23-cls-18" data-color-action="fill" style="fill:inherit" data-name="root decay"/><path id="a73_root_canal" d="M35.63 112.13l-5.75-60.88" class="a23-cls-22" data-color-action="stroke" style="stroke:inherit" data-name="root canal"/><path id="a73_root_abrasion" d="M30.71 86.54h3.5v13.83h-3.5z" class="a23-cls-12 a23-cls-24" transform="rotate(-180 32.46 93.46)" data-color-action="stroke" style="stroke:inherit" data-name="root abrasion"/><g id="a73_post"><path d="M28.35 29.84h3.14v41.77h-3.14z" class="a23-cls-18" transform="rotate(-180 29.925 50.725)" data-color-action="fill" style="fill:inherit"/><path d="M30.16 29.84h.47v41.77h-.47z" class="a23-cls-25" transform="rotate(-180 30.4 50.725)"/></g><g id="a73_pins"><path d="M31.26 37.84h2.42v23.43h-2.42z" class="a23-cls-18" transform="rotate(-180 32.465 49.56)" data-color-action="fill" style="fill:inherit"/><path d="M32.65 37.84h.36v23.43h-.36z" class="a23-cls-25" transform="rotate(-180 32.83 49.56)"/><path d="M26.68 37.84h2.42v23.43h-2.42z" class="a23-cls-18" transform="rotate(-180 27.885 49.56)" data-color-action="fill" style="fill:inherit"/><path d="M28.07 37.84h.36v23.43h-.36z" class="a23-cls-25" transform="rotate(-180 28.25 49.56)"/></g><path id="a73_open_contact_mesial" d="M26.31 54l-7.5-4.75-7.5 4.75" class="a23-cls-26" data-color-action="stroke" style="stroke:inherit" data-name="open contact mesial"/><path id="a73_open_contact_distal" d="M47.33 54l-7.5-4.75-7.5 4.75" class="a23-cls-26" data-color-action="stroke" style="stroke:inherit" data-name="open contact distal"/><g id="a73_mesial_drift" class="a23-cls-12" data-name="mesial drift"><path d="M26.41 29.84h11.92" class="a23-cls-27" data-color-action="stroke" style="stroke:inherit"/><path d="M27.57 33.83l-6.9-3.99 6.9-3.99v7.98z" class="a23-cls-16" data-color-action="fill" style="fill:inherit"/></g><path id="a73_lingual_abfraction" d="M28 154.75h3v3h-3z" class="a23-cls-15" transform="rotate(-180 29.5 156.25)" data-name="lingual abfraction"/><ellipse id="a73_internal_root_resorption" cx="32.22" cy="94.4" class="a23-cls-12 a23-cls-20" rx="3.98" ry="9.84" transform="rotate(-3.19 32.23 94.523)" data-color-action="fill" style="fill:inherit" data-name="internal root resorption"/><g id="a73_impacted_mesial" class="a23-cls-12" data-name="impacted mesial"><ellipse cx="29.49" cy="64.95" class="a23-cls-27" rx="24.15" ry="63.55" data-color-action="stroke" style="stroke:inherit"/><path d="M40.89 64.95h12.76" class="a23-cls-27" data-color-action="stroke" style="stroke:inherit"/><path d="M42.06 68.94l-6.91-3.99 6.91-3.99v7.98z" class="a23-cls-16" data-color-action="fill" style="fill:inherit"/></g><g id="a73_impacted_distal" class="a23-cls-12" data-name="impacted distal"><ellipse cx="29.5" cy="64.95" class="a23-cls-27" rx="24.15" ry="63.55" data-color-action="stroke" style="stroke:inherit"/><path d="M18.09 64.95H5.33" class="a23-cls-27" data-color-action="stroke" style="stroke:inherit"/><path d="M16.93 60.96l6.9 3.99-6.9 3.99v-7.98z" class="a23-cls-16" data-color-action="fill" style="fill:inherit"/></g><path id="a73_gortex_membranes" d="M2 44.75h55v16.42H2z" class="a23-cls-14" transform="rotate(-180 29.5 52.96)" data-color-action="fill" style="fill:inherit" data-name="gortex membranes"/><path id="a73_frenum_pull" d="M39.49 50.42l-10.66 6.75-10.65-6.75" class="a23-cls-30" data-color-action="stroke" style="stroke:inherit" data-name="frenum pull"/><path id="a73_external_root_resorption" d="M33.32 84.43c-.06 5.3 2.75 7.22 4.2 7.86-.14-4-.24-8-.15-11.52 0-1.58.09-3.08.15-4.54-1.52.84-4.14 3.06-4.2 8.2zm-11-8.35c.34 3 .62 5.39.78 6.67a71.38 71.38 0 0 0 1.61 8.08 9.75 9.75 0 0 0 2.52-7.75 8.6 8.6 0 0 0-4.94-7z" class="a23-cls-12 a23-cls-20" data-color-action="fill" style="fill:inherit" data-name="external root resorption"/><g id="a73_distal_drift" class="a23-cls-12" data-name="distal drift"><path d="M32.59 29.84H20.67" class="a23-cls-27" data-color-action="stroke" style="stroke:inherit"/><path d="M31.43 25.85l6.9 3.99-6.9 3.99v-7.98z" class="a23-cls-16" data-color-action="fill" style="fill:inherit"/></g><path id="a73_three_quarter_crown" d="M15.5 28.93c-.51-8.54 0-17.14 1.18-18.15C18.39 9.32 39.73 10 42 14.24c1.15 2.11 1.76 8.26 1.64 14.69z" class="a23-cls-12 a23-cls-13" data-color-action="fill" style="fill:inherit" data-name="three quarter crown"/><path id="a73_crown" d="M19 45.61c-4.35-6-4.47-33-2.31-34.84C18.39 9.32 39.73 10 42 14.24c2.51 4.6 2.47 28.4-2.18 32.4-2.51 2.2-17.56 3.5-20.82-1.03z" class="a23-cls-12 a23-cls-13" data-color-action="fill" style="fill:inherit"/><path id="a73_cracked_surface_incisal" d="M30.83 19.16L27 15.33h5l-5-4.74h5l-3.83-3.83" class="a23-cls-32" data-color-action="stroke" style="stroke:inherit" data-name="cracked surface incisal"/><path id="a73_cracked_surface_mesial" d="M17.66 33.18l-3.83-3.84h5.01l-5.01-4.74h5.01l-3.83-3.83" class="a23-cls-32" data-color-action="stroke" style="stroke:inherit" data-name="cracked surface mesial"/><path id="a73_cracked_surface_facial" d="M30.83 33.18L27 29.34h5l-5-4.74h5l-3.83-3.83" class="a23-cls-32" data-color-action="stroke" style="stroke:inherit" data-name="cracked surface facial"/><path id="a73_cracked_surface_facial_V" d="M30.83 33.18L27 29.34h5l-5-4.74h5l-3.83-3.83" class="a23-cls-32" data-color-action="stroke" style="stroke:inherit" data-name="cracked surface facial V"/><path id="a73_cracked_surface_distal" d="M43.66 33.18l-3.83-3.84h5l-5-4.74h5L41 20.77" class="a23-cls-32" data-color-action="stroke" style="stroke:inherit" data-name="cracked surface distal"/><g id="a73_chipped_surface_incisal" class="a23-cls-12" data-name="chipped surface incisal"><path d="M33.33 17.49L25 9.16M25 17.49l8.33-8.33" class="a23-cls-33" data-color-action="stroke" style="stroke:inherit"/></g><g id="a73_chipped_surface_mesial" class="a23-cls-12" data-name="chipped surface mesial"><path d="M21.17 31.5l-8.33-8.33M12.84 31.5l8.33-8.33" class="a23-cls-33" data-color-action="stroke" style="stroke:inherit"/></g><g id="a73_chipped_surface_facial" class="a23-cls-12" data-name="chipped surface facial"><path d="M33.33 31.5L25 23.17M25 31.5l8.33-8.33" class="a23-cls-33" data-color-action="stroke" style="stroke:inherit"/></g><g id="a73_chipped_surface_facial_V" class="a23-cls-12" data-name="chipped surface facial V"><path d="M33.33 31.5L25 23.17M25 31.5l8.33-8.33" class="a23-cls-33" data-color-action="stroke" style="stroke:inherit"/></g><g id="a73_chipped_surface_distal" class="a23-cls-12" data-name="chipped surface distal"><path d="M46.33 31.5L38 23.17M38 31.5l8.33-8.33" class="a23-cls-33" data-color-action="stroke" style="stroke:inherit"/></g><path id="a73_buccal_abfraction" d="M19.64 47.25a17.54 17.54 0 0 1 9.69-3.42A17.54 17.54 0 0 1 39 47.25a17.54 17.54 0 0 1-9.69 3.42 17.54 17.54 0 0 1-9.67-3.42z" class="a23-cls-14" data-color-action="fill" style="fill:inherit" data-name="buccal abfraction"/><g id="a73_braces"><path d="M22.96 20.84h13.45v18.19H22.96z" class="a23-cls-25" transform="rotate(-180 29.69 29.94)"/><path d="M22.96 20.84h13.45v.68H22.96z" class="a23-cls-34" transform="rotate(-180 29.69 21.185)" data-color-action="fill" style="fill:inherit"/><path d="M22.96 28.43h13.45v1.36H22.96z" class="a23-cls-34" transform="rotate(-180 29.69 29.11)" data-color-action="fill" style="fill:inherit"/><path d="M22.96 38.14h13.45v.89H22.96z" class="a23-cls-35" transform="rotate(-180 29.69 38.585)" data-color-action="fill" style="fill:inherit"/><rect width="4.11" height="7.94" x="32.59" y="31.07" class="a23-cls-28" rx=".49" ry=".49" transform="rotate(-180 34.64 35.04)" data-color-action="fill" style="fill:inherit"/><path d="M33.08 39h3.13a.49.49 0 0 0 .49-.49v-5.83a13.14 13.14 0 0 0-4.11 0v5.83a.49.49 0 0 0 .49.49z" class="a23-cls-18" data-color-action="fill" style="fill:inherit"/><path d="M32.92 37.6v1.11a.16.16 0 0 0 .16.16h3.13a.16.16 0 0 0 .16-.16V37.6z" class="a23-cls-25"/><rect width="4.11" height="7.94" x="22.67" y="31.07" class="a23-cls-28" rx=".49" ry=".49" transform="rotate(-180 24.725 35.04)" data-color-action="fill" style="fill:inherit"/><path d="M23.16 39h3.13a.49.49 0 0 0 .49-.49v-5.83a13.14 13.14 0 0 0-4.11 0v5.83a.49.49 0 0 0 .49.49z" class="a23-cls-18" data-color-action="fill" style="fill:inherit"/><path d="M23 37.6v1.11a.16.16 0 0 0 .16.16h3.13a.16.16 0 0 0 .16-.16V37.6z" class="a23-cls-25"/><rect width="4.11" height="7.94" x="32.59" y="20.79" class="a23-cls-28" rx=".49" ry=".49" transform="rotate(-180 34.64 24.76)" data-color-action="fill" style="fill:inherit"/><path d="M33.08 28.73h3.13a.49.49 0 0 0 .49-.49V22.4a13.14 13.14 0 0 0-4.11 0v5.83a.49.49 0 0 0 .49.5z" class="a23-cls-18" data-color-action="fill" style="fill:inherit"/><path d="M32.92 27.32v1.11a.16.16 0 0 0 .16.16h3.13a.16.16 0 0 0 .16-.16v-1.11z" class="a23-cls-25"/><rect width="4.11" height="7.94" x="22.67" y="20.79" class="a23-cls-28" rx=".49" ry=".49" transform="rotate(-180 24.725 24.76)" data-color-action="fill" style="fill:inherit"/><path d="M23.16 28.73h3.13a.49.49 0 0 0 .49-.49V22.4a13.14 13.14 0 0 0-4.11 0v5.83a.49.49 0 0 0 .49.5z" class="a23-cls-18" data-color-action="fill" style="fill:inherit"/><path d="M23 27.32v1.11a.16.16 0 0 0 .16.16h3.13a.16.16 0 0 0 .16-.16v-1.11z" class="a23-cls-25"/><path d="M8.58 29.17h42.21v1.45H8.58z" class="a23-cls-18" transform="rotate(-180 29.685 29.895)" data-color-action="fill" style="fill:inherit"/><path d="M8.58 29.17h42.21v.25H8.58z" class="a23-cls-28" transform="rotate(-180 29.685 29.295)" data-color-action="fill" style="fill:inherit"/><path d="M8.58 30.02h42.21v.4H8.58z" class="a23-cls-25" transform="rotate(-180 29.685 30.22)"/></g><path id="a73_apicoectomy" d="M22.16 127.85l7.34-11.66 7.34 11.66H22.16z" class="a23-cls-17" data-color-action="fill" style="fill:inherit"/><circle id="a73_abscess" cx="29.5" cy="122.35" r="6.5" class="a23-cls-37" data-color-action="fill" style="fill:inherit"/><g id="a73_blunted_roots" data-name="blunted roots"><path d="M2 79.01h55V139H2z" class="a23-cls-23" transform="rotate(-180 29.5 109.005)"/><path d="M2 76.92h55v2H2z" class="a23-cls-36" transform="rotate(-180 29.5 77.925)" data-color-action="fill" style="fill:inherit"/></g><path id="a73_root_amputation" d="M2 48.74h55v90.59H2z" class="a23-cls-23" transform="rotate(-180 29.5 94.035)" data-name="root amputation"/><path id="a73_missing_crown" d="M2 1.83h55v46.76H2z" class="a23-cls-23" transform="rotate(-180 29.5 25.215)" data-name="missing crown"/><g id="a73_missing_tooth" data-name="missing tooth"><path d="M40.42 46c4.08-5.36 4-27.38 1.62-31.78-2.31-4.22-23.65-4.9-25.36-3.44-2.16 1.85-2 28.82 2.31 34.84l.11.13c.76 8.67 3.32 31.84 4 37 1.48 11.59 9.37 33.66 12.94 33s1-21.08 1.36-35A245.88 245.88 0 0 1 40.42 46z" class="a23-cls-2"/><path d="M18.88 42.68c0 3 3.42 34 4.19 40.07 1.48 11.59 9.37 33.66 12.94 33s1-21.08 1.36-35a250.41 250.41 0 0 1 3.33-36.59c1.05-6.97-21.82-11.59-21.82-1.48z" class="a23-cls-23"/><path d="M23.88 74.08c-.9-7.53-2.15-23.48-2.15-26.35 0-1.58-1.26-4.75-2.38-7.27a5.32 5.32 0 0 0-.46 2.22c0 3 3.42 34 4.19 40.07a105.12 105.12 0 0 0 8.83 28.31 50.62 50.62 0 0 1-3-8.65c-1.62-6.64-4.13-20.8-5.03-28.33zM37.37 80.77a250.4 250.4 0 0 1 3.33-36.61 3.14 3.14 0 0 0-.14-1.46l-2.16 2.16s-1.79 13.44-2.33 22.41-.18 25.63.54 30.29c.34 2.22.85 4.73 1.32 7.16-.1-7.16-.75-16.49-.56-23.95zM31.44 48.31c-.42 3.63-.73 7.6-.15 22.64s3 41.64 4.53 41.64c.44 0-1.9-29.07-2.19-37.11s.58-23.52 1-27.61-2.75-3.36-3.19.44z" class="a23-cls-23"/><path d="M19 45.61c-4.35-6-4.47-33-2.31-34.84C18.39 9.32 39.73 10 42 14.24c2.51 4.6 2.47 28.4-2.18 32.4-2.51 2.2-17.56 3.5-20.82-1.03z" class="a23-cls-23"/><path d="M20.85 46.11c-3.33-5.89-3.64-30.85-2.24-35.84a4.5 4.5 0 0 0-1.94.5c-2.16 1.85-2 28.82 2.31 34.84a6.73 6.73 0 0 0 3.57 2.18 4.76 4.76 0 0 1-1.7-1.68zM42 14.24a5.27 5.27 0 0 0-2.78-1.91 2.76 2.76 0 0 1 .55.81C41.87 18 41.84 43 38 47.19a3 3 0 0 1-.72.55 7 7 0 0 0 2.56-1.1c4.67-4 4.71-27.8 2.16-32.4zM31.58 29.88c0 6-.52 15.47-.63 18.74 1 0 2.05-.13 3-.25A140 140 0 0 0 35.51 30c0-4.44-.24-14.53-.71-18.9-1.39-.26-2.87-.47-4.38-.64.43 3.99 1.16 13.49 1.16 19.42z" class="a23-cls-23"/></g><g id="a73_extracted_tooth" class="a23-msng-cls-10" data-name="extracted tooth"><path d="M9 10.51l41.67 41.66M50.67 10.51L9 52.17" class="a23-msng-cls-11" data-color-action="stroke" style="stroke:inherit"/></g><g id="a73_denture"><path d="M2 2.83h55v135.01H2z" class="a23-cls-23" transform="rotate(-180 29.5 70.34)"/><path d="M57 60.78A22.63 22.63 0 0 1 44.78 64c-7.64 0-10-3.22-15.79-3.22S19.15 64 13.2 64A24.26 24.26 0 0 1 2 60.78V2.83h55z" class="a23-cls-31" data-color-action="fill" style="fill:inherit"/><path d="M19 45.61c-4.35-6-4.47-33-2.31-34.84C18.39 9.32 39.73 10 42 14.24c2.51 4.6 2.47 28.4-2.18 32.4-2.51 2.2-17.56 3.5-20.82-1.03z" class="a23-cls-2"/><path d="M19 45.61c-4.35-6-4.47-33-2.31-34.84C18.39 9.32 39.73 10 42 14.24c2.51 4.6 2.47 28.4-2.18 32.4-2.51 2.2-17.56 3.5-20.82-1.03z" class="a23-cls-6"/><path d="M20.85 46.11c-3.33-5.89-3.64-30.85-2.24-35.84a4.5 4.5 0 0 0-1.94.5c-2.16 1.85-2 28.82 2.31 34.84a6.73 6.73 0 0 0 3.57 2.18 4.76 4.76 0 0 1-1.7-1.68zM42 14.24a5.27 5.27 0 0 0-2.78-1.91 2.76 2.76 0 0 1 .55.81C41.87 18 41.84 43 38 47.19a3 3 0 0 1-.72.55 7 7 0 0 0 2.56-1.1c4.67-4 4.71-27.8 2.16-32.4z" class="a23-cls-7"/><path d="M31.58 29.88c0 6-.52 15.47-.63 18.74 1 0 2.05-.13 3-.25A140 140 0 0 0 35.51 30c0-4.44-.24-14.53-.71-18.9-1.39-.26-2.87-.47-4.38-.64.43 3.99 1.16 13.49 1.16 19.42z" class="a23-cls-8"/></g><g id="a73_maryland_bridge_pontic" class="a23-cls-12" data-name="maryland bridge pontic"><path d="M19 45.61c-4.35-6-4.47-33-2.31-34.84C18.39 9.32 39.73 10 42 14.24c2.51 4.6 2.47 28.4-2.18 32.4-2.51 2.2-17.56 3.5-20.82-1.03z" class="a23-cls-20" data-color-action="fill" style="fill:inherit"/><path d="M2 26h55v7.67H2z" class="a23-cls-20" transform="rotate(-180 29.5 29.835)" data-color-action="fill" style="fill:inherit"/></g><g id="a73_maryland_bridge_abutment_mesial" data-name="maryland bridge abutment mesial"><path d="M2 26h34.98v7.67H2z" class="a23-cls-12 a23-cls-20" transform="rotate(-180 19.49 29.835)" data-color-action="fill" style="fill:inherit"/><path d="M40.42 46c4.08-5.36 4-27.38 1.62-31.78-2.31-4.22-23.65-4.9-25.36-3.44-2.16 1.85-2 28.82 2.31 34.84l.11.13c.76 8.67 3.32 31.84 4 37 1.48 11.59 9.37 33.66 12.94 33s1-21.08 1.36-35A245.88 245.88 0 0 1 40.42 46z" class="a23-cls-2"/><path d="M18.88 42.68c0 3 3.42 34 4.19 40.07 1.48 11.59 9.37 33.66 12.94 33s1-21.08 1.36-35a250.41 250.41 0 0 1 3.33-36.59c1.05-6.97-21.82-11.59-21.82-1.48z" class="a23-cls-3"/><path d="M23.88 74.08c-.9-7.53-2.15-23.48-2.15-26.35 0-1.58-1.26-4.75-2.38-7.27a5.32 5.32 0 0 0-.46 2.22c0 3 3.42 34 4.19 40.07a105.12 105.12 0 0 0 8.83 28.31 50.62 50.62 0 0 1-3-8.65c-1.62-6.64-4.13-20.8-5.03-28.33zM37.37 80.77a250.4 250.4 0 0 1 3.33-36.61 3.14 3.14 0 0 0-.14-1.46l-2.16 2.16s-1.79 13.44-2.33 22.41-.18 25.63.54 30.29c.34 2.22.85 4.73 1.32 7.16-.1-7.16-.75-16.49-.56-23.95z" class="a23-cls-4"/><path d="M31.44 48.31c-.42 3.63-.73 7.6-.15 22.64s3 41.64 4.53 41.64c.44 0-1.9-29.07-2.19-37.11s.58-23.52 1-27.61-2.75-3.36-3.19.44z" class="a23-cls-5"/><path d="M19 45.61c-4.35-6-4.47-33-2.31-34.84C18.39 9.32 39.73 10 42 14.24c2.51 4.6 2.47 28.4-2.18 32.4-2.51 2.2-17.56 3.5-20.82-1.03z" class="a23-cls-6"/><path d="M20.85 46.11c-3.33-5.89-3.64-30.85-2.24-35.84a4.5 4.5 0 0 0-1.94.5c-2.16 1.85-2 28.82 2.31 34.84a6.73 6.73 0 0 0 3.57 2.18 4.76 4.76 0 0 1-1.7-1.68zM42 14.24a5.27 5.27 0 0 0-2.78-1.91 2.76 2.76 0 0 1 .55.81C41.87 18 41.84 43 38 47.19a3 3 0 0 1-.72.55 7 7 0 0 0 2.56-1.1c4.67-4 4.71-27.8 2.16-32.4z" class="a23-cls-7"/><path d="M31.58 29.88c0 6-.52 15.47-.63 18.74 1 0 2.05-.13 3-.25A140 140 0 0 0 35.51 30c0-4.44-.24-14.53-.71-18.9-1.39-.26-2.87-.47-4.38-.64.43 3.99 1.16 13.49 1.16 19.42z" class="a23-cls-8"/></g><g id="a73_maryland_bridge_abutment_distal" data-name="maryland bridge abutment distal"><path d="M22.02 26H57v7.67H22.02z" class="a23-cls-12 a23-cls-20" transform="rotate(-180 39.51 29.835)" data-color-action="fill" style="fill:inherit"/><path d="M40.42 46c4.08-5.36 4-27.38 1.62-31.78-2.31-4.22-23.65-4.9-25.36-3.44-2.16 1.85-2 28.82 2.31 34.84l.11.13c.76 8.67 3.32 31.84 4 37 1.48 11.59 9.37 33.66 12.94 33s1-21.08 1.36-35A245.88 245.88 0 0 1 40.42 46z" class="a23-cls-2"/><path d="M18.88 42.68c0 3 3.42 34 4.19 40.07 1.48 11.59 9.37 33.66 12.94 33s1-21.08 1.36-35a250.41 250.41 0 0 1 3.33-36.59c1.05-6.97-21.82-11.59-21.82-1.48z" class="a23-cls-3"/><path d="M23.88 74.08c-.9-7.53-2.15-23.48-2.15-26.35 0-1.58-1.26-4.75-2.38-7.27a5.32 5.32 0 0 0-.46 2.22c0 3 3.42 34 4.19 40.07a105.12 105.12 0 0 0 8.83 28.31 50.62 50.62 0 0 1-3-8.65c-1.62-6.64-4.13-20.8-5.03-28.33zM37.37 80.77a250.4 250.4 0 0 1 3.33-36.61 3.14 3.14 0 0 0-.14-1.46l-2.16 2.16s-1.79 13.44-2.33 22.41-.18 25.63.54 30.29c.34 2.22.85 4.73 1.32 7.16-.1-7.16-.75-16.49-.56-23.95z" class="a23-cls-4"/><path d="M31.44 48.31c-.42 3.63-.73 7.6-.15 22.64s3 41.64 4.53 41.64c.44 0-1.9-29.07-2.19-37.11s.58-23.52 1-27.61-2.75-3.36-3.19.44z" class="a23-cls-5"/><path d="M19 45.61c-4.35-6-4.47-33-2.31-34.84C18.39 9.32 39.73 10 42 14.24c2.51 4.6 2.47 28.4-2.18 32.4-2.51 2.2-17.56 3.5-20.82-1.03z" class="a23-cls-6"/><path d="M20.85 46.11c-3.33-5.89-3.64-30.85-2.24-35.84a4.5 4.5 0 0 0-1.94.5c-2.16 1.85-2 28.82 2.31 34.84a6.73 6.73 0 0 0 3.57 2.18 4.76 4.76 0 0 1-1.7-1.68zM42 14.24a5.27 5.27 0 0 0-2.78-1.91 2.76 2.76 0 0 1 .55.81C41.87 18 41.84 43 38 47.19a3 3 0 0 1-.72.55 7 7 0 0 0 2.56-1.1c4.67-4 4.71-27.8 2.16-32.4z" class="a23-cls-7"/><path d="M31.58 29.88c0 6-.52 15.47-.63 18.74 1 0 2.05-.13 3-.25A140 140 0 0 0 35.51 30c0-4.44-.24-14.53-.71-18.9-1.39-.26-2.87-.47-4.38-.64.43 3.99 1.16 13.49 1.16 19.42z" class="a23-cls-8"/></g><g id="a73_maryland_bridge_abutment" data-name="maryland bridge abutment"><path d="M2 26h55v7.67H2z" class="a23-cls-12 a23-cls-20" transform="rotate(-180 29.5 29.835)" data-color-action="fill" style="fill:inherit"/><path d="M40.42 46c4.08-5.36 4-27.38 1.62-31.78-2.31-4.22-23.65-4.9-25.36-3.44-2.16 1.85-2 28.82 2.31 34.84l.11.13c.76 8.67 3.32 31.84 4 37 1.48 11.59 9.37 33.66 12.94 33s1-21.08 1.36-35A245.88 245.88 0 0 1 40.42 46z" class="a23-cls-2"/><path d="M18.88 42.68c0 3 3.42 34 4.19 40.07 1.48 11.59 9.37 33.66 12.94 33s1-21.08 1.36-35a250.41 250.41 0 0 1 3.33-36.59c1.05-6.97-21.82-11.59-21.82-1.48z" class="a23-cls-3"/><path d="M23.88 74.08c-.9-7.53-2.15-23.48-2.15-26.35 0-1.58-1.26-4.75-2.38-7.27a5.32 5.32 0 0 0-.46 2.22c0 3 3.42 34 4.19 40.07a105.12 105.12 0 0 0 8.83 28.31 50.62 50.62 0 0 1-3-8.65c-1.62-6.64-4.13-20.8-5.03-28.33zM37.37 80.77a250.4 250.4 0 0 1 3.33-36.61 3.14 3.14 0 0 0-.14-1.46l-2.16 2.16s-1.79 13.44-2.33 22.41-.18 25.63.54 30.29c.34 2.22.85 4.73 1.32 7.16-.1-7.16-.75-16.49-.56-23.95z" class="a23-cls-4"/><path d="M31.44 48.31c-.42 3.63-.73 7.6-.15 22.64s3 41.64 4.53 41.64c.44 0-1.9-29.07-2.19-37.11s.58-23.52 1-27.61-2.75-3.36-3.19.44z" class="a23-cls-5"/><path d="M19 45.61c-4.35-6-4.47-33-2.31-34.84C18.39 9.32 39.73 10 42 14.24c2.51 4.6 2.47 28.4-2.18 32.4-2.51 2.2-17.56 3.5-20.82-1.03z" class="a23-cls-6"/><path d="M20.85 46.11c-3.33-5.89-3.64-30.85-2.24-35.84a4.5 4.5 0 0 0-1.94.5c-2.16 1.85-2 28.82 2.31 34.84a6.73 6.73 0 0 0 3.57 2.18 4.76 4.76 0 0 1-1.7-1.68zM42 14.24a5.27 5.27 0 0 0-2.78-1.91 2.76 2.76 0 0 1 .55.81C41.87 18 41.84 43 38 47.19a3 3 0 0 1-.72.55 7 7 0 0 0 2.56-1.1c4.67-4 4.71-27.8 2.16-32.4z" class="a23-cls-7"/><path d="M31.58 29.88c0 6-.52 15.47-.63 18.74 1 0 2.05-.13 3-.25A140 140 0 0 0 35.51 30c0-4.44-.24-14.53-.71-18.9-1.39-.26-2.87-.47-4.38-.64.43 3.99 1.16 13.49 1.16 19.42z" class="a23-cls-8"/></g><g id="a73_bridge_abutment_mesial" class="a23-cls-12" data-name="bridge abutment mesial"><path d="M19 45.61c-4.35-6-4.47-33-2.31-34.84C18.39 9.32 39.73 10 42 14.24c2.51 4.6 2.47 28.4-2.18 32.4-2.51 2.2-17.56 3.5-20.82-1.03z" class="a23-cls-18" data-color-action="fill" style="fill:inherit"/><path d="M2 26h34.98v7.67H2z" class="a23-cls-18" transform="rotate(-180 19.49 29.835)" data-color-action="fill" style="fill:inherit"/></g><g id="a73_bridge_abutment_distal" class="a23-cls-12" data-name="bridge abutment distal"><path d="M19 45.61c-4.35-6-4.47-33-2.31-34.84C18.39 9.32 39.73 10 42 14.24c2.51 4.6 2.47 28.4-2.18 32.4-2.51 2.2-17.56 3.5-20.82-1.03z" class="a23-cls-18" data-color-action="fill" style="fill:inherit"/><path d="M22.02 26H57v7.67H22.02z" class="a23-cls-18" transform="rotate(-180 39.51 29.835)" data-color-action="fill" style="fill:inherit"/></g><g id="a73_bridge_abutment" class="a23-cls-12" data-name="bridge abutment"><path d="M19 45.61c-4.35-6-4.47-33-2.31-34.84C18.39 9.32 39.73 10 42 14.24c2.51 4.6 2.47 28.4-2.18 32.4-2.51 2.2-17.56 3.5-20.82-1.03z" class="a23-cls-18" data-color-action="fill" style="fill:inherit"/><path d="M2 26h55v7.67H2z" class="a23-cls-18" transform="rotate(-180 29.5 29.835)" data-color-action="fill" style="fill:inherit"/></g><g id="a73_bridge_pontic" data-name="bridge pontic"><path d="M40.42 46c4.08-5.36 4-27.38 1.62-31.78-2.31-4.22-23.65-4.9-25.36-3.44-2.16 1.85-2 28.82 2.31 34.84l.11.13c.76 8.67 3.32 31.84 4 37 1.48 11.59 9.37 33.66 12.94 33s1-21.08 1.36-35A245.88 245.88 0 0 1 40.42 46z" class="a23-cls-2"/><path d="M18.88 42.68c0 3 3.42 34 4.19 40.07 1.48 11.59 9.37 33.66 12.94 33s1-21.08 1.36-35a250.41 250.41 0 0 1 3.33-36.59c1.05-6.97-21.82-11.59-21.82-1.48z" class="a23-cls-23"/><path d="M23.88 74.08c-.9-7.53-2.15-23.48-2.15-26.35 0-1.58-1.26-4.75-2.38-7.27a5.32 5.32 0 0 0-.46 2.22c0 3 3.42 34 4.19 40.07a105.12 105.12 0 0 0 8.83 28.31 50.62 50.62 0 0 1-3-8.65c-1.62-6.64-4.13-20.8-5.03-28.33zM37.37 80.77a250.4 250.4 0 0 1 3.33-36.61 3.14 3.14 0 0 0-.14-1.46l-2.16 2.16s-1.79 13.44-2.33 22.41-.18 25.63.54 30.29c.34 2.22.85 4.73 1.32 7.16-.1-7.16-.75-16.49-.56-23.95zM31.44 48.31c-.42 3.63-.73 7.6-.15 22.64s3 41.64 4.53 41.64c.44 0-1.9-29.07-2.19-37.11s.58-23.52 1-27.61-2.75-3.36-3.19.44z" class="a23-cls-23"/><path d="M19 45.61c-4.35-6-4.47-33-2.31-34.84C18.39 9.32 39.73 10 42 14.24c2.51 4.6 2.47 28.4-2.18 32.4-2.51 2.2-17.56 3.5-20.82-1.03z" class="a23-cls-6"/><path d="M20.85 46.11c-3.33-5.89-3.64-30.85-2.24-35.84a4.5 4.5 0 0 0-1.94.5c-2.16 1.85-2 28.82 2.31 34.84a6.73 6.73 0 0 0 3.57 2.18 4.76 4.76 0 0 1-1.7-1.68zM42 14.24a5.27 5.27 0 0 0-2.78-1.91 2.76 2.76 0 0 1 .55.81C41.87 18 41.84 43 38 47.19a3 3 0 0 1-.72.55 7 7 0 0 0 2.56-1.1c4.67-4 4.71-27.8 2.16-32.4z" class="a23-cls-7"/><path d="M31.58 29.88c0 6-.52 15.47-.63 18.74 1 0 2.05-.13 3-.25A140 140 0 0 0 35.51 30c0-4.44-.24-14.53-.71-18.9-1.39-.26-2.87-.47-4.38-.64.43 3.99 1.16 13.49 1.16 19.42z" class="a23-cls-8"/><g class="a23-cls-12"><path d="M19 45.61c-4.35-6-4.47-33-2.31-34.84C18.39 9.32 39.73 10 42 14.24c2.51 4.6 2.47 28.4-2.18 32.4-2.51 2.2-17.56 3.5-20.82-1.03z" class="a23-cls-18" data-color-action="fill" style="fill:inherit"/><path d="M2 26h55v7.67H2z" class="a23-cls-18" transform="rotate(-180 29.5 29.835)" data-color-action="fill" style="fill:inherit"/></g></g><g id="a73_implant_mini" data-name="implant mini"><path d="M1.61 1.79h55v137.17h-55z" class="a23-cls-23" transform="rotate(-180 29.115 70.375)"/><path d="M29.28 77.93h.44l1-8.49V28.6h-2.44v40.84l1 8.49z" class="a23-cls-18" data-color-action="fill" style="fill:inherit"/><path d="M29.58 77.93h.07l.4-8.49V28.6h-.37v40.84l-.1 8.49z" class="a23-cls-25"/><path d="M28.28 28.6h2.44v.63h-2.44z" class="a23-cls-28" transform="rotate(-180 29.5 28.915)" data-color-action="fill" style="fill:inherit"/><g class="a23-cls-29"><path d="M30.72 29.23l-2.44 1v-.63l2.44-1v.63zM30.72 30.68l-2.44 1v-.63l2.44-1v.63zM30.72 32.12l-2.44 1v-.63l2.44-1v.63zM30.72 33.57l-2.44 1v-.63l2.44-1v.63zM30.72 35.02l-2.44 1v-.64l2.44-1v.64zM30.72 36.46l-2.44 1v-.63l2.44-1v.63zM30.72 37.91l-2.44 1v-.64l2.44-1v.64zM30.72 39.35l-2.44 1v-.63l2.44-1v.63zM30.72 40.8l-2.44 1v-.64l2.44-1v.64zM30.72 42.24l-2.44 1v-.63l2.44-1v.63zM30.72 43.69l-2.44 1v-.64l2.44-1v.64zM30.72 45.13l-2.44 1v-.63l2.44-1v.63zM30.72 46.58l-2.44 1v-.63l2.44-1v.63zM30.72 48.02l-2.44 1v-.63l2.44-1v.63zM30.72 49.47l-2.44 1v-.63l2.44-1v.63zM30.72 50.91l-2.44 1v-.63l2.44-1v.63zM30.72 52.36l-2.44 1v-.63l2.44-1v.63zM30.72 53.8l-2.44 1.01v-.64l2.44-1v.63zM30.72 55.25l-2.44 1v-.63l2.44-1v.63zM30.72 56.7l-2.44 1v-.64l2.44-1v.64zM30.72 58.14l-2.44 1v-.63l2.44-1v.63zM30.72 59.59l-2.44 1v-.63l2.44-1.01v.64zM30.72 61.03l-2.44 1v-.63l2.44-1v.63zM30.72 62.48l-2.44 1v-.63l2.44-1v.63zM30.72 63.92l-2.44 1v-.63l2.44-1v.63zM30.72 65.37l-2.44 1v-.63l2.44-1v.63zM30.72 66.81l-2.44 1v-.63l2.44-1v.63zM30.72 68.26l-2.44 1v-.63l2.44-1v.63zM30.72 69.44l-.03.28-2.27.93-.07-.61 2.37-.97v.37zM30.51 71.24l-1.93.79-.07-.61 2.08-.85-.08.67zM30.33 72.76l-1.58.65-.08-.61 1.74-.71-.08.67zM30.15 74.28l-1.24.5-.07-.6 1.39-.57-.08.67zM29.97 75.79l-.9.37-.07-.6 1.05-.43-.08.66zM29.8 77.31l-.57.23-.07-.6.71-.29-.07.66z" class="a23-cls-28" data-color-action="fill" style="fill:inherit"/></g><circle cx="29.5" cy="24.73" r="2.24" class="a23-cls-18" data-color-action="fill" style="fill:inherit"/><path d="M27.67 25.95h3.67v3h-3.67z" class="a23-cls-18" transform="rotate(-180 29.5 27.445)" data-color-action="fill" style="fill:inherit"/><path d="M29.96 25.95h.55v3h-.55z" class="a23-cls-25"/><path d="M30.3 23.37h.21a2.32 2.32 0 0 1 .49 1.29 2.37 2.37 0 0 1-.52 1.3H30a2 2 0 0 0 .73-1.37 1.5 1.5 0 0 0-.43-1.22z" class="a23-cls-25"/><path d="M28.28 34.67h2.44v.63h-2.44z" class="a23-cls-28" transform="rotate(-180 29.5 34.985)" data-color-action="fill" style="fill:inherit"/><path d="M26.89 28.92h5.22l-.87 5.71h-3.48l-.87-5.71z" class="a23-cls-18" data-color-action="fill" style="fill:inherit"/><path d="M30.15 28.92h.79l-.48 5.71h-.53l.22-5.71z" class="a23-cls-25"/></g><g id="a73_implant_cylinder" data-name="implant cylinder"><path d="M2 1.83h55V139H2z" class="a23-cls-23" transform="rotate(-180 29.5 70.415)"/><path d="M26.17 25.65h6.67v49.33h-6.67z" class="a23-cls-18" transform="rotate(-180 29.5 50.32)" data-color-action="fill" style="fill:inherit"/><path d="M24.5 22.66h10v3h-10z" class="a23-cls-18" transform="rotate(-180 29.5 24.155)" data-color-action="fill" style="fill:inherit"/><path d="M30 25.65h1v49.33h-1z" class="a23-cls-25" transform="rotate(-180 30.5 50.32)"/><path d="M30.75 22.66h1.5v3h-1.5z" class="a23-cls-25" transform="rotate(-180 31.5 24.155)"/><path d="M24.5 75.02h10v3h-10z" class="a23-cls-18" transform="rotate(-180 29.5 76.515)" data-color-action="fill" style="fill:inherit"/><path d="M30.75 75.02h1.5v3h-1.5z" class="a23-cls-25" transform="rotate(-180 31.5 76.515)"/><path d="M26.17 25.65h6.67v.63h-6.67z" class="a23-cls-28" transform="rotate(-180 29.5 25.97)" data-color-action="fill" style="fill:inherit"/><path d="M26.17 74.35h6.67v.63h-6.67z" class="a23-cls-28" transform="rotate(-180 29.5 74.67)" data-color-action="fill" style="fill:inherit"/><g class="a23-cls-29"><path d="M26.17 73.35l6.66 1.01v.63l-6.66-1v-.64zM26.17 71.91l6.66 1v.63l-6.66-1v-.63zM26.17 70.46l6.66 1v.64l-6.66-1.01v-.63zM26.17 69.02l6.66 1v.63l-6.66-1v-.63zM26.17 67.57l6.66 1v.63l-6.66-1v-.63zM26.17 66.13l6.66 1v.63l-6.66-1v-.63zM26.17 64.68l6.66 1v.63l-6.66-1v-.63zM26.17 63.24l6.66 1v.63l-6.66-1v-.63zM26.17 61.79l6.66 1v.63l-6.66-1v-.63zM26.17 60.34l6.66 1.01v.63l-6.66-1v-.64zM26.17 58.9l6.66 1v.63l-6.66-1v-.63zM26.17 57.45l6.66 1v.64l-6.66-1v-.64zM26.17 56.01l6.66 1v.63l-6.66-1v-.63zM26.17 54.56l6.66 1v.64l-6.66-1v-.64zM26.17 53.12l6.66 1v.63l-6.66-1v-.63zM26.17 51.67l6.66 1v.63l-6.66-1v-.63zM26.17 50.23l6.66 1v.63l-6.66-1v-.63zM26.17 48.78l6.66 1v.63l-6.66-1v-.63zM26.17 47.34l6.66 1v.63l-6.66-1v-.63zM26.17 45.89l6.66 1v.63l-6.66-1v-.63zM26.17 44.45l6.66 1v.63l-6.66-1v-.63zM26.17 43l6.66 1v.63l-6.66-1V43zM26.17 41.55l6.66 1v.64l-6.66-1v-.64zM26.17 40.11l6.66 1v.63l-6.66-1v-.63zM26.17 38.66l6.66 1v.64l-6.66-1v-.64zM26.17 37.22l6.66 1v.63l-6.66-1v-.63zM26.17 35.77l6.66 1v.64l-6.66-1v-.64zM26.17 34.33l6.66 1v.63l-6.66-1v-.63zM26.17 32.88l6.66 1v.63l-6.66-1v-.63zM26.17 31.44l6.66 1v.63l-6.66-1v-.63zM26.17 29.99l6.66 1v.63l-6.66-1v-.63zM26.17 28.55l6.66 1v.63l-6.66-1v-.63zM26.17 27.1l6.66 1v.63l-6.66-1v-.63zM26.17 25.65l6.66 1.01v.63l-6.66-1v-.64z" class="a23-cls-28" data-color-action="fill" style="fill:inherit"/></g></g><g id="a73_implant_blade" data-name="implant blade"><path d="M2 1.83h55V139H2z" class="a23-cls-23" transform="rotate(-180 29.5 70.415)"/><path d="M26.17 25.65h6.67v49.33h-6.67z" class="a23-cls-18" transform="rotate(-180 29.5 50.32)" data-color-action="fill" style="fill:inherit"/><path d="M24.5 22.66h10v3h-10z" class="a23-cls-18" transform="rotate(-180 29.5 24.155)" data-color-action="fill" style="fill:inherit"/><path d="M30 25.65h1v49.33h-1z" class="a23-cls-25" transform="rotate(-180 30.5 50.32)"/><path d="M30.75 22.66h1.5v3h-1.5z" class="a23-cls-25" transform="rotate(-180 31.5 24.155)"/><path d="M26.17 25.65h6.67v.63h-6.67z" class="a23-cls-28" transform="rotate(-180 29.5 25.97)" data-color-action="fill" style="fill:inherit"/></g><path id="a73_watch_tooth" d="M8.27 153.9a3.26 3.26 0 0 1 3.22-3.26 3.24 3.24 0 1 1 0 6.47 3.25 3.25 0 0 1-3.22-3.21zm1-5.91l-.88-18.09h6.15l-.8 18.1z" class="a23-cls-11" data-color-action="fill" style="fill:inherit" data-name="watch tooth"/><path id="a73_border" d="M0 0h59v161H0z" class="a23-cls-15" transform="rotate(-180 29.5 80.5)"/></defs></g><g class="c23-cls-1"><g id="_23C" data-name="#23C"><path d="M19 19.65c-4.35 6-4.47 33-2.31 34.84 1.7 1.46 23.04.77 25.31-3.49 2.51-4.6 2.47-28.4-2.18-32.4-2.51-2.17-17.56-3.47-20.82 1.05z" class="c23-cls-2"/><path d="M19 19.65c-4.35 6-4.47 33-2.31 34.84 1.7 1.46 23.04.77 25.31-3.49 2.51-4.6 2.47-28.4-2.18-32.4-2.51-2.17-17.56-3.47-20.82 1.05z" class="c23-cls-3"/><path d="M19.42 27.06c-.91-.36.72-4.35 1.81-5.43s5.43-1.81 8-1.63 6.88 0 8.33 1.27 2 5.8 1.63 6.52-1.63-3.26-2.72-3.8-2-.54-4 .18-5.25-1.63-7.24-.91-4.75 4.22-5.81 3.8z" class="c23-cls-4"/><path d="M16.68 54.49c1.71 1.46 23.05.77 25.32-3.49a9.32 9.32 0 0 0 .76-2.31c-2.09 1.56-7.14 2.85-10 3.14a134.17 134.17 0 0 1-14.13.72 4.26 4.26 0 0 1-3-1.69c.3 1.96.63 3.27 1.05 3.63z" class="c23-cls-5"/></g><defs><g id="c73_splinted_crowns" data-name="splinted crowns"><path d="M2 11.87h55v7.67H2z" class="c23-cls-12" transform="rotate(-180 29.5 15.7)" data-color-action="fill" style="fill:inherit"/><path d="M19 19.65c-4.35 6-4.47 33-2.31 34.84 1.7 1.46 23.04.77 25.31-3.49 2.51-4.6 2.47-28.4-2.18-32.4-2.51-2.17-17.56-3.47-20.82 1.05z" class="c23-cls-2"/><path d="M19 19.65c-4.35 6-4.47 33-2.31 34.84 1.7 1.46 23.04.77 25.31-3.49 2.51-4.6 2.47-28.4-2.18-32.4-2.51-2.17-17.56-3.47-20.82 1.05z" class="c23-cls-3"/><path d="M19.42 27.06c-.91-.36.72-4.35 1.81-5.43s5.43-1.81 8-1.63 6.88 0 8.33 1.27 2 5.8 1.63 6.52-1.63-3.26-2.72-3.8-2-.54-4 .18-5.25-1.63-7.24-.91-4.75 4.22-5.81 3.8z" class="c23-cls-4"/><path d="M16.68 54.49c1.71 1.46 23.05.77 25.32-3.49a9.32 9.32 0 0 0 .76-2.31c-2.09 1.56-7.14 2.85-10 3.14a134.17 134.17 0 0 1-14.13.72 4.26 4.26 0 0 1-3-1.69c.3 1.96.63 3.27 1.05 3.63z" class="c23-cls-5"/></g><path id="c73_mesial" d="M15.33 45.44l4.31-2.59c-.77-2.22-.35-5.32-.82-8.51A4.35 4.35 0 0 0 16 31a107.2 107.2 0 0 0-.67 14.44z" class="c23-cls-6" data-color-action="fill" style="fill:inherit"/><path id="c73_line_angle_4" d="M22.93 55.19l2.51-9a12.57 12.57 0 0 1-3.35-.74 4 4 0 0 1-2.45-2.59l-4.31 2.59c.12 4.75.6 8.41 1.35 9.05.54.45 3.02.7 6.25.69z" class="c23-cls-6" data-color-action="fill" style="fill:inherit" data-name="line angle 4"/><path id="c73_lingual" d="M36.89 53.67l-1.8-8a35.69 35.69 0 0 1-9.64.47l-2.51 9a63.91 63.91 0 0 0 13.95-1.47z" class="c23-cls-6" data-color-action="fill" style="fill:inherit"/><path id="c73_line_angle_3" d="M42 51a19 19 0 0 0 1.35-6.19l-4.22-2.72c-.54 1.58-1.34 2.83-2.55 3.2-.43.14-.94.26-1.52.38l1.8 8C39.46 53 41.43 52.15 42 51z" class="c23-cls-6" data-color-action="fill" style="fill:inherit" data-name="line angle 3"/><path id="c73_distal" d="M40.43 35.12a34.5 34.5 0 0 1-1.27 7l4.22 2.72A79.39 79.39 0 0 0 43.4 31a5.34 5.34 0 0 0-2.97 4.12z" class="c23-cls-6" data-color-action="fill" style="fill:inherit"/><ellipse id="c73_mid_lingual" cx="29.62" cy="33.06" class="c23-cls-6" rx="4.66" ry="9.56" data-color-action="fill" style="fill:inherit" data-name="mid lingual"/><path id="c73_lingual_V" d="M37.32 17.54c-3.89-1-10.79-1.4-15.11.05a13.7 13.7 0 0 0 15.11-.05z" class="c23-cls-6" data-color-action="fill" style="fill:inherit" data-name="lingual V"/><g id="c73_veneer"><path d="M28 61.75h3v3h-3z" class="c23-cls-7" transform="rotate(-180 29.5 63.25)"/><path d="M28 61.75h3v3h-3z" class="c23-cls-7" transform="rotate(-180 29.5 63.25)"/><path d="M28 61.75h3v3h-3z" class="c23-cls-7" transform="rotate(-180 29.5 63.25)"/></g><g id="c73_tissue_graft" data-name="tissue graft"><path d="M28 61.75h3v3h-3z" class="c23-cls-7" transform="rotate(-180 29.5 63.25)"/><path d="M28 61.75h3v3h-3z" class="c23-cls-7" transform="rotate(-180 29.5 63.25)"/><path d="M28 61.75h3v3h-3z" class="c23-cls-7" transform="rotate(-180 29.5 63.25)"/></g><g id="c73_tipped_lingual" class="c23-cls-8" data-name="tipped lingual"><path d="M28.65 59.07c1.26 3.37 4.74 3.85 7.69-5.32.5-1.56 4.42-1.76 3.84 0-2 6.08-5.31 10.2-9.06 9.27a4.86 4.86 0 0 1-3-3.38c.19-.17.42-.43.53-.57z" class="c23-cls-9" data-color-action="fill" style="fill:inherit"/><path d="M30.73 56.15h12.94l-2.94-9.64-10 9.64z" class="c23-cls-9" data-color-action="fill" style="fill:inherit"/></g><g id="c73_tipped_facial" data-name="tipped facial"><path d="M28 61.75h3v3h-3z" class="c23-cls-7" transform="rotate(-180 29.5 63.25)"/><path d="M28 61.75h3v3h-3z" class="c23-cls-7" transform="rotate(-180 29.5 63.25)"/><path d="M28 61.75h3v3h-3z" class="c23-cls-7" transform="rotate(-180 29.5 63.25)"/></g><path id="c73_surface_restoration_incisal" d="M42 51c-2.31 4.23-23.65 4.92-25.36 3.46a.91.91 0 0 1-.15-.18l5.89-6.43v.31h.3a52.31 52.31 0 0 0 13.41-1.55v-.21l5.89 4.52z" class="c23-cls-10" data-color-action="fill" style="fill:inherit" data-name="surface restoration incisal"/><path id="c73_surface_restoration_mesial" d="M16.29 28.56a11.52 11.52 0 0 0 6.56-6.08 253.59 253.59 0 0 0-.44 25.39l-5.89 6.43c-1.42-2.13-1.72-15.9-.23-25.74z" class="c23-cls-10" data-color-action="fill" style="fill:inherit" data-name="surface restoration mesial"/><path id="c73_surface_restoration_lingual" d="M35.15 19.58a11.59 11.59 0 0 0 .9 2.6c.68 8.58.91 20.71.09 24.45a52.31 52.31 0 0 1-13.41 1.55h-.3a249.71 249.71 0 0 1 .42-25.69 11.57 11.57 0 0 0 .77-2.33 13.9 13.9 0 0 0 11.53-.57z" class="c23-cls-8 c23-cls-11" data-color-action="fill" style="fill:inherit" data-name="surface restoration lingual"/><path id="c73_surface_restoration_lingual_V" d="M23.84 17.15a32.6 32.6 0 0 1 11-.11v.1a11.31 11.31 0 0 0 .28 2.44 13.9 13.9 0 0 1-11.53.57 11.36 11.36 0 0 0 .26-2.39c.03-.21 0-.41-.01-.61z" class="c23-cls-8 c23-cls-11" data-color-action="fill" style="fill:inherit" data-name="surface restoration lingual V"/><path id="c73_surface_restoration_distal" d="M36.18 46.42c.77-3.95.54-15.8-.13-24.24a11.52 11.52 0 0 0 7 6c1.13 8.47.59 19.66-1 22.78z" class="c23-cls-10" data-color-action="fill" style="fill:inherit" data-name="surface restoration distal"/><g id="c73_supra-erupted"><path d="M28 61.75h3v3h-3z" class="c23-cls-7" transform="rotate(-180 29.5 63.25)"/><path d="M28 61.75h3v3h-3z" class="c23-cls-7" transform="rotate(-180 29.5 63.25)"/><path d="M28 61.75h3v3h-3z" class="c23-cls-7" transform="rotate(-180 29.5 63.25)"/></g><g id="c73_sub-erupted"><path d="M28 61.75h3v3h-3z" class="c23-cls-7" transform="rotate(-180 29.5 63.25)"/><path d="M28 61.75h3v3h-3z" class="c23-cls-7" transform="rotate(-180 29.5 63.25)"/><path d="M28 61.75h3v3h-3z" class="c23-cls-7" transform="rotate(-180 29.5 63.25)"/></g><g id="c73_sealant"><path d="M28 61.75h3v3h-3z" class="c23-cls-7" transform="rotate(-180 29.5 63.25)"/><path d="M28 61.75h3v3h-3z" class="c23-cls-7" transform="rotate(-180 29.5 63.25)"/><path d="M28 61.75h3v3h-3z" class="c23-cls-7" transform="rotate(-180 29.5 63.25)"/></g><g id="c73_root_decay" data-name="root decay"><path d="M28 61.75h3v3h-3z" class="c23-cls-7" transform="rotate(-180 29.5 63.25)"/><path d="M28 61.75h3v3h-3z" class="c23-cls-7" transform="rotate(-180 29.5 63.25)"/><path d="M28 61.75h3v3h-3z" class="c23-cls-7" transform="rotate(-180 29.5 63.25)"/></g><g id="c73_root_canal" data-name="root canal"><path d="M28 61.75h3v3h-3z" class="c23-cls-7" transform="rotate(-180 29.5 63.25)"/><path d="M28 61.75h3v3h-3z" class="c23-cls-7" transform="rotate(-180 29.5 63.25)"/><path d="M28 61.75h3v3h-3z" class="c23-cls-7" transform="rotate(-180 29.5 63.25)"/></g><g id="c73_root_abrasion" data-name="root abrasion"><path d="M28 61.75h3v3h-3z" class="c23-cls-7" transform="rotate(-180 29.5 63.25)"/><path d="M28 61.75h3v3h-3z" class="c23-cls-7" transform="rotate(-180 29.5 63.25)"/><path d="M28 61.75h3v3h-3z" class="c23-cls-7" transform="rotate(-180 29.5 63.25)"/></g><g id="c73_open_contact_mesial" data-name="open contact mesial"><path d="M28 61.75h3v3h-3z" class="c23-cls-7" transform="rotate(-180 29.5 63.25)"/><path d="M28 61.75h3v3h-3z" class="c23-cls-7" transform="rotate(-180 29.5 63.25)"/><path d="M28 61.75h3v3h-3z" class="c23-cls-7" transform="rotate(-180 29.5 63.25)"/></g><g id="c73_open_contact_distal" data-name="open contact distal"><path d="M28 61.75h3v3h-3z" class="c23-cls-7" transform="rotate(-180 29.5 63.25)"/><path d="M28 61.75h3v3h-3z" class="c23-cls-7" transform="rotate(-180 29.5 63.25)"/><path d="M28 61.75h3v3h-3z" class="c23-cls-7" transform="rotate(-180 29.5 63.25)"/></g><path id="c73_lingual_abfraction" d="M17.8 16.16S23 12 29.5 12s11.7 4.12 11.7 4.12-5.2 4.17-11.7 4.17-11.7-4.13-11.7-4.13z" class="c23-cls-15" data-color-action="fill" style="fill:inherit" data-name="lingual abfraction"/><g id="c73_internal_root_resorption" data-name="internal root resorption"><path d="M28 61.75h3v3h-3z" class="c23-cls-7" transform="rotate(-180 29.5 63.25)"/><path d="M28 61.75h3v3h-3z" class="c23-cls-7" transform="rotate(-180 29.5 63.25)"/><path d="M28 61.75h3v3h-3z" class="c23-cls-7" transform="rotate(-180 29.5 63.25)"/></g><g id="c73_gortex_membranes" data-name="gortex membranes"><path d="M28 61.75h3v3h-3z" class="c23-cls-7" transform="rotate(-180 29.5 63.25)"/><path d="M28 61.75h3v3h-3z" class="c23-cls-7" transform="rotate(-180 29.5 63.25)"/><path d="M28 61.75h3v3h-3z" class="c23-cls-7" transform="rotate(-180 29.5 63.25)"/></g><g id="c73_frenum_pull" data-name="frenum pull"><path d="M28 61.75h3v3h-3z" class="c23-cls-7" transform="rotate(-180 29.5 63.25)"/><path d="M28 61.75h3v3h-3z" class="c23-cls-7" transform="rotate(-180 29.5 63.25)"/><path d="M28 61.75h3v3h-3z" class="c23-cls-7" transform="rotate(-180 29.5 63.25)"/></g><g id="c73_external_root_resorption" data-name="external root resorption"><path d="M28 61.75h3v3h-3z" class="c23-cls-7" transform="rotate(-180 29.5 63.25)"/><path d="M28 61.75h3v3h-3z" class="c23-cls-7" transform="rotate(-180 29.5 63.25)"/><path d="M28 61.75h3v3h-3z" class="c23-cls-7" transform="rotate(-180 29.5 63.25)"/></g><path id="c73_three_quarter_crown" d="M43.69 36.64C43.78 43 43.17 49 42 51c-2.31 4.23-23.65 4.92-25.36 3.46-1.17-1-1.67-9.41-1.19-17.85z" class="c23-cls-8 c23-cls-19" data-color-action="fill" style="fill:inherit" data-name="three quarter crown"/><path id="c73_crown" d="M19 19.65c-4.35 6-4.47 33-2.31 34.84 1.7 1.46 23.04.77 25.31-3.49 2.51-4.6 2.47-28.4-2.18-32.4-2.51-2.17-17.56-3.47-20.82 1.05z" class="c23-cls-8 c23-cls-19" data-color-action="fill" style="fill:inherit"/><path id="c73_cracked_surface_mesial" d="M17.66 47.19l-3.83-3.84h5.01l-5.01-4.74h5.01l-3.83-3.83" class="c23-cls-20" data-color-action="stroke" style="stroke:inherit" data-name="cracked surface mesial"/><path id="c73_cracked_surface_lingual" d="M30.83 47.19L27 43.35h5l-5-4.74h5l-3.83-3.83" class="c23-cls-20" data-color-action="stroke" style="stroke:inherit" data-name="cracked surface lingual"/><path id="c73_cracked_surface_lingual_V" d="M30.83 47.19L27 43.35h5l-5-4.74h5l-3.83-3.83" class="c23-cls-20" data-color-action="stroke" style="stroke:inherit" data-name="cracked surface lingual V"/><path id="c73_cracked_surface_distal" d="M43.66 47.19l-3.83-3.84h5l-5-4.74h5L41 34.78" class="c23-cls-20" data-color-action="stroke" style="stroke:inherit" data-name="cracked surface distal"/><g id="c73_chipped_surface_mesial" class="c23-cls-8" data-name="chipped surface mesial"><path d="M21.17 45.51l-8.33-8.33M12.84 45.51l8.33-8.33" class="c23-cls-21" data-color-action="stroke" style="stroke:inherit"/></g><g id="c73_chipped_surface_lingual" class="c23-cls-8" data-name="chipped surface lingual"><path d="M33.33 45.51L25 37.18M25 45.51l8.33-8.33" class="c23-cls-21" data-color-action="stroke" style="stroke:inherit"/></g><g id="c73_chipped_surface_lingual_V" class="c23-cls-8" data-name="chipped surface lingual V"><path d="M33.33 45.51L25 37.18M25 45.51l8.33-8.33" class="c23-cls-21" data-color-action="stroke" style="stroke:inherit"/></g><g id="c73_chipped_surface_distal" class="c23-cls-8" data-name="chipped surface distal"><path d="M46.33 45.51L38 37.18M38 45.51l8.33-8.33" class="c23-cls-21" data-color-action="stroke" style="stroke:inherit"/></g><g id="c73_buccal_abfraction" data-name="buccal abfraction"><path d="M28 61.75h3v3h-3z" class="c23-cls-7" transform="rotate(-180 29.5 63.25)"/><path d="M28 61.75h3v3h-3z" class="c23-cls-7" transform="rotate(-180 29.5 63.25)"/><path d="M28 61.75h3v3h-3z" class="c23-cls-7" transform="rotate(-180 29.5 63.25)"/></g><g id="c73_braces"><path d="M28 61.75h3v3h-3z" class="c23-cls-7" transform="rotate(-180 29.5 63.25)"/><path d="M28 61.75h3v3h-3z" class="c23-cls-7" transform="rotate(-180 29.5 63.25)"/><path d="M28 61.75h3v3h-3z" class="c23-cls-7" transform="rotate(-180 29.5 63.25)"/></g><g id="c73_apicoectomy"><path d="M28 61.75h3v3h-3z" class="c23-cls-7" transform="rotate(-180 29.5 63.25)"/><path d="M28 61.75h3v3h-3z" class="c23-cls-7" transform="rotate(-180 29.5 63.25)"/><path d="M28 61.75h3v3h-3z" class="c23-cls-7" transform="rotate(-180 29.5 63.25)"/></g><g id="c73_abscess"><path d="M28 61.75h3v3h-3z" class="c23-cls-7" transform="rotate(-180 29.5 63.25)"/><path d="M28 61.75h3v3h-3z" class="c23-cls-7" transform="rotate(-180 29.5 63.25)"/><path d="M28 61.75h3v3h-3z" class="c23-cls-7" transform="rotate(-180 29.5 63.25)"/></g><g id="c73_blunted_roots" data-name="blunted roots"><path d="M28 61.75h3v3h-3z" class="c23-cls-7" transform="rotate(-180 29.5 63.25)"/><path d="M28 61.75h3v3h-3z" class="c23-cls-7" transform="rotate(-180 29.5 63.25)"/><path d="M28 61.75h3v3h-3z" class="c23-cls-7" transform="rotate(-180 29.5 63.25)"/></g><g id="c73_root_amputation" data-name="root amputation"><path d="M28 61.75h3v3h-3z" class="c23-cls-7" transform="rotate(-180 29.5 63.25)"/><path d="M28 61.75h3v3h-3z" class="c23-cls-7" transform="rotate(-180 29.5 63.25)"/><path d="M28 61.75h3v3h-3z" class="c23-cls-7" transform="rotate(-180 29.5 63.25)"/></g><g id="c73_missing_crown" data-name="missing crown"><path d="M28 61.75h3v3h-3z" class="c23-cls-7" transform="rotate(-180 29.5 63.25)"/><path d="M28 61.75h3v3h-3z" class="c23-cls-7" transform="rotate(-180 29.5 63.25)"/><path d="M28 61.75h3v3h-3z" class="c23-cls-7" transform="rotate(-180 29.5 63.25)"/><path d="M2 2h55v61.98H2z" class="c23-cls-13" transform="rotate(-180 29.5 32.99)"/></g><g id="c73_missing_tooth" data-name="missing tooth"><path d="M19 19.65c-4.35 6-4.47 33-2.31 34.84 1.7 1.46 23.04.77 25.31-3.49 2.51-4.6 2.47-28.4-2.18-32.4-2.51-2.17-17.56-3.47-20.82 1.05z" class="c23-cls-2"/><path d="M19 19.65c-4.35 6-4.47 33-2.31 34.84 1.7 1.46 23.04.77 25.31-3.49 2.51-4.6 2.47-28.4-2.18-32.4-2.51-2.17-17.56-3.47-20.82 1.05z" class="c23-cls-13"/><path d="M19.42 27.06c-.91-.36.72-4.35 1.81-5.43s5.43-1.81 8-1.63 6.88 0 8.33 1.27 2 5.8 1.63 6.52-1.63-3.26-2.72-3.8-2-.54-4 .18-5.25-1.63-7.24-.91-4.75 4.22-5.81 3.8zM16.68 54.49c1.71 1.46 23.05.77 25.32-3.49a9.32 9.32 0 0 0 .76-2.31c-2.09 1.56-7.14 2.85-10 3.14a134.17 134.17 0 0 1-14.13.72 4.26 4.26 0 0 1-3-1.69c.3 1.96.63 3.27 1.05 3.63z" class="c23-cls-13"/></g><g id="c73_maryland_bridge_pontic" class="c23-cls-8" data-name="maryland bridge pontic"><path d="M19 19.65c-4.35 6-4.47 33-2.31 34.84 1.7 1.46 23.04.77 25.31-3.49 2.51-4.6 2.47-28.4-2.18-32.4-2.51-2.17-17.56-3.47-20.82 1.05z" class="c23-cls-14" data-color-action="fill" style="fill:inherit"/><path d="M2 32.37h55v7.67H2z" class="c23-cls-14" transform="rotate(-180 29.5 36.205)" data-color-action="fill" style="fill:inherit"/></g><g id="c73_maryland_bridge_abutment_mesial" class="c23-cls-8" data-name="maryland bridge abutment mesial"><path d="M2 32.17h20.42v7.67H2z" class="c23-cls-14" data-color-action="fill" style="fill:inherit"/><ellipse cx="21.19" cy="36.01" class="c23-cls-14" rx="5.61" ry="12.9" data-color-action="fill" style="fill:inherit"/></g><g id="c73_maryland_bridge_abutment_distal" class="c23-cls-8" data-name="maryland bridge abutment distal"><path d="M36.58 32.17H57v7.67H36.58z" class="c23-cls-14" data-color-action="fill" style="fill:inherit"/><ellipse cx="37.81" cy="36.01" class="c23-cls-14" rx="5.61" ry="12.9" data-color-action="fill" style="fill:inherit"/></g><g id="c73_maryland_bridge_abutment" class="c23-cls-8" data-name="maryland bridge abutment"><path d="M2 32.17h20.42v7.67H2zM36.58 32.17H57v7.67H36.58z" class="c23-cls-14" data-color-action="fill" style="fill:inherit"/><ellipse cx="37.81" cy="36.01" class="c23-cls-14" rx="5.61" ry="12.9" data-color-action="fill" style="fill:inherit"/><ellipse cx="21.19" cy="36.01" class="c23-cls-14" rx="5.61" ry="12.9" data-color-action="fill" style="fill:inherit"/></g><g id="c73_bridge_abutment_mesial" class="c23-cls-8" data-name="bridge abutment mesial"><path d="M19 19.65c-4.35 6-4.47 33-2.31 34.84 1.7 1.46 23.04.77 25.31-3.49 2.51-4.6 2.47-28.4-2.18-32.4-2.51-2.17-17.56-3.47-20.82 1.05z" class="c23-cls-11" data-color-action="fill" style="fill:inherit"/><path d="M2 32.6h34.98v7.67H2z" class="c23-cls-11" transform="rotate(-180 19.49 36.43)" data-color-action="fill" style="fill:inherit"/></g><g id="c73_bridge_abutment_distal" class="c23-cls-8" data-name="bridge abutment distal"><path d="M19 19.65c-4.35 6-4.47 33-2.31 34.84 1.7 1.46 23.04.77 25.31-3.49 2.51-4.6 2.47-28.4-2.18-32.4-2.51-2.17-17.56-3.47-20.82 1.05z" class="c23-cls-11" data-color-action="fill" style="fill:inherit"/><path d="M22.02 32.6H57v7.67H22.02z" class="c23-cls-11" transform="rotate(-180 39.51 36.43)" data-color-action="fill" style="fill:inherit"/></g><g id="c73_bridge_abutment" class="c23-cls-8" data-name="bridge abutment"><path d="M19 19.65c-4.35 6-4.47 33-2.31 34.84 1.7 1.46 23.04.77 25.31-3.49 2.51-4.6 2.47-28.4-2.18-32.4-2.51-2.17-17.56-3.47-20.82 1.05z" class="c23-cls-11" data-color-action="fill" style="fill:inherit"/><path d="M2 32.6h55v7.67H2z" class="c23-cls-11" transform="rotate(-180 29.5 36.43)" data-color-action="fill" style="fill:inherit"/></g><g id="c73_bridge_pontic" class="c23-cls-8" data-name="bridge pontic"><path d="M19 19.65c-4.35 6-4.47 33-2.31 34.84 1.7 1.46 23.04.77 25.31-3.49 2.51-4.6 2.47-28.4-2.18-32.4-2.51-2.17-17.56-3.47-20.82 1.05z" class="c23-cls-11" data-color-action="fill" style="fill:inherit"/><path d="M2 32.6h55v7.67H2z" class="c23-cls-11" transform="rotate(-180 29.5 36.43)" data-color-action="fill" style="fill:inherit"/></g><g id="c73_implant_mini" data-name="implant mini"><path d="M2 2h55v61.98H2z" class="c23-cls-13" transform="rotate(-180 29.5 32.99)"/><path d="M29.28 0h.44l1 8.5v40.83h-2.44V8.5l1-8.5z" class="c23-cls-11" data-color-action="fill" style="fill:inherit"/><path d="M29.58 0h.07l.4 8.5v40.83h-.37V8.5l-.1-8.5z" class="c23-cls-16"/><path d="M28.28 48.7h2.44v.63h-2.44z" class="c23-cls-17" transform="rotate(-180 29.5 49.015)" data-color-action="fill" style="fill:inherit"/><g class="c23-cls-18"><path d="M30.72 48.7l-2.44-1v.63l2.44 1v-.63zM30.72 47.26l-2.44-1v.63l2.44 1v-.63zM30.72 45.81l-2.44-1v.63l2.44 1v-.63zM30.72 44.36l-2.44-1V44l2.44 1v-.64zM30.72 42.92l-2.44-1v.63l2.44 1v-.63zM30.72 41.47l-2.44-1v.63l2.44 1.01v-.64zM30.72 40.03l-2.44-1v.63l2.44 1v-.63zM30.72 38.58l-2.44-1v.63l2.44 1.01v-.64zM30.72 37.14l-2.44-1v.63l2.44 1v-.63zM30.72 35.69l-2.44-1v.63l2.44 1v-.63zM30.72 34.25l-2.44-1.01v.64l2.44 1v-.63zM30.72 32.8l-2.44-1v.63l2.44 1v-.63zM30.72 31.36l-2.44-1v.63l2.44 1v-.63zM30.72 29.91l-2.44-1v.63l2.44 1v-.63zM30.72 28.46l-2.44-1v.64l2.44 1v-.64zM30.72 27.02l-2.44-1v.63l2.44 1v-.63zM30.72 25.57l-2.44-1v.63l2.44 1.01v-.64zM30.72 24.13l-2.44-1v.63l2.44 1v-.63zM30.72 22.68l-2.44-1v.63l2.44 1.01v-.64zM30.72 21.24l-2.44-1v.63l2.44 1v-.63zM30.72 19.79l-2.44-1v.63l2.44 1v-.63zM30.72 18.35l-2.44-1.01v.64l2.44 1v-.63zM30.72 16.9l-2.44-1v.63l2.44 1v-.63zM30.72 15.46l-2.44-1v.63l2.44 1v-.63zM30.72 14.01l-2.44-1v.63l2.44 1v-.63zM30.72 12.56l-2.44-1v.64l2.44 1v-.64zM30.72 11.12l-2.44-1v.63l2.44 1v-.63zM30.72 9.67l-2.44-1v.63l2.44 1.01v-.64zM30.72 8.5l-.03-.29-2.27-.92-.07.6 2.37.97V8.5zM30.51 6.7l-1.93-.79-.07.6 2.08.85-.08-.66zM30.33 5.18l-1.58-.65-.08.6 1.74.71-.08-.66zM30.15 3.66l-1.24-.51-.07.6 1.39.57-.08-.66zM29.97 2.14l-.9-.37-.07.6 1.05.43-.08-.66zM29.8.62l-.57-.23-.07.6.71.3-.07-.67z" class="c23-cls-17" data-color-action="fill" style="fill:inherit"/></g><circle cx="29.5" cy="53.21" r="2.24" class="c23-cls-11" data-color-action="fill" style="fill:inherit"/><path d="M27.67 48.99h3.67v3h-3.67z" class="c23-cls-11" transform="rotate(-180 29.5 50.49)" data-color-action="fill" style="fill:inherit"/><path d="M29.96 48.99h.55v3h-.55z" class="c23-cls-16"/><path d="M30.3 54.56h.21a2.32 2.32 0 0 0 .49-1.28 2.37 2.37 0 0 0-.52-1.3H30a2 2 0 0 1 .73 1.37 1.5 1.5 0 0 1-.43 1.21z" class="c23-cls-16"/><path d="M28.28 42.63h2.44v.63h-2.44z" class="c23-cls-17" transform="rotate(-180 29.5 42.95)" data-color-action="fill" style="fill:inherit"/><path d="M26.89 49.01h5.22l-.87-5.71h-3.48l-.87 5.71z" class="c23-cls-11" data-color-action="fill" style="fill:inherit"/><path d="M30.15 49.01h.79l-.48-5.71h-.53l.22 5.71z" class="c23-cls-16"/></g><g id="c73_implant_cylinder" data-name="implant cylinder"><path d="M2 2h55v61.98H2z" class="c23-cls-13" transform="rotate(-180 29.5 32.99)"/><path d="M26.17 3h6.67v49.33h-6.67z" class="c23-cls-11" transform="rotate(-180 29.5 27.665)" data-color-action="fill" style="fill:inherit"/><path d="M24.5 0h10v3h-10z" class="c23-cls-11" transform="rotate(-180 29.5 1.5)" data-color-action="fill" style="fill:inherit"/><path d="M30 3h1v49.33h-1z" class="c23-cls-16" transform="rotate(-180 30.5 27.665)"/><path d="M30.75 0h1.5v3h-1.5z" class="c23-cls-16" transform="rotate(-180 31.5 1.5)"/><path d="M24.5 52.36h10v3h-10z" class="c23-cls-11" transform="rotate(-180 29.5 53.86)" data-color-action="fill" style="fill:inherit"/><path d="M30.75 52.36h1.5v3h-1.5z" class="c23-cls-16" transform="rotate(-180 31.5 53.86)"/><path d="M26.17 3h6.67v.63h-6.67z" class="c23-cls-17" transform="rotate(-180 29.5 3.315)" data-color-action="fill" style="fill:inherit"/><path d="M26.17 51.7h6.67v.63h-6.67z" class="c23-cls-17" transform="rotate(-180 29.5 52.015)" data-color-action="fill" style="fill:inherit"/><g class="c23-cls-18"><path d="M26.17 50.7l6.66 1v.63l-6.66-1v-.63zM26.17 49.25l6.66 1v.63l-6.66-1v-.63zM26.17 47.81l6.66 1v.63l-6.66-1v-.63zM26.17 46.36l6.66 1v.63l-6.66-1v-.63zM26.17 44.92l6.66 1v.63l-6.66-1v-.63zM26.17 43.47l6.66 1v.63l-6.66-1v-.63zM26.17 42.02l6.66 1v.64l-6.66-1v-.64zM26.17 40.58l6.66 1v.63l-6.66-1v-.63zM26.17 39.13l6.66 1v.64l-6.66-1v-.64zM26.17 37.69l6.66 1v.63l-6.66-1v-.63zM26.17 36.24l6.66 1v.64l-6.66-1v-.64zM26.17 34.8l6.66 1v.63l-6.66-1v-.63zM26.17 33.35l6.66 1v.63l-6.66-1v-.63zM26.17 31.91l6.66 1v.63l-6.66-1v-.63zM26.17 30.46l6.66 1v.63l-6.66-1v-.63zM26.17 29.02l6.66 1v.63l-6.66-1v-.63zM26.17 27.57l6.66 1v.63l-6.66-1v-.63zM26.17 26.13l6.66 1v.63l-6.66-1v-.63zM26.17 24.68l6.66 1v.63l-6.66-1v-.63zM26.17 23.23l6.66 1v.64l-6.66-1v-.64zM26.17 21.79l6.66 1v.63l-6.66-1v-.63zM26.17 20.34l6.66 1v.64l-6.66-1v-.64zM26.17 18.9l6.66 1v.63l-6.66-1v-.63zM26.17 17.45l6.66 1v.64l-6.66-1.01v-.63zM26.17 16.01l6.66 1v.63l-6.66-1v-.63zM26.17 14.56l6.66 1v.63l-6.66-1v-.63zM26.17 13.12l6.66 1v.63l-6.66-1v-.63zM26.17 11.67l6.66 1v.63l-6.66-1v-.63zM26.17 10.22l6.66 1v.64l-6.66-1v-.64zM26.17 8.78l6.66 1v.63l-6.66-1v-.63zM26.17 7.33l6.66 1.01v.63l-6.66-1v-.64zM26.17 5.89l6.66 1v.63l-6.66-1v-.63zM26.17 4.44l6.66 1v.64l-6.66-1v-.64zM26.17 3l6.66 1v.63l-6.66-1V3z" class="c23-cls-17" data-color-action="fill" style="fill:inherit"/></g></g><g id="c73_implant_blade" data-name="implant blade"><path d="M2 2h55v61.98H2z" class="c23-cls-13" transform="rotate(-180 29.5 32.99)"/><path d="M26.17 3.03h6.67v49.33h-6.67z" class="c23-cls-11" transform="rotate(-180 29.5 27.69)" data-color-action="fill" style="fill:inherit"/><path d="M24.5 52.36h10v3h-10z" class="c23-cls-11" transform="rotate(-180 29.5 53.86)" data-color-action="fill" style="fill:inherit"/><path d="M30 3.03h1v49.33h-1z" class="c23-cls-16" transform="rotate(-180 30.5 27.69)"/><path d="M30.75 52.36h1.5v3h-1.5z" class="c23-cls-16" transform="rotate(-180 31.5 53.86)"/><path d="M26.17 51.73h6.67v.63h-6.67z" class="c23-cls-17" transform="rotate(-180 29.5 52.045)" data-color-action="fill" style="fill:inherit"/></g><path id="c73_border" d="M0 0h59v66H0z" class="c23-cls-7" transform="rotate(-180 29.5 33)"/></defs></g></svg>