<svg version="1.1" xmlns="http://www.w3.org/2000/svg" xmlns:xlink="http://www.w3.org/1999/xlink" x="0px" y="0px" viewBox="0 0 59 283" style="enable-background:new 0 0 59 161;" xml:space="preserve"><defs><style type="text/css">.aO-cls-2{fill:#929497;stroke:none;}.aO-cls-3{font-family:'ProximaNova-Semibold',sans-serif;}.aO-cls-4{font-size:15px;}.aO-cls-5{fill:#C5C7C9;stroke:#C5C7C9;stroke-width:5;stroke-miterlimit:10;}.aO-cls-6{fill:#F5D7CF;stroke:none;}.aO-cls-7{fill:#F2C6BC;stroke:none;}.aO-cls-8{fill:#FAE8E3;stroke:none;}.aO-cls-9{fill:#EEEFEF;stroke:none;}.aO-cls-10{fill:#E2E3E4;stroke:none;}.aO-cls-11{fill:#FBFBFB;stroke:none;}.aO-cls-12{opacity:0.55;fill:#3C3D3D;stroke:none;}.aO-cls-13{fill:#FFD403;stroke:none;}.aO-cls-14{fill:none;stroke:#C52636;stroke-width:3.622;stroke-miterlimit:10;}.aO-cls-15{font-family:'ProximaNova-Bold',sans-serif;}.aO-cls-16{font-size:13.6587px;}.aO-cls-17{fill:none;stroke:none;}.aO-cls-18{fill:#28418B;stroke:none;}.aO-cls-19{fill:#787878;stroke:none;}.aO-cls-20{fill:none;stroke:#C52636;stroke-width:2;stroke-miterlimit:10;}.aO-cls-21{fill:#C52636;stroke:none;}.aO-cls-22{fill:none;stroke:#C52636;stroke-width:2;stroke-linecap:round;stroke-miterlimit:10;}.aO-cls-23{fill:#C5C7C9;stroke:none;}.aO-cls-24{fill:#FFF;stroke:none;}.aO-cls-25{fill:none;stroke:#28418B;stroke-width:2;stroke-miterlimit:10;}.aO-cls-26{fill:#FFEF3E;stroke:none;}.aO-cls-27{fill:none;stroke:#C52636;stroke-width:1.25;stroke-miterlimit:10;}.aO-cls-28{fill:#9B9999;stroke:none;}.aO-cls-29{fill:#DBDBDC;stroke:none;}.aO-cls-30{fill:#3C3D3D;stroke:none;}.cO-cls-2{fill:#C4C6C7;stroke:#C4C6C7;stroke-width:5;stroke-miterlimit:10;}.cO-cls-3{fill:#EEEFEF;stroke:none;}.cO-cls-4{fill:#FBFBFB;stroke:none;}.cO-cls-5{fill:#E2E3E4;stroke:none;}.cO-cls-6{opacity:0.55;fill:#3C3D3D;stroke:none;}.cO-cls-7{fill:#28418B;stroke:none;}.cO-cls-8{fill:#787878;stroke:none;}.cO-cls-9{fill:#FFF;stroke:none;}.cO-cls-10{fill:#FFEF3E;stroke:none;}.cO-cls-11{fill:none;stroke:#C52636;stroke-width:1.25;stroke-miterlimit:10;}.cO-cls-12{fill:none;stroke:none;}.aO-cls-31{font-family:'ProximaNova-Semibold',sans-serif;font-size:33px;fill:#28418B;stroke:none;}.aO-msng-cls-1{isolation:isolate;}.aO-msng-cls-2{font-size:15px;fill:#929497;font-family:ProximaNova-Semibold,Proxima Nova;font-weight:700;stroke:none;}.aO-msng-cls-3{fill:#C5C7C9;stroke:#C5C7C9;stroke-width:5px;}.aO-msng-cls-11,.aO-msng-cls-3{stroke-miterlimit:10;}.aO-msng-cls-4{fill:#F5D7CF;stroke:none;}.aO-msng-cls-5{fill:#F2C6BC;stroke:none;}.aO-msng-cls-6{fill:#FAE8E3;stroke:none;}.aO-msng-cls-7{fill:#EEEFEF;stroke:none;}.aO-msng-cls-8{fill:#E2E3E4;stroke:none;}.aO-msng-cls-9{fill:#FBFBFB;stroke:none;}.aO-msng-cls-10{}.aO-msng-cls-11,.aO-msng-cls-12{fill:none;stroke:none;}.aO-msng-cls-11{stroke:#787878;stroke-width:6.25px;}</style></defs><title>ToothO_Layered</title><g class="aO-cls-1" transform="translate(0 122)"><g id="_Oa">	<text transform="matrix(1 0 0 1 23.7625 150.7422)" class="aO-cls-2 aO-cls-3 aO-cls-4">O</text>	<g>		<path class="aO-cls-5" d="M21.2,12.5c-1.5,1.1-2.5,15.5,0.7,20.1c0.1,0.2,0.3,0.3,0.5,0.5c0,3.6,1.2,17.4,3.2,26.1    c2.1,9.4,6.8,14.7,7.7,14.3c1.7-0.7-0.1-6.3,0.3-16.6c0.3-7.3,2.8-21.7,3.1-23.4c0.1,0,0.2-0.1,0.2-0.1c3.1-2.3,2.8-16.7,0.6-19    C35.2,12.1,22.3,11.7,21.2,12.5z" />		<path class="aO-cls-6" d="M22.4,32.4c-0.2,1.8,1,17.4,3.1,26.8s6.8,14.7,7.7,14.3c1.7-0.7-0.1-6.3,0.3-16.6c0.3-7.4,2.9-22.3,3.1-23.5    C37.5,29.4,23,27,22.4,32.4z" />		<path class="aO-cls-7" d="M23.7,36.2c-0.1-1.9,0.1-4.1-0.4-5.6c-0.5,0.5-0.9,1.1-1,1.8c-0.2,1.8,1,17.4,3.1,26.8    c0.9,4.1,2.3,7.4,3.7,9.8c-1.1-2.4-2.5-6.1-2.9-9.3C25.6,54.6,23.8,38.9,23.7,36.2z" />		<path class="aO-cls-7" d="M33.6,56.9c0.3-7.4,2.9-22.3,3.1-23.5c0.1-0.5,0-1-0.4-1.4c-0.4,0.4-0.8,0.9-0.9,1.4c-0.5,2-1.1,7.2-1.9,12.9    c-0.8,5.6-0.9,12.7-0.6,15.5c0.1,1.5,0.4,2.7,0.7,3.9C33.5,63.3,33.4,60.4,33.6,56.9z" />		<path class="aO-cls-8" d="M31,34.5c0.1,1.9-0.6,9.7-1,13.8c-0.5,4.6-0.5,11.5,0.6,16.7c0.6,2.8,1.5,6.2,2,6c0.5-0.2-1-6.6-1.1-9.5    c-0.3-14.1,2.2-25.6,2.2-26.9S30.8,32.2,31,34.5z" />		<path class="aO-cls-9" d="M21.9,32.6c-3.2-4.6-2.1-19-0.7-20.1c1.1-0.8,14-0.5,16.3,1.9c2.3,2.3,2.6,16.7-0.6,19    C35.2,34.6,23.8,35.4,21.9,32.6z" />		<g>			<path class="aO-cls-10" d="M22.7,12.2c-0.8,0.1-1.3,0.2-1.5,0.3c-1.5,1.1-2.5,15.5,0.7,20.1c0.3,0.5,0.9,0.8,1.7,1.1     C21.6,28.8,21.9,16.5,22.7,12.2z" />			<path class="aO-cls-10" d="M37.5,14.4c-0.3-0.3-0.9-0.6-1.7-0.9c1.3,3.4,1.5,16-0.1,20.4c0.5-0.1,0.9-0.3,1.2-0.5     C40,31.1,39.8,16.7,37.5,14.4z" />		</g>		<path class="aO-cls-11" d="M31.1,23.3c0.1,2.7,0,8.9-0.1,11.1c0.8,0,1.6-0.1,2.3-0.2c0.3-2.3,0.7-7.2,0.5-10.2    c-0.2-3.1-0.6-8.9-0.7-11.3c-0.8-0.2-1.7-0.3-2.7-0.4C30.6,14.9,31,20.6,31.1,23.3z" />	</g></g><defs><g id="aO_bone_graft" style="">	<g>		<g>							<ellipse transform="matrix(0.1539 -0.9881 0.9881 0.1539 -23.6537 49.9275)" class="aO-cls-14" cx="17.3" cy="38.8" rx="12.7" ry="12.7" data-color-action="stroke" style="stroke:inherit" />			<line class="aO-cls-14" x1="10.3" y1="29.2" x2="24.3" y2="48.4" data-color-action="stroke" style="stroke:inherit" />		</g>		<text transform="matrix(1 0 0 1 6.7031 43.357)" class="aO-cls-15 aO-cls-16">NA</text>	</g></g><g id="aO_splinted_crowns" style="">	<g>		<g>							<ellipse transform="matrix(0.1539 -0.9881 0.9881 0.1539 -23.6537 49.9275)" class="aO-cls-14" cx="17.3" cy="38.8" rx="12.7" ry="12.7" data-color-action="stroke" style="stroke:inherit" />			<line class="aO-cls-14" x1="10.3" y1="29.2" x2="24.3" y2="48.4" data-color-action="stroke" style="stroke:inherit" />		</g>		<text transform="matrix(1 0 0 1 6.7031 43.357)" class="aO-cls-15 aO-cls-16">NA</text>	</g></g><g id="aO_facial_V" style="">	<path class="aO-cls-12" d="M35,34c-2.7,0.5-7.5,0.7-10.5,0c1.5-0.9,3.3-1.4,5.2-1.4C31.7,32.6,33.5,33.1,35,34z" data-color-action="fill" style="fill:inherit" /></g><g id="aO_mid_facial" style="">	<ellipse class="aO-cls-12" cx="29.6" cy="24.6" rx="3" ry="5.3" data-color-action="fill" style="fill:inherit" /></g><g id="aO_mesial" style="">	<path class="aO-cls-12" d="M19.9,18.1l2.4,1.4c-0.6,1.5-0.2,3.6-0.6,5.8c-0.2,1-0.8,1.7-1.6,2.1C19.7,24.5,19.7,21,19.9,18.1z" data-color-action="fill" style="fill:inherit" /></g><g id="aO_line_angle_2" style="">	<path class="aO-cls-12" d="M25,12.1l1.5,5.1c-0.9,0.1-1.8,0.3-2.4,0.5c-1,0.4-1.5,1-1.8,1.8l-2.4-1.4c0.2-2.9,0.7-5.2,1.3-5.6   C21.5,12.3,23,12.1,25,12.1z" data-color-action="fill" style="fill:inherit" /></g><g id="aO_facial" style="">	<path class="aO-cls-12" d="M34.5,13.1l-1.1,4.5c-1.8-0.3-4.6-0.6-6.9-0.3L25,12.1C27.9,12.1,31.8,12.4,34.5,13.1z" data-color-action="fill" style="fill:inherit" /></g><g id="aO_line_angle_1" style="">	<path class="aO-cls-12" d="M37.5,14.4c0.6,0.6,1.1,2.2,1.4,4.1L36.4,20c-0.4-1.1-1-1.9-1.8-2.2c-0.3-0.1-0.7-0.2-1.1-0.3l1.1-4.5   C35.9,13.4,37,13.8,37.5,14.4z" data-color-action="fill" style="fill:inherit" /></g><g id="aO_distal" style="">	<path class="aO-cls-12" d="M37.3,24.8c-0.2-1.3-0.4-3.3-0.9-4.8l2.5-1.5c0.4,2.6,0.5,6,0.1,8.9C38.2,26.9,37.4,26,37.3,24.8z" data-color-action="fill" style="fill:inherit" /></g><g id="aO_veneer" style="">	<g>		<g>							<ellipse transform="matrix(0.1539 -0.9881 0.9881 0.1539 -23.6537 49.9275)" class="aO-cls-14" cx="17.3" cy="38.8" rx="12.7" ry="12.7" data-color-action="stroke" style="stroke:inherit" />			<line class="aO-cls-14" x1="10.3" y1="29.2" x2="24.3" y2="48.4" data-color-action="stroke" style="stroke:inherit" />		</g>		<text transform="matrix(1 0 0 1 6.7031 43.357)" class="aO-cls-15 aO-cls-16">NA</text>	</g></g><g id="aO_tissue_graft" style="">	<g>		<g>							<ellipse transform="matrix(0.1539 -0.9881 0.9881 0.1539 -23.6537 49.9275)" class="aO-cls-14" cx="17.3" cy="38.8" rx="12.7" ry="12.7" data-color-action="stroke" style="stroke:inherit" />			<line class="aO-cls-14" x1="10.3" y1="29.2" x2="24.3" y2="48.4" data-color-action="stroke" style="stroke:inherit" />		</g>		<text transform="matrix(1 0 0 1 6.7031 43.357)" class="aO-cls-15 aO-cls-16">NA</text>	</g></g><g id="aO_tipped_lingual" style="">	<rect x="28" y="154.8" transform="matrix(-1 -4.486867e-11 4.486867e-11 -1 59 312.5)" class="aO-cls-17" width="3" height="3" /></g><g id="aO_tipped_facial" style="">	<g>		<path class="aO-cls-18" d="M33.9,8.8c-1.2-3.2-4.5-3.6-7.2,5c-0.5,1.5-4.2,1.7-3.6,0c1.9-5.7,5-9.6,8.5-8.7c1.2,0.3,2.3,1.6,2.8,3.2    C34.2,8.4,34,8.7,33.9,8.8z" data-color-action="fill" style="fill:inherit" />		<polygon class="aO-cls-18" points="32,11.5 19.8,11.5 22.6,20.6   " data-color-action="fill" style="fill:inherit" />	</g></g><g id="aO_surface_restoration_mesial" style="">	<path class="aO-cls-19" d="M21.2,12.5l4.9,5.6c-0.1,0-0.2,0-0.2,0c-0.2,2.1-0.6,8.8-0.6,13.7c-0.7-3.2-2.7-5.9-5.5-7.5   C19.5,19,20.3,13.2,21.2,12.5C21.2,12.5,21.2,12.5,21.2,12.5z" data-color-action="fill" style="fill:inherit" /></g><g id="aO_surface_restoration_facial" style="">	<g>		<path class="aO-cls-19" d="M25.3,31.8c0-4.9,0.4-11.6,0.6-13.7c2.8,0.1,5.5,0.4,7,0.7c0.3,1.6,0.3,7.9,0.1,12.8    c-1.1-0.5-2.4-0.8-3.7-0.8C27.9,30.9,26.5,31.2,25.3,31.8z" data-color-action="fill" style="fill:inherit" />			</g></g><g id="aO_surface_restoration_facial_V" style="">	<g>				<path class="aO-cls-19" d="M32.7,34.3c-2.2,0.2-4.9,0.2-7.1-0.1c0-0.8-0.1-1.6-0.3-2.3c0,0,0,0,0,0c1.2-0.6,2.5-0.9,3.9-0.9    c1.3,0,2.6,0.3,3.7,0.8c0,0.2,0,0.4,0,0.6C32.8,32.9,32.7,33.6,32.7,34.3z" data-color-action="fill" style="fill:inherit" />	</g></g><g id="aO_surface_restoration_distal" style="">	<path class="aO-cls-19" d="M37.5,14.4c1.2,1.2,1.8,5.6,1.7,9.9c-3.2,1.5-5.5,4.4-6.3,8c0.2-5,0.3-11.8,0-13.4c0,0,0,0,0,0L37.5,14.4   C37.5,14.3,37.5,14.4,37.5,14.4z" data-color-action="fill" style="fill:inherit" /></g><g id="aO_surface_restoration_incisal" style="">	<path class="aO-cls-19" d="M37.5,14.3l-4.6,4.5c-1.5-0.3-4-0.6-6.7-0.7l-4.9-5.6C22.4,11.7,35.1,12.1,37.5,14.3z" data-color-action="fill" style="fill:inherit" /></g><g id="aO_supra-erupted" style="">	<g>		<g>							<ellipse transform="matrix(0.1539 -0.9881 0.9881 0.1539 -23.6537 49.9275)" class="aO-cls-14" cx="17.3" cy="38.8" rx="12.7" ry="12.7" data-color-action="stroke" style="stroke:inherit" />			<line class="aO-cls-14" x1="10.3" y1="29.2" x2="24.3" y2="48.4" data-color-action="stroke" style="stroke:inherit" />		</g>		<text transform="matrix(1 0 0 1 6.7031 43.357)" class="aO-cls-15 aO-cls-16">NA</text>	</g></g><g id="aO_sub-erupted" style="">	<g>		<g>			<line class="aO-cls-20" x1="29.5" y1="43.5" x2="29.5" y2="36.6" data-color-action="stroke" style="stroke:inherit" />			<g>				<polygon class="aO-cls-21" points="33.5,42.3 29.5,49.2 25.5,42.3     " data-color-action="fill" style="fill:inherit" />			</g>		</g>	</g></g><g id="aO_sealant" style=""><text class="aO-cls-31" transform="matrix(1 0 0 1 19.7 -18.45)" data-color-action="fill" style="fill:inherit">S</text></g><g id="aO_rotated_mesial" style="">	<g>		<path class="aO-cls-18" d="M49.7,28.8c2.8-1.7,2.2-5.1-9.6-5.5c-5-0.1-8.4,0-8.4,0l0.1-2.8c0,0,0.9-0.1,7.7,0.2    c7.2,0.3,13.2,1.7,12.9,5.6c-0.1,1-1,2.1-2.2,2.7C50.1,29,49.8,28.8,49.7,28.8z" data-color-action="fill" style="fill:inherit" />		<polygon class="aO-cls-18" points="37.8,27.6 37.8,16.4 28,21.9   " data-color-action="fill" style="fill:inherit" />	</g></g><g id="aO_rotated_distal" style="">	<g>		<path class="aO-cls-18" d="M9,28.8c-2.8-1.7-2.2-5.1,9.6-5.5c5-0.1,8.4,0,8.4,0L27,20.5c0,0-0.9-0.1-7.7,0.2C12.1,21,6.1,22.5,6.4,26.3    c0.1,1,1,2.1,2.2,2.7C8.7,29,8.9,28.8,9,28.8z" data-color-action="fill" style="fill:inherit" />		<polygon class="aO-cls-18" points="21,27.6 21,16.4 30.8,21.9   " data-color-action="fill" style="fill:inherit" />	</g></g><g id="aO_root_tips" style="">	<g>		<g>							<ellipse transform="matrix(0.1539 -0.9881 0.9881 0.1539 -23.6537 49.9275)" class="aO-cls-14" cx="17.3" cy="38.8" rx="12.7" ry="12.7" data-color-action="stroke" style="stroke:inherit" />			<line class="aO-cls-14" x1="10.3" y1="29.2" x2="24.3" y2="48.4" data-color-action="stroke" style="stroke:inherit" />		</g>		<text transform="matrix(1 0 0 1 6.7031 43.357)" class="aO-cls-15 aO-cls-16">NA</text>	</g></g><g id="aO_root_decay" style="">	<g>		<g>							<ellipse transform="matrix(0.1539 -0.9881 0.9881 0.1539 -23.6537 49.9275)" class="aO-cls-14" cx="17.3" cy="38.8" rx="12.7" ry="12.7" data-color-action="stroke" style="stroke:inherit" />			<line class="aO-cls-14" x1="10.3" y1="29.2" x2="24.3" y2="48.4" data-color-action="stroke" style="stroke:inherit" />		</g>		<text transform="matrix(1 0 0 1 6.7031 43.357)" class="aO-cls-15 aO-cls-16">NA</text>	</g></g><g id="aO_root_canal" style="">	<line class="aO-cls-22" x1="31.5" y1="68.7" x2="28.7" y2="37.3" data-color-action="stroke" style="stroke:inherit" /></g><g id="aO_root_abrasion" style="">	<g>		<g>							<ellipse transform="matrix(0.1539 -0.9881 0.9881 0.1539 -23.6537 49.9275)" class="aO-cls-14" cx="17.3" cy="38.8" rx="12.7" ry="12.7" data-color-action="stroke" style="stroke:inherit" />			<line class="aO-cls-14" x1="10.3" y1="29.2" x2="24.3" y2="48.4" data-color-action="stroke" style="stroke:inherit" />		</g>		<text transform="matrix(1 0 0 1 6.7031 43.357)" class="aO-cls-15 aO-cls-16">NA</text>	</g></g><g id="aO_post" style="">	<g>		<g>							<ellipse transform="matrix(0.1539 -0.9881 0.9881 0.1539 -23.6537 49.9275)" class="aO-cls-14" cx="17.3" cy="38.8" rx="12.7" ry="12.7" data-color-action="stroke" style="stroke:inherit" />			<line class="aO-cls-14" x1="10.3" y1="29.2" x2="24.3" y2="48.4" data-color-action="stroke" style="stroke:inherit" />		</g>		<text transform="matrix(1 0 0 1 6.7031 43.357)" class="aO-cls-15 aO-cls-16">NA</text>	</g></g><g id="aO_pins" style="">	<g>		<g>							<rect x="30.3" y="22.5" transform="matrix(-1 -4.481272e-11 4.481272e-11 -1 62.9163 67.0324)" class="aO-cls-19" width="2.3" height="22" data-color-action="fill" style="fill:inherit" />							<rect x="31.6" y="22.5" transform="matrix(-1 -4.534651e-11 4.534651e-11 -1 63.5987 67.0324)" class="aO-cls-23" width="0.3" height="22" />		</g>		<g>							<rect x="26" y="22.5" transform="matrix(-1 -4.481272e-11 4.481272e-11 -1 54.3024 67.0324)" class="aO-cls-19" width="2.3" height="22" data-color-action="fill" style="fill:inherit" />							<rect x="27.3" y="22.5" transform="matrix(-1 -4.267887e-11 4.267887e-11 -1 54.9849 67.0324)" class="aO-cls-23" width="0.3" height="22" />		</g>	</g></g><g id="aO_open_contact_mesial" style="">	<g>		<g>							<ellipse transform="matrix(0.1539 -0.9881 0.9881 0.1539 -23.6537 49.9275)" class="aO-cls-14" cx="17.3" cy="38.8" rx="12.7" ry="12.7" data-color-action="stroke" style="stroke:inherit" />			<line class="aO-cls-14" x1="10.3" y1="29.2" x2="24.3" y2="48.4" data-color-action="stroke" style="stroke:inherit" />		</g>		<text transform="matrix(1 0 0 1 6.7031 43.357)" class="aO-cls-15 aO-cls-16">NA</text>	</g></g><g id="aO_open_contact_distal" style="">	<g>		<g>							<ellipse transform="matrix(0.1539 -0.9881 0.9881 0.1539 -23.6537 49.9275)" class="aO-cls-14" cx="17.3" cy="38.8" rx="12.7" ry="12.7" data-color-action="stroke" style="stroke:inherit" />			<line class="aO-cls-14" x1="10.3" y1="29.2" x2="24.3" y2="48.4" data-color-action="stroke" style="stroke:inherit" />		</g>		<text transform="matrix(1 0 0 1 6.7031 43.357)" class="aO-cls-15 aO-cls-16">NA</text>	</g></g><g id="aO_mesial_drift" style="">	<g>		<g>			<line class="aO-cls-25" x1="26.9" y1="23.2" x2="37.8" y2="23.2" data-color-action="stroke" style="stroke:inherit" />			<g>				<polygon class="aO-cls-18" points="28.1,27.1 21.2,23.2 28.1,19.2     " data-color-action="fill" style="fill:inherit" />			</g>		</g>	</g></g><g id="aO_lingual_abfraction" style="">	<g>		<g>							<ellipse transform="matrix(0.1539 -0.9881 0.9881 0.1539 -23.6537 49.9275)" class="aO-cls-14" cx="17.3" cy="38.8" rx="12.7" ry="12.7" data-color-action="stroke" style="stroke:inherit" />			<line class="aO-cls-14" x1="10.3" y1="29.2" x2="24.3" y2="48.4" data-color-action="stroke" style="stroke:inherit" />		</g>		<text transform="matrix(1 0 0 1 6.7031 43.357)" class="aO-cls-15 aO-cls-16">NA</text>	</g></g><g id="aO_internal_root_resorption" style="">	<g>		<g>							<ellipse transform="matrix(0.1539 -0.9881 0.9881 0.1539 -23.6537 49.9275)" class="aO-cls-14" cx="17.3" cy="38.8" rx="12.7" ry="12.7" data-color-action="stroke" style="stroke:inherit" />			<line class="aO-cls-14" x1="10.3" y1="29.2" x2="24.3" y2="48.4" data-color-action="stroke" style="stroke:inherit" />		</g>		<text transform="matrix(1 0 0 1 6.7031 43.357)" class="aO-cls-15 aO-cls-16">NA</text>	</g></g><g id="aO_impacted_mesial" style="">	<g>		<g>							<ellipse transform="matrix(0.1539 -0.9881 0.9881 0.1539 -23.6537 49.9275)" class="aO-cls-14" cx="17.3" cy="38.8" rx="12.7" ry="12.7" data-color-action="stroke" style="stroke:inherit" />			<line class="aO-cls-14" x1="10.3" y1="29.2" x2="24.3" y2="48.4" data-color-action="stroke" style="stroke:inherit" />		</g>		<text transform="matrix(1 0 0 1 6.7031 43.357)" class="aO-cls-15 aO-cls-16">NA</text>	</g></g><g id="aO_impacted_distal" style="">	<g>		<g>							<ellipse transform="matrix(0.1539 -0.9881 0.9881 0.1539 -23.6537 49.9275)" class="aO-cls-14" cx="17.3" cy="38.8" rx="12.7" ry="12.7" data-color-action="stroke" style="stroke:inherit" />			<line class="aO-cls-14" x1="10.3" y1="29.2" x2="24.3" y2="48.4" data-color-action="stroke" style="stroke:inherit" />		</g>		<text transform="matrix(1 0 0 1 6.7031 43.357)" class="aO-cls-15 aO-cls-16">NA</text>	</g></g><g id="aO_gortex_membranes" style="">	<g>		<g>							<ellipse transform="matrix(0.1539 -0.9881 0.9881 0.1539 -23.6537 49.9275)" class="aO-cls-14" cx="17.3" cy="38.8" rx="12.7" ry="12.7" data-color-action="stroke" style="stroke:inherit" />			<line class="aO-cls-14" x1="10.3" y1="29.2" x2="24.3" y2="48.4" data-color-action="stroke" style="stroke:inherit" />		</g>		<text transform="matrix(1 0 0 1 6.7031 43.357)" class="aO-cls-15 aO-cls-16">NA</text>	</g></g><g id="aO_frenum_pull" style="">	<g>		<g>							<ellipse transform="matrix(0.1539 -0.9881 0.9881 0.1539 -23.6537 49.9275)" class="aO-cls-14" cx="17.3" cy="38.8" rx="12.7" ry="12.7" data-color-action="stroke" style="stroke:inherit" />			<line class="aO-cls-14" x1="10.3" y1="29.2" x2="24.3" y2="48.4" data-color-action="stroke" style="stroke:inherit" />		</g>		<text transform="matrix(1 0 0 1 6.7031 43.357)" class="aO-cls-15 aO-cls-16">NA</text>	</g></g><g id="aO_external_root_resorption" style="">	<g>		<g>							<ellipse transform="matrix(0.1539 -0.9881 0.9881 0.1539 -23.6537 49.9275)" class="aO-cls-14" cx="17.3" cy="38.8" rx="12.7" ry="12.7" data-color-action="stroke" style="stroke:inherit" />			<line class="aO-cls-14" x1="10.3" y1="29.2" x2="24.3" y2="48.4" data-color-action="stroke" style="stroke:inherit" />		</g>		<text transform="matrix(1 0 0 1 6.7031 43.357)" class="aO-cls-15 aO-cls-16">NA</text>	</g></g><g id="aO_diastema_mesial" style="">	<g>		<g>							<ellipse transform="matrix(0.1539 -0.9881 0.9881 0.1539 -23.6537 49.9275)" class="aO-cls-14" cx="17.3" cy="38.8" rx="12.7" ry="12.7" data-color-action="stroke" style="stroke:inherit" />			<line class="aO-cls-14" x1="10.3" y1="29.2" x2="24.3" y2="48.4" data-color-action="stroke" style="stroke:inherit" />		</g>		<text transform="matrix(1 0 0 1 6.7031 43.357)" class="aO-cls-15 aO-cls-16">NA</text>	</g></g><g id="aO_diastema_distal" style="">	<g>		<g>							<ellipse transform="matrix(0.1539 -0.9881 0.9881 0.1539 -23.6537 49.9275)" class="aO-cls-14" cx="17.3" cy="38.8" rx="12.7" ry="12.7" data-color-action="stroke" style="stroke:inherit" />			<line class="aO-cls-14" x1="10.3" y1="29.2" x2="24.3" y2="48.4" data-color-action="stroke" style="stroke:inherit" />		</g>		<text transform="matrix(1 0 0 1 6.7031 43.357)" class="aO-cls-15 aO-cls-16">NA</text>	</g></g><g id="aO_distal_drift" style="">	<g>		<g>			<line class="aO-cls-25" x1="32.1" y1="23.2" x2="21.2" y2="23.2" data-color-action="stroke" style="stroke:inherit" />			<g>				<polygon class="aO-cls-18" points="30.9,19.2 37.8,23.2 30.9,27.1     " data-color-action="fill" style="fill:inherit" />			</g>		</g>	</g></g><g id="aO_three_quarter_crown" style="">	<g>		<g>							<ellipse transform="matrix(0.1539 -0.9881 0.9881 0.1539 -23.6537 49.9275)" class="aO-cls-14" cx="17.3" cy="38.8" rx="12.7" ry="12.7" data-color-action="stroke" style="stroke:inherit" />			<line class="aO-cls-14" x1="10.3" y1="29.2" x2="24.3" y2="48.4" data-color-action="stroke" style="stroke:inherit" />		</g>		<text transform="matrix(1 0 0 1 6.7031 43.357)" class="aO-cls-15 aO-cls-16">NA</text>	</g></g><g id="aO_crown" style="">	<path class="aO-cls-26" d="M21.9,32.6c-3.2-4.6-2.1-19-0.7-20.1c1.1-0.8,14-0.5,16.3,1.9c2.3,2.3,2.6,16.7-0.6,19   C35.2,34.6,23.8,35.4,21.9,32.6z" data-color-action="fill" style="fill:inherit" /></g><g id="aO_cracked_surface_incisal" style="">	<polyline class="aO-cls-27" points="30.2,20.5 26.4,16.7 31.4,16.7 26.4,11.9 31.4,11.9 27.5,8.1  " data-color-action="stroke" style="stroke:inherit" /></g><g id="aO_cracked_surface_distal" style="">	<polyline class="aO-cls-27" points="38.9,32.2 35.1,28.3 40.1,28.3 35.1,23.6 40.1,23.6 36.2,19.8  " data-color-action="stroke" style="stroke:inherit" /></g><g id="aO_cracked_surface_facial" style="">	<polyline class="aO-cls-27" points="30.2,32.2 26.4,28.3 31.4,28.3 26.4,23.6 31.4,23.6 27.5,19.8  " data-color-action="stroke" style="stroke:inherit" /></g><g id="aO_cracked_surface_facial_V" style="">	<polyline class="aO-cls-27" points="30.2,32.2 26.4,28.3 31.4,28.3 26.4,23.6 31.4,23.6 27.5,19.8  " data-color-action="stroke" style="stroke:inherit" /></g><g id="aO_cracked_surface_mesial" style="">	<polyline class="aO-cls-27" points="22,32.2 18.1,28.3 23.1,28.3 18.1,23.6 23.1,23.6 19.3,19.8  " data-color-action="stroke" style="stroke:inherit" /></g><g id="aO_chipped_surface_incisal" style="">	<g>		<line class="aO-cls-27" x1="25" y1="18.8" x2="33.4" y2="10.5" data-color-action="stroke" style="stroke:inherit" />		<line class="aO-cls-27" x1="33.4" y1="18.8" x2="25" y2="10.5" data-color-action="stroke" style="stroke:inherit" />	</g></g><g id="aO_chipped_surface_distal" style="">	<g>		<line class="aO-cls-27" x1="33.4" y1="30.5" x2="41.7" y2="22.2" data-color-action="stroke" style="stroke:inherit" />		<line class="aO-cls-27" x1="41.7" y1="30.5" x2="33.4" y2="22.2" data-color-action="stroke" style="stroke:inherit" />	</g></g><g id="aO_chipped_surface_facial" style="">	<g>		<line class="aO-cls-27" x1="25" y1="30.5" x2="33.4" y2="22.2" data-color-action="stroke" style="stroke:inherit" />		<line class="aO-cls-27" x1="33.4" y1="30.5" x2="25" y2="22.2" data-color-action="stroke" style="stroke:inherit" />	</g></g><g id="aO_chipped_surface_facial_V" style="">	<g>		<line class="aO-cls-27" x1="25" y1="30.5" x2="33.4" y2="22.2" data-color-action="stroke" style="stroke:inherit" />		<line class="aO-cls-27" x1="33.4" y1="30.5" x2="25" y2="22.2" data-color-action="stroke" style="stroke:inherit" />	</g></g><g id="aO_chipped_surface_mesial" style="">	<g>		<line class="aO-cls-27" x1="16.6" y1="30.5" x2="25" y2="22.2" data-color-action="stroke" style="stroke:inherit" />		<line class="aO-cls-27" x1="25" y1="30.5" x2="16.6" y2="22.2" data-color-action="stroke" style="stroke:inherit" />	</g></g><g id="aO_buccal_abfraction" style="">	<g>		<g>							<ellipse transform="matrix(0.1539 -0.9881 0.9881 0.1539 -23.6537 49.9275)" class="aO-cls-14" cx="17.3" cy="38.8" rx="12.7" ry="12.7" data-color-action="stroke" style="stroke:inherit" />			<line class="aO-cls-14" x1="10.3" y1="29.2" x2="24.3" y2="48.4" data-color-action="stroke" style="stroke:inherit" />		</g>		<text transform="matrix(1 0 0 1 6.7031 43.357)" class="aO-cls-15 aO-cls-16">NA</text>	</g></g><g id="aO_braces" style="">	<g>		<g>							<rect x="23" y="13.8" transform="matrix(-1 -4.489399e-11 4.489399e-11 -1 59.3774 45.8641)" class="aO-cls-23" width="13.5" height="18.2" />							<rect x="23" y="13.8" transform="matrix(-1 -4.489399e-11 4.489399e-11 -1 59.3774 28.3551)" class="aO-cls-28" width="13.5" height="0.7" data-color-action="fill" style="fill:inherit" />							<rect x="23" y="21.4" transform="matrix(-1 -4.489399e-11 4.489399e-11 -1 59.3774 44.2107)" class="aO-cls-28" width="13.5" height="1.4" data-color-action="fill" style="fill:inherit" />							<rect x="23" y="31.1" transform="matrix(-1 -4.489399e-11 4.489399e-11 -1 59.3774 63.1627)" class="aO-cls-29" width="13.5" height="0.9" data-color-action="fill" style="fill:inherit" />			<g>				<g>					<g>						<path class="aO-cls-30" d="M33.1,32h3.1c0.3,0,0.5-0.2,0.5-0.5v-7c0-0.3-0.2-0.5-0.5-0.5h-3.1c-0.3,0-0.5,0.2-0.5,0.5v7        C32.6,31.8,32.8,32,33.1,32z" data-color-action="fill" style="fill:inherit" />						<path class="aO-cls-19" d="M33.1,32h3.1c0.3,0,0.5-0.2,0.5-0.5v-5.8c-0.7-0.1-1.3-0.2-2-0.2c-0.7,0-1.4,0.1-2.1,0.2v5.8        C32.6,31.8,32.8,32,33.1,32z" data-color-action="fill" style="fill:inherit" />						<path class="aO-cls-23" d="M32.9,30.6v1.1c0,0.1,0.1,0.2,0.2,0.2h3.1c0.1,0,0.2-0.1,0.2-0.2v-1.1H32.9z" />					</g>					<g>						<path class="aO-cls-30" d="M23.2,32h3.1c0.3,0,0.5-0.2,0.5-0.5v-7c0-0.3-0.2-0.5-0.5-0.5h-3.1c-0.3,0-0.5,0.2-0.5,0.5v7        C22.7,31.8,22.9,32,23.2,32z" data-color-action="fill" style="fill:inherit" />						<path class="aO-cls-19" d="M23.2,32h3.1c0.3,0,0.5-0.2,0.5-0.5v-5.8c-0.7-0.1-1.3-0.2-2-0.2c-0.7,0-1.4,0.1-2.1,0.2v5.8        C22.7,31.8,22.9,32,23.2,32z" data-color-action="fill" style="fill:inherit" />						<path class="aO-cls-23" d="M23,30.6v1.1c0,0.1,0.1,0.2,0.2,0.2h3.1c0.1,0,0.2-0.1,0.2-0.2v-1.1H23z" />					</g>				</g>				<g>					<g>						<path class="aO-cls-30" d="M33.1,21.7h3.1c0.3,0,0.5-0.2,0.5-0.5v-7c0-0.3-0.2-0.5-0.5-0.5h-3.1c-0.3,0-0.5,0.2-0.5,0.5v7        C32.6,21.5,32.8,21.7,33.1,21.7z" data-color-action="fill" style="fill:inherit" />						<path class="aO-cls-19" d="M33.1,21.7h3.1c0.3,0,0.5-0.2,0.5-0.5v-5.8c-0.7-0.1-1.3-0.2-2-0.2c-0.7,0-1.4,0.1-2.1,0.2v5.8        C32.6,21.5,32.8,21.7,33.1,21.7z" data-color-action="fill" style="fill:inherit" />						<path class="aO-cls-23" d="M32.9,20.3v1.1c0,0.1,0.1,0.2,0.2,0.2h3.1c0.1,0,0.2-0.1,0.2-0.2v-1.1H32.9z" />					</g>					<g>						<path class="aO-cls-30" d="M23.2,21.7h3.1c0.3,0,0.5-0.2,0.5-0.5v-7c0-0.3-0.2-0.5-0.5-0.5h-3.1c-0.3,0-0.5,0.2-0.5,0.5v7        C22.7,21.5,22.9,21.7,23.2,21.7z" data-color-action="fill" style="fill:inherit" />						<path class="aO-cls-19" d="M23.2,21.7h3.1c0.3,0,0.5-0.2,0.5-0.5v-5.8c-0.7-0.1-1.3-0.2-2-0.2c-0.7,0-1.4,0.1-2.1,0.2v5.8        C22.7,21.5,22.9,21.7,23.2,21.7z" data-color-action="fill" style="fill:inherit" />						<path class="aO-cls-23" d="M23,20.3v1.1c0,0.1,0.1,0.2,0.2,0.2h3.1c0.1,0,0.2-0.1,0.2-0.2v-1.1H23z" />					</g>				</g>			</g>		</g>		<g>							<rect x="8.6" y="22.2" transform="matrix(-1 -4.490154e-11 4.490154e-11 -1 59.3675 45.7813)" class="aO-cls-19" width="42.2" height="1.4" data-color-action="fill" style="fill:inherit" />							<rect x="8.6" y="22.2" transform="matrix(-1 -4.490154e-11 4.490154e-11 -1 59.3675 44.5794)" class="aO-cls-30" width="42.2" height="0.2" data-color-action="fill" style="fill:inherit" />							<rect x="8.6" y="23" transform="matrix(-1 -4.490154e-11 4.490154e-11 -1 59.3675 46.4324)" class="aO-cls-23" width="42.2" height="0.4" />		</g>	</g></g><g id="aO_apicoectomy" style="">	<g>		<g>							<ellipse transform="matrix(0.1539 -0.9881 0.9881 0.1539 -23.6537 49.9275)" class="aO-cls-14" cx="17.3" cy="38.8" rx="12.7" ry="12.7" data-color-action="stroke" style="stroke:inherit" />			<line class="aO-cls-14" x1="10.3" y1="29.2" x2="24.3" y2="48.4" data-color-action="stroke" style="stroke:inherit" />		</g>		<text transform="matrix(1 0 0 1 6.7031 43.357)" class="aO-cls-15 aO-cls-16">NA</text>	</g></g><g id="aO_abscess" style="">	<circle class="aO-cls-18" cx="29.5" cy="75.1" r="6.1" data-color-action="fill" style="fill:inherit" /></g><g id="aO_blunted_roots" style="">	<g>		<g>							<ellipse transform="matrix(0.1539 -0.9881 0.9881 0.1539 -23.6537 49.9275)" class="aO-cls-14" cx="17.3" cy="38.8" rx="12.7" ry="12.7" data-color-action="stroke" style="stroke:inherit" />			<line class="aO-cls-14" x1="10.3" y1="29.2" x2="24.3" y2="48.4" data-color-action="stroke" style="stroke:inherit" />		</g>		<text transform="matrix(1 0 0 1 6.7031 43.357)" class="aO-cls-15 aO-cls-16">NA</text>	</g></g><g id="aO_root_amputation" style="">	<g>		<g>							<ellipse transform="matrix(0.1539 -0.9881 0.9881 0.1539 -23.6537 49.9275)" class="aO-cls-14" cx="17.3" cy="38.8" rx="12.7" ry="12.7" data-color-action="stroke" style="stroke:inherit" />			<line class="aO-cls-14" x1="10.3" y1="29.2" x2="24.3" y2="48.4" data-color-action="stroke" style="stroke:inherit" />		</g>		<text transform="matrix(1 0 0 1 6.7031 43.357)" class="aO-cls-15 aO-cls-16">NA</text>	</g></g><g id="aO_missing_crown" style="">	<g>		<g>							<ellipse transform="matrix(0.1539 -0.9881 0.9881 0.1539 -23.6537 49.9275)" class="aO-cls-14" cx="17.3" cy="38.8" rx="12.7" ry="12.7" data-color-action="stroke" style="stroke:inherit" />			<line class="aO-cls-14" x1="10.3" y1="29.2" x2="24.3" y2="48.4" data-color-action="stroke" style="stroke:inherit" />		</g>		<text transform="matrix(1 0 0 1 6.7031 43.357)" class="aO-cls-15 aO-cls-16">NA</text>	</g></g><g id="aO_missing_tooth" style="" data-name="missing tooth">	<g>		<path class="aO-cls-5" d="M21.2,12.5c-1.5,1.1-2.5,15.5,0.7,20.1c0.1,0.2,0.3,0.3,0.5,0.5c0,3.6,1.2,17.4,3.2,26.1    c2.1,9.4,6.8,14.7,7.7,14.3c1.7-0.7-0.1-6.3,0.3-16.6c0.3-7.3,2.8-21.7,3.1-23.4c0.1,0,0.2-0.1,0.2-0.1c3.1-2.3,2.8-16.7,0.6-19    C35.2,12.1,22.3,11.7,21.2,12.5z" />		<path class="aO-cls-24" d="M22.4,32.4c-0.2,1.8,1,17.4,3.1,26.8s6.8,14.7,7.7,14.3c1.7-0.7-0.1-6.3,0.3-16.6c0.3-7.4,2.9-22.3,3.1-23.5    C37.5,29.4,23,27,22.4,32.4z" />		<path class="aO-cls-24" d="M23.7,36.2c-0.1-1.9,0.1-4.1-0.4-5.6c-0.5,0.5-0.9,1.1-1,1.8c-0.2,1.8,1,17.4,3.1,26.8    c0.9,4.1,2.3,7.4,3.7,9.8c-1.1-2.4-2.5-6.1-2.9-9.3C25.6,54.6,23.8,38.9,23.7,36.2z" />		<path class="aO-cls-24" d="M33.6,56.9c0.3-7.4,2.9-22.3,3.1-23.5c0.1-0.5,0-1-0.4-1.4c-0.4,0.4-0.8,0.9-0.9,1.4    c-0.5,2-1.1,7.2-1.9,12.9c-0.8,5.6-0.9,12.7-0.6,15.5c0.1,1.5,0.4,2.7,0.7,3.9C33.5,63.3,33.4,60.4,33.6,56.9z" />		<path class="aO-cls-24" d="M31,34.5c0.1,1.9-0.6,9.7-1,13.8c-0.5,4.6-0.5,11.5,0.6,16.7c0.6,2.8,1.5,6.2,2,6c0.5-0.2-1-6.6-1.1-9.5    c-0.3-14.1,2.2-25.6,2.2-26.9S30.8,32.2,31,34.5z" />		<path class="aO-cls-24" d="M21.9,32.6c-3.2-4.6-2.1-19-0.7-20.1c1.1-0.8,14-0.5,16.3,1.9c2.3,2.3,2.6,16.7-0.6,19    C35.2,34.6,23.8,35.4,21.9,32.6z" />		<g>			<path class="aO-cls-24" d="M22.7,12.2c-0.8,0.1-1.3,0.2-1.5,0.3c-1.5,1.1-2.5,15.5,0.7,20.1c0.3,0.5,0.9,0.8,1.7,1.1     C21.6,28.8,21.9,16.5,22.7,12.2z" />			<path class="aO-cls-24" d="M37.5,14.4c-0.3-0.3-0.9-0.6-1.7-0.9c1.3,3.4,1.5,16-0.1,20.4c0.5-0.1,0.9-0.3,1.2-0.5     C40,31.1,39.8,16.7,37.5,14.4z" />		</g>		<path class="aO-cls-24" d="M31.1,23.3c0.1,2.7,0,8.9-0.1,11.1c0.8,0,1.6-0.1,2.3-0.2c0.3-2.3,0.7-7.2,0.5-10.2    c-0.2-3.1-0.6-8.9-0.7-11.3c-0.8-0.2-1.7-0.3-2.7-0.4C30.6,14.9,31,20.6,31.1,23.3z" />	</g></g><g id="aO_extracted_tooth" data-name="extracted tooth" style=""><g class="aO-msng-cls-10"><line class="aO-msng-cls-11" x1="9" y1="10.51" x2="50.67" y2="52.17" data-color-action="stroke" style="stroke:inherit" /><line class="aO-msng-cls-11" x1="50.67" y1="10.51" x2="9" y2="52.17" data-color-action="stroke" style="stroke:inherit" /></g></g><g id="aO_denture" style="">	<g>		<g>							<ellipse transform="matrix(0.1539 -0.9881 0.9881 0.1539 -23.6537 49.9275)" class="aO-cls-14" cx="17.3" cy="38.8" rx="12.7" ry="12.7" data-color-action="stroke" style="stroke:inherit" />			<line class="aO-cls-14" x1="10.3" y1="29.2" x2="24.3" y2="48.4" data-color-action="stroke" style="stroke:inherit" />		</g>		<text transform="matrix(1 0 0 1 6.7031 43.357)" class="aO-cls-15 aO-cls-16">NA</text>	</g></g><g id="aO_maryland_bridge_pontic" style="">	<g>		<g>							<ellipse transform="matrix(0.1539 -0.9881 0.9881 0.1539 -23.6537 49.9275)" class="aO-cls-14" cx="17.3" cy="38.8" rx="12.7" ry="12.7" data-color-action="stroke" style="stroke:inherit" />			<line class="aO-cls-14" x1="10.3" y1="29.2" x2="24.3" y2="48.4" data-color-action="stroke" style="stroke:inherit" />		</g>		<text transform="matrix(1 0 0 1 6.7031 43.357)" class="aO-cls-15 aO-cls-16">NA</text>	</g></g><g id="aO_maryland_bridge_abutment_mesial" style="">	<g>		<g>							<ellipse transform="matrix(0.1539 -0.9881 0.9881 0.1539 -23.6537 49.9275)" class="aO-cls-14" cx="17.3" cy="38.8" rx="12.7" ry="12.7" data-color-action="stroke" style="stroke:inherit" />			<line class="aO-cls-14" x1="10.3" y1="29.2" x2="24.3" y2="48.4" data-color-action="stroke" style="stroke:inherit" />		</g>		<text transform="matrix(1 0 0 1 6.7031 43.357)" class="aO-cls-15 aO-cls-16">NA</text>	</g></g><g id="aO_maryland_bridge_abutment_distal" style="">	<g>		<g>							<ellipse transform="matrix(0.1539 -0.9881 0.9881 0.1539 -23.6537 49.9275)" class="aO-cls-14" cx="17.3" cy="38.8" rx="12.7" ry="12.7" data-color-action="stroke" style="stroke:inherit" />			<line class="aO-cls-14" x1="10.3" y1="29.2" x2="24.3" y2="48.4" data-color-action="stroke" style="stroke:inherit" />		</g>		<text transform="matrix(1 0 0 1 6.7031 43.357)" class="aO-cls-15 aO-cls-16">NA</text>	</g></g><g id="aO_maryland_bridge_abutment" style="">	<g>		<g>							<ellipse transform="matrix(0.1539 -0.9881 0.9881 0.1539 -23.6537 49.9275)" class="aO-cls-14" cx="17.3" cy="38.8" rx="12.7" ry="12.7" data-color-action="stroke" style="stroke:inherit" />			<line class="aO-cls-14" x1="10.3" y1="29.2" x2="24.3" y2="48.4" data-color-action="stroke" style="stroke:inherit" />		</g>		<text transform="matrix(1 0 0 1 6.7031 43.357)" class="aO-cls-15 aO-cls-16">NA</text>	</g></g><g id="aO_bridge_abutment_mesial" style="">	<g>		<g>							<ellipse transform="matrix(0.1539 -0.9881 0.9881 0.1539 -23.6537 49.9275)" class="aO-cls-14" cx="17.3" cy="38.8" rx="12.7" ry="12.7" data-color-action="stroke" style="stroke:inherit" />			<line class="aO-cls-14" x1="10.3" y1="29.2" x2="24.3" y2="48.4" data-color-action="stroke" style="stroke:inherit" />		</g>		<text transform="matrix(1 0 0 1 6.7031 43.357)" class="aO-cls-15 aO-cls-16">NA</text>	</g></g><g id="aO_bridge_abutment_distal" style="">	<g>		<g>							<ellipse transform="matrix(0.1539 -0.9881 0.9881 0.1539 -23.6537 49.9275)" class="aO-cls-14" cx="17.3" cy="38.8" rx="12.7" ry="12.7" data-color-action="stroke" style="stroke:inherit" />			<line class="aO-cls-14" x1="10.3" y1="29.2" x2="24.3" y2="48.4" data-color-action="stroke" style="stroke:inherit" />		</g>		<text transform="matrix(1 0 0 1 6.7031 43.357)" class="aO-cls-15 aO-cls-16">NA</text>	</g></g><g id="aO_bridge_abutment" style="">	<g>		<g>							<ellipse transform="matrix(0.1539 -0.9881 0.9881 0.1539 -23.6537 49.9275)" class="aO-cls-14" cx="17.3" cy="38.8" rx="12.7" ry="12.7" data-color-action="stroke" style="stroke:inherit" />			<line class="aO-cls-14" x1="10.3" y1="29.2" x2="24.3" y2="48.4" data-color-action="stroke" style="stroke:inherit" />		</g>		<text transform="matrix(1 0 0 1 6.7031 43.357)" class="aO-cls-15 aO-cls-16">NA</text>	</g></g><g id="aO_bridge_pontic" style="">	<g>		<g>							<ellipse transform="matrix(0.1539 -0.9881 0.9881 0.1539 -23.6537 49.9275)" class="aO-cls-14" cx="17.3" cy="38.8" rx="12.7" ry="12.7" data-color-action="stroke" style="stroke:inherit" />			<line class="aO-cls-14" x1="10.3" y1="29.2" x2="24.3" y2="48.4" data-color-action="stroke" style="stroke:inherit" />		</g>		<text transform="matrix(1 0 0 1 6.7031 43.357)" class="aO-cls-15 aO-cls-16">NA</text>	</g></g><g id="aO_implant_mini" style="">	<g>		<g>							<ellipse transform="matrix(0.1539 -0.9881 0.9881 0.1539 -23.6537 49.9275)" class="aO-cls-14" cx="17.3" cy="38.8" rx="12.7" ry="12.7" data-color-action="stroke" style="stroke:inherit" />			<line class="aO-cls-14" x1="10.3" y1="29.2" x2="24.3" y2="48.4" data-color-action="stroke" style="stroke:inherit" />		</g>		<text transform="matrix(1 0 0 1 6.7031 43.357)" class="aO-cls-15 aO-cls-16">NA</text>	</g></g><g id="aO_implant_cylinder" style="">	<g>		<g>							<ellipse transform="matrix(0.1539 -0.9881 0.9881 0.1539 -23.6537 49.9275)" class="aO-cls-14" cx="17.3" cy="38.8" rx="12.7" ry="12.7" data-color-action="stroke" style="stroke:inherit" />			<line class="aO-cls-14" x1="10.3" y1="29.2" x2="24.3" y2="48.4" data-color-action="stroke" style="stroke:inherit" />		</g>		<text transform="matrix(1 0 0 1 6.7031 43.357)" class="aO-cls-15 aO-cls-16">NA</text>	</g></g><g id="aO_implant_blade" style="">	<g>		<g>							<ellipse transform="matrix(0.1539 -0.9881 0.9881 0.1539 -23.6537 49.9275)" class="aO-cls-14" cx="17.3" cy="38.8" rx="12.7" ry="12.7" data-color-action="stroke" style="stroke:inherit" />			<line class="aO-cls-14" x1="10.3" y1="29.2" x2="24.3" y2="48.4" data-color-action="stroke" style="stroke:inherit" />		</g>		<text transform="matrix(1 0 0 1 6.7031 43.357)" class="aO-cls-15 aO-cls-16">NA</text>	</g></g><g id="aO_watch_tooth" style="">	<g>		<path class="aO-cls-13" d="M8.3,153.9c0-1.8,1.4-3.3,3.2-3.3c1.8,0,3.3,1.5,3.3,3.3c0,1.7-1.5,3.2-3.3,3.2    C9.7,157.1,8.3,155.6,8.3,153.9z M9.2,148l-0.8-18.1h6.2L13.7,148H9.2z" data-color-action="fill" style="fill:inherit" />	</g></g><g id="aO_border" style="">	<rect transform="matrix(-1 -4.488910e-11 4.488910e-11 -1 59 161)" class="aO-cls-17" width="59" height="161" /></g></defs></g><g class="cO-cls-1"><g id="_Oc">	<g>		<g>			<path class="cO-cls-2" d="M21.9,34.7c-3.2,4.6-2.1,19-0.7,20.1c1.1,0.8,14,0.5,16.3-1.9c2.3-2.3,2.6-16.7-0.6-19     C35.2,32.7,23.8,31.9,21.9,34.7z" />		</g>		<g>			<path class="cO-cls-3" d="M21.9,34.7c-3.2,4.6-2.1,19-0.7,20.1c1.1,0.8,14,0.5,16.3-1.9c2.3-2.3,2.6-16.7-0.6-19     C35.2,32.7,23.8,31.9,21.9,34.7z" />		</g>		<path class="cO-cls-4" d="M20.2,52c1.2,0.7,3,0.6,4.8,0.6c2.6,0,8.7-0.4,11.3-1.2c1.2-0.4,2-1.2,2.4-1.9c-0.3,1.6-0.7,2.9-1.3,3.4    c-2.3,2.3-15.2,2.7-16.3,1.9C20.8,54.5,20.5,53.5,20.2,52z" />		<path class="cO-cls-5" d="M23.2,40.3c-1.2,0-0.5-2.4,0.2-3.6c0.7-1.2,3.4-1.5,6.3-1.4c2.9,0.1,6,0.2,6.6,1.6c0.6,1.4,1.5,4.9,0.6,5    c-0.9,0.1-0.8-3-2.3-4c-1.5-0.9-2.2,0.7-4.1,0.6c-1.9-0.1-2.3-1.2-4.7-0.7C23.6,38.3,24.4,40.3,23.2,40.3z" />	</g></g><defs><g id="cO_mesial" style="">	<path class="cO-cls-6" d="M19.9,49.2l2.4-1.4c-0.6-1.5-0.2-3.6-0.6-5.8c-0.2-1-0.8-1.7-1.6-2.1C19.7,42.8,19.7,46.3,19.9,49.2z" data-color-action="fill" style="fill:inherit" /></g><g id="cO_line_angle_4" style="">	<path class="cO-cls-6" d="M25,55.2l1.5-5.1c-0.9-0.1-1.8-0.3-2.4-0.5c-1-0.4-1.5-1-1.8-1.8l-2.4,1.4c0.2,2.9,0.7,5.2,1.3,5.6   C21.5,55,23,55.2,25,55.2z" data-color-action="fill" style="fill:inherit" /></g><g id="cO_lingual" style="">	<path class="cO-cls-6" d="M34.5,54.2l-1.1-4.5c-1.8,0.3-4.6,0.6-6.9,0.3L25,55.2C27.9,55.2,31.8,54.9,34.5,54.2z" data-color-action="fill" style="fill:inherit" /></g><g id="cO_line_angle_3" style="">	<path class="cO-cls-6" d="M37.5,52.9c0.6-0.6,1.1-2.2,1.4-4.1l-2.5-1.5c-0.4,1.1-1,1.9-1.8,2.2c-0.3,0.1-0.7,0.2-1.1,0.3l1.1,4.5   C35.9,53.9,37,53.5,37.5,52.9z" data-color-action="fill" style="fill:inherit" /></g><g id="cO_distal" style="">	<path class="cO-cls-6" d="M37.3,42.5c-0.2,1.3-0.4,3.3-0.9,4.8l2.5,1.5c0.4-2.6,0.5-6,0.1-8.9C38.2,40.4,37.4,41.3,37.3,42.5z" data-color-action="fill" style="fill:inherit" /></g><g id="cO_mid_lingual" style="">	<ellipse class="cO-cls-6" cx="29.6" cy="42.7" rx="3" ry="5.3" data-color-action="fill" style="fill:inherit" /></g><g id="cO_lingual_V" style="">	<path class="cO-cls-6" d="M35,33.3c-2.7-0.5-7.5-0.7-10.5,0c1.5,0.9,3.3,1.4,5.2,1.4C31.7,34.7,33.5,34.2,35,33.3z" data-color-action="fill" style="fill:inherit" /></g><g id="cO_tipped_lingual" style="">	<g>		<path class="cO-cls-7" d="M27.6,58.3c1.2,3.2,4.5,3.6,7.2-5c0.5-1.5,4.2-1.7,3.6,0c-1.9,5.7-5,9.6-8.5,8.7c-1.2-0.3-2.3-1.6-2.8-3.2    C27.3,58.7,27.5,58.5,27.6,58.3z" data-color-action="fill" style="fill:inherit" />		<polygon class="cO-cls-7" points="29.6,55.6 41.7,55.6 39,46.5   " data-color-action="fill" style="fill:inherit" />	</g></g><g id="cO_tipped_facial" style=""></g><g id="cO_surface_restoration_incisal" style="">	<path class="cO-cls-8" d="M37.5,53l-4.6-4.5c-1.5,0.3-4,0.6-6.7,0.7l-4.9,5.6C22.4,55.7,35.1,55.3,37.5,53z" data-color-action="fill" style="fill:inherit" /></g><g id="cO_surface_restoration_mesial" style="">	<path class="cO-cls-8" d="M21.2,54.8l4.9-5.6c-0.1,0-0.2,0-0.2,0c-0.2-2.1-0.6-8.8-0.6-13.7c-0.7,3.2-2.7,5.9-5.5,7.5   C19.5,48.4,20.3,54.2,21.2,54.8C21.2,54.8,21.2,54.8,21.2,54.8z" data-color-action="fill" style="fill:inherit" /></g><g id="cO_surface_restoration_lingual" style="">	<g>		<path class="cO-cls-8" d="M25.3,35.5c0,4.9,0.4,11.6,0.6,13.7c2.8-0.1,5.5-0.4,7-0.7c0.3-1.6,0.3-7.9,0.1-12.8    c-1.1,0.5-2.4,0.8-3.7,0.8C27.9,36.4,26.5,36.1,25.3,35.5z" data-color-action="fill" style="fill:inherit" />			</g></g><g id="cO_surface_restoration_lingual_V" style="">	<g>				<path class="cO-cls-8" d="M32.7,33c-2.2-0.2-4.9-0.2-7.1,0.1c0,0.8-0.1,1.6-0.3,2.3c0,0,0,0,0,0c1.2,0.6,2.5,0.9,3.9,0.9    c1.3,0,2.6-0.3,3.7-0.8c0-0.2,0-0.4,0-0.6C32.8,34.4,32.7,33.7,32.7,33z" data-color-action="fill" style="fill:inherit" />	</g></g><g id="cO_surface_restoration_distal" style="">	<path class="cO-cls-8" d="M37.5,53c1.2-1.2,1.8-5.6,1.7-9.9c-3.2-1.5-5.5-4.4-6.3-8c0.2,5,0.3,11.8,0,13.4c0,0,0,0,0,0L37.5,53   C37.5,53,37.5,53,37.5,53z" data-color-action="fill" style="fill:inherit" /></g><g id="cO_sub-erupted" style=""></g><g id="cO_rotated_mesial" style=""></g><g id="cO_rotate_distal" style=""></g><g id="cO_root_canal" style=""></g><g id="cO_pins" style=""></g><g id="cO_mesial_drift" style=""></g><g id="cO_distal_drift" style=""></g><g id="cO_crown" style="">	<path class="cO-cls-10" d="M21.9,34.7c-3.2,4.6-2.1,19-0.7,20.1c1.1,0.8,14,0.5,16.3-1.9c2.3-2.3,2.6-16.7-0.6-19   C35.2,32.7,23.8,31.9,21.9,34.7z" data-color-action="fill" style="fill:inherit" /></g><g id="cO_cracked_surface_distal" style="">	<polyline class="cO-cls-11" points="39.3,50.2 35.5,46.4 40.5,46.4 35.5,41.6 40.5,41.6 36.6,37.8  " data-color-action="stroke" style="stroke:inherit" /></g><g id="cO_cracked_surface_lingual" style="">	<polyline class="cO-cls-11" points="30.6,50.2 26.7,46.4 31.8,46.4 26.7,41.6 31.8,41.6 27.9,37.8  " data-color-action="stroke" style="stroke:inherit" /></g><g id="cO_cracked_surface_lingual_V" style="">	<polyline class="cO-cls-11" points="30.6,50.2 26.7,46.4 31.8,46.4 26.7,41.6 31.8,41.6 27.9,37.8  " data-color-action="stroke" style="stroke:inherit" /></g><g id="cO_cracked_surface_mesial" style="">	<polyline class="cO-cls-11" points="22.4,50.2 18.6,46.4 23.6,46.4 18.6,41.6 23.6,41.6 19.7,37.8  " data-color-action="stroke" style="stroke:inherit" /></g><g id="cO_chipped_surface_distal" style="">	<g>		<line class="cO-cls-11" x1="33.7" y1="48.5" x2="42" y2="40.2" data-color-action="stroke" style="stroke:inherit" />		<line class="cO-cls-11" x1="42" y1="48.5" x2="33.7" y2="40.2" data-color-action="stroke" style="stroke:inherit" />	</g></g><g id="cO_chipped_surface_lingual" style="">	<g>		<line class="cO-cls-11" x1="25.4" y1="48.5" x2="33.7" y2="40.2" data-color-action="stroke" style="stroke:inherit" />		<line class="cO-cls-11" x1="33.7" y1="48.5" x2="25.4" y2="40.2" data-color-action="stroke" style="stroke:inherit" />	</g></g><g id="cO_chipped_surface_lingual_V" style="">	<g>		<line class="cO-cls-11" x1="25.4" y1="48.5" x2="33.7" y2="40.2" data-color-action="stroke" style="stroke:inherit" />		<line class="cO-cls-11" x1="33.7" y1="48.5" x2="25.4" y2="40.2" data-color-action="stroke" style="stroke:inherit" />	</g></g><g id="cO_chipped_surface_mesial" style="">	<g>		<line class="cO-cls-11" x1="17.1" y1="48.5" x2="25.4" y2="40.2" data-color-action="stroke" style="stroke:inherit" />		<line class="cO-cls-11" x1="25.4" y1="48.5" x2="17.1" y2="40.2" data-color-action="stroke" style="stroke:inherit" />	</g></g><g id="cO_abscess" style=""></g><g id="cO_missing_tooth" style="" data-name="missing tooth">	<g>		<g>			<path class="cO-cls-2" d="M21.9,34.7c-3.2,4.6-2.1,19-0.7,20.1c1.1,0.8,14,0.5,16.3-1.9c2.3-2.3,2.6-16.7-0.6-19     C35.2,32.7,23.8,31.9,21.9,34.7z" data-color-action="fill,stroke" style="fill,stroke:inherit" />		</g>		<g>			<path class="cO-cls-9" d="M21.9,34.7c-3.2,4.6-2.1,19-0.7,20.1c1.1,0.8,14,0.5,16.3-1.9c2.3-2.3,2.6-16.7-0.6-19     C35.2,32.7,23.8,31.9,21.9,34.7z" />		</g>		<path class="cO-cls-9" d="M20.2,52c1.2,0.7,3,0.6,4.8,0.6c2.6,0,8.7-0.4,11.3-1.2c1.2-0.4,2-1.2,2.4-1.9c-0.3,1.6-0.7,2.9-1.3,3.4    c-2.3,2.3-15.2,2.7-16.3,1.9C20.8,54.5,20.5,53.5,20.2,52z" />		<path class="cO-cls-9" d="M23.2,40.3c-1.2,0-0.5-2.4,0.2-3.6c0.7-1.2,3.4-1.5,6.3-1.4c2.9,0.1,6,0.2,6.6,1.6c0.6,1.4,1.5,4.9,0.6,5    c-0.9,0.1-0.8-3-2.3-4c-1.5-0.9-2.2,0.7-4.1,0.6c-1.9-0.1-2.3-1.2-4.7-0.7C23.6,38.3,24.4,40.3,23.2,40.3z" />	</g></g><g id="cO_watch_tooth" style=""></g><g id="cO_border" style="">	<rect x="0" class="cO-cls-12" width="59" height="66" /></g></defs></g></svg>