<svg xmlns="http://www.w3.org/2000/svg" viewBox="0 0 59 283"><defs><style>.a4-cls-1{isolation:isolate}.a4-cls-2{font-size:15px;fill:#929497;font-family:ProximaNova-Semibold,Proxima Nova,sans-serif;font-weight:700;stroke:none}.a4-cls-24,.a4-cls-3{fill:#c5c7c9;stroke:none}.a4-cls-3{stroke:#c5c7c9;stroke-width:5px}.a4-cls-19,.a4-cls-21,.a4-cls-23,.a4-cls-25,.a4-cls-26,.a4-cls-29,.a4-cls-3,.a4-cls-32,.a4-cls-33{stroke-miterlimit:10}.a4-cls-4,.a4-cls-5{fill:#f5d7cf;stroke:none}.a4-cls-5{fill:#fae8e3}.a4-cls-6,.a4-cls-7{fill:#f2c6bc;stroke:none}.a4-cls-7{fill:#eeefef}.a4-cls-8,.a4-cls-9{fill:#e2e3e4;stroke:none}.a4-cls-9{fill:#fbfbfb}.a4-cls-10,.a4-cls-27,.a4-cls-36{fill:#3c3d3d;stroke:none}.a4-cls-10{opacity:.55}.a4-cls-11{fill:#ffd403;stroke:none}.a4-cls-12,.a4-cls-31{fill:#ffef3e;stroke:none}.a4-cls-13,.a4-cls-14,.a4-cls-20{fill:#c52636;stroke:none}.a4-cls-14{fill:none}.a4-cls-19,.a4-cls-21,.a4-cls-23,.a4-cls-25,.a4-cls-26,.a4-cls-29,.a4-cls-32,.a4-cls-33{fill:none}.a4-cls-16,.a4-cls-37{fill:#28418b;stroke:none}.a4-cls-17,.a4-cls-18{fill:#787878;stroke:none}.a4-cls-19,.a4-cls-21,.a4-cls-23,.a4-cls-29,.a4-cls-32,.a4-cls-33{stroke:#c52636}.a4-cls-19,.a4-cls-21,.a4-cls-26{stroke-width:2px}.a4-cls-21{stroke-linecap:round}.a4-cls-22{fill:#fff;stroke:none}.a4-cls-25,.a4-cls-26{stroke:#28418b}.a4-cls-25{stroke-width:3px}.a4-cls-28{opacity:.6}.a4-cls-29{stroke-width:4px}.a4-cls-30{fill:#f05b85;stroke:none}.a4-cls-32,.a4-cls-33{stroke-width:1.25px}.a4-cls-34,.a4-cls-35{fill:#9b9999;stroke:none}.a4-cls-35{fill:#dbdbdc}.b4-cls-1{isolation:isolate}.b4-cls-2{fill:#c5c7c9;stroke:#c5c7c9;stroke-width:5px}.b4-cls-16,.b4-cls-17,.b4-cls-2{stroke-miterlimit:10}.b4-cls-3{fill:#eeefef;stroke:none}.b4-cls-4,.b4-cls-5{fill:#e2e3e4;stroke:none}.b4-cls-5{fill:#fbfbfb}.b4-cls-14,.b4-cls-6{fill:#3c3d3d;stroke:none}.b4-cls-6{opacity:.55}.b4-cls-16,.b4-cls-17{fill:none}.b4-cls-7{fill:none;stroke:none}.b4-cls-13,.b4-cls-8,.b4-cls-9{fill:#787878;stroke:none}.b4-cls-9{font-size:33px;fill:#28418b;font-family:ProximaNova-Semibold,Proxima Nova,sans-serif;font-weight:700}.b4-cls-10{fill:#fff;stroke:none}.b4-cls-12,.b4-cls-15{fill:#c52636;stroke:none}.b4-cls-15{fill:#ffef3e}.b4-cls-16,.b4-cls-17{stroke:#c52636;stroke-width:1.25px}.c4-cls-1{isolation:isolate}.c4-cls-16,.c4-cls-2{fill:#c5c7c9;stroke:none}.c4-cls-2{stroke:#c5c7c9;stroke-width:5px}.c4-cls-2,.c4-cls-20,.c4-cls-21{stroke-miterlimit:10}.c4-cls-3{fill:#eeefef;stroke:none}.c4-cls-4,.c4-cls-5{fill:#fbfbfb;stroke:none}.c4-cls-5{fill:#e2e3e4}.c4-cls-17,.c4-cls-6{fill:#3c3d3d;stroke:none}.c4-cls-6{opacity:.55}.c4-cls-20,.c4-cls-21{fill:none}.c4-cls-7,.c4-cls-9{fill:none;stroke:none}.c4-cls-9{fill:#28418b}.c4-cls-10,.c4-cls-11{fill:#787878;stroke:none}.c4-cls-12,.c4-cls-13,.c4-cls-19{fill:#ffef3e;stroke:none}.c4-cls-13{fill:#fff}.c4-cls-14,.c4-cls-15{fill:#c52636;stroke:none}.c4-cls-18{opacity:.6}.c4-cls-20,.c4-cls-21{stroke:#c52636;stroke-width:1.25px}.a4-msng-cls-1{isolation:isolate}.a4-msng-cls-2{font-size:15px;fill:#929497;font-family:ProximaNova-Semibold,Proxima Nova;font-weight:700;stroke:none}.a4-msng-cls-3{fill:#c5c7c9;stroke:#c5c7c9;stroke-width:5px}.a4-msng-cls-11,.a4-msng-cls-3{stroke-miterlimit:10}.a4-msng-cls-4{fill:#f5d7cf;stroke:none}.a4-msng-cls-5{fill:#fae8e3;stroke:none}.a4-msng-cls-6{fill:#f2c6bc;stroke:none}.a4-msng-cls-7{fill:#eeefef;stroke:none}.a4-msng-cls-8{fill:#e2e3e4;stroke:none}.a4-msng-cls-9{fill:#fbfbfb;stroke:none}.a4-msng-cls-11{fill:none}.a4-msng-cls-12{fill:none;stroke:none}.a4-msng-cls-11{stroke:#787878;stroke-width:6.25px}</style></defs><g class="a4-cls-1"><g id="_4A" data-name="#4A"><text class="a4-cls-2" transform="translate(20.65 20.51)">54</text><path d="M19.7 116.81a4.33 4.33 0 0 1 1.52-1.52 197.07 197.07 0 0 0 4.66-31.22c1.05-15.51.1-35.56 1.93-36s7.74 15.85 10.35 34.05c1.47 10.28 2.66 28.51 3 34.1a2.32 2.32 0 0 1 .65.77c1.61 3.44 4.88 22.1 4 25.32-.64 2.42-14.16 10.51-16.56 10.6s-15.73-6-16.23-9.51 3.75-21.31 6.68-26.59z" class="a4-cls-3"/><path d="M41.27 117.92s-1.35-23.54-3.1-35.79c-2.61-18.2-8.52-34.49-10.35-34.05s-.88 20.49-1.93 36c-1.29 19-4.83 31.06-5.26 34.21s20.01 7.4 20.64-.37z" class="a4-cls-4"/><path d="M28.73 114.6a196 196 0 0 0 2.58-27.46c.18-18.24-2-35.94-2.95-35.94s1.84 15.3.92 35.94C28.74 99.48 25 115 25 115z" class="a4-cls-5"/><path d="M35.32 67.48c1 7.81 2.33 18.87 2.44 25.19.19 10.51.56 24.51.56 24.51h2.9c-.24-4.07-1.48-24.09-3.06-35.05C37.42 77 36.42 72 35.32 67.48zM21 116.29l.91.53s3.87-11.24 5.34-31.14a151.42 151.42 0 0 0-.63-28.59c-.2 7.34-.14 17.94-.75 27a201.57 201.57 0 0 1-4.87 32.2z" class="a4-cls-6"/><path d="M45.84 142.32c.86-3.23-2.42-21.88-4-25.32s-19.18-5.46-22.11-.18-7.15 23.11-6.65 26.59 13.84 9.61 16.23 9.51 15.89-8.18 16.53-10.6z" class="a4-cls-7"/><path d="M43.23 144.24c.68-3.58-2.25-24.35-3.63-28.2a2.75 2.75 0 0 0-.68-1 5.1 5.1 0 0 1 2.9 1.94c1.61 3.44 4.88 22.1 4 25.32-.19.72-1.52 1.94-3.35 3.29a3.83 3.83 0 0 0 .76-1.35zM19.7 116.81a4.43 4.43 0 0 1 1.66-1.61 4 4 0 0 0-.2.4c-2.39 5.84-5.71 25.61-5.25 29.49a5.38 5.38 0 0 0 1.34 2.54c-2.29-1.48-4-3-4.21-4.24-.49-3.47 3.73-21.3 6.66-26.58z" class="a4-cls-8"/><path d="M22.51 150.53a165.28 165.28 0 0 1 .88-19.9 146.57 146.57 0 0 1 2.36-16.8 26.29 26.29 0 0 1 3.88-.25c-.64 3.07-1.43 9.21-2.19 17.23a95.8 95.8 0 0 0 0 21.73 40.13 40.13 0 0 1-4.93-2.01z" class="a4-cls-9"/></g><defs><g id="a54_bone_graft" data-name="bone graft"><path d="M2 23.31h55v91.86H2z" class="a4-cls-16" data-color-action="fill" style="fill:inherit"/><path d="M19.7 116.81a4.33 4.33 0 0 1 1.52-1.52 197.07 197.07 0 0 0 4.66-31.22c1.05-15.51.1-35.56 1.93-36s7.74 15.85 10.35 34.05c1.47 10.28 2.66 28.51 3 34.1a2.32 2.32 0 0 1 .65.77c1.61 3.44 4.88 22.1 4 25.32-.64 2.42-14.16 10.51-16.56 10.6s-15.73-6-16.23-9.51 3.75-21.31 6.68-26.59z" class="a4-cls-3"/><path d="M41.27 117.92s-1.35-23.54-3.1-35.79c-2.61-18.2-8.52-34.49-10.35-34.05s-.88 20.49-1.93 36c-1.29 19-4.83 31.06-5.26 34.21s20.01 7.4 20.64-.37z" class="a4-cls-4"/><path d="M28.73 114.6a196 196 0 0 0 2.58-27.46c.18-18.24-2-35.94-2.95-35.94s1.84 15.3.92 35.94C28.74 99.48 25 115 25 115z" class="a4-cls-5"/><path d="M35.32 67.48c1 7.81 2.33 18.87 2.44 25.19.19 10.51.56 24.51.56 24.51h2.9c-.24-4.07-1.48-24.09-3.06-35.05C37.42 77 36.42 72 35.32 67.48zM21 116.29l.91.53s3.87-11.24 5.34-31.14a151.42 151.42 0 0 0-.63-28.59c-.2 7.34-.14 17.94-.75 27a201.57 201.57 0 0 1-4.87 32.2z" class="a4-cls-6"/><path d="M45.84 142.32c.86-3.23-2.42-21.88-4-25.32s-19.18-5.46-22.11-.18-7.15 23.11-6.65 26.59 13.84 9.61 16.23 9.51 15.89-8.18 16.53-10.6z" class="a4-cls-7"/><path d="M43.23 144.24c.68-3.58-2.25-24.35-3.63-28.2a2.75 2.75 0 0 0-.68-1 5.1 5.1 0 0 1 2.9 1.94c1.61 3.44 4.88 22.1 4 25.32-.19.72-1.52 1.94-3.35 3.29a3.83 3.83 0 0 0 .76-1.35zM19.7 116.81a4.43 4.43 0 0 1 1.66-1.61 4 4 0 0 0-.2.4c-2.39 5.84-5.71 25.61-5.25 29.49a5.38 5.38 0 0 0 1.34 2.54c-2.29-1.48-4-3-4.21-4.24-.49-3.47 3.73-21.3 6.66-26.58z" class="a4-cls-8"/><path d="M22.51 150.53a165.28 165.28 0 0 1 .88-19.9 146.57 146.57 0 0 1 2.36-16.8 26.29 26.29 0 0 1 3.88-.25c-.64 3.07-1.43 9.21-2.19 17.23a95.8 95.8 0 0 0 0 21.73 40.13 40.13 0 0 1-4.93-2.01z" class="a4-cls-9"/></g><g id="a54_splinted_crowns" data-name="splinted crowns"><path d="M2 108.58h55v7.67H2z" class="a4-cls-12" data-color-action="fill" style="fill:inherit"/><path d="M19.7 116.81a4.33 4.33 0 0 1 1.52-1.52 197.07 197.07 0 0 0 4.66-31.22c1.05-15.51.1-35.56 1.93-36s7.74 15.85 10.35 34.05c1.47 10.28 2.66 28.51 3 34.1a2.32 2.32 0 0 1 .65.77c1.61 3.44 4.88 22.1 4 25.32-.64 2.42-14.16 10.51-16.56 10.6s-15.73-6-16.23-9.51 3.75-21.31 6.68-26.59z" class="a4-cls-3"/><path d="M41.27 117.92s-1.35-23.54-3.1-35.79c-2.61-18.2-8.52-34.49-10.35-34.05s-.88 20.49-1.93 36c-1.29 19-4.83 31.06-5.26 34.21s20.01 7.4 20.64-.37z" class="a4-cls-4"/><path d="M28.73 114.6a196 196 0 0 0 2.58-27.46c.18-18.24-2-35.94-2.95-35.94s1.84 15.3.92 35.94C28.74 99.48 25 115 25 115z" class="a4-cls-5"/><path d="M35.32 67.48c1 7.81 2.33 18.87 2.44 25.19.19 10.51.56 24.51.56 24.51h2.9c-.24-4.07-1.48-24.09-3.06-35.05C37.42 77 36.42 72 35.32 67.48zM21 116.29l.91.53s3.87-11.24 5.34-31.14a151.42 151.42 0 0 0-.63-28.59c-.2 7.34-.14 17.94-.75 27a201.57 201.57 0 0 1-4.87 32.2z" class="a4-cls-6"/><path d="M45.84 142.32c.86-3.23-2.42-21.88-4-25.32s-19.18-5.46-22.11-.18-7.15 23.11-6.65 26.59 13.84 9.61 16.23 9.51 15.89-8.18 16.53-10.6z" class="a4-cls-7"/><path d="M43.23 144.24c.68-3.58-2.25-24.35-3.63-28.2a2.75 2.75 0 0 0-.68-1 5.1 5.1 0 0 1 2.9 1.94c1.61 3.44 4.88 22.1 4 25.32-.19.72-1.52 1.94-3.35 3.29a3.83 3.83 0 0 0 .76-1.35zM19.7 116.81a4.43 4.43 0 0 1 1.66-1.61 4 4 0 0 0-.2.4c-2.39 5.84-5.71 25.61-5.25 29.49a5.38 5.38 0 0 0 1.34 2.54c-2.29-1.48-4-3-4.21-4.24-.49-3.47 3.73-21.3 6.66-26.58z" class="a4-cls-8"/><path d="M22.51 150.53a165.28 165.28 0 0 1 .88-19.9 146.57 146.57 0 0 1 2.36-16.8 26.29 26.29 0 0 1 3.88-.25c-.64 3.07-1.43 9.21-2.19 17.23a95.8 95.8 0 0 0 0 21.73 40.13 40.13 0 0 1-4.93-2.01z" class="a4-cls-9"/></g><path id="a54_mesial" d="M41.73 132.81a17 17 0 0 1-.68 4.41l4.75 5.2v-.1c.45-1.71-.25-7.75-1.26-13.57a4.64 4.64 0 0 0-2.81 4.06z" class="a4-cls-10" data-color-action="fill" style="fill:inherit"/><path id="a54_line_angle_2" d="M34.21 142.74l1.74 7.12c4.38-2.53 9.28-5.93 9.85-7.43l-4.75-5.2c-.94 2.97-2.97 4.77-6.84 5.51z" class="a4-cls-10" data-color-action="fill" style="fill:inherit" data-name="line angle 2"/><path id="a54_cusp_1" d="M29.15 143.18a17.69 17.69 0 0 1-4.6-.5l-2.61 7.57c3.22 1.58 6.31 2.71 7.35 2.67s3.69-1.35 6.66-3.07l-1.74-7.12a27.27 27.27 0 0 1-5.06.45z" class="a4-cls-10" data-color-action="fill" style="fill:inherit" data-name="cusp 1"/><path id="a54_line_angle_1" d="M18.74 137.19l-5.33 7.07c1.15 1.88 4.91 4.21 8.53 6l2.61-7.57a7.67 7.67 0 0 1-5.81-5.5z" class="a4-cls-10" data-color-action="fill" style="fill:inherit" data-name="line angle 1"/><path id="a54_distal" d="M13.06 143.4a2.34 2.34 0 0 0 .35.86l5.33-7.07a23.52 23.52 0 0 1-.87-5 3.78 3.78 0 0 0-2.33-3.19c-1.59 6.17-2.76 12.48-2.48 14.4z" class="a4-cls-10" data-color-action="fill" style="fill:inherit"/><ellipse id="a54_buccal" cx="30.01" cy="129.54" class="a4-cls-10" rx="3.96" ry="6.97" data-color-action="fill" style="fill:inherit"/><path id="a54_buccal_V" d="M22.57 114.62a17.38 17.38 0 0 0 17.34.84c-3.91-1.85-12.58-2.69-17.34-.84z" class="a4-cls-10" data-color-action="fill" style="fill:inherit" data-name="buccal V"/><path id="a54_veneer" d="M45.84 142.32c.86-3.23-2.42-21.88-4-25.32s-19.18-5.46-22.11-.18-7.15 23.11-6.65 26.59 13.84 9.61 16.23 9.51 15.89-8.18 16.53-10.6z" class="a4-cls-12" data-color-action="fill" style="fill:inherit"/><path id="a54_tissue_graft" d="M46.97 99.66L29.5 113.54 12.03 99.66h34.94z" class="a4-cls-13" data-color-action="fill" style="fill:inherit" data-name="tissue graft"/><path id="a54_tipped_lingual" d="M28 3.25h3v3h-3z" class="a4-cls-14" data-name="tipped lingual"/><g id="a54_tipped_facial" class="a4-cls-15" data-name="tipped facial"><path d="M25.85 155.5c1.26 3.37 4.74 3.85 7.69-5.32.5-1.56 4.42-1.76 3.84 0-2 6.08-5.31 10.2-9.06 9.27a4.86 4.86 0 0 1-3-3.38c.19-.17.42-.42.53-.57z" class="a4-cls-16" data-color-action="fill" style="fill:inherit"/><path d="M27.93 152.58h12.94l-2.94-9.64-10 9.64z" class="a4-cls-16" data-color-action="fill" style="fill:inherit"/></g><path id="a54_surface_restoration_occlusal" d="M43.91 144.51l-6.33-4a70.27 70.27 0 0 1-8.64 5.12 47.45 47.45 0 0 1-7.27-3.53l-6.4 4.06c4 3.24 12.2 6.79 14 6.72s10.67-5.06 14.64-8.37z" class="a4-cls-17" data-color-action="fill" style="fill:inherit" data-name="surface restoration occlusal"/><path id="a54_surface_restoration_mesial" d="M45.84 142.32c.54-2-.57-10.24-1.86-16.87a11.52 11.52 0 0 1-6.84-6c.85 7.36 1.66 17.15 1.82 20.05-.4.31-.87.66-1.39 1l6.33 4a6.09 6.09 0 0 0 1.94-2.18z" class="a4-cls-17" data-color-action="fill" style="fill:inherit" data-name="surface restoration mesial"/><path id="a54_surface_restoration_buccal" d="M24.57 116.49a11.51 11.51 0 0 1-1.31 3.46c-1.42 7.85-2.73 18.12-3.13 21.21a44.34 44.34 0 0 0 8.8 4.52 67.64 67.64 0 0 0 10-6.14c-.16-2.9-1-12.69-1.82-20.05a11.59 11.59 0 0 1-.9-2.69 11.94 11.94 0 0 1-11.68-.3z" class="a4-cls-15 a4-cls-18" data-color-action="fill" style="fill:inherit" data-name="surface restoration buccal"/><path id="a54_surface_restoration_buccal_V" d="M36 114.25a30.34 30.34 0 0 0-11.17-.25v.16a11.32 11.32 0 0 1-.26 2.32 11.94 11.94 0 0 0 11.68.3 11.28 11.28 0 0 1-.25-2.28v-.25z" class="a4-cls-15 a4-cls-18" data-color-action="fill" style="fill:inherit" data-name="surface restoration buccal V"/><path id="a54_surface_restoration_distal" d="M20.13 141.15c.39-3.09 1.71-13.36 3.13-21.21a11.51 11.51 0 0 1-6.67 5.24c-2.09 7.12-3.87 15.88-3.54 18.21a5.47 5.47 0 0 0 2.2 2.8l6.4-4.06c-.56-.33-1.09-.67-1.52-.98z" class="a4-cls-17" data-color-action="fill" style="fill:inherit" data-name="surface restoration distal"/><g id="a54_supra-erupted" class="a4-cls-15"><path d="M30.5 106.88V99.2" class="a4-cls-19" data-color-action="stroke" style="stroke:inherit"/><path d="M34.49 105.71l-3.99 6.91-3.99-6.91h7.98z" class="a4-cls-20" data-color-action="fill" style="fill:inherit"/></g><g id="a54_sub-erupted" class="a4-cls-15"><path d="M30.5 104.94v7.68" class="a4-cls-19" data-color-action="stroke" style="stroke:inherit"/><path d="M26.51 106.11l3.99-6.91 3.99 6.91h-7.98z" class="a4-cls-20" data-color-action="fill" style="fill:inherit"/></g><path id="a54_sealant" d="M28 3.25h3v3h-3z" class="a4-cls-14"/><g id="a54_rotated_mesial" class="a4-cls-15" data-name="rotated mesial"><path d="M8.71 128.18c-3 1.79-2.3 5.46 10.23 5.81 5.3.15 8.95 0 8.95 0l-.07 3s-1 .07-8.22-.24c-7.62-.32-14-1.83-13.75-6a4 4 0 0 1 2.31-2.92c.17.17.42.28.55.35z" class="a4-cls-16" data-color-action="fill" style="fill:inherit"/><path d="M21.41 129.47v11.89l10.4-5.9-10.4-5.99z" class="a4-cls-16" data-color-action="fill" style="fill:inherit"/></g><g id="a54_rotated_distal" class="a4-cls-15" data-name="rotated distal"><path d="M50.13 128.18c3 1.79 2.3 5.46-10.23 5.81-5.3.15-8.95 0-8.95 0l.07 3s1 .07 8.22-.24c7.62-.32 14-1.83 13.75-6a4 4 0 0 0-2.31-2.92c-.18.17-.42.28-.55.35z" class="a4-cls-16" data-color-action="fill" style="fill:inherit"/><path d="M37.42 129.47v11.89l-10.39-5.9 10.39-5.99z" class="a4-cls-16" data-color-action="fill" style="fill:inherit"/></g><circle id="a54_root_decay" cx="32.17" cy="78.34" r="4.33" class="a4-cls-15 a4-cls-18" data-color-action="fill" style="fill:inherit" data-name="root decay"/><path id="a54_root_canal" d="M28.5 52.83l2.25 58.75" class="a4-cls-21" data-color-action="stroke" style="stroke:inherit" data-name="root canal"/><path id="a54_root_abrasion" d="M29.42 70.34h3.5v13.83h-3.5z" class="a4-cls-15 a4-cls-23" data-color-action="stroke" style="stroke:inherit" data-name="root abrasion"/><g id="a54_post"><path d="M29.5 88.39h3.14v41.77H29.5z" class="a4-cls-18" data-color-action="fill" style="fill:inherit"/><path d="M30.37 88.39h.47v41.77h-.47z" class="a4-cls-24"/></g><g id="a54_pins"><path d="M27.33 101.73h2.42v23.43h-2.42z" class="a4-cls-18" data-color-action="fill" style="fill:inherit"/><path d="M27.99 101.73h.36v23.43h-.36z" class="a4-cls-24"/><path d="M31.91 101.73h2.42v23.43h-2.42z" class="a4-cls-18" data-color-action="fill" style="fill:inherit"/><path d="M32.57 101.73h.36v23.43h-.36z" class="a4-cls-24"/></g><path id="a54_open_contact_mesial" d="M33.69 108l7.5 4.75 7.5-4.75" class="a4-cls-25" data-color-action="stroke" style="stroke:inherit" data-name="open contact mesial"/><path id="a54_open_contact_distal" d="M13.68 108l7.49 4.75 7.5-4.75" class="a4-cls-25" data-color-action="stroke" style="stroke:inherit" data-name="open contact distal"/><g id="a54_mesial_drift" class="a4-cls-15" data-name="mesial drift"><path d="M32.59 133.16H20.67" class="a4-cls-26" data-color-action="stroke" style="stroke:inherit"/><path d="M31.43 129.18l6.9 3.98-6.9 3.99v-7.97z" class="a4-cls-16" data-color-action="fill" style="fill:inherit"/></g><path id="a54_lingual_abfraction" d="M28 3.25h3v3h-3z" class="a4-cls-14" data-name="lingual abfraction"/><ellipse id="a54_internal_root_resorption" cx="31.5" cy="74.67" class="a4-cls-15 a4-cls-20" rx="3.34" ry="8.27" transform="rotate(-4.8 31.531 74.579)" data-color-action="fill" style="fill:inherit" data-name="internal root resorption"/><g id="a54_impacted_mesial" class="a4-cls-15" data-name="impacted mesial"><ellipse cx="29.51" cy="101.3" class="a4-cls-26" rx="24.15" ry="58.3" data-color-action="stroke" style="stroke:inherit"/><path d="M18.11 101.3H5.35" class="a4-cls-26" data-color-action="stroke" style="stroke:inherit"/><path d="M16.94 97.31l6.91 3.99-6.91 3.99v-7.98z" class="a4-cls-16" data-color-action="fill" style="fill:inherit"/></g><g id="a54_impacted_distal" class="a4-cls-15" data-name="impacted distal"><ellipse cx="29.5" cy="101.3" class="a4-cls-26" rx="24.15" ry="58.3" data-color-action="stroke" style="stroke:inherit"/><path d="M40.91 101.3h12.76" class="a4-cls-26" data-color-action="stroke" style="stroke:inherit"/><path d="M42.08 105.29l-6.91-3.99 6.91-3.99v7.98z" class="a4-cls-16" data-color-action="fill" style="fill:inherit"/></g><path id="a54_gortex_membranes" d="M2 99.83h55v16.42H2z" class="a4-cls-13" data-color-action="fill" style="fill:inherit" data-name="gortex membranes"/><path id="a54_frenum_pull" d="M20.51 112.58l10.66-6.75 10.65 6.75" class="a4-cls-29" data-color-action="stroke" style="stroke:inherit" data-name="frenum pull"/><path id="a54_external_root_resorption" d="M38.16 82.12c-.33-2.33-.72-4.63-1.15-6.87a10.64 10.64 0 0 0-2.72 8.42 9.33 9.33 0 0 0 4.92 7.41c-.32-3.27-.68-6.36-1.05-8.96zM26.27 75.8c-.09 2.81-.21 5.61-.39 8.28-.22 3.21-.5 6.2-.82 9 1.72-.89 4.54-3.16 5-8.51s-2.21-7.87-3.79-8.77z" class="a4-cls-15 a4-cls-20" data-color-action="fill" style="fill:inherit" data-name="external root resorption"/><g id="a54_distal_drift" class="a4-cls-15" data-name="distal drift"><path d="M26.41 133.16h11.92" class="a4-cls-26" data-color-action="stroke" style="stroke:inherit"/><path d="M27.57 137.15l-6.9-3.99 6.9-3.98v7.97z" class="a4-cls-16" data-color-action="fill" style="fill:inherit"/></g><path id="a54_three_quarter_crown" d="M14.53 133.17c-1 4.63-1.69 8.75-1.48 10.24.5 3.48 13.84 9.61 16.23 9.51s15.91-8.18 16.56-10.6c.34-1.27 0-5-.56-9.15z" class="a4-cls-15 a4-cls-31" data-color-action="fill" style="fill:inherit" data-name="three quarter crown"/><path id="a54_crown" d="M45.84 142.32c.86-3.23-2.42-21.88-4-25.32s-19.18-5.46-22.11-.18-7.15 23.11-6.65 26.59 13.84 9.61 16.23 9.51 15.89-8.18 16.53-10.6z" class="a4-cls-12" data-color-action="fill" style="fill:inherit"/><path id="a54_cracked_surface_mesial" d="M41.34 128.82l3.83 3.84h-5.01l5.01 4.74h-5.01l3.83 3.83" class="a4-cls-32" data-color-action="stroke" style="stroke:inherit" data-name="cracked surface mesial"/><path id="a54_cracked_surface_buccal" d="M28.17 128.82l3.84 3.84H27l5 4.74h-5l3.83 3.83" class="a4-cls-32" data-color-action="stroke" style="stroke:inherit" data-name="cracked surface buccal"/><path id="a54_cracked_surface_buccal_V" d="M28.17 128.82l3.84 3.84H27l5 4.74h-5l3.83 3.83" class="a4-cls-32" data-color-action="stroke" style="stroke:inherit" data-name="cracked surface buccal V"/><path id="a54_cracked_surface_distal" d="M14.34 128.82l3.83 3.84h-5l5 4.74h-5l3.83 3.83" class="a4-cls-32" data-color-action="stroke" style="stroke:inherit" data-name="cracked surface distal"/><g id="a54_chipped_surface_mesial" class="a4-cls-15" data-name="chipped surface mesial"><path d="M37.83 130.5l8.33 8.33M46.16 130.5l-8.33 8.33" class="a4-cls-33" data-color-action="stroke" style="stroke:inherit"/></g><g id="a54_chipped_surface_buccal" class="a4-cls-15" data-name="chipped surface buccal"><path d="M25.67 130.5l8.33 8.33M34 130.5l-8.33 8.33" class="a4-cls-33" data-color-action="stroke" style="stroke:inherit"/></g><g id="a54_chipped_surface_buccal_V" class="a4-cls-15" data-name="chipped surface buccal V"><path d="M25.67 130.5l8.33 8.33M34 130.5l-8.33 8.33" class="a4-cls-33" data-color-action="stroke" style="stroke:inherit"/></g><g id="a54_chipped_surface_distal" class="a4-cls-15" data-name="chipped surface distal"><path d="M12.67 130.5l8.33 8.33M21 130.5l-8.33 8.33" class="a4-cls-33" data-color-action="stroke" style="stroke:inherit"/></g><path id="a54_buccal_abfraction" d="M41.61 114.58a20.1 20.1 0 0 1-11.11 3.92 20.1 20.1 0 0 1-11.11-3.92 20.1 20.1 0 0 1 11.11-3.92 20.1 20.1 0 0 1 11.11 3.92z" class="a4-cls-13" data-color-action="fill" style="fill:inherit" data-name="buccal abfraction"/><g id="a54_braces"><path d="M22.59 124.97h13.45v18.19H22.59z" class="a4-cls-24"/><path d="M22.59 142.48h13.45v.68H22.59zM22.59 134.21h13.45v1.36H22.59z" class="a4-cls-34" data-color-action="fill" style="fill:inherit"/><path d="M22.59 124.97h13.45v.89H22.59z" class="a4-cls-35" data-color-action="fill" style="fill:inherit"/><rect width="4.11" height="7.94" x="22.3" y="124.99" class="a4-cls-27" rx=".49" ry=".49" data-color-action="fill" style="fill:inherit"/><path d="M25.92 125h-3.13a.49.49 0 0 0-.49.49v5.83a13.14 13.14 0 0 0 4.11 0v-5.83a.49.49 0 0 0-.49-.49z" class="a4-cls-18" data-color-action="fill" style="fill:inherit"/><path d="M26.08 126.4v-1.11a.16.16 0 0 0-.16-.16h-3.13a.16.16 0 0 0-.16.16v1.11z" class="a4-cls-24"/><rect width="4.11" height="7.94" x="32.22" y="124.99" class="a4-cls-27" rx=".49" ry=".49" data-color-action="fill" style="fill:inherit"/><path d="M35.84 125h-3.13a.49.49 0 0 0-.49.49v5.83a13.14 13.14 0 0 0 4.11 0v-5.83a.49.49 0 0 0-.49-.49z" class="a4-cls-18" data-color-action="fill" style="fill:inherit"/><path d="M36 126.4v-1.11a.16.16 0 0 0-.16-.16h-3.13a.16.16 0 0 0-.16.16v1.11z" class="a4-cls-24"/><rect width="4.11" height="7.94" x="22.3" y="135.28" class="a4-cls-27" rx=".49" ry=".49" data-color-action="fill" style="fill:inherit"/><path d="M25.92 135.28h-3.13a.49.49 0 0 0-.49.49v5.83a13.14 13.14 0 0 0 4.11 0v-5.83a.49.49 0 0 0-.49-.49z" class="a4-cls-18" data-color-action="fill" style="fill:inherit"/><path d="M26.08 136.68v-1.11a.16.16 0 0 0-.16-.16h-3.13a.16.16 0 0 0-.16.16v1.11z" class="a4-cls-24"/><rect width="4.11" height="7.94" x="32.22" y="135.28" class="a4-cls-27" rx=".49" ry=".49" data-color-action="fill" style="fill:inherit"/><path d="M35.84 135.28h-3.13a.49.49 0 0 0-.49.49v5.83a13.14 13.14 0 0 0 4.11 0v-5.83a.49.49 0 0 0-.49-.49z" class="a4-cls-18" data-color-action="fill" style="fill:inherit"/><path d="M36 136.68v-1.11a.16.16 0 0 0-.16-.16h-3.13a.16.16 0 0 0-.16.16v1.11z" class="a4-cls-24"/><path d="M8.21 133.38h42.21v1.45H8.21z" class="a4-cls-18" data-color-action="fill" style="fill:inherit"/><path d="M8.21 134.58h42.21v.25H8.21z" class="a4-cls-27" data-color-action="fill" style="fill:inherit"/><path d="M8.21 133.58h42.21v.4H8.21z" class="a4-cls-24"/></g><path id="a54_apicoectomy" d="M36.84 38.15L29.5 49.82l-7.34-11.67h14.68z" class="a4-cls-17" data-color-action="fill" style="fill:inherit"/><circle id="a54_abscess" cx="29.5" cy="42.65" r="6.5" class="a4-cls-37" data-color-action="fill" style="fill:inherit"/><g id="a54_blunted_roots" data-name="blunted roots"><path d="M2 22h55v68H2z" class="a4-cls-22"/><path d="M2 90.08h55v2H2z" class="a4-cls-36" data-color-action="fill" style="fill:inherit"/></g><path id="a54_root_amputation" d="M2 21.67h55v91.74H2z" class="a4-cls-22" data-name="root amputation"/><path id="a54_missing_crown" d="M2 113.99h55v45.17H2z" class="a4-cls-22" data-name="missing crown"/><g id="a54_missing_tooth" data-name="missing tooth"><path d="M19.7 116.81a4.33 4.33 0 0 1 1.52-1.52 197.07 197.07 0 0 0 4.66-31.22c1.05-15.51.1-35.56 1.93-36s7.74 15.85 10.35 34.05c1.47 10.28 2.66 28.51 3 34.1a2.32 2.32 0 0 1 .65.77c1.61 3.44 4.88 22.1 4 25.32-.64 2.42-14.16 10.51-16.56 10.6s-15.73-6-16.23-9.51 3.75-21.31 6.68-26.59z" class="a4-cls-3"/><path d="M41.27 117.92s-1.35-23.54-3.1-35.79c-2.61-18.2-8.52-34.49-10.35-34.05s-.88 20.49-1.93 36c-1.29 19-4.83 31.06-5.26 34.21s20.01 7.4 20.64-.37z" class="a4-cls-22"/><path d="M28.73 114.6a196 196 0 0 0 2.58-27.46c.18-18.24-2-35.94-2.95-35.94s1.84 15.3.92 35.94C28.74 99.48 25 115 25 115zM35.32 67.48c1 7.81 2.33 18.87 2.44 25.19.19 10.51.56 24.51.56 24.51h2.9c-.24-4.07-1.48-24.09-3.06-35.05C37.42 77 36.42 72 35.32 67.48z" class="a4-cls-22"/><path d="M21 116.29l.91.53s3.87-11.24 5.34-31.14a151.42 151.42 0 0 0-.63-28.59c-.2 7.34-.14 17.94-.75 27a201.57 201.57 0 0 1-4.87 32.2z" class="a4-cls-22"/><path d="M45.84 142.32c.86-3.23-2.42-21.88-4-25.32s-19.18-5.46-22.11-.18-7.15 23.11-6.65 26.59 13.84 9.61 16.23 9.51 15.89-8.18 16.53-10.6z" class="a4-cls-22"/><path d="M43.23 144.24c.68-3.58-2.25-24.35-3.63-28.2a2.75 2.75 0 0 0-.68-1 5.1 5.1 0 0 1 2.9 1.94c1.61 3.44 4.88 22.1 4 25.32-.19.72-1.52 1.94-3.35 3.29a3.83 3.83 0 0 0 .76-1.35zM19.7 116.81a4.43 4.43 0 0 1 1.66-1.61 4 4 0 0 0-.2.4c-2.39 5.84-5.71 25.61-5.25 29.49a5.38 5.38 0 0 0 1.34 2.54c-2.29-1.48-4-3-4.21-4.24-.49-3.47 3.73-21.3 6.66-26.58zM22.51 150.53a165.28 165.28 0 0 1 .88-19.9 146.57 146.57 0 0 1 2.36-16.8 26.29 26.29 0 0 1 3.88-.25c-.64 3.07-1.43 9.21-2.19 17.23a95.8 95.8 0 0 0 0 21.73 40.13 40.13 0 0 1-4.93-2.01z" class="a4-cls-22"/></g><g id="a54_extracted_tooth" class="a4-msng-cls-10" data-name="extracted tooth"><path d="M9 108.83l41.67 41.66M50.67 108.83L9 150.49" class="a4-msng-cls-11" data-color-action="stroke" style="stroke:inherit"/></g><g id="a54_denture"><path d="M2 23.16h55v135.01H2z" class="a4-cls-22"/><path d="M57 100.22A22.63 22.63 0 0 0 44.78 97c-7.64 0-10 3.22-15.79 3.22S19.15 97 13.2 97A24.26 24.26 0 0 0 2 100.22v57.94h55z" class="a4-cls-30" data-color-action="fill" style="fill:inherit"/><path d="M45.84 142.32c.86-3.23-2.42-21.88-4-25.32s-19.18-5.46-22.11-.18-7.15 23.11-6.65 26.59 13.84 9.61 16.23 9.51 15.89-8.18 16.53-10.6z" class="a4-cls-3"/><path d="M45.84 142.32c.86-3.23-2.42-21.88-4-25.32s-19.18-5.46-22.11-.18-7.15 23.11-6.65 26.59 13.84 9.61 16.23 9.51 15.89-8.18 16.53-10.6z" class="a4-cls-7"/><path d="M43.23 144.24c.68-3.58-2.25-24.35-3.63-28.2a2.75 2.75 0 0 0-.68-1 5.1 5.1 0 0 1 2.9 1.94c1.61 3.44 4.88 22.1 4 25.32-.19.72-1.52 1.94-3.35 3.29a3.83 3.83 0 0 0 .76-1.35zM19.7 116.81a4.43 4.43 0 0 1 1.66-1.61 4 4 0 0 0-.2.4c-2.39 5.84-5.71 25.61-5.25 29.49a5.38 5.38 0 0 0 1.34 2.54c-2.29-1.48-4-3-4.21-4.24-.49-3.47 3.73-21.3 6.66-26.58z" class="a4-cls-8"/><path d="M22.51 150.53a165.28 165.28 0 0 1 .88-19.9 146.57 146.57 0 0 1 2.36-16.8 26.29 26.29 0 0 1 3.88-.25c-.64 3.07-1.43 9.21-2.19 17.23a95.8 95.8 0 0 0 0 21.73 40.13 40.13 0 0 1-4.93-2.01z" class="a4-cls-9"/></g><g id="a54_maryland_bridge_pontic" class="a4-cls-15" data-name="maryland bridge pontic"><path d="M2 131.33h55V139H2z" class="a4-cls-20" data-color-action="fill" style="fill:inherit"/><path d="M45.84 142.32c.86-3.23-2.42-21.88-4-25.32s-19.18-5.46-22.11-.18-7.15 23.11-6.65 26.59 13.84 9.61 16.23 9.51 15.89-8.18 16.53-10.6z" class="a4-cls-20" data-color-action="fill" style="fill:inherit"/></g><g id="a54_maryland_bridge_abutment_mesial" data-name="maryland bridge abutment mesial"><path d="M22.02 131.33H57V139H22.02z" class="a4-cls-15 a4-cls-20" data-color-action="fill" style="fill:inherit"/><path d="M19.7 116.81a4.33 4.33 0 0 1 1.52-1.52 197.07 197.07 0 0 0 4.66-31.22c1.05-15.51.1-35.56 1.93-36s7.74 15.85 10.35 34.05c1.47 10.28 2.66 28.51 3 34.1a2.32 2.32 0 0 1 .65.77c1.61 3.44 4.88 22.1 4 25.32-.64 2.42-14.16 10.51-16.56 10.6s-15.73-6-16.23-9.51 3.75-21.31 6.68-26.59z" class="a4-cls-3"/><path d="M41.27 117.92s-1.35-23.54-3.1-35.79c-2.61-18.2-8.52-34.49-10.35-34.05s-.88 20.49-1.93 36c-1.29 19-4.83 31.06-5.26 34.21s20.01 7.4 20.64-.37z" class="a4-cls-4"/><path d="M28.73 114.6a196 196 0 0 0 2.58-27.46c.18-18.24-2-35.94-2.95-35.94s1.84 15.3.92 35.94C28.74 99.48 25 115 25 115z" class="a4-cls-5"/><path d="M35.32 67.48c1 7.81 2.33 18.87 2.44 25.19.19 10.51.56 24.51.56 24.51h2.9c-.24-4.07-1.48-24.09-3.06-35.05C37.42 77 36.42 72 35.32 67.48zM21 116.29l.91.53s3.87-11.24 5.34-31.14a151.42 151.42 0 0 0-.63-28.59c-.2 7.34-.14 17.94-.75 27a201.57 201.57 0 0 1-4.87 32.2z" class="a4-cls-6"/><path d="M45.84 142.32c.86-3.23-2.42-21.88-4-25.32s-19.18-5.46-22.11-.18-7.15 23.11-6.65 26.59 13.84 9.61 16.23 9.51 15.89-8.18 16.53-10.6z" class="a4-cls-7"/><path d="M43.23 144.24c.68-3.58-2.25-24.35-3.63-28.2a2.75 2.75 0 0 0-.68-1 5.1 5.1 0 0 1 2.9 1.94c1.61 3.44 4.88 22.1 4 25.32-.19.72-1.52 1.94-3.35 3.29a3.83 3.83 0 0 0 .76-1.35zM19.7 116.81a4.43 4.43 0 0 1 1.66-1.61 4 4 0 0 0-.2.4c-2.39 5.84-5.71 25.61-5.25 29.49a5.38 5.38 0 0 0 1.34 2.54c-2.29-1.48-4-3-4.21-4.24-.49-3.47 3.73-21.3 6.66-26.58z" class="a4-cls-8"/><path d="M22.51 150.53a165.28 165.28 0 0 1 .88-19.9 146.57 146.57 0 0 1 2.36-16.8 26.29 26.29 0 0 1 3.88-.25c-.64 3.07-1.43 9.21-2.19 17.23a95.8 95.8 0 0 0 0 21.73 40.13 40.13 0 0 1-4.93-2.01z" class="a4-cls-9"/></g><g id="a54_maryland_bridge_abutment_distal" data-name="maryland bridge abutment distal"><path d="M2 131.33h34.98V139H2z" class="a4-cls-15 a4-cls-20" data-color-action="fill" style="fill:inherit"/><path d="M19.7 116.81a4.33 4.33 0 0 1 1.52-1.52 197.07 197.07 0 0 0 4.66-31.22c1.05-15.51.1-35.56 1.93-36s7.74 15.85 10.35 34.05c1.47 10.28 2.66 28.51 3 34.1a2.32 2.32 0 0 1 .65.77c1.61 3.44 4.88 22.1 4 25.32-.64 2.42-14.16 10.51-16.56 10.6s-15.73-6-16.23-9.51 3.75-21.31 6.68-26.59z" class="a4-cls-3"/><path d="M41.27 117.92s-1.35-23.54-3.1-35.79c-2.61-18.2-8.52-34.49-10.35-34.05s-.88 20.49-1.93 36c-1.29 19-4.83 31.06-5.26 34.21s20.01 7.4 20.64-.37z" class="a4-cls-4"/><path d="M28.73 114.6a196 196 0 0 0 2.58-27.46c.18-18.24-2-35.94-2.95-35.94s1.84 15.3.92 35.94C28.74 99.48 25 115 25 115z" class="a4-cls-5"/><path d="M35.32 67.48c1 7.81 2.33 18.87 2.44 25.19.19 10.51.56 24.51.56 24.51h2.9c-.24-4.07-1.48-24.09-3.06-35.05C37.42 77 36.42 72 35.32 67.48zM21 116.29l.91.53s3.87-11.24 5.34-31.14a151.42 151.42 0 0 0-.63-28.59c-.2 7.34-.14 17.94-.75 27a201.57 201.57 0 0 1-4.87 32.2z" class="a4-cls-6"/><path d="M45.84 142.32c.86-3.23-2.42-21.88-4-25.32s-19.18-5.46-22.11-.18-7.15 23.11-6.65 26.59 13.84 9.61 16.23 9.51 15.89-8.18 16.53-10.6z" class="a4-cls-7"/><path d="M43.23 144.24c.68-3.58-2.25-24.35-3.63-28.2a2.75 2.75 0 0 0-.68-1 5.1 5.1 0 0 1 2.9 1.94c1.61 3.44 4.88 22.1 4 25.32-.19.72-1.52 1.94-3.35 3.29a3.83 3.83 0 0 0 .76-1.35zM19.7 116.81a4.43 4.43 0 0 1 1.66-1.61 4 4 0 0 0-.2.4c-2.39 5.84-5.71 25.61-5.25 29.49a5.38 5.38 0 0 0 1.34 2.54c-2.29-1.48-4-3-4.21-4.24-.49-3.47 3.73-21.3 6.66-26.58z" class="a4-cls-8"/><path d="M22.51 150.53a165.28 165.28 0 0 1 .88-19.9 146.57 146.57 0 0 1 2.36-16.8 26.29 26.29 0 0 1 3.88-.25c-.64 3.07-1.43 9.21-2.19 17.23a95.8 95.8 0 0 0 0 21.73 40.13 40.13 0 0 1-4.93-2.01z" class="a4-cls-9"/></g><g id="a54_maryland_bridge_abutment" data-name="maryland bridge abutment"><path d="M2 131.33h55V139H2z" class="a4-cls-15 a4-cls-20" data-color-action="fill" style="fill:inherit"/><path d="M19.7 116.81a4.33 4.33 0 0 1 1.52-1.52 197.07 197.07 0 0 0 4.66-31.22c1.05-15.51.1-35.56 1.93-36s7.74 15.85 10.35 34.05c1.47 10.28 2.66 28.51 3 34.1a2.32 2.32 0 0 1 .65.77c1.61 3.44 4.88 22.1 4 25.32-.64 2.42-14.16 10.51-16.56 10.6s-15.73-6-16.23-9.51 3.75-21.31 6.68-26.59z" class="a4-cls-3"/><path d="M41.27 117.92s-1.35-23.54-3.1-35.79c-2.61-18.2-8.52-34.49-10.35-34.05s-.88 20.49-1.93 36c-1.29 19-4.83 31.06-5.26 34.21s20.01 7.4 20.64-.37z" class="a4-cls-4"/><path d="M28.73 114.6a196 196 0 0 0 2.58-27.46c.18-18.24-2-35.94-2.95-35.94s1.84 15.3.92 35.94C28.74 99.48 25 115 25 115z" class="a4-cls-5"/><path d="M35.32 67.48c1 7.81 2.33 18.87 2.44 25.19.19 10.51.56 24.51.56 24.51h2.9c-.24-4.07-1.48-24.09-3.06-35.05C37.42 77 36.42 72 35.32 67.48zM21 116.29l.91.53s3.87-11.24 5.34-31.14a151.42 151.42 0 0 0-.63-28.59c-.2 7.34-.14 17.94-.75 27a201.57 201.57 0 0 1-4.87 32.2z" class="a4-cls-6"/><path d="M45.84 142.32c.86-3.23-2.42-21.88-4-25.32s-19.18-5.46-22.11-.18-7.15 23.11-6.65 26.59 13.84 9.61 16.23 9.51 15.89-8.18 16.53-10.6z" class="a4-cls-7"/><path d="M43.23 144.24c.68-3.58-2.25-24.35-3.63-28.2a2.75 2.75 0 0 0-.68-1 5.1 5.1 0 0 1 2.9 1.94c1.61 3.44 4.88 22.1 4 25.32-.19.72-1.52 1.94-3.35 3.29a3.83 3.83 0 0 0 .76-1.35zM19.7 116.81a4.43 4.43 0 0 1 1.66-1.61 4 4 0 0 0-.2.4c-2.39 5.84-5.71 25.61-5.25 29.49a5.38 5.38 0 0 0 1.34 2.54c-2.29-1.48-4-3-4.21-4.24-.49-3.47 3.73-21.3 6.66-26.58z" class="a4-cls-8"/><path d="M22.51 150.53a165.28 165.28 0 0 1 .88-19.9 146.57 146.57 0 0 1 2.36-16.8 26.29 26.29 0 0 1 3.88-.25c-.64 3.07-1.43 9.21-2.19 17.23a95.8 95.8 0 0 0 0 21.73 40.13 40.13 0 0 1-4.93-2.01z" class="a4-cls-9"/></g><g id="a54_bridge_abutment_mesial" class="a4-cls-15" data-name="bridge abutment mesial"><path d="M45.84 142.32c.86-3.23-2.42-21.88-4-25.32s-19.18-5.46-22.11-.18-7.15 23.11-6.65 26.59 13.84 9.61 16.23 9.51 15.89-8.18 16.53-10.6z" class="a4-cls-18" data-color-action="fill" style="fill:inherit"/><path d="M22.02 131.33H57V139H22.02z" class="a4-cls-18" data-color-action="fill" style="fill:inherit"/></g><g id="a54_bridge_abutment_distal" class="a4-cls-15" data-name="bridge abutment distal"><path d="M45.84 142.32c.86-3.23-2.42-21.88-4-25.32s-19.18-5.46-22.11-.18-7.15 23.11-6.65 26.59 13.84 9.61 16.23 9.51 15.89-8.18 16.53-10.6z" class="a4-cls-18" data-color-action="fill" style="fill:inherit"/><path d="M2 131.33h34.98V139H2z" class="a4-cls-18" data-color-action="fill" style="fill:inherit"/></g><g id="a54_bridge_abutment" class="a4-cls-15" data-name="bridge abutment"><path d="M45.84 142.32c.86-3.23-2.42-21.88-4-25.32s-19.18-5.46-22.11-.18-7.15 23.11-6.65 26.59 13.84 9.61 16.23 9.51 15.89-8.18 16.53-10.6z" class="a4-cls-18" data-color-action="fill" style="fill:inherit"/><path d="M2 131.33h55V139H2z" class="a4-cls-18" data-color-action="fill" style="fill:inherit"/></g><g id="a54_bridge_pontic" data-name="bridge pontic"><path d="M19.7 116.81a4.33 4.33 0 0 1 1.52-1.52 197.07 197.07 0 0 0 4.66-31.22c1.05-15.51.1-35.56 1.93-36s7.74 15.85 10.35 34.05c1.47 10.28 2.66 28.51 3 34.1a2.32 2.32 0 0 1 .65.77c1.61 3.44 4.88 22.1 4 25.32-.64 2.42-14.16 10.51-16.56 10.6s-15.73-6-16.23-9.51 3.75-21.31 6.68-26.59z" class="a4-cls-3"/><path d="M41.27 117.92s-1.35-23.54-3.1-35.79c-2.61-18.2-8.52-34.49-10.35-34.05s-.88 20.49-1.93 36c-1.29 19-4.83 31.06-5.26 34.21s20.01 7.4 20.64-.37z" class="a4-cls-22"/><path d="M28.73 114.6a196 196 0 0 0 2.58-27.46c.18-18.24-2-35.94-2.95-35.94s1.84 15.3.92 35.94C28.74 99.48 25 115 25 115zM35.32 67.48c1 7.81 2.33 18.87 2.44 25.19.19 10.51.56 24.51.56 24.51h2.9c-.24-4.07-1.48-24.09-3.06-35.05C37.42 77 36.42 72 35.32 67.48z" class="a4-cls-22"/><path d="M21 116.29l.91.53s3.87-11.24 5.34-31.14a151.42 151.42 0 0 0-.63-28.59c-.2 7.34-.14 17.94-.75 27a201.57 201.57 0 0 1-4.87 32.2z" class="a4-cls-22"/><path d="M45.84 142.32c.86-3.23-2.42-21.88-4-25.32s-19.18-5.46-22.11-.18-7.15 23.11-6.65 26.59 13.84 9.61 16.23 9.51 15.89-8.18 16.53-10.6z" class="a4-cls-7"/><path d="M43.23 144.24c.68-3.58-2.25-24.35-3.63-28.2a2.75 2.75 0 0 0-.68-1 5.1 5.1 0 0 1 2.9 1.94c1.61 3.44 4.88 22.1 4 25.32-.19.72-1.52 1.94-3.35 3.29a3.83 3.83 0 0 0 .76-1.35zM19.7 116.81a4.43 4.43 0 0 1 1.66-1.61 4 4 0 0 0-.2.4c-2.39 5.84-5.71 25.61-5.25 29.49a5.38 5.38 0 0 0 1.34 2.54c-2.29-1.48-4-3-4.21-4.24-.49-3.47 3.73-21.3 6.66-26.58z" class="a4-cls-8"/><path d="M22.51 150.53a165.28 165.28 0 0 1 .88-19.9 146.57 146.57 0 0 1 2.36-16.8 26.29 26.29 0 0 1 3.88-.25c-.64 3.07-1.43 9.21-2.19 17.23a95.8 95.8 0 0 0 0 21.73 40.13 40.13 0 0 1-4.93-2.01z" class="a4-cls-9"/><g class="a4-cls-15"><path d="M45.84 142.32c.86-3.23-2.42-21.88-4-25.32s-19.18-5.46-22.11-.18-7.15 23.11-6.65 26.59 13.84 9.61 16.23 9.51 15.89-8.18 16.53-10.6z" class="a4-cls-18" data-color-action="fill" style="fill:inherit"/><path d="M2 131.33h55V139H2z" class="a4-cls-18" data-color-action="fill" style="fill:inherit"/></g></g><g id="a54_implant_mini" data-name="implant mini"><path d="M2.39 22.04h55v137.17h-55z" class="a4-cls-22"/><path d="M29.72 83.07h-.44l-1 8.49v40.84h2.44V91.56l-1-8.49z" class="a4-cls-18" data-color-action="fill" style="fill:inherit"/><path d="M29.42 83.07h-.07l-.4 8.49v40.84h.37V91.56l.1-8.49z" class="a4-cls-24"/><path d="M28.28 131.77h2.44v.63h-2.44z" class="a4-cls-27" data-color-action="fill" style="fill:inherit"/><g class="a4-cls-28"><path d="M28.28 131.77l2.44-1v.63l-2.44 1v-.63zM28.28 130.32l2.44-1v.63l-2.44 1v-.63zM28.28 128.88l2.44-1v.63l-2.44 1v-.63zM28.28 127.43l2.44-1v.63l-2.44 1v-.63zM28.28 125.98l2.44-1v.64l-2.44 1v-.64zM28.28 124.54l2.44-1v.63l-2.44 1v-.63zM28.28 123.09l2.44-1v.64l-2.44 1v-.64zM28.28 121.65l2.44-1v.63l-2.44 1v-.63zM28.28 120.2l2.44-1v.63l-2.44 1.01v-.64zM28.28 118.76l2.44-1v.63l-2.44 1v-.63zM28.28 117.31l2.44-1v.63l-2.44 1v-.63zM28.28 115.87l2.44-1v.63l-2.44 1v-.63zM28.28 114.42l2.44-1v.63l-2.44 1v-.63zM28.28 112.98l2.44-1v.63l-2.44 1v-.63zM28.28 111.53l2.44-1v.63l-2.44 1v-.63zM28.28 110.08l2.44-1v.64l-2.44 1v-.64zM28.28 108.64l2.44-1v.63l-2.44 1v-.63zM28.28 107.19l2.44-1v.64l-2.44 1v-.64zM28.28 105.75l2.44-1v.63l-2.44 1v-.63zM28.28 104.3l2.44-1v.64l-2.44 1v-.64zM28.28 102.86l2.44-1v.63l-2.44 1v-.63zM28.28 101.41l2.44-1v.63l-2.44 1.01v-.64zM28.28 99.97l2.44-1v.63l-2.44 1v-.63zM28.28 98.52l2.44-1v.63l-2.44 1v-.63zM28.28 97.08l2.44-1v.63l-2.44 1v-.63zM28.28 95.63l2.44-1v.63l-2.44 1v-.63zM28.28 94.19l2.44-1v.63l-2.44 1v-.63zM28.28 92.74l2.44-1v.63l-2.44 1v-.63zM28.28 91.56l.03-.28 2.27-.93.07.61-2.37.97v-.37zM28.49 89.76l1.93-.79.07.61-2.08.85.08-.67zM28.67 88.24l1.58-.65.08.61-1.74.71.08-.67zM28.85 86.72l1.24-.5.07.6-1.39.57.08-.67zM29.03 85.21l.9-.37.07.6-1.05.43.08-.66zM29.2 83.69l.57-.23.07.6-.71.29.07-.66z" class="a4-cls-27" data-color-action="fill" style="fill:inherit"/></g><circle cx="29.5" cy="136.27" r="2.24" class="a4-cls-18" data-color-action="fill" style="fill:inherit"/><path d="M27.67 132.06h3.67v3h-3.67z" class="a4-cls-18" data-color-action="fill" style="fill:inherit"/><path d="M28.49 132.06h.55v3h-.55z" class="a4-cls-24"/><path d="M28.7 137.63h-.21a2.32 2.32 0 0 1-.52-1.29 2.37 2.37 0 0 1 .52-1.3H29a2 2 0 0 0-.73 1.37 1.5 1.5 0 0 0 .43 1.22z" class="a4-cls-24"/><path d="M28.28 125.7h2.44v.63h-2.44z" class="a4-cls-27" data-color-action="fill" style="fill:inherit"/><path d="M32.11 132.08h-5.22l.87-5.71h3.48l.87 5.71z" class="a4-cls-18" data-color-action="fill" style="fill:inherit"/><path d="M28.85 132.08h-.79l.48-5.71h.53l-.22 5.71z" class="a4-cls-24"/></g><g id="a54_implant_cylinder" data-name="implant cylinder"><path d="M2 22h55v137.17H2z" class="a4-cls-22"/><path d="M26.17 86.01h6.67v49.33h-6.67zM24.5 135.35h10v3h-10z" class="a4-cls-18" data-color-action="fill" style="fill:inherit"/><path d="M28 86.01h1v49.33h-1zM26.75 135.35h1.5v3h-1.5z" class="a4-cls-24"/><path d="M24.5 82.99h10v3h-10z" class="a4-cls-18" data-color-action="fill" style="fill:inherit"/><path d="M26.75 82.99h1.5v3h-1.5z" class="a4-cls-24"/><path d="M26.17 134.71h6.67v.63h-6.67zM26.17 86.01h6.67v.63h-6.67z" class="a4-cls-27" data-color-action="fill" style="fill:inherit"/><g class="a4-cls-28"><path d="M32.83 87.65l-6.66-1.01v-.63l6.66 1v.64zM32.83 89.09l-6.66-1v-.63l6.66 1v.63zM32.83 90.54l-6.66-1v-.64l6.66 1.01v.63zM32.83 91.98l-6.66-1v-.63l6.66 1v.63zM32.83 93.43l-6.66-1v-.63l6.66 1v.63zM32.83 94.87l-6.66-1v-.63l6.66 1v.63zM32.83 96.32l-6.66-1v-.63l6.66 1v.63zM32.83 97.76l-6.66-1v-.63l6.66 1v.63zM32.83 99.21l-6.66-1v-.63l6.66 1v.63zM32.83 100.66l-6.66-1.01v-.63l6.66 1v.64zM32.83 102.1l-6.66-1v-.63l6.66 1v.63zM32.83 103.55l-6.66-1v-.64l6.66 1v.64zM32.83 104.99l-6.66-1v-.63l6.66 1v.63zM32.83 106.44l-6.66-1v-.64l6.66 1.01v.63zM32.83 107.88l-6.66-1v-.63l6.66 1v.63zM32.83 109.33l-6.66-1v-.64l6.66 1v.64zM32.83 110.77l-6.66-1v-.63l6.66 1v.63zM32.83 112.22l-6.66-1v-.63l6.66 1v.63zM32.83 113.66l-6.66-1v-.63l6.66 1v.63zM32.83 115.11l-6.66-1v-.63l6.66 1v.63zM32.83 116.56l-6.66-1.01v-.63l6.66 1v.64zM32.83 118l-6.66-1v-.63l6.66 1v.63zM32.83 119.45l-6.66-1.01v-.63l6.66 1v.64zM32.83 120.89l-6.66-1v-.63l6.66 1v.63zM32.83 122.34l-6.66-1v-.64l6.66 1v.64zM32.83 123.78l-6.66-1v-.63l6.66 1v.63zM32.83 125.23l-6.66-1v-.64l6.66 1v.64zM32.83 126.67l-6.66-1v-.63l6.66 1v.63zM32.83 128.12l-6.66-1v-.63l6.66 1v.63zM32.83 129.56l-6.66-1v-.63l6.66 1v.63zM32.83 131.01l-6.66-1v-.63l6.66 1v.63zM32.83 132.46l-6.66-1.01v-.63l6.66 1v.64zM32.83 133.9l-6.66-1v-.63l6.66 1v.63zM32.83 135.35l-6.66-1.01v-.63l6.66 1v.64z" class="a4-cls-27" data-color-action="fill" style="fill:inherit"/></g></g><g id="a54_implant_blade" data-name="implant blade"><path d="M2 22h55v137.17H2z" class="a4-cls-22"/><path d="M26.17 86.01h6.67v49.33h-6.67zM24.5 135.35h10v3h-10z" class="a4-cls-18" data-color-action="fill" style="fill:inherit"/><path d="M28 86.01h1v49.33h-1zM26.75 135.35h1.5v3h-1.5z" class="a4-cls-24"/><path d="M26.17 134.71h6.67v.63h-6.67z" class="a4-cls-27" data-color-action="fill" style="fill:inherit"/></g><path id="a54_watch_tooth" d="M8.27 27.73a3.26 3.26 0 0 1 3.22-3.26 3.24 3.24 0 1 1 0 6.47 3.25 3.25 0 0 1-3.22-3.21zm1-5.91L8.39 3.73h6.15l-.8 18.09z" class="a4-cls-11" data-color-action="fill" style="fill:inherit" data-name="watch tooth"/><path id="a54_border" d="M0 0h59v161H0z" class="a4-cls-14" transform="rotate(-180 29.5 80.5)"/></defs></g><g class="b4-cls-1" transform="translate(0 161)"><g id="_4B" data-name="#4B"><path d="M44.21 18c-1.35-1.19-10.9-6.72-15.45-6.91-3.81-.15-15.45 7.63-16 10.72s1.51 13 2.54 15.81c1.45 4 4.54 7.09 14 7.27 6.55.13 15.08-3.63 16-6.91 1.07-3.83 2-17.25-1.09-19.98z" class="b4-cls-2"/><path d="M44.21 18c-1.35-1.19-10.9-6.72-15.45-6.91-3.81-.15-15.45 7.63-16 10.72s1.51 13 2.54 15.81c1.45 4 4.54 7.09 14 7.27 6.55.13 15.08-3.63 16-6.91 1.07-3.83 2-17.25-1.09-19.98z" class="b4-cls-3"/><path d="M38 22.91c.71.57-3.09 4.18-1.64 4.54s5.63-1.09 5.27-.36-2.73 1.09-2.73 1.82 2.36 3.82 1.45 3.82S37.31 30 36.76 30s1.27 4.91.73 4.91S35.13 30 34.4 30s-6.54-.18-7.45.18-.73 3.09-1.64 2.91-.36-2.54-1.09-2.73-3.63 4.18-4.36 3.64 1.82-5.09 2-5.82-3.86-2.54-3.45-3.27 3.63 1.64 4.18 1.27-.18-2.73.55-2.54.91 3.27 3.45 3.82 5.63 1.82 6.72.55 3.82-5.83 4.69-5.1z" class="b4-cls-4"/><path d="M12.77 21.82c.55-3.09 12.18-10.88 16-10.72 4.54.18 14.1 5.72 15.45 6.91.84.74 1.38 2.28 1.71 4.2a8.94 8.94 0 0 0-3.93-3.3c-2.91-1.09-9.27-4.54-12.18-4.18S16 19.82 14.77 21.82a15.92 15.92 0 0 0-1.92 3.87 15.8 15.8 0 0 1-.08-3.87z" class="b4-cls-5"/><path d="M29.31 42.54c2.91.18 8-1.45 11.09-2.18a15.86 15.86 0 0 0 4.82-2.16C44 41.42 35.73 45 29.31 44.9c-8.41-.16-11.77-2.63-13.44-6A13.66 13.66 0 0 0 19 40.54a52.41 52.41 0 0 0 10.31 2z" class="b4-cls-4"/></g><defs><g id="b54_splinted_crowns" data-name="splinted crowns"><path d="M28 1.25h3v3h-3z" class="b4-cls-7"/><path d="M28 1.25h3v3h-3z" class="b4-cls-7"/><path d="M28 1.25h3v3h-3z" class="b4-cls-7"/></g><path id="b54_line_angle_4" d="M35.61 44c4.76-1.28 9.07-3.78 9.7-6.05l.1-.38-16.1-6.35z" class="b4-cls-6" data-color-action="fill" style="fill:inherit" data-name="line angle 4"/><path id="b54_cusp_2" d="M22.94 44.14a28.13 28.13 0 0 0 6.37.76 23.13 23.13 0 0 0 6.3-.85l-6.3-12.79z" class="b4-cls-6" data-color-action="fill" style="fill:inherit" data-name="cusp 2"/><path id="b54_line_angle_3" d="M14.86 36.17c.16.58.32 1.08.45 1.46 1.06 2.91 3 5.34 7.62 6.51l6.37-12.89z" class="b4-cls-6" data-color-action="fill" style="fill:inherit" data-name="line angle 3"/><path id="b54_mesial" d="M45.92 22.26a11.44 11.44 0 0 0-3.2 6.74c-.15 2.37 1.15 5 2.92 7.47a49.6 49.6 0 0 0 .28-14.21z" class="b4-cls-6" data-color-action="fill" style="fill:inherit"/><path id="b54_mesial_pit" d="M45.92 22.26c0-.22-.07-.45-.12-.66l-15.91 5.85-.58 3.81 16.1 6.35c.08-.34.16-.74.24-1.18-1.78-2.43-3.07-5.09-2.93-7.43a11.44 11.44 0 0 1 3.2-6.74z" class="b4-cls-6" data-color-action="fill" style="fill:inherit" data-name="mesial pit"/><path id="b54_distal_pit" d="M13.2 20.84a2.84 2.84 0 0 0-.43 1 9.55 9.55 0 0 1 4.35 6.35c.59 3-.76 5.78-2.29 7.91v.1l14.44-4.92.58-3.81z" class="b4-cls-6" data-color-action="fill" style="fill:inherit" data-name="distal pit"/><path id="b54_distal" d="M17.13 28.16a9.55 9.55 0 0 0-4.35-6.35c-.47 2.66 1 10.35 2.06 14.25 1.53-2.11 2.87-4.93 2.29-7.9z" class="b4-cls-6" data-color-action="fill" style="fill:inherit"/><path id="b54_line_angle_2" d="M36.3 13.51l-6.41 13.94 15.92-5.85a6.66 6.66 0 0 0-1.6-3.6 48.11 48.11 0 0 0-7.91-4.49z" class="b4-cls-6" data-color-action="fill" style="fill:inherit" data-name="line angle 2"/><path id="b54_cusp_1" d="M36.3 13.51c-2.74-1.28-5.6-2.33-7.54-2.41-1.39-.06-3.82.95-6.37 2.39l7.5 14z" class="b4-cls-6" data-color-action="fill" style="fill:inherit" data-name="cusp 1"/><path id="b54_line_angle_1" d="M22.39 13.49c-3.79 2.14-7.86 5.26-9.19 7.35l16.68 6.61z" class="b4-cls-6" data-color-action="fill" style="fill:inherit" data-name="line angle 1"/><g id="b54_veneer"><path d="M28 1.25h3v3h-3z" class="b4-cls-7"/><path d="M28 1.25h3v3h-3z" class="b4-cls-7"/><path d="M28 1.25h3v3h-3z" class="b4-cls-7"/></g><g id="b54_tissue_graft" data-name="tissue graft"><path d="M28 1.25h3v3h-3z" class="b4-cls-7"/><path d="M28 1.25h3v3h-3z" class="b4-cls-7"/><path d="M28 1.25h3v3h-3z" class="b4-cls-7"/></g><path id="b54_surface_restoration_lingual" d="M39.79 38.06a22 22 0 0 1-10.15 2.84h-.25c-4.49-.09-6.92-.88-8.31-1.85l-3.8 2c2 2.24 5.51 3.75 12 3.88C34.53 45 41 42.63 43.88 40z" class="b4-cls-8" data-color-action="fill" style="fill:inherit" data-name="surface restoration lingual"/><path id="b54_surface_restoration_mesial" d="M41.46 20.92c1.2 2.13 1.06 11.88 0 15.83a6.16 6.16 0 0 1-1.71 1.31L43.88 40a4.61 4.61 0 0 0 1.42-2c1.07-3.84 2-17.27-1.09-20l-.21-.2-3.61 2.38c.42.29.81.55 1.07.74z" class="b4-cls-8" data-color-action="fill" style="fill:inherit" data-name="surface restoration mesial"/><path id="b54_surface_restoration_occlusal" d="M28.69 15.09c-2.36.19-10.45 5.43-12 7.73-.15 2.42 1.37 10.61 2.4 13.44.61 1.67 1.63 4.47 10.31 4.64h.25c5.26 0 10.9-2.85 11.86-4.15 1-3.95 1.16-13.7 0-15.83-1.93-1.41-9.91-5.71-12.82-5.83z" class="b4-cls-8" data-color-action="fill" style="fill:inherit" data-name="surface restoration occlusal"/><path id="b54_surface_restoration_distal" d="M19.08 36.26c-1-2.83-2.55-11-2.4-13.44A15.23 15.23 0 0 1 19.79 20l-3.42-2.38c-2 1.62-3.41 3.19-3.6 4.23-.55 3.09 1.51 13 2.54 15.81a10.14 10.14 0 0 0 2 3.39l3.8-2a5.18 5.18 0 0 1-2.03-2.79z" class="b4-cls-8" data-color-action="fill" style="fill:inherit" data-name="surface restoration distal"/><path id="b54_surface_restoration_buccal" d="M28.69 15.09c2.5.1 8.76 3.3 11.65 5.09L44 17.8c-2-1.5-10.86-6.53-15.19-6.7-2.53-.1-8.51 3.29-12.4 6.49L19.79 20c3.05-2.31 7.3-4.78 8.9-4.91z" class="b4-cls-8" data-color-action="fill" style="fill:inherit" data-name="surface restoration buccal"/><g id="b54_supra-erupted"><path d="M28 1.25h3v3h-3z" class="b4-cls-7"/><path d="M28 1.25h3v3h-3z" class="b4-cls-7"/><path d="M28 1.25h3v3h-3z" class="b4-cls-7"/></g><g id="b54_sub-erupted"><path d="M28 1.25h3v3h-3z" class="b4-cls-7"/><path d="M28 1.25h3v3h-3z" class="b4-cls-7"/><path d="M28 1.25h3v3h-3z" class="b4-cls-7"/></g><text id="b54_sealant" class="b4-cls-9" transform="translate(19.7 39.47)" data-color-action="fill" style="fill:inherit">S</text><g id="b54_root_decay" data-name="root decay"><path d="M28 1.25h3v3h-3z" class="b4-cls-7"/><path d="M28 1.25h3v3h-3z" class="b4-cls-7"/><path d="M28 1.25h3v3h-3z" class="b4-cls-7"/></g><g id="b54_root_canal" data-name="root canal"><path d="M28 1.25h3v3h-3z" class="b4-cls-7"/><path d="M28 1.25h3v3h-3z" class="b4-cls-7"/><path d="M28 1.25h3v3h-3z" class="b4-cls-7"/></g><g id="b54_root_abrasion" data-name="root abrasion"><path d="M28 1.25h3v3h-3z" class="b4-cls-7"/><path d="M28 1.25h3v3h-3z" class="b4-cls-7"/><path d="M28 1.25h3v3h-3z" class="b4-cls-7"/></g><g id="b54_post"><path d="M28 1.25h3v3h-3z" class="b4-cls-7"/><path d="M28 1.25h3v3h-3z" class="b4-cls-7"/><path d="M28 1.25h3v3h-3z" class="b4-cls-7"/></g><g id="b54_pins"><path d="M28 1.25h3v3h-3z" class="b4-cls-7"/><path d="M28 1.25h3v3h-3z" class="b4-cls-7"/><path d="M28 1.25h3v3h-3z" class="b4-cls-7"/></g><g id="b54_open_contact_mesial" data-name="open contact mesial"><path d="M28 1.25h3v3h-3z" class="b4-cls-7"/><path d="M28 1.25h3v3h-3z" class="b4-cls-7"/><path d="M28 1.25h3v3h-3z" class="b4-cls-7"/></g><g id="b54_open_contact_distal" data-name="open contact distal"><path d="M28 1.25h3v3h-3z" class="b4-cls-7"/><path d="M28 1.25h3v3h-3z" class="b4-cls-7"/><path d="M28 1.25h3v3h-3z" class="b4-cls-7"/></g><g id="b54_lingual_abfraction" data-name="lingual abfraction"><path d="M28 1.25h3v3h-3z" class="b4-cls-7"/><path d="M28 1.25h3v3h-3z" class="b4-cls-7"/><path d="M28 1.25h3v3h-3z" class="b4-cls-7"/></g><g id="b54_internal_root_resorption" data-name="internal root resorption"><path d="M28 1.25h3v3h-3z" class="b4-cls-7"/><path d="M28 1.25h3v3h-3z" class="b4-cls-7"/><path d="M28 1.25h3v3h-3z" class="b4-cls-7"/></g><g id="b54_gortex_membranes" data-name="gortex membranes"><path d="M28 1.25h3v3h-3z" class="b4-cls-7"/><path d="M28 1.25h3v3h-3z" class="b4-cls-7"/><path d="M28 1.25h3v3h-3z" class="b4-cls-7"/></g><g id="b54_frenum_pull" data-name="frenum pull"><path d="M28 1.25h3v3h-3z" class="b4-cls-7"/><path d="M28 1.25h3v3h-3z" class="b4-cls-7"/><path d="M28 1.25h3v3h-3z" class="b4-cls-7"/></g><g id="b54_external_root_resorption" data-name="external root resorption"><path d="M28 1.25h3v3h-3z" class="b4-cls-7"/><path d="M28 1.25h3v3h-3z" class="b4-cls-7"/><path d="M28 1.25h3v3h-3z" class="b4-cls-7"/></g><path id="b54_three_quarter_crown" d="M44.21 18c-1.35-1.19-10.9-6.72-15.45-6.91-3.81-.15-15.45 7.63-16 10.72s1.51 13 2.54 15.81c1.45 4 4.54 7.09 14 7.27 6.55.13 15.08-3.63 16-6.91 1.07-3.83 2-17.25-1.09-19.98z" class="b4-cls-11 b4-cls-15" data-color-action="fill" style="fill:inherit" data-name="three quarter crown"/><path id="b54_crown" d="M44.21 18c-1.35-1.19-10.9-6.72-15.45-6.91-3.81-.15-15.45 7.63-16 10.72s1.51 13 2.54 15.81c1.45 4 4.54 7.09 14 7.27 6.55.13 15.08-3.63 16-6.91 1.07-3.83 2-17.25-1.09-19.98z" class="b4-cls-11 b4-cls-15" data-color-action="fill" style="fill:inherit"/><path id="b54_cracked_surface_occlusal" d="M28.17 22.74l3.84 3.83H27l5 4.75h-5l3.83 3.83" class="b4-cls-16" data-color-action="stroke" style="stroke:inherit" data-name="cracked surface occlusal"/><g id="b54_chipped_surface_occlusal" class="b4-cls-11" data-name="chipped surface occlusal"><path d="M25.67 24.41L34 32.75M34 24.41l-8.33 8.34" class="b4-cls-17" data-color-action="stroke" style="stroke:inherit"/></g><g id="b54_buccal_abfraction" data-name="buccal abfraction"><path d="M28 1.25h3v3h-3z" class="b4-cls-7"/><path d="M28 1.25h3v3h-3z" class="b4-cls-7"/><path d="M28 1.25h3v3h-3z" class="b4-cls-7"/></g><g id="b54_braces"><path d="M28 1.25h3v3h-3z" class="b4-cls-7"/><path d="M28 1.25h3v3h-3z" class="b4-cls-7"/><path d="M28 1.25h3v3h-3z" class="b4-cls-7"/></g><g id="b54_apicoectomy"><path d="M28 1.25h3v3h-3z" class="b4-cls-7"/><path d="M28 1.25h3v3h-3z" class="b4-cls-7"/><path d="M28 1.25h3v3h-3z" class="b4-cls-7"/></g><g id="b54_abscess"><path d="M28 1.25h3v3h-3z" class="b4-cls-7"/><path d="M28 1.25h3v3h-3z" class="b4-cls-7"/><path d="M28 1.25h3v3h-3z" class="b4-cls-7"/></g><g id="b54_blunted_roots" data-name="blunted roots"><path d="M28 1.25h3v3h-3z" class="b4-cls-7"/><path d="M28 1.25h3v3h-3z" class="b4-cls-7"/><path d="M28 1.25h3v3h-3z" class="b4-cls-7"/></g><g id="b54_root_amputation" data-name="root amputation"><path d="M28 1.25h3v3h-3z" class="b4-cls-7"/><path d="M28 1.25h3v3h-3z" class="b4-cls-7"/><path d="M28 1.25h3v3h-3z" class="b4-cls-7"/></g><path id="b54_missing_crown" d="M2 2.02h55v51.77H2z" class="b4-cls-10" data-name="missing crown"/><g id="b54_missing_tooth" data-name="missing tooth"><path d="M44.21 18c-1.35-1.19-10.9-6.72-15.45-6.91-3.81-.15-15.45 7.63-16 10.72s1.51 13 2.54 15.81c1.45 4 4.54 7.09 14 7.27 6.55.13 15.08-3.63 16-6.91 1.07-3.83 2-17.25-1.09-19.98z" class="b4-cls-2"/><path d="M44.21 18c-1.35-1.19-10.9-6.72-15.45-6.91-3.81-.15-15.45 7.63-16 10.72s1.51 13 2.54 15.81c1.45 4 4.54 7.09 14 7.27 6.55.13 15.08-3.63 16-6.91 1.07-3.83 2-17.25-1.09-19.98z" class="b4-cls-10"/><path d="M38 22.91c.71.57-3.09 4.18-1.64 4.54s5.63-1.09 5.27-.36-2.73 1.09-2.73 1.82 2.36 3.82 1.45 3.82S37.31 30 36.76 30s1.27 4.91.73 4.91S35.13 30 34.4 30s-6.54-.18-7.45.18-.73 3.09-1.64 2.91-.36-2.54-1.09-2.73-3.63 4.18-4.36 3.64 1.82-5.09 2-5.82-3.86-2.54-3.45-3.27 3.63 1.64 4.18 1.27-.18-2.73.55-2.54.91 3.27 3.45 3.82 5.63 1.82 6.72.55 3.82-5.83 4.69-5.1z" class="b4-cls-10"/><path d="M12.77 21.82c.55-3.09 12.18-10.88 16-10.72 4.54.18 14.1 5.72 15.45 6.91.84.74 1.38 2.28 1.71 4.2a8.94 8.94 0 0 0-3.93-3.3c-2.91-1.09-9.27-4.54-12.18-4.18S16 19.82 14.77 21.82a15.92 15.92 0 0 0-1.92 3.87 15.8 15.8 0 0 1-.08-3.87zM29.31 42.54c2.91.18 8-1.45 11.09-2.18a15.86 15.86 0 0 0 4.82-2.16C44 41.42 35.73 45 29.31 44.9c-8.41-.16-11.77-2.63-13.44-6A13.66 13.66 0 0 0 19 40.54a52.41 52.41 0 0 0 10.31 2z" class="b4-cls-10"/></g><g id="b54_maryland_bridge_pontic" class="b4-cls-11" data-name="maryland bridge pontic"><path d="M36.58 24.17H57v7.67H36.58zM2 24.17h20.42v7.67H2z" class="b4-cls-12" data-color-action="fill" style="fill:inherit"/><path d="M44.21 18c-1.35-1.19-10.9-6.72-15.45-6.91-3.81-.15-15.45 7.63-16 10.72s1.51 13 2.54 15.81c1.45 4 4.54 7.09 14 7.27 6.55.13 15.08-3.63 16-6.91 1.07-3.83 2-17.25-1.09-19.98z" class="b4-cls-12" data-color-action="fill" style="fill:inherit"/></g><g id="b54_maryland_bridge_abutment_mesial" data-name="maryland bridge abutment mesial"><g class="b4-cls-11"><path d="M36.58 24.17H57v7.67H36.58z" class="b4-cls-12" data-color-action="fill" style="fill:inherit"/><ellipse cx="37.81" cy="28" class="b4-cls-12" rx="5.61" ry="12.9" data-color-action="fill" style="fill:inherit"/></g><path d="M44.21 18c-1.35-1.19-10.9-6.72-15.45-6.91-3.81-.15-15.45 7.63-16 10.72s1.51 13 2.54 15.81c1.45 4 4.54 7.09 14 7.27 6.55.13 15.08-3.63 16-6.91 1.07-3.83 2-17.25-1.09-19.98z" class="b4-cls-2"/><path d="M44.21 18c-1.35-1.19-10.9-6.72-15.45-6.91-3.81-.15-15.45 7.63-16 10.72s1.51 13 2.54 15.81c1.45 4 4.54 7.09 14 7.27 6.55.13 15.08-3.63 16-6.91 1.07-3.83 2-17.25-1.09-19.98z" class="b4-cls-3"/><path d="M38 22.91c.71.57-3.09 4.18-1.64 4.54s5.63-1.09 5.27-.36-2.73 1.09-2.73 1.82 2.36 3.82 1.45 3.82S37.31 30 36.76 30s1.27 4.91.73 4.91S35.13 30 34.4 30s-6.54-.18-7.45.18-.73 3.09-1.64 2.91-.36-2.54-1.09-2.73-3.63 4.18-4.36 3.64 1.82-5.09 2-5.82-3.86-2.54-3.45-3.27 3.63 1.64 4.18 1.27-.18-2.73.55-2.54.91 3.27 3.45 3.82 5.63 1.82 6.72.55 3.82-5.83 4.69-5.1z" class="b4-cls-4"/><path d="M12.77 21.82c.55-3.09 12.18-10.88 16-10.72 4.54.18 14.1 5.72 15.45 6.91.84.74 1.38 2.28 1.71 4.2a8.94 8.94 0 0 0-3.93-3.3c-2.91-1.09-9.27-4.54-12.18-4.18S16 19.82 14.77 21.82a15.92 15.92 0 0 0-1.92 3.87 15.8 15.8 0 0 1-.08-3.87z" class="b4-cls-5"/><path d="M29.31 42.54c2.91.18 8-1.45 11.09-2.18a15.86 15.86 0 0 0 4.82-2.16C44 41.42 35.73 45 29.31 44.9c-8.41-.16-11.77-2.63-13.44-6A13.66 13.66 0 0 0 19 40.54a52.41 52.41 0 0 0 10.31 2z" class="b4-cls-4"/></g><g id="b54_maryland_bridge_abutment_distal" data-name="maryland bridge abutment distal"><g class="b4-cls-11"><path d="M2 24.17h20.42v7.67H2z" class="b4-cls-12" data-color-action="fill" style="fill:inherit"/><ellipse cx="21.19" cy="28" class="b4-cls-12" rx="5.61" ry="12.9" data-color-action="fill" style="fill:inherit"/></g><path d="M44.21 18c-1.35-1.19-10.9-6.72-15.45-6.91-3.81-.15-15.45 7.63-16 10.72s1.51 13 2.54 15.81c1.45 4 4.54 7.09 14 7.27 6.55.13 15.08-3.63 16-6.91 1.07-3.83 2-17.25-1.09-19.98z" class="b4-cls-2"/><path d="M44.21 18c-1.35-1.19-10.9-6.72-15.45-6.91-3.81-.15-15.45 7.63-16 10.72s1.51 13 2.54 15.81c1.45 4 4.54 7.09 14 7.27 6.55.13 15.08-3.63 16-6.91 1.07-3.83 2-17.25-1.09-19.98z" class="b4-cls-3"/><path d="M38 22.91c.71.57-3.09 4.18-1.64 4.54s5.63-1.09 5.27-.36-2.73 1.09-2.73 1.82 2.36 3.82 1.45 3.82S37.31 30 36.76 30s1.27 4.91.73 4.91S35.13 30 34.4 30s-6.54-.18-7.45.18-.73 3.09-1.64 2.91-.36-2.54-1.09-2.73-3.63 4.18-4.36 3.64 1.82-5.09 2-5.82-3.86-2.54-3.45-3.27 3.63 1.64 4.18 1.27-.18-2.73.55-2.54.91 3.27 3.45 3.82 5.63 1.82 6.72.55 3.82-5.83 4.69-5.1z" class="b4-cls-4"/><path d="M12.77 21.82c.55-3.09 12.18-10.88 16-10.72 4.54.18 14.1 5.72 15.45 6.91.84.74 1.38 2.28 1.71 4.2a8.94 8.94 0 0 0-3.93-3.3c-2.91-1.09-9.27-4.54-12.18-4.18S16 19.82 14.77 21.82a15.92 15.92 0 0 0-1.92 3.87 15.8 15.8 0 0 1-.08-3.87z" class="b4-cls-5"/><path d="M29.31 42.54c2.91.18 8-1.45 11.09-2.18a15.86 15.86 0 0 0 4.82-2.16C44 41.42 35.73 45 29.31 44.9c-8.41-.16-11.77-2.63-13.44-6A13.66 13.66 0 0 0 19 40.54a52.41 52.41 0 0 0 10.31 2z" class="b4-cls-4"/></g><g id="b54_maryland_bridge_abutment" data-name="maryland bridge abutment"><g class="b4-cls-11"><path d="M36.58 24.17H57v7.67H36.58zM2 24.17h20.42v7.67H2z" class="b4-cls-12" data-color-action="fill" style="fill:inherit"/><ellipse cx="21.19" cy="28" class="b4-cls-12" rx="5.61" ry="12.9" data-color-action="fill" style="fill:inherit"/><ellipse cx="37.81" cy="28" class="b4-cls-12" rx="5.61" ry="12.9" data-color-action="fill" style="fill:inherit"/></g><path d="M44.21 18c-1.35-1.19-10.9-6.72-15.45-6.91-3.81-.15-15.45 7.63-16 10.72s1.51 13 2.54 15.81c1.45 4 4.54 7.09 14 7.27 6.55.13 15.08-3.63 16-6.91 1.07-3.83 2-17.25-1.09-19.98z" class="b4-cls-2"/><path d="M44.21 18c-1.35-1.19-10.9-6.72-15.45-6.91-3.81-.15-15.45 7.63-16 10.72s1.51 13 2.54 15.81c1.45 4 4.54 7.09 14 7.27 6.55.13 15.08-3.63 16-6.91 1.07-3.83 2-17.25-1.09-19.98z" class="b4-cls-3"/><path d="M38 22.91c.71.57-3.09 4.18-1.64 4.54s5.63-1.09 5.27-.36-2.73 1.09-2.73 1.82 2.36 3.82 1.45 3.82S37.31 30 36.76 30s1.27 4.91.73 4.91S35.13 30 34.4 30s-6.54-.18-7.45.18-.73 3.09-1.64 2.91-.36-2.54-1.09-2.73-3.63 4.18-4.36 3.64 1.82-5.09 2-5.82-3.86-2.54-3.45-3.27 3.63 1.64 4.18 1.27-.18-2.73.55-2.54.91 3.27 3.45 3.82 5.63 1.82 6.72.55 3.82-5.83 4.69-5.1z" class="b4-cls-4"/><path d="M12.77 21.82c.55-3.09 12.18-10.88 16-10.72 4.54.18 14.1 5.72 15.45 6.91.84.74 1.38 2.28 1.71 4.2a8.94 8.94 0 0 0-3.93-3.3c-2.91-1.09-9.27-4.54-12.18-4.18S16 19.82 14.77 21.82a15.92 15.92 0 0 0-1.92 3.87 15.8 15.8 0 0 1-.08-3.87z" class="b4-cls-5"/><path d="M29.31 42.54c2.91.18 8-1.45 11.09-2.18a15.86 15.86 0 0 0 4.82-2.16C44 41.42 35.73 45 29.31 44.9c-8.41-.16-11.77-2.63-13.44-6A13.66 13.66 0 0 0 19 40.54a52.41 52.41 0 0 0 10.31 2z" class="b4-cls-4"/></g><path id="b54_bridge_abutment" d="M44.21 18c-1.35-1.19-10.9-6.72-15.45-6.91-3.81-.15-15.45 7.63-16 10.72s1.51 13 2.54 15.81c1.45 4 4.54 7.09 14 7.27 6.55.13 15.08-3.63 16-6.91 1.07-3.83 2-17.25-1.09-19.98z" class="b4-cls-11 b4-cls-13" data-color-action="fill" style="fill:inherit" data-name="bridge abutment"/><path id="b54_bridge_pontic" d="M44.21 18c-1.35-1.19-10.9-6.72-15.45-6.91-3.81-.15-15.45 7.63-16 10.72s1.51 13 2.54 15.81c1.45 4 4.54 7.09 14 7.27 6.55.13 15.08-3.63 16-6.91 1.07-3.83 2-17.25-1.09-19.98z" class="b4-cls-11 b4-cls-13" data-color-action="fill" style="fill:inherit" data-name="bridge pontic"/><g id="b54_implant_mini" data-name="implant mini"><path d="M2 2.02h55v51.77H2z" class="b4-cls-10"/><circle cx="29.5" cy="28" r="2.61" class="b4-cls-13" data-color-action="fill" style="fill:inherit"/></g><g id="b54_implant_cylinder" data-name="implant cylinder"><path d="M2 2.02h55v51.77H2z" class="b4-cls-10"/><circle cx="29.5" cy="28" r="5" class="b4-cls-13" data-color-action="fill" style="fill:inherit"/><path d="M24.5 28a5 5 0 0 0 .09.89h9.82a4.46 4.46 0 0 0 0-1.78h-9.82a5 5 0 0 0-.09.89z" class="b4-cls-14" data-color-action="fill" style="fill:inherit"/></g><g id="b54_implant_blade" data-name="implant blade"><path d="M2 2.02h55v51.77H2z" class="b4-cls-10"/><circle cx="29.5" cy="28" r="5" class="b4-cls-13" data-color-action="fill" style="fill:inherit"/></g><g id="b54_border"><path d="M0 0h59v56H0z" class="b4-cls-7"/><path d="M0 0h59v56H0z" class="b4-cls-7" transform="rotate(-180 29.5 28)"/></g></defs></g><g class="c4-cls-1" transform="translate(0 217)"><g id="_4C" data-name="#4C"><path d="M45.84 21.42c.86 3.23-2.42 21.88-4 25.32s-19.18 5.46-22.11.18-7.15-23.11-6.65-26.59 13.84-9.61 16.23-9.51S45.2 19 45.84 21.42z" class="c4-cls-2"/><path d="M45.84 21.42c.86 3.23-2.42 21.88-4 25.32s-19.18 5.46-22.11.18-7.15-23.11-6.65-26.59 13.84-9.61 16.23-9.51S45.2 19 45.84 21.42z" class="c4-cls-3"/><path d="M43.49 21.33c-1.94-1.4-11.88-7.88-14.09-7.68s-12.48 4.34-14 6.48a21.81 21.81 0 0 0-2.12 3.73 15.08 15.08 0 0 1-.21-3.53c.5-3.48 13.84-9.61 16.23-9.51S45.2 19 45.84 21.42a14.58 14.58 0 0 1 0 3.9 6.59 6.59 0 0 0-2.35-3.99z" class="c4-cls-4"/><path d="M40.61 45.43a10.51 10.51 0 0 0 2.14-1.63 19.53 19.53 0 0 1-.94 2.94c-1.61 3.44-19.18 5.46-22.11.18a25.08 25.08 0 0 1-1.42-3.23C20 45 24.54 46.42 28.87 46.9a30.72 30.72 0 0 0 11.74-1.47z" class="c4-cls-5"/></g><defs><g id="c54_splinted_crowns" data-name="splinted crowns"><path d="M2 48.09h55v7.67H2z" class="c4-cls-12" data-color-action="fill" style="fill:inherit"/><path d="M45.84 21.42c.86 3.23-2.42 21.88-4 25.32s-19.18 5.46-22.11.18-7.15-23.11-6.65-26.59 13.84-9.61 16.23-9.51S45.2 19 45.84 21.42z" class="c4-cls-2"/><path d="M45.84 21.42c.86 3.23-2.42 21.88-4 25.32s-19.18 5.46-22.11.18-7.15-23.11-6.65-26.59 13.84-9.61 16.23-9.51S45.2 19 45.84 21.42z" class="c4-cls-3"/><path d="M43.49 21.33c-1.94-1.4-11.88-7.88-14.09-7.68s-12.48 4.34-14 6.48a21.81 21.81 0 0 0-2.12 3.73 15.08 15.08 0 0 1-.21-3.53c.5-3.48 13.84-9.61 16.23-9.51S45.2 19 45.84 21.42a14.58 14.58 0 0 1 0 3.9 6.59 6.59 0 0 0-2.35-3.99z" class="c4-cls-4"/><path d="M40.61 45.43a10.51 10.51 0 0 0 2.14-1.63 19.53 19.53 0 0 1-.94 2.94c-1.61 3.44-19.18 5.46-22.11.18a25.08 25.08 0 0 1-1.42-3.23C20 45 24.54 46.42 28.87 46.9a30.72 30.72 0 0 0 11.74-1.47z" class="c4-cls-5"/></g><path id="c54_lingual_V" d="M22.57 49.11a17.38 17.38 0 0 1 17.34-.84C36 50.13 27.33 51 22.57 49.11z" class="c4-cls-6" data-color-action="fill" style="fill:inherit" data-name="lingual V"/><ellipse id="c54_lingual" cx="30.01" cy="34.2" class="c4-cls-6" rx="3.96" ry="6.97" data-color-action="fill" style="fill:inherit"/><path id="c54_mesial" d="M41.73 30.92a17 17 0 0 0-.68-4.41l4.75-5.2v.1c.45 1.71-.25 7.75-1.26 13.57a4.64 4.64 0 0 1-2.81-4.06z" class="c4-cls-6" data-color-action="fill" style="fill:inherit"/><path id="c54_line_angle_4" d="M34.21 21l1.74-7.12c4.38 2.53 9.28 5.93 9.85 7.43l-4.75 5.2c-.94-2.97-2.97-4.75-6.84-5.51z" class="c4-cls-6" data-color-action="fill" style="fill:inherit" data-name="line angle 4"/><path id="c54_cusp_2" d="M29.15 20.56a17.69 17.69 0 0 0-4.6.5l-2.61-7.57c3.22-1.58 6.31-2.71 7.35-2.67s3.69 1.35 6.66 3.07L34.21 21a27.27 27.27 0 0 0-5.06-.44z" class="c4-cls-6" data-color-action="fill" style="fill:inherit" data-name="cusp 2"/><path id="c54_line_angle_3" d="M18.74 26.54l-5.33-7.07c1.15-1.88 4.91-4.21 8.53-6l2.61 7.57a7.67 7.67 0 0 0-5.81 5.5z" class="c4-cls-6" data-color-action="fill" style="fill:inherit" data-name="line angle 3"/><path id="c54_distal" d="M13.06 20.33a2.34 2.34 0 0 1 .35-.86l5.33 7.07a23.52 23.52 0 0 0-.87 5 3.78 3.78 0 0 1-2.33 3.21c-1.59-6.18-2.76-12.49-2.48-14.42z" class="c4-cls-6" data-color-action="fill" style="fill:inherit"/><g id="c54_veneer"><path d="M28 1.25h3v3h-3z" class="c4-cls-7"/><path d="M28 1.25h3v3h-3z" class="c4-cls-7"/><path d="M28 1.25h3v3h-3z" class="c4-cls-7"/></g><g id="c54_tissue_graft" data-name="tissue graft"><path d="M28 1.25h3v3h-3z" class="c4-cls-7"/><path d="M28 1.25h3v3h-3z" class="c4-cls-7"/><path d="M28 1.25h3v3h-3z" class="c4-cls-7"/></g><g id="c54_tipped_lingual" class="c4-cls-8" data-name="tipped lingual"><path d="M30.35 7.93c-1.26-3.37-4.74-3.85-7.69 5.32-.5 1.56-4.42 1.76-3.84 0C20.84 7.15 24.14 3 27.89 4a4.86 4.86 0 0 1 3 3.38c-.2.15-.43.41-.54.55z" class="c4-cls-9" data-color-action="fill" style="fill:inherit"/><path d="M28.27 10.85H15.33l2.94 9.64 10-9.64z" class="c4-cls-9" data-color-action="fill" style="fill:inherit"/></g><g id="c54_tipped_facial" data-name="tipped facial"><path d="M28 1.25h3v3h-3z" class="c4-cls-7"/><path d="M28 1.25h3v3h-3z" class="c4-cls-7"/><path d="M28 1.25h3v3h-3z" class="c4-cls-7"/></g><path id="c54_surface_restoration_mesial" d="M45.89 21.43c.54 2-.57 10.24-1.86 16.87a11.52 11.52 0 0 0-6.84 6C38 36.91 38.85 27.12 39 24.22c-.4-.31-.87-.66-1.39-1l6.33-4a6.09 6.09 0 0 1 1.95 2.21z" class="c4-cls-10" data-color-action="fill" style="fill:inherit" data-name="surface restoration mesial"/><path id="c54_surface_restoration_lingual" d="M24.62 47.26a11.51 11.51 0 0 0-1.31-3.46c-1.42-7.85-2.73-18.12-3.13-21.21A44.34 44.34 0 0 1 29 18.07a67.64 67.64 0 0 1 10 6.14c-.16 2.9-1 12.69-1.82 20.05A11.59 11.59 0 0 0 36.3 47a11.94 11.94 0 0 0-11.68.3z" class="c4-cls-8 c4-cls-11" data-color-action="fill" style="fill:inherit" data-name="surface restoration lingual"/><path id="c54_surface_restoration_lingual_V" d="M36.06 49.49a30.34 30.34 0 0 1-11.19.25v-.16a11.32 11.32 0 0 0-.26-2.32A11.94 11.94 0 0 1 36.3 47a11.28 11.28 0 0 0-.25 2.29c0 .04.01.12.01.2z" class="c4-cls-8 c4-cls-11" data-color-action="fill" style="fill:inherit" data-name="surface restoration lingual V"/><path id="c54_surface_restoration_distal" d="M20.19 22.59c.39 3.09 1.71 13.36 3.13 21.21a11.51 11.51 0 0 0-6.67-5.24c-2.09-7.12-3.87-15.88-3.54-18.21a5.47 5.47 0 0 1 2.2-2.8l6.4 4.06c-.57.33-1.1.67-1.52.98z" class="c4-cls-10" data-color-action="fill" style="fill:inherit" data-name="surface restoration distal"/><path id="c54_surface_restoration_occlusal" d="M44 19.24l-6.33 4A70.27 70.27 0 0 0 29 18.07a47.45 47.45 0 0 0-7.27 3.53l-6.4-4.06c4-3.24 12.2-6.79 14-6.72S40 15.92 44 19.24z" class="c4-cls-10" data-color-action="fill" style="fill:inherit" data-name="surface restoration occlusal"/><g id="c54_supra-erupted"><path d="M28 1.25h3v3h-3z" class="c4-cls-7"/><path d="M28 1.25h3v3h-3z" class="c4-cls-7"/><path d="M28 1.25h3v3h-3z" class="c4-cls-7"/></g><g id="c54_sub-erupted"><path d="M28 1.25h3v3h-3z" class="c4-cls-7"/><path d="M28 1.25h3v3h-3z" class="c4-cls-7"/><path d="M28 1.25h3v3h-3z" class="c4-cls-7"/></g><g id="c54_sealant"><path d="M28 1.25h3v3h-3z" class="c4-cls-7"/><path d="M28 1.25h3v3h-3z" class="c4-cls-7"/><path d="M28 1.25h3v3h-3z" class="c4-cls-7"/></g><g id="c54_root_decay" data-name="root decay"><path d="M28 1.25h3v3h-3z" class="c4-cls-7"/><path d="M28 1.25h3v3h-3z" class="c4-cls-7"/><path d="M28 1.25h3v3h-3z" class="c4-cls-7"/></g><g id="c54_root_canal" data-name="root canal"><path d="M28 1.25h3v3h-3z" class="c4-cls-7"/><path d="M28 1.25h3v3h-3z" class="c4-cls-7"/><path d="M28 1.25h3v3h-3z" class="c4-cls-7"/></g><g id="c54_root_abrasion" data-name="root abrasion"><path d="M28 1.25h3v3h-3z" class="c4-cls-7"/><path d="M28 1.25h3v3h-3z" class="c4-cls-7"/><path d="M28 1.25h3v3h-3z" class="c4-cls-7"/></g><g id="c54_open_contact_mesial" data-name="open contact mesial"><path d="M28 1.25h3v3h-3z" class="c4-cls-7"/><path d="M28 1.25h3v3h-3z" class="c4-cls-7"/><path d="M28 1.25h3v3h-3z" class="c4-cls-7"/></g><g id="c54_open_contact_distal" data-name="open contact distal"><path d="M28 1.25h3v3h-3z" class="c4-cls-7"/><path d="M28 1.25h3v3h-3z" class="c4-cls-7"/><path d="M28 1.25h3v3h-3z" class="c4-cls-7"/></g><path id="c54_lingual_abfraction" d="M42.3 50.84S37 55 30.5 55s-11.8-4.16-11.8-4.16 5.3-4.16 11.8-4.16 11.8 4.16 11.8 4.16z" class="c4-cls-15" data-color-action="fill" style="fill:inherit" data-name="lingual abfraction"/><g id="c54_internal_root_resorption" data-name="internal root resorption"><path d="M28 1.25h3v3h-3z" class="c4-cls-7"/><path d="M28 1.25h3v3h-3z" class="c4-cls-7"/><path d="M28 1.25h3v3h-3z" class="c4-cls-7"/></g><g id="c54_gortex_membranes" data-name="gortex membranes"><path d="M28 1.25h3v3h-3z" class="c4-cls-7"/><path d="M28 1.25h3v3h-3z" class="c4-cls-7"/><path d="M28 1.25h3v3h-3z" class="c4-cls-7"/></g><g id="c54_frenum_pull" data-name="frenum pull"><path d="M28 1.25h3v3h-3z" class="c4-cls-7"/><path d="M28 1.25h3v3h-3z" class="c4-cls-7"/><path d="M28 1.25h3v3h-3z" class="c4-cls-7"/></g><g id="c54_external_root_resorption" data-name="external root resorption"><path d="M28 1.25h3v3h-3z" class="c4-cls-7"/><path d="M28 1.25h3v3h-3z" class="c4-cls-7"/><path d="M28 1.25h3v3h-3z" class="c4-cls-7"/></g><path id="c54_three_quarter_crown" d="M45.17 31.38c.67-4.53 1-8.61.68-10C45.2 19 31.68 10.91 29.29 10.82s-15.73 6-16.23 9.51c-.23 1.58.51 6.09 1.66 11z" class="c4-cls-8 c4-cls-19" data-color-action="fill" style="fill:inherit" data-name="three quarter crown"/><path id="c54_crown" d="M45.84 21.42c.86 3.23-2.42 21.88-4 25.32s-19.18 5.46-22.11.18-7.15-23.11-6.65-26.59 13.84-9.61 16.23-9.51S45.2 19 45.84 21.42z" class="c4-cls-8 c4-cls-19" data-color-action="fill" style="fill:inherit"/><path id="c54_cracked_surface_mesial" d="M41.34 23.74l3.83 3.83h-5.01l5.01 4.75h-5.01l3.83 3.83" class="c4-cls-20" data-color-action="stroke" style="stroke:inherit" data-name="cracked surface mesial"/><path id="c54_cracked_surface_lingual" d="M28.17 23.74l3.84 3.83H27l5 4.75h-5l3.83 3.83" class="c4-cls-20" data-color-action="stroke" style="stroke:inherit" data-name="cracked surface lingual"/><path id="c54_cracked_surface_lingual_V" d="M28.17 23.74l3.84 3.83H27l5 4.75h-5l3.83 3.83" class="c4-cls-20" data-color-action="stroke" style="stroke:inherit" data-name="cracked surface lingual V"/><path id="c54_cracked_surface_distal" d="M14.34 23.74l3.83 3.83h-5l5 4.75h-5L17 36.15" class="c4-cls-20" data-color-action="stroke" style="stroke:inherit" data-name="cracked surface distal"/><g id="c54_chipped_surface_mesial" class="c4-cls-8" data-name="chipped surface mesial"><path d="M37.83 25.41l8.33 8.34M46.16 25.41l-8.33 8.34" class="c4-cls-21" data-color-action="stroke" style="stroke:inherit"/></g><g id="c54_chipped_surface_lingual" class="c4-cls-8" data-name="chipped surface lingual"><path d="M25.67 25.41L34 33.75M34 25.41l-8.33 8.34" class="c4-cls-21" data-color-action="stroke" style="stroke:inherit"/></g><g id="c54_chipped_surface_lingual_V" class="c4-cls-8" data-name="chipped surface lingual V"><path d="M25.67 25.41L34 33.75M34 25.41l-8.33 8.34" class="c4-cls-21" data-color-action="stroke" style="stroke:inherit"/></g><g id="c54_chipped_surface_distal" class="c4-cls-8" data-name="chipped surface distal"><path d="M12.67 25.41L21 33.75M21 25.41l-8.33 8.34" class="c4-cls-21" data-color-action="stroke" style="stroke:inherit"/></g><g id="c54_buccal_abfraction" data-name="buccal abfraction"><path d="M28 1.25h3v3h-3z" class="c4-cls-7"/><path d="M28 1.25h3v3h-3z" class="c4-cls-7"/><path d="M28 1.25h3v3h-3z" class="c4-cls-7"/></g><g id="c54_braces"><path d="M28 1.25h3v3h-3z" class="c4-cls-7"/><path d="M28 1.25h3v3h-3z" class="c4-cls-7"/><path d="M28 1.25h3v3h-3z" class="c4-cls-7"/></g><g id="c54_apicoectomy"><path d="M28 1.25h3v3h-3z" class="c4-cls-7"/><path d="M28 1.25h3v3h-3z" class="c4-cls-7"/><path d="M28 1.25h3v3h-3z" class="c4-cls-7"/></g><g id="c54_abscess"><path d="M28 1.25h3v3h-3z" class="c4-cls-7"/><path d="M28 1.25h3v3h-3z" class="c4-cls-7"/><path d="M28 1.25h3v3h-3z" class="c4-cls-7"/></g><g id="c54_blunted_roots" data-name="blunted roots"><path d="M28 1.25h3v3h-3z" class="c4-cls-7"/><path d="M28 1.25h3v3h-3z" class="c4-cls-7"/><path d="M28 1.25h3v3h-3z" class="c4-cls-7"/></g><g id="c54_root_amputation" data-name="root amputation"><path d="M28 1.25h3v3h-3z" class="c4-cls-7"/><path d="M28 1.25h3v3h-3z" class="c4-cls-7"/><path d="M28 1.25h3v3h-3z" class="c4-cls-7"/></g><g id="c54_missing_crown" data-name="missing crown"><path d="M28 1.25h3v3h-3z" class="c4-cls-7"/><path d="M28 1.25h3v3h-3z" class="c4-cls-7"/><path d="M28 1.25h3v3h-3z" class="c4-cls-7"/><path d="M2 2.02h55V64H2z" class="c4-cls-13"/></g><g id="c54_missing_tooth" data-name="missing tooth"><path d="M45.84 21.42c.86 3.23-2.42 21.88-4 25.32s-19.18 5.46-22.11.18-7.15-23.11-6.65-26.59 13.84-9.61 16.23-9.51S45.2 19 45.84 21.42z" class="c4-cls-2"/><path d="M45.84 21.42c.86 3.23-2.42 21.88-4 25.32s-19.18 5.46-22.11.18-7.15-23.11-6.65-26.59 13.84-9.61 16.23-9.51S45.2 19 45.84 21.42z" class="c4-cls-13"/><path d="M43.49 21.33c-1.94-1.4-11.88-7.88-14.09-7.68s-12.48 4.34-14 6.48a21.81 21.81 0 0 0-2.12 3.73 15.08 15.08 0 0 1-.21-3.53c.5-3.48 13.84-9.61 16.23-9.51S45.2 19 45.84 21.42a14.58 14.58 0 0 1 0 3.9 6.59 6.59 0 0 0-2.35-3.99zM40.61 45.43a10.51 10.51 0 0 0 2.14-1.63 19.53 19.53 0 0 1-.94 2.94c-1.61 3.44-19.18 5.46-22.11.18a25.08 25.08 0 0 1-1.42-3.23C20 45 24.54 46.42 28.87 46.9a30.72 30.72 0 0 0 11.74-1.47z" class="c4-cls-13"/></g><g id="c54_maryland_bridge_pontic" class="c4-cls-8" data-name="maryland bridge pontic"><path d="M2 27.96h55v7.67H2z" class="c4-cls-14" data-color-action="fill" style="fill:inherit"/><path d="M45.84 21.42c.86 3.23-2.42 21.88-4 25.32s-19.18 5.46-22.11.18-7.15-23.11-6.65-26.59 13.84-9.61 16.23-9.51S45.2 19 45.84 21.42z" class="c4-cls-14" data-color-action="fill" style="fill:inherit"/></g><g id="c54_maryland_bridge_abutment_mesial" class="c4-cls-8" data-name="maryland bridge abutment mesial"><path d="M36.58 27.17H57v7.67H36.58z" class="c4-cls-14" data-color-action="fill" style="fill:inherit"/><ellipse cx="37.81" cy="31" class="c4-cls-14" rx="5.61" ry="12.9" data-color-action="fill" style="fill:inherit"/></g><g id="c54_maryland_bridge_abutment_distal" class="c4-cls-8" data-name="maryland bridge abutment distal"><path d="M2 27.17h20.42v7.67H2z" class="c4-cls-14" data-color-action="fill" style="fill:inherit"/><ellipse cx="21.19" cy="31" class="c4-cls-14" rx="5.61" ry="12.9" data-color-action="fill" style="fill:inherit"/></g><g id="c54_maryland_bridge_abutment" class="c4-cls-8" data-name="maryland bridge abutment"><path d="M36.58 27.17H57v7.67H36.58zM2 27.17h20.42v7.67H2z" class="c4-cls-14" data-color-action="fill" style="fill:inherit"/><ellipse cx="21.19" cy="31" class="c4-cls-14" rx="5.61" ry="12.9" data-color-action="fill" style="fill:inherit"/><ellipse cx="37.81" cy="31" class="c4-cls-14" rx="5.61" ry="12.9" data-color-action="fill" style="fill:inherit"/></g><g id="c54_bridge_abutment_mesial" class="c4-cls-8" data-name="bridge abutment mesial"><path d="M45.84 21.42c.86 3.23-2.42 21.88-4 25.32s-19.18 5.46-22.11.18-7.15-23.11-6.65-26.59 13.84-9.61 16.23-9.51S45.2 19 45.84 21.42z" class="c4-cls-11" data-color-action="fill" style="fill:inherit"/><path d="M22.02 27.74H57v7.67H22.02z" class="c4-cls-11" data-color-action="fill" style="fill:inherit"/></g><g id="c54_bridge_abutment_distal" class="c4-cls-8" data-name="bridge abutment distal"><path d="M45.84 21.42c.86 3.23-2.42 21.88-4 25.32s-19.18 5.46-22.11.18-7.15-23.11-6.65-26.59 13.84-9.61 16.23-9.51S45.2 19 45.84 21.42z" class="c4-cls-11" data-color-action="fill" style="fill:inherit"/><path d="M2 27.74h34.98v7.67H2z" class="c4-cls-11" data-color-action="fill" style="fill:inherit"/></g><g id="c54_bridge_abutment" class="c4-cls-8" data-name="bridge abutment"><path d="M45.84 21.42c.86 3.23-2.42 21.88-4 25.32s-19.18 5.46-22.11.18-7.15-23.11-6.65-26.59 13.84-9.61 16.23-9.51S45.2 19 45.84 21.42z" class="c4-cls-11" data-color-action="fill" style="fill:inherit"/><path d="M2 27.74h55v7.67H2z" class="c4-cls-11" data-color-action="fill" style="fill:inherit"/></g><g id="c54_bridge_pontic" class="c4-cls-8" data-name="bridge pontic"><path d="M45.84 21.42c.86 3.23-2.42 21.88-4 25.32s-19.18 5.46-22.11.18-7.15-23.11-6.65-26.59 13.84-9.61 16.23-9.51S45.2 19 45.84 21.42z" class="c4-cls-11" data-color-action="fill" style="fill:inherit"/><path d="M2 27.74h55v7.67H2z" class="c4-cls-11" data-color-action="fill" style="fill:inherit"/></g><g id="c54_implant_mini" data-name="implant mini"><path d="M2 2.02h55V64H2z" class="c4-cls-13"/><path d="M29.72 66h-.44l-1-8.5V16.67h2.44V57.5l-1 8.5z" class="c4-cls-11" data-color-action="fill" style="fill:inherit"/><path d="M29.42 66h-.07l-.4-8.5V16.67h.37V57.5l.1 8.5z" class="c4-cls-16"/><path d="M28.28 16.67h2.44v.63h-2.44z" class="c4-cls-17" data-color-action="fill" style="fill:inherit"/><g class="c4-cls-18"><path d="M28.28 17.3l2.44 1v-.63l-2.44-1v.63zM28.28 18.75l2.44 1v-.64l-2.44-1v.64zM28.28 20.19l2.44 1v-.63l-2.44-1v.63zM28.28 21.64l2.44 1V22l-2.44-1v.64zM28.28 23.08l2.44 1v-.63l-2.44-1v.63zM28.28 24.53l2.44 1v-.64l-2.44-1v.64zM28.28 25.97l2.44 1v-.63l-2.44-1v.63zM28.28 27.42l2.44 1v-.63l-2.44-1v.63zM28.28 28.86l2.44 1v-.63l-2.44-1v.63zM28.28 30.31l2.44 1v-.63l-2.44-1v.63zM28.28 31.75l2.44 1.01v-.64l-2.44-1v.63zM28.28 33.2l2.44 1v-.63l-2.44-1v.63zM28.28 34.65l2.44 1v-.64l-2.44-1v.64zM28.28 36.09l2.44 1v-.63l-2.44-1v.63zM28.28 37.54l2.44 1v-.64l-2.44-1v.64zM28.28 38.98l2.44 1v-.63l-2.44-1v.63zM28.28 40.43l2.44 1v-.63l-2.44-1.01v.64zM28.28 41.87l2.44 1v-.63l-2.44-1v.63zM28.28 43.32l2.44 1v-.63l-2.44-1v.63zM28.28 44.76l2.44 1v-.63l-2.44-1v.63zM28.28 46.21l2.44 1v-.63l-2.44-1v.63zM28.28 47.65l2.44 1.01v-.64l-2.44-1v.63zM28.28 49.1l2.44 1v-.63l-2.44-1v.63zM28.28 50.55l2.44 1v-.64l-2.44-1v.64zM28.28 51.99l2.44 1v-.63l-2.44-1v.63zM28.28 53.44l2.44 1v-.64l-2.44-1v.64zM28.28 54.88l2.44 1v-.63l-2.44-1v.63zM28.28 56.33l2.44 1v-.63l-2.44-1.01v.64zM28.28 57.5l.03.29 2.27.92.07-.6-2.37-.97v.36zM28.49 59.3l1.93.79.07-.6-2.08-.85.08.66zM28.67 60.82l1.58.65.08-.6-1.74-.71.08.66zM28.85 62.34l1.24.51.07-.6-1.39-.57.08.66zM29.03 63.86l.9.37.07-.6-1.05-.43.08.66zM29.2 65.38l.57.23.07-.6-.71-.3.07.67z" class="c4-cls-17" data-color-action="fill" style="fill:inherit"/></g><circle cx="29.5" cy="12.79" r="2.24" class="c4-cls-11" data-color-action="fill" style="fill:inherit"/><path d="M27.67 14.01h3.67v3h-3.67z" class="c4-cls-11" data-color-action="fill" style="fill:inherit"/><path d="M28.49 14.01h.55v3h-.55z" class="c4-cls-16"/><path d="M28.7 11.44h-.21a2.32 2.32 0 0 0-.49 1.28 2.37 2.37 0 0 0 .52 1.3H29a2 2 0 0 1-.73-1.37 1.5 1.5 0 0 1 .43-1.21z" class="c4-cls-16"/><path d="M28.28 22.74h2.44v.63h-2.44z" class="c4-cls-17" data-color-action="fill" style="fill:inherit"/><path d="M32.11 16.99h-5.22l.87 5.71h3.48l.87-5.71z" class="c4-cls-11" data-color-action="fill" style="fill:inherit"/><path d="M28.85 16.99h-.79l.48 5.71h.53l-.22-5.71z" class="c4-cls-16"/></g><g id="c54_implant_cylinder" data-name="implant cylinder"><path d="M2 2.02h55V64H2z" class="c4-cls-13"/><path d="M26.17 13.67h6.67V63h-6.67zM24.5 63h10v3h-10z" class="c4-cls-11" data-color-action="fill" style="fill:inherit"/><path d="M28 13.67h1V63h-1zM26.75 63h1.5v3h-1.5z" class="c4-cls-16"/><path d="M24.5 10.64h10v3h-10z" class="c4-cls-11" data-color-action="fill" style="fill:inherit"/><path d="M26.75 10.64h1.5v3h-1.5z" class="c4-cls-16"/><path d="M26.17 62.37h6.67V63h-6.67zM26.17 13.67h6.67v.63h-6.67z" class="c4-cls-17" data-color-action="fill" style="fill:inherit"/><g class="c4-cls-18"><path d="M32.83 15.3l-6.66-1v-.63l6.66 1v.63zM32.83 16.75l-6.66-1v-.63l6.66 1v.63zM32.83 18.19l-6.66-1v-.63l6.66 1v.63zM32.83 19.64l-6.66-1v-.63l6.66 1v.63zM32.83 21.08l-6.66-1v-.63l6.66 1v.63zM32.83 22.53l-6.66-1v-.63l6.66 1v.63zM32.83 23.98l-6.66-1v-.64l6.66 1v.64zM32.83 25.42l-6.66-1v-.63l6.66 1v.63zM32.83 26.87l-6.66-1.01v-.63l6.66 1v.64zM32.83 28.31l-6.66-1v-.63l6.66 1v.63zM32.83 29.76l-6.66-1v-.64l6.66 1.01v.63zM32.83 31.2l-6.66-1v-.63l6.66 1v.63zM32.83 32.65l-6.66-1v-.63l6.66 1v.63zM32.83 34.09l-6.66-1v-.63l6.66 1v.63zM32.83 35.54l-6.66-1v-.63l6.66 1v.63zM32.83 36.98l-6.66-1v-.63l6.66 1v.63zM32.83 38.43l-6.66-1v-.63l6.66 1v.63zM32.83 39.88l-6.66-1v-.64l6.66 1v.64zM32.83 41.32l-6.66-1v-.63l6.66 1v.63zM32.83 42.77l-6.66-1v-.64l6.66 1v.64zM32.83 44.21l-6.66-1v-.63l6.66 1v.63zM32.83 45.66l-6.66-1v-.64l6.66 1v.64zM32.83 47.1l-6.66-1v-.63l6.66 1v.63zM32.83 48.55l-6.66-1v-.64l6.66 1.01v.63zM32.83 49.99l-6.66-1v-.63l6.66 1v.63zM32.83 51.44l-6.66-1v-.63l6.66 1v.63zM32.83 52.88l-6.66-1v-.63l6.66 1v.63zM32.83 54.33l-6.66-1v-.63l6.66 1v.63zM32.83 55.77l-6.66-1v-.63l6.66 1v.63zM32.83 57.22l-6.66-1v-.63l6.66 1v.63zM32.83 58.67l-6.66-1.01v-.63l6.66 1v.64zM32.83 60.11l-6.66-1v-.63l6.66 1v.63zM32.83 61.56l-6.66-1v-.64l6.66 1v.64zM32.83 63l-6.66-1v-.63l6.66 1V63z" class="c4-cls-17" data-color-action="fill" style="fill:inherit"/></g></g><g id="c54_implant_blade" data-name="implant blade"><path d="M2 2.02h55V64H2z" class="c4-cls-13"/><path d="M26.17 13.64h6.67v49.33h-6.67zM24.5 10.64h10v3h-10z" class="c4-cls-11" data-color-action="fill" style="fill:inherit"/><path d="M28 13.64h1v49.33h-1zM26.75 10.64h1.5v3h-1.5z" class="c4-cls-16"/><path d="M26.17 13.64h6.67v.63h-6.67z" class="c4-cls-17" data-color-action="fill" style="fill:inherit"/></g><g id="c54_border"><path d="M0 0h59v66H0z" class="c4-cls-7"/><path d="M0 0h59v66H0z" class="c4-cls-7" transform="rotate(-180 29.5 33)"/></g></defs></g></svg>