<svg version="1.1" xmlns="http://www.w3.org/2000/svg" xmlns:xlink="http://www.w3.org/1999/xlink" x="0px" y="0px" viewBox="0 0 59 283" style="enable-background:new 0 0 59 161;" xml:space="preserve"><defs><style type="text/css">.aD-cls-2{fill:#C4C6C7;stroke:#C4C6C7;stroke-width:5;stroke-miterlimit:10;}.aD-cls-3{fill:#F5D7CF;stroke:none;}.aD-cls-4{fill:#FAE8E3;stroke:none;}.aD-cls-5{fill:#F2C6BC;stroke:none;}.aD-cls-6{fill:#EEEFEF;stroke:none;}.aD-cls-7{fill:#E2E3E4;stroke:none;}.aD-cls-8{fill:#FBFBFB;stroke:none;}.aD-cls-9{fill:#929497;stroke:none;}.aD-cls-10{font-family:'ProximaNova-Semibold',sans-serif;}.aD-cls-11{font-size:15px;}.aD-cls-12{opacity:0.55;fill:#3C3D3D;stroke:none;}.aD-cls-13{fill:#FFD403;stroke:none;}.aD-cls-14{fill:none;stroke:#C52636;stroke-width:3.622;stroke-miterlimit:10;}.aD-cls-15{font-family:'ProximaNova-Bold',sans-serif;}.aD-cls-16{font-size:13.6587px;}.aD-cls-17{fill:none;stroke:none;}.aD-cls-18{fill:#28418B;stroke:none;}.aD-cls-19{fill:#787878;stroke:none;}.aD-cls-20{fill:none;stroke:#C52636;stroke-width:2;stroke-miterlimit:10;}.aD-cls-21{fill:#C52636;stroke:none;}.aD-cls-22{fill:none;stroke:#C52636;stroke-width:2;stroke-linecap:round;stroke-miterlimit:10;}.aD-cls-23{fill:#C5C7C9;stroke:none;}.aD-cls-24{fill:#FFF;stroke:none;}.aD-cls-25{fill:none;stroke:#28418B;stroke-width:2;stroke-miterlimit:10;}.aD-cls-26{fill:#FFEF3E;stroke:none;}.aD-cls-27{fill:none;stroke:#C52636;stroke-width:1.25;stroke-miterlimit:10;}.aD-cls-28{fill:#9B9999;stroke:none;}.aD-cls-29{fill:#DBDBDC;stroke:none;}.aD-cls-30{fill:#3C3D3D;stroke:none;}.cD-cls-2{fill:#C4C6C7;stroke:#C4C6C7;stroke-width:5;stroke-miterlimit:10;}.cD-cls-3{fill:#EEEFEF;stroke:none;}.cD-cls-4{fill:#FBFBFB;stroke:none;}.cD-cls-5{fill:#E2E3E4;stroke:none;}.cD-cls-6{opacity:0.55;fill:#3C3D3D;stroke:none;}.cD-cls-7{fill:#28418B;stroke:none;}.cD-cls-8{fill:#787878;stroke:none;}.cD-cls-9{fill:#FFF;stroke:none;}.cD-cls-10{fill:#FFEF3E;stroke:none;}.cD-cls-11{fill:none;stroke:#C52636;stroke-width:1.25;stroke-miterlimit:10;}.cD-cls-12{fill:none;stroke:none;}.aD-cls-31{font-family:'ProximaNova-Semibold',sans-serif;font-size:33px;fill:#28418B;stroke:none;}.aD-msng-cls-1{isolation:isolate;}.aD-msng-cls-2{fill:#C4C6C7;stroke:#C4C6C7;stroke-width:5px;}.aD-msng-cls-11,.aD-msng-cls-2{stroke-miterlimit:10;}.aD-msng-cls-3{fill:#F5D7CF;stroke:none;}.aD-msng-cls-4{fill:#FAE8E3;stroke:none;}.aD-msng-cls-5{fill:#F2C6BC;stroke:none;}.aD-msng-cls-6{fill:#EEEFEF;stroke:none;}.aD-msng-cls-7{fill:#E2E3E4;stroke:none;}.aD-msng-cls-8{fill:#FBFBFB;stroke:none;}.aD-msng-cls-9{font-size:15px;fill:#929497;font-family:ProximaNova-Semibold,Proxima Nova;font-weight:700;stroke:none;}.aD-msng-cls-10{}.aD-msng-cls-11,.aD-msng-cls-12{fill:none;stroke:none;}.aD-msng-cls-11{stroke:#787878;stroke-width:6.25px;}</style></defs><title>ToothD_Layered</title><g class="aD-cls-1"><g id="_Da">	<g>		<path class="aD-cls-2" d="M40.3,128.8c-0.8-2.7-1.8-4.6-3.2-6c-0.3-5.5-0.9-12-1.9-18.7c-2.2-15.5-5.7-30.2-7-30.2    c-1.6-0.1-3.5,14.8-4.7,30.1c-0.5,6.5-0.9,12.8-1.1,18.5c-1.1,0.8-1.9,1.9-2.5,3.4c-1.7,4.8-3.7,16-3,18.8    c0.7,2.8,8.6,3.4,12.3,3.7c3.7,0.3,11.5-1.1,12.5-3.1C43,142.5,41.7,133.9,40.3,128.8z" />		<path class="aD-cls-3" d="M37.2,127.2c-0.1-6.3-0.8-14.5-2-23c-2.2-15.5-5.7-30.2-7-30.2c-1.6-0.1-3.5,14.8-4.7,30.1    c-0.7,8.7-1.2,17.2-1.2,23.9C22.3,130,37.2,129.4,37.2,127.2z" />		<g>			<path class="aD-cls-4" d="M29.3,126.3l-3.5,0.5c0,0,0.2-16.4,0.3-28.6c0.2-19.6,1.6-22.2,1.9-22.7c0.3-0.5-0.6,2.1-0.3,16.6     C27.8,101,29.3,126.3,29.3,126.3z" />		</g>		<g>			<path class="aD-cls-5" d="M34.2,103.5c-0.7-6.7-1.6-13.2-2.5-18.6c1.2,5.4,2.5,12.3,3.5,19.3c1.2,8.5,2,16.7,2,23     c0,0.4-0.5,0.8-1.3,1.1C35.8,121.4,35.2,112.6,34.2,103.5z" />			<path class="aD-cls-5" d="M23.5,104c0.9-11.4,2.1-22.5,3.4-27.4c-0.9,6.1-1.7,16.3-2.3,26.8c-0.6,9.2-1,18.2-1,25.5     c-0.8-0.2-1.3-0.5-1.3-0.8C22.3,121.2,22.8,112.7,23.5,104z" />		</g>		<path class="aD-cls-6" d="M41.7,145.2c1.3-2.8,0-11.4-1.4-16.4c-1.6-5.8-4.6-8.2-9.6-8.3c-5-0.1-9.2,1-10.8,5.4c-1.7,4.8-3.7,16-3,18.8    c0.7,2.8,8.6,3.4,12.3,3.7C32.9,148.7,40.7,147.3,41.7,145.2z" />		<g>			<path class="aD-cls-7" d="M38.5,129.2c-0.8-3.9-2-6.4-3.7-7.9c2.6,1.1,4.4,3.5,5.5,7.5c1.4,5.1,2.7,13.7,1.4,16.4     c-0.2,0.5-0.8,0.9-1.5,1.2C40.5,142.1,39.5,134.1,38.5,129.2z" />			<path class="aD-cls-7" d="M19.9,125.9c0.8-2.3,2.4-3.7,4.3-4.5c-1.2,0.9-2.1,2.4-2.7,4.4c-1.3,4.9-2.9,16-2.8,20.6     c-1-0.5-1.7-1.1-1.8-1.8C16.2,142,18.2,130.7,19.9,125.9z" />		</g>		<path class="aD-cls-8" d="M24.1,147.9c0.1-4,0.4-10.3,1-17.7c0.5-5.7,1.2-8.3,1.7-9.4c0.6-0.1,1.3-0.2,2-0.2c-0.2,1.3-0.5,4.3-0.7,11    c-0.2,6.1,0.1,12.8,0.3,16.8C27.3,148.2,25.7,148.1,24.1,147.9z" />	</g>	<text transform="matrix(1 0 0 1 24.1752 20.508)" class="aD-cls-9 aD-cls-10 aD-cls-11">D</text></g><defs><g id="aD_bone_graft" style="">	<g>		<g>							<ellipse transform="matrix(0.1539 -0.9881 0.9881 0.1539 -106.1107 120.5387)" class="aD-cls-14" cx="17.3" cy="122.2" rx="12.7" ry="12.7" data-color-action="stroke" style="stroke:inherit" />			<line class="aD-cls-14" x1="10.3" y1="112.6" x2="24.3" y2="131.8" data-color-action="stroke" style="stroke:inherit" />		</g>		<text transform="matrix(1 0 0 1 6.7033 126.808)" class="aD-cls-15 aD-cls-16">NA</text>	</g></g><g id="aD_splinted_crowns" style="">	<g>		<g>							<ellipse transform="matrix(0.1539 -0.9881 0.9881 0.1539 -106.1107 120.5387)" class="aD-cls-14" cx="17.3" cy="122.2" rx="12.7" ry="12.7" data-color-action="stroke" style="stroke:inherit" />			<line class="aD-cls-14" x1="10.3" y1="112.6" x2="24.3" y2="131.8" data-color-action="stroke" style="stroke:inherit" />		</g>		<text transform="matrix(1 0 0 1 6.7033 126.808)" class="aD-cls-15 aD-cls-16">NA</text>	</g></g><g id="aD_mesial" style="">	<path class="aD-cls-12" d="M38.4,134.7c-0.4,2.2-0.2,4.3-0.8,5.8l4.6,2.3c0.2-2.8-0.3-7-1.1-10.6C39.8,132.6,38.6,133.3,38.4,134.7z" data-color-action="fill" style="fill:inherit" /></g><g id="aD_line_angle_2" style="">	<path class="aD-cls-12" d="M35.7,142.4c-0.7,0.3-1.6,0.5-2.6,0.7l1.5,5c3.3-0.5,6.5-1.5,7.1-2.8c0.3-0.6,0.4-1.4,0.5-2.4l-4.6-2.3   C37.3,141.3,36.7,142,35.7,142.4z" data-color-action="fill" style="fill:inherit" /></g><g id="aD_facial" style="">	<path class="aD-cls-12" d="M25.2,143.2l-1.3,4.6c1.9,0.3,3.9,0.4,5.3,0.5c1.4,0.1,3.4,0,5.4-0.3l-1.5-5   C30.6,143.5,27.4,143.4,25.2,143.2z" data-color-action="fill" style="fill:inherit" /></g><g id="aD_line_angle_1" style="">	<path class="aD-cls-12" d="M23.9,143c-1.1-0.2-1.7-1.1-2.2-2.2l-4.9,2.8c0,0.4,0.1,0.8,0.1,1.1c0.5,1.8,3.7,2.7,7,3.2l1.3-4.6   C24.7,143.2,24.3,143.1,23.9,143z" data-color-action="fill" style="fill:inherit" /></g><g id="aD_distal" style="">	<path class="aD-cls-12" d="M16.8,143.7l4.9-2.8c-0.7-1.6-0.9-3.7-1.1-5.2c-0.2-1.5-1.2-2.4-2.5-3C17.3,136.8,16.7,141.3,16.8,143.7z" data-color-action="fill" style="fill:inherit" /></g><g id="aD_mid_facial" style="">	<ellipse class="aD-cls-12" cx="29.5" cy="132.9" rx="3.5" ry="5.6" data-color-action="fill" style="fill:inherit" /></g><g id="aD_facial_V" style="">	<path class="aD-cls-12" d="M35.3,121.6c-1.3-0.7-2.8-1-4.6-1c-2.8-0.1-5.3,0.3-7.3,1.3c1.6,1.2,3.6,1.9,5.8,1.9   C31.5,123.8,33.7,122.9,35.3,121.6z" data-color-action="fill" style="fill:inherit" /></g><g id="aD_veneer" style="">	<g>		<g>							<ellipse transform="matrix(0.1539 -0.9881 0.9881 0.1539 -106.1107 120.5387)" class="aD-cls-14" cx="17.3" cy="122.2" rx="12.7" ry="12.7" data-color-action="stroke" style="stroke:inherit" />			<line class="aD-cls-14" x1="10.3" y1="112.6" x2="24.3" y2="131.8" data-color-action="stroke" style="stroke:inherit" />		</g>		<text transform="matrix(1 0 0 1 6.7033 126.808)" class="aD-cls-15 aD-cls-16">NA</text>	</g></g><g id="aD_tissue_graft" style="">	<g>		<g>							<ellipse transform="matrix(0.1539 -0.9881 0.9881 0.1539 -106.1107 120.5387)" class="aD-cls-14" cx="17.3" cy="122.2" rx="12.7" ry="12.7" data-color-action="stroke" style="stroke:inherit" />			<line class="aD-cls-14" x1="10.3" y1="112.6" x2="24.3" y2="131.8" data-color-action="stroke" style="stroke:inherit" />		</g>		<text transform="matrix(1 0 0 1 6.7033 126.808)" class="aD-cls-15 aD-cls-16">NA</text>	</g></g><g id="aD_tipped_lingual" style="">	<rect x="28" y="3.2" class="aD-cls-17" width="3" height="3" /></g><g id="aD_tipped_facial" style="">	<g>		<path class="aD-cls-18" d="M27.7,152.4c1.2,3.2,4.5,3.6,7.2-5c0.5-1.5,4.2-1.7,3.6,0c-1.9,5.7-5,9.6-8.5,8.7c-1.2-0.3-2.3-1.6-2.8-3.2    C27.4,152.8,27.6,152.5,27.7,152.4z" data-color-action="fill" style="fill:inherit" />		<polygon class="aD-cls-18" points="29.7,149.7 41.8,149.7 39.1,140.6   " data-color-action="fill" style="fill:inherit" />	</g></g><g id="aD_surface_restoration_incisal" style="">	<path class="aD-cls-19" d="M29.2,148.4c3.5,0.3,11-1,12.3-3l-6.3-4.6l0,0c-1.4,0.3-3.4,0.6-5,0.6c0,0,0,0,0,0c-0.2,0-0.3,0-0.5,0l-0.2,0   c-2.4-0.2-4.3-0.4-5.6-0.6c0-0.1,0-0.1,0-0.2l-7,4.2C17.9,147.6,25.6,148.1,29.2,148.4z" data-color-action="fill" style="fill:inherit" /></g><g id="aD_surface_restoration_mesial" style="">	<path class="aD-cls-19" d="M41.7,145.2c1-2.2,0.4-8.1-0.6-13c-3.1-1.2-5.5-3.6-6.7-6.7c0.5,6.3,0.8,13.7,0.8,15.2l6.3,4.6   C41.6,145.4,41.6,145.3,41.7,145.2z" data-color-action="fill" style="fill:inherit" /></g><g id="aD_surface_restoration_facial" style="">	<g>		<path class="aD-cls-19" d="M25.8,123.5c-0.2,0.8-0.4,1.6-0.7,2.3c-0.5,5.9-0.9,12.8-1.1,14.9c1.3,0.2,3.2,0.4,5.6,0.6l0.2,0    c0.2,0,0.3,0,0.5,0c0,0,0,0,0,0c1.6,0,3.5-0.3,5-0.6c-0.1-1.5-0.4-8.9-0.8-15.2c-0.3-0.7-0.5-1.4-0.6-2.1    c-1.3,0.4-2.6,0.6-4.1,0.6C28.4,124.1,27,123.9,25.8,123.5z" data-color-action="fill" style="fill:inherit" />			</g></g><g id="aD_surface_restoration_facial_V" style="">	<g>				<path class="aD-cls-19" d="M33.7,120.9c-0.9-0.2-1.9-0.4-2.9-0.4c-1.7,0-3.3,0.1-4.7,0.4c0,0.1,0,0.2,0,0.3c0,0.8-0.1,1.5-0.2,2.3    c1.3,0.4,2.6,0.6,4,0.6c1.4,0,2.8-0.2,4.1-0.6c-0.1-0.6-0.2-1.3-0.2-2C33.6,121.3,33.6,121.1,33.7,120.9z" data-color-action="fill" style="fill:inherit" />	</g></g><g id="aD_surface_restoration_distal" style="">	<path class="aD-cls-19" d="M25,125.9c-1.3,2.9-3.7,5.2-6.8,6.2c-1.1,5-1.8,10.8-1.3,12.6c0,0,0,0.1,0,0.1l7-4.2   C24.2,138.3,24.5,131.6,25,125.9z" data-color-action="fill" style="fill:inherit" /></g><g id="aD_supra-erupted" style="">	<g>		<g>							<ellipse transform="matrix(0.1539 -0.9881 0.9881 0.1539 -106.1107 120.5387)" class="aD-cls-14" cx="17.3" cy="122.2" rx="12.7" ry="12.7" data-color-action="stroke" style="stroke:inherit" />			<line class="aD-cls-14" x1="10.3" y1="112.6" x2="24.3" y2="131.8" data-color-action="stroke" style="stroke:inherit" />		</g>		<text transform="matrix(1 0 0 1 6.7033 126.808)" class="aD-cls-15 aD-cls-16">NA</text>	</g></g><g id="aD_sub-erupted" style="">	<g>		<g>			<line class="aD-cls-20" x1="29.5" y1="112" x2="29.5" y2="118.9" data-color-action="stroke" style="stroke:inherit" />			<g>				<polygon class="aD-cls-21" points="25.5,113.2 29.5,106.3 33.5,113.2     " data-color-action="fill" style="fill:inherit" />			</g>		</g>	</g></g><g id="aD_sealant" style=""><text class="aD-cls-31" transform="matrix(1 0 0 1 19.7 200.47)" data-color-action="fill" style="fill:inherit">S</text></g><g id="aD_rotated_mesial" style="">	<g>		<path class="aD-cls-18" d="M8.5,125.9c-2.8,1.7-2.2,5.1,9.6,5.5c5,0.1,8.4,0,8.4,0l-0.1,2.8c0,0-0.9,0.1-7.7-0.2    c-7.2-0.3-13.2-1.7-12.9-5.6c0.1-1,1-2.1,2.2-2.7C8.1,125.7,8.4,125.8,8.5,125.9z" data-color-action="fill" style="fill:inherit" />		<polygon class="aD-cls-18" points="20.4,127.1 20.4,138.3 30.2,132.7   " data-color-action="fill" style="fill:inherit" />	</g></g><g id="aD_rotated_distal" style="">	<g>		<path class="aD-cls-18" d="M50.8,125.9c2.8,1.7,2.2,5.1-9.6,5.5c-5,0.1-8.4,0-8.4,0l0.1,2.8c0,0,0.9,0.1,7.7-0.2    c7.2-0.3,13.2-1.7,12.9-5.6c-0.1-1-1-2.1-2.2-2.7C51.1,125.7,50.9,125.8,50.8,125.9z" data-color-action="fill" style="fill:inherit" />		<polygon class="aD-cls-18" points="38.8,127.1 38.8,138.3 29.1,132.7   " data-color-action="fill" style="fill:inherit" />	</g></g><g id="aD_root_tips" style="">	<g>		<g>							<ellipse transform="matrix(0.1539 -0.9881 0.9881 0.1539 -106.1107 120.5387)" class="aD-cls-14" cx="17.3" cy="122.2" rx="12.7" ry="12.7" data-color-action="stroke" style="stroke:inherit" />			<line class="aD-cls-14" x1="10.3" y1="112.6" x2="24.3" y2="131.8" data-color-action="stroke" style="stroke:inherit" />		</g>		<text transform="matrix(1 0 0 1 6.7033 126.808)" class="aD-cls-15 aD-cls-16">NA</text>	</g></g><g id="aD_root_decay" style="">	<g>		<g>							<ellipse transform="matrix(0.1539 -0.9881 0.9881 0.1539 -106.1107 120.5387)" class="aD-cls-14" cx="17.3" cy="122.2" rx="12.7" ry="12.7" data-color-action="stroke" style="stroke:inherit" />			<line class="aD-cls-14" x1="10.3" y1="112.6" x2="24.3" y2="131.8" data-color-action="stroke" style="stroke:inherit" />		</g>		<text transform="matrix(1 0 0 1 6.7033 126.808)" class="aD-cls-15 aD-cls-16">NA</text>	</g></g><g id="aD_root_canal" style="">	<line class="aD-cls-22" x1="28.3" y1="77.4" x2="29.4" y2="118.5" data-color-action="stroke" style="stroke:inherit" /></g><g id="aD_root_abrasion" style="">	<g>		<g>							<ellipse transform="matrix(0.1539 -0.9881 0.9881 0.1539 -106.1107 120.5387)" class="aD-cls-14" cx="17.3" cy="122.2" rx="12.7" ry="12.7" data-color-action="stroke" style="stroke:inherit" />			<line class="aD-cls-14" x1="10.3" y1="112.6" x2="24.3" y2="131.8" data-color-action="stroke" style="stroke:inherit" />		</g>		<text transform="matrix(1 0 0 1 6.7033 126.808)" class="aD-cls-15 aD-cls-16">NA</text>	</g></g><g id="aD_post" style="">	<g>		<g>							<ellipse transform="matrix(0.1539 -0.9881 0.9881 0.1539 -106.1107 120.5387)" class="aD-cls-14" cx="17.3" cy="122.2" rx="12.7" ry="12.7" data-color-action="stroke" style="stroke:inherit" />			<line class="aD-cls-14" x1="10.3" y1="112.6" x2="24.3" y2="131.8" data-color-action="stroke" style="stroke:inherit" />		</g>		<text transform="matrix(1 0 0 1 6.7033 126.808)" class="aD-cls-15 aD-cls-16">NA</text>	</g></g><g id="aD_pins" style="">	<g>		<g>			<rect x="26.5" y="109.6" class="aD-cls-19" width="2.3" height="22" data-color-action="fill" style="fill:inherit" />			<rect x="27.1" y="109.6" class="aD-cls-23" width="0.3" height="22" />		</g>		<g>			<rect x="30.8" y="109.6" class="aD-cls-19" width="2.3" height="22" data-color-action="fill" style="fill:inherit" />			<rect x="31.5" y="109.6" class="aD-cls-23" width="0.3" height="22" />		</g>	</g></g><g id="aD_open_contact_mesial" style="">	<g>		<g>							<ellipse transform="matrix(0.1539 -0.9881 0.9881 0.1539 -106.1107 120.5387)" class="aD-cls-14" cx="17.3" cy="122.2" rx="12.7" ry="12.7" data-color-action="stroke" style="stroke:inherit" />			<line class="aD-cls-14" x1="10.3" y1="112.6" x2="24.3" y2="131.8" data-color-action="stroke" style="stroke:inherit" />		</g>		<text transform="matrix(1 0 0 1 6.7033 126.808)" class="aD-cls-15 aD-cls-16">NA</text>	</g></g><g id="aD_open_contact_distal" style="">	<g>		<g>							<ellipse transform="matrix(0.1539 -0.9881 0.9881 0.1539 -106.1107 120.5387)" class="aD-cls-14" cx="17.3" cy="122.2" rx="12.7" ry="12.7" data-color-action="stroke" style="stroke:inherit" />			<line class="aD-cls-14" x1="10.3" y1="112.6" x2="24.3" y2="131.8" data-color-action="stroke" style="stroke:inherit" />		</g>		<text transform="matrix(1 0 0 1 6.7033 126.808)" class="aD-cls-15 aD-cls-16">NA</text>	</g></g><g id="aD_mesial_drift" style="">	<g>		<g>			<line class="aD-cls-25" x1="32.1" y1="134.6" x2="21.2" y2="134.6" data-color-action="stroke" style="stroke:inherit" />			<g>				<polygon class="aD-cls-18" points="30.9,130.6 37.8,134.6 30.9,138.6     " data-color-action="fill" style="fill:inherit" />			</g>		</g>	</g></g><g id="aD_lingual_abfraction" style="">	<g>		<g>							<ellipse transform="matrix(0.1539 -0.9881 0.9881 0.1539 -106.1107 120.5387)" class="aD-cls-14" cx="17.3" cy="122.2" rx="12.7" ry="12.7" data-color-action="stroke" style="stroke:inherit" />			<line class="aD-cls-14" x1="10.3" y1="112.6" x2="24.3" y2="131.8" data-color-action="stroke" style="stroke:inherit" />		</g>		<text transform="matrix(1 0 0 1 6.7033 126.808)" class="aD-cls-15 aD-cls-16">NA</text>	</g></g><g id="aD_internal_root_resorption" style="">	<g>		<g>							<ellipse transform="matrix(0.1539 -0.9881 0.9881 0.1539 -106.1107 120.5387)" class="aD-cls-14" cx="17.3" cy="122.2" rx="12.7" ry="12.7" data-color-action="stroke" style="stroke:inherit" />			<line class="aD-cls-14" x1="10.3" y1="112.6" x2="24.3" y2="131.8" data-color-action="stroke" style="stroke:inherit" />		</g>		<text transform="matrix(1 0 0 1 6.7033 126.808)" class="aD-cls-15 aD-cls-16">NA</text>	</g></g><g id="aD_impacted_mesial" style="">	<g>		<g>							<ellipse transform="matrix(0.1539 -0.9881 0.9881 0.1539 -106.1107 120.5387)" class="aD-cls-14" cx="17.3" cy="122.2" rx="12.7" ry="12.7" data-color-action="stroke" style="stroke:inherit" />			<line class="aD-cls-14" x1="10.3" y1="112.6" x2="24.3" y2="131.8" data-color-action="stroke" style="stroke:inherit" />		</g>		<text transform="matrix(1 0 0 1 6.7033 126.808)" class="aD-cls-15 aD-cls-16">NA</text>	</g></g><g id="aD_impacted_distal" style="">	<g>		<g>							<ellipse transform="matrix(0.1539 -0.9881 0.9881 0.1539 -106.1107 120.5387)" class="aD-cls-14" cx="17.3" cy="122.2" rx="12.7" ry="12.7" data-color-action="stroke" style="stroke:inherit" />			<line class="aD-cls-14" x1="10.3" y1="112.6" x2="24.3" y2="131.8" data-color-action="stroke" style="stroke:inherit" />		</g>		<text transform="matrix(1 0 0 1 6.7033 126.808)" class="aD-cls-15 aD-cls-16">NA</text>	</g></g><g id="aD_gortex_membranes" style="">	<g>		<g>							<ellipse transform="matrix(0.1539 -0.9881 0.9881 0.1539 -106.1107 120.5387)" class="aD-cls-14" cx="17.3" cy="122.2" rx="12.7" ry="12.7" data-color-action="stroke" style="stroke:inherit" />			<line class="aD-cls-14" x1="10.3" y1="112.6" x2="24.3" y2="131.8" data-color-action="stroke" style="stroke:inherit" />		</g>		<text transform="matrix(1 0 0 1 6.7033 126.808)" class="aD-cls-15 aD-cls-16">NA</text>	</g></g><g id="aD_frenum_pull" style="">	<g>		<g>							<ellipse transform="matrix(0.1539 -0.9881 0.9881 0.1539 -106.1107 120.5387)" class="aD-cls-14" cx="17.3" cy="122.2" rx="12.7" ry="12.7" data-color-action="stroke" style="stroke:inherit" />			<line class="aD-cls-14" x1="10.3" y1="112.6" x2="24.3" y2="131.8" data-color-action="stroke" style="stroke:inherit" />		</g>		<text transform="matrix(1 0 0 1 6.7033 126.808)" class="aD-cls-15 aD-cls-16">NA</text>	</g></g><g id="aD_external_root_resorption" style="">	<g>		<g>							<ellipse transform="matrix(0.1539 -0.9881 0.9881 0.1539 -106.1107 120.5387)" class="aD-cls-14" cx="17.3" cy="122.2" rx="12.7" ry="12.7" data-color-action="stroke" style="stroke:inherit" />			<line class="aD-cls-14" x1="10.3" y1="112.6" x2="24.3" y2="131.8" data-color-action="stroke" style="stroke:inherit" />		</g>		<text transform="matrix(1 0 0 1 6.7033 126.808)" class="aD-cls-15 aD-cls-16">NA</text>	</g></g><g id="aD_diastema_mesial" style="">	<g>		<g>							<ellipse transform="matrix(0.1539 -0.9881 0.9881 0.1539 -106.1107 120.5387)" class="aD-cls-14" cx="17.3" cy="122.2" rx="12.7" ry="12.7" data-color-action="stroke" style="stroke:inherit" />			<line class="aD-cls-14" x1="10.3" y1="112.6" x2="24.3" y2="131.8" data-color-action="stroke" style="stroke:inherit" />		</g>		<text transform="matrix(1 0 0 1 6.7033 126.808)" class="aD-cls-15 aD-cls-16">NA</text>	</g></g><g id="aD_diastema_distal" style="">	<g>		<g>							<ellipse transform="matrix(0.1539 -0.9881 0.9881 0.1539 -106.1107 120.5387)" class="aD-cls-14" cx="17.3" cy="122.2" rx="12.7" ry="12.7" data-color-action="stroke" style="stroke:inherit" />			<line class="aD-cls-14" x1="10.3" y1="112.6" x2="24.3" y2="131.8" data-color-action="stroke" style="stroke:inherit" />		</g>		<text transform="matrix(1 0 0 1 6.7033 126.808)" class="aD-cls-15 aD-cls-16">NA</text>	</g></g><g id="aD_distal_drift" style="">	<g>		<g>			<line class="aD-cls-25" x1="26.9" y1="134.6" x2="37.8" y2="134.6" data-color-action="stroke" style="stroke:inherit" />			<g>				<polygon class="aD-cls-18" points="28.1,138.6 21.2,134.6 28.1,130.6     " data-color-action="fill" style="fill:inherit" />			</g>		</g>	</g></g><g id="aD_three_quarter_crown" style="">	<g>		<g>							<ellipse transform="matrix(0.1539 -0.9881 0.9881 0.1539 -106.1107 120.5387)" class="aD-cls-14" cx="17.3" cy="122.2" rx="12.7" ry="12.7" data-color-action="stroke" style="stroke:inherit" />			<line class="aD-cls-14" x1="10.3" y1="112.6" x2="24.3" y2="131.8" data-color-action="stroke" style="stroke:inherit" />		</g>		<text transform="matrix(1 0 0 1 6.7033 126.808)" class="aD-cls-15 aD-cls-16">NA</text>	</g></g><g id="aD_crown" style="">	<path class="aD-cls-26" d="M41.7,145.2c1.3-2.8,0-11.4-1.4-16.4c-1.6-5.8-4.6-8.2-9.6-8.3c-5-0.1-9.2,1-10.8,5.4c-1.7,4.8-3.7,16-3,18.8   c0.7,2.8,8.6,3.4,12.3,3.7C32.9,148.7,40.7,147.3,41.7,145.2z" data-color-action="fill" style="fill:inherit" /></g><g id="aD_cracked_surface_incisal" style="">	<polyline class="aD-cls-27" points="28.2,140.8 32,144.6 27,144.6 32,149.4 27,149.4 30.8,153.2  " data-color-action="stroke" style="stroke:inherit" /></g><g id="aD_cracked_surface_mesial" style="">	<polyline class="aD-cls-27" points="38.7,128.8 42.6,132.7 37.6,132.7 42.6,137.4 37.6,137.4 41.4,141.2  " data-color-action="stroke" style="stroke:inherit" /></g><g id="aD_cracked_surface_facial" style="">	<polyline class="aD-cls-27" points="28.3,128.8 32.2,132.7 27.2,132.7 32.2,137.4 27.2,137.4 31,141.2  " data-color-action="stroke" style="stroke:inherit" /></g><g id="aD_cracked_surface_facial_V" style="">	<polyline class="aD-cls-27" points="28.3,128.8 32.2,132.7 27.2,132.7 32.2,137.4 27.2,137.4 31,141.2  " data-color-action="stroke" style="stroke:inherit" /></g><g id="aD_cracked_surface_distal" style="">	<polyline class="aD-cls-27" points="17.8,128.8 21.6,132.7 16.6,132.7 21.6,137.4 16.6,137.4 20.4,141.2  " data-color-action="stroke" style="stroke:inherit" /></g><g id="aD_chipped_surface_incisal" style="">	<g>		<line class="aD-cls-27" x1="25.7" y1="142.5" x2="34" y2="150.8" data-color-action="stroke" style="stroke:inherit" />		<line class="aD-cls-27" x1="34" y1="142.5" x2="25.7" y2="150.8" data-color-action="stroke" style="stroke:inherit" />	</g></g><g id="aD_chipped_surface_mesial" style="">	<g>		<line class="aD-cls-27" x1="35.2" y1="130.5" x2="43.6" y2="138.8" data-color-action="stroke" style="stroke:inherit" />		<line class="aD-cls-27" x1="43.6" y1="130.5" x2="35.2" y2="138.8" data-color-action="stroke" style="stroke:inherit" />	</g></g><g id="aD_chipped_surface_facial" style="">	<g>		<line class="aD-cls-27" x1="25.8" y1="130.5" x2="34.2" y2="138.8" data-color-action="stroke" style="stroke:inherit" />		<line class="aD-cls-27" x1="34.2" y1="130.5" x2="25.8" y2="138.8" data-color-action="stroke" style="stroke:inherit" />	</g></g><g id="aD_chipped_surface_facial_V" style="">	<g>		<line class="aD-cls-27" x1="25.8" y1="130.5" x2="34.2" y2="138.8" data-color-action="stroke" style="stroke:inherit" />		<line class="aD-cls-27" x1="34.2" y1="130.5" x2="25.8" y2="138.8" data-color-action="stroke" style="stroke:inherit" />	</g></g><g id="aD_chipped_surface_distal" style="">	<g>		<line class="aD-cls-27" x1="16.1" y1="130.5" x2="24.4" y2="138.8" data-color-action="stroke" style="stroke:inherit" />		<line class="aD-cls-27" x1="24.4" y1="130.5" x2="16.1" y2="138.8" data-color-action="stroke" style="stroke:inherit" />	</g></g><g id="aD_buccal_abfraction" style="">	<g>		<g>							<ellipse transform="matrix(0.1539 -0.9881 0.9881 0.1539 -106.1107 120.5387)" class="aD-cls-14" cx="17.3" cy="122.2" rx="12.7" ry="12.7" data-color-action="stroke" style="stroke:inherit" />			<line class="aD-cls-14" x1="10.3" y1="112.6" x2="24.3" y2="131.8" data-color-action="stroke" style="stroke:inherit" />		</g>		<text transform="matrix(1 0 0 1 6.7033 126.808)" class="aD-cls-15 aD-cls-16">NA</text>	</g></g><g id="aD_braces" style="">	<g>		<g>			<rect x="22.6" y="126" class="aD-cls-23" width="13.5" height="18.2" />			<rect x="22.6" y="143.5" class="aD-cls-28" width="13.5" height="0.7" data-color-action="fill" style="fill:inherit" />			<rect x="22.6" y="135.2" class="aD-cls-28" width="13.5" height="1.4" data-color-action="fill" style="fill:inherit" />			<rect x="22.6" y="126" class="aD-cls-29" width="13.5" height="0.9" data-color-action="fill" style="fill:inherit" />			<g>				<g>					<g>						<path class="aD-cls-30" d="M25.9,126h-3.1c-0.3,0-0.5,0.2-0.5,0.5v7c0,0.3,0.2,0.5,0.5,0.5h3.1c0.3,0,0.5-0.2,0.5-0.5v-7        C26.4,126.2,26.2,126,25.9,126z" data-color-action="fill" style="fill:inherit" />						<path class="aD-cls-19" d="M25.9,126h-3.1c-0.3,0-0.5,0.2-0.5,0.5v5.8c0.7,0.1,1.3,0.2,2,0.2c0.7,0,1.4-0.1,2.1-0.2v-5.8        C26.4,126.2,26.2,126,25.9,126z" data-color-action="fill" style="fill:inherit" />						<path class="aD-cls-23" d="M26.1,127.4v-1.1c0-0.1-0.1-0.2-0.2-0.2h-3.1c-0.1,0-0.2,0.1-0.2,0.2v1.1H26.1z" />					</g>					<g>						<path class="aD-cls-30" d="M35.8,126h-3.1c-0.3,0-0.5,0.2-0.5,0.5v7c0,0.3,0.2,0.5,0.5,0.5h3.1c0.3,0,0.5-0.2,0.5-0.5v-7        C36.3,126.2,36.1,126,35.8,126z" data-color-action="fill" style="fill:inherit" />						<path class="aD-cls-19" d="M35.8,126h-3.1c-0.3,0-0.5,0.2-0.5,0.5v5.8c0.7,0.1,1.3,0.2,2,0.2c0.7,0,1.4-0.1,2.1-0.2v-5.8        C36.3,126.2,36.1,126,35.8,126z" data-color-action="fill" style="fill:inherit" />						<path class="aD-cls-23" d="M36,127.4v-1.1c0-0.1-0.1-0.2-0.2-0.2h-3.1c-0.1,0-0.2,0.1-0.2,0.2v1.1H36z" />					</g>				</g>				<g>					<g>						<path class="aD-cls-30" d="M25.9,136.3h-3.1c-0.3,0-0.5,0.2-0.5,0.5v7c0,0.3,0.2,0.5,0.5,0.5h3.1c0.3,0,0.5-0.2,0.5-0.5v-7        C26.4,136.5,26.2,136.3,25.9,136.3z" data-color-action="fill" style="fill:inherit" />						<path class="aD-cls-19" d="M25.9,136.3h-3.1c-0.3,0-0.5,0.2-0.5,0.5v5.8c0.7,0.1,1.3,0.2,2,0.2c0.7,0,1.4-0.1,2.1-0.2v-5.8        C26.4,136.5,26.2,136.3,25.9,136.3z" data-color-action="fill" style="fill:inherit" />						<path class="aD-cls-23" d="M26.1,137.7v-1.1c0-0.1-0.1-0.2-0.2-0.2h-3.1c-0.1,0-0.2,0.1-0.2,0.2v1.1H26.1z" />					</g>					<g>						<path class="aD-cls-30" d="M35.8,136.3h-3.1c-0.3,0-0.5,0.2-0.5,0.5v7c0,0.3,0.2,0.5,0.5,0.5h3.1c0.3,0,0.5-0.2,0.5-0.5v-7        C36.3,136.5,36.1,136.3,35.8,136.3z" data-color-action="fill" style="fill:inherit" />						<path class="aD-cls-19" d="M35.8,136.3h-3.1c-0.3,0-0.5,0.2-0.5,0.5v5.8c0.7,0.1,1.3,0.2,2,0.2c0.7,0,1.4-0.1,2.1-0.2v-5.8        C36.3,136.5,36.1,136.3,35.8,136.3z" data-color-action="fill" style="fill:inherit" />						<path class="aD-cls-23" d="M36,137.7v-1.1c0-0.1-0.1-0.2-0.2-0.2h-3.1c-0.1,0-0.2,0.1-0.2,0.2v1.1H36z" />					</g>				</g>			</g>		</g>		<g>			<rect x="8.2" y="134.4" class="aD-cls-19" width="42.2" height="1.4" data-color-action="fill" style="fill:inherit" />			<rect x="8.2" y="135.6" class="aD-cls-30" width="42.2" height="0.2" data-color-action="fill" style="fill:inherit" />			<rect x="8.2" y="134.6" class="aD-cls-23" width="42.2" height="0.4" />		</g>	</g></g><g id="aD_apicoectomy" style="">	<g>		<g>							<ellipse transform="matrix(0.1539 -0.9881 0.9881 0.1539 -106.1107 120.5387)" class="aD-cls-14" cx="17.3" cy="122.2" rx="12.7" ry="12.7" data-color-action="stroke" style="stroke:inherit" />			<line class="aD-cls-14" x1="10.3" y1="112.6" x2="24.3" y2="131.8" data-color-action="stroke" style="stroke:inherit" />		</g>		<text transform="matrix(1 0 0 1 6.7033 126.808)" class="aD-cls-15 aD-cls-16">NA</text>	</g></g><g id="aD_abscess" style="">	<circle class="aD-cls-18" cx="29.5" cy="71" r="6.1" data-color-action="fill" style="fill:inherit" /></g><g id="aD_blunted_roots" style="">	<g>		<g>							<ellipse transform="matrix(0.1539 -0.9881 0.9881 0.1539 -106.1107 120.5387)" class="aD-cls-14" cx="17.3" cy="122.2" rx="12.7" ry="12.7" data-color-action="stroke" style="stroke:inherit" />			<line class="aD-cls-14" x1="10.3" y1="112.6" x2="24.3" y2="131.8" data-color-action="stroke" style="stroke:inherit" />		</g>		<text transform="matrix(1 0 0 1 6.7033 126.808)" class="aD-cls-15 aD-cls-16">NA</text>	</g></g><g id="aD_root_amputation" style="">	<g>		<g>							<ellipse transform="matrix(0.1539 -0.9881 0.9881 0.1539 -106.1107 120.5387)" class="aD-cls-14" cx="17.3" cy="122.2" rx="12.7" ry="12.7" data-color-action="stroke" style="stroke:inherit" />			<line class="aD-cls-14" x1="10.3" y1="112.6" x2="24.3" y2="131.8" data-color-action="stroke" style="stroke:inherit" />		</g>		<text transform="matrix(1 0 0 1 6.7033 126.808)" class="aD-cls-15 aD-cls-16">NA</text>	</g></g><g id="aD_missing_crown" style="">	<g>		<g>							<ellipse transform="matrix(0.1539 -0.9881 0.9881 0.1539 -106.1107 120.5387)" class="aD-cls-14" cx="17.3" cy="122.2" rx="12.7" ry="12.7" data-color-action="stroke" style="stroke:inherit" />			<line class="aD-cls-14" x1="10.3" y1="112.6" x2="24.3" y2="131.8" data-color-action="stroke" style="stroke:inherit" />		</g>		<text transform="matrix(1 0 0 1 6.7033 126.808)" class="aD-cls-15 aD-cls-16">NA</text>	</g></g><g id="aD_missing_tooth" style="" data-name="missing tooth">	<g>		<path class="aD-cls-2" d="M40.3,128.8c-0.8-2.7-1.8-4.6-3.2-6c-0.3-5.5-0.9-12-1.9-18.7c-2.2-15.5-5.7-30.2-7-30.2    c-1.6-0.1-3.5,14.8-4.7,30.1c-0.5,6.5-0.9,12.8-1.1,18.5c-1.1,0.8-1.9,1.9-2.5,3.4c-1.7,4.8-3.7,16-3,18.8    c0.7,2.8,8.6,3.4,12.3,3.7c3.7,0.3,11.5-1.1,12.5-3.1C43,142.5,41.7,133.9,40.3,128.8z" data-color-action="fill,stroke" style="fill,stroke:inherit" />		<path class="aD-cls-24" d="M37.2,127.2c-0.1-6.3-0.8-14.5-2-23c-2.2-15.5-5.7-30.2-7-30.2c-1.6-0.1-3.5,14.8-4.7,30.1    c-0.7,8.7-1.2,17.2-1.2,23.9C22.3,130,37.2,129.4,37.2,127.2z" />		<g>			<path class="aD-cls-24" d="M29.3,126.3l-3.5,0.5c0,0,0.2-16.4,0.3-28.6c0.2-19.6,1.6-22.2,1.9-22.7c0.3-0.5-0.6,2.1-0.3,16.6     C27.8,101,29.3,126.3,29.3,126.3z" />		</g>		<g>			<path class="aD-cls-24" d="M34.2,103.5c-0.7-6.7-1.6-13.2-2.5-18.6c1.2,5.4,2.5,12.3,3.5,19.3c1.2,8.5,2,16.7,2,23     c0,0.4-0.5,0.8-1.3,1.1C35.8,121.4,35.2,112.6,34.2,103.5z" />			<path class="aD-cls-24" d="M23.5,104c0.9-11.4,2.1-22.5,3.4-27.4c-0.9,6.1-1.7,16.3-2.3,26.8c-0.6,9.2-1,18.2-1,25.5     c-0.8-0.2-1.3-0.5-1.3-0.8C22.3,121.2,22.8,112.7,23.5,104z" />		</g>		<path class="aD-cls-24" d="M41.7,145.2c1.3-2.8,0-11.4-1.4-16.4c-1.6-5.8-4.6-8.2-9.6-8.3c-5-0.1-9.2,1-10.8,5.4    c-1.7,4.8-3.7,16-3,18.8c0.7,2.8,8.6,3.4,12.3,3.7C32.9,148.7,40.7,147.3,41.7,145.2z" />		<g>			<path class="aD-cls-24" d="M38.5,129.2c-0.8-3.9-2-6.4-3.7-7.9c2.6,1.1,4.4,3.5,5.5,7.5c1.4,5.1,2.7,13.7,1.4,16.4     c-0.2,0.5-0.8,0.9-1.5,1.2C40.5,142.1,39.5,134.1,38.5,129.2z" />			<path class="aD-cls-24" d="M19.9,125.9c0.8-2.3,2.4-3.7,4.3-4.5c-1.2,0.9-2.1,2.4-2.7,4.4c-1.3,4.9-2.9,16-2.8,20.6     c-1-0.5-1.7-1.1-1.8-1.8C16.2,142,18.2,130.7,19.9,125.9z" />		</g>		<path class="aD-cls-24" d="M24.1,147.9c0.1-4,0.4-10.3,1-17.7c0.5-5.7,1.2-8.3,1.7-9.4c0.6-0.1,1.3-0.2,2-0.2c-0.2,1.3-0.5,4.3-0.7,11    c-0.2,6.1,0.1,12.8,0.3,16.8C27.3,148.2,25.7,148.1,24.1,147.9z" />	</g></g><g id="aD_extracted_tooth" data-name="extracted tooth" style=""><g class="aD-msng-cls-10"><line class="aD-msng-cls-11" x1="9" y1="108.83" x2="50.67" y2="150.49" data-color-action="stroke" style="stroke:inherit" /><line class="aD-msng-cls-11" x1="50.67" y1="108.83" x2="9" y2="150.49" data-color-action="stroke" style="stroke:inherit" /></g></g><g id="aD_denture" style="">	<g>		<g>							<ellipse transform="matrix(0.1539 -0.9881 0.9881 0.1539 -106.1107 120.5387)" class="aD-cls-14" cx="17.3" cy="122.2" rx="12.7" ry="12.7" data-color-action="stroke" style="stroke:inherit" />			<line class="aD-cls-14" x1="10.3" y1="112.6" x2="24.3" y2="131.8" data-color-action="stroke" style="stroke:inherit" />		</g>		<text transform="matrix(1 0 0 1 6.7033 126.808)" class="aD-cls-15 aD-cls-16">NA</text>	</g></g><g id="aD_maryland_bridge_pontic" style="">	<g>		<g>							<ellipse transform="matrix(0.1539 -0.9881 0.9881 0.1539 -106.1107 120.5387)" class="aD-cls-14" cx="17.3" cy="122.2" rx="12.7" ry="12.7" data-color-action="stroke" style="stroke:inherit" />			<line class="aD-cls-14" x1="10.3" y1="112.6" x2="24.3" y2="131.8" data-color-action="stroke" style="stroke:inherit" />		</g>		<text transform="matrix(1 0 0 1 6.7033 126.808)" class="aD-cls-15 aD-cls-16">NA</text>	</g></g><g id="aD_maryland_bridge_abutment_mesial" style="">	<g>		<g>							<ellipse transform="matrix(0.1539 -0.9881 0.9881 0.1539 -106.1107 120.5387)" class="aD-cls-14" cx="17.3" cy="122.2" rx="12.7" ry="12.7" data-color-action="stroke" style="stroke:inherit" />			<line class="aD-cls-14" x1="10.3" y1="112.6" x2="24.3" y2="131.8" data-color-action="stroke" style="stroke:inherit" />		</g>		<text transform="matrix(1 0 0 1 6.7033 126.808)" class="aD-cls-15 aD-cls-16">NA</text>	</g></g><g id="aD_maryland_bridge_abutment_distal" style="">	<g>		<g>							<ellipse transform="matrix(0.1539 -0.9881 0.9881 0.1539 -106.1107 120.5387)" class="aD-cls-14" cx="17.3" cy="122.2" rx="12.7" ry="12.7" data-color-action="stroke" style="stroke:inherit" />			<line class="aD-cls-14" x1="10.3" y1="112.6" x2="24.3" y2="131.8" data-color-action="stroke" style="stroke:inherit" />		</g>		<text transform="matrix(1 0 0 1 6.7033 126.808)" class="aD-cls-15 aD-cls-16">NA</text>	</g></g><g id="aD_maryland_bridge_abutment" style="">	<g>		<g>							<ellipse transform="matrix(0.1539 -0.9881 0.9881 0.1539 -106.1107 120.5387)" class="aD-cls-14" cx="17.3" cy="122.2" rx="12.7" ry="12.7" data-color-action="stroke" style="stroke:inherit" />			<line class="aD-cls-14" x1="10.3" y1="112.6" x2="24.3" y2="131.8" data-color-action="stroke" style="stroke:inherit" />		</g>		<text transform="matrix(1 0 0 1 6.7033 126.808)" class="aD-cls-15 aD-cls-16">NA</text>	</g></g><g id="aD_bridge_abutment_mesial" style="">	<g>		<g>							<ellipse transform="matrix(0.1539 -0.9881 0.9881 0.1539 -106.1107 120.5387)" class="aD-cls-14" cx="17.3" cy="122.2" rx="12.7" ry="12.7" data-color-action="stroke" style="stroke:inherit" />			<line class="aD-cls-14" x1="10.3" y1="112.6" x2="24.3" y2="131.8" data-color-action="stroke" style="stroke:inherit" />		</g>		<text transform="matrix(1 0 0 1 6.7033 126.808)" class="aD-cls-15 aD-cls-16">NA</text>	</g></g><g id="aD_bridge_abutment_distal" style="">	<g>		<g>							<ellipse transform="matrix(0.1539 -0.9881 0.9881 0.1539 -106.1107 120.5387)" class="aD-cls-14" cx="17.3" cy="122.2" rx="12.7" ry="12.7" data-color-action="stroke" style="stroke:inherit" />			<line class="aD-cls-14" x1="10.3" y1="112.6" x2="24.3" y2="131.8" data-color-action="stroke" style="stroke:inherit" />		</g>		<text transform="matrix(1 0 0 1 6.7033 126.808)" class="aD-cls-15 aD-cls-16">NA</text>	</g></g><g id="aD_bridge_abutment" style="">	<g>		<g>							<ellipse transform="matrix(0.1539 -0.9881 0.9881 0.1539 -106.1107 120.5387)" class="aD-cls-14" cx="17.3" cy="122.2" rx="12.7" ry="12.7" data-color-action="stroke" style="stroke:inherit" />			<line class="aD-cls-14" x1="10.3" y1="112.6" x2="24.3" y2="131.8" data-color-action="stroke" style="stroke:inherit" />		</g>		<text transform="matrix(1 0 0 1 6.7033 126.808)" class="aD-cls-15 aD-cls-16">NA</text>	</g></g><g id="aD_bridge_pontic" style="">	<g>		<g>							<ellipse transform="matrix(0.1539 -0.9881 0.9881 0.1539 -106.1107 120.5387)" class="aD-cls-14" cx="17.3" cy="122.2" rx="12.7" ry="12.7" data-color-action="stroke" style="stroke:inherit" />			<line class="aD-cls-14" x1="10.3" y1="112.6" x2="24.3" y2="131.8" data-color-action="stroke" style="stroke:inherit" />		</g>		<text transform="matrix(1 0 0 1 6.7033 126.808)" class="aD-cls-15 aD-cls-16">NA</text>	</g></g><g id="aD_implant_mini" style="">	<g>		<g>							<ellipse transform="matrix(0.1539 -0.9881 0.9881 0.1539 -106.1107 120.5387)" class="aD-cls-14" cx="17.3" cy="122.2" rx="12.7" ry="12.7" data-color-action="stroke" style="stroke:inherit" />			<line class="aD-cls-14" x1="10.3" y1="112.6" x2="24.3" y2="131.8" data-color-action="stroke" style="stroke:inherit" />		</g>		<text transform="matrix(1 0 0 1 6.7033 126.808)" class="aD-cls-15 aD-cls-16">NA</text>	</g></g><g id="aD_implant_cylinder" style="">	<g>		<g>							<ellipse transform="matrix(0.1539 -0.9881 0.9881 0.1539 -106.1107 120.5387)" class="aD-cls-14" cx="17.3" cy="122.2" rx="12.7" ry="12.7" data-color-action="stroke" style="stroke:inherit" />			<line class="aD-cls-14" x1="10.3" y1="112.6" x2="24.3" y2="131.8" data-color-action="stroke" style="stroke:inherit" />		</g>		<text transform="matrix(1 0 0 1 6.7033 126.808)" class="aD-cls-15 aD-cls-16">NA</text>	</g></g><g id="aD_implant_blade" style="">	<g>		<g>							<ellipse transform="matrix(0.1539 -0.9881 0.9881 0.1539 -106.1107 120.5387)" class="aD-cls-14" cx="17.3" cy="122.2" rx="12.7" ry="12.7" data-color-action="stroke" style="stroke:inherit" />			<line class="aD-cls-14" x1="10.3" y1="112.6" x2="24.3" y2="131.8" data-color-action="stroke" style="stroke:inherit" />		</g>		<text transform="matrix(1 0 0 1 6.7033 126.808)" class="aD-cls-15 aD-cls-16">NA</text>	</g></g><g id="aD_watch_tooth" style="">	<g>		<path class="aD-cls-13" d="M8.3,27.7c0-1.8,1.4-3.3,3.2-3.3c1.8,0,3.3,1.5,3.3,3.3c0,1.7-1.5,3.2-3.3,3.2C9.7,30.9,8.3,29.5,8.3,27.7z     M9.2,21.8L8.4,3.7h6.2l-0.8,18.1H9.2z" data-color-action="fill" style="fill:inherit" />	</g></g><g id="aD_border" style="">	<rect y="0" class="aD-cls-17" width="59" height="161" /></g></defs></g><g class="cD-cls-1" transform="translate(0 217)"><g id="_Dc">	<g>		<path class="cD-cls-2" d="M41.7,14c1.3,2.8,0,11.4-1.4,16.4c-1.6,5.8-4.6,8.2-9.6,8.3c-5,0.1-9.2-1-10.8-5.4c-1.7-4.8-3.7-16-3-18.8    c0.7-2.8,8.6-3.4,12.3-3.7C32.9,10.6,40.7,12,41.7,14z" />		<g>			<path class="cD-cls-3" d="M41.7,14c1.3,2.8,0,11.4-1.4,16.4c-1.6,5.8-4.6,8.2-9.6,8.3c-5,0.1-9.2-1-10.8-5.4c-1.7-4.8-3.7-16-3-18.8     c0.7-2.8,8.6-3.4,12.3-3.7C32.9,10.6,40.7,12,41.7,14z" />		</g>		<path class="cD-cls-4" d="M41.7,14c-1-2-8.8-3.4-12.5-3.1c-3.6,0.3-11.5,0.8-12.3,3.7c-0.1,0.4-0.1,0.9-0.1,1.6    c1.5-0.5,4.4-1.5,7.4-1.8c4.2-0.5,7.9-0.8,10.6-0.3c1.9,0.4,5.4,1.4,7.3,1.9C42,15.2,41.9,14.5,41.7,14z" />		<path class="cD-cls-5" d="M21.5,30.8c0,0,0.2,2.4,1.7,3.9s5,1.7,7,1.6c2-0.1,4.3-0.7,5.5-2c1.2-1.3,2.6-3.5,2-3.7    c-0.6-0.2-2.4,2.3-3.8,2.7c-1.4,0.4-2.4,1-3.6,0.7c-1.1-0.3-1.8-1.6-3.7-1.2c-1.8,0.3-2.7,0.6-3.5-0.3    C22.4,31.7,22.3,30.4,21.5,30.8z" />	</g></g><defs><g id="cD_lingual_V" style="">	<path class="cD-cls-6" d="M35.3,37.7c-1.3,0.7-2.8,1-4.6,1c-2.8,0.1-5.3-0.3-7.3-1.3c1.6-1.2,3.6-1.9,5.8-1.9   C31.5,35.5,33.7,36.3,35.3,37.7z" data-color-action="fill" style="fill:inherit" /></g><g id="cD_mid_lingual" style="">	<ellipse class="cD-cls-6" cx="29.5" cy="26.3" rx="3.5" ry="5.6" data-color-action="fill" style="fill:inherit" /></g><g id="cD_mesial" style="">	<path class="cD-cls-6" d="M38.3,24.5c-0.4-2.2-0.2-4.3-0.8-5.8l4.6-2.3c0.2,2.8-0.3,7-1.1,10.6C39.8,26.6,38.6,25.9,38.3,24.5z" data-color-action="fill" style="fill:inherit" /></g><g id="cD_line_angle_4" style="">	<path class="cD-cls-6" d="M35.7,16.9c-0.7-0.3-1.6-0.5-2.6-0.7l1.5-5c3.3,0.5,6.5,1.5,7.1,2.8c0.3,0.6,0.4,1.4,0.5,2.4l-4.6,2.3   C37.2,17.9,36.7,17.3,35.7,16.9z" data-color-action="fill" style="fill:inherit" /></g><g id="cD_lingual" style="">	<path class="cD-cls-6" d="M25.2,16L24,11.4c1.9-0.3,3.9-0.4,5.3-0.5c1.4-0.1,3.4,0,5.4,0.3l-1.5,5C30.5,15.8,27.4,15.8,25.2,16z" data-color-action="fill" style="fill:inherit" /></g><g id="cD_line_angle_3" style="">	<path class="cD-cls-6" d="M23.9,16.2c-1.1,0.2-1.7,1.1-2.2,2.2l-4.9-2.8c0-0.4,0.1-0.8,0.1-1.1c0.5-1.8,3.7-2.7,7-3.2l1.3,4.6   C24.7,16.1,24.3,16.1,23.9,16.2z" data-color-action="fill" style="fill:inherit" /></g><g id="cD_distal" style="">	<path class="cD-cls-6" d="M16.8,15.6l4.9,2.8c-0.7,1.6-0.9,3.7-1.1,5.2c-0.2,1.5-1.2,2.4-2.5,3C17.3,22.5,16.7,17.9,16.8,15.6z" data-color-action="fill" style="fill:inherit" /></g><g id="cD_tipped_lingual" style="">	<g>		<path class="cD-cls-7" d="M33,7.5c-1.2-3.2-4.5-3.6-7.2,5c-0.5,1.5-4.2,1.7-3.6,0c1.9-5.7,5-9.6,8.5-8.7C31.9,4.1,33,5.4,33.5,7    C33.3,7.1,33.1,7.4,33,7.5z" data-color-action="fill" style="fill:inherit" />		<polygon class="cD-cls-7" points="31,10.2 18.9,10.2 21.6,19.3   " data-color-action="fill" style="fill:inherit" />	</g></g><g id="cD_tipped_facial" style=""></g><g id="cD_surface_restoration_mesial" style="">	<path class="cD-cls-8" d="M41.7,14c1,2.2,0.4,8.1-0.6,13c-3.1,1.2-5.5,3.6-6.7,6.7c0.5-6.3,0.8-13.7,0.8-15.2l6.3-4.6   C41.6,13.9,41.6,14,41.7,14z" data-color-action="fill" style="fill:inherit" /></g><g id="cD_surface_restoration_lingual" style="">	<g>		<path class="cD-cls-8" d="M25.8,35.8c-0.2-0.8-0.4-1.6-0.7-2.3c-0.5-5.9-0.9-12.8-1.1-14.9c1.3-0.2,3.2-0.4,5.6-0.6l0.2,0    c0.2,0,0.3,0,0.5,0c0,0,0,0,0,0c1.6,0,3.5,0.3,5,0.6c-0.1,1.5-0.4,8.9-0.8,15.2c-0.3,0.7-0.5,1.4-0.6,2.1    c-1.3-0.4-2.6-0.6-4.1-0.6C28.4,35.1,27,35.4,25.8,35.8z" data-color-action="fill" style="fill:inherit" />			</g></g><g id="cD_surface_restoration_lingual_V" style="">	<g>				<path class="cD-cls-8" d="M33.7,38.4c-0.9,0.2-1.9,0.4-2.9,0.4c-1.7,0-3.3-0.1-4.7-0.4c0-0.1,0-0.2,0-0.3c0-0.8-0.1-1.5-0.2-2.3    c1.3-0.4,2.6-0.6,4-0.6c1.4,0,2.8,0.2,4.1,0.6c-0.1,0.6-0.2,1.3-0.2,2C33.6,38,33.6,38.2,33.7,38.4z" data-color-action="fill" style="fill:inherit" />	</g></g><g id="cD_surface_restoration_distal" style="">	<path class="cD-cls-8" d="M25,33.4c-1.3-2.9-3.7-5.2-6.8-6.2c-1.1-5-1.8-10.8-1.3-12.6c0,0,0-0.1,0-0.1l7,4.2C24.2,21,24.5,27.6,25,33.4   z" data-color-action="fill" style="fill:inherit" /></g><g id="cD_surface_restoration_incisal" style="">	<path class="cD-cls-8" d="M29.2,10.9c3.5-0.3,11,1,12.3,3l-6.3,4.6c0,0,0,0,0,0c-1.4-0.3-3.4-0.6-5-0.6c0,0,0,0,0,0c-0.2,0-0.3,0-0.5,0   l-0.2,0c-2.4,0.2-4.3,0.4-5.6,0.6c0,0.1,0,0.1,0,0.2l-7-4.2C17.9,11.7,25.6,11.2,29.2,10.9z" data-color-action="fill" style="fill:inherit" /></g><g id="cD_sub-erupted" style=""></g><g id="cD_rotated_mesial" style=""></g><g id="cD_rotated_distal" style=""></g><g id="cD_root_canal" style=""></g><g id="cD_pins" style=""></g><g id="cD_mesial_drift" style=""></g><g id="cD_distal_drift" style=""></g><g id="cD_crown" style="">	<path class="cD-cls-10" d="M41.7,14c1.3,2.8,0,11.4-1.4,16.4c-1.6,5.8-4.6,8.2-9.6,8.3c-5,0.1-9.2-1-10.8-5.4c-1.7-4.8-3.7-16-3-18.8   c0.7-2.8,8.6-3.4,12.3-3.7C32.9,10.6,40.7,12,41.7,14z" data-color-action="fill" style="fill:inherit" /></g><g id="cD_cracked_surface_mesial" style="">	<polyline class="cD-cls-11" points="39,17.6 42.8,21.4 37.8,21.4 42.8,26.1 37.8,26.1 41.6,30  " data-color-action="stroke" style="stroke:inherit" /></g><g id="cD_cracked_surface_lingual" style="">	<polyline class="cD-cls-11" points="28.2,17.6 32,21.4 27,21.4 32,26.1 27,26.1 30.8,30  " data-color-action="stroke" style="stroke:inherit" /></g><g id="cD_cracked_surface_lingual_V" style="">	<polyline class="cD-cls-11" points="28.2,17.6 32,21.4 27,21.4 32,26.1 27,26.1 30.8,30  " data-color-action="stroke" style="stroke:inherit" /></g><g id="cD_cracked_surface_distal" style="">	<polyline class="cD-cls-11" points="17.3,17.6 21.2,21.4 16.2,21.4 21.2,26.1 16.2,26.1 20,30  " data-color-action="stroke" style="stroke:inherit" /></g><g id="cD_chipped_surface_mesial" style="">	<g>		<line class="cD-cls-11" x1="35.5" y1="19.2" x2="43.8" y2="27.6" data-color-action="stroke" style="stroke:inherit" />		<line class="cD-cls-11" x1="43.8" y1="19.2" x2="35.5" y2="27.6" data-color-action="stroke" style="stroke:inherit" />	</g></g><g id="cD_chipped_surface_lingual" style="">	<g>		<line class="cD-cls-11" x1="25.7" y1="19.2" x2="34" y2="27.6" data-color-action="stroke" style="stroke:inherit" />		<line class="cD-cls-11" x1="34" y1="19.2" x2="25.7" y2="27.6" data-color-action="stroke" style="stroke:inherit" />	</g></g><g id="cD_chipped_surface_lingual_V" style="">	<g>		<line class="cD-cls-11" x1="25.7" y1="19.2" x2="34" y2="27.6" data-color-action="stroke" style="stroke:inherit" />		<line class="cD-cls-11" x1="34" y1="19.2" x2="25.7" y2="27.6" data-color-action="stroke" style="stroke:inherit" />	</g></g><g id="cD_chipped_surface_distal" style="">	<g>		<line class="cD-cls-11" x1="15.7" y1="19.2" x2="24" y2="27.6" data-color-action="stroke" style="stroke:inherit" />		<line class="cD-cls-11" x1="24" y1="19.2" x2="15.7" y2="27.6" data-color-action="stroke" style="stroke:inherit" />	</g></g><g id="cD_abscess" style=""></g><g id="cD_missing_tooth" style="" data-name="missing tooth">	<g>		<path class="cD-cls-2" d="M41.7,14c1.3,2.8,0,11.4-1.4,16.4c-1.6,5.8-4.6,8.2-9.6,8.3c-5,0.1-9.2-1-10.8-5.4c-1.7-4.8-3.7-16-3-18.8    c0.7-2.8,8.6-3.4,12.3-3.7C32.9,10.6,40.7,12,41.7,14z" data-color-action="fill,stroke" style="fill,stroke:inherit" />		<g>			<path class="cD-cls-9" d="M41.7,14c1.3,2.8,0,11.4-1.4,16.4c-1.6,5.8-4.6,8.2-9.6,8.3c-5,0.1-9.2-1-10.8-5.4c-1.7-4.8-3.7-16-3-18.8     c0.7-2.8,8.6-3.4,12.3-3.7C32.9,10.6,40.7,12,41.7,14z" />		</g>		<path class="cD-cls-9" d="M41.7,14c-1-2-8.8-3.4-12.5-3.1c-3.6,0.3-11.5,0.8-12.3,3.7c-0.1,0.4-0.1,0.9-0.1,1.6    c1.5-0.5,4.4-1.5,7.4-1.8c4.2-0.5,7.9-0.8,10.6-0.3c1.9,0.4,5.4,1.4,7.3,1.9C42,15.2,41.9,14.5,41.7,14z" />		<path class="cD-cls-9" d="M21.5,30.8c0,0,0.2,2.4,1.7,3.9s5,1.7,7,1.6c2-0.1,4.3-0.7,5.5-2c1.2-1.3,2.6-3.5,2-3.7    c-0.6-0.2-2.4,2.3-3.8,2.7c-1.4,0.4-2.4,1-3.6,0.7c-1.1-0.3-1.8-1.6-3.7-1.2c-1.8,0.3-2.7,0.6-3.5-0.3    C22.4,31.7,22.3,30.4,21.5,30.8z" />	</g></g><g id="cD_watch_tooth" style=""></g><g id="cD_border" style="">	<rect class="cD-cls-12" width="59" height="66" />	<rect x="0" transform="matrix(-1 -4.488910e-11 4.488910e-11 -1 59 66)" class="cD-cls-12" width="59" height="66" /></g></defs></g></svg>