<svg xmlns="http://www.w3.org/2000/svg" viewBox="0 0 59 283"><defs><style>.a29-cls-1{isolation:isolate}.a29-cls-2,.a29-cls-25{fill:#c5c7c9}.a29-cls-25{stroke:none}.a29-cls-2{stroke:#c5c7c9;stroke-width:5px}.a29-cls-19,.a29-cls-2,.a29-cls-22,.a29-cls-24,.a29-cls-26,.a29-cls-27,.a29-cls-30,.a29-cls-32,.a29-cls-33{stroke-miterlimit:10}.a29-cls-3{fill:#f5d7cf;stroke:none}.a29-cls-4,.a29-cls-5{fill:#f2c6bc;stroke:none}.a29-cls-5{fill:#fae8e3}.a29-cls-6,.a29-cls-7{fill:#eeefef;stroke:none}.a29-cls-7{fill:#e2e3e4}.a29-cls-8,.a29-cls-9{fill:#fbfbfb;stroke:none}.a29-cls-9{font-size:15px;fill:#929497;font-family:ProximaNova-Semibold,Proxima Nova,sans-serif;font-weight:700}.a29-cls-10,.a29-cls-28,.a29-cls-36{fill:#3c3d3d;stroke:none}.a29-cls-10{opacity:.55}.a29-cls-11{fill:#ffd403;stroke:none}.a29-cls-13,.a29-cls-21{fill:#ffef3e;stroke:none}.a29-cls-14,.a29-cls-20{fill:#c52636;stroke:none}.a29-cls-15{fill:none;stroke:none}.a29-cls-19,.a29-cls-22,.a29-cls-24,.a29-cls-26,.a29-cls-27,.a29-cls-30,.a29-cls-32,.a29-cls-33{fill:none}.a29-cls-16,.a29-cls-37{fill:#28418b;stroke:none}.a29-cls-17,.a29-cls-18{fill:#787878;stroke:none}.a29-cls-19,.a29-cls-22,.a29-cls-24,.a29-cls-30,.a29-cls-32,.a29-cls-33{stroke:#c52636}.a29-cls-19,.a29-cls-22,.a29-cls-27{stroke-width:2px}.a29-cls-22{stroke-linecap:round}.a29-cls-23{fill:#fff;stroke:none}.a29-cls-26,.a29-cls-27{stroke:#28418b}.a29-cls-26{stroke-width:3px}.a29-cls-29{opacity:.6}.a29-cls-30{stroke-width:4px}.a29-cls-31{fill:#f05b85;stroke:none}.a29-cls-32,.a29-cls-33{stroke-width:1.25px}.a29-cls-34{fill:#9b9999;stroke:none}.a29-cls-35{fill:#dbdbdc;stroke:none}.b29-cls-1{isolation:isolate}.b29-cls-2{fill:#c5c7c9;stroke:#c5c7c9;stroke-width:5px}.b29-cls-17,.b29-cls-18,.b29-cls-2{stroke-miterlimit:10}.b29-cls-3,.b29-cls-4{fill:#eeefef;stroke:none}.b29-cls-4{fill:#e2e3e4}.b29-cls-5,.b29-cls-6{fill:#e0e0e0;stroke:none}.b29-cls-6{fill:#fcfcfc}.b29-cls-15,.b29-cls-7{fill:#3c3d3d;stroke:none}.b29-cls-7{opacity:.55}.b29-cls-17,.b29-cls-18{fill:none}.b29-cls-8{fill:none;stroke:none}.b29-cls-14,.b29-cls-9{fill:#787878;stroke:none}.b29-cls-10{font-size:33px;fill:#28418b;font-family:ProximaNova-Semibold,Proxima Nova,sans-serif;font-weight:700;stroke:none}.b29-cls-11{fill:#fff;stroke:none}.b29-cls-13{fill:#c52636;stroke:none}.b29-cls-16{fill:#ffef3e;stroke:none}.b29-cls-17,.b29-cls-18{stroke:#c52636;stroke-width:1.25px}.c29-cls-1{isolation:isolate}.c29-cls-16,.c29-cls-2{fill:#c5c7c9;stroke:none}.c29-cls-2{stroke:#c5c7c9;stroke-width:5px}.c29-cls-2,.c29-cls-20,.c29-cls-21{stroke-miterlimit:10}.c29-cls-3{fill:#eeefef;stroke:none}.c29-cls-4,.c29-cls-5{fill:#e2e3e4;stroke:none}.c29-cls-5{fill:#fbfbfb}.c29-cls-17,.c29-cls-6{fill:#3c3d3d;stroke:none}.c29-cls-6{opacity:.55}.c29-cls-20,.c29-cls-21{fill:none}.c29-cls-7,.c29-cls-9{fill:none;stroke:none}.c29-cls-9{fill:#28418b}.c29-cls-10,.c29-cls-11{fill:#787878;stroke:none}.c29-cls-12,.c29-cls-19{fill:#ffef3e;stroke:none}.c29-cls-13{fill:#fff;stroke:none}.c29-cls-14,.c29-cls-15{fill:#c52636;stroke:none}.c29-cls-18{opacity:.6}.c29-cls-20,.c29-cls-21{stroke:#c52636;stroke-width:1.25px}.a29-msng-cls-1{isolation:isolate}.a29-msng-cls-2{fill:#c5c7c9;stroke:#c5c7c9;stroke-width:5px}.a29-msng-cls-11,.a29-msng-cls-2{stroke-miterlimit:10}.a29-msng-cls-3{fill:#f5d7cf;stroke:none}.a29-msng-cls-4{fill:#f2c6bc;stroke:none}.a29-msng-cls-5{fill:#fae8e3;stroke:none}.a29-msng-cls-6{fill:#eeefef;stroke:none}.a29-msng-cls-7{fill:#e2e3e4;stroke:none}.a29-msng-cls-8{fill:#fbfbfb;stroke:none}.a29-msng-cls-9{font-size:15px;fill:#929497;font-family:ProximaNova-Semibold,Proxima Nova;font-weight:700;stroke:none}.a29-msng-cls-11{fill:none}.a29-msng-cls-12{fill:none;stroke:none}.a29-msng-cls-11{stroke:#787878;stroke-width:6.25px}</style></defs><g class="a29-cls-1" transform="translate(0 122)"><g id="_29A" data-name="#29A"><path d="M30 8.09c3.06-.26 14.72 7.91 16.51 10.63s-4 19.11-5.34 22.52a235.92 235.92 0 0 1-1 30.08c-1.48 15.41-8.63 34-10.48 33.41s-1.48-20-2.71-33.9a172.56 172.56 0 0 0-5.1-28.42 1.65 1.65 0 0 1-.82-.63c-1.15-2.31-9.22-21.13-8.84-23.69s14.7-9.75 17.78-10z" class="a29-cls-2"/><path d="M41 38.89c.41 3.2.62 17-.86 32.42s-8.63 34-10.48 33.41-1.48-20-2.71-33.9a166.49 166.49 0 0 0-5.55-30c-.99-3.04 18.24-12.53 19.6-1.93z" class="a29-cls-3"/><path d="M38 70.8c.72-7.53.9-24.38.9-27.78a3.91 3.91 0 0 1 2.16-3.32 220.52 220.52 0 0 1-.94 31.63A107.78 107.78 0 0 1 33.19 99c.61-2.61 1.33-5.94 1.78-8.82.89-5.76 2.33-11.85 3.03-19.38zM21.39 40.87a1.2 1.2 0 0 1 .18-.93c.63-.06 1.3.42 1.74 1.46 1.08 2.51 4.12 19.54 4.84 25.45a119 119 0 0 1 .36 19.36c-.15 1.9-.34 3.56-.51 5.12-.26-6.39-.49-14-1.06-20.51a166.49 166.49 0 0 0-5.55-29.95z" class="a29-cls-4"/><path d="M29.1 42.61c.45 2.95 2 16.65 2.48 27.9.46 11.7-.73 30.68-1.31 30.68s.3-21-.58-31.85a200.33 200.33 0 0 0-4.38-27c-.6-2.65 3.2-3.52 3.79.27z" class="a29-cls-5"/><path d="M41 41.64c.93-2.16 7.3-20.24 5.51-22.92S33.06 7.83 30 8.09s-17.42 7.43-17.8 10 7.67 21.37 8.8 23.68 18.85 2.56 20-.13z" class="a29-cls-6"/><path d="M43.13 17.27a17.61 17.61 0 0 0-2.2-3.44 28.06 28.06 0 0 1 5.58 4.88c1.79 2.7-4.58 20.77-5.51 22.93-.26.61-1.38 1.07-3 1.39.82-2.35 6.42-22.53 5.13-25.76zM12.19 18.08c.14-.93 2.11-2.46 4.72-4.05a5.27 5.27 0 0 0-1.3 2.47c-.18 3 6.18 22.66 7.48 26.32-1.09-.28-1.85-.63-2.06-1-1.16-2.36-9.23-21.18-8.84-23.74z" class="a29-cls-7"/><path d="M25.1 9.77c.31 5.68 1 13.64 1.68 18.84s2.14 12 2.73 14.94c-1.12 0-2.21-.11-3.22-.21C25.48 40 23.71 34.27 23 29.1c-.76-5.64-2.09-12.71-2.54-17.09 1.54-.83 3.19-1.6 4.64-2.24z" class="a29-cls-8"/><text class="a29-cls-9" transform="translate(21 150.74)">79</text></g><defs><g id="a79_bone_graft" data-name="bone graft"><path d="M2 42h55v95.69H2z" class="a29-cls-16" transform="rotate(-180 29.5 89.845)" data-color-action="fill" style="fill:inherit"/><path d="M30 8.09c3.06-.26 14.72 7.91 16.51 10.63s-4 19.11-5.34 22.52a235.92 235.92 0 0 1-1 30.08c-1.48 15.41-8.63 34-10.48 33.41s-1.48-20-2.71-33.9a172.56 172.56 0 0 0-5.1-28.42 1.65 1.65 0 0 1-.82-.63c-1.15-2.31-9.22-21.13-8.84-23.69s14.7-9.75 17.78-10z" class="a29-cls-2"/><path d="M41 38.89c.41 3.2.62 17-.86 32.42s-8.63 34-10.48 33.41-1.48-20-2.71-33.9a166.49 166.49 0 0 0-5.55-30c-.99-3.04 18.24-12.53 19.6-1.93z" class="a29-cls-3"/><path d="M38 70.8c.72-7.53.9-24.38.9-27.78a3.91 3.91 0 0 1 2.16-3.32 220.52 220.52 0 0 1-.94 31.63A107.78 107.78 0 0 1 33.19 99c.61-2.61 1.33-5.94 1.78-8.82.89-5.76 2.33-11.85 3.03-19.38zM21.39 40.87a1.2 1.2 0 0 1 .18-.93c.63-.06 1.3.42 1.74 1.46 1.08 2.51 4.12 19.54 4.84 25.45a119 119 0 0 1 .36 19.36c-.15 1.9-.34 3.56-.51 5.12-.26-6.39-.49-14-1.06-20.51a166.49 166.49 0 0 0-5.55-29.95z" class="a29-cls-4"/><path d="M29.1 42.61c.45 2.95 2 16.65 2.48 27.9.46 11.7-.73 30.68-1.31 30.68s.3-21-.58-31.85a200.33 200.33 0 0 0-4.38-27c-.6-2.65 3.2-3.52 3.79.27z" class="a29-cls-5"/><path d="M41 41.64c.93-2.16 7.3-20.24 5.51-22.92S33.06 7.83 30 8.09s-17.42 7.43-17.8 10 7.67 21.37 8.8 23.68 18.85 2.56 20-.13z" class="a29-cls-6"/><path d="M43.13 17.27a17.61 17.61 0 0 0-2.2-3.44 28.06 28.06 0 0 1 5.58 4.88c1.79 2.7-4.58 20.77-5.51 22.93-.26.61-1.38 1.07-3 1.39.82-2.35 6.42-22.53 5.13-25.76zM12.19 18.08c.14-.93 2.11-2.46 4.72-4.05a5.27 5.27 0 0 0-1.3 2.47c-.18 3 6.18 22.66 7.48 26.32-1.09-.28-1.85-.63-2.06-1-1.16-2.36-9.23-21.18-8.84-23.74z" class="a29-cls-7"/><path d="M25.1 9.77c.31 5.68 1 13.64 1.68 18.84s2.14 12 2.73 14.94c-1.12 0-2.21-.11-3.22-.21C25.48 40 23.71 34.27 23 29.1c-.76-5.64-2.09-12.71-2.54-17.09 1.54-.83 3.19-1.6 4.64-2.24z" class="a29-cls-8"/></g><g id="a79_splinted_crowns" data-name="splinted crowns"><path d="M2 41.42h55v7.67H2z" class="a29-cls-21" data-color-action="fill" style="fill:inherit"/><path d="M30 8.09c3.06-.26 14.72 7.91 16.51 10.63s-4 19.11-5.34 22.52a235.92 235.92 0 0 1-1 30.08c-1.48 15.41-8.63 34-10.48 33.41s-1.48-20-2.71-33.9a172.56 172.56 0 0 0-5.1-28.42 1.65 1.65 0 0 1-.82-.63c-1.15-2.31-9.22-21.13-8.84-23.69s14.7-9.75 17.78-10z" class="a29-cls-2"/><path d="M41 38.89c.41 3.2.62 17-.86 32.42s-8.63 34-10.48 33.41-1.48-20-2.71-33.9a166.49 166.49 0 0 0-5.55-30c-.99-3.04 18.24-12.53 19.6-1.93z" class="a29-cls-3"/><path d="M38 70.8c.72-7.53.9-24.38.9-27.78a3.91 3.91 0 0 1 2.16-3.32 220.52 220.52 0 0 1-.94 31.63A107.78 107.78 0 0 1 33.19 99c.61-2.61 1.33-5.94 1.78-8.82.89-5.76 2.33-11.85 3.03-19.38zM21.39 40.87a1.2 1.2 0 0 1 .18-.93c.63-.06 1.3.42 1.74 1.46 1.08 2.51 4.12 19.54 4.84 25.45a119 119 0 0 1 .36 19.36c-.15 1.9-.34 3.56-.51 5.12-.26-6.39-.49-14-1.06-20.51a166.49 166.49 0 0 0-5.55-29.95z" class="a29-cls-4"/><path d="M29.1 42.61c.45 2.95 2 16.65 2.48 27.9.46 11.7-.73 30.68-1.31 30.68s.3-21-.58-31.85a200.33 200.33 0 0 0-4.38-27c-.6-2.65 3.2-3.52 3.79.27z" class="a29-cls-5"/><path d="M41 41.64c.93-2.16 7.3-20.24 5.51-22.92S33.06 7.83 30 8.09s-17.42 7.43-17.8 10 7.67 21.37 8.8 23.68 18.85 2.56 20-.13z" class="a29-cls-6"/><path d="M43.13 17.27a17.61 17.61 0 0 0-2.2-3.44 28.06 28.06 0 0 1 5.58 4.88c1.79 2.7-4.58 20.77-5.51 22.93-.26.61-1.38 1.07-3 1.39.82-2.35 6.42-22.53 5.13-25.76zM12.19 18.08c.14-.93 2.11-2.46 4.72-4.05a5.27 5.27 0 0 0-1.3 2.47c-.18 3 6.18 22.66 7.48 26.32-1.09-.28-1.85-.63-2.06-1-1.16-2.36-9.23-21.18-8.84-23.74z" class="a29-cls-7"/><path d="M25.1 9.77c.31 5.68 1 13.64 1.68 18.84s2.14 12 2.73 14.94c-1.12 0-2.21-.11-3.22-.21C25.48 40 23.71 34.27 23 29.1c-.76-5.64-2.09-12.71-2.54-17.09 1.54-.83 3.19-1.6 4.64-2.24z" class="a29-cls-8"/></g><path id="a79_buccal_V" d="M23.23 42.85c4.45 1.07 14.16 1 17-.52a16.63 16.63 0 0 0-8.58-2.25 15.94 15.94 0 0 0-8.42 2.77z" class="a29-cls-10" data-color-action="fill" style="fill:inherit" data-name="buccal V"/><ellipse id="a79_buccal" cx="30.5" cy="27.28" class="a29-cls-10" rx="4.69" ry="8.25" data-color-action="fill" style="fill:inherit"/><path id="a79_mesial" d="M46.51 18.72a7.23 7.23 0 0 0-.84-1l-5 2.43c2.45 2.43.57 7.92-.23 10.48-.31 1 .37 2.73 3.34 2.85 1.92-5.93 3.81-13.14 2.73-14.76z" class="a29-cls-10" data-color-action="fill" style="fill:inherit"/><path id="a79_line_angle_2" d="M37 17a32.05 32.05 0 0 1 3.64 3.08l5-2.43A51 51 0 0 0 38.28 12z" class="a29-cls-10" data-color-action="fill" style="fill:inherit" data-name="line angle 2"/><path id="a79_cusp_1" d="M30 8.09c-1.27.11-4.47 1.39-7.81 3l1.43 5.42a20 20 0 0 1 7-1.8A10.47 10.47 0 0 1 37 17l1.24-5C34.9 9.78 31.46 8 30 8.09z" class="a29-cls-10" data-color-action="fill" style="fill:inherit" data-name="cusp 1"/><path id="a79_line_angle_1" d="M12.19 18.08a2.38 2.38 0 0 0 0 .59L19 21.23a5.92 5.92 0 0 1 .44-1.18 8.79 8.79 0 0 1 4.21-3.5l-1.43-5.42c-4.78 2.35-9.81 5.44-10.03 6.95z" class="a29-cls-10" data-color-action="fill" style="fill:inherit" data-name="line angle 1"/><path id="a79_distal" d="M20 30.48c-.72-2.48-1.78-6.43-1-9.25l-6.8-2.56c.29 2.39 2.92 9.22 5.26 14.88 1.79-.37 3.06-1.29 2.54-3.07z" class="a29-cls-10" data-color-action="fill" style="fill:inherit"/><path id="a79_veneer" d="M41 41.64c.93-2.16 7.3-20.24 5.51-22.92S33.06 7.83 30 8.09s-17.42 7.43-17.8 10 7.67 21.37 8.8 23.68 18.85 2.56 20-.13z" class="a29-cls-12 a29-cls-13" data-color-action="fill" style="fill:inherit"/><path id="a79_tissue_graft" d="M48.97 57.34L31.5 43.45 14.03 57.34h34.94z" class="a29-cls-14" data-color-action="fill" style="fill:inherit" data-name="tissue graft"/><path id="a79_tipped_lingual" d="M28 154.75h3v3h-3z" class="a29-cls-15" data-name="tipped lingual"/><g id="a79_tipped_facial" class="a29-cls-12" data-name="tipped facial"><path d="M25.85 5.5c1.26-3.37 4.74-3.85 7.69 5.32.5 1.56 4.42 1.76 3.84 0-2-6.08-5.31-10.2-9.06-9.27a4.86 4.86 0 0 0-3 3.38c.19.17.42.42.53.57z" class="a29-cls-16" data-color-action="fill" style="fill:inherit"/><path d="M27.93 8.42h12.94l-2.94 9.64-10-9.64z" class="a29-cls-16" data-color-action="fill" style="fill:inherit"/></g><path id="a79_surface_restoration_mesial" d="M46.51 18.72c1 1.54-.62 8.1-2.39 13.85a11.52 11.52 0 0 0-6.81 6c1-6.53 2-14.56 2.38-16.79-.6-.52-1.36-1.11-2.2-1.73l4.63-5.26a23 23 0 0 1 4.39 3.93z" class="a29-cls-17" data-color-action="fill" style="fill:inherit" data-name="surface restoration mesial"/><path id="a79_surface_restoration_buccal" d="M25.28 40.59a11.41 11.41 0 0 0-1.48-3.37c-1.47-6.52-3-14.22-3.9-16.83a66.86 66.86 0 0 1 10.1-5.1 55 55 0 0 1 9.65 6.43C39.34 24 38.36 32 37.32 38.51a11.49 11.49 0 0 0-.82 2.29 13.79 13.79 0 0 0-11.22-.21z" class="a29-cls-12 a29-cls-18" data-color-action="fill" style="fill:inherit" data-name="surface restoration buccal"/><path id="a79_surface_restoration_buccal_V" d="M25.65 43.26a11.52 11.52 0 0 0-.38-2.68 13.79 13.79 0 0 1 11.22.21 11.42 11.42 0 0 0-.32 2.51 48.52 48.52 0 0 1-10.52-.04z" class="a29-cls-12 a29-cls-18" data-color-action="fill" style="fill:inherit" data-name="surface restoration buccal V"/><path id="a79_surface_restoration_distal" d="M16.06 14.55l5.21 5c-.49.28-1 .56-1.37.82.88 2.61 2.43 10.31 3.9 16.83a11.5 11.5 0 0 0-6.8-4.84c-2.44-6-5-12.81-4.79-14.28.1-.83 1.67-2.13 3.85-3.53z" class="a29-cls-17" data-color-action="fill" style="fill:inherit" data-name="surface restoration distal"/><path id="a79_surface_restoration_occlusal" d="M30 8.09c2.05-.17 7.93 3.43 12.15 6.64L37.5 20a50.44 50.44 0 0 0-7.5-4.71 66 66 0 0 0-8.78 4.28l-5.21-5C20.64 11.61 27.9 8.26 30 8.09z" class="a29-cls-17" data-color-action="fill" style="fill:inherit" data-name="surface restoration occlusal"/><g id="a79_supra-erupted" class="a29-cls-12"><path d="M31.5 50.12v7.67" class="a29-cls-19" data-color-action="stroke" style="stroke:inherit"/><path d="M27.51 51.28l3.99-6.9 3.99 6.9h-7.98z" class="a29-cls-20" data-color-action="fill" style="fill:inherit"/></g><g id="a79_sub-erupted" class="a29-cls-12"><path d="M31.5 52.05v-7.67" class="a29-cls-19" data-color-action="stroke" style="stroke:inherit"/><path d="M35.49 50.89l-3.99 6.9-3.99-6.9h7.98z" class="a29-cls-20" data-color-action="fill" style="fill:inherit"/></g><path id="a79_sealant" d="M28 154.75h3v3h-3z" class="a29-cls-15"/><g id="a79_rotated_mesial" class="a29-cls-12" data-name="rotated mesial"><path d="M5.87 32.82C2.88 31 3.56 27.36 16.1 27c5.3-.15 8.95 0 8.95 0L25 24s-1-.07-8.22.24c-7.62.32-14 1.83-13.75 6a4 4 0 0 0 2.31 2.92c.15-.16.4-.27.53-.34z" class="a29-cls-16" data-color-action="fill" style="fill:inherit"/><path d="M18.57 31.53V19.64l10.4 5.9-10.4 5.99z" class="a29-cls-16" data-color-action="fill" style="fill:inherit"/></g><g id="a79_rotated_distal" class="a29-cls-12" data-name="rotated distal"><path d="M53.13 32.82c3-1.79 2.3-5.46-10.23-5.81-5.3-.15-8.95 0-8.95 0L34 24s1-.07 8.22.24c7.62.32 14 1.83 13.75 6a4 4 0 0 1-2.31 2.92c-.15-.16-.4-.27-.53-.34z" class="a29-cls-16" data-color-action="fill" style="fill:inherit"/><path d="M40.43 31.53V19.64l-10.4 5.9 10.4 5.99z" class="a29-cls-16" data-color-action="fill" style="fill:inherit"/></g><circle id="a79_root_decay" cx="32.83" cy="84.33" r="4.33" class="a29-cls-12 a29-cls-18" data-color-action="fill" style="fill:inherit" data-name="root decay"/><path id="a79_root_canal" d="M30.67 100.5L32 46.17" class="a29-cls-22" data-color-action="stroke" style="stroke:inherit" data-name="root canal"/><path id="a79_root_abrasion" d="M30.92 76.67h3.5V90.5h-3.5z" class="a29-cls-12 a29-cls-24" data-color-action="stroke" style="stroke:inherit" data-name="root abrasion"/><g id="a79_post"><path d="M29.5 30.84h3.14v41.77H29.5z" class="a29-cls-18" data-color-action="fill" style="fill:inherit"/><path d="M30.37 30.84h.47v41.77h-.47z" class="a29-cls-25"/></g><g id="a79_pins"><path d="M27.33 35.84h2.42v23.43h-2.42z" class="a29-cls-18" data-color-action="fill" style="fill:inherit"/><path d="M27.99 35.84h.36v23.43h-.36z" class="a29-cls-25"/><path d="M31.91 35.84h2.42v23.43h-2.42z" class="a29-cls-18" data-color-action="fill" style="fill:inherit"/><path d="M32.57 35.84h.36v23.43h-.36z" class="a29-cls-25"/></g><path id="a79_open_contact_mesial" d="M33.69 51l7.5-4.75 7.5 4.75" class="a29-cls-26" data-color-action="stroke" style="stroke:inherit" data-name="open contact mesial"/><path id="a79_open_contact_distal" d="M13.68 51l7.49-4.75 7.5 4.75" class="a29-cls-26" data-color-action="stroke" style="stroke:inherit" data-name="open contact distal"/><g id="a79_mesial_drift" class="a29-cls-12" data-name="mesial drift"><path d="M32.59 27.84H20.67" class="a29-cls-27" data-color-action="stroke" style="stroke:inherit"/><path d="M31.43 23.85l6.9 3.99-6.9 3.98v-7.97z" class="a29-cls-16" data-color-action="fill" style="fill:inherit"/></g><path id="a79_lingual_abfraction" d="M28 154.75h3v3h-3z" class="a29-cls-15" data-name="lingual abfraction"/><ellipse id="a79_internal_root_resorption" cx="32" cy="84.17" class="a29-cls-12 a29-cls-20" rx="8.27" ry="3.34" transform="rotate(-85.2 31.999 84.166)" data-color-action="fill" style="fill:inherit" data-name="internal root resorption"/><g id="a79_impacted_mesial" class="a29-cls-12" data-name="impacted mesial"><ellipse cx="29.5" cy="59.7" class="a29-cls-27" rx="24.15" ry="58.3" data-color-action="stroke" style="stroke:inherit"/><path d="M18.09 59.7H5.33" class="a29-cls-27" data-color-action="stroke" style="stroke:inherit"/><path d="M16.93 55.71l6.9 3.99-6.9 3.99v-7.98z" class="a29-cls-16" data-color-action="fill" style="fill:inherit"/></g><g id="a79_impacted_distal" class="a29-cls-12" data-name="impacted distal"><ellipse cx="29.49" cy="59.7" class="a29-cls-27" rx="24.15" ry="58.3" data-color-action="stroke" style="stroke:inherit"/><path d="M40.89 59.7h12.76" class="a29-cls-27" data-color-action="stroke" style="stroke:inherit"/><path d="M42.06 63.69l-6.91-3.99 6.91-3.99v7.98z" class="a29-cls-16" data-color-action="fill" style="fill:inherit"/></g><path id="a79_gortex_membranes" d="M2 40.75h55v16.42H2z" class="a29-cls-14" data-color-action="fill" style="fill:inherit" data-name="gortex membranes"/><path id="a79_frenum_pull" d="M21.51 45.41l10.66 6.75 10.65-6.75" class="a29-cls-30" data-color-action="stroke" style="stroke:inherit" data-name="frenum pull"/><path id="a79_external_root_resorption" d="M26.58 67.3q.2 1.75.36 3.53c.37 4.19.6 8.86.78 13.37 1.59-1 3.9-3.4 3.48-8.58-.4-5.01-2.89-7.31-4.62-8.32zm8.88 9.2a10.65 10.65 0 0 0 2.35 8 94.2 94.2 0 0 0 2.33-13.16q.11-1.11.2-2.2a9.31 9.31 0 0 0-4.88 7.35z" class="a29-cls-12 a29-cls-20" data-color-action="fill" style="fill:inherit" data-name="external root resorption"/><g id="a79_distal_drift" class="a29-cls-12" data-name="distal drift"><path d="M26.41 27.84h11.92" class="a29-cls-27" data-color-action="stroke" style="stroke:inherit"/><path d="M27.57 31.82l-6.9-3.98 6.9-3.99v7.97z" class="a29-cls-16" data-color-action="fill" style="fill:inherit"/></g><path id="a79_three_quarter_crown" d="M45.48 27.83c1.1-4.2 1.78-8 1-9.12C44.72 16 33.06 7.83 30 8.09s-17.42 7.43-17.8 10c-.17 1.1 1.24 5.23 3 9.76z" class="a29-cls-12 a29-cls-13" data-color-action="fill" style="fill:inherit" data-name="three quarter crown"/><path id="a79_crown" d="M41 41.64c.93-2.16 7.3-20.24 5.51-22.92S33.06 7.83 30 8.09s-17.42 7.43-17.8 10 7.67 21.37 8.8 23.68 18.85 2.56 20-.13z" class="a29-cls-12 a29-cls-13" data-color-action="fill" style="fill:inherit"/><path id="a79_cracked_surface_distal" d="M17.66 32.17l-3.83-3.83h5.01l-5.01-4.74h5.01l-3.83-3.83" class="a29-cls-32" data-color-action="stroke" style="stroke:inherit" data-name="cracked surface distal"/><path id="a79_cracked_surface_buccal" d="M30.83 32.17L27 28.34h5l-5-4.74h5l-3.83-3.83" class="a29-cls-32" data-color-action="stroke" style="stroke:inherit" data-name="cracked surface buccal"/><path id="a79_cracked_surface_buccal_V" d="M30.83 32.17L27 28.34h5l-5-4.74h5l-3.83-3.83" class="a29-cls-32" data-color-action="stroke" style="stroke:inherit" data-name="cracked surface buccal V"/><path id="a79_cracked_surface_mesial" d="M44.66 32.17l-3.83-3.83h5l-5-4.74h5L42 19.77" class="a29-cls-32" data-color-action="stroke" style="stroke:inherit" data-name="cracked surface mesial"/><g id="a79_chipped_surface_distal" class="a29-cls-12" data-name="chipped surface distal"><path d="M21.17 30.5l-8.33-8.33M12.84 30.5l8.33-8.33" class="a29-cls-33" data-color-action="stroke" style="stroke:inherit"/></g><g id="a79_chipped_surface_buccal" class="a29-cls-12" data-name="chipped surface buccal"><path d="M33.33 30.5L25 22.17M25 30.5l8.33-8.33" class="a29-cls-33" data-color-action="stroke" style="stroke:inherit"/></g><g id="a79_chipped_surface_buccal_V" class="a29-cls-12" data-name="chipped surface buccal V"><path d="M33.33 30.5L25 22.17M25 30.5l8.33-8.33" class="a29-cls-33" data-color-action="stroke" style="stroke:inherit"/></g><g id="a79_chipped_surface_mesial" class="a29-cls-12" data-name="chipped surface mesial"><path d="M46.33 30.5L38 22.17M38 30.5l8.33-8.33" class="a29-cls-33" data-color-action="stroke" style="stroke:inherit"/></g><path id="a79_buccal_abfraction" d="M43.11 43.42A20.1 20.1 0 0 0 32 39.5a20.1 20.1 0 0 0-11.11 3.92A20.1 20.1 0 0 0 32 47.34a20.1 20.1 0 0 0 11.11-3.92z" class="a29-cls-14" data-color-action="fill" style="fill:inherit" data-name="buccal abfraction"/><g id="a79_braces"><path d="M22.59 17.84h13.45v18.19H22.59z" class="a29-cls-25"/><path d="M22.59 17.84h13.45v.68H22.59zM22.59 25.43h13.45v1.36H22.59z" class="a29-cls-34" data-color-action="fill" style="fill:inherit"/><path d="M22.59 35.14h13.45v.89H22.59z" class="a29-cls-35" data-color-action="fill" style="fill:inherit"/><rect width="4.11" height="7.94" x="22.3" y="28.07" class="a29-cls-28" rx=".49" ry=".49" data-color-action="fill" style="fill:inherit"/><path d="M25.92 36h-3.13a.49.49 0 0 1-.49-.49v-5.83a13.14 13.14 0 0 1 4.11 0v5.83a.49.49 0 0 1-.49.49z" class="a29-cls-18" data-color-action="fill" style="fill:inherit"/><path d="M26.08 34.6v1.11a.16.16 0 0 1-.16.16h-3.13a.16.16 0 0 1-.16-.16V34.6z" class="a29-cls-25"/><rect width="4.11" height="7.94" x="32.22" y="28.07" class="a29-cls-28" rx=".49" ry=".49" data-color-action="fill" style="fill:inherit"/><path d="M35.84 36h-3.13a.49.49 0 0 1-.49-.49v-5.83a13.14 13.14 0 0 1 4.11 0v5.83a.49.49 0 0 1-.49.49z" class="a29-cls-18" data-color-action="fill" style="fill:inherit"/><path d="M36 34.6v1.11a.16.16 0 0 1-.16.16h-3.13a.16.16 0 0 1-.16-.16V34.6z" class="a29-cls-25"/><rect width="4.11" height="7.94" x="22.3" y="17.79" class="a29-cls-28" rx=".49" ry=".49" data-color-action="fill" style="fill:inherit"/><path d="M25.92 25.72h-3.13a.49.49 0 0 1-.49-.49V19.4a13.14 13.14 0 0 1 4.11 0v5.83a.49.49 0 0 1-.49.49z" class="a29-cls-18" data-color-action="fill" style="fill:inherit"/><path d="M26.08 24.32v1.11a.16.16 0 0 1-.16.16h-3.13a.16.16 0 0 1-.16-.16v-1.11z" class="a29-cls-25"/><rect width="4.11" height="7.94" x="32.22" y="17.79" class="a29-cls-28" rx=".49" ry=".49" data-color-action="fill" style="fill:inherit"/><path d="M35.84 25.72h-3.13a.49.49 0 0 1-.49-.49V19.4a13.14 13.14 0 0 1 4.11 0v5.83a.49.49 0 0 1-.49.49z" class="a29-cls-18" data-color-action="fill" style="fill:inherit"/><path d="M36 24.32v1.11a.16.16 0 0 1-.16.16h-3.13a.16.16 0 0 1-.16-.16v-1.11z" class="a29-cls-25"/><path d="M8.21 26.17h42.21v1.45H8.21z" class="a29-cls-18" data-color-action="fill" style="fill:inherit"/><path d="M8.21 26.17h42.21v.25H8.21z" class="a29-cls-28" data-color-action="fill" style="fill:inherit"/><path d="M8.21 27.02h42.21v.4H8.21z" class="a29-cls-25"/></g><path id="a79_apicoectomy" d="M36.84 122.85l-7.34-11.67-7.34 11.67h14.68z" class="a29-cls-17" data-color-action="fill" style="fill:inherit"/><circle id="a79_abscess" cx="29.5" cy="118.35" r="6.5" class="a29-cls-37" data-color-action="fill" style="fill:inherit"/><g id="a79_blunted_roots" data-name="blunted roots"><path d="M2 71h55v68H2z" class="a29-cls-23"/><path d="M2 68.92h55v2H2z" class="a29-cls-36" data-color-action="fill" style="fill:inherit"/></g><path id="a79_root_amputation" d="M2 43.74h55v95.59H2z" class="a29-cls-23" data-name="root amputation"/><path id="a79_missing_crown" d="M2 1.83h55v41.86H2z" class="a29-cls-23" data-name="missing crown"/><g id="a79_missing_tooth" data-name="missing tooth"><path d="M30 8.09c3.06-.26 14.72 7.91 16.51 10.63s-4 19.11-5.34 22.52a235.92 235.92 0 0 1-1 30.08c-1.48 15.41-8.63 34-10.48 33.41s-1.48-20-2.71-33.9a172.56 172.56 0 0 0-5.1-28.42 1.65 1.65 0 0 1-.82-.63c-1.15-2.31-9.22-21.13-8.84-23.69s14.7-9.75 17.78-10z" class="a29-cls-2"/><path d="M41 38.89c.41 3.2.62 17-.86 32.42s-8.63 34-10.48 33.41-1.48-20-2.71-33.9a166.49 166.49 0 0 0-5.55-30c-.99-3.04 18.24-12.53 19.6-1.93z" class="a29-cls-23"/><path d="M38 70.8c.72-7.53.9-24.38.9-27.78a3.91 3.91 0 0 1 2.16-3.32 220.52 220.52 0 0 1-.94 31.63A107.78 107.78 0 0 1 33.19 99c.61-2.61 1.33-5.94 1.78-8.82.89-5.76 2.33-11.85 3.03-19.38zM21.39 40.87a1.2 1.2 0 0 1 .18-.93c.63-.06 1.3.42 1.74 1.46 1.08 2.51 4.12 19.54 4.84 25.45a119 119 0 0 1 .36 19.36c-.15 1.9-.34 3.56-.51 5.12-.26-6.39-.49-14-1.06-20.51a166.49 166.49 0 0 0-5.55-29.95z" class="a29-cls-23"/><path d="M29.1 42.61c.45 2.95 2 16.65 2.48 27.9.46 11.7-.73 30.68-1.31 30.68s.3-21-.58-31.85a200.33 200.33 0 0 0-4.38-27c-.6-2.65 3.2-3.52 3.79.27z" class="a29-cls-23"/><path d="M41 41.64c.93-2.16 7.3-20.24 5.51-22.92S33.06 7.83 30 8.09s-17.42 7.43-17.8 10 7.67 21.37 8.8 23.68 18.85 2.56 20-.13z" class="a29-cls-23"/><path d="M43.13 17.27a17.61 17.61 0 0 0-2.2-3.44 28.06 28.06 0 0 1 5.58 4.88c1.79 2.7-4.58 20.77-5.51 22.93-.26.61-1.38 1.07-3 1.39.82-2.35 6.42-22.53 5.13-25.76zM12.19 18.08c.14-.93 2.11-2.46 4.72-4.05a5.27 5.27 0 0 0-1.3 2.47c-.18 3 6.18 22.66 7.48 26.32-1.09-.28-1.85-.63-2.06-1-1.16-2.36-9.23-21.18-8.84-23.74zM25.1 9.77c.31 5.68 1 13.64 1.68 18.84s2.14 12 2.73 14.94c-1.12 0-2.21-.11-3.22-.21C25.48 40 23.71 34.27 23 29.1c-.76-5.64-2.09-12.71-2.54-17.09 1.54-.83 3.19-1.6 4.64-2.24z" class="a29-cls-23"/></g><g id="a79_extracted_tooth" class="a29-msng-cls-10" data-name="extracted tooth"><path d="M9 10.51l41.67 41.66M50.67 10.51L9 52.17" class="a29-msng-cls-11" data-color-action="stroke" style="stroke:inherit"/></g><g id="a79_denture"><path d="M2 2.83h55v135.01H2z" class="a29-cls-23" transform="rotate(-180 29.5 70.34)"/><path d="M57 60.78A22.63 22.63 0 0 1 44.78 64c-7.64 0-10-3.22-15.79-3.22S19.15 64 13.2 64A24.26 24.26 0 0 1 2 60.78V2.83h55z" class="a29-cls-31" data-color-action="fill" style="fill:inherit"/><path d="M41 41.64c.93-2.16 7.3-20.24 5.51-22.92S33.06 7.83 30 8.09s-17.42 7.43-17.8 10 7.67 21.37 8.8 23.68 18.85 2.56 20-.13z" class="a29-cls-2"/><path d="M41 41.64c.93-2.16 7.3-20.24 5.51-22.92S33.06 7.83 30 8.09s-17.42 7.43-17.8 10 7.67 21.37 8.8 23.68 18.85 2.56 20-.13z" class="a29-cls-6"/><path d="M43.13 17.27a17.61 17.61 0 0 0-2.2-3.44 28.06 28.06 0 0 1 5.58 4.88c1.79 2.7-4.58 20.77-5.51 22.93-.26.61-1.38 1.07-3 1.39.82-2.35 6.42-22.53 5.13-25.76zM12.19 18.08c.14-.93 2.11-2.46 4.72-4.05a5.27 5.27 0 0 0-1.3 2.47c-.18 3 6.18 22.66 7.48 26.32-1.09-.28-1.85-.63-2.06-1-1.16-2.36-9.23-21.18-8.84-23.74z" class="a29-cls-7"/><path d="M25.1 9.77c.31 5.68 1 13.64 1.68 18.84s2.14 12 2.73 14.94c-1.12 0-2.21-.11-3.22-.21C25.48 40 23.71 34.27 23 29.1c-.76-5.64-2.09-12.71-2.54-17.09 1.54-.83 3.19-1.6 4.64-2.24z" class="a29-cls-8"/></g><g id="a79_maryland_bridge_pontic" class="a29-cls-12" data-name="maryland bridge pontic"><path d="M41 41.64c.93-2.16 7.3-20.24 5.51-22.92S33.06 7.83 30 8.09s-17.42 7.43-17.8 10 7.67 21.37 8.8 23.68 18.85 2.56 20-.13z" class="a29-cls-20" data-color-action="fill" style="fill:inherit"/><path d="M2 22h55v7.67H2z" class="a29-cls-20" data-color-action="fill" style="fill:inherit"/></g><g id="a79_maryland_bridge_abutment_mesial" data-name="maryland bridge abutment mesial"><path d="M22.02 22H57v7.67H22.02z" class="a29-cls-12 a29-cls-20" data-color-action="fill" style="fill:inherit"/><path d="M30 8.09c3.06-.26 14.72 7.91 16.51 10.63s-4 19.11-5.34 22.52a235.92 235.92 0 0 1-1 30.08c-1.48 15.41-8.63 34-10.48 33.41s-1.48-20-2.71-33.9a172.56 172.56 0 0 0-5.1-28.42 1.65 1.65 0 0 1-.82-.63c-1.15-2.31-9.22-21.13-8.84-23.69s14.7-9.75 17.78-10z" class="a29-cls-2"/><path d="M41 38.89c.41 3.2.62 17-.86 32.42s-8.63 34-10.48 33.41-1.48-20-2.71-33.9a166.49 166.49 0 0 0-5.55-30c-.99-3.04 18.24-12.53 19.6-1.93z" class="a29-cls-3"/><path d="M38 70.8c.72-7.53.9-24.38.9-27.78a3.91 3.91 0 0 1 2.16-3.32 220.52 220.52 0 0 1-.94 31.63A107.78 107.78 0 0 1 33.19 99c.61-2.61 1.33-5.94 1.78-8.82.89-5.76 2.33-11.85 3.03-19.38zM21.39 40.87a1.2 1.2 0 0 1 .18-.93c.63-.06 1.3.42 1.74 1.46 1.08 2.51 4.12 19.54 4.84 25.45a119 119 0 0 1 .36 19.36c-.15 1.9-.34 3.56-.51 5.12-.26-6.39-.49-14-1.06-20.51a166.49 166.49 0 0 0-5.55-29.95z" class="a29-cls-4"/><path d="M29.1 42.61c.45 2.95 2 16.65 2.48 27.9.46 11.7-.73 30.68-1.31 30.68s.3-21-.58-31.85a200.33 200.33 0 0 0-4.38-27c-.6-2.65 3.2-3.52 3.79.27z" class="a29-cls-5"/><path d="M41 41.64c.93-2.16 7.3-20.24 5.51-22.92S33.06 7.83 30 8.09s-17.42 7.43-17.8 10 7.67 21.37 8.8 23.68 18.85 2.56 20-.13z" class="a29-cls-6"/><path d="M43.13 17.27a17.61 17.61 0 0 0-2.2-3.44 28.06 28.06 0 0 1 5.58 4.88c1.79 2.7-4.58 20.77-5.51 22.93-.26.61-1.38 1.07-3 1.39.82-2.35 6.42-22.53 5.13-25.76zM12.19 18.08c.14-.93 2.11-2.46 4.72-4.05a5.27 5.27 0 0 0-1.3 2.47c-.18 3 6.18 22.66 7.48 26.32-1.09-.28-1.85-.63-2.06-1-1.16-2.36-9.23-21.18-8.84-23.74z" class="a29-cls-7"/><path d="M25.1 9.77c.31 5.68 1 13.64 1.68 18.84s2.14 12 2.73 14.94c-1.12 0-2.21-.11-3.22-.21C25.48 40 23.71 34.27 23 29.1c-.76-5.64-2.09-12.71-2.54-17.09 1.54-.83 3.19-1.6 4.64-2.24z" class="a29-cls-8"/></g><g id="a79_maryland_bridge_abutment_distal" data-name="maryland bridge abutment distal"><path d="M2 22h34.98v7.67H2z" class="a29-cls-12 a29-cls-20" data-color-action="fill" style="fill:inherit"/><path d="M30 8.09c3.06-.26 14.72 7.91 16.51 10.63s-4 19.11-5.34 22.52a235.92 235.92 0 0 1-1 30.08c-1.48 15.41-8.63 34-10.48 33.41s-1.48-20-2.71-33.9a172.56 172.56 0 0 0-5.1-28.42 1.65 1.65 0 0 1-.82-.63c-1.15-2.31-9.22-21.13-8.84-23.69s14.7-9.75 17.78-10z" class="a29-cls-2"/><path d="M41 38.89c.41 3.2.62 17-.86 32.42s-8.63 34-10.48 33.41-1.48-20-2.71-33.9a166.49 166.49 0 0 0-5.55-30c-.99-3.04 18.24-12.53 19.6-1.93z" class="a29-cls-3"/><path d="M38 70.8c.72-7.53.9-24.38.9-27.78a3.91 3.91 0 0 1 2.16-3.32 220.52 220.52 0 0 1-.94 31.63A107.78 107.78 0 0 1 33.19 99c.61-2.61 1.33-5.94 1.78-8.82.89-5.76 2.33-11.85 3.03-19.38zM21.39 40.87a1.2 1.2 0 0 1 .18-.93c.63-.06 1.3.42 1.74 1.46 1.08 2.51 4.12 19.54 4.84 25.45a119 119 0 0 1 .36 19.36c-.15 1.9-.34 3.56-.51 5.12-.26-6.39-.49-14-1.06-20.51a166.49 166.49 0 0 0-5.55-29.95z" class="a29-cls-4"/><path d="M29.1 42.61c.45 2.95 2 16.65 2.48 27.9.46 11.7-.73 30.68-1.31 30.68s.3-21-.58-31.85a200.33 200.33 0 0 0-4.38-27c-.6-2.65 3.2-3.52 3.79.27z" class="a29-cls-5"/><path d="M41 41.64c.93-2.16 7.3-20.24 5.51-22.92S33.06 7.83 30 8.09s-17.42 7.43-17.8 10 7.67 21.37 8.8 23.68 18.85 2.56 20-.13z" class="a29-cls-6"/><path d="M43.13 17.27a17.61 17.61 0 0 0-2.2-3.44 28.06 28.06 0 0 1 5.58 4.88c1.79 2.7-4.58 20.77-5.51 22.93-.26.61-1.38 1.07-3 1.39.82-2.35 6.42-22.53 5.13-25.76zM12.19 18.08c.14-.93 2.11-2.46 4.72-4.05a5.27 5.27 0 0 0-1.3 2.47c-.18 3 6.18 22.66 7.48 26.32-1.09-.28-1.85-.63-2.06-1-1.16-2.36-9.23-21.18-8.84-23.74z" class="a29-cls-7"/><path d="M25.1 9.77c.31 5.68 1 13.64 1.68 18.84s2.14 12 2.73 14.94c-1.12 0-2.21-.11-3.22-.21C25.48 40 23.71 34.27 23 29.1c-.76-5.64-2.09-12.71-2.54-17.09 1.54-.83 3.19-1.6 4.64-2.24z" class="a29-cls-8"/></g><g id="a79_maryland_bridge_abutment" data-name="maryland bridge abutment"><path d="M2 22h55v7.67H2z" class="a29-cls-12 a29-cls-20" data-color-action="fill" style="fill:inherit"/><path d="M30 8.09c3.06-.26 14.72 7.91 16.51 10.63s-4 19.11-5.34 22.52a235.92 235.92 0 0 1-1 30.08c-1.48 15.41-8.63 34-10.48 33.41s-1.48-20-2.71-33.9a172.56 172.56 0 0 0-5.1-28.42 1.65 1.65 0 0 1-.82-.63c-1.15-2.31-9.22-21.13-8.84-23.69s14.7-9.75 17.78-10z" class="a29-cls-2"/><path d="M41 38.89c.41 3.2.62 17-.86 32.42s-8.63 34-10.48 33.41-1.48-20-2.71-33.9a166.49 166.49 0 0 0-5.55-30c-.99-3.04 18.24-12.53 19.6-1.93z" class="a29-cls-3"/><path d="M38 70.8c.72-7.53.9-24.38.9-27.78a3.91 3.91 0 0 1 2.16-3.32 220.52 220.52 0 0 1-.94 31.63A107.78 107.78 0 0 1 33.19 99c.61-2.61 1.33-5.94 1.78-8.82.89-5.76 2.33-11.85 3.03-19.38zM21.39 40.87a1.2 1.2 0 0 1 .18-.93c.63-.06 1.3.42 1.74 1.46 1.08 2.51 4.12 19.54 4.84 25.45a119 119 0 0 1 .36 19.36c-.15 1.9-.34 3.56-.51 5.12-.26-6.39-.49-14-1.06-20.51a166.49 166.49 0 0 0-5.55-29.95z" class="a29-cls-4"/><path d="M29.1 42.61c.45 2.95 2 16.65 2.48 27.9.46 11.7-.73 30.68-1.31 30.68s.3-21-.58-31.85a200.33 200.33 0 0 0-4.38-27c-.6-2.65 3.2-3.52 3.79.27z" class="a29-cls-5"/><path d="M41 41.64c.93-2.16 7.3-20.24 5.51-22.92S33.06 7.83 30 8.09s-17.42 7.43-17.8 10 7.67 21.37 8.8 23.68 18.85 2.56 20-.13z" class="a29-cls-6"/><path d="M43.13 17.27a17.61 17.61 0 0 0-2.2-3.44 28.06 28.06 0 0 1 5.58 4.88c1.79 2.7-4.58 20.77-5.51 22.93-.26.61-1.38 1.07-3 1.39.82-2.35 6.42-22.53 5.13-25.76zM12.19 18.08c.14-.93 2.11-2.46 4.72-4.05a5.27 5.27 0 0 0-1.3 2.47c-.18 3 6.18 22.66 7.48 26.32-1.09-.28-1.85-.63-2.06-1-1.16-2.36-9.23-21.18-8.84-23.74z" class="a29-cls-7"/><path d="M25.1 9.77c.31 5.68 1 13.64 1.68 18.84s2.14 12 2.73 14.94c-1.12 0-2.21-.11-3.22-.21C25.48 40 23.71 34.27 23 29.1c-.76-5.64-2.09-12.71-2.54-17.09 1.54-.83 3.19-1.6 4.64-2.24z" class="a29-cls-8"/></g><g id="a79_bridge_abutment_mesial" class="a29-cls-12" data-name="bridge abutment mesial"><path d="M22.02 22H57v7.67H22.02z" class="a29-cls-18" data-color-action="fill" style="fill:inherit"/><path d="M41 41.64c.93-2.16 7.3-20.24 5.51-22.92S33.06 7.83 30 8.09s-17.42 7.43-17.8 10 7.67 21.37 8.8 23.68 18.85 2.56 20-.13z" class="a29-cls-18" data-color-action="fill" style="fill:inherit"/></g><g id="a79_bridge_abutment_distal" class="a29-cls-12" data-name="bridge abutment distal"><path d="M2 22h34.98v7.67H2z" class="a29-cls-18" data-color-action="fill" style="fill:inherit"/><path d="M41 41.64c.93-2.16 7.3-20.24 5.51-22.92S33.06 7.83 30 8.09s-17.42 7.43-17.8 10 7.67 21.37 8.8 23.68 18.85 2.56 20-.13z" class="a29-cls-18" data-color-action="fill" style="fill:inherit"/></g><g id="a79_bridge_abutment" class="a29-cls-12" data-name="bridge abutment"><path d="M2 22h55v7.67H2z" class="a29-cls-18" data-color-action="fill" style="fill:inherit"/><path d="M41 41.64c.93-2.16 7.3-20.24 5.51-22.92S33.06 7.83 30 8.09s-17.42 7.43-17.8 10 7.67 21.37 8.8 23.68 18.85 2.56 20-.13z" class="a29-cls-18" data-color-action="fill" style="fill:inherit"/></g><g id="a79_bridge_pontic" data-name="bridge pontic"><path d="M30 8.09c3.06-.26 14.72 7.91 16.51 10.63s-4 19.11-5.34 22.52a235.92 235.92 0 0 1-1 30.08c-1.48 15.41-8.63 34-10.48 33.41s-1.48-20-2.71-33.9a172.56 172.56 0 0 0-5.1-28.42 1.65 1.65 0 0 1-.82-.63c-1.15-2.31-9.22-21.13-8.84-23.69s14.7-9.75 17.78-10z" class="a29-cls-2"/><path d="M41 38.89c.41 3.2.62 17-.86 32.42s-8.63 34-10.48 33.41-1.48-20-2.71-33.9a166.49 166.49 0 0 0-5.55-30c-.99-3.04 18.24-12.53 19.6-1.93z" class="a29-cls-23"/><path d="M38 70.8c.72-7.53.9-24.38.9-27.78a3.91 3.91 0 0 1 2.16-3.32 220.52 220.52 0 0 1-.94 31.63A107.78 107.78 0 0 1 33.19 99c.61-2.61 1.33-5.94 1.78-8.82.89-5.76 2.33-11.85 3.03-19.38zM21.39 40.87a1.2 1.2 0 0 1 .18-.93c.63-.06 1.3.42 1.74 1.46 1.08 2.51 4.12 19.54 4.84 25.45a119 119 0 0 1 .36 19.36c-.15 1.9-.34 3.56-.51 5.12-.26-6.39-.49-14-1.06-20.51a166.49 166.49 0 0 0-5.55-29.95z" class="a29-cls-23"/><path d="M29.1 42.61c.45 2.95 2 16.65 2.48 27.9.46 11.7-.73 30.68-1.31 30.68s.3-21-.58-31.85a200.33 200.33 0 0 0-4.38-27c-.6-2.65 3.2-3.52 3.79.27z" class="a29-cls-23"/><path d="M41 41.64c.93-2.16 7.3-20.24 5.51-22.92S33.06 7.83 30 8.09s-17.42 7.43-17.8 10 7.67 21.37 8.8 23.68 18.85 2.56 20-.13z" class="a29-cls-6"/><path d="M43.13 17.27a17.61 17.61 0 0 0-2.2-3.44 28.06 28.06 0 0 1 5.58 4.88c1.79 2.7-4.58 20.77-5.51 22.93-.26.61-1.38 1.07-3 1.39.82-2.35 6.42-22.53 5.13-25.76zM12.19 18.08c.14-.93 2.11-2.46 4.72-4.05a5.27 5.27 0 0 0-1.3 2.47c-.18 3 6.18 22.66 7.48 26.32-1.09-.28-1.85-.63-2.06-1-1.16-2.36-9.23-21.18-8.84-23.74z" class="a29-cls-7"/><path d="M25.1 9.77c.31 5.68 1 13.64 1.68 18.84s2.14 12 2.73 14.94c-1.12 0-2.21-.11-3.22-.21C25.48 40 23.71 34.27 23 29.1c-.76-5.64-2.09-12.71-2.54-17.09 1.54-.83 3.19-1.6 4.64-2.24z" class="a29-cls-8"/><g class="a29-cls-12"><path d="M2 22h55v7.67H2z" class="a29-cls-18" data-color-action="fill" style="fill:inherit"/><path d="M41 41.64c.93-2.16 7.3-20.24 5.51-22.92S33.06 7.83 30 8.09s-17.42 7.43-17.8 10 7.67 21.37 8.8 23.68 18.85 2.56 20-.13z" class="a29-cls-18" data-color-action="fill" style="fill:inherit"/></g></g><g id="a79_implant_mini" data-name="implant mini"><path d="M2.39 1.79h55v137.17h-55z" class="a29-cls-23"/><path d="M29.72 77.93h-.44l-1-8.49V28.6h2.44v40.84l-1 8.49z" class="a29-cls-18" data-color-action="fill" style="fill:inherit"/><path d="M29.42 77.93h-.07l-.4-8.49V28.6h.37v40.84l.1 8.49z" class="a29-cls-25"/><path d="M28.28 28.6h2.44v.63h-2.44z" class="a29-cls-28" data-color-action="fill" style="fill:inherit"/><g class="a29-cls-29"><path d="M28.28 29.23l2.44 1v-.63l-2.44-1v.63zM28.28 30.68l2.44 1v-.63l-2.44-1v.63zM28.28 32.12l2.44 1v-.63l-2.44-1v.63zM28.28 33.57l2.44 1v-.63l-2.44-1v.63zM28.28 35.02l2.44 1v-.64l-2.44-1v.64zM28.28 36.46l2.44 1v-.63l-2.44-1v.63zM28.28 37.91l2.44 1v-.64l-2.44-1v.64zM28.28 39.35l2.44 1v-.63l-2.44-1v.63zM28.28 40.8l2.44 1v-.64l-2.44-1v.64zM28.28 42.24l2.44 1v-.63l-2.44-1v.63zM28.28 43.69l2.44 1v-.64l-2.44-1v.64zM28.28 45.13l2.44 1v-.63l-2.44-1v.63zM28.28 46.58l2.44 1v-.63l-2.44-1v.63zM28.28 48.02l2.44 1v-.63l-2.44-1v.63zM28.28 49.47l2.44 1v-.63l-2.44-1v.63zM28.28 50.91l2.44 1v-.63l-2.44-1v.63zM28.28 52.36l2.44 1v-.63l-2.44-1v.63zM28.28 53.8l2.44 1.01v-.64l-2.44-1v.63zM28.28 55.25l2.44 1v-.63l-2.44-1v.63zM28.28 56.7l2.44 1v-.64l-2.44-1v.64zM28.28 58.14l2.44 1v-.63l-2.44-1v.63zM28.28 59.59l2.44 1v-.63l-2.44-1.01v.64zM28.28 61.03l2.44 1v-.63l-2.44-1v.63zM28.28 62.48l2.44 1v-.63l-2.44-1v.63zM28.28 63.92l2.44 1v-.63l-2.44-1v.63zM28.28 65.37l2.44 1v-.63l-2.44-1v.63zM28.28 66.81l2.44 1v-.63l-2.44-1v.63zM28.28 68.26l2.44 1v-.63l-2.44-1v.63zM28.28 69.44l.03.28 2.27.93.07-.61-2.37-.97v.37zM28.49 71.24l1.93.79.07-.61-2.08-.85.08.67zM28.67 72.76l1.58.65.08-.61-1.74-.71.08.67zM28.85 74.28l1.24.5.07-.6-1.39-.57.08.67zM29.03 75.79l.9.37.07-.6-1.05-.43.08.66zM29.2 77.31l.57.23.07-.6-.71-.29.07.66z" class="a29-cls-28" data-color-action="fill" style="fill:inherit"/></g><circle cx="29.5" cy="24.73" r="2.24" class="a29-cls-18" data-color-action="fill" style="fill:inherit"/><path d="M27.67 25.95h3.67v3h-3.67z" class="a29-cls-18" data-color-action="fill" style="fill:inherit"/><path d="M28.49 25.95h.55v3h-.55z" class="a29-cls-25"/><path d="M28.7 23.37h-.21a2.32 2.32 0 0 0-.49 1.29 2.37 2.37 0 0 0 .52 1.3H29a2 2 0 0 1-.73-1.37 1.5 1.5 0 0 1 .43-1.22z" class="a29-cls-25"/><path d="M28.28 34.67h2.44v.63h-2.44z" class="a29-cls-28" data-color-action="fill" style="fill:inherit"/><path d="M32.11 28.92h-5.22l.87 5.71h3.48l.87-5.71z" class="a29-cls-18" data-color-action="fill" style="fill:inherit"/><path d="M28.85 28.92h-.79l.48 5.71h.53l-.22-5.71z" class="a29-cls-25"/></g><g id="a79_implant_cylinder" data-name="implant cylinder"><path d="M2 1.83h55V139H2z" class="a29-cls-23"/><path d="M26.17 25.65h6.67v49.33h-6.67z" class="a29-cls-18" data-color-action="fill" style="fill:inherit"/><path d="M24.5 22.66h10v3h-10z" class="a29-cls-18" data-color-action="fill" style="fill:inherit"/><path d="M28 25.65h1v49.33h-1z" class="a29-cls-25"/><path d="M26.75 22.66h1.5v3h-1.5z" class="a29-cls-25"/><path d="M24.5 75.02h10v3h-10z" class="a29-cls-18" data-color-action="fill" style="fill:inherit"/><path d="M26.75 75.02h1.5v3h-1.5z" class="a29-cls-25"/><path d="M26.17 25.65h6.67v.63h-6.67zM26.17 74.35h6.67v.63h-6.67z" class="a29-cls-28" data-color-action="fill" style="fill:inherit"/><g class="a29-cls-29"><path d="M32.83 73.35l-6.66 1.01v.63l6.66-1v-.64zM32.83 71.91l-6.66 1v.63l6.66-1v-.63zM32.83 70.46l-6.66 1v.64l6.66-1.01v-.63zM32.83 69.02l-6.66 1v.63l6.66-1v-.63zM32.83 67.57l-6.66 1v.63l6.66-1v-.63zM32.83 66.13l-6.66 1v.63l6.66-1v-.63zM32.83 64.68l-6.66 1v.63l6.66-1v-.63zM32.83 63.24l-6.66 1v.63l6.66-1v-.63zM32.83 61.79l-6.66 1v.63l6.66-1v-.63zM32.83 60.34l-6.66 1.01v.63l6.66-1v-.64zM32.83 58.9l-6.66 1v.63l6.66-1v-.63zM32.83 57.45l-6.66 1v.64l6.66-1v-.64zM32.83 56.01l-6.66 1v.63l6.66-1v-.63zM32.83 54.56l-6.66 1v.64l6.66-1v-.64zM32.83 53.12l-6.66 1v.63l6.66-1v-.63zM32.83 51.67l-6.66 1v.63l6.66-1v-.63zM32.83 50.23l-6.66 1v.63l6.66-1v-.63zM32.83 48.78l-6.66 1v.63l6.66-1v-.63zM32.83 47.34l-6.66 1v.63l6.66-1v-.63zM32.83 45.89l-6.66 1v.63l6.66-1v-.63zM32.83 44.45l-6.66 1v.63l6.66-1v-.63zM32.83 43l-6.66 1v.63l6.66-1V43zM32.83 41.55l-6.66 1v.64l6.66-1v-.64zM32.83 40.11l-6.66 1v.63l6.66-1v-.63zM32.83 38.66l-6.66 1v.64l6.66-1v-.64zM32.83 37.22l-6.66 1v.63l6.66-1v-.63zM32.83 35.77l-6.66 1v.64l6.66-1v-.64zM32.83 34.33l-6.66 1v.63l6.66-1v-.63zM32.83 32.88l-6.66 1v.63l6.66-1v-.63zM32.83 31.44l-6.66 1v.63l6.66-1v-.63zM32.83 29.99l-6.66 1v.63l6.66-1v-.63zM32.83 28.55l-6.66 1v.63l6.66-1v-.63zM32.83 27.1l-6.66 1v.63l6.66-1v-.63zM32.83 25.65l-6.66 1.01v.63l6.66-1v-.64z" class="a29-cls-28" data-color-action="fill" style="fill:inherit"/></g></g><g id="a79_implant_blade" data-name="implant blade"><path d="M2 1.83h55V139H2z" class="a29-cls-23"/><path d="M26.17 25.65h6.67v49.33h-6.67z" class="a29-cls-18" data-color-action="fill" style="fill:inherit"/><path d="M24.5 22.66h10v3h-10z" class="a29-cls-18" data-color-action="fill" style="fill:inherit"/><path d="M28 25.65h1v49.33h-1z" class="a29-cls-25"/><path d="M26.75 22.66h1.5v3h-1.5z" class="a29-cls-25"/><path d="M26.17 25.65h6.67v.63h-6.67z" class="a29-cls-28" data-color-action="fill" style="fill:inherit"/></g><path id="a79_watch_tooth" d="M8.27 153.9a3.26 3.26 0 0 1 3.22-3.26 3.24 3.24 0 1 1 0 6.47 3.25 3.25 0 0 1-3.22-3.21zm1-5.91l-.88-18.09h6.15l-.8 18.1z" class="a29-cls-11" data-color-action="fill" style="fill:inherit" data-name="watch tooth"/><path id="a79_border" d="M0 0h59v161H0z" class="a29-cls-15" transform="rotate(180 29.5 80.5)"/></defs></g><g class="b29-cls-1" transform="translate(0 66)"><g id="_29B" data-name="#29B"><path d="M46.79 28.39c-.36 3.21-14 18.15-17.17 17.91S12.45 34.52 12.21 30.11 16.62 13.43 20.55 12s14.23-3.68 17.17-1S47 26.18 46.79 28.39z" class="b29-cls-2"/><path d="M46.79 28.39c-.36 3.21-14 18.15-17.17 17.91S12.45 34.52 12.21 30.11 16.62 13.43 20.55 12s14.23-3.68 17.17-1S47 26.18 46.79 28.39z" class="b29-cls-3"/><path d="M39 30.3c-.58.58-1.37-2.06-4.11-2.28s-7.31-1.14-8.68 0-3.21 4.34-3.86 3.88 2.06-2.28 1.14-3-2.06.46-2.06-.69 1.37 0 1.83-.91-1.14-3.66-.46-4.34 1.83 3.43 3.43 3.2 8.68.91 9.82.46 3.43-3.43 4.34-2.51-2.51 2.06-2.51 3.2 1.83 2.31 1.12 2.99z" class="b29-cls-4"/><path d="M31 12.49c-2.74.23-8.68.91-10.51 2.06-1.27.8-3.65 2.69-5 3.78 1.51-3.12 3.32-5.73 5-6.36 3.92-1.47 14.23-3.68 17.17-1a24.41 24.41 0 0 1 3.47 4.81 21.16 21.16 0 0 0-3.07-2.38 15.65 15.65 0 0 0-7.06-.91z" class="b29-cls-5"/><path d="M29.62 46.3c-2.78-.21-13.85-9.07-16.73-14.24 2.81 2.16 7.51 5.63 9.46 6.93a24.86 24.86 0 0 0 8 3.2c1.37.23 5.48-2.28 8.22-4.34a65.82 65.82 0 0 0 7-6.95c-3.44 5.32-13.3 15.6-15.95 15.4z" class="b29-cls-6"/></g><defs><g id="b79_splinted_crowns" data-name="splinted crowns"><path d="M28 51.75h3v3h-3z" class="b29-cls-8"/><path d="M28 51.75h3v3h-3z" class="b29-cls-8"/><path d="M28 51.75h3v3h-3z" class="b29-cls-8"/></g><path id="b79_line_angle_2" d="M35.58 42.32a80.45 80.45 0 0 0 8.17-8.89l-15-4.2z" class="b29-cls-7" data-color-action="fill" style="fill:inherit" data-name="line angle 2"/><path id="b79_cusp_1" d="M22 41.6c3.24 2.61 6.34 4.6 7.64 4.7 1.09.08 3.39-1.6 6-4l-6.93-13.07z" class="b29-cls-7" data-color-action="fill" style="fill:inherit" data-name="cusp 1"/><path id="b79_line_angle_1" d="M14.54 34.41A53.35 53.35 0 0 0 22 41.6l6.73-12.36z" class="b29-cls-7" data-color-action="fill" style="fill:inherit" data-name="line angle 1"/><path id="b79_mesial" d="M42.3 26.18a14.61 14.61 0 0 0 2.7 5.58 9.74 9.74 0 0 0 1.8-3.37c.13-1.17-1.59-5.2-3.67-9.15-.73 2.14-1.35 5.05-.83 6.94z" class="b29-cls-7" data-color-action="fill" style="fill:inherit"/><path id="b79_mesial_pit" d="M27.89 22.64l.82 6.59 15 4.2c.45-.58.87-1.14 1.24-1.67a14.61 14.61 0 0 1-2.7-5.58c-.52-1.89.1-4.8.83-6.94-.4-.76-.81-1.52-1.23-2.25z" class="b29-cls-7" data-color-action="fill" style="fill:inherit" data-name="mesial pit"/><path id="b79_distal_pit" d="M27.89 22.64L15 19.48c-.29.65-.56 1.31-.81 2a9.67 9.67 0 0 1 2 5.78 10.69 10.69 0 0 1-2.38 6.2c.23.32.48.64.75 1l14.17-5.17z" class="b29-cls-7" data-color-action="fill" style="fill:inherit" data-name="distal pit"/><path id="b79_distal" d="M14.2 21.45c-1.28 3.35-2.1 6.74-2 8.65a7.2 7.2 0 0 0 1.59 3.33 10.69 10.69 0 0 0 2.38-6.2 9.67 9.67 0 0 0-1.97-5.78z" class="b29-cls-7" data-color-action="fill" style="fill:inherit"/><path id="b79_line_angle_4" d="M41.89 17a29.21 29.21 0 0 0-4.18-6 5.93 5.93 0 0 0-3.38-1.19l-6.44 12.83z" class="b29-cls-7" data-color-action="fill" style="fill:inherit" data-name="line angle 4"/><path id="b79_cusp_2" d="M34.34 9.78c-3.86-.4-9.46.77-12.71 1.8l6.26 11.05z" class="b29-cls-7" data-color-action="fill" style="fill:inherit" data-name="cusp 2"/><path id="b79_line_angle_3" d="M21.63 11.59c-.39.13-.76.25-1.08.37-1.88.71-3.94 3.9-5.54 7.52l12.88 3.16z" class="b29-cls-7" data-color-action="fill" style="fill:inherit" data-name="line angle 3"/><g id="b79_veneer"><path d="M28 51.75h3v3h-3z" class="b29-cls-8"/><path d="M28 51.75h3v3h-3z" class="b29-cls-8"/><path d="M28 51.75h3v3h-3z" class="b29-cls-8"/></g><g id="b79_tissue_graft" data-name="tissue graft"><path d="M28 51.75h3v3h-3z" class="b29-cls-8"/><path d="M28 51.75h3v3h-3z" class="b29-cls-8"/><path d="M28 51.75h3v3h-3z" class="b29-cls-8"/></g><path id="b79_surface_restoration_buccal" d="M29.59 42.09c1.82-1.12 5.12-4.36 8-7.55l2.6 3.11c-4.08 4.49-8.84 8.78-10.56 8.65s-6.34-3.39-10.43-7.09L21.58 36c2.78 2.58 5.99 5.15 8.01 6.09z" class="b29-cls-9" data-color-action="fill" style="fill:inherit" data-name="surface restoration buccal"/><path id="b79_surface_restoration_mesial" d="M42.7 28a62.3 62.3 0 0 0-5.31-10.78l2.45-3.56c3.13 4.66 7.15 13 6.95 14.74-.16 1.48-3.14 5.44-6.61 9.26l-2.6-3.11A43.59 43.59 0 0 0 42.7 28z" class="b29-cls-9" data-color-action="fill" style="fill:inherit" data-name="surface restoration mesial"/><path id="b79_surface_restoration_occlusal" d="M22 15.67a36.9 36.9 0 0 1 10.62-2 6.79 6.79 0 0 1 2.44.3c2 2 6.73 11 7.6 14-1.62 3.07-9.79 12.08-13.1 14.1-4-1.86-12.55-10-13.4-12.36C16.13 26.26 20 17 22 15.67z" class="b29-cls-9" data-color-action="fill" style="fill:inherit" data-name="surface restoration occlusal"/><path id="b79_surface_restoration_distal" d="M12.21 30.11c-.16-3 1.88-9.45 4.42-13.85l3.19 2.45c-1.83 3.4-3.67 8.6-3.62 11 .42 1.18 2.7 3.73 5.39 6.25l-2.39 3.25c-3.68-3.33-6.88-7.01-6.99-9.1z" class="b29-cls-9" data-color-action="fill" style="fill:inherit" data-name="surface restoration distal"/><path id="b79_surface_restoration_lingual" d="M35.1 14a6.79 6.79 0 0 0-2.44-.3 36.9 36.9 0 0 0-10.62 2 9.3 9.3 0 0 0-2.22 3l-3.19-2.45c1.25-2.16 2.62-3.82 3.92-4.31 3.92-1.47 14.23-3.68 17.17-1a16 16 0 0 1 2.13 2.68l-2.45 3.56A19.05 19.05 0 0 0 35.1 14z" class="b29-cls-9" data-color-action="fill" style="fill:inherit" data-name="surface restoration lingual"/><g id="b79_supra-erupted"><path d="M28 51.75h3v3h-3z" class="b29-cls-8"/><path d="M28 51.75h3v3h-3z" class="b29-cls-8"/><path d="M28 51.75h3v3h-3z" class="b29-cls-8"/></g><g id="b79_sub-erupted"><path d="M28 51.75h3v3h-3z" class="b29-cls-8"/><path d="M28 51.75h3v3h-3z" class="b29-cls-8"/><path d="M28 51.75h3v3h-3z" class="b29-cls-8"/></g><text id="b79_sealant" class="b29-cls-10" transform="translate(19.7 37.55)" data-color-action="fill" style="fill:inherit">S</text><g id="b79_root_decay" data-name="root decay"><path d="M28 51.75h3v3h-3z" class="b29-cls-8"/><path d="M28 51.75h3v3h-3z" class="b29-cls-8"/><path d="M28 51.75h3v3h-3z" class="b29-cls-8"/></g><g id="b79_root_canal" data-name="root canal"><path d="M28 51.75h3v3h-3z" class="b29-cls-8"/><path d="M28 51.75h3v3h-3z" class="b29-cls-8"/><path d="M28 51.75h3v3h-3z" class="b29-cls-8"/></g><g id="b79_root_abrasion" data-name="root abrasion"><path d="M28 51.75h3v3h-3z" class="b29-cls-8"/><path d="M28 51.75h3v3h-3z" class="b29-cls-8"/><path d="M28 51.75h3v3h-3z" class="b29-cls-8"/></g><g id="b79_post"><path d="M28 51.75h3v3h-3z" class="b29-cls-8"/><path d="M28 51.75h3v3h-3z" class="b29-cls-8"/><path d="M28 51.75h3v3h-3z" class="b29-cls-8"/></g><g id="b79_pins"><path d="M28 51.75h3v3h-3z" class="b29-cls-8"/><path d="M28 51.75h3v3h-3z" class="b29-cls-8"/><path d="M28 51.75h3v3h-3z" class="b29-cls-8"/></g><g id="b79_open_contact_mesial" data-name="open contact mesial"><path d="M28 51.75h3v3h-3z" class="b29-cls-8"/><path d="M28 51.75h3v3h-3z" class="b29-cls-8"/><path d="M28 51.75h3v3h-3z" class="b29-cls-8"/></g><g id="b79_open_contact_distal" data-name="open contact distal"><path d="M28 51.75h3v3h-3z" class="b29-cls-8"/><path d="M28 51.75h3v3h-3z" class="b29-cls-8"/><path d="M28 51.75h3v3h-3z" class="b29-cls-8"/></g><g id="b79_lingual_abfraction" data-name="lingual abfraction"><path d="M28 51.75h3v3h-3z" class="b29-cls-8"/><path d="M28 51.75h3v3h-3z" class="b29-cls-8"/><path d="M28 51.75h3v3h-3z" class="b29-cls-8"/></g><g id="b79_internal_root_resorption" data-name="internal root resorption"><path d="M28 51.75h3v3h-3z" class="b29-cls-8"/><path d="M28 51.75h3v3h-3z" class="b29-cls-8"/><path d="M28 51.75h3v3h-3z" class="b29-cls-8"/></g><g id="b79_gortex_membranes" data-name="gortex membranes"><path d="M28 51.75h3v3h-3z" class="b29-cls-8"/><path d="M28 51.75h3v3h-3z" class="b29-cls-8"/><path d="M28 51.75h3v3h-3z" class="b29-cls-8"/></g><g id="b79_frenum_pull" data-name="frenum pull"><path d="M28 51.75h3v3h-3z" class="b29-cls-8"/><path d="M28 51.75h3v3h-3z" class="b29-cls-8"/><path d="M28 51.75h3v3h-3z" class="b29-cls-8"/></g><g id="b79_external_root_resorption" data-name="external root resorption"><path d="M28 51.75h3v3h-3z" class="b29-cls-8"/><path d="M28 51.75h3v3h-3z" class="b29-cls-8"/><path d="M28 51.75h3v3h-3z" class="b29-cls-8"/></g><path id="b79_three_quarter_crown" d="M46.79 28.39c-.36 3.21-14 18.15-17.17 17.91S12.45 34.52 12.21 30.11 16.62 13.43 20.55 12s14.23-3.68 17.17-1S47 26.18 46.79 28.39z" class="b29-cls-12 b29-cls-16" data-color-action="fill" style="fill:inherit" data-name="three quarter crown"/><path id="b79_crown" d="M46.79 28.39c-.36 3.21-14 18.15-17.17 17.91S12.45 34.52 12.21 30.11 16.62 13.43 20.55 12s14.23-3.68 17.17-1S47 26.18 46.79 28.39z" class="b29-cls-12 b29-cls-16" data-color-action="fill" style="fill:inherit"/><path id="b79_cracked_surface_occlusal" d="M30.83 32.17L27 28.34h5l-5-4.74h5l-3.83-3.83" class="b29-cls-17" data-color-action="stroke" style="stroke:inherit" data-name="cracked surface occlusal"/><g id="b79_chipped_surface_occlusal" class="b29-cls-12" data-name="chipped surface occlusal"><path d="M33.33 30.5L25 22.17M25 30.5l8.33-8.33" class="b29-cls-18" data-color-action="stroke" style="stroke:inherit"/></g><g id="b79_buccal_abfraction" data-name="buccal abfraction"><path d="M28 51.75h3v3h-3z" class="b29-cls-8"/><path d="M28 51.75h3v3h-3z" class="b29-cls-8"/><path d="M28 51.75h3v3h-3z" class="b29-cls-8"/></g><g id="b79_braces"><path d="M28 51.75h3v3h-3z" class="b29-cls-8"/><path d="M28 51.75h3v3h-3z" class="b29-cls-8"/><path d="M28 51.75h3v3h-3z" class="b29-cls-8"/></g><g id="b79_apicoectomy"><path d="M28 51.75h3v3h-3z" class="b29-cls-8"/><path d="M28 51.75h3v3h-3z" class="b29-cls-8"/><path d="M28 51.75h3v3h-3z" class="b29-cls-8"/></g><g id="b79_abscess"><path d="M28 51.75h3v3h-3z" class="b29-cls-8"/><path d="M28 51.75h3v3h-3z" class="b29-cls-8"/><path d="M28 51.75h3v3h-3z" class="b29-cls-8"/></g><g id="b79_blunted_roots" data-name="blunted roots"><path d="M28 51.75h3v3h-3z" class="b29-cls-8"/><path d="M28 51.75h3v3h-3z" class="b29-cls-8"/><path d="M28 51.75h3v3h-3z" class="b29-cls-8"/></g><g id="b79_root_amputation" data-name="root amputation"><path d="M28 51.75h3v3h-3z" class="b29-cls-8"/><path d="M28 51.75h3v3h-3z" class="b29-cls-8"/><path d="M28 51.75h3v3h-3z" class="b29-cls-8"/></g><path id="b79_missing_crown" d="M2 2.21h55v51.77H2z" class="b29-cls-11" data-name="missing crown"/><g id="b79_missing_tooth" data-name="missing tooth"><path d="M46.79 28.39c-.36 3.21-14 18.15-17.17 17.91S12.45 34.52 12.21 30.11 16.62 13.43 20.55 12s14.23-3.68 17.17-1S47 26.18 46.79 28.39z" class="b29-cls-2"/><path d="M46.79 28.39c-.36 3.21-14 18.15-17.17 17.91S12.45 34.52 12.21 30.11 16.62 13.43 20.55 12s14.23-3.68 17.17-1S47 26.18 46.79 28.39z" class="b29-cls-11"/><path d="M39 30.3c-.58.58-1.37-2.06-4.11-2.28s-7.31-1.14-8.68 0-3.21 4.34-3.86 3.88 2.06-2.28 1.14-3-2.06.46-2.06-.69 1.37 0 1.83-.91-1.14-3.66-.46-4.34 1.83 3.43 3.43 3.2 8.68.91 9.82.46 3.43-3.43 4.34-2.51-2.51 2.06-2.51 3.2 1.83 2.31 1.12 2.99zM31 12.49c-2.74.23-8.68.91-10.51 2.06-1.27.8-3.65 2.69-5 3.78 1.51-3.12 3.32-5.73 5-6.36 3.92-1.47 14.23-3.68 17.17-1a24.41 24.41 0 0 1 3.47 4.81 21.16 21.16 0 0 0-3.07-2.38 15.65 15.65 0 0 0-7.06-.91z" class="b29-cls-11"/><path d="M29.62 46.3c-2.78-.21-13.85-9.07-16.73-14.24 2.81 2.16 7.51 5.63 9.46 6.93a24.86 24.86 0 0 0 8 3.2c1.37.23 5.48-2.28 8.22-4.34a65.82 65.82 0 0 0 7-6.95c-3.44 5.32-13.3 15.6-15.95 15.4z" class="b29-cls-11"/></g><g id="b79_maryland_bridge_pontic" class="b29-cls-12" data-name="maryland bridge pontic"><path d="M46.79 28.39c-.36 3.21-14 18.15-17.17 17.91S12.45 34.52 12.21 30.11 16.62 13.43 20.55 12s14.23-3.68 17.17-1S47 26.18 46.79 28.39z" class="b29-cls-13" data-color-action="fill" style="fill:inherit"/><path d="M36.58 24.17H57v7.67H36.58zM2 24.17h20.42v7.67H2z" class="b29-cls-13" data-color-action="fill" style="fill:inherit"/></g><g id="b79_maryland_bridge_abutment_mesial" data-name="maryland bridge abutment mesial"><g class="b29-cls-12"><path d="M36.58 24.17H57v7.67H36.58z" class="b29-cls-13" data-color-action="fill" style="fill:inherit"/><ellipse cx="37.81" cy="28" class="b29-cls-13" rx="5.61" ry="12.9" data-color-action="fill" style="fill:inherit"/></g><path d="M46.79 28.39c-.36 3.21-14 18.15-17.17 17.91S12.45 34.52 12.21 30.11 16.62 13.43 20.55 12s14.23-3.68 17.17-1S47 26.18 46.79 28.39z" class="b29-cls-2"/><path d="M46.79 28.39c-.36 3.21-14 18.15-17.17 17.91S12.45 34.52 12.21 30.11 16.62 13.43 20.55 12s14.23-3.68 17.17-1S47 26.18 46.79 28.39z" class="b29-cls-3"/><path d="M39 30.3c-.58.58-1.37-2.06-4.11-2.28s-7.31-1.14-8.68 0-3.21 4.34-3.86 3.88 2.06-2.28 1.14-3-2.06.46-2.06-.69 1.37 0 1.83-.91-1.14-3.66-.46-4.34 1.83 3.43 3.43 3.2 8.68.91 9.82.46 3.43-3.43 4.34-2.51-2.51 2.06-2.51 3.2 1.83 2.31 1.12 2.99z" class="b29-cls-4"/><path d="M31 12.49c-2.74.23-8.68.91-10.51 2.06-1.27.8-3.65 2.69-5 3.78 1.51-3.12 3.32-5.73 5-6.36 3.92-1.47 14.23-3.68 17.17-1a24.41 24.41 0 0 1 3.47 4.81 21.16 21.16 0 0 0-3.07-2.38 15.65 15.65 0 0 0-7.06-.91z" class="b29-cls-5"/><path d="M29.62 46.3c-2.78-.21-13.85-9.07-16.73-14.24 2.81 2.16 7.51 5.63 9.46 6.93a24.86 24.86 0 0 0 8 3.2c1.37.23 5.48-2.28 8.22-4.34a65.82 65.82 0 0 0 7-6.95c-3.44 5.32-13.3 15.6-15.95 15.4z" class="b29-cls-6"/></g><g id="b79_maryland_bridge_abutment_distal" data-name="maryland bridge abutment distal"><g class="b29-cls-12"><path d="M2 24.17h20.42v7.67H2z" class="b29-cls-13" data-color-action="fill" style="fill:inherit"/><ellipse cx="21.19" cy="28" class="b29-cls-13" rx="5.61" ry="12.9" data-color-action="fill" style="fill:inherit"/></g><path d="M46.79 28.39c-.36 3.21-14 18.15-17.17 17.91S12.45 34.52 12.21 30.11 16.62 13.43 20.55 12s14.23-3.68 17.17-1S47 26.18 46.79 28.39z" class="b29-cls-2"/><path d="M46.79 28.39c-.36 3.21-14 18.15-17.17 17.91S12.45 34.52 12.21 30.11 16.62 13.43 20.55 12s14.23-3.68 17.17-1S47 26.18 46.79 28.39z" class="b29-cls-3"/><path d="M39 30.3c-.58.58-1.37-2.06-4.11-2.28s-7.31-1.14-8.68 0-3.21 4.34-3.86 3.88 2.06-2.28 1.14-3-2.06.46-2.06-.69 1.37 0 1.83-.91-1.14-3.66-.46-4.34 1.83 3.43 3.43 3.2 8.68.91 9.82.46 3.43-3.43 4.34-2.51-2.51 2.06-2.51 3.2 1.83 2.31 1.12 2.99z" class="b29-cls-4"/><path d="M31 12.49c-2.74.23-8.68.91-10.51 2.06-1.27.8-3.65 2.69-5 3.78 1.51-3.12 3.32-5.73 5-6.36 3.92-1.47 14.23-3.68 17.17-1a24.41 24.41 0 0 1 3.47 4.81 21.16 21.16 0 0 0-3.07-2.38 15.65 15.65 0 0 0-7.06-.91z" class="b29-cls-5"/><path d="M29.62 46.3c-2.78-.21-13.85-9.07-16.73-14.24 2.81 2.16 7.51 5.63 9.46 6.93a24.86 24.86 0 0 0 8 3.2c1.37.23 5.48-2.28 8.22-4.34a65.82 65.82 0 0 0 7-6.95c-3.44 5.32-13.3 15.6-15.95 15.4z" class="b29-cls-6"/></g><g id="b79_maryland_bridge_abutment" data-name="maryland bridge abutment"><g class="b29-cls-12"><path d="M36.58 24.17H57v7.67H36.58zM2 24.17h20.42v7.67H2z" class="b29-cls-13" data-color-action="fill" style="fill:inherit"/><ellipse cx="21.19" cy="28" class="b29-cls-13" rx="5.61" ry="12.9" data-color-action="fill" style="fill:inherit"/><ellipse cx="37.81" cy="28" class="b29-cls-13" rx="5.61" ry="12.9" data-color-action="fill" style="fill:inherit"/></g><path d="M46.79 28.39c-.36 3.21-14 18.15-17.17 17.91S12.45 34.52 12.21 30.11 16.62 13.43 20.55 12s14.23-3.68 17.17-1S47 26.18 46.79 28.39z" class="b29-cls-2"/><path d="M46.79 28.39c-.36 3.21-14 18.15-17.17 17.91S12.45 34.52 12.21 30.11 16.62 13.43 20.55 12s14.23-3.68 17.17-1S47 26.18 46.79 28.39z" class="b29-cls-3"/><path d="M39 30.3c-.58.58-1.37-2.06-4.11-2.28s-7.31-1.14-8.68 0-3.21 4.34-3.86 3.88 2.06-2.28 1.14-3-2.06.46-2.06-.69 1.37 0 1.83-.91-1.14-3.66-.46-4.34 1.83 3.43 3.43 3.2 8.68.91 9.82.46 3.43-3.43 4.34-2.51-2.51 2.06-2.51 3.2 1.83 2.31 1.12 2.99z" class="b29-cls-4"/><path d="M31 12.49c-2.74.23-8.68.91-10.51 2.06-1.27.8-3.65 2.69-5 3.78 1.51-3.12 3.32-5.73 5-6.36 3.92-1.47 14.23-3.68 17.17-1a24.41 24.41 0 0 1 3.47 4.81 21.16 21.16 0 0 0-3.07-2.38 15.65 15.65 0 0 0-7.06-.91z" class="b29-cls-5"/><path d="M29.62 46.3c-2.78-.21-13.85-9.07-16.73-14.24 2.81 2.16 7.51 5.63 9.46 6.93a24.86 24.86 0 0 0 8 3.2c1.37.23 5.48-2.28 8.22-4.34a65.82 65.82 0 0 0 7-6.95c-3.44 5.32-13.3 15.6-15.95 15.4z" class="b29-cls-6"/></g><path id="b79_bridge_abutment" d="M46.79 28.39c-.36 3.21-14 18.15-17.17 17.91S12.45 34.52 12.21 30.11 16.62 13.43 20.55 12s14.23-3.68 17.17-1S47 26.18 46.79 28.39z" class="b29-cls-12 b29-cls-14" data-color-action="fill" style="fill:inherit" data-name="bridge abutment"/><g id="b79_bridge_pontic" data-name="bridge pontic"><path d="M46.79 28.39c-.36 3.21-14 18.15-17.17 17.91S12.45 34.52 12.21 30.11 16.62 13.43 20.55 12s14.23-3.68 17.17-1S47 26.18 46.79 28.39z" class="b29-cls-2"/><path d="M46.79 28.39c-.36 3.21-14 18.15-17.17 17.91S12.45 34.52 12.21 30.11 16.62 13.43 20.55 12s14.23-3.68 17.17-1S47 26.18 46.79 28.39z" class="b29-cls-3"/><path d="M39 30.3c-.58.58-1.37-2.06-4.11-2.28s-7.31-1.14-8.68 0-3.21 4.34-3.86 3.88 2.06-2.28 1.14-3-2.06.46-2.06-.69 1.37 0 1.83-.91-1.14-3.66-.46-4.34 1.83 3.43 3.43 3.2 8.68.91 9.82.46 3.43-3.43 4.34-2.51-2.51 2.06-2.51 3.2 1.83 2.31 1.12 2.99z" class="b29-cls-4"/><path d="M31 12.49c-2.74.23-8.68.91-10.51 2.06-1.27.8-3.65 2.69-5 3.78 1.51-3.12 3.32-5.73 5-6.36 3.92-1.47 14.23-3.68 17.17-1a24.41 24.41 0 0 1 3.47 4.81 21.16 21.16 0 0 0-3.07-2.38 15.65 15.65 0 0 0-7.06-.91z" class="b29-cls-5"/><path d="M29.62 46.3c-2.78-.21-13.85-9.07-16.73-14.24 2.81 2.16 7.51 5.63 9.46 6.93a24.86 24.86 0 0 0 8 3.2c1.37.23 5.48-2.28 8.22-4.34a65.82 65.82 0 0 0 7-6.95c-3.44 5.32-13.3 15.6-15.95 15.4z" class="b29-cls-6"/><path d="M46.79 28.39c-.36 3.21-14 18.15-17.17 17.91S12.45 34.52 12.21 30.11 16.62 13.43 20.55 12s14.23-3.68 17.17-1S47 26.18 46.79 28.39z" class="b29-cls-12 b29-cls-14" data-color-action="fill" style="fill:inherit"/></g><g id="b79_implant_mini" data-name="implant mini"><path d="M2 2.21h55v51.77H2z" class="b29-cls-11"/><circle cx="29.5" cy="28" r="2.61" class="b29-cls-14" data-color-action="fill" style="fill:inherit"/></g><g id="b79_implant_cylinder" data-name="implant cylinder"><path d="M2 2.21h55v51.77H2z" class="b29-cls-11"/><circle cx="29.5" cy="28" r="5" class="b29-cls-14" data-color-action="fill" style="fill:inherit"/><path d="M24.5 28a5 5 0 0 1 .09-.89h9.82a4.46 4.46 0 0 1 0 1.78h-9.82a5 5 0 0 1-.09-.89z" class="b29-cls-15" data-color-action="fill" style="fill:inherit"/></g><g id="b79_implant_blade" data-name="implant blade"><path d="M2 2.21h55v51.77H2z" class="b29-cls-11"/><circle cx="29.5" cy="28" r="5" class="b29-cls-14" data-color-action="fill" style="fill:inherit"/></g><g id="b79_border"><path d="M0 0h59v56H0z" class="b29-cls-8"/><path d="M0 0h59v56H0z" class="b29-cls-8" transform="rotate(180 29.5 28)"/></g></defs></g><g class="c29-cls-1"><g id="_29C" data-name="#29C"><path d="M41 23.63c.93 2.16 7.3 20.24 5.51 22.92S33.06 57.44 30 57.18s-17.42-7.43-17.8-10S19.87 25.8 21 23.5s18.85-2.56 20 .13z" class="c29-cls-2"/><path d="M41 23.63c.93 2.16 7.3 20.24 5.51 22.92S33.06 57.44 30 57.18s-17.42-7.43-17.8-10S19.87 25.8 21 23.5s18.85-2.56 20 .13z" class="c29-cls-3"/><path d="M23.92 25.15a9.41 9.41 0 0 0-4.36 1.63c.7-1.6 1.23-2.8 1.47-3.28 1.15-2.31 18.83-2.56 20 .13.18.42.57 1.46 1.07 2.87A11.82 11.82 0 0 0 37 25c-3.12 0-10.73.15-13.08.15z" class="c29-cls-4"/><path d="M46.51 46.55C44.72 49.24 33.06 57.44 30 57.18s-17.42-7.43-17.8-10a14.24 14.24 0 0 1 1-4.33c.31.92.29 2.66.93 3.84 1.09 2 15.58 7.43 17 7.24s11.23-6.7 13.22-8a7.27 7.27 0 0 0 2.28-3c.27 1.74.27 3.07-.12 3.62z" class="c29-cls-5"/></g><defs><g id="c79_splinted_crowns" data-name="splinted crowns"><path d="M2 16.25h55v7.67H2z" class="c29-cls-12" data-color-action="fill" style="fill:inherit"/><path d="M41 23.63c.93 2.16 7.3 20.24 5.51 22.92S33.06 57.44 30 57.18s-17.42-7.43-17.8-10S19.87 25.8 21 23.5s18.85-2.56 20 .13z" class="c29-cls-2"/><path d="M41 23.63c.93 2.16 7.3 20.24 5.51 22.92S33.06 57.44 30 57.18s-17.42-7.43-17.8-10S19.87 25.8 21 23.5s18.85-2.56 20 .13z" class="c29-cls-3"/><path d="M23.92 25.15a9.41 9.41 0 0 0-4.36 1.63c.7-1.6 1.23-2.8 1.47-3.28 1.15-2.31 18.83-2.56 20 .13.18.42.57 1.46 1.07 2.87A11.82 11.82 0 0 0 37 25c-3.12 0-10.73.15-13.08.15z" class="c29-cls-4"/><path d="M46.51 46.55C44.72 49.24 33.06 57.44 30 57.18s-17.42-7.43-17.8-10a14.24 14.24 0 0 1 1-4.33c.31.92.29 2.66.93 3.84 1.09 2 15.58 7.43 17 7.24s11.23-6.7 13.22-8a7.27 7.27 0 0 0 2.28-3c.27 1.74.27 3.07-.12 3.62z" class="c29-cls-5"/></g><path id="c79_mesial" d="M46.51 46.55a7.23 7.23 0 0 1-.84 1l-5-2.43c2.45-2.43.57-7.92-.23-10.48-.31-1 .37-2.73 3.34-2.85 1.92 5.93 3.81 13.14 2.73 14.76z" class="c29-cls-6" data-color-action="fill" style="fill:inherit"/><path id="c79_line_angle_4" d="M37 48.22a32.05 32.05 0 0 0 3.64-3.08l5 2.43a51 51 0 0 1-7.39 5.74z" class="c29-cls-6" data-color-action="fill" style="fill:inherit" data-name="line angle 4"/><path id="c79_cusp_2" d="M30 57.18c-1.27-.11-4.47-1.39-7.81-3l1.43-5.42a20 20 0 0 0 7 1.8A10.47 10.47 0 0 0 37 48.22l1.24 5c-3.34 2.27-6.78 4.08-8.24 3.96z" class="c29-cls-6" data-color-action="fill" style="fill:inherit" data-name="cusp 2"/><path id="c79_line_angle_3" d="M12.19 47.19a2.38 2.38 0 0 1 0-.59L19 44a5.92 5.92 0 0 0 .44 1.18 8.79 8.79 0 0 0 4.21 3.5l-1.43 5.42c-4.78-2.32-9.81-5.41-10.03-6.91z" class="c29-cls-6" data-color-action="fill" style="fill:inherit" data-name="line angle 3"/><path id="c79_distal" d="M20 34.78c-.72 2.48-1.78 6.43-1 9.25l-6.8 2.57c.29-2.39 2.92-9.22 5.26-14.88 1.79.36 3.06 1.28 2.54 3.06z" class="c29-cls-6" data-color-action="fill" style="fill:inherit"/><ellipse id="c79_lingual" cx="30.5" cy="37.99" class="c29-cls-6" rx="4.69" ry="8.25" data-color-action="fill" style="fill:inherit"/><path id="c79_lingual_V" d="M23.23 22.42c4.45-1.07 14.16-1 17 .52a16.63 16.63 0 0 1-8.58 2.25 15.94 15.94 0 0 1-8.42-2.77z" class="c29-cls-6" data-color-action="fill" style="fill:inherit" data-name="lingual V"/><g id="c79_veneer"><path d="M28 61.75h3v3h-3z" class="c29-cls-7"/><path d="M28 61.75h3v3h-3z" class="c29-cls-7"/><path d="M28 61.75h3v3h-3z" class="c29-cls-7"/></g><g id="c79_tissue_graft" data-name="tissue graft"><path d="M28 61.75h3v3h-3z" class="c29-cls-7"/><path d="M28 61.75h3v3h-3z" class="c29-cls-7"/><path d="M28 61.75h3v3h-3z" class="c29-cls-7"/></g><g id="c79_tipped_lingual" class="c29-cls-8" data-name="tipped lingual"><path d="M30.35 61.07c-1.26 3.37-4.74 3.85-7.69-5.32-.5-1.56-4.42-1.76-3.84 0 2 6.08 5.31 10.2 9.06 9.27a4.86 4.86 0 0 0 3-3.38 4.48 4.48 0 0 1-.53-.57z" class="c29-cls-9" data-color-action="fill" style="fill:inherit"/><path d="M28.27 58.15H15.33l2.94-9.64 10 9.64z" class="c29-cls-9" data-color-action="fill" style="fill:inherit"/></g><g id="c79_tipped_facial" data-name="tipped facial"><path d="M28 61.75h3v3h-3z" class="c29-cls-7"/><path d="M28 61.75h3v3h-3z" class="c29-cls-7"/><path d="M28 61.75h3v3h-3z" class="c29-cls-7"/></g><path id="c79_surface_restoration_occlusal" d="M30 57.2c2.05.17 7.93-3.43 12.15-6.64L37.5 45.3A50.44 50.44 0 0 1 30 50a66 66 0 0 1-8.78-4.28l-5.21 5C20.64 53.68 27.9 57 30 57.2z" class="c29-cls-10" data-color-action="fill" style="fill:inherit" data-name="surface restoration occlusal"/><path id="c79_surface_restoration_mesial" d="M46.51 46.57c1-1.54-.62-8.1-2.39-13.85a11.52 11.52 0 0 1-6.81-6c1 6.53 2 14.56 2.38 16.79-.6.52-1.36 1.11-2.2 1.73l4.63 5.26a23 23 0 0 0 4.39-3.93z" class="c29-cls-10" data-color-action="fill" style="fill:inherit" data-name="surface restoration mesial"/><path id="c79_surface_restoration_lingual" d="M25.28 24.7a11.41 11.41 0 0 1-1.48 3.37c-1.47 6.52-3 14.22-3.9 16.83A66.86 66.86 0 0 0 30 50a55 55 0 0 0 9.65-6.43c-.36-2.24-1.34-10.27-2.38-16.79a11.49 11.49 0 0 1-.82-2.29 13.79 13.79 0 0 1-11.22.21z" class="c29-cls-8 c29-cls-11" data-color-action="fill" style="fill:inherit" data-name="surface restoration lingual"/><path id="c79_surface_restoration_lingual_V" d="M25.65 22a11.52 11.52 0 0 1-.38 2.68 13.79 13.79 0 0 0 11.22-.21 11.42 11.42 0 0 1-.31-2.47 48.52 48.52 0 0 0-10.53 0z" class="c29-cls-8 c29-cls-11" data-color-action="fill" style="fill:inherit" data-name="surface restoration lingual V"/><path id="c79_surface_restoration_distal" d="M16.06 50.74l5.21-5c-.49-.28-1-.56-1.37-.82.88-2.61 2.43-10.31 3.9-16.83a11.5 11.5 0 0 1-6.8 4.84c-2.44 6-5 12.81-4.79 14.28.1.79 1.67 2.13 3.85 3.53z" class="c29-cls-10" data-color-action="fill" style="fill:inherit" data-name="surface restoration distal"/><g id="c79_supra-erupted"><path d="M28 61.75h3v3h-3z" class="c29-cls-7"/><path d="M28 61.75h3v3h-3z" class="c29-cls-7"/><path d="M28 61.75h3v3h-3z" class="c29-cls-7"/></g><g id="c79_sub-erupted"><path d="M28 61.75h3v3h-3z" class="c29-cls-7"/><path d="M28 61.75h3v3h-3z" class="c29-cls-7"/><path d="M28 61.75h3v3h-3z" class="c29-cls-7"/></g><g id="c79_sealant"><path d="M28 61.75h3v3h-3z" class="c29-cls-7"/><path d="M28 61.75h3v3h-3z" class="c29-cls-7"/><path d="M28 61.75h3v3h-3z" class="c29-cls-7"/></g><g id="c79_root_decay" data-name="root decay"><path d="M28 61.75h3v3h-3z" class="c29-cls-7"/><path d="M28 61.75h3v3h-3z" class="c29-cls-7"/><path d="M28 61.75h3v3h-3z" class="c29-cls-7"/></g><g id="c79_root_canal" data-name="root canal"><path d="M28 61.75h3v3h-3z" class="c29-cls-7"/><path d="M28 61.75h3v3h-3z" class="c29-cls-7"/><path d="M28 61.75h3v3h-3z" class="c29-cls-7"/></g><g id="c79_root_abrasion" data-name="root abrasion"><path d="M28 61.75h3v3h-3z" class="c29-cls-7"/><path d="M28 61.75h3v3h-3z" class="c29-cls-7"/><path d="M28 61.75h3v3h-3z" class="c29-cls-7"/></g><g id="c79_open_contact_mesial" data-name="open contact mesial"><path d="M28 61.75h3v3h-3z" class="c29-cls-7"/><path d="M28 61.75h3v3h-3z" class="c29-cls-7"/><path d="M28 61.75h3v3h-3z" class="c29-cls-7"/></g><g id="c79_open_contact_distal" data-name="open contact distal"><path d="M28 61.75h3v3h-3z" class="c29-cls-7"/><path d="M28 61.75h3v3h-3z" class="c29-cls-7"/><path d="M28 61.75h3v3h-3z" class="c29-cls-7"/></g><path id="c79_lingual_abfraction" d="M42.3 19.16S37 15 30.5 15s-11.8 4.16-11.8 4.16 5.3 4.16 11.8 4.16 11.8-4.16 11.8-4.16z" class="c29-cls-15" data-color-action="fill" style="fill:inherit" data-name="lingual abfraction"/><g id="c79_internal_root_resorption" data-name="internal root resorption"><path d="M28 61.75h3v3h-3z" class="c29-cls-7"/><path d="M28 61.75h3v3h-3z" class="c29-cls-7"/><path d="M28 61.75h3v3h-3z" class="c29-cls-7"/></g><g id="c79_gortex_membranes" data-name="gortex membranes"><path d="M28 61.75h3v3h-3z" class="c29-cls-7"/><path d="M28 61.75h3v3h-3z" class="c29-cls-7"/><path d="M28 61.75h3v3h-3z" class="c29-cls-7"/></g><g id="c79_frenum_pull" data-name="frenum pull"><path d="M28 61.75h3v3h-3z" class="c29-cls-7"/><path d="M28 61.75h3v3h-3z" class="c29-cls-7"/><path d="M28 61.75h3v3h-3z" class="c29-cls-7"/></g><g id="c79_external_root_resorption" data-name="external root resorption"><path d="M28 61.75h3v3h-3z" class="c29-cls-7"/><path d="M28 61.75h3v3h-3z" class="c29-cls-7"/><path d="M28 61.75h3v3h-3z" class="c29-cls-7"/></g><path id="c79_three_quarter_crown" d="M15.1 37.62c-1.71 4.45-3.08 8.48-2.91 9.57.38 2.56 14.73 9.73 17.8 10s14.73-7.94 16.52-10.63c.74-1.1.09-4.8-1-8.93z" class="c29-cls-8 c29-cls-19" data-color-action="fill" style="fill:inherit" data-name="three quarter crown"/><path id="c79_crown" d="M41 23.63c.93 2.16 7.3 20.24 5.51 22.92S33.06 57.44 30 57.18s-17.42-7.43-17.8-10S19.87 25.8 21 23.5s18.85-2.56 20 .13z" class="c29-cls-8 c29-cls-19" data-color-action="fill" style="fill:inherit"/><path id="c79_cracked_surface_distal" d="M17.66 46.19l-3.83-3.84h5.01l-5.01-4.74h5.01l-3.83-3.83" class="c29-cls-20" data-color-action="stroke" style="stroke:inherit" data-name="cracked surface distal"/><path id="c79_cracked_surface_lingual" d="M30.83 46.19L27 42.35h5l-5-4.74h5l-3.83-3.83" class="c29-cls-20" data-color-action="stroke" style="stroke:inherit" data-name="cracked surface lingual"/><path id="c79_cracked_surface_lingual_V" d="M30.83 46.19L27 42.35h5l-5-4.74h5l-3.83-3.83" class="c29-cls-20" data-color-action="stroke" style="stroke:inherit" data-name="cracked surface lingual V"/><path id="c79_cracked_surface_mesial" d="M44.66 46.19l-3.83-3.84h5l-5-4.74h5L42 33.78" class="c29-cls-20" data-color-action="stroke" style="stroke:inherit" data-name="cracked surface mesial"/><g id="c79_chipped_surface_distal" class="c29-cls-8" data-name="chipped surface distal"><path d="M21.17 44.51l-8.33-8.33M12.84 44.51l8.33-8.33" class="c29-cls-21" data-color-action="stroke" style="stroke:inherit"/></g><g id="c79_chipped_surface_lingual" class="c29-cls-8" data-name="chipped surface lingual"><path d="M33.33 44.51L25 36.18M25 44.51l8.33-8.33" class="c29-cls-21" data-color-action="stroke" style="stroke:inherit"/></g><g id="c79_chipped_surface_lingual_V" class="c29-cls-8" data-name="chipped surface lingual V"><path d="M33.33 44.51L25 36.18M25 44.51l8.33-8.33" class="c29-cls-21" data-color-action="stroke" style="stroke:inherit"/></g><g id="c79_chipped_surface_mesial" class="c29-cls-8" data-name="chipped surface mesial"><path d="M46.33 44.51L38 36.18M38 44.51l8.33-8.33" class="c29-cls-21" data-color-action="stroke" style="stroke:inherit"/></g><g id="c79_buccal_abfraction" data-name="buccal abfraction"><path d="M28 61.75h3v3h-3z" class="c29-cls-7"/><path d="M28 61.75h3v3h-3z" class="c29-cls-7"/><path d="M28 61.75h3v3h-3z" class="c29-cls-7"/></g><g id="c79_braces"><path d="M28 61.75h3v3h-3z" class="c29-cls-7"/><path d="M28 61.75h3v3h-3z" class="c29-cls-7"/><path d="M28 61.75h3v3h-3z" class="c29-cls-7"/></g><g id="c79_apicoectomy"><path d="M28 61.75h3v3h-3z" class="c29-cls-7"/><path d="M28 61.75h3v3h-3z" class="c29-cls-7"/><path d="M28 61.75h3v3h-3z" class="c29-cls-7"/></g><g id="c79_abscess"><path d="M28 61.75h3v3h-3z" class="c29-cls-7"/><path d="M28 61.75h3v3h-3z" class="c29-cls-7"/><path d="M28 61.75h3v3h-3z" class="c29-cls-7"/></g><g id="c79_blunted_roots" data-name="blunted roots"><path d="M28 61.75h3v3h-3z" class="c29-cls-7"/><path d="M28 61.75h3v3h-3z" class="c29-cls-7"/><path d="M28 61.75h3v3h-3z" class="c29-cls-7"/></g><g id="c79_root_amputation" data-name="root amputation"><path d="M28 61.75h3v3h-3z" class="c29-cls-7"/><path d="M28 61.75h3v3h-3z" class="c29-cls-7"/><path d="M28 61.75h3v3h-3z" class="c29-cls-7"/></g><g id="c79_missing_crown" data-name="missing crown"><path d="M28 61.75h3v3h-3z" class="c29-cls-7"/><path d="M28 61.75h3v3h-3z" class="c29-cls-7"/><path d="M28 61.75h3v3h-3z" class="c29-cls-7"/><path d="M2 2h55v61.98H2z" class="c29-cls-13"/></g><g id="c79_missing_tooth" data-name="missing tooth"><path d="M41 23.63c.93 2.16 7.3 20.24 5.51 22.92S33.06 57.44 30 57.18s-17.42-7.43-17.8-10S19.87 25.8 21 23.5s18.85-2.56 20 .13z" class="c29-cls-2"/><path d="M41 23.63c.93 2.16 7.3 20.24 5.51 22.92S33.06 57.44 30 57.18s-17.42-7.43-17.8-10S19.87 25.8 21 23.5s18.85-2.56 20 .13z" class="c29-cls-13"/><path d="M23.92 25.15a9.41 9.41 0 0 0-4.36 1.63c.7-1.6 1.23-2.8 1.47-3.28 1.15-2.31 18.83-2.56 20 .13.18.42.57 1.46 1.07 2.87A11.82 11.82 0 0 0 37 25c-3.12 0-10.73.15-13.08.15zM46.51 46.55C44.72 49.24 33.06 57.44 30 57.18s-17.42-7.43-17.8-10a14.24 14.24 0 0 1 1-4.33c.31.92.29 2.66.93 3.84 1.09 2 15.58 7.43 17 7.24s11.23-6.7 13.22-8a7.27 7.27 0 0 0 2.28-3c.27 1.74.27 3.07-.12 3.62z" class="c29-cls-13"/></g><g id="c79_maryland_bridge_pontic" class="c29-cls-8" data-name="maryland bridge pontic"><path d="M41 23.63c.93 2.16 7.3 20.24 5.51 22.92S33.06 57.44 30 57.18s-17.42-7.43-17.8-10S19.87 25.8 21 23.5s18.85-2.56 20 .13z" class="c29-cls-14" data-color-action="fill" style="fill:inherit"/><path d="M2 32.37h55v7.67H2z" class="c29-cls-14" data-color-action="fill" style="fill:inherit"/></g><g id="c79_maryland_bridge_abutment_mesial" class="c29-cls-8" data-name="maryland bridge abutment mesial"><path d="M36.58 34.17H57v7.67H36.58z" class="c29-cls-14" data-color-action="fill" style="fill:inherit"/><ellipse cx="37.81" cy="38.01" class="c29-cls-14" rx="5.61" ry="12.9" data-color-action="fill" style="fill:inherit"/></g><g id="c79_maryland_bridge_abutment_distal" class="c29-cls-8" data-name="maryland bridge abutment distal"><path d="M2 34.17h20.42v7.67H2z" class="c29-cls-14" data-color-action="fill" style="fill:inherit"/><ellipse cx="21.19" cy="38.01" class="c29-cls-14" rx="5.61" ry="12.9" data-color-action="fill" style="fill:inherit"/></g><g id="c79_maryland_bridge_abutment" class="c29-cls-8" data-name="maryland bridge abutment"><path d="M36.58 34.17H57v7.67H36.58zM2 34.17h20.42v7.67H2z" class="c29-cls-14" data-color-action="fill" style="fill:inherit"/><ellipse cx="21.19" cy="38.01" class="c29-cls-14" rx="5.61" ry="12.9" data-color-action="fill" style="fill:inherit"/><ellipse cx="37.81" cy="38.01" class="c29-cls-14" rx="5.61" ry="12.9" data-color-action="fill" style="fill:inherit"/></g><g id="c79_bridge_abutment_mesial" class="c29-cls-8" data-name="bridge abutment mesial"><path d="M41 23.63c.93 2.16 7.3 20.24 5.51 22.92S33.06 57.44 30 57.18s-17.42-7.43-17.8-10S19.87 25.8 21 23.5s18.85-2.56 20 .13z" class="c29-cls-11" data-color-action="fill" style="fill:inherit"/><path d="M22.02 32.6H57v7.67H22.02z" class="c29-cls-11" data-color-action="fill" style="fill:inherit"/></g><g id="c79_bridge_abutment_distal" class="c29-cls-8" data-name="bridge abutment distal"><path d="M41 23.63c.93 2.16 7.3 20.24 5.51 22.92S33.06 57.44 30 57.18s-17.42-7.43-17.8-10S19.87 25.8 21 23.5s18.85-2.56 20 .13z" class="c29-cls-11" data-color-action="fill" style="fill:inherit"/><path d="M2 32.6h34.98v7.67H2z" class="c29-cls-11" data-color-action="fill" style="fill:inherit"/></g><g id="c79_bridge_abutment" class="c29-cls-8" data-name="bridge abutment"><path d="M41 23.63c.93 2.16 7.3 20.24 5.51 22.92S33.06 57.44 30 57.18s-17.42-7.43-17.8-10S19.87 25.8 21 23.5s18.85-2.56 20 .13z" class="c29-cls-11" data-color-action="fill" style="fill:inherit"/><path d="M2 32.6h55v7.67H2z" class="c29-cls-11" data-color-action="fill" style="fill:inherit"/></g><g id="c79_bridge_pontic" class="c29-cls-8" data-name="bridge pontic"><path d="M41 23.63c.93 2.16 7.3 20.24 5.51 22.92S33.06 57.44 30 57.18s-17.42-7.43-17.8-10S19.87 25.8 21 23.5s18.85-2.56 20 .13z" class="c29-cls-11" data-color-action="fill" style="fill:inherit"/><path d="M2 32.6h55v7.67H2z" class="c29-cls-11" data-color-action="fill" style="fill:inherit"/></g><g id="c79_implant_mini" data-name="implant mini"><path d="M2 2h55v61.98H2z" class="c29-cls-13"/><path d="M29.72 0h-.44l-1 8.5v40.83h2.44V8.5l-1-8.5z" class="c29-cls-11" data-color-action="fill" style="fill:inherit"/><path d="M29.42 0h-.07l-.4 8.5v40.83h.37V8.5l.1-8.5z" class="c29-cls-16"/><path d="M28.28 48.7h2.44v.63h-2.44z" class="c29-cls-17" data-color-action="fill" style="fill:inherit"/><g class="c29-cls-18"><path d="M28.28 48.7l2.44-1v.63l-2.44 1v-.63zM28.28 47.26l2.44-1v.63l-2.44 1v-.63zM28.28 45.81l2.44-1v.63l-2.44 1v-.63zM28.28 44.36l2.44-1V44l-2.44 1v-.64zM28.28 42.92l2.44-1v.63l-2.44 1v-.63zM28.28 41.47l2.44-1v.63l-2.44 1.01v-.64zM28.28 40.03l2.44-1v.63l-2.44 1v-.63zM28.28 38.58l2.44-1v.63l-2.44 1.01v-.64zM28.28 37.14l2.44-1v.63l-2.44 1v-.63zM28.28 35.69l2.44-1v.63l-2.44 1v-.63zM28.28 34.25l2.44-1.01v.64l-2.44 1v-.63zM28.28 32.8l2.44-1v.63l-2.44 1v-.63zM28.28 31.36l2.44-1v.63l-2.44 1v-.63zM28.28 29.91l2.44-1v.63l-2.44 1v-.63zM28.28 28.46l2.44-1v.64l-2.44 1v-.64zM28.28 27.02l2.44-1v.63l-2.44 1v-.63zM28.28 25.57l2.44-1v.63l-2.44 1.01v-.64zM28.28 24.13l2.44-1v.63l-2.44 1v-.63zM28.28 22.68l2.44-1v.63l-2.44 1.01v-.64zM28.28 21.24l2.44-1v.63l-2.44 1v-.63zM28.28 19.79l2.44-1v.63l-2.44 1v-.63zM28.28 18.35l2.44-1.01v.64l-2.44 1v-.63zM28.28 16.9l2.44-1v.63l-2.44 1v-.63zM28.28 15.46l2.44-1v.63l-2.44 1v-.63zM28.28 14.01l2.44-1v.63l-2.44 1v-.63zM28.28 12.56l2.44-1v.64l-2.44 1v-.64zM28.28 11.12l2.44-1v.63l-2.44 1v-.63zM28.28 9.67l2.44-1v.63l-2.44 1.01v-.64zM28.28 8.5l.03-.29 2.27-.92.07.6-2.37.97V8.5zM28.49 6.7l1.93-.79.07.6-2.08.85.08-.66zM28.67 5.18l1.58-.65.08.6-1.74.71.08-.66zM28.85 3.66l1.24-.51.07.6-1.39.57.08-.66zM29.03 2.14l.9-.37.07.6-1.05.43.08-.66zM29.2.62l.57-.23.07.6-.71.3.07-.67z" class="c29-cls-17" data-color-action="fill" style="fill:inherit"/></g><circle cx="29.5" cy="53.21" r="2.24" class="c29-cls-11" data-color-action="fill" style="fill:inherit"/><path d="M27.67 48.99h3.67v3h-3.67z" class="c29-cls-11" data-color-action="fill" style="fill:inherit"/><path d="M28.49 48.99h.55v3h-.55z" class="c29-cls-16"/><path d="M28.7 54.56h-.21a2.32 2.32 0 0 1-.49-1.28 2.37 2.37 0 0 1 .52-1.3H29a2 2 0 0 0-.73 1.37 1.5 1.5 0 0 0 .43 1.21z" class="c29-cls-16"/><path d="M28.28 42.63h2.44v.63h-2.44z" class="c29-cls-17" data-color-action="fill" style="fill:inherit"/><path d="M32.11 49.01h-5.22l.87-5.71h3.48l.87 5.71z" class="c29-cls-11" data-color-action="fill" style="fill:inherit"/><path d="M28.85 49.01h-.79l.48-5.71h.53l-.22 5.71z" class="c29-cls-16"/></g><g id="c79_implant_cylinder" data-name="implant cylinder"><path d="M2 2h55v61.98H2z" class="c29-cls-13"/><path d="M26.17 3h6.67v49.33h-6.67zM24.5 0h10v3h-10z" class="c29-cls-11" data-color-action="fill" style="fill:inherit"/><path d="M28 3h1v49.33h-1zM26.75 0h1.5v3h-1.5z" class="c29-cls-16"/><path d="M24.5 52.36h10v3h-10z" class="c29-cls-11" data-color-action="fill" style="fill:inherit"/><path d="M26.75 52.36h1.5v3h-1.5z" class="c29-cls-16"/><path d="M26.17 3h6.67v.63h-6.67zM26.17 51.7h6.67v.63h-6.67z" class="c29-cls-17" data-color-action="fill" style="fill:inherit"/><g class="c29-cls-18"><path d="M32.83 50.7l-6.66 1v.63l6.66-1v-.63zM32.83 49.25l-6.66 1v.63l6.66-1v-.63zM32.83 47.81l-6.66 1v.63l6.66-1v-.63zM32.83 46.36l-6.66 1v.63l6.66-1v-.63zM32.83 44.92l-6.66 1v.63l6.66-1v-.63zM32.83 43.47l-6.66 1v.63l6.66-1v-.63zM32.83 42.02l-6.66 1v.64l6.66-1v-.64zM32.83 40.58l-6.66 1v.63l6.66-1v-.63zM32.83 39.13l-6.66 1v.64l6.66-1v-.64zM32.83 37.69l-6.66 1v.63l6.66-1v-.63zM32.83 36.24l-6.66 1v.64l6.66-1v-.64zM32.83 34.8l-6.66 1v.63l6.66-1v-.63zM32.83 33.35l-6.66 1v.63l6.66-1v-.63zM32.83 31.91l-6.66 1v.63l6.66-1v-.63zM32.83 30.46l-6.66 1v.63l6.66-1v-.63zM32.83 29.02l-6.66 1v.63l6.66-1v-.63zM32.83 27.57l-6.66 1v.63l6.66-1v-.63zM32.83 26.13l-6.66 1v.63l6.66-1v-.63zM32.83 24.68l-6.66 1v.63l6.66-1v-.63zM32.83 23.23l-6.66 1v.64l6.66-1v-.64zM32.83 21.79l-6.66 1v.63l6.66-1v-.63zM32.83 20.34l-6.66 1v.64l6.66-1v-.64zM32.83 18.9l-6.66 1v.63l6.66-1v-.63zM32.83 17.45l-6.66 1v.64l6.66-1.01v-.63zM32.83 16.01l-6.66 1v.63l6.66-1v-.63zM32.83 14.56l-6.66 1v.63l6.66-1v-.63zM32.83 13.12l-6.66 1v.63l6.66-1v-.63zM32.83 11.67l-6.66 1v.63l6.66-1v-.63zM32.83 10.22l-6.66 1v.64l6.66-1v-.64zM32.83 8.78l-6.66 1v.63l6.66-1v-.63zM32.83 7.33l-6.66 1.01v.63l6.66-1v-.64zM32.83 5.89l-6.66 1v.63l6.66-1v-.63zM32.83 4.44l-6.66 1v.64l6.66-1v-.64zM32.83 3l-6.66 1v.63l6.66-1V3z" class="c29-cls-17" data-color-action="fill" style="fill:inherit"/></g></g><g id="c79_implant_blade" data-name="implant blade"><path d="M2 2h55v61.98H2z" class="c29-cls-13"/><path d="M26.17 3.03h6.67v49.33h-6.67zM24.5 52.36h10v3h-10z" class="c29-cls-11" data-color-action="fill" style="fill:inherit"/><path d="M28 3.03h1v49.33h-1zM26.75 52.36h1.5v3h-1.5z" class="c29-cls-16"/><path d="M26.17 51.73h6.67v.63h-6.67z" class="c29-cls-17" data-color-action="fill" style="fill:inherit"/></g><path id="c79_border" d="M0 0h59v66H0z" class="c29-cls-7" transform="rotate(180 29.5 33)"/></defs></g></svg>