<svg xmlns="http://www.w3.org/2000/svg" viewBox="0 0 59 283"><defs><style>.a27-cls-1{isolation:isolate}.a27-cls-2,.a27-cls-25{fill:#c5c7c9}.a27-cls-25{stroke:none}.a27-cls-2{stroke:#c5c7c9;stroke-width:5px}.a27-cls-19,.a27-cls-2,.a27-cls-22,.a27-cls-24,.a27-cls-26,.a27-cls-27,.a27-cls-30,.a27-cls-32,.a27-cls-33{stroke-miterlimit:10}.a27-cls-3{fill:#f5d7cf;stroke:none}.a27-cls-4,.a27-cls-5{fill:#f2c6bc;stroke:none}.a27-cls-5{fill:#fae8e3}.a27-cls-6,.a27-cls-7{fill:#eeefef;stroke:none}.a27-cls-7{fill:#e2e3e4}.a27-cls-8,.a27-cls-9{fill:#fbfbfb;stroke:none}.a27-cls-9{font-size:15px;fill:#929497;font-family:ProximaNova-Semibold,Proxima Nova,sans-serif;font-weight:700}.a27-cls-10,.a27-cls-28,.a27-cls-36{fill:#3c3d3d;stroke:none}.a27-cls-10{opacity:.55}.a27-cls-11{fill:#ffd403;stroke:none}.a27-cls-13,.a27-cls-21{fill:#ffef3e;stroke:none}.a27-cls-14,.a27-cls-20{fill:#c52636;stroke:none}.a27-cls-15{fill:none;stroke:none}.a27-cls-19,.a27-cls-22,.a27-cls-24,.a27-cls-26,.a27-cls-27,.a27-cls-30,.a27-cls-32,.a27-cls-33{fill:none}.a27-cls-16,.a27-cls-37{fill:#28418b;stroke:none}.a27-cls-17,.a27-cls-18{fill:#787878;stroke:none}.a27-cls-19,.a27-cls-22,.a27-cls-24,.a27-cls-30,.a27-cls-32,.a27-cls-33{stroke:#c52636}.a27-cls-19,.a27-cls-22,.a27-cls-27{stroke-width:2px}.a27-cls-22{stroke-linecap:round}.a27-cls-23{fill:#fff;stroke:none}.a27-cls-26,.a27-cls-27{stroke:#28418b}.a27-cls-26{stroke-width:3px}.a27-cls-29{opacity:.6}.a27-cls-30{stroke-width:4px}.a27-cls-31{fill:#f05b85;stroke:none}.a27-cls-32,.a27-cls-33{stroke-width:1.25px}.a27-cls-34{fill:#9b9999;stroke:none}.a27-cls-35{fill:#dbdbdc;stroke:none}.a27-cls-38{font-size:33px;fill:#28418b;font-family:ProximaNova-Semibold,Proxima Nova,sans-serif;font-weight:700;stroke:none}.c27-cls-1{isolation:isolate}.c27-cls-16,.c27-cls-2{fill:#c5c7c9;stroke:none}.c27-cls-2{stroke:#c5c7c9;stroke-width:5px}.c27-cls-2,.c27-cls-20,.c27-cls-21{stroke-miterlimit:10}.c27-cls-3{fill:#eeefef;stroke:none}.c27-cls-4,.c27-cls-5{fill:#e2e3e4;stroke:none}.c27-cls-5{fill:#fbfbfb}.c27-cls-17,.c27-cls-6{fill:#3c3d3d;stroke:none}.c27-cls-6{opacity:.55}.c27-cls-20,.c27-cls-21{fill:none}.c27-cls-7,.c27-cls-9{fill:none;stroke:none}.c27-cls-9{fill:#28418b}.c27-cls-10,.c27-cls-11{fill:#787878;stroke:none}.c27-cls-12,.c27-cls-19{fill:#ffef3e;stroke:none}.c27-cls-13{fill:#fff;stroke:none}.c27-cls-14,.c27-cls-15{fill:#c52636;stroke:none}.c27-cls-18{opacity:.6}.c27-cls-20,.c27-cls-21{stroke:#c52636;stroke-width:1.25px}.a27-msng-cls-1{isolation:isolate}.a27-msng-cls-2{fill:#c5c7c9;stroke:#c5c7c9;stroke-width:5px}.a27-msng-cls-11,.a27-msng-cls-2{stroke-miterlimit:10}.a27-msng-cls-3{fill:#f5d7cf;stroke:none}.a27-msng-cls-4{fill:#f2c6bc;stroke:none}.a27-msng-cls-5{fill:#fae8e3;stroke:none}.a27-msng-cls-6{fill:#eeefef;stroke:none}.a27-msng-cls-7{fill:#e2e3e4;stroke:none}.a27-msng-cls-8{fill:#fbfbfb;stroke:none}.a27-msng-cls-9{font-size:15px;fill:#929497;font-family:ProximaNova-Semibold,Proxima Nova;font-weight:700;stroke:none}.a27-msng-cls-11{fill:none}.a27-msng-cls-12{fill:none;stroke:none}.a27-msng-cls-11{stroke:#787878;stroke-width:6.25px}</style></defs><g class="a27-cls-1" transform="translate(0 122)"><g id="_27A" data-name="#27A"><path d="M30.31 7.1c2.82-.38 15.37 6 16.14 7s0 9.35-.51 13.7c-.48 4.09-2.46 15.1-4.47 18.52-.12 7.42-.74 24.74-2.32 36.95-1.85 14.3-12 41.42-15.53 40.56s-1.48-30.57-1.73-40.19c-.22-8.52-1.69-28.94-2.46-36.48-1.51-1.31-3.35-8-4-10.64s-4-18.31-3.07-19.72 15.13-9.32 17.95-9.7z" class="a27-cls-2"/><path d="M41.48 43.49c0 4.21-.49 25.52-2.34 39.82s-12 41.42-15.53 40.56-1.48-30.57-1.73-40.19-2.1-34.4-2.71-38.68 22.19-12.24 22.31-1.51z" class="a27-cls-3"/><path d="M36.9 82.66c1.1-9.66 2.33-23.3 2.33-30.29a109.23 109.23 0 0 1 .72-12.55h.09a4.88 4.88 0 0 1 1.45 3.65c0 4.21-.49 25.52-2.34 39.82-1.18 9.14-5.74 23.52-9.81 32.48 1.61-5.2 3.68-12 4.16-14.48a152.07 152.07 0 0 0 3.4-18.63zM21.88 83.68c-.23-9-1.88-31.46-2.59-37.71l1.83.31s1.43 10.93 1.79 19.54.54 20.79.36 26.89a132.55 132.55 0 0 1-1.79 15.67c.01-9.06.52-19.65.4-24.7z" class="a27-cls-4"/><path d="M27.48 49.08c.64 4.05 1.46 16.8 1.31 34.77s-3.94 37.55-4.38 37.25 1.75-29.1 1.32-39.59-.73-21.77-1.9-33.31c-.24-2.33 2.77-4.67 3.65.88z" class="a27-cls-5"/><path d="M41.07 46.93c2.14-2.51 4.35-14.73 4.87-19.08s1.28-12.68.51-13.7-13.32-7.43-16.14-7-17 8.32-17.93 9.73 2.43 17 3.07 19.72 2.56 9.73 4.1 10.76 17.8 3.92 21.52-.43z" class="a27-cls-6"/><path d="M43.13 27.81c.42-4.76 1.06-13.86.42-15a7.11 7.11 0 0 0-1.41-1.27 22.63 22.63 0 0 1 4.3 2.58c.77 1 0 9.35-.51 13.7s-2.72 16.57-4.87 19.08a4.82 4.82 0 0 1-1.68 1.19c1.69-3.62 3.35-15.78 3.75-20.28zM12.38 16.83c.37-.58 3-2.29 6.22-4.12a17.12 17.12 0 0 0-3.3 3.06c-.74 1.54 2 18.62 2.55 21.56a68.49 68.49 0 0 0 2.59 10.33 4 4 0 0 1-.89-.36c-1.54-1-3.46-8.07-4.1-10.76s-3.97-18.3-3.07-19.71z" class="a27-cls-7"/><path d="M26.14 8.73c0 6 0 20.27.16 24.83A111.85 111.85 0 0 0 27.93 49c-1-.1-2-.23-3-.37a85.88 85.88 0 0 1-2.73-14.09c-.44-5.15-1.14-16.23-1.17-23.18 1.77-.97 3.55-1.89 5.11-2.63z" class="a27-cls-8"/><text class="a27-cls-9" transform="translate(21.52 150.74)">77</text></g><defs><g id="a77_bone_graft" data-name="bone graft"><path d="M2 45.83h55v91.86H2z" class="a27-cls-16" transform="rotate(-180 29.5 91.76)" data-color-action="fill" style="fill:inherit"/><path d="M30.31 7.1c2.82-.38 15.37 6 16.14 7s0 9.35-.51 13.7c-.48 4.09-2.46 15.1-4.47 18.52-.12 7.42-.74 24.74-2.32 36.95-1.85 14.3-12 41.42-15.53 40.56s-1.48-30.57-1.73-40.19c-.22-8.52-1.69-28.94-2.46-36.48-1.51-1.31-3.35-8-4-10.64s-4-18.31-3.07-19.72 15.13-9.32 17.95-9.7z" class="a27-cls-2"/><path d="M41.48 43.49c0 4.21-.49 25.52-2.34 39.82s-12 41.42-15.53 40.56-1.48-30.57-1.73-40.19-2.1-34.4-2.71-38.68 22.19-12.24 22.31-1.51z" class="a27-cls-3"/><path d="M36.9 82.66c1.1-9.66 2.33-23.3 2.33-30.29a109.23 109.23 0 0 1 .72-12.55h.09a4.88 4.88 0 0 1 1.45 3.65c0 4.21-.49 25.52-2.34 39.82-1.18 9.14-5.74 23.52-9.81 32.48 1.61-5.2 3.68-12 4.16-14.48a152.07 152.07 0 0 0 3.4-18.63zM21.88 83.68c-.23-9-1.88-31.46-2.59-37.71l1.83.31s1.43 10.93 1.79 19.54.54 20.79.36 26.89a132.55 132.55 0 0 1-1.79 15.67c.01-9.06.52-19.65.4-24.7z" class="a27-cls-4"/><path d="M27.48 49.08c.64 4.05 1.46 16.8 1.31 34.77s-3.94 37.55-4.38 37.25 1.75-29.1 1.32-39.59-.73-21.77-1.9-33.31c-.24-2.33 2.77-4.67 3.65.88z" class="a27-cls-5"/><path d="M41.07 46.93c2.14-2.51 4.35-14.73 4.87-19.08s1.28-12.68.51-13.7-13.32-7.43-16.14-7-17 8.32-17.93 9.73 2.43 17 3.07 19.72 2.56 9.73 4.1 10.76 17.8 3.92 21.52-.43z" class="a27-cls-6"/><path d="M43.13 27.81c.42-4.76 1.06-13.86.42-15a7.11 7.11 0 0 0-1.41-1.27 22.63 22.63 0 0 1 4.3 2.58c.77 1 0 9.35-.51 13.7s-2.72 16.57-4.87 19.08a4.82 4.82 0 0 1-1.68 1.19c1.69-3.62 3.35-15.78 3.75-20.28zM12.38 16.83c.37-.58 3-2.29 6.22-4.12a17.12 17.12 0 0 0-3.3 3.06c-.74 1.54 2 18.62 2.55 21.56a68.49 68.49 0 0 0 2.59 10.33 4 4 0 0 1-.89-.36c-1.54-1-3.46-8.07-4.1-10.76s-3.97-18.3-3.07-19.71z" class="a27-cls-7"/><path d="M26.14 8.73c0 6 0 20.27.16 24.83A111.85 111.85 0 0 0 27.93 49c-1-.1-2-.23-3-.37a85.88 85.88 0 0 1-2.73-14.09c-.44-5.15-1.14-16.23-1.17-23.18 1.77-.97 3.55-1.89 5.11-2.63z" class="a27-cls-8"/></g><g id="a77_splinted_crowns" data-name="splinted crowns"><path d="M2 45.76h55v7.67H2z" class="a27-cls-21" data-color-action="fill" style="fill:inherit"/><path d="M30.31 7.1c2.82-.38 15.37 6 16.14 7s0 9.35-.51 13.7c-.48 4.09-2.46 15.1-4.47 18.52-.12 7.42-.74 24.74-2.32 36.95-1.85 14.3-12 41.42-15.53 40.56s-1.48-30.57-1.73-40.19c-.22-8.52-1.69-28.94-2.46-36.48-1.51-1.31-3.35-8-4-10.64s-4-18.31-3.07-19.72 15.13-9.32 17.95-9.7z" class="a27-cls-2"/><path d="M41.48 43.49c0 4.21-.49 25.52-2.34 39.82s-12 41.42-15.53 40.56-1.48-30.57-1.73-40.19-2.1-34.4-2.71-38.68 22.19-12.24 22.31-1.51z" class="a27-cls-3"/><path d="M36.9 82.66c1.1-9.66 2.33-23.3 2.33-30.29a109.23 109.23 0 0 1 .72-12.55h.09a4.88 4.88 0 0 1 1.45 3.65c0 4.21-.49 25.52-2.34 39.82-1.18 9.14-5.74 23.52-9.81 32.48 1.61-5.2 3.68-12 4.16-14.48a152.07 152.07 0 0 0 3.4-18.63zM21.88 83.68c-.23-9-1.88-31.46-2.59-37.71l1.83.31s1.43 10.93 1.79 19.54.54 20.79.36 26.89a132.55 132.55 0 0 1-1.79 15.67c.01-9.06.52-19.65.4-24.7z" class="a27-cls-4"/><path d="M27.48 49.08c.64 4.05 1.46 16.8 1.31 34.77s-3.94 37.55-4.38 37.25 1.75-29.1 1.32-39.59-.73-21.77-1.9-33.31c-.24-2.33 2.77-4.67 3.65.88z" class="a27-cls-5"/><path d="M41.07 46.93c2.14-2.51 4.35-14.73 4.87-19.08s1.28-12.68.51-13.7-13.32-7.43-16.14-7-17 8.32-17.93 9.73 2.43 17 3.07 19.72 2.56 9.73 4.1 10.76 17.8 3.92 21.52-.43z" class="a27-cls-6"/><path d="M43.13 27.81c.42-4.76 1.06-13.86.42-15a7.11 7.11 0 0 0-1.41-1.27 22.63 22.63 0 0 1 4.3 2.58c.77 1 0 9.35-.51 13.7s-2.72 16.57-4.87 19.08a4.82 4.82 0 0 1-1.68 1.19c1.69-3.62 3.35-15.78 3.75-20.28zM12.38 16.83c.37-.58 3-2.29 6.22-4.12a17.12 17.12 0 0 0-3.3 3.06c-.74 1.54 2 18.62 2.55 21.56a68.49 68.49 0 0 0 2.59 10.33 4 4 0 0 1-.89-.36c-1.54-1-3.46-8.07-4.1-10.76s-3.97-18.3-3.07-19.71z" class="a27-cls-7"/><path d="M26.14 8.73c0 6 0 20.27.16 24.83A111.85 111.85 0 0 0 27.93 49c-1-.1-2-.23-3-.37a85.88 85.88 0 0 1-2.73-14.09c-.44-5.15-1.14-16.23-1.17-23.18 1.77-.97 3.55-1.89 5.11-2.63z" class="a27-cls-8"/></g><path id="a77_facial_V" d="M20.91 47.81c3.73 1 13.64 2.43 18.36.37a14.86 14.86 0 0 0-18.36-.37z" class="a27-cls-10" data-color-action="fill" style="fill:inherit" data-name="facial V"/><path id="a77_mid_facial" d="M24.9 30.85c-.05-5.56 2.07-10 4.73-9.91s4.75 4.7 4.74 10.18-2.09 9.71-4.66 9.67-4.71-4.46-4.81-9.94z" class="a27-cls-10" data-color-action="fill" style="fill:inherit" data-name="mid facial"/><path id="a77_mesial" d="M46.51 14.28l-5.2 6.78a7.27 7.27 0 0 1 .69 2.5 12.29 12.29 0 0 0 3.41 7.85c.24-1.42.42-2.66.52-3.56.5-4.22 1.23-12.13.58-13.57z" class="a27-cls-10" data-color-action="fill" style="fill:inherit"/><path id="a77_line_angle_2" d="M33.7 16.72c3.6.49 6.36 1.8 7.61 4.34l5.2-6.78v-.08c-3.7-1.23-8-2.5-11.3-3.25z" class="a27-cls-10" data-color-action="fill" style="fill:inherit" data-name="line angle 2"/><path id="a77_facial" d="M30.39 10.3a38.62 38.62 0 0 0-6.17 1.6l1.63 4.85a24.49 24.49 0 0 1 4.09-.28 28.66 28.66 0 0 1 3.76.25l1.47-5.77a18.72 18.72 0 0 0-4.78-.65z" class="a27-cls-10" data-color-action="fill" style="fill:inherit"/><path id="a77_line_angle_1" d="M19.36 22.16c1.09-3.24 3-4.83 6.49-5.41l-1.63-4.85c-3 1-6.64 2.23-10 3.49l-.22.14z" class="a27-cls-10" data-color-action="fill" style="fill:inherit" data-name="line angle 1"/><path id="a77_distal" d="M18.44 26.48a22.65 22.65 0 0 1 .92-4.32L14 15.54a7.3 7.3 0 0 0-1.61 1.29c-.63 1 .84 9.07 2 14.69a6.35 6.35 0 0 0 4.05-5.04z" class="a27-cls-10" data-color-action="fill" style="fill:inherit"/><path id="a77_mesial_incisal" d="M46.47 14.2v-.06c-.51-.67-6.1-3.67-10.68-5.54l-.6 2.34c3.31.76 7.59 2.06 11.28 3.26z" class="a27-cls-10" data-color-action="fill" style="fill:inherit" data-name="mesial incisal"/><path id="a77_central_incisal" d="M30.39 10.3a18.72 18.72 0 0 1 4.78.65l.6-2.34c-2.39-1-4.49-1.64-5.46-1.51a32.58 32.58 0 0 0-6.73 2.9l.64 1.9a38.62 38.62 0 0 1 6.17-1.6z" class="a27-cls-10" data-color-action="fill" style="fill:inherit" data-name="central incisal"/><path id="a77_distal_incisal" d="M23.58 10c-3.41 1.76-7.18 3.93-9.38 5.39 3.37-1.26 7-2.53 10-3.49z" class="a27-cls-10" data-color-action="fill" style="fill:inherit" data-name="distal incisal"/><path id="a77_veneer" d="M41.07 46.93c2.14-2.51 4.35-14.73 4.87-19.08s1.28-12.68.51-13.7-13.32-7.43-16.14-7-17 8.32-17.93 9.73 2.43 17 3.07 19.72 2.56 9.73 4.1 10.76 17.8 3.92 21.52-.43z" class="a27-cls-12 a27-cls-13" data-color-action="fill" style="fill:inherit"/><path id="a77_tissue_graft" d="M46.97 63.34L29.5 49.46 12.03 63.34h34.94z" class="a27-cls-14" data-color-action="fill" style="fill:inherit" data-name="tissue graft"/><path id="a77_tipped_lingual" d="M28 154.75h3v3h-3z" class="a27-cls-15" data-name="tipped lingual"/><g id="a77_tipped_facial" class="a27-cls-12" data-name="tipped facial"><path d="M25.85 5.1c1.26-3.37 4.74-3.85 7.69 5.32.5 1.56 4.42 1.76 3.84 0-2-6.08-5.31-10.2-9.06-9.27a4.86 4.86 0 0 0-3 3.38c.19.17.42.47.53.57z" class="a27-cls-16" data-color-action="fill" style="fill:inherit"/><path d="M27.93 8.02h12.94l-2.94 9.64-10-9.64z" class="a27-cls-16" data-color-action="fill" style="fill:inherit"/></g><path id="a77_surface_restoration_mesial" d="M46.45 14.14c.77 1 0 9.35-.51 13.7-.24 2.07-.87 5.93-1.7 9.68a11.52 11.52 0 0 0-7 6.24C38 37.26 38.68 29.62 39 27c.4-3.38.64-6.42.74-8.52L46 13.77a2.26 2.26 0 0 1 .45.37z" class="a27-cls-17" data-color-action="fill" style="fill:inherit" data-name="surface restoration mesial"/><path id="a77_surface_restoration_facial" d="M23.47 45.45a11.46 11.46 0 0 0-1.05-2.66c-1.18-8.68-2.6-20-2.95-22.47a109.4 109.4 0 0 1 11.42-6.08 68 68 0 0 1 8.85 3.95c-.09 2.1-.34 5.28-.76 8.83-.3 2.59-1 10.23-1.79 16.74a11.67 11.67 0 0 0-.53 1.43 15.38 15.38 0 0 0-13.2.26z" class="a27-cls-12 a27-cls-18" data-color-action="fill" style="fill:inherit" data-name="surface restoration facial"/><path id="a77_surface_restoration_facial_V" d="M36.19 49a42.84 42.84 0 0 1-12.36-.55v-.11a11.48 11.48 0 0 0-.37-2.88 15.38 15.38 0 0 1 13.2-.26 11.35 11.35 0 0 0-.5 3.3l.03.5z" class="a27-cls-12 a27-cls-18" data-color-action="fill" style="fill:inherit" data-name="surface restoration facial V"/><path id="a77_surface_restoration_distal" d="M12.69 16.5l6.83 4.23c.42 3.1 1.77 13.78 2.89 22.07a11.52 11.52 0 0 0-6.77-5.47l-.19-.77c-.64-2.69-4-18.31-3.07-19.72a1.8 1.8 0 0 1 .31-.34z" class="a27-cls-17" data-color-action="fill" style="fill:inherit" data-name="surface restoration distal"/><path id="a77_surface_restoration_incisal" d="M30.31 7.1c2.58-.35 13.31 5 15.7 6.67l-6.28 4.74v-.31a68 68 0 0 0-8.85-3.95 109.4 109.4 0 0 0-11.42 6.08l.06.41-6.83-4.24C15 14.47 27.67 7.46 30.31 7.1z" class="a27-cls-17" data-color-action="fill" style="fill:inherit" data-name="surface restoration incisal"/><g id="a77_supra-erupted" class="a27-cls-12"><path d="M30.5 56.12v7.68" class="a27-cls-19" data-color-action="stroke" style="stroke:inherit"/><path d="M26.51 57.29l3.99-6.91 3.99 6.91h-7.98z" class="a27-cls-20" data-color-action="fill" style="fill:inherit"/></g><g id="a77_sub-erupted" class="a27-cls-12"><path d="M30.5 58.06v-7.68" class="a27-cls-19" data-color-action="stroke" style="stroke:inherit"/><path d="M34.49 56.89L30.5 63.8l-3.99-6.91h7.98z" class="a27-cls-20" data-color-action="fill" style="fill:inherit"/></g><text id="a77_sealant" class="a27-cls-38" transform="translate(19.7 -18.45)" data-color-action="fill" style="fill:inherit">S</text><g id="a77_rotated_mesial" class="a27-cls-12" data-name="rotated mesial"><path d="M5.87 32.82C2.88 31 3.56 27.36 16.1 27c5.3-.15 8.95 0 8.95 0L25 24s-1-.07-8.22.24c-7.62.32-14 1.83-13.75 6a4 4 0 0 0 2.31 2.92c.15-.16.4-.27.53-.34z" class="a27-cls-16" data-color-action="fill" style="fill:inherit"/><path d="M18.57 31.53V19.64l10.4 5.9-10.4 5.99z" class="a27-cls-16" data-color-action="fill" style="fill:inherit"/></g><g id="a77_rotated_distal" class="a27-cls-12" data-name="rotated distal"><path d="M53.13 32.82c3-1.79 2.3-5.46-10.23-5.81-5.3-.15-8.95 0-8.95 0L34 24s1-.07 8.22.24c7.62.32 14 1.83 13.75 6a4 4 0 0 1-2.31 2.92c-.15-.16-.4-.27-.53-.34z" class="a27-cls-16" data-color-action="fill" style="fill:inherit"/><path d="M40.43 31.53V19.64l-10.4 5.9 10.4 5.99z" class="a27-cls-16" data-color-action="fill" style="fill:inherit"/></g><circle id="a77_root_decay" cx="27.4" cy="106.13" r="4.33" class="a27-cls-12 a27-cls-18" data-color-action="fill" style="fill:inherit" data-name="root decay"/><path id="a77_root_canal" d="M24.33 119.17l5.34-65.67" class="a27-cls-22" data-color-action="stroke" style="stroke:inherit" data-name="root canal"/><path id="a77_root_abrasion" d="M25.56 97.75h3.5v13.83h-3.5z" class="a27-cls-12 a27-cls-24" data-color-action="stroke" style="stroke:inherit" data-name="root abrasion"/><g id="a77_post"><path d="M27.5 31.84h3.14v41.77H27.5z" class="a27-cls-18" data-color-action="fill" style="fill:inherit"/><path d="M28.37 31.84h.47v41.77h-.47z" class="a27-cls-25"/></g><g id="a77_pins"><path d="M25.32 39.84h2.42v23.43h-2.42z" class="a27-cls-18" data-color-action="fill" style="fill:inherit"/><path d="M25.99 39.84h.36v23.43h-.36z" class="a27-cls-25"/><path d="M29.91 39.84h2.42v23.43h-2.42z" class="a27-cls-18" data-color-action="fill" style="fill:inherit"/><path d="M30.57 39.84h.36v23.43h-.36z" class="a27-cls-25"/></g><path id="a77_open_contact_mesial" d="M33.69 56.01l7.5-4.75 7.5 4.75" class="a27-cls-26" data-color-action="stroke" style="stroke:inherit" data-name="open contact mesial"/><path id="a77_open_contact_distal" d="M10.67 56.01l7.5-4.75 7.5 4.75" class="a27-cls-26" data-color-action="stroke" style="stroke:inherit" data-name="open contact distal"/><g id="a77_mesial_drift" class="a27-cls-12" data-name="mesial drift"><path d="M32.59 27.84H20.67" class="a27-cls-27" data-color-action="stroke" style="stroke:inherit"/><path d="M31.43 23.85l6.9 3.99-6.9 3.98v-7.97z" class="a27-cls-16" data-color-action="fill" style="fill:inherit"/></g><path id="a77_lingual_abfraction" d="M28 154.75h3v3h-3z" class="a27-cls-15" data-name="lingual abfraction"/><ellipse id="a77_internal_root_resorption" cx="27.91" cy="101.4" class="a27-cls-12 a27-cls-20" rx="9.84" ry="3.98" transform="rotate(-86.81 27.906 101.4)" data-color-action="fill" style="fill:inherit" data-name="internal root resorption"/><g id="a77_impacted_mesial" class="a27-cls-12" data-name="impacted mesial"><ellipse cx="29.5" cy="68.87" class="a27-cls-27" rx="24.15" ry="67.46" data-color-action="stroke" style="stroke:inherit"/><path d="M18.09 68.87H5.33" class="a27-cls-27" data-color-action="stroke" style="stroke:inherit"/><path d="M16.93 64.88l6.9 3.99-6.9 3.99v-7.98z" class="a27-cls-16" data-color-action="fill" style="fill:inherit"/></g><g id="a77_impacted_distal" class="a27-cls-12" data-name="impacted distal"><ellipse cx="29.49" cy="68.87" class="a27-cls-27" rx="24.15" ry="67.46" data-color-action="stroke" style="stroke:inherit"/><path d="M40.89 68.87h12.76" class="a27-cls-27" data-color-action="stroke" style="stroke:inherit"/><path d="M42.06 72.86l-6.91-3.99 6.91-3.99v7.98z" class="a27-cls-16" data-color-action="fill" style="fill:inherit"/></g><path id="a77_gortex_membranes" d="M2 45.75h55v16.42H2z" class="a27-cls-14" data-color-action="fill" style="fill:inherit" data-name="gortex membranes"/><path id="a77_frenum_pull" d="M19.51 50.42l10.66 6.75 10.65-6.75" class="a27-cls-30" data-color-action="stroke" style="stroke:inherit" data-name="frenum pull"/><path id="a77_external_root_resorption" d="M34.43 85.33A10.64 10.64 0 0 0 37 93.76a86.84 86.84 0 0 0 2.16-10.45c.22-1.73.43-3.55.61-5.44a9.35 9.35 0 0 0-5.34 7.46zM21.56 76.4c.15 2.84.27 5.36.32 7.28.06 2.44 0 6.18-.13 10.42 1.55-.66 4.74-2.74 4.64-8.65s-3.25-8.22-4.83-9.05z" class="a27-cls-12 a27-cls-20" data-color-action="fill" style="fill:inherit" data-name="external root resorption"/><g id="a77_distal_drift" class="a27-cls-12" data-name="distal drift"><path d="M26.41 27.84h11.92" class="a27-cls-27" data-color-action="stroke" style="stroke:inherit"/><path d="M27.57 31.82l-6.9-3.98 6.9-3.99v7.97z" class="a27-cls-16" data-color-action="fill" style="fill:inherit"/></g><path id="a77_three_quarter_crown" d="M45.67 29.82c.11-.76.21-1.43.27-2 .51-4.35 1.28-12.68.51-13.7s-13.32-7.43-16.14-7-17 8.32-17.93 9.73c-.57.9.57 7.57 1.65 13z" class="a27-cls-21" data-color-action="fill" style="fill:inherit" data-name="three quarter crown"/><path id="a77_crown" d="M41.07 46.93c2.14-2.51 4.35-14.73 4.87-19.08s1.28-12.68.51-13.7-13.32-7.43-16.14-7-17 8.32-17.93 9.73 2.43 17 3.07 19.72 2.56 9.73 4.1 10.76 17.8 3.92 21.52-.43z" class="a27-cls-12 a27-cls-13" data-color-action="fill" style="fill:inherit"/><path id="a77_cracked_surface_incisal" d="M30.83 15.16L27 11.33h5l-5-4.75h5l-3.83-3.83" class="a27-cls-32" data-color-action="stroke" style="stroke:inherit" data-name="cracked surface incisal"/><path id="a77_cracked_surface_distal" d="M17.66 35.18l-3.83-3.84h5.01l-5.01-4.74h5.01l-3.83-3.83" class="a27-cls-32" data-color-action="stroke" style="stroke:inherit" data-name="cracked surface distal"/><path id="a77_cracked_surface_facial" d="M30.83 35.18L27 31.34h5l-5-4.74h5l-3.83-3.83" class="a27-cls-32" data-color-action="stroke" style="stroke:inherit" data-name="cracked surface facial"/><path id="a77_cracked_surface_facial_V" d="M30.83 35.18L27 31.34h5l-5-4.74h5l-3.83-3.83" class="a27-cls-32" data-color-action="stroke" style="stroke:inherit" data-name="cracked surface facial V"/><path id="a77_cracked_surface_mesial" d="M45.66 35.18l-3.83-3.84h5l-5-4.74h5L43 22.77" class="a27-cls-32" data-color-action="stroke" style="stroke:inherit" data-name="cracked surface mesial"/><g id="a77_chipped_surface_incisal" class="a27-cls-12" data-name="chipped surface incisal"><path d="M33.33 13.49L25 5.16M25 13.49l8.33-8.33" class="a27-cls-33" data-color-action="stroke" style="stroke:inherit"/></g><g id="a77_chipped_surface_distal" class="a27-cls-12" data-name="chipped surface distal"><path d="M21.17 33.5l-8.33-8.33M12.84 33.5l8.33-8.33" class="a27-cls-33" data-color-action="stroke" style="stroke:inherit"/></g><g id="a77_chipped_surface_facial" class="a27-cls-12" data-name="chipped surface facial"><path d="M33.33 33.5L25 25.17M25 33.5l8.33-8.33" class="a27-cls-33" data-color-action="stroke" style="stroke:inherit"/></g><g id="a77_chipped_surface_facial_V" class="a27-cls-12" data-name="chipped surface facial V"><path d="M33.33 33.5L25 25.17M25 33.5l8.33-8.33" class="a27-cls-33" data-color-action="stroke" style="stroke:inherit"/></g><g id="a77_chipped_surface_mesial" class="a27-cls-12" data-name="chipped surface mesial"><path d="M47.33 33.5L39 25.17M39 33.5l8.33-8.33" class="a27-cls-33" data-color-action="stroke" style="stroke:inherit"/></g><path id="a77_buccal_abfraction" d="M40.78 49.25a20.1 20.1 0 0 0-11.11-3.92 20.1 20.1 0 0 0-11.11 3.92 20.1 20.1 0 0 0 11.11 3.92 20.1 20.1 0 0 0 11.11-3.92z" class="a27-cls-14" data-color-action="fill" style="fill:inherit" data-name="buccal abfraction"/><g id="a77_braces"><path d="M22.59 20.84h13.45v18.19H22.59z" class="a27-cls-25"/><path d="M22.59 20.84h13.45v.68H22.59zM22.59 28.43h13.45v1.36H22.59z" class="a27-cls-34" data-color-action="fill" style="fill:inherit"/><path d="M22.59 38.14h13.45v.89H22.59z" class="a27-cls-35" data-color-action="fill" style="fill:inherit"/><rect width="4.11" height="7.94" x="22.3" y="31.07" class="a27-cls-28" rx=".49" ry=".49" data-color-action="fill" style="fill:inherit"/><path d="M25.92 39h-3.13a.49.49 0 0 1-.49-.49v-5.83a13.14 13.14 0 0 1 4.11 0v5.83a.49.49 0 0 1-.49.49z" class="a27-cls-18" data-color-action="fill" style="fill:inherit"/><path d="M26.08 37.6v1.11a.16.16 0 0 1-.16.16h-3.13a.16.16 0 0 1-.16-.16V37.6z" class="a27-cls-25"/><rect width="4.11" height="7.94" x="32.22" y="31.07" class="a27-cls-28" rx=".49" ry=".49" data-color-action="fill" style="fill:inherit"/><path d="M35.84 39h-3.13a.49.49 0 0 1-.49-.49v-5.83a13.14 13.14 0 0 1 4.11 0v5.83a.49.49 0 0 1-.49.49z" class="a27-cls-18" data-color-action="fill" style="fill:inherit"/><path d="M36 37.6v1.11a.16.16 0 0 1-.16.16h-3.13a.16.16 0 0 1-.16-.16V37.6z" class="a27-cls-25"/><rect width="4.11" height="7.94" x="22.3" y="20.79" class="a27-cls-28" rx=".49" ry=".49" data-color-action="fill" style="fill:inherit"/><path d="M25.92 28.73h-3.13a.49.49 0 0 1-.49-.49V22.4a13.14 13.14 0 0 1 4.11 0v5.83a.49.49 0 0 1-.49.5z" class="a27-cls-18" data-color-action="fill" style="fill:inherit"/><path d="M26.08 27.32v1.11a.16.16 0 0 1-.16.16h-3.13a.16.16 0 0 1-.16-.16v-1.11z" class="a27-cls-25"/><rect width="4.11" height="7.94" x="32.22" y="20.79" class="a27-cls-28" rx=".49" ry=".49" data-color-action="fill" style="fill:inherit"/><path d="M35.84 28.73h-3.13a.49.49 0 0 1-.49-.49V22.4a13.14 13.14 0 0 1 4.11 0v5.83a.49.49 0 0 1-.49.5z" class="a27-cls-18" data-color-action="fill" style="fill:inherit"/><path d="M36 27.32v1.11a.16.16 0 0 1-.16.16h-3.13a.16.16 0 0 1-.16-.16v-1.11z" class="a27-cls-25"/><path d="M8.21 29.17h42.21v1.45H8.21z" class="a27-cls-18" data-color-action="fill" style="fill:inherit"/><path d="M8.21 29.17h42.21v.25H8.21z" class="a27-cls-28" data-color-action="fill" style="fill:inherit"/><path d="M8.21 30.02h42.21v.4H8.21z" class="a27-cls-25"/></g><path id="a77_apicoectomy" d="M36.84 133.86l-7.34-11.67-7.34 11.67h14.68z" class="a27-cls-17" data-color-action="fill" style="fill:inherit"/><circle id="a77_abscess" cx="29.5" cy="129.36" r="6.5" class="a27-cls-37" data-color-action="fill" style="fill:inherit"/><g id="a77_blunted_roots" data-name="blunted roots"><path d="M2 77.01h55V139H2z" class="a27-cls-23"/><path d="M2 74.92h55v2H2z" class="a27-cls-36" data-color-action="fill" style="fill:inherit"/></g><path id="a77_root_amputation" d="M2 48.9h55v90.43H2z" class="a27-cls-23" data-name="root amputation"/><path id="a77_missing_crown" d="M2 1.83h55v47.15H2z" class="a27-cls-23" data-name="missing crown"/><g id="a77_missing_tooth" data-name="missing tooth"><path d="M30.31 7.1c2.82-.38 15.37 6 16.14 7s0 9.35-.51 13.7c-.48 4.09-2.46 15.1-4.47 18.52-.12 7.42-.74 24.74-2.32 36.95-1.85 14.3-12 41.42-15.53 40.56s-1.48-30.57-1.73-40.19c-.22-8.52-1.69-28.94-2.46-36.48-1.51-1.31-3.35-8-4-10.64s-4-18.31-3.07-19.72 15.13-9.32 17.95-9.7z" class="a27-cls-2"/><path d="M41.48 43.49c0 4.21-.49 25.52-2.34 39.82s-12 41.42-15.53 40.56-1.48-30.57-1.73-40.19-2.1-34.4-2.71-38.68 22.19-12.24 22.31-1.51z" class="a27-cls-23"/><path d="M36.9 82.66c1.1-9.66 2.33-23.3 2.33-30.29a109.23 109.23 0 0 1 .72-12.55h.09a4.88 4.88 0 0 1 1.45 3.65c0 4.21-.49 25.52-2.34 39.82-1.18 9.14-5.74 23.52-9.81 32.48 1.61-5.2 3.68-12 4.16-14.48a152.07 152.07 0 0 0 3.4-18.63zM21.88 83.68c-.23-9-1.88-31.46-2.59-37.71l1.83.31s1.43 10.93 1.79 19.54.54 20.79.36 26.89a132.55 132.55 0 0 1-1.79 15.67c.01-9.06.52-19.65.4-24.7zM27.48 49.08c.64 4.05 1.46 16.8 1.31 34.77s-3.94 37.55-4.38 37.25 1.75-29.1 1.32-39.59-.73-21.77-1.9-33.31c-.24-2.33 2.77-4.67 3.65.88z" class="a27-cls-23"/><path d="M41.07 46.93c2.14-2.51 4.35-14.73 4.87-19.08s1.28-12.68.51-13.7-13.32-7.43-16.14-7-17 8.32-17.93 9.73 2.43 17 3.07 19.72 2.56 9.73 4.1 10.76 17.8 3.92 21.52-.43z" class="a27-cls-23"/><path d="M43.13 27.81c.42-4.76 1.06-13.86.42-15a7.11 7.11 0 0 0-1.41-1.27 22.63 22.63 0 0 1 4.3 2.58c.77 1 0 9.35-.51 13.7s-2.72 16.57-4.87 19.08a4.82 4.82 0 0 1-1.68 1.19c1.69-3.62 3.35-15.78 3.75-20.28zM12.38 16.83c.37-.58 3-2.29 6.22-4.12a17.12 17.12 0 0 0-3.3 3.06c-.74 1.54 2 18.62 2.55 21.56a68.49 68.49 0 0 0 2.59 10.33 4 4 0 0 1-.89-.36c-1.54-1-3.46-8.07-4.1-10.76s-3.97-18.3-3.07-19.71zM26.14 8.73c0 6 0 20.27.16 24.83A111.85 111.85 0 0 0 27.93 49c-1-.1-2-.23-3-.37a85.88 85.88 0 0 1-2.73-14.09c-.44-5.15-1.14-16.23-1.17-23.18 1.77-.97 3.55-1.89 5.11-2.63z" class="a27-cls-23"/></g><g id="a77_extracted_tooth" class="a27-msng-cls-10" data-name="extracted tooth"><path d="M9 10.51l41.67 41.66M50.67 10.51L9 52.17" class="a27-msng-cls-11" data-color-action="stroke" style="stroke:inherit"/></g><g id="a77_denture"><path d="M2 2.83h55v135.01H2z" class="a27-cls-23" transform="rotate(-180 29.5 70.34)"/><path d="M57 60.78A22.63 22.63 0 0 1 44.78 64c-7.64 0-10-3.22-15.79-3.22S19.15 64 13.2 64A24.26 24.26 0 0 1 2 60.78V2.83h55z" class="a27-cls-31" data-color-action="fill" style="fill:inherit"/><path d="M41.07 46.93c2.14-2.51 4.35-14.73 4.87-19.08s1.28-12.68.51-13.7-13.32-7.43-16.14-7-17 8.32-17.93 9.73 2.43 17 3.07 19.72 2.56 9.73 4.1 10.76 17.8 3.92 21.52-.43z" class="a27-cls-2"/><path d="M41.07 46.93c2.14-2.51 4.35-14.73 4.87-19.08s1.28-12.68.51-13.7-13.32-7.43-16.14-7-17 8.32-17.93 9.73 2.43 17 3.07 19.72 2.56 9.73 4.1 10.76 17.8 3.92 21.52-.43z" class="a27-cls-6"/><path d="M43.13 27.81c.42-4.76 1.06-13.86.42-15a7.11 7.11 0 0 0-1.41-1.27 22.63 22.63 0 0 1 4.3 2.58c.77 1 0 9.35-.51 13.7s-2.72 16.57-4.87 19.08a4.82 4.82 0 0 1-1.68 1.19c1.69-3.62 3.35-15.78 3.75-20.28zM12.38 16.83c.37-.58 3-2.29 6.22-4.12a17.12 17.12 0 0 0-3.3 3.06c-.74 1.54 2 18.62 2.55 21.56a68.49 68.49 0 0 0 2.59 10.33 4 4 0 0 1-.89-.36c-1.54-1-3.46-8.07-4.1-10.76s-3.97-18.3-3.07-19.71z" class="a27-cls-7"/><path d="M26.14 8.73c0 6 0 20.27.16 24.83A111.85 111.85 0 0 0 27.93 49c-1-.1-2-.23-3-.37a85.88 85.88 0 0 1-2.73-14.09c-.44-5.15-1.14-16.23-1.17-23.18 1.77-.97 3.55-1.89 5.11-2.63z" class="a27-cls-8"/></g><g id="a77_maryland_bridge_pontic" class="a27-cls-12" data-name="maryland bridge pontic"><path d="M41.07 46.93c2.14-2.51 4.35-14.73 4.87-19.08s1.28-12.68.51-13.7-13.32-7.43-16.14-7-17 8.32-17.93 9.73 2.43 17 3.07 19.72 2.56 9.73 4.1 10.76 17.8 3.92 21.52-.43z" class="a27-cls-20" data-color-action="fill" style="fill:inherit"/><path d="M2 26h55v7.67H2z" class="a27-cls-20" data-color-action="fill" style="fill:inherit"/></g><g id="a77_maryland_bridge_abutment_mesial" data-name="maryland bridge abutment mesial"><path d="M22.02 26H57v7.67H22.02z" class="a27-cls-12 a27-cls-20" data-color-action="fill" style="fill:inherit"/><path d="M30.31 7.1c2.82-.38 15.37 6 16.14 7s0 9.35-.51 13.7c-.48 4.09-2.46 15.1-4.47 18.52-.12 7.42-.74 24.74-2.32 36.95-1.85 14.3-12 41.42-15.53 40.56s-1.48-30.57-1.73-40.19c-.22-8.52-1.69-28.94-2.46-36.48-1.51-1.31-3.35-8-4-10.64s-4-18.31-3.07-19.72 15.13-9.32 17.95-9.7z" class="a27-cls-2"/><path d="M41.48 43.49c0 4.21-.49 25.52-2.34 39.82s-12 41.42-15.53 40.56-1.48-30.57-1.73-40.19-2.1-34.4-2.71-38.68 22.19-12.24 22.31-1.51z" class="a27-cls-3"/><path d="M36.9 82.66c1.1-9.66 2.33-23.3 2.33-30.29a109.23 109.23 0 0 1 .72-12.55h.09a4.88 4.88 0 0 1 1.45 3.65c0 4.21-.49 25.52-2.34 39.82-1.18 9.14-5.74 23.52-9.81 32.48 1.61-5.2 3.68-12 4.16-14.48a152.07 152.07 0 0 0 3.4-18.63zM21.88 83.68c-.23-9-1.88-31.46-2.59-37.71l1.83.31s1.43 10.93 1.79 19.54.54 20.79.36 26.89a132.55 132.55 0 0 1-1.79 15.67c.01-9.06.52-19.65.4-24.7z" class="a27-cls-4"/><path d="M27.48 49.08c.64 4.05 1.46 16.8 1.31 34.77s-3.94 37.55-4.38 37.25 1.75-29.1 1.32-39.59-.73-21.77-1.9-33.31c-.24-2.33 2.77-4.67 3.65.88z" class="a27-cls-5"/><path d="M41.07 46.93c2.14-2.51 4.35-14.73 4.87-19.08s1.28-12.68.51-13.7-13.32-7.43-16.14-7-17 8.32-17.93 9.73 2.43 17 3.07 19.72 2.56 9.73 4.1 10.76 17.8 3.92 21.52-.43z" class="a27-cls-6"/><path d="M43.13 27.81c.42-4.76 1.06-13.86.42-15a7.11 7.11 0 0 0-1.41-1.27 22.63 22.63 0 0 1 4.3 2.58c.77 1 0 9.35-.51 13.7s-2.72 16.57-4.87 19.08a4.82 4.82 0 0 1-1.68 1.19c1.69-3.62 3.35-15.78 3.75-20.28zM12.38 16.83c.37-.58 3-2.29 6.22-4.12a17.12 17.12 0 0 0-3.3 3.06c-.74 1.54 2 18.62 2.55 21.56a68.49 68.49 0 0 0 2.59 10.33 4 4 0 0 1-.89-.36c-1.54-1-3.46-8.07-4.1-10.76s-3.97-18.3-3.07-19.71z" class="a27-cls-7"/><path d="M26.14 8.73c0 6 0 20.27.16 24.83A111.85 111.85 0 0 0 27.93 49c-1-.1-2-.23-3-.37a85.88 85.88 0 0 1-2.73-14.09c-.44-5.15-1.14-16.23-1.17-23.18 1.77-.97 3.55-1.89 5.11-2.63z" class="a27-cls-8"/></g><g id="a77_maryland_bridge_abutment_distal" data-name="maryland bridge abutment distal"><path d="M2 26h34.98v7.67H2z" class="a27-cls-12 a27-cls-20" data-color-action="fill" style="fill:inherit"/><path d="M30.31 7.1c2.82-.38 15.37 6 16.14 7s0 9.35-.51 13.7c-.48 4.09-2.46 15.1-4.47 18.52-.12 7.42-.74 24.74-2.32 36.95-1.85 14.3-12 41.42-15.53 40.56s-1.48-30.57-1.73-40.19c-.22-8.52-1.69-28.94-2.46-36.48-1.51-1.31-3.35-8-4-10.64s-4-18.31-3.07-19.72 15.13-9.32 17.95-9.7z" class="a27-cls-2"/><path d="M41.48 43.49c0 4.21-.49 25.52-2.34 39.82s-12 41.42-15.53 40.56-1.48-30.57-1.73-40.19-2.1-34.4-2.71-38.68 22.19-12.24 22.31-1.51z" class="a27-cls-3"/><path d="M36.9 82.66c1.1-9.66 2.33-23.3 2.33-30.29a109.23 109.23 0 0 1 .72-12.55h.09a4.88 4.88 0 0 1 1.45 3.65c0 4.21-.49 25.52-2.34 39.82-1.18 9.14-5.74 23.52-9.81 32.48 1.61-5.2 3.68-12 4.16-14.48a152.07 152.07 0 0 0 3.4-18.63zM21.88 83.68c-.23-9-1.88-31.46-2.59-37.71l1.83.31s1.43 10.93 1.79 19.54.54 20.79.36 26.89a132.55 132.55 0 0 1-1.79 15.67c.01-9.06.52-19.65.4-24.7z" class="a27-cls-4"/><path d="M27.48 49.08c.64 4.05 1.46 16.8 1.31 34.77s-3.94 37.55-4.38 37.25 1.75-29.1 1.32-39.59-.73-21.77-1.9-33.31c-.24-2.33 2.77-4.67 3.65.88z" class="a27-cls-5"/><path d="M41.07 46.93c2.14-2.51 4.35-14.73 4.87-19.08s1.28-12.68.51-13.7-13.32-7.43-16.14-7-17 8.32-17.93 9.73 2.43 17 3.07 19.72 2.56 9.73 4.1 10.76 17.8 3.92 21.52-.43z" class="a27-cls-6"/><path d="M43.13 27.81c.42-4.76 1.06-13.86.42-15a7.11 7.11 0 0 0-1.41-1.27 22.63 22.63 0 0 1 4.3 2.58c.77 1 0 9.35-.51 13.7s-2.72 16.57-4.87 19.08a4.82 4.82 0 0 1-1.68 1.19c1.69-3.62 3.35-15.78 3.75-20.28zM12.38 16.83c.37-.58 3-2.29 6.22-4.12a17.12 17.12 0 0 0-3.3 3.06c-.74 1.54 2 18.62 2.55 21.56a68.49 68.49 0 0 0 2.59 10.33 4 4 0 0 1-.89-.36c-1.54-1-3.46-8.07-4.1-10.76s-3.97-18.3-3.07-19.71z" class="a27-cls-7"/><path d="M26.14 8.73c0 6 0 20.27.16 24.83A111.85 111.85 0 0 0 27.93 49c-1-.1-2-.23-3-.37a85.88 85.88 0 0 1-2.73-14.09c-.44-5.15-1.14-16.23-1.17-23.18 1.77-.97 3.55-1.89 5.11-2.63z" class="a27-cls-8"/></g><g id="a77_maryland_bridge_abutment" data-name="maryland bridge abutment"><path d="M2 26h55v7.67H2z" class="a27-cls-12 a27-cls-20" data-color-action="fill" style="fill:inherit"/><path d="M30.31 7.1c2.82-.38 15.37 6 16.14 7s0 9.35-.51 13.7c-.48 4.09-2.46 15.1-4.47 18.52-.12 7.42-.74 24.74-2.32 36.95-1.85 14.3-12 41.42-15.53 40.56s-1.48-30.57-1.73-40.19c-.22-8.52-1.69-28.94-2.46-36.48-1.51-1.31-3.35-8-4-10.64s-4-18.31-3.07-19.72 15.13-9.32 17.95-9.7z" class="a27-cls-2"/><path d="M41.48 43.49c0 4.21-.49 25.52-2.34 39.82s-12 41.42-15.53 40.56-1.48-30.57-1.73-40.19-2.1-34.4-2.71-38.68 22.19-12.24 22.31-1.51z" class="a27-cls-3"/><path d="M36.9 82.66c1.1-9.66 2.33-23.3 2.33-30.29a109.23 109.23 0 0 1 .72-12.55h.09a4.88 4.88 0 0 1 1.45 3.65c0 4.21-.49 25.52-2.34 39.82-1.18 9.14-5.74 23.52-9.81 32.48 1.61-5.2 3.68-12 4.16-14.48a152.07 152.07 0 0 0 3.4-18.63zM21.88 83.68c-.23-9-1.88-31.46-2.59-37.71l1.83.31s1.43 10.93 1.79 19.54.54 20.79.36 26.89a132.55 132.55 0 0 1-1.79 15.67c.01-9.06.52-19.65.4-24.7z" class="a27-cls-4"/><path d="M27.48 49.08c.64 4.05 1.46 16.8 1.31 34.77s-3.94 37.55-4.38 37.25 1.75-29.1 1.32-39.59-.73-21.77-1.9-33.31c-.24-2.33 2.77-4.67 3.65.88z" class="a27-cls-5"/><path d="M41.07 46.93c2.14-2.51 4.35-14.73 4.87-19.08s1.28-12.68.51-13.7-13.32-7.43-16.14-7-17 8.32-17.93 9.73 2.43 17 3.07 19.72 2.56 9.73 4.1 10.76 17.8 3.92 21.52-.43z" class="a27-cls-6"/><path d="M43.13 27.81c.42-4.76 1.06-13.86.42-15a7.11 7.11 0 0 0-1.41-1.27 22.63 22.63 0 0 1 4.3 2.58c.77 1 0 9.35-.51 13.7s-2.72 16.57-4.87 19.08a4.82 4.82 0 0 1-1.68 1.19c1.69-3.62 3.35-15.78 3.75-20.28zM12.38 16.83c.37-.58 3-2.29 6.22-4.12a17.12 17.12 0 0 0-3.3 3.06c-.74 1.54 2 18.62 2.55 21.56a68.49 68.49 0 0 0 2.59 10.33 4 4 0 0 1-.89-.36c-1.54-1-3.46-8.07-4.1-10.76s-3.97-18.3-3.07-19.71z" class="a27-cls-7"/><path d="M26.14 8.73c0 6 0 20.27.16 24.83A111.85 111.85 0 0 0 27.93 49c-1-.1-2-.23-3-.37a85.88 85.88 0 0 1-2.73-14.09c-.44-5.15-1.14-16.23-1.17-23.18 1.77-.97 3.55-1.89 5.11-2.63z" class="a27-cls-8"/></g><g id="a77_bridge_abutment_mesial" class="a27-cls-12" data-name="bridge abutment mesial"><path d="M41.07 46.93c2.14-2.51 4.35-14.73 4.87-19.08s1.28-12.68.51-13.7-13.32-7.43-16.14-7-17 8.32-17.93 9.73 2.43 17 3.07 19.72 2.56 9.73 4.1 10.76 17.8 3.92 21.52-.43z" class="a27-cls-18" data-color-action="fill" style="fill:inherit"/><path d="M22.02 26H57v7.67H22.02z" class="a27-cls-18" data-color-action="fill" style="fill:inherit"/></g><g id="a77_bridge_abutment_distal" class="a27-cls-12" data-name="bridge abutment distal"><path d="M41.07 46.93c2.14-2.51 4.35-14.73 4.87-19.08s1.28-12.68.51-13.7-13.32-7.43-16.14-7-17 8.32-17.93 9.73 2.43 17 3.07 19.72 2.56 9.73 4.1 10.76 17.8 3.92 21.52-.43z" class="a27-cls-18" data-color-action="fill" style="fill:inherit"/><path d="M2 26h34.98v7.67H2z" class="a27-cls-18" data-color-action="fill" style="fill:inherit"/></g><g id="a77_bridge_abutment" class="a27-cls-12" data-name="bridge abutment"><path d="M41.07 46.93c2.14-2.51 4.35-14.73 4.87-19.08s1.28-12.68.51-13.7-13.32-7.43-16.14-7-17 8.32-17.93 9.73 2.43 17 3.07 19.72 2.56 9.73 4.1 10.76 17.8 3.92 21.52-.43z" class="a27-cls-18" data-color-action="fill" style="fill:inherit"/><path d="M2 26h55v7.67H2z" class="a27-cls-18" data-color-action="fill" style="fill:inherit"/></g><g id="a77_bridge_pontic" data-name="bridge pontic"><path d="M30.31 7.1c2.82-.38 15.37 6 16.14 7s0 9.35-.51 13.7c-.48 4.09-2.46 15.1-4.47 18.52-.12 7.42-.74 24.74-2.32 36.95-1.85 14.3-12 41.42-15.53 40.56s-1.48-30.57-1.73-40.19c-.22-8.52-1.69-28.94-2.46-36.48-1.51-1.31-3.35-8-4-10.64s-4-18.31-3.07-19.72 15.13-9.32 17.95-9.7z" class="a27-cls-2"/><path d="M41.48 43.49c0 4.21-.49 25.52-2.34 39.82s-12 41.42-15.53 40.56-1.48-30.57-1.73-40.19-2.1-34.4-2.71-38.68 22.19-12.24 22.31-1.51z" class="a27-cls-23"/><path d="M36.9 82.66c1.1-9.66 2.33-23.3 2.33-30.29a109.23 109.23 0 0 1 .72-12.55h.09a4.88 4.88 0 0 1 1.45 3.65c0 4.21-.49 25.52-2.34 39.82-1.18 9.14-5.74 23.52-9.81 32.48 1.61-5.2 3.68-12 4.16-14.48a152.07 152.07 0 0 0 3.4-18.63zM21.88 83.68c-.23-9-1.88-31.46-2.59-37.71l1.83.31s1.43 10.93 1.79 19.54.54 20.79.36 26.89a132.55 132.55 0 0 1-1.79 15.67c.01-9.06.52-19.65.4-24.7zM27.48 49.08c.64 4.05 1.46 16.8 1.31 34.77s-3.94 37.55-4.38 37.25 1.75-29.1 1.32-39.59-.73-21.77-1.9-33.31c-.24-2.33 2.77-4.67 3.65.88z" class="a27-cls-23"/><path d="M41.07 46.93c2.14-2.51 4.35-14.73 4.87-19.08s1.28-12.68.51-13.7-13.32-7.43-16.14-7-17 8.32-17.93 9.73 2.43 17 3.07 19.72 2.56 9.73 4.1 10.76 17.8 3.92 21.52-.43z" class="a27-cls-6"/><path d="M43.13 27.81c.42-4.76 1.06-13.86.42-15a7.11 7.11 0 0 0-1.41-1.27 22.63 22.63 0 0 1 4.3 2.58c.77 1 0 9.35-.51 13.7s-2.72 16.57-4.87 19.08a4.82 4.82 0 0 1-1.68 1.19c1.69-3.62 3.35-15.78 3.75-20.28zM12.38 16.83c.37-.58 3-2.29 6.22-4.12a17.12 17.12 0 0 0-3.3 3.06c-.74 1.54 2 18.62 2.55 21.56a68.49 68.49 0 0 0 2.59 10.33 4 4 0 0 1-.89-.36c-1.54-1-3.46-8.07-4.1-10.76s-3.97-18.3-3.07-19.71z" class="a27-cls-7"/><path d="M26.14 8.73c0 6 0 20.27.16 24.83A111.85 111.85 0 0 0 27.93 49c-1-.1-2-.23-3-.37a85.88 85.88 0 0 1-2.73-14.09c-.44-5.15-1.14-16.23-1.17-23.18 1.77-.97 3.55-1.89 5.11-2.63z" class="a27-cls-8"/><g class="a27-cls-12"><path d="M41.07 46.93c2.14-2.51 4.35-14.73 4.87-19.08s1.28-12.68.51-13.7-13.32-7.43-16.14-7-17 8.32-17.93 9.73 2.43 17 3.07 19.72 2.56 9.73 4.1 10.76 17.8 3.92 21.52-.43z" class="a27-cls-18" data-color-action="fill" style="fill:inherit"/><path d="M2 26h55v7.67H2z" class="a27-cls-18" data-color-action="fill" style="fill:inherit"/></g></g><g id="a77_implant_mini" data-name="implant mini"><path d="M2.39 1.79h55v137.17h-55z" class="a27-cls-23"/><path d="M29.72 77.93h-.44l-1-8.49V28.6h2.44v40.84l-1 8.49z" class="a27-cls-18" data-color-action="fill" style="fill:inherit"/><path d="M29.42 77.93h-.07l-.4-8.49V28.6h.37v40.84l.1 8.49z" class="a27-cls-25"/><path d="M28.28 28.6h2.44v.63h-2.44z" class="a27-cls-28" data-color-action="fill" style="fill:inherit"/><g class="a27-cls-29"><path d="M28.28 29.23l2.44 1v-.63l-2.44-1v.63zM28.28 30.68l2.44 1v-.63l-2.44-1v.63zM28.28 32.12l2.44 1v-.63l-2.44-1v.63zM28.28 33.57l2.44 1v-.63l-2.44-1v.63zM28.28 35.02l2.44 1v-.64l-2.44-1v.64zM28.28 36.46l2.44 1v-.63l-2.44-1v.63zM28.28 37.91l2.44 1v-.64l-2.44-1v.64zM28.28 39.35l2.44 1v-.63l-2.44-1v.63zM28.28 40.8l2.44 1v-.64l-2.44-1v.64zM28.28 42.24l2.44 1v-.63l-2.44-1v.63zM28.28 43.69l2.44 1v-.64l-2.44-1v.64zM28.28 45.13l2.44 1v-.63l-2.44-1v.63zM28.28 46.58l2.44 1v-.63l-2.44-1v.63zM28.28 48.02l2.44 1v-.63l-2.44-1v.63zM28.28 49.47l2.44 1v-.63l-2.44-1v.63zM28.28 50.91l2.44 1v-.63l-2.44-1v.63zM28.28 52.36l2.44 1v-.63l-2.44-1v.63zM28.28 53.8l2.44 1.01v-.64l-2.44-1v.63zM28.28 55.25l2.44 1v-.63l-2.44-1v.63zM28.28 56.7l2.44 1v-.64l-2.44-1v.64zM28.28 58.14l2.44 1v-.63l-2.44-1v.63zM28.28 59.59l2.44 1v-.63l-2.44-1.01v.64zM28.28 61.03l2.44 1v-.63l-2.44-1v.63zM28.28 62.48l2.44 1v-.63l-2.44-1v.63zM28.28 63.92l2.44 1v-.63l-2.44-1v.63zM28.28 65.37l2.44 1v-.63l-2.44-1v.63zM28.28 66.81l2.44 1v-.63l-2.44-1v.63zM28.28 68.26l2.44 1v-.63l-2.44-1v.63zM28.28 69.44l.03.28 2.27.93.07-.61-2.37-.97v.37zM28.49 71.24l1.93.79.07-.61-2.08-.85.08.67zM28.67 72.76l1.58.65.08-.61-1.74-.71.08.67zM28.85 74.28l1.24.5.07-.6-1.39-.57.08.67zM29.03 75.79l.9.37.07-.6-1.05-.43.08.66zM29.2 77.31l.57.23.07-.6-.71-.29.07.66z" class="a27-cls-28" data-color-action="fill" style="fill:inherit"/></g><circle cx="29.5" cy="24.73" r="2.24" class="a27-cls-18" data-color-action="fill" style="fill:inherit"/><path d="M27.67 25.95h3.67v3h-3.67z" class="a27-cls-18" data-color-action="fill" style="fill:inherit"/><path d="M28.49 25.95h.55v3h-.55z" class="a27-cls-25"/><path d="M28.7 23.37h-.21a2.32 2.32 0 0 0-.49 1.29 2.37 2.37 0 0 0 .52 1.3H29a2 2 0 0 1-.73-1.37 1.5 1.5 0 0 1 .43-1.22z" class="a27-cls-25"/><path d="M28.28 34.67h2.44v.63h-2.44z" class="a27-cls-28" data-color-action="fill" style="fill:inherit"/><path d="M32.11 28.92h-5.22l.87 5.71h3.48l.87-5.71z" class="a27-cls-18" data-color-action="fill" style="fill:inherit"/><path d="M28.85 28.92h-.79l.48 5.71h.53l-.22-5.71z" class="a27-cls-25"/></g><g id="a77_implant_cylinder" data-name="implant cylinder"><path d="M2 1.83h55V139H2z" class="a27-cls-23"/><path d="M26.17 25.65h6.67v49.33h-6.67z" class="a27-cls-18" data-color-action="fill" style="fill:inherit"/><path d="M24.5 22.66h10v3h-10z" class="a27-cls-18" data-color-action="fill" style="fill:inherit"/><path d="M28 25.65h1v49.33h-1z" class="a27-cls-25"/><path d="M26.75 22.66h1.5v3h-1.5z" class="a27-cls-25"/><path d="M24.5 75.02h10v3h-10z" class="a27-cls-18" data-color-action="fill" style="fill:inherit"/><path d="M26.75 75.02h1.5v3h-1.5z" class="a27-cls-25"/><path d="M26.17 25.65h6.67v.63h-6.67zM26.17 74.35h6.67v.63h-6.67z" class="a27-cls-28" data-color-action="fill" style="fill:inherit"/><g class="a27-cls-29"><path d="M32.83 73.35l-6.66 1.01v.63l6.66-1v-.64zM32.83 71.91l-6.66 1v.63l6.66-1v-.63zM32.83 70.46l-6.66 1v.64l6.66-1.01v-.63zM32.83 69.02l-6.66 1v.63l6.66-1v-.63zM32.83 67.57l-6.66 1v.63l6.66-1v-.63zM32.83 66.13l-6.66 1v.63l6.66-1v-.63zM32.83 64.68l-6.66 1v.63l6.66-1v-.63zM32.83 63.24l-6.66 1v.63l6.66-1v-.63zM32.83 61.79l-6.66 1v.63l6.66-1v-.63zM32.83 60.34l-6.66 1.01v.63l6.66-1v-.64zM32.83 58.9l-6.66 1v.63l6.66-1v-.63zM32.83 57.45l-6.66 1v.64l6.66-1v-.64zM32.83 56.01l-6.66 1v.63l6.66-1v-.63zM32.83 54.56l-6.66 1v.64l6.66-1v-.64zM32.83 53.12l-6.66 1v.63l6.66-1v-.63zM32.83 51.67l-6.66 1v.63l6.66-1v-.63zM32.83 50.23l-6.66 1v.63l6.66-1v-.63zM32.83 48.78l-6.66 1v.63l6.66-1v-.63zM32.83 47.34l-6.66 1v.63l6.66-1v-.63zM32.83 45.89l-6.66 1v.63l6.66-1v-.63zM32.83 44.45l-6.66 1v.63l6.66-1v-.63zM32.83 43l-6.66 1v.63l6.66-1V43zM32.83 41.55l-6.66 1v.64l6.66-1v-.64zM32.83 40.11l-6.66 1v.63l6.66-1v-.63zM32.83 38.66l-6.66 1v.64l6.66-1v-.64zM32.83 37.22l-6.66 1v.63l6.66-1v-.63zM32.83 35.77l-6.66 1v.64l6.66-1v-.64zM32.83 34.33l-6.66 1v.63l6.66-1v-.63zM32.83 32.88l-6.66 1v.63l6.66-1v-.63zM32.83 31.44l-6.66 1v.63l6.66-1v-.63zM32.83 29.99l-6.66 1v.63l6.66-1v-.63zM32.83 28.55l-6.66 1v.63l6.66-1v-.63zM32.83 27.1l-6.66 1v.63l6.66-1v-.63zM32.83 25.65l-6.66 1.01v.63l6.66-1v-.64z" class="a27-cls-28" data-color-action="fill" style="fill:inherit"/></g></g><g id="a77_implant_blade" data-name="implant blade"><path d="M2 1.83h55V139H2z" class="a27-cls-23"/><path d="M26.17 25.65h6.67v49.33h-6.67z" class="a27-cls-18" data-color-action="fill" style="fill:inherit"/><path d="M24.5 22.66h10v3h-10z" class="a27-cls-18" data-color-action="fill" style="fill:inherit"/><path d="M28 25.65h1v49.33h-1z" class="a27-cls-25"/><path d="M26.75 22.66h1.5v3h-1.5z" class="a27-cls-25"/><path d="M26.17 25.65h6.67v.63h-6.67z" class="a27-cls-28" data-color-action="fill" style="fill:inherit"/></g><path id="a77_watch_tooth" d="M8.27 153.9a3.26 3.26 0 0 1 3.22-3.26 3.24 3.24 0 1 1 0 6.47 3.25 3.25 0 0 1-3.22-3.21zm1-5.91l-.88-18.09h6.15l-.8 18.1z" class="a27-cls-11" data-color-action="fill" style="fill:inherit" data-name="watch tooth"/><path id="a77_border" d="M0 0h59v161H0z" class="a27-cls-15" transform="rotate(180 29.5 80.5)"/></defs></g><g class="c27-cls-1"><g id="_27C" data-name="#27C"><path d="M41.07 18.34c2.14 2.51 4.35 14.73 4.87 19.08s1.28 12.68.51 13.7-13.32 7.43-16.14 7-17-8.32-17.93-9.73 2.43-17 3.07-19.72S18 19 19.55 18s17.8-4 21.52.34z" class="c27-cls-2"/><path d="M41.07 18.34c2.14 2.51 4.35 14.73 4.87 19.08s1.28 12.68.51 13.7-13.32 7.43-16.14 7-17-8.32-17.93-9.73 2.43-17 3.07-19.72S18 19 19.55 18s17.8-4 21.52.34z" class="c27-cls-3"/><path d="M37.68 19.66a108.42 108.42 0 0 0-13.4.36c-1.87.29-5.22.81-7.25 3.1.78-2.38 1.7-4.62 2.52-5.16 1.54-1 17.8-4 21.52.38a16 16 0 0 1 2.11 5.12c-1.6-1.82-3.7-3.68-5.5-3.8z" class="c27-cls-4"/><path d="M46.45 51.13c-.77 1-13.32 7.43-16.14 7s-17-8.32-17.93-9.73c-.31-.48-.12-2.64.29-5.38a10.35 10.35 0 0 0 2.55 4c2 1.63 14.31 8 16.3 8s9.06-2.72 12.13-4.53a8.1 8.1 0 0 0 3.08-3.36c.08 1.99.03 3.59-.28 4z" class="c27-cls-5"/></g><defs><g id="c77_splinted_crowns" data-name="splinted crowns"><path d="M2 10.87h55v7.67H2z" class="c27-cls-12" data-color-action="fill" style="fill:inherit"/><path d="M41.07 18.34c2.14 2.51 4.35 14.73 4.87 19.08s1.28 12.68.51 13.7-13.32 7.43-16.14 7-17-8.32-17.93-9.73 2.43-17 3.07-19.72S18 19 19.55 18s17.8-4 21.52.34z" class="c27-cls-2"/><path d="M41.07 18.34c2.14 2.51 4.35 14.73 4.87 19.08s1.28 12.68.51 13.7-13.32 7.43-16.14 7-17-8.32-17.93-9.73 2.43-17 3.07-19.72S18 19 19.55 18s17.8-4 21.52.34z" class="c27-cls-3"/><path d="M37.68 19.66a108.42 108.42 0 0 0-13.4.36c-1.87.29-5.22.81-7.25 3.1.78-2.38 1.7-4.62 2.52-5.16 1.54-1 17.8-4 21.52.38a16 16 0 0 1 2.11 5.12c-1.6-1.82-3.7-3.68-5.5-3.8z" class="c27-cls-4"/><path d="M46.45 51.13c-.77 1-13.32 7.43-16.14 7s-17-8.32-17.93-9.73c-.31-.48-.12-2.64.29-5.38a10.35 10.35 0 0 0 2.55 4c2 1.63 14.31 8 16.3 8s9.06-2.72 12.13-4.53a8.1 8.1 0 0 0 3.08-3.36c.08 1.99.03 3.59-.28 4z" class="c27-cls-5"/></g><path id="c77_mesial" d="M46.51 51l-5.2-6.78a7.27 7.27 0 0 0 .69-2.5 12.29 12.29 0 0 1 3.41-7.85c.24 1.42.42 2.66.52 3.56.5 4.21 1.23 12.11.58 13.57z" class="c27-cls-6" data-color-action="fill" style="fill:inherit"/><path id="c77_line_angle_4" d="M35.77 56.66l-2.07-8.11c3.6-.49 6.36-1.8 7.61-4.34l5.2 6.79a.9.9 0 0 1-.07.14c-.5.66-6.09 3.66-10.67 5.52z" class="c27-cls-6" data-color-action="fill" style="fill:inherit" data-name="line angle 4"/><path id="c77_lingual" d="M30.31 58.17a32.58 32.58 0 0 1-6.73-2.9l2.27-6.75a24.49 24.49 0 0 0 4.09.28 28.66 28.66 0 0 0 3.76-.25l2.07 8.11c-2.39.98-4.49 1.64-5.46 1.51z" class="c27-cls-6" data-color-action="fill" style="fill:inherit"/><path id="c77_line_angle_3" d="M14 49.73l5.37-6.62c1.09 3.24 3 4.83 6.49 5.41l-2.27 6.75A109.15 109.15 0 0 1 14 49.73z" class="c27-cls-6" data-color-action="fill" style="fill:inherit" data-name="line angle 3"/><path id="c77_distal" d="M18.44 38.79a22.65 22.65 0 0 0 .92 4.32L14 49.73a7.3 7.3 0 0 1-1.61-1.29c-.63-1 .84-9.07 2-14.69a6.35 6.35 0 0 1 4.05 5.04z" class="c27-cls-6" data-color-action="fill" style="fill:inherit"/><path id="c77_mid_lingual" d="M24.9 34.42c-.05 5.56 2.07 10 4.73 9.91s4.75-4.7 4.74-10.18-2.09-9.71-4.66-9.67-4.71 4.45-4.81 9.94z" class="c27-cls-6" data-color-action="fill" style="fill:inherit" data-name="mid lingual"/><path id="c77_lingual_V" d="M20.91 17.46c3.73-1 13.64-2.43 18.36-.37A15 15 0 0 1 30 20.45a15.09 15.09 0 0 1-9.09-2.99z" class="c27-cls-6" data-color-action="fill" style="fill:inherit" data-name="lingual V"/><g id="c77_veneer"><path d="M28 61.75h3v3h-3z" class="c27-cls-7"/><path d="M28 61.75h3v3h-3z" class="c27-cls-7"/><path d="M28 61.75h3v3h-3z" class="c27-cls-7"/></g><g id="c77_tissue_graft" data-name="tissue graft"><path d="M28 61.75h3v3h-3z" class="c27-cls-7"/><path d="M28 61.75h3v3h-3z" class="c27-cls-7"/><path d="M28 61.75h3v3h-3z" class="c27-cls-7"/></g><g id="c77_tipped_lingual" class="c27-cls-8" data-name="tipped lingual"><path d="M30.35 61.07c-1.26 3.37-4.74 3.85-7.69-5.32-.5-1.56-4.42-1.76-3.84 0 2 6.08 5.31 10.2 9.06 9.27a4.86 4.86 0 0 0 3-3.38 4.48 4.48 0 0 1-.53-.57z" class="c27-cls-9" data-color-action="fill" style="fill:inherit"/><path d="M28.27 58.15H15.33l2.94-9.64 10 9.64z" class="c27-cls-9" data-color-action="fill" style="fill:inherit"/></g><g id="c77_tipped_facial" data-name="tipped facial"><path d="M28 61.75h3v3h-3z" class="c27-cls-7"/><path d="M28 61.75h3v3h-3z" class="c27-cls-7"/><path d="M28 61.75h3v3h-3z" class="c27-cls-7"/></g><path id="c77_surface_restoration_incisal" d="M30.31 58.22c2.58.35 13.31-5 15.7-6.67l-6.28-4.74v.31a68 68 0 0 1-8.85 3.95A109.4 109.4 0 0 1 19.46 45l.06-.41-6.83 4.23c2.31 2.03 14.98 9.04 17.62 9.4z" class="c27-cls-10" data-color-action="fill" style="fill:inherit" data-name="surface restoration incisal"/><path id="c77_surface_restoration_mesial" d="M46.45 51.18c.77-1 0-9.35-.51-13.7-.24-2.07-.87-5.93-1.7-9.68a11.52 11.52 0 0 1-7-6.24C38 28.06 38.68 35.7 39 38.29c.4 3.38.64 6.42.74 8.52L46 51.55a2.26 2.26 0 0 0 .45-.37z" class="c27-cls-10" data-color-action="fill" style="fill:inherit" data-name="surface restoration mesial"/><path id="c77_surface_restoration_lingual" d="M23.47 19.86a11.46 11.46 0 0 1-1.05 2.66c-1.18 8.68-2.6 20-2.95 22.47a109.4 109.4 0 0 0 11.42 6.08 68 68 0 0 0 8.85-3.95c-.09-2.1-.34-5.28-.76-8.83-.3-2.59-1-10.23-1.79-16.74a11.67 11.67 0 0 1-.53-1.43 15.38 15.38 0 0 1-13.2-.26z" class="c27-cls-8 c27-cls-11" data-color-action="fill" style="fill:inherit" data-name="surface restoration lingual"/><path id="c77_surface_restoration_lingual_V" d="M36.19 16.33a42.84 42.84 0 0 0-12.36.55v.11a11.48 11.48 0 0 1-.37 2.88 15.38 15.38 0 0 0 13.2.26 11.35 11.35 0 0 1-.5-3.3l.03-.5z" class="c27-cls-8 c27-cls-11" data-color-action="fill" style="fill:inherit" data-name="surface restoration lingual V"/><path id="c77_surface_restoration_distal" d="M12.69 48.82l6.83-4.23c.42-3.1 1.77-13.78 2.89-22.07A11.52 11.52 0 0 1 15.64 28l-.19.77c-.64 2.69-4 18.31-3.07 19.72a1.8 1.8 0 0 0 .31.33z" class="c27-cls-10" data-color-action="fill" style="fill:inherit" data-name="surface restoration distal"/><g id="c77_supra-erupted"><path d="M28 61.75h3v3h-3z" class="c27-cls-7"/><path d="M28 61.75h3v3h-3z" class="c27-cls-7"/><path d="M28 61.75h3v3h-3z" class="c27-cls-7"/></g><g id="c77_sub-erupted"><path d="M28 61.75h3v3h-3z" class="c27-cls-7"/><path d="M28 61.75h3v3h-3z" class="c27-cls-7"/><path d="M28 61.75h3v3h-3z" class="c27-cls-7"/></g><g id="c77_sealant"><path d="M28 61.75h3v3h-3z" class="c27-cls-7"/><path d="M28 61.75h3v3h-3z" class="c27-cls-7"/><path d="M28 61.75h3v3h-3z" class="c27-cls-7"/></g><g id="c77_root_decay" data-name="root decay"><path d="M28 61.75h3v3h-3z" class="c27-cls-7"/><path d="M28 61.75h3v3h-3z" class="c27-cls-7"/><path d="M28 61.75h3v3h-3z" class="c27-cls-7"/></g><g id="c77_root_canal" data-name="root canal"><path d="M28 61.75h3v3h-3z" class="c27-cls-7"/><path d="M28 61.75h3v3h-3z" class="c27-cls-7"/><path d="M28 61.75h3v3h-3z" class="c27-cls-7"/></g><g id="c77_root_abrasion" data-name="root abrasion"><path d="M28 61.75h3v3h-3z" class="c27-cls-7"/><path d="M28 61.75h3v3h-3z" class="c27-cls-7"/><path d="M28 61.75h3v3h-3z" class="c27-cls-7"/></g><g id="c77_open_contact_mesial" data-name="open contact mesial"><path d="M28 61.75h3v3h-3z" class="c27-cls-7"/><path d="M28 61.75h3v3h-3z" class="c27-cls-7"/><path d="M28 61.75h3v3h-3z" class="c27-cls-7"/></g><g id="c77_open_contact_distal" data-name="open contact distal"><path d="M28 61.75h3v3h-3z" class="c27-cls-7"/><path d="M28 61.75h3v3h-3z" class="c27-cls-7"/><path d="M28 61.75h3v3h-3z" class="c27-cls-7"/></g><path id="c77_lingual_abfraction" d="M42 16.16s-5.61-4.42-12.53-4.42S17 16.16 17 16.16s5.61 4.42 12.53 4.42S42 16.16 42 16.16z" class="c27-cls-15" data-color-action="fill" style="fill:inherit" data-name="lingual abfraction"/><g id="c77_internal_root_resorption" data-name="internal root resorption"><path d="M28 61.75h3v3h-3z" class="c27-cls-7"/><path d="M28 61.75h3v3h-3z" class="c27-cls-7"/><path d="M28 61.75h3v3h-3z" class="c27-cls-7"/></g><g id="c77_gortex_membranes" data-name="gortex membranes"><path d="M28 61.75h3v3h-3z" class="c27-cls-7"/><path d="M28 61.75h3v3h-3z" class="c27-cls-7"/><path d="M28 61.75h3v3h-3z" class="c27-cls-7"/></g><g id="c77_frenum_pull" data-name="frenum pull"><path d="M28 61.75h3v3h-3z" class="c27-cls-7"/><path d="M28 61.75h3v3h-3z" class="c27-cls-7"/><path d="M28 61.75h3v3h-3z" class="c27-cls-7"/></g><g id="c77_external_root_resorption" data-name="external root resorption"><path d="M28 61.75h3v3h-3z" class="c27-cls-7"/><path d="M28 61.75h3v3h-3z" class="c27-cls-7"/><path d="M28 61.75h3v3h-3z" class="c27-cls-7"/></g><path id="c77_three_quarter_crown" d="M45.79 36.29H13.86c-1 5.24-2 11.29-1.48 12.14.9 1.41 15.11 9.35 17.93 9.73s15.37-6 16.14-7 0-9.35-.51-13.7c-.04-.37-.09-.75-.15-1.17z" class="c27-cls-8 c27-cls-19" data-color-action="fill" style="fill:inherit" data-name="three quarter crown"/><path id="c77_crown" d="M41.07 18.34c2.14 2.51 4.35 14.73 4.87 19.08s1.28 12.68.51 13.7-13.32 7.43-16.14 7-17-8.32-17.93-9.73 2.43-17 3.07-19.72S18 19 19.55 18s17.8-4 21.52.34z" class="c27-cls-8 c27-cls-19" data-color-action="fill" style="fill:inherit"/><path id="c77_cracked_surface_distal" d="M16.66 45.19l-3.83-3.84h5l-5-4.74h5l-3.82-3.83" class="c27-cls-20" data-color-action="stroke" style="stroke:inherit" data-name="cracked surface distal"/><path id="c77_cracked_surface_lingual" d="M29.83 45.19L26 41.35h5l-5-4.74h5l-3.83-3.83" class="c27-cls-20" data-color-action="stroke" style="stroke:inherit" data-name="cracked surface lingual"/><path id="c77_cracked_surface_lingual_V" d="M29.83 45.19L26 41.35h5l-5-4.74h5l-3.83-3.83" class="c27-cls-20" data-color-action="stroke" style="stroke:inherit" data-name="cracked surface lingual V"/><path id="c77_cracked_surface_mesial" d="M44.66 45.19l-3.83-3.84h5l-5-4.74h5L42 32.78" class="c27-cls-20" data-color-action="stroke" style="stroke:inherit" data-name="cracked surface mesial"/><g id="c77_chipped_surface_distal" class="c27-cls-8" data-name="chipped surface distal"><path d="M20.17 43.51l-8.34-8.33M11.83 43.51l8.34-8.33" class="c27-cls-21" data-color-action="stroke" style="stroke:inherit"/></g><g id="c77_chipped_surface_lingual" class="c27-cls-8" data-name="chipped surface lingual"><path d="M32.33 43.51L24 35.18M24 43.51l8.33-8.33" class="c27-cls-21" data-color-action="stroke" style="stroke:inherit"/></g><g id="c77_chipped_surface_lingual_V" class="c27-cls-8" data-name="chipped surface lingual V"><path d="M32.33 43.51L24 35.18M24 43.51l8.33-8.33" class="c27-cls-21" data-color-action="stroke" style="stroke:inherit"/></g><g id="c77_chipped_surface_mesial" class="c27-cls-8" data-name="chipped surface mesial"><path d="M46.33 43.51L38 35.18M38 43.51l8.33-8.33" class="c27-cls-21" data-color-action="stroke" style="stroke:inherit"/></g><g id="c77_buccal_abfraction" data-name="buccal abfraction"><path d="M28 61.75h3v3h-3z" class="c27-cls-7"/><path d="M28 61.75h3v3h-3z" class="c27-cls-7"/><path d="M28 61.75h3v3h-3z" class="c27-cls-7"/></g><g id="c77_braces"><path d="M28 61.75h3v3h-3z" class="c27-cls-7"/><path d="M28 61.75h3v3h-3z" class="c27-cls-7"/><path d="M28 61.75h3v3h-3z" class="c27-cls-7"/></g><g id="c77_apicoectomy"><path d="M28 61.75h3v3h-3z" class="c27-cls-7"/><path d="M28 61.75h3v3h-3z" class="c27-cls-7"/><path d="M28 61.75h3v3h-3z" class="c27-cls-7"/></g><g id="c77_abscess"><path d="M28 61.75h3v3h-3z" class="c27-cls-7"/><path d="M28 61.75h3v3h-3z" class="c27-cls-7"/><path d="M28 61.75h3v3h-3z" class="c27-cls-7"/></g><g id="c77_blunted_roots" data-name="blunted roots"><path d="M28 61.75h3v3h-3z" class="c27-cls-7"/><path d="M28 61.75h3v3h-3z" class="c27-cls-7"/><path d="M28 61.75h3v3h-3z" class="c27-cls-7"/></g><g id="c77_root_amputation" data-name="root amputation"><path d="M28 61.75h3v3h-3z" class="c27-cls-7"/><path d="M28 61.75h3v3h-3z" class="c27-cls-7"/><path d="M28 61.75h3v3h-3z" class="c27-cls-7"/></g><g id="c77_missing_crown" data-name="missing crown"><path d="M28 61.75h3v3h-3z" class="c27-cls-7"/><path d="M28 61.75h3v3h-3z" class="c27-cls-7"/><path d="M28 61.75h3v3h-3z" class="c27-cls-7"/><path d="M2 2h55v61.98H2z" class="c27-cls-13"/></g><g id="c77_missing_tooth" data-name="missing tooth"><path d="M41.07 18.34c2.14 2.51 4.35 14.73 4.87 19.08s1.28 12.68.51 13.7-13.32 7.43-16.14 7-17-8.32-17.93-9.73 2.43-17 3.07-19.72S18 19 19.55 18s17.8-4 21.52.34z" class="c27-cls-2"/><path d="M41.07 18.34c2.14 2.51 4.35 14.73 4.87 19.08s1.28 12.68.51 13.7-13.32 7.43-16.14 7-17-8.32-17.93-9.73 2.43-17 3.07-19.72S18 19 19.55 18s17.8-4 21.52.34z" class="c27-cls-13"/><path d="M37.68 19.66a108.42 108.42 0 0 0-13.4.36c-1.87.29-5.22.81-7.25 3.1.78-2.38 1.7-4.62 2.52-5.16 1.54-1 17.8-4 21.52.38a16 16 0 0 1 2.11 5.12c-1.6-1.82-3.7-3.68-5.5-3.8zM46.45 51.13c-.77 1-13.32 7.43-16.14 7s-17-8.32-17.93-9.73c-.31-.48-.12-2.64.29-5.38a10.35 10.35 0 0 0 2.55 4c2 1.63 14.31 8 16.3 8s9.06-2.72 12.13-4.53a8.1 8.1 0 0 0 3.08-3.36c.08 1.99.03 3.59-.28 4z" class="c27-cls-13"/></g><g id="c77_maryland_bridge_pontic" class="c27-cls-8" data-name="maryland bridge pontic"><path d="M41.07 18.34c2.14 2.51 4.35 14.73 4.87 19.08s1.28 12.68.51 13.7-13.32 7.43-16.14 7-17-8.32-17.93-9.73 2.43-17 3.07-19.72S18 19 19.55 18s17.8-4 21.52.34z" class="c27-cls-14" data-color-action="fill" style="fill:inherit"/><path d="M2 31.37h55v7.67H2z" class="c27-cls-14" data-color-action="fill" style="fill:inherit"/></g><g id="c77_maryland_bridge_abutment_mesial" class="c27-cls-8" data-name="maryland bridge abutment mesial"><path d="M36.58 32.17H57v7.67H36.58z" class="c27-cls-14" data-color-action="fill" style="fill:inherit"/><ellipse cx="37.81" cy="36.01" class="c27-cls-14" rx="5.61" ry="12.9" data-color-action="fill" style="fill:inherit"/></g><g id="c77_maryland_bridge_abutment_distal" class="c27-cls-8" data-name="maryland bridge abutment distal"><path d="M2 32.17h20.42v7.67H2z" class="c27-cls-14" data-color-action="fill" style="fill:inherit"/><ellipse cx="21.19" cy="36.01" class="c27-cls-14" rx="5.61" ry="12.9" data-color-action="fill" style="fill:inherit"/></g><g id="c77_maryland_bridge_abutment" class="c27-cls-8" data-name="maryland bridge abutment"><path d="M2 32.17h20.42v7.67H2zM36.58 32.17H57v7.67H36.58z" class="c27-cls-14" data-color-action="fill" style="fill:inherit"/><ellipse cx="37.81" cy="36.01" class="c27-cls-14" rx="5.61" ry="12.9" data-color-action="fill" style="fill:inherit"/><ellipse cx="21.19" cy="36.01" class="c27-cls-14" rx="5.61" ry="12.9" data-color-action="fill" style="fill:inherit"/></g><g id="c77_bridge_abutment_mesial" class="c27-cls-8" data-name="bridge abutment mesial"><path d="M41.07 18.34c2.14 2.51 4.35 14.73 4.87 19.08s1.28 12.68.51 13.7-13.32 7.43-16.14 7-17-8.32-17.93-9.73 2.43-17 3.07-19.72S18 19 19.55 18s17.8-4 21.52.34z" class="c27-cls-11" data-color-action="fill" style="fill:inherit"/><path d="M22.02 31.6H57v7.67H22.02z" class="c27-cls-11" data-color-action="fill" style="fill:inherit"/></g><g id="c77_bridge_abutment_distal" class="c27-cls-8" data-name="bridge abutment distal"><path d="M41.07 18.34c2.14 2.51 4.35 14.73 4.87 19.08s1.28 12.68.51 13.7-13.32 7.43-16.14 7-17-8.32-17.93-9.73 2.43-17 3.07-19.72S18 19 19.55 18s17.8-4 21.52.34z" class="c27-cls-11" data-color-action="fill" style="fill:inherit"/><path d="M2 31.6h34.98v7.67H2z" class="c27-cls-11" data-color-action="fill" style="fill:inherit"/></g><g id="c77_bridge_abutment" class="c27-cls-8" data-name="bridge abutment"><path d="M41.07 18.34c2.14 2.51 4.35 14.73 4.87 19.08s1.28 12.68.51 13.7-13.32 7.43-16.14 7-17-8.32-17.93-9.73 2.43-17 3.07-19.72S18 19 19.55 18s17.8-4 21.52.34z" class="c27-cls-11" data-color-action="fill" style="fill:inherit"/><path d="M2 31.6h55v7.67H2z" class="c27-cls-11" data-color-action="fill" style="fill:inherit"/></g><g id="c77_bridge_pontic" class="c27-cls-8" data-name="bridge pontic"><path d="M41.07 18.34c2.14 2.51 4.35 14.73 4.87 19.08s1.28 12.68.51 13.7-13.32 7.43-16.14 7-17-8.32-17.93-9.73 2.43-17 3.07-19.72S18 19 19.55 18s17.8-4 21.52.34z" class="c27-cls-11" data-color-action="fill" style="fill:inherit"/><path d="M2 31.6h55v7.67H2z" class="c27-cls-11" data-color-action="fill" style="fill:inherit"/></g><g id="c77_implant_mini" data-name="implant mini"><path d="M2 2h55v61.98H2z" class="c27-cls-13"/><path d="M29.72 0h-.44l-1 8.5v40.83h2.44V8.5l-1-8.5z" class="c27-cls-11" data-color-action="fill" style="fill:inherit"/><path d="M29.42 0h-.07l-.4 8.5v40.83h.37V8.5l.1-8.5z" class="c27-cls-16"/><path d="M28.28 48.7h2.44v.63h-2.44z" class="c27-cls-17" data-color-action="fill" style="fill:inherit"/><g class="c27-cls-18"><path d="M28.28 48.7l2.44-1v.63l-2.44 1v-.63zM28.28 47.26l2.44-1v.63l-2.44 1v-.63zM28.28 45.81l2.44-1v.63l-2.44 1v-.63zM28.28 44.36l2.44-1V44l-2.44 1v-.64zM28.28 42.92l2.44-1v.63l-2.44 1v-.63zM28.28 41.47l2.44-1v.63l-2.44 1.01v-.64zM28.28 40.03l2.44-1v.63l-2.44 1v-.63zM28.28 38.58l2.44-1v.63l-2.44 1.01v-.64zM28.28 37.14l2.44-1v.63l-2.44 1v-.63zM28.28 35.69l2.44-1v.63l-2.44 1v-.63zM28.28 34.25l2.44-1.01v.64l-2.44 1v-.63zM28.28 32.8l2.44-1v.63l-2.44 1v-.63zM28.28 31.36l2.44-1v.63l-2.44 1v-.63zM28.28 29.91l2.44-1v.63l-2.44 1v-.63zM28.28 28.46l2.44-1v.64l-2.44 1v-.64zM28.28 27.02l2.44-1v.63l-2.44 1v-.63zM28.28 25.57l2.44-1v.63l-2.44 1.01v-.64zM28.28 24.13l2.44-1v.63l-2.44 1v-.63zM28.28 22.68l2.44-1v.63l-2.44 1.01v-.64zM28.28 21.24l2.44-1v.63l-2.44 1v-.63zM28.28 19.79l2.44-1v.63l-2.44 1v-.63zM28.28 18.35l2.44-1.01v.64l-2.44 1v-.63zM28.28 16.9l2.44-1v.63l-2.44 1v-.63zM28.28 15.46l2.44-1v.63l-2.44 1v-.63zM28.28 14.01l2.44-1v.63l-2.44 1v-.63zM28.28 12.56l2.44-1v.64l-2.44 1v-.64zM28.28 11.12l2.44-1v.63l-2.44 1v-.63zM28.28 9.67l2.44-1v.63l-2.44 1.01v-.64zM28.28 8.5l.03-.29 2.27-.92.07.6-2.37.97V8.5zM28.49 6.7l1.93-.79.07.6-2.08.85.08-.66zM28.67 5.18l1.58-.65.08.6-1.74.71.08-.66zM28.85 3.66l1.24-.51.07.6-1.39.57.08-.66zM29.03 2.14l.9-.37.07.6-1.05.43.08-.66zM29.2.62l.57-.23.07.6-.71.3.07-.67z" class="c27-cls-17" data-color-action="fill" style="fill:inherit"/></g><circle cx="29.5" cy="53.21" r="2.24" class="c27-cls-11" data-color-action="fill" style="fill:inherit"/><path d="M27.67 48.99h3.67v3h-3.67z" class="c27-cls-11" data-color-action="fill" style="fill:inherit"/><path d="M28.49 48.99h.55v3h-.55z" class="c27-cls-16"/><path d="M28.7 54.56h-.21a2.32 2.32 0 0 1-.49-1.28 2.37 2.37 0 0 1 .52-1.3H29a2 2 0 0 0-.73 1.37 1.5 1.5 0 0 0 .43 1.21z" class="c27-cls-16"/><path d="M28.28 42.63h2.44v.63h-2.44z" class="c27-cls-17" data-color-action="fill" style="fill:inherit"/><path d="M32.11 49.01h-5.22l.87-5.71h3.48l.87 5.71z" class="c27-cls-11" data-color-action="fill" style="fill:inherit"/><path d="M28.85 49.01h-.79l.48-5.71h.53l-.22 5.71z" class="c27-cls-16"/></g><g id="c77_implant_cylinder" data-name="implant cylinder"><path d="M2 2h55v61.98H2z" class="c27-cls-13"/><path d="M26.17 3h6.67v49.33h-6.67zM24.5 0h10v3h-10z" class="c27-cls-11" data-color-action="fill" style="fill:inherit"/><path d="M28 3h1v49.33h-1zM26.75 0h1.5v3h-1.5z" class="c27-cls-16"/><path d="M24.5 52.36h10v3h-10z" class="c27-cls-11" data-color-action="fill" style="fill:inherit"/><path d="M26.75 52.36h1.5v3h-1.5z" class="c27-cls-16"/><path d="M26.17 3h6.67v.63h-6.67zM26.17 51.7h6.67v.63h-6.67z" class="c27-cls-17" data-color-action="fill" style="fill:inherit"/><g class="c27-cls-18"><path d="M32.83 50.7l-6.66 1v.63l6.66-1v-.63zM32.83 49.25l-6.66 1v.63l6.66-1v-.63zM32.83 47.81l-6.66 1v.63l6.66-1v-.63zM32.83 46.36l-6.66 1v.63l6.66-1v-.63zM32.83 44.92l-6.66 1v.63l6.66-1v-.63zM32.83 43.47l-6.66 1v.63l6.66-1v-.63zM32.83 42.02l-6.66 1v.64l6.66-1v-.64zM32.83 40.58l-6.66 1v.63l6.66-1v-.63zM32.83 39.13l-6.66 1v.64l6.66-1v-.64zM32.83 37.69l-6.66 1v.63l6.66-1v-.63zM32.83 36.24l-6.66 1v.64l6.66-1v-.64zM32.83 34.8l-6.66 1v.63l6.66-1v-.63zM32.83 33.35l-6.66 1v.63l6.66-1v-.63zM32.83 31.91l-6.66 1v.63l6.66-1v-.63zM32.83 30.46l-6.66 1v.63l6.66-1v-.63zM32.83 29.02l-6.66 1v.63l6.66-1v-.63zM32.83 27.57l-6.66 1v.63l6.66-1v-.63zM32.83 26.13l-6.66 1v.63l6.66-1v-.63zM32.83 24.68l-6.66 1v.63l6.66-1v-.63zM32.83 23.23l-6.66 1v.64l6.66-1v-.64zM32.83 21.79l-6.66 1v.63l6.66-1v-.63zM32.83 20.34l-6.66 1v.64l6.66-1v-.64zM32.83 18.9l-6.66 1v.63l6.66-1v-.63zM32.83 17.45l-6.66 1v.64l6.66-1.01v-.63zM32.83 16.01l-6.66 1v.63l6.66-1v-.63zM32.83 14.56l-6.66 1v.63l6.66-1v-.63zM32.83 13.12l-6.66 1v.63l6.66-1v-.63zM32.83 11.67l-6.66 1v.63l6.66-1v-.63zM32.83 10.22l-6.66 1v.64l6.66-1v-.64zM32.83 8.78l-6.66 1v.63l6.66-1v-.63zM32.83 7.33l-6.66 1.01v.63l6.66-1v-.64zM32.83 5.89l-6.66 1v.63l6.66-1v-.63zM32.83 4.44l-6.66 1v.64l6.66-1v-.64zM32.83 3l-6.66 1v.63l6.66-1V3z" class="c27-cls-17" data-color-action="fill" style="fill:inherit"/></g></g><g id="c77_implant_blade" data-name="implant blade"><path d="M2 2h55v61.98H2z" class="c27-cls-13"/><path d="M26.17 3.03h6.67v49.33h-6.67zM24.5 52.36h10v3h-10z" class="c27-cls-11" data-color-action="fill" style="fill:inherit"/><path d="M28 3.03h1v49.33h-1zM26.75 52.36h1.5v3h-1.5z" class="c27-cls-16"/><path d="M26.17 51.73h6.67v.63h-6.67z" class="c27-cls-17" data-color-action="fill" style="fill:inherit"/></g><path id="c77_border" d="M0 0h59v66H0z" class="c27-cls-7" transform="rotate(180 29.5 33)"/></defs></g></svg>