<svg xmlns="http://www.w3.org/2000/svg" viewBox="0 0 59 283"><defs><style>.a5-cls-1{isolation:isolate}.a5-cls-2{font-size:15px;fill:#929497;font-family:ProximaNova-Semibold,Proxima Nova,sans-serif;font-weight:700;stroke:none}.a5-cls-24,.a5-cls-3{fill:#c5c7c9;stroke:none}.a5-cls-3{stroke:#c5c7c9;stroke-width:5px}.a5-cls-19,.a5-cls-21,.a5-cls-23,.a5-cls-25,.a5-cls-26,.a5-cls-29,.a5-cls-3,.a5-cls-32,.a5-cls-33{stroke-miterlimit:10}.a5-cls-4,.a5-cls-5{fill:#f5d7cf;stroke:none}.a5-cls-5{fill:#fae8e3}.a5-cls-6,.a5-cls-7{fill:#f2c6bc;stroke:none}.a5-cls-7{fill:#eeefef}.a5-cls-8,.a5-cls-9{fill:#e2e3e4;stroke:none}.a5-cls-9{fill:#fbfbfb}.a5-cls-10,.a5-cls-27,.a5-cls-36{fill:#3c3d3d;stroke:none}.a5-cls-10{opacity:.55}.a5-cls-11{fill:#ffd403;stroke:none}.a5-cls-12,.a5-cls-31{fill:#ffef3e;stroke:none}.a5-cls-13,.a5-cls-14,.a5-cls-20{fill:#c52636;stroke:none}.a5-cls-14{fill:none}.a5-cls-19,.a5-cls-21,.a5-cls-23,.a5-cls-25,.a5-cls-26,.a5-cls-29,.a5-cls-32,.a5-cls-33{fill:none}.a5-cls-16,.a5-cls-37{fill:#28418b;stroke:none}.a5-cls-17,.a5-cls-18{fill:#787878;stroke:none}.a5-cls-19,.a5-cls-21,.a5-cls-23,.a5-cls-29,.a5-cls-32,.a5-cls-33{stroke:#c52636}.a5-cls-19,.a5-cls-21,.a5-cls-26{stroke-width:2px}.a5-cls-21{stroke-linecap:round}.a5-cls-22{fill:#fff;stroke:none}.a5-cls-25,.a5-cls-26{stroke:#28418b}.a5-cls-25{stroke-width:3px}.a5-cls-28{opacity:.6}.a5-cls-29{stroke-width:4px}.a5-cls-30{fill:#f05b85;stroke:none}.a5-cls-32,.a5-cls-33{stroke-width:1.25px}.a5-cls-34,.a5-cls-35{fill:#9b9999;stroke:none}.a5-cls-35{fill:#dbdbdc}.b5-cls-1{isolation:isolate}.b5-cls-2{fill:#c5c7c9;stroke:#c5c7c9;stroke-width:5px}.b5-cls-16,.b5-cls-17,.b5-cls-2{stroke-miterlimit:10}.b5-cls-3{fill:#eeefef;stroke:none}.b5-cls-4,.b5-cls-5{fill:#e2e3e4;stroke:none}.b5-cls-5{fill:#fbfbfb}.b5-cls-14,.b5-cls-6{fill:#3c3d3d;stroke:none}.b5-cls-6{opacity:.55}.b5-cls-16,.b5-cls-17{fill:none}.b5-cls-7{fill:none;stroke:none}.b5-cls-13,.b5-cls-8,.b5-cls-9{fill:#787878;stroke:none}.b5-cls-9{font-size:33px;fill:#28418b;font-family:ProximaNova-Semibold,Proxima Nova,sans-serif;font-weight:700}.b5-cls-10{fill:#fff;stroke:none}.b5-cls-12,.b5-cls-15{fill:#c52636;stroke:none}.b5-cls-15{fill:#ffef3e}.b5-cls-16,.b5-cls-17{stroke:#c52636;stroke-width:1.25px}.c5-cls-1{isolation:isolate}.c5-cls-16,.c5-cls-2{fill:#c5c7c9;stroke:none}.c5-cls-2{stroke:#c5c7c9;stroke-width:5px}.c5-cls-2,.c5-cls-20,.c5-cls-21{stroke-miterlimit:10}.c5-cls-3{fill:#eeefef;stroke:none}.c5-cls-4,.c5-cls-5{fill:#fbfbfb;stroke:none}.c5-cls-5{fill:#e2e3e4}.c5-cls-17,.c5-cls-6{fill:#3c3d3d;stroke:none}.c5-cls-6{opacity:.55}.c5-cls-20,.c5-cls-21{fill:none}.c5-cls-7,.c5-cls-9{fill:none;stroke:none}.c5-cls-9{fill:#28418b}.c5-cls-10,.c5-cls-11{fill:#787878;stroke:none}.c5-cls-12,.c5-cls-13,.c5-cls-19{fill:#ffef3e;stroke:none}.c5-cls-13{fill:#fff}.c5-cls-14,.c5-cls-15{fill:#c52636;stroke:none}.c5-cls-18{opacity:.6}.c5-cls-20,.c5-cls-21{stroke:#c52636;stroke-width:1.25px}.a5-msng-cls-1{isolation:isolate}.a5-msng-cls-2{font-size:15px;fill:#929497;font-family:ProximaNova-Semibold,Proxima Nova;font-weight:700;stroke:none}.a5-msng-cls-3{fill:#c5c7c9;stroke:#c5c7c9;stroke-width:5px}.a5-msng-cls-11,.a5-msng-cls-3{stroke-miterlimit:10}.a5-msng-cls-4{fill:#f5d7cf;stroke:none}.a5-msng-cls-5{fill:#fae8e3;stroke:none}.a5-msng-cls-6{fill:#f2c6bc;stroke:none}.a5-msng-cls-7{fill:#eeefef;stroke:none}.a5-msng-cls-8{fill:#e2e3e4;stroke:none}.a5-msng-cls-9{fill:#fbfbfb;stroke:none}.a5-msng-cls-11{fill:none}.a5-msng-cls-12{fill:none;stroke:none}.a5-msng-cls-11{stroke:#787878;stroke-width:6.25px}</style></defs><g class="a5-cls-1"><g id="_5A" data-name="#5A"><text class="a5-cls-2" transform="translate(20.5 20.51)">55</text><path d="M17.45 112a7.85 7.85 0 0 1 1-.56c1.09-7.23 3.79-23.36 5-35.19 1.67-17.35 4.02-40.85 5.63-40.85S36 47.66 39.35 78c1.35 12.3 1.94 29.5 2 36l.1.09c3.86 4 4.45 22.39 4.58 28.08s-15.1 12-19.79 11.75c-4.21-.25-10.3-6.66-12.49-8.54-4.21-3.59-1-30.19 3.7-33.38z" class="a5-cls-3"/><path d="M41.33 116.43c.16-2.35-.37-23.88-2-38.47C36 47.66 30.69 35.4 29.08 35.4s-4 23.5-5.69 40.82c-1.5 15-5.44 37-5.44 38.84S41 122 41.33 116.43z" class="a5-cls-4"/><path d="M24.26 112.15s.86-4.26 1.81-14.36c1.13-12 2.39-43 2.27-47.71s-.73-10.7 0-10.82 1.81 13.37 2.06 24.44 0 25.55-.26 33-.9 15.94-.9 15.94z" class="a5-cls-5"/><path d="M37.73 80.42c-.4-6.68-1.45-18.86-2.19-27.06 1.35 6.32 2.69 14.44 3.81 24.64 1.61 14.6 2.14 36.12 2 38.47-.06 1-.8 1.59-2 2l-1-3.15s.19-21.15-.62-34.9zM17.95 115.07c0-1.86 3.94-23.82 5.44-38.84 1-10.34 2.29-22.89 3.47-31.32-.44 9.23-1.34 27.61-2.08 38.57-1 15.08-2.85 30.06-2.85 30.06l-.5 3.28c-2.09-.65-3.48-1.3-3.48-1.75z" class="a5-cls-6"/><path d="M41.45 114.08c3.86 4 4.45 22.39 4.58 28.08s-15.1 12-19.79 11.75c-4.21-.25-10.3-6.66-12.49-8.54-4.21-3.59-1-30.18 3.71-33.4s18.54-3.58 23.99 2.11z" class="a5-cls-7"/><path d="M43.28 144.44c-.1-6.21-.59-26.26-3.76-30.67a10 10 0 0 0-2.92-2.66 12.69 12.69 0 0 1 4.85 3c3.86 4 4.45 22.39 4.58 28.08 0 1.78-1.43 3.63-3.6 5.31a6.15 6.15 0 0 0 .85-3.06zM17.45 112a12.42 12.42 0 0 1 4-1.59 7.29 7.29 0 0 0-1.65 1.09c-3.86 3.5-6.5 32.5-3.04 36.5l.59.7c-1.52-1.35-2.82-2.6-3.6-3.28-4.21-3.63-1-30.23 3.7-33.42z" class="a5-cls-8"/><path d="M22.36 134.41c.41-11.31 1.22-17.73 2.34-22.11a15.65 15.65 0 0 1 .86-2.55 30.88 30.88 0 0 1 3.58-.05 9.62 9.62 0 0 0-.67 1.89c-.82 3.87-1.53 11.31-1.32 21.91.15 7.94.84 16.6 1.07 20.26a9.23 9.23 0 0 1-2 .16 9.26 9.26 0 0 1-4-1.52c-.07-4.4-.08-11.84.14-17.99z" class="a5-cls-9"/></g><defs><g id="a55_bone_graft" data-name="bone graft"><path d="M2 23.31h55v91.86H2z" class="a5-cls-16" data-color-action="fill" style="fill:inherit"/><path d="M17.45 112a7.85 7.85 0 0 1 1-.56c1.09-7.23 3.79-23.36 5-35.19 1.67-17.35 4.02-40.85 5.63-40.85S36 47.66 39.35 78c1.35 12.3 1.94 29.5 2 36l.1.09c3.86 4 4.45 22.39 4.58 28.08s-15.1 12-19.79 11.75c-4.21-.25-10.3-6.66-12.49-8.54-4.21-3.59-1-30.19 3.7-33.38z" class="a5-cls-3"/><path d="M41.33 116.43c.16-2.35-.37-23.88-2-38.47C36 47.66 30.69 35.4 29.08 35.4s-4 23.5-5.69 40.82c-1.5 15-5.44 37-5.44 38.84S41 122 41.33 116.43z" class="a5-cls-4"/><path d="M24.26 112.15s.86-4.26 1.81-14.36c1.13-12 2.39-43 2.27-47.71s-.73-10.7 0-10.82 1.81 13.37 2.06 24.44 0 25.55-.26 33-.9 15.94-.9 15.94z" class="a5-cls-5"/><path d="M37.73 80.42c-.4-6.68-1.45-18.86-2.19-27.06 1.35 6.32 2.69 14.44 3.81 24.64 1.61 14.6 2.14 36.12 2 38.47-.06 1-.8 1.59-2 2l-1-3.15s.19-21.15-.62-34.9zM17.95 115.07c0-1.86 3.94-23.82 5.44-38.84 1-10.34 2.29-22.89 3.47-31.32-.44 9.23-1.34 27.61-2.08 38.57-1 15.08-2.85 30.06-2.85 30.06l-.5 3.28c-2.09-.65-3.48-1.3-3.48-1.75z" class="a5-cls-6"/><path d="M41.45 114.08c3.86 4 4.45 22.39 4.58 28.08s-15.1 12-19.79 11.75c-4.21-.25-10.3-6.66-12.49-8.54-4.21-3.59-1-30.18 3.71-33.4s18.54-3.58 23.99 2.11z" class="a5-cls-7"/><path d="M43.28 144.44c-.1-6.21-.59-26.26-3.76-30.67a10 10 0 0 0-2.92-2.66 12.69 12.69 0 0 1 4.85 3c3.86 4 4.45 22.39 4.58 28.08 0 1.78-1.43 3.63-3.6 5.31a6.15 6.15 0 0 0 .85-3.06zM17.45 112a12.42 12.42 0 0 1 4-1.59 7.29 7.29 0 0 0-1.65 1.09c-3.86 3.5-6.5 32.5-3.04 36.5l.59.7c-1.52-1.35-2.82-2.6-3.6-3.28-4.21-3.63-1-30.23 3.7-33.42z" class="a5-cls-8"/><path d="M22.36 134.41c.41-11.31 1.22-17.73 2.34-22.11a15.65 15.65 0 0 1 .86-2.55 30.88 30.88 0 0 1 3.58-.05 9.62 9.62 0 0 0-.67 1.89c-.82 3.87-1.53 11.31-1.32 21.91.15 7.94.84 16.6 1.07 20.26a9.23 9.23 0 0 1-2 .16 9.26 9.26 0 0 1-4-1.52c-.07-4.4-.08-11.84.14-17.99z" class="a5-cls-9"/></g><g id="a55_splinted_crowns" data-name="splinted crowns"><path d="M2 104.58h55v7.67H2z" class="a5-cls-12" data-color-action="fill" style="fill:inherit"/><path d="M17.45 112a7.85 7.85 0 0 1 1-.56c1.09-7.23 3.79-23.36 5-35.19 1.67-17.35 4.02-40.85 5.63-40.85S36 47.66 39.35 78c1.35 12.3 1.94 29.5 2 36l.1.09c3.86 4 4.45 22.39 4.58 28.08s-15.1 12-19.79 11.75c-4.21-.25-10.3-6.66-12.49-8.54-4.21-3.59-1-30.19 3.7-33.38z" class="a5-cls-3"/><path d="M41.33 116.43c.16-2.35-.37-23.88-2-38.47C36 47.66 30.69 35.4 29.08 35.4s-4 23.5-5.69 40.82c-1.5 15-5.44 37-5.44 38.84S41 122 41.33 116.43z" class="a5-cls-4"/><path d="M24.26 112.15s.86-4.26 1.81-14.36c1.13-12 2.39-43 2.27-47.71s-.73-10.7 0-10.82 1.81 13.37 2.06 24.44 0 25.55-.26 33-.9 15.94-.9 15.94z" class="a5-cls-5"/><path d="M37.73 80.42c-.4-6.68-1.45-18.86-2.19-27.06 1.35 6.32 2.69 14.44 3.81 24.64 1.61 14.6 2.14 36.12 2 38.47-.06 1-.8 1.59-2 2l-1-3.15s.19-21.15-.62-34.9zM17.95 115.07c0-1.86 3.94-23.82 5.44-38.84 1-10.34 2.29-22.89 3.47-31.32-.44 9.23-1.34 27.61-2.08 38.57-1 15.08-2.85 30.06-2.85 30.06l-.5 3.28c-2.09-.65-3.48-1.3-3.48-1.75z" class="a5-cls-6"/><path d="M41.45 114.08c3.86 4 4.45 22.39 4.58 28.08s-15.1 12-19.79 11.75c-4.21-.25-10.3-6.66-12.49-8.54-4.21-3.59-1-30.18 3.71-33.4s18.54-3.58 23.99 2.11z" class="a5-cls-7"/><path d="M43.28 144.44c-.1-6.21-.59-26.26-3.76-30.67a10 10 0 0 0-2.92-2.66 12.69 12.69 0 0 1 4.85 3c3.86 4 4.45 22.39 4.58 28.08 0 1.78-1.43 3.63-3.6 5.31a6.15 6.15 0 0 0 .85-3.06zM17.45 112a12.42 12.42 0 0 1 4-1.59 7.29 7.29 0 0 0-1.65 1.09c-3.86 3.5-6.5 32.5-3.04 36.5l.59.7c-1.52-1.35-2.82-2.6-3.6-3.28-4.21-3.63-1-30.23 3.7-33.42z" class="a5-cls-8"/><path d="M22.36 134.41c.41-11.31 1.22-17.73 2.34-22.11a15.65 15.65 0 0 1 .86-2.55 30.88 30.88 0 0 1 3.58-.05 9.62 9.62 0 0 0-.67 1.89c-.82 3.87-1.53 11.31-1.32 21.91.15 7.94.84 16.6 1.07 20.26a9.23 9.23 0 0 1-2 .16 9.26 9.26 0 0 1-4-1.52c-.07-4.4-.08-11.84.14-17.99z" class="a5-cls-9"/></g><path id="a55_mesial" d="M39.4 132.49a19 19 0 0 1-.74 4.38l6.19 8.25a4.8 4.8 0 0 0 1.18-3c-.06-2.82-.24-8.77-.87-14.53-2.36.34-5.52 1.41-5.76 4.9z" class="a5-cls-10" data-color-action="fill" style="fill:inherit"/><path id="a55_line_angle_2" d="M32.44 142.13l1.78 9.87c4.16-1.66 8.57-4.18 10.63-6.84l-6.19-8.25c-.93 2.9-2.78 4.61-6.22 5.22z" class="a5-cls-10" data-color-action="fill" style="fill:inherit" data-name="line angle 2"/><path id="a55_cusp_1" d="M27.95 142.39a14 14 0 0 1-4-.67l-3.28 9.59c1.93 1.4 3.92 2.5 5.61 2.6s4.76-.67 8-1.95l-1.79-9.83a21.35 21.35 0 0 1-4.54.26z" class="a5-cls-10" data-color-action="fill" style="fill:inherit" data-name="cusp 1"/><path id="a55_line_angle_1" d="M18.95 136l-6 8.29a3.28 3.28 0 0 0 .76 1.05c1.31 1.12 4 3.86 6.88 5.94l3.28-9.59a7.32 7.32 0 0 1-4.92-5.69z" class="a5-cls-10" data-color-action="fill" style="fill:inherit" data-name="line angle 1"/><path id="a55_distal" d="M13 144.32l6-8.29a26.43 26.43 0 0 1-.61-5c-.18-3.63-3.84-4.19-5.86-4.22-1.02 7.01-1.06 14.45.47 17.51z" class="a5-cls-10" data-color-action="fill" style="fill:inherit"/><ellipse id="a55_buccal" cx="28.92" cy="127.93" class="a5-cls-10" rx="4.61" ry="9.46" data-color-action="fill" style="fill:inherit"/><path id="a55_buccal_V" d="M37.88 111.63c-5.21-2.41-12.74-2.41-17.49-1a13.33 13.33 0 0 0 17.49 1z" class="a5-cls-10" data-color-action="fill" style="fill:inherit" data-name="buccal V"/><path id="a55_veneer" d="M41.45 114.08c3.86 4 4.45 22.39 4.58 28.08s-15.1 12-19.79 11.75c-4.21-.25-10.3-6.66-12.49-8.54-4.21-3.59-1-30.18 3.71-33.4s18.54-3.58 23.99 2.11z" class="a5-cls-12" data-color-action="fill" style="fill:inherit"/><path id="a55_tissue_graft" d="M46.97 95.66L29.5 109.54 12.03 95.66h34.94z" class="a5-cls-13" data-color-action="fill" style="fill:inherit" data-name="tissue graft"/><path id="a55_tipped_lingual" d="M28 3.25h3v3h-3z" class="a5-cls-14" data-name="tipped lingual"/><g id="a55_tipped_facial" class="a5-cls-15" data-name="tipped facial"><path d="M25.85 156.5c1.26 3.37 4.74 3.85 7.69-5.32.5-1.56 4.42-1.76 3.84 0-2 6.08-5.31 10.2-9.06 9.27a4.86 4.86 0 0 1-3-3.38c.19-.17.42-.42.53-.57z" class="a5-cls-16" data-color-action="fill" style="fill:inherit"/><path d="M27.93 153.58h12.94l-2.94-9.64-10 9.64z" class="a5-cls-16" data-color-action="fill" style="fill:inherit"/></g><path id="a55_surface_restoration_occlusal" d="M43.86 146.23l-5.09-4.78c-2.32 2.16-9.21 5.22-12 5.46-1.77-.66-5.54-4.16-6.81-5.33l-.77-.71-4.74 5.13c2.6 2.38 8 7.68 11.78 7.9 3.59.22 13.28-3.41 17.63-7.67z" class="a5-cls-17" data-color-action="fill" style="fill:inherit" data-name="surface restoration occlusal"/><path id="a55_surface_restoration_mesial" d="M46 142.16A153.7 153.7 0 0 0 44.68 124a11.71 11.71 0 0 1-7.19-6c.66 6 1.29 14.67 1.52 23.2l-.24.22 5.09 4.78c1.36-1.3 2.2-2.69 2.14-4.04z" class="a5-cls-17" data-color-action="fill" style="fill:inherit" data-name="surface restoration mesial"/><path id="a55_surface_restoration_buccal" d="M21.95 112.13a13.81 13.81 0 0 1-1.88 5c-1.19 8.46-1.78 20.53-.94 23.66l.85.78c1.27 1.17 5 4.67 6.81 5.33 2.88-.25 10.16-3.51 12.23-5.68-.23-8.53-.86-17.21-1.52-23.2a14.15 14.15 0 0 1-1.63-5.78 14.31 14.31 0 0 1-13.92-.12z" class="a5-cls-15 a5-cls-18" data-color-action="fill" style="fill:inherit" data-name="surface restoration buccal"/><path id="a55_surface_restoration_buccal_V" d="M35.85 110.87a28.68 28.68 0 0 0-13.71-.63 14.78 14.78 0 0 1-.2 1.89 14.31 14.31 0 0 0 13.92.12v-.92c-.03-.15-.01-.33-.01-.46z" class="a5-cls-15 a5-cls-18" data-color-action="fill" style="fill:inherit" data-name="surface restoration buccal V"/><path id="a55_surface_restoration_distal" d="M19.13 140.8c-.84-3.13-.25-15.2.94-23.66a11.55 11.55 0 0 1-6.82 5.19c-1.84 9-2.2 20.75.5 23l.71.63 4.75-5.14z" class="a5-cls-17" data-color-action="fill" style="fill:inherit" data-name="surface restoration distal"/><g id="a55_supra-erupted" class="a5-cls-15"><path d="M30.5 102.88V95.2" class="a5-cls-19" data-color-action="stroke" style="stroke:inherit"/><path d="M34.49 101.71l-3.99 6.91-3.99-6.91h7.98z" class="a5-cls-20" data-color-action="fill" style="fill:inherit"/></g><g id="a55_sub-erupted" class="a5-cls-15"><path d="M30.5 100.94v7.68" class="a5-cls-19" data-color-action="stroke" style="stroke:inherit"/><path d="M26.51 102.11l3.99-6.91 3.99 6.91h-7.98z" class="a5-cls-20" data-color-action="fill" style="fill:inherit"/></g><path id="a55_sealant" d="M28 3.25h3v3h-3z" class="a5-cls-14"/><g id="a55_rotated_mesial" class="a5-cls-15" data-name="rotated mesial"><path d="M5.87 128.18c-3 1.79-2.3 5.46 10.23 5.81 5.3.15 8.95 0 8.95 0L25 137s-1 .07-8.22-.24c-7.62-.32-14-1.83-13.75-6a4 4 0 0 1 2.31-2.92c.15.16.4.27.53.34z" class="a5-cls-16" data-color-action="fill" style="fill:inherit"/><path d="M18.57 129.47v11.89l10.4-5.9-10.4-5.99z" class="a5-cls-16" data-color-action="fill" style="fill:inherit"/></g><g id="a55_rotated_distal" class="a5-cls-15" data-name="rotated distal"><path d="M53.13 128.18c3 1.79 2.3 5.46-10.23 5.81-5.3.15-8.95 0-8.95 0l.07 3s1 .07 8.22-.24c7.62-.32 14-1.83 13.75-6a4 4 0 0 0-2.31-2.92c-.17.17-.42.28-.55.35z" class="a5-cls-16" data-color-action="fill" style="fill:inherit"/><path d="M40.43 129.47v11.89l-10.4-5.9 10.4-5.99z" class="a5-cls-16" data-color-action="fill" style="fill:inherit"/></g><circle id="a55_root_decay" cx="31.67" cy="65.34" r="4.33" class="a5-cls-15 a5-cls-18" data-color-action="fill" style="fill:inherit" data-name="root decay"/><path id="a55_root_canal" d="M29.67 41.17v66.33" class="a5-cls-21" data-color-action="stroke" style="stroke:inherit" data-name="root canal"/><path id="a55_root_abrasion" d="M29.08 58.67h3.5V72.5h-3.5z" class="a5-cls-15 a5-cls-23" data-color-action="stroke" style="stroke:inherit" data-name="root abrasion"/><g id="a55_post"><path d="M27.5 87.39h3.14v41.77H27.5z" class="a5-cls-18" data-color-action="fill" style="fill:inherit"/><path d="M28.37 87.39h.47v41.77h-.47z" class="a5-cls-24"/></g><g id="a55_pins"><path d="M25.32 97.72h2.42v23.43h-2.42z" class="a5-cls-18" data-color-action="fill" style="fill:inherit"/><path d="M25.99 97.72h.36v23.43h-.36z" class="a5-cls-24"/><path d="M29.91 97.72h2.42v23.43h-2.42z" class="a5-cls-18" data-color-action="fill" style="fill:inherit"/><path d="M30.57 97.72h.36v23.43h-.36z" class="a5-cls-24"/></g><path id="a55_open_contact_mesial" d="M33.69 104.99l7.5 4.75 7.5-4.75" class="a5-cls-25" data-color-action="stroke" style="stroke:inherit" data-name="open contact mesial"/><path id="a55_open_contact_distal" d="M10.67 103.99l7.5 4.75 7.5-4.75" class="a5-cls-25" data-color-action="stroke" style="stroke:inherit" data-name="open contact distal"/><g id="a55_mesial_drift" class="a5-cls-15" data-name="mesial drift"><path d="M32.59 133.16H20.67" class="a5-cls-26" data-color-action="stroke" style="stroke:inherit"/><path d="M31.43 129.18l6.9 3.98-6.9 3.99v-7.97z" class="a5-cls-16" data-color-action="fill" style="fill:inherit"/></g><path id="a55_lingual_abfraction" d="M28 3.25h3v3h-3z" class="a5-cls-14" data-name="lingual abfraction"/><ellipse id="a55_internal_root_resorption" cx="31.04" cy="69.1" class="a5-cls-15 a5-cls-20" rx="3.98" ry="9.84" transform="rotate(-3.19 31.14 69.154)" data-color-action="fill" style="fill:inherit" data-name="internal root resorption"/><g id="a55_impacted_mesial" class="a5-cls-15" data-name="impacted mesial"><ellipse cx="29.51" cy="94.46" class="a5-cls-26" rx="24.15" ry="65.13" data-color-action="stroke" style="stroke:inherit"/><path d="M18.11 94.46H5.35" class="a5-cls-26" data-color-action="stroke" style="stroke:inherit"/><path d="M16.94 90.48l6.91 3.99-6.91 3.98v-7.97z" class="a5-cls-16" data-color-action="fill" style="fill:inherit"/></g><g id="a55_impacted_distal" class="a5-cls-15" data-name="impacted distal"><ellipse cx="29.5" cy="94.46" class="a5-cls-26" rx="24.15" ry="65.13" data-color-action="stroke" style="stroke:inherit"/><path d="M40.91 94.46h12.76" class="a5-cls-26" data-color-action="stroke" style="stroke:inherit"/><path d="M42.08 98.45l-6.91-3.98 6.91-3.99v7.97z" class="a5-cls-16" data-color-action="fill" style="fill:inherit"/></g><path id="a55_gortex_membranes" d="M2 96.83h55v16.42H2z" class="a5-cls-13" data-color-action="fill" style="fill:inherit" data-name="gortex membranes"/><path id="a55_frenum_pull" d="M19.51 108.58l10.66-6.75 10.65 6.75" class="a5-cls-29" data-color-action="stroke" style="stroke:inherit" data-name="frenum pull"/><path id="a55_external_root_resorption" d="M24.32 67c-.32 3.16-.64 6.28-.93 9.23-.25 2.49-.56 5.16-.92 7.91 1.75-.85 4.61-3 5.21-8.32S25.87 68 24.32 67zm15 11c-.35-3.2-.73-6.18-1.12-9a10.65 10.65 0 0 0-3.1 8.43 9.34 9.34 0 0 0 4.9 7.66c-.18-2.48-.4-4.89-.65-7.09z" class="a5-cls-15 a5-cls-20" data-color-action="fill" style="fill:inherit" data-name="external root resorption"/><g id="a55_distal_drift" class="a5-cls-15" data-name="distal drift"><path d="M26.41 133.16h11.92" class="a5-cls-26" data-color-action="stroke" style="stroke:inherit"/><path d="M27.57 137.15l-6.9-3.99 6.9-3.98v7.97z" class="a5-cls-16" data-color-action="fill" style="fill:inherit"/></g><path id="a55_three_quarter_crown" d="M12 131.67c-.46 6.36 0 12.17 1.78 13.71 2.2 1.87 8.29 8.29 12.49 8.54 4.69.28 19.92-6.06 19.79-11.75 0-2.16-.16-6.15-.5-10.49z" class="a5-cls-15 a5-cls-31" data-color-action="fill" style="fill:inherit" data-name="three quarter crown"/><path id="a55_crown" d="M41.45 114.08c3.86 4 4.45 22.39 4.58 28.08s-15.1 12-19.79 11.75c-4.21-.25-10.3-6.66-12.49-8.54-4.21-3.59-1-30.18 3.71-33.4s18.54-3.58 23.99 2.11z" class="a5-cls-12" data-color-action="fill" style="fill:inherit"/><path id="a55_cracked_surface_mesial" d="M41.34 124.82l3.83 3.83h-5.01l5.01 4.75h-5.01l3.83 3.83" class="a5-cls-32" data-color-action="stroke" style="stroke:inherit" data-name="cracked surface mesial"/><path id="a55_cracked_surface_buccal" d="M28.17 124.82l3.84 3.83H27l5 4.75h-5l3.83 3.83" class="a5-cls-32" data-color-action="stroke" style="stroke:inherit" data-name="cracked surface buccal"/><path id="a55_cracked_surface_buccal_V" d="M28.17 124.82l3.84 3.83H27l5 4.75h-5l3.83 3.83" class="a5-cls-32" data-color-action="stroke" style="stroke:inherit" data-name="cracked surface buccal V"/><path id="a55_cracked_surface_distal" d="M13.34 124.82l3.83 3.83h-5l5 4.75h-5l3.83 3.83" class="a5-cls-32" data-color-action="stroke" style="stroke:inherit" data-name="cracked surface distal"/><g id="a55_chipped_surface_mesial" class="a5-cls-15" data-name="chipped surface mesial"><path d="M37.83 126.49l8.33 8.34M46.16 126.49l-8.33 8.34" class="a5-cls-33" data-color-action="stroke" style="stroke:inherit"/></g><g id="a55_chipped_surface_buccal" class="a5-cls-15" data-name="chipped surface buccal"><path d="M25.67 126.49l8.33 8.34M34 126.49l-8.33 8.34" class="a5-cls-33" data-color-action="stroke" style="stroke:inherit"/></g><g id="a55_chipped_surface_buccal_V" class="a5-cls-15" data-name="chipped surface buccal V"><path d="M25.67 126.49l8.33 8.34M34 126.49l-8.33 8.34" class="a5-cls-33" data-color-action="stroke" style="stroke:inherit"/></g><g id="a55_chipped_surface_distal" class="a5-cls-15" data-name="chipped surface distal"><path d="M11.67 126.49l8.33 8.34M20 126.49l-8.33 8.34" class="a5-cls-33" data-color-action="stroke" style="stroke:inherit"/></g><path id="a55_buccal_abfraction" d="M40.78 109.75a20.1 20.1 0 0 1-11.11 3.92 20.1 20.1 0 0 1-11.11-3.92 20.1 20.1 0 0 1 11.11-3.92 20.1 20.1 0 0 1 11.11 3.92z" class="a5-cls-13" data-color-action="fill" style="fill:inherit" data-name="buccal abfraction"/><g id="a55_braces"><path d="M22.59 121.97h13.45v18.19H22.59z" class="a5-cls-24"/><path d="M22.59 139.48h13.45v.68H22.59zM22.59 131.21h13.45v1.36H22.59z" class="a5-cls-34" data-color-action="fill" style="fill:inherit"/><path d="M22.59 121.97h13.45v.89H22.59z" class="a5-cls-35" data-color-action="fill" style="fill:inherit"/><rect width="4.11" height="7.94" x="22.3" y="121.99" class="a5-cls-27" rx=".49" ry=".49" data-color-action="fill" style="fill:inherit"/><path d="M25.92 122h-3.13a.49.49 0 0 0-.49.49v5.83a13.14 13.14 0 0 0 4.11 0v-5.83a.49.49 0 0 0-.49-.49z" class="a5-cls-18" data-color-action="fill" style="fill:inherit"/><path d="M26.08 123.4v-1.11a.16.16 0 0 0-.16-.16h-3.13a.16.16 0 0 0-.16.16v1.11z" class="a5-cls-24"/><rect width="4.11" height="7.94" x="32.22" y="121.99" class="a5-cls-27" rx=".49" ry=".49" data-color-action="fill" style="fill:inherit"/><path d="M35.84 122h-3.13a.49.49 0 0 0-.49.49v5.83a13.14 13.14 0 0 0 4.11 0v-5.83a.49.49 0 0 0-.49-.49z" class="a5-cls-18" data-color-action="fill" style="fill:inherit"/><path d="M36 123.4v-1.11a.16.16 0 0 0-.16-.16h-3.13a.16.16 0 0 0-.16.16v1.11z" class="a5-cls-24"/><rect width="4.11" height="7.94" x="22.3" y="132.27" class="a5-cls-27" rx=".49" ry=".49" data-color-action="fill" style="fill:inherit"/><path d="M25.92 132.27h-3.13a.49.49 0 0 0-.49.49v5.83a13.14 13.14 0 0 0 4.11 0v-5.83a.49.49 0 0 0-.49-.49z" class="a5-cls-18" data-color-action="fill" style="fill:inherit"/><path d="M26.08 133.68v-1.11a.16.16 0 0 0-.16-.16h-3.13a.16.16 0 0 0-.16.16v1.11z" class="a5-cls-24"/><rect width="4.11" height="7.94" x="32.22" y="132.27" class="a5-cls-27" rx=".49" ry=".49" data-color-action="fill" style="fill:inherit"/><path d="M35.84 132.27h-3.13a.49.49 0 0 0-.49.49v5.83a13.14 13.14 0 0 0 4.11 0v-5.83a.49.49 0 0 0-.49-.49z" class="a5-cls-18" data-color-action="fill" style="fill:inherit"/><path d="M36 133.68v-1.11a.16.16 0 0 0-.16-.16h-3.13a.16.16 0 0 0-.16.16v1.11z" class="a5-cls-24"/><path d="M8.21 130.38h42.21v1.45H8.21z" class="a5-cls-18" data-color-action="fill" style="fill:inherit"/><path d="M8.21 131.58h42.21v.25H8.21z" class="a5-cls-27" data-color-action="fill" style="fill:inherit"/><path d="M8.21 130.58h42.21v.4H8.21z" class="a5-cls-24"/></g><path id="a55_apicoectomy" d="M36.84 28.14L29.5 39.81l-7.34-11.67h14.68z" class="a5-cls-17" data-color-action="fill" style="fill:inherit"/><circle id="a55_abscess" cx="29.5" cy="32.64" r="6.5" class="a5-cls-37" data-color-action="fill" style="fill:inherit"/><g id="a55_blunted_roots" data-name="blunted roots"><path d="M2 22h55v57.99H2z" class="a5-cls-22"/><path d="M2 80.07h55v2H2z" class="a5-cls-36" data-color-action="fill" style="fill:inherit"/></g><path id="a55_root_amputation" d="M2 21.67h55v87.73H2z" class="a5-cls-22" data-name="root amputation"/><path id="a55_missing_crown" d="M2 110.45h55v48.72H2z" class="a5-cls-22" data-name="missing crown"/><g id="a55_missing_tooth" data-name="missing tooth"><path d="M17.45 112a7.85 7.85 0 0 1 1-.56c1.09-7.23 3.79-23.36 5-35.19 1.67-17.35 4.02-40.85 5.63-40.85S36 47.66 39.35 78c1.35 12.3 1.94 29.5 2 36l.1.09c3.86 4 4.45 22.39 4.58 28.08s-15.1 12-19.79 11.75c-4.21-.25-10.3-6.66-12.49-8.54-4.21-3.59-1-30.19 3.7-33.38z" class="a5-cls-3"/><path d="M41.33 116.43c.16-2.35-.37-23.88-2-38.47C36 47.66 30.69 35.4 29.08 35.4s-4 23.5-5.69 40.82c-1.5 15-5.44 37-5.44 38.84S41 122 41.33 116.43z" class="a5-cls-22"/><path d="M24.26 112.15s.86-4.26 1.81-14.36c1.13-12 2.39-43 2.27-47.71s-.73-10.7 0-10.82 1.81 13.37 2.06 24.44 0 25.55-.26 33-.9 15.94-.9 15.94zM37.73 80.42c-.4-6.68-1.45-18.86-2.19-27.06 1.35 6.32 2.69 14.44 3.81 24.64 1.61 14.6 2.14 36.12 2 38.47-.06 1-.8 1.59-2 2l-1-3.15s.19-21.15-.62-34.9zM17.95 115.07c0-1.86 3.94-23.82 5.44-38.84 1-10.34 2.29-22.89 3.47-31.32-.44 9.23-1.34 27.61-2.08 38.57-1 15.08-2.85 30.06-2.85 30.06l-.5 3.28c-2.09-.65-3.48-1.3-3.48-1.75z" class="a5-cls-22"/><path d="M41.45 114.08c3.86 4 4.45 22.39 4.58 28.08s-15.1 12-19.79 11.75c-4.21-.25-10.3-6.66-12.49-8.54-4.21-3.59-1-30.18 3.71-33.4s18.54-3.58 23.99 2.11z" class="a5-cls-22"/><path d="M43.28 144.44c-.1-6.21-.59-26.26-3.76-30.67a10 10 0 0 0-2.92-2.66 12.69 12.69 0 0 1 4.85 3c3.86 4 4.45 22.39 4.58 28.08 0 1.78-1.43 3.63-3.6 5.31a6.15 6.15 0 0 0 .85-3.06zM17.45 112a12.42 12.42 0 0 1 4-1.59 7.29 7.29 0 0 0-1.65 1.09c-3.86 3.5-6.5 32.5-3.04 36.5l.59.7c-1.52-1.35-2.82-2.6-3.6-3.28-4.21-3.63-1-30.23 3.7-33.42zM22.36 134.41c.41-11.31 1.22-17.73 2.34-22.11a15.65 15.65 0 0 1 .86-2.55 30.88 30.88 0 0 1 3.58-.05 9.62 9.62 0 0 0-.67 1.89c-.82 3.87-1.53 11.31-1.32 21.91.15 7.94.84 16.6 1.07 20.26a9.23 9.23 0 0 1-2 .16 9.26 9.26 0 0 1-4-1.52c-.07-4.4-.08-11.84.14-17.99z" class="a5-cls-22"/></g><g id="a55_extracted_tooth" class="a5-msng-cls-10" data-name="extracted tooth"><path d="M9 108.83l41.67 41.66M50.67 108.83L9 150.49" class="a5-msng-cls-11" data-color-action="stroke" style="stroke:inherit"/></g><g id="a55_denture"><path d="M2 23.16h55v135.01H2z" class="a5-cls-22"/><path d="M57 100.22A22.63 22.63 0 0 0 44.78 97c-7.64 0-10 3.22-15.79 3.22S19.15 97 13.2 97A24.26 24.26 0 0 0 2 100.22v57.94h55z" class="a5-cls-30" data-color-action="fill" style="fill:inherit"/><path d="M41.45 114.08c3.86 4 4.45 22.39 4.58 28.08s-15.1 12-19.79 11.75c-4.21-.25-10.3-6.66-12.49-8.54-4.21-3.59-1-30.18 3.71-33.4s18.54-3.58 23.99 2.11z" class="a5-cls-3"/><path d="M41.45 114.08c3.86 4 4.45 22.39 4.58 28.08s-15.1 12-19.79 11.75c-4.21-.25-10.3-6.66-12.49-8.54-4.21-3.59-1-30.18 3.71-33.4s18.54-3.58 23.99 2.11z" class="a5-cls-7"/><path d="M43.28 144.44c-.1-6.21-.59-26.26-3.76-30.67a10 10 0 0 0-2.92-2.66 12.69 12.69 0 0 1 4.85 3c3.86 4 4.45 22.39 4.58 28.08 0 1.78-1.43 3.63-3.6 5.31a6.15 6.15 0 0 0 .85-3.06zM17.45 112a12.42 12.42 0 0 1 4-1.59 7.29 7.29 0 0 0-1.65 1.09c-3.86 3.5-6.5 32.5-3.04 36.5l.59.7c-1.52-1.35-2.82-2.6-3.6-3.28-4.21-3.63-1-30.23 3.7-33.42z" class="a5-cls-8"/><path d="M22.36 134.41c.41-11.31 1.22-17.73 2.34-22.11a15.65 15.65 0 0 1 .86-2.55 30.88 30.88 0 0 1 3.58-.05 9.62 9.62 0 0 0-.67 1.89c-.82 3.87-1.53 11.31-1.32 21.91.15 7.94.84 16.6 1.07 20.26a9.23 9.23 0 0 1-2 .16 9.26 9.26 0 0 1-4-1.52c-.07-4.4-.08-11.84.14-17.99z" class="a5-cls-9"/></g><g id="a55_maryland_bridge_pontic" class="a5-cls-15" data-name="maryland bridge pontic"><path d="M2 127.33h55V135H2z" class="a5-cls-20" data-color-action="fill" style="fill:inherit"/><path d="M41.45 114.08c3.86 4 4.45 22.39 4.58 28.08s-15.1 12-19.79 11.75c-4.21-.25-10.3-6.66-12.49-8.54-4.21-3.59-1-30.18 3.71-33.4s18.54-3.58 23.99 2.11z" class="a5-cls-20" data-color-action="fill" style="fill:inherit"/></g><g id="a55_maryland_bridge_abutment_mesial" data-name="maryland bridge abutment mesial"><path d="M22.02 127.33H57V135H22.02z" class="a5-cls-15 a5-cls-20" data-color-action="fill" style="fill:inherit"/><path d="M17.45 112a7.85 7.85 0 0 1 1-.56c1.09-7.23 3.79-23.36 5-35.19 1.67-17.35 4.02-40.85 5.63-40.85S36 47.66 39.35 78c1.35 12.3 1.94 29.5 2 36l.1.09c3.86 4 4.45 22.39 4.58 28.08s-15.1 12-19.79 11.75c-4.21-.25-10.3-6.66-12.49-8.54-4.21-3.59-1-30.19 3.7-33.38z" class="a5-cls-3"/><path d="M41.33 116.43c.16-2.35-.37-23.88-2-38.47C36 47.66 30.69 35.4 29.08 35.4s-4 23.5-5.69 40.82c-1.5 15-5.44 37-5.44 38.84S41 122 41.33 116.43z" class="a5-cls-4"/><path d="M24.26 112.15s.86-4.26 1.81-14.36c1.13-12 2.39-43 2.27-47.71s-.73-10.7 0-10.82 1.81 13.37 2.06 24.44 0 25.55-.26 33-.9 15.94-.9 15.94z" class="a5-cls-5"/><path d="M37.73 80.42c-.4-6.68-1.45-18.86-2.19-27.06 1.35 6.32 2.69 14.44 3.81 24.64 1.61 14.6 2.14 36.12 2 38.47-.06 1-.8 1.59-2 2l-1-3.15s.19-21.15-.62-34.9zM17.95 115.07c0-1.86 3.94-23.82 5.44-38.84 1-10.34 2.29-22.89 3.47-31.32-.44 9.23-1.34 27.61-2.08 38.57-1 15.08-2.85 30.06-2.85 30.06l-.5 3.28c-2.09-.65-3.48-1.3-3.48-1.75z" class="a5-cls-6"/><path d="M41.45 114.08c3.86 4 4.45 22.39 4.58 28.08s-15.1 12-19.79 11.75c-4.21-.25-10.3-6.66-12.49-8.54-4.21-3.59-1-30.18 3.71-33.4s18.54-3.58 23.99 2.11z" class="a5-cls-7"/><path d="M43.28 144.44c-.1-6.21-.59-26.26-3.76-30.67a10 10 0 0 0-2.92-2.66 12.69 12.69 0 0 1 4.85 3c3.86 4 4.45 22.39 4.58 28.08 0 1.78-1.43 3.63-3.6 5.31a6.15 6.15 0 0 0 .85-3.06zM17.45 112a12.42 12.42 0 0 1 4-1.59 7.29 7.29 0 0 0-1.65 1.09c-3.86 3.5-6.5 32.5-3.04 36.5l.59.7c-1.52-1.35-2.82-2.6-3.6-3.28-4.21-3.63-1-30.23 3.7-33.42z" class="a5-cls-8"/><path d="M22.36 134.41c.41-11.31 1.22-17.73 2.34-22.11a15.65 15.65 0 0 1 .86-2.55 30.88 30.88 0 0 1 3.58-.05 9.62 9.62 0 0 0-.67 1.89c-.82 3.87-1.53 11.31-1.32 21.91.15 7.94.84 16.6 1.07 20.26a9.23 9.23 0 0 1-2 .16 9.26 9.26 0 0 1-4-1.52c-.07-4.4-.08-11.84.14-17.99z" class="a5-cls-9"/></g><g id="a55_maryland_bridge_abutment_distal" data-name="maryland bridge abutment distal"><path d="M2 127.33h34.98V135H2z" class="a5-cls-15 a5-cls-20" data-color-action="fill" style="fill:inherit"/><path d="M17.45 112a7.85 7.85 0 0 1 1-.56c1.09-7.23 3.79-23.36 5-35.19 1.67-17.35 4.02-40.85 5.63-40.85S36 47.66 39.35 78c1.35 12.3 1.94 29.5 2 36l.1.09c3.86 4 4.45 22.39 4.58 28.08s-15.1 12-19.79 11.75c-4.21-.25-10.3-6.66-12.49-8.54-4.21-3.59-1-30.19 3.7-33.38z" class="a5-cls-3"/><path d="M41.33 116.43c.16-2.35-.37-23.88-2-38.47C36 47.66 30.69 35.4 29.08 35.4s-4 23.5-5.69 40.82c-1.5 15-5.44 37-5.44 38.84S41 122 41.33 116.43z" class="a5-cls-4"/><path d="M24.26 112.15s.86-4.26 1.81-14.36c1.13-12 2.39-43 2.27-47.71s-.73-10.7 0-10.82 1.81 13.37 2.06 24.44 0 25.55-.26 33-.9 15.94-.9 15.94z" class="a5-cls-5"/><path d="M37.73 80.42c-.4-6.68-1.45-18.86-2.19-27.06 1.35 6.32 2.69 14.44 3.81 24.64 1.61 14.6 2.14 36.12 2 38.47-.06 1-.8 1.59-2 2l-1-3.15s.19-21.15-.62-34.9zM17.95 115.07c0-1.86 3.94-23.82 5.44-38.84 1-10.34 2.29-22.89 3.47-31.32-.44 9.23-1.34 27.61-2.08 38.57-1 15.08-2.85 30.06-2.85 30.06l-.5 3.28c-2.09-.65-3.48-1.3-3.48-1.75z" class="a5-cls-6"/><path d="M41.45 114.08c3.86 4 4.45 22.39 4.58 28.08s-15.1 12-19.79 11.75c-4.21-.25-10.3-6.66-12.49-8.54-4.21-3.59-1-30.18 3.71-33.4s18.54-3.58 23.99 2.11z" class="a5-cls-7"/><path d="M43.28 144.44c-.1-6.21-.59-26.26-3.76-30.67a10 10 0 0 0-2.92-2.66 12.69 12.69 0 0 1 4.85 3c3.86 4 4.45 22.39 4.58 28.08 0 1.78-1.43 3.63-3.6 5.31a6.15 6.15 0 0 0 .85-3.06zM17.45 112a12.42 12.42 0 0 1 4-1.59 7.29 7.29 0 0 0-1.65 1.09c-3.86 3.5-6.5 32.5-3.04 36.5l.59.7c-1.52-1.35-2.82-2.6-3.6-3.28-4.21-3.63-1-30.23 3.7-33.42z" class="a5-cls-8"/><path d="M22.36 134.41c.41-11.31 1.22-17.73 2.34-22.11a15.65 15.65 0 0 1 .86-2.55 30.88 30.88 0 0 1 3.58-.05 9.62 9.62 0 0 0-.67 1.89c-.82 3.87-1.53 11.31-1.32 21.91.15 7.94.84 16.6 1.07 20.26a9.23 9.23 0 0 1-2 .16 9.26 9.26 0 0 1-4-1.52c-.07-4.4-.08-11.84.14-17.99z" class="a5-cls-9"/></g><g id="a55_maryland_bridge_abutment" data-name="maryland bridge abutment"><path d="M2 127.33h55V135H2z" class="a5-cls-15 a5-cls-20" data-color-action="fill" style="fill:inherit"/><path d="M17.45 112a7.85 7.85 0 0 1 1-.56c1.09-7.23 3.79-23.36 5-35.19 1.67-17.35 4.02-40.85 5.63-40.85S36 47.66 39.35 78c1.35 12.3 1.94 29.5 2 36l.1.09c3.86 4 4.45 22.39 4.58 28.08s-15.1 12-19.79 11.75c-4.21-.25-10.3-6.66-12.49-8.54-4.21-3.59-1-30.19 3.7-33.38z" class="a5-cls-3"/><path d="M41.33 116.43c.16-2.35-.37-23.88-2-38.47C36 47.66 30.69 35.4 29.08 35.4s-4 23.5-5.69 40.82c-1.5 15-5.44 37-5.44 38.84S41 122 41.33 116.43z" class="a5-cls-4"/><path d="M24.26 112.15s.86-4.26 1.81-14.36c1.13-12 2.39-43 2.27-47.71s-.73-10.7 0-10.82 1.81 13.37 2.06 24.44 0 25.55-.26 33-.9 15.94-.9 15.94z" class="a5-cls-5"/><path d="M37.73 80.42c-.4-6.68-1.45-18.86-2.19-27.06 1.35 6.32 2.69 14.44 3.81 24.64 1.61 14.6 2.14 36.12 2 38.47-.06 1-.8 1.59-2 2l-1-3.15s.19-21.15-.62-34.9zM17.95 115.07c0-1.86 3.94-23.82 5.44-38.84 1-10.34 2.29-22.89 3.47-31.32-.44 9.23-1.34 27.61-2.08 38.57-1 15.08-2.85 30.06-2.85 30.06l-.5 3.28c-2.09-.65-3.48-1.3-3.48-1.75z" class="a5-cls-6"/><path d="M41.45 114.08c3.86 4 4.45 22.39 4.58 28.08s-15.1 12-19.79 11.75c-4.21-.25-10.3-6.66-12.49-8.54-4.21-3.59-1-30.18 3.71-33.4s18.54-3.58 23.99 2.11z" class="a5-cls-7"/><path d="M43.28 144.44c-.1-6.21-.59-26.26-3.76-30.67a10 10 0 0 0-2.92-2.66 12.69 12.69 0 0 1 4.85 3c3.86 4 4.45 22.39 4.58 28.08 0 1.78-1.43 3.63-3.6 5.31a6.15 6.15 0 0 0 .85-3.06zM17.45 112a12.42 12.42 0 0 1 4-1.59 7.29 7.29 0 0 0-1.65 1.09c-3.86 3.5-6.5 32.5-3.04 36.5l.59.7c-1.52-1.35-2.82-2.6-3.6-3.28-4.21-3.63-1-30.23 3.7-33.42z" class="a5-cls-8"/><path d="M22.36 134.41c.41-11.31 1.22-17.73 2.34-22.11a15.65 15.65 0 0 1 .86-2.55 30.88 30.88 0 0 1 3.58-.05 9.62 9.62 0 0 0-.67 1.89c-.82 3.87-1.53 11.31-1.32 21.91.15 7.94.84 16.6 1.07 20.26a9.23 9.23 0 0 1-2 .16 9.26 9.26 0 0 1-4-1.52c-.07-4.4-.08-11.84.14-17.99z" class="a5-cls-9"/></g><g id="a55_bridge_abutment_mesial" class="a5-cls-15" data-name="bridge abutment mesial"><path d="M41.45 114.08c3.86 4 4.45 22.39 4.58 28.08s-15.1 12-19.79 11.75c-4.21-.25-10.3-6.66-12.49-8.54-4.21-3.59-1-30.18 3.71-33.4s18.54-3.58 23.99 2.11z" class="a5-cls-18" data-color-action="fill" style="fill:inherit"/><path d="M22.02 127.33H57V135H22.02z" class="a5-cls-18" data-color-action="fill" style="fill:inherit"/></g><g id="a55_bridge_abutment_distal" class="a5-cls-15" data-name="bridge abutment distal"><path d="M41.45 114.08c3.86 4 4.45 22.39 4.58 28.08s-15.1 12-19.79 11.75c-4.21-.25-10.3-6.66-12.49-8.54-4.21-3.59-1-30.18 3.71-33.4s18.54-3.58 23.99 2.11z" class="a5-cls-18" data-color-action="fill" style="fill:inherit"/><path d="M2 127.33h34.98V135H2z" class="a5-cls-18" data-color-action="fill" style="fill:inherit"/></g><g id="a55_bridge_abutment" class="a5-cls-15" data-name="bridge abutment"><path d="M41.45 114.08c3.86 4 4.45 22.39 4.58 28.08s-15.1 12-19.79 11.75c-4.21-.25-10.3-6.66-12.49-8.54-4.21-3.59-1-30.18 3.71-33.4s18.54-3.58 23.99 2.11z" class="a5-cls-18" data-color-action="fill" style="fill:inherit"/><path d="M2 127.33h55V135H2z" class="a5-cls-18" data-color-action="fill" style="fill:inherit"/></g><g id="a55_bridge_pontic" data-name="bridge pontic"><path d="M17.45 112a7.85 7.85 0 0 1 1-.56c1.09-7.23 3.79-23.36 5-35.19 1.67-17.35 4.02-40.85 5.63-40.85S36 47.66 39.35 78c1.35 12.3 1.94 29.5 2 36l.1.09c3.86 4 4.45 22.39 4.58 28.08s-15.1 12-19.79 11.75c-4.21-.25-10.3-6.66-12.49-8.54-4.21-3.59-1-30.19 3.7-33.38z" class="a5-cls-3"/><path d="M41.33 116.43c.16-2.35-.37-23.88-2-38.47C36 47.66 30.69 35.4 29.08 35.4s-4 23.5-5.69 40.82c-1.5 15-5.44 37-5.44 38.84S41 122 41.33 116.43z" class="a5-cls-22"/><path d="M24.26 112.15s.86-4.26 1.81-14.36c1.13-12 2.39-43 2.27-47.71s-.73-10.7 0-10.82 1.81 13.37 2.06 24.44 0 25.55-.26 33-.9 15.94-.9 15.94zM37.73 80.42c-.4-6.68-1.45-18.86-2.19-27.06 1.35 6.32 2.69 14.44 3.81 24.64 1.61 14.6 2.14 36.12 2 38.47-.06 1-.8 1.59-2 2l-1-3.15s.19-21.15-.62-34.9zM17.95 115.07c0-1.86 3.94-23.82 5.44-38.84 1-10.34 2.29-22.89 3.47-31.32-.44 9.23-1.34 27.61-2.08 38.57-1 15.08-2.85 30.06-2.85 30.06l-.5 3.28c-2.09-.65-3.48-1.3-3.48-1.75z" class="a5-cls-22"/><path d="M41.45 114.08c3.86 4 4.45 22.39 4.58 28.08s-15.1 12-19.79 11.75c-4.21-.25-10.3-6.66-12.49-8.54-4.21-3.59-1-30.18 3.71-33.4s18.54-3.58 23.99 2.11z" class="a5-cls-7"/><path d="M43.28 144.44c-.1-6.21-.59-26.26-3.76-30.67a10 10 0 0 0-2.92-2.66 12.69 12.69 0 0 1 4.85 3c3.86 4 4.45 22.39 4.58 28.08 0 1.78-1.43 3.63-3.6 5.31a6.15 6.15 0 0 0 .85-3.06zM17.45 112a12.42 12.42 0 0 1 4-1.59 7.29 7.29 0 0 0-1.65 1.09c-3.86 3.5-6.5 32.5-3.04 36.5l.59.7c-1.52-1.35-2.82-2.6-3.6-3.28-4.21-3.63-1-30.23 3.7-33.42z" class="a5-cls-8"/><path d="M22.36 134.41c.41-11.31 1.22-17.73 2.34-22.11a15.65 15.65 0 0 1 .86-2.55 30.88 30.88 0 0 1 3.58-.05 9.62 9.62 0 0 0-.67 1.89c-.82 3.87-1.53 11.31-1.32 21.91.15 7.94.84 16.6 1.07 20.26a9.23 9.23 0 0 1-2 .16 9.26 9.26 0 0 1-4-1.52c-.07-4.4-.08-11.84.14-17.99z" class="a5-cls-9"/><g class="a5-cls-15"><path d="M41.45 114.08c3.86 4 4.45 22.39 4.58 28.08s-15.1 12-19.79 11.75c-4.21-.25-10.3-6.66-12.49-8.54-4.21-3.59-1-30.18 3.71-33.4s18.54-3.58 23.99 2.11z" class="a5-cls-18" data-color-action="fill" style="fill:inherit"/><path d="M2 127.33h55V135H2z" class="a5-cls-18" data-color-action="fill" style="fill:inherit"/></g></g><g id="a55_implant_mini" data-name="implant mini"><path d="M2.39 22.04h55v137.17h-55z" class="a5-cls-22"/><path d="M29.72 83.07h-.44l-1 8.49v40.84h2.44V91.56l-1-8.49z" class="a5-cls-18" data-color-action="fill" style="fill:inherit"/><path d="M29.42 83.07h-.07l-.4 8.49v40.84h.37V91.56l.1-8.49z" class="a5-cls-24"/><path d="M28.28 131.77h2.44v.63h-2.44z" class="a5-cls-27" data-color-action="fill" style="fill:inherit"/><g class="a5-cls-28"><path d="M28.28 131.77l2.44-1v.63l-2.44 1v-.63zM28.28 130.32l2.44-1v.63l-2.44 1v-.63zM28.28 128.88l2.44-1v.63l-2.44 1v-.63zM28.28 127.43l2.44-1v.63l-2.44 1v-.63zM28.28 125.98l2.44-1v.64l-2.44 1v-.64zM28.28 124.54l2.44-1v.63l-2.44 1v-.63zM28.28 123.09l2.44-1v.64l-2.44 1v-.64zM28.28 121.65l2.44-1v.63l-2.44 1v-.63zM28.28 120.2l2.44-1v.63l-2.44 1.01v-.64zM28.28 118.76l2.44-1v.63l-2.44 1v-.63zM28.28 117.31l2.44-1v.63l-2.44 1v-.63zM28.28 115.87l2.44-1v.63l-2.44 1v-.63zM28.28 114.42l2.44-1v.63l-2.44 1v-.63zM28.28 112.98l2.44-1v.63l-2.44 1v-.63zM28.28 111.53l2.44-1v.63l-2.44 1v-.63zM28.28 110.08l2.44-1v.64l-2.44 1v-.64zM28.28 108.64l2.44-1v.63l-2.44 1v-.63zM28.28 107.19l2.44-1v.64l-2.44 1v-.64zM28.28 105.75l2.44-1v.63l-2.44 1v-.63zM28.28 104.3l2.44-1v.64l-2.44 1v-.64zM28.28 102.86l2.44-1v.63l-2.44 1v-.63zM28.28 101.41l2.44-1v.63l-2.44 1.01v-.64zM28.28 99.97l2.44-1v.63l-2.44 1v-.63zM28.28 98.52l2.44-1v.63l-2.44 1v-.63zM28.28 97.08l2.44-1v.63l-2.44 1v-.63zM28.28 95.63l2.44-1v.63l-2.44 1v-.63zM28.28 94.19l2.44-1v.63l-2.44 1v-.63zM28.28 92.74l2.44-1v.63l-2.44 1v-.63zM28.28 91.56l.03-.28 2.27-.93.07.61-2.37.97v-.37zM28.49 89.76l1.93-.79.07.61-2.08.85.08-.67zM28.67 88.24l1.58-.65.08.61-1.74.71.08-.67zM28.85 86.72l1.24-.5.07.6-1.39.57.08-.67zM29.03 85.21l.9-.37.07.6-1.05.43.08-.66zM29.2 83.69l.57-.23.07.6-.71.29.07-.66z" class="a5-cls-27" data-color-action="fill" style="fill:inherit"/></g><circle cx="29.5" cy="136.27" r="2.24" class="a5-cls-18" data-color-action="fill" style="fill:inherit"/><path d="M27.67 132.06h3.67v3h-3.67z" class="a5-cls-18" data-color-action="fill" style="fill:inherit"/><path d="M28.49 132.06h.55v3h-.55z" class="a5-cls-24"/><path d="M28.7 137.63h-.21a2.32 2.32 0 0 1-.52-1.29 2.37 2.37 0 0 1 .52-1.3H29a2 2 0 0 0-.73 1.37 1.5 1.5 0 0 0 .43 1.22z" class="a5-cls-24"/><path d="M28.28 125.7h2.44v.63h-2.44z" class="a5-cls-27" data-color-action="fill" style="fill:inherit"/><path d="M32.11 132.08h-5.22l.87-5.71h3.48l.87 5.71z" class="a5-cls-18" data-color-action="fill" style="fill:inherit"/><path d="M28.85 132.08h-.79l.48-5.71h.53l-.22 5.71z" class="a5-cls-24"/></g><g id="a55_implant_cylinder" data-name="implant cylinder"><path d="M2 22h55v137.17H2z" class="a5-cls-22"/><path d="M26.17 86.01h6.67v49.33h-6.67zM24.5 135.35h10v3h-10z" class="a5-cls-18" data-color-action="fill" style="fill:inherit"/><path d="M28 86.01h1v49.33h-1zM26.75 135.35h1.5v3h-1.5z" class="a5-cls-24"/><path d="M24.5 82.99h10v3h-10z" class="a5-cls-18" data-color-action="fill" style="fill:inherit"/><path d="M26.75 82.99h1.5v3h-1.5z" class="a5-cls-24"/><path d="M26.17 134.71h6.67v.63h-6.67zM26.17 86.01h6.67v.63h-6.67z" class="a5-cls-27" data-color-action="fill" style="fill:inherit"/><g class="a5-cls-28"><path d="M32.83 87.65l-6.66-1.01v-.63l6.66 1v.64zM32.83 89.09l-6.66-1v-.63l6.66 1v.63zM32.83 90.54l-6.66-1v-.64l6.66 1.01v.63zM32.83 91.98l-6.66-1v-.63l6.66 1v.63zM32.83 93.43l-6.66-1v-.63l6.66 1v.63zM32.83 94.87l-6.66-1v-.63l6.66 1v.63zM32.83 96.32l-6.66-1v-.63l6.66 1v.63zM32.83 97.76l-6.66-1v-.63l6.66 1v.63zM32.83 99.21l-6.66-1v-.63l6.66 1v.63zM32.83 100.66l-6.66-1.01v-.63l6.66 1v.64zM32.83 102.1l-6.66-1v-.63l6.66 1v.63zM32.83 103.55l-6.66-1v-.64l6.66 1v.64zM32.83 104.99l-6.66-1v-.63l6.66 1v.63zM32.83 106.44l-6.66-1v-.64l6.66 1.01v.63zM32.83 107.88l-6.66-1v-.63l6.66 1v.63zM32.83 109.33l-6.66-1v-.64l6.66 1v.64zM32.83 110.77l-6.66-1v-.63l6.66 1v.63zM32.83 112.22l-6.66-1v-.63l6.66 1v.63zM32.83 113.66l-6.66-1v-.63l6.66 1v.63zM32.83 115.11l-6.66-1v-.63l6.66 1v.63zM32.83 116.56l-6.66-1.01v-.63l6.66 1v.64zM32.83 118l-6.66-1v-.63l6.66 1v.63zM32.83 119.45l-6.66-1.01v-.63l6.66 1v.64zM32.83 120.89l-6.66-1v-.63l6.66 1v.63zM32.83 122.34l-6.66-1v-.64l6.66 1v.64zM32.83 123.78l-6.66-1v-.63l6.66 1v.63zM32.83 125.23l-6.66-1v-.64l6.66 1v.64zM32.83 126.67l-6.66-1v-.63l6.66 1v.63zM32.83 128.12l-6.66-1v-.63l6.66 1v.63zM32.83 129.56l-6.66-1v-.63l6.66 1v.63zM32.83 131.01l-6.66-1v-.63l6.66 1v.63zM32.83 132.46l-6.66-1.01v-.63l6.66 1v.64zM32.83 133.9l-6.66-1v-.63l6.66 1v.63zM32.83 135.35l-6.66-1.01v-.63l6.66 1v.64z" class="a5-cls-27" data-color-action="fill" style="fill:inherit"/></g></g><g id="a55_implant_blade" data-name="implant blade"><path d="M2 22h55v137.17H2z" class="a5-cls-22"/><path d="M26.17 86.01h6.67v49.33h-6.67zM24.5 135.35h10v3h-10z" class="a5-cls-18" data-color-action="fill" style="fill:inherit"/><path d="M28 86.01h1v49.33h-1zM26.75 135.35h1.5v3h-1.5z" class="a5-cls-24"/><path d="M26.17 134.71h6.67v.63h-6.67z" class="a5-cls-27" data-color-action="fill" style="fill:inherit"/></g><path id="a55_watch_tooth" d="M8.27 27.73a3.26 3.26 0 0 1 3.22-3.26 3.24 3.24 0 1 1 0 6.47 3.25 3.25 0 0 1-3.22-3.21zm1-5.91L8.39 3.73h6.15l-.8 18.09z" class="a5-cls-11" data-color-action="fill" style="fill:inherit" data-name="watch tooth"/><path id="a55_border" d="M0 0h59v161H0z" class="a5-cls-14" transform="rotate(-180 29.5 80.5)"/></defs></g><g class="b5-cls-1" transform="translate(0 161)"><g id="_5B" data-name="#5B"><path d="M45.75 22.76c.65 1.55.45 13.37-.42 15.23-1.46 3.13-4.89 4.71-8.77 5.63-4.38 1-12.52 1.25-15.23.21-3.21-1.24-6.89-5.43-7.51-7.51S11.94 24 14 20.88c1.57-2.36 13.57-9.81 17.11-9.39s12.97 7.3 14.64 11.27z" class="b5-cls-2"/><path d="M45.75 22.76c.65 1.55.45 13.37-.42 15.23-1.46 3.13-4.89 4.71-8.77 5.63-4.38 1-12.52 1.25-15.23.21-3.21-1.24-6.89-5.43-7.51-7.51S11.94 24 14 20.88c1.57-2.36 13.57-9.81 17.11-9.39s12.97 7.3 14.64 11.27z" class="b5-cls-3"/><path d="M41.57 26.72c.68 1-2.09 1.25-2.09 2.3s3.13 3.13 2.09 3.34-3.13-1.88-3.55-1 .42 3.55-.63 3.76-1.25-5.22-2.71-5.43-7.3-.83-8.14.21-2.71 5-3.76 4 1.67-4 .42-4.38-5.43-4.17-4.38-4.38 5.43 3.13 6.05 3.13 0-4.38.83-4.38.63 3.34 3.55 3.76 5.43.83 6.26.42 1.88-4.17 2.3-3.55-.63 3.13 0 3.76 3.35-2.18 3.76-1.56z" class="b5-cls-4"/><path d="M12.94 25.2c.52-1.54 1.34-3.2 2.54-3.9C18 19.83 27 14.62 30.51 15s12.32 5.43 14 7.51a12.25 12.25 0 0 1 1.58 2.93 10.67 10.67 0 0 0-.33-2.73c-1.67-4-11.06-10.85-14.61-11.26S15.6 18.51 14 20.88a9.59 9.59 0 0 0-1.06 4.32z" class="b5-cls-5"/><path d="M15.32 38.93a16 16 0 0 0 6 4.91c2.71 1 10.86.84 15.24-.21 3.87-.93 7.3-2.51 8.76-5.64a5.18 5.18 0 0 0 .31-1.26c-1.46 1.47-3.36 3.24-4.27 3.56C37.82 41.54 32 42 27.8 41.76a55.45 55.45 0 0 1-12.48-2.83z" class="b5-cls-4"/></g><defs><g id="b55_splinted_crowns" data-name="splinted crowns"><path d="M28 1.25h3v3h-3z" class="b5-cls-7"/><path d="M28 1.25h3v3h-3z" class="b5-cls-7"/><path d="M28 1.25h3v3h-3z" class="b5-cls-7"/></g><path id="b55_line_angle_4" d="M35.81 43.79l.75-.16c3.88-.92 7.3-2.5 8.77-5.63a4.31 4.31 0 0 0 .26-.92l-16.25-5.4z" class="b5-cls-6" data-color-action="fill" style="fill:inherit" data-name="line angle 4"/><path id="b55_cusp_2" d="M22.63 44.18a43.08 43.08 0 0 0 13.18-.39l-6.48-12.12z" class="b5-cls-6" data-color-action="fill" style="fill:inherit" data-name="cusp 2"/><path id="b55_line_angle_3" d="M13.71 35.9c0 .16.07.31.11.42.63 2.09 4.3 6.28 7.51 7.51a7.51 7.51 0 0 0 1.3.34l6.7-12.51z" class="b5-cls-6" data-color-action="fill" style="fill:inherit" data-name="line angle 3"/><path id="b55_mesial" d="M45.75 22.76A10.54 10.54 0 0 0 43 28.83c-.13 2.27 1.14 4.83 2.75 7.13.49-3.96.52-11.96 0-13.2z" class="b5-cls-6" data-color-action="fill" style="fill:inherit"/><path id="b55_mesial_pit" d="M45.75 22.76a6.27 6.27 0 0 0-.42-.81l-15.5 4.72-.5 5 16.25 5.4c.06-.31.11-.7.16-1.11-1.61-2.3-2.88-4.86-2.75-7.13a10.54 10.54 0 0 1 2.76-6.07z" class="b5-cls-6" data-color-action="fill" style="fill:inherit" data-name="mesial pit"/><path id="b55_distal_pit" d="M13.81 21.28a6.13 6.13 0 0 0-.38 1 8.72 8.72 0 0 1 2.74 6 10 10 0 0 1-2.61 6.84c.05.27.1.52.15.73l15.63-4.24.5-5z" class="b5-cls-6" data-color-action="fill" style="fill:inherit" data-name="distal pit"/><path id="b55_distal" d="M13.43 22.31c-1 3.48-.41 9.94.13 12.87a10 10 0 0 0 2.61-6.84 8.72 8.72 0 0 0-2.74-6.03z" class="b5-cls-6" data-color-action="fill" style="fill:inherit"/><path id="b55_line_angle_2" d="M45.32 21.95c-1.56-2.57-5.55-5.95-9.1-8.17l-6.39 12.89z" class="b5-cls-6" data-color-action="fill" style="fill:inherit" data-name="line angle 2"/><path id="b55_cusp_1" d="M36.22 13.78a14.87 14.87 0 0 0-5.08-2.29c-1.61-.19-5 1.24-8.29 3.09l7 12.09z" class="b5-cls-6" data-color-action="fill" style="fill:inherit" data-name="cusp 1"/><path id="b55_line_angle_1" d="M22.84 14.58c-4 2.21-8 5-8.82 6.3a4 4 0 0 0-.21.4l16 5.39z" class="b5-cls-6" data-color-action="fill" style="fill:inherit" data-name="line angle 1"/><g id="b55_veneer"><path d="M28 1.25h3v3h-3z" class="b5-cls-7"/><path d="M28 1.25h3v3h-3z" class="b5-cls-7"/><path d="M28 1.25h3v3h-3z" class="b5-cls-7"/></g><g id="b55_tissue_graft" data-name="tissue graft"><path d="M28 1.25h3v3h-3z" class="b5-cls-7"/><path d="M28 1.25h3v3h-3z" class="b5-cls-7"/><path d="M28 1.25h3v3h-3z" class="b5-cls-7"/></g><path id="b55_surface_restoration_lingual" d="M35.64 39.74a39.47 39.47 0 0 1-8.18.79 17.37 17.37 0 0 1-4.69-.42 8.8 8.8 0 0 1-2.52-1.74l-3.6 2.08a14.2 14.2 0 0 0 4.69 3.4c2.71 1 10.85.83 15.23-.21a15.26 15.26 0 0 0 7.14-3.4l-3.94-2a15.24 15.24 0 0 1-4.13 1.5z" class="b5-cls-8" data-color-action="fill" style="fill:inherit" data-name="surface restoration lingual"/><path id="b55_surface_restoration_mesial" d="M45.33 38c.87-1.86 1.07-13.68.42-15.23S43.24 19.19 41 17.3l-3.26 2.47A17.94 17.94 0 0 1 42 24.11a61.19 61.19 0 0 1-.33 12.33 4.71 4.71 0 0 1-1.87 1.78l3.94 2A7.55 7.55 0 0 0 45.33 38z" class="b5-cls-8" data-color-action="fill" style="fill:inherit" data-name="surface restoration mesial"/><path id="b55_surface_restoration_occlusal" d="M30.77 15.48c-2.19.26-11.35 5.27-13.42 7.64-.57 1.28-.76 8.51.29 12a12.83 12.83 0 0 0 5.13 5 17.37 17.37 0 0 0 4.69.42 39.47 39.47 0 0 0 8.18-.79c3.28-.78 5.24-1.86 6-3.3A61.19 61.19 0 0 0 42 24.11c-1.4-2.63-8.81-8.11-11.23-8.63z" class="b5-cls-8" data-color-action="fill" style="fill:inherit" data-name="surface restoration occlusal"/><path id="b55_surface_restoration_distal" d="M17.64 35.15c-1.05-3.52-.86-10.75-.29-12a16.33 16.33 0 0 1 2.9-2.31l-3.42-2.42A13.27 13.27 0 0 0 14 20.88c-2.09 3.13-.83 13.36-.21 15.44a12.28 12.28 0 0 0 2.83 4.11l3.6-2.08a11.71 11.71 0 0 1-2.58-3.2z" class="b5-cls-8" data-color-action="fill" style="fill:inherit" data-name="surface restoration distal"/><path id="b55_surface_restoration_buccal" d="M30.77 15.48c1.39.29 4.4 2.21 7 4.3L41 17.3c-3.43-2.92-7.73-5.56-9.88-5.81-2.67-.31-10.12 3.82-14.31 6.9l3.42 2.42c3.57-2.39 8.93-5.14 10.54-5.33z" class="b5-cls-8" data-color-action="fill" style="fill:inherit" data-name="surface restoration buccal"/><g id="b55_supra-erupted"><path d="M28 1.25h3v3h-3z" class="b5-cls-7"/><path d="M28 1.25h3v3h-3z" class="b5-cls-7"/><path d="M28 1.25h3v3h-3z" class="b5-cls-7"/></g><g id="b55_sub-erupted"><path d="M28 1.25h3v3h-3z" class="b5-cls-7"/><path d="M28 1.25h3v3h-3z" class="b5-cls-7"/><path d="M28 1.25h3v3h-3z" class="b5-cls-7"/></g><text id="b55_sealant" class="b5-cls-9" transform="translate(19.7 39.47)" data-color-action="fill" style="fill:inherit">S</text><g id="b55_root_decay" data-name="root decay"><path d="M28 1.25h3v3h-3z" class="b5-cls-7"/><path d="M28 1.25h3v3h-3z" class="b5-cls-7"/><path d="M28 1.25h3v3h-3z" class="b5-cls-7"/></g><g id="b55_root_canal" data-name="root canal"><path d="M28 1.25h3v3h-3z" class="b5-cls-7"/><path d="M28 1.25h3v3h-3z" class="b5-cls-7"/><path d="M28 1.25h3v3h-3z" class="b5-cls-7"/></g><g id="b55_root_abrasion" data-name="root abrasion"><path d="M28 1.25h3v3h-3z" class="b5-cls-7"/><path d="M28 1.25h3v3h-3z" class="b5-cls-7"/><path d="M28 1.25h3v3h-3z" class="b5-cls-7"/></g><g id="b55_post"><path d="M28 1.25h3v3h-3z" class="b5-cls-7"/><path d="M28 1.25h3v3h-3z" class="b5-cls-7"/><path d="M28 1.25h3v3h-3z" class="b5-cls-7"/></g><g id="b55_pins"><path d="M28 1.25h3v3h-3z" class="b5-cls-7"/><path d="M28 1.25h3v3h-3z" class="b5-cls-7"/><path d="M28 1.25h3v3h-3z" class="b5-cls-7"/></g><g id="b55_open_contact_mesial" data-name="open contact mesial"><path d="M28 1.25h3v3h-3z" class="b5-cls-7"/><path d="M28 1.25h3v3h-3z" class="b5-cls-7"/><path d="M28 1.25h3v3h-3z" class="b5-cls-7"/></g><g id="b55_open_contact_distal" data-name="open contact distal"><path d="M28 1.25h3v3h-3z" class="b5-cls-7"/><path d="M28 1.25h3v3h-3z" class="b5-cls-7"/><path d="M28 1.25h3v3h-3z" class="b5-cls-7"/></g><g id="b55_lingual_abfraction" data-name="lingual abfraction"><path d="M28 1.25h3v3h-3z" class="b5-cls-7"/><path d="M28 1.25h3v3h-3z" class="b5-cls-7"/><path d="M28 1.25h3v3h-3z" class="b5-cls-7"/></g><g id="b55_internal_root_resorption" data-name="internal root resorption"><path d="M28 1.25h3v3h-3z" class="b5-cls-7"/><path d="M28 1.25h3v3h-3z" class="b5-cls-7"/><path d="M28 1.25h3v3h-3z" class="b5-cls-7"/></g><g id="b55_gortex_membranes" data-name="gortex membranes"><path d="M28 1.25h3v3h-3z" class="b5-cls-7"/><path d="M28 1.25h3v3h-3z" class="b5-cls-7"/><path d="M28 1.25h3v3h-3z" class="b5-cls-7"/></g><g id="b55_frenum_pull" data-name="frenum pull"><path d="M28 1.25h3v3h-3z" class="b5-cls-7"/><path d="M28 1.25h3v3h-3z" class="b5-cls-7"/><path d="M28 1.25h3v3h-3z" class="b5-cls-7"/></g><g id="b55_external_root_resorption" data-name="external root resorption"><path d="M28 1.25h3v3h-3z" class="b5-cls-7"/><path d="M28 1.25h3v3h-3z" class="b5-cls-7"/><path d="M28 1.25h3v3h-3z" class="b5-cls-7"/></g><path id="b55_three_quarter_crown" d="M45.75 22.76c.65 1.55.45 13.37-.42 15.23-1.46 3.13-4.89 4.71-8.77 5.63-4.38 1-12.52 1.25-15.23.21-3.21-1.24-6.89-5.43-7.51-7.51S11.94 24 14 20.88c1.57-2.36 13.57-9.81 17.11-9.39s12.97 7.3 14.64 11.27z" class="b5-cls-11 b5-cls-15" data-color-action="fill" style="fill:inherit" data-name="three quarter crown"/><path id="b55_crown" d="M45.75 22.76c.65 1.55.45 13.37-.42 15.23-1.46 3.13-4.89 4.71-8.77 5.63-4.38 1-12.52 1.25-15.23.21-3.21-1.24-6.89-5.43-7.51-7.51S11.94 24 14 20.88c1.57-2.36 13.57-9.81 17.11-9.39s12.97 7.3 14.64 11.27z" class="b5-cls-11 b5-cls-15" data-color-action="fill" style="fill:inherit"/><path id="b55_cracked_surface_occlusal" d="M28.17 22.74l3.84 3.83H27l5 4.75h-5l3.83 3.83" class="b5-cls-16" data-color-action="stroke" style="stroke:inherit" data-name="cracked surface occlusal"/><g id="b55_chipped_surface_occlusal" class="b5-cls-11" data-name="chipped surface occlusal"><path d="M25.67 24.41L34 32.75M34 24.41l-8.33 8.34" class="b5-cls-17" data-color-action="stroke" style="stroke:inherit"/></g><g id="b55_buccal_abfraction" data-name="buccal abfraction"><path d="M28 1.25h3v3h-3z" class="b5-cls-7"/><path d="M28 1.25h3v3h-3z" class="b5-cls-7"/><path d="M28 1.25h3v3h-3z" class="b5-cls-7"/></g><g id="b55_braces"><path d="M28 1.25h3v3h-3z" class="b5-cls-7"/><path d="M28 1.25h3v3h-3z" class="b5-cls-7"/><path d="M28 1.25h3v3h-3z" class="b5-cls-7"/></g><g id="b55_apicoectomy"><path d="M28 1.25h3v3h-3z" class="b5-cls-7"/><path d="M28 1.25h3v3h-3z" class="b5-cls-7"/><path d="M28 1.25h3v3h-3z" class="b5-cls-7"/></g><g id="b55_abscess"><path d="M28 1.25h3v3h-3z" class="b5-cls-7"/><path d="M28 1.25h3v3h-3z" class="b5-cls-7"/><path d="M28 1.25h3v3h-3z" class="b5-cls-7"/></g><g id="b55_blunted_roots" data-name="blunted roots"><path d="M28 1.25h3v3h-3z" class="b5-cls-7"/><path d="M28 1.25h3v3h-3z" class="b5-cls-7"/><path d="M28 1.25h3v3h-3z" class="b5-cls-7"/></g><g id="b55_root_amputation" data-name="root amputation"><path d="M28 1.25h3v3h-3z" class="b5-cls-7"/><path d="M28 1.25h3v3h-3z" class="b5-cls-7"/><path d="M28 1.25h3v3h-3z" class="b5-cls-7"/></g><path id="b55_missing_crown" d="M2 2.02h55v51.77H2z" class="b5-cls-10" data-name="missing crown"/><g id="b55_missing_tooth" data-name="missing tooth"><path d="M45.75 22.76c.65 1.55.45 13.37-.42 15.23-1.46 3.13-4.89 4.71-8.77 5.63-4.38 1-12.52 1.25-15.23.21-3.21-1.24-6.89-5.43-7.51-7.51S11.94 24 14 20.88c1.57-2.36 13.57-9.81 17.11-9.39s12.97 7.3 14.64 11.27z" class="b5-cls-2"/><path d="M45.75 22.76c.65 1.55.45 13.37-.42 15.23-1.46 3.13-4.89 4.71-8.77 5.63-4.38 1-12.52 1.25-15.23.21-3.21-1.24-6.89-5.43-7.51-7.51S11.94 24 14 20.88c1.57-2.36 13.57-9.81 17.11-9.39s12.97 7.3 14.64 11.27z" class="b5-cls-10"/><path d="M41.57 26.72c.68 1-2.09 1.25-2.09 2.3s3.13 3.13 2.09 3.34-3.13-1.88-3.55-1 .42 3.55-.63 3.76-1.25-5.22-2.71-5.43-7.3-.83-8.14.21-2.71 5-3.76 4 1.67-4 .42-4.38-5.43-4.17-4.38-4.38 5.43 3.13 6.05 3.13 0-4.38.83-4.38.63 3.34 3.55 3.76 5.43.83 6.26.42 1.88-4.17 2.3-3.55-.63 3.13 0 3.76 3.35-2.18 3.76-1.56z" class="b5-cls-10"/><path d="M12.94 25.2c.52-1.54 1.34-3.2 2.54-3.9C18 19.83 27 14.62 30.51 15s12.32 5.43 14 7.51a12.25 12.25 0 0 1 1.58 2.93 10.67 10.67 0 0 0-.33-2.73c-1.67-4-11.06-10.85-14.61-11.26S15.6 18.51 14 20.88a9.59 9.59 0 0 0-1.06 4.32zM15.32 38.93a16 16 0 0 0 6 4.91c2.71 1 10.86.84 15.24-.21 3.87-.93 7.3-2.51 8.76-5.64a5.18 5.18 0 0 0 .31-1.26c-1.46 1.47-3.36 3.24-4.27 3.56C37.82 41.54 32 42 27.8 41.76a55.45 55.45 0 0 1-12.48-2.83z" class="b5-cls-10"/></g><g id="b55_maryland_bridge_pontic" class="b5-cls-11" data-name="maryland bridge pontic"><path d="M36.58 24.17H57v7.67H36.58zM2 24.17h20.42v7.67H2z" class="b5-cls-12" data-color-action="fill" style="fill:inherit"/><path d="M45.75 22.76c.65 1.55.45 13.37-.42 15.23-1.46 3.13-4.89 4.71-8.77 5.63-4.38 1-12.52 1.25-15.23.21-3.21-1.24-6.89-5.43-7.51-7.51S11.94 24 14 20.88c1.57-2.36 13.57-9.81 17.11-9.39s12.97 7.3 14.64 11.27z" class="b5-cls-12" data-color-action="fill" style="fill:inherit"/></g><g id="b55_maryland_bridge_abutment_mesial" data-name="maryland bridge abutment mesial"><g class="b5-cls-11"><path d="M36.58 24.17H57v7.67H36.58z" class="b5-cls-12" data-color-action="fill" style="fill:inherit"/><ellipse cx="37.81" cy="28" class="b5-cls-12" rx="5.61" ry="12.9" data-color-action="fill" style="fill:inherit"/></g><path d="M45.75 22.76c.65 1.55.45 13.37-.42 15.23-1.46 3.13-4.89 4.71-8.77 5.63-4.38 1-12.52 1.25-15.23.21-3.21-1.24-6.89-5.43-7.51-7.51S11.94 24 14 20.88c1.57-2.36 13.57-9.81 17.11-9.39s12.97 7.3 14.64 11.27z" class="b5-cls-2"/><path d="M45.75 22.76c.65 1.55.45 13.37-.42 15.23-1.46 3.13-4.89 4.71-8.77 5.63-4.38 1-12.52 1.25-15.23.21-3.21-1.24-6.89-5.43-7.51-7.51S11.94 24 14 20.88c1.57-2.36 13.57-9.81 17.11-9.39s12.97 7.3 14.64 11.27z" class="b5-cls-3"/><path d="M41.57 26.72c.68 1-2.09 1.25-2.09 2.3s3.13 3.13 2.09 3.34-3.13-1.88-3.55-1 .42 3.55-.63 3.76-1.25-5.22-2.71-5.43-7.3-.83-8.14.21-2.71 5-3.76 4 1.67-4 .42-4.38-5.43-4.17-4.38-4.38 5.43 3.13 6.05 3.13 0-4.38.83-4.38.63 3.34 3.55 3.76 5.43.83 6.26.42 1.88-4.17 2.3-3.55-.63 3.13 0 3.76 3.35-2.18 3.76-1.56z" class="b5-cls-4"/><path d="M12.94 25.2c.52-1.54 1.34-3.2 2.54-3.9C18 19.83 27 14.62 30.51 15s12.32 5.43 14 7.51a12.25 12.25 0 0 1 1.58 2.93 10.67 10.67 0 0 0-.33-2.73c-1.67-4-11.06-10.85-14.61-11.26S15.6 18.51 14 20.88a9.59 9.59 0 0 0-1.06 4.32z" class="b5-cls-5"/><path d="M15.32 38.93a16 16 0 0 0 6 4.91c2.71 1 10.86.84 15.24-.21 3.87-.93 7.3-2.51 8.76-5.64a5.18 5.18 0 0 0 .31-1.26c-1.46 1.47-3.36 3.24-4.27 3.56C37.82 41.54 32 42 27.8 41.76a55.45 55.45 0 0 1-12.48-2.83z" class="b5-cls-4"/></g><g id="b55_maryland_bridge_abutment_distal" data-name="maryland bridge abutment distal"><g class="b5-cls-11"><path d="M2 24.17h20.42v7.67H2z" class="b5-cls-12" data-color-action="fill" style="fill:inherit"/><ellipse cx="21.19" cy="28" class="b5-cls-12" rx="5.61" ry="12.9" data-color-action="fill" style="fill:inherit"/></g><path d="M45.75 22.76c.65 1.55.45 13.37-.42 15.23-1.46 3.13-4.89 4.71-8.77 5.63-4.38 1-12.52 1.25-15.23.21-3.21-1.24-6.89-5.43-7.51-7.51S11.94 24 14 20.88c1.57-2.36 13.57-9.81 17.11-9.39s12.97 7.3 14.64 11.27z" class="b5-cls-2"/><path d="M45.75 22.76c.65 1.55.45 13.37-.42 15.23-1.46 3.13-4.89 4.71-8.77 5.63-4.38 1-12.52 1.25-15.23.21-3.21-1.24-6.89-5.43-7.51-7.51S11.94 24 14 20.88c1.57-2.36 13.57-9.81 17.11-9.39s12.97 7.3 14.64 11.27z" class="b5-cls-3"/><path d="M41.57 26.72c.68 1-2.09 1.25-2.09 2.3s3.13 3.13 2.09 3.34-3.13-1.88-3.55-1 .42 3.55-.63 3.76-1.25-5.22-2.71-5.43-7.3-.83-8.14.21-2.71 5-3.76 4 1.67-4 .42-4.38-5.43-4.17-4.38-4.38 5.43 3.13 6.05 3.13 0-4.38.83-4.38.63 3.34 3.55 3.76 5.43.83 6.26.42 1.88-4.17 2.3-3.55-.63 3.13 0 3.76 3.35-2.18 3.76-1.56z" class="b5-cls-4"/><path d="M12.94 25.2c.52-1.54 1.34-3.2 2.54-3.9C18 19.83 27 14.62 30.51 15s12.32 5.43 14 7.51a12.25 12.25 0 0 1 1.58 2.93 10.67 10.67 0 0 0-.33-2.73c-1.67-4-11.06-10.85-14.61-11.26S15.6 18.51 14 20.88a9.59 9.59 0 0 0-1.06 4.32z" class="b5-cls-5"/><path d="M15.32 38.93a16 16 0 0 0 6 4.91c2.71 1 10.86.84 15.24-.21 3.87-.93 7.3-2.51 8.76-5.64a5.18 5.18 0 0 0 .31-1.26c-1.46 1.47-3.36 3.24-4.27 3.56C37.82 41.54 32 42 27.8 41.76a55.45 55.45 0 0 1-12.48-2.83z" class="b5-cls-4"/></g><g id="b55_maryland_bridge_abutment" data-name="maryland bridge abutment"><g class="b5-cls-11"><path d="M36.58 24.17H57v7.67H36.58zM2 24.17h20.42v7.67H2z" class="b5-cls-12" data-color-action="fill" style="fill:inherit"/><ellipse cx="21.19" cy="28" class="b5-cls-12" rx="5.61" ry="12.9" data-color-action="fill" style="fill:inherit"/><ellipse cx="37.81" cy="28" class="b5-cls-12" rx="5.61" ry="12.9" data-color-action="fill" style="fill:inherit"/></g><path d="M45.75 22.76c.65 1.55.45 13.37-.42 15.23-1.46 3.13-4.89 4.71-8.77 5.63-4.38 1-12.52 1.25-15.23.21-3.21-1.24-6.89-5.43-7.51-7.51S11.94 24 14 20.88c1.57-2.36 13.57-9.81 17.11-9.39s12.97 7.3 14.64 11.27z" class="b5-cls-2"/><path d="M45.75 22.76c.65 1.55.45 13.37-.42 15.23-1.46 3.13-4.89 4.71-8.77 5.63-4.38 1-12.52 1.25-15.23.21-3.21-1.24-6.89-5.43-7.51-7.51S11.94 24 14 20.88c1.57-2.36 13.57-9.81 17.11-9.39s12.97 7.3 14.64 11.27z" class="b5-cls-3"/><path d="M41.57 26.72c.68 1-2.09 1.25-2.09 2.3s3.13 3.13 2.09 3.34-3.13-1.88-3.55-1 .42 3.55-.63 3.76-1.25-5.22-2.71-5.43-7.3-.83-8.14.21-2.71 5-3.76 4 1.67-4 .42-4.38-5.43-4.17-4.38-4.38 5.43 3.13 6.05 3.13 0-4.38.83-4.38.63 3.34 3.55 3.76 5.43.83 6.26.42 1.88-4.17 2.3-3.55-.63 3.13 0 3.76 3.35-2.18 3.76-1.56z" class="b5-cls-4"/><path d="M12.94 25.2c.52-1.54 1.34-3.2 2.54-3.9C18 19.83 27 14.62 30.51 15s12.32 5.43 14 7.51a12.25 12.25 0 0 1 1.58 2.93 10.67 10.67 0 0 0-.33-2.73c-1.67-4-11.06-10.85-14.61-11.26S15.6 18.51 14 20.88a9.59 9.59 0 0 0-1.06 4.32z" class="b5-cls-5"/><path d="M15.32 38.93a16 16 0 0 0 6 4.91c2.71 1 10.86.84 15.24-.21 3.87-.93 7.3-2.51 8.76-5.64a5.18 5.18 0 0 0 .31-1.26c-1.46 1.47-3.36 3.24-4.27 3.56C37.82 41.54 32 42 27.8 41.76a55.45 55.45 0 0 1-12.48-2.83z" class="b5-cls-4"/></g><path id="b55_bridge_abutment" d="M45.75 22.76c.65 1.55.45 13.37-.42 15.23-1.46 3.13-4.89 4.71-8.77 5.63-4.38 1-12.52 1.25-15.23.21-3.21-1.24-6.89-5.43-7.51-7.51S11.94 24 14 20.88c1.57-2.36 13.57-9.81 17.11-9.39s12.97 7.3 14.64 11.27z" class="b5-cls-11 b5-cls-13" data-color-action="fill" style="fill:inherit" data-name="bridge abutment"/><path id="b55_bridge_pontic" d="M45.75 22.76c.65 1.55.45 13.37-.42 15.23-1.46 3.13-4.89 4.71-8.77 5.63-4.38 1-12.52 1.25-15.23.21-3.21-1.24-6.89-5.43-7.51-7.51S11.94 24 14 20.88c1.57-2.36 13.57-9.81 17.11-9.39s12.97 7.3 14.64 11.27z" class="b5-cls-11 b5-cls-13" data-color-action="fill" style="fill:inherit" data-name="bridge pontic"/><g id="b55_implant_mini" data-name="implant mini"><path d="M2 2.02h55v51.77H2z" class="b5-cls-10"/><circle cx="29.5" cy="28" r="2.61" class="b5-cls-13" data-color-action="fill" style="fill:inherit"/></g><g id="b55_implant_cylinder" data-name="implant cylinder"><path d="M2 2.02h55v51.77H2z" class="b5-cls-10"/><circle cx="29.5" cy="28" r="5" class="b5-cls-13" data-color-action="fill" style="fill:inherit"/><path d="M24.5 28a5 5 0 0 0 .09.89h9.82a4.46 4.46 0 0 0 0-1.78h-9.82a5 5 0 0 0-.09.89z" class="b5-cls-14" data-color-action="fill" style="fill:inherit"/></g><g id="b55_implant_blade" data-name="implant blade"><path d="M2 2.02h55v51.77H2z" class="b5-cls-10"/><circle cx="29.5" cy="28" r="5" class="b5-cls-13" data-color-action="fill" style="fill:inherit"/></g><g id="b55_border"><path d="M0 0h59v56H0z" class="b5-cls-7"/><path d="M0 0h59v56H0z" class="b5-cls-7" transform="rotate(-180 29.5 28)"/></g></defs></g><g class="c5-cls-1" transform="translate(0 217)"><g id="_5C" data-name="#5C"><path d="M42 49.66c3.86-4 4.45-22.39 4.58-28.08s-15.1-12-19.79-11.75c-4.21.25-10.3 6.66-12.49 8.54-4.21 3.59-1 30.18 3.71 33.4S36.6 55.35 42 49.66z" class="c5-cls-2"/><path d="M42 49.66c3.86-4 4.45-22.39 4.58-28.08s-15.1-12-19.79-11.75c-4.21.25-10.3 6.66-12.49 8.54-4.21 3.59-1 30.18 3.71 33.4S36.6 55.35 42 49.66z" class="c5-cls-3"/><path d="M12.5 24.35a14.62 14.62 0 0 1 2.75-4.42A101.41 101.41 0 0 1 24 13.12a6.72 6.72 0 0 1 6.54-.45c1.82.69 9.91 3.91 13.65 6.73a7.75 7.75 0 0 1 2.4 4.18v-2c.13-5.69-15.1-12-19.79-11.75-4.21.25-10.3 6.66-12.5 8.53-.99.86-1.57 3.08-1.8 5.99z" class="c5-cls-4"/><path d="M14.84 45.5c.9 3.09 2 5.43 3.21 6.25 4.62 3.17 18.55 3.59 24-2.1a10.39 10.39 0 0 0 2-4 9.69 9.69 0 0 1-4.4 2.66c-5 1.36-11.61 2-15.71 1.36-2.86-.47-6.94-2.79-9.1-4.17z" class="c5-cls-5"/></g><defs><g id="c55_splinted_crowns" data-name="splinted crowns"><path d="M2 51.09h55v7.67H2z" class="c5-cls-12" data-color-action="fill" style="fill:inherit"/><path d="M42 49.66c3.86-4 4.45-22.39 4.58-28.08s-15.1-12-19.79-11.75c-4.21.25-10.3 6.66-12.49 8.54-4.21 3.59-1 30.18 3.71 33.4S36.6 55.35 42 49.66z" class="c5-cls-2"/><path d="M42 49.66c3.86-4 4.45-22.39 4.58-28.08s-15.1-12-19.79-11.75c-4.21.25-10.3 6.66-12.49 8.54-4.21 3.59-1 30.18 3.71 33.4S36.6 55.35 42 49.66z" class="c5-cls-3"/><path d="M12.5 24.35a14.62 14.62 0 0 1 2.75-4.42A101.41 101.41 0 0 1 24 13.12a6.72 6.72 0 0 1 6.54-.45c1.82.69 9.91 3.91 13.65 6.73a7.75 7.75 0 0 1 2.4 4.18v-2c.13-5.69-15.1-12-19.79-11.75-4.21.25-10.3 6.66-12.5 8.53-.99.86-1.57 3.08-1.8 5.99z" class="c5-cls-4"/><path d="M14.84 45.5c.9 3.09 2 5.43 3.21 6.25 4.62 3.17 18.55 3.59 24-2.1a10.39 10.39 0 0 0 2-4 9.69 9.69 0 0 1-4.4 2.66c-5 1.36-11.61 2-15.71 1.36-2.86-.47-6.94-2.79-9.1-4.17z" class="c5-cls-5"/></g><path id="c55_lingual_V" d="M38.47 52.1c-5.21 2.41-12.74 2.41-17.49 1a13.33 13.33 0 0 1 17.49-1z" class="c5-cls-6" data-color-action="fill" style="fill:inherit" data-name="lingual V"/><ellipse id="c55_lingual" cx="29.51" cy="35.81" class="c5-cls-6" rx="4.61" ry="9.46" data-color-action="fill" style="fill:inherit"/><path id="c55_mesial" d="M40 31.24a19 19 0 0 0-.74-4.38l6.19-8.25a4.8 4.8 0 0 1 1.18 3c-.06 2.82-.24 8.77-.87 14.53-2.38-.34-5.53-1.4-5.76-4.9z" class="c5-cls-6" data-color-action="fill" style="fill:inherit"/><path id="c55_line_angle_4" d="M33 21.6l1.79-9.83C39 13.43 43.38 16 45.44 18.61l-6.19 8.25c-.93-2.94-2.78-4.64-6.25-5.26z" class="c5-cls-6" data-color-action="fill" style="fill:inherit" data-name="line angle 4"/><path id="c55_cusp_2" d="M28.53 21.34a14 14 0 0 0-4 .67l-3.28-9.59c1.93-1.4 3.92-2.5 5.61-2.6s4.76.67 8 1.95L33 21.6a21.35 21.35 0 0 0-4.47-.26z" class="c5-cls-6" data-color-action="fill" style="fill:inherit" data-name="cusp 2"/><path id="c55_line_angle_3" d="M19.54 27.7l-6-8.29a3.28 3.28 0 0 1 .76-1.05c1.31-1.12 4-3.86 6.88-5.94L24.49 22a7.32 7.32 0 0 0-4.95 5.7z" class="c5-cls-6" data-color-action="fill" style="fill:inherit" data-name="line angle 3"/><path id="c55_distal" d="M13.57 19.41l6 8.29a26.43 26.43 0 0 0-.61 5c-.18 3.63-3.84 4.19-5.86 4.22-1-7.01-1.04-14.45.47-17.51z" class="c5-cls-6" data-color-action="fill" style="fill:inherit"/><g id="c55_veneer"><path d="M28 1.25h3v3h-3z" class="c5-cls-7"/><path d="M28 1.25h3v3h-3z" class="c5-cls-7"/><path d="M28 1.25h3v3h-3z" class="c5-cls-7"/></g><g id="c55_tissue_graft" data-name="tissue graft"><path d="M28 1.25h3v3h-3z" class="c5-cls-7"/><path d="M28 1.25h3v3h-3z" class="c5-cls-7"/><path d="M28 1.25h3v3h-3z" class="c5-cls-7"/></g><g id="c55_tipped_lingual" class="c5-cls-8" data-name="tipped lingual"><path d="M30.35 5.93c-1.26-3.37-4.74-3.85-7.69 5.32-.5 1.56-4.42 1.76-3.84 0C20.84 5.15 24.14 1 27.89 2a4.86 4.86 0 0 1 3 3.38c-.2.15-.43.41-.54.55z" class="c5-cls-9" data-color-action="fill" style="fill:inherit"/><path d="M28.27 8.85H15.33l2.94 9.64 10-9.64z" class="c5-cls-9" data-color-action="fill" style="fill:inherit"/></g><g id="c55_tipped_facial" data-name="tipped facial"><path d="M28 1.25h3v3h-3z" class="c5-cls-7"/><path d="M28 1.25h3v3h-3z" class="c5-cls-7"/><path d="M28 1.25h3v3h-3z" class="c5-cls-7"/></g><path id="c55_surface_restoration_mesial" d="M46.66 21.58a153.7 153.7 0 0 1-1.35 18.19 11.71 11.71 0 0 0-7.19 5.94c.66-6 1.29-14.67 1.52-23.2l-.24-.22 5.09-4.78c1.36 1.33 2.2 2.72 2.17 4.07z" class="c5-cls-10" data-color-action="fill" style="fill:inherit" data-name="surface restoration mesial"/><path id="c55_surface_restoration_lingual" d="M22.57 51.6a13.81 13.81 0 0 0-1.88-5c-1.19-8.46-1.78-20.53-.94-23.66l.85-.78c1.27-1.17 5-4.67 6.81-5.33 2.88.25 10.16 3.51 12.23 5.68-.23 8.53-.86 17.21-1.52 23.2a14.15 14.15 0 0 0-1.63 5.78 14.31 14.31 0 0 0-13.92.12z" class="c5-cls-8 c5-cls-11" data-color-action="fill" style="fill:inherit" data-name="surface restoration lingual"/><path id="c55_surface_restoration_lingual_V" d="M36.48 52.87a28.68 28.68 0 0 1-13.71.63 14.78 14.78 0 0 0-.2-1.89 14.31 14.31 0 0 1 13.92-.12v.92c-.03.15-.01.3-.01.46z" class="c5-cls-8 c5-cls-11" data-color-action="fill" style="fill:inherit" data-name="surface restoration lingual V"/><path id="c55_surface_restoration_distal" d="M19.76 22.94c-.84 3.13-.25 15.2.94 23.66a11.55 11.55 0 0 0-6.82-5.19c-1.84-9-2.2-20.75.5-23l.71-.63 4.75 5.14z" class="c5-cls-10" data-color-action="fill" style="fill:inherit" data-name="surface restoration distal"/><path id="c55_surface_restoration_occlusal" d="M44.49 17.51l-5.09 4.78c-2.32-2.16-9.21-5.22-12-5.46-1.77.66-5.54 4.16-6.81 5.33l-.77.71-4.75-5.14c2.6-2.38 8-7.68 11.78-7.9 3.6-.21 13.29 3.42 17.64 7.68z" class="c5-cls-10" data-color-action="fill" style="fill:inherit" data-name="surface restoration occlusal"/><g id="c55_supra-erupted"><path d="M28 1.25h3v3h-3z" class="c5-cls-7"/><path d="M28 1.25h3v3h-3z" class="c5-cls-7"/><path d="M28 1.25h3v3h-3z" class="c5-cls-7"/></g><g id="c55_sub-erupted"><path d="M28 1.25h3v3h-3z" class="c5-cls-7"/><path d="M28 1.25h3v3h-3z" class="c5-cls-7"/><path d="M28 1.25h3v3h-3z" class="c5-cls-7"/></g><g id="c55_sealant"><path d="M28 1.25h3v3h-3z" class="c5-cls-7"/><path d="M28 1.25h3v3h-3z" class="c5-cls-7"/><path d="M28 1.25h3v3h-3z" class="c5-cls-7"/></g><g id="c55_root_decay" data-name="root decay"><path d="M28 1.25h3v3h-3z" class="c5-cls-7"/><path d="M28 1.25h3v3h-3z" class="c5-cls-7"/><path d="M28 1.25h3v3h-3z" class="c5-cls-7"/></g><g id="c55_root_canal" data-name="root canal"><path d="M28 1.25h3v3h-3z" class="c5-cls-7"/><path d="M28 1.25h3v3h-3z" class="c5-cls-7"/><path d="M28 1.25h3v3h-3z" class="c5-cls-7"/></g><g id="c55_root_abrasion" data-name="root abrasion"><path d="M28 1.25h3v3h-3z" class="c5-cls-7"/><path d="M28 1.25h3v3h-3z" class="c5-cls-7"/><path d="M28 1.25h3v3h-3z" class="c5-cls-7"/></g><g id="c55_open_contact_mesial" data-name="open contact mesial"><path d="M28 1.25h3v3h-3z" class="c5-cls-7"/><path d="M28 1.25h3v3h-3z" class="c5-cls-7"/><path d="M28 1.25h3v3h-3z" class="c5-cls-7"/></g><g id="c55_open_contact_distal" data-name="open contact distal"><path d="M28 1.25h3v3h-3z" class="c5-cls-7"/><path d="M28 1.25h3v3h-3z" class="c5-cls-7"/><path d="M28 1.25h3v3h-3z" class="c5-cls-7"/></g><path id="c55_lingual_abfraction" d="M42.71 54.84S36.8 59.5 29.5 59.5s-13.21-4.66-13.21-4.66 5.91-4.66 13.21-4.66 13.21 4.66 13.21 4.66z" class="c5-cls-15" data-color-action="fill" style="fill:inherit" data-name="lingual abfraction"/><g id="c55_internal_root_resorption" data-name="internal root resorption"><path d="M28 1.25h3v3h-3z" class="c5-cls-7"/><path d="M28 1.25h3v3h-3z" class="c5-cls-7"/><path d="M28 1.25h3v3h-3z" class="c5-cls-7"/></g><g id="c55_gortex_membranes" data-name="gortex membranes"><path d="M28 1.25h3v3h-3z" class="c5-cls-7"/><path d="M28 1.25h3v3h-3z" class="c5-cls-7"/><path d="M28 1.25h3v3h-3z" class="c5-cls-7"/></g><g id="c55_frenum_pull" data-name="frenum pull"><path d="M28 1.25h3v3h-3z" class="c5-cls-7"/><path d="M28 1.25h3v3h-3z" class="c5-cls-7"/><path d="M28 1.25h3v3h-3z" class="c5-cls-7"/></g><g id="c55_external_root_resorption" data-name="external root resorption"><path d="M28 1.25h3v3h-3z" class="c5-cls-7"/><path d="M28 1.25h3v3h-3z" class="c5-cls-7"/><path d="M28 1.25h3v3h-3z" class="c5-cls-7"/></g><path id="c55_three_quarter_crown" d="M46.2 31c.28-3.94.38-7.48.42-9.47.12-5.69-15.1-12-19.79-11.75-4.21.25-10.3 6.66-12.49 8.54-1.71 1.46-2.19 6.73-1.85 12.69z" class="c5-cls-8 c5-cls-19" data-color-action="fill" style="fill:inherit" data-name="three quarter crown"/><path id="c55_crown" d="M42 49.66c3.86-4 4.45-22.39 4.58-28.08s-15.1-12-19.79-11.75c-4.21.25-10.3 6.66-12.49 8.54-4.21 3.59-1 30.18 3.71 33.4S36.6 55.35 42 49.66z" class="c5-cls-8 c5-cls-19" data-color-action="fill" style="fill:inherit"/><path id="c55_cracked_surface_mesial" d="M41.34 24.74l3.83 3.83h-5.01l5.01 4.75h-5.01l3.83 3.83" class="c5-cls-20" data-color-action="stroke" style="stroke:inherit" data-name="cracked surface mesial"/><path id="c55_cracked_surface_lingual" d="M28.17 24.74l3.84 3.83H27l5 4.75h-5l3.83 3.83" class="c5-cls-20" data-color-action="stroke" style="stroke:inherit" data-name="cracked surface lingual"/><path id="c55_cracked_surface_lingual_V" d="M28.17 24.74l3.84 3.83H27l5 4.75h-5l3.83 3.83" class="c5-cls-20" data-color-action="stroke" style="stroke:inherit" data-name="cracked surface lingual V"/><path id="c55_cracked_surface_distal" d="M13.34 24.74l3.83 3.83h-5l5 4.75h-5L16 37.15" class="c5-cls-20" data-color-action="stroke" style="stroke:inherit" data-name="cracked surface distal"/><g id="c55_chipped_surface_mesial" class="c5-cls-8" data-name="chipped surface mesial"><path d="M37.83 26.41l8.33 8.34M46.16 26.41l-8.33 8.34" class="c5-cls-21" data-color-action="stroke" style="stroke:inherit"/></g><g id="c55_chipped_surface_lingual" class="c5-cls-8" data-name="chipped surface lingual"><path d="M25.67 26.41L34 34.75M34 26.41l-8.33 8.34" class="c5-cls-21" data-color-action="stroke" style="stroke:inherit"/></g><g id="c55_chipped_surface_lingual_V" class="c5-cls-8" data-name="chipped surface lingual V"><path d="M25.67 26.41L34 34.75M34 26.41l-8.33 8.34" class="c5-cls-21" data-color-action="stroke" style="stroke:inherit"/></g><g id="c55_chipped_surface_distal" class="c5-cls-8" data-name="chipped surface distal"><path d="M11.67 26.41L20 34.75M20 26.41l-8.33 8.34" class="c5-cls-21" data-color-action="stroke" style="stroke:inherit"/></g><g id="c55_buccal_abfraction" data-name="buccal abfraction"><path d="M28 1.25h3v3h-3z" class="c5-cls-7"/><path d="M28 1.25h3v3h-3z" class="c5-cls-7"/><path d="M28 1.25h3v3h-3z" class="c5-cls-7"/></g><g id="c55_braces"><path d="M28 1.25h3v3h-3z" class="c5-cls-7"/><path d="M28 1.25h3v3h-3z" class="c5-cls-7"/><path d="M28 1.25h3v3h-3z" class="c5-cls-7"/></g><g id="c55_apicoectomy"><path d="M28 1.25h3v3h-3z" class="c5-cls-7"/><path d="M28 1.25h3v3h-3z" class="c5-cls-7"/><path d="M28 1.25h3v3h-3z" class="c5-cls-7"/></g><g id="c55_abscess"><path d="M28 1.25h3v3h-3z" class="c5-cls-7"/><path d="M28 1.25h3v3h-3z" class="c5-cls-7"/><path d="M28 1.25h3v3h-3z" class="c5-cls-7"/></g><g id="c55_blunted_roots" data-name="blunted roots"><path d="M28 1.25h3v3h-3z" class="c5-cls-7"/><path d="M28 1.25h3v3h-3z" class="c5-cls-7"/><path d="M28 1.25h3v3h-3z" class="c5-cls-7"/></g><g id="c55_root_amputation" data-name="root amputation"><path d="M28 1.25h3v3h-3z" class="c5-cls-7"/><path d="M28 1.25h3v3h-3z" class="c5-cls-7"/><path d="M28 1.25h3v3h-3z" class="c5-cls-7"/></g><g id="c55_missing_crown" data-name="missing crown"><path d="M28 1.25h3v3h-3z" class="c5-cls-7"/><path d="M28 1.25h3v3h-3z" class="c5-cls-7"/><path d="M28 1.25h3v3h-3z" class="c5-cls-7"/><path d="M2 2.02h55V64H2z" class="c5-cls-13"/></g><g id="c55_missing_tooth" data-name="missing tooth"><path d="M42 49.66c3.86-4 4.45-22.39 4.58-28.08s-15.1-12-19.79-11.75c-4.21.25-10.3 6.66-12.49 8.54-4.21 3.59-1 30.18 3.71 33.4S36.6 55.35 42 49.66z" class="c5-cls-2"/><path d="M42 49.66c3.86-4 4.45-22.39 4.58-28.08s-15.1-12-19.79-11.75c-4.21.25-10.3 6.66-12.49 8.54-4.21 3.59-1 30.18 3.71 33.4S36.6 55.35 42 49.66z" class="c5-cls-13"/><path d="M12.5 24.35a14.62 14.62 0 0 1 2.75-4.42A101.41 101.41 0 0 1 24 13.12a6.72 6.72 0 0 1 6.54-.45c1.82.69 9.91 3.91 13.65 6.73a7.75 7.75 0 0 1 2.4 4.18v-2c.13-5.69-15.1-12-19.79-11.75-4.21.25-10.3 6.66-12.5 8.53-.99.86-1.57 3.08-1.8 5.99zM14.84 45.5c.9 3.09 2 5.43 3.21 6.25 4.62 3.17 18.55 3.59 24-2.1a10.39 10.39 0 0 0 2-4 9.69 9.69 0 0 1-4.4 2.66c-5 1.36-11.61 2-15.71 1.36-2.86-.47-6.94-2.79-9.1-4.17z" class="c5-cls-13"/></g><g id="c55_maryland_bridge_pontic" class="c5-cls-8" data-name="maryland bridge pontic"><path d="M2 28.96h55v7.67H2z" class="c5-cls-14" data-color-action="fill" style="fill:inherit"/><path d="M42 49.66c3.86-4 4.45-22.39 4.58-28.08s-15.1-12-19.79-11.75c-4.21.25-10.3 6.66-12.49 8.54-4.21 3.59-1 30.18 3.71 33.4S36.6 55.35 42 49.66z" class="c5-cls-14" data-color-action="fill" style="fill:inherit"/></g><g id="c55_maryland_bridge_abutment_mesial" class="c5-cls-8" data-name="maryland bridge abutment mesial"><path d="M36.58 28.17H57v7.67H36.58z" class="c5-cls-14" data-color-action="fill" style="fill:inherit"/><ellipse cx="37.81" cy="32" class="c5-cls-14" rx="5.61" ry="12.9" data-color-action="fill" style="fill:inherit"/></g><g id="c55_maryland_bridge_abutment_distal" class="c5-cls-8" data-name="maryland bridge abutment distal"><path d="M2 28.17h20.42v7.67H2z" class="c5-cls-14" data-color-action="fill" style="fill:inherit"/><ellipse cx="21.19" cy="32" class="c5-cls-14" rx="5.61" ry="12.9" data-color-action="fill" style="fill:inherit"/></g><g id="c55_maryland_bridge_abutment" class="c5-cls-8" data-name="maryland bridge abutment"><path d="M36.58 28.17H57v7.67H36.58zM2 28.17h20.42v7.67H2z" class="c5-cls-14" data-color-action="fill" style="fill:inherit"/><ellipse cx="21.19" cy="32" class="c5-cls-14" rx="5.61" ry="12.9" data-color-action="fill" style="fill:inherit"/><ellipse cx="37.81" cy="32" class="c5-cls-14" rx="5.61" ry="12.9" data-color-action="fill" style="fill:inherit"/></g><g id="c55_bridge_abutment_mesial" class="c5-cls-8" data-name="bridge abutment mesial"><path d="M42 49.66c3.86-4 4.45-22.39 4.58-28.08s-15.1-12-19.79-11.75c-4.21.25-10.3 6.66-12.49 8.54-4.21 3.59-1 30.18 3.71 33.4S36.6 55.35 42 49.66z" class="c5-cls-11" data-color-action="fill" style="fill:inherit"/><path d="M22.02 28.74H57v7.67H22.02z" class="c5-cls-11" data-color-action="fill" style="fill:inherit"/></g><g id="c55_bridge_abutment_distal" class="c5-cls-8" data-name="bridge abutment distal"><path d="M42 49.66c3.86-4 4.45-22.39 4.58-28.08s-15.1-12-19.79-11.75c-4.21.25-10.3 6.66-12.49 8.54-4.21 3.59-1 30.18 3.71 33.4S36.6 55.35 42 49.66z" class="c5-cls-11" data-color-action="fill" style="fill:inherit"/><path d="M2 28.74h34.98v7.67H2z" class="c5-cls-11" data-color-action="fill" style="fill:inherit"/></g><g id="c55_bridge_abutment" class="c5-cls-8" data-name="bridge abutment"><path d="M42 49.66c3.86-4 4.45-22.39 4.58-28.08s-15.1-12-19.79-11.75c-4.21.25-10.3 6.66-12.49 8.54-4.21 3.59-1 30.18 3.71 33.4S36.6 55.35 42 49.66z" class="c5-cls-11" data-color-action="fill" style="fill:inherit"/><path d="M2 28.74h55v7.67H2z" class="c5-cls-11" data-color-action="fill" style="fill:inherit"/></g><g id="c55_bridge_pontic" class="c5-cls-8" data-name="bridge pontic"><path d="M42 49.66c3.86-4 4.45-22.39 4.58-28.08s-15.1-12-19.79-11.75c-4.21.25-10.3 6.66-12.49 8.54-4.21 3.59-1 30.18 3.71 33.4S36.6 55.35 42 49.66z" class="c5-cls-11" data-color-action="fill" style="fill:inherit"/><path d="M2 28.74h55v7.67H2z" class="c5-cls-11" data-color-action="fill" style="fill:inherit"/></g><g id="c55_implant_mini" data-name="implant mini"><path d="M2 2.02h55V64H2z" class="c5-cls-13"/><path d="M29.72 66h-.44l-1-8.5V16.67h2.44V57.5l-1 8.5z" class="c5-cls-11" data-color-action="fill" style="fill:inherit"/><path d="M29.42 66h-.07l-.4-8.5V16.67h.37V57.5l.1 8.5z" class="c5-cls-16"/><path d="M28.28 16.67h2.44v.63h-2.44z" class="c5-cls-17" data-color-action="fill" style="fill:inherit"/><g class="c5-cls-18"><path d="M28.28 17.3l2.44 1v-.63l-2.44-1v.63zM28.28 18.75l2.44 1v-.64l-2.44-1v.64zM28.28 20.19l2.44 1v-.63l-2.44-1v.63zM28.28 21.64l2.44 1V22l-2.44-1v.64zM28.28 23.08l2.44 1v-.63l-2.44-1v.63zM28.28 24.53l2.44 1v-.64l-2.44-1v.64zM28.28 25.97l2.44 1v-.63l-2.44-1v.63zM28.28 27.42l2.44 1v-.63l-2.44-1v.63zM28.28 28.86l2.44 1v-.63l-2.44-1v.63zM28.28 30.31l2.44 1v-.63l-2.44-1v.63zM28.28 31.75l2.44 1.01v-.64l-2.44-1v.63zM28.28 33.2l2.44 1v-.63l-2.44-1v.63zM28.28 34.65l2.44 1v-.64l-2.44-1v.64zM28.28 36.09l2.44 1v-.63l-2.44-1v.63zM28.28 37.54l2.44 1v-.64l-2.44-1v.64zM28.28 38.98l2.44 1v-.63l-2.44-1v.63zM28.28 40.43l2.44 1v-.63l-2.44-1.01v.64zM28.28 41.87l2.44 1v-.63l-2.44-1v.63zM28.28 43.32l2.44 1v-.63l-2.44-1v.63zM28.28 44.76l2.44 1v-.63l-2.44-1v.63zM28.28 46.21l2.44 1v-.63l-2.44-1v.63zM28.28 47.65l2.44 1.01v-.64l-2.44-1v.63zM28.28 49.1l2.44 1v-.63l-2.44-1v.63zM28.28 50.55l2.44 1v-.64l-2.44-1v.64zM28.28 51.99l2.44 1v-.63l-2.44-1v.63zM28.28 53.44l2.44 1v-.64l-2.44-1v.64zM28.28 54.88l2.44 1v-.63l-2.44-1v.63zM28.28 56.33l2.44 1v-.63l-2.44-1.01v.64zM28.28 57.5l.03.29 2.27.92.07-.6-2.37-.97v.36zM28.49 59.3l1.93.79.07-.6-2.08-.85.08.66zM28.67 60.82l1.58.65.08-.6-1.74-.71.08.66zM28.85 62.34l1.24.51.07-.6-1.39-.57.08.66zM29.03 63.86l.9.37.07-.6-1.05-.43.08.66zM29.2 65.38l.57.23.07-.6-.71-.3.07.67z" class="c5-cls-17" data-color-action="fill" style="fill:inherit"/></g><circle cx="29.5" cy="12.79" r="2.24" class="c5-cls-11" data-color-action="fill" style="fill:inherit"/><path d="M27.67 14.01h3.67v3h-3.67z" class="c5-cls-11" data-color-action="fill" style="fill:inherit"/><path d="M28.49 14.01h.55v3h-.55z" class="c5-cls-16"/><path d="M28.7 11.44h-.21a2.32 2.32 0 0 0-.49 1.28 2.37 2.37 0 0 0 .52 1.3H29a2 2 0 0 1-.73-1.37 1.5 1.5 0 0 1 .43-1.21z" class="c5-cls-16"/><path d="M28.28 22.74h2.44v.63h-2.44z" class="c5-cls-17" data-color-action="fill" style="fill:inherit"/><path d="M32.11 16.99h-5.22l.87 5.71h3.48l.87-5.71z" class="c5-cls-11" data-color-action="fill" style="fill:inherit"/><path d="M28.85 16.99h-.79l.48 5.71h.53l-.22-5.71z" class="c5-cls-16"/></g><g id="c55_implant_cylinder" data-name="implant cylinder"><path d="M2 2.02h55V64H2z" class="c5-cls-13"/><path d="M26.17 13.67h6.67V63h-6.67zM24.5 63h10v3h-10z" class="c5-cls-11" data-color-action="fill" style="fill:inherit"/><path d="M28 13.67h1V63h-1zM26.75 63h1.5v3h-1.5z" class="c5-cls-16"/><path d="M24.5 10.64h10v3h-10z" class="c5-cls-11" data-color-action="fill" style="fill:inherit"/><path d="M26.75 10.64h1.5v3h-1.5z" class="c5-cls-16"/><path d="M26.17 62.37h6.67V63h-6.67zM26.17 13.67h6.67v.63h-6.67z" class="c5-cls-17" data-color-action="fill" style="fill:inherit"/><g class="c5-cls-18"><path d="M32.83 15.3l-6.66-1v-.63l6.66 1v.63zM32.83 16.75l-6.66-1v-.63l6.66 1v.63zM32.83 18.19l-6.66-1v-.63l6.66 1v.63zM32.83 19.64l-6.66-1v-.63l6.66 1v.63zM32.83 21.08l-6.66-1v-.63l6.66 1v.63zM32.83 22.53l-6.66-1v-.63l6.66 1v.63zM32.83 23.98l-6.66-1v-.64l6.66 1v.64zM32.83 25.42l-6.66-1v-.63l6.66 1v.63zM32.83 26.87l-6.66-1.01v-.63l6.66 1v.64zM32.83 28.31l-6.66-1v-.63l6.66 1v.63zM32.83 29.76l-6.66-1v-.64l6.66 1.01v.63zM32.83 31.2l-6.66-1v-.63l6.66 1v.63zM32.83 32.65l-6.66-1v-.63l6.66 1v.63zM32.83 34.09l-6.66-1v-.63l6.66 1v.63zM32.83 35.54l-6.66-1v-.63l6.66 1v.63zM32.83 36.98l-6.66-1v-.63l6.66 1v.63zM32.83 38.43l-6.66-1v-.63l6.66 1v.63zM32.83 39.88l-6.66-1v-.64l6.66 1v.64zM32.83 41.32l-6.66-1v-.63l6.66 1v.63zM32.83 42.77l-6.66-1v-.64l6.66 1v.64zM32.83 44.21l-6.66-1v-.63l6.66 1v.63zM32.83 45.66l-6.66-1v-.64l6.66 1v.64zM32.83 47.1l-6.66-1v-.63l6.66 1v.63zM32.83 48.55l-6.66-1v-.64l6.66 1.01v.63zM32.83 49.99l-6.66-1v-.63l6.66 1v.63zM32.83 51.44l-6.66-1v-.63l6.66 1v.63zM32.83 52.88l-6.66-1v-.63l6.66 1v.63zM32.83 54.33l-6.66-1v-.63l6.66 1v.63zM32.83 55.77l-6.66-1v-.63l6.66 1v.63zM32.83 57.22l-6.66-1v-.63l6.66 1v.63zM32.83 58.67l-6.66-1.01v-.63l6.66 1v.64zM32.83 60.11l-6.66-1v-.63l6.66 1v.63zM32.83 61.56l-6.66-1v-.64l6.66 1v.64zM32.83 63l-6.66-1v-.63l6.66 1V63z" class="c5-cls-17" data-color-action="fill" style="fill:inherit"/></g></g><g id="c55_implant_blade" data-name="implant blade"><path d="M2 2.02h55V64H2z" class="c5-cls-13"/><path d="M26.17 13.64h6.67v49.33h-6.67zM24.5 10.64h10v3h-10z" class="c5-cls-11" data-color-action="fill" style="fill:inherit"/><path d="M28 13.64h1v49.33h-1zM26.75 10.64h1.5v3h-1.5z" class="c5-cls-16"/><path d="M26.17 13.64h6.67v.63h-6.67z" class="c5-cls-17" data-color-action="fill" style="fill:inherit"/></g><g id="c55_border"><path d="M0 0h59v66H0z" class="c5-cls-7"/><path d="M0 0h59v66H0z" class="c5-cls-7" transform="rotate(-180 29.5 33)"/></g></defs></g></svg>