<svg xmlns="http://www.w3.org/2000/svg" viewBox="0 0 59 283"><defs><style>.a13-cls-1{isolation:isolate}.a13-cls-2{font-size:15px;fill:#929497;font-family:ProximaNova-Semibold,Proxima Nova,sans-serif;font-weight:700;stroke:none}.a13-cls-24,.a13-cls-3{fill:#c5c7c9;stroke:none}.a13-cls-3{stroke:#c5c7c9;stroke-width:5px}.a13-cls-19,.a13-cls-21,.a13-cls-23,.a13-cls-25,.a13-cls-26,.a13-cls-29,.a13-cls-3,.a13-cls-32,.a13-cls-33{stroke-miterlimit:10}.a13-cls-4,.a13-cls-5{fill:#f5d7cf;stroke:none}.a13-cls-5{fill:#fae8e3}.a13-cls-6,.a13-cls-7{fill:#f2c6bc;stroke:none}.a13-cls-7{fill:#eeefef}.a13-cls-8,.a13-cls-9{fill:#e2e3e4;stroke:none}.a13-cls-9{fill:#fbfbfb}.a13-cls-10,.a13-cls-27,.a13-cls-36{fill:#3c3d3d;stroke:none}.a13-cls-10{opacity:.55}.a13-cls-11{fill:#ffd403;stroke:none}.a13-cls-12,.a13-cls-31{fill:#ffef3e;stroke:none}.a13-cls-13,.a13-cls-20{fill:#c52636;stroke:none}.a13-cls-14{fill:none;stroke:none}.a13-cls-19,.a13-cls-21,.a13-cls-23,.a13-cls-25,.a13-cls-26,.a13-cls-29,.a13-cls-32,.a13-cls-33{fill:none}.a13-cls-16,.a13-cls-37{fill:#28418b;stroke:none}.a13-cls-17,.a13-cls-18{fill:#787878;stroke:none}.a13-cls-19,.a13-cls-21,.a13-cls-23,.a13-cls-29,.a13-cls-32,.a13-cls-33{stroke:#c52636}.a13-cls-19,.a13-cls-21,.a13-cls-26{stroke-width:2px}.a13-cls-21{stroke-linecap:round}.a13-cls-22{fill:#fff;stroke:none}.a13-cls-25,.a13-cls-26{stroke:#28418b}.a13-cls-25{stroke-width:3px}.a13-cls-28{opacity:.6}.a13-cls-29{stroke-width:4px}.a13-cls-30{fill:#f05b85;stroke:none}.a13-cls-32,.a13-cls-33{stroke-width:1.25px}.a13-cls-34{fill:#9b9999;stroke:none}.a13-cls-35{fill:#dbdbdc;stroke:none}.b13-cls-1{isolation:isolate}.b13-cls-2{fill:#c5c7c9;stroke:#c5c7c9;stroke-width:5px}.b13-cls-16,.b13-cls-17,.b13-cls-2{stroke-miterlimit:10}.b13-cls-3{fill:#eeefef;stroke:none}.b13-cls-4,.b13-cls-5{fill:#e2e3e4;stroke:none}.b13-cls-5{fill:#fbfbfb}.b13-cls-14,.b13-cls-6{fill:#3c3d3d;stroke:none}.b13-cls-6{opacity:.55}.b13-cls-16,.b13-cls-17{fill:none}.b13-cls-7{fill:none;stroke:none}.b13-cls-13,.b13-cls-8,.b13-cls-9{fill:#787878;stroke:none}.b13-cls-9{font-size:33px;fill:#28418b;font-family:ProximaNova-Semibold,Proxima Nova,sans-serif;font-weight:700}.b13-cls-10{fill:#fff;stroke:none}.b13-cls-12{fill:#c52636;stroke:none}.b13-cls-15{fill:#ffef3e;stroke:none}.b13-cls-16,.b13-cls-17{stroke:#c52636;stroke-width:1.25px}.c13-cls-1{isolation:isolate}.c13-cls-16,.c13-cls-2{fill:#c5c7c9;stroke:none}.c13-cls-2{stroke:#c5c7c9;stroke-width:5px}.c13-cls-2,.c13-cls-20,.c13-cls-21{stroke-miterlimit:10}.c13-cls-3{fill:#eeefef;stroke:none}.c13-cls-4,.c13-cls-5{fill:#fbfbfb;stroke:none}.c13-cls-5{fill:#e2e3e4}.c13-cls-17,.c13-cls-6{fill:#3c3d3d;stroke:none}.c13-cls-6{opacity:.55}.c13-cls-20,.c13-cls-21{fill:none}.c13-cls-7,.c13-cls-9{fill:none;stroke:none}.c13-cls-9{fill:#28418b}.c13-cls-10,.c13-cls-11{fill:#787878;stroke:none}.c13-cls-12,.c13-cls-19{fill:#ffef3e;stroke:none}.c13-cls-13{fill:#fff;stroke:none}.c13-cls-14,.c13-cls-15{fill:#c52636;stroke:none}.c13-cls-18{opacity:.6}.c13-cls-20,.c13-cls-21{stroke:#c52636;stroke-width:1.25px}.a13-msng-cls-1{isolation:isolate}.a13-msng-cls-2{font-size:15px;fill:#929497;font-family:ProximaNova-Semibold,Proxima Nova;font-weight:700;stroke:none}.a13-msng-cls-3{fill:#c5c7c9;stroke:#c5c7c9;stroke-width:5px}.a13-msng-cls-11,.a13-msng-cls-3{stroke-miterlimit:10}.a13-msng-cls-4{fill:#f5d7cf;stroke:none}.a13-msng-cls-5{fill:#fae8e3;stroke:none}.a13-msng-cls-6{fill:#f2c6bc;stroke:none}.a13-msng-cls-7{fill:#eeefef;stroke:none}.a13-msng-cls-8{fill:#e2e3e4;stroke:none}.a13-msng-cls-9{fill:#fbfbfb;stroke:none}.a13-msng-cls-11{fill:none}.a13-msng-cls-12{fill:none;stroke:none}.a13-msng-cls-11{stroke:#787878;stroke-width:6.25px}</style></defs><g class="a13-cls-1"><g id="_13A" data-name="#13A"><text class="a13-cls-2" transform="translate(22.35 20.51)">13</text><path d="M39.3 116.81a4.33 4.33 0 0 0-1.52-1.52 197.07 197.07 0 0 1-4.66-31.22c-1.05-15.51-.1-35.56-1.93-36s-7.74 15.85-10.35 34.05c-1.47 10.28-2.66 28.51-3 34.1a2.32 2.32 0 0 0-.65.77c-1.61 3.44-4.88 22.1-4 25.32.64 2.42 14.16 10.51 16.56 10.6s15.73-6 16.23-9.51-3.75-21.31-6.68-26.59z" class="a13-cls-3"/><path d="M17.73 117.92s1.35-23.54 3.1-35.79c2.61-18.2 8.52-34.49 10.35-34.05s.88 20.49 1.93 36c1.29 19 4.83 31.06 5.26 34.21s-20.01 7.4-20.64-.37z" class="a13-cls-4"/><path d="M30.27 114.6a196 196 0 0 1-2.58-27.46c-.18-18.24 2-35.94 2.95-35.94s-1.84 15.3-.92 35.94C30.26 99.48 34 115 34 115z" class="a13-cls-5"/><path d="M23.68 67.48c-1 7.81-2.33 18.87-2.44 25.19-.19 10.51-.56 24.51-.56 24.51h-2.9c.24-4.07 1.48-24.09 3.06-35.05.74-5.13 1.74-10.13 2.84-14.65zM38 116.29l-.91.53s-3.87-11.24-5.34-31.14a151.42 151.42 0 0 1 .63-28.59c.2 7.34.14 17.94.75 27a201.57 201.57 0 0 0 4.87 32.2z" class="a13-cls-6"/><path d="M13.16 142.32c-.86-3.23 2.42-21.88 4-25.32s19.18-5.46 22.11-.18 7.15 23.11 6.65 26.59-13.81 9.59-16.21 9.51-15.91-8.18-16.55-10.6z" class="a13-cls-7"/><path d="M15.77 144.24c-.68-3.58 2.25-24.35 3.63-28.2a2.75 2.75 0 0 1 .68-1 5.1 5.1 0 0 0-2.9 1.94c-1.61 3.44-4.88 22.1-4 25.32.19.72 1.52 1.94 3.35 3.29a3.83 3.83 0 0 1-.76-1.35zM39.3 116.81a4.43 4.43 0 0 0-1.66-1.61 4 4 0 0 1 .2.4c2.39 5.84 5.71 25.61 5.25 29.49a5.38 5.38 0 0 1-1.34 2.54c2.29-1.48 4-3 4.21-4.24.49-3.47-3.73-21.3-6.66-26.58z" class="a13-cls-8"/><path d="M36.49 150.53a165.28 165.28 0 0 0-.88-19.9 146.57 146.57 0 0 0-2.36-16.8 26.29 26.29 0 0 0-3.88-.25c.64 3.07 1.43 9.21 2.19 17.23a95.8 95.8 0 0 1 0 21.73 40.13 40.13 0 0 0 4.93-2.01z" class="a13-cls-9"/></g><defs><g id="a13_bone_graft" data-name="bone graft"><path d="M2 23.31h55v91.86H2z" class="a13-cls-16" data-color-action="fill" style="fill:inherit"/><path d="M39.3 116.81a4.33 4.33 0 0 0-1.52-1.52 197.07 197.07 0 0 1-4.66-31.22c-1.05-15.51-.1-35.56-1.93-36s-7.74 15.85-10.35 34.05c-1.47 10.28-2.66 28.51-3 34.1a2.32 2.32 0 0 0-.65.77c-1.61 3.44-4.88 22.1-4 25.32.64 2.42 14.16 10.51 16.56 10.6s15.73-6 16.23-9.51-3.75-21.31-6.68-26.59z" class="a13-cls-3"/><path d="M17.73 117.92s1.35-23.54 3.1-35.79c2.61-18.2 8.52-34.49 10.35-34.05s.88 20.49 1.93 36c1.29 19 4.83 31.06 5.26 34.21s-20.01 7.4-20.64-.37z" class="a13-cls-4"/><path d="M30.27 114.6a196 196 0 0 1-2.58-27.46c-.18-18.24 2-35.94 2.95-35.94s-1.84 15.3-.92 35.94C30.26 99.48 34 115 34 115z" class="a13-cls-5"/><path d="M23.68 67.48c-1 7.81-2.33 18.87-2.44 25.19-.19 10.51-.56 24.51-.56 24.51h-2.9c.24-4.07 1.48-24.09 3.06-35.05.74-5.13 1.74-10.13 2.84-14.65zM38 116.29l-.91.53s-3.87-11.24-5.34-31.14a151.42 151.42 0 0 1 .63-28.59c.2 7.34.14 17.94.75 27a201.57 201.57 0 0 0 4.87 32.2z" class="a13-cls-6"/><path d="M13.16 142.32c-.86-3.23 2.42-21.88 4-25.32s19.18-5.46 22.11-.18 7.15 23.11 6.65 26.59-13.81 9.59-16.21 9.51-15.91-8.18-16.55-10.6z" class="a13-cls-7"/><path d="M15.77 144.24c-.68-3.58 2.25-24.35 3.63-28.2a2.75 2.75 0 0 1 .68-1 5.1 5.1 0 0 0-2.9 1.94c-1.61 3.44-4.88 22.1-4 25.32.19.72 1.52 1.94 3.35 3.29a3.83 3.83 0 0 1-.76-1.35zM39.3 116.81a4.43 4.43 0 0 0-1.66-1.61 4 4 0 0 1 .2.4c2.39 5.84 5.71 25.61 5.25 29.49a5.38 5.38 0 0 1-1.34 2.54c2.29-1.48 4-3 4.21-4.24.49-3.47-3.73-21.3-6.66-26.58z" class="a13-cls-8"/><path d="M36.49 150.53a165.28 165.28 0 0 0-.88-19.9 146.57 146.57 0 0 0-2.36-16.8 26.29 26.29 0 0 0-3.88-.25c.64 3.07 1.43 9.21 2.19 17.23a95.8 95.8 0 0 1 0 21.73 40.13 40.13 0 0 0 4.93-2.01z" class="a13-cls-9"/></g><g id="a13_splinted_crowns" data-name="splinted crowns"><path d="M2 108.58h55v7.67H2z" class="a13-cls-12" transform="rotate(-180 29.5 112.41)" data-color-action="fill" style="fill:inherit"/><path d="M39.3 116.81a4.33 4.33 0 0 0-1.52-1.52 197.07 197.07 0 0 1-4.66-31.22c-1.05-15.51-.1-35.56-1.93-36s-7.74 15.85-10.35 34.05c-1.47 10.28-2.66 28.51-3 34.1a2.32 2.32 0 0 0-.65.77c-1.61 3.44-4.88 22.1-4 25.32.64 2.42 14.16 10.51 16.56 10.6s15.73-6 16.23-9.51-3.75-21.31-6.68-26.59z" class="a13-cls-3"/><path d="M17.73 117.92s1.35-23.54 3.1-35.79c2.61-18.2 8.52-34.49 10.35-34.05s.88 20.49 1.93 36c1.29 19 4.83 31.06 5.26 34.21s-20.01 7.4-20.64-.37z" class="a13-cls-4"/><path d="M30.27 114.6a196 196 0 0 1-2.58-27.46c-.18-18.24 2-35.94 2.95-35.94s-1.84 15.3-.92 35.94C30.26 99.48 34 115 34 115z" class="a13-cls-5"/><path d="M23.68 67.48c-1 7.81-2.33 18.87-2.44 25.19-.19 10.51-.56 24.51-.56 24.51h-2.9c.24-4.07 1.48-24.09 3.06-35.05.74-5.13 1.74-10.13 2.84-14.65zM38 116.29l-.91.53s-3.87-11.24-5.34-31.14a151.42 151.42 0 0 1 .63-28.59c.2 7.34.14 17.94.75 27a201.57 201.57 0 0 0 4.87 32.2z" class="a13-cls-6"/><path d="M13.16 142.32c-.86-3.23 2.42-21.88 4-25.32s19.18-5.46 22.11-.18 7.15 23.11 6.65 26.59-13.81 9.59-16.21 9.51-15.91-8.18-16.55-10.6z" class="a13-cls-7"/><path d="M15.77 144.24c-.68-3.58 2.25-24.35 3.63-28.2a2.75 2.75 0 0 1 .68-1 5.1 5.1 0 0 0-2.9 1.94c-1.61 3.44-4.88 22.1-4 25.32.19.72 1.52 1.94 3.35 3.29a3.83 3.83 0 0 1-.76-1.35zM39.3 116.81a4.43 4.43 0 0 0-1.66-1.61 4 4 0 0 1 .2.4c2.39 5.84 5.71 25.61 5.25 29.49a5.38 5.38 0 0 1-1.34 2.54c2.29-1.48 4-3 4.21-4.24.49-3.47-3.73-21.3-6.66-26.58z" class="a13-cls-8"/><path d="M36.49 150.53a165.28 165.28 0 0 0-.88-19.9 146.57 146.57 0 0 0-2.36-16.8 26.29 26.29 0 0 0-3.88-.25c.64 3.07 1.43 9.21 2.19 17.23a95.8 95.8 0 0 1 0 21.73 40.13 40.13 0 0 0 4.93-2.01z" class="a13-cls-9"/></g><path id="a13_mesial" d="M17.27 132.81a17 17 0 0 0 .68 4.41l-4.75 5.2v-.1c-.45-1.71.25-7.75 1.26-13.57a4.64 4.64 0 0 1 2.81 4.06z" class="a13-cls-10" data-color-action="fill" style="fill:inherit"/><path id="a13_line_angle_2" d="M24.79 142.74l-1.74 7.12c-4.38-2.53-9.28-5.93-9.85-7.43l4.75-5.2c.94 2.97 2.97 4.77 6.84 5.51z" class="a13-cls-10" data-color-action="fill" style="fill:inherit" data-name="line angle 2"/><path id="a13_cusp_1" d="M29.85 143.18a17.69 17.69 0 0 0 4.6-.5l2.61 7.57c-3.22 1.58-6.31 2.71-7.35 2.67s-3.69-1.35-6.66-3.07l1.74-7.12a27.27 27.27 0 0 0 5.06.45z" class="a13-cls-10" data-color-action="fill" style="fill:inherit" data-name="cusp 1"/><path id="a13_line_angle_1" d="M40.26 137.19l5.33 7.07c-1.15 1.88-4.91 4.21-8.53 6l-2.61-7.57a7.67 7.67 0 0 0 5.81-5.5z" class="a13-cls-10" data-color-action="fill" style="fill:inherit" data-name="line angle 1"/><path id="a13_distal" d="M45.94 143.4a2.34 2.34 0 0 1-.35.86l-5.33-7.07a23.52 23.52 0 0 0 .87-5 3.78 3.78 0 0 1 2.33-3.19c1.59 6.17 2.76 12.48 2.48 14.4z" class="a13-cls-10" data-color-action="fill" style="fill:inherit"/><ellipse id="a13_buccal" cx="28.99" cy="129.54" class="a13-cls-10" rx="3.96" ry="6.97" data-color-action="fill" style="fill:inherit"/><path id="a13_buccal_V" d="M36.43 114.62a17.38 17.38 0 0 1-17.34.84c3.91-1.85 12.58-2.69 17.34-.84z" class="a13-cls-10" data-color-action="fill" style="fill:inherit" data-name="buccal V"/><path id="a13_veneer" d="M13.16 142.32c-.86-3.23 2.42-21.88 4-25.32s19.18-5.46 22.11-.18 7.15 23.11 6.65 26.59-13.81 9.59-16.21 9.51-15.91-8.18-16.55-10.6z" class="a13-cls-12" data-color-action="fill" style="fill:inherit"/><path id="a13_tissue_graft" d="M12.03 99.66l17.47 13.88 17.47-13.88H12.03z" class="a13-cls-13" data-color-action="fill" style="fill:inherit" data-name="tissue graft"/><path id="a13_tipped_lingual" d="M28 3.25h3v3h-3z" class="a13-cls-14" transform="rotate(-180 29.5 4.75)" data-name="tipped lingual"/><g id="a13_tipped_facial" class="a13-cls-15" data-name="tipped facial"><path d="M33.15 155.9c-1.26 3.37-4.74 3.85-7.69-5.32-.5-1.56-4.42-1.76-3.84 0 2 6.08 5.31 10.2 9.06 9.27a4.86 4.86 0 0 0 3-3.38c-.19-.17-.42-.47-.53-.57z" class="a13-cls-16" data-color-action="fill" style="fill:inherit"/><path d="M31.07 152.98H18.13l2.94-9.64 10 9.64z" class="a13-cls-16" data-color-action="fill" style="fill:inherit"/></g><path id="a13_surface_restoration_occlusal" d="M15.09 144.51l6.33-4a70.27 70.27 0 0 0 8.64 5.12 47.45 47.45 0 0 0 7.27-3.53l6.4 4.06c-4 3.24-12.2 6.79-14 6.72s-10.67-5.06-14.64-8.37z" class="a13-cls-17" data-color-action="fill" style="fill:inherit" data-name="surface restoration occlusal"/><path id="a13_surface_restoration_distal" d="M38.87 141.15c-.39-3.09-1.71-13.36-3.13-21.21a11.51 11.51 0 0 0 6.67 5.24c2.09 7.12 3.87 15.88 3.54 18.21a5.47 5.47 0 0 1-2.2 2.8l-6.4-4.06c.56-.33 1.09-.67 1.52-.98z" class="a13-cls-17" data-color-action="fill" style="fill:inherit" data-name="surface restoration distal"/><path id="a13_surface_restoration_buccal" d="M34.43 116.49a11.51 11.51 0 0 0 1.31 3.46c1.42 7.85 2.73 18.12 3.13 21.21a44.34 44.34 0 0 1-8.8 4.52 67.64 67.64 0 0 1-10-6.14c.16-2.9 1-12.69 1.82-20.05a11.59 11.59 0 0 0 .9-2.69 11.94 11.94 0 0 0 11.68-.3z" class="a13-cls-15 a13-cls-18" data-color-action="fill" style="fill:inherit" data-name="surface restoration buccal"/><path id="a13_surface_restoration_buccal_V" d="M23 114.25a30.34 30.34 0 0 1 11.17-.25v.16a11.32 11.32 0 0 0 .26 2.32 11.94 11.94 0 0 1-11.68.3 11.28 11.28 0 0 0 .25-2.28v-.25z" class="a13-cls-15 a13-cls-18" data-color-action="fill" style="fill:inherit" data-name="surface restoration buccal V"/><path id="a13_surface_restoration_mesial" d="M13.16 142.32c-.54-2 .57-10.24 1.86-16.87a11.52 11.52 0 0 0 6.84-6c-.86 7.39-1.66 17.18-1.86 20.08.4.31.87.66 1.39 1l-6.33 4a6.09 6.09 0 0 1-1.9-2.21z" class="a13-cls-17" data-color-action="fill" style="fill:inherit" data-name="surface restoration mesial"/><g id="a13_supra-erupted" class="a13-cls-15"><path d="M28.5 106.88V99.2" class="a13-cls-19" data-color-action="stroke" style="stroke:inherit"/><path d="M32.49 105.71l-3.99 6.91-3.99-6.91h7.98z" class="a13-cls-20" data-color-action="fill" style="fill:inherit"/></g><g id="a13_sub-erupted" class="a13-cls-15"><path d="M28.5 104.94v7.68" class="a13-cls-19" data-color-action="stroke" style="stroke:inherit"/><path d="M24.51 106.11l3.99-6.91 3.99 6.91h-7.98z" class="a13-cls-20" data-color-action="fill" style="fill:inherit"/></g><path id="a13_sealant" d="M28 3.25h3v3h-3z" class="a13-cls-14" transform="rotate(-180 29.5 4.75)"/><g id="a13_rotated_mesial" class="a13-cls-15" data-name="rotated mesial"><path d="M52.29 128.18c3 1.79 2.3 5.46-10.23 5.81-5.3.15-8.95 0-8.95 0l.07 3s1 .07 8.22-.24c7.62-.32 14-1.83 13.75-6a4 4 0 0 0-2.31-2.92c-.17.17-.41.28-.55.35z" class="a13-cls-16" data-color-action="fill" style="fill:inherit"/><path d="M39.59 129.47v11.89l-10.39-5.9 10.39-5.99z" class="a13-cls-16" data-color-action="fill" style="fill:inherit"/></g><g id="a13_rotated_distal" class="a13-cls-15" data-name="rotated distal"><path d="M6.45 128.18c-3 1.79-2.3 5.46 10.23 5.81 5.3.15 8.95 0 8.95 0l-.07 3s-1 .07-8.22-.24c-7.62-.32-14-1.83-13.75-6a4 4 0 0 1 2.31-2.92c.17.17.42.28.55.35z" class="a13-cls-16" data-color-action="fill" style="fill:inherit"/><path d="M19.15 129.47v11.89l10.4-5.9-10.4-5.99z" class="a13-cls-16" data-color-action="fill" style="fill:inherit"/></g><circle id="a13_root_decay" cx="27.83" cy="73.83" r="4.33" class="a13-cls-15 a13-cls-18" data-color-action="fill" style="fill:inherit" data-name="root decay"/><path id="a13_root_canal" d="M30.5 52.83l-2.25 58.75" class="a13-cls-21" data-color-action="stroke" style="stroke:inherit" data-name="root canal"/><path id="a13_root_abrasion" d="M26.42 64.83h3.5v13.83h-3.5z" class="a13-cls-15 a13-cls-23" transform="rotate(-180 28.165 71.75)" data-color-action="stroke" style="stroke:inherit" data-name="root abrasion"/><g id="a13_post"><path d="M26.35 88.39h3.14v41.77h-3.14z" class="a13-cls-18" transform="rotate(-180 27.925 109.275)" data-color-action="fill" style="fill:inherit"/><path d="M28.16 88.39h.47v41.77h-.47z" class="a13-cls-24" transform="rotate(-180 28.395 109.275)"/></g><g id="a13_pins"><path d="M29.26 101.73h2.42v23.43h-2.42z" class="a13-cls-18" transform="rotate(-180 30.465 113.445)" data-color-action="fill" style="fill:inherit"/><path d="M30.65 101.73h.36v23.43h-.36z" class="a13-cls-24" transform="rotate(-180 30.83 113.445)"/><path d="M24.67 101.73h2.42v23.43h-2.42z" class="a13-cls-18" transform="rotate(-180 25.885 113.445)" data-color-action="fill" style="fill:inherit"/><path d="M26.06 101.73h.36v23.43h-.36z" class="a13-cls-24" transform="rotate(-180 26.245 113.445)"/></g><path id="a13_open_contact_mesial" d="M25.31 108l-7.5 4.75-7.5-4.75" class="a13-cls-25" data-color-action="stroke" style="stroke:inherit" data-name="open contact mesial"/><path id="a13_open_contact_distal" d="M45.33 108l-7.5 4.75-7.5-4.75" class="a13-cls-25" data-color-action="stroke" style="stroke:inherit" data-name="open contact distal"/><g id="a13_mesial_drift" class="a13-cls-15" data-name="mesial drift"><path d="M26.41 133.16h11.92" class="a13-cls-26" data-color-action="stroke" style="stroke:inherit"/><path d="M27.57 137.15l-6.9-3.99 6.9-3.98v7.97z" class="a13-cls-16" data-color-action="fill" style="fill:inherit"/></g><path id="a13_lingual_abfraction" d="M28 3.25h3v3h-3z" class="a13-cls-14" transform="rotate(-180 29.5 4.75)" data-name="lingual abfraction"/><ellipse id="a13_internal_root_resorption" cx="27.5" cy="74.67" class="a13-cls-15 a13-cls-20" rx="8.27" ry="3.34" transform="rotate(-85.2 27.502 74.673)" data-color-action="fill" style="fill:inherit" data-name="internal root resorption"/><g id="a13_impacted_mesial" class="a13-cls-15" data-name="impacted mesial"><ellipse cx="29.5" cy="101.3" class="a13-cls-26" rx="24.15" ry="58.3" data-color-action="stroke" style="stroke:inherit"/><path d="M40.91 101.3h12.76" class="a13-cls-26" data-color-action="stroke" style="stroke:inherit"/><path d="M42.08 105.29l-6.91-3.99 6.91-3.99v7.98z" class="a13-cls-16" data-color-action="fill" style="fill:inherit"/></g><g id="a13_impacted_distal" class="a13-cls-15" data-name="impacted distal"><ellipse cx="29.51" cy="101.3" class="a13-cls-26" rx="24.15" ry="58.3" data-color-action="stroke" style="stroke:inherit"/><path d="M18.11 101.3H5.35" class="a13-cls-26" data-color-action="stroke" style="stroke:inherit"/><path d="M16.94 97.31l6.91 3.99-6.91 3.99v-7.98z" class="a13-cls-16" data-color-action="fill" style="fill:inherit"/></g><path id="a13_gortex_membranes" d="M2 99.83h55v16.42H2z" class="a13-cls-13" transform="rotate(-180 29.5 108.04)" data-color-action="fill" style="fill:inherit" data-name="gortex membranes"/><path id="a13_frenum_pull" d="M38.49 112.58l-10.66-6.75-10.65 6.75" class="a13-cls-29" data-color-action="stroke" style="stroke:inherit" data-name="frenum pull"/><path id="a13_external_root_resorption" d="M19.79 91.08a9.33 9.33 0 0 0 4.92-7.41A10.64 10.64 0 0 0 22 75.25c-.43 2.24-.82 4.54-1.15 6.87-.38 2.6-.74 5.69-1.06 8.96zM29 84.55c.43 5.36 3.26 7.62 5 8.51-.32-2.8-.6-5.79-.82-9-.18-2.67-.3-5.47-.39-8.28-1.64.92-4.27 3.22-3.79 8.77z" class="a13-cls-15 a13-cls-20" data-color-action="fill" style="fill:inherit" data-name="external root resorption"/><g id="a13_distal_drift" class="a13-cls-15" data-name="distal drift"><path d="M32.59 133.16H20.67" class="a13-cls-26" data-color-action="stroke" style="stroke:inherit"/><path d="M31.43 129.18l6.9 3.98-6.9 3.99v-7.97z" class="a13-cls-16" data-color-action="fill" style="fill:inherit"/></g><path id="a13_three_quarter_crown" d="M44.47 133.17c1 4.63 1.69 8.75 1.48 10.24-.5 3.48-13.84 9.61-16.23 9.51s-15.91-8.18-16.56-10.6c-.34-1.27 0-5 .56-9.15z" class="a13-cls-15 a13-cls-31" data-color-action="fill" style="fill:inherit" data-name="three quarter crown"/><path id="a13_crown" d="M13.16 142.32c-.86-3.23 2.42-21.88 4-25.32s19.18-5.46 22.11-.18 7.15 23.11 6.65 26.59-13.81 9.59-16.21 9.51-15.91-8.18-16.55-10.6z" class="a13-cls-12" data-color-action="fill" style="fill:inherit"/><path id="a13_cracked_surface_distal" d="M41.34 128.82l3.83 3.84h-5.01l5.01 4.74h-5.01l3.83 3.83" class="a13-cls-32" data-color-action="stroke" style="stroke:inherit" data-name="cracked surface distal"/><path id="a13_cracked_surface_buccal" d="M28.17 128.82l3.84 3.84H27l5 4.74h-5l3.83 3.83" class="a13-cls-32" data-color-action="stroke" style="stroke:inherit" data-name="cracked surface buccal"/><path id="a13_cracked_surface_buccal_V" d="M28.17 128.82l3.84 3.84H27l5 4.74h-5l3.83 3.83" class="a13-cls-32" data-color-action="stroke" style="stroke:inherit" data-name="cracked surface buccal V"/><path id="a13_cracked_surface_mesial" d="M14.34 128.82l3.83 3.84h-5l5 4.74h-5l3.83 3.83" class="a13-cls-32" data-color-action="stroke" style="stroke:inherit" data-name="cracked surface mesial"/><g id="a13_chipped_surface_distal" class="a13-cls-15" data-name="chipped surface distal"><path d="M37.83 130.5l8.33 8.33M46.16 130.5l-8.33 8.33" class="a13-cls-33" data-color-action="stroke" style="stroke:inherit"/></g><g id="a13_chipped_surface_buccal" class="a13-cls-15" data-name="chipped surface buccal"><path d="M25.67 130.5l8.33 8.33M34 130.5l-8.33 8.33" class="a13-cls-33" data-color-action="stroke" style="stroke:inherit"/></g><g id="a13_chipped_surface_buccal_V" class="a13-cls-15" data-name="chipped surface buccal V"><path d="M25.67 130.5l8.33 8.33M34 130.5l-8.33 8.33" class="a13-cls-33" data-color-action="stroke" style="stroke:inherit"/></g><g id="a13_chipped_surface_mesial" class="a13-cls-15" data-name="chipped surface mesial"><path d="M12.67 130.5l8.33 8.33M21 130.5l-8.33 8.33" class="a13-cls-33" data-color-action="stroke" style="stroke:inherit"/></g><path id="a13_buccal_abfraction" d="M17.39 114.58a20.1 20.1 0 0 0 11.11 3.92 20.1 20.1 0 0 0 11.11-3.92 20.1 20.1 0 0 0-11.11-3.92 20.1 20.1 0 0 0-11.11 3.92z" class="a13-cls-13" data-color-action="fill" style="fill:inherit" data-name="buccal abfraction"/><g id="a13_braces"><path d="M22.96 124.97h13.45v18.19H22.96z" class="a13-cls-24" transform="rotate(-180 29.69 134.065)"/><path d="M22.96 142.48h13.45v.68H22.96z" class="a13-cls-34" transform="rotate(-180 29.69 142.82)" data-color-action="fill" style="fill:inherit"/><path d="M22.96 134.21h13.45v1.36H22.96z" class="a13-cls-34" transform="rotate(-180 29.69 134.89)" data-color-action="fill" style="fill:inherit"/><path d="M22.96 124.97h13.45v.89H22.96z" class="a13-cls-35" transform="rotate(-180 29.69 125.415)" data-color-action="fill" style="fill:inherit"/><rect width="4.11" height="7.94" x="32.59" y="124.99" class="a13-cls-27" rx=".49" ry=".49" transform="rotate(-180 34.64 128.96)" data-color-action="fill" style="fill:inherit"/><path d="M33.08 125h3.13a.49.49 0 0 1 .49.49v5.83a13.14 13.14 0 0 1-4.11 0v-5.83a.49.49 0 0 1 .49-.49z" class="a13-cls-18" data-color-action="fill" style="fill:inherit"/><path d="M32.92 126.4v-1.11a.16.16 0 0 1 .16-.16h3.13a.16.16 0 0 1 .16.16v1.11z" class="a13-cls-24"/><rect width="4.11" height="7.94" x="22.67" y="124.99" class="a13-cls-27" rx=".49" ry=".49" transform="rotate(-180 24.725 128.96)" data-color-action="fill" style="fill:inherit"/><path d="M23.16 125h3.13a.49.49 0 0 1 .49.49v5.83a13.14 13.14 0 0 1-4.11 0v-5.83a.49.49 0 0 1 .49-.49z" class="a13-cls-18" data-color-action="fill" style="fill:inherit"/><path d="M23 126.4v-1.11a.16.16 0 0 1 .16-.16h3.13a.16.16 0 0 1 .16.16v1.11z" class="a13-cls-24"/><rect width="4.11" height="7.94" x="32.59" y="135.28" class="a13-cls-27" rx=".49" ry=".49" transform="rotate(-180 34.64 139.245)" data-color-action="fill" style="fill:inherit"/><path d="M33.08 135.28h3.13a.49.49 0 0 1 .49.49v5.83a13.14 13.14 0 0 1-4.11 0v-5.83a.49.49 0 0 1 .49-.49z" class="a13-cls-18" data-color-action="fill" style="fill:inherit"/><path d="M32.92 136.68v-1.11a.16.16 0 0 1 .16-.16h3.13a.16.16 0 0 1 .16.16v1.11z" class="a13-cls-24"/><rect width="4.11" height="7.94" x="22.67" y="135.28" class="a13-cls-27" rx=".49" ry=".49" transform="rotate(-180 24.725 139.245)" data-color-action="fill" style="fill:inherit"/><path d="M23.16 135.28h3.13a.49.49 0 0 1 .49.49v5.83a13.14 13.14 0 0 1-4.11 0v-5.83a.49.49 0 0 1 .49-.49z" class="a13-cls-18" data-color-action="fill" style="fill:inherit"/><path d="M23 136.68v-1.11a.16.16 0 0 1 .16-.16h3.13a.16.16 0 0 1 .16.16v1.11z" class="a13-cls-24"/><path d="M8.58 133.38h42.21v1.45H8.58z" class="a13-cls-18" transform="rotate(-180 29.685 134.105)" data-color-action="fill" style="fill:inherit"/><path d="M8.58 134.58h42.21v.25H8.58z" class="a13-cls-27" transform="rotate(-180 29.685 134.705)" data-color-action="fill" style="fill:inherit"/><path d="M8.58 133.58h42.21v.4H8.58z" class="a13-cls-24" transform="rotate(-180 29.685 133.78)"/></g><path id="a13_apicoectomy" d="M22.16 38.15l7.34 11.67 7.34-11.67H22.16z" class="a13-cls-17" data-color-action="fill" style="fill:inherit"/><circle id="a13_abscess" cx="29.5" cy="42.65" r="6.5" class="a13-cls-37" data-color-action="fill" style="fill:inherit"/><g id="a13_blunted_roots" data-name="blunted roots"><path d="M2 22h55v68H2z" class="a13-cls-22" transform="rotate(-180 29.5 56)"/><path d="M2 90.08h55v2H2z" class="a13-cls-36" transform="rotate(-180 29.5 91.085)" data-color-action="fill" style="fill:inherit"/></g><path id="a13_root_amputation" d="M2 21.67h55v91.74H2z" class="a13-cls-22" transform="rotate(-180 29.5 67.54)" data-name="root amputation"/><path id="a13_missing_crown" d="M2 113.99h55v45.17H2z" class="a13-cls-22" transform="rotate(-180 29.5 136.58)" data-name="missing crown"/><g id="a13_missing_tooth" data-name="missing tooth"><path d="M39.3 116.81a4.33 4.33 0 0 0-1.52-1.52 197.07 197.07 0 0 1-4.66-31.22c-1.05-15.51-.1-35.56-1.93-36s-7.74 15.85-10.35 34.05c-1.47 10.28-2.66 28.51-3 34.1a2.32 2.32 0 0 0-.65.77c-1.61 3.44-4.88 22.1-4 25.32.64 2.42 14.16 10.51 16.56 10.6s15.73-6 16.23-9.51-3.75-21.31-6.68-26.59z" class="a13-cls-3"/><path d="M17.73 117.92s1.35-23.54 3.1-35.79c2.61-18.2 8.52-34.49 10.35-34.05s.88 20.49 1.93 36c1.29 19 4.83 31.06 5.26 34.21s-20.01 7.4-20.64-.37z" class="a13-cls-22"/><path d="M30.27 114.6a196 196 0 0 1-2.58-27.46c-.18-18.24 2-35.94 2.95-35.94s-1.84 15.3-.92 35.94C30.26 99.48 34 115 34 115zM23.68 67.48c-1 7.81-2.33 18.87-2.44 25.19-.19 10.51-.56 24.51-.56 24.51h-2.9c.24-4.07 1.48-24.09 3.06-35.05.74-5.13 1.74-10.13 2.84-14.65z" class="a13-cls-22"/><path d="M38 116.29l-.91.53s-3.87-11.24-5.34-31.14a151.42 151.42 0 0 1 .63-28.59c.2 7.34.14 17.94.75 27a201.57 201.57 0 0 0 4.87 32.2z" class="a13-cls-22"/><path d="M13.16 142.32c-.86-3.23 2.42-21.88 4-25.32s19.18-5.46 22.11-.18 7.15 23.11 6.65 26.59-13.81 9.59-16.21 9.51-15.91-8.18-16.55-10.6z" class="a13-cls-22"/><path d="M15.77 144.24c-.68-3.58 2.25-24.35 3.63-28.2a2.75 2.75 0 0 1 .68-1 5.1 5.1 0 0 0-2.9 1.94c-1.61 3.44-4.88 22.1-4 25.32.19.72 1.52 1.94 3.35 3.29a3.83 3.83 0 0 1-.76-1.35zM39.3 116.81a4.43 4.43 0 0 0-1.66-1.61 4 4 0 0 1 .2.4c2.39 5.84 5.71 25.61 5.25 29.49a5.38 5.38 0 0 1-1.34 2.54c2.29-1.48 4-3 4.21-4.24.49-3.47-3.73-21.3-6.66-26.58zM36.49 150.53a165.28 165.28 0 0 0-.88-19.9 146.57 146.57 0 0 0-2.36-16.8 26.29 26.29 0 0 0-3.88-.25c.64 3.07 1.43 9.21 2.19 17.23a95.8 95.8 0 0 1 0 21.73 40.13 40.13 0 0 0 4.93-2.01z" class="a13-cls-22"/></g><g id="a13_extracted_tooth" class="a13-msng-cls-10" data-name="extracted tooth"><path d="M9 108.83l41.67 41.66M50.67 108.83L9 150.49" class="a13-msng-cls-11" data-color-action="stroke" style="stroke:inherit"/></g><g id="a13_denture"><path d="M2 23.16h55v135.01H2z" class="a13-cls-22"/><path d="M57 100.22A22.63 22.63 0 0 0 44.78 97c-7.64 0-10 3.22-15.79 3.22S19.15 97 13.2 97A24.26 24.26 0 0 0 2 100.22v57.94h55z" class="a13-cls-30" data-color-action="fill" style="fill:inherit"/><path d="M13.16 142.32c-.86-3.23 2.42-21.88 4-25.32s19.18-5.46 22.11-.18 7.15 23.11 6.65 26.59-13.81 9.59-16.21 9.51-15.91-8.18-16.55-10.6z" class="a13-cls-3"/><path d="M13.16 142.32c-.86-3.23 2.42-21.88 4-25.32s19.18-5.46 22.11-.18 7.15 23.11 6.65 26.59-13.81 9.59-16.21 9.51-15.91-8.18-16.55-10.6z" class="a13-cls-7"/><path d="M15.77 144.24c-.68-3.58 2.25-24.35 3.63-28.2a2.75 2.75 0 0 1 .68-1 5.1 5.1 0 0 0-2.9 1.94c-1.61 3.44-4.88 22.1-4 25.32.19.72 1.52 1.94 3.35 3.29a3.83 3.83 0 0 1-.76-1.35zM39.3 116.81a4.43 4.43 0 0 0-1.66-1.61 4 4 0 0 1 .2.4c2.39 5.84 5.71 25.61 5.25 29.49a5.38 5.38 0 0 1-1.34 2.54c2.29-1.48 4-3 4.21-4.24.49-3.47-3.73-21.3-6.66-26.58z" class="a13-cls-8"/><path d="M36.49 150.53a165.28 165.28 0 0 0-.88-19.9 146.57 146.57 0 0 0-2.36-16.8 26.29 26.29 0 0 0-3.88-.25c.64 3.07 1.43 9.21 2.19 17.23a95.8 95.8 0 0 1 0 21.73 40.13 40.13 0 0 0 4.93-2.01z" class="a13-cls-9"/></g><g id="a13_maryland_bridge_pontic" class="a13-cls-15" data-name="maryland bridge pontic"><path d="M2 131.33h55V139H2z" class="a13-cls-20" transform="rotate(-180 29.5 135.165)" data-color-action="fill" style="fill:inherit"/><path d="M13.16 142.32c-.86-3.23 2.42-21.88 4-25.32s19.18-5.46 22.11-.18 7.15 23.11 6.65 26.59-13.81 9.59-16.21 9.51-15.91-8.18-16.55-10.6z" class="a13-cls-20" data-color-action="fill" style="fill:inherit"/></g><g id="a13_maryland_bridge_abutment_mesial" data-name="maryland bridge abutment mesial"><path d="M2 131.33h34.98V139H2z" class="a13-cls-15 a13-cls-20" transform="rotate(-180 19.49 135.165)" data-color-action="fill" style="fill:inherit"/><path d="M39.3 116.81a4.33 4.33 0 0 0-1.52-1.52 197.07 197.07 0 0 1-4.66-31.22c-1.05-15.51-.1-35.56-1.93-36s-7.74 15.85-10.35 34.05c-1.47 10.28-2.66 28.51-3 34.1a2.32 2.32 0 0 0-.65.77c-1.61 3.44-4.88 22.1-4 25.32.64 2.42 14.16 10.51 16.56 10.6s15.73-6 16.23-9.51-3.75-21.31-6.68-26.59z" class="a13-cls-3"/><path d="M17.73 117.92s1.35-23.54 3.1-35.79c2.61-18.2 8.52-34.49 10.35-34.05s.88 20.49 1.93 36c1.29 19 4.83 31.06 5.26 34.21s-20.01 7.4-20.64-.37z" class="a13-cls-4"/><path d="M30.27 114.6a196 196 0 0 1-2.58-27.46c-.18-18.24 2-35.94 2.95-35.94s-1.84 15.3-.92 35.94C30.26 99.48 34 115 34 115z" class="a13-cls-5"/><path d="M23.68 67.48c-1 7.81-2.33 18.87-2.44 25.19-.19 10.51-.56 24.51-.56 24.51h-2.9c.24-4.07 1.48-24.09 3.06-35.05.74-5.13 1.74-10.13 2.84-14.65zM38 116.29l-.91.53s-3.87-11.24-5.34-31.14a151.42 151.42 0 0 1 .63-28.59c.2 7.34.14 17.94.75 27a201.57 201.57 0 0 0 4.87 32.2z" class="a13-cls-6"/><path d="M13.16 142.32c-.86-3.23 2.42-21.88 4-25.32s19.18-5.46 22.11-.18 7.15 23.11 6.65 26.59-13.81 9.59-16.21 9.51-15.91-8.18-16.55-10.6z" class="a13-cls-7"/><path d="M15.77 144.24c-.68-3.58 2.25-24.35 3.63-28.2a2.75 2.75 0 0 1 .68-1 5.1 5.1 0 0 0-2.9 1.94c-1.61 3.44-4.88 22.1-4 25.32.19.72 1.52 1.94 3.35 3.29a3.83 3.83 0 0 1-.76-1.35zM39.3 116.81a4.43 4.43 0 0 0-1.66-1.61 4 4 0 0 1 .2.4c2.39 5.84 5.71 25.61 5.25 29.49a5.38 5.38 0 0 1-1.34 2.54c2.29-1.48 4-3 4.21-4.24.49-3.47-3.73-21.3-6.66-26.58z" class="a13-cls-8"/><path d="M36.49 150.53a165.28 165.28 0 0 0-.88-19.9 146.57 146.57 0 0 0-2.36-16.8 26.29 26.29 0 0 0-3.88-.25c.64 3.07 1.43 9.21 2.19 17.23a95.8 95.8 0 0 1 0 21.73 40.13 40.13 0 0 0 4.93-2.01z" class="a13-cls-9"/></g><g id="a13_maryland_bridge_abutment_distal" data-name="maryland bridge abutment distal"><path d="M22.02 131.33H57V139H22.02z" class="a13-cls-15 a13-cls-20" transform="rotate(-180 39.51 135.165)" data-color-action="fill" style="fill:inherit"/><path d="M39.3 116.81a4.33 4.33 0 0 0-1.52-1.52 197.07 197.07 0 0 1-4.66-31.22c-1.05-15.51-.1-35.56-1.93-36s-7.74 15.85-10.35 34.05c-1.47 10.28-2.66 28.51-3 34.1a2.32 2.32 0 0 0-.65.77c-1.61 3.44-4.88 22.1-4 25.32.64 2.42 14.16 10.51 16.56 10.6s15.73-6 16.23-9.51-3.75-21.31-6.68-26.59z" class="a13-cls-3"/><path d="M17.73 117.92s1.35-23.54 3.1-35.79c2.61-18.2 8.52-34.49 10.35-34.05s.88 20.49 1.93 36c1.29 19 4.83 31.06 5.26 34.21s-20.01 7.4-20.64-.37z" class="a13-cls-4"/><path d="M30.27 114.6a196 196 0 0 1-2.58-27.46c-.18-18.24 2-35.94 2.95-35.94s-1.84 15.3-.92 35.94C30.26 99.48 34 115 34 115z" class="a13-cls-5"/><path d="M23.68 67.48c-1 7.81-2.33 18.87-2.44 25.19-.19 10.51-.56 24.51-.56 24.51h-2.9c.24-4.07 1.48-24.09 3.06-35.05.74-5.13 1.74-10.13 2.84-14.65zM38 116.29l-.91.53s-3.87-11.24-5.34-31.14a151.42 151.42 0 0 1 .63-28.59c.2 7.34.14 17.94.75 27a201.57 201.57 0 0 0 4.87 32.2z" class="a13-cls-6"/><path d="M13.16 142.32c-.86-3.23 2.42-21.88 4-25.32s19.18-5.46 22.11-.18 7.15 23.11 6.65 26.59-13.81 9.59-16.21 9.51-15.91-8.18-16.55-10.6z" class="a13-cls-7"/><path d="M15.77 144.24c-.68-3.58 2.25-24.35 3.63-28.2a2.75 2.75 0 0 1 .68-1 5.1 5.1 0 0 0-2.9 1.94c-1.61 3.44-4.88 22.1-4 25.32.19.72 1.52 1.94 3.35 3.29a3.83 3.83 0 0 1-.76-1.35zM39.3 116.81a4.43 4.43 0 0 0-1.66-1.61 4 4 0 0 1 .2.4c2.39 5.84 5.71 25.61 5.25 29.49a5.38 5.38 0 0 1-1.34 2.54c2.29-1.48 4-3 4.21-4.24.49-3.47-3.73-21.3-6.66-26.58z" class="a13-cls-8"/><path d="M36.49 150.53a165.28 165.28 0 0 0-.88-19.9 146.57 146.57 0 0 0-2.36-16.8 26.29 26.29 0 0 0-3.88-.25c.64 3.07 1.43 9.21 2.19 17.23a95.8 95.8 0 0 1 0 21.73 40.13 40.13 0 0 0 4.93-2.01z" class="a13-cls-9"/></g><g id="a13_maryland_bridge_abutment" data-name="maryland bridge abutment"><path d="M2 131.33h55V139H2z" class="a13-cls-15 a13-cls-20" transform="rotate(-180 29.5 135.165)" data-color-action="fill" style="fill:inherit"/><path d="M39.3 116.81a4.33 4.33 0 0 0-1.52-1.52 197.07 197.07 0 0 1-4.66-31.22c-1.05-15.51-.1-35.56-1.93-36s-7.74 15.85-10.35 34.05c-1.47 10.28-2.66 28.51-3 34.1a2.32 2.32 0 0 0-.65.77c-1.61 3.44-4.88 22.1-4 25.32.64 2.42 14.16 10.51 16.56 10.6s15.73-6 16.23-9.51-3.75-21.31-6.68-26.59z" class="a13-cls-3"/><path d="M17.73 117.92s1.35-23.54 3.1-35.79c2.61-18.2 8.52-34.49 10.35-34.05s.88 20.49 1.93 36c1.29 19 4.83 31.06 5.26 34.21s-20.01 7.4-20.64-.37z" class="a13-cls-4"/><path d="M30.27 114.6a196 196 0 0 1-2.58-27.46c-.18-18.24 2-35.94 2.95-35.94s-1.84 15.3-.92 35.94C30.26 99.48 34 115 34 115z" class="a13-cls-5"/><path d="M23.68 67.48c-1 7.81-2.33 18.87-2.44 25.19-.19 10.51-.56 24.51-.56 24.51h-2.9c.24-4.07 1.48-24.09 3.06-35.05.74-5.13 1.74-10.13 2.84-14.65zM38 116.29l-.91.53s-3.87-11.24-5.34-31.14a151.42 151.42 0 0 1 .63-28.59c.2 7.34.14 17.94.75 27a201.57 201.57 0 0 0 4.87 32.2z" class="a13-cls-6"/><path d="M13.16 142.32c-.86-3.23 2.42-21.88 4-25.32s19.18-5.46 22.11-.18 7.15 23.11 6.65 26.59-13.81 9.59-16.21 9.51-15.91-8.18-16.55-10.6z" class="a13-cls-7"/><path d="M15.77 144.24c-.68-3.58 2.25-24.35 3.63-28.2a2.75 2.75 0 0 1 .68-1 5.1 5.1 0 0 0-2.9 1.94c-1.61 3.44-4.88 22.1-4 25.32.19.72 1.52 1.94 3.35 3.29a3.83 3.83 0 0 1-.76-1.35zM39.3 116.81a4.43 4.43 0 0 0-1.66-1.61 4 4 0 0 1 .2.4c2.39 5.84 5.71 25.61 5.25 29.49a5.38 5.38 0 0 1-1.34 2.54c2.29-1.48 4-3 4.21-4.24.49-3.47-3.73-21.3-6.66-26.58z" class="a13-cls-8"/><path d="M36.49 150.53a165.28 165.28 0 0 0-.88-19.9 146.57 146.57 0 0 0-2.36-16.8 26.29 26.29 0 0 0-3.88-.25c.64 3.07 1.43 9.21 2.19 17.23a95.8 95.8 0 0 1 0 21.73 40.13 40.13 0 0 0 4.93-2.01z" class="a13-cls-9"/></g><g id="a13_bridge_abutment_mesial" class="a13-cls-15" data-name="bridge abutment mesial"><path d="M13.16 142.32c-.86-3.23 2.42-21.88 4-25.32s19.18-5.46 22.11-.18 7.15 23.11 6.65 26.59-13.81 9.59-16.21 9.51-15.91-8.18-16.55-10.6z" class="a13-cls-18" data-color-action="fill" style="fill:inherit"/><path d="M2 131.33h34.98V139H2z" class="a13-cls-18" transform="rotate(-180 19.49 135.165)" data-color-action="fill" style="fill:inherit"/></g><g id="a13_bridge_abutment_distal" class="a13-cls-15" data-name="bridge abutment distal"><path d="M13.16 142.32c-.86-3.23 2.42-21.88 4-25.32s19.18-5.46 22.11-.18 7.15 23.11 6.65 26.59-13.81 9.59-16.21 9.51-15.91-8.18-16.55-10.6z" class="a13-cls-18" data-color-action="fill" style="fill:inherit"/><path d="M22.02 131.33H57V139H22.02z" class="a13-cls-18" transform="rotate(-180 39.51 135.165)" data-color-action="fill" style="fill:inherit"/></g><g id="a13_bridge_abutment" class="a13-cls-15" data-name="bridge abutment"><path d="M13.16 142.32c-.86-3.23 2.42-21.88 4-25.32s19.18-5.46 22.11-.18 7.15 23.11 6.65 26.59-13.81 9.59-16.21 9.51-15.91-8.18-16.55-10.6z" class="a13-cls-18" data-color-action="fill" style="fill:inherit"/><path d="M2 131.33h55V139H2z" class="a13-cls-18" transform="rotate(-180 29.5 135.165)" data-color-action="fill" style="fill:inherit"/></g><g id="a13_bridge_pontic" data-name="bridge pontic"><path d="M39.3 116.81a4.33 4.33 0 0 0-1.52-1.52 197.07 197.07 0 0 1-4.66-31.22c-1.05-15.51-.1-35.56-1.93-36s-7.74 15.85-10.35 34.05c-1.47 10.28-2.66 28.51-3 34.1a2.32 2.32 0 0 0-.65.77c-1.61 3.44-4.88 22.1-4 25.32.64 2.42 14.16 10.51 16.56 10.6s15.73-6 16.23-9.51-3.75-21.31-6.68-26.59z" class="a13-cls-3"/><path d="M17.73 117.92s1.35-23.54 3.1-35.79c2.61-18.2 8.52-34.49 10.35-34.05s.88 20.49 1.93 36c1.29 19 4.83 31.06 5.26 34.21s-20.01 7.4-20.64-.37z" class="a13-cls-22"/><path d="M30.27 114.6a196 196 0 0 1-2.58-27.46c-.18-18.24 2-35.94 2.95-35.94s-1.84 15.3-.92 35.94C30.26 99.48 34 115 34 115zM23.68 67.48c-1 7.81-2.33 18.87-2.44 25.19-.19 10.51-.56 24.51-.56 24.51h-2.9c.24-4.07 1.48-24.09 3.06-35.05.74-5.13 1.74-10.13 2.84-14.65z" class="a13-cls-22"/><path d="M38 116.29l-.91.53s-3.87-11.24-5.34-31.14a151.42 151.42 0 0 1 .63-28.59c.2 7.34.14 17.94.75 27a201.57 201.57 0 0 0 4.87 32.2z" class="a13-cls-22"/><path d="M13.16 142.32c-.86-3.23 2.42-21.88 4-25.32s19.18-5.46 22.11-.18 7.15 23.11 6.65 26.59-13.81 9.59-16.21 9.51-15.91-8.18-16.55-10.6z" class="a13-cls-7"/><path d="M15.77 144.24c-.68-3.58 2.25-24.35 3.63-28.2a2.75 2.75 0 0 1 .68-1 5.1 5.1 0 0 0-2.9 1.94c-1.61 3.44-4.88 22.1-4 25.32.19.72 1.52 1.94 3.35 3.29a3.83 3.83 0 0 1-.76-1.35zM39.3 116.81a4.43 4.43 0 0 0-1.66-1.61 4 4 0 0 1 .2.4c2.39 5.84 5.71 25.61 5.25 29.49a5.38 5.38 0 0 1-1.34 2.54c2.29-1.48 4-3 4.21-4.24.49-3.47-3.73-21.3-6.66-26.58z" class="a13-cls-8"/><path d="M36.49 150.53a165.28 165.28 0 0 0-.88-19.9 146.57 146.57 0 0 0-2.36-16.8 26.29 26.29 0 0 0-3.88-.25c.64 3.07 1.43 9.21 2.19 17.23a95.8 95.8 0 0 1 0 21.73 40.13 40.13 0 0 0 4.93-2.01z" class="a13-cls-9"/><g class="a13-cls-15"><path d="M13.16 142.32c-.86-3.23 2.42-21.88 4-25.32s19.18-5.46 22.11-.18 7.15 23.11 6.65 26.59-13.81 9.59-16.21 9.51-15.91-8.18-16.55-10.6z" class="a13-cls-18" data-color-action="fill" style="fill:inherit"/><path d="M2 131.33h55V139H2z" class="a13-cls-18" transform="rotate(-180 29.5 135.165)" data-color-action="fill" style="fill:inherit"/></g></g><g id="a13_implant_mini" data-name="implant mini"><path d="M1.61 22.04h55v137.17h-55z" class="a13-cls-22" transform="rotate(-180 29.115 90.625)"/><path d="M29.28 83.07h.44l1 8.49v40.84h-2.44V91.56l1-8.49z" class="a13-cls-18" data-color-action="fill" style="fill:inherit"/><path d="M29.58 83.07h.07l.4 8.49v40.84h-.37V91.56l-.1-8.49z" class="a13-cls-24"/><path d="M28.28 131.77h2.44v.63h-2.44z" class="a13-cls-27" transform="rotate(-180 29.5 132.085)" data-color-action="fill" style="fill:inherit"/><g class="a13-cls-28"><path d="M30.72 131.77l-2.44-1v.63l2.44 1v-.63zM30.72 130.32l-2.44-1v.63l2.44 1v-.63zM30.72 128.88l-2.44-1v.63l2.44 1v-.63zM30.72 127.43l-2.44-1v.63l2.44 1v-.63zM30.72 125.98l-2.44-1v.64l2.44 1v-.64zM30.72 124.54l-2.44-1v.63l2.44 1v-.63zM30.72 123.09l-2.44-1v.64l2.44 1v-.64zM30.72 121.65l-2.44-1v.63l2.44 1v-.63zM30.72 120.2l-2.44-1v.63l2.44 1.01v-.64zM30.72 118.76l-2.44-1v.63l2.44 1v-.63zM30.72 117.31l-2.44-1v.63l2.44 1v-.63zM30.72 115.87l-2.44-1v.63l2.44 1v-.63zM30.72 114.42l-2.44-1v.63l2.44 1v-.63zM30.72 112.98l-2.44-1v.63l2.44 1v-.63zM30.72 111.53l-2.44-1v.63l2.44 1v-.63zM30.72 110.08l-2.44-1v.64l2.44 1v-.64zM30.72 108.64l-2.44-1v.63l2.44 1v-.63zM30.72 107.19l-2.44-1v.64l2.44 1v-.64zM30.72 105.75l-2.44-1v.63l2.44 1v-.63zM30.72 104.3l-2.44-1v.64l2.44 1v-.64zM30.72 102.86l-2.44-1v.63l2.44 1v-.63zM30.72 101.41l-2.44-1v.63l2.44 1.01v-.64zM30.72 99.97l-2.44-1v.63l2.44 1v-.63zM30.72 98.52l-2.44-1v.63l2.44 1v-.63zM30.72 97.08l-2.44-1v.63l2.44 1v-.63zM30.72 95.63l-2.44-1v.63l2.44 1v-.63zM30.72 94.19l-2.44-1v.63l2.44 1v-.63zM30.72 92.74l-2.44-1v.63l2.44 1v-.63zM30.72 91.56l-.03-.28-2.27-.93-.07.61 2.37.97v-.37zM30.51 89.76l-1.93-.79-.07.61 2.08.85-.08-.67zM30.33 88.24l-1.58-.65-.08.61 1.74.71-.08-.67zM30.15 86.72l-1.24-.5-.07.6 1.39.57-.08-.67zM29.97 85.21l-.9-.37-.07.6 1.05.43-.08-.66zM29.8 83.69l-.57-.23-.07.6.71.29-.07-.66z" class="a13-cls-27" data-color-action="fill" style="fill:inherit"/></g><circle cx="29.5" cy="136.27" r="2.24" class="a13-cls-18" data-color-action="fill" style="fill:inherit"/><path d="M27.67 132.06h3.67v3h-3.67z" class="a13-cls-18" transform="rotate(-180 29.5 133.555)" data-color-action="fill" style="fill:inherit"/><path d="M29.96 132.06h.55v3h-.55z" class="a13-cls-24"/><path d="M30.3 137.63h.21a2.32 2.32 0 0 0 .52-1.29 2.37 2.37 0 0 0-.52-1.3H30a2 2 0 0 1 .73 1.37 1.5 1.5 0 0 1-.43 1.22z" class="a13-cls-24"/><path d="M28.28 125.7h2.44v.63h-2.44z" class="a13-cls-27" transform="rotate(-180 29.5 126.015)" data-color-action="fill" style="fill:inherit"/><path d="M26.89 132.08h5.22l-.87-5.71h-3.48l-.87 5.71z" class="a13-cls-18" data-color-action="fill" style="fill:inherit"/><path d="M30.15 132.08h.79l-.48-5.71h-.53l.22 5.71z" class="a13-cls-24"/></g><g id="a13_implant_cylinder" data-name="implant cylinder"><path d="M2 22h55v137.17H2z" class="a13-cls-22" transform="rotate(-180 29.5 90.585)"/><path d="M26.17 86.01h6.67v49.33h-6.67z" class="a13-cls-18" transform="rotate(-180 29.5 110.68)" data-color-action="fill" style="fill:inherit"/><path d="M24.5 135.35h10v3h-10z" class="a13-cls-18" transform="rotate(-180 29.5 136.845)" data-color-action="fill" style="fill:inherit"/><path d="M30 86.01h1v49.33h-1z" class="a13-cls-24" transform="rotate(-180 30.5 110.68)"/><path d="M30.75 135.35h1.5v3h-1.5z" class="a13-cls-24" transform="rotate(-180 31.5 136.845)"/><path d="M24.5 82.99h10v3h-10z" class="a13-cls-18" transform="rotate(-180 29.5 84.485)" data-color-action="fill" style="fill:inherit"/><path d="M30.75 82.99h1.5v3h-1.5z" class="a13-cls-24" transform="rotate(-180 31.5 84.485)"/><path d="M26.17 134.71h6.67v.63h-6.67z" class="a13-cls-27" transform="rotate(-180 29.5 135.03)" data-color-action="fill" style="fill:inherit"/><path d="M26.17 86.01h6.67v.63h-6.67z" class="a13-cls-27" transform="rotate(-180 29.5 86.33)" data-color-action="fill" style="fill:inherit"/><g class="a13-cls-28"><path d="M26.17 87.65l6.66-1.01v-.63l-6.66 1v.64zM26.17 89.09l6.66-1v-.63l-6.66 1v.63zM26.17 90.54l6.66-1v-.64l-6.66 1.01v.63zM26.17 91.98l6.66-1v-.63l-6.66 1v.63zM26.17 93.43l6.66-1v-.63l-6.66 1v.63zM26.17 94.87l6.66-1v-.63l-6.66 1v.63zM26.17 96.32l6.66-1v-.63l-6.66 1v.63zM26.17 97.76l6.66-1v-.63l-6.66 1v.63zM26.17 99.21l6.66-1v-.63l-6.66 1v.63zM26.17 100.66l6.66-1.01v-.63l-6.66 1v.64zM26.17 102.1l6.66-1v-.63l-6.66 1v.63zM26.17 103.55l6.66-1v-.64l-6.66 1v.64zM26.17 104.99l6.66-1v-.63l-6.66 1v.63zM26.17 106.44l6.66-1v-.64l-6.66 1.01v.63zM26.17 107.88l6.66-1v-.63l-6.66 1v.63zM26.17 109.33l6.66-1v-.64l-6.66 1v.64zM26.17 110.77l6.66-1v-.63l-6.66 1v.63zM26.17 112.22l6.66-1v-.63l-6.66 1v.63zM26.17 113.66l6.66-1v-.63l-6.66 1v.63zM26.17 115.11l6.66-1v-.63l-6.66 1v.63zM26.17 116.56l6.66-1.01v-.63l-6.66 1v.64zM26.17 118l6.66-1v-.63l-6.66 1v.63zM26.17 119.45l6.66-1.01v-.63l-6.66 1v.64zM26.17 120.89l6.66-1v-.63l-6.66 1v.63zM26.17 122.34l6.66-1v-.64l-6.66 1v.64zM26.17 123.78l6.66-1v-.63l-6.66 1v.63zM26.17 125.23l6.66-1v-.64l-6.66 1v.64zM26.17 126.67l6.66-1v-.63l-6.66 1v.63zM26.17 128.12l6.66-1v-.63l-6.66 1v.63zM26.17 129.56l6.66-1v-.63l-6.66 1v.63zM26.17 131.01l6.66-1v-.63l-6.66 1v.63zM26.17 132.46l6.66-1.01v-.63l-6.66 1v.64zM26.17 133.9l6.66-1v-.63l-6.66 1v.63zM26.17 135.35l6.66-1.01v-.63l-6.66 1v.64z" class="a13-cls-27" data-color-action="fill" style="fill:inherit"/></g></g><g id="a13_implant_blade" data-name="implant blade"><path d="M2 22h55v137.17H2z" class="a13-cls-22" transform="rotate(-180 29.5 90.585)"/><path d="M26.17 86.01h6.67v49.33h-6.67z" class="a13-cls-18" transform="rotate(-180 29.5 110.68)" data-color-action="fill" style="fill:inherit"/><path d="M24.5 135.35h10v3h-10z" class="a13-cls-18" transform="rotate(-180 29.5 136.845)" data-color-action="fill" style="fill:inherit"/><path d="M30 86.01h1v49.33h-1z" class="a13-cls-24" transform="rotate(-180 30.5 110.68)"/><path d="M30.75 135.35h1.5v3h-1.5z" class="a13-cls-24" transform="rotate(-180 31.5 136.845)"/><path d="M26.17 134.71h6.67v.63h-6.67z" class="a13-cls-27" transform="rotate(-180 29.5 135.03)" data-color-action="fill" style="fill:inherit"/></g><path id="a13_watch_tooth" d="M8.27 27.73a3.26 3.26 0 0 1 3.22-3.26 3.24 3.24 0 1 1 0 6.47 3.25 3.25 0 0 1-3.22-3.21zm1-5.91L8.39 3.73h6.15l-.8 18.09z" class="a13-cls-11" data-color-action="fill" style="fill:inherit" data-name="watch tooth"/><path id="a13_border" d="M0 0h59v161H0z" class="a13-cls-14" transform="rotate(-180 29.5 80.5)"/></defs></g><g class="b13-cls-1" transform="translate(0 161)"><g id="_13B" data-name="#13B"><path d="M14.79 18c1.35-1.19 10.9-6.72 15.45-6.91 3.81-.15 15.45 7.63 16 10.72s-1.51 13-2.54 15.81c-1.45 4-4.54 7.09-14 7.27-6.56.11-15.1-3.62-16-6.89-1.07-3.85-2-17.27 1.09-20z" class="b13-cls-2"/><path d="M14.79 18c1.35-1.19 10.9-6.72 15.45-6.91 3.81-.15 15.45 7.63 16 10.72s-1.51 13-2.54 15.81c-1.45 4-4.54 7.09-14 7.27-6.56.11-15.1-3.62-16-6.89-1.07-3.85-2-17.27 1.09-20z" class="b13-cls-3"/><path d="M21 22.91c-.71.57 3.09 4.18 1.64 4.54s-5.63-1.09-5.27-.36 2.73 1.09 2.73 1.82-2.36 3.82-1.45 3.82S21.69 30 22.24 30s-1.27 4.91-.73 4.91S23.87 30 24.6 30s6.54-.18 7.45.18.73 3.09 1.64 2.91.36-2.54 1.09-2.73 3.63 4.18 4.36 3.63-1.82-5.09-2-5.82 3.82-2.54 3.45-3.27-3.59 1.65-4.18 1.28.18-2.73-.55-2.54-.91 3.27-3.45 3.82-5.63 1.82-6.72.55-3.82-5.83-4.69-5.1z" class="b13-cls-4"/><path d="M46.23 21.82c-.55-3.09-12.18-10.88-16-10.72-4.54.18-14.1 5.72-15.45 6.91-.84.74-1.38 2.28-1.71 4.2a8.94 8.94 0 0 1 3.93-3.3c2.91-1.09 9.27-4.54 12.18-4.18S43 19.82 44.23 21.82a15.92 15.92 0 0 1 1.92 3.87 15.8 15.8 0 0 0 .08-3.87z" class="b13-cls-5"/><path d="M29.69 42.54c-2.91.18-8-1.45-11.09-2.18a15.86 15.86 0 0 1-4.82-2.16c1.22 3.22 9.49 6.8 15.91 6.7 8.41-.16 11.77-2.63 13.44-6A13.66 13.66 0 0 1 40 40.54a52.41 52.41 0 0 1-10.31 2z" class="b13-cls-4"/></g><defs><g id="b13_splinted_crowns" data-name="splinted crowns"><path d="M28 1.25h3v3h-3z" class="b13-cls-7" transform="rotate(-180 29.5 2.75)"/><path d="M28 1.25h3v3h-3z" class="b13-cls-7" transform="rotate(-180 29.5 2.75)"/><path d="M28 1.25h3v3h-3z" class="b13-cls-7" transform="rotate(-180 29.5 2.75)"/></g><path id="b13_line_angle_4" d="M23.39 44c-4.76-1.28-9.07-3.78-9.7-6.05l-.1-.38 16.1-6.35z" class="b13-cls-6" data-color-action="fill" style="fill:inherit" data-name="line angle 4"/><path id="b13_cusp_2" d="M36.06 44.14a28.13 28.13 0 0 1-6.37.76 23.13 23.13 0 0 1-6.3-.85l6.3-12.79z" class="b13-cls-6" data-color-action="fill" style="fill:inherit" data-name="cusp 2"/><path id="b13_line_angle_3" d="M44.14 36.17c-.16.58-.32 1.08-.45 1.46-1.06 2.91-3 5.34-7.62 6.51l-6.38-12.88z" class="b13-cls-6" data-color-action="fill" style="fill:inherit" data-name="line angle 3"/><path id="b13_mesial" d="M13.08 22.26a11.44 11.44 0 0 1 3.2 6.74c.15 2.37-1.15 5-2.92 7.47a49.6 49.6 0 0 1-.28-14.21z" class="b13-cls-6" data-color-action="fill" style="fill:inherit"/><path id="b13_mesial_pit" d="M13.08 22.26c0-.22.07-.45.12-.66l15.92 5.85.58 3.81-16.1 6.35c-.08-.34-.16-.74-.24-1.18 1.77-2.43 3.06-5.09 2.92-7.43a11.44 11.44 0 0 0-3.2-6.74z" class="b13-cls-6" data-color-action="fill" style="fill:inherit" data-name="mesial pit"/><path id="b13_distal_pit" d="M45.8 20.84a2.84 2.84 0 0 1 .43 1 9.55 9.55 0 0 0-4.35 6.35c-.59 3 .76 5.78 2.29 7.91v.1l-14.48-4.94-.58-3.81z" class="b13-cls-6" data-color-action="fill" style="fill:inherit" data-name="distal pit"/><path id="b13_distal" d="M41.87 28.16a9.55 9.55 0 0 1 4.35-6.35c.47 2.66-1 10.35-2.06 14.25-1.53-2.11-2.87-4.93-2.29-7.9z" class="b13-cls-6" data-color-action="fill" style="fill:inherit"/><path id="b13_line_angle_2" d="M22.7 13.51l6.42 13.95-15.93-5.86a6.66 6.66 0 0 1 1.6-3.6 48.11 48.11 0 0 1 7.91-4.49z" class="b13-cls-6" data-color-action="fill" style="fill:inherit" data-name="line angle 2"/><path id="b13_cusp_1" d="M22.7 13.51c2.74-1.28 5.6-2.33 7.54-2.41 1.39-.06 3.82.95 6.37 2.39l-7.5 14z" class="b13-cls-6" data-color-action="fill" style="fill:inherit" data-name="cusp 1"/><path id="b13_line_angle_1" d="M36.61 13.49c3.79 2.14 7.86 5.26 9.19 7.35l-16.69 6.61z" class="b13-cls-6" data-color-action="fill" style="fill:inherit" data-name="line angle 1"/><g id="b13_veneer"><path d="M28 1.25h3v3h-3z" class="b13-cls-7" transform="rotate(-180 29.5 2.75)"/><path d="M28 1.25h3v3h-3z" class="b13-cls-7" transform="rotate(-180 29.5 2.75)"/><path d="M28 1.25h3v3h-3z" class="b13-cls-7" transform="rotate(-180 29.5 2.75)"/></g><g id="b13_tissue_graft" data-name="tissue graft"><path d="M28 1.25h3v3h-3z" class="b13-cls-7" transform="rotate(-180 29.5 2.75)"/><path d="M28 1.25h3v3h-3z" class="b13-cls-7" transform="rotate(-180 29.5 2.75)"/><path d="M28 1.25h3v3h-3z" class="b13-cls-7" transform="rotate(-180 29.5 2.75)"/></g><path id="b13_surface_restoration_lingual" d="M19.21 38.06a22 22 0 0 0 10.15 2.84h.25c4.49-.09 6.92-.88 8.31-1.85l3.8 2c-2 2.24-5.51 3.75-12 3.88C24.47 45 18 42.63 15.12 40z" class="b13-cls-8" data-color-action="fill" style="fill:inherit" data-name="surface restoration lingual"/><path id="b13_surface_restoration_mesial" d="M17.54 20.92c-1.2 2.13-1.06 11.88 0 15.83a6.16 6.16 0 0 0 1.71 1.31L15.12 40a4.61 4.61 0 0 1-1.42-2c-1.07-3.84-2-17.27 1.09-20l.26-.2 3.61 2.38c-.47.29-.86.55-1.12.74z" class="b13-cls-8" data-color-action="fill" style="fill:inherit" data-name="surface restoration mesial"/><path id="b13_surface_restoration_occlusal" d="M30.31 15.09c2.36.19 10.45 5.43 12 7.73.15 2.42-1.37 10.61-2.4 13.44-.61 1.67-1.62 4.47-10.31 4.64h-.25c-5.26 0-10.9-2.85-11.86-4.15-1-3.95-1.16-13.7 0-15.83 1.93-1.41 9.91-5.71 12.82-5.83z" class="b13-cls-8" data-color-action="fill" style="fill:inherit" data-name="surface restoration occlusal"/><path id="b13_surface_restoration_distal" d="M39.92 36.26c1-2.83 2.55-11 2.4-13.44A15.23 15.23 0 0 0 39.21 20l3.42-2.38c2 1.62 3.41 3.19 3.6 4.23.55 3.09-1.51 13-2.54 15.81a10.14 10.14 0 0 1-2 3.39l-3.8-2a5.18 5.18 0 0 0 2.03-2.79z" class="b13-cls-8" data-color-action="fill" style="fill:inherit" data-name="surface restoration distal"/><path id="b13_surface_restoration_buccal" d="M30.31 15.09c-2.5.1-8.76 3.3-11.65 5.09L15 17.8c2-1.5 10.86-6.53 15.19-6.7 2.53-.1 8.51 3.29 12.4 6.49L39.21 20c-3.05-2.31-7.3-4.78-8.9-4.91z" class="b13-cls-8" data-color-action="fill" style="fill:inherit" data-name="surface restoration buccal"/><g id="b13_supra-erupted"><path d="M28 1.25h3v3h-3z" class="b13-cls-7" transform="rotate(-180 29.5 2.75)"/><path d="M28 1.25h3v3h-3z" class="b13-cls-7" transform="rotate(-180 29.5 2.75)"/><path d="M28 1.25h3v3h-3z" class="b13-cls-7" transform="rotate(-180 29.5 2.75)"/></g><g id="b13_sub-erupted"><path d="M28 1.25h3v3h-3z" class="b13-cls-7" transform="rotate(-180 29.5 2.75)"/><path d="M28 1.25h3v3h-3z" class="b13-cls-7" transform="rotate(-180 29.5 2.75)"/><path d="M28 1.25h3v3h-3z" class="b13-cls-7" transform="rotate(-180 29.5 2.75)"/></g><text id="b13_sealant" class="b13-cls-9" transform="translate(19.7 39.47)" data-color-action="fill" style="fill:inherit">S</text><g id="b13_root_decay" data-name="root decay"><path d="M28 1.25h3v3h-3z" class="b13-cls-7" transform="rotate(-180 29.5 2.75)"/><path d="M28 1.25h3v3h-3z" class="b13-cls-7" transform="rotate(-180 29.5 2.75)"/><path d="M28 1.25h3v3h-3z" class="b13-cls-7" transform="rotate(-180 29.5 2.75)"/></g><g id="b13_root_canal" data-name="root canal"><path d="M28 1.25h3v3h-3z" class="b13-cls-7" transform="rotate(-180 29.5 2.75)"/><path d="M28 1.25h3v3h-3z" class="b13-cls-7" transform="rotate(-180 29.5 2.75)"/><path d="M28 1.25h3v3h-3z" class="b13-cls-7" transform="rotate(-180 29.5 2.75)"/></g><g id="b13_root_abrasion" data-name="root abrasion"><path d="M28 1.25h3v3h-3z" class="b13-cls-7" transform="rotate(-180 29.5 2.75)"/><path d="M28 1.25h3v3h-3z" class="b13-cls-7" transform="rotate(-180 29.5 2.75)"/><path d="M28 1.25h3v3h-3z" class="b13-cls-7" transform="rotate(-180 29.5 2.75)"/></g><g id="b13_post"><path d="M28 1.25h3v3h-3z" class="b13-cls-7" transform="rotate(-180 29.5 2.75)"/><path d="M28 1.25h3v3h-3z" class="b13-cls-7" transform="rotate(-180 29.5 2.75)"/><path d="M28 1.25h3v3h-3z" class="b13-cls-7" transform="rotate(-180 29.5 2.75)"/></g><g id="b13_pins"><path d="M28 1.25h3v3h-3z" class="b13-cls-7" transform="rotate(-180 29.5 2.75)"/><path d="M28 1.25h3v3h-3z" class="b13-cls-7" transform="rotate(-180 29.5 2.75)"/><path d="M28 1.25h3v3h-3z" class="b13-cls-7" transform="rotate(-180 29.5 2.75)"/></g><g id="b13_open_contact_mesial" data-name="open contact mesial"><path d="M28 1.25h3v3h-3z" class="b13-cls-7" transform="rotate(-180 29.5 2.75)"/><path d="M28 1.25h3v3h-3z" class="b13-cls-7" transform="rotate(-180 29.5 2.75)"/><path d="M28 1.25h3v3h-3z" class="b13-cls-7" transform="rotate(-180 29.5 2.75)"/></g><g id="b13_open_contact_distal" data-name="open contact distal"><path d="M28 1.25h3v3h-3z" class="b13-cls-7" transform="rotate(-180 29.5 2.75)"/><path d="M28 1.25h3v3h-3z" class="b13-cls-7" transform="rotate(-180 29.5 2.75)"/><path d="M28 1.25h3v3h-3z" class="b13-cls-7" transform="rotate(-180 29.5 2.75)"/></g><g id="b13_lingual_abfraction" data-name="lingual abfraction"><path d="M28 1.25h3v3h-3z" class="b13-cls-7" transform="rotate(-180 29.5 2.75)"/><path d="M28 1.25h3v3h-3z" class="b13-cls-7" transform="rotate(-180 29.5 2.75)"/><path d="M28 1.25h3v3h-3z" class="b13-cls-7" transform="rotate(-180 29.5 2.75)"/></g><g id="b13_internal_root_resorption" data-name="internal root resorption"><path d="M28 1.25h3v3h-3z" class="b13-cls-7" transform="rotate(-180 29.5 2.75)"/><path d="M28 1.25h3v3h-3z" class="b13-cls-7" transform="rotate(-180 29.5 2.75)"/><path d="M28 1.25h3v3h-3z" class="b13-cls-7" transform="rotate(-180 29.5 2.75)"/></g><g id="b13_gortex_membranes" data-name="gortex membranes"><path d="M28 1.25h3v3h-3z" class="b13-cls-7" transform="rotate(-180 29.5 2.75)"/><path d="M28 1.25h3v3h-3z" class="b13-cls-7" transform="rotate(-180 29.5 2.75)"/><path d="M28 1.25h3v3h-3z" class="b13-cls-7" transform="rotate(-180 29.5 2.75)"/></g><g id="b13_frenum_pull" data-name="frenum pull"><path d="M28 1.25h3v3h-3z" class="b13-cls-7" transform="rotate(-180 29.5 2.75)"/><path d="M28 1.25h3v3h-3z" class="b13-cls-7" transform="rotate(-180 29.5 2.75)"/><path d="M28 1.25h3v3h-3z" class="b13-cls-7" transform="rotate(-180 29.5 2.75)"/></g><g id="b13_external_root_resorption" data-name="external root resorption"><path d="M28 1.25h3v3h-3z" class="b13-cls-7" transform="rotate(-180 29.5 2.75)"/><path d="M28 1.25h3v3h-3z" class="b13-cls-7" transform="rotate(-180 29.5 2.75)"/><path d="M28 1.25h3v3h-3z" class="b13-cls-7" transform="rotate(-180 29.5 2.75)"/></g><path id="b13_three_quarter_crown" d="M14.79 18c1.35-1.19 10.9-6.72 15.45-6.91 3.81-.15 15.45 7.63 16 10.72s-1.51 13-2.54 15.81c-1.45 4-4.54 7.09-14 7.27-6.56.11-15.1-3.62-16-6.89-1.07-3.85-2-17.27 1.09-20z" class="b13-cls-11 b13-cls-15" data-color-action="fill" style="fill:inherit" data-name="three quarter crown"/><path id="b13_crown" d="M14.79 18c1.35-1.19 10.9-6.72 15.45-6.91 3.81-.15 15.45 7.63 16 10.72s-1.51 13-2.54 15.81c-1.45 4-4.54 7.09-14 7.27-6.56.11-15.1-3.62-16-6.89-1.07-3.85-2-17.27 1.09-20z" class="b13-cls-11 b13-cls-15" data-color-action="fill" style="fill:inherit"/><path id="b13_cracked_surface_occlusal" d="M28.17 22.74l3.84 3.83H27l5 4.75h-5l3.83 3.83" class="b13-cls-16" data-color-action="stroke" style="stroke:inherit" data-name="cracked surface occlusal"/><g id="b13_chipped_surface_occlusal" class="b13-cls-11" data-name="chipped surface occlusal"><path d="M25.67 24.41L34 32.75M34 24.41l-8.33 8.34" class="b13-cls-17" data-color-action="stroke" style="stroke:inherit"/></g><g id="b13_buccal_abfraction" data-name="buccal abfraction"><path d="M28 1.25h3v3h-3z" class="b13-cls-7" transform="rotate(-180 29.5 2.75)"/><path d="M28 1.25h3v3h-3z" class="b13-cls-7" transform="rotate(-180 29.5 2.75)"/><path d="M28 1.25h3v3h-3z" class="b13-cls-7" transform="rotate(-180 29.5 2.75)"/></g><g id="b13_braces"><path d="M28 1.25h3v3h-3z" class="b13-cls-7" transform="rotate(-180 29.5 2.75)"/><path d="M28 1.25h3v3h-3z" class="b13-cls-7" transform="rotate(-180 29.5 2.75)"/><path d="M28 1.25h3v3h-3z" class="b13-cls-7" transform="rotate(-180 29.5 2.75)"/></g><g id="b13_apicoectomy"><path d="M28 1.25h3v3h-3z" class="b13-cls-7" transform="rotate(-180 29.5 2.75)"/><path d="M28 1.25h3v3h-3z" class="b13-cls-7" transform="rotate(-180 29.5 2.75)"/><path d="M28 1.25h3v3h-3z" class="b13-cls-7" transform="rotate(-180 29.5 2.75)"/></g><g id="b13_abscess"><path d="M28 1.25h3v3h-3z" class="b13-cls-7" transform="rotate(-180 29.5 2.75)"/><path d="M28 1.25h3v3h-3z" class="b13-cls-7" transform="rotate(-180 29.5 2.75)"/><path d="M28 1.25h3v3h-3z" class="b13-cls-7" transform="rotate(-180 29.5 2.75)"/></g><g id="b13_blunted_roots" data-name="blunted roots"><path d="M28 1.25h3v3h-3z" class="b13-cls-7" transform="rotate(-180 29.5 2.75)"/><path d="M28 1.25h3v3h-3z" class="b13-cls-7" transform="rotate(-180 29.5 2.75)"/><path d="M28 1.25h3v3h-3z" class="b13-cls-7" transform="rotate(-180 29.5 2.75)"/></g><g id="b13_root_amputation" data-name="root amputation"><path d="M28 1.25h3v3h-3z" class="b13-cls-7" transform="rotate(-180 29.5 2.75)"/><path d="M28 1.25h3v3h-3z" class="b13-cls-7" transform="rotate(-180 29.5 2.75)"/><path d="M28 1.25h3v3h-3z" class="b13-cls-7" transform="rotate(-180 29.5 2.75)"/></g><path id="b13_missing_crown" d="M2 2.02h55v51.77H2z" class="b13-cls-10" transform="rotate(-180 29.5 27.905)" data-name="missing crown"/><g id="b13_missing_tooth" data-name="missing tooth"><path d="M14.79 18c1.35-1.19 10.9-6.72 15.45-6.91 3.81-.15 15.45 7.63 16 10.72s-1.51 13-2.54 15.81c-1.45 4-4.54 7.09-14 7.27-6.56.11-15.1-3.62-16-6.89-1.07-3.85-2-17.27 1.09-20z" class="b13-cls-2"/><path d="M14.79 18c1.35-1.19 10.9-6.72 15.45-6.91 3.81-.15 15.45 7.63 16 10.72s-1.51 13-2.54 15.81c-1.45 4-4.54 7.09-14 7.27-6.56.11-15.1-3.62-16-6.89-1.07-3.85-2-17.27 1.09-20z" class="b13-cls-10"/><path d="M21 22.91c-.71.57 3.09 4.18 1.64 4.54s-5.63-1.09-5.27-.36 2.73 1.09 2.73 1.82-2.36 3.82-1.45 3.82S21.69 30 22.24 30s-1.27 4.91-.73 4.91S23.87 30 24.6 30s6.54-.18 7.45.18.73 3.09 1.64 2.91.36-2.54 1.09-2.73 3.63 4.18 4.36 3.63-1.82-5.09-2-5.82 3.82-2.54 3.45-3.27-3.59 1.65-4.18 1.28.18-2.73-.55-2.54-.91 3.27-3.45 3.82-5.63 1.82-6.72.55-3.82-5.83-4.69-5.1z" class="b13-cls-10"/><path d="M46.23 21.82c-.55-3.09-12.18-10.88-16-10.72-4.54.18-14.1 5.72-15.45 6.91-.84.74-1.38 2.28-1.71 4.2a8.94 8.94 0 0 1 3.93-3.3c2.91-1.09 9.27-4.54 12.18-4.18S43 19.82 44.23 21.82a15.92 15.92 0 0 1 1.92 3.87 15.8 15.8 0 0 0 .08-3.87zM29.69 42.54c-2.91.18-8-1.45-11.09-2.18a15.86 15.86 0 0 1-4.82-2.16c1.22 3.22 9.49 6.8 15.91 6.7 8.41-.16 11.77-2.63 13.44-6A13.66 13.66 0 0 1 40 40.54a52.41 52.41 0 0 1-10.31 2z" class="b13-cls-10"/></g><g id="b13_maryland_bridge_pontic" class="b13-cls-11" data-name="maryland bridge pontic"><path d="M2 24.17h20.42v7.67H2zM36.58 24.17H57v7.67H36.58z" class="b13-cls-12" data-color-action="fill" style="fill:inherit"/><path d="M14.79 18c1.35-1.19 10.9-6.72 15.45-6.91 3.81-.15 15.45 7.63 16 10.72s-1.51 13-2.54 15.81c-1.45 4-4.54 7.09-14 7.27-6.56.11-15.1-3.62-16-6.89-1.07-3.85-2-17.27 1.09-20z" class="b13-cls-12" data-color-action="fill" style="fill:inherit"/></g><g id="b13_maryland_bridge_abutment_mesial" data-name="maryland bridge abutment mesial"><g class="b13-cls-11"><path d="M2 24.17h20.42v7.67H2z" class="b13-cls-12" data-color-action="fill" style="fill:inherit"/><ellipse cx="21.19" cy="28" class="b13-cls-12" rx="5.61" ry="12.9" data-color-action="fill" style="fill:inherit"/></g><path d="M14.79 18c1.35-1.19 10.9-6.72 15.45-6.91 3.81-.15 15.45 7.63 16 10.72s-1.51 13-2.54 15.81c-1.45 4-4.54 7.09-14 7.27-6.56.11-15.1-3.62-16-6.89-1.07-3.85-2-17.27 1.09-20z" class="b13-cls-2"/><path d="M14.79 18c1.35-1.19 10.9-6.72 15.45-6.91 3.81-.15 15.45 7.63 16 10.72s-1.51 13-2.54 15.81c-1.45 4-4.54 7.09-14 7.27-6.56.11-15.1-3.62-16-6.89-1.07-3.85-2-17.27 1.09-20z" class="b13-cls-3"/><path d="M21 22.91c-.71.57 3.09 4.18 1.64 4.54s-5.63-1.09-5.27-.36 2.73 1.09 2.73 1.82-2.36 3.82-1.45 3.82S21.69 30 22.24 30s-1.27 4.91-.73 4.91S23.87 30 24.6 30s6.54-.18 7.45.18.73 3.09 1.64 2.91.36-2.54 1.09-2.73 3.63 4.18 4.36 3.63-1.82-5.09-2-5.82 3.82-2.54 3.45-3.27-3.59 1.65-4.18 1.28.18-2.73-.55-2.54-.91 3.27-3.45 3.82-5.63 1.82-6.72.55-3.82-5.83-4.69-5.1z" class="b13-cls-4"/><path d="M46.23 21.82c-.55-3.09-12.18-10.88-16-10.72-4.54.18-14.1 5.72-15.45 6.91-.84.74-1.38 2.28-1.71 4.2a8.94 8.94 0 0 1 3.93-3.3c2.91-1.09 9.27-4.54 12.18-4.18S43 19.82 44.23 21.82a15.92 15.92 0 0 1 1.92 3.87 15.8 15.8 0 0 0 .08-3.87z" class="b13-cls-5"/><path d="M29.69 42.54c-2.91.18-8-1.45-11.09-2.18a15.86 15.86 0 0 1-4.82-2.16c1.22 3.22 9.49 6.8 15.91 6.7 8.41-.16 11.77-2.63 13.44-6A13.66 13.66 0 0 1 40 40.54a52.41 52.41 0 0 1-10.31 2z" class="b13-cls-4"/></g><g id="b13_maryland_bridge_abutment_distal" data-name="maryland bridge abutment distal"><g class="b13-cls-11"><path d="M36.58 24.17H57v7.67H36.58z" class="b13-cls-12" data-color-action="fill" style="fill:inherit"/><ellipse cx="37.81" cy="28" class="b13-cls-12" rx="5.61" ry="12.9" data-color-action="fill" style="fill:inherit"/></g><path d="M14.79 18c1.35-1.19 10.9-6.72 15.45-6.91 3.81-.15 15.45 7.63 16 10.72s-1.51 13-2.54 15.81c-1.45 4-4.54 7.09-14 7.27-6.56.11-15.1-3.62-16-6.89-1.07-3.85-2-17.27 1.09-20z" class="b13-cls-2"/><path d="M14.79 18c1.35-1.19 10.9-6.72 15.45-6.91 3.81-.15 15.45 7.63 16 10.72s-1.51 13-2.54 15.81c-1.45 4-4.54 7.09-14 7.27-6.56.11-15.1-3.62-16-6.89-1.07-3.85-2-17.27 1.09-20z" class="b13-cls-3"/><path d="M21 22.91c-.71.57 3.09 4.18 1.64 4.54s-5.63-1.09-5.27-.36 2.73 1.09 2.73 1.82-2.36 3.82-1.45 3.82S21.69 30 22.24 30s-1.27 4.91-.73 4.91S23.87 30 24.6 30s6.54-.18 7.45.18.73 3.09 1.64 2.91.36-2.54 1.09-2.73 3.63 4.18 4.36 3.63-1.82-5.09-2-5.82 3.82-2.54 3.45-3.27-3.59 1.65-4.18 1.28.18-2.73-.55-2.54-.91 3.27-3.45 3.82-5.63 1.82-6.72.55-3.82-5.83-4.69-5.1z" class="b13-cls-4"/><path d="M46.23 21.82c-.55-3.09-12.18-10.88-16-10.72-4.54.18-14.1 5.72-15.45 6.91-.84.74-1.38 2.28-1.71 4.2a8.94 8.94 0 0 1 3.93-3.3c2.91-1.09 9.27-4.54 12.18-4.18S43 19.82 44.23 21.82a15.92 15.92 0 0 1 1.92 3.87 15.8 15.8 0 0 0 .08-3.87z" class="b13-cls-5"/><path d="M29.69 42.54c-2.91.18-8-1.45-11.09-2.18a15.86 15.86 0 0 1-4.82-2.16c1.22 3.22 9.49 6.8 15.91 6.7 8.41-.16 11.77-2.63 13.44-6A13.66 13.66 0 0 1 40 40.54a52.41 52.41 0 0 1-10.31 2z" class="b13-cls-4"/></g><g id="b13_maryland_bridge_abutment" data-name="maryland bridge abutment"><g class="b13-cls-11"><path d="M2 24.17h20.42v7.67H2zM36.58 24.17H57v7.67H36.58z" class="b13-cls-12" data-color-action="fill" style="fill:inherit"/><ellipse cx="37.81" cy="28" class="b13-cls-12" rx="5.61" ry="12.9" data-color-action="fill" style="fill:inherit"/><ellipse cx="21.19" cy="28" class="b13-cls-12" rx="5.61" ry="12.9" data-color-action="fill" style="fill:inherit"/></g><path d="M14.79 18c1.35-1.19 10.9-6.72 15.45-6.91 3.81-.15 15.45 7.63 16 10.72s-1.51 13-2.54 15.81c-1.45 4-4.54 7.09-14 7.27-6.56.11-15.1-3.62-16-6.89-1.07-3.85-2-17.27 1.09-20z" class="b13-cls-2"/><path d="M14.79 18c1.35-1.19 10.9-6.72 15.45-6.91 3.81-.15 15.45 7.63 16 10.72s-1.51 13-2.54 15.81c-1.45 4-4.54 7.09-14 7.27-6.56.11-15.1-3.62-16-6.89-1.07-3.85-2-17.27 1.09-20z" class="b13-cls-3"/><path d="M21 22.91c-.71.57 3.09 4.18 1.64 4.54s-5.63-1.09-5.27-.36 2.73 1.09 2.73 1.82-2.36 3.82-1.45 3.82S21.69 30 22.24 30s-1.27 4.91-.73 4.91S23.87 30 24.6 30s6.54-.18 7.45.18.73 3.09 1.64 2.91.36-2.54 1.09-2.73 3.63 4.18 4.36 3.63-1.82-5.09-2-5.82 3.82-2.54 3.45-3.27-3.59 1.65-4.18 1.28.18-2.73-.55-2.54-.91 3.27-3.45 3.82-5.63 1.82-6.72.55-3.82-5.83-4.69-5.1z" class="b13-cls-4"/><path d="M46.23 21.82c-.55-3.09-12.18-10.88-16-10.72-4.54.18-14.1 5.72-15.45 6.91-.84.74-1.38 2.28-1.71 4.2a8.94 8.94 0 0 1 3.93-3.3c2.91-1.09 9.27-4.54 12.18-4.18S43 19.82 44.23 21.82a15.92 15.92 0 0 1 1.92 3.87 15.8 15.8 0 0 0 .08-3.87z" class="b13-cls-5"/><path d="M29.69 42.54c-2.91.18-8-1.45-11.09-2.18a15.86 15.86 0 0 1-4.82-2.16c1.22 3.22 9.49 6.8 15.91 6.7 8.41-.16 11.77-2.63 13.44-6A13.66 13.66 0 0 1 40 40.54a52.41 52.41 0 0 1-10.31 2z" class="b13-cls-4"/></g><path id="b13_bridge_abutment" d="M14.79 18c1.35-1.19 10.9-6.72 15.45-6.91 3.81-.15 15.45 7.63 16 10.72s-1.51 13-2.54 15.81c-1.45 4-4.54 7.09-14 7.27-6.56.11-15.1-3.62-16-6.89-1.07-3.85-2-17.27 1.09-20z" class="b13-cls-11 b13-cls-13" data-color-action="fill" style="fill:inherit" data-name="bridge abutment"/><path id="b13_bridge_pontic" d="M14.79 18c1.35-1.19 10.9-6.72 15.45-6.91 3.81-.15 15.45 7.63 16 10.72s-1.51 13-2.54 15.81c-1.45 4-4.54 7.09-14 7.27-6.56.11-15.1-3.62-16-6.89-1.07-3.85-2-17.27 1.09-20z" class="b13-cls-11 b13-cls-13" data-color-action="fill" style="fill:inherit" data-name="bridge pontic"/><g id="b13_implant_mini" data-name="implant mini"><path d="M2 2.02h55v51.77H2z" class="b13-cls-10" transform="rotate(-180 29.5 27.905)"/><circle cx="29.5" cy="28" r="2.61" class="b13-cls-13" data-color-action="fill" style="fill:inherit"/></g><g id="b13_implant_cylinder" data-name="implant cylinder"><path d="M2 2.02h55v51.77H2z" class="b13-cls-10" transform="rotate(-180 29.5 27.905)"/><circle cx="29.5" cy="28" r="5" class="b13-cls-13" data-color-action="fill" style="fill:inherit"/><path d="M34.5 28a5 5 0 0 1-.09.89h-9.82a4.46 4.46 0 0 1 0-1.78h9.82a5 5 0 0 1 .09.89z" class="b13-cls-14" data-color-action="fill" style="fill:inherit"/></g><g id="b13_implant_blade" data-name="implant blade"><path d="M2 2.02h55v51.77H2z" class="b13-cls-10" transform="rotate(-180 29.5 27.905)"/><circle cx="29.5" cy="28" r="5" class="b13-cls-13" data-color-action="fill" style="fill:inherit"/></g><g id="b13_border"><path d="M0 0h59v56H0z" class="b13-cls-7" transform="rotate(-180 29.5 28)"/><path d="M0 0h59v56H0z" class="b13-cls-7"/></g></defs></g><g class="c13-cls-1" transform="translate(0 217)"><g id="_13C" data-name="#13C"><path d="M13.16 21.42c-.86 3.23 2.42 21.88 4 25.32s19.18 5.46 22.11.18 7.15-23.11 6.65-26.59-13.84-9.61-16.23-9.51S13.8 19 13.16 21.42z" class="c13-cls-2"/><path d="M13.16 21.42c-.86 3.23 2.42 21.88 4 25.32s19.18 5.46 22.11.18 7.15-23.11 6.65-26.59-13.84-9.61-16.23-9.51S13.8 19 13.16 21.42z" class="c13-cls-3"/><path d="M15.51 21.33c1.94-1.4 11.88-7.88 14.09-7.68s12.48 4.34 14 6.48a21.81 21.81 0 0 1 2.12 3.73 15.08 15.08 0 0 0 .21-3.53c-.5-3.48-13.84-9.61-16.23-9.51S13.8 19 13.16 21.42a14.58 14.58 0 0 0 0 3.9 6.59 6.59 0 0 1 2.35-3.99z" class="c13-cls-4"/><path d="M18.39 45.43a10.51 10.51 0 0 1-2.14-1.63 19.53 19.53 0 0 0 .94 2.94c1.61 3.44 19.18 5.46 22.11.18a25.08 25.08 0 0 0 1.42-3.23C39 45 34.46 46.42 30.13 46.9a30.72 30.72 0 0 1-11.74-1.47z" class="c13-cls-5"/></g><defs><g id="c13_splinted_crowns" data-name="splinted crowns"><path d="M2 48.09h55v7.67H2z" class="c13-cls-12" transform="rotate(-180 29.5 51.92)" data-color-action="fill" style="fill:inherit"/><path d="M13.16 21.42c-.86 3.23 2.42 21.88 4 25.32s19.18 5.46 22.11.18 7.15-23.11 6.65-26.59-13.84-9.61-16.23-9.51S13.8 19 13.16 21.42z" class="c13-cls-2"/><path d="M13.16 21.42c-.86 3.23 2.42 21.88 4 25.32s19.18 5.46 22.11.18 7.15-23.11 6.65-26.59-13.84-9.61-16.23-9.51S13.8 19 13.16 21.42z" class="c13-cls-3"/><path d="M15.51 21.33c1.94-1.4 11.88-7.88 14.09-7.68s12.48 4.34 14 6.48a21.81 21.81 0 0 1 2.12 3.73 15.08 15.08 0 0 0 .21-3.53c-.5-3.48-13.84-9.61-16.23-9.51S13.8 19 13.16 21.42a14.58 14.58 0 0 0 0 3.9 6.59 6.59 0 0 1 2.35-3.99z" class="c13-cls-4"/><path d="M18.39 45.43a10.51 10.51 0 0 1-2.14-1.63 19.53 19.53 0 0 0 .94 2.94c1.61 3.44 19.18 5.46 22.11.18a25.08 25.08 0 0 0 1.42-3.23C39 45 34.46 46.42 30.13 46.9a30.72 30.72 0 0 1-11.74-1.47z" class="c13-cls-5"/></g><path id="c13_lingual_V" d="M36.43 49.11a17.38 17.38 0 0 0-17.34-.84c3.91 1.86 12.58 2.73 17.34.84z" class="c13-cls-6" data-color-action="fill" style="fill:inherit" data-name="lingual V"/><ellipse id="c13_lingual" cx="28.99" cy="34.2" class="c13-cls-6" rx="3.96" ry="6.97" data-color-action="fill" style="fill:inherit"/><path id="c13_mesial" d="M17.27 30.92a17 17 0 0 1 .68-4.41l-4.75-5.2v.1c-.45 1.71.25 7.75 1.26 13.57a4.64 4.64 0 0 0 2.81-4.06z" class="c13-cls-6" data-color-action="fill" style="fill:inherit"/><path id="c13_line_angle_4" d="M24.79 21l-1.74-7.12c-4.38 2.53-9.28 5.93-9.85 7.43l4.75 5.2c.94-2.97 2.97-4.75 6.84-5.51z" class="c13-cls-6" data-color-action="fill" style="fill:inherit" data-name="line angle 4"/><path id="c13_cusp_2" d="M29.85 20.56a17.69 17.69 0 0 1 4.6.5l2.61-7.57c-3.22-1.58-6.31-2.71-7.35-2.67s-3.71 1.35-6.66 3.06L24.79 21a27.27 27.27 0 0 1 5.06-.44z" class="c13-cls-6" data-color-action="fill" style="fill:inherit" data-name="cusp 2"/><path id="c13_line_angle_3" d="M40.26 26.54l5.33-7.07c-1.15-1.88-4.91-4.21-8.53-6l-2.61 7.57a7.67 7.67 0 0 1 5.81 5.5z" class="c13-cls-6" data-color-action="fill" style="fill:inherit" data-name="line angle 3"/><path id="c13_distal" d="M45.94 20.33a2.34 2.34 0 0 0-.35-.86l-5.33 7.07a23.52 23.52 0 0 1 .87 5 3.78 3.78 0 0 0 2.33 3.21c1.59-6.18 2.76-12.49 2.48-14.42z" class="c13-cls-6" data-color-action="fill" style="fill:inherit"/><g id="c13_veneer"><path d="M28 1.25h3v3h-3z" class="c13-cls-7" transform="rotate(-180 29.5 2.75)"/><path d="M28 1.25h3v3h-3z" class="c13-cls-7" transform="rotate(-180 29.5 2.75)"/><path d="M28 1.25h3v3h-3z" class="c13-cls-7" transform="rotate(-180 29.5 2.75)"/></g><g id="c13_tissue_graft" data-name="tissue graft"><path d="M28 1.25h3v3h-3z" class="c13-cls-7" transform="rotate(-180 29.5 2.75)"/><path d="M28 1.25h3v3h-3z" class="c13-cls-7" transform="rotate(-180 29.5 2.75)"/><path d="M28 1.25h3v3h-3z" class="c13-cls-7" transform="rotate(-180 29.5 2.75)"/></g><g id="c13_tipped_lingual" class="c13-cls-8" data-name="tipped lingual"><path d="M28.65 7.93c1.26-3.37 4.74-3.85 7.69 5.32.5 1.56 4.42 1.76 3.84 0C38.16 7.15 34.86 3 31.11 4a4.86 4.86 0 0 0-3 3.38c.2.15.43.41.54.55z" class="c13-cls-9" data-color-action="fill" style="fill:inherit"/><path d="M30.73 10.85h12.94l-2.94 9.64-10-9.64z" class="c13-cls-9" data-color-action="fill" style="fill:inherit"/></g><g id="c13_tipped_facial" data-name="tipped facial"><path d="M28 1.25h3v3h-3z" class="c13-cls-7" transform="rotate(-180 29.5 2.75)"/><path d="M28 1.25h3v3h-3z" class="c13-cls-7" transform="rotate(-180 29.5 2.75)"/><path d="M28 1.25h3v3h-3z" class="c13-cls-7" transform="rotate(-180 29.5 2.75)"/></g><path id="c13_surface_restoration_distal" d="M38.92 22.59c-.39 3.09-1.71 13.36-3.13 21.21a11.51 11.51 0 0 1 6.67-5.24c2.09-7.12 3.87-15.88 3.54-18.21a5.47 5.47 0 0 0-2.2-2.8l-6.4 4.06c.6.33 1.09.67 1.52.98z" class="c13-cls-10" data-color-action="fill" style="fill:inherit" data-name="surface restoration distal"/><path id="c13_surface_restoration_lingual" d="M34.48 47.26a11.51 11.51 0 0 1 1.31-3.46c1.42-7.85 2.73-18.12 3.13-21.21a44.34 44.34 0 0 0-8.8-4.52 67.64 67.64 0 0 0-10 6.14c.16 2.9 1 12.69 1.82 20.05A11.59 11.59 0 0 1 22.8 47a11.94 11.94 0 0 1 11.68.3z" class="c13-cls-8 c13-cls-11" data-color-action="fill" style="fill:inherit" data-name="surface restoration lingual"/><path id="c13_surface_restoration_lingual_V" d="M23 49.49a30.34 30.34 0 0 0 11.19.25v-.16a11.32 11.32 0 0 1 .26-2.32A11.94 11.94 0 0 0 22.8 47a11.28 11.28 0 0 1 .25 2.29c0 .04-.05.12-.05.2z" class="c13-cls-8 c13-cls-11" data-color-action="fill" style="fill:inherit" data-name="surface restoration lingual V"/><path id="c13_surface_restoration_mesial" d="M13.21 21.43c-.54 2 .57 10.24 1.86 16.87a11.52 11.52 0 0 1 6.84 6c-.85-7.36-1.66-17.15-1.82-20.05.4-.31.87-.66 1.39-1l-6.33-4a6.09 6.09 0 0 0-1.94 2.18z" class="c13-cls-10" data-color-action="fill" style="fill:inherit" data-name="surface restoration mesial"/><path id="c13_surface_restoration_occlusal" d="M15.14 19.24l6.33 4a70.27 70.27 0 0 1 8.64-5.12 47.45 47.45 0 0 1 7.27 3.53l6.4-4.06c-4-3.24-12.2-6.79-14-6.72s-10.67 5.05-14.64 8.37z" class="c13-cls-10" data-color-action="fill" style="fill:inherit" data-name="surface restoration occlusal"/><g id="c13_supra-erupted"><path d="M28 1.25h3v3h-3z" class="c13-cls-7" transform="rotate(-180 29.5 2.75)"/><path d="M28 1.25h3v3h-3z" class="c13-cls-7" transform="rotate(-180 29.5 2.75)"/><path d="M28 1.25h3v3h-3z" class="c13-cls-7" transform="rotate(-180 29.5 2.75)"/></g><g id="c13_sub-erupted"><path d="M28 1.25h3v3h-3z" class="c13-cls-7" transform="rotate(-180 29.5 2.75)"/><path d="M28 1.25h3v3h-3z" class="c13-cls-7" transform="rotate(-180 29.5 2.75)"/><path d="M28 1.25h3v3h-3z" class="c13-cls-7" transform="rotate(-180 29.5 2.75)"/></g><g id="c13_sealant"><path d="M28 1.25h3v3h-3z" class="c13-cls-7" transform="rotate(-180 29.5 2.75)"/><path d="M28 1.25h3v3h-3z" class="c13-cls-7" transform="rotate(-180 29.5 2.75)"/><path d="M28 1.25h3v3h-3z" class="c13-cls-7" transform="rotate(-180 29.5 2.75)"/></g><g id="c13_root_decay" data-name="root decay"><path d="M28 1.25h3v3h-3z" class="c13-cls-7" transform="rotate(-180 29.5 2.75)"/><path d="M28 1.25h3v3h-3z" class="c13-cls-7" transform="rotate(-180 29.5 2.75)"/><path d="M28 1.25h3v3h-3z" class="c13-cls-7" transform="rotate(-180 29.5 2.75)"/></g><g id="c13_root_canal" data-name="root canal"><path d="M28 1.25h3v3h-3z" class="c13-cls-7" transform="rotate(-180 29.5 2.75)"/><path d="M28 1.25h3v3h-3z" class="c13-cls-7" transform="rotate(-180 29.5 2.75)"/><path d="M28 1.25h3v3h-3z" class="c13-cls-7" transform="rotate(-180 29.5 2.75)"/></g><g id="c13_root_abrasion" data-name="root abrasion"><path d="M28 1.25h3v3h-3z" class="c13-cls-7" transform="rotate(-180 29.5 2.75)"/><path d="M28 1.25h3v3h-3z" class="c13-cls-7" transform="rotate(-180 29.5 2.75)"/><path d="M28 1.25h3v3h-3z" class="c13-cls-7" transform="rotate(-180 29.5 2.75)"/></g><g id="c13_open_contact_mesial" data-name="open contact mesial"><path d="M28 1.25h3v3h-3z" class="c13-cls-7" transform="rotate(-180 29.5 2.75)"/><path d="M28 1.25h3v3h-3z" class="c13-cls-7" transform="rotate(-180 29.5 2.75)"/><path d="M28 1.25h3v3h-3z" class="c13-cls-7" transform="rotate(-180 29.5 2.75)"/></g><g id="c13_open_contact_distal" data-name="open contact distal"><path d="M28 1.25h3v3h-3z" class="c13-cls-7" transform="rotate(-180 29.5 2.75)"/><path d="M28 1.25h3v3h-3z" class="c13-cls-7" transform="rotate(-180 29.5 2.75)"/><path d="M28 1.25h3v3h-3z" class="c13-cls-7" transform="rotate(-180 29.5 2.75)"/></g><path id="c13_lingual_abfraction" d="M16.7 50.84S22 55 28.5 55s11.8-4.16 11.8-4.16-5.3-4.16-11.8-4.16-11.8 4.16-11.8 4.16z" class="c13-cls-15" data-color-action="fill" style="fill:inherit" data-name="lingual abfraction"/><g id="c13_internal_root_resorption" data-name="internal root resorption"><path d="M28 1.25h3v3h-3z" class="c13-cls-7" transform="rotate(-180 29.5 2.75)"/><path d="M28 1.25h3v3h-3z" class="c13-cls-7" transform="rotate(-180 29.5 2.75)"/><path d="M28 1.25h3v3h-3z" class="c13-cls-7" transform="rotate(-180 29.5 2.75)"/></g><g id="c13_gortex_membranes" data-name="gortex membranes"><path d="M28 1.25h3v3h-3z" class="c13-cls-7" transform="rotate(-180 29.5 2.75)"/><path d="M28 1.25h3v3h-3z" class="c13-cls-7" transform="rotate(-180 29.5 2.75)"/><path d="M28 1.25h3v3h-3z" class="c13-cls-7" transform="rotate(-180 29.5 2.75)"/></g><g id="c13_frenum_pull" data-name="frenum pull"><path d="M28 1.25h3v3h-3z" class="c13-cls-7" transform="rotate(-180 29.5 2.75)"/><path d="M28 1.25h3v3h-3z" class="c13-cls-7" transform="rotate(-180 29.5 2.75)"/><path d="M28 1.25h3v3h-3z" class="c13-cls-7" transform="rotate(-180 29.5 2.75)"/></g><g id="c13_external_root_resorption" data-name="external root resorption"><path d="M28 1.25h3v3h-3z" class="c13-cls-7" transform="rotate(-180 29.5 2.75)"/><path d="M28 1.25h3v3h-3z" class="c13-cls-7" transform="rotate(-180 29.5 2.75)"/><path d="M28 1.25h3v3h-3z" class="c13-cls-7" transform="rotate(-180 29.5 2.75)"/></g><path id="c13_three_quarter_crown" d="M13.83 31.38c-.67-4.53-1-8.61-.68-10C13.8 19 27.32 10.91 29.71 10.82s15.73 6 16.23 9.51c.23 1.58-.51 6.09-1.66 11z" class="c13-cls-8 c13-cls-19" data-color-action="fill" style="fill:inherit" data-name="three quarter crown"/><path id="c13_crown" d="M13.16 21.42c-.86 3.23 2.42 21.88 4 25.32s19.18 5.46 22.11.18 7.15-23.11 6.65-26.59-13.84-9.61-16.23-9.51S13.8 19 13.16 21.42z" class="c13-cls-8 c13-cls-19" data-color-action="fill" style="fill:inherit"/><path id="c13_cracked_surface_distal" d="M41.34 23.74l3.83 3.83h-5.01l5.01 4.75h-5.01l3.83 3.83" class="c13-cls-20" data-color-action="stroke" style="stroke:inherit" data-name="cracked surface distal"/><path id="c13_cracked_surface_lingual" d="M28.17 23.74l3.84 3.83H27l5 4.75h-5l3.83 3.83" class="c13-cls-20" data-color-action="stroke" style="stroke:inherit" data-name="cracked surface lingual"/><path id="c13_cracked_surface_lingual_V" d="M28.17 23.74l3.84 3.83H27l5 4.75h-5l3.83 3.83" class="c13-cls-20" data-color-action="stroke" style="stroke:inherit" data-name="cracked surface lingual V"/><path id="c13_cracked_surface_mesial" d="M14.34 23.74l3.83 3.83h-5l5 4.75h-5L17 36.15" class="c13-cls-20" data-color-action="stroke" style="stroke:inherit" data-name="cracked surface mesial"/><g id="c13_chipped_surface_distal" class="c13-cls-8" data-name="chipped surface distal"><path d="M37.83 25.41l8.33 8.34M46.16 25.41l-8.33 8.34" class="c13-cls-21" data-color-action="stroke" style="stroke:inherit"/></g><g id="c13_chipped_surface_lingual" class="c13-cls-8" data-name="chipped surface lingual"><path d="M25.67 25.41L34 33.75M34 25.41l-8.33 8.34" class="c13-cls-21" data-color-action="stroke" style="stroke:inherit"/></g><g id="c13_chipped_surface_lingual_V" class="c13-cls-8" data-name="chipped surface lingual V"><path d="M25.67 25.41L34 33.75M34 25.41l-8.33 8.34" class="c13-cls-21" data-color-action="stroke" style="stroke:inherit"/></g><g id="c13_chipped_surface_mesial" class="c13-cls-8" data-name="chipped surface mesial"><path d="M12.67 25.41L21 33.75M21 25.41l-8.33 8.34" class="c13-cls-21" data-color-action="stroke" style="stroke:inherit"/></g><g id="c13_buccal_abfraction" data-name="buccal abfraction"><path d="M28 1.25h3v3h-3z" class="c13-cls-7" transform="rotate(-180 29.5 2.75)"/><path d="M28 1.25h3v3h-3z" class="c13-cls-7" transform="rotate(-180 29.5 2.75)"/><path d="M28 1.25h3v3h-3z" class="c13-cls-7" transform="rotate(-180 29.5 2.75)"/></g><g id="c13_braces"><path d="M28 1.25h3v3h-3z" class="c13-cls-7" transform="rotate(-180 29.5 2.75)"/><path d="M28 1.25h3v3h-3z" class="c13-cls-7" transform="rotate(-180 29.5 2.75)"/><path d="M28 1.25h3v3h-3z" class="c13-cls-7" transform="rotate(-180 29.5 2.75)"/></g><g id="c13_apicoectomy"><path d="M28 1.25h3v3h-3z" class="c13-cls-7" transform="rotate(-180 29.5 2.75)"/><path d="M28 1.25h3v3h-3z" class="c13-cls-7" transform="rotate(-180 29.5 2.75)"/><path d="M28 1.25h3v3h-3z" class="c13-cls-7" transform="rotate(-180 29.5 2.75)"/></g><g id="c13_abscess"><path d="M28 1.25h3v3h-3z" class="c13-cls-7" transform="rotate(-180 29.5 2.75)"/><path d="M28 1.25h3v3h-3z" class="c13-cls-7" transform="rotate(-180 29.5 2.75)"/><path d="M28 1.25h3v3h-3z" class="c13-cls-7" transform="rotate(-180 29.5 2.75)"/></g><g id="c13_blunted_roots" data-name="blunted roots"><path d="M28 1.25h3v3h-3z" class="c13-cls-7" transform="rotate(-180 29.5 2.75)"/><path d="M28 1.25h3v3h-3z" class="c13-cls-7" transform="rotate(-180 29.5 2.75)"/><path d="M28 1.25h3v3h-3z" class="c13-cls-7" transform="rotate(-180 29.5 2.75)"/></g><g id="c13_root_amputation" data-name="root amputation"><path d="M28 1.25h3v3h-3z" class="c13-cls-7" transform="rotate(-180 29.5 2.75)"/><path d="M28 1.25h3v3h-3z" class="c13-cls-7" transform="rotate(-180 29.5 2.75)"/><path d="M28 1.25h3v3h-3z" class="c13-cls-7" transform="rotate(-180 29.5 2.75)"/></g><g id="c13_missing_crown" data-name="missing crown"><path d="M28 1.25h3v3h-3z" class="c13-cls-7" transform="rotate(-180 29.5 2.75)"/><path d="M28 1.25h3v3h-3z" class="c13-cls-7" transform="rotate(-180 29.5 2.75)"/><path d="M28 1.25h3v3h-3z" class="c13-cls-7" transform="rotate(-180 29.5 2.75)"/><path d="M2 2.02h55V64H2z" class="c13-cls-13" transform="rotate(-180 29.5 33.01)"/></g><g id="c13_missing_tooth" data-name="missing tooth"><path d="M13.16 21.42c-.86 3.23 2.42 21.88 4 25.32s19.18 5.46 22.11.18 7.15-23.11 6.65-26.59-13.84-9.61-16.23-9.51S13.8 19 13.16 21.42z" class="c13-cls-2"/><path d="M13.16 21.42c-.86 3.23 2.42 21.88 4 25.32s19.18 5.46 22.11.18 7.15-23.11 6.65-26.59-13.84-9.61-16.23-9.51S13.8 19 13.16 21.42z" class="c13-cls-13"/><path d="M15.51 21.33c1.94-1.4 11.88-7.88 14.09-7.68s12.48 4.34 14 6.48a21.81 21.81 0 0 1 2.12 3.73 15.08 15.08 0 0 0 .21-3.53c-.5-3.48-13.84-9.61-16.23-9.51S13.8 19 13.16 21.42a14.58 14.58 0 0 0 0 3.9 6.59 6.59 0 0 1 2.35-3.99zM18.39 45.43a10.51 10.51 0 0 1-2.14-1.63 19.53 19.53 0 0 0 .94 2.94c1.61 3.44 19.18 5.46 22.11.18a25.08 25.08 0 0 0 1.42-3.23C39 45 34.46 46.42 30.13 46.9a30.72 30.72 0 0 1-11.74-1.47z" class="c13-cls-13"/></g><g id="c13_maryland_bridge_pontic" class="c13-cls-8" data-name="maryland bridge pontic"><path d="M2 27.96h55v7.67H2z" class="c13-cls-14" transform="rotate(-180 29.5 31.795)" data-color-action="fill" style="fill:inherit"/><path d="M13.16 21.42c-.86 3.23 2.42 21.88 4 25.32s19.18 5.46 22.11.18 7.15-23.11 6.65-26.59-13.84-9.61-16.23-9.51S13.8 19 13.16 21.42z" class="c13-cls-14" data-color-action="fill" style="fill:inherit"/></g><g id="c13_maryland_bridge_abutment_mesial" class="c13-cls-8" data-name="maryland bridge abutment mesial"><path d="M2 28.17h20.42v7.67H2z" class="c13-cls-14" data-color-action="fill" style="fill:inherit"/><ellipse cx="21.19" cy="32" class="c13-cls-14" rx="5.61" ry="12.9" data-color-action="fill" style="fill:inherit"/></g><g id="c13_maryland_bridge_abutment_distal" class="c13-cls-8" data-name="maryland bridge abutment distal"><path d="M36.58 28.17H57v7.67H36.58z" class="c13-cls-14" data-color-action="fill" style="fill:inherit"/><ellipse cx="37.81" cy="32" class="c13-cls-14" rx="5.61" ry="12.9" data-color-action="fill" style="fill:inherit"/></g><g id="c13_maryland_bridge_abutment" class="c13-cls-8" data-name="maryland bridge abutment"><path d="M2 28.17h20.42v7.67H2zM36.58 28.17H57v7.67H36.58z" class="c13-cls-14" data-color-action="fill" style="fill:inherit"/><ellipse cx="37.81" cy="32" class="c13-cls-14" rx="5.61" ry="12.9" data-color-action="fill" style="fill:inherit"/><ellipse cx="21.19" cy="32" class="c13-cls-14" rx="5.61" ry="12.9" data-color-action="fill" style="fill:inherit"/></g><g id="c13_bridge_abutment_mesial" class="c13-cls-8" data-name="bridge abutment mesial"><path d="M13.16 21.42c-.86 3.23 2.42 21.88 4 25.32s19.18 5.46 22.11.18 7.15-23.11 6.65-26.59-13.84-9.61-16.23-9.51S13.8 19 13.16 21.42z" class="c13-cls-11" data-color-action="fill" style="fill:inherit"/><path d="M2 27.74h34.98v7.67H2z" class="c13-cls-11" transform="rotate(-180 19.49 31.57)" data-color-action="fill" style="fill:inherit"/></g><g id="c13_bridge_abutment_distal" class="c13-cls-8" data-name="bridge abutment distal"><path d="M13.16 21.42c-.86 3.23 2.42 21.88 4 25.32s19.18 5.46 22.11.18 7.15-23.11 6.65-26.59-13.84-9.61-16.23-9.51S13.8 19 13.16 21.42z" class="c13-cls-11" data-color-action="fill" style="fill:inherit"/><path d="M22.02 27.74H57v7.67H22.02z" class="c13-cls-11" transform="rotate(-180 39.51 31.57)" data-color-action="fill" style="fill:inherit"/></g><g id="c13_bridge_abutment" class="c13-cls-8" data-name="bridge abutment"><path d="M13.16 21.42c-.86 3.23 2.42 21.88 4 25.32s19.18 5.46 22.11.18 7.15-23.11 6.65-26.59-13.84-9.61-16.23-9.51S13.8 19 13.16 21.42z" class="c13-cls-11" data-color-action="fill" style="fill:inherit"/><path d="M2 27.74h55v7.67H2z" class="c13-cls-11" transform="rotate(-180 29.5 31.57)" data-color-action="fill" style="fill:inherit"/></g><g id="c13_bridge_pontic" class="c13-cls-8" data-name="bridge pontic"><path d="M13.16 21.42c-.86 3.23 2.42 21.88 4 25.32s19.18 5.46 22.11.18 7.15-23.11 6.65-26.59-13.84-9.61-16.23-9.51S13.8 19 13.16 21.42z" class="c13-cls-11" data-color-action="fill" style="fill:inherit"/><path d="M2 27.74h55v7.67H2z" class="c13-cls-11" transform="rotate(-180 29.5 31.57)" data-color-action="fill" style="fill:inherit"/></g><g id="c13_implant_mini" data-name="implant mini"><path d="M2 2.02h55V64H2z" class="c13-cls-13" transform="rotate(-180 29.5 33.01)"/><path d="M29.28 66h.44l1-8.5V16.67h-2.44V57.5l1 8.5z" class="c13-cls-11" data-color-action="fill" style="fill:inherit"/><path d="M29.58 66h.07l.4-8.5V16.67h-.37V57.5l-.1 8.5z" class="c13-cls-16"/><path d="M28.28 16.67h2.44v.63h-2.44z" class="c13-cls-17" transform="rotate(-180 29.5 16.985)" data-color-action="fill" style="fill:inherit"/><g class="c13-cls-18"><path d="M30.72 17.3l-2.44 1v-.63l2.44-1v.63zM30.72 18.75l-2.44 1v-.64l2.44-1v.64zM30.72 20.19l-2.44 1v-.63l2.44-1v.63zM30.72 21.64l-2.44 1V22l2.44-1v.64zM30.72 23.08l-2.44 1v-.63l2.44-1v.63zM30.72 24.53l-2.44 1v-.64l2.44-1v.64zM30.72 25.97l-2.44 1v-.63l2.44-1v.63zM30.72 27.42l-2.44 1v-.63l2.44-1v.63zM30.72 28.86l-2.44 1v-.63l2.44-1v.63zM30.72 30.31l-2.44 1v-.63l2.44-1v.63zM30.72 31.75l-2.44 1.01v-.64l2.44-1v.63zM30.72 33.2l-2.44 1v-.63l2.44-1v.63zM30.72 34.65l-2.44 1v-.64l2.44-1v.64zM30.72 36.09l-2.44 1v-.63l2.44-1v.63zM30.72 37.54l-2.44 1v-.64l2.44-1v.64zM30.72 38.98l-2.44 1v-.63l2.44-1v.63zM30.72 40.43l-2.44 1v-.63l2.44-1.01v.64zM30.72 41.87l-2.44 1v-.63l2.44-1v.63zM30.72 43.32l-2.44 1v-.63l2.44-1v.63zM30.72 44.76l-2.44 1v-.63l2.44-1v.63zM30.72 46.21l-2.44 1v-.63l2.44-1v.63zM30.72 47.65l-2.44 1.01v-.64l2.44-1v.63zM30.72 49.1l-2.44 1v-.63l2.44-1v.63zM30.72 50.55l-2.44 1v-.64l2.44-1v.64zM30.72 51.99l-2.44 1v-.63l2.44-1v.63zM30.72 53.44l-2.44 1v-.64l2.44-1v.64zM30.72 54.88l-2.44 1v-.63l2.44-1v.63zM30.72 56.33l-2.44 1v-.63l2.44-1.01v.64zM30.72 57.5l-.03.29-2.27.92-.07-.6 2.37-.97v.36zM30.51 59.3l-1.93.79-.07-.6 2.08-.85-.08.66zM30.33 60.82l-1.58.65-.08-.6 1.74-.71-.08.66zM30.15 62.34l-1.24.51-.07-.6 1.39-.57-.08.66zM29.97 63.86l-.9.37-.07-.6 1.05-.43-.08.66zM29.8 65.38l-.57.23-.07-.6.71-.3-.07.67z" class="c13-cls-17" data-color-action="fill" style="fill:inherit"/></g><circle cx="29.5" cy="12.79" r="2.24" class="c13-cls-11" data-color-action="fill" style="fill:inherit"/><path d="M27.67 14.01h3.67v3h-3.67z" class="c13-cls-11" transform="rotate(-180 29.5 15.51)" data-color-action="fill" style="fill:inherit"/><path d="M29.96 14.01h.55v3h-.55z" class="c13-cls-16"/><path d="M30.3 11.44h.21a2.32 2.32 0 0 1 .49 1.28 2.37 2.37 0 0 1-.52 1.3H30a2 2 0 0 0 .73-1.37 1.5 1.5 0 0 0-.43-1.21z" class="c13-cls-16"/><path d="M28.28 22.74h2.44v.63h-2.44z" class="c13-cls-17" transform="rotate(-180 29.5 23.05)" data-color-action="fill" style="fill:inherit"/><path d="M26.89 16.99h5.22l-.87 5.71h-3.48l-.87-5.71z" class="c13-cls-11" data-color-action="fill" style="fill:inherit"/><path d="M30.15 16.99h.79l-.48 5.71h-.53l.22-5.71z" class="c13-cls-16"/></g><g id="c13_implant_cylinder" data-name="implant cylinder"><path d="M2 2.02h55V64H2z" class="c13-cls-13" transform="rotate(-180 29.5 33.01)"/><path d="M26.17 13.67h6.67V63h-6.67z" class="c13-cls-11" transform="rotate(-180 29.5 38.335)" data-color-action="fill" style="fill:inherit"/><path d="M24.5 63h10v3h-10z" class="c13-cls-11" transform="rotate(-180 29.5 64.5)" data-color-action="fill" style="fill:inherit"/><path d="M30 13.67h1V63h-1z" class="c13-cls-16" transform="rotate(-180 30.5 38.335)"/><path d="M30.75 63h1.5v3h-1.5z" class="c13-cls-16" transform="rotate(-180 31.5 64.5)"/><path d="M24.5 10.64h10v3h-10z" class="c13-cls-11" transform="rotate(-180 29.5 12.14)" data-color-action="fill" style="fill:inherit"/><path d="M30.75 10.64h1.5v3h-1.5z" class="c13-cls-16" transform="rotate(-180 31.5 12.14)"/><path d="M26.17 62.37h6.67V63h-6.67z" class="c13-cls-17" transform="rotate(-180 29.5 62.685)" data-color-action="fill" style="fill:inherit"/><path d="M26.17 13.67h6.67v.63h-6.67z" class="c13-cls-17" transform="rotate(-180 29.5 13.985)" data-color-action="fill" style="fill:inherit"/><g class="c13-cls-18"><path d="M26.17 15.3l6.66-1v-.63l-6.66 1v.63zM26.17 16.75l6.66-1v-.63l-6.66 1v.63zM26.17 18.19l6.66-1v-.63l-6.66 1v.63zM26.17 19.64l6.66-1v-.63l-6.66 1v.63zM26.17 21.08l6.66-1v-.63l-6.66 1v.63zM26.17 22.53l6.66-1v-.63l-6.66 1v.63zM26.17 23.98l6.66-1v-.64l-6.66 1v.64zM26.17 25.42l6.66-1v-.63l-6.66 1v.63zM26.17 26.87l6.66-1.01v-.63l-6.66 1v.64zM26.17 28.31l6.66-1v-.63l-6.66 1v.63zM26.17 29.76l6.66-1v-.64l-6.66 1.01v.63zM26.17 31.2l6.66-1v-.63l-6.66 1v.63zM26.17 32.65l6.66-1v-.63l-6.66 1v.63zM26.17 34.09l6.66-1v-.63l-6.66 1v.63zM26.17 35.54l6.66-1v-.63l-6.66 1v.63zM26.17 36.98l6.66-1v-.63l-6.66 1v.63zM26.17 38.43l6.66-1v-.63l-6.66 1v.63zM26.17 39.88l6.66-1v-.64l-6.66 1v.64zM26.17 41.32l6.66-1v-.63l-6.66 1v.63zM26.17 42.77l6.66-1v-.64l-6.66 1v.64zM26.17 44.21l6.66-1v-.63l-6.66 1v.63zM26.17 45.66l6.66-1v-.64l-6.66 1v.64zM26.17 47.1l6.66-1v-.63l-6.66 1v.63zM26.17 48.55l6.66-1v-.64l-6.66 1.01v.63zM26.17 49.99l6.66-1v-.63l-6.66 1v.63zM26.17 51.44l6.66-1v-.63l-6.66 1v.63zM26.17 52.88l6.66-1v-.63l-6.66 1v.63zM26.17 54.33l6.66-1v-.63l-6.66 1v.63zM26.17 55.77l6.66-1v-.63l-6.66 1v.63zM26.17 57.22l6.66-1v-.63l-6.66 1v.63zM26.17 58.67l6.66-1.01v-.63l-6.66 1v.64zM26.17 60.11l6.66-1v-.63l-6.66 1v.63zM26.17 61.56l6.66-1v-.64l-6.66 1v.64zM26.17 63l6.66-1v-.63l-6.66 1V63z" class="c13-cls-17" data-color-action="fill" style="fill:inherit"/></g></g><g id="c13_implant_blade" data-name="implant blade"><path d="M2 2.02h55V64H2z" class="c13-cls-13" transform="rotate(-180 29.5 33.01)"/><path d="M26.17 13.64h6.67v49.33h-6.67z" class="c13-cls-11" transform="rotate(-180 29.5 38.31)" data-color-action="fill" style="fill:inherit"/><path d="M24.5 10.64h10v3h-10z" class="c13-cls-11" transform="rotate(-180 29.5 12.14)" data-color-action="fill" style="fill:inherit"/><path d="M30 13.64h1v49.33h-1z" class="c13-cls-16" transform="rotate(-180 30.5 38.31)"/><path d="M30.75 10.64h1.5v3h-1.5z" class="c13-cls-16" transform="rotate(-180 31.5 12.14)"/><path d="M26.17 13.64h6.67v.63h-6.67z" class="c13-cls-17" transform="rotate(-180 29.5 13.955)" data-color-action="fill" style="fill:inherit"/></g><g id="c13_border"><path d="M0 0h59v66H0z" class="c13-cls-7"/><path d="M0 0h59v66H0z" class="c13-cls-7" transform="rotate(-180 29.5 33)"/></g></defs></g></svg>