<svg xmlns="http://www.w3.org/2000/svg" viewBox="0 0 59 283"><defs><style>.a31-cls-1{isolation:isolate}.a31-cls-2{font-size:15px;fill:#929497;font-family:ProximaNova-Semibold,Proxima Nova,sans-serif;font-weight:700;stroke:none}.a31-cls-26,.a31-cls-3{fill:#c5c7c9;stroke:none}.a31-cls-3{stroke:#c5c7c9;stroke-width:5px}.a31-cls-19,.a31-cls-22,.a31-cls-24,.a31-cls-25,.a31-cls-27,.a31-cls-28,.a31-cls-3,.a31-cls-31,.a31-cls-33,.a31-cls-34{stroke-miterlimit:10}.a31-cls-4,.a31-cls-5{fill:#f5d7cf;stroke:none}.a31-cls-5{fill:#f2c6bc}.a31-cls-6,.a31-cls-7{fill:#fae8e3;stroke:none}.a31-cls-7{fill:#eeefef}.a31-cls-8,.a31-cls-9{fill:#e2e3e4;stroke:none}.a31-cls-9{fill:#fbfbfb}.a31-cls-10,.a31-cls-29,.a31-cls-37{fill:#3c3d3d;stroke:none}.a31-cls-10{opacity:.55}.a31-cls-11{fill:#ffd403;stroke:none}.a31-cls-13,.a31-cls-21{fill:#ffef3e;stroke:none}.a31-cls-14,.a31-cls-20{fill:#c52636;stroke:none}.a31-cls-15{fill:none;stroke:none}.a31-cls-19,.a31-cls-22,.a31-cls-24,.a31-cls-25,.a31-cls-27,.a31-cls-28,.a31-cls-31,.a31-cls-33,.a31-cls-34{fill:none}.a31-cls-16,.a31-cls-38{fill:#28418b;stroke:none}.a31-cls-17,.a31-cls-18{fill:#787878;stroke:none}.a31-cls-19,.a31-cls-22,.a31-cls-24,.a31-cls-25,.a31-cls-31,.a31-cls-33,.a31-cls-34{stroke:#c52636}.a31-cls-19,.a31-cls-22,.a31-cls-28{stroke-width:2px}.a31-cls-22{stroke-linecap:round}.a31-cls-23{fill:#fff;stroke:none}.a31-cls-25{stroke-width:1.01px}.a31-cls-27,.a31-cls-28{stroke:#28418b}.a31-cls-27{stroke-width:3px}.a31-cls-30{opacity:.6}.a31-cls-31{stroke-width:4px}.a31-cls-32{fill:#f05b85;stroke:none}.a31-cls-33,.a31-cls-34{stroke-width:1.25px}.a31-cls-35{fill:#9b9999;stroke:none}.a31-cls-36{fill:#dbdbdc;stroke:none}.b31-cls-1{isolation:isolate}.b31-cls-2{fill:#c5c7c9;stroke:#c5c7c9;stroke-width:5px}.b31-cls-17,.b31-cls-18,.b31-cls-2{stroke-miterlimit:10}.b31-cls-3,.b31-cls-4{fill:#eeefef;stroke:none}.b31-cls-4{fill:#e2e3e4}.b31-cls-5,.b31-cls-6{fill:#e0e0e0;stroke:none}.b31-cls-6{fill:#fcfcfc}.b31-cls-15,.b31-cls-7{fill:#3c3d3d;stroke:none}.b31-cls-7{opacity:.55}.b31-cls-17,.b31-cls-18{fill:none}.b31-cls-8{fill:none;stroke:none}.b31-cls-14,.b31-cls-9{fill:#787878;stroke:none}.b31-cls-10{font-size:33px;fill:#28418b;font-family:ProximaNova-Semibold,Proxima Nova,sans-serif;font-weight:700;stroke:none}.b31-cls-11{fill:#fff;stroke:none}.b31-cls-13{fill:#c52636;stroke:none}.b31-cls-16{fill:#ffef3e;stroke:none}.b31-cls-17,.b31-cls-18{stroke:#c52636;stroke-width:1.25px}.c31-cls-1{isolation:isolate}.c31-cls-16,.c31-cls-2{fill:#c5c7c9;stroke:none}.c31-cls-2{stroke:#c5c7c9;stroke-width:5px}.c31-cls-2,.c31-cls-20,.c31-cls-21{stroke-miterlimit:10}.c31-cls-3{fill:#eeefef;stroke:none}.c31-cls-4,.c31-cls-5{fill:#e2e3e4;stroke:none}.c31-cls-5{fill:#fbfbfb}.c31-cls-17,.c31-cls-6{fill:#3c3d3d;stroke:none}.c31-cls-6{opacity:.55}.c31-cls-20,.c31-cls-21{fill:none}.c31-cls-7,.c31-cls-9{fill:none;stroke:none}.c31-cls-9{fill:#28418b}.c31-cls-10,.c31-cls-11{fill:#787878;stroke:none}.c31-cls-12,.c31-cls-19{fill:#ffef3e;stroke:none}.c31-cls-13{fill:#fff;stroke:none}.c31-cls-14,.c31-cls-15{fill:#c52636;stroke:none}.c31-cls-18{opacity:.6}.c31-cls-20,.c31-cls-21{stroke:#c52636;stroke-width:1.25px}.a31-msng-cls-1{isolation:isolate}.a31-msng-cls-2{font-size:15px;fill:#929497;font-family:ProximaNova-Semibold,Proxima Nova;font-weight:700;stroke:none}.a31-msng-cls-3{fill:#c5c7c9;stroke:#c5c7c9;stroke-width:5px}.a31-msng-cls-11,.a31-msng-cls-3{stroke-miterlimit:10}.a31-msng-cls-4{fill:#f5d7cf;stroke:none}.a31-msng-cls-5{fill:#f2c6bc;stroke:none}.a31-msng-cls-6{fill:#fae8e3;stroke:none}.a31-msng-cls-7{fill:#eeefef;stroke:none}.a31-msng-cls-8{fill:#e2e3e4;stroke:none}.a31-msng-cls-9{fill:#fbfbfb;stroke:none}.a31-msng-cls-11{fill:none}.a31-msng-cls-12{fill:none;stroke:none}.a31-msng-cls-11{stroke:#787878;stroke-width:6.25px}</style></defs><g class="a31-cls-1" transform="translate(0 122)"><g id="_31A" data-name="#31A"><text class="a31-cls-2" transform="translate(22.18 150.74)">81</text><path d="M14.18 11.47c5.64-1 12.35.34 13.46 1.21.86.67 1.77.79 3.82-.49s12.31-1.61 15.76-.07c3.15 1.4 4.35 8.67 4.1 11.53s-1.54 11.91-3.46 15.11c0 1.72.62 3.3 1.35 6.59 1.35 6.09 2.5 19.64 0 29.22-2.84 10.85-10.6 19.35-12.33 18.62s.44-6.23 1.89-14.55C41 65.93 37.25 54 31 53.48c-8.88-.74-11.63 10.24-12 16.77-.49 9.74 4.07 18.37 2.1 18.86s-8.82-8.24-10.85-13.93C7.79 68.27 6.31 60 9.77 45.84a20.9 20.9 0 0 0 .83-6.21.57.57 0 0 1-.12-.11C9.32 37.47 7.78 27.86 7.65 23s.9-10.51 6.53-11.53z" class="a31-cls-3"/><path d="M49.34 32.89c-2.39 6.13-1.48 6.37-.12 12.45s2.5 19.64 0 29.22c-2.84 10.85-10.6 19.35-12.33 18.62s.44-6.23 1.89-14.55C41 65.93 37.25 54 31 53.48c-8.88-.74-11.63 10.24-12 16.77-.49 9.74 4.07 18.37 2.1 18.86s-8.82-8.24-10.85-13.93C7.79 68.27 6.31 60 9.77 45.84c1.23-5 1-6.66.12-10.11-.72-2.9 41.9-9.13 39.45-2.84z" class="a31-cls-4"/><path d="M48.39 55.51a73 73 0 0 0-2.69-13.62c-.54-2.33 0-7.71 0-7.71h3.15c-1.76 4.9-.89 5.54.36 11.16 1.35 6.09 2.5 19.64 0 29.22a41 41 0 0 1-6.82 14c2.18-4.26 5.37-11.1 5.64-14.72.36-4.84 1.26-10.08.36-18.33zM22 54.79c2.33-3.94 7.35-4.84 9.5-4.48s7 2.33 8.42 10.22a46.51 46.51 0 0 1-.18 17.57 36.59 36.59 0 0 1-2.49 7.67c.46-2 1-4.43 1.48-7.13C41 65.93 37.25 54 31 53.48c-8.88-.74-11.63 10.24-12 16.77a44.2 44.2 0 0 0 1.52 12.53c-1.31-3.77-2.84-9.14-3-12.92-.14-5.57 2.19-11.12 4.48-15.07zM9.77 45.84c1.23-5 1-6.66.12-10.11-.12-.48.95-1 2.8-1.64l.75.27a73.44 73.44 0 0 1-.54 7.35c-.36 1.61-2.33 7.71-3 12.55a61.92 61.92 0 0 0 .36 18.1 42.47 42.47 0 0 0 1.61 6.22 24.63 24.63 0 0 1-1.57-3.4C7.79 68.27 6.31 60 9.77 45.84z" class="a31-cls-5"/><path d="M16.13 38.89a7.21 7.21 0 0 1-.13 3.95A52.85 52.85 0 0 0 12.19 56c-1.31 8.18-.58 14.9.73 18.85 1 2.89 4.24 10.81 4.53 10.08s-3.59-9.36-3.94-16.07c-.44-8.33 2.78-19.43 4.24-22.35s2.34-5.84 2.19-7.45-4.39-2.36-3.81-.17z" class="a31-cls-6"/><path d="M47.87 38.75c1.92-3.2 3.2-12.17 3.46-15.11s-.95-10.13-4.1-11.53c-3.46-1.54-13.72-1.21-15.76.07s-3 1.16-3.82.49c-1.11-.86-7.82-2.23-13.46-1.21S7.52 18.13 7.65 23s1.66 14.47 2.82 16.52 35.09 3.07 37.4-.77z" class="a31-cls-7"/><path d="M47.89 23.71c.19-2.91-.66-10-2.91-12.22a10.1 10.1 0 0 1 2.25.61c3.15 1.4 4.35 8.67 4.1 11.53s-1.54 11.91-3.46 15.11c-.33.56-1.35 1-2.82 1.37 1.58-3.63 2.63-13.21 2.84-16.4zM14.18 11.47h.2C11.57 13.7 11 18.64 11.09 23c.1 4.9 1.19 14.14 2.12 17.39-1.56-.26-2.56-.55-2.75-.88C9.32 37.47 7.78 27.86 7.65 23s.9-10.51 6.53-11.53z" class="a31-cls-8"/><path d="M33.94 16.37c1.48.81.16 7-.66 6.88s-1.14-7.86.66-6.88z" class="a31-cls-9"/><path d="M38.19 89.59c.63.36 4.89-6.1 6-14.32 1.46-11-2.48-22.64-3.21-22.35s1.17 3.36 1.9 10.67a51.68 51.68 0 0 1-1.46 16.36c-.89 3.05-4.25 9.05-3.23 9.64z" class="a31-cls-6"/><path d="M16.71 38.1c-.1-2.25-1.17-7.62-1.17-14.27a49 49 0 0 1 2-12.71 31.33 31.33 0 0 1 4.07.13 41.86 41.86 0 0 0-2.14 14.53c.29 4.09 1.43 12.08 1.22 15.33-1.36-.08-2.63-.17-3.8-.27.11-.9-.11-.98-.18-2.74z" class="a31-cls-9"/></g><defs><g id="a81_bone_graft" data-name="bone graft"><path d="M2 39h55v98.69H2z" class="a31-cls-16" transform="rotate(-180 29.5 88.345)" data-color-action="fill" style="fill:inherit"/><path d="M14.18 11.47c5.64-1 12.35.34 13.46 1.21.86.67 1.77.79 3.82-.49s12.31-1.61 15.76-.07c3.15 1.4 4.35 8.67 4.1 11.53s-1.54 11.91-3.46 15.11c0 1.72.62 3.3 1.35 6.59 1.35 6.09 2.5 19.64 0 29.22-2.84 10.85-10.6 19.35-12.33 18.62s.44-6.23 1.89-14.55C41 65.93 37.25 54 31 53.48c-8.88-.74-11.63 10.24-12 16.77-.49 9.74 4.07 18.37 2.1 18.86s-8.82-8.24-10.85-13.93C7.79 68.27 6.31 60 9.77 45.84a20.9 20.9 0 0 0 .83-6.21.57.57 0 0 1-.12-.11C9.32 37.47 7.78 27.86 7.65 23s.9-10.51 6.53-11.53z" class="a31-cls-3"/><path d="M49.34 32.89c-2.39 6.13-1.48 6.37-.12 12.45s2.5 19.64 0 29.22c-2.84 10.85-10.6 19.35-12.33 18.62s.44-6.23 1.89-14.55C41 65.93 37.25 54 31 53.48c-8.88-.74-11.63 10.24-12 16.77-.49 9.74 4.07 18.37 2.1 18.86s-8.82-8.24-10.85-13.93C7.79 68.27 6.31 60 9.77 45.84c1.23-5 1-6.66.12-10.11-.72-2.9 41.9-9.13 39.45-2.84z" class="a31-cls-4"/><path d="M48.39 55.51a73 73 0 0 0-2.69-13.62c-.54-2.33 0-7.71 0-7.71h3.15c-1.76 4.9-.89 5.54.36 11.16 1.35 6.09 2.5 19.64 0 29.22a41 41 0 0 1-6.82 14c2.18-4.26 5.37-11.1 5.64-14.72.36-4.84 1.26-10.08.36-18.33zM22 54.79c2.33-3.94 7.35-4.84 9.5-4.48s7 2.33 8.42 10.22a46.51 46.51 0 0 1-.18 17.57 36.59 36.59 0 0 1-2.49 7.67c.46-2 1-4.43 1.48-7.13C41 65.93 37.25 54 31 53.48c-8.88-.74-11.63 10.24-12 16.77a44.2 44.2 0 0 0 1.52 12.53c-1.31-3.77-2.84-9.14-3-12.92-.14-5.57 2.19-11.12 4.48-15.07zM9.77 45.84c1.23-5 1-6.66.12-10.11-.12-.48.95-1 2.8-1.64l.75.27a73.44 73.44 0 0 1-.54 7.35c-.36 1.61-2.33 7.71-3 12.55a61.92 61.92 0 0 0 .36 18.1 42.47 42.47 0 0 0 1.61 6.22 24.63 24.63 0 0 1-1.57-3.4C7.79 68.27 6.31 60 9.77 45.84z" class="a31-cls-5"/><path d="M16.13 38.89a7.21 7.21 0 0 1-.13 3.95A52.85 52.85 0 0 0 12.19 56c-1.31 8.18-.58 14.9.73 18.85 1 2.89 4.24 10.81 4.53 10.08s-3.59-9.36-3.94-16.07c-.44-8.33 2.78-19.43 4.24-22.35s2.34-5.84 2.19-7.45-4.39-2.36-3.81-.17z" class="a31-cls-6"/><path d="M47.87 38.75c1.92-3.2 3.2-12.17 3.46-15.11s-.95-10.13-4.1-11.53c-3.46-1.54-13.72-1.21-15.76.07s-3 1.16-3.82.49c-1.11-.86-7.82-2.23-13.46-1.21S7.52 18.13 7.65 23s1.66 14.47 2.82 16.52 35.09 3.07 37.4-.77z" class="a31-cls-7"/><path d="M47.89 23.71c.19-2.91-.66-10-2.91-12.22a10.1 10.1 0 0 1 2.25.61c3.15 1.4 4.35 8.67 4.1 11.53s-1.54 11.91-3.46 15.11c-.33.56-1.35 1-2.82 1.37 1.58-3.63 2.63-13.21 2.84-16.4zM14.18 11.47h.2C11.57 13.7 11 18.64 11.09 23c.1 4.9 1.19 14.14 2.12 17.39-1.56-.26-2.56-.55-2.75-.88C9.32 37.47 7.78 27.86 7.65 23s.9-10.51 6.53-11.53z" class="a31-cls-8"/><path d="M33.94 16.37c1.48.81.16 7-.66 6.88s-1.14-7.86.66-6.88z" class="a31-cls-9"/><path d="M38.19 89.59c.63.36 4.89-6.1 6-14.32 1.46-11-2.48-22.64-3.21-22.35s1.17 3.36 1.9 10.67a51.68 51.68 0 0 1-1.46 16.36c-.89 3.05-4.25 9.05-3.23 9.64z" class="a31-cls-6"/><path d="M16.71 38.1c-.1-2.25-1.17-7.62-1.17-14.27a49 49 0 0 1 2-12.71 31.33 31.33 0 0 1 4.07.13 41.86 41.86 0 0 0-2.14 14.53c.29 4.09 1.43 12.08 1.22 15.33-1.36-.08-2.63-.17-3.8-.27.11-.9-.11-.98-.18-2.74z" class="a31-cls-9"/></g><g id="a81_splinted_crowns" data-name="splinted crowns"><path d="M2 39.75h55v7.67H2z" class="a31-cls-21" data-color-action="fill" style="fill:inherit"/><path d="M14.18 11.47c5.64-1 12.35.34 13.46 1.21.86.67 1.77.79 3.82-.49s12.31-1.61 15.76-.07c3.15 1.4 4.35 8.67 4.1 11.53s-1.54 11.91-3.46 15.11c0 1.72.62 3.3 1.35 6.59 1.35 6.09 2.5 19.64 0 29.22-2.84 10.85-10.6 19.35-12.33 18.62s.44-6.23 1.89-14.55C41 65.93 37.25 54 31 53.48c-8.88-.74-11.63 10.24-12 16.77-.49 9.74 4.07 18.37 2.1 18.86s-8.82-8.24-10.85-13.93C7.79 68.27 6.31 60 9.77 45.84a20.9 20.9 0 0 0 .83-6.21.57.57 0 0 1-.12-.11C9.32 37.47 7.78 27.86 7.65 23s.9-10.51 6.53-11.53z" class="a31-cls-3"/><path d="M49.34 32.89c-2.39 6.13-1.48 6.37-.12 12.45s2.5 19.64 0 29.22c-2.84 10.85-10.6 19.35-12.33 18.62s.44-6.23 1.89-14.55C41 65.93 37.25 54 31 53.48c-8.88-.74-11.63 10.24-12 16.77-.49 9.74 4.07 18.37 2.1 18.86s-8.82-8.24-10.85-13.93C7.79 68.27 6.31 60 9.77 45.84c1.23-5 1-6.66.12-10.11-.72-2.9 41.9-9.13 39.45-2.84z" class="a31-cls-4"/><path d="M48.39 55.51a73 73 0 0 0-2.69-13.62c-.54-2.33 0-7.71 0-7.71h3.15c-1.76 4.9-.89 5.54.36 11.16 1.35 6.09 2.5 19.64 0 29.22a41 41 0 0 1-6.82 14c2.18-4.26 5.37-11.1 5.64-14.72.36-4.84 1.26-10.08.36-18.33zM22 54.79c2.33-3.94 7.35-4.84 9.5-4.48s7 2.33 8.42 10.22a46.51 46.51 0 0 1-.18 17.57 36.59 36.59 0 0 1-2.49 7.67c.46-2 1-4.43 1.48-7.13C41 65.93 37.25 54 31 53.48c-8.88-.74-11.63 10.24-12 16.77a44.2 44.2 0 0 0 1.52 12.53c-1.31-3.77-2.84-9.14-3-12.92-.14-5.57 2.19-11.12 4.48-15.07zM9.77 45.84c1.23-5 1-6.66.12-10.11-.12-.48.95-1 2.8-1.64l.75.27a73.44 73.44 0 0 1-.54 7.35c-.36 1.61-2.33 7.71-3 12.55a61.92 61.92 0 0 0 .36 18.1 42.47 42.47 0 0 0 1.61 6.22 24.63 24.63 0 0 1-1.57-3.4C7.79 68.27 6.31 60 9.77 45.84z" class="a31-cls-5"/><path d="M16.13 38.89a7.21 7.21 0 0 1-.13 3.95A52.85 52.85 0 0 0 12.19 56c-1.31 8.18-.58 14.9.73 18.85 1 2.89 4.24 10.81 4.53 10.08s-3.59-9.36-3.94-16.07c-.44-8.33 2.78-19.43 4.24-22.35s2.34-5.84 2.19-7.45-4.39-2.36-3.81-.17z" class="a31-cls-6"/><path d="M47.87 38.75c1.92-3.2 3.2-12.17 3.46-15.11s-.95-10.13-4.1-11.53c-3.46-1.54-13.72-1.21-15.76.07s-3 1.16-3.82.49c-1.11-.86-7.82-2.23-13.46-1.21S7.52 18.13 7.65 23s1.66 14.47 2.82 16.52 35.09 3.07 37.4-.77z" class="a31-cls-7"/><path d="M47.89 23.71c.19-2.91-.66-10-2.91-12.22a10.1 10.1 0 0 1 2.25.61c3.15 1.4 4.35 8.67 4.1 11.53s-1.54 11.91-3.46 15.11c-.33.56-1.35 1-2.82 1.37 1.58-3.63 2.63-13.21 2.84-16.4zM14.18 11.47h.2C11.57 13.7 11 18.64 11.09 23c.1 4.9 1.19 14.14 2.12 17.39-1.56-.26-2.56-.55-2.75-.88C9.32 37.47 7.78 27.86 7.65 23s.9-10.51 6.53-11.53z" class="a31-cls-8"/><path d="M33.94 16.37c1.48.81.16 7-.66 6.88s-1.14-7.86.66-6.88z" class="a31-cls-9"/><path d="M38.19 89.59c.63.36 4.89-6.1 6-14.32 1.46-11-2.48-22.64-3.21-22.35s1.17 3.36 1.9 10.67a51.68 51.68 0 0 1-1.46 16.36c-.89 3.05-4.25 9.05-3.23 9.64z" class="a31-cls-6"/><path d="M16.71 38.1c-.1-2.25-1.17-7.62-1.17-14.27a49 49 0 0 1 2-12.71 31.33 31.33 0 0 1 4.07.13 41.86 41.86 0 0 0-2.14 14.53c.29 4.09 1.43 12.08 1.22 15.33-1.36-.08-2.63-.17-3.8-.27.11-.9-.11-.98-.18-2.74z" class="a31-cls-9"/></g><path id="a81_buccal_V_pre_exisiting" d="M17.08 40.85c7.11.63 18.28.73 25.07-.2a30.55 30.55 0 0 0-25.07.2z" class="a31-cls-10" data-color-action="fill" style="fill:inherit" data-name="buccal V – pre exisiting"/><ellipse id="a81_buccal_pit" cx="29.61" cy="29.27" class="a31-cls-10" rx="3.96" ry="6.54" data-color-action="fill" style="fill:inherit" data-name="buccal pit"/><path id="a81_mesial" d="M49.57 14.73l-3.64 5.62a21.18 21.18 0 0 1 .52 2.89 6.26 6.26 0 0 0 4.28 5c.31-1.93.52-3.64.61-4.64a19.94 19.94 0 0 0-1.77-8.87z" class="a31-cls-10" data-color-action="fill" style="fill:inherit"/><path id="a81_line_angle_2" d="M47.23 12.11c-1.89-.84-5.8-1.12-9.3-1L36.61 17a9.45 9.45 0 0 1 3.54-.74c3.79-.12 5.16 1.86 5.78 4.09l3.64-5.62a5.33 5.33 0 0 0-2.34-2.62z" class="a31-cls-10" data-color-action="fill" style="fill:inherit" data-name="line angle 2"/><path id="a81_groove_1" d="M31.46 12.18c-2 1.28-3 1.16-3.82.49-.59-.46-2.77-1.06-5.52-1.37l1.54 6.2c2.49 1 4.39 2.44 6.88 2.33 2.76-.12 3.73-1.83 6.07-2.83l1.32-5.88c-2.93.1-5.54.48-6.47 1.06z" class="a31-cls-10" data-color-action="fill" style="fill:inherit" data-name="groove 1"/><path id="a81_line_angle_1" d="M14.18 11.47a6.88 6.88 0 0 0-4.73 3.05l4.27 5.88c1.18-2.26 2.74-3.71 5.1-3.79a11.59 11.59 0 0 1 4.84.9l-1.54-6.2a28.22 28.22 0 0 0-7.94.16z" class="a31-cls-10" data-color-action="fill" style="fill:inherit" data-name="line angle 1"/><path id="a81_distal" d="M11.83 25.56a27.09 27.09 0 0 1 1.89-5.15l-4.26-5.89C7.93 16.84 7.58 20.05 7.65 23c0 1.63.24 3.78.53 6a5.25 5.25 0 0 0 3.65-3.44z" class="a31-cls-10" data-color-action="fill" style="fill:inherit"/><path id="a81_veneer" d="M47.87 38.75c1.92-3.2 3.2-12.17 3.46-15.11s-.95-10.13-4.1-11.53c-3.46-1.54-13.72-1.21-15.76.07s-3 1.16-3.82.49c-1.11-.86-7.82-2.23-13.46-1.21S7.52 18.13 7.65 23s1.66 14.47 2.82 16.52 35.09 3.07 37.4-.77z" class="a31-cls-12 a31-cls-13" data-color-action="fill" style="fill:inherit"/><path id="a81_tissue_graft" d="M46.97 56.34L29.5 42.45 12.03 56.34h34.94z" class="a31-cls-14" data-color-action="fill" style="fill:inherit" data-name="tissue graft"/><path id="a81_tipped_lingual" d="M28 154.75h3v3h-3z" class="a31-cls-15" data-name="tipped lingual"/><g id="a81_tipped_facial" class="a31-cls-12" data-name="tipped facial"><path d="M28.27 8.91c.84-2.25 3.16-2.57 5.13 3.55.34 1 2.95 1.17 2.56 0-1.34-4.06-3.54-6.8-6-6.18a3.24 3.24 0 0 0-2 2.25c.04.11.23.28.31.38z" class="a31-cls-16" data-color-action="fill" style="fill:inherit"/><path d="M29.66 10.86h8.62l-1.96 6.42-6.66-6.42z" class="a31-cls-16" data-color-action="fill" style="fill:inherit"/></g><path id="a81_surface_restoration_mesial" d="M51.33 23.64c-.09 1-.31 2.81-.63 4.81a11.51 11.51 0 0 0-7.29 6.24c.43-4.54.79-9.81 1-11.66a14.38 14.38 0 0 0-.75-4.49l4.87-5.48c2.16 2.47 3.01 8.13 2.8 10.58z" class="a31-cls-17" data-color-action="fill" style="fill:inherit" data-name="surface restoration mesial"/><path id="a81_surface_restoration_buccal" d="M17.36 40.87l-.71-.06v-.31a11.44 11.44 0 0 0-1.32-5.34c-.36-4.76-.64-10.43-.7-12.35-.08-3 .48-4.17.63-4.42h.16a17.61 17.61 0 0 1 3.12-.25 22.78 22.78 0 0 1 5.58.66 8.81 8.81 0 0 0 4.8 1.41 11.32 11.32 0 0 0 5.67-1.71 27 27 0 0 1 4.9-.38 27.73 27.73 0 0 1 4 .25 14.41 14.41 0 0 1 .86 4.63c-.16 1.85-.52 7.12-1 11.66a11.44 11.44 0 0 0-1.07 4.81c0 .38 0 .75.06 1.12h-.32a17.94 17.94 0 0 0-24.71.21z" class="a31-cls-12 a31-cls-18" data-color-action="fill" style="fill:inherit" data-name="surface restoration buccal"/><path id="a81_surface_restoration_buccal_V" d="M17.36 40.87a17.94 17.94 0 0 1 24.71-.21c-6.71.91-17.61.82-24.71.21z" class="a31-cls-12 a31-cls-18" data-color-action="fill" style="fill:inherit" data-name="surface restoration buccal V"/><path id="a81_surface_restoration_distal" d="M10.28 13.48l4.91 5.07a9.74 9.74 0 0 0-.54 4.25c.05 1.92.34 7.58.7 12.35a11.51 11.51 0 0 0-7.1-5.73 64.34 64.34 0 0 1-.6-6.42c-.09-3.42.35-7.2 2.63-9.52z" class="a31-cls-17" data-color-action="fill" style="fill:inherit" data-name="surface restoration distal"/><path id="a81_surface_restoration_occlusal" d="M14.18 11.47c5.64-1 12.35.34 13.46 1.21.86.67 1.77.79 3.82-.49s12.31-1.61 15.76-.07a3.77 3.77 0 0 1 1.24 1l-4.86 5.42-.07-.2a27.73 27.73 0 0 0-4-.25 27 27 0 0 0-4.9.38 11.32 11.32 0 0 1-5.67 1.71 8.81 8.81 0 0 1-4.8-1.41 22.78 22.78 0 0 0-5.58-.66 17.61 17.61 0 0 0-3.12.25h-.16l-.09.17-4.91-5.07a7 7 0 0 1 3.88-1.99z" class="a31-cls-17" data-color-action="fill" style="fill:inherit" data-name="surface restoration occlusal"/><g id="a81_supra-erupted" class="a31-cls-12"><path d="M29.5 47.12v7.67" class="a31-cls-19" data-color-action="stroke" style="stroke:inherit"/><path d="M25.51 48.28l3.99-6.91 3.99 6.91h-7.98z" class="a31-cls-20" data-color-action="fill" style="fill:inherit"/></g><g id="a81_sub-erupted" class="a31-cls-12"><path d="M29.5 49.05v-7.68" class="a31-cls-19" data-color-action="stroke" style="stroke:inherit"/><path d="M33.49 47.88l-3.99 6.91-3.99-6.91h7.98z" class="a31-cls-20" data-color-action="fill" style="fill:inherit"/></g><path id="a81_sealant" d="M28 154.75h3v3h-3z" class="a31-cls-15"/><g id="a81_rotated_mesial" class="a31-cls-12" data-name="rotated mesial"><path d="M3.87 32.82C.87 31 1.56 27.36 14.1 27c5.3-.15 8.95 0 8.95 0L23 24s-1-.07-8.22.24c-7.62.32-14 1.83-13.75 6a4 4 0 0 0 2.31 2.92c.15-.16.4-.27.53-.34z" class="a31-cls-16" data-color-action="fill" style="fill:inherit"/><path d="M16.57 31.53V19.64l10.39 5.9-10.39 5.99z" class="a31-cls-16" data-color-action="fill" style="fill:inherit"/></g><g id="a81_rotated_distal" class="a31-cls-12" data-name="rotated distal"><path d="M55.13 32.82c3-1.79 2.3-5.46-10.23-5.81C39.6 26.87 36 27 36 27v-3s1-.07 8.22.24c7.62.32 14 1.83 13.75 6a4 4 0 0 1-2.31 2.92c-.15-.16-.4-.27-.53-.34z" class="a31-cls-16" data-color-action="fill" style="fill:inherit"/><path d="M42.43 31.53V19.64l-10.4 5.9 10.4 5.99z" class="a31-cls-16" data-color-action="fill" style="fill:inherit"/></g><g id="a81_root_decay" class="a31-cls-12" data-name="root decay"><circle cx="44.17" cy="76.5" r="4.42" class="a31-cls-18" data-color-action="fill" style="fill:inherit"/><circle cx="14" cy="72.17" r="4.42" class="a31-cls-18" data-color-action="fill" style="fill:inherit"/></g><g id="a81_root_canal" data-name="root canal"><path d="M42.5 84.5l1-41.17M17 83.5l-1.17-39.83" class="a31-cls-22" data-color-action="stroke" style="stroke:inherit"/></g><g id="a81_root_abrasion" class="a31-cls-12" data-name="root abrasion"><path d="M12.25 63.58h3.5v13.83h-3.5z" class="a31-cls-24" data-color-action="stroke" style="stroke:inherit"/><path d="M41.59 65.33h3.5v14.01h-3.5z" class="a31-cls-25" data-color-action="stroke" style="stroke:inherit"/></g><g id="a81_post"><path d="M27.51 18.33h3.14V52h-3.14z" class="a31-cls-18" transform="rotate(-180 29.085 35.165)" data-color-action="fill" style="fill:inherit"/><path d="M29.32 18.33h.47V52h-.47z" class="a31-cls-26" transform="rotate(-180 29.555 35.165)"/></g><g id="a81_pins"><path d="M15.67 27.83h2.42v23.43h-2.42z" class="a31-cls-18" data-color-action="fill" style="fill:inherit"/><path d="M16.33 27.83h.36v23.43h-.36z" class="a31-cls-26"/><path d="M20.25 27.83h2.42v23.43h-2.42z" class="a31-cls-18" data-color-action="fill" style="fill:inherit"/><path d="M20.91 27.83h.36v23.43h-.36z" class="a31-cls-26"/><path d="M36.33 27.83h2.42v23.43h-2.42z" class="a31-cls-18" data-color-action="fill" style="fill:inherit"/><path d="M37 27.83h.36v23.43H37z" class="a31-cls-26"/><path d="M40.92 27.83h2.42v23.43h-2.42z" class="a31-cls-18" data-color-action="fill" style="fill:inherit"/><path d="M41.58 27.83h.36v23.43h-.36z" class="a31-cls-26"/></g><path id="a81_open_contact_mesial" d="M39.7 48l7.5-4.75L54.69 48" class="a31-cls-27" data-color-action="stroke" style="stroke:inherit" data-name="open contact mesial"/><path id="a81_open_contact_distal" d="M4.67 48l7.5-4.75L19.66 48" class="a31-cls-27" data-color-action="stroke" style="stroke:inherit" data-name="open contact distal"/><g id="a81_mesial_drift" class="a31-cls-12" data-name="mesial drift"><path d="M32.59 25.83H20.67" class="a31-cls-28" data-color-action="stroke" style="stroke:inherit"/><path d="M31.43 21.84l6.9 3.99-6.9 3.99v-7.98z" class="a31-cls-16" data-color-action="fill" style="fill:inherit"/></g><path id="a81_lingual_abfraction" d="M28 154.75h3v3h-3z" class="a31-cls-15" data-name="lingual abfraction"/><g id="a81_internal_root_resorption" class="a31-cls-12" data-name="internal root resorption"><ellipse cx="14.06" cy="61.05" class="a31-cls-20" rx="8.27" ry="3.34" transform="rotate(-80.22 14.057 61.047)" data-color-action="fill" style="fill:inherit"/><ellipse cx="44.06" cy="59.72" class="a31-cls-20" rx="3.34" ry="8.27" transform="rotate(-11.11 44.065 59.71)" data-color-action="fill" style="fill:inherit"/></g><g id="a81_impacted_mesial" class="a31-cls-12" data-name="impacted mesial"><ellipse cx="29.5" cy="53.7" class="a31-cls-28" rx="24.15" ry="52.3" data-color-action="stroke" style="stroke:inherit"/><path d="M18.09 53.7H5.33" class="a31-cls-28" data-color-action="stroke" style="stroke:inherit"/><path d="M16.93 49.71l6.9 3.99-6.9 3.99v-7.98z" class="a31-cls-16" data-color-action="fill" style="fill:inherit"/></g><g id="a81_impacted_distal" class="a31-cls-12" data-name="impacted distal"><ellipse cx="29.49" cy="53.7" class="a31-cls-28" rx="24.15" ry="52.3" data-color-action="stroke" style="stroke:inherit"/><path d="M40.89 53.7h12.76" class="a31-cls-28" data-color-action="stroke" style="stroke:inherit"/><path d="M42.06 57.69l-6.91-3.99 6.91-3.99v7.98z" class="a31-cls-16" data-color-action="fill" style="fill:inherit"/></g><path id="a81_gortex_membranes" d="M2 39.92h55v16.42H2z" class="a31-cls-14" data-color-action="fill" style="fill:inherit" data-name="gortex membranes"/><path id="a81_frenum_pull" d="M18.84 43.75L29.5 50.5l10.66-6.75" class="a31-cls-31" data-color-action="stroke" style="stroke:inherit" data-name="frenum pull"/><path id="a81_external_root_resorption" d="M50.55 56.07A9.31 9.31 0 0 0 46.64 64a10.64 10.64 0 0 0 3.22 7.55 70.05 70.05 0 0 0 .69-15.48zM8.37 52.88a45 45 0 0 0 .4 17.28c1.67-.93 4-3.11 4.08-8 .15-5.91-2.95-8.41-4.48-9.28z" class="a31-cls-12 a31-cls-20" data-color-action="fill" style="fill:inherit" data-name="external root resorption"/><g id="a81_distal_drift" class="a31-cls-12" data-name="distal drift"><path d="M26.41 25.83h11.92" class="a31-cls-28" data-color-action="stroke" style="stroke:inherit"/><path d="M27.57 29.82l-6.9-3.99 6.9-3.99v7.98z" class="a31-cls-16" data-color-action="fill" style="fill:inherit"/></g><path id="a81_three_quarter_crown" d="M7.9 26.5H51c.16-1.18.28-2.18.34-2.86.25-2.85-.95-10.13-4.1-11.53-3.46-1.54-13.72-1.21-15.76.07s-3 1.16-3.82.49c-1.11-.86-7.82-2.23-13.46-1.21S7.52 18.13 7.65 23c.03 1 .12 2.2.25 3.5z" class="a31-cls-12 a31-cls-13" data-color-action="fill" style="fill:inherit" data-name="three quarter crown"/><path id="a81_crown" d="M47.87 38.75c1.92-3.2 3.2-12.17 3.46-15.11s-.95-10.13-4.1-11.53c-3.46-1.54-13.72-1.21-15.76.07s-3 1.16-3.82.49c-1.11-.86-7.82-2.23-13.46-1.21S7.52 18.13 7.65 23s1.66 14.47 2.82 16.52 35.09 3.07 37.4-.77z" class="a31-cls-21" data-color-action="fill" style="fill:inherit"/><path id="a81_cracked_surface_distal" d="M12.66 32.17l-3.83-3.83h5l-5-4.74h5L10 19.77" class="a31-cls-33" data-color-action="stroke" style="stroke:inherit" data-name="cracked surface distal"/><path id="a81_cracked_surface_buccal" d="M30.83 32.17L27 28.34h5l-5-4.74h5l-3.83-3.83" class="a31-cls-33" data-color-action="stroke" style="stroke:inherit" data-name="cracked surface buccal"/><path id="a81_cracked_surface_buccal_V" d="M30.83 32.17L27 28.34h5l-5-4.74h5l-3.83-3.83" class="a31-cls-33" data-color-action="stroke" style="stroke:inherit" data-name="cracked surface buccal V"/><path id="a81_cracked_surface_mesial" d="M49.66 32.17l-3.83-3.83h5.01l-5.01-4.74h5.01l-3.83-3.83" class="a31-cls-33" data-color-action="stroke" style="stroke:inherit" data-name="cracked surface mesial"/><g id="a81_chipped_surface_distal" class="a31-cls-12" data-name="chipped surface distal"><path d="M16.17 30.5l-8.34-8.33M7.83 30.5l8.34-8.33" class="a31-cls-34" data-color-action="stroke" style="stroke:inherit"/></g><g id="a81_chipped_surface_buccal" class="a31-cls-12" data-name="chipped surface buccal"><path d="M33.33 30.5L25 22.17M25 30.5l8.33-8.33" class="a31-cls-34" data-color-action="stroke" style="stroke:inherit"/></g><g id="a81_chipped_surface_buccal_V" class="a31-cls-12" data-name="chipped surface buccal V"><path d="M33.33 30.5L25 22.17M25 30.5l8.33-8.33" class="a31-cls-34" data-color-action="stroke" style="stroke:inherit"/></g><g id="a81_chipped_surface_mesial" class="a31-cls-12" data-name="chipped surface mesial"><path d="M51.33 30.5L43 22.17M43 30.5l8.33-8.33" class="a31-cls-34" data-color-action="stroke" style="stroke:inherit"/></g><path id="a81_buccal_abfraction" d="M45.81 41.42s-7.3-5.75-16.31-5.75-16.31 5.75-16.31 5.75 7.3 5.75 16.31 5.75 16.31-5.75 16.31-5.75z" class="a31-cls-14" data-color-action="fill" style="fill:inherit" data-name="buccal abfraction"/><g id="a81_braces"><path d="M22.59 17.84h13.45v18.19H22.59z" class="a31-cls-26"/><path d="M22.59 17.84h13.45v.68H22.59zM22.59 25.43h13.45v1.36H22.59z" class="a31-cls-35" data-color-action="fill" style="fill:inherit"/><path d="M22.59 35.14h13.45v.89H22.59z" class="a31-cls-36" data-color-action="fill" style="fill:inherit"/><rect width="4.11" height="7.94" x="22.3" y="28.07" class="a31-cls-29" rx=".49" ry=".49" data-color-action="fill" style="fill:inherit"/><path d="M25.92 36h-3.13a.49.49 0 0 1-.49-.49v-5.83a13.14 13.14 0 0 1 4.11 0v5.83a.49.49 0 0 1-.49.49z" class="a31-cls-18" data-color-action="fill" style="fill:inherit"/><path d="M26.08 34.6v1.11a.16.16 0 0 1-.16.16h-3.13a.16.16 0 0 1-.16-.16V34.6z" class="a31-cls-26"/><rect width="4.11" height="7.94" x="32.22" y="28.07" class="a31-cls-29" rx=".49" ry=".49" data-color-action="fill" style="fill:inherit"/><path d="M35.84 36h-3.13a.49.49 0 0 1-.49-.49v-5.83a13.14 13.14 0 0 1 4.11 0v5.83a.49.49 0 0 1-.49.49z" class="a31-cls-18" data-color-action="fill" style="fill:inherit"/><path d="M36 34.6v1.11a.16.16 0 0 1-.16.16h-3.13a.16.16 0 0 1-.16-.16V34.6z" class="a31-cls-26"/><rect width="4.11" height="7.94" x="22.3" y="17.79" class="a31-cls-29" rx=".49" ry=".49" data-color-action="fill" style="fill:inherit"/><path d="M25.92 25.72h-3.13a.49.49 0 0 1-.49-.49V19.4a13.14 13.14 0 0 1 4.11 0v5.83a.49.49 0 0 1-.49.49z" class="a31-cls-18" data-color-action="fill" style="fill:inherit"/><path d="M26.08 24.32v1.11a.16.16 0 0 1-.16.16h-3.13a.16.16 0 0 1-.16-.16v-1.11z" class="a31-cls-26"/><rect width="4.11" height="7.94" x="32.22" y="17.79" class="a31-cls-29" rx=".49" ry=".49" data-color-action="fill" style="fill:inherit"/><path d="M35.84 25.72h-3.13a.49.49 0 0 1-.49-.49V19.4a13.14 13.14 0 0 1 4.11 0v5.83a.49.49 0 0 1-.49.49z" class="a31-cls-18" data-color-action="fill" style="fill:inherit"/><path d="M36 24.32v1.11a.16.16 0 0 1-.16.16h-3.13a.16.16 0 0 1-.16-.16v-1.11z" class="a31-cls-26"/><path d="M8.21 26.17h42.21v1.45H8.21z" class="a31-cls-18" data-color-action="fill" style="fill:inherit"/><path d="M8.21 26.17h42.21v.25H8.21z" class="a31-cls-29" data-color-action="fill" style="fill:inherit"/><path d="M8.21 27.02h42.21v.4H8.21z" class="a31-cls-26"/></g><path id="a81_apicoectomy" d="M36.84 102.83L29.5 91.17l-7.34 11.66h14.68z" class="a31-cls-17" data-color-action="fill" style="fill:inherit"/><circle id="a81_abscess" cx="29.5" cy="98.33" r="6.5" class="a31-cls-38" data-color-action="fill" style="fill:inherit"/><g id="a81_blunted_roots" data-name="blunted roots"><path d="M2 71h55v68H2z" class="a31-cls-23"/><path d="M2 68.92h55v2H2z" class="a31-cls-37" data-color-action="fill" style="fill:inherit"/></g><path id="a81_root_amputation" d="M2 41.06h55v98.27H2z" class="a31-cls-23" data-name="root amputation"/><path id="a81_missing_crown" d="M2 1.83h55v39.83H2z" class="a31-cls-23" data-name="missing crown"/><g id="a81_missing_tooth" data-name="missing tooth"><path d="M14.18 11.47c5.64-1 12.35.34 13.46 1.21.86.67 1.77.79 3.82-.49s12.31-1.61 15.76-.07c3.15 1.4 4.35 8.67 4.1 11.53s-1.54 11.91-3.46 15.11c0 1.72.62 3.3 1.35 6.59 1.35 6.09 2.5 19.64 0 29.22-2.84 10.85-10.6 19.35-12.33 18.62s.44-6.23 1.89-14.55C41 65.93 37.25 54 31 53.48c-8.88-.74-11.63 10.24-12 16.77-.49 9.74 4.07 18.37 2.1 18.86s-8.82-8.24-10.85-13.93C7.79 68.27 6.31 60 9.77 45.84a20.9 20.9 0 0 0 .83-6.21.57.57 0 0 1-.12-.11C9.32 37.47 7.78 27.86 7.65 23s.9-10.51 6.53-11.53z" class="a31-cls-3"/><path d="M49.34 32.89c-2.39 6.13-1.48 6.37-.12 12.45s2.5 19.64 0 29.22c-2.84 10.85-10.6 19.35-12.33 18.62s.44-6.23 1.89-14.55C41 65.93 37.25 54 31 53.48c-8.88-.74-11.63 10.24-12 16.77-.49 9.74 4.07 18.37 2.1 18.86s-8.82-8.24-10.85-13.93C7.79 68.27 6.31 60 9.77 45.84c1.23-5 1-6.66.12-10.11-.72-2.9 41.9-9.13 39.45-2.84z" class="a31-cls-23"/><path d="M48.39 55.51a73 73 0 0 0-2.69-13.62c-.54-2.33 0-7.71 0-7.71h3.15c-1.76 4.9-.89 5.54.36 11.16 1.35 6.09 2.5 19.64 0 29.22a41 41 0 0 1-6.82 14c2.18-4.26 5.37-11.1 5.64-14.72.36-4.84 1.26-10.08.36-18.33zM22 54.79c2.33-3.94 7.35-4.84 9.5-4.48s7 2.33 8.42 10.22a46.51 46.51 0 0 1-.18 17.57 36.59 36.59 0 0 1-2.49 7.67c.46-2 1-4.43 1.48-7.13C41 65.93 37.25 54 31 53.48c-8.88-.74-11.63 10.24-12 16.77a44.2 44.2 0 0 0 1.52 12.53c-1.31-3.77-2.84-9.14-3-12.92-.14-5.57 2.19-11.12 4.48-15.07zM9.77 45.84c1.23-5 1-6.66.12-10.11-.12-.48.95-1 2.8-1.64l.75.27a73.44 73.44 0 0 1-.54 7.35c-.36 1.61-2.33 7.71-3 12.55a61.92 61.92 0 0 0 .36 18.1 42.47 42.47 0 0 0 1.61 6.22 24.63 24.63 0 0 1-1.57-3.4C7.79 68.27 6.31 60 9.77 45.84z" class="a31-cls-23"/><path d="M16.13 38.89a7.21 7.21 0 0 1-.13 3.95A52.85 52.85 0 0 0 12.19 56c-1.31 8.18-.58 14.9.73 18.85 1 2.89 4.24 10.81 4.53 10.08s-3.59-9.36-3.94-16.07c-.44-8.33 2.78-19.43 4.24-22.35s2.34-5.84 2.19-7.45-4.39-2.36-3.81-.17z" class="a31-cls-23"/><path d="M47.87 38.75c1.92-3.2 3.2-12.17 3.46-15.11s-.95-10.13-4.1-11.53c-3.46-1.54-13.72-1.21-15.76.07s-3 1.16-3.82.49c-1.11-.86-7.82-2.23-13.46-1.21S7.52 18.13 7.65 23s1.66 14.47 2.82 16.52 35.09 3.07 37.4-.77z" class="a31-cls-23"/><path d="M47.89 23.71c.19-2.91-.66-10-2.91-12.22a10.1 10.1 0 0 1 2.25.61c3.15 1.4 4.35 8.67 4.1 11.53s-1.54 11.91-3.46 15.11c-.33.56-1.35 1-2.82 1.37 1.58-3.63 2.63-13.21 2.84-16.4zM14.18 11.47h.2C11.57 13.7 11 18.64 11.09 23c.1 4.9 1.19 14.14 2.12 17.39-1.56-.26-2.56-.55-2.75-.88C9.32 37.47 7.78 27.86 7.65 23s.9-10.51 6.53-11.53zM33.94 16.37c1.48.81.16 7-.66 6.88s-1.14-7.86.66-6.88zM38.19 89.59c.63.36 4.89-6.1 6-14.32 1.46-11-2.48-22.64-3.21-22.35s1.17 3.36 1.9 10.67a51.68 51.68 0 0 1-1.46 16.36c-.89 3.05-4.25 9.05-3.23 9.64zM16.71 38.1c-.1-2.25-1.17-7.62-1.17-14.27a49 49 0 0 1 2-12.71 31.33 31.33 0 0 1 4.07.13 41.86 41.86 0 0 0-2.14 14.53c.29 4.09 1.43 12.08 1.22 15.33-1.36-.08-2.63-.17-3.8-.27.11-.9-.11-.98-.18-2.74z" class="a31-cls-23"/></g><g id="a81_extracted_tooth" class="a31-msng-cls-10" data-name="extracted tooth"><path d="M9 10.51l41.67 41.66M50.67 10.51L9 52.17" class="a31-msng-cls-11" data-color-action="stroke" style="stroke:inherit"/></g><g id="a81_denture"><path d="M2 2.83h55v135.01H2z" class="a31-cls-23" transform="rotate(-180 29.5 70.34)"/><path d="M57 60.78A22.63 22.63 0 0 1 44.78 64c-7.64 0-10-3.22-15.79-3.22S19.15 64 13.2 64A24.26 24.26 0 0 1 2 60.78V2.83h55z" class="a31-cls-32" data-color-action="fill" style="fill:inherit"/><path d="M47.87 38.75c1.92-3.2 3.2-12.17 3.46-15.11s-.95-10.13-4.1-11.53c-3.46-1.54-13.72-1.21-15.76.07s-3 1.16-3.82.49c-1.11-.86-7.82-2.23-13.46-1.21S7.52 18.13 7.65 23s1.66 14.47 2.82 16.52 35.09 3.07 37.4-.77z" class="a31-cls-3"/><path d="M47.87 38.75c1.92-3.2 3.2-12.17 3.46-15.11s-.95-10.13-4.1-11.53c-3.46-1.54-13.72-1.21-15.76.07s-3 1.16-3.82.49c-1.11-.86-7.82-2.23-13.46-1.21S7.52 18.13 7.65 23s1.66 14.47 2.82 16.52 35.09 3.07 37.4-.77z" class="a31-cls-7"/><path d="M47.89 23.71c.19-2.91-.66-10-2.91-12.22a10.1 10.1 0 0 1 2.25.61c3.15 1.4 4.35 8.67 4.1 11.53s-1.54 11.91-3.46 15.11c-.33.56-1.35 1-2.82 1.37 1.58-3.63 2.63-13.21 2.84-16.4zM14.18 11.47h.2C11.57 13.7 11 18.64 11.09 23c.1 4.9 1.19 14.14 2.12 17.39-1.56-.26-2.56-.55-2.75-.88C9.32 37.47 7.78 27.86 7.65 23s.9-10.51 6.53-11.53z" class="a31-cls-8"/><path d="M33.94 16.37c1.48.81.16 7-.66 6.88s-1.14-7.86.66-6.88zM16.71 38.1c-.1-2.25-1.17-7.62-1.17-14.27a49 49 0 0 1 2-12.71 31.33 31.33 0 0 1 4.07.13 41.86 41.86 0 0 0-2.14 14.53c.29 4.09 1.43 12.08 1.22 15.33-1.36-.08-2.63-.17-3.8-.27.11-.9-.11-.98-.18-2.74z" class="a31-cls-9"/></g><g id="a81_maryland_bridge_pontic" class="a31-cls-12" data-name="maryland bridge pontic"><path d="M47.87 38.75c1.92-3.2 3.2-12.17 3.46-15.11s-.95-10.13-4.1-11.53c-3.46-1.54-13.72-1.21-15.76.07s-3 1.16-3.82.49c-1.11-.86-7.82-2.23-13.46-1.21S7.52 18.13 7.65 23s1.66 14.47 2.82 16.52 35.09 3.07 37.4-.77z" class="a31-cls-20" data-color-action="fill" style="fill:inherit"/><path d="M2 22h55v7.67H2z" class="a31-cls-20" data-color-action="fill" style="fill:inherit"/></g><g id="a81_maryland_bridge_abutment_mesial" data-name="maryland bridge abutment mesial"><path d="M22.02 22H57v7.67H22.02z" class="a31-cls-12 a31-cls-20" data-color-action="fill" style="fill:inherit"/><path d="M14.18 11.47c5.64-1 12.35.34 13.46 1.21.86.67 1.77.79 3.82-.49s12.31-1.61 15.76-.07c3.15 1.4 4.35 8.67 4.1 11.53s-1.54 11.91-3.46 15.11c0 1.72.62 3.3 1.35 6.59 1.35 6.09 2.5 19.64 0 29.22-2.84 10.85-10.6 19.35-12.33 18.62s.44-6.23 1.89-14.55C41 65.93 37.25 54 31 53.48c-8.88-.74-11.63 10.24-12 16.77-.49 9.74 4.07 18.37 2.1 18.86s-8.82-8.24-10.85-13.93C7.79 68.27 6.31 60 9.77 45.84a20.9 20.9 0 0 0 .83-6.21.57.57 0 0 1-.12-.11C9.32 37.47 7.78 27.86 7.65 23s.9-10.51 6.53-11.53z" class="a31-cls-3"/><path d="M49.34 32.89c-2.39 6.13-1.48 6.37-.12 12.45s2.5 19.64 0 29.22c-2.84 10.85-10.6 19.35-12.33 18.62s.44-6.23 1.89-14.55C41 65.93 37.25 54 31 53.48c-8.88-.74-11.63 10.24-12 16.77-.49 9.74 4.07 18.37 2.1 18.86s-8.82-8.24-10.85-13.93C7.79 68.27 6.31 60 9.77 45.84c1.23-5 1-6.66.12-10.11-.72-2.9 41.9-9.13 39.45-2.84z" class="a31-cls-4"/><path d="M48.39 55.51a73 73 0 0 0-2.69-13.62c-.54-2.33 0-7.71 0-7.71h3.15c-1.76 4.9-.89 5.54.36 11.16 1.35 6.09 2.5 19.64 0 29.22a41 41 0 0 1-6.82 14c2.18-4.26 5.37-11.1 5.64-14.72.36-4.84 1.26-10.08.36-18.33zM22 54.79c2.33-3.94 7.35-4.84 9.5-4.48s7 2.33 8.42 10.22a46.51 46.51 0 0 1-.18 17.57 36.59 36.59 0 0 1-2.49 7.67c.46-2 1-4.43 1.48-7.13C41 65.93 37.25 54 31 53.48c-8.88-.74-11.63 10.24-12 16.77a44.2 44.2 0 0 0 1.52 12.53c-1.31-3.77-2.84-9.14-3-12.92-.14-5.57 2.19-11.12 4.48-15.07zM9.77 45.84c1.23-5 1-6.66.12-10.11-.12-.48.95-1 2.8-1.64l.75.27a73.44 73.44 0 0 1-.54 7.35c-.36 1.61-2.33 7.71-3 12.55a61.92 61.92 0 0 0 .36 18.1 42.47 42.47 0 0 0 1.61 6.22 24.63 24.63 0 0 1-1.57-3.4C7.79 68.27 6.31 60 9.77 45.84z" class="a31-cls-5"/><path d="M16.13 38.89a7.21 7.21 0 0 1-.13 3.95A52.85 52.85 0 0 0 12.19 56c-1.31 8.18-.58 14.9.73 18.85 1 2.89 4.24 10.81 4.53 10.08s-3.59-9.36-3.94-16.07c-.44-8.33 2.78-19.43 4.24-22.35s2.34-5.84 2.19-7.45-4.39-2.36-3.81-.17z" class="a31-cls-6"/><path d="M47.87 38.75c1.92-3.2 3.2-12.17 3.46-15.11s-.95-10.13-4.1-11.53c-3.46-1.54-13.72-1.21-15.76.07s-3 1.16-3.82.49c-1.11-.86-7.82-2.23-13.46-1.21S7.52 18.13 7.65 23s1.66 14.47 2.82 16.52 35.09 3.07 37.4-.77z" class="a31-cls-7"/><path d="M47.89 23.71c.19-2.91-.66-10-2.91-12.22a10.1 10.1 0 0 1 2.25.61c3.15 1.4 4.35 8.67 4.1 11.53s-1.54 11.91-3.46 15.11c-.33.56-1.35 1-2.82 1.37 1.58-3.63 2.63-13.21 2.84-16.4zM14.18 11.47h.2C11.57 13.7 11 18.64 11.09 23c.1 4.9 1.19 14.14 2.12 17.39-1.56-.26-2.56-.55-2.75-.88C9.32 37.47 7.78 27.86 7.65 23s.9-10.51 6.53-11.53z" class="a31-cls-8"/><path d="M33.94 16.37c1.48.81.16 7-.66 6.88s-1.14-7.86.66-6.88z" class="a31-cls-9"/><path d="M38.19 89.59c.63.36 4.89-6.1 6-14.32 1.46-11-2.48-22.64-3.21-22.35s1.17 3.36 1.9 10.67a51.68 51.68 0 0 1-1.46 16.36c-.89 3.05-4.25 9.05-3.23 9.64z" class="a31-cls-6"/><path d="M16.71 38.1c-.1-2.25-1.17-7.62-1.17-14.27a49 49 0 0 1 2-12.71 31.33 31.33 0 0 1 4.07.13 41.86 41.86 0 0 0-2.14 14.53c.29 4.09 1.43 12.08 1.22 15.33-1.36-.08-2.63-.17-3.8-.27.11-.9-.11-.98-.18-2.74z" class="a31-cls-9"/></g><g id="a81_maryland_bridge_abutment_distal" data-name="maryland bridge abutment distal"><path d="M2 22h34.98v7.67H2z" class="a31-cls-12 a31-cls-20" data-color-action="fill" style="fill:inherit"/><path d="M14.18 11.47c5.64-1 12.35.34 13.46 1.21.86.67 1.77.79 3.82-.49s12.31-1.61 15.76-.07c3.15 1.4 4.35 8.67 4.1 11.53s-1.54 11.91-3.46 15.11c0 1.72.62 3.3 1.35 6.59 1.35 6.09 2.5 19.64 0 29.22-2.84 10.85-10.6 19.35-12.33 18.62s.44-6.23 1.89-14.55C41 65.93 37.25 54 31 53.48c-8.88-.74-11.63 10.24-12 16.77-.49 9.74 4.07 18.37 2.1 18.86s-8.82-8.24-10.85-13.93C7.79 68.27 6.31 60 9.77 45.84a20.9 20.9 0 0 0 .83-6.21.57.57 0 0 1-.12-.11C9.32 37.47 7.78 27.86 7.65 23s.9-10.51 6.53-11.53z" class="a31-cls-3"/><path d="M49.34 32.89c-2.39 6.13-1.48 6.37-.12 12.45s2.5 19.64 0 29.22c-2.84 10.85-10.6 19.35-12.33 18.62s.44-6.23 1.89-14.55C41 65.93 37.25 54 31 53.48c-8.88-.74-11.63 10.24-12 16.77-.49 9.74 4.07 18.37 2.1 18.86s-8.82-8.24-10.85-13.93C7.79 68.27 6.31 60 9.77 45.84c1.23-5 1-6.66.12-10.11-.72-2.9 41.9-9.13 39.45-2.84z" class="a31-cls-4"/><path d="M48.39 55.51a73 73 0 0 0-2.69-13.62c-.54-2.33 0-7.71 0-7.71h3.15c-1.76 4.9-.89 5.54.36 11.16 1.35 6.09 2.5 19.64 0 29.22a41 41 0 0 1-6.82 14c2.18-4.26 5.37-11.1 5.64-14.72.36-4.84 1.26-10.08.36-18.33zM22 54.79c2.33-3.94 7.35-4.84 9.5-4.48s7 2.33 8.42 10.22a46.51 46.51 0 0 1-.18 17.57 36.59 36.59 0 0 1-2.49 7.67c.46-2 1-4.43 1.48-7.13C41 65.93 37.25 54 31 53.48c-8.88-.74-11.63 10.24-12 16.77a44.2 44.2 0 0 0 1.52 12.53c-1.31-3.77-2.84-9.14-3-12.92-.14-5.57 2.19-11.12 4.48-15.07zM9.77 45.84c1.23-5 1-6.66.12-10.11-.12-.48.95-1 2.8-1.64l.75.27a73.44 73.44 0 0 1-.54 7.35c-.36 1.61-2.33 7.71-3 12.55a61.92 61.92 0 0 0 .36 18.1 42.47 42.47 0 0 0 1.61 6.22 24.63 24.63 0 0 1-1.57-3.4C7.79 68.27 6.31 60 9.77 45.84z" class="a31-cls-5"/><path d="M16.13 38.89a7.21 7.21 0 0 1-.13 3.95A52.85 52.85 0 0 0 12.19 56c-1.31 8.18-.58 14.9.73 18.85 1 2.89 4.24 10.81 4.53 10.08s-3.59-9.36-3.94-16.07c-.44-8.33 2.78-19.43 4.24-22.35s2.34-5.84 2.19-7.45-4.39-2.36-3.81-.17z" class="a31-cls-6"/><path d="M47.87 38.75c1.92-3.2 3.2-12.17 3.46-15.11s-.95-10.13-4.1-11.53c-3.46-1.54-13.72-1.21-15.76.07s-3 1.16-3.82.49c-1.11-.86-7.82-2.23-13.46-1.21S7.52 18.13 7.65 23s1.66 14.47 2.82 16.52 35.09 3.07 37.4-.77z" class="a31-cls-7"/><path d="M47.89 23.71c.19-2.91-.66-10-2.91-12.22a10.1 10.1 0 0 1 2.25.61c3.15 1.4 4.35 8.67 4.1 11.53s-1.54 11.91-3.46 15.11c-.33.56-1.35 1-2.82 1.37 1.58-3.63 2.63-13.21 2.84-16.4zM14.18 11.47h.2C11.57 13.7 11 18.64 11.09 23c.1 4.9 1.19 14.14 2.12 17.39-1.56-.26-2.56-.55-2.75-.88C9.32 37.47 7.78 27.86 7.65 23s.9-10.51 6.53-11.53z" class="a31-cls-8"/><path d="M33.94 16.37c1.48.81.16 7-.66 6.88s-1.14-7.86.66-6.88z" class="a31-cls-9"/><path d="M38.19 89.59c.63.36 4.89-6.1 6-14.32 1.46-11-2.48-22.64-3.21-22.35s1.17 3.36 1.9 10.67a51.68 51.68 0 0 1-1.46 16.36c-.89 3.05-4.25 9.05-3.23 9.64z" class="a31-cls-6"/><path d="M16.71 38.1c-.1-2.25-1.17-7.62-1.17-14.27a49 49 0 0 1 2-12.71 31.33 31.33 0 0 1 4.07.13 41.86 41.86 0 0 0-2.14 14.53c.29 4.09 1.43 12.08 1.22 15.33-1.36-.08-2.63-.17-3.8-.27.11-.9-.11-.98-.18-2.74z" class="a31-cls-9"/></g><g id="a81_maryland_bridge_abutment" data-name="maryland bridge abutment"><path d="M2 22h55v7.67H2z" class="a31-cls-12 a31-cls-20" data-color-action="fill" style="fill:inherit"/><path d="M14.18 11.47c5.64-1 12.35.34 13.46 1.21.86.67 1.77.79 3.82-.49s12.31-1.61 15.76-.07c3.15 1.4 4.35 8.67 4.1 11.53s-1.54 11.91-3.46 15.11c0 1.72.62 3.3 1.35 6.59 1.35 6.09 2.5 19.64 0 29.22-2.84 10.85-10.6 19.35-12.33 18.62s.44-6.23 1.89-14.55C41 65.93 37.25 54 31 53.48c-8.88-.74-11.63 10.24-12 16.77-.49 9.74 4.07 18.37 2.1 18.86s-8.82-8.24-10.85-13.93C7.79 68.27 6.31 60 9.77 45.84a20.9 20.9 0 0 0 .83-6.21.57.57 0 0 1-.12-.11C9.32 37.47 7.78 27.86 7.65 23s.9-10.51 6.53-11.53z" class="a31-cls-3"/><path d="M49.34 32.89c-2.39 6.13-1.48 6.37-.12 12.45s2.5 19.64 0 29.22c-2.84 10.85-10.6 19.35-12.33 18.62s.44-6.23 1.89-14.55C41 65.93 37.25 54 31 53.48c-8.88-.74-11.63 10.24-12 16.77-.49 9.74 4.07 18.37 2.1 18.86s-8.82-8.24-10.85-13.93C7.79 68.27 6.31 60 9.77 45.84c1.23-5 1-6.66.12-10.11-.72-2.9 41.9-9.13 39.45-2.84z" class="a31-cls-4"/><path d="M48.39 55.51a73 73 0 0 0-2.69-13.62c-.54-2.33 0-7.71 0-7.71h3.15c-1.76 4.9-.89 5.54.36 11.16 1.35 6.09 2.5 19.64 0 29.22a41 41 0 0 1-6.82 14c2.18-4.26 5.37-11.1 5.64-14.72.36-4.84 1.26-10.08.36-18.33zM22 54.79c2.33-3.94 7.35-4.84 9.5-4.48s7 2.33 8.42 10.22a46.51 46.51 0 0 1-.18 17.57 36.59 36.59 0 0 1-2.49 7.67c.46-2 1-4.43 1.48-7.13C41 65.93 37.25 54 31 53.48c-8.88-.74-11.63 10.24-12 16.77a44.2 44.2 0 0 0 1.52 12.53c-1.31-3.77-2.84-9.14-3-12.92-.14-5.57 2.19-11.12 4.48-15.07zM9.77 45.84c1.23-5 1-6.66.12-10.11-.12-.48.95-1 2.8-1.64l.75.27a73.44 73.44 0 0 1-.54 7.35c-.36 1.61-2.33 7.71-3 12.55a61.92 61.92 0 0 0 .36 18.1 42.47 42.47 0 0 0 1.61 6.22 24.63 24.63 0 0 1-1.57-3.4C7.79 68.27 6.31 60 9.77 45.84z" class="a31-cls-5"/><path d="M16.13 38.89a7.21 7.21 0 0 1-.13 3.95A52.85 52.85 0 0 0 12.19 56c-1.31 8.18-.58 14.9.73 18.85 1 2.89 4.24 10.81 4.53 10.08s-3.59-9.36-3.94-16.07c-.44-8.33 2.78-19.43 4.24-22.35s2.34-5.84 2.19-7.45-4.39-2.36-3.81-.17z" class="a31-cls-6"/><path d="M47.87 38.75c1.92-3.2 3.2-12.17 3.46-15.11s-.95-10.13-4.1-11.53c-3.46-1.54-13.72-1.21-15.76.07s-3 1.16-3.82.49c-1.11-.86-7.82-2.23-13.46-1.21S7.52 18.13 7.65 23s1.66 14.47 2.82 16.52 35.09 3.07 37.4-.77z" class="a31-cls-7"/><path d="M47.89 23.71c.19-2.91-.66-10-2.91-12.22a10.1 10.1 0 0 1 2.25.61c3.15 1.4 4.35 8.67 4.1 11.53s-1.54 11.91-3.46 15.11c-.33.56-1.35 1-2.82 1.37 1.58-3.63 2.63-13.21 2.84-16.4zM14.18 11.47h.2C11.57 13.7 11 18.64 11.09 23c.1 4.9 1.19 14.14 2.12 17.39-1.56-.26-2.56-.55-2.75-.88C9.32 37.47 7.78 27.86 7.65 23s.9-10.51 6.53-11.53z" class="a31-cls-8"/><path d="M33.94 16.37c1.48.81.16 7-.66 6.88s-1.14-7.86.66-6.88z" class="a31-cls-9"/><path d="M38.19 89.59c.63.36 4.89-6.1 6-14.32 1.46-11-2.48-22.64-3.21-22.35s1.17 3.36 1.9 10.67a51.68 51.68 0 0 1-1.46 16.36c-.89 3.05-4.25 9.05-3.23 9.64z" class="a31-cls-6"/><path d="M16.71 38.1c-.1-2.25-1.17-7.62-1.17-14.27a49 49 0 0 1 2-12.71 31.33 31.33 0 0 1 4.07.13 41.86 41.86 0 0 0-2.14 14.53c.29 4.09 1.43 12.08 1.22 15.33-1.36-.08-2.63-.17-3.8-.27.11-.9-.11-.98-.18-2.74z" class="a31-cls-9"/></g><g id="a81_bridge_abutment_mesial" class="a31-cls-12" data-name="bridge abutment mesial"><path d="M47.87 38.75c1.92-3.2 3.2-12.17 3.46-15.11s-.95-10.13-4.1-11.53c-3.46-1.54-13.72-1.21-15.76.07s-3 1.16-3.82.49c-1.11-.86-7.82-2.23-13.46-1.21S7.52 18.13 7.65 23s1.66 14.47 2.82 16.52 35.09 3.07 37.4-.77z" class="a31-cls-18" data-color-action="fill" style="fill:inherit"/><path d="M22.02 22H57v7.67H22.02z" class="a31-cls-18" data-color-action="fill" style="fill:inherit"/></g><g id="a81_bridge_abutment_distal" class="a31-cls-12" data-name="bridge abutment distal"><path d="M47.87 38.75c1.92-3.2 3.2-12.17 3.46-15.11s-.95-10.13-4.1-11.53c-3.46-1.54-13.72-1.21-15.76.07s-3 1.16-3.82.49c-1.11-.86-7.82-2.23-13.46-1.21S7.52 18.13 7.65 23s1.66 14.47 2.82 16.52 35.09 3.07 37.4-.77z" class="a31-cls-18" data-color-action="fill" style="fill:inherit"/><path d="M2 22h34.98v7.67H2z" class="a31-cls-18" data-color-action="fill" style="fill:inherit"/></g><g id="a81_bridge_abutment" class="a31-cls-12" data-name="bridge abutment"><path d="M47.87 38.75c1.92-3.2 3.2-12.17 3.46-15.11s-.95-10.13-4.1-11.53c-3.46-1.54-13.72-1.21-15.76.07s-3 1.16-3.82.49c-1.11-.86-7.82-2.23-13.46-1.21S7.52 18.13 7.65 23s1.66 14.47 2.82 16.52 35.09 3.07 37.4-.77z" class="a31-cls-18" data-color-action="fill" style="fill:inherit"/><path d="M2 22h55v7.67H2z" class="a31-cls-18" data-color-action="fill" style="fill:inherit"/></g><g id="a81_bridge_pontic" data-name="bridge pontic"><path d="M14.18 11.47c5.64-1 12.35.34 13.46 1.21.86.67 1.77.79 3.82-.49s12.31-1.61 15.76-.07c3.15 1.4 4.35 8.67 4.1 11.53s-1.54 11.91-3.46 15.11c0 1.72.62 3.3 1.35 6.59 1.35 6.09 2.5 19.64 0 29.22-2.84 10.85-10.6 19.35-12.33 18.62s.44-6.23 1.89-14.55C41 65.93 37.25 54 31 53.48c-8.88-.74-11.63 10.24-12 16.77-.49 9.74 4.07 18.37 2.1 18.86s-8.82-8.24-10.85-13.93C7.79 68.27 6.31 60 9.77 45.84a20.9 20.9 0 0 0 .83-6.21.57.57 0 0 1-.12-.11C9.32 37.47 7.78 27.86 7.65 23s.9-10.51 6.53-11.53z" class="a31-cls-3"/><path d="M49.34 32.89c-2.39 6.13-1.48 6.37-.12 12.45s2.5 19.64 0 29.22c-2.84 10.85-10.6 19.35-12.33 18.62s.44-6.23 1.89-14.55C41 65.93 37.25 54 31 53.48c-8.88-.74-11.63 10.24-12 16.77-.49 9.74 4.07 18.37 2.1 18.86s-8.82-8.24-10.85-13.93C7.79 68.27 6.31 60 9.77 45.84c1.23-5 1-6.66.12-10.11-.72-2.9 41.9-9.13 39.45-2.84z" class="a31-cls-23"/><path d="M48.39 55.51a73 73 0 0 0-2.69-13.62c-.54-2.33 0-7.71 0-7.71h3.15c-1.76 4.9-.89 5.54.36 11.16 1.35 6.09 2.5 19.64 0 29.22a41 41 0 0 1-6.82 14c2.18-4.26 5.37-11.1 5.64-14.72.36-4.84 1.26-10.08.36-18.33zM22 54.79c2.33-3.94 7.35-4.84 9.5-4.48s7 2.33 8.42 10.22a46.51 46.51 0 0 1-.18 17.57 36.59 36.59 0 0 1-2.49 7.67c.46-2 1-4.43 1.48-7.13C41 65.93 37.25 54 31 53.48c-8.88-.74-11.63 10.24-12 16.77a44.2 44.2 0 0 0 1.52 12.53c-1.31-3.77-2.84-9.14-3-12.92-.14-5.57 2.19-11.12 4.48-15.07zM9.77 45.84c1.23-5 1-6.66.12-10.11-.12-.48.95-1 2.8-1.64l.75.27a73.44 73.44 0 0 1-.54 7.35c-.36 1.61-2.33 7.71-3 12.55a61.92 61.92 0 0 0 .36 18.1 42.47 42.47 0 0 0 1.61 6.22 24.63 24.63 0 0 1-1.57-3.4C7.79 68.27 6.31 60 9.77 45.84z" class="a31-cls-23"/><path d="M16.13 38.89a7.21 7.21 0 0 1-.13 3.95A52.85 52.85 0 0 0 12.19 56c-1.31 8.18-.58 14.9.73 18.85 1 2.89 4.24 10.81 4.53 10.08s-3.59-9.36-3.94-16.07c-.44-8.33 2.78-19.43 4.24-22.35s2.34-5.84 2.19-7.45-4.39-2.36-3.81-.17z" class="a31-cls-23"/><path d="M47.87 38.75c1.92-3.2 3.2-12.17 3.46-15.11s-.95-10.13-4.1-11.53c-3.46-1.54-13.72-1.21-15.76.07s-3 1.16-3.82.49c-1.11-.86-7.82-2.23-13.46-1.21S7.52 18.13 7.65 23s1.66 14.47 2.82 16.52 35.09 3.07 37.4-.77z" class="a31-cls-7"/><path d="M47.89 23.71c.19-2.91-.66-10-2.91-12.22a10.1 10.1 0 0 1 2.25.61c3.15 1.4 4.35 8.67 4.1 11.53s-1.54 11.91-3.46 15.11c-.33.56-1.35 1-2.82 1.37 1.58-3.63 2.63-13.21 2.84-16.4zM14.18 11.47h.2C11.57 13.7 11 18.64 11.09 23c.1 4.9 1.19 14.14 2.12 17.39-1.56-.26-2.56-.55-2.75-.88C9.32 37.47 7.78 27.86 7.65 23s.9-10.51 6.53-11.53z" class="a31-cls-8"/><path d="M33.94 16.37c1.48.81.16 7-.66 6.88s-1.14-7.86.66-6.88z" class="a31-cls-9"/><path d="M38.19 89.59c.63.36 4.89-6.1 6-14.32 1.46-11-2.48-22.64-3.21-22.35s1.17 3.36 1.9 10.67a51.68 51.68 0 0 1-1.46 16.36c-.89 3.05-4.25 9.05-3.23 9.64z" class="a31-cls-23"/><path d="M16.71 38.1c-.1-2.25-1.17-7.62-1.17-14.27a49 49 0 0 1 2-12.71 31.33 31.33 0 0 1 4.07.13 41.86 41.86 0 0 0-2.14 14.53c.29 4.09 1.43 12.08 1.22 15.33-1.36-.08-2.63-.17-3.8-.27.11-.9-.11-.98-.18-2.74z" class="a31-cls-9"/><g class="a31-cls-12"><path d="M47.87 38.75c1.92-3.2 3.2-12.17 3.46-15.11s-.95-10.13-4.1-11.53c-3.46-1.54-13.72-1.21-15.76.07s-3 1.16-3.82.49c-1.11-.86-7.82-2.23-13.46-1.21S7.52 18.13 7.65 23s1.66 14.47 2.82 16.52 35.09 3.07 37.4-.77z" class="a31-cls-18" data-color-action="fill" style="fill:inherit"/><path d="M2 22h55v7.67H2z" class="a31-cls-18" data-color-action="fill" style="fill:inherit"/></g></g><g id="a81_implant_mini" data-name="implant mini"><path d="M2.39 1.79h55v137.17h-55z" class="a31-cls-23"/><path d="M29.72 77.93h-.44l-1-8.49V28.6h2.44v40.84l-1 8.49z" class="a31-cls-18" data-color-action="fill" style="fill:inherit"/><path d="M29.42 77.93h-.07l-.4-8.49V28.6h.37v40.84l.1 8.49z" class="a31-cls-26"/><path d="M28.28 28.6h2.44v.63h-2.44z" class="a31-cls-29" data-color-action="fill" style="fill:inherit"/><g class="a31-cls-30"><path d="M28.28 29.23l2.44 1v-.63l-2.44-1v.63zM28.28 30.68l2.44 1v-.63l-2.44-1v.63zM28.28 32.12l2.44 1v-.63l-2.44-1v.63zM28.28 33.57l2.44 1v-.63l-2.44-1v.63zM28.28 35.02l2.44 1v-.64l-2.44-1v.64zM28.28 36.46l2.44 1v-.63l-2.44-1v.63zM28.28 37.91l2.44 1v-.64l-2.44-1v.64zM28.28 39.35l2.44 1v-.63l-2.44-1v.63zM28.28 40.8l2.44 1v-.64l-2.44-1v.64zM28.28 42.24l2.44 1v-.63l-2.44-1v.63zM28.28 43.69l2.44 1v-.64l-2.44-1v.64zM28.28 45.13l2.44 1v-.63l-2.44-1v.63zM28.28 46.58l2.44 1v-.63l-2.44-1v.63zM28.28 48.02l2.44 1v-.63l-2.44-1v.63zM28.28 49.47l2.44 1v-.63l-2.44-1v.63zM28.28 50.91l2.44 1v-.63l-2.44-1v.63zM28.28 52.36l2.44 1v-.63l-2.44-1v.63zM28.28 53.8l2.44 1.01v-.64l-2.44-1v.63zM28.28 55.25l2.44 1v-.63l-2.44-1v.63zM28.28 56.7l2.44 1v-.64l-2.44-1v.64zM28.28 58.14l2.44 1v-.63l-2.44-1v.63zM28.28 59.59l2.44 1v-.63l-2.44-1.01v.64zM28.28 61.03l2.44 1v-.63l-2.44-1v.63zM28.28 62.48l2.44 1v-.63l-2.44-1v.63zM28.28 63.92l2.44 1v-.63l-2.44-1v.63zM28.28 65.37l2.44 1v-.63l-2.44-1v.63zM28.28 66.81l2.44 1v-.63l-2.44-1v.63zM28.28 68.26l2.44 1v-.63l-2.44-1v.63zM28.28 69.44l.03.28 2.27.93.07-.61-2.37-.97v.37zM28.49 71.24l1.93.79.07-.61-2.08-.85.08.67zM28.67 72.76l1.58.65.08-.61-1.74-.71.08.67zM28.85 74.28l1.24.5.07-.6-1.39-.57.08.67zM29.03 75.79l.9.37.07-.6-1.05-.43.08.66zM29.2 77.31l.57.23.07-.6-.71-.29.07.66z" class="a31-cls-29" data-color-action="fill" style="fill:inherit"/></g><circle cx="29.5" cy="24.73" r="2.24" class="a31-cls-18" data-color-action="fill" style="fill:inherit"/><path d="M27.67 25.95h3.67v3h-3.67z" class="a31-cls-18" data-color-action="fill" style="fill:inherit"/><path d="M28.49 25.95h.55v3h-.55z" class="a31-cls-26"/><path d="M28.7 23.37h-.21a2.32 2.32 0 0 0-.49 1.29 2.37 2.37 0 0 0 .52 1.3H29a2 2 0 0 1-.73-1.37 1.5 1.5 0 0 1 .43-1.22z" class="a31-cls-26"/><path d="M28.28 34.67h2.44v.63h-2.44z" class="a31-cls-29" data-color-action="fill" style="fill:inherit"/><path d="M32.11 28.92h-5.22l.87 5.71h3.48l.87-5.71z" class="a31-cls-18" data-color-action="fill" style="fill:inherit"/><path d="M28.85 28.92h-.79l.48 5.71h.53l-.22-5.71z" class="a31-cls-26"/></g><g id="a81_implant_cylinder" data-name="implant cylinder"><path d="M2 1.83h55V139H2z" class="a31-cls-23"/><path d="M26.17 25.65h6.67v49.33h-6.67z" class="a31-cls-18" data-color-action="fill" style="fill:inherit"/><path d="M24.5 22.66h10v3h-10z" class="a31-cls-18" data-color-action="fill" style="fill:inherit"/><path d="M28 25.65h1v49.33h-1z" class="a31-cls-26"/><path d="M26.75 22.66h1.5v3h-1.5z" class="a31-cls-26"/><path d="M24.5 75.02h10v3h-10z" class="a31-cls-18" data-color-action="fill" style="fill:inherit"/><path d="M26.75 75.02h1.5v3h-1.5z" class="a31-cls-26"/><path d="M26.17 25.65h6.67v.63h-6.67zM26.17 74.35h6.67v.63h-6.67z" class="a31-cls-29" data-color-action="fill" style="fill:inherit"/><g class="a31-cls-30"><path d="M32.83 73.35l-6.66 1.01v.63l6.66-1v-.64zM32.83 71.91l-6.66 1v.63l6.66-1v-.63zM32.83 70.46l-6.66 1v.64l6.66-1.01v-.63zM32.83 69.02l-6.66 1v.63l6.66-1v-.63zM32.83 67.57l-6.66 1v.63l6.66-1v-.63zM32.83 66.13l-6.66 1v.63l6.66-1v-.63zM32.83 64.68l-6.66 1v.63l6.66-1v-.63zM32.83 63.24l-6.66 1v.63l6.66-1v-.63zM32.83 61.79l-6.66 1v.63l6.66-1v-.63zM32.83 60.34l-6.66 1.01v.63l6.66-1v-.64zM32.83 58.9l-6.66 1v.63l6.66-1v-.63zM32.83 57.45l-6.66 1v.64l6.66-1v-.64zM32.83 56.01l-6.66 1v.63l6.66-1v-.63zM32.83 54.56l-6.66 1v.64l6.66-1v-.64zM32.83 53.12l-6.66 1v.63l6.66-1v-.63zM32.83 51.67l-6.66 1v.63l6.66-1v-.63zM32.83 50.23l-6.66 1v.63l6.66-1v-.63zM32.83 48.78l-6.66 1v.63l6.66-1v-.63zM32.83 47.34l-6.66 1v.63l6.66-1v-.63zM32.83 45.89l-6.66 1v.63l6.66-1v-.63zM32.83 44.45l-6.66 1v.63l6.66-1v-.63zM32.83 43l-6.66 1v.63l6.66-1V43zM32.83 41.55l-6.66 1v.64l6.66-1v-.64zM32.83 40.11l-6.66 1v.63l6.66-1v-.63zM32.83 38.66l-6.66 1v.64l6.66-1v-.64zM32.83 37.22l-6.66 1v.63l6.66-1v-.63zM32.83 35.77l-6.66 1v.64l6.66-1v-.64zM32.83 34.33l-6.66 1v.63l6.66-1v-.63zM32.83 32.88l-6.66 1v.63l6.66-1v-.63zM32.83 31.44l-6.66 1v.63l6.66-1v-.63zM32.83 29.99l-6.66 1v.63l6.66-1v-.63zM32.83 28.55l-6.66 1v.63l6.66-1v-.63zM32.83 27.1l-6.66 1v.63l6.66-1v-.63zM32.83 25.65l-6.66 1.01v.63l6.66-1v-.64z" class="a31-cls-29" data-color-action="fill" style="fill:inherit"/></g></g><g id="a81_implant_blade" data-name="implant blade"><path d="M2 1.83h55V139H2z" class="a31-cls-23"/><path d="M26.17 25.65h6.67v49.33h-6.67z" class="a31-cls-18" data-color-action="fill" style="fill:inherit"/><path d="M24.5 22.66h10v3h-10z" class="a31-cls-18" data-color-action="fill" style="fill:inherit"/><path d="M28 25.65h1v49.33h-1z" class="a31-cls-26"/><path d="M26.75 22.66h1.5v3h-1.5z" class="a31-cls-26"/><path d="M26.17 25.65h6.67v.63h-6.67z" class="a31-cls-29" data-color-action="fill" style="fill:inherit"/></g><path id="a81_watch_tooth" d="M8.27 153.9a3.26 3.26 0 0 1 3.22-3.26 3.24 3.24 0 1 1 0 6.47 3.25 3.25 0 0 1-3.22-3.21zm1-5.91l-.88-18.09h6.15l-.8 18.1z" class="a31-cls-11" data-color-action="fill" style="fill:inherit" data-name="watch tooth"/><path id="a81_border" d="M0 0h59v161H0z" class="a31-cls-15" transform="rotate(180 29.5 80.5)"/></defs></g><g class="b31-cls-1" transform="translate(0 66)"><g id="_31B" data-name="#31B"><path d="M50 14.13c1.16 2.65 1 7.9.49 9.33s.74 2.15.74 4.79.74 6.46-.49 9.09-4.74 7.18-6.69 8.38-22.42 1.68-25.87.72-7.18-5.75-7.64-7.66-2.22-7.42-1.72-9.33-1.23-6.22-1.23-8.61 1.72-9.09 3.94-10.53 14.29-1.68 16-.48 3.7.24 5.67 0 14.06-1.92 16.8 4.3z" class="b31-cls-2"/><path d="M50 14.13c1.16 2.65 1 7.9.49 9.33s.74 2.15.74 4.79.74 6.46-.49 9.09-4.74 7.18-6.69 8.38-22.42 1.68-25.87.72-7.18-5.75-7.64-7.66-2.22-7.42-1.72-9.33-1.23-6.22-1.23-8.61 1.72-9.09 3.94-10.53 14.29-1.68 16-.48 3.7.24 5.67 0 14.06-1.92 16.8 4.3z" class="b31-cls-3"/><path d="M30 20.63c1.28.35-.49 3.11 1 4.55s11.09 1.2 10.6 2.39-6.65 0-8.13.48-.31 6.19-2 6-1.66-5.71-3.14-6-6.65 3.11-7.39 1.68 5.42-2.63 6.9-3.83.44-5.74 2.16-5.27z" class="b31-cls-4"/><path d="M48 14.85a18.8 18.8 0 0 0-8-2.63c-2.28 0-6.4 0-7.77.48s-3.66 1-4.8.24-7.54-.72-10.51-.72-5.92-.72-6.83 2.63-1.37 4.79-1.37 7.66a5.91 5.91 0 0 1-.48 2.23 19.72 19.72 0 0 1-.67-3.91c0-2.39 1.72-9.09 3.94-10.53s14.29-1.68 16-.48 3.7.24 5.67 0 14-1.91 16.76 4.31c1.16 2.65 1 7.9.49 9.33-.4 1.16.32 1.86.61 3.46A11.67 11.67 0 0 1 49.16 23c-.23-1.93 0-7.19-1.16-8.15z" class="b31-cls-5"/><path d="M15.29 43.91c2.51.72 10.73-.36 12.1-.36S30 42.36 31 43.31s4.67.53 7 .29a67.86 67.86 0 0 0 8.32-1.27c1.26-.31 3.54-3.26 2.88-2.27-1.56 2.32-3.67 4.81-5.06 5.65-2 1.2-22.42 1.68-25.87.72-2.16-.6-4.41-2.69-5.92-4.65-.99-1.16.42 1.41 2.94 2.13z" class="b31-cls-6"/></g><defs><g id="b81_splinted_crowns" data-name="splinted crowns"><path d="M28 51.75h3v3h-3z" class="b31-cls-8"/><path d="M28 51.75h3v3h-3z" class="b31-cls-8"/><path d="M28 51.75h3v3h-3z" class="b31-cls-8"/></g><path id="b81_cusp_1" d="M32 32.83l5.89 13.77c3.14-.21 5.55-.52 6.17-.89 1.86-1.13 5-5.24 6.42-7.91l-16-6.58A6.35 6.35 0 0 1 32 32.83z" class="b31-cls-7" data-color-action="fill" style="fill:inherit" data-name="cusp 1"/><path id="b81_groove_1" d="M30 33.17a6 6 0 0 1-.77-.05l-5.6 13.78c4.24.11 9.93 0 14.26-.29L32 32.83a6 6 0 0 1-2 .34z" class="b31-cls-7" data-color-action="fill" style="fill:inherit" data-name="groove 1"/><path id="b81_cusp_2" d="M26.16 31.79l-15.4 7.58c.95 2.16 4.28 6.19 7.42 7.07a29.85 29.85 0 0 0 5.45.47l5.6-13.79a6.16 6.16 0 0 1-3.07-1.33z" class="b31-cls-7" data-color-action="fill" style="fill:inherit" data-name="cusp 2"/><path id="b81_mesial" d="M51.26 35.39c.37-2.36-.06-5.11-.06-7.15 0-2.63-1.23-3.35-.74-4.79a19.15 19.15 0 0 0 .17-6.73c-1.76 2.56-3.57 5.91-3.63 9.52-.06 3.47 2.16 6.55 4.26 9.15z" class="b31-cls-7" data-color-action="fill" style="fill:inherit"/><path id="b81_mesial_pit" d="M34 21a7.15 7.15 0 0 1 .44 10.25l16 6.58.23-.47a7.23 7.23 0 0 0 .55-1.95c-2.1-2.61-4.32-5.69-4.26-9.14.06-3.61 1.87-7 3.63-9.52a10.85 10.85 0 0 0-.59-2.43z" class="b31-cls-7" data-color-action="fill" style="fill:inherit" data-name="mesial pit"/><path id="b81_central_pit" d="M23.59 26.32a7 7 0 0 0 2.58 5.48 6.16 6.16 0 0 0 3.07 1.32 5.87 5.87 0 0 0 2.76-.29 6.35 6.35 0 0 0 2.49-1.6A7.15 7.15 0 0 0 34 21a6.22 6.22 0 0 0-2.71-1.37 5.93 5.93 0 0 0-2.82.06 6.27 6.27 0 0 0-2.76 1.55 7 7 0 0 0-2.12 5.08z" class="b31-cls-7" data-color-action="fill" style="fill:inherit" data-name="central pit"/><path id="b81_distal_pit" d="M23.59 26.32a7 7 0 0 1 2.15-5.1l-16.43-7.6a25.36 25.36 0 0 0-1.13 3.48c1.56 2.71 3.3 6.6 3.45 9.59.12 2.39-.84 5.31-2.15 8.15.4 1.6.84 3.11 1.06 3.94a4.1 4.1 0 0 0 .22.59l15.4-7.58a7 7 0 0 1-2.57-5.47z" class="b31-cls-7" data-color-action="fill" style="fill:inherit" data-name="distal pit"/><path id="b81_distal" d="M8.18 17.1a17.39 17.39 0 0 0-.59 3.73c0 2.39 1.72 6.7 1.23 8.61-.28 1.08.15 3.31.67 5.39 1.31-2.84 2.27-5.76 2.15-8.15-.17-2.98-1.91-6.87-3.46-9.58z" class="b31-cls-7" data-color-action="fill" style="fill:inherit"/><path id="b81_cusp_3" d="M34 21l16-6.66v-.21c-2.09-4.8-9.76-4.9-14.06-4.58l-4.6 10.06A6.22 6.22 0 0 1 34 21z" class="b31-cls-7" data-color-action="fill" style="fill:inherit" data-name="cusp 3"/><path id="b81_groove_2" d="M30 19.46a6 6 0 0 1 1.31.14l4.6-10.06c-1.27.09-2.25.22-2.7.28-2 .24-3.94 1.2-5.67 0a8.13 8.13 0 0 0-3.16-.65l4.11 10.49a6 6 0 0 1 1.51-.2z" class="b31-cls-7" data-color-action="fill" style="fill:inherit" data-name="groove 2"/><path id="b81_cusp_4" d="M28.49 19.66L24.38 9.17c-4.25-.34-11.23.07-12.86 1.13a7.51 7.51 0 0 0-2.22 3.32l16.43 7.59a6.27 6.27 0 0 1 2.76-1.55z" class="b31-cls-7" data-color-action="fill" style="fill:inherit" data-name="cusp 4"/><g id="b81_veneer"><path d="M28 51.75h3v3h-3z" class="b31-cls-8"/><path d="M28 51.75h3v3h-3z" class="b31-cls-8"/><path d="M28 51.75h3v3h-3z" class="b31-cls-8"/></g><g id="b81_tissue_graft" data-name="tissue graft"><path d="M28 51.75h3v3h-3z" class="b31-cls-8"/><path d="M28 51.75h3v3h-3z" class="b31-cls-8"/><path d="M28 51.75h3v3h-3z" class="b31-cls-8"/></g><path id="b81_surface_restoration_buccal" d="M19.25 42.58a49.75 49.75 0 0 0 7.85.36 106.61 106.61 0 0 0 15.12-.82 22.48 22.48 0 0 0 3.1-3.59l2.79 2.95a18.5 18.5 0 0 1-4.05 4.24c-2 1.2-22.42 1.67-25.87.72a11.57 11.57 0 0 1-4.9-3.44l2.47-3.23a9.19 9.19 0 0 0 3.49 2.81z" class="b31-cls-9" data-color-action="fill" style="fill:inherit" data-name="surface restoration buccal"/><path id="b81_surface_restoration_mesial" d="M47.08 35.65c.48-1 .34-3.17.23-4.9-.05-.83-.11-1.69-.11-2.5a3.72 3.72 0 0 0-.31-1.46 6.53 6.53 0 0 1-.21-4.63 15.78 15.78 0 0 0-.38-6.43 2.9 2.9 0 0 0-1.56-1.32l2.62-3.14A6.26 6.26 0 0 1 50 14.13c1.16 2.65 1 7.9.49 9.33s.74 2.15.74 4.79.74 6.46-.49 9.09a26 26 0 0 1-2.6 4.14l-2.79-2.95a19.38 19.38 0 0 0 1.73-2.88z" class="b31-cls-9" data-color-action="fill" style="fill:inherit" data-name="surface restoration mesial"/><path id="b81_surface_restoration_occlusal" d="M21.14 13.06a24.57 24.57 0 0 1 4.51.3 7.39 7.39 0 0 0 3.89 1.05 14 14 0 0 0 3-.4c.42-.09.82-.18 1.15-.22h.19a38.82 38.82 0 0 1 4.8-.33c4.08 0 7 .88 7.62 2.29a15.78 15.78 0 0 1 .38 6.43 6.53 6.53 0 0 0 .21 4.63 3.72 3.72 0 0 1 .31 1.46c0 .81.06 1.67.11 2.5.11 1.73.25 3.87-.23 4.9a25.4 25.4 0 0 1-4.87 6.48 106.61 106.61 0 0 1-15.12.82 49.75 49.75 0 0 1-7.85-.36c-1.71-.48-4.41-3.64-4.83-4.8-.08-.33-.2-.76-.34-1.26a36 36 0 0 1-1.35-6.23c.46-2-.05-4.19-.59-6.51a19.19 19.19 0 0 1-.55-2.95 19.13 19.13 0 0 1 2.15-7.13 34.57 34.57 0 0 1 7.41-.67z" class="b31-cls-9" data-color-action="fill" style="fill:inherit" data-name="surface restoration occlusal"/><path id="b81_surface_restoration_distal" d="M8.81 29.44c.49-1.91-1.23-6.22-1.23-8.61a23.37 23.37 0 0 1 2.09-8l3 3.26a18.66 18.66 0 0 0-1.08 4.77 19.19 19.19 0 0 0 .55 2.95c.54 2.32 1.05 4.52.59 6.51a36 36 0 0 0 1.35 6.23c.14.5.26.93.34 1.26a8.24 8.24 0 0 0 1.34 2L13.29 43a12.45 12.45 0 0 1-2.75-4.23c-.54-1.91-2.22-7.41-1.73-9.33z" class="b31-cls-9" data-color-action="fill" style="fill:inherit" data-name="surface restoration distal"/><path id="b81_surface_restoration_lingual" d="M38.68 13.44a38.82 38.82 0 0 0-4.8.33h-.19c-.32 0-.72.13-1.15.22a14 14 0 0 1-3 .4 7.39 7.39 0 0 1-3.89-1.05 24.57 24.57 0 0 0-4.51-.3 34.57 34.57 0 0 0-7.4.64 10.28 10.28 0 0 0-1.07 2.36l-3-3.26a6.23 6.23 0 0 1 1.85-2.5c2.22-1.44 14.29-1.67 16-.48s3.7.24 5.67 0c1.58-.19 9.6-1.3 14.15 1.44l-2.62 3.14a15.57 15.57 0 0 0-6.04-.94z" class="b31-cls-9" data-color-action="fill" style="fill:inherit" data-name="surface restoration lingual"/><g id="b81_supra-erupted"><path d="M28 51.75h3v3h-3z" class="b31-cls-8"/><path d="M28 51.75h3v3h-3z" class="b31-cls-8"/><path d="M28 51.75h3v3h-3z" class="b31-cls-8"/></g><g id="b81_sub-erupted"><path d="M28 51.75h3v3h-3z" class="b31-cls-8"/><path d="M28 51.75h3v3h-3z" class="b31-cls-8"/><path d="M28 51.75h3v3h-3z" class="b31-cls-8"/></g><text id="b81_sealant" class="b31-cls-10" transform="translate(19.7 38.55)" data-color-action="fill" style="fill:inherit">S</text><g id="b81_root_decay" data-name="root decay"><path d="M28 51.75h3v3h-3z" class="b31-cls-8"/><path d="M28 51.75h3v3h-3z" class="b31-cls-8"/><path d="M28 51.75h3v3h-3z" class="b31-cls-8"/></g><g id="b81_root_canal" data-name="root canal"><path d="M28 51.75h3v3h-3z" class="b31-cls-8"/><path d="M28 51.75h3v3h-3z" class="b31-cls-8"/><path d="M28 51.75h3v3h-3z" class="b31-cls-8"/></g><g id="b81_root_abrasion" data-name="root abrasion"><path d="M28 51.75h3v3h-3z" class="b31-cls-8"/><path d="M28 51.75h3v3h-3z" class="b31-cls-8"/><path d="M28 51.75h3v3h-3z" class="b31-cls-8"/></g><g id="b81_post"><path d="M28 51.75h3v3h-3z" class="b31-cls-8"/><path d="M28 51.75h3v3h-3z" class="b31-cls-8"/><path d="M28 51.75h3v3h-3z" class="b31-cls-8"/></g><g id="b81_pins"><path d="M28 51.75h3v3h-3z" class="b31-cls-8"/><path d="M28 51.75h3v3h-3z" class="b31-cls-8"/><path d="M28 51.75h3v3h-3z" class="b31-cls-8"/></g><g id="b81_open_contact_mesial" data-name="open contact mesial"><path d="M28 51.75h3v3h-3z" class="b31-cls-8"/><path d="M28 51.75h3v3h-3z" class="b31-cls-8"/><path d="M28 51.75h3v3h-3z" class="b31-cls-8"/></g><g id="b81_open_contact_distal" data-name="open contact distal"><path d="M28 51.75h3v3h-3z" class="b31-cls-8"/><path d="M28 51.75h3v3h-3z" class="b31-cls-8"/><path d="M28 51.75h3v3h-3z" class="b31-cls-8"/></g><g id="b81_lingual_abfraction" data-name="lingual abfraction"><path d="M28 51.75h3v3h-3z" class="b31-cls-8"/><path d="M28 51.75h3v3h-3z" class="b31-cls-8"/><path d="M28 51.75h3v3h-3z" class="b31-cls-8"/></g><g id="b81_internal_root_resorption" data-name="internal root resorption"><path d="M28 51.75h3v3h-3z" class="b31-cls-8"/><path d="M28 51.75h3v3h-3z" class="b31-cls-8"/><path d="M28 51.75h3v3h-3z" class="b31-cls-8"/></g><g id="b81_gortex_membranes" data-name="gortex membranes"><path d="M28 51.75h3v3h-3z" class="b31-cls-8"/><path d="M28 51.75h3v3h-3z" class="b31-cls-8"/><path d="M28 51.75h3v3h-3z" class="b31-cls-8"/></g><g id="b81_frenum_pull" data-name="frenum pull"><path d="M28 51.75h3v3h-3z" class="b31-cls-8"/><path d="M28 51.75h3v3h-3z" class="b31-cls-8"/><path d="M28 51.75h3v3h-3z" class="b31-cls-8"/></g><g id="b81_external_root_resorption" data-name="external root resorption"><path d="M28 51.75h3v3h-3z" class="b31-cls-8"/><path d="M28 51.75h3v3h-3z" class="b31-cls-8"/><path d="M28 51.75h3v3h-3z" class="b31-cls-8"/></g><path id="b81_three_quarter_crown" d="M50 14.13c1.16 2.65 1 7.9.49 9.33s.74 2.15.74 4.79.74 6.46-.49 9.09-4.74 7.18-6.69 8.38-22.42 1.68-25.87.72-7.18-5.75-7.64-7.66-2.22-7.42-1.72-9.33-1.23-6.22-1.23-8.61 1.72-9.09 3.94-10.53 14.29-1.68 16-.48 3.7.24 5.67 0 14.06-1.92 16.8 4.3z" class="b31-cls-12 b31-cls-16" data-color-action="fill" style="fill:inherit" data-name="three quarter crown"/><path id="b81_crown" d="M50 14.13c1.16 2.65 1 7.9.49 9.33s.74 2.15.74 4.79.74 6.46-.49 9.09-4.74 7.18-6.69 8.38-22.42 1.68-25.87.72-7.18-5.75-7.64-7.66-2.22-7.42-1.72-9.33-1.23-6.22-1.23-8.61 1.72-9.09 3.94-10.53 14.29-1.68 16-.48 3.7.24 5.67 0 14.06-1.92 16.8 4.3z" class="b31-cls-12 b31-cls-16" data-color-action="fill" style="fill:inherit"/><path id="b81_cracked_surface_occlusal" d="M30.83 32.17L27 28.34h5l-5-4.74h5l-3.83-3.83" class="b31-cls-17" data-color-action="stroke" style="stroke:inherit" data-name="cracked surface occlusal"/><g id="b81_chipped_surface_occlusal" class="b31-cls-12" data-name="chipped surface occlusal"><path d="M33.33 30.5L25 22.17M25 30.5l8.33-8.33" class="b31-cls-18" data-color-action="stroke" style="stroke:inherit"/></g><g id="b81_buccal_abfraction" data-name="buccal abfraction"><path d="M28 51.75h3v3h-3z" class="b31-cls-8"/><path d="M28 51.75h3v3h-3z" class="b31-cls-8"/><path d="M28 51.75h3v3h-3z" class="b31-cls-8"/></g><g id="b81_braces"><path d="M28 51.75h3v3h-3z" class="b31-cls-8"/><path d="M28 51.75h3v3h-3z" class="b31-cls-8"/><path d="M28 51.75h3v3h-3z" class="b31-cls-8"/></g><g id="b81_apicoectomy"><path d="M28 51.75h3v3h-3z" class="b31-cls-8"/><path d="M28 51.75h3v3h-3z" class="b31-cls-8"/><path d="M28 51.75h3v3h-3z" class="b31-cls-8"/></g><g id="b81_abscess"><path d="M28 51.75h3v3h-3z" class="b31-cls-8"/><path d="M28 51.75h3v3h-3z" class="b31-cls-8"/><path d="M28 51.75h3v3h-3z" class="b31-cls-8"/></g><g id="b81_blunted_roots" data-name="blunted roots"><path d="M28 51.75h3v3h-3z" class="b31-cls-8"/><path d="M28 51.75h3v3h-3z" class="b31-cls-8"/><path d="M28 51.75h3v3h-3z" class="b31-cls-8"/></g><g id="b81_root_amputation" data-name="root amputation"><path d="M28 51.75h3v3h-3z" class="b31-cls-8"/><path d="M28 51.75h3v3h-3z" class="b31-cls-8"/><path d="M28 51.75h3v3h-3z" class="b31-cls-8"/></g><path id="b81_missing_crown" d="M2 2.21h55v51.77H2z" class="b31-cls-11" data-name="missing crown"/><g id="b81_missing_tooth" data-name="missing tooth"><path d="M50 14.13c1.16 2.65 1 7.9.49 9.33s.74 2.15.74 4.79.74 6.46-.49 9.09-4.74 7.18-6.69 8.38-22.42 1.68-25.87.72-7.18-5.75-7.64-7.66-2.22-7.42-1.72-9.33-1.23-6.22-1.23-8.61 1.72-9.09 3.94-10.53 14.29-1.68 16-.48 3.7.24 5.67 0 14.06-1.92 16.8 4.3z" class="b31-cls-2"/><path d="M50 14.13c1.16 2.65 1 7.9.49 9.33s.74 2.15.74 4.79.74 6.46-.49 9.09-4.74 7.18-6.69 8.38-22.42 1.68-25.87.72-7.18-5.75-7.64-7.66-2.22-7.42-1.72-9.33-1.23-6.22-1.23-8.61 1.72-9.09 3.94-10.53 14.29-1.68 16-.48 3.7.24 5.67 0 14.06-1.92 16.8 4.3z" class="b31-cls-11"/><path d="M30 20.63c1.28.35-.49 3.11 1 4.55s11.09 1.2 10.6 2.39-6.65 0-8.13.48-.31 6.19-2 6-1.66-5.71-3.14-6-6.65 3.11-7.39 1.68 5.42-2.63 6.9-3.83.44-5.74 2.16-5.27z" class="b31-cls-11"/><path d="M48 14.85a18.8 18.8 0 0 0-8-2.63c-2.28 0-6.4 0-7.77.48s-3.66 1-4.8.24-7.54-.72-10.51-.72-5.92-.72-6.83 2.63-1.37 4.79-1.37 7.66a5.91 5.91 0 0 1-.48 2.23 19.72 19.72 0 0 1-.67-3.91c0-2.39 1.72-9.09 3.94-10.53s14.29-1.68 16-.48 3.7.24 5.67 0 14-1.91 16.76 4.31c1.16 2.65 1 7.9.49 9.33-.4 1.16.32 1.86.61 3.46A11.67 11.67 0 0 1 49.16 23c-.23-1.93 0-7.19-1.16-8.15zM15.29 43.91c2.51.72 10.73-.36 12.1-.36S30 42.36 31 43.31s4.67.53 7 .29a67.86 67.86 0 0 0 8.32-1.27c1.26-.31 3.54-3.26 2.88-2.27-1.56 2.32-3.67 4.81-5.06 5.65-2 1.2-22.42 1.68-25.87.72-2.16-.6-4.41-2.69-5.92-4.65-.99-1.16.42 1.41 2.94 2.13z" class="b31-cls-11"/></g><g id="b81_maryland_bridge_pontic" class="b31-cls-12" data-name="maryland bridge pontic"><path d="M36.58 24.17H57v7.67H36.58zM2 24.17h20.42v7.67H2z" class="b31-cls-13" data-color-action="fill" style="fill:inherit"/><path d="M50 14.13c1.16 2.65 1 7.9.49 9.33s.74 2.15.74 4.79.74 6.46-.49 9.09-4.74 7.18-6.69 8.38-22.42 1.68-25.87.72-7.18-5.75-7.64-7.66-2.22-7.42-1.72-9.33-1.23-6.22-1.23-8.61 1.72-9.09 3.94-10.53 14.29-1.68 16-.48 3.7.24 5.67 0 14.06-1.92 16.8 4.3z" class="b31-cls-13" data-color-action="fill" style="fill:inherit"/></g><g id="b81_maryland_bridge_abutment_mesial" data-name="maryland bridge abutment mesial"><g class="b31-cls-12"><path d="M36.58 24.17H57v7.67H36.58z" class="b31-cls-13" data-color-action="fill" style="fill:inherit"/><ellipse cx="39.81" cy="28" class="b31-cls-13" rx="6.24" ry="14.34" data-color-action="fill" style="fill:inherit"/></g><path d="M50 14.13c1.16 2.65 1 7.9.49 9.33s.74 2.15.74 4.79.74 6.46-.49 9.09-4.74 7.18-6.69 8.38-22.42 1.68-25.87.72-7.18-5.75-7.64-7.66-2.22-7.42-1.72-9.33-1.23-6.22-1.23-8.61 1.72-9.09 3.94-10.53 14.29-1.68 16-.48 3.7.24 5.67 0 14.06-1.92 16.8 4.3z" class="b31-cls-2"/><path d="M50 14.13c1.16 2.65 1 7.9.49 9.33s.74 2.15.74 4.79.74 6.46-.49 9.09-4.74 7.18-6.69 8.38-22.42 1.68-25.87.72-7.18-5.75-7.64-7.66-2.22-7.42-1.72-9.33-1.23-6.22-1.23-8.61 1.72-9.09 3.94-10.53 14.29-1.68 16-.48 3.7.24 5.67 0 14.06-1.92 16.8 4.3z" class="b31-cls-3"/><path d="M30 20.63c1.28.35-.49 3.11 1 4.55s11.09 1.2 10.6 2.39-6.65 0-8.13.48-.31 6.19-2 6-1.66-5.71-3.14-6-6.65 3.11-7.39 1.68 5.42-2.63 6.9-3.83.44-5.74 2.16-5.27z" class="b31-cls-4"/><path d="M48 14.85a18.8 18.8 0 0 0-8-2.63c-2.28 0-6.4 0-7.77.48s-3.66 1-4.8.24-7.54-.72-10.51-.72-5.92-.72-6.83 2.63-1.37 4.79-1.37 7.66a5.91 5.91 0 0 1-.48 2.23 19.72 19.72 0 0 1-.67-3.91c0-2.39 1.72-9.09 3.94-10.53s14.29-1.68 16-.48 3.7.24 5.67 0 14-1.91 16.76 4.31c1.16 2.65 1 7.9.49 9.33-.4 1.16.32 1.86.61 3.46A11.67 11.67 0 0 1 49.16 23c-.23-1.93 0-7.19-1.16-8.15z" class="b31-cls-5"/><path d="M15.29 43.91c2.51.72 10.73-.36 12.1-.36S30 42.36 31 43.31s4.67.53 7 .29a67.86 67.86 0 0 0 8.32-1.27c1.26-.31 3.54-3.26 2.88-2.27-1.56 2.32-3.67 4.81-5.06 5.65-2 1.2-22.42 1.68-25.87.72-2.16-.6-4.41-2.69-5.92-4.65-.99-1.16.42 1.41 2.94 2.13z" class="b31-cls-6"/></g><g id="b81_maryland_bridge_abutment_distal" data-name="maryland bridge abutment distal"><g class="b31-cls-12"><path d="M2 24.17h20.42v7.67H2z" class="b31-cls-13" data-color-action="fill" style="fill:inherit"/><ellipse cx="19.19" cy="28" class="b31-cls-13" rx="6.24" ry="14.34" data-color-action="fill" style="fill:inherit"/></g><path d="M50 14.13c1.16 2.65 1 7.9.49 9.33s.74 2.15.74 4.79.74 6.46-.49 9.09-4.74 7.18-6.69 8.38-22.42 1.68-25.87.72-7.18-5.75-7.64-7.66-2.22-7.42-1.72-9.33-1.23-6.22-1.23-8.61 1.72-9.09 3.94-10.53 14.29-1.68 16-.48 3.7.24 5.67 0 14.06-1.92 16.8 4.3z" class="b31-cls-2"/><path d="M50 14.13c1.16 2.65 1 7.9.49 9.33s.74 2.15.74 4.79.74 6.46-.49 9.09-4.74 7.18-6.69 8.38-22.42 1.68-25.87.72-7.18-5.75-7.64-7.66-2.22-7.42-1.72-9.33-1.23-6.22-1.23-8.61 1.72-9.09 3.94-10.53 14.29-1.68 16-.48 3.7.24 5.67 0 14.06-1.92 16.8 4.3z" class="b31-cls-3"/><path d="M30 20.63c1.28.35-.49 3.11 1 4.55s11.09 1.2 10.6 2.39-6.65 0-8.13.48-.31 6.19-2 6-1.66-5.71-3.14-6-6.65 3.11-7.39 1.68 5.42-2.63 6.9-3.83.44-5.74 2.16-5.27z" class="b31-cls-4"/><path d="M48 14.85a18.8 18.8 0 0 0-8-2.63c-2.28 0-6.4 0-7.77.48s-3.66 1-4.8.24-7.54-.72-10.51-.72-5.92-.72-6.83 2.63-1.37 4.79-1.37 7.66a5.91 5.91 0 0 1-.48 2.23 19.72 19.72 0 0 1-.67-3.91c0-2.39 1.72-9.09 3.94-10.53s14.29-1.68 16-.48 3.7.24 5.67 0 14-1.91 16.76 4.31c1.16 2.65 1 7.9.49 9.33-.4 1.16.32 1.86.61 3.46A11.67 11.67 0 0 1 49.16 23c-.23-1.93 0-7.19-1.16-8.15z" class="b31-cls-5"/><path d="M15.29 43.91c2.51.72 10.73-.36 12.1-.36S30 42.36 31 43.31s4.67.53 7 .29a67.86 67.86 0 0 0 8.32-1.27c1.26-.31 3.54-3.26 2.88-2.27-1.56 2.32-3.67 4.81-5.06 5.65-2 1.2-22.42 1.68-25.87.72-2.16-.6-4.41-2.69-5.92-4.65-.99-1.16.42 1.41 2.94 2.13z" class="b31-cls-6"/></g><g id="b81_maryland_bridge_abutment" data-name="maryland bridge abutment"><g class="b31-cls-12"><path d="M36.58 24.17H57v7.67H36.58zM2 24.17h20.42v7.67H2z" class="b31-cls-13" data-color-action="fill" style="fill:inherit"/><ellipse cx="19.19" cy="28" class="b31-cls-13" rx="6.24" ry="14.34" data-color-action="fill" style="fill:inherit"/><ellipse cx="39.81" cy="28" class="b31-cls-13" rx="6.24" ry="14.34" data-color-action="fill" style="fill:inherit"/></g><path d="M50 14.13c1.16 2.65 1 7.9.49 9.33s.74 2.15.74 4.79.74 6.46-.49 9.09-4.74 7.18-6.69 8.38-22.42 1.68-25.87.72-7.18-5.75-7.64-7.66-2.22-7.42-1.72-9.33-1.23-6.22-1.23-8.61 1.72-9.09 3.94-10.53 14.29-1.68 16-.48 3.7.24 5.67 0 14.06-1.92 16.8 4.3z" class="b31-cls-2"/><path d="M50 14.13c1.16 2.65 1 7.9.49 9.33s.74 2.15.74 4.79.74 6.46-.49 9.09-4.74 7.18-6.69 8.38-22.42 1.68-25.87.72-7.18-5.75-7.64-7.66-2.22-7.42-1.72-9.33-1.23-6.22-1.23-8.61 1.72-9.09 3.94-10.53 14.29-1.68 16-.48 3.7.24 5.67 0 14.06-1.92 16.8 4.3z" class="b31-cls-3"/><path d="M30 20.63c1.28.35-.49 3.11 1 4.55s11.09 1.2 10.6 2.39-6.65 0-8.13.48-.31 6.19-2 6-1.66-5.71-3.14-6-6.65 3.11-7.39 1.68 5.42-2.63 6.9-3.83.44-5.74 2.16-5.27z" class="b31-cls-4"/><path d="M48 14.85a18.8 18.8 0 0 0-8-2.63c-2.28 0-6.4 0-7.77.48s-3.66 1-4.8.24-7.54-.72-10.51-.72-5.92-.72-6.83 2.63-1.37 4.79-1.37 7.66a5.91 5.91 0 0 1-.48 2.23 19.72 19.72 0 0 1-.67-3.91c0-2.39 1.72-9.09 3.94-10.53s14.29-1.68 16-.48 3.7.24 5.67 0 14-1.91 16.76 4.31c1.16 2.65 1 7.9.49 9.33-.4 1.16.32 1.86.61 3.46A11.67 11.67 0 0 1 49.16 23c-.23-1.93 0-7.19-1.16-8.15z" class="b31-cls-5"/><path d="M15.29 43.91c2.51.72 10.73-.36 12.1-.36S30 42.36 31 43.31s4.67.53 7 .29a67.86 67.86 0 0 0 8.32-1.27c1.26-.31 3.54-3.26 2.88-2.27-1.56 2.32-3.67 4.81-5.06 5.65-2 1.2-22.42 1.68-25.87.72-2.16-.6-4.41-2.69-5.92-4.65-.99-1.16.42 1.41 2.94 2.13z" class="b31-cls-6"/></g><path id="b81_bridge_abutment" d="M50 14.13c1.16 2.65 1 7.9.49 9.33s.74 2.15.74 4.79.74 6.46-.49 9.09-4.74 7.18-6.69 8.38-22.42 1.68-25.87.72-7.18-5.75-7.64-7.66-2.22-7.42-1.72-9.33-1.23-6.22-1.23-8.61 1.72-9.09 3.94-10.53 14.29-1.68 16-.48 3.7.24 5.67 0 14.06-1.92 16.8 4.3z" class="b31-cls-12 b31-cls-14" data-color-action="fill" style="fill:inherit" data-name="bridge abutment"/><path id="b81_bridge_pontic" d="M50 14.13c1.16 2.65 1 7.9.49 9.33s.74 2.15.74 4.79.74 6.46-.49 9.09-4.74 7.18-6.69 8.38-22.42 1.68-25.87.72-7.18-5.75-7.64-7.66-2.22-7.42-1.72-9.33-1.23-6.22-1.23-8.61 1.72-9.09 3.94-10.53 14.29-1.68 16-.48 3.7.24 5.67 0 14.06-1.92 16.8 4.3z" class="b31-cls-12 b31-cls-14" data-color-action="fill" style="fill:inherit" data-name="bridge pontic"/><g id="b81_implant_mini" data-name="implant mini"><path d="M2 2.21h55v51.77H2z" class="b31-cls-11"/><circle cx="29.5" cy="28" r="2.61" class="b31-cls-14" data-color-action="fill" style="fill:inherit"/></g><g id="b81_implant_cylinder" data-name="implant cylinder"><path d="M2 2.21h55v51.77H2z" class="b31-cls-11"/><circle cx="29.5" cy="28" r="5" class="b31-cls-14" data-color-action="fill" style="fill:inherit"/><path d="M24.5 28a5 5 0 0 1 .09-.89h9.82a4.46 4.46 0 0 1 0 1.78h-9.82a5 5 0 0 1-.09-.89z" class="b31-cls-15" data-color-action="fill" style="fill:inherit"/></g><g id="b81_implant_blade" data-name="implant blade"><path d="M2 2.21h55v51.77H2z" class="b31-cls-11"/><circle cx="29.5" cy="28" r="5" class="b31-cls-14" data-color-action="fill" style="fill:inherit"/></g><g id="b81_border"><path d="M0 0h59v56H0z" class="b31-cls-8"/><path d="M0 0h59v56H0z" class="b31-cls-8" transform="rotate(180 29.5 28)"/></g></defs></g><g class="c31-cls-1"><g id="_31C" data-name="#31C"><path d="M47.87 26.52c1.92 3.2 3.2 12.17 3.46 15.11s-.95 10.13-4.1 11.53c-3.46 1.54-13.72 1.21-15.76-.07s-3-1.16-3.82-.49c-1.11.86-7.82 2.23-13.46 1.21s-6.67-6.67-6.54-11.54 1.67-14.47 2.82-16.52 35.09-3.07 37.4.77z" class="c31-cls-2"/><path d="M47.87 26.52c1.92 3.2 3.2 12.17 3.46 15.11s-.95 10.13-4.1 11.53c-3.46 1.54-13.72 1.21-15.76-.07s-3-1.16-3.82-.49c-1.11.86-7.82 2.23-13.46 1.21s-6.67-6.67-6.54-11.54 1.67-14.47 2.82-16.52 35.09-3.07 37.4.77z" class="c31-cls-3"/><path d="M29.76 27.24c-2.72 0-14.49-.18-16.48.72-1.17.53-3.36 1.73-4.07 2.18a19.15 19.15 0 0 1 1.27-4.39c1.15-2 35.09-3.07 37.4.77a16.8 16.8 0 0 1 1.49 3.92 12.77 12.77 0 0 0-4-2.3c-2.57-.54-12.9-.9-15.61-.9z" class="c31-cls-4"/><path d="M47.23 53.16c-3.46 1.54-13.72 1.21-15.76-.07s-3-1.16-3.82-.49c-1.11.86-7.82 2.23-13.46 1.21-3.62-.66-5.33-3.22-6.06-6.25.78 1.3 2 2.63 3.16 2.87A68 68 0 0 0 22 50.6c2.72-.18 4.89-.54 6.52.18s2-.54 3.26-.54c1.63 0 4.17.36 7.06.54A24.38 24.38 0 0 0 49 49.15a10.73 10.73 0 0 0 1.43-.66c-.72 2.13-1.75 4.02-3.2 4.67z" class="c31-cls-5"/><path d="M29.17 50.16c-1.22.2-1.49-3.23-1.49-4.72s0-6 .74-6 1.24 2 1.49 5 .75 5.47-.74 5.72z" class="c31-cls-4"/></g><defs><g id="c81_splinted_crowns" data-name="splinted crowns"><path d="M2 18.25h55v7.67H2z" class="c31-cls-12" data-color-action="fill" style="fill:inherit"/><path d="M47.87 26.52c1.92 3.2 3.2 12.17 3.46 15.11s-.95 10.13-4.1 11.53c-3.46 1.54-13.72 1.21-15.76-.07s-3-1.16-3.82-.49c-1.11.86-7.82 2.23-13.46 1.21s-6.67-6.67-6.54-11.54 1.67-14.47 2.82-16.52 35.09-3.07 37.4.77z" class="c31-cls-2"/><path d="M47.87 26.52c1.92 3.2 3.2 12.17 3.46 15.11s-.95 10.13-4.1 11.53c-3.46 1.54-13.72 1.21-15.76-.07s-3-1.16-3.82-.49c-1.11.86-7.82 2.23-13.46 1.21s-6.67-6.67-6.54-11.54 1.67-14.47 2.82-16.52 35.09-3.07 37.4.77z" class="c31-cls-3"/><path d="M29.76 27.24c-2.72 0-14.49-.18-16.48.72-1.17.53-3.36 1.73-4.07 2.18a19.15 19.15 0 0 1 1.27-4.39c1.15-2 35.09-3.07 37.4.77a16.8 16.8 0 0 1 1.49 3.92 12.77 12.77 0 0 0-4-2.3c-2.57-.54-12.9-.9-15.61-.9z" class="c31-cls-4"/><path d="M47.23 53.16c-3.46 1.54-13.72 1.21-15.76-.07s-3-1.16-3.82-.49c-1.11.86-7.82 2.23-13.46 1.21-3.62-.66-5.33-3.22-6.06-6.25.78 1.3 2 2.63 3.16 2.87A68 68 0 0 0 22 50.6c2.72-.18 4.89-.54 6.52.18s2-.54 3.26-.54c1.63 0 4.17.36 7.06.54A24.38 24.38 0 0 0 49 49.15a10.73 10.73 0 0 0 1.43-.66c-.72 2.13-1.75 4.02-3.2 4.67z" class="c31-cls-5"/><path d="M29.17 50.16c-1.22.2-1.49-3.23-1.49-4.72s0-6 .74-6 1.24 2 1.49 5 .75 5.47-.74 5.72z" class="c31-cls-4"/></g><path id="c81_mesial" d="M49.57 50.54l-3.64-5.62a21.18 21.18 0 0 0 .51-2.92 6.26 6.26 0 0 1 4.28-5c.31 1.93.52 3.64.61 4.64a19.94 19.94 0 0 1-1.76 8.9z" class="c31-cls-6" data-color-action="fill" style="fill:inherit"/><path id="c81_line_angle_4" d="M47.23 53.16c-1.89.84-5.8 1.12-9.3 1l-1.32-5.88a9.45 9.45 0 0 0 3.54.74c3.79.13 5.16-1.86 5.78-4.09l3.64 5.62a5.33 5.33 0 0 1-2.34 2.61z" class="c31-cls-6" data-color-action="fill" style="fill:inherit" data-name="line angle 4"/><path id="c81_groove_2" d="M31.46 53.09c-2-1.28-3-1.16-3.82-.49-.59.46-2.77 1.06-5.52 1.37l1.54-6.2c2.49-1 4.39-2.44 6.88-2.33 2.77.13 3.73 1.83 6.07 2.84l1.32 5.88c-2.93-.11-5.54-.49-6.47-1.07z" class="c31-cls-6" data-color-action="fill" style="fill:inherit" data-name="groove 2"/><path id="c81_line_angle_3" d="M14.18 53.8a6.88 6.88 0 0 1-4.73-3.05l4.27-5.88c1.18 2.26 2.74 3.71 5.1 3.79a11.59 11.59 0 0 0 4.84-.9L22.12 54a28.22 28.22 0 0 1-7.94-.2z" class="c31-cls-6" data-color-action="fill" style="fill:inherit" data-name="line angle 3"/><path id="c81_distal" d="M11.83 39.71a27.09 27.09 0 0 0 1.89 5.15l-4.26 5.89c-1.53-2.32-1.88-5.53-1.8-8.47 0-1.63.24-3.78.53-6a5.25 5.25 0 0 1 3.64 3.43z" class="c31-cls-6" data-color-action="fill" style="fill:inherit"/><ellipse id="c81_lingual_pit" cx="29.61" cy="36" class="c31-cls-6" rx="3.96" ry="6.54" data-color-action="fill" style="fill:inherit" data-name="lingual pit"/><path id="c81_lingual_V" d="M17.08 24.42c7.11-.63 18.28-.73 25.07.2a31 31 0 0 1-12.47 2.59 31 31 0 0 1-12.6-2.79z" class="c31-cls-6" data-color-action="fill" style="fill:inherit" data-name="lingual V"/><g id="c81_veneer"><path d="M28 61.75h3v3h-3z" class="c31-cls-7"/><path d="M28 61.75h3v3h-3z" class="c31-cls-7"/><path d="M28 61.75h3v3h-3z" class="c31-cls-7"/></g><g id="c81_tissue_graft" data-name="tissue graft"><path d="M28 61.75h3v3h-3z" class="c31-cls-7"/><path d="M28 61.75h3v3h-3z" class="c31-cls-7"/><path d="M28 61.75h3v3h-3z" class="c31-cls-7"/></g><g id="c81_tipped_lingual" class="c31-cls-8" data-name="tipped lingual"><path d="M30.35 58.07c-1.26 3.37-4.74 3.85-7.69-5.32-.5-1.56-4.42-1.76-3.84 0 2 6.08 5.31 10.2 9.06 9.27a4.86 4.86 0 0 0 3-3.38 5.27 5.27 0 0 1-.53-.57z" class="c31-cls-9" data-color-action="fill" style="fill:inherit"/><path d="M28.27 55.15H15.33l2.94-9.64 10 9.64z" class="c31-cls-9" data-color-action="fill" style="fill:inherit"/></g><g id="c81_tipped_facial" data-name="tipped facial"><path d="M28 61.75h3v3h-3z" class="c31-cls-7"/><path d="M28 61.75h3v3h-3z" class="c31-cls-7"/><path d="M28 61.75h3v3h-3z" class="c31-cls-7"/></g><path id="c81_surface_restoration_occlusal" d="M14.18 53.81c5.64 1 12.35-.34 13.46-1.21.86-.67 1.77-.79 3.82.49s12.31 1.61 15.76.07a3.77 3.77 0 0 0 1.24-1l-4.86-5.42-.07.2a27.73 27.73 0 0 1-4 .25 27 27 0 0 1-4.9-.38 11.32 11.32 0 0 0-5.67-1.71 8.81 8.81 0 0 0-4.8 1.41 22.78 22.78 0 0 1-5.58.66 17.61 17.61 0 0 1-3.12-.25h-.16l-.09-.17-4.93 5.05a7 7 0 0 0 3.9 2.01z" class="c31-cls-10" data-color-action="fill" style="fill:inherit" data-name="surface restoration occlusal"/><path id="c81_surface_restoration_mesial" d="M51.33 41.65c-.09-1-.31-2.81-.63-4.81a11.51 11.51 0 0 1-7.29-6.24c.43 4.54.79 9.81 1 11.66a14.38 14.38 0 0 1-.75 4.49l4.87 5.48c2.16-2.48 3.01-8.14 2.8-10.58z" class="c31-cls-10" data-color-action="fill" style="fill:inherit" data-name="surface restoration mesial"/><path id="c81_surface_restoration_lingual" d="M17.36 24.41l-.71.06v.31a11.44 11.44 0 0 1-1.32 5.34c-.36 4.76-.64 10.43-.7 12.35-.08 3 .48 4.17.63 4.42h.16a17.61 17.61 0 0 0 3.12.25 22.78 22.78 0 0 0 5.58-.66 8.81 8.81 0 0 1 4.8-1.41 11.32 11.32 0 0 1 5.67 1.71 27 27 0 0 0 4.9.38 27.73 27.73 0 0 0 4-.25 14.41 14.41 0 0 0 .82-4.69c-.16-1.85-.52-7.12-1-11.66a11.44 11.44 0 0 1-1.07-4.81c0-.38 0-.75.06-1.12h-.32a17.94 17.94 0 0 1-24.71-.21z" class="c31-cls-8 c31-cls-11" data-color-action="fill" style="fill:inherit" data-name="surface restoration lingual"/><path id="c81_surface_restoration_lingual_V" d="M17.36 24.41a17.94 17.94 0 0 0 24.71.21c-6.71-.91-17.61-.82-24.71-.21z" class="c31-cls-8 c31-cls-11" data-color-action="fill" style="fill:inherit" data-name="surface restoration lingual V"/><path id="c81_surface_restoration_distal" d="M10.28 51.8l4.91-5.07a9.74 9.74 0 0 1-.54-4.25c.05-1.92.34-7.58.7-12.35a11.51 11.51 0 0 1-7.1 5.73 64.34 64.34 0 0 0-.59 6.43c-.1 3.41.34 7.2 2.62 9.51z" class="c31-cls-10" data-color-action="fill" style="fill:inherit" data-name="surface restoration distal"/><g id="c81_supra-erupted"><path d="M28 61.75h3v3h-3z" class="c31-cls-7"/><path d="M28 61.75h3v3h-3z" class="c31-cls-7"/><path d="M28 61.75h3v3h-3z" class="c31-cls-7"/></g><g id="c81_sub-erupted"><path d="M28 61.75h3v3h-3z" class="c31-cls-7"/><path d="M28 61.75h3v3h-3z" class="c31-cls-7"/><path d="M28 61.75h3v3h-3z" class="c31-cls-7"/></g><g id="c81_sealant"><path d="M28 61.75h3v3h-3z" class="c31-cls-7"/><path d="M28 61.75h3v3h-3z" class="c31-cls-7"/><path d="M28 61.75h3v3h-3z" class="c31-cls-7"/></g><g id="c81_root_decay" data-name="root decay"><path d="M28 61.75h3v3h-3z" class="c31-cls-7"/><path d="M28 61.75h3v3h-3z" class="c31-cls-7"/><path d="M28 61.75h3v3h-3z" class="c31-cls-7"/></g><g id="c81_root_canal" data-name="root canal"><path d="M28 61.75h3v3h-3z" class="c31-cls-7"/><path d="M28 61.75h3v3h-3z" class="c31-cls-7"/><path d="M28 61.75h3v3h-3z" class="c31-cls-7"/></g><g id="c81_root_abrasion" data-name="root abrasion"><path d="M28 61.75h3v3h-3z" class="c31-cls-7"/><path d="M28 61.75h3v3h-3z" class="c31-cls-7"/><path d="M28 61.75h3v3h-3z" class="c31-cls-7"/></g><g id="c81_open_contact_mesial" data-name="open contact mesial"><path d="M28 61.75h3v3h-3z" class="c31-cls-7"/><path d="M28 61.75h3v3h-3z" class="c31-cls-7"/><path d="M28 61.75h3v3h-3z" class="c31-cls-7"/></g><g id="c81_open_contact_distal" data-name="open contact distal"><path d="M28 61.75h3v3h-3z" class="c31-cls-7"/><path d="M28 61.75h3v3h-3z" class="c31-cls-7"/><path d="M28 61.75h3v3h-3z" class="c31-cls-7"/></g><path id="c81_lingual_abfraction" d="M45.81 24.17s-7.3-5.75-16.31-5.75-16.31 5.75-16.31 5.75 7.3 5.75 16.31 5.75 16.31-5.75 16.31-5.75z" class="c31-cls-15" data-color-action="fill" style="fill:inherit" data-name="lingual abfraction"/><g id="c81_internal_root_resorption" data-name="internal root resorption"><path d="M28 61.75h3v3h-3z" class="c31-cls-7"/><path d="M28 61.75h3v3h-3z" class="c31-cls-7"/><path d="M28 61.75h3v3h-3z" class="c31-cls-7"/></g><g id="c81_gortex_membranes" data-name="gortex membranes"><path d="M28 61.75h3v3h-3z" class="c31-cls-7"/><path d="M28 61.75h3v3h-3z" class="c31-cls-7"/><path d="M28 61.75h3v3h-3z" class="c31-cls-7"/></g><g id="c81_frenum_pull" data-name="frenum pull"><path d="M28 61.75h3v3h-3z" class="c31-cls-7"/><path d="M28 61.75h3v3h-3z" class="c31-cls-7"/><path d="M28 61.75h3v3h-3z" class="c31-cls-7"/></g><g id="c81_external_root_resorption" data-name="external root resorption"><path d="M28 61.75h3v3h-3z" class="c31-cls-7"/><path d="M28 61.75h3v3h-3z" class="c31-cls-7"/><path d="M28 61.75h3v3h-3z" class="c31-cls-7"/></g><path id="c81_three_quarter_crown" d="M51 38.63H7.91c-.14 1.35-.23 2.61-.26 3.65-.13 4.87.9 10.5 6.53 11.53s12.35-.34 13.46-1.21c.86-.67 1.77-.79 3.82.49s12.31 1.61 15.76.07c3.15-1.4 4.35-8.67 4.1-11.53-.06-.71-.18-1.77-.32-3z" class="c31-cls-8 c31-cls-19" data-color-action="fill" style="fill:inherit" data-name="three quarter crown"/><path id="c81_crown" d="M47.87 26.52c1.92 3.2 3.2 12.17 3.46 15.11s-.95 10.13-4.1 11.53c-3.46 1.54-13.72 1.21-15.76-.07s-3-1.16-3.82-.49c-1.11.86-7.82 2.23-13.46 1.21s-6.67-6.67-6.54-11.54 1.67-14.47 2.82-16.52 35.09-3.07 37.4.77z" class="c31-cls-8 c31-cls-19" data-color-action="fill" style="fill:inherit"/><path id="c81_cracked_surface_distal" d="M12.66 44.18l-3.83-3.83h5l-5-4.74h5L10 31.78" class="c31-cls-20" data-color-action="stroke" style="stroke:inherit" data-name="cracked surface distal"/><path id="c81_cracked_surface_lingual" d="M30.83 44.18L27 40.35h5l-5-4.74h5l-3.83-3.83" class="c31-cls-20" data-color-action="stroke" style="stroke:inherit" data-name="cracked surface lingual"/><path id="c81_cracked_surface_lingual_V" d="M30.83 44.18L27 40.35h5l-5-4.74h5l-3.83-3.83" class="c31-cls-20" data-color-action="stroke" style="stroke:inherit" data-name="cracked surface lingual V"/><path id="c81_cracked_surface_mesial" d="M49.66 44.18l-3.83-3.83h5.01l-5.01-4.74h5.01l-3.83-3.83" class="c31-cls-20" data-color-action="stroke" style="stroke:inherit" data-name="cracked surface mesial"/><g id="c81_chipped_surface_distal" class="c31-cls-8" data-name="chipped surface distal"><path d="M16.17 42.51l-8.34-8.33M7.83 42.51l8.34-8.33" class="c31-cls-21" data-color-action="stroke" style="stroke:inherit"/></g><g id="c81_chipped_surface_lingual" class="c31-cls-8" data-name="chipped surface lingual"><path d="M33.33 42.51L25 34.18M25 42.51l8.33-8.33" class="c31-cls-21" data-color-action="stroke" style="stroke:inherit"/></g><g id="c81_chipped_surface_lingual_V" class="c31-cls-8" data-name="chipped surface lingual V"><path d="M33.33 42.51L25 34.18M25 42.51l8.33-8.33" class="c31-cls-21" data-color-action="stroke" style="stroke:inherit"/></g><g id="c81_chipped_surface_mesial" class="c31-cls-8" data-name="chipped surface mesial"><path d="M51.33 42.51L43 34.18M43 42.51l8.33-8.33" class="c31-cls-21" data-color-action="stroke" style="stroke:inherit"/></g><g id="c81_buccal_abfraction" data-name="buccal abfraction"><path d="M28 61.75h3v3h-3z" class="c31-cls-7"/><path d="M28 61.75h3v3h-3z" class="c31-cls-7"/><path d="M28 61.75h3v3h-3z" class="c31-cls-7"/></g><g id="c81_braces"><path d="M28 61.75h3v3h-3z" class="c31-cls-7"/><path d="M28 61.75h3v3h-3z" class="c31-cls-7"/><path d="M28 61.75h3v3h-3z" class="c31-cls-7"/></g><g id="c81_apicoectomy"><path d="M28 61.75h3v3h-3z" class="c31-cls-7"/><path d="M28 61.75h3v3h-3z" class="c31-cls-7"/><path d="M28 61.75h3v3h-3z" class="c31-cls-7"/></g><g id="c81_abscess"><path d="M28 61.75h3v3h-3z" class="c31-cls-7"/><path d="M28 61.75h3v3h-3z" class="c31-cls-7"/><path d="M28 61.75h3v3h-3z" class="c31-cls-7"/></g><g id="c81_blunted_roots" data-name="blunted roots"><path d="M28 61.75h3v3h-3z" class="c31-cls-7"/><path d="M28 61.75h3v3h-3z" class="c31-cls-7"/><path d="M28 61.75h3v3h-3z" class="c31-cls-7"/></g><g id="c81_root_amputation" data-name="root amputation"><path d="M28 61.75h3v3h-3z" class="c31-cls-7"/><path d="M28 61.75h3v3h-3z" class="c31-cls-7"/><path d="M28 61.75h3v3h-3z" class="c31-cls-7"/></g><g id="c81_missing_crown" data-name="missing crown"><path d="M28 61.75h3v3h-3z" class="c31-cls-7"/><path d="M28 61.75h3v3h-3z" class="c31-cls-7"/><path d="M28 61.75h3v3h-3z" class="c31-cls-7"/><path d="M2 2h55v61.98H2z" class="c31-cls-13"/></g><g id="c81_missing_tooth" data-name="missing tooth"><path d="M47.87 26.52c1.92 3.2 3.2 12.17 3.46 15.11s-.95 10.13-4.1 11.53c-3.46 1.54-13.72 1.21-15.76-.07s-3-1.16-3.82-.49c-1.11.86-7.82 2.23-13.46 1.21s-6.67-6.67-6.54-11.54 1.67-14.47 2.82-16.52 35.09-3.07 37.4.77z" class="c31-cls-2"/><path d="M47.87 26.52c1.92 3.2 3.2 12.17 3.46 15.11s-.95 10.13-4.1 11.53c-3.46 1.54-13.72 1.21-15.76-.07s-3-1.16-3.82-.49c-1.11.86-7.82 2.23-13.46 1.21s-6.67-6.67-6.54-11.54 1.67-14.47 2.82-16.52 35.09-3.07 37.4.77z" class="c31-cls-13"/><path d="M29.76 27.24c-2.72 0-14.49-.18-16.48.72-1.17.53-3.36 1.73-4.07 2.18a19.15 19.15 0 0 1 1.27-4.39c1.15-2 35.09-3.07 37.4.77a16.8 16.8 0 0 1 1.49 3.92 12.77 12.77 0 0 0-4-2.3c-2.57-.54-12.9-.9-15.61-.9zM47.23 53.16c-3.46 1.54-13.72 1.21-15.76-.07s-3-1.16-3.82-.49c-1.11.86-7.82 2.23-13.46 1.21-3.62-.66-5.33-3.22-6.06-6.25.78 1.3 2 2.63 3.16 2.87A68 68 0 0 0 22 50.6c2.72-.18 4.89-.54 6.52.18s2-.54 3.26-.54c1.63 0 4.17.36 7.06.54A24.38 24.38 0 0 0 49 49.15a10.73 10.73 0 0 0 1.43-.66c-.72 2.13-1.75 4.02-3.2 4.67z" class="c31-cls-13"/><path d="M29.17 50.16c-1.22.2-1.49-3.23-1.49-4.72s0-6 .74-6 1.24 2 1.49 5 .75 5.47-.74 5.72z" class="c31-cls-13"/></g><g id="c81_maryland_bridge_pontic" class="c31-cls-8" data-name="maryland bridge pontic"><path d="M47.87 26.52c1.92 3.2 3.2 12.17 3.46 15.11s-.95 10.13-4.1 11.53c-3.46 1.54-13.72 1.21-15.76-.07s-3-1.16-3.82-.49c-1.11.86-7.82 2.23-13.46 1.21s-6.67-6.67-6.54-11.54 1.67-14.47 2.82-16.52 35.09-3.07 37.4.77z" class="c31-cls-14" data-color-action="fill" style="fill:inherit"/><path d="M2 35.6h55v7.67H2z" class="c31-cls-14" data-color-action="fill" style="fill:inherit"/></g><g id="c81_maryland_bridge_abutment_mesial" class="c31-cls-8" data-name="maryland bridge abutment mesial"><path d="M36.58 35.18H57v7.67H36.58z" class="c31-cls-14" data-color-action="fill" style="fill:inherit"/><ellipse cx="39.81" cy="39.01" class="c31-cls-14" rx="6.24" ry="14.34" data-color-action="fill" style="fill:inherit"/></g><g id="c81_maryland_bridge_abutment_distal" class="c31-cls-8" data-name="maryland bridge abutment distal"><path d="M2 35.18h20.42v7.67H2z" class="c31-cls-14" data-color-action="fill" style="fill:inherit"/><ellipse cx="19.19" cy="39.01" class="c31-cls-14" rx="6.24" ry="14.34" data-color-action="fill" style="fill:inherit"/></g><g id="c81_maryland_bridge_abutment" class="c31-cls-8" data-name="maryland bridge abutment"><path d="M36.58 35.18H57v7.67H36.58zM2 35.18h20.42v7.67H2z" class="c31-cls-14" data-color-action="fill" style="fill:inherit"/><ellipse cx="19.19" cy="39.01" class="c31-cls-14" rx="6.24" ry="14.34" data-color-action="fill" style="fill:inherit"/><ellipse cx="39.81" cy="39.01" class="c31-cls-14" rx="6.24" ry="14.34" data-color-action="fill" style="fill:inherit"/></g><g id="c81_bridge_abutment_mesial" class="c31-cls-8" data-name="bridge abutment mesial"><path d="M47.87 26.52c1.92 3.2 3.2 12.17 3.46 15.11s-.95 10.13-4.1 11.53c-3.46 1.54-13.72 1.21-15.76-.07s-3-1.16-3.82-.49c-1.11.86-7.82 2.23-13.46 1.21s-6.67-6.67-6.54-11.54 1.67-14.47 2.82-16.52 35.09-3.07 37.4.77z" class="c31-cls-11" data-color-action="fill" style="fill:inherit"/><path d="M22.02 35.6H57v7.67H22.02z" class="c31-cls-11" data-color-action="fill" style="fill:inherit"/></g><g id="c81_bridge_abutment_distal" class="c31-cls-8" data-name="bridge abutment distal"><path d="M47.87 26.52c1.92 3.2 3.2 12.17 3.46 15.11s-.95 10.13-4.1 11.53c-3.46 1.54-13.72 1.21-15.76-.07s-3-1.16-3.82-.49c-1.11.86-7.82 2.23-13.46 1.21s-6.67-6.67-6.54-11.54 1.67-14.47 2.82-16.52 35.09-3.07 37.4.77z" class="c31-cls-11" data-color-action="fill" style="fill:inherit"/><path d="M2 35.6h34.98v7.67H2z" class="c31-cls-11" data-color-action="fill" style="fill:inherit"/></g><g id="c81_bridge_abutment" class="c31-cls-8" data-name="bridge abutment"><path d="M47.87 26.52c1.92 3.2 3.2 12.17 3.46 15.11s-.95 10.13-4.1 11.53c-3.46 1.54-13.72 1.21-15.76-.07s-3-1.16-3.82-.49c-1.11.86-7.82 2.23-13.46 1.21s-6.67-6.67-6.54-11.54 1.67-14.47 2.82-16.52 35.09-3.07 37.4.77z" class="c31-cls-11" data-color-action="fill" style="fill:inherit"/><path d="M2 35.6h55v7.67H2z" class="c31-cls-11" data-color-action="fill" style="fill:inherit"/></g><g id="c81_bridge_pontic" class="c31-cls-8" data-name="bridge pontic"><path d="M47.87 26.52c1.92 3.2 3.2 12.17 3.46 15.11s-.95 10.13-4.1 11.53c-3.46 1.54-13.72 1.21-15.76-.07s-3-1.16-3.82-.49c-1.11.86-7.82 2.23-13.46 1.21s-6.67-6.67-6.54-11.54 1.67-14.47 2.82-16.52 35.09-3.07 37.4.77z" class="c31-cls-11" data-color-action="fill" style="fill:inherit"/><path d="M2 35.6h55v7.67H2z" class="c31-cls-11" data-color-action="fill" style="fill:inherit"/></g><g id="c81_implant_mini" data-name="implant mini"><path d="M2 2h55v61.98H2z" class="c31-cls-13"/><path d="M29.72 0h-.44l-1 8.5v40.83h2.44V8.5l-1-8.5z" class="c31-cls-11" data-color-action="fill" style="fill:inherit"/><path d="M29.42 0h-.07l-.4 8.5v40.83h.37V8.5l.1-8.5z" class="c31-cls-16"/><path d="M28.28 48.7h2.44v.63h-2.44z" class="c31-cls-17" data-color-action="fill" style="fill:inherit"/><g class="c31-cls-18"><path d="M28.28 48.7l2.44-1v.63l-2.44 1v-.63zM28.28 47.26l2.44-1v.63l-2.44 1v-.63zM28.28 45.81l2.44-1v.63l-2.44 1v-.63zM28.28 44.36l2.44-1V44l-2.44 1v-.64zM28.28 42.92l2.44-1v.63l-2.44 1v-.63zM28.28 41.47l2.44-1v.63l-2.44 1.01v-.64zM28.28 40.03l2.44-1v.63l-2.44 1v-.63zM28.28 38.58l2.44-1v.63l-2.44 1.01v-.64zM28.28 37.14l2.44-1v.63l-2.44 1v-.63zM28.28 35.69l2.44-1v.63l-2.44 1v-.63zM28.28 34.25l2.44-1.01v.64l-2.44 1v-.63zM28.28 32.8l2.44-1v.63l-2.44 1v-.63zM28.28 31.36l2.44-1v.63l-2.44 1v-.63zM28.28 29.91l2.44-1v.63l-2.44 1v-.63zM28.28 28.46l2.44-1v.64l-2.44 1v-.64zM28.28 27.02l2.44-1v.63l-2.44 1v-.63zM28.28 25.57l2.44-1v.63l-2.44 1.01v-.64zM28.28 24.13l2.44-1v.63l-2.44 1v-.63zM28.28 22.68l2.44-1v.63l-2.44 1.01v-.64zM28.28 21.24l2.44-1v.63l-2.44 1v-.63zM28.28 19.79l2.44-1v.63l-2.44 1v-.63zM28.28 18.35l2.44-1.01v.64l-2.44 1v-.63zM28.28 16.9l2.44-1v.63l-2.44 1v-.63zM28.28 15.46l2.44-1v.63l-2.44 1v-.63zM28.28 14.01l2.44-1v.63l-2.44 1v-.63zM28.28 12.56l2.44-1v.64l-2.44 1v-.64zM28.28 11.12l2.44-1v.63l-2.44 1v-.63zM28.28 9.67l2.44-1v.63l-2.44 1.01v-.64zM28.28 8.5l.03-.29 2.27-.92.07.6-2.37.97V8.5zM28.49 6.7l1.93-.79.07.6-2.08.85.08-.66zM28.67 5.18l1.58-.65.08.6-1.74.71.08-.66zM28.85 3.66l1.24-.51.07.6-1.39.57.08-.66zM29.03 2.14l.9-.37.07.6-1.05.43.08-.66zM29.2.62l.57-.23.07.6-.71.3.07-.67z" class="c31-cls-17" data-color-action="fill" style="fill:inherit"/></g><circle cx="29.5" cy="53.21" r="2.24" class="c31-cls-11" data-color-action="fill" style="fill:inherit"/><path d="M27.67 48.99h3.67v3h-3.67z" class="c31-cls-11" data-color-action="fill" style="fill:inherit"/><path d="M28.49 48.99h.55v3h-.55z" class="c31-cls-16"/><path d="M28.7 54.56h-.21a2.32 2.32 0 0 1-.49-1.28 2.37 2.37 0 0 1 .52-1.3H29a2 2 0 0 0-.73 1.37 1.5 1.5 0 0 0 .43 1.21z" class="c31-cls-16"/><path d="M28.28 42.63h2.44v.63h-2.44z" class="c31-cls-17" data-color-action="fill" style="fill:inherit"/><path d="M32.11 49.01h-5.22l.87-5.71h3.48l.87 5.71z" class="c31-cls-11" data-color-action="fill" style="fill:inherit"/><path d="M28.85 49.01h-.79l.48-5.71h.53l-.22 5.71z" class="c31-cls-16"/></g><g id="c81_implant_cylinder" data-name="implant cylinder"><path d="M2 2h55v61.98H2z" class="c31-cls-13"/><path d="M26.17 3h6.67v49.33h-6.67zM24.5 0h10v3h-10z" class="c31-cls-11" data-color-action="fill" style="fill:inherit"/><path d="M28 3h1v49.33h-1zM26.75 0h1.5v3h-1.5z" class="c31-cls-16"/><path d="M24.5 52.36h10v3h-10z" class="c31-cls-11" data-color-action="fill" style="fill:inherit"/><path d="M26.75 52.36h1.5v3h-1.5z" class="c31-cls-16"/><path d="M26.17 3h6.67v.63h-6.67zM26.17 51.7h6.67v.63h-6.67z" class="c31-cls-17" data-color-action="fill" style="fill:inherit"/><g class="c31-cls-18"><path d="M32.83 50.7l-6.66 1v.63l6.66-1v-.63zM32.83 49.25l-6.66 1v.63l6.66-1v-.63zM32.83 47.81l-6.66 1v.63l6.66-1v-.63zM32.83 46.36l-6.66 1v.63l6.66-1v-.63zM32.83 44.92l-6.66 1v.63l6.66-1v-.63zM32.83 43.47l-6.66 1v.63l6.66-1v-.63zM32.83 42.02l-6.66 1v.64l6.66-1v-.64zM32.83 40.58l-6.66 1v.63l6.66-1v-.63zM32.83 39.13l-6.66 1v.64l6.66-1v-.64zM32.83 37.69l-6.66 1v.63l6.66-1v-.63zM32.83 36.24l-6.66 1v.64l6.66-1v-.64zM32.83 34.8l-6.66 1v.63l6.66-1v-.63zM32.83 33.35l-6.66 1v.63l6.66-1v-.63zM32.83 31.91l-6.66 1v.63l6.66-1v-.63zM32.83 30.46l-6.66 1v.63l6.66-1v-.63zM32.83 29.02l-6.66 1v.63l6.66-1v-.63zM32.83 27.57l-6.66 1v.63l6.66-1v-.63zM32.83 26.13l-6.66 1v.63l6.66-1v-.63zM32.83 24.68l-6.66 1v.63l6.66-1v-.63zM32.83 23.23l-6.66 1v.64l6.66-1v-.64zM32.83 21.79l-6.66 1v.63l6.66-1v-.63zM32.83 20.34l-6.66 1v.64l6.66-1v-.64zM32.83 18.9l-6.66 1v.63l6.66-1v-.63zM32.83 17.45l-6.66 1v.64l6.66-1.01v-.63zM32.83 16.01l-6.66 1v.63l6.66-1v-.63zM32.83 14.56l-6.66 1v.63l6.66-1v-.63zM32.83 13.12l-6.66 1v.63l6.66-1v-.63zM32.83 11.67l-6.66 1v.63l6.66-1v-.63zM32.83 10.22l-6.66 1v.64l6.66-1v-.64zM32.83 8.78l-6.66 1v.63l6.66-1v-.63zM32.83 7.33l-6.66 1.01v.63l6.66-1v-.64zM32.83 5.89l-6.66 1v.63l6.66-1v-.63zM32.83 4.44l-6.66 1v.64l6.66-1v-.64zM32.83 3l-6.66 1v.63l6.66-1V3z" class="c31-cls-17" data-color-action="fill" style="fill:inherit"/></g></g><g id="c81_implant_blade" data-name="implant blade"><path d="M2 2h55v61.98H2z" class="c31-cls-13"/><path d="M26.17 3.03h6.67v49.33h-6.67zM24.5 52.36h10v3h-10z" class="c31-cls-11" data-color-action="fill" style="fill:inherit"/><path d="M28 3.03h1v49.33h-1zM26.75 52.36h1.5v3h-1.5z" class="c31-cls-16"/><path d="M26.17 51.73h6.67v.63h-6.67z" class="c31-cls-17" data-color-action="fill" style="fill:inherit"/></g><path id="c81_border" d="M0 0h59v66H0z" class="c31-cls-7" transform="rotate(180 29.5 33)"/></defs></g></svg>