<svg xmlns="http://www.w3.org/2000/svg" viewBox="0 0 59 283"><defs><style>.a6-cls-1{isolation:isolate}.a6-cls-2{font-size:15px;fill:#929497;font-family:ProximaNova-Semibold,Proxima Nova,sans-serif;font-weight:700;stroke:none}.a6-cls-24,.a6-cls-3{fill:#c5c7c9;stroke:none}.a6-cls-3{stroke:#c5c7c9;stroke-width:5px}.a6-cls-19,.a6-cls-21,.a6-cls-23,.a6-cls-25,.a6-cls-26,.a6-cls-29,.a6-cls-3,.a6-cls-32,.a6-cls-33{stroke-miterlimit:10}.a6-cls-4,.a6-cls-5{fill:#f5d7cf;stroke:none}.a6-cls-5{fill:#fae8e3}.a6-cls-6,.a6-cls-7{fill:#f2c6bc;stroke:none}.a6-cls-7{fill:#eeefef}.a6-cls-8,.a6-cls-9{fill:#e2e3e4;stroke:none}.a6-cls-9{fill:#fbfbfb}.a6-cls-10,.a6-cls-27,.a6-cls-36{fill:#3c3d3d;stroke:none}.a6-cls-10{opacity:.55}.a6-cls-11{fill:#ffd403;stroke:none}.a6-cls-12,.a6-cls-31{fill:#ffef3e;stroke:none}.a6-cls-13,.a6-cls-14,.a6-cls-20{fill:#c52636;stroke:none}.a6-cls-14{fill:none}.a6-cls-19,.a6-cls-21,.a6-cls-23,.a6-cls-25,.a6-cls-26,.a6-cls-29,.a6-cls-32,.a6-cls-33{fill:none}.a6-cls-16,.a6-cls-37{fill:#28418b;stroke:none}.a6-cls-17,.a6-cls-18{fill:#787878;stroke:none}.a6-cls-19,.a6-cls-21,.a6-cls-23,.a6-cls-29,.a6-cls-32,.a6-cls-33{stroke:#c52636}.a6-cls-19,.a6-cls-21,.a6-cls-26{stroke-width:2px}.a6-cls-21{stroke-linecap:round}.a6-cls-22{fill:#fff;stroke:none}.a6-cls-25,.a6-cls-26{stroke:#28418b}.a6-cls-25{stroke-width:3px}.a6-cls-28{opacity:.6}.a6-cls-29{stroke-width:4px}.a6-cls-30{fill:#f05b85;stroke:none}.a6-cls-32,.a6-cls-33{stroke-width:1.25px}.a6-cls-34{fill:#9b9999;stroke:none}.a6-cls-35,.a6-cls-38{fill:#dbdbdc;stroke:none}.a6-cls-38{font-size:33px;fill:#28418b;font-family:ProximaNova-Semibold,Proxima Nova,sans-serif;font-weight:700}.c6-cls-1{isolation:isolate}.c6-cls-16,.c6-cls-2{fill:#c5c7c9;stroke:none}.c6-cls-2{stroke:#c5c7c9;stroke-width:5px}.c6-cls-2,.c6-cls-20,.c6-cls-21{stroke-miterlimit:10}.c6-cls-3{fill:#eeefef;stroke:none}.c6-cls-4,.c6-cls-5{fill:#fbfbfb;stroke:none}.c6-cls-5{fill:#e2e3e4}.c6-cls-17,.c6-cls-6{fill:#3c3d3d;stroke:none}.c6-cls-6{opacity:.55}.c6-cls-20,.c6-cls-21{fill:none}.c6-cls-7,.c6-cls-9{fill:none;stroke:none}.c6-cls-9{fill:#28418b}.c6-cls-10,.c6-cls-11{fill:#787878;stroke:none}.c6-cls-12,.c6-cls-13,.c6-cls-19{fill:#ffef3e;stroke:none}.c6-cls-13{fill:#fff}.c6-cls-14,.c6-cls-15{fill:#c52636;stroke:none}.c6-cls-18{opacity:.6}.c6-cls-20,.c6-cls-21{stroke:#c52636;stroke-width:1.25px}.a6-msng-cls-1{isolation:isolate}.a6-msng-cls-2{font-size:15px;fill:#929497;font-family:ProximaNova-Semibold,Proxima Nova;font-weight:700;stroke:none}.a6-msng-cls-3{fill:#c5c7c9;stroke:#c5c7c9;stroke-width:5px}.a6-msng-cls-11,.a6-msng-cls-3{stroke-miterlimit:10}.a6-msng-cls-4{fill:#f5d7cf;stroke:none}.a6-msng-cls-5{fill:#fae8e3;stroke:none}.a6-msng-cls-6{fill:#f2c6bc;stroke:none}.a6-msng-cls-7{fill:#eeefef;stroke:none}.a6-msng-cls-8{fill:#e2e3e4;stroke:none}.a6-msng-cls-9{fill:#fbfbfb;stroke:none}.a6-msng-cls-11{fill:none}.a6-msng-cls-12{fill:none;stroke:none}.a6-msng-cls-11{stroke:#787878;stroke-width:6.25px}</style></defs><g class="a6-cls-1"><g id="_6A" data-name="#6A"><text class="a6-cls-2" transform="translate(20.49 20.51)">56</text><path d="M17.26 114c.53-6.73 2.58-25.94 3.09-39.68C21 55.65 22 30.3 23.7 30.19S32 42.87 37.57 75.11c2.27 13 4 31.27 4.56 38.35 3.13 5.79 6.29 29.94 4.61 31.95-3.82 4.54-14.92 10-18.38 9.48s-15.64-10.48-16.45-13.83 2.49-20.72 5.35-27.06z" class="a6-cls-3"/><path d="M42.29 116.2c0-2.53-2-25.56-4.71-41.1C32 42.87 25.42 30.09 23.7 30.19S21 55.65 20.35 74.33c-.6 16.2-3.34 40-3.22 42s25.13 5.86 25.16-.13z" class="a6-cls-4"/><path d="M23.7 112.77s.63-4.63 1-15.51c.4-12.92-.34-46.21-.79-51.29s-1.5-11.42-.73-11.6S26 48.59 27 60.43s1.72 27.38 2 35.35.11 17.14.11 17.14z" class="a6-cls-5"/><path d="M36 77.85c-.87-7.13-2.83-20.11-4.17-28.85 1.87 6.68 3.86 15.29 5.74 26.1 2.71 15.53 4.72 38.57 4.71 41.1 0 1-.75 1.75-2 2.26L39 115.15s-1.2-22.61-3-37.3zM17.14 116.32c-.13-2 2.62-25.79 3.22-42 .41-11.15.91-24.68 1.61-33.8.15 9.92.43 29.68.37 41.47-.08 16.23-1 32.4-1 32.4L21 118c-2.3-.59-3.83-1.19-3.86-1.68z" class="a6-cls-6"/><path d="M46.74 145.41c1.69-2-1.48-26.18-4.61-32s-21.54-5.76-24.48-.25-6.56 24.5-5.74 27.85 13 13.34 16.45 13.83 14.57-4.89 18.38-9.43z" class="a6-cls-7"/><path d="M44.08 147.29c1.43-2.19-1.25-28.52-3.9-34.82a5.34 5.34 0 0 0-1-1.57 6.5 6.5 0 0 1 3 2.55c3.13 5.78 6.3 29.95 4.61 32a20.51 20.51 0 0 1-3.7 3.25 14.61 14.61 0 0 0 .99-1.41zM17.65 113.21a5.9 5.9 0 0 1 2.67-2.32 4.82 4.82 0 0 0-.84 1.32c-2.49 6-5.54 26.7-4.85 30.35.23 1.22 1.55 3.26 3.3 5.45-3.07-2.68-5.66-5.47-6-6.95-.84-3.35 2.78-22.34 5.72-27.85z" class="a6-cls-8"/><path d="M20.35 150c0-5.08.06-12.35.37-16.7.44-6.22 1.66-18.59 2.86-23.58a25.66 25.66 0 0 1 4.43-.61 142.75 142.75 0 0 0-2.33 24.19c-.24 9.42.1 16.92.33 20.6a44 44 0 0 1-5.66-3.9z" class="a6-cls-9"/></g><defs><g id="a56_bone_graft" data-name="bone graft"><path d="M2 23.31h55v91.86H2z" class="a6-cls-16" data-color-action="fill" style="fill:inherit"/><path d="M17.26 114c.53-6.73 2.58-25.94 3.09-39.68C21 55.65 22 30.3 23.7 30.19S32 42.87 37.57 75.11c2.27 13 4 31.27 4.56 38.35 3.13 5.79 6.29 29.94 4.61 31.95-3.82 4.54-14.92 10-18.38 9.48s-15.64-10.48-16.45-13.83 2.49-20.72 5.35-27.06z" class="a6-cls-3"/><path d="M42.29 116.2c0-2.53-2-25.56-4.71-41.1C32 42.87 25.42 30.09 23.7 30.19S21 55.65 20.35 74.33c-.6 16.2-3.34 40-3.22 42s25.13 5.86 25.16-.13z" class="a6-cls-4"/><path d="M23.7 112.77s.63-4.63 1-15.51c.4-12.92-.34-46.21-.79-51.29s-1.5-11.42-.73-11.6S26 48.59 27 60.43s1.72 27.38 2 35.35.11 17.14.11 17.14z" class="a6-cls-5"/><path d="M36 77.85c-.87-7.13-2.83-20.11-4.17-28.85 1.87 6.68 3.86 15.29 5.74 26.1 2.71 15.53 4.72 38.57 4.71 41.1 0 1-.75 1.75-2 2.26L39 115.15s-1.2-22.61-3-37.3zM17.14 116.32c-.13-2 2.62-25.79 3.22-42 .41-11.15.91-24.68 1.61-33.8.15 9.92.43 29.68.37 41.47-.08 16.23-1 32.4-1 32.4L21 118c-2.3-.59-3.83-1.19-3.86-1.68z" class="a6-cls-6"/><path d="M46.74 145.41c1.69-2-1.48-26.18-4.61-32s-21.54-5.76-24.48-.25-6.56 24.5-5.74 27.85 13 13.34 16.45 13.83 14.57-4.89 18.38-9.43z" class="a6-cls-7"/><path d="M44.08 147.29c1.43-2.19-1.25-28.52-3.9-34.82a5.34 5.34 0 0 0-1-1.57 6.5 6.5 0 0 1 3 2.55c3.13 5.78 6.3 29.95 4.61 32a20.51 20.51 0 0 1-3.7 3.25 14.61 14.61 0 0 0 .99-1.41zM17.65 113.21a5.9 5.9 0 0 1 2.67-2.32 4.82 4.82 0 0 0-.84 1.32c-2.49 6-5.54 26.7-4.85 30.35.23 1.22 1.55 3.26 3.3 5.45-3.07-2.68-5.66-5.47-6-6.95-.84-3.35 2.78-22.34 5.72-27.85z" class="a6-cls-8"/><path d="M20.35 150c0-5.08.06-12.35.37-16.7.44-6.22 1.66-18.59 2.86-23.58a25.66 25.66 0 0 1 4.43-.61 142.75 142.75 0 0 0-2.33 24.19c-.24 9.42.1 16.92.33 20.6a44 44 0 0 1-5.66-3.9z" class="a6-cls-9"/></g><g id="a56_splinted_crowns" data-name="splinted crowns"><path d="M2 105.58h55v7.67H2z" class="a6-cls-12" data-color-action="fill" style="fill:inherit"/><path d="M17.26 114c.53-6.73 2.58-25.94 3.09-39.68C21 55.65 22 30.3 23.7 30.19S32 42.87 37.57 75.11c2.27 13 4 31.27 4.56 38.35 3.13 5.79 6.29 29.94 4.61 31.95-3.82 4.54-14.92 10-18.38 9.48s-15.64-10.48-16.45-13.83 2.49-20.72 5.35-27.06z" class="a6-cls-3"/><path d="M42.29 116.2c0-2.53-2-25.56-4.71-41.1C32 42.87 25.42 30.09 23.7 30.19S21 55.65 20.35 74.33c-.6 16.2-3.34 40-3.22 42s25.13 5.86 25.16-.13z" class="a6-cls-4"/><path d="M23.7 112.77s.63-4.63 1-15.51c.4-12.92-.34-46.21-.79-51.29s-1.5-11.42-.73-11.6S26 48.59 27 60.43s1.72 27.38 2 35.35.11 17.14.11 17.14z" class="a6-cls-5"/><path d="M36 77.85c-.87-7.13-2.83-20.11-4.17-28.85 1.87 6.68 3.86 15.29 5.74 26.1 2.71 15.53 4.72 38.57 4.71 41.1 0 1-.75 1.75-2 2.26L39 115.15s-1.2-22.61-3-37.3zM17.14 116.32c-.13-2 2.62-25.79 3.22-42 .41-11.15.91-24.68 1.61-33.8.15 9.92.43 29.68.37 41.47-.08 16.23-1 32.4-1 32.4L21 118c-2.3-.59-3.83-1.19-3.86-1.68z" class="a6-cls-6"/><path d="M46.74 145.41c1.69-2-1.48-26.18-4.61-32s-21.54-5.76-24.48-.25-6.56 24.5-5.74 27.85 13 13.34 16.45 13.83 14.57-4.89 18.38-9.43z" class="a6-cls-7"/><path d="M44.08 147.29c1.43-2.19-1.25-28.52-3.9-34.82a5.34 5.34 0 0 0-1-1.57 6.5 6.5 0 0 1 3 2.55c3.13 5.78 6.3 29.95 4.61 32a20.51 20.51 0 0 1-3.7 3.25 14.61 14.61 0 0 0 .99-1.41zM17.65 113.21a5.9 5.9 0 0 1 2.67-2.32 4.82 4.82 0 0 0-.84 1.32c-2.49 6-5.54 26.7-4.85 30.35.23 1.22 1.55 3.26 3.3 5.45-3.07-2.68-5.66-5.47-6-6.95-.84-3.35 2.78-22.34 5.72-27.85z" class="a6-cls-8"/><path d="M20.35 150c0-5.08.06-12.35.37-16.7.44-6.22 1.66-18.59 2.86-23.58a25.66 25.66 0 0 1 4.43-.61 142.75 142.75 0 0 0-2.33 24.19c-.24 9.42.1 16.92.33 20.6a44 44 0 0 1-5.66-3.9z" class="a6-cls-9"/></g><path id="a56_mesial_incisala" d="M35.58 152.91a38.84 38.84 0 0 0 10.17-6.47A66.72 66.72 0 0 1 35 150.61z" class="a6-cls-10" data-color-action="fill" style="fill:inherit" data-name="mesial incisala"/><path id="a56_central_incisal" d="M28.68 151.61a20.68 20.68 0 0 1-5.84-2.28l-.71 2.06c2.58 1.9 5 3.32 6.23 3.5 1.44.2 4.21-.63 7.22-2l-.6-2.3a19.34 19.34 0 0 1-6.3 1.02z" class="a6-cls-10" data-color-action="fill" style="fill:inherit" data-name="central incisal"/><path id="a56_distal_incisal" d="M13.5 143.61a54.65 54.65 0 0 0 8.63 7.77l.71-2.06a81.52 81.52 0 0 1-9.34-5.71z" class="a6-cls-10" data-color-action="fill" style="fill:inherit" data-name="distal incisal"/><path id="a56_mesial" d="M41.06 136.42a6.48 6.48 0 0 1-.72 2.34l5.7 7.4c.25-.25.49-.5.7-.75 1-1.14.35-9.39-.92-17.38-2.08 1.37-4.23 3.86-4.76 8.39z" class="a6-cls-10" data-color-action="fill" style="fill:inherit"/><path id="a56_line_angle_2" d="M40.34 138.76c-1.26 2.35-4 3.43-7.49 3.73l2.15 8.12a66.72 66.72 0 0 0 10.77-4.17l.3-.28z" class="a6-cls-10" data-color-action="fill" style="fill:inherit" data-name="line angle 2"/><path id="a56_facial" d="M28.68 151.61a19.34 19.34 0 0 0 6.3-1l-2.13-8.12a28.58 28.58 0 0 1-3.62.05 24.54 24.54 0 0 1-3.9-.44l-2.5 7.24a20.68 20.68 0 0 0 5.85 2.27z" class="a6-cls-10" data-color-action="fill" style="fill:inherit"/><path id="a56_line_angle_1" d="M25.34 142.1c-3.3-.69-5.11-2.22-6.18-5.24l-5.66 6.76a81.52 81.52 0 0 0 9.34 5.72z" class="a6-cls-10" data-color-action="fill" style="fill:inherit" data-name="line angle 1"/><path id="a56_distal" d="M11.91 141.06a7.54 7.54 0 0 0 1.59 2.56l5.66-6.76a21.42 21.42 0 0 1-.93-4c-.43-2.91-2.7-4.42-4.8-5.19-1.21 5.93-1.94 11.69-1.52 13.39z" class="a6-cls-10" data-color-action="fill" style="fill:inherit"/><ellipse id="a56_mid_facial" cx="28.92" cy="128.93" class="a6-cls-10" rx="4.61" ry="9.46" data-color-action="fill" style="fill:inherit" data-name="mid facial"/><path id="a56_facial_V" d="M39.75 111.21a15.37 15.37 0 0 1-10.55 4.32 15.19 15.19 0 0 1-10.09-3.93c4.39-3.19 15.41-3.36 20.64-.39z" class="a6-cls-10" data-color-action="fill" style="fill:inherit" data-name="facial V"/><path id="a56_veneer" d="M46.74 145.41c1.69-2-1.48-26.18-4.61-32s-21.54-5.76-24.48-.25-6.56 24.5-5.74 27.85 13 13.34 16.45 13.83 14.57-4.89 18.38-9.43z" class="a6-cls-12" data-color-action="fill" style="fill:inherit"/><path id="a56_tissue_graft" d="M46.97 94.66L29.5 108.54 12.03 94.66h34.94z" class="a6-cls-13" data-color-action="fill" style="fill:inherit" data-name="tissue graft"/><path id="a56_tipped_lingual" d="M28 3.25h3v3h-3z" class="a6-cls-14" data-name="tipped lingual"/><g id="a56_tipped_facial" class="a6-cls-15" data-name="tipped facial"><path d="M25.85 156.9c1.26 3.37 4.74 3.85 7.69-5.32.5-1.56 4.42-1.76 3.84 0-2 6.08-5.31 10.2-9.06 9.27a4.86 4.86 0 0 1-3-3.38c.19-.17.42-.47.53-.57z" class="a6-cls-16" data-color-action="fill" style="fill:inherit"/><path d="M27.93 153.98h12.94l-2.94-9.64-10 9.64z" class="a6-cls-16" data-color-action="fill" style="fill:inherit"/></g><path id="a56_surface_restoration_incisal" d="M28.36 154.89c3.11.44 12.34-3.89 17-8.06l-5.1-5.1v.28a36.35 36.35 0 0 1-10.89 5.79 50.49 50.49 0 0 1-10.4-8.56l-5.19 4.67c3.7 4.29 11.85 10.59 14.58 10.98z" class="a6-cls-17" data-color-action="fill" style="fill:inherit" data-name="surface restoration incisal"/><path id="a56_surface_restoration_mesial" d="M46.74 145.41c1.21-1.43-.07-14.2-2-23.47a11.51 11.51 0 0 1-6.74-4.83c1.19 8.77 2.17 20.67 2.2 24.62l5.1 5.1a14.85 14.85 0 0 0 1.44-1.42z" class="a6-cls-17" data-color-action="fill" style="fill:inherit" data-name="surface restoration mesial"/><path id="a56_surface_restoration_facial" d="M36.22 111.93a13.81 13.81 0 0 1-12.94-.08 11.43 11.43 0 0 1-1.92 5.41c-1.33 8.32-2.47 19-2.58 21.8a49.88 49.88 0 0 0 10.56 8.74 36.35 36.35 0 0 0 10.9-5.8c0-3.67-1-15.93-2.2-24.9a11.44 11.44 0 0 1-1.82-5.17z" class="a6-cls-15 a6-cls-18" data-color-action="fill" style="fill:inherit" data-name="surface restoration facial"/><path id="a56_surface_restoration_facial_V" d="M36.22 111.93c0-.36-.06-.72-.06-1.09v-1a28.23 28.23 0 0 0-12.93 0c0 .33.05.66.05 1v1a13.81 13.81 0 0 0 12.94.08z" class="a6-cls-15 a6-cls-18" data-color-action="fill" style="fill:inherit" data-name="surface restoration facial V"/><path id="a56_surface_restoration_distal" d="M18.79 139.06c.11-2.81 1.25-13.48 2.58-21.8a11.51 11.51 0 0 1-6.65 4.74c-1.91 7.54-3.36 16.85-2.81 19.11a8.36 8.36 0 0 0 1.85 2.86l5.19-4.67z" class="a6-cls-17" data-color-action="fill" style="fill:inherit" data-name="surface restoration distal"/><g id="a56_supra-erupted" class="a6-cls-15"><path d="M30.5 102.88V95.2" class="a6-cls-19" data-color-action="stroke" style="stroke:inherit"/><path d="M34.49 101.71l-3.99 6.91-3.99-6.91h7.98z" class="a6-cls-20" data-color-action="fill" style="fill:inherit"/></g><g id="a56_sub-erupted" class="a6-cls-15"><path d="M30.5 100.94v7.68" class="a6-cls-19" data-color-action="stroke" style="stroke:inherit"/><path d="M26.51 102.11l3.99-6.91 3.99 6.91h-7.98z" class="a6-cls-20" data-color-action="fill" style="fill:inherit"/></g><text id="a56_sealant" class="a6-cls-38" transform="translate(19.7 200.47)" data-color-action="fill" style="fill:inherit">S</text><g id="a56_rotated_mesial" class="a6-cls-15" data-name="rotated mesial"><path d="M5.87 128.18c-3 1.79-2.3 5.46 10.23 5.81 5.3.15 8.95 0 8.95 0L25 137s-1 .07-8.22-.24c-7.62-.32-14-1.83-13.75-6a4 4 0 0 1 2.31-2.92c.15.16.4.27.53.34z" class="a6-cls-16" data-color-action="fill" style="fill:inherit"/><path d="M18.57 129.47v11.89l10.4-5.9-10.4-5.99z" class="a6-cls-16" data-color-action="fill" style="fill:inherit"/></g><g id="a56_rotated_distal" class="a6-cls-15" data-name="rotated distal"><path d="M53.13 128.18c3 1.79 2.3 5.46-10.23 5.81-5.3.15-8.95 0-8.95 0l.07 3s1 .07 8.22-.24c7.62-.32 14-1.83 13.75-6a4 4 0 0 0-2.31-2.92c-.17.17-.42.28-.55.35z" class="a6-cls-16" data-color-action="fill" style="fill:inherit"/><path d="M40.43 129.47v11.89l-10.4-5.9 10.4-5.99z" class="a6-cls-16" data-color-action="fill" style="fill:inherit"/></g><circle id="a56_root_decay" cx="27.06" cy="60.71" r="4.33" class="a6-cls-15 a6-cls-18" data-color-action="fill" style="fill:inherit" data-name="root decay"/><path id="a56_root_canal" d="M25.47 35.99l4.2 71.51" class="a6-cls-21" data-color-action="stroke" style="stroke:inherit" data-name="root canal"/><path id="a56_root_abrasion" d="M25.56 51.76h3.5v13.83h-3.5z" class="a6-cls-15 a6-cls-23" data-color-action="stroke" style="stroke:inherit" data-name="root abrasion"/><g id="a56_post"><path d="M27.5 87.39h3.14v41.77H27.5z" class="a6-cls-18" data-color-action="fill" style="fill:inherit"/><path d="M28.37 87.39h.47v41.77h-.47z" class="a6-cls-24"/></g><g id="a56_pins"><path d="M25.32 97.72h2.42v23.43h-2.42z" class="a6-cls-18" data-color-action="fill" style="fill:inherit"/><path d="M25.99 97.72h.36v23.43h-.36z" class="a6-cls-24"/><path d="M29.91 97.72h2.42v23.43h-2.42z" class="a6-cls-18" data-color-action="fill" style="fill:inherit"/><path d="M30.57 97.72h.36v23.43h-.36z" class="a6-cls-24"/></g><path id="a56_open_contact_mesial" d="M33.69 104.99l7.5 4.75 7.5-4.75" class="a6-cls-25" data-color-action="stroke" style="stroke:inherit" data-name="open contact mesial"/><path id="a56_open_contact_distal" d="M10.67 104.99l7.5 4.75 7.5-4.75" class="a6-cls-25" data-color-action="stroke" style="stroke:inherit" data-name="open contact distal"/><g id="a56_mesial_drift" class="a6-cls-15" data-name="mesial drift"><path d="M32.59 133.16H20.67" class="a6-cls-26" data-color-action="stroke" style="stroke:inherit"/><path d="M31.43 129.18l6.9 3.98-6.9 3.99v-7.97z" class="a6-cls-16" data-color-action="fill" style="fill:inherit"/></g><path id="a56_lingual_abfraction" d="M28 3.25h3v3h-3z" class="a6-cls-14" data-name="lingual abfraction"/><ellipse id="a56_internal_root_resorption" cx="27.91" cy="59.6" class="a6-cls-15 a6-cls-20" rx="3.98" ry="9.84" transform="rotate(-3.19 27.988 59.722)" data-color-action="fill" style="fill:inherit" data-name="internal root resorption"/><g id="a56_impacted_mesial" class="a6-cls-15" data-name="impacted mesial"><ellipse cx="29.51" cy="92.13" class="a6-cls-26" rx="24.15" ry="67.46" data-color-action="stroke" style="stroke:inherit"/><path d="M18.11 92.13H5.35" class="a6-cls-26" data-color-action="stroke" style="stroke:inherit"/><path d="M16.94 88.14l6.91 3.99-6.91 3.99v-7.98z" class="a6-cls-16" data-color-action="fill" style="fill:inherit"/></g><g id="a56_impacted_distal" class="a6-cls-15" data-name="impacted distal"><ellipse cx="29.5" cy="92.13" class="a6-cls-26" rx="24.15" ry="67.46" data-color-action="stroke" style="stroke:inherit"/><path d="M40.91 92.13h12.76" class="a6-cls-26" data-color-action="stroke" style="stroke:inherit"/><path d="M42.08 96.12l-6.91-3.99 6.91-3.99v7.98z" class="a6-cls-16" data-color-action="fill" style="fill:inherit"/></g><path id="a56_gortex_membranes" d="M2 95.83h55v16.42H2z" class="a6-cls-13" data-color-action="fill" style="fill:inherit" data-name="gortex membranes"/><path id="a56_frenum_pull" d="M19.51 108.58l10.66-6.75 10.65 6.75" class="a6-cls-29" data-color-action="stroke" style="stroke:inherit" data-name="frenum pull"/><path id="a56_external_root_resorption" d="M20.65 66.35c-.11 2.73-.2 5.42-.3 8-.11 3.06-.3 6.4-.54 9.81 1.34-.59 5.13-2.83 5.24-9.24.09-5.65-2.78-7.8-4.4-8.57zm16.92 8.76q-.82-4.69-1.65-8.83A10.62 10.62 0 0 0 33.1 75a9.4 9.4 0 0 0 5.66 7.62c-.38-2.62-.76-5.15-1.19-7.51z" class="a6-cls-15 a6-cls-20" data-color-action="fill" style="fill:inherit" data-name="external root resorption"/><g id="a56_distal_drift" class="a6-cls-15" data-name="distal drift"><path d="M26.41 133.16h11.92" class="a6-cls-26" data-color-action="stroke" style="stroke:inherit"/><path d="M27.57 137.15l-6.9-3.99 6.9-3.98v7.97z" class="a6-cls-16" data-color-action="fill" style="fill:inherit"/></g><path id="a56_three_quarter_crown" d="M13 129.67c-1 5.2-1.5 9.89-1.13 11.39.82 3.35 13 13.34 16.45 13.83s14.56-4.94 18.38-9.48c.89-1.06.43-8.3-.67-15.74z" class="a6-cls-15 a6-cls-31" data-color-action="fill" style="fill:inherit" data-name="three quarter crown"/><path id="a56_crown" d="M46.74 145.41c1.69-2-1.48-26.18-4.61-32s-21.54-5.76-24.48-.25-6.56 24.5-5.74 27.85 13 13.34 16.45 13.83 14.57-4.89 18.38-9.43z" class="a6-cls-12" data-color-action="fill" style="fill:inherit"/><path id="a56_cracked_surface_incisal" d="M28.17 145.84l3.84 3.83H27l5 4.75h-5l3.83 3.83" class="a6-cls-32" data-color-action="stroke" style="stroke:inherit" data-name="cracked surface incisal"/><path id="a56_cracked_surface_mesial" d="M41.34 125.82l3.83 3.84h-5.01l5.01 4.74h-5.01l3.83 3.83" class="a6-cls-32" data-color-action="stroke" style="stroke:inherit" data-name="cracked surface mesial"/><path id="a56_cracked_surface_facial" d="M28.17 125.82l3.84 3.84H27l5 4.74h-5l3.83 3.83" class="a6-cls-32" data-color-action="stroke" style="stroke:inherit" data-name="cracked surface facial"/><path id="a56_cracked_surface_facial_V" d="M28.17 125.82l3.84 3.84H27l5 4.74h-5l3.83 3.83" class="a6-cls-32" data-color-action="stroke" style="stroke:inherit" data-name="cracked surface facial V"/><path id="a56_cracked_surface_distal" d="M13.34 125.82l3.83 3.84h-5l5 4.74h-5l3.83 3.83" class="a6-cls-32" data-color-action="stroke" style="stroke:inherit" data-name="cracked surface distal"/><g id="a56_chipped_surface_incisal" class="a6-cls-15" data-name="chipped surface incisal"><path d="M25.67 147.51l8.33 8.33M34 147.51l-8.33 8.33" class="a6-cls-33" data-color-action="stroke" style="stroke:inherit"/></g><g id="a56_chipped_surface_mesial" class="a6-cls-15" data-name="chipped surface mesial"><path d="M37.83 127.5l8.33 8.33M46.16 127.5l-8.33 8.33" class="a6-cls-33" data-color-action="stroke" style="stroke:inherit"/></g><g id="a56_chipped_surface_facial" class="a6-cls-15" data-name="chipped surface facial"><path d="M25.67 127.5l8.33 8.33M34 127.5l-8.33 8.33" class="a6-cls-33" data-color-action="stroke" style="stroke:inherit"/></g><g id="a56_chipped_surface_facial_V" class="a6-cls-15" data-name="chipped surface facial V"><path d="M25.67 127.5l8.33 8.33M34 127.5l-8.33 8.33" class="a6-cls-33" data-color-action="stroke" style="stroke:inherit"/></g><g id="a56_chipped_surface_distal" class="a6-cls-15" data-name="chipped surface distal"><path d="M11.67 127.5l8.33 8.33M20 127.5l-8.33 8.33" class="a6-cls-33" data-color-action="stroke" style="stroke:inherit"/></g><path id="a56_buccal_abfraction" d="M40.78 110.75a20.1 20.1 0 0 1-11.11 3.92 20.1 20.1 0 0 1-11.11-3.92 20.1 20.1 0 0 1 11.11-3.92 20.1 20.1 0 0 1 11.11 3.92z" class="a6-cls-13" data-color-action="fill" style="fill:inherit" data-name="buccal abfraction"/><g id="a56_braces"><path d="M22.59 121.97h13.45v18.19H22.59z" class="a6-cls-24"/><path d="M22.59 139.48h13.45v.68H22.59zM22.59 131.21h13.45v1.36H22.59z" class="a6-cls-34" data-color-action="fill" style="fill:inherit"/><path d="M22.59 121.97h13.45v.89H22.59z" class="a6-cls-35" data-color-action="fill" style="fill:inherit"/><rect width="4.11" height="7.94" x="22.3" y="121.99" class="a6-cls-27" rx=".49" ry=".49" data-color-action="fill" style="fill:inherit"/><path d="M25.92 122h-3.13a.49.49 0 0 0-.49.49v5.83a13.14 13.14 0 0 0 4.11 0v-5.83a.49.49 0 0 0-.49-.49z" class="a6-cls-18" data-color-action="fill" style="fill:inherit"/><path d="M26.08 123.4v-1.11a.16.16 0 0 0-.16-.16h-3.13a.16.16 0 0 0-.16.16v1.11z" class="a6-cls-24"/><rect width="4.11" height="7.94" x="32.22" y="121.99" class="a6-cls-27" rx=".49" ry=".49" data-color-action="fill" style="fill:inherit"/><path d="M35.84 122h-3.13a.49.49 0 0 0-.49.49v5.83a13.14 13.14 0 0 0 4.11 0v-5.83a.49.49 0 0 0-.49-.49z" class="a6-cls-18" data-color-action="fill" style="fill:inherit"/><path d="M36 123.4v-1.11a.16.16 0 0 0-.16-.16h-3.13a.16.16 0 0 0-.16.16v1.11z" class="a6-cls-24"/><rect width="4.11" height="7.94" x="22.3" y="132.27" class="a6-cls-27" rx=".49" ry=".49" data-color-action="fill" style="fill:inherit"/><path d="M25.92 132.27h-3.13a.49.49 0 0 0-.49.49v5.83a13.14 13.14 0 0 0 4.11 0v-5.83a.49.49 0 0 0-.49-.49z" class="a6-cls-18" data-color-action="fill" style="fill:inherit"/><path d="M26.08 133.68v-1.11a.16.16 0 0 0-.16-.16h-3.13a.16.16 0 0 0-.16.16v1.11z" class="a6-cls-24"/><rect width="4.11" height="7.94" x="32.22" y="132.27" class="a6-cls-27" rx=".49" ry=".49" data-color-action="fill" style="fill:inherit"/><path d="M35.84 132.27h-3.13a.49.49 0 0 0-.49.49v5.83a13.14 13.14 0 0 0 4.11 0v-5.83a.49.49 0 0 0-.49-.49z" class="a6-cls-18" data-color-action="fill" style="fill:inherit"/><path d="M36 133.68v-1.11a.16.16 0 0 0-.16-.16h-3.13a.16.16 0 0 0-.16.16v1.11z" class="a6-cls-24"/><path d="M8.21 130.38h42.21v1.45H8.21z" class="a6-cls-18" data-color-action="fill" style="fill:inherit"/><path d="M8.21 131.58h42.21v.25H8.21z" class="a6-cls-27" data-color-action="fill" style="fill:inherit"/><path d="M8.21 130.58h42.21v.4H8.21z" class="a6-cls-24"/></g><path id="a56_apicoectomy" d="M36.84 25.14L29.5 36.81l-7.34-11.67h14.68z" class="a6-cls-17" data-color-action="fill" style="fill:inherit"/><circle id="a56_abscess" cx="29.5" cy="29.64" r="6.5" class="a6-cls-37" data-color-action="fill" style="fill:inherit"/><g id="a56_blunted_roots" data-name="blunted roots"><path d="M2 22h55v57.99H2z" class="a6-cls-22"/><path d="M2 80.07h55v2H2z" class="a6-cls-36" data-color-action="fill" style="fill:inherit"/></g><path id="a56_root_amputation" d="M2 21.67h55v87.24H2z" class="a6-cls-22" data-name="root amputation"/><path id="a56_missing_crown" d="M2 109.49h55v49.68H2z" class="a6-cls-22" data-name="missing crown"/><g id="a56_missing_tooth" data-name="missing tooth"><path d="M17.26 114c.53-6.73 2.58-25.94 3.09-39.68C21 55.65 22 30.3 23.7 30.19S32 42.87 37.57 75.11c2.27 13 4 31.27 4.56 38.35 3.13 5.79 6.29 29.94 4.61 31.95-3.82 4.54-14.92 10-18.38 9.48s-15.64-10.48-16.45-13.83 2.49-20.72 5.35-27.06z" class="a6-cls-3"/><path d="M42.29 116.2c0-2.53-2-25.56-4.71-41.1C32 42.87 25.42 30.09 23.7 30.19S21 55.65 20.35 74.33c-.6 16.2-3.34 40-3.22 42s25.13 5.86 25.16-.13z" class="a6-cls-22"/><path d="M23.7 112.77s.63-4.63 1-15.51c.4-12.92-.34-46.21-.79-51.29s-1.5-11.42-.73-11.6S26 48.59 27 60.43s1.72 27.38 2 35.35.11 17.14.11 17.14zM36 77.85c-.87-7.13-2.83-20.11-4.17-28.85 1.87 6.68 3.86 15.29 5.74 26.1 2.71 15.53 4.72 38.57 4.71 41.1 0 1-.75 1.75-2 2.26L39 115.15s-1.2-22.61-3-37.3zM17.14 116.32c-.13-2 2.62-25.79 3.22-42 .41-11.15.91-24.68 1.61-33.8.15 9.92.43 29.68.37 41.47-.08 16.23-1 32.4-1 32.4L21 118c-2.3-.59-3.83-1.19-3.86-1.68z" class="a6-cls-22"/><path d="M46.74 145.41c1.69-2-1.48-26.18-4.61-32s-21.54-5.76-24.48-.25-6.56 24.5-5.74 27.85 13 13.34 16.45 13.83 14.57-4.89 18.38-9.43z" class="a6-cls-22"/><path d="M44.08 147.29c1.43-2.19-1.25-28.52-3.9-34.82a5.34 5.34 0 0 0-1-1.57 6.5 6.5 0 0 1 3 2.55c3.13 5.78 6.3 29.95 4.61 32a20.51 20.51 0 0 1-3.7 3.25 14.61 14.61 0 0 0 .99-1.41zM17.65 113.21a5.9 5.9 0 0 1 2.67-2.32 4.82 4.82 0 0 0-.84 1.32c-2.49 6-5.54 26.7-4.85 30.35.23 1.22 1.55 3.26 3.3 5.45-3.07-2.68-5.66-5.47-6-6.95-.84-3.35 2.78-22.34 5.72-27.85zM20.35 150c0-5.08.06-12.35.37-16.7.44-6.22 1.66-18.59 2.86-23.58a25.66 25.66 0 0 1 4.43-.61 142.75 142.75 0 0 0-2.33 24.19c-.24 9.42.1 16.92.33 20.6a44 44 0 0 1-5.66-3.9z" class="a6-cls-22"/></g><g id="a56_extracted_tooth" class="a6-msng-cls-10" data-name="extracted tooth"><path d="M9 108.83l41.67 41.66M50.67 108.83L9 150.49" class="a6-msng-cls-11" data-color-action="stroke" style="stroke:inherit"/></g><g id="a56_denture"><path d="M2 23.16h55v135.01H2z" class="a6-cls-22"/><path d="M57 100.22A22.63 22.63 0 0 0 44.78 97c-7.64 0-10 3.22-15.79 3.22S19.15 97 13.2 97A24.26 24.26 0 0 0 2 100.22v57.94h55z" class="a6-cls-30" data-color-action="fill" style="fill:inherit"/><path d="M46.74 145.41c1.69-2-1.48-26.18-4.61-32s-21.54-5.76-24.48-.25-6.56 24.5-5.74 27.85 13 13.34 16.45 13.83 14.57-4.89 18.38-9.43z" class="a6-cls-3"/><path d="M46.74 145.41c1.69-2-1.48-26.18-4.61-32s-21.54-5.76-24.48-.25-6.56 24.5-5.74 27.85 13 13.34 16.45 13.83 14.57-4.89 18.38-9.43z" class="a6-cls-7"/><path d="M44.08 147.29c1.43-2.19-1.25-28.52-3.9-34.82a5.34 5.34 0 0 0-1-1.57 6.5 6.5 0 0 1 3 2.55c3.13 5.78 6.3 29.95 4.61 32a20.51 20.51 0 0 1-3.7 3.25 14.61 14.61 0 0 0 .99-1.41zM17.65 113.21a5.9 5.9 0 0 1 2.67-2.32 4.82 4.82 0 0 0-.84 1.32c-2.49 6-5.54 26.7-4.85 30.35.23 1.22 1.55 3.26 3.3 5.45-3.07-2.68-5.66-5.47-6-6.95-.84-3.35 2.78-22.34 5.72-27.85z" class="a6-cls-8"/><path d="M20.35 150c0-5.08.06-12.35.37-16.7.44-6.22 1.66-18.59 2.86-23.58a25.66 25.66 0 0 1 4.43-.61 142.75 142.75 0 0 0-2.33 24.19c-.24 9.42.1 16.92.33 20.6a44 44 0 0 1-5.66-3.9z" class="a6-cls-9"/></g><g id="a56_maryland_bridge_pontic" class="a6-cls-15" data-name="maryland bridge pontic"><path d="M2 126.33h55V134H2z" class="a6-cls-20" data-color-action="fill" style="fill:inherit"/><path d="M46.74 145.41c1.69-2-1.48-26.18-4.61-32s-21.54-5.76-24.48-.25-6.56 24.5-5.74 27.85 13 13.34 16.45 13.83 14.57-4.89 18.38-9.43z" class="a6-cls-20" data-color-action="fill" style="fill:inherit"/></g><g id="a56_maryland_bridge_abutment_mesial" data-name="maryland bridge abutment mesial"><path d="M22.02 126.33H57V134H22.02z" class="a6-cls-15 a6-cls-20" data-color-action="fill" style="fill:inherit"/><path d="M17.26 114c.53-6.73 2.58-25.94 3.09-39.68C21 55.65 22 30.3 23.7 30.19S32 42.87 37.57 75.11c2.27 13 4 31.27 4.56 38.35 3.13 5.79 6.29 29.94 4.61 31.95-3.82 4.54-14.92 10-18.38 9.48s-15.64-10.48-16.45-13.83 2.49-20.72 5.35-27.06z" class="a6-cls-3"/><path d="M42.29 116.2c0-2.53-2-25.56-4.71-41.1C32 42.87 25.42 30.09 23.7 30.19S21 55.65 20.35 74.33c-.6 16.2-3.34 40-3.22 42s25.13 5.86 25.16-.13z" class="a6-cls-4"/><path d="M23.7 112.77s.63-4.63 1-15.51c.4-12.92-.34-46.21-.79-51.29s-1.5-11.42-.73-11.6S26 48.59 27 60.43s1.72 27.38 2 35.35.11 17.14.11 17.14z" class="a6-cls-5"/><path d="M36 77.85c-.87-7.13-2.83-20.11-4.17-28.85 1.87 6.68 3.86 15.29 5.74 26.1 2.71 15.53 4.72 38.57 4.71 41.1 0 1-.75 1.75-2 2.26L39 115.15s-1.2-22.61-3-37.3zM17.14 116.32c-.13-2 2.62-25.79 3.22-42 .41-11.15.91-24.68 1.61-33.8.15 9.92.43 29.68.37 41.47-.08 16.23-1 32.4-1 32.4L21 118c-2.3-.59-3.83-1.19-3.86-1.68z" class="a6-cls-6"/><path d="M46.74 145.41c1.69-2-1.48-26.18-4.61-32s-21.54-5.76-24.48-.25-6.56 24.5-5.74 27.85 13 13.34 16.45 13.83 14.57-4.89 18.38-9.43z" class="a6-cls-7"/><path d="M44.08 147.29c1.43-2.19-1.25-28.52-3.9-34.82a5.34 5.34 0 0 0-1-1.57 6.5 6.5 0 0 1 3 2.55c3.13 5.78 6.3 29.95 4.61 32a20.51 20.51 0 0 1-3.7 3.25 14.61 14.61 0 0 0 .99-1.41zM17.65 113.21a5.9 5.9 0 0 1 2.67-2.32 4.82 4.82 0 0 0-.84 1.32c-2.49 6-5.54 26.7-4.85 30.35.23 1.22 1.55 3.26 3.3 5.45-3.07-2.68-5.66-5.47-6-6.95-.84-3.35 2.78-22.34 5.72-27.85z" class="a6-cls-8"/><path d="M20.35 150c0-5.08.06-12.35.37-16.7.44-6.22 1.66-18.59 2.86-23.58a25.66 25.66 0 0 1 4.43-.61 142.75 142.75 0 0 0-2.33 24.19c-.24 9.42.1 16.92.33 20.6a44 44 0 0 1-5.66-3.9z" class="a6-cls-9"/></g><g id="a56_maryland_bridge_abutment_distal" data-name="maryland bridge abutment distal"><path d="M2 126.33h34.98V134H2z" class="a6-cls-15 a6-cls-20" data-color-action="fill" style="fill:inherit"/><path d="M17.26 114c.53-6.73 2.58-25.94 3.09-39.68C21 55.65 22 30.3 23.7 30.19S32 42.87 37.57 75.11c2.27 13 4 31.27 4.56 38.35 3.13 5.79 6.29 29.94 4.61 31.95-3.82 4.54-14.92 10-18.38 9.48s-15.64-10.48-16.45-13.83 2.49-20.72 5.35-27.06z" class="a6-cls-3"/><path d="M42.29 116.2c0-2.53-2-25.56-4.71-41.1C32 42.87 25.42 30.09 23.7 30.19S21 55.65 20.35 74.33c-.6 16.2-3.34 40-3.22 42s25.13 5.86 25.16-.13z" class="a6-cls-4"/><path d="M23.7 112.77s.63-4.63 1-15.51c.4-12.92-.34-46.21-.79-51.29s-1.5-11.42-.73-11.6S26 48.59 27 60.43s1.72 27.38 2 35.35.11 17.14.11 17.14z" class="a6-cls-5"/><path d="M36 77.85c-.87-7.13-2.83-20.11-4.17-28.85 1.87 6.68 3.86 15.29 5.74 26.1 2.71 15.53 4.72 38.57 4.71 41.1 0 1-.75 1.75-2 2.26L39 115.15s-1.2-22.61-3-37.3zM17.14 116.32c-.13-2 2.62-25.79 3.22-42 .41-11.15.91-24.68 1.61-33.8.15 9.92.43 29.68.37 41.47-.08 16.23-1 32.4-1 32.4L21 118c-2.3-.59-3.83-1.19-3.86-1.68z" class="a6-cls-6"/><path d="M46.74 145.41c1.69-2-1.48-26.18-4.61-32s-21.54-5.76-24.48-.25-6.56 24.5-5.74 27.85 13 13.34 16.45 13.83 14.57-4.89 18.38-9.43z" class="a6-cls-7"/><path d="M44.08 147.29c1.43-2.19-1.25-28.52-3.9-34.82a5.34 5.34 0 0 0-1-1.57 6.5 6.5 0 0 1 3 2.55c3.13 5.78 6.3 29.95 4.61 32a20.51 20.51 0 0 1-3.7 3.25 14.61 14.61 0 0 0 .99-1.41zM17.65 113.21a5.9 5.9 0 0 1 2.67-2.32 4.82 4.82 0 0 0-.84 1.32c-2.49 6-5.54 26.7-4.85 30.35.23 1.22 1.55 3.26 3.3 5.45-3.07-2.68-5.66-5.47-6-6.95-.84-3.35 2.78-22.34 5.72-27.85z" class="a6-cls-8"/><path d="M20.35 150c0-5.08.06-12.35.37-16.7.44-6.22 1.66-18.59 2.86-23.58a25.66 25.66 0 0 1 4.43-.61 142.75 142.75 0 0 0-2.33 24.19c-.24 9.42.1 16.92.33 20.6a44 44 0 0 1-5.66-3.9z" class="a6-cls-9"/></g><g id="a56_maryland_bridge_abutment" data-name="maryland bridge abutment"><path d="M2 126.33h55V134H2z" class="a6-cls-15 a6-cls-20" data-color-action="fill" style="fill:inherit"/><path d="M17.26 114c.53-6.73 2.58-25.94 3.09-39.68C21 55.65 22 30.3 23.7 30.19S32 42.87 37.57 75.11c2.27 13 4 31.27 4.56 38.35 3.13 5.79 6.29 29.94 4.61 31.95-3.82 4.54-14.92 10-18.38 9.48s-15.64-10.48-16.45-13.83 2.49-20.72 5.35-27.06z" class="a6-cls-3"/><path d="M42.29 116.2c0-2.53-2-25.56-4.71-41.1C32 42.87 25.42 30.09 23.7 30.19S21 55.65 20.35 74.33c-.6 16.2-3.34 40-3.22 42s25.13 5.86 25.16-.13z" class="a6-cls-4"/><path d="M23.7 112.77s.63-4.63 1-15.51c.4-12.92-.34-46.21-.79-51.29s-1.5-11.42-.73-11.6S26 48.59 27 60.43s1.72 27.38 2 35.35.11 17.14.11 17.14z" class="a6-cls-5"/><path d="M36 77.85c-.87-7.13-2.83-20.11-4.17-28.85 1.87 6.68 3.86 15.29 5.74 26.1 2.71 15.53 4.72 38.57 4.71 41.1 0 1-.75 1.75-2 2.26L39 115.15s-1.2-22.61-3-37.3zM17.14 116.32c-.13-2 2.62-25.79 3.22-42 .41-11.15.91-24.68 1.61-33.8.15 9.92.43 29.68.37 41.47-.08 16.23-1 32.4-1 32.4L21 118c-2.3-.59-3.83-1.19-3.86-1.68z" class="a6-cls-6"/><path d="M46.74 145.41c1.69-2-1.48-26.18-4.61-32s-21.54-5.76-24.48-.25-6.56 24.5-5.74 27.85 13 13.34 16.45 13.83 14.57-4.89 18.38-9.43z" class="a6-cls-7"/><path d="M44.08 147.29c1.43-2.19-1.25-28.52-3.9-34.82a5.34 5.34 0 0 0-1-1.57 6.5 6.5 0 0 1 3 2.55c3.13 5.78 6.3 29.95 4.61 32a20.51 20.51 0 0 1-3.7 3.25 14.61 14.61 0 0 0 .99-1.41zM17.65 113.21a5.9 5.9 0 0 1 2.67-2.32 4.82 4.82 0 0 0-.84 1.32c-2.49 6-5.54 26.7-4.85 30.35.23 1.22 1.55 3.26 3.3 5.45-3.07-2.68-5.66-5.47-6-6.95-.84-3.35 2.78-22.34 5.72-27.85z" class="a6-cls-8"/><path d="M20.35 150c0-5.08.06-12.35.37-16.7.44-6.22 1.66-18.59 2.86-23.58a25.66 25.66 0 0 1 4.43-.61 142.75 142.75 0 0 0-2.33 24.19c-.24 9.42.1 16.92.33 20.6a44 44 0 0 1-5.66-3.9z" class="a6-cls-9"/></g><g id="a56_bridge_abutment_mesial" class="a6-cls-15" data-name="bridge abutment mesial"><path d="M22.02 127.33H57V135H22.02z" class="a6-cls-18" data-color-action="fill" style="fill:inherit"/><path d="M46.74 145.41c1.69-2-1.48-26.18-4.61-32s-21.54-5.76-24.48-.25-6.56 24.5-5.74 27.85 13 13.34 16.45 13.83 14.57-4.89 18.38-9.43z" class="a6-cls-18" data-color-action="fill" style="fill:inherit"/></g><g id="a56_bridge_abutment_distal" class="a6-cls-15" data-name="bridge abutment distal"><path d="M2 127.33h34.98V135H2z" class="a6-cls-18" data-color-action="fill" style="fill:inherit"/><path d="M46.74 145.41c1.69-2-1.48-26.18-4.61-32s-21.54-5.76-24.48-.25-6.56 24.5-5.74 27.85 13 13.34 16.45 13.83 14.57-4.89 18.38-9.43z" class="a6-cls-18" data-color-action="fill" style="fill:inherit"/></g><g id="a56_bridge_abutment" class="a6-cls-15" data-name="bridge abutment"><path d="M2 127.33h55V135H2z" class="a6-cls-18" data-color-action="fill" style="fill:inherit"/><path d="M46.74 145.41c1.69-2-1.48-26.18-4.61-32s-21.54-5.76-24.48-.25-6.56 24.5-5.74 27.85 13 13.34 16.45 13.83 14.57-4.89 18.38-9.43z" class="a6-cls-18" data-color-action="fill" style="fill:inherit"/></g><g id="a56_bridge_pontic" data-name="bridge pontic"><path d="M17.26 114c.53-6.73 2.58-25.94 3.09-39.68C21 55.65 22 30.3 23.7 30.19S32 42.87 37.57 75.11c2.27 13 4 31.27 4.56 38.35 3.13 5.79 6.29 29.94 4.61 31.95-3.82 4.54-14.92 10-18.38 9.48s-15.64-10.48-16.45-13.83 2.49-20.72 5.35-27.06z" class="a6-cls-3"/><path d="M42.29 116.2c0-2.53-2-25.56-4.71-41.1C32 42.87 25.42 30.09 23.7 30.19S21 55.65 20.35 74.33c-.6 16.2-3.34 40-3.22 42s25.13 5.86 25.16-.13z" class="a6-cls-22"/><path d="M23.7 112.77s.63-4.63 1-15.51c.4-12.92-.34-46.21-.79-51.29s-1.5-11.42-.73-11.6S26 48.59 27 60.43s1.72 27.38 2 35.35.11 17.14.11 17.14zM36 77.85c-.87-7.13-2.83-20.11-4.17-28.85 1.87 6.68 3.86 15.29 5.74 26.1 2.71 15.53 4.72 38.57 4.71 41.1 0 1-.75 1.75-2 2.26L39 115.15s-1.2-22.61-3-37.3zM17.14 116.32c-.13-2 2.62-25.79 3.22-42 .41-11.15.91-24.68 1.61-33.8.15 9.92.43 29.68.37 41.47-.08 16.23-1 32.4-1 32.4L21 118c-2.3-.59-3.83-1.19-3.86-1.68z" class="a6-cls-22"/><path d="M46.74 145.41c1.69-2-1.48-26.18-4.61-32s-21.54-5.76-24.48-.25-6.56 24.5-5.74 27.85 13 13.34 16.45 13.83 14.57-4.89 18.38-9.43z" class="a6-cls-7"/><path d="M44.08 147.29c1.43-2.19-1.25-28.52-3.9-34.82a5.34 5.34 0 0 0-1-1.57 6.5 6.5 0 0 1 3 2.55c3.13 5.78 6.3 29.95 4.61 32a20.51 20.51 0 0 1-3.7 3.25 14.61 14.61 0 0 0 .99-1.41zM17.65 113.21a5.9 5.9 0 0 1 2.67-2.32 4.82 4.82 0 0 0-.84 1.32c-2.49 6-5.54 26.7-4.85 30.35.23 1.22 1.55 3.26 3.3 5.45-3.07-2.68-5.66-5.47-6-6.95-.84-3.35 2.78-22.34 5.72-27.85z" class="a6-cls-8"/><path d="M20.35 150c0-5.08.06-12.35.37-16.7.44-6.22 1.66-18.59 2.86-23.58a25.66 25.66 0 0 1 4.43-.61 142.75 142.75 0 0 0-2.33 24.19c-.24 9.42.1 16.92.33 20.6a44 44 0 0 1-5.66-3.9z" class="a6-cls-9"/><g class="a6-cls-15"><path d="M2 127.33h55V135H2z" class="a6-cls-18" data-color-action="fill" style="fill:inherit"/><path d="M46.74 145.41c1.69-2-1.48-26.18-4.61-32s-21.54-5.76-24.48-.25-6.56 24.5-5.74 27.85 13 13.34 16.45 13.83 14.57-4.89 18.38-9.43z" class="a6-cls-18" data-color-action="fill" style="fill:inherit"/></g></g><g id="a56_implant_mini" data-name="implant mini"><path d="M2.39 22.04h55v137.17h-55z" class="a6-cls-22"/><path d="M29.72 83.07h-.44l-1 8.49v40.84h2.44V91.56l-1-8.49z" class="a6-cls-18" data-color-action="fill" style="fill:inherit"/><path d="M29.42 83.07h-.07l-.4 8.49v40.84h.37V91.56l.1-8.49z" class="a6-cls-24"/><path d="M28.28 131.77h2.44v.63h-2.44z" class="a6-cls-27" data-color-action="fill" style="fill:inherit"/><g class="a6-cls-28"><path d="M28.28 131.77l2.44-1v.63l-2.44 1v-.63zM28.28 130.32l2.44-1v.63l-2.44 1v-.63zM28.28 128.88l2.44-1v.63l-2.44 1v-.63zM28.28 127.43l2.44-1v.63l-2.44 1v-.63zM28.28 125.98l2.44-1v.64l-2.44 1v-.64zM28.28 124.54l2.44-1v.63l-2.44 1v-.63zM28.28 123.09l2.44-1v.64l-2.44 1v-.64zM28.28 121.65l2.44-1v.63l-2.44 1v-.63zM28.28 120.2l2.44-1v.63l-2.44 1.01v-.64zM28.28 118.76l2.44-1v.63l-2.44 1v-.63zM28.28 117.31l2.44-1v.63l-2.44 1v-.63zM28.28 115.87l2.44-1v.63l-2.44 1v-.63zM28.28 114.42l2.44-1v.63l-2.44 1v-.63zM28.28 112.98l2.44-1v.63l-2.44 1v-.63zM28.28 111.53l2.44-1v.63l-2.44 1v-.63zM28.28 110.08l2.44-1v.64l-2.44 1v-.64zM28.28 108.64l2.44-1v.63l-2.44 1v-.63zM28.28 107.19l2.44-1v.64l-2.44 1v-.64zM28.28 105.75l2.44-1v.63l-2.44 1v-.63zM28.28 104.3l2.44-1v.64l-2.44 1v-.64zM28.28 102.86l2.44-1v.63l-2.44 1v-.63zM28.28 101.41l2.44-1v.63l-2.44 1.01v-.64zM28.28 99.97l2.44-1v.63l-2.44 1v-.63zM28.28 98.52l2.44-1v.63l-2.44 1v-.63zM28.28 97.08l2.44-1v.63l-2.44 1v-.63zM28.28 95.63l2.44-1v.63l-2.44 1v-.63zM28.28 94.19l2.44-1v.63l-2.44 1v-.63zM28.28 92.74l2.44-1v.63l-2.44 1v-.63zM28.28 91.56l.03-.28 2.27-.93.07.61-2.37.97v-.37zM28.49 89.76l1.93-.79.07.61-2.08.85.08-.67zM28.67 88.24l1.58-.65.08.61-1.74.71.08-.67zM28.85 86.72l1.24-.5.07.6-1.39.57.08-.67zM29.03 85.21l.9-.37.07.6-1.05.43.08-.66zM29.2 83.69l.57-.23.07.6-.71.29.07-.66z" class="a6-cls-27" data-color-action="fill" style="fill:inherit"/></g><circle cx="29.5" cy="136.27" r="2.24" class="a6-cls-18" data-color-action="fill" style="fill:inherit"/><path d="M27.67 132.06h3.67v3h-3.67z" class="a6-cls-18" data-color-action="fill" style="fill:inherit"/><path d="M28.49 132.06h.55v3h-.55z" class="a6-cls-24"/><path d="M28.7 137.63h-.21a2.32 2.32 0 0 1-.52-1.29 2.37 2.37 0 0 1 .52-1.3H29a2 2 0 0 0-.73 1.37 1.5 1.5 0 0 0 .43 1.22z" class="a6-cls-24"/><path d="M28.28 125.7h2.44v.63h-2.44z" class="a6-cls-27" data-color-action="fill" style="fill:inherit"/><path d="M32.11 132.08h-5.22l.87-5.71h3.48l.87 5.71z" class="a6-cls-18" data-color-action="fill" style="fill:inherit"/><path d="M28.85 132.08h-.79l.48-5.71h.53l-.22 5.71z" class="a6-cls-24"/></g><g id="a56_implant_cylinder" data-name="implant cylinder"><path d="M2 22h55v137.17H2z" class="a6-cls-22"/><path d="M26.17 86.01h6.67v49.33h-6.67zM24.5 135.35h10v3h-10z" class="a6-cls-18" data-color-action="fill" style="fill:inherit"/><path d="M28 86.01h1v49.33h-1zM26.75 135.35h1.5v3h-1.5z" class="a6-cls-24"/><path d="M24.5 82.99h10v3h-10z" class="a6-cls-18" data-color-action="fill" style="fill:inherit"/><path d="M26.75 82.99h1.5v3h-1.5z" class="a6-cls-24"/><path d="M26.17 134.71h6.67v.63h-6.67zM26.17 86.01h6.67v.63h-6.67z" class="a6-cls-27" data-color-action="fill" style="fill:inherit"/><g class="a6-cls-28"><path d="M32.83 87.65l-6.66-1.01v-.63l6.66 1v.64zM32.83 89.09l-6.66-1v-.63l6.66 1v.63zM32.83 90.54l-6.66-1v-.64l6.66 1.01v.63zM32.83 91.98l-6.66-1v-.63l6.66 1v.63zM32.83 93.43l-6.66-1v-.63l6.66 1v.63zM32.83 94.87l-6.66-1v-.63l6.66 1v.63zM32.83 96.32l-6.66-1v-.63l6.66 1v.63zM32.83 97.76l-6.66-1v-.63l6.66 1v.63zM32.83 99.21l-6.66-1v-.63l6.66 1v.63zM32.83 100.66l-6.66-1.01v-.63l6.66 1v.64zM32.83 102.1l-6.66-1v-.63l6.66 1v.63zM32.83 103.55l-6.66-1v-.64l6.66 1v.64zM32.83 104.99l-6.66-1v-.63l6.66 1v.63zM32.83 106.44l-6.66-1v-.64l6.66 1.01v.63zM32.83 107.88l-6.66-1v-.63l6.66 1v.63zM32.83 109.33l-6.66-1v-.64l6.66 1v.64zM32.83 110.77l-6.66-1v-.63l6.66 1v.63zM32.83 112.22l-6.66-1v-.63l6.66 1v.63zM32.83 113.66l-6.66-1v-.63l6.66 1v.63zM32.83 115.11l-6.66-1v-.63l6.66 1v.63zM32.83 116.56l-6.66-1.01v-.63l6.66 1v.64zM32.83 118l-6.66-1v-.63l6.66 1v.63zM32.83 119.45l-6.66-1.01v-.63l6.66 1v.64zM32.83 120.89l-6.66-1v-.63l6.66 1v.63zM32.83 122.34l-6.66-1v-.64l6.66 1v.64zM32.83 123.78l-6.66-1v-.63l6.66 1v.63zM32.83 125.23l-6.66-1v-.64l6.66 1v.64zM32.83 126.67l-6.66-1v-.63l6.66 1v.63zM32.83 128.12l-6.66-1v-.63l6.66 1v.63zM32.83 129.56l-6.66-1v-.63l6.66 1v.63zM32.83 131.01l-6.66-1v-.63l6.66 1v.63zM32.83 132.46l-6.66-1.01v-.63l6.66 1v.64zM32.83 133.9l-6.66-1v-.63l6.66 1v.63zM32.83 135.35l-6.66-1.01v-.63l6.66 1v.64z" class="a6-cls-27" data-color-action="fill" style="fill:inherit"/></g></g><g id="a56_implant_blade" data-name="implant blade"><path d="M2 22h55v137.17H2z" class="a6-cls-22"/><path d="M26.17 86.01h6.67v49.33h-6.67zM24.5 135.35h10v3h-10z" class="a6-cls-18" data-color-action="fill" style="fill:inherit"/><path d="M28 86.01h1v49.33h-1zM26.75 135.35h1.5v3h-1.5z" class="a6-cls-24"/><path d="M26.17 134.71h6.67v.63h-6.67z" class="a6-cls-27" data-color-action="fill" style="fill:inherit"/></g><path id="a56_watch_tooth" d="M8.27 27.73a3.26 3.26 0 0 1 3.22-3.26 3.24 3.24 0 1 1 0 6.47 3.25 3.25 0 0 1-3.22-3.21zm1-5.91L8.39 3.73h6.15l-.8 18.09z" class="a6-cls-11" data-color-action="fill" style="fill:inherit" data-name="watch tooth"/><path id="a56_border" d="M0 0h59v161H0z" class="a6-cls-14" transform="rotate(-180 29.5 80.5)"/></defs></g><g class="c6-cls-1" transform="translate(0 217)"><g id="_6C" data-name="#6C"><path d="M46.74 18.33c1.69 2-1.48 26.18-4.61 32s-21.54 5.67-24.48.2S11.09 26 11.91 22.67 24.9 9.33 28.36 8.84s14.57 4.95 18.38 9.49z" class="c6-cls-2"/><path d="M46.74 18.33c1.69 2-1.48 26.18-4.61 32s-21.54 5.67-24.48.2S11.09 26 11.91 22.67 24.9 9.33 28.36 8.84s14.57 4.95 18.38 9.49z" class="c6-cls-3"/><path d="M11.91 22.67c.82-3.35 13-13.34 16.45-13.83s14.56 4.94 18.38 9.48c.33.39.47 1.65.47 3.44a3.72 3.72 0 0 0-1.5-2.28C43.51 17.91 33 11.6 29.58 11.8s-13.66 8.58-14.69 9.81c-.9 1.08-2.57 3-2.94 5.09a15 15 0 0 1-.04-4.03z" class="c6-cls-4"/><path d="M19.49 49c2.06 1.17 5.83 1.92 10.29 2s8.92-.34 11.32-1.78A8.41 8.41 0 0 0 43.39 47a18.64 18.64 0 0 1-1.26 3.26c-3.13 5.8-21.54 5.74-24.48.27a25.18 25.18 0 0 1-1.52-3.79A30.57 30.57 0 0 0 19.49 49z" class="c6-cls-5"/></g><defs><g id="c56_splinted_crowns" data-name="splinted crowns"><path d="M2 52.09h55v7.67H2z" class="c6-cls-12" data-color-action="fill" style="fill:inherit"/><path d="M46.74 18.33c1.69 2-1.48 26.18-4.61 32s-21.54 5.67-24.48.2S11.09 26 11.91 22.67 24.9 9.33 28.36 8.84s14.57 4.95 18.38 9.49z" class="c6-cls-2"/><path d="M46.74 18.33c1.69 2-1.48 26.18-4.61 32s-21.54 5.67-24.48.2S11.09 26 11.91 22.67 24.9 9.33 28.36 8.84s14.57 4.95 18.38 9.49z" class="c6-cls-3"/><path d="M11.91 22.67c.82-3.35 13-13.34 16.45-13.83s14.56 4.94 18.38 9.48c.33.39.47 1.65.47 3.44a3.72 3.72 0 0 0-1.5-2.28C43.51 17.91 33 11.6 29.58 11.8s-13.66 8.58-14.69 9.81c-.9 1.08-2.57 3-2.94 5.09a15 15 0 0 1-.04-4.03z" class="c6-cls-4"/><path d="M19.49 49c2.06 1.17 5.83 1.92 10.29 2s8.92-.34 11.32-1.78A8.41 8.41 0 0 0 43.39 47a18.64 18.64 0 0 1-1.26 3.26c-3.13 5.8-21.54 5.74-24.48.27a25.18 25.18 0 0 1-1.52-3.79A30.57 30.57 0 0 0 19.49 49z" class="c6-cls-5"/></g><path id="c56_lingual_V" d="M39.75 52.52A15.37 15.37 0 0 0 29.2 48.2a15.19 15.19 0 0 0-10.09 3.93c4.39 3.19 15.41 3.36 20.64.39z" class="c6-cls-6" data-color-action="fill" style="fill:inherit" data-name="lingual V"/><ellipse id="c56_mid_lingual" cx="28.92" cy="34.8" class="c6-cls-6" rx="4.61" ry="9.46" data-color-action="fill" style="fill:inherit" data-name="mid lingual"/><path id="c56_mesial" d="M41.06 27.31a6.48 6.48 0 0 0-.72-2.31l5.7-7.4c.25.25.49.5.7.75 1 1.14.35 9.39-.92 17.38-2.08-1.39-4.23-3.88-4.76-8.42z" class="c6-cls-6" data-color-action="fill" style="fill:inherit"/><path id="c56_line_angle_4" d="M32.85 21.25l2.73-10.42A37.92 37.92 0 0 1 46 17.57L40.34 25c-1.26-2.37-3.98-3.46-7.49-3.75z" class="c6-cls-6" data-color-action="fill" style="fill:inherit" data-name="line angle 4"/><path id="c56_lingual" d="M29.23 21.19a24.54 24.54 0 0 0-3.9.44l-3.21-9.29c2.58-1.9 5-3.32 6.23-3.5 1.44-.2 4.21.63 7.22 2l-2.72 10.41a28.58 28.58 0 0 0-3.62-.06z" class="c6-cls-6" data-color-action="fill" style="fill:inherit"/><path id="c56_line_angle_3" d="M19.16 26.88l-5.66-6.76a54.65 54.65 0 0 1 8.63-7.77l3.21 9.29c-3.34.68-5.11 2.22-6.18 5.24z" class="c6-cls-6" data-color-action="fill" style="fill:inherit" data-name="line angle 3"/><path id="c56_distal" d="M11.91 22.67a7.54 7.54 0 0 1 1.59-2.56l5.66 6.76a21.42 21.42 0 0 0-.93 4c-.43 2.91-2.7 4.42-4.8 5.19-1.21-5.93-1.94-11.68-1.52-13.39z" class="c6-cls-6" data-color-action="fill" style="fill:inherit"/><g id="c56_veneer"><path d="M28 1.25h3v3h-3z" class="c6-cls-7"/><path d="M28 1.25h3v3h-3z" class="c6-cls-7"/><path d="M28 1.25h3v3h-3z" class="c6-cls-7"/></g><g id="c56_tissue_graft" data-name="tissue graft"><path d="M28 1.25h3v3h-3z" class="c6-cls-7"/><path d="M28 1.25h3v3h-3z" class="c6-cls-7"/><path d="M28 1.25h3v3h-3z" class="c6-cls-7"/></g><g id="c56_tipped_lingual" class="c6-cls-8" data-name="tipped lingual"><path d="M30.35 5.93c-1.26-3.37-4.74-3.85-7.69 5.32-.5 1.56-4.42 1.76-3.84 0C20.84 5.15 24.14 1 27.89 2a4.86 4.86 0 0 1 3 3.38c-.2.15-.43.41-.54.55z" class="c6-cls-9" data-color-action="fill" style="fill:inherit"/><path d="M28.27 8.85H15.33l2.94 9.64 10-9.64z" class="c6-cls-9" data-color-action="fill" style="fill:inherit"/></g><g id="c56_tipped_facial" data-name="tipped facial"><path d="M28 1.25h3v3h-3z" class="c6-cls-7"/><path d="M28 1.25h3v3h-3z" class="c6-cls-7"/><path d="M28 1.25h3v3h-3z" class="c6-cls-7"/></g><path id="c56_surface_restoration_mesial" d="M46.74 18.32c1.21 1.43-.07 14.2-2 23.47A11.51 11.51 0 0 0 38 46.61c1.19-8.77 2.17-20.67 2.2-24.62l5.1-5.1a14.85 14.85 0 0 1 1.44 1.43z" class="c6-cls-10" data-color-action="fill" style="fill:inherit" data-name="surface restoration mesial"/><path id="c56_surface_restoration_lingual" d="M36.22 51.8a13.81 13.81 0 0 0-12.94.08 11.43 11.43 0 0 0-1.92-5.41c-1.33-8.32-2.47-19-2.58-21.8a49.88 49.88 0 0 1 10.56-8.74 36.35 36.35 0 0 1 10.89 5.79c0 3.67-1 15.93-2.2 24.9a11.44 11.44 0 0 0-1.81 5.18z" class="c6-cls-8 c6-cls-11" data-color-action="fill" style="fill:inherit" data-name="surface restoration lingual"/><path id="c56_surface_restoration_lingual_V" d="M36.22 51.8c0 .36-.06.72-.06 1.09v1a28.23 28.23 0 0 1-12.93 0c0-.33.05-.66.05-1v-1a13.81 13.81 0 0 1 12.94-.08z" class="c6-cls-8 c6-cls-11" data-color-action="fill" style="fill:inherit" data-name="surface restoration lingual V"/><path id="c56_surface_restoration_distal" d="M18.79 24.66c.11 2.81 1.25 13.48 2.58 21.8a11.51 11.51 0 0 0-6.65-4.69c-1.91-7.54-3.36-16.85-2.81-19.11a8.36 8.36 0 0 1 1.85-2.86l5.19 4.67z" class="c6-cls-10" data-color-action="fill" style="fill:inherit" data-name="surface restoration distal"/><path id="c56_surface_restoration_incisal" d="M28.36 8.83c3.11-.44 12.34 3.89 17 8.06L40.24 22v-.28a36.35 36.35 0 0 0-10.89-5.79 50.49 50.49 0 0 0-10.4 8.56l-5.19-4.67c3.72-4.3 11.87-10.6 14.6-10.99z" class="c6-cls-10" data-color-action="fill" style="fill:inherit" data-name="surface restoration incisal"/><g id="c56_supra-erupted"><path d="M28 1.25h3v3h-3z" class="c6-cls-7"/><path d="M28 1.25h3v3h-3z" class="c6-cls-7"/><path d="M28 1.25h3v3h-3z" class="c6-cls-7"/></g><g id="c56_sub-erupted"><path d="M28 1.25h3v3h-3z" class="c6-cls-7"/><path d="M28 1.25h3v3h-3z" class="c6-cls-7"/><path d="M28 1.25h3v3h-3z" class="c6-cls-7"/></g><g id="c56_sealant"><path d="M28 1.25h3v3h-3z" class="c6-cls-7"/><path d="M28 1.25h3v3h-3z" class="c6-cls-7"/><path d="M28 1.25h3v3h-3z" class="c6-cls-7"/></g><g id="c56_root_decay" data-name="root decay"><path d="M28 1.25h3v3h-3z" class="c6-cls-7"/><path d="M28 1.25h3v3h-3z" class="c6-cls-7"/><path d="M28 1.25h3v3h-3z" class="c6-cls-7"/></g><g id="c56_root_canal" data-name="root canal"><path d="M28 1.25h3v3h-3z" class="c6-cls-7"/><path d="M28 1.25h3v3h-3z" class="c6-cls-7"/><path d="M28 1.25h3v3h-3z" class="c6-cls-7"/></g><g id="c56_root_abrasion" data-name="root abrasion"><path d="M28 1.25h3v3h-3z" class="c6-cls-7"/><path d="M28 1.25h3v3h-3z" class="c6-cls-7"/><path d="M28 1.25h3v3h-3z" class="c6-cls-7"/></g><g id="c56_open_contact_mesial" data-name="open contact mesial"><path d="M28 1.25h3v3h-3z" class="c6-cls-7"/><path d="M28 1.25h3v3h-3z" class="c6-cls-7"/><path d="M28 1.25h3v3h-3z" class="c6-cls-7"/></g><g id="c56_open_contact_distal" data-name="open contact distal"><path d="M28 1.25h3v3h-3z" class="c6-cls-7"/><path d="M28 1.25h3v3h-3z" class="c6-cls-7"/><path d="M28 1.25h3v3h-3z" class="c6-cls-7"/></g><path id="c56_lingual_abfraction" d="M42 55.84s-5.61 4.42-12.53 4.42S17 55.84 17 55.84s5.61-4.42 12.53-4.42S42 55.84 42 55.84z" class="c6-cls-15" data-color-action="fill" style="fill:inherit" data-name="lingual abfraction"/><g id="c56_internal_root_resorption" data-name="internal root resorption"><path d="M28 1.25h3v3h-3z" class="c6-cls-7"/><path d="M28 1.25h3v3h-3z" class="c6-cls-7"/><path d="M28 1.25h3v3h-3z" class="c6-cls-7"/></g><g id="c56_gortex_membranes" data-name="gortex membranes"><path d="M28 1.25h3v3h-3z" class="c6-cls-7"/><path d="M28 1.25h3v3h-3z" class="c6-cls-7"/><path d="M28 1.25h3v3h-3z" class="c6-cls-7"/></g><g id="c56_frenum_pull" data-name="frenum pull"><path d="M28 1.25h3v3h-3z" class="c6-cls-7"/><path d="M28 1.25h3v3h-3z" class="c6-cls-7"/><path d="M28 1.25h3v3h-3z" class="c6-cls-7"/></g><g id="c56_external_root_resorption" data-name="external root resorption"><path d="M28 1.25h3v3h-3z" class="c6-cls-7"/><path d="M28 1.25h3v3h-3z" class="c6-cls-7"/><path d="M28 1.25h3v3h-3z" class="c6-cls-7"/></g><path id="c56_three_quarter_crown" d="M46.27 32.71c1-6.95 1.31-13.39.47-14.38-3.82-4.54-14.92-10-18.38-9.48S12.72 19.33 11.91 22.67c-.34 1.38.08 5.4.89 10z" class="c6-cls-8 c6-cls-19" data-color-action="fill" style="fill:inherit" data-name="three quarter crown"/><path id="c56_crown" d="M46.74 18.33c1.69 2-1.48 26.18-4.61 32s-21.54 5.67-24.48.2S11.09 26 11.91 22.67 24.9 9.33 28.36 8.84s14.57 4.95 18.38 9.49z" class="c6-cls-8 c6-cls-19" data-color-action="fill" style="fill:inherit"/><path id="c56_cracked_surface_mesial" d="M41.34 23.74l3.83 3.83h-5.01l5.01 4.75h-5.01l3.83 3.83" class="c6-cls-20" data-color-action="stroke" style="stroke:inherit" data-name="cracked surface mesial"/><path id="c56_cracked_surface_lingual" d="M28.17 23.74l3.84 3.83H27l5 4.75h-5l3.83 3.83" class="c6-cls-20" data-color-action="stroke" style="stroke:inherit" data-name="cracked surface lingual"/><path id="c56_cracked_surface_lingual_V" d="M28.17 23.74l3.84 3.83H27l5 4.75h-5l3.83 3.83" class="c6-cls-20" data-color-action="stroke" style="stroke:inherit" data-name="cracked surface lingual V"/><path id="c56_cracked_surface_distal" d="M13.34 23.74l3.83 3.83h-5l5 4.75h-5L16 36.15" class="c6-cls-20" data-color-action="stroke" style="stroke:inherit" data-name="cracked surface distal"/><g id="c56_chipped_surface_mesial" class="c6-cls-8" data-name="chipped surface mesial"><path d="M37.83 25.41l8.33 8.34M46.16 25.41l-8.33 8.34" class="c6-cls-21" data-color-action="stroke" style="stroke:inherit"/></g><g id="c56_chipped_surface_lingual" class="c6-cls-8" data-name="chipped surface lingual"><path d="M25.67 25.41L34 33.75M34 25.41l-8.33 8.34" class="c6-cls-21" data-color-action="stroke" style="stroke:inherit"/></g><g id="c56_chipped_surface_lingual_V" class="c6-cls-8" data-name="chipped surface lingual V"><path d="M25.67 25.41L34 33.75M34 25.41l-8.33 8.34" class="c6-cls-21" data-color-action="stroke" style="stroke:inherit"/></g><g id="c56_chipped_surface_distal" class="c6-cls-8" data-name="chipped surface distal"><path d="M11.67 25.41L20 33.75M20 25.41l-8.33 8.34" class="c6-cls-21" data-color-action="stroke" style="stroke:inherit"/></g><g id="c56_buccal_abfraction" data-name="buccal abfraction"><path d="M28 1.25h3v3h-3z" class="c6-cls-7"/><path d="M28 1.25h3v3h-3z" class="c6-cls-7"/><path d="M28 1.25h3v3h-3z" class="c6-cls-7"/></g><g id="c56_braces"><path d="M28 1.25h3v3h-3z" class="c6-cls-7"/><path d="M28 1.25h3v3h-3z" class="c6-cls-7"/><path d="M28 1.25h3v3h-3z" class="c6-cls-7"/></g><g id="c56_apicoectomy"><path d="M28 1.25h3v3h-3z" class="c6-cls-7"/><path d="M28 1.25h3v3h-3z" class="c6-cls-7"/><path d="M28 1.25h3v3h-3z" class="c6-cls-7"/></g><g id="c56_abscess"><path d="M28 1.25h3v3h-3z" class="c6-cls-7"/><path d="M28 1.25h3v3h-3z" class="c6-cls-7"/><path d="M28 1.25h3v3h-3z" class="c6-cls-7"/></g><g id="c56_blunted_roots" data-name="blunted roots"><path d="M28 1.25h3v3h-3z" class="c6-cls-7"/><path d="M28 1.25h3v3h-3z" class="c6-cls-7"/><path d="M28 1.25h3v3h-3z" class="c6-cls-7"/></g><g id="c56_root_amputation" data-name="root amputation"><path d="M28 1.25h3v3h-3z" class="c6-cls-7"/><path d="M28 1.25h3v3h-3z" class="c6-cls-7"/><path d="M28 1.25h3v3h-3z" class="c6-cls-7"/></g><g id="c56_missing_crown" data-name="missing crown"><path d="M28 1.25h3v3h-3z" class="c6-cls-7"/><path d="M28 1.25h3v3h-3z" class="c6-cls-7"/><path d="M28 1.25h3v3h-3z" class="c6-cls-7"/><path d="M2 2.02h55V64H2z" class="c6-cls-13"/></g><g id="c56_missing_tooth" data-name="missing tooth"><path d="M46.74 18.33c1.69 2-1.48 26.18-4.61 32s-21.54 5.67-24.48.2S11.09 26 11.91 22.67 24.9 9.33 28.36 8.84s14.57 4.95 18.38 9.49z" class="c6-cls-2"/><path d="M46.74 18.33c1.69 2-1.48 26.18-4.61 32s-21.54 5.67-24.48.2S11.09 26 11.91 22.67 24.9 9.33 28.36 8.84s14.57 4.95 18.38 9.49z" class="c6-cls-13"/><path d="M11.91 22.67c.82-3.35 13-13.34 16.45-13.83s14.56 4.94 18.38 9.48c.33.39.47 1.65.47 3.44a3.72 3.72 0 0 0-1.5-2.28C43.51 17.91 33 11.6 29.58 11.8s-13.66 8.58-14.69 9.81c-.9 1.08-2.57 3-2.94 5.09a15 15 0 0 1-.04-4.03zM19.49 49c2.06 1.17 5.83 1.92 10.29 2s8.92-.34 11.32-1.78A8.41 8.41 0 0 0 43.39 47a18.64 18.64 0 0 1-1.26 3.26c-3.13 5.8-21.54 5.74-24.48.27a25.18 25.18 0 0 1-1.52-3.79A30.57 30.57 0 0 0 19.49 49z" class="c6-cls-13"/></g><g id="c56_maryland_bridge_pontic" class="c6-cls-8" data-name="maryland bridge pontic"><path d="M2 28.96h55v7.67H2z" class="c6-cls-14" data-color-action="fill" style="fill:inherit"/><path d="M46.74 18.33c1.69 2-1.48 26.18-4.61 32s-21.54 5.67-24.48.2S11.09 26 11.91 22.67 24.9 9.33 28.36 8.84s14.57 4.95 18.38 9.49z" class="c6-cls-14" data-color-action="fill" style="fill:inherit"/></g><g id="c56_maryland_bridge_abutment_mesial" class="c6-cls-8" data-name="maryland bridge abutment mesial"><path d="M36.58 28.17H57v7.67H36.58z" class="c6-cls-14" data-color-action="fill" style="fill:inherit"/><ellipse cx="37.81" cy="32" class="c6-cls-14" rx="5.61" ry="12.9" data-color-action="fill" style="fill:inherit"/></g><g id="c56_maryland_bridge_abutment_distal" class="c6-cls-8" data-name="maryland bridge abutment distal"><path d="M2 28.17h20.42v7.67H2z" class="c6-cls-14" data-color-action="fill" style="fill:inherit"/><ellipse cx="21.19" cy="32" class="c6-cls-14" rx="5.61" ry="12.9" data-color-action="fill" style="fill:inherit"/></g><g id="c56_maryland_bridge_abutment" class="c6-cls-8" data-name="maryland bridge abutment"><path d="M36.58 28.17H57v7.67H36.58zM2 28.17h20.42v7.67H2z" class="c6-cls-14" data-color-action="fill" style="fill:inherit"/><ellipse cx="21.19" cy="32" class="c6-cls-14" rx="5.61" ry="12.9" data-color-action="fill" style="fill:inherit"/><ellipse cx="37.81" cy="32" class="c6-cls-14" rx="5.61" ry="12.9" data-color-action="fill" style="fill:inherit"/></g><g id="c56_bridge_abutment_mesial" class="c6-cls-8" data-name="bridge abutment mesial"><path d="M46.74 18.33c1.69 2-1.48 26.18-4.61 32s-21.54 5.67-24.48.2S11.09 26 11.91 22.67 24.9 9.33 28.36 8.84s14.57 4.95 18.38 9.49z" class="c6-cls-11" data-color-action="fill" style="fill:inherit"/><path d="M22.02 28.74H57v7.67H22.02z" class="c6-cls-11" data-color-action="fill" style="fill:inherit"/></g><g id="c56_bridge_abutment_distal" class="c6-cls-8" data-name="bridge abutment distal"><path d="M46.74 18.33c1.69 2-1.48 26.18-4.61 32s-21.54 5.67-24.48.2S11.09 26 11.91 22.67 24.9 9.33 28.36 8.84s14.57 4.95 18.38 9.49z" class="c6-cls-11" data-color-action="fill" style="fill:inherit"/><path d="M2 28.74h34.98v7.67H2z" class="c6-cls-11" data-color-action="fill" style="fill:inherit"/></g><g id="c56_bridge_abutment" class="c6-cls-8" data-name="bridge abutment"><path d="M46.74 18.33c1.69 2-1.48 26.18-4.61 32s-21.54 5.67-24.48.2S11.09 26 11.91 22.67 24.9 9.33 28.36 8.84s14.57 4.95 18.38 9.49z" class="c6-cls-11" data-color-action="fill" style="fill:inherit"/><path d="M2 28.74h55v7.67H2z" class="c6-cls-11" data-color-action="fill" style="fill:inherit"/></g><g id="c56_bridge_pontic" class="c6-cls-8" data-name="bridge pontic"><path d="M46.74 18.33c1.69 2-1.48 26.18-4.61 32s-21.54 5.67-24.48.2S11.09 26 11.91 22.67 24.9 9.33 28.36 8.84s14.57 4.95 18.38 9.49z" class="c6-cls-11" data-color-action="fill" style="fill:inherit"/><path d="M2 28.74h55v7.67H2z" class="c6-cls-11" data-color-action="fill" style="fill:inherit"/></g><g id="c56_implant_mini" data-name="implant mini"><path d="M2 2.02h55V64H2z" class="c6-cls-13"/><path d="M29.72 66h-.44l-1-8.5V16.67h2.44V57.5l-1 8.5z" class="c6-cls-11" data-color-action="fill" style="fill:inherit"/><path d="M29.42 66h-.07l-.4-8.5V16.67h.37V57.5l.1 8.5z" class="c6-cls-16"/><path d="M28.28 16.67h2.44v.63h-2.44z" class="c6-cls-17" data-color-action="fill" style="fill:inherit"/><g class="c6-cls-18"><path d="M28.28 17.3l2.44 1v-.63l-2.44-1v.63zM28.28 18.75l2.44 1v-.64l-2.44-1v.64zM28.28 20.19l2.44 1v-.63l-2.44-1v.63zM28.28 21.64l2.44 1V22l-2.44-1v.64zM28.28 23.08l2.44 1v-.63l-2.44-1v.63zM28.28 24.53l2.44 1v-.64l-2.44-1v.64zM28.28 25.97l2.44 1v-.63l-2.44-1v.63zM28.28 27.42l2.44 1v-.63l-2.44-1v.63zM28.28 28.86l2.44 1v-.63l-2.44-1v.63zM28.28 30.31l2.44 1v-.63l-2.44-1v.63zM28.28 31.75l2.44 1.01v-.64l-2.44-1v.63zM28.28 33.2l2.44 1v-.63l-2.44-1v.63zM28.28 34.65l2.44 1v-.64l-2.44-1v.64zM28.28 36.09l2.44 1v-.63l-2.44-1v.63zM28.28 37.54l2.44 1v-.64l-2.44-1v.64zM28.28 38.98l2.44 1v-.63l-2.44-1v.63zM28.28 40.43l2.44 1v-.63l-2.44-1.01v.64zM28.28 41.87l2.44 1v-.63l-2.44-1v.63zM28.28 43.32l2.44 1v-.63l-2.44-1v.63zM28.28 44.76l2.44 1v-.63l-2.44-1v.63zM28.28 46.21l2.44 1v-.63l-2.44-1v.63zM28.28 47.65l2.44 1.01v-.64l-2.44-1v.63zM28.28 49.1l2.44 1v-.63l-2.44-1v.63zM28.28 50.55l2.44 1v-.64l-2.44-1v.64zM28.28 51.99l2.44 1v-.63l-2.44-1v.63zM28.28 53.44l2.44 1v-.64l-2.44-1v.64zM28.28 54.88l2.44 1v-.63l-2.44-1v.63zM28.28 56.33l2.44 1v-.63l-2.44-1.01v.64zM28.28 57.5l.03.29 2.27.92.07-.6-2.37-.97v.36zM28.49 59.3l1.93.79.07-.6-2.08-.85.08.66zM28.67 60.82l1.58.65.08-.6-1.74-.71.08.66zM28.85 62.34l1.24.51.07-.6-1.39-.57.08.66zM29.03 63.86l.9.37.07-.6-1.05-.43.08.66zM29.2 65.38l.57.23.07-.6-.71-.3.07.67z" class="c6-cls-17" data-color-action="fill" style="fill:inherit"/></g><circle cx="29.5" cy="12.79" r="2.24" class="c6-cls-11" data-color-action="fill" style="fill:inherit"/><path d="M27.67 14.01h3.67v3h-3.67z" class="c6-cls-11" data-color-action="fill" style="fill:inherit"/><path d="M28.49 14.01h.55v3h-.55z" class="c6-cls-16"/><path d="M28.7 11.44h-.21a2.32 2.32 0 0 0-.49 1.28 2.37 2.37 0 0 0 .52 1.3H29a2 2 0 0 1-.73-1.37 1.5 1.5 0 0 1 .43-1.21z" class="c6-cls-16"/><path d="M28.28 22.74h2.44v.63h-2.44z" class="c6-cls-17" data-color-action="fill" style="fill:inherit"/><path d="M32.11 16.99h-5.22l.87 5.71h3.48l.87-5.71z" class="c6-cls-11" data-color-action="fill" style="fill:inherit"/><path d="M28.85 16.99h-.79l.48 5.71h.53l-.22-5.71z" class="c6-cls-16"/></g><g id="c56_implant_cylinder" data-name="implant cylinder"><path d="M2 2.02h55V64H2z" class="c6-cls-13"/><path d="M26.17 13.67h6.67V63h-6.67zM24.5 63h10v3h-10z" class="c6-cls-11" data-color-action="fill" style="fill:inherit"/><path d="M28 13.67h1V63h-1zM26.75 63h1.5v3h-1.5z" class="c6-cls-16"/><path d="M24.5 10.64h10v3h-10z" class="c6-cls-11" data-color-action="fill" style="fill:inherit"/><path d="M26.75 10.64h1.5v3h-1.5z" class="c6-cls-16"/><path d="M26.17 62.37h6.67V63h-6.67zM26.17 13.67h6.67v.63h-6.67z" class="c6-cls-17" data-color-action="fill" style="fill:inherit"/><g class="c6-cls-18"><path d="M32.83 15.3l-6.66-1v-.63l6.66 1v.63zM32.83 16.75l-6.66-1v-.63l6.66 1v.63zM32.83 18.19l-6.66-1v-.63l6.66 1v.63zM32.83 19.64l-6.66-1v-.63l6.66 1v.63zM32.83 21.08l-6.66-1v-.63l6.66 1v.63zM32.83 22.53l-6.66-1v-.63l6.66 1v.63zM32.83 23.98l-6.66-1v-.64l6.66 1v.64zM32.83 25.42l-6.66-1v-.63l6.66 1v.63zM32.83 26.87l-6.66-1.01v-.63l6.66 1v.64zM32.83 28.31l-6.66-1v-.63l6.66 1v.63zM32.83 29.76l-6.66-1v-.64l6.66 1.01v.63zM32.83 31.2l-6.66-1v-.63l6.66 1v.63zM32.83 32.65l-6.66-1v-.63l6.66 1v.63zM32.83 34.09l-6.66-1v-.63l6.66 1v.63zM32.83 35.54l-6.66-1v-.63l6.66 1v.63zM32.83 36.98l-6.66-1v-.63l6.66 1v.63zM32.83 38.43l-6.66-1v-.63l6.66 1v.63zM32.83 39.88l-6.66-1v-.64l6.66 1v.64zM32.83 41.32l-6.66-1v-.63l6.66 1v.63zM32.83 42.77l-6.66-1v-.64l6.66 1v.64zM32.83 44.21l-6.66-1v-.63l6.66 1v.63zM32.83 45.66l-6.66-1v-.64l6.66 1v.64zM32.83 47.1l-6.66-1v-.63l6.66 1v.63zM32.83 48.55l-6.66-1v-.64l6.66 1.01v.63zM32.83 49.99l-6.66-1v-.63l6.66 1v.63zM32.83 51.44l-6.66-1v-.63l6.66 1v.63zM32.83 52.88l-6.66-1v-.63l6.66 1v.63zM32.83 54.33l-6.66-1v-.63l6.66 1v.63zM32.83 55.77l-6.66-1v-.63l6.66 1v.63zM32.83 57.22l-6.66-1v-.63l6.66 1v.63zM32.83 58.67l-6.66-1.01v-.63l6.66 1v.64zM32.83 60.11l-6.66-1v-.63l6.66 1v.63zM32.83 61.56l-6.66-1v-.64l6.66 1v.64zM32.83 63l-6.66-1v-.63l6.66 1V63z" class="c6-cls-17" data-color-action="fill" style="fill:inherit"/></g></g><g id="c56_implant_blade" data-name="implant blade"><path d="M2 2.02h55V64H2z" class="c6-cls-13"/><path d="M26.17 13.64h6.67v49.33h-6.67zM24.5 10.64h10v3h-10z" class="c6-cls-11" data-color-action="fill" style="fill:inherit"/><path d="M28 13.64h1v49.33h-1zM26.75 10.64h1.5v3h-1.5z" class="c6-cls-16"/><path d="M26.17 13.64h6.67v.63h-6.67z" class="c6-cls-17" data-color-action="fill" style="fill:inherit"/></g><g id="c56_border"><path d="M0 0h59v66H0z" class="c6-cls-7"/><path d="M0 0h59v66H0z" class="c6-cls-7" transform="rotate(-180 29.5 33)"/></g></defs></g></svg>