<svg xmlns="http://www.w3.org/2000/svg" viewBox="0 0 59 283"><defs><style>.a12-cls-1{isolation:isolate}.a12-cls-2{font-size:15px;fill:#929497;font-family:ProximaNova-Semibold,Proxima Nova,sans-serif;font-weight:700;stroke:none}.a12-cls-24,.a12-cls-3{fill:#c5c7c9;stroke:none}.a12-cls-3{stroke:#c5c7c9;stroke-width:5px}.a12-cls-19,.a12-cls-21,.a12-cls-23,.a12-cls-25,.a12-cls-26,.a12-cls-29,.a12-cls-3,.a12-cls-32,.a12-cls-33{stroke-miterlimit:10}.a12-cls-4,.a12-cls-5{fill:#f5d7cf;stroke:none}.a12-cls-5{fill:#fae8e3}.a12-cls-6,.a12-cls-7{fill:#f2c6bc;stroke:none}.a12-cls-7{fill:#eeefef}.a12-cls-8,.a12-cls-9{fill:#e2e3e4;stroke:none}.a12-cls-9{fill:#fbfbfb}.a12-cls-10,.a12-cls-27,.a12-cls-36{fill:#3c3d3d;stroke:none}.a12-cls-10{opacity:.55}.a12-cls-11{fill:#ffd403;stroke:none}.a12-cls-12,.a12-cls-31{fill:#ffef3e;stroke:none}.a12-cls-13,.a12-cls-20{fill:#c52636;stroke:none}.a12-cls-14{fill:none;stroke:none}.a12-cls-19,.a12-cls-21,.a12-cls-23,.a12-cls-25,.a12-cls-26,.a12-cls-29,.a12-cls-32,.a12-cls-33{fill:none}.a12-cls-16,.a12-cls-37{fill:#28418b;stroke:none}.a12-cls-17,.a12-cls-18{fill:#787878;stroke:none}.a12-cls-19,.a12-cls-21,.a12-cls-23,.a12-cls-29,.a12-cls-32,.a12-cls-33{stroke:#c52636}.a12-cls-19,.a12-cls-21,.a12-cls-26{stroke-width:2px}.a12-cls-21{stroke-linecap:round}.a12-cls-22{fill:#fff;stroke:none}.a12-cls-25,.a12-cls-26{stroke:#28418b}.a12-cls-25{stroke-width:3px}.a12-cls-28{opacity:.6}.a12-cls-29{stroke-width:4px}.a12-cls-30{fill:#f05b85;stroke:none}.a12-cls-32,.a12-cls-33{stroke-width:1.25px}.a12-cls-34{fill:#9b9999;stroke:none}.a12-cls-35{fill:#dbdbdc;stroke:none}.b12-cls-1{isolation:isolate}.b12-cls-2{fill:#c5c7c9;stroke:#c5c7c9;stroke-width:5px}.b12-cls-16,.b12-cls-17,.b12-cls-2{stroke-miterlimit:10}.b12-cls-3{fill:#eeefef;stroke:none}.b12-cls-4,.b12-cls-5{fill:#e2e3e4;stroke:none}.b12-cls-5{fill:#fbfbfb}.b12-cls-14,.b12-cls-6{fill:#3c3d3d;stroke:none}.b12-cls-6{opacity:.55}.b12-cls-16,.b12-cls-17{fill:none}.b12-cls-7{fill:none;stroke:none}.b12-cls-13,.b12-cls-8,.b12-cls-9{fill:#787878;stroke:none}.b12-cls-9{font-size:33px;fill:#28418b;font-family:ProximaNova-Semibold,Proxima Nova,sans-serif;font-weight:700}.b12-cls-10{fill:#fff;stroke:none}.b12-cls-12{fill:#c52636;stroke:none}.b12-cls-15{fill:#ffef3e;stroke:none}.b12-cls-16,.b12-cls-17{stroke:#c52636;stroke-width:1.25px}.c12-cls-1{isolation:isolate}.c12-cls-16,.c12-cls-2{fill:#c5c7c9;stroke:none}.c12-cls-2{stroke:#c5c7c9;stroke-width:5px}.c12-cls-2,.c12-cls-20,.c12-cls-21{stroke-miterlimit:10}.c12-cls-3{fill:#eeefef;stroke:none}.c12-cls-4,.c12-cls-5{fill:#fbfbfb;stroke:none}.c12-cls-5{fill:#e2e3e4}.c12-cls-17,.c12-cls-6{fill:#3c3d3d;stroke:none}.c12-cls-6{opacity:.55}.c12-cls-20,.c12-cls-21{fill:none}.c12-cls-7,.c12-cls-9{fill:none;stroke:none}.c12-cls-9{fill:#28418b}.c12-cls-10,.c12-cls-11{fill:#787878;stroke:none}.c12-cls-12,.c12-cls-19{fill:#ffef3e;stroke:none}.c12-cls-13{fill:#fff;stroke:none}.c12-cls-14,.c12-cls-15{fill:#c52636;stroke:none}.c12-cls-18{opacity:.6}.c12-cls-20,.c12-cls-21{stroke:#c52636;stroke-width:1.25px}.a12-msng-cls-1{isolation:isolate}.a12-msng-cls-2{font-size:15px;fill:#929497;font-family:ProximaNova-Semibold,Proxima Nova;font-weight:700;stroke:none}.a12-msng-cls-3{fill:#c5c7c9;stroke:#c5c7c9;stroke-width:5px}.a12-msng-cls-11,.a12-msng-cls-3{stroke-miterlimit:10}.a12-msng-cls-4{fill:#f5d7cf;stroke:none}.a12-msng-cls-5{fill:#fae8e3;stroke:none}.a12-msng-cls-6{fill:#f2c6bc;stroke:none}.a12-msng-cls-7{fill:#eeefef;stroke:none}.a12-msng-cls-8{fill:#e2e3e4;stroke:none}.a12-msng-cls-9{fill:#fbfbfb;stroke:none}.a12-msng-cls-11{fill:none}.a12-msng-cls-12{fill:none;stroke:none}.a12-msng-cls-11{stroke:#787878;stroke-width:6.25px}</style></defs><g class="a12-cls-1"><g id="_12A" data-name="#12A"><text class="a12-cls-2" transform="translate(22.19 20.51)">12</text><path d="M41.55 112a7.85 7.85 0 0 0-1-.56c-1.09-7.23-3.79-23.36-5-35.19-1.67-17.35-4.02-40.85-5.63-40.85S23 47.66 19.65 78c-1.35 12.3-1.94 29.5-2 36l-.1.09c-3.86 4-4.45 22.39-4.58 28.08s15.1 12 19.79 11.75c4.21-.25 10.3-6.66 12.49-8.54 4.21-3.59 1-30.19-3.7-33.38z" class="a12-cls-3"/><path d="M17.67 116.43c-.16-2.35.37-23.88 2-38.47C23 47.66 28.31 35.4 29.92 35.4s4 23.5 5.69 40.82c1.5 15 5.44 37 5.44 38.84S18 122 17.67 116.43z" class="a12-cls-4"/><path d="M34.74 112.15s-.86-4.26-1.81-14.36c-1.13-12-2.39-43-2.27-47.71s.73-10.7 0-10.82-1.81 13.37-2.06 24.44 0 25.55.26 33 .9 15.94.9 15.94z" class="a12-cls-5"/><path d="M21.27 80.42c.4-6.68 1.45-18.86 2.19-27.06-1.35 6.32-2.69 14.44-3.81 24.64-1.61 14.6-2.14 36.12-2 38.47.06 1 .8 1.59 2 2l1-3.15s-.19-21.15.62-34.9zM41.05 115.07c0-1.86-3.94-23.82-5.44-38.84-1-10.34-2.29-22.89-3.47-31.32.44 9.23 1.34 27.61 2.08 38.57 1 15.08 2.85 30.06 2.85 30.06l.5 3.28c2.09-.65 3.48-1.3 3.48-1.75z" class="a12-cls-6"/><path d="M17.55 114.08c-3.86 4-4.45 22.39-4.58 28.08s15.1 12 19.79 11.75c4.21-.25 10.3-6.66 12.49-8.54 4.21-3.59 1-30.18-3.71-33.4s-18.54-3.58-23.99 2.11z" class="a12-cls-7"/><path d="M15.72 144.44c.1-6.21.59-26.26 3.76-30.67a10 10 0 0 1 2.92-2.66 12.69 12.69 0 0 0-4.85 3c-3.86 4-4.45 22.39-4.58 28.08 0 1.78 1.43 3.63 3.6 5.31a6.15 6.15 0 0 1-.85-3.06zM41.55 112a12.42 12.42 0 0 0-4-1.59 7.29 7.29 0 0 1 1.65 1.09c3.86 3.51 6.5 32.56 3 36.48l-.59.7c1.52-1.35 2.82-2.6 3.6-3.28 4.25-3.61 1.04-30.21-3.66-33.4z" class="a12-cls-8"/><path d="M36.64 134.41c-.41-11.31-1.22-17.73-2.34-22.11a15.65 15.65 0 0 0-.86-2.55 30.88 30.88 0 0 0-3.58-.05 9.62 9.62 0 0 1 .67 1.89c.82 3.87 1.53 11.31 1.32 21.91-.15 7.94-.84 16.6-1.07 20.26a9.23 9.23 0 0 0 2 .16 9.26 9.26 0 0 0 4-1.52c.07-4.4.08-11.84-.14-17.99z" class="a12-cls-9"/></g><defs><g id="a12_bone_graft" data-name="bone graft"><path d="M2 23.31h55v91.86H2z" class="a12-cls-16" data-color-action="fill" style="fill:inherit"/><path d="M41.55 112a7.85 7.85 0 0 0-1-.56c-1.09-7.23-3.79-23.36-5-35.19-1.67-17.35-4.02-40.85-5.63-40.85S23 47.66 19.65 78c-1.35 12.3-1.94 29.5-2 36l-.1.09c-3.86 4-4.45 22.39-4.58 28.08s15.1 12 19.79 11.75c4.21-.25 10.3-6.66 12.49-8.54 4.21-3.59 1-30.19-3.7-33.38z" class="a12-cls-3"/><path d="M17.67 116.43c-.16-2.35.37-23.88 2-38.47C23 47.66 28.31 35.4 29.92 35.4s4 23.5 5.69 40.82c1.5 15 5.44 37 5.44 38.84S18 122 17.67 116.43z" class="a12-cls-4"/><path d="M34.74 112.15s-.86-4.26-1.81-14.36c-1.13-12-2.39-43-2.27-47.71s.73-10.7 0-10.82-1.81 13.37-2.06 24.44 0 25.55.26 33 .9 15.94.9 15.94z" class="a12-cls-5"/><path d="M21.27 80.42c.4-6.68 1.45-18.86 2.19-27.06-1.35 6.32-2.69 14.44-3.81 24.64-1.61 14.6-2.14 36.12-2 38.47.06 1 .8 1.59 2 2l1-3.15s-.19-21.15.62-34.9zM41.05 115.07c0-1.86-3.94-23.82-5.44-38.84-1-10.34-2.29-22.89-3.47-31.32.44 9.23 1.34 27.61 2.08 38.57 1 15.08 2.85 30.06 2.85 30.06l.5 3.28c2.09-.65 3.48-1.3 3.48-1.75z" class="a12-cls-6"/><path d="M17.55 114.08c-3.86 4-4.45 22.39-4.58 28.08s15.1 12 19.79 11.75c4.21-.25 10.3-6.66 12.49-8.54 4.21-3.59 1-30.18-3.71-33.4s-18.54-3.58-23.99 2.11z" class="a12-cls-7"/><path d="M15.72 144.44c.1-6.21.59-26.26 3.76-30.67a10 10 0 0 1 2.92-2.66 12.69 12.69 0 0 0-4.85 3c-3.86 4-4.45 22.39-4.58 28.08 0 1.78 1.43 3.63 3.6 5.31a6.15 6.15 0 0 1-.85-3.06zM41.55 112a12.42 12.42 0 0 0-4-1.59 7.29 7.29 0 0 1 1.65 1.09c3.86 3.51 6.5 32.56 3 36.48l-.59.7c1.52-1.35 2.82-2.6 3.6-3.28 4.25-3.61 1.04-30.21-3.66-33.4z" class="a12-cls-8"/><path d="M36.64 134.41c-.41-11.31-1.22-17.73-2.34-22.11a15.65 15.65 0 0 0-.86-2.55 30.88 30.88 0 0 0-3.58-.05 9.62 9.62 0 0 1 .67 1.89c.82 3.87 1.53 11.31 1.32 21.91-.15 7.94-.84 16.6-1.07 20.26a9.23 9.23 0 0 0 2 .16 9.26 9.26 0 0 0 4-1.52c.07-4.4.08-11.84-.14-17.99z" class="a12-cls-9"/></g><g id="a12_splinted_crowns" data-name="splinted crowns"><path d="M2 104.58h55v7.67H2z" class="a12-cls-12" transform="rotate(-180 29.5 108.41)" data-color-action="fill" style="fill:inherit"/><path d="M41.55 112a7.85 7.85 0 0 0-1-.56c-1.09-7.23-3.79-23.36-5-35.19-1.67-17.35-4.02-40.85-5.63-40.85S23 47.66 19.65 78c-1.35 12.3-1.94 29.5-2 36l-.1.09c-3.86 4-4.45 22.39-4.58 28.08s15.1 12 19.79 11.75c4.21-.25 10.3-6.66 12.49-8.54 4.21-3.59 1-30.19-3.7-33.38z" class="a12-cls-3"/><path d="M17.67 116.43c-.16-2.35.37-23.88 2-38.47C23 47.66 28.31 35.4 29.92 35.4s4 23.5 5.69 40.82c1.5 15 5.44 37 5.44 38.84S18 122 17.67 116.43z" class="a12-cls-4"/><path d="M34.74 112.15s-.86-4.26-1.81-14.36c-1.13-12-2.39-43-2.27-47.71s.73-10.7 0-10.82-1.81 13.37-2.06 24.44 0 25.55.26 33 .9 15.94.9 15.94z" class="a12-cls-5"/><path d="M21.27 80.42c.4-6.68 1.45-18.86 2.19-27.06-1.35 6.32-2.69 14.44-3.81 24.64-1.61 14.6-2.14 36.12-2 38.47.06 1 .8 1.59 2 2l1-3.15s-.19-21.15.62-34.9zM41.05 115.07c0-1.86-3.94-23.82-5.44-38.84-1-10.34-2.29-22.89-3.47-31.32.44 9.23 1.34 27.61 2.08 38.57 1 15.08 2.85 30.06 2.85 30.06l.5 3.28c2.09-.65 3.48-1.3 3.48-1.75z" class="a12-cls-6"/><path d="M17.55 114.08c-3.86 4-4.45 22.39-4.58 28.08s15.1 12 19.79 11.75c4.21-.25 10.3-6.66 12.49-8.54 4.21-3.59 1-30.18-3.71-33.4s-18.54-3.58-23.99 2.11z" class="a12-cls-7"/><path d="M15.72 144.44c.1-6.21.59-26.26 3.76-30.67a10 10 0 0 1 2.92-2.66 12.69 12.69 0 0 0-4.85 3c-3.86 4-4.45 22.39-4.58 28.08 0 1.78 1.43 3.63 3.6 5.31a6.15 6.15 0 0 1-.85-3.06zM41.55 112a12.42 12.42 0 0 0-4-1.59 7.29 7.29 0 0 1 1.65 1.09c3.86 3.51 6.5 32.56 3 36.48l-.59.7c1.52-1.35 2.82-2.6 3.6-3.28 4.25-3.61 1.04-30.21-3.66-33.4z" class="a12-cls-8"/><path d="M36.64 134.41c-.41-11.31-1.22-17.73-2.34-22.11a15.65 15.65 0 0 0-.86-2.55 30.88 30.88 0 0 0-3.58-.05 9.62 9.62 0 0 1 .67 1.89c.82 3.87 1.53 11.31 1.32 21.91-.15 7.94-.84 16.6-1.07 20.26a9.23 9.23 0 0 0 2 .16 9.26 9.26 0 0 0 4-1.52c.07-4.4.08-11.84-.14-17.99z" class="a12-cls-9"/></g><path id="a12_mesial" d="M19.6 132.49a19 19 0 0 0 .74 4.38l-6.19 8.25a4.8 4.8 0 0 1-1.18-3c.06-2.82.24-8.77.87-14.53 2.36.34 5.52 1.41 5.76 4.9z" class="a12-cls-10" data-color-action="fill" style="fill:inherit"/><path id="a12_line_angle_2" d="M26.56 142.13L24.78 152c-4.16-1.66-8.57-4.18-10.63-6.84l6.19-8.25c.93 2.9 2.78 4.61 6.22 5.22z" class="a12-cls-10" data-color-action="fill" style="fill:inherit" data-name="line angle 2"/><path id="a12_cusp_1" d="M31.05 142.39a14 14 0 0 0 4-.67l3.28 9.59c-1.93 1.4-3.92 2.5-5.61 2.6s-4.76-.67-8-1.95l1.79-9.83a21.35 21.35 0 0 0 4.54.26z" class="a12-cls-10" data-color-action="fill" style="fill:inherit" data-name="cusp 1"/><path id="a12_line_angle_1" d="M40.05 136l6 8.29a3.28 3.28 0 0 1-.76 1.05c-1.31 1.12-4 3.86-6.88 5.94l-3.28-9.59a7.32 7.32 0 0 0 4.92-5.69z" class="a12-cls-10" data-color-action="fill" style="fill:inherit" data-name="line angle 1"/><path id="a12_distal" d="M46 144.32l-6-8.29a26.43 26.43 0 0 0 .61-5c.18-3.63 3.84-4.19 5.86-4.22 1.02 7.01 1.06 14.45-.47 17.51z" class="a12-cls-10" data-color-action="fill" style="fill:inherit"/><ellipse id="a12_buccal" cx="30.08" cy="127.93" class="a12-cls-10" rx="4.61" ry="9.46" data-color-action="fill" style="fill:inherit"/><path id="a12_buccal_V" d="M21.12 111.63c5.21-2.41 12.74-2.41 17.49-1a13.33 13.33 0 0 1-17.49 1z" class="a12-cls-10" data-color-action="fill" style="fill:inherit" data-name="buccal V"/><path id="a12_veneer" d="M17.55 114.08c-3.86 4-4.45 22.39-4.58 28.08s15.1 12 19.79 11.75c4.21-.25 10.3-6.66 12.49-8.54 4.21-3.59 1-30.18-3.71-33.4s-18.54-3.58-23.99 2.11z" class="a12-cls-12" data-color-action="fill" style="fill:inherit"/><path id="a12_tissue_graft" d="M12.03 95.66l17.47 13.88 17.47-13.88H12.03z" class="a12-cls-13" data-color-action="fill" style="fill:inherit" data-name="tissue graft"/><path id="a12_tipped_lingual" d="M28 3.25h3v3h-3z" class="a12-cls-14" transform="rotate(-180 29.5 4.75)" data-name="tipped lingual"/><g id="a12_tipped_facial" class="a12-cls-15" data-name="tipped facial"><path d="M33.15 156.5c-1.26 3.37-4.74 3.85-7.69-5.32-.5-1.56-4.42-1.76-3.84 0 2 6.08 5.31 10.2 9.06 9.27a4.86 4.86 0 0 0 3-3.38 4.48 4.48 0 0 1-.53-.57z" class="a12-cls-16" data-color-action="fill" style="fill:inherit"/><path d="M31.07 153.58H18.13l2.94-9.64 10 9.64z" class="a12-cls-16" data-color-action="fill" style="fill:inherit"/></g><path id="a12_surface_restoration_occlusal" d="M15.11 146.23l5.09-4.78c2.32 2.16 9.21 5.22 12 5.46 1.77-.66 5.54-4.16 6.81-5.33l.77-.71 4.74 5.13c-2.6 2.38-8 7.68-11.78 7.9-3.59.22-13.28-3.41-17.63-7.67z" class="a12-cls-17" data-color-action="fill" style="fill:inherit" data-name="surface restoration occlusal"/><path id="a12_surface_restoration_distal" d="M39.84 140.8c.84-3.13.25-15.2-.94-23.66a11.55 11.55 0 0 0 6.82 5.19c1.84 9 2.2 20.75-.5 23l-.71.63-4.75-5.14z" class="a12-cls-17" data-color-action="fill" style="fill:inherit" data-name="surface restoration distal"/><path id="a12_surface_restoration_buccal" d="M37 112.13a13.81 13.81 0 0 0 1.88 5c1.19 8.46 1.78 20.53.94 23.66l-.85.78c-1.27 1.17-5 4.67-6.81 5.33-2.88-.25-10.16-3.51-12.23-5.68.23-8.53.86-17.21 1.52-23.2a14.15 14.15 0 0 0 1.63-5.78 14.31 14.31 0 0 0 13.92-.11z" class="a12-cls-15 a12-cls-18" data-color-action="fill" style="fill:inherit" data-name="surface restoration buccal"/><path id="a12_surface_restoration_buccal_V" d="M23.11 110.87a28.68 28.68 0 0 1 13.71-.63 14.78 14.78 0 0 0 .2 1.89 14.31 14.31 0 0 1-13.92.12v-.92c.03-.15.02-.33.01-.46z" class="a12-cls-15 a12-cls-18" data-color-action="fill" style="fill:inherit" data-name="surface restoration buccal V"/><path id="a12_surface_restoration_mesial" d="M12.94 142.16A153.7 153.7 0 0 1 14.29 124a11.71 11.71 0 0 0 7.19-6c-.66 6-1.29 14.67-1.52 23.2l.24.22-5.09 4.78c-1.36-1.3-2.2-2.69-2.17-4.04z" class="a12-cls-17" data-color-action="fill" style="fill:inherit" data-name="surface restoration mesial"/><g id="a12_supra-erupted" class="a12-cls-15"><path d="M28.5 102.88V95.2" class="a12-cls-19" data-color-action="stroke" style="stroke:inherit"/><path d="M32.49 101.71l-3.99 6.91-3.99-6.91h7.98z" class="a12-cls-20" data-color-action="fill" style="fill:inherit"/></g><g id="a12_sub-erupted" class="a12-cls-15"><path d="M28.5 100.94v7.68" class="a12-cls-19" data-color-action="stroke" style="stroke:inherit"/><path d="M24.51 102.11l3.99-6.91 3.99 6.91h-7.98z" class="a12-cls-20" data-color-action="fill" style="fill:inherit"/></g><path id="a12_sealant" d="M28 3.25h3v3h-3z" class="a12-cls-14" transform="rotate(-180 29.5 4.75)"/><g id="a12_rotated_mesial" class="a12-cls-15" data-name="rotated mesial"><path d="M52.29 128.18c3 1.79 2.3 5.46-10.23 5.81-5.3.15-8.95 0-8.95 0l.07 3s1 .07 8.22-.24c7.62-.32 14-1.83 13.75-6a4 4 0 0 0-2.31-2.92c-.17.17-.41.28-.55.35z" class="a12-cls-16" data-color-action="fill" style="fill:inherit"/><path d="M39.59 129.47v11.89l-10.39-5.9 10.39-5.99z" class="a12-cls-16" data-color-action="fill" style="fill:inherit"/></g><g id="a12_rotated_distal" class="a12-cls-15" data-name="rotated distal"><path d="M6.45 128.18c-3 1.79-2.3 5.46 10.23 5.81 5.3.15 8.95 0 8.95 0l-.07 3s-1 .07-8.22-.24c-7.62-.32-14-1.83-13.75-6a4 4 0 0 1 2.31-2.92c.17.17.42.28.55.35z" class="a12-cls-16" data-color-action="fill" style="fill:inherit"/><path d="M19.15 129.47v11.89l10.4-5.9-10.4-5.99z" class="a12-cls-16" data-color-action="fill" style="fill:inherit"/></g><circle id="a12_root_decay" cx="28" cy="65.17" r="4.33" class="a12-cls-15 a12-cls-18" data-color-action="fill" style="fill:inherit" data-name="root decay"/><path id="a12_root_canal" d="M29.33 41.17v66.33" class="a12-cls-21" data-color-action="stroke" style="stroke:inherit" data-name="root canal"/><path id="a12_root_abrasion" d="M25.92 55.83h3.5v13.83h-3.5z" class="a12-cls-15 a12-cls-23" transform="rotate(-180 27.665 62.75)" data-color-action="stroke" style="stroke:inherit" data-name="root abrasion"/><g id="a12_post"><path d="M28.35 87.39h3.14v41.77h-3.14z" class="a12-cls-18" transform="rotate(-180 29.925 108.275)" data-color-action="fill" style="fill:inherit"/><path d="M30.16 87.39h.47v41.77h-.47z" class="a12-cls-24" transform="rotate(-180 30.4 108.275)"/></g><g id="a12_pins"><path d="M31.26 97.72h2.42v23.43h-2.42z" class="a12-cls-18" transform="rotate(-180 32.465 109.44)" data-color-action="fill" style="fill:inherit"/><path d="M32.65 97.72h.36v23.43h-.36z" class="a12-cls-24" transform="rotate(-180 32.83 109.44)"/><path d="M26.68 97.72h2.42v23.43h-2.42z" class="a12-cls-18" transform="rotate(-180 27.885 109.44)" data-color-action="fill" style="fill:inherit"/><path d="M28.07 97.72h.36v23.43h-.36z" class="a12-cls-24" transform="rotate(-180 28.25 109.44)"/></g><path id="a12_open_contact_mesial" d="M25.31 104.99l-7.5 4.75-7.5-4.75" class="a12-cls-25" data-color-action="stroke" style="stroke:inherit" data-name="open contact mesial"/><path id="a12_open_contact_distal" d="M48.33 103.99l-7.5 4.75-7.5-4.75" class="a12-cls-25" data-color-action="stroke" style="stroke:inherit" data-name="open contact distal"/><g id="a12_mesial_drift" class="a12-cls-15" data-name="mesial drift"><path d="M26.41 133.16h11.92" class="a12-cls-26" data-color-action="stroke" style="stroke:inherit"/><path d="M27.57 137.15l-6.9-3.99 6.9-3.98v7.97z" class="a12-cls-16" data-color-action="fill" style="fill:inherit"/></g><path id="a12_lingual_abfraction" d="M28 3.25h3v3h-3z" class="a12-cls-14" transform="rotate(-180 29.5 4.75)" data-name="lingual abfraction"/><ellipse id="a12_internal_root_resorption" cx="27.96" cy="69.1" class="a12-cls-15 a12-cls-20" rx="9.84" ry="3.98" transform="rotate(-86.81 27.959 69.1)" data-color-action="fill" style="fill:inherit" data-name="internal root resorption"/><g id="a12_impacted_mesial" class="a12-cls-15" data-name="impacted mesial"><ellipse cx="29.5" cy="94.46" class="a12-cls-26" rx="24.15" ry="65.13" data-color-action="stroke" style="stroke:inherit"/><path d="M40.91 94.46h12.76" class="a12-cls-26" data-color-action="stroke" style="stroke:inherit"/><path d="M42.08 98.45l-6.91-3.98 6.91-3.99v7.97z" class="a12-cls-16" data-color-action="fill" style="fill:inherit"/></g><g id="a12_impacted_distal" class="a12-cls-15" data-name="impacted distal"><ellipse cx="29.51" cy="94.46" class="a12-cls-26" rx="24.15" ry="65.13" data-color-action="stroke" style="stroke:inherit"/><path d="M18.11 94.46H5.35" class="a12-cls-26" data-color-action="stroke" style="stroke:inherit"/><path d="M16.94 90.48l6.91 3.99-6.91 3.98v-7.97z" class="a12-cls-16" data-color-action="fill" style="fill:inherit"/></g><path id="a12_gortex_membranes" d="M2 96.83h55v16.42H2z" class="a12-cls-13" transform="rotate(-180 29.5 105.04)" data-color-action="fill" style="fill:inherit" data-name="gortex membranes"/><path id="a12_frenum_pull" d="M39.49 108.58l-10.66-6.75-10.65 6.75" class="a12-cls-29" data-color-action="stroke" style="stroke:inherit" data-name="frenum pull"/><path id="a12_external_root_resorption" d="M31.32 75.81c.6 5.29 3.46 7.47 5.21 8.32-.35-2.74-.67-5.42-.92-7.91-.29-2.95-.61-6.07-.93-9.23-1.55 1.01-3.97 3.46-3.36 8.82zM19 85.09a9.34 9.34 0 0 0 4.88-7.69 10.65 10.65 0 0 0-3.11-8.4c-.39 2.8-.77 5.79-1.12 9-.25 2.2-.47 4.61-.65 7.09z" class="a12-cls-15 a12-cls-20" data-color-action="fill" style="fill:inherit" data-name="external root resorption"/><g id="a12_distal_drift" class="a12-cls-15" data-name="distal drift"><path d="M32.59 133.16H20.67" class="a12-cls-26" data-color-action="stroke" style="stroke:inherit"/><path d="M31.43 129.18l6.9 3.98-6.9 3.99v-7.97z" class="a12-cls-16" data-color-action="fill" style="fill:inherit"/></g><path id="a12_three_quarter_crown" d="M47 131.67c.46 6.36 0 12.17-1.78 13.71-2.2 1.87-8.29 8.29-12.49 8.54-4.69.28-19.92-6.06-19.79-11.75 0-2.16.16-6.15.5-10.49z" class="a12-cls-15 a12-cls-31" data-color-action="fill" style="fill:inherit" data-name="three quarter crown"/><path id="a12_crown" d="M17.55 114.08c-3.86 4-4.45 22.39-4.58 28.08s15.1 12 19.79 11.75c4.21-.25 10.3-6.66 12.49-8.54 4.21-3.59 1-30.18-3.71-33.4s-18.54-3.58-23.99 2.11z" class="a12-cls-12" data-color-action="fill" style="fill:inherit"/><path id="a12_cracked_surface_distal" d="M41.34 124.82l3.83 3.83h-5.01l5.01 4.75h-5.01l3.83 3.83" class="a12-cls-32" data-color-action="stroke" style="stroke:inherit" data-name="cracked surface distal"/><path id="a12_cracked_surface_buccal" d="M28.17 124.82l3.84 3.83H27l5 4.75h-5l3.83 3.83" class="a12-cls-32" data-color-action="stroke" style="stroke:inherit" data-name="cracked surface buccal"/><path id="a12_cracked_surface_buccal_V" d="M28.17 124.82l3.84 3.83H27l5 4.75h-5l3.83 3.83" class="a12-cls-32" data-color-action="stroke" style="stroke:inherit" data-name="cracked surface buccal V"/><path id="a12_cracked_surface_mesial" d="M13.34 124.82l3.83 3.83h-5l5 4.75h-5l3.83 3.83" class="a12-cls-32" data-color-action="stroke" style="stroke:inherit" data-name="cracked surface mesial"/><g id="a12_chipped_surface_distal" class="a12-cls-15" data-name="chipped surface distal"><path d="M37.83 126.49l8.33 8.34M46.16 126.49l-8.33 8.34" class="a12-cls-33" data-color-action="stroke" style="stroke:inherit"/></g><g id="a12_chipped_surface_buccal" class="a12-cls-15" data-name="chipped surface buccal"><path d="M25.67 126.49l8.33 8.34M34 126.49l-8.33 8.34" class="a12-cls-33" data-color-action="stroke" style="stroke:inherit"/></g><g id="a12_chipped_surface_buccal_V" class="a12-cls-15" data-name="chipped surface buccal V"><path d="M25.67 126.49l8.33 8.34M34 126.49l-8.33 8.34" class="a12-cls-33" data-color-action="stroke" style="stroke:inherit"/></g><g id="a12_chipped_surface_mesial" class="a12-cls-15" data-name="chipped surface mesial"><path d="M11.67 126.49l8.33 8.34M20 126.49l-8.33 8.34" class="a12-cls-33" data-color-action="stroke" style="stroke:inherit"/></g><path id="a12_buccal_abfraction" d="M18.22 109.75a20.1 20.1 0 0 0 11.11 3.92 20.1 20.1 0 0 0 11.11-3.92 20.1 20.1 0 0 0-11.11-3.92 20.1 20.1 0 0 0-11.11 3.92z" class="a12-cls-13" data-color-action="fill" style="fill:inherit" data-name="buccal abfraction"/><g id="a12_braces"><path d="M22.96 121.97h13.45v18.19H22.96z" class="a12-cls-24" transform="rotate(-180 29.69 131.06)"/><path d="M22.96 139.48h13.45v.68H22.96z" class="a12-cls-34" transform="rotate(-180 29.69 139.815)" data-color-action="fill" style="fill:inherit"/><path d="M22.96 131.21h13.45v1.36H22.96z" class="a12-cls-34" transform="rotate(-180 29.69 131.89)" data-color-action="fill" style="fill:inherit"/><path d="M22.96 121.97h13.45v.89H22.96z" class="a12-cls-35" transform="rotate(-180 29.69 122.415)" data-color-action="fill" style="fill:inherit"/><rect width="4.11" height="7.94" x="32.59" y="121.99" class="a12-cls-27" rx=".49" ry=".49" transform="rotate(-180 34.64 125.96)" data-color-action="fill" style="fill:inherit"/><path d="M33.08 122h3.13a.49.49 0 0 1 .49.49v5.83a13.14 13.14 0 0 1-4.11 0v-5.83a.49.49 0 0 1 .49-.49z" class="a12-cls-18" data-color-action="fill" style="fill:inherit"/><path d="M32.92 123.4v-1.11a.16.16 0 0 1 .16-.16h3.13a.16.16 0 0 1 .16.16v1.11z" class="a12-cls-24"/><rect width="4.11" height="7.94" x="22.67" y="121.99" class="a12-cls-27" rx=".49" ry=".49" transform="rotate(-180 24.725 125.96)" data-color-action="fill" style="fill:inherit"/><path d="M23.16 122h3.13a.49.49 0 0 1 .49.49v5.83a13.14 13.14 0 0 1-4.11 0v-5.83a.49.49 0 0 1 .49-.49z" class="a12-cls-18" data-color-action="fill" style="fill:inherit"/><path d="M23 123.4v-1.11a.16.16 0 0 1 .16-.16h3.13a.16.16 0 0 1 .16.16v1.11z" class="a12-cls-24"/><rect width="4.11" height="7.94" x="32.59" y="132.27" class="a12-cls-27" rx=".49" ry=".49" transform="rotate(-180 34.64 136.24)" data-color-action="fill" style="fill:inherit"/><path d="M33.08 132.27h3.13a.49.49 0 0 1 .49.49v5.83a13.14 13.14 0 0 1-4.11 0v-5.83a.49.49 0 0 1 .49-.49z" class="a12-cls-18" data-color-action="fill" style="fill:inherit"/><path d="M32.92 133.68v-1.11a.16.16 0 0 1 .16-.16h3.13a.16.16 0 0 1 .16.16v1.11z" class="a12-cls-24"/><rect width="4.11" height="7.94" x="22.67" y="132.27" class="a12-cls-27" rx=".49" ry=".49" transform="rotate(-180 24.725 136.24)" data-color-action="fill" style="fill:inherit"/><path d="M23.16 132.27h3.13a.49.49 0 0 1 .49.49v5.83a13.14 13.14 0 0 1-4.11 0v-5.83a.49.49 0 0 1 .49-.49z" class="a12-cls-18" data-color-action="fill" style="fill:inherit"/><path d="M23 133.68v-1.11a.16.16 0 0 1 .16-.16h3.13a.16.16 0 0 1 .16.16v1.11z" class="a12-cls-24"/><path d="M8.58 130.38h42.21v1.45H8.58z" class="a12-cls-18" transform="rotate(-180 29.685 131.105)" data-color-action="fill" style="fill:inherit"/><path d="M8.58 131.58h42.21v.25H8.58z" class="a12-cls-27" transform="rotate(-180 29.685 131.705)" data-color-action="fill" style="fill:inherit"/><path d="M8.58 130.58h42.21v.4H8.58z" class="a12-cls-24" transform="rotate(-180 29.685 130.78)"/></g><path id="a12_apicoectomy" d="M22.16 28.14l7.34 11.67 7.34-11.67H22.16z" class="a12-cls-17" data-color-action="fill" style="fill:inherit"/><circle id="a12_abscess" cx="29.5" cy="32.64" r="6.5" class="a12-cls-37" data-color-action="fill" style="fill:inherit"/><g id="a12_blunted_roots" data-name="blunted roots"><path d="M2 22h55v57.99H2z" class="a12-cls-22" transform="rotate(-180 29.5 50.995)"/><path d="M2 80.07h55v2H2z" class="a12-cls-36" transform="rotate(-180 29.5 81.075)" data-color-action="fill" style="fill:inherit"/></g><path id="a12_root_amputation" d="M2 21.67h55v87.73H2z" class="a12-cls-22" transform="rotate(-180 29.5 65.53)" data-name="root amputation"/><path id="a12_missing_crown" d="M2 110.45h55v48.72H2z" class="a12-cls-22" transform="rotate(-180 29.5 134.81)" data-name="missing crown"/><g id="a12_missing_tooth" data-name="missing tooth"><path d="M41.55 112a7.85 7.85 0 0 0-1-.56c-1.09-7.23-3.79-23.36-5-35.19-1.67-17.35-4.02-40.85-5.63-40.85S23 47.66 19.65 78c-1.35 12.3-1.94 29.5-2 36l-.1.09c-3.86 4-4.45 22.39-4.58 28.08s15.1 12 19.79 11.75c4.21-.25 10.3-6.66 12.49-8.54 4.21-3.59 1-30.19-3.7-33.38z" class="a12-cls-3"/><path d="M17.67 116.43c-.16-2.35.37-23.88 2-38.47C23 47.66 28.31 35.4 29.92 35.4s4 23.5 5.69 40.82c1.5 15 5.44 37 5.44 38.84S18 122 17.67 116.43z" class="a12-cls-22"/><path d="M34.74 112.15s-.86-4.26-1.81-14.36c-1.13-12-2.39-43-2.27-47.71s.73-10.7 0-10.82-1.81 13.37-2.06 24.44 0 25.55.26 33 .9 15.94.9 15.94zM21.27 80.42c.4-6.68 1.45-18.86 2.19-27.06-1.35 6.32-2.69 14.44-3.81 24.64-1.61 14.6-2.14 36.12-2 38.47.06 1 .8 1.59 2 2l1-3.15s-.19-21.15.62-34.9zM41.05 115.07c0-1.86-3.94-23.82-5.44-38.84-1-10.34-2.29-22.89-3.47-31.32.44 9.23 1.34 27.61 2.08 38.57 1 15.08 2.85 30.06 2.85 30.06l.5 3.28c2.09-.65 3.48-1.3 3.48-1.75z" class="a12-cls-22"/><path d="M17.55 114.08c-3.86 4-4.45 22.39-4.58 28.08s15.1 12 19.79 11.75c4.21-.25 10.3-6.66 12.49-8.54 4.21-3.59 1-30.18-3.71-33.4s-18.54-3.58-23.99 2.11z" class="a12-cls-22"/><path d="M15.72 144.44c.1-6.21.59-26.26 3.76-30.67a10 10 0 0 1 2.92-2.66 12.69 12.69 0 0 0-4.85 3c-3.86 4-4.45 22.39-4.58 28.08 0 1.78 1.43 3.63 3.6 5.31a6.15 6.15 0 0 1-.85-3.06zM41.55 112a12.42 12.42 0 0 0-4-1.59 7.29 7.29 0 0 1 1.65 1.09c3.86 3.51 6.5 32.56 3 36.48l-.59.7c1.52-1.35 2.82-2.6 3.6-3.28 4.25-3.61 1.04-30.21-3.66-33.4zM36.64 134.41c-.41-11.31-1.22-17.73-2.34-22.11a15.65 15.65 0 0 0-.86-2.55 30.88 30.88 0 0 0-3.58-.05 9.62 9.62 0 0 1 .67 1.89c.82 3.87 1.53 11.31 1.32 21.91-.15 7.94-.84 16.6-1.07 20.26a9.23 9.23 0 0 0 2 .16 9.26 9.26 0 0 0 4-1.52c.07-4.4.08-11.84-.14-17.99z" class="a12-cls-22"/></g><g id="a12_extracted_tooth" class="a12-msng-cls-10" data-name="extracted tooth"><path d="M9 108.83l41.67 41.66M50.67 108.83L9 150.49" class="a12-msng-cls-11" data-color-action="stroke" style="stroke:inherit"/></g><g id="a12_denture"><path d="M2 23.16h55v135.01H2z" class="a12-cls-22"/><path d="M57 100.22A22.63 22.63 0 0 0 44.78 97c-7.64 0-10 3.22-15.79 3.22S19.15 97 13.2 97A24.26 24.26 0 0 0 2 100.22v57.94h55z" class="a12-cls-30" data-color-action="fill" style="fill:inherit"/><path d="M17.55 114.08c-3.86 4-4.45 22.39-4.58 28.08s15.1 12 19.79 11.75c4.21-.25 10.3-6.66 12.49-8.54 4.21-3.59 1-30.18-3.71-33.4s-18.54-3.58-23.99 2.11z" class="a12-cls-3"/><path d="M17.55 114.08c-3.86 4-4.45 22.39-4.58 28.08s15.1 12 19.79 11.75c4.21-.25 10.3-6.66 12.49-8.54 4.21-3.59 1-30.18-3.71-33.4s-18.54-3.58-23.99 2.11z" class="a12-cls-7"/><path d="M15.72 144.44c.1-6.21.59-26.26 3.76-30.67a10 10 0 0 1 2.92-2.66 12.69 12.69 0 0 0-4.85 3c-3.86 4-4.45 22.39-4.58 28.08 0 1.78 1.43 3.63 3.6 5.31a6.15 6.15 0 0 1-.85-3.06zM41.55 112a12.42 12.42 0 0 0-4-1.59 7.29 7.29 0 0 1 1.65 1.09c3.86 3.51 6.5 32.56 3 36.48l-.59.7c1.52-1.35 2.82-2.6 3.6-3.28 4.25-3.61 1.04-30.21-3.66-33.4z" class="a12-cls-8"/><path d="M36.64 134.41c-.41-11.31-1.22-17.73-2.34-22.11a15.65 15.65 0 0 0-.86-2.55 30.88 30.88 0 0 0-3.58-.05 9.62 9.62 0 0 1 .67 1.89c.82 3.87 1.53 11.31 1.32 21.91-.15 7.94-.84 16.6-1.07 20.26a9.23 9.23 0 0 0 2 .16 9.26 9.26 0 0 0 4-1.52c.07-4.4.08-11.84-.14-17.99z" class="a12-cls-9"/></g><g id="a12_maryland_bridge_pontic" class="a12-cls-15" data-name="maryland bridge pontic"><path d="M2 127.33h55V135H2z" class="a12-cls-20" transform="rotate(-180 29.5 131.165)" data-color-action="fill" style="fill:inherit"/><path d="M17.55 114.08c-3.86 4-4.45 22.39-4.58 28.08s15.1 12 19.79 11.75c4.21-.25 10.3-6.66 12.49-8.54 4.21-3.59 1-30.18-3.71-33.4s-18.54-3.58-23.99 2.11z" class="a12-cls-20" data-color-action="fill" style="fill:inherit"/></g><g id="a12_maryland_bridge_abutment_mesial" data-name="maryland bridge abutment mesial"><path d="M2 127.33h34.98V135H2z" class="a12-cls-15 a12-cls-20" transform="rotate(-180 19.49 131.165)" data-color-action="fill" style="fill:inherit"/><path d="M41.55 112a7.85 7.85 0 0 0-1-.56c-1.09-7.23-3.79-23.36-5-35.19-1.67-17.35-4.02-40.85-5.63-40.85S23 47.66 19.65 78c-1.35 12.3-1.94 29.5-2 36l-.1.09c-3.86 4-4.45 22.39-4.58 28.08s15.1 12 19.79 11.75c4.21-.25 10.3-6.66 12.49-8.54 4.21-3.59 1-30.19-3.7-33.38z" class="a12-cls-3"/><path d="M17.67 116.43c-.16-2.35.37-23.88 2-38.47C23 47.66 28.31 35.4 29.92 35.4s4 23.5 5.69 40.82c1.5 15 5.44 37 5.44 38.84S18 122 17.67 116.43z" class="a12-cls-4"/><path d="M34.74 112.15s-.86-4.26-1.81-14.36c-1.13-12-2.39-43-2.27-47.71s.73-10.7 0-10.82-1.81 13.37-2.06 24.44 0 25.55.26 33 .9 15.94.9 15.94z" class="a12-cls-5"/><path d="M21.27 80.42c.4-6.68 1.45-18.86 2.19-27.06-1.35 6.32-2.69 14.44-3.81 24.64-1.61 14.6-2.14 36.12-2 38.47.06 1 .8 1.59 2 2l1-3.15s-.19-21.15.62-34.9zM41.05 115.07c0-1.86-3.94-23.82-5.44-38.84-1-10.34-2.29-22.89-3.47-31.32.44 9.23 1.34 27.61 2.08 38.57 1 15.08 2.85 30.06 2.85 30.06l.5 3.28c2.09-.65 3.48-1.3 3.48-1.75z" class="a12-cls-6"/><path d="M17.55 114.08c-3.86 4-4.45 22.39-4.58 28.08s15.1 12 19.79 11.75c4.21-.25 10.3-6.66 12.49-8.54 4.21-3.59 1-30.18-3.71-33.4s-18.54-3.58-23.99 2.11z" class="a12-cls-7"/><path d="M15.72 144.44c.1-6.21.59-26.26 3.76-30.67a10 10 0 0 1 2.92-2.66 12.69 12.69 0 0 0-4.85 3c-3.86 4-4.45 22.39-4.58 28.08 0 1.78 1.43 3.63 3.6 5.31a6.15 6.15 0 0 1-.85-3.06zM41.55 112a12.42 12.42 0 0 0-4-1.59 7.29 7.29 0 0 1 1.65 1.09c3.86 3.51 6.5 32.56 3 36.48l-.59.7c1.52-1.35 2.82-2.6 3.6-3.28 4.25-3.61 1.04-30.21-3.66-33.4z" class="a12-cls-8"/><path d="M36.64 134.41c-.41-11.31-1.22-17.73-2.34-22.11a15.65 15.65 0 0 0-.86-2.55 30.88 30.88 0 0 0-3.58-.05 9.62 9.62 0 0 1 .67 1.89c.82 3.87 1.53 11.31 1.32 21.91-.15 7.94-.84 16.6-1.07 20.26a9.23 9.23 0 0 0 2 .16 9.26 9.26 0 0 0 4-1.52c.07-4.4.08-11.84-.14-17.99z" class="a12-cls-9"/></g><g id="a12_maryland_bridge_abutment_distal" data-name="maryland bridge abutment distal"><path d="M22.02 127.33H57V135H22.02z" class="a12-cls-15 a12-cls-20" transform="rotate(-180 39.51 131.165)" data-color-action="fill" style="fill:inherit"/><path d="M41.55 112a7.85 7.85 0 0 0-1-.56c-1.09-7.23-3.79-23.36-5-35.19-1.67-17.35-4.02-40.85-5.63-40.85S23 47.66 19.65 78c-1.35 12.3-1.94 29.5-2 36l-.1.09c-3.86 4-4.45 22.39-4.58 28.08s15.1 12 19.79 11.75c4.21-.25 10.3-6.66 12.49-8.54 4.21-3.59 1-30.19-3.7-33.38z" class="a12-cls-3"/><path d="M17.67 116.43c-.16-2.35.37-23.88 2-38.47C23 47.66 28.31 35.4 29.92 35.4s4 23.5 5.69 40.82c1.5 15 5.44 37 5.44 38.84S18 122 17.67 116.43z" class="a12-cls-4"/><path d="M34.74 112.15s-.86-4.26-1.81-14.36c-1.13-12-2.39-43-2.27-47.71s.73-10.7 0-10.82-1.81 13.37-2.06 24.44 0 25.55.26 33 .9 15.94.9 15.94z" class="a12-cls-5"/><path d="M21.27 80.42c.4-6.68 1.45-18.86 2.19-27.06-1.35 6.32-2.69 14.44-3.81 24.64-1.61 14.6-2.14 36.12-2 38.47.06 1 .8 1.59 2 2l1-3.15s-.19-21.15.62-34.9zM41.05 115.07c0-1.86-3.94-23.82-5.44-38.84-1-10.34-2.29-22.89-3.47-31.32.44 9.23 1.34 27.61 2.08 38.57 1 15.08 2.85 30.06 2.85 30.06l.5 3.28c2.09-.65 3.48-1.3 3.48-1.75z" class="a12-cls-6"/><path d="M17.55 114.08c-3.86 4-4.45 22.39-4.58 28.08s15.1 12 19.79 11.75c4.21-.25 10.3-6.66 12.49-8.54 4.21-3.59 1-30.18-3.71-33.4s-18.54-3.58-23.99 2.11z" class="a12-cls-7"/><path d="M15.72 144.44c.1-6.21.59-26.26 3.76-30.67a10 10 0 0 1 2.92-2.66 12.69 12.69 0 0 0-4.85 3c-3.86 4-4.45 22.39-4.58 28.08 0 1.78 1.43 3.63 3.6 5.31a6.15 6.15 0 0 1-.85-3.06zM41.55 112a12.42 12.42 0 0 0-4-1.59 7.29 7.29 0 0 1 1.65 1.09c3.86 3.51 6.5 32.56 3 36.48l-.59.7c1.52-1.35 2.82-2.6 3.6-3.28 4.25-3.61 1.04-30.21-3.66-33.4z" class="a12-cls-8"/><path d="M36.64 134.41c-.41-11.31-1.22-17.73-2.34-22.11a15.65 15.65 0 0 0-.86-2.55 30.88 30.88 0 0 0-3.58-.05 9.62 9.62 0 0 1 .67 1.89c.82 3.87 1.53 11.31 1.32 21.91-.15 7.94-.84 16.6-1.07 20.26a9.23 9.23 0 0 0 2 .16 9.26 9.26 0 0 0 4-1.52c.07-4.4.08-11.84-.14-17.99z" class="a12-cls-9"/></g><g id="a12_maryland_bridge_abutment" data-name="maryland bridge abutment"><path d="M2 127.33h55V135H2z" class="a12-cls-15 a12-cls-20" transform="rotate(-180 29.5 131.165)" data-color-action="fill" style="fill:inherit"/><path d="M41.55 112a7.85 7.85 0 0 0-1-.56c-1.09-7.23-3.79-23.36-5-35.19-1.67-17.35-4.02-40.85-5.63-40.85S23 47.66 19.65 78c-1.35 12.3-1.94 29.5-2 36l-.1.09c-3.86 4-4.45 22.39-4.58 28.08s15.1 12 19.79 11.75c4.21-.25 10.3-6.66 12.49-8.54 4.21-3.59 1-30.19-3.7-33.38z" class="a12-cls-3"/><path d="M17.67 116.43c-.16-2.35.37-23.88 2-38.47C23 47.66 28.31 35.4 29.92 35.4s4 23.5 5.69 40.82c1.5 15 5.44 37 5.44 38.84S18 122 17.67 116.43z" class="a12-cls-4"/><path d="M34.74 112.15s-.86-4.26-1.81-14.36c-1.13-12-2.39-43-2.27-47.71s.73-10.7 0-10.82-1.81 13.37-2.06 24.44 0 25.55.26 33 .9 15.94.9 15.94z" class="a12-cls-5"/><path d="M21.27 80.42c.4-6.68 1.45-18.86 2.19-27.06-1.35 6.32-2.69 14.44-3.81 24.64-1.61 14.6-2.14 36.12-2 38.47.06 1 .8 1.59 2 2l1-3.15s-.19-21.15.62-34.9zM41.05 115.07c0-1.86-3.94-23.82-5.44-38.84-1-10.34-2.29-22.89-3.47-31.32.44 9.23 1.34 27.61 2.08 38.57 1 15.08 2.85 30.06 2.85 30.06l.5 3.28c2.09-.65 3.48-1.3 3.48-1.75z" class="a12-cls-6"/><path d="M17.55 114.08c-3.86 4-4.45 22.39-4.58 28.08s15.1 12 19.79 11.75c4.21-.25 10.3-6.66 12.49-8.54 4.21-3.59 1-30.18-3.71-33.4s-18.54-3.58-23.99 2.11z" class="a12-cls-7"/><path d="M15.72 144.44c.1-6.21.59-26.26 3.76-30.67a10 10 0 0 1 2.92-2.66 12.69 12.69 0 0 0-4.85 3c-3.86 4-4.45 22.39-4.58 28.08 0 1.78 1.43 3.63 3.6 5.31a6.15 6.15 0 0 1-.85-3.06zM41.55 112a12.42 12.42 0 0 0-4-1.59 7.29 7.29 0 0 1 1.65 1.09c3.86 3.51 6.5 32.56 3 36.48l-.59.7c1.52-1.35 2.82-2.6 3.6-3.28 4.25-3.61 1.04-30.21-3.66-33.4z" class="a12-cls-8"/><path d="M36.64 134.41c-.41-11.31-1.22-17.73-2.34-22.11a15.65 15.65 0 0 0-.86-2.55 30.88 30.88 0 0 0-3.58-.05 9.62 9.62 0 0 1 .67 1.89c.82 3.87 1.53 11.31 1.32 21.91-.15 7.94-.84 16.6-1.07 20.26a9.23 9.23 0 0 0 2 .16 9.26 9.26 0 0 0 4-1.52c.07-4.4.08-11.84-.14-17.99z" class="a12-cls-9"/></g><g id="a12_bridge_abutment_mesial" class="a12-cls-15" data-name="bridge abutment mesial"><path d="M17.55 114.08c-3.86 4-4.45 22.39-4.58 28.08s15.1 12 19.79 11.75c4.21-.25 10.3-6.66 12.49-8.54 4.21-3.59 1-30.18-3.71-33.4s-18.54-3.58-23.99 2.11z" class="a12-cls-18" data-color-action="fill" style="fill:inherit"/><path d="M2 127.33h34.98V135H2z" class="a12-cls-18" transform="rotate(-180 19.49 131.165)" data-color-action="fill" style="fill:inherit"/></g><g id="a12_bridge_abutment_distal" class="a12-cls-15" data-name="bridge abutment distal"><path d="M17.55 114.08c-3.86 4-4.45 22.39-4.58 28.08s15.1 12 19.79 11.75c4.21-.25 10.3-6.66 12.49-8.54 4.21-3.59 1-30.18-3.71-33.4s-18.54-3.58-23.99 2.11z" class="a12-cls-18" data-color-action="fill" style="fill:inherit"/><path d="M22.02 127.33H57V135H22.02z" class="a12-cls-18" transform="rotate(-180 39.51 131.165)" data-color-action="fill" style="fill:inherit"/></g><g id="a12_bridge_abutment" class="a12-cls-15" data-name="bridge abutment"><path d="M17.55 114.08c-3.86 4-4.45 22.39-4.58 28.08s15.1 12 19.79 11.75c4.21-.25 10.3-6.66 12.49-8.54 4.21-3.59 1-30.18-3.71-33.4s-18.54-3.58-23.99 2.11z" class="a12-cls-18" data-color-action="fill" style="fill:inherit"/><path d="M2 127.33h55V135H2z" class="a12-cls-18" transform="rotate(-180 29.5 131.165)" data-color-action="fill" style="fill:inherit"/></g><g id="a12_bridge_pontic" data-name="bridge pontic"><path d="M41.55 112a7.85 7.85 0 0 0-1-.56c-1.09-7.23-3.79-23.36-5-35.19-1.67-17.35-4.02-40.85-5.63-40.85S23 47.66 19.65 78c-1.35 12.3-1.94 29.5-2 36l-.1.09c-3.86 4-4.45 22.39-4.58 28.08s15.1 12 19.79 11.75c4.21-.25 10.3-6.66 12.49-8.54 4.21-3.59 1-30.19-3.7-33.38z" class="a12-cls-3"/><path d="M17.67 116.43c-.16-2.35.37-23.88 2-38.47C23 47.66 28.31 35.4 29.92 35.4s4 23.5 5.69 40.82c1.5 15 5.44 37 5.44 38.84S18 122 17.67 116.43z" class="a12-cls-22"/><path d="M34.74 112.15s-.86-4.26-1.81-14.36c-1.13-12-2.39-43-2.27-47.71s.73-10.7 0-10.82-1.81 13.37-2.06 24.44 0 25.55.26 33 .9 15.94.9 15.94zM21.27 80.42c.4-6.68 1.45-18.86 2.19-27.06-1.35 6.32-2.69 14.44-3.81 24.64-1.61 14.6-2.14 36.12-2 38.47.06 1 .8 1.59 2 2l1-3.15s-.19-21.15.62-34.9zM41.05 115.07c0-1.86-3.94-23.82-5.44-38.84-1-10.34-2.29-22.89-3.47-31.32.44 9.23 1.34 27.61 2.08 38.57 1 15.08 2.85 30.06 2.85 30.06l.5 3.28c2.09-.65 3.48-1.3 3.48-1.75z" class="a12-cls-22"/><path d="M17.55 114.08c-3.86 4-4.45 22.39-4.58 28.08s15.1 12 19.79 11.75c4.21-.25 10.3-6.66 12.49-8.54 4.21-3.59 1-30.18-3.71-33.4s-18.54-3.58-23.99 2.11z" class="a12-cls-7"/><path d="M15.72 144.44c.1-6.21.59-26.26 3.76-30.67a10 10 0 0 1 2.92-2.66 12.69 12.69 0 0 0-4.85 3c-3.86 4-4.45 22.39-4.58 28.08 0 1.78 1.43 3.63 3.6 5.31a6.15 6.15 0 0 1-.85-3.06zM41.55 112a12.42 12.42 0 0 0-4-1.59 7.29 7.29 0 0 1 1.65 1.09c3.86 3.51 6.5 32.56 3 36.48l-.59.7c1.52-1.35 2.82-2.6 3.6-3.28 4.25-3.61 1.04-30.21-3.66-33.4z" class="a12-cls-8"/><path d="M36.64 134.41c-.41-11.31-1.22-17.73-2.34-22.11a15.65 15.65 0 0 0-.86-2.55 30.88 30.88 0 0 0-3.58-.05 9.62 9.62 0 0 1 .67 1.89c.82 3.87 1.53 11.31 1.32 21.91-.15 7.94-.84 16.6-1.07 20.26a9.23 9.23 0 0 0 2 .16 9.26 9.26 0 0 0 4-1.52c.07-4.4.08-11.84-.14-17.99z" class="a12-cls-9"/><g class="a12-cls-15"><path d="M17.55 114.08c-3.86 4-4.45 22.39-4.58 28.08s15.1 12 19.79 11.75c4.21-.25 10.3-6.66 12.49-8.54 4.21-3.59 1-30.18-3.71-33.4s-18.54-3.58-23.99 2.11z" class="a12-cls-18" data-color-action="fill" style="fill:inherit"/><path d="M2 127.33h55V135H2z" class="a12-cls-18" transform="rotate(-180 29.5 131.165)" data-color-action="fill" style="fill:inherit"/></g></g><g id="a12_implant_mini" data-name="implant mini"><path d="M1.61 22.04h55v137.17h-55z" class="a12-cls-22" transform="rotate(-180 29.115 90.625)"/><path d="M29.28 83.07h.44l1 8.49v40.84h-2.44V91.56l1-8.49z" class="a12-cls-18" data-color-action="fill" style="fill:inherit"/><path d="M29.58 83.07h.07l.4 8.49v40.84h-.37V91.56l-.1-8.49z" class="a12-cls-24"/><path d="M28.28 131.77h2.44v.63h-2.44z" class="a12-cls-27" transform="rotate(-180 29.5 132.085)" data-color-action="fill" style="fill:inherit"/><g class="a12-cls-28"><path d="M30.72 131.77l-2.44-1v.63l2.44 1v-.63zM30.72 130.32l-2.44-1v.63l2.44 1v-.63zM30.72 128.88l-2.44-1v.63l2.44 1v-.63zM30.72 127.43l-2.44-1v.63l2.44 1v-.63zM30.72 125.98l-2.44-1v.64l2.44 1v-.64zM30.72 124.54l-2.44-1v.63l2.44 1v-.63zM30.72 123.09l-2.44-1v.64l2.44 1v-.64zM30.72 121.65l-2.44-1v.63l2.44 1v-.63zM30.72 120.2l-2.44-1v.63l2.44 1.01v-.64zM30.72 118.76l-2.44-1v.63l2.44 1v-.63zM30.72 117.31l-2.44-1v.63l2.44 1v-.63zM30.72 115.87l-2.44-1v.63l2.44 1v-.63zM30.72 114.42l-2.44-1v.63l2.44 1v-.63zM30.72 112.98l-2.44-1v.63l2.44 1v-.63zM30.72 111.53l-2.44-1v.63l2.44 1v-.63zM30.72 110.08l-2.44-1v.64l2.44 1v-.64zM30.72 108.64l-2.44-1v.63l2.44 1v-.63zM30.72 107.19l-2.44-1v.64l2.44 1v-.64zM30.72 105.75l-2.44-1v.63l2.44 1v-.63zM30.72 104.3l-2.44-1v.64l2.44 1v-.64zM30.72 102.86l-2.44-1v.63l2.44 1v-.63zM30.72 101.41l-2.44-1v.63l2.44 1.01v-.64zM30.72 99.97l-2.44-1v.63l2.44 1v-.63zM30.72 98.52l-2.44-1v.63l2.44 1v-.63zM30.72 97.08l-2.44-1v.63l2.44 1v-.63zM30.72 95.63l-2.44-1v.63l2.44 1v-.63zM30.72 94.19l-2.44-1v.63l2.44 1v-.63zM30.72 92.74l-2.44-1v.63l2.44 1v-.63zM30.72 91.56l-.03-.28-2.27-.93-.07.61 2.37.97v-.37zM30.51 89.76l-1.93-.79-.07.61 2.08.85-.08-.67zM30.33 88.24l-1.58-.65-.08.61 1.74.71-.08-.67zM30.15 86.72l-1.24-.5-.07.6 1.39.57-.08-.67zM29.97 85.21l-.9-.37-.07.6 1.05.43-.08-.66zM29.8 83.69l-.57-.23-.07.6.71.29-.07-.66z" class="a12-cls-27" data-color-action="fill" style="fill:inherit"/></g><circle cx="29.5" cy="136.27" r="2.24" class="a12-cls-18" data-color-action="fill" style="fill:inherit"/><path d="M27.67 132.06h3.67v3h-3.67z" class="a12-cls-18" transform="rotate(-180 29.5 133.555)" data-color-action="fill" style="fill:inherit"/><path d="M29.96 132.06h.55v3h-.55z" class="a12-cls-24"/><path d="M30.3 137.63h.21a2.32 2.32 0 0 0 .52-1.29 2.37 2.37 0 0 0-.52-1.3H30a2 2 0 0 1 .73 1.37 1.5 1.5 0 0 1-.43 1.22z" class="a12-cls-24"/><path d="M28.28 125.7h2.44v.63h-2.44z" class="a12-cls-27" transform="rotate(-180 29.5 126.015)" data-color-action="fill" style="fill:inherit"/><path d="M26.89 132.08h5.22l-.87-5.71h-3.48l-.87 5.71z" class="a12-cls-18" data-color-action="fill" style="fill:inherit"/><path d="M30.15 132.08h.79l-.48-5.71h-.53l.22 5.71z" class="a12-cls-24"/></g><g id="a12_implant_cylinder" data-name="implant cylinder"><path d="M2 22h55v137.17H2z" class="a12-cls-22" transform="rotate(-180 29.5 90.585)"/><path d="M26.17 86.01h6.67v49.33h-6.67z" class="a12-cls-18" transform="rotate(-180 29.5 110.68)" data-color-action="fill" style="fill:inherit"/><path d="M24.5 135.35h10v3h-10z" class="a12-cls-18" transform="rotate(-180 29.5 136.845)" data-color-action="fill" style="fill:inherit"/><path d="M30 86.01h1v49.33h-1z" class="a12-cls-24" transform="rotate(-180 30.5 110.68)"/><path d="M30.75 135.35h1.5v3h-1.5z" class="a12-cls-24" transform="rotate(-180 31.5 136.845)"/><path d="M24.5 82.99h10v3h-10z" class="a12-cls-18" transform="rotate(-180 29.5 84.485)" data-color-action="fill" style="fill:inherit"/><path d="M30.75 82.99h1.5v3h-1.5z" class="a12-cls-24" transform="rotate(-180 31.5 84.485)"/><path d="M26.17 134.71h6.67v.63h-6.67z" class="a12-cls-27" transform="rotate(-180 29.5 135.03)" data-color-action="fill" style="fill:inherit"/><path d="M26.17 86.01h6.67v.63h-6.67z" class="a12-cls-27" transform="rotate(-180 29.5 86.33)" data-color-action="fill" style="fill:inherit"/><g class="a12-cls-28"><path d="M26.17 87.65l6.66-1.01v-.63l-6.66 1v.64zM26.17 89.09l6.66-1v-.63l-6.66 1v.63zM26.17 90.54l6.66-1v-.64l-6.66 1.01v.63zM26.17 91.98l6.66-1v-.63l-6.66 1v.63zM26.17 93.43l6.66-1v-.63l-6.66 1v.63zM26.17 94.87l6.66-1v-.63l-6.66 1v.63zM26.17 96.32l6.66-1v-.63l-6.66 1v.63zM26.17 97.76l6.66-1v-.63l-6.66 1v.63zM26.17 99.21l6.66-1v-.63l-6.66 1v.63zM26.17 100.66l6.66-1.01v-.63l-6.66 1v.64zM26.17 102.1l6.66-1v-.63l-6.66 1v.63zM26.17 103.55l6.66-1v-.64l-6.66 1v.64zM26.17 104.99l6.66-1v-.63l-6.66 1v.63zM26.17 106.44l6.66-1v-.64l-6.66 1.01v.63zM26.17 107.88l6.66-1v-.63l-6.66 1v.63zM26.17 109.33l6.66-1v-.64l-6.66 1v.64zM26.17 110.77l6.66-1v-.63l-6.66 1v.63zM26.17 112.22l6.66-1v-.63l-6.66 1v.63zM26.17 113.66l6.66-1v-.63l-6.66 1v.63zM26.17 115.11l6.66-1v-.63l-6.66 1v.63zM26.17 116.56l6.66-1.01v-.63l-6.66 1v.64zM26.17 118l6.66-1v-.63l-6.66 1v.63zM26.17 119.45l6.66-1.01v-.63l-6.66 1v.64zM26.17 120.89l6.66-1v-.63l-6.66 1v.63zM26.17 122.34l6.66-1v-.64l-6.66 1v.64zM26.17 123.78l6.66-1v-.63l-6.66 1v.63zM26.17 125.23l6.66-1v-.64l-6.66 1v.64zM26.17 126.67l6.66-1v-.63l-6.66 1v.63zM26.17 128.12l6.66-1v-.63l-6.66 1v.63zM26.17 129.56l6.66-1v-.63l-6.66 1v.63zM26.17 131.01l6.66-1v-.63l-6.66 1v.63zM26.17 132.46l6.66-1.01v-.63l-6.66 1v.64zM26.17 133.9l6.66-1v-.63l-6.66 1v.63zM26.17 135.35l6.66-1.01v-.63l-6.66 1v.64z" class="a12-cls-27" data-color-action="fill" style="fill:inherit"/></g></g><g id="a12_implant_blade" data-name="implant blade"><path d="M2 22h55v137.17H2z" class="a12-cls-22" transform="rotate(-180 29.5 90.585)"/><path d="M26.17 86.01h6.67v49.33h-6.67z" class="a12-cls-18" transform="rotate(-180 29.5 110.68)" data-color-action="fill" style="fill:inherit"/><path d="M24.5 135.35h10v3h-10z" class="a12-cls-18" transform="rotate(-180 29.5 136.845)" data-color-action="fill" style="fill:inherit"/><path d="M30 86.01h1v49.33h-1z" class="a12-cls-24" transform="rotate(-180 30.5 110.68)"/><path d="M30.75 135.35h1.5v3h-1.5z" class="a12-cls-24" transform="rotate(-180 31.5 136.845)"/><path d="M26.17 134.71h6.67v.63h-6.67z" class="a12-cls-27" transform="rotate(-180 29.5 135.03)" data-color-action="fill" style="fill:inherit"/></g><path id="a12_watch_tooth" d="M8.27 27.73a3.26 3.26 0 0 1 3.22-3.26 3.24 3.24 0 1 1 0 6.47 3.25 3.25 0 0 1-3.22-3.21zm1-5.91L8.39 3.73h6.15l-.8 18.09z" class="a12-cls-11" data-color-action="fill" style="fill:inherit" data-name="watch tooth"/><path id="a12_border" d="M0 0h59v161H0z" class="a12-cls-14" transform="rotate(-180 29.5 80.5)"/></defs></g><g class="b12-cls-1" transform="translate(0 161)"><g id="_12B" data-name="#12B"><path d="M13.25 22.76c-.65 1.55-.45 13.37.42 15.23 1.46 3.13 4.89 4.71 8.77 5.63 4.38 1 12.52 1.25 15.23.21 3.21-1.24 6.89-5.43 7.51-7.51S47.06 24 45 20.88c-1.57-2.36-13.57-9.81-17.11-9.39s-12.97 7.3-14.64 11.27z" class="b12-cls-2"/><path d="M13.25 22.76c-.65 1.55-.45 13.37.42 15.23 1.46 3.13 4.89 4.71 8.77 5.63 4.38 1 12.52 1.25 15.23.21 3.21-1.24 6.89-5.43 7.51-7.51S47.06 24 45 20.88c-1.57-2.36-13.57-9.81-17.11-9.39s-12.97 7.3-14.64 11.27z" class="b12-cls-3"/><path d="M17.43 26.72c-.68 1 2.09 1.25 2.09 2.3s-3.13 3.13-2.09 3.34 3.13-1.88 3.55-1-.42 3.55.63 3.76 1.25-5.22 2.71-5.43 7.3-.83 8.14.21 2.71 5 3.76 4-1.67-4-.42-4.38 5.43-4.17 4.38-4.38-5.43 3.13-6.05 3.13 0-4.38-.83-4.38-.63 3.34-3.55 3.76-5.43.83-6.26.42-1.88-4.17-2.3-3.55.63 3.13 0 3.76-3.35-2.18-3.76-1.56z" class="b12-cls-4"/><path d="M46.06 25.2c-.52-1.54-1.34-3.2-2.54-3.9C41 19.83 32 14.62 28.49 15s-12.32 5.43-14 7.51a12.25 12.25 0 0 0-1.58 2.93 10.67 10.67 0 0 1 .33-2.73c1.67-4 11.06-10.85 14.61-11.26s15.53 7 17.11 9.39a9.59 9.59 0 0 1 1.1 4.36z" class="b12-cls-5"/><path d="M43.68 38.93a16 16 0 0 1-6 4.91c-2.71 1-10.86.84-15.24-.21-3.87-.93-7.3-2.51-8.76-5.64a5.18 5.18 0 0 1-.31-1.26c1.46 1.47 3.36 3.24 4.27 3.56C21.18 41.54 27 42 31.2 41.76a55.45 55.45 0 0 0 12.48-2.83z" class="b12-cls-4"/></g><defs><g id="b12_splinted_crowns" data-name="splinted crowns"><path d="M28 1.25h3v3h-3z" class="b12-cls-7" transform="rotate(-180 29.5 2.75)"/><path d="M28 1.25h3v3h-3z" class="b12-cls-7" transform="rotate(-180 29.5 2.75)"/><path d="M28 1.25h3v3h-3z" class="b12-cls-7" transform="rotate(-180 29.5 2.75)"/></g><path id="b12_line_angle_4" d="M23.19 43.79l-.75-.16c-3.88-.92-7.3-2.5-8.77-5.63a4.31 4.31 0 0 1-.26-.92l16.25-5.4z" class="b12-cls-6" data-color-action="fill" style="fill:inherit" data-name="line angle 4"/><path id="b12_cusp_2" d="M36.37 44.18a43.08 43.08 0 0 1-13.18-.39l6.48-12.12z" class="b12-cls-6" data-color-action="fill" style="fill:inherit" data-name="cusp 2"/><path id="b12_line_angle_3" d="M45.29 35.9c0 .16-.07.31-.11.42-.63 2.09-4.3 6.28-7.51 7.51a7.51 7.51 0 0 1-1.3.34l-6.7-12.51z" class="b12-cls-6" data-color-action="fill" style="fill:inherit" data-name="line angle 3"/><path id="b12_mesial" d="M13.25 22.76A10.54 10.54 0 0 1 16 28.83c.13 2.27-1.14 4.83-2.75 7.13-.49-3.96-.52-11.96 0-13.2z" class="b12-cls-6" data-color-action="fill" style="fill:inherit"/><path id="b12_mesial_pit" d="M13.25 22.76a6.27 6.27 0 0 1 .42-.81l15.49 4.72.5 5-16.25 5.4c-.06-.31-.11-.7-.16-1.11 1.61-2.3 2.88-4.86 2.75-7.13a10.54 10.54 0 0 0-2.75-6.07z" class="b12-cls-6" data-color-action="fill" style="fill:inherit" data-name="mesial pit"/><path id="b12_distal_pit" d="M45.19 21.28a6.13 6.13 0 0 1 .38 1 8.72 8.72 0 0 0-2.74 6 10 10 0 0 0 2.61 6.84c-.05.27-.1.52-.15.73l-15.62-4.18-.5-5z" class="b12-cls-6" data-color-action="fill" style="fill:inherit" data-name="distal pit"/><path id="b12_distal" d="M45.57 22.31c1 3.48.41 9.94-.13 12.87a10 10 0 0 1-2.61-6.84 8.72 8.72 0 0 1 2.74-6.03z" class="b12-cls-6" data-color-action="fill" style="fill:inherit"/><path id="b12_line_angle_2" d="M13.68 21.95c1.56-2.57 5.55-5.95 9.1-8.17l6.39 12.89z" class="b12-cls-6" data-color-action="fill" style="fill:inherit" data-name="line angle 2"/><path id="b12_cusp_1" d="M22.78 13.78a14.87 14.87 0 0 1 5.08-2.29c1.61-.19 5 1.24 8.29 3.09l-7 12.09z" class="b12-cls-6" data-color-action="fill" style="fill:inherit" data-name="cusp 1"/><path id="b12_line_angle_1" d="M36.16 14.58c4 2.21 8 5 8.82 6.3a4 4 0 0 1 .21.4l-16 5.39z" class="b12-cls-6" data-color-action="fill" style="fill:inherit" data-name="line angle 1"/><g id="b12_veneer"><path d="M28 1.25h3v3h-3z" class="b12-cls-7" transform="rotate(-180 29.5 2.75)"/><path d="M28 1.25h3v3h-3z" class="b12-cls-7" transform="rotate(-180 29.5 2.75)"/><path d="M28 1.25h3v3h-3z" class="b12-cls-7" transform="rotate(-180 29.5 2.75)"/></g><g id="b12_tissue_graft" data-name="tissue graft"><path d="M28 1.25h3v3h-3z" class="b12-cls-7" transform="rotate(-180 29.5 2.75)"/><path d="M28 1.25h3v3h-3z" class="b12-cls-7" transform="rotate(-180 29.5 2.75)"/><path d="M28 1.25h3v3h-3z" class="b12-cls-7" transform="rotate(-180 29.5 2.75)"/></g><path id="b12_surface_restoration_lingual" d="M23.36 39.74a39.47 39.47 0 0 0 8.18.79 17.37 17.37 0 0 0 4.69-.42 8.8 8.8 0 0 0 2.52-1.74l3.6 2.08a14.2 14.2 0 0 1-4.69 3.4c-2.71 1-10.85.83-15.23-.21a15.26 15.26 0 0 1-7.14-3.4l3.94-2a15.24 15.24 0 0 0 4.13 1.5z" class="b12-cls-8" data-color-action="fill" style="fill:inherit" data-name="surface restoration lingual"/><path id="b12_surface_restoration_mesial" d="M13.67 38c-.87-1.86-1.07-13.68-.42-15.23s2.51-3.58 4.75-5.47l3.26 2.47A17.94 17.94 0 0 0 17 24.11a61.19 61.19 0 0 0 .33 12.33 4.71 4.71 0 0 0 1.87 1.78l-3.94 2A7.55 7.55 0 0 1 13.67 38z" class="b12-cls-8" data-color-action="fill" style="fill:inherit" data-name="surface restoration mesial"/><path id="b12_surface_restoration_occlusal" d="M28.23 15.48c2.19.26 11.35 5.27 13.42 7.64.57 1.28.76 8.51-.29 12a12.83 12.83 0 0 1-5.13 5 17.37 17.37 0 0 1-4.69.42 39.47 39.47 0 0 1-8.18-.79c-3.28-.78-5.24-1.86-6-3.3A61.19 61.19 0 0 1 17 24.11c1.4-2.63 8.81-8.11 11.23-8.63z" class="b12-cls-8" data-color-action="fill" style="fill:inherit" data-name="surface restoration occlusal"/><path id="b12_surface_restoration_distal" d="M41.36 35.15c1.05-3.52.86-10.75.29-12a16.33 16.33 0 0 0-2.9-2.31l3.42-2.42A13.27 13.27 0 0 1 45 20.88c2.09 3.13.83 13.36.21 15.44a12.28 12.28 0 0 1-2.83 4.11l-3.6-2.08a11.71 11.71 0 0 0 2.58-3.2z" class="b12-cls-8" data-color-action="fill" style="fill:inherit" data-name="surface restoration distal"/><path id="b12_surface_restoration_buccal" d="M28.23 15.48c-1.39.29-4.4 2.21-7 4.3L18 17.3c3.43-2.92 7.73-5.56 9.88-5.81 2.67-.31 10.12 3.82 14.31 6.9l-3.42 2.42c-3.57-2.39-8.93-5.14-10.54-5.33z" class="b12-cls-8" data-color-action="fill" style="fill:inherit" data-name="surface restoration buccal"/><g id="b12_supra-erupted"><path d="M28 1.25h3v3h-3z" class="b12-cls-7" transform="rotate(-180 29.5 2.75)"/><path d="M28 1.25h3v3h-3z" class="b12-cls-7" transform="rotate(-180 29.5 2.75)"/><path d="M28 1.25h3v3h-3z" class="b12-cls-7" transform="rotate(-180 29.5 2.75)"/></g><g id="b12_sub-erupted"><path d="M28 1.25h3v3h-3z" class="b12-cls-7" transform="rotate(-180 29.5 2.75)"/><path d="M28 1.25h3v3h-3z" class="b12-cls-7" transform="rotate(-180 29.5 2.75)"/><path d="M28 1.25h3v3h-3z" class="b12-cls-7" transform="rotate(-180 29.5 2.75)"/></g><text id="b12_sealant" class="b12-cls-9" transform="translate(19.7 39.47)" data-color-action="fill" style="fill:inherit">S</text><g id="b12_root_decay" data-name="root decay"><path d="M28 1.25h3v3h-3z" class="b12-cls-7" transform="rotate(-180 29.5 2.75)"/><path d="M28 1.25h3v3h-3z" class="b12-cls-7" transform="rotate(-180 29.5 2.75)"/><path d="M28 1.25h3v3h-3z" class="b12-cls-7" transform="rotate(-180 29.5 2.75)"/></g><g id="b12_root_canal" data-name="root canal"><path d="M28 1.25h3v3h-3z" class="b12-cls-7" transform="rotate(-180 29.5 2.75)"/><path d="M28 1.25h3v3h-3z" class="b12-cls-7" transform="rotate(-180 29.5 2.75)"/><path d="M28 1.25h3v3h-3z" class="b12-cls-7" transform="rotate(-180 29.5 2.75)"/></g><g id="b12_root_abrasion" data-name="root abrasion"><path d="M28 1.25h3v3h-3z" class="b12-cls-7" transform="rotate(-180 29.5 2.75)"/><path d="M28 1.25h3v3h-3z" class="b12-cls-7" transform="rotate(-180 29.5 2.75)"/><path d="M28 1.25h3v3h-3z" class="b12-cls-7" transform="rotate(-180 29.5 2.75)"/></g><g id="b12_post"><path d="M28 1.25h3v3h-3z" class="b12-cls-7" transform="rotate(-180 29.5 2.75)"/><path d="M28 1.25h3v3h-3z" class="b12-cls-7" transform="rotate(-180 29.5 2.75)"/><path d="M28 1.25h3v3h-3z" class="b12-cls-7" transform="rotate(-180 29.5 2.75)"/></g><g id="b12_pins"><path d="M28 1.25h3v3h-3z" class="b12-cls-7" transform="rotate(-180 29.5 2.75)"/><path d="M28 1.25h3v3h-3z" class="b12-cls-7" transform="rotate(-180 29.5 2.75)"/><path d="M28 1.25h3v3h-3z" class="b12-cls-7" transform="rotate(-180 29.5 2.75)"/></g><g id="b12_open_contact_mesial" data-name="open contact mesial"><path d="M28 1.25h3v3h-3z" class="b12-cls-7" transform="rotate(-180 29.5 2.75)"/><path d="M28 1.25h3v3h-3z" class="b12-cls-7" transform="rotate(-180 29.5 2.75)"/><path d="M28 1.25h3v3h-3z" class="b12-cls-7" transform="rotate(-180 29.5 2.75)"/></g><g id="b12_open_contact_distal" data-name="open contact distal"><path d="M28 1.25h3v3h-3z" class="b12-cls-7" transform="rotate(-180 29.5 2.75)"/><path d="M28 1.25h3v3h-3z" class="b12-cls-7" transform="rotate(-180 29.5 2.75)"/><path d="M28 1.25h3v3h-3z" class="b12-cls-7" transform="rotate(-180 29.5 2.75)"/></g><g id="b12_lingual_abfraction" data-name="lingual abfraction"><path d="M28 1.25h3v3h-3z" class="b12-cls-7" transform="rotate(-180 29.5 2.75)"/><path d="M28 1.25h3v3h-3z" class="b12-cls-7" transform="rotate(-180 29.5 2.75)"/><path d="M28 1.25h3v3h-3z" class="b12-cls-7" transform="rotate(-180 29.5 2.75)"/></g><g id="b12_internal_root_resorption" data-name="internal root resorption"><path d="M28 1.25h3v3h-3z" class="b12-cls-7" transform="rotate(-180 29.5 2.75)"/><path d="M28 1.25h3v3h-3z" class="b12-cls-7" transform="rotate(-180 29.5 2.75)"/><path d="M28 1.25h3v3h-3z" class="b12-cls-7" transform="rotate(-180 29.5 2.75)"/></g><g id="b12_gortex_membranes" data-name="gortex membranes"><path d="M28 1.25h3v3h-3z" class="b12-cls-7" transform="rotate(-180 29.5 2.75)"/><path d="M28 1.25h3v3h-3z" class="b12-cls-7" transform="rotate(-180 29.5 2.75)"/><path d="M28 1.25h3v3h-3z" class="b12-cls-7" transform="rotate(-180 29.5 2.75)"/></g><g id="b12_frenum_pull" data-name="frenum pull"><path d="M28 1.25h3v3h-3z" class="b12-cls-7" transform="rotate(-180 29.5 2.75)"/><path d="M28 1.25h3v3h-3z" class="b12-cls-7" transform="rotate(-180 29.5 2.75)"/><path d="M28 1.25h3v3h-3z" class="b12-cls-7" transform="rotate(-180 29.5 2.75)"/></g><g id="b12_external_root_resorption" data-name="external root resorption"><path d="M28 1.25h3v3h-3z" class="b12-cls-7" transform="rotate(-180 29.5 2.75)"/><path d="M28 1.25h3v3h-3z" class="b12-cls-7" transform="rotate(-180 29.5 2.75)"/><path d="M28 1.25h3v3h-3z" class="b12-cls-7" transform="rotate(-180 29.5 2.75)"/></g><path id="b12_three_quarter_crown" d="M13.25 22.76c-.65 1.55-.45 13.37.42 15.23 1.46 3.13 4.89 4.71 8.77 5.63 4.38 1 12.52 1.25 15.23.21 3.21-1.24 6.89-5.43 7.51-7.51S47.06 24 45 20.88c-1.57-2.36-13.57-9.81-17.11-9.39s-12.97 7.3-14.64 11.27z" class="b12-cls-11 b12-cls-15" data-color-action="fill" style="fill:inherit" data-name="three quarter crown"/><path id="b12_crown" d="M13.25 22.76c-.65 1.55-.45 13.37.42 15.23 1.46 3.13 4.89 4.71 8.77 5.63 4.38 1 12.52 1.25 15.23.21 3.21-1.24 6.89-5.43 7.51-7.51S47.06 24 45 20.88c-1.57-2.36-13.57-9.81-17.11-9.39s-12.97 7.3-14.64 11.27z" class="b12-cls-11 b12-cls-15" data-color-action="fill" style="fill:inherit"/><path id="b12_cracked_surface_occlusal" d="M28.17 22.74l3.84 3.83H27l5 4.75h-5l3.83 3.83" class="b12-cls-16" data-color-action="stroke" style="stroke:inherit" data-name="cracked surface occlusal"/><g id="b12_chipped_surface_occlusal" class="b12-cls-11" data-name="chipped surface occlusal"><path d="M25.67 24.41L34 32.75M34 24.41l-8.33 8.34" class="b12-cls-17" data-color-action="stroke" style="stroke:inherit"/></g><g id="b12_buccal_abfraction" data-name="buccal abfraction"><path d="M28 1.25h3v3h-3z" class="b12-cls-7" transform="rotate(-180 29.5 2.75)"/><path d="M28 1.25h3v3h-3z" class="b12-cls-7" transform="rotate(-180 29.5 2.75)"/><path d="M28 1.25h3v3h-3z" class="b12-cls-7" transform="rotate(-180 29.5 2.75)"/></g><g id="b12_braces"><path d="M28 1.25h3v3h-3z" class="b12-cls-7" transform="rotate(-180 29.5 2.75)"/><path d="M28 1.25h3v3h-3z" class="b12-cls-7" transform="rotate(-180 29.5 2.75)"/><path d="M28 1.25h3v3h-3z" class="b12-cls-7" transform="rotate(-180 29.5 2.75)"/></g><g id="b12_apicoectomy"><path d="M28 1.25h3v3h-3z" class="b12-cls-7" transform="rotate(-180 29.5 2.75)"/><path d="M28 1.25h3v3h-3z" class="b12-cls-7" transform="rotate(-180 29.5 2.75)"/><path d="M28 1.25h3v3h-3z" class="b12-cls-7" transform="rotate(-180 29.5 2.75)"/></g><g id="b12_abscess"><path d="M28 1.25h3v3h-3z" class="b12-cls-7" transform="rotate(-180 29.5 2.75)"/><path d="M28 1.25h3v3h-3z" class="b12-cls-7" transform="rotate(-180 29.5 2.75)"/><path d="M28 1.25h3v3h-3z" class="b12-cls-7" transform="rotate(-180 29.5 2.75)"/></g><g id="b12_blunted_roots" data-name="blunted roots"><path d="M28 1.25h3v3h-3z" class="b12-cls-7" transform="rotate(-180 29.5 2.75)"/><path d="M28 1.25h3v3h-3z" class="b12-cls-7" transform="rotate(-180 29.5 2.75)"/><path d="M28 1.25h3v3h-3z" class="b12-cls-7" transform="rotate(-180 29.5 2.75)"/></g><g id="b12_root_amputation" data-name="root amputation"><path d="M28 1.25h3v3h-3z" class="b12-cls-7" transform="rotate(-180 29.5 2.75)"/><path d="M28 1.25h3v3h-3z" class="b12-cls-7" transform="rotate(-180 29.5 2.75)"/><path d="M28 1.25h3v3h-3z" class="b12-cls-7" transform="rotate(-180 29.5 2.75)"/></g><path id="b12_missing_crown" d="M2 2.02h55v51.77H2z" class="b12-cls-10" transform="rotate(-180 29.5 27.905)" data-name="missing crown"/><g id="b12_missing_tooth" data-name="missing tooth"><path d="M13.25 22.76c-.65 1.55-.45 13.37.42 15.23 1.46 3.13 4.89 4.71 8.77 5.63 4.38 1 12.52 1.25 15.23.21 3.21-1.24 6.89-5.43 7.51-7.51S47.06 24 45 20.88c-1.57-2.36-13.57-9.81-17.11-9.39s-12.97 7.3-14.64 11.27z" class="b12-cls-2"/><path d="M13.25 22.76c-.65 1.55-.45 13.37.42 15.23 1.46 3.13 4.89 4.71 8.77 5.63 4.38 1 12.52 1.25 15.23.21 3.21-1.24 6.89-5.43 7.51-7.51S47.06 24 45 20.88c-1.57-2.36-13.57-9.81-17.11-9.39s-12.97 7.3-14.64 11.27z" class="b12-cls-10"/><path d="M17.43 26.72c-.68 1 2.09 1.25 2.09 2.3s-3.13 3.13-2.09 3.34 3.13-1.88 3.55-1-.42 3.55.63 3.76 1.25-5.22 2.71-5.43 7.3-.83 8.14.21 2.71 5 3.76 4-1.67-4-.42-4.38 5.43-4.17 4.38-4.38-5.43 3.13-6.05 3.13 0-4.38-.83-4.38-.63 3.34-3.55 3.76-5.43.83-6.26.42-1.88-4.17-2.3-3.55.63 3.13 0 3.76-3.35-2.18-3.76-1.56z" class="b12-cls-10"/><path d="M46.06 25.2c-.52-1.54-1.34-3.2-2.54-3.9C41 19.83 32 14.62 28.49 15s-12.32 5.43-14 7.51a12.25 12.25 0 0 0-1.58 2.93 10.67 10.67 0 0 1 .33-2.73c1.67-4 11.06-10.85 14.61-11.26s15.53 7 17.11 9.39a9.59 9.59 0 0 1 1.1 4.36zM43.68 38.93a16 16 0 0 1-6 4.91c-2.71 1-10.86.84-15.24-.21-3.87-.93-7.3-2.51-8.76-5.64a5.18 5.18 0 0 1-.31-1.26c1.46 1.47 3.36 3.24 4.27 3.56C21.18 41.54 27 42 31.2 41.76a55.45 55.45 0 0 0 12.48-2.83z" class="b12-cls-10"/></g><g id="b12_maryland_bridge_pontic" class="b12-cls-11" data-name="maryland bridge pontic"><path d="M2 24.17h20.42v7.67H2zM36.58 24.17H57v7.67H36.58z" class="b12-cls-12" data-color-action="fill" style="fill:inherit"/><path d="M13.25 22.76c-.65 1.55-.45 13.37.42 15.23 1.46 3.13 4.89 4.71 8.77 5.63 4.38 1 12.52 1.25 15.23.21 3.21-1.24 6.89-5.43 7.51-7.51S47.06 24 45 20.88c-1.57-2.36-13.57-9.81-17.11-9.39s-12.97 7.3-14.64 11.27z" class="b12-cls-12" data-color-action="fill" style="fill:inherit"/></g><g id="b12_maryland_bridge_abutment_mesial" data-name="maryland bridge abutment mesial"><g class="b12-cls-11"><path d="M2 24.17h20.42v7.67H2z" class="b12-cls-12" data-color-action="fill" style="fill:inherit"/><ellipse cx="21.19" cy="28" class="b12-cls-12" rx="5.61" ry="12.9" data-color-action="fill" style="fill:inherit"/></g><path d="M13.25 22.76c-.65 1.55-.45 13.37.42 15.23 1.46 3.13 4.89 4.71 8.77 5.63 4.38 1 12.52 1.25 15.23.21 3.21-1.24 6.89-5.43 7.51-7.51S47.06 24 45 20.88c-1.57-2.36-13.57-9.81-17.11-9.39s-12.97 7.3-14.64 11.27z" class="b12-cls-2"/><path d="M13.25 22.76c-.65 1.55-.45 13.37.42 15.23 1.46 3.13 4.89 4.71 8.77 5.63 4.38 1 12.52 1.25 15.23.21 3.21-1.24 6.89-5.43 7.51-7.51S47.06 24 45 20.88c-1.57-2.36-13.57-9.81-17.11-9.39s-12.97 7.3-14.64 11.27z" class="b12-cls-3"/><path d="M17.43 26.72c-.68 1 2.09 1.25 2.09 2.3s-3.13 3.13-2.09 3.34 3.13-1.88 3.55-1-.42 3.55.63 3.76 1.25-5.22 2.71-5.43 7.3-.83 8.14.21 2.71 5 3.76 4-1.67-4-.42-4.38 5.43-4.17 4.38-4.38-5.43 3.13-6.05 3.13 0-4.38-.83-4.38-.63 3.34-3.55 3.76-5.43.83-6.26.42-1.88-4.17-2.3-3.55.63 3.13 0 3.76-3.35-2.18-3.76-1.56z" class="b12-cls-4"/><path d="M46.06 25.2c-.52-1.54-1.34-3.2-2.54-3.9C41 19.83 32 14.62 28.49 15s-12.32 5.43-14 7.51a12.25 12.25 0 0 0-1.58 2.93 10.67 10.67 0 0 1 .33-2.73c1.67-4 11.06-10.85 14.61-11.26s15.53 7 17.11 9.39a9.59 9.59 0 0 1 1.1 4.36z" class="b12-cls-5"/><path d="M43.68 38.93a16 16 0 0 1-6 4.91c-2.71 1-10.86.84-15.24-.21-3.87-.93-7.3-2.51-8.76-5.64a5.18 5.18 0 0 1-.31-1.26c1.46 1.47 3.36 3.24 4.27 3.56C21.18 41.54 27 42 31.2 41.76a55.45 55.45 0 0 0 12.48-2.83z" class="b12-cls-4"/></g><g id="b12_maryland_bridge_abutment_distal" data-name="maryland bridge abutment distal"><g class="b12-cls-11"><path d="M36.58 24.17H57v7.67H36.58z" class="b12-cls-12" data-color-action="fill" style="fill:inherit"/><ellipse cx="37.81" cy="28" class="b12-cls-12" rx="5.61" ry="12.9" data-color-action="fill" style="fill:inherit"/></g><path d="M13.25 22.76c-.65 1.55-.45 13.37.42 15.23 1.46 3.13 4.89 4.71 8.77 5.63 4.38 1 12.52 1.25 15.23.21 3.21-1.24 6.89-5.43 7.51-7.51S47.06 24 45 20.88c-1.57-2.36-13.57-9.81-17.11-9.39s-12.97 7.3-14.64 11.27z" class="b12-cls-2"/><path d="M13.25 22.76c-.65 1.55-.45 13.37.42 15.23 1.46 3.13 4.89 4.71 8.77 5.63 4.38 1 12.52 1.25 15.23.21 3.21-1.24 6.89-5.43 7.51-7.51S47.06 24 45 20.88c-1.57-2.36-13.57-9.81-17.11-9.39s-12.97 7.3-14.64 11.27z" class="b12-cls-3"/><path d="M17.43 26.72c-.68 1 2.09 1.25 2.09 2.3s-3.13 3.13-2.09 3.34 3.13-1.88 3.55-1-.42 3.55.63 3.76 1.25-5.22 2.71-5.43 7.3-.83 8.14.21 2.71 5 3.76 4-1.67-4-.42-4.38 5.43-4.17 4.38-4.38-5.43 3.13-6.05 3.13 0-4.38-.83-4.38-.63 3.34-3.55 3.76-5.43.83-6.26.42-1.88-4.17-2.3-3.55.63 3.13 0 3.76-3.35-2.18-3.76-1.56z" class="b12-cls-4"/><path d="M46.06 25.2c-.52-1.54-1.34-3.2-2.54-3.9C41 19.83 32 14.62 28.49 15s-12.32 5.43-14 7.51a12.25 12.25 0 0 0-1.58 2.93 10.67 10.67 0 0 1 .33-2.73c1.67-4 11.06-10.85 14.61-11.26s15.53 7 17.11 9.39a9.59 9.59 0 0 1 1.1 4.36z" class="b12-cls-5"/><path d="M43.68 38.93a16 16 0 0 1-6 4.91c-2.71 1-10.86.84-15.24-.21-3.87-.93-7.3-2.51-8.76-5.64a5.18 5.18 0 0 1-.31-1.26c1.46 1.47 3.36 3.24 4.27 3.56C21.18 41.54 27 42 31.2 41.76a55.45 55.45 0 0 0 12.48-2.83z" class="b12-cls-4"/></g><g id="b12_maryland_bridge_abutment" data-name="maryland bridge abutment"><g class="b12-cls-11"><path d="M2 24.17h20.42v7.67H2zM36.58 24.17H57v7.67H36.58z" class="b12-cls-12" data-color-action="fill" style="fill:inherit"/><ellipse cx="37.81" cy="28" class="b12-cls-12" rx="5.61" ry="12.9" data-color-action="fill" style="fill:inherit"/><ellipse cx="21.19" cy="28" class="b12-cls-12" rx="5.61" ry="12.9" data-color-action="fill" style="fill:inherit"/></g><path d="M13.25 22.76c-.65 1.55-.45 13.37.42 15.23 1.46 3.13 4.89 4.71 8.77 5.63 4.38 1 12.52 1.25 15.23.21 3.21-1.24 6.89-5.43 7.51-7.51S47.06 24 45 20.88c-1.57-2.36-13.57-9.81-17.11-9.39s-12.97 7.3-14.64 11.27z" class="b12-cls-2"/><path d="M13.25 22.76c-.65 1.55-.45 13.37.42 15.23 1.46 3.13 4.89 4.71 8.77 5.63 4.38 1 12.52 1.25 15.23.21 3.21-1.24 6.89-5.43 7.51-7.51S47.06 24 45 20.88c-1.57-2.36-13.57-9.81-17.11-9.39s-12.97 7.3-14.64 11.27z" class="b12-cls-3"/><path d="M17.43 26.72c-.68 1 2.09 1.25 2.09 2.3s-3.13 3.13-2.09 3.34 3.13-1.88 3.55-1-.42 3.55.63 3.76 1.25-5.22 2.71-5.43 7.3-.83 8.14.21 2.71 5 3.76 4-1.67-4-.42-4.38 5.43-4.17 4.38-4.38-5.43 3.13-6.05 3.13 0-4.38-.83-4.38-.63 3.34-3.55 3.76-5.43.83-6.26.42-1.88-4.17-2.3-3.55.63 3.13 0 3.76-3.35-2.18-3.76-1.56z" class="b12-cls-4"/><path d="M46.06 25.2c-.52-1.54-1.34-3.2-2.54-3.9C41 19.83 32 14.62 28.49 15s-12.32 5.43-14 7.51a12.25 12.25 0 0 0-1.58 2.93 10.67 10.67 0 0 1 .33-2.73c1.67-4 11.06-10.85 14.61-11.26s15.53 7 17.11 9.39a9.59 9.59 0 0 1 1.1 4.36z" class="b12-cls-5"/><path d="M43.68 38.93a16 16 0 0 1-6 4.91c-2.71 1-10.86.84-15.24-.21-3.87-.93-7.3-2.51-8.76-5.64a5.18 5.18 0 0 1-.31-1.26c1.46 1.47 3.36 3.24 4.27 3.56C21.18 41.54 27 42 31.2 41.76a55.45 55.45 0 0 0 12.48-2.83z" class="b12-cls-4"/></g><path id="b12_bridge_abutment" d="M13.25 22.76c-.65 1.55-.45 13.37.42 15.23 1.46 3.13 4.89 4.71 8.77 5.63 4.38 1 12.52 1.25 15.23.21 3.21-1.24 6.89-5.43 7.51-7.51S47.06 24 45 20.88c-1.57-2.36-13.57-9.81-17.11-9.39s-12.97 7.3-14.64 11.27z" class="b12-cls-11 b12-cls-13" data-color-action="fill" style="fill:inherit" data-name="bridge abutment"/><path id="b12_bridge_pontic" d="M13.25 22.76c-.65 1.55-.45 13.37.42 15.23 1.46 3.13 4.89 4.71 8.77 5.63 4.38 1 12.52 1.25 15.23.21 3.21-1.24 6.89-5.43 7.51-7.51S47.06 24 45 20.88c-1.57-2.36-13.57-9.81-17.11-9.39s-12.97 7.3-14.64 11.27z" class="b12-cls-11 b12-cls-13" data-color-action="fill" style="fill:inherit" data-name="bridge pontic"/><g id="b12_implant_mini" data-name="implant mini"><path d="M2 2.02h55v51.77H2z" class="b12-cls-10" transform="rotate(-180 29.5 27.905)"/><circle cx="29.5" cy="28" r="2.61" class="b12-cls-13" data-color-action="fill" style="fill:inherit"/></g><g id="b12_implant_cylinder" data-name="implant cylinder"><path d="M2 2.02h55v51.77H2z" class="b12-cls-10" transform="rotate(-180 29.5 27.905)"/><circle cx="29.5" cy="28" r="5" class="b12-cls-13" data-color-action="fill" style="fill:inherit"/><path d="M34.5 28a5 5 0 0 1-.09.89h-9.82a4.46 4.46 0 0 1 0-1.78h9.82a5 5 0 0 1 .09.89z" class="b12-cls-14" data-color-action="fill" style="fill:inherit"/></g><g id="b12_implant_blade" data-name="implant blade"><path d="M2 2.02h55v51.77H2z" class="b12-cls-10" transform="rotate(-180 29.5 27.905)"/><circle cx="29.5" cy="28" r="5" class="b12-cls-13" data-color-action="fill" style="fill:inherit"/></g><g id="b12_border"><path d="M0 0h59v56H0z" class="b12-cls-7"/><path d="M0 0h59v56H0z" class="b12-cls-7" transform="rotate(-180 29.5 28)"/></g></defs></g><g class="c12-cls-1" transform="translate(0 217)"><g id="_12C" data-name="#12C"><path d="M17 49.66c-3.86-4-4.45-22.39-4.58-28.08s15.1-12 19.79-11.75c4.21.25 10.3 6.66 12.49 8.54 4.21 3.59 1 30.18-3.71 33.4S22.4 55.35 17 49.66z" class="c12-cls-2"/><path d="M17 49.66c-3.86-4-4.45-22.39-4.58-28.08s15.1-12 19.79-11.75c4.21.25 10.3 6.66 12.49 8.54 4.21 3.59 1 30.18-3.71 33.4S22.4 55.35 17 49.66z" class="c12-cls-3"/><path d="M46.5 24.35a14.62 14.62 0 0 0-2.75-4.42A101.41 101.41 0 0 0 35 13.12a6.72 6.72 0 0 0-6.54-.45c-1.82.69-9.91 3.91-13.65 6.73a7.75 7.75 0 0 0-2.4 4.18v-2c-.13-5.69 15.1-12 19.79-11.75 4.21.25 10.3 6.66 12.5 8.53.99.86 1.57 3.08 1.8 5.99z" class="c12-cls-4"/><path d="M44.16 45.5c-.9 3.09-2 5.43-3.21 6.25-4.62 3.17-18.55 3.59-24-2.1a10.39 10.39 0 0 1-2-4 9.69 9.69 0 0 0 4.4 2.66c5 1.36 11.61 2 15.71 1.36 2.86-.47 6.94-2.79 9.1-4.17z" class="c12-cls-5"/></g><defs><g id="c12_splinted_crowns" data-name="splinted crowns"><path d="M2 51.09h55v7.67H2z" class="c12-cls-12" transform="rotate(-180 29.5 54.925)" data-color-action="fill" style="fill:inherit"/><path d="M17 49.66c-3.86-4-4.45-22.39-4.58-28.08s15.1-12 19.79-11.75c4.21.25 10.3 6.66 12.49 8.54 4.21 3.59 1 30.18-3.71 33.4S22.4 55.35 17 49.66z" class="c12-cls-2"/><path d="M17 49.66c-3.86-4-4.45-22.39-4.58-28.08s15.1-12 19.79-11.75c4.21.25 10.3 6.66 12.49 8.54 4.21 3.59 1 30.18-3.71 33.4S22.4 55.35 17 49.66z" class="c12-cls-3"/><path d="M46.5 24.35a14.62 14.62 0 0 0-2.75-4.42A101.41 101.41 0 0 0 35 13.12a6.72 6.72 0 0 0-6.54-.45c-1.82.69-9.91 3.91-13.65 6.73a7.75 7.75 0 0 0-2.4 4.18v-2c-.13-5.69 15.1-12 19.79-11.75 4.21.25 10.3 6.66 12.5 8.53.99.86 1.57 3.08 1.8 5.99z" class="c12-cls-4"/><path d="M44.16 45.5c-.9 3.09-2 5.43-3.21 6.25-4.62 3.17-18.55 3.59-24-2.1a10.39 10.39 0 0 1-2-4 9.69 9.69 0 0 0 4.4 2.66c5 1.36 11.61 2 15.71 1.36 2.86-.47 6.94-2.79 9.1-4.17z" class="c12-cls-5"/></g><path id="c12_lingual_V" d="M20.53 52.1c5.21 2.41 12.74 2.41 17.49 1a13.33 13.33 0 0 0-17.49-1z" class="c12-cls-6" data-color-action="fill" style="fill:inherit" data-name="lingual V"/><ellipse id="c12_lingual" cx="29.49" cy="35.81" class="c12-cls-6" rx="4.61" ry="9.46" data-color-action="fill" style="fill:inherit"/><path id="c12_mesial" d="M19 31.24a19 19 0 0 1 .74-4.38l-6.19-8.25a4.8 4.8 0 0 0-1.18 3c.06 2.82.24 8.77.87 14.53 2.38-.34 5.53-1.4 5.76-4.9z" class="c12-cls-6" data-color-action="fill" style="fill:inherit"/><path id="c12_line_angle_4" d="M26 21.6l-1.79-9.83C20 13.43 15.62 16 13.56 18.61l6.19 8.25c.93-2.94 2.78-4.64 6.25-5.26z" class="c12-cls-6" data-color-action="fill" style="fill:inherit" data-name="line angle 4"/><path id="c12_cusp_2" d="M30.47 21.34a14 14 0 0 1 4 .67l3.28-9.59c-1.93-1.4-3.92-2.5-5.61-2.6s-4.76.67-8 1.95L26 21.6a21.35 21.35 0 0 1 4.47-.26z" class="c12-cls-6" data-color-action="fill" style="fill:inherit" data-name="cusp 2"/><path id="c12_line_angle_3" d="M39.46 27.7l6-8.29a3.28 3.28 0 0 0-.76-1.05c-1.31-1.12-4-3.86-6.88-5.94L34.51 22a7.32 7.32 0 0 1 4.95 5.7z" class="c12-cls-6" data-color-action="fill" style="fill:inherit" data-name="line angle 3"/><path id="c12_distal" d="M45.43 19.41l-6 8.29a26.43 26.43 0 0 1 .61 5c.18 3.63 3.84 4.19 5.86 4.22 1-7.01 1.04-14.45-.47-17.51z" class="c12-cls-6" data-color-action="fill" style="fill:inherit"/><g id="c12_veneer"><path d="M28 1.25h3v3h-3z" class="c12-cls-7" transform="rotate(-180 29.5 2.75)"/><path d="M28 1.25h3v3h-3z" class="c12-cls-7" transform="rotate(-180 29.5 2.75)"/><path d="M28 1.25h3v3h-3z" class="c12-cls-7" transform="rotate(-180 29.5 2.75)"/></g><g id="c12_tissue_graft" data-name="tissue graft"><path d="M28 1.25h3v3h-3z" class="c12-cls-7" transform="rotate(-180 29.5 2.75)"/><path d="M28 1.25h3v3h-3z" class="c12-cls-7" transform="rotate(-180 29.5 2.75)"/><path d="M28 1.25h3v3h-3z" class="c12-cls-7" transform="rotate(-180 29.5 2.75)"/></g><g id="c12_tipped_lingual" class="c12-cls-8" data-name="tipped lingual"><path d="M28.65 5.93c1.26-3.37 4.74-3.85 7.69 5.32.5 1.56 4.42 1.76 3.84 0C38.16 5.15 34.86 1 31.11 2a4.86 4.86 0 0 0-3 3.38c.2.15.43.41.54.55z" class="c12-cls-9" data-color-action="fill" style="fill:inherit"/><path d="M30.73 8.85h12.94l-2.94 9.64-10-9.64z" class="c12-cls-9" data-color-action="fill" style="fill:inherit"/></g><g id="c12_tipped_facial" data-name="tipped facial"><path d="M28 1.25h3v3h-3z" class="c12-cls-7" transform="rotate(-180 29.5 2.75)"/><path d="M28 1.25h3v3h-3z" class="c12-cls-7" transform="rotate(-180 29.5 2.75)"/><path d="M28 1.25h3v3h-3z" class="c12-cls-7" transform="rotate(-180 29.5 2.75)"/></g><path id="c12_surface_restoration_distal" d="M39.33 22.94c.84 3.13.25 15.2-.94 23.66a11.55 11.55 0 0 1 6.82-5.19c1.84-9 2.2-20.75-.5-23l-.71-.68-4.75 5.14z" class="c12-cls-10" data-color-action="fill" style="fill:inherit" data-name="surface restoration distal"/><path id="c12_surface_restoration_lingual" d="M36.51 51.6a13.81 13.81 0 0 1 1.88-5c1.19-8.46 1.78-20.53.94-23.66l-.85-.78c-1.27-1.17-5-4.67-6.81-5.33-2.88.25-10.16 3.51-12.23 5.68.23 8.53.86 17.21 1.52 23.2a14.15 14.15 0 0 1 1.63 5.78 14.31 14.31 0 0 1 13.92.12z" class="c12-cls-8 c12-cls-11" data-color-action="fill" style="fill:inherit" data-name="surface restoration lingual"/><path id="c12_surface_restoration_lingual_V" d="M22.6 52.87a28.68 28.68 0 0 0 13.71.63 14.78 14.78 0 0 1 .2-1.89 14.31 14.31 0 0 0-13.92-.12v.92c.03.15.01.3.01.46z" class="c12-cls-8 c12-cls-11" data-color-action="fill" style="fill:inherit" data-name="surface restoration lingual V"/><path id="c12_surface_restoration_mesial" d="M12.42 21.58a153.7 153.7 0 0 0 1.35 18.19A11.71 11.71 0 0 1 21 45.71c-.66-6-1.29-14.67-1.52-23.2l.24-.22-5.09-4.78c-1.4 1.33-2.24 2.72-2.21 4.07z" class="c12-cls-10" data-color-action="fill" style="fill:inherit" data-name="surface restoration mesial"/><path id="c12_surface_restoration_occlusal" d="M14.59 17.51l5.09 4.78c2.32-2.16 9.21-5.22 12-5.46 1.77.66 5.54 4.16 6.81 5.33l.77.71L44 17.73c-2.6-2.38-8-7.68-11.78-7.9-3.58-.21-13.28 3.42-17.63 7.68z" class="c12-cls-10" data-color-action="fill" style="fill:inherit" data-name="surface restoration occlusal"/><g id="c12_supra-erupted"><path d="M28 1.25h3v3h-3z" class="c12-cls-7" transform="rotate(-180 29.5 2.75)"/><path d="M28 1.25h3v3h-3z" class="c12-cls-7" transform="rotate(-180 29.5 2.75)"/><path d="M28 1.25h3v3h-3z" class="c12-cls-7" transform="rotate(-180 29.5 2.75)"/></g><g id="c12_sub-erupted"><path d="M28 1.25h3v3h-3z" class="c12-cls-7" transform="rotate(-180 29.5 2.75)"/><path d="M28 1.25h3v3h-3z" class="c12-cls-7" transform="rotate(-180 29.5 2.75)"/><path d="M28 1.25h3v3h-3z" class="c12-cls-7" transform="rotate(-180 29.5 2.75)"/></g><g id="c12_sealant"><path d="M28 1.25h3v3h-3z" class="c12-cls-7" transform="rotate(-180 29.5 2.75)"/><path d="M28 1.25h3v3h-3z" class="c12-cls-7" transform="rotate(-180 29.5 2.75)"/><path d="M28 1.25h3v3h-3z" class="c12-cls-7" transform="rotate(-180 29.5 2.75)"/></g><g id="c12_root_decay" data-name="root decay"><path d="M28 1.25h3v3h-3z" class="c12-cls-7" transform="rotate(-180 29.5 2.75)"/><path d="M28 1.25h3v3h-3z" class="c12-cls-7" transform="rotate(-180 29.5 2.75)"/><path d="M28 1.25h3v3h-3z" class="c12-cls-7" transform="rotate(-180 29.5 2.75)"/></g><g id="c12_root_canal" data-name="root canal"><path d="M28 1.25h3v3h-3z" class="c12-cls-7" transform="rotate(-180 29.5 2.75)"/><path d="M28 1.25h3v3h-3z" class="c12-cls-7" transform="rotate(-180 29.5 2.75)"/><path d="M28 1.25h3v3h-3z" class="c12-cls-7" transform="rotate(-180 29.5 2.75)"/></g><g id="c12_root_abrasion" data-name="root abrasion"><path d="M28 1.25h3v3h-3z" class="c12-cls-7" transform="rotate(-180 29.5 2.75)"/><path d="M28 1.25h3v3h-3z" class="c12-cls-7" transform="rotate(-180 29.5 2.75)"/><path d="M28 1.25h3v3h-3z" class="c12-cls-7" transform="rotate(-180 29.5 2.75)"/></g><g id="c12_open_contact_mesial" data-name="open contact mesial"><path d="M28 1.25h3v3h-3z" class="c12-cls-7" transform="rotate(-180 29.5 2.75)"/><path d="M28 1.25h3v3h-3z" class="c12-cls-7" transform="rotate(-180 29.5 2.75)"/><path d="M28 1.25h3v3h-3z" class="c12-cls-7" transform="rotate(-180 29.5 2.75)"/></g><g id="c12_open_contact_distal" data-name="open contact distal"><path d="M28 1.25h3v3h-3z" class="c12-cls-7" transform="rotate(-180 29.5 2.75)"/><path d="M28 1.25h3v3h-3z" class="c12-cls-7" transform="rotate(-180 29.5 2.75)"/><path d="M28 1.25h3v3h-3z" class="c12-cls-7" transform="rotate(-180 29.5 2.75)"/></g><path id="c12_lingual_abfraction" d="M16.29 54.84S22.2 59.5 29.5 59.5s13.21-4.66 13.21-4.66-5.91-4.65-13.21-4.65-13.21 4.65-13.21 4.65z" class="c12-cls-15" data-color-action="fill" style="fill:inherit" data-name="lingual abfraction"/><g id="c12_internal_root_resorption" data-name="internal root resorption"><path d="M28 1.25h3v3h-3z" class="c12-cls-7" transform="rotate(-180 29.5 2.75)"/><path d="M28 1.25h3v3h-3z" class="c12-cls-7" transform="rotate(-180 29.5 2.75)"/><path d="M28 1.25h3v3h-3z" class="c12-cls-7" transform="rotate(-180 29.5 2.75)"/></g><g id="c12_gortex_membranes" data-name="gortex membranes"><path d="M28 1.25h3v3h-3z" class="c12-cls-7" transform="rotate(-180 29.5 2.75)"/><path d="M28 1.25h3v3h-3z" class="c12-cls-7" transform="rotate(-180 29.5 2.75)"/><path d="M28 1.25h3v3h-3z" class="c12-cls-7" transform="rotate(-180 29.5 2.75)"/></g><g id="c12_frenum_pull" data-name="frenum pull"><path d="M28 1.25h3v3h-3z" class="c12-cls-7" transform="rotate(-180 29.5 2.75)"/><path d="M28 1.25h3v3h-3z" class="c12-cls-7" transform="rotate(-180 29.5 2.75)"/><path d="M28 1.25h3v3h-3z" class="c12-cls-7" transform="rotate(-180 29.5 2.75)"/></g><g id="c12_external_root_resorption" data-name="external root resorption"><path d="M28 1.25h3v3h-3z" class="c12-cls-7" transform="rotate(-180 29.5 2.75)"/><path d="M28 1.25h3v3h-3z" class="c12-cls-7" transform="rotate(-180 29.5 2.75)"/><path d="M28 1.25h3v3h-3z" class="c12-cls-7" transform="rotate(-180 29.5 2.75)"/></g><path id="c12_three_quarter_crown" d="M12.8 31c-.28-3.94-.38-7.48-.42-9.47-.12-5.69 15.1-12 19.79-11.75 4.21.25 10.3 6.66 12.49 8.54 1.71 1.46 2.19 6.73 1.85 12.69z" class="c12-cls-8 c12-cls-19" data-color-action="fill" style="fill:inherit" data-name="three quarter crown"/><path id="c12_crown" d="M17 49.66c-3.86-4-4.45-22.39-4.58-28.08s15.1-12 19.79-11.75c4.21.25 10.3 6.66 12.49 8.54 4.21 3.59 1 30.18-3.71 33.4S22.4 55.35 17 49.66z" class="c12-cls-8 c12-cls-19" data-color-action="fill" style="fill:inherit"/><path id="c12_cracked_surface_distal" d="M41.34 24.74l3.83 3.83h-5.01l5.01 4.75h-5.01l3.83 3.83" class="c12-cls-20" data-color-action="stroke" style="stroke:inherit" data-name="cracked surface distal"/><path id="c12_cracked_surface_lingual" d="M28.17 24.74l3.84 3.83H27l5 4.75h-5l3.83 3.83" class="c12-cls-20" data-color-action="stroke" style="stroke:inherit" data-name="cracked surface lingual"/><path id="c12_cracked_surface_lingual_V" d="M28.17 24.74l3.84 3.83H27l5 4.75h-5l3.83 3.83" class="c12-cls-20" data-color-action="stroke" style="stroke:inherit" data-name="cracked surface lingual V"/><path id="c12_cracked_surface_mesial" d="M13.34 24.74l3.83 3.83h-5l5 4.75h-5L16 37.15" class="c12-cls-20" data-color-action="stroke" style="stroke:inherit" data-name="cracked surface mesial"/><g id="c12_chipped_surface_distal" class="c12-cls-8" data-name="chipped surface distal"><path d="M37.83 26.41l8.33 8.34M46.16 26.41l-8.33 8.34" class="c12-cls-21" data-color-action="stroke" style="stroke:inherit"/></g><g id="c12_chipped_surface_lingual" class="c12-cls-8" data-name="chipped surface lingual"><path d="M25.67 26.41L34 34.75M34 26.41l-8.33 8.34" class="c12-cls-21" data-color-action="stroke" style="stroke:inherit"/></g><g id="c12_chipped_surface_lingual_V" class="c12-cls-8" data-name="chipped surface lingual V"><path d="M25.67 26.41L34 34.75M34 26.41l-8.33 8.34" class="c12-cls-21" data-color-action="stroke" style="stroke:inherit"/></g><g id="c12_chipped_surface_mesial" class="c12-cls-8" data-name="chipped surface mesial"><path d="M11.67 26.41L20 34.75M20 26.41l-8.33 8.34" class="c12-cls-21" data-color-action="stroke" style="stroke:inherit"/></g><g id="c12_buccal_abfraction" data-name="buccal abfraction"><path d="M28 1.25h3v3h-3z" class="c12-cls-7" transform="rotate(-180 29.5 2.75)"/><path d="M28 1.25h3v3h-3z" class="c12-cls-7" transform="rotate(-180 29.5 2.75)"/><path d="M28 1.25h3v3h-3z" class="c12-cls-7" transform="rotate(-180 29.5 2.75)"/></g><g id="c12_braces"><path d="M28 1.25h3v3h-3z" class="c12-cls-7" transform="rotate(-180 29.5 2.75)"/><path d="M28 1.25h3v3h-3z" class="c12-cls-7" transform="rotate(-180 29.5 2.75)"/><path d="M28 1.25h3v3h-3z" class="c12-cls-7" transform="rotate(-180 29.5 2.75)"/></g><g id="c12_apicoectomy"><path d="M28 1.25h3v3h-3z" class="c12-cls-7" transform="rotate(-180 29.5 2.75)"/><path d="M28 1.25h3v3h-3z" class="c12-cls-7" transform="rotate(-180 29.5 2.75)"/><path d="M28 1.25h3v3h-3z" class="c12-cls-7" transform="rotate(-180 29.5 2.75)"/></g><g id="c12_abscess"><path d="M28 1.25h3v3h-3z" class="c12-cls-7" transform="rotate(-180 29.5 2.75)"/><path d="M28 1.25h3v3h-3z" class="c12-cls-7" transform="rotate(-180 29.5 2.75)"/><path d="M28 1.25h3v3h-3z" class="c12-cls-7" transform="rotate(-180 29.5 2.75)"/></g><g id="c12_blunted_roots" data-name="blunted roots"><path d="M28 1.25h3v3h-3z" class="c12-cls-7" transform="rotate(-180 29.5 2.75)"/><path d="M28 1.25h3v3h-3z" class="c12-cls-7" transform="rotate(-180 29.5 2.75)"/><path d="M28 1.25h3v3h-3z" class="c12-cls-7" transform="rotate(-180 29.5 2.75)"/></g><g id="c12_root_amputation" data-name="root amputation"><path d="M28 1.25h3v3h-3z" class="c12-cls-7" transform="rotate(-180 29.5 2.75)"/><path d="M28 1.25h3v3h-3z" class="c12-cls-7" transform="rotate(-180 29.5 2.75)"/><path d="M28 1.25h3v3h-3z" class="c12-cls-7" transform="rotate(-180 29.5 2.75)"/></g><g id="c12_missing_crown" data-name="missing crown"><path d="M28 1.25h3v3h-3z" class="c12-cls-7" transform="rotate(-180 29.5 2.75)"/><path d="M28 1.25h3v3h-3z" class="c12-cls-7" transform="rotate(-180 29.5 2.75)"/><path d="M28 1.25h3v3h-3z" class="c12-cls-7" transform="rotate(-180 29.5 2.75)"/><path d="M2 2.02h55V64H2z" class="c12-cls-13" transform="rotate(-180 29.5 33.01)"/></g><g id="c12_missing_tooth" data-name="missing tooth"><path d="M17 49.66c-3.86-4-4.45-22.39-4.58-28.08s15.1-12 19.79-11.75c4.21.25 10.3 6.66 12.49 8.54 4.21 3.59 1 30.18-3.71 33.4S22.4 55.35 17 49.66z" class="c12-cls-2"/><path d="M17 49.66c-3.86-4-4.45-22.39-4.58-28.08s15.1-12 19.79-11.75c4.21.25 10.3 6.66 12.49 8.54 4.21 3.59 1 30.18-3.71 33.4S22.4 55.35 17 49.66z" class="c12-cls-13"/><path d="M46.5 24.35a14.62 14.62 0 0 0-2.75-4.42A101.41 101.41 0 0 0 35 13.12a6.72 6.72 0 0 0-6.54-.45c-1.82.69-9.91 3.91-13.65 6.73a7.75 7.75 0 0 0-2.4 4.18v-2c-.13-5.69 15.1-12 19.79-11.75 4.21.25 10.3 6.66 12.5 8.53.99.86 1.57 3.08 1.8 5.99zM44.16 45.5c-.9 3.09-2 5.43-3.21 6.25-4.62 3.17-18.55 3.59-24-2.1a10.39 10.39 0 0 1-2-4 9.69 9.69 0 0 0 4.4 2.66c5 1.36 11.61 2 15.71 1.36 2.86-.47 6.94-2.79 9.1-4.17z" class="c12-cls-13"/></g><g id="c12_maryland_bridge_pontic" class="c12-cls-8" data-name="maryland bridge pontic"><path d="M2 28.96h55v7.67H2z" class="c12-cls-14" transform="rotate(-180 29.5 32.8)" data-color-action="fill" style="fill:inherit"/><path d="M17 49.66c-3.86-4-4.45-22.39-4.58-28.08s15.1-12 19.79-11.75c4.21.25 10.3 6.66 12.49 8.54 4.21 3.59 1 30.18-3.71 33.4S22.4 55.35 17 49.66z" class="c12-cls-14" data-color-action="fill" style="fill:inherit"/></g><g id="c12_maryland_bridge_abutment_mesial" class="c12-cls-8" data-name="maryland bridge abutment mesial"><path d="M2 29.17h20.42v7.67H2z" class="c12-cls-14" data-color-action="fill" style="fill:inherit"/><ellipse cx="21.19" cy="33" class="c12-cls-14" rx="5.61" ry="12.9" data-color-action="fill" style="fill:inherit"/></g><g id="c12_maryland_bridge_abutment_distal" class="c12-cls-8" data-name="maryland bridge abutment distal"><path d="M36.58 29.17H57v7.67H36.58z" class="c12-cls-14" data-color-action="fill" style="fill:inherit"/><ellipse cx="37.81" cy="33" class="c12-cls-14" rx="5.61" ry="12.9" data-color-action="fill" style="fill:inherit"/></g><g id="c12_maryland_bridge_abutment" class="c12-cls-8" data-name="maryland bridge abutment"><path d="M2 29.17h20.42v7.67H2zM36.58 29.17H57v7.67H36.58z" class="c12-cls-14" data-color-action="fill" style="fill:inherit"/><ellipse cx="37.81" cy="33" class="c12-cls-14" rx="5.61" ry="12.9" data-color-action="fill" style="fill:inherit"/><ellipse cx="21.19" cy="33" class="c12-cls-14" rx="5.61" ry="12.9" data-color-action="fill" style="fill:inherit"/></g><g id="c12_bridge_abutment_mesial" class="c12-cls-8" data-name="bridge abutment mesial"><path d="M17 49.66c-3.86-4-4.45-22.39-4.58-28.08s15.1-12 19.79-11.75c4.21.25 10.3 6.66 12.49 8.54 4.21 3.59 1 30.18-3.71 33.4S22.4 55.35 17 49.66z" class="c12-cls-11" data-color-action="fill" style="fill:inherit"/><path d="M2 28.74h34.98v7.67H2z" class="c12-cls-11" transform="rotate(-180 19.49 32.57)" data-color-action="fill" style="fill:inherit"/></g><g id="c12_bridge_abutment_distal" class="c12-cls-8" data-name="bridge abutment distal"><path d="M17 49.66c-3.86-4-4.45-22.39-4.58-28.08s15.1-12 19.79-11.75c4.21.25 10.3 6.66 12.49 8.54 4.21 3.59 1 30.18-3.71 33.4S22.4 55.35 17 49.66z" class="c12-cls-11" data-color-action="fill" style="fill:inherit"/><path d="M22.02 28.74H57v7.67H22.02z" class="c12-cls-11" transform="rotate(-180 39.51 32.57)" data-color-action="fill" style="fill:inherit"/></g><g id="c12_bridge_abutment" class="c12-cls-8" data-name="bridge abutment"><path d="M17 49.66c-3.86-4-4.45-22.39-4.58-28.08s15.1-12 19.79-11.75c4.21.25 10.3 6.66 12.49 8.54 4.21 3.59 1 30.18-3.71 33.4S22.4 55.35 17 49.66z" class="c12-cls-11" data-color-action="fill" style="fill:inherit"/><path d="M2 28.74h55v7.67H2z" class="c12-cls-11" transform="rotate(-180 29.5 32.57)" data-color-action="fill" style="fill:inherit"/></g><g id="c12_bridge_pontic" class="c12-cls-8" data-name="bridge pontic"><path d="M17 49.66c-3.86-4-4.45-22.39-4.58-28.08s15.1-12 19.79-11.75c4.21.25 10.3 6.66 12.49 8.54 4.21 3.59 1 30.18-3.71 33.4S22.4 55.35 17 49.66z" class="c12-cls-11" data-color-action="fill" style="fill:inherit"/><path d="M2 28.74h55v7.67H2z" class="c12-cls-11" transform="rotate(-180 29.5 32.57)" data-color-action="fill" style="fill:inherit"/></g><g id="c12_implant_mini" data-name="implant mini"><path d="M2 2.02h55V64H2z" class="c12-cls-13" transform="rotate(-180 29.5 33.01)"/><path d="M29.28 66h.44l1-8.5V16.67h-2.44V57.5l1 8.5z" class="c12-cls-11" data-color-action="fill" style="fill:inherit"/><path d="M29.58 66h.07l.4-8.5V16.67h-.37V57.5l-.1 8.5z" class="c12-cls-16"/><path d="M28.28 16.67h2.44v.63h-2.44z" class="c12-cls-17" transform="rotate(-180 29.5 16.985)" data-color-action="fill" style="fill:inherit"/><g class="c12-cls-18"><path d="M30.72 17.3l-2.44 1v-.63l2.44-1v.63zM30.72 18.75l-2.44 1v-.64l2.44-1v.64zM30.72 20.19l-2.44 1v-.63l2.44-1v.63zM30.72 21.64l-2.44 1V22l2.44-1v.64zM30.72 23.08l-2.44 1v-.63l2.44-1v.63zM30.72 24.53l-2.44 1v-.64l2.44-1v.64zM30.72 25.97l-2.44 1v-.63l2.44-1v.63zM30.72 27.42l-2.44 1v-.63l2.44-1v.63zM30.72 28.86l-2.44 1v-.63l2.44-1v.63zM30.72 30.31l-2.44 1v-.63l2.44-1v.63zM30.72 31.75l-2.44 1.01v-.64l2.44-1v.63zM30.72 33.2l-2.44 1v-.63l2.44-1v.63zM30.72 34.65l-2.44 1v-.64l2.44-1v.64zM30.72 36.09l-2.44 1v-.63l2.44-1v.63zM30.72 37.54l-2.44 1v-.64l2.44-1v.64zM30.72 38.98l-2.44 1v-.63l2.44-1v.63zM30.72 40.43l-2.44 1v-.63l2.44-1.01v.64zM30.72 41.87l-2.44 1v-.63l2.44-1v.63zM30.72 43.32l-2.44 1v-.63l2.44-1v.63zM30.72 44.76l-2.44 1v-.63l2.44-1v.63zM30.72 46.21l-2.44 1v-.63l2.44-1v.63zM30.72 47.65l-2.44 1.01v-.64l2.44-1v.63zM30.72 49.1l-2.44 1v-.63l2.44-1v.63zM30.72 50.55l-2.44 1v-.64l2.44-1v.64zM30.72 51.99l-2.44 1v-.63l2.44-1v.63zM30.72 53.44l-2.44 1v-.64l2.44-1v.64zM30.72 54.88l-2.44 1v-.63l2.44-1v.63zM30.72 56.33l-2.44 1v-.63l2.44-1.01v.64zM30.72 57.5l-.03.29-2.27.92-.07-.6 2.37-.97v.36zM30.51 59.3l-1.93.79-.07-.6 2.08-.85-.08.66zM30.33 60.82l-1.58.65-.08-.6 1.74-.71-.08.66zM30.15 62.34l-1.24.51-.07-.6 1.39-.57-.08.66zM29.97 63.86l-.9.37-.07-.6 1.05-.43-.08.66zM29.8 65.38l-.57.23-.07-.6.71-.3-.07.67z" class="c12-cls-17" data-color-action="fill" style="fill:inherit"/></g><circle cx="29.5" cy="12.79" r="2.24" class="c12-cls-11" data-color-action="fill" style="fill:inherit"/><path d="M27.67 14.01h3.67v3h-3.67z" class="c12-cls-11" transform="rotate(-180 29.5 15.51)" data-color-action="fill" style="fill:inherit"/><path d="M29.96 14.01h.55v3h-.55z" class="c12-cls-16"/><path d="M30.3 11.44h.21a2.32 2.32 0 0 1 .49 1.28 2.37 2.37 0 0 1-.52 1.3H30a2 2 0 0 0 .73-1.37 1.5 1.5 0 0 0-.43-1.21z" class="c12-cls-16"/><path d="M28.28 22.74h2.44v.63h-2.44z" class="c12-cls-17" transform="rotate(-180 29.5 23.05)" data-color-action="fill" style="fill:inherit"/><path d="M26.89 16.99h5.22l-.87 5.71h-3.48l-.87-5.71z" class="c12-cls-11" data-color-action="fill" style="fill:inherit"/><path d="M30.15 16.99h.79l-.48 5.71h-.53l.22-5.71z" class="c12-cls-16"/></g><g id="c12_implant_cylinder" data-name="implant cylinder"><path d="M2 2.02h55V64H2z" class="c12-cls-13" transform="rotate(-180 29.5 33.01)"/><path d="M26.17 13.67h6.67V63h-6.67z" class="c12-cls-11" transform="rotate(-180 29.5 38.335)" data-color-action="fill" style="fill:inherit"/><path d="M24.5 63h10v3h-10z" class="c12-cls-11" transform="rotate(-180 29.5 64.5)" data-color-action="fill" style="fill:inherit"/><path d="M30 13.67h1V63h-1z" class="c12-cls-16" transform="rotate(-180 30.5 38.335)"/><path d="M30.75 63h1.5v3h-1.5z" class="c12-cls-16" transform="rotate(-180 31.5 64.5)"/><path d="M24.5 10.64h10v3h-10z" class="c12-cls-11" transform="rotate(-180 29.5 12.14)" data-color-action="fill" style="fill:inherit"/><path d="M30.75 10.64h1.5v3h-1.5z" class="c12-cls-16" transform="rotate(-180 31.5 12.14)"/><path d="M26.17 62.37h6.67V63h-6.67z" class="c12-cls-17" transform="rotate(-180 29.5 62.685)" data-color-action="fill" style="fill:inherit"/><path d="M26.17 13.67h6.67v.63h-6.67z" class="c12-cls-17" transform="rotate(-180 29.5 13.985)" data-color-action="fill" style="fill:inherit"/><g class="c12-cls-18"><path d="M26.17 15.3l6.66-1v-.63l-6.66 1v.63zM26.17 16.75l6.66-1v-.63l-6.66 1v.63zM26.17 18.19l6.66-1v-.63l-6.66 1v.63zM26.17 19.64l6.66-1v-.63l-6.66 1v.63zM26.17 21.08l6.66-1v-.63l-6.66 1v.63zM26.17 22.53l6.66-1v-.63l-6.66 1v.63zM26.17 23.98l6.66-1v-.64l-6.66 1v.64zM26.17 25.42l6.66-1v-.63l-6.66 1v.63zM26.17 26.87l6.66-1.01v-.63l-6.66 1v.64zM26.17 28.31l6.66-1v-.63l-6.66 1v.63zM26.17 29.76l6.66-1v-.64l-6.66 1.01v.63zM26.17 31.2l6.66-1v-.63l-6.66 1v.63zM26.17 32.65l6.66-1v-.63l-6.66 1v.63zM26.17 34.09l6.66-1v-.63l-6.66 1v.63zM26.17 35.54l6.66-1v-.63l-6.66 1v.63zM26.17 36.98l6.66-1v-.63l-6.66 1v.63zM26.17 38.43l6.66-1v-.63l-6.66 1v.63zM26.17 39.88l6.66-1v-.64l-6.66 1v.64zM26.17 41.32l6.66-1v-.63l-6.66 1v.63zM26.17 42.77l6.66-1v-.64l-6.66 1v.64zM26.17 44.21l6.66-1v-.63l-6.66 1v.63zM26.17 45.66l6.66-1v-.64l-6.66 1v.64zM26.17 47.1l6.66-1v-.63l-6.66 1v.63zM26.17 48.55l6.66-1v-.64l-6.66 1.01v.63zM26.17 49.99l6.66-1v-.63l-6.66 1v.63zM26.17 51.44l6.66-1v-.63l-6.66 1v.63zM26.17 52.88l6.66-1v-.63l-6.66 1v.63zM26.17 54.33l6.66-1v-.63l-6.66 1v.63zM26.17 55.77l6.66-1v-.63l-6.66 1v.63zM26.17 57.22l6.66-1v-.63l-6.66 1v.63zM26.17 58.67l6.66-1.01v-.63l-6.66 1v.64zM26.17 60.11l6.66-1v-.63l-6.66 1v.63zM26.17 61.56l6.66-1v-.64l-6.66 1v.64zM26.17 63l6.66-1v-.63l-6.66 1V63z" class="c12-cls-17" data-color-action="fill" style="fill:inherit"/></g></g><g id="c12_implant_blade" data-name="implant blade"><path d="M2 2.02h55V64H2z" class="c12-cls-13" transform="rotate(-180 29.5 33.01)"/><path d="M26.17 13.64h6.67v49.33h-6.67z" class="c12-cls-11" transform="rotate(-180 29.5 38.31)" data-color-action="fill" style="fill:inherit"/><path d="M24.5 10.64h10v3h-10z" class="c12-cls-11" transform="rotate(-180 29.5 12.14)" data-color-action="fill" style="fill:inherit"/><path d="M30 13.64h1v49.33h-1z" class="c12-cls-16" transform="rotate(-180 30.5 38.31)"/><path d="M30.75 10.64h1.5v3h-1.5z" class="c12-cls-16" transform="rotate(-180 31.5 12.14)"/><path d="M26.17 13.64h6.67v.63h-6.67z" class="c12-cls-17" transform="rotate(-180 29.5 13.955)" data-color-action="fill" style="fill:inherit"/></g><g id="c12_border"><path d="M0 0h59v66H0z" class="c12-cls-7"/><path d="M0 0h59v66H0z" class="c12-cls-7" transform="rotate(-180 29.5 33)"/></g></defs></g></svg>