<svg version="1.1" xmlns="http://www.w3.org/2000/svg" xmlns:xlink="http://www.w3.org/1999/xlink" x="0px" y="0px" viewBox="0 0 59 283" style="enable-background:new 0 0 59 161;" xml:space="preserve"><defs><style type="text/css">.aK-cls-2{fill:#929497;stroke:none;}.aK-cls-3{font-family:'ProximaNova-Semibold',sans-serif;}.aK-cls-4{font-size:15px;}.aK-cls-5{fill:#C4C6C7;stroke:#C4C6C7;stroke-width:5;stroke-miterlimit:10;}.aK-cls-6{fill:#F5D7CF;stroke:none;}.aK-cls-7{fill:#F2C6BC;stroke:none;}.aK-cls-8{fill:#FAE8E3;stroke:none;}.aK-cls-9{fill:#EEEFEF;stroke:none;}.aK-cls-10{fill:#E2E3E4;stroke:none;}.aK-cls-11{fill:#FBFBFB;stroke:none;}.aK-cls-12{fill:#E0E0E0;stroke:none;}.aK-cls-13{fill:#FCFCFC;stroke:none;}.aK-cls-14{opacity:0.55;fill:#3C3D3D;stroke:none;}.aK-cls-15{fill:#FFD403;stroke:none;}.aK-cls-16{fill:none;stroke:#C52636;stroke-width:3.622;stroke-miterlimit:10;}.aK-cls-17{font-family:'ProximaNova-Bold',sans-serif;}.aK-cls-18{font-size:13.6587px;}.aK-cls-19{fill:none;stroke:none;}.aK-cls-20{fill:#28418B;stroke:none;}.aK-cls-21{fill:#787878;stroke:none;}.aK-cls-22{fill:none;stroke:#C52636;stroke-width:2;stroke-miterlimit:10;}.aK-cls-23{fill:#C52636;stroke:none;}.aK-cls-24{fill:none;stroke:#C52636;stroke-width:2;stroke-linecap:round;stroke-miterlimit:10;}.aK-cls-25{fill:#C5C7C9;stroke:none;}.aK-cls-26{fill:#FFF;stroke:none;}.aK-cls-27{fill:none;stroke:#28418B;stroke-width:2;stroke-miterlimit:10;}.aK-cls-28{fill:#FFEF3E;stroke:none;}.aK-cls-29{fill:none;stroke:#C52636;stroke-width:1.25;stroke-miterlimit:10;}.aK-cls-30{fill:#9B9999;stroke:none;}.aK-cls-31{fill:#DBDBDC;stroke:none;}.aK-cls-32{fill:#3C3D3D;stroke:none;}.bK-cls-2{fill:#C5C7C9;stroke:#C5C7C9;stroke-width:5;stroke-miterlimit:10;}.bK-cls-3{fill:#EEEFEF;stroke:none;}.bK-cls-4{fill:#E2E3E4;stroke:none;}.bK-cls-5{fill:#E0E0E0;stroke:none;}.bK-cls-6{fill:#FCFCFC;stroke:none;}.bK-cls-7{opacity:0.55;fill:#3C3D3D;stroke:none;}.bK-cls-8{fill:#787878;stroke:none;}.bK-cls-9{fill:none;stroke:none;}.bK-cls-10{fill:#28418B;stroke:none;}.bK-cls-11{font-family:'ProximaNova-Semibold',sans-serif;}.bK-cls-12{font-size:33px;}.bK-cls-13{fill:#FFF;stroke:none;}.bK-cls-14{fill:#FFEF3E;stroke:none;}.bK-cls-15{fill:none;stroke:#C52636;stroke-width:1.25;stroke-miterlimit:10;}.cK-cls-2{fill:#C4C6C7;stroke:#C4C6C7;stroke-width:5;stroke-miterlimit:10;}.cK-cls-3{fill:#EEEFEF;stroke:none;}.cK-cls-4{fill:#E2E3E4;stroke:none;}.cK-cls-5{fill:#FBFBFB;stroke:none;}.cK-cls-6{opacity:0.55;fill:#3C3D3D;stroke:none;}.cK-cls-7{fill:#28418B;stroke:none;}.cK-cls-8{fill:#787878;stroke:none;}.cK-cls-9{fill:#FFF;stroke:none;}.cK-cls-10{fill:#FFEF3E;stroke:none;}.cK-cls-11{fill:none;stroke:#C52636;stroke-width:1.25;stroke-miterlimit:10;}.cK-cls-12{fill:none;stroke:none;}.aK-msng-cls-1{isolation:isolate;}.aK-msng-cls-2{font-size:15px;fill:#929497;font-family:ProximaNova-Semibold,Proxima Nova;font-weight:700;stroke:none;}.aK-msng-cls-3{fill:#C4C6C7;stroke:#C4C6C7;stroke-width:5px;}.aK-msng-cls-13,.aK-msng-cls-3{stroke-miterlimit:10;}.aK-msng-cls-4{fill:#F5D7CF;stroke:none;}.aK-msng-cls-5{fill:#F2C6BC;stroke:none;}.aK-msng-cls-6{fill:#FAE8E3;stroke:none;}.aK-msng-cls-7{fill:#EEEFEF;stroke:none;}.aK-msng-cls-8{fill:#E2E3E4;stroke:none;}.aK-msng-cls-9{fill:#FBFBFB;stroke:none;}.aK-msng-cls-10{fill:#E0E0E0;stroke:none;}.aK-msng-cls-11{fill:#FCFCFC;stroke:none;}.aK-msng-cls-12{}.aK-msng-cls-13,.aK-msng-cls-14{fill:none;stroke:none;}.aK-msng-cls-13{stroke:#787878;stroke-width:6.25px;}</style></defs><title>ToothK_Layered</title><g class="aK-cls-1" transform="translate(0 122)"><g id="_Ka">	<text transform="matrix(1 0 0 1 24.8425 150.7422)" class="aK-cls-2 aK-cls-3 aK-cls-4">K</text>	<g>		<path class="aK-cls-5" d="M6.2,58c0.4-8,4.9-14.9,6.9-18.7c0-0.1,0-0.2,0-0.3c0.5-3-2.1-10.1-2.5-13.1c-0.7-5-1-9.5,6.4-10.4    c4.5-0.5,5.7-0.6,6.9-0.2c1.2,0.4,2.2,0.4,3.6-0.4c1-0.6,2.1-1,5-1.1c1.6-0.1,4.2,0.1,5.7,0.8c0.6,0.3,0.9,0.2,1.7-0.1    c1.3-0.6,5.4-0.7,6.5-0.4c4,1,4.6,3.3,4.7,5.3c0.2,2.8-1,9.9-1.7,12.3c-0.7,2.4-0.1,5.5,0.2,6.5c0,0.1,0,0.1-0.1,0.2    c3.2,11.7,4.6,24.2,1.7,33.9c-0.1,0.5-0.3,0.9-0.4,1.3l0,0c-0.6,1.6-1.7,3.6-3,5.6c-2.8,4.4-6.6,8.8-8.2,8.4    c-2.3-0.5,0-10.2,0.7-16.5c0.7-6.3-4.6-17.2-11-17.8C22.9,52.8,16.9,67.7,17,74.6c0.1,6.9,0.7,13.1-2,13.6    C12.6,88.7,5.5,71.9,6.2,58z" />		<path class="aK-cls-6" d="M6.2,58c0.5-9.7,7-17.8,7.8-20.7c2-7.2,30.2-11.8,35-0.7h0c0.1,0.3,0.3,0.7,0.4,1c3.3,11.9,4.9,24.7,1.9,34.6    c-0.1,0.5-0.3,0.9-0.4,1.3l0,0c-0.6,1.6-1.7,3.6-3,5.6c-2.8,4.4-6.6,8.8-8.2,8.4c-2.3-0.5,0-10.2,0.7-16.5    c0.7-6.3-4.6-17.2-11-17.8C22.9,52.8,16.9,67.7,17,74.6c0.1,6.9,0.7,13.1-2,13.6C12.6,88.7,5.5,71.9,6.2,58z" />		<path class="aK-cls-7" d="M13.7,38c-1.1,3.3-7.1,10.9-7.6,20c-0.4,8.9,2.4,19.1,5,25c-0.6-2.2-1.4-5.7-1.8-8.2    C7.9,66.3,7.7,62.3,8,57.2c0.3-5.1,6.6-14.5,7.2-17.3C15.4,39.2,14.6,38.5,13.7,38z" />		<path class="aK-cls-7" d="M42.4,68.5c0.2-5.9-3.3-12-5.5-14.4c-2.7-3-6.7-4-9.4-2.9c-3.4,1.4-7.4,5.5-8.6,8.9    c-1.3,3.4-2.9,8.3-2.8,14.7c0,2,0.7,4.6,1.1,6.7c0-2.1-0.1-4.4-0.1-6.8c-0.1-6.9,5.9-21.8,12.3-21.3c6.4,0.5,11.7,11.5,11,17.8    c-0.4,3.8-1.4,8.7-1.6,12.2c0.1-0.2,0.2-0.3,0.3-0.5C40.8,79,42.2,73,42.4,68.5z" />		<path class="aK-cls-7" d="M49.3,37.7c-0.1-0.4-0.2-0.7-0.4-1l-2.7,1.2c0,0,1.3,3.7,2.1,7c0.8,3.3,2.4,8,2.7,14.5    c0.3,5.9-0.9,12.9-2.1,16.5c-0.4,1.2-0.9,2.6-1.5,3.9c1.4-2.2,2.7-4.4,3.4-6.2C54.4,63.5,52.8,50.1,49.3,37.7z" />		<path class="aK-cls-8" d="M38.7,40.2c0.7,3.2,5.7,10.8,5.7,21.7s-3.2,21.6-2.4,22s3.9-11.4,5.2-17.6c2-10.2-1.9-20.9-4-26    S38.2,37.8,38.7,40.2z" />		<path class="aK-cls-9" d="M13.1,39c0.5-3-2.1-10.1-2.5-13.1c-0.7-5-1-9.5,6.4-10.4c4.5-0.5,5.7-0.6,6.9-0.2c1.2,0.4,2.2,0.4,3.6-0.4    c1-0.6,2.1-1,5-1.1c1.6-0.1,4.2,0.1,5.7,0.8c0.6,0.3,0.9,0.2,1.7-0.1c1.3-0.6,5.4-0.7,6.5-0.4c4,1,4.6,3.3,4.7,5.3    c0.2,2.8-1,9.9-1.7,12.3s-0.1,5.5,0.2,6.5s-9.1,3-17.7,3.1C23.3,41.3,12.6,41.7,13.1,39z" />		<path class="aK-cls-10" d="M16.5,15.6c-2.6,2.8-2.7,7.8-2.7,10.8c-0.1,3.1,2,10.6,2,14.4c-1.8-0.3-2.9-0.9-2.7-1.8    c0.5-3-2.1-10.1-2.5-13.1C9.8,20.9,9.6,16.6,16.5,15.6z" />		<path class="aK-cls-11" d="M24.4,17.2c-1.1,0.3-0.1,3-0.1,4.7c0,1.7-0.6,4.9,0,4.7c0.6-0.2,1.1-3.2,1.5-4.7    C26.2,20.3,26.9,16.5,24.4,17.2z" />		<path class="aK-cls-8" d="M15.1,85c0.5-0.3-1.4-7.9-0.5-15.6c1-8.9,4.5-16.6,3.9-16.9c-0.5-0.3-4,6.4-4.7,8.9c-1,3.4-1.7,9-1,14.1    C13.4,80.6,14.4,85.4,15.1,85z" />		<path class="aK-cls-12" d="M46.4,32.9c0.6-2.7,1.6-10.6,1.4-13.7c-0.1-1.9-1.3-3.9-3-5.2c0.6,0,1.2,0.1,1.5,0.1c4,1,4.6,3.3,4.7,5.3    c0.2,2.8-1,9.9-1.7,12.3c-0.7,2.4-0.1,5.5,0.2,6.5c0.1,0.4-1,0.9-3,1.4C46,37.5,46,34.6,46.4,32.9z" />		<path class="aK-cls-13" d="M38.2,40.9c-0.3-2.9-0.4-7.6,0.1-9.8c0.7-3,1.8-10.9,1.4-13.3c-0.2-1.1-0.6-2.2-1-3c0.3,0,0.6,0,1.2-0.3    c0.5-0.2,1.4-0.4,2.3-0.5c0.5,0.8,1,1.9,1.2,2.7c1,4.6-0.2,11.6-1,14.5c-0.6,2.2-0.6,5.9,0.1,9C41.2,40.5,39.7,40.7,38.2,40.9z" />	</g></g><defs><g id="aK_bone_graft" style="">	<g>		<g>							<ellipse transform="matrix(0.1539 -0.9881 0.9881 0.1539 -23.6537 49.9275)" class="aK-cls-16" cx="17.3" cy="38.8" rx="12.7" ry="12.7" data-color-action="stroke" style="stroke:inherit" />			<line class="aK-cls-16" x1="10.3" y1="29.2" x2="24.3" y2="48.4" data-color-action="stroke" style="stroke:inherit" />		</g>		<text transform="matrix(1 0 0 1 6.7031 43.357)" class="aK-cls-17 aK-cls-18">NA</text>	</g></g><g id="aK_splinted_crowns" style="">	<g>		<g>							<ellipse transform="matrix(0.1539 -0.9881 0.9881 0.1539 -23.6537 49.9275)" class="aK-cls-16" cx="17.3" cy="38.8" rx="12.7" ry="12.7" data-color-action="stroke" style="stroke:inherit" />			<line class="aK-cls-16" x1="10.3" y1="29.2" x2="24.3" y2="48.4" data-color-action="stroke" style="stroke:inherit" />		</g>		<text transform="matrix(1 0 0 1 6.7031 43.357)" class="aK-cls-17 aK-cls-18">NA</text>	</g></g><g id="aK_buccal_V" style="">	<path class="aK-cls-14" d="M40.5,40.6c-2.7,0.4-5.7,0.6-8.6,0.7c-4.2,0.1-8.9,0.2-12.6-0.1c3.4-1.4,7.1-2.2,10.9-2.3   C33.8,38.8,37.3,39.4,40.5,40.6z" data-color-action="fill" style="fill:inherit" /></g><g id="aK_buccal_pit" style="">	<ellipse class="aK-cls-14" cx="30.4" cy="30.8" rx="3.9" ry="6.6" data-color-action="fill" style="fill:inherit" /></g><g id="aK_mesial" style="">	<path class="aK-cls-14" d="M10.7,19.1l4.1,5.2c-0.3,1-0.2,2.4-0.3,3.4c-0.2,1.9-1,4.1-2.1,5.4c-0.7-2.8-1.6-5.6-1.8-7.3   C10.1,23.3,9.9,21,10.7,19.1z" data-color-action="fill" style="fill:inherit" /></g><g id="aK_line_angle_2" style="">	<path class="aK-cls-14" d="M16.9,15.5c2.8-0.3,4.4-0.5,5.4-0.4l1.5,6.2c-0.9-0.4-2.8-0.7-4.3-0.7c-3.8-0.1-4.1,1.4-4.7,3.7l-4.1-5.2   C11.5,17.3,13.3,16,16.9,15.5z" data-color-action="fill" style="fill:inherit" /></g><g id="aK_groove_1" style="">	<path class="aK-cls-14" d="M23.9,15.4c1.2,0.4,2.2,0.4,3.6-0.4c1-0.6,2.1-1,5-1.1c1.5-0.1,3.7,0.1,5.3,0.6l-1.5,6.3   c-2.5,1.1-3.9,2.2-6.3,2.1c-2.8-0.1-3.8-0.5-6.2-1.5l-1.5-6.2C23,15.1,23.4,15.2,23.9,15.4z" data-color-action="fill" style="fill:inherit" /></g><g id="aK_line_angle_1" style="">	<path class="aK-cls-14" d="M38.2,14.6c0.6,0.3,0.9,0.2,1.7-0.1c1.3-0.6,5.4-0.7,6.5-0.4c2.5,0.6,3.6,1.7,4.2,3l-4.3,6.6   c-1.2-2.3-2.8-3.8-5.2-3.8c-1.9,0-3.5,0.4-4.8,1l1.5-6.3C38,14.5,38.1,14.5,38.2,14.6z" data-color-action="fill" style="fill:inherit" /></g><g id="aK_distal" style="">	<path class="aK-cls-14" d="M48.3,28.9c-0.6-2-1.2-3.8-2-5.3l4.3-6.6c0.3,0.8,0.5,1.6,0.5,2.3c0.2,2.6-0.8,8.8-1.6,11.7   C49,30.5,48.5,29.8,48.3,28.9z" data-color-action="fill" style="fill:inherit" /></g><g id="aK_veneer" style="">	<g>		<g>							<ellipse transform="matrix(0.1539 -0.9881 0.9881 0.1539 -23.6537 49.9275)" class="aK-cls-16" cx="17.3" cy="38.8" rx="12.7" ry="12.7" data-color-action="stroke" style="stroke:inherit" />			<line class="aK-cls-16" x1="10.3" y1="29.2" x2="24.3" y2="48.4" data-color-action="stroke" style="stroke:inherit" />		</g>		<text transform="matrix(1 0 0 1 6.7031 43.357)" class="aK-cls-17 aK-cls-18">NA</text>	</g></g><g id="aK_tissue_graft" style="">	<g>		<g>							<ellipse transform="matrix(0.1539 -0.9881 0.9881 0.1539 -23.6537 49.9275)" class="aK-cls-16" cx="17.3" cy="38.8" rx="12.7" ry="12.7" data-color-action="stroke" style="stroke:inherit" />			<line class="aK-cls-16" x1="10.3" y1="29.2" x2="24.3" y2="48.4" data-color-action="stroke" style="stroke:inherit" />		</g>		<text transform="matrix(1 0 0 1 6.7031 43.357)" class="aK-cls-17 aK-cls-18">NA</text>	</g></g><g id="aK_tipped_lingual" style="">	<rect x="28" y="154.8" transform="matrix(-1 -4.486867e-11 4.486867e-11 -1 59 312.5)" class="aK-cls-19" width="3" height="3" /></g><g id="aK_tipped_facial" style="">	<g>		<path class="aK-cls-20" d="M33.9,10.4c-1.2-3.2-4.5-3.6-7.2,5c-0.5,1.5-4.2,1.7-3.6,0c1.9-5.7,5-9.6,8.5-8.7c1.2,0.3,2.3,1.6,2.8,3.2    C34.2,10.1,34,10.3,33.9,10.4z" data-color-action="fill" style="fill:inherit" />		<polygon class="aK-cls-20" points="31.9,13.2 19.8,13.2 22.5,22.3   " data-color-action="fill" style="fill:inherit" />	</g></g><g id="aK_surface_restoration_mesial" style="">	<path class="aK-cls-21" d="M17.2,23.2c0,0.4,0.1,1,0.2,1.7c0.1,0.6,0.5,2.1,0.8,3.4c0.3,1,1,4.4,1.6,7.9c-1.7-3-4.7-5.1-8.3-5.6   c-0.5-1.9-1-3.6-1.1-4.7c-0.4-2.9-0.7-5.6,0.6-7.6L17.2,23.2z" data-color-action="fill" style="fill:inherit" /></g><g id="aK_surface_restoration_buccal" style="">	<g>		<path class="aK-cls-21" d="M21,38.8c-0.3-0.9-0.6-1.7-1.1-2.5c-0.7-3.5-1.4-6.9-1.6-7.9c-0.4-1.3-0.8-2.8-0.8-3.4    c-0.2-1.1-0.2-1.8-0.3-2.3c0.2,0,0.4-0.1,0.6-0.1c1.6-0.2,3.3-0.4,4.1-0.4h0c1.2,0.4,2.3,0.6,3.4,0.6c1.9,0,3.7-0.5,5.6-1.6l0,0    c0,0,0.4-0.1,1.9-0.2c0.1,0,0.3,0,0.4,0c1.1,0,2,0.2,2.2,0.2c1.2,0.5,2.3,0.7,3.4,0.7c1.4,0,2.5-0.4,3.4-0.7    c0.3-0.1,1-0.1,1.8-0.1c-0.2,2.3-0.9,7-1.5,8.9c-0.1,0.5-0.2,2.8-0.3,5.6c-0.3,0.8-0.5,1.6-0.7,2.4c-2.8-1.8-6.1-2.8-9.7-2.8    C27.8,35.1,24,36.5,21,38.8z" data-color-action="fill" style="fill:inherit" />			</g></g><g id="aK_surface_restoration_buccal_V" style="">	<g>				<path class="aK-cls-21" d="M41.5,40.5c-2.9,0.4-6.3,0.8-9.6,0.8c-3.4,0-7.2,0.1-10.4,0c-0.1-0.9-0.2-1.8-0.5-2.6    c3.1-2.3,6.9-3.7,11-3.7c3.6,0,6.9,1,9.7,2.8c-0.1,0.6-0.2,1.2-0.2,1.9C41.5,40,41.5,40.3,41.5,40.5z" data-color-action="fill" style="fill:inherit" />	</g></g><g id="aK_surface_restoration_distal" style="">	<path class="aK-cls-21" d="M51.1,19.4c0.2,2-0.4,6.1-1,9.2c-3.5,0.9-6.4,3.5-7.7,6.8c0.1-2.8,0.2-5.1,0.3-5.6c0.5-1.7,1.2-5.8,1.4-8.2   l5.2-6.2C50.7,16.5,51,18.1,51.1,19.4z" data-color-action="fill" style="fill:inherit" /></g><g id="aK_surface_restoration_occlusal" style="">	<path class="aK-cls-21" d="M16.9,15.6c4.5-0.5,5.7-0.6,6.9-0.2c1.2,0.4,2.2,0.4,3.6-0.4c1-0.6,2.1-1,5-1.1c1.6-0.1,4.2,0.1,5.7,0.8   c0.6,0.3,0.9,0.2,1.7-0.1c1.3-0.6,5.4-0.7,6.5-0.4c1.3,0.3,2.2,0.8,2.9,1.3L44,21.6c0-0.2,0-0.4,0.1-0.6c-0.8,0-1.4,0.1-1.8,0.1   c-0.9,0.4-2,0.7-3.4,0.7c-1.1,0-2.3-0.2-3.4-0.7c-0.2-0.1-1.1-0.2-2.2-0.2c-0.1,0-0.3,0-0.4,0C31.4,21,31,21.1,31,21.1l0,0   c-1.9,1.1-3.7,1.6-5.6,1.6c-1.1,0-2.2-0.2-3.4-0.6h0c-0.8,0-2.5,0.2-4.1,0.4c-0.2,0-0.4,0.1-0.6,0.1c0,0.2,0,0.4,0,0.6l-6.1-4.8   C12.1,17,13.8,16,16.9,15.6z" data-color-action="fill" style="fill:inherit" /></g><g id="aK_supra-erupted" style="">	<g>		<g>							<ellipse transform="matrix(0.1539 -0.9881 0.9881 0.1539 -23.6537 49.9275)" class="aK-cls-16" cx="17.3" cy="38.8" rx="12.7" ry="12.7" data-color-action="stroke" style="stroke:inherit" />			<line class="aK-cls-16" x1="10.3" y1="29.2" x2="24.3" y2="48.4" data-color-action="stroke" style="stroke:inherit" />		</g>		<text transform="matrix(1 0 0 1 6.7031 43.357)" class="aK-cls-17 aK-cls-18">NA</text>	</g></g><g id="aK_sub-erupted" style="">	<g>		<g>			<line class="aK-cls-22" x1="29.5" y1="50" x2="29.5" y2="43.1" data-color-action="stroke" style="stroke:inherit" />			<g>				<polygon class="aK-cls-23" points="33.5,48.8 29.5,55.7 25.5,48.8     " data-color-action="fill" style="fill:inherit" />			</g>		</g>	</g></g><g id="aK_rotated_mesial" style="">	<g>		<path class="aK-cls-20" d="M54.9,34.3c2.8-1.7,2.2-5.1-9.6-5.5c-5-0.1-8.4,0-8.4,0l0.1-2.8c0,0,0.9-0.1,7.7,0.2    c7.2,0.3,13.2,1.7,12.9,5.6c-0.1,1-1,2.1-2.2,2.7C55.2,34.5,55,34.3,54.9,34.3z" data-color-action="fill" style="fill:inherit" />		<polygon class="aK-cls-20" points="42.9,33 42.9,21.9 33.2,27.4   " data-color-action="fill" style="fill:inherit" />	</g></g><g id="aK_rotated_distal" style="">	<g>		<path class="aK-cls-20" d="M5.8,34.3c-2.8-1.7-2.2-5.1,9.6-5.5c5-0.1,8.4,0,8.4,0L23.8,26c0,0-0.9-0.1-7.7,0.2    c-7.2,0.3-13.2,1.7-12.9,5.6c0.1,1,1,2.1,2.2,2.7C5.5,34.5,5.7,34.3,5.8,34.3z" data-color-action="fill" style="fill:inherit" />		<polygon class="aK-cls-20" points="17.8,33 17.8,21.9 27.5,27.4   " data-color-action="fill" style="fill:inherit" />	</g></g><g id="aK_root_tips" style="">	<g>		<g>							<ellipse transform="matrix(0.1539 -0.9881 0.9881 0.1539 -23.6537 49.9275)" class="aK-cls-16" cx="17.3" cy="38.8" rx="12.7" ry="12.7" data-color-action="stroke" style="stroke:inherit" />			<line class="aK-cls-16" x1="10.3" y1="29.2" x2="24.3" y2="48.4" data-color-action="stroke" style="stroke:inherit" />		</g>		<text transform="matrix(1 0 0 1 6.7031 43.357)" class="aK-cls-17 aK-cls-18">NA</text>	</g></g><g id="aK_root_decay" style="">	<g>		<g>							<ellipse transform="matrix(0.1539 -0.9881 0.9881 0.1539 -23.6537 49.9275)" class="aK-cls-16" cx="17.3" cy="38.8" rx="12.7" ry="12.7" data-color-action="stroke" style="stroke:inherit" />			<line class="aK-cls-16" x1="10.3" y1="29.2" x2="24.3" y2="48.4" data-color-action="stroke" style="stroke:inherit" />		</g>		<text transform="matrix(1 0 0 1 6.7031 43.357)" class="aK-cls-17 aK-cls-18">NA</text>	</g><g id="root_decay_2">	<g>		<g>							<ellipse transform="matrix(0.1539 -0.9881 0.9881 0.1539 -23.6537 49.9275)" class="aK-cls-16" cx="17.3" cy="38.8" rx="12.7" ry="12.7" data-color-action="stroke" style="stroke:inherit" />			<line class="aK-cls-16" x1="10.3" y1="29.2" x2="24.3" y2="48.4" data-color-action="stroke" style="stroke:inherit" />		</g>		<text transform="matrix(1 0 0 1 6.7031 43.357)" class="aK-cls-17 aK-cls-18">NA</text>	</g></g><g id="root_decay_1">	<g>		<g>							<ellipse transform="matrix(0.1539 -0.9881 0.9881 0.1539 -23.6537 49.9275)" class="aK-cls-16" cx="17.3" cy="38.8" rx="12.7" ry="12.7" data-color-action="stroke" style="stroke:inherit" />			<line class="aK-cls-16" x1="10.3" y1="29.2" x2="24.3" y2="48.4" data-color-action="stroke" style="stroke:inherit" />		</g>		<text transform="matrix(1 0 0 1 6.7031 43.357)" class="aK-cls-17 aK-cls-18">NA</text>	</g></g></g><g id="aK_root_canal" style="">	<line class="aK-cls-24" x1="12" y1="79.6" x2="17" y2="43.1" data-color-action="stroke" style="stroke:inherit" /><g id="root_canal_2">	<line class="aK-cls-24" x1="12" y1="79.6" x2="17" y2="43.1" data-color-action="stroke" style="stroke:inherit" /></g><g id="root_canal_1">	<line class="aK-cls-24" x1="43.8" y1="81.2" x2="44.4" y2="42.3" data-color-action="stroke" style="stroke:inherit" /></g></g><g id="aK_root_abrasion" style="">	<g>		<g>							<ellipse transform="matrix(0.1539 -0.9881 0.9881 0.1539 -23.6537 49.9275)" class="aK-cls-16" cx="17.3" cy="38.8" rx="12.7" ry="12.7" data-color-action="stroke" style="stroke:inherit" />			<line class="aK-cls-16" x1="10.3" y1="29.2" x2="24.3" y2="48.4" data-color-action="stroke" style="stroke:inherit" />		</g>		<text transform="matrix(1 0 0 1 6.7031 43.357)" class="aK-cls-17 aK-cls-18">NA</text>	</g><g id="root_abrasion_2">	<g>		<g>							<ellipse transform="matrix(0.1539 -0.9881 0.9881 0.1539 -23.6537 49.9275)" class="aK-cls-16" cx="17.3" cy="38.8" rx="12.7" ry="12.7" data-color-action="stroke" style="stroke:inherit" />			<line class="aK-cls-16" x1="10.3" y1="29.2" x2="24.3" y2="48.4" data-color-action="stroke" style="stroke:inherit" />		</g>		<text transform="matrix(1 0 0 1 6.7031 43.357)" class="aK-cls-17 aK-cls-18">NA</text>	</g></g><g id="root_abrasion_1">	<g>		<g>							<ellipse transform="matrix(0.1539 -0.9881 0.9881 0.1539 -23.6537 49.9275)" class="aK-cls-16" cx="17.3" cy="38.8" rx="12.7" ry="12.7" data-color-action="stroke" style="stroke:inherit" />			<line class="aK-cls-16" x1="10.3" y1="29.2" x2="24.3" y2="48.4" data-color-action="stroke" style="stroke:inherit" />		</g>		<text transform="matrix(1 0 0 1 6.7031 43.357)" class="aK-cls-17 aK-cls-18">NA</text>	</g></g></g><g id="aK_pins" style="">	<g>		<g>							<rect x="40.6" y="29" transform="matrix(-1 -4.481272e-11 4.481272e-11 -1 83.4524 80.046)" class="aK-cls-21" width="2.3" height="22" data-color-action="fill" style="fill:inherit" />							<rect x="41.9" y="29" transform="matrix(-1 -4.267887e-11 4.267887e-11 -1 84.1349 80.046)" class="aK-cls-25" width="0.3" height="22" />		</g>		<g>							<rect x="36.3" y="29" transform="matrix(-1 -4.521284e-11 4.521284e-11 -1 74.8386 80.046)" class="aK-cls-21" width="2.3" height="22" data-color-action="fill" style="fill:inherit" />							<rect x="37.6" y="29" transform="matrix(-1 -4.534651e-11 4.534651e-11 -1 75.5211 80.046)" class="aK-cls-25" width="0.3" height="22" />		</g>	</g>	<g>		<g>							<rect x="21.8" y="29" transform="matrix(-1 -4.521284e-11 4.521284e-11 -1 45.8228 80.046)" class="aK-cls-21" width="2.3" height="22" data-color-action="fill" style="fill:inherit" />							<rect x="23.1" y="29" transform="matrix(-1 -4.534651e-11 4.534651e-11 -1 46.5053 80.046)" class="aK-cls-25" width="0.3" height="22" />		</g>		<g>							<rect x="17.5" y="29" transform="matrix(-1 -4.481272e-11 4.481272e-11 -1 37.209 80.046)" class="aK-cls-21" width="2.3" height="22" data-color-action="fill" style="fill:inherit" />							<rect x="18.8" y="29" transform="matrix(-1 -4.534651e-11 4.534651e-11 -1 37.8915 80.046)" class="aK-cls-25" width="0.3" height="22" />		</g>	</g></g><g id="aK_post" style="">	<g>		<g>							<ellipse transform="matrix(0.1539 -0.9881 0.9881 0.1539 -23.6537 49.9275)" class="aK-cls-16" cx="17.3" cy="38.8" rx="12.7" ry="12.7" data-color-action="stroke" style="stroke:inherit" />			<line class="aK-cls-16" x1="10.3" y1="29.2" x2="24.3" y2="48.4" data-color-action="stroke" style="stroke:inherit" />		</g>		<text transform="matrix(1 0 0 1 6.7031 43.357)" class="aK-cls-17 aK-cls-18">NA</text>	</g></g><g id="aK_open_contact_mesial" style="">	<g>		<g>							<ellipse transform="matrix(0.1539 -0.9881 0.9881 0.1539 -23.6537 49.9275)" class="aK-cls-16" cx="17.3" cy="38.8" rx="12.7" ry="12.7" data-color-action="stroke" style="stroke:inherit" />			<line class="aK-cls-16" x1="10.3" y1="29.2" x2="24.3" y2="48.4" data-color-action="stroke" style="stroke:inherit" />		</g>		<text transform="matrix(1 0 0 1 6.7031 43.357)" class="aK-cls-17 aK-cls-18">NA</text>	</g></g><g id="aK_open_contact_distal" style="">	<g>		<g>							<ellipse transform="matrix(0.1539 -0.9881 0.9881 0.1539 -23.6537 49.9275)" class="aK-cls-16" cx="17.3" cy="38.8" rx="12.7" ry="12.7" data-color-action="stroke" style="stroke:inherit" />			<line class="aK-cls-16" x1="10.3" y1="29.2" x2="24.3" y2="48.4" data-color-action="stroke" style="stroke:inherit" />		</g>		<text transform="matrix(1 0 0 1 6.7031 43.357)" class="aK-cls-17 aK-cls-18">NA</text>	</g></g><g id="aK_mesial_drift" style="">	<g>		<g>			<line class="aK-cls-27" x1="26.9" y1="28.6" x2="37.8" y2="28.6" data-color-action="stroke" style="stroke:inherit" />			<g>				<polygon class="aK-cls-20" points="28.1,32.6 21.2,28.6 28.1,24.6     " data-color-action="fill" style="fill:inherit" />			</g>		</g>	</g></g><g id="aK_lingual_abfraction" style="">	<g>		<g>							<ellipse transform="matrix(0.1539 -0.9881 0.9881 0.1539 -23.6537 49.9275)" class="aK-cls-16" cx="17.3" cy="38.8" rx="12.7" ry="12.7" data-color-action="stroke" style="stroke:inherit" />			<line class="aK-cls-16" x1="10.3" y1="29.2" x2="24.3" y2="48.4" data-color-action="stroke" style="stroke:inherit" />		</g>		<text transform="matrix(1 0 0 1 6.7031 43.357)" class="aK-cls-17 aK-cls-18">NA</text>	</g></g><g id="aK_internal_root_resorption" style="">	<g>		<g>							<ellipse transform="matrix(0.1539 -0.9881 0.9881 0.1539 -23.6537 49.9275)" class="aK-cls-16" cx="17.3" cy="38.8" rx="12.7" ry="12.7" data-color-action="stroke" style="stroke:inherit" />			<line class="aK-cls-16" x1="10.3" y1="29.2" x2="24.3" y2="48.4" data-color-action="stroke" style="stroke:inherit" />		</g>		<text transform="matrix(1 0 0 1 6.7031 43.357)" class="aK-cls-17 aK-cls-18">NA</text>	</g></g><g id="aK_impacted_mesial" style="">	<g>		<g>							<ellipse transform="matrix(0.1539 -0.9881 0.9881 0.1539 -23.6537 49.9275)" class="aK-cls-16" cx="17.3" cy="38.8" rx="12.7" ry="12.7" data-color-action="stroke" style="stroke:inherit" />			<line class="aK-cls-16" x1="10.3" y1="29.2" x2="24.3" y2="48.4" data-color-action="stroke" style="stroke:inherit" />		</g>		<text transform="matrix(1 0 0 1 6.7031 43.357)" class="aK-cls-17 aK-cls-18">NA</text>	</g></g><g id="aK_impacted_distal" style="">	<g>		<g>							<ellipse transform="matrix(0.1539 -0.9881 0.9881 0.1539 -23.6537 49.9275)" class="aK-cls-16" cx="17.3" cy="38.8" rx="12.7" ry="12.7" data-color-action="stroke" style="stroke:inherit" />			<line class="aK-cls-16" x1="10.3" y1="29.2" x2="24.3" y2="48.4" data-color-action="stroke" style="stroke:inherit" />		</g>		<text transform="matrix(1 0 0 1 6.7031 43.357)" class="aK-cls-17 aK-cls-18">NA</text>	</g></g><g id="aK_gortex_membranes" style="">	<g>		<g>							<ellipse transform="matrix(0.1539 -0.9881 0.9881 0.1539 -23.6537 49.9275)" class="aK-cls-16" cx="17.3" cy="38.8" rx="12.7" ry="12.7" data-color-action="stroke" style="stroke:inherit" />			<line class="aK-cls-16" x1="10.3" y1="29.2" x2="24.3" y2="48.4" data-color-action="stroke" style="stroke:inherit" />		</g>		<text transform="matrix(1 0 0 1 6.7031 43.357)" class="aK-cls-17 aK-cls-18">NA</text>	</g></g><g id="aK_frenum_pull" style="">	<g>		<g>							<ellipse transform="matrix(0.1539 -0.9881 0.9881 0.1539 -23.6537 49.9275)" class="aK-cls-16" cx="17.3" cy="38.8" rx="12.7" ry="12.7" data-color-action="stroke" style="stroke:inherit" />			<line class="aK-cls-16" x1="10.3" y1="29.2" x2="24.3" y2="48.4" data-color-action="stroke" style="stroke:inherit" />		</g>		<text transform="matrix(1 0 0 1 6.7031 43.357)" class="aK-cls-17 aK-cls-18">NA</text>	</g></g><g id="aK_external_root_resorption" style="">	<g>		<g>							<ellipse transform="matrix(0.1539 -0.9881 0.9881 0.1539 -23.6537 49.9275)" class="aK-cls-16" cx="17.3" cy="38.8" rx="12.7" ry="12.7" data-color-action="stroke" style="stroke:inherit" />			<line class="aK-cls-16" x1="10.3" y1="29.2" x2="24.3" y2="48.4" data-color-action="stroke" style="stroke:inherit" />		</g>		<text transform="matrix(1 0 0 1 6.7031 43.357)" class="aK-cls-17 aK-cls-18">NA</text>	</g></g><g id="aK_diastema_mesial" style="">	<g>		<g>							<ellipse transform="matrix(0.1539 -0.9881 0.9881 0.1539 -23.6537 49.9275)" class="aK-cls-16" cx="17.3" cy="38.8" rx="12.7" ry="12.7" data-color-action="stroke" style="stroke:inherit" />			<line class="aK-cls-16" x1="10.3" y1="29.2" x2="24.3" y2="48.4" data-color-action="stroke" style="stroke:inherit" />		</g>		<text transform="matrix(1 0 0 1 6.7031 43.357)" class="aK-cls-17 aK-cls-18">NA</text>	</g></g><g id="aK_diastema_distal" style="">	<g>		<g>							<ellipse transform="matrix(0.1539 -0.9881 0.9881 0.1539 -23.6537 49.9275)" class="aK-cls-16" cx="17.3" cy="38.8" rx="12.7" ry="12.7" data-color-action="stroke" style="stroke:inherit" />			<line class="aK-cls-16" x1="10.3" y1="29.2" x2="24.3" y2="48.4" data-color-action="stroke" style="stroke:inherit" />		</g>		<text transform="matrix(1 0 0 1 6.7031 43.357)" class="aK-cls-17 aK-cls-18">NA</text>	</g></g><g id="aK_distal_drift" style="">	<g>		<g>			<line class="aK-cls-27" x1="32" y1="28.6" x2="21.2" y2="28.6" data-color-action="stroke" style="stroke:inherit" />			<g>				<polygon class="aK-cls-20" points="30.9,24.6 37.8,28.6 30.9,32.6     " data-color-action="fill" style="fill:inherit" />			</g>		</g>	</g></g><g id="aK_three_quarter_crown" style="">	<g>		<g>							<ellipse transform="matrix(0.1539 -0.9881 0.9881 0.1539 -23.6537 49.9275)" class="aK-cls-16" cx="17.3" cy="38.8" rx="12.7" ry="12.7" data-color-action="stroke" style="stroke:inherit" />			<line class="aK-cls-16" x1="10.3" y1="29.2" x2="24.3" y2="48.4" data-color-action="stroke" style="stroke:inherit" />		</g>		<text transform="matrix(1 0 0 1 6.7031 43.357)" class="aK-cls-17 aK-cls-18">NA</text>	</g></g><g id="aK_crown" style="">	<path class="aK-cls-28" d="M13.1,39c0.5-3-2.1-10.1-2.5-13.1c-0.7-5-1-9.5,6.4-10.4c4.5-0.5,5.7-0.6,6.9-0.2c1.2,0.4,2.2,0.4,3.6-0.4   c1-0.6,2.1-1,5-1.1c1.6-0.1,4.2,0.1,5.7,0.8c0.6,0.3,0.9,0.2,1.7-0.1c1.3-0.6,5.4-0.7,6.5-0.4c4,1,4.6,3.3,4.7,5.3   c0.2,2.8-1,9.9-1.7,12.3s-0.1,5.5,0.2,6.5s-9.1,3-17.7,3.1C23.3,41.3,12.6,41.7,13.1,39z" data-color-action="fill" style="fill:inherit" /></g><g id="aK_cracked_surface_distal" style="">	<polyline class="aK-cls-29" points="47.2,32.2 43.3,28.3 48.3,28.3 43.3,23.6 48.3,23.6 44.5,19.8  " data-color-action="stroke" style="stroke:inherit" /></g><g id="aK_cracked_surface_buccal" style="">	<polyline class="aK-cls-29" points="32,32.2 28.2,28.3 33.2,28.3 28.2,23.6 33.2,23.6 29.3,19.8  " data-color-action="stroke" style="stroke:inherit" /></g><g id="aK_cracked_surface_buccal_V" style="">	<polyline class="aK-cls-29" points="32,32.2 28.2,28.3 33.2,28.3 28.2,23.6 33.2,23.6 29.3,19.8  " data-color-action="stroke" style="stroke:inherit" /></g><g id="aK_cracked_surface_mesial" style="">	<polyline class="aK-cls-29" points="16.2,32.2 12.3,28.3 17.3,28.3 12.3,23.6 17.3,23.6 13.5,19.8  " data-color-action="stroke" style="stroke:inherit" /></g><g id="aK_chipped_surface_distal" style="">	<g>		<line class="aK-cls-29" x1="41" y1="30.5" x2="49.3" y2="22.2" data-color-action="stroke" style="stroke:inherit" />		<line class="aK-cls-29" x1="49.3" y1="30.5" x2="41" y2="22.2" data-color-action="stroke" style="stroke:inherit" />	</g></g><g id="aK_chipped_surface_buccal" style="">	<g>		<line class="aK-cls-29" x1="26.8" y1="30.5" x2="35.2" y2="22.2" data-color-action="stroke" style="stroke:inherit" />		<line class="aK-cls-29" x1="35.2" y1="30.5" x2="26.8" y2="22.2" data-color-action="stroke" style="stroke:inherit" />	</g></g><g id="aK_chipped_surface_buccal_V" style="">	<g>		<line class="aK-cls-29" x1="26.8" y1="30.5" x2="35.2" y2="22.2" data-color-action="stroke" style="stroke:inherit" />		<line class="aK-cls-29" x1="35.2" y1="30.5" x2="26.8" y2="22.2" data-color-action="stroke" style="stroke:inherit" />	</g></g><g id="aK_chipped_surface_mesial" style="">	<g>		<line class="aK-cls-29" x1="11.8" y1="30.5" x2="20.2" y2="22.2" data-color-action="stroke" style="stroke:inherit" />		<line class="aK-cls-29" x1="20.2" y1="30.5" x2="11.8" y2="22.2" data-color-action="stroke" style="stroke:inherit" />	</g></g><g id="aK_buccal_abfraction" style="">	<g>		<g>							<ellipse transform="matrix(0.1539 -0.9881 0.9881 0.1539 -23.6537 49.9275)" class="aK-cls-16" cx="17.3" cy="38.8" rx="12.7" ry="12.7" data-color-action="stroke" style="stroke:inherit" />			<line class="aK-cls-16" x1="10.3" y1="29.2" x2="24.3" y2="48.4" data-color-action="stroke" style="stroke:inherit" />		</g>		<text transform="matrix(1 0 0 1 6.7031 43.357)" class="aK-cls-17 aK-cls-18">NA</text>	</g></g><g id="aK_braces" style="">	<g>		<g>							<rect x="24" y="18.8" transform="matrix(-1 -4.489399e-11 4.489399e-11 -1 61.379 55.8721)" class="aK-cls-25" width="13.5" height="18.2" />							<rect x="24" y="18.8" transform="matrix(-1 -4.489399e-11 4.489399e-11 -1 61.379 38.3631)" class="aK-cls-30" width="13.5" height="0.7" data-color-action="fill" style="fill:inherit" />							<rect x="24" y="26.4" transform="matrix(-1 -4.489399e-11 4.489399e-11 -1 61.379 54.2187)" class="aK-cls-30" width="13.5" height="1.4" data-color-action="fill" style="fill:inherit" />							<rect x="24" y="36.1" transform="matrix(-1 -4.489399e-11 4.489399e-11 -1 61.379 73.1707)" class="aK-cls-31" width="13.5" height="0.9" data-color-action="fill" style="fill:inherit" />			<g>				<g>					<g>						<path class="aK-cls-32" d="M34.1,37h3.1c0.3,0,0.5-0.2,0.5-0.5v-7c0-0.3-0.2-0.5-0.5-0.5h-3.1c-0.3,0-0.5,0.2-0.5,0.5v7        C33.6,36.8,33.8,37,34.1,37z" data-color-action="fill" style="fill:inherit" />						<path class="aK-cls-21" d="M34.1,37h3.1c0.3,0,0.5-0.2,0.5-0.5v-5.8c-0.7-0.1-1.3-0.2-2-0.2c-0.7,0-1.4,0.1-2.1,0.2v5.8        C33.6,36.8,33.8,37,34.1,37z" data-color-action="fill" style="fill:inherit" />						<path class="aK-cls-25" d="M33.9,35.6v1.1c0,0.1,0.1,0.2,0.2,0.2h3.1c0.1,0,0.2-0.1,0.2-0.2v-1.1H33.9z" />					</g>					<g>						<path class="aK-cls-32" d="M24.2,37h3.1c0.3,0,0.5-0.2,0.5-0.5v-7c0-0.3-0.2-0.5-0.5-0.5h-3.1c-0.3,0-0.5,0.2-0.5,0.5v7        C23.7,36.8,23.9,37,24.2,37z" data-color-action="fill" style="fill:inherit" />						<path class="aK-cls-21" d="M24.2,37h3.1c0.3,0,0.5-0.2,0.5-0.5v-5.8c-0.7-0.1-1.3-0.2-2-0.2c-0.7,0-1.4,0.1-2.1,0.2v5.8        C23.7,36.8,23.9,37,24.2,37z" data-color-action="fill" style="fill:inherit" />						<path class="aK-cls-25" d="M24,35.6v1.1c0,0.1,0.1,0.2,0.2,0.2h3.1c0.1,0,0.2-0.1,0.2-0.2v-1.1H24z" />					</g>				</g>				<g>					<g>						<path class="aK-cls-32" d="M34.1,26.7h3.1c0.3,0,0.5-0.2,0.5-0.5v-7c0-0.3-0.2-0.5-0.5-0.5h-3.1c-0.3,0-0.5,0.2-0.5,0.5v7        C33.6,26.5,33.8,26.7,34.1,26.7z" data-color-action="fill" style="fill:inherit" />						<path class="aK-cls-21" d="M34.1,26.7h3.1c0.3,0,0.5-0.2,0.5-0.5v-5.8c-0.7-0.1-1.3-0.2-2-0.2c-0.7,0-1.4,0.1-2.1,0.2v5.8        C33.6,26.5,33.8,26.7,34.1,26.7z" data-color-action="fill" style="fill:inherit" />						<path class="aK-cls-25" d="M33.9,25.3v1.1c0,0.1,0.1,0.2,0.2,0.2h3.1c0.1,0,0.2-0.1,0.2-0.2v-1.1H33.9z" />					</g>					<g>						<path class="aK-cls-32" d="M24.2,26.7h3.1c0.3,0,0.5-0.2,0.5-0.5v-7c0-0.3-0.2-0.5-0.5-0.5h-3.1c-0.3,0-0.5,0.2-0.5,0.5v7        C23.7,26.5,23.9,26.7,24.2,26.7z" data-color-action="fill" style="fill:inherit" />						<path class="aK-cls-21" d="M24.2,26.7h3.1c0.3,0,0.5-0.2,0.5-0.5v-5.8c-0.7-0.1-1.3-0.2-2-0.2c-0.7,0-1.4,0.1-2.1,0.2v5.8        C23.7,26.5,23.9,26.7,24.2,26.7z" data-color-action="fill" style="fill:inherit" />						<path class="aK-cls-25" d="M24,25.3v1.1c0,0.1,0.1,0.2,0.2,0.2h3.1c0.1,0,0.2-0.1,0.2-0.2v-1.1H24z" />					</g>				</g>			</g>		</g>		<g>							<rect x="9.6" y="27.2" transform="matrix(-1 -4.490154e-11 4.490154e-11 -1 61.3691 55.7893)" class="aK-cls-21" width="42.2" height="1.4" data-color-action="fill" style="fill:inherit" />							<rect x="9.6" y="27.2" transform="matrix(-1 -4.490154e-11 4.490154e-11 -1 61.3691 54.5874)" class="aK-cls-32" width="42.2" height="0.2" data-color-action="fill" style="fill:inherit" />							<rect x="9.6" y="28" transform="matrix(-1 -4.490154e-11 4.490154e-11 -1 61.3691 56.4404)" class="aK-cls-25" width="42.2" height="0.4" />		</g>	</g></g><g id="aK_apicoectomy" style="">	<g>		<g>							<ellipse transform="matrix(0.1539 -0.9881 0.9881 0.1539 -23.6537 49.9275)" class="aK-cls-16" cx="17.3" cy="38.8" rx="12.7" ry="12.7" data-color-action="stroke" style="stroke:inherit" />			<line class="aK-cls-16" x1="10.3" y1="29.2" x2="24.3" y2="48.4" data-color-action="stroke" style="stroke:inherit" />		</g>		<text transform="matrix(1 0 0 1 6.7031 43.357)" class="aK-cls-17 aK-cls-18">NA</text>	</g></g><g id="aK_abscess" style="">	<circle class="aK-cls-20" cx="29.5" cy="91.1" r="6.1" data-color-action="fill" style="fill:inherit" /></g><g id="aK_blunted_roots" style="">	<g>		<g>							<ellipse transform="matrix(0.1539 -0.9881 0.9881 0.1539 -23.6537 49.9275)" class="aK-cls-16" cx="17.3" cy="38.8" rx="12.7" ry="12.7" data-color-action="stroke" style="stroke:inherit" />			<line class="aK-cls-16" x1="10.3" y1="29.2" x2="24.3" y2="48.4" data-color-action="stroke" style="stroke:inherit" />		</g>		<text transform="matrix(1 0 0 1 6.7031 43.357)" class="aK-cls-17 aK-cls-18">NA</text>	</g></g><g id="aK_root_amputation" style="">	<g>		<g>							<ellipse transform="matrix(0.1539 -0.9881 0.9881 0.1539 -23.6537 49.9275)" class="aK-cls-16" cx="17.3" cy="38.8" rx="12.7" ry="12.7" data-color-action="stroke" style="stroke:inherit" />			<line class="aK-cls-16" x1="10.3" y1="29.2" x2="24.3" y2="48.4" data-color-action="stroke" style="stroke:inherit" />		</g>		<text transform="matrix(1 0 0 1 6.7031 43.357)" class="aK-cls-17 aK-cls-18">NA</text>	</g><g id="root_amputation_2">	<g>		<g>							<ellipse transform="matrix(0.1539 -0.9881 0.9881 0.1539 -23.6537 49.9275)" class="aK-cls-16" cx="17.3" cy="38.8" rx="12.7" ry="12.7" data-color-action="stroke" style="stroke:inherit" />			<line class="aK-cls-16" x1="10.3" y1="29.2" x2="24.3" y2="48.4" data-color-action="stroke" style="stroke:inherit" />		</g>		<text transform="matrix(1 0 0 1 6.7031 43.357)" class="aK-cls-17 aK-cls-18">NA</text>	</g></g><g id="root_amputation_1">	<g>		<g>							<ellipse transform="matrix(0.1539 -0.9881 0.9881 0.1539 -23.6537 49.9275)" class="aK-cls-16" cx="17.3" cy="38.8" rx="12.7" ry="12.7" data-color-action="stroke" style="stroke:inherit" />			<line class="aK-cls-16" x1="10.3" y1="29.2" x2="24.3" y2="48.4" data-color-action="stroke" style="stroke:inherit" />		</g>		<text transform="matrix(1 0 0 1 6.7031 43.357)" class="aK-cls-17 aK-cls-18">NA</text>	</g></g></g><g id="aK_missing_crown" style="">	<g>		<g>							<ellipse transform="matrix(0.1539 -0.9881 0.9881 0.1539 -23.6537 49.9275)" class="aK-cls-16" cx="17.3" cy="38.8" rx="12.7" ry="12.7" data-color-action="stroke" style="stroke:inherit" />			<line class="aK-cls-16" x1="10.3" y1="29.2" x2="24.3" y2="48.4" data-color-action="stroke" style="stroke:inherit" />		</g>		<text transform="matrix(1 0 0 1 6.7031 43.357)" class="aK-cls-17 aK-cls-18">NA</text>	</g></g><g id="aK_missing_tooth" style="" data-name="missing tooth">	<g>		<path class="aK-cls-5" d="M6.2,58c0.4-8,4.9-14.9,6.9-18.7c0-0.1,0-0.2,0-0.3c0.5-3-2.1-10.1-2.5-13.1c-0.7-5-1-9.5,6.4-10.4    c4.5-0.5,5.7-0.6,6.9-0.2c1.2,0.4,2.2,0.4,3.6-0.4c1-0.6,2.1-1,5-1.1c1.6-0.1,4.2,0.1,5.7,0.8c0.6,0.3,0.9,0.2,1.7-0.1    c1.3-0.6,5.4-0.7,6.5-0.4c4,1,4.6,3.3,4.7,5.3c0.2,2.8-1,9.9-1.7,12.3c-0.7,2.4-0.1,5.5,0.2,6.5c0,0.1,0,0.1-0.1,0.2    c3.2,11.7,4.6,24.2,1.7,33.9c-0.1,0.5-0.3,0.9-0.4,1.3l0,0c-0.6,1.6-1.7,3.6-3,5.6c-2.8,4.4-6.6,8.8-8.2,8.4    c-2.3-0.5,0-10.2,0.7-16.5c0.7-6.3-4.6-17.2-11-17.8C22.9,52.8,16.9,67.7,17,74.6c0.1,6.9,0.7,13.1-2,13.6    C12.6,88.7,5.5,71.9,6.2,58z" data-color-action="fill,stroke" style="fill,stroke:inherit" />		<path class="aK-cls-26" d="M6.2,58c0.5-9.7,7-17.8,7.8-20.7c2-7.2,30.2-11.8,35-0.7h0c0.1,0.3,0.3,0.7,0.4,1    c3.3,11.9,4.9,24.7,1.9,34.6c-0.1,0.5-0.3,0.9-0.4,1.3l0,0c-0.6,1.6-1.7,3.6-3,5.6c-2.8,4.4-6.6,8.8-8.2,8.4    c-2.3-0.5,0-10.2,0.7-16.5c0.7-6.3-4.6-17.2-11-17.8C22.9,52.8,16.9,67.7,17,74.6c0.1,6.9,0.7,13.1-2,13.6    C12.6,88.7,5.5,71.9,6.2,58z" />		<path class="aK-cls-26" d="M13.7,38c-1.1,3.3-7.1,10.9-7.6,20c-0.4,8.9,2.4,19.1,5,25c-0.6-2.2-1.4-5.7-1.8-8.2    C7.9,66.3,7.7,62.3,8,57.2c0.3-5.1,6.6-14.5,7.2-17.3C15.4,39.2,14.6,38.5,13.7,38z" />		<path class="aK-cls-26" d="M42.4,68.5c0.2-5.9-3.3-12-5.5-14.4c-2.7-3-6.7-4-9.4-2.9c-3.4,1.4-7.4,5.5-8.6,8.9    c-1.3,3.4-2.9,8.3-2.8,14.7c0,2,0.7,4.6,1.1,6.7c0-2.1-0.1-4.4-0.1-6.8c-0.1-6.9,5.9-21.8,12.3-21.3c6.4,0.5,11.7,11.5,11,17.8    c-0.4,3.8-1.4,8.7-1.6,12.2c0.1-0.2,0.2-0.3,0.3-0.5C40.8,79,42.2,73,42.4,68.5z" />		<path class="aK-cls-26" d="M49.3,37.7c-0.1-0.4-0.2-0.7-0.4-1l-2.7,1.2c0,0,1.3,3.7,2.1,7c0.8,3.3,2.4,8,2.7,14.5    c0.3,5.9-0.9,12.9-2.1,16.5c-0.4,1.2-0.9,2.6-1.5,3.9c1.4-2.2,2.7-4.4,3.4-6.2C54.4,63.5,52.8,50.1,49.3,37.7z" />		<path class="aK-cls-26" d="M38.7,40.2c0.7,3.2,5.7,10.8,5.7,21.7s-3.2,21.6-2.4,22s3.9-11.4,5.2-17.6c2-10.2-1.9-20.9-4-26    S38.2,37.8,38.7,40.2z" />		<path class="aK-cls-26" d="M13.1,39c0.5-3-2.1-10.1-2.5-13.1c-0.7-5-1-9.5,6.4-10.4c4.5-0.5,5.7-0.6,6.9-0.2c1.2,0.4,2.2,0.4,3.6-0.4    c1-0.6,2.1-1,5-1.1c1.6-0.1,4.2,0.1,5.7,0.8c0.6,0.3,0.9,0.2,1.7-0.1c1.3-0.6,5.4-0.7,6.5-0.4c4,1,4.6,3.3,4.7,5.3    c0.2,2.8-1,9.9-1.7,12.3s-0.1,5.5,0.2,6.5s-9.1,3-17.7,3.1C23.3,41.3,12.6,41.7,13.1,39z" />		<path class="aK-cls-26" d="M16.5,15.6c-2.6,2.8-2.7,7.8-2.7,10.8c-0.1,3.1,2,10.6,2,14.4c-1.8-0.3-2.9-0.9-2.7-1.8    c0.5-3-2.1-10.1-2.5-13.1C9.8,20.9,9.6,16.6,16.5,15.6z" />		<path class="aK-cls-26" d="M24.4,17.2c-1.1,0.3-0.1,3-0.1,4.7c0,1.7-0.6,4.9,0,4.7c0.6-0.2,1.1-3.2,1.5-4.7    C26.2,20.3,26.9,16.5,24.4,17.2z" />		<path class="aK-cls-26" d="M15.1,85c0.5-0.3-1.4-7.9-0.5-15.6c1-8.9,4.5-16.6,3.9-16.9c-0.5-0.3-4,6.4-4.7,8.9c-1,3.4-1.7,9-1,14.1    C13.4,80.6,14.4,85.4,15.1,85z" />		<path class="aK-cls-26" d="M46.4,32.9c0.6-2.7,1.6-10.6,1.4-13.7c-0.1-1.9-1.3-3.9-3-5.2c0.6,0,1.2,0.1,1.5,0.1c4,1,4.6,3.3,4.7,5.3    c0.2,2.8-1,9.9-1.7,12.3c-0.7,2.4-0.1,5.5,0.2,6.5c0.1,0.4-1,0.9-3,1.4C46,37.5,46,34.6,46.4,32.9z" />		<path class="aK-cls-26" d="M38.2,40.9c-0.3-2.9-0.4-7.6,0.1-9.8c0.7-3,1.8-10.9,1.4-13.3c-0.2-1.1-0.6-2.2-1-3c0.3,0,0.6,0,1.2-0.3    c0.5-0.2,1.4-0.4,2.3-0.5c0.5,0.8,1,1.9,1.2,2.7c1,4.6-0.2,11.6-1,14.5c-0.6,2.2-0.6,5.9,0.1,9C41.2,40.5,39.7,40.7,38.2,40.9z" />	</g></g><g id="aK_extracted_tooth" data-name="extracted tooth" style=""><g class="aK-msng-cls-12"><line class="aK-msng-cls-13" x1="9" y1="10.51" x2="50.67" y2="52.17" data-color-action="stroke" style="stroke:inherit" /><line class="aK-msng-cls-13" x1="50.67" y1="10.51" x2="9" y2="52.17" data-color-action="stroke" style="stroke:inherit" /></g></g><g id="aK_denture" style="">	<g>		<g>							<ellipse transform="matrix(0.1539 -0.9881 0.9881 0.1539 -23.6537 49.9275)" class="aK-cls-16" cx="17.3" cy="38.8" rx="12.7" ry="12.7" data-color-action="stroke" style="stroke:inherit" />			<line class="aK-cls-16" x1="10.3" y1="29.2" x2="24.3" y2="48.4" data-color-action="stroke" style="stroke:inherit" />		</g>		<text transform="matrix(1 0 0 1 6.7031 43.357)" class="aK-cls-17 aK-cls-18">NA</text>	</g></g><g id="aK_maryland_bridge_pontic" style="">	<g>		<g>							<ellipse transform="matrix(0.1539 -0.9881 0.9881 0.1539 -23.6537 49.9275)" class="aK-cls-16" cx="17.3" cy="38.8" rx="12.7" ry="12.7" data-color-action="stroke" style="stroke:inherit" />			<line class="aK-cls-16" x1="10.3" y1="29.2" x2="24.3" y2="48.4" data-color-action="stroke" style="stroke:inherit" />		</g>		<text transform="matrix(1 0 0 1 6.7031 43.357)" class="aK-cls-17 aK-cls-18">NA</text>	</g></g><g id="aK_maryland_bridge_abutment_mesial" style="">	<g>		<g>							<ellipse transform="matrix(0.1539 -0.9881 0.9881 0.1539 -23.6537 49.9275)" class="aK-cls-16" cx="17.3" cy="38.8" rx="12.7" ry="12.7" data-color-action="stroke" style="stroke:inherit" />			<line class="aK-cls-16" x1="10.3" y1="29.2" x2="24.3" y2="48.4" data-color-action="stroke" style="stroke:inherit" />		</g>		<text transform="matrix(1 0 0 1 6.7031 43.357)" class="aK-cls-17 aK-cls-18">NA</text>	</g></g><g id="aK_maryland_bridge_abutment_distal" style="">	<g>		<g>							<ellipse transform="matrix(0.1539 -0.9881 0.9881 0.1539 -23.6537 49.9275)" class="aK-cls-16" cx="17.3" cy="38.8" rx="12.7" ry="12.7" data-color-action="stroke" style="stroke:inherit" />			<line class="aK-cls-16" x1="10.3" y1="29.2" x2="24.3" y2="48.4" data-color-action="stroke" style="stroke:inherit" />		</g>		<text transform="matrix(1 0 0 1 6.7031 43.357)" class="aK-cls-17 aK-cls-18">NA</text>	</g></g><g id="aK_maryland_bridge_abutment" style="">	<g>		<g>							<ellipse transform="matrix(0.1539 -0.9881 0.9881 0.1539 -23.6537 49.9275)" class="aK-cls-16" cx="17.3" cy="38.8" rx="12.7" ry="12.7" data-color-action="stroke" style="stroke:inherit" />			<line class="aK-cls-16" x1="10.3" y1="29.2" x2="24.3" y2="48.4" data-color-action="stroke" style="stroke:inherit" />		</g>		<text transform="matrix(1 0 0 1 6.7031 43.357)" class="aK-cls-17 aK-cls-18">NA</text>	</g></g><g id="aK_bridge_abutment_mesial" style="">	<g>		<g>							<ellipse transform="matrix(0.1539 -0.9881 0.9881 0.1539 -23.6537 49.9275)" class="aK-cls-16" cx="17.3" cy="38.8" rx="12.7" ry="12.7" data-color-action="stroke" style="stroke:inherit" />			<line class="aK-cls-16" x1="10.3" y1="29.2" x2="24.3" y2="48.4" data-color-action="stroke" style="stroke:inherit" />		</g>		<text transform="matrix(1 0 0 1 6.7031 43.357)" class="aK-cls-17 aK-cls-18">NA</text>	</g></g><g id="aK_bridge_abutment_distal" style="">	<g>		<g>							<ellipse transform="matrix(0.1539 -0.9881 0.9881 0.1539 -23.6537 49.9275)" class="aK-cls-16" cx="17.3" cy="38.8" rx="12.7" ry="12.7" data-color-action="stroke" style="stroke:inherit" />			<line class="aK-cls-16" x1="10.3" y1="29.2" x2="24.3" y2="48.4" data-color-action="stroke" style="stroke:inherit" />		</g>		<text transform="matrix(1 0 0 1 6.7031 43.357)" class="aK-cls-17 aK-cls-18">NA</text>	</g></g><g id="aK_bridge_abutment" style="">	<g>		<g>							<ellipse transform="matrix(0.1539 -0.9881 0.9881 0.1539 -23.6537 49.9275)" class="aK-cls-16" cx="17.3" cy="38.8" rx="12.7" ry="12.7" data-color-action="stroke" style="stroke:inherit" />			<line class="aK-cls-16" x1="10.3" y1="29.2" x2="24.3" y2="48.4" data-color-action="stroke" style="stroke:inherit" />		</g>		<text transform="matrix(1 0 0 1 6.7031 43.357)" class="aK-cls-17 aK-cls-18">NA</text>	</g></g><g id="aK_bridge_pontic" style="">	<g>		<g>							<ellipse transform="matrix(0.1539 -0.9881 0.9881 0.1539 -23.6537 49.9275)" class="aK-cls-16" cx="17.3" cy="38.8" rx="12.7" ry="12.7" data-color-action="stroke" style="stroke:inherit" />			<line class="aK-cls-16" x1="10.3" y1="29.2" x2="24.3" y2="48.4" data-color-action="stroke" style="stroke:inherit" />		</g>		<text transform="matrix(1 0 0 1 6.7031 43.357)" class="aK-cls-17 aK-cls-18">NA</text>	</g></g><g id="aK_implant_mini" style="">	<g>		<g>							<ellipse transform="matrix(0.1539 -0.9881 0.9881 0.1539 -23.6537 49.9275)" class="aK-cls-16" cx="17.3" cy="38.8" rx="12.7" ry="12.7" data-color-action="stroke" style="stroke:inherit" />			<line class="aK-cls-16" x1="10.3" y1="29.2" x2="24.3" y2="48.4" data-color-action="stroke" style="stroke:inherit" />		</g>		<text transform="matrix(1 0 0 1 6.7031 43.357)" class="aK-cls-17 aK-cls-18">NA</text>	</g></g><g id="aK_implant_cylinder" style="">	<g>		<g>							<ellipse transform="matrix(0.1539 -0.9881 0.9881 0.1539 -23.6537 49.9275)" class="aK-cls-16" cx="17.3" cy="38.8" rx="12.7" ry="12.7" data-color-action="stroke" style="stroke:inherit" />			<line class="aK-cls-16" x1="10.3" y1="29.2" x2="24.3" y2="48.4" data-color-action="stroke" style="stroke:inherit" />		</g>		<text transform="matrix(1 0 0 1 6.7031 43.357)" class="aK-cls-17 aK-cls-18">NA</text>	</g></g><g id="aK_implant_blade" style="">	<g>		<g>							<ellipse transform="matrix(0.1539 -0.9881 0.9881 0.1539 -23.6537 49.9275)" class="aK-cls-16" cx="17.3" cy="38.8" rx="12.7" ry="12.7" data-color-action="stroke" style="stroke:inherit" />			<line class="aK-cls-16" x1="10.3" y1="29.2" x2="24.3" y2="48.4" data-color-action="stroke" style="stroke:inherit" />		</g>		<text transform="matrix(1 0 0 1 6.7031 43.357)" class="aK-cls-17 aK-cls-18">NA</text>	</g></g><g id="aK_watch_tooth" style="">	<g>		<path class="aK-cls-15" d="M8.3,153.9c0-1.8,1.4-3.3,3.2-3.3c1.8,0,3.3,1.5,3.3,3.3c0,1.7-1.5,3.2-3.3,3.2    C9.7,157.1,8.3,155.6,8.3,153.9z M9.2,148l-0.8-18.1h6.2L13.7,148H9.2z" data-color-action="fill" style="fill:inherit" />	</g></g><g id="aK_border" style="">	<rect transform="matrix(-1 8.977784e-11 -8.977784e-11 -1 59 161)" class="aK-cls-19" width="59" height="161" /></g></defs></g><g class="bK-cls-1" transform="translate(0 66)"><g id="_Kb">	<g>		<path class="bK-cls-2" d="M10.5,12.8c-1,2.1-1.7,7.7-0.8,9.5c0.8,1.8,2.5,2.2,1.5,3C10.1,26.2,9.4,28,9.4,30s-0.2,6.7,1.3,8.5    c1.5,1.8,4.2,4.7,5,5.7c0.8,1,6.1,1.8,10.9,1.8s12.4,0.2,13.9-0.6s6.5-5.5,7.8-8.1c1.3-2.6,1.7-10.1,1.3-11.8    c-0.4-1.6-2.1-3.2-1.9-4.3c0.2-1,0.4-6.1-0.4-8.3c-0.8-2.2-3.6-3-6.7-3c-4.4,0-8.6,0-9.5,0.6c-0.8,0.6-2.5,0.2-4,0.2    C25.6,10.8,12.4,8.7,10.5,12.8z" />		<path class="bK-cls-3" d="M10.5,12.8c-1,2.1-1.7,7.7-0.8,9.5c0.8,1.8,2.5,2.2,1.5,3C10.1,26.2,9.4,28,9.4,30s-0.2,6.7,1.3,8.5    c1.5,1.8,4.2,4.7,5,5.7c0.8,1,6.1,1.8,10.9,1.8s12.4,0.2,13.9-0.6s6.5-5.5,7.8-8.1c1.3-2.6,1.7-10.1,1.3-11.8    c-0.4-1.6-2.1-3.2-1.9-4.3c0.2-1,0.4-6.1-0.4-8.3c-0.8-2.2-3.6-3-6.7-3c-4.4,0-8.6,0-9.5,0.6c-0.8,0.6-2.5,0.2-4,0.2    C25.6,10.8,12.4,8.7,10.5,12.8z" />		<path class="bK-cls-4" d="M21.2,26.9c0.3,0.7,4.3-0.1,5.4,1c1.1,1-2.8,6.4-1.6,6.4c1.3,0,2.4-6.2,6.6-6.6c1.7-0.2,2.8,0.1,3.9,1.1    c1.1,1,3.3,5,3.7,4.3c0.4-0.6-1.6-3.7-2.5-5c-0.8-1.2,4-1.6,3.6-2.4c-0.4-0.8-5,0.6-6.5,0.2s-1.3-7.3-2.5-6.9    c-1.3,0.4,0.2,4.9-1.3,5.7C28.6,25.5,20.8,25.9,21.2,26.9z" />		<path class="bK-cls-5" d="M12.4,25.4c0.2-0.8-2-3.9-1.8-5.5c0.2-1.6,1.2-5.1,2-5.9c0.8-0.8,4.4-1.5,7-1.7s5.8-0.6,8.2,0.1    c1.6,0.4,2.3,0.7,3.3,0.2c1.3-0.7,3.1-0.9,6.2-1.1c3.1-0.2,6.6-1.1,7.6,1.3c1,2.4,2,4.5,2,6.3c0,1.8,0,3.9,2.4,5.7    c0,0,0.1,0,0.1,0c-0.6-1.4-1.8-2.6-1.6-3.5c0.2-1,0.4-6.1-0.4-8.3c-0.8-2.2-3.6-3-6.7-3c-4.4,0-8.6,0-9.5,0.6    c-0.8,0.6-2.5,0.2-4,0.2c-1.5,0-14.7-2-16.6,2c-1,2.1-1.7,7.7-0.8,9.5c0.8,1.8,2.5,2.2,1.5,3c-0.8,0.6-1.3,1.7-1.5,3    C10.6,27.2,12.2,26,12.4,25.4z" />		<path class="bK-cls-6" d="M14.4,41.7c1.4,0.8,3.1,1,4.5,0.9c2.4-0.2,3.4-1,4.8-0.6s2.7,1.9,6.1,2.6c3.5,0.7,6.8-1,7.5-1.4    c1.4-0.9,2.4-2.4,5.4-2.5c1.5,0,2.9-0.6,4.1-1.3c-2,2.5-5.2,5.3-6.3,5.9c-1.5,0.8-9,0.6-13.9,0.6s-10.1-0.8-10.9-1.8    c-0.8-1-3.6-3.9-5-5.7c0,0,0,0,0,0C11.8,39.7,13.3,41.2,14.4,41.7z" />	</g></g><defs><g id="bK_cusp_1" style="">	<path class="bK-cls-7" d="M27.3,32.3l-5.8,13.4c-2.9-0.3-5.3-0.9-5.8-1.5c-0.8-1-3.6-3.9-5-5.7c-0.3-0.4-0.5-0.9-0.7-1.4l15.1-6.2   C25.7,31.5,26.5,32,27.3,32.3z" data-color-action="fill" style="fill:inherit" /></g><g id="bK_groove_1" style="">	<path class="bK-cls-7" d="M29.1,32.6c0.2,0,0.5,0,0.7,0L35.4,46c-2.8,0.1-6.2,0-8.8,0c-1.7,0-3.5-0.1-5.1-0.3l5.8-13.4   C27.9,32.5,28.5,32.6,29.1,32.6z" data-color-action="fill" style="fill:inherit" /></g><g id="bK_cusp_2" style="">	<path class="bK-cls-7" d="M32.4,31.4l15,7.4c-1.9,2.6-5.6,6-6.9,6.7c-0.7,0.4-2.7,0.5-5.1,0.6l-5.7-13.5C30.7,32.4,31.7,32,32.4,31.4z" data-color-action="fill" style="fill:inherit" /></g><g id="bK_mesial" style="">	<path class="bK-cls-7" d="M9.6,35.4c-0.3-2-0.2-4.2-0.2-5.4c0-2,0.6-3.9,1.7-4.7c1.1-0.8-0.6-1.2-1.5-3c-0.5-1.1-0.5-3.7-0.1-6   c1.8,2.3,4.5,6.1,4.5,10.2C14.1,29.9,11.7,33,9.6,35.4z" data-color-action="fill" style="fill:inherit" /></g><g id="bK_mesial_pit" style="">	<path class="bK-cls-7" d="M25.5,21.9c-1.3,1.1-2.1,2.8-2.1,4.7c0,1.7,0.7,3.2,1.7,4.3L10,37.1c-0.2-0.5-0.3-1.1-0.4-1.7   c2-2.5,4.5-5.5,4.5-8.9c-0.1-4.1-2.7-7.9-4.5-10.2c0.1-0.3,0.1-0.7,0.2-1L25.5,21.9z" data-color-action="fill" style="fill:inherit" /></g><g id="bK_central_pit" style="">	<path class="bK-cls-7" d="M34.7,26.6c0,2-0.9,3.7-2.3,4.8c-0.8,0.6-1.7,1-2.7,1.2c-0.2,0-0.4,0-0.7,0c-0.6,0-1.2-0.1-1.7-0.3   c-0.8-0.3-1.6-0.8-2.2-1.4c-1.1-1.1-1.7-2.6-1.7-4.3c0-1.9,0.8-3.6,2.1-4.7c0.7-0.6,1.5-1,2.4-1.2c0.4-0.1,0.8-0.1,1.2-0.1   c0.5,0,0.9,0.1,1.3,0.2c0.9,0.2,1.7,0.7,2.4,1.4v0C34,23.2,34.7,24.8,34.7,26.6z" data-color-action="fill" style="fill:inherit" /></g><g id="bK_distal_pit" style="">	<path class="bK-cls-7" d="M34.7,26.6c0-1.8-0.7-3.4-1.9-4.5l14.9-6.9c0.2,1.4,0.2,3,0.1,4.2c-1.3,2.2-2.5,4.9-2.6,7.5   c-0.2,2.9,1.5,6.7,3.3,9.9c-0.1,0.2-0.1,0.3-0.2,0.5c-0.2,0.4-0.5,0.9-0.9,1.4l-15-7.4C33.8,30.3,34.7,28.5,34.7,26.6z" data-color-action="fill" style="fill:inherit" /></g><g id="bK_distal" style="">	<path class="bK-cls-7" d="M47.8,19.4c0,0.9-0.1,1.6-0.2,1.9c-0.2,1,1.5,2.6,1.9,4.3c0.4,1.5,0,8.3-1.1,11.3c-1.8-3.3-3.4-7-3.3-9.9   C45.4,24.3,46.6,21.6,47.8,19.4z" data-color-action="fill" style="fill:inherit" /></g><g id="bK_cusp_3" style="">	<path class="bK-cls-7" d="M25.5,21.9L9.7,15.3c0.2-1,0.5-1.9,0.7-2.5c1.3-2.8,8.2-2.7,12.7-2.4l4.7,10.2C27,20.9,26.2,21.3,25.5,21.9z" data-color-action="fill" style="fill:inherit" /></g><g id="bK_groove_2" style="">	<path class="bK-cls-7" d="M29.1,20.5c-0.4,0-0.8,0-1.2,0.1l-4.7-10.2c1.9,0.1,3.4,0.3,3.9,0.3c1.5,0,3.2,0.4,4-0.2   c0.4-0.3,1.7-0.5,3.5-0.5l-4.2,10.7C30,20.6,29.5,20.5,29.1,20.5z" data-color-action="fill" style="fill:inherit" /></g><g id="bK_cusp_4" style="">	<path class="bK-cls-7" d="M30.4,20.7L34.6,10c1.7-0.1,3.8-0.1,6-0.1c3.2,0,5.9,0.8,6.7,3c0.2,0.6,0.4,1.4,0.5,2.2l-14.9,6.9   C32.1,21.4,31.3,21,30.4,20.7z" data-color-action="fill" style="fill:inherit" /></g><g id="bK_tipped_lingual" style=""></g><g id="bK_tipped_facial" style=""></g><g id="bK_surface_restoration_buccal" style="">	<path class="bK-cls-8" d="M14.4,36.8c0.8,0.9,1.7,2,2.6,2.9c0.5,0.6,1,1.1,1.4,1.5c1.2,0.4,4.4,0.9,8.3,0.9c0.8,0,1.6,0,2.5,0   c0.9,0,1.9,0,2.9,0c4.4,0,6.1-0.2,6.7-0.3c0.8-0.6,2.6-2.2,4-3.7l2.8,2.8c-1.9,2-4.2,4-5.1,4.5c-1.5,0.8-9,0.6-13.9,0.6   s-10.1-0.8-10.9-1.8c-0.8-1-3.4-3.7-4.9-5.5L14.4,36.8z" data-color-action="fill" style="fill:inherit" /></g><g id="bK_surface_restoration_mesial" style="">	<path class="bK-cls-8" d="M13.3,20.7c0.1,0.1,0.2,0.3,0.4,0.5c0.6,0.6,1.8,1.9,1.7,4c-0.1,0.7-0.4,2.1-1.7,3.2c-0.1,0.2-0.3,0.8-0.3,1.6   l0,0.7c0,2.9,0.1,4.7,0.4,5.4c0.2,0.2,0.4,0.4,0.5,0.6l-3.6,2c-0.1-0.1-0.1-0.1-0.2-0.2c-1.5-1.8-1.3-6.5-1.3-8.5   c0-2,0.6-3.9,1.7-4.7c1.1-0.8-0.6-1.2-1.5-3c-0.8-1.8-0.1-7.4,0.8-9.5c0.1-0.3,0.3-0.5,0.6-0.8l2.9,3   C13.5,16.5,13.1,19.6,13.3,20.7z" data-color-action="fill" style="fill:inherit" /></g><g id="bK_surface_restoration_occlusal" style="">	<path class="bK-cls-8" d="M18.9,14.2c2.4,0,4.9,0.2,6.3,0.4c0.9,0.1,1.4,0.1,1.8,0.1c0.3,0,0.7,0,1,0.1c0.5,0,1,0.1,1.5,0.1   c0.5,0,1.9,0,3.2-0.7c1.3-0.2,5.1-0.2,7.7-0.2c1.9,0,2.8,0.4,3,0.5c0.4,1.2,0.4,4.9,0.2,6c-0.4,2.1,0.6,3.8,1.3,5   c0.2,0.3,0.5,0.8,0.6,1c0.2,1.6-0.3,7.6-1,9.1c-0.7,1.6-4.5,5.2-5.9,6.2c-0.6,0.1-2.3,0.3-6.7,0.3c-1,0-2,0-2.9,0   c-0.9,0-1.7,0-2.5,0c-3.9,0-7.1-0.5-8.3-0.9c-0.4-0.4-0.8-0.9-1.4-1.5c-1-1.1-2.3-2.5-3.1-3.5c-0.3-0.7-0.5-2.5-0.4-5.4l0-0.7   c0-0.8,0.2-1.4,0.3-1.6c1.4-1.1,1.7-2.5,1.7-3.2c0.2-2-1.1-3.3-1.7-4c-0.2-0.2-0.3-0.4-0.4-0.5c-0.2-1.1,0.1-4.4,0.6-5.9   C14.4,14.7,15.8,14.2,18.9,14.2z" data-color-action="fill" style="fill:inherit" /></g><g id="bK_surface_restoration_distal" style="">	<path class="bK-cls-8" d="M44.7,35.6c0.7-1.5,1.2-7.4,1-9.1c-0.1-0.2-0.4-0.7-0.6-1c-0.7-1.2-1.8-2.9-1.3-5c0.2-1.1,0.2-4.8-0.2-6   c0,0,0,0,0,0l2.9-2.8c0.4,0.4,0.7,0.8,0.9,1.3c0.8,2.2,0.6,7.3,0.4,8.3c-0.2,1,1.5,2.6,1.9,4.3c0.4,1.6,0,9.1-1.3,11.8   c-0.5,1-1.5,2.3-2.7,3.6l-2.8-2.8C43.7,37.1,44.4,36.2,44.7,35.6z" data-color-action="fill" style="fill:inherit" /></g><g id="bK_surface_restoration_lingual" style="">	<path class="bK-cls-8" d="M40.5,13.9c-2.6,0-6.4,0-7.7,0.2c-1.3,0.7-2.7,0.7-3.2,0.7c-0.5,0-1,0-1.5-0.1c-0.3,0-0.7-0.1-1-0.1   c-0.4,0-0.9,0-1.8-0.1c-1.5-0.1-3.9-0.4-6.3-0.4c-3.1,0-4.5,0.4-5,0.6c0,0,0,0.1,0,0.1l-2.9-3c3.1-3,14.7-1.3,16-1.3   c1.5,0,3.2,0.4,4-0.2c0.8-0.6,5-0.6,9.5-0.6c2.4,0,4.6,0.5,5.9,1.7l-2.9,2.8C43.3,14.3,42.4,13.9,40.5,13.9z" data-color-action="fill" style="fill:inherit" /></g><g id="bK_sub-erupted" style="">	<rect x="28" y="51.8" transform="matrix(-1 -4.486867e-11 4.486867e-11 -1 59 106.5032)" class="bK-cls-9" width="3" height="3" />	<rect x="28" y="51.8" transform="matrix(-1 -4.486867e-11 4.486867e-11 -1 59 106.5032)" class="bK-cls-9" width="3" height="3" />	<rect x="28" y="51.8" transform="matrix(-1 -4.486867e-11 4.486867e-11 -1 59 106.5032)" class="bK-cls-9" width="3" height="3" /></g><g id="bK_sealant" style="">	<text transform="matrix(1 0 0 1 19.699 39.47)" class="bK-cls-10 bK-cls-11 bK-cls-12" data-color-action="fill" style="fill:inherit">S</text></g><g id="bK_rotated_mesial" style=""></g><g id="bK_rotated_distal" style=""></g><g id="bK_root_canal" style="">	<rect x="28" y="51.8" transform="matrix(-1 -4.486867e-11 4.486867e-11 -1 59 106.5032)" class="bK-cls-9" width="3" height="3" />	<rect x="28" y="51.8" transform="matrix(-1 -4.486867e-11 4.486867e-11 -1 59 106.5032)" class="bK-cls-9" width="3" height="3" />	<rect x="28" y="51.8" transform="matrix(-1 -4.486867e-11 4.486867e-11 -1 59 106.5032)" class="bK-cls-9" width="3" height="3" /></g><g id="bK_pins" style="">	<rect x="28" y="51.8" transform="matrix(-1 -4.486867e-11 4.486867e-11 -1 59 106.5032)" class="bK-cls-9" width="3" height="3" />	<rect x="28" y="51.8" transform="matrix(-1 -4.486867e-11 4.486867e-11 -1 59 106.5032)" class="bK-cls-9" width="3" height="3" />	<rect x="28" y="51.8" transform="matrix(-1 -4.486867e-11 4.486867e-11 -1 59 106.5032)" class="bK-cls-9" width="3" height="3" /></g><g id="bK_mesial_drift" style=""></g><g id="bK_distal_drift" style=""></g><g id="bK_crown" style="">	<path class="bK-cls-14" d="M10.5,12.8c-1,2.1-1.7,7.7-0.8,9.5c0.8,1.8,2.5,2.2,1.5,3C10.1,26.2,9.4,28,9.4,30s-0.2,6.7,1.3,8.5   c1.5,1.8,4.2,4.7,5,5.7c0.8,1,6.1,1.8,10.9,1.8s12.4,0.2,13.9-0.6s6.5-5.5,7.8-8.1c1.3-2.6,1.7-10.1,1.3-11.8   c-0.4-1.6-2.1-3.2-1.9-4.3c0.2-1,0.4-6.1-0.4-8.3c-0.8-2.2-3.6-3-6.7-3c-4.4,0-8.6,0-9.5,0.6c-0.8,0.6-2.5,0.2-4,0.2   C25.6,10.8,12.4,8.7,10.5,12.8z" data-color-action="fill" style="fill:inherit" /></g><g id="bK_cracked_surface_occlusal" style="">	<polyline class="bK-cls-15" points="30.8,32.2 27,28.3 32,28.3 27,23.6 32,23.6 28.2,19.8  " data-color-action="stroke" style="stroke:inherit" /></g><g id="bK_chipped_surface_occlusal" style="">	<g>		<line class="bK-cls-15" x1="33.3" y1="30.5" x2="25" y2="22.2" data-color-action="stroke" style="stroke:inherit" />		<line class="bK-cls-15" x1="25" y1="30.5" x2="33.3" y2="22.2" data-color-action="stroke" style="stroke:inherit" />	</g></g><g id="bK_abscess" style="">	<rect x="28" y="51.8" transform="matrix(-1 -4.486867e-11 4.486867e-11 -1 59 106.5032)" class="bK-cls-9" width="3" height="3" />	<rect x="28" y="51.8" transform="matrix(-1 -4.486867e-11 4.486867e-11 -1 59 106.5032)" class="bK-cls-9" width="3" height="3" />	<rect x="28" y="51.8" transform="matrix(-1 -4.486867e-11 4.486867e-11 -1 59 106.5032)" class="bK-cls-9" width="3" height="3" /></g><g id="bK_missing_tooth" style="" data-name="missing tooth">	<g>		<path class="bK-cls-2" d="M10.5,12.8c-1,2.1-1.7,7.7-0.8,9.5c0.8,1.8,2.5,2.2,1.5,3C10.1,26.2,9.4,28,9.4,30s-0.2,6.7,1.3,8.5    c1.5,1.8,4.2,4.7,5,5.7c0.8,1,6.1,1.8,10.9,1.8s12.4,0.2,13.9-0.6s6.5-5.5,7.8-8.1c1.3-2.6,1.7-10.1,1.3-11.8    c-0.4-1.6-2.1-3.2-1.9-4.3c0.2-1,0.4-6.1-0.4-8.3c-0.8-2.2-3.6-3-6.7-3c-4.4,0-8.6,0-9.5,0.6c-0.8,0.6-2.5,0.2-4,0.2    C25.6,10.8,12.4,8.7,10.5,12.8z" />		<path class="bK-cls-13" d="M10.5,12.8c-1,2.1-1.7,7.7-0.8,9.5c0.8,1.8,2.5,2.2,1.5,3C10.1,26.2,9.4,28,9.4,30s-0.2,6.7,1.3,8.5    c1.5,1.8,4.2,4.7,5,5.7c0.8,1,6.1,1.8,10.9,1.8s12.4,0.2,13.9-0.6s6.5-5.5,7.8-8.1c1.3-2.6,1.7-10.1,1.3-11.8    c-0.4-1.6-2.1-3.2-1.9-4.3c0.2-1,0.4-6.1-0.4-8.3c-0.8-2.2-3.6-3-6.7-3c-4.4,0-8.6,0-9.5,0.6c-0.8,0.6-2.5,0.2-4,0.2    C25.6,10.8,12.4,8.7,10.5,12.8z" />		<path class="bK-cls-13" d="M21.2,26.9c0.3,0.7,4.3-0.1,5.4,1c1.1,1-2.8,6.4-1.6,6.4c1.3,0,2.4-6.2,6.6-6.6c1.7-0.2,2.8,0.1,3.9,1.1    c1.1,1,3.3,5,3.7,4.3c0.4-0.6-1.6-3.7-2.5-5c-0.8-1.2,4-1.6,3.6-2.4c-0.4-0.8-5,0.6-6.5,0.2s-1.3-7.3-2.5-6.9    c-1.3,0.4,0.2,4.9-1.3,5.7C28.6,25.5,20.8,25.9,21.2,26.9z" />		<path class="bK-cls-13" d="M12.4,25.4c0.2-0.8-2-3.9-1.8-5.5c0.2-1.6,1.2-5.1,2-5.9c0.8-0.8,4.4-1.5,7-1.7s5.8-0.6,8.2,0.1    c1.6,0.4,2.3,0.7,3.3,0.2c1.3-0.7,3.1-0.9,6.2-1.1c3.1-0.2,6.6-1.1,7.6,1.3c1,2.4,2,4.5,2,6.3c0,1.8,0,3.9,2.4,5.7    c0,0,0.1,0,0.1,0c-0.6-1.4-1.8-2.6-1.6-3.5c0.2-1,0.4-6.1-0.4-8.3c-0.8-2.2-3.6-3-6.7-3c-4.4,0-8.6,0-9.5,0.6    c-0.8,0.6-2.5,0.2-4,0.2c-1.5,0-14.7-2-16.6,2c-1,2.1-1.7,7.7-0.8,9.5c0.8,1.8,2.5,2.2,1.5,3c-0.8,0.6-1.3,1.7-1.5,3    C10.6,27.2,12.2,26,12.4,25.4z" />		<path class="bK-cls-13" d="M14.4,41.7c1.4,0.8,3.1,1,4.5,0.9c2.4-0.2,3.4-1,4.8-0.6s2.7,1.9,6.1,2.6c3.5,0.7,6.8-1,7.5-1.4    c1.4-0.9,2.4-2.4,5.4-2.5c1.5,0,2.9-0.6,4.1-1.3c-2,2.5-5.2,5.3-6.3,5.9c-1.5,0.8-9,0.6-13.9,0.6s-10.1-0.8-10.9-1.8    c-0.8-1-3.6-3.9-5-5.7c0,0,0,0,0,0C11.8,39.7,13.3,41.2,14.4,41.7z" />	</g></g><g id="bK_watch_tooth" style=""></g><g id="bK_border" style="">	<rect x="0" y="0" transform="matrix(-1 -4.488910e-11 4.488910e-11 -1 59 56)" class="bK-cls-9" width="59" height="56" />	<rect x="0" y="0" class="bK-cls-9" width="59" height="56" /></g></defs></g><g class="cK-cls-1"><g id="_Kc">	<g>		<g>			<path class="cK-cls-2" d="M11.9,29c0.5,3-2.1,10.1-2.5,13.1c-0.7,5-1,9.5,6.4,10.4c4.5,0.5,5.7,0.6,6.9,0.2c1.2-0.4,2.2-0.4,3.6,0.4     c1,0.6,2.1,1,5,1.1c1.6,0.1,4.2-0.1,5.7-0.8c0.6-0.3,0.9-0.2,1.7,0.1c1.3,0.6,5.4,0.7,6.5,0.4c4-1,4.6-3.3,4.7-5.3     c0.2-2.8-1-9.9-1.7-12.3c-0.7-2.4-0.1-5.5,0.2-6.5c0.3-1-9.1-3-17.7-3.1S11.4,26.3,11.9,29z" />		</g>		<g>			<path class="cK-cls-3" d="M11.9,29c0.5,3-2.1,10.1-2.5,13.1c-0.7,5-1,9.5,6.4,10.4c4.5,0.5,5.7,0.6,6.9,0.2c1.2-0.4,2.2-0.4,3.6,0.4     c1,0.6,2.1,1,5,1.1c1.6,0.1,4.2-0.1,5.7-0.8c0.6-0.3,0.9-0.2,1.7,0.1c1.3,0.6,5.4,0.7,6.5,0.4c4-1,4.6-3.3,4.7-5.3     c0.2-2.8-1-9.9-1.7-12.3c-0.7-2.4-0.1-5.5,0.2-6.5c0.3-1-9.1-3-17.7-3.1S11.4,26.3,11.9,29z" />		</g>		<path class="cK-cls-4" d="M38,49.9c1.2,0.1,1.5-1.3,1.4-1.8c-0.1-0.6-0.3-1.5-0.9-1.4s-0.9,0.8-1,1.6C37.4,49,37.1,49.9,38,49.9z" />		<path class="cK-cls-4" d="M23.8,49.2c-1.2,0.1-1.6-1.6-1.4-2.3c0.1-0.7,0.3-1.8,0.8-1.8s0.9,1,1.1,2C24.5,48,24.7,49.1,23.8,49.2z" />		<path class="cK-cls-5" d="M49.9,48.7c-0.2,2-0.7,4.3-4.7,5.3c-1.1,0.3-5.2,0.1-6.5-0.4c-0.8-0.4-1.1-0.4-1.7-0.1    c-1.6,0.7-4.1,0.9-5.7,0.8c-3-0.2-4-0.6-5-1.1c-1.4-0.8-2.4-0.8-3.6-0.4c-1.3,0.4-2.5,0.4-6.9-0.2c-6.4-0.8-7.1-4.2-6.7-8.4    c0.4,1.1,1,2.7,1.9,3.8c1.5,1.9,4.8,3.1,6.2,2.9c1.9-0.2,4.3,0,5.8-0.6c1.4-0.6,2.5,0.2,3.9,0.8c1.4,0.6,3.6,0.8,5.3,0.8    s3.8-0.4,5.1-1.1c1.3-0.7,2.2,0.4,3.5,0.6s3.4,0.6,6.1-0.2c1.6-0.5,2.6-2.3,3.1-4.2C50,47.6,50,48.2,49.9,48.7z" />		<path class="cK-cls-4" d="M30.4,29.6c-4.8,0-12.6-0.6-15.4,0.2c-1.5,0.4-2.5,0.9-3.1,1.2c0.1-0.8,0.1-1.5,0-2.1    c-0.5-2.7,10.2-2.3,18.9-2.2c8.6,0.1,18,2.1,17.7,3.1c-0.2,0.5-0.4,1.5-0.5,2.7c-0.7-0.7-1.8-1.4-3.7-1.7    C40,30.3,35.2,29.6,30.4,29.6z" />	</g></g><defs><g id="cK_mesial" style="">	<path class="cK-cls-6" d="M9.6,48.9l4.1-5.2c-0.3-1-0.2-2.4-0.3-3.4c-0.2-1.9-1-4.1-2.1-5.4c-0.7,2.8-1.6,5.6-1.8,7.3   C9,44.7,8.8,47,9.6,48.9z" data-color-action="fill" style="fill:inherit" /></g><g id="cK_line_angle_4" style="">	<path class="cK-cls-6" d="M15.8,52.5c2.8,0.3,4.4,0.5,5.4,0.4l1.5-6.2c-0.9,0.4-2.8,0.7-4.3,0.7c-3.8,0.1-4.1-1.4-4.7-3.7l-4.1,5.2   C10.3,50.7,12.1,52,15.8,52.5z" data-color-action="fill" style="fill:inherit" /></g><g id="cK_groove_2" style="">	<path class="cK-cls-6" d="M22.7,52.6c1.2-0.4,2.2-0.4,3.6,0.4c1,0.6,2.1,1,5,1.1c1.5,0.1,3.7-0.1,5.3-0.6l-1.5-6.3   c-2.5-1.1-3.9-2.2-6.3-2.1c-2.8,0.1-3.8,0.5-6.2,1.5l-1.5,6.2C21.8,52.9,22.3,52.8,22.7,52.6z" data-color-action="fill" style="fill:inherit" /></g><g id="cK_line_angle_3" style="">	<path class="cK-cls-6" d="M37.1,53.4c0.6-0.3,0.9-0.2,1.7,0.1c1.3,0.6,5.4,0.7,6.5,0.4c2.5-0.6,3.6-1.7,4.2-3l-4.3-6.6   c-1.2,2.3-2.8,3.8-5.2,3.8c-1.9,0-3.5-0.4-4.8-1l1.5,6.3C36.8,53.5,37,53.5,37.1,53.4z" data-color-action="fill" style="fill:inherit" /></g><g id="cK_distal" style="">	<path class="cK-cls-6" d="M47.1,39.1c-0.6,2-1.2,3.8-2,5.3l4.3,6.6c0.3-0.8,0.5-1.6,0.5-2.3c0.2-2.6-0.8-8.8-1.6-11.7   C47.8,37.5,47.4,38.2,47.1,39.1z" data-color-action="fill" style="fill:inherit" /></g><g id="cK_lingual_pit" style="">	<ellipse class="cK-cls-6" cx="29.3" cy="37.2" rx="3.9" ry="6.6" data-color-action="fill" style="fill:inherit" /></g><g id="cK_lingual_V" style="">	<path class="cK-cls-6" d="M39.4,27.4c-2.7-0.4-5.7-0.6-8.6-0.7c-4.2-0.1-8.9-0.2-12.6,0.1c3.4,1.4,7.1,2.2,10.9,2.3   C32.6,29.2,36.1,28.6,39.4,27.4z" data-color-action="fill" style="fill:inherit" /></g><g id="cK_tipped_lingual" style="">	<g>		<path class="cK-cls-7" d="M27.7,57.1c1.2,3.2,4.5,3.6,7.2-5c0.5-1.5,4.2-1.7,3.6,0c-1.9,5.7-5,9.6-8.5,8.7c-1.2-0.3-2.3-1.6-2.8-3.2    C27.4,57.5,27.6,57.3,27.7,57.1z" data-color-action="fill" style="fill:inherit" />		<polygon class="cK-cls-7" points="29.7,54.4 41.9,54.4 39.1,45.3   " data-color-action="fill" style="fill:inherit" />	</g></g><g id="cK_tipped_facial" style=""></g><g id="cK_surface_restoration_occlusal" style="">	<path class="cK-cls-8" d="M15.8,52.6c4.5,0.5,5.7,0.6,6.9,0.2c1.2-0.4,2.2-0.4,3.6,0.4c1,0.6,2.1,1,5,1.1c1.6,0.1,4.2-0.1,5.7-0.8   c0.6-0.3,0.9-0.2,1.7,0.1c1.3,0.6,5.4,0.7,6.5,0.4c1.3-0.3,2.2-0.8,2.9-1.3l-5.2-6.2c0,0.2,0,0.4,0.1,0.6c-0.8,0-1.4-0.1-1.8-0.1   c-0.9-0.4-2-0.7-3.4-0.7c-1.1,0-2.3,0.2-3.4,0.7c-0.2,0.1-1.1,0.2-2.2,0.2c-0.1,0-0.3,0-0.4,0c-1.5-0.1-1.9-0.2-1.9-0.2l0,0   c-1.9-1.1-3.7-1.6-5.6-1.6c-1.1,0-2.2,0.2-3.4,0.6h0c-0.8,0-2.5-0.2-4.1-0.4c-0.2,0-0.4-0.1-0.6-0.1c0-0.2,0-0.4,0-0.6L10,49.8   C11,51.2,12.7,52.2,15.8,52.6z" data-color-action="fill" style="fill:inherit" /></g><g id="cK_surface_restoration_mesial" style="">	<path class="cK-cls-8" d="M16.1,45c0-0.4,0.1-1,0.2-1.7c0.1-0.6,0.5-2.1,0.8-3.4c0.3-1,1-4.4,1.6-7.9c-1.7,3-4.7,5.1-8.3,5.6   c-0.5,1.9-1,3.6-1.1,4.7C9,45.2,8.7,47.9,10,49.8L16.1,45z" data-color-action="fill" style="fill:inherit" /></g><g id="cK_surface_restoration_lingual" style="">	<g>		<path class="cK-cls-8" d="M19.9,29.4c-0.3,0.9-0.6,1.7-1.1,2.5c-0.7,3.5-1.4,6.9-1.6,7.9c-0.4,1.3-0.8,2.8-0.8,3.4    c-0.2,1.1-0.2,1.8-0.3,2.3c0.2,0,0.4,0.1,0.6,0.1c1.6,0.2,3.3,0.4,4.1,0.4h0c1.2-0.4,2.3-0.6,3.4-0.6c1.9,0,3.7,0.5,5.6,1.6l0,0    c0,0,0.4,0.1,1.9,0.2c0.1,0,0.3,0,0.4,0c1.1,0,2-0.2,2.2-0.2c1.2-0.5,2.3-0.7,3.4-0.7c1.4,0,2.5,0.4,3.4,0.7    c0.3,0.1,1,0.1,1.8,0.1c-0.2-2.3-0.9-7-1.5-8.9c-0.1-0.5-0.2-2.8-0.3-5.6c-0.3-0.8-0.5-1.6-0.7-2.4c-2.8,1.8-6.1,2.8-9.7,2.8    C26.7,33.1,22.9,31.7,19.9,29.4z" data-color-action="fill" style="fill:inherit" />			</g></g><g id="cK_surface_restoration_lingual_V" style="">	<g>				<path class="cK-cls-8" d="M40.4,27.7c-2.9-0.4-6.3-0.8-9.6-0.8c-3.4,0-7.2-0.1-10.4,0c-0.1,0.9-0.2,1.8-0.5,2.6c3.1,2.3,6.9,3.7,11,3.7    c3.6,0,6.9-1,9.7-2.8c-0.1-0.6-0.2-1.2-0.2-1.9C40.4,28.2,40.4,27.9,40.4,27.7z" data-color-action="fill" style="fill:inherit" />	</g></g><g id="cK_surface_restoration_distal" style="">	<path class="cK-cls-8" d="M50,48.8c0.2-2-0.4-6.1-1-9.2c-3.5-0.9-6.4-3.5-7.7-6.8c0.1,2.8,0.2,5.1,0.3,5.6c0.5,1.7,1.2,5.8,1.4,8.2   l5.2,6.2C49.6,51.6,49.9,50.1,50,48.8z" data-color-action="fill" style="fill:inherit" /></g><g id="cK_sub-erupted" style=""></g><g id="cK_rotated_mesial" style=""></g><g id="cK_rotate_distal" style=""></g><g id="cK_root_canal" style=""></g><g id="cK_pins" style=""></g><g id="cK_mesial_drift" style=""></g><g id="cK_distal_drift" style=""></g><g id="cK_crown" style="">	<path class="cK-cls-10" d="M11.9,29c0.5,3-2.1,10.1-2.5,13.1c-0.7,5-1,9.5,6.4,10.4c4.5,0.5,5.7,0.6,6.9,0.2c1.2-0.4,2.2-0.4,3.6,0.4   c1,0.6,2.1,1,5,1.1c1.6,0.1,4.2-0.1,5.7-0.8c0.6-0.3,0.9-0.2,1.7,0.1c1.3,0.6,5.4,0.7,6.5,0.4c4-1,4.6-3.3,4.7-5.3   c0.2-2.8-1-9.9-1.7-12.3c-0.7-2.4-0.1-5.5,0.2-6.5c0.3-1-9.1-3-17.7-3.1S11.4,26.3,11.9,29z" data-color-action="fill" style="fill:inherit" /></g><g id="cK_cracked_surface_distal" style="">	<polyline class="cK-cls-11" points="46.2,46.2 42.3,42.4 47.3,42.4 42.3,37.6 47.3,37.6 43.5,33.8  " data-color-action="stroke" style="stroke:inherit" /></g><g id="cK_cracked_surface_lingual" style="">	<polyline class="cK-cls-11" points="31,46.2 27.2,42.4 32.2,42.4 27.2,37.6 32.2,37.6 28.3,33.8  " data-color-action="stroke" style="stroke:inherit" /></g><g id="cK_cracked_surface_lingual_V" style="">	<polyline class="cK-cls-11" points="31,46.2 27.2,42.4 32.2,42.4 27.2,37.6 32.2,37.6 28.3,33.8  " data-color-action="stroke" style="stroke:inherit" /></g><g id="cK_cracked_surface_mesial" style="">	<polyline class="cK-cls-11" points="15.2,46.2 11.3,42.4 16.3,42.4 11.3,37.6 16.3,37.6 12.5,33.8  " data-color-action="stroke" style="stroke:inherit" /></g><g id="cK_chipped_surface_distal" style="">	<g>		<line class="cK-cls-11" x1="40" y1="44.5" x2="48.3" y2="36.2" data-color-action="stroke" style="stroke:inherit" />		<line class="cK-cls-11" x1="48.3" y1="44.5" x2="40" y2="36.2" data-color-action="stroke" style="stroke:inherit" />	</g></g><g id="cK_chipped_surface_lingual" style="">	<g>		<line class="cK-cls-11" x1="25.8" y1="44.5" x2="34.2" y2="36.2" data-color-action="stroke" style="stroke:inherit" />		<line class="cK-cls-11" x1="34.2" y1="44.5" x2="25.8" y2="36.2" data-color-action="stroke" style="stroke:inherit" />	</g></g><g id="cK_chipped_surface_lingual_V" style="">	<g>		<line class="cK-cls-11" x1="25.8" y1="44.5" x2="34.2" y2="36.2" data-color-action="stroke" style="stroke:inherit" />		<line class="cK-cls-11" x1="34.2" y1="44.5" x2="25.8" y2="36.2" data-color-action="stroke" style="stroke:inherit" />	</g></g><g id="cK_chipped_surface_mesial" style="">	<g>		<line class="cK-cls-11" x1="10.8" y1="44.5" x2="19.2" y2="36.2" data-color-action="stroke" style="stroke:inherit" />		<line class="cK-cls-11" x1="19.2" y1="44.5" x2="10.8" y2="36.2" data-color-action="stroke" style="stroke:inherit" />	</g></g><g id="cK_abscess" style=""></g><g id="cK_missing_tooth" style="" data-name="missing tooth">	<g>		<g>			<path class="cK-cls-2" d="M11.9,29c0.5,3-2.1,10.1-2.5,13.1c-0.7,5-1,9.5,6.4,10.4c4.5,0.5,5.7,0.6,6.9,0.2c1.2-0.4,2.2-0.4,3.6,0.4     c1,0.6,2.1,1,5,1.1c1.6,0.1,4.2-0.1,5.7-0.8c0.6-0.3,0.9-0.2,1.7,0.1c1.3,0.6,5.4,0.7,6.5,0.4c4-1,4.6-3.3,4.7-5.3     c0.2-2.8-1-9.9-1.7-12.3c-0.7-2.4-0.1-5.5,0.2-6.5c0.3-1-9.1-3-17.7-3.1S11.4,26.3,11.9,29z" data-color-action="fill,stroke" style="fill,stroke:inherit" />		</g>		<g>			<path class="cK-cls-9" d="M11.9,29c0.5,3-2.1,10.1-2.5,13.1c-0.7,5-1,9.5,6.4,10.4c4.5,0.5,5.7,0.6,6.9,0.2c1.2-0.4,2.2-0.4,3.6,0.4     c1,0.6,2.1,1,5,1.1c1.6,0.1,4.2-0.1,5.7-0.8c0.6-0.3,0.9-0.2,1.7,0.1c1.3,0.6,5.4,0.7,6.5,0.4c4-1,4.6-3.3,4.7-5.3     c0.2-2.8-1-9.9-1.7-12.3c-0.7-2.4-0.1-5.5,0.2-6.5c0.3-1-9.1-3-17.7-3.1S11.4,26.3,11.9,29z" />		</g>		<path class="cK-cls-9" d="M38,49.9c1.2,0.1,1.5-1.3,1.4-1.8c-0.1-0.6-0.3-1.5-0.9-1.4s-0.9,0.8-1,1.6C37.4,49,37.1,49.9,38,49.9z" />		<path class="cK-cls-9" d="M23.8,49.2c-1.2,0.1-1.6-1.6-1.4-2.3c0.1-0.7,0.3-1.8,0.8-1.8s0.9,1,1.1,2C24.5,48,24.7,49.1,23.8,49.2z" />		<path class="cK-cls-9" d="M49.9,48.7c-0.2,2-0.7,4.3-4.7,5.3c-1.1,0.3-5.2,0.1-6.5-0.4c-0.8-0.4-1.1-0.4-1.7-0.1    c-1.6,0.7-4.1,0.9-5.7,0.8c-3-0.2-4-0.6-5-1.1c-1.4-0.8-2.4-0.8-3.6-0.4c-1.3,0.4-2.5,0.4-6.9-0.2c-6.4-0.8-7.1-4.2-6.7-8.4    c0.4,1.1,1,2.7,1.9,3.8c1.5,1.9,4.8,3.1,6.2,2.9c1.9-0.2,4.3,0,5.8-0.6c1.4-0.6,2.5,0.2,3.9,0.8c1.4,0.6,3.6,0.8,5.3,0.8    s3.8-0.4,5.1-1.1c1.3-0.7,2.2,0.4,3.5,0.6s3.4,0.6,6.1-0.2c1.6-0.5,2.6-2.3,3.1-4.2C50,47.6,50,48.2,49.9,48.7z" />		<path class="cK-cls-9" d="M30.4,29.6c-4.8,0-12.6-0.6-15.4,0.2c-1.5,0.4-2.5,0.9-3.1,1.2c0.1-0.8,0.1-1.5,0-2.1    c-0.5-2.7,10.2-2.3,18.9-2.2c8.6,0.1,18,2.1,17.7,3.1c-0.2,0.5-0.4,1.5-0.5,2.7c-0.7-0.7-1.8-1.4-3.7-1.7    C40,30.3,35.2,29.6,30.4,29.6z" />	</g></g><g id="cK_watch_tooth" style=""></g><g id="cK_border" style="">	<rect x="0" class="cK-cls-12" width="59" height="66" /></g></defs></g></svg>