<svg xmlns="http://www.w3.org/2000/svg" viewBox="0 0 59 283"><defs><style>.a28-cls-1{isolation:isolate}.a28-cls-2,.a28-cls-25{fill:#c5c7c9}.a28-cls-25{stroke:none}.a28-cls-2{stroke:#c5c7c9;stroke-width:5px}.a28-cls-19,.a28-cls-2,.a28-cls-22,.a28-cls-24,.a28-cls-26,.a28-cls-27,.a28-cls-30,.a28-cls-32,.a28-cls-33{stroke-miterlimit:10}.a28-cls-3{fill:#f5d7cf;stroke:none}.a28-cls-4,.a28-cls-5{fill:#f2c6bc;stroke:none}.a28-cls-5{fill:#fae8e3}.a28-cls-6,.a28-cls-7{fill:#eeefef;stroke:none}.a28-cls-7{fill:#e2e3e4}.a28-cls-8,.a28-cls-9{fill:#fbfbfb;stroke:none}.a28-cls-9{font-size:15px;fill:#929497;font-family:ProximaNova-Semibold,Proxima Nova,sans-serif;font-weight:700}.a28-cls-10,.a28-cls-28,.a28-cls-36{fill:#3c3d3d;stroke:none}.a28-cls-10{opacity:.55}.a28-cls-11{fill:#ffd403;stroke:none}.a28-cls-13,.a28-cls-21{fill:#ffef3e;stroke:none}.a28-cls-14,.a28-cls-20{fill:#c52636;stroke:none}.a28-cls-15{fill:none;stroke:none}.a28-cls-19,.a28-cls-22,.a28-cls-24,.a28-cls-26,.a28-cls-27,.a28-cls-30,.a28-cls-32,.a28-cls-33{fill:none}.a28-cls-16,.a28-cls-37{fill:#28418b;stroke:none}.a28-cls-17,.a28-cls-18{fill:#787878;stroke:none}.a28-cls-19,.a28-cls-22,.a28-cls-24,.a28-cls-30,.a28-cls-32,.a28-cls-33{stroke:#c52636}.a28-cls-19,.a28-cls-22,.a28-cls-27{stroke-width:2px}.a28-cls-22{stroke-linecap:round}.a28-cls-23{fill:#fff;stroke:none}.a28-cls-26,.a28-cls-27{stroke:#28418b}.a28-cls-26{stroke-width:3px}.a28-cls-29{opacity:.6}.a28-cls-30{stroke-width:4px}.a28-cls-31{fill:#f05b85;stroke:none}.a28-cls-32,.a28-cls-33{stroke-width:1.25px}.a28-cls-34{fill:#9b9999;stroke:none}.a28-cls-35{fill:#dbdbdc;stroke:none}.b28-cls-1{isolation:isolate}.b28-cls-2{fill:#c5c7c9;stroke:#c5c7c9;stroke-width:5px}.b28-cls-17,.b28-cls-18,.b28-cls-2{stroke-miterlimit:10}.b28-cls-3,.b28-cls-4{fill:#eeefef;stroke:none}.b28-cls-4{fill:#e2e3e4}.b28-cls-5,.b28-cls-6{fill:#fcfcfc;stroke:none}.b28-cls-6{fill:#e0e0e0}.b28-cls-15,.b28-cls-7{fill:#3c3d3d;stroke:none}.b28-cls-7{opacity:.55}.b28-cls-17,.b28-cls-18{fill:none}.b28-cls-8{fill:none;stroke:none}.b28-cls-14,.b28-cls-9{fill:#787878;stroke:none}.b28-cls-10{font-size:33px;fill:#28418b;font-family:ProximaNova-Semibold,Proxima Nova,sans-serif;font-weight:700;stroke:none}.b28-cls-11{fill:#fff;stroke:none}.b28-cls-13{fill:#c52636;stroke:none}.b28-cls-16{fill:#ffef3e;stroke:none}.b28-cls-17,.b28-cls-18{stroke:#c52636;stroke-width:1.25px}.c28-cls-1{isolation:isolate}.c28-cls-16,.c28-cls-2{fill:#c5c7c9;stroke:none}.c28-cls-2{stroke:#c5c7c9;stroke-width:5px}.c28-cls-2,.c28-cls-20,.c28-cls-21{stroke-miterlimit:10}.c28-cls-3{fill:#eeefef;stroke:none}.c28-cls-4,.c28-cls-5{fill:#e2e3e4;stroke:none}.c28-cls-5{fill:#fbfbfb}.c28-cls-17,.c28-cls-6{fill:#3c3d3d;stroke:none}.c28-cls-6{opacity:.55}.c28-cls-20,.c28-cls-21{fill:none}.c28-cls-7,.c28-cls-9{fill:none;stroke:none}.c28-cls-9{fill:#28418b}.c28-cls-10,.c28-cls-11{fill:#787878;stroke:none}.c28-cls-12,.c28-cls-19{fill:#ffef3e;stroke:none}.c28-cls-13{fill:#fff;stroke:none}.c28-cls-14,.c28-cls-15{fill:#c52636;stroke:none}.c28-cls-18{opacity:.6}.c28-cls-20,.c28-cls-21{stroke:#c52636;stroke-width:1.25px}.a28-msng-cls-1{isolation:isolate}.a28-msng-cls-2{fill:#c5c7c9;stroke:#c5c7c9;stroke-width:5px}.a28-msng-cls-11,.a28-msng-cls-2{stroke-miterlimit:10}.a28-msng-cls-3{fill:#f5d7cf;stroke:none}.a28-msng-cls-4{fill:#f2c6bc;stroke:none}.a28-msng-cls-5{fill:#fae8e3;stroke:none}.a28-msng-cls-6{fill:#eeefef;stroke:none}.a28-msng-cls-7{fill:#e2e3e4;stroke:none}.a28-msng-cls-8{fill:#fbfbfb;stroke:none}.a28-msng-cls-9{font-size:15px;fill:#929497;font-family:ProximaNova-Semibold,Proxima Nova;font-weight:700;stroke:none}.a28-msng-cls-11{fill:none}.a28-msng-cls-12{fill:none;stroke:none}.a28-msng-cls-11{stroke:#787878;stroke-width:6.25px}</style></defs><g class="a28-cls-1" transform="translate(0 122)"><g id="_28A" data-name="#28A"><path d="M31.75 9.08c1.92 0 9.09 5.64 12.55 9.09 2.57 2.57 1.08 7.85-.64 11.91-1.79 4.23-3.71 8.77-4.48 10.37a1.76 1.76 0 0 1-.49.6c0 4.93.67 17.15-.12 25.66C37 84 33 96.18 30.43 101.85c-2 4.29-3.7 2.1-3.82-3.08s-.8-21.7-1.36-31.07a243.21 243.21 0 0 0-3.72-27.47.55.55 0 0 1-.16-.16c-.64-1.28-2.06-5-3.07-7.43-1.28-3.07-5.12-10.25-5-12.29S29.83 9.08 31.75 9.08z" class="a28-cls-2"/><path d="M38.69 40c-.07 3.95.73 17.53-.12 26.75C37 84 33 96.18 30.43 101.85c-2 4.29-3.7 2.1-3.82-3.08s-.8-21.7-1.36-31.07c-.74-12.45-3.58-26.38-4.07-29.46S38.82 33.31 38.69 40z" class="a28-cls-3"/><path d="M37.08 55.48c0-8.25 0-12.19-.18-14.7a3.43 3.43 0 0 1 1.32-2.55 3.1 3.1 0 0 1 .47 1.77c-.07 3.95.73 17.53-.12 26.75a133.41 133.41 0 0 1-5.43 28c.78-3.82 1.62-8.35 2.14-12.14a241.83 241.83 0 0 0 1.8-27.13zM21.41 39.53l1.5.17s2 10 2.87 18.1S27.4 78.42 27 83.26c-.16 2.1-.45 4.61-.73 6.78-.27-7.04-.65-16.22-1.01-22.33-.67-11.17-3.01-23.52-3.85-28.18z" class="a28-cls-4"/><path d="M28.75 41.46c.54 2.9 1.17 3.8 1.75 18.85s-.58 40.32-1.75 40.32c-.46 0 .29-26.59-.29-34.92s-2.34-22.06-2.63-24.25 2.04-4.67 2.92 0z" class="a28-cls-5"/><path d="M39.18 40.46c.77-1.61 2.69-6.15 4.48-10.37 1.72-4.07 3.21-9.34.64-11.91-3.46-3.46-10.63-9.09-12.55-9.09S13.44 18.3 13.31 20.35s3.71 9.22 5 12.29c1 2.44 2.43 6.15 3.07 7.43s16.14 3.85 17.8.39z" class="a28-cls-6"/><path d="M40 32.09c1.63-4.75 3.32-11.37 1.54-14.82-.47-.91-1.05-1.95-1.7-3 1.67 1.36 3.26 2.77 4.42 3.94 2.57 2.57 1.08 7.85-.64 11.91-1.79 4.23-3.71 8.77-4.48 10.37a3.45 3.45 0 0 1-2.53 1.43c.8-2.15 2.12-6 3.39-9.83zM20.07 15c-1.87 2.3-3.2 4.29-3.16 5.17.11 2.66 3.62 11.31 4.74 14.74.62 1.88 1.39 4.36 2 6.08-1.25-.32-2.1-.66-2.23-.94-.64-1.28-2.06-5-3.07-7.43-1.28-3.07-5.12-10.25-5-12.29.02-.86 3.09-3.07 6.72-5.33z" class="a28-cls-7"/><path d="M26.9 11.16c0 3.66-.11 9.3.17 14.95A127.29 127.29 0 0 0 29.17 42c-.89-.09-1.76-.21-2.58-.35a125.94 125.94 0 0 1-3.29-15.88c-.27-3.14-.55-8.44-.63-12.3 1.46-.84 2.92-1.63 4.23-2.31z" class="a28-cls-8"/><text class="a28-cls-9" transform="translate(20.57 150.74)">28</text></g><defs><g id="a28_bone_graft" data-name="bone graft"><path d="M2 40.33h55v97.36H2z" class="a28-cls-16" transform="rotate(-180 29.5 89.01)" data-color-action="fill" style="fill:inherit"/><path d="M31.75 9.08c1.92 0 9.09 5.64 12.55 9.09 2.57 2.57 1.08 7.85-.64 11.91-1.79 4.23-3.71 8.77-4.48 10.37a1.76 1.76 0 0 1-.49.6c0 4.93.67 17.15-.12 25.66C37 84 33 96.18 30.43 101.85c-2 4.29-3.7 2.1-3.82-3.08s-.8-21.7-1.36-31.07a243.21 243.21 0 0 0-3.72-27.47.55.55 0 0 1-.16-.16c-.64-1.28-2.06-5-3.07-7.43-1.28-3.07-5.12-10.25-5-12.29S29.83 9.08 31.75 9.08z" class="a28-cls-2"/><path d="M38.69 40c-.07 3.95.73 17.53-.12 26.75C37 84 33 96.18 30.43 101.85c-2 4.29-3.7 2.1-3.82-3.08s-.8-21.7-1.36-31.07c-.74-12.45-3.58-26.38-4.07-29.46S38.82 33.31 38.69 40z" class="a28-cls-3"/><path d="M37.08 55.48c0-8.25 0-12.19-.18-14.7a3.43 3.43 0 0 1 1.32-2.55 3.1 3.1 0 0 1 .47 1.77c-.07 3.95.73 17.53-.12 26.75a133.41 133.41 0 0 1-5.43 28c.78-3.82 1.62-8.35 2.14-12.14a241.83 241.83 0 0 0 1.8-27.13zM21.41 39.53l1.5.17s2 10 2.87 18.1S27.4 78.42 27 83.26c-.16 2.1-.45 4.61-.73 6.78-.27-7.04-.65-16.22-1.01-22.33-.67-11.17-3.01-23.52-3.85-28.18z" class="a28-cls-4"/><path d="M28.75 41.46c.54 2.9 1.17 3.8 1.75 18.85s-.58 40.32-1.75 40.32c-.46 0 .29-26.59-.29-34.92s-2.34-22.06-2.63-24.25 2.04-4.67 2.92 0z" class="a28-cls-5"/><path d="M39.18 40.46c.77-1.61 2.69-6.15 4.48-10.37 1.72-4.07 3.21-9.34.64-11.91-3.46-3.46-10.63-9.09-12.55-9.09S13.44 18.3 13.31 20.35s3.71 9.22 5 12.29c1 2.44 2.43 6.15 3.07 7.43s16.14 3.85 17.8.39z" class="a28-cls-6"/><path d="M40 32.09c1.63-4.75 3.32-11.37 1.54-14.82-.47-.91-1.05-1.95-1.7-3 1.67 1.36 3.26 2.77 4.42 3.94 2.57 2.57 1.08 7.85-.64 11.91-1.79 4.23-3.71 8.77-4.48 10.37a3.45 3.45 0 0 1-2.53 1.43c.8-2.15 2.12-6 3.39-9.83zM20.07 15c-1.87 2.3-3.2 4.29-3.16 5.17.11 2.66 3.62 11.31 4.74 14.74.62 1.88 1.39 4.36 2 6.08-1.25-.32-2.1-.66-2.23-.94-.64-1.28-2.06-5-3.07-7.43-1.28-3.07-5.12-10.25-5-12.29.02-.86 3.09-3.07 6.72-5.33z" class="a28-cls-7"/><path d="M26.9 11.16c0 3.66-.11 9.3.17 14.95A127.29 127.29 0 0 0 29.17 42c-.89-.09-1.76-.21-2.58-.35a125.94 125.94 0 0 1-3.29-15.88c-.27-3.14-.55-8.44-.63-12.3 1.46-.84 2.92-1.63 4.23-2.31z" class="a28-cls-8"/></g><g id="a28_splinted_crowns" data-name="splinted crowns"><path d="M2 39.75h55v7.67H2z" class="a28-cls-21" data-color-action="fill" style="fill:inherit"/><path d="M31.75 9.08c1.92 0 9.09 5.64 12.55 9.09 2.57 2.57 1.08 7.85-.64 11.91-1.79 4.23-3.71 8.77-4.48 10.37a1.76 1.76 0 0 1-.49.6c0 4.93.67 17.15-.12 25.66C37 84 33 96.18 30.43 101.85c-2 4.29-3.7 2.1-3.82-3.08s-.8-21.7-1.36-31.07a243.21 243.21 0 0 0-3.72-27.47.55.55 0 0 1-.16-.16c-.64-1.28-2.06-5-3.07-7.43-1.28-3.07-5.12-10.25-5-12.29S29.83 9.08 31.75 9.08z" class="a28-cls-2"/><path d="M38.69 40c-.07 3.95.73 17.53-.12 26.75C37 84 33 96.18 30.43 101.85c-2 4.29-3.7 2.1-3.82-3.08s-.8-21.7-1.36-31.07c-.74-12.45-3.58-26.38-4.07-29.46S38.82 33.31 38.69 40z" class="a28-cls-3"/><path d="M37.08 55.48c0-8.25 0-12.19-.18-14.7a3.43 3.43 0 0 1 1.32-2.55 3.1 3.1 0 0 1 .47 1.77c-.07 3.95.73 17.53-.12 26.75a133.41 133.41 0 0 1-5.43 28c.78-3.82 1.62-8.35 2.14-12.14a241.83 241.83 0 0 0 1.8-27.13zM21.41 39.53l1.5.17s2 10 2.87 18.1S27.4 78.42 27 83.26c-.16 2.1-.45 4.61-.73 6.78-.27-7.04-.65-16.22-1.01-22.33-.67-11.17-3.01-23.52-3.85-28.18z" class="a28-cls-4"/><path d="M28.75 41.46c.54 2.9 1.17 3.8 1.75 18.85s-.58 40.32-1.75 40.32c-.46 0 .29-26.59-.29-34.92s-2.34-22.06-2.63-24.25 2.04-4.67 2.92 0z" class="a28-cls-5"/><path d="M39.18 40.46c.77-1.61 2.69-6.15 4.48-10.37 1.72-4.07 3.21-9.34.64-11.91-3.46-3.46-10.63-9.09-12.55-9.09S13.44 18.3 13.31 20.35s3.71 9.22 5 12.29c1 2.44 2.43 6.15 3.07 7.43s16.14 3.85 17.8.39z" class="a28-cls-6"/><path d="M40 32.09c1.63-4.75 3.32-11.37 1.54-14.82-.47-.91-1.05-1.95-1.7-3 1.67 1.36 3.26 2.77 4.42 3.94 2.57 2.57 1.08 7.85-.64 11.91-1.79 4.23-3.71 8.77-4.48 10.37a3.45 3.45 0 0 1-2.53 1.43c.8-2.15 2.12-6 3.39-9.83zM20.07 15c-1.87 2.3-3.2 4.29-3.16 5.17.11 2.66 3.62 11.31 4.74 14.74.62 1.88 1.39 4.36 2 6.08-1.25-.32-2.1-.66-2.23-.94-.64-1.28-2.06-5-3.07-7.43-1.28-3.07-5.12-10.25-5-12.29.02-.86 3.09-3.07 6.72-5.33z" class="a28-cls-7"/><path d="M26.9 11.16c0 3.66-.11 9.3.17 14.95A127.29 127.29 0 0 0 29.17 42c-.89-.09-1.76-.21-2.58-.35a125.94 125.94 0 0 1-3.29-15.88c-.27-3.14-.55-8.44-.63-12.3 1.46-.84 2.92-1.63 4.23-2.31z" class="a28-cls-8"/></g><path id="a28_buccal_V" d="M23.2 40.9c3.5 1 11 1.93 14.43.71a15.64 15.64 0 0 0-14.43-.71z" class="a28-cls-10" data-color-action="fill" style="fill:inherit" data-name="buccal V"/><ellipse id="a28_buccal" cx="30.24" cy="28.34" class="a28-cls-10" rx="3.96" ry="6.97" data-color-action="fill" style="fill:inherit"/><path id="a28_mesial" d="M45.42 20.14l-5.64 2.15c2.09 2 .21 6.17-.6 8.14-.33.81.29 2.29 3.34 2.35l1.14-2.69c1.34-3.21 2.57-7.16 1.76-9.95z" class="a28-cls-10" data-color-action="fill" style="fill:inherit"/><path id="a28_line_angle_2" d="M38.76 13.33l-2.14 6.41a27.59 27.59 0 0 1 3.14 2.51l5.64-2.15a4.48 4.48 0 0 0-1.11-2 66.15 66.15 0 0 0-5.53-4.77z" class="a28-cls-10" data-color-action="fill" style="fill:inherit" data-name="line angle 2"/><path id="a28_cusp_1" d="M31.75 9.08c-.86 0-4.64 1.86-8.56 4.1l1.45 5.74A20.14 20.14 0 0 1 31 17.75a10.16 10.16 0 0 1 5.61 2l2.14-6.41c-2.93-2.34-5.87-4.26-7-4.26z" class="a28-cls-10" data-color-action="fill" style="fill:inherit" data-name="cusp 1"/><path id="a28_line_angle_1" d="M13.53 19.87l6.78 2.53a4.3 4.3 0 0 1 .43-.9 7.8 7.8 0 0 1 3.9-2.58l-1.45-5.74c-4.24 2.42-8.64 5.28-9.66 6.69z" class="a28-cls-10" data-color-action="fill" style="fill:inherit" data-name="line angle 1"/><path id="a28_distal" d="M20.89 29.63c-.55-2-1.35-5.06-.57-7.23l-6.78-2.53a1 1 0 0 0-.22.48c-.13 1.92 3.22 8.3 4.68 11.65 1.88-.17 3.32-.84 2.89-2.37z" class="a28-cls-10" data-color-action="fill" style="fill:inherit"/><path id="a28_veneer" d="M39.18 40.46c.77-1.61 2.69-6.15 4.48-10.37 1.72-4.07 3.21-9.34.64-11.91-3.46-3.46-10.63-9.09-12.55-9.09S13.44 18.3 13.31 20.35s3.71 9.22 5 12.29c1 2.44 2.43 6.15 3.07 7.43s16.14 3.85 17.8.39z" class="a28-cls-12 a28-cls-13" data-color-action="fill" style="fill:inherit"/><path id="a28_tissue_graft" d="M47.97 56.34L30.5 42.45 13.03 56.34h34.94z" class="a28-cls-14" data-color-action="fill" style="fill:inherit" data-name="tissue graft"/><path id="a28_tipped_lingual" d="M28 154.75h3v3h-3z" class="a28-cls-15" data-name="tipped lingual"/><g id="a28_tipped_facial" class="a28-cls-12" data-name="tipped facial"><path d="M25.85 5.5c1.26-3.37 4.74-3.85 7.69 5.32.5 1.56 4.42 1.76 3.84 0-2-6.08-5.31-10.2-9.06-9.27a4.86 4.86 0 0 0-3 3.38c.19.17.42.42.53.57z" class="a28-cls-16" data-color-action="fill" style="fill:inherit"/><path d="M27.93 8.42h12.94l-2.94 9.64-10-9.64z" class="a28-cls-16" data-color-action="fill" style="fill:inherit"/></g><path id="a28_surface_restoration_mesial" d="M35.91 37.09c1.29-6.43 2.73-14.2 2.76-14.63-.48-.45-1-.91-1.5-1.36l5.29-4.66c.68.61 1.31 1.2 1.84 1.73 2.57 2.57 1.08 7.85-.64 11.91L42.84 32a11.5 11.5 0 0 0-6.93 5.09z" class="a28-cls-17" data-color-action="fill" style="fill:inherit" data-name="surface restoration mesial"/><path id="a28_surface_restoration_buccal" d="M26.73 38.53a11.41 11.41 0 0 0-1.53-3c-1.68-5.84-3.55-12.3-3.87-13l.93-.6.4-.25c2.81-1.77 6.46-3.84 8.82-5a62.44 62.44 0 0 1 5.69 4.43c.52.45 1 .91 1.5 1.36 0 .43-1.47 8.2-2.76 14.63a11.55 11.55 0 0 0-.91 1.8 12.57 12.57 0 0 0-8.29-.38z" class="a28-cls-12 a28-cls-18" data-color-action="fill" style="fill:inherit" data-name="surface restoration buccal"/><path id="a28_surface_restoration_buccal_V" d="M27.31 41.73a11.5 11.5 0 0 0-.58-3.21 12.57 12.57 0 0 1 8.27.38 11.33 11.33 0 0 0-.8 3.25 38 38 0 0 1-6.89-.42z" class="a28-cls-12 a28-cls-18" data-color-action="fill" style="fill:inherit" data-name="surface restoration buccal V"/><path id="a28_surface_restoration_distal" d="M21.34 22.51c.31.71 2.19 7.16 3.87 13a11.48 11.48 0 0 0-7.73-4.72c-1.63-3.49-4.27-8.74-4.16-10.45 0-.64 1.69-2 4-3.55l5.36 4.86-.4.25z" class="a28-cls-17" data-color-action="fill" style="fill:inherit" data-name="surface restoration distal"/><path id="a28_surface_restoration_occlusal" d="M31.75 9.08c1.62 0 7 4 10.71 7.36l-5.29 4.66a62.43 62.43 0 0 0-5.69-4.43c-2.35 1.15-6 3.22-8.81 5l-5.36-4.87c5.01-3.39 13.13-7.72 14.44-7.72z" class="a28-cls-17" data-color-action="fill" style="fill:inherit" data-name="surface restoration occlusal"/><g id="a28_supra-erupted" class="a28-cls-12"><path d="M30.5 49.12v7.67" class="a28-cls-19" data-color-action="stroke" style="stroke:inherit"/><path d="M26.51 50.28l3.99-6.9 3.99 6.9h-7.98z" class="a28-cls-20" data-color-action="fill" style="fill:inherit"/></g><g id="a28_sub-erupted" class="a28-cls-12"><path d="M30.5 51.05v-7.67" class="a28-cls-19" data-color-action="stroke" style="stroke:inherit"/><path d="M34.49 49.88l-3.99 6.91-3.99-6.91h7.98z" class="a28-cls-20" data-color-action="fill" style="fill:inherit"/></g><path id="a28_sealant" d="M28 154.75h3v3h-3z" class="a28-cls-15"/><g id="a28_rotated_mesial" class="a28-cls-12" data-name="rotated mesial"><path d="M5.87 32.82C2.88 31 3.56 27.36 16.1 27c5.3-.15 8.95 0 8.95 0L25 24s-1-.07-8.22.24c-7.62.32-14 1.83-13.75 6a4 4 0 0 0 2.31 2.92c.15-.16.4-.27.53-.34z" class="a28-cls-16" data-color-action="fill" style="fill:inherit"/><path d="M18.57 31.53V19.64l10.4 5.9-10.4 5.99z" class="a28-cls-16" data-color-action="fill" style="fill:inherit"/></g><g id="a28_rotated_distal" class="a28-cls-12" data-name="rotated distal"><path d="M53.13 32.82c3-1.79 2.3-5.46-10.23-5.81-5.3-.15-8.95 0-8.95 0L34 24s1-.07 8.22.24c7.62.32 14 1.83 13.75 6a4 4 0 0 1-2.31 2.92c-.15-.16-.4-.27-.53-.34z" class="a28-cls-16" data-color-action="fill" style="fill:inherit"/><path d="M40.43 31.53V19.64l-10.4 5.9 10.4 5.99z" class="a28-cls-16" data-color-action="fill" style="fill:inherit"/></g><circle id="a28_root_decay" cx="31.08" cy="85.25" r="4.33" class="a28-cls-12 a28-cls-18" data-color-action="fill" style="fill:inherit" data-name="root decay"/><path id="a28_root_canal" d="M29 98.5l2.67-54.17" class="a28-cls-22" data-color-action="stroke" style="stroke:inherit" data-name="root canal"/><path id="a28_root_abrasion" d="M28.83 79.5h3.5v13.83h-3.5z" class="a28-cls-12 a28-cls-24" data-color-action="stroke" style="stroke:inherit" data-name="root abrasion"/><g id="a28_post"><path d="M29.5 23.83h3.14V65.6H29.5z" class="a28-cls-18" data-color-action="fill" style="fill:inherit"/><path d="M30.37 23.83h.47V65.6h-.47z" class="a28-cls-25"/></g><g id="a28_pins"><path d="M27.33 30.84h2.42v23.43h-2.42z" class="a28-cls-18" data-color-action="fill" style="fill:inherit"/><path d="M27.99 30.84h.36v23.43h-.36z" class="a28-cls-25"/><path d="M31.91 30.84h2.42v23.43h-2.42z" class="a28-cls-18" data-color-action="fill" style="fill:inherit"/><path d="M32.57 30.84h.36v23.43h-.36z" class="a28-cls-25"/></g><path id="a28_open_contact_mesial" d="M33.69 49l7.5-4.75 7.5 4.75" class="a28-cls-26" data-color-action="stroke" style="stroke:inherit" data-name="open contact mesial"/><path id="a28_open_contact_distal" d="M14.68 49l7.5-4.75L29.67 49" class="a28-cls-26" data-color-action="stroke" style="stroke:inherit" data-name="open contact distal"/><g id="a28_mesial_drift" class="a28-cls-12" data-name="mesial drift"><path d="M32.59 27.84H20.67" class="a28-cls-27" data-color-action="stroke" style="stroke:inherit"/><path d="M31.43 23.85l6.9 3.99-6.9 3.98v-7.97z" class="a28-cls-16" data-color-action="fill" style="fill:inherit"/></g><path id="a28_lingual_abfraction" d="M28 154.75h3v3h-3z" class="a28-cls-15" data-name="lingual abfraction"/><ellipse id="a28_internal_root_resorption" cx="30.7" cy="82.9" class="a28-cls-12 a28-cls-20" rx="7.9" ry="3.19" transform="rotate(-86.81 30.695 82.895)" data-color-action="fill" style="fill:inherit" data-name="internal root resorption"/><g id="a28_impacted_mesial" class="a28-cls-12" data-name="impacted mesial"><ellipse cx="29.5" cy="57.29" class="a28-cls-27" rx="20.72" ry="55.88" data-color-action="stroke" style="stroke:inherit"/><path d="M18.9 57.29H8.76" class="a28-cls-27" data-color-action="stroke" style="stroke:inherit"/><path d="M17.73 53.3l6.91 3.98-6.91 3.99V53.3z" class="a28-cls-16" data-color-action="fill" style="fill:inherit"/></g><g id="a28_impacted_distal" class="a28-cls-12" data-name="impacted distal"><ellipse cx="29.49" cy="57.29" class="a28-cls-27" rx="20.72" ry="55.88" data-color-action="stroke" style="stroke:inherit"/><path d="M40.09 57.29h10.13" class="a28-cls-27" data-color-action="stroke" style="stroke:inherit"/><path d="M41.26 61.27l-6.91-3.99 6.91-3.98v7.97z" class="a28-cls-16" data-color-action="fill" style="fill:inherit"/></g><path id="a28_gortex_membranes" d="M2 39.75h55v16.42H2z" class="a28-cls-14" data-color-action="fill" style="fill:inherit" data-name="gortex membranes"/><path id="a28_frenum_pull" d="M20.51 43.41l10.66 6.75 10.65-6.75" class="a28-cls-30" data-color-action="stroke" style="stroke:inherit" data-name="frenum pull"/><path id="a28_external_root_resorption" d="M33 78.27a10.64 10.64 0 0 0 2.53 7.8 142.27 142.27 0 0 0 2.65-15.67A9.39 9.39 0 0 0 33 78.27zm-7.6-8.72c.27 4.88.56 11.13.8 16.72 1.54-.93 4.15-3.36 3.52-8.91-.55-4.47-2.66-6.71-4.36-7.81z" class="a28-cls-12 a28-cls-20" data-color-action="fill" style="fill:inherit" data-name="external root resorption"/><g id="a28_distal_drift" class="a28-cls-12" data-name="distal drift"><path d="M26.41 27.84h11.92" class="a28-cls-27" data-color-action="stroke" style="stroke:inherit"/><path d="M27.57 31.82l-6.9-3.98 6.9-3.99v7.97z" class="a28-cls-16" data-color-action="fill" style="fill:inherit"/></g><path id="a28_three_quarter_crown" d="M44.71 27.33c1.14-3.46 1.62-7.14-.4-9.16-3.46-3.46-10.63-9.09-12.55-9.09S13.44 18.3 13.31 20.35c-.07 1.19 1.2 4.13 2.53 7z" class="a28-cls-12 a28-cls-13" data-color-action="fill" style="fill:inherit" data-name="three quarter crown"/><path id="a28_crown" d="M39.18 40.46c.77-1.61 2.69-6.15 4.48-10.37 1.72-4.07 3.21-9.34.64-11.91-3.46-3.46-10.63-9.09-12.55-9.09S13.44 18.3 13.31 20.35s3.71 9.22 5 12.29c1 2.44 2.43 6.15 3.07 7.43s16.14 3.85 17.8.39z" class="a28-cls-12 a28-cls-13" data-color-action="fill" style="fill:inherit"/><path id="a28_cracked_surface_distal" d="M17.66 30.17l-3.83-3.83h5.01l-5.01-4.75h5.01l-3.83-3.82" class="a28-cls-32" data-color-action="stroke" style="stroke:inherit" data-name="cracked surface distal"/><path id="a28_cracked_surface_buccal" d="M30.83 30.17L27 26.34h5l-5-4.75h5l-3.83-3.82" class="a28-cls-32" data-color-action="stroke" style="stroke:inherit" data-name="cracked surface buccal"/><path id="a28_cracked_surface_buccal_V" d="M30.83 30.17L27 26.34h5l-5-4.75h5l-3.83-3.82" class="a28-cls-32" data-color-action="stroke" style="stroke:inherit" data-name="cracked surface buccal V"/><path id="a28_cracked_surface_mesial" d="M45.66 30.17l-3.83-3.83h5l-5-4.75h5L43 17.77" class="a28-cls-32" data-color-action="stroke" style="stroke:inherit" data-name="cracked surface mesial"/><g id="a28_chipped_surface_distal" class="a28-cls-12" data-name="chipped surface distal"><path d="M21.17 28.5l-8.33-8.33M12.84 28.5l8.33-8.33" class="a28-cls-33" data-color-action="stroke" style="stroke:inherit"/></g><g id="a28_chipped_surface_buccal" class="a28-cls-12" data-name="chipped surface buccal"><path d="M33.33 28.5L25 20.17M25 28.5l8.33-8.33" class="a28-cls-33" data-color-action="stroke" style="stroke:inherit"/></g><g id="a28_chipped_surface_buccal_V" class="a28-cls-12" data-name="chipped surface buccal V"><path d="M33.33 28.5L25 20.17M25 28.5l8.33-8.33" class="a28-cls-33" data-color-action="stroke" style="stroke:inherit"/></g><g id="a28_chipped_surface_mesial" class="a28-cls-12" data-name="chipped surface mesial"><path d="M47.33 28.5L39 20.17M39 28.5l8.33-8.33" class="a28-cls-33" data-color-action="stroke" style="stroke:inherit"/></g><path id="a28_buccal_abfraction" d="M39.56 41.91a16.7 16.7 0 0 0-9.23-3.25 16.7 16.7 0 0 0-9.23 3.25 16.7 16.7 0 0 0 9.23 3.25 16.7 16.7 0 0 0 9.23-3.25z" class="a28-cls-14" data-color-action="fill" style="fill:inherit" data-name="buccal abfraction"/><g id="a28_braces"><path d="M22.59 16.84h13.45v18.19H22.59z" class="a28-cls-25"/><path d="M22.59 16.84h13.45v.68H22.59zM22.59 24.43h13.45v1.36H22.59z" class="a28-cls-34" data-color-action="fill" style="fill:inherit"/><path d="M22.59 34.14h13.45v.89H22.59z" class="a28-cls-35" data-color-action="fill" style="fill:inherit"/><rect width="4.11" height="7.94" x="22.3" y="27.07" class="a28-cls-28" rx=".49" ry=".49" data-color-action="fill" style="fill:inherit"/><path d="M25.92 35h-3.13a.49.49 0 0 1-.49-.49v-5.83a13.14 13.14 0 0 1 4.11 0v5.83a.49.49 0 0 1-.49.49z" class="a28-cls-18" data-color-action="fill" style="fill:inherit"/><path d="M26.08 33.6v1.11a.16.16 0 0 1-.16.16h-3.13a.16.16 0 0 1-.16-.16V33.6z" class="a28-cls-25"/><rect width="4.11" height="7.94" x="32.22" y="27.07" class="a28-cls-28" rx=".49" ry=".49" data-color-action="fill" style="fill:inherit"/><path d="M35.84 35h-3.13a.49.49 0 0 1-.49-.49v-5.83a13.14 13.14 0 0 1 4.11 0v5.83a.49.49 0 0 1-.49.49z" class="a28-cls-18" data-color-action="fill" style="fill:inherit"/><path d="M36 33.6v1.11a.16.16 0 0 1-.16.16h-3.13a.16.16 0 0 1-.16-.16V33.6z" class="a28-cls-25"/><rect width="4.11" height="7.94" x="22.3" y="16.79" class="a28-cls-28" rx=".49" ry=".49" data-color-action="fill" style="fill:inherit"/><path d="M25.92 24.72h-3.13a.49.49 0 0 1-.49-.49V18.4a13.14 13.14 0 0 1 4.11 0v5.83a.49.49 0 0 1-.49.49z" class="a28-cls-18" data-color-action="fill" style="fill:inherit"/><path d="M26.08 23.32v1.11a.16.16 0 0 1-.16.16h-3.13a.16.16 0 0 1-.16-.16v-1.11z" class="a28-cls-25"/><rect width="4.11" height="7.94" x="32.22" y="16.79" class="a28-cls-28" rx=".49" ry=".49" data-color-action="fill" style="fill:inherit"/><path d="M35.84 24.72h-3.13a.49.49 0 0 1-.49-.49V18.4a13.14 13.14 0 0 1 4.11 0v5.83a.49.49 0 0 1-.49.49z" class="a28-cls-18" data-color-action="fill" style="fill:inherit"/><path d="M36 23.32v1.11a.16.16 0 0 1-.16.16h-3.13a.16.16 0 0 1-.16-.16v-1.11z" class="a28-cls-25"/><path d="M8.21 25.17h42.21v1.45H8.21z" class="a28-cls-18" data-color-action="fill" style="fill:inherit"/><path d="M8.21 25.17h42.21v.25H8.21z" class="a28-cls-28" data-color-action="fill" style="fill:inherit"/><path d="M8.21 26.02h42.21v.4H8.21z" class="a28-cls-25"/></g><path id="a28_apicoectomy" d="M36.84 114.84l-7.34-11.66-7.34 11.66h14.68z" class="a28-cls-17" data-color-action="fill" style="fill:inherit"/><circle id="a28_abscess" cx="29.5" cy="110.34" r="6.5" class="a28-cls-37" data-color-action="fill" style="fill:inherit"/><g id="a28_blunted_roots" data-name="blunted roots"><path d="M2 63h55v76H2z" class="a28-cls-23"/><path d="M2 60.91h55v2H2z" class="a28-cls-36" data-color-action="fill" style="fill:inherit"/></g><path id="a28_root_amputation" d="M2 42.38h55v96.95H2z" class="a28-cls-23" data-name="root amputation"/><path id="a28_missing_crown" d="M2 1.83h55v48.72H2z" class="a28-cls-23" data-name="missing crown"/><g id="a28_missing_tooth" data-name="missing tooth"><path d="M31.75 9.08c1.92 0 9.09 5.64 12.55 9.09 2.57 2.57 1.08 7.85-.64 11.91-1.79 4.23-3.71 8.77-4.48 10.37a1.76 1.76 0 0 1-.49.6c0 4.93.67 17.15-.12 25.66C37 84 33 96.18 30.43 101.85c-2 4.29-3.7 2.1-3.82-3.08s-.8-21.7-1.36-31.07a243.21 243.21 0 0 0-3.72-27.47.55.55 0 0 1-.16-.16c-.64-1.28-2.06-5-3.07-7.43-1.28-3.07-5.12-10.25-5-12.29S29.83 9.08 31.75 9.08z" class="a28-cls-2"/><path d="M38.69 40c-.07 3.95.73 17.53-.12 26.75C37 84 33 96.18 30.43 101.85c-2 4.29-3.7 2.1-3.82-3.08s-.8-21.7-1.36-31.07c-.74-12.45-3.58-26.38-4.07-29.46S38.82 33.31 38.69 40z" class="a28-cls-23"/><path d="M37.08 55.48c0-8.25 0-12.19-.18-14.7a3.43 3.43 0 0 1 1.32-2.55 3.1 3.1 0 0 1 .47 1.77c-.07 3.95.73 17.53-.12 26.75a133.41 133.41 0 0 1-5.43 28c.78-3.82 1.62-8.35 2.14-12.14a241.83 241.83 0 0 0 1.8-27.13zM21.41 39.53l1.5.17s2 10 2.87 18.1S27.4 78.42 27 83.26c-.16 2.1-.45 4.61-.73 6.78-.27-7.04-.65-16.22-1.01-22.33-.67-11.17-3.01-23.52-3.85-28.18zM28.75 41.46c.54 2.9 1.17 3.8 1.75 18.85s-.58 40.32-1.75 40.32c-.46 0 .29-26.59-.29-34.92s-2.34-22.06-2.63-24.25 2.04-4.67 2.92 0z" class="a28-cls-23"/><path d="M39.18 40.46c.77-1.61 2.69-6.15 4.48-10.37 1.72-4.07 3.21-9.34.64-11.91-3.46-3.46-10.63-9.09-12.55-9.09S13.44 18.3 13.31 20.35s3.71 9.22 5 12.29c1 2.44 2.43 6.15 3.07 7.43s16.14 3.85 17.8.39z" class="a28-cls-23"/><path d="M40 32.09c1.63-4.75 3.32-11.37 1.54-14.82-.47-.91-1.05-1.95-1.7-3 1.67 1.36 3.26 2.77 4.42 3.94 2.57 2.57 1.08 7.85-.64 11.91-1.79 4.23-3.71 8.77-4.48 10.37a3.45 3.45 0 0 1-2.53 1.43c.8-2.15 2.12-6 3.39-9.83zM20.07 15c-1.87 2.3-3.2 4.29-3.16 5.17.11 2.66 3.62 11.31 4.74 14.74.62 1.88 1.39 4.36 2 6.08-1.25-.32-2.1-.66-2.23-.94-.64-1.28-2.06-5-3.07-7.43-1.28-3.07-5.12-10.25-5-12.29.02-.86 3.09-3.07 6.72-5.33zM26.9 11.16c0 3.66-.11 9.3.17 14.95A127.29 127.29 0 0 0 29.17 42c-.89-.09-1.76-.21-2.58-.35a125.94 125.94 0 0 1-3.29-15.88c-.27-3.14-.55-8.44-.63-12.3 1.46-.84 2.92-1.63 4.23-2.31z" class="a28-cls-23"/></g><g id="a28_extracted_tooth" class="a28-msng-cls-10" data-name="extracted tooth"><path d="M9 10.51l41.67 41.66M50.67 10.51L9 52.17" class="a28-msng-cls-11" data-color-action="stroke" style="stroke:inherit"/></g><g id="a28_denture"><path d="M2 2.83h55v135.01H2z" class="a28-cls-23" transform="rotate(-180 29.5 70.34)"/><path d="M57 60.78A22.63 22.63 0 0 1 44.78 64c-7.64 0-10-3.22-15.79-3.22S19.15 64 13.2 64A24.26 24.26 0 0 1 2 60.78V2.83h55z" class="a28-cls-31" data-color-action="fill" style="fill:inherit"/><path d="M39.18 40.46c.77-1.61 2.69-6.15 4.48-10.37 1.72-4.07 3.21-9.34.64-11.91-3.46-3.46-10.63-9.09-12.55-9.09S13.44 18.3 13.31 20.35s3.71 9.22 5 12.29c1 2.44 2.43 6.15 3.07 7.43s16.14 3.85 17.8.39z" class="a28-cls-2"/><path d="M39.18 40.46c.77-1.61 2.69-6.15 4.48-10.37 1.72-4.07 3.21-9.34.64-11.91-3.46-3.46-10.63-9.09-12.55-9.09S13.44 18.3 13.31 20.35s3.71 9.22 5 12.29c1 2.44 2.43 6.15 3.07 7.43s16.14 3.85 17.8.39z" class="a28-cls-6"/><path d="M40 32.09c1.63-4.75 3.32-11.37 1.54-14.82-.47-.91-1.05-1.95-1.7-3 1.67 1.36 3.26 2.77 4.42 3.94 2.57 2.57 1.08 7.85-.64 11.91-1.79 4.23-3.71 8.77-4.48 10.37a3.45 3.45 0 0 1-2.53 1.43c.8-2.15 2.12-6 3.39-9.83zM20.07 15c-1.87 2.3-3.2 4.29-3.16 5.17.11 2.66 3.62 11.31 4.74 14.74.62 1.88 1.39 4.36 2 6.08-1.25-.32-2.1-.66-2.23-.94-.64-1.28-2.06-5-3.07-7.43-1.28-3.07-5.12-10.25-5-12.29.02-.86 3.09-3.07 6.72-5.33z" class="a28-cls-7"/><path d="M26.9 11.16c0 3.66-.11 9.3.17 14.95A127.29 127.29 0 0 0 29.17 42c-.89-.09-1.76-.21-2.58-.35a125.94 125.94 0 0 1-3.29-15.88c-.27-3.14-.55-8.44-.63-12.3 1.46-.84 2.92-1.63 4.23-2.31z" class="a28-cls-8"/></g><g id="a28_maryland_bridge_pontic" class="a28-cls-12" data-name="maryland bridge pontic"><path d="M39.18 40.46c.77-1.61 2.69-6.15 4.48-10.37 1.72-4.07 3.21-9.34.64-11.91-3.46-3.46-10.63-9.09-12.55-9.09S13.44 18.3 13.31 20.35s3.71 9.22 5 12.29c1 2.44 2.43 6.15 3.07 7.43s16.14 3.85 17.8.39z" class="a28-cls-20" data-color-action="fill" style="fill:inherit"/><path d="M2 24h55v7.67H2z" class="a28-cls-20" data-color-action="fill" style="fill:inherit"/></g><g id="a28_maryland_bridge_abutment_mesial" data-name="maryland bridge abutment mesial"><path d="M22.02 24H57v7.67H22.02z" class="a28-cls-12 a28-cls-20" data-color-action="fill" style="fill:inherit"/><path d="M31.75 9.08c1.92 0 9.09 5.64 12.55 9.09 2.57 2.57 1.08 7.85-.64 11.91-1.79 4.23-3.71 8.77-4.48 10.37a1.76 1.76 0 0 1-.49.6c0 4.93.67 17.15-.12 25.66C37 84 33 96.18 30.43 101.85c-2 4.29-3.7 2.1-3.82-3.08s-.8-21.7-1.36-31.07a243.21 243.21 0 0 0-3.72-27.47.55.55 0 0 1-.16-.16c-.64-1.28-2.06-5-3.07-7.43-1.28-3.07-5.12-10.25-5-12.29S29.83 9.08 31.75 9.08z" class="a28-cls-2"/><path d="M38.69 40c-.07 3.95.73 17.53-.12 26.75C37 84 33 96.18 30.43 101.85c-2 4.29-3.7 2.1-3.82-3.08s-.8-21.7-1.36-31.07c-.74-12.45-3.58-26.38-4.07-29.46S38.82 33.31 38.69 40z" class="a28-cls-3"/><path d="M37.08 55.48c0-8.25 0-12.19-.18-14.7a3.43 3.43 0 0 1 1.32-2.55 3.1 3.1 0 0 1 .47 1.77c-.07 3.95.73 17.53-.12 26.75a133.41 133.41 0 0 1-5.43 28c.78-3.82 1.62-8.35 2.14-12.14a241.83 241.83 0 0 0 1.8-27.13zM21.41 39.53l1.5.17s2 10 2.87 18.1S27.4 78.42 27 83.26c-.16 2.1-.45 4.61-.73 6.78-.27-7.04-.65-16.22-1.01-22.33-.67-11.17-3.01-23.52-3.85-28.18z" class="a28-cls-4"/><path d="M28.75 41.46c.54 2.9 1.17 3.8 1.75 18.85s-.58 40.32-1.75 40.32c-.46 0 .29-26.59-.29-34.92s-2.34-22.06-2.63-24.25 2.04-4.67 2.92 0z" class="a28-cls-5"/><path d="M39.18 40.46c.77-1.61 2.69-6.15 4.48-10.37 1.72-4.07 3.21-9.34.64-11.91-3.46-3.46-10.63-9.09-12.55-9.09S13.44 18.3 13.31 20.35s3.71 9.22 5 12.29c1 2.44 2.43 6.15 3.07 7.43s16.14 3.85 17.8.39z" class="a28-cls-6"/><path d="M40 32.09c1.63-4.75 3.32-11.37 1.54-14.82-.47-.91-1.05-1.95-1.7-3 1.67 1.36 3.26 2.77 4.42 3.94 2.57 2.57 1.08 7.85-.64 11.91-1.79 4.23-3.71 8.77-4.48 10.37a3.45 3.45 0 0 1-2.53 1.43c.8-2.15 2.12-6 3.39-9.83zM20.07 15c-1.87 2.3-3.2 4.29-3.16 5.17.11 2.66 3.62 11.31 4.74 14.74.62 1.88 1.39 4.36 2 6.08-1.25-.32-2.1-.66-2.23-.94-.64-1.28-2.06-5-3.07-7.43-1.28-3.07-5.12-10.25-5-12.29.02-.86 3.09-3.07 6.72-5.33z" class="a28-cls-7"/><path d="M26.9 11.16c0 3.66-.11 9.3.17 14.95A127.29 127.29 0 0 0 29.17 42c-.89-.09-1.76-.21-2.58-.35a125.94 125.94 0 0 1-3.29-15.88c-.27-3.14-.55-8.44-.63-12.3 1.46-.84 2.92-1.63 4.23-2.31z" class="a28-cls-8"/></g><g id="a28_maryland_bridge_abutment_distal" data-name="maryland bridge abutment distal"><path d="M2 24h34.98v7.67H2z" class="a28-cls-12 a28-cls-20" data-color-action="fill" style="fill:inherit"/><path d="M31.75 9.08c1.92 0 9.09 5.64 12.55 9.09 2.57 2.57 1.08 7.85-.64 11.91-1.79 4.23-3.71 8.77-4.48 10.37a1.76 1.76 0 0 1-.49.6c0 4.93.67 17.15-.12 25.66C37 84 33 96.18 30.43 101.85c-2 4.29-3.7 2.1-3.82-3.08s-.8-21.7-1.36-31.07a243.21 243.21 0 0 0-3.72-27.47.55.55 0 0 1-.16-.16c-.64-1.28-2.06-5-3.07-7.43-1.28-3.07-5.12-10.25-5-12.29S29.83 9.08 31.75 9.08z" class="a28-cls-2"/><path d="M38.69 40c-.07 3.95.73 17.53-.12 26.75C37 84 33 96.18 30.43 101.85c-2 4.29-3.7 2.1-3.82-3.08s-.8-21.7-1.36-31.07c-.74-12.45-3.58-26.38-4.07-29.46S38.82 33.31 38.69 40z" class="a28-cls-3"/><path d="M37.08 55.48c0-8.25 0-12.19-.18-14.7a3.43 3.43 0 0 1 1.32-2.55 3.1 3.1 0 0 1 .47 1.77c-.07 3.95.73 17.53-.12 26.75a133.41 133.41 0 0 1-5.43 28c.78-3.82 1.62-8.35 2.14-12.14a241.83 241.83 0 0 0 1.8-27.13zM21.41 39.53l1.5.17s2 10 2.87 18.1S27.4 78.42 27 83.26c-.16 2.1-.45 4.61-.73 6.78-.27-7.04-.65-16.22-1.01-22.33-.67-11.17-3.01-23.52-3.85-28.18z" class="a28-cls-4"/><path d="M28.75 41.46c.54 2.9 1.17 3.8 1.75 18.85s-.58 40.32-1.75 40.32c-.46 0 .29-26.59-.29-34.92s-2.34-22.06-2.63-24.25 2.04-4.67 2.92 0z" class="a28-cls-5"/><path d="M39.18 40.46c.77-1.61 2.69-6.15 4.48-10.37 1.72-4.07 3.21-9.34.64-11.91-3.46-3.46-10.63-9.09-12.55-9.09S13.44 18.3 13.31 20.35s3.71 9.22 5 12.29c1 2.44 2.43 6.15 3.07 7.43s16.14 3.85 17.8.39z" class="a28-cls-6"/><path d="M40 32.09c1.63-4.75 3.32-11.37 1.54-14.82-.47-.91-1.05-1.95-1.7-3 1.67 1.36 3.26 2.77 4.42 3.94 2.57 2.57 1.08 7.85-.64 11.91-1.79 4.23-3.71 8.77-4.48 10.37a3.45 3.45 0 0 1-2.53 1.43c.8-2.15 2.12-6 3.39-9.83zM20.07 15c-1.87 2.3-3.2 4.29-3.16 5.17.11 2.66 3.62 11.31 4.74 14.74.62 1.88 1.39 4.36 2 6.08-1.25-.32-2.1-.66-2.23-.94-.64-1.28-2.06-5-3.07-7.43-1.28-3.07-5.12-10.25-5-12.29.02-.86 3.09-3.07 6.72-5.33z" class="a28-cls-7"/><path d="M26.9 11.16c0 3.66-.11 9.3.17 14.95A127.29 127.29 0 0 0 29.17 42c-.89-.09-1.76-.21-2.58-.35a125.94 125.94 0 0 1-3.29-15.88c-.27-3.14-.55-8.44-.63-12.3 1.46-.84 2.92-1.63 4.23-2.31z" class="a28-cls-8"/></g><g id="a28_maryland_bridge_abutment" data-name="maryland bridge abutment"><path d="M2 24h55v7.67H2z" class="a28-cls-12 a28-cls-20" data-color-action="fill" style="fill:inherit"/><path d="M31.75 9.08c1.92 0 9.09 5.64 12.55 9.09 2.57 2.57 1.08 7.85-.64 11.91-1.79 4.23-3.71 8.77-4.48 10.37a1.76 1.76 0 0 1-.49.6c0 4.93.67 17.15-.12 25.66C37 84 33 96.18 30.43 101.85c-2 4.29-3.7 2.1-3.82-3.08s-.8-21.7-1.36-31.07a243.21 243.21 0 0 0-3.72-27.47.55.55 0 0 1-.16-.16c-.64-1.28-2.06-5-3.07-7.43-1.28-3.07-5.12-10.25-5-12.29S29.83 9.08 31.75 9.08z" class="a28-cls-2"/><path d="M38.69 40c-.07 3.95.73 17.53-.12 26.75C37 84 33 96.18 30.43 101.85c-2 4.29-3.7 2.1-3.82-3.08s-.8-21.7-1.36-31.07c-.74-12.45-3.58-26.38-4.07-29.46S38.82 33.31 38.69 40z" class="a28-cls-3"/><path d="M37.08 55.48c0-8.25 0-12.19-.18-14.7a3.43 3.43 0 0 1 1.32-2.55 3.1 3.1 0 0 1 .47 1.77c-.07 3.95.73 17.53-.12 26.75a133.41 133.41 0 0 1-5.43 28c.78-3.82 1.62-8.35 2.14-12.14a241.83 241.83 0 0 0 1.8-27.13zM21.41 39.53l1.5.17s2 10 2.87 18.1S27.4 78.42 27 83.26c-.16 2.1-.45 4.61-.73 6.78-.27-7.04-.65-16.22-1.01-22.33-.67-11.17-3.01-23.52-3.85-28.18z" class="a28-cls-4"/><path d="M28.75 41.46c.54 2.9 1.17 3.8 1.75 18.85s-.58 40.32-1.75 40.32c-.46 0 .29-26.59-.29-34.92s-2.34-22.06-2.63-24.25 2.04-4.67 2.92 0z" class="a28-cls-5"/><path d="M39.18 40.46c.77-1.61 2.69-6.15 4.48-10.37 1.72-4.07 3.21-9.34.64-11.91-3.46-3.46-10.63-9.09-12.55-9.09S13.44 18.3 13.31 20.35s3.71 9.22 5 12.29c1 2.44 2.43 6.15 3.07 7.43s16.14 3.85 17.8.39z" class="a28-cls-6"/><path d="M40 32.09c1.63-4.75 3.32-11.37 1.54-14.82-.47-.91-1.05-1.95-1.7-3 1.67 1.36 3.26 2.77 4.42 3.94 2.57 2.57 1.08 7.85-.64 11.91-1.79 4.23-3.71 8.77-4.48 10.37a3.45 3.45 0 0 1-2.53 1.43c.8-2.15 2.12-6 3.39-9.83zM20.07 15c-1.87 2.3-3.2 4.29-3.16 5.17.11 2.66 3.62 11.31 4.74 14.74.62 1.88 1.39 4.36 2 6.08-1.25-.32-2.1-.66-2.23-.94-.64-1.28-2.06-5-3.07-7.43-1.28-3.07-5.12-10.25-5-12.29.02-.86 3.09-3.07 6.72-5.33z" class="a28-cls-7"/><path d="M26.9 11.16c0 3.66-.11 9.3.17 14.95A127.29 127.29 0 0 0 29.17 42c-.89-.09-1.76-.21-2.58-.35a125.94 125.94 0 0 1-3.29-15.88c-.27-3.14-.55-8.44-.63-12.3 1.46-.84 2.92-1.63 4.23-2.31z" class="a28-cls-8"/></g><g id="a28_bridge_abutment_mesial" class="a28-cls-12" data-name="bridge abutment mesial"><path d="M39.18 40.46c.77-1.61 2.69-6.15 4.48-10.37 1.72-4.07 3.21-9.34.64-11.91-3.46-3.46-10.63-9.09-12.55-9.09S13.44 18.3 13.31 20.35s3.71 9.22 5 12.29c1 2.44 2.43 6.15 3.07 7.43s16.14 3.85 17.8.39z" class="a28-cls-18" data-color-action="fill" style="fill:inherit"/><path d="M22.02 24H57v7.67H22.02z" class="a28-cls-18" data-color-action="fill" style="fill:inherit"/></g><g id="a28_bridge_abutment_distal" class="a28-cls-12" data-name="bridge abutment distal"><path d="M39.18 40.46c.77-1.61 2.69-6.15 4.48-10.37 1.72-4.07 3.21-9.34.64-11.91-3.46-3.46-10.63-9.09-12.55-9.09S13.44 18.3 13.31 20.35s3.71 9.22 5 12.29c1 2.44 2.43 6.15 3.07 7.43s16.14 3.85 17.8.39z" class="a28-cls-18" data-color-action="fill" style="fill:inherit"/><path d="M2 24h34.98v7.67H2z" class="a28-cls-18" data-color-action="fill" style="fill:inherit"/></g><g id="a28_bridge_abutment" class="a28-cls-12" data-name="bridge abutment"><path d="M39.18 40.46c.77-1.61 2.69-6.15 4.48-10.37 1.72-4.07 3.21-9.34.64-11.91-3.46-3.46-10.63-9.09-12.55-9.09S13.44 18.3 13.31 20.35s3.71 9.22 5 12.29c1 2.44 2.43 6.15 3.07 7.43s16.14 3.85 17.8.39z" class="a28-cls-18" data-color-action="fill" style="fill:inherit"/><path d="M2 24h55v7.67H2z" class="a28-cls-18" data-color-action="fill" style="fill:inherit"/></g><g id="a28_bridge_pontic" data-name="bridge pontic"><path d="M31.75 9.08c1.92 0 9.09 5.64 12.55 9.09 2.57 2.57 1.08 7.85-.64 11.91-1.79 4.23-3.71 8.77-4.48 10.37a1.76 1.76 0 0 1-.49.6c0 4.93.67 17.15-.12 25.66C37 84 33 96.18 30.43 101.85c-2 4.29-3.7 2.1-3.82-3.08s-.8-21.7-1.36-31.07a243.21 243.21 0 0 0-3.72-27.47.55.55 0 0 1-.16-.16c-.64-1.28-2.06-5-3.07-7.43-1.28-3.07-5.12-10.25-5-12.29S29.83 9.08 31.75 9.08z" class="a28-cls-2"/><path d="M38.69 40c-.07 3.95.73 17.53-.12 26.75C37 84 33 96.18 30.43 101.85c-2 4.29-3.7 2.1-3.82-3.08s-.8-21.7-1.36-31.07c-.74-12.45-3.58-26.38-4.07-29.46S38.82 33.31 38.69 40z" class="a28-cls-23"/><path d="M37.08 55.48c0-8.25 0-12.19-.18-14.7a3.43 3.43 0 0 1 1.32-2.55 3.1 3.1 0 0 1 .47 1.77c-.07 3.95.73 17.53-.12 26.75a133.41 133.41 0 0 1-5.43 28c.78-3.82 1.62-8.35 2.14-12.14a241.83 241.83 0 0 0 1.8-27.13zM21.41 39.53l1.5.17s2 10 2.87 18.1S27.4 78.42 27 83.26c-.16 2.1-.45 4.61-.73 6.78-.27-7.04-.65-16.22-1.01-22.33-.67-11.17-3.01-23.52-3.85-28.18zM28.75 41.46c.54 2.9 1.17 3.8 1.75 18.85s-.58 40.32-1.75 40.32c-.46 0 .29-26.59-.29-34.92s-2.34-22.06-2.63-24.25 2.04-4.67 2.92 0z" class="a28-cls-23"/><path d="M39.18 40.46c.77-1.61 2.69-6.15 4.48-10.37 1.72-4.07 3.21-9.34.64-11.91-3.46-3.46-10.63-9.09-12.55-9.09S13.44 18.3 13.31 20.35s3.71 9.22 5 12.29c1 2.44 2.43 6.15 3.07 7.43s16.14 3.85 17.8.39z" class="a28-cls-6"/><path d="M40 32.09c1.63-4.75 3.32-11.37 1.54-14.82-.47-.91-1.05-1.95-1.7-3 1.67 1.36 3.26 2.77 4.42 3.94 2.57 2.57 1.08 7.85-.64 11.91-1.79 4.23-3.71 8.77-4.48 10.37a3.45 3.45 0 0 1-2.53 1.43c.8-2.15 2.12-6 3.39-9.83zM20.07 15c-1.87 2.3-3.2 4.29-3.16 5.17.11 2.66 3.62 11.31 4.74 14.74.62 1.88 1.39 4.36 2 6.08-1.25-.32-2.1-.66-2.23-.94-.64-1.28-2.06-5-3.07-7.43-1.28-3.07-5.12-10.25-5-12.29.02-.86 3.09-3.07 6.72-5.33z" class="a28-cls-7"/><path d="M26.9 11.16c0 3.66-.11 9.3.17 14.95A127.29 127.29 0 0 0 29.17 42c-.89-.09-1.76-.21-2.58-.35a125.94 125.94 0 0 1-3.29-15.88c-.27-3.14-.55-8.44-.63-12.3 1.46-.84 2.92-1.63 4.23-2.31z" class="a28-cls-8"/><g class="a28-cls-12"><path d="M39.18 40.46c.77-1.61 2.69-6.15 4.48-10.37 1.72-4.07 3.21-9.34.64-11.91-3.46-3.46-10.63-9.09-12.55-9.09S13.44 18.3 13.31 20.35s3.71 9.22 5 12.29c1 2.44 2.43 6.15 3.07 7.43s16.14 3.85 17.8.39z" class="a28-cls-18" data-color-action="fill" style="fill:inherit"/><path d="M2 24h55v7.67H2z" class="a28-cls-18" data-color-action="fill" style="fill:inherit"/></g></g><g id="a28_implant_mini" data-name="implant mini"><path d="M2.39 1.79h55v137.17h-55z" class="a28-cls-23"/><path d="M29.72 77.93h-.44l-1-8.49V28.6h2.44v40.84l-1 8.49z" class="a28-cls-18" data-color-action="fill" style="fill:inherit"/><path d="M29.42 77.93h-.07l-.4-8.49V28.6h.37v40.84l.1 8.49z" class="a28-cls-25"/><path d="M28.28 28.6h2.44v.63h-2.44z" class="a28-cls-28" data-color-action="fill" style="fill:inherit"/><g class="a28-cls-29"><path d="M28.28 29.23l2.44 1v-.63l-2.44-1v.63zM28.28 30.68l2.44 1v-.63l-2.44-1v.63zM28.28 32.12l2.44 1v-.63l-2.44-1v.63zM28.28 33.57l2.44 1v-.63l-2.44-1v.63zM28.28 35.02l2.44 1v-.64l-2.44-1v.64zM28.28 36.46l2.44 1v-.63l-2.44-1v.63zM28.28 37.91l2.44 1v-.64l-2.44-1v.64zM28.28 39.35l2.44 1v-.63l-2.44-1v.63zM28.28 40.8l2.44 1v-.64l-2.44-1v.64zM28.28 42.24l2.44 1v-.63l-2.44-1v.63zM28.28 43.69l2.44 1v-.64l-2.44-1v.64zM28.28 45.13l2.44 1v-.63l-2.44-1v.63zM28.28 46.58l2.44 1v-.63l-2.44-1v.63zM28.28 48.02l2.44 1v-.63l-2.44-1v.63zM28.28 49.47l2.44 1v-.63l-2.44-1v.63zM28.28 50.91l2.44 1v-.63l-2.44-1v.63zM28.28 52.36l2.44 1v-.63l-2.44-1v.63zM28.28 53.8l2.44 1.01v-.64l-2.44-1v.63zM28.28 55.25l2.44 1v-.63l-2.44-1v.63zM28.28 56.7l2.44 1v-.64l-2.44-1v.64zM28.28 58.14l2.44 1v-.63l-2.44-1v.63zM28.28 59.59l2.44 1v-.63l-2.44-1.01v.64zM28.28 61.03l2.44 1v-.63l-2.44-1v.63zM28.28 62.48l2.44 1v-.63l-2.44-1v.63zM28.28 63.92l2.44 1v-.63l-2.44-1v.63zM28.28 65.37l2.44 1v-.63l-2.44-1v.63zM28.28 66.81l2.44 1v-.63l-2.44-1v.63zM28.28 68.26l2.44 1v-.63l-2.44-1v.63zM28.28 69.44l.03.28 2.27.93.07-.61-2.37-.97v.37zM28.49 71.24l1.93.79.07-.61-2.08-.85.08.67zM28.67 72.76l1.58.65.08-.61-1.74-.71.08.67zM28.85 74.28l1.24.5.07-.6-1.39-.57.08.67zM29.03 75.79l.9.37.07-.6-1.05-.43.08.66zM29.2 77.31l.57.23.07-.6-.71-.29.07.66z" class="a28-cls-28" data-color-action="fill" style="fill:inherit"/></g><circle cx="29.5" cy="24.73" r="2.24" class="a28-cls-18" data-color-action="fill" style="fill:inherit"/><path d="M27.67 25.95h3.67v3h-3.67z" class="a28-cls-18" data-color-action="fill" style="fill:inherit"/><path d="M28.49 25.95h.55v3h-.55z" class="a28-cls-25"/><path d="M28.7 23.37h-.21a2.32 2.32 0 0 0-.49 1.29 2.37 2.37 0 0 0 .52 1.3H29a2 2 0 0 1-.73-1.37 1.5 1.5 0 0 1 .43-1.22z" class="a28-cls-25"/><path d="M28.28 34.67h2.44v.63h-2.44z" class="a28-cls-28" data-color-action="fill" style="fill:inherit"/><path d="M32.11 28.92h-5.22l.87 5.71h3.48l.87-5.71z" class="a28-cls-18" data-color-action="fill" style="fill:inherit"/><path d="M28.85 28.92h-.79l.48 5.71h.53l-.22-5.71z" class="a28-cls-25"/></g><g id="a28_implant_cylinder" data-name="implant cylinder"><path d="M2 1.83h55V139H2z" class="a28-cls-23"/><path d="M26.17 25.65h6.67v49.33h-6.67z" class="a28-cls-18" data-color-action="fill" style="fill:inherit"/><path d="M24.5 22.66h10v3h-10z" class="a28-cls-18" data-color-action="fill" style="fill:inherit"/><path d="M28 25.65h1v49.33h-1z" class="a28-cls-25"/><path d="M26.75 22.66h1.5v3h-1.5z" class="a28-cls-25"/><path d="M24.5 75.02h10v3h-10z" class="a28-cls-18" data-color-action="fill" style="fill:inherit"/><path d="M26.75 75.02h1.5v3h-1.5z" class="a28-cls-25"/><path d="M26.17 25.65h6.67v.63h-6.67zM26.17 74.35h6.67v.63h-6.67z" class="a28-cls-28" data-color-action="fill" style="fill:inherit"/><g class="a28-cls-29"><path d="M32.83 73.35l-6.66 1.01v.63l6.66-1v-.64zM32.83 71.91l-6.66 1v.63l6.66-1v-.63zM32.83 70.46l-6.66 1v.64l6.66-1.01v-.63zM32.83 69.02l-6.66 1v.63l6.66-1v-.63zM32.83 67.57l-6.66 1v.63l6.66-1v-.63zM32.83 66.13l-6.66 1v.63l6.66-1v-.63zM32.83 64.68l-6.66 1v.63l6.66-1v-.63zM32.83 63.24l-6.66 1v.63l6.66-1v-.63zM32.83 61.79l-6.66 1v.63l6.66-1v-.63zM32.83 60.34l-6.66 1.01v.63l6.66-1v-.64zM32.83 58.9l-6.66 1v.63l6.66-1v-.63zM32.83 57.45l-6.66 1v.64l6.66-1v-.64zM32.83 56.01l-6.66 1v.63l6.66-1v-.63zM32.83 54.56l-6.66 1v.64l6.66-1v-.64zM32.83 53.12l-6.66 1v.63l6.66-1v-.63zM32.83 51.67l-6.66 1v.63l6.66-1v-.63zM32.83 50.23l-6.66 1v.63l6.66-1v-.63zM32.83 48.78l-6.66 1v.63l6.66-1v-.63zM32.83 47.34l-6.66 1v.63l6.66-1v-.63zM32.83 45.89l-6.66 1v.63l6.66-1v-.63zM32.83 44.45l-6.66 1v.63l6.66-1v-.63zM32.83 43l-6.66 1v.63l6.66-1V43zM32.83 41.55l-6.66 1v.64l6.66-1v-.64zM32.83 40.11l-6.66 1v.63l6.66-1v-.63zM32.83 38.66l-6.66 1v.64l6.66-1v-.64zM32.83 37.22l-6.66 1v.63l6.66-1v-.63zM32.83 35.77l-6.66 1v.64l6.66-1v-.64zM32.83 34.33l-6.66 1v.63l6.66-1v-.63zM32.83 32.88l-6.66 1v.63l6.66-1v-.63zM32.83 31.44l-6.66 1v.63l6.66-1v-.63zM32.83 29.99l-6.66 1v.63l6.66-1v-.63zM32.83 28.55l-6.66 1v.63l6.66-1v-.63zM32.83 27.1l-6.66 1v.63l6.66-1v-.63zM32.83 25.65l-6.66 1.01v.63l6.66-1v-.64z" class="a28-cls-28" data-color-action="fill" style="fill:inherit"/></g></g><g id="a28_implant_blade" data-name="implant blade"><path d="M2 1.83h55V139H2z" class="a28-cls-23"/><path d="M26.17 25.65h6.67v49.33h-6.67z" class="a28-cls-18" data-color-action="fill" style="fill:inherit"/><path d="M24.5 22.66h10v3h-10z" class="a28-cls-18" data-color-action="fill" style="fill:inherit"/><path d="M28 25.65h1v49.33h-1z" class="a28-cls-25"/><path d="M26.75 22.66h1.5v3h-1.5z" class="a28-cls-25"/><path d="M26.17 25.65h6.67v.63h-6.67z" class="a28-cls-28" data-color-action="fill" style="fill:inherit"/></g><path id="a28_watch_tooth" d="M8.27 153.9a3.26 3.26 0 0 1 3.22-3.26 3.24 3.24 0 1 1 0 6.47 3.25 3.25 0 0 1-3.22-3.21zm1-5.91l-.88-18.09h6.15l-.8 18.1z" class="a28-cls-11" data-color-action="fill" style="fill:inherit" data-name="watch tooth"/><path id="a28_border" d="M0 0h59v161H0z" class="a28-cls-15" transform="rotate(180 29.5 80.5)"/></defs></g><g class="b28-cls-1" transform="translate(0 66)"><g id="_28B" data-name="#28B"><path d="M46.67 29.06C46 32.19 31.82 46.19 27.48 46.19c-3.91 0-14.37-12.83-15.08-16.91-.91-5.25 5.26-16.43 8.22-17.82 3.88-1.83 13.25-2.74 16.45.46 2.3 2.3 10.06 15.08 9.6 17.14z" class="b28-cls-2"/><path d="M46.67 29.06C46 32.19 31.82 46.19 27.48 46.19c-3.91 0-14.37-12.83-15.08-16.91-.91-5.25 5.26-16.43 8.22-17.82 3.88-1.83 13.25-2.74 16.45.46 2.3 2.3 10.06 15.08 9.6 17.14z" class="b28-cls-3"/><path d="M38.9 30.43c-1.19.3-2.74-3.66-4.57-4.34s-7.08-1.83-8.91-1.14-4.11 4.57-4.8 4.11 1.83-3 2.06-4.34-3-4.8-2.06-5.48 3.2 3.43 4.57 3.88 7.08 1.6 7.54.69 2.74-4.34 3.43-3.43-1.14 3.2-.91 4.11 4.57 5.71 3.65 5.94z" class="b28-cls-4"/><path d="M27.48 46.19c-3.72 0-13.35-11.59-14.9-16.24a53.13 53.13 0 0 0 4.16 4.58c1.83 1.6 8.91 7.77 11.88 7.54s8-3.88 10.28-5.48c1.43-1 4.54-3.69 6.68-5.57-3.51 4.98-14.39 15.17-18.1 15.17z" class="b28-cls-5"/><path d="M37.07 13.52c-1.6-.46-8.45-1.6-11-1.37s-5.25.23-7.08 2.28c-.94 1.05-2.41 2.59-3.63 3.83 1.74-3.34 3.84-6.15 5.23-6.8 3.88-1.83 13.25-2.74 16.45.46a30.35 30.35 0 0 1 2.94 4 10.06 10.06 0 0 0-2.91-2.4z" class="b28-cls-6"/></g><defs><g id="b28_splinted_crowns" data-name="splinted crowns"><path d="M28 51.75h3v3h-3z" class="b28-cls-8"/><path d="M28 51.75h3v3h-3z" class="b28-cls-8"/><path d="M28 51.75h3v3h-3z" class="b28-cls-8"/></g><path id="b28_line_angle_2" d="M35.41 41.48a77.21 77.21 0 0 0 8.36-8.17l-14.62-4.46z" class="b28-cls-7" data-color-action="fill" style="fill:inherit" data-name="line angle 2"/><path id="b28_cusp_1" d="M21.44 42.18c2.35 2.33 4.62 4 6 4 1.65 0 4.72-2 7.93-4.71l-6.22-12.62z" class="b28-cls-7" data-color-action="fill" style="fill:inherit" data-name="cusp 1"/><path id="b28_line_angle_1" d="M14.58 33.75a54.15 54.15 0 0 0 6.87 8.43l7.71-13.33z" class="b28-cls-7" data-color-action="fill" style="fill:inherit" data-name="line angle 1"/><path id="b28_mesial" d="M42.24 19.45a11.2 11.2 0 0 0-.61 6.92 12.22 12.22 0 0 0 3 5.9 10.59 10.59 0 0 0 2-3.22c.29-1.12-1.95-5.5-4.39-9.6z" class="b28-cls-7" data-color-action="fill" style="fill:inherit"/><path id="b28_mesial_pit" d="M42.24 19.45l-.59-1-13.1 4.36.6 6 14.62 4.46c.31-.36.59-.7.86-1a12.22 12.22 0 0 1-3-5.9 11.2 11.2 0 0 1 .61-6.92z" class="b28-cls-7" data-color-action="fill" style="fill:inherit" data-name="mesial pit"/><path id="b28_distal_pit" d="M29.15 28.85l-.6-6L15 19.14l-.21.46c1.52 1.9 3.18 4.33 3 7.14a10.43 10.43 0 0 1-3.34 6.73l.17.27z" class="b28-cls-7" data-color-action="fill" style="fill:inherit" data-name="distal pit"/><path id="b28_distal" d="M14.74 19.61c-1.63 3.45-2.77 7.21-2.34 9.68a13.77 13.77 0 0 0 2 4.2 10.43 10.43 0 0 0 3.34-6.73c.19-2.82-1.47-5.25-3-7.15z" class="b28-cls-7" data-color-action="fill" style="fill:inherit"/><path id="b28_line_angle_4" d="M35 10.68l-6.5 12.15 13.1-4.36a46.45 46.45 0 0 0-4.57-6.55A5.91 5.91 0 0 0 35 10.68z" class="b28-cls-7" data-color-action="fill" style="fill:inherit" data-name="line angle 4"/><path id="b28_cusp_2" d="M35 10.68c-3.55-1.4-9.3-.93-12.89.21l6.4 11.94z" class="b28-cls-7" data-color-action="fill" style="fill:inherit" data-name="cusp 2"/><path id="b28_line_angle_3" d="M22.15 10.89a12.55 12.55 0 0 0-1.53.58c-1.51.71-3.85 4-5.67 7.68l13.59 3.69z" class="b28-cls-7" data-color-action="fill" style="fill:inherit" data-name="line angle 3"/><g id="b28_veneer"><path d="M28 51.75h3v3h-3z" class="b28-cls-8"/><path d="M28 51.75h3v3h-3z" class="b28-cls-8"/><path d="M28 51.75h3v3h-3z" class="b28-cls-8"/></g><g id="b28_tissue_graft" data-name="tissue graft"><path d="M28 51.75h3v3h-3z" class="b28-cls-8"/><path d="M28 51.75h3v3h-3z" class="b28-cls-8"/><path d="M28 51.75h3v3h-3z" class="b28-cls-8"/></g><path id="b28_surface_restoration_buccal" d="M27.56 42.1c1.7-.69 5.53-3.74 9-7l2.87 2.75c-4.39 4.24-9.57 8.29-11.91 8.29-2.05 0-5.9-3.53-9.2-7.47l2.86-2.8c2.26 2.84 4.82 5.47 6.38 6.23z" class="b28-cls-9" data-color-action="fill" style="fill:inherit" data-name="surface restoration buccal"/><path id="b28_surface_restoration_mesial" d="M42.51 28.53a66 66 0 0 0-4.56-8.43L41 17.48c2.89 4.52 6 10.26 5.67 11.58s-3.51 5.21-7.28 8.84l-2.87-2.75a40.24 40.24 0 0 0 5.99-6.62z" class="b28-cls-9" data-color-action="fill" style="fill:inherit" data-name="surface restoration mesial"/><path id="b28_surface_restoration_occlusal" d="M22.44 15a19.84 19.84 0 0 1 7.11-1.23c3.08 0 4.44.68 4.7.95 1.62 1.62 7.05 10.6 8.26 13.78-2.4 3.89-12 12.36-14.94 13.57C24.44 40.55 17 31.27 16.34 28.6c-.54-3.12 4.02-12.01 6.1-13.6z" class="b28-cls-9" data-color-action="fill" style="fill:inherit" data-name="surface restoration occlusal"/><path id="b28_surface_restoration_distal" d="M15.55 18l3.1 2.75c-1.45 2.94-2.6 6.22-2.31 7.87.31 1.36 2.4 4.43 4.79 7.32l-2.86 2.8c-3-3.58-5.54-7.49-5.87-9.43-.5-2.88 1.11-7.5 3.15-11.31z" class="b28-cls-9" data-color-action="fill" style="fill:inherit" data-name="surface restoration distal"/><path id="b28_surface_restoration_lingual" d="M34.25 14.75c-.26-.26-1.62-.95-4.7-.95a19.84 19.84 0 0 0-7.11 1.2c-1 .73-2.49 3.08-3.78 5.69L15.55 18c1.71-3.21 3.72-5.88 5.07-6.51 3.88-1.83 13.25-2.74 16.45.46a40.45 40.45 0 0 1 4 5.56l-3.12 2.59a39.79 39.79 0 0 0-3.7-5.35z" class="b28-cls-9" data-color-action="fill" style="fill:inherit" data-name="surface restoration lingual"/><g id="b28_supra-erupted"><path d="M28 51.75h3v3h-3z" class="b28-cls-8"/><path d="M28 51.75h3v3h-3z" class="b28-cls-8"/><path d="M28 51.75h3v3h-3z" class="b28-cls-8"/></g><g id="b28_sub-erupted"><path d="M28 51.75h3v3h-3z" class="b28-cls-8"/><path d="M28 51.75h3v3h-3z" class="b28-cls-8"/><path d="M28 51.75h3v3h-3z" class="b28-cls-8"/></g><text id="b28_sealant" class="b28-cls-10" transform="translate(19.7 37.55)" data-color-action="fill" style="fill:inherit">S</text><g id="b28_root_decay" data-name="root decay"><path d="M28 51.75h3v3h-3z" class="b28-cls-8"/><path d="M28 51.75h3v3h-3z" class="b28-cls-8"/><path d="M28 51.75h3v3h-3z" class="b28-cls-8"/></g><g id="b28_root_canal" data-name="root canal"><path d="M28 51.75h3v3h-3z" class="b28-cls-8"/><path d="M28 51.75h3v3h-3z" class="b28-cls-8"/><path d="M28 51.75h3v3h-3z" class="b28-cls-8"/></g><g id="b28_root_abrasion" data-name="root abrasion"><path d="M28 51.75h3v3h-3z" class="b28-cls-8"/><path d="M28 51.75h3v3h-3z" class="b28-cls-8"/><path d="M28 51.75h3v3h-3z" class="b28-cls-8"/></g><g id="b28_post"><path d="M28 51.75h3v3h-3z" class="b28-cls-8"/><path d="M28 51.75h3v3h-3z" class="b28-cls-8"/><path d="M28 51.75h3v3h-3z" class="b28-cls-8"/></g><g id="b28_pins"><path d="M28 51.75h3v3h-3z" class="b28-cls-8"/><path d="M28 51.75h3v3h-3z" class="b28-cls-8"/><path d="M28 51.75h3v3h-3z" class="b28-cls-8"/></g><g id="b28_open_contact_mesial" data-name="open contact mesial"><path d="M28 51.75h3v3h-3z" class="b28-cls-8"/><path d="M28 51.75h3v3h-3z" class="b28-cls-8"/><path d="M28 51.75h3v3h-3z" class="b28-cls-8"/></g><g id="b28_open_contact_distal" data-name="open contact distal"><path d="M28 51.75h3v3h-3z" class="b28-cls-8"/><path d="M28 51.75h3v3h-3z" class="b28-cls-8"/><path d="M28 51.75h3v3h-3z" class="b28-cls-8"/></g><g id="b28_lingual_abfraction" data-name="lingual abfraction"><path d="M28 51.75h3v3h-3z" class="b28-cls-8"/><path d="M28 51.75h3v3h-3z" class="b28-cls-8"/><path d="M28 51.75h3v3h-3z" class="b28-cls-8"/></g><g id="b28_internal_root_resorption" data-name="internal root resorption"><path d="M28 51.75h3v3h-3z" class="b28-cls-8"/><path d="M28 51.75h3v3h-3z" class="b28-cls-8"/><path d="M28 51.75h3v3h-3z" class="b28-cls-8"/></g><g id="b28_gortex_membranes" data-name="gortex membranes"><path d="M28 51.75h3v3h-3z" class="b28-cls-8"/><path d="M28 51.75h3v3h-3z" class="b28-cls-8"/><path d="M28 51.75h3v3h-3z" class="b28-cls-8"/></g><g id="b28_frenum_pull" data-name="frenum pull"><path d="M28 51.75h3v3h-3z" class="b28-cls-8"/><path d="M28 51.75h3v3h-3z" class="b28-cls-8"/><path d="M28 51.75h3v3h-3z" class="b28-cls-8"/></g><g id="b28_external_root_resorption" data-name="external root resorption"><path d="M28 51.75h3v3h-3z" class="b28-cls-8"/><path d="M28 51.75h3v3h-3z" class="b28-cls-8"/><path d="M28 51.75h3v3h-3z" class="b28-cls-8"/></g><path id="b28_three_quarter_crown" d="M46.67 29.06C46 32.19 31.82 46.19 27.48 46.19c-3.91 0-14.37-12.83-15.08-16.91-.91-5.25 5.26-16.43 8.22-17.82 3.88-1.83 13.25-2.74 16.45.46 2.3 2.3 10.06 15.08 9.6 17.14z" class="b28-cls-12 b28-cls-16" data-color-action="fill" style="fill:inherit" data-name="three quarter crown"/><path id="b28_crown" d="M46.67 29.06C46 32.19 31.82 46.19 27.48 46.19c-3.91 0-14.37-12.83-15.08-16.91-.91-5.25 5.26-16.43 8.22-17.82 3.88-1.83 13.25-2.74 16.45.46 2.3 2.3 10.06 15.08 9.6 17.14z" class="b28-cls-12 b28-cls-16" data-color-action="fill" style="fill:inherit"/><path id="b28_cracked_surface_occlusal" d="M29.83 31.17L26 27.34h5l-5-4.74h5l-3.83-3.83" class="b28-cls-17" data-color-action="stroke" style="stroke:inherit" data-name="cracked surface occlusal"/><g id="b28_chipped_surface_occlusal" class="b28-cls-12" data-name="chipped surface occlusal"><path d="M32.33 29.5L24 21.17M24 29.5l8.33-8.33" class="b28-cls-18" data-color-action="stroke" style="stroke:inherit"/></g><g id="b28_buccal_abfraction" data-name="buccal abfraction"><path d="M28 51.75h3v3h-3z" class="b28-cls-8"/><path d="M28 51.75h3v3h-3z" class="b28-cls-8"/><path d="M28 51.75h3v3h-3z" class="b28-cls-8"/></g><g id="b28_braces"><path d="M28 51.75h3v3h-3z" class="b28-cls-8"/><path d="M28 51.75h3v3h-3z" class="b28-cls-8"/><path d="M28 51.75h3v3h-3z" class="b28-cls-8"/></g><g id="b28_apicoectomy"><path d="M28 51.75h3v3h-3z" class="b28-cls-8"/><path d="M28 51.75h3v3h-3z" class="b28-cls-8"/><path d="M28 51.75h3v3h-3z" class="b28-cls-8"/></g><g id="b28_abscess"><path d="M28 51.75h3v3h-3z" class="b28-cls-8"/><path d="M28 51.75h3v3h-3z" class="b28-cls-8"/><path d="M28 51.75h3v3h-3z" class="b28-cls-8"/></g><g id="b28_blunted_roots" data-name="blunted roots"><path d="M28 51.75h3v3h-3z" class="b28-cls-8"/><path d="M28 51.75h3v3h-3z" class="b28-cls-8"/><path d="M28 51.75h3v3h-3z" class="b28-cls-8"/></g><g id="b28_root_amputation" data-name="root amputation"><path d="M28 51.75h3v3h-3z" class="b28-cls-8"/><path d="M28 51.75h3v3h-3z" class="b28-cls-8"/><path d="M28 51.75h3v3h-3z" class="b28-cls-8"/></g><path id="b28_missing_crown" d="M2 2.21h55v51.77H2z" class="b28-cls-11" data-name="missing crown"/><g id="b28_missing_tooth" data-name="missing tooth"><path d="M46.67 29.06C46 32.19 31.82 46.19 27.48 46.19c-3.91 0-14.37-12.83-15.08-16.91-.91-5.25 5.26-16.43 8.22-17.82 3.88-1.83 13.25-2.74 16.45.46 2.3 2.3 10.06 15.08 9.6 17.14z" class="b28-cls-2"/><path d="M46.67 29.06C46 32.19 31.82 46.19 27.48 46.19c-3.91 0-14.37-12.83-15.08-16.91-.91-5.25 5.26-16.43 8.22-17.82 3.88-1.83 13.25-2.74 16.45.46 2.3 2.3 10.06 15.08 9.6 17.14z" class="b28-cls-11"/><path d="M38.9 30.43c-1.19.3-2.74-3.66-4.57-4.34s-7.08-1.83-8.91-1.14-4.11 4.57-4.8 4.11 1.83-3 2.06-4.34-3-4.8-2.06-5.48 3.2 3.43 4.57 3.88 7.08 1.6 7.54.69 2.74-4.34 3.43-3.43-1.14 3.2-.91 4.11 4.57 5.71 3.65 5.94zM27.48 46.19c-3.72 0-13.35-11.59-14.9-16.24a53.13 53.13 0 0 0 4.16 4.58c1.83 1.6 8.91 7.77 11.88 7.54s8-3.88 10.28-5.48c1.43-1 4.54-3.69 6.68-5.57-3.51 4.98-14.39 15.17-18.1 15.17zM37.07 13.52c-1.6-.46-8.45-1.6-11-1.37s-5.25.23-7.08 2.28c-.94 1.05-2.41 2.59-3.63 3.83 1.74-3.34 3.84-6.15 5.23-6.8 3.88-1.83 13.25-2.74 16.45.46a30.35 30.35 0 0 1 2.94 4 10.06 10.06 0 0 0-2.91-2.4z" class="b28-cls-11"/></g><g id="b28_maryland_bridge_pontic" class="b28-cls-12" data-name="maryland bridge pontic"><path d="M46.67 29.06C46 32.19 31.82 46.19 27.48 46.19c-3.91 0-14.37-12.83-15.08-16.91-.91-5.25 5.26-16.43 8.22-17.82 3.88-1.83 13.25-2.74 16.45.46 2.3 2.3 10.06 15.08 9.6 17.14z" class="b28-cls-13" data-color-action="fill" style="fill:inherit"/><path d="M36.58 24.17H57v7.67H36.58zM2 24.17h20.42v7.67H2z" class="b28-cls-13" data-color-action="fill" style="fill:inherit"/></g><g id="b28_maryland_bridge_abutment_mesial" data-name="maryland bridge abutment mesial"><g class="b28-cls-12"><path d="M36.58 24.17H57v7.67H36.58z" class="b28-cls-13" data-color-action="fill" style="fill:inherit"/><ellipse cx="37.81" cy="28" class="b28-cls-13" rx="5.61" ry="12.9" data-color-action="fill" style="fill:inherit"/></g><path d="M46.67 29.06C46 32.19 31.82 46.19 27.48 46.19c-3.91 0-14.37-12.83-15.08-16.91-.91-5.25 5.26-16.43 8.22-17.82 3.88-1.83 13.25-2.74 16.45.46 2.3 2.3 10.06 15.08 9.6 17.14z" class="b28-cls-2"/><path d="M46.67 29.06C46 32.19 31.82 46.19 27.48 46.19c-3.91 0-14.37-12.83-15.08-16.91-.91-5.25 5.26-16.43 8.22-17.82 3.88-1.83 13.25-2.74 16.45.46 2.3 2.3 10.06 15.08 9.6 17.14z" class="b28-cls-3"/><path d="M38.9 30.43c-1.19.3-2.74-3.66-4.57-4.34s-7.08-1.83-8.91-1.14-4.11 4.57-4.8 4.11 1.83-3 2.06-4.34-3-4.8-2.06-5.48 3.2 3.43 4.57 3.88 7.08 1.6 7.54.69 2.74-4.34 3.43-3.43-1.14 3.2-.91 4.11 4.57 5.71 3.65 5.94z" class="b28-cls-4"/><path d="M27.48 46.19c-3.72 0-13.35-11.59-14.9-16.24a53.13 53.13 0 0 0 4.16 4.58c1.83 1.6 8.91 7.77 11.88 7.54s8-3.88 10.28-5.48c1.43-1 4.54-3.69 6.68-5.57-3.51 4.98-14.39 15.17-18.1 15.17z" class="b28-cls-5"/><path d="M37.07 13.52c-1.6-.46-8.45-1.6-11-1.37s-5.25.23-7.08 2.28c-.94 1.05-2.41 2.59-3.63 3.83 1.74-3.34 3.84-6.15 5.23-6.8 3.88-1.83 13.25-2.74 16.45.46a30.35 30.35 0 0 1 2.94 4 10.06 10.06 0 0 0-2.91-2.4z" class="b28-cls-6"/></g><g id="b28_maryland_bridge_abutment_distal" data-name="maryland bridge abutment distal"><g class="b28-cls-12"><path d="M2 24.17h20.42v7.67H2z" class="b28-cls-13" data-color-action="fill" style="fill:inherit"/><ellipse cx="21.19" cy="28" class="b28-cls-13" rx="5.61" ry="12.9" data-color-action="fill" style="fill:inherit"/></g><path d="M46.67 29.06C46 32.19 31.82 46.19 27.48 46.19c-3.91 0-14.37-12.83-15.08-16.91-.91-5.25 5.26-16.43 8.22-17.82 3.88-1.83 13.25-2.74 16.45.46 2.3 2.3 10.06 15.08 9.6 17.14z" class="b28-cls-2"/><path d="M46.67 29.06C46 32.19 31.82 46.19 27.48 46.19c-3.91 0-14.37-12.83-15.08-16.91-.91-5.25 5.26-16.43 8.22-17.82 3.88-1.83 13.25-2.74 16.45.46 2.3 2.3 10.06 15.08 9.6 17.14z" class="b28-cls-3"/><path d="M38.9 30.43c-1.19.3-2.74-3.66-4.57-4.34s-7.08-1.83-8.91-1.14-4.11 4.57-4.8 4.11 1.83-3 2.06-4.34-3-4.8-2.06-5.48 3.2 3.43 4.57 3.88 7.08 1.6 7.54.69 2.74-4.34 3.43-3.43-1.14 3.2-.91 4.11 4.57 5.71 3.65 5.94z" class="b28-cls-4"/><path d="M27.48 46.19c-3.72 0-13.35-11.59-14.9-16.24a53.13 53.13 0 0 0 4.16 4.58c1.83 1.6 8.91 7.77 11.88 7.54s8-3.88 10.28-5.48c1.43-1 4.54-3.69 6.68-5.57-3.51 4.98-14.39 15.17-18.1 15.17z" class="b28-cls-5"/><path d="M37.07 13.52c-1.6-.46-8.45-1.6-11-1.37s-5.25.23-7.08 2.28c-.94 1.05-2.41 2.59-3.63 3.83 1.74-3.34 3.84-6.15 5.23-6.8 3.88-1.83 13.25-2.74 16.45.46a30.35 30.35 0 0 1 2.94 4 10.06 10.06 0 0 0-2.91-2.4z" class="b28-cls-6"/></g><g id="b28_maryland_bridge_abutment" data-name="maryland bridge abutment"><g class="b28-cls-12"><path d="M36.58 24.17H57v7.67H36.58zM2 24.17h20.42v7.67H2z" class="b28-cls-13" data-color-action="fill" style="fill:inherit"/><ellipse cx="21.19" cy="28" class="b28-cls-13" rx="5.61" ry="12.9" data-color-action="fill" style="fill:inherit"/><ellipse cx="37.81" cy="28" class="b28-cls-13" rx="5.61" ry="12.9" data-color-action="fill" style="fill:inherit"/></g><path d="M46.67 29.06C46 32.19 31.82 46.19 27.48 46.19c-3.91 0-14.37-12.83-15.08-16.91-.91-5.25 5.26-16.43 8.22-17.82 3.88-1.83 13.25-2.74 16.45.46 2.3 2.3 10.06 15.08 9.6 17.14z" class="b28-cls-2"/><path d="M46.67 29.06C46 32.19 31.82 46.19 27.48 46.19c-3.91 0-14.37-12.83-15.08-16.91-.91-5.25 5.26-16.43 8.22-17.82 3.88-1.83 13.25-2.74 16.45.46 2.3 2.3 10.06 15.08 9.6 17.14z" class="b28-cls-3"/><path d="M38.9 30.43c-1.19.3-2.74-3.66-4.57-4.34s-7.08-1.83-8.91-1.14-4.11 4.57-4.8 4.11 1.83-3 2.06-4.34-3-4.8-2.06-5.48 3.2 3.43 4.57 3.88 7.08 1.6 7.54.69 2.74-4.34 3.43-3.43-1.14 3.2-.91 4.11 4.57 5.71 3.65 5.94z" class="b28-cls-4"/><path d="M27.48 46.19c-3.72 0-13.35-11.59-14.9-16.24a53.13 53.13 0 0 0 4.16 4.58c1.83 1.6 8.91 7.77 11.88 7.54s8-3.88 10.28-5.48c1.43-1 4.54-3.69 6.68-5.57-3.51 4.98-14.39 15.17-18.1 15.17z" class="b28-cls-5"/><path d="M37.07 13.52c-1.6-.46-8.45-1.6-11-1.37s-5.25.23-7.08 2.28c-.94 1.05-2.41 2.59-3.63 3.83 1.74-3.34 3.84-6.15 5.23-6.8 3.88-1.83 13.25-2.74 16.45.46a30.35 30.35 0 0 1 2.94 4 10.06 10.06 0 0 0-2.91-2.4z" class="b28-cls-6"/></g><path id="b28_bridge_abutment" d="M46.67 29.06C46 32.19 31.82 46.19 27.48 46.19c-3.91 0-14.37-12.83-15.08-16.91-.91-5.25 5.26-16.43 8.22-17.82 3.88-1.83 13.25-2.74 16.45.46 2.3 2.3 10.06 15.08 9.6 17.14z" class="b28-cls-12 b28-cls-14" data-color-action="fill" style="fill:inherit" data-name="bridge abutment"/><path id="b28_bridge_pontic" d="M46.67 29.06C46 32.19 31.82 46.19 27.48 46.19c-3.91 0-14.37-12.83-15.08-16.91-.91-5.25 5.26-16.43 8.22-17.82 3.88-1.83 13.25-2.74 16.45.46 2.3 2.3 10.06 15.08 9.6 17.14z" class="b28-cls-12 b28-cls-14" data-color-action="fill" style="fill:inherit" data-name="bridge pontic"/><g id="b28_implant_mini" data-name="implant mini"><path d="M2 2.21h55v51.77H2z" class="b28-cls-11"/><circle cx="29.5" cy="28" r="2.61" class="b28-cls-14" data-color-action="fill" style="fill:inherit"/></g><g id="b28_implant_cylinder" data-name="implant cylinder"><path d="M2 2.21h55v51.77H2z" class="b28-cls-11"/><circle cx="29.5" cy="28" r="5" class="b28-cls-14" data-color-action="fill" style="fill:inherit"/><path d="M24.5 28a5 5 0 0 1 .09-.89h9.82a4.46 4.46 0 0 1 0 1.78h-9.82a5 5 0 0 1-.09-.89z" class="b28-cls-15" data-color-action="fill" style="fill:inherit"/></g><g id="b28_implant_blade" data-name="implant blade"><path d="M2 2.21h55v51.77H2z" class="b28-cls-11"/><circle cx="29.5" cy="28" r="5" class="b28-cls-14" data-color-action="fill" style="fill:inherit"/></g><g id="b28_border"><path d="M0 0h59v56H0z" class="b28-cls-8"/><path d="M0 0h59v56H0z" class="b28-cls-8" transform="rotate(180 29.5 28)"/></g></defs></g><g class="c28-cls-1"><g id="_28C" data-name="#28C"><path d="M39.18 24.81c.82 1.61 2.69 6.19 4.49 10.37 1.72 4.07 3.21 9.34.64 11.91-3.46 3.46-10.63 9.09-12.55 9.09S13.44 47 13.31 44.92s3.71-9.22 5-12.29c1-2.44 2.43-6.15 3.07-7.43s16.14-3.85 17.8-.39z" class="c28-cls-2"/><path d="M39.18 24.81c.82 1.61 2.69 6.19 4.49 10.37 1.72 4.07 3.21 9.34.64 11.91-3.46 3.46-10.63 9.09-12.55 9.09S13.44 47 13.31 44.92s3.71-9.22 5-12.29c1-2.44 2.43-6.15 3.07-7.43s16.14-3.85 17.8-.39z" class="c28-cls-3"/><path d="M36.5 26.09c-3.26.36-13.4.36-14.85 1.63-.68.59-1.55 1.5-2.29 2.3.78-2 1.58-4 2-4.82.64-1.28 16.14-3.84 17.8-.38.23.49.57 1.24 1 2.17a5.27 5.27 0 0 0-3.66-.9z" class="c28-cls-4"/><path d="M44.31 47.09c-3.46 3.46-10.63 9.09-12.55 9.09S13.44 47 13.31 44.92a10.5 10.5 0 0 1 1-3.53A11.31 11.31 0 0 0 15.86 44c1.09 1.45 15.94 9.06 16.84 8.87s7.43-4.32 10.3-7.4a10.84 10.84 0 0 0 2.49-4.29c.41 2.35.2 4.52-1.18 5.91z" class="c28-cls-5"/></g><defs><g id="c28_splinted_crowns" data-name="splinted crowns"><path d="M2 16.43h55v7.67H2z" class="c28-cls-12" data-color-action="fill" style="fill:inherit"/><path d="M39.18 24.81c.82 1.61 2.69 6.19 4.49 10.37 1.72 4.07 3.21 9.34.64 11.91-3.46 3.46-10.63 9.09-12.55 9.09S13.44 47 13.31 44.92s3.71-9.22 5-12.29c1-2.44 2.43-6.15 3.07-7.43s16.14-3.85 17.8-.39z" class="c28-cls-2"/><path d="M39.18 24.81c.82 1.61 2.69 6.19 4.49 10.37 1.72 4.07 3.21 9.34.64 11.91-3.46 3.46-10.63 9.09-12.55 9.09S13.44 47 13.31 44.92s3.71-9.22 5-12.29c1-2.44 2.43-6.15 3.07-7.43s16.14-3.85 17.8-.39z" class="c28-cls-3"/><path d="M36.5 26.09c-3.26.36-13.4.36-14.85 1.63-.68.59-1.55 1.5-2.29 2.3.78-2 1.58-4 2-4.82.64-1.28 16.14-3.84 17.8-.38.23.49.57 1.24 1 2.17a5.27 5.27 0 0 0-3.66-.9z" class="c28-cls-4"/><path d="M44.31 47.09c-3.46 3.46-10.63 9.09-12.55 9.09S13.44 47 13.31 44.92a10.5 10.5 0 0 1 1-3.53A11.31 11.31 0 0 0 15.86 44c1.09 1.45 15.94 9.06 16.84 8.87s7.43-4.32 10.3-7.4a10.84 10.84 0 0 0 2.49-4.29c.41 2.35.2 4.52-1.18 5.91z" class="c28-cls-5"/></g><path id="c28_mesial" d="M45.42 45.13L39.78 43c2.09-2 .21-6.17-.6-8.14-.33-.81.29-2.29 3.34-2.35l1.14 2.69c1.34 3.19 2.57 7.14 1.76 9.93z" class="c28-cls-6" data-color-action="fill" style="fill:inherit"/><path id="c28_line_angle_4" d="M38.76 51.94l-2.14-6.41A27.59 27.59 0 0 0 39.75 43l5.64 2.15a4.48 4.48 0 0 1-1.11 2 66.15 66.15 0 0 1-5.52 4.79z" class="c28-cls-6" data-color-action="fill" style="fill:inherit" data-name="line angle 4"/><path id="c28_cusp_2" d="M31.75 56.19c-.86 0-4.64-1.86-8.56-4.1l1.45-5.74A20.14 20.14 0 0 0 31 47.52a10.16 10.16 0 0 0 5.61-2l2.14 6.41c-2.93 2.31-5.87 4.26-7 4.26z" class="c28-cls-6" data-color-action="fill" style="fill:inherit" data-name="cusp 2"/><path id="c28_line_angle_3" d="M13.53 45.4l6.78-2.53a4.3 4.3 0 0 0 .43.9 7.8 7.8 0 0 0 3.9 2.58l-1.45 5.74c-4.24-2.42-8.64-5.28-9.66-6.69z" class="c28-cls-6" data-color-action="fill" style="fill:inherit" data-name="line angle 3"/><path id="c28_distal" d="M20.89 35.64c-.55 2-1.35 5.06-.57 7.23l-6.79 2.53a1 1 0 0 1-.22-.48c-.12-1.92 3.23-8.3 4.69-11.64 1.88.16 3.32.83 2.89 2.36z" class="c28-cls-6" data-color-action="fill" style="fill:inherit"/><ellipse id="c28_lingual" cx="30.24" cy="36.93" class="c28-cls-6" rx="3.96" ry="6.97" data-color-action="fill" style="fill:inherit"/><path id="c28_lingual_V" d="M23.2 24.36c3.5-1 11-1.93 14.43-.71a15.64 15.64 0 0 1-14.43.71z" class="c28-cls-6" data-color-action="fill" style="fill:inherit" data-name="lingual V"/><g id="c28_veneer"><path d="M28 61.75h3v3h-3z" class="c28-cls-7"/><path d="M28 61.75h3v3h-3z" class="c28-cls-7"/><path d="M28 61.75h3v3h-3z" class="c28-cls-7"/></g><g id="c28_tissue_graft" data-name="tissue graft"><path d="M28 61.75h3v3h-3z" class="c28-cls-7"/><path d="M28 61.75h3v3h-3z" class="c28-cls-7"/><path d="M28 61.75h3v3h-3z" class="c28-cls-7"/></g><g id="c28_tipped_lingual" class="c28-cls-8" data-name="tipped lingual"><path d="M30.35 60.07c-1.26 3.37-4.74 3.85-7.69-5.32-.5-1.56-4.42-1.76-3.84 0 2 6.08 5.31 10.2 9.06 9.27a4.86 4.86 0 0 0 3-3.38 5.27 5.27 0 0 1-.53-.57z" class="c28-cls-9" data-color-action="fill" style="fill:inherit"/><path d="M28.27 57.15H15.33l2.94-9.64 10 9.64z" class="c28-cls-9" data-color-action="fill" style="fill:inherit"/></g><g id="c28_tipped_facial" data-name="tipped facial"><path d="M28 61.75h3v3h-3z" class="c28-cls-7"/><path d="M28 61.75h3v3h-3z" class="c28-cls-7"/><path d="M28 61.75h3v3h-3z" class="c28-cls-7"/></g><path id="c28_surface_restoration_occlusal" d="M31.75 56.18c1.62 0 7-4 10.71-7.36l-5.29-4.66a62.43 62.43 0 0 1-5.69 4.43c-2.35-1.15-6-3.22-8.81-5l-5.36 4.86c5.01 3.4 13.13 7.73 14.44 7.73z" class="c28-cls-10" data-color-action="fill" style="fill:inherit" data-name="surface restoration occlusal"/><path id="c28_surface_restoration_mesial" d="M35.91 28.17c1.29 6.43 2.73 14.2 2.76 14.63-.48.45-1 .91-1.5 1.36l5.29 4.66c.68-.61 1.31-1.2 1.84-1.73 2.57-2.57 1.08-7.85-.64-11.91l-.83-1.95a11.5 11.5 0 0 1-6.92-5.06z" class="c28-cls-10" data-color-action="fill" style="fill:inherit" data-name="surface restoration mesial"/><path id="c28_surface_restoration_lingual" d="M26.73 26.73a11.41 11.41 0 0 1-1.53 3c-1.68 5.84-3.55 12.3-3.87 13l.93.6.4.25c2.81 1.77 6.46 3.84 8.82 5a62.44 62.44 0 0 0 5.69-4.43c.52-.45 1-.91 1.5-1.36 0-.43-1.47-8.2-2.76-14.63a11.55 11.55 0 0 1-.9-1.81 12.57 12.57 0 0 1-8.29.38z" class="c28-cls-8 c28-cls-11" data-color-action="fill" style="fill:inherit" data-name="surface restoration lingual"/><path id="c28_surface_restoration_lingual_V" d="M27.31 23.53a11.5 11.5 0 0 1-.58 3.21 12.57 12.57 0 0 0 8.27-.39 11.33 11.33 0 0 1-.8-3.25 38 38 0 0 0-6.89.43z" class="c28-cls-8 c28-cls-11" data-color-action="fill" style="fill:inherit" data-name="surface restoration lingual V"/><path id="c28_surface_restoration_distal" d="M21.34 42.75c.31-.71 2.19-7.16 3.87-13a11.48 11.48 0 0 1-7.73 4.72c-1.63 3.49-4.27 8.74-4.16 10.45 0 .64 1.69 2 4 3.55l5.36-4.86-.4-.25z" class="c28-cls-10" data-color-action="fill" style="fill:inherit" data-name="surface restoration distal"/><g id="c28_supra-erupted"><path d="M28 61.75h3v3h-3z" class="c28-cls-7"/><path d="M28 61.75h3v3h-3z" class="c28-cls-7"/><path d="M28 61.75h3v3h-3z" class="c28-cls-7"/></g><g id="c28_sub-erupted"><path d="M28 61.75h3v3h-3z" class="c28-cls-7"/><path d="M28 61.75h3v3h-3z" class="c28-cls-7"/><path d="M28 61.75h3v3h-3z" class="c28-cls-7"/></g><g id="c28_sealant"><path d="M28 61.75h3v3h-3z" class="c28-cls-7"/><path d="M28 61.75h3v3h-3z" class="c28-cls-7"/><path d="M28 61.75h3v3h-3z" class="c28-cls-7"/></g><g id="c28_root_decay" data-name="root decay"><path d="M28 61.75h3v3h-3z" class="c28-cls-7"/><path d="M28 61.75h3v3h-3z" class="c28-cls-7"/><path d="M28 61.75h3v3h-3z" class="c28-cls-7"/></g><g id="c28_root_canal" data-name="root canal"><path d="M28 61.75h3v3h-3z" class="c28-cls-7"/><path d="M28 61.75h3v3h-3z" class="c28-cls-7"/><path d="M28 61.75h3v3h-3z" class="c28-cls-7"/></g><g id="c28_root_abrasion" data-name="root abrasion"><path d="M28 61.75h3v3h-3z" class="c28-cls-7"/><path d="M28 61.75h3v3h-3z" class="c28-cls-7"/><path d="M28 61.75h3v3h-3z" class="c28-cls-7"/></g><g id="c28_open_contact_mesial" data-name="open contact mesial"><path d="M28 61.75h3v3h-3z" class="c28-cls-7"/><path d="M28 61.75h3v3h-3z" class="c28-cls-7"/><path d="M28 61.75h3v3h-3z" class="c28-cls-7"/></g><g id="c28_open_contact_distal" data-name="open contact distal"><path d="M28 61.75h3v3h-3z" class="c28-cls-7"/><path d="M28 61.75h3v3h-3z" class="c28-cls-7"/><path d="M28 61.75h3v3h-3z" class="c28-cls-7"/></g><path id="c28_lingual_abfraction" d="M39.67 21.16a18.4 18.4 0 0 0-10.17-3.58 18.4 18.4 0 0 0-10.17 3.58 18.4 18.4 0 0 0 10.17 3.59 18.4 18.4 0 0 0 10.17-3.59z" class="c28-cls-15" data-color-action="fill" style="fill:inherit" data-name="lingual abfraction"/><g id="c28_internal_root_resorption" data-name="internal root resorption"><path d="M28 61.75h3v3h-3z" class="c28-cls-7"/><path d="M28 61.75h3v3h-3z" class="c28-cls-7"/><path d="M28 61.75h3v3h-3z" class="c28-cls-7"/></g><g id="c28_gortex_membranes" data-name="gortex membranes"><path d="M28 61.75h3v3h-3z" class="c28-cls-7"/><path d="M28 61.75h3v3h-3z" class="c28-cls-7"/><path d="M28 61.75h3v3h-3z" class="c28-cls-7"/></g><g id="c28_frenum_pull" data-name="frenum pull"><path d="M28 61.75h3v3h-3z" class="c28-cls-7"/><path d="M28 61.75h3v3h-3z" class="c28-cls-7"/><path d="M28 61.75h3v3h-3z" class="c28-cls-7"/></g><g id="c28_external_root_resorption" data-name="external root resorption"><path d="M28 61.75h3v3h-3z" class="c28-cls-7"/><path d="M28 61.75h3v3h-3z" class="c28-cls-7"/><path d="M28 61.75h3v3h-3z" class="c28-cls-7"/></g><path id="c28_three_quarter_crown" d="M15.77 38.08c-1.3 2.8-2.53 5.66-2.46 6.83.13 2 16.52 11.27 18.44 11.27s9.09-5.64 12.55-9.09c2-2 1.55-5.6.45-9z" class="c28-cls-8 c28-cls-19" data-color-action="fill" style="fill:inherit" data-name="three quarter crown"/><path id="c28_crown" d="M39.18 24.81c.82 1.61 2.69 6.19 4.49 10.37 1.72 4.07 3.21 9.34.64 11.91-3.46 3.46-10.63 9.09-12.55 9.09S13.44 47 13.31 44.92s3.71-9.22 5-12.29c1-2.44 2.43-6.15 3.07-7.43s16.14-3.85 17.8-.39z" class="c28-cls-8 c28-cls-19" data-color-action="fill" style="fill:inherit"/><path id="c28_cracked_surface_distal" d="M17.66 46.19l-3.83-3.84h5.01l-5.01-4.74h5.01l-3.83-3.83" class="c28-cls-20" data-color-action="stroke" style="stroke:inherit" data-name="cracked surface distal"/><path id="c28_cracked_surface_lingual" d="M30.83 46.19L27 42.35h5l-5-4.74h5l-3.83-3.83" class="c28-cls-20" data-color-action="stroke" style="stroke:inherit" data-name="cracked surface lingual"/><path id="c28_cracked_surface_lingual_V" d="M30.83 46.19L27 42.35h5l-5-4.74h5l-3.83-3.83" class="c28-cls-20" data-color-action="stroke" style="stroke:inherit" data-name="cracked surface lingual V"/><path id="c28_cracked_surface_mesial" d="M45.66 46.19l-3.83-3.84h5l-5-4.74h5L43 33.78" class="c28-cls-20" data-color-action="stroke" style="stroke:inherit" data-name="cracked surface mesial"/><g id="c28_chipped_surface_distal" class="c28-cls-8" data-name="chipped surface distal"><path d="M21.17 44.51l-8.33-8.33M12.84 44.51l8.33-8.33" class="c28-cls-21" data-color-action="stroke" style="stroke:inherit"/></g><g id="c28_chipped_surface_lingual" class="c28-cls-8" data-name="chipped surface lingual"><path d="M33.33 44.51L25 36.18M25 44.51l8.33-8.33" class="c28-cls-21" data-color-action="stroke" style="stroke:inherit"/></g><g id="c28_chipped_surface_lingual_V" class="c28-cls-8" data-name="chipped surface lingual V"><path d="M33.33 44.51L25 36.18M25 44.51l8.33-8.33" class="c28-cls-21" data-color-action="stroke" style="stroke:inherit"/></g><g id="c28_chipped_surface_mesial" class="c28-cls-8" data-name="chipped surface mesial"><path d="M47.33 44.51L39 36.18M39 44.51l8.33-8.33" class="c28-cls-21" data-color-action="stroke" style="stroke:inherit"/></g><g id="c28_buccal_abfraction" data-name="buccal abfraction"><path d="M28 61.75h3v3h-3z" class="c28-cls-7"/><path d="M28 61.75h3v3h-3z" class="c28-cls-7"/><path d="M28 61.75h3v3h-3z" class="c28-cls-7"/></g><g id="c28_braces"><path d="M28 61.75h3v3h-3z" class="c28-cls-7"/><path d="M28 61.75h3v3h-3z" class="c28-cls-7"/><path d="M28 61.75h3v3h-3z" class="c28-cls-7"/></g><g id="c28_apicoectomy"><path d="M28 61.75h3v3h-3z" class="c28-cls-7"/><path d="M28 61.75h3v3h-3z" class="c28-cls-7"/><path d="M28 61.75h3v3h-3z" class="c28-cls-7"/></g><g id="c28_abscess"><path d="M28 61.75h3v3h-3z" class="c28-cls-7"/><path d="M28 61.75h3v3h-3z" class="c28-cls-7"/><path d="M28 61.75h3v3h-3z" class="c28-cls-7"/></g><g id="c28_blunted_roots" data-name="blunted roots"><path d="M28 61.75h3v3h-3z" class="c28-cls-7"/><path d="M28 61.75h3v3h-3z" class="c28-cls-7"/><path d="M28 61.75h3v3h-3z" class="c28-cls-7"/></g><g id="c28_root_amputation" data-name="root amputation"><path d="M28 61.75h3v3h-3z" class="c28-cls-7"/><path d="M28 61.75h3v3h-3z" class="c28-cls-7"/><path d="M28 61.75h3v3h-3z" class="c28-cls-7"/></g><g id="c28_missing_crown" data-name="missing crown"><path d="M28 61.75h3v3h-3z" class="c28-cls-7"/><path d="M28 61.75h3v3h-3z" class="c28-cls-7"/><path d="M28 61.75h3v3h-3z" class="c28-cls-7"/><path d="M2 2h55v61.98H2z" class="c28-cls-13"/></g><g id="c28_missing_tooth" data-name="missing tooth"><path d="M39.18 24.81c.82 1.61 2.69 6.19 4.49 10.37 1.72 4.07 3.21 9.34.64 11.91-3.46 3.46-10.63 9.09-12.55 9.09S13.44 47 13.31 44.92s3.71-9.22 5-12.29c1-2.44 2.43-6.15 3.07-7.43s16.14-3.85 17.8-.39z" class="c28-cls-2"/><path d="M39.18 24.81c.82 1.61 2.69 6.19 4.49 10.37 1.72 4.07 3.21 9.34.64 11.91-3.46 3.46-10.63 9.09-12.55 9.09S13.44 47 13.31 44.92s3.71-9.22 5-12.29c1-2.44 2.43-6.15 3.07-7.43s16.14-3.85 17.8-.39z" class="c28-cls-13"/><path d="M36.5 26.09c-3.26.36-13.4.36-14.85 1.63-.68.59-1.55 1.5-2.29 2.3.78-2 1.58-4 2-4.82.64-1.28 16.14-3.84 17.8-.38.23.49.57 1.24 1 2.17a5.27 5.27 0 0 0-3.66-.9zM44.31 47.09c-3.46 3.46-10.63 9.09-12.55 9.09S13.44 47 13.31 44.92a10.5 10.5 0 0 1 1-3.53A11.31 11.31 0 0 0 15.86 44c1.09 1.45 15.94 9.06 16.84 8.87s7.43-4.32 10.3-7.4a10.84 10.84 0 0 0 2.49-4.29c.41 2.35.2 4.52-1.18 5.91z" class="c28-cls-13"/></g><g id="c28_maryland_bridge_pontic" class="c28-cls-8" data-name="maryland bridge pontic"><path d="M39.18 24.81c.82 1.61 2.69 6.19 4.49 10.37 1.72 4.07 3.21 9.34.64 11.91-3.46 3.46-10.63 9.09-12.55 9.09S13.44 47 13.31 44.92s3.71-9.22 5-12.29c1-2.44 2.43-6.15 3.07-7.43s16.14-3.85 17.8-.39z" class="c28-cls-14" data-color-action="fill" style="fill:inherit"/><path d="M2 33.37h55v7.67H2z" class="c28-cls-14" data-color-action="fill" style="fill:inherit"/></g><g id="c28_maryland_bridge_abutment_mesial" class="c28-cls-8" data-name="maryland bridge abutment mesial"><path d="M36.58 34.17H57v7.67H36.58z" class="c28-cls-14" data-color-action="fill" style="fill:inherit"/><ellipse cx="37.81" cy="38.01" class="c28-cls-14" rx="5.61" ry="12.9" data-color-action="fill" style="fill:inherit"/></g><g id="c28_maryland_bridge_abutment_distal" class="c28-cls-8" data-name="maryland bridge abutment distal"><path d="M2 34.17h20.42v7.67H2z" class="c28-cls-14" data-color-action="fill" style="fill:inherit"/><ellipse cx="21.19" cy="38.01" class="c28-cls-14" rx="5.61" ry="12.9" data-color-action="fill" style="fill:inherit"/></g><g id="c28_maryland_bridge_abutment" class="c28-cls-8" data-name="maryland bridge abutment"><path d="M36.58 34.17H57v7.67H36.58zM2 34.17h20.42v7.67H2z" class="c28-cls-14" data-color-action="fill" style="fill:inherit"/><ellipse cx="21.19" cy="38.01" class="c28-cls-14" rx="5.61" ry="12.9" data-color-action="fill" style="fill:inherit"/><ellipse cx="37.81" cy="38.01" class="c28-cls-14" rx="5.61" ry="12.9" data-color-action="fill" style="fill:inherit"/></g><g id="c28_bridge_abutment_mesial" class="c28-cls-8" data-name="bridge abutment mesial"><path d="M39.18 24.81c.82 1.61 2.69 6.19 4.49 10.37 1.72 4.07 3.21 9.34.64 11.91-3.46 3.46-10.63 9.09-12.55 9.09S13.44 47 13.31 44.92s3.71-9.22 5-12.29c1-2.44 2.43-6.15 3.07-7.43s16.14-3.85 17.8-.39z" class="c28-cls-11" data-color-action="fill" style="fill:inherit"/><path d="M22.02 33.6H57v7.67H22.02z" class="c28-cls-11" data-color-action="fill" style="fill:inherit"/></g><g id="c28_bridge_abutment_distal" class="c28-cls-8" data-name="bridge abutment distal"><path d="M39.18 24.81c.82 1.61 2.69 6.19 4.49 10.37 1.72 4.07 3.21 9.34.64 11.91-3.46 3.46-10.63 9.09-12.55 9.09S13.44 47 13.31 44.92s3.71-9.22 5-12.29c1-2.44 2.43-6.15 3.07-7.43s16.14-3.85 17.8-.39z" class="c28-cls-11" data-color-action="fill" style="fill:inherit"/><path d="M2 33.6h34.98v7.67H2z" class="c28-cls-11" data-color-action="fill" style="fill:inherit"/></g><g id="c28_bridge_abutment" class="c28-cls-8" data-name="bridge abutment"><path d="M39.18 24.81c.82 1.61 2.69 6.19 4.49 10.37 1.72 4.07 3.21 9.34.64 11.91-3.46 3.46-10.63 9.09-12.55 9.09S13.44 47 13.31 44.92s3.71-9.22 5-12.29c1-2.44 2.43-6.15 3.07-7.43s16.14-3.85 17.8-.39z" class="c28-cls-11" data-color-action="fill" style="fill:inherit"/><path d="M2 33.6h55v7.67H2z" class="c28-cls-11" data-color-action="fill" style="fill:inherit"/></g><g id="c28_bridge_pontic" class="c28-cls-8" data-name="bridge pontic"><path d="M39.18 24.81c.82 1.61 2.69 6.19 4.49 10.37 1.72 4.07 3.21 9.34.64 11.91-3.46 3.46-10.63 9.09-12.55 9.09S13.44 47 13.31 44.92s3.71-9.22 5-12.29c1-2.44 2.43-6.15 3.07-7.43s16.14-3.85 17.8-.39z" class="c28-cls-11" data-color-action="fill" style="fill:inherit"/><path d="M2 33.6h55v7.67H2z" class="c28-cls-11" data-color-action="fill" style="fill:inherit"/></g><g id="c28_implant_mini" data-name="implant mini"><path d="M2 2h55v61.98H2z" class="c28-cls-13"/><path d="M29.72 0h-.44l-1 8.5v40.83h2.44V8.5l-1-8.5z" class="c28-cls-11" data-color-action="fill" style="fill:inherit"/><path d="M29.42 0h-.07l-.4 8.5v40.83h.37V8.5l.1-8.5z" class="c28-cls-16"/><path d="M28.28 48.7h2.44v.63h-2.44z" class="c28-cls-17" data-color-action="fill" style="fill:inherit"/><g class="c28-cls-18"><path d="M28.28 48.7l2.44-1v.63l-2.44 1v-.63zM28.28 47.26l2.44-1v.63l-2.44 1v-.63zM28.28 45.81l2.44-1v.63l-2.44 1v-.63zM28.28 44.36l2.44-1V44l-2.44 1v-.64zM28.28 42.92l2.44-1v.63l-2.44 1v-.63zM28.28 41.47l2.44-1v.63l-2.44 1.01v-.64zM28.28 40.03l2.44-1v.63l-2.44 1v-.63zM28.28 38.58l2.44-1v.63l-2.44 1.01v-.64zM28.28 37.14l2.44-1v.63l-2.44 1v-.63zM28.28 35.69l2.44-1v.63l-2.44 1v-.63zM28.28 34.25l2.44-1.01v.64l-2.44 1v-.63zM28.28 32.8l2.44-1v.63l-2.44 1v-.63zM28.28 31.36l2.44-1v.63l-2.44 1v-.63zM28.28 29.91l2.44-1v.63l-2.44 1v-.63zM28.28 28.46l2.44-1v.64l-2.44 1v-.64zM28.28 27.02l2.44-1v.63l-2.44 1v-.63zM28.28 25.57l2.44-1v.63l-2.44 1.01v-.64zM28.28 24.13l2.44-1v.63l-2.44 1v-.63zM28.28 22.68l2.44-1v.63l-2.44 1.01v-.64zM28.28 21.24l2.44-1v.63l-2.44 1v-.63zM28.28 19.79l2.44-1v.63l-2.44 1v-.63zM28.28 18.35l2.44-1.01v.64l-2.44 1v-.63zM28.28 16.9l2.44-1v.63l-2.44 1v-.63zM28.28 15.46l2.44-1v.63l-2.44 1v-.63zM28.28 14.01l2.44-1v.63l-2.44 1v-.63zM28.28 12.56l2.44-1v.64l-2.44 1v-.64zM28.28 11.12l2.44-1v.63l-2.44 1v-.63zM28.28 9.67l2.44-1v.63l-2.44 1.01v-.64zM28.28 8.5l.03-.29 2.27-.92.07.6-2.37.97V8.5zM28.49 6.7l1.93-.79.07.6-2.08.85.08-.66zM28.67 5.18l1.58-.65.08.6-1.74.71.08-.66zM28.85 3.66l1.24-.51.07.6-1.39.57.08-.66zM29.03 2.14l.9-.37.07.6-1.05.43.08-.66zM29.2.62l.57-.23.07.6-.71.3.07-.67z" class="c28-cls-17" data-color-action="fill" style="fill:inherit"/></g><circle cx="29.5" cy="53.21" r="2.24" class="c28-cls-11" data-color-action="fill" style="fill:inherit"/><path d="M27.67 48.99h3.67v3h-3.67z" class="c28-cls-11" data-color-action="fill" style="fill:inherit"/><path d="M28.49 48.99h.55v3h-.55z" class="c28-cls-16"/><path d="M28.7 54.56h-.21a2.32 2.32 0 0 1-.49-1.28 2.37 2.37 0 0 1 .52-1.3H29a2 2 0 0 0-.73 1.37 1.5 1.5 0 0 0 .43 1.21z" class="c28-cls-16"/><path d="M28.28 42.63h2.44v.63h-2.44z" class="c28-cls-17" data-color-action="fill" style="fill:inherit"/><path d="M32.11 49.01h-5.22l.87-5.71h3.48l.87 5.71z" class="c28-cls-11" data-color-action="fill" style="fill:inherit"/><path d="M28.85 49.01h-.79l.48-5.71h.53l-.22 5.71z" class="c28-cls-16"/></g><g id="c28_implant_cylinder" data-name="implant cylinder"><path d="M2 2h55v61.98H2z" class="c28-cls-13"/><path d="M26.17 3h6.67v49.33h-6.67zM24.5 0h10v3h-10z" class="c28-cls-11" data-color-action="fill" style="fill:inherit"/><path d="M28 3h1v49.33h-1zM26.75 0h1.5v3h-1.5z" class="c28-cls-16"/><path d="M24.5 52.36h10v3h-10z" class="c28-cls-11" data-color-action="fill" style="fill:inherit"/><path d="M26.75 52.36h1.5v3h-1.5z" class="c28-cls-16"/><path d="M26.17 3h6.67v.63h-6.67zM26.17 51.7h6.67v.63h-6.67z" class="c28-cls-17" data-color-action="fill" style="fill:inherit"/><g class="c28-cls-18"><path d="M32.83 50.7l-6.66 1v.63l6.66-1v-.63zM32.83 49.25l-6.66 1v.63l6.66-1v-.63zM32.83 47.81l-6.66 1v.63l6.66-1v-.63zM32.83 46.36l-6.66 1v.63l6.66-1v-.63zM32.83 44.92l-6.66 1v.63l6.66-1v-.63zM32.83 43.47l-6.66 1v.63l6.66-1v-.63zM32.83 42.02l-6.66 1v.64l6.66-1v-.64zM32.83 40.58l-6.66 1v.63l6.66-1v-.63zM32.83 39.13l-6.66 1v.64l6.66-1v-.64zM32.83 37.69l-6.66 1v.63l6.66-1v-.63zM32.83 36.24l-6.66 1v.64l6.66-1v-.64zM32.83 34.8l-6.66 1v.63l6.66-1v-.63zM32.83 33.35l-6.66 1v.63l6.66-1v-.63zM32.83 31.91l-6.66 1v.63l6.66-1v-.63zM32.83 30.46l-6.66 1v.63l6.66-1v-.63zM32.83 29.02l-6.66 1v.63l6.66-1v-.63zM32.83 27.57l-6.66 1v.63l6.66-1v-.63zM32.83 26.13l-6.66 1v.63l6.66-1v-.63zM32.83 24.68l-6.66 1v.63l6.66-1v-.63zM32.83 23.23l-6.66 1v.64l6.66-1v-.64zM32.83 21.79l-6.66 1v.63l6.66-1v-.63zM32.83 20.34l-6.66 1v.64l6.66-1v-.64zM32.83 18.9l-6.66 1v.63l6.66-1v-.63zM32.83 17.45l-6.66 1v.64l6.66-1.01v-.63zM32.83 16.01l-6.66 1v.63l6.66-1v-.63zM32.83 14.56l-6.66 1v.63l6.66-1v-.63zM32.83 13.12l-6.66 1v.63l6.66-1v-.63zM32.83 11.67l-6.66 1v.63l6.66-1v-.63zM32.83 10.22l-6.66 1v.64l6.66-1v-.64zM32.83 8.78l-6.66 1v.63l6.66-1v-.63zM32.83 7.33l-6.66 1.01v.63l6.66-1v-.64zM32.83 5.89l-6.66 1v.63l6.66-1v-.63zM32.83 4.44l-6.66 1v.64l6.66-1v-.64zM32.83 3l-6.66 1v.63l6.66-1V3z" class="c28-cls-17" data-color-action="fill" style="fill:inherit"/></g></g><g id="c28_implant_blade" data-name="implant blade"><path d="M2 2h55v61.98H2z" class="c28-cls-13"/><path d="M26.17 3.03h6.67v49.33h-6.67zM24.5 52.36h10v3h-10z" class="c28-cls-11" data-color-action="fill" style="fill:inherit"/><path d="M28 3.03h1v49.33h-1zM26.75 52.36h1.5v3h-1.5z" class="c28-cls-16"/><path d="M26.17 51.73h6.67v.63h-6.67z" class="c28-cls-17" data-color-action="fill" style="fill:inherit"/></g><path id="c28_border" d="M0 0h59v66H0z" class="c28-cls-7" transform="rotate(180 29.5 33)"/></defs></g></svg>