<svg version="1.1" xmlns="http://www.w3.org/2000/svg" xmlns:xlink="http://www.w3.org/1999/xlink" x="0px" y="0px" viewBox="0 0 59 283" style="enable-background:new 0 0 59 161;" xml:space="preserve"><defs><style type="text/css">.aP-cls-2{fill:#929497;stroke:none;}.aP-cls-3{font-family:'ProximaNova-Semibold',sans-serif;}.aP-cls-4{font-size:15px;}.aP-cls-5{fill:#C5C7C9;stroke:#C5C7C9;stroke-width:5;stroke-miterlimit:10;}.aP-cls-6{fill:#F5D7CF;stroke:none;}.aP-cls-7{fill:#F2C6BC;stroke:none;}.aP-cls-8{fill:#FAE8E3;stroke:none;}.aP-cls-9{fill:#EEEFEF;stroke:none;}.aP-cls-10{fill:#E2E3E4;stroke:none;}.aP-cls-11{fill:#FBFBFB;stroke:none;}.aP-cls-12{opacity:0.55;fill:#3C3D3D;stroke:none;}.aP-cls-13{fill:#FFD403;stroke:none;}.aP-cls-14{fill:none;stroke:#C52636;stroke-width:3.622;stroke-miterlimit:10;}.aP-cls-15{font-family:'ProximaNova-Bold',sans-serif;}.aP-cls-16{font-size:13.6587px;}.aP-cls-17{fill:none;stroke:none;}.aP-cls-18{fill:#28418B;stroke:none;}.aP-cls-19{fill:#787878;stroke:none;}.aP-cls-20{fill:none;stroke:#C52636;stroke-width:2;stroke-miterlimit:10;}.aP-cls-21{fill:#C52636;stroke:none;}.aP-cls-22{fill:none;stroke:#C52636;stroke-width:2;stroke-linecap:round;stroke-miterlimit:10;}.aP-cls-23{fill:#C5C7C9;stroke:none;}.aP-cls-24{fill:#FFF;stroke:none;}.aP-cls-25{fill:none;stroke:#28418B;stroke-width:2;stroke-miterlimit:10;}.aP-cls-26{fill:#FFEF3E;stroke:none;}.aP-cls-27{fill:none;stroke:#C52636;stroke-width:1.25;stroke-miterlimit:10;}.aP-cls-28{fill:#9B9999;stroke:none;}.aP-cls-29{fill:#DBDBDC;stroke:none;}.aP-cls-30{fill:#3C3D3D;stroke:none;}.cP-cls-2{fill:#C4C6C7;stroke:#C4C6C7;stroke-width:5;stroke-miterlimit:10;}.cP-cls-3{fill:#EEEFEF;stroke:none;}.cP-cls-4{fill:#FBFBFB;stroke:none;}.cP-cls-5{fill:#E2E3E4;stroke:none;}.cP-cls-6{opacity:0.55;fill:#3C3D3D;stroke:none;}.cP-cls-7{fill:#28418B;stroke:none;}.cP-cls-8{fill:#787878;stroke:none;}.cP-cls-9{fill:#FFF;stroke:none;}.cP-cls-10{fill:#FFEF3E;stroke:none;}.cP-cls-11{fill:none;stroke:#C52636;stroke-width:1.25;stroke-miterlimit:10;}.cP-cls-12{fill:none;stroke:none;}.aP-cls-31{font-family:'ProximaNova-Semibold',sans-serif;font-size:33px;fill:#28418B;stroke:none;}.aP-msng-cls-1{isolation:isolate;}.aP-msng-cls-2{font-size:15px;fill:#929497;font-family:ProximaNova-Semibold,Proxima Nova;font-weight:700;stroke:none;}.aP-msng-cls-3{fill:#C5C7C9;stroke:#C5C7C9;stroke-width:5px;}.aP-msng-cls-11,.aP-msng-cls-3{stroke-miterlimit:10;}.aP-msng-cls-4{fill:#F5D7CF;stroke:none;}.aP-msng-cls-5{fill:#F2C6BC;stroke:none;}.aP-msng-cls-6{fill:#FAE8E3;stroke:none;}.aP-msng-cls-7{fill:#EEEFEF;stroke:none;}.aP-msng-cls-8{fill:#E2E3E4;stroke:none;}.aP-msng-cls-9{fill:#FBFBFB;stroke:none;}.aP-msng-cls-10{}.aP-msng-cls-11,.aP-msng-cls-12{fill:none;stroke:none;}.aP-msng-cls-11{stroke:#787878;stroke-width:6.25px;}</style></defs><title>ToothPS_Layered</title><g class="aP-cls-1" transform="translate(0 122)"><g id="_Pa">	<text transform="matrix(1 0 0 1 19.7797 150.7422)" class="aP-cls-2 aP-cls-3 aP-cls-4">PS</text>	<g>		<path class="aP-cls-5" d="M37.8,12.5c1.5,1.1,2.5,15.5-0.7,20.1c-0.1,0.2-0.3,0.3-0.5,0.5c0,3.6-1.2,17.4-3.2,26.1    c-2.1,9.4-6.8,14.7-7.7,14.3c-1.7-0.7,0.1-6.3-0.3-16.6c-0.3-7.3-2.8-21.7-3.1-23.4c-0.1,0-0.2-0.1-0.2-0.1    c-3.1-2.3-2.8-16.7-0.6-19C23.8,12.1,36.7,11.7,37.8,12.5z" />		<path class="aP-cls-6" d="M36.6,32.4c0.2,1.8-1,17.4-3.1,26.8s-6.8,14.7-7.7,14.3c-1.7-0.7,0.1-6.3-0.3-16.6    c-0.3-7.4-2.9-22.3-3.1-23.5C21.5,29.4,36,27,36.6,32.4z" />		<path class="aP-cls-7" d="M35.3,36.2c0.1-1.9-0.1-4.1,0.4-5.6c0.5,0.5,0.9,1.1,1,1.8c0.2,1.8-1,17.4-3.1,26.8c-0.9,4.1-2.3,7.4-3.7,9.8    c1.1-2.4,2.5-6.1,2.9-9.3C33.4,54.6,35.2,38.9,35.3,36.2z" />		<path class="aP-cls-7" d="M25.4,56.9c-0.3-7.4-2.9-22.3-3.1-23.5c-0.1-0.5,0-1,0.4-1.4c0.4,0.4,0.8,0.9,0.9,1.4c0.5,2,1.1,7.2,1.9,12.9    c0.8,5.6,0.9,12.7,0.6,15.5c-0.1,1.5-0.4,2.7-0.7,3.9C25.5,63.3,25.6,60.4,25.4,56.9z" />		<path class="aP-cls-8" d="M28,34.5c-0.1,1.9,0.6,9.7,1,13.8c0.5,4.6,0.5,11.5-0.6,16.7c-0.6,2.8-1.5,6.2-2,6c-0.5-0.2,1-6.6,1.1-9.5    c0.3-14.1-2.2-25.6-2.2-26.9S28.2,32.2,28,34.5z" />		<path class="aP-cls-9" d="M37.1,32.6c3.2-4.6,2.1-19,0.7-20.1c-1.1-0.8-14-0.5-16.3,1.9s-2.6,16.7,0.6,19    C23.8,34.6,35.2,35.4,37.1,32.6z" />		<g>			<path class="aP-cls-10" d="M36.3,12.2c0.8,0.1,1.3,0.2,1.5,0.3c1.5,1.1,2.5,15.5-0.7,20.1c-0.3,0.5-0.9,0.8-1.7,1.1     C37.4,28.8,37.1,16.5,36.3,12.2z" />			<path class="aP-cls-10" d="M21.5,14.4c0.3-0.3,0.9-0.6,1.7-0.9c-1.3,3.4-1.5,16,0.1,20.4c-0.5-0.1-0.9-0.3-1.2-0.5     C19,31.1,19.2,16.7,21.5,14.4z" />		</g>		<path class="aP-cls-11" d="M27.9,23.3c-0.1,2.7,0,8.9,0.1,11.1c-0.8,0-1.6-0.1-2.3-0.2c-0.3-2.3-0.7-7.2-0.5-10.2    c0.2-3.1,0.6-8.9,0.7-11.3c0.8-0.2,1.7-0.3,2.7-0.4C28.4,14.9,28,20.6,27.9,23.3z" />	</g></g><defs><g id="aPS_bone_graft" style="">	<g>		<g>							<ellipse transform="matrix(0.1539 -0.9881 0.9881 0.1539 -23.6537 49.9275)" class="aP-cls-14" cx="17.3" cy="38.8" rx="12.7" ry="12.7" data-color-action="stroke" style="stroke:inherit" />			<line class="aP-cls-14" x1="10.3" y1="29.2" x2="24.3" y2="48.4" data-color-action="stroke" style="stroke:inherit" />		</g>		<text transform="matrix(1 0 0 1 6.7031 43.357)" class="aP-cls-15 aP-cls-16">NA</text>	</g></g><g id="aPS_splinted_crowns" style="">	<g>		<g>							<ellipse transform="matrix(0.1539 -0.9881 0.9881 0.1539 -23.6537 49.9275)" class="aP-cls-14" cx="17.3" cy="38.8" rx="12.7" ry="12.7" data-color-action="stroke" style="stroke:inherit" />			<line class="aP-cls-14" x1="10.3" y1="29.2" x2="24.3" y2="48.4" data-color-action="stroke" style="stroke:inherit" />		</g>		<text transform="matrix(1 0 0 1 6.7031 43.357)" class="aP-cls-15 aP-cls-16">NA</text>	</g></g><g id="aPS_facial_V" style="">	<path class="aP-cls-12" d="M24,34c2.7,0.5,7.5,0.7,10.5,0c-1.5-0.9-3.3-1.4-5.2-1.4C27.3,32.6,25.5,33.1,24,34z" data-color-action="fill" style="fill:inherit" /></g><g id="aPS_mid_facial" style="">	<ellipse class="aP-cls-12" cx="29.4" cy="24.6" rx="3" ry="5.3" data-color-action="fill" style="fill:inherit" /></g><g id="aPS_mesial" style="">	<path class="aP-cls-12" d="M39.1,18.1l-2.4,1.4c0.6,1.5,0.2,3.6,0.6,5.8c0.2,1,0.8,1.7,1.6,2.1C39.3,24.5,39.3,21,39.1,18.1z" data-color-action="fill" style="fill:inherit" /></g><g id="aPS_line_angle_2" style="">	<path class="aP-cls-12" d="M34,12.1l-1.5,5.1c0.9,0.1,1.8,0.3,2.4,0.5c1,0.4,1.5,1,1.8,1.8l2.4-1.4c-0.2-2.9-0.7-5.2-1.3-5.6   C37.5,12.3,36,12.1,34,12.1z" data-color-action="fill" style="fill:inherit" /></g><g id="aPS_facial" style="">	<path class="aP-cls-12" d="M24.5,13.1l1.1,4.5c1.8-0.3,4.6-0.6,6.9-0.3l1.5-5.1C31.1,12.1,27.2,12.4,24.5,13.1z" data-color-action="fill" style="fill:inherit" /></g><g id="aPS_line_angle_1" style="">	<path class="aP-cls-12" d="M21.5,14.4c-0.6,0.6-1.1,2.2-1.4,4.1l2.5,1.5c0.4-1.1,1-1.9,1.8-2.2c0.3-0.1,0.7-0.2,1.1-0.3l-1.1-4.5   C23.1,13.4,22,13.8,21.5,14.4z" data-color-action="fill" style="fill:inherit" /></g><g id="aPS_distal" style="">	<path class="aP-cls-12" d="M21.7,24.8c0.2-1.3,0.4-3.3,0.9-4.8l-2.5-1.5c-0.4,2.6-0.5,6-0.1,8.9C20.8,26.9,21.6,26,21.7,24.8z" data-color-action="fill" style="fill:inherit" /></g><g id="aPS_veneer" style="">	<g>		<g>							<ellipse transform="matrix(0.1539 -0.9881 0.9881 0.1539 -23.6537 49.9275)" class="aP-cls-14" cx="17.3" cy="38.8" rx="12.7" ry="12.7" data-color-action="stroke" style="stroke:inherit" />			<line class="aP-cls-14" x1="10.3" y1="29.2" x2="24.3" y2="48.4" data-color-action="stroke" style="stroke:inherit" />		</g>		<text transform="matrix(1 0 0 1 6.7031 43.357)" class="aP-cls-15 aP-cls-16">NA</text>	</g></g><g id="aPS_tissue_graft" style="">	<g>		<g>							<ellipse transform="matrix(0.1539 -0.9881 0.9881 0.1539 -23.6537 49.9275)" class="aP-cls-14" cx="17.3" cy="38.8" rx="12.7" ry="12.7" data-color-action="stroke" style="stroke:inherit" />			<line class="aP-cls-14" x1="10.3" y1="29.2" x2="24.3" y2="48.4" data-color-action="stroke" style="stroke:inherit" />		</g>		<text transform="matrix(1 0 0 1 6.7031 43.357)" class="aP-cls-15 aP-cls-16">NA</text>	</g></g><g id="aPS_tipped_lingual" style="">	<rect x="28" y="154.8" class="aP-cls-17" width="3" height="3" /></g><g id="aPS_tipped_facial" style="">	<g>		<path class="aP-cls-18" d="M25.1,8.8c1.2-3.2,4.5-3.6,7.2,5c0.5,1.5,4.2,1.7,3.6,0c-1.9-5.7-5-9.6-8.5-8.7c-1.2,0.3-2.3,1.6-2.8,3.2    C24.8,8.4,25,8.7,25.1,8.8z" data-color-action="fill" style="fill:inherit" />		<polygon class="aP-cls-18" points="27,11.5 39.2,11.5 36.4,20.6   " data-color-action="fill" style="fill:inherit" />	</g></g><g id="aPS_surface_restoration_mesial" style="">	<path class="aP-cls-19" d="M37.8,12.5l-4.9,5.6c0.1,0,0.2,0,0.2,0c0.2,2.1,0.6,8.8,0.6,13.7c0.7-3.2,2.7-5.9,5.5-7.5   C39.5,19,38.7,13.2,37.8,12.5C37.8,12.5,37.8,12.5,37.8,12.5z" data-color-action="fill" style="fill:inherit" /></g><g id="aPS_surface_restoration_facial" style="">	<g>		<path class="aP-cls-19" d="M33.7,31.8c0-4.9-0.4-11.6-0.6-13.7c-2.8,0.1-5.5,0.4-7,0.7c-0.3,1.6-0.3,7.9-0.1,12.8    c1.1-0.5,2.4-0.8,3.7-0.8C31.2,30.9,32.5,31.2,33.7,31.8z" data-color-action="fill" style="fill:inherit" />			</g></g><g id="aPS_surface_restoration_facial_V" style="">	<g>				<path class="aP-cls-19" d="M26.3,34.3c2.2,0.2,4.9,0.2,7.1-0.1c0-0.8,0.1-1.6,0.3-2.3c0,0,0,0,0,0c-1.2-0.6-2.5-0.9-3.9-0.9    c-1.3,0-2.6,0.3-3.7,0.8c0,0.2,0,0.4,0,0.6C26.2,32.9,26.3,33.6,26.3,34.3z" data-color-action="fill" style="fill:inherit" />	</g></g><g id="aPS_surface_restoration_distal" style="">	<path class="aP-cls-19" d="M21.5,14.4c-1.2,1.2-1.8,5.6-1.7,9.9c3.2,1.5,5.5,4.4,6.3,8c-0.2-5-0.3-11.8,0-13.4c0,0,0,0,0,0L21.5,14.4   C21.5,14.3,21.5,14.4,21.5,14.4z" data-color-action="fill" style="fill:inherit" /></g><g id="aPS_surface_restoration_incisal" style="">	<path class="aP-cls-19" d="M21.6,14.3l4.6,4.5c1.5-0.3,4-0.6,6.7-0.7l4.9-5.6C36.6,11.7,23.9,12.1,21.6,14.3z" data-color-action="fill" style="fill:inherit" /></g><g id="aPS_supra-erupted" style="">	<g>		<g>							<ellipse transform="matrix(0.1539 -0.9881 0.9881 0.1539 -23.6537 49.9275)" class="aP-cls-14" cx="17.3" cy="38.8" rx="12.7" ry="12.7" data-color-action="stroke" style="stroke:inherit" />			<line class="aP-cls-14" x1="10.3" y1="29.2" x2="24.3" y2="48.4" data-color-action="stroke" style="stroke:inherit" />		</g>		<text transform="matrix(1 0 0 1 6.7031 43.357)" class="aP-cls-15 aP-cls-16">NA</text>	</g></g><g id="aPS_sub-erupted" style="">	<g>		<g>			<line class="aP-cls-20" x1="29.5" y1="43.5" x2="29.5" y2="36.6" data-color-action="stroke" style="stroke:inherit" />			<g>				<polygon class="aP-cls-21" points="33.5,42.3 29.5,49.2 25.5,42.3     " data-color-action="fill" style="fill:inherit" />			</g>		</g>	</g></g><g id="aPS_sealant" style=""><text class="aP-cls-31" transform="matrix(1 0 0 1 19.7 -18.45)" data-color-action="fill" style="fill:inherit">S</text></g><g id="aPS_rotated_mesial" style="">	<g>		<path class="aP-cls-18" d="M9.3,28.8c-2.8-1.7-2.2-5.1,9.6-5.5c5-0.1,8.4,0,8.4,0l-0.1-2.8c0,0-0.9-0.1-7.7,0.2    C12.4,21,6.4,22.5,6.6,26.3c0.1,1,1,2.1,2.2,2.7C8.9,29,9.2,28.8,9.3,28.8z" data-color-action="fill" style="fill:inherit" />		<polygon class="aP-cls-18" points="21.2,27.6 21.2,16.4 31,21.9   " data-color-action="fill" style="fill:inherit" />	</g></g><g id="aPS_rotated_distal" style="">	<g>		<path class="aP-cls-18" d="M50,28.8c2.8-1.7,2.2-5.1-9.6-5.5c-5-0.1-8.4,0-8.4,0l0.1-2.8c0,0,0.9-0.1,7.7,0.2    c7.2,0.3,13.2,1.7,12.9,5.6c-0.1,1-1,2.1-2.2,2.7C50.3,29,50.1,28.8,50,28.8z" data-color-action="fill" style="fill:inherit" />		<polygon class="aP-cls-18" points="38,27.6 38,16.4 28.2,21.9   " data-color-action="fill" style="fill:inherit" />	</g></g><g id="aPS_root_tips" style="">	<g>		<g>							<ellipse transform="matrix(0.1539 -0.9881 0.9881 0.1539 -23.6537 49.9275)" class="aP-cls-14" cx="17.3" cy="38.8" rx="12.7" ry="12.7" data-color-action="stroke" style="stroke:inherit" />			<line class="aP-cls-14" x1="10.3" y1="29.2" x2="24.3" y2="48.4" data-color-action="stroke" style="stroke:inherit" />		</g>		<text transform="matrix(1 0 0 1 6.7031 43.357)" class="aP-cls-15 aP-cls-16">NA</text>	</g></g><g id="aPS_root_decay" style="">	<g>		<g>							<ellipse transform="matrix(0.1539 -0.9881 0.9881 0.1539 -23.6537 49.9275)" class="aP-cls-14" cx="17.3" cy="38.8" rx="12.7" ry="12.7" data-color-action="stroke" style="stroke:inherit" />			<line class="aP-cls-14" x1="10.3" y1="29.2" x2="24.3" y2="48.4" data-color-action="stroke" style="stroke:inherit" />		</g>		<text transform="matrix(1 0 0 1 6.7031 43.357)" class="aP-cls-15 aP-cls-16">NA</text>	</g></g><g id="aPS_root_canal" style="">	<line class="aP-cls-22" x1="27.5" y1="68.7" x2="30.3" y2="37.3" data-color-action="stroke" style="stroke:inherit" /></g><g id="aPS_root_abrasion" style="">	<g>		<g>							<ellipse transform="matrix(0.1539 -0.9881 0.9881 0.1539 -23.6537 49.9275)" class="aP-cls-14" cx="17.3" cy="38.8" rx="12.7" ry="12.7" data-color-action="stroke" style="stroke:inherit" />			<line class="aP-cls-14" x1="10.3" y1="29.2" x2="24.3" y2="48.4" data-color-action="stroke" style="stroke:inherit" />		</g>		<text transform="matrix(1 0 0 1 6.7031 43.357)" class="aP-cls-15 aP-cls-16">NA</text>	</g></g><g id="aPS_pins" style="">	<g>		<g>			<rect x="26.4" y="22.5" class="aP-cls-19" width="2.3" height="22" data-color-action="fill" style="fill:inherit" />			<rect x="27" y="22.5" class="aP-cls-23" width="0.3" height="22" />		</g>		<g>			<rect x="30.7" y="22.5" class="aP-cls-19" width="2.3" height="22" data-color-action="fill" style="fill:inherit" />			<rect x="31.3" y="22.5" class="aP-cls-23" width="0.3" height="22" />		</g>	</g></g><g id="aPS_post" style="">	<g>		<g>							<ellipse transform="matrix(0.1539 -0.9881 0.9881 0.1539 -23.6537 49.9275)" class="aP-cls-14" cx="17.3" cy="38.8" rx="12.7" ry="12.7" data-color-action="stroke" style="stroke:inherit" />			<line class="aP-cls-14" x1="10.3" y1="29.2" x2="24.3" y2="48.4" data-color-action="stroke" style="stroke:inherit" />		</g>		<text transform="matrix(1 0 0 1 6.7031 43.357)" class="aP-cls-15 aP-cls-16">NA</text>	</g></g><g id="aPS_open_contact_mesial" style="">	<g>		<g>							<ellipse transform="matrix(0.1539 -0.9881 0.9881 0.1539 -23.6537 49.9275)" class="aP-cls-14" cx="17.3" cy="38.8" rx="12.7" ry="12.7" data-color-action="stroke" style="stroke:inherit" />			<line class="aP-cls-14" x1="10.3" y1="29.2" x2="24.3" y2="48.4" data-color-action="stroke" style="stroke:inherit" />		</g>		<text transform="matrix(1 0 0 1 6.7031 43.357)" class="aP-cls-15 aP-cls-16">NA</text>	</g></g><g id="aPS_open_contact_distal" style="">	<g>		<g>							<ellipse transform="matrix(0.1539 -0.9881 0.9881 0.1539 -23.6537 49.9275)" class="aP-cls-14" cx="17.3" cy="38.8" rx="12.7" ry="12.7" data-color-action="stroke" style="stroke:inherit" />			<line class="aP-cls-14" x1="10.3" y1="29.2" x2="24.3" y2="48.4" data-color-action="stroke" style="stroke:inherit" />		</g>		<text transform="matrix(1 0 0 1 6.7031 43.357)" class="aP-cls-15 aP-cls-16">NA</text>	</g></g><g id="aPS_mesial_drift" style="">	<g>		<g>			<line class="aP-cls-25" x1="32.1" y1="23.2" x2="21.2" y2="23.2" data-color-action="stroke" style="stroke:inherit" />			<g>				<polygon class="aP-cls-18" points="30.9,19.2 37.8,23.2 30.9,27.1     " data-color-action="fill" style="fill:inherit" />			</g>		</g>	</g></g><g id="aPS_lingual_abfraction" style="">	<g>		<g>							<ellipse transform="matrix(0.1539 -0.9881 0.9881 0.1539 -23.6537 49.9275)" class="aP-cls-14" cx="17.3" cy="38.8" rx="12.7" ry="12.7" data-color-action="stroke" style="stroke:inherit" />			<line class="aP-cls-14" x1="10.3" y1="29.2" x2="24.3" y2="48.4" data-color-action="stroke" style="stroke:inherit" />		</g>		<text transform="matrix(1 0 0 1 6.7031 43.357)" class="aP-cls-15 aP-cls-16">NA</text>	</g></g><g id="aPS_internal_root_resorption" style="">	<g>		<g>							<ellipse transform="matrix(0.1539 -0.9881 0.9881 0.1539 -23.6537 49.9275)" class="aP-cls-14" cx="17.3" cy="38.8" rx="12.7" ry="12.7" data-color-action="stroke" style="stroke:inherit" />			<line class="aP-cls-14" x1="10.3" y1="29.2" x2="24.3" y2="48.4" data-color-action="stroke" style="stroke:inherit" />		</g>		<text transform="matrix(1 0 0 1 6.7031 43.357)" class="aP-cls-15 aP-cls-16">NA</text>	</g></g><g id="aPS_impacted_mesial" style="">	<g>		<g>							<ellipse transform="matrix(0.1539 -0.9881 0.9881 0.1539 -23.6537 49.9275)" class="aP-cls-14" cx="17.3" cy="38.8" rx="12.7" ry="12.7" data-color-action="stroke" style="stroke:inherit" />			<line class="aP-cls-14" x1="10.3" y1="29.2" x2="24.3" y2="48.4" data-color-action="stroke" style="stroke:inherit" />		</g>		<text transform="matrix(1 0 0 1 6.7031 43.357)" class="aP-cls-15 aP-cls-16">NA</text>	</g></g><g id="aPS_impacted_distal" style="">	<g>		<g>							<ellipse transform="matrix(0.1539 -0.9881 0.9881 0.1539 -23.6537 49.9275)" class="aP-cls-14" cx="17.3" cy="38.8" rx="12.7" ry="12.7" data-color-action="stroke" style="stroke:inherit" />			<line class="aP-cls-14" x1="10.3" y1="29.2" x2="24.3" y2="48.4" data-color-action="stroke" style="stroke:inherit" />		</g>		<text transform="matrix(1 0 0 1 6.7031 43.357)" class="aP-cls-15 aP-cls-16">NA</text>	</g></g><g id="aPS_gortex_membranes" style="">	<g>		<g>							<ellipse transform="matrix(0.1539 -0.9881 0.9881 0.1539 -23.6537 49.9275)" class="aP-cls-14" cx="17.3" cy="38.8" rx="12.7" ry="12.7" data-color-action="stroke" style="stroke:inherit" />			<line class="aP-cls-14" x1="10.3" y1="29.2" x2="24.3" y2="48.4" data-color-action="stroke" style="stroke:inherit" />		</g>		<text transform="matrix(1 0 0 1 6.7031 43.357)" class="aP-cls-15 aP-cls-16">NA</text>	</g></g><g id="aPS_frenum_pull" style="">	<g>		<g>							<ellipse transform="matrix(0.1539 -0.9881 0.9881 0.1539 -23.6537 49.9275)" class="aP-cls-14" cx="17.3" cy="38.8" rx="12.7" ry="12.7" data-color-action="stroke" style="stroke:inherit" />			<line class="aP-cls-14" x1="10.3" y1="29.2" x2="24.3" y2="48.4" data-color-action="stroke" style="stroke:inherit" />		</g>		<text transform="matrix(1 0 0 1 6.7031 43.357)" class="aP-cls-15 aP-cls-16">NA</text>	</g></g><g id="aPS_external_root_resorption" style="">	<g>		<g>							<ellipse transform="matrix(0.1539 -0.9881 0.9881 0.1539 -23.6537 49.9275)" class="aP-cls-14" cx="17.3" cy="38.8" rx="12.7" ry="12.7" data-color-action="stroke" style="stroke:inherit" />			<line class="aP-cls-14" x1="10.3" y1="29.2" x2="24.3" y2="48.4" data-color-action="stroke" style="stroke:inherit" />		</g>		<text transform="matrix(1 0 0 1 6.7031 43.357)" class="aP-cls-15 aP-cls-16">NA</text>	</g></g><g id="aPS_diastema_mesial" style="">	<g>		<g>							<ellipse transform="matrix(0.1539 -0.9881 0.9881 0.1539 -23.6537 49.9275)" class="aP-cls-14" cx="17.3" cy="38.8" rx="12.7" ry="12.7" data-color-action="stroke" style="stroke:inherit" />			<line class="aP-cls-14" x1="10.3" y1="29.2" x2="24.3" y2="48.4" data-color-action="stroke" style="stroke:inherit" />		</g>		<text transform="matrix(1 0 0 1 6.7031 43.357)" class="aP-cls-15 aP-cls-16">NA</text>	</g></g><g id="aPS_diastema_distal" style="">	<g>		<g>							<ellipse transform="matrix(0.1539 -0.9881 0.9881 0.1539 -23.6537 49.9275)" class="aP-cls-14" cx="17.3" cy="38.8" rx="12.7" ry="12.7" data-color-action="stroke" style="stroke:inherit" />			<line class="aP-cls-14" x1="10.3" y1="29.2" x2="24.3" y2="48.4" data-color-action="stroke" style="stroke:inherit" />		</g>		<text transform="matrix(1 0 0 1 6.7031 43.357)" class="aP-cls-15 aP-cls-16">NA</text>	</g></g><g id="aPS_distal_drift" style="">	<g>		<g>			<line class="aP-cls-25" x1="26.9" y1="23.2" x2="37.8" y2="23.2" data-color-action="stroke" style="stroke:inherit" />			<g>				<polygon class="aP-cls-18" points="28.1,27.1 21.2,23.2 28.1,19.2     " data-color-action="fill" style="fill:inherit" />			</g>		</g>	</g></g><g id="aPS_three_quarter_crown" style="">	<g>		<g>							<ellipse transform="matrix(0.1539 -0.9881 0.9881 0.1539 -23.6537 49.9275)" class="aP-cls-14" cx="17.3" cy="38.8" rx="12.7" ry="12.7" data-color-action="stroke" style="stroke:inherit" />			<line class="aP-cls-14" x1="10.3" y1="29.2" x2="24.3" y2="48.4" data-color-action="stroke" style="stroke:inherit" />		</g>		<text transform="matrix(1 0 0 1 6.7031 43.357)" class="aP-cls-15 aP-cls-16">NA</text>	</g></g><g id="aPS_crown" style="">	<path class="aP-cls-26" d="M37.1,32.6c3.2-4.6,2.1-19,0.7-20.1c-1.1-0.8-14-0.5-16.3,1.9s-2.6,16.7,0.6,19   C23.8,34.6,35.2,35.4,37.1,32.6z" data-color-action="fill" style="fill:inherit" /></g><g id="aPS_cracked_surface_incisal" style="">	<polyline class="aP-cls-27" points="30.8,20.5 27,16.7 32,16.7 27,11.9 32,11.9 28.2,8.1  " data-color-action="stroke" style="stroke:inherit" /></g><g id="aPS_cracked_surface_distal" style="">	<polyline class="aP-cls-27" points="22.1,32.2 18.3,28.3 23.3,28.3 18.3,23.6 23.3,23.6 19.5,19.8  " data-color-action="stroke" style="stroke:inherit" /></g><g id="aPS_cracked_surface_facial" style="">	<polyline class="aP-cls-27" points="30.8,32.2 27,28.3 32,28.3 27,23.6 32,23.6 28.2,19.8  " data-color-action="stroke" style="stroke:inherit" /></g><g id="aPS_cracked_surface_facial_V" style="">	<polyline class="aP-cls-27" points="30.8,32.2 27,28.3 32,28.3 27,23.6 32,23.6 28.2,19.8  " data-color-action="stroke" style="stroke:inherit" /></g><g id="aPS_cracked_surface_mesial" style="">	<polyline class="aP-cls-27" points="39.1,32.2 35.2,28.3 40.2,28.3 35.2,23.6 40.2,23.6 36.4,19.8  " data-color-action="stroke" style="stroke:inherit" /></g><g id="aPS_chipped_surface_incisal" style="">	<g>		<line class="aP-cls-27" x1="33.3" y1="18.8" x2="25" y2="10.5" data-color-action="stroke" style="stroke:inherit" />		<line class="aP-cls-27" x1="25" y1="18.8" x2="33.3" y2="10.5" data-color-action="stroke" style="stroke:inherit" />	</g></g><g id="aPS_chipped_surface_distal" style="">	<g>		<line class="aP-cls-27" x1="25" y1="30.5" x2="16.6" y2="22.2" data-color-action="stroke" style="stroke:inherit" />		<line class="aP-cls-27" x1="16.6" y1="30.5" x2="25" y2="22.2" data-color-action="stroke" style="stroke:inherit" />	</g></g><g id="aPS_chipped_surface_facial" style="">	<g>		<line class="aP-cls-27" x1="33.3" y1="30.5" x2="25" y2="22.2" data-color-action="stroke" style="stroke:inherit" />		<line class="aP-cls-27" x1="25" y1="30.5" x2="33.3" y2="22.2" data-color-action="stroke" style="stroke:inherit" />	</g></g><g id="aPS_chipped_surface_facial_V" style="">	<g>		<line class="aP-cls-27" x1="33.3" y1="30.5" x2="25" y2="22.2" data-color-action="stroke" style="stroke:inherit" />		<line class="aP-cls-27" x1="25" y1="30.5" x2="33.3" y2="22.2" data-color-action="stroke" style="stroke:inherit" />	</g></g><g id="aPS_chipped_surface_mesial" style="">	<g>		<line class="aP-cls-27" x1="41.7" y1="30.5" x2="33.4" y2="22.2" data-color-action="stroke" style="stroke:inherit" />		<line class="aP-cls-27" x1="33.4" y1="30.5" x2="41.7" y2="22.2" data-color-action="stroke" style="stroke:inherit" />	</g></g><g id="aPS_buccal_abfraction" style="">	<g>		<g>							<ellipse transform="matrix(0.1539 -0.9881 0.9881 0.1539 -23.6537 49.9275)" class="aP-cls-14" cx="17.3" cy="38.8" rx="12.7" ry="12.7" data-color-action="stroke" style="stroke:inherit" />			<line class="aP-cls-14" x1="10.3" y1="29.2" x2="24.3" y2="48.4" data-color-action="stroke" style="stroke:inherit" />		</g>		<text transform="matrix(1 0 0 1 6.7031 43.357)" class="aP-cls-15 aP-cls-16">NA</text>	</g></g><g id="aPS_braces" style="">	<g>		<g>							<rect x="23" y="13.8" transform="matrix(-1 -4.489399e-11 4.489399e-11 -1 59.3774 45.8641)" class="aP-cls-23" width="13.5" height="18.2" />							<rect x="23" y="13.8" transform="matrix(-1 -4.489399e-11 4.489399e-11 -1 59.3774 28.3551)" class="aP-cls-28" width="13.5" height="0.7" data-color-action="fill" style="fill:inherit" />							<rect x="23" y="21.4" transform="matrix(-1 -4.489399e-11 4.489399e-11 -1 59.3774 44.2107)" class="aP-cls-28" width="13.5" height="1.4" data-color-action="fill" style="fill:inherit" />							<rect x="23" y="31.1" transform="matrix(-1 -4.489399e-11 4.489399e-11 -1 59.3774 63.1627)" class="aP-cls-29" width="13.5" height="0.9" data-color-action="fill" style="fill:inherit" />			<g>				<g>					<g>						<path class="aP-cls-30" d="M33.1,32h3.1c0.3,0,0.5-0.2,0.5-0.5v-7c0-0.3-0.2-0.5-0.5-0.5h-3.1c-0.3,0-0.5,0.2-0.5,0.5v7        C32.6,31.8,32.8,32,33.1,32z" data-color-action="fill" style="fill:inherit" />						<path class="aP-cls-19" d="M33.1,32h3.1c0.3,0,0.5-0.2,0.5-0.5v-5.8c-0.7-0.1-1.3-0.2-2-0.2c-0.7,0-1.4,0.1-2.1,0.2v5.8        C32.6,31.8,32.8,32,33.1,32z" data-color-action="fill" style="fill:inherit" />						<path class="aP-cls-23" d="M32.9,30.6v1.1c0,0.1,0.1,0.2,0.2,0.2h3.1c0.1,0,0.2-0.1,0.2-0.2v-1.1H32.9z" />					</g>					<g>						<path class="aP-cls-30" d="M23.2,32h3.1c0.3,0,0.5-0.2,0.5-0.5v-7c0-0.3-0.2-0.5-0.5-0.5h-3.1c-0.3,0-0.5,0.2-0.5,0.5v7        C22.7,31.8,22.9,32,23.2,32z" data-color-action="fill" style="fill:inherit" />						<path class="aP-cls-19" d="M23.2,32h3.1c0.3,0,0.5-0.2,0.5-0.5v-5.8c-0.7-0.1-1.3-0.2-2-0.2c-0.7,0-1.4,0.1-2.1,0.2v5.8        C22.7,31.8,22.9,32,23.2,32z" data-color-action="fill" style="fill:inherit" />						<path class="aP-cls-23" d="M23,30.6v1.1c0,0.1,0.1,0.2,0.2,0.2h3.1c0.1,0,0.2-0.1,0.2-0.2v-1.1H23z" />					</g>				</g>				<g>					<g>						<path class="aP-cls-30" d="M33.1,21.7h3.1c0.3,0,0.5-0.2,0.5-0.5v-7c0-0.3-0.2-0.5-0.5-0.5h-3.1c-0.3,0-0.5,0.2-0.5,0.5v7        C32.6,21.5,32.8,21.7,33.1,21.7z" data-color-action="fill" style="fill:inherit" />						<path class="aP-cls-19" d="M33.1,21.7h3.1c0.3,0,0.5-0.2,0.5-0.5v-5.8c-0.7-0.1-1.3-0.2-2-0.2c-0.7,0-1.4,0.1-2.1,0.2v5.8        C32.6,21.5,32.8,21.7,33.1,21.7z" data-color-action="fill" style="fill:inherit" />						<path class="aP-cls-23" d="M32.9,20.3v1.1c0,0.1,0.1,0.2,0.2,0.2h3.1c0.1,0,0.2-0.1,0.2-0.2v-1.1H32.9z" />					</g>					<g>						<path class="aP-cls-30" d="M23.2,21.7h3.1c0.3,0,0.5-0.2,0.5-0.5v-7c0-0.3-0.2-0.5-0.5-0.5h-3.1c-0.3,0-0.5,0.2-0.5,0.5v7        C22.7,21.5,22.9,21.7,23.2,21.7z" data-color-action="fill" style="fill:inherit" />						<path class="aP-cls-19" d="M23.2,21.7h3.1c0.3,0,0.5-0.2,0.5-0.5v-5.8c-0.7-0.1-1.3-0.2-2-0.2c-0.7,0-1.4,0.1-2.1,0.2v5.8        C22.7,21.5,22.9,21.7,23.2,21.7z" data-color-action="fill" style="fill:inherit" />						<path class="aP-cls-23" d="M23,20.3v1.1c0,0.1,0.1,0.2,0.2,0.2h3.1c0.1,0,0.2-0.1,0.2-0.2v-1.1H23z" />					</g>				</g>			</g>		</g>		<g>							<rect x="8.6" y="22.2" transform="matrix(-1 -4.490154e-11 4.490154e-11 -1 59.3675 45.7813)" class="aP-cls-19" width="42.2" height="1.4" data-color-action="fill" style="fill:inherit" />							<rect x="8.6" y="22.2" transform="matrix(-1 -4.490154e-11 4.490154e-11 -1 59.3675 44.5794)" class="aP-cls-30" width="42.2" height="0.2" data-color-action="fill" style="fill:inherit" />							<rect x="8.6" y="23" transform="matrix(-1 -4.490154e-11 4.490154e-11 -1 59.3675 46.4324)" class="aP-cls-23" width="42.2" height="0.4" />		</g>	</g></g><g id="aPS_apicoectomy" style="">	<g>		<g>							<ellipse transform="matrix(0.1539 -0.9881 0.9881 0.1539 -23.6537 49.9275)" class="aP-cls-14" cx="17.3" cy="38.8" rx="12.7" ry="12.7" data-color-action="stroke" style="stroke:inherit" />			<line class="aP-cls-14" x1="10.3" y1="29.2" x2="24.3" y2="48.4" data-color-action="stroke" style="stroke:inherit" />		</g>		<text transform="matrix(1 0 0 1 6.7031 43.357)" class="aP-cls-15 aP-cls-16">NA</text>	</g></g><g id="aPS_abscess" style="">	<circle class="aP-cls-18" cx="29.5" cy="75.1" r="6.1" data-color-action="fill" style="fill:inherit" /></g><g id="aPS_blunted_roots" style="">	<g>		<g>							<ellipse transform="matrix(0.1539 -0.9881 0.9881 0.1539 -23.6537 49.9275)" class="aP-cls-14" cx="17.3" cy="38.8" rx="12.7" ry="12.7" data-color-action="stroke" style="stroke:inherit" />			<line class="aP-cls-14" x1="10.3" y1="29.2" x2="24.3" y2="48.4" data-color-action="stroke" style="stroke:inherit" />		</g>		<text transform="matrix(1 0 0 1 6.7031 43.357)" class="aP-cls-15 aP-cls-16">NA</text>	</g></g><g id="aPS_root_amputation" style="">	<g>		<g>							<ellipse transform="matrix(0.1539 -0.9881 0.9881 0.1539 -23.6537 49.9275)" class="aP-cls-14" cx="17.3" cy="38.8" rx="12.7" ry="12.7" data-color-action="stroke" style="stroke:inherit" />			<line class="aP-cls-14" x1="10.3" y1="29.2" x2="24.3" y2="48.4" data-color-action="stroke" style="stroke:inherit" />		</g>		<text transform="matrix(1 0 0 1 6.7031 43.357)" class="aP-cls-15 aP-cls-16">NA</text>	</g></g><g id="aPS_missing_crown" style="">	<g>		<g>							<ellipse transform="matrix(0.1539 -0.9881 0.9881 0.1539 -23.6537 49.9275)" class="aP-cls-14" cx="17.3" cy="38.8" rx="12.7" ry="12.7" data-color-action="stroke" style="stroke:inherit" />			<line class="aP-cls-14" x1="10.3" y1="29.2" x2="24.3" y2="48.4" data-color-action="stroke" style="stroke:inherit" />		</g>		<text transform="matrix(1 0 0 1 6.7031 43.357)" class="aP-cls-15 aP-cls-16">NA</text>	</g></g><g id="aPS_missing_tooth" style="" data-name="missing tooth">	<g>		<path class="aP-cls-5" d="M37.8,12.5c1.5,1.1,2.5,15.5-0.7,20.1c-0.1,0.2-0.3,0.3-0.5,0.5c0,3.6-1.2,17.4-3.2,26.1    c-2.1,9.4-6.8,14.7-7.7,14.3c-1.7-0.7,0.1-6.3-0.3-16.6c-0.3-7.3-2.8-21.7-3.1-23.4c-0.1,0-0.2-0.1-0.2-0.1    c-3.1-2.3-2.8-16.7-0.6-19C23.8,12.1,36.7,11.7,37.8,12.5z" />		<path class="aP-cls-24" d="M36.6,32.4c0.2,1.8-1,17.4-3.1,26.8s-6.8,14.7-7.7,14.3c-1.7-0.7,0.1-6.3-0.3-16.6    c-0.3-7.4-2.9-22.3-3.1-23.5C21.5,29.4,36,27,36.6,32.4z" />		<path class="aP-cls-24" d="M35.3,36.2c0.1-1.9-0.1-4.1,0.4-5.6c0.5,0.5,0.9,1.1,1,1.8c0.2,1.8-1,17.4-3.1,26.8    c-0.9,4.1-2.3,7.4-3.7,9.8c1.1-2.4,2.5-6.1,2.9-9.3C33.4,54.6,35.2,38.9,35.3,36.2z" />		<path class="aP-cls-24" d="M25.4,56.9c-0.3-7.4-2.9-22.3-3.1-23.5c-0.1-0.5,0-1,0.4-1.4c0.4,0.4,0.8,0.9,0.9,1.4    c0.5,2,1.1,7.2,1.9,12.9c0.8,5.6,0.9,12.7,0.6,15.5c-0.1,1.5-0.4,2.7-0.7,3.9C25.5,63.3,25.6,60.4,25.4,56.9z" />		<path class="aP-cls-24" d="M28,34.5c-0.1,1.9,0.6,9.7,1,13.8c0.5,4.6,0.5,11.5-0.6,16.7c-0.6,2.8-1.5,6.2-2,6c-0.5-0.2,1-6.6,1.1-9.5    c0.3-14.1-2.2-25.6-2.2-26.9S28.2,32.2,28,34.5z" />		<path class="aP-cls-24" d="M37.1,32.6c3.2-4.6,2.1-19,0.7-20.1c-1.1-0.8-14-0.5-16.3,1.9s-2.6,16.7,0.6,19    C23.8,34.6,35.2,35.4,37.1,32.6z" />		<g>			<path class="aP-cls-24" d="M36.3,12.2c0.8,0.1,1.3,0.2,1.5,0.3c1.5,1.1,2.5,15.5-0.7,20.1c-0.3,0.5-0.9,0.8-1.7,1.1     C37.4,28.8,37.1,16.5,36.3,12.2z" />			<path class="aP-cls-24" d="M21.5,14.4c0.3-0.3,0.9-0.6,1.7-0.9c-1.3,3.4-1.5,16,0.1,20.4c-0.5-0.1-0.9-0.3-1.2-0.5     C19,31.1,19.2,16.7,21.5,14.4z" />		</g>		<path class="aP-cls-24" d="M27.9,23.3c-0.1,2.7,0,8.9,0.1,11.1c-0.8,0-1.6-0.1-2.3-0.2c-0.3-2.3-0.7-7.2-0.5-10.2    c0.2-3.1,0.6-8.9,0.7-11.3c0.8-0.2,1.7-0.3,2.7-0.4C28.4,14.9,28,20.6,27.9,23.3z" />	</g></g><g id="aPS_extracted_tooth" data-name="extracted tooth" style=""><g class="aP-msng-cls-10"><line class="aP-msng-cls-11" x1="9" y1="10.51" x2="50.67" y2="52.17" data-color-action="stroke" style="stroke:inherit" /><line class="aP-msng-cls-11" x1="50.67" y1="10.51" x2="9" y2="52.17" data-color-action="stroke" style="stroke:inherit" /></g></g><g id="aPS_denture" style="">	<g>		<g>							<ellipse transform="matrix(0.1539 -0.9881 0.9881 0.1539 -23.6537 49.9275)" class="aP-cls-14" cx="17.3" cy="38.8" rx="12.7" ry="12.7" data-color-action="stroke" style="stroke:inherit" />			<line class="aP-cls-14" x1="10.3" y1="29.2" x2="24.3" y2="48.4" data-color-action="stroke" style="stroke:inherit" />		</g>		<text transform="matrix(1 0 0 1 6.7031 43.357)" class="aP-cls-15 aP-cls-16">NA</text>	</g></g><g id="aPS_maryland_bridge_pontic" style="">	<g>		<g>							<ellipse transform="matrix(0.1539 -0.9881 0.9881 0.1539 -23.6537 49.9275)" class="aP-cls-14" cx="17.3" cy="38.8" rx="12.7" ry="12.7" data-color-action="stroke" style="stroke:inherit" />			<line class="aP-cls-14" x1="10.3" y1="29.2" x2="24.3" y2="48.4" data-color-action="stroke" style="stroke:inherit" />		</g>		<text transform="matrix(1 0 0 1 6.7031 43.357)" class="aP-cls-15 aP-cls-16">NA</text>	</g></g><g id="aPS_maryland_bridge_abutment_mesial" style="">	<g>		<g>							<ellipse transform="matrix(0.1539 -0.9881 0.9881 0.1539 -23.6537 49.9275)" class="aP-cls-14" cx="17.3" cy="38.8" rx="12.7" ry="12.7" data-color-action="stroke" style="stroke:inherit" />			<line class="aP-cls-14" x1="10.3" y1="29.2" x2="24.3" y2="48.4" data-color-action="stroke" style="stroke:inherit" />		</g>		<text transform="matrix(1 0 0 1 6.7031 43.357)" class="aP-cls-15 aP-cls-16">NA</text>	</g></g><g id="aPS_maryland_bridge_abutment_distal" style="">	<g>		<g>							<ellipse transform="matrix(0.1539 -0.9881 0.9881 0.1539 -23.6537 49.9275)" class="aP-cls-14" cx="17.3" cy="38.8" rx="12.7" ry="12.7" data-color-action="stroke" style="stroke:inherit" />			<line class="aP-cls-14" x1="10.3" y1="29.2" x2="24.3" y2="48.4" data-color-action="stroke" style="stroke:inherit" />		</g>		<text transform="matrix(1 0 0 1 6.7031 43.357)" class="aP-cls-15 aP-cls-16">NA</text>	</g></g><g id="aPS_maryland_bridge_abutment" style="">	<g>		<g>							<ellipse transform="matrix(0.1539 -0.9881 0.9881 0.1539 -23.6537 49.9275)" class="aP-cls-14" cx="17.3" cy="38.8" rx="12.7" ry="12.7" data-color-action="stroke" style="stroke:inherit" />			<line class="aP-cls-14" x1="10.3" y1="29.2" x2="24.3" y2="48.4" data-color-action="stroke" style="stroke:inherit" />		</g>		<text transform="matrix(1 0 0 1 6.7031 43.357)" class="aP-cls-15 aP-cls-16">NA</text>	</g></g><g id="aPS_bridge_abutment_mesial" style="">	<g>		<g>							<ellipse transform="matrix(0.1539 -0.9881 0.9881 0.1539 -23.6537 49.9275)" class="aP-cls-14" cx="17.3" cy="38.8" rx="12.7" ry="12.7" data-color-action="stroke" style="stroke:inherit" />			<line class="aP-cls-14" x1="10.3" y1="29.2" x2="24.3" y2="48.4" data-color-action="stroke" style="stroke:inherit" />		</g>		<text transform="matrix(1 0 0 1 6.7031 43.357)" class="aP-cls-15 aP-cls-16">NA</text>	</g></g><g id="aPS_bridge_abutment_distal" style="">	<g>		<g>							<ellipse transform="matrix(0.1539 -0.9881 0.9881 0.1539 -23.6537 49.9275)" class="aP-cls-14" cx="17.3" cy="38.8" rx="12.7" ry="12.7" data-color-action="stroke" style="stroke:inherit" />			<line class="aP-cls-14" x1="10.3" y1="29.2" x2="24.3" y2="48.4" data-color-action="stroke" style="stroke:inherit" />		</g>		<text transform="matrix(1 0 0 1 6.7031 43.357)" class="aP-cls-15 aP-cls-16">NA</text>	</g></g><g id="aPS_bridge_abutment" style="">	<g>		<g>							<ellipse transform="matrix(0.1539 -0.9881 0.9881 0.1539 -23.6537 49.9275)" class="aP-cls-14" cx="17.3" cy="38.8" rx="12.7" ry="12.7" data-color-action="stroke" style="stroke:inherit" />			<line class="aP-cls-14" x1="10.3" y1="29.2" x2="24.3" y2="48.4" data-color-action="stroke" style="stroke:inherit" />		</g>		<text transform="matrix(1 0 0 1 6.7031 43.357)" class="aP-cls-15 aP-cls-16">NA</text>	</g></g><g id="aPS_bridge_pontic" style="">	<g>		<g>							<ellipse transform="matrix(0.1539 -0.9881 0.9881 0.1539 -23.6537 49.9275)" class="aP-cls-14" cx="17.3" cy="38.8" rx="12.7" ry="12.7" data-color-action="stroke" style="stroke:inherit" />			<line class="aP-cls-14" x1="10.3" y1="29.2" x2="24.3" y2="48.4" data-color-action="stroke" style="stroke:inherit" />		</g>		<text transform="matrix(1 0 0 1 6.7031 43.357)" class="aP-cls-15 aP-cls-16">NA</text>	</g></g><g id="aPS_implant_mini" style="">	<g>		<g>							<ellipse transform="matrix(0.1539 -0.9881 0.9881 0.1539 -23.6537 49.9275)" class="aP-cls-14" cx="17.3" cy="38.8" rx="12.7" ry="12.7" data-color-action="stroke" style="stroke:inherit" />			<line class="aP-cls-14" x1="10.3" y1="29.2" x2="24.3" y2="48.4" data-color-action="stroke" style="stroke:inherit" />		</g>		<text transform="matrix(1 0 0 1 6.7031 43.357)" class="aP-cls-15 aP-cls-16">NA</text>	</g></g><g id="aPS_implant_cylinder" style="">	<g>		<g>							<ellipse transform="matrix(0.1539 -0.9881 0.9881 0.1539 -23.6537 49.9275)" class="aP-cls-14" cx="17.3" cy="38.8" rx="12.7" ry="12.7" data-color-action="stroke" style="stroke:inherit" />			<line class="aP-cls-14" x1="10.3" y1="29.2" x2="24.3" y2="48.4" data-color-action="stroke" style="stroke:inherit" />		</g>		<text transform="matrix(1 0 0 1 6.7031 43.357)" class="aP-cls-15 aP-cls-16">NA</text>	</g></g><g id="aPS_implant_blade" style="">	<g>		<g>							<ellipse transform="matrix(0.1539 -0.9881 0.9881 0.1539 -23.6537 49.9275)" class="aP-cls-14" cx="17.3" cy="38.8" rx="12.7" ry="12.7" data-color-action="stroke" style="stroke:inherit" />			<line class="aP-cls-14" x1="10.3" y1="29.2" x2="24.3" y2="48.4" data-color-action="stroke" style="stroke:inherit" />		</g>		<text transform="matrix(1 0 0 1 6.7031 43.357)" class="aP-cls-15 aP-cls-16">NA</text>	</g></g><g id="aPS_watch_tooth" style="">	<g>		<path class="aP-cls-13" d="M8.3,153.9c0-1.8,1.4-3.3,3.2-3.3c1.8,0,3.3,1.5,3.3,3.3c0,1.7-1.5,3.2-3.3,3.2    C9.7,157.1,8.3,155.6,8.3,153.9z M9.2,148l-0.8-18.1h6.2L13.7,148H9.2z" data-color-action="fill" style="fill:inherit" />	</g></g><g id="aPS_border" style="">	<rect class="aP-cls-17" width="59" height="161" />	<rect transform="matrix(-1 8.977784e-11 -8.977784e-11 -1 59 161)" class="aP-cls-17" width="59" height="161" /></g></defs></g><g class="cP-cls-1"><g id="_Pc">	<g>		<g>			<path class="cP-cls-2" d="M37.1,34.7c3.2,4.6,2.1,19,0.7,20.1c-1.1,0.8-14,0.5-16.3-1.9c-2.3-2.3-2.6-16.7,0.6-19     C23.8,32.7,35.2,31.9,37.1,34.7z" />		</g>		<g>			<path class="cP-cls-3" d="M37.1,34.7c3.2,4.6,2.1,19,0.7,20.1c-1.1,0.8-14,0.5-16.3-1.9c-2.3-2.3-2.6-16.7,0.6-19     C23.8,32.7,35.2,31.9,37.1,34.7z" />		</g>		<path class="cP-cls-4" d="M38.8,52c-1.2,0.7-3,0.6-4.8,0.6c-2.6,0-8.7-0.4-11.3-1.2c-1.2-0.4-2-1.2-2.4-1.9c0.3,1.6,0.7,2.9,1.3,3.4    c2.3,2.3,15.2,2.7,16.3,1.9C38.2,54.5,38.5,53.5,38.8,52z" />		<path class="cP-cls-5" d="M35.8,40.3c1.2,0,0.5-2.4-0.2-3.6s-3.4-1.5-6.3-1.4c-2.9,0.1-6,0.2-6.6,1.6c-0.6,1.4-1.5,4.9-0.6,5    c0.9,0.1,0.8-3,2.3-4s2.2,0.7,4.1,0.6s2.3-1.2,4.7-0.7C35.4,38.3,34.6,40.3,35.8,40.3z" />	</g></g><defs><g id="cPS_mesial" style="">	<path class="cP-cls-6" d="M39.1,49.2l-2.4-1.4c0.6-1.5,0.2-3.6,0.6-5.8c0.2-1,0.8-1.7,1.6-2.1C39.3,42.8,39.3,46.3,39.1,49.2z" data-color-action="fill" style="fill:inherit" /></g><g id="cPS_line_angle_4" style="">	<path class="cP-cls-6" d="M34,55.2l-1.5-5.1c0.9-0.1,1.8-0.3,2.4-0.5c1-0.4,1.5-1,1.8-1.8l2.4,1.4c-0.2,2.9-0.7,5.2-1.3,5.6   C37.5,55,36,55.2,34,55.2z" data-color-action="fill" style="fill:inherit" /></g><g id="cPS_lingual" style="">	<path class="cP-cls-6" d="M24.5,54.2l1.1-4.5c1.8,0.3,4.6,0.6,6.9,0.3l1.5,5.1C31.1,55.2,27.2,54.9,24.5,54.2z" data-color-action="fill" style="fill:inherit" /></g><g id="cPS_line_angle_3" style="">	<path class="cP-cls-6" d="M21.5,52.9c-0.6-0.6-1.1-2.2-1.4-4.1l2.5-1.5c0.4,1.1,1,1.9,1.8,2.2c0.3,0.1,0.7,0.2,1.1,0.3l-1.1,4.5   C23.1,53.9,22,53.5,21.5,52.9z" data-color-action="fill" style="fill:inherit" /></g><g id="cPS_distal" style="">	<path class="cP-cls-6" d="M21.7,42.5c0.2,1.3,0.4,3.3,0.9,4.8l-2.5,1.5c-0.4-2.6-0.5-6-0.1-8.9C20.8,40.4,21.6,41.3,21.7,42.5z" data-color-action="fill" style="fill:inherit" /></g><g id="cPS_mid_lingual" style="">	<ellipse class="cP-cls-6" cx="29.4" cy="42.7" rx="3" ry="5.3" data-color-action="fill" style="fill:inherit" /></g><g id="cPS_lingual_V" style="">	<path class="cP-cls-6" d="M24,33.3c2.7-0.5,7.5-0.7,10.5,0c-1.5,0.9-3.3,1.4-5.2,1.4C27.3,34.7,25.5,34.2,24,33.3z" data-color-action="fill" style="fill:inherit" /></g><g id="cPS_tipped_lingual" style="">	<g>		<path class="cP-cls-7" d="M31.4,58.3c-1.2,3.2-4.5,3.6-7.2-5c-0.5-1.5-4.2-1.7-3.6,0c1.9,5.7,5,9.6,8.5,8.7c1.2-0.3,2.3-1.6,2.8-3.2    C31.7,58.7,31.5,58.5,31.4,58.3z" data-color-action="fill" style="fill:inherit" />		<polygon class="cP-cls-7" points="29.4,55.6 17.3,55.6 20,46.5   " data-color-action="fill" style="fill:inherit" />	</g></g><g id="cPS_tipped_facial" style=""></g><g id="cPS_surface_restoration_incisal" style="">	<path class="cP-cls-8" d="M21.6,53l4.6-4.5c1.5,0.3,4,0.6,6.7,0.7l4.9,5.6C36.6,55.7,23.9,55.3,21.6,53z" data-color-action="fill" style="fill:inherit" /></g><g id="cPS_surface_restoration_mesial" style="">	<path class="cP-cls-8" d="M37.8,54.8l-4.9-5.6c0.1,0,0.2,0,0.2,0c0.2-2.1,0.6-8.8,0.6-13.7c0.7,3.2,2.7,5.9,5.5,7.5   C39.5,48.4,38.7,54.2,37.8,54.8C37.8,54.8,37.8,54.8,37.8,54.8z" data-color-action="fill" style="fill:inherit" /></g><g id="cPS_surface_restoration_lingual" style="">	<g>		<path class="cP-cls-8" d="M33.7,35.5c0,4.9-0.4,11.6-0.6,13.7c-2.8-0.1-5.5-0.4-7-0.7c-0.3-1.6-0.3-7.9-0.1-12.8    c1.1,0.5,2.4,0.8,3.7,0.8C31.2,36.4,32.5,36.1,33.7,35.5z" data-color-action="fill" style="fill:inherit" />			</g></g><g id="cPS_surface_restoration_lingual_V" style="">	<g>				<path class="cP-cls-8" d="M26.3,33c2.2-0.2,4.9-0.2,7.1,0.1c0,0.8,0.1,1.6,0.3,2.3c0,0,0,0,0,0c-1.2,0.6-2.5,0.9-3.9,0.9    c-1.3,0-2.6-0.3-3.7-0.8c0-0.2,0-0.4,0-0.6C26.2,34.4,26.3,33.7,26.3,33z" data-color-action="fill" style="fill:inherit" />	</g></g><g id="cPS_surface_restoration_distal" style="">	<path class="cP-cls-8" d="M21.5,53c-1.2-1.2-1.8-5.6-1.7-9.9c3.2-1.5,5.5-4.4,6.3-8c-0.2,5-0.3,11.8,0,13.4c0,0,0,0,0,0L21.5,53   C21.5,53,21.5,53,21.5,53z" data-color-action="fill" style="fill:inherit" /></g><g id="cPS_sub-erupted" style=""></g><g id="cPS_rotated_mesial" style=""></g><g id="cPS_rotate_distal" style=""></g><g id="cPS_root_canal" style=""></g><g id="cPS_pins" style=""></g><g id="cPS_mesial_drift" style=""></g><g id="cPS_distal_drift" style=""></g><g id="cPS_crown" style="">	<path class="cP-cls-10" d="M37.1,34.7c3.2,4.6,2.1,19,0.7,20.1c-1.1,0.8-14,0.5-16.3-1.9c-2.3-2.3-2.6-16.7,0.6-19   C23.8,32.7,35.2,31.9,37.1,34.7z" data-color-action="fill" style="fill:inherit" /></g><g id="cPS_cracked_surface_distal" style="">	<polyline class="cP-cls-11" points="22.5,50.2 18.6,46.4 23.6,46.4 18.6,41.6 23.6,41.6 19.8,37.8  " data-color-action="stroke" style="stroke:inherit" /></g><g id="cPS_cracked_surface_lingual" style="">	<polyline class="cP-cls-11" points="31.2,50.2 27.3,46.4 32.3,46.4 27.3,41.6 32.3,41.6 28.5,37.8  " data-color-action="stroke" style="stroke:inherit" /></g><g id="cPS_cracked_surface_lingual_V" style="">	<polyline class="cP-cls-11" points="31.2,50.2 27.3,46.4 32.3,46.4 27.3,41.6 32.3,41.6 28.5,37.8  " data-color-action="stroke" style="stroke:inherit" /></g><g id="cPS_cracked_surface_mesial" style="">	<polyline class="cP-cls-11" points="39.4,50.2 35.5,46.4 40.5,46.4 35.5,41.6 40.5,41.6 36.7,37.8  " data-color-action="stroke" style="stroke:inherit" /></g><g id="cPS_chipped_surface_distal" style="">	<g>		<line class="cP-cls-11" x1="25.4" y1="48.5" x2="17.1" y2="40.2" data-color-action="stroke" style="stroke:inherit" />		<line class="cP-cls-11" x1="17.1" y1="48.5" x2="25.4" y2="40.2" data-color-action="stroke" style="stroke:inherit" />	</g></g><g id="cPS_chipped_surface_lingual" style="">	<g>		<line class="cP-cls-11" x1="33.7" y1="48.5" x2="25.3" y2="40.2" data-color-action="stroke" style="stroke:inherit" />		<line class="cP-cls-11" x1="25.3" y1="48.5" x2="33.7" y2="40.2" data-color-action="stroke" style="stroke:inherit" />	</g></g><g id="cPS_chipped_surface_lingual_V" style="">	<g>		<line class="cP-cls-11" x1="33.7" y1="48.5" x2="25.3" y2="40.2" data-color-action="stroke" style="stroke:inherit" />		<line class="cP-cls-11" x1="25.3" y1="48.5" x2="33.7" y2="40.2" data-color-action="stroke" style="stroke:inherit" />	</g></g><g id="cPS_chipped_surface_mesial" style="">	<g>		<line class="cP-cls-11" x1="42" y1="48.5" x2="33.7" y2="40.2" data-color-action="stroke" style="stroke:inherit" />		<line class="cP-cls-11" x1="33.7" y1="48.5" x2="42" y2="40.2" data-color-action="stroke" style="stroke:inherit" />	</g></g><g id="cPS_abscess" style=""></g><g id="cPS_missing_tooth" style="" data-name="missing tooth">	<g>		<g>			<path class="cP-cls-2" d="M37.1,34.7c3.2,4.6,2.1,19,0.7,20.1c-1.1,0.8-14,0.5-16.3-1.9c-2.3-2.3-2.6-16.7,0.6-19     C23.8,32.7,35.2,31.9,37.1,34.7z" data-color-action="fill,stroke" style="fill,stroke:inherit" />		</g>		<g>			<path class="cP-cls-9" d="M37.1,34.7c3.2,4.6,2.1,19,0.7,20.1c-1.1,0.8-14,0.5-16.3-1.9c-2.3-2.3-2.6-16.7,0.6-19     C23.8,32.7,35.2,31.9,37.1,34.7z" />		</g>		<path class="cP-cls-9" d="M38.8,52c-1.2,0.7-3,0.6-4.8,0.6c-2.6,0-8.7-0.4-11.3-1.2c-1.2-0.4-2-1.2-2.4-1.9c0.3,1.6,0.7,2.9,1.3,3.4    c2.3,2.3,15.2,2.7,16.3,1.9C38.2,54.5,38.5,53.5,38.8,52z" />		<path class="cP-cls-9" d="M35.8,40.3c1.2,0,0.5-2.4-0.2-3.6s-3.4-1.5-6.3-1.4c-2.9,0.1-6,0.2-6.6,1.6c-0.6,1.4-1.5,4.9-0.6,5    c0.9,0.1,0.8-3,2.3-4s2.2,0.7,4.1,0.6s2.3-1.2,4.7-0.7C35.4,38.3,34.6,40.3,35.8,40.3z" />	</g></g><g id="cPS_watch_tooth" style=""></g><g id="cPS_border" style="">	<rect transform="matrix(-1 8.977784e-11 -8.977784e-11 -1 59 66)" class="cP-cls-12" width="59" height="66" /></g></defs></g></svg>