<svg version="1.1" xmlns="http://www.w3.org/2000/svg" xmlns:xlink="http://www.w3.org/1999/xlink" x="0px" y="0px" viewBox="0 0 59 283" style="enable-background:new 0 0 59 161;" xml:space="preserve"><defs><style type="text/css">.aB-cls-2{fill:#C4C6C7;stroke:#C4C6C7;stroke-width:5;stroke-miterlimit:10;}.aB-cls-3{fill:#F5D7CF;stroke:none;}.aB-cls-4{fill:#F2C6BC;stroke:none;}.aB-cls-5{fill:#FAE8E3;stroke:none;}.aB-cls-6{fill:#EEEFEF;stroke:none;}.aB-cls-7{fill:#E2E3E4;stroke:none;}.aB-cls-8{fill:#FBFBFB;stroke:none;}.aB-cls-9{fill:#929497;stroke:none;}.aB-cls-10{font-family:'ProximaNova-Semibold',sans-serif;}.aB-cls-11{font-size:15px;}.aB-cls-12{opacity:0.55;fill:#3C3D3D;stroke:none;}.aB-cls-13{fill:#FFD403;stroke:none;}.aB-cls-14{fill:none;stroke:#C52636;stroke-width:3.622;stroke-miterlimit:10;}.aB-cls-15{font-family:'ProximaNova-Bold',sans-serif;}.aB-cls-16{font-size:13.6587px;}.aB-cls-17{fill:none;stroke:none;}.aB-cls-18{fill:#28418B;stroke:none;}.aB-cls-19{fill:#787878;stroke:none;}.aB-cls-20{fill:none;stroke:#C52636;stroke-width:2;stroke-miterlimit:10;}.aB-cls-21{fill:#C52636;stroke:none;}.aB-cls-22{fill:none;stroke:#C52636;stroke-width:2;stroke-linecap:round;stroke-miterlimit:10;}.aB-cls-23{fill:#C5C7C9;stroke:none;}.aB-cls-24{fill:#FFF;stroke:none;}.aB-cls-25{fill:none;stroke:#28418B;stroke-width:2;stroke-miterlimit:10;}.aB-cls-26{fill:#FFEF3E;stroke:none;}.aB-cls-27{fill:none;stroke:#C52636;stroke-width:1.25;stroke-miterlimit:10;}.aB-cls-28{fill:#9B9999;stroke:none;}.aB-cls-29{fill:#DBDBDC;stroke:none;}.aB-cls-30{fill:#3C3D3D;stroke:none;}.bB-cls-2{fill:#C4C6C7;stroke:#C4C6C7;stroke-width:5;stroke-miterlimit:10;}.bB-cls-3{fill:#EEEFEF;stroke:none;}.bB-cls-4{fill:#E2E3E4;stroke:none;}.bB-cls-5{fill:#FBFBFB;stroke:none;}.bB-cls-6{opacity:0.55;fill:#3C3D3D;stroke:none;}.bB-cls-7{fill:#787878;stroke:none;}.bB-cls-8{fill:none;stroke:none;}.bB-cls-9{fill:#28418B;stroke:none;}.bB-cls-10{font-family:'ProximaNova-Semibold',sans-serif;}.bB-cls-11{font-size:33px;}.bB-cls-12{fill:#FFF;stroke:none;}.bB-cls-13{fill:#FFEF3E;stroke:none;}.bB-cls-14{fill:none;stroke:#C52636;stroke-width:1.25;stroke-miterlimit:10;}.cB-cls-2{fill:#C4C6C7;stroke:#C4C6C7;stroke-width:5;stroke-miterlimit:10;}.cB-cls-3{fill:#EEEFEF;stroke:none;}.cB-cls-4{fill:#E2E3E4;stroke:none;}.cB-cls-5{fill:#FBFBFB;stroke:none;}.cB-cls-6{opacity:0.55;fill:#3C3D3D;stroke:none;}.cB-cls-7{fill:#28418B;stroke:none;}.cB-cls-8{fill:#787878;stroke:none;}.cB-cls-9{fill:#FFF;stroke:none;}.cB-cls-10{fill:#FFEF3E;stroke:none;}.cB-cls-11{fill:none;stroke:#C52636;stroke-width:1.25;stroke-miterlimit:10;}.cB-cls-12{fill:none;stroke:none;}.aB-msng-cls-1{isolation:isolate;}.aB-msng-cls-2{fill:#C4C6C7;stroke:#C4C6C7;stroke-width:5px;}.aB-msng-cls-11,.aB-msng-cls-2{stroke-miterlimit:10;}.aB-msng-cls-3{fill:#F5D7CF;stroke:none;}.aB-msng-cls-4{fill:#F2C6BC;stroke:none;}.aB-msng-cls-5{fill:#FAE8E3;stroke:none;}.aB-msng-cls-6{fill:#EEEFEF;stroke:none;}.aB-msng-cls-7{fill:#E2E3E4;stroke:none;}.aB-msng-cls-8{fill:#FBFBFB;stroke:none;}.aB-msng-cls-9{font-size:15px;fill:#929497;font-family:ProximaNova-Semibold,Proxima Nova;font-weight:700;stroke:none;}.aB-msng-cls-10{}.aB-msng-cls-11,.aB-msng-cls-12{fill:none;stroke:none;}.aB-msng-cls-11{stroke:#787878;stroke-width:6.25px;}</style></defs><title>ToothBS_Layered</title><g class="aB-cls-1"><g id="_Ba">	<g>		<path class="aB-cls-2" d="M49.4,137.8c-0.6-4.2-1.6-13.4-4.7-15.5c0-0.3,0-0.5,0-0.8c0.1-3.7,3.6-10.1,4.3-17.7    c0.7-7.6-2.7-15.4-5.3-18.4c-2.3-2.6-4.7-2.3-4.2-0.2c0.9,4.4,0.4,12-1.5,17.5c-0.7,1.9-1.8,3.7-3,5.2c0-2.3-0.3-4.9-0.8-7.6    c-1-4.8-4.6-12.8-6.1-12.8c-1.5,0-0.5,4.7-0.9,8.6c-0.7,6.3-1.5,10.2-2.3,13.1c-2.6-2.5-5.1-6.1-6-8.9c-1-3.1-3.3-11.7-3.6-14.1    c-0.3-2.4-1.9-3.9-3.3-1c-1.6,3.2-2.8,8.7-2,15.1c0.8,6.5,6.2,15.5,6.6,19.4c0.3,2.7-0.3,4.8-0.7,5.8c-0.4,0.1-0.7,0.3-0.9,0.5    c-2,3.2-2.7,5.7-3.8,10.2c-0.6,2.5,0.9,9.1,6.5,10.2c7.4,0.8,6.7-0.4,8.7-0.1c2.1,0.2,5.8,3.3,11.5,2.2    C43.5,147.5,50,142.1,49.4,137.8z" />		<path class="aB-cls-3" d="M34,116.8c0,0,2.1-7.3,0.1-16.5c-1-4.8-4.6-12.8-6.1-12.8c-1.5,0-0.5,4.7-0.9,8.6c-0.9,8.9-2.3,13.1-3.3,16.2    c-1.1,3.1-1.1,6.8,3.6,7.1C32,119.5,33.6,119,34,116.8z" />		<path class="aB-cls-4" d="M23.7,112.2c1.1-3.1,2.4-7.3,3.3-16.2c0.1-0.5,0.1-1.1,0.1-1.7c0.2,1.5,0.4,3.4,0.3,5.7    c-0.1,3.3-0.3,5.6,0.2,6.5c0.5,0.9,3,3.8,4.7,2.9c1.7-0.9,1-6.9,0.7-9.5c-0.1-1.2-0.7-4.1-1.3-6.7c1,2.4,1.9,5,2.4,7.1    c2,9.3-0.1,16.5-0.1,16.5c-0.4,2.2-2,2.7-6.6,2.4C22.7,119,22.7,115.3,23.7,112.2z" />		<path class="aB-cls-3" d="M46.3,127.1c0,0-1.7-1.9-1.6-5.6c0.1-3.7,3.6-10.1,4.3-17.7s-2.7-15.4-5.3-18.4c-2.3-2.6-4.7-2.3-4.2-0.2    c0.9,4.4,0.4,12-1.5,17.5s-7.2,9.8-8.8,9.4c-3.7-1-9-7.4-10.5-11.8c-1-3.1-3.3-11.7-3.6-14.1c-0.3-2.4-1.9-3.9-3.3-1    c-1.6,3.2-2.8,8.7-2,15.1s6.2,15.5,6.6,19.4c0.4,3.9-1.1,6.6-1.1,6.6s6.5,2.3,14.9,2.2C38.6,128.3,46.3,127.1,46.3,127.1z" />		<path class="aB-cls-5" d="M12.9,85c0.4,0.2-1.1,3.3,0.2,8.3c3.7,14.8,9.6,18.9,11,23.2c1.2,3.6,1.4,6.7,0.9,9.6    c-0.5,2.9-4.6,0.7-4.6,0.7s1.2-4.4,0.8-8.7c-0.3-4.3-5.4-11.7-7-16.9s-2-7.2-2-10.2C12.1,87.5,12.5,84.8,12.9,85z" />		<path class="aB-cls-4" d="M42.6,124.9c0,0.8,1.9,1.6,3.4,2.2c0.2,0,0.3,0,0.3,0s-1.7-1.9-1.6-5.6c0.1-3.7,3.6-10.1,4.2-17.7    c0.4-4.4-0.5-8.8-1.9-12.3c0.4,2.9,0.7,6.4,0.7,9c-0.1,5.3-5,18.7-5.1,20.3C42.6,122.4,42.6,123.6,42.6,124.9z" />		<path class="aB-cls-4" d="M15.7,89.5c0.3,2.8,1.5,8.6,2.4,11.2c2.1,6,5.6,9.4,8.5,11.8c2.6,2.1,7.4,0.9,9.5-2.1    c1.5-2.3,4.2-7.9,4.6-16.1c0.2-5.1-0.7-7.9-1.4-9.2c0,0.1,0,0.1,0,0.2c0.9,4.4,0.4,12-1.5,17.5c-1.9,5.4-7.2,9.8-8.8,9.4    c-3.6-0.9-9-7.4-10.5-11.8C17.9,98,16.6,93,15.7,89.5z" />		<path class="aB-cls-4" d="M16.4,119.7c0.4,3.9-1.1,6.6-1.1,6.6s0.7,0.2,1.8,0.6c0.3-0.9,0.9-2.6,1.1-5c0.4-3.7-4.7-12.5-6-16.8    c-1.1-3.5-2.2-6.6-2-12.3c0-0.9,0.3-3.5,0.5-5.5c-1.1,3.3-1.7,7.8-1.1,13C10.6,106.7,16,115.7,16.4,119.7z" />		<path class="aB-cls-5" d="M41.3,85c0,0,2.9,3.8,3.4,9c0.3,3.3-0.3,8.5-1.7,13.5c-1.4,5-3.2,7.6-3.7,7.5s1-4.1,2.1-8.3    c1-3.9,1.4-9.6,1.2-12.7C42.4,88.4,40.4,85.2,41.3,85z" />		<path class="aB-cls-5" d="M28.4,89.5c0.5-0.1,1.6,4.9,1.7,7.4c0.2,3.8-0.8,7.4-1.2,7.4c-0.4-0.1,0.3-3.6,0.1-7.4    C28.7,91,27.8,89.6,28.4,89.5z" />		<g>			<path class="aB-cls-6" d="M44.4,122.2c3.3,1.7,4.4,11.3,5,15.6c0.6,4.3-5.9,9.7-11.7,10.7c-5.8,1-9.4-2-11.5-2.2     c-2-0.2-1.3,0.9-8.7,0.1c-5.6-1.2-7.1-7.7-6.5-10.2c1.1-4.5,1.8-7,3.8-10.2c1-1.3,9.9-1.6,13.2-1.5s7.9-3.1,13.2-2.8     C42.7,121.8,43.9,121.9,44.4,122.2z" />			<g>				<path class="aB-cls-7" d="M49.4,137.8c-0.6-4.3-1.7-13.9-5-15.6c-0.3-0.2-0.9-0.3-1.7-0.4c2.4,2.7,4.2,8.4,4.7,12.8      c0.4,3,0.8,5.8,0.4,7.8C49,140.9,49.6,139.3,49.4,137.8z" />				<path class="aB-cls-7" d="M14.8,126c-2,3.2-2.7,5.7-3.8,10.2c-0.4,1.7,0.2,5.4,2.4,7.9c-0.4-1.4-1.1-5.1-0.9-6.2      c0.9-5.5,2.4-9.3,4.6-12.8C16,125.3,15.1,125.6,14.8,126z" />			</g>			<path class="aB-cls-7" d="M26.2,146.3c0.6,0.1,1.4,0.4,2.3,0.8c-0.4-0.4-0.7-0.8-0.8-1c-0.4-0.7-1.8-0.9-2.3-0.3     c-0.2,0.2-0.4,0.4-0.6,0.6C25.2,146.3,25.6,146.2,26.2,146.3z" />			<path class="aB-cls-8" d="M24.7,124.5c-1.3,0-2.7,0.1-4,0.2c0,0.1-0.1,0.2-0.1,0.3c-0.9,3.2-1.4,7-1.5,9.3c-0.1,2.6-0.5,6.9,0.2,11.4     c0,0,0.1,0.4,0.3,1c2.2,0.2,3.4,0.1,4.2,0c0-0.2-0.1-0.4-0.1-0.4c-0.4-2.6-0.6-7.3-0.6-9.6c0-3.1,0.1-6.4,1.2-10.7     C24.3,125.6,24.5,125.1,24.7,124.5z" />		</g>		<path class="aB-cls-8" d="M30.5,143.8c-0.5-0.3-1.1,3,0.3,3.2C32.2,147.2,31.4,144.4,30.5,143.8z" />	</g>	<text transform="matrix(1 0 0 1 19.48 20.508)" class="aB-cls-9 aB-cls-10 aB-cls-11">BS</text></g><defs><g id="aBS_bone_graft" style="">	<g>		<g>							<ellipse transform="matrix(0.1539 -0.9881 0.9881 0.1539 -106.1107 120.5387)" class="aB-cls-14" cx="17.3" cy="122.2" rx="12.7" ry="12.7" data-color-action="stroke" style="stroke:inherit" />			<line class="aB-cls-14" x1="10.3" y1="112.6" x2="24.3" y2="131.8" data-color-action="stroke" style="stroke:inherit" />		</g>		<text transform="matrix(1 0 0 1 6.7033 126.808)" class="aB-cls-15 aB-cls-16">NA</text>	</g></g><g id="aBS_splinted_crowns" style="">	<g>		<g>							<ellipse transform="matrix(0.1539 -0.9881 0.9881 0.1539 -106.1107 120.5387)" class="aB-cls-14" cx="17.3" cy="122.2" rx="12.7" ry="12.7" data-color-action="stroke" style="stroke:inherit" />			<line class="aB-cls-14" x1="10.3" y1="112.6" x2="24.3" y2="131.8" data-color-action="stroke" style="stroke:inherit" />		</g>		<text transform="matrix(1 0 0 1 6.7033 126.808)" class="aB-cls-15 aB-cls-16">NA</text>	</g></g><g id="aBS_mesial" style="">	<path class="aB-cls-12" d="M45.1,136.3c-0.1,0.8-0.2,1.8-0.5,2.6l2.6,4.1c1.5-1.7,2.4-3.6,2.2-5.3c-0.2-1.5-0.5-3.7-0.9-6   C46.9,132.6,45.4,134,45.1,136.3z" data-color-action="fill" style="fill:inherit" /></g><g id="aBS_line_angle_2" style="">	<path class="aB-cls-12" d="M39.5,142.7c-1.4,0-2.4-0.3-3.2-0.7l1.4,6.5c0,0,0,0,0.1,0c3.5-0.6,7.2-2.9,9.5-5.5l-2.6-4.1   C44.1,141,42.9,142.8,39.5,142.7z" data-color-action="fill" style="fill:inherit" /></g><g id="aBS_groove_1" style="">	<path class="aB-cls-12" d="M30.8,139.4c-2.2-0.1-4,1.2-6.2,2.1l-1.2,5.1c1.5-0.1,1.7-0.5,2.9-0.3c2.1,0.2,5.8,3.3,11.5,2.2l-1.4-6.5   C34.2,141.1,33.3,139.5,30.8,139.4z" data-color-action="fill" style="fill:inherit" /></g><g id="aBS_line_angle_1" style="">	<path class="aB-cls-12" d="M20.2,142.4c-2.1-0.1-3.5-1.4-4.6-3.5l-3,4.2c1,1.6,2.6,2.9,4.9,3.4c3.1,0.3,4.7,0.3,5.8,0.2l1.2-5.1   C23.4,142,22,142.4,20.2,142.4z" data-color-action="fill" style="fill:inherit" /></g><g id="aBS_distal" style="">	<path class="aB-cls-12" d="M12.7,143l3-4.2c-0.7-1.3-1.2-2.9-1.7-4.7c-0.3-1.1-0.9-1.8-1.7-2.4c-0.4,1.3-0.8,2.7-1.1,4.4   C10.7,137.7,11.1,140.7,12.7,143z" data-color-action="fill" style="fill:inherit" /></g><g id="aBS_buccal_pit" style="">	<ellipse class="aB-cls-12" cx="30.7" cy="132.8" rx="3" ry="4.4" data-color-action="fill" style="fill:inherit" /></g><g id="aBS_buccal_V" style="">	<path class="aB-cls-12" d="M40.1,121.7c-4.8,0.2-9.1,2.9-12.1,2.8c-1.6-0.1-4.8,0-7.5,0.2c3.2,2.2,6.5,3.2,9.8,2.9   C33.9,127.2,37.2,125.1,40.1,121.7z" data-color-action="fill" style="fill:inherit" /></g><g id="aBS_veneer" style="">	<g>		<g>							<ellipse transform="matrix(0.1539 -0.9881 0.9881 0.1539 -106.1107 120.5387)" class="aB-cls-14" cx="17.3" cy="122.2" rx="12.7" ry="12.7" data-color-action="stroke" style="stroke:inherit" />			<line class="aB-cls-14" x1="10.3" y1="112.6" x2="24.3" y2="131.8" data-color-action="stroke" style="stroke:inherit" />		</g>		<text transform="matrix(1 0 0 1 6.7033 126.808)" class="aB-cls-15 aB-cls-16">NA</text>	</g></g><g id="aBS_tissue_graft" style="">	<g>		<g>							<ellipse transform="matrix(0.1539 -0.9881 0.9881 0.1539 -106.1107 120.5387)" class="aB-cls-14" cx="17.3" cy="122.2" rx="12.7" ry="12.7" data-color-action="stroke" style="stroke:inherit" />			<line class="aB-cls-14" x1="10.3" y1="112.6" x2="24.3" y2="131.8" data-color-action="stroke" style="stroke:inherit" />		</g>		<text transform="matrix(1 0 0 1 6.7033 126.808)" class="aB-cls-15 aB-cls-16">NA</text>	</g></g><g id="aBS_tipped_lingual" style="">	<rect x="28" y="3.2" class="aB-cls-17" width="3" height="3" /></g><g id="aBS_tipped_facial" style="">	<g>		<path class="aB-cls-18" d="M26.1,150.2c1.2,3.2,4.5,3.6,7.2-5c0.5-1.5,4.2-1.7,3.6,0c-1.9,5.7-5,9.6-8.5,8.7c-1.2-0.3-2.3-1.6-2.8-3.2    C25.8,150.6,26,150.3,26.1,150.2z" data-color-action="fill" style="fill:inherit" />		<polygon class="aB-cls-18" points="28,147.4 40.2,147.4 37.4,138.4   " data-color-action="fill" style="fill:inherit" />	</g></g><g id="aBS_surface_restoration_occlusal" style="">	<path class="aB-cls-19" d="M26.2,146.3c2.1,0.2,5.8,3.3,11.5,2.2c2.7-0.5,5.5-1.9,7.7-3.7l-4.4-5.4c-1.2,1-2.9,1.9-4.5,2.2   c-0.4,0.1-0.8,0.1-1.2,0.1c-1.4,0-2.7-0.5-4.1-1.1c-1.2-0.5-2.6-1.1-4.2-1.3c-0.5-0.1-0.9-0.1-1.3-0.1c-1.2,0-2,0.2-2.6,0.3   c-0.3,0.1-0.5,0.1-1.3,0.1c-0.4,0-0.8,0-1.3,0l-5,6.1c0.6,0.3,1.2,0.5,1.9,0.7C24.9,147.2,24.3,146.1,26.2,146.3z" data-color-action="fill" style="fill:inherit" /></g><g id="aBS_surface_restoration_mesial" style="">	<path class="aB-cls-19" d="M49.4,137.8c-0.3-1.9-0.6-4.8-1.2-7.6c-3.5-0.4-6.5-2.3-8.3-5.1c0.4,1.9,0.7,3.5,0.7,3.5   c0.6,1.7,1.2,4.9,1.8,9.4c-0.3,0.4-0.8,0.9-1.4,1.4l4.4,5.4C48,142.8,49.8,140.1,49.4,137.8z" data-color-action="fill" style="fill:inherit" /></g><g id="aBS_surface_restoration_buccal" style="">	<g>		<path class="aB-cls-19" d="M39.9,125.2c-0.2-0.4-0.5-0.8-0.7-1.2c-2.9,2.6-6.6,4.1-10.8,4.1c-2.7,0-5.3-0.7-7.5-1.9    c-0.3,0.8-0.8,1.5-1.3,2.2c-0.7,3.8-1.5,7.7-1.8,9c0,0.6,0.4,1.7,0.9,2c1.2,0.1,2.3,0.2,3,0.2c0.8,0,0.9,0,1.3-0.1    c0.5-0.1,1.4-0.3,2.6-0.3c0.4,0,0.9,0,1.3,0.1c1.6,0.2,3,0.8,4.2,1.3c1.4,0.6,2.6,1.1,4.1,1.1c0.4,0,0.8,0,1.2-0.1    c2.5-0.5,5.2-2.5,5.9-3.6c-0.6-4.5-1.2-7.6-1.8-9.4C40.6,128.7,40.3,127.1,39.9,125.2z" data-color-action="fill" style="fill:inherit" />			</g></g><g id="aBS_surface_restoration_buccal_V" style="">	<g>				<path class="aB-cls-19" d="M39.3,124c-0.4-0.7-0.6-1.4-0.9-2.2c-4.1,0.6-7.7,2.8-10.4,2.7c-1.4,0-4,0-6.4,0.1c-0.2,0.6-0.4,1.1-0.6,1.7    c2.2,1.2,4.8,1.9,7.5,1.9C32.6,128.2,36.4,126.6,39.3,124z" data-color-action="fill" style="fill:inherit" />	</g></g><g id="aBS_surface_restoration_distal" style="">	<path class="aB-cls-19" d="M18.8,139.5c-0.5-0.3-0.9-1.5-0.9-2c0.3-1.3,1-5.2,1.8-9c-1.8,2.5-4.6,4.2-7.9,4.6c-0.3,0.9-0.5,2-0.8,3.1   c-0.5,2.2,0.5,7.5,4.6,9.6l5-6.1C20.1,139.7,19.5,139.6,18.8,139.5z" data-color-action="fill" style="fill:inherit" /></g><g id="aBS_supra-erupted" style="">	<g>		<g>							<ellipse transform="matrix(0.1539 -0.9881 0.9881 0.1539 -106.1107 120.5387)" class="aB-cls-14" cx="17.3" cy="122.2" rx="12.7" ry="12.7" data-color-action="stroke" style="stroke:inherit" />			<line class="aB-cls-14" x1="10.3" y1="112.6" x2="24.3" y2="131.8" data-color-action="stroke" style="stroke:inherit" />		</g>		<text transform="matrix(1 0 0 1 6.7033 126.808)" class="aB-cls-15 aB-cls-16">NA</text>	</g></g><g id="aBS_sub-erupted" style="">	<g>		<g>			<line class="aB-cls-20" x1="29.5" y1="115.9" x2="29.5" y2="122.8" data-color-action="stroke" style="stroke:inherit" />			<g>				<polygon class="aB-cls-21" points="25.5,117.1 29.5,110.1 33.5,117.1     " data-color-action="fill" style="fill:inherit" />			</g>		</g>	</g></g><g id="aBS_rotated_mesial" style="">	<g>		<path class="aB-cls-18" d="M7.6,127.4c-2.8,1.7-2.2,5.1,9.6,5.5c5,0.1,8.4,0,8.4,0l-0.1,2.8c0,0-0.9,0.1-7.7-0.2    c-7.2-0.3-13.2-1.7-12.9-5.6c0.1-1,1-2.1,2.2-2.7C7.3,127.2,7.5,127.3,7.6,127.4z" data-color-action="fill" style="fill:inherit" />		<polygon class="aB-cls-18" points="19.5,128.6 19.5,139.8 29.3,134.2   " data-color-action="fill" style="fill:inherit" />	</g></g><g id="aBS_rotated_distal" style="">	<g>		<path class="aB-cls-18" d="M51.7,127.4c2.8,1.7,2.2,5.1-9.6,5.5c-5,0.1-8.4,0-8.4,0l0.1,2.8c0,0,0.9,0.1,7.7-0.2    c7.2-0.3,13.2-1.7,12.9-5.6c-0.1-1-1-2.1-2.2-2.7C52,127.2,51.8,127.3,51.7,127.4z" data-color-action="fill" style="fill:inherit" />		<polygon class="aB-cls-18" points="39.7,128.6 39.7,139.8 29.9,134.2   " data-color-action="fill" style="fill:inherit" />	</g></g><g id="aBS_root_tips" style="">	<g>		<g>							<ellipse transform="matrix(0.1539 -0.9881 0.9881 0.1539 -106.1107 120.5387)" class="aB-cls-14" cx="17.3" cy="122.2" rx="12.7" ry="12.7" data-color-action="stroke" style="stroke:inherit" />			<line class="aB-cls-14" x1="10.3" y1="112.6" x2="24.3" y2="131.8" data-color-action="stroke" style="stroke:inherit" />		</g>		<text transform="matrix(1 0 0 1 6.7033 126.808)" class="aB-cls-15 aB-cls-16">NA</text>	</g></g><g id="aBS_root_decay" style="">	<g>		<g>							<ellipse transform="matrix(0.1539 -0.9881 0.9881 0.1539 -106.1107 120.5387)" class="aB-cls-14" cx="17.3" cy="122.2" rx="12.7" ry="12.7" data-color-action="stroke" style="stroke:inherit" />			<line class="aB-cls-14" x1="10.3" y1="112.6" x2="24.3" y2="131.8" data-color-action="stroke" style="stroke:inherit" />		</g>		<text transform="matrix(1 0 0 1 6.7033 126.808)" class="aB-cls-15 aB-cls-16">NA</text>	</g><g id="root_decay_3">	<g>		<g>							<ellipse transform="matrix(0.1539 -0.9881 0.9881 0.1539 -106.1107 120.5387)" class="aB-cls-14" cx="17.3" cy="122.2" rx="12.7" ry="12.7" data-color-action="stroke" style="stroke:inherit" />			<line class="aB-cls-14" x1="10.3" y1="112.6" x2="24.3" y2="131.8" data-color-action="stroke" style="stroke:inherit" />		</g>		<text transform="matrix(1 0 0 1 6.7033 126.808)" class="aB-cls-15 aB-cls-16">NA</text>	</g></g><g id="root_decay_2">	<g>		<g>							<ellipse transform="matrix(0.1539 -0.9881 0.9881 0.1539 -106.1107 120.5387)" class="aB-cls-14" cx="17.3" cy="122.2" rx="12.7" ry="12.7" data-color-action="stroke" style="stroke:inherit" />			<line class="aB-cls-14" x1="10.3" y1="112.6" x2="24.3" y2="131.8" data-color-action="stroke" style="stroke:inherit" />		</g>		<text transform="matrix(1 0 0 1 6.7033 126.808)" class="aB-cls-15 aB-cls-16">NA</text>	</g></g><g id="root_decay_1">	<g>		<g>							<ellipse transform="matrix(0.1539 -0.9881 0.9881 0.1539 -106.1107 120.5387)" class="aB-cls-14" cx="17.3" cy="122.2" rx="12.7" ry="12.7" data-color-action="stroke" style="stroke:inherit" />			<line class="aB-cls-14" x1="10.3" y1="112.6" x2="24.3" y2="131.8" data-color-action="stroke" style="stroke:inherit" />		</g>		<text transform="matrix(1 0 0 1 6.7033 126.808)" class="aB-cls-15 aB-cls-16">NA</text>	</g></g></g><g id="aBS_root_canal" style="">	<line class="aB-cls-22" x1="44.1" y1="89.6" x2="40.1" y2="119.4" data-color-action="stroke" style="stroke:inherit" /><g id="root_canal_3">	<line class="aB-cls-22" x1="44.1" y1="89.6" x2="40.1" y2="119.4" data-color-action="stroke" style="stroke:inherit" /></g><g id="root_canal_2">	<line class="aB-cls-22" x1="29.4" y1="92.9" x2="29.2" y2="122.1" data-color-action="stroke" style="stroke:inherit" /></g><g id="root_canal_1">	<line class="aB-cls-22" x1="12.2" y1="87.9" x2="20.7" y2="122.8" data-color-action="stroke" style="stroke:inherit" /></g></g><g id="aBS_root_abrasion" style="">	<g>		<g>							<ellipse transform="matrix(0.1539 -0.9881 0.9881 0.1539 -106.1107 120.5387)" class="aB-cls-14" cx="17.3" cy="122.2" rx="12.7" ry="12.7" data-color-action="stroke" style="stroke:inherit" />			<line class="aB-cls-14" x1="10.3" y1="112.6" x2="24.3" y2="131.8" data-color-action="stroke" style="stroke:inherit" />		</g>		<text transform="matrix(1 0 0 1 6.7033 126.808)" class="aB-cls-15 aB-cls-16">NA</text>	</g><g id="root_abrasion_3">	<g>		<g>							<ellipse transform="matrix(0.1539 -0.9881 0.9881 0.1539 -106.1107 120.5387)" class="aB-cls-14" cx="17.3" cy="122.2" rx="12.7" ry="12.7" data-color-action="stroke" style="stroke:inherit" />			<line class="aB-cls-14" x1="10.3" y1="112.6" x2="24.3" y2="131.8" data-color-action="stroke" style="stroke:inherit" />		</g>		<text transform="matrix(1 0 0 1 6.7033 126.808)" class="aB-cls-15 aB-cls-16">NA</text>	</g></g><g id="root_abrasion_2">	<g>		<g>							<ellipse transform="matrix(0.1539 -0.9881 0.9881 0.1539 -106.1107 120.5387)" class="aB-cls-14" cx="17.3" cy="122.2" rx="12.7" ry="12.7" data-color-action="stroke" style="stroke:inherit" />			<line class="aB-cls-14" x1="10.3" y1="112.6" x2="24.3" y2="131.8" data-color-action="stroke" style="stroke:inherit" />		</g>		<text transform="matrix(1 0 0 1 6.7033 126.808)" class="aB-cls-15 aB-cls-16">NA</text>	</g></g><g id="root_abrasion_1">	<g>		<g>							<ellipse transform="matrix(0.1539 -0.9881 0.9881 0.1539 -106.1107 120.5387)" class="aB-cls-14" cx="17.3" cy="122.2" rx="12.7" ry="12.7" data-color-action="stroke" style="stroke:inherit" />			<line class="aB-cls-14" x1="10.3" y1="112.6" x2="24.3" y2="131.8" data-color-action="stroke" style="stroke:inherit" />		</g>		<text transform="matrix(1 0 0 1 6.7033 126.808)" class="aB-cls-15 aB-cls-16">NA</text>	</g></g></g><g id="aBS_post" style="">	<g>		<g>							<ellipse transform="matrix(0.1539 -0.9881 0.9881 0.1539 -106.1107 120.5387)" class="aB-cls-14" cx="17.3" cy="122.2" rx="12.7" ry="12.7" data-color-action="stroke" style="stroke:inherit" />			<line class="aB-cls-14" x1="10.3" y1="112.6" x2="24.3" y2="131.8" data-color-action="stroke" style="stroke:inherit" />		</g>		<text transform="matrix(1 0 0 1 6.7033 126.808)" class="aB-cls-15 aB-cls-16">NA</text>	</g></g><g id="aBS_pins" style="">	<g>		<g>			<rect x="19.5" y="111.9" class="aB-cls-19" width="2.3" height="22" data-color-action="fill" style="fill:inherit" />			<rect x="20.1" y="111.9" class="aB-cls-23" width="0.3" height="22" />		</g>		<g>			<rect x="23.8" y="111.9" class="aB-cls-19" width="2.3" height="22" data-color-action="fill" style="fill:inherit" />			<rect x="24.4" y="111.9" class="aB-cls-23" width="0.3" height="22" />		</g>	</g>	<g>		<g>			<rect x="34.3" y="111.9" class="aB-cls-19" width="2.3" height="22" data-color-action="fill" style="fill:inherit" />			<rect x="35" y="111.9" class="aB-cls-23" width="0.3" height="22" />		</g>		<g>			<rect x="38.6" y="111.9" class="aB-cls-19" width="2.3" height="22" data-color-action="fill" style="fill:inherit" />			<rect x="39.3" y="111.9" class="aB-cls-23" width="0.3" height="22" />		</g>	</g></g><g id="aBS_open_contact_mesial" style="">	<g>		<g>							<ellipse transform="matrix(0.1539 -0.9881 0.9881 0.1539 -106.1107 120.5387)" class="aB-cls-14" cx="17.3" cy="122.2" rx="12.7" ry="12.7" data-color-action="stroke" style="stroke:inherit" />			<line class="aB-cls-14" x1="10.3" y1="112.6" x2="24.3" y2="131.8" data-color-action="stroke" style="stroke:inherit" />		</g>		<text transform="matrix(1 0 0 1 6.7033 126.808)" class="aB-cls-15 aB-cls-16">NA</text>	</g></g><g id="aBS_open_contact_distal" style="">	<g>		<g>							<ellipse transform="matrix(0.1539 -0.9881 0.9881 0.1539 -106.1107 120.5387)" class="aB-cls-14" cx="17.3" cy="122.2" rx="12.7" ry="12.7" data-color-action="stroke" style="stroke:inherit" />			<line class="aB-cls-14" x1="10.3" y1="112.6" x2="24.3" y2="131.8" data-color-action="stroke" style="stroke:inherit" />		</g>		<text transform="matrix(1 0 0 1 6.7033 126.808)" class="aB-cls-15 aB-cls-16">NA</text>	</g></g><g id="aBS_mesial_drift" style="">	<g>		<g>			<line class="aB-cls-25" x1="32.1" y1="134" x2="21.2" y2="134" data-color-action="stroke" style="stroke:inherit" />			<g>				<polygon class="aB-cls-18" points="30.9,130 37.8,134 30.9,137.9     " data-color-action="fill" style="fill:inherit" />			</g>		</g>	</g></g><g id="aBS_lingual_abfraction" style="">	<g>		<g>							<ellipse transform="matrix(0.1539 -0.9881 0.9881 0.1539 -106.1107 120.5387)" class="aB-cls-14" cx="17.3" cy="122.2" rx="12.7" ry="12.7" data-color-action="stroke" style="stroke:inherit" />			<line class="aB-cls-14" x1="10.3" y1="112.6" x2="24.3" y2="131.8" data-color-action="stroke" style="stroke:inherit" />		</g>		<text transform="matrix(1 0 0 1 6.7033 126.808)" class="aB-cls-15 aB-cls-16">NA</text>	</g></g><g id="aBS_internal_root_resorption" style="">	<g>		<g>							<ellipse transform="matrix(0.1539 -0.9881 0.9881 0.1539 -106.1107 120.5387)" class="aB-cls-14" cx="17.3" cy="122.2" rx="12.7" ry="12.7" data-color-action="stroke" style="stroke:inherit" />			<line class="aB-cls-14" x1="10.3" y1="112.6" x2="24.3" y2="131.8" data-color-action="stroke" style="stroke:inherit" />		</g>		<text transform="matrix(1 0 0 1 6.7033 126.808)" class="aB-cls-15 aB-cls-16">NA</text>	</g></g><g id="aBS_impacted_mesial" style="">	<g>		<g>							<ellipse transform="matrix(0.1539 -0.9881 0.9881 0.1539 -106.1107 120.5387)" class="aB-cls-14" cx="17.3" cy="122.2" rx="12.7" ry="12.7" data-color-action="stroke" style="stroke:inherit" />			<line class="aB-cls-14" x1="10.3" y1="112.6" x2="24.3" y2="131.8" data-color-action="stroke" style="stroke:inherit" />		</g>		<text transform="matrix(1 0 0 1 6.7033 126.808)" class="aB-cls-15 aB-cls-16">NA</text>	</g></g><g id="aBS_impacted_distal" style="">	<g>		<g>							<ellipse transform="matrix(0.1539 -0.9881 0.9881 0.1539 -106.1107 120.5387)" class="aB-cls-14" cx="17.3" cy="122.2" rx="12.7" ry="12.7" data-color-action="stroke" style="stroke:inherit" />			<line class="aB-cls-14" x1="10.3" y1="112.6" x2="24.3" y2="131.8" data-color-action="stroke" style="stroke:inherit" />		</g>		<text transform="matrix(1 0 0 1 6.7033 126.808)" class="aB-cls-15 aB-cls-16">NA</text>	</g></g><g id="aBS_gortex_membranes" style="">	<g>		<g>							<ellipse transform="matrix(0.1539 -0.9881 0.9881 0.1539 -106.1107 120.5387)" class="aB-cls-14" cx="17.3" cy="122.2" rx="12.7" ry="12.7" data-color-action="stroke" style="stroke:inherit" />			<line class="aB-cls-14" x1="10.3" y1="112.6" x2="24.3" y2="131.8" data-color-action="stroke" style="stroke:inherit" />		</g>		<text transform="matrix(1 0 0 1 6.7033 126.808)" class="aB-cls-15 aB-cls-16">NA</text>	</g></g><g id="aBS_frenum_pull" style="">	<g>		<g>							<ellipse transform="matrix(0.1539 -0.9881 0.9881 0.1539 -106.1107 120.5387)" class="aB-cls-14" cx="17.3" cy="122.2" rx="12.7" ry="12.7" data-color-action="stroke" style="stroke:inherit" />			<line class="aB-cls-14" x1="10.3" y1="112.6" x2="24.3" y2="131.8" data-color-action="stroke" style="stroke:inherit" />		</g>		<text transform="matrix(1 0 0 1 6.7033 126.808)" class="aB-cls-15 aB-cls-16">NA</text>	</g></g><g id="aBS_external_root_resorption" style="">	<g>		<g>							<ellipse transform="matrix(0.1539 -0.9881 0.9881 0.1539 -106.1107 120.5387)" class="aB-cls-14" cx="17.3" cy="122.2" rx="12.7" ry="12.7" data-color-action="stroke" style="stroke:inherit" />			<line class="aB-cls-14" x1="10.3" y1="112.6" x2="24.3" y2="131.8" data-color-action="stroke" style="stroke:inherit" />		</g>		<text transform="matrix(1 0 0 1 6.7033 126.808)" class="aB-cls-15 aB-cls-16">NA</text>	</g></g><g id="aBS_diastema_mesial" style="">	<g>		<g>							<ellipse transform="matrix(0.1539 -0.9881 0.9881 0.1539 -106.1107 120.5387)" class="aB-cls-14" cx="17.3" cy="122.2" rx="12.7" ry="12.7" data-color-action="stroke" style="stroke:inherit" />			<line class="aB-cls-14" x1="10.3" y1="112.6" x2="24.3" y2="131.8" data-color-action="stroke" style="stroke:inherit" />		</g>		<text transform="matrix(1 0 0 1 6.7033 126.808)" class="aB-cls-15 aB-cls-16">NA</text>	</g></g><g id="aBS_diastema_distal" style="">	<g>		<g>							<ellipse transform="matrix(0.1539 -0.9881 0.9881 0.1539 -106.1107 120.5387)" class="aB-cls-14" cx="17.3" cy="122.2" rx="12.7" ry="12.7" data-color-action="stroke" style="stroke:inherit" />			<line class="aB-cls-14" x1="10.3" y1="112.6" x2="24.3" y2="131.8" data-color-action="stroke" style="stroke:inherit" />		</g>		<text transform="matrix(1 0 0 1 6.7033 126.808)" class="aB-cls-15 aB-cls-16">NA</text>	</g></g><g id="aBS_distal_drift" style="">	<g>		<g>			<line class="aB-cls-25" x1="26.9" y1="134" x2="37.8" y2="134" data-color-action="stroke" style="stroke:inherit" />			<g>				<polygon class="aB-cls-18" points="28.1,137.9 21.2,134 28.1,130     " data-color-action="fill" style="fill:inherit" />			</g>		</g>	</g></g><g id="aBS_three_quarter_crown" style="">	<g>		<g>							<ellipse transform="matrix(0.1539 -0.9881 0.9881 0.1539 -106.1107 120.5387)" class="aB-cls-14" cx="17.3" cy="122.2" rx="12.7" ry="12.7" data-color-action="stroke" style="stroke:inherit" />			<line class="aB-cls-14" x1="10.3" y1="112.6" x2="24.3" y2="131.8" data-color-action="stroke" style="stroke:inherit" />		</g>		<text transform="matrix(1 0 0 1 6.7033 126.808)" class="aB-cls-15 aB-cls-16">NA</text>	</g></g><g id="aBS_crown" style="">	<path class="aB-cls-26" d="M44.4,122.2c3.3,1.7,4.4,11.3,5,15.6c0.6,4.3-5.9,9.7-11.7,10.7c-5.8,1-9.4-2-11.5-2.2   c-2-0.2-1.3,0.9-8.7,0.1c-5.6-1.2-7.1-7.7-6.5-10.2c1.1-4.5,1.8-7,3.8-10.2c1-1.3,9.9-1.6,13.2-1.5s7.9-3.1,13.2-2.8   C42.7,121.8,43.9,121.9,44.4,122.2z" data-color-action="fill" style="fill:inherit" /></g><g id="aBS_cracked_surface_mesial" style="">	<polyline class="aB-cls-27" points="44.3,129.8 48.2,133.7 43.2,133.7 48.2,138.4 43.2,138.4 47,142.2  " data-color-action="stroke" style="stroke:inherit" /></g><g id="aBS_cracked_surface_buccal" style="">	<polyline class="aB-cls-27" points="29.2,129.8 33,133.7 28,133.7 33,138.4 28,138.4 31.8,142.2  " data-color-action="stroke" style="stroke:inherit" /></g><g id="aBS_cracked_surface_buccal_V" style="">	<polyline class="aB-cls-27" points="29.2,129.8 33,133.7 28,133.7 33,138.4 28,138.4 31.8,142.2  " data-color-action="stroke" style="stroke:inherit" /></g><g id="aBS_cracked_surface_distal" style="">	<polyline class="aB-cls-27" points="13.3,129.8 17.2,133.7 12.2,133.7 17.2,138.4 12.2,138.4 16,142.2  " data-color-action="stroke" style="stroke:inherit" /></g><g id="aBS_chipped_surface_mesial" style="">	<g>		<line class="aB-cls-27" x1="40.8" y1="131.5" x2="49.2" y2="139.8" data-color-action="stroke" style="stroke:inherit" />		<line class="aB-cls-27" x1="49.2" y1="131.5" x2="40.8" y2="139.8" data-color-action="stroke" style="stroke:inherit" />	</g></g><g id="aBS_chipped_surface_buccal" style="">	<g>		<line class="aB-cls-27" x1="26.7" y1="131.5" x2="35" y2="139.8" data-color-action="stroke" style="stroke:inherit" />		<line class="aB-cls-27" x1="35" y1="131.5" x2="26.7" y2="139.8" data-color-action="stroke" style="stroke:inherit" />	</g></g><g id="aBS_chipped_surface_buccal_V" style="">	<g>		<line class="aB-cls-27" x1="26.7" y1="131.5" x2="35" y2="139.8" data-color-action="stroke" style="stroke:inherit" />		<line class="aB-cls-27" x1="35" y1="131.5" x2="26.7" y2="139.8" data-color-action="stroke" style="stroke:inherit" />	</g></g><g id="aBS_chipped_surface_distal" style="">	<g>		<line class="aB-cls-27" x1="11.7" y1="131.5" x2="20" y2="139.8" data-color-action="stroke" style="stroke:inherit" />		<line class="aB-cls-27" x1="20" y1="131.5" x2="11.7" y2="139.8" data-color-action="stroke" style="stroke:inherit" />	</g></g><g id="aBS_buccal_abfraction" style="">	<g>		<g>							<ellipse transform="matrix(0.1539 -0.9881 0.9881 0.1539 -106.1107 120.5387)" class="aB-cls-14" cx="17.3" cy="122.2" rx="12.7" ry="12.7" data-color-action="stroke" style="stroke:inherit" />			<line class="aB-cls-14" x1="10.3" y1="112.6" x2="24.3" y2="131.8" data-color-action="stroke" style="stroke:inherit" />		</g>		<text transform="matrix(1 0 0 1 6.7033 126.808)" class="aB-cls-15 aB-cls-16">NA</text>	</g></g><g id="aBS_braces" style="">	<g>		<g>			<rect x="23.6" y="127" class="aB-cls-23" width="13.5" height="18.2" />			<rect x="23.6" y="144.5" class="aB-cls-28" width="13.5" height="0.7" data-color-action="fill" style="fill:inherit" />			<rect x="23.6" y="136.2" class="aB-cls-28" width="13.5" height="1.4" data-color-action="fill" style="fill:inherit" />			<rect x="23.6" y="127" class="aB-cls-29" width="13.5" height="0.9" data-color-action="fill" style="fill:inherit" />			<g>				<g>					<g>						<path class="aB-cls-30" d="M26.9,127h-3.1c-0.3,0-0.5,0.2-0.5,0.5v7c0,0.3,0.2,0.5,0.5,0.5h3.1c0.3,0,0.5-0.2,0.5-0.5v-7        C27.4,127.2,27.2,127,26.9,127z" data-color-action="fill" style="fill:inherit" />						<path class="aB-cls-19" d="M26.9,127h-3.1c-0.3,0-0.5,0.2-0.5,0.5v5.8c0.7,0.1,1.3,0.2,2,0.2c0.7,0,1.4-0.1,2.1-0.2v-5.8        C27.4,127.2,27.2,127,26.9,127z" data-color-action="fill" style="fill:inherit" />						<path class="aB-cls-23" d="M27.1,128.4v-1.1c0-0.1-0.1-0.2-0.2-0.2h-3.1c-0.1,0-0.2,0.1-0.2,0.2v1.1H27.1z" />					</g>					<g>						<path class="aB-cls-30" d="M36.8,127h-3.1c-0.3,0-0.5,0.2-0.5,0.5v7c0,0.3,0.2,0.5,0.5,0.5h3.1c0.3,0,0.5-0.2,0.5-0.5v-7        C37.3,127.2,37.1,127,36.8,127z" data-color-action="fill" style="fill:inherit" />						<path class="aB-cls-19" d="M36.8,127h-3.1c-0.3,0-0.5,0.2-0.5,0.5v5.8c0.7,0.1,1.3,0.2,2,0.2c0.7,0,1.4-0.1,2.1-0.2v-5.8        C37.3,127.2,37.1,127,36.8,127z" data-color-action="fill" style="fill:inherit" />						<path class="aB-cls-23" d="M37,128.4v-1.1c0-0.1-0.1-0.2-0.2-0.2h-3.1c-0.1,0-0.2,0.1-0.2,0.2v1.1H37z" />					</g>				</g>				<g>					<g>						<path class="aB-cls-30" d="M26.9,137.3h-3.1c-0.3,0-0.5,0.2-0.5,0.5v7c0,0.3,0.2,0.5,0.5,0.5h3.1c0.3,0,0.5-0.2,0.5-0.5v-7        C27.4,137.5,27.2,137.3,26.9,137.3z" data-color-action="fill" style="fill:inherit" />						<path class="aB-cls-19" d="M26.9,137.3h-3.1c-0.3,0-0.5,0.2-0.5,0.5v5.8c0.7,0.1,1.3,0.2,2,0.2c0.7,0,1.4-0.1,2.1-0.2v-5.8        C27.4,137.5,27.2,137.3,26.9,137.3z" data-color-action="fill" style="fill:inherit" />						<path class="aB-cls-23" d="M27.1,138.7v-1.1c0-0.1-0.1-0.2-0.2-0.2h-3.1c-0.1,0-0.2,0.1-0.2,0.2v1.1H27.1z" />					</g>					<g>						<path class="aB-cls-30" d="M36.8,137.3h-3.1c-0.3,0-0.5,0.2-0.5,0.5v7c0,0.3,0.2,0.5,0.5,0.5h3.1c0.3,0,0.5-0.2,0.5-0.5v-7        C37.3,137.5,37.1,137.3,36.8,137.3z" data-color-action="fill" style="fill:inherit" />						<path class="aB-cls-19" d="M36.8,137.3h-3.1c-0.3,0-0.5,0.2-0.5,0.5v5.8c0.7,0.1,1.3,0.2,2,0.2c0.7,0,1.4-0.1,2.1-0.2v-5.8        C37.3,137.5,37.1,137.3,36.8,137.3z" data-color-action="fill" style="fill:inherit" />						<path class="aB-cls-23" d="M37,138.7v-1.1c0-0.1-0.1-0.2-0.2-0.2h-3.1c-0.1,0-0.2,0.1-0.2,0.2v1.1H37z" />					</g>				</g>			</g>		</g>		<g>			<rect x="9.2" y="135.4" class="aB-cls-19" width="42.2" height="1.4" data-color-action="fill" style="fill:inherit" />			<rect x="9.2" y="136.6" class="aB-cls-30" width="42.2" height="0.2" data-color-action="fill" style="fill:inherit" />			<rect x="9.2" y="135.6" class="aB-cls-23" width="42.2" height="0.4" />		</g>	</g></g><g id="aBS_apicoectomy" style="">	<g>		<g>							<ellipse transform="matrix(0.1539 -0.9881 0.9881 0.1539 -106.1107 120.5387)" class="aB-cls-14" cx="17.3" cy="122.2" rx="12.7" ry="12.7" data-color-action="stroke" style="stroke:inherit" />			<line class="aB-cls-14" x1="10.3" y1="112.6" x2="24.3" y2="131.8" data-color-action="stroke" style="stroke:inherit" />		</g>		<text transform="matrix(1 0 0 1 6.7033 126.808)" class="aB-cls-15 aB-cls-16">NA</text>	</g></g><g id="aBS_abscess" style="">	<circle class="aB-cls-18" cx="29.5" cy="83.8" r="6.1" data-color-action="fill" style="fill:inherit" /></g><g id="aBS_blunted_roots" style="">	<g>		<g>							<ellipse transform="matrix(0.1539 -0.9881 0.9881 0.1539 -106.1107 120.5387)" class="aB-cls-14" cx="17.3" cy="122.2" rx="12.7" ry="12.7" data-color-action="stroke" style="stroke:inherit" />			<line class="aB-cls-14" x1="10.3" y1="112.6" x2="24.3" y2="131.8" data-color-action="stroke" style="stroke:inherit" />		</g>		<text transform="matrix(1 0 0 1 6.7033 126.808)" class="aB-cls-15 aB-cls-16">NA</text>	</g></g><g id="aBS_root_amputation" style="">	<g>		<g>							<ellipse transform="matrix(0.1539 -0.9881 0.9881 0.1539 -106.1107 120.5387)" class="aB-cls-14" cx="17.3" cy="122.2" rx="12.7" ry="12.7" data-color-action="stroke" style="stroke:inherit" />			<line class="aB-cls-14" x1="10.3" y1="112.6" x2="24.3" y2="131.8" data-color-action="stroke" style="stroke:inherit" />		</g>		<text transform="matrix(1 0 0 1 6.7033 126.808)" class="aB-cls-15 aB-cls-16">NA</text>	</g><g id="root_amputation_3">	<g>		<g>							<ellipse transform="matrix(0.1539 -0.9881 0.9881 0.1539 -106.1107 120.5387)" class="aB-cls-14" cx="17.3" cy="122.2" rx="12.7" ry="12.7" data-color-action="stroke" style="stroke:inherit" />			<line class="aB-cls-14" x1="10.3" y1="112.6" x2="24.3" y2="131.8" data-color-action="stroke" style="stroke:inherit" />		</g>		<text transform="matrix(1 0 0 1 6.7033 126.808)" class="aB-cls-15 aB-cls-16">NA</text>	</g></g><g id="root_amputation_2">	<g>		<g>							<ellipse transform="matrix(0.1539 -0.9881 0.9881 0.1539 -106.1107 120.5387)" class="aB-cls-14" cx="17.3" cy="122.2" rx="12.7" ry="12.7" data-color-action="stroke" style="stroke:inherit" />			<line class="aB-cls-14" x1="10.3" y1="112.6" x2="24.3" y2="131.8" data-color-action="stroke" style="stroke:inherit" />		</g>		<text transform="matrix(1 0 0 1 6.7033 126.808)" class="aB-cls-15 aB-cls-16">NA</text>	</g></g><g id="root_amputation_1">	<g>		<g>							<ellipse transform="matrix(0.1539 -0.9881 0.9881 0.1539 -106.1107 120.5387)" class="aB-cls-14" cx="17.3" cy="122.2" rx="12.7" ry="12.7" data-color-action="stroke" style="stroke:inherit" />			<line class="aB-cls-14" x1="10.3" y1="112.6" x2="24.3" y2="131.8" data-color-action="stroke" style="stroke:inherit" />		</g>		<text transform="matrix(1 0 0 1 6.7033 126.808)" class="aB-cls-15 aB-cls-16">NA</text>	</g></g></g><g id="aBS_missing_crown" style="">	<g>		<g>							<ellipse transform="matrix(0.1539 -0.9881 0.9881 0.1539 -106.1107 120.5387)" class="aB-cls-14" cx="17.3" cy="122.2" rx="12.7" ry="12.7" data-color-action="stroke" style="stroke:inherit" />			<line class="aB-cls-14" x1="10.3" y1="112.6" x2="24.3" y2="131.8" data-color-action="stroke" style="stroke:inherit" />		</g>		<text transform="matrix(1 0 0 1 6.7033 126.808)" class="aB-cls-15 aB-cls-16">NA</text>	</g></g><g id="aBS_missing_tooth" style="" data-name="missing tooth">	<g>		<path class="aB-cls-2" d="M49.4,137.8c-0.6-4.2-1.6-13.4-4.7-15.5c0-0.3,0-0.5,0-0.8c0.1-3.7,3.6-10.1,4.3-17.7    c0.7-7.6-2.7-15.4-5.3-18.4c-2.3-2.6-4.7-2.3-4.2-0.2c0.9,4.4,0.4,12-1.5,17.5c-0.7,1.9-1.8,3.7-3,5.2c0-2.3-0.3-4.9-0.8-7.6    c-1-4.8-4.6-12.8-6.1-12.8c-1.5,0-0.5,4.7-0.9,8.6c-0.7,6.3-1.5,10.2-2.3,13.1c-2.6-2.5-5.1-6.1-6-8.9c-1-3.1-3.3-11.7-3.6-14.1    c-0.3-2.4-1.9-3.9-3.3-1c-1.6,3.2-2.8,8.7-2,15.1c0.8,6.5,6.2,15.5,6.6,19.4c0.3,2.7-0.3,4.8-0.7,5.8c-0.4,0.1-0.7,0.3-0.9,0.5    c-2,3.2-2.7,5.7-3.8,10.2c-0.6,2.5,0.9,9.1,6.5,10.2c7.4,0.8,6.7-0.4,8.7-0.1c2.1,0.2,5.8,3.3,11.5,2.2    C43.5,147.5,50,142.1,49.4,137.8z" data-color-action="fill,stroke" style="fill,stroke:inherit" />		<path class="aB-cls-24" d="M34,116.8c0,0,2.1-7.3,0.1-16.5c-1-4.8-4.6-12.8-6.1-12.8c-1.5,0-0.5,4.7-0.9,8.6    c-0.9,8.9-2.3,13.1-3.3,16.2c-1.1,3.1-1.1,6.8,3.6,7.1C32,119.5,33.6,119,34,116.8z" />		<path class="aB-cls-24" d="M23.7,112.2c1.1-3.1,2.4-7.3,3.3-16.2c0.1-0.5,0.1-1.1,0.1-1.7c0.2,1.5,0.4,3.4,0.3,5.7    c-0.1,3.3-0.3,5.6,0.2,6.5c0.5,0.9,3,3.8,4.7,2.9c1.7-0.9,1-6.9,0.7-9.5c-0.1-1.2-0.7-4.1-1.3-6.7c1,2.4,1.9,5,2.4,7.1    c2,9.3-0.1,16.5-0.1,16.5c-0.4,2.2-2,2.7-6.6,2.4C22.7,119,22.7,115.3,23.7,112.2z" />		<path class="aB-cls-24" d="M46.3,127.1c0,0-1.7-1.9-1.6-5.6c0.1-3.7,3.6-10.1,4.3-17.7s-2.7-15.4-5.3-18.4c-2.3-2.6-4.7-2.3-4.2-0.2    c0.9,4.4,0.4,12-1.5,17.5s-7.2,9.8-8.8,9.4c-3.7-1-9-7.4-10.5-11.8c-1-3.1-3.3-11.7-3.6-14.1c-0.3-2.4-1.9-3.9-3.3-1    c-1.6,3.2-2.8,8.7-2,15.1s6.2,15.5,6.6,19.4c0.4,3.9-1.1,6.6-1.1,6.6s6.5,2.3,14.9,2.2C38.6,128.3,46.3,127.1,46.3,127.1z" />		<path class="aB-cls-24" d="M12.9,85c0.4,0.2-1.1,3.3,0.2,8.3c3.7,14.8,9.6,18.9,11,23.2c1.2,3.6,1.4,6.7,0.9,9.6    c-0.5,2.9-4.6,0.7-4.6,0.7s1.2-4.4,0.8-8.7c-0.3-4.3-5.4-11.7-7-16.9s-2-7.2-2-10.2C12.1,87.5,12.5,84.8,12.9,85z" />		<path class="aB-cls-24" d="M42.6,124.9c0,0.8,1.9,1.6,3.4,2.2c0.2,0,0.3,0,0.3,0s-1.7-1.9-1.6-5.6c0.1-3.7,3.6-10.1,4.2-17.7    c0.4-4.4-0.5-8.8-1.9-12.3c0.4,2.9,0.7,6.4,0.7,9c-0.1,5.3-5,18.7-5.1,20.3C42.6,122.4,42.6,123.6,42.6,124.9z" />		<path class="aB-cls-24" d="M15.7,89.5c0.3,2.8,1.5,8.6,2.4,11.2c2.1,6,5.6,9.4,8.5,11.8c2.6,2.1,7.4,0.9,9.5-2.1    c1.5-2.3,4.2-7.9,4.6-16.1c0.2-5.1-0.7-7.9-1.4-9.2c0,0.1,0,0.1,0,0.2c0.9,4.4,0.4,12-1.5,17.5c-1.9,5.4-7.2,9.8-8.8,9.4    c-3.6-0.9-9-7.4-10.5-11.8C17.9,98,16.6,93,15.7,89.5z" />		<path class="aB-cls-24" d="M16.4,119.7c0.4,3.9-1.1,6.6-1.1,6.6s0.7,0.2,1.8,0.6c0.3-0.9,0.9-2.6,1.1-5c0.4-3.7-4.7-12.5-6-16.8    c-1.1-3.5-2.2-6.6-2-12.3c0-0.9,0.3-3.5,0.5-5.5c-1.1,3.3-1.7,7.8-1.1,13C10.6,106.7,16,115.7,16.4,119.7z" />		<path class="aB-cls-24" d="M41.3,85c0,0,2.9,3.8,3.4,9c0.3,3.3-0.3,8.5-1.7,13.5c-1.4,5-3.2,7.6-3.7,7.5s1-4.1,2.1-8.3    c1-3.9,1.4-9.6,1.2-12.7C42.4,88.4,40.4,85.2,41.3,85z" />		<path class="aB-cls-24" d="M28.4,89.5c0.5-0.1,1.6,4.9,1.7,7.4c0.2,3.8-0.8,7.4-1.2,7.4c-0.4-0.1,0.3-3.6,0.1-7.4    C28.7,91,27.8,89.6,28.4,89.5z" />		<g>			<path class="aB-cls-24" d="M44.4,122.2c3.3,1.7,4.4,11.3,5,15.6c0.6,4.3-5.9,9.7-11.7,10.7c-5.8,1-9.4-2-11.5-2.2     c-2-0.2-1.3,0.9-8.7,0.1c-5.6-1.2-7.1-7.7-6.5-10.2c1.1-4.5,1.8-7,3.8-10.2c1-1.3,9.9-1.6,13.2-1.5s7.9-3.1,13.2-2.8     C42.7,121.8,43.9,121.9,44.4,122.2z" />			<g>				<path class="aB-cls-24" d="M49.4,137.8c-0.6-4.3-1.7-13.9-5-15.6c-0.3-0.2-0.9-0.3-1.7-0.4c2.4,2.7,4.2,8.4,4.7,12.8      c0.4,3,0.8,5.8,0.4,7.8C49,140.9,49.6,139.3,49.4,137.8z" />				<path class="aB-cls-24" d="M14.8,126c-2,3.2-2.7,5.7-3.8,10.2c-0.4,1.7,0.2,5.4,2.4,7.9c-0.4-1.4-1.1-5.1-0.9-6.2      c0.9-5.5,2.4-9.3,4.6-12.8C16,125.3,15.1,125.6,14.8,126z" />			</g>			<path class="aB-cls-24" d="M26.2,146.3c0.6,0.1,1.4,0.4,2.3,0.8c-0.4-0.4-0.7-0.8-0.8-1c-0.4-0.7-1.8-0.9-2.3-0.3     c-0.2,0.2-0.4,0.4-0.6,0.6C25.2,146.3,25.6,146.2,26.2,146.3z" />			<path class="aB-cls-24" d="M24.7,124.5c-1.3,0-2.7,0.1-4,0.2c0,0.1-0.1,0.2-0.1,0.3c-0.9,3.2-1.4,7-1.5,9.3c-0.1,2.6-0.5,6.9,0.2,11.4     c0,0,0.1,0.4,0.3,1c2.2,0.2,3.4,0.1,4.2,0c0-0.2-0.1-0.4-0.1-0.4c-0.4-2.6-0.6-7.3-0.6-9.6c0-3.1,0.1-6.4,1.2-10.7     C24.3,125.6,24.5,125.1,24.7,124.5z" />		</g>		<path class="aB-cls-24" d="M30.5,143.8c-0.5-0.3-1.1,3,0.3,3.2C32.2,147.2,31.4,144.4,30.5,143.8z" />	</g></g><g id="aBS_extracted_tooth" data-name="extracted tooth" style=""><g class="aB-msng-cls-10"><line class="aB-msng-cls-11" x1="9" y1="108.83" x2="50.67" y2="150.49" data-color-action="stroke" style="stroke:inherit" /><line class="aB-msng-cls-11" x1="50.67" y1="108.83" x2="9" y2="150.49" data-color-action="stroke" style="stroke:inherit" /></g></g><g id="aBS_denture" style="">	<g>		<g>							<ellipse transform="matrix(0.1539 -0.9881 0.9881 0.1539 -106.1107 120.5387)" class="aB-cls-14" cx="17.3" cy="122.2" rx="12.7" ry="12.7" data-color-action="stroke" style="stroke:inherit" />			<line class="aB-cls-14" x1="10.3" y1="112.6" x2="24.3" y2="131.8" data-color-action="stroke" style="stroke:inherit" />		</g>		<text transform="matrix(1 0 0 1 6.7033 126.808)" class="aB-cls-15 aB-cls-16">NA</text>	</g></g><g id="aBS_maryland_bridge_pontic" style="">	<g>		<g>							<ellipse transform="matrix(0.1539 -0.9881 0.9881 0.1539 -106.1107 120.5387)" class="aB-cls-14" cx="17.3" cy="122.2" rx="12.7" ry="12.7" data-color-action="stroke" style="stroke:inherit" />			<line class="aB-cls-14" x1="10.3" y1="112.6" x2="24.3" y2="131.8" data-color-action="stroke" style="stroke:inherit" />		</g>		<text transform="matrix(1 0 0 1 6.7033 126.808)" class="aB-cls-15 aB-cls-16">NA</text>	</g></g><g id="aBS_maryland_bridge_abutment_mesial" style="">	<g>		<g>							<ellipse transform="matrix(0.1539 -0.9881 0.9881 0.1539 -106.1107 120.5387)" class="aB-cls-14" cx="17.3" cy="122.2" rx="12.7" ry="12.7" data-color-action="stroke" style="stroke:inherit" />			<line class="aB-cls-14" x1="10.3" y1="112.6" x2="24.3" y2="131.8" data-color-action="stroke" style="stroke:inherit" />		</g>		<text transform="matrix(1 0 0 1 6.7033 126.808)" class="aB-cls-15 aB-cls-16">NA</text>	</g></g><g id="aBS_maryland_bridge_abutment_distal" style="">	<g>		<g>							<ellipse transform="matrix(0.1539 -0.9881 0.9881 0.1539 -106.1107 120.5387)" class="aB-cls-14" cx="17.3" cy="122.2" rx="12.7" ry="12.7" data-color-action="stroke" style="stroke:inherit" />			<line class="aB-cls-14" x1="10.3" y1="112.6" x2="24.3" y2="131.8" data-color-action="stroke" style="stroke:inherit" />		</g>		<text transform="matrix(1 0 0 1 6.7033 126.808)" class="aB-cls-15 aB-cls-16">NA</text>	</g></g><g id="aBS_maryland_bridge_abutment" style="">	<g>		<g>							<ellipse transform="matrix(0.1539 -0.9881 0.9881 0.1539 -106.1107 120.5387)" class="aB-cls-14" cx="17.3" cy="122.2" rx="12.7" ry="12.7" data-color-action="stroke" style="stroke:inherit" />			<line class="aB-cls-14" x1="10.3" y1="112.6" x2="24.3" y2="131.8" data-color-action="stroke" style="stroke:inherit" />		</g>		<text transform="matrix(1 0 0 1 6.7033 126.808)" class="aB-cls-15 aB-cls-16">NA</text>	</g></g><g id="aBS_bridge_abutment_mesial" style="">	<g>		<g>							<ellipse transform="matrix(0.1539 -0.9881 0.9881 0.1539 -106.1107 120.5387)" class="aB-cls-14" cx="17.3" cy="122.2" rx="12.7" ry="12.7" data-color-action="stroke" style="stroke:inherit" />			<line class="aB-cls-14" x1="10.3" y1="112.6" x2="24.3" y2="131.8" data-color-action="stroke" style="stroke:inherit" />		</g>		<text transform="matrix(1 0 0 1 6.7033 126.808)" class="aB-cls-15 aB-cls-16">NA</text>	</g></g><g id="aBS_bridge_abutment_distal" style="">	<g>		<g>							<ellipse transform="matrix(0.1539 -0.9881 0.9881 0.1539 -106.1107 120.5387)" class="aB-cls-14" cx="17.3" cy="122.2" rx="12.7" ry="12.7" data-color-action="stroke" style="stroke:inherit" />			<line class="aB-cls-14" x1="10.3" y1="112.6" x2="24.3" y2="131.8" data-color-action="stroke" style="stroke:inherit" />		</g>		<text transform="matrix(1 0 0 1 6.7033 126.808)" class="aB-cls-15 aB-cls-16">NA</text>	</g></g><g id="aBS_bridge_abutment" style="">	<g>		<g>							<ellipse transform="matrix(0.1539 -0.9881 0.9881 0.1539 -106.1107 120.5387)" class="aB-cls-14" cx="17.3" cy="122.2" rx="12.7" ry="12.7" data-color-action="stroke" style="stroke:inherit" />			<line class="aB-cls-14" x1="10.3" y1="112.6" x2="24.3" y2="131.8" data-color-action="stroke" style="stroke:inherit" />		</g>		<text transform="matrix(1 0 0 1 6.7033 126.808)" class="aB-cls-15 aB-cls-16">NA</text>	</g></g><g id="aBS_bridge_pontic" style="">	<g>		<g>							<ellipse transform="matrix(0.1539 -0.9881 0.9881 0.1539 -106.1107 120.5387)" class="aB-cls-14" cx="17.3" cy="122.2" rx="12.7" ry="12.7" data-color-action="stroke" style="stroke:inherit" />			<line class="aB-cls-14" x1="10.3" y1="112.6" x2="24.3" y2="131.8" data-color-action="stroke" style="stroke:inherit" />		</g>		<text transform="matrix(1 0 0 1 6.7033 126.808)" class="aB-cls-15 aB-cls-16">NA</text>	</g></g><g id="aBS_implant_mini" style="">	<g>		<g>							<ellipse transform="matrix(0.1539 -0.9881 0.9881 0.1539 -106.1107 120.5387)" class="aB-cls-14" cx="17.3" cy="122.2" rx="12.7" ry="12.7" data-color-action="stroke" style="stroke:inherit" />			<line class="aB-cls-14" x1="10.3" y1="112.6" x2="24.3" y2="131.8" data-color-action="stroke" style="stroke:inherit" />		</g>		<text transform="matrix(1 0 0 1 6.7033 126.808)" class="aB-cls-15 aB-cls-16">NA</text>	</g></g><g id="aBS_implant_cylinder" style="">	<g>		<g>							<ellipse transform="matrix(0.1539 -0.9881 0.9881 0.1539 -106.1107 120.5387)" class="aB-cls-14" cx="17.3" cy="122.2" rx="12.7" ry="12.7" data-color-action="stroke" style="stroke:inherit" />			<line class="aB-cls-14" x1="10.3" y1="112.6" x2="24.3" y2="131.8" data-color-action="stroke" style="stroke:inherit" />		</g>		<text transform="matrix(1 0 0 1 6.7033 126.808)" class="aB-cls-15 aB-cls-16">NA</text>	</g></g><g id="aBS_implant_blade" style="">	<g>		<g>							<ellipse transform="matrix(0.1539 -0.9881 0.9881 0.1539 -106.1107 120.5387)" class="aB-cls-14" cx="17.3" cy="122.2" rx="12.7" ry="12.7" data-color-action="stroke" style="stroke:inherit" />			<line class="aB-cls-14" x1="10.3" y1="112.6" x2="24.3" y2="131.8" data-color-action="stroke" style="stroke:inherit" />		</g>		<text transform="matrix(1 0 0 1 6.7033 126.808)" class="aB-cls-15 aB-cls-16">NA</text>	</g></g><g id="aBS_watch_tooth" style="">	<g>		<path class="aB-cls-13" d="M8.3,27.7c0-1.8,1.4-3.3,3.2-3.3c1.8,0,3.3,1.5,3.3,3.3c0,1.7-1.5,3.2-3.3,3.2C9.7,30.9,8.3,29.5,8.3,27.7z     M9.2,21.8L8.4,3.7h6.2l-0.8,18.1H9.2z" data-color-action="fill" style="fill:inherit" />	</g></g><g id="aBS_border" style="">	<rect y="0" transform="matrix(-1 -4.488910e-11 4.488910e-11 -1 59 161)" class="aB-cls-17" width="59" height="161" /></g></defs></g><g class="bB-cls-1" transform="translate(0 161)"><g id="_Bb">	<g>		<path class="bB-cls-2" d="M47.9,21.2c0.9,3.7-0.3,7.1-0.4,9c-0.2,2.4,0.2,6.4-0.2,7.8c-0.9,3-4.4,4.7-7.1,5.4    c-7.2,1.8-15.1,1.9-20.7-0.4c-3.3-1.4-8-4.9-8.6-9.4c-0.4-3,0.7-3,0.5-5.8s-1.3-8.7,2.1-11.9c3-2.7,9-0.7,12.4-2.3    c4.7-2.1,8.2-2.9,10.7-2.6C43.1,12.2,47.4,19.1,47.9,21.2z" />		<path class="bB-cls-3" d="M47.9,21.2c0.9,3.7-0.3,7.1-0.4,9c-0.2,2.4,0.2,6.4-0.2,7.8c-0.9,3-4.4,4.7-7.1,5.4    c-7.2,1.8-15.1,1.9-20.7-0.4c-3.3-1.4-8-4.9-8.6-9.4c-0.4-3,0.7-3,0.5-5.8s-1.3-8.7,2.1-11.9c3-2.7,9-0.7,12.4-2.3    c4.7-2.1,8.2-2.9,10.7-2.6C43.1,12.2,47.4,19.1,47.9,21.2z" />		<path class="bB-cls-4" d="M40.2,43.5c2.7-0.7,6.2-2.4,7.1-5.4c0.4-1.5,0-5.4,0.2-7.8c0.1-0.9,0.4-2.2,0.6-3.7c-0.6,0.6-1.5,1.2-2.1,1.5    c-1.1,0.6-2.7,0.6-2.7,1.2c0,0.6,1.2,0.5,2.3,1.2c1.1,0.7,0.1,4.8-0.3,7c-0.4,2.3-3.8,3.5-5.2,3.6c-1.4,0.2-8.5,1.3-12.5,1.2    c-4-0.1-8.5-1.3-11-3.1c-2.5-1.8-4.7-4.2-4.7-6.8c0-2.6,1-2.3,1.7-3.3c0.7-1-1-0.7-1.6-1.8c-0.3-0.5-0.5-1.3-0.8-2.1    c0.1,1,0.2,2,0.2,2.7c0.2,2.8-0.9,2.8-0.5,5.8c0.6,4.5,5.3,8,8.6,9.4C25.2,45.4,33,45.2,40.2,43.5z" />		<path class="bB-cls-4" d="M17.1,26.6c-0.3,0.8,3.1,1.1,2.9,2.4c-0.1,1.3-3.4,3.6-3,4.2c0.4,0.5,4.7-3.9,6.8-3.8    c2.1,0.2,8.1,0.1,9.6,0.3c1.4,0.2,3.5,5.8,4.2,5c0.7-0.8-1.4-5.1-0.7-5.4s3.3,0.2,3-0.5S37.5,29,37,28.3c-0.5-0.8,3.8-2.6,2.9-3.4    s-5.1,3.4-6.2,3.4c-1.2,0-6.2,0.4-6.6-0.1c-0.4-0.5,0.9-5.8,0.2-5.8c-1.6,0-1.2,5.6-2.8,5.7c-1.7,0.1-1.9,0-2.8-0.2    C21,27.8,17.5,25.6,17.1,26.6z" />		<path class="bB-cls-5" d="M36.6,11.3c-2.5-0.4-6,0.4-10.7,2.6c-2.2,1-5.4,0.5-8.3,0.8c1.9,0.4,3.4,1.8,4.9,2.2c2.2,0.6,3.4-0.3,6.1-1.6    c2.7-1.3,7.5-1.5,10-1c2,0.4,4.8,1.1,5.9,1.7C42.6,13.7,39.9,11.7,36.6,11.3z" />	</g></g><defs><g id="bBS_cusp_4" style="">	<path class="bB-cls-6" d="M29.5,34.2l4.7,10.4c2-0.2,4.1-0.6,6-1.1c2.3-0.6,5.2-1.9,6.5-4.2l-14.5-6.2C31.5,33.7,30.5,34,29.5,34.2z" data-color-action="fill" style="fill:inherit" /></g><g id="bBS_groove_2" style="">	<path class="bB-cls-6" d="M28.8,34.2c-0.6,0-1.2-0.1-1.8-0.3L22.4,44c3.6,0.9,7.7,1,11.8,0.5l-4.7-10.4C29.2,34.2,29,34.2,28.8,34.2z" data-color-action="fill" style="fill:inherit" /></g><g id="bBS_cusp_3" style="">	<path class="bB-cls-6" d="M24.7,32.6l-12.5,4.6c1.8,2.8,4.9,4.9,7.3,5.9c0.9,0.4,1.9,0.7,2.9,0.9L27,33.9C26.1,33.7,25.4,33.2,24.7,32.6   z" data-color-action="fill" style="fill:inherit" /></g><g id="bBS_mesial" style="">	<path class="bB-cls-6" d="M47.5,36.5c0.1-1.8-0.1-4.5,0-6.3c0.2-1.8,1.2-5.1,0.5-8.8c-1.3,2-2.4,4.5-2.5,7.4   C45.3,31.3,46.1,33.9,47.5,36.5z" data-color-action="fill" style="fill:inherit" /></g><g id="bBS_mesial_pit" style="">	<path class="bB-cls-6" d="M46.7,18.6l-14.1,5.6c1.2,1,1.9,2.6,1.9,4.3c0,1.9-0.9,3.5-2.3,4.6l14.5,6.2c0.2-0.4,0.4-0.8,0.5-1.2   c0.1-0.4,0.2-0.9,0.2-1.5c-1.3-2.6-2.2-5.3-2-7.7c0.2-2.8,1.2-5.3,2.5-7.4c0-0.1,0-0.1,0-0.2C47.8,20.6,47.4,19.7,46.7,18.6z" data-color-action="fill" style="fill:inherit" /></g><g id="bBS_central_pit" style="">	<ellipse class="bB-cls-6" cx="28.8" cy="28.5" rx="5.8" ry="5.7" data-color-action="fill" style="fill:inherit" /></g><g id="bBS_distal_pit" style="">	<path class="bB-cls-6" d="M23,28.5c0-1.8,0.8-3.4,2.2-4.5l-13.2-5.7c-0.2,0.6-0.4,1.1-0.6,1.7c1.1,1.9,2,4.4,2.1,7.5   c0,2.8-0.9,5.3-2.3,7.4c0.2,0.8,0.6,1.5,1,2.2l12.5-4.6C23.6,31.6,23,30.1,23,28.5z" data-color-action="fill" style="fill:inherit" /></g><g id="bBS_distal" style="">	<path class="bB-cls-6" d="M11.4,20.1c-0.6,2.8-0.1,6,0,7.8c0.2,2.8-0.9,2.8-0.5,5.8c0.1,0.5,0.2,0.9,0.3,1.3c1.3-2.1,2.3-4.6,2.3-7.4   C13.4,24.5,12.5,22,11.4,20.1z" data-color-action="fill" style="fill:inherit" /></g><g id="bBS_cusp_2" style="">	<path class="bB-cls-6" d="M32.6,24.2l14.1-5.6c-1.8-2.9-5.3-6.7-10.1-7.4c-0.4-0.1-0.9-0.1-1.5-0.1l-5,11.8   C31.1,23.2,31.9,23.6,32.6,24.2z" data-color-action="fill" style="fill:inherit" /></g><g id="bBS_groove_1" style="">	<path class="bB-cls-6" d="M28.8,22.8c0.5,0,0.9,0.1,1.4,0.2l5-11.8c-2.3,0.1-5.4,0.9-9.2,2.6c-0.7,0.3-1.6,0.5-2.5,0.6l4.2,8.5   C28,22.8,28.4,22.8,28.8,22.8z" data-color-action="fill" style="fill:inherit" /></g><g id="bBS_cusp_1" style="">	<path class="bB-cls-6" d="M27.6,22.9l-4.2-8.5c-3.3,0.3-7.6-0.5-9.9,1.7c-0.7,0.7-1.2,1.4-1.6,2.3L25.1,24   C25.8,23.5,26.7,23.1,27.6,22.9z" data-color-action="fill" style="fill:inherit" /></g><g id="bBS_tipped_lingual" style=""></g><g id="bBS_tipped_facial" style=""></g><g id="bBS_surface_restoration_lingual" style="">	<path class="bB-cls-7" d="M39.3,39.6c-3.3,0.8-6.6,1.2-9.7,1.2c-3.3,0-6.3-0.5-8.6-1.4c-1.2-0.5-2.4-1.2-3.5-2.1l-2.4,3.2   c1.4,1.2,3,2.1,4.4,2.7c5.7,2.3,13.6,2.2,20.7,0.4c1.5-0.4,3.2-1.1,4.6-2.2l-2.8-2.9C41.3,38.9,40.3,39.3,39.3,39.6z" data-color-action="fill" style="fill:inherit" /></g><g id="bBS_surface_restoration_mesial" style="">	<path class="bB-cls-7" d="M47.3,38c0.4-1.5,0-5.4,0.2-7.8c0.2-1.9,1.3-5.2,0.4-9c-0.3-1.2-1.9-4.1-4.4-6.4L41.1,18   c1.6,1.6,2.7,3.4,2.9,4.1c0.4,2,0.1,3.9-0.2,5.7c-0.1,0.7-0.2,1.4-0.3,2c-0.1,1.3-0.1,2.7-0.1,4.1c0,1,0.1,2.6,0,3.1   c-0.1,0.4-0.6,0.9-1.4,1.4l2.8,2.9C46,40.5,46.9,39.4,47.3,38z" data-color-action="fill" style="fill:inherit" /></g><g id="bBS_surface_restoration_occlusal" style="">	<path class="bB-cls-7" d="M36,15.2c-0.2,0-0.4,0-0.6,0c-1.2,0-3.6,0.4-7.8,2.3c-2.2,1-4.8,1-7,1c-1.5,0-3.8,0-4.4,0.5   c-1.5,1.4-1.2,5.2-1,7.5c0,0.4,0.1,0.8,0.1,1.1c0.2,2-0.2,3.3-0.4,4.1c-0.2,0.5-0.2,0.7-0.1,1.4c0.4,2.5,3.4,5.1,6.2,6.2   c2.3,0.9,5.3,1.4,8.6,1.4c3.1,0,6.4-0.4,9.7-1.2c2.1-0.5,3.9-1.7,4.2-2.6c0.1-0.5,0.1-2,0-3.1c0-1.4-0.1-2.8,0.1-4.1   c0.1-0.7,0.2-1.3,0.3-2c0.3-1.7,0.7-3.7,0.2-5.7C43.6,20.8,40.3,15.9,36,15.2z" data-color-action="fill" style="fill:inherit" /></g><g id="bBS_surface_restoration_distal" style="">	<path class="bB-cls-7" d="M14.8,33.2c-0.1-0.7-0.1-0.8,0.1-1.4c0.2-0.8,0.6-2.1,0.4-4.1c0-0.3-0.1-0.7-0.1-1.1c-0.2-2.3-0.6-6.1,1-7.5   c0.1-0.1,0.2-0.1,0.3-0.2l-2.7-3c-0.1,0.1-0.2,0.1-0.3,0.2c-3.4,3.1-2.4,9.1-2.1,11.9c0.2,2.8-0.9,2.8-0.5,5.8   c0.4,2.7,2.2,5,4.3,6.7l2.4-3.2C16.1,36,15,34.6,14.8,33.2z" data-color-action="fill" style="fill:inherit" /></g><g id="bBS_surface_restoration_buccal" style="">	<path class="bB-cls-7" d="M20.6,18.5c2.2,0,4.8,0,7-1c4.2-1.9,6.6-2.3,7.8-2.3c0.2,0,0.4,0,0.6,0c2,0.3,3.7,1.5,5.1,2.8l2.4-3.2   c-1.8-1.7-4.2-3.1-6.9-3.5c-2.5-0.4-6,0.4-10.7,2.6c-3.3,1.5-9.1-0.4-12.2,2.1l2.7,3C17.3,18.5,19.3,18.5,20.6,18.5z" data-color-action="fill" style="fill:inherit" /></g><g id="bBS_sub-erupted" style="">	<rect x="28" y="1.2" class="bB-cls-8" width="3" height="3" />	<rect x="28" y="1.2" class="bB-cls-8" width="3" height="3" />	<rect x="28" y="1.2" class="bB-cls-8" width="3" height="3" /></g><g id="bBS_sealant" style="">	<text transform="matrix(1 0 0 1 19.699 39.47)" class="bB-cls-9 bB-cls-10 bB-cls-11" data-color-action="fill" style="fill:inherit">S</text></g><g id="bBS_rotated_mesial" style=""></g><g id="bBS_rotated_distal" style=""></g><g id="bBS_root_canal" style="">	<rect x="28" y="1.2" class="bB-cls-8" width="3" height="3" />	<rect x="28" y="1.2" class="bB-cls-8" width="3" height="3" />	<rect x="28" y="1.2" class="bB-cls-8" width="3" height="3" /></g><g id="bBS_pins" style="">	<rect x="28" y="1.2" class="bB-cls-8" width="3" height="3" />	<rect x="28" y="1.2" class="bB-cls-8" width="3" height="3" />	<rect x="28" y="1.2" class="bB-cls-8" width="3" height="3" /></g><g id="bBS_mesial_drift" style=""></g><g id="bBS_distal_drift" style=""></g><g id="bBS_crown" style="">	<path class="bB-cls-13" d="M47.9,21.2c0.9,3.7-0.3,7.1-0.4,9c-0.2,2.4,0.2,6.4-0.2,7.8c-0.9,3-4.4,4.7-7.1,5.4   c-7.2,1.8-15.1,1.9-20.7-0.4c-3.3-1.4-8-4.9-8.6-9.4c-0.4-3,0.7-3,0.5-5.8s-1.3-8.7,2.1-11.9c3-2.7,9-0.7,12.4-2.3   c4.7-2.1,8.2-2.9,10.7-2.6C43.1,12.2,47.4,19.1,47.9,21.2z" data-color-action="fill" style="fill:inherit" /></g><g id="bBS_cracked_surface_occlusal" style="">	<polyline class="bB-cls-14" points="28.2,23.7 32,27.6 27,27.6 32,32.3 27,32.3 30.8,36.1  " data-color-action="stroke" style="stroke:inherit" /></g><g id="bBS_chipped_surface_occlusal" style="">	<g>		<line class="bB-cls-14" x1="25.7" y1="25.4" x2="34" y2="33.7" data-color-action="stroke" style="stroke:inherit" />		<line class="bB-cls-14" x1="34" y1="25.4" x2="25.7" y2="33.7" data-color-action="stroke" style="stroke:inherit" />	</g></g><g id="bBS_abscess" style="">	<rect x="28" y="1.2" class="bB-cls-8" width="3" height="3" />	<rect x="28" y="1.2" class="bB-cls-8" width="3" height="3" />	<rect x="28" y="1.2" class="bB-cls-8" width="3" height="3" /></g><g id="bBS_missing_tooth" style="" data-name="missing tooth">	<g>		<path class="bB-cls-2" d="M47.9,21.2c0.9,3.7-0.3,7.1-0.4,9c-0.2,2.4,0.2,6.4-0.2,7.8c-0.9,3-4.4,4.7-7.1,5.4    c-7.2,1.8-15.1,1.9-20.7-0.4c-3.3-1.4-8-4.9-8.6-9.4c-0.4-3,0.7-3,0.5-5.8s-1.3-8.7,2.1-11.9c3-2.7,9-0.7,12.4-2.3    c4.7-2.1,8.2-2.9,10.7-2.6C43.1,12.2,47.4,19.1,47.9,21.2z" data-color-action="fill,stroke" style="fill,stroke:inherit" />		<path class="bB-cls-12" d="M47.9,21.2c0.9,3.7-0.3,7.1-0.4,9c-0.2,2.4,0.2,6.4-0.2,7.8c-0.9,3-4.4,4.7-7.1,5.4    c-7.2,1.8-15.1,1.9-20.7-0.4c-3.3-1.4-8-4.9-8.6-9.4c-0.4-3,0.7-3,0.5-5.8s-1.3-8.7,2.1-11.9c3-2.7,9-0.7,12.4-2.3    c4.7-2.1,8.2-2.9,10.7-2.6C43.1,12.2,47.4,19.1,47.9,21.2z" />		<path class="bB-cls-12" d="M40.2,43.5c2.7-0.7,6.2-2.4,7.1-5.4c0.4-1.5,0-5.4,0.2-7.8c0.1-0.9,0.4-2.2,0.6-3.7    c-0.6,0.6-1.5,1.2-2.1,1.5c-1.1,0.6-2.7,0.6-2.7,1.2c0,0.6,1.2,0.5,2.3,1.2c1.1,0.7,0.1,4.8-0.3,7c-0.4,2.3-3.8,3.5-5.2,3.6    c-1.4,0.2-8.5,1.3-12.5,1.2c-4-0.1-8.5-1.3-11-3.1c-2.5-1.8-4.7-4.2-4.7-6.8c0-2.6,1-2.3,1.7-3.3c0.7-1-1-0.7-1.6-1.8    c-0.3-0.5-0.5-1.3-0.8-2.1c0.1,1,0.2,2,0.2,2.7c0.2,2.8-0.9,2.8-0.5,5.8c0.6,4.5,5.3,8,8.6,9.4C25.2,45.4,33,45.2,40.2,43.5z" />		<path class="bB-cls-12" d="M17.1,26.6c-0.3,0.8,3.1,1.1,2.9,2.4c-0.1,1.3-3.4,3.6-3,4.2c0.4,0.5,4.7-3.9,6.8-3.8    c2.1,0.2,8.1,0.1,9.6,0.3c1.4,0.2,3.5,5.8,4.2,5c0.7-0.8-1.4-5.1-0.7-5.4s3.3,0.2,3-0.5S37.5,29,37,28.3c-0.5-0.8,3.8-2.6,2.9-3.4    s-5.1,3.4-6.2,3.4c-1.2,0-6.2,0.4-6.6-0.1c-0.4-0.5,0.9-5.8,0.2-5.8c-1.6,0-1.2,5.6-2.8,5.7c-1.7,0.1-1.9,0-2.8-0.2    C21,27.8,17.5,25.6,17.1,26.6z" />		<path class="bB-cls-12" d="M36.6,11.3c-2.5-0.4-6,0.4-10.7,2.6c-2.2,1-5.4,0.5-8.3,0.8c1.9,0.4,3.4,1.8,4.9,2.2    c2.2,0.6,3.4-0.3,6.1-1.6c2.7-1.3,7.5-1.5,10-1c2,0.4,4.8,1.1,5.9,1.7C42.6,13.7,39.9,11.7,36.6,11.3z" />	</g></g><g id="bBS_watch_tooth" style=""></g><g id="bBS_border" style="">	<rect class="bB-cls-8" width="59" height="56" />	<rect x="0" y="0" transform="matrix(-1 -3.807544e-11 3.807544e-11 -1 59 56)" class="bB-cls-8" width="59" height="56" /></g></defs></g><g class="cB-cls-1" transform="translate(0 217)"><g id="_Bc">	<g>		<path class="cB-cls-2" d="M43.7,37.4c3.3-1.7,4.4-11.3,5-15.6S42.8,12.1,37,11s-9.4,2-11.5,2.2c-2,0.2-1.3-0.9-8.7-0.1    c-5.6,1.2-7.1,7.7-6.5,10.2c1.1,4.5,1.8,7,3.8,10.2c1,1.3,9.9,1.6,13.2,1.5c3.2-0.1,7.9,3.1,13.2,2.8C42,37.8,43.1,37.7,43.7,37.4    z" />		<g>			<g>				<path class="cB-cls-3" d="M43.7,37.4c3.3-1.7,4.4-11.3,5-15.6S42.8,12.1,37,11s-9.4,2-11.5,2.2c-2,0.2-1.3-0.9-8.7-0.1      c-5.6,1.2-7.1,7.7-6.5,10.2c1.1,4.5,1.8,7,3.8,10.2c1,1.3,9.9,1.6,13.2,1.5c3.2-0.1,7.9,3.1,13.2,2.8      C42,37.8,43.1,37.7,43.7,37.4z" />			</g>		</g>		<path class="cB-cls-4" d="M27.6,16.8c1.2-0.4,1.7,0.7,1.7,1.2s-0.1,1.3-0.6,1.4c-0.5,0.1-1-0.5-1.3-1.1S26.7,17,27.6,16.8z" />		<path class="cB-cls-5" d="M37,11c-5.8-1-9.4,2-11.5,2.2c-2,0.2-1.3-0.9-8.7-0.1c-4.4,0.9-6.2,5.1-6.5,8.1c0.2-0.8,0.5-1.6,1-2.2    c1.2-1.7,3.2-3.7,4.5-3.7s6.2-0.3,8,0.2c1.8,0.5,3-0.1,4.6-0.8c1.7-0.7,5.4-2.4,7.8-2c3.8,0.6,7,2.6,9,4.5c1.2,1.2,3,2.8,3.4,5.9    c0.1-0.5,0.1-1,0.2-1.4C49.3,17.4,42.8,12.1,37,11z" />		<path class="cB-cls-4" d="M32.3,33.8c-2.9-1-5-1-6-1c-1-0.1-10.9-0.3-12.2-0.9c-0.4-0.2-1-0.7-1.6-1.2c0.4,0.9,0.9,1.9,1.5,2.9    c1,1.3,9.9,1.6,13.2,1.5c3.2-0.1,7.9,3.1,13.2,2.8c1.5-0.1,2.6-0.2,3.2-0.5c0.8-0.4,1.4-1.2,2-2.3c-1.3,0.5-3.2,0.7-4.5,0.7    C38.9,35.9,35.2,34.8,32.3,33.8z" />	</g></g><defs><g id="cBS_lingual_V" style="">	<path class="cB-cls-6" d="M39.3,37.9c-4.8-0.2-9.1-2.9-12.1-2.8c-1.6,0.1-4.8,0-7.5-0.2c3.2-2.2,6.5-3.2,9.8-2.9   C33.2,32.4,36.5,34.5,39.3,37.9z" data-color-action="fill" style="fill:inherit" /></g><g id="cBS_lingual_pit" style="">	<ellipse class="cB-cls-6" cx="30" cy="26.8" rx="3" ry="4.4" data-color-action="fill" style="fill:inherit" /></g><g id="cBS_mesial" style="">	<path class="cB-cls-6" d="M44.4,23.3c-0.1-0.8-0.2-1.8-0.5-2.6l2.6-4.1c1.5,1.7,2.4,3.6,2.2,5.3c-0.2,1.5-0.5,3.7-0.9,6   C46.1,26.9,44.7,25.6,44.4,23.3z" data-color-action="fill" style="fill:inherit" /></g><g id="cBS_line_angle_4" style="">	<path class="cB-cls-6" d="M38.7,16.9c-1.4,0-2.4,0.3-3.2,0.7L37,11c0,0,0,0,0.1,0c3.5,0.6,7.2,2.9,9.5,5.5l-2.6,4.1   C43.4,18.6,42.1,16.8,38.7,16.9z" data-color-action="fill" style="fill:inherit" /></g><g id="cBS_groove_2" style="">	<path class="cB-cls-6" d="M30,20.2c-2.2,0.1-4-1.2-6.2-2.1l-1.2-5.1c1.5,0.1,1.7,0.5,2.9,0.3C27.6,13,31.2,10,37,11l-1.4,6.5   C33.4,18.5,32.5,20,30,20.2z" data-color-action="fill" style="fill:inherit" /></g><g id="cBS_line_angle_3" style="">	<path class="cB-cls-6" d="M19.5,17.2c-2.1,0.1-3.5,1.4-4.6,3.5l-3-4.2c1-1.6,2.6-2.9,4.9-3.4c3.1-0.3,4.7-0.3,5.8-0.2l1.2,5.1   C22.6,17.5,21.2,17.2,19.5,17.2z" data-color-action="fill" style="fill:inherit" /></g><g id="cBS_distal" style="">	<path class="cB-cls-6" d="M11.9,16.5l3,4.2c-0.7,1.3-1.2,2.9-1.7,4.7c-0.3,1.1-0.9,1.8-1.7,2.4c-0.4-1.3-0.8-2.7-1.1-4.4   C10,21.9,10.4,18.9,11.9,16.5z" data-color-action="fill" style="fill:inherit" /></g><g id="cBS_tipped_lingual" style="">	<g>		<path class="cB-cls-7" d="M32,7.4c-1.2-3.2-4.5-3.6-7.2,5c-0.5,1.5-4.2,1.7-3.6,0c1.9-5.7,5-9.6,8.5-8.7c1.2,0.3,2.3,1.6,2.8,3.2    C32.3,7,32.1,7.2,32,7.4z" data-color-action="fill" style="fill:inherit" />		<polygon class="cB-cls-7" points="30,10.1 17.8,10.1 20.6,19.2   " data-color-action="fill" style="fill:inherit" />	</g></g><g id="cBS_tipped_facial" style=""></g><g id="cBS_surface_restoration_mesial" style="">	<path class="cB-cls-8" d="M48.7,21.8c-0.3,1.9-0.6,4.8-1.2,7.6c-3.5,0.4-6.5,2.3-8.3,5.1c0.4-1.9,0.7-3.5,0.7-3.5   c0.6-1.7,1.2-4.9,1.8-9.4c-0.3-0.4-0.8-0.9-1.4-1.4l4.4-5.4C47.3,16.9,49,19.5,48.7,21.8z" data-color-action="fill" style="fill:inherit" /></g><g id="cBS_surface_restoration_lingual" style="">	<g>		<path class="cB-cls-8" d="M39.2,34.4c-0.2,0.4-0.5,0.8-0.7,1.2c-2.9-2.6-6.6-4.1-10.8-4.1c-2.7,0-5.3,0.7-7.5,1.9    c-0.3-0.8-0.8-1.5-1.3-2.2c-0.7-3.8-1.5-7.7-1.8-9c0-0.6,0.4-1.7,0.9-2c1.2-0.1,2.3-0.2,3-0.2c0.8,0,0.9,0,1.3,0.1    c0.5,0.1,1.4,0.3,2.6,0.3c0.4,0,0.9,0,1.3-0.1c1.6-0.2,3-0.8,4.2-1.3c1.4-0.6,2.6-1.1,4.1-1.1c0.4,0,0.8,0,1.2,0.1    c2.5,0.5,5.2,2.5,5.9,3.6c-0.6,4.5-1.2,7.6-1.8,9.4C39.9,30.9,39.6,32.5,39.2,34.4z" data-color-action="fill" style="fill:inherit" />			</g></g><g id="cBS_surface_restoration_lingual_V" style="">	<g>				<path class="cB-cls-8" d="M38.5,35.6c-0.4,0.7-0.6,1.4-0.9,2.2c-4.1-0.6-7.7-2.8-10.4-2.7c-1.4,0-4,0-6.4-0.1c-0.2-0.6-0.4-1.1-0.6-1.7    c2.2-1.2,4.8-1.9,7.5-1.9C31.9,31.4,35.7,33,38.5,35.6z" data-color-action="fill" style="fill:inherit" />	</g></g><g id="cBS_surface_restoration_distal" style="">	<path class="cB-cls-8" d="M18.1,20.1c-0.5,0.3-0.9,1.5-0.9,2c0.3,1.3,1,5.2,1.8,9c-1.8-2.5-4.6-4.2-7.9-4.6c-0.3-0.9-0.5-2-0.8-3.1   c-0.5-2.2,0.5-7.5,4.6-9.6l5,6.1C19.3,19.9,18.7,20,18.1,20.1z" data-color-action="fill" style="fill:inherit" /></g><g id="cBS_surface_restoration_occlusal" style="">	<path class="cB-cls-8" d="M25.5,13.3C27.6,13,31.2,10,37,11.1c2.7,0.5,5.5,1.9,7.7,3.7l-4.4,5.4c-1.2-1-2.9-1.9-4.5-2.2   c-0.4-0.1-0.8-0.1-1.2-0.1c-1.4,0-2.7,0.5-4.1,1.1c-1.2,0.5-2.6,1.1-4.2,1.3c-0.5,0.1-0.9,0.1-1.3,0.1c-1.2,0-2-0.2-2.6-0.3   c-0.3-0.1-0.5-0.1-1.3-0.1c-0.4,0-0.8,0-1.3,0l-5-6.1c0.6-0.3,1.2-0.5,1.9-0.7C24.2,12.4,23.5,13.5,25.5,13.3z" data-color-action="fill" style="fill:inherit" /></g><g id="cBS_sub-erupted" style=""></g><g id="cBS_rotated_mesial" style=""></g><g id="cBS_rotate_distal" style=""></g><g id="cBS_root_canal" style=""></g><g id="cBS_pins" style=""></g><g id="cBS_mesial_drift" style=""></g><g id="cBS_distal_drift" style=""></g><g id="cBS_crown" style="">	<path class="cB-cls-10" d="M43.7,37.4c3.3-1.7,4.4-11.3,5-15.6S42.8,12.1,37,11s-9.4,2-11.5,2.2c-2,0.2-1.3-0.9-8.7-0.1   c-5.6,1.2-7.1,7.7-6.5,10.2c1.1,4.5,1.8,7,3.8,10.2c1,1.3,9.9,1.6,13.2,1.5c3.2-0.1,7.9,3.1,13.2,2.8C42,37.8,43.2,37.7,43.7,37.4z   " data-color-action="fill" style="fill:inherit" /></g><g id="cBS_cracked_surface_mesial" style="">	<polyline class="cB-cls-11" points="43.3,17.7 47.2,21.6 42.2,21.6 47.2,26.3 42.2,26.3 46,30.1  " data-color-action="stroke" style="stroke:inherit" /></g><g id="cBS_cracked_surface_lingual" style="">	<polyline class="cB-cls-11" points="28.2,17.7 32,21.6 27,21.6 32,26.3 27,26.3 30.8,30.1  " data-color-action="stroke" style="stroke:inherit" /></g><g id="cBS_cracked_surface_lingual_V" style="">	<polyline class="cB-cls-11" points="28.2,17.7 32,21.6 27,21.6 32,26.3 27,26.3 30.8,30.1  " data-color-action="stroke" style="stroke:inherit" /></g><g id="cBS_cracked_surface_distal" style="">	<polyline class="cB-cls-11" points="12.3,17.7 16.2,21.6 11.2,21.6 16.2,26.3 11.2,26.3 15,30.1  " data-color-action="stroke" style="stroke:inherit" /></g><g id="cBS_chipped_surface_mesial" style="">	<g>		<line class="cB-cls-11" x1="39.8" y1="19.4" x2="48.2" y2="27.7" data-color-action="stroke" style="stroke:inherit" />		<line class="cB-cls-11" x1="48.2" y1="19.4" x2="39.8" y2="27.7" data-color-action="stroke" style="stroke:inherit" />	</g></g><g id="cBS_chipped_surface_lingual" style="">	<g>		<line class="cB-cls-11" x1="25.7" y1="19.4" x2="34" y2="27.7" data-color-action="stroke" style="stroke:inherit" />		<line class="cB-cls-11" x1="34" y1="19.4" x2="25.7" y2="27.7" data-color-action="stroke" style="stroke:inherit" />	</g></g><g id="cBS_chipped_surface_lingual_V" style="">	<g>		<line class="cB-cls-11" x1="25.7" y1="19.4" x2="34" y2="27.7" data-color-action="stroke" style="stroke:inherit" />		<line class="cB-cls-11" x1="34" y1="19.4" x2="25.7" y2="27.7" data-color-action="stroke" style="stroke:inherit" />	</g></g><g id="cBS_chipped_surface_distal" style="">	<g>		<line class="cB-cls-11" x1="10.7" y1="19.4" x2="19" y2="27.7" data-color-action="stroke" style="stroke:inherit" />		<line class="cB-cls-11" x1="19" y1="19.4" x2="10.7" y2="27.7" data-color-action="stroke" style="stroke:inherit" />	</g></g><g id="cBS_abscess" style=""></g><g id="cBS_missing_tooth" style="" data-name="missing tooth">	<g>		<path class="cB-cls-2" d="M43.7,37.4c3.3-1.7,4.4-11.3,5-15.6S42.8,12.1,37,11s-9.4,2-11.5,2.2c-2,0.2-1.3-0.9-8.7-0.1    c-5.6,1.2-7.1,7.7-6.5,10.2c1.1,4.5,1.8,7,3.8,10.2c1,1.3,9.9,1.6,13.2,1.5c3.2-0.1,7.9,3.1,13.2,2.8C42,37.8,43.1,37.7,43.7,37.4    z" data-color-action="fill,stroke" style="fill,stroke:inherit" />		<g>			<g>				<path class="cB-cls-9" d="M43.7,37.4c3.3-1.7,4.4-11.3,5-15.6S42.8,12.1,37,11s-9.4,2-11.5,2.2c-2,0.2-1.3-0.9-8.7-0.1      c-5.6,1.2-7.1,7.7-6.5,10.2c1.1,4.5,1.8,7,3.8,10.2c1,1.3,9.9,1.6,13.2,1.5c3.2-0.1,7.9,3.1,13.2,2.8      C42,37.8,43.1,37.7,43.7,37.4z" />			</g>		</g>		<path class="cB-cls-9" d="M27.6,16.8c1.2-0.4,1.7,0.7,1.7,1.2s-0.1,1.3-0.6,1.4c-0.5,0.1-1-0.5-1.3-1.1S26.7,17,27.6,16.8z" />		<path class="cB-cls-9" d="M37,11c-5.8-1-9.4,2-11.5,2.2c-2,0.2-1.3-0.9-8.7-0.1c-4.4,0.9-6.2,5.1-6.5,8.1c0.2-0.8,0.5-1.6,1-2.2    c1.2-1.7,3.2-3.7,4.5-3.7s6.2-0.3,8,0.2c1.8,0.5,3-0.1,4.6-0.8c1.7-0.7,5.4-2.4,7.8-2c3.8,0.6,7,2.6,9,4.5c1.2,1.2,3,2.8,3.4,5.9    c0.1-0.5,0.1-1,0.2-1.4C49.3,17.4,42.8,12.1,37,11z" />		<path class="cB-cls-9" d="M32.3,33.8c-2.9-1-5-1-6-1c-1-0.1-10.9-0.3-12.2-0.9c-0.4-0.2-1-0.7-1.6-1.2c0.4,0.9,0.9,1.9,1.5,2.9    c1,1.3,9.9,1.6,13.2,1.5c3.2-0.1,7.9,3.1,13.2,2.8c1.5-0.1,2.6-0.2,3.2-0.5c0.8-0.4,1.4-1.2,2-2.3c-1.3,0.5-3.2,0.7-4.5,0.7    C38.9,35.9,35.2,34.8,32.3,33.8z" />	</g></g><g id="cBS_watch_tooth" style=""></g><g id="cBS_border" style="">	<rect class="cB-cls-12" width="59" height="66" />	<rect x="0" transform="matrix(-1 -4.488910e-11 4.488910e-11 -1 59 66)" class="cB-cls-12" width="59" height="66" /></g></defs></g></svg>