<svg xmlns="http://www.w3.org/2000/svg" viewBox="0 0 59 283"><defs><style>.a1-cls-1{isolation:isolate}.a1-cls-2,.a1-cls-24{fill:#c5c7c9}.a1-cls-24{stroke:none}.a1-cls-2{stroke:#c5c7c9;stroke-width:5px}.a1-cls-19,.a1-cls-2,.a1-cls-21,.a1-cls-23,.a1-cls-25,.a1-cls-26,.a1-cls-29,.a1-cls-32,.a1-cls-33{stroke-miterlimit:10}.a1-cls-3{fill:#f5d7cf;stroke:none}.a1-cls-4,.a1-cls-5{fill:#fae8e3;stroke:none}.a1-cls-5{fill:#f2c6bc}.a1-cls-6,.a1-cls-7{fill:#eeefef;stroke:none}.a1-cls-7{fill:#e2e3e4}.a1-cls-8,.a1-cls-9{fill:#fbfbfb;stroke:none}.a1-cls-9{font-size:15px;fill:#929497;font-family:ProximaNova-Semibold,Proxima Nova,sans-serif;font-weight:700}.a1-cls-10,.a1-cls-27,.a1-cls-36{fill:#3c3d3d;stroke:none}.a1-cls-10{opacity:.55}.a1-cls-11{fill:#ffd403;stroke:none}.a1-cls-12,.a1-cls-31{fill:#ffef3e;stroke:none}.a1-cls-13,.a1-cls-14,.a1-cls-20{fill:#c52636;stroke:none}.a1-cls-14{fill:none}.a1-cls-19,.a1-cls-21,.a1-cls-23,.a1-cls-25,.a1-cls-26,.a1-cls-29,.a1-cls-32,.a1-cls-33{fill:none}.a1-cls-16,.a1-cls-37{fill:#28418b;stroke:none}.a1-cls-17,.a1-cls-18{fill:#787878;stroke:none}.a1-cls-19,.a1-cls-21,.a1-cls-23,.a1-cls-29,.a1-cls-32,.a1-cls-33{stroke:#c52636}.a1-cls-19,.a1-cls-21,.a1-cls-26{stroke-width:2px}.a1-cls-21{stroke-linecap:round}.a1-cls-22{fill:#fff;stroke:none}.a1-cls-25,.a1-cls-26{stroke:#28418b}.a1-cls-25{stroke-width:3px}.a1-cls-28{opacity:.6}.a1-cls-29{stroke-width:4px}.a1-cls-30{fill:#f05b85;stroke:none}.a1-cls-32,.a1-cls-33{stroke-width:1.25px}.a1-cls-34,.a1-cls-35{fill:#9b9999;stroke:none}.a1-cls-35{fill:#dbdbdc}.b1-cls-1{isolation:isolate}.b1-cls-2{fill:#c5c7c9;stroke:#c5c7c9;stroke-width:5px}.b1-cls-16,.b1-cls-17,.b1-cls-2{stroke-miterlimit:10}.b1-cls-3{fill:#eeefef;stroke:none}.b1-cls-4,.b1-cls-5{fill:#e2e3e4;stroke:none}.b1-cls-5{fill:#fbfbfb}.b1-cls-14,.b1-cls-6{fill:#3c3d3d;stroke:none}.b1-cls-6{opacity:.55}.b1-cls-16,.b1-cls-17{fill:none}.b1-cls-7{fill:none;stroke:none}.b1-cls-13,.b1-cls-8,.b1-cls-9{fill:#787878;stroke:none}.b1-cls-9{font-size:33px;fill:#28418b;font-family:ProximaNova-Semibold,Proxima Nova,sans-serif;font-weight:700}.b1-cls-10{fill:#fff;stroke:none}.b1-cls-12,.b1-cls-15{fill:#c52636;stroke:none}.b1-cls-15{fill:#ffef3e}.b1-cls-16,.b1-cls-17{stroke:#c52636;stroke-width:1.25px}.c1-cls-1{isolation:isolate}.c1-cls-16,.c1-cls-2{fill:#c5c7c9;stroke:none}.c1-cls-2{stroke:#c5c7c9;stroke-width:5px}.c1-cls-2,.c1-cls-20,.c1-cls-21{stroke-miterlimit:10}.c1-cls-3{fill:#eeefef;stroke:none}.c1-cls-4,.c1-cls-5{fill:#fbfbfb;stroke:none}.c1-cls-5{fill:#e2e3e4}.c1-cls-17,.c1-cls-6{fill:#3c3d3d;stroke:none}.c1-cls-6{opacity:.55}.c1-cls-20,.c1-cls-21{fill:none}.c1-cls-7,.c1-cls-9{fill:none;stroke:none}.c1-cls-9{fill:#28418b}.c1-cls-10,.c1-cls-11{fill:#787878;stroke:none}.c1-cls-12,.c1-cls-13,.c1-cls-19{fill:#ffef3e;stroke:none}.c1-cls-13{fill:#fff}.c1-cls-14,.c1-cls-15{fill:#c52636;stroke:none}.c1-cls-18{opacity:.6}.c1-cls-20,.c1-cls-21{stroke:#c52636;stroke-width:1.25px}.a1-msng-cls-1{isolation:isolate}.a1-msng-cls-2{fill:#c5c7c9;stroke:#c5c7c9;stroke-width:5px}.a1-msng-cls-11,.a1-msng-cls-2{stroke-miterlimit:10}.a1-msng-cls-3{fill:#f5d7cf;stroke:none}.a1-msng-cls-4{fill:#fae8e3;stroke:none}.a1-msng-cls-5{fill:#f2c6bc;stroke:none}.a1-msng-cls-6{fill:#eeefef;stroke:none}.a1-msng-cls-7{fill:#e2e3e4;stroke:none}.a1-msng-cls-8{fill:#fbfbfb;stroke:none}.a1-msng-cls-9{font-size:15px;fill:#929497;font-family:ProximaNova-Semibold,Proxima Nova;font-weight:700;stroke:none}.a1-msng-cls-11{fill:none}.a1-msng-cls-12{fill:none;stroke:none}.a1-msng-cls-11{stroke:#787878;stroke-width:6.25px}</style></defs><g class="a1-cls-1"><g id="_1A" data-name="#1A"><path d="M12.85 126.8a3.14 3.14 0 0 1 1-.6c1.9-5 5.28-13.06 5.28-23.2s2.51-17.85 3.44-21.45 2.66-2.19 3.76 0 3.91 11.27 10 22.23c2.7 4.85 7.47 14.2 8.81 22.63.09.08.19.15.27.24 1.72 1.78 2.82 14.72 2 18.16s-4.07 6.26-6.58 6.11-7-3-9.71-3-8.41 2.68-10.12 2.52-8-.94-8.77-4.54-1.89-16.44.62-19.1z" class="a1-cls-2"/><path d="M45.41 128.52c-.78-8.93-6.15-19.48-9.08-24.74-6.11-11-8.93-20-10-22.23s-2.82-3.6-3.76 0S19.11 93 19.11 103c0 11.12-4.07 19.73-5.79 24.58s32.78 8.75 32.09.94z" class="a1-cls-3"/><path d="M24.28 82.19c.38 1-.53 5.54-.43 10.87s1.49 12.15 1.39 16.84.43 6.93-.11 10.23a34.89 34.89 0 0 0-.75 5.44c0 1.39-5.12 3.2-4.8 1s1.17-5.33 2-9.81.43-11.4.43-17.27 1.99-18.15 2.27-17.3z" class="a1-cls-4"/><path d="M42.4 125.89c-.32-3.94-2.13-8-3.94-13.22s-5.76-11.3-8.21-18.23a28.3 28.3 0 0 1-1.61-7.07 136.64 136.64 0 0 0 7.69 16.4c2.93 5.26 8.3 15.81 9.08 24.74a2.4 2.4 0 0 1 0 .55 3.54 3.54 0 0 1-3.01-3.17zM13.31 127.58c1.72-4.85 5.79-13.46 5.79-24.58A72 72 0 0 1 22 83.63c-.08 1.2-.18 2.51-.37 4a112.42 112.42 0 0 0-1.17 15.67 49.49 49.49 0 0 1-1.39 14c-1.07 4.26-3.62 8.63-4.26 11.51-.05.24-.13.51-.22.79-1.02-.67-1.52-1.33-1.28-2.02z" class="a1-cls-5"/><path d="M45.41 126.64c1.72 1.78 2.82 14.72 2 18.16s-4.07 6.26-6.58 6.11-7-3-9.71-3-8.41 2.69-10.12 2.53-8-.94-8.77-4.54-1.88-16.44.63-19.1 28.01-4.86 32.55-.16z" class="a1-cls-6"/><path d="M44.76 146c.64-3.84-.21-17.89-1.58-20.71a6.08 6.08 0 0 1 2.23 1.31c1.72 1.78 2.82 14.72 2 18.16a8.64 8.64 0 0 1-4.41 5.66 11.33 11.33 0 0 0 1.76-4.42zM12.85 126.8a5.57 5.57 0 0 1 2.22-1c-1.77 3.91-.9 17.59-.26 21.56a4.78 4.78 0 0 0 .73 1.88c-1.59-.68-3-1.71-3.32-3.28-.78-3.66-1.88-16.5.63-19.16zM31.17 147.94a18.3 18.3 0 0 0-4.65 1.06c2-1 4.2-2.21 5.54-2.21 1.5 0 2.74 1.62 4 2.59a15.31 15.31 0 0 0-4.89-1.44z" class="a1-cls-7"/><path d="M24.39 131c.11 4.16.53 12.15.75 14.07a35.64 35.64 0 0 0 .53 4.19 17.77 17.77 0 0 1-4.67 1.18h-.25l-.19-.87c-.53-2.45-.64-9.27-.64-13.86 0-4 0-9 .49-11 1.42-.2 3-.37 4.55-.5a24.24 24.24 0 0 0-.57 6.79z" class="a1-cls-8"/><text class="a1-cls-9" transform="translate(26.65 20.51)">1</text></g><defs><g id="a1_bone_graft" data-name="bone graft"><path d="M2 23.31h55v103.01H2z" class="a1-cls-16" data-color-action="fill" style="fill:inherit"/><path d="M12.85 126.8a3.14 3.14 0 0 1 1-.6c1.9-5 5.28-13.06 5.28-23.2s2.51-17.85 3.44-21.45 2.66-2.19 3.76 0 3.91 11.27 10 22.23c2.7 4.85 7.47 14.2 8.81 22.63.09.08.19.15.27.24 1.72 1.78 2.82 14.72 2 18.16s-4.07 6.26-6.58 6.11-7-3-9.71-3-8.41 2.68-10.12 2.52-8-.94-8.77-4.54-1.89-16.44.62-19.1z" class="a1-cls-2"/><path d="M45.41 128.52c-.78-8.93-6.15-19.48-9.08-24.74-6.11-11-8.93-20-10-22.23s-2.82-3.6-3.76 0S19.11 93 19.11 103c0 11.12-4.07 19.73-5.79 24.58s32.78 8.75 32.09.94z" class="a1-cls-3"/><path d="M24.28 82.19c.38 1-.53 5.54-.43 10.87s1.49 12.15 1.39 16.84.43 6.93-.11 10.23a34.89 34.89 0 0 0-.75 5.44c0 1.39-5.12 3.2-4.8 1s1.17-5.33 2-9.81.43-11.4.43-17.27 1.99-18.15 2.27-17.3z" class="a1-cls-4"/><path d="M42.4 125.89c-.32-3.94-2.13-8-3.94-13.22s-5.76-11.3-8.21-18.23a28.3 28.3 0 0 1-1.61-7.07 136.64 136.64 0 0 0 7.69 16.4c2.93 5.26 8.3 15.81 9.08 24.74a2.4 2.4 0 0 1 0 .55 3.54 3.54 0 0 1-3.01-3.17zM13.31 127.58c1.72-4.85 5.79-13.46 5.79-24.58A72 72 0 0 1 22 83.63c-.08 1.2-.18 2.51-.37 4a112.42 112.42 0 0 0-1.17 15.67 49.49 49.49 0 0 1-1.39 14c-1.07 4.26-3.62 8.63-4.26 11.51-.05.24-.13.51-.22.79-1.02-.67-1.52-1.33-1.28-2.02z" class="a1-cls-5"/><path d="M45.41 126.64c1.72 1.78 2.82 14.72 2 18.16s-4.07 6.26-6.58 6.11-7-3-9.71-3-8.41 2.69-10.12 2.53-8-.94-8.77-4.54-1.88-16.44.63-19.1 28.01-4.86 32.55-.16z" class="a1-cls-6"/><path d="M44.76 146c.64-3.84-.21-17.89-1.58-20.71a6.08 6.08 0 0 1 2.23 1.31c1.72 1.78 2.82 14.72 2 18.16a8.64 8.64 0 0 1-4.41 5.66 11.33 11.33 0 0 0 1.76-4.42zM12.85 126.8a5.57 5.57 0 0 1 2.22-1c-1.77 3.91-.9 17.59-.26 21.56a4.78 4.78 0 0 0 .73 1.88c-1.59-.68-3-1.71-3.32-3.28-.78-3.66-1.88-16.5.63-19.16zM31.17 147.94a18.3 18.3 0 0 0-4.65 1.06c2-1 4.2-2.21 5.54-2.21 1.5 0 2.74 1.62 4 2.59a15.31 15.31 0 0 0-4.89-1.44z" class="a1-cls-7"/><path d="M24.39 131c.11 4.16.53 12.15.75 14.07a35.64 35.64 0 0 0 .53 4.19 17.77 17.77 0 0 1-4.67 1.18h-.25l-.19-.87c-.53-2.45-.64-9.27-.64-13.86 0-4 0-9 .49-11 1.42-.2 3-.37 4.55-.5a24.24 24.24 0 0 0-.57 6.79z" class="a1-cls-8"/></g><g id="a1_splinted_crowns" data-name="splinted crowns"><path d="M2 118.59h55v7.67H2z" class="a1-cls-12" data-color-action="fill" style="fill:inherit"/><path d="M12.85 126.8a3.14 3.14 0 0 1 1-.6c1.9-5 5.28-13.06 5.28-23.2s2.51-17.85 3.44-21.45 2.66-2.19 3.76 0 3.91 11.27 10 22.23c2.7 4.85 7.47 14.2 8.81 22.63.09.08.19.15.27.24 1.72 1.78 2.82 14.72 2 18.16s-4.07 6.26-6.58 6.11-7-3-9.71-3-8.41 2.68-10.12 2.52-8-.94-8.77-4.54-1.89-16.44.62-19.1z" class="a1-cls-2"/><path d="M45.41 128.52c-.78-8.93-6.15-19.48-9.08-24.74-6.11-11-8.93-20-10-22.23s-2.82-3.6-3.76 0S19.11 93 19.11 103c0 11.12-4.07 19.73-5.79 24.58s32.78 8.75 32.09.94z" class="a1-cls-3"/><path d="M24.28 82.19c.38 1-.53 5.54-.43 10.87s1.49 12.15 1.39 16.84.43 6.93-.11 10.23a34.89 34.89 0 0 0-.75 5.44c0 1.39-5.12 3.2-4.8 1s1.17-5.33 2-9.81.43-11.4.43-17.27 1.99-18.15 2.27-17.3z" class="a1-cls-4"/><path d="M42.4 125.89c-.32-3.94-2.13-8-3.94-13.22s-5.76-11.3-8.21-18.23a28.3 28.3 0 0 1-1.61-7.07 136.64 136.64 0 0 0 7.69 16.4c2.93 5.26 8.3 15.81 9.08 24.74a2.4 2.4 0 0 1 0 .55 3.54 3.54 0 0 1-3.01-3.17zM13.31 127.58c1.72-4.85 5.79-13.46 5.79-24.58A72 72 0 0 1 22 83.63c-.08 1.2-.18 2.51-.37 4a112.42 112.42 0 0 0-1.17 15.67 49.49 49.49 0 0 1-1.39 14c-1.07 4.26-3.62 8.63-4.26 11.51-.05.24-.13.51-.22.79-1.02-.67-1.52-1.33-1.28-2.02z" class="a1-cls-5"/><path d="M45.41 126.64c1.72 1.78 2.82 14.72 2 18.16s-4.07 6.26-6.58 6.11-7-3-9.71-3-8.41 2.69-10.12 2.53-8-.94-8.77-4.54-1.88-16.44.63-19.1 28.01-4.86 32.55-.16z" class="a1-cls-6"/><path d="M44.76 146c.64-3.84-.21-17.89-1.58-20.71a6.08 6.08 0 0 1 2.23 1.31c1.72 1.78 2.82 14.72 2 18.16a8.64 8.64 0 0 1-4.41 5.66 11.33 11.33 0 0 0 1.76-4.42zM12.85 126.8a5.57 5.57 0 0 1 2.22-1c-1.77 3.91-.9 17.59-.26 21.56a4.78 4.78 0 0 0 .73 1.88c-1.59-.68-3-1.71-3.32-3.28-.78-3.66-1.88-16.5.63-19.16zM31.17 147.94a18.3 18.3 0 0 0-4.65 1.06c2-1 4.2-2.21 5.54-2.21 1.5 0 2.74 1.62 4 2.59a15.31 15.31 0 0 0-4.89-1.44z" class="a1-cls-7"/><path d="M24.39 131c.11 4.16.53 12.15.75 14.07a35.64 35.64 0 0 0 .53 4.19 17.77 17.77 0 0 1-4.67 1.18h-.25l-.19-.87c-.53-2.45-.64-9.27-.64-13.86 0-4 0-9 .49-11 1.42-.2 3-.37 4.55-.5a24.24 24.24 0 0 0-.57 6.79z" class="a1-cls-8"/></g><path id="a1_mesial" d="M42.65 139.56a16.38 16.38 0 0 1-.42 2.28l3.9 5.88a8.28 8.28 0 0 0 1.32-2.91c.39-1.71.31-5.77-.07-9.64-2.12.52-4.38 1.71-4.73 4.39z" class="a1-cls-10" data-color-action="fill" style="fill:inherit"/><path id="a1_line_angle_2" d="M37.56 145.07a7.79 7.79 0 0 1-2.86-.58l1.1 4.77a20.15 20.15 0 0 0 5.08 1.66c1.74.11 3.86-1.22 5.25-3.2l-3.9-5.88c-.5 1.76-1.61 3.33-4.67 3.23z" class="a1-cls-10" data-color-action="fill" style="fill:inherit" data-name="line angle 2"/><path id="a1_groove_1" d="M29.79 142.24c-2-.09-3.54 1.05-5.56 1.84l-1.55 6.1c2.47-.65 6.41-2.24 8.48-2.24a14.29 14.29 0 0 1 4.63 1.31l-1.1-4.77c-1.88-.79-2.69-2.14-4.9-2.24z" class="a1-cls-10" data-color-action="fill" style="fill:inherit" data-name="groove 1"/><path id="a1_line_angle_1" d="M20.33 144.78c-1.9-.06-3.17-1.21-4.12-3l-3.67 4.95c1.49 2.88 6.87 3.56 8.45 3.7a5.73 5.73 0 0 0 1.7-.26l1.55-6.1a9.56 9.56 0 0 1-3.91.71z" class="a1-cls-10" data-color-action="fill" style="fill:inherit" data-name="line angle 1"/><path id="a1_distal" d="M12.22 145.9a3.38 3.38 0 0 0 .32.84l3.67-4.95a21.08 21.08 0 0 1-1.53-4.07 4.44 4.44 0 0 0-3.39-2.86 61.55 61.55 0 0 0 .93 11.04z" class="a1-cls-10" data-color-action="fill" style="fill:inherit"/><ellipse id="a1_buccal_pit" cx="29.52" cy="134.99" class="a1-cls-10" rx="3.36" ry="5.4" data-color-action="fill" style="fill:inherit" data-name="buccal pit"/><path id="a1_buccal_V" d="M29.66 127.28a27 27 0 0 0 10.8-2.69c-6.26-1.21-16.26-.69-22.46.41a27 27 0 0 0 11.66 2.28z" class="a1-cls-10" data-color-action="fill" style="fill:inherit" data-name="buccal V"/><path id="a1_veneer" d="M45.41 126.64c1.72 1.78 2.82 14.72 2 18.16s-4.07 6.26-6.58 6.11-7-3-9.71-3-8.41 2.69-10.12 2.53-8-.94-8.77-4.54-1.88-16.44.63-19.1 28.01-4.86 32.55-.16z" class="a1-cls-12" data-color-action="fill" style="fill:inherit"/><path id="a1_tissue_graft" d="M46.97 109.67L29.5 123.55l-17.47-13.88h34.94z" class="a1-cls-13" data-color-action="fill" style="fill:inherit" data-name="tissue graft"/><g id="a1_tipped_lingual" data-name="tipped lingual"><path d="M28 3.25h3v3h-3z" class="a1-cls-14"/><path d="M28 3.25h3v3h-3z" class="a1-cls-14"/><path d="M28 3.25h3v3h-3z" class="a1-cls-14"/></g><g id="a1_tipped_facial" class="a1-cls-15" data-name="tipped facial"><path d="M25.85 153.5c1.26 3.37 4.74 3.85 7.69-5.32.5-1.56 4.42-1.76 3.84 0-2 6.08-5.31 10.2-9.06 9.27a4.86 4.86 0 0 1-3-3.38c.19-.17.42-.43.53-.57z" class="a1-cls-16" data-color-action="fill" style="fill:inherit"/><path d="M27.93 150.58h12.94l-2.94-9.64-10 9.64z" class="a1-cls-16" data-color-action="fill" style="fill:inherit"/></g><path id="a1_surface_restoration_occlusal" d="M40.48 143.59L39 143c-2.38-1-5.08-2.07-7.86-2.07a27.08 27.08 0 0 0-7.88 1.74c-.71.23-1.72.56-2.32.72-.37 0-.7-.11-1-.17l-4.37 6a19.43 19.43 0 0 0 5.43 1.22c1.72.16 7.52-2.51 10.18-2.51s7.2 2.82 9.71 3a6.08 6.08 0 0 0 4.39-2.15l-4.76-5.23z" class="a1-cls-17" data-color-action="fill" style="fill:inherit" data-name="surface restoration occlusal"/><path id="a1_surface_restoration_mesial" d="M47.49 136.36a11.6 11.6 0 0 1-7-5.28c.22 5.33.29 11.16.11 12.23a1 1 0 0 1-.11.22l4.76 5.23a8.6 8.6 0 0 0 2.18-4 35.88 35.88 0 0 0 .06-8.4z" class="a1-cls-17" data-color-action="fill" style="fill:inherit" data-name="surface restoration mesial"/><path id="a1_surface_restoration_buccal" d="M38.88 125.18v-.85l-.63-.08a15.74 15.74 0 0 1-9.8 3.26 16 16 0 0 1-9.05-2.71h-.11v.46a11.51 11.51 0 0 1-1.06 4.83c.05 5 .24 11 .51 12.82a13.32 13.32 0 0 0 2.16.46c.6-.16 1.61-.49 2.32-.72a27.08 27.08 0 0 1 7.88-1.74c2.78 0 5.48 1.1 7.86 2.07l1.46.58a1 1 0 0 0 .13-.28c.19-1.07.12-6.9-.11-12.23a11.48 11.48 0 0 1-1.56-5.87z" class="a1-cls-15 a1-cls-18" data-color-action="fill" style="fill:inherit" data-name="surface restoration buccal"/><path id="a1_surface_restoration_buccal_V" d="M38.29 124.26a76 76 0 0 0-18.85.55 16 16 0 0 0 9.05 2.71 15.74 15.74 0 0 0 9.8-3.26z" class="a1-cls-15 a1-cls-18" data-color-action="fill" style="fill:inherit" data-name="surface restoration buccal V"/><path id="a1_surface_restoration_distal" d="M18.8 142.94c-.26-1.86-.45-7.8-.51-12.82a11.61 11.61 0 0 1-7 6.2 59.73 59.73 0 0 0 .91 9.59c.34 1.58 1.75 2.62 3.35 3.3l4.37-6a11.73 11.73 0 0 1-1.12-.27z" class="a1-cls-17" data-color-action="fill" style="fill:inherit" data-name="surface restoration distal"/><g id="a1_supra-erupted" class="a1-cls-15"><path d="M29.5 116.89v-7.68" class="a1-cls-19" data-color-action="stroke" style="stroke:inherit"/><path d="M33.49 115.72l-3.99 6.91-3.99-6.91h7.98z" class="a1-cls-20" data-color-action="fill" style="fill:inherit"/></g><g id="a1_sub-erupted" class="a1-cls-15"><path d="M29.5 114.95v7.68" class="a1-cls-19" data-color-action="stroke" style="stroke:inherit"/><path d="M25.51 116.12l3.99-6.91 3.99 6.91h-7.98z" class="a1-cls-20" data-color-action="fill" style="fill:inherit"/></g><g id="a1_sealant"><path d="M28 3.25h3v3h-3z" class="a1-cls-14"/><path d="M28 3.25h3v3h-3z" class="a1-cls-14"/><path d="M28 3.25h3v3h-3z" class="a1-cls-14"/></g><g id="a1_rotated_mesial" class="a1-cls-15" data-name="rotated mesial"><path d="M5.87 128.18c-3 1.79-2.3 5.46 10.23 5.81 5.3.15 8.95 0 8.95 0L25 137s-1 .07-8.22-.24c-7.62-.32-14-1.83-13.75-6a4 4 0 0 1 2.31-2.92c.15.16.4.27.53.34z" class="a1-cls-16" data-color-action="fill" style="fill:inherit"/><path d="M18.57 129.47v11.89l10.4-5.9-10.4-5.99z" class="a1-cls-16" data-color-action="fill" style="fill:inherit"/></g><g id="a1_rotated_distal" class="a1-cls-15" data-name="rotated distal"><path d="M53.13 128.18c3 1.79 2.3 5.46-10.23 5.81-5.3.15-8.95 0-8.95 0l.07 3s1 .07 8.22-.24c7.62-.32 14-1.83 13.75-6a4 4 0 0 0-2.31-2.92c-.17.17-.42.28-.55.35z" class="a1-cls-16" data-color-action="fill" style="fill:inherit"/><path d="M40.43 129.47v11.89l-10.4-5.9 10.4-5.99z" class="a1-cls-16" data-color-action="fill" style="fill:inherit"/></g><circle id="a1_root_decay" cx="26.25" cy="100.67" r="4.33" class="a1-cls-15 a1-cls-18" data-color-action="fill" style="fill:inherit" data-name="root decay"/><path id="a1_root_canal" d="M24.5 82.83l3.67 37.84" class="a1-cls-21" data-color-action="stroke" style="stroke:inherit" data-name="root canal"/><path id="a1_root_abrasion" d="M24.42 94.18h3.5v13.83h-3.5z" class="a1-cls-15 a1-cls-23" data-color-action="stroke" style="stroke:inherit" data-name="root abrasion"/><g id="a1_post"><path d="M27.34 101.4h3.14v41.77h-3.14z" class="a1-cls-18" data-color-action="fill" style="fill:inherit"/><path d="M28.21 101.4h.47v41.77h-.47z" class="a1-cls-24"/></g><g id="a1_pins"><path d="M24.67 113.74h2.42v23.43h-2.42z" class="a1-cls-18" data-color-action="fill" style="fill:inherit"/><path d="M25.34 113.74h.36v23.43h-.36z" class="a1-cls-24"/><path d="M29.26 113.74h2.42v23.43h-2.42z" class="a1-cls-18" data-color-action="fill" style="fill:inherit"/><path d="M29.92 113.74h.36v23.43h-.36z" class="a1-cls-24"/></g><path id="a1_open_contact_mesial" d="M35.69 118l7.5 4.75 7.5-4.75" class="a1-cls-25" data-color-action="stroke" style="stroke:inherit" data-name="open contact mesial"/><path id="a1_open_contact_distal" d="M8.67 118l7.5 4.75 7.5-4.75" class="a1-cls-25" data-color-action="stroke" style="stroke:inherit" data-name="open contact distal"/><g id="a1_mesial_drift" class="a1-cls-15" data-name="mesial drift"><path d="M32.59 137.17H20.67" class="a1-cls-26" data-color-action="stroke" style="stroke:inherit"/><path d="M31.43 133.18l6.9 3.99-6.9 3.99v-7.98z" class="a1-cls-16" data-color-action="fill" style="fill:inherit"/></g><g id="a1_lingual_abfraction" data-name="lingual abfraction"><path d="M28 3.25h3v3h-3z" class="a1-cls-14"/><path d="M28 3.25h3v3h-3z" class="a1-cls-14"/><path d="M28 3.25h3v3h-3z" class="a1-cls-14"/></g><ellipse id="a1_internal_root_resorption" cx="25.72" cy="100.28" class="a1-cls-15 a1-cls-20" rx="3.34" ry="8.27" transform="rotate(-9.78 25.742 100.28)" data-color-action="fill" style="fill:inherit" data-name="internal root resorption"/><g id="a1_impacted_mesial" class="a1-cls-15" data-name="impacted mesial"><ellipse cx="29.51" cy="114.13" class="a1-cls-26" rx="24.15" ry="45.46" data-color-action="stroke" style="stroke:inherit"/><path d="M18.11 114.13H5.35" class="a1-cls-26" data-color-action="stroke" style="stroke:inherit"/><path d="M16.94 110.14l6.91 3.99-6.91 3.99v-7.98z" class="a1-cls-16" data-color-action="fill" style="fill:inherit"/></g><g id="a1_impacted_distal" class="a1-cls-15" data-name="impacted distal"><ellipse cx="29.5" cy="114.13" class="a1-cls-26" rx="24.15" ry="45.46" data-color-action="stroke" style="stroke:inherit"/><path d="M40.91 114.13h12.76" class="a1-cls-26" data-color-action="stroke" style="stroke:inherit"/><path d="M42.08 118.12l-6.91-3.99 6.91-3.99v7.98z" class="a1-cls-16" data-color-action="fill" style="fill:inherit"/></g><path id="a1_gortex_membranes" d="M2 109.67h55v16.42H2z" class="a1-cls-13" data-color-action="fill" style="fill:inherit" data-name="gortex membranes"/><path id="a1_frenum_pull" d="M18.84 123.26l10.66-6.75 10.66 6.75" class="a1-cls-29" data-color-action="stroke" style="stroke:inherit" data-name="frenum pull"/><path id="a1_external_root_resorption" d="M19.64 94.93a63 63 0 0 0-.53 8.06 48 48 0 0 1-.91 9.16c1.69-.78 4.67-2.91 5.24-8.33.56-5.82-2.34-8.1-3.8-8.89zm16.69 8.85c-1.34-2.4-2.51-4.71-3.55-6.88a10.49 10.49 0 0 0 .15 8.09 9.2 9.2 0 0 0 6.89 5.58c-1.26-2.68-2.51-5.03-3.49-6.79z" class="a1-cls-15 a1-cls-20" data-color-action="fill" style="fill:inherit" data-name="external root resorption"/><g id="a1_distal_drift" class="a1-cls-15" data-name="distal drift"><path d="M26.41 137.17h11.92" class="a1-cls-26" data-color-action="stroke" style="stroke:inherit"/><path d="M27.57 141.16l-6.9-3.99 6.9-3.99v7.98z" class="a1-cls-16" data-color-action="fill" style="fill:inherit"/></g><path id="a1_three_quarter_crown" d="M11.31 136.67a59.06 59.06 0 0 0 .91 9.23c.78 3.6 7 4.38 8.77 4.54s7.52-2.51 10.18-2.51 7.2 2.82 9.71 3 5.79-2.66 6.58-6.11a34.82 34.82 0 0 0 .06-8.14z" class="a1-cls-15 a1-cls-31" data-color-action="fill" style="fill:inherit" data-name="three quarter crown"/><path id="a1_crown" d="M45.41 126.64c1.72 1.78 2.82 14.72 2 18.16s-4.07 6.26-6.58 6.11-7-3-9.71-3-8.41 2.69-10.12 2.53-8-.94-8.77-4.54-1.88-16.44.63-19.1 28.01-4.86 32.55-.16z" class="a1-cls-12" data-color-action="fill" style="fill:inherit"/><path id="a1_cracked_surface_mesial" d="M43.34 131.83l3.83 3.83h-5l5 4.75h-5l3.82 3.82" class="a1-cls-32" data-color-action="stroke" style="stroke:inherit" data-name="cracked surface mesial"/><path id="a1_cracked_surface_buccal" d="M28.17 131.83l3.84 3.83H27l5 4.75h-5l3.83 3.82" class="a1-cls-32" data-color-action="stroke" style="stroke:inherit" data-name="cracked surface buccal"/><path id="a1_cracked_surface_buccal_V" d="M28.17 131.83l3.84 3.83H27l5 4.75h-5l3.83 3.82" class="a1-cls-32" data-color-action="stroke" style="stroke:inherit" data-name="cracked surface buccal V"/><path id="a1_cracked_surface_distal" d="M12.34 131.83l3.83 3.83h-5l5 4.75h-5l3.82 3.82" class="a1-cls-32" data-color-action="stroke" style="stroke:inherit" data-name="cracked surface distal"/><g id="a1_chipped_surface_mesial" class="a1-cls-15" data-name="chipped surface mesial"><path d="M39.83 133.5l8.34 8.33M48.17 133.5l-8.34 8.33" class="a1-cls-33" data-color-action="stroke" style="stroke:inherit"/></g><g id="a1_chipped_surface_buccal" class="a1-cls-15" data-name="chipped surface buccal"><path d="M25.67 133.5l8.33 8.33M34 133.5l-8.33 8.33" class="a1-cls-33" data-color-action="stroke" style="stroke:inherit"/></g><g id="a1_chipped_surface_buccal_V" class="a1-cls-15" data-name="chipped surface buccal V"><path d="M25.67 133.5l8.33 8.33M34 133.5l-8.33 8.33" class="a1-cls-33" data-color-action="stroke" style="stroke:inherit"/></g><g id="a1_chipped_surface_distal" class="a1-cls-15" data-name="chipped surface distal"><path d="M10.67 133.5l8.33 8.33M19 133.5l-8.33 8.33" class="a1-cls-33" data-color-action="stroke" style="stroke:inherit"/></g><path id="a1_buccal_abfraction" d="M45.81 124.59s-7.3 5.75-16.31 5.75-16.31-5.75-16.31-5.75 7.3-5.75 16.31-5.75 16.31 5.75 16.31 5.75z" class="a1-cls-13" data-color-action="fill" style="fill:inherit" data-name="buccal abfraction"/><g id="a1_braces"><path d="M22.59 127.97h13.45v18.19H22.59z" class="a1-cls-24"/><path d="M22.59 145.48h13.45v.68H22.59zM22.59 137.22h13.45v1.36H22.59z" class="a1-cls-34" data-color-action="fill" style="fill:inherit"/><path d="M22.59 127.97h13.45v.89H22.59z" class="a1-cls-35" data-color-action="fill" style="fill:inherit"/><rect width="4.11" height="7.94" x="22.3" y="127.99" class="a1-cls-27" rx=".49" ry=".49" data-color-action="fill" style="fill:inherit"/><path d="M25.92 128h-3.13a.49.49 0 0 0-.49.49v5.83a13.14 13.14 0 0 0 4.11 0v-5.83a.49.49 0 0 0-.49-.49z" class="a1-cls-18" data-color-action="fill" style="fill:inherit"/><path d="M26.08 129.4v-1.11a.16.16 0 0 0-.16-.16h-3.13a.16.16 0 0 0-.16.16v1.11z" class="a1-cls-24"/><rect width="4.11" height="7.94" x="32.22" y="127.99" class="a1-cls-27" rx=".49" ry=".49" data-color-action="fill" style="fill:inherit"/><path d="M35.84 128h-3.13a.49.49 0 0 0-.49.49v5.83a13.14 13.14 0 0 0 4.11 0v-5.83a.49.49 0 0 0-.49-.49z" class="a1-cls-18" data-color-action="fill" style="fill:inherit"/><path d="M36 129.4v-1.11a.16.16 0 0 0-.16-.16h-3.13a.16.16 0 0 0-.16.16v1.11z" class="a1-cls-24"/><rect width="4.11" height="7.94" x="22.3" y="138.28" class="a1-cls-27" rx=".49" ry=".49" data-color-action="fill" style="fill:inherit"/><path d="M25.92 138.28h-3.13a.49.49 0 0 0-.49.49v5.83a13.14 13.14 0 0 0 4.11 0v-5.83a.49.49 0 0 0-.49-.49z" class="a1-cls-18" data-color-action="fill" style="fill:inherit"/><path d="M26.08 139.68v-1.11a.16.16 0 0 0-.16-.16h-3.13a.16.16 0 0 0-.16.16v1.11z" class="a1-cls-24"/><rect width="4.11" height="7.94" x="32.22" y="138.28" class="a1-cls-27" rx=".49" ry=".49" data-color-action="fill" style="fill:inherit"/><path d="M35.84 138.28h-3.13a.49.49 0 0 0-.49.49v5.83a13.14 13.14 0 0 0 4.11 0v-5.83a.49.49 0 0 0-.49-.49z" class="a1-cls-18" data-color-action="fill" style="fill:inherit"/><path d="M36 139.68v-1.11a.16.16 0 0 0-.16-.16h-3.13a.16.16 0 0 0-.16.16v1.11z" class="a1-cls-24"/><path d="M8.21 136.38h42.21v1.45H8.21z" class="a1-cls-18" data-color-action="fill" style="fill:inherit"/><path d="M8.21 137.59h42.21v.25H8.21z" class="a1-cls-27" data-color-action="fill" style="fill:inherit"/><path d="M8.21 136.58h42.21v.4H8.21z" class="a1-cls-24"/></g><path id="a1_apicoectomy" d="M36.84 73L29.5 84.67 22.16 73h14.68z" class="a1-cls-17" data-color-action="fill" style="fill:inherit"/><circle id="a1_abscess" cx="29.5" cy="77.5" r="6.5" class="a1-cls-37" data-color-action="fill" style="fill:inherit"/><g id="a1_blunted_roots" data-name="blunted roots"><path d="M2 22h55v84.01H2z" class="a1-cls-22"/><path d="M2 106.1h55v2H2z" class="a1-cls-36" data-color-action="fill" style="fill:inherit"/></g><path id="a1_root_amputation" d="M2 21.67h55v102.06H2z" class="a1-cls-22" data-name="root amputation"/><path id="a1_missing_crown" d="M2 123.73h55v35.43H2z" class="a1-cls-22" data-name="missing crown"/><g id="a1_missing_tooth" data-name="missing tooth"><path d="M12.85 126.8a3.14 3.14 0 0 1 1-.6c1.9-5 5.28-13.06 5.28-23.2s2.51-17.85 3.44-21.45 2.66-2.19 3.76 0 3.91 11.27 10 22.23c2.7 4.85 7.47 14.2 8.81 22.63.09.08.19.15.27.24 1.72 1.78 2.82 14.72 2 18.16s-4.07 6.26-6.58 6.11-7-3-9.71-3-8.41 2.68-10.12 2.52-8-.94-8.77-4.54-1.89-16.44.62-19.1z" class="a1-cls-2"/><path d="M45.41 128.52c-.78-8.93-6.15-19.48-9.08-24.74-6.11-11-8.93-20-10-22.23s-2.82-3.6-3.76 0S19.11 93 19.11 103c0 11.12-4.07 19.73-5.79 24.58s32.78 8.75 32.09.94z" class="a1-cls-22"/><path d="M24.28 82.19c.38 1-.53 5.54-.43 10.87s1.49 12.15 1.39 16.84.43 6.93-.11 10.23a34.89 34.89 0 0 0-.75 5.44c0 1.39-5.12 3.2-4.8 1s1.17-5.33 2-9.81.43-11.4.43-17.27 1.99-18.15 2.27-17.3zM42.4 125.89c-.32-3.94-2.13-8-3.94-13.22s-5.76-11.3-8.21-18.23a28.3 28.3 0 0 1-1.61-7.07 136.64 136.64 0 0 0 7.69 16.4c2.93 5.26 8.3 15.81 9.08 24.74a2.4 2.4 0 0 1 0 .55 3.54 3.54 0 0 1-3.01-3.17zM13.31 127.58c1.72-4.85 5.79-13.46 5.79-24.58A72 72 0 0 1 22 83.63c-.08 1.2-.18 2.51-.37 4a112.42 112.42 0 0 0-1.17 15.67 49.49 49.49 0 0 1-1.39 14c-1.07 4.26-3.62 8.63-4.26 11.51-.05.24-.13.51-.22.79-1.02-.67-1.52-1.33-1.28-2.02z" class="a1-cls-22"/><path d="M45.41 126.64c1.72 1.78 2.82 14.72 2 18.16s-4.07 6.26-6.58 6.11-7-3-9.71-3-8.41 2.69-10.12 2.53-8-.94-8.77-4.54-1.88-16.44.63-19.1 28.01-4.86 32.55-.16z" class="a1-cls-22"/><path d="M44.76 146c.64-3.84-.21-17.89-1.58-20.71a6.08 6.08 0 0 1 2.23 1.31c1.72 1.78 2.82 14.72 2 18.16a8.64 8.64 0 0 1-4.41 5.66 11.33 11.33 0 0 0 1.76-4.42zM12.85 126.8a5.57 5.57 0 0 1 2.22-1c-1.77 3.91-.9 17.59-.26 21.56a4.78 4.78 0 0 0 .73 1.88c-1.59-.68-3-1.71-3.32-3.28-.78-3.66-1.88-16.5.63-19.16zM31.17 147.94a18.3 18.3 0 0 0-4.65 1.06c2-1 4.2-2.21 5.54-2.21 1.5 0 2.74 1.62 4 2.59a15.31 15.31 0 0 0-4.89-1.44zM24.39 131c.11 4.16.53 12.15.75 14.07a35.64 35.64 0 0 0 .53 4.19 17.77 17.77 0 0 1-4.67 1.18h-.25l-.19-.87c-.53-2.45-.64-9.27-.64-13.86 0-4 0-9 .49-11 1.42-.2 3-.37 4.55-.5a24.24 24.24 0 0 0-.57 6.79z" class="a1-cls-22"/></g><g id="a1_extracted_tooth" class="a1-msng-cls-10" data-name="extracted tooth"><path d="M9 108.83l41.67 41.66M50.67 108.83L9 150.49" class="a1-msng-cls-11" data-color-action="stroke" style="stroke:inherit"/></g><g id="a1_denture"><path d="M12.85 126.8a3.14 3.14 0 0 1 1-.6c1.9-5 5.28-13.06 5.28-23.2s2.51-17.85 3.44-21.45 2.66-2.19 3.76 0 3.91 11.27 10 22.23c2.7 4.85 7.47 14.2 8.81 22.63.09.08.19.15.27.24 1.72 1.78 2.82 14.72 2 18.16s-4.07 6.26-6.58 6.11-7-3-9.71-3-8.41 2.68-10.12 2.52-8-.94-8.77-4.54-1.89-16.44.62-19.1z" class="a1-cls-2"/><path d="M45.41 128.52c-.78-8.93-6.15-19.48-9.08-24.74-6.11-11-8.93-20-10-22.23s-2.82-3.6-3.76 0S19.11 93 19.11 103c0 11.12-4.07 19.73-5.79 24.58s32.78 8.75 32.09.94z" class="a1-cls-3"/><path d="M24.28 82.19c.38 1-.53 5.54-.43 10.87s1.49 12.15 1.39 16.84.43 6.93-.11 10.23a34.89 34.89 0 0 0-.75 5.44c0 1.39-5.12 3.2-4.8 1s1.17-5.33 2-9.81.43-11.4.43-17.27 1.99-18.15 2.27-17.3z" class="a1-cls-4"/><path d="M42.4 125.89c-.32-3.94-2.13-8-3.94-13.22s-5.76-11.3-8.21-18.23a28.3 28.3 0 0 1-1.61-7.07 136.64 136.64 0 0 0 7.69 16.4c2.93 5.26 8.3 15.81 9.08 24.74a2.4 2.4 0 0 1 0 .55 3.54 3.54 0 0 1-3.01-3.17zM13.31 127.58c1.72-4.85 5.79-13.46 5.79-24.58A72 72 0 0 1 22 83.63c-.08 1.2-.18 2.51-.37 4a112.42 112.42 0 0 0-1.17 15.67 49.49 49.49 0 0 1-1.39 14c-1.07 4.26-3.62 8.63-4.26 11.51-.05.24-.13.51-.22.79-1.02-.67-1.52-1.33-1.28-2.02z" class="a1-cls-5"/><path d="M45.41 126.64c1.72 1.78 2.82 14.72 2 18.16s-4.07 6.26-6.58 6.11-7-3-9.71-3-8.41 2.69-10.12 2.53-8-.94-8.77-4.54-1.88-16.44.63-19.1 28.01-4.86 32.55-.16z" class="a1-cls-6"/><path d="M44.76 146c.64-3.84-.21-17.89-1.58-20.71a6.08 6.08 0 0 1 2.23 1.31c1.72 1.78 2.82 14.72 2 18.16a8.64 8.64 0 0 1-4.41 5.66 11.33 11.33 0 0 0 1.76-4.42zM12.85 126.8a5.57 5.57 0 0 1 2.22-1c-1.77 3.91-.9 17.59-.26 21.56a4.78 4.78 0 0 0 .73 1.88c-1.59-.68-3-1.71-3.32-3.28-.78-3.66-1.88-16.5.63-19.16zM31.17 147.94a18.3 18.3 0 0 0-4.65 1.06c2-1 4.2-2.21 5.54-2.21 1.5 0 2.74 1.62 4 2.59a15.31 15.31 0 0 0-4.89-1.44z" class="a1-cls-7"/><path d="M24.39 131c.11 4.16.53 12.15.75 14.07a35.64 35.64 0 0 0 .53 4.19 17.77 17.77 0 0 1-4.67 1.18h-.25l-.19-.87c-.53-2.45-.64-9.27-.64-13.86 0-4 0-9 .49-11 1.42-.2 3-.37 4.55-.5a24.24 24.24 0 0 0-.57 6.79z" class="a1-cls-8"/><path d="M2 23.16h55v135.01H2z" class="a1-cls-22"/><path d="M57 100.22A22.63 22.63 0 0 0 44.78 97c-7.64 0-10 3.22-15.79 3.22S19.15 97 13.2 97A24.26 24.26 0 0 0 2 100.22v57.94h55z" class="a1-cls-30" data-color-action="fill" style="fill:inherit"/><path d="M45.41 126.64c1.72 1.78 2.82 14.72 2 18.16s-4.07 6.26-6.58 6.11-7-3-9.71-3-8.41 2.69-10.12 2.53-8-.94-8.77-4.54-1.88-16.44.63-19.1 28.01-4.86 32.55-.16z" class="a1-cls-2"/><path d="M45.41 126.64c1.72 1.78 2.82 14.72 2 18.16s-4.07 6.26-6.58 6.11-7-3-9.71-3-8.41 2.69-10.12 2.53-8-.94-8.77-4.54-1.88-16.44.63-19.1 28.01-4.86 32.55-.16z" class="a1-cls-6"/><path d="M44.76 146c.64-3.84-.21-17.89-1.58-20.71a6.08 6.08 0 0 1 2.23 1.31c1.72 1.78 2.82 14.72 2 18.16a8.64 8.64 0 0 1-4.41 5.66 11.33 11.33 0 0 0 1.76-4.42zM12.85 126.8a5.57 5.57 0 0 1 2.22-1c-1.77 3.91-.9 17.59-.26 21.56a4.78 4.78 0 0 0 .73 1.88c-1.59-.68-3-1.71-3.32-3.28-.78-3.66-1.88-16.5.63-19.16zM31.17 147.94a18.3 18.3 0 0 0-4.65 1.06c2-1 4.2-2.21 5.54-2.21 1.5 0 2.74 1.62 4 2.59a15.31 15.31 0 0 0-4.89-1.44z" class="a1-cls-7"/><path d="M24.39 131c.11 4.16.53 12.15.75 14.07a35.64 35.64 0 0 0 .53 4.19 17.77 17.77 0 0 1-4.67 1.18h-.25l-.19-.87c-.53-2.45-.64-9.27-.64-13.86 0-4 0-9 .49-11 1.42-.2 3-.37 4.55-.5a24.24 24.24 0 0 0-.57 6.79z" class="a1-cls-8"/></g><g id="a1_maryland_bridge_pontic" class="a1-cls-15" data-name="maryland bridge pontic"><path d="M2 135.34h55v7.67H2z" class="a1-cls-20" data-color-action="fill" style="fill:inherit"/><path d="M45.41 126.64c1.72 1.78 2.82 14.72 2 18.16s-4.07 6.26-6.58 6.11-7-3-9.71-3-8.41 2.69-10.12 2.53-8-.94-8.77-4.54-1.88-16.44.63-19.1 28.01-4.86 32.55-.16z" class="a1-cls-20" data-color-action="fill" style="fill:inherit"/></g><g id="a1_maryland_bridge_abutment_mesial" data-name="maryland bridge abutment mesial"><path d="M22.02 135.34H57v7.67H22.02z" class="a1-cls-15 a1-cls-20" data-color-action="fill" style="fill:inherit"/><path d="M12.85 126.8a3.14 3.14 0 0 1 1-.6c1.9-5 5.28-13.06 5.28-23.2s2.51-17.85 3.44-21.45 2.66-2.19 3.76 0 3.91 11.27 10 22.23c2.7 4.85 7.47 14.2 8.81 22.63.09.08.19.15.27.24 1.72 1.78 2.82 14.72 2 18.16s-4.07 6.26-6.58 6.11-7-3-9.71-3-8.41 2.68-10.12 2.52-8-.94-8.77-4.54-1.89-16.44.62-19.1z" class="a1-cls-2"/><path d="M45.41 128.52c-.78-8.93-6.15-19.48-9.08-24.74-6.11-11-8.93-20-10-22.23s-2.82-3.6-3.76 0S19.11 93 19.11 103c0 11.12-4.07 19.73-5.79 24.58s32.78 8.75 32.09.94z" class="a1-cls-3"/><path d="M24.28 82.19c.38 1-.53 5.54-.43 10.87s1.49 12.15 1.39 16.84.43 6.93-.11 10.23a34.89 34.89 0 0 0-.75 5.44c0 1.39-5.12 3.2-4.8 1s1.17-5.33 2-9.81.43-11.4.43-17.27 1.99-18.15 2.27-17.3z" class="a1-cls-4"/><path d="M42.4 125.89c-.32-3.94-2.13-8-3.94-13.22s-5.76-11.3-8.21-18.23a28.3 28.3 0 0 1-1.61-7.07 136.64 136.64 0 0 0 7.69 16.4c2.93 5.26 8.3 15.81 9.08 24.74a2.4 2.4 0 0 1 0 .55 3.54 3.54 0 0 1-3.01-3.17zM13.31 127.58c1.72-4.85 5.79-13.46 5.79-24.58A72 72 0 0 1 22 83.63c-.08 1.2-.18 2.51-.37 4a112.42 112.42 0 0 0-1.17 15.67 49.49 49.49 0 0 1-1.39 14c-1.07 4.26-3.62 8.63-4.26 11.51-.05.24-.13.51-.22.79-1.02-.67-1.52-1.33-1.28-2.02z" class="a1-cls-5"/><path d="M45.41 126.64c1.72 1.78 2.82 14.72 2 18.16s-4.07 6.26-6.58 6.11-7-3-9.71-3-8.41 2.69-10.12 2.53-8-.94-8.77-4.54-1.88-16.44.63-19.1 28.01-4.86 32.55-.16z" class="a1-cls-6"/><path d="M44.76 146c.64-3.84-.21-17.89-1.58-20.71a6.08 6.08 0 0 1 2.23 1.31c1.72 1.78 2.82 14.72 2 18.16a8.64 8.64 0 0 1-4.41 5.66 11.33 11.33 0 0 0 1.76-4.42zM12.85 126.8a5.57 5.57 0 0 1 2.22-1c-1.77 3.91-.9 17.59-.26 21.56a4.78 4.78 0 0 0 .73 1.88c-1.59-.68-3-1.71-3.32-3.28-.78-3.66-1.88-16.5.63-19.16zM31.17 147.94a18.3 18.3 0 0 0-4.65 1.06c2-1 4.2-2.21 5.54-2.21 1.5 0 2.74 1.62 4 2.59a15.31 15.31 0 0 0-4.89-1.44z" class="a1-cls-7"/><path d="M24.39 131c.11 4.16.53 12.15.75 14.07a35.64 35.64 0 0 0 .53 4.19 17.77 17.77 0 0 1-4.67 1.18h-.25l-.19-.87c-.53-2.45-.64-9.27-.64-13.86 0-4 0-9 .49-11 1.42-.2 3-.37 4.55-.5a24.24 24.24 0 0 0-.57 6.79z" class="a1-cls-8"/></g><g id="a1_maryland_bridge_abutment_distal" data-name="maryland bridge abutment distal"><path d="M2 135.34h34.98v7.67H2z" class="a1-cls-15 a1-cls-20" data-color-action="fill" style="fill:inherit"/><path d="M12.85 126.8a3.14 3.14 0 0 1 1-.6c1.9-5 5.28-13.06 5.28-23.2s2.51-17.85 3.44-21.45 2.66-2.19 3.76 0 3.91 11.27 10 22.23c2.7 4.85 7.47 14.2 8.81 22.63.09.08.19.15.27.24 1.72 1.78 2.82 14.72 2 18.16s-4.07 6.26-6.58 6.11-7-3-9.71-3-8.41 2.68-10.12 2.52-8-.94-8.77-4.54-1.89-16.44.62-19.1z" class="a1-cls-2"/><path d="M45.41 128.52c-.78-8.93-6.15-19.48-9.08-24.74-6.11-11-8.93-20-10-22.23s-2.82-3.6-3.76 0S19.11 93 19.11 103c0 11.12-4.07 19.73-5.79 24.58s32.78 8.75 32.09.94z" class="a1-cls-3"/><path d="M24.28 82.19c.38 1-.53 5.54-.43 10.87s1.49 12.15 1.39 16.84.43 6.93-.11 10.23a34.89 34.89 0 0 0-.75 5.44c0 1.39-5.12 3.2-4.8 1s1.17-5.33 2-9.81.43-11.4.43-17.27 1.99-18.15 2.27-17.3z" class="a1-cls-4"/><path d="M42.4 125.89c-.32-3.94-2.13-8-3.94-13.22s-5.76-11.3-8.21-18.23a28.3 28.3 0 0 1-1.61-7.07 136.64 136.64 0 0 0 7.69 16.4c2.93 5.26 8.3 15.81 9.08 24.74a2.4 2.4 0 0 1 0 .55 3.54 3.54 0 0 1-3.01-3.17zM13.31 127.58c1.72-4.85 5.79-13.46 5.79-24.58A72 72 0 0 1 22 83.63c-.08 1.2-.18 2.51-.37 4a112.42 112.42 0 0 0-1.17 15.67 49.49 49.49 0 0 1-1.39 14c-1.07 4.26-3.62 8.63-4.26 11.51-.05.24-.13.51-.22.79-1.02-.67-1.52-1.33-1.28-2.02z" class="a1-cls-5"/><path d="M45.41 126.64c1.72 1.78 2.82 14.72 2 18.16s-4.07 6.26-6.58 6.11-7-3-9.71-3-8.41 2.69-10.12 2.53-8-.94-8.77-4.54-1.88-16.44.63-19.1 28.01-4.86 32.55-.16z" class="a1-cls-6"/><path d="M44.76 146c.64-3.84-.21-17.89-1.58-20.71a6.08 6.08 0 0 1 2.23 1.31c1.72 1.78 2.82 14.72 2 18.16a8.64 8.64 0 0 1-4.41 5.66 11.33 11.33 0 0 0 1.76-4.42zM12.85 126.8a5.57 5.57 0 0 1 2.22-1c-1.77 3.91-.9 17.59-.26 21.56a4.78 4.78 0 0 0 .73 1.88c-1.59-.68-3-1.71-3.32-3.28-.78-3.66-1.88-16.5.63-19.16zM31.17 147.94a18.3 18.3 0 0 0-4.65 1.06c2-1 4.2-2.21 5.54-2.21 1.5 0 2.74 1.62 4 2.59a15.31 15.31 0 0 0-4.89-1.44z" class="a1-cls-7"/><path d="M24.39 131c.11 4.16.53 12.15.75 14.07a35.64 35.64 0 0 0 .53 4.19 17.77 17.77 0 0 1-4.67 1.18h-.25l-.19-.87c-.53-2.45-.64-9.27-.64-13.86 0-4 0-9 .49-11 1.42-.2 3-.37 4.55-.5a24.24 24.24 0 0 0-.57 6.79z" class="a1-cls-8"/></g><g id="a1_maryland_bridge_abutment" data-name="maryland bridge abutment"><path d="M2 135.34h55v7.67H2z" class="a1-cls-15 a1-cls-20" data-color-action="fill" style="fill:inherit"/><path d="M12.85 126.8a3.14 3.14 0 0 1 1-.6c1.9-5 5.28-13.06 5.28-23.2s2.51-17.85 3.44-21.45 2.66-2.19 3.76 0 3.91 11.27 10 22.23c2.7 4.85 7.47 14.2 8.81 22.63.09.08.19.15.27.24 1.72 1.78 2.82 14.72 2 18.16s-4.07 6.26-6.58 6.11-7-3-9.71-3-8.41 2.68-10.12 2.52-8-.94-8.77-4.54-1.89-16.44.62-19.1z" class="a1-cls-2"/><path d="M45.41 128.52c-.78-8.93-6.15-19.48-9.08-24.74-6.11-11-8.93-20-10-22.23s-2.82-3.6-3.76 0S19.11 93 19.11 103c0 11.12-4.07 19.73-5.79 24.58s32.78 8.75 32.09.94z" class="a1-cls-3"/><path d="M24.28 82.19c.38 1-.53 5.54-.43 10.87s1.49 12.15 1.39 16.84.43 6.93-.11 10.23a34.89 34.89 0 0 0-.75 5.44c0 1.39-5.12 3.2-4.8 1s1.17-5.33 2-9.81.43-11.4.43-17.27 1.99-18.15 2.27-17.3z" class="a1-cls-4"/><path d="M42.4 125.89c-.32-3.94-2.13-8-3.94-13.22s-5.76-11.3-8.21-18.23a28.3 28.3 0 0 1-1.61-7.07 136.64 136.64 0 0 0 7.69 16.4c2.93 5.26 8.3 15.81 9.08 24.74a2.4 2.4 0 0 1 0 .55 3.54 3.54 0 0 1-3.01-3.17zM13.31 127.58c1.72-4.85 5.79-13.46 5.79-24.58A72 72 0 0 1 22 83.63c-.08 1.2-.18 2.51-.37 4a112.42 112.42 0 0 0-1.17 15.67 49.49 49.49 0 0 1-1.39 14c-1.07 4.26-3.62 8.63-4.26 11.51-.05.24-.13.51-.22.79-1.02-.67-1.52-1.33-1.28-2.02z" class="a1-cls-5"/><path d="M45.41 126.64c1.72 1.78 2.82 14.72 2 18.16s-4.07 6.26-6.58 6.11-7-3-9.71-3-8.41 2.69-10.12 2.53-8-.94-8.77-4.54-1.88-16.44.63-19.1 28.01-4.86 32.55-.16z" class="a1-cls-6"/><path d="M44.76 146c.64-3.84-.21-17.89-1.58-20.71a6.08 6.08 0 0 1 2.23 1.31c1.72 1.78 2.82 14.72 2 18.16a8.64 8.64 0 0 1-4.41 5.66 11.33 11.33 0 0 0 1.76-4.42zM12.85 126.8a5.57 5.57 0 0 1 2.22-1c-1.77 3.91-.9 17.59-.26 21.56a4.78 4.78 0 0 0 .73 1.88c-1.59-.68-3-1.71-3.32-3.28-.78-3.66-1.88-16.5.63-19.16zM31.17 147.94a18.3 18.3 0 0 0-4.65 1.06c2-1 4.2-2.21 5.54-2.21 1.5 0 2.74 1.62 4 2.59a15.31 15.31 0 0 0-4.89-1.44z" class="a1-cls-7"/><path d="M24.39 131c.11 4.16.53 12.15.75 14.07a35.64 35.64 0 0 0 .53 4.19 17.77 17.77 0 0 1-4.67 1.18h-.25l-.19-.87c-.53-2.45-.64-9.27-.64-13.86 0-4 0-9 .49-11 1.42-.2 3-.37 4.55-.5a24.24 24.24 0 0 0-.57 6.79z" class="a1-cls-8"/></g><g id="a1_bridge_abutment_mesial" class="a1-cls-15" data-name="bridge abutment mesial"><path d="M22.02 135.34H57v7.67H22.02z" class="a1-cls-18" data-color-action="fill" style="fill:inherit"/><path d="M45.41 126.64c1.72 1.78 2.82 14.72 2 18.16s-4.07 6.26-6.58 6.11-7-3-9.71-3-8.41 2.69-10.12 2.53-8-.94-8.77-4.54-1.88-16.44.63-19.1 28.01-4.86 32.55-.16z" class="a1-cls-18" data-color-action="fill" style="fill:inherit"/></g><g id="a1_bridge_abutment_distal" class="a1-cls-15" data-name="bridge abutment distal"><path d="M2 135.34h34.98v7.67H2z" class="a1-cls-18" data-color-action="fill" style="fill:inherit"/><path d="M45.41 126.64c1.72 1.78 2.82 14.72 2 18.16s-4.07 6.26-6.58 6.11-7-3-9.71-3-8.41 2.69-10.12 2.53-8-.94-8.77-4.54-1.88-16.44.63-19.1 28.01-4.86 32.55-.16z" class="a1-cls-18" data-color-action="fill" style="fill:inherit"/></g><g id="a1_bridge_abutment" class="a1-cls-15" data-name="bridge abutment"><path d="M2 135.34h55v7.67H2z" class="a1-cls-18" data-color-action="fill" style="fill:inherit"/><path d="M45.41 126.64c1.72 1.78 2.82 14.72 2 18.16s-4.07 6.26-6.58 6.11-7-3-9.71-3-8.41 2.69-10.12 2.53-8-.94-8.77-4.54-1.88-16.44.63-19.1 28.01-4.86 32.55-.16z" class="a1-cls-18" data-color-action="fill" style="fill:inherit"/></g><g id="a1_bridge_pontic" data-name="bridge pontic"><path d="M12.85 126.8a3.14 3.14 0 0 1 1-.6c1.9-5 5.28-13.06 5.28-23.2s2.51-17.85 3.44-21.45 2.66-2.19 3.76 0 3.91 11.27 10 22.23c2.7 4.85 7.47 14.2 8.81 22.63.09.08.19.15.27.24 1.72 1.78 2.82 14.72 2 18.16s-4.07 6.26-6.58 6.11-7-3-9.71-3-8.41 2.68-10.12 2.52-8-.94-8.77-4.54-1.89-16.44.62-19.1z" class="a1-cls-2"/><path d="M45.41 128.52c-.78-8.93-6.15-19.48-9.08-24.74-6.11-11-8.93-20-10-22.23s-2.82-3.6-3.76 0S19.11 93 19.11 103c0 11.12-4.07 19.73-5.79 24.58s32.78 8.75 32.09.94z" class="a1-cls-22"/><path d="M24.28 82.19c.38 1-.53 5.54-.43 10.87s1.49 12.15 1.39 16.84.43 6.93-.11 10.23a34.89 34.89 0 0 0-.75 5.44c0 1.39-5.12 3.2-4.8 1s1.17-5.33 2-9.81.43-11.4.43-17.27 1.99-18.15 2.27-17.3zM42.4 125.89c-.32-3.94-2.13-8-3.94-13.22s-5.76-11.3-8.21-18.23a28.3 28.3 0 0 1-1.61-7.07 136.64 136.64 0 0 0 7.69 16.4c2.93 5.26 8.3 15.81 9.08 24.74a2.4 2.4 0 0 1 0 .55 3.54 3.54 0 0 1-3.01-3.17zM13.31 127.58c1.72-4.85 5.79-13.46 5.79-24.58A72 72 0 0 1 22 83.63c-.08 1.2-.18 2.51-.37 4a112.42 112.42 0 0 0-1.17 15.67 49.49 49.49 0 0 1-1.39 14c-1.07 4.26-3.62 8.63-4.26 11.51-.05.24-.13.51-.22.79-1.02-.67-1.52-1.33-1.28-2.02z" class="a1-cls-22"/><path d="M45.41 126.64c1.72 1.78 2.82 14.72 2 18.16s-4.07 6.26-6.58 6.11-7-3-9.71-3-8.41 2.69-10.12 2.53-8-.94-8.77-4.54-1.88-16.44.63-19.1 28.01-4.86 32.55-.16z" class="a1-cls-6"/><path d="M44.76 146c.64-3.84-.21-17.89-1.58-20.71a6.08 6.08 0 0 1 2.23 1.31c1.72 1.78 2.82 14.72 2 18.16a8.64 8.64 0 0 1-4.41 5.66 11.33 11.33 0 0 0 1.76-4.42zM12.85 126.8a5.57 5.57 0 0 1 2.22-1c-1.77 3.91-.9 17.59-.26 21.56a4.78 4.78 0 0 0 .73 1.88c-1.59-.68-3-1.71-3.32-3.28-.78-3.66-1.88-16.5.63-19.16zM31.17 147.94a18.3 18.3 0 0 0-4.65 1.06c2-1 4.2-2.21 5.54-2.21 1.5 0 2.74 1.62 4 2.59a15.31 15.31 0 0 0-4.89-1.44z" class="a1-cls-7"/><path d="M24.39 131c.11 4.16.53 12.15.75 14.07a35.64 35.64 0 0 0 .53 4.19 17.77 17.77 0 0 1-4.67 1.18h-.25l-.19-.87c-.53-2.45-.64-9.27-.64-13.86 0-4 0-9 .49-11 1.42-.2 3-.37 4.55-.5a24.24 24.24 0 0 0-.57 6.79z" class="a1-cls-8"/><g class="a1-cls-15"><path d="M2 135.34h55v7.67H2z" class="a1-cls-18" data-color-action="fill" style="fill:inherit"/><path d="M45.41 126.64c1.72 1.78 2.82 14.72 2 18.16s-4.07 6.26-6.58 6.11-7-3-9.71-3-8.41 2.69-10.12 2.53-8-.94-8.77-4.54-1.88-16.44.63-19.1 28.01-4.86 32.55-.16z" class="a1-cls-18" data-color-action="fill" style="fill:inherit"/></g></g><g id="a1_implant_mini" data-name="implant mini"><path d="M2.39 22.04h55v137.17h-55z" class="a1-cls-22"/><path d="M29.72 83.07h-.44l-1 8.49v40.84h2.44V91.56l-1-8.49z" class="a1-cls-18" data-color-action="fill" style="fill:inherit"/><path d="M29.42 83.07h-.07l-.4 8.49v40.84h.37V91.56l.1-8.49z" class="a1-cls-24"/><path d="M28.28 131.77h2.44v.63h-2.44z" class="a1-cls-27" data-color-action="fill" style="fill:inherit"/><g class="a1-cls-28"><path d="M28.28 131.77l2.44-1v.63l-2.44 1v-.63zM28.28 130.32l2.44-1v.63l-2.44 1v-.63zM28.28 128.88l2.44-1v.63l-2.44 1v-.63zM28.28 127.43l2.44-1v.63l-2.44 1v-.63zM28.28 125.98l2.44-1v.64l-2.44 1v-.64zM28.28 124.54l2.44-1v.63l-2.44 1v-.63zM28.28 123.09l2.44-1v.64l-2.44 1v-.64zM28.28 121.65l2.44-1v.63l-2.44 1v-.63zM28.28 120.2l2.44-1v.63l-2.44 1.01v-.64zM28.28 118.76l2.44-1v.63l-2.44 1v-.63zM28.28 117.31l2.44-1v.63l-2.44 1v-.63zM28.28 115.87l2.44-1v.63l-2.44 1v-.63zM28.28 114.42l2.44-1v.63l-2.44 1v-.63zM28.28 112.98l2.44-1v.63l-2.44 1v-.63zM28.28 111.53l2.44-1v.63l-2.44 1v-.63zM28.28 110.08l2.44-1v.64l-2.44 1v-.64zM28.28 108.64l2.44-1v.63l-2.44 1v-.63zM28.28 107.19l2.44-1v.64l-2.44 1v-.64zM28.28 105.75l2.44-1v.63l-2.44 1v-.63zM28.28 104.3l2.44-1v.64l-2.44 1v-.64zM28.28 102.86l2.44-1v.63l-2.44 1v-.63zM28.28 101.41l2.44-1v.63l-2.44 1.01v-.64zM28.28 99.97l2.44-1v.63l-2.44 1v-.63zM28.28 98.52l2.44-1v.63l-2.44 1v-.63zM28.28 97.08l2.44-1v.63l-2.44 1v-.63zM28.28 95.63l2.44-1v.63l-2.44 1v-.63zM28.28 94.19l2.44-1v.63l-2.44 1v-.63zM28.28 92.74l2.44-1v.63l-2.44 1v-.63zM28.28 91.56l.03-.28 2.27-.93.07.61-2.37.97v-.37zM28.49 89.76l1.93-.79.07.61-2.08.85.08-.67zM28.67 88.24l1.58-.65.08.61-1.74.71.08-.67zM28.85 86.72l1.24-.5.07.6-1.39.57.08-.67zM29.03 85.21l.9-.37.07.6-1.05.43.08-.66zM29.2 83.69l.57-.23.07.6-.71.29.07-.66z" class="a1-cls-27" data-color-action="fill" style="fill:inherit"/></g><circle cx="29.5" cy="136.27" r="2.24" class="a1-cls-18" data-color-action="fill" style="fill:inherit"/><path d="M27.67 132.06h3.67v3h-3.67z" class="a1-cls-18" data-color-action="fill" style="fill:inherit"/><path d="M28.49 132.06h.55v3h-.55z" class="a1-cls-24"/><path d="M28.7 137.63h-.21a2.32 2.32 0 0 1-.52-1.29 2.37 2.37 0 0 1 .52-1.3H29a2 2 0 0 0-.73 1.37 1.5 1.5 0 0 0 .43 1.22z" class="a1-cls-24"/><path d="M28.28 125.7h2.44v.63h-2.44z" class="a1-cls-27" data-color-action="fill" style="fill:inherit"/><path d="M32.11 132.08h-5.22l.87-5.71h3.48l.87 5.71z" class="a1-cls-18" data-color-action="fill" style="fill:inherit"/><path d="M28.85 132.08h-.79l.48-5.71h.53l-.22 5.71z" class="a1-cls-24"/></g><g id="a1_implant_cylinder" data-name="implant cylinder"><path d="M2 22h55v137.17H2z" class="a1-cls-22"/><path d="M26.17 86.01h6.67v49.33h-6.67zM24.5 135.35h10v3h-10z" class="a1-cls-18" data-color-action="fill" style="fill:inherit"/><path d="M28 86.01h1v49.33h-1zM26.75 135.35h1.5v3h-1.5z" class="a1-cls-24"/><path d="M24.5 82.99h10v3h-10z" class="a1-cls-18" data-color-action="fill" style="fill:inherit"/><path d="M26.75 82.99h1.5v3h-1.5z" class="a1-cls-24"/><path d="M26.17 134.71h6.67v.63h-6.67zM26.17 86.01h6.67v.63h-6.67z" class="a1-cls-27" data-color-action="fill" style="fill:inherit"/><g class="a1-cls-28"><path d="M32.83 87.65l-6.66-1.01v-.63l6.66 1v.64zM32.83 89.09l-6.66-1v-.63l6.66 1v.63zM32.83 90.54l-6.66-1v-.64l6.66 1.01v.63zM32.83 91.98l-6.66-1v-.63l6.66 1v.63zM32.83 93.43l-6.66-1v-.63l6.66 1v.63zM32.83 94.87l-6.66-1v-.63l6.66 1v.63zM32.83 96.32l-6.66-1v-.63l6.66 1v.63zM32.83 97.76l-6.66-1v-.63l6.66 1v.63zM32.83 99.21l-6.66-1v-.63l6.66 1v.63zM32.83 100.66l-6.66-1.01v-.63l6.66 1v.64zM32.83 102.1l-6.66-1v-.63l6.66 1v.63zM32.83 103.55l-6.66-1v-.64l6.66 1v.64zM32.83 104.99l-6.66-1v-.63l6.66 1v.63zM32.83 106.44l-6.66-1v-.64l6.66 1.01v.63zM32.83 107.88l-6.66-1v-.63l6.66 1v.63zM32.83 109.33l-6.66-1v-.64l6.66 1v.64zM32.83 110.77l-6.66-1v-.63l6.66 1v.63zM32.83 112.22l-6.66-1v-.63l6.66 1v.63zM32.83 113.66l-6.66-1v-.63l6.66 1v.63zM32.83 115.11l-6.66-1v-.63l6.66 1v.63zM32.83 116.56l-6.66-1.01v-.63l6.66 1v.64zM32.83 118l-6.66-1v-.63l6.66 1v.63zM32.83 119.45l-6.66-1.01v-.63l6.66 1v.64zM32.83 120.89l-6.66-1v-.63l6.66 1v.63zM32.83 122.34l-6.66-1v-.64l6.66 1v.64zM32.83 123.78l-6.66-1v-.63l6.66 1v.63zM32.83 125.23l-6.66-1v-.64l6.66 1v.64zM32.83 126.67l-6.66-1v-.63l6.66 1v.63zM32.83 128.12l-6.66-1v-.63l6.66 1v.63zM32.83 129.56l-6.66-1v-.63l6.66 1v.63zM32.83 131.01l-6.66-1v-.63l6.66 1v.63zM32.83 132.46l-6.66-1.01v-.63l6.66 1v.64zM32.83 133.9l-6.66-1v-.63l6.66 1v.63zM32.83 135.35l-6.66-1.01v-.63l6.66 1v.64z" class="a1-cls-27" data-color-action="fill" style="fill:inherit"/></g></g><g id="a1_implant_blade" data-name="implant blade"><path d="M2 22h55v137.17H2z" class="a1-cls-22"/><path d="M26.17 86.01h6.67v49.33h-6.67zM24.5 135.35h10v3h-10z" class="a1-cls-18" data-color-action="fill" style="fill:inherit"/><path d="M28 86.01h1v49.33h-1zM26.75 135.35h1.5v3h-1.5z" class="a1-cls-24"/><path d="M26.17 134.71h6.67v.63h-6.67z" class="a1-cls-27" data-color-action="fill" style="fill:inherit"/></g><path id="a1_watch_tooth" d="M8.27 27.73a3.26 3.26 0 0 1 3.22-3.26 3.24 3.24 0 1 1 0 6.47 3.25 3.25 0 0 1-3.22-3.21zm1-5.91L8.39 3.73h6.15l-.8 18.09z" class="a1-cls-11" data-color-action="fill" style="fill:inherit" data-name="watch tooth"/><path id="a1_border" d="M0 0h59v161H0z" class="a1-cls-14" transform="rotate(-180 29.5 80.5)"/></defs></g><g class="b1-cls-1" transform="translate(0 161)"><g id="_1B" data-name="#1B"><path d="M46.67 18c1.18 1.71 1.53 7.87 1.17 9a8.31 8.31 0 0 0-.47 3.76c.23 1.17 1.06 5 .35 7.28a7.12 7.12 0 0 1-6.11 5.17c-3.52.35-11.39.7-13 .59s-10.33-1.17-12.8-1.06-4.46-3.52-4.7-6.46 0-6.58 0-8.57.57-7.71 1.16-8.71a26.8 26.8 0 0 1 6.93-5.4c2-.82 15.15-1.94 17.61-1.17 3.76 1.19 8.57 3.65 9.86 5.57z" class="b1-cls-2"/><path d="M46.67 18c1.18 1.71 1.53 7.87 1.17 9a8.31 8.31 0 0 0-.47 3.76c.23 1.17 1.06 5 .35 7.28a7.12 7.12 0 0 1-6.11 5.17c-3.52.35-11.39.7-13 .59s-10.33-1.17-12.8-1.06-4.46-3.52-4.7-6.46 0-6.58 0-8.57.57-7.71 1.16-8.71a26.8 26.8 0 0 1 6.93-5.4c2-.82 15.15-1.94 17.61-1.17 3.76 1.19 8.57 3.65 9.86 5.57z" class="b1-cls-3"/><path d="M28.94 28.41c1.49.69 10 .23 9.39.82s-8.69.35-9.39.94 0 6.93-1.06 6.93-.82-6-1.29-6.46-7.4-.12-7.63-.59 5.4-.94 6.22-1.41 1.06-3.76 1.41-5.28 1.06-4.23 1.76-3.88-.82 3.88-.82 5-.11 3.23 1.41 3.93z" class="b1-cls-4"/><path d="M12.15 28.06c.82.59.47 2 0 2.82s.12 2.58.23 3.64a9.32 9.32 0 0 0 2.11 4.7c1.17 1.06 3.64 1.29 5.75 1.76s6.69.23 7.16-.23 1.76-.23 2.58.12 8.34.12 10.92-.35 5-1.88 5.64-2.94.12-5-.23-6.46-.7-2.11.23-3.05A12.26 12.26 0 0 0 48 26.13a4.29 4.29 0 0 1-.11.88 8.31 8.31 0 0 0-.47 3.76c.23 1.17 1.06 5 .35 7.28a7.12 7.12 0 0 1-6.11 5.17c-3.52.35-11.39.7-13 .59s-10.33-1.17-12.8-1.06-4.46-3.52-4.7-6.46 0-6.58 0-8.57v-.62a8.29 8.29 0 0 0 .99.96z" class="b1-cls-4"/><path d="M19.2 13.62c2-.82 15.15-1.94 17.61-1.17a33.93 33.93 0 0 1 6.55 2.89c1.52.89-1.64-.87-3.58-.87a47.79 47.79 0 0 0-8.72.74c-1.06.35-2.35.7-3.05.12s-5.87-1.41-8.45-1.17c-1.71.16-4.23 2-2.82 1a13.92 13.92 0 0 1 2.46-1.54z" class="b1-cls-5"/></g><defs><g id="b1_splinted_crowns" data-name="splinted crowns"><path d="M28 1.25h3v3h-3z" class="b1-cls-7"/><path d="M28 1.25h3v3h-3z" class="b1-cls-7"/><path d="M28 1.25h3v3h-3z" class="b1-cls-7"/></g><path id="b1_cusp_4" d="M29.74 34.94l4 8.76c2.78-.12 6-.31 7.88-.5a6.8 6.8 0 0 0 5.21-3.2l-14.32-6.15a5.8 5.8 0 0 1-2.77 1.09z" class="b1-cls-6" data-color-action="fill" style="fill:inherit" data-name="cusp 4"/><path id="b1_groove_2" d="M29 35a5.86 5.86 0 0 1-1.77-.27l-3.91 8.55c2.36.24 4.49.48 5.22.53s2.81 0 5.15-.09l-4-8.76A5.91 5.91 0 0 1 29 35z" class="b1-cls-6" data-color-action="fill" style="fill:inherit" data-name="groove 2"/><path id="b1_cusp_3" d="M25 33.38l-13.51 5c.75 2.33 2.37 4.47 4.27 4.38a74.43 74.43 0 0 1 7.58.53l3.91-8.55A5.79 5.79 0 0 1 25 33.38z" class="b1-cls-6" data-color-action="fill" style="fill:inherit" data-name="cusp 3"/><path id="b1_mesial" d="M47.82 37.69c.53-2.27-.22-5.81-.44-6.93a8.31 8.31 0 0 1 .47-3.76 16.2 16.2 0 0 0 0-4.27 15.22 15.22 0 0 0-2.25 6.89 15.81 15.81 0 0 0 2.22 8.07z" class="b1-cls-6" data-color-action="fill" style="fill:inherit"/><path id="b1_mesial_pit" d="M32.89 25.09a5.59 5.59 0 0 1-.39 8.76L46.83 40a8.31 8.31 0 0 0 .9-1.92c0-.11.06-.23.09-.35a15.81 15.81 0 0 1-2.24-8.06 15.22 15.22 0 0 1 2.25-6.89 19.77 19.77 0 0 0-.62-3.5z" class="b1-cls-6" data-color-action="fill" style="fill:inherit" data-name="mesial pit"/><ellipse id="b1_central_pit" cx="29.05" cy="29.31" class="b1-cls-6" rx="5.78" ry="5.67" data-color-action="fill" style="fill:inherit" data-name="central pit"/><path id="b1_distal_pit" d="M23.27 29.31a5.62 5.62 0 0 1 2.15-4.42l-13.25-5.67a9.8 9.8 0 0 0-.42 1.78 14.93 14.93 0 0 1 2.05 7.45 13.63 13.63 0 0 1-2.68 8 9.38 9.38 0 0 0 .4 1.87l13.51-5a5.6 5.6 0 0 1-1.76-4.01z" class="b1-cls-6" data-color-action="fill" style="fill:inherit" data-name="distal pit"/><path id="b1_distal" d="M11.75 21a51.2 51.2 0 0 0-.65 6.72c0 2-.23 5.64 0 8.57v.2a13.63 13.63 0 0 0 2.68-8A14.93 14.93 0 0 0 11.75 21z" class="b1-cls-6" data-color-action="fill" style="fill:inherit"/><path id="b1_cusp_2" d="M32.89 25.09l14.33-5.85a4.71 4.71 0 0 0-.55-1.24c-1.29-1.88-6.11-4.34-9.86-5.52a7 7 0 0 0-1.48-.21L30.41 23.8a5.79 5.79 0 0 1 2.48 1.29z" class="b1-cls-6" data-color-action="fill" style="fill:inherit" data-name="cusp 2"/><path id="b1_groove_1" d="M29 23.64a5.87 5.87 0 0 1 1.36.16l4.92-11.57a83.92 83.92 0 0 0-12.77.77l5.36 10.79a5.9 5.9 0 0 1 1.13-.15z" class="b1-cls-6" data-color-action="fill" style="fill:inherit" data-name="groove 1"/><path id="b1_cusp_1" d="M27.87 23.76L22.51 13a17.69 17.69 0 0 0-3.32.65A26.79 26.79 0 0 0 12.27 19a1.39 1.39 0 0 0-.1.2l13.26 5.7a5.8 5.8 0 0 1 2.44-1.14z" class="b1-cls-6" data-color-action="fill" style="fill:inherit" data-name="cusp 1"/><g id="b1_veneer"><path d="M28 1.25h3v3h-3z" class="b1-cls-7"/><path d="M28 1.25h3v3h-3z" class="b1-cls-7"/><path d="M28 1.25h3v3h-3z" class="b1-cls-7"/></g><g id="b1_tissue_graft" data-name="tissue graft"><path d="M28 1.25h3v3h-3z" class="b1-cls-7"/><path d="M28 1.25h3v3h-3z" class="b1-cls-7"/><path d="M28 1.25h3v3h-3z" class="b1-cls-7"/></g><path id="b1_surface_restoration_lingual" d="M41.23 39.23c-3 .3-9.21.59-11.67.59h-.68c-.43 0-1.37-.13-2.56-.26-3-.32-5.87-.61-8-.74l-3.36 3.82a2.51 2.51 0 0 0 .86.11c2.47-.12 11.16.94 12.8 1.06s9.51-.23 13-.59A6.7 6.7 0 0 0 46 41l-2.59-3.15a2.89 2.89 0 0 1-2.18 1.38z" class="b1-cls-8" data-color-action="fill" style="fill:inherit" data-name="surface restoration lingual"/><path id="b1_surface_restoration_mesial" d="M47.38 30.76a8.31 8.31 0 0 1 .47-3.76c.35-1.17 0-7.33-1.17-9a4.22 4.22 0 0 0-.4-.48l-3 2.61.08.08A20.64 20.64 0 0 1 44 26a11.51 11.51 0 0 0-.5 5.5v.14c.74 3.7.52 4.88.43 5.15a4.31 4.31 0 0 1-.46 1L46 41a8.07 8.07 0 0 0 1.73-3c.71-2.19-.12-6.07-.35-7.24z" class="b1-cls-8" data-color-action="fill" style="fill:inherit" data-name="surface restoration mesial"/><path id="b1_surface_restoration_occlusal" d="M43.46 31.54A11.51 11.51 0 0 1 44 26a20.64 20.64 0 0 0-.63-5.87c-.83-.88-4.24-2.82-7.63-3.89a14.43 14.43 0 0 0-2.12-.1A78.22 78.22 0 0 0 20.7 17.3a27.91 27.91 0 0 0-4.9 3.7 46.51 46.51 0 0 0-.71 6.66v2.25a60 60 0 0 0 0 6 5.49 5.49 0 0 0 1.06 2.77h.08c2.11 0 6 .39 10.09.82 1.19.13 2.13.23 2.56.26h.68c2.46 0 8.68-.29 11.67-.59a3.17 3.17 0 0 0 2.69-2.39c.09-.27.31-1.45-.43-5.15z" class="b1-cls-8" data-color-action="fill" style="fill:inherit" data-name="surface restoration occlusal"/><path id="b1_surface_restoration_distal" d="M16.23 38.73h-.08A5.49 5.49 0 0 1 15.08 36a60 60 0 0 1 0-6v-2.25A46.51 46.51 0 0 1 15.8 21c.46-.46 1.25-1.13 2.08-1.79l-2.58-3.06a18.81 18.81 0 0 0-3 2.83c-.59.94-1.17 6.69-1.17 8.69s-.23 5.64 0 8.57c.21 2.59 1.78 5.71 3.84 6.34l3.36-3.82c-.83 0-1.53-.03-2.1-.03z" class="b1-cls-8" data-color-action="fill" style="fill:inherit" data-name="surface restoration distal"/><path id="b1_surface_restoration_buccal" d="M20.66 17.34a78.22 78.22 0 0 1 12.92-1.16 14.43 14.43 0 0 1 2.12.1 24.48 24.48 0 0 1 7.55 3.81l3-2.61c-1.69-1.8-6-4-9.47-5-2.46-.77-15.62.35-17.61 1.17a20 20 0 0 0-3.89 2.58l2.58 3.06a18.09 18.09 0 0 1 2.8-1.95z" class="b1-cls-8" data-color-action="fill" style="fill:inherit" data-name="surface restoration buccal"/><g id="b1_supra-erupted"><path d="M28 1.25h3v3h-3z" class="b1-cls-7"/><path d="M28 1.25h3v3h-3z" class="b1-cls-7"/><path d="M28 1.25h3v3h-3z" class="b1-cls-7"/></g><g id="b1_sub-erupted"><path d="M28 1.25h3v3h-3z" class="b1-cls-7"/><path d="M28 1.25h3v3h-3z" class="b1-cls-7"/><path d="M28 1.25h3v3h-3z" class="b1-cls-7"/></g><text id="b1_sealant" class="b1-cls-9" transform="translate(19.7 39.47)" data-color-action="fill" style="fill:inherit">S</text><g id="b1_root_decay" data-name="root decay"><path d="M28 1.25h3v3h-3z" class="b1-cls-7"/><path d="M28 1.25h3v3h-3z" class="b1-cls-7"/><path d="M28 1.25h3v3h-3z" class="b1-cls-7"/></g><g id="b1_root_canal" data-name="root canal"><path d="M28 1.25h3v3h-3z" class="b1-cls-7"/><path d="M28 1.25h3v3h-3z" class="b1-cls-7"/><path d="M28 1.25h3v3h-3z" class="b1-cls-7"/></g><g id="b1_root_abrasion" data-name="root abrasion"><path d="M28 1.25h3v3h-3z" class="b1-cls-7"/><path d="M28 1.25h3v3h-3z" class="b1-cls-7"/><path d="M28 1.25h3v3h-3z" class="b1-cls-7"/></g><g id="b1_post"><path d="M28 1.25h3v3h-3z" class="b1-cls-7"/><path d="M28 1.25h3v3h-3z" class="b1-cls-7"/><path d="M28 1.25h3v3h-3z" class="b1-cls-7"/></g><g id="b1_pins"><path d="M28 1.25h3v3h-3z" class="b1-cls-7"/><path d="M28 1.25h3v3h-3z" class="b1-cls-7"/><path d="M28 1.25h3v3h-3z" class="b1-cls-7"/></g><g id="b1_open_contact_mesial" data-name="open contact mesial"><path d="M28 1.25h3v3h-3z" class="b1-cls-7"/><path d="M28 1.25h3v3h-3z" class="b1-cls-7"/><path d="M28 1.25h3v3h-3z" class="b1-cls-7"/></g><g id="b1_open_contact_distal" data-name="open contact distal"><path d="M28 1.25h3v3h-3z" class="b1-cls-7"/><path d="M28 1.25h3v3h-3z" class="b1-cls-7"/><path d="M28 1.25h3v3h-3z" class="b1-cls-7"/></g><g id="b1_lingual_abfraction" data-name="lingual abfraction"><path d="M28 1.25h3v3h-3z" class="b1-cls-7"/><path d="M28 1.25h3v3h-3z" class="b1-cls-7"/><path d="M28 1.25h3v3h-3z" class="b1-cls-7"/></g><g id="b1_internal_root_resorption" data-name="internal root resorption"><path d="M28 1.25h3v3h-3z" class="b1-cls-7"/><path d="M28 1.25h3v3h-3z" class="b1-cls-7"/><path d="M28 1.25h3v3h-3z" class="b1-cls-7"/></g><g id="b1_gortex_membranes" data-name="gortex membranes"><path d="M28 1.25h3v3h-3z" class="b1-cls-7"/><path d="M28 1.25h3v3h-3z" class="b1-cls-7"/><path d="M28 1.25h3v3h-3z" class="b1-cls-7"/></g><g id="b1_frenum_pull" data-name="frenum pull"><path d="M28 1.25h3v3h-3z" class="b1-cls-7"/><path d="M28 1.25h3v3h-3z" class="b1-cls-7"/><path d="M28 1.25h3v3h-3z" class="b1-cls-7"/></g><g id="b1_external_root_resorption" data-name="external root resorption"><path d="M28 1.25h3v3h-3z" class="b1-cls-7"/><path d="M28 1.25h3v3h-3z" class="b1-cls-7"/><path d="M28 1.25h3v3h-3z" class="b1-cls-7"/></g><path id="b1_three_quarter_crown" d="M46.67 18c1.18 1.71 1.53 7.87 1.17 9a8.31 8.31 0 0 0-.47 3.76c.23 1.17 1.06 5 .35 7.28a7.12 7.12 0 0 1-6.11 5.17c-3.52.35-11.39.7-13 .59s-10.33-1.17-12.8-1.06-4.46-3.52-4.7-6.46 0-6.58 0-8.57.57-7.71 1.16-8.71a26.8 26.8 0 0 1 6.93-5.4c2-.82 15.15-1.94 17.61-1.17 3.76 1.19 8.57 3.65 9.86 5.57z" class="b1-cls-11 b1-cls-15" data-color-action="fill" style="fill:inherit" data-name="three quarter crown"/><path id="b1_crown" d="M46.67 18c1.18 1.71 1.53 7.87 1.17 9a8.31 8.31 0 0 0-.47 3.76c.23 1.17 1.06 5 .35 7.28a7.12 7.12 0 0 1-6.11 5.17c-3.52.35-11.39.7-13 .59s-10.33-1.17-12.8-1.06-4.46-3.52-4.7-6.46 0-6.58 0-8.57.57-7.71 1.16-8.71a26.8 26.8 0 0 1 6.93-5.4c2-.82 15.15-1.94 17.61-1.17 3.76 1.19 8.57 3.65 9.86 5.57z" class="b1-cls-11 b1-cls-15" data-color-action="fill" style="fill:inherit"/><path id="b1_cracked_surface_occlusal" d="M28.17 23.74l3.84 3.83H27l5 4.75h-5l3.83 3.83" class="b1-cls-16" data-color-action="stroke" style="stroke:inherit" data-name="cracked surface occlusal"/><g id="b1_chipped_surface_occlusal" class="b1-cls-11" data-name="chipped surface occlusal"><path d="M25.67 25.41L34 33.75M34 25.41l-8.33 8.34" class="b1-cls-17" data-color-action="stroke" style="stroke:inherit"/></g><g id="b1_buccal_abfraction" data-name="buccal abfraction"><path d="M28 1.25h3v3h-3z" class="b1-cls-7"/><path d="M28 1.25h3v3h-3z" class="b1-cls-7"/><path d="M28 1.25h3v3h-3z" class="b1-cls-7"/></g><g id="b1_braces"><path d="M28 1.25h3v3h-3z" class="b1-cls-7"/><path d="M28 1.25h3v3h-3z" class="b1-cls-7"/><path d="M28 1.25h3v3h-3z" class="b1-cls-7"/></g><g id="b1_apicoectomy"><path d="M28 1.25h3v3h-3z" class="b1-cls-7"/><path d="M28 1.25h3v3h-3z" class="b1-cls-7"/><path d="M28 1.25h3v3h-3z" class="b1-cls-7"/></g><g id="b1_abscess"><path d="M28 1.25h3v3h-3z" class="b1-cls-7"/><path d="M28 1.25h3v3h-3z" class="b1-cls-7"/><path d="M28 1.25h3v3h-3z" class="b1-cls-7"/></g><g id="b1_blunted_roots" data-name="blunted roots"><path d="M28 1.25h3v3h-3z" class="b1-cls-7"/><path d="M28 1.25h3v3h-3z" class="b1-cls-7"/><path d="M28 1.25h3v3h-3z" class="b1-cls-7"/></g><g id="b1_root_amputation" data-name="root amputation"><path d="M28 1.25h3v3h-3z" class="b1-cls-7"/><path d="M28 1.25h3v3h-3z" class="b1-cls-7"/><path d="M28 1.25h3v3h-3z" class="b1-cls-7"/></g><path id="b1_missing_crown" d="M2 2.02h55v51.77H2z" class="b1-cls-10" data-name="missing crown"/><g id="b1_missing_tooth" data-name="missing tooth"><path d="M46.67 18c1.18 1.71 1.53 7.87 1.17 9a8.31 8.31 0 0 0-.47 3.76c.23 1.17 1.06 5 .35 7.28a7.12 7.12 0 0 1-6.11 5.17c-3.52.35-11.39.7-13 .59s-10.33-1.17-12.8-1.06-4.46-3.52-4.7-6.46 0-6.58 0-8.57.57-7.71 1.16-8.71a26.8 26.8 0 0 1 6.93-5.4c2-.82 15.15-1.94 17.61-1.17 3.76 1.19 8.57 3.65 9.86 5.57z" class="b1-cls-2"/><path d="M46.67 18c1.18 1.71 1.53 7.87 1.17 9a8.31 8.31 0 0 0-.47 3.76c.23 1.17 1.06 5 .35 7.28a7.12 7.12 0 0 1-6.11 5.17c-3.52.35-11.39.7-13 .59s-10.33-1.17-12.8-1.06-4.46-3.52-4.7-6.46 0-6.58 0-8.57.57-7.71 1.16-8.71a26.8 26.8 0 0 1 6.93-5.4c2-.82 15.15-1.94 17.61-1.17 3.76 1.19 8.57 3.65 9.86 5.57z" class="b1-cls-10"/><path d="M28.94 28.41c1.49.69 10 .23 9.39.82s-8.69.35-9.39.94 0 6.93-1.06 6.93-.82-6-1.29-6.46-7.4-.12-7.63-.59 5.4-.94 6.22-1.41 1.06-3.76 1.41-5.28 1.06-4.23 1.76-3.88-.82 3.88-.82 5-.11 3.23 1.41 3.93z" class="b1-cls-10"/><path d="M12.15 28.06c.82.59.47 2 0 2.82s.12 2.58.23 3.64a9.32 9.32 0 0 0 2.11 4.7c1.17 1.06 3.64 1.29 5.75 1.76s6.69.23 7.16-.23 1.76-.23 2.58.12 8.34.12 10.92-.35 5-1.88 5.64-2.94.12-5-.23-6.46-.7-2.11.23-3.05A12.26 12.26 0 0 0 48 26.13a4.29 4.29 0 0 1-.11.88 8.31 8.31 0 0 0-.47 3.76c.23 1.17 1.06 5 .35 7.28a7.12 7.12 0 0 1-6.11 5.17c-3.52.35-11.39.7-13 .59s-10.33-1.17-12.8-1.06-4.46-3.52-4.7-6.46 0-6.58 0-8.57v-.62a8.29 8.29 0 0 0 .99.96zM19.2 13.62c2-.82 15.15-1.94 17.61-1.17a33.93 33.93 0 0 1 6.55 2.89c1.52.89-1.64-.87-3.58-.87a47.79 47.79 0 0 0-8.72.74c-1.06.35-2.35.7-3.05.12s-5.87-1.41-8.45-1.17c-1.71.16-4.23 2-2.82 1a13.92 13.92 0 0 1 2.46-1.54z" class="b1-cls-10"/></g><g id="b1_maryland_bridge_pontic" class="b1-cls-11" data-name="maryland bridge pontic"><path d="M46.67 18c1.18 1.71 1.53 7.87 1.17 9a8.31 8.31 0 0 0-.47 3.76c.23 1.17 1.06 5 .35 7.28a7.12 7.12 0 0 1-6.11 5.17c-3.52.35-11.39.7-13 .59s-10.33-1.17-12.8-1.06-4.46-3.52-4.7-6.46 0-6.58 0-8.57.57-7.71 1.16-8.71a26.8 26.8 0 0 1 6.93-5.4c2-.82 15.15-1.94 17.61-1.17 3.76 1.19 8.57 3.65 9.86 5.57z" class="b1-cls-12" data-color-action="fill" style="fill:inherit"/><path d="M36.58 24.17H57v7.67H36.58zM2 24.17h20.42v7.67H2z" class="b1-cls-12" data-color-action="fill" style="fill:inherit"/></g><g id="b1_maryland_bridge_abutment_mesial" data-name="maryland bridge abutment mesial"><g class="b1-cls-11"><path d="M36.58 24.17H57v7.67H36.58z" class="b1-cls-12" data-color-action="fill" style="fill:inherit"/><ellipse cx="39.3" cy="28" class="b1-cls-12" rx="5.93" ry="13.62" data-color-action="fill" style="fill:inherit"/></g><path d="M46.67 18c1.18 1.71 1.53 7.87 1.17 9a8.31 8.31 0 0 0-.47 3.76c.23 1.17 1.06 5 .35 7.28a7.12 7.12 0 0 1-6.11 5.17c-3.52.35-11.39.7-13 .59s-10.33-1.17-12.8-1.06-4.46-3.52-4.7-6.46 0-6.58 0-8.57.57-7.71 1.16-8.71a26.8 26.8 0 0 1 6.93-5.4c2-.82 15.15-1.94 17.61-1.17 3.76 1.19 8.57 3.65 9.86 5.57z" class="b1-cls-2"/><path d="M46.67 18c1.18 1.71 1.53 7.87 1.17 9a8.31 8.31 0 0 0-.47 3.76c.23 1.17 1.06 5 .35 7.28a7.12 7.12 0 0 1-6.11 5.17c-3.52.35-11.39.7-13 .59s-10.33-1.17-12.8-1.06-4.46-3.52-4.7-6.46 0-6.58 0-8.57.57-7.71 1.16-8.71a26.8 26.8 0 0 1 6.93-5.4c2-.82 15.15-1.94 17.61-1.17 3.76 1.19 8.57 3.65 9.86 5.57z" class="b1-cls-3"/><path d="M28.94 28.41c1.49.69 10 .23 9.39.82s-8.69.35-9.39.94 0 6.93-1.06 6.93-.82-6-1.29-6.46-7.4-.12-7.63-.59 5.4-.94 6.22-1.41 1.06-3.76 1.41-5.28 1.06-4.23 1.76-3.88-.82 3.88-.82 5-.11 3.23 1.41 3.93z" class="b1-cls-4"/><path d="M12.15 28.06c.82.59.47 2 0 2.82s.12 2.58.23 3.64a9.32 9.32 0 0 0 2.11 4.7c1.17 1.06 3.64 1.29 5.75 1.76s6.69.23 7.16-.23 1.76-.23 2.58.12 8.34.12 10.92-.35 5-1.88 5.64-2.94.12-5-.23-6.46-.7-2.11.23-3.05A12.26 12.26 0 0 0 48 26.13a4.29 4.29 0 0 1-.11.88 8.31 8.31 0 0 0-.47 3.76c.23 1.17 1.06 5 .35 7.28a7.12 7.12 0 0 1-6.11 5.17c-3.52.35-11.39.7-13 .59s-10.33-1.17-12.8-1.06-4.46-3.52-4.7-6.46 0-6.58 0-8.57v-.62a8.29 8.29 0 0 0 .99.96z" class="b1-cls-4"/><path d="M19.2 13.62c2-.82 15.15-1.94 17.61-1.17a33.93 33.93 0 0 1 6.55 2.89c1.52.89-1.64-.87-3.58-.87a47.79 47.79 0 0 0-8.72.74c-1.06.35-2.35.7-3.05.12s-5.87-1.41-8.45-1.17c-1.71.16-4.23 2-2.82 1a13.92 13.92 0 0 1 2.46-1.54z" class="b1-cls-5"/></g><g id="b1_maryland_bridge_abutment_distal" data-name="maryland bridge abutment distal"><g class="b1-cls-11"><path d="M2 24.17h20.42v7.67H2z" class="b1-cls-12" data-color-action="fill" style="fill:inherit"/><ellipse cx="19.7" cy="28" class="b1-cls-12" rx="5.93" ry="13.62" data-color-action="fill" style="fill:inherit"/></g><path d="M46.67 18c1.18 1.71 1.53 7.87 1.17 9a8.31 8.31 0 0 0-.47 3.76c.23 1.17 1.06 5 .35 7.28a7.12 7.12 0 0 1-6.11 5.17c-3.52.35-11.39.7-13 .59s-10.33-1.17-12.8-1.06-4.46-3.52-4.7-6.46 0-6.58 0-8.57.57-7.71 1.16-8.71a26.8 26.8 0 0 1 6.93-5.4c2-.82 15.15-1.94 17.61-1.17 3.76 1.19 8.57 3.65 9.86 5.57z" class="b1-cls-2"/><path d="M46.67 18c1.18 1.71 1.53 7.87 1.17 9a8.31 8.31 0 0 0-.47 3.76c.23 1.17 1.06 5 .35 7.28a7.12 7.12 0 0 1-6.11 5.17c-3.52.35-11.39.7-13 .59s-10.33-1.17-12.8-1.06-4.46-3.52-4.7-6.46 0-6.58 0-8.57.57-7.71 1.16-8.71a26.8 26.8 0 0 1 6.93-5.4c2-.82 15.15-1.94 17.61-1.17 3.76 1.19 8.57 3.65 9.86 5.57z" class="b1-cls-3"/><path d="M28.94 28.41c1.49.69 10 .23 9.39.82s-8.69.35-9.39.94 0 6.93-1.06 6.93-.82-6-1.29-6.46-7.4-.12-7.63-.59 5.4-.94 6.22-1.41 1.06-3.76 1.41-5.28 1.06-4.23 1.76-3.88-.82 3.88-.82 5-.11 3.23 1.41 3.93z" class="b1-cls-4"/><path d="M12.15 28.06c.82.59.47 2 0 2.82s.12 2.58.23 3.64a9.32 9.32 0 0 0 2.11 4.7c1.17 1.06 3.64 1.29 5.75 1.76s6.69.23 7.16-.23 1.76-.23 2.58.12 8.34.12 10.92-.35 5-1.88 5.64-2.94.12-5-.23-6.46-.7-2.11.23-3.05A12.26 12.26 0 0 0 48 26.13a4.29 4.29 0 0 1-.11.88 8.31 8.31 0 0 0-.47 3.76c.23 1.17 1.06 5 .35 7.28a7.12 7.12 0 0 1-6.11 5.17c-3.52.35-11.39.7-13 .59s-10.33-1.17-12.8-1.06-4.46-3.52-4.7-6.46 0-6.58 0-8.57v-.62a8.29 8.29 0 0 0 .99.96z" class="b1-cls-4"/><path d="M19.2 13.62c2-.82 15.15-1.94 17.61-1.17a33.93 33.93 0 0 1 6.55 2.89c1.52.89-1.64-.87-3.58-.87a47.79 47.79 0 0 0-8.72.74c-1.06.35-2.35.7-3.05.12s-5.87-1.41-8.45-1.17c-1.71.16-4.23 2-2.82 1a13.92 13.92 0 0 1 2.46-1.54z" class="b1-cls-5"/></g><g id="b1_maryland_bridge_abutment" data-name="maryland bridge abutment"><g class="b1-cls-11"><path d="M36.58 24.17H57v7.67H36.58zM2 24.17h20.42v7.67H2z" class="b1-cls-12" data-color-action="fill" style="fill:inherit"/><ellipse cx="19.7" cy="28" class="b1-cls-12" rx="5.93" ry="13.62" data-color-action="fill" style="fill:inherit"/><ellipse cx="39.3" cy="28" class="b1-cls-12" rx="5.93" ry="13.62" data-color-action="fill" style="fill:inherit"/></g><path d="M46.67 18c1.18 1.71 1.53 7.87 1.17 9a8.31 8.31 0 0 0-.47 3.76c.23 1.17 1.06 5 .35 7.28a7.12 7.12 0 0 1-6.11 5.17c-3.52.35-11.39.7-13 .59s-10.33-1.17-12.8-1.06-4.46-3.52-4.7-6.46 0-6.58 0-8.57.57-7.71 1.16-8.71a26.8 26.8 0 0 1 6.93-5.4c2-.82 15.15-1.94 17.61-1.17 3.76 1.19 8.57 3.65 9.86 5.57z" class="b1-cls-2"/><path d="M46.67 18c1.18 1.71 1.53 7.87 1.17 9a8.31 8.31 0 0 0-.47 3.76c.23 1.17 1.06 5 .35 7.28a7.12 7.12 0 0 1-6.11 5.17c-3.52.35-11.39.7-13 .59s-10.33-1.17-12.8-1.06-4.46-3.52-4.7-6.46 0-6.58 0-8.57.57-7.71 1.16-8.71a26.8 26.8 0 0 1 6.93-5.4c2-.82 15.15-1.94 17.61-1.17 3.76 1.19 8.57 3.65 9.86 5.57z" class="b1-cls-3"/><path d="M28.94 28.41c1.49.69 10 .23 9.39.82s-8.69.35-9.39.94 0 6.93-1.06 6.93-.82-6-1.29-6.46-7.4-.12-7.63-.59 5.4-.94 6.22-1.41 1.06-3.76 1.41-5.28 1.06-4.23 1.76-3.88-.82 3.88-.82 5-.11 3.23 1.41 3.93z" class="b1-cls-4"/><path d="M12.15 28.06c.82.59.47 2 0 2.82s.12 2.58.23 3.64a9.32 9.32 0 0 0 2.11 4.7c1.17 1.06 3.64 1.29 5.75 1.76s6.69.23 7.16-.23 1.76-.23 2.58.12 8.34.12 10.92-.35 5-1.88 5.64-2.94.12-5-.23-6.46-.7-2.11.23-3.05A12.26 12.26 0 0 0 48 26.13a4.29 4.29 0 0 1-.11.88 8.31 8.31 0 0 0-.47 3.76c.23 1.17 1.06 5 .35 7.28a7.12 7.12 0 0 1-6.11 5.17c-3.52.35-11.39.7-13 .59s-10.33-1.17-12.8-1.06-4.46-3.52-4.7-6.46 0-6.58 0-8.57v-.62a8.29 8.29 0 0 0 .99.96z" class="b1-cls-4"/><path d="M19.2 13.62c2-.82 15.15-1.94 17.61-1.17a33.93 33.93 0 0 1 6.55 2.89c1.52.89-1.64-.87-3.58-.87a47.79 47.79 0 0 0-8.72.74c-1.06.35-2.35.7-3.05.12s-5.87-1.41-8.45-1.17c-1.71.16-4.23 2-2.82 1a13.92 13.92 0 0 1 2.46-1.54z" class="b1-cls-5"/></g><path id="b1_bridge_abutment" d="M46.67 18c1.18 1.71 1.53 7.87 1.17 9a8.31 8.31 0 0 0-.47 3.76c.23 1.17 1.06 5 .35 7.28a7.12 7.12 0 0 1-6.11 5.17c-3.52.35-11.39.7-13 .59s-10.33-1.17-12.8-1.06-4.46-3.52-4.7-6.46 0-6.58 0-8.57.57-7.71 1.16-8.71a26.8 26.8 0 0 1 6.93-5.4c2-.82 15.15-1.94 17.61-1.17 3.76 1.19 8.57 3.65 9.86 5.57z" class="b1-cls-11 b1-cls-13" data-color-action="fill" style="fill:inherit" data-name="bridge abutment"/><path id="b1_bridge_pontic" d="M46.67 18c1.18 1.71 1.53 7.87 1.17 9a8.31 8.31 0 0 0-.47 3.76c.23 1.17 1.06 5 .35 7.28a7.12 7.12 0 0 1-6.11 5.17c-3.52.35-11.39.7-13 .59s-10.33-1.17-12.8-1.06-4.46-3.52-4.7-6.46 0-6.58 0-8.57.57-7.71 1.16-8.71a26.8 26.8 0 0 1 6.93-5.4c2-.82 15.15-1.94 17.61-1.17 3.76 1.19 8.57 3.65 9.86 5.57z" class="b1-cls-11 b1-cls-13" data-color-action="fill" style="fill:inherit" data-name="bridge pontic"/><g id="b1_implant_mini" data-name="implant mini"><path d="M2 2.02h55v51.77H2z" class="b1-cls-10"/><circle cx="29.5" cy="28" r="2.61" class="b1-cls-13" data-color-action="fill" style="fill:inherit"/></g><g id="b1_implant_cylinder" data-name="implant cylinder"><path d="M2 2.02h55v51.77H2z" class="b1-cls-10"/><circle cx="29.5" cy="28" r="5" class="b1-cls-13" data-color-action="fill" style="fill:inherit"/><path d="M24.5 28a5 5 0 0 0 .09.89h9.82a4.46 4.46 0 0 0 0-1.78h-9.82a5 5 0 0 0-.09.89z" class="b1-cls-14" data-color-action="fill" style="fill:inherit"/></g><g id="b1_implant_blade" data-name="implant blade"><path d="M2 2.02h55v51.77H2z" class="b1-cls-10"/><circle cx="29.5" cy="28" r="5" class="b1-cls-13" data-color-action="fill" style="fill:inherit"/></g><g id="b1_border"><path d="M0 0h59v56H0z" class="b1-cls-7"/><path d="M0 0h59v56H0z" class="b1-cls-7" transform="rotate(-180 29.5 28)"/></g></defs></g><g class="c1-cls-1" transform="translate(0 217)"><g id="_1C" data-name="#1C"><path d="M45.38 35.09c1.72-1.78 2.82-14.72 2-18.16s-4.07-6.26-6.58-6.11-7 3-9.71 3-8.41-2.69-10.09-2.53-8 .94-8.77 4.54-1.88 16.44.63 19.1 27.98 4.86 32.52.16z" class="c1-cls-2"/><path d="M45.38 35.09c1.72-1.78 2.82-14.72 2-18.16s-4.07-6.26-6.58-6.11-7 3-9.71 3-8.41-2.69-10.09-2.53-8 .94-8.77 4.54-1.88 16.44.63 19.1 27.98 4.86 32.52.16z" class="c1-cls-3"/><path d="M35.06 14.84c-2 .4-2.69-.4-4-.27a9.41 9.41 0 0 1-3.5.13c-2-.27-5.24-1.75-6.86-1.61a28.34 28.34 0 0 0-7 1.48 12.92 12.92 0 0 0-1.3.65c1.32-3.08 6.95-3.78 8.57-3.93s7.52 2.51 10.18 2.51 7.2-2.82 9.71-3c2.11-.13 4.77 1.85 6 4.54-1.49-1-3.49-2.07-5.09-2-2.95.16-4.7 1.1-6.71 1.5z" class="c1-cls-4"/><path d="M12.81 34.93a7.79 7.79 0 0 1-1.33-4.1 12.84 12.84 0 0 0 2.6 1.62c2.15.94 9.41 1.75 13.44 2a98 98 0 0 0 12.77-.13 22.29 22.29 0 0 0 6.22-2.27 7.42 7.42 0 0 1-1.14 3c-4.53 4.74-30.05 2.55-32.56-.12zM31.16 15c.65.18 1.34 2.29 1.08 4.3s-.94 6.86-1.88 6.72.13-5.24 0-6.86-.14-4.45.8-4.16z" class="c1-cls-5"/></g><defs><g id="c1_splinted_crowns" data-name="splinted crowns"><path d="M2 34.08h55v7.67H2z" class="c1-cls-12" data-color-action="fill" style="fill:inherit"/><path d="M45.38 35.09c1.72-1.78 2.82-14.72 2-18.16s-4.07-6.26-6.58-6.11-7 3-9.71 3-8.41-2.69-10.09-2.53-8 .94-8.77 4.54-1.88 16.44.63 19.1 27.98 4.86 32.52.16z" class="c1-cls-2"/><path d="M45.38 35.09c1.72-1.78 2.82-14.72 2-18.16s-4.07-6.26-6.58-6.11-7 3-9.71 3-8.41-2.69-10.09-2.53-8 .94-8.77 4.54-1.88 16.44.63 19.1 27.98 4.86 32.52.16z" class="c1-cls-3"/><path d="M35.06 14.84c-2 .4-2.69-.4-4-.27a9.41 9.41 0 0 1-3.5.13c-2-.27-5.24-1.75-6.86-1.61a28.34 28.34 0 0 0-7 1.48 12.92 12.92 0 0 0-1.3.65c1.32-3.08 6.95-3.78 8.57-3.93s7.52 2.51 10.18 2.51 7.2-2.82 9.71-3c2.11-.13 4.77 1.85 6 4.54-1.49-1-3.49-2.07-5.09-2-2.95.16-4.7 1.1-6.71 1.5z" class="c1-cls-4"/><path d="M12.81 34.93a7.79 7.79 0 0 1-1.33-4.1 12.84 12.84 0 0 0 2.6 1.62c2.15.94 9.41 1.75 13.44 2a98 98 0 0 0 12.77-.13 22.29 22.29 0 0 0 6.22-2.27 7.42 7.42 0 0 1-1.14 3c-4.53 4.74-30.05 2.55-32.56-.12zM31.16 15c.65.18 1.34 2.29 1.08 4.3s-.94 6.86-1.88 6.72.13-5.24 0-6.86-.14-4.45.8-4.16z" class="c1-cls-5"/></g><path id="c1_lingual_V" d="M29.63 34.45a27 27 0 0 1 10.8 2.69c-6.25 1.21-16.25.69-22.41-.46a27 27 0 0 1 11.61-2.23z" class="c1-cls-6" data-color-action="fill" style="fill:inherit" data-name="lingual V"/><ellipse id="c1_lingual" cx="29.49" cy="26.74" class="c1-cls-6" rx="3.36" ry="5.4" data-color-action="fill" style="fill:inherit"/><path id="c1_mesial" d="M42.61 22.17a16.38 16.38 0 0 0-.42-2.28l3.9-5.89a8.28 8.28 0 0 1 1.32 2.91c.39 1.71.31 5.77-.07 9.64-2.11-.55-4.34-1.7-4.73-4.38z" class="c1-cls-6" data-color-action="fill" style="fill:inherit"/><path id="c1_line_angle_4" d="M37.53 16.66a7.79 7.79 0 0 0-2.86.58l1.1-4.77a20.15 20.15 0 0 1 5.08-1.66c1.74-.11 3.86 1.22 5.25 3.2l-3.9 5.88c-.51-1.76-1.61-3.32-4.67-3.23z" class="c1-cls-6" data-color-action="fill" style="fill:inherit" data-name="line angle 4"/><path id="c1_groove_2" d="M29.76 19.49c-2 .09-3.54-1.05-5.56-1.84l-1.55-6.1c2.47.65 6.41 2.24 8.48 2.24a14.29 14.29 0 0 0 4.63-1.31l-1.1 4.77c-1.88.75-2.66 2.14-4.9 2.24z" class="c1-cls-6" data-color-action="fill" style="fill:inherit" data-name="groove 2"/><path id="c1_line_angle_3" d="M20.3 16.95c-1.9.06-3.17 1.21-4.12 3L12.5 15c1.49-2.88 6.87-3.56 8.45-3.7a5.73 5.73 0 0 1 1.7.26l1.55 6.1a9.56 9.56 0 0 0-3.9-.71z" class="c1-cls-6" data-color-action="fill" style="fill:inherit" data-name="line angle 3"/><path id="c1_distal" d="M12.19 15.83a3.38 3.38 0 0 1 .31-.83l3.67 4.95A21.08 21.08 0 0 0 14.65 24a4.44 4.44 0 0 1-3.39 2.86 61.55 61.55 0 0 1 .93-11.03z" class="c1-cls-6" data-color-action="fill" style="fill:inherit"/><g id="c1_veneer"><path d="M28 1.25h3v3h-3z" class="c1-cls-7"/><path d="M28 1.25h3v3h-3z" class="c1-cls-7"/><path d="M28 1.25h3v3h-3z" class="c1-cls-7"/></g><g id="c1_tissue_graft" data-name="tissue graft"><path d="M28 1.25h3v3h-3z" class="c1-cls-7"/><path d="M28 1.25h3v3h-3z" class="c1-cls-7"/><path d="M28 1.25h3v3h-3z" class="c1-cls-7"/></g><g id="c1_tipped_lingual" class="c1-cls-8" data-name="tipped lingual"><path d="M30.35 7.93c-1.26-3.37-4.74-3.85-7.69 5.32-.5 1.56-4.42 1.76-3.84 0C20.84 7.15 24.14 3 27.89 4a4.86 4.86 0 0 1 3 3.38c-.2.15-.43.41-.54.55z" class="c1-cls-9" data-color-action="fill" style="fill:inherit"/><path d="M28.27 10.85H15.33l2.94 9.64 10-9.64z" class="c1-cls-9" data-color-action="fill" style="fill:inherit"/></g><g id="c1_tipped_facial" data-name="tipped facial"><path d="M28 1.25h3v3h-3z" class="c1-cls-7"/><path d="M28 1.25h3v3h-3z" class="c1-cls-7"/><path d="M28 1.25h3v3h-3z" class="c1-cls-7"/></g><path id="c1_surface_restoration_mesial" d="M47.49 25.39a11.6 11.6 0 0 0-7 5.28c.22-5.33.29-11.16.11-12.23a1 1 0 0 0-.11-.22L45.27 13a8.6 8.6 0 0 1 2.18 4 35.88 35.88 0 0 1 .04 8.39z" class="c1-cls-10" data-color-action="fill" style="fill:inherit" data-name="surface restoration mesial"/><path id="c1_surface_restoration_lingual" d="M38.88 36.56v.85l-.63.08a15.74 15.74 0 0 0-9.8-3.26 16 16 0 0 0-9.05 2.71h-.11v-.46a11.51 11.51 0 0 0-1.06-4.83c.05-5 .24-11 .51-12.82a13.32 13.32 0 0 1 2.26-.48c.6.16 1.61.49 2.32.72a27.08 27.08 0 0 0 7.88 1.74c2.78 0 5.48-1.1 7.86-2.07l1.46-.58a1 1 0 0 1 .13.28c.19 1.07.12 6.9-.11 12.23a11.48 11.48 0 0 0-1.66 5.89z" class="c1-cls-8 c1-cls-11" data-color-action="fill" style="fill:inherit" data-name="surface restoration lingual"/><path id="c1_surface_restoration_lingual_V" d="M38.29 37.49a76 76 0 0 1-18.85-.55 16 16 0 0 1 9.05-2.71 15.74 15.74 0 0 1 9.8 3.26z" class="c1-cls-8 c1-cls-11" data-color-action="fill" style="fill:inherit" data-name="surface restoration lingual V"/><path id="c1_surface_restoration_distal" d="M18.8 18.81c-.26 1.86-.45 7.8-.51 12.82a11.61 11.61 0 0 0-7-6.2 59.73 59.73 0 0 1 .91-9.59c.34-1.58 1.75-2.62 3.35-3.3l4.37 6a11.73 11.73 0 0 0-1.12.27z" class="c1-cls-10" data-color-action="fill" style="fill:inherit" data-name="surface restoration distal"/><path id="c1_surface_restoration_occlusal" d="M40.48 18.16l-1.48.58c-2.38 1-5.08 2.07-7.86 2.07a27.08 27.08 0 0 1-7.88-1.74c-.71-.23-1.72-.56-2.32-.72-.37 0-.7.11-1 .17l-4.37-6A19.43 19.43 0 0 1 21 11.3c1.72-.16 7.52 2.51 10.18 2.51s7.2-2.82 9.71-3A6.08 6.08 0 0 1 45.27 13l-4.77 5.21z" class="c1-cls-10" data-color-action="fill" style="fill:inherit" data-name="surface restoration occlusal"/><g id="c1_supra-erupted"><path d="M28 1.25h3v3h-3z" class="c1-cls-7"/><path d="M28 1.25h3v3h-3z" class="c1-cls-7"/><path d="M28 1.25h3v3h-3z" class="c1-cls-7"/></g><g id="c1_sub-erupted"><path d="M28 1.25h3v3h-3z" class="c1-cls-7"/><path d="M28 1.25h3v3h-3z" class="c1-cls-7"/><path d="M28 1.25h3v3h-3z" class="c1-cls-7"/></g><g id="c1_sealant"><path d="M28 1.25h3v3h-3z" class="c1-cls-7"/><path d="M28 1.25h3v3h-3z" class="c1-cls-7"/><path d="M28 1.25h3v3h-3z" class="c1-cls-7"/></g><g id="c1_root_decay" data-name="root decay"><path d="M28 1.25h3v3h-3z" class="c1-cls-7"/><path d="M28 1.25h3v3h-3z" class="c1-cls-7"/><path d="M28 1.25h3v3h-3z" class="c1-cls-7"/></g><g id="c1_root_canal" data-name="root canal"><path d="M28 1.25h3v3h-3z" class="c1-cls-7"/><path d="M28 1.25h3v3h-3z" class="c1-cls-7"/><path d="M28 1.25h3v3h-3z" class="c1-cls-7"/></g><g id="c1_root_abrasion" data-name="root abrasion"><path d="M28 1.25h3v3h-3z" class="c1-cls-7"/><path d="M28 1.25h3v3h-3z" class="c1-cls-7"/><path d="M28 1.25h3v3h-3z" class="c1-cls-7"/></g><g id="c1_open_contact_mesial" data-name="open contact mesial"><path d="M28 1.25h3v3h-3z" class="c1-cls-7"/><path d="M28 1.25h3v3h-3z" class="c1-cls-7"/><path d="M28 1.25h3v3h-3z" class="c1-cls-7"/></g><g id="c1_open_contact_distal" data-name="open contact distal"><path d="M28 1.25h3v3h-3z" class="c1-cls-7"/><path d="M28 1.25h3v3h-3z" class="c1-cls-7"/><path d="M28 1.25h3v3h-3z" class="c1-cls-7"/></g><path id="c1_lingual_abfraction" d="M45.81 37.83s-7.3 5.75-16.31 5.75-16.31-5.75-16.31-5.75 7.3-5.75 16.31-5.75 16.31 5.75 16.31 5.75z" class="c1-cls-15" data-color-action="fill" style="fill:inherit" data-name="lingual abfraction"/><g id="c1_internal_root_resorption" data-name="internal root resorption"><path d="M28 1.25h3v3h-3z" class="c1-cls-7"/><path d="M28 1.25h3v3h-3z" class="c1-cls-7"/><path d="M28 1.25h3v3h-3z" class="c1-cls-7"/></g><g id="c1_gortex_membranes" data-name="gortex membranes"><path d="M28 1.25h3v3h-3z" class="c1-cls-7"/><path d="M28 1.25h3v3h-3z" class="c1-cls-7"/><path d="M28 1.25h3v3h-3z" class="c1-cls-7"/></g><g id="c1_frenum_pull" data-name="frenum pull"><path d="M28 1.25h3v3h-3z" class="c1-cls-7"/><path d="M28 1.25h3v3h-3z" class="c1-cls-7"/><path d="M28 1.25h3v3h-3z" class="c1-cls-7"/></g><g id="c1_external_root_resorption" data-name="external root resorption"><path d="M28 1.25h3v3h-3z" class="c1-cls-7"/><path d="M28 1.25h3v3h-3z" class="c1-cls-7"/><path d="M28 1.25h3v3h-3z" class="c1-cls-7"/></g><path id="c1_three_quarter_crown" d="M47.51 24.63a33.29 33.29 0 0 0-.09-7.7c-.78-3.44-4.07-6.26-6.58-6.11s-7 3-9.71 3-8.45-2.69-10.13-2.53-8 .94-8.77 4.54a58.12 58.12 0 0 0-.89 8.8z" class="c1-cls-8 c1-cls-19" data-color-action="fill" style="fill:inherit" data-name="three quarter crown"/><path id="c1_crown" d="M45.38 35.09c1.72-1.78 2.82-14.72 2-18.16s-4.07-6.26-6.58-6.11-7 3-9.71 3-8.41-2.69-10.09-2.53-8 .94-8.77 4.54-1.88 16.44.63 19.1 27.98 4.86 32.52.16z" class="c1-cls-8 c1-cls-19" data-color-action="fill" style="fill:inherit"/><path id="c1_cracked_surface_mesial" d="M43.34 18.74l3.83 3.83h-5l5 4.75h-5l3.82 3.82" class="c1-cls-20" data-color-action="stroke" style="stroke:inherit" data-name="cracked surface mesial"/><path id="c1_cracked_surface_lingual" d="M28.17 18.74l3.84 3.83H27l5 4.75h-5l3.83 3.82" class="c1-cls-20" data-color-action="stroke" style="stroke:inherit" data-name="cracked surface lingual"/><path id="c1_cracked_surface_lingual_V" d="M28.17 18.74l3.84 3.83H27l5 4.75h-5l3.83 3.82" class="c1-cls-20" data-color-action="stroke" style="stroke:inherit" data-name="cracked surface lingual V"/><path id="c1_cracked_surface_distal" d="M12.34 18.74l3.83 3.83h-5l5 4.75h-5l3.82 3.82" class="c1-cls-20" data-color-action="stroke" style="stroke:inherit" data-name="cracked surface distal"/><g id="c1_chipped_surface_mesial" class="c1-cls-8" data-name="chipped surface mesial"><path d="M39.83 20.41l8.34 8.33M48.17 20.41l-8.34 8.33" class="c1-cls-21" data-color-action="stroke" style="stroke:inherit"/></g><g id="c1_chipped_surface_lingual" class="c1-cls-8" data-name="chipped surface lingual"><path d="M25.67 20.41L34 28.74M34 20.41l-8.33 8.33" class="c1-cls-21" data-color-action="stroke" style="stroke:inherit"/></g><g id="c1_chipped_surface_lingual_V" class="c1-cls-8" data-name="chipped surface lingual V"><path d="M25.67 20.41L34 28.74M34 20.41l-8.33 8.33" class="c1-cls-21" data-color-action="stroke" style="stroke:inherit"/></g><g id="c1_chipped_surface_distal" class="c1-cls-8" data-name="chipped surface distal"><path d="M10.67 20.41L19 28.74M19 20.41l-8.33 8.33" class="c1-cls-21" data-color-action="stroke" style="stroke:inherit"/></g><g id="c1_buccal_abfraction" data-name="buccal abfraction"><path d="M28 1.25h3v3h-3z" class="c1-cls-7"/><path d="M28 1.25h3v3h-3z" class="c1-cls-7"/><path d="M28 1.25h3v3h-3z" class="c1-cls-7"/></g><g id="c1_braces"><path d="M28 1.25h3v3h-3z" class="c1-cls-7"/><path d="M28 1.25h3v3h-3z" class="c1-cls-7"/><path d="M28 1.25h3v3h-3z" class="c1-cls-7"/></g><g id="c1_apicoectomy"><path d="M28 1.25h3v3h-3z" class="c1-cls-7"/><path d="M28 1.25h3v3h-3z" class="c1-cls-7"/><path d="M28 1.25h3v3h-3z" class="c1-cls-7"/></g><g id="c1_abscess"><path d="M28 1.25h3v3h-3z" class="c1-cls-7"/><path d="M28 1.25h3v3h-3z" class="c1-cls-7"/><path d="M28 1.25h3v3h-3z" class="c1-cls-7"/></g><g id="c1_blunted_roots" data-name="blunted roots"><path d="M28 1.25h3v3h-3z" class="c1-cls-7"/><path d="M28 1.25h3v3h-3z" class="c1-cls-7"/><path d="M28 1.25h3v3h-3z" class="c1-cls-7"/></g><g id="c1_root_amputation" data-name="root amputation"><path d="M28 1.25h3v3h-3z" class="c1-cls-7"/><path d="M28 1.25h3v3h-3z" class="c1-cls-7"/><path d="M28 1.25h3v3h-3z" class="c1-cls-7"/></g><g id="c1_missing_crown" data-name="missing crown"><path d="M28 1.25h3v3h-3z" class="c1-cls-7"/><path d="M28 1.25h3v3h-3z" class="c1-cls-7"/><path d="M28 1.25h3v3h-3z" class="c1-cls-7"/><path d="M2 2.02h55V64H2z" class="c1-cls-13"/></g><g id="c1_missing_tooth" data-name="missing tooth"><path d="M45.38 35.09c1.72-1.78 2.82-14.72 2-18.16s-4.07-6.26-6.58-6.11-7 3-9.71 3-8.41-2.69-10.09-2.53-8 .94-8.77 4.54-1.88 16.44.63 19.1 27.98 4.86 32.52.16z" class="c1-cls-2"/><path d="M45.38 35.09c1.72-1.78 2.82-14.72 2-18.16s-4.07-6.26-6.58-6.11-7 3-9.71 3-8.41-2.69-10.09-2.53-8 .94-8.77 4.54-1.88 16.44.63 19.1 27.98 4.86 32.52.16z" class="c1-cls-13"/><path d="M35.06 14.84c-2 .4-2.69-.4-4-.27a9.41 9.41 0 0 1-3.5.13c-2-.27-5.24-1.75-6.86-1.61a28.34 28.34 0 0 0-7 1.48 12.92 12.92 0 0 0-1.3.65c1.32-3.08 6.95-3.78 8.57-3.93s7.52 2.51 10.18 2.51 7.2-2.82 9.71-3c2.11-.13 4.77 1.85 6 4.54-1.49-1-3.49-2.07-5.09-2-2.95.16-4.7 1.1-6.71 1.5zM12.81 34.93a7.79 7.79 0 0 1-1.33-4.1 12.84 12.84 0 0 0 2.6 1.62c2.15.94 9.41 1.75 13.44 2a98 98 0 0 0 12.77-.13 22.29 22.29 0 0 0 6.22-2.27 7.42 7.42 0 0 1-1.14 3c-4.53 4.74-30.05 2.55-32.56-.12z" class="c1-cls-13"/><path d="M31.16 15c.65.18 1.34 2.29 1.08 4.3s-.94 6.86-1.88 6.72.13-5.24 0-6.86-.14-4.45.8-4.16z" class="c1-cls-13"/></g><g id="c1_maryland_bridge_pontic" class="c1-cls-8" data-name="maryland bridge pontic"><path d="M45.38 35.09c1.72-1.78 2.82-14.72 2-18.16s-4.07-6.26-6.58-6.11-7 3-9.71 3-8.41-2.69-10.09-2.53-8 .94-8.77 4.54-1.88 16.44.63 19.1 27.98 4.86 32.52.16z" class="c1-cls-14" data-color-action="fill" style="fill:inherit"/><path d="M2 20.96h55v7.67H2z" class="c1-cls-14" data-color-action="fill" style="fill:inherit"/></g><g id="c1_maryland_bridge_abutment_mesial" class="c1-cls-8" data-name="maryland bridge abutment mesial"><path d="M36.58 20.16H57v7.67H36.58z" class="c1-cls-14" data-color-action="fill" style="fill:inherit"/><ellipse cx="39.3" cy="24" class="c1-cls-14" rx="5.93" ry="13.62" data-color-action="fill" style="fill:inherit"/></g><g id="c1_maryland_bridge_abutment_distal" class="c1-cls-8" data-name="maryland bridge abutment distal"><path d="M2 20.16h20.42v7.67H2z" class="c1-cls-14" data-color-action="fill" style="fill:inherit"/><ellipse cx="19.7" cy="24" class="c1-cls-14" rx="5.93" ry="13.62" data-color-action="fill" style="fill:inherit"/></g><g id="c1_maryland_bridge_abutment" class="c1-cls-8" data-name="maryland bridge abutment"><path d="M36.58 20.16H57v7.67H36.58zM2 20.16h20.42v7.67H2z" class="c1-cls-14" data-color-action="fill" style="fill:inherit"/><ellipse cx="19.7" cy="24" class="c1-cls-14" rx="5.93" ry="13.62" data-color-action="fill" style="fill:inherit"/><ellipse cx="39.3" cy="24" class="c1-cls-14" rx="5.93" ry="13.62" data-color-action="fill" style="fill:inherit"/></g><g id="c1_bridge_abutment_mesial" class="c1-cls-8" data-name="bridge abutment mesial"><path d="M45.38 35.09c1.72-1.78 2.82-14.72 2-18.16s-4.07-6.26-6.58-6.11-7 3-9.71 3-8.41-2.69-10.09-2.53-8 .94-8.77 4.54-1.88 16.44.63 19.1 27.98 4.86 32.52.16z" class="c1-cls-11" data-color-action="fill" style="fill:inherit"/><path d="M22.02 20.73H57v7.67H22.02z" class="c1-cls-11" data-color-action="fill" style="fill:inherit"/></g><g id="c1_bridge_abutment_distal" class="c1-cls-8" data-name="bridge abutment distal"><path d="M45.38 35.09c1.72-1.78 2.82-14.72 2-18.16s-4.07-6.26-6.58-6.11-7 3-9.71 3-8.41-2.69-10.09-2.53-8 .94-8.77 4.54-1.88 16.44.63 19.1 27.98 4.86 32.52.16z" class="c1-cls-11" data-color-action="fill" style="fill:inherit"/><path d="M2 20.73h34.98v7.67H2z" class="c1-cls-11" data-color-action="fill" style="fill:inherit"/></g><g id="c1_bridge_abutment" class="c1-cls-8" data-name="bridge abutment"><path d="M45.38 35.09c1.72-1.78 2.82-14.72 2-18.16s-4.07-6.26-6.58-6.11-7 3-9.71 3-8.41-2.69-10.09-2.53-8 .94-8.77 4.54-1.88 16.44.63 19.1 27.98 4.86 32.52.16z" class="c1-cls-11" data-color-action="fill" style="fill:inherit"/><path d="M2 20.73h55v7.67H2z" class="c1-cls-11" data-color-action="fill" style="fill:inherit"/></g><g id="c1_bridge_pontic" class="c1-cls-8" data-name="bridge pontic"><path d="M45.38 35.09c1.72-1.78 2.82-14.72 2-18.16s-4.07-6.26-6.58-6.11-7 3-9.71 3-8.41-2.69-10.09-2.53-8 .94-8.77 4.54-1.88 16.44.63 19.1 27.98 4.86 32.52.16z" class="c1-cls-11" data-color-action="fill" style="fill:inherit"/><path d="M2 20.73h55v7.67H2z" class="c1-cls-11" data-color-action="fill" style="fill:inherit"/></g><g id="c1_implant_mini" data-name="implant mini"><path d="M2 2.02h55V64H2z" class="c1-cls-13"/><path d="M29.72 66h-.44l-1-8.5V16.67h2.44V57.5l-1 8.5z" class="c1-cls-11" data-color-action="fill" style="fill:inherit"/><path d="M29.42 66h-.07l-.4-8.5V16.67h.37V57.5l.1 8.5z" class="c1-cls-16"/><path d="M28.28 16.67h2.44v.63h-2.44z" class="c1-cls-17" data-color-action="fill" style="fill:inherit"/><g class="c1-cls-18"><path d="M28.28 17.3l2.44 1v-.63l-2.44-1v.63zM28.28 18.75l2.44 1v-.64l-2.44-1v.64zM28.28 20.19l2.44 1v-.63l-2.44-1v.63zM28.28 21.64l2.44 1V22l-2.44-1v.64zM28.28 23.08l2.44 1v-.63l-2.44-1v.63zM28.28 24.53l2.44 1v-.64l-2.44-1v.64zM28.28 25.97l2.44 1v-.63l-2.44-1v.63zM28.28 27.42l2.44 1v-.63l-2.44-1v.63zM28.28 28.86l2.44 1v-.63l-2.44-1v.63zM28.28 30.31l2.44 1v-.63l-2.44-1v.63zM28.28 31.75l2.44 1.01v-.64l-2.44-1v.63zM28.28 33.2l2.44 1v-.63l-2.44-1v.63zM28.28 34.65l2.44 1v-.64l-2.44-1v.64zM28.28 36.09l2.44 1v-.63l-2.44-1v.63zM28.28 37.54l2.44 1v-.64l-2.44-1v.64zM28.28 38.98l2.44 1v-.63l-2.44-1v.63zM28.28 40.43l2.44 1v-.63l-2.44-1.01v.64zM28.28 41.87l2.44 1v-.63l-2.44-1v.63zM28.28 43.32l2.44 1v-.63l-2.44-1v.63zM28.28 44.76l2.44 1v-.63l-2.44-1v.63zM28.28 46.21l2.44 1v-.63l-2.44-1v.63zM28.28 47.65l2.44 1.01v-.64l-2.44-1v.63zM28.28 49.1l2.44 1v-.63l-2.44-1v.63zM28.28 50.55l2.44 1v-.64l-2.44-1v.64zM28.28 51.99l2.44 1v-.63l-2.44-1v.63zM28.28 53.44l2.44 1v-.64l-2.44-1v.64zM28.28 54.88l2.44 1v-.63l-2.44-1v.63zM28.28 56.33l2.44 1v-.63l-2.44-1.01v.64zM28.28 57.5l.03.29 2.27.92.07-.6-2.37-.97v.36zM28.49 59.3l1.93.79.07-.6-2.08-.85.08.66zM28.67 60.82l1.58.65.08-.6-1.74-.71.08.66zM28.85 62.34l1.24.51.07-.6-1.39-.57.08.66zM29.03 63.86l.9.37.07-.6-1.05-.43.08.66zM29.2 65.38l.57.23.07-.6-.71-.3.07.67z" class="c1-cls-17" data-color-action="fill" style="fill:inherit"/></g><circle cx="29.5" cy="12.79" r="2.24" class="c1-cls-11" data-color-action="fill" style="fill:inherit"/><path d="M27.67 14.01h3.67v3h-3.67z" class="c1-cls-11" data-color-action="fill" style="fill:inherit"/><path d="M28.49 14.01h.55v3h-.55z" class="c1-cls-16"/><path d="M28.7 11.44h-.21a2.32 2.32 0 0 0-.49 1.28 2.37 2.37 0 0 0 .52 1.3H29a2 2 0 0 1-.73-1.37 1.5 1.5 0 0 1 .43-1.21z" class="c1-cls-16"/><path d="M28.28 22.74h2.44v.63h-2.44z" class="c1-cls-17" data-color-action="fill" style="fill:inherit"/><path d="M32.11 16.99h-5.22l.87 5.71h3.48l.87-5.71z" class="c1-cls-11" data-color-action="fill" style="fill:inherit"/><path d="M28.85 16.99h-.79l.48 5.71h.53l-.22-5.71z" class="c1-cls-16"/></g><g id="c1_implant_cylinder" data-name="implant cylinder"><path d="M2 2.02h55V64H2z" class="c1-cls-13"/><path d="M26.17 13.67h6.67V63h-6.67zM24.5 63h10v3h-10z" class="c1-cls-11" data-color-action="fill" style="fill:inherit"/><path d="M28 13.67h1V63h-1zM26.75 63h1.5v3h-1.5z" class="c1-cls-16"/><path d="M24.5 10.64h10v3h-10z" class="c1-cls-11" data-color-action="fill" style="fill:inherit"/><path d="M26.75 10.64h1.5v3h-1.5z" class="c1-cls-16"/><path d="M26.17 62.37h6.67V63h-6.67zM26.17 13.67h6.67v.63h-6.67z" class="c1-cls-17" data-color-action="fill" style="fill:inherit"/><g class="c1-cls-18"><path d="M32.83 15.3l-6.66-1v-.63l6.66 1v.63zM32.83 16.75l-6.66-1v-.63l6.66 1v.63zM32.83 18.19l-6.66-1v-.63l6.66 1v.63zM32.83 19.64l-6.66-1v-.63l6.66 1v.63zM32.83 21.08l-6.66-1v-.63l6.66 1v.63zM32.83 22.53l-6.66-1v-.63l6.66 1v.63zM32.83 23.98l-6.66-1v-.64l6.66 1v.64zM32.83 25.42l-6.66-1v-.63l6.66 1v.63zM32.83 26.87l-6.66-1.01v-.63l6.66 1v.64zM32.83 28.31l-6.66-1v-.63l6.66 1v.63zM32.83 29.76l-6.66-1v-.64l6.66 1.01v.63zM32.83 31.2l-6.66-1v-.63l6.66 1v.63zM32.83 32.65l-6.66-1v-.63l6.66 1v.63zM32.83 34.09l-6.66-1v-.63l6.66 1v.63zM32.83 35.54l-6.66-1v-.63l6.66 1v.63zM32.83 36.98l-6.66-1v-.63l6.66 1v.63zM32.83 38.43l-6.66-1v-.63l6.66 1v.63zM32.83 39.88l-6.66-1v-.64l6.66 1v.64zM32.83 41.32l-6.66-1v-.63l6.66 1v.63zM32.83 42.77l-6.66-1v-.64l6.66 1v.64zM32.83 44.21l-6.66-1v-.63l6.66 1v.63zM32.83 45.66l-6.66-1v-.64l6.66 1v.64zM32.83 47.1l-6.66-1v-.63l6.66 1v.63zM32.83 48.55l-6.66-1v-.64l6.66 1.01v.63zM32.83 49.99l-6.66-1v-.63l6.66 1v.63zM32.83 51.44l-6.66-1v-.63l6.66 1v.63zM32.83 52.88l-6.66-1v-.63l6.66 1v.63zM32.83 54.33l-6.66-1v-.63l6.66 1v.63zM32.83 55.77l-6.66-1v-.63l6.66 1v.63zM32.83 57.22l-6.66-1v-.63l6.66 1v.63zM32.83 58.67l-6.66-1.01v-.63l6.66 1v.64zM32.83 60.11l-6.66-1v-.63l6.66 1v.63zM32.83 61.56l-6.66-1v-.64l6.66 1v.64zM32.83 63l-6.66-1v-.63l6.66 1V63z" class="c1-cls-17" data-color-action="fill" style="fill:inherit"/></g></g><g id="c1_implant_blade" data-name="implant blade"><path d="M2 2.02h55V64H2z" class="c1-cls-13"/><path d="M26.17 13.64h6.67v49.33h-6.67zM24.5 10.64h10v3h-10z" class="c1-cls-11" data-color-action="fill" style="fill:inherit"/><path d="M28 13.64h1v49.33h-1zM26.75 10.64h1.5v3h-1.5z" class="c1-cls-16"/><path d="M26.17 13.64h6.67v.63h-6.67z" class="c1-cls-17" data-color-action="fill" style="fill:inherit"/></g><g id="c1_border"><path d="M0 0h59v66H0z" class="c1-cls-7"/><path d="M0 0h59v66H0z" class="c1-cls-7" transform="rotate(-180 29.5 33)"/></g></defs></g></svg>
