<svg version="1.1" xmlns="http://www.w3.org/2000/svg" xmlns:xlink="http://www.w3.org/1999/xlink" x="0px" y="0px" viewBox="0 0 59 283" style="enable-background:new 0 0 59 161;" xml:space="preserve"><defs><style type="text/css">.aE-cls-2{fill:#929497;stroke:none;}.aE-cls-3{font-family:'ProximaNova-Semibold',sans-serif;}.aE-cls-4{font-size:15px;}.aE-cls-5{fill:#C4C6C7;stroke:#C4C6C7;stroke-width:5;stroke-miterlimit:10;}.aE-cls-6{fill:#F4D6CE;stroke:none;}.aE-cls-7{fill:#F8E7E2;stroke:none;}.aE-cls-8{fill:#F0C5BC;stroke:none;}.aE-cls-9{fill:#EEE;stroke:none;}.aE-cls-10{fill:#E1E2E3;stroke:none;}.aE-cls-11{fill:#FAFBFB;stroke:none;}.aE-cls-12{opacity:0.55;fill:#3C3D3D;stroke:none;}.aE-cls-13{fill:#FFD403;stroke:none;}.aE-cls-14{fill:none;stroke:#C52636;stroke-width:3.622;stroke-miterlimit:10;}.aE-cls-15{font-family:'ProximaNova-Bold',sans-serif;}.aE-cls-16{font-size:13.6587px;}.aE-cls-17{fill:none;stroke:none;}.aE-cls-18{fill:#28418B;stroke:none;}.aE-cls-19{fill:#787878;stroke:none;}.aE-cls-20{fill:none;stroke:#C52636;stroke-width:2;stroke-miterlimit:10;}.aE-cls-21{fill:#C52636;stroke:none;}.aE-cls-22{fill:none;stroke:#C52636;stroke-width:2;stroke-linecap:round;stroke-miterlimit:10;}.aE-cls-23{fill:#C5C7C9;stroke:none;}.aE-cls-24{fill:#FFF;stroke:none;}.aE-cls-25{fill:none;stroke:#28418B;stroke-width:2;stroke-miterlimit:10;}.aE-cls-26{fill:#FFEF3E;stroke:none;}.aE-cls-27{fill:none;stroke:#C52636;stroke-width:1.25;stroke-miterlimit:10;}.aE-cls-28{fill:#9B9999;stroke:none;}.aE-cls-29{fill:#DBDBDC;stroke:none;}.aE-cls-30{fill:#3C3D3D;stroke:none;}.cE-cls-2{fill:#C4C6C7;stroke:#C4C6C7;stroke-width:5;stroke-miterlimit:10;}.cE-cls-3{fill:#EEE;stroke:none;}.cE-cls-4{fill:#FBFBFB;stroke:none;}.cE-cls-5{fill:#E2E3E4;stroke:none;}.cE-cls-6{opacity:0.55;fill:#3C3D3D;stroke:none;}.cE-cls-7{fill:#28418B;stroke:none;}.cE-cls-8{fill:#787878;stroke:none;}.cE-cls-9{fill:#FFF;stroke:none;}.cE-cls-10{fill:#FFEF3E;stroke:none;}.cE-cls-11{fill:none;stroke:#C52636;stroke-width:1.25;stroke-miterlimit:10;}.cE-cls-12{fill:none;stroke:none;}.aE-cls-31{font-family:'ProximaNova-Semibold',sans-serif;font-size:33px;fill:#28418B;stroke:none;}.aE-msng-cls-1{isolation:isolate;}.aE-msng-cls-2{font-size:15px;fill:#929497;font-family:ProximaNova-Semibold,Proxima Nova;font-weight:700;stroke:none;}.aE-msng-cls-3{fill:#C4C6C7;stroke:#C4C6C7;stroke-width:5px;}.aE-msng-cls-11,.aE-msng-cls-3{stroke-miterlimit:10;}.aE-msng-cls-4{fill:#F4D6CE;stroke:none;}.aE-msng-cls-5{fill:#F8E7E2;stroke:none;}.aE-msng-cls-6{fill:#F0C5BC;stroke:none;}.aE-msng-cls-7{fill:#EEE;stroke:none;}.aE-msng-cls-8{fill:#E1E2E3;stroke:none;}.aE-msng-cls-9{fill:#FAFBFB;stroke:none;}.aE-msng-cls-10{}.aE-msng-cls-11,.aE-msng-cls-12{fill:none;stroke:none;}.aE-msng-cls-11{stroke:#787878;stroke-width:6.25px;}</style></defs><title>ToothES_Layered</title><g class="aE-cls-1"><g id="_Ea">	<text transform="matrix(1 0 0 1 20.0122 20.508)" class="aE-cls-2 aE-cls-3 aE-cls-4">ES</text>	<g>		<g>			<g>				<path class="aE-cls-5" d="M41.2,126.4c-0.7-2.3-1.7-4-2.8-5.4c-0.2-6.3-1.2-14-2.6-21.8c-2.5-14.2-6.3-27-7.7-27.1      c-1.7-0.1-3.8,12.9-5.3,27c-0.8,7.4-1.4,14.9-1.7,21.3c-0.8,0.8-1.5,1.7-2,2.9c-2,5-4.7,17.4-4,20.6c0.7,3.4,9.8,4,14.1,4.4      c4.2,0.3,13.3-1.3,14.3-3.7C44.9,141.4,43,131.8,41.2,126.4z" />				<path class="aE-cls-6" d="M38.4,121.9c-0.2-6.4-1.2-14.5-2.6-22.7c-2.5-14.2-6.3-27-7.7-27.1c-1.7-0.1-3.8,12.9-5.3,27      c-0.9,8.3-1.6,16.7-1.7,23.6C21.1,124.8,38.5,124.3,38.4,121.9z" />				<g>					<path class="aE-cls-7" d="M29.3,121.1l-4.1,0.5c0,0,0.3-16.3,0.6-27.9c0.4-17.5,1.8-19.8,2.1-20.1c0.3-0.4-0.7,1.8-0.4,14.6       C27.7,96.2,29.3,121.1,29.3,121.1z" />				</g>				<g>					<path class="aE-cls-8" d="M34.8,98.6c-0.8-6.2-1.9-12.1-2.9-17c1.3,4.8,2.8,11.1,3.9,17.6c1.4,8.2,2.4,16.2,2.6,22.7       c0,0.4-0.6,0.8-1.5,1.1C36.8,116.1,36,107.4,34.8,98.6z" />					<path class="aE-cls-8" d="M22.9,99.1c1.1-10.5,2.5-20.4,3.9-24.7c-1,5.3-1.9,14.4-2.7,24c-0.7,8.8-1.3,17.7-1.4,25.1       c-0.9-0.2-1.4-0.5-1.4-0.9C21.3,115.9,22,107.5,22.9,99.1z" />				</g>			</g>			<g>				<path class="aE-cls-9" d="M43.5,144.6c1.3-3.2-0.5-12.8-2.3-18.3c-2-6-5.1-8.4-10.4-8.5c-5.3-0.1-9.8,1-11.6,5.5      c-2,5-4.7,17.4-4,20.6c0.7,3.4,9.8,4,14.1,4.4C33.5,148.7,42.5,147,43.5,144.6z" />				<g>					<path class="aE-cls-10" d="M39.3,126.7c-1-4.1-2.4-6.7-4.2-8.1c2.8,1.1,4.8,3.5,6.1,7.7c1.8,5.4,3.6,15,2.3,18.3       c-0.2,0.5-0.8,1-1.7,1.5C42.1,141,40.6,132.1,39.3,126.7z" />					<path class="aE-cls-10" d="M19.2,123.4c1-2.4,2.6-3.8,4.7-4.6c-1.3,0.9-2.3,2.4-3,4.5c-1.6,5.2-3.7,17.5-3.8,22.8       c-1.1-0.6-1.9-1.2-2-2.1C14.5,140.8,17.2,128.4,19.2,123.4z" />				</g>				<path class="aE-cls-11" d="M23.3,147.7c0.2-4.7,0.6-11.9,1.4-19.9c0.6-6,1.4-8.6,2-9.7c0.7-0.1,1.4-0.2,2.1-0.2      c-0.2,1.3-0.6,4.4-0.8,11.4c-0.2,6.6,0.1,14.3,0.3,19C27,148.2,25.2,148,23.3,147.7z" />			</g>		</g>	</g></g><defs><g id="aES_bone_graft" style="">	<g>		<g>							<ellipse transform="matrix(0.1539 -0.9881 0.9881 0.1539 -106.1107 120.5387)" class="aE-cls-14" cx="17.3" cy="122.2" rx="12.7" ry="12.7" data-color-action="stroke" style="stroke:inherit" />			<line class="aE-cls-14" x1="10.3" y1="112.6" x2="24.3" y2="131.8" data-color-action="stroke" style="stroke:inherit" />		</g>		<text transform="matrix(1 0 0 1 6.7033 126.808)" class="aE-cls-15 aE-cls-16">NA</text>	</g></g><g id="aES_splinted_crowns" style="">	<g>		<g>							<ellipse transform="matrix(0.1539 -0.9881 0.9881 0.1539 -106.1107 120.5387)" class="aE-cls-14" cx="17.3" cy="122.2" rx="12.7" ry="12.7" data-color-action="stroke" style="stroke:inherit" />			<line class="aE-cls-14" x1="10.3" y1="112.6" x2="24.3" y2="131.8" data-color-action="stroke" style="stroke:inherit" />		</g>		<text transform="matrix(1 0 0 1 6.7033 126.808)" class="aE-cls-15 aE-cls-16">NA</text>	</g></g><g id="aES_mesial" style="">	<path class="aE-cls-12" d="M39.5,136c-0.2,1.3-0.5,3.2-1.3,4.7l5.6,2.6c0.3-2.5-0.1-6.4-0.9-10.2C41.3,133.5,39.8,134.4,39.5,136z" data-color-action="fill" style="fill:inherit" /></g><g id="aES_line_angle_2" style="">	<path class="aE-cls-12" d="M35.7,142.6c-0.4,0.1-0.9,0.1-1.5,0.2l1.8,5c3.5-0.6,6.9-1.8,7.5-3.2c0.2-0.4,0.3-0.9,0.4-1.4l-5.6-2.6   C37.7,141.6,36.9,142.4,35.7,142.6z" data-color-action="fill" style="fill:inherit" /></g><g id="aES_facial" style="">	<path class="aE-cls-12" d="M25.2,142.6l-1.9,5.1c2.2,0.3,4.4,0.5,5.9,0.6c1.7,0.1,4.3-0.1,6.8-0.5l-1.8-5C31.8,143,28.1,143,25.2,142.6z   " data-color-action="fill" style="fill:inherit" /></g><g id="aES_line_angle_1" style="">	<path class="aE-cls-12" d="M22.3,142c-1.2-0.4-1.8-1-2.2-1.7l-5.1,2c0,0.7,0,1.2,0.1,1.6c0.5,2.1,4.3,3.2,8.1,3.7l1.9-5.1   C24.1,142.5,23.1,142.3,22.3,142z" data-color-action="fill" style="fill:inherit" /></g><g id="aES_distal" style="">	<path class="aE-cls-12" d="M20.1,140.4c-0.7-1.4-0.4-3.3-0.9-5.2c-0.3-1.2-1.5-1.8-2.8-2.2c-0.8,3.6-1.4,7.1-1.4,9.4L20.1,140.4z" data-color-action="fill" style="fill:inherit" /></g><g id="aES_mid_facial" style="">	<ellipse class="aE-cls-12" cx="29.9" cy="131.5" rx="3.4" ry="6.9" data-color-action="fill" style="fill:inherit" /></g><g id="aES_facial_V" style="">	<path class="aE-cls-12" d="M36.8,119.6c-1.6-1.1-3.6-1.7-6-1.7c-2.9-0.1-5.6,0.3-7.7,1.3c1.8,1.6,4.3,2.5,7.1,2.5   C32.7,121.7,35.1,120.9,36.8,119.6z" data-color-action="fill" style="fill:inherit" /></g><g id="aES_veneer" style="">	<g>		<g>							<ellipse transform="matrix(0.1539 -0.9881 0.9881 0.1539 -106.1107 120.5387)" class="aE-cls-14" cx="17.3" cy="122.2" rx="12.7" ry="12.7" data-color-action="stroke" style="stroke:inherit" />			<line class="aE-cls-14" x1="10.3" y1="112.6" x2="24.3" y2="131.8" data-color-action="stroke" style="stroke:inherit" />		</g>		<text transform="matrix(1 0 0 1 6.7033 126.808)" class="aE-cls-15 aE-cls-16">NA</text>	</g></g><g id="aES_tissue_graft" style="">	<g>		<g>							<ellipse transform="matrix(0.1539 -0.9881 0.9881 0.1539 -106.1107 120.5387)" class="aE-cls-14" cx="17.3" cy="122.2" rx="12.7" ry="12.7" data-color-action="stroke" style="stroke:inherit" />			<line class="aE-cls-14" x1="10.3" y1="112.6" x2="24.3" y2="131.8" data-color-action="stroke" style="stroke:inherit" />		</g>		<text transform="matrix(1 0 0 1 6.7033 126.808)" class="aE-cls-15 aE-cls-16">NA</text>	</g></g><g id="aES_tipped_lingual" style="">	<rect x="28" y="3.2" class="aE-cls-17" width="3" height="3" /></g><g id="aES_tipped_facial" style="">	<g>		<path class="aE-cls-18" d="M26.1,151.7c1.2,3.2,4.5,3.6,7.2-5c0.5-1.5,4.2-1.7,3.6,0c-1.9,5.7-5,9.6-8.5,8.7c-1.2-0.3-2.3-1.6-2.8-3.2    C25.8,152.1,26,151.8,26.1,151.7z" data-color-action="fill" style="fill:inherit" />		<polygon class="aE-cls-18" points="28,149 40.2,149 37.4,139.9   " data-color-action="fill" style="fill:inherit" />	</g></g><g id="aES_surface_restoration_incisal" style="">	<path class="aE-cls-19" d="M29.2,148.3c4.2,0.3,12.9-1.3,14.2-3.6l-6.5-4.3c0,0,0,0,0,0c-1.8,0.5-4.4,0.9-6.6,0.9c-0.2,0-0.5,0-0.6,0   l-0.2,0c-3.3-0.3-5.7-0.6-7.3-0.9c0,0,0,0,0,0l-6.7,4.3C17.3,147.4,25.3,148,29.2,148.3z" data-color-action="fill" style="fill:inherit" /></g><g id="aES_surface_restoration_mesial" style="">	<path class="aE-cls-19" d="M43.5,144.6c1.1-2.7,0-9.8-1.4-15.2c-3.4-0.9-6.1-3.2-7.5-6.3c1.2,7.4,2.3,15.7,2.4,17.4l6.5,4.3   C43.4,144.7,43.5,144.7,43.5,144.6z" data-color-action="fill" style="fill:inherit" /></g><g id="aES_surface_restoration_facial" style="">	<g>		<path class="aE-cls-19" d="M25.1,121c-0.2,1.3-0.6,2.6-1.2,3.7c-0.9,6.2-1.7,13.1-1.7,15.8c1.6,0.3,4.1,0.6,7.3,0.9l0.2,0    c0.2,0,0.4,0,0.6,0c2.1,0,4.8-0.5,6.6-0.9c-0.1-1.7-1.2-10-2.4-17.4c-0.3-0.7-0.6-1.5-0.8-2.3c-1.5,0.5-3,0.8-4.7,0.8    C27.7,121.6,26.3,121.4,25.1,121z" data-color-action="fill" style="fill:inherit" />			</g></g><g id="aES_surface_restoration_facial_V" style="">	<g>				<path class="aE-cls-19" d="M33.6,118.2c-0.8-0.2-1.8-0.3-2.8-0.3c-2,0-4,0.1-5.7,0.6c0,0.3,0,0.6,0,0.9c0,0.6-0.1,1.1-0.1,1.7    c1.3,0.4,2.7,0.6,4.1,0.6c1.7,0,3.2-0.3,4.7-0.8c-0.2-0.8-0.3-1.6-0.3-2.5C33.6,118.2,33.6,118.2,33.6,118.2z" data-color-action="fill" style="fill:inherit" />	</g></g><g id="aES_surface_restoration_distal" style="">	<path class="aE-cls-19" d="M23.9,124.7c-1.4,2.7-3.8,4.7-6.8,5.6c-1.3,5.4-2.4,11.6-1.9,13.7c0.1,0.3,0.2,0.5,0.3,0.7l6.7-4.3   C22.2,137.7,23,130.9,23.9,124.7z" data-color-action="fill" style="fill:inherit" /></g><g id="aES_supra-erupted" style="">	<g>		<g>							<ellipse transform="matrix(0.1539 -0.9881 0.9881 0.1539 -106.1107 120.5387)" class="aE-cls-14" cx="17.3" cy="122.2" rx="12.7" ry="12.7" data-color-action="stroke" style="stroke:inherit" />			<line class="aE-cls-14" x1="10.3" y1="112.6" x2="24.3" y2="131.8" data-color-action="stroke" style="stroke:inherit" />		</g>		<text transform="matrix(1 0 0 1 6.7033 126.808)" class="aE-cls-15 aE-cls-16">NA</text>	</g></g><g id="aES_sub-erupted" style="">	<g>		<g>			<line class="aE-cls-20" x1="29.5" y1="109.5" x2="29.5" y2="116.4" data-color-action="stroke" style="stroke:inherit" />			<g>				<polygon class="aE-cls-21" points="25.5,110.7 29.5,103.8 33.5,110.7     " data-color-action="fill" style="fill:inherit" />			</g>		</g>	</g></g><g id="aES_sealant" style=""><text class="aE-cls-31" transform="matrix(1 0 0 1 19.7 200.47)" data-color-action="fill" style="fill:inherit">S</text></g><g id="aES_rotated_mesial" style="">	<g>		<path class="aE-cls-18" d="M8.1,127c-2.8,1.7-2.2,5.1,9.6,5.5c5,0.1,8.4,0,8.4,0l-0.1,2.8c0,0-0.9,0.1-7.7-0.2    c-7.2-0.3-13.2-1.7-12.9-5.6c0.1-1,1-2.1,2.2-2.7C7.7,126.8,7.9,127,8.1,127z" data-color-action="fill" style="fill:inherit" />		<polygon class="aE-cls-18" points="20,128.2 20,139.4 29.8,133.9   " data-color-action="fill" style="fill:inherit" />	</g></g><g id="aES_rotated_distal" style="">	<g>		<path class="aE-cls-18" d="M51.2,127c2.8,1.7,2.2,5.1-9.6,5.5c-5,0.1-8.4,0-8.4,0l0.1,2.8c0,0,0.9,0.1,7.7-0.2    c7.2-0.3,13.2-1.7,12.9-5.6c-0.1-1-1-2.1-2.2-2.7C51.5,126.8,51.3,127,51.2,127z" data-color-action="fill" style="fill:inherit" />		<polygon class="aE-cls-18" points="39.3,128.2 39.3,139.4 29.5,133.9   " data-color-action="fill" style="fill:inherit" />	</g></g><g id="aES_root_tips" style="">	<g>		<g>							<ellipse transform="matrix(0.1539 -0.9881 0.9881 0.1539 -106.1107 120.5387)" class="aE-cls-14" cx="17.3" cy="122.2" rx="12.7" ry="12.7" data-color-action="stroke" style="stroke:inherit" />			<line class="aE-cls-14" x1="10.3" y1="112.6" x2="24.3" y2="131.8" data-color-action="stroke" style="stroke:inherit" />		</g>		<text transform="matrix(1 0 0 1 6.7033 126.808)" class="aE-cls-15 aE-cls-16">NA</text>	</g></g><g id="aES_root_decay" style="">	<g>		<g>							<ellipse transform="matrix(0.1539 -0.9881 0.9881 0.1539 -106.1107 120.5387)" class="aE-cls-14" cx="17.3" cy="122.2" rx="12.7" ry="12.7" data-color-action="stroke" style="stroke:inherit" />			<line class="aE-cls-14" x1="10.3" y1="112.6" x2="24.3" y2="131.8" data-color-action="stroke" style="stroke:inherit" />		</g>		<text transform="matrix(1 0 0 1 6.7033 126.808)" class="aE-cls-15 aE-cls-16">NA</text>	</g></g><g id="aES_root_canal" style="">	<line class="aE-cls-22" x1="28.5" y1="76.7" x2="29.6" y2="115.5" data-color-action="stroke" style="stroke:inherit" /></g><g id="aES_root_abrasion" style="">	<g>		<g>							<ellipse transform="matrix(0.1539 -0.9881 0.9881 0.1539 -106.1107 120.5387)" class="aE-cls-14" cx="17.3" cy="122.2" rx="12.7" ry="12.7" data-color-action="stroke" style="stroke:inherit" />			<line class="aE-cls-14" x1="10.3" y1="112.6" x2="24.3" y2="131.8" data-color-action="stroke" style="stroke:inherit" />		</g>		<text transform="matrix(1 0 0 1 6.7033 126.808)" class="aE-cls-15 aE-cls-16">NA</text>	</g></g><g id="aES_pins" style="">	<g>		<g>			<rect x="26.4" y="106.7" class="aE-cls-19" width="2.3" height="22" data-color-action="fill" style="fill:inherit" />			<rect x="27" y="106.7" class="aE-cls-23" width="0.3" height="22" />		</g>		<g>			<rect x="30.7" y="106.7" class="aE-cls-19" width="2.3" height="22" data-color-action="fill" style="fill:inherit" />			<rect x="31.3" y="106.7" class="aE-cls-23" width="0.3" height="22" />		</g>	</g></g><g id="aES_post" style="">	<g>		<g>							<ellipse transform="matrix(0.1539 -0.9881 0.9881 0.1539 -106.1107 120.5387)" class="aE-cls-14" cx="17.3" cy="122.2" rx="12.7" ry="12.7" data-color-action="stroke" style="stroke:inherit" />			<line class="aE-cls-14" x1="10.3" y1="112.6" x2="24.3" y2="131.8" data-color-action="stroke" style="stroke:inherit" />		</g>		<text transform="matrix(1 0 0 1 6.7033 126.808)" class="aE-cls-15 aE-cls-16">NA</text>	</g></g><g id="aES_open_contact_mesial" style="">	<g>		<g>							<ellipse transform="matrix(0.1539 -0.9881 0.9881 0.1539 -106.1107 120.5387)" class="aE-cls-14" cx="17.3" cy="122.2" rx="12.7" ry="12.7" data-color-action="stroke" style="stroke:inherit" />			<line class="aE-cls-14" x1="10.3" y1="112.6" x2="24.3" y2="131.8" data-color-action="stroke" style="stroke:inherit" />		</g>		<text transform="matrix(1 0 0 1 6.7033 126.808)" class="aE-cls-15 aE-cls-16">NA</text>	</g></g><g id="aES_open_contact_distal" style="">	<g>		<g>							<ellipse transform="matrix(0.1539 -0.9881 0.9881 0.1539 -106.1107 120.5387)" class="aE-cls-14" cx="17.3" cy="122.2" rx="12.7" ry="12.7" data-color-action="stroke" style="stroke:inherit" />			<line class="aE-cls-14" x1="10.3" y1="112.6" x2="24.3" y2="131.8" data-color-action="stroke" style="stroke:inherit" />		</g>		<text transform="matrix(1 0 0 1 6.7033 126.808)" class="aE-cls-15 aE-cls-16">NA</text>	</g></g><g id="aES_mesial_drift" style="">	<g>		<g>			<line class="aE-cls-25" x1="32.1" y1="133.6" x2="21.2" y2="133.6" data-color-action="stroke" style="stroke:inherit" />			<g>				<polygon class="aE-cls-18" points="30.9,129.6 37.8,133.6 30.9,137.6     " data-color-action="fill" style="fill:inherit" />			</g>		</g>	</g></g><g id="aES_lingual_abfraction" style="">	<g>		<g>							<ellipse transform="matrix(0.1539 -0.9881 0.9881 0.1539 -106.1107 120.5387)" class="aE-cls-14" cx="17.3" cy="122.2" rx="12.7" ry="12.7" data-color-action="stroke" style="stroke:inherit" />			<line class="aE-cls-14" x1="10.3" y1="112.6" x2="24.3" y2="131.8" data-color-action="stroke" style="stroke:inherit" />		</g>		<text transform="matrix(1 0 0 1 6.7033 126.808)" class="aE-cls-15 aE-cls-16">NA</text>	</g></g><g id="aES_internal_root_resorption" style="">	<g>		<g>							<ellipse transform="matrix(0.1539 -0.9881 0.9881 0.1539 -106.1107 120.5387)" class="aE-cls-14" cx="17.3" cy="122.2" rx="12.7" ry="12.7" data-color-action="stroke" style="stroke:inherit" />			<line class="aE-cls-14" x1="10.3" y1="112.6" x2="24.3" y2="131.8" data-color-action="stroke" style="stroke:inherit" />		</g>		<text transform="matrix(1 0 0 1 6.7033 126.808)" class="aE-cls-15 aE-cls-16">NA</text>	</g></g><g id="aES_impacted_mesial" style="">	<g>		<g>							<ellipse transform="matrix(0.1539 -0.9881 0.9881 0.1539 -106.1107 120.5387)" class="aE-cls-14" cx="17.3" cy="122.2" rx="12.7" ry="12.7" data-color-action="stroke" style="stroke:inherit" />			<line class="aE-cls-14" x1="10.3" y1="112.6" x2="24.3" y2="131.8" data-color-action="stroke" style="stroke:inherit" />		</g>		<text transform="matrix(1 0 0 1 6.7033 126.808)" class="aE-cls-15 aE-cls-16">NA</text>	</g></g><g id="aES_impacted_distal" style="">	<g>		<g>							<ellipse transform="matrix(0.1539 -0.9881 0.9881 0.1539 -106.1107 120.5387)" class="aE-cls-14" cx="17.3" cy="122.2" rx="12.7" ry="12.7" data-color-action="stroke" style="stroke:inherit" />			<line class="aE-cls-14" x1="10.3" y1="112.6" x2="24.3" y2="131.8" data-color-action="stroke" style="stroke:inherit" />		</g>		<text transform="matrix(1 0 0 1 6.7033 126.808)" class="aE-cls-15 aE-cls-16">NA</text>	</g></g><g id="aES_gortex_membranes" style="">	<g>		<g>							<ellipse transform="matrix(0.1539 -0.9881 0.9881 0.1539 -106.1107 120.5387)" class="aE-cls-14" cx="17.3" cy="122.2" rx="12.7" ry="12.7" data-color-action="stroke" style="stroke:inherit" />			<line class="aE-cls-14" x1="10.3" y1="112.6" x2="24.3" y2="131.8" data-color-action="stroke" style="stroke:inherit" />		</g>		<text transform="matrix(1 0 0 1 6.7033 126.808)" class="aE-cls-15 aE-cls-16">NA</text>	</g></g><g id="aES_frenum_pull" style="">	<g>		<g>							<ellipse transform="matrix(0.1539 -0.9881 0.9881 0.1539 -106.1107 120.5387)" class="aE-cls-14" cx="17.3" cy="122.2" rx="12.7" ry="12.7" data-color-action="stroke" style="stroke:inherit" />			<line class="aE-cls-14" x1="10.3" y1="112.6" x2="24.3" y2="131.8" data-color-action="stroke" style="stroke:inherit" />		</g>		<text transform="matrix(1 0 0 1 6.7033 126.808)" class="aE-cls-15 aE-cls-16">NA</text>	</g></g><g id="aES_external_root_resorption" style="">	<g>		<g>							<ellipse transform="matrix(0.1539 -0.9881 0.9881 0.1539 -106.1107 120.5387)" class="aE-cls-14" cx="17.3" cy="122.2" rx="12.7" ry="12.7" data-color-action="stroke" style="stroke:inherit" />			<line class="aE-cls-14" x1="10.3" y1="112.6" x2="24.3" y2="131.8" data-color-action="stroke" style="stroke:inherit" />		</g>		<text transform="matrix(1 0 0 1 6.7033 126.808)" class="aE-cls-15 aE-cls-16">NA</text>	</g></g><g id="aES_diastema_mesial" style="">	<g>		<g>							<ellipse transform="matrix(0.1539 -0.9881 0.9881 0.1539 -106.1107 120.5387)" class="aE-cls-14" cx="17.3" cy="122.2" rx="12.7" ry="12.7" data-color-action="stroke" style="stroke:inherit" />			<line class="aE-cls-14" x1="10.3" y1="112.6" x2="24.3" y2="131.8" data-color-action="stroke" style="stroke:inherit" />		</g>		<text transform="matrix(1 0 0 1 6.7033 126.808)" class="aE-cls-15 aE-cls-16">NA</text>	</g></g><g id="aES_diastema_distal" style="">	<g>		<g>							<ellipse transform="matrix(0.1539 -0.9881 0.9881 0.1539 -106.1107 120.5387)" class="aE-cls-14" cx="17.3" cy="122.2" rx="12.7" ry="12.7" data-color-action="stroke" style="stroke:inherit" />			<line class="aE-cls-14" x1="10.3" y1="112.6" x2="24.3" y2="131.8" data-color-action="stroke" style="stroke:inherit" />		</g>		<text transform="matrix(1 0 0 1 6.7033 126.808)" class="aE-cls-15 aE-cls-16">NA</text>	</g></g><g id="aES_distal_drift" style="">	<g>		<g>			<line class="aE-cls-25" x1="26.9" y1="133.6" x2="37.8" y2="133.6" data-color-action="stroke" style="stroke:inherit" />			<g>				<polygon class="aE-cls-18" points="28.1,137.6 21.2,133.6 28.1,129.6     " data-color-action="fill" style="fill:inherit" />			</g>		</g>	</g></g><g id="aES_three_quarter_crown" style="">	<g>		<g>							<ellipse transform="matrix(0.1539 -0.9881 0.9881 0.1539 -106.1107 120.5387)" class="aE-cls-14" cx="17.3" cy="122.2" rx="12.7" ry="12.7" data-color-action="stroke" style="stroke:inherit" />			<line class="aE-cls-14" x1="10.3" y1="112.6" x2="24.3" y2="131.8" data-color-action="stroke" style="stroke:inherit" />		</g>		<text transform="matrix(1 0 0 1 6.7033 126.808)" class="aE-cls-15 aE-cls-16">NA</text>	</g></g><g id="aES_crown" style="">	<path class="aE-cls-26" d="M43.5,144.6c1.3-3.2-0.5-12.8-2.3-18.3c-2-6-5.1-8.4-10.4-8.5c-5.3-0.1-9.8,1-11.6,5.5c-2,5-4.7,17.4-4,20.6   c0.7,3.4,9.8,4,14.1,4.4C33.5,148.7,42.5,147,43.5,144.6z" data-color-action="fill" style="fill:inherit" /></g><g id="aES_cracked_surface_incisal" style="">	<polyline class="aE-cls-27" points="28.2,139.3 32,143.1 27,143.1 32,147.9 27,147.9 30.8,151.7  " data-color-action="stroke" style="stroke:inherit" /></g><g id="aES_cracked_surface_mesial" style="">	<polyline class="aE-cls-27" points="38.7,125.8 42.6,129.7 37.6,129.7 42.6,134.4 37.6,134.4 41.4,138.2  " data-color-action="stroke" style="stroke:inherit" /></g><g id="aES_cracked_surface_facial" style="">	<polyline class="aE-cls-27" points="28.2,125.8 32,129.7 27,129.7 32,134.4 27,134.4 30.8,138.2  " data-color-action="stroke" style="stroke:inherit" /></g><g id="aES_cracked_surface_facial_V" style="">	<polyline class="aE-cls-27" points="28.2,125.8 32,129.7 27,129.7 32,134.4 27,134.4 30.8,138.2  " data-color-action="stroke" style="stroke:inherit" /></g><g id="aES_cracked_surface_distal" style="">	<polyline class="aE-cls-27" points="17.8,125.8 21.7,129.7 16.7,129.7 21.7,134.4 16.7,134.4 20.5,138.2  " data-color-action="stroke" style="stroke:inherit" /></g><g id="aES_chipped_surface_incisal" style="">	<g>		<line class="aE-cls-27" x1="25.7" y1="141" x2="34" y2="149.3" data-color-action="stroke" style="stroke:inherit" />		<line class="aE-cls-27" x1="34" y1="141" x2="25.7" y2="149.3" data-color-action="stroke" style="stroke:inherit" />	</g></g><g id="aES_chipped_surface_mesial" style="">	<g>		<line class="aE-cls-27" x1="35.2" y1="127.5" x2="43.6" y2="135.8" data-color-action="stroke" style="stroke:inherit" />		<line class="aE-cls-27" x1="43.6" y1="127.5" x2="35.2" y2="135.8" data-color-action="stroke" style="stroke:inherit" />	</g></g><g id="aES_chipped_surface_facial" style="">	<g>		<line class="aE-cls-27" x1="25.7" y1="127.5" x2="34" y2="135.8" data-color-action="stroke" style="stroke:inherit" />		<line class="aE-cls-27" x1="34" y1="127.5" x2="25.7" y2="135.8" data-color-action="stroke" style="stroke:inherit" />	</g></g><g id="aES_chipped_surface_facial_V" style="">	<g>		<line class="aE-cls-27" x1="25.7" y1="127.5" x2="34" y2="135.8" data-color-action="stroke" style="stroke:inherit" />		<line class="aE-cls-27" x1="34" y1="127.5" x2="25.7" y2="135.8" data-color-action="stroke" style="stroke:inherit" />	</g></g><g id="aES_chipped_surface_distal" style="">	<g>		<line class="aE-cls-27" x1="16.2" y1="127.5" x2="24.5" y2="135.8" data-color-action="stroke" style="stroke:inherit" />		<line class="aE-cls-27" x1="24.5" y1="127.5" x2="16.2" y2="135.8" data-color-action="stroke" style="stroke:inherit" />	</g></g><g id="aES_buccal_abfraction" style="">	<g>		<g>							<ellipse transform="matrix(0.1539 -0.9881 0.9881 0.1539 -106.1107 120.5387)" class="aE-cls-14" cx="17.3" cy="122.2" rx="12.7" ry="12.7" data-color-action="stroke" style="stroke:inherit" />			<line class="aE-cls-14" x1="10.3" y1="112.6" x2="24.3" y2="131.8" data-color-action="stroke" style="stroke:inherit" />		</g>		<text transform="matrix(1 0 0 1 6.7033 126.808)" class="aE-cls-15 aE-cls-16">NA</text>	</g></g><g id="aES_braces" style="">	<g>		<g>			<rect x="22.6" y="124" class="aE-cls-23" width="13.5" height="18.2" />			<rect x="22.6" y="141.5" class="aE-cls-28" width="13.5" height="0.7" data-color-action="fill" style="fill:inherit" />			<rect x="22.6" y="133.2" class="aE-cls-28" width="13.5" height="1.4" data-color-action="fill" style="fill:inherit" />			<rect x="22.6" y="124" class="aE-cls-29" width="13.5" height="0.9" data-color-action="fill" style="fill:inherit" />			<g>				<g>					<g>						<path class="aE-cls-30" d="M25.9,124h-3.1c-0.3,0-0.5,0.2-0.5,0.5v7c0,0.3,0.2,0.5,0.5,0.5h3.1c0.3,0,0.5-0.2,0.5-0.5v-7        C26.4,124.2,26.2,124,25.9,124z" data-color-action="fill" style="fill:inherit" />						<path class="aE-cls-19" d="M25.9,124h-3.1c-0.3,0-0.5,0.2-0.5,0.5v5.8c0.7,0.1,1.3,0.2,2,0.2c0.7,0,1.4-0.1,2.1-0.2v-5.8        C26.4,124.2,26.2,124,25.9,124z" data-color-action="fill" style="fill:inherit" />						<path class="aE-cls-23" d="M26.1,125.4v-1.1c0-0.1-0.1-0.2-0.2-0.2h-3.1c-0.1,0-0.2,0.1-0.2,0.2v1.1H26.1z" />					</g>					<g>						<path class="aE-cls-30" d="M35.8,124h-3.1c-0.3,0-0.5,0.2-0.5,0.5v7c0,0.3,0.2,0.5,0.5,0.5h3.1c0.3,0,0.5-0.2,0.5-0.5v-7        C36.3,124.2,36.1,124,35.8,124z" data-color-action="fill" style="fill:inherit" />						<path class="aE-cls-19" d="M35.8,124h-3.1c-0.3,0-0.5,0.2-0.5,0.5v5.8c0.7,0.1,1.3,0.2,2,0.2c0.7,0,1.4-0.1,2.1-0.2v-5.8        C36.3,124.2,36.1,124,35.8,124z" data-color-action="fill" style="fill:inherit" />						<path class="aE-cls-23" d="M36,125.4v-1.1c0-0.1-0.1-0.2-0.2-0.2h-3.1c-0.1,0-0.2,0.1-0.2,0.2v1.1H36z" />					</g>				</g>				<g>					<g>						<path class="aE-cls-30" d="M25.9,134.3h-3.1c-0.3,0-0.5,0.2-0.5,0.5v7c0,0.3,0.2,0.5,0.5,0.5h3.1c0.3,0,0.5-0.2,0.5-0.5v-7        C26.4,134.5,26.2,134.3,25.9,134.3z" data-color-action="fill" style="fill:inherit" />						<path class="aE-cls-19" d="M25.9,134.3h-3.1c-0.3,0-0.5,0.2-0.5,0.5v5.8c0.7,0.1,1.3,0.2,2,0.2c0.7,0,1.4-0.1,2.1-0.2v-5.8        C26.4,134.5,26.2,134.3,25.9,134.3z" data-color-action="fill" style="fill:inherit" />						<path class="aE-cls-23" d="M26.1,135.7v-1.1c0-0.1-0.1-0.2-0.2-0.2h-3.1c-0.1,0-0.2,0.1-0.2,0.2v1.1H26.1z" />					</g>					<g>						<path class="aE-cls-30" d="M35.8,134.3h-3.1c-0.3,0-0.5,0.2-0.5,0.5v7c0,0.3,0.2,0.5,0.5,0.5h3.1c0.3,0,0.5-0.2,0.5-0.5v-7        C36.3,134.5,36.1,134.3,35.8,134.3z" data-color-action="fill" style="fill:inherit" />						<path class="aE-cls-19" d="M35.8,134.3h-3.1c-0.3,0-0.5,0.2-0.5,0.5v5.8c0.7,0.1,1.3,0.2,2,0.2c0.7,0,1.4-0.1,2.1-0.2v-5.8        C36.3,134.5,36.1,134.3,35.8,134.3z" data-color-action="fill" style="fill:inherit" />						<path class="aE-cls-23" d="M36,135.7v-1.1c0-0.1-0.1-0.2-0.2-0.2h-3.1c-0.1,0-0.2,0.1-0.2,0.2v1.1H36z" />					</g>				</g>			</g>		</g>		<g>			<rect x="8.2" y="132.4" class="aE-cls-19" width="42.2" height="1.4" data-color-action="fill" style="fill:inherit" />			<rect x="8.2" y="133.6" class="aE-cls-30" width="42.2" height="0.2" data-color-action="fill" style="fill:inherit" />			<rect x="8.2" y="132.6" class="aE-cls-23" width="42.2" height="0.4" />		</g>	</g></g><g id="aES_apicoectomy" style="">	<g>		<g>							<ellipse transform="matrix(0.1539 -0.9881 0.9881 0.1539 -106.1107 120.5387)" class="aE-cls-14" cx="17.3" cy="122.2" rx="12.7" ry="12.7" data-color-action="stroke" style="stroke:inherit" />			<line class="aE-cls-14" x1="10.3" y1="112.6" x2="24.3" y2="131.8" data-color-action="stroke" style="stroke:inherit" />		</g>		<text transform="matrix(1 0 0 1 6.7033 126.808)" class="aE-cls-15 aE-cls-16">NA</text>	</g></g><g id="aES_abscess" style="">	<circle class="aE-cls-18" cx="29.5" cy="69.8" r="6.1" data-color-action="fill" style="fill:inherit" /></g><g id="aES_blunted_roots" style="">	<g>		<g>							<ellipse transform="matrix(0.1539 -0.9881 0.9881 0.1539 -106.1107 120.5387)" class="aE-cls-14" cx="17.3" cy="122.2" rx="12.7" ry="12.7" data-color-action="stroke" style="stroke:inherit" />			<line class="aE-cls-14" x1="10.3" y1="112.6" x2="24.3" y2="131.8" data-color-action="stroke" style="stroke:inherit" />		</g>		<text transform="matrix(1 0 0 1 6.7033 126.808)" class="aE-cls-15 aE-cls-16">NA</text>	</g></g><g id="aES_root_amputation" style="">	<g>		<g>							<ellipse transform="matrix(0.1539 -0.9881 0.9881 0.1539 -106.1107 120.5387)" class="aE-cls-14" cx="17.3" cy="122.2" rx="12.7" ry="12.7" data-color-action="stroke" style="stroke:inherit" />			<line class="aE-cls-14" x1="10.3" y1="112.6" x2="24.3" y2="131.8" data-color-action="stroke" style="stroke:inherit" />		</g>		<text transform="matrix(1 0 0 1 6.7033 126.808)" class="aE-cls-15 aE-cls-16">NA</text>	</g></g><g id="aES_missing_crown" style="">	<g>		<g>							<ellipse transform="matrix(0.1539 -0.9881 0.9881 0.1539 -106.1107 120.5387)" class="aE-cls-14" cx="17.3" cy="122.2" rx="12.7" ry="12.7" data-color-action="stroke" style="stroke:inherit" />			<line class="aE-cls-14" x1="10.3" y1="112.6" x2="24.3" y2="131.8" data-color-action="stroke" style="stroke:inherit" />		</g>		<text transform="matrix(1 0 0 1 6.7033 126.808)" class="aE-cls-15 aE-cls-16">NA</text>	</g></g><g id="aES_missing_tooth" style="" data-name="missing tooth">	<g>		<g>			<g>				<path class="aE-cls-5" d="M41.2,126.4c-0.7-2.3-1.7-4-2.8-5.4c-0.2-6.3-1.2-14-2.6-21.8c-2.5-14.2-6.3-27-7.7-27.1      c-1.7-0.1-3.8,12.9-5.3,27c-0.8,7.4-1.4,14.9-1.7,21.3c-0.8,0.8-1.5,1.7-2,2.9c-2,5-4.7,17.4-4,20.6c0.7,3.4,9.8,4,14.1,4.4      c4.2,0.3,13.3-1.3,14.3-3.7C44.9,141.4,43,131.8,41.2,126.4z" data-color-action="fill,stroke" style="fill,stroke:inherit" />				<path class="aE-cls-24" d="M38.4,121.9c-0.2-6.4-1.2-14.5-2.6-22.7c-2.5-14.2-6.3-27-7.7-27.1c-1.7-0.1-3.8,12.9-5.3,27      c-0.9,8.3-1.6,16.7-1.7,23.6C21.1,124.8,38.5,124.3,38.4,121.9z" />				<g>					<path class="aE-cls-24" d="M29.3,121.1l-4.1,0.5c0,0,0.3-16.3,0.6-27.9c0.4-17.5,1.8-19.8,2.1-20.1c0.3-0.4-0.7,1.8-0.4,14.6       C27.7,96.2,29.3,121.1,29.3,121.1z" />				</g>				<g>					<path class="aE-cls-24" d="M34.8,98.6c-0.8-6.2-1.9-12.1-2.9-17c1.3,4.8,2.8,11.1,3.9,17.6c1.4,8.2,2.4,16.2,2.6,22.7       c0,0.4-0.6,0.8-1.5,1.1C36.8,116.1,36,107.4,34.8,98.6z" />					<path class="aE-cls-24" d="M22.9,99.1c1.1-10.5,2.5-20.4,3.9-24.7c-1,5.3-1.9,14.4-2.7,24c-0.7,8.8-1.3,17.7-1.4,25.1       c-0.9-0.2-1.4-0.5-1.4-0.9C21.3,115.9,22,107.5,22.9,99.1z" />				</g>			</g>			<g>				<path class="aE-cls-24" d="M43.5,144.6c1.3-3.2-0.5-12.8-2.3-18.3c-2-6-5.1-8.4-10.4-8.5c-5.3-0.1-9.8,1-11.6,5.5      c-2,5-4.7,17.4-4,20.6c0.7,3.4,9.8,4,14.1,4.4C33.5,148.7,42.5,147,43.5,144.6z" />				<g>					<path class="aE-cls-24" d="M39.3,126.7c-1-4.1-2.4-6.7-4.2-8.1c2.8,1.1,4.8,3.5,6.1,7.7c1.8,5.4,3.6,15,2.3,18.3       c-0.2,0.5-0.8,1-1.7,1.5C42.1,141,40.6,132.1,39.3,126.7z" />					<path class="aE-cls-24" d="M19.2,123.4c1-2.4,2.6-3.8,4.7-4.6c-1.3,0.9-2.3,2.4-3,4.5c-1.6,5.2-3.7,17.5-3.8,22.8       c-1.1-0.6-1.9-1.2-2-2.1C14.5,140.8,17.2,128.4,19.2,123.4z" />				</g>				<path class="aE-cls-24" d="M23.3,147.7c0.2-4.7,0.6-11.9,1.4-19.9c0.6-6,1.4-8.6,2-9.7c0.7-0.1,1.4-0.2,2.1-0.2      c-0.2,1.3-0.6,4.4-0.8,11.4c-0.2,6.6,0.1,14.3,0.3,19C27,148.2,25.2,148,23.3,147.7z" />			</g>		</g>	</g></g><g id="aES_extracted_tooth" data-name="extracted tooth" style=""><g class="aE-msng-cls-10"><line class="aE-msng-cls-11" x1="9" y1="108.83" x2="50.67" y2="150.49" data-color-action="stroke" style="stroke:inherit" /><line class="aE-msng-cls-11" x1="50.67" y1="108.83" x2="9" y2="150.49" data-color-action="stroke" style="stroke:inherit" /></g></g><g id="aES_denture" style="">	<g>		<g>							<ellipse transform="matrix(0.1539 -0.9881 0.9881 0.1539 -106.1107 120.5387)" class="aE-cls-14" cx="17.3" cy="122.2" rx="12.7" ry="12.7" data-color-action="stroke" style="stroke:inherit" />			<line class="aE-cls-14" x1="10.3" y1="112.6" x2="24.3" y2="131.8" data-color-action="stroke" style="stroke:inherit" />		</g>		<text transform="matrix(1 0 0 1 6.7033 126.808)" class="aE-cls-15 aE-cls-16">NA</text>	</g></g><g id="aES_maryland_bridge_pontic" style="">	<g>		<g>							<ellipse transform="matrix(0.1539 -0.9881 0.9881 0.1539 -106.1107 120.5387)" class="aE-cls-14" cx="17.3" cy="122.2" rx="12.7" ry="12.7" data-color-action="stroke" style="stroke:inherit" />			<line class="aE-cls-14" x1="10.3" y1="112.6" x2="24.3" y2="131.8" data-color-action="stroke" style="stroke:inherit" />		</g>		<text transform="matrix(1 0 0 1 6.7033 126.808)" class="aE-cls-15 aE-cls-16">NA</text>	</g></g><g id="aES_maryland_bridge_abutment_mesial" style="">	<g>		<g>							<ellipse transform="matrix(0.1539 -0.9881 0.9881 0.1539 -106.1107 120.5387)" class="aE-cls-14" cx="17.3" cy="122.2" rx="12.7" ry="12.7" data-color-action="stroke" style="stroke:inherit" />			<line class="aE-cls-14" x1="10.3" y1="112.6" x2="24.3" y2="131.8" data-color-action="stroke" style="stroke:inherit" />		</g>		<text transform="matrix(1 0 0 1 6.7033 126.808)" class="aE-cls-15 aE-cls-16">NA</text>	</g></g><g id="aES_maryland_bridge_abutment_distal" style="">	<g>		<g>							<ellipse transform="matrix(0.1539 -0.9881 0.9881 0.1539 -106.1107 120.5387)" class="aE-cls-14" cx="17.3" cy="122.2" rx="12.7" ry="12.7" data-color-action="stroke" style="stroke:inherit" />			<line class="aE-cls-14" x1="10.3" y1="112.6" x2="24.3" y2="131.8" data-color-action="stroke" style="stroke:inherit" />		</g>		<text transform="matrix(1 0 0 1 6.7033 126.808)" class="aE-cls-15 aE-cls-16">NA</text>	</g></g><g id="aES_maryland_bridge_abutment" style="">	<g>		<g>							<ellipse transform="matrix(0.1539 -0.9881 0.9881 0.1539 -106.1107 120.5387)" class="aE-cls-14" cx="17.3" cy="122.2" rx="12.7" ry="12.7" data-color-action="stroke" style="stroke:inherit" />			<line class="aE-cls-14" x1="10.3" y1="112.6" x2="24.3" y2="131.8" data-color-action="stroke" style="stroke:inherit" />		</g>		<text transform="matrix(1 0 0 1 6.7033 126.808)" class="aE-cls-15 aE-cls-16">NA</text>	</g></g><g id="aES_bridge_abutment_mesial" style="">	<g>		<g>							<ellipse transform="matrix(0.1539 -0.9881 0.9881 0.1539 -106.1107 120.5387)" class="aE-cls-14" cx="17.3" cy="122.2" rx="12.7" ry="12.7" data-color-action="stroke" style="stroke:inherit" />			<line class="aE-cls-14" x1="10.3" y1="112.6" x2="24.3" y2="131.8" data-color-action="stroke" style="stroke:inherit" />		</g>		<text transform="matrix(1 0 0 1 6.7033 126.808)" class="aE-cls-15 aE-cls-16">NA</text>	</g></g><g id="aES_bridge_abutment_distal" style="">	<g>		<g>							<ellipse transform="matrix(0.1539 -0.9881 0.9881 0.1539 -106.1107 120.5387)" class="aE-cls-14" cx="17.3" cy="122.2" rx="12.7" ry="12.7" data-color-action="stroke" style="stroke:inherit" />			<line class="aE-cls-14" x1="10.3" y1="112.6" x2="24.3" y2="131.8" data-color-action="stroke" style="stroke:inherit" />		</g>		<text transform="matrix(1 0 0 1 6.7033 126.808)" class="aE-cls-15 aE-cls-16">NA</text>	</g></g><g id="aES_bridge_abutment" style="">	<g>		<g>							<ellipse transform="matrix(0.1539 -0.9881 0.9881 0.1539 -106.1107 120.5387)" class="aE-cls-14" cx="17.3" cy="122.2" rx="12.7" ry="12.7" data-color-action="stroke" style="stroke:inherit" />			<line class="aE-cls-14" x1="10.3" y1="112.6" x2="24.3" y2="131.8" data-color-action="stroke" style="stroke:inherit" />		</g>		<text transform="matrix(1 0 0 1 6.7033 126.808)" class="aE-cls-15 aE-cls-16">NA</text>	</g></g><g id="aES_bridge_pontic" style="">	<g>		<g>							<ellipse transform="matrix(0.1539 -0.9881 0.9881 0.1539 -106.1107 120.5387)" class="aE-cls-14" cx="17.3" cy="122.2" rx="12.7" ry="12.7" data-color-action="stroke" style="stroke:inherit" />			<line class="aE-cls-14" x1="10.3" y1="112.6" x2="24.3" y2="131.8" data-color-action="stroke" style="stroke:inherit" />		</g>		<text transform="matrix(1 0 0 1 6.7033 126.808)" class="aE-cls-15 aE-cls-16">NA</text>	</g></g><g id="aES_implant_mini" style="">	<g>		<g>							<ellipse transform="matrix(0.1539 -0.9881 0.9881 0.1539 -106.1107 120.5387)" class="aE-cls-14" cx="17.3" cy="122.2" rx="12.7" ry="12.7" data-color-action="stroke" style="stroke:inherit" />			<line class="aE-cls-14" x1="10.3" y1="112.6" x2="24.3" y2="131.8" data-color-action="stroke" style="stroke:inherit" />		</g>		<text transform="matrix(1 0 0 1 6.7033 126.808)" class="aE-cls-15 aE-cls-16">NA</text>	</g></g><g id="aES_implant_cylinder" style="">	<g>		<g>							<ellipse transform="matrix(0.1539 -0.9881 0.9881 0.1539 -106.1107 120.5387)" class="aE-cls-14" cx="17.3" cy="122.2" rx="12.7" ry="12.7" data-color-action="stroke" style="stroke:inherit" />			<line class="aE-cls-14" x1="10.3" y1="112.6" x2="24.3" y2="131.8" data-color-action="stroke" style="stroke:inherit" />		</g>		<text transform="matrix(1 0 0 1 6.7033 126.808)" class="aE-cls-15 aE-cls-16">NA</text>	</g></g><g id="aES_implant_blade" style="">	<g>		<g>							<ellipse transform="matrix(0.1539 -0.9881 0.9881 0.1539 -106.1107 120.5387)" class="aE-cls-14" cx="17.3" cy="122.2" rx="12.7" ry="12.7" data-color-action="stroke" style="stroke:inherit" />			<line class="aE-cls-14" x1="10.3" y1="112.6" x2="24.3" y2="131.8" data-color-action="stroke" style="stroke:inherit" />		</g>		<text transform="matrix(1 0 0 1 6.7033 126.808)" class="aE-cls-15 aE-cls-16">NA</text>	</g></g><g id="aES_watch_tooth" style="">	<g>		<path class="aE-cls-13" d="M8.3,27.7c0-1.8,1.4-3.3,3.2-3.3c1.8,0,3.3,1.5,3.3,3.3c0,1.7-1.5,3.2-3.3,3.2C9.7,30.9,8.3,29.5,8.3,27.7z     M9.2,21.8L8.4,3.7h6.2l-0.8,18.1H9.2z" data-color-action="fill" style="fill:inherit" />	</g></g><g id="aES_border" style="">	<rect y="0" class="aE-cls-17" width="59" height="161" /></g></defs></g><g class="cE-cls-1" transform="translate(0 217)"><g id="_Ec">	<g>		<path class="cE-cls-2" d="M43.5,14.6c1.3,3.2-0.5,12.8-2.3,18.3c-2,6-5.1,8.4-10.4,8.5c-5.3,0.1-9.8-1-11.6-5.5c-2-5-4.7-17.4-4-20.6    c0.7-3.4,9.8-4,14.1-4.4C33.4,10.5,42.5,12.2,43.5,14.6z" />		<g>			<g>				<g>					<path class="cE-cls-3" d="M43.5,14.6c1.3,3.2-0.5,12.8-2.3,18.3c-2,6-5.1,8.4-10.4,8.5c-5.3,0.1-9.8-1-11.6-5.5       c-2-5-4.7-17.4-4-20.6c0.7-3.4,9.8-4,14.1-4.4C33.4,10.5,42.5,12.2,43.5,14.6z" />				</g>			</g>		</g>		<path class="cE-cls-4" d="M43.5,14.6c-1-2.4-10.1-4.1-14.3-3.7c-4.2,0.3-13.3,1-14.1,4.4c-0.1,0.2-0.1,0.5-0.1,0.9    c2-0.5,6.3-1.5,9.9-1.9c4.9-0.5,7.9-0.4,10.6,0.1c1.5,0.3,5.4,1.3,8.3,2C43.8,15.6,43.7,15,43.5,14.6z" />		<path class="cE-cls-5" d="M20.7,32.1c-0.5,0.3,0.5,3.2,1.1,4.2c1.2,2,4.6,2.5,6.9,2.7s6.6-0.3,7.4-1.7s3.4-6.3,2.3-6    c-1,0.3-2.1,3-3.3,3.7c-1.2,0.7-2.2-0.7-3.3-0.3c-2.2,0.6-3.4,2.2-7,1.1C23.1,35.3,21.3,31.7,20.7,32.1z" />	</g></g><defs><g id="cES_lingual_V" style="">	<path class="cE-cls-6" d="M36.8,39.6c-1.6,1.1-3.6,1.7-6,1.7c-2.9,0.1-5.6-0.3-7.7-1.3c1.8-1.6,4.3-2.5,7.1-2.5   C32.7,37.5,35.1,38.3,36.8,39.6z" data-color-action="fill" style="fill:inherit" /></g><g id="cES_mid_lingual" style="">	<ellipse class="cE-cls-6" cx="29.9" cy="27.7" rx="3.4" ry="6.9" data-color-action="fill" style="fill:inherit" /></g><g id="cES_mesial" style="">	<path class="cE-cls-6" d="M39.5,23.2c-0.2-1.3-0.5-3.2-1.3-4.7l5.6-2.6c0.3,2.5-0.1,6.4-0.9,10.2C41.3,25.7,39.8,24.8,39.5,23.2z" data-color-action="fill" style="fill:inherit" /></g><g id="cES_line_angle_4" style="">	<path class="cE-cls-6" d="M35.7,16.6c-0.4-0.1-0.9-0.1-1.5-0.2l1.8-5c3.5,0.6,6.9,1.8,7.5,3.2c0.2,0.4,0.3,0.9,0.4,1.4l-5.6,2.6   C37.7,17.6,36.9,16.8,35.7,16.6z" data-color-action="fill" style="fill:inherit" /></g><g id="cES_lingual" style="">	<path class="cE-cls-6" d="M25.2,16.6l-1.9-5.1c2.2-0.3,4.4-0.5,5.9-0.6c1.7-0.1,4.3,0.1,6.8,0.5l-1.8,5C31.8,16.2,28.1,16.2,25.2,16.6z" data-color-action="fill" style="fill:inherit" /></g><g id="cES_line_angle_3" style="">	<path class="cE-cls-6" d="M22.3,17.2c-1.2,0.4-1.8,1-2.2,1.7l-5.1-2c0-0.7,0-1.2,0.1-1.6c0.5-2.1,4.3-3.2,8.1-3.7l1.9,5.1   C24.1,16.7,23.1,16.9,22.3,17.2z" data-color-action="fill" style="fill:inherit" /></g><g id="cES_distal" style="">	<path class="cE-cls-6" d="M20.1,18.8c-0.7,1.4-0.4,3.3-0.9,5.2c-0.3,1.2-1.5,1.8-2.8,2.2c-0.8-3.6-1.4-7.1-1.4-9.4L20.1,18.8z" data-color-action="fill" style="fill:inherit" /></g><g id="cES_tipped_lingual" style="">	<g>		<path class="cE-cls-7" d="M31.7,7.1c-1.2-3.2-4.5-3.6-7.2,5c-0.5,1.5-4.2,1.7-3.6,0c1.9-5.7,5-9.6,8.5-8.7c1.2,0.3,2.3,1.6,2.8,3.2    C32,6.7,31.8,6.9,31.7,7.1z" data-color-action="fill" style="fill:inherit" />		<polygon class="cE-cls-7" points="29.7,9.8 17.6,9.8 20.4,18.9   " data-color-action="fill" style="fill:inherit" />	</g></g><g id="cES_tipped_facial" style=""></g><g id="cES_surface_restoration_mesial" style="">	<path class="cE-cls-8" d="M43.5,14.6c1.1,2.7,0,9.8-1.4,15.2c-3.4,0.9-6.1,3.2-7.5,6.3c1.2-7.4,2.3-15.7,2.4-17.4l6.5-4.3   C43.4,14.5,43.5,14.6,43.5,14.6z" data-color-action="fill" style="fill:inherit" /></g><g id="cES_surface_restoration_lingual" style="">	<g>		<path class="cE-cls-8" d="M25.1,38.2c-0.2-1.3-0.6-2.6-1.2-3.7c-0.9-6.2-1.7-13.1-1.7-15.8c1.6-0.3,4.1-0.6,7.3-0.9l0.2,0    c0.2,0,0.4,0,0.6,0c2.1,0,4.8,0.5,6.6,0.9c-0.1,1.7-1.2,10-2.4,17.4c-0.3,0.7-0.6,1.5-0.8,2.3c-1.5-0.5-3-0.8-4.7-0.8    C27.7,37.6,26.3,37.8,25.1,38.2z" data-color-action="fill" style="fill:inherit" />			</g></g><g id="cES_surface_restoration_lingual_V" style="">	<g>				<path class="cE-cls-8" d="M33.6,41.1c-0.8,0.2-1.8,0.3-2.8,0.3c-2,0-4-0.1-5.7-0.6c0-0.3,0-0.6,0-0.9c0-0.6-0.1-1.1-0.1-1.7    c1.3-0.4,2.7-0.6,4.1-0.6c1.7,0,3.2,0.3,4.7,0.8c-0.2,0.8-0.3,1.6-0.3,2.5C33.6,41,33.6,41,33.6,41.1z" data-color-action="fill" style="fill:inherit" />	</g></g><g id="cES_surface_restoration_distal" style="">	<path class="cE-cls-8" d="M23.9,34.6c-1.4-2.7-3.8-4.7-6.8-5.6c-1.3-5.4-2.4-11.6-1.9-13.7c0.1-0.3,0.2-0.5,0.3-0.7l6.7,4.3   C22.2,21.5,23,28.4,23.9,34.6z" data-color-action="fill" style="fill:inherit" /></g><g id="cES_surface_restoration_incisal" style="">	<path class="cE-cls-8" d="M29.2,10.9c4.2-0.3,12.9,1.3,14.2,3.6L37,18.8c0,0,0,0,0,0c-1.8-0.5-4.4-0.9-6.6-0.9c-0.2,0-0.5,0-0.6,0   l-0.2,0c-3.3,0.3-5.7,0.6-7.3,0.9l0,0l-6.7-4.3C17.3,11.8,25.3,11.2,29.2,10.9z" data-color-action="fill" style="fill:inherit" /></g><g id="cES_sub-erupted" style=""></g><g id="cES_rotated_mesial" style=""></g><g id="cES_rotate_distal" style=""></g><g id="cES_root_canal" style=""></g><g id="cES_pins" style=""></g><g id="cES_mesial_drift" style=""></g><g id="cES_distal_drift" style=""></g><g id="cES_crown" style="">	<path class="cE-cls-10" d="M43.5,14.6c1.3,3.2-0.5,12.8-2.3,18.3c-2,6-5.1,8.4-10.4,8.5c-5.3,0.1-9.8-1-11.6-5.5c-2-5-4.7-17.4-4-20.6   c0.7-3.4,9.8-4,14.1-4.4C33.5,10.5,42.5,12.2,43.5,14.6z" data-color-action="fill" style="fill:inherit" /></g><g id="cES_cracked_surface_mesial" style="">	<polyline class="cE-cls-11" points="39.7,17.6 43.6,21.4 38.6,21.4 43.6,26.1 38.6,26.1 42.4,30  " data-color-action="stroke" style="stroke:inherit" /></g><g id="cES_cracked_surface_lingual" style="">	<polyline class="cE-cls-11" points="28.2,17.6 32,21.4 27,21.4 32,26.1 27,26.1 30.8,30  " data-color-action="stroke" style="stroke:inherit" /></g><g id="cES_cracked_surface_lingual_V" style="">	<polyline class="cE-cls-11" points="28.2,17.6 32,21.4 27,21.4 32,26.1 27,26.1 30.8,30  " data-color-action="stroke" style="stroke:inherit" /></g><g id="cES_cracked_surface_distal" style="">	<polyline class="cE-cls-11" points="16.6,17.6 20.4,21.4 15.4,21.4 20.4,26.1 15.4,26.1 19.2,30  " data-color-action="stroke" style="stroke:inherit" /></g><g id="cES_chipped_surface_mesial" style="">	<g>		<line class="cE-cls-11" x1="36.2" y1="19.2" x2="44.6" y2="27.6" data-color-action="stroke" style="stroke:inherit" />		<line class="cE-cls-11" x1="44.6" y1="19.2" x2="36.2" y2="27.6" data-color-action="stroke" style="stroke:inherit" />	</g></g><g id="cES_chipped_surface_lingual" style="">	<g>		<line class="cE-cls-11" x1="25.7" y1="19.2" x2="34" y2="27.6" data-color-action="stroke" style="stroke:inherit" />		<line class="cE-cls-11" x1="34" y1="19.2" x2="25.7" y2="27.6" data-color-action="stroke" style="stroke:inherit" />	</g></g><g id="cES_chipped_surface_lingual_V" style="">	<g>		<line class="cE-cls-11" x1="25.7" y1="19.2" x2="34" y2="27.6" data-color-action="stroke" style="stroke:inherit" />		<line class="cE-cls-11" x1="34" y1="19.2" x2="25.7" y2="27.6" data-color-action="stroke" style="stroke:inherit" />	</g></g><g id="cES_chipped_surface_distal" style="">	<g>		<line class="cE-cls-11" x1="14.9" y1="19.2" x2="23.2" y2="27.6" data-color-action="stroke" style="stroke:inherit" />		<line class="cE-cls-11" x1="23.2" y1="19.2" x2="14.9" y2="27.6" data-color-action="stroke" style="stroke:inherit" />	</g></g><g id="cES_abscess" style=""></g><g id="cES_missing_tooth" style="" data-name="missing tooth">	<g>		<path class="cE-cls-2" d="M43.5,14.6c1.3,3.2-0.5,12.8-2.3,18.3c-2,6-5.1,8.4-10.4,8.5c-5.3,0.1-9.8-1-11.6-5.5c-2-5-4.7-17.4-4-20.6    c0.7-3.4,9.8-4,14.1-4.4C33.4,10.5,42.5,12.2,43.5,14.6z" data-color-action="fill,stroke" style="fill,stroke:inherit" />		<g>			<g>				<g>					<path class="cE-cls-9" d="M43.5,14.6c1.3,3.2-0.5,12.8-2.3,18.3c-2,6-5.1,8.4-10.4,8.5c-5.3,0.1-9.8-1-11.6-5.5       c-2-5-4.7-17.4-4-20.6c0.7-3.4,9.8-4,14.1-4.4C33.4,10.5,42.5,12.2,43.5,14.6z" />				</g>			</g>		</g>		<path class="cE-cls-9" d="M43.5,14.6c-1-2.4-10.1-4.1-14.3-3.7c-4.2,0.3-13.3,1-14.1,4.4c-0.1,0.2-0.1,0.5-0.1,0.9    c2-0.5,6.3-1.5,9.9-1.9c4.9-0.5,7.9-0.4,10.6,0.1c1.5,0.3,5.4,1.3,8.3,2C43.8,15.6,43.7,15,43.5,14.6z" />		<path class="cE-cls-9" d="M20.7,32.1c-0.5,0.3,0.5,3.2,1.1,4.2c1.2,2,4.6,2.5,6.9,2.7s6.6-0.3,7.4-1.7s3.4-6.3,2.3-6    c-1,0.3-2.1,3-3.3,3.7c-1.2,0.7-2.2-0.7-3.3-0.3c-2.2,0.6-3.4,2.2-7,1.1C23.1,35.3,21.3,31.7,20.7,32.1z" />	</g></g><g id="cES_watch_tooth" style=""></g><g id="cES_border" style="">	<rect class="cE-cls-12" width="59" height="66" /></g></defs></g></svg>