<svg xmlns="http://www.w3.org/2000/svg" viewBox="0 0 59 283"><defs><style>.a26-cls-1{isolation:isolate}.a26-cls-2,.a26-cls-25{fill:#c5c7c9}.a26-cls-25{stroke:none}.a26-cls-2{stroke:#c5c7c9;stroke-width:5px}.a26-cls-19,.a26-cls-2,.a26-cls-22,.a26-cls-24,.a26-cls-26,.a26-cls-27,.a26-cls-30,.a26-cls-32,.a26-cls-33{stroke-miterlimit:10}.a26-cls-3{fill:#f5d7cf;stroke:none}.a26-cls-4,.a26-cls-5{fill:#f2c6bc;stroke:none}.a26-cls-5{fill:#fae8e3}.a26-cls-6,.a26-cls-7{fill:#eeefef;stroke:none}.a26-cls-7{fill:#e2e3e4}.a26-cls-8,.a26-cls-9{fill:#fbfbfb;stroke:none}.a26-cls-9{font-size:15px;fill:#929497;font-family:ProximaNova-Semibold,Proxima Nova,sans-serif;font-weight:700}.a26-cls-10,.a26-cls-28,.a26-cls-36{fill:#3c3d3d;stroke:none}.a26-cls-10{opacity:.55}.a26-cls-11{fill:#ffd403;stroke:none}.a26-cls-13,.a26-cls-21{fill:#ffef3e;stroke:none}.a26-cls-14,.a26-cls-20{fill:#c52636;stroke:none}.a26-cls-15{fill:none;stroke:none}.a26-cls-19,.a26-cls-22,.a26-cls-24,.a26-cls-26,.a26-cls-27,.a26-cls-30,.a26-cls-32,.a26-cls-33{fill:none}.a26-cls-16,.a26-cls-37{fill:#28418b;stroke:none}.a26-cls-17,.a26-cls-18{fill:#787878;stroke:none}.a26-cls-19,.a26-cls-22,.a26-cls-24,.a26-cls-30,.a26-cls-32,.a26-cls-33{stroke:#c52636}.a26-cls-19,.a26-cls-22,.a26-cls-27{stroke-width:2px}.a26-cls-22{stroke-linecap:round}.a26-cls-23{fill:#fff;stroke:none}.a26-cls-26,.a26-cls-27{stroke:#28418b}.a26-cls-26{stroke-width:3px}.a26-cls-29{opacity:.6}.a26-cls-30{stroke-width:4px}.a26-cls-31{fill:#f05b85;stroke:none}.a26-cls-32,.a26-cls-33{stroke-width:1.25px}.a26-cls-34{fill:#9b9999;stroke:none}.a26-cls-35{fill:#dbdbdc;stroke:none}.a26-cls-38{font-size:33px;fill:#28418b;font-family:ProximaNova-Semibold,Proxima Nova,sans-serif;font-weight:700;stroke:none}.c26-cls-1{isolation:isolate}.c26-cls-16,.c26-cls-2{fill:#c5c7c9;stroke:none}.c26-cls-2{stroke:#c5c7c9;stroke-width:5px}.c26-cls-2,.c26-cls-20,.c26-cls-21{stroke-miterlimit:10}.c26-cls-3{fill:#eeefef;stroke:none}.c26-cls-4,.c26-cls-5{fill:#e2e3e4;stroke:none}.c26-cls-5{fill:#fbfbfb}.c26-cls-17,.c26-cls-6{fill:#3c3d3d;stroke:none}.c26-cls-6{opacity:.55}.c26-cls-20,.c26-cls-21{fill:none}.c26-cls-7,.c26-cls-9{fill:none;stroke:none}.c26-cls-9{fill:#28418b}.c26-cls-10,.c26-cls-11{fill:#787878;stroke:none}.c26-cls-12,.c26-cls-19{fill:#ffef3e;stroke:none}.c26-cls-13{fill:#fff;stroke:none}.c26-cls-14,.c26-cls-15{fill:#c52636;stroke:none}.c26-cls-18{opacity:.6}.c26-cls-20,.c26-cls-21{stroke:#c52636;stroke-width:1.25px}.a26-msng-cls-1{isolation:isolate}.a26-msng-cls-2{fill:#c5c7c9;stroke:#c5c7c9;stroke-width:5px}.a26-msng-cls-11,.a26-msng-cls-2{stroke-miterlimit:10}.a26-msng-cls-3{fill:#f5d7cf;stroke:none}.a26-msng-cls-4{fill:#f2c6bc;stroke:none}.a26-msng-cls-5{fill:#fae8e3;stroke:none}.a26-msng-cls-6{fill:#eeefef;stroke:none}.a26-msng-cls-7{fill:#e2e3e4;stroke:none}.a26-msng-cls-8{fill:#fbfbfb;stroke:none}.a26-msng-cls-9{font-size:15px;fill:#929497;font-family:ProximaNova-Semibold,Proxima Nova;font-weight:700;stroke:none}.a26-msng-cls-11{fill:none}.a26-msng-cls-12{fill:none;stroke:none}.a26-msng-cls-11{stroke:#787878;stroke-width:6.25px}</style></defs><g class="a26-cls-1" transform="translate(0 122)"><g id="_26A" data-name="#26A"><path d="M18.58 46c-4.08-5.36-4-27.38-1.62-31.78 2.31-4.22 23.65-4.9 25.36-3.44 2.16 1.85 2 28.82-2.31 34.84l-.11.13c-.76 8.67-3.32 31.84-4 37-1.48 11.59-9.37 33.66-12.94 33s-1-21.08-1.36-35A245.88 245.88 0 0 0 18.58 46z" class="a26-cls-2"/><path d="M40.12 42.68c0 3-3.42 34-4.19 40.07-1.48 11.59-9.37 33.66-12.94 33s-1-21.08-1.36-35a250.41 250.41 0 0 0-3.33-36.59c-1.05-6.97 21.82-11.59 21.82-1.48z" class="a26-cls-3"/><path d="M35.12 74.08c.9-7.53 2.15-23.48 2.15-26.35 0-1.58 1.26-4.75 2.38-7.27a5.32 5.32 0 0 1 .46 2.22c0 3-3.42 34-4.19 40.07a105.12 105.12 0 0 1-8.83 28.31 50.62 50.62 0 0 0 3-8.65c1.62-6.64 4.13-20.8 5.03-28.33zM21.63 80.77a250.4 250.4 0 0 0-3.33-36.61 3.14 3.14 0 0 1 .14-1.46l2.16 2.16s1.79 13.44 2.33 22.41.18 25.63-.54 30.29c-.34 2.22-.85 4.73-1.32 7.16.1-7.16.75-16.49.56-23.95z" class="a26-cls-4"/><path d="M27.56 48.31c.42 3.63.73 7.6.15 22.64s-3 41.64-4.53 41.64c-.44 0 1.9-29.07 2.19-37.11s-.58-23.52-1-27.61 2.75-3.36 3.19.44z" class="a26-cls-5"/><path d="M40 45.61c4.35-6 4.47-33 2.31-34.84C40.61 9.32 19.27 10 17 14.24c-2.51 4.6-2.47 28.4 2.18 32.4 2.51 2.2 17.56 3.5 20.82-1.03z" class="a26-cls-6"/><path d="M38.15 46.11c3.33-5.89 3.64-30.85 2.24-35.84a4.5 4.5 0 0 1 1.94.5c2.16 1.85 2 28.82-2.31 34.84a6.73 6.73 0 0 1-3.57 2.18 4.76 4.76 0 0 0 1.7-1.68zM17 14.24a5.27 5.27 0 0 1 2.78-1.91 2.76 2.76 0 0 0-.55.81C17.13 18 17.16 43 21 47.19a3 3 0 0 0 .72.55 7 7 0 0 1-2.56-1.1c-4.67-4-4.71-27.8-2.16-32.4z" class="a26-cls-7"/><path d="M27.42 29.88c0 6 .52 15.47.63 18.74-1 0-2.05-.13-3-.25A140 140 0 0 1 23.49 30c0-4.44.24-14.53.71-18.9 1.39-.26 2.87-.47 4.38-.64-.43 3.99-1.16 13.49-1.16 19.42z" class="a26-cls-8"/><text class="a26-cls-9" transform="translate(20.53 150.74)">26</text></g><defs><g id="a26_bone_graft" data-name="bone graft"><path d="M2 45.83h55v91.86H2z" class="a26-cls-16" transform="rotate(-180 29.5 91.76)" data-color-action="fill" style="fill:inherit"/><path d="M18.58 46c-4.08-5.36-4-27.38-1.62-31.78 2.31-4.22 23.65-4.9 25.36-3.44 2.16 1.85 2 28.82-2.31 34.84l-.11.13c-.76 8.67-3.32 31.84-4 37-1.48 11.59-9.37 33.66-12.94 33s-1-21.08-1.36-35A245.88 245.88 0 0 0 18.58 46z" class="a26-cls-2"/><path d="M40.12 42.68c0 3-3.42 34-4.19 40.07-1.48 11.59-9.37 33.66-12.94 33s-1-21.08-1.36-35a250.41 250.41 0 0 0-3.33-36.59c-1.05-6.97 21.82-11.59 21.82-1.48z" class="a26-cls-3"/><path d="M35.12 74.08c.9-7.53 2.15-23.48 2.15-26.35 0-1.58 1.26-4.75 2.38-7.27a5.32 5.32 0 0 1 .46 2.22c0 3-3.42 34-4.19 40.07a105.12 105.12 0 0 1-8.83 28.31 50.62 50.62 0 0 0 3-8.65c1.62-6.64 4.13-20.8 5.03-28.33zM21.63 80.77a250.4 250.4 0 0 0-3.33-36.61 3.14 3.14 0 0 1 .14-1.46l2.16 2.16s1.79 13.44 2.33 22.41.18 25.63-.54 30.29c-.34 2.22-.85 4.73-1.32 7.16.1-7.16.75-16.49.56-23.95z" class="a26-cls-4"/><path d="M27.56 48.31c.42 3.63.73 7.6.15 22.64s-3 41.64-4.53 41.64c-.44 0 1.9-29.07 2.19-37.11s-.58-23.52-1-27.61 2.75-3.36 3.19.44z" class="a26-cls-5"/><path d="M40 45.61c4.35-6 4.47-33 2.31-34.84C40.61 9.32 19.27 10 17 14.24c-2.51 4.6-2.47 28.4 2.18 32.4 2.51 2.2 17.56 3.5 20.82-1.03z" class="a26-cls-6"/><path d="M38.15 46.11c3.33-5.89 3.64-30.85 2.24-35.84a4.5 4.5 0 0 1 1.94.5c2.16 1.85 2 28.82-2.31 34.84a6.73 6.73 0 0 1-3.57 2.18 4.76 4.76 0 0 0 1.7-1.68zM17 14.24a5.27 5.27 0 0 1 2.78-1.91 2.76 2.76 0 0 0-.55.81C17.13 18 17.16 43 21 47.19a3 3 0 0 0 .72.55 7 7 0 0 1-2.56-1.1c-4.67-4-4.71-27.8-2.16-32.4z" class="a26-cls-7"/><path d="M27.42 29.88c0 6 .52 15.47.63 18.74-1 0-2.05-.13-3-.25A140 140 0 0 1 23.49 30c0-4.44.24-14.53.71-18.9 1.39-.26 2.87-.47 4.38-.64-.43 3.99-1.16 13.49-1.16 19.42z" class="a26-cls-8"/></g><g id="a26_splinted_crowns" data-name="splinted crowns"><path d="M2 45.26h55v7.67H2z" class="a26-cls-21" data-color-action="fill" style="fill:inherit"/><path d="M18.58 46c-4.08-5.36-4-27.38-1.62-31.78 2.31-4.22 23.65-4.9 25.36-3.44 2.16 1.85 2 28.82-2.31 34.84l-.11.13c-.76 8.67-3.32 31.84-4 37-1.48 11.59-9.37 33.66-12.94 33s-1-21.08-1.36-35A245.88 245.88 0 0 0 18.58 46z" class="a26-cls-2"/><path d="M40.12 42.68c0 3-3.42 34-4.19 40.07-1.48 11.59-9.37 33.66-12.94 33s-1-21.08-1.36-35a250.41 250.41 0 0 0-3.33-36.59c-1.05-6.97 21.82-11.59 21.82-1.48z" class="a26-cls-3"/><path d="M35.12 74.08c.9-7.53 2.15-23.48 2.15-26.35 0-1.58 1.26-4.75 2.38-7.27a5.32 5.32 0 0 1 .46 2.22c0 3-3.42 34-4.19 40.07a105.12 105.12 0 0 1-8.83 28.31 50.62 50.62 0 0 0 3-8.65c1.62-6.64 4.13-20.8 5.03-28.33zM21.63 80.77a250.4 250.4 0 0 0-3.33-36.61 3.14 3.14 0 0 1 .14-1.46l2.16 2.16s1.79 13.44 2.33 22.41.18 25.63-.54 30.29c-.34 2.22-.85 4.73-1.32 7.16.1-7.16.75-16.49.56-23.95z" class="a26-cls-4"/><path d="M27.56 48.31c.42 3.63.73 7.6.15 22.64s-3 41.64-4.53 41.64c-.44 0 1.9-29.07 2.19-37.11s-.58-23.52-1-27.61 2.75-3.36 3.19.44z" class="a26-cls-5"/><path d="M40 45.61c4.35-6 4.47-33 2.31-34.84C40.61 9.32 19.27 10 17 14.24c-2.51 4.6-2.47 28.4 2.18 32.4 2.51 2.2 17.56 3.5 20.82-1.03z" class="a26-cls-6"/><path d="M38.15 46.11c3.33-5.89 3.64-30.85 2.24-35.84a4.5 4.5 0 0 1 1.94.5c2.16 1.85 2 28.82-2.31 34.84a6.73 6.73 0 0 1-3.57 2.18 4.76 4.76 0 0 0 1.7-1.68zM17 14.24a5.27 5.27 0 0 1 2.78-1.91 2.76 2.76 0 0 0-.55.81C17.13 18 17.16 43 21 47.19a3 3 0 0 0 .72.55 7 7 0 0 1-2.56-1.1c-4.67-4-4.71-27.8-2.16-32.4z" class="a26-cls-7"/><path d="M27.42 29.88c0 6 .52 15.47.63 18.74-1 0-2.05-.13-3-.25A140 140 0 0 1 23.49 30c0-4.44.24-14.53.71-18.9 1.39-.26 2.87-.47 4.38-.64-.43 3.99-1.16 13.49-1.16 19.42z" class="a26-cls-8"/></g><path id="a26_facial_V" d="M21.68 47.73c3.89 1 10.79 1.4 15.11-.05a13.7 13.7 0 0 0-15.11.05z" class="a26-cls-10" data-color-action="fill" style="fill:inherit" data-name="facial V"/><ellipse id="a26_mid_facial" cx="29.38" cy="32.21" class="a26-cls-10" rx="4.66" ry="9.56" data-color-action="fill" style="fill:inherit" data-name="mid facial"/><path id="a26_mesial" d="M43.67 19.83l-4.31 2.59c.77 2.22.35 5.32.82 8.51A4.35 4.35 0 0 0 43 34.31a107.2 107.2 0 0 0 .67-14.48z" class="a26-cls-10" data-color-action="fill" style="fill:inherit"/><path id="a26_line_angle_2" d="M35.23 13.11l-1.67 6a12.57 12.57 0 0 1 3.35.74 4 4 0 0 1 2.45 2.59l4.31-2.59a53.35 53.35 0 0 0-.46-6.23 32 32 0 0 0-7.98-.51z" class="a26-cls-10" data-color-action="fill" style="fill:inherit" data-name="line angle 2"/><path id="a26_facial" d="M22.72 14.31l1.19 5.25a35.69 35.69 0 0 1 9.64-.47l1.67-6a79.66 79.66 0 0 0-12.5 1.22z" class="a26-cls-10" data-color-action="fill" style="fill:inherit"/><path id="a26_line_angle_1" d="M19.84 23.14c.54-1.58 1.34-2.83 2.55-3.2.43-.14.94-.26 1.52-.38l-1.19-5.25c-3 .58-5.44 1.37-6.56 2.41a34.76 34.76 0 0 0-.54 3.71z" class="a26-cls-10" data-color-action="fill" style="fill:inherit" data-name="line angle 1"/><path id="a26_distal_pre_exisiting" d="M18.57 30.15a34.5 34.5 0 0 1 1.27-7l-4.22-2.72a79.39 79.39 0 0 0 0 13.88 5.34 5.34 0 0 0 2.95-4.16z" class="a26-cls-10" data-color-action="fill" style="fill:inherit" data-name="distal – pre exisiting"/><path id="a26_mesial_incisal" d="M43.2 13.6a5.65 5.65 0 0 0-.88-2.82c-.54-.46-3-.71-6.25-.7l-.84 3a32 32 0 0 1 7.97.52z" class="a26-cls-10" data-color-action="fill" style="fill:inherit" data-name="mesial incisal"/><path id="a26_central_incisal" d="M35.23 13.11l.84-3a63.91 63.91 0 0 0-14 1.51l.61 2.72a79.66 79.66 0 0 1 12.55-1.23z" class="a26-cls-10" data-color-action="fill" style="fill:inherit" data-name="central incisal"/><path id="a26_distal_incisal" d="M22.11 11.59c-2.57.65-4.53 1.52-5.15 2.64a9.66 9.66 0 0 0-.8 2.48c1.12-1 3.56-1.83 6.56-2.41z" class="a26-cls-10" data-color-action="fill" style="fill:inherit" data-name="distal incisal"/><path id="a26_veneer" d="M40 45.61c4.35-6 4.47-33 2.31-34.84C40.61 9.32 19.27 10 17 14.24c-2.51 4.6-2.47 28.4 2.18 32.4 2.51 2.2 17.56 3.5 20.82-1.03z" class="a26-cls-12 a26-cls-13" data-color-action="fill" style="fill:inherit"/><path id="a26_tissue_graft" d="M46.97 63.34L29.5 49.46 12.03 63.34h34.94z" class="a26-cls-14" data-color-action="fill" style="fill:inherit" data-name="tissue graft"/><path id="a26_tipped_lingual" d="M28 154.75h3v3h-3z" class="a26-cls-15" data-name="tipped lingual"/><g id="a26_tipped_facial" class="a26-cls-12" data-name="tipped facial"><path d="M25.85 6.5c1.26-3.37 4.74-3.85 7.69 5.32.5 1.56 4.42 1.76 3.84 0-2-6.08-5.31-10.2-9.06-9.27a4.86 4.86 0 0 0-3 3.38c.19.17.42.42.53.57z" class="a26-cls-16" data-color-action="fill" style="fill:inherit"/><path d="M27.93 9.42h12.94l-2.94 9.64-10-9.64z" class="a26-cls-16" data-color-action="fill" style="fill:inherit"/></g><path id="a26_surface_restoration_mesial" d="M42.71 36.7a11.52 11.52 0 0 0-6.56 6.08 253.59 253.59 0 0 0 .44-25.39L42.48 11c1.42 2.09 1.72 15.86.23 25.7z" class="a26-cls-17" data-color-action="fill" style="fill:inherit" data-name="surface restoration mesial"/><path id="a26_surface_restoration_facial" d="M23.85 45.68a11.59 11.59 0 0 0-.9-2.6c-.68-8.58-.91-20.71-.09-24.45a52.31 52.31 0 0 1 13.41-1.55h.3a249.71 249.71 0 0 1-.42 25.69 11.57 11.57 0 0 0-.77 2.33 13.9 13.9 0 0 0-11.53.57z" class="a26-cls-12 a26-cls-18" data-color-action="fill" style="fill:inherit" data-name="surface restoration facial"/><path id="a26_surface_restoration_facial_V" d="M35.16 48.11a32.6 32.6 0 0 1-11 .11v-.1a11.31 11.31 0 0 0-.28-2.44 13.9 13.9 0 0 1 11.53-.57 11.36 11.36 0 0 0-.26 2.39c-.03.21 0 .41.01.61z" class="a26-cls-12 a26-cls-18" data-color-action="fill" style="fill:inherit" data-name="surface restoration facial V"/><path id="a26_surface_restoration_distal" d="M22.82 18.84c-.77 3.95-.54 15.8.13 24.24a11.52 11.52 0 0 0-7-6c-1.13-8.47-.59-19.66 1-22.78z" class="a26-cls-17" data-color-action="fill" style="fill:inherit" data-name="surface restoration distal"/><path id="a26_surface_restoration_incisal" d="M17 14.24c2.27-4.24 23.61-4.92 25.32-3.46a.91.91 0 0 1 .15.18l-5.89 6.43v-.31h-.3a52.31 52.31 0 0 0-13.41 1.55v.21l-5.89-4.52z" class="a26-cls-17" data-color-action="fill" style="fill:inherit" data-name="surface restoration incisal"/><g id="a26_supra-erupted" class="a26-cls-12"><path d="M29.5 55.12v7.68" class="a26-cls-19" data-color-action="stroke" style="stroke:inherit"/><path d="M25.51 56.29l3.99-6.91 3.99 6.91h-7.98z" class="a26-cls-20" data-color-action="fill" style="fill:inherit"/></g><g id="a26_sub-erupted" class="a26-cls-12"><path d="M29.5 57.06v-7.68" class="a26-cls-19" data-color-action="stroke" style="stroke:inherit"/><path d="M33.49 55.89L29.5 62.8l-3.99-6.91h7.98z" class="a26-cls-20" data-color-action="fill" style="fill:inherit"/></g><text id="a26_sealant" class="a26-cls-38" transform="translate(19.7 -18.45)" data-color-action="fill" style="fill:inherit">S</text><g id="a26_rotated_mesial" class="a26-cls-12" data-name="rotated mesial"><path d="M5.87 32.82C2.88 31 3.56 27.36 16.1 27c5.3-.15 8.95 0 8.95 0L25 24s-1-.07-8.22.24c-7.62.32-14 1.83-13.75 6a4 4 0 0 0 2.31 2.92c.15-.16.4-.27.53-.34z" class="a26-cls-16" data-color-action="fill" style="fill:inherit"/><path d="M18.57 31.53V19.64l10.4 5.9-10.4 5.99z" class="a26-cls-16" data-color-action="fill" style="fill:inherit"/></g><g id="a26_rotated_distal" class="a26-cls-12" data-name="rotated distal"><path d="M53.13 32.82c3-1.79 2.3-5.46-10.23-5.81-5.3-.15-8.95 0-8.95 0L34 24s1-.07 8.22.24c7.62.32 14 1.83 13.75 6a4 4 0 0 1-2.31 2.92c-.15-.16-.4-.27-.53-.34z" class="a26-cls-16" data-color-action="fill" style="fill:inherit"/><path d="M40.43 31.53V19.64l-10.4 5.9 10.4 5.99z" class="a26-cls-16" data-color-action="fill" style="fill:inherit"/></g><circle id="a26_root_decay" cx="27.67" cy="94.04" r="4.33" class="a26-cls-12 a26-cls-18" data-color-action="fill" style="fill:inherit" data-name="root decay"/><path id="a26_root_canal" d="M23.38 112.13l5.75-60.88" class="a26-cls-22" data-color-action="stroke" style="stroke:inherit" data-name="root canal"/><path id="a26_root_abrasion" d="M24.63 88.04h3.5v13.83h-3.5z" class="a26-cls-12 a26-cls-24" data-color-action="stroke" style="stroke:inherit" data-name="root abrasion"/><g id="a26_post"><path d="M27.5 29.84h3.14v41.77H27.5z" class="a26-cls-18" data-color-action="fill" style="fill:inherit"/><path d="M28.37 29.84h.47v41.77h-.47z" class="a26-cls-25"/></g><g id="a26_pins"><path d="M25.32 37.84h2.42v23.43h-2.42z" class="a26-cls-18" data-color-action="fill" style="fill:inherit"/><path d="M25.99 37.84h.36v23.43h-.36z" class="a26-cls-25"/><path d="M29.91 37.84h2.42v23.43h-2.42z" class="a26-cls-18" data-color-action="fill" style="fill:inherit"/><path d="M30.57 37.84h.36v23.43h-.36z" class="a26-cls-25"/></g><path id="a26_open_contact_mesial" d="M32.69 54l7.5-4.75 7.5 4.75" class="a26-cls-26" data-color-action="stroke" style="stroke:inherit" data-name="open contact mesial"/><path id="a26_open_contact_distal" d="M11.67 54l7.5-4.75 7.5 4.75" class="a26-cls-26" data-color-action="stroke" style="stroke:inherit" data-name="open contact distal"/><g id="a26_mesial_drift" class="a26-cls-12" data-name="mesial drift"><path d="M32.59 29.84H20.67" class="a26-cls-27" data-color-action="stroke" style="stroke:inherit"/><path d="M31.43 25.85l6.9 3.99-6.9 3.99v-7.98z" class="a26-cls-16" data-color-action="fill" style="fill:inherit"/></g><path id="a26_lingual_abfraction" d="M28 154.75h3v3h-3z" class="a26-cls-15" data-name="lingual abfraction"/><ellipse id="a26_internal_root_resorption" cx="26.78" cy="94.4" class="a26-cls-12 a26-cls-20" rx="9.84" ry="3.98" transform="rotate(-86.81 26.774 94.4)" data-color-action="fill" style="fill:inherit" data-name="internal root resorption"/><g id="a26_impacted_mesial" class="a26-cls-12" data-name="impacted mesial"><ellipse cx="29.5" cy="64.95" class="a26-cls-27" rx="24.15" ry="63.55" data-color-action="stroke" style="stroke:inherit"/><path d="M18.09 64.95H5.33" class="a26-cls-27" data-color-action="stroke" style="stroke:inherit"/><path d="M16.93 60.96l6.9 3.99-6.9 3.99v-7.98z" class="a26-cls-16" data-color-action="fill" style="fill:inherit"/></g><g id="a26_impacted_distal" class="a26-cls-12" data-name="impacted distal"><ellipse cx="29.49" cy="64.95" class="a26-cls-27" rx="24.15" ry="63.55" data-color-action="stroke" style="stroke:inherit"/><path d="M40.89 64.95h12.76" class="a26-cls-27" data-color-action="stroke" style="stroke:inherit"/><path d="M42.06 68.94l-6.91-3.99 6.91-3.99v7.98z" class="a26-cls-16" data-color-action="fill" style="fill:inherit"/></g><path id="a26_gortex_membranes" d="M2 44.75h55v16.42H2z" class="a26-cls-14" data-color-action="fill" style="fill:inherit" data-name="gortex membranes"/><path id="a26_frenum_pull" d="M19.51 50.42l10.66 6.75 10.65-6.75" class="a26-cls-30" data-color-action="stroke" style="stroke:inherit" data-name="frenum pull"/><path id="a26_external_root_resorption" d="M21.48 76.23c.06 1.46.11 3 .15 4.54.09 3.56 0 7.55-.15 11.52 1.45-.64 4.26-2.56 4.2-7.86-.06-5.14-2.68-7.36-4.2-8.2zm10.32 6.85a9.75 9.75 0 0 0 2.52 7.75 71.38 71.38 0 0 0 1.61-8.08c.16-1.28.44-3.67.78-6.67a8.6 8.6 0 0 0-4.92 7z" class="a26-cls-12 a26-cls-20" data-color-action="fill" style="fill:inherit" data-name="external root resorption"/><g id="a26_distal_drift" class="a26-cls-12" data-name="distal drift"><path d="M26.41 29.84h11.92" class="a26-cls-27" data-color-action="stroke" style="stroke:inherit"/><path d="M27.57 33.83l-6.9-3.99 6.9-3.99v7.98z" class="a26-cls-16" data-color-action="fill" style="fill:inherit"/></g><path id="a26_three_quarter_crown" d="M43.5 28.93c.51-8.54 0-17.14-1.18-18.15C40.61 9.32 19.27 10 17 14.24c-1.15 2.11-1.76 8.26-1.64 14.69z" class="a26-cls-12 a26-cls-13" data-color-action="fill" style="fill:inherit" data-name="three quarter crown"/><path id="a26_crown" d="M40 45.61c4.35-6 4.47-33 2.31-34.84C40.61 9.32 19.27 10 17 14.24c-2.51 4.6-2.47 28.4 2.18 32.4 2.51 2.2 17.56 3.5 20.82-1.03z" class="a26-cls-12 a26-cls-13" data-color-action="fill" style="fill:inherit"/><path id="a26_cracked_surface_incisal" d="M30.83 18.41L27 14.58h5l-5-4.75h5L28.17 6" class="a26-cls-32" data-color-action="stroke" style="stroke:inherit" data-name="cracked surface incisal"/><path id="a26_cracked_surface_distal" d="M17.66 33.18l-3.83-3.84h5.01l-5.01-4.74h5.01l-3.83-3.83" class="a26-cls-32" data-color-action="stroke" style="stroke:inherit" data-name="cracked surface distal"/><path id="a26_cracked_surface_facial" d="M30.83 33.18L27 29.34h5l-5-4.74h5l-3.83-3.83" class="a26-cls-32" data-color-action="stroke" style="stroke:inherit" data-name="cracked surface facial"/><path id="a26_cracked_surface_facial_V" d="M30.83 33.18L27 29.34h5l-5-4.74h5l-3.83-3.83" class="a26-cls-32" data-color-action="stroke" style="stroke:inherit" data-name="cracked surface facial V"/><path id="a26_cracked_surface_mesial" d="M43.66 33.18l-3.83-3.84h5l-5-4.74h5L41 20.77" class="a26-cls-32" data-color-action="stroke" style="stroke:inherit" data-name="cracked surface mesial"/><g id="a26_chipped_surface_incisal" class="a26-cls-12" data-name="chipped surface incisal"><path d="M33.33 16.74L25 8.41M25 16.74l8.33-8.33" class="a26-cls-33" data-color-action="stroke" style="stroke:inherit"/></g><g id="a26_chipped_surface_distal" class="a26-cls-12" data-name="chipped surface distal"><path d="M21.17 31.5l-8.33-8.33M12.84 31.5l8.33-8.33" class="a26-cls-33" data-color-action="stroke" style="stroke:inherit"/></g><g id="a26_chipped_surface_facial" class="a26-cls-12" data-name="chipped surface facial"><path d="M33.33 31.5L25 23.17M25 31.5l8.33-8.33" class="a26-cls-33" data-color-action="stroke" style="stroke:inherit"/></g><g id="a26_chipped_surface_facial_V" class="a26-cls-12" data-name="chipped surface facial V"><path d="M33.33 31.5L25 23.17M25 31.5l8.33-8.33" class="a26-cls-33" data-color-action="stroke" style="stroke:inherit"/></g><g id="a26_chipped_surface_mesial" class="a26-cls-12" data-name="chipped surface mesial"><path d="M46.33 31.5L38 23.17M38 31.5l8.33-8.33" class="a26-cls-33" data-color-action="stroke" style="stroke:inherit"/></g><path id="a26_buccal_abfraction" d="M39.36 47.25a17.54 17.54 0 0 0-9.69-3.42A17.54 17.54 0 0 0 20 47.25a17.54 17.54 0 0 0 9.69 3.42 17.54 17.54 0 0 0 9.67-3.42z" class="a26-cls-14" data-color-action="fill" style="fill:inherit" data-name="buccal abfraction"/><g id="a26_braces"><path d="M22.59 20.84h13.45v18.19H22.59z" class="a26-cls-25"/><path d="M22.59 20.84h13.45v.68H22.59zM22.59 28.43h13.45v1.36H22.59z" class="a26-cls-34" data-color-action="fill" style="fill:inherit"/><path d="M22.59 38.14h13.45v.89H22.59z" class="a26-cls-35" data-color-action="fill" style="fill:inherit"/><rect width="4.11" height="7.94" x="22.3" y="31.07" class="a26-cls-28" rx=".49" ry=".49" data-color-action="fill" style="fill:inherit"/><path d="M25.92 39h-3.13a.49.49 0 0 1-.49-.49v-5.83a13.14 13.14 0 0 1 4.11 0v5.83a.49.49 0 0 1-.49.49z" class="a26-cls-18" data-color-action="fill" style="fill:inherit"/><path d="M26.08 37.6v1.11a.16.16 0 0 1-.16.16h-3.13a.16.16 0 0 1-.16-.16V37.6z" class="a26-cls-25"/><rect width="4.11" height="7.94" x="32.22" y="31.07" class="a26-cls-28" rx=".49" ry=".49" data-color-action="fill" style="fill:inherit"/><path d="M35.84 39h-3.13a.49.49 0 0 1-.49-.49v-5.83a13.14 13.14 0 0 1 4.11 0v5.83a.49.49 0 0 1-.49.49z" class="a26-cls-18" data-color-action="fill" style="fill:inherit"/><path d="M36 37.6v1.11a.16.16 0 0 1-.16.16h-3.13a.16.16 0 0 1-.16-.16V37.6z" class="a26-cls-25"/><rect width="4.11" height="7.94" x="22.3" y="20.79" class="a26-cls-28" rx=".49" ry=".49" data-color-action="fill" style="fill:inherit"/><path d="M25.92 28.73h-3.13a.49.49 0 0 1-.49-.49V22.4a13.14 13.14 0 0 1 4.11 0v5.83a.49.49 0 0 1-.49.5z" class="a26-cls-18" data-color-action="fill" style="fill:inherit"/><path d="M26.08 27.32v1.11a.16.16 0 0 1-.16.16h-3.13a.16.16 0 0 1-.16-.16v-1.11z" class="a26-cls-25"/><rect width="4.11" height="7.94" x="32.22" y="20.79" class="a26-cls-28" rx=".49" ry=".49" data-color-action="fill" style="fill:inherit"/><path d="M35.84 28.73h-3.13a.49.49 0 0 1-.49-.49V22.4a13.14 13.14 0 0 1 4.11 0v5.83a.49.49 0 0 1-.49.5z" class="a26-cls-18" data-color-action="fill" style="fill:inherit"/><path d="M36 27.32v1.11a.16.16 0 0 1-.16.16h-3.13a.16.16 0 0 1-.16-.16v-1.11z" class="a26-cls-25"/><path d="M8.21 29.17h42.21v1.45H8.21z" class="a26-cls-18" data-color-action="fill" style="fill:inherit"/><path d="M8.21 29.17h42.21v.25H8.21z" class="a26-cls-28" data-color-action="fill" style="fill:inherit"/><path d="M8.21 30.02h42.21v.4H8.21z" class="a26-cls-25"/></g><path id="a26_apicoectomy" d="M36.84 127.85l-7.34-11.66-7.34 11.66h14.68z" class="a26-cls-17" data-color-action="fill" style="fill:inherit"/><circle id="a26_abscess" cx="29.5" cy="122.35" r="6.5" class="a26-cls-37" data-color-action="fill" style="fill:inherit"/><g id="a26_blunted_roots" data-name="blunted roots"><path d="M2 79.01h55V139H2z" class="a26-cls-23"/><path d="M2 76.92h55v2H2z" class="a26-cls-36" data-color-action="fill" style="fill:inherit"/></g><path id="a26_root_amputation" d="M2 48.74h55v90.59H2z" class="a26-cls-23" data-name="root amputation"/><path id="a26_missing_crown" d="M2 1.83h55v46.76H2z" class="a26-cls-23" data-name="missing crown"/><g id="a26_missing_tooth" data-name="missing tooth"><path d="M18.58 46c-4.08-5.36-4-27.38-1.62-31.78 2.31-4.22 23.65-4.9 25.36-3.44 2.16 1.85 2 28.82-2.31 34.84l-.11.13c-.76 8.67-3.32 31.84-4 37-1.48 11.59-9.37 33.66-12.94 33s-1-21.08-1.36-35A245.88 245.88 0 0 0 18.58 46z" class="a26-cls-2"/><path d="M40.12 42.68c0 3-3.42 34-4.19 40.07-1.48 11.59-9.37 33.66-12.94 33s-1-21.08-1.36-35a250.41 250.41 0 0 0-3.33-36.59c-1.05-6.97 21.82-11.59 21.82-1.48z" class="a26-cls-23"/><path d="M35.12 74.08c.9-7.53 2.15-23.48 2.15-26.35 0-1.58 1.26-4.75 2.38-7.27a5.32 5.32 0 0 1 .46 2.22c0 3-3.42 34-4.19 40.07a105.12 105.12 0 0 1-8.83 28.31 50.62 50.62 0 0 0 3-8.65c1.62-6.64 4.13-20.8 5.03-28.33zM21.63 80.77a250.4 250.4 0 0 0-3.33-36.61 3.14 3.14 0 0 1 .14-1.46l2.16 2.16s1.79 13.44 2.33 22.41.18 25.63-.54 30.29c-.34 2.22-.85 4.73-1.32 7.16.1-7.16.75-16.49.56-23.95zM27.56 48.31c.42 3.63.73 7.6.15 22.64s-3 41.64-4.53 41.64c-.44 0 1.9-29.07 2.19-37.11s-.58-23.52-1-27.61 2.75-3.36 3.19.44z" class="a26-cls-23"/><path d="M40 45.61c4.35-6 4.47-33 2.31-34.84C40.61 9.32 19.27 10 17 14.24c-2.51 4.6-2.47 28.4 2.18 32.4 2.51 2.2 17.56 3.5 20.82-1.03z" class="a26-cls-23"/><path d="M38.15 46.11c3.33-5.89 3.64-30.85 2.24-35.84a4.5 4.5 0 0 1 1.94.5c2.16 1.85 2 28.82-2.31 34.84a6.73 6.73 0 0 1-3.57 2.18 4.76 4.76 0 0 0 1.7-1.68zM17 14.24a5.27 5.27 0 0 1 2.78-1.91 2.76 2.76 0 0 0-.55.81C17.13 18 17.16 43 21 47.19a3 3 0 0 0 .72.55 7 7 0 0 1-2.56-1.1c-4.67-4-4.71-27.8-2.16-32.4zM27.42 29.88c0 6 .52 15.47.63 18.74-1 0-2.05-.13-3-.25A140 140 0 0 1 23.49 30c0-4.44.24-14.53.71-18.9 1.39-.26 2.87-.47 4.38-.64-.43 3.99-1.16 13.49-1.16 19.42z" class="a26-cls-23"/></g><g id="a26_extracted_tooth" class="a26-msng-cls-10" data-name="extracted tooth"><path d="M9 10.51l41.67 41.66M50.67 10.51L9 52.17" class="a26-msng-cls-11" data-color-action="stroke" style="stroke:inherit"/></g><g id="a26_denture"><path d="M2 2.83h55v135.01H2z" class="a26-cls-23" transform="rotate(-180 29.5 70.34)"/><path d="M57 60.78A22.63 22.63 0 0 1 44.78 64c-7.64 0-10-3.22-15.79-3.22S19.15 64 13.2 64A24.26 24.26 0 0 1 2 60.78V2.83h55z" class="a26-cls-31" data-color-action="fill" style="fill:inherit"/><path d="M40 45.61c4.35-6 4.47-33 2.31-34.84C40.61 9.32 19.27 10 17 14.24c-2.51 4.6-2.47 28.4 2.18 32.4 2.51 2.2 17.56 3.5 20.82-1.03z" class="a26-cls-2"/><path d="M40 45.61c4.35-6 4.47-33 2.31-34.84C40.61 9.32 19.27 10 17 14.24c-2.51 4.6-2.47 28.4 2.18 32.4 2.51 2.2 17.56 3.5 20.82-1.03z" class="a26-cls-6"/><path d="M38.15 46.11c3.33-5.89 3.64-30.85 2.24-35.84a4.5 4.5 0 0 1 1.94.5c2.16 1.85 2 28.82-2.31 34.84a6.73 6.73 0 0 1-3.57 2.18 4.76 4.76 0 0 0 1.7-1.68zM17 14.24a5.27 5.27 0 0 1 2.78-1.91 2.76 2.76 0 0 0-.55.81C17.13 18 17.16 43 21 47.19a3 3 0 0 0 .72.55 7 7 0 0 1-2.56-1.1c-4.67-4-4.71-27.8-2.16-32.4z" class="a26-cls-7"/><path d="M27.42 29.88c0 6 .52 15.47.63 18.74-1 0-2.05-.13-3-.25A140 140 0 0 1 23.49 30c0-4.44.24-14.53.71-18.9 1.39-.26 2.87-.47 4.38-.64-.43 3.99-1.16 13.49-1.16 19.42z" class="a26-cls-8"/></g><g id="a26_maryland_bridge_pontic" class="a26-cls-12" data-name="maryland bridge pontic"><path d="M40 45.61c4.35-6 4.47-33 2.31-34.84C40.61 9.32 19.27 10 17 14.24c-2.51 4.6-2.47 28.4 2.18 32.4 2.51 2.2 17.56 3.5 20.82-1.03z" class="a26-cls-20" data-color-action="fill" style="fill:inherit"/><path d="M2 26h55v7.67H2z" class="a26-cls-20" data-color-action="fill" style="fill:inherit"/></g><g id="a26_maryland_bridge_abutment_mesial" data-name="maryland bridge abutment mesial"><path d="M22.02 26H57v7.67H22.02z" class="a26-cls-12 a26-cls-20" data-color-action="fill" style="fill:inherit"/><path d="M18.58 46c-4.08-5.36-4-27.38-1.62-31.78 2.31-4.22 23.65-4.9 25.36-3.44 2.16 1.85 2 28.82-2.31 34.84l-.11.13c-.76 8.67-3.32 31.84-4 37-1.48 11.59-9.37 33.66-12.94 33s-1-21.08-1.36-35A245.88 245.88 0 0 0 18.58 46z" class="a26-cls-2"/><path d="M40.12 42.68c0 3-3.42 34-4.19 40.07-1.48 11.59-9.37 33.66-12.94 33s-1-21.08-1.36-35a250.41 250.41 0 0 0-3.33-36.59c-1.05-6.97 21.82-11.59 21.82-1.48z" class="a26-cls-3"/><path d="M35.12 74.08c.9-7.53 2.15-23.48 2.15-26.35 0-1.58 1.26-4.75 2.38-7.27a5.32 5.32 0 0 1 .46 2.22c0 3-3.42 34-4.19 40.07a105.12 105.12 0 0 1-8.83 28.31 50.62 50.62 0 0 0 3-8.65c1.62-6.64 4.13-20.8 5.03-28.33zM21.63 80.77a250.4 250.4 0 0 0-3.33-36.61 3.14 3.14 0 0 1 .14-1.46l2.16 2.16s1.79 13.44 2.33 22.41.18 25.63-.54 30.29c-.34 2.22-.85 4.73-1.32 7.16.1-7.16.75-16.49.56-23.95z" class="a26-cls-4"/><path d="M27.56 48.31c.42 3.63.73 7.6.15 22.64s-3 41.64-4.53 41.64c-.44 0 1.9-29.07 2.19-37.11s-.58-23.52-1-27.61 2.75-3.36 3.19.44z" class="a26-cls-5"/><path d="M40 45.61c4.35-6 4.47-33 2.31-34.84C40.61 9.32 19.27 10 17 14.24c-2.51 4.6-2.47 28.4 2.18 32.4 2.51 2.2 17.56 3.5 20.82-1.03z" class="a26-cls-6"/><path d="M38.15 46.11c3.33-5.89 3.64-30.85 2.24-35.84a4.5 4.5 0 0 1 1.94.5c2.16 1.85 2 28.82-2.31 34.84a6.73 6.73 0 0 1-3.57 2.18 4.76 4.76 0 0 0 1.7-1.68zM17 14.24a5.27 5.27 0 0 1 2.78-1.91 2.76 2.76 0 0 0-.55.81C17.13 18 17.16 43 21 47.19a3 3 0 0 0 .72.55 7 7 0 0 1-2.56-1.1c-4.67-4-4.71-27.8-2.16-32.4z" class="a26-cls-7"/><path d="M27.42 29.88c0 6 .52 15.47.63 18.74-1 0-2.05-.13-3-.25A140 140 0 0 1 23.49 30c0-4.44.24-14.53.71-18.9 1.39-.26 2.87-.47 4.38-.64-.43 3.99-1.16 13.49-1.16 19.42z" class="a26-cls-8"/></g><g id="a26_maryland_bridge_abutment_distal" data-name="maryland bridge abutment distal"><path d="M2 26h34.98v7.67H2z" class="a26-cls-12 a26-cls-20" data-color-action="fill" style="fill:inherit"/><path d="M18.58 46c-4.08-5.36-4-27.38-1.62-31.78 2.31-4.22 23.65-4.9 25.36-3.44 2.16 1.85 2 28.82-2.31 34.84l-.11.13c-.76 8.67-3.32 31.84-4 37-1.48 11.59-9.37 33.66-12.94 33s-1-21.08-1.36-35A245.88 245.88 0 0 0 18.58 46z" class="a26-cls-2"/><path d="M40.12 42.68c0 3-3.42 34-4.19 40.07-1.48 11.59-9.37 33.66-12.94 33s-1-21.08-1.36-35a250.41 250.41 0 0 0-3.33-36.59c-1.05-6.97 21.82-11.59 21.82-1.48z" class="a26-cls-3"/><path d="M35.12 74.08c.9-7.53 2.15-23.48 2.15-26.35 0-1.58 1.26-4.75 2.38-7.27a5.32 5.32 0 0 1 .46 2.22c0 3-3.42 34-4.19 40.07a105.12 105.12 0 0 1-8.83 28.31 50.62 50.62 0 0 0 3-8.65c1.62-6.64 4.13-20.8 5.03-28.33zM21.63 80.77a250.4 250.4 0 0 0-3.33-36.61 3.14 3.14 0 0 1 .14-1.46l2.16 2.16s1.79 13.44 2.33 22.41.18 25.63-.54 30.29c-.34 2.22-.85 4.73-1.32 7.16.1-7.16.75-16.49.56-23.95z" class="a26-cls-4"/><path d="M27.56 48.31c.42 3.63.73 7.6.15 22.64s-3 41.64-4.53 41.64c-.44 0 1.9-29.07 2.19-37.11s-.58-23.52-1-27.61 2.75-3.36 3.19.44z" class="a26-cls-5"/><path d="M40 45.61c4.35-6 4.47-33 2.31-34.84C40.61 9.32 19.27 10 17 14.24c-2.51 4.6-2.47 28.4 2.18 32.4 2.51 2.2 17.56 3.5 20.82-1.03z" class="a26-cls-6"/><path d="M38.15 46.11c3.33-5.89 3.64-30.85 2.24-35.84a4.5 4.5 0 0 1 1.94.5c2.16 1.85 2 28.82-2.31 34.84a6.73 6.73 0 0 1-3.57 2.18 4.76 4.76 0 0 0 1.7-1.68zM17 14.24a5.27 5.27 0 0 1 2.78-1.91 2.76 2.76 0 0 0-.55.81C17.13 18 17.16 43 21 47.19a3 3 0 0 0 .72.55 7 7 0 0 1-2.56-1.1c-4.67-4-4.71-27.8-2.16-32.4z" class="a26-cls-7"/><path d="M27.42 29.88c0 6 .52 15.47.63 18.74-1 0-2.05-.13-3-.25A140 140 0 0 1 23.49 30c0-4.44.24-14.53.71-18.9 1.39-.26 2.87-.47 4.38-.64-.43 3.99-1.16 13.49-1.16 19.42z" class="a26-cls-8"/></g><g id="a26_maryland_bridge_abutment" data-name="maryland bridge abutment"><path d="M2 26h55v7.67H2z" class="a26-cls-12 a26-cls-20" data-color-action="fill" style="fill:inherit"/><path d="M18.58 46c-4.08-5.36-4-27.38-1.62-31.78 2.31-4.22 23.65-4.9 25.36-3.44 2.16 1.85 2 28.82-2.31 34.84l-.11.13c-.76 8.67-3.32 31.84-4 37-1.48 11.59-9.37 33.66-12.94 33s-1-21.08-1.36-35A245.88 245.88 0 0 0 18.58 46z" class="a26-cls-2"/><path d="M40.12 42.68c0 3-3.42 34-4.19 40.07-1.48 11.59-9.37 33.66-12.94 33s-1-21.08-1.36-35a250.41 250.41 0 0 0-3.33-36.59c-1.05-6.97 21.82-11.59 21.82-1.48z" class="a26-cls-3"/><path d="M35.12 74.08c.9-7.53 2.15-23.48 2.15-26.35 0-1.58 1.26-4.75 2.38-7.27a5.32 5.32 0 0 1 .46 2.22c0 3-3.42 34-4.19 40.07a105.12 105.12 0 0 1-8.83 28.31 50.62 50.62 0 0 0 3-8.65c1.62-6.64 4.13-20.8 5.03-28.33zM21.63 80.77a250.4 250.4 0 0 0-3.33-36.61 3.14 3.14 0 0 1 .14-1.46l2.16 2.16s1.79 13.44 2.33 22.41.18 25.63-.54 30.29c-.34 2.22-.85 4.73-1.32 7.16.1-7.16.75-16.49.56-23.95z" class="a26-cls-4"/><path d="M27.56 48.31c.42 3.63.73 7.6.15 22.64s-3 41.64-4.53 41.64c-.44 0 1.9-29.07 2.19-37.11s-.58-23.52-1-27.61 2.75-3.36 3.19.44z" class="a26-cls-5"/><path d="M40 45.61c4.35-6 4.47-33 2.31-34.84C40.61 9.32 19.27 10 17 14.24c-2.51 4.6-2.47 28.4 2.18 32.4 2.51 2.2 17.56 3.5 20.82-1.03z" class="a26-cls-6"/><path d="M38.15 46.11c3.33-5.89 3.64-30.85 2.24-35.84a4.5 4.5 0 0 1 1.94.5c2.16 1.85 2 28.82-2.31 34.84a6.73 6.73 0 0 1-3.57 2.18 4.76 4.76 0 0 0 1.7-1.68zM17 14.24a5.27 5.27 0 0 1 2.78-1.91 2.76 2.76 0 0 0-.55.81C17.13 18 17.16 43 21 47.19a3 3 0 0 0 .72.55 7 7 0 0 1-2.56-1.1c-4.67-4-4.71-27.8-2.16-32.4z" class="a26-cls-7"/><path d="M27.42 29.88c0 6 .52 15.47.63 18.74-1 0-2.05-.13-3-.25A140 140 0 0 1 23.49 30c0-4.44.24-14.53.71-18.9 1.39-.26 2.87-.47 4.38-.64-.43 3.99-1.16 13.49-1.16 19.42z" class="a26-cls-8"/></g><g id="a26_bridge_abutment_mesial" class="a26-cls-12" data-name="bridge abutment mesial"><path d="M40 45.61c4.35-6 4.47-33 2.31-34.84C40.61 9.32 19.27 10 17 14.24c-2.51 4.6-2.47 28.4 2.18 32.4 2.51 2.2 17.56 3.5 20.82-1.03z" class="a26-cls-18" data-color-action="fill" style="fill:inherit"/><path d="M22.02 26H57v7.67H22.02z" class="a26-cls-18" data-color-action="fill" style="fill:inherit"/></g><g id="a26_bridge_abutment_distal" class="a26-cls-12" data-name="bridge abutment distal"><path d="M40 45.61c4.35-6 4.47-33 2.31-34.84C40.61 9.32 19.27 10 17 14.24c-2.51 4.6-2.47 28.4 2.18 32.4 2.51 2.2 17.56 3.5 20.82-1.03z" class="a26-cls-18" data-color-action="fill" style="fill:inherit"/><path d="M2 26h34.98v7.67H2z" class="a26-cls-18" data-color-action="fill" style="fill:inherit"/></g><g id="a26_bridge_abutment" class="a26-cls-12" data-name="bridge abutment"><path d="M40 45.61c4.35-6 4.47-33 2.31-34.84C40.61 9.32 19.27 10 17 14.24c-2.51 4.6-2.47 28.4 2.18 32.4 2.51 2.2 17.56 3.5 20.82-1.03z" class="a26-cls-18" data-color-action="fill" style="fill:inherit"/><path d="M2 26h55v7.67H2z" class="a26-cls-18" data-color-action="fill" style="fill:inherit"/></g><g id="a26_bridge_pontic" data-name="bridge pontic"><path d="M18.58 46c-4.08-5.36-4-27.38-1.62-31.78 2.31-4.22 23.65-4.9 25.36-3.44 2.16 1.85 2 28.82-2.31 34.84l-.11.13c-.76 8.67-3.32 31.84-4 37-1.48 11.59-9.37 33.66-12.94 33s-1-21.08-1.36-35A245.88 245.88 0 0 0 18.58 46z" class="a26-cls-2"/><path d="M40.12 42.68c0 3-3.42 34-4.19 40.07-1.48 11.59-9.37 33.66-12.94 33s-1-21.08-1.36-35a250.41 250.41 0 0 0-3.33-36.59c-1.05-6.97 21.82-11.59 21.82-1.48z" class="a26-cls-23"/><path d="M35.12 74.08c.9-7.53 2.15-23.48 2.15-26.35 0-1.58 1.26-4.75 2.38-7.27a5.32 5.32 0 0 1 .46 2.22c0 3-3.42 34-4.19 40.07a105.12 105.12 0 0 1-8.83 28.31 50.62 50.62 0 0 0 3-8.65c1.62-6.64 4.13-20.8 5.03-28.33zM21.63 80.77a250.4 250.4 0 0 0-3.33-36.61 3.14 3.14 0 0 1 .14-1.46l2.16 2.16s1.79 13.44 2.33 22.41.18 25.63-.54 30.29c-.34 2.22-.85 4.73-1.32 7.16.1-7.16.75-16.49.56-23.95zM27.56 48.31c.42 3.63.73 7.6.15 22.64s-3 41.64-4.53 41.64c-.44 0 1.9-29.07 2.19-37.11s-.58-23.52-1-27.61 2.75-3.36 3.19.44z" class="a26-cls-23"/><path d="M40 45.61c4.35-6 4.47-33 2.31-34.84C40.61 9.32 19.27 10 17 14.24c-2.51 4.6-2.47 28.4 2.18 32.4 2.51 2.2 17.56 3.5 20.82-1.03z" class="a26-cls-6"/><path d="M38.15 46.11c3.33-5.89 3.64-30.85 2.24-35.84a4.5 4.5 0 0 1 1.94.5c2.16 1.85 2 28.82-2.31 34.84a6.73 6.73 0 0 1-3.57 2.18 4.76 4.76 0 0 0 1.7-1.68zM17 14.24a5.27 5.27 0 0 1 2.78-1.91 2.76 2.76 0 0 0-.55.81C17.13 18 17.16 43 21 47.19a3 3 0 0 0 .72.55 7 7 0 0 1-2.56-1.1c-4.67-4-4.71-27.8-2.16-32.4z" class="a26-cls-7"/><path d="M27.42 29.88c0 6 .52 15.47.63 18.74-1 0-2.05-.13-3-.25A140 140 0 0 1 23.49 30c0-4.44.24-14.53.71-18.9 1.39-.26 2.87-.47 4.38-.64-.43 3.99-1.16 13.49-1.16 19.42z" class="a26-cls-8"/><g class="a26-cls-12"><path d="M40 45.61c4.35-6 4.47-33 2.31-34.84C40.61 9.32 19.27 10 17 14.24c-2.51 4.6-2.47 28.4 2.18 32.4 2.51 2.2 17.56 3.5 20.82-1.03z" class="a26-cls-18" data-color-action="fill" style="fill:inherit"/><path d="M2 26h55v7.67H2z" class="a26-cls-18" data-color-action="fill" style="fill:inherit"/></g></g><g id="a26_implant_mini" data-name="implant mini"><path d="M2.39 1.79h55v137.17h-55z" class="a26-cls-23"/><path d="M29.72 77.93h-.44l-1-8.49V28.6h2.44v40.84l-1 8.49z" class="a26-cls-18" data-color-action="fill" style="fill:inherit"/><path d="M29.42 77.93h-.07l-.4-8.49V28.6h.37v40.84l.1 8.49z" class="a26-cls-25"/><path d="M28.28 28.6h2.44v.63h-2.44z" class="a26-cls-28" data-color-action="fill" style="fill:inherit"/><g class="a26-cls-29"><path d="M28.28 29.23l2.44 1v-.63l-2.44-1v.63zM28.28 30.68l2.44 1v-.63l-2.44-1v.63zM28.28 32.12l2.44 1v-.63l-2.44-1v.63zM28.28 33.57l2.44 1v-.63l-2.44-1v.63zM28.28 35.02l2.44 1v-.64l-2.44-1v.64zM28.28 36.46l2.44 1v-.63l-2.44-1v.63zM28.28 37.91l2.44 1v-.64l-2.44-1v.64zM28.28 39.35l2.44 1v-.63l-2.44-1v.63zM28.28 40.8l2.44 1v-.64l-2.44-1v.64zM28.28 42.24l2.44 1v-.63l-2.44-1v.63zM28.28 43.69l2.44 1v-.64l-2.44-1v.64zM28.28 45.13l2.44 1v-.63l-2.44-1v.63zM28.28 46.58l2.44 1v-.63l-2.44-1v.63zM28.28 48.02l2.44 1v-.63l-2.44-1v.63zM28.28 49.47l2.44 1v-.63l-2.44-1v.63zM28.28 50.91l2.44 1v-.63l-2.44-1v.63zM28.28 52.36l2.44 1v-.63l-2.44-1v.63zM28.28 53.8l2.44 1.01v-.64l-2.44-1v.63zM28.28 55.25l2.44 1v-.63l-2.44-1v.63zM28.28 56.7l2.44 1v-.64l-2.44-1v.64zM28.28 58.14l2.44 1v-.63l-2.44-1v.63zM28.28 59.59l2.44 1v-.63l-2.44-1.01v.64zM28.28 61.03l2.44 1v-.63l-2.44-1v.63zM28.28 62.48l2.44 1v-.63l-2.44-1v.63zM28.28 63.92l2.44 1v-.63l-2.44-1v.63zM28.28 65.37l2.44 1v-.63l-2.44-1v.63zM28.28 66.81l2.44 1v-.63l-2.44-1v.63zM28.28 68.26l2.44 1v-.63l-2.44-1v.63zM28.28 69.44l.03.28 2.27.93.07-.61-2.37-.97v.37zM28.49 71.24l1.93.79.07-.61-2.08-.85.08.67zM28.67 72.76l1.58.65.08-.61-1.74-.71.08.67zM28.85 74.28l1.24.5.07-.6-1.39-.57.08.67zM29.03 75.79l.9.37.07-.6-1.05-.43.08.66zM29.2 77.31l.57.23.07-.6-.71-.29.07.66z" class="a26-cls-28" data-color-action="fill" style="fill:inherit"/></g><circle cx="29.5" cy="24.73" r="2.24" class="a26-cls-18" data-color-action="fill" style="fill:inherit"/><path d="M27.67 25.95h3.67v3h-3.67z" class="a26-cls-18" data-color-action="fill" style="fill:inherit"/><path d="M28.49 25.95h.55v3h-.55z" class="a26-cls-25"/><path d="M28.7 23.37h-.21a2.32 2.32 0 0 0-.49 1.29 2.37 2.37 0 0 0 .52 1.3H29a2 2 0 0 1-.73-1.37 1.5 1.5 0 0 1 .43-1.22z" class="a26-cls-25"/><path d="M28.28 34.67h2.44v.63h-2.44z" class="a26-cls-28" data-color-action="fill" style="fill:inherit"/><path d="M32.11 28.92h-5.22l.87 5.71h3.48l.87-5.71z" class="a26-cls-18" data-color-action="fill" style="fill:inherit"/><path d="M28.85 28.92h-.79l.48 5.71h.53l-.22-5.71z" class="a26-cls-25"/></g><g id="a26_implant_cylinder" data-name="implant cylinder"><path d="M2 1.83h55V139H2z" class="a26-cls-23"/><path d="M26.17 25.65h6.67v49.33h-6.67z" class="a26-cls-18" data-color-action="fill" style="fill:inherit"/><path d="M24.5 22.66h10v3h-10z" class="a26-cls-18" data-color-action="fill" style="fill:inherit"/><path d="M28 25.65h1v49.33h-1z" class="a26-cls-25"/><path d="M26.75 22.66h1.5v3h-1.5z" class="a26-cls-25"/><path d="M24.5 75.02h10v3h-10z" class="a26-cls-18" data-color-action="fill" style="fill:inherit"/><path d="M26.75 75.02h1.5v3h-1.5z" class="a26-cls-25"/><path d="M26.17 25.65h6.67v.63h-6.67zM26.17 74.35h6.67v.63h-6.67z" class="a26-cls-28" data-color-action="fill" style="fill:inherit"/><g class="a26-cls-29"><path d="M32.83 73.35l-6.66 1.01v.63l6.66-1v-.64zM32.83 71.91l-6.66 1v.63l6.66-1v-.63zM32.83 70.46l-6.66 1v.64l6.66-1.01v-.63zM32.83 69.02l-6.66 1v.63l6.66-1v-.63zM32.83 67.57l-6.66 1v.63l6.66-1v-.63zM32.83 66.13l-6.66 1v.63l6.66-1v-.63zM32.83 64.68l-6.66 1v.63l6.66-1v-.63zM32.83 63.24l-6.66 1v.63l6.66-1v-.63zM32.83 61.79l-6.66 1v.63l6.66-1v-.63zM32.83 60.34l-6.66 1.01v.63l6.66-1v-.64zM32.83 58.9l-6.66 1v.63l6.66-1v-.63zM32.83 57.45l-6.66 1v.64l6.66-1v-.64zM32.83 56.01l-6.66 1v.63l6.66-1v-.63zM32.83 54.56l-6.66 1v.64l6.66-1v-.64zM32.83 53.12l-6.66 1v.63l6.66-1v-.63zM32.83 51.67l-6.66 1v.63l6.66-1v-.63zM32.83 50.23l-6.66 1v.63l6.66-1v-.63zM32.83 48.78l-6.66 1v.63l6.66-1v-.63zM32.83 47.34l-6.66 1v.63l6.66-1v-.63zM32.83 45.89l-6.66 1v.63l6.66-1v-.63zM32.83 44.45l-6.66 1v.63l6.66-1v-.63zM32.83 43l-6.66 1v.63l6.66-1V43zM32.83 41.55l-6.66 1v.64l6.66-1v-.64zM32.83 40.11l-6.66 1v.63l6.66-1v-.63zM32.83 38.66l-6.66 1v.64l6.66-1v-.64zM32.83 37.22l-6.66 1v.63l6.66-1v-.63zM32.83 35.77l-6.66 1v.64l6.66-1v-.64zM32.83 34.33l-6.66 1v.63l6.66-1v-.63zM32.83 32.88l-6.66 1v.63l6.66-1v-.63zM32.83 31.44l-6.66 1v.63l6.66-1v-.63zM32.83 29.99l-6.66 1v.63l6.66-1v-.63zM32.83 28.55l-6.66 1v.63l6.66-1v-.63zM32.83 27.1l-6.66 1v.63l6.66-1v-.63zM32.83 25.65l-6.66 1.01v.63l6.66-1v-.64z" class="a26-cls-28" data-color-action="fill" style="fill:inherit"/></g></g><g id="a26_implant_blade" data-name="implant blade"><path d="M2 1.83h55V139H2z" class="a26-cls-23"/><path d="M26.17 25.65h6.67v49.33h-6.67z" class="a26-cls-18" data-color-action="fill" style="fill:inherit"/><path d="M24.5 22.66h10v3h-10z" class="a26-cls-18" data-color-action="fill" style="fill:inherit"/><path d="M28 25.65h1v49.33h-1z" class="a26-cls-25"/><path d="M26.75 22.66h1.5v3h-1.5z" class="a26-cls-25"/><path d="M26.17 25.65h6.67v.63h-6.67z" class="a26-cls-28" data-color-action="fill" style="fill:inherit"/></g><path id="a26_watch_tooth" d="M8.27 153.9a3.26 3.26 0 0 1 3.22-3.26 3.24 3.24 0 1 1 0 6.47 3.25 3.25 0 0 1-3.22-3.21zm1-5.91l-.88-18.09h6.15l-.8 18.1z" class="a26-cls-11" data-color-action="fill" style="fill:inherit" data-name="watch tooth"/><path id="a26_border" d="M0 0h59v161H0z" class="a26-cls-15" transform="rotate(180 29.5 80.5)"/></defs></g><g class="c26-cls-1"><g id="_26C" data-name="#26C"><path d="M40 19.65c4.35 6 4.47 33 2.31 34.84-1.7 1.46-23.04.77-25.31-3.49-2.51-4.6-2.47-28.4 2.18-32.4 2.51-2.17 17.56-3.47 20.82 1.05z" class="c26-cls-2"/><path d="M40 19.65c4.35 6 4.47 33 2.31 34.84-1.7 1.46-23.04.77-25.31-3.49-2.51-4.6-2.47-28.4 2.18-32.4 2.51-2.17 17.56-3.47 20.82 1.05z" class="c26-cls-3"/><path d="M39.58 27.06c.91-.36-.72-4.35-1.81-5.43s-5.43-1.81-8-1.63-6.88 0-8.33 1.27-2 5.8-1.63 6.52 1.63-3.26 2.72-3.8 2-.54 4 .18 5.25-1.63 7.24-.91 4.75 4.22 5.81 3.8z" class="c26-cls-4"/><path d="M42.32 54.49C40.61 55.95 19.27 55.26 17 51a9.32 9.32 0 0 1-.76-2.31c2.09 1.56 7.14 2.85 10 3.14a134.17 134.17 0 0 0 14.13.72 4.26 4.26 0 0 0 3-1.69c-.3 1.96-.63 3.27-1.05 3.63z" class="c26-cls-5"/></g><defs><g id="c26_splinted_crowns" data-name="splinted crowns"><path d="M2 11.87h55v7.67H2z" class="c26-cls-12" data-color-action="fill" style="fill:inherit"/><path d="M40 19.65c4.35 6 4.47 33 2.31 34.84-1.7 1.46-23.04.77-25.31-3.49-2.51-4.6-2.47-28.4 2.18-32.4 2.51-2.17 17.56-3.47 20.82 1.05z" class="c26-cls-2"/><path d="M40 19.65c4.35 6 4.47 33 2.31 34.84-1.7 1.46-23.04.77-25.31-3.49-2.51-4.6-2.47-28.4 2.18-32.4 2.51-2.17 17.56-3.47 20.82 1.05z" class="c26-cls-3"/><path d="M39.58 27.06c.91-.36-.72-4.35-1.81-5.43s-5.43-1.81-8-1.63-6.88 0-8.33 1.27-2 5.8-1.63 6.52 1.63-3.26 2.72-3.8 2-.54 4 .18 5.25-1.63 7.24-.91 4.75 4.22 5.81 3.8z" class="c26-cls-4"/><path d="M42.32 54.49C40.61 55.95 19.27 55.26 17 51a9.32 9.32 0 0 1-.76-2.31c2.09 1.56 7.14 2.85 10 3.14a134.17 134.17 0 0 0 14.13.72 4.26 4.26 0 0 0 3-1.69c-.3 1.96-.63 3.27-1.05 3.63z" class="c26-cls-5"/></g><path id="c26_mesial" d="M43.67 45.44l-4.31-2.59c.77-2.22.35-5.32.82-8.51A4.35 4.35 0 0 1 43 31a107.2 107.2 0 0 1 .67 14.44z" class="c26-cls-6" data-color-action="fill" style="fill:inherit"/><path id="c26_line_angle_4" d="M36.07 55.19l-2.51-9a12.57 12.57 0 0 0 3.35-.74 4 4 0 0 0 2.45-2.59l4.31 2.59c-.12 4.75-.6 8.41-1.35 9.05-.54.45-3.02.7-6.25.69z" class="c26-cls-6" data-color-action="fill" style="fill:inherit" data-name="line angle 4"/><path id="c26_lingual" d="M22.11 53.67l1.8-8a35.69 35.69 0 0 0 9.64.47l2.51 9a63.91 63.91 0 0 1-13.95-1.47z" class="c26-cls-6" data-color-action="fill" style="fill:inherit"/><path id="c26_line_angle_3" d="M17 51a19 19 0 0 1-1.35-6.19l4.22-2.72c.54 1.58 1.34 2.83 2.55 3.2.43.14.94.26 1.52.38l-1.8 8C19.54 53 17.57 52.15 17 51z" class="c26-cls-6" data-color-action="fill" style="fill:inherit" data-name="line angle 3"/><path id="c26_distal" d="M18.57 35.12a34.5 34.5 0 0 0 1.27 7l-4.22 2.72A79.39 79.39 0 0 1 15.6 31a5.34 5.34 0 0 1 2.97 4.12z" class="c26-cls-6" data-color-action="fill" style="fill:inherit"/><ellipse id="c26_mid_lingual" cx="29.38" cy="33.06" class="c26-cls-6" rx="4.66" ry="9.56" data-color-action="fill" style="fill:inherit" data-name="mid lingual"/><path id="c26_lingual_V" d="M21.68 17.54c3.89-1 10.79-1.4 15.11.05a13.7 13.7 0 0 1-15.11-.05z" class="c26-cls-6" data-color-action="fill" style="fill:inherit" data-name="lingual V"/><g id="c26_veneer"><path d="M28 61.75h3v3h-3z" class="c26-cls-7"/><path d="M28 61.75h3v3h-3z" class="c26-cls-7"/><path d="M28 61.75h3v3h-3z" class="c26-cls-7"/></g><g id="c26_tissue_graft" data-name="tissue graft"><path d="M28 61.75h3v3h-3z" class="c26-cls-7"/><path d="M28 61.75h3v3h-3z" class="c26-cls-7"/><path d="M28 61.75h3v3h-3z" class="c26-cls-7"/></g><g id="c26_tipped_lingual" class="c26-cls-8" data-name="tipped lingual"><path d="M30.35 59.07c-1.26 3.37-4.74 3.85-7.69-5.32-.5-1.56-4.42-1.76-3.84 0 2 6.08 5.31 10.2 9.06 9.27a4.86 4.86 0 0 0 3-3.38 5.27 5.27 0 0 1-.53-.57z" class="c26-cls-9" data-color-action="fill" style="fill:inherit"/><path d="M28.27 56.15H15.33l2.94-9.64 10 9.64z" class="c26-cls-9" data-color-action="fill" style="fill:inherit"/></g><g id="c26_tipped_facial" data-name="tipped facial"><path d="M28 61.75h3v3h-3z" class="c26-cls-7"/><path d="M28 61.75h3v3h-3z" class="c26-cls-7"/><path d="M28 61.75h3v3h-3z" class="c26-cls-7"/></g><path id="c26_surface_restoration_incisal" d="M17 51c2.31 4.23 23.65 4.92 25.36 3.46a.91.91 0 0 0 .15-.18l-5.89-6.43v.31h-.3a52.31 52.31 0 0 1-13.41-1.55v-.21l-5.89 4.52z" class="c26-cls-10" data-color-action="fill" style="fill:inherit" data-name="surface restoration incisal"/><path id="c26_surface_restoration_mesial" d="M42.71 28.56a11.52 11.52 0 0 1-6.56-6.08 253.59 253.59 0 0 1 .44 25.39l5.89 6.43c1.42-2.13 1.72-15.9.23-25.74z" class="c26-cls-10" data-color-action="fill" style="fill:inherit" data-name="surface restoration mesial"/><path id="c26_surface_restoration_lingual" d="M23.85 19.58a11.59 11.59 0 0 1-.9 2.6c-.68 8.58-.91 20.71-.09 24.45a52.31 52.31 0 0 0 13.41 1.55h.3a249.71 249.71 0 0 0-.42-25.69 11.57 11.57 0 0 1-.77-2.33 13.9 13.9 0 0 1-11.53-.57z" class="c26-cls-8 c26-cls-11" data-color-action="fill" style="fill:inherit" data-name="surface restoration lingual"/><path id="c26_surface_restoration_lingual_V" d="M35.16 17.15a32.6 32.6 0 0 0-11-.11v.1a11.31 11.31 0 0 1-.28 2.44 13.9 13.9 0 0 0 11.53.57 11.36 11.36 0 0 1-.26-2.39c-.03-.21 0-.41.01-.61z" class="c26-cls-8 c26-cls-11" data-color-action="fill" style="fill:inherit" data-name="surface restoration lingual V"/><path id="c26_surface_restoration_distal" d="M22.82 46.42c-.77-3.95-.54-15.8.13-24.24a11.52 11.52 0 0 1-7 6c-1.13 8.47-.59 19.66 1 22.78z" class="c26-cls-10" data-color-action="fill" style="fill:inherit" data-name="surface restoration distal"/><g id="c26_supra-erupted"><path d="M28 61.75h3v3h-3z" class="c26-cls-7"/><path d="M28 61.75h3v3h-3z" class="c26-cls-7"/><path d="M28 61.75h3v3h-3z" class="c26-cls-7"/></g><g id="c26_sub-erupted"><path d="M28 61.75h3v3h-3z" class="c26-cls-7"/><path d="M28 61.75h3v3h-3z" class="c26-cls-7"/><path d="M28 61.75h3v3h-3z" class="c26-cls-7"/></g><g id="c26_sealant"><path d="M28 61.75h3v3h-3z" class="c26-cls-7"/><path d="M28 61.75h3v3h-3z" class="c26-cls-7"/><path d="M28 61.75h3v3h-3z" class="c26-cls-7"/></g><g id="c26_root_decay" data-name="root decay"><path d="M28 61.75h3v3h-3z" class="c26-cls-7"/><path d="M28 61.75h3v3h-3z" class="c26-cls-7"/><path d="M28 61.75h3v3h-3z" class="c26-cls-7"/></g><g id="c26_root_canal" data-name="root canal"><path d="M28 61.75h3v3h-3z" class="c26-cls-7"/><path d="M28 61.75h3v3h-3z" class="c26-cls-7"/><path d="M28 61.75h3v3h-3z" class="c26-cls-7"/></g><g id="c26_root_abrasion" data-name="root abrasion"><path d="M28 61.75h3v3h-3z" class="c26-cls-7"/><path d="M28 61.75h3v3h-3z" class="c26-cls-7"/><path d="M28 61.75h3v3h-3z" class="c26-cls-7"/></g><g id="c26_open_contact_mesial" data-name="open contact mesial"><path d="M28 61.75h3v3h-3z" class="c26-cls-7"/><path d="M28 61.75h3v3h-3z" class="c26-cls-7"/><path d="M28 61.75h3v3h-3z" class="c26-cls-7"/></g><g id="c26_open_contact_distal" data-name="open contact distal"><path d="M28 61.75h3v3h-3z" class="c26-cls-7"/><path d="M28 61.75h3v3h-3z" class="c26-cls-7"/><path d="M28 61.75h3v3h-3z" class="c26-cls-7"/></g><path id="c26_lingual_abfraction" d="M41.2 16.16S36 12 29.5 12s-11.7 4.12-11.7 4.12 5.2 4.17 11.7 4.17 11.7-4.13 11.7-4.13z" class="c26-cls-15" data-color-action="fill" style="fill:inherit" data-name="lingual abfraction"/><g id="c26_internal_root_resorption" data-name="internal root resorption"><path d="M28 61.75h3v3h-3z" class="c26-cls-7"/><path d="M28 61.75h3v3h-3z" class="c26-cls-7"/><path d="M28 61.75h3v3h-3z" class="c26-cls-7"/></g><g id="c26_gortex_membranes" data-name="gortex membranes"><path d="M28 61.75h3v3h-3z" class="c26-cls-7"/><path d="M28 61.75h3v3h-3z" class="c26-cls-7"/><path d="M28 61.75h3v3h-3z" class="c26-cls-7"/></g><g id="c26_frenum_pull" data-name="frenum pull"><path d="M28 61.75h3v3h-3z" class="c26-cls-7"/><path d="M28 61.75h3v3h-3z" class="c26-cls-7"/><path d="M28 61.75h3v3h-3z" class="c26-cls-7"/></g><g id="c26_external_root_resorption" data-name="external root resorption"><path d="M28 61.75h3v3h-3z" class="c26-cls-7"/><path d="M28 61.75h3v3h-3z" class="c26-cls-7"/><path d="M28 61.75h3v3h-3z" class="c26-cls-7"/></g><path id="c26_three_quarter_crown" d="M15.31 36.64C15.22 43 15.83 49 17 51c2.31 4.23 23.65 4.92 25.36 3.46 1.17-1 1.67-9.41 1.19-17.85z" class="c26-cls-8 c26-cls-19" data-color-action="fill" style="fill:inherit" data-name="three quarter crown"/><path id="c26_crown" d="M40 19.65c4.35 6 4.47 33 2.31 34.84-1.7 1.46-23.04.77-25.31-3.49-2.51-4.6-2.47-28.4 2.18-32.4 2.51-2.17 17.56-3.47 20.82 1.05z" class="c26-cls-8 c26-cls-19" data-color-action="fill" style="fill:inherit"/><path id="c26_cracked_surface_distal" d="M17.66 47.19l-3.83-3.84h5.01l-5.01-4.74h5.01l-3.83-3.83" class="c26-cls-20" data-color-action="stroke" style="stroke:inherit" data-name="cracked surface distal"/><path id="c26_cracked_surface_lingual" d="M30.83 47.19L27 43.35h5l-5-4.74h5l-3.83-3.83" class="c26-cls-20" data-color-action="stroke" style="stroke:inherit" data-name="cracked surface lingual"/><path id="c26_cracked_surface_lingual_V" d="M30.83 47.19L27 43.35h5l-5-4.74h5l-3.83-3.83" class="c26-cls-20" data-color-action="stroke" style="stroke:inherit" data-name="cracked surface lingual V"/><path id="c26_cracked_surface_mesial" d="M43.66 47.19l-3.83-3.84h5l-5-4.74h5L41 34.78" class="c26-cls-20" data-color-action="stroke" style="stroke:inherit" data-name="cracked surface mesial"/><g id="c26_chipped_surface_distal" class="c26-cls-8" data-name="chipped surface distal"><path d="M21.17 45.51l-8.33-8.33M12.84 45.51l8.33-8.33" class="c26-cls-21" data-color-action="stroke" style="stroke:inherit"/></g><g id="c26_chipped_surface_lingual" class="c26-cls-8" data-name="chipped surface lingual"><path d="M33.33 45.51L25 37.18M25 45.51l8.33-8.33" class="c26-cls-21" data-color-action="stroke" style="stroke:inherit"/></g><g id="c26_chipped_surface_lingual_V" class="c26-cls-8" data-name="chipped surface lingual V"><path d="M33.33 45.51L25 37.18M25 45.51l8.33-8.33" class="c26-cls-21" data-color-action="stroke" style="stroke:inherit"/></g><g id="c26_chipped_surface_mesial" class="c26-cls-8" data-name="chipped surface mesial"><path d="M46.33 45.51L38 37.18M38 45.51l8.33-8.33" class="c26-cls-21" data-color-action="stroke" style="stroke:inherit"/></g><g id="c26_buccal_abfraction" data-name="buccal abfraction"><path d="M28 61.75h3v3h-3z" class="c26-cls-7"/><path d="M28 61.75h3v3h-3z" class="c26-cls-7"/><path d="M28 61.75h3v3h-3z" class="c26-cls-7"/></g><g id="c26_braces"><path d="M28 61.75h3v3h-3z" class="c26-cls-7"/><path d="M28 61.75h3v3h-3z" class="c26-cls-7"/><path d="M28 61.75h3v3h-3z" class="c26-cls-7"/></g><g id="c26_apicoectomy"><path d="M28 61.75h3v3h-3z" class="c26-cls-7"/><path d="M28 61.75h3v3h-3z" class="c26-cls-7"/><path d="M28 61.75h3v3h-3z" class="c26-cls-7"/></g><g id="c26_abscess"><path d="M28 61.75h3v3h-3z" class="c26-cls-7"/><path d="M28 61.75h3v3h-3z" class="c26-cls-7"/><path d="M28 61.75h3v3h-3z" class="c26-cls-7"/></g><g id="c26_blunted_roots" data-name="blunted roots"><path d="M28 61.75h3v3h-3z" class="c26-cls-7"/><path d="M28 61.75h3v3h-3z" class="c26-cls-7"/><path d="M28 61.75h3v3h-3z" class="c26-cls-7"/></g><g id="c26_root_amputation" data-name="root amputation"><path d="M28 61.75h3v3h-3z" class="c26-cls-7"/><path d="M28 61.75h3v3h-3z" class="c26-cls-7"/><path d="M28 61.75h3v3h-3z" class="c26-cls-7"/></g><g id="c26_missing_crown" data-name="missing crown"><path d="M28 61.75h3v3h-3z" class="c26-cls-7"/><path d="M28 61.75h3v3h-3z" class="c26-cls-7"/><path d="M28 61.75h3v3h-3z" class="c26-cls-7"/><path d="M2 2h55v61.98H2z" class="c26-cls-13"/></g><g id="c26_missing_tooth" data-name="missing tooth"><path d="M40 19.65c4.35 6 4.47 33 2.31 34.84-1.7 1.46-23.04.77-25.31-3.49-2.51-4.6-2.47-28.4 2.18-32.4 2.51-2.17 17.56-3.47 20.82 1.05z" class="c26-cls-2"/><path d="M40 19.65c4.35 6 4.47 33 2.31 34.84-1.7 1.46-23.04.77-25.31-3.49-2.51-4.6-2.47-28.4 2.18-32.4 2.51-2.17 17.56-3.47 20.82 1.05z" class="c26-cls-13"/><path d="M39.58 27.06c.91-.36-.72-4.35-1.81-5.43s-5.43-1.81-8-1.63-6.88 0-8.33 1.27-2 5.8-1.63 6.52 1.63-3.26 2.72-3.8 2-.54 4 .18 5.25-1.63 7.24-.91 4.75 4.22 5.81 3.8zM42.32 54.49C40.61 55.95 19.27 55.26 17 51a9.32 9.32 0 0 1-.76-2.31c2.09 1.56 7.14 2.85 10 3.14a134.17 134.17 0 0 0 14.13.72 4.26 4.26 0 0 0 3-1.69c-.3 1.96-.63 3.27-1.05 3.63z" class="c26-cls-13"/></g><g id="c26_maryland_bridge_pontic" class="c26-cls-8" data-name="maryland bridge pontic"><path d="M40 19.65c4.35 6 4.47 33 2.31 34.84-1.7 1.46-23.04.77-25.31-3.49-2.51-4.6-2.47-28.4 2.18-32.4 2.51-2.17 17.56-3.47 20.82 1.05z" class="c26-cls-14" data-color-action="fill" style="fill:inherit"/><path d="M2 32.37h55v7.67H2z" class="c26-cls-14" data-color-action="fill" style="fill:inherit"/></g><g id="c26_maryland_bridge_abutment_mesial" class="c26-cls-8" data-name="maryland bridge abutment mesial"><path d="M36.58 32.17H57v7.67H36.58z" class="c26-cls-14" data-color-action="fill" style="fill:inherit"/><ellipse cx="37.81" cy="36.01" class="c26-cls-14" rx="5.61" ry="12.9" data-color-action="fill" style="fill:inherit"/></g><g id="c26_maryland_bridge_abutment_distal" class="c26-cls-8" data-name="maryland bridge abutment distal"><path d="M2 32.17h20.42v7.67H2z" class="c26-cls-14" data-color-action="fill" style="fill:inherit"/><ellipse cx="21.19" cy="36.01" class="c26-cls-14" rx="5.61" ry="12.9" data-color-action="fill" style="fill:inherit"/></g><g id="c26_maryland_bridge_abutment" class="c26-cls-8" data-name="maryland bridge abutment"><path d="M2 32.17h20.42v7.67H2zM36.58 32.17H57v7.67H36.58z" class="c26-cls-14" data-color-action="fill" style="fill:inherit"/><ellipse cx="37.81" cy="36.01" class="c26-cls-14" rx="5.61" ry="12.9" data-color-action="fill" style="fill:inherit"/><ellipse cx="21.19" cy="36.01" class="c26-cls-14" rx="5.61" ry="12.9" data-color-action="fill" style="fill:inherit"/></g><g id="c26_bridge_abutment_mesial" class="c26-cls-8" data-name="bridge abutment mesial"><path d="M40 19.65c4.35 6 4.47 33 2.31 34.84-1.7 1.46-23.04.77-25.31-3.49-2.51-4.6-2.47-28.4 2.18-32.4 2.51-2.17 17.56-3.47 20.82 1.05z" class="c26-cls-11" data-color-action="fill" style="fill:inherit"/><path d="M22.02 32.6H57v7.67H22.02z" class="c26-cls-11" data-color-action="fill" style="fill:inherit"/></g><g id="c26_bridge_abutment_distal" class="c26-cls-8" data-name="bridge abutment distal"><path d="M40 19.65c4.35 6 4.47 33 2.31 34.84-1.7 1.46-23.04.77-25.31-3.49-2.51-4.6-2.47-28.4 2.18-32.4 2.51-2.17 17.56-3.47 20.82 1.05z" class="c26-cls-11" data-color-action="fill" style="fill:inherit"/><path d="M2 32.6h34.98v7.67H2z" class="c26-cls-11" data-color-action="fill" style="fill:inherit"/></g><g id="c26_bridge_abutment" class="c26-cls-8" data-name="bridge abutment"><path d="M40 19.65c4.35 6 4.47 33 2.31 34.84-1.7 1.46-23.04.77-25.31-3.49-2.51-4.6-2.47-28.4 2.18-32.4 2.51-2.17 17.56-3.47 20.82 1.05z" class="c26-cls-11" data-color-action="fill" style="fill:inherit"/><path d="M2 32.6h55v7.67H2z" class="c26-cls-11" data-color-action="fill" style="fill:inherit"/></g><g id="c26_bridge_pontic" class="c26-cls-8" data-name="bridge pontic"><path d="M40 19.65c4.35 6 4.47 33 2.31 34.84-1.7 1.46-23.04.77-25.31-3.49-2.51-4.6-2.47-28.4 2.18-32.4 2.51-2.17 17.56-3.47 20.82 1.05z" class="c26-cls-11" data-color-action="fill" style="fill:inherit"/><path d="M2 32.6h55v7.67H2z" class="c26-cls-11" data-color-action="fill" style="fill:inherit"/></g><g id="c26_implant_mini" data-name="implant mini"><path d="M2 2h55v61.98H2z" class="c26-cls-13"/><path d="M29.72 0h-.44l-1 8.5v40.83h2.44V8.5l-1-8.5z" class="c26-cls-11" data-color-action="fill" style="fill:inherit"/><path d="M29.42 0h-.07l-.4 8.5v40.83h.37V8.5l.1-8.5z" class="c26-cls-16"/><path d="M28.28 48.7h2.44v.63h-2.44z" class="c26-cls-17" data-color-action="fill" style="fill:inherit"/><g class="c26-cls-18"><path d="M28.28 48.7l2.44-1v.63l-2.44 1v-.63zM28.28 47.26l2.44-1v.63l-2.44 1v-.63zM28.28 45.81l2.44-1v.63l-2.44 1v-.63zM28.28 44.36l2.44-1V44l-2.44 1v-.64zM28.28 42.92l2.44-1v.63l-2.44 1v-.63zM28.28 41.47l2.44-1v.63l-2.44 1.01v-.64zM28.28 40.03l2.44-1v.63l-2.44 1v-.63zM28.28 38.58l2.44-1v.63l-2.44 1.01v-.64zM28.28 37.14l2.44-1v.63l-2.44 1v-.63zM28.28 35.69l2.44-1v.63l-2.44 1v-.63zM28.28 34.25l2.44-1.01v.64l-2.44 1v-.63zM28.28 32.8l2.44-1v.63l-2.44 1v-.63zM28.28 31.36l2.44-1v.63l-2.44 1v-.63zM28.28 29.91l2.44-1v.63l-2.44 1v-.63zM28.28 28.46l2.44-1v.64l-2.44 1v-.64zM28.28 27.02l2.44-1v.63l-2.44 1v-.63zM28.28 25.57l2.44-1v.63l-2.44 1.01v-.64zM28.28 24.13l2.44-1v.63l-2.44 1v-.63zM28.28 22.68l2.44-1v.63l-2.44 1.01v-.64zM28.28 21.24l2.44-1v.63l-2.44 1v-.63zM28.28 19.79l2.44-1v.63l-2.44 1v-.63zM28.28 18.35l2.44-1.01v.64l-2.44 1v-.63zM28.28 16.9l2.44-1v.63l-2.44 1v-.63zM28.28 15.46l2.44-1v.63l-2.44 1v-.63zM28.28 14.01l2.44-1v.63l-2.44 1v-.63zM28.28 12.56l2.44-1v.64l-2.44 1v-.64zM28.28 11.12l2.44-1v.63l-2.44 1v-.63zM28.28 9.67l2.44-1v.63l-2.44 1.01v-.64zM28.28 8.5l.03-.29 2.27-.92.07.6-2.37.97V8.5zM28.49 6.7l1.93-.79.07.6-2.08.85.08-.66zM28.67 5.18l1.58-.65.08.6-1.74.71.08-.66zM28.85 3.66l1.24-.51.07.6-1.39.57.08-.66zM29.03 2.14l.9-.37.07.6-1.05.43.08-.66zM29.2.62l.57-.23.07.6-.71.3.07-.67z" class="c26-cls-17" data-color-action="fill" style="fill:inherit"/></g><circle cx="29.5" cy="53.21" r="2.24" class="c26-cls-11" data-color-action="fill" style="fill:inherit"/><path d="M27.67 48.99h3.67v3h-3.67z" class="c26-cls-11" data-color-action="fill" style="fill:inherit"/><path d="M28.49 48.99h.55v3h-.55z" class="c26-cls-16"/><path d="M28.7 54.56h-.21a2.32 2.32 0 0 1-.49-1.28 2.37 2.37 0 0 1 .52-1.3H29a2 2 0 0 0-.73 1.37 1.5 1.5 0 0 0 .43 1.21z" class="c26-cls-16"/><path d="M28.28 42.63h2.44v.63h-2.44z" class="c26-cls-17" data-color-action="fill" style="fill:inherit"/><path d="M32.11 49.01h-5.22l.87-5.71h3.48l.87 5.71z" class="c26-cls-11" data-color-action="fill" style="fill:inherit"/><path d="M28.85 49.01h-.79l.48-5.71h.53l-.22 5.71z" class="c26-cls-16"/></g><g id="c26_implant_cylinder" data-name="implant cylinder"><path d="M2 2h55v61.98H2z" class="c26-cls-13"/><path d="M26.17 3h6.67v49.33h-6.67zM24.5 0h10v3h-10z" class="c26-cls-11" data-color-action="fill" style="fill:inherit"/><path d="M28 3h1v49.33h-1zM26.75 0h1.5v3h-1.5z" class="c26-cls-16"/><path d="M24.5 52.36h10v3h-10z" class="c26-cls-11" data-color-action="fill" style="fill:inherit"/><path d="M26.75 52.36h1.5v3h-1.5z" class="c26-cls-16"/><path d="M26.17 3h6.67v.63h-6.67zM26.17 51.7h6.67v.63h-6.67z" class="c26-cls-17" data-color-action="fill" style="fill:inherit"/><g class="c26-cls-18"><path d="M32.83 50.7l-6.66 1v.63l6.66-1v-.63zM32.83 49.25l-6.66 1v.63l6.66-1v-.63zM32.83 47.81l-6.66 1v.63l6.66-1v-.63zM32.83 46.36l-6.66 1v.63l6.66-1v-.63zM32.83 44.92l-6.66 1v.63l6.66-1v-.63zM32.83 43.47l-6.66 1v.63l6.66-1v-.63zM32.83 42.02l-6.66 1v.64l6.66-1v-.64zM32.83 40.58l-6.66 1v.63l6.66-1v-.63zM32.83 39.13l-6.66 1v.64l6.66-1v-.64zM32.83 37.69l-6.66 1v.63l6.66-1v-.63zM32.83 36.24l-6.66 1v.64l6.66-1v-.64zM32.83 34.8l-6.66 1v.63l6.66-1v-.63zM32.83 33.35l-6.66 1v.63l6.66-1v-.63zM32.83 31.91l-6.66 1v.63l6.66-1v-.63zM32.83 30.46l-6.66 1v.63l6.66-1v-.63zM32.83 29.02l-6.66 1v.63l6.66-1v-.63zM32.83 27.57l-6.66 1v.63l6.66-1v-.63zM32.83 26.13l-6.66 1v.63l6.66-1v-.63zM32.83 24.68l-6.66 1v.63l6.66-1v-.63zM32.83 23.23l-6.66 1v.64l6.66-1v-.64zM32.83 21.79l-6.66 1v.63l6.66-1v-.63zM32.83 20.34l-6.66 1v.64l6.66-1v-.64zM32.83 18.9l-6.66 1v.63l6.66-1v-.63zM32.83 17.45l-6.66 1v.64l6.66-1.01v-.63zM32.83 16.01l-6.66 1v.63l6.66-1v-.63zM32.83 14.56l-6.66 1v.63l6.66-1v-.63zM32.83 13.12l-6.66 1v.63l6.66-1v-.63zM32.83 11.67l-6.66 1v.63l6.66-1v-.63zM32.83 10.22l-6.66 1v.64l6.66-1v-.64zM32.83 8.78l-6.66 1v.63l6.66-1v-.63zM32.83 7.33l-6.66 1.01v.63l6.66-1v-.64zM32.83 5.89l-6.66 1v.63l6.66-1v-.63zM32.83 4.44l-6.66 1v.64l6.66-1v-.64zM32.83 3l-6.66 1v.63l6.66-1V3z" class="c26-cls-17" data-color-action="fill" style="fill:inherit"/></g></g><g id="c26_implant_blade" data-name="implant blade"><path d="M2 2h55v61.98H2z" class="c26-cls-13"/><path d="M26.17 3.03h6.67v49.33h-6.67zM24.5 52.36h10v3h-10z" class="c26-cls-11" data-color-action="fill" style="fill:inherit"/><path d="M28 3.03h1v49.33h-1zM26.75 52.36h1.5v3h-1.5z" class="c26-cls-16"/><path d="M26.17 51.73h6.67v.63h-6.67z" class="c26-cls-17" data-color-action="fill" style="fill:inherit"/></g><path id="c26_border" d="M0 0h59v66H0z" class="c26-cls-7" transform="rotate(180 29.5 33)"/></defs></g></svg>