<svg version="1.1" xmlns="http://www.w3.org/2000/svg" xmlns:xlink="http://www.w3.org/1999/xlink" x="0px" y="0px" viewBox="0 0 59 283" style="enable-background:new 0 0 59 161;" xml:space="preserve"><defs><style type="text/css">.aI-cls-2{fill:#C4C6C7;stroke:#C4C6C7;stroke-width:5;stroke-miterlimit:10;}.aI-cls-3{fill:#F5D7CF;stroke:none;}.aI-cls-4{fill:#F2C6BC;stroke:none;}.aI-cls-5{fill:#FAE8E3;stroke:none;}.aI-cls-6{fill:#EEEFEF;stroke:none;}.aI-cls-7{fill:#E2E3E4;stroke:none;}.aI-cls-8{fill:#FBFBFB;stroke:none;}.aI-cls-9{fill:#929497;stroke:none;}.aI-cls-10{font-family:'ProximaNova-Semibold',sans-serif;}.aI-cls-11{font-size:15px;}.aI-cls-12{opacity:0.55;fill:#3C3D3D;stroke:none;}.aI-cls-13{fill:#FFD403;stroke:none;}.aI-cls-14{fill:none;stroke:#C52636;stroke-width:3.622;stroke-miterlimit:10;}.aI-cls-15{font-family:'ProximaNova-Bold',sans-serif;}.aI-cls-16{font-size:13.6587px;}.aI-cls-17{fill:none;stroke:none;}.aI-cls-18{fill:#28418B;stroke:none;}.aI-cls-19{fill:#787878;stroke:none;}.aI-cls-20{fill:none;stroke:#C52636;stroke-width:2;stroke-miterlimit:10;}.aI-cls-21{fill:#C52636;stroke:none;}.aI-cls-22{fill:none;stroke:#C52636;stroke-width:2;stroke-linecap:round;stroke-miterlimit:10;}.aI-cls-23{fill:#C5C7C9;stroke:none;}.aI-cls-24{fill:#FFF;stroke:none;}.aI-cls-25{fill:none;stroke:#28418B;stroke-width:2;stroke-miterlimit:10;}.aI-cls-26{fill:#FFEF3E;stroke:none;}.aI-cls-27{fill:none;stroke:#C52636;stroke-width:1.25;stroke-miterlimit:10;}.aI-cls-28{fill:#9B9999;stroke:none;}.aI-cls-29{fill:#DBDBDC;stroke:none;}.aI-cls-30{fill:#3C3D3D;stroke:none;}.bI-cls-2{fill:#C4C6C7;stroke:#C4C6C7;stroke-width:5;stroke-miterlimit:10;}.bI-cls-3{fill:#EEEFEF;stroke:none;}.bI-cls-4{fill:#E2E3E4;stroke:none;}.bI-cls-5{fill:#FBFBFB;stroke:none;}.bI-cls-6{opacity:0.55;fill:#3C3D3D;stroke:none;}.bI-cls-7{fill:#787878;stroke:none;}.bI-cls-8{fill:none;stroke:none;}.bI-cls-9{fill:#28418B;stroke:none;}.bI-cls-10{font-family:'ProximaNova-Semibold',sans-serif;}.bI-cls-11{font-size:33px;}.bI-cls-12{fill:#FFF;stroke:none;}.bI-cls-13{fill:#FFEF3E;stroke:none;}.bI-cls-14{fill:none;stroke:#C52636;stroke-width:1.25;stroke-miterlimit:10;}.cI-cls-2{fill:#C4C6C7;stroke:#C4C6C7;stroke-width:5;stroke-miterlimit:10;}.cI-cls-3{fill:#EEEFEF;stroke:none;}.cI-cls-4{fill:#E2E3E4;stroke:none;}.cI-cls-5{fill:#FBFBFB;stroke:none;}.cI-cls-6{opacity:0.55;fill:#3C3D3D;stroke:none;}.cI-cls-7{fill:#28418B;stroke:none;}.cI-cls-8{fill:#787878;stroke:none;}.cI-cls-9{fill:#FFF;stroke:none;}.cI-cls-10{fill:#FFEF3E;stroke:none;}.cI-cls-11{fill:none;stroke:#C52636;stroke-width:1.25;stroke-miterlimit:10;}.cI-cls-12{fill:none;stroke:none;}.aI-msng-cls-1{isolation:isolate;}.aI-msng-cls-2{fill:#C4C6C7;stroke:#C4C6C7;stroke-width:5px;}.aI-msng-cls-11,.aI-msng-cls-2{stroke-miterlimit:10;}.aI-msng-cls-3{fill:#F5D7CF;stroke:none;}.aI-msng-cls-4{fill:#F2C6BC;stroke:none;}.aI-msng-cls-5{fill:#FAE8E3;stroke:none;}.aI-msng-cls-6{fill:#EEEFEF;stroke:none;}.aI-msng-cls-7{fill:#E2E3E4;stroke:none;}.aI-msng-cls-8{fill:#FBFBFB;stroke:none;}.aI-msng-cls-9{font-size:15px;fill:#929497;font-family:ProximaNova-Semibold,Proxima Nova;font-weight:700;stroke:none;}.aI-msng-cls-10{}.aI-msng-cls-11,.aI-msng-cls-12{fill:none;stroke:none;}.aI-msng-cls-11{stroke:#787878;stroke-width:6.25px;}</style></defs><title>ToothI_Layered</title><g class="aI-cls-1"><g id="_Ia">	<g>		<path class="aI-cls-2" d="M9.6,137.8c0.6-4.2,1.6-13.4,4.7-15.5c0-0.3,0-0.5,0-0.8c-0.1-3.7-3.6-10.1-4.3-17.7    c-0.7-7.6,2.7-15.4,5.3-18.4c2.3-2.6,4.7-2.3,4.2-0.2c-0.9,4.4-0.4,12,1.5,17.5c0.7,1.9,1.8,3.7,3,5.2c0-2.3,0.3-4.9,0.8-7.6    c1-4.8,4.6-12.8,6.1-12.8c1.5,0,0.5,4.7,0.9,8.6c0.7,6.3,1.5,10.2,2.3,13.1c2.6-2.5,5.1-6.1,6-8.9c1-3.1,3.3-11.7,3.6-14.1    c0.3-2.4,1.9-3.9,3.3-1c1.6,3.2,2.8,8.7,2,15.1c-0.8,6.5-6.2,15.5-6.6,19.4c-0.3,2.7,0.3,4.8,0.7,5.8c0.4,0.1,0.7,0.3,0.9,0.5    c2,3.2,2.7,5.7,3.8,10.2c0.6,2.5-0.9,9.1-6.5,10.2c-7.4,0.8-6.7-0.4-8.7-0.1c-2.1,0.2-5.8,3.3-11.5,2.2    C15.5,147.5,9,142.1,9.6,137.8z" />		<path class="aI-cls-3" d="M25,116.8c0,0-2.1-7.3-0.1-16.5c1-4.8,4.6-12.8,6.1-12.8c1.5,0,0.5,4.7,0.9,8.6c0.9,8.9,2.3,13.1,3.3,16.2    c1.1,3.1,1.1,6.8-3.6,7.1C27,119.5,25.4,119,25,116.8z" />		<path class="aI-cls-4" d="M35.3,112.2c-1.1-3.1-2.4-7.3-3.3-16.2c-0.1-0.5-0.1-1.1-0.1-1.7c-0.2,1.5-0.4,3.4-0.3,5.7    c0.1,3.3,0.3,5.6-0.2,6.5c-0.5,0.9-3,3.8-4.7,2.9c-1.7-0.9-1-6.9-0.7-9.5c0.1-1.2,0.7-4.1,1.3-6.7c-1,2.4-1.9,5-2.4,7.1    c-2,9.3,0.1,16.5,0.1,16.5c0.4,2.2,2,2.7,6.6,2.4C36.3,119,36.3,115.3,35.3,112.2z" />		<path class="aI-cls-3" d="M12.7,127.1c0,0,1.7-1.9,1.6-5.6c-0.1-3.7-3.6-10.1-4.3-17.7c-0.7-7.6,2.7-15.4,5.3-18.4    c2.3-2.6,4.7-2.3,4.2-0.2c-0.9,4.4-0.4,12,1.5,17.5c1.9,5.4,7.2,9.8,8.8,9.4c3.7-1,9-7.4,10.5-11.8c1-3.1,3.3-11.7,3.6-14.1    s1.9-3.9,3.3-1c1.6,3.2,2.8,8.7,2,15.1c-0.8,6.5-6.2,15.5-6.6,19.4s1.1,6.6,1.1,6.6s-6.5,2.3-14.9,2.2    C20.4,128.3,12.7,127.1,12.7,127.1z" />		<path class="aI-cls-5" d="M46.1,85c-0.4,0.2,1.1,3.3-0.2,8.3c-3.7,14.8-9.6,18.9-11,23.2c-1.2,3.6-1.4,6.7-0.9,9.6    c0.5,2.9,4.6,0.7,4.6,0.7s-1.2-4.4-0.8-8.7c0.3-4.3,5.4-11.7,7-16.9c1.6-5.3,2-7.2,2-10.2C46.9,87.5,46.5,84.8,46.1,85z" />		<path class="aI-cls-4" d="M16.4,124.9c0,0.8-1.9,1.6-3.4,2.2c-0.2,0-0.3,0-0.3,0s1.7-1.9,1.6-5.6c-0.1-3.7-3.6-10.1-4.2-17.7    c-0.4-4.4,0.5-8.8,1.9-12.3c-0.4,2.9-0.7,6.4-0.7,9c0.1,5.3,5,18.7,5.1,20.3C16.4,122.4,16.4,123.6,16.4,124.9z" />		<path class="aI-cls-4" d="M43.3,89.5c-0.3,2.8-1.5,8.6-2.4,11.2c-2.1,6-5.6,9.4-8.5,11.8c-2.6,2.1-7.4,0.9-9.5-2.1    c-1.5-2.3-4.2-7.9-4.6-16.1c-0.2-5.1,0.7-7.9,1.4-9.2c0,0.1,0,0.1,0,0.2c-0.9,4.4-0.4,12,1.5,17.5c1.9,5.4,7.2,9.8,8.8,9.4    c3.6-0.9,9-7.4,10.5-11.8C41.1,98,42.4,93,43.3,89.5z" />		<path class="aI-cls-4" d="M42.6,119.7c-0.4,3.9,1.1,6.6,1.1,6.6s-0.7,0.2-1.8,0.6c-0.3-0.9-0.9-2.6-1.1-5c-0.4-3.7,4.7-12.5,6-16.8    c1.1-3.5,2.2-6.6,2-12.3c0-0.9-0.3-3.5-0.5-5.5c1.1,3.3,1.7,7.8,1.1,13C48.4,106.7,43,115.7,42.6,119.7z" />		<path class="aI-cls-5" d="M17.7,85c0,0-2.9,3.8-3.4,9c-0.3,3.3,0.3,8.5,1.7,13.5c1.4,5,3.2,7.6,3.7,7.5c0.4-0.1-1-4.1-2.1-8.3    c-1-3.9-1.4-9.6-1.2-12.7C16.6,88.4,18.6,85.2,17.7,85z" />		<path class="aI-cls-5" d="M30.6,89.5c-0.5-0.1-1.6,4.9-1.7,7.4c-0.2,3.8,0.8,7.4,1.2,7.4c0.4-0.1-0.3-3.6-0.1-7.4    C30.3,91,31.2,89.6,30.6,89.5z" />		<g>			<path class="aI-cls-6" d="M14.6,122.2c-3.3,1.7-4.4,11.3-5,15.6c-0.6,4.3,5.9,9.7,11.7,10.7c5.8,1,9.4-2,11.5-2.2     c2-0.2,1.3,0.9,8.7,0.1c5.6-1.2,7.1-7.7,6.5-10.2c-1.1-4.5-1.8-7-3.8-10.2c-1-1.3-9.9-1.6-13.2-1.5s-7.9-3.1-13.2-2.8     C16.3,121.8,15.1,121.9,14.6,122.2z" />			<g>				<path class="aI-cls-7" d="M9.6,137.8c0.6-4.3,1.7-13.9,5-15.6c0.3-0.2,0.9-0.3,1.7-0.4c-2.4,2.7-4.2,8.4-4.7,12.8      c-0.4,3-0.8,5.8-0.4,7.8C10,140.9,9.4,139.3,9.6,137.8z" />				<path class="aI-cls-7" d="M44.2,126c2,3.2,2.7,5.7,3.8,10.2c0.4,1.7-0.2,5.4-2.4,7.9c0.4-1.4,1.1-5.1,0.9-6.2      c-0.9-5.5-2.4-9.3-4.6-12.8C43,125.3,43.9,125.6,44.2,126z" />			</g>			<path class="aI-cls-7" d="M32.8,146.3c-0.6,0.1-1.4,0.4-2.3,0.8c0.4-0.4,0.7-0.8,0.8-1c0.4-0.7,1.8-0.9,2.3-0.3     c0.2,0.2,0.4,0.4,0.6,0.6C33.8,146.3,33.4,146.2,32.8,146.3z" />			<path class="aI-cls-8" d="M34.3,124.5c1.3,0,2.7,0.1,4,0.2c0,0.1,0.1,0.2,0.1,0.3c0.9,3.2,1.4,7,1.5,9.3c0.1,2.6,0.5,6.9-0.2,11.4     c0,0-0.1,0.4-0.3,1c-2.2,0.2-3.4,0.1-4.2,0c0-0.2,0.1-0.4,0.1-0.4c0.4-2.6,0.6-7.3,0.6-9.6c0-3.1-0.1-6.4-1.2-10.7     C34.7,125.6,34.5,125.1,34.3,124.5z" />		</g>		<path class="aI-cls-8" d="M28.5,143.8c0.5-0.3,1.1,3-0.3,3.2C26.8,147.2,27.6,144.4,28.5,143.8z" />	</g>	<text transform="matrix(1 0 0 1 27.5575 20.508)" class="aI-cls-9 aI-cls-10 aI-cls-11">I</text></g><defs><g id="aI_bone_graft" style="">	<g>		<g>							<ellipse transform="matrix(0.1539 -0.9881 0.9881 0.1539 -106.1107 120.5387)" class="aI-cls-14" cx="17.3" cy="122.2" rx="12.7" ry="12.7" data-color-action="stroke" style="stroke:inherit" />			<line class="aI-cls-14" x1="10.3" y1="112.6" x2="24.3" y2="131.8" data-color-action="stroke" style="stroke:inherit" />		</g>		<text transform="matrix(1 0 0 1 6.7033 126.808)" class="aI-cls-15 aI-cls-16">NA</text>	</g></g><g id="aI_splinted_crowns" style="">	<g>		<g>							<ellipse transform="matrix(0.1539 -0.9881 0.9881 0.1539 -106.1107 120.5387)" class="aI-cls-14" cx="17.3" cy="122.2" rx="12.7" ry="12.7" data-color-action="stroke" style="stroke:inherit" />			<line class="aI-cls-14" x1="10.3" y1="112.6" x2="24.3" y2="131.8" data-color-action="stroke" style="stroke:inherit" />		</g>		<text transform="matrix(1 0 0 1 6.7033 126.808)" class="aI-cls-15 aI-cls-16">NA</text>	</g></g><g id="aI_mesial" style="">	<path class="aI-cls-12" d="M13.9,136.3c0.1,0.8,0.2,1.8,0.5,2.6l-2.6,4.1c-1.5-1.7-2.4-3.6-2.2-5.3c0.2-1.5,0.5-3.7,0.9-6   C12.1,132.6,13.6,134,13.9,136.3z" data-color-action="fill" style="fill:inherit" /></g><g id="aI_line_angle_2" style="">	<path class="aI-cls-12" d="M19.5,142.7c1.4,0,2.4-0.3,3.2-0.7l-1.4,6.5c0,0,0,0-0.1,0c-3.5-0.6-7.2-2.9-9.5-5.5l2.6-4.1   C14.9,141,16.1,142.8,19.5,142.7z" data-color-action="fill" style="fill:inherit" /></g><g id="aI_groove_1" style="">	<path class="aI-cls-12" d="M28.2,139.4c2.2-0.1,4,1.2,6.2,2.1l1.2,5.1c-1.5-0.1-1.7-0.5-2.9-0.3c-2.1,0.2-5.8,3.3-11.5,2.2l1.4-6.5   C24.8,141.1,25.7,139.5,28.2,139.4z" data-color-action="fill" style="fill:inherit" /></g><g id="aI_line_angle_1" style="">	<path class="aI-cls-12" d="M38.8,142.4c2.1-0.1,3.5-1.4,4.6-3.5l3,4.2c-1,1.6-2.6,2.9-4.9,3.4c-3.1,0.3-4.7,0.3-5.8,0.2l-1.2-5.1   C35.6,142,37,142.4,38.8,142.4z" data-color-action="fill" style="fill:inherit" /></g><g id="aI_distal" style="">	<path class="aI-cls-12" d="M46.3,143l-3-4.2c0.7-1.3,1.2-2.9,1.7-4.7c0.3-1.1,0.9-1.8,1.7-2.4c0.4,1.3,0.8,2.7,1.1,4.4   C48.3,137.7,47.9,140.7,46.3,143z" data-color-action="fill" style="fill:inherit" /></g><g id="aI_buccal_pit" style="">	<ellipse class="aI-cls-12" cx="28.3" cy="132.8" rx="3" ry="4.4" data-color-action="fill" style="fill:inherit" /></g><g id="aI_buccal_V" style="">	<path class="aI-cls-12" d="M18.9,121.7c4.8,0.2,9.1,2.9,12.1,2.8c1.6-0.1,4.8,0,7.5,0.2c-3.2,2.2-6.5,3.2-9.8,2.9   C25.1,127.2,21.8,125.1,18.9,121.7z" data-color-action="fill" style="fill:inherit" /></g><g id="aI_veneer" style="">	<g>		<g>							<ellipse transform="matrix(0.1539 -0.9881 0.9881 0.1539 -106.1107 120.5387)" class="aI-cls-14" cx="17.3" cy="122.2" rx="12.7" ry="12.7" data-color-action="stroke" style="stroke:inherit" />			<line class="aI-cls-14" x1="10.3" y1="112.6" x2="24.3" y2="131.8" data-color-action="stroke" style="stroke:inherit" />		</g>		<text transform="matrix(1 0 0 1 6.7033 126.808)" class="aI-cls-15 aI-cls-16">NA</text>	</g></g><g id="aI_tissue_graft" style="">	<g>		<g>							<ellipse transform="matrix(0.1539 -0.9881 0.9881 0.1539 -106.1107 120.5387)" class="aI-cls-14" cx="17.3" cy="122.2" rx="12.7" ry="12.7" data-color-action="stroke" style="stroke:inherit" />			<line class="aI-cls-14" x1="10.3" y1="112.6" x2="24.3" y2="131.8" data-color-action="stroke" style="stroke:inherit" />		</g>		<text transform="matrix(1 0 0 1 6.7033 126.808)" class="aI-cls-15 aI-cls-16">NA</text>	</g></g><g id="aI_tipped_lingual" style="">	<rect x="28" y="3.2" transform="matrix(-1 -4.486867e-11 4.486867e-11 -1 59 9.5)" class="aI-cls-17" width="3" height="3" /></g><g id="aI_tipped_facial" style="">	<g>		<path class="aI-cls-18" d="M32.9,150.2c-1.2,3.2-4.5,3.6-7.2-5c-0.5-1.5-4.2-1.7-3.6,0c1.9,5.7,5,9.6,8.5,8.7c1.2-0.3,2.3-1.6,2.8-3.2    C33.2,150.6,33,150.3,32.9,150.2z" data-color-action="fill" style="fill:inherit" />		<polygon class="aI-cls-18" points="31,147.4 18.8,147.4 21.6,138.4   " data-color-action="fill" style="fill:inherit" />	</g></g><g id="aI_surface_restoration_occlusal" style="">	<path class="aI-cls-19" d="M32.8,146.3c-2.1,0.2-5.8,3.3-11.5,2.2c-2.7-0.5-5.5-1.9-7.7-3.7l4.4-5.4c1.2,1,2.9,1.9,4.5,2.2   c0.4,0.1,0.8,0.1,1.2,0.1c1.4,0,2.7-0.5,4.1-1.1c1.2-0.5,2.6-1.1,4.2-1.3c0.5-0.1,0.9-0.1,1.3-0.1c1.2,0,2,0.2,2.6,0.3   c0.3,0.1,0.5,0.1,1.3,0.1c0.4,0,0.8,0,1.3,0l5,6.1c-0.6,0.3-1.2,0.5-1.9,0.7C34.1,147.2,34.8,146.1,32.8,146.3z" data-color-action="fill" style="fill:inherit" /></g><g id="aI_surface_restoration_mesial" style="">	<path class="aI-cls-19" d="M9.6,137.8c0.3-1.9,0.6-4.8,1.2-7.6c3.5-0.4,6.5-2.3,8.3-5.1c-0.4,1.9-0.7,3.5-0.7,3.5   c-0.6,1.7-1.2,4.9-1.8,9.4c0.3,0.4,0.8,0.9,1.4,1.4l-4.4,5.4C11,142.8,9.3,140.1,9.6,137.8z" data-color-action="fill" style="fill:inherit" /></g><g id="aI_surface_restoration_buccal" style="">	<g>		<path class="aI-cls-19" d="M19.1,125.2c0.2-0.4,0.5-0.8,0.7-1.2c2.9,2.6,6.6,4.1,10.8,4.1c2.7,0,5.3-0.7,7.5-1.9    c0.3,0.8,0.8,1.5,1.3,2.2c0.7,3.8,1.5,7.7,1.8,9c0,0.6-0.4,1.7-0.9,2c-1.2,0.1-2.3,0.2-3,0.2c-0.8,0-0.9,0-1.3-0.1    c-0.5-0.1-1.4-0.3-2.6-0.3c-0.4,0-0.9,0-1.3,0.1c-1.6,0.2-3,0.8-4.2,1.3c-1.4,0.6-2.6,1.1-4.1,1.1c-0.4,0-0.8,0-1.2-0.1    c-2.5-0.5-5.2-2.5-5.9-3.6c0.6-4.5,1.2-7.6,1.8-9.4C18.4,128.7,18.7,127.1,19.1,125.2z" data-color-action="fill" style="fill:inherit" />			</g></g><g id="aI_surface_restoration_buccal_V" style="">	<g>				<path class="aI-cls-19" d="M19.8,124c0.4-0.7,0.6-1.4,0.9-2.2c4.1,0.6,7.7,2.8,10.4,2.7c1.4,0,4,0,6.4,0.1c0.2,0.6,0.4,1.1,0.6,1.7    c-2.2,1.2-4.8,1.9-7.5,1.9C26.4,128.2,22.6,126.6,19.8,124z" data-color-action="fill" style="fill:inherit" />	</g></g><g id="aI_surface_restoration_distal" style="">	<path class="aI-cls-19" d="M40.2,139.5c0.5-0.3,0.9-1.5,0.9-2c-0.3-1.3-1-5.2-1.8-9c1.8,2.5,4.6,4.2,7.9,4.6c0.3,0.9,0.5,2,0.8,3.1   c0.5,2.2-0.5,7.5-4.6,9.6l-5-6.1C38.9,139.7,39.5,139.6,40.2,139.5z" data-color-action="fill" style="fill:inherit" /></g><g id="aI_surface_restoration" style="">	<g>		<g>			<path class="aI-cls-19" d="M35.5,146.6c1,0.1,2.7,0.1,6-0.2c5.6-1.2,7.1-7.7,6.5-10.2c-0.4-1.6-0.7-3-1.1-4.2c-1,0.5-1.8,2-2.1,4.9     c-0.3,3.6-2.9,4.8-5.1,5.3C36.3,143,36.8,145.2,35.5,146.6z M21.2,148.5c1.9,0.3,3.6,0.2,5,0c-2.9,0-5.3-0.5-5.7-1.8     c-1.3-4.8-4.1-3.1-5.7-5.7c-1.9-3.3-1-5.7-5.1-5.3c-0.1,0.8-0.2,1.6-0.3,2.2C9,142.1,15.5,147.5,21.2,148.5z" data-color-action="fill" style="fill:inherit" />		</g>	</g></g><g id="aI_supra-erupted" style="">	<g>		<g>							<ellipse transform="matrix(0.1539 -0.9881 0.9881 0.1539 -106.1107 120.5387)" class="aI-cls-14" cx="17.3" cy="122.2" rx="12.7" ry="12.7" data-color-action="stroke" style="stroke:inherit" />			<line class="aI-cls-14" x1="10.3" y1="112.6" x2="24.3" y2="131.8" data-color-action="stroke" style="stroke:inherit" />		</g>		<text transform="matrix(1 0 0 1 6.7033 126.808)" class="aI-cls-15 aI-cls-16">NA</text>	</g></g><g id="aI_sub-erupted" style="">	<g>		<g>			<line class="aI-cls-20" x1="29.5" y1="115.9" x2="29.5" y2="122.8" data-color-action="stroke" style="stroke:inherit" />			<g>				<polygon class="aI-cls-21" points="25.5,117.1 29.5,110.1 33.5,117.1     " data-color-action="fill" style="fill:inherit" />			</g>		</g>	</g></g><g id="aI_rotated_mesial" style="">	<g>		<path class="aI-cls-18" d="M51.4,127.4c2.8,1.7,2.2,5.1-9.6,5.5c-5,0.1-8.4,0-8.4,0l0.1,2.8c0,0,0.9,0.1,7.7-0.2    c7.2-0.3,13.2-1.7,12.9-5.6c-0.1-1-1-2.1-2.2-2.7C51.7,127.2,51.5,127.3,51.4,127.4z" data-color-action="fill" style="fill:inherit" />		<polygon class="aI-cls-18" points="39.5,128.6 39.5,139.8 29.7,134.2   " data-color-action="fill" style="fill:inherit" />	</g></g><g id="aI_rotated_distal" style="">	<g>		<path class="aI-cls-18" d="M6.3,127.4c-2.8,1.7-2.2,5.1,9.6,5.5c5,0.1,8.4,0,8.4,0l-0.1,2.8c0,0-0.9,0.1-7.7-0.2    c-7.2-0.3-13.2-1.7-12.9-5.6c0.1-1,1-2.1,2.2-2.7C6,127.2,6.2,127.3,6.3,127.4z" data-color-action="fill" style="fill:inherit" />		<polygon class="aI-cls-18" points="18.3,128.6 18.3,139.8 28.1,134.2   " data-color-action="fill" style="fill:inherit" />	</g></g><g id="aI_root_tips" style="">	<g>		<g>							<ellipse transform="matrix(0.1539 -0.9881 0.9881 0.1539 -106.1107 120.5387)" class="aI-cls-14" cx="17.3" cy="122.2" rx="12.7" ry="12.7" data-color-action="stroke" style="stroke:inherit" />			<line class="aI-cls-14" x1="10.3" y1="112.6" x2="24.3" y2="131.8" data-color-action="stroke" style="stroke:inherit" />		</g>		<text transform="matrix(1 0 0 1 6.7033 126.808)" class="aI-cls-15 aI-cls-16">NA</text>	</g></g><g id="aI_root_decay" style="">	<g>		<g>							<ellipse transform="matrix(0.1539 -0.9881 0.9881 0.1539 -106.1107 120.5387)" class="aI-cls-14" cx="17.3" cy="122.2" rx="12.7" ry="12.7" data-color-action="stroke" style="stroke:inherit" />			<line class="aI-cls-14" x1="10.3" y1="112.6" x2="24.3" y2="131.8" data-color-action="stroke" style="stroke:inherit" />		</g>		<text transform="matrix(1 0 0 1 6.7033 126.808)" class="aI-cls-15 aI-cls-16">NA</text>	</g><g id="root_decay_3">	<g>		<g>							<ellipse transform="matrix(0.1539 -0.9881 0.9881 0.1539 -106.1107 120.5387)" class="aI-cls-14" cx="17.3" cy="122.2" rx="12.7" ry="12.7" data-color-action="stroke" style="stroke:inherit" />			<line class="aI-cls-14" x1="10.3" y1="112.6" x2="24.3" y2="131.8" data-color-action="stroke" style="stroke:inherit" />		</g>		<text transform="matrix(1 0 0 1 6.7033 126.808)" class="aI-cls-15 aI-cls-16">NA</text>	</g></g><g id="root_decay_2">	<g>		<g>							<ellipse transform="matrix(0.1539 -0.9881 0.9881 0.1539 -106.1107 120.5387)" class="aI-cls-14" cx="17.3" cy="122.2" rx="12.7" ry="12.7" data-color-action="stroke" style="stroke:inherit" />			<line class="aI-cls-14" x1="10.3" y1="112.6" x2="24.3" y2="131.8" data-color-action="stroke" style="stroke:inherit" />		</g>		<text transform="matrix(1 0 0 1 6.7033 126.808)" class="aI-cls-15 aI-cls-16">NA</text>	</g></g><g id="root_decay_1">	<g>		<g>							<ellipse transform="matrix(0.1539 -0.9881 0.9881 0.1539 -106.1107 120.5387)" class="aI-cls-14" cx="17.3" cy="122.2" rx="12.7" ry="12.7" data-color-action="stroke" style="stroke:inherit" />			<line class="aI-cls-14" x1="10.3" y1="112.6" x2="24.3" y2="131.8" data-color-action="stroke" style="stroke:inherit" />		</g>		<text transform="matrix(1 0 0 1 6.7033 126.808)" class="aI-cls-15 aI-cls-16">NA</text>	</g></g></g><g id="aI_root_canal" style="">	<line class="aI-cls-22" x1="14.9" y1="89.6" x2="18.9" y2="119.4" data-color-action="stroke" style="stroke:inherit" /><g id="root_canal_3">	<line class="aI-cls-22" x1="14.9" y1="89.6" x2="18.9" y2="119.4" data-color-action="stroke" style="stroke:inherit" /></g><g id="root_canal_2">	<line class="aI-cls-22" x1="29.6" y1="92.9" x2="29.8" y2="122.1" data-color-action="stroke" style="stroke:inherit" /></g><g id="root_canal_1">	<line class="aI-cls-22" x1="46.8" y1="87.9" x2="38.3" y2="122.8" data-color-action="stroke" style="stroke:inherit" /></g></g><g id="aI_root_abrasion" style="">	<g>		<g>							<ellipse transform="matrix(0.1539 -0.9881 0.9881 0.1539 -106.1107 120.5387)" class="aI-cls-14" cx="17.3" cy="122.2" rx="12.7" ry="12.7" data-color-action="stroke" style="stroke:inherit" />			<line class="aI-cls-14" x1="10.3" y1="112.6" x2="24.3" y2="131.8" data-color-action="stroke" style="stroke:inherit" />		</g>		<text transform="matrix(1 0 0 1 6.7033 126.808)" class="aI-cls-15 aI-cls-16">NA</text>	</g><g id="root_abrasion_3">	<g>		<g>							<ellipse transform="matrix(0.1539 -0.9881 0.9881 0.1539 -106.1107 120.5387)" class="aI-cls-14" cx="17.3" cy="122.2" rx="12.7" ry="12.7" data-color-action="stroke" style="stroke:inherit" />			<line class="aI-cls-14" x1="10.3" y1="112.6" x2="24.3" y2="131.8" data-color-action="stroke" style="stroke:inherit" />		</g>		<text transform="matrix(1 0 0 1 6.7033 126.808)" class="aI-cls-15 aI-cls-16">NA</text>	</g></g><g id="root_abrasion_2">	<g>		<g>							<ellipse transform="matrix(0.1539 -0.9881 0.9881 0.1539 -106.1107 120.5387)" class="aI-cls-14" cx="17.3" cy="122.2" rx="12.7" ry="12.7" data-color-action="stroke" style="stroke:inherit" />			<line class="aI-cls-14" x1="10.3" y1="112.6" x2="24.3" y2="131.8" data-color-action="stroke" style="stroke:inherit" />		</g>		<text transform="matrix(1 0 0 1 6.7033 126.808)" class="aI-cls-15 aI-cls-16">NA</text>	</g></g><g id="root_abrasion_1">	<g>		<g>							<ellipse transform="matrix(0.1539 -0.9881 0.9881 0.1539 -106.1107 120.5387)" class="aI-cls-14" cx="17.3" cy="122.2" rx="12.7" ry="12.7" data-color-action="stroke" style="stroke:inherit" />			<line class="aI-cls-14" x1="10.3" y1="112.6" x2="24.3" y2="131.8" data-color-action="stroke" style="stroke:inherit" />		</g>		<text transform="matrix(1 0 0 1 6.7033 126.808)" class="aI-cls-15 aI-cls-16">NA</text>	</g></g></g><g id="aI_pins" style="">	<g>		<g>							<rect x="37.2" y="111.9" transform="matrix(-1 -4.561297e-11 4.561297e-11 -1 76.7215 245.8914)" class="aI-cls-19" width="2.3" height="22" data-color-action="fill" style="fill:inherit" />							<rect x="38.5" y="111.9" transform="matrix(-1 -4.267887e-11 4.267887e-11 -1 77.4039 245.8914)" class="aI-cls-23" width="0.3" height="22" />		</g>		<g>							<rect x="32.9" y="111.9" transform="matrix(-1 -4.481272e-11 4.481272e-11 -1 68.1076 245.8914)" class="aI-cls-19" width="2.3" height="22" data-color-action="fill" style="fill:inherit" />							<rect x="34.2" y="111.9" transform="matrix(-1 -4.801371e-11 4.801371e-11 -1 68.7901 245.8914)" class="aI-cls-23" width="0.3" height="22" />		</g>	</g>	<g>		<g>							<rect x="22.4" y="111.9" transform="matrix(-1 -4.481272e-11 4.481272e-11 -1 47.0413 245.8914)" class="aI-cls-19" width="2.3" height="22" data-color-action="fill" style="fill:inherit" />							<rect x="23.7" y="111.9" transform="matrix(-1 -4.267887e-11 4.267887e-11 -1 47.7238 245.8914)" class="aI-cls-23" width="0.3" height="22" />		</g>		<g>							<rect x="18.1" y="111.9" transform="matrix(-1 -4.561297e-11 4.561297e-11 -1 38.4275 245.8914)" class="aI-cls-19" width="2.3" height="22" data-color-action="fill" style="fill:inherit" />							<rect x="19.4" y="111.9" transform="matrix(-1 -4.267887e-11 4.267887e-11 -1 39.11 245.8914)" class="aI-cls-23" width="0.3" height="22" />		</g>	</g></g><g id="aI_post" style="">	<g>		<g>							<ellipse transform="matrix(0.1539 -0.9881 0.9881 0.1539 -106.1107 120.5387)" class="aI-cls-14" cx="17.3" cy="122.2" rx="12.7" ry="12.7" data-color-action="stroke" style="stroke:inherit" />			<line class="aI-cls-14" x1="10.3" y1="112.6" x2="24.3" y2="131.8" data-color-action="stroke" style="stroke:inherit" />		</g>		<text transform="matrix(1 0 0 1 6.7033 126.808)" class="aI-cls-15 aI-cls-16">NA</text>	</g></g><g id="aI_open_contact_mesial" style="">	<g>		<g>							<ellipse transform="matrix(0.1539 -0.9881 0.9881 0.1539 -106.1107 120.5387)" class="aI-cls-14" cx="17.3" cy="122.2" rx="12.7" ry="12.7" data-color-action="stroke" style="stroke:inherit" />			<line class="aI-cls-14" x1="10.3" y1="112.6" x2="24.3" y2="131.8" data-color-action="stroke" style="stroke:inherit" />		</g>		<text transform="matrix(1 0 0 1 6.7033 126.808)" class="aI-cls-15 aI-cls-16">NA</text>	</g></g><g id="aI_open_contact_distal" style="">	<g>		<g>							<ellipse transform="matrix(0.1539 -0.9881 0.9881 0.1539 -106.1107 120.5387)" class="aI-cls-14" cx="17.3" cy="122.2" rx="12.7" ry="12.7" data-color-action="stroke" style="stroke:inherit" />			<line class="aI-cls-14" x1="10.3" y1="112.6" x2="24.3" y2="131.8" data-color-action="stroke" style="stroke:inherit" />		</g>		<text transform="matrix(1 0 0 1 6.7033 126.808)" class="aI-cls-15 aI-cls-16">NA</text>	</g></g><g id="aI_mesial_drift" style="">	<g>		<g>			<line class="aI-cls-25" x1="26.9" y1="134" x2="37.8" y2="134" data-color-action="stroke" style="stroke:inherit" />			<g>				<polygon class="aI-cls-18" points="28.1,137.9 21.2,134 28.1,130     " data-color-action="fill" style="fill:inherit" />			</g>		</g>	</g></g><g id="aI_lingual_abfraction" style="">	<g>		<g>							<ellipse transform="matrix(0.1539 -0.9881 0.9881 0.1539 -106.1107 120.5387)" class="aI-cls-14" cx="17.3" cy="122.2" rx="12.7" ry="12.7" data-color-action="stroke" style="stroke:inherit" />			<line class="aI-cls-14" x1="10.3" y1="112.6" x2="24.3" y2="131.8" data-color-action="stroke" style="stroke:inherit" />		</g>		<text transform="matrix(1 0 0 1 6.7033 126.808)" class="aI-cls-15 aI-cls-16">NA</text>	</g></g><g id="aI_internal_root_resorption" style="">	<g>		<g>							<ellipse transform="matrix(0.1539 -0.9881 0.9881 0.1539 -106.1107 120.5387)" class="aI-cls-14" cx="17.3" cy="122.2" rx="12.7" ry="12.7" data-color-action="stroke" style="stroke:inherit" />			<line class="aI-cls-14" x1="10.3" y1="112.6" x2="24.3" y2="131.8" data-color-action="stroke" style="stroke:inherit" />		</g>		<text transform="matrix(1 0 0 1 6.7033 126.808)" class="aI-cls-15 aI-cls-16">NA</text>	</g></g><g id="aI_impacted_mesial" style="">	<g>		<g>							<ellipse transform="matrix(0.1539 -0.9881 0.9881 0.1539 -106.1107 120.5387)" class="aI-cls-14" cx="17.3" cy="122.2" rx="12.7" ry="12.7" data-color-action="stroke" style="stroke:inherit" />			<line class="aI-cls-14" x1="10.3" y1="112.6" x2="24.3" y2="131.8" data-color-action="stroke" style="stroke:inherit" />		</g>		<text transform="matrix(1 0 0 1 6.7033 126.808)" class="aI-cls-15 aI-cls-16">NA</text>	</g></g><g id="aI_impacted_distal" style="">	<g>		<g>							<ellipse transform="matrix(0.1539 -0.9881 0.9881 0.1539 -106.1107 120.5387)" class="aI-cls-14" cx="17.3" cy="122.2" rx="12.7" ry="12.7" data-color-action="stroke" style="stroke:inherit" />			<line class="aI-cls-14" x1="10.3" y1="112.6" x2="24.3" y2="131.8" data-color-action="stroke" style="stroke:inherit" />		</g>		<text transform="matrix(1 0 0 1 6.7033 126.808)" class="aI-cls-15 aI-cls-16">NA</text>	</g></g><g id="aI_gortex_membranes" style="">	<g>		<g>							<ellipse transform="matrix(0.1539 -0.9881 0.9881 0.1539 -106.1107 120.5387)" class="aI-cls-14" cx="17.3" cy="122.2" rx="12.7" ry="12.7" data-color-action="stroke" style="stroke:inherit" />			<line class="aI-cls-14" x1="10.3" y1="112.6" x2="24.3" y2="131.8" data-color-action="stroke" style="stroke:inherit" />		</g>		<text transform="matrix(1 0 0 1 6.7033 126.808)" class="aI-cls-15 aI-cls-16">NA</text>	</g></g><g id="aI_frenum_pull" style="">	<g>		<g>							<ellipse transform="matrix(0.1539 -0.9881 0.9881 0.1539 -106.1107 120.5387)" class="aI-cls-14" cx="17.3" cy="122.2" rx="12.7" ry="12.7" data-color-action="stroke" style="stroke:inherit" />			<line class="aI-cls-14" x1="10.3" y1="112.6" x2="24.3" y2="131.8" data-color-action="stroke" style="stroke:inherit" />		</g>		<text transform="matrix(1 0 0 1 6.7033 126.808)" class="aI-cls-15 aI-cls-16">NA</text>	</g></g><g id="aI_external_root_resorption" style="">	<g>		<g>							<ellipse transform="matrix(0.1539 -0.9881 0.9881 0.1539 -106.1107 120.5387)" class="aI-cls-14" cx="17.3" cy="122.2" rx="12.7" ry="12.7" data-color-action="stroke" style="stroke:inherit" />			<line class="aI-cls-14" x1="10.3" y1="112.6" x2="24.3" y2="131.8" data-color-action="stroke" style="stroke:inherit" />		</g>		<text transform="matrix(1 0 0 1 6.7033 126.808)" class="aI-cls-15 aI-cls-16">NA</text>	</g></g><g id="aI_diastema_mesial" style="">	<g>		<g>							<ellipse transform="matrix(0.1539 -0.9881 0.9881 0.1539 -106.1107 120.5387)" class="aI-cls-14" cx="17.3" cy="122.2" rx="12.7" ry="12.7" data-color-action="stroke" style="stroke:inherit" />			<line class="aI-cls-14" x1="10.3" y1="112.6" x2="24.3" y2="131.8" data-color-action="stroke" style="stroke:inherit" />		</g>		<text transform="matrix(1 0 0 1 6.7033 126.808)" class="aI-cls-15 aI-cls-16">NA</text>	</g></g><g id="aI_diastema_distal" style="">	<g>		<g>							<ellipse transform="matrix(0.1539 -0.9881 0.9881 0.1539 -106.1107 120.5387)" class="aI-cls-14" cx="17.3" cy="122.2" rx="12.7" ry="12.7" data-color-action="stroke" style="stroke:inherit" />			<line class="aI-cls-14" x1="10.3" y1="112.6" x2="24.3" y2="131.8" data-color-action="stroke" style="stroke:inherit" />		</g>		<text transform="matrix(1 0 0 1 6.7033 126.808)" class="aI-cls-15 aI-cls-16">NA</text>	</g></g><g id="aI_distal_drift" style="">	<g>		<g>			<line class="aI-cls-25" x1="32.1" y1="134" x2="21.2" y2="134" data-color-action="stroke" style="stroke:inherit" />			<g>				<polygon class="aI-cls-18" points="30.9,130 37.8,134 30.9,137.9     " data-color-action="fill" style="fill:inherit" />			</g>		</g>	</g></g><g id="aI_three_quarter_crown" style="">	<g>		<g>							<ellipse transform="matrix(0.1539 -0.9881 0.9881 0.1539 -106.1107 120.5387)" class="aI-cls-14" cx="17.3" cy="122.2" rx="12.7" ry="12.7" data-color-action="stroke" style="stroke:inherit" />			<line class="aI-cls-14" x1="10.3" y1="112.6" x2="24.3" y2="131.8" data-color-action="stroke" style="stroke:inherit" />		</g>		<text transform="matrix(1 0 0 1 6.7033 126.808)" class="aI-cls-15 aI-cls-16">NA</text>	</g></g><g id="aI_crown" style="">	<path class="aI-cls-26" d="M14.6,122.2c-3.3,1.7-4.4,11.3-5,15.6c-0.6,4.3,5.9,9.7,11.7,10.7c5.8,1,9.4-2,11.5-2.2   c2-0.2,1.3,0.9,8.7,0.1c5.6-1.2,7.1-7.7,6.5-10.2c-1.1-4.5-1.8-7-3.8-10.2c-1-1.3-9.9-1.6-13.2-1.5s-7.9-3.1-13.2-2.8   C16.3,121.8,15.1,121.9,14.6,122.2z" data-color-action="fill" style="fill:inherit" /></g><g id="aI_cracked_surface_mesial" style="">	<polyline class="aI-cls-27" points="11.8,129.8 15.7,133.7 10.7,133.7 15.7,138.4 10.7,138.4 14.5,142.2  " data-color-action="stroke" style="stroke:inherit" /></g><g id="aI_cracked_surface_buccal" style="">	<polyline class="aI-cls-27" points="27,129.8 30.8,133.7 25.8,133.7 30.8,138.4 25.8,138.4 29.7,142.2  " data-color-action="stroke" style="stroke:inherit" /></g><g id="aI_cracked_surface_buccal_V" style="">	<polyline class="aI-cls-27" points="27,129.8 30.8,133.7 25.8,133.7 30.8,138.4 25.8,138.4 29.7,142.2  " data-color-action="stroke" style="stroke:inherit" /></g><g id="aI_cracked_surface_distal" style="">	<polyline class="aI-cls-27" points="42.8,129.8 46.7,133.7 41.7,133.7 46.7,138.4 41.7,138.4 45.5,142.2  " data-color-action="stroke" style="stroke:inherit" /></g><g id="aI_chipped_surface_mesial" style="">	<g>		<line class="aI-cls-27" x1="18" y1="131.5" x2="9.7" y2="139.8" data-color-action="stroke" style="stroke:inherit" />		<line class="aI-cls-27" x1="9.7" y1="131.5" x2="18" y2="139.8" data-color-action="stroke" style="stroke:inherit" />	</g></g><g id="aI_chipped_surface_buccal" style="">	<g>		<line class="aI-cls-27" x1="32.2" y1="131.5" x2="23.8" y2="139.8" data-color-action="stroke" style="stroke:inherit" />		<line class="aI-cls-27" x1="23.8" y1="131.5" x2="32.2" y2="139.8" data-color-action="stroke" style="stroke:inherit" />	</g></g><g id="aI_chipped_surface_buccal_V" style="">	<g>		<line class="aI-cls-27" x1="32.2" y1="131.5" x2="23.8" y2="139.8" data-color-action="stroke" style="stroke:inherit" />		<line class="aI-cls-27" x1="23.8" y1="131.5" x2="32.2" y2="139.8" data-color-action="stroke" style="stroke:inherit" />	</g></g><g id="aI_chipped_surface_distal" style="">	<g>		<line class="aI-cls-27" x1="47.2" y1="131.5" x2="38.8" y2="139.8" data-color-action="stroke" style="stroke:inherit" />		<line class="aI-cls-27" x1="38.8" y1="131.5" x2="47.2" y2="139.8" data-color-action="stroke" style="stroke:inherit" />	</g></g><g id="aI_buccal_abfraction" style="">	<g>		<g>							<ellipse transform="matrix(0.1539 -0.9881 0.9881 0.1539 -106.1107 120.5387)" class="aI-cls-14" cx="17.3" cy="122.2" rx="12.7" ry="12.7" data-color-action="stroke" style="stroke:inherit" />			<line class="aI-cls-14" x1="10.3" y1="112.6" x2="24.3" y2="131.8" data-color-action="stroke" style="stroke:inherit" />		</g>		<text transform="matrix(1 0 0 1 6.7033 126.808)" class="aI-cls-15 aI-cls-16">NA</text>	</g></g><g id="aI_braces" style="">	<g>		<g>			<rect x="21.6" y="127" class="aI-cls-23" width="13.5" height="18.2" />			<rect x="21.6" y="144.5" class="aI-cls-28" width="13.5" height="0.7" data-color-action="fill" style="fill:inherit" />			<rect x="21.6" y="136.2" class="aI-cls-28" width="13.5" height="1.4" data-color-action="fill" style="fill:inherit" />			<rect x="21.6" y="127" class="aI-cls-29" width="13.5" height="0.9" data-color-action="fill" style="fill:inherit" />			<g>				<g>					<g>						<path class="aI-cls-30" d="M24.9,127h-3.1c-0.3,0-0.5,0.2-0.5,0.5v7c0,0.3,0.2,0.5,0.5,0.5h3.1c0.3,0,0.5-0.2,0.5-0.5v-7        C25.4,127.2,25.2,127,24.9,127z" data-color-action="fill" style="fill:inherit" />						<path class="aI-cls-19" d="M24.9,127h-3.1c-0.3,0-0.5,0.2-0.5,0.5v5.8c0.7,0.1,1.3,0.2,2,0.2c0.7,0,1.4-0.1,2.1-0.2v-5.8        C25.4,127.2,25.2,127,24.9,127z" data-color-action="fill" style="fill:inherit" />						<path class="aI-cls-23" d="M25.1,128.4v-1.1c0-0.1-0.1-0.2-0.2-0.2h-3.1c-0.1,0-0.2,0.1-0.2,0.2v1.1H25.1z" />					</g>					<g>						<path class="aI-cls-30" d="M34.8,127h-3.1c-0.3,0-0.5,0.2-0.5,0.5v7c0,0.3,0.2,0.5,0.5,0.5h3.1c0.3,0,0.5-0.2,0.5-0.5v-7        C35.3,127.2,35.1,127,34.8,127z" data-color-action="fill" style="fill:inherit" />						<path class="aI-cls-19" d="M34.8,127h-3.1c-0.3,0-0.5,0.2-0.5,0.5v5.8c0.7,0.1,1.3,0.2,2,0.2c0.7,0,1.4-0.1,2.1-0.2v-5.8        C35.3,127.2,35.1,127,34.8,127z" data-color-action="fill" style="fill:inherit" />						<path class="aI-cls-23" d="M35,128.4v-1.1c0-0.1-0.1-0.2-0.2-0.2h-3.1c-0.1,0-0.2,0.1-0.2,0.2v1.1H35z" />					</g>				</g>				<g>					<g>						<path class="aI-cls-30" d="M24.9,137.3h-3.1c-0.3,0-0.5,0.2-0.5,0.5v7c0,0.3,0.2,0.5,0.5,0.5h3.1c0.3,0,0.5-0.2,0.5-0.5v-7        C25.4,137.5,25.2,137.3,24.9,137.3z" data-color-action="fill" style="fill:inherit" />						<path class="aI-cls-19" d="M24.9,137.3h-3.1c-0.3,0-0.5,0.2-0.5,0.5v5.8c0.7,0.1,1.3,0.2,2,0.2c0.7,0,1.4-0.1,2.1-0.2v-5.8        C25.4,137.5,25.2,137.3,24.9,137.3z" data-color-action="fill" style="fill:inherit" />						<path class="aI-cls-23" d="M25.1,138.7v-1.1c0-0.1-0.1-0.2-0.2-0.2h-3.1c-0.1,0-0.2,0.1-0.2,0.2v1.1H25.1z" />					</g>					<g>						<path class="aI-cls-30" d="M34.8,137.3h-3.1c-0.3,0-0.5,0.2-0.5,0.5v7c0,0.3,0.2,0.5,0.5,0.5h3.1c0.3,0,0.5-0.2,0.5-0.5v-7        C35.3,137.5,35.1,137.3,34.8,137.3z" data-color-action="fill" style="fill:inherit" />						<path class="aI-cls-19" d="M34.8,137.3h-3.1c-0.3,0-0.5,0.2-0.5,0.5v5.8c0.7,0.1,1.3,0.2,2,0.2c0.7,0,1.4-0.1,2.1-0.2v-5.8        C35.3,137.5,35.1,137.3,34.8,137.3z" data-color-action="fill" style="fill:inherit" />						<path class="aI-cls-23" d="M35,138.7v-1.1c0-0.1-0.1-0.2-0.2-0.2h-3.1c-0.1,0-0.2,0.1-0.2,0.2v1.1H35z" />					</g>				</g>			</g>		</g>		<g>			<rect x="7.2" y="135.4" class="aI-cls-19" width="42.2" height="1.4" data-color-action="fill" style="fill:inherit" />			<rect x="7.2" y="136.6" class="aI-cls-30" width="42.2" height="0.2" data-color-action="fill" style="fill:inherit" />			<rect x="7.2" y="135.6" class="aI-cls-23" width="42.2" height="0.4" />		</g>	</g></g><g id="aI_apicoectomy" style="">	<g>		<g>							<ellipse transform="matrix(0.1539 -0.9881 0.9881 0.1539 -106.1107 120.5387)" class="aI-cls-14" cx="17.3" cy="122.2" rx="12.7" ry="12.7" data-color-action="stroke" style="stroke:inherit" />			<line class="aI-cls-14" x1="10.3" y1="112.6" x2="24.3" y2="131.8" data-color-action="stroke" style="stroke:inherit" />		</g>		<text transform="matrix(1 0 0 1 6.7033 126.808)" class="aI-cls-15 aI-cls-16">NA</text>	</g></g><g id="aI_abscess" style="">	<circle class="aI-cls-18" cx="29.5" cy="83.8" r="6.1" data-color-action="fill" style="fill:inherit" /></g><g id="aI_blunted_roots" style="">	<g>		<g>							<ellipse transform="matrix(0.1539 -0.9881 0.9881 0.1539 -106.1107 120.5387)" class="aI-cls-14" cx="17.3" cy="122.2" rx="12.7" ry="12.7" data-color-action="stroke" style="stroke:inherit" />			<line class="aI-cls-14" x1="10.3" y1="112.6" x2="24.3" y2="131.8" data-color-action="stroke" style="stroke:inherit" />		</g>		<text transform="matrix(1 0 0 1 6.7033 126.808)" class="aI-cls-15 aI-cls-16">NA</text>	</g></g><g id="aI_root_amputation" style="">	<g>		<g>							<ellipse transform="matrix(0.1539 -0.9881 0.9881 0.1539 -106.1107 120.5387)" class="aI-cls-14" cx="17.3" cy="122.2" rx="12.7" ry="12.7" data-color-action="stroke" style="stroke:inherit" />			<line class="aI-cls-14" x1="10.3" y1="112.6" x2="24.3" y2="131.8" data-color-action="stroke" style="stroke:inherit" />		</g>		<text transform="matrix(1 0 0 1 6.7033 126.808)" class="aI-cls-15 aI-cls-16">NA</text>	</g><g id="root_amputation_3">	<g>		<g>							<ellipse transform="matrix(0.1539 -0.9881 0.9881 0.1539 -106.1107 120.5387)" class="aI-cls-14" cx="17.3" cy="122.2" rx="12.7" ry="12.7" data-color-action="stroke" style="stroke:inherit" />			<line class="aI-cls-14" x1="10.3" y1="112.6" x2="24.3" y2="131.8" data-color-action="stroke" style="stroke:inherit" />		</g>		<text transform="matrix(1 0 0 1 6.7033 126.808)" class="aI-cls-15 aI-cls-16">NA</text>	</g></g><g id="root_amputation_2">	<g>		<g>							<ellipse transform="matrix(0.1539 -0.9881 0.9881 0.1539 -106.1107 120.5387)" class="aI-cls-14" cx="17.3" cy="122.2" rx="12.7" ry="12.7" data-color-action="stroke" style="stroke:inherit" />			<line class="aI-cls-14" x1="10.3" y1="112.6" x2="24.3" y2="131.8" data-color-action="stroke" style="stroke:inherit" />		</g>		<text transform="matrix(1 0 0 1 6.7033 126.808)" class="aI-cls-15 aI-cls-16">NA</text>	</g></g><g id="root_amputation_1">	<g>		<g>							<ellipse transform="matrix(0.1539 -0.9881 0.9881 0.1539 -106.1107 120.5387)" class="aI-cls-14" cx="17.3" cy="122.2" rx="12.7" ry="12.7" data-color-action="stroke" style="stroke:inherit" />			<line class="aI-cls-14" x1="10.3" y1="112.6" x2="24.3" y2="131.8" data-color-action="stroke" style="stroke:inherit" />		</g>		<text transform="matrix(1 0 0 1 6.7033 126.808)" class="aI-cls-15 aI-cls-16">NA</text>	</g></g></g><g id="aI_missing_crown" style="">	<g>		<g>							<ellipse transform="matrix(0.1539 -0.9881 0.9881 0.1539 -106.1107 120.5387)" class="aI-cls-14" cx="17.3" cy="122.2" rx="12.7" ry="12.7" data-color-action="stroke" style="stroke:inherit" />			<line class="aI-cls-14" x1="10.3" y1="112.6" x2="24.3" y2="131.8" data-color-action="stroke" style="stroke:inherit" />		</g>		<text transform="matrix(1 0 0 1 6.7033 126.808)" class="aI-cls-15 aI-cls-16">NA</text>	</g></g><g id="aI_missing_tooth" style="" data-name="missing tooth">	<g>		<path class="aI-cls-2" d="M9.6,137.8c0.6-4.2,1.6-13.4,4.7-15.5c0-0.3,0-0.5,0-0.8c-0.1-3.7-3.6-10.1-4.3-17.7    c-0.7-7.6,2.7-15.4,5.3-18.4c2.3-2.6,4.7-2.3,4.2-0.2c-0.9,4.4-0.4,12,1.5,17.5c0.7,1.9,1.8,3.7,3,5.2c0-2.3,0.3-4.9,0.8-7.6    c1-4.8,4.6-12.8,6.1-12.8c1.5,0,0.5,4.7,0.9,8.6c0.7,6.3,1.5,10.2,2.3,13.1c2.6-2.5,5.1-6.1,6-8.9c1-3.1,3.3-11.7,3.6-14.1    c0.3-2.4,1.9-3.9,3.3-1c1.6,3.2,2.8,8.7,2,15.1c-0.8,6.5-6.2,15.5-6.6,19.4c-0.3,2.7,0.3,4.8,0.7,5.8c0.4,0.1,0.7,0.3,0.9,0.5    c2,3.2,2.7,5.7,3.8,10.2c0.6,2.5-0.9,9.1-6.5,10.2c-7.4,0.8-6.7-0.4-8.7-0.1c-2.1,0.2-5.8,3.3-11.5,2.2    C15.5,147.5,9,142.1,9.6,137.8z" data-color-action="fill,stroke" style="fill,stroke:inherit" />		<path class="aI-cls-24" d="M25,116.8c0,0-2.1-7.3-0.1-16.5c1-4.8,4.6-12.8,6.1-12.8c1.5,0,0.5,4.7,0.9,8.6c0.9,8.9,2.3,13.1,3.3,16.2    c1.1,3.1,1.1,6.8-3.6,7.1C27,119.5,25.4,119,25,116.8z" />		<path class="aI-cls-24" d="M35.3,112.2c-1.1-3.1-2.4-7.3-3.3-16.2c-0.1-0.5-0.1-1.1-0.1-1.7c-0.2,1.5-0.4,3.4-0.3,5.7    c0.1,3.3,0.3,5.6-0.2,6.5c-0.5,0.9-3,3.8-4.7,2.9c-1.7-0.9-1-6.9-0.7-9.5c0.1-1.2,0.7-4.1,1.3-6.7c-1,2.4-1.9,5-2.4,7.1    c-2,9.3,0.1,16.5,0.1,16.5c0.4,2.2,2,2.7,6.6,2.4C36.3,119,36.3,115.3,35.3,112.2z" />		<path class="aI-cls-24" d="M12.7,127.1c0,0,1.7-1.9,1.6-5.6c-0.1-3.7-3.6-10.1-4.3-17.7c-0.7-7.6,2.7-15.4,5.3-18.4    c2.3-2.6,4.7-2.3,4.2-0.2c-0.9,4.4-0.4,12,1.5,17.5c1.9,5.4,7.2,9.8,8.8,9.4c3.7-1,9-7.4,10.5-11.8c1-3.1,3.3-11.7,3.6-14.1    s1.9-3.9,3.3-1c1.6,3.2,2.8,8.7,2,15.1c-0.8,6.5-6.2,15.5-6.6,19.4s1.1,6.6,1.1,6.6s-6.5,2.3-14.9,2.2    C20.4,128.3,12.7,127.1,12.7,127.1z" />		<path class="aI-cls-24" d="M46.1,85c-0.4,0.2,1.1,3.3-0.2,8.3c-3.7,14.8-9.6,18.9-11,23.2c-1.2,3.6-1.4,6.7-0.9,9.6    c0.5,2.9,4.6,0.7,4.6,0.7s-1.2-4.4-0.8-8.7c0.3-4.3,5.4-11.7,7-16.9c1.6-5.3,2-7.2,2-10.2C46.9,87.5,46.5,84.8,46.1,85z" />		<path class="aI-cls-24" d="M16.4,124.9c0,0.8-1.9,1.6-3.4,2.2c-0.2,0-0.3,0-0.3,0s1.7-1.9,1.6-5.6c-0.1-3.7-3.6-10.1-4.2-17.7    c-0.4-4.4,0.5-8.8,1.9-12.3c-0.4,2.9-0.7,6.4-0.7,9c0.1,5.3,5,18.7,5.1,20.3C16.4,122.4,16.4,123.6,16.4,124.9z" />		<path class="aI-cls-24" d="M43.3,89.5c-0.3,2.8-1.5,8.6-2.4,11.2c-2.1,6-5.6,9.4-8.5,11.8c-2.6,2.1-7.4,0.9-9.5-2.1    c-1.5-2.3-4.2-7.9-4.6-16.1c-0.2-5.1,0.7-7.9,1.4-9.2c0,0.1,0,0.1,0,0.2c-0.9,4.4-0.4,12,1.5,17.5c1.9,5.4,7.2,9.8,8.8,9.4    c3.6-0.9,9-7.4,10.5-11.8C41.1,98,42.4,93,43.3,89.5z" />		<path class="aI-cls-24" d="M42.6,119.7c-0.4,3.9,1.1,6.6,1.1,6.6s-0.7,0.2-1.8,0.6c-0.3-0.9-0.9-2.6-1.1-5c-0.4-3.7,4.7-12.5,6-16.8    c1.1-3.5,2.2-6.6,2-12.3c0-0.9-0.3-3.5-0.5-5.5c1.1,3.3,1.7,7.8,1.1,13C48.4,106.7,43,115.7,42.6,119.7z" />		<path class="aI-cls-24" d="M17.7,85c0,0-2.9,3.8-3.4,9c-0.3,3.3,0.3,8.5,1.7,13.5c1.4,5,3.2,7.6,3.7,7.5c0.4-0.1-1-4.1-2.1-8.3    c-1-3.9-1.4-9.6-1.2-12.7C16.6,88.4,18.6,85.2,17.7,85z" />		<path class="aI-cls-24" d="M30.6,89.5c-0.5-0.1-1.6,4.9-1.7,7.4c-0.2,3.8,0.8,7.4,1.2,7.4c0.4-0.1-0.3-3.6-0.1-7.4    C30.3,91,31.2,89.6,30.6,89.5z" />		<g>			<path class="aI-cls-24" d="M14.6,122.2c-3.3,1.7-4.4,11.3-5,15.6c-0.6,4.3,5.9,9.7,11.7,10.7c5.8,1,9.4-2,11.5-2.2     c2-0.2,1.3,0.9,8.7,0.1c5.6-1.2,7.1-7.7,6.5-10.2c-1.1-4.5-1.8-7-3.8-10.2c-1-1.3-9.9-1.6-13.2-1.5s-7.9-3.1-13.2-2.8     C16.3,121.8,15.1,121.9,14.6,122.2z" />			<g>				<path class="aI-cls-24" d="M9.6,137.8c0.6-4.3,1.7-13.9,5-15.6c0.3-0.2,0.9-0.3,1.7-0.4c-2.4,2.7-4.2,8.4-4.7,12.8      c-0.4,3-0.8,5.8-0.4,7.8C10,140.9,9.4,139.3,9.6,137.8z" />				<path class="aI-cls-24" d="M44.2,126c2,3.2,2.7,5.7,3.8,10.2c0.4,1.7-0.2,5.4-2.4,7.9c0.4-1.4,1.1-5.1,0.9-6.2      c-0.9-5.5-2.4-9.3-4.6-12.8C43,125.3,43.9,125.6,44.2,126z" />			</g>			<path class="aI-cls-24" d="M32.8,146.3c-0.6,0.1-1.4,0.4-2.3,0.8c0.4-0.4,0.7-0.8,0.8-1c0.4-0.7,1.8-0.9,2.3-0.3     c0.2,0.2,0.4,0.4,0.6,0.6C33.8,146.3,33.4,146.2,32.8,146.3z" />			<path class="aI-cls-24" d="M34.3,124.5c1.3,0,2.7,0.1,4,0.2c0,0.1,0.1,0.2,0.1,0.3c0.9,3.2,1.4,7,1.5,9.3c0.1,2.6,0.5,6.9-0.2,11.4     c0,0-0.1,0.4-0.3,1c-2.2,0.2-3.4,0.1-4.2,0c0-0.2,0.1-0.4,0.1-0.4c0.4-2.6,0.6-7.3,0.6-9.6c0-3.1-0.1-6.4-1.2-10.7     C34.7,125.6,34.5,125.1,34.3,124.5z" />		</g>		<path class="aI-cls-24" d="M28.5,143.8c0.5-0.3,1.1,3-0.3,3.2C26.8,147.2,27.6,144.4,28.5,143.8z" />	</g></g><g id="aI_extracted_tooth" data-name="extracted tooth" style=""><g class="aI-msng-cls-10"><line class="aI-msng-cls-11" x1="9" y1="108.83" x2="50.67" y2="150.49" data-color-action="stroke" style="stroke:inherit" /><line class="aI-msng-cls-11" x1="50.67" y1="108.83" x2="9" y2="150.49" data-color-action="stroke" style="stroke:inherit" /></g></g><g id="aI_denture" style="">	<g>		<g>							<ellipse transform="matrix(0.1539 -0.9881 0.9881 0.1539 -106.1107 120.5387)" class="aI-cls-14" cx="17.3" cy="122.2" rx="12.7" ry="12.7" data-color-action="stroke" style="stroke:inherit" />			<line class="aI-cls-14" x1="10.3" y1="112.6" x2="24.3" y2="131.8" data-color-action="stroke" style="stroke:inherit" />		</g>		<text transform="matrix(1 0 0 1 6.7033 126.808)" class="aI-cls-15 aI-cls-16">NA</text>	</g></g><g id="aI_maryland_bridge_pontic" style="">	<g>		<g>							<ellipse transform="matrix(0.1539 -0.9881 0.9881 0.1539 -106.1107 120.5387)" class="aI-cls-14" cx="17.3" cy="122.2" rx="12.7" ry="12.7" data-color-action="stroke" style="stroke:inherit" />			<line class="aI-cls-14" x1="10.3" y1="112.6" x2="24.3" y2="131.8" data-color-action="stroke" style="stroke:inherit" />		</g>		<text transform="matrix(1 0 0 1 6.7033 126.808)" class="aI-cls-15 aI-cls-16">NA</text>	</g></g><g id="aI_maryland_bridge_abutment_mesial" style="">	<g>		<g>							<ellipse transform="matrix(0.1539 -0.9881 0.9881 0.1539 -106.1107 120.5387)" class="aI-cls-14" cx="17.3" cy="122.2" rx="12.7" ry="12.7" data-color-action="stroke" style="stroke:inherit" />			<line class="aI-cls-14" x1="10.3" y1="112.6" x2="24.3" y2="131.8" data-color-action="stroke" style="stroke:inherit" />		</g>		<text transform="matrix(1 0 0 1 6.7033 126.808)" class="aI-cls-15 aI-cls-16">NA</text>	</g></g><g id="aI_maryland_bridge_abutment_distal" style="">	<g>		<g>							<ellipse transform="matrix(0.1539 -0.9881 0.9881 0.1539 -106.1107 120.5387)" class="aI-cls-14" cx="17.3" cy="122.2" rx="12.7" ry="12.7" data-color-action="stroke" style="stroke:inherit" />			<line class="aI-cls-14" x1="10.3" y1="112.6" x2="24.3" y2="131.8" data-color-action="stroke" style="stroke:inherit" />		</g>		<text transform="matrix(1 0 0 1 6.7033 126.808)" class="aI-cls-15 aI-cls-16">NA</text>	</g></g><g id="aI_maryland_bridge_abutment" style="">	<g>		<g>							<ellipse transform="matrix(0.1539 -0.9881 0.9881 0.1539 -106.1107 120.5387)" class="aI-cls-14" cx="17.3" cy="122.2" rx="12.7" ry="12.7" data-color-action="stroke" style="stroke:inherit" />			<line class="aI-cls-14" x1="10.3" y1="112.6" x2="24.3" y2="131.8" data-color-action="stroke" style="stroke:inherit" />		</g>		<text transform="matrix(1 0 0 1 6.7033 126.808)" class="aI-cls-15 aI-cls-16">NA</text>	</g></g><g id="aI_bridge_abutment_mesial" style="">	<g>		<g>							<ellipse transform="matrix(0.1539 -0.9881 0.9881 0.1539 -106.1107 120.5387)" class="aI-cls-14" cx="17.3" cy="122.2" rx="12.7" ry="12.7" data-color-action="stroke" style="stroke:inherit" />			<line class="aI-cls-14" x1="10.3" y1="112.6" x2="24.3" y2="131.8" data-color-action="stroke" style="stroke:inherit" />		</g>		<text transform="matrix(1 0 0 1 6.7033 126.808)" class="aI-cls-15 aI-cls-16">NA</text>	</g></g><g id="aI_bridge_abutment_distal" style="">	<g>		<g>							<ellipse transform="matrix(0.1539 -0.9881 0.9881 0.1539 -106.1107 120.5387)" class="aI-cls-14" cx="17.3" cy="122.2" rx="12.7" ry="12.7" data-color-action="stroke" style="stroke:inherit" />			<line class="aI-cls-14" x1="10.3" y1="112.6" x2="24.3" y2="131.8" data-color-action="stroke" style="stroke:inherit" />		</g>		<text transform="matrix(1 0 0 1 6.7033 126.808)" class="aI-cls-15 aI-cls-16">NA</text>	</g></g><g id="aI_bridge_abutment" style="">	<g>		<g>							<ellipse transform="matrix(0.1539 -0.9881 0.9881 0.1539 -106.1107 120.5387)" class="aI-cls-14" cx="17.3" cy="122.2" rx="12.7" ry="12.7" data-color-action="stroke" style="stroke:inherit" />			<line class="aI-cls-14" x1="10.3" y1="112.6" x2="24.3" y2="131.8" data-color-action="stroke" style="stroke:inherit" />		</g>		<text transform="matrix(1 0 0 1 6.7033 126.808)" class="aI-cls-15 aI-cls-16">NA</text>	</g></g><g id="aI_bridge_pontic" style="">	<g>		<g>							<ellipse transform="matrix(0.1539 -0.9881 0.9881 0.1539 -106.1107 120.5387)" class="aI-cls-14" cx="17.3" cy="122.2" rx="12.7" ry="12.7" data-color-action="stroke" style="stroke:inherit" />			<line class="aI-cls-14" x1="10.3" y1="112.6" x2="24.3" y2="131.8" data-color-action="stroke" style="stroke:inherit" />		</g>		<text transform="matrix(1 0 0 1 6.7033 126.808)" class="aI-cls-15 aI-cls-16">NA</text>	</g></g><g id="aI_implant_mini" style="">	<g>		<g>							<ellipse transform="matrix(0.1539 -0.9881 0.9881 0.1539 -106.1107 120.5387)" class="aI-cls-14" cx="17.3" cy="122.2" rx="12.7" ry="12.7" data-color-action="stroke" style="stroke:inherit" />			<line class="aI-cls-14" x1="10.3" y1="112.6" x2="24.3" y2="131.8" data-color-action="stroke" style="stroke:inherit" />		</g>		<text transform="matrix(1 0 0 1 6.7033 126.808)" class="aI-cls-15 aI-cls-16">NA</text>	</g></g><g id="aI_implant_cylinder" style="">	<g>		<g>							<ellipse transform="matrix(0.1539 -0.9881 0.9881 0.1539 -106.1107 120.5387)" class="aI-cls-14" cx="17.3" cy="122.2" rx="12.7" ry="12.7" data-color-action="stroke" style="stroke:inherit" />			<line class="aI-cls-14" x1="10.3" y1="112.6" x2="24.3" y2="131.8" data-color-action="stroke" style="stroke:inherit" />		</g>		<text transform="matrix(1 0 0 1 6.7033 126.808)" class="aI-cls-15 aI-cls-16">NA</text>	</g></g><g id="aI_implant_blade" style="">	<g>		<g>							<ellipse transform="matrix(0.1539 -0.9881 0.9881 0.1539 -106.1107 120.5387)" class="aI-cls-14" cx="17.3" cy="122.2" rx="12.7" ry="12.7" data-color-action="stroke" style="stroke:inherit" />			<line class="aI-cls-14" x1="10.3" y1="112.6" x2="24.3" y2="131.8" data-color-action="stroke" style="stroke:inherit" />		</g>		<text transform="matrix(1 0 0 1 6.7033 126.808)" class="aI-cls-15 aI-cls-16">NA</text>	</g></g><g id="aI_watch_tooth" style="">	<g>		<path class="aI-cls-13" d="M8.3,27.7c0-1.8,1.4-3.3,3.2-3.3c1.8,0,3.3,1.5,3.3,3.3c0,1.7-1.5,3.2-3.3,3.2C9.7,30.9,8.3,29.5,8.3,27.7z     M9.2,21.8L8.4,3.7h6.2l-0.8,18.1H9.2z" data-color-action="fill" style="fill:inherit" />	</g></g><g id="aI_border" style="">	<rect y="0" class="aI-cls-17" width="59" height="161" /></g></defs></g><g class="bI-cls-1" transform="translate(0 161)"><g id="_Ib">	<g>		<path class="bI-cls-2" d="M11.1,21.2c-0.9,3.7,0.3,7.1,0.4,9c0.2,2.4-0.2,6.4,0.2,7.8c0.9,3,4.4,4.7,7.1,5.4c7.2,1.8,15.1,1.9,20.7-0.4    c3.3-1.4,8-4.9,8.6-9.4c0.4-3-0.7-3-0.5-5.8c0.2-2.8,1.3-8.7-2.1-11.9c-3-2.7-9-0.7-12.4-2.3c-4.7-2.1-8.2-2.9-10.7-2.6    C15.9,12.2,11.6,19.1,11.1,21.2z" />		<path class="bI-cls-3" d="M11.1,21.2c-0.9,3.7,0.3,7.1,0.4,9c0.2,2.4-0.2,6.4,0.2,7.8c0.9,3,4.4,4.7,7.1,5.4c7.2,1.8,15.1,1.9,20.7-0.4    c3.3-1.4,8-4.9,8.6-9.4c0.4-3-0.7-3-0.5-5.8c0.2-2.8,1.3-8.7-2.1-11.9c-3-2.7-9-0.7-12.4-2.3c-4.7-2.1-8.2-2.9-10.7-2.6    C15.9,12.2,11.6,19.1,11.1,21.2z" />		<path class="bI-cls-4" d="M18.8,43.5c-2.7-0.7-6.2-2.4-7.1-5.4c-0.4-1.5,0-5.4-0.2-7.8c-0.1-0.9-0.4-2.2-0.6-3.7    c0.6,0.6,1.5,1.2,2.1,1.5c1.1,0.6,2.7,0.6,2.7,1.2c0,0.6-1.2,0.5-2.3,1.2c-1.1,0.7-0.1,4.8,0.3,7c0.4,2.3,3.8,3.5,5.2,3.6    c1.4,0.2,8.5,1.3,12.5,1.2c4-0.1,8.5-1.3,11-3.1c2.5-1.8,4.7-4.2,4.7-6.8c0-2.6-1-2.3-1.7-3.3c-0.7-1,1-0.7,1.6-1.8    c0.3-0.5,0.5-1.3,0.8-2.1c-0.1,1-0.2,2-0.2,2.7c-0.2,2.8,0.9,2.8,0.5,5.8c-0.6,4.5-5.3,8-8.6,9.4C33.8,45.4,26,45.2,18.8,43.5z" />		<path class="bI-cls-4" d="M41.9,26.6c0.3,0.8-3.1,1.1-2.9,2.4c0.1,1.3,3.4,3.6,3,4.2c-0.4,0.5-4.7-3.9-6.8-3.8    c-2.1,0.2-8.1,0.1-9.6,0.3s-3.5,5.8-4.2,5c-0.7-0.8,1.4-5.1,0.7-5.4s-3.3,0.2-3-0.5c0.2-0.7,2.4,0.2,2.9-0.6    c0.5-0.8-3.8-2.6-2.9-3.4s5.1,3.4,6.2,3.4c1.2,0,6.2,0.4,6.6-0.1c0.4-0.5-0.9-5.8-0.2-5.8c1.6,0,1.2,5.6,2.8,5.7    c1.7,0.1,1.9,0,2.8-0.2S41.5,25.6,41.9,26.6z" />		<path class="bI-cls-5" d="M22.4,11.3c2.5-0.4,6,0.4,10.7,2.6c2.2,1,5.4,0.5,8.3,0.8c-1.9,0.4-3.4,1.8-4.9,2.2c-2.2,0.6-3.4-0.3-6.1-1.6    c-2.7-1.3-7.5-1.5-10-1c-2,0.4-4.8,1.1-5.9,1.7C16.4,13.7,19.1,11.7,22.4,11.3z" />	</g></g><defs><g id="bI_cusp_4" style="">	<path class="bI-cls-6" d="M29.5,34.2l-4.7,10.4c-2-0.2-4.1-0.6-6-1.1c-2.3-0.6-5.2-1.9-6.5-4.2l14.5-6.2C27.5,33.7,28.5,34,29.5,34.2z" data-color-action="fill" style="fill:inherit" /></g><g id="bI_groove_2" style="">	<path class="bI-cls-6" d="M30.2,34.2c0.6,0,1.2-0.1,1.8-0.3L36.6,44c-3.6,0.9-7.7,1-11.8,0.5l4.7-10.4C29.8,34.2,30,34.2,30.2,34.2z" data-color-action="fill" style="fill:inherit" /></g><g id="bI_cusp_3" style="">	<path class="bI-cls-6" d="M34.3,32.6l12.5,4.6c-1.8,2.8-4.9,4.9-7.3,5.9c-0.9,0.4-1.9,0.7-2.9,0.9L32,33.9   C32.9,33.7,33.6,33.2,34.3,32.6z" data-color-action="fill" style="fill:inherit" /></g><g id="bI_mesial" style="">	<path class="bI-cls-6" d="M11.5,36.5c-0.1-1.8,0.1-4.5,0-6.3c-0.2-1.8-1.2-5.1-0.5-8.8c1.3,2,2.4,4.5,2.5,7.4   C13.7,31.3,12.9,33.9,11.5,36.5z" data-color-action="fill" style="fill:inherit" /></g><g id="bI_mesial_pit" style="">	<path class="bI-cls-6" d="M12.3,18.6l14.1,5.6c-1.2,1-1.9,2.6-1.9,4.3c0,1.9,0.9,3.5,2.3,4.6l-14.5,6.2c-0.2-0.4-0.4-0.8-0.5-1.2   c-0.1-0.4-0.2-0.9-0.2-1.5c1.3-2.6,2.2-5.3,2-7.7c-0.2-2.8-1.2-5.3-2.5-7.4c0-0.1,0-0.1,0-0.2C11.2,20.6,11.6,19.7,12.3,18.6z" data-color-action="fill" style="fill:inherit" /></g><g id="bI_central_pit" style="">	<ellipse class="bI-cls-6" cx="30.2" cy="28.5" rx="5.8" ry="5.7" data-color-action="fill" style="fill:inherit" /></g><g id="bI_distal_pit" style="">	<path class="bI-cls-6" d="M36,28.5c0-1.8-0.8-3.4-2.2-4.5l13.2-5.7c0.2,0.6,0.4,1.1,0.6,1.7c-1.1,1.9-2,4.4-2.1,7.5   c0,2.8,0.9,5.3,2.3,7.4c-0.2,0.8-0.6,1.5-1,2.2l-12.5-4.6C35.4,31.6,36,30.1,36,28.5z" data-color-action="fill" style="fill:inherit" /></g><g id="bI_distal" style="">	<path class="bI-cls-6" d="M47.6,20.1c0.6,2.8,0.1,6,0,7.8c-0.2,2.8,0.9,2.8,0.5,5.8c-0.1,0.5-0.2,0.9-0.3,1.3c-1.3-2.1-2.3-4.6-2.3-7.4   C45.6,24.5,46.5,22,47.6,20.1z" data-color-action="fill" style="fill:inherit" /></g><g id="bI_cusp_2" style="">	<path class="bI-cls-6" d="M26.4,24.2l-14.1-5.6c1.8-2.9,5.3-6.7,10.1-7.4c0.4-0.1,0.9-0.1,1.5-0.1l5,11.8C27.9,23.2,27.1,23.6,26.4,24.2   z" data-color-action="fill" style="fill:inherit" /></g><g id="bI_groove_1" style="">	<path class="bI-cls-6" d="M30.2,22.8c-0.5,0-0.9,0.1-1.4,0.2l-5-11.8c2.3,0.1,5.4,0.9,9.2,2.6c0.7,0.3,1.6,0.5,2.5,0.6l-4.2,8.5   C31,22.8,30.6,22.8,30.2,22.8z" data-color-action="fill" style="fill:inherit" /></g><g id="bI_cusp_1" style="">	<path class="bI-cls-6" d="M31.4,22.9l4.2-8.5c3.3,0.3,7.6-0.5,9.9,1.7c0.7,0.7,1.2,1.4,1.6,2.3L33.9,24C33.2,23.5,32.3,23.1,31.4,22.9z" data-color-action="fill" style="fill:inherit" /></g><g id="bI_tipped_lingual" style=""></g><g id="bI_tipped_facial" style=""></g><g id="bI_surface_restoration_lingual" style="">	<path class="bI-cls-7" d="M19.7,39.6c3.3,0.8,6.6,1.2,9.7,1.2c3.3,0,6.3-0.5,8.6-1.4c1.2-0.5,2.4-1.2,3.5-2.1l2.4,3.2   c-1.4,1.2-3,2.1-4.4,2.7c-5.7,2.3-13.6,2.2-20.7,0.4c-1.5-0.4-3.2-1.1-4.6-2.2l2.8-2.9C17.7,38.9,18.7,39.3,19.7,39.6z" data-color-action="fill" style="fill:inherit" /></g><g id="bI_surface_restoration_mesial" style="">	<path class="bI-cls-7" d="M11.7,38c-0.4-1.5,0-5.4-0.2-7.8c-0.2-1.9-1.3-5.2-0.4-9c0.3-1.2,1.9-4.1,4.4-6.4l2.4,3.2   c-1.6,1.6-2.7,3.4-2.9,4.1c-0.4,2-0.1,3.9,0.2,5.7c0.1,0.7,0.2,1.4,0.3,2c0.1,1.3,0.1,2.7,0.1,4.1c0,1-0.1,2.6,0,3.1   c0.1,0.4,0.6,0.9,1.4,1.4l-2.8,2.9C13,40.5,12.1,39.4,11.7,38z" data-color-action="fill" style="fill:inherit" /></g><g id="bI_surface_restoration_occlusal" style="">	<path class="bI-cls-7" d="M23,15.2c0.2,0,0.4,0,0.6,0c1.2,0,3.6,0.4,7.8,2.3c2.2,1,4.8,1,7,1c1.5,0,3.8,0,4.4,0.5c1.5,1.4,1.2,5.2,1,7.5   c0,0.4-0.1,0.8-0.1,1.1c-0.2,2,0.2,3.3,0.4,4.1c0.2,0.5,0.2,0.7,0.1,1.4c-0.4,2.5-3.4,5.1-6.2,6.2c-2.3,0.9-5.3,1.4-8.6,1.4   c-3.1,0-6.4-0.4-9.7-1.2c-2.1-0.5-3.9-1.7-4.2-2.6c-0.1-0.5-0.1-2,0-3.1c0-1.4,0.1-2.8-0.1-4.1c-0.1-0.7-0.2-1.3-0.3-2   c-0.3-1.7-0.7-3.7-0.2-5.7C15.4,20.8,18.7,15.9,23,15.2z" data-color-action="fill" style="fill:inherit" /></g><g id="bI_surface_restoration_distal" style="">	<path class="bI-cls-7" d="M44.2,33.2c0.1-0.7,0.1-0.8-0.1-1.4c-0.2-0.8-0.6-2.1-0.4-4.1c0-0.3,0.1-0.7,0.1-1.1c0.2-2.3,0.6-6.1-1-7.5   c-0.1-0.1-0.2-0.1-0.3-0.2l2.7-3c0.1,0.1,0.2,0.1,0.3,0.2c3.4,3.1,2.4,9.1,2.1,11.9c-0.2,2.8,0.9,2.8,0.5,5.8   c-0.4,2.7-2.2,5-4.3,6.7l-2.4-3.2C42.9,36,44,34.6,44.2,33.2z" data-color-action="fill" style="fill:inherit" /></g><g id="bI_surface_restoration_buccal" style="">	<path class="bI-cls-7" d="M38.4,18.5c-2.2,0-4.8,0-7-1c-4.2-1.9-6.6-2.3-7.8-2.3c-0.2,0-0.4,0-0.6,0c-2,0.3-3.7,1.5-5.1,2.8l-2.4-3.2   c1.8-1.7,4.2-3.1,6.9-3.5c2.5-0.4,6,0.4,10.7,2.6c3.3,1.5,9.1-0.4,12.2,2.1l-2.7,3C41.7,18.5,39.7,18.5,38.4,18.5z" data-color-action="fill" style="fill:inherit" /></g><g id="bI_sub-erupted" style="">	<rect x="28" y="1.2" transform="matrix(-1 -4.486867e-11 4.486867e-11 -1 59 5.4968)" class="bI-cls-8" width="3" height="3" />	<rect x="28" y="1.2" transform="matrix(-1 -4.486867e-11 4.486867e-11 -1 59 5.4968)" class="bI-cls-8" width="3" height="3" />	<rect x="28" y="1.2" transform="matrix(-1 -4.486867e-11 4.486867e-11 -1 59 5.4968)" class="bI-cls-8" width="3" height="3" /></g><g id="bI_sealant" style="">	<text transform="matrix(1 0 0 1 19.699 39.47)" class="bI-cls-9 bI-cls-10 bI-cls-11" data-color-action="fill" style="fill:inherit">S</text></g><g id="bI_rotated_mesial" style=""></g><g id="bI_rotated_distal" style=""></g><g id="bI_root_canal" style="">	<rect x="28" y="1.2" transform="matrix(-1 -4.486867e-11 4.486867e-11 -1 59 5.4968)" class="bI-cls-8" width="3" height="3" />	<rect x="28" y="1.2" transform="matrix(-1 -4.486867e-11 4.486867e-11 -1 59 5.4968)" class="bI-cls-8" width="3" height="3" />	<rect x="28" y="1.2" transform="matrix(-1 -4.486867e-11 4.486867e-11 -1 59 5.4968)" class="bI-cls-8" width="3" height="3" /></g><g id="bI_pins" style="">	<rect x="28" y="1.2" transform="matrix(-1 -4.486867e-11 4.486867e-11 -1 59 5.4968)" class="bI-cls-8" width="3" height="3" />	<rect x="28" y="1.2" transform="matrix(-1 -4.486867e-11 4.486867e-11 -1 59 5.4968)" class="bI-cls-8" width="3" height="3" />	<rect x="28" y="1.2" transform="matrix(-1 -4.486867e-11 4.486867e-11 -1 59 5.4968)" class="bI-cls-8" width="3" height="3" /></g><g id="bI_mesial_drift" style=""></g><g id="bI_distal_drift" style=""></g><g id="bI_crown" style="">	<path class="bI-cls-13" d="M11.1,21.2c-0.9,3.7,0.3,7.1,0.4,9c0.2,2.4-0.2,6.4,0.2,7.8c0.9,3,4.4,4.7,7.1,5.4c7.2,1.8,15.1,1.9,20.7-0.4   c3.3-1.4,8-4.9,8.6-9.4c0.4-3-0.7-3-0.5-5.8c0.2-2.8,1.3-8.7-2.1-11.9c-3-2.7-9-0.7-12.4-2.3c-4.7-2.1-8.2-2.9-10.7-2.6   C15.9,12.2,11.6,19.1,11.1,21.2z" data-color-action="fill" style="fill:inherit" /></g><g id="bI_cracked_surface_occlusal" style="">	<polyline class="bI-cls-14" points="28.2,23.7 32,27.6 27,27.6 32,32.3 27,32.3 30.8,36.1  " data-color-action="stroke" style="stroke:inherit" /></g><g id="bI_chipped_surface_occlusal" style="">	<g>		<line class="bI-cls-14" x1="25.7" y1="25.4" x2="34" y2="33.7" data-color-action="stroke" style="stroke:inherit" />		<line class="bI-cls-14" x1="34" y1="25.4" x2="25.7" y2="33.7" data-color-action="stroke" style="stroke:inherit" />	</g></g><g id="bI_abscess" style="">	<rect x="28" y="1.2" transform="matrix(-1 -4.486867e-11 4.486867e-11 -1 59 5.4968)" class="bI-cls-8" width="3" height="3" />	<rect x="28" y="1.2" transform="matrix(-1 -4.486867e-11 4.486867e-11 -1 59 5.4968)" class="bI-cls-8" width="3" height="3" />	<rect x="28" y="1.2" transform="matrix(-1 -4.486867e-11 4.486867e-11 -1 59 5.4968)" class="bI-cls-8" width="3" height="3" /></g><g id="bI_missing_tooth" style="" data-name="missing tooth">	<g>		<path class="bI-cls-2" d="M11.1,21.2c-0.9,3.7,0.3,7.1,0.4,9c0.2,2.4-0.2,6.4,0.2,7.8c0.9,3,4.4,4.7,7.1,5.4c7.2,1.8,15.1,1.9,20.7-0.4    c3.3-1.4,8-4.9,8.6-9.4c0.4-3-0.7-3-0.5-5.8c0.2-2.8,1.3-8.7-2.1-11.9c-3-2.7-9-0.7-12.4-2.3c-4.7-2.1-8.2-2.9-10.7-2.6    C15.9,12.2,11.6,19.1,11.1,21.2z" data-color-action="fill,stroke" style="fill,stroke:inherit" />		<path class="bI-cls-12" d="M11.1,21.2c-0.9,3.7,0.3,7.1,0.4,9c0.2,2.4-0.2,6.4,0.2,7.8c0.9,3,4.4,4.7,7.1,5.4    c7.2,1.8,15.1,1.9,20.7-0.4c3.3-1.4,8-4.9,8.6-9.4c0.4-3-0.7-3-0.5-5.8c0.2-2.8,1.3-8.7-2.1-11.9c-3-2.7-9-0.7-12.4-2.3    c-4.7-2.1-8.2-2.9-10.7-2.6C15.9,12.2,11.6,19.1,11.1,21.2z" />		<path class="bI-cls-12" d="M18.8,43.5c-2.7-0.7-6.2-2.4-7.1-5.4c-0.4-1.5,0-5.4-0.2-7.8c-0.1-0.9-0.4-2.2-0.6-3.7    c0.6,0.6,1.5,1.2,2.1,1.5c1.1,0.6,2.7,0.6,2.7,1.2c0,0.6-1.2,0.5-2.3,1.2c-1.1,0.7-0.1,4.8,0.3,7c0.4,2.3,3.8,3.5,5.2,3.6    c1.4,0.2,8.5,1.3,12.5,1.2c4-0.1,8.5-1.3,11-3.1c2.5-1.8,4.7-4.2,4.7-6.8c0-2.6-1-2.3-1.7-3.3c-0.7-1,1-0.7,1.6-1.8    c0.3-0.5,0.5-1.3,0.8-2.1c-0.1,1-0.2,2-0.2,2.7c-0.2,2.8,0.9,2.8,0.5,5.8c-0.6,4.5-5.3,8-8.6,9.4C33.8,45.4,26,45.2,18.8,43.5z" />		<path class="bI-cls-12" d="M41.9,26.6c0.3,0.8-3.1,1.1-2.9,2.4c0.1,1.3,3.4,3.6,3,4.2c-0.4,0.5-4.7-3.9-6.8-3.8    c-2.1,0.2-8.1,0.1-9.6,0.3s-3.5,5.8-4.2,5c-0.7-0.8,1.4-5.1,0.7-5.4s-3.3,0.2-3-0.5c0.2-0.7,2.4,0.2,2.9-0.6    c0.5-0.8-3.8-2.6-2.9-3.4s5.1,3.4,6.2,3.4c1.2,0,6.2,0.4,6.6-0.1c0.4-0.5-0.9-5.8-0.2-5.8c1.6,0,1.2,5.6,2.8,5.7    c1.7,0.1,1.9,0,2.8-0.2S41.5,25.6,41.9,26.6z" />		<path class="bI-cls-12" d="M22.4,11.3c2.5-0.4,6,0.4,10.7,2.6c2.2,1,5.4,0.5,8.3,0.8c-1.9,0.4-3.4,1.8-4.9,2.2    c-2.2,0.6-3.4-0.3-6.1-1.6c-2.7-1.3-7.5-1.5-10-1c-2,0.4-4.8,1.1-5.9,1.7C16.4,13.7,19.1,11.7,22.4,11.3z" />	</g></g><g id="bI_watch_tooth" style=""></g><g id="bI_border" style="">	<rect x="0" transform="matrix(-1 -4.488910e-11 4.488910e-11 -1 59 56)" class="bI-cls-8" width="59" height="56" />	<rect x="0" y="0" class="bI-cls-8" width="59" height="56" /></g></defs></g><g class="cI-cls-1" transform="translate(0 217)"><g id="_Ic">	<g>		<path class="cI-cls-2" d="M15.3,37.4c-3.3-1.7-4.4-11.3-5-15.6S16.2,12.1,22,11s9.4,2,11.5,2.2c2,0.2,1.3-0.9,8.7-0.1    c5.6,1.2,7.1,7.7,6.5,10.2c-1.1,4.5-1.8,7-3.8,10.2c-1,1.3-9.9,1.6-13.2,1.5c-3.2-0.1-7.9,3.1-13.2,2.8    C17,37.8,15.9,37.7,15.3,37.4z" />		<g>			<g>				<path class="cI-cls-3" d="M15.3,37.4c-3.3-1.7-4.4-11.3-5-15.6S16.2,12.1,22,11s9.4,2,11.5,2.2c2,0.2,1.3-0.9,8.7-0.1      c5.6,1.2,7.1,7.7,6.5,10.2c-1.1,4.5-1.8,7-3.8,10.2c-1,1.3-9.9,1.6-13.2,1.5c-3.2-0.1-7.9,3.1-13.2,2.8      C17,37.8,15.9,37.7,15.3,37.4z" />			</g>		</g>		<path class="cI-cls-4" d="M31.4,16.8c-1.2-0.4-1.7,0.7-1.7,1.2s0.1,1.3,0.6,1.4c0.5,0.1,1-0.5,1.3-1.1S32.3,17,31.4,16.8z" />		<path class="cI-cls-5" d="M22,11c5.8-1,9.4,2,11.5,2.2c2,0.2,1.3-0.9,8.7-0.1c4.4,0.9,6.2,5.1,6.5,8.1c-0.2-0.8-0.5-1.6-1-2.2    c-1.2-1.7-3.2-3.7-4.5-3.7s-6.2-0.3-8,0.2c-1.8,0.5-3-0.1-4.6-0.8c-1.7-0.7-5.4-2.4-7.8-2c-3.8,0.6-7,2.6-9,4.5    c-1.2,1.2-3,2.8-3.4,5.9c-0.1-0.5-0.1-1-0.2-1.4C9.7,17.4,16.2,12.1,22,11z" />		<path class="cI-cls-4" d="M26.7,33.8c2.9-1,5-1,6-1c1-0.1,10.9-0.3,12.2-0.9c0.4-0.2,1-0.7,1.6-1.2c-0.4,0.9-0.9,1.9-1.5,2.9    c-1,1.3-9.9,1.6-13.2,1.5c-3.2-0.1-7.9,3.1-13.2,2.8c-1.5-0.1-2.6-0.2-3.2-0.5c-0.8-0.4-1.4-1.2-2-2.3c1.3,0.5,3.2,0.7,4.5,0.7    C20.1,35.9,23.8,34.8,26.7,33.8z" />	</g></g><defs><g id="cI_lingual_V" style="">	<path class="cI-cls-6" d="M19.7,37.9c4.8-0.2,9.1-2.9,12.1-2.8c1.6,0.1,4.8,0,7.5-0.2c-3.2-2.2-6.5-3.2-9.8-2.9   C25.8,32.4,22.5,34.5,19.7,37.9z" data-color-action="fill" style="fill:inherit" /></g><g id="cI_lingual_pit" style="">	<ellipse class="cI-cls-6" cx="29" cy="26.8" rx="3" ry="4.4" data-color-action="fill" style="fill:inherit" /></g><g id="cI_mesial" style="">	<path class="cI-cls-6" d="M14.6,23.3c0.1-0.8,0.2-1.8,0.5-2.6l-2.6-4.1c-1.5,1.7-2.4,3.6-2.2,5.3c0.2,1.5,0.5,3.7,0.9,6   C12.9,26.9,14.3,25.6,14.6,23.3z" data-color-action="fill" style="fill:inherit" /></g><g id="cI_line_angle_4" style="">	<path class="cI-cls-6" d="M20.3,16.9c1.4,0,2.4,0.3,3.2,0.7L22,11c0,0,0,0-0.1,0c-3.5,0.6-7.2,2.9-9.5,5.5l2.6,4.1   C15.6,18.6,16.9,16.8,20.3,16.9z" data-color-action="fill" style="fill:inherit" /></g><g id="cI_groove_2" style="">	<path class="cI-cls-6" d="M29,20.2c2.2,0.1,4-1.2,6.2-2.1l1.2-5.1c-1.5,0.1-1.7,0.5-2.9,0.3C31.4,13,27.8,10,22,11l1.4,6.5   C25.6,18.5,26.5,20,29,20.2z" data-color-action="fill" style="fill:inherit" /></g><g id="cI_line_angle_3" style="">	<path class="cI-cls-6" d="M39.5,17.2c2.1,0.1,3.5,1.4,4.6,3.5l3-4.2c-1-1.6-2.6-2.9-4.9-3.4c-3.1-0.3-4.7-0.3-5.8-0.2L35.2,18   C36.4,17.5,37.8,17.2,39.5,17.2z" data-color-action="fill" style="fill:inherit" /></g><g id="cI_distal" style="">	<path class="cI-cls-6" d="M47.1,16.5l-3,4.2c0.7,1.3,1.2,2.9,1.7,4.7c0.3,1.1,0.9,1.8,1.7,2.4c0.4-1.3,0.8-2.7,1.1-4.4   C49,21.9,48.6,18.9,47.1,16.5z" data-color-action="fill" style="fill:inherit" /></g><g id="cI_tipped_lingual" style="">	<g>		<path class="cI-cls-7" d="M27,7.4c1.2-3.2,4.5-3.6,7.2,5c0.5,1.5,4.2,1.7,3.6,0c-1.9-5.7-5-9.6-8.5-8.7c-1.2,0.3-2.3,1.6-2.8,3.2    C26.7,7,26.9,7.2,27,7.4z" data-color-action="fill" style="fill:inherit" />		<polygon class="cI-cls-7" points="29,10.1 41.2,10.1 38.4,19.2   " data-color-action="fill" style="fill:inherit" />	</g></g><g id="cI_tipped_facial" style=""></g><g id="cI_surface_restoration_mesial" style="">	<path class="cI-cls-8" d="M10.2,21.8c0.3,1.9,0.6,4.8,1.2,7.6c3.5,0.4,6.5,2.3,8.3,5.1c-0.4-1.9-0.7-3.5-0.7-3.5   c-0.6-1.7-1.2-4.9-1.8-9.4c0.3-0.4,0.8-0.9,1.4-1.4l-4.4-5.4C11.7,16.9,9.9,19.5,10.2,21.8z" data-color-action="fill" style="fill:inherit" /></g><g id="cI_surface_restoration_lingual" style="">	<g>		<path class="cI-cls-8" d="M19.8,34.4c0.2,0.4,0.5,0.8,0.7,1.2c2.9-2.6,6.6-4.1,10.8-4.1c2.7,0,5.3,0.7,7.5,1.9c0.3-0.8,0.8-1.5,1.3-2.2    c0.7-3.8,1.5-7.7,1.8-9c0-0.6-0.4-1.7-0.9-2c-1.2-0.1-2.3-0.2-3-0.2c-0.8,0-0.9,0-1.3,0.1c-0.5,0.1-1.4,0.3-2.6,0.3    c-0.4,0-0.9,0-1.3-0.1c-1.6-0.2-3-0.8-4.2-1.3c-1.4-0.6-2.6-1.1-4.1-1.1c-0.4,0-0.8,0-1.2,0.1c-2.5,0.5-5.2,2.5-5.9,3.6    c0.6,4.5,1.2,7.6,1.8,9.4C19.1,30.9,19.4,32.5,19.8,34.4z" data-color-action="fill" style="fill:inherit" />			</g></g><g id="cI_surface_restoration_lingual_V" style="">	<g>				<path class="cI-cls-8" d="M20.4,35.6c0.4,0.7,0.6,1.4,0.9,2.2c4.1-0.6,7.7-2.8,10.4-2.7c1.4,0,4,0,6.4-0.1c0.2-0.6,0.4-1.1,0.6-1.7    c-2.2-1.2-4.8-1.9-7.5-1.9C27,31.4,23.3,33,20.4,35.6z" data-color-action="fill" style="fill:inherit" />	</g></g><g id="cI_surface_restoration_distal" style="">	<path class="cI-cls-8" d="M40.8,20.1c0.5,0.3,0.9,1.5,0.9,2c-0.3,1.3-1,5.2-1.8,9c1.8-2.5,4.6-4.2,7.9-4.6c0.3-0.9,0.5-2,0.8-3.1   c0.5-2.2-0.5-7.5-4.6-9.6l-5,6.1C39.6,19.9,40.2,20,40.8,20.1z" data-color-action="fill" style="fill:inherit" /></g><g id="cI_surface_restoration_occlusal" style="">	<path class="cI-cls-8" d="M33.5,13.3c-2.1-0.2-5.8-3.3-11.5-2.2c-2.7,0.5-5.5,1.9-7.7,3.7l4.4,5.4c1.2-1,2.9-1.9,4.5-2.2   c0.4-0.1,0.8-0.1,1.2-0.1c1.4,0,2.7,0.5,4.1,1.1c1.2,0.5,2.6,1.1,4.2,1.3c0.5,0.1,0.9,0.1,1.3,0.1c1.2,0,2-0.2,2.6-0.3   c0.3-0.1,0.5-0.1,1.3-0.1c0.4,0,0.8,0,1.3,0l5-6.1c-0.6-0.3-1.2-0.5-1.9-0.7C34.7,12.4,35.4,13.5,33.5,13.3z" data-color-action="fill" style="fill:inherit" /></g><g id="cI_sub-erupted" style=""></g><g id="cI_rotated_mesial" style=""></g><g id="cI_rotate_distal" style=""></g><g id="cI_root_canal" style=""></g><g id="cI_pins" style=""></g><g id="cI_mesial_drift" style=""></g><g id="cI_distal_drift" style=""></g><g id="cI_crown" style="">	<path class="cI-cls-10" d="M15.3,37.4c-3.3-1.7-4.4-11.3-5-15.6S16.2,12.1,22,11s9.4,2,11.5,2.2c2,0.2,1.3-0.9,8.7-0.1   c5.6,1.2,7.1,7.7,6.5,10.2c-1.1,4.5-1.8,7-3.8,10.2c-1,1.3-9.9,1.6-13.2,1.5c-3.2-0.1-7.9,3.1-13.2,2.8   C17,37.8,15.8,37.7,15.3,37.4z" data-color-action="fill" style="fill:inherit" /></g><g id="cI_cracked_surface_mesial" style="">	<polyline class="cI-cls-11" points="12.8,17.7 16.7,21.6 11.7,21.6 16.7,26.3 11.7,26.3 15.5,30.1  " data-color-action="stroke" style="stroke:inherit" /></g><g id="cI_cracked_surface_lingual" style="">	<polyline class="cI-cls-11" points="28,17.7 31.8,21.6 26.8,21.6 31.8,26.3 26.8,26.3 30.7,30.1  " data-color-action="stroke" style="stroke:inherit" /></g><g id="cI_cracked_surface_lingual_V" style="">	<polyline class="cI-cls-11" points="28,17.7 31.8,21.6 26.8,21.6 31.8,26.3 26.8,26.3 30.7,30.1  " data-color-action="stroke" style="stroke:inherit" /></g><g id="cI_cracked_surface_distal" style="">	<polyline class="cI-cls-11" points="43.8,17.7 47.7,21.6 42.7,21.6 47.7,26.3 42.7,26.3 46.5,30.1  " data-color-action="stroke" style="stroke:inherit" /></g><g id="cI_chipped_surface_mesial" style="">	<g>		<line class="cI-cls-11" x1="19" y1="19.4" x2="10.7" y2="27.7" data-color-action="stroke" style="stroke:inherit" />		<line class="cI-cls-11" x1="10.7" y1="19.4" x2="19" y2="27.7" data-color-action="stroke" style="stroke:inherit" />	</g></g><g id="cI_chipped_surface_lingual" style="">	<g>		<line class="cI-cls-11" x1="33.2" y1="19.4" x2="24.8" y2="27.7" data-color-action="stroke" style="stroke:inherit" />		<line class="cI-cls-11" x1="24.8" y1="19.4" x2="33.2" y2="27.7" data-color-action="stroke" style="stroke:inherit" />	</g></g><g id="cI_chipped_surface_lingual_V" style="">	<g>		<line class="cI-cls-11" x1="33.2" y1="19.4" x2="24.8" y2="27.7" data-color-action="stroke" style="stroke:inherit" />		<line class="cI-cls-11" x1="24.8" y1="19.4" x2="33.2" y2="27.7" data-color-action="stroke" style="stroke:inherit" />	</g></g><g id="cI_chipped_surface_distal" style="">	<g>		<line class="cI-cls-11" x1="48.2" y1="19.4" x2="39.8" y2="27.7" data-color-action="stroke" style="stroke:inherit" />		<line class="cI-cls-11" x1="39.8" y1="19.4" x2="48.2" y2="27.7" data-color-action="stroke" style="stroke:inherit" />	</g></g><g id="cI_abscess" style=""></g><g id="cI_missing_tooth" style="" data-name="missing tooth">	<g>		<path class="cI-cls-2" d="M15.3,37.4c-3.3-1.7-4.4-11.3-5-15.6S16.2,12.1,22,11s9.4,2,11.5,2.2c2,0.2,1.3-0.9,8.7-0.1    c5.6,1.2,7.1,7.7,6.5,10.2c-1.1,4.5-1.8,7-3.8,10.2c-1,1.3-9.9,1.6-13.2,1.5c-3.2-0.1-7.9,3.1-13.2,2.8    C17,37.8,15.9,37.7,15.3,37.4z" data-color-action="fill,stroke" style="fill,stroke:inherit" />		<g>			<g>				<path class="cI-cls-9" d="M15.3,37.4c-3.3-1.7-4.4-11.3-5-15.6S16.2,12.1,22,11s9.4,2,11.5,2.2c2,0.2,1.3-0.9,8.7-0.1      c5.6,1.2,7.1,7.7,6.5,10.2c-1.1,4.5-1.8,7-3.8,10.2c-1,1.3-9.9,1.6-13.2,1.5c-3.2-0.1-7.9,3.1-13.2,2.8      C17,37.8,15.9,37.7,15.3,37.4z" />			</g>		</g>		<path class="cI-cls-9" d="M31.4,16.8c-1.2-0.4-1.7,0.7-1.7,1.2s0.1,1.3,0.6,1.4c0.5,0.1,1-0.5,1.3-1.1S32.3,17,31.4,16.8z" />		<path class="cI-cls-9" d="M22,11c5.8-1,9.4,2,11.5,2.2c2,0.2,1.3-0.9,8.7-0.1c4.4,0.9,6.2,5.1,6.5,8.1c-0.2-0.8-0.5-1.6-1-2.2    c-1.2-1.7-3.2-3.7-4.5-3.7s-6.2-0.3-8,0.2c-1.8,0.5-3-0.1-4.6-0.8c-1.7-0.7-5.4-2.4-7.8-2c-3.8,0.6-7,2.6-9,4.5    c-1.2,1.2-3,2.8-3.4,5.9c-0.1-0.5-0.1-1-0.2-1.4C9.7,17.4,16.2,12.1,22,11z" />		<path class="cI-cls-9" d="M26.7,33.8c2.9-1,5-1,6-1c1-0.1,10.9-0.3,12.2-0.9c0.4-0.2,1-0.7,1.6-1.2c-0.4,0.9-0.9,1.9-1.5,2.9    c-1,1.3-9.9,1.6-13.2,1.5c-3.2-0.1-7.9,3.1-13.2,2.8c-1.5-0.1-2.6-0.2-3.2-0.5c-0.8-0.4-1.4-1.2-2-2.3c1.3,0.5,3.2,0.7,4.5,0.7    C20.1,35.9,23.8,34.8,26.7,33.8z" />	</g></g><g id="cI_watch_tooth" style=""></g><g id="cI_border" style="">	<rect x="0" transform="matrix(-1 -4.488910e-11 4.488910e-11 -1 59 66)" class="cI-cls-12" width="59" height="66" />	<rect class="cI-cls-12" width="59" height="66" /></g></defs></g></svg>