<svg xmlns="http://www.w3.org/2000/svg" viewBox="0 0 59 283"><defs><style>.a8-cls-1{isolation:isolate}.a8-cls-2,.a8-cls-25{fill:#c5c7c9}.a8-cls-25{stroke:none}.a8-cls-2{stroke:#c5c7c9;stroke-width:5px}.a8-cls-19,.a8-cls-2,.a8-cls-22,.a8-cls-24,.a8-cls-26,.a8-cls-27,.a8-cls-30,.a8-cls-32,.a8-cls-33{stroke-miterlimit:10}.a8-cls-3{fill:#f5d7cf;stroke:none}.a8-cls-4,.a8-cls-5{fill:#fae8e3;stroke:none}.a8-cls-5{fill:#f2c6bc}.a8-cls-6,.a8-cls-7{fill:#eeefef;stroke:none}.a8-cls-7{fill:#e2e3e4}.a8-cls-8,.a8-cls-9{fill:#fbfbfb;stroke:none}.a8-cls-9{font-size:15px;fill:#929497;font-family:ProximaNova-Semibold,Proxima Nova,sans-serif;font-weight:700}.a8-cls-10,.a8-cls-28,.a8-cls-36{fill:#3c3d3d;stroke:none}.a8-cls-10{opacity:.55}.a8-cls-11{fill:#ffd403;stroke:none}.a8-cls-13,.a8-cls-21{fill:#ffef3e;stroke:none}.a8-cls-14,.a8-cls-15,.a8-cls-20{fill:#c52636;stroke:none}.a8-cls-15{fill:none}.a8-cls-19,.a8-cls-22,.a8-cls-24,.a8-cls-26,.a8-cls-27,.a8-cls-30,.a8-cls-32,.a8-cls-33{fill:none}.a8-cls-16,.a8-cls-37{fill:#28418b;stroke:none}.a8-cls-17,.a8-cls-18{fill:#787878;stroke:none}.a8-cls-19,.a8-cls-22,.a8-cls-24,.a8-cls-30,.a8-cls-32,.a8-cls-33{stroke:#c52636}.a8-cls-19,.a8-cls-22,.a8-cls-27{stroke-width:2px}.a8-cls-22{stroke-linecap:round}.a8-cls-23{fill:#fff;stroke:none}.a8-cls-26,.a8-cls-27{stroke:#28418b}.a8-cls-26{stroke-width:3px}.a8-cls-29{opacity:.6}.a8-cls-30{stroke-width:4px}.a8-cls-31{fill:#f05b85;stroke:none}.a8-cls-32,.a8-cls-33{stroke-width:1.25px}.a8-cls-34{fill:#9b9999;stroke:none}.a8-cls-35,.a8-cls-38{fill:#dbdbdc;stroke:none}.a8-cls-38{font-size:33px;fill:#28418b;font-family:ProximaNova-Semibold,Proxima Nova,sans-serif;font-weight:700}.c8-cls-1{isolation:isolate}.c8-cls-16,.c8-cls-2{fill:#c5c7c9;stroke:none}.c8-cls-2{stroke:#c5c7c9;stroke-width:5px}.c8-cls-2,.c8-cls-20,.c8-cls-21{stroke-miterlimit:10}.c8-cls-3{fill:#eeefef;stroke:none}.c8-cls-4,.c8-cls-5{fill:#fbfbfb;stroke:none}.c8-cls-5{fill:#e2e3e4}.c8-cls-17,.c8-cls-6{fill:#3c3d3d;stroke:none}.c8-cls-6{opacity:.55}.c8-cls-20,.c8-cls-21{fill:none}.c8-cls-7,.c8-cls-9{fill:none;stroke:none}.c8-cls-9{fill:#28418b}.c8-cls-10,.c8-cls-11{fill:#787878;stroke:none}.c8-cls-12,.c8-cls-13,.c8-cls-19{fill:#ffef3e;stroke:none}.c8-cls-13{fill:#fff}.c8-cls-14,.c8-cls-15{fill:#c52636;stroke:none}.c8-cls-18{opacity:.6}.c8-cls-20,.c8-cls-21{stroke:#c52636;stroke-width:1.25px}.a8-msng-cls-1{isolation:isolate}.a8-msng-cls-2{fill:#c5c7c9;stroke:#c5c7c9;stroke-width:5px}.a8-msng-cls-11,.a8-msng-cls-2{stroke-miterlimit:10}.a8-msng-cls-3{fill:#f5d7cf;stroke:none}.a8-msng-cls-4{fill:#fae8e3;stroke:none}.a8-msng-cls-5{fill:#f2c6bc;stroke:none}.a8-msng-cls-6{fill:#eeefef;stroke:none}.a8-msng-cls-7{fill:#e2e3e4;stroke:none}.a8-msng-cls-8{fill:#fbfbfb;stroke:none}.a8-msng-cls-9{font-size:15px;fill:#929497;font-family:ProximaNova-Semibold,Proxima Nova;font-weight:700;stroke:none}.a8-msng-cls-11{fill:none}.a8-msng-cls-12{fill:none;stroke:none}.a8-msng-cls-11{stroke:#787878;stroke-width:6.25px}</style></defs><g class="a8-cls-1"><g id="_8A" data-name="#8A"><path d="M12.82 116a12.79 12.79 0 0 1 3.53-6.22c.21-9.69 1.08-21.15 2.15-32.84 2.16-23.69 5.5-46.73 8.44-46.58 2.37.12 8.74 22.85 12.65 46.76a266.43 266.43 0 0 1 3.62 33.53c2 2.5 3.4 6 4.26 10.48 1.62 8.56 2.33 21.61 0 25.49-1.65 2.75-13.2 4.58-18.52 4.22s-16.87-1.1-18.34-5 .01-21.38 2.21-29.84z" class="a8-cls-2"/><path d="M43.26 112.73c-.13-9.77-1.51-22.41-3.67-35.58-3.91-23.92-10.29-46.64-12.65-46.76C24 30.24 20.67 53.28 18.5 77c-1.23 13.43-2.2 26.56-2.2 37 0 3.13 27.01 2.25 26.96-1.27z" class="a8-cls-3"/><path d="M28.92 111.46l-6.37.82S22.88 87 23.16 68c.43-30.42 2.84-34.4 3.34-35.11s-1.15 3.24-.57 25.74c.36 13.59 2.99 52.83 2.99 52.83z" class="a8-cls-4"/><path d="M37.86 76.11c-1.3-10.3-2.92-20.38-4.52-28.8 2.19 8.37 4.47 19 6.25 29.84 2.16 13.16 3.54 25.81 3.67 35.58 0 .64-.89 1.2-2.36 1.66a354.67 354.67 0 0 0-3.04-38.28zM18.5 77c1.61-17.59 3.86-34.81 6.12-42.46C23 44 21.52 59.79 20.39 75.91c-1 14.25-1.8 28.19-1.82 39.39-1.4-.31-2.26-.74-2.26-1.29-.01-10.48.97-23.62 2.19-37.01z" class="a8-cls-5"/><path d="M47.48 146.65c2.33-3.88 1.62-16.93 0-25.49-2-10.64-7-15.4-16-15.59s-16.5 2-18.7 10.45-3.67 26-2.2 29.89 13 4.58 18.34 5 16.91-1.51 18.56-4.26z" class="a8-cls-6"/><path d="M44.4 121.78c-1-7.09-2.81-11.87-5.65-14.67 4.55 2.17 7.33 6.72 8.73 14.05 1.62 8.56 2.33 21.61 0 25.49a5.24 5.24 0 0 1-2.42 1.69c1.09-6.02.5-18.18-.66-26.56zM12.82 116a12.35 12.35 0 0 1 7.11-8.59c-2 1.85-3.51 4.57-4.25 8.5-1.68 8.76-2.82 26.09-2.1 32.45a5.06 5.06 0 0 1-3-2.44c-1.43-3.85.04-21.46 2.24-29.92z" class="a8-cls-7"/><path d="M21.54 150.2c-.07-5.41 0-14.64.56-26.65.52-10.34 1.66-15.25 2.48-17.51a30.41 30.41 0 0 1 3.64-.42 195.66 195.66 0 0 0-1 20.27c-.14 9.72.39 19.53.75 24.91-1.83-.12-4.11-.3-6.43-.6z" class="a8-cls-8"/><text class="a8-cls-9" transform="translate(20.54 20.51)">58</text></g><defs><g id="a58_bone_graft" data-name="bone graft"><path d="M2 23.31h55V111H2z" class="a8-cls-16" data-color-action="fill" style="fill:inherit"/><path d="M12.82 116a12.79 12.79 0 0 1 3.53-6.22c.21-9.69 1.08-21.15 2.15-32.84 2.16-23.69 5.5-46.73 8.44-46.58 2.37.12 8.74 22.85 12.65 46.76a266.43 266.43 0 0 1 3.62 33.53c2 2.5 3.4 6 4.26 10.48 1.62 8.56 2.33 21.61 0 25.49-1.65 2.75-13.2 4.58-18.52 4.22s-16.87-1.1-18.34-5 .01-21.38 2.21-29.84z" class="a8-cls-2"/><path d="M43.26 112.73c-.13-9.77-1.51-22.41-3.67-35.58-3.91-23.92-10.29-46.64-12.65-46.76C24 30.24 20.67 53.28 18.5 77c-1.23 13.43-2.2 26.56-2.2 37 0 3.13 27.01 2.25 26.96-1.27z" class="a8-cls-3"/><path d="M28.92 111.46l-6.37.82S22.88 87 23.16 68c.43-30.42 2.84-34.4 3.34-35.11s-1.15 3.24-.57 25.74c.36 13.59 2.99 52.83 2.99 52.83z" class="a8-cls-4"/><path d="M37.86 76.11c-1.3-10.3-2.92-20.38-4.52-28.8 2.19 8.37 4.47 19 6.25 29.84 2.16 13.16 3.54 25.81 3.67 35.58 0 .64-.89 1.2-2.36 1.66a354.67 354.67 0 0 0-3.04-38.28zM18.5 77c1.61-17.59 3.86-34.81 6.12-42.46C23 44 21.52 59.79 20.39 75.91c-1 14.25-1.8 28.19-1.82 39.39-1.4-.31-2.26-.74-2.26-1.29-.01-10.48.97-23.62 2.19-37.01z" class="a8-cls-5"/><path d="M47.48 146.65c2.33-3.88 1.62-16.93 0-25.49-2-10.64-7-15.4-16-15.59s-16.5 2-18.7 10.45-3.67 26-2.2 29.89 13 4.58 18.34 5 16.91-1.51 18.56-4.26z" class="a8-cls-6"/><path d="M44.4 121.78c-1-7.09-2.81-11.87-5.65-14.67 4.55 2.17 7.33 6.72 8.73 14.05 1.62 8.56 2.33 21.61 0 25.49a5.24 5.24 0 0 1-2.42 1.69c1.09-6.02.5-18.18-.66-26.56zM12.82 116a12.35 12.35 0 0 1 7.11-8.59c-2 1.85-3.51 4.57-4.25 8.5-1.68 8.76-2.82 26.09-2.1 32.45a5.06 5.06 0 0 1-3-2.44c-1.43-3.85.04-21.46 2.24-29.92z" class="a8-cls-7"/><path d="M21.54 150.2c-.07-5.41 0-14.64.56-26.65.52-10.34 1.66-15.25 2.48-17.51a30.41 30.41 0 0 1 3.64-.42 195.66 195.66 0 0 0-1 20.27c-.14 9.72.39 19.53.75 24.91-1.83-.12-4.11-.3-6.43-.6z" class="a8-cls-8"/></g><g id="a58_splinted_crowns" data-name="splinted crowns"><path d="M2 102.57h55v7.67H2z" class="a8-cls-21" data-color-action="fill" style="fill:inherit"/><path d="M12.82 116a12.79 12.79 0 0 1 3.53-6.22c.21-9.69 1.08-21.15 2.15-32.84 2.16-23.69 5.5-46.73 8.44-46.58 2.37.12 8.74 22.85 12.65 46.76a266.43 266.43 0 0 1 3.62 33.53c2 2.5 3.4 6 4.26 10.48 1.62 8.56 2.33 21.61 0 25.49-1.65 2.75-13.2 4.58-18.52 4.22s-16.87-1.1-18.34-5 .01-21.38 2.21-29.84z" class="a8-cls-2"/><path d="M43.26 112.73c-.13-9.77-1.51-22.41-3.67-35.58-3.91-23.92-10.29-46.64-12.65-46.76C24 30.24 20.67 53.28 18.5 77c-1.23 13.43-2.2 26.56-2.2 37 0 3.13 27.01 2.25 26.96-1.27z" class="a8-cls-3"/><path d="M28.92 111.46l-6.37.82S22.88 87 23.16 68c.43-30.42 2.84-34.4 3.34-35.11s-1.15 3.24-.57 25.74c.36 13.59 2.99 52.83 2.99 52.83z" class="a8-cls-4"/><path d="M37.86 76.11c-1.3-10.3-2.92-20.38-4.52-28.8 2.19 8.37 4.47 19 6.25 29.84 2.16 13.16 3.54 25.81 3.67 35.58 0 .64-.89 1.2-2.36 1.66a354.67 354.67 0 0 0-3.04-38.28zM18.5 77c1.61-17.59 3.86-34.81 6.12-42.46C23 44 21.52 59.79 20.39 75.91c-1 14.25-1.8 28.19-1.82 39.39-1.4-.31-2.26-.74-2.26-1.29-.01-10.48.97-23.62 2.19-37.01z" class="a8-cls-5"/><path d="M47.48 146.65c2.33-3.88 1.62-16.93 0-25.49-2-10.64-7-15.4-16-15.59s-16.5 2-18.7 10.45-3.67 26-2.2 29.89 13 4.58 18.34 5 16.91-1.51 18.56-4.26z" class="a8-cls-6"/><path d="M44.4 121.78c-1-7.09-2.81-11.87-5.65-14.67 4.55 2.17 7.33 6.72 8.73 14.05 1.62 8.56 2.33 21.61 0 25.49a5.24 5.24 0 0 1-2.42 1.69c1.09-6.02.5-18.18-.66-26.56zM12.82 116a12.35 12.35 0 0 1 7.11-8.59c-2 1.85-3.51 4.57-4.25 8.5-1.68 8.76-2.82 26.09-2.1 32.45a5.06 5.06 0 0 1-3-2.44c-1.43-3.85.04-21.46 2.24-29.92z" class="a8-cls-7"/><path d="M21.54 150.2c-.07-5.41 0-14.64.56-26.65.52-10.34 1.66-15.25 2.48-17.51a30.41 30.41 0 0 1 3.64-.42 195.66 195.66 0 0 0-1 20.27c-.14 9.72.39 19.53.75 24.91-1.83-.12-4.11-.3-6.43-.6z" class="a8-cls-8"/></g><path id="a58_mesial_incisal" d="M38.69 150.11c4.12-.76 7.89-2 8.78-3.46a7.8 7.8 0 0 0 .8-2.11c-2 1.26-6.24 2.26-10.49 2.84z" class="a8-cls-10" data-color-action="fill" style="fill:inherit" data-name="mesial incisal"/><path id="a58_central_incisal" d="M28.9 147.87c-1.93-.12-4.6-.28-7.38-.58l-1 2.78c3.1.44 6.28.65 8.43.8a44.3 44.3 0 0 0 9.73-.76l-.9-2.74a49.4 49.4 0 0 1-8.88.5z" class="a8-cls-10" data-color-action="fill" style="fill:inherit" data-name="central incisal"/><path id="a58_distal_incisal" d="M10.3 144.54a7.17 7.17 0 0 0 .32 1.38c.88 2.29 5.33 3.48 9.91 4.15l1-2.78c-4.3-.47-8.83-1.29-11.23-2.75z" class="a8-cls-10" data-color-action="fill" style="fill:inherit" data-name="distal incisal"/><path id="a58_mesial" d="M48.79 141.24l-8.44-4.1a21.8 21.8 0 0 0 1.56-6.14c.44-2.7 3.69-3.9 6.39-4.44a74.35 74.35 0 0 1 .49 14.68z" class="a8-cls-10" data-color-action="fill" style="fill:inherit"/><path id="a58_line_angle_2" d="M40.35 137.14a4.33 4.33 0 0 1-3.15 2.64c-.52.09-1.15.16-1.85.23l2.44 7.36c4.25-.57 8.48-1.57 10.49-2.84a22.23 22.23 0 0 0 .51-3.3z" class="a8-cls-10" data-color-action="fill" style="fill:inherit" data-name="line angle 2"/><path id="a58_facial" d="M28.9 147.87a49.4 49.4 0 0 0 8.88-.49L35.35 140a57 57 0 0 1-11.16-.2l-2.67 7.48c2.78.31 5.48.47 7.38.59z" class="a8-cls-10" data-color-action="fill" style="fill:inherit"/><path id="a58_line_angle_1" d="M24.19 139.81a18.66 18.66 0 0 1-3.68-.79 4.26 4.26 0 0 1-2.68-2.21L10 140.1a31.55 31.55 0 0 0 .27 4.44c2.4 1.49 6.94 2.28 11.23 2.74z" class="a8-cls-10" data-color-action="fill" style="fill:inherit" data-name="line angle 1"/><path id="a58_distal" d="M17.83 136.81L10 140.1a115.94 115.94 0 0 1 1-13.51c2.34.26 5.23 1.05 5.76 3.33.55 2.59.24 5.08 1.07 6.89z" class="a8-cls-10" data-color-action="fill" style="fill:inherit"/><ellipse id="a58_mid_facial" cx="30.08" cy="126.93" class="a8-cls-10" rx="4.85" ry="9.95" data-color-action="fill" style="fill:inherit" data-name="mid facial"/><path id="a58_facial_V" d="M40.56 108.17a15.71 15.71 0 0 1-10.35 3.7 15.56 15.56 0 0 1-10.86-4.16c3.31-1.69 7.55-2.23 12.17-2.13a15.83 15.83 0 0 1 9.04 2.59z" class="a8-cls-10" data-color-action="fill" style="fill:inherit" data-name="facial V"/><path id="a58_veneer" d="M47.48 146.65c2.33-3.88 1.62-16.93 0-25.49-2-10.64-7-15.4-16-15.59s-16.5 2-18.7 10.45-3.67 26-2.2 29.89 13 4.58 18.34 5 16.91-1.51 18.56-4.26z" class="a8-cls-12 a8-cls-13" data-color-action="fill" style="fill:inherit"/><path id="a58_tissue_graft" d="M46.97 91.65L29.5 105.54 12.03 91.65h34.94z" class="a8-cls-14" data-color-action="fill" style="fill:inherit" data-name="tissue graft"/><path id="a58_tipped_lingual" d="M28 3.25h3v3h-3z" class="a8-cls-15" data-name="tipped lingual"/><g id="a58_tipped_facial" class="a8-cls-12" data-name="tipped facial"><path d="M25.85 154.5c1.26 3.37 4.74 3.85 7.69-5.32.5-1.56 4.42-1.76 3.84 0-2 6.08-5.31 10.2-9.06 9.27a4.86 4.86 0 0 1-3-3.38c.19-.17.42-.42.53-.57z" class="a8-cls-16" data-color-action="fill" style="fill:inherit"/><path d="M27.93 151.58h12.94l-2.94-9.64-10 9.64z" class="a8-cls-16" data-color-action="fill" style="fill:inherit"/></g><path id="a58_surface_restoration_incisal" d="M47.13 147.08l-5.49-4.91a40.34 40.34 0 0 1-11.2 1.73h-1.27c-6.94-.48-10.39-1.09-12.08-1.63l-5.5 5c3.25 2.74 12.7 3.34 17.36 3.66 5.05.29 15.67-1.34 18.18-3.85z" class="a8-cls-17" data-color-action="fill" style="fill:inherit" data-name="surface restoration incisal"/><path id="a58_surface_restoration_mesial" d="M47.48 146.65c2.33-3.88 1.62-16.93 0-25.49-.12-.61-.24-1.19-.38-1.76a11.43 11.43 0 0 1-5.71-2.4c1.06 8.45.79 22.1.26 25.15l5.49 4.91a2.28 2.28 0 0 0 .34-.41z" class="a8-cls-17" data-color-action="fill" style="fill:inherit" data-name="surface restoration mesial"/><path id="a58_surface_restoration_facial" d="M37 108.75a14.92 14.92 0 0 1-14.79.56 11.47 11.47 0 0 1-3.41 6.93c-1.22 9-2 22.22-1.78 26 1.68.54 5.13 1.16 12.11 1.64h1.27a40.34 40.34 0 0 0 11.2-1.73c.53-3 .8-16.7-.26-25.16a11.47 11.47 0 0 1-4.34-8.24z" class="a8-cls-12 a8-cls-18" data-color-action="fill" style="fill:inherit" data-name="surface restoration facial"/><path id="a58_surface_restoration_facial_V" d="M37 108.75V108a11.54 11.54 0 0 1 .11-1.52 18.78 18.78 0 0 0-5.59-.91 31 31 0 0 0-9.28 1 10.7 10.7 0 0 1 0 2.7 14.92 14.92 0 0 0 14.76-.52z" class="a8-cls-12 a8-cls-18" data-color-action="fill" style="fill:inherit" data-name="surface restoration facial V"/><path id="a58_surface_restoration_distal" d="M17.07 142.23c-.23-3.77.56-17 1.78-26a11.45 11.45 0 0 1-6.79 3.19c-1.75 9.07-2.73 23.1-1.44 26.49a3.21 3.21 0 0 0 1 1.29l5.5-5z" class="a8-cls-17" data-color-action="fill" style="fill:inherit" data-name="surface restoration distal"/><g id="a58_supra-erupted" class="a8-cls-12"><path d="M29.5 98.87V91.2" class="a8-cls-19" data-color-action="stroke" style="stroke:inherit"/><path d="M33.49 97.71l-3.99 6.9-3.99-6.9h7.98z" class="a8-cls-20" data-color-action="fill" style="fill:inherit"/></g><g id="a58_sub-erupted" class="a8-cls-12"><path d="M29.5 96.94v7.67" class="a8-cls-19" data-color-action="stroke" style="stroke:inherit"/><path d="M25.51 98.11l3.99-6.91 3.99 6.91h-7.98z" class="a8-cls-20" data-color-action="fill" style="fill:inherit"/></g><text id="a58_sealant" class="a8-cls-38" transform="translate(19.7 200.47)" data-color-action="fill" style="fill:inherit">S</text><g id="a58_rotated_mesial" class="a8-cls-12" data-name="rotated mesial"><path d="M4.87 128.18c-3 1.79-2.3 5.46 10.23 5.81 5.3.15 8.95 0 8.95 0L24 137s-1 .07-8.22-.24c-7.62-.32-14-1.83-13.75-6a4 4 0 0 1 2.31-2.92c.15.16.4.27.53.34z" class="a8-cls-16" data-color-action="fill" style="fill:inherit"/><path d="M17.57 129.47v11.89l10.4-5.9-10.4-5.99z" class="a8-cls-16" data-color-action="fill" style="fill:inherit"/></g><g id="a58_rotated_distal" class="a8-cls-12" data-name="rotated distal"><path d="M54.13 128.18c3 1.79 2.3 5.46-10.23 5.81-5.3.15-8.95 0-8.95 0l.07 3s1 .07 8.22-.24c7.62-.32 14-1.83 13.75-6a4 4 0 0 0-2.31-2.92c-.17.17-.42.28-.55.35z" class="a8-cls-16" data-color-action="fill" style="fill:inherit"/><path d="M41.43 129.47v11.89l-10.4-5.9 10.4-5.99z" class="a8-cls-16" data-color-action="fill" style="fill:inherit"/></g><circle id="a58_root_decay" cx="27.58" cy="49.58" r="4.33" class="a8-cls-12 a8-cls-18" data-color-action="fill" style="fill:inherit" data-name="root decay"/><path id="a58_root_canal" d="M26.83 36.33L29.67 102" class="a8-cls-22" data-color-action="stroke" style="stroke:inherit" data-name="root canal"/><path id="a58_root_abrasion" d="M26.21 50.42h3.5v13.83h-3.5z" class="a8-cls-12 a8-cls-24" data-color-action="stroke" style="stroke:inherit" data-name="root abrasion"/><g id="a58_post"><path d="M27.5 82.39h3.14v41.77H27.5z" class="a8-cls-18" data-color-action="fill" style="fill:inherit"/><path d="M28.37 82.39h.47v41.77h-.47z" class="a8-cls-25"/></g><g id="a58_pins"><path d="M25.32 93.72h2.42v23.43h-2.42z" class="a8-cls-18" data-color-action="fill" style="fill:inherit"/><path d="M25.99 93.72h.36v23.43h-.36z" class="a8-cls-25"/><path d="M29.91 93.72h2.42v23.43h-2.42z" class="a8-cls-18" data-color-action="fill" style="fill:inherit"/><path d="M30.57 93.72h.36v23.43h-.36z" class="a8-cls-25"/></g><path id="a58_open_contact_mesial" d="M34.69 100.99l7.5 4.75 7.5-4.75" class="a8-cls-26" data-color-action="stroke" style="stroke:inherit" data-name="open contact mesial"/><path id="a58_open_contact_distal" d="M9.67 100.99l7.5 4.75 7.5-4.75" class="a8-cls-26" data-color-action="stroke" style="stroke:inherit" data-name="open contact distal"/><g id="a58_mesial_drift" class="a8-cls-12" data-name="mesial drift"><path d="M32.59 131.16H20.67" class="a8-cls-27" data-color-action="stroke" style="stroke:inherit"/><path d="M31.43 127.17l6.9 3.99-6.9 3.99v-7.98z" class="a8-cls-16" data-color-action="fill" style="fill:inherit"/></g><path id="a58_lingual_abfraction" d="M28 3.25h3v3h-3z" class="a8-cls-15" data-name="lingual abfraction"/><ellipse id="a58_internal_root_resorption" cx="28.03" cy="63.76" class="a8-cls-12 a8-cls-20" rx="3.98" ry="9.84" transform="rotate(-3.19 28.053 63.857)" data-color-action="fill" style="fill:inherit" data-name="internal root resorption"/><g id="a58_impacted_mesial" class="a8-cls-12" data-name="impacted mesial"><ellipse cx="29.51" cy="91.71" class="a8-cls-27" rx="24.15" ry="67.88" data-color-action="stroke" style="stroke:inherit"/><path d="M18.11 91.71H5.35" class="a8-cls-27" data-color-action="stroke" style="stroke:inherit"/><path d="M16.94 87.73l6.91 3.99-6.91 3.98v-7.97z" class="a8-cls-16" data-color-action="fill" style="fill:inherit"/></g><g id="a58_impacted_distal" class="a8-cls-12" data-name="impacted distal"><ellipse cx="29.5" cy="91.71" class="a8-cls-27" rx="24.15" ry="67.88" data-color-action="stroke" style="stroke:inherit"/><path d="M40.91 91.71h12.76" class="a8-cls-27" data-color-action="stroke" style="stroke:inherit"/><path d="M42.08 95.7l-6.91-3.98 6.91-3.99v7.97z" class="a8-cls-16" data-color-action="fill" style="fill:inherit"/></g><path id="a58_gortex_membranes" d="M2 93.83h55v16.42H2z" class="a8-cls-14" data-color-action="fill" style="fill:inherit" data-name="gortex membranes"/><path id="a58_frenum_pull" d="M18.51 104.58l10.65-6.75 10.66 6.75" class="a8-cls-30" data-color-action="stroke" style="stroke:inherit" data-name="frenum pull"/><path id="a58_external_root_resorption" d="M39.59 77.15c-1-5.85-2.07-11.64-3.22-17a11.76 11.76 0 0 0-3 9.87 10.4 10.4 0 0 0 6.44 8.29zm-19-19.33c-.75 6-1.44 12.55-2 19.14l-.05.61c1.56-.57 5.74-2.71 6.52-9.57S22 58.53 20.55 57.82z" class="a8-cls-12 a8-cls-20" data-color-action="fill" style="fill:inherit" data-name="external root resorption"/><g id="a58_distal_drift" class="a8-cls-12" data-name="distal drift"><path d="M26.41 131.16h11.92" class="a8-cls-27" data-color-action="stroke" style="stroke:inherit"/><path d="M27.57 135.15l-6.9-3.99 6.9-3.99v7.98z" class="a8-cls-16" data-color-action="fill" style="fill:inherit"/></g><path id="a58_three_quarter_crown" d="M10.67 129.07c-.76 7.27-.94 14.54-.06 16.85 1.47 3.85 13 4.58 18.34 5s16.87-1.47 18.52-4.22 1.78-10.37 1.09-17.59z" class="a8-cls-12 a8-cls-13" data-color-action="fill" style="fill:inherit" data-name="three quarter crown"/><path id="a58_crown" d="M47.48 146.65c2.33-3.88 1.62-16.93 0-25.49-2-10.64-7-15.4-16-15.59s-16.5 2-18.7 10.45-3.67 26-2.2 29.89 13 4.58 18.34 5 16.91-1.51 18.56-4.26z" class="a8-cls-21" data-color-action="fill" style="fill:inherit"/><path id="a58_cracked_surface_incisal" d="M28.17 142.84l3.84 3.83H27l5 4.74h-5l3.83 3.83" class="a8-cls-32" data-color-action="stroke" style="stroke:inherit" data-name="cracked surface incisal"/><path id="a58_cracked_surface_mesial" d="M41.34 123.82l3.83 3.83h-5.01l5.01 4.75h-5.01l3.83 3.83" class="a8-cls-32" data-color-action="stroke" style="stroke:inherit" data-name="cracked surface mesial"/><path id="a58_cracked_surface_facial" d="M28.17 123.82l3.84 3.83H27l5 4.75h-5l3.83 3.83" class="a8-cls-32" data-color-action="stroke" style="stroke:inherit" data-name="cracked surface facial"/><path id="a58_cracked_surface_facial_V" d="M28.17 123.82l3.84 3.83H27l5 4.75h-5l3.83 3.83" class="a8-cls-32" data-color-action="stroke" style="stroke:inherit" data-name="cracked surface facial V"/><path id="a58_cracked_surface_distal" d="M13.34 123.82l3.83 3.83h-5l5 4.75h-5l3.83 3.83" class="a8-cls-32" data-color-action="stroke" style="stroke:inherit" data-name="cracked surface distal"/><g id="a58_chipped_surface_incisal" class="a8-cls-12" data-name="chipped surface incisal"><path d="M25.67 144.51l8.33 8.33M34 144.51l-8.33 8.33" class="a8-cls-33" data-color-action="stroke" style="stroke:inherit"/></g><g id="a58_chipped_surface_mesial" class="a8-cls-12" data-name="chipped surface mesial"><path d="M37.83 125.49l8.33 8.34M46.16 125.49l-8.33 8.34" class="a8-cls-33" data-color-action="stroke" style="stroke:inherit"/></g><g id="a58_chipped_surface_facial" class="a8-cls-12" data-name="chipped surface facial"><path d="M25.67 125.49l8.33 8.34M34 125.49l-8.33 8.34" class="a8-cls-33" data-color-action="stroke" style="stroke:inherit"/></g><g id="a58_chipped_surface_facial_V" class="a8-cls-12" data-name="chipped surface facial V"><path d="M25.67 125.49l8.33 8.34M34 125.49l-8.33 8.34" class="a8-cls-33" data-color-action="stroke" style="stroke:inherit"/></g><g id="a58_chipped_surface_distal" class="a8-cls-12" data-name="chipped surface distal"><path d="M11.67 125.49l8.33 8.34M20 125.49l-8.33 8.34" class="a8-cls-33" data-color-action="stroke" style="stroke:inherit"/></g><path id="a58_buccal_abfraction" d="M42.19 106.74s-5.61 4.42-12.53 4.42-12.53-4.42-12.53-4.42 5.61-4.42 12.53-4.42 12.53 4.42 12.53 4.42z" class="a8-cls-14" data-color-action="fill" style="fill:inherit" data-name="buccal abfraction"/><g id="a58_braces"><path d="M22.59 120.97h13.45v18.19H22.59z" class="a8-cls-25"/><path d="M22.59 138.48h13.45v.68H22.59zM22.59 130.21h13.45v1.36H22.59z" class="a8-cls-34" data-color-action="fill" style="fill:inherit"/><path d="M22.59 120.97h13.45v.89H22.59z" class="a8-cls-35" data-color-action="fill" style="fill:inherit"/><rect width="4.11" height="7.94" x="22.3" y="120.99" class="a8-cls-28" rx=".49" ry=".49" data-color-action="fill" style="fill:inherit"/><path d="M25.92 121h-3.13a.49.49 0 0 0-.49.49v5.83a13.14 13.14 0 0 0 4.11 0v-5.83a.49.49 0 0 0-.49-.49z" class="a8-cls-18" data-color-action="fill" style="fill:inherit"/><path d="M26.08 122.39v-1.11a.16.16 0 0 0-.16-.16h-3.13a.16.16 0 0 0-.16.16v1.11z" class="a8-cls-25"/><rect width="4.11" height="7.94" x="32.22" y="120.99" class="a8-cls-28" rx=".49" ry=".49" data-color-action="fill" style="fill:inherit"/><path d="M35.84 121h-3.13a.49.49 0 0 0-.49.49v5.83a13.14 13.14 0 0 0 4.11 0v-5.83a.49.49 0 0 0-.49-.49z" class="a8-cls-18" data-color-action="fill" style="fill:inherit"/><path d="M36 122.39v-1.11a.16.16 0 0 0-.16-.16h-3.13a.16.16 0 0 0-.16.16v1.11z" class="a8-cls-25"/><rect width="4.11" height="7.94" x="22.3" y="131.27" class="a8-cls-28" rx=".49" ry=".49" data-color-action="fill" style="fill:inherit"/><path d="M25.92 131.27h-3.13a.49.49 0 0 0-.49.49v5.83a13.14 13.14 0 0 0 4.11 0v-5.83a.49.49 0 0 0-.49-.49z" class="a8-cls-18" data-color-action="fill" style="fill:inherit"/><path d="M26.08 132.68v-1.11a.16.16 0 0 0-.16-.16h-3.13a.16.16 0 0 0-.16.16v1.11z" class="a8-cls-25"/><rect width="4.11" height="7.94" x="32.22" y="131.27" class="a8-cls-28" rx=".49" ry=".49" data-color-action="fill" style="fill:inherit"/><path d="M35.84 131.27h-3.13a.49.49 0 0 0-.49.49v5.83a13.14 13.14 0 0 0 4.11 0v-5.83a.49.49 0 0 0-.49-.49z" class="a8-cls-18" data-color-action="fill" style="fill:inherit"/><path d="M36 132.68v-1.11a.16.16 0 0 0-.16-.16h-3.13a.16.16 0 0 0-.16.16v1.11z" class="a8-cls-25"/><path d="M8.21 129.38h42.21v1.45H8.21z" class="a8-cls-18" data-color-action="fill" style="fill:inherit"/><path d="M8.21 130.58h42.21v.25H8.21z" class="a8-cls-28" data-color-action="fill" style="fill:inherit"/><path d="M8.21 129.58h42.21v.4H8.21z" class="a8-cls-25"/></g><path id="a58_apicoectomy" d="M36.84 26.14L29.5 37.81l-7.34-11.67h14.68z" class="a8-cls-17" data-color-action="fill" style="fill:inherit"/><circle id="a58_abscess" cx="29.5" cy="31.64" r="6.5" class="a8-cls-37" data-color-action="fill" style="fill:inherit"/><g id="a58_blunted_roots" data-name="blunted roots"><path d="M2 22h55v59.99H2z" class="a8-cls-23"/><path d="M2 82.08h55v2H2z" class="a8-cls-36" data-color-action="fill" style="fill:inherit"/></g><path id="a58_root_amputation" d="M2 21.67h55v83.57H2z" class="a8-cls-23" data-name="root amputation"/><path id="a58_missing_crown" d="M2 106.06h55v53.11H2z" class="a8-cls-23" data-name="missing crown"/><g id="a58_missing_tooth" data-name="missing tooth"><path d="M12.82 116a12.79 12.79 0 0 1 3.53-6.22c.21-9.69 1.08-21.15 2.15-32.84 2.16-23.69 5.5-46.73 8.44-46.58 2.37.12 8.74 22.85 12.65 46.76a266.43 266.43 0 0 1 3.62 33.53c2 2.5 3.4 6 4.26 10.48 1.62 8.56 2.33 21.61 0 25.49-1.65 2.75-13.2 4.58-18.52 4.22s-16.87-1.1-18.34-5 .01-21.38 2.21-29.84z" class="a8-cls-2"/><path d="M43.26 112.73c-.13-9.77-1.51-22.41-3.67-35.58-3.91-23.92-10.29-46.64-12.65-46.76C24 30.24 20.67 53.28 18.5 77c-1.23 13.43-2.2 26.56-2.2 37 0 3.13 27.01 2.25 26.96-1.27z" class="a8-cls-23"/><path d="M28.92 111.46l-6.37.82S22.88 87 23.16 68c.43-30.42 2.84-34.4 3.34-35.11s-1.15 3.24-.57 25.74c.36 13.59 2.99 52.83 2.99 52.83zM37.86 76.11c-1.3-10.3-2.92-20.38-4.52-28.8 2.19 8.37 4.47 19 6.25 29.84 2.16 13.16 3.54 25.81 3.67 35.58 0 .64-.89 1.2-2.36 1.66a354.67 354.67 0 0 0-3.04-38.28zM18.5 77c1.61-17.59 3.86-34.81 6.12-42.46C23 44 21.52 59.79 20.39 75.91c-1 14.25-1.8 28.19-1.82 39.39-1.4-.31-2.26-.74-2.26-1.29-.01-10.48.97-23.62 2.19-37.01z" class="a8-cls-23"/><path d="M47.48 146.65c2.33-3.88 1.62-16.93 0-25.49-2-10.64-7-15.4-16-15.59s-16.5 2-18.7 10.45-3.67 26-2.2 29.89 13 4.58 18.34 5 16.91-1.51 18.56-4.26z" class="a8-cls-23"/><path d="M44.4 121.78c-1-7.09-2.81-11.87-5.65-14.67 4.55 2.17 7.33 6.72 8.73 14.05 1.62 8.56 2.33 21.61 0 25.49a5.24 5.24 0 0 1-2.42 1.69c1.09-6.02.5-18.18-.66-26.56zM12.82 116a12.35 12.35 0 0 1 7.11-8.59c-2 1.85-3.51 4.57-4.25 8.5-1.68 8.76-2.82 26.09-2.1 32.45a5.06 5.06 0 0 1-3-2.44c-1.43-3.85.04-21.46 2.24-29.92zM21.54 150.2c-.07-5.41 0-14.64.56-26.65.52-10.34 1.66-15.25 2.48-17.51a30.41 30.41 0 0 1 3.64-.42 195.66 195.66 0 0 0-1 20.27c-.14 9.72.39 19.53.75 24.91-1.83-.12-4.11-.3-6.43-.6z" class="a8-cls-23"/></g><g id="a58_extracted_tooth" class="a8-msng-cls-10" data-name="extracted tooth"><path d="M9 108.83l41.67 41.66M50.67 108.83L9 150.49" class="a8-msng-cls-11" data-color-action="stroke" style="stroke:inherit"/></g><g id="a58_denture"><path d="M2 23.16h55v135.01H2z" class="a8-cls-23"/><path d="M57 100.22A22.63 22.63 0 0 0 44.78 97c-7.64 0-10 3.22-15.79 3.22S19.15 97 13.2 97A24.26 24.26 0 0 0 2 100.22v57.94h55z" class="a8-cls-31" data-color-action="fill" style="fill:inherit"/><path d="M47.48 146.65c2.33-3.88 1.62-16.93 0-25.49-2-10.64-7-15.4-16-15.59s-16.5 2-18.7 10.45-3.67 26-2.2 29.89 13 4.58 18.34 5 16.91-1.51 18.56-4.26z" class="a8-cls-2"/><path d="M47.48 146.65c2.33-3.88 1.62-16.93 0-25.49-2-10.64-7-15.4-16-15.59s-16.5 2-18.7 10.45-3.67 26-2.2 29.89 13 4.58 18.34 5 16.91-1.51 18.56-4.26z" class="a8-cls-6"/><path d="M44.4 121.78c-1-7.09-2.81-11.87-5.65-14.67 4.55 2.17 7.33 6.72 8.73 14.05 1.62 8.56 2.33 21.61 0 25.49a5.24 5.24 0 0 1-2.42 1.69c1.09-6.02.5-18.18-.66-26.56zM12.82 116a12.35 12.35 0 0 1 7.11-8.59c-2 1.85-3.51 4.57-4.25 8.5-1.68 8.76-2.82 26.09-2.1 32.45a5.06 5.06 0 0 1-3-2.44c-1.43-3.85.04-21.46 2.24-29.92z" class="a8-cls-7"/><path d="M21.54 150.2c-.07-5.41 0-14.64.56-26.65.52-10.34 1.66-15.25 2.48-17.51a30.41 30.41 0 0 1 3.64-.42 195.66 195.66 0 0 0-1 20.27c-.14 9.72.39 19.53.75 24.91-1.83-.12-4.11-.3-6.43-.6z" class="a8-cls-8"/></g><g id="a58_maryland_bridge_pontic" class="a8-cls-12" data-name="maryland bridge pontic"><path d="M2 126.33h55V134H2z" class="a8-cls-20" data-color-action="fill" style="fill:inherit"/><path d="M47.48 146.65c2.33-3.88 1.62-16.93 0-25.49-2-10.64-7-15.4-16-15.59s-16.5 2-18.7 10.45-3.67 26-2.2 29.89 13 4.58 18.34 5 16.91-1.51 18.56-4.26z" class="a8-cls-20" data-color-action="fill" style="fill:inherit"/></g><g id="a58_maryland_bridge_abutment_mesial" data-name="maryland bridge abutment mesial"><path d="M22.02 126.33H57V134H22.02z" class="a8-cls-12 a8-cls-20" data-color-action="fill" style="fill:inherit"/><path d="M12.82 116a12.79 12.79 0 0 1 3.53-6.22c.21-9.69 1.08-21.15 2.15-32.84 2.16-23.69 5.5-46.73 8.44-46.58 2.37.12 8.74 22.85 12.65 46.76a266.43 266.43 0 0 1 3.62 33.53c2 2.5 3.4 6 4.26 10.48 1.62 8.56 2.33 21.61 0 25.49-1.65 2.75-13.2 4.58-18.52 4.22s-16.87-1.1-18.34-5 .01-21.38 2.21-29.84z" class="a8-cls-2"/><path d="M43.26 112.73c-.13-9.77-1.51-22.41-3.67-35.58-3.91-23.92-10.29-46.64-12.65-46.76C24 30.24 20.67 53.28 18.5 77c-1.23 13.43-2.2 26.56-2.2 37 0 3.13 27.01 2.25 26.96-1.27z" class="a8-cls-3"/><path d="M28.92 111.46l-6.37.82S22.88 87 23.16 68c.43-30.42 2.84-34.4 3.34-35.11s-1.15 3.24-.57 25.74c.36 13.59 2.99 52.83 2.99 52.83z" class="a8-cls-4"/><path d="M37.86 76.11c-1.3-10.3-2.92-20.38-4.52-28.8 2.19 8.37 4.47 19 6.25 29.84 2.16 13.16 3.54 25.81 3.67 35.58 0 .64-.89 1.2-2.36 1.66a354.67 354.67 0 0 0-3.04-38.28zM18.5 77c1.61-17.59 3.86-34.81 6.12-42.46C23 44 21.52 59.79 20.39 75.91c-1 14.25-1.8 28.19-1.82 39.39-1.4-.31-2.26-.74-2.26-1.29-.01-10.48.97-23.62 2.19-37.01z" class="a8-cls-5"/><path d="M47.48 146.65c2.33-3.88 1.62-16.93 0-25.49-2-10.64-7-15.4-16-15.59s-16.5 2-18.7 10.45-3.67 26-2.2 29.89 13 4.58 18.34 5 16.91-1.51 18.56-4.26z" class="a8-cls-6"/><path d="M44.4 121.78c-1-7.09-2.81-11.87-5.65-14.67 4.55 2.17 7.33 6.72 8.73 14.05 1.62 8.56 2.33 21.61 0 25.49a5.24 5.24 0 0 1-2.42 1.69c1.09-6.02.5-18.18-.66-26.56zM12.82 116a12.35 12.35 0 0 1 7.11-8.59c-2 1.85-3.51 4.57-4.25 8.5-1.68 8.76-2.82 26.09-2.1 32.45a5.06 5.06 0 0 1-3-2.44c-1.43-3.85.04-21.46 2.24-29.92z" class="a8-cls-7"/><path d="M21.54 150.2c-.07-5.41 0-14.64.56-26.65.52-10.34 1.66-15.25 2.48-17.51a30.41 30.41 0 0 1 3.64-.42 195.66 195.66 0 0 0-1 20.27c-.14 9.72.39 19.53.75 24.91-1.83-.12-4.11-.3-6.43-.6z" class="a8-cls-8"/></g><g id="a58_maryland_bridge_abutment_distal" data-name="maryland bridge abutment distal"><path d="M2 126.33h34.98V134H2z" class="a8-cls-12 a8-cls-20" data-color-action="fill" style="fill:inherit"/><path d="M12.82 116a12.79 12.79 0 0 1 3.53-6.22c.21-9.69 1.08-21.15 2.15-32.84 2.16-23.69 5.5-46.73 8.44-46.58 2.37.12 8.74 22.85 12.65 46.76a266.43 266.43 0 0 1 3.62 33.53c2 2.5 3.4 6 4.26 10.48 1.62 8.56 2.33 21.61 0 25.49-1.65 2.75-13.2 4.58-18.52 4.22s-16.87-1.1-18.34-5 .01-21.38 2.21-29.84z" class="a8-cls-2"/><path d="M43.26 112.73c-.13-9.77-1.51-22.41-3.67-35.58-3.91-23.92-10.29-46.64-12.65-46.76C24 30.24 20.67 53.28 18.5 77c-1.23 13.43-2.2 26.56-2.2 37 0 3.13 27.01 2.25 26.96-1.27z" class="a8-cls-3"/><path d="M28.92 111.46l-6.37.82S22.88 87 23.16 68c.43-30.42 2.84-34.4 3.34-35.11s-1.15 3.24-.57 25.74c.36 13.59 2.99 52.83 2.99 52.83z" class="a8-cls-4"/><path d="M37.86 76.11c-1.3-10.3-2.92-20.38-4.52-28.8 2.19 8.37 4.47 19 6.25 29.84 2.16 13.16 3.54 25.81 3.67 35.58 0 .64-.89 1.2-2.36 1.66a354.67 354.67 0 0 0-3.04-38.28zM18.5 77c1.61-17.59 3.86-34.81 6.12-42.46C23 44 21.52 59.79 20.39 75.91c-1 14.25-1.8 28.19-1.82 39.39-1.4-.31-2.26-.74-2.26-1.29-.01-10.48.97-23.62 2.19-37.01z" class="a8-cls-5"/><path d="M47.48 146.65c2.33-3.88 1.62-16.93 0-25.49-2-10.64-7-15.4-16-15.59s-16.5 2-18.7 10.45-3.67 26-2.2 29.89 13 4.58 18.34 5 16.91-1.51 18.56-4.26z" class="a8-cls-6"/><path d="M44.4 121.78c-1-7.09-2.81-11.87-5.65-14.67 4.55 2.17 7.33 6.72 8.73 14.05 1.62 8.56 2.33 21.61 0 25.49a5.24 5.24 0 0 1-2.42 1.69c1.09-6.02.5-18.18-.66-26.56zM12.82 116a12.35 12.35 0 0 1 7.11-8.59c-2 1.85-3.51 4.57-4.25 8.5-1.68 8.76-2.82 26.09-2.1 32.45a5.06 5.06 0 0 1-3-2.44c-1.43-3.85.04-21.46 2.24-29.92z" class="a8-cls-7"/><path d="M21.54 150.2c-.07-5.41 0-14.64.56-26.65.52-10.34 1.66-15.25 2.48-17.51a30.41 30.41 0 0 1 3.64-.42 195.66 195.66 0 0 0-1 20.27c-.14 9.72.39 19.53.75 24.91-1.83-.12-4.11-.3-6.43-.6z" class="a8-cls-8"/></g><g id="a58_maryland_bridge_abutment" data-name="maryland bridge abutment"><path d="M2 126.33h55V134H2z" class="a8-cls-12 a8-cls-20" data-color-action="fill" style="fill:inherit"/><path d="M12.82 116a12.79 12.79 0 0 1 3.53-6.22c.21-9.69 1.08-21.15 2.15-32.84 2.16-23.69 5.5-46.73 8.44-46.58 2.37.12 8.74 22.85 12.65 46.76a266.43 266.43 0 0 1 3.62 33.53c2 2.5 3.4 6 4.26 10.48 1.62 8.56 2.33 21.61 0 25.49-1.65 2.75-13.2 4.58-18.52 4.22s-16.87-1.1-18.34-5 .01-21.38 2.21-29.84z" class="a8-cls-2"/><path d="M43.26 112.73c-.13-9.77-1.51-22.41-3.67-35.58-3.91-23.92-10.29-46.64-12.65-46.76C24 30.24 20.67 53.28 18.5 77c-1.23 13.43-2.2 26.56-2.2 37 0 3.13 27.01 2.25 26.96-1.27z" class="a8-cls-3"/><path d="M28.92 111.46l-6.37.82S22.88 87 23.16 68c.43-30.42 2.84-34.4 3.34-35.11s-1.15 3.24-.57 25.74c.36 13.59 2.99 52.83 2.99 52.83z" class="a8-cls-4"/><path d="M37.86 76.11c-1.3-10.3-2.92-20.38-4.52-28.8 2.19 8.37 4.47 19 6.25 29.84 2.16 13.16 3.54 25.81 3.67 35.58 0 .64-.89 1.2-2.36 1.66a354.67 354.67 0 0 0-3.04-38.28zM18.5 77c1.61-17.59 3.86-34.81 6.12-42.46C23 44 21.52 59.79 20.39 75.91c-1 14.25-1.8 28.19-1.82 39.39-1.4-.31-2.26-.74-2.26-1.29-.01-10.48.97-23.62 2.19-37.01z" class="a8-cls-5"/><path d="M47.48 146.65c2.33-3.88 1.62-16.93 0-25.49-2-10.64-7-15.4-16-15.59s-16.5 2-18.7 10.45-3.67 26-2.2 29.89 13 4.58 18.34 5 16.91-1.51 18.56-4.26z" class="a8-cls-6"/><path d="M44.4 121.78c-1-7.09-2.81-11.87-5.65-14.67 4.55 2.17 7.33 6.72 8.73 14.05 1.62 8.56 2.33 21.61 0 25.49a5.24 5.24 0 0 1-2.42 1.69c1.09-6.02.5-18.18-.66-26.56zM12.82 116a12.35 12.35 0 0 1 7.11-8.59c-2 1.85-3.51 4.57-4.25 8.5-1.68 8.76-2.82 26.09-2.1 32.45a5.06 5.06 0 0 1-3-2.44c-1.43-3.85.04-21.46 2.24-29.92z" class="a8-cls-7"/><path d="M21.54 150.2c-.07-5.41 0-14.64.56-26.65.52-10.34 1.66-15.25 2.48-17.51a30.41 30.41 0 0 1 3.64-.42 195.66 195.66 0 0 0-1 20.27c-.14 9.72.39 19.53.75 24.91-1.83-.12-4.11-.3-6.43-.6z" class="a8-cls-8"/></g><g id="a58_bridge_abutment_mesial" class="a8-cls-12" data-name="bridge abutment mesial"><path d="M47.48 146.65c2.33-3.88 1.62-16.93 0-25.49-2-10.64-7-15.4-16-15.59s-16.5 2-18.7 10.45-3.67 26-2.2 29.89 13 4.58 18.34 5 16.91-1.51 18.56-4.26z" class="a8-cls-18" data-color-action="fill" style="fill:inherit"/><path d="M22.02 127.33H57V135H22.02z" class="a8-cls-18" data-color-action="fill" style="fill:inherit"/></g><g id="a58_bridge_abutment_distal" class="a8-cls-12" data-name="bridge abutment distal"><path d="M47.48 146.65c2.33-3.88 1.62-16.93 0-25.49-2-10.64-7-15.4-16-15.59s-16.5 2-18.7 10.45-3.67 26-2.2 29.89 13 4.58 18.34 5 16.91-1.51 18.56-4.26z" class="a8-cls-18" data-color-action="fill" style="fill:inherit"/><path d="M2 127.33h34.98V135H2z" class="a8-cls-18" data-color-action="fill" style="fill:inherit"/></g><g id="a58_bridge_abutment" class="a8-cls-12" data-name="bridge abutment"><path d="M47.48 146.65c2.33-3.88 1.62-16.93 0-25.49-2-10.64-7-15.4-16-15.59s-16.5 2-18.7 10.45-3.67 26-2.2 29.89 13 4.58 18.34 5 16.91-1.51 18.56-4.26z" class="a8-cls-18" data-color-action="fill" style="fill:inherit"/><path d="M2 127.33h55V135H2z" class="a8-cls-18" data-color-action="fill" style="fill:inherit"/></g><g id="a58_bridge_pontic" data-name="bridge pontic"><path d="M12.82 116a12.79 12.79 0 0 1 3.53-6.22c.21-9.69 1.08-21.15 2.15-32.84 2.16-23.69 5.5-46.73 8.44-46.58 2.37.12 8.74 22.85 12.65 46.76a266.43 266.43 0 0 1 3.62 33.53c2 2.5 3.4 6 4.26 10.48 1.62 8.56 2.33 21.61 0 25.49-1.65 2.75-13.2 4.58-18.52 4.22s-16.87-1.1-18.34-5 .01-21.38 2.21-29.84z" class="a8-cls-2"/><path d="M43.26 112.73c-.13-9.77-1.51-22.41-3.67-35.58-3.91-23.92-10.29-46.64-12.65-46.76C24 30.24 20.67 53.28 18.5 77c-1.23 13.43-2.2 26.56-2.2 37 0 3.13 27.01 2.25 26.96-1.27z" class="a8-cls-23"/><path d="M28.92 111.46l-6.37.82S22.88 87 23.16 68c.43-30.42 2.84-34.4 3.34-35.11s-1.15 3.24-.57 25.74c.36 13.59 2.99 52.83 2.99 52.83zM37.86 76.11c-1.3-10.3-2.92-20.38-4.52-28.8 2.19 8.37 4.47 19 6.25 29.84 2.16 13.16 3.54 25.81 3.67 35.58 0 .64-.89 1.2-2.36 1.66a354.67 354.67 0 0 0-3.04-38.28zM18.5 77c1.61-17.59 3.86-34.81 6.12-42.46C23 44 21.52 59.79 20.39 75.91c-1 14.25-1.8 28.19-1.82 39.39-1.4-.31-2.26-.74-2.26-1.29-.01-10.48.97-23.62 2.19-37.01z" class="a8-cls-23"/><path d="M47.48 146.65c2.33-3.88 1.62-16.93 0-25.49-2-10.64-7-15.4-16-15.59s-16.5 2-18.7 10.45-3.67 26-2.2 29.89 13 4.58 18.34 5 16.91-1.51 18.56-4.26z" class="a8-cls-6"/><path d="M44.4 121.78c-1-7.09-2.81-11.87-5.65-14.67 4.55 2.17 7.33 6.72 8.73 14.05 1.62 8.56 2.33 21.61 0 25.49a5.24 5.24 0 0 1-2.42 1.69c1.09-6.02.5-18.18-.66-26.56zM12.82 116a12.35 12.35 0 0 1 7.11-8.59c-2 1.85-3.51 4.57-4.25 8.5-1.68 8.76-2.82 26.09-2.1 32.45a5.06 5.06 0 0 1-3-2.44c-1.43-3.85.04-21.46 2.24-29.92z" class="a8-cls-7"/><path d="M21.54 150.2c-.07-5.41 0-14.64.56-26.65.52-10.34 1.66-15.25 2.48-17.51a30.41 30.41 0 0 1 3.64-.42 195.66 195.66 0 0 0-1 20.27c-.14 9.72.39 19.53.75 24.91-1.83-.12-4.11-.3-6.43-.6z" class="a8-cls-8"/><g class="a8-cls-12"><path d="M47.48 146.65c2.33-3.88 1.62-16.93 0-25.49-2-10.64-7-15.4-16-15.59s-16.5 2-18.7 10.45-3.67 26-2.2 29.89 13 4.58 18.34 5 16.91-1.51 18.56-4.26z" class="a8-cls-18" data-color-action="fill" style="fill:inherit"/><path d="M2 127.33h55V135H2z" class="a8-cls-18" data-color-action="fill" style="fill:inherit"/></g></g><g id="a58_implant_mini" data-name="implant mini"><path d="M2.39 22.04h55v137.17h-55z" class="a8-cls-23"/><path d="M29.72 83.07h-.44l-1 8.49v40.84h2.44V91.56l-1-8.49z" class="a8-cls-18" data-color-action="fill" style="fill:inherit"/><path d="M29.42 83.07h-.07l-.4 8.49v40.84h.37V91.56l.1-8.49z" class="a8-cls-25"/><path d="M28.28 131.77h2.44v.63h-2.44z" class="a8-cls-28" data-color-action="fill" style="fill:inherit"/><g class="a8-cls-29"><path d="M28.28 131.77l2.44-1v.63l-2.44 1v-.63zM28.28 130.32l2.44-1v.63l-2.44 1v-.63zM28.28 128.88l2.44-1v.63l-2.44 1v-.63zM28.28 127.43l2.44-1v.63l-2.44 1v-.63zM28.28 125.98l2.44-1v.64l-2.44 1v-.64zM28.28 124.54l2.44-1v.63l-2.44 1v-.63zM28.28 123.09l2.44-1v.64l-2.44 1v-.64zM28.28 121.65l2.44-1v.63l-2.44 1v-.63zM28.28 120.2l2.44-1v.63l-2.44 1.01v-.64zM28.28 118.76l2.44-1v.63l-2.44 1v-.63zM28.28 117.31l2.44-1v.63l-2.44 1v-.63zM28.28 115.87l2.44-1v.63l-2.44 1v-.63zM28.28 114.42l2.44-1v.63l-2.44 1v-.63zM28.28 112.98l2.44-1v.63l-2.44 1v-.63zM28.28 111.53l2.44-1v.63l-2.44 1v-.63zM28.28 110.08l2.44-1v.64l-2.44 1v-.64zM28.28 108.64l2.44-1v.63l-2.44 1v-.63zM28.28 107.19l2.44-1v.64l-2.44 1v-.64zM28.28 105.75l2.44-1v.63l-2.44 1v-.63zM28.28 104.3l2.44-1v.64l-2.44 1v-.64zM28.28 102.86l2.44-1v.63l-2.44 1v-.63zM28.28 101.41l2.44-1v.63l-2.44 1.01v-.64zM28.28 99.97l2.44-1v.63l-2.44 1v-.63zM28.28 98.52l2.44-1v.63l-2.44 1v-.63zM28.28 97.08l2.44-1v.63l-2.44 1v-.63zM28.28 95.63l2.44-1v.63l-2.44 1v-.63zM28.28 94.19l2.44-1v.63l-2.44 1v-.63zM28.28 92.74l2.44-1v.63l-2.44 1v-.63zM28.28 91.56l.03-.28 2.27-.93.07.61-2.37.97v-.37zM28.49 89.76l1.93-.79.07.61-2.08.85.08-.67zM28.67 88.24l1.58-.65.08.61-1.74.71.08-.67zM28.85 86.72l1.24-.5.07.6-1.39.57.08-.67zM29.03 85.21l.9-.37.07.6-1.05.43.08-.66zM29.2 83.69l.57-.23.07.6-.71.29.07-.66z" class="a8-cls-28" data-color-action="fill" style="fill:inherit"/></g><circle cx="29.5" cy="136.27" r="2.24" class="a8-cls-18" data-color-action="fill" style="fill:inherit"/><path d="M27.67 132.06h3.67v3h-3.67z" class="a8-cls-18" data-color-action="fill" style="fill:inherit"/><path d="M28.49 132.06h.55v3h-.55z" class="a8-cls-25"/><path d="M28.7 137.63h-.21a2.32 2.32 0 0 1-.52-1.29 2.37 2.37 0 0 1 .52-1.3H29a2 2 0 0 0-.73 1.37 1.5 1.5 0 0 0 .43 1.22z" class="a8-cls-25"/><path d="M28.28 125.7h2.44v.63h-2.44z" class="a8-cls-28" data-color-action="fill" style="fill:inherit"/><path d="M32.11 132.08h-5.22l.87-5.71h3.48l.87 5.71z" class="a8-cls-18" data-color-action="fill" style="fill:inherit"/><path d="M28.85 132.08h-.79l.48-5.71h.53l-.22 5.71z" class="a8-cls-25"/></g><g id="a58_implant_cylinder" data-name="implant cylinder"><path d="M2 22h55v137.17H2z" class="a8-cls-23"/><path d="M26.17 86.01h6.67v49.33h-6.67zM24.5 135.35h10v3h-10z" class="a8-cls-18" data-color-action="fill" style="fill:inherit"/><path d="M28 86.01h1v49.33h-1zM26.75 135.35h1.5v3h-1.5z" class="a8-cls-25"/><path d="M24.5 82.99h10v3h-10z" class="a8-cls-18" data-color-action="fill" style="fill:inherit"/><path d="M26.75 82.99h1.5v3h-1.5z" class="a8-cls-25"/><path d="M26.17 134.71h6.67v.63h-6.67zM26.17 86.01h6.67v.63h-6.67z" class="a8-cls-28" data-color-action="fill" style="fill:inherit"/><g class="a8-cls-29"><path d="M32.83 87.65l-6.66-1.01v-.63l6.66 1v.64zM32.83 89.09l-6.66-1v-.63l6.66 1v.63zM32.83 90.54l-6.66-1v-.64l6.66 1.01v.63zM32.83 91.98l-6.66-1v-.63l6.66 1v.63zM32.83 93.43l-6.66-1v-.63l6.66 1v.63zM32.83 94.87l-6.66-1v-.63l6.66 1v.63zM32.83 96.32l-6.66-1v-.63l6.66 1v.63zM32.83 97.76l-6.66-1v-.63l6.66 1v.63zM32.83 99.21l-6.66-1v-.63l6.66 1v.63zM32.83 100.66l-6.66-1.01v-.63l6.66 1v.64zM32.83 102.1l-6.66-1v-.63l6.66 1v.63zM32.83 103.55l-6.66-1v-.64l6.66 1v.64zM32.83 104.99l-6.66-1v-.63l6.66 1v.63zM32.83 106.44l-6.66-1v-.64l6.66 1.01v.63zM32.83 107.88l-6.66-1v-.63l6.66 1v.63zM32.83 109.33l-6.66-1v-.64l6.66 1v.64zM32.83 110.77l-6.66-1v-.63l6.66 1v.63zM32.83 112.22l-6.66-1v-.63l6.66 1v.63zM32.83 113.66l-6.66-1v-.63l6.66 1v.63zM32.83 115.11l-6.66-1v-.63l6.66 1v.63zM32.83 116.56l-6.66-1.01v-.63l6.66 1v.64zM32.83 118l-6.66-1v-.63l6.66 1v.63zM32.83 119.45l-6.66-1.01v-.63l6.66 1v.64zM32.83 120.89l-6.66-1v-.63l6.66 1v.63zM32.83 122.34l-6.66-1v-.64l6.66 1v.64zM32.83 123.78l-6.66-1v-.63l6.66 1v.63zM32.83 125.23l-6.66-1v-.64l6.66 1v.64zM32.83 126.67l-6.66-1v-.63l6.66 1v.63zM32.83 128.12l-6.66-1v-.63l6.66 1v.63zM32.83 129.56l-6.66-1v-.63l6.66 1v.63zM32.83 131.01l-6.66-1v-.63l6.66 1v.63zM32.83 132.46l-6.66-1.01v-.63l6.66 1v.64zM32.83 133.9l-6.66-1v-.63l6.66 1v.63zM32.83 135.35l-6.66-1.01v-.63l6.66 1v.64z" class="a8-cls-28" data-color-action="fill" style="fill:inherit"/></g></g><g id="a58_implant_blade" data-name="implant blade"><path d="M2 22h55v137.17H2z" class="a8-cls-23"/><path d="M26.17 86.01h6.67v49.33h-6.67zM24.5 135.35h10v3h-10z" class="a8-cls-18" data-color-action="fill" style="fill:inherit"/><path d="M28 86.01h1v49.33h-1zM26.75 135.35h1.5v3h-1.5z" class="a8-cls-25"/><path d="M26.17 134.71h6.67v.63h-6.67z" class="a8-cls-28" data-color-action="fill" style="fill:inherit"/></g><path id="a58_watch_tooth" d="M8.27 27.73a3.26 3.26 0 0 1 3.22-3.26 3.24 3.24 0 1 1 0 6.47 3.25 3.25 0 0 1-3.22-3.21zm1-5.91L8.39 3.73h6.15l-.8 18.09z" class="a8-cls-11" data-color-action="fill" style="fill:inherit" data-name="watch tooth"/><path id="a58_border" d="M0 0h59v161H0z" class="a8-cls-15"/></defs></g><g class="c8-cls-1" transform="translate(0 217)"><g id="_8C" data-name="#8C"><path d="M47.48 15.08c2.33 3.92 1.62 16.92 0 25.49-2 10.64-7 15.4-16 15.59s-16.5-2-18.7-10.45-3.67-26-2.2-29.89 13-4.58 18.34-5 16.91 1.51 18.56 4.26z" class="c8-cls-2"/><path d="M47.48 15.08c2.33 3.92 1.62 16.92 0 25.49-2 10.64-7 15.4-16 15.59s-16.5-2-18.7-10.45-3.67-26-2.2-29.89 13-4.58 18.34-5 16.91 1.51 18.56 4.26z" class="c8-cls-3"/><path d="M10.18 18.12c2.55-3.26 13.24-4.35 18.36-4.89 5.46-.58 17.53.77 19.34 3.37a5.84 5.84 0 0 1 .46.83 8.31 8.31 0 0 0-.86-2.36c-1.65-2.75-13.2-4.58-18.52-4.21s-16.87 1.1-18.34 5a9.35 9.35 0 0 0-.44 2.26z" class="c8-cls-4"/><path d="M43.47 42.59c.67.83.17 2.5-1.5 5.17s-2.83 6.17-11.17 6-10.33-3-11.5-4.67-3.67-9.67-3-10.17 3.75 7.33 6 8c1.43.42.83-3.92 3.17-2.25 1.06.76.84 5.58 5.42 5.67s5.92-1.33 7.58-2.92c1.31-1.24 4.34-5.67 5-4.83z" class="c8-cls-5"/></g><defs><g id="c58_splinted_crowns" data-name="splinted crowns"><path d="M2 53.09h55v7.67H2z" class="c8-cls-12" data-color-action="fill" style="fill:inherit"/><path d="M47.48 15.08c2.33 3.92 1.62 16.92 0 25.49-2 10.64-7 15.4-16 15.59s-16.5-2-18.7-10.45-3.67-26-2.2-29.89 13-4.58 18.34-5 16.91 1.51 18.56 4.26z" class="c8-cls-2"/><path d="M47.48 15.08c2.33 3.92 1.62 16.92 0 25.49-2 10.64-7 15.4-16 15.59s-16.5-2-18.7-10.45-3.67-26-2.2-29.89 13-4.58 18.34-5 16.91 1.51 18.56 4.26z" class="c8-cls-3"/><path d="M10.18 18.12c2.55-3.26 13.24-4.35 18.36-4.89 5.46-.58 17.53.77 19.34 3.37a5.84 5.84 0 0 1 .46.83 8.31 8.31 0 0 0-.86-2.36c-1.65-2.75-13.2-4.58-18.52-4.21s-16.87 1.1-18.34 5a9.35 9.35 0 0 0-.44 2.26z" class="c8-cls-4"/><path d="M43.47 42.59c.67.83.17 2.5-1.5 5.17s-2.83 6.17-11.17 6-10.33-3-11.5-4.67-3.67-9.67-3-10.17 3.75 7.33 6 8c1.43.42.83-3.92 3.17-2.25 1.06.76.84 5.58 5.42 5.67s5.92-1.33 7.58-2.92c1.31-1.24 4.34-5.67 5-4.83z" class="c8-cls-5"/></g><path id="c58_lingual_V" d="M40.56 53.56a15.71 15.71 0 0 0-10.35-3.7A15.56 15.56 0 0 0 19.35 54c3.31 1.69 7.55 2.23 12.17 2.13a15.83 15.83 0 0 0 9.04-2.57z" class="c8-cls-6" data-color-action="fill" style="fill:inherit" data-name="lingual V"/><ellipse id="c58_mid_lingual" cx="30.08" cy="34.81" class="c8-cls-6" rx="4.85" ry="9.95" data-color-action="fill" style="fill:inherit" data-name="mid lingual"/><path id="c58_mesial" d="M48.79 20.49l-8.44 4.1a21.8 21.8 0 0 1 1.56 6.16c.44 2.7 3.69 3.9 6.39 4.44a74.35 74.35 0 0 0 .49-14.7z" class="c8-cls-6" data-color-action="fill" style="fill:inherit"/><path id="c58_line_angle_4" d="M48.79 20.49a13.69 13.69 0 0 0-1.31-5.41c-.89-1.48-4.66-2.7-8.78-3.46l-3.34 10.1c.7.07 1.33.14 1.85.23a4.33 4.33 0 0 1 3.15 2.64z" class="c8-cls-6" data-color-action="fill" style="fill:inherit" data-name="line angle 4"/><path id="c58_lingual" d="M38.69 11.62a44.3 44.3 0 0 0-9.69-.76c-2.15.15-5.33.36-8.43.8l3.66 10.26a57 57 0 0 1 11.16-.2z" class="c8-cls-6" data-color-action="fill" style="fill:inherit"/><path id="c58_line_angle_3" d="M24.19 21.92l-3.66-10.26c-4.58.67-9 1.86-9.91 4.15a20 20 0 0 0-.62 5.82l7.8 3.29a4.26 4.26 0 0 1 2.68-2.21 18.66 18.66 0 0 1 3.71-.79z" class="c8-cls-6" data-color-action="fill" style="fill:inherit" data-name="line angle 3"/><path id="c58_distal" d="M17.83 24.92L10 21.63a115.94 115.94 0 0 0 1 13.51c2.34-.26 5.23-1.05 5.76-3.33.55-2.59.24-5.08 1.07-6.89z" class="c8-cls-6" data-color-action="fill" style="fill:inherit"/><g id="c58_veneer"><path d="M28 1.25h3v3h-3z" class="c8-cls-7"/><path d="M28 1.25h3v3h-3z" class="c8-cls-7"/><path d="M28 1.25h3v3h-3z" class="c8-cls-7"/></g><g id="c58_tissue_graft" data-name="tissue graft"><path d="M28 1.25h3v3h-3z" class="c8-cls-7"/><path d="M28 1.25h3v3h-3z" class="c8-cls-7"/><path d="M28 1.25h3v3h-3z" class="c8-cls-7"/></g><g id="c58_tipped_lingual" class="c8-cls-8" data-name="tipped lingual"><path d="M30.35 5.93c-1.26-3.37-4.74-3.85-7.69 5.32-.5 1.56-4.42 1.76-3.84 0C20.84 5.15 24.14 1 27.89 2a4.86 4.86 0 0 1 3 3.38c-.2.15-.43.41-.54.55z" class="c8-cls-9" data-color-action="fill" style="fill:inherit"/><path d="M28.27 8.85H15.33l2.94 9.64 10-9.64z" class="c8-cls-9" data-color-action="fill" style="fill:inherit"/></g><g id="c58_tipped_facial" data-name="tipped facial"><path d="M28 1.25h3v3h-3z" class="c8-cls-7"/><path d="M28 1.25h3v3h-3z" class="c8-cls-7"/><path d="M28 1.25h3v3h-3z" class="c8-cls-7"/></g><path id="c58_surface_restoration_mesial" d="M47.48 15.09c2.33 3.91 1.62 16.91 0 25.49-.12.61-.24 1.19-.38 1.76a11.43 11.43 0 0 0-5.71 2.38c1.06-8.45.79-22.1.26-25.15l5.49-4.91a2.28 2.28 0 0 1 .34.43z" class="c8-cls-10" data-color-action="fill" style="fill:inherit" data-name="surface restoration mesial"/><path id="c58_surface_restoration_lingual" d="M37 53a14.92 14.92 0 0 0-14.79-.56 11.47 11.47 0 0 0-3.41-6.93c-1.22-9-2-22.22-1.78-26 1.68-.54 5.13-1.16 12.11-1.64h1.27a40.34 40.34 0 0 1 11.2 1.73c.53 3 .8 16.7-.26 25.16A11.47 11.47 0 0 0 37 53z" class="c8-cls-8 c8-cls-11" data-color-action="fill" style="fill:inherit" data-name="surface restoration lingual"/><path id="c58_surface_restoration_lingual_V" d="M37 53v.75a11.54 11.54 0 0 0 .11 1.52 18.78 18.78 0 0 1-5.59.91 31 31 0 0 1-9.28-1 10.7 10.7 0 0 0 0-2.7A14.92 14.92 0 0 1 37 53z" class="c8-cls-8 c8-cls-11" data-color-action="fill" style="fill:inherit" data-name="surface restoration lingual V"/><path id="c58_surface_restoration_distal" d="M17.07 19.51c-.23 3.77.56 17 1.78 26a11.45 11.45 0 0 0-6.79-3.19c-1.75-9.07-2.73-23.1-1.44-26.49a3.21 3.21 0 0 1 1-1.29l5.5 5z" class="c8-cls-10" data-color-action="fill" style="fill:inherit" data-name="surface restoration distal"/><path id="c58_surface_restoration_incisal" d="M47.13 14.66l-5.49 4.91a40.34 40.34 0 0 0-11.2-1.73h-1.27c-6.94.48-10.39 1.09-12.08 1.63l-5.5-5c3.25-2.74 12.7-3.34 17.36-3.66 5.05-.29 15.67 1.34 18.18 3.85z" class="c8-cls-10" data-color-action="fill" style="fill:inherit" data-name="surface restoration incisal"/><g id="c58_supra-erupted"><path d="M28 1.25h3v3h-3z" class="c8-cls-7"/><path d="M28 1.25h3v3h-3z" class="c8-cls-7"/><path d="M28 1.25h3v3h-3z" class="c8-cls-7"/></g><g id="c58_sub-erupted"><path d="M28 1.25h3v3h-3z" class="c8-cls-7"/><path d="M28 1.25h3v3h-3z" class="c8-cls-7"/><path d="M28 1.25h3v3h-3z" class="c8-cls-7"/></g><g id="c58_sealant"><path d="M28 1.25h3v3h-3z" class="c8-cls-7"/><path d="M28 1.25h3v3h-3z" class="c8-cls-7"/><path d="M28 1.25h3v3h-3z" class="c8-cls-7"/></g><g id="c58_root_decay" data-name="root decay"><path d="M28 1.25h3v3h-3z" class="c8-cls-7"/><path d="M28 1.25h3v3h-3z" class="c8-cls-7"/><path d="M28 1.25h3v3h-3z" class="c8-cls-7"/></g><g id="c58_root_canal" data-name="root canal"><path d="M28 1.25h3v3h-3z" class="c8-cls-7"/><path d="M28 1.25h3v3h-3z" class="c8-cls-7"/><path d="M28 1.25h3v3h-3z" class="c8-cls-7"/></g><g id="c58_root_abrasion" data-name="root abrasion"><path d="M28 1.25h3v3h-3z" class="c8-cls-7"/><path d="M28 1.25h3v3h-3z" class="c8-cls-7"/><path d="M28 1.25h3v3h-3z" class="c8-cls-7"/></g><g id="c58_open_contact_mesial" data-name="open contact mesial"><path d="M28 1.25h3v3h-3z" class="c8-cls-7"/><path d="M28 1.25h3v3h-3z" class="c8-cls-7"/><path d="M28 1.25h3v3h-3z" class="c8-cls-7"/></g><g id="c58_open_contact_distal" data-name="open contact distal"><path d="M28 1.25h3v3h-3z" class="c8-cls-7"/><path d="M28 1.25h3v3h-3z" class="c8-cls-7"/><path d="M28 1.25h3v3h-3z" class="c8-cls-7"/></g><path id="c58_lingual_abfraction" d="M43.41 57.85s-6.23 4.9-13.91 4.9-13.91-4.9-13.91-4.9 6.23-4.9 13.91-4.9 13.91 4.9 13.91 4.9z" class="c8-cls-15" data-color-action="fill" style="fill:inherit" data-name="lingual abfraction"/><g id="c58_internal_root_resorption" data-name="internal root resorption"><path d="M28 1.25h3v3h-3z" class="c8-cls-7"/><path d="M28 1.25h3v3h-3z" class="c8-cls-7"/><path d="M28 1.25h3v3h-3z" class="c8-cls-7"/></g><g id="c58_gortex_membranes" data-name="gortex membranes"><path d="M28 1.25h3v3h-3z" class="c8-cls-7"/><path d="M28 1.25h3v3h-3z" class="c8-cls-7"/><path d="M28 1.25h3v3h-3z" class="c8-cls-7"/></g><g id="c58_frenum_pull" data-name="frenum pull"><path d="M28 1.25h3v3h-3z" class="c8-cls-7"/><path d="M28 1.25h3v3h-3z" class="c8-cls-7"/><path d="M28 1.25h3v3h-3z" class="c8-cls-7"/></g><g id="c58_external_root_resorption" data-name="external root resorption"><path d="M28 1.25h3v3h-3z" class="c8-cls-7"/><path d="M28 1.25h3v3h-3z" class="c8-cls-7"/><path d="M28 1.25h3v3h-3z" class="c8-cls-7"/></g><path id="c58_three_quarter_crown" d="M48.58 32.52c.67-7.17.56-14.66-1.11-17.44S34.27 10.49 29 10.86s-16.87 1.1-18.34 5c-.88 2.3-.71 9.49 0 16.71z" class="c8-cls-8 c8-cls-19" data-color-action="fill" style="fill:inherit" data-name="three quarter crown"/><path id="c58_crown" d="M47.48 15.08c2.33 3.92 1.62 16.92 0 25.49-2 10.64-7 15.4-16 15.59s-16.5-2-18.7-10.45-3.67-26-2.2-29.89 13-4.58 18.34-5 16.91 1.51 18.56 4.26z" class="c8-cls-8 c8-cls-19" data-color-action="fill" style="fill:inherit"/><path id="c58_cracked_surface_mesial" d="M41.34 23.57l3.83 3.83h-5.01l5.01 4.75h-5.01l3.83 3.83" class="c8-cls-20" data-color-action="stroke" style="stroke:inherit" data-name="cracked surface mesial"/><path id="c58_cracked_surface_lingual" d="M28.17 23.57l3.84 3.83H27l5 4.75h-5l3.83 3.83" class="c8-cls-20" data-color-action="stroke" style="stroke:inherit" data-name="cracked surface lingual"/><path id="c58_cracked_surface_lingual_V" d="M28.17 23.57l3.84 3.83H27l5 4.75h-5l3.83 3.83" class="c8-cls-20" data-color-action="stroke" style="stroke:inherit" data-name="cracked surface lingual V"/><path id="c58_cracked_surface_distal" d="M13.34 23.57l3.83 3.83h-5l5 4.75h-5L16 35.98" class="c8-cls-20" data-color-action="stroke" style="stroke:inherit" data-name="cracked surface distal"/><g id="c58_chipped_surface_mesial" class="c8-cls-8" data-name="chipped surface mesial"><path d="M37.83 25.24l8.33 8.34M46.16 25.24l-8.33 8.34" class="c8-cls-21" data-color-action="stroke" style="stroke:inherit"/></g><g id="c58_chipped_surface_lingual" class="c8-cls-8" data-name="chipped surface lingual"><path d="M25.67 25.24L34 33.58M34 25.24l-8.33 8.34" class="c8-cls-21" data-color-action="stroke" style="stroke:inherit"/></g><g id="c58_chipped_surface_lingual_V" class="c8-cls-8" data-name="chipped surface lingual V"><path d="M25.67 25.24L34 33.58M34 25.24l-8.33 8.34" class="c8-cls-21" data-color-action="stroke" style="stroke:inherit"/></g><g id="c58_chipped_surface_distal" class="c8-cls-8" data-name="chipped surface distal"><path d="M11.67 25.24L20 33.58M20 25.24l-8.33 8.34" class="c8-cls-21" data-color-action="stroke" style="stroke:inherit"/></g><g id="c58_buccal_abfraction" data-name="buccal abfraction"><path d="M28 1.25h3v3h-3z" class="c8-cls-7"/><path d="M28 1.25h3v3h-3z" class="c8-cls-7"/><path d="M28 1.25h3v3h-3z" class="c8-cls-7"/></g><g id="c58_braces"><path d="M28 1.25h3v3h-3z" class="c8-cls-7"/><path d="M28 1.25h3v3h-3z" class="c8-cls-7"/><path d="M28 1.25h3v3h-3z" class="c8-cls-7"/></g><g id="c58_apicoectomy"><path d="M28 1.25h3v3h-3z" class="c8-cls-7"/><path d="M28 1.25h3v3h-3z" class="c8-cls-7"/><path d="M28 1.25h3v3h-3z" class="c8-cls-7"/></g><g id="c58_abscess"><path d="M28 1.25h3v3h-3z" class="c8-cls-7"/><path d="M28 1.25h3v3h-3z" class="c8-cls-7"/><path d="M28 1.25h3v3h-3z" class="c8-cls-7"/></g><g id="c58_blunted_roots" data-name="blunted roots"><path d="M28 1.25h3v3h-3z" class="c8-cls-7"/><path d="M28 1.25h3v3h-3z" class="c8-cls-7"/><path d="M28 1.25h3v3h-3z" class="c8-cls-7"/></g><g id="c58_root_amputation" data-name="root amputation"><path d="M28 1.25h3v3h-3z" class="c8-cls-7"/><path d="M28 1.25h3v3h-3z" class="c8-cls-7"/><path d="M28 1.25h3v3h-3z" class="c8-cls-7"/></g><g id="c58_missing_crown" data-name="missing crown"><path d="M28 1.25h3v3h-3z" class="c8-cls-7"/><path d="M28 1.25h3v3h-3z" class="c8-cls-7"/><path d="M28 1.25h3v3h-3z" class="c8-cls-7"/><path d="M2 2.02h55V64H2z" class="c8-cls-13"/></g><g id="c58_missing_tooth" data-name="missing tooth"><path d="M47.48 15.08c2.33 3.92 1.62 16.92 0 25.49-2 10.64-7 15.4-16 15.59s-16.5-2-18.7-10.45-3.67-26-2.2-29.89 13-4.58 18.34-5 16.91 1.51 18.56 4.26z" class="c8-cls-2"/><path d="M47.48 15.08c2.33 3.92 1.62 16.92 0 25.49-2 10.64-7 15.4-16 15.59s-16.5-2-18.7-10.45-3.67-26-2.2-29.89 13-4.58 18.34-5 16.91 1.51 18.56 4.26z" class="c8-cls-13"/><path d="M10.18 18.12c2.55-3.26 13.24-4.35 18.36-4.89 5.46-.58 17.53.77 19.34 3.37a5.84 5.84 0 0 1 .46.83 8.31 8.31 0 0 0-.86-2.36c-1.65-2.75-13.2-4.58-18.52-4.21s-16.87 1.1-18.34 5a9.35 9.35 0 0 0-.44 2.26zM43.47 42.59c.67.83.17 2.5-1.5 5.17s-2.83 6.17-11.17 6-10.33-3-11.5-4.67-3.67-9.67-3-10.17 3.75 7.33 6 8c1.43.42.83-3.92 3.17-2.25 1.06.76.84 5.58 5.42 5.67s5.92-1.33 7.58-2.92c1.31-1.24 4.34-5.67 5-4.83z" class="c8-cls-13"/></g><g id="c58_maryland_bridge_pontic" class="c8-cls-8" data-name="maryland bridge pontic"><path d="M2 28.96h55v7.67H2z" class="c8-cls-14" data-color-action="fill" style="fill:inherit"/><path d="M47.48 15.08c2.33 3.92 1.62 16.92 0 25.49-2 10.64-7 15.4-16 15.59s-16.5-2-18.7-10.45-3.67-26-2.2-29.89 13-4.58 18.34-5 16.91 1.51 18.56 4.26z" class="c8-cls-14" data-color-action="fill" style="fill:inherit"/></g><g id="c58_maryland_bridge_abutment_mesial" class="c8-cls-8" data-name="maryland bridge abutment mesial"><path d="M36.58 28.17H57v7.67H36.58z" class="c8-cls-14" data-color-action="fill" style="fill:inherit"/><ellipse cx="37.81" cy="32" class="c8-cls-14" rx="5.61" ry="12.9" data-color-action="fill" style="fill:inherit"/></g><g id="c58_maryland_bridge_abutment_distal" class="c8-cls-8" data-name="maryland bridge abutment distal"><path d="M2 28.17h20.42v7.67H2z" class="c8-cls-14" data-color-action="fill" style="fill:inherit"/><ellipse cx="21.19" cy="32" class="c8-cls-14" rx="5.61" ry="12.9" data-color-action="fill" style="fill:inherit"/></g><g id="c58_maryland_bridge_abutment" class="c8-cls-8" data-name="maryland bridge abutment"><path d="M36.58 28.17H57v7.67H36.58zM2 28.17h20.42v7.67H2z" class="c8-cls-14" data-color-action="fill" style="fill:inherit"/><ellipse cx="21.19" cy="32" class="c8-cls-14" rx="5.61" ry="12.9" data-color-action="fill" style="fill:inherit"/><ellipse cx="37.81" cy="32" class="c8-cls-14" rx="5.61" ry="12.9" data-color-action="fill" style="fill:inherit"/></g><g id="c58_bridge_abutment_mesial" class="c8-cls-8" data-name="bridge abutment mesial"><path d="M47.48 15.08c2.33 3.92 1.62 16.92 0 25.49-2 10.64-7 15.4-16 15.59s-16.5-2-18.7-10.45-3.67-26-2.2-29.89 13-4.58 18.34-5 16.91 1.51 18.56 4.26z" class="c8-cls-11" data-color-action="fill" style="fill:inherit"/><path d="M22.02 28.74H57v7.67H22.02z" class="c8-cls-11" data-color-action="fill" style="fill:inherit"/></g><g id="c58_bridge_abutment_distal" class="c8-cls-8" data-name="bridge abutment distal"><path d="M47.48 15.08c2.33 3.92 1.62 16.92 0 25.49-2 10.64-7 15.4-16 15.59s-16.5-2-18.7-10.45-3.67-26-2.2-29.89 13-4.58 18.34-5 16.91 1.51 18.56 4.26z" class="c8-cls-11" data-color-action="fill" style="fill:inherit"/><path d="M2 28.74h34.98v7.67H2z" class="c8-cls-11" data-color-action="fill" style="fill:inherit"/></g><g id="c58_bridge_abutment" class="c8-cls-8" data-name="bridge abutment"><path d="M47.48 15.08c2.33 3.92 1.62 16.92 0 25.49-2 10.64-7 15.4-16 15.59s-16.5-2-18.7-10.45-3.67-26-2.2-29.89 13-4.58 18.34-5 16.91 1.51 18.56 4.26z" class="c8-cls-11" data-color-action="fill" style="fill:inherit"/><path d="M2 28.74h55v7.67H2z" class="c8-cls-11" data-color-action="fill" style="fill:inherit"/></g><g id="c58_bridge_pontic" class="c8-cls-8" data-name="bridge pontic"><path d="M47.48 15.08c2.33 3.92 1.62 16.92 0 25.49-2 10.64-7 15.4-16 15.59s-16.5-2-18.7-10.45-3.67-26-2.2-29.89 13-4.58 18.34-5 16.91 1.51 18.56 4.26z" class="c8-cls-11" data-color-action="fill" style="fill:inherit"/><path d="M2 28.74h55v7.67H2z" class="c8-cls-11" data-color-action="fill" style="fill:inherit"/></g><g id="c58_implant_mini" data-name="implant mini"><path d="M2 2.02h55V64H2z" class="c8-cls-13"/><path d="M29.72 66h-.44l-1-8.5V16.67h2.44V57.5l-1 8.5z" class="c8-cls-11" data-color-action="fill" style="fill:inherit"/><path d="M29.42 66h-.07l-.4-8.5V16.67h.37V57.5l.1 8.5z" class="c8-cls-16"/><path d="M28.28 16.67h2.44v.63h-2.44z" class="c8-cls-17" data-color-action="fill" style="fill:inherit"/><g class="c8-cls-18"><path d="M28.28 17.3l2.44 1v-.63l-2.44-1v.63zM28.28 18.75l2.44 1v-.64l-2.44-1v.64zM28.28 20.19l2.44 1v-.63l-2.44-1v.63zM28.28 21.64l2.44 1V22l-2.44-1v.64zM28.28 23.08l2.44 1v-.63l-2.44-1v.63zM28.28 24.53l2.44 1v-.64l-2.44-1v.64zM28.28 25.97l2.44 1v-.63l-2.44-1v.63zM28.28 27.42l2.44 1v-.63l-2.44-1v.63zM28.28 28.86l2.44 1v-.63l-2.44-1v.63zM28.28 30.31l2.44 1v-.63l-2.44-1v.63zM28.28 31.75l2.44 1.01v-.64l-2.44-1v.63zM28.28 33.2l2.44 1v-.63l-2.44-1v.63zM28.28 34.65l2.44 1v-.64l-2.44-1v.64zM28.28 36.09l2.44 1v-.63l-2.44-1v.63zM28.28 37.54l2.44 1v-.64l-2.44-1v.64zM28.28 38.98l2.44 1v-.63l-2.44-1v.63zM28.28 40.43l2.44 1v-.63l-2.44-1.01v.64zM28.28 41.87l2.44 1v-.63l-2.44-1v.63zM28.28 43.32l2.44 1v-.63l-2.44-1v.63zM28.28 44.76l2.44 1v-.63l-2.44-1v.63zM28.28 46.21l2.44 1v-.63l-2.44-1v.63zM28.28 47.65l2.44 1.01v-.64l-2.44-1v.63zM28.28 49.1l2.44 1v-.63l-2.44-1v.63zM28.28 50.55l2.44 1v-.64l-2.44-1v.64zM28.28 51.99l2.44 1v-.63l-2.44-1v.63zM28.28 53.44l2.44 1v-.64l-2.44-1v.64zM28.28 54.88l2.44 1v-.63l-2.44-1v.63zM28.28 56.33l2.44 1v-.63l-2.44-1.01v.64zM28.28 57.5l.03.29 2.27.92.07-.6-2.37-.97v.36zM28.49 59.3l1.93.79.07-.6-2.08-.85.08.66zM28.67 60.82l1.58.65.08-.6-1.74-.71.08.66zM28.85 62.34l1.24.51.07-.6-1.39-.57.08.66zM29.03 63.86l.9.37.07-.6-1.05-.43.08.66zM29.2 65.38l.57.23.07-.6-.71-.3.07.67z" class="c8-cls-17" data-color-action="fill" style="fill:inherit"/></g><circle cx="29.5" cy="12.79" r="2.24" class="c8-cls-11" data-color-action="fill" style="fill:inherit"/><path d="M27.67 14.01h3.67v3h-3.67z" class="c8-cls-11" data-color-action="fill" style="fill:inherit"/><path d="M28.49 14.01h.55v3h-.55z" class="c8-cls-16"/><path d="M28.7 11.44h-.21a2.32 2.32 0 0 0-.49 1.28 2.37 2.37 0 0 0 .52 1.3H29a2 2 0 0 1-.73-1.37 1.5 1.5 0 0 1 .43-1.21z" class="c8-cls-16"/><path d="M28.28 22.74h2.44v.63h-2.44z" class="c8-cls-17" data-color-action="fill" style="fill:inherit"/><path d="M32.11 16.99h-5.22l.87 5.71h3.48l.87-5.71z" class="c8-cls-11" data-color-action="fill" style="fill:inherit"/><path d="M28.85 16.99h-.79l.48 5.71h.53l-.22-5.71z" class="c8-cls-16"/></g><g id="c58_implant_cylinder" data-name="implant cylinder"><path d="M2 2.02h55V64H2z" class="c8-cls-13"/><path d="M26.17 13.67h6.67V63h-6.67zM24.5 63h10v3h-10z" class="c8-cls-11" data-color-action="fill" style="fill:inherit"/><path d="M28 13.67h1V63h-1zM26.75 63h1.5v3h-1.5z" class="c8-cls-16"/><path d="M24.5 10.64h10v3h-10z" class="c8-cls-11" data-color-action="fill" style="fill:inherit"/><path d="M26.75 10.64h1.5v3h-1.5z" class="c8-cls-16"/><path d="M26.17 62.37h6.67V63h-6.67zM26.17 13.67h6.67v.63h-6.67z" class="c8-cls-17" data-color-action="fill" style="fill:inherit"/><g class="c8-cls-18"><path d="M32.83 15.3l-6.66-1v-.63l6.66 1v.63zM32.83 16.75l-6.66-1v-.63l6.66 1v.63zM32.83 18.19l-6.66-1v-.63l6.66 1v.63zM32.83 19.64l-6.66-1v-.63l6.66 1v.63zM32.83 21.08l-6.66-1v-.63l6.66 1v.63zM32.83 22.53l-6.66-1v-.63l6.66 1v.63zM32.83 23.98l-6.66-1v-.64l6.66 1v.64zM32.83 25.42l-6.66-1v-.63l6.66 1v.63zM32.83 26.87l-6.66-1.01v-.63l6.66 1v.64zM32.83 28.31l-6.66-1v-.63l6.66 1v.63zM32.83 29.76l-6.66-1v-.64l6.66 1.01v.63zM32.83 31.2l-6.66-1v-.63l6.66 1v.63zM32.83 32.65l-6.66-1v-.63l6.66 1v.63zM32.83 34.09l-6.66-1v-.63l6.66 1v.63zM32.83 35.54l-6.66-1v-.63l6.66 1v.63zM32.83 36.98l-6.66-1v-.63l6.66 1v.63zM32.83 38.43l-6.66-1v-.63l6.66 1v.63zM32.83 39.88l-6.66-1v-.64l6.66 1v.64zM32.83 41.32l-6.66-1v-.63l6.66 1v.63zM32.83 42.77l-6.66-1v-.64l6.66 1v.64zM32.83 44.21l-6.66-1v-.63l6.66 1v.63zM32.83 45.66l-6.66-1v-.64l6.66 1v.64zM32.83 47.1l-6.66-1v-.63l6.66 1v.63zM32.83 48.55l-6.66-1v-.64l6.66 1.01v.63zM32.83 49.99l-6.66-1v-.63l6.66 1v.63zM32.83 51.44l-6.66-1v-.63l6.66 1v.63zM32.83 52.88l-6.66-1v-.63l6.66 1v.63zM32.83 54.33l-6.66-1v-.63l6.66 1v.63zM32.83 55.77l-6.66-1v-.63l6.66 1v.63zM32.83 57.22l-6.66-1v-.63l6.66 1v.63zM32.83 58.67l-6.66-1.01v-.63l6.66 1v.64zM32.83 60.11l-6.66-1v-.63l6.66 1v.63zM32.83 61.56l-6.66-1v-.64l6.66 1v.64zM32.83 63l-6.66-1v-.63l6.66 1V63z" class="c8-cls-17" data-color-action="fill" style="fill:inherit"/></g></g><g id="c58_implant_blade" data-name="implant blade"><path d="M2 2.02h55V64H2z" class="c8-cls-13"/><path d="M26.17 13.64h6.67v49.33h-6.67zM24.5 10.64h10v3h-10z" class="c8-cls-11" data-color-action="fill" style="fill:inherit"/><path d="M28 13.64h1v49.33h-1zM26.75 10.64h1.5v3h-1.5z" class="c8-cls-16"/><path d="M26.17 13.64h6.67v.63h-6.67z" class="c8-cls-17" data-color-action="fill" style="fill:inherit"/></g><path id="c58_border" d="M0 0h59v66H0z" class="c8-cls-7"/></defs></g></svg>