<svg version="1.1" xmlns="http://www.w3.org/2000/svg" xmlns:xlink="http://www.w3.org/1999/xlink" x="0px" y="0px" viewBox="0 0 59 283" style="enable-background:new 0 0 59 161;" xml:space="preserve"><defs><style type="text/css">.aN-cls-2{fill:#929497;stroke:none;}.aN-cls-3{font-family:'ProximaNova-Semibold',sans-serif;}.aN-cls-4{font-size:15px;}.aN-cls-5{fill:#C5C7C9;stroke:#C5C7C9;stroke-width:5;stroke-miterlimit:10;}.aN-cls-6{fill:#F5D7CF;stroke:none;}.aN-cls-7{fill:#F2C6BC;stroke:none;}.aN-cls-8{fill:#FAE8E3;stroke:none;}.aN-cls-9{fill:#EEEFEF;stroke:none;}.aN-cls-10{fill:#E2E3E4;stroke:none;}.aN-cls-11{fill:#FBFBFB;stroke:none;}.aN-cls-12{opacity:0.55;fill:#3C3D3D;stroke:none;}.aN-cls-13{fill:#FFD403;stroke:none;}.aN-cls-14{fill:none;stroke:#C52636;stroke-width:3.622;stroke-miterlimit:10;}.aN-cls-15{font-family:'ProximaNova-Bold',sans-serif;}.aN-cls-16{font-size:13.6587px;}.aN-cls-17{fill:none;stroke:none;}.aN-cls-18{fill:#28418B;stroke:none;}.aN-cls-19{fill:#787878;stroke:none;}.aN-cls-20{fill:none;stroke:#C52636;stroke-width:2;stroke-miterlimit:10;}.aN-cls-21{fill:#C52636;stroke:none;}.aN-cls-22{fill:none;stroke:#C52636;stroke-width:2;stroke-linecap:round;stroke-miterlimit:10;}.aN-cls-23{fill:#C5C7C9;stroke:none;}.aN-cls-24{fill:#FFF;stroke:none;}.aN-cls-25{fill:none;stroke:#28418B;stroke-width:2;stroke-miterlimit:10;}.aN-cls-26{fill:#FFEF3E;stroke:none;}.aN-cls-27{fill:none;stroke:#C52636;stroke-width:1.25;stroke-miterlimit:10;}.aN-cls-28{fill:#9B9999;stroke:none;}.aN-cls-29{fill:#DBDBDC;stroke:none;}.aN-cls-30{fill:#3C3D3D;stroke:none;}.cN-cls-2{fill:#C4C6C7;stroke:#C4C6C7;stroke-width:5;stroke-miterlimit:10;}.cN-cls-3{fill:#EEEFEF;stroke:none;}.cN-cls-4{fill:#FBFBFB;stroke:none;}.cN-cls-5{fill:#E2E3E4;stroke:none;}.cN-cls-6{opacity:0.55;fill:#3C3D3D;stroke:none;}.cN-cls-7{fill:#28418B;stroke:none;}.cN-cls-8{fill:#787878;stroke:none;}.cN-cls-9{fill:#FFF;stroke:none;}.cN-cls-10{fill:#FFEF3E;stroke:none;}.cN-cls-11{fill:none;stroke:#C52636;stroke-width:1.25;stroke-miterlimit:10;}.cN-cls-12{fill:none;stroke:none;}.aN-cls-31{font-family:'ProximaNova-Semibold',sans-serif;font-size:33px;fill:#28418B;stroke:none;}.aN-msng-cls-1{isolation:isolate;}.aN-msng-cls-2{font-size:15px;fill:#929497;font-family:ProximaNova-Semibold,Proxima Nova;font-weight:700;stroke:none;}.aN-msng-cls-3{fill:#C5C7C9;stroke:#C5C7C9;stroke-width:5px;}.aN-msng-cls-11,.aN-msng-cls-3{stroke-miterlimit:10;}.aN-msng-cls-4{fill:#F5D7CF;stroke:none;}.aN-msng-cls-5{fill:#F2C6BC;stroke:none;}.aN-msng-cls-6{fill:#FAE8E3;stroke:none;}.aN-msng-cls-7{fill:#EEEFEF;stroke:none;}.aN-msng-cls-8{fill:#E2E3E4;stroke:none;}.aN-msng-cls-9{fill:#FBFBFB;stroke:none;}.aN-msng-cls-10{}.aN-msng-cls-11,.aN-msng-cls-12{fill:none;stroke:none;}.aN-msng-cls-11{stroke:#787878;stroke-width:6.25px;}</style></defs><title>ToothNS_Layered</title><g class="aN-cls-1" transform="translate(0 122)"><g id="_Na">	<text transform="matrix(1 0 0 1 18.9399 150.7422)" class="aN-cls-2 aN-cls-3 aN-cls-4">NS</text>	<g>		<path class="aN-cls-5" d="M37.3,34.4c2.9-3.3,2.9-16.9,1.2-19.6c-1.7-2.6-17-3-18.2-2.1c-1.6,1.1-1.5,17.8,1.7,21.5    c0,0,0.1,0.1,0.1,0.1c0.5,5.3,2.4,19.6,2.9,22.8c1.1,7.1,6.7,20.8,9.3,20.4s0.7-13,1-21.6C35.5,44.9,36.5,38.9,37.3,34.4z" />		<path class="aN-cls-6" d="M21.9,32.3c0,1.8,2.5,21,3,24.7c1.1,7.1,6.7,20.8,9.3,20.4s0.7-13,1-21.6c0.4-11.9,1.6-18,2.4-22.6    C38.3,29,21.9,26.1,21.9,32.3z" />		<path class="aN-cls-7" d="M25.5,51.7c-0.6-4.6-1.5-14.5-1.5-16.3c0-1-0.9-2.9-1.7-4.5c-0.2,0.4-0.3,0.9-0.3,1.4c0,1.8,2.5,21,3,24.7    c0.7,5,3.7,13.1,6.3,17.5c-0.7-1.3-1.5-3.2-2.2-5.3C27.9,65.1,26.1,56.4,25.5,51.7z" />		<path class="aN-cls-7" d="M35.1,55.8c0.4-11.9,1.6-18,2.4-22.6c0.1-0.3,0-0.6-0.1-0.9l-1.6,1.3c0,0-1.3,8.3-1.7,13.8    c-0.4,5.5-0.1,15.8,0.4,18.7c0.2,1.4,0.6,2.9,0.9,4.4C35.5,66.2,35,60.5,35.1,55.8z" />		<path class="aN-cls-8" d="M30.9,35.8c-0.3,2.2-0.5,4.7-0.1,14S33,75.5,34,75.5c0.3,0-1.4-17.9-1.6-22.9c-0.2-5,0.4-14.5,0.7-17    C33.5,33,31.2,33.5,30.9,35.8z" />		<path class="aN-cls-9" d="M21.9,34.2c-3.1-3.7-3.2-20.4-1.7-21.5c1.2-0.9,16.5-0.5,18.2,2.1c1.8,2.8,1.8,17.5-1.6,20    C35.1,36.1,24.3,37,21.9,34.2z" />		<g>			<path class="aN-cls-10" d="M23.3,34.5c-2.4-3.6-2.6-19-1.6-22.1c-0.7,0.1-1.2,0.2-1.4,0.3c-1.6,1.1-1.5,17.8,1.7,21.5     c0.5,0.6,1.4,1,2.6,1.3C24,35.2,23.6,34.9,23.3,34.5z" />			<path class="aN-cls-10" d="M38.5,14.8c-0.3-0.5-1-0.8-2-1.2c0.2,0.2,0.3,0.3,0.4,0.5c1.5,3,1.5,18.4-1.3,21c-0.1,0.1-0.3,0.2-0.5,0.3     c0.8-0.2,1.5-0.4,1.8-0.7C40.3,32.3,40.3,17.6,38.5,14.8z" />		</g>		<path class="aN-cls-11" d="M31,24.5c0,3.7-0.4,9.5-0.5,11.6c0.7,0,1.5-0.1,2.2-0.2c0.5-2.5,1.1-8.4,1.1-11.3c0-2.7-0.2-9-0.5-11.7    c-1-0.2-2.1-0.3-3.1-0.4C30.5,14.9,31,20.8,31,24.5z" />	</g></g><defs><g id="aNS_bone_graft" style="">	<g>		<g>							<ellipse transform="matrix(0.1539 -0.9881 0.9881 0.1539 -23.6537 49.9275)" class="aN-cls-14" cx="17.3" cy="38.8" rx="12.7" ry="12.7" data-color-action="stroke" style="stroke:inherit" />			<line class="aN-cls-14" x1="10.3" y1="29.2" x2="24.3" y2="48.4" data-color-action="stroke" style="stroke:inherit" />		</g>		<text transform="matrix(1 0 0 1 6.7031 43.357)" class="aN-cls-15 aN-cls-16">NA</text>	</g></g><g id="aNS_splinted_crowns" style="">	<g>		<g>							<ellipse transform="matrix(0.1539 -0.9881 0.9881 0.1539 -23.6537 49.9275)" class="aN-cls-14" cx="17.3" cy="38.8" rx="12.7" ry="12.7" data-color-action="stroke" style="stroke:inherit" />			<line class="aN-cls-14" x1="10.3" y1="29.2" x2="24.3" y2="48.4" data-color-action="stroke" style="stroke:inherit" />		</g>		<text transform="matrix(1 0 0 1 6.7031 43.357)" class="aN-cls-15 aN-cls-16">NA</text>	</g></g><g id="aNS_facial_V" style="">	<path class="aN-cls-12" d="M34.8,35.5c-2.7,0.6-7.2,0.8-10.2,0c1.4-0.8,3.2-1.3,5.1-1.3C31.6,34.2,33.3,34.7,34.8,35.5z" data-color-action="fill" style="fill:inherit" /></g><g id="aNS_mid_facial" style="">	<ellipse class="aN-cls-12" cx="29.6" cy="26.4" rx="3" ry="6.1" data-color-action="fill" style="fill:inherit" /></g><g id="aNS_mesial" style="">	<path class="aN-cls-12" d="M19.3,18.9l2.7,1.6c-0.6,1.7-0.3,4-0.6,6.4c-0.1,1-0.6,1.6-1.3,2.1C19.5,25.9,19.3,22.1,19.3,18.9z" data-color-action="fill" style="fill:inherit" /></g><g id="aNS_line_angle_2" style="">	<path class="aN-cls-12" d="M24.8,12.2l1.6,5.8c-1,0.1-1.8,0.3-2.5,0.6c-1,0.4-1.6,1.1-1.9,2l-2.7-1.6c0.1-3.2,0.4-5.8,1-6.2   C20.7,12.4,22.5,12.2,24.8,12.2z" data-color-action="fill" style="fill:inherit" /></g><g id="aNS_facial" style="">	<path class="aN-cls-12" d="M34.9,13.2l-1.2,5.2c-1.9-0.4-4.9-0.6-7.3-0.4l-1.6-5.8C27.9,12.2,32,12.5,34.9,13.2z" data-color-action="fill" style="fill:inherit" /></g><g id="aNS_line_angle_1" style="">	<path class="aN-cls-12" d="M38.5,14.8c0.5,0.8,0.8,2.5,1,4.5l-2.7,1.8c-0.4-1.2-1-2.1-1.9-2.4c-0.3-0.1-0.7-0.2-1.2-0.3l1.2-5.2   C36.7,13.6,38.1,14.1,38.5,14.8z" data-color-action="fill" style="fill:inherit" /></g><g id="aNS_distal" style="">	<path class="aN-cls-12" d="M37.8,26.4c-0.2-1.5-0.4-3.6-1-5.3l2.7-1.8c0.3,2.9,0.2,6.6-0.3,9.7C38.5,28.4,37.9,27.6,37.8,26.4z" data-color-action="fill" style="fill:inherit" /></g><g id="aNS_veneer" style="">	<g>		<g>							<ellipse transform="matrix(0.1539 -0.9881 0.9881 0.1539 -23.6537 49.9275)" class="aN-cls-14" cx="17.3" cy="38.8" rx="12.7" ry="12.7" data-color-action="stroke" style="stroke:inherit" />			<line class="aN-cls-14" x1="10.3" y1="29.2" x2="24.3" y2="48.4" data-color-action="stroke" style="stroke:inherit" />		</g>		<text transform="matrix(1 0 0 1 6.7031 43.357)" class="aN-cls-15 aN-cls-16">NA</text>	</g></g><g id="aNS_tissue_graft" style="">	<g>		<g>							<ellipse transform="matrix(0.1539 -0.9881 0.9881 0.1539 -23.6537 49.9275)" class="aN-cls-14" cx="17.3" cy="38.8" rx="12.7" ry="12.7" data-color-action="stroke" style="stroke:inherit" />			<line class="aN-cls-14" x1="10.3" y1="29.2" x2="24.3" y2="48.4" data-color-action="stroke" style="stroke:inherit" />		</g>		<text transform="matrix(1 0 0 1 6.7031 43.357)" class="aN-cls-15 aN-cls-16">NA</text>	</g></g><g id="aNS_tipped_lingual" style="">	<rect x="28" y="154.8" transform="matrix(-1 -4.486867e-11 4.486867e-11 -1 59 312.5)" class="aN-cls-17" width="3" height="3" /></g><g id="aNS_tipped_facial" style="">	<g>		<path class="aN-cls-18" d="M33.9,8.9c-1.2-3.2-4.5-3.6-7.2,5c-0.5,1.5-4.2,1.7-3.6,0c1.9-5.7,5-9.6,8.5-8.7c1.2,0.3,2.3,1.6,2.8,3.2    C34.2,8.6,34,8.8,33.9,8.9z" data-color-action="fill" style="fill:inherit" />		<polygon class="aN-cls-18" points="32,11.7 19.8,11.7 22.6,20.7   " data-color-action="fill" style="fill:inherit" />	</g></g><g id="aNS_surface_restoration_mesial" style="">	<path class="aN-cls-19" d="M25.4,18.2c0,0-0.1,0-0.1,0c-0.1,2.3,0.4,8.8,1,14.2c-1.2-3.1-3.6-5.5-6.6-6.7c-0.6-5.7-0.3-12.1,0.6-13   L25.4,18.2z" data-color-action="fill" style="fill:inherit" /></g><g id="aNS_surface_restoration_facial" style="">	<g>		<path class="aN-cls-19" d="M26.3,32.6C26.3,32.5,26.3,32.5,26.3,32.6c-0.6-5.6-1.1-12-1-14.3c3.4,0,6.4,0.4,8.2,0.8    c0.2,1.7,0.1,7.6-0.3,12.7c-0.1,0.3-0.2,0.6-0.3,1c-1.1-0.4-2.3-0.5-3.5-0.5C28.3,32.1,27.3,32.3,26.3,32.6z" data-color-action="fill" style="fill:inherit" />			</g></g><g id="aNS_surface_restoration_facial_V" style="">	<g>				<path class="aN-cls-19" d="M27,35.9c-0.1-1.2-0.3-2.3-0.7-3.4c1-0.3,2-0.4,3.1-0.4c1.2,0,2.4,0.2,3.5,0.5c-0.3,1-0.5,2.1-0.5,3.2    C30.7,36.1,28.8,36.1,27,35.9z" data-color-action="fill" style="fill:inherit" />	</g></g><g id="aNS_surface_restoration_distal" style="">	<path class="aN-cls-19" d="M38.5,14.8c0.9,1.5,1.4,6.1,1.1,10.5c-2.9,1.2-5.2,3.5-6.4,6.4c0.3-5.1,0.5-10.9,0.3-12.6l4.7-4.6   C38.3,14.6,38.4,14.7,38.5,14.8z" data-color-action="fill" style="fill:inherit" /></g><g id="aNS_surface_restoration_incisal" style="">	<path class="aN-cls-19" d="M20.3,12.7c1.2-0.9,15.2-0.5,17.9,1.8L33.5,19c0,0,0,0,0,0c-1.8-0.4-4.8-0.7-8.1-0.8L20.3,12.7   C20.3,12.7,20.3,12.7,20.3,12.7z" data-color-action="fill" style="fill:inherit" /></g><g id="aNS_supra-erupted" style="">	<g>		<g>							<ellipse transform="matrix(0.1539 -0.9881 0.9881 0.1539 -23.6537 49.9275)" class="aN-cls-14" cx="17.3" cy="38.8" rx="12.7" ry="12.7" data-color-action="stroke" style="stroke:inherit" />			<line class="aN-cls-14" x1="10.3" y1="29.2" x2="24.3" y2="48.4" data-color-action="stroke" style="stroke:inherit" />		</g>		<text transform="matrix(1 0 0 1 6.7031 43.357)" class="aN-cls-15 aN-cls-16">NA</text>	</g></g><g id="aNS_sub-erupted" style="">	<g>		<g>			<line class="aN-cls-20" x1="29.5" y1="44.8" x2="29.5" y2="37.9" data-color-action="stroke" style="stroke:inherit" />			<g>				<polygon class="aN-cls-21" points="33.5,43.6 29.5,50.5 25.5,43.6     " data-color-action="fill" style="fill:inherit" />			</g>		</g>	</g></g><g id="aNS_sealant" style=""><text class="aN-cls-31" transform="matrix(1 0 0 1 19.7 -18.45)" data-color-action="fill" style="fill:inherit">S</text></g><g id="aNS_rotated_mesial" style="">	<g>		<path class="aN-cls-18" d="M48.3,28c2.8-1.7,2.2-5.1-9.6-5.5c-5-0.1-8.4,0-8.4,0l0.1-2.8c0,0,0.9-0.1,7.7,0.2    c7.2,0.3,13.2,1.7,12.9,5.6c-0.1,1-1,2.1-2.2,2.7C48.6,28.2,48.4,28,48.3,28z" data-color-action="fill" style="fill:inherit" />		<polygon class="aN-cls-18" points="36.3,26.8 36.3,15.6 26.6,21.1   " data-color-action="fill" style="fill:inherit" />	</g></g><g id="aNS_rotated_distal" style="">	<g>		<path class="aN-cls-18" d="M10.4,28c-2.8-1.7-2.2-5.1,9.6-5.5c5-0.1,8.4,0,8.4,0l-0.1-2.8c0,0-0.9-0.1-7.7,0.2    c-7.2,0.3-13.2,1.7-12.9,5.6c0.1,1,1,2.1,2.2,2.7C10.1,28.2,10.3,28,10.4,28z" data-color-action="fill" style="fill:inherit" />		<polygon class="aN-cls-18" points="22.4,26.8 22.4,15.6 32.2,21.1   " data-color-action="fill" style="fill:inherit" />	</g></g><g id="aNS_root_tips" style="">	<g>		<g>							<ellipse transform="matrix(0.1539 -0.9881 0.9881 0.1539 -23.6537 49.9275)" class="aN-cls-14" cx="17.3" cy="38.8" rx="12.7" ry="12.7" data-color-action="stroke" style="stroke:inherit" />			<line class="aN-cls-14" x1="10.3" y1="29.2" x2="24.3" y2="48.4" data-color-action="stroke" style="stroke:inherit" />		</g>		<text transform="matrix(1 0 0 1 6.7031 43.357)" class="aN-cls-15 aN-cls-16">NA</text>	</g></g><g id="aNS_root_decay" style="">	<g>		<g>							<ellipse transform="matrix(0.1539 -0.9881 0.9881 0.1539 -23.6537 49.9275)" class="aN-cls-14" cx="17.3" cy="38.8" rx="12.7" ry="12.7" data-color-action="stroke" style="stroke:inherit" />			<line class="aN-cls-14" x1="10.3" y1="29.2" x2="24.3" y2="48.4" data-color-action="stroke" style="stroke:inherit" />		</g>		<text transform="matrix(1 0 0 1 6.7031 43.357)" class="aN-cls-15 aN-cls-16">NA</text>	</g></g><g id="aNS_root_canal" style="">	<line class="aN-cls-22" x1="33" y1="73" x2="29" y2="38.1" data-color-action="stroke" style="stroke:inherit" /></g><g id="aNS_root_abrasion" style="">	<g>		<g>							<ellipse transform="matrix(0.1539 -0.9881 0.9881 0.1539 -23.6537 49.9275)" class="aN-cls-14" cx="17.3" cy="38.8" rx="12.7" ry="12.7" data-color-action="stroke" style="stroke:inherit" />			<line class="aN-cls-14" x1="10.3" y1="29.2" x2="24.3" y2="48.4" data-color-action="stroke" style="stroke:inherit" />		</g>		<text transform="matrix(1 0 0 1 6.7031 43.357)" class="aN-cls-15 aN-cls-16">NA</text>	</g></g><g id="aNS_pins" style="">	<g>		<g>							<rect x="30.7" y="24.9" transform="matrix(-1 -4.481272e-11 4.481272e-11 -1 63.6213 71.9022)" class="aN-cls-19" width="2.3" height="22" data-color-action="fill" style="fill:inherit" />							<rect x="32" y="24.9" transform="matrix(-1 -4.267887e-11 4.267887e-11 -1 64.3037 71.9022)" class="aN-cls-23" width="0.3" height="22" />		</g>		<g>							<rect x="26.4" y="24.9" transform="matrix(-1 -4.521284e-11 4.521284e-11 -1 55.0074 71.9022)" class="aN-cls-19" width="2.3" height="22" data-color-action="fill" style="fill:inherit" />							<rect x="27.7" y="24.9" transform="matrix(-1 -4.534651e-11 4.534651e-11 -1 55.6899 71.9022)" class="aN-cls-23" width="0.3" height="22" />		</g>	</g></g><g id="aNS_post" style="">	<g>		<g>							<ellipse transform="matrix(0.1539 -0.9881 0.9881 0.1539 -23.6537 49.9275)" class="aN-cls-14" cx="17.3" cy="38.8" rx="12.7" ry="12.7" data-color-action="stroke" style="stroke:inherit" />			<line class="aN-cls-14" x1="10.3" y1="29.2" x2="24.3" y2="48.4" data-color-action="stroke" style="stroke:inherit" />		</g>		<text transform="matrix(1 0 0 1 6.7031 43.357)" class="aN-cls-15 aN-cls-16">NA</text>	</g></g><g id="aNS_open_contact_mesial" style="">	<g>		<g>							<ellipse transform="matrix(0.1539 -0.9881 0.9881 0.1539 -23.6537 49.9275)" class="aN-cls-14" cx="17.3" cy="38.8" rx="12.7" ry="12.7" data-color-action="stroke" style="stroke:inherit" />			<line class="aN-cls-14" x1="10.3" y1="29.2" x2="24.3" y2="48.4" data-color-action="stroke" style="stroke:inherit" />		</g>		<text transform="matrix(1 0 0 1 6.7031 43.357)" class="aN-cls-15 aN-cls-16">NA</text>	</g></g><g id="aNS_open_contact_distal" style="">	<g>		<g>							<ellipse transform="matrix(0.1539 -0.9881 0.9881 0.1539 -23.6537 49.9275)" class="aN-cls-14" cx="17.3" cy="38.8" rx="12.7" ry="12.7" data-color-action="stroke" style="stroke:inherit" />			<line class="aN-cls-14" x1="10.3" y1="29.2" x2="24.3" y2="48.4" data-color-action="stroke" style="stroke:inherit" />		</g>		<text transform="matrix(1 0 0 1 6.7031 43.357)" class="aN-cls-15 aN-cls-16">NA</text>	</g></g><g id="aNS_mesial_drift" style="">	<g>		<g>			<line class="aN-cls-25" x1="26.9" y1="24.2" x2="37.8" y2="24.2" data-color-action="stroke" style="stroke:inherit" />			<g>				<polygon class="aN-cls-18" points="28.1,28.2 21.2,24.2 28.1,20.2     " data-color-action="fill" style="fill:inherit" />			</g>		</g>	</g></g><g id="aNS_lingual_abfraction" style="">	<g>		<g>							<ellipse transform="matrix(0.1539 -0.9881 0.9881 0.1539 -23.6537 49.9275)" class="aN-cls-14" cx="17.3" cy="38.8" rx="12.7" ry="12.7" data-color-action="stroke" style="stroke:inherit" />			<line class="aN-cls-14" x1="10.3" y1="29.2" x2="24.3" y2="48.4" data-color-action="stroke" style="stroke:inherit" />		</g>		<text transform="matrix(1 0 0 1 6.7031 43.357)" class="aN-cls-15 aN-cls-16">NA</text>	</g></g><g id="aNS_internal_root_resorption" style="">	<g>		<g>							<ellipse transform="matrix(0.1539 -0.9881 0.9881 0.1539 -23.6537 49.9275)" class="aN-cls-14" cx="17.3" cy="38.8" rx="12.7" ry="12.7" data-color-action="stroke" style="stroke:inherit" />			<line class="aN-cls-14" x1="10.3" y1="29.2" x2="24.3" y2="48.4" data-color-action="stroke" style="stroke:inherit" />		</g>		<text transform="matrix(1 0 0 1 6.7031 43.357)" class="aN-cls-15 aN-cls-16">NA</text>	</g></g><g id="aNS_impacted_mesial" style="">	<g>		<g>							<ellipse transform="matrix(0.1539 -0.9881 0.9881 0.1539 -23.6537 49.9275)" class="aN-cls-14" cx="17.3" cy="38.8" rx="12.7" ry="12.7" data-color-action="stroke" style="stroke:inherit" />			<line class="aN-cls-14" x1="10.3" y1="29.2" x2="24.3" y2="48.4" data-color-action="stroke" style="stroke:inherit" />		</g>		<text transform="matrix(1 0 0 1 6.7031 43.357)" class="aN-cls-15 aN-cls-16">NA</text>	</g></g><g id="aNS_impacted_distal" style="">	<g>		<g>							<ellipse transform="matrix(0.1539 -0.9881 0.9881 0.1539 -23.6537 49.9275)" class="aN-cls-14" cx="17.3" cy="38.8" rx="12.7" ry="12.7" data-color-action="stroke" style="stroke:inherit" />			<line class="aN-cls-14" x1="10.3" y1="29.2" x2="24.3" y2="48.4" data-color-action="stroke" style="stroke:inherit" />		</g>		<text transform="matrix(1 0 0 1 6.7031 43.357)" class="aN-cls-15 aN-cls-16">NA</text>	</g></g><g id="aNS_gortex_membranes" style="">	<g>		<g>							<ellipse transform="matrix(0.1539 -0.9881 0.9881 0.1539 -23.6537 49.9275)" class="aN-cls-14" cx="17.3" cy="38.8" rx="12.7" ry="12.7" data-color-action="stroke" style="stroke:inherit" />			<line class="aN-cls-14" x1="10.3" y1="29.2" x2="24.3" y2="48.4" data-color-action="stroke" style="stroke:inherit" />		</g>		<text transform="matrix(1 0 0 1 6.7031 43.357)" class="aN-cls-15 aN-cls-16">NA</text>	</g></g><g id="aNS_frenum_pull" style="">	<g>		<g>							<ellipse transform="matrix(0.1539 -0.9881 0.9881 0.1539 -23.6537 49.9275)" class="aN-cls-14" cx="17.3" cy="38.8" rx="12.7" ry="12.7" data-color-action="stroke" style="stroke:inherit" />			<line class="aN-cls-14" x1="10.3" y1="29.2" x2="24.3" y2="48.4" data-color-action="stroke" style="stroke:inherit" />		</g>		<text transform="matrix(1 0 0 1 6.7031 43.357)" class="aN-cls-15 aN-cls-16">NA</text>	</g></g><g id="aNS_external_root_resorption" style="">	<g>		<g>							<ellipse transform="matrix(0.1539 -0.9881 0.9881 0.1539 -23.6537 49.9275)" class="aN-cls-14" cx="17.3" cy="38.8" rx="12.7" ry="12.7" data-color-action="stroke" style="stroke:inherit" />			<line class="aN-cls-14" x1="10.3" y1="29.2" x2="24.3" y2="48.4" data-color-action="stroke" style="stroke:inherit" />		</g>		<text transform="matrix(1 0 0 1 6.7031 43.357)" class="aN-cls-15 aN-cls-16">NA</text>	</g></g><g id="aNS_diastema_mesial" style="">	<g>		<g>							<ellipse transform="matrix(0.1539 -0.9881 0.9881 0.1539 -23.6537 49.9275)" class="aN-cls-14" cx="17.3" cy="38.8" rx="12.7" ry="12.7" data-color-action="stroke" style="stroke:inherit" />			<line class="aN-cls-14" x1="10.3" y1="29.2" x2="24.3" y2="48.4" data-color-action="stroke" style="stroke:inherit" />		</g>		<text transform="matrix(1 0 0 1 6.7031 43.357)" class="aN-cls-15 aN-cls-16">NA</text>	</g></g><g id="aNS_diastema_distal" style="">	<g>		<g>							<ellipse transform="matrix(0.1539 -0.9881 0.9881 0.1539 -23.6537 49.9275)" class="aN-cls-14" cx="17.3" cy="38.8" rx="12.7" ry="12.7" data-color-action="stroke" style="stroke:inherit" />			<line class="aN-cls-14" x1="10.3" y1="29.2" x2="24.3" y2="48.4" data-color-action="stroke" style="stroke:inherit" />		</g>		<text transform="matrix(1 0 0 1 6.7031 43.357)" class="aN-cls-15 aN-cls-16">NA</text>	</g></g><g id="aNS_distal_drift" style="">	<g>		<g>			<line class="aN-cls-25" x1="32.1" y1="24.2" x2="21.2" y2="24.2" data-color-action="stroke" style="stroke:inherit" />			<g>				<polygon class="aN-cls-18" points="30.9,20.2 37.8,24.2 30.9,28.2     " data-color-action="fill" style="fill:inherit" />			</g>		</g>	</g></g><g id="aNS_three_quarter_crown" style="">	<g>		<g>							<ellipse transform="matrix(0.1539 -0.9881 0.9881 0.1539 -23.6537 49.9275)" class="aN-cls-14" cx="17.3" cy="38.8" rx="12.7" ry="12.7" data-color-action="stroke" style="stroke:inherit" />			<line class="aN-cls-14" x1="10.3" y1="29.2" x2="24.3" y2="48.4" data-color-action="stroke" style="stroke:inherit" />		</g>		<text transform="matrix(1 0 0 1 6.7031 43.357)" class="aN-cls-15 aN-cls-16">NA</text>	</g></g><g id="aNS_crown" style="">	<path class="aN-cls-26" d="M21.9,34.2c-3.1-3.7-3.2-20.4-1.7-21.5c1.2-0.9,16.5-0.5,18.2,2.1c1.8,2.8,1.8,17.5-1.6,20   C35.1,36.1,24.3,37,21.9,34.2z" data-color-action="fill" style="fill:inherit" /></g><g id="aNS_cracked_surface_incisal" style="">	<polyline class="aN-cls-27" points="30.2,20.5 26.4,16.7 31.4,16.7 26.4,11.9 31.4,11.9 27.5,8.1  " data-color-action="stroke" style="stroke:inherit" /></g><g id="aNS_cracked_surface_distal" style="">	<polyline class="aN-cls-27" points="38.9,32.2 35.1,28.3 40.1,28.3 35.1,23.6 40.1,23.6 36.2,19.8  " data-color-action="stroke" style="stroke:inherit" /></g><g id="aNS_cracked_surface_facial" style="">	<polyline class="aN-cls-27" points="30.2,32.2 26.4,28.3 31.4,28.3 26.4,23.6 31.4,23.6 27.5,19.8  " data-color-action="stroke" style="stroke:inherit" /></g><g id="aNS_cracked_surface_facial_V" style="">	<polyline class="aN-cls-27" points="30.2,32.2 26.4,28.3 31.4,28.3 26.4,23.6 31.4,23.6 27.5,19.8  " data-color-action="stroke" style="stroke:inherit" /></g><g id="aNS_cracked_surface_mesial" style="">	<polyline class="aN-cls-27" points="22,32.2 18.1,28.3 23.1,28.3 18.1,23.6 23.1,23.6 19.3,19.8  " data-color-action="stroke" style="stroke:inherit" /></g><g id="aNS_chipped_surface_incisal" style="">	<g>		<line class="aN-cls-27" x1="25" y1="18.8" x2="33.4" y2="10.5" data-color-action="stroke" style="stroke:inherit" />		<line class="aN-cls-27" x1="33.4" y1="18.8" x2="25" y2="10.5" data-color-action="stroke" style="stroke:inherit" />	</g></g><g id="aNS_chipped_surface_distal" style="">	<g>		<line class="aN-cls-27" x1="33.4" y1="30.5" x2="41.7" y2="22.2" data-color-action="stroke" style="stroke:inherit" />		<line class="aN-cls-27" x1="41.7" y1="30.5" x2="33.4" y2="22.2" data-color-action="stroke" style="stroke:inherit" />	</g></g><g id="aNS_chipped_surface_facial" style="">	<g>		<line class="aN-cls-27" x1="25" y1="30.5" x2="33.4" y2="22.2" data-color-action="stroke" style="stroke:inherit" />		<line class="aN-cls-27" x1="33.4" y1="30.5" x2="25" y2="22.2" data-color-action="stroke" style="stroke:inherit" />	</g></g><g id="aNS_chipped_surface_facial_V" style="">	<g>		<line class="aN-cls-27" x1="25" y1="30.5" x2="33.4" y2="22.2" data-color-action="stroke" style="stroke:inherit" />		<line class="aN-cls-27" x1="33.4" y1="30.5" x2="25" y2="22.2" data-color-action="stroke" style="stroke:inherit" />	</g></g><g id="aNS_chipped_surface_mesial" style="">	<g>		<line class="aN-cls-27" x1="16.6" y1="30.5" x2="25" y2="22.2" data-color-action="stroke" style="stroke:inherit" />		<line class="aN-cls-27" x1="25" y1="30.5" x2="16.6" y2="22.2" data-color-action="stroke" style="stroke:inherit" />	</g></g><g id="aNS_buccal_abfraction" style="">	<g>		<g>							<ellipse transform="matrix(0.1539 -0.9881 0.9881 0.1539 -23.6537 49.9275)" class="aN-cls-14" cx="17.3" cy="38.8" rx="12.7" ry="12.7" data-color-action="stroke" style="stroke:inherit" />			<line class="aN-cls-14" x1="10.3" y1="29.2" x2="24.3" y2="48.4" data-color-action="stroke" style="stroke:inherit" />		</g>		<text transform="matrix(1 0 0 1 6.7031 43.357)" class="aN-cls-15 aN-cls-16">NA</text>	</g></g><g id="aNS_braces" style="">	<g>		<g>							<rect x="22" y="14.8" transform="matrix(-1 -4.489399e-11 4.489399e-11 -1 57.3758 47.8657)" class="aN-cls-23" width="13.5" height="18.2" />							<rect x="22" y="14.8" transform="matrix(-1 -4.489399e-11 4.489399e-11 -1 57.3758 30.3567)" class="aN-cls-28" width="13.5" height="0.7" data-color-action="fill" style="fill:inherit" />							<rect x="22" y="22.4" transform="matrix(-1 -4.489399e-11 4.489399e-11 -1 57.3758 46.2123)" class="aN-cls-28" width="13.5" height="1.4" data-color-action="fill" style="fill:inherit" />							<rect x="22" y="32.1" transform="matrix(-1 -4.489399e-11 4.489399e-11 -1 57.3758 65.1643)" class="aN-cls-29" width="13.5" height="0.9" data-color-action="fill" style="fill:inherit" />			<g>				<g>					<g>						<path class="aN-cls-30" d="M32.1,33h3.1c0.3,0,0.5-0.2,0.5-0.5v-7c0-0.3-0.2-0.5-0.5-0.5h-3.1c-0.3,0-0.5,0.2-0.5,0.5v7        C31.6,32.8,31.8,33,32.1,33z" data-color-action="fill" style="fill:inherit" />						<path class="aN-cls-19" d="M32.1,33h3.1c0.3,0,0.5-0.2,0.5-0.5v-5.8c-0.7-0.1-1.3-0.2-2-0.2c-0.7,0-1.4,0.1-2.1,0.2v5.8        C31.6,32.8,31.8,33,32.1,33z" data-color-action="fill" style="fill:inherit" />						<path class="aN-cls-23" d="M31.9,31.6v1.1c0,0.1,0.1,0.2,0.2,0.2h3.1c0.1,0,0.2-0.1,0.2-0.2v-1.1H31.9z" />					</g>					<g>						<path class="aN-cls-30" d="M22.2,33h3.1c0.3,0,0.5-0.2,0.5-0.5v-7c0-0.3-0.2-0.5-0.5-0.5h-3.1c-0.3,0-0.5,0.2-0.5,0.5v7        C21.7,32.8,21.9,33,22.2,33z" data-color-action="fill" style="fill:inherit" />						<path class="aN-cls-19" d="M22.2,33h3.1c0.3,0,0.5-0.2,0.5-0.5v-5.8c-0.7-0.1-1.3-0.2-2-0.2c-0.7,0-1.4,0.1-2.1,0.2v5.8        C21.7,32.8,21.9,33,22.2,33z" data-color-action="fill" style="fill:inherit" />						<path class="aN-cls-23" d="M22,31.6v1.1c0,0.1,0.1,0.2,0.2,0.2h3.1c0.1,0,0.2-0.1,0.2-0.2v-1.1H22z" />					</g>				</g>				<g>					<g>						<path class="aN-cls-30" d="M32.1,22.7h3.1c0.3,0,0.5-0.2,0.5-0.5v-7c0-0.3-0.2-0.5-0.5-0.5h-3.1c-0.3,0-0.5,0.2-0.5,0.5v7        C31.6,22.5,31.8,22.7,32.1,22.7z" data-color-action="fill" style="fill:inherit" />						<path class="aN-cls-19" d="M32.1,22.7h3.1c0.3,0,0.5-0.2,0.5-0.5v-5.8c-0.7-0.1-1.3-0.2-2-0.2c-0.7,0-1.4,0.1-2.1,0.2v5.8        C31.6,22.5,31.8,22.7,32.1,22.7z" data-color-action="fill" style="fill:inherit" />						<path class="aN-cls-23" d="M31.9,21.3v1.1c0,0.1,0.1,0.2,0.2,0.2h3.1c0.1,0,0.2-0.1,0.2-0.2v-1.1H31.9z" />					</g>					<g>						<path class="aN-cls-30" d="M22.2,22.7h3.1c0.3,0,0.5-0.2,0.5-0.5v-7c0-0.3-0.2-0.5-0.5-0.5h-3.1c-0.3,0-0.5,0.2-0.5,0.5v7        C21.7,22.5,21.9,22.7,22.2,22.7z" data-color-action="fill" style="fill:inherit" />						<path class="aN-cls-19" d="M22.2,22.7h3.1c0.3,0,0.5-0.2,0.5-0.5v-5.8c-0.7-0.1-1.3-0.2-2-0.2c-0.7,0-1.4,0.1-2.1,0.2v5.8        C21.7,22.5,21.9,22.7,22.2,22.7z" data-color-action="fill" style="fill:inherit" />						<path class="aN-cls-23" d="M22,21.3v1.1c0,0.1,0.1,0.2,0.2,0.2h3.1c0.1,0,0.2-0.1,0.2-0.2v-1.1H22z" />					</g>				</g>			</g>		</g>		<g>							<rect x="7.6" y="23.2" transform="matrix(-1 -4.490154e-11 4.490154e-11 -1 57.3659 47.7829)" class="aN-cls-19" width="42.2" height="1.4" data-color-action="fill" style="fill:inherit" />							<rect x="7.6" y="23.2" transform="matrix(-1 -4.490154e-11 4.490154e-11 -1 57.3659 46.581)" class="aN-cls-30" width="42.2" height="0.2" data-color-action="fill" style="fill:inherit" />							<rect x="7.6" y="24" transform="matrix(-1 -4.490154e-11 4.490154e-11 -1 57.3659 48.434)" class="aN-cls-23" width="42.2" height="0.4" />		</g>	</g></g><g id="aNS_apicoectomy" style="">	<g>		<g>							<ellipse transform="matrix(0.1539 -0.9881 0.9881 0.1539 -23.6537 49.9275)" class="aN-cls-14" cx="17.3" cy="38.8" rx="12.7" ry="12.7" data-color-action="stroke" style="stroke:inherit" />			<line class="aN-cls-14" x1="10.3" y1="29.2" x2="24.3" y2="48.4" data-color-action="stroke" style="stroke:inherit" />		</g>		<text transform="matrix(1 0 0 1 6.7031 43.357)" class="aN-cls-15 aN-cls-16">NA</text>	</g></g><g id="aNS_abscess" style="">	<circle class="aN-cls-18" cx="29.5" cy="79.2" r="6.1" data-color-action="fill" style="fill:inherit" /></g><g id="aNS_blunted_roots" style="">	<g>		<g>							<ellipse transform="matrix(0.1539 -0.9881 0.9881 0.1539 -23.6537 49.9275)" class="aN-cls-14" cx="17.3" cy="38.8" rx="12.7" ry="12.7" data-color-action="stroke" style="stroke:inherit" />			<line class="aN-cls-14" x1="10.3" y1="29.2" x2="24.3" y2="48.4" data-color-action="stroke" style="stroke:inherit" />		</g>		<text transform="matrix(1 0 0 1 6.7031 43.357)" class="aN-cls-15 aN-cls-16">NA</text>	</g></g><g id="aNS_root_amputation" style="">	<g>		<g>							<ellipse transform="matrix(0.1539 -0.9881 0.9881 0.1539 -23.6537 49.9275)" class="aN-cls-14" cx="17.3" cy="38.8" rx="12.7" ry="12.7" data-color-action="stroke" style="stroke:inherit" />			<line class="aN-cls-14" x1="10.3" y1="29.2" x2="24.3" y2="48.4" data-color-action="stroke" style="stroke:inherit" />		</g>		<text transform="matrix(1 0 0 1 6.7031 43.357)" class="aN-cls-15 aN-cls-16">NA</text>	</g></g><g id="aNS_missing_crown" style="">	<g>		<g>							<ellipse transform="matrix(0.1539 -0.9881 0.9881 0.1539 -23.6537 49.9275)" class="aN-cls-14" cx="17.3" cy="38.8" rx="12.7" ry="12.7" data-color-action="stroke" style="stroke:inherit" />			<line class="aN-cls-14" x1="10.3" y1="29.2" x2="24.3" y2="48.4" data-color-action="stroke" style="stroke:inherit" />		</g>		<text transform="matrix(1 0 0 1 6.7031 43.357)" class="aN-cls-15 aN-cls-16">NA</text>	</g></g><g id="aNS_missing_tooth" style="" data-name="missing tooth">	<g>		<path class="aN-cls-5" d="M37.3,34.4c2.9-3.3,2.9-16.9,1.2-19.6c-1.7-2.6-17-3-18.2-2.1c-1.6,1.1-1.5,17.8,1.7,21.5    c0,0,0.1,0.1,0.1,0.1c0.5,5.3,2.4,19.6,2.9,22.8c1.1,7.1,6.7,20.8,9.3,20.4s0.7-13,1-21.6C35.5,44.9,36.5,38.9,37.3,34.4z" />		<path class="aN-cls-24" d="M21.9,32.3c0,1.8,2.5,21,3,24.7c1.1,7.1,6.7,20.8,9.3,20.4s0.7-13,1-21.6c0.4-11.9,1.6-18,2.4-22.6    C38.3,29,21.9,26.1,21.9,32.3z" />		<path class="aN-cls-24" d="M25.5,51.7c-0.6-4.6-1.5-14.5-1.5-16.3c0-1-0.9-2.9-1.7-4.5c-0.2,0.4-0.3,0.9-0.3,1.4c0,1.8,2.5,21,3,24.7    c0.7,5,3.7,13.1,6.3,17.5c-0.7-1.3-1.5-3.2-2.2-5.3C27.9,65.1,26.1,56.4,25.5,51.7z" />		<path class="aN-cls-24" d="M35.1,55.8c0.4-11.9,1.6-18,2.4-22.6c0.1-0.3,0-0.6-0.1-0.9l-1.6,1.3c0,0-1.3,8.3-1.7,13.8    c-0.4,5.5-0.1,15.8,0.4,18.7c0.2,1.4,0.6,2.9,0.9,4.4C35.5,66.2,35,60.5,35.1,55.8z" />		<path class="aN-cls-24" d="M30.9,35.8c-0.3,2.2-0.5,4.7-0.1,14S33,75.5,34,75.5c0.3,0-1.4-17.9-1.6-22.9c-0.2-5,0.4-14.5,0.7-17    C33.5,33,31.2,33.5,30.9,35.8z" />		<path class="aN-cls-24" d="M21.9,34.2c-3.1-3.7-3.2-20.4-1.7-21.5c1.2-0.9,16.5-0.5,18.2,2.1c1.8,2.8,1.8,17.5-1.6,20    C35.1,36.1,24.3,37,21.9,34.2z" />		<g>			<path class="aN-cls-24" d="M23.3,34.5c-2.4-3.6-2.6-19-1.6-22.1c-0.7,0.1-1.2,0.2-1.4,0.3c-1.6,1.1-1.5,17.8,1.7,21.5     c0.5,0.6,1.4,1,2.6,1.3C24,35.2,23.6,34.9,23.3,34.5z" />			<path class="aN-cls-24" d="M38.5,14.8c-0.3-0.5-1-0.8-2-1.2c0.2,0.2,0.3,0.3,0.4,0.5c1.5,3,1.5,18.4-1.3,21c-0.1,0.1-0.3,0.2-0.5,0.3     c0.8-0.2,1.5-0.4,1.8-0.7C40.3,32.3,40.3,17.6,38.5,14.8z" />		</g>		<path class="aN-cls-24" d="M31,24.5c0,3.7-0.4,9.5-0.5,11.6c0.7,0,1.5-0.1,2.2-0.2c0.5-2.5,1.1-8.4,1.1-11.3c0-2.7-0.2-9-0.5-11.7    c-1-0.2-2.1-0.3-3.1-0.4C30.5,14.9,31,20.8,31,24.5z" />	</g></g><g id="aNS_extracted_tooth" data-name="extracted tooth" style=""><g class="aN-msng-cls-10"><line class="aN-msng-cls-11" x1="9" y1="10.51" x2="50.67" y2="52.17" data-color-action="stroke" style="stroke:inherit" /><line class="aN-msng-cls-11" x1="50.67" y1="10.51" x2="9" y2="52.17" data-color-action="stroke" style="stroke:inherit" /></g></g><g id="aNS_denture" style="">	<g>		<g>							<ellipse transform="matrix(0.1539 -0.9881 0.9881 0.1539 -23.6537 49.9275)" class="aN-cls-14" cx="17.3" cy="38.8" rx="12.7" ry="12.7" data-color-action="stroke" style="stroke:inherit" />			<line class="aN-cls-14" x1="10.3" y1="29.2" x2="24.3" y2="48.4" data-color-action="stroke" style="stroke:inherit" />		</g>		<text transform="matrix(1 0 0 1 6.7031 43.357)" class="aN-cls-15 aN-cls-16">NA</text>	</g></g><g id="aNS_maryland_bridge_pontic" style="">	<g>		<g>							<ellipse transform="matrix(0.1539 -0.9881 0.9881 0.1539 -23.6537 49.9275)" class="aN-cls-14" cx="17.3" cy="38.8" rx="12.7" ry="12.7" data-color-action="stroke" style="stroke:inherit" />			<line class="aN-cls-14" x1="10.3" y1="29.2" x2="24.3" y2="48.4" data-color-action="stroke" style="stroke:inherit" />		</g>		<text transform="matrix(1 0 0 1 6.7031 43.357)" class="aN-cls-15 aN-cls-16">NA</text>	</g></g><g id="aNS_maryland_bridge_abutment_mesial" style="">	<g>		<g>							<ellipse transform="matrix(0.1539 -0.9881 0.9881 0.1539 -23.6537 49.9275)" class="aN-cls-14" cx="17.3" cy="38.8" rx="12.7" ry="12.7" data-color-action="stroke" style="stroke:inherit" />			<line class="aN-cls-14" x1="10.3" y1="29.2" x2="24.3" y2="48.4" data-color-action="stroke" style="stroke:inherit" />		</g>		<text transform="matrix(1 0 0 1 6.7031 43.357)" class="aN-cls-15 aN-cls-16">NA</text>	</g></g><g id="aNS_maryland_bridge_abutment_distal" style="">	<g>		<g>							<ellipse transform="matrix(0.1539 -0.9881 0.9881 0.1539 -23.6537 49.9275)" class="aN-cls-14" cx="17.3" cy="38.8" rx="12.7" ry="12.7" data-color-action="stroke" style="stroke:inherit" />			<line class="aN-cls-14" x1="10.3" y1="29.2" x2="24.3" y2="48.4" data-color-action="stroke" style="stroke:inherit" />		</g>		<text transform="matrix(1 0 0 1 6.7031 43.357)" class="aN-cls-15 aN-cls-16">NA</text>	</g></g><g id="aNS_maryland_bridge_abutment" style="">	<g>		<g>							<ellipse transform="matrix(0.1539 -0.9881 0.9881 0.1539 -23.6537 49.9275)" class="aN-cls-14" cx="17.3" cy="38.8" rx="12.7" ry="12.7" data-color-action="stroke" style="stroke:inherit" />			<line class="aN-cls-14" x1="10.3" y1="29.2" x2="24.3" y2="48.4" data-color-action="stroke" style="stroke:inherit" />		</g>		<text transform="matrix(1 0 0 1 6.7031 43.357)" class="aN-cls-15 aN-cls-16">NA</text>	</g></g><g id="aNS_bridge_abutment_mesial" style="">	<g>		<g>							<ellipse transform="matrix(0.1539 -0.9881 0.9881 0.1539 -23.6537 49.9275)" class="aN-cls-14" cx="17.3" cy="38.8" rx="12.7" ry="12.7" data-color-action="stroke" style="stroke:inherit" />			<line class="aN-cls-14" x1="10.3" y1="29.2" x2="24.3" y2="48.4" data-color-action="stroke" style="stroke:inherit" />		</g>		<text transform="matrix(1 0 0 1 6.7031 43.357)" class="aN-cls-15 aN-cls-16">NA</text>	</g></g><g id="aNS_bridge_abutment_distal" style="">	<g>		<g>							<ellipse transform="matrix(0.1539 -0.9881 0.9881 0.1539 -23.6537 49.9275)" class="aN-cls-14" cx="17.3" cy="38.8" rx="12.7" ry="12.7" data-color-action="stroke" style="stroke:inherit" />			<line class="aN-cls-14" x1="10.3" y1="29.2" x2="24.3" y2="48.4" data-color-action="stroke" style="stroke:inherit" />		</g>		<text transform="matrix(1 0 0 1 6.7031 43.357)" class="aN-cls-15 aN-cls-16">NA</text>	</g></g><g id="aNS_bridge_abutment" style="">	<g>		<g>							<ellipse transform="matrix(0.1539 -0.9881 0.9881 0.1539 -23.6537 49.9275)" class="aN-cls-14" cx="17.3" cy="38.8" rx="12.7" ry="12.7" data-color-action="stroke" style="stroke:inherit" />			<line class="aN-cls-14" x1="10.3" y1="29.2" x2="24.3" y2="48.4" data-color-action="stroke" style="stroke:inherit" />		</g>		<text transform="matrix(1 0 0 1 6.7031 43.357)" class="aN-cls-15 aN-cls-16">NA</text>	</g></g><g id="aNS_bridge_pontic" style="">	<g>		<g>							<ellipse transform="matrix(0.1539 -0.9881 0.9881 0.1539 -23.6537 49.9275)" class="aN-cls-14" cx="17.3" cy="38.8" rx="12.7" ry="12.7" data-color-action="stroke" style="stroke:inherit" />			<line class="aN-cls-14" x1="10.3" y1="29.2" x2="24.3" y2="48.4" data-color-action="stroke" style="stroke:inherit" />		</g>		<text transform="matrix(1 0 0 1 6.7031 43.357)" class="aN-cls-15 aN-cls-16">NA</text>	</g></g><g id="aNS_implant_mini" style="">	<g>		<g>							<ellipse transform="matrix(0.1539 -0.9881 0.9881 0.1539 -23.6537 49.9275)" class="aN-cls-14" cx="17.3" cy="38.8" rx="12.7" ry="12.7" data-color-action="stroke" style="stroke:inherit" />			<line class="aN-cls-14" x1="10.3" y1="29.2" x2="24.3" y2="48.4" data-color-action="stroke" style="stroke:inherit" />		</g>		<text transform="matrix(1 0 0 1 6.7031 43.357)" class="aN-cls-15 aN-cls-16">NA</text>	</g></g><g id="aNS_implant_cylinder" style="">	<g>		<g>							<ellipse transform="matrix(0.1539 -0.9881 0.9881 0.1539 -23.6537 49.9275)" class="aN-cls-14" cx="17.3" cy="38.8" rx="12.7" ry="12.7" data-color-action="stroke" style="stroke:inherit" />			<line class="aN-cls-14" x1="10.3" y1="29.2" x2="24.3" y2="48.4" data-color-action="stroke" style="stroke:inherit" />		</g>		<text transform="matrix(1 0 0 1 6.7031 43.357)" class="aN-cls-15 aN-cls-16">NA</text>	</g></g><g id="aNS_implant_blade" style="">	<g>		<g>							<ellipse transform="matrix(0.1539 -0.9881 0.9881 0.1539 -23.6537 49.9275)" class="aN-cls-14" cx="17.3" cy="38.8" rx="12.7" ry="12.7" data-color-action="stroke" style="stroke:inherit" />			<line class="aN-cls-14" x1="10.3" y1="29.2" x2="24.3" y2="48.4" data-color-action="stroke" style="stroke:inherit" />		</g>		<text transform="matrix(1 0 0 1 6.7031 43.357)" class="aN-cls-15 aN-cls-16">NA</text>	</g></g><g id="aNS_watch_tooth" style="">	<g>		<path class="aN-cls-13" d="M8.3,153.9c0-1.8,1.4-3.3,3.2-3.3c1.8,0,3.3,1.5,3.3,3.3c0,1.7-1.5,3.2-3.3,3.2    C9.7,157.1,8.3,155.6,8.3,153.9z M9.2,148l-0.8-18.1h6.2L13.7,148H9.2z" data-color-action="fill" style="fill:inherit" />	</g></g><g id="aNS_border" style="">	<rect class="aN-cls-17" width="59" height="161" /></g></defs></g><g class="cN-cls-1"><g id="_Nc">	<g>		<g>			<path class="cN-cls-2" d="M22,33.3c-3.1,3.7-3.2,20.4-1.7,21.5c1.2,0.9,16.5,0.5,18.2-2.1c1.8-2.8,1.8-17.5-1.6-20     C35.1,31.3,24.3,30.5,22,33.3z" />		</g>		<g>			<path class="cN-cls-3" d="M22,33.3c-3.1,3.7-3.2,20.4-1.7,21.5c1.2,0.9,16.5,0.5,18.2-2.1c1.8-2.8,1.8-17.5-1.6-20     C35.1,31.3,24.3,30.5,22,33.3z" />		</g>		<path class="cN-cls-4" d="M20.3,54.8c-0.4-0.3-0.7-1.5-0.8-3.3c0.6,0.5,1.3,1.1,2.2,1.1c1.5,0,9.2-0.2,14-1.1c1.8-0.3,3-1,3.7-1.7    c-0.2,1.2-0.5,2.2-0.8,2.8C36.8,55.2,21.5,55.7,20.3,54.8z" />		<path class="cN-cls-5" d="M36.9,39.1c1.2-0.4-0.2-3.3-1.2-4.2c-1.1-1.1-9-1.6-10.8-0.3c-1.9,1.3-3,5.1-2.3,5.3c0.7,0.2,2.3-3.3,4.4-3.4    s3.1,0.5,4.2,0.5s3.3-0.9,3.8-0.3C35.6,37.2,36.5,39.2,36.9,39.1z" />	</g></g><defs><g id="cNS_mesial" style="">	<path class="cN-cls-6" d="M19.3,48.5l2.7-1.6c-0.6-1.7-0.3-4-0.6-6.4c-0.1-1-0.6-1.6-1.3-2.1C19.5,41.5,19.3,45.4,19.3,48.5z" data-color-action="fill" style="fill:inherit" /></g><g id="cNS_line_angle_4" style="">	<path class="cN-cls-6" d="M24.8,55.2l1.6-5.8c-1-0.1-1.8-0.3-2.5-0.6c-1-0.4-1.6-1.1-1.9-2l-2.7,1.6c0.1,3.2,0.4,5.8,1,6.2   C20.7,55.1,22.5,55.2,24.8,55.2z" data-color-action="fill" style="fill:inherit" /></g><g id="cNS_lingual" style="">	<path class="cN-cls-6" d="M34.9,54.2l-1.2-5.2c-1.9,0.4-4.9,0.6-7.3,0.4l-1.6,5.8C27.9,55.2,32,54.9,34.9,54.2z" data-color-action="fill" style="fill:inherit" /></g><g id="cNS_line_angle_3" style="">	<path class="cN-cls-6" d="M38.5,52.6c0.5-0.8,0.8-2.5,1-4.5l-2.7-1.8c-0.4,1.2-1,2.1-1.9,2.4c-0.3,0.1-0.7,0.2-1.2,0.3l1.2,5.2   C36.7,53.8,38.1,53.3,38.5,52.6z" data-color-action="fill" style="fill:inherit" /></g><g id="cNS_distal" style="">	<path class="cN-cls-6" d="M37.8,41.1c-0.2,1.5-0.4,3.6-1,5.3l2.7,1.8c0.3-2.9,0.2-6.6-0.3-9.7C38.5,39,37.9,39.9,37.8,41.1z" data-color-action="fill" style="fill:inherit" /></g><g id="cNS_mid_lingual" style="">	<ellipse class="cN-cls-6" cx="29.6" cy="41.1" rx="3" ry="6.1" data-color-action="fill" style="fill:inherit" /></g><g id="cNS_lingual_V" style="">	<path class="cN-cls-6" d="M34.8,31.9c-2.7-0.6-7.2-0.8-10.2,0c1.4,0.8,3.2,1.3,5.1,1.3C31.6,33.2,33.3,32.7,34.8,31.9z" data-color-action="fill" style="fill:inherit" /></g><g id="cNS_tipped_lingual" style="">	<g>		<path class="cN-cls-7" d="M26.7,59c1.2,3.2,4.5,3.6,7.2-5c0.5-1.5,4.2-1.7,3.6,0c-1.9,5.7-5,9.6-8.5,8.7c-1.2-0.3-2.3-1.6-2.8-3.2    C26.4,59.4,26.6,59.1,26.7,59z" data-color-action="fill" style="fill:inherit" />		<polygon class="cN-cls-7" points="28.6,56.2 40.8,56.2 38,47.2   " data-color-action="fill" style="fill:inherit" />	</g></g><g id="cNS_tipped_facial" style=""></g><g id="cNS_surface_restoration_incisal" style="">	<path class="cN-cls-8" d="M20.3,54.8c1.2,0.9,15.2,0.5,17.9-1.8l-4.7-4.6c0,0,0,0,0,0c-1.8,0.4-4.8,0.7-8.1,0.8L20.3,54.8   C20.3,54.8,20.3,54.8,20.3,54.8z" data-color-action="fill" style="fill:inherit" /></g><g id="cNS_surface_restoration_mesial" style="">	<path class="cN-cls-8" d="M25.4,49.3c0,0-0.1,0-0.1,0c-0.1-2.3,0.4-8.8,1-14.2c-1.2,3.1-3.6,5.5-6.6,6.7c-0.6,5.7-0.3,12.1,0.6,13   L25.4,49.3z" data-color-action="fill" style="fill:inherit" /></g><g id="cNS_surface_restoration_lingual" style="">	<g>		<path class="cN-cls-8" d="M26.3,35C26.3,35,26.3,35,26.3,35c-0.6,5.6-1.1,12-1,14.3c3.4,0,6.4-0.4,8.2-0.8c0.2-1.7,0.1-7.6-0.3-12.7    c-0.1-0.3-0.2-0.6-0.3-1c-1.1,0.4-2.3,0.5-3.5,0.5C28.3,35.4,27.3,35.2,26.3,35z" data-color-action="fill" style="fill:inherit" />			</g></g><g id="cNS_surface_restoration_lingual_V" style="">	<g>				<path class="cN-cls-8" d="M27,31.6c-0.1,1.2-0.3,2.3-0.7,3.4c1,0.3,2,0.4,3.1,0.4c1.2,0,2.4-0.2,3.5-0.5c-0.3-1-0.5-2.1-0.5-3.2    C30.7,31.5,28.8,31.4,27,31.6z" data-color-action="fill" style="fill:inherit" />	</g></g><g id="cNS_surface_restoration_distal" style="">	<path class="cN-cls-8" d="M38.5,52.7c0.9-1.5,1.4-6.1,1.1-10.5c-2.9-1.2-5.2-3.5-6.4-6.4c0.3,5.1,0.5,10.9,0.3,12.6l4.7,4.6   C38.3,52.9,38.4,52.8,38.5,52.7z" data-color-action="fill" style="fill:inherit" /></g><g id="cNS_sub-erupted" style=""></g><g id="cNS_rotated_mesial" style=""></g><g id="cNS_rotate_distal" style=""></g><g id="cNS_root_canal" style=""></g><g id="cNS_pins" style=""></g><g id="cNS_mesial_drift" style=""></g><g id="cNS_distal_drift" style=""></g><g id="cNS_crown" style="">	<path class="cN-cls-10" d="M22,33.3c-3.1,3.7-3.2,20.4-1.7,21.5c1.2,0.9,16.5,0.5,18.2-2.1c1.8-2.8,1.8-17.5-1.6-20   C35.1,31.3,24.3,30.5,22,33.3z" data-color-action="fill" style="fill:inherit" /></g><g id="cNS_cracked_surface_distal" style="">	<polyline class="cN-cls-11" points="39.3,50.2 35.5,46.4 40.5,46.4 35.5,41.6 40.5,41.6 36.6,37.8  " data-color-action="stroke" style="stroke:inherit" /></g><g id="cNS_cracked_surface_lingual" style="">	<polyline class="cN-cls-11" points="30.6,50.2 26.7,46.4 31.8,46.4 26.7,41.6 31.8,41.6 27.9,37.8  " data-color-action="stroke" style="stroke:inherit" /></g><g id="cNS_cracked_surface_lingual_V" style="">	<polyline class="cN-cls-11" points="30.6,50.2 26.7,46.4 31.8,46.4 26.7,41.6 31.8,41.6 27.9,37.8  " data-color-action="stroke" style="stroke:inherit" /></g><g id="cNS_cracked_surface_mesial" style="">	<polyline class="cN-cls-11" points="22.4,50.2 18.6,46.4 23.6,46.4 18.6,41.6 23.6,41.6 19.7,37.8  " data-color-action="stroke" style="stroke:inherit" /></g><g id="cNS_chipped_surface_distal" style="">	<g>		<line class="cN-cls-11" x1="33.7" y1="48.5" x2="42" y2="40.2" data-color-action="stroke" style="stroke:inherit" />		<line class="cN-cls-11" x1="42" y1="48.5" x2="33.7" y2="40.2" data-color-action="stroke" style="stroke:inherit" />	</g></g><g id="cNS_chipped_surface_lingual" style="">	<g>		<line class="cN-cls-11" x1="25.4" y1="48.5" x2="33.7" y2="40.2" data-color-action="stroke" style="stroke:inherit" />		<line class="cN-cls-11" x1="33.7" y1="48.5" x2="25.4" y2="40.2" data-color-action="stroke" style="stroke:inherit" />	</g></g><g id="cNS_chipped_surface_lingual_V" style="">	<g>		<line class="cN-cls-11" x1="25.4" y1="48.5" x2="33.7" y2="40.2" data-color-action="stroke" style="stroke:inherit" />		<line class="cN-cls-11" x1="33.7" y1="48.5" x2="25.4" y2="40.2" data-color-action="stroke" style="stroke:inherit" />	</g></g><g id="cNS_chipped_surface_mesial" style="">	<g>		<line class="cN-cls-11" x1="17.1" y1="48.5" x2="25.4" y2="40.2" data-color-action="stroke" style="stroke:inherit" />		<line class="cN-cls-11" x1="25.4" y1="48.5" x2="17.1" y2="40.2" data-color-action="stroke" style="stroke:inherit" />	</g></g><g id="cNS_abscess" style=""></g><g id="cNS_missing_tooth" style="" data-name="missing tooth">	<g>		<g>			<path class="cN-cls-2" d="M22,33.3c-3.1,3.7-3.2,20.4-1.7,21.5c1.2,0.9,16.5,0.5,18.2-2.1c1.8-2.8,1.8-17.5-1.6-20     C35.1,31.3,24.3,30.5,22,33.3z" data-color-action="fill,stroke" style="fill,stroke:inherit" />		</g>		<g>			<path class="cN-cls-9" d="M22,33.3c-3.1,3.7-3.2,20.4-1.7,21.5c1.2,0.9,16.5,0.5,18.2-2.1c1.8-2.8,1.8-17.5-1.6-20     C35.1,31.3,24.3,30.5,22,33.3z" />		</g>		<path class="cN-cls-9" d="M20.3,54.8c-0.4-0.3-0.7-1.5-0.8-3.3c0.6,0.5,1.3,1.1,2.2,1.1c1.5,0,9.2-0.2,14-1.1c1.8-0.3,3-1,3.7-1.7    c-0.2,1.2-0.5,2.2-0.8,2.8C36.8,55.2,21.5,55.7,20.3,54.8z" />		<path class="cN-cls-9" d="M36.9,39.1c1.2-0.4-0.2-3.3-1.2-4.2c-1.1-1.1-9-1.6-10.8-0.3c-1.9,1.3-3,5.1-2.3,5.3c0.7,0.2,2.3-3.3,4.4-3.4    s3.1,0.5,4.2,0.5s3.3-0.9,3.8-0.3C35.6,37.2,36.5,39.2,36.9,39.1z" />	</g></g><g id="cNS_watch_tooth" style=""></g><g id="cNS_border" style="">	<rect x="0" class="cN-cls-12" width="59" height="66" /></g></defs></g></svg>