<svg xmlns="http://www.w3.org/2000/svg" viewBox="0 0 59 283"><defs><style>.a25-cls-1{isolation:isolate}.a25-cls-2{font-size:15px;fill:#929497;font-family:ProximaNova-Semibold,Proxima Nova,sans-serif;font-weight:700;stroke:none}.a25-cls-25,.a25-cls-3{fill:#c5c7c9;stroke:none}.a25-cls-3{stroke:#c5c7c9;stroke-width:5px}.a25-cls-19,.a25-cls-22,.a25-cls-24,.a25-cls-26,.a25-cls-27,.a25-cls-3,.a25-cls-30,.a25-cls-32,.a25-cls-33,.a25-cls-36{stroke-miterlimit:10}.a25-cls-4,.a25-cls-5{fill:#f5d7cf;stroke:none}.a25-cls-5{fill:#f2c6bc}.a25-cls-6,.a25-cls-7{fill:#fae8e3;stroke:none}.a25-cls-7{fill:#eeefef}.a25-cls-8,.a25-cls-9{fill:#e2e3e4;stroke:none}.a25-cls-9{fill:#fbfbfb}.a25-cls-10,.a25-cls-28,.a25-cls-37{fill:#3c3d3d;stroke:none}.a25-cls-10{opacity:.55}.a25-cls-11{fill:#ffd403;stroke:none}.a25-cls-13,.a25-cls-21{fill:#ffef3e;stroke:none}.a25-cls-14,.a25-cls-20{fill:#c52636;stroke:none}.a25-cls-15{fill:none;stroke:none}.a25-cls-19,.a25-cls-22,.a25-cls-24,.a25-cls-26,.a25-cls-27,.a25-cls-30,.a25-cls-32,.a25-cls-33{fill:none}.a25-cls-16{stroke:none}.a25-cls-16,.a25-cls-36,.a25-cls-38{fill:#28418b}.a25-cls-38{stroke:none}.a25-cls-17,.a25-cls-18{fill:#787878;stroke:none}.a25-cls-19,.a25-cls-22,.a25-cls-24,.a25-cls-30,.a25-cls-32,.a25-cls-33{stroke:#c52636}.a25-cls-19,.a25-cls-22,.a25-cls-27{stroke-width:2px}.a25-cls-22{stroke-linecap:round}.a25-cls-23{fill:#fff;stroke:none}.a25-cls-26,.a25-cls-27,.a25-cls-36{stroke:#28418b}.a25-cls-26{stroke-width:3px}.a25-cls-29{opacity:.6}.a25-cls-30{stroke-width:4px}.a25-cls-31{fill:#f05b85;stroke:none}.a25-cls-32,.a25-cls-33{stroke-width:1.25px}.a25-cls-34{fill:#9b9999;stroke:none}.a25-cls-35{fill:#dbdbdc;stroke:none}.a25-cls-36{stroke-width:12px}.a25-cls-39{font-size:33px;fill:#28418b;font-family:ProximaNova-Semibold,Proxima Nova,sans-serif;font-weight:700;stroke:none}.c25-cls-1{isolation:isolate}.c25-cls-16,.c25-cls-2{fill:#c5c7c9;stroke:none}.c25-cls-2{stroke:#c5c7c9;stroke-width:5px}.c25-cls-2,.c25-cls-20,.c25-cls-21{stroke-miterlimit:10}.c25-cls-3{fill:#eeefef;stroke:none}.c25-cls-4,.c25-cls-5{fill:#e2e3e4;stroke:none}.c25-cls-5{fill:#fbfbfb}.c25-cls-17,.c25-cls-6{fill:#3c3d3d;stroke:none}.c25-cls-6{opacity:.55}.c25-cls-20,.c25-cls-21{fill:none}.c25-cls-7,.c25-cls-9{fill:none;stroke:none}.c25-cls-9{fill:#28418b}.c25-cls-10,.c25-cls-11{fill:#787878;stroke:none}.c25-cls-12,.c25-cls-19{fill:#ffef3e;stroke:none}.c25-cls-13{fill:#fff;stroke:none}.c25-cls-14,.c25-cls-15{fill:#c52636;stroke:none}.c25-cls-18{opacity:.6}.c25-cls-20,.c25-cls-21{stroke:#c52636;stroke-width:1.25px}.a25-msng-cls-1{isolation:isolate}.a25-msng-cls-2{font-size:15px;fill:#929497;font-family:ProximaNova-Semibold,Proxima Nova;font-weight:700;stroke:none}.a25-msng-cls-3{fill:#c5c7c9;stroke:#c5c7c9;stroke-width:5px}.a25-msng-cls-11,.a25-msng-cls-3{stroke-miterlimit:10}.a25-msng-cls-4{fill:#f5d7cf;stroke:none}.a25-msng-cls-5{fill:#f2c6bc;stroke:none}.a25-msng-cls-6{fill:#fae8e3;stroke:none}.a25-msng-cls-7{fill:#eeefef;stroke:none}.a25-msng-cls-8{fill:#e2e3e4;stroke:none}.a25-msng-cls-9{fill:#fbfbfb;stroke:none}.a25-msng-cls-11{fill:none}.a25-msng-cls-12{fill:none;stroke:none}.a25-msng-cls-11{stroke:#787878;stroke-width:6.25px}</style></defs><g class="a25-cls-1" transform="translate(0 122)"><g id="_25A" data-name="#25A"><text class="a25-cls-2" transform="translate(20.54 150.74)">25</text><path d="M41.23 10.72c2 1.66 3.59 24.21-1 31.34a3.37 3.37 0 0 1-.67.75c0 5.56-1.74 27.21-4.47 40.71-3 14.67-9.64 22.88-10.85 22.31-2.34-1.11.19-9.84-.49-25.89-.48-11.37-4-33.88-4.41-36.47a2.37 2.37 0 0 1-.33-.22c-4.41-3.6-4-26-.8-29.64s21.41-4.21 23.02-2.89z" class="a25-cls-3"/><path d="M39.55 41.73c.29 2.82-1.48 27.12-4.44 41.79s-9.64 22.88-10.85 22.31c-2.34-1.11.19-9.84-.49-25.89-.49-11.59-4.11-34.78-4.44-36.61-1.1-6.33 19.36-9.98 20.22-1.6z" class="a25-cls-4"/><path d="M37.63 47.62c.13-3-.18-6.46.54-8.69a4.38 4.38 0 0 1 1.38 2.8c.29 2.82-1.48 27.12-4.44 41.79a58.84 58.84 0 0 1-5.19 15.24A57.88 57.88 0 0 0 34 84.18c.95-7.7 3.45-32.26 3.63-36.56zM23.77 79.94c-.49-11.59-4.11-34.78-4.44-36.61a3 3 0 0 1 .54-2.25 5.12 5.12 0 0 1 1.27 2.24c.72 3 1.61 11.29 2.69 20.08a151.47 151.47 0 0 1 .9 24.2 39.33 39.33 0 0 1-1.06 6.14c.2-3.74.33-8.35.1-13.8z" class="a25-cls-5"/><path d="M27.43 45c-.17 3 .78 15.07 1.42 21.47.72 7.17.72 17.93-.84 26-.83 4.33-2.1 9.67-2.84 9.38s1.45-10.25 1.52-14.78c.36-22-3.13-40-3.13-42s4.07-3.64 3.87-.07z" class="a25-cls-6"/><path d="M40.26 42.05c4.57-7.13 3-29.67 1-31.34-1.62-1.31-19.8-.71-23 2.9s-3.6 26 .8 29.64c2.39 1.99 18.43 3.12 21.2-1.2z" class="a25-cls-7"/><path d="M39.06 10.22a5.14 5.14 0 0 1 2.17.5c2 1.66 3.59 24.21-1 31.34a4.91 4.91 0 0 1-2.34 1.71c2.75-7.57 2.31-26.91 1.17-33.55zM18.23 13.62a6.18 6.18 0 0 1 2.34-1.42c-1.9 5.35-2.18 25 .1 31.79a5 5 0 0 1-1.67-.73c-4.38-3.61-4-26.04-.77-29.64z" class="a25-cls-8"/><path d="M27.22 27.58c-.14 4.14 0 13.87.21 17.39a38.27 38.27 0 0 1-3.22-.28 116.7 116.7 0 0 1-.75-16c.28-4.86.79-13.95 1-17.61 1.19-.24 2.46-.43 3.76-.58-.33 3.94-.85 12.81-1 17.08z" class="a25-cls-9"/></g><defs><g id="a25_bone_graft" data-name="bone graft"><path d="M2 43.25h55v94.44H2z" class="a25-cls-16" transform="rotate(-180 29.5 90.47)" data-color-action="fill" style="fill:inherit"/><path d="M41.23 10.72c2 1.66 3.59 24.21-1 31.34a3.37 3.37 0 0 1-.67.75c0 5.56-1.74 27.21-4.47 40.71-3 14.67-9.64 22.88-10.85 22.31-2.34-1.11.19-9.84-.49-25.89-.48-11.37-4-33.88-4.41-36.47a2.37 2.37 0 0 1-.33-.22c-4.41-3.6-4-26-.8-29.64s21.41-4.21 23.02-2.89z" class="a25-cls-3"/><path d="M39.55 41.73c.29 2.82-1.48 27.12-4.44 41.79s-9.64 22.88-10.85 22.31c-2.34-1.11.19-9.84-.49-25.89-.49-11.59-4.11-34.78-4.44-36.61-1.1-6.33 19.36-9.98 20.22-1.6z" class="a25-cls-4"/><path d="M37.63 47.62c.13-3-.18-6.46.54-8.69a4.38 4.38 0 0 1 1.38 2.8c.29 2.82-1.48 27.12-4.44 41.79a58.84 58.84 0 0 1-5.19 15.24A57.88 57.88 0 0 0 34 84.18c.95-7.7 3.45-32.26 3.63-36.56zM23.77 79.94c-.49-11.59-4.11-34.78-4.44-36.61a3 3 0 0 1 .54-2.25 5.12 5.12 0 0 1 1.27 2.24c.72 3 1.61 11.29 2.69 20.08a151.47 151.47 0 0 1 .9 24.2 39.33 39.33 0 0 1-1.06 6.14c.2-3.74.33-8.35.1-13.8z" class="a25-cls-5"/><path d="M27.43 45c-.17 3 .78 15.07 1.42 21.47.72 7.17.72 17.93-.84 26-.83 4.33-2.1 9.67-2.84 9.38s1.45-10.25 1.52-14.78c.36-22-3.13-40-3.13-42s4.07-3.64 3.87-.07z" class="a25-cls-6"/><path d="M40.26 42.05c4.57-7.13 3-29.67 1-31.34-1.62-1.31-19.8-.71-23 2.9s-3.6 26 .8 29.64c2.39 1.99 18.43 3.12 21.2-1.2z" class="a25-cls-7"/><path d="M39.06 10.22a5.14 5.14 0 0 1 2.17.5c2 1.66 3.59 24.21-1 31.34a4.91 4.91 0 0 1-2.34 1.71c2.75-7.57 2.31-26.91 1.17-33.55zM18.23 13.62a6.18 6.18 0 0 1 2.34-1.42c-1.9 5.35-2.18 25 .1 31.79a5 5 0 0 1-1.67-.73c-4.38-3.61-4-26.04-.77-29.64z" class="a25-cls-8"/><path d="M27.22 27.58c-.14 4.14 0 13.87.21 17.39a38.27 38.27 0 0 1-3.22-.28 116.7 116.7 0 0 1-.75-16c.28-4.86.79-13.95 1-17.61 1.19-.24 2.46-.43 3.76-.58-.33 3.94-.85 12.81-1 17.08z" class="a25-cls-9"/></g><g id="a25_splinted_crowns" data-name="splinted crowns"><path d="M2 41.68h55v7.67H2z" class="a25-cls-21" data-color-action="fill" style="fill:inherit"/><path d="M41.23 10.72c2 1.66 3.59 24.21-1 31.34a3.37 3.37 0 0 1-.67.75c0 5.56-1.74 27.21-4.47 40.71-3 14.67-9.64 22.88-10.85 22.31-2.34-1.11.19-9.84-.49-25.89-.48-11.37-4-33.88-4.41-36.47a2.37 2.37 0 0 1-.33-.22c-4.41-3.6-4-26-.8-29.64s21.41-4.21 23.02-2.89z" class="a25-cls-3"/><path d="M39.55 41.73c.29 2.82-1.48 27.12-4.44 41.79s-9.64 22.88-10.85 22.31c-2.34-1.11.19-9.84-.49-25.89-.49-11.59-4.11-34.78-4.44-36.61-1.1-6.33 19.36-9.98 20.22-1.6z" class="a25-cls-4"/><path d="M37.63 47.62c.13-3-.18-6.46.54-8.69a4.38 4.38 0 0 1 1.38 2.8c.29 2.82-1.48 27.12-4.44 41.79a58.84 58.84 0 0 1-5.19 15.24A57.88 57.88 0 0 0 34 84.18c.95-7.7 3.45-32.26 3.63-36.56zM23.77 79.94c-.49-11.59-4.11-34.78-4.44-36.61a3 3 0 0 1 .54-2.25 5.12 5.12 0 0 1 1.27 2.24c.72 3 1.61 11.29 2.69 20.08a151.47 151.47 0 0 1 .9 24.2 39.33 39.33 0 0 1-1.06 6.14c.2-3.74.33-8.35.1-13.8z" class="a25-cls-5"/><path d="M27.43 45c-.17 3 .78 15.07 1.42 21.47.72 7.17.72 17.93-.84 26-.83 4.33-2.1 9.67-2.84 9.38s1.45-10.25 1.52-14.78c.36-22-3.13-40-3.13-42s4.07-3.64 3.87-.07z" class="a25-cls-6"/><path d="M40.26 42.05c4.57-7.13 3-29.67 1-31.34-1.62-1.31-19.8-.71-23 2.9s-3.6 26 .8 29.64c2.39 1.99 18.43 3.12 21.2-1.2z" class="a25-cls-7"/><path d="M39.06 10.22a5.14 5.14 0 0 1 2.17.5c2 1.66 3.59 24.21-1 31.34a4.91 4.91 0 0 1-2.34 1.71c2.75-7.57 2.31-26.91 1.17-33.55zM18.23 13.62a6.18 6.18 0 0 1 2.34-1.42c-1.9 5.35-2.18 25 .1 31.79a5 5 0 0 1-1.67-.73c-4.38-3.61-4-26.04-.77-29.64z" class="a25-cls-8"/><path d="M27.22 27.58c-.14 4.14 0 13.87.21 17.39a38.27 38.27 0 0 1-3.22-.28 116.7 116.7 0 0 1-.75-16c.28-4.86.79-13.95 1-17.61 1.19-.24 2.46-.43 3.76-.58-.33 3.94-.85 12.81-1 17.08z" class="a25-cls-9"/></g><path id="a25_facial_V_pre_exisiting" d="M20.59 44c3.67 1.13 11.88 1.61 16.58.07a13.15 13.15 0 0 0-8.34-2.85A13.16 13.16 0 0 0 20.59 44z" class="a25-cls-10" data-color-action="fill" style="fill:inherit" data-name="facial V – pre exisiting"/><ellipse id="a25_mid_facial" cx="29.19" cy="29.15" class="a25-cls-10" rx="4.04" ry="8.29" data-color-action="fill" style="fill:inherit" data-name="mid facial"/><path id="a25_mesial" d="M42.94 18.41l-4.68 2.54c.69 1.8.31 4.32.74 6.9.32 1.94 2.18 2.79 4 3.16a78 78 0 0 0-.06-12.6z" class="a25-cls-10" data-color-action="fill" style="fill:inherit"/><path id="a25_line_angle_2" d="M20.72 21.53a3.82 3.82 0 0 1 2.3-2.6c.38-.11.85-.21 1.37-.31l-1.1-4.38c-2.86.56-5.19 1.35-6.19 2.37a3.12 3.12 0 0 0-.25.31c-.16.65-.3 1.35-.43 2.11z" class="a25-cls-10" data-color-action="fill" style="fill:inherit" data-name="line angle 2"/><path id="a25_facial" d="M23.28 14.25l1.1 4.38a35.51 35.51 0 0 1 8.67-.38l1.59-5.14a71.61 71.61 0 0 0-11.36 1.14z" class="a25-cls-10" data-color-action="fill" style="fill:inherit"/><path id="a25_line_angle_1" d="M34.64 13.11l-1.59 5.14a12.35 12.35 0 0 1 3 .6 3.41 3.41 0 0 1 2.2 2.1l4.68-2.54a45 45 0 0 0-.64-4.74c-.81-.45-3.88-.67-7.65-.56z" class="a25-cls-10" data-color-action="fill" style="fill:inherit" data-name="line angle 1"/><path id="a25_distal" d="M19.58 27.21a25.52 25.52 0 0 1 1.14-5.68L16.42 19a60.57 60.57 0 0 0-.57 12c1.66-.53 3.44-1.62 3.73-3.79z" class="a25-cls-10" data-color-action="fill" style="fill:inherit"/><path id="a25_mesial_incisal" d="M42.3 13.67a6.2 6.2 0 0 0-1.07-2.95c-.52-.42-2.76-.65-5.66-.64l-.94 3c3.78-.08 6.85.14 7.67.59z" class="a25-cls-10" data-color-action="fill" style="fill:inherit" data-name="mesial incisal"/><path id="a25_central_incisal" d="M34.64 13.11l.94-3a57.25 57.25 0 0 0-13 1.46l.68 2.7a71.61 71.61 0 0 1 11.38-1.16z" class="a25-cls-10" data-color-action="fill" style="fill:inherit" data-name="central incisal"/><path id="a25_distal_incisal" d="M23.28 14.25l-.68-2.7a9.37 9.37 0 0 0-4.38 2.07 8.29 8.29 0 0 0-1.38 3.31 3.12 3.12 0 0 1 .25-.31c1.01-1.02 3.33-1.8 6.19-2.37z" class="a25-cls-10" data-color-action="fill" style="fill:inherit" data-name="distal incisal"/><path id="a25_veneer" d="M40.26 42.05c4.57-7.13 3-29.67 1-31.34-1.62-1.31-19.8-.71-23 2.9s-3.6 26 .8 29.64c2.39 1.99 18.43 3.12 21.2-1.2z" class="a25-cls-12 a25-cls-13" data-color-action="fill" style="fill:inherit"/><path id="a25_tissue_graft" d="M46.97 59.34L29.5 45.46 12.03 59.34h34.94z" class="a25-cls-14" data-color-action="fill" style="fill:inherit" data-name="tissue graft"/><path id="a25_tipped_lingual" d="M28 154.75h3v3h-3z" class="a25-cls-15" data-name="tipped lingual"/><g id="a25_tipped_facial" class="a25-cls-12" data-name="tipped facial"><path d="M25.85 6.5c1.26-3.37 4.74-3.85 7.69 5.32.5 1.56 4.42 1.76 3.84 0-2-6.08-5.31-10.2-9.06-9.27a4.86 4.86 0 0 0-3 3.38c.19.17.42.42.53.57z" class="a25-cls-16" data-color-action="fill" style="fill:inherit"/><path d="M27.93 9.42h12.94l-2.94 9.64-10-9.64z" class="a25-cls-16" data-color-action="fill" style="fill:inherit"/></g><path id="a25_surface_restoration_mesial" d="M41.23 10.72c1.58 1.28 2.85 14.95 1.27 24.42a11.52 11.52 0 0 0-6.87 6.46c.68-8 .69-20.38.18-24.51h-.05l5.4-6.41z" class="a25-cls-17" data-color-action="fill" style="fill:inherit" data-name="surface restoration mesial"/><path id="a25_surface_restoration_facial" d="M23.15 41.76a11.82 11.82 0 0 0-.42-1.36c-.26-8 .12-19.06.89-21.88a46.56 46.56 0 0 1 12.15-1.44c.51 4.13.5 16.49-.18 24.51 0 .08-.05.17-.09.26a15.31 15.31 0 0 0-12.39-.09z" class="a25-cls-12 a25-cls-18" data-color-action="fill" style="fill:inherit" data-name="surface restoration facial"/><path id="a25_surface_restoration_facial_V" d="M23.5 44.59v-.09a11.29 11.29 0 0 0-.35-2.74 15.31 15.31 0 0 1 12.39.09 11.44 11.44 0 0 0-.7 2.75 38.72 38.72 0 0 1-11.34-.01z" class="a25-cls-12 a25-cls-18" data-color-action="fill" style="fill:inherit" data-name="surface restoration facial V"/><path id="a25_surface_restoration_distal" d="M18.6 13.26l5 5.4c-.74 3-1.11 13.87-.85 21.74A11.51 11.51 0 0 0 16 33.74c-.76-7.85.14-17.83 2.18-20.13a3.25 3.25 0 0 1 .42-.35z" class="a25-cls-17" data-color-action="fill" style="fill:inherit" data-name="surface restoration distal"/><path id="a25_surface_restoration_incisal" d="M41.16 10.67l-5.4 6.41a46.54 46.54 0 0 0-12.13 1.44v.14l-5-5.4c3.96-3.26 20.59-3.8 22.53-2.59z" class="a25-cls-17" data-color-action="fill" style="fill:inherit" data-name="surface restoration incisal"/><g id="a25_supra-erupted" class="a25-cls-12"><path d="M29.5 52.12v7.68" class="a25-cls-19" data-color-action="stroke" style="stroke:inherit"/><path d="M25.51 53.29l3.99-6.91 3.99 6.91h-7.98z" class="a25-cls-20" data-color-action="fill" style="fill:inherit"/></g><g id="a25_sub-erupted" class="a25-cls-12"><path d="M29.5 54.05v-7.67" class="a25-cls-19" data-color-action="stroke" style="stroke:inherit"/><path d="M33.49 52.89L29.5 59.8l-3.99-6.91h7.98z" class="a25-cls-20" data-color-action="fill" style="fill:inherit"/></g><text id="a25_sealant" class="a25-cls-39" transform="translate(19.7 -18.45)" data-color-action="fill" style="fill:inherit">S</text><g id="a25_rotated_mesial" class="a25-cls-12" data-name="rotated mesial"><path d="M5.87 32.82C2.88 31 3.56 27.36 16.1 27c5.3-.15 8.95 0 8.95 0L25 24s-1-.07-8.22.24c-7.62.32-14 1.83-13.75 6a4 4 0 0 0 2.31 2.92c.15-.16.4-.27.53-.34z" class="a25-cls-16" data-color-action="fill" style="fill:inherit"/><path d="M18.57 31.53V19.64l10.4 5.9-10.4 5.99z" class="a25-cls-16" data-color-action="fill" style="fill:inherit"/></g><g id="a25_rotated_distal" class="a25-cls-12" data-name="rotated distal"><path d="M53.13 32.82c3-1.79 2.3-5.46-10.23-5.81-5.3-.15-8.95 0-8.95 0L34 24s1-.07 8.22.24c7.62.32 14 1.83 13.75 6a4 4 0 0 1-2.31 2.92c-.15-.16-.4-.27-.53-.34z" class="a25-cls-16" data-color-action="fill" style="fill:inherit"/><path d="M40.43 31.53V19.64l-10.4 5.9 10.4 5.99z" class="a25-cls-16" data-color-action="fill" style="fill:inherit"/></g><circle id="a25_root_decay" cx="29.58" cy="85.54" r="4.33" class="a25-cls-12 a25-cls-18" data-color-action="fill" style="fill:inherit" data-name="root decay"/><path id="a25_root_canal" d="M26.5 100l3.63-52.87" class="a25-cls-22" data-color-action="stroke" style="stroke:inherit" data-name="root canal"/><path id="a25_root_abrasion" d="M27.08 78.13h3.5v13.83h-3.5z" class="a25-cls-12 a25-cls-24" data-color-action="stroke" style="stroke:inherit" data-name="root abrasion"/><g id="a25_post"><path d="M27.5 27.84h3.14v41.77H27.5z" class="a25-cls-18" data-color-action="fill" style="fill:inherit"/><path d="M28.37 27.84h.47v41.77h-.47z" class="a25-cls-25"/></g><g id="a25_pins"><path d="M25.32 33.84h2.42v23.43h-2.42z" class="a25-cls-18" data-color-action="fill" style="fill:inherit"/><path d="M25.99 33.84h.36v23.43h-.36z" class="a25-cls-25"/><path d="M29.91 33.84h2.42v23.43h-2.42z" class="a25-cls-18" data-color-action="fill" style="fill:inherit"/><path d="M30.57 33.84h.36v23.43h-.36z" class="a25-cls-25"/></g><path id="a25_open_contact_mesial" d="M31.69 51l7.5-4.75 7.5 4.75" class="a25-cls-26" data-color-action="stroke" style="stroke:inherit" data-name="open contact mesial"/><path id="a25_open_contact_distal" d="M12.67 51l7.5-4.75 7.5 4.75" class="a25-cls-26" data-color-action="stroke" style="stroke:inherit" data-name="open contact distal"/><g id="a25_mesial_drift" class="a25-cls-12" data-name="mesial drift"><path d="M32.59 27.84H20.67" class="a25-cls-27" data-color-action="stroke" style="stroke:inherit"/><path d="M31.43 23.85l6.9 3.99-6.9 3.98v-7.97z" class="a25-cls-16" data-color-action="fill" style="fill:inherit"/></g><path id="a25_lingual_abfraction" d="M28 154.75h3v3h-3z" class="a25-cls-15" data-name="lingual abfraction"/><ellipse id="a25_internal_root_resorption" cx="28.66" cy="85.99" class="a25-cls-12 a25-cls-20" rx="8.36" ry="3.38" transform="rotate(-86.81 28.655 85.984)" data-color-action="fill" style="fill:inherit" data-name="internal root resorption"/><g id="a25_impacted_mesial" class="a25-cls-12" data-name="impacted mesial"><ellipse cx="29.5" cy="57.7" class="a25-cls-27" rx="24.15" ry="56.3" data-color-action="stroke" style="stroke:inherit"/><path d="M18.09 57.7H5.33" class="a25-cls-27" data-color-action="stroke" style="stroke:inherit"/><path d="M16.93 53.71l6.9 3.99-6.9 3.99v-7.98z" class="a25-cls-16" data-color-action="fill" style="fill:inherit"/></g><g id="a25_impacted_distal" class="a25-cls-12" data-name="impacted distal"><ellipse cx="29.49" cy="57.7" class="a25-cls-27" rx="24.15" ry="56.3" data-color-action="stroke" style="stroke:inherit"/><path d="M40.89 57.7h12.76" class="a25-cls-27" data-color-action="stroke" style="stroke:inherit"/><path d="M42.06 61.69l-6.91-3.99 6.91-3.99v7.98z" class="a25-cls-16" data-color-action="fill" style="fill:inherit"/></g><path id="a25_gortex_membranes" d="M2 40.75h55v16.42H2z" class="a25-cls-14" data-color-action="fill" style="fill:inherit" data-name="gortex membranes"/><path id="a25_frenum_pull" d="M18.51 46.41l10.65 6.75 10.66-6.75" class="a25-cls-30" data-color-action="stroke" style="stroke:inherit" data-name="frenum pull"/><path id="a25_external_root_resorption" d="M23.44 75a115 115 0 0 1 .33 15.19c1.34-.6 4-2.41 3.89-7.39-.05-5.22-2.92-7.2-4.22-7.8zm8 8.11a9.1 9.1 0 0 0 2 7.2 64.71 64.71 0 0 0 1.75-6.75c.43-2.11.83-4.42 1.2-6.83a8 8 0 0 0-4.99 6.34z" class="a25-cls-12 a25-cls-20" data-color-action="fill" style="fill:inherit" data-name="external root resorption"/><g id="a25_distal_drift" class="a25-cls-12" data-name="distal drift"><path d="M26.41 27.84h11.92" class="a25-cls-27" data-color-action="stroke" style="stroke:inherit"/><path d="M27.57 31.82l-6.9-3.98 6.9-3.99v7.97z" class="a25-cls-16" data-color-action="fill" style="fill:inherit"/></g><path id="a25_three_quarter_crown" d="M43.2 27.43c.23-7.87-.78-15.76-2-16.71-1.62-1.31-19.8-.71-23 2.9-1.52 1.71-2.41 7.66-2.45 13.82z" class="a25-cls-12 a25-cls-13" data-color-action="fill" style="fill:inherit" data-name="three quarter crown"/><path id="a25_crown" d="M40.26 42.05c4.57-7.13 3-29.67 1-31.34-1.62-1.31-19.8-.71-23 2.9s-3.6 26 .8 29.64c2.39 1.99 18.43 3.12 21.2-1.2z" class="a25-cls-12 a25-cls-13" data-color-action="fill" style="fill:inherit"/><path id="a25_cracked_surface_incisal" d="M30.83 18.16L27 14.33h5l-5-4.74h5l-3.83-3.83" class="a25-cls-32" data-color-action="stroke" style="stroke:inherit" data-name="cracked surface incisal"/><path id="a25_cracked_surface_distal" d="M19.66 32.17l-3.83-3.83h5.01l-5.01-4.74h5.01l-3.83-3.83" class="a25-cls-32" data-color-action="stroke" style="stroke:inherit" data-name="cracked surface distal"/><path id="a25_cracked_surface_facial" d="M30.83 32.17L27 28.34h5l-5-4.74h5l-3.83-3.83" class="a25-cls-32" data-color-action="stroke" style="stroke:inherit" data-name="cracked surface facial"/><path id="a25_cracked_surface_facial_V" d="M30.83 32.17L27 28.34h5l-5-4.74h5l-3.83-3.83" class="a25-cls-32" data-color-action="stroke" style="stroke:inherit" data-name="cracked surface facial V"/><path id="a25_cracked_surface_mesial" d="M43.66 32.17l-3.83-3.83h5l-5-4.74h5L41 19.77" class="a25-cls-32" data-color-action="stroke" style="stroke:inherit" data-name="cracked surface mesial"/><g id="a25_chipped_surface_incisal" class="a25-cls-12" data-name="chipped surface incisal"><path d="M33.33 16.49L25 8.16M25 16.49l8.33-8.33" class="a25-cls-33" data-color-action="stroke" style="stroke:inherit"/></g><g id="a25_chipped_surface_distal" class="a25-cls-12" data-name="chipped surface distal"><path d="M23.17 30.5l-8.33-8.33M14.84 30.5l8.33-8.33" class="a25-cls-33" data-color-action="stroke" style="stroke:inherit"/></g><g id="a25_chipped_surface_facial" class="a25-cls-12" data-name="chipped surface facial"><path d="M33.33 30.5L25 22.17M25 30.5l8.33-8.33" class="a25-cls-33" data-color-action="stroke" style="stroke:inherit"/></g><g id="a25_chipped_surface_facial_V" class="a25-cls-12" data-name="chipped surface facial V"><path d="M33.33 30.5L25 22.17M25 30.5l8.33-8.33" class="a25-cls-33" data-color-action="stroke" style="stroke:inherit"/></g><g id="a25_chipped_surface_mesial" class="a25-cls-12" data-name="chipped surface mesial"><path d="M45.33 30.5L37 22.17M37 30.5l8.33-8.33" class="a25-cls-33" data-color-action="stroke" style="stroke:inherit"/></g><path id="a25_buccal_abfraction" d="M39.36 44.63a17.53 17.53 0 0 0-9.69-3.42A17.53 17.53 0 0 0 20 44.63 17.53 17.53 0 0 0 29.67 48a17.53 17.53 0 0 0 9.69-3.37z" class="a25-cls-14" data-color-action="fill" style="fill:inherit" data-name="buccal abfraction"/><g id="a25_braces"><path d="M22.59 18.84h13.45v18.19H22.59z" class="a25-cls-25"/><path d="M22.59 18.84h13.45v.68H22.59zM22.59 26.43h13.45v1.36H22.59z" class="a25-cls-34" data-color-action="fill" style="fill:inherit"/><path d="M22.59 36.14h13.45v.89H22.59z" class="a25-cls-35" data-color-action="fill" style="fill:inherit"/><rect width="4.11" height="7.94" x="22.3" y="29.07" class="a25-cls-28" rx=".49" ry=".49" data-color-action="fill" style="fill:inherit"/><path d="M25.92 37h-3.13a.49.49 0 0 1-.49-.49v-5.83a13.14 13.14 0 0 1 4.11 0v5.83a.49.49 0 0 1-.49.49z" class="a25-cls-18" data-color-action="fill" style="fill:inherit"/><path d="M26.08 35.6v1.11a.16.16 0 0 1-.16.16h-3.13a.16.16 0 0 1-.16-.16V35.6z" class="a25-cls-25"/><rect width="4.11" height="7.94" x="32.22" y="29.07" class="a25-cls-28" rx=".49" ry=".49" data-color-action="fill" style="fill:inherit"/><path d="M35.84 37h-3.13a.49.49 0 0 1-.49-.49v-5.83a13.14 13.14 0 0 1 4.11 0v5.83a.49.49 0 0 1-.49.49z" class="a25-cls-18" data-color-action="fill" style="fill:inherit"/><path d="M36 35.6v1.11a.16.16 0 0 1-.16.16h-3.13a.16.16 0 0 1-.16-.16V35.6z" class="a25-cls-25"/><rect width="4.11" height="7.94" x="22.3" y="18.79" class="a25-cls-28" rx=".49" ry=".49" data-color-action="fill" style="fill:inherit"/><path d="M25.92 26.73h-3.13a.49.49 0 0 1-.49-.49V20.4a13.14 13.14 0 0 1 4.11 0v5.83a.49.49 0 0 1-.49.5z" class="a25-cls-18" data-color-action="fill" style="fill:inherit"/><path d="M26.08 25.32v1.11a.16.16 0 0 1-.16.16h-3.13a.16.16 0 0 1-.16-.16v-1.11z" class="a25-cls-25"/><rect width="4.11" height="7.94" x="32.22" y="18.79" class="a25-cls-28" rx=".49" ry=".49" data-color-action="fill" style="fill:inherit"/><path d="M35.84 26.73h-3.13a.49.49 0 0 1-.49-.49V20.4a13.14 13.14 0 0 1 4.11 0v5.83a.49.49 0 0 1-.49.5z" class="a25-cls-18" data-color-action="fill" style="fill:inherit"/><path d="M36 25.32v1.11a.16.16 0 0 1-.16.16h-3.13a.16.16 0 0 1-.16-.16v-1.11z" class="a25-cls-25"/><path d="M8.21 27.17h42.21v1.45H8.21z" class="a25-cls-18" data-color-action="fill" style="fill:inherit"/><path d="M8.21 27.17h42.21v.25H8.21z" class="a25-cls-28" data-color-action="fill" style="fill:inherit"/><path d="M8.21 28.02h42.21v.4H8.21z" class="a25-cls-25"/></g><path id="a25_apicoectomy" d="M36.84 116.84l-7.34-11.66-7.34 11.66h14.68z" class="a25-cls-17" data-color-action="fill" style="fill:inherit"/><circle id="a25_abscess" cx="29.5" cy="111.34" r="6.5" class="a25-cls-38" data-color-action="fill" style="fill:inherit"/><g id="a25_blunted_roots" data-name="blunted roots"><path d="M2 69h55v70H2z" class="a25-cls-23"/><path d="M2 66.92h55v2H2z" class="a25-cls-37" data-color-action="fill" style="fill:inherit"/></g><path id="a25_root_amputation" d="M2 45.03h55v94.31H2z" class="a25-cls-23" data-name="root amputation"/><path id="a25_missing_crown" d="M2 1.83h55v43.3H2z" class="a25-cls-23" data-name="missing crown"/><g id="a25_missing_tooth" data-name="missing tooth"><path d="M41.23 10.72c2 1.66 3.59 24.21-1 31.34a3.37 3.37 0 0 1-.67.75c0 5.56-1.74 27.21-4.47 40.71-3 14.67-9.64 22.88-10.85 22.31-2.34-1.11.19-9.84-.49-25.89-.48-11.37-4-33.88-4.41-36.47a2.37 2.37 0 0 1-.33-.22c-4.41-3.6-4-26-.8-29.64s21.41-4.21 23.02-2.89z" class="a25-cls-3"/><path d="M39.55 41.73c.29 2.82-1.48 27.12-4.44 41.79s-9.64 22.88-10.85 22.31c-2.34-1.11.19-9.84-.49-25.89-.49-11.59-4.11-34.78-4.44-36.61-1.1-6.33 19.36-9.98 20.22-1.6z" class="a25-cls-23"/><path d="M37.63 47.62c.13-3-.18-6.46.54-8.69a4.38 4.38 0 0 1 1.38 2.8c.29 2.82-1.48 27.12-4.44 41.79a58.84 58.84 0 0 1-5.19 15.24A57.88 57.88 0 0 0 34 84.18c.95-7.7 3.45-32.26 3.63-36.56zM23.77 79.94c-.49-11.59-4.11-34.78-4.44-36.61a3 3 0 0 1 .54-2.25 5.12 5.12 0 0 1 1.27 2.24c.72 3 1.61 11.29 2.69 20.08a151.47 151.47 0 0 1 .9 24.2 39.33 39.33 0 0 1-1.06 6.14c.2-3.74.33-8.35.1-13.8z" class="a25-cls-23"/><path d="M27.43 45c-.17 3 .78 15.07 1.42 21.47.72 7.17.72 17.93-.84 26-.83 4.33-2.1 9.67-2.84 9.38s1.45-10.25 1.52-14.78c.36-22-3.13-40-3.13-42s4.07-3.64 3.87-.07z" class="a25-cls-23"/><path d="M40.26 42.05c4.57-7.13 3-29.67 1-31.34-1.62-1.31-19.8-.71-23 2.9s-3.6 26 .8 29.64c2.39 1.99 18.43 3.12 21.2-1.2z" class="a25-cls-23"/><path d="M39.06 10.22a5.14 5.14 0 0 1 2.17.5c2 1.66 3.59 24.21-1 31.34a4.91 4.91 0 0 1-2.34 1.71c2.75-7.57 2.31-26.91 1.17-33.55zM18.23 13.62a6.18 6.18 0 0 1 2.34-1.42c-1.9 5.35-2.18 25 .1 31.79a5 5 0 0 1-1.67-.73c-4.38-3.61-4-26.04-.77-29.64zM27.22 27.58c-.14 4.14 0 13.87.21 17.39a38.27 38.27 0 0 1-3.22-.28 116.7 116.7 0 0 1-.75-16c.28-4.86.79-13.95 1-17.61 1.19-.24 2.46-.43 3.76-.58-.33 3.94-.85 12.81-1 17.08z" class="a25-cls-23"/></g><g id="a25_extracted_tooth" class="a25-msng-cls-10" data-name="extracted tooth"><path d="M9 10.51l41.67 41.66M50.67 10.51L9 52.17" class="a25-msng-cls-11" data-color-action="stroke" style="stroke:inherit"/></g><g id="a25_denture"><path d="M2 2.83h55v135.01H2z" class="a25-cls-23" transform="rotate(-180 29.5 70.34)"/><path d="M57 60.78A22.63 22.63 0 0 1 44.78 64c-7.64 0-10-3.22-15.79-3.22S19.15 64 13.2 64A24.26 24.26 0 0 1 2 60.78V2.83h55z" class="a25-cls-31" data-color-action="fill" style="fill:inherit"/><path d="M40.26 42.05c4.57-7.13 3-29.67 1-31.34-1.62-1.31-19.8-.71-23 2.9s-3.6 26 .8 29.64c2.39 1.99 18.43 3.12 21.2-1.2z" class="a25-cls-3"/><path d="M40.26 42.05c4.57-7.13 3-29.67 1-31.34-1.62-1.31-19.8-.71-23 2.9s-3.6 26 .8 29.64c2.39 1.99 18.43 3.12 21.2-1.2z" class="a25-cls-7"/><path d="M39.06 10.22a5.14 5.14 0 0 1 2.17.5c2 1.66 3.59 24.21-1 31.34a4.91 4.91 0 0 1-2.34 1.71c2.75-7.57 2.31-26.91 1.17-33.55zM18.23 13.62a6.18 6.18 0 0 1 2.34-1.42c-1.9 5.35-2.18 25 .1 31.79a5 5 0 0 1-1.67-.73c-4.38-3.61-4-26.04-.77-29.64z" class="a25-cls-8"/><path d="M27.22 27.58c-.14 4.14 0 13.87.21 17.39a38.27 38.27 0 0 1-3.22-.28 116.7 116.7 0 0 1-.75-16c.28-4.86.79-13.95 1-17.61 1.19-.24 2.46-.43 3.76-.58-.33 3.94-.85 12.81-1 17.08z" class="a25-cls-9"/></g><g id="a25_maryland_bridge_pontic" class="a25-cls-12" data-name="maryland bridge pontic"><path d="M40.26 42.05c4.57-7.13 3-29.67 1-31.34-1.62-1.31-19.8-.71-23 2.9s-3.6 26 .8 29.64c2.39 1.99 18.43 3.12 21.2-1.2z" class="a25-cls-20" data-color-action="fill" style="fill:inherit"/><path d="M2 23h55v7.67H2z" class="a25-cls-20" data-color-action="fill" style="fill:inherit"/></g><g id="a25_maryland_bridge_abutment_mesial" data-name="maryland bridge abutment mesial"><path d="M22.02 23H57v7.67H22.02z" class="a25-cls-12 a25-cls-20" data-color-action="fill" style="fill:inherit"/><path d="M41.23 10.72c2 1.66 3.59 24.21-1 31.34a3.37 3.37 0 0 1-.67.75c0 5.56-1.74 27.21-4.47 40.71-3 14.67-9.64 22.88-10.85 22.31-2.34-1.11.19-9.84-.49-25.89-.48-11.37-4-33.88-4.41-36.47a2.37 2.37 0 0 1-.33-.22c-4.41-3.6-4-26-.8-29.64s21.41-4.21 23.02-2.89z" class="a25-cls-3"/><path d="M39.55 41.73c.29 2.82-1.48 27.12-4.44 41.79s-9.64 22.88-10.85 22.31c-2.34-1.11.19-9.84-.49-25.89-.49-11.59-4.11-34.78-4.44-36.61-1.1-6.33 19.36-9.98 20.22-1.6z" class="a25-cls-4"/><path d="M37.63 47.62c.13-3-.18-6.46.54-8.69a4.38 4.38 0 0 1 1.38 2.8c.29 2.82-1.48 27.12-4.44 41.79a58.84 58.84 0 0 1-5.19 15.24A57.88 57.88 0 0 0 34 84.18c.95-7.7 3.45-32.26 3.63-36.56zM23.77 79.94c-.49-11.59-4.11-34.78-4.44-36.61a3 3 0 0 1 .54-2.25 5.12 5.12 0 0 1 1.27 2.24c.72 3 1.61 11.29 2.69 20.08a151.47 151.47 0 0 1 .9 24.2 39.33 39.33 0 0 1-1.06 6.14c.2-3.74.33-8.35.1-13.8z" class="a25-cls-5"/><path d="M27.43 45c-.17 3 .78 15.07 1.42 21.47.72 7.17.72 17.93-.84 26-.83 4.33-2.1 9.67-2.84 9.38s1.45-10.25 1.52-14.78c.36-22-3.13-40-3.13-42s4.07-3.64 3.87-.07z" class="a25-cls-6"/><path d="M40.26 42.05c4.57-7.13 3-29.67 1-31.34-1.62-1.31-19.8-.71-23 2.9s-3.6 26 .8 29.64c2.39 1.99 18.43 3.12 21.2-1.2z" class="a25-cls-7"/><path d="M39.06 10.22a5.14 5.14 0 0 1 2.17.5c2 1.66 3.59 24.21-1 31.34a4.91 4.91 0 0 1-2.34 1.71c2.75-7.57 2.31-26.91 1.17-33.55zM18.23 13.62a6.18 6.18 0 0 1 2.34-1.42c-1.9 5.35-2.18 25 .1 31.79a5 5 0 0 1-1.67-.73c-4.38-3.61-4-26.04-.77-29.64z" class="a25-cls-8"/><path d="M27.22 27.58c-.14 4.14 0 13.87.21 17.39a38.27 38.27 0 0 1-3.22-.28 116.7 116.7 0 0 1-.75-16c.28-4.86.79-13.95 1-17.61 1.19-.24 2.46-.43 3.76-.58-.33 3.94-.85 12.81-1 17.08z" class="a25-cls-9"/></g><g id="a25_maryland_bridge_abutment_distal" data-name="maryland bridge abutment distal"><path d="M2 23h34.98v7.67H2z" class="a25-cls-12 a25-cls-20" data-color-action="fill" style="fill:inherit"/><path d="M41.23 10.72c2 1.66 3.59 24.21-1 31.34a3.37 3.37 0 0 1-.67.75c0 5.56-1.74 27.21-4.47 40.71-3 14.67-9.64 22.88-10.85 22.31-2.34-1.11.19-9.84-.49-25.89-.48-11.37-4-33.88-4.41-36.47a2.37 2.37 0 0 1-.33-.22c-4.41-3.6-4-26-.8-29.64s21.41-4.21 23.02-2.89z" class="a25-cls-3"/><path d="M39.55 41.73c.29 2.82-1.48 27.12-4.44 41.79s-9.64 22.88-10.85 22.31c-2.34-1.11.19-9.84-.49-25.89-.49-11.59-4.11-34.78-4.44-36.61-1.1-6.33 19.36-9.98 20.22-1.6z" class="a25-cls-4"/><path d="M37.63 47.62c.13-3-.18-6.46.54-8.69a4.38 4.38 0 0 1 1.38 2.8c.29 2.82-1.48 27.12-4.44 41.79a58.84 58.84 0 0 1-5.19 15.24A57.88 57.88 0 0 0 34 84.18c.95-7.7 3.45-32.26 3.63-36.56zM23.77 79.94c-.49-11.59-4.11-34.78-4.44-36.61a3 3 0 0 1 .54-2.25 5.12 5.12 0 0 1 1.27 2.24c.72 3 1.61 11.29 2.69 20.08a151.47 151.47 0 0 1 .9 24.2 39.33 39.33 0 0 1-1.06 6.14c.2-3.74.33-8.35.1-13.8z" class="a25-cls-5"/><path d="M27.43 45c-.17 3 .78 15.07 1.42 21.47.72 7.17.72 17.93-.84 26-.83 4.33-2.1 9.67-2.84 9.38s1.45-10.25 1.52-14.78c.36-22-3.13-40-3.13-42s4.07-3.64 3.87-.07z" class="a25-cls-6"/><path d="M40.26 42.05c4.57-7.13 3-29.67 1-31.34-1.62-1.31-19.8-.71-23 2.9s-3.6 26 .8 29.64c2.39 1.99 18.43 3.12 21.2-1.2z" class="a25-cls-7"/><path d="M39.06 10.22a5.14 5.14 0 0 1 2.17.5c2 1.66 3.59 24.21-1 31.34a4.91 4.91 0 0 1-2.34 1.71c2.75-7.57 2.31-26.91 1.17-33.55zM18.23 13.62a6.18 6.18 0 0 1 2.34-1.42c-1.9 5.35-2.18 25 .1 31.79a5 5 0 0 1-1.67-.73c-4.38-3.61-4-26.04-.77-29.64z" class="a25-cls-8"/><path d="M27.22 27.58c-.14 4.14 0 13.87.21 17.39a38.27 38.27 0 0 1-3.22-.28 116.7 116.7 0 0 1-.75-16c.28-4.86.79-13.95 1-17.61 1.19-.24 2.46-.43 3.76-.58-.33 3.94-.85 12.81-1 17.08z" class="a25-cls-9"/></g><g id="a25_maryland_bridge_abutment" data-name="maryland bridge abutment"><path d="M2 23h55v7.67H2z" class="a25-cls-12 a25-cls-20" data-color-action="fill" style="fill:inherit"/><path d="M41.23 10.72c2 1.66 3.59 24.21-1 31.34a3.37 3.37 0 0 1-.67.75c0 5.56-1.74 27.21-4.47 40.71-3 14.67-9.64 22.88-10.85 22.31-2.34-1.11.19-9.84-.49-25.89-.48-11.37-4-33.88-4.41-36.47a2.37 2.37 0 0 1-.33-.22c-4.41-3.6-4-26-.8-29.64s21.41-4.21 23.02-2.89z" class="a25-cls-3"/><path d="M39.55 41.73c.29 2.82-1.48 27.12-4.44 41.79s-9.64 22.88-10.85 22.31c-2.34-1.11.19-9.84-.49-25.89-.49-11.59-4.11-34.78-4.44-36.61-1.1-6.33 19.36-9.98 20.22-1.6z" class="a25-cls-4"/><path d="M37.63 47.62c.13-3-.18-6.46.54-8.69a4.38 4.38 0 0 1 1.38 2.8c.29 2.82-1.48 27.12-4.44 41.79a58.84 58.84 0 0 1-5.19 15.24A57.88 57.88 0 0 0 34 84.18c.95-7.7 3.45-32.26 3.63-36.56zM23.77 79.94c-.49-11.59-4.11-34.78-4.44-36.61a3 3 0 0 1 .54-2.25 5.12 5.12 0 0 1 1.27 2.24c.72 3 1.61 11.29 2.69 20.08a151.47 151.47 0 0 1 .9 24.2 39.33 39.33 0 0 1-1.06 6.14c.2-3.74.33-8.35.1-13.8z" class="a25-cls-5"/><path d="M27.43 45c-.17 3 .78 15.07 1.42 21.47.72 7.17.72 17.93-.84 26-.83 4.33-2.1 9.67-2.84 9.38s1.45-10.25 1.52-14.78c.36-22-3.13-40-3.13-42s4.07-3.64 3.87-.07z" class="a25-cls-6"/><path d="M40.26 42.05c4.57-7.13 3-29.67 1-31.34-1.62-1.31-19.8-.71-23 2.9s-3.6 26 .8 29.64c2.39 1.99 18.43 3.12 21.2-1.2z" class="a25-cls-7"/><path d="M39.06 10.22a5.14 5.14 0 0 1 2.17.5c2 1.66 3.59 24.21-1 31.34a4.91 4.91 0 0 1-2.34 1.71c2.75-7.57 2.31-26.91 1.17-33.55zM18.23 13.62a6.18 6.18 0 0 1 2.34-1.42c-1.9 5.35-2.18 25 .1 31.79a5 5 0 0 1-1.67-.73c-4.38-3.61-4-26.04-.77-29.64z" class="a25-cls-8"/><path d="M27.22 27.58c-.14 4.14 0 13.87.21 17.39a38.27 38.27 0 0 1-3.22-.28 116.7 116.7 0 0 1-.75-16c.28-4.86.79-13.95 1-17.61 1.19-.24 2.46-.43 3.76-.58-.33 3.94-.85 12.81-1 17.08z" class="a25-cls-9"/></g><g id="a25_bridge_abutment_mesial" class="a25-cls-12" data-name="bridge abutment mesial"><path d="M40.26 42.05c4.57-7.13 3-29.67 1-31.34-1.62-1.31-19.8-.71-23 2.9s-3.6 26 .8 29.64c2.39 1.99 18.43 3.12 21.2-1.2z" class="a25-cls-18" data-color-action="fill" style="fill:inherit"/><path d="M22.02 23H57v7.67H22.02z" class="a25-cls-18" data-color-action="fill" style="fill:inherit"/></g><g id="a25_bridge_abutment_distal" class="a25-cls-12" data-name="bridge abutment distal"><path d="M40.26 42.05c4.57-7.13 3-29.67 1-31.34-1.62-1.31-19.8-.71-23 2.9s-3.6 26 .8 29.64c2.39 1.99 18.43 3.12 21.2-1.2z" class="a25-cls-18" data-color-action="fill" style="fill:inherit"/><path d="M2 23h34.98v7.67H2z" class="a25-cls-18" data-color-action="fill" style="fill:inherit"/></g><g id="a25_bridge_abutment" class="a25-cls-12" data-name="bridge abutment"><path d="M40.26 42.05c4.57-7.13 3-29.67 1-31.34-1.62-1.31-19.8-.71-23 2.9s-3.6 26 .8 29.64c2.39 1.99 18.43 3.12 21.2-1.2z" class="a25-cls-18" data-color-action="fill" style="fill:inherit"/><path d="M2 23h55v7.67H2z" class="a25-cls-18" data-color-action="fill" style="fill:inherit"/></g><g id="a25_bridge_pontic" data-name="bridge pontic"><path d="M41.23 10.72c2 1.66 3.59 24.21-1 31.34a3.37 3.37 0 0 1-.67.75c0 5.56-1.74 27.21-4.47 40.71-3 14.67-9.64 22.88-10.85 22.31-2.34-1.11.19-9.84-.49-25.89-.48-11.37-4-33.88-4.41-36.47a2.37 2.37 0 0 1-.33-.22c-4.41-3.6-4-26-.8-29.64s21.41-4.21 23.02-2.89z" class="a25-cls-3"/><path d="M39.55 41.73c.29 2.82-1.48 27.12-4.44 41.79s-9.64 22.88-10.85 22.31c-2.34-1.11.19-9.84-.49-25.89-.49-11.59-4.11-34.78-4.44-36.61-1.1-6.33 19.36-9.98 20.22-1.6z" class="a25-cls-23"/><path d="M37.63 47.62c.13-3-.18-6.46.54-8.69a4.38 4.38 0 0 1 1.38 2.8c.29 2.82-1.48 27.12-4.44 41.79a58.84 58.84 0 0 1-5.19 15.24A57.88 57.88 0 0 0 34 84.18c.95-7.7 3.45-32.26 3.63-36.56zM23.77 79.94c-.49-11.59-4.11-34.78-4.44-36.61a3 3 0 0 1 .54-2.25 5.12 5.12 0 0 1 1.27 2.24c.72 3 1.61 11.29 2.69 20.08a151.47 151.47 0 0 1 .9 24.2 39.33 39.33 0 0 1-1.06 6.14c.2-3.74.33-8.35.1-13.8z" class="a25-cls-23"/><path d="M27.43 45c-.17 3 .78 15.07 1.42 21.47.72 7.17.72 17.93-.84 26-.83 4.33-2.1 9.67-2.84 9.38s1.45-10.25 1.52-14.78c.36-22-3.13-40-3.13-42s4.07-3.64 3.87-.07z" class="a25-cls-23"/><path d="M40.26 42.05c4.57-7.13 3-29.67 1-31.34-1.62-1.31-19.8-.71-23 2.9s-3.6 26 .8 29.64c2.39 1.99 18.43 3.12 21.2-1.2z" class="a25-cls-7"/><path d="M39.06 10.22a5.14 5.14 0 0 1 2.17.5c2 1.66 3.59 24.21-1 31.34a4.91 4.91 0 0 1-2.34 1.71c2.75-7.57 2.31-26.91 1.17-33.55zM18.23 13.62a6.18 6.18 0 0 1 2.34-1.42c-1.9 5.35-2.18 25 .1 31.79a5 5 0 0 1-1.67-.73c-4.38-3.61-4-26.04-.77-29.64z" class="a25-cls-8"/><path d="M27.22 27.58c-.14 4.14 0 13.87.21 17.39a38.27 38.27 0 0 1-3.22-.28 116.7 116.7 0 0 1-.75-16c.28-4.86.79-13.95 1-17.61 1.19-.24 2.46-.43 3.76-.58-.33 3.94-.85 12.81-1 17.08z" class="a25-cls-9"/><g class="a25-cls-12"><path d="M40.26 42.05c4.57-7.13 3-29.67 1-31.34-1.62-1.31-19.8-.71-23 2.9s-3.6 26 .8 29.64c2.39 1.99 18.43 3.12 21.2-1.2z" class="a25-cls-18" data-color-action="fill" style="fill:inherit"/><path d="M2 23h55v7.67H2z" class="a25-cls-18" data-color-action="fill" style="fill:inherit"/></g></g><g id="a25_implant_mini" data-name="implant mini"><path d="M2.39 1.79h55v137.17h-55z" class="a25-cls-23"/><path d="M29.72 77.93h-.44l-1-8.49V28.6h2.44v40.84l-1 8.49z" class="a25-cls-18" data-color-action="fill" style="fill:inherit"/><path d="M29.42 77.93h-.07l-.4-8.49V28.6h.37v40.84l.1 8.49z" class="a25-cls-25"/><path d="M28.28 28.6h2.44v.63h-2.44z" class="a25-cls-28" data-color-action="fill" style="fill:inherit"/><g class="a25-cls-29"><path d="M28.28 29.23l2.44 1v-.63l-2.44-1v.63zM28.28 30.68l2.44 1v-.63l-2.44-1v.63zM28.28 32.12l2.44 1v-.63l-2.44-1v.63zM28.28 33.57l2.44 1v-.63l-2.44-1v.63zM28.28 35.02l2.44 1v-.64l-2.44-1v.64zM28.28 36.46l2.44 1v-.63l-2.44-1v.63zM28.28 37.91l2.44 1v-.64l-2.44-1v.64zM28.28 39.35l2.44 1v-.63l-2.44-1v.63zM28.28 40.8l2.44 1v-.64l-2.44-1v.64zM28.28 42.24l2.44 1v-.63l-2.44-1v.63zM28.28 43.69l2.44 1v-.64l-2.44-1v.64zM28.28 45.13l2.44 1v-.63l-2.44-1v.63zM28.28 46.58l2.44 1v-.63l-2.44-1v.63zM28.28 48.02l2.44 1v-.63l-2.44-1v.63zM28.28 49.47l2.44 1v-.63l-2.44-1v.63zM28.28 50.91l2.44 1v-.63l-2.44-1v.63zM28.28 52.36l2.44 1v-.63l-2.44-1v.63zM28.28 53.8l2.44 1.01v-.64l-2.44-1v.63zM28.28 55.25l2.44 1v-.63l-2.44-1v.63zM28.28 56.7l2.44 1v-.64l-2.44-1v.64zM28.28 58.14l2.44 1v-.63l-2.44-1v.63zM28.28 59.59l2.44 1v-.63l-2.44-1.01v.64zM28.28 61.03l2.44 1v-.63l-2.44-1v.63zM28.28 62.48l2.44 1v-.63l-2.44-1v.63zM28.28 63.92l2.44 1v-.63l-2.44-1v.63zM28.28 65.37l2.44 1v-.63l-2.44-1v.63zM28.28 66.81l2.44 1v-.63l-2.44-1v.63zM28.28 68.26l2.44 1v-.63l-2.44-1v.63zM28.28 69.44l.03.28 2.27.93.07-.61-2.37-.97v.37zM28.49 71.24l1.93.79.07-.61-2.08-.85.08.67zM28.67 72.76l1.58.65.08-.61-1.74-.71.08.67zM28.85 74.28l1.24.5.07-.6-1.39-.57.08.67zM29.03 75.79l.9.37.07-.6-1.05-.43.08.66zM29.2 77.31l.57.23.07-.6-.71-.29.07.66z" class="a25-cls-28" data-color-action="fill" style="fill:inherit"/></g><circle cx="29.5" cy="24.73" r="2.24" class="a25-cls-18" data-color-action="fill" style="fill:inherit"/><path d="M27.67 25.95h3.67v3h-3.67z" class="a25-cls-18" data-color-action="fill" style="fill:inherit"/><path d="M28.49 25.95h.55v3h-.55z" class="a25-cls-25"/><path d="M28.7 23.37h-.21a2.32 2.32 0 0 0-.49 1.29 2.37 2.37 0 0 0 .52 1.3H29a2 2 0 0 1-.73-1.37 1.5 1.5 0 0 1 .43-1.22z" class="a25-cls-25"/><path d="M28.28 34.67h2.44v.63h-2.44z" class="a25-cls-28" data-color-action="fill" style="fill:inherit"/><path d="M32.11 28.92h-5.22l.87 5.71h3.48l.87-5.71z" class="a25-cls-18" data-color-action="fill" style="fill:inherit"/><path d="M28.85 28.92h-.79l.48 5.71h.53l-.22-5.71z" class="a25-cls-25"/></g><g id="a25_implant_cylinder" data-name="implant cylinder"><path d="M2 1.83h55V139H2z" class="a25-cls-23"/><path d="M26.17 25.65h6.67v49.33h-6.67z" class="a25-cls-18" data-color-action="fill" style="fill:inherit"/><path d="M24.5 22.66h10v3h-10z" class="a25-cls-18" data-color-action="fill" style="fill:inherit"/><path d="M28 25.65h1v49.33h-1z" class="a25-cls-25"/><path d="M26.75 22.66h1.5v3h-1.5z" class="a25-cls-25"/><path d="M24.5 75.02h10v3h-10z" class="a25-cls-18" data-color-action="fill" style="fill:inherit"/><path d="M26.75 75.02h1.5v3h-1.5z" class="a25-cls-25"/><path d="M26.17 25.65h6.67v.63h-6.67zM26.17 74.35h6.67v.63h-6.67z" class="a25-cls-28" data-color-action="fill" style="fill:inherit"/><g class="a25-cls-29"><path d="M32.83 73.35l-6.66 1.01v.63l6.66-1v-.64zM32.83 71.91l-6.66 1v.63l6.66-1v-.63zM32.83 70.46l-6.66 1v.64l6.66-1.01v-.63zM32.83 69.02l-6.66 1v.63l6.66-1v-.63zM32.83 67.57l-6.66 1v.63l6.66-1v-.63zM32.83 66.13l-6.66 1v.63l6.66-1v-.63zM32.83 64.68l-6.66 1v.63l6.66-1v-.63zM32.83 63.24l-6.66 1v.63l6.66-1v-.63zM32.83 61.79l-6.66 1v.63l6.66-1v-.63zM32.83 60.34l-6.66 1.01v.63l6.66-1v-.64zM32.83 58.9l-6.66 1v.63l6.66-1v-.63zM32.83 57.45l-6.66 1v.64l6.66-1v-.64zM32.83 56.01l-6.66 1v.63l6.66-1v-.63zM32.83 54.56l-6.66 1v.64l6.66-1v-.64zM32.83 53.12l-6.66 1v.63l6.66-1v-.63zM32.83 51.67l-6.66 1v.63l6.66-1v-.63zM32.83 50.23l-6.66 1v.63l6.66-1v-.63zM32.83 48.78l-6.66 1v.63l6.66-1v-.63zM32.83 47.34l-6.66 1v.63l6.66-1v-.63zM32.83 45.89l-6.66 1v.63l6.66-1v-.63zM32.83 44.45l-6.66 1v.63l6.66-1v-.63zM32.83 43l-6.66 1v.63l6.66-1V43zM32.83 41.55l-6.66 1v.64l6.66-1v-.64zM32.83 40.11l-6.66 1v.63l6.66-1v-.63zM32.83 38.66l-6.66 1v.64l6.66-1v-.64zM32.83 37.22l-6.66 1v.63l6.66-1v-.63zM32.83 35.77l-6.66 1v.64l6.66-1v-.64zM32.83 34.33l-6.66 1v.63l6.66-1v-.63zM32.83 32.88l-6.66 1v.63l6.66-1v-.63zM32.83 31.44l-6.66 1v.63l6.66-1v-.63zM32.83 29.99l-6.66 1v.63l6.66-1v-.63zM32.83 28.55l-6.66 1v.63l6.66-1v-.63zM32.83 27.1l-6.66 1v.63l6.66-1v-.63zM32.83 25.65l-6.66 1.01v.63l6.66-1v-.64z" class="a25-cls-28" data-color-action="fill" style="fill:inherit"/></g></g><g id="a25_implant_blade" data-name="implant blade"><path d="M2 1.83h55V139H2z" class="a25-cls-23"/><path d="M26.17 25.65h6.67v49.33h-6.67z" class="a25-cls-18" data-color-action="fill" style="fill:inherit"/><path d="M24.5 22.66h10v3h-10z" class="a25-cls-18" data-color-action="fill" style="fill:inherit"/><path d="M28 25.65h1v49.33h-1z" class="a25-cls-25"/><path d="M26.75 22.66h1.5v3h-1.5z" class="a25-cls-25"/><path d="M26.17 25.65h6.67v.63h-6.67z" class="a25-cls-28" data-color-action="fill" style="fill:inherit"/></g><path id="a25_watch_tooth" d="M8.27 153.9a3.26 3.26 0 0 1 3.22-3.26 3.24 3.24 0 1 1 0 6.47 3.25 3.25 0 0 1-3.22-3.21zm1-5.91l-.88-18.09h6.15l-.8 18.1z" class="a25-cls-11" data-color-action="fill" style="fill:inherit" data-name="watch tooth"/><path id="a25_border" d="M0 0h59v161H0z" class="a25-cls-15" transform="rotate(180 29.5 80.5)"/></defs></g><g class="c25-cls-1"><g id="_25C" data-name="#25C"><path d="M40.26 23.21c4.57 7.13 3 29.67 1 31.34-1.62 1.31-19.8.71-23-2.9s-3.6-26 .8-29.64c2.39-2.01 18.43-3.12 21.2 1.2z" class="c25-cls-2"/><path d="M40.26 23.21c4.57 7.13 3 29.67 1 31.34-1.62 1.31-19.8.71-23-2.9s-3.6-26 .8-29.64c2.39-2.01 18.43-3.12 21.2 1.2z" class="c25-cls-3"/><path d="M40.15 31.14c-.19-1.71-1.85-6.64-3.8-7.06a35.28 35.28 0 0 0-8.51-.72c-2.17.18-4.71.36-6.34 1.27-1.15.64-2 4.89-2.17 6s.36 2.72 1.27.72 2-5.07 5.07-5.25 5.43-.72 6.7.18 2.59 0 3.44.36c1.45.54 2.17 2 3.08 4.17.5 1.19 1.44 1.96 1.26.33z" class="c25-cls-4"/><path d="M16.84 48.32A19.19 19.19 0 0 0 20 50.7c2 1.09 5.25 1.09 9.06 1.45s10.14.91 12.13-.36a7.06 7.06 0 0 0 1.22-1c-.34 2-.77 3.4-1.22 3.76-1.62 1.31-19.8.71-23-2.9a8.33 8.33 0 0 1-1.35-3.33z" class="c25-cls-5"/></g><defs><g id="c25_splinted_crowns" data-name="splinted crowns"><path d="M2 15.05h55v7.67H2z" class="c25-cls-12" data-color-action="fill" style="fill:inherit"/><path d="M40.26 23.21c4.57 7.13 3 29.67 1 31.34-1.62 1.31-19.8.71-23-2.9s-3.6-26 .8-29.64c2.39-2.01 18.43-3.12 21.2 1.2z" class="c25-cls-2"/><path d="M40.26 23.21c4.57 7.13 3 29.67 1 31.34-1.62 1.31-19.8.71-23-2.9s-3.6-26 .8-29.64c2.39-2.01 18.43-3.12 21.2 1.2z" class="c25-cls-3"/><path d="M40.15 31.14c-.19-1.71-1.85-6.64-3.8-7.06a35.28 35.28 0 0 0-8.51-.72c-2.17.18-4.71.36-6.34 1.27-1.15.64-2 4.89-2.17 6s.36 2.72 1.27.72 2-5.07 5.07-5.25 5.43-.72 6.7.18 2.59 0 3.44.36c1.45.54 2.17 2 3.08 4.17.5 1.19 1.44 1.96 1.26.33z" class="c25-cls-4"/><path d="M16.84 48.32A19.19 19.19 0 0 0 20 50.7c2 1.09 5.25 1.09 9.06 1.45s10.14.91 12.13-.36a7.06 7.06 0 0 0 1.22-1c-.34 2-.77 3.4-1.22 3.76-1.62 1.31-19.8.71-23-2.9a8.33 8.33 0 0 1-1.35-3.33z" class="c25-cls-5"/></g><path id="c25_mesial" d="M42.94 46.86l-4.68-2.54c.69-1.8.31-4.32.74-6.9.32-1.94 2.18-2.79 4-3.16a78 78 0 0 1-.06 12.6z" class="c25-cls-6" data-color-action="fill" style="fill:inherit"/><path id="c25_line_angle_4" d="M36.07 46.42a3.41 3.41 0 0 0 2.2-2.1l4.68 2.54c-.36 4.05-1 7.12-1.71 7.69-.52.42-2.76.65-5.66.64L33.05 47a12.35 12.35 0 0 0 3.02-.58z" class="c25-cls-6" data-color-action="fill" style="fill:inherit" data-name="line angle 4"/><path id="c25_lingual" d="M24.38 46.64a35.51 35.51 0 0 0 8.67.38l2.53 8.16a57.25 57.25 0 0 1-13-1.46z" class="c25-cls-6" data-color-action="fill" style="fill:inherit"/><path id="c25_line_angle_3" d="M18.23 51.65c-.78-.88-1.39-2.86-1.81-5.42l4.3-2.5a3.82 3.82 0 0 0 2.3 2.6c.38.11.85.21 1.37.31l-1.78 7.08a9.37 9.37 0 0 1-4.38-2.07z" class="c25-cls-6" data-color-action="fill" style="fill:inherit" data-name="line angle 3"/><path id="c25_distal" d="M19.58 38.06a25.52 25.52 0 0 0 1.14 5.68l-4.3 2.5a60.57 60.57 0 0 1-.57-12c1.66.56 3.44 1.65 3.73 3.82z" class="c25-cls-6" data-color-action="fill" style="fill:inherit"/><ellipse id="c25_mid_lingual" cx="29.19" cy="36.12" class="c25-cls-6" rx="4.04" ry="8.29" data-color-action="fill" style="fill:inherit" data-name="mid lingual"/><path id="c25_lingual_V" d="M20.59 21.3c3.67-1.13 11.88-1.61 16.58-.07a13.15 13.15 0 0 1-8.34 2.85 13.16 13.16 0 0 1-8.24-2.78z" class="c25-cls-6" data-color-action="fill" style="fill:inherit" data-name="lingual V"/><g id="c25_veneer"><path d="M28 61.75h3v3h-3z" class="c25-cls-7"/><path d="M28 61.75h3v3h-3z" class="c25-cls-7"/><path d="M28 61.75h3v3h-3z" class="c25-cls-7"/></g><g id="c25_tissue_graft" data-name="tissue graft"><path d="M28 61.75h3v3h-3z" class="c25-cls-7"/><path d="M28 61.75h3v3h-3z" class="c25-cls-7"/><path d="M28 61.75h3v3h-3z" class="c25-cls-7"/></g><g id="c25_tipped_lingual" class="c25-cls-8" data-name="tipped lingual"><path d="M30.35 59.07c-1.26 3.37-4.74 3.85-7.69-5.32-.5-1.56-4.42-1.76-3.84 0 2 6.08 5.31 10.2 9.06 9.27a4.86 4.86 0 0 0 3-3.38 5.27 5.27 0 0 1-.53-.57z" class="c25-cls-9" data-color-action="fill" style="fill:inherit"/><path d="M28.27 56.15H15.33l2.94-9.64 10 9.64z" class="c25-cls-9" data-color-action="fill" style="fill:inherit"/></g><g id="c25_tipped_facial" data-name="tipped facial"><path d="M28 61.75h3v3h-3z" class="c25-cls-7"/><path d="M28 61.75h3v3h-3z" class="c25-cls-7"/><path d="M28 61.75h3v3h-3z" class="c25-cls-7"/></g><path id="c25_surface_restoration_incisal" d="M41.16 54.65l-5.4-6.41a46.54 46.54 0 0 1-12.14-1.44v-.14l-5 5.4c3.97 3.25 20.6 3.8 22.54 2.59z" class="c25-cls-10" data-color-action="fill" style="fill:inherit" data-name="surface restoration incisal"/><path id="c25_surface_restoration_mesial" d="M41.23 54.61c1.58-1.28 2.85-14.95 1.27-24.42a11.52 11.52 0 0 1-6.87-6.46c.68 8 .69 20.38.18 24.51h-.05l5.4 6.41z" class="c25-cls-10" data-color-action="fill" style="fill:inherit" data-name="surface restoration mesial"/><path id="c25_surface_restoration_lingual" d="M23.15 23.56a11.82 11.82 0 0 1-.42 1.36c-.26 8 .12 19.06.89 21.88a46.56 46.56 0 0 0 12.15 1.44c.51-4.13.5-16.49-.18-24.51 0-.08-.05-.17-.09-.26a15.31 15.31 0 0 1-12.39.09z" class="c25-cls-8 c25-cls-11" data-color-action="fill" style="fill:inherit" data-name="surface restoration lingual"/><path id="c25_surface_restoration_lingual_V" d="M23.5 20.73v.09a11.29 11.29 0 0 1-.35 2.74 15.31 15.31 0 0 0 12.39-.09 11.44 11.44 0 0 1-.7-2.75 38.72 38.72 0 0 0-11.34.01z" class="c25-cls-8 c25-cls-11" data-color-action="fill" style="fill:inherit" data-name="surface restoration lingual V"/><path id="c25_surface_restoration_distal" d="M18.6 52.06l5-5.4c-.74-3-1.11-13.87-.85-21.74A11.51 11.51 0 0 1 16 31.58c-.76 7.85.14 17.83 2.18 20.13a3.25 3.25 0 0 0 .42.35z" class="c25-cls-10" data-color-action="fill" style="fill:inherit" data-name="surface restoration distal"/><g id="c25_supra-erupted"><path d="M28 61.75h3v3h-3z" class="c25-cls-7"/><path d="M28 61.75h3v3h-3z" class="c25-cls-7"/><path d="M28 61.75h3v3h-3z" class="c25-cls-7"/></g><g id="c25_sub-erupted"><path d="M28 61.75h3v3h-3z" class="c25-cls-7"/><path d="M28 61.75h3v3h-3z" class="c25-cls-7"/><path d="M28 61.75h3v3h-3z" class="c25-cls-7"/></g><g id="c25_sealant"><path d="M28 61.75h3v3h-3z" class="c25-cls-7"/><path d="M28 61.75h3v3h-3z" class="c25-cls-7"/><path d="M28 61.75h3v3h-3z" class="c25-cls-7"/></g><g id="c25_root_decay" data-name="root decay"><path d="M28 61.75h3v3h-3z" class="c25-cls-7"/><path d="M28 61.75h3v3h-3z" class="c25-cls-7"/><path d="M28 61.75h3v3h-3z" class="c25-cls-7"/></g><g id="c25_root_canal" data-name="root canal"><path d="M28 61.75h3v3h-3z" class="c25-cls-7"/><path d="M28 61.75h3v3h-3z" class="c25-cls-7"/><path d="M28 61.75h3v3h-3z" class="c25-cls-7"/></g><g id="c25_root_abrasion" data-name="root abrasion"><path d="M28 61.75h3v3h-3z" class="c25-cls-7"/><path d="M28 61.75h3v3h-3z" class="c25-cls-7"/><path d="M28 61.75h3v3h-3z" class="c25-cls-7"/></g><g id="c25_open_contact_mesial" data-name="open contact mesial"><path d="M28 61.75h3v3h-3z" class="c25-cls-7"/><path d="M28 61.75h3v3h-3z" class="c25-cls-7"/><path d="M28 61.75h3v3h-3z" class="c25-cls-7"/></g><g id="c25_open_contact_distal" data-name="open contact distal"><path d="M28 61.75h3v3h-3z" class="c25-cls-7"/><path d="M28 61.75h3v3h-3z" class="c25-cls-7"/><path d="M28 61.75h3v3h-3z" class="c25-cls-7"/></g><path id="c25_lingual_abfraction" d="M41.17 19.16s-5.22-4.11-11.67-4.11-11.67 4.11-11.67 4.11 5.22 4.11 11.67 4.11 11.67-4.11 11.67-4.11z" class="c25-cls-15" data-color-action="fill" style="fill:inherit" data-name="lingual abfraction"/><g id="c25_internal_root_resorption" data-name="internal root resorption"><path d="M28 61.75h3v3h-3z" class="c25-cls-7"/><path d="M28 61.75h3v3h-3z" class="c25-cls-7"/><path d="M28 61.75h3v3h-3z" class="c25-cls-7"/></g><g id="c25_gortex_membranes" data-name="gortex membranes"><path d="M28 61.75h3v3h-3z" class="c25-cls-7"/><path d="M28 61.75h3v3h-3z" class="c25-cls-7"/><path d="M28 61.75h3v3h-3z" class="c25-cls-7"/></g><g id="c25_frenum_pull" data-name="frenum pull"><path d="M28 61.75h3v3h-3z" class="c25-cls-7"/><path d="M28 61.75h3v3h-3z" class="c25-cls-7"/><path d="M28 61.75h3v3h-3z" class="c25-cls-7"/></g><g id="c25_external_root_resorption" data-name="external root resorption"><path d="M28 61.75h3v3h-3z" class="c25-cls-7"/><path d="M28 61.75h3v3h-3z" class="c25-cls-7"/><path d="M28 61.75h3v3h-3z" class="c25-cls-7"/></g><path id="c25_three_quarter_crown" d="M15.81 39.48c.18 5.54 1 10.61 2.42 12.17 3.2 3.6 21.39 4.21 23 2.9 1.1-.89 2-7.77 2-15.06z" class="c25-cls-8 c25-cls-19" data-color-action="fill" style="fill:inherit" data-name="three quarter crown"/><path id="c25_crown" d="M40.26 23.21c4.57 7.13 3 29.67 1 31.34-1.62 1.31-19.8.71-23-2.9s-3.6-26 .8-29.64c2.39-2.01 18.43-3.12 21.2 1.2z" class="c25-cls-8 c25-cls-19" data-color-action="fill" style="fill:inherit"/><path id="c25_cracked_surface_distal" d="M19.66 46.19l-3.83-3.84h5.01l-5.01-4.74h5.01l-3.83-3.83" class="c25-cls-20" data-color-action="stroke" style="stroke:inherit" data-name="cracked surface distal"/><path id="c25_cracked_surface_lingual" d="M30.83 46.19L27 42.35h5l-5-4.74h5l-3.83-3.83" class="c25-cls-20" data-color-action="stroke" style="stroke:inherit" data-name="cracked surface lingual"/><path id="c25_cracked_surface_lingual_V" d="M30.83 46.19L27 42.35h5l-5-4.74h5l-3.83-3.83" class="c25-cls-20" data-color-action="stroke" style="stroke:inherit" data-name="cracked surface lingual V"/><path id="c25_cracked_surface_mesial" d="M43.66 46.19l-3.83-3.84h5l-5-4.74h5L41 33.78" class="c25-cls-20" data-color-action="stroke" style="stroke:inherit" data-name="cracked surface mesial"/><g id="c25_chipped_surface_distal" class="c25-cls-8" data-name="chipped surface distal"><path d="M23.17 44.51l-8.33-8.33M14.84 44.51l8.33-8.33" class="c25-cls-21" data-color-action="stroke" style="stroke:inherit"/></g><g id="c25_chipped_surface_lingual" class="c25-cls-8" data-name="chipped surface lingual"><path d="M33.33 44.51L25 36.18M25 44.51l8.33-8.33" class="c25-cls-21" data-color-action="stroke" style="stroke:inherit"/></g><g id="c25_chipped_surface_lingual_V" class="c25-cls-8" data-name="chipped surface lingual V"><path d="M33.33 44.51L25 36.18M25 44.51l8.33-8.33" class="c25-cls-21" data-color-action="stroke" style="stroke:inherit"/></g><g id="c25_chipped_surface_mesial" class="c25-cls-8" data-name="chipped surface mesial"><path d="M45.33 44.51L37 36.18M37 44.51l8.33-8.33" class="c25-cls-21" data-color-action="stroke" style="stroke:inherit"/></g><g id="c25_buccal_abfraction" data-name="buccal abfraction"><path d="M28 61.75h3v3h-3z" class="c25-cls-7"/><path d="M28 61.75h3v3h-3z" class="c25-cls-7"/><path d="M28 61.75h3v3h-3z" class="c25-cls-7"/></g><g id="c25_braces"><path d="M28 61.75h3v3h-3z" class="c25-cls-7"/><path d="M28 61.75h3v3h-3z" class="c25-cls-7"/><path d="M28 61.75h3v3h-3z" class="c25-cls-7"/></g><g id="c25_apicoectomy"><path d="M28 61.75h3v3h-3z" class="c25-cls-7"/><path d="M28 61.75h3v3h-3z" class="c25-cls-7"/><path d="M28 61.75h3v3h-3z" class="c25-cls-7"/></g><g id="c25_abscess"><path d="M28 61.75h3v3h-3z" class="c25-cls-7"/><path d="M28 61.75h3v3h-3z" class="c25-cls-7"/><path d="M28 61.75h3v3h-3z" class="c25-cls-7"/></g><g id="c25_blunted_roots" data-name="blunted roots"><path d="M28 61.75h3v3h-3z" class="c25-cls-7"/><path d="M28 61.75h3v3h-3z" class="c25-cls-7"/><path d="M28 61.75h3v3h-3z" class="c25-cls-7"/></g><g id="c25_root_amputation" data-name="root amputation"><path d="M28 61.75h3v3h-3z" class="c25-cls-7"/><path d="M28 61.75h3v3h-3z" class="c25-cls-7"/><path d="M28 61.75h3v3h-3z" class="c25-cls-7"/></g><g id="c25_missing_crown" data-name="missing crown"><path d="M28 61.75h3v3h-3z" class="c25-cls-7"/><path d="M28 61.75h3v3h-3z" class="c25-cls-7"/><path d="M28 61.75h3v3h-3z" class="c25-cls-7"/><path d="M2 2h55v61.98H2z" class="c25-cls-13"/></g><g id="c25_missing_tooth" data-name="missing tooth"><path d="M40.26 23.21c4.57 7.13 3 29.67 1 31.34-1.62 1.31-19.8.71-23-2.9s-3.6-26 .8-29.64c2.39-2.01 18.43-3.12 21.2 1.2z" class="c25-cls-2"/><path d="M40.26 23.21c4.57 7.13 3 29.67 1 31.34-1.62 1.31-19.8.71-23-2.9s-3.6-26 .8-29.64c2.39-2.01 18.43-3.12 21.2 1.2z" class="c25-cls-13"/><path d="M40.15 31.14c-.19-1.71-1.85-6.64-3.8-7.06a35.28 35.28 0 0 0-8.51-.72c-2.17.18-4.71.36-6.34 1.27-1.15.64-2 4.89-2.17 6s.36 2.72 1.27.72 2-5.07 5.07-5.25 5.43-.72 6.7.18 2.59 0 3.44.36c1.45.54 2.17 2 3.08 4.17.5 1.19 1.44 1.96 1.26.33zM16.84 48.32A19.19 19.19 0 0 0 20 50.7c2 1.09 5.25 1.09 9.06 1.45s10.14.91 12.13-.36a7.06 7.06 0 0 0 1.22-1c-.34 2-.77 3.4-1.22 3.76-1.62 1.31-19.8.71-23-2.9a8.33 8.33 0 0 1-1.35-3.33z" class="c25-cls-13"/></g><g id="c25_maryland_bridge_pontic" class="c25-cls-8" data-name="maryland bridge pontic"><path d="M40.26 23.21c4.57 7.13 3 29.67 1 31.34-1.62 1.31-19.8.71-23-2.9s-3.6-26 .8-29.64c2.39-2.01 18.43-3.12 21.2 1.2z" class="c25-cls-14" data-color-action="fill" style="fill:inherit"/><path d="M2 33.37h55v7.67H2z" class="c25-cls-14" data-color-action="fill" style="fill:inherit"/></g><g id="c25_maryland_bridge_abutment_mesial" class="c25-cls-8" data-name="maryland bridge abutment mesial"><path d="M36.58 34.17H57v7.67H36.58z" class="c25-cls-14" data-color-action="fill" style="fill:inherit"/><ellipse cx="37.81" cy="38.01" class="c25-cls-14" rx="5.61" ry="12.9" data-color-action="fill" style="fill:inherit"/></g><g id="c25_maryland_bridge_abutment_distal" class="c25-cls-8" data-name="maryland bridge abutment distal"><path d="M2 34.17h20.42v7.67H2z" class="c25-cls-14" data-color-action="fill" style="fill:inherit"/><ellipse cx="21.19" cy="38.01" class="c25-cls-14" rx="5.61" ry="12.9" data-color-action="fill" style="fill:inherit"/></g><g id="c25_maryland_bridge_abutment" class="c25-cls-8" data-name="maryland bridge abutment"><path d="M2 34.17h20.42v7.67H2zM36.58 34.17H57v7.67H36.58z" class="c25-cls-14" data-color-action="fill" style="fill:inherit"/><ellipse cx="37.81" cy="38.01" class="c25-cls-14" rx="5.61" ry="12.9" data-color-action="fill" style="fill:inherit"/><ellipse cx="21.19" cy="38.01" class="c25-cls-14" rx="5.61" ry="12.9" data-color-action="fill" style="fill:inherit"/></g><g id="c25_bridge_abutment_mesial" class="c25-cls-8" data-name="bridge abutment mesial"><path d="M40.26 23.21c4.57 7.13 3 29.67 1 31.34-1.62 1.31-19.8.71-23-2.9s-3.6-26 .8-29.64c2.39-2.01 18.43-3.12 21.2 1.2z" class="c25-cls-11" data-color-action="fill" style="fill:inherit"/><path d="M22.02 33.6H57v7.67H22.02z" class="c25-cls-11" data-color-action="fill" style="fill:inherit"/></g><g id="c25_bridge_abutment_distal" class="c25-cls-8" data-name="bridge abutment distal"><path d="M40.26 23.21c4.57 7.13 3 29.67 1 31.34-1.62 1.31-19.8.71-23-2.9s-3.6-26 .8-29.64c2.39-2.01 18.43-3.12 21.2 1.2z" class="c25-cls-11" data-color-action="fill" style="fill:inherit"/><path d="M2 33.6h34.98v7.67H2z" class="c25-cls-11" data-color-action="fill" style="fill:inherit"/></g><g id="c25_bridge_abutment" class="c25-cls-8" data-name="bridge abutment"><path d="M40.26 23.21c4.57 7.13 3 29.67 1 31.34-1.62 1.31-19.8.71-23-2.9s-3.6-26 .8-29.64c2.39-2.01 18.43-3.12 21.2 1.2z" class="c25-cls-11" data-color-action="fill" style="fill:inherit"/><path d="M2 33.6h55v7.67H2z" class="c25-cls-11" data-color-action="fill" style="fill:inherit"/></g><g id="c25_bridge_pontic" class="c25-cls-8" data-name="bridge pontic"><path d="M40.26 23.21c4.57 7.13 3 29.67 1 31.34-1.62 1.31-19.8.71-23-2.9s-3.6-26 .8-29.64c2.39-2.01 18.43-3.12 21.2 1.2z" class="c25-cls-11" data-color-action="fill" style="fill:inherit"/><path d="M2 33.6h55v7.67H2z" class="c25-cls-11" data-color-action="fill" style="fill:inherit"/></g><g id="c25_implant_mini" data-name="implant mini"><path d="M2 2h55v61.98H2z" class="c25-cls-13"/><path d="M29.72 0h-.44l-1 8.5v40.83h2.44V8.5l-1-8.5z" class="c25-cls-11" data-color-action="fill" style="fill:inherit"/><path d="M29.42 0h-.07l-.4 8.5v40.83h.37V8.5l.1-8.5z" class="c25-cls-16"/><path d="M28.28 48.7h2.44v.63h-2.44z" class="c25-cls-17" data-color-action="fill" style="fill:inherit"/><g class="c25-cls-18"><path d="M28.28 48.7l2.44-1v.63l-2.44 1v-.63zM28.28 47.26l2.44-1v.63l-2.44 1v-.63zM28.28 45.81l2.44-1v.63l-2.44 1v-.63zM28.28 44.36l2.44-1V44l-2.44 1v-.64zM28.28 42.92l2.44-1v.63l-2.44 1v-.63zM28.28 41.47l2.44-1v.63l-2.44 1.01v-.64zM28.28 40.03l2.44-1v.63l-2.44 1v-.63zM28.28 38.58l2.44-1v.63l-2.44 1.01v-.64zM28.28 37.14l2.44-1v.63l-2.44 1v-.63zM28.28 35.69l2.44-1v.63l-2.44 1v-.63zM28.28 34.25l2.44-1.01v.64l-2.44 1v-.63zM28.28 32.8l2.44-1v.63l-2.44 1v-.63zM28.28 31.36l2.44-1v.63l-2.44 1v-.63zM28.28 29.91l2.44-1v.63l-2.44 1v-.63zM28.28 28.46l2.44-1v.64l-2.44 1v-.64zM28.28 27.02l2.44-1v.63l-2.44 1v-.63zM28.28 25.57l2.44-1v.63l-2.44 1.01v-.64zM28.28 24.13l2.44-1v.63l-2.44 1v-.63zM28.28 22.68l2.44-1v.63l-2.44 1.01v-.64zM28.28 21.24l2.44-1v.63l-2.44 1v-.63zM28.28 19.79l2.44-1v.63l-2.44 1v-.63zM28.28 18.35l2.44-1.01v.64l-2.44 1v-.63zM28.28 16.9l2.44-1v.63l-2.44 1v-.63zM28.28 15.46l2.44-1v.63l-2.44 1v-.63zM28.28 14.01l2.44-1v.63l-2.44 1v-.63zM28.28 12.56l2.44-1v.64l-2.44 1v-.64zM28.28 11.12l2.44-1v.63l-2.44 1v-.63zM28.28 9.67l2.44-1v.63l-2.44 1.01v-.64zM28.28 8.5l.03-.29 2.27-.92.07.6-2.37.97V8.5zM28.49 6.7l1.93-.79.07.6-2.08.85.08-.66zM28.67 5.18l1.58-.65.08.6-1.74.71.08-.66zM28.85 3.66l1.24-.51.07.6-1.39.57.08-.66zM29.03 2.14l.9-.37.07.6-1.05.43.08-.66zM29.2.62l.57-.23.07.6-.71.3.07-.67z" class="c25-cls-17" data-color-action="fill" style="fill:inherit"/></g><circle cx="29.5" cy="53.21" r="2.24" class="c25-cls-11" data-color-action="fill" style="fill:inherit"/><path d="M27.67 48.99h3.67v3h-3.67z" class="c25-cls-11" data-color-action="fill" style="fill:inherit"/><path d="M28.49 48.99h.55v3h-.55z" class="c25-cls-16"/><path d="M28.7 54.56h-.21a2.32 2.32 0 0 1-.49-1.28 2.37 2.37 0 0 1 .52-1.3H29a2 2 0 0 0-.73 1.37 1.5 1.5 0 0 0 .43 1.21z" class="c25-cls-16"/><path d="M28.28 42.63h2.44v.63h-2.44z" class="c25-cls-17" data-color-action="fill" style="fill:inherit"/><path d="M32.11 49.01h-5.22l.87-5.71h3.48l.87 5.71z" class="c25-cls-11" data-color-action="fill" style="fill:inherit"/><path d="M28.85 49.01h-.79l.48-5.71h.53l-.22 5.71z" class="c25-cls-16"/></g><g id="c25_implant_cylinder" data-name="implant cylinder"><path d="M2 2h55v61.98H2z" class="c25-cls-13"/><path d="M26.17 3h6.67v49.33h-6.67zM24.5 0h10v3h-10z" class="c25-cls-11" data-color-action="fill" style="fill:inherit"/><path d="M28 3h1v49.33h-1zM26.75 0h1.5v3h-1.5z" class="c25-cls-16"/><path d="M24.5 52.36h10v3h-10z" class="c25-cls-11" data-color-action="fill" style="fill:inherit"/><path d="M26.75 52.36h1.5v3h-1.5z" class="c25-cls-16"/><path d="M26.17 3h6.67v.63h-6.67zM26.17 51.7h6.67v.63h-6.67z" class="c25-cls-17" data-color-action="fill" style="fill:inherit"/><g class="c25-cls-18"><path d="M32.83 50.7l-6.66 1v.63l6.66-1v-.63zM32.83 49.25l-6.66 1v.63l6.66-1v-.63zM32.83 47.81l-6.66 1v.63l6.66-1v-.63zM32.83 46.36l-6.66 1v.63l6.66-1v-.63zM32.83 44.92l-6.66 1v.63l6.66-1v-.63zM32.83 43.47l-6.66 1v.63l6.66-1v-.63zM32.83 42.02l-6.66 1v.64l6.66-1v-.64zM32.83 40.58l-6.66 1v.63l6.66-1v-.63zM32.83 39.13l-6.66 1v.64l6.66-1v-.64zM32.83 37.69l-6.66 1v.63l6.66-1v-.63zM32.83 36.24l-6.66 1v.64l6.66-1v-.64zM32.83 34.8l-6.66 1v.63l6.66-1v-.63zM32.83 33.35l-6.66 1v.63l6.66-1v-.63zM32.83 31.91l-6.66 1v.63l6.66-1v-.63zM32.83 30.46l-6.66 1v.63l6.66-1v-.63zM32.83 29.02l-6.66 1v.63l6.66-1v-.63zM32.83 27.57l-6.66 1v.63l6.66-1v-.63zM32.83 26.13l-6.66 1v.63l6.66-1v-.63zM32.83 24.68l-6.66 1v.63l6.66-1v-.63zM32.83 23.23l-6.66 1v.64l6.66-1v-.64zM32.83 21.79l-6.66 1v.63l6.66-1v-.63zM32.83 20.34l-6.66 1v.64l6.66-1v-.64zM32.83 18.9l-6.66 1v.63l6.66-1v-.63zM32.83 17.45l-6.66 1v.64l6.66-1.01v-.63zM32.83 16.01l-6.66 1v.63l6.66-1v-.63zM32.83 14.56l-6.66 1v.63l6.66-1v-.63zM32.83 13.12l-6.66 1v.63l6.66-1v-.63zM32.83 11.67l-6.66 1v.63l6.66-1v-.63zM32.83 10.22l-6.66 1v.64l6.66-1v-.64zM32.83 8.78l-6.66 1v.63l6.66-1v-.63zM32.83 7.33l-6.66 1.01v.63l6.66-1v-.64zM32.83 5.89l-6.66 1v.63l6.66-1v-.63zM32.83 4.44l-6.66 1v.64l6.66-1v-.64zM32.83 3l-6.66 1v.63l6.66-1V3z" class="c25-cls-17" data-color-action="fill" style="fill:inherit"/></g></g><g id="c25_implant_blade" data-name="implant blade"><path d="M2 2h55v61.98H2z" class="c25-cls-13"/><path d="M26.17 3.03h6.67v49.33h-6.67zM24.5 52.36h10v3h-10z" class="c25-cls-11" data-color-action="fill" style="fill:inherit"/><path d="M28 3.03h1v49.33h-1zM26.75 52.36h1.5v3h-1.5z" class="c25-cls-16"/><path d="M26.17 51.73h6.67v.63h-6.67z" class="c25-cls-17" data-color-action="fill" style="fill:inherit"/></g><path id="c25_border" d="M0 0h59v66H0z" class="c25-cls-7" transform="rotate(180 29.5 33)"/></defs></g></svg>