<svg xmlns="http://www.w3.org/2000/svg" viewBox="0 0 59 283"><defs><style>.a32-cls-1{isolation:isolate}.a32-cls-2,.a32-cls-25{fill:#c5c7c9}.a32-cls-25{stroke:none}.a32-cls-2{stroke:#c5c7c9;stroke-width:5px}.a32-cls-19,.a32-cls-2,.a32-cls-22,.a32-cls-24,.a32-cls-26,.a32-cls-27,.a32-cls-30,.a32-cls-32,.a32-cls-33{stroke-miterlimit:10}.a32-cls-3{fill:#f5d7cf;stroke:none}.a32-cls-4,.a32-cls-5{fill:#f2c6bc;stroke:none}.a32-cls-5{fill:#fae8e3}.a32-cls-6,.a32-cls-7{fill:#eeefef;stroke:none}.a32-cls-7{fill:#e2e3e4}.a32-cls-8,.a32-cls-9{fill:#fbfbfb;stroke:none}.a32-cls-9{font-size:15px;fill:#929497;font-family:ProximaNova-Semibold,Proxima Nova,sans-serif;font-weight:700}.a32-cls-10,.a32-cls-28,.a32-cls-36{fill:#3c3d3d;stroke:none}.a32-cls-10{opacity:.55}.a32-cls-11{fill:#ffd403;stroke:none}.a32-cls-13,.a32-cls-21{fill:#ffef3e;stroke:none}.a32-cls-14,.a32-cls-20{fill:#c52636;stroke:none}.a32-cls-15{fill:none;stroke:none}.a32-cls-19,.a32-cls-22,.a32-cls-24,.a32-cls-26,.a32-cls-27,.a32-cls-30,.a32-cls-32,.a32-cls-33{fill:none}.a32-cls-16,.a32-cls-37{fill:#28418b;stroke:none}.a32-cls-17,.a32-cls-18{fill:#787878;stroke:none}.a32-cls-19,.a32-cls-22,.a32-cls-24,.a32-cls-30,.a32-cls-32,.a32-cls-33{stroke:#c52636}.a32-cls-19,.a32-cls-22,.a32-cls-27{stroke-width:2px}.a32-cls-22{stroke-linecap:round}.a32-cls-23{fill:#fff;stroke:none}.a32-cls-26,.a32-cls-27{stroke:#28418b}.a32-cls-26{stroke-width:3px}.a32-cls-29{opacity:.6}.a32-cls-30{stroke-width:4px}.a32-cls-31{fill:#f05b85;stroke:none}.a32-cls-32,.a32-cls-33{stroke-width:1.25px}.a32-cls-34{fill:#9b9999;stroke:none}.a32-cls-35{fill:#dbdbdc;stroke:none}.b32-cls-1{isolation:isolate}.b32-cls-2{fill:#c5c7c9;stroke:#c5c7c9;stroke-width:5px}.b32-cls-17,.b32-cls-18,.b32-cls-2{stroke-miterlimit:10}.b32-cls-3,.b32-cls-4{fill:#eeefef;stroke:none}.b32-cls-4{fill:#e2e3e4}.b32-cls-5,.b32-cls-6{fill:#e0e0e0;stroke:none}.b32-cls-6{fill:#fcfcfc}.b32-cls-15,.b32-cls-7{fill:#3c3d3d;stroke:none}.b32-cls-7{opacity:.55}.b32-cls-17,.b32-cls-18{fill:none}.b32-cls-8{fill:none;stroke:none}.b32-cls-14,.b32-cls-9{fill:#787878;stroke:none}.b32-cls-10{font-size:33px;fill:#28418b;font-family:ProximaNova-Semibold,Proxima Nova,sans-serif;font-weight:700;stroke:none}.b32-cls-11{fill:#fff;stroke:none}.b32-cls-13{fill:#c52636;stroke:none}.b32-cls-16{fill:#ffef3e;stroke:none}.b32-cls-17,.b32-cls-18{stroke:#c52636;stroke-width:1.25px}.c32-cls-1{isolation:isolate}.c32-cls-16,.c32-cls-2{fill:#c5c7c9;stroke:none}.c32-cls-2{stroke:#c5c7c9;stroke-width:5px}.c32-cls-2,.c32-cls-20,.c32-cls-21{stroke-miterlimit:10}.c32-cls-3{fill:#eeefef;stroke:none}.c32-cls-4,.c32-cls-5{fill:#e2e3e4;stroke:none}.c32-cls-5{fill:#fbfbfb}.c32-cls-17,.c32-cls-6{fill:#3c3d3d;stroke:none}.c32-cls-6{opacity:.55}.c32-cls-20,.c32-cls-21{fill:none}.c32-cls-7,.c32-cls-9{fill:none;stroke:none}.c32-cls-9{fill:#28418b}.c32-cls-10,.c32-cls-11{fill:#787878;stroke:none}.c32-cls-12,.c32-cls-19{fill:#ffef3e;stroke:none}.c32-cls-13{fill:#fff;stroke:none}.c32-cls-14,.c32-cls-15{fill:#c52636;stroke:none}.c32-cls-18{opacity:.6}.c32-cls-20,.c32-cls-21{stroke:#c52636;stroke-width:1.25px}.a32-msng-cls-1{isolation:isolate}.a32-msng-cls-2{fill:#c5c7c9;stroke:#c5c7c9;stroke-width:5px}.a32-msng-cls-11,.a32-msng-cls-2{stroke-miterlimit:10}.a32-msng-cls-3{fill:#f5d7cf;stroke:none}.a32-msng-cls-4{fill:#f2c6bc;stroke:none}.a32-msng-cls-5{fill:#fae8e3;stroke:none}.a32-msng-cls-6{fill:#eeefef;stroke:none}.a32-msng-cls-7{fill:#e2e3e4;stroke:none}.a32-msng-cls-8{fill:#fbfbfb;stroke:none}.a32-msng-cls-9{font-size:15px;fill:#929497;font-family:ProximaNova-Semibold,Proxima Nova;font-weight:700;stroke:none}.a32-msng-cls-11{fill:none}.a32-msng-cls-12{fill:none;stroke:none}.a32-msng-cls-11{stroke:#787878;stroke-width:6.25px}</style></defs><g class="a32-cls-1" transform="translate(0 122)"><g id="_32A" data-name="#32A"><path d="M11.42 17.26c.51-2.31.51-5.64 7.81-6.15 3.2-.22 6.92 1.15 7.43 1.66s1.92.77 3.33-.38 6.79-1.15 10.89-1.28 6.4 5.64 6.79 9.48-2.18 12-4.1 15.24a1 1 0 0 1-.08.09 20.07 20.07 0 0 0-.11 3.82 57.36 57.36 0 0 1-2.6 22.06C39 67 33.26 76.47 29.93 78.45s-3.08-2-2.47-6.29S31 55.39 30.55 55.27s-3.21 14.55-3.7 17-.12 6.41-2 6.66-6.89-9.53-8-17.38c-1.46-10.35-.6-17.48-1.09-20.55a21.63 21.63 0 0 0-1.66-5.73 1.18 1.18 0 0 1-.25-.31c-1.67-3.23-2.95-15.4-2.43-17.7z" class="a32-cls-2"/><path d="M44.36 31.6c-.23 2.77-1.23 3.08-1 8.14a57.36 57.36 0 0 1-2.58 22.06C39 67 33.26 76.47 29.93 78.45s-3.08-2-2.47-6.29S31 55.39 30.55 55.27s-3.21 14.55-3.7 17-.12 6.41-2 6.66-6.89-9.53-8-17.38c-1.46-10.35-.6-17.48-1.09-20.55-.86-5.42-2.34-5.92-2.59-9.25s31.56-4.59 31.19-.15z" class="a32-cls-3"/><path d="M41.16 51.92c.18-5-.36-13.62-.54-16-.1-1.34 1.82-2.21 3.47-2.7a16.5 16.5 0 0 0-.71 6.47 57.36 57.36 0 0 1-2.6 22.11C39 67 33.26 76.47 29.93 78.45a4 4 0 0 1-1.09.47 45.84 45.84 0 0 0 6.76-9.25C37.93 65 41 56.94 41.16 51.92zM15.76 41a27.53 27.53 0 0 0-2.11-6.9l2.78.46a29.08 29.08 0 0 1 1.25 5.56c.18 2.33-.54 10.22-.18 16.13s2 10.58 3.23 14.52c.81 2.55 1.62 5 2.29 6.7-2.25-3-5.3-10-6.15-15.88-1.48-10.39-.62-17.52-1.11-20.59zM26.28 69.67c.36-3 1.79-14.34 3-15.42s2.87-.18 2.33 1.61-1.25 7.35-2.15 10a73.77 73.77 0 0 0-2.3 11.63 19.2 19.2 0 0 1 .27-5.38c.62-4.31 3.58-16.77 3.08-16.89s-3.21 14.55-3.7 17c-.33 1.67-.27 4-.78 5.44a73.27 73.27 0 0 1 .25-7.99z" class="a32-cls-4"/><path d="M19.65 35a18.34 18.34 0 0 1 1 7.16c-.12 3.2-1.65 8.84-1.29 14.3.58 10.08 4.09 16.65 4.53 16.22.92-.92-2-6-2.19-15.92-.12-8.18 1.31-12 1.75-15.19a15.19 15.19 0 0 0-.29-6.14c-.29-1.61-4.24-3.07-3.51-.43z" class="a32-cls-5"/><path d="M43.56 35.83c1.92-3.2 4.48-11.4 4.1-15.24S45 11 40.87 11.11s-9.48.13-10.89 1.28-2.82.9-3.33.38-4.22-1.89-7.43-1.66c-7.3.51-7.3 3.84-7.81 6.15s.77 14.47 2.43 17.67 27.98 3.8 29.72.9z" class="a32-cls-6"/><path d="M11.42 17.26c.46-2.05.52-4.91 5.66-5.87-2.33 1.4-2.42 3.78-2.73 5.59-.43 2.5.64 15.72 2 19.2a1.23 1.23 0 0 0 .08.13c-1.39-.38-2.34-.84-2.61-1.36-1.64-3.22-2.92-15.39-2.4-17.69zM44.72 20.58c-.25-3.21-1.45-7.64-3.55-9.46 3.91.15 6.12 5.71 6.5 9.46s-2.18 12-4.1 15.24a3.66 3.66 0 0 1-2.16 1C43 33.22 45 24.66 44.72 20.58z" class="a32-cls-7"/><path d="M28.12 77.21c.29.15 3.21-5.55 4.38-9.2s1.62-9.39 1.31-9.5-1.16 4.23-2.81 9.05c-1.91 5.89-3.17 9.5-2.88 9.65z" class="a32-cls-5"/><path d="M20.37 11.09a15.36 15.36 0 0 1 2.74.37 19.83 19.83 0 0 0-1.76 3.67c-1.27 3.93 0 12.75.76 16 .47 1.94 1.32 4.63 1.74 6.31-1.09-.09-2.14-.2-3.13-.32a61.79 61.79 0 0 1-1.9-6c-1.33-5.56-1.52-12.19-.38-16.1a8.2 8.2 0 0 1 1.93-3.93z" class="a32-cls-8"/><text class="a32-cls-9" transform="translate(20.73 150.74)">32</text></g><defs><g id="a32_bone_graft" data-name="bone graft"><path d="M2 35.8h55v101.89H2z" class="a32-cls-16" transform="rotate(-180 29.5 86.745)" data-color-action="fill" style="fill:inherit"/><path d="M11.42 17.26c.51-2.31.51-5.64 7.81-6.15 3.2-.22 6.92 1.15 7.43 1.66s1.92.77 3.33-.38 6.79-1.15 10.89-1.28 6.4 5.64 6.79 9.48-2.18 12-4.1 15.24a1 1 0 0 1-.08.09 20.07 20.07 0 0 0-.11 3.82 57.36 57.36 0 0 1-2.6 22.06C39 67 33.26 76.47 29.93 78.45s-3.08-2-2.47-6.29S31 55.39 30.55 55.27s-3.21 14.55-3.7 17-.12 6.41-2 6.66-6.89-9.53-8-17.38c-1.46-10.35-.6-17.48-1.09-20.55a21.63 21.63 0 0 0-1.66-5.73 1.18 1.18 0 0 1-.25-.31c-1.67-3.23-2.95-15.4-2.43-17.7z" class="a32-cls-2"/><path d="M44.36 31.6c-.23 2.77-1.23 3.08-1 8.14a57.36 57.36 0 0 1-2.58 22.06C39 67 33.26 76.47 29.93 78.45s-3.08-2-2.47-6.29S31 55.39 30.55 55.27s-3.21 14.55-3.7 17-.12 6.41-2 6.66-6.89-9.53-8-17.38c-1.46-10.35-.6-17.48-1.09-20.55-.86-5.42-2.34-5.92-2.59-9.25s31.56-4.59 31.19-.15z" class="a32-cls-3"/><path d="M41.16 51.92c.18-5-.36-13.62-.54-16-.1-1.34 1.82-2.21 3.47-2.7a16.5 16.5 0 0 0-.71 6.47 57.36 57.36 0 0 1-2.6 22.11C39 67 33.26 76.47 29.93 78.45a4 4 0 0 1-1.09.47 45.84 45.84 0 0 0 6.76-9.25C37.93 65 41 56.94 41.16 51.92zM15.76 41a27.53 27.53 0 0 0-2.11-6.9l2.78.46a29.08 29.08 0 0 1 1.25 5.56c.18 2.33-.54 10.22-.18 16.13s2 10.58 3.23 14.52c.81 2.55 1.62 5 2.29 6.7-2.25-3-5.3-10-6.15-15.88-1.48-10.39-.62-17.52-1.11-20.59zM26.28 69.67c.36-3 1.79-14.34 3-15.42s2.87-.18 2.33 1.61-1.25 7.35-2.15 10a73.77 73.77 0 0 0-2.3 11.63 19.2 19.2 0 0 1 .27-5.38c.62-4.31 3.58-16.77 3.08-16.89s-3.21 14.55-3.7 17c-.33 1.67-.27 4-.78 5.44a73.27 73.27 0 0 1 .25-7.99z" class="a32-cls-4"/><path d="M19.65 35a18.34 18.34 0 0 1 1 7.16c-.12 3.2-1.65 8.84-1.29 14.3.58 10.08 4.09 16.65 4.53 16.22.92-.92-2-6-2.19-15.92-.12-8.18 1.31-12 1.75-15.19a15.19 15.19 0 0 0-.29-6.14c-.29-1.61-4.24-3.07-3.51-.43z" class="a32-cls-5"/><path d="M43.56 35.83c1.92-3.2 4.48-11.4 4.1-15.24S45 11 40.87 11.11s-9.48.13-10.89 1.28-2.82.9-3.33.38-4.22-1.89-7.43-1.66c-7.3.51-7.3 3.84-7.81 6.15s.77 14.47 2.43 17.67 27.98 3.8 29.72.9z" class="a32-cls-6"/><path d="M11.42 17.26c.46-2.05.52-4.91 5.66-5.87-2.33 1.4-2.42 3.78-2.73 5.59-.43 2.5.64 15.72 2 19.2a1.23 1.23 0 0 0 .08.13c-1.39-.38-2.34-.84-2.61-1.36-1.64-3.22-2.92-15.39-2.4-17.69zM44.72 20.58c-.25-3.21-1.45-7.64-3.55-9.46 3.91.15 6.12 5.71 6.5 9.46s-2.18 12-4.1 15.24a3.66 3.66 0 0 1-2.16 1C43 33.22 45 24.66 44.72 20.58z" class="a32-cls-7"/><path d="M28.12 77.21c.29.15 3.21-5.55 4.38-9.2s1.62-9.39 1.31-9.5-1.16 4.23-2.81 9.05c-1.91 5.89-3.17 9.5-2.88 9.65z" class="a32-cls-5"/><path d="M20.37 11.09a15.36 15.36 0 0 1 2.74.37 19.83 19.83 0 0 0-1.76 3.67c-1.27 3.93 0 12.75.76 16 .47 1.94 1.32 4.63 1.74 6.31-1.09-.09-2.14-.2-3.13-.32a61.79 61.79 0 0 1-1.9-6c-1.33-5.56-1.52-12.19-.38-16.1a8.2 8.2 0 0 1 1.93-3.93z" class="a32-cls-8"/></g><g id="a32_splinted_crowns" data-name="splinted crowns"><path d="M2 34.75h55v7.67H2z" class="a32-cls-21" data-color-action="fill" style="fill:inherit"/><path d="M11.42 17.26c.51-2.31.51-5.64 7.81-6.15 3.2-.22 6.92 1.15 7.43 1.66s1.92.77 3.33-.38 6.79-1.15 10.89-1.28 6.4 5.64 6.79 9.48-2.18 12-4.1 15.24a1 1 0 0 1-.08.09 20.07 20.07 0 0 0-.11 3.82 57.36 57.36 0 0 1-2.6 22.06C39 67 33.26 76.47 29.93 78.45s-3.08-2-2.47-6.29S31 55.39 30.55 55.27s-3.21 14.55-3.7 17-.12 6.41-2 6.66-6.89-9.53-8-17.38c-1.46-10.35-.6-17.48-1.09-20.55a21.63 21.63 0 0 0-1.66-5.73 1.18 1.18 0 0 1-.25-.31c-1.67-3.23-2.95-15.4-2.43-17.7z" class="a32-cls-2"/><path d="M44.36 31.6c-.23 2.77-1.23 3.08-1 8.14a57.36 57.36 0 0 1-2.58 22.06C39 67 33.26 76.47 29.93 78.45s-3.08-2-2.47-6.29S31 55.39 30.55 55.27s-3.21 14.55-3.7 17-.12 6.41-2 6.66-6.89-9.53-8-17.38c-1.46-10.35-.6-17.48-1.09-20.55-.86-5.42-2.34-5.92-2.59-9.25s31.56-4.59 31.19-.15z" class="a32-cls-3"/><path d="M41.16 51.92c.18-5-.36-13.62-.54-16-.1-1.34 1.82-2.21 3.47-2.7a16.5 16.5 0 0 0-.71 6.47 57.36 57.36 0 0 1-2.6 22.11C39 67 33.26 76.47 29.93 78.45a4 4 0 0 1-1.09.47 45.84 45.84 0 0 0 6.76-9.25C37.93 65 41 56.94 41.16 51.92zM15.76 41a27.53 27.53 0 0 0-2.11-6.9l2.78.46a29.08 29.08 0 0 1 1.25 5.56c.18 2.33-.54 10.22-.18 16.13s2 10.58 3.23 14.52c.81 2.55 1.62 5 2.29 6.7-2.25-3-5.3-10-6.15-15.88-1.48-10.39-.62-17.52-1.11-20.59zM26.28 69.67c.36-3 1.79-14.34 3-15.42s2.87-.18 2.33 1.61-1.25 7.35-2.15 10a73.77 73.77 0 0 0-2.3 11.63 19.2 19.2 0 0 1 .27-5.38c.62-4.31 3.58-16.77 3.08-16.89s-3.21 14.55-3.7 17c-.33 1.67-.27 4-.78 5.44a73.27 73.27 0 0 1 .25-7.99z" class="a32-cls-4"/><path d="M19.65 35a18.34 18.34 0 0 1 1 7.16c-.12 3.2-1.65 8.84-1.29 14.3.58 10.08 4.09 16.65 4.53 16.22.92-.92-2-6-2.19-15.92-.12-8.18 1.31-12 1.75-15.19a15.19 15.19 0 0 0-.29-6.14c-.29-1.61-4.24-3.07-3.51-.43z" class="a32-cls-5"/><path d="M43.56 35.83c1.92-3.2 4.48-11.4 4.1-15.24S45 11 40.87 11.11s-9.48.13-10.89 1.28-2.82.9-3.33.38-4.22-1.89-7.43-1.66c-7.3.51-7.3 3.84-7.81 6.15s.77 14.47 2.43 17.67 27.98 3.8 29.72.9z" class="a32-cls-6"/><path d="M11.42 17.26c.46-2.05.52-4.91 5.66-5.87-2.33 1.4-2.42 3.78-2.73 5.59-.43 2.5.64 15.72 2 19.2a1.23 1.23 0 0 0 .08.13c-1.39-.38-2.34-.84-2.61-1.36-1.64-3.22-2.92-15.39-2.4-17.69zM44.72 20.58c-.25-3.21-1.45-7.64-3.55-9.46 3.91.15 6.12 5.71 6.5 9.46s-2.18 12-4.1 15.24a3.66 3.66 0 0 1-2.16 1C43 33.22 45 24.66 44.72 20.58z" class="a32-cls-7"/><path d="M28.12 77.21c.29.15 3.21-5.55 4.38-9.2s1.62-9.39 1.31-9.5-1.16 4.23-2.81 9.05c-1.91 5.89-3.17 9.5-2.88 9.65z" class="a32-cls-5"/><path d="M20.37 11.09a15.36 15.36 0 0 1 2.74.37 19.83 19.83 0 0 0-1.76 3.67c-1.27 3.93 0 12.75.76 16 .47 1.94 1.32 4.63 1.74 6.31-1.09-.09-2.14-.2-3.13-.32a61.79 61.79 0 0 1-1.9-6c-1.33-5.56-1.52-12.19-.38-16.1a8.2 8.2 0 0 1 1.93-3.93z" class="a32-cls-8"/></g><path id="a32_buccal_V" d="M21.09 37.13c6.29.77 15 .77 19.55-.11a24 24 0 0 0-19.55.11z" class="a32-cls-10" data-color-action="fill" style="fill:inherit" data-name="buccal V"/><ellipse id="a32_buccal_pit" cx="30.12" cy="26.64" class="a32-cls-10" rx="3.38" ry="6.05" data-color-action="fill" style="fill:inherit" data-name="buccal pit"/><path id="a32_mesial" d="M47.66 20.59A16.25 16.25 0 0 0 46 15l-2.61 4.9a21.11 21.11 0 0 1 .44 2.67c.27 2.24 1.8 3.61 3.22 3.62a19.26 19.26 0 0 0 .61-5.6z" class="a32-cls-10" data-color-action="fill" style="fill:inherit"/><path id="a32_line_angle_2" d="M40.87 11.11c-1.36 0-2.86.07-4.32.13l-1 4.79a7.53 7.53 0 0 1 3-.68c3.23-.12 4.27 2.49 4.8 4.56L46 15c-1.15-2.23-2.86-4-5.13-3.89z" class="a32-cls-10" data-color-action="fill" style="fill:inherit" data-name="line angle 2"/><path id="a32_groove_1" d="M30 12.39c-1.41 1.15-2.82.9-3.33.38a9.69 9.69 0 0 0-3.28-1.26l1.14 5c2.13.92 3.75 2.26 5.87 2.15 2.36-.12 3.18-1.69 5.18-2.63l1-4.79c-2.94.12-5.65.38-6.58 1.15z" class="a32-cls-10" data-color-action="fill" style="fill:inherit" data-name="groove 1"/><path id="a32_line_angle_1" d="M19.23 11.11c-4 .28-5.84 1.43-6.73 2.79l3.5 5.29c1-2.09 2.34-3.44 4.35-3.51a9.22 9.22 0 0 1 4.13.83l-1.14-5a14.21 14.21 0 0 0-4.11-.4z" class="a32-cls-10" data-color-action="fill" style="fill:inherit" data-name="line angle 1"/><path id="a32_distal" d="M14.42 24A26.45 26.45 0 0 1 16 19.19l-3.5-5.3a9.32 9.32 0 0 0-1.08 3.36c-.28 1.27 0 5.5.54 9.6A4.42 4.42 0 0 0 14.42 24z" class="a32-cls-10" data-color-action="fill" style="fill:inherit"/><path id="a32_veneer" d="M43.56 35.83c1.92-3.2 4.48-11.4 4.1-15.24S45 11 40.87 11.11s-9.48.13-10.89 1.28-2.82.9-3.33.38-4.22-1.89-7.43-1.66c-7.3.51-7.3 3.84-7.81 6.15s.77 14.47 2.43 17.67 27.98 3.8 29.72.9z" class="a32-cls-12 a32-cls-13" data-color-action="fill" style="fill:inherit"/><path id="a32_tissue_graft" d="M46.97 51.33L29.5 37.45 12.03 51.33h34.94z" class="a32-cls-14" data-color-action="fill" style="fill:inherit" data-name="tissue graft"/><g id="a32_tipped_lingual" data-name="tipped lingual"><path d="M28 154.75h3v3h-3z" class="a32-cls-15"/><path d="M28 154.75h3v3h-3z" class="a32-cls-15"/><path d="M28 154.75h3v3h-3z" class="a32-cls-15"/></g><g id="a32_tipped_facial" class="a32-cls-12" data-name="tipped facial"><path d="M25.85 7.5c1.26-3.37 4.74-3.85 7.69 5.32.5 1.56 4.42 1.76 3.84 0-2-6.08-5.31-10.2-9.06-9.27a4.86 4.86 0 0 0-3 3.38c.19.17.42.43.53.57z" class="a32-cls-16" data-color-action="fill" style="fill:inherit"/><path d="M27.93 10.42h12.94l-2.94 9.64-10-9.64z" class="a32-cls-16" data-color-action="fill" style="fill:inherit"/></g><path id="a32_surface_restoration_mesial" d="M47.66 20.59a20.37 20.37 0 0 1-.72 6.09 11.52 11.52 0 0 0-7.36 7 123 123 0 0 0 1.12-12.35 9.37 9.37 0 0 0-.87-3l4.67-5.47a14.35 14.35 0 0 1 3.16 7.73z" class="a32-cls-17" data-color-action="fill" style="fill:inherit" data-name="surface restoration mesial"/><path id="a32_surface_restoration_buccal" d="M19.32 36.07a11.49 11.49 0 0 0-.65-3.56c-.3-5.81-.44-12.77-.36-14l.05-.25a11.89 11.89 0 0 1 1.36-.17H20a9.49 9.49 0 0 1 2.84.54 9 9 0 0 0 5.13 1.58 10 10 0 0 0 5.56-1.7c1.37-.23 4.42-.31 6.14-.36h.15a9.39 9.39 0 0 1 .93 3.14 123 123 0 0 1-1.12 12.35A11.42 11.42 0 0 0 39 36a15.93 15.93 0 0 0-19.65 0z" class="a32-cls-12 a32-cls-18" data-color-action="fill" style="fill:inherit" data-name="surface restoration buccal"/><path id="a32_surface_restoration_buccal_V" d="M19.31 36.88v-.55-.26A15.93 15.93 0 0 1 39 36a11.51 11.51 0 0 0-.12 1.26 82.76 82.76 0 0 1-19.57-.38z" class="a32-cls-12 a32-cls-18" data-color-action="fill" style="fill:inherit" data-name="surface restoration buccal V"/><path id="a32_surface_restoration_distal" d="M13.23 13l5.07 5.7c-.06 1.69.09 8.24.37 13.78a11.51 11.51 0 0 0-6.88-7 37.48 37.48 0 0 1-.38-8.29c.3-1.24.43-2.88 1.82-4.19z" class="a32-cls-17" data-color-action="fill" style="fill:inherit" data-name="surface restoration distal"/><path id="a32_surface_restoration_occlusal" d="M19.23 11.11c3.2-.22 6.92 1.15 7.43 1.66s1.92.77 3.33-.38 6.79-1.15 10.89-1.28a4.72 4.72 0 0 1 3.62 1.69l-4.67 5.47-.06-.13h-.15c-1.72 0-4.77.13-6.14.36a10 10 0 0 1-5.56 1.7 9 9 0 0 1-5.13-1.58 9.49 9.49 0 0 0-2.79-.54h-.23a11.89 11.89 0 0 0-1.36.17l-.05.25v.23L13.23 13c1.06-.92 2.84-1.67 6-1.89z" class="a32-cls-17" data-color-action="fill" style="fill:inherit" data-name="surface restoration occlusal"/><g id="a32_supra-erupted" class="a32-cls-12"><path d="M29.5 44.11v7.68" class="a32-cls-19" data-color-action="stroke" style="stroke:inherit"/><path d="M25.51 45.28l3.99-6.91 3.99 6.91h-7.98z" class="a32-cls-20" data-color-action="fill" style="fill:inherit"/></g><g id="a32_sub-erupted" class="a32-cls-12"><path d="M29.5 46.05v-7.68" class="a32-cls-19" data-color-action="stroke" style="stroke:inherit"/><path d="M33.49 44.88l-3.99 6.91-3.99-6.91h7.98z" class="a32-cls-20" data-color-action="fill" style="fill:inherit"/></g><g id="a32_sealant"><path d="M28 154.75h3v3h-3z" class="a32-cls-15"/><path d="M28 154.75h3v3h-3z" class="a32-cls-15"/><path d="M28 154.75h3v3h-3z" class="a32-cls-15"/></g><g id="a32_rotated_mesial" class="a32-cls-12" data-name="rotated mesial"><path d="M5.87 32.82C2.88 31 3.56 27.36 16.1 27c5.3-.15 8.95 0 8.95 0L25 24s-1-.07-8.22.24c-7.62.32-14 1.83-13.75 6a4 4 0 0 0 2.31 2.92c.15-.16.4-.27.53-.34z" class="a32-cls-16" data-color-action="fill" style="fill:inherit"/><path d="M18.57 31.53V19.64l10.4 5.9-10.4 5.99z" class="a32-cls-16" data-color-action="fill" style="fill:inherit"/></g><g id="a32_rotated_distal" class="a32-cls-12" data-name="rotated distal"><path d="M53.13 32.82c3-1.79 2.3-5.46-10.23-5.81-5.3-.15-8.95 0-8.95 0L34 24s1-.07 8.22.24c7.62.32 14 1.83 13.75 6a4 4 0 0 1-2.31 2.92c-.15-.16-.4-.27-.53-.34z" class="a32-cls-16" data-color-action="fill" style="fill:inherit"/><path d="M40.43 31.53V19.64l-10.4 5.9 10.4 5.99z" class="a32-cls-16" data-color-action="fill" style="fill:inherit"/></g><g id="a32_root_decay" class="a32-cls-12" data-name="root decay"><circle cx="22.58" cy="62.13" r="4.33" class="a32-cls-18" data-color-action="fill" style="fill:inherit"/><circle cx="34.75" cy="64.05" r="4.42" class="a32-cls-18" data-color-action="fill" style="fill:inherit"/></g><g id="a32_root_canal" data-name="root canal"><path d="M24.2 75.47l.93-35.6M32.07 73.87L37.8 40.4" class="a32-cls-22" data-color-action="stroke" style="stroke:inherit"/></g><g id="a32_root_abrasion" class="a32-cls-12" data-name="root abrasion"><path d="M20.75 53.25h3.5v13.83h-3.5zM32.83 53.5h3.5v13.83h-3.5z" class="a32-cls-24" data-color-action="stroke" style="stroke:inherit"/></g><g id="a32_post"><path d="M28.35 17.83h3.14V59.6h-3.14z" class="a32-cls-18" data-color-action="fill" style="fill:inherit"/><path d="M29.21 17.83h.47V59.6h-.47z" class="a32-cls-25"/></g><g id="a32_pins"><path d="M18.67 23.83h2.42v23.43h-2.42z" class="a32-cls-18" data-color-action="fill" style="fill:inherit"/><path d="M19.33 23.83h.36v23.43h-.36z" class="a32-cls-25"/><path d="M23.25 23.83h2.42v23.43h-2.42z" class="a32-cls-18" data-color-action="fill" style="fill:inherit"/><path d="M23.92 23.83h.36v23.43h-.36z" class="a32-cls-25"/><path d="M33.33 23.83h2.42v23.43h-2.42z" class="a32-cls-18" data-color-action="fill" style="fill:inherit"/><path d="M34 23.83h.36v23.43H34z" class="a32-cls-25"/><path d="M37.91 23.83h2.42v23.43h-2.42z" class="a32-cls-18" data-color-action="fill" style="fill:inherit"/><path d="M38.58 23.83h.36v23.43h-.36z" class="a32-cls-25"/></g><path id="a32_open_contact_mesial" d="M35.69 42.99l7.5-4.75 7.5 4.75" class="a32-cls-26" data-color-action="stroke" style="stroke:inherit" data-name="open contact mesial"/><path id="a32_open_contact_distal" d="M8.67 42.99l7.5-4.75 7.5 4.75" class="a32-cls-26" data-color-action="stroke" style="stroke:inherit" data-name="open contact distal"/><g id="a32_mesial_drift" class="a32-cls-12" data-name="mesial drift"><path d="M32.59 23.83H20.67" class="a32-cls-27" data-color-action="stroke" style="stroke:inherit"/><path d="M31.43 19.84l6.9 3.99-6.9 3.99v-7.98z" class="a32-cls-16" data-color-action="fill" style="fill:inherit"/></g><g id="a32_lingual_abfraction" data-name="lingual abfraction"><path d="M28 154.75h3v3h-3z" class="a32-cls-15"/><path d="M28 154.75h3v3h-3z" class="a32-cls-15"/><path d="M28 154.75h3v3h-3z" class="a32-cls-15"/></g><g id="a32_internal_root_resorption" data-name="internal root resorption"><ellipse cx="23.19" cy="59.12" class="a32-cls-12 a32-cls-20" rx="8.27" ry="3.34" transform="rotate(-86.66 23.187 59.117)" data-color-action="fill" style="fill:inherit"/><ellipse cx="34.66" cy="61.36" class="a32-cls-12 a32-cls-20" rx="5.96" ry="2.41" transform="rotate(-76.26 34.662 61.365)" data-color-action="fill" style="fill:inherit"/></g><g id="a32_impacted_mesial" class="a32-cls-12" data-name="impacted mesial"><ellipse cx="29.5" cy="46.87" class="a32-cls-27" rx="24.15" ry="45.46" data-color-action="stroke" style="stroke:inherit"/><path d="M18.09 46.87H5.33" class="a32-cls-27" data-color-action="stroke" style="stroke:inherit"/><path d="M16.93 42.88l6.9 3.99-6.9 3.99v-7.98z" class="a32-cls-16" data-color-action="fill" style="fill:inherit"/></g><g id="a32_impacted_distal" class="a32-cls-12" data-name="impacted distal"><ellipse cx="29.49" cy="46.87" class="a32-cls-27" rx="24.15" ry="45.46" data-color-action="stroke" style="stroke:inherit"/><path d="M40.89 46.87h12.76" class="a32-cls-27" data-color-action="stroke" style="stroke:inherit"/><path d="M42.06 50.86l-6.91-3.99 6.91-3.99v7.98z" class="a32-cls-16" data-color-action="fill" style="fill:inherit"/></g><path id="a32_gortex_membranes" d="M2 34.91h55v16.42H2z" class="a32-cls-14" data-color-action="fill" style="fill:inherit" data-name="gortex membranes"/><path id="a32_frenum_pull" d="M18.84 37.74l10.66 6.75 10.66-6.75" class="a32-cls-30" data-color-action="stroke" style="stroke:inherit" data-name="frenum pull"/><path id="a32_external_root_resorption" d="M37.35 59.34a10.49 10.49 0 0 0 .82 8.2 39.47 39.47 0 0 0 2.61-5.74 50.67 50.67 0 0 0 2.07-8.5 9.1 9.1 0 0 0-5.5 6.04zM15.94 48.57a95.89 95.89 0 0 0 .92 13 32.88 32.88 0 0 0 .79 3.78c1.54-1 3.8-3.42 3.26-8.56s-3.25-7.33-4.97-8.22z" class="a32-cls-20" data-color-action="fill" style="fill:inherit" data-name="external root resorption"/><g id="a32_distal_drift" class="a32-cls-12" data-name="distal drift"><path d="M26.41 23.83h11.92" class="a32-cls-27" data-color-action="stroke" style="stroke:inherit"/><path d="M27.57 27.82l-6.9-3.99 6.9-3.99v7.98z" class="a32-cls-16" data-color-action="fill" style="fill:inherit"/></g><path id="a32_three_quarter_crown" d="M47.42 24.33a15.06 15.06 0 0 0 .24-3.75c-.38-3.84-2.66-9.58-6.79-9.47s-9.48.13-10.89 1.28-2.82.9-3.33.38-4.22-1.89-7.43-1.66c-7.3.51-7.3 3.84-7.81 6.15a32.25 32.25 0 0 0 .24 7.08z" class="a32-cls-12 a32-cls-13" data-color-action="fill" style="fill:inherit" data-name="three quarter crown"/><path id="a32_crown" d="M43.56 35.83c1.92-3.2 4.48-11.4 4.1-15.24S45 11 40.87 11.11s-9.48.13-10.89 1.28-2.82.9-3.33.38-4.22-1.89-7.43-1.66c-7.3.51-7.3 3.84-7.81 6.15s.77 14.47 2.43 17.67 27.98 3.8 29.72.9z" class="a32-cls-21" data-color-action="fill" style="fill:inherit"/><path id="a32_cracked_surface_distal" d="M15.66 29.17l-3.83-3.83h5l-5-4.75h5l-3.82-3.82" class="a32-cls-32" data-color-action="stroke" style="stroke:inherit" data-name="cracked surface distal"/><path id="a32_cracked_surface_buccal" d="M30.83 29.17L27 25.34h5l-5-4.75h5l-3.83-3.82" class="a32-cls-32" data-color-action="stroke" style="stroke:inherit" data-name="cracked surface buccal"/><path id="a32_cracked_surface_buccal_V" d="M30.83 29.17L27 25.34h5l-5-4.75h5l-3.83-3.82" class="a32-cls-32" data-color-action="stroke" style="stroke:inherit" data-name="cracked surface buccal V"/><path id="a32_cracked_surface_mesial" d="M46.66 29.17l-3.83-3.83h5l-5-4.75h5l-3.82-3.82" class="a32-cls-32" data-color-action="stroke" style="stroke:inherit" data-name="cracked surface mesial"/><g id="a32_chipped_surface_distal" class="a32-cls-12" data-name="chipped surface distal"><path d="M19.17 27.5l-8.34-8.33M10.83 27.5l8.34-8.33" class="a32-cls-33" data-color-action="stroke" style="stroke:inherit"/></g><g id="a32_chipped_surface_buccal" class="a32-cls-12" data-name="chipped surface buccal"><path d="M33.33 27.5L25 19.17M25 27.5l8.33-8.33" class="a32-cls-33" data-color-action="stroke" style="stroke:inherit"/></g><g id="a32_chipped_surface_buccal_V" class="a32-cls-12" data-name="chipped surface buccal V"><path d="M33.33 27.5L25 19.17M25 27.5l8.33-8.33" class="a32-cls-33" data-color-action="stroke" style="stroke:inherit"/></g><g id="a32_chipped_surface_mesial" class="a32-cls-12" data-name="chipped surface mesial"><path d="M48.33 27.5L40 19.17M40 27.5l8.33-8.33" class="a32-cls-33" data-color-action="stroke" style="stroke:inherit"/></g><path id="a32_buccal_abfraction" d="M44.68 36.41s-6.8-5.35-15.18-5.35-15.18 5.35-15.18 5.35 6.8 5.35 15.18 5.35 15.18-5.35 15.18-5.35z" class="a32-cls-14" data-color-action="fill" style="fill:inherit" data-name="buccal abfraction"/><g id="a32_braces"><path d="M22.59 14.84h13.45v18.19H22.59z" class="a32-cls-25"/><path d="M22.59 14.84h13.45v.68H22.59zM22.59 22.43h13.45v1.36H22.59z" class="a32-cls-34" data-color-action="fill" style="fill:inherit"/><path d="M22.59 32.14h13.45v.89H22.59z" class="a32-cls-35" data-color-action="fill" style="fill:inherit"/><rect width="4.11" height="7.94" x="22.3" y="25.07" class="a32-cls-28" rx=".49" ry=".49" data-color-action="fill" style="fill:inherit"/><path d="M25.92 33h-3.13a.49.49 0 0 1-.49-.49v-5.83a13.14 13.14 0 0 1 4.11 0v5.83a.49.49 0 0 1-.49.49z" class="a32-cls-18" data-color-action="fill" style="fill:inherit"/><path d="M26.08 31.6v1.11a.16.16 0 0 1-.16.16h-3.13a.16.16 0 0 1-.16-.16V31.6z" class="a32-cls-25"/><rect width="4.11" height="7.94" x="32.22" y="25.07" class="a32-cls-28" rx=".49" ry=".49" data-color-action="fill" style="fill:inherit"/><path d="M35.84 33h-3.13a.49.49 0 0 1-.49-.49v-5.83a13.14 13.14 0 0 1 4.11 0v5.83a.49.49 0 0 1-.49.49z" class="a32-cls-18" data-color-action="fill" style="fill:inherit"/><path d="M36 31.6v1.11a.16.16 0 0 1-.16.16h-3.13a.16.16 0 0 1-.16-.16V31.6z" class="a32-cls-25"/><rect width="4.11" height="7.94" x="22.3" y="14.78" class="a32-cls-28" rx=".49" ry=".49" data-color-action="fill" style="fill:inherit"/><path d="M25.92 22.72h-3.13a.49.49 0 0 1-.49-.49V16.4a13.14 13.14 0 0 1 4.11 0v5.83a.49.49 0 0 1-.49.49z" class="a32-cls-18" data-color-action="fill" style="fill:inherit"/><path d="M26.08 21.32v1.11a.16.16 0 0 1-.16.16h-3.13a.16.16 0 0 1-.16-.16v-1.11z" class="a32-cls-25"/><rect width="4.11" height="7.94" x="32.22" y="14.78" class="a32-cls-28" rx=".49" ry=".49" data-color-action="fill" style="fill:inherit"/><path d="M35.84 22.72h-3.13a.49.49 0 0 1-.49-.49V16.4a13.14 13.14 0 0 1 4.11 0v5.83a.49.49 0 0 1-.49.49z" class="a32-cls-18" data-color-action="fill" style="fill:inherit"/><path d="M36 21.32v1.11a.16.16 0 0 1-.16.16h-3.13a.16.16 0 0 1-.16-.16v-1.11z" class="a32-cls-25"/><path d="M8.21 23.17h42.21v1.45H8.21z" class="a32-cls-18" data-color-action="fill" style="fill:inherit"/><path d="M8.21 23.17h42.21v.25H8.21z" class="a32-cls-28" data-color-action="fill" style="fill:inherit"/><path d="M8.21 24.02h42.21v.4H8.21z" class="a32-cls-25"/></g><path id="a32_apicoectomy" d="M36.84 88L29.5 76.33 22.16 88h14.68z" class="a32-cls-17" data-color-action="fill" style="fill:inherit"/><circle id="a32_abscess" cx="29.5" cy="83.5" r="6.5" class="a32-cls-37" data-color-action="fill" style="fill:inherit"/><g id="a32_blunted_roots" data-name="blunted roots"><path d="M2 54.99h55V139H2z" class="a32-cls-23"/><path d="M2 52.9h55v2H2z" class="a32-cls-36" data-color-action="fill" style="fill:inherit"/></g><path id="a32_root_amputation" d="M2 37.66h55v101.68H2z" class="a32-cls-23" data-name="root amputation"/><path id="a32_missing_crown" d="M2 1.83h55v35.43H2z" class="a32-cls-23" data-name="missing crown"/><g id="a32_missing_tooth" data-name="missing tooth"><path d="M11.42 17.26c.51-2.31.51-5.64 7.81-6.15 3.2-.22 6.92 1.15 7.43 1.66s1.92.77 3.33-.38 6.79-1.15 10.89-1.28 6.4 5.64 6.79 9.48-2.18 12-4.1 15.24a1 1 0 0 1-.08.09 20.07 20.07 0 0 0-.11 3.82 57.36 57.36 0 0 1-2.6 22.06C39 67 33.26 76.47 29.93 78.45s-3.08-2-2.47-6.29S31 55.39 30.55 55.27s-3.21 14.55-3.7 17-.12 6.41-2 6.66-6.89-9.53-8-17.38c-1.46-10.35-.6-17.48-1.09-20.55a21.63 21.63 0 0 0-1.66-5.73 1.18 1.18 0 0 1-.25-.31c-1.67-3.23-2.95-15.4-2.43-17.7z" class="a32-cls-2"/><path d="M44.36 31.6c-.23 2.77-1.23 3.08-1 8.14a57.36 57.36 0 0 1-2.58 22.06C39 67 33.26 76.47 29.93 78.45s-3.08-2-2.47-6.29S31 55.39 30.55 55.27s-3.21 14.55-3.7 17-.12 6.41-2 6.66-6.89-9.53-8-17.38c-1.46-10.35-.6-17.48-1.09-20.55-.86-5.42-2.34-5.92-2.59-9.25s31.56-4.59 31.19-.15z" class="a32-cls-23"/><path d="M41.16 51.92c.18-5-.36-13.62-.54-16-.1-1.34 1.82-2.21 3.47-2.7a16.5 16.5 0 0 0-.71 6.47 57.36 57.36 0 0 1-2.6 22.11C39 67 33.26 76.47 29.93 78.45a4 4 0 0 1-1.09.47 45.84 45.84 0 0 0 6.76-9.25C37.93 65 41 56.94 41.16 51.92zM15.76 41a27.53 27.53 0 0 0-2.11-6.9l2.78.46a29.08 29.08 0 0 1 1.25 5.56c.18 2.33-.54 10.22-.18 16.13s2 10.58 3.23 14.52c.81 2.55 1.62 5 2.29 6.7-2.25-3-5.3-10-6.15-15.88-1.48-10.39-.62-17.52-1.11-20.59zM26.28 69.67c.36-3 1.79-14.34 3-15.42s2.87-.18 2.33 1.61-1.25 7.35-2.15 10a73.77 73.77 0 0 0-2.3 11.63 19.2 19.2 0 0 1 .27-5.38c.62-4.31 3.58-16.77 3.08-16.89s-3.21 14.55-3.7 17c-.33 1.67-.27 4-.78 5.44a73.27 73.27 0 0 1 .25-7.99z" class="a32-cls-23"/><path d="M19.65 35a18.34 18.34 0 0 1 1 7.16c-.12 3.2-1.65 8.84-1.29 14.3.58 10.08 4.09 16.65 4.53 16.22.92-.92-2-6-2.19-15.92-.12-8.18 1.31-12 1.75-15.19a15.19 15.19 0 0 0-.29-6.14c-.29-1.61-4.24-3.07-3.51-.43z" class="a32-cls-23"/><path d="M43.56 35.83c1.92-3.2 4.48-11.4 4.1-15.24S45 11 40.87 11.11s-9.48.13-10.89 1.28-2.82.9-3.33.38-4.22-1.89-7.43-1.66c-7.3.51-7.3 3.84-7.81 6.15s.77 14.47 2.43 17.67 27.98 3.8 29.72.9z" class="a32-cls-23"/><path d="M11.42 17.26c.46-2.05.52-4.91 5.66-5.87-2.33 1.4-2.42 3.78-2.73 5.59-.43 2.5.64 15.72 2 19.2a1.23 1.23 0 0 0 .08.13c-1.39-.38-2.34-.84-2.61-1.36-1.64-3.22-2.92-15.39-2.4-17.69zM44.72 20.58c-.25-3.21-1.45-7.64-3.55-9.46 3.91.15 6.12 5.71 6.5 9.46s-2.18 12-4.1 15.24a3.66 3.66 0 0 1-2.16 1C43 33.22 45 24.66 44.72 20.58zM28.12 77.21c.29.15 3.21-5.55 4.38-9.2s1.62-9.39 1.31-9.5-1.16 4.23-2.81 9.05c-1.91 5.89-3.17 9.5-2.88 9.65zM20.37 11.09a15.36 15.36 0 0 1 2.74.37 19.83 19.83 0 0 0-1.76 3.67c-1.27 3.93 0 12.75.76 16 .47 1.94 1.32 4.63 1.74 6.31-1.09-.09-2.14-.2-3.13-.32a61.79 61.79 0 0 1-1.9-6c-1.33-5.56-1.52-12.19-.38-16.1a8.2 8.2 0 0 1 1.93-3.93z" class="a32-cls-23"/></g><g id="a32_extracted_tooth" class="a32-msng-cls-10" data-name="extracted tooth"><path d="M9 10.51l41.67 41.66M50.67 10.51L9 52.17" class="a32-msng-cls-11" data-color-action="stroke" style="stroke:inherit"/></g><g id="a32_denture"><path d="M2.5 2.83h54v135.01h-54z" class="a32-cls-23" transform="rotate(-180 29.5 70.34)"/><path d="M57 60.78A22.63 22.63 0 0 1 44.78 64c-7.64 0-10-3.22-15.79-3.22S19.15 64 13.2 64A24.26 24.26 0 0 1 2 60.78V2.83h55z" class="a32-cls-31" data-color-action="fill" style="fill:inherit"/><path d="M43.56 35.83c1.92-3.2 4.48-11.4 4.1-15.24S45 11 40.87 11.11s-9.48.13-10.89 1.28-2.82.9-3.33.38-4.22-1.89-7.43-1.66c-7.3.51-7.3 3.84-7.81 6.15s.77 14.47 2.43 17.67 27.98 3.8 29.72.9z" class="a32-cls-2"/><path d="M43.56 35.83c1.92-3.2 4.48-11.4 4.1-15.24S45 11 40.87 11.11s-9.48.13-10.89 1.28-2.82.9-3.33.38-4.22-1.89-7.43-1.66c-7.3.51-7.3 3.84-7.81 6.15s.77 14.47 2.43 17.67 27.98 3.8 29.72.9z" class="a32-cls-6"/><path d="M11.42 17.26c.46-2.05.52-4.91 5.66-5.87-2.33 1.4-2.42 3.78-2.73 5.59-.43 2.5.64 15.72 2 19.2a1.23 1.23 0 0 0 .08.13c-1.39-.38-2.34-.84-2.61-1.36-1.64-3.22-2.92-15.39-2.4-17.69zM44.72 20.58c-.25-3.21-1.45-7.64-3.55-9.46 3.91.15 6.12 5.71 6.5 9.46s-2.18 12-4.1 15.24a3.66 3.66 0 0 1-2.16 1C43 33.22 45 24.66 44.72 20.58z" class="a32-cls-7"/><path d="M20.37 11.09a15.36 15.36 0 0 1 2.74.37 19.83 19.83 0 0 0-1.76 3.67c-1.27 3.93 0 12.75.76 16 .47 1.94 1.32 4.63 1.74 6.31-1.09-.09-2.14-.2-3.13-.32a61.79 61.79 0 0 1-1.9-6c-1.33-5.56-1.52-12.19-.38-16.1a8.2 8.2 0 0 1 1.93-3.93z" class="a32-cls-8"/></g><g id="a32_maryland_bridge_pontic" class="a32-cls-12" data-name="maryland bridge pontic"><path d="M43.56 35.83c1.92-3.2 4.48-11.4 4.1-15.24S45 11 40.87 11.11s-9.48.13-10.89 1.28-2.82.9-3.33.38-4.22-1.89-7.43-1.66c-7.3.51-7.3 3.84-7.81 6.15s.77 14.47 2.43 17.67 27.98 3.8 29.72.9z" class="a32-cls-20" data-color-action="fill" style="fill:inherit"/><path d="M2 18h55v7.67H2z" class="a32-cls-20" data-color-action="fill" style="fill:inherit"/></g><g id="a32_maryland_bridge_abutment_mesial" data-name="maryland bridge abutment mesial"><path d="M22.02 18H57v7.67H22.02z" class="a32-cls-12 a32-cls-20" data-color-action="fill" style="fill:inherit"/><path d="M11.42 17.26c.51-2.31.51-5.64 7.81-6.15 3.2-.22 6.92 1.15 7.43 1.66s1.92.77 3.33-.38 6.79-1.15 10.89-1.28 6.4 5.64 6.79 9.48-2.18 12-4.1 15.24a1 1 0 0 1-.08.09 20.07 20.07 0 0 0-.11 3.82 57.36 57.36 0 0 1-2.6 22.06C39 67 33.26 76.47 29.93 78.45s-3.08-2-2.47-6.29S31 55.39 30.55 55.27s-3.21 14.55-3.7 17-.12 6.41-2 6.66-6.89-9.53-8-17.38c-1.46-10.35-.6-17.48-1.09-20.55a21.63 21.63 0 0 0-1.66-5.73 1.18 1.18 0 0 1-.25-.31c-1.67-3.23-2.95-15.4-2.43-17.7z" class="a32-cls-2"/><path d="M44.36 31.6c-.23 2.77-1.23 3.08-1 8.14a57.36 57.36 0 0 1-2.58 22.06C39 67 33.26 76.47 29.93 78.45s-3.08-2-2.47-6.29S31 55.39 30.55 55.27s-3.21 14.55-3.7 17-.12 6.41-2 6.66-6.89-9.53-8-17.38c-1.46-10.35-.6-17.48-1.09-20.55-.86-5.42-2.34-5.92-2.59-9.25s31.56-4.59 31.19-.15z" class="a32-cls-3"/><path d="M41.16 51.92c.18-5-.36-13.62-.54-16-.1-1.34 1.82-2.21 3.47-2.7a16.5 16.5 0 0 0-.71 6.47 57.36 57.36 0 0 1-2.6 22.11C39 67 33.26 76.47 29.93 78.45a4 4 0 0 1-1.09.47 45.84 45.84 0 0 0 6.76-9.25C37.93 65 41 56.94 41.16 51.92zM15.76 41a27.53 27.53 0 0 0-2.11-6.9l2.78.46a29.08 29.08 0 0 1 1.25 5.56c.18 2.33-.54 10.22-.18 16.13s2 10.58 3.23 14.52c.81 2.55 1.62 5 2.29 6.7-2.25-3-5.3-10-6.15-15.88-1.48-10.39-.62-17.52-1.11-20.59zM26.28 69.67c.36-3 1.79-14.34 3-15.42s2.87-.18 2.33 1.61-1.25 7.35-2.15 10a73.77 73.77 0 0 0-2.3 11.63 19.2 19.2 0 0 1 .27-5.38c.62-4.31 3.58-16.77 3.08-16.89s-3.21 14.55-3.7 17c-.33 1.67-.27 4-.78 5.44a73.27 73.27 0 0 1 .25-7.99z" class="a32-cls-4"/><path d="M19.65 35a18.34 18.34 0 0 1 1 7.16c-.12 3.2-1.65 8.84-1.29 14.3.58 10.08 4.09 16.65 4.53 16.22.92-.92-2-6-2.19-15.92-.12-8.18 1.31-12 1.75-15.19a15.19 15.19 0 0 0-.29-6.14c-.29-1.61-4.24-3.07-3.51-.43z" class="a32-cls-5"/><path d="M43.56 35.83c1.92-3.2 4.48-11.4 4.1-15.24S45 11 40.87 11.11s-9.48.13-10.89 1.28-2.82.9-3.33.38-4.22-1.89-7.43-1.66c-7.3.51-7.3 3.84-7.81 6.15s.77 14.47 2.43 17.67 27.98 3.8 29.72.9z" class="a32-cls-6"/><path d="M11.42 17.26c.46-2.05.52-4.91 5.66-5.87-2.33 1.4-2.42 3.78-2.73 5.59-.43 2.5.64 15.72 2 19.2a1.23 1.23 0 0 0 .08.13c-1.39-.38-2.34-.84-2.61-1.36-1.64-3.22-2.92-15.39-2.4-17.69zM44.72 20.58c-.25-3.21-1.45-7.64-3.55-9.46 3.91.15 6.12 5.71 6.5 9.46s-2.18 12-4.1 15.24a3.66 3.66 0 0 1-2.16 1C43 33.22 45 24.66 44.72 20.58z" class="a32-cls-7"/><path d="M28.12 77.21c.29.15 3.21-5.55 4.38-9.2s1.62-9.39 1.31-9.5-1.16 4.23-2.81 9.05c-1.91 5.89-3.17 9.5-2.88 9.65z" class="a32-cls-5"/><path d="M20.37 11.09a15.36 15.36 0 0 1 2.74.37 19.83 19.83 0 0 0-1.76 3.67c-1.27 3.93 0 12.75.76 16 .47 1.94 1.32 4.63 1.74 6.31-1.09-.09-2.14-.2-3.13-.32a61.79 61.79 0 0 1-1.9-6c-1.33-5.56-1.52-12.19-.38-16.1a8.2 8.2 0 0 1 1.93-3.93z" class="a32-cls-8"/></g><g id="a32_maryland_bridge_abutment_distal" data-name="maryland bridge abutment distal"><path d="M2 18h34.98v7.67H2z" class="a32-cls-12 a32-cls-20" data-color-action="fill" style="fill:inherit"/><path d="M11.42 17.26c.51-2.31.51-5.64 7.81-6.15 3.2-.22 6.92 1.15 7.43 1.66s1.92.77 3.33-.38 6.79-1.15 10.89-1.28 6.4 5.64 6.79 9.48-2.18 12-4.1 15.24a1 1 0 0 1-.08.09 20.07 20.07 0 0 0-.11 3.82 57.36 57.36 0 0 1-2.6 22.06C39 67 33.26 76.47 29.93 78.45s-3.08-2-2.47-6.29S31 55.39 30.55 55.27s-3.21 14.55-3.7 17-.12 6.41-2 6.66-6.89-9.53-8-17.38c-1.46-10.35-.6-17.48-1.09-20.55a21.63 21.63 0 0 0-1.66-5.73 1.18 1.18 0 0 1-.25-.31c-1.67-3.23-2.95-15.4-2.43-17.7z" class="a32-cls-2"/><path d="M44.36 31.6c-.23 2.77-1.23 3.08-1 8.14a57.36 57.36 0 0 1-2.58 22.06C39 67 33.26 76.47 29.93 78.45s-3.08-2-2.47-6.29S31 55.39 30.55 55.27s-3.21 14.55-3.7 17-.12 6.41-2 6.66-6.89-9.53-8-17.38c-1.46-10.35-.6-17.48-1.09-20.55-.86-5.42-2.34-5.92-2.59-9.25s31.56-4.59 31.19-.15z" class="a32-cls-3"/><path d="M41.16 51.92c.18-5-.36-13.62-.54-16-.1-1.34 1.82-2.21 3.47-2.7a16.5 16.5 0 0 0-.71 6.47 57.36 57.36 0 0 1-2.6 22.11C39 67 33.26 76.47 29.93 78.45a4 4 0 0 1-1.09.47 45.84 45.84 0 0 0 6.76-9.25C37.93 65 41 56.94 41.16 51.92zM15.76 41a27.53 27.53 0 0 0-2.11-6.9l2.78.46a29.08 29.08 0 0 1 1.25 5.56c.18 2.33-.54 10.22-.18 16.13s2 10.58 3.23 14.52c.81 2.55 1.62 5 2.29 6.7-2.25-3-5.3-10-6.15-15.88-1.48-10.39-.62-17.52-1.11-20.59zM26.28 69.67c.36-3 1.79-14.34 3-15.42s2.87-.18 2.33 1.61-1.25 7.35-2.15 10a73.77 73.77 0 0 0-2.3 11.63 19.2 19.2 0 0 1 .27-5.38c.62-4.31 3.58-16.77 3.08-16.89s-3.21 14.55-3.7 17c-.33 1.67-.27 4-.78 5.44a73.27 73.27 0 0 1 .25-7.99z" class="a32-cls-4"/><path d="M19.65 35a18.34 18.34 0 0 1 1 7.16c-.12 3.2-1.65 8.84-1.29 14.3.58 10.08 4.09 16.65 4.53 16.22.92-.92-2-6-2.19-15.92-.12-8.18 1.31-12 1.75-15.19a15.19 15.19 0 0 0-.29-6.14c-.29-1.61-4.24-3.07-3.51-.43z" class="a32-cls-5"/><path d="M43.56 35.83c1.92-3.2 4.48-11.4 4.1-15.24S45 11 40.87 11.11s-9.48.13-10.89 1.28-2.82.9-3.33.38-4.22-1.89-7.43-1.66c-7.3.51-7.3 3.84-7.81 6.15s.77 14.47 2.43 17.67 27.98 3.8 29.72.9z" class="a32-cls-6"/><path d="M11.42 17.26c.46-2.05.52-4.91 5.66-5.87-2.33 1.4-2.42 3.78-2.73 5.59-.43 2.5.64 15.72 2 19.2a1.23 1.23 0 0 0 .08.13c-1.39-.38-2.34-.84-2.61-1.36-1.64-3.22-2.92-15.39-2.4-17.69zM44.72 20.58c-.25-3.21-1.45-7.64-3.55-9.46 3.91.15 6.12 5.71 6.5 9.46s-2.18 12-4.1 15.24a3.66 3.66 0 0 1-2.16 1C43 33.22 45 24.66 44.72 20.58z" class="a32-cls-7"/><path d="M28.12 77.21c.29.15 3.21-5.55 4.38-9.2s1.62-9.39 1.31-9.5-1.16 4.23-2.81 9.05c-1.91 5.89-3.17 9.5-2.88 9.65z" class="a32-cls-5"/><path d="M20.37 11.09a15.36 15.36 0 0 1 2.74.37 19.83 19.83 0 0 0-1.76 3.67c-1.27 3.93 0 12.75.76 16 .47 1.94 1.32 4.63 1.74 6.31-1.09-.09-2.14-.2-3.13-.32a61.79 61.79 0 0 1-1.9-6c-1.33-5.56-1.52-12.19-.38-16.1a8.2 8.2 0 0 1 1.93-3.93z" class="a32-cls-8"/></g><g id="a32_maryland_bridge_abutment" data-name="maryland bridge abutment"><path d="M2 18h55v7.67H2z" class="a32-cls-12 a32-cls-20" data-color-action="fill" style="fill:inherit"/><path d="M11.42 17.26c.51-2.31.51-5.64 7.81-6.15 3.2-.22 6.92 1.15 7.43 1.66s1.92.77 3.33-.38 6.79-1.15 10.89-1.28 6.4 5.64 6.79 9.48-2.18 12-4.1 15.24a1 1 0 0 1-.08.09 20.07 20.07 0 0 0-.11 3.82 57.36 57.36 0 0 1-2.6 22.06C39 67 33.26 76.47 29.93 78.45s-3.08-2-2.47-6.29S31 55.39 30.55 55.27s-3.21 14.55-3.7 17-.12 6.41-2 6.66-6.89-9.53-8-17.38c-1.46-10.35-.6-17.48-1.09-20.55a21.63 21.63 0 0 0-1.66-5.73 1.18 1.18 0 0 1-.25-.31c-1.67-3.23-2.95-15.4-2.43-17.7z" class="a32-cls-2"/><path d="M44.36 31.6c-.23 2.77-1.23 3.08-1 8.14a57.36 57.36 0 0 1-2.58 22.06C39 67 33.26 76.47 29.93 78.45s-3.08-2-2.47-6.29S31 55.39 30.55 55.27s-3.21 14.55-3.7 17-.12 6.41-2 6.66-6.89-9.53-8-17.38c-1.46-10.35-.6-17.48-1.09-20.55-.86-5.42-2.34-5.92-2.59-9.25s31.56-4.59 31.19-.15z" class="a32-cls-3"/><path d="M41.16 51.92c.18-5-.36-13.62-.54-16-.1-1.34 1.82-2.21 3.47-2.7a16.5 16.5 0 0 0-.71 6.47 57.36 57.36 0 0 1-2.6 22.11C39 67 33.26 76.47 29.93 78.45a4 4 0 0 1-1.09.47 45.84 45.84 0 0 0 6.76-9.25C37.93 65 41 56.94 41.16 51.92zM15.76 41a27.53 27.53 0 0 0-2.11-6.9l2.78.46a29.08 29.08 0 0 1 1.25 5.56c.18 2.33-.54 10.22-.18 16.13s2 10.58 3.23 14.52c.81 2.55 1.62 5 2.29 6.7-2.25-3-5.3-10-6.15-15.88-1.48-10.39-.62-17.52-1.11-20.59zM26.28 69.67c.36-3 1.79-14.34 3-15.42s2.87-.18 2.33 1.61-1.25 7.35-2.15 10a73.77 73.77 0 0 0-2.3 11.63 19.2 19.2 0 0 1 .27-5.38c.62-4.31 3.58-16.77 3.08-16.89s-3.21 14.55-3.7 17c-.33 1.67-.27 4-.78 5.44a73.27 73.27 0 0 1 .25-7.99z" class="a32-cls-4"/><path d="M19.65 35a18.34 18.34 0 0 1 1 7.16c-.12 3.2-1.65 8.84-1.29 14.3.58 10.08 4.09 16.65 4.53 16.22.92-.92-2-6-2.19-15.92-.12-8.18 1.31-12 1.75-15.19a15.19 15.19 0 0 0-.29-6.14c-.29-1.61-4.24-3.07-3.51-.43z" class="a32-cls-5"/><path d="M43.56 35.83c1.92-3.2 4.48-11.4 4.1-15.24S45 11 40.87 11.11s-9.48.13-10.89 1.28-2.82.9-3.33.38-4.22-1.89-7.43-1.66c-7.3.51-7.3 3.84-7.81 6.15s.77 14.47 2.43 17.67 27.98 3.8 29.72.9z" class="a32-cls-6"/><path d="M11.42 17.26c.46-2.05.52-4.91 5.66-5.87-2.33 1.4-2.42 3.78-2.73 5.59-.43 2.5.64 15.72 2 19.2a1.23 1.23 0 0 0 .08.13c-1.39-.38-2.34-.84-2.61-1.36-1.64-3.22-2.92-15.39-2.4-17.69zM44.72 20.58c-.25-3.21-1.45-7.64-3.55-9.46 3.91.15 6.12 5.71 6.5 9.46s-2.18 12-4.1 15.24a3.66 3.66 0 0 1-2.16 1C43 33.22 45 24.66 44.72 20.58z" class="a32-cls-7"/><path d="M28.12 77.21c.29.15 3.21-5.55 4.38-9.2s1.62-9.39 1.31-9.5-1.16 4.23-2.81 9.05c-1.91 5.89-3.17 9.5-2.88 9.65z" class="a32-cls-5"/><path d="M20.37 11.09a15.36 15.36 0 0 1 2.74.37 19.83 19.83 0 0 0-1.76 3.67c-1.27 3.93 0 12.75.76 16 .47 1.94 1.32 4.63 1.74 6.31-1.09-.09-2.14-.2-3.13-.32a61.79 61.79 0 0 1-1.9-6c-1.33-5.56-1.52-12.19-.38-16.1a8.2 8.2 0 0 1 1.93-3.93z" class="a32-cls-8"/></g><g id="a32_bridge_abutment_mesial" class="a32-cls-12" data-name="bridge abutment mesial"><path d="M43.56 35.83c1.92-3.2 4.48-11.4 4.1-15.24S45 11 40.87 11.11s-9.48.13-10.89 1.28-2.82.9-3.33.38-4.22-1.89-7.43-1.66c-7.3.51-7.3 3.84-7.81 6.15s.77 14.47 2.43 17.67 27.98 3.8 29.72.9z" class="a32-cls-18" data-color-action="fill" style="fill:inherit"/><path d="M22.02 18H57v7.67H22.02z" class="a32-cls-18" data-color-action="fill" style="fill:inherit"/></g><g id="a32_bridge_abutment_distal" class="a32-cls-12" data-name="bridge abutment distal"><path d="M43.56 35.83c1.92-3.2 4.48-11.4 4.1-15.24S45 11 40.87 11.11s-9.48.13-10.89 1.28-2.82.9-3.33.38-4.22-1.89-7.43-1.66c-7.3.51-7.3 3.84-7.81 6.15s.77 14.47 2.43 17.67 27.98 3.8 29.72.9z" class="a32-cls-18" data-color-action="fill" style="fill:inherit"/><path d="M2 18h34.98v7.67H2z" class="a32-cls-18" data-color-action="fill" style="fill:inherit"/></g><g id="a32_bridge_abutment" class="a32-cls-12" data-name="bridge abutment"><path d="M43.56 35.83c1.92-3.2 4.48-11.4 4.1-15.24S45 11 40.87 11.11s-9.48.13-10.89 1.28-2.82.9-3.33.38-4.22-1.89-7.43-1.66c-7.3.51-7.3 3.84-7.81 6.15s.77 14.47 2.43 17.67 27.98 3.8 29.72.9z" class="a32-cls-18" data-color-action="fill" style="fill:inherit"/><path d="M2 18h55v7.67H2z" class="a32-cls-18" data-color-action="fill" style="fill:inherit"/></g><g id="a32_bridge_pontic" data-name="bridge pontic"><path d="M11.42 17.26c.51-2.31.51-5.64 7.81-6.15 3.2-.22 6.92 1.15 7.43 1.66s1.92.77 3.33-.38 6.79-1.15 10.89-1.28 6.4 5.64 6.79 9.48-2.18 12-4.1 15.24a1 1 0 0 1-.08.09 20.07 20.07 0 0 0-.11 3.82 57.36 57.36 0 0 1-2.6 22.06C39 67 33.26 76.47 29.93 78.45s-3.08-2-2.47-6.29S31 55.39 30.55 55.27s-3.21 14.55-3.7 17-.12 6.41-2 6.66-6.89-9.53-8-17.38c-1.46-10.35-.6-17.48-1.09-20.55a21.63 21.63 0 0 0-1.66-5.73 1.18 1.18 0 0 1-.25-.31c-1.67-3.23-2.95-15.4-2.43-17.7z" class="a32-cls-2"/><path d="M44.36 31.6c-.23 2.77-1.23 3.08-1 8.14a57.36 57.36 0 0 1-2.58 22.06C39 67 33.26 76.47 29.93 78.45s-3.08-2-2.47-6.29S31 55.39 30.55 55.27s-3.21 14.55-3.7 17-.12 6.41-2 6.66-6.89-9.53-8-17.38c-1.46-10.35-.6-17.48-1.09-20.55-.86-5.42-2.34-5.92-2.59-9.25s31.56-4.59 31.19-.15z" class="a32-cls-23"/><path d="M41.16 51.92c.18-5-.36-13.62-.54-16-.1-1.34 1.82-2.21 3.47-2.7a16.5 16.5 0 0 0-.71 6.47 57.36 57.36 0 0 1-2.6 22.11C39 67 33.26 76.47 29.93 78.45a4 4 0 0 1-1.09.47 45.84 45.84 0 0 0 6.76-9.25C37.93 65 41 56.94 41.16 51.92zM15.76 41a27.53 27.53 0 0 0-2.11-6.9l2.78.46a29.08 29.08 0 0 1 1.25 5.56c.18 2.33-.54 10.22-.18 16.13s2 10.58 3.23 14.52c.81 2.55 1.62 5 2.29 6.7-2.25-3-5.3-10-6.15-15.88-1.48-10.39-.62-17.52-1.11-20.59zM26.28 69.67c.36-3 1.79-14.34 3-15.42s2.87-.18 2.33 1.61-1.25 7.35-2.15 10a73.77 73.77 0 0 0-2.3 11.63 19.2 19.2 0 0 1 .27-5.38c.62-4.31 3.58-16.77 3.08-16.89s-3.21 14.55-3.7 17c-.33 1.67-.27 4-.78 5.44a73.27 73.27 0 0 1 .25-7.99z" class="a32-cls-23"/><path d="M19.65 35a18.34 18.34 0 0 1 1 7.16c-.12 3.2-1.65 8.84-1.29 14.3.58 10.08 4.09 16.65 4.53 16.22.92-.92-2-6-2.19-15.92-.12-8.18 1.31-12 1.75-15.19a15.19 15.19 0 0 0-.29-6.14c-.29-1.61-4.24-3.07-3.51-.43z" class="a32-cls-23"/><path d="M43.56 35.83c1.92-3.2 4.48-11.4 4.1-15.24S45 11 40.87 11.11s-9.48.13-10.89 1.28-2.82.9-3.33.38-4.22-1.89-7.43-1.66c-7.3.51-7.3 3.84-7.81 6.15s.77 14.47 2.43 17.67 27.98 3.8 29.72.9z" class="a32-cls-6"/><path d="M11.42 17.26c.46-2.05.52-4.91 5.66-5.87-2.33 1.4-2.42 3.78-2.73 5.59-.43 2.5.64 15.72 2 19.2a1.23 1.23 0 0 0 .08.13c-1.39-.38-2.34-.84-2.61-1.36-1.64-3.22-2.92-15.39-2.4-17.69zM44.72 20.58c-.25-3.21-1.45-7.64-3.55-9.46 3.91.15 6.12 5.71 6.5 9.46s-2.18 12-4.1 15.24a3.66 3.66 0 0 1-2.16 1C43 33.22 45 24.66 44.72 20.58z" class="a32-cls-7"/><path d="M28.12 77.21c.29.15 3.21-5.55 4.38-9.2s1.62-9.39 1.31-9.5-1.16 4.23-2.81 9.05c-1.91 5.89-3.17 9.5-2.88 9.65z" class="a32-cls-23"/><path d="M20.37 11.09a15.36 15.36 0 0 1 2.74.37 19.83 19.83 0 0 0-1.76 3.67c-1.27 3.93 0 12.75.76 16 .47 1.94 1.32 4.63 1.74 6.31-1.09-.09-2.14-.2-3.13-.32a61.79 61.79 0 0 1-1.9-6c-1.33-5.56-1.52-12.19-.38-16.1a8.2 8.2 0 0 1 1.93-3.93z" class="a32-cls-8"/><g class="a32-cls-12"><path d="M43.56 35.83c1.92-3.2 4.48-11.4 4.1-15.24S45 11 40.87 11.11s-9.48.13-10.89 1.28-2.82.9-3.33.38-4.22-1.89-7.43-1.66c-7.3.51-7.3 3.84-7.81 6.15s.77 14.47 2.43 17.67 27.98 3.8 29.72.9z" class="a32-cls-18" data-color-action="fill" style="fill:inherit"/><path d="M2 18h55v7.67H2z" class="a32-cls-18" data-color-action="fill" style="fill:inherit"/></g></g><g id="a32_implant_mini" data-name="implant mini"><path d="M2.39 1.79h55v137.17h-55z" class="a32-cls-23"/><path d="M29.72 77.93h-.44l-1-8.49V28.6h2.44v40.84l-1 8.49z" class="a32-cls-18" data-color-action="fill" style="fill:inherit"/><path d="M29.42 77.93h-.07l-.4-8.49V28.6h.37v40.84l.1 8.49z" class="a32-cls-25"/><path d="M28.28 28.6h2.44v.63h-2.44z" class="a32-cls-28" data-color-action="fill" style="fill:inherit"/><g class="a32-cls-29"><path d="M28.28 29.23l2.44 1v-.63l-2.44-1v.63zM28.28 30.68l2.44 1v-.63l-2.44-1v.63zM28.28 32.12l2.44 1v-.63l-2.44-1v.63zM28.28 33.57l2.44 1v-.63l-2.44-1v.63zM28.28 35.02l2.44 1v-.64l-2.44-1v.64zM28.28 36.46l2.44 1v-.63l-2.44-1v.63zM28.28 37.91l2.44 1v-.64l-2.44-1v.64zM28.28 39.35l2.44 1v-.63l-2.44-1v.63zM28.28 40.8l2.44 1v-.64l-2.44-1v.64zM28.28 42.24l2.44 1v-.63l-2.44-1v.63zM28.28 43.69l2.44 1v-.64l-2.44-1v.64zM28.28 45.13l2.44 1v-.63l-2.44-1v.63zM28.28 46.58l2.44 1v-.63l-2.44-1v.63zM28.28 48.02l2.44 1v-.63l-2.44-1v.63zM28.28 49.47l2.44 1v-.63l-2.44-1v.63zM28.28 50.91l2.44 1v-.63l-2.44-1v.63zM28.28 52.36l2.44 1v-.63l-2.44-1v.63zM28.28 53.8l2.44 1.01v-.64l-2.44-1v.63zM28.28 55.25l2.44 1v-.63l-2.44-1v.63zM28.28 56.7l2.44 1v-.64l-2.44-1v.64zM28.28 58.14l2.44 1v-.63l-2.44-1v.63zM28.28 59.59l2.44 1v-.63l-2.44-1.01v.64zM28.28 61.03l2.44 1v-.63l-2.44-1v.63zM28.28 62.48l2.44 1v-.63l-2.44-1v.63zM28.28 63.92l2.44 1v-.63l-2.44-1v.63zM28.28 65.37l2.44 1v-.63l-2.44-1v.63zM28.28 66.81l2.44 1v-.63l-2.44-1v.63zM28.28 68.26l2.44 1v-.63l-2.44-1v.63zM28.28 69.44l.03.28 2.27.93.07-.61-2.37-.97v.37zM28.49 71.24l1.93.79.07-.61-2.08-.85.08.67zM28.67 72.76l1.58.65.08-.61-1.74-.71.08.67zM28.85 74.28l1.24.5.07-.6-1.39-.57.08.67zM29.03 75.79l.9.37.07-.6-1.05-.43.08.66zM29.2 77.31l.57.23.07-.6-.71-.29.07.66z" class="a32-cls-28" data-color-action="fill" style="fill:inherit"/></g><circle cx="29.5" cy="24.73" r="2.24" class="a32-cls-18" data-color-action="fill" style="fill:inherit"/><path d="M27.67 25.95h3.67v3h-3.67z" class="a32-cls-18" data-color-action="fill" style="fill:inherit"/><path d="M28.49 25.95h.55v3h-.55z" class="a32-cls-25"/><path d="M28.7 23.37h-.21a2.32 2.32 0 0 0-.49 1.29 2.37 2.37 0 0 0 .52 1.3H29a2 2 0 0 1-.73-1.37 1.5 1.5 0 0 1 .43-1.22z" class="a32-cls-25"/><path d="M28.28 34.67h2.44v.63h-2.44z" class="a32-cls-28" data-color-action="fill" style="fill:inherit"/><path d="M32.11 28.92h-5.22l.87 5.71h3.48l.87-5.71z" class="a32-cls-18" data-color-action="fill" style="fill:inherit"/><path d="M28.85 28.92h-.79l.48 5.71h.53l-.22-5.71z" class="a32-cls-25"/></g><g id="a32_implant_cylinder" data-name="implant cylinder"><path d="M2 1.83h55V139H2z" class="a32-cls-23"/><path d="M26.17 25.65h6.67v49.33h-6.67z" class="a32-cls-18" data-color-action="fill" style="fill:inherit"/><path d="M24.5 22.66h10v3h-10z" class="a32-cls-18" data-color-action="fill" style="fill:inherit"/><path d="M28 25.65h1v49.33h-1z" class="a32-cls-25"/><path d="M26.75 22.66h1.5v3h-1.5z" class="a32-cls-25"/><path d="M24.5 75.02h10v3h-10z" class="a32-cls-18" data-color-action="fill" style="fill:inherit"/><path d="M26.75 75.02h1.5v3h-1.5z" class="a32-cls-25"/><path d="M26.17 25.65h6.67v.63h-6.67zM26.17 74.35h6.67v.63h-6.67z" class="a32-cls-28" data-color-action="fill" style="fill:inherit"/><g class="a32-cls-29"><path d="M32.83 73.35l-6.66 1.01v.63l6.66-1v-.64zM32.83 71.91l-6.66 1v.63l6.66-1v-.63zM32.83 70.46l-6.66 1v.64l6.66-1.01v-.63zM32.83 69.02l-6.66 1v.63l6.66-1v-.63zM32.83 67.57l-6.66 1v.63l6.66-1v-.63zM32.83 66.13l-6.66 1v.63l6.66-1v-.63zM32.83 64.68l-6.66 1v.63l6.66-1v-.63zM32.83 63.24l-6.66 1v.63l6.66-1v-.63zM32.83 61.79l-6.66 1v.63l6.66-1v-.63zM32.83 60.34l-6.66 1.01v.63l6.66-1v-.64zM32.83 58.9l-6.66 1v.63l6.66-1v-.63zM32.83 57.45l-6.66 1v.64l6.66-1v-.64zM32.83 56.01l-6.66 1v.63l6.66-1v-.63zM32.83 54.56l-6.66 1v.64l6.66-1v-.64zM32.83 53.12l-6.66 1v.63l6.66-1v-.63zM32.83 51.67l-6.66 1v.63l6.66-1v-.63zM32.83 50.23l-6.66 1v.63l6.66-1v-.63zM32.83 48.78l-6.66 1v.63l6.66-1v-.63zM32.83 47.34l-6.66 1v.63l6.66-1v-.63zM32.83 45.89l-6.66 1v.63l6.66-1v-.63zM32.83 44.45l-6.66 1v.63l6.66-1v-.63zM32.83 43l-6.66 1v.63l6.66-1V43zM32.83 41.55l-6.66 1v.64l6.66-1v-.64zM32.83 40.11l-6.66 1v.63l6.66-1v-.63zM32.83 38.66l-6.66 1v.64l6.66-1v-.64zM32.83 37.22l-6.66 1v.63l6.66-1v-.63zM32.83 35.77l-6.66 1v.64l6.66-1v-.64zM32.83 34.33l-6.66 1v.63l6.66-1v-.63zM32.83 32.88l-6.66 1v.63l6.66-1v-.63zM32.83 31.44l-6.66 1v.63l6.66-1v-.63zM32.83 29.99l-6.66 1v.63l6.66-1v-.63zM32.83 28.55l-6.66 1v.63l6.66-1v-.63zM32.83 27.1l-6.66 1v.63l6.66-1v-.63zM32.83 25.65l-6.66 1.01v.63l6.66-1v-.64z" class="a32-cls-28" data-color-action="fill" style="fill:inherit"/></g></g><g id="a32_implant_blade" data-name="implant blade"><path d="M2 1.83h55V139H2z" class="a32-cls-23"/><path d="M26.17 25.65h6.67v49.33h-6.67z" class="a32-cls-18" data-color-action="fill" style="fill:inherit"/><path d="M24.5 22.66h10v3h-10z" class="a32-cls-18" data-color-action="fill" style="fill:inherit"/><path d="M28 25.65h1v49.33h-1z" class="a32-cls-25"/><path d="M26.75 22.66h1.5v3h-1.5z" class="a32-cls-25"/><path d="M26.17 25.65h6.67v.63h-6.67z" class="a32-cls-28" data-color-action="fill" style="fill:inherit"/></g><path id="a32_watch_tooth" d="M8.27 153.9a3.26 3.26 0 0 1 3.22-3.26 3.24 3.24 0 1 1 0 6.47 3.25 3.25 0 0 1-3.22-3.21zm1-5.91l-.88-18.09h6.15l-.8 18.1z" class="a32-cls-11" data-color-action="fill" style="fill:inherit" data-name="watch tooth"/><path id="a32_border" d="M0 0h59v161H0z" class="a32-cls-15"/></defs></g><g class="b32-cls-1" transform="translate(0 66)"><g id="_32B" data-name="#32B"><path d="M46.63 16.9a12.94 12.94 0 0 1 .88 6.36c-.22 1.1-1.32 2-.88 3.07a30.62 30.62 0 0 1 .88 9.67c-.44 2.63-4 5-5.06 6.36s-5.06 2.19-8.36 2.19-13 .66-14.53-.88-6.83-4.39-7.27-7.67-1.1-7.68-.66-9.21-.44-2.19-.22-5 .22-8.34 4.4-9.65 12.11-.66 13.21 0 3.74-.22 5.5 0S44 11.2 46.63 16.9z" class="b32-cls-2"/><path d="M46.63 16.9a12.94 12.94 0 0 1 .88 6.36c-.22 1.1-1.32 2-.88 3.07a30.62 30.62 0 0 1 .88 9.67c-.44 2.63-4 5-5.06 6.36s-5.06 2.19-8.36 2.19-13 .66-14.53-.88-6.83-4.39-7.27-7.67-1.1-7.68-.66-9.21-.44-2.19-.22-5 .22-8.34 4.4-9.65 12.11-.66 13.21 0 3.74-.22 5.5 0S44 11.2 46.63 16.9z" class="b32-cls-3"/><path d="M36.28 26.12c.14 1.27-3.3-.66-4.18.66s-.44 7.9-1.54 7.24 0-7-1.32-7.24-8.14.22-8.14-.66 5.72-.66 7-1.32 1.54-4.83 2.42-4.39 0 3.29.66 3.73 4.88 0 5.1 1.98z" class="b32-cls-4"/><path d="M40.19 14.43c-3.2 0-6.62-.48-7.77.24s-1.37 1.2-2.51.48a13.42 13.42 0 0 0-6.4-1.44c-2.74 0-7.08-.48-8.45 1.2a29 29 0 0 0-3.52 4.88c.24-2.91.9-6.65 4.26-7.71 4.18-1.32 12.11-.66 13.21 0s3.74-.22 5.5 0S44 11.2 46.63 16.9a12.94 12.94 0 0 1 .88 6.36 2.33 2.33 0 0 1-.08.26c-.22-2-.58-4.24-1.3-5-1.13-1.2-2.74-4.09-5.94-4.09z" class="b32-cls-5"/><path d="M44.46 40.41c-.82.77-1.6 1.44-2 1.94-1.1 1.32-5.06 2.19-8.36 2.19s-13 .66-14.53-.88c-.76-.75-2.42-1.83-4-3.11S18.81 43 20.41 43s7.31.24 8.22-1 1.83-.72 3.43.24 3 .48 5.71.48 8.02-3.56 6.69-2.31z" class="b32-cls-6"/></g><defs><g id="b32_splinted_crowns" data-name="splinted crowns"><path d="M28 51.75h3v3h-3z" class="b32-cls-8"/><path d="M28 51.75h3v3h-3z" class="b32-cls-8"/><path d="M28 51.75h3v3h-3z" class="b32-cls-8"/></g><path id="b32_cusp_1" d="M31.6 32.1l5.24 12.26c2.48-.32 4.81-1 5.61-2 1-1.2 4-3.33 4.88-5.7l-13.62-5.92a5.38 5.38 0 0 1-2.11 1.36z" class="b32-cls-7" data-color-action="fill" style="fill:inherit" data-name="cusp 1"/><path id="b32_groove_1" d="M29.93 32.38a5.13 5.13 0 0 1-.66 0L24.2 44.63c3.47.16 7.86-.08 9.88-.08a21.61 21.61 0 0 0 2.76-.19L31.6 32.1a5.12 5.12 0 0 1-1.67.28z" class="b32-cls-7" data-color-action="fill" style="fill:inherit" data-name="groove 1"/><path id="b32_cusp_2" d="M26.67 31.22l-13.74 6.46c1.55 2.56 5.35 4.72 6.62 6 .6.6 2.44.86 4.65 1l5.07-12.29a5.22 5.22 0 0 1-2.6-1.17z" class="b32-cls-7" data-color-action="fill" style="fill:inherit" data-name="cusp 2"/><path id="b32_mesial" d="M47.6 35.09a32.75 32.75 0 0 0-1-8.75c-.44-1.1.66-2 .88-3.07A13.24 13.24 0 0 0 47 17.8a22.47 22.47 0 0 0-2.63 8.71c-.07 2.62 1.63 6.25 3.23 8.58z" class="b32-cls-7" data-color-action="fill" style="fill:inherit"/><path id="b32_mesial_pit" d="M46.22 16.17L33.34 22a6.06 6.06 0 0 1 .37 8.69l13.61 5.91a3.9 3.9 0 0 0 .18-.66 8.76 8.76 0 0 0 .09-.9c-1.63-2.32-3.3-6-3.26-8.57A22.47 22.47 0 0 1 47 17.8a8.23 8.23 0 0 0-.35-.9 7.41 7.41 0 0 0-.43-.73z" class="b32-cls-7" data-color-action="fill" style="fill:inherit" data-name="mesial pit"/><path id="b32_central_pit" d="M24.48 26.57a5.93 5.93 0 0 0 2.18 4.65 5.22 5.22 0 0 0 2.6 1.12 5 5 0 0 0 2.33-.24 5.38 5.38 0 0 0 2.12-1.36 6.06 6.06 0 0 0-.37-8.74A5.28 5.28 0 0 0 31 20.88a5 5 0 0 0-2.39 0 5.32 5.32 0 0 0-2.34 1.31 6 6 0 0 0-1.79 4.38z" class="b32-cls-7" data-color-action="fill" style="fill:inherit" data-name="central pit"/><path id="b32_distal_pit" d="M24.48 26.57a6 6 0 0 1 1.82-4.33l-13.81-6.93a13.72 13.72 0 0 0-.88 3.81c1.27 2.27 2.61 5.36 2.73 7.77.1 1.85-1.08 6-2.13 8.53l.08.57a4.44 4.44 0 0 0 .64 1.69l13.74-6.46a5.93 5.93 0 0 1-2.19-4.65z" class="b32-cls-7" data-color-action="fill" style="fill:inherit" data-name="distal pit"/><path id="b32_distal" d="M14.34 26.89c-.13-2.41-1.46-5.5-2.73-7.77-.1 1-.15 1.88-.2 2.61-.22 2.85.66 3.51.22 5s.15 5.44.58 8.65c1.05-2.5 2.23-6.64 2.13-8.49z" class="b32-cls-7" data-color-action="fill" style="fill:inherit"/><path id="b32_cusp_3" d="M33.34 22l12.88-5.88c-2.54-4.2-8.15-4-10.73-4.06L31 20.88A5.28 5.28 0 0 1 33.34 22z" class="b32-cls-7" data-color-action="fill" style="fill:inherit" data-name="cusp 3"/><path id="b32_groove_2" d="M29.93 20.76a5.13 5.13 0 0 1 1.11.12l4.46-8.77a9.3 9.3 0 0 1-1 0c-1.76-.22-4.4.66-5.5 0a12.69 12.69 0 0 0-3.8-.65l3.43 9.51a5.11 5.11 0 0 1 1.3-.21z" class="b32-cls-7" data-color-action="fill" style="fill:inherit" data-name="groove 2"/><path id="b32_cusp_4" d="M28.64 20.93l-3.43-9.51a28.61 28.61 0 0 0-9.41.65 5.29 5.29 0 0 0-3.32 3.23l13.82 6.94a5.32 5.32 0 0 1 2.34-1.31z" class="b32-cls-7" data-color-action="fill" style="fill:inherit" data-name="cusp 4"/><g id="b32_veneer"><path d="M28 51.75h3v3h-3z" class="b32-cls-8"/><path d="M28 51.75h3v3h-3z" class="b32-cls-8"/><path d="M28 51.75h3v3h-3z" class="b32-cls-8"/></g><g id="b32_tissue_graft" data-name="tissue graft"><path d="M28 51.75h3v3h-3z" class="b32-cls-8"/><path d="M28 51.75h3v3h-3z" class="b32-cls-8"/><path d="M28 51.75h3v3h-3z" class="b32-cls-8"/></g><path id="b32_surface_restoration_buccal" d="M20.08 39c.68.51 1.29 1 1.82 1.42a25.83 25.83 0 0 0 5 .3c1.58 0 3.19 0 4.55-.08 1.07 0 2-.06 2.67-.06a14.43 14.43 0 0 0 5.48-1c.43-.48.92-.93 1.49-1.45l2.85 2.82a18.59 18.59 0 0 0-1.48 1.44c-1.1 1.32-5.06 2.19-8.36 2.19s-13 .66-14.53-.88c-.81-.81-2.66-2-4.29-3.39l2.83-2.85c.71.54 1.48 1.15 1.97 1.54z" class="b32-cls-9" data-color-action="fill" style="fill:inherit" data-name="surface restoration buccal"/><path id="b32_surface_restoration_mesial" d="M43.57 35.3a29.2 29.2 0 0 0-.69-7.55 6 6 0 0 1 .62-5.22l.1-.18a9.73 9.73 0 0 0-.6-3.76 3.37 3.37 0 0 0-1.5-1.53l2.77-3a7.13 7.13 0 0 1 2.37 2.85 12.94 12.94 0 0 1 .88 6.36c-.22 1.1-1.32 2-.88 3.07a30.62 30.62 0 0 1 .87 9.66c-.31 1.85-2.14 3.59-3.58 4.92l-2.85-2.82c.71-.66 2.3-2.1 2.49-2.8z" class="b32-cls-9" data-color-action="fill" style="fill:inherit" data-name="surface restoration mesial"/><path id="b32_surface_restoration_occlusal" d="M15.4 22l.05-.79c.11-1.74.33-5 1.56-5.36a19.63 19.63 0 0 1 5.31-.58 27.21 27.21 0 0 1 5 .4 6.51 6.51 0 0 0 2.92.61 19 19 0 0 0 2.19-.16c.57-.02 1.08-.12 1.45-.12H34a14.62 14.62 0 0 0 1.78.07c2.93 0 6.15.2 7.2 2.47a9.73 9.73 0 0 1 .6 3.76l-.1.18a6 6 0 0 0-.62 5.22 29.2 29.2 0 0 1 .69 7.55c-.2.69-1.83 2.18-2.52 2.82s-1.06 1-1.49 1.45a14.43 14.43 0 0 1-5.48 1c-.67 0-1.6 0-2.67.06-1.36 0-3 .08-4.55.08a25.83 25.83 0 0 1-5-.3c-.52-.46-1.13-.91-1.82-1.42-1.06-.79-3.55-2.64-3.82-3.51l-.12-.92a46.7 46.7 0 0 1-.63-6.76 7.78 7.78 0 0 0 0-3.77A6.3 6.3 0 0 1 15.4 22z" class="b32-cls-9" data-color-action="fill" style="fill:inherit" data-name="surface restoration occlusal"/><path id="b32_surface_restoration_distal" d="M12.29 36c-.44-3.29-1.1-7.68-.66-9.21s-.44-2.19-.22-5c.17-2.23.22-6.05 2.22-8.25l2.62 3.2a14.34 14.34 0 0 0-.8 4.57l-.05.69a6.3 6.3 0 0 0 .14 2 7.78 7.78 0 0 1 0 3.77 46.7 46.7 0 0 0 .63 6.76l.13.92a6.54 6.54 0 0 0 1.84 2l-2.83 2.85c-1.52-1.3-2.81-2.75-3.02-4.3z" class="b32-cls-9" data-color-action="fill" style="fill:inherit" data-name="surface restoration distal"/><path id="b32_surface_restoration_lingual" d="M35.8 16.11A14.62 14.62 0 0 1 34 16h-.15c-.36 0-.9.06-1.42.12a19 19 0 0 1-2.19.16 6.51 6.51 0 0 1-2.92-.61 27.21 27.21 0 0 0-5-.4 19.63 19.63 0 0 0-5.31.58 1.4 1.4 0 0 0-.76.79l-2.62-3.2a4.87 4.87 0 0 1 2.18-1.4c4.18-1.32 12.11-.66 13.21 0s3.74-.22 5.5 0c1.37.17 6.36-.44 9.74 2l-2.77 3c-1.49-.81-3.65-.92-5.69-.93z" class="b32-cls-9" data-color-action="fill" style="fill:inherit" data-name="surface restoration lingual"/><g id="b32_supra-erupted"><path d="M28 51.75h3v3h-3z" class="b32-cls-8"/><path d="M28 51.75h3v3h-3z" class="b32-cls-8"/><path d="M28 51.75h3v3h-3z" class="b32-cls-8"/></g><g id="b32_sub-erupted"><path d="M28 51.75h3v3h-3z" class="b32-cls-8"/><path d="M28 51.75h3v3h-3z" class="b32-cls-8"/><path d="M28 51.75h3v3h-3z" class="b32-cls-8"/></g><text id="b32_sealant" class="b32-cls-10" transform="translate(19.7 38.55)" data-color-action="fill" style="fill:inherit">S</text><g id="b32_root_decay" data-name="root decay"><path d="M28 51.75h3v3h-3z" class="b32-cls-8"/><path d="M28 51.75h3v3h-3z" class="b32-cls-8"/><path d="M28 51.75h3v3h-3z" class="b32-cls-8"/></g><g id="b32_root_canal" data-name="root canal"><path d="M28 51.75h3v3h-3z" class="b32-cls-8"/><path d="M28 51.75h3v3h-3z" class="b32-cls-8"/><path d="M28 51.75h3v3h-3z" class="b32-cls-8"/></g><g id="b32_root_abrasion" data-name="root abrasion"><path d="M28 51.75h3v3h-3z" class="b32-cls-8"/><path d="M28 51.75h3v3h-3z" class="b32-cls-8"/><path d="M28 51.75h3v3h-3z" class="b32-cls-8"/></g><g id="b32_post"><path d="M28 51.75h3v3h-3z" class="b32-cls-8"/><path d="M28 51.75h3v3h-3z" class="b32-cls-8"/><path d="M28 51.75h3v3h-3z" class="b32-cls-8"/></g><g id="b32_pins"><path d="M28 51.75h3v3h-3z" class="b32-cls-8"/><path d="M28 51.75h3v3h-3z" class="b32-cls-8"/><path d="M28 51.75h3v3h-3z" class="b32-cls-8"/></g><g id="b32_open_contact_mesial" data-name="open contact mesial"><path d="M28 51.75h3v3h-3z" class="b32-cls-8"/><path d="M28 51.75h3v3h-3z" class="b32-cls-8"/><path d="M28 51.75h3v3h-3z" class="b32-cls-8"/></g><g id="b32_open_contact_distal" data-name="open contact distal"><path d="M28 51.75h3v3h-3z" class="b32-cls-8"/><path d="M28 51.75h3v3h-3z" class="b32-cls-8"/><path d="M28 51.75h3v3h-3z" class="b32-cls-8"/></g><g id="b32_lingual_abfraction" data-name="lingual abfraction"><path d="M28 51.75h3v3h-3z" class="b32-cls-8"/><path d="M28 51.75h3v3h-3z" class="b32-cls-8"/><path d="M28 51.75h3v3h-3z" class="b32-cls-8"/></g><g id="b32_internal_root_resorption" data-name="internal root resorption"><path d="M28 51.75h3v3h-3z" class="b32-cls-8"/><path d="M28 51.75h3v3h-3z" class="b32-cls-8"/><path d="M28 51.75h3v3h-3z" class="b32-cls-8"/></g><g id="b32_gortex_membranes" data-name="gortex membranes"><path d="M28 51.75h3v3h-3z" class="b32-cls-8"/><path d="M28 51.75h3v3h-3z" class="b32-cls-8"/><path d="M28 51.75h3v3h-3z" class="b32-cls-8"/></g><g id="b32_frenum_pull" data-name="frenum pull"><path d="M28 51.75h3v3h-3z" class="b32-cls-8"/><path d="M28 51.75h3v3h-3z" class="b32-cls-8"/><path d="M28 51.75h3v3h-3z" class="b32-cls-8"/></g><g id="b32_external_root_resorption" data-name="external root resorption"><path d="M28 51.75h3v3h-3z" class="b32-cls-8"/><path d="M28 51.75h3v3h-3z" class="b32-cls-8"/><path d="M28 51.75h3v3h-3z" class="b32-cls-8"/></g><path id="b32_three_quarter_crown" d="M46.63 16.9a12.94 12.94 0 0 1 .88 6.36c-.22 1.1-1.32 2-.88 3.07a30.62 30.62 0 0 1 .88 9.67c-.44 2.63-4 5-5.06 6.36s-5.06 2.19-8.36 2.19-13 .66-14.53-.88-6.83-4.39-7.27-7.67-1.1-7.68-.66-9.21-.44-2.19-.22-5 .22-8.34 4.4-9.65 12.11-.66 13.21 0 3.74-.22 5.5 0S44 11.2 46.63 16.9z" class="b32-cls-12 b32-cls-16" data-color-action="fill" style="fill:inherit" data-name="three quarter crown"/><path id="b32_crown" d="M46.63 16.9a12.94 12.94 0 0 1 .88 6.36c-.22 1.1-1.32 2-.88 3.07a30.62 30.62 0 0 1 .88 9.67c-.44 2.63-4 5-5.06 6.36s-5.06 2.19-8.36 2.19-13 .66-14.53-.88-6.83-4.39-7.27-7.67-1.1-7.68-.66-9.21-.44-2.19-.22-5 .22-8.34 4.4-9.65 12.11-.66 13.21 0 3.74-.22 5.5 0S44 11.2 46.63 16.9z" class="b32-cls-12 b32-cls-16" data-color-action="fill" style="fill:inherit"/><path id="b32_cracked_surface_occlusal" d="M30.83 32.17L27 28.34h5l-5-4.74h5l-3.83-3.83" class="b32-cls-17" data-color-action="stroke" style="stroke:inherit" data-name="cracked surface occlusal"/><g id="b32_chipped_surface_occlusal" class="b32-cls-12" data-name="chipped surface occlusal"><path d="M33.33 30.5L25 22.17M25 30.5l8.33-8.33" class="b32-cls-18" data-color-action="stroke" style="stroke:inherit"/></g><g id="b32_buccal_abfraction" data-name="buccal abfraction"><path d="M28 51.75h3v3h-3z" class="b32-cls-8"/><path d="M28 51.75h3v3h-3z" class="b32-cls-8"/><path d="M28 51.75h3v3h-3z" class="b32-cls-8"/></g><g id="b32_braces"><path d="M28 51.75h3v3h-3z" class="b32-cls-8"/><path d="M28 51.75h3v3h-3z" class="b32-cls-8"/><path d="M28 51.75h3v3h-3z" class="b32-cls-8"/></g><g id="b32_apicoectomy"><path d="M28 51.75h3v3h-3z" class="b32-cls-8"/><path d="M28 51.75h3v3h-3z" class="b32-cls-8"/><path d="M28 51.75h3v3h-3z" class="b32-cls-8"/></g><g id="b32_abscess"><path d="M28 51.75h3v3h-3z" class="b32-cls-8"/><path d="M28 51.75h3v3h-3z" class="b32-cls-8"/><path d="M28 51.75h3v3h-3z" class="b32-cls-8"/></g><g id="b32_blunted_roots" data-name="blunted roots"><path d="M28 51.75h3v3h-3z" class="b32-cls-8"/><path d="M28 51.75h3v3h-3z" class="b32-cls-8"/><path d="M28 51.75h3v3h-3z" class="b32-cls-8"/></g><g id="b32_root_amputation" data-name="root amputation"><path d="M28 51.75h3v3h-3z" class="b32-cls-8"/><path d="M28 51.75h3v3h-3z" class="b32-cls-8"/><path d="M28 51.75h3v3h-3z" class="b32-cls-8"/></g><path id="b32_missing_crown" d="M2 2.21h55v51.77H2z" class="b32-cls-11" data-name="missing crown"/><g id="b32_missing_tooth" data-name="missing tooth"><path d="M46.63 16.9a12.94 12.94 0 0 1 .88 6.36c-.22 1.1-1.32 2-.88 3.07a30.62 30.62 0 0 1 .88 9.67c-.44 2.63-4 5-5.06 6.36s-5.06 2.19-8.36 2.19-13 .66-14.53-.88-6.83-4.39-7.27-7.67-1.1-7.68-.66-9.21-.44-2.19-.22-5 .22-8.34 4.4-9.65 12.11-.66 13.21 0 3.74-.22 5.5 0S44 11.2 46.63 16.9z" class="b32-cls-2"/><path d="M46.63 16.9a12.94 12.94 0 0 1 .88 6.36c-.22 1.1-1.32 2-.88 3.07a30.62 30.62 0 0 1 .88 9.67c-.44 2.63-4 5-5.06 6.36s-5.06 2.19-8.36 2.19-13 .66-14.53-.88-6.83-4.39-7.27-7.67-1.1-7.68-.66-9.21-.44-2.19-.22-5 .22-8.34 4.4-9.65 12.11-.66 13.21 0 3.74-.22 5.5 0S44 11.2 46.63 16.9z" class="b32-cls-11"/><path d="M36.28 26.12c.14 1.27-3.3-.66-4.18.66s-.44 7.9-1.54 7.24 0-7-1.32-7.24-8.14.22-8.14-.66 5.72-.66 7-1.32 1.54-4.83 2.42-4.39 0 3.29.66 3.73 4.88 0 5.1 1.98z" class="b32-cls-11"/><path d="M40.19 14.43c-3.2 0-6.62-.48-7.77.24s-1.37 1.2-2.51.48a13.42 13.42 0 0 0-6.4-1.44c-2.74 0-7.08-.48-8.45 1.2a29 29 0 0 0-3.52 4.88c.24-2.91.9-6.65 4.26-7.71 4.18-1.32 12.11-.66 13.21 0s3.74-.22 5.5 0S44 11.2 46.63 16.9a12.94 12.94 0 0 1 .88 6.36 2.33 2.33 0 0 1-.08.26c-.22-2-.58-4.24-1.3-5-1.13-1.2-2.74-4.09-5.94-4.09zM44.46 40.41c-.82.77-1.6 1.44-2 1.94-1.1 1.32-5.06 2.19-8.36 2.19s-13 .66-14.53-.88c-.76-.75-2.42-1.83-4-3.11S18.81 43 20.41 43s7.31.24 8.22-1 1.83-.72 3.43.24 3 .48 5.71.48 8.02-3.56 6.69-2.31z" class="b32-cls-11"/></g><g id="b32_maryland_bridge_pontic" class="b32-cls-12" data-name="maryland bridge pontic"><path d="M46.63 16.9a12.94 12.94 0 0 1 .88 6.36c-.22 1.1-1.32 2-.88 3.07a30.62 30.62 0 0 1 .88 9.67c-.44 2.63-4 5-5.06 6.36s-5.06 2.19-8.36 2.19-13 .66-14.53-.88-6.83-4.39-7.27-7.67-1.1-7.68-.66-9.21-.44-2.19-.22-5 .22-8.34 4.4-9.65 12.11-.66 13.21 0 3.74-.22 5.5 0S44 11.2 46.63 16.9z" class="b32-cls-13" data-color-action="fill" style="fill:inherit"/><path d="M36.58 24.17H57v7.67H36.58zM2 24.17h20.42v7.67H2z" class="b32-cls-13" data-color-action="fill" style="fill:inherit"/></g><g id="b32_maryland_bridge_abutment_mesial" data-name="maryland bridge abutment mesial"><g class="b32-cls-12"><path d="M36.58 24.17H57v7.67H36.58z" class="b32-cls-13" data-color-action="fill" style="fill:inherit"/><ellipse cx="39.3" cy="28" class="b32-cls-13" rx="5.93" ry="13.62" data-color-action="fill" style="fill:inherit"/></g><path d="M46.63 16.9a12.94 12.94 0 0 1 .88 6.36c-.22 1.1-1.32 2-.88 3.07a30.62 30.62 0 0 1 .88 9.67c-.44 2.63-4 5-5.06 6.36s-5.06 2.19-8.36 2.19-13 .66-14.53-.88-6.83-4.39-7.27-7.67-1.1-7.68-.66-9.21-.44-2.19-.22-5 .22-8.34 4.4-9.65 12.11-.66 13.21 0 3.74-.22 5.5 0S44 11.2 46.63 16.9z" class="b32-cls-2"/><path d="M46.63 16.9a12.94 12.94 0 0 1 .88 6.36c-.22 1.1-1.32 2-.88 3.07a30.62 30.62 0 0 1 .88 9.67c-.44 2.63-4 5-5.06 6.36s-5.06 2.19-8.36 2.19-13 .66-14.53-.88-6.83-4.39-7.27-7.67-1.1-7.68-.66-9.21-.44-2.19-.22-5 .22-8.34 4.4-9.65 12.11-.66 13.21 0 3.74-.22 5.5 0S44 11.2 46.63 16.9z" class="b32-cls-3"/><path d="M36.28 26.12c.14 1.27-3.3-.66-4.18.66s-.44 7.9-1.54 7.24 0-7-1.32-7.24-8.14.22-8.14-.66 5.72-.66 7-1.32 1.54-4.83 2.42-4.39 0 3.29.66 3.73 4.88 0 5.1 1.98z" class="b32-cls-4"/><path d="M40.19 14.43c-3.2 0-6.62-.48-7.77.24s-1.37 1.2-2.51.48a13.42 13.42 0 0 0-6.4-1.44c-2.74 0-7.08-.48-8.45 1.2a29 29 0 0 0-3.52 4.88c.24-2.91.9-6.65 4.26-7.71 4.18-1.32 12.11-.66 13.21 0s3.74-.22 5.5 0S44 11.2 46.63 16.9a12.94 12.94 0 0 1 .88 6.36 2.33 2.33 0 0 1-.08.26c-.22-2-.58-4.24-1.3-5-1.13-1.2-2.74-4.09-5.94-4.09z" class="b32-cls-5"/><path d="M44.46 40.41c-.82.77-1.6 1.44-2 1.94-1.1 1.32-5.06 2.19-8.36 2.19s-13 .66-14.53-.88c-.76-.75-2.42-1.83-4-3.11S18.81 43 20.41 43s7.31.24 8.22-1 1.83-.72 3.43.24 3 .48 5.71.48 8.02-3.56 6.69-2.31z" class="b32-cls-6"/></g><g id="b32_maryland_bridge_abutment_distal" data-name="maryland bridge abutment distal"><g class="b32-cls-12"><path d="M2 24.17h20.42v7.67H2z" class="b32-cls-13" data-color-action="fill" style="fill:inherit"/><ellipse cx="19.7" cy="28" class="b32-cls-13" rx="5.93" ry="13.62" data-color-action="fill" style="fill:inherit"/></g><path d="M46.63 16.9a12.94 12.94 0 0 1 .88 6.36c-.22 1.1-1.32 2-.88 3.07a30.62 30.62 0 0 1 .88 9.67c-.44 2.63-4 5-5.06 6.36s-5.06 2.19-8.36 2.19-13 .66-14.53-.88-6.83-4.39-7.27-7.67-1.1-7.68-.66-9.21-.44-2.19-.22-5 .22-8.34 4.4-9.65 12.11-.66 13.21 0 3.74-.22 5.5 0S44 11.2 46.63 16.9z" class="b32-cls-2"/><path d="M46.63 16.9a12.94 12.94 0 0 1 .88 6.36c-.22 1.1-1.32 2-.88 3.07a30.62 30.62 0 0 1 .88 9.67c-.44 2.63-4 5-5.06 6.36s-5.06 2.19-8.36 2.19-13 .66-14.53-.88-6.83-4.39-7.27-7.67-1.1-7.68-.66-9.21-.44-2.19-.22-5 .22-8.34 4.4-9.65 12.11-.66 13.21 0 3.74-.22 5.5 0S44 11.2 46.63 16.9z" class="b32-cls-3"/><path d="M36.28 26.12c.14 1.27-3.3-.66-4.18.66s-.44 7.9-1.54 7.24 0-7-1.32-7.24-8.14.22-8.14-.66 5.72-.66 7-1.32 1.54-4.83 2.42-4.39 0 3.29.66 3.73 4.88 0 5.1 1.98z" class="b32-cls-4"/><path d="M40.19 14.43c-3.2 0-6.62-.48-7.77.24s-1.37 1.2-2.51.48a13.42 13.42 0 0 0-6.4-1.44c-2.74 0-7.08-.48-8.45 1.2a29 29 0 0 0-3.52 4.88c.24-2.91.9-6.65 4.26-7.71 4.18-1.32 12.11-.66 13.21 0s3.74-.22 5.5 0S44 11.2 46.63 16.9a12.94 12.94 0 0 1 .88 6.36 2.33 2.33 0 0 1-.08.26c-.22-2-.58-4.24-1.3-5-1.13-1.2-2.74-4.09-5.94-4.09z" class="b32-cls-5"/><path d="M44.46 40.41c-.82.77-1.6 1.44-2 1.94-1.1 1.32-5.06 2.19-8.36 2.19s-13 .66-14.53-.88c-.76-.75-2.42-1.83-4-3.11S18.81 43 20.41 43s7.31.24 8.22-1 1.83-.72 3.43.24 3 .48 5.71.48 8.02-3.56 6.69-2.31z" class="b32-cls-6"/></g><g id="b32_maryland_bridge_abutment" data-name="maryland bridge abutment"><g class="b32-cls-12"><path d="M36.58 24.17H57v7.67H36.58zM2 24.17h20.42v7.67H2z" class="b32-cls-13" data-color-action="fill" style="fill:inherit"/><ellipse cx="19.7" cy="28" class="b32-cls-13" rx="5.93" ry="13.62" data-color-action="fill" style="fill:inherit"/><ellipse cx="39.3" cy="28" class="b32-cls-13" rx="5.93" ry="13.62" data-color-action="fill" style="fill:inherit"/></g><path d="M46.63 16.9a12.94 12.94 0 0 1 .88 6.36c-.22 1.1-1.32 2-.88 3.07a30.62 30.62 0 0 1 .88 9.67c-.44 2.63-4 5-5.06 6.36s-5.06 2.19-8.36 2.19-13 .66-14.53-.88-6.83-4.39-7.27-7.67-1.1-7.68-.66-9.21-.44-2.19-.22-5 .22-8.34 4.4-9.65 12.11-.66 13.21 0 3.74-.22 5.5 0S44 11.2 46.63 16.9z" class="b32-cls-2"/><path d="M46.63 16.9a12.94 12.94 0 0 1 .88 6.36c-.22 1.1-1.32 2-.88 3.07a30.62 30.62 0 0 1 .88 9.67c-.44 2.63-4 5-5.06 6.36s-5.06 2.19-8.36 2.19-13 .66-14.53-.88-6.83-4.39-7.27-7.67-1.1-7.68-.66-9.21-.44-2.19-.22-5 .22-8.34 4.4-9.65 12.11-.66 13.21 0 3.74-.22 5.5 0S44 11.2 46.63 16.9z" class="b32-cls-3"/><path d="M36.28 26.12c.14 1.27-3.3-.66-4.18.66s-.44 7.9-1.54 7.24 0-7-1.32-7.24-8.14.22-8.14-.66 5.72-.66 7-1.32 1.54-4.83 2.42-4.39 0 3.29.66 3.73 4.88 0 5.1 1.98z" class="b32-cls-4"/><path d="M40.19 14.43c-3.2 0-6.62-.48-7.77.24s-1.37 1.2-2.51.48a13.42 13.42 0 0 0-6.4-1.44c-2.74 0-7.08-.48-8.45 1.2a29 29 0 0 0-3.52 4.88c.24-2.91.9-6.65 4.26-7.71 4.18-1.32 12.11-.66 13.21 0s3.74-.22 5.5 0S44 11.2 46.63 16.9a12.94 12.94 0 0 1 .88 6.36 2.33 2.33 0 0 1-.08.26c-.22-2-.58-4.24-1.3-5-1.13-1.2-2.74-4.09-5.94-4.09z" class="b32-cls-5"/><path d="M44.46 40.41c-.82.77-1.6 1.44-2 1.94-1.1 1.32-5.06 2.19-8.36 2.19s-13 .66-14.53-.88c-.76-.75-2.42-1.83-4-3.11S18.81 43 20.41 43s7.31.24 8.22-1 1.83-.72 3.43.24 3 .48 5.71.48 8.02-3.56 6.69-2.31z" class="b32-cls-6"/></g><path id="b32_bridge_abutment" d="M46.63 16.9a12.94 12.94 0 0 1 .88 6.36c-.22 1.1-1.32 2-.88 3.07a30.62 30.62 0 0 1 .88 9.67c-.44 2.63-4 5-5.06 6.36s-5.06 2.19-8.36 2.19-13 .66-14.53-.88-6.83-4.39-7.27-7.67-1.1-7.68-.66-9.21-.44-2.19-.22-5 .22-8.34 4.4-9.65 12.11-.66 13.21 0 3.74-.22 5.5 0S44 11.2 46.63 16.9z" class="b32-cls-12 b32-cls-14" data-color-action="fill" style="fill:inherit" data-name="bridge abutment"/><path id="b32_bridge_pontic" d="M46.63 16.9a12.94 12.94 0 0 1 .88 6.36c-.22 1.1-1.32 2-.88 3.07a30.62 30.62 0 0 1 .88 9.67c-.44 2.63-4 5-5.06 6.36s-5.06 2.19-8.36 2.19-13 .66-14.53-.88-6.83-4.39-7.27-7.67-1.1-7.68-.66-9.21-.44-2.19-.22-5 .22-8.34 4.4-9.65 12.11-.66 13.21 0 3.74-.22 5.5 0S44 11.2 46.63 16.9z" class="b32-cls-12 b32-cls-14" data-color-action="fill" style="fill:inherit" data-name="bridge pontic"/><g id="b32_implant_mini" data-name="implant mini"><path d="M2 2.21h55v51.77H2z" class="b32-cls-11"/><circle cx="29.5" cy="28" r="2.61" class="b32-cls-14" data-color-action="fill" style="fill:inherit"/></g><g id="b32_implant_cylinder" data-name="implant cylinder"><path d="M2 2.21h55v51.77H2z" class="b32-cls-11"/><circle cx="29.5" cy="28" r="5" class="b32-cls-14" data-color-action="fill" style="fill:inherit"/><path d="M24.5 28a5 5 0 0 1 .09-.89h9.82a4.46 4.46 0 0 1 0 1.78h-9.82a5 5 0 0 1-.09-.89z" class="b32-cls-15" data-color-action="fill" style="fill:inherit"/></g><g id="b32_implant_blade" data-name="implant blade"><path d="M2 2.21h55v51.77H2z" class="b32-cls-11"/><circle cx="29.5" cy="28" r="5" class="b32-cls-14" data-color-action="fill" style="fill:inherit"/></g><g id="b32_border"><path d="M0 0h59v56H0z" class="b32-cls-8"/><path d="M0 0h59v56H0z" class="b32-cls-8" transform="rotate(180 29.5 28)"/></g></defs></g><g class="c32-cls-1"><g id="_32C" data-name="#32C"><path d="M43.56 29.44c1.92 3.2 4.48 11.4 4.1 15.24s-2.66 9.61-6.79 9.48S31.39 54 30 52.88s-2.82-.9-3.33-.38-4.22 1.89-7.43 1.66c-7.3-.51-7.3-3.84-7.81-6.15s.77-14.47 2.43-17.67 27.96-3.8 29.7-.9z" class="c32-cls-2"/><path d="M43.56 29.44c1.92 3.2 4.48 11.4 4.1 15.24s-2.66 9.61-6.79 9.48S31.39 54 30 52.88s-2.82-.9-3.33-.38-4.22 1.89-7.43 1.66c-7.3-.51-7.3-3.84-7.81-6.15s.77-14.47 2.43-17.67 27.96-3.8 29.7-.9z" class="c32-cls-3"/><path d="M23.11 30.65c-4.57.57-8.34 1.48-10.18 2.46a13.34 13.34 0 0 1 .92-2.77c1.66-3.2 28-3.8 29.71-.9a21.55 21.55 0 0 1 1.36 2.84 14.59 14.59 0 0 0-5.15-1.45c-4.17-.18-10.87-.9-16.66-.18z" class="c32-cls-4"/><path d="M40.87 54.16C36.77 54 31.39 54 30 52.88s-2.82-.9-3.33-.38-4.22 1.89-7.43 1.66c-7.3-.51-7.3-3.84-7.81-6.15a7.12 7.12 0 0 1-.11-1.28A12 12 0 0 0 13.79 50c1.45 1.63 4 1.53 6.13 1.34 1.63-.15 5.61-.51 6.76-.13a3.77 3.77 0 0 0 2.23 0c.74-.32 3.79-.26 5.42-.26s6.52.54 8.33.36a5.9 5.9 0 0 0 3.5-1.31c-1.16 2.32-2.91 4.23-5.29 4.16z" class="c32-cls-5"/><path d="M28 50.76c-1.22-.2-.74-3.72 0-4.22s1.51 4.46 0 4.22z" class="c32-cls-4"/></g><defs><g id="c32_splinted_crowns" data-name="splinted crowns"><path d="M2 24.26h55v7.67H2z" class="c32-cls-12" data-color-action="fill" style="fill:inherit"/><path d="M43.56 29.44c1.92 3.2 4.48 11.4 4.1 15.24s-2.66 9.61-6.79 9.48S31.39 54 30 52.88s-2.82-.9-3.33-.38-4.22 1.89-7.43 1.66c-7.3-.51-7.3-3.84-7.81-6.15s.77-14.47 2.43-17.67 27.96-3.8 29.7-.9z" class="c32-cls-2"/><path d="M43.56 29.44c1.92 3.2 4.48 11.4 4.1 15.24s-2.66 9.61-6.79 9.48S31.39 54 30 52.88s-2.82-.9-3.33-.38-4.22 1.89-7.43 1.66c-7.3-.51-7.3-3.84-7.81-6.15s.77-14.47 2.43-17.67 27.96-3.8 29.7-.9z" class="c32-cls-3"/><path d="M23.11 30.65c-4.57.57-8.34 1.48-10.18 2.46a13.34 13.34 0 0 1 .92-2.77c1.66-3.2 28-3.8 29.71-.9a21.55 21.55 0 0 1 1.36 2.84 14.59 14.59 0 0 0-5.15-1.45c-4.17-.18-10.87-.9-16.66-.18z" class="c32-cls-4"/><path d="M40.87 54.16C36.77 54 31.39 54 30 52.88s-2.82-.9-3.33-.38-4.22 1.89-7.43 1.66c-7.3-.51-7.3-3.84-7.81-6.15a7.12 7.12 0 0 1-.11-1.28A12 12 0 0 0 13.79 50c1.45 1.63 4 1.53 6.13 1.34 1.63-.15 5.61-.51 6.76-.13a3.77 3.77 0 0 0 2.23 0c.74-.32 3.79-.26 5.42-.26s6.52.54 8.33.36a5.9 5.9 0 0 0 3.5-1.31c-1.16 2.32-2.91 4.23-5.29 4.16z" class="c32-cls-5"/><path d="M28 50.76c-1.22-.2-.74-3.72 0-4.22s1.51 4.46 0 4.22z" class="c32-cls-4"/></g><path id="c32_mesial" d="M47.66 44.68A16.25 16.25 0 0 1 46 50.29l-2.61-4.93a21.11 21.11 0 0 0 .44-2.67c.27-2.24 1.8-3.61 3.22-3.62a19.26 19.26 0 0 1 .61 5.61z" class="c32-cls-6" data-color-action="fill" style="fill:inherit"/><path id="c32_line_angle_4" d="M40.87 54.16c-1.36 0-2.86-.07-4.32-.13l-1-4.79a7.53 7.53 0 0 0 3 .68c3.23.12 4.27-2.49 4.8-4.56L46 50.29c-1.15 2.21-2.86 3.94-5.13 3.87z" class="c32-cls-6" data-color-action="fill" style="fill:inherit" data-name="line angle 4"/><path id="c32_groove_2" d="M30 52.88c-1.41-1.15-2.82-.9-3.33-.38a9.69 9.69 0 0 1-3.28 1.26l1.14-5c2.13-.92 3.75-2.26 5.87-2.15 2.36.12 3.18 1.69 5.18 2.63l1 4.79c-2.94-.13-5.65-.38-6.58-1.15z" class="c32-cls-6" data-color-action="fill" style="fill:inherit" data-name="groove 2"/><path id="c32_line_angle_3" d="M19.23 54.16c-4-.28-5.84-1.43-6.73-2.79l3.5-5.29c1 2.09 2.34 3.44 4.35 3.51a9.22 9.22 0 0 0 4.13-.83l-1.14 5a14.21 14.21 0 0 1-4.11.4z" class="c32-cls-6" data-color-action="fill" style="fill:inherit" data-name="line angle 3"/><path id="c32_distal" d="M14.42 41.31A26.45 26.45 0 0 0 16 46.08l-3.5 5.29A9.32 9.32 0 0 1 11.42 48c-.28-1.27 0-5.5.54-9.6a4.42 4.42 0 0 1 2.46 2.91z" class="c32-cls-6" data-color-action="fill" style="fill:inherit"/><ellipse id="c32_lingual_pit" cx="30.12" cy="38.63" class="c32-cls-6" rx="3.38" ry="6.05" data-color-action="fill" style="fill:inherit" data-name="lingual pit"/><path id="c32_lingual_V" d="M21.09 28.13c6.29-.77 15-.77 19.55.11a24 24 0 0 1-19.55-.11z" class="c32-cls-6" data-color-action="fill" style="fill:inherit" data-name="lingual V"/><g id="c32_veneer"><path d="M28 61.75h3v3h-3z" class="c32-cls-7"/><path d="M28 61.75h3v3h-3z" class="c32-cls-7"/><path d="M28 61.75h3v3h-3z" class="c32-cls-7"/></g><g id="c32_tissue_graft" data-name="tissue graft"><path d="M28 61.75h3v3h-3z" class="c32-cls-7"/><path d="M28 61.75h3v3h-3z" class="c32-cls-7"/><path d="M28 61.75h3v3h-3z" class="c32-cls-7"/></g><g id="c32_tipped_lingual" class="c32-cls-8" data-name="tipped lingual"><path d="M30.35 58.07c-1.26 3.37-4.74 3.85-7.69-5.32-.5-1.56-4.42-1.76-3.84 0 2 6.08 5.31 10.2 9.06 9.27a4.86 4.86 0 0 0 3-3.38 5.27 5.27 0 0 1-.53-.57z" class="c32-cls-9" data-color-action="fill" style="fill:inherit"/><path d="M28.27 55.15H15.33l2.94-9.64 10 9.64z" class="c32-cls-9" data-color-action="fill" style="fill:inherit"/></g><g id="c32_tipped_facial" data-name="tipped facial"><path d="M28 61.75h3v3h-3z" class="c32-cls-7"/><path d="M28 61.75h3v3h-3z" class="c32-cls-7"/><path d="M28 61.75h3v3h-3z" class="c32-cls-7"/></g><path id="c32_surface_restoration_occlusal" d="M19.23 54.15c3.2.22 6.92-1.15 7.43-1.66s1.92-.77 3.33.38 6.78 1.13 10.88 1.28a4.72 4.72 0 0 0 3.62-1.69L39.82 47l-.06.13h-.15c-1.72 0-4.77-.13-6.14-.36a10 10 0 0 0-5.56-1.7 9 9 0 0 0-5.13 1.58 9.49 9.49 0 0 1-2.84.54h-.23a11.89 11.89 0 0 1-1.35-.19l-.05-.25v-.23l-5.07 5.7c1.05.96 2.83 1.71 5.99 1.93z" class="c32-cls-10" data-color-action="fill" style="fill:inherit" data-name="surface restoration occlusal"/><path id="c32_surface_restoration_mesial" d="M47.66 44.67a20.37 20.37 0 0 0-.72-6.09 11.52 11.52 0 0 1-7.36-7A123 123 0 0 1 40.69 44a9.37 9.37 0 0 1-.87 3l4.67 5.47a14.35 14.35 0 0 0 3.17-7.8z" class="c32-cls-10" data-color-action="fill" style="fill:inherit" data-name="surface restoration mesial"/><path id="c32_surface_restoration_lingual" d="M19.32 29.19a11.49 11.49 0 0 1-.65 3.56c-.3 5.81-.44 12.77-.36 14l.05.25a11.89 11.89 0 0 0 1.36.17H20a9.49 9.49 0 0 0 2.84-.54 9 9 0 0 1 5.13-1.58 10 10 0 0 1 5.56 1.7c1.37.23 4.42.31 6.14.36h.15a9.39 9.39 0 0 0 .87-3.11 123 123 0 0 0-1.12-12.35 11.42 11.42 0 0 1-.57-2.43 15.93 15.93 0 0 1-19.65 0z" class="c32-cls-8 c32-cls-11" data-color-action="fill" style="fill:inherit" data-name="surface restoration lingual"/><path id="c32_surface_restoration_lingual_V" d="M19.31 28.38v.81a15.93 15.93 0 0 0 19.65 0 11.51 11.51 0 0 1-.11-1.19 82.76 82.76 0 0 0-19.54.38z" class="c32-cls-8 c32-cls-11" data-color-action="fill" style="fill:inherit" data-name="surface restoration lingual V"/><path id="c32_surface_restoration_distal" d="M13.23 52.22l5.07-5.7c-.06-1.69.09-8.24.37-13.78a11.51 11.51 0 0 1-6.88 7 37.48 37.48 0 0 0-.37 8.26c.29 1.31.42 3 1.81 4.22z" class="c32-cls-10" data-color-action="fill" style="fill:inherit" data-name="surface restoration distal"/><g id="c32_supra-erupted"><path d="M28 61.75h3v3h-3z" class="c32-cls-7"/><path d="M28 61.75h3v3h-3z" class="c32-cls-7"/><path d="M28 61.75h3v3h-3z" class="c32-cls-7"/></g><g id="c32_sub-erupted"><path d="M28 61.75h3v3h-3z" class="c32-cls-7"/><path d="M28 61.75h3v3h-3z" class="c32-cls-7"/><path d="M28 61.75h3v3h-3z" class="c32-cls-7"/></g><g id="c32_sealant"><path d="M28 61.75h3v3h-3z" class="c32-cls-7"/><path d="M28 61.75h3v3h-3z" class="c32-cls-7"/><path d="M28 61.75h3v3h-3z" class="c32-cls-7"/></g><g id="c32_root_decay" data-name="root decay"><path d="M28 61.75h3v3h-3z" class="c32-cls-7"/><path d="M28 61.75h3v3h-3z" class="c32-cls-7"/><path d="M28 61.75h3v3h-3z" class="c32-cls-7"/></g><g id="c32_root_canal" data-name="root canal"><path d="M28 61.75h3v3h-3z" class="c32-cls-7"/><path d="M28 61.75h3v3h-3z" class="c32-cls-7"/><path d="M28 61.75h3v3h-3z" class="c32-cls-7"/></g><g id="c32_root_abrasion" data-name="root abrasion"><path d="M28 61.75h3v3h-3z" class="c32-cls-7"/><path d="M28 61.75h3v3h-3z" class="c32-cls-7"/><path d="M28 61.75h3v3h-3z" class="c32-cls-7"/></g><g id="c32_open_contact_mesial" data-name="open contact mesial"><path d="M28 61.75h3v3h-3z" class="c32-cls-7"/><path d="M28 61.75h3v3h-3z" class="c32-cls-7"/><path d="M28 61.75h3v3h-3z" class="c32-cls-7"/></g><g id="c32_open_contact_distal" data-name="open contact distal"><path d="M28 61.75h3v3h-3z" class="c32-cls-7"/><path d="M28 61.75h3v3h-3z" class="c32-cls-7"/><path d="M28 61.75h3v3h-3z" class="c32-cls-7"/></g><path id="c32_lingual_abfraction" d="M45.81 28.17s-7.3-5.75-16.31-5.75-16.31 5.75-16.31 5.75 7.3 5.75 16.31 5.75 16.31-5.75 16.31-5.75z" class="c32-cls-15" data-color-action="fill" style="fill:inherit" data-name="lingual abfraction"/><g id="c32_internal_root_resorption" data-name="internal root resorption"><path d="M28 61.75h3v3h-3z" class="c32-cls-7"/><path d="M28 61.75h3v3h-3z" class="c32-cls-7"/><path d="M28 61.75h3v3h-3z" class="c32-cls-7"/></g><g id="c32_gortex_membranes" data-name="gortex membranes"><path d="M28 61.75h3v3h-3z" class="c32-cls-7"/><path d="M28 61.75h3v3h-3z" class="c32-cls-7"/><path d="M28 61.75h3v3h-3z" class="c32-cls-7"/></g><g id="c32_frenum_pull" data-name="frenum pull"><path d="M28 61.75h3v3h-3z" class="c32-cls-7"/><path d="M28 61.75h3v3h-3z" class="c32-cls-7"/><path d="M28 61.75h3v3h-3z" class="c32-cls-7"/></g><g id="c32_external_root_resorption" data-name="external root resorption"><path d="M28 61.75h3v3h-3z" class="c32-cls-7"/><path d="M28 61.75h3v3h-3z" class="c32-cls-7"/><path d="M28 61.75h3v3h-3z" class="c32-cls-7"/></g><path id="c32_three_quarter_crown" d="M11.61 41.37a30.34 30.34 0 0 0-.19 6.63c.51 2.31.51 5.64 7.81 6.15 3.2.22 6.92-1.15 7.43-1.66s1.92-.77 3.33.38 6.78 1.13 10.88 1.29 6.4-5.64 6.79-9.48a14.09 14.09 0 0 0-.17-3.31z" class="c32-cls-8 c32-cls-19" data-color-action="fill" style="fill:inherit" data-name="three quarter crown"/><path id="c32_crown" d="M43.56 29.44c1.92 3.2 4.48 11.4 4.1 15.24s-2.66 9.61-6.79 9.48S31.39 54 30 52.88s-2.82-.9-3.33-.38-4.22 1.89-7.43 1.66c-7.3-.51-7.3-3.84-7.81-6.15s.77-14.47 2.43-17.67 27.96-3.8 29.7-.9z" class="c32-cls-8 c32-cls-19" data-color-action="fill" style="fill:inherit"/><path id="c32_cracked_surface_distal" d="M15.66 46.19l-3.83-3.84h5l-5-4.74h5l-3.82-3.83" class="c32-cls-20" data-color-action="stroke" style="stroke:inherit" data-name="cracked surface distal"/><path id="c32_cracked_surface_lingual" d="M30.83 46.19L27 42.35h5l-5-4.74h5l-3.83-3.83" class="c32-cls-20" data-color-action="stroke" style="stroke:inherit" data-name="cracked surface lingual"/><path id="c32_cracked_surface_lingual_V" d="M30.83 46.19L27 42.35h5l-5-4.74h5l-3.83-3.83" class="c32-cls-20" data-color-action="stroke" style="stroke:inherit" data-name="cracked surface lingual V"/><path id="c32_cracked_surface_mesial" d="M46.66 46.19l-3.83-3.84h5l-5-4.74h5l-3.82-3.83" class="c32-cls-20" data-color-action="stroke" style="stroke:inherit" data-name="cracked surface mesial"/><g id="c32_chipped_surface_distal" class="c32-cls-8" data-name="chipped surface distal"><path d="M19.17 44.51l-8.34-8.33M10.83 44.51l8.34-8.33" class="c32-cls-21" data-color-action="stroke" style="stroke:inherit"/></g><g id="c32_chipped_surface_lingual" class="c32-cls-8" data-name="chipped surface lingual"><path d="M33.33 44.51L25 36.18M25 44.51l8.33-8.33" class="c32-cls-21" data-color-action="stroke" style="stroke:inherit"/></g><g id="c32_chipped_surface_lingual_V" class="c32-cls-8" data-name="chipped surface lingual V"><path d="M33.33 44.51L25 36.18M25 44.51l8.33-8.33" class="c32-cls-21" data-color-action="stroke" style="stroke:inherit"/></g><g id="c32_chipped_surface_mesial" class="c32-cls-8" data-name="chipped surface mesial"><path d="M48.33 44.51L40 36.18M40 44.51l8.33-8.33" class="c32-cls-21" data-color-action="stroke" style="stroke:inherit"/></g><g id="c32_buccal_abfraction" data-name="buccal abfraction"><path d="M28 61.75h3v3h-3z" class="c32-cls-7"/><path d="M28 61.75h3v3h-3z" class="c32-cls-7"/><path d="M28 61.75h3v3h-3z" class="c32-cls-7"/></g><g id="c32_braces"><path d="M28 61.75h3v3h-3z" class="c32-cls-7"/><path d="M28 61.75h3v3h-3z" class="c32-cls-7"/><path d="M28 61.75h3v3h-3z" class="c32-cls-7"/></g><g id="c32_apicoectomy"><path d="M28 61.75h3v3h-3z" class="c32-cls-7"/><path d="M28 61.75h3v3h-3z" class="c32-cls-7"/><path d="M28 61.75h3v3h-3z" class="c32-cls-7"/></g><g id="c32_abscess"><path d="M28 61.75h3v3h-3z" class="c32-cls-7"/><path d="M28 61.75h3v3h-3z" class="c32-cls-7"/><path d="M28 61.75h3v3h-3z" class="c32-cls-7"/></g><g id="c32_blunted_roots" data-name="blunted roots"><path d="M28 61.75h3v3h-3z" class="c32-cls-7"/><path d="M28 61.75h3v3h-3z" class="c32-cls-7"/><path d="M28 61.75h3v3h-3z" class="c32-cls-7"/></g><g id="c32_root_amputation" data-name="root amputation"><path d="M28 61.75h3v3h-3z" class="c32-cls-7"/><path d="M28 61.75h3v3h-3z" class="c32-cls-7"/><path d="M28 61.75h3v3h-3z" class="c32-cls-7"/></g><g id="c32_missing_crown" data-name="missing crown"><path d="M28 61.75h3v3h-3z" class="c32-cls-7"/><path d="M28 61.75h3v3h-3z" class="c32-cls-7"/><path d="M28 61.75h3v3h-3z" class="c32-cls-7"/><path d="M2 2h55v61.98H2z" class="c32-cls-13"/></g><g id="c32_missing_tooth" data-name="missing tooth"><path d="M43.56 29.44c1.92 3.2 4.48 11.4 4.1 15.24s-2.66 9.61-6.79 9.48S31.39 54 30 52.88s-2.82-.9-3.33-.38-4.22 1.89-7.43 1.66c-7.3-.51-7.3-3.84-7.81-6.15s.77-14.47 2.43-17.67 27.96-3.8 29.7-.9z" class="c32-cls-2"/><path d="M43.56 29.44c1.92 3.2 4.48 11.4 4.1 15.24s-2.66 9.61-6.79 9.48S31.39 54 30 52.88s-2.82-.9-3.33-.38-4.22 1.89-7.43 1.66c-7.3-.51-7.3-3.84-7.81-6.15s.77-14.47 2.43-17.67 27.96-3.8 29.7-.9z" class="c32-cls-13"/><path d="M23.11 30.65c-4.57.57-8.34 1.48-10.18 2.46a13.34 13.34 0 0 1 .92-2.77c1.66-3.2 28-3.8 29.71-.9a21.55 21.55 0 0 1 1.36 2.84 14.59 14.59 0 0 0-5.15-1.45c-4.17-.18-10.87-.9-16.66-.18zM40.87 54.16C36.77 54 31.39 54 30 52.88s-2.82-.9-3.33-.38-4.22 1.89-7.43 1.66c-7.3-.51-7.3-3.84-7.81-6.15a7.12 7.12 0 0 1-.11-1.28A12 12 0 0 0 13.79 50c1.45 1.63 4 1.53 6.13 1.34 1.63-.15 5.61-.51 6.76-.13a3.77 3.77 0 0 0 2.23 0c.74-.32 3.79-.26 5.42-.26s6.52.54 8.33.36a5.9 5.9 0 0 0 3.5-1.31c-1.16 2.32-2.91 4.23-5.29 4.16z" class="c32-cls-13"/><path d="M28 50.76c-1.22-.2-.74-3.72 0-4.22s1.51 4.46 0 4.22z" class="c32-cls-13"/></g><g id="c32_maryland_bridge_pontic" class="c32-cls-8" data-name="maryland bridge pontic"><path d="M43.56 29.44c1.92 3.2 4.48 11.4 4.1 15.24s-2.66 9.61-6.79 9.48S31.39 54 30 52.88s-2.82-.9-3.33-.38-4.22 1.89-7.43 1.66c-7.3-.51-7.3-3.84-7.81-6.15s.77-14.47 2.43-17.67 27.96-3.8 29.7-.9z" class="c32-cls-14" data-color-action="fill" style="fill:inherit"/><path d="M2 37.38h55v7.67H2z" class="c32-cls-14" data-color-action="fill" style="fill:inherit"/></g><g id="c32_maryland_bridge_abutment_mesial" class="c32-cls-8" data-name="maryland bridge abutment mesial"><path d="M36.58 37.18H57v7.67H36.58z" class="c32-cls-14" data-color-action="fill" style="fill:inherit"/><ellipse cx="39.3" cy="41.01" class="c32-cls-14" rx="5.93" ry="13.62" data-color-action="fill" style="fill:inherit"/></g><g id="c32_maryland_bridge_abutment_distal" class="c32-cls-8" data-name="maryland bridge abutment distal"><path d="M2 37.18h20.42v7.67H2z" class="c32-cls-14" data-color-action="fill" style="fill:inherit"/><ellipse cx="19.7" cy="41.01" class="c32-cls-14" rx="5.93" ry="13.62" data-color-action="fill" style="fill:inherit"/></g><g id="c32_maryland_bridge_abutment" class="c32-cls-8" data-name="maryland bridge abutment"><path d="M36.58 37.18H57v7.67H36.58zM2 37.18h20.42v7.67H2z" class="c32-cls-14" data-color-action="fill" style="fill:inherit"/><ellipse cx="19.7" cy="41.01" class="c32-cls-14" rx="5.93" ry="13.62" data-color-action="fill" style="fill:inherit"/><ellipse cx="39.3" cy="41.01" class="c32-cls-14" rx="5.93" ry="13.62" data-color-action="fill" style="fill:inherit"/></g><g id="c32_bridge_abutment_mesial" class="c32-cls-8" data-name="bridge abutment mesial"><path d="M43.56 29.44c1.92 3.2 4.48 11.4 4.1 15.24s-2.66 9.61-6.79 9.48S31.39 54 30 52.88s-2.82-.9-3.33-.38-4.22 1.89-7.43 1.66c-7.3-.51-7.3-3.84-7.81-6.15s.77-14.47 2.43-17.67 27.96-3.8 29.7-.9z" class="c32-cls-11" data-color-action="fill" style="fill:inherit"/><path d="M22.02 37.6H57v7.67H22.02z" class="c32-cls-11" data-color-action="fill" style="fill:inherit"/></g><g id="c32_bridge_abutment_distal" class="c32-cls-8" data-name="bridge abutment distal"><path d="M43.56 29.44c1.92 3.2 4.48 11.4 4.1 15.24s-2.66 9.61-6.79 9.48S31.39 54 30 52.88s-2.82-.9-3.33-.38-4.22 1.89-7.43 1.66c-7.3-.51-7.3-3.84-7.81-6.15s.77-14.47 2.43-17.67 27.96-3.8 29.7-.9z" class="c32-cls-11" data-color-action="fill" style="fill:inherit"/><path d="M2 37.6h34.98v7.67H2z" class="c32-cls-11" data-color-action="fill" style="fill:inherit"/></g><g id="c32_bridge_abutment" class="c32-cls-8" data-name="bridge abutment"><path d="M43.56 29.44c1.92 3.2 4.48 11.4 4.1 15.24s-2.66 9.61-6.79 9.48S31.39 54 30 52.88s-2.82-.9-3.33-.38-4.22 1.89-7.43 1.66c-7.3-.51-7.3-3.84-7.81-6.15s.77-14.47 2.43-17.67 27.96-3.8 29.7-.9z" class="c32-cls-11" data-color-action="fill" style="fill:inherit"/><path d="M2 37.6h55v7.67H2z" class="c32-cls-11" data-color-action="fill" style="fill:inherit"/></g><g id="c32_bridge_pontic" class="c32-cls-8" data-name="bridge pontic"><path d="M43.56 29.44c1.92 3.2 4.48 11.4 4.1 15.24s-2.66 9.61-6.79 9.48S31.39 54 30 52.88s-2.82-.9-3.33-.38-4.22 1.89-7.43 1.66c-7.3-.51-7.3-3.84-7.81-6.15s.77-14.47 2.43-17.67 27.96-3.8 29.7-.9z" class="c32-cls-11" data-color-action="fill" style="fill:inherit"/><path d="M2 37.6h55v7.67H2z" class="c32-cls-11" data-color-action="fill" style="fill:inherit"/></g><g id="c32_implant_mini" data-name="implant mini"><path d="M2 2h55v61.98H2z" class="c32-cls-13"/><path d="M29.72 0h-.44l-1 8.5v40.83h2.44V8.5l-1-8.5z" class="c32-cls-11" data-color-action="fill" style="fill:inherit"/><path d="M29.42 0h-.07l-.4 8.5v40.83h.37V8.5l.1-8.5z" class="c32-cls-16"/><path d="M28.28 48.7h2.44v.63h-2.44z" class="c32-cls-17" data-color-action="fill" style="fill:inherit"/><g class="c32-cls-18"><path d="M28.28 48.7l2.44-1v.63l-2.44 1v-.63zM28.28 47.26l2.44-1v.63l-2.44 1v-.63zM28.28 45.81l2.44-1v.63l-2.44 1v-.63zM28.28 44.36l2.44-1V44l-2.44 1v-.64zM28.28 42.92l2.44-1v.63l-2.44 1v-.63zM28.28 41.47l2.44-1v.63l-2.44 1.01v-.64zM28.28 40.03l2.44-1v.63l-2.44 1v-.63zM28.28 38.58l2.44-1v.63l-2.44 1.01v-.64zM28.28 37.14l2.44-1v.63l-2.44 1v-.63zM28.28 35.69l2.44-1v.63l-2.44 1v-.63zM28.28 34.25l2.44-1.01v.64l-2.44 1v-.63zM28.28 32.8l2.44-1v.63l-2.44 1v-.63zM28.28 31.36l2.44-1v.63l-2.44 1v-.63zM28.28 29.91l2.44-1v.63l-2.44 1v-.63zM28.28 28.46l2.44-1v.64l-2.44 1v-.64zM28.28 27.02l2.44-1v.63l-2.44 1v-.63zM28.28 25.57l2.44-1v.63l-2.44 1.01v-.64zM28.28 24.13l2.44-1v.63l-2.44 1v-.63zM28.28 22.68l2.44-1v.63l-2.44 1.01v-.64zM28.28 21.24l2.44-1v.63l-2.44 1v-.63zM28.28 19.79l2.44-1v.63l-2.44 1v-.63zM28.28 18.35l2.44-1.01v.64l-2.44 1v-.63zM28.28 16.9l2.44-1v.63l-2.44 1v-.63zM28.28 15.46l2.44-1v.63l-2.44 1v-.63zM28.28 14.01l2.44-1v.63l-2.44 1v-.63zM28.28 12.56l2.44-1v.64l-2.44 1v-.64zM28.28 11.12l2.44-1v.63l-2.44 1v-.63zM28.28 9.67l2.44-1v.63l-2.44 1.01v-.64zM28.28 8.5l.03-.29 2.27-.92.07.6-2.37.97V8.5zM28.49 6.7l1.93-.79.07.6-2.08.85.08-.66zM28.67 5.18l1.58-.65.08.6-1.74.71.08-.66zM28.85 3.66l1.24-.51.07.6-1.39.57.08-.66zM29.03 2.14l.9-.37.07.6-1.05.43.08-.66zM29.2.62l.57-.23.07.6-.71.3.07-.67z" class="c32-cls-17" data-color-action="fill" style="fill:inherit"/></g><circle cx="29.5" cy="53.21" r="2.24" class="c32-cls-11" data-color-action="fill" style="fill:inherit"/><path d="M27.67 48.99h3.67v3h-3.67z" class="c32-cls-11" data-color-action="fill" style="fill:inherit"/><path d="M28.49 48.99h.55v3h-.55z" class="c32-cls-16"/><path d="M28.7 54.56h-.21a2.32 2.32 0 0 1-.49-1.28 2.37 2.37 0 0 1 .52-1.3H29a2 2 0 0 0-.73 1.37 1.5 1.5 0 0 0 .43 1.21z" class="c32-cls-16"/><path d="M28.28 42.63h2.44v.63h-2.44z" class="c32-cls-17" data-color-action="fill" style="fill:inherit"/><path d="M32.11 49.01h-5.22l.87-5.71h3.48l.87 5.71z" class="c32-cls-11" data-color-action="fill" style="fill:inherit"/><path d="M28.85 49.01h-.79l.48-5.71h.53l-.22 5.71z" class="c32-cls-16"/></g><g id="c32_implant_cylinder" data-name="implant cylinder"><path d="M2 2h55v61.98H2z" class="c32-cls-13"/><path d="M26.17 3h6.67v49.33h-6.67zM24.5 0h10v3h-10z" class="c32-cls-11" data-color-action="fill" style="fill:inherit"/><path d="M28 3h1v49.33h-1zM26.75 0h1.5v3h-1.5z" class="c32-cls-16"/><path d="M24.5 52.36h10v3h-10z" class="c32-cls-11" data-color-action="fill" style="fill:inherit"/><path d="M26.75 52.36h1.5v3h-1.5z" class="c32-cls-16"/><path d="M26.17 3h6.67v.63h-6.67zM26.17 51.7h6.67v.63h-6.67z" class="c32-cls-17" data-color-action="fill" style="fill:inherit"/><g class="c32-cls-18"><path d="M32.83 50.7l-6.66 1v.63l6.66-1v-.63zM32.83 49.25l-6.66 1v.63l6.66-1v-.63zM32.83 47.81l-6.66 1v.63l6.66-1v-.63zM32.83 46.36l-6.66 1v.63l6.66-1v-.63zM32.83 44.92l-6.66 1v.63l6.66-1v-.63zM32.83 43.47l-6.66 1v.63l6.66-1v-.63zM32.83 42.02l-6.66 1v.64l6.66-1v-.64zM32.83 40.58l-6.66 1v.63l6.66-1v-.63zM32.83 39.13l-6.66 1v.64l6.66-1v-.64zM32.83 37.69l-6.66 1v.63l6.66-1v-.63zM32.83 36.24l-6.66 1v.64l6.66-1v-.64zM32.83 34.8l-6.66 1v.63l6.66-1v-.63zM32.83 33.35l-6.66 1v.63l6.66-1v-.63zM32.83 31.91l-6.66 1v.63l6.66-1v-.63zM32.83 30.46l-6.66 1v.63l6.66-1v-.63zM32.83 29.02l-6.66 1v.63l6.66-1v-.63zM32.83 27.57l-6.66 1v.63l6.66-1v-.63zM32.83 26.13l-6.66 1v.63l6.66-1v-.63zM32.83 24.68l-6.66 1v.63l6.66-1v-.63zM32.83 23.23l-6.66 1v.64l6.66-1v-.64zM32.83 21.79l-6.66 1v.63l6.66-1v-.63zM32.83 20.34l-6.66 1v.64l6.66-1v-.64zM32.83 18.9l-6.66 1v.63l6.66-1v-.63zM32.83 17.45l-6.66 1v.64l6.66-1.01v-.63zM32.83 16.01l-6.66 1v.63l6.66-1v-.63zM32.83 14.56l-6.66 1v.63l6.66-1v-.63zM32.83 13.12l-6.66 1v.63l6.66-1v-.63zM32.83 11.67l-6.66 1v.63l6.66-1v-.63zM32.83 10.22l-6.66 1v.64l6.66-1v-.64zM32.83 8.78l-6.66 1v.63l6.66-1v-.63zM32.83 7.33l-6.66 1.01v.63l6.66-1v-.64zM32.83 5.89l-6.66 1v.63l6.66-1v-.63zM32.83 4.44l-6.66 1v.64l6.66-1v-.64zM32.83 3l-6.66 1v.63l6.66-1V3z" class="c32-cls-17" data-color-action="fill" style="fill:inherit"/></g></g><g id="c32_implant_blade" data-name="implant blade"><path d="M2 2h55v61.98H2z" class="c32-cls-13"/><path d="M26.17 3.03h6.67v49.33h-6.67zM24.5 52.36h10v3h-10z" class="c32-cls-11" data-color-action="fill" style="fill:inherit"/><path d="M28 3.03h1v49.33h-1zM26.75 52.36h1.5v3h-1.5z" class="c32-cls-16"/><path d="M26.17 51.73h6.67v.63h-6.67z" class="c32-cls-17" data-color-action="fill" style="fill:inherit"/></g><path id="c32_border" d="M0 0h59v66H0z" class="c32-cls-7" transform="rotate(180 29.5 33)"/></defs></g></svg>