<svg xmlns="http://www.w3.org/2000/svg" viewBox="0 0 59 283"><defs><style>.a10-cls-1{isolation:isolate}.a10-cls-2{font-size:15px;fill:#929497;font-family:ProximaNova-Semibold,Proxima Nova,sans-serif;font-weight:700;stroke:none}.a10-cls-24,.a10-cls-3{fill:#c5c7c9;stroke:none}.a10-cls-3{stroke:#c5c7c9;stroke-width:5px}.a10-cls-19,.a10-cls-21,.a10-cls-23,.a10-cls-25,.a10-cls-26,.a10-cls-29,.a10-cls-3,.a10-cls-32,.a10-cls-33{stroke-miterlimit:10}.a10-cls-4,.a10-cls-5{fill:#f5d7cf;stroke:none}.a10-cls-5{fill:#fae8e3}.a10-cls-6,.a10-cls-7{fill:#f2c6bc;stroke:none}.a10-cls-7{fill:#eeefef}.a10-cls-8,.a10-cls-9{fill:#e2e3e4;stroke:none}.a10-cls-9{fill:#fbfbfb}.a10-cls-10,.a10-cls-27,.a10-cls-36{fill:#3c3d3d;stroke:none}.a10-cls-10{opacity:.55}.a10-cls-11{fill:#ffd403;stroke:none}.a10-cls-12,.a10-cls-31{fill:#ffef3e;stroke:none}.a10-cls-13,.a10-cls-20{fill:#c52636;stroke:none}.a10-cls-14{fill:none;stroke:none}.a10-cls-19,.a10-cls-21,.a10-cls-23,.a10-cls-25,.a10-cls-26,.a10-cls-29,.a10-cls-32,.a10-cls-33{fill:none}.a10-cls-16,.a10-cls-37{fill:#28418b;stroke:none}.a10-cls-17,.a10-cls-18{fill:#787878;stroke:none}.a10-cls-19,.a10-cls-21,.a10-cls-23,.a10-cls-29,.a10-cls-32,.a10-cls-33{stroke:#c52636}.a10-cls-19,.a10-cls-21,.a10-cls-26{stroke-width:2px}.a10-cls-21{stroke-linecap:round}.a10-cls-22{fill:#fff;stroke:none}.a10-cls-25,.a10-cls-26{stroke:#28418b}.a10-cls-25{stroke-width:3px}.a10-cls-28{opacity:.6}.a10-cls-29{stroke-width:4px}.a10-cls-30{fill:#f05b85;stroke:none}.a10-cls-32,.a10-cls-33{stroke-width:1.25px}.a10-cls-34{fill:#9b9999;stroke:none}.a10-cls-35{fill:#dbdbdc;stroke:none}.a10-cls-38{font-size:33px;fill:#28418b;font-family:ProximaNova-Semibold,Proxima Nova,sans-serif;font-weight:700;stroke:none}.c10-cls-1{isolation:isolate}.c10-cls-16,.c10-cls-2{fill:#c5c7c9;stroke:none}.c10-cls-2{stroke:#c5c7c9;stroke-width:5px}.c10-cls-2,.c10-cls-20,.c10-cls-21{stroke-miterlimit:10}.c10-cls-3{fill:#eeefef;stroke:none}.c10-cls-4,.c10-cls-5{fill:#fbfbfb;stroke:none}.c10-cls-5{fill:#e2e3e4}.c10-cls-17,.c10-cls-6{fill:#3c3d3d;stroke:none}.c10-cls-6{opacity:.55}.c10-cls-20,.c10-cls-21{fill:none}.c10-cls-7,.c10-cls-9{fill:none;stroke:none}.c10-cls-9{fill:#28418b}.c10-cls-10,.c10-cls-11{fill:#787878;stroke:none}.c10-cls-12,.c10-cls-19{fill:#ffef3e;stroke:none}.c10-cls-13{fill:#fff;stroke:none}.c10-cls-14,.c10-cls-15{fill:#c52636;stroke:none}.c10-cls-18{opacity:.6}.c10-cls-20,.c10-cls-21{stroke:#c52636;stroke-width:1.25px}.a10-msng-cls-1{isolation:isolate}.a10-msng-cls-2{font-size:15px;fill:#929497;font-family:ProximaNova-Semibold,Proxima Nova;font-weight:700;stroke:none}.a10-msng-cls-3{fill:#c5c7c9;stroke:#c5c7c9;stroke-width:5px}.a10-msng-cls-11,.a10-msng-cls-3{stroke-miterlimit:10}.a10-msng-cls-4{fill:#f5d7cf;stroke:none}.a10-msng-cls-5{fill:#fae8e3;stroke:none}.a10-msng-cls-6{fill:#f2c6bc;stroke:none}.a10-msng-cls-7{fill:#eeefef;stroke:none}.a10-msng-cls-8{fill:#e2e3e4;stroke:none}.a10-msng-cls-9{fill:#fbfbfb;stroke:none}.a10-msng-cls-11{fill:none}.a10-msng-cls-12{fill:none;stroke:none}.a10-msng-cls-11{stroke:#787878;stroke-width:6.25px}</style></defs><g class="a10-cls-1"><g id="_10A" data-name="#10A"><text class="a10-cls-2" transform="translate(22.03 20.51)">10</text><path d="M42.72 117.89a12.69 12.69 0 0 0-2.94-6c-.28-8-.87-16.88-1.56-25.94-1.71-22.43-4.36-44.23-6.68-44.09-1.87.11-6.92 21.63-10 44.27-1.29 9.41-2.23 18.53-2.66 26.42-1.71 2.39-2.88 5.76-3.59 10.24-1.29 8.1-1.85 20.45 0 24.13 1.31 2.6 10.46 4.34 14.67 4s13.37-1 14.53-4.69-.03-20.35-1.77-28.34z" class="a10-cls-3"/><path d="M18.6 119.77a286.69 286.69 0 0 1 2.9-33.68c3.1-22.64 8.15-44.16 10-44.27 2.32-.14 5 21.67 6.68 44.09C39.18 98.63 40 111.06 40 121c0 2.94-21.44 2.11-21.4-1.23z" class="a10-cls-4"/><path d="M30 118.57l5 .78s-.27-24-.48-42c-.35-28.77-2.26-32.54-2.65-33.2s.91 3.07.45 24.37C32 81.42 30 118.57 30 118.57z" class="a10-cls-5"/><path d="M22.87 85.1c1-9.75 2.31-19.3 3.58-27.26-1.73 7.92-3.54 18-5 28.25a286.69 286.69 0 0 0-2.91 33.68c0 .61.71 1.13 1.87 1.57.14-9.96 1.05-22.83 2.46-36.24zM38.21 85.92c-1.27-16.65-3.06-33-4.85-40.19 1.25 8.94 2.46 23.93 3.35 39.19.79 13.49 1.42 26.68 1.44 37.29 1.11-.29 1.79-.7 1.79-1.22.06-9.93-.76-22.36-1.73-35.07z" class="a10-cls-6"/><path d="M15.26 146.88c-1.85-3.68-1.29-16 0-24.13 1.6-10.07 5.52-14.58 12.64-14.76s13.07 1.91 14.82 9.9 2.91 24.65 1.74 28.3-10.31 4.34-14.53 4.69-13.36-1.4-14.67-4z" class="a10-cls-7"/><path d="M17.7 123.33c.78-6.71 2.22-11.24 4.47-13.88-3.6 2.06-5.81 6.36-6.91 13.3-1.29 8.1-1.85 20.45 0 24.13a4.27 4.27 0 0 0 1.92 1.6c-.87-5.7-.4-17.21.52-25.15zM42.72 117.89c-.9-4.11-2.92-6.65-5.63-8.13 1.59 1.75 2.78 4.33 3.37 8 1.32 8.26 2.23 24.68 1.66 30.69a4.3 4.3 0 0 0 2.35-2.31c1.15-3.6-.01-20.26-1.75-28.25z" class="a10-cls-8"/><path d="M35.8 150.24c.06-5.12 0-13.85-.44-25.22-.41-9.79-1.32-14.44-2-16.58a20.34 20.34 0 0 0-2.89-.4c.25 2.38.67 7.91.81 19.19.11 9.2-.31 18.48-.59 23.58 1.47-.12 3.31-.29 5.11-.57z" class="a10-cls-9"/></g><defs><g id="a10_bone_graft" data-name="bone graft"><path d="M2 23.31h55V111H2z" class="a10-cls-16" data-color-action="fill" style="fill:inherit"/><path d="M42.72 117.89a12.69 12.69 0 0 0-2.94-6c-.28-8-.87-16.88-1.56-25.94-1.71-22.43-4.36-44.23-6.68-44.09-1.87.11-6.92 21.63-10 44.27-1.29 9.41-2.23 18.53-2.66 26.42-1.71 2.39-2.88 5.76-3.59 10.24-1.29 8.1-1.85 20.45 0 24.13 1.31 2.6 10.46 4.34 14.67 4s13.37-1 14.53-4.69-.03-20.35-1.77-28.34z" class="a10-cls-3"/><path d="M18.6 119.77a286.69 286.69 0 0 1 2.9-33.68c3.1-22.64 8.15-44.16 10-44.27 2.32-.14 5 21.67 6.68 44.09C39.18 98.63 40 111.06 40 121c0 2.94-21.44 2.11-21.4-1.23z" class="a10-cls-4"/><path d="M30 118.57l5 .78s-.27-24-.48-42c-.35-28.77-2.26-32.54-2.65-33.2s.91 3.07.45 24.37C32 81.42 30 118.57 30 118.57z" class="a10-cls-5"/><path d="M22.87 85.1c1-9.75 2.31-19.3 3.58-27.26-1.73 7.92-3.54 18-5 28.25a286.69 286.69 0 0 0-2.91 33.68c0 .61.71 1.13 1.87 1.57.14-9.96 1.05-22.83 2.46-36.24zM38.21 85.92c-1.27-16.65-3.06-33-4.85-40.19 1.25 8.94 2.46 23.93 3.35 39.19.79 13.49 1.42 26.68 1.44 37.29 1.11-.29 1.79-.7 1.79-1.22.06-9.93-.76-22.36-1.73-35.07z" class="a10-cls-6"/><path d="M15.26 146.88c-1.85-3.68-1.29-16 0-24.13 1.6-10.07 5.52-14.58 12.64-14.76s13.07 1.91 14.82 9.9 2.91 24.65 1.74 28.3-10.31 4.34-14.53 4.69-13.36-1.4-14.67-4z" class="a10-cls-7"/><path d="M17.7 123.33c.78-6.71 2.22-11.24 4.47-13.88-3.6 2.06-5.81 6.36-6.91 13.3-1.29 8.1-1.85 20.45 0 24.13a4.27 4.27 0 0 0 1.92 1.6c-.87-5.7-.4-17.21.52-25.15zM42.72 117.89c-.9-4.11-2.92-6.65-5.63-8.13 1.59 1.75 2.78 4.33 3.37 8 1.32 8.26 2.23 24.68 1.66 30.69a4.3 4.3 0 0 0 2.35-2.31c1.15-3.6-.01-20.26-1.75-28.25z" class="a10-cls-8"/><path d="M35.8 150.24c.06-5.12 0-13.85-.44-25.22-.41-9.79-1.32-14.44-2-16.58a20.34 20.34 0 0 0-2.89-.4c.25 2.38.67 7.91.81 19.19.11 9.2-.31 18.48-.59 23.58 1.47-.12 3.31-.29 5.11-.57z" class="a10-cls-9"/></g><g id="a10_splinted_crowns" data-name="splinted crowns"><path d="M2 104.58h55v7.67H2z" class="a10-cls-12" transform="rotate(-180 29.5 108.41)" data-color-action="fill" style="fill:inherit"/><path d="M42.72 117.89a12.69 12.69 0 0 0-2.94-6c-.28-8-.87-16.88-1.56-25.94-1.71-22.43-4.36-44.23-6.68-44.09-1.87.11-6.92 21.63-10 44.27-1.29 9.41-2.23 18.53-2.66 26.42-1.71 2.39-2.88 5.76-3.59 10.24-1.29 8.1-1.85 20.45 0 24.13 1.31 2.6 10.46 4.34 14.67 4s13.37-1 14.53-4.69-.03-20.35-1.77-28.34z" class="a10-cls-3"/><path d="M18.6 119.77a286.69 286.69 0 0 1 2.9-33.68c3.1-22.64 8.15-44.16 10-44.27 2.32-.14 5 21.67 6.68 44.09C39.18 98.63 40 111.06 40 121c0 2.94-21.44 2.11-21.4-1.23z" class="a10-cls-4"/><path d="M30 118.57l5 .78s-.27-24-.48-42c-.35-28.77-2.26-32.54-2.65-33.2s.91 3.07.45 24.37C32 81.42 30 118.57 30 118.57z" class="a10-cls-5"/><path d="M22.87 85.1c1-9.75 2.31-19.3 3.58-27.26-1.73 7.92-3.54 18-5 28.25a286.69 286.69 0 0 0-2.91 33.68c0 .61.71 1.13 1.87 1.57.14-9.96 1.05-22.83 2.46-36.24zM38.21 85.92c-1.27-16.65-3.06-33-4.85-40.19 1.25 8.94 2.46 23.93 3.35 39.19.79 13.49 1.42 26.68 1.44 37.29 1.11-.29 1.79-.7 1.79-1.22.06-9.93-.76-22.36-1.73-35.07z" class="a10-cls-6"/><path d="M15.26 146.88c-1.85-3.68-1.29-16 0-24.13 1.6-10.07 5.52-14.58 12.64-14.76s13.07 1.91 14.82 9.9 2.91 24.65 1.74 28.3-10.31 4.34-14.53 4.69-13.36-1.4-14.67-4z" class="a10-cls-7"/><path d="M17.7 123.33c.78-6.71 2.22-11.24 4.47-13.88-3.6 2.06-5.81 6.36-6.91 13.3-1.29 8.1-1.85 20.45 0 24.13a4.27 4.27 0 0 0 1.92 1.6c-.87-5.7-.4-17.21.52-25.15zM42.72 117.89c-.9-4.11-2.92-6.65-5.63-8.13 1.59 1.75 2.78 4.33 3.37 8 1.32 8.26 2.23 24.68 1.66 30.69a4.3 4.3 0 0 0 2.35-2.31c1.15-3.6-.01-20.26-1.75-28.25z" class="a10-cls-8"/><path d="M35.8 150.24c.06-5.12 0-13.85-.44-25.22-.41-9.79-1.32-14.44-2-16.58a20.34 20.34 0 0 0-2.89-.4c.25 2.38.67 7.91.81 19.19.11 9.2-.31 18.48-.59 23.58 1.47-.12 3.31-.29 5.11-.57z" class="a10-cls-9"/></g><path id="a10_mesial_incisal" d="M14.58 144.67a8.85 8.85 0 0 0 .68 2.21c.75 1.49 4.06 2.69 7.55 3.38l.82-2.76c-3.63-.5-7.37-1.5-9.05-2.83z" class="a10-cls-10" data-color-action="fill" style="fill:inherit" data-name="mesial incisal"/><path id="a10_central_incisal" d="M30 147.87a31.47 31.47 0 0 1-6.34-.37l-.82 2.76a27.87 27.87 0 0 0 7.12.61c1.72-.14 4.25-.34 6.73-.76l-.78-2.8c-2.25.29-4.39.45-5.91.56z" class="a10-cls-10" data-color-action="fill" style="fill:inherit" data-name="central incisal"/><path id="a10_distal_incisal" d="M36.66 150.11c3.61-.64 7.1-1.76 7.79-3.92a8.56 8.56 0 0 0 .28-1.51c-1.88 1.42-5.45 2.18-8.86 2.63z" class="a10-cls-10" data-color-action="fill" style="fill:inherit" data-name="distal incisal"/><path id="a10_mesial" d="M20.48 138.46l-6.27 3.17a81.79 81.79 0 0 1 .31-12.83c1.91.16 4.63.82 5.09 3.18s.19 4.78.87 6.48z" class="a10-cls-10" data-color-action="fill" style="fill:inherit"/><path id="a10_line_angle_2" d="M25.49 141.28a12.74 12.74 0 0 1-2.9-.74 3.63 3.63 0 0 1-2.11-2.08l-6.27 3.17a25.71 25.71 0 0 0 .37 3c1.68 1.3 5.42 2.31 9 2.84z" class="a10-cls-10" data-color-action="fill" style="fill:inherit" data-name="line angle 2"/><path id="a10_facial" d="M30 147.87c1.54-.12 3.69-.27 5.91-.56l-1.61-5.84a37.31 37.31 0 0 1-8.78-.19l-1.86 6.22a31.47 31.47 0 0 0 6.34.37z" class="a10-cls-10" data-color-action="fill" style="fill:inherit"/><path id="a10_line_angle_1" d="M38.21 138.78a3.64 3.64 0 0 1-2.48 2.48c-.41.08-.9.15-1.46.21l1.61 5.84c3.41-.44 7-1.21 8.86-2.63.07-.58.12-1.26.15-2z" class="a10-cls-10" data-color-action="fill" style="fill:inherit" data-name="line angle 1"/><path id="a10_distal" d="M44.89 142.65l-6.68-3.87a24.07 24.07 0 0 0 1.22-5.8c.34-2.47 2.78-3.61 4.86-4.13a114.29 114.29 0 0 1 .6 13.8z" class="a10-cls-10" data-color-action="fill" style="fill:inherit"/><ellipse id="a10_mid_facial" cx="30.08" cy="126.93" class="a10-cls-10" rx="4.61" ry="9.46" data-color-action="fill" style="fill:inherit" data-name="mid facial"/><path id="a10_facial_V" d="M38.85 111a14.58 14.58 0 0 1-18.32-.32A11 11 0 0 1 27.9 108c4.3-.11 8.18.61 10.95 3z" class="a10-cls-10" data-color-action="fill" style="fill:inherit" data-name="facial V"/><path id="a10_veneer" d="M15.26 146.88c-1.85-3.68-1.29-16 0-24.13 1.6-10.07 5.52-14.58 12.64-14.76s13.07 1.91 14.82 9.9 2.91 24.65 1.74 28.3-10.31 4.34-14.53 4.69-13.36-1.4-14.67-4z" class="a10-cls-12" data-color-action="fill" style="fill:inherit"/><path id="a10_tissue_graft" d="M12.03 93.66l17.47 13.88 17.47-13.88H12.03z" class="a10-cls-13" data-color-action="fill" style="fill:inherit" data-name="tissue graft"/><path id="a10_tipped_lingual" d="M28 3.25h3v3h-3z" class="a10-cls-14" transform="rotate(-180 29.5 4.75)" data-name="tipped lingual"/><g id="a10_tipped_facial" class="a10-cls-15" data-name="tipped facial"><path d="M33.15 154.5c-1.26 3.37-4.74 3.85-7.69-5.32-.5-1.56-4.42-1.76-3.84 0 2 6.08 5.31 10.2 9.06 9.27a4.86 4.86 0 0 0 3-3.38 4.48 4.48 0 0 1-.53-.57z" class="a10-cls-16" data-color-action="fill" style="fill:inherit"/><path d="M31.07 151.58H18.13l2.94-9.64 10 9.64z" class="a10-cls-16" data-color-action="fill" style="fill:inherit"/></g><path id="a10_surface_restoration_incisal" d="M29.93 150.87c-4 .33-12.51-1.23-14.42-3.64l5.89-4.55a26.61 26.61 0 0 0 7.35 1.23h.82a45.27 45.27 0 0 0 8.34-1.21v-.12L44 147c-2.12 2.93-10.19 3.55-14.07 3.87z" class="a10-cls-17" data-color-action="fill" style="fill:inherit" data-name="surface restoration incisal"/><path id="a10_surface_restoration_distal" d="M37 116.94a11.53 11.53 0 0 0 6.49 5.43c1.26 8.57 1.92 20.77.95 23.82a2.82 2.82 0 0 1-.43.8l-6.13-4.43c.12-3.46-.17-16.01-.88-25.62z" class="a10-cls-17" data-color-action="fill" style="fill:inherit" data-name="surface restoration distal"/><path id="a10_surface_restoration_facial" d="M29.47 112.8a14.59 14.59 0 0 0 6.16-1.37 11.45 11.45 0 0 0 1.37 5.51c.7 9.72 1 22.44.88 25.74a45.27 45.27 0 0 1-8.34 1.21h-.82a26.6 26.6 0 0 1-7.42-1.26c-.36-2.68-.37-16.23.25-25.41a11.43 11.43 0 0 0 1.58-5.79v-.1a14.58 14.58 0 0 0 6.34 1.47z" class="a10-cls-15 a10-cls-18" data-color-action="fill" style="fill:inherit" data-name="surface restoration facial"/><path id="a10_surface_restoration_facial_V" d="M23.15 111.36a11.55 11.55 0 0 0-.24-2.26 12.3 12.3 0 0 1 5-1.1 20 20 0 0 1 8 1.19 11.55 11.55 0 0 0-.23 2.25 14.53 14.53 0 0 1-12.48-.07z" class="a10-cls-15 a10-cls-18" data-color-action="fill" style="fill:inherit" data-name="surface restoration facial V"/><path id="a10_surface_restoration_mesial" d="M15.26 146.88c-1.85-3.68-1.29-16 0-24.13 0-.14 0-.27.07-.41a11.52 11.52 0 0 0 6.25-5.1c-.58 9.19-.58 22.76-.25 25.42h.07l-5.89 4.55a2.17 2.17 0 0 1-.25-.33z" class="a10-cls-17" data-color-action="fill" style="fill:inherit" data-name="surface restoration mesial"/><g id="a10_supra-erupted" class="a10-cls-15"><path d="M29.5 101.88V94.2" class="a10-cls-19" data-color-action="stroke" style="stroke:inherit"/><path d="M33.49 100.71l-3.99 6.91-3.99-6.91h7.98z" class="a10-cls-20" data-color-action="fill" style="fill:inherit"/></g><g id="a10_sub-erupted" class="a10-cls-15"><path d="M29.5 99.94v7.68" class="a10-cls-19" data-color-action="stroke" style="stroke:inherit"/><path d="M25.51 101.11l3.99-6.91 3.99 6.91h-7.98z" class="a10-cls-20" data-color-action="fill" style="fill:inherit"/></g><text id="a10_sealant" class="a10-cls-38" transform="translate(19.7 200.47)" data-color-action="fill" style="fill:inherit">S</text><g id="a10_rotated_mesial" class="a10-cls-15" data-name="rotated mesial"><path d="M51.29 128.18c3 1.79 2.3 5.46-10.23 5.81-5.3.15-8.95 0-8.95 0l.07 3s1 .07 8.22-.24c7.62-.32 14-1.83 13.75-6a4 4 0 0 0-2.31-2.92c-.17.17-.41.28-.55.35z" class="a10-cls-16" data-color-action="fill" style="fill:inherit"/><path d="M38.59 129.47v11.89l-10.39-5.9 10.39-5.99z" class="a10-cls-16" data-color-action="fill" style="fill:inherit"/></g><g id="a10_rotated_distal" class="a10-cls-15" data-name="rotated distal"><path d="M7.87 128.18c-3 1.79-2.3 5.46 10.23 5.81 5.3.15 8.95 0 8.95 0L27 137s-1 .07-8.22-.24c-7.62-.32-14-1.83-13.75-6a4 4 0 0 1 2.31-2.92c.16.16.4.27.53.34z" class="a10-cls-16" data-color-action="fill" style="fill:inherit"/><path d="M20.57 129.47v11.89l10.4-5.9-10.4-5.99z" class="a10-cls-16" data-color-action="fill" style="fill:inherit"/></g><circle id="a10_root_decay" cx="30.75" cy="64.96" r="4.33" class="a10-cls-15 a10-cls-18" data-color-action="fill" style="fill:inherit" data-name="root decay"/><path id="a10_root_canal" d="M31.38 45.63l-1.63 60.75" class="a10-cls-21" data-color-action="stroke" style="stroke:inherit" data-name="root canal"/><path id="a10_root_abrasion" d="M28.29 59.42h3.5v13.83h-3.5z" class="a10-cls-15 a10-cls-23" transform="rotate(-180 30.04 66.34)" data-color-action="stroke" style="stroke:inherit" data-name="root abrasion"/><g id="a10_post"><path d="M28.35 85.39h3.14v41.77h-3.14z" class="a10-cls-18" transform="rotate(-180 29.925 106.275)" data-color-action="fill" style="fill:inherit"/><path d="M30.16 85.39h.47v41.77h-.47z" class="a10-cls-24" transform="rotate(-180 30.4 106.275)"/></g><g id="a10_pins"><path d="M31.26 95.72h2.42v23.43h-2.42z" class="a10-cls-18" transform="rotate(-180 32.465 107.44)" data-color-action="fill" style="fill:inherit"/><path d="M32.65 95.72h.36v23.43h-.36z" class="a10-cls-24" transform="rotate(-180 32.83 107.44)"/><path d="M26.68 95.72h2.42v23.43h-2.42z" class="a10-cls-18" transform="rotate(-180 27.885 107.44)" data-color-action="fill" style="fill:inherit"/><path d="M28.07 95.72h.36v23.43h-.36z" class="a10-cls-24" transform="rotate(-180 28.25 107.44)"/></g><path id="a10_open_contact_mesial" d="M26.31 103.99l-7.5 4.75-7.5-4.75" class="a10-cls-25" data-color-action="stroke" style="stroke:inherit" data-name="open contact mesial"/><path id="a10_open_contact_distal" d="M47.33 103.99l-7.5 4.75-7.5-4.75" class="a10-cls-25" data-color-action="stroke" style="stroke:inherit" data-name="open contact distal"/><g id="a10_mesial_drift" class="a10-cls-15" data-name="mesial drift"><path d="M26.41 131.16h11.92" class="a10-cls-26" data-color-action="stroke" style="stroke:inherit"/><path d="M27.57 135.15l-6.9-3.99 6.9-3.99v7.98z" class="a10-cls-16" data-color-action="fill" style="fill:inherit"/></g><path id="a10_lingual_abfraction" d="M28 3.25h3v3h-3z" class="a10-cls-14" transform="rotate(-180 29.5 4.75)" data-name="lingual abfraction"/><ellipse id="a10_internal_root_resorption" cx="30.97" cy="66.1" class="a10-cls-15 a10-cls-20" rx="9.84" ry="3.98" transform="rotate(-86.81 30.963 66.093)" data-color-action="fill" style="fill:inherit" data-name="internal root resorption"/><g id="a10_impacted_mesial" class="a10-cls-15" data-name="impacted mesial"><ellipse cx="29.5" cy="96.05" class="a10-cls-26" rx="24.15" ry="63.55" data-color-action="stroke" style="stroke:inherit"/><path d="M40.91 96.05h12.76" class="a10-cls-26" data-color-action="stroke" style="stroke:inherit"/><path d="M42.08 100.04l-6.91-3.99 6.91-3.99v7.98z" class="a10-cls-16" data-color-action="fill" style="fill:inherit"/></g><g id="a10_impacted_distal" class="a10-cls-15" data-name="impacted distal"><ellipse cx="29.51" cy="96.05" class="a10-cls-26" rx="24.15" ry="63.55" data-color-action="stroke" style="stroke:inherit"/><path d="M18.11 96.05H5.35" class="a10-cls-26" data-color-action="stroke" style="stroke:inherit"/><path d="M16.94 92.06l6.91 3.99-6.91 3.99v-7.98z" class="a10-cls-16" data-color-action="fill" style="fill:inherit"/></g><path id="a10_gortex_membranes" d="M2 93.83h55v16.42H2z" class="a10-cls-13" transform="rotate(-180 29.5 102.035)" data-color-action="fill" style="fill:inherit" data-name="gortex membranes"/><path id="a10_frenum_pull" d="M39.49 108.58l-10.66-6.75-10.65 6.75" class="a10-cls-29" data-color-action="stroke" style="stroke:inherit" data-name="frenum pull"/><path id="a10_external_root_resorption" d="M21.57 85.61a8.62 8.62 0 0 0 4.89-7.27 9.74 9.74 0 0 0-2.57-7.44c-.83 4.69-1.62 9.67-2.32 14.71zm11.71-8.72c.56 4.9 3.22 6.88 4.82 7.64-.43-5.47-.91-10.87-1.43-15.9-1.37.78-3.98 2.97-3.38 8.26z" class="a10-cls-15 a10-cls-20" data-color-action="fill" style="fill:inherit" data-name="external root resorption"/><g id="a10_distal_drift" class="a10-cls-15" data-name="distal drift"><path d="M32.59 131.16H20.67" class="a10-cls-26" data-color-action="stroke" style="stroke:inherit"/><path d="M31.43 127.17l6.9 3.99-6.9 3.99v-7.98z" class="a10-cls-16" data-color-action="fill" style="fill:inherit"/></g><path id="a10_three_quarter_crown" d="M44.4 130.07c.61 6.93.76 13.91.06 16.12-1.16 3.65-10.31 4.34-14.53 4.69s-13.37-1.39-14.67-4-1.41-9.93-.85-16.81z" class="a10-cls-15 a10-cls-31" data-color-action="fill" style="fill:inherit" data-name="three quarter crown"/><path id="a10_crown" d="M15.26 146.88c-1.85-3.68-1.29-16 0-24.13 1.6-10.07 5.52-14.58 12.64-14.76s13.07 1.91 14.82 9.9 2.91 24.65 1.74 28.3-10.31 4.34-14.53 4.69-13.36-1.4-14.67-4z" class="a10-cls-12" data-color-action="fill" style="fill:inherit"/><path id="a10_cracked_surface_incisal" d="M28.17 142.84l3.84 3.83H27l5 4.74h-5l3.83 3.83" class="a10-cls-32" data-color-action="stroke" style="stroke:inherit" data-name="cracked surface incisal"/><path id="a10_cracked_surface_distal" d="M41.34 123.82l3.83 3.83h-5.01l5.01 4.75h-5.01l3.83 3.83" class="a10-cls-32" data-color-action="stroke" style="stroke:inherit" data-name="cracked surface distal"/><path id="a10_cracked_surface_facial" d="M28.17 123.82l3.84 3.83H27l5 4.75h-5l3.83 3.83" class="a10-cls-32" data-color-action="stroke" style="stroke:inherit" data-name="cracked surface facial"/><path id="a10_cracked_surface_facial_V" d="M28.17 123.82l3.84 3.83H27l5 4.75h-5l3.83 3.83" class="a10-cls-32" data-color-action="stroke" style="stroke:inherit" data-name="cracked surface facial V"/><path id="a10_cracked_surface_mesial" d="M13.34 123.82l3.83 3.83h-5l5 4.75h-5l3.83 3.83" class="a10-cls-32" data-color-action="stroke" style="stroke:inherit" data-name="cracked surface mesial"/><g id="a10_chipped_surface_incisal" class="a10-cls-15" data-name="chipped surface incisal"><path d="M25.67 144.51l8.33 8.33M34 144.51l-8.33 8.33" class="a10-cls-33" data-color-action="stroke" style="stroke:inherit"/></g><g id="a10_chipped_surface_distal" class="a10-cls-15" data-name="chipped surface distal"><path d="M37.83 125.49l8.33 8.34M46.16 125.49l-8.33 8.34" class="a10-cls-33" data-color-action="stroke" style="stroke:inherit"/></g><g id="a10_chipped_surface_facial" class="a10-cls-15" data-name="chipped surface facial"><path d="M25.67 125.49l8.33 8.34M34 125.49l-8.33 8.34" class="a10-cls-33" data-color-action="stroke" style="stroke:inherit"/></g><g id="a10_chipped_surface_facial_V" class="a10-cls-15" data-name="chipped surface facial V"><path d="M25.67 125.49l8.33 8.34M34 125.49l-8.33 8.34" class="a10-cls-33" data-color-action="stroke" style="stroke:inherit"/></g><g id="a10_chipped_surface_mesial" class="a10-cls-15" data-name="chipped surface mesial"><path d="M11.67 125.49l8.33 8.34M20 125.49l-8.33 8.34" class="a10-cls-33" data-color-action="stroke" style="stroke:inherit"/></g><path id="a10_buccal_abfraction" d="M19.64 107.74a17.54 17.54 0 0 0 9.69 3.42 17.54 17.54 0 0 0 9.67-3.42 17.54 17.54 0 0 0-9.69-3.42 17.54 17.54 0 0 0-9.67 3.42z" class="a10-cls-13" data-color-action="fill" style="fill:inherit" data-name="buccal abfraction"/><g id="a10_braces"><path d="M22.96 121.97h13.45v18.19H22.96z" class="a10-cls-24" transform="rotate(-180 29.69 131.06)"/><path d="M22.96 139.48h13.45v.68H22.96z" class="a10-cls-34" transform="rotate(-180 29.69 139.815)" data-color-action="fill" style="fill:inherit"/><path d="M22.96 131.21h13.45v1.36H22.96z" class="a10-cls-34" transform="rotate(-180 29.69 131.89)" data-color-action="fill" style="fill:inherit"/><path d="M22.96 121.97h13.45v.89H22.96z" class="a10-cls-35" transform="rotate(-180 29.69 122.415)" data-color-action="fill" style="fill:inherit"/><rect width="4.11" height="7.94" x="32.59" y="121.99" class="a10-cls-27" rx=".49" ry=".49" transform="rotate(-180 34.64 125.96)" data-color-action="fill" style="fill:inherit"/><path d="M33.08 122h3.13a.49.49 0 0 1 .49.49v5.83a13.14 13.14 0 0 1-4.11 0v-5.83a.49.49 0 0 1 .49-.49z" class="a10-cls-18" data-color-action="fill" style="fill:inherit"/><path d="M32.92 123.4v-1.11a.16.16 0 0 1 .16-.16h3.13a.16.16 0 0 1 .16.16v1.11z" class="a10-cls-24"/><rect width="4.11" height="7.94" x="22.67" y="121.99" class="a10-cls-27" rx=".49" ry=".49" transform="rotate(-180 24.725 125.96)" data-color-action="fill" style="fill:inherit"/><path d="M23.16 122h3.13a.49.49 0 0 1 .49.49v5.83a13.14 13.14 0 0 1-4.11 0v-5.83a.49.49 0 0 1 .49-.49z" class="a10-cls-18" data-color-action="fill" style="fill:inherit"/><path d="M23 123.4v-1.11a.16.16 0 0 1 .16-.16h3.13a.16.16 0 0 1 .16.16v1.11z" class="a10-cls-24"/><rect width="4.11" height="7.94" x="32.59" y="132.27" class="a10-cls-27" rx=".49" ry=".49" transform="rotate(-180 34.64 136.24)" data-color-action="fill" style="fill:inherit"/><path d="M33.08 132.27h3.13a.49.49 0 0 1 .49.49v5.83a13.14 13.14 0 0 1-4.11 0v-5.83a.49.49 0 0 1 .49-.49z" class="a10-cls-18" data-color-action="fill" style="fill:inherit"/><path d="M32.92 133.68v-1.11a.16.16 0 0 1 .16-.16h3.13a.16.16 0 0 1 .16.16v1.11z" class="a10-cls-24"/><rect width="4.11" height="7.94" x="22.67" y="132.27" class="a10-cls-27" rx=".49" ry=".49" transform="rotate(-180 24.725 136.24)" data-color-action="fill" style="fill:inherit"/><path d="M23.16 132.27h3.13a.49.49 0 0 1 .49.49v5.83a13.14 13.14 0 0 1-4.11 0v-5.83a.49.49 0 0 1 .49-.49z" class="a10-cls-18" data-color-action="fill" style="fill:inherit"/><path d="M23 133.68v-1.11a.16.16 0 0 1 .16-.16h3.13a.16.16 0 0 1 .16.16v1.11z" class="a10-cls-24"/><path d="M8.58 130.38h42.21v1.45H8.58z" class="a10-cls-18" transform="rotate(-180 29.685 131.105)" data-color-action="fill" style="fill:inherit"/><path d="M8.58 131.58h42.21v.25H8.58z" class="a10-cls-27" transform="rotate(-180 29.685 131.705)" data-color-action="fill" style="fill:inherit"/><path d="M8.58 130.58h42.21v.4H8.58z" class="a10-cls-24" transform="rotate(-180 29.685 130.78)"/></g><path id="a10_apicoectomy" d="M22.16 30.14l7.34 11.67 7.34-11.67H22.16z" class="a10-cls-17" data-color-action="fill" style="fill:inherit"/><circle id="a10_abscess" cx="29.5" cy="35.65" r="6.5" class="a10-cls-37" data-color-action="fill" style="fill:inherit"/><g id="a10_blunted_roots" data-name="blunted roots"><path d="M2 22h55v59.99H2z" class="a10-cls-22" transform="rotate(-180 29.5 51.995)"/><path d="M2 82.08h55v2H2z" class="a10-cls-36" transform="rotate(-180 29.5 83.075)" data-color-action="fill" style="fill:inherit"/></g><path id="a10_root_amputation" d="M2 21.67h55v86.14H2z" class="a10-cls-22" transform="rotate(-180 29.5 64.74)" data-name="root amputation"/><path id="a10_missing_crown" d="M2 108.91h55v50.26H2z" class="a10-cls-22" transform="rotate(-180 29.5 134.035)" data-name="missing crown"/><g id="a10_missing_tooth" data-name="missing tooth"><path d="M42.72 117.89a12.69 12.69 0 0 0-2.94-6c-.28-8-.87-16.88-1.56-25.94-1.71-22.43-4.36-44.23-6.68-44.09-1.87.11-6.92 21.63-10 44.27-1.29 9.41-2.23 18.53-2.66 26.42-1.71 2.39-2.88 5.76-3.59 10.24-1.29 8.1-1.85 20.45 0 24.13 1.31 2.6 10.46 4.34 14.67 4s13.37-1 14.53-4.69-.03-20.35-1.77-28.34z" class="a10-cls-3"/><path d="M18.6 119.77a286.69 286.69 0 0 1 2.9-33.68c3.1-22.64 8.15-44.16 10-44.27 2.32-.14 5 21.67 6.68 44.09C39.18 98.63 40 111.06 40 121c0 2.94-21.44 2.11-21.4-1.23z" class="a10-cls-22"/><path d="M30 118.57l5 .78s-.27-24-.48-42c-.35-28.77-2.26-32.54-2.65-33.2s.91 3.07.45 24.37C32 81.42 30 118.57 30 118.57zM22.87 85.1c1-9.75 2.31-19.3 3.58-27.26-1.73 7.92-3.54 18-5 28.25a286.69 286.69 0 0 0-2.91 33.68c0 .61.71 1.13 1.87 1.57.14-9.96 1.05-22.83 2.46-36.24zM38.21 85.92c-1.27-16.65-3.06-33-4.85-40.19 1.25 8.94 2.46 23.93 3.35 39.19.79 13.49 1.42 26.68 1.44 37.29 1.11-.29 1.79-.7 1.79-1.22.06-9.93-.76-22.36-1.73-35.07z" class="a10-cls-22"/><path d="M15.26 146.88c-1.85-3.68-1.29-16 0-24.13 1.6-10.07 5.52-14.58 12.64-14.76s13.07 1.91 14.82 9.9 2.91 24.65 1.74 28.3-10.31 4.34-14.53 4.69-13.36-1.4-14.67-4z" class="a10-cls-22"/><path d="M17.7 123.33c.78-6.71 2.22-11.24 4.47-13.88-3.6 2.06-5.81 6.36-6.91 13.3-1.29 8.1-1.85 20.45 0 24.13a4.27 4.27 0 0 0 1.92 1.6c-.87-5.7-.4-17.21.52-25.15zM42.72 117.89c-.9-4.11-2.92-6.65-5.63-8.13 1.59 1.75 2.78 4.33 3.37 8 1.32 8.26 2.23 24.68 1.66 30.69a4.3 4.3 0 0 0 2.35-2.31c1.15-3.6-.01-20.26-1.75-28.25zM35.8 150.24c.06-5.12 0-13.85-.44-25.22-.41-9.79-1.32-14.44-2-16.58a20.34 20.34 0 0 0-2.89-.4c.25 2.38.67 7.91.81 19.19.11 9.2-.31 18.48-.59 23.58 1.47-.12 3.31-.29 5.11-.57z" class="a10-cls-22"/></g><g id="a10_extracted_tooth" class="a10-msng-cls-10" data-name="extracted tooth"><path d="M9 108.83l41.67 41.66M50.67 108.83L9 150.49" class="a10-msng-cls-11" data-color-action="stroke" style="stroke:inherit"/></g><g id="a10_denture"><path d="M2 23.16h55v135.01H2z" class="a10-cls-22"/><path d="M57 100.22A22.63 22.63 0 0 0 44.78 97c-7.64 0-10 3.22-15.79 3.22S19.15 97 13.2 97A24.26 24.26 0 0 0 2 100.22v57.94h55z" class="a10-cls-30" data-color-action="fill" style="fill:inherit"/><path d="M15.26 146.88c-1.85-3.68-1.29-16 0-24.13 1.6-10.07 5.52-14.58 12.64-14.76s13.07 1.91 14.82 9.9 2.91 24.65 1.74 28.3-10.31 4.34-14.53 4.69-13.36-1.4-14.67-4z" class="a10-cls-3"/><path d="M15.26 146.88c-1.85-3.68-1.29-16 0-24.13 1.6-10.07 5.52-14.58 12.64-14.76s13.07 1.91 14.82 9.9 2.91 24.65 1.74 28.3-10.31 4.34-14.53 4.69-13.36-1.4-14.67-4z" class="a10-cls-7"/><path d="M17.7 123.33c.78-6.71 2.22-11.24 4.47-13.88-3.6 2.06-5.81 6.36-6.91 13.3-1.29 8.1-1.85 20.45 0 24.13a4.27 4.27 0 0 0 1.92 1.6c-.87-5.7-.4-17.21.52-25.15zM42.72 117.89c-.9-4.11-2.92-6.65-5.63-8.13 1.59 1.75 2.78 4.33 3.37 8 1.32 8.26 2.23 24.68 1.66 30.69a4.3 4.3 0 0 0 2.35-2.31c1.15-3.6-.01-20.26-1.75-28.25z" class="a10-cls-8"/><path d="M35.8 150.24c.06-5.12 0-13.85-.44-25.22-.41-9.79-1.32-14.44-2-16.58a20.34 20.34 0 0 0-2.89-.4c.25 2.38.67 7.91.81 19.19.11 9.2-.31 18.48-.59 23.58 1.47-.12 3.31-.29 5.11-.57z" class="a10-cls-9"/></g><g id="a10_maryland_bridge_pontic" class="a10-cls-15" data-name="maryland bridge pontic"><path d="M15.26 146.88c-1.85-3.68-1.29-16 0-24.13 1.6-10.07 5.52-14.58 12.64-14.76s13.07 1.91 14.82 9.9 2.91 24.65 1.74 28.3-10.31 4.34-14.53 4.69-13.36-1.4-14.67-4z" class="a10-cls-20" data-color-action="fill" style="fill:inherit"/><path d="M2 126.33h55V134H2z" class="a10-cls-20" transform="rotate(-180 29.5 130.16)" data-color-action="fill" style="fill:inherit"/></g><g id="a10_maryland_bridge_abutment_mesial" data-name="maryland bridge abutment mesial"><path d="M2 126.33h34.98V134H2z" class="a10-cls-15 a10-cls-20" transform="rotate(-180 19.49 130.16)" data-color-action="fill" style="fill:inherit"/><path d="M42.72 117.89a12.69 12.69 0 0 0-2.94-6c-.28-8-.87-16.88-1.56-25.94-1.71-22.43-4.36-44.23-6.68-44.09-1.87.11-6.92 21.63-10 44.27-1.29 9.41-2.23 18.53-2.66 26.42-1.71 2.39-2.88 5.76-3.59 10.24-1.29 8.1-1.85 20.45 0 24.13 1.31 2.6 10.46 4.34 14.67 4s13.37-1 14.53-4.69-.03-20.35-1.77-28.34z" class="a10-cls-3"/><path d="M18.6 119.77a286.69 286.69 0 0 1 2.9-33.68c3.1-22.64 8.15-44.16 10-44.27 2.32-.14 5 21.67 6.68 44.09C39.18 98.63 40 111.06 40 121c0 2.94-21.44 2.11-21.4-1.23z" class="a10-cls-4"/><path d="M30 118.57l5 .78s-.27-24-.48-42c-.35-28.77-2.26-32.54-2.65-33.2s.91 3.07.45 24.37C32 81.42 30 118.57 30 118.57z" class="a10-cls-5"/><path d="M22.87 85.1c1-9.75 2.31-19.3 3.58-27.26-1.73 7.92-3.54 18-5 28.25a286.69 286.69 0 0 0-2.91 33.68c0 .61.71 1.13 1.87 1.57.14-9.96 1.05-22.83 2.46-36.24zM38.21 85.92c-1.27-16.65-3.06-33-4.85-40.19 1.25 8.94 2.46 23.93 3.35 39.19.79 13.49 1.42 26.68 1.44 37.29 1.11-.29 1.79-.7 1.79-1.22.06-9.93-.76-22.36-1.73-35.07z" class="a10-cls-6"/><path d="M15.26 146.88c-1.85-3.68-1.29-16 0-24.13 1.6-10.07 5.52-14.58 12.64-14.76s13.07 1.91 14.82 9.9 2.91 24.65 1.74 28.3-10.31 4.34-14.53 4.69-13.36-1.4-14.67-4z" class="a10-cls-7"/><path d="M17.7 123.33c.78-6.71 2.22-11.24 4.47-13.88-3.6 2.06-5.81 6.36-6.91 13.3-1.29 8.1-1.85 20.45 0 24.13a4.27 4.27 0 0 0 1.92 1.6c-.87-5.7-.4-17.21.52-25.15zM42.72 117.89c-.9-4.11-2.92-6.65-5.63-8.13 1.59 1.75 2.78 4.33 3.37 8 1.32 8.26 2.23 24.68 1.66 30.69a4.3 4.3 0 0 0 2.35-2.31c1.15-3.6-.01-20.26-1.75-28.25z" class="a10-cls-8"/><path d="M35.8 150.24c.06-5.12 0-13.85-.44-25.22-.41-9.79-1.32-14.44-2-16.58a20.34 20.34 0 0 0-2.89-.4c.25 2.38.67 7.91.81 19.19.11 9.2-.31 18.48-.59 23.58 1.47-.12 3.31-.29 5.11-.57z" class="a10-cls-9"/></g><g id="a10_maryland_bridge_abutment_distal" data-name="maryland bridge abutment distal"><path d="M22.02 126.33H57V134H22.02z" class="a10-cls-15 a10-cls-20" transform="rotate(-180 39.51 130.16)" data-color-action="fill" style="fill:inherit"/><path d="M42.72 117.89a12.69 12.69 0 0 0-2.94-6c-.28-8-.87-16.88-1.56-25.94-1.71-22.43-4.36-44.23-6.68-44.09-1.87.11-6.92 21.63-10 44.27-1.29 9.41-2.23 18.53-2.66 26.42-1.71 2.39-2.88 5.76-3.59 10.24-1.29 8.1-1.85 20.45 0 24.13 1.31 2.6 10.46 4.34 14.67 4s13.37-1 14.53-4.69-.03-20.35-1.77-28.34z" class="a10-cls-3"/><path d="M18.6 119.77a286.69 286.69 0 0 1 2.9-33.68c3.1-22.64 8.15-44.16 10-44.27 2.32-.14 5 21.67 6.68 44.09C39.18 98.63 40 111.06 40 121c0 2.94-21.44 2.11-21.4-1.23z" class="a10-cls-4"/><path d="M30 118.57l5 .78s-.27-24-.48-42c-.35-28.77-2.26-32.54-2.65-33.2s.91 3.07.45 24.37C32 81.42 30 118.57 30 118.57z" class="a10-cls-5"/><path d="M22.87 85.1c1-9.75 2.31-19.3 3.58-27.26-1.73 7.92-3.54 18-5 28.25a286.69 286.69 0 0 0-2.91 33.68c0 .61.71 1.13 1.87 1.57.14-9.96 1.05-22.83 2.46-36.24zM38.21 85.92c-1.27-16.65-3.06-33-4.85-40.19 1.25 8.94 2.46 23.93 3.35 39.19.79 13.49 1.42 26.68 1.44 37.29 1.11-.29 1.79-.7 1.79-1.22.06-9.93-.76-22.36-1.73-35.07z" class="a10-cls-6"/><path d="M15.26 146.88c-1.85-3.68-1.29-16 0-24.13 1.6-10.07 5.52-14.58 12.64-14.76s13.07 1.91 14.82 9.9 2.91 24.65 1.74 28.3-10.31 4.34-14.53 4.69-13.36-1.4-14.67-4z" class="a10-cls-7"/><path d="M17.7 123.33c.78-6.71 2.22-11.24 4.47-13.88-3.6 2.06-5.81 6.36-6.91 13.3-1.29 8.1-1.85 20.45 0 24.13a4.27 4.27 0 0 0 1.92 1.6c-.87-5.7-.4-17.21.52-25.15zM42.72 117.89c-.9-4.11-2.92-6.65-5.63-8.13 1.59 1.75 2.78 4.33 3.37 8 1.32 8.26 2.23 24.68 1.66 30.69a4.3 4.3 0 0 0 2.35-2.31c1.15-3.6-.01-20.26-1.75-28.25z" class="a10-cls-8"/><path d="M35.8 150.24c.06-5.12 0-13.85-.44-25.22-.41-9.79-1.32-14.44-2-16.58a20.34 20.34 0 0 0-2.89-.4c.25 2.38.67 7.91.81 19.19.11 9.2-.31 18.48-.59 23.58 1.47-.12 3.31-.29 5.11-.57z" class="a10-cls-9"/></g><g id="a10_maryland_bridge_abutment" data-name="maryland bridge abutment"><path d="M2 126.33h55V134H2z" class="a10-cls-15 a10-cls-20" transform="rotate(-180 29.5 130.16)" data-color-action="fill" style="fill:inherit"/><path d="M42.72 117.89a12.69 12.69 0 0 0-2.94-6c-.28-8-.87-16.88-1.56-25.94-1.71-22.43-4.36-44.23-6.68-44.09-1.87.11-6.92 21.63-10 44.27-1.29 9.41-2.23 18.53-2.66 26.42-1.71 2.39-2.88 5.76-3.59 10.24-1.29 8.1-1.85 20.45 0 24.13 1.31 2.6 10.46 4.34 14.67 4s13.37-1 14.53-4.69-.03-20.35-1.77-28.34z" class="a10-cls-3"/><path d="M18.6 119.77a286.69 286.69 0 0 1 2.9-33.68c3.1-22.64 8.15-44.16 10-44.27 2.32-.14 5 21.67 6.68 44.09C39.18 98.63 40 111.06 40 121c0 2.94-21.44 2.11-21.4-1.23z" class="a10-cls-4"/><path d="M30 118.57l5 .78s-.27-24-.48-42c-.35-28.77-2.26-32.54-2.65-33.2s.91 3.07.45 24.37C32 81.42 30 118.57 30 118.57z" class="a10-cls-5"/><path d="M22.87 85.1c1-9.75 2.31-19.3 3.58-27.26-1.73 7.92-3.54 18-5 28.25a286.69 286.69 0 0 0-2.91 33.68c0 .61.71 1.13 1.87 1.57.14-9.96 1.05-22.83 2.46-36.24zM38.21 85.92c-1.27-16.65-3.06-33-4.85-40.19 1.25 8.94 2.46 23.93 3.35 39.19.79 13.49 1.42 26.68 1.44 37.29 1.11-.29 1.79-.7 1.79-1.22.06-9.93-.76-22.36-1.73-35.07z" class="a10-cls-6"/><path d="M15.26 146.88c-1.85-3.68-1.29-16 0-24.13 1.6-10.07 5.52-14.58 12.64-14.76s13.07 1.91 14.82 9.9 2.91 24.65 1.74 28.3-10.31 4.34-14.53 4.69-13.36-1.4-14.67-4z" class="a10-cls-7"/><path d="M17.7 123.33c.78-6.71 2.22-11.24 4.47-13.88-3.6 2.06-5.81 6.36-6.91 13.3-1.29 8.1-1.85 20.45 0 24.13a4.27 4.27 0 0 0 1.92 1.6c-.87-5.7-.4-17.21.52-25.15zM42.72 117.89c-.9-4.11-2.92-6.65-5.63-8.13 1.59 1.75 2.78 4.33 3.37 8 1.32 8.26 2.23 24.68 1.66 30.69a4.3 4.3 0 0 0 2.35-2.31c1.15-3.6-.01-20.26-1.75-28.25z" class="a10-cls-8"/><path d="M35.8 150.24c.06-5.12 0-13.85-.44-25.22-.41-9.79-1.32-14.44-2-16.58a20.34 20.34 0 0 0-2.89-.4c.25 2.38.67 7.91.81 19.19.11 9.2-.31 18.48-.59 23.58 1.47-.12 3.31-.29 5.11-.57z" class="a10-cls-9"/></g><g id="a10_bridge_abutment_mesial" class="a10-cls-15" data-name="bridge abutment mesial"><path d="M2 127.33h34.98V135H2z" class="a10-cls-18" transform="rotate(-180 19.49 131.165)" data-color-action="fill" style="fill:inherit"/><path d="M15.26 146.88c-1.85-3.68-1.29-16 0-24.13 1.6-10.07 5.52-14.58 12.64-14.76s13.07 1.91 14.82 9.9 2.91 24.65 1.74 28.3-10.31 4.34-14.53 4.69-13.36-1.4-14.67-4z" class="a10-cls-18" data-color-action="fill" style="fill:inherit"/></g><g id="a10_bridge_abutment_distal" class="a10-cls-15" data-name="bridge abutment distal"><path d="M22.02 127.33H57V135H22.02z" class="a10-cls-18" transform="rotate(-180 39.51 131.165)" data-color-action="fill" style="fill:inherit"/><path d="M15.26 146.88c-1.85-3.68-1.29-16 0-24.13 1.6-10.07 5.52-14.58 12.64-14.76s13.07 1.91 14.82 9.9 2.91 24.65 1.74 28.3-10.31 4.34-14.53 4.69-13.36-1.4-14.67-4z" class="a10-cls-18" data-color-action="fill" style="fill:inherit"/></g><g id="a10_bridge_abutment" class="a10-cls-15" data-name="bridge abutment"><path d="M2 127.33h55V135H2z" class="a10-cls-18" transform="rotate(-180 29.5 131.165)" data-color-action="fill" style="fill:inherit"/><path d="M15.26 146.88c-1.85-3.68-1.29-16 0-24.13 1.6-10.07 5.52-14.58 12.64-14.76s13.07 1.91 14.82 9.9 2.91 24.65 1.74 28.3-10.31 4.34-14.53 4.69-13.36-1.4-14.67-4z" class="a10-cls-18" data-color-action="fill" style="fill:inherit"/></g><g id="a10_bridge_pontic" data-name="bridge pontic"><path d="M42.72 117.89a12.69 12.69 0 0 0-2.94-6c-.28-8-.87-16.88-1.56-25.94-1.71-22.43-4.36-44.23-6.68-44.09-1.87.11-6.92 21.63-10 44.27-1.29 9.41-2.23 18.53-2.66 26.42-1.71 2.39-2.88 5.76-3.59 10.24-1.29 8.1-1.85 20.45 0 24.13 1.31 2.6 10.46 4.34 14.67 4s13.37-1 14.53-4.69-.03-20.35-1.77-28.34z" class="a10-cls-3"/><path d="M18.6 119.77a286.69 286.69 0 0 1 2.9-33.68c3.1-22.64 8.15-44.16 10-44.27 2.32-.14 5 21.67 6.68 44.09C39.18 98.63 40 111.06 40 121c0 2.94-21.44 2.11-21.4-1.23z" class="a10-cls-22"/><path d="M30 118.57l5 .78s-.27-24-.48-42c-.35-28.77-2.26-32.54-2.65-33.2s.91 3.07.45 24.37C32 81.42 30 118.57 30 118.57zM22.87 85.1c1-9.75 2.31-19.3 3.58-27.26-1.73 7.92-3.54 18-5 28.25a286.69 286.69 0 0 0-2.91 33.68c0 .61.71 1.13 1.87 1.57.14-9.96 1.05-22.83 2.46-36.24zM38.21 85.92c-1.27-16.65-3.06-33-4.85-40.19 1.25 8.94 2.46 23.93 3.35 39.19.79 13.49 1.42 26.68 1.44 37.29 1.11-.29 1.79-.7 1.79-1.22.06-9.93-.76-22.36-1.73-35.07z" class="a10-cls-22"/><path d="M15.26 146.88c-1.85-3.68-1.29-16 0-24.13 1.6-10.07 5.52-14.58 12.64-14.76s13.07 1.91 14.82 9.9 2.91 24.65 1.74 28.3-10.31 4.34-14.53 4.69-13.36-1.4-14.67-4z" class="a10-cls-7"/><path d="M17.7 123.33c.78-6.71 2.22-11.24 4.47-13.88-3.6 2.06-5.81 6.36-6.91 13.3-1.29 8.1-1.85 20.45 0 24.13a4.27 4.27 0 0 0 1.92 1.6c-.87-5.7-.4-17.21.52-25.15zM42.72 117.89c-.9-4.11-2.92-6.65-5.63-8.13 1.59 1.75 2.78 4.33 3.37 8 1.32 8.26 2.23 24.68 1.66 30.69a4.3 4.3 0 0 0 2.35-2.31c1.15-3.6-.01-20.26-1.75-28.25z" class="a10-cls-8"/><path d="M35.8 150.24c.06-5.12 0-13.85-.44-25.22-.41-9.79-1.32-14.44-2-16.58a20.34 20.34 0 0 0-2.89-.4c.25 2.38.67 7.91.81 19.19.11 9.2-.31 18.48-.59 23.58 1.47-.12 3.31-.29 5.11-.57z" class="a10-cls-9"/><g class="a10-cls-15"><path d="M2 127.33h55V135H2z" class="a10-cls-18" transform="rotate(-180 29.5 131.165)" data-color-action="fill" style="fill:inherit"/><path d="M15.26 146.88c-1.85-3.68-1.29-16 0-24.13 1.6-10.07 5.52-14.58 12.64-14.76s13.07 1.91 14.82 9.9 2.91 24.65 1.74 28.3-10.31 4.34-14.53 4.69-13.36-1.4-14.67-4z" class="a10-cls-18" data-color-action="fill" style="fill:inherit"/></g></g><g id="a10_implant_mini" data-name="implant mini"><path d="M1.61 22.04h55v137.17h-55z" class="a10-cls-22" transform="rotate(-180 29.115 90.625)"/><path d="M29.28 83.07h.44l1 8.49v40.84h-2.44V91.56l1-8.49z" class="a10-cls-18" data-color-action="fill" style="fill:inherit"/><path d="M29.58 83.07h.07l.4 8.49v40.84h-.37V91.56l-.1-8.49z" class="a10-cls-24"/><path d="M28.28 131.77h2.44v.63h-2.44z" class="a10-cls-27" transform="rotate(-180 29.5 132.085)" data-color-action="fill" style="fill:inherit"/><g class="a10-cls-28"><path d="M30.72 131.77l-2.44-1v.63l2.44 1v-.63zM30.72 130.32l-2.44-1v.63l2.44 1v-.63zM30.72 128.88l-2.44-1v.63l2.44 1v-.63zM30.72 127.43l-2.44-1v.63l2.44 1v-.63zM30.72 125.98l-2.44-1v.64l2.44 1v-.64zM30.72 124.54l-2.44-1v.63l2.44 1v-.63zM30.72 123.09l-2.44-1v.64l2.44 1v-.64zM30.72 121.65l-2.44-1v.63l2.44 1v-.63zM30.72 120.2l-2.44-1v.63l2.44 1.01v-.64zM30.72 118.76l-2.44-1v.63l2.44 1v-.63zM30.72 117.31l-2.44-1v.63l2.44 1v-.63zM30.72 115.87l-2.44-1v.63l2.44 1v-.63zM30.72 114.42l-2.44-1v.63l2.44 1v-.63zM30.72 112.98l-2.44-1v.63l2.44 1v-.63zM30.72 111.53l-2.44-1v.63l2.44 1v-.63zM30.72 110.08l-2.44-1v.64l2.44 1v-.64zM30.72 108.64l-2.44-1v.63l2.44 1v-.63zM30.72 107.19l-2.44-1v.64l2.44 1v-.64zM30.72 105.75l-2.44-1v.63l2.44 1v-.63zM30.72 104.3l-2.44-1v.64l2.44 1v-.64zM30.72 102.86l-2.44-1v.63l2.44 1v-.63zM30.72 101.41l-2.44-1v.63l2.44 1.01v-.64zM30.72 99.97l-2.44-1v.63l2.44 1v-.63zM30.72 98.52l-2.44-1v.63l2.44 1v-.63zM30.72 97.08l-2.44-1v.63l2.44 1v-.63zM30.72 95.63l-2.44-1v.63l2.44 1v-.63zM30.72 94.19l-2.44-1v.63l2.44 1v-.63zM30.72 92.74l-2.44-1v.63l2.44 1v-.63zM30.72 91.56l-.03-.28-2.27-.93-.07.61 2.37.97v-.37zM30.51 89.76l-1.93-.79-.07.61 2.08.85-.08-.67zM30.33 88.24l-1.58-.65-.08.61 1.74.71-.08-.67zM30.15 86.72l-1.24-.5-.07.6 1.39.57-.08-.67zM29.97 85.21l-.9-.37-.07.6 1.05.43-.08-.66zM29.8 83.69l-.57-.23-.07.6.71.29-.07-.66z" class="a10-cls-27" data-color-action="fill" style="fill:inherit"/></g><circle cx="29.5" cy="136.27" r="2.24" class="a10-cls-18" data-color-action="fill" style="fill:inherit"/><path d="M27.67 132.06h3.67v3h-3.67z" class="a10-cls-18" transform="rotate(-180 29.5 133.555)" data-color-action="fill" style="fill:inherit"/><path d="M29.96 132.06h.55v3h-.55z" class="a10-cls-24"/><path d="M30.3 137.63h.21a2.32 2.32 0 0 0 .52-1.29 2.37 2.37 0 0 0-.52-1.3H30a2 2 0 0 1 .73 1.37 1.5 1.5 0 0 1-.43 1.22z" class="a10-cls-24"/><path d="M28.28 125.7h2.44v.63h-2.44z" class="a10-cls-27" transform="rotate(-180 29.5 126.015)" data-color-action="fill" style="fill:inherit"/><path d="M26.89 132.08h5.22l-.87-5.71h-3.48l-.87 5.71z" class="a10-cls-18" data-color-action="fill" style="fill:inherit"/><path d="M30.15 132.08h.79l-.48-5.71h-.53l.22 5.71z" class="a10-cls-24"/></g><g id="a10_implant_cylinder" data-name="implant cylinder"><path d="M2 22h55v137.17H2z" class="a10-cls-22" transform="rotate(-180 29.5 90.585)"/><path d="M26.17 86.01h6.67v49.33h-6.67z" class="a10-cls-18" transform="rotate(-180 29.5 110.68)" data-color-action="fill" style="fill:inherit"/><path d="M24.5 135.35h10v3h-10z" class="a10-cls-18" transform="rotate(-180 29.5 136.845)" data-color-action="fill" style="fill:inherit"/><path d="M30 86.01h1v49.33h-1z" class="a10-cls-24" transform="rotate(-180 30.5 110.68)"/><path d="M30.75 135.35h1.5v3h-1.5z" class="a10-cls-24" transform="rotate(-180 31.5 136.845)"/><path d="M24.5 82.99h10v3h-10z" class="a10-cls-18" transform="rotate(-180 29.5 84.485)" data-color-action="fill" style="fill:inherit"/><path d="M30.75 82.99h1.5v3h-1.5z" class="a10-cls-24" transform="rotate(-180 31.5 84.485)"/><path d="M26.17 134.71h6.67v.63h-6.67z" class="a10-cls-27" transform="rotate(-180 29.5 135.03)" data-color-action="fill" style="fill:inherit"/><path d="M26.17 86.01h6.67v.63h-6.67z" class="a10-cls-27" transform="rotate(-180 29.5 86.33)" data-color-action="fill" style="fill:inherit"/><g class="a10-cls-28"><path d="M26.17 87.65l6.66-1.01v-.63l-6.66 1v.64zM26.17 89.09l6.66-1v-.63l-6.66 1v.63zM26.17 90.54l6.66-1v-.64l-6.66 1.01v.63zM26.17 91.98l6.66-1v-.63l-6.66 1v.63zM26.17 93.43l6.66-1v-.63l-6.66 1v.63zM26.17 94.87l6.66-1v-.63l-6.66 1v.63zM26.17 96.32l6.66-1v-.63l-6.66 1v.63zM26.17 97.76l6.66-1v-.63l-6.66 1v.63zM26.17 99.21l6.66-1v-.63l-6.66 1v.63zM26.17 100.66l6.66-1.01v-.63l-6.66 1v.64zM26.17 102.1l6.66-1v-.63l-6.66 1v.63zM26.17 103.55l6.66-1v-.64l-6.66 1v.64zM26.17 104.99l6.66-1v-.63l-6.66 1v.63zM26.17 106.44l6.66-1v-.64l-6.66 1.01v.63zM26.17 107.88l6.66-1v-.63l-6.66 1v.63zM26.17 109.33l6.66-1v-.64l-6.66 1v.64zM26.17 110.77l6.66-1v-.63l-6.66 1v.63zM26.17 112.22l6.66-1v-.63l-6.66 1v.63zM26.17 113.66l6.66-1v-.63l-6.66 1v.63zM26.17 115.11l6.66-1v-.63l-6.66 1v.63zM26.17 116.56l6.66-1.01v-.63l-6.66 1v.64zM26.17 118l6.66-1v-.63l-6.66 1v.63zM26.17 119.45l6.66-1.01v-.63l-6.66 1v.64zM26.17 120.89l6.66-1v-.63l-6.66 1v.63zM26.17 122.34l6.66-1v-.64l-6.66 1v.64zM26.17 123.78l6.66-1v-.63l-6.66 1v.63zM26.17 125.23l6.66-1v-.64l-6.66 1v.64zM26.17 126.67l6.66-1v-.63l-6.66 1v.63zM26.17 128.12l6.66-1v-.63l-6.66 1v.63zM26.17 129.56l6.66-1v-.63l-6.66 1v.63zM26.17 131.01l6.66-1v-.63l-6.66 1v.63zM26.17 132.46l6.66-1.01v-.63l-6.66 1v.64zM26.17 133.9l6.66-1v-.63l-6.66 1v.63zM26.17 135.35l6.66-1.01v-.63l-6.66 1v.64z" class="a10-cls-27" data-color-action="fill" style="fill:inherit"/></g></g><g id="a10_implant_blade" data-name="implant blade"><path d="M2 22h55v137.17H2z" class="a10-cls-22" transform="rotate(-180 29.5 90.585)"/><path d="M26.17 86.01h6.67v49.33h-6.67z" class="a10-cls-18" transform="rotate(-180 29.5 110.68)" data-color-action="fill" style="fill:inherit"/><path d="M24.5 135.35h10v3h-10z" class="a10-cls-18" transform="rotate(-180 29.5 136.845)" data-color-action="fill" style="fill:inherit"/><path d="M30 86.01h1v49.33h-1z" class="a10-cls-24" transform="rotate(-180 30.5 110.68)"/><path d="M30.75 135.35h1.5v3h-1.5z" class="a10-cls-24" transform="rotate(-180 31.5 136.845)"/><path d="M26.17 134.71h6.67v.63h-6.67z" class="a10-cls-27" transform="rotate(-180 29.5 135.03)" data-color-action="fill" style="fill:inherit"/></g><path id="a10_watch_tooth" d="M8.27 27.73a3.26 3.26 0 0 1 3.22-3.26 3.24 3.24 0 1 1 0 6.47 3.25 3.25 0 0 1-3.22-3.21zm1-5.91L8.39 3.73h6.15l-.8 18.09z" class="a10-cls-11" data-color-action="fill" style="fill:inherit" data-name="watch tooth"/><path id="a10_border" d="M0 0h59v161H0z" class="a10-cls-14"/></defs></g><g class="c10-cls-1" transform="translate(0 217)"><g id="_10C" data-name="#10C"><path d="M15.26 14.85c-1.85 3.68-1.29 16 0 24.13 1.6 10.07 5.52 14.58 12.64 14.76s13.1-1.91 14.81-9.9 2.91-24.65 1.74-28.3-10.31-4.34-14.53-4.69-13.35 1.4-14.66 4z" class="c10-cls-2"/><path d="M15.26 14.85c-1.85 3.68-1.29 16 0 24.13 1.6 10.07 5.52 14.58 12.64 14.76s13.1-1.91 14.81-9.9 2.91-24.65 1.74-28.3-10.31-4.34-14.53-4.69-13.35 1.4-14.66 4z" class="c10-cls-3"/><path d="M22.4 13.58c4.75-1 8.52-1 14.41.49a35.14 35.14 0 0 1 7.93 3 8.56 8.56 0 0 0-.29-1.54c-1.16-3.65-10.31-4.34-14.53-4.69s-13.37 1.39-14.67 4a7.18 7.18 0 0 0-.47 1.33 37.59 37.59 0 0 1 7.62-2.59z" class="c10-cls-4"/><path d="M19.62 45s.53 3.54 3.44 4.91a14.1 14.1 0 0 0 9.17 1.15c2.78-.66 6.39-3.28 6.55-4.75s-1 .66-3.6 1.64-6.72.82-8.19-.33-.82.82-2.29.66-4.1-4.07-5.08-3.28z" class="c10-cls-5"/></g><defs><g id="c10_splinted_crowns" data-name="splinted crowns"><path d="M2 51.09h55v7.67H2z" class="c10-cls-12" transform="rotate(-180 29.5 54.925)" data-color-action="fill" style="fill:inherit"/><path d="M15.26 14.85c-1.85 3.68-1.29 16 0 24.13 1.6 10.07 5.52 14.58 12.64 14.76s13.1-1.91 14.81-9.9 2.91-24.65 1.74-28.3-10.31-4.34-14.53-4.69-13.35 1.4-14.66 4z" class="c10-cls-2"/><path d="M15.26 14.85c-1.85 3.68-1.29 16 0 24.13 1.6 10.07 5.52 14.58 12.64 14.76s13.1-1.91 14.81-9.9 2.91-24.65 1.74-28.3-10.31-4.34-14.53-4.69-13.35 1.4-14.66 4z" class="c10-cls-3"/><path d="M22.4 13.58c4.75-1 8.52-1 14.41.49a35.14 35.14 0 0 1 7.93 3 8.56 8.56 0 0 0-.29-1.54c-1.16-3.65-10.31-4.34-14.53-4.69s-13.37 1.39-14.67 4a7.18 7.18 0 0 0-.47 1.33 37.59 37.59 0 0 1 7.62-2.59z" class="c10-cls-4"/><path d="M19.62 45s.53 3.54 3.44 4.91a14.1 14.1 0 0 0 9.17 1.15c2.78-.66 6.39-3.28 6.55-4.75s-1 .66-3.6 1.64-6.72.82-8.19-.33-.82.82-2.29.66-4.1-4.07-5.08-3.28z" class="c10-cls-5"/></g><path id="c10_lingual_V" d="M38.85 50.78a14.58 14.58 0 0 0-18.32.32 11 11 0 0 0 7.37 2.64c4.3.1 8.18-.62 10.95-2.96z" class="c10-cls-6" data-color-action="fill" style="fill:inherit" data-name="lingual V"/><ellipse id="c10_mid_lingual" cx="30.08" cy="34.8" class="c10-cls-6" rx="4.61" ry="9.46" data-color-action="fill" style="fill:inherit" data-name="mid lingual"/><path id="c10_mesial" d="M20.48 23.27l-6.27-3.17a81.79 81.79 0 0 0 .31 12.83c1.91-.16 4.63-.82 5.09-3.18s.19-4.75.87-6.48z" class="c10-cls-6" data-color-action="fill" style="fill:inherit"/><path id="c10_line_angle_4" d="M25.49 20.45l-2.68-9c-3.49.69-6.8 1.89-7.55 3.38a15.28 15.28 0 0 0-1 5.25l6.27 3.17a3.63 3.63 0 0 1 2.11-2.08 12.74 12.74 0 0 1 2.85-.72z" class="c10-cls-6" data-color-action="fill" style="fill:inherit" data-name="line angle 4"/><path id="c10_lingual" d="M36.66 11.62c-2.48-.42-5-.62-6.73-.76a27.87 27.87 0 0 0-7.12.61l2.68 9a37.31 37.31 0 0 1 8.78-.19z" class="c10-cls-6" data-color-action="fill" style="fill:inherit"/><path id="c10_line_angle_3" d="M44.89 19.08a15.21 15.21 0 0 0-.43-3.54c-.69-2.16-4.18-3.28-7.79-3.92l-2.39 8.64c.56.06 1 .13 1.46.21A3.64 3.64 0 0 1 38.21 23z" class="c10-cls-6" data-color-action="fill" style="fill:inherit" data-name="line angle 3"/><path id="c10_distal" d="M44.89 19.08L38.21 23a24.07 24.07 0 0 1 1.22 5.8c.34 2.47 2.78 3.61 4.86 4.13a114.29 114.29 0 0 0 .6-13.85z" class="c10-cls-6" data-color-action="fill" style="fill:inherit"/><g id="c10_veneer"><path d="M28 1.25h3v3h-3z" class="c10-cls-7" transform="rotate(-180 29.5 2.75)"/><path d="M28 1.25h3v3h-3z" class="c10-cls-7" transform="rotate(-180 29.5 2.75)"/><path d="M28 1.25h3v3h-3z" class="c10-cls-7" transform="rotate(-180 29.5 2.75)"/></g><g id="c10_tissue_graft" data-name="tissue graft"><path d="M28 1.25h3v3h-3z" class="c10-cls-7" transform="rotate(-180 29.5 2.75)"/><path d="M28 1.25h3v3h-3z" class="c10-cls-7" transform="rotate(-180 29.5 2.75)"/><path d="M28 1.25h3v3h-3z" class="c10-cls-7" transform="rotate(-180 29.5 2.75)"/></g><g id="c10_tipped_lingual" class="c10-cls-8" data-name="tipped lingual"><path d="M28.65 5.93c1.26-3.37 4.74-3.85 7.69 5.32.5 1.56 4.42 1.76 3.84 0C38.16 5.15 34.86 1 31.11 2a4.86 4.86 0 0 0-3 3.38c.2.15.43.41.54.55z" class="c10-cls-9" data-color-action="fill" style="fill:inherit"/><path d="M30.73 8.85h12.94l-2.94 9.64-10-9.64z" class="c10-cls-9" data-color-action="fill" style="fill:inherit"/></g><g id="c10_tipped_facial" data-name="tipped facial"><path d="M28 1.25h3v3h-3z" class="c10-cls-7" transform="rotate(-180 29.5 2.75)"/><path d="M28 1.25h3v3h-3z" class="c10-cls-7" transform="rotate(-180 29.5 2.75)"/><path d="M28 1.25h3v3h-3z" class="c10-cls-7" transform="rotate(-180 29.5 2.75)"/></g><path id="c10_surface_restoration_distal" d="M37 44.84a11.53 11.53 0 0 1 6.49-5.43c1.26-8.57 1.92-20.77.95-23.82a2.82 2.82 0 0 0-.43-.8l-6.11 4.44c.1 3.45-.19 16-.9 25.61z" class="c10-cls-10" data-color-action="fill" style="fill:inherit" data-name="surface restoration distal"/><path id="c10_surface_restoration_lingual" d="M29.47 49a14.59 14.59 0 0 1 6.16 1.37A11.45 11.45 0 0 1 37 44.84c.7-9.72 1-22.44.88-25.74a45.27 45.27 0 0 0-8.34-1.21h-.82a26.6 26.6 0 0 0-7.42 1.26c-.3 2.65-.3 16.2.28 25.38a11.43 11.43 0 0 1 1.58 5.79v.1A14.58 14.58 0 0 1 29.47 49z" class="c10-cls-8 c10-cls-11" data-color-action="fill" style="fill:inherit" data-name="surface restoration lingual"/><path id="c10_surface_restoration_lingual_V" d="M23.15 50.42a11.55 11.55 0 0 1-.24 2.26 12.3 12.3 0 0 0 5 1.1 20 20 0 0 0 8-1.19 11.55 11.55 0 0 1-.23-2.25 14.53 14.53 0 0 0-12.48.07z" class="c10-cls-8 c10-cls-11" data-color-action="fill" style="fill:inherit" data-name="surface restoration lingual V"/><path id="c10_surface_restoration_mesial" d="M15.26 14.9c-1.85 3.68-1.29 16 0 24.13 0 .14 0 .27.07.41a11.52 11.52 0 0 1 6.25 5.1C21 35.35 21 21.8 21.33 19.12h.07l-5.89-4.55a2.17 2.17 0 0 0-.25.33z" class="c10-cls-10" data-color-action="fill" style="fill:inherit" data-name="surface restoration mesial"/><path id="c10_surface_restoration_incisal" d="M29.93 10.9c-4-.33-12.51 1.23-14.42 3.64l5.89 4.55a26.61 26.61 0 0 1 7.35-1.23h.82a45.27 45.27 0 0 1 8.33 1.24v.12l6.1-4.43c-2.12-2.94-10.19-3.57-14.07-3.89z" class="c10-cls-10" data-color-action="fill" style="fill:inherit" data-name="surface restoration incisal"/><g id="c10_supra-erupted"><path d="M28 1.25h3v3h-3z" class="c10-cls-7" transform="rotate(-180 29.5 2.75)"/><path d="M28 1.25h3v3h-3z" class="c10-cls-7" transform="rotate(-180 29.5 2.75)"/><path d="M28 1.25h3v3h-3z" class="c10-cls-7" transform="rotate(-180 29.5 2.75)"/></g><g id="c10_sub-erupted"><path d="M28 1.25h3v3h-3z" class="c10-cls-7" transform="rotate(-180 29.5 2.75)"/><path d="M28 1.25h3v3h-3z" class="c10-cls-7" transform="rotate(-180 29.5 2.75)"/><path d="M28 1.25h3v3h-3z" class="c10-cls-7" transform="rotate(-180 29.5 2.75)"/></g><g id="c10_sealant"><path d="M28 1.25h3v3h-3z" class="c10-cls-7" transform="rotate(-180 29.5 2.75)"/><path d="M28 1.25h3v3h-3z" class="c10-cls-7" transform="rotate(-180 29.5 2.75)"/><path d="M28 1.25h3v3h-3z" class="c10-cls-7" transform="rotate(-180 29.5 2.75)"/></g><g id="c10_root_decay" data-name="root decay"><path d="M28 1.25h3v3h-3z" class="c10-cls-7" transform="rotate(-180 29.5 2.75)"/><path d="M28 1.25h3v3h-3z" class="c10-cls-7" transform="rotate(-180 29.5 2.75)"/><path d="M28 1.25h3v3h-3z" class="c10-cls-7" transform="rotate(-180 29.5 2.75)"/></g><g id="c10_root_canal" data-name="root canal"><path d="M28 1.25h3v3h-3z" class="c10-cls-7" transform="rotate(-180 29.5 2.75)"/><path d="M28 1.25h3v3h-3z" class="c10-cls-7" transform="rotate(-180 29.5 2.75)"/><path d="M28 1.25h3v3h-3z" class="c10-cls-7" transform="rotate(-180 29.5 2.75)"/></g><g id="c10_root_abrasion" data-name="root abrasion"><path d="M28 1.25h3v3h-3z" class="c10-cls-7" transform="rotate(-180 29.5 2.75)"/><path d="M28 1.25h3v3h-3z" class="c10-cls-7" transform="rotate(-180 29.5 2.75)"/><path d="M28 1.25h3v3h-3z" class="c10-cls-7" transform="rotate(-180 29.5 2.75)"/></g><g id="c10_open_contact_mesial" data-name="open contact mesial"><path d="M28 1.25h3v3h-3z" class="c10-cls-7" transform="rotate(-180 29.5 2.75)"/><path d="M28 1.25h3v3h-3z" class="c10-cls-7" transform="rotate(-180 29.5 2.75)"/><path d="M28 1.25h3v3h-3z" class="c10-cls-7" transform="rotate(-180 29.5 2.75)"/></g><g id="c10_open_contact_distal" data-name="open contact distal"><path d="M28 1.25h3v3h-3z" class="c10-cls-7" transform="rotate(-180 29.5 2.75)"/><path d="M28 1.25h3v3h-3z" class="c10-cls-7" transform="rotate(-180 29.5 2.75)"/><path d="M28 1.25h3v3h-3z" class="c10-cls-7" transform="rotate(-180 29.5 2.75)"/></g><path id="c10_lingual_abfraction" d="M17.8 54.84S23 59 29.5 59s11.7-4.12 11.7-4.12-5.2-4.16-11.7-4.16-11.7 4.12-11.7 4.12z" class="c10-cls-15" data-color-action="fill" style="fill:inherit" data-name="lingual abfraction"/><g id="c10_internal_root_resorption" data-name="internal root resorption"><path d="M28 1.25h3v3h-3z" class="c10-cls-7" transform="rotate(-180 29.5 2.75)"/><path d="M28 1.25h3v3h-3z" class="c10-cls-7" transform="rotate(-180 29.5 2.75)"/><path d="M28 1.25h3v3h-3z" class="c10-cls-7" transform="rotate(-180 29.5 2.75)"/></g><g id="c10_gortex_membranes" data-name="gortex membranes"><path d="M28 1.25h3v3h-3z" class="c10-cls-7" transform="rotate(-180 29.5 2.75)"/><path d="M28 1.25h3v3h-3z" class="c10-cls-7" transform="rotate(-180 29.5 2.75)"/><path d="M28 1.25h3v3h-3z" class="c10-cls-7" transform="rotate(-180 29.5 2.75)"/></g><g id="c10_frenum_pull" data-name="frenum pull"><path d="M28 1.25h3v3h-3z" class="c10-cls-7" transform="rotate(-180 29.5 2.75)"/><path d="M28 1.25h3v3h-3z" class="c10-cls-7" transform="rotate(-180 29.5 2.75)"/><path d="M28 1.25h3v3h-3z" class="c10-cls-7" transform="rotate(-180 29.5 2.75)"/></g><g id="c10_external_root_resorption" data-name="external root resorption"><path d="M28 1.25h3v3h-3z" class="c10-cls-7" transform="rotate(-180 29.5 2.75)"/><path d="M28 1.25h3v3h-3z" class="c10-cls-7" transform="rotate(-180 29.5 2.75)"/><path d="M28 1.25h3v3h-3z" class="c10-cls-7" transform="rotate(-180 29.5 2.75)"/></g><path id="c10_three_quarter_crown" d="M14.38 31.36c-.53-6.79-.45-13.87.88-16.51s10.46-4.34 14.67-4 13.37 1 14.53 4.69c.69 2.17.56 9 0 15.81z" class="c10-cls-8 c10-cls-19" data-color-action="fill" style="fill:inherit" data-name="three quarter crown"/><path id="c10_crown" d="M15.26 14.85c-1.85 3.68-1.29 16 0 24.13 1.6 10.07 5.52 14.58 12.64 14.76s13.1-1.91 14.81-9.9 2.91-24.65 1.74-28.3-10.31-4.34-14.53-4.69-13.35 1.4-14.66 4z" class="c10-cls-8 c10-cls-19" data-color-action="fill" style="fill:inherit"/><path id="c10_cracked_surface_distal" d="M41.34 22.57l3.83 3.83h-5.01l5.01 4.75h-5.01l3.83 3.83" class="c10-cls-20" data-color-action="stroke" style="stroke:inherit" data-name="cracked surface distal"/><path id="c10_cracked_surface_lingual" d="M28.17 22.57l3.84 3.83H27l5 4.75h-5l3.83 3.83" class="c10-cls-20" data-color-action="stroke" style="stroke:inherit" data-name="cracked surface lingual"/><path id="c10_cracked_surface_lingual_V" d="M28.17 22.57l3.84 3.83H27l5 4.75h-5l3.83 3.83" class="c10-cls-20" data-color-action="stroke" style="stroke:inherit" data-name="cracked surface lingual V"/><path id="c10_cracked_surface_mesial" d="M13.34 22.57l3.83 3.83h-5l5 4.75h-5L16 34.98" class="c10-cls-20" data-color-action="stroke" style="stroke:inherit" data-name="cracked surface mesial"/><g id="c10_chipped_surface_distal" class="c10-cls-8" data-name="chipped surface distal"><path d="M37.83 24.24l8.33 8.33M46.16 24.24l-8.33 8.33" class="c10-cls-21" data-color-action="stroke" style="stroke:inherit"/></g><g id="c10_chipped_surface_lingual" class="c10-cls-8" data-name="chipped surface lingual"><path d="M25.67 24.24L34 32.57M34 24.24l-8.33 8.33" class="c10-cls-21" data-color-action="stroke" style="stroke:inherit"/></g><g id="c10_chipped_surface_lingual_V" class="c10-cls-8" data-name="chipped surface lingual V"><path d="M25.67 24.24L34 32.57M34 24.24l-8.33 8.33" class="c10-cls-21" data-color-action="stroke" style="stroke:inherit"/></g><g id="c10_chipped_surface_mesial" class="c10-cls-8" data-name="chipped surface mesial"><path d="M11.67 24.24L20 32.57M20 24.24l-8.33 8.33" class="c10-cls-21" data-color-action="stroke" style="stroke:inherit"/></g><g id="c10_buccal_abfraction" data-name="buccal abfraction"><path d="M28 1.25h3v3h-3z" class="c10-cls-7" transform="rotate(-180 29.5 2.75)"/><path d="M28 1.25h3v3h-3z" class="c10-cls-7" transform="rotate(-180 29.5 2.75)"/><path d="M28 1.25h3v3h-3z" class="c10-cls-7" transform="rotate(-180 29.5 2.75)"/></g><g id="c10_braces"><path d="M28 1.25h3v3h-3z" class="c10-cls-7" transform="rotate(-180 29.5 2.75)"/><path d="M28 1.25h3v3h-3z" class="c10-cls-7" transform="rotate(-180 29.5 2.75)"/><path d="M28 1.25h3v3h-3z" class="c10-cls-7" transform="rotate(-180 29.5 2.75)"/></g><g id="c10_apicoectomy"><path d="M28 1.25h3v3h-3z" class="c10-cls-7" transform="rotate(-180 29.5 2.75)"/><path d="M28 1.25h3v3h-3z" class="c10-cls-7" transform="rotate(-180 29.5 2.75)"/><path d="M28 1.25h3v3h-3z" class="c10-cls-7" transform="rotate(-180 29.5 2.75)"/></g><g id="c10_abscess"><path d="M28 1.25h3v3h-3z" class="c10-cls-7" transform="rotate(-180 29.5 2.75)"/><path d="M28 1.25h3v3h-3z" class="c10-cls-7" transform="rotate(-180 29.5 2.75)"/><path d="M28 1.25h3v3h-3z" class="c10-cls-7" transform="rotate(-180 29.5 2.75)"/></g><g id="c10_blunted_roots" data-name="blunted roots"><path d="M28 1.25h3v3h-3z" class="c10-cls-7" transform="rotate(-180 29.5 2.75)"/><path d="M28 1.25h3v3h-3z" class="c10-cls-7" transform="rotate(-180 29.5 2.75)"/><path d="M28 1.25h3v3h-3z" class="c10-cls-7" transform="rotate(-180 29.5 2.75)"/></g><g id="c10_root_amputation" data-name="root amputation"><path d="M28 1.25h3v3h-3z" class="c10-cls-7" transform="rotate(-180 29.5 2.75)"/><path d="M28 1.25h3v3h-3z" class="c10-cls-7" transform="rotate(-180 29.5 2.75)"/><path d="M28 1.25h3v3h-3z" class="c10-cls-7" transform="rotate(-180 29.5 2.75)"/></g><g id="c10_missing_crown" data-name="missing crown"><path d="M28 1.25h3v3h-3z" class="c10-cls-7" transform="rotate(-180 29.5 2.75)"/><path d="M28 1.25h3v3h-3z" class="c10-cls-7" transform="rotate(-180 29.5 2.75)"/><path d="M28 1.25h3v3h-3z" class="c10-cls-7" transform="rotate(-180 29.5 2.75)"/><path d="M2 2.02h55V64H2z" class="c10-cls-13" transform="rotate(-180 29.5 33.01)"/></g><g id="c10_missing_tooth" data-name="missing tooth"><path d="M15.26 14.85c-1.85 3.68-1.29 16 0 24.13 1.6 10.07 5.52 14.58 12.64 14.76s13.1-1.91 14.81-9.9 2.91-24.65 1.74-28.3-10.31-4.34-14.53-4.69-13.35 1.4-14.66 4z" class="c10-cls-2"/><path d="M15.26 14.85c-1.85 3.68-1.29 16 0 24.13 1.6 10.07 5.52 14.58 12.64 14.76s13.1-1.91 14.81-9.9 2.91-24.65 1.74-28.3-10.31-4.34-14.53-4.69-13.35 1.4-14.66 4z" class="c10-cls-13"/><path d="M22.4 13.58c4.75-1 8.52-1 14.41.49a35.14 35.14 0 0 1 7.93 3 8.56 8.56 0 0 0-.29-1.54c-1.16-3.65-10.31-4.34-14.53-4.69s-13.37 1.39-14.67 4a7.18 7.18 0 0 0-.47 1.33 37.59 37.59 0 0 1 7.62-2.59zM19.62 45s.53 3.54 3.44 4.91a14.1 14.1 0 0 0 9.17 1.15c2.78-.66 6.39-3.28 6.55-4.75s-1 .66-3.6 1.64-6.72.82-8.19-.33-.82.82-2.29.66-4.1-4.07-5.08-3.28z" class="c10-cls-13"/></g><g id="c10_maryland_bridge_pontic" class="c10-cls-8" data-name="maryland bridge pontic"><path d="M2 27.96h55v7.67H2z" class="c10-cls-14" transform="rotate(-180 29.5 31.795)" data-color-action="fill" style="fill:inherit"/><path d="M15.26 14.85c-1.85 3.68-1.29 16 0 24.13 1.6 10.07 5.52 14.58 12.64 14.76s13.1-1.91 14.81-9.9 2.91-24.65 1.74-28.3-10.31-4.34-14.53-4.69-13.35 1.4-14.66 4z" class="c10-cls-14" data-color-action="fill" style="fill:inherit"/></g><g id="c10_maryland_bridge_abutment_mesial" class="c10-cls-8" data-name="maryland bridge abutment mesial"><path d="M2 28.17h20.42v7.67H2z" class="c10-cls-14" data-color-action="fill" style="fill:inherit"/><ellipse cx="21.19" cy="32" class="c10-cls-14" rx="5.61" ry="12.9" data-color-action="fill" style="fill:inherit"/></g><g id="c10_maryland_bridge_abutment_distal" class="c10-cls-8" data-name="maryland bridge abutment distal"><path d="M36.58 28.17H57v7.67H36.58z" class="c10-cls-14" data-color-action="fill" style="fill:inherit"/><ellipse cx="37.81" cy="32" class="c10-cls-14" rx="5.61" ry="12.9" data-color-action="fill" style="fill:inherit"/></g><g id="c10_maryland_bridge_abutment" class="c10-cls-8" data-name="maryland bridge abutment"><path d="M36.58 28.17H57v7.67H36.58zM2 28.17h20.42v7.67H2z" class="c10-cls-14" data-color-action="fill" style="fill:inherit"/><ellipse cx="21.19" cy="32" class="c10-cls-14" rx="5.61" ry="12.9" data-color-action="fill" style="fill:inherit"/><ellipse cx="37.81" cy="32" class="c10-cls-14" rx="5.61" ry="12.9" data-color-action="fill" style="fill:inherit"/></g><g id="c10_bridge_abutment_mesial" class="c10-cls-8" data-name="bridge abutment mesial"><path d="M15.26 14.85c-1.85 3.68-1.29 16 0 24.13 1.6 10.07 5.52 14.58 12.64 14.76s13.1-1.91 14.81-9.9 2.91-24.65 1.74-28.3-10.31-4.34-14.53-4.69-13.35 1.4-14.66 4z" class="c10-cls-11" data-color-action="fill" style="fill:inherit"/><path d="M2 27.74h34.98v7.67H2z" class="c10-cls-11" transform="rotate(-180 19.49 31.57)" data-color-action="fill" style="fill:inherit"/></g><g id="c10_bridge_abutment_distal" class="c10-cls-8" data-name="bridge abutment distal"><path d="M15.26 14.85c-1.85 3.68-1.29 16 0 24.13 1.6 10.07 5.52 14.58 12.64 14.76s13.1-1.91 14.81-9.9 2.91-24.65 1.74-28.3-10.31-4.34-14.53-4.69-13.35 1.4-14.66 4z" class="c10-cls-11" data-color-action="fill" style="fill:inherit"/><path d="M22.02 27.74H57v7.67H22.02z" class="c10-cls-11" transform="rotate(-180 39.51 31.57)" data-color-action="fill" style="fill:inherit"/></g><g id="c10_bridge_abutment" class="c10-cls-8" data-name="bridge abutment"><path d="M15.26 14.85c-1.85 3.68-1.29 16 0 24.13 1.6 10.07 5.52 14.58 12.64 14.76s13.1-1.91 14.81-9.9 2.91-24.65 1.74-28.3-10.31-4.34-14.53-4.69-13.35 1.4-14.66 4z" class="c10-cls-11" data-color-action="fill" style="fill:inherit"/><path d="M2 27.74h55v7.67H2z" class="c10-cls-11" transform="rotate(-180 29.5 31.57)" data-color-action="fill" style="fill:inherit"/></g><g id="c10_bridge_pontic" class="c10-cls-8" data-name="bridge pontic"><path d="M15.26 14.85c-1.85 3.68-1.29 16 0 24.13 1.6 10.07 5.52 14.58 12.64 14.76s13.1-1.91 14.81-9.9 2.91-24.65 1.74-28.3-10.31-4.34-14.53-4.69-13.35 1.4-14.66 4z" class="c10-cls-11" data-color-action="fill" style="fill:inherit"/><path d="M2 27.74h55v7.67H2z" class="c10-cls-11" transform="rotate(-180 29.5 31.57)" data-color-action="fill" style="fill:inherit"/></g><g id="c10_implant_mini" data-name="implant mini"><path d="M2 2.02h55V64H2z" class="c10-cls-13" transform="rotate(-180 29.5 33.01)"/><path d="M29.28 66h.44l1-8.5V16.67h-2.44V57.5l1 8.5z" class="c10-cls-11" data-color-action="fill" style="fill:inherit"/><path d="M29.58 66h.07l.4-8.5V16.67h-.37V57.5l-.1 8.5z" class="c10-cls-16"/><path d="M28.28 16.67h2.44v.63h-2.44z" class="c10-cls-17" transform="rotate(-180 29.5 16.985)" data-color-action="fill" style="fill:inherit"/><g class="c10-cls-18"><path d="M30.72 17.3l-2.44 1v-.63l2.44-1v.63zM30.72 18.75l-2.44 1v-.64l2.44-1v.64zM30.72 20.19l-2.44 1v-.63l2.44-1v.63zM30.72 21.64l-2.44 1V22l2.44-1v.64zM30.72 23.08l-2.44 1v-.63l2.44-1v.63zM30.72 24.53l-2.44 1v-.64l2.44-1v.64zM30.72 25.97l-2.44 1v-.63l2.44-1v.63zM30.72 27.42l-2.44 1v-.63l2.44-1v.63zM30.72 28.86l-2.44 1v-.63l2.44-1v.63zM30.72 30.31l-2.44 1v-.63l2.44-1v.63zM30.72 31.75l-2.44 1.01v-.64l2.44-1v.63zM30.72 33.2l-2.44 1v-.63l2.44-1v.63zM30.72 34.65l-2.44 1v-.64l2.44-1v.64zM30.72 36.09l-2.44 1v-.63l2.44-1v.63zM30.72 37.54l-2.44 1v-.64l2.44-1v.64zM30.72 38.98l-2.44 1v-.63l2.44-1v.63zM30.72 40.43l-2.44 1v-.63l2.44-1.01v.64zM30.72 41.87l-2.44 1v-.63l2.44-1v.63zM30.72 43.32l-2.44 1v-.63l2.44-1v.63zM30.72 44.76l-2.44 1v-.63l2.44-1v.63zM30.72 46.21l-2.44 1v-.63l2.44-1v.63zM30.72 47.65l-2.44 1.01v-.64l2.44-1v.63zM30.72 49.1l-2.44 1v-.63l2.44-1v.63zM30.72 50.55l-2.44 1v-.64l2.44-1v.64zM30.72 51.99l-2.44 1v-.63l2.44-1v.63zM30.72 53.44l-2.44 1v-.64l2.44-1v.64zM30.72 54.88l-2.44 1v-.63l2.44-1v.63zM30.72 56.33l-2.44 1v-.63l2.44-1.01v.64zM30.72 57.5l-.03.29-2.27.92-.07-.6 2.37-.97v.36zM30.51 59.3l-1.93.79-.07-.6 2.08-.85-.08.66zM30.33 60.82l-1.58.65-.08-.6 1.74-.71-.08.66zM30.15 62.34l-1.24.51-.07-.6 1.39-.57-.08.66zM29.97 63.86l-.9.37-.07-.6 1.05-.43-.08.66zM29.8 65.38l-.57.23-.07-.6.71-.3-.07.67z" class="c10-cls-17" data-color-action="fill" style="fill:inherit"/></g><circle cx="29.5" cy="12.79" r="2.24" class="c10-cls-11" data-color-action="fill" style="fill:inherit"/><path d="M27.67 14.01h3.67v3h-3.67z" class="c10-cls-11" transform="rotate(-180 29.5 15.51)" data-color-action="fill" style="fill:inherit"/><path d="M29.96 14.01h.55v3h-.55z" class="c10-cls-16"/><path d="M30.3 11.44h.21a2.32 2.32 0 0 1 .49 1.28 2.37 2.37 0 0 1-.52 1.3H30a2 2 0 0 0 .73-1.37 1.5 1.5 0 0 0-.43-1.21z" class="c10-cls-16"/><path d="M28.28 22.74h2.44v.63h-2.44z" class="c10-cls-17" transform="rotate(-180 29.5 23.05)" data-color-action="fill" style="fill:inherit"/><path d="M26.89 16.99h5.22l-.87 5.71h-3.48l-.87-5.71z" class="c10-cls-11" data-color-action="fill" style="fill:inherit"/><path d="M30.15 16.99h.79l-.48 5.71h-.53l.22-5.71z" class="c10-cls-16"/></g><g id="c10_implant_cylinder" data-name="implant cylinder"><path d="M2 2.02h55V64H2z" class="c10-cls-13" transform="rotate(-180 29.5 33.01)"/><path d="M26.17 13.67h6.67V63h-6.67z" class="c10-cls-11" transform="rotate(-180 29.5 38.335)" data-color-action="fill" style="fill:inherit"/><path d="M24.5 63h10v3h-10z" class="c10-cls-11" transform="rotate(-180 29.5 64.5)" data-color-action="fill" style="fill:inherit"/><path d="M30 13.67h1V63h-1z" class="c10-cls-16" transform="rotate(-180 30.5 38.335)"/><path d="M30.75 63h1.5v3h-1.5z" class="c10-cls-16" transform="rotate(-180 31.5 64.5)"/><path d="M24.5 10.64h10v3h-10z" class="c10-cls-11" transform="rotate(-180 29.5 12.14)" data-color-action="fill" style="fill:inherit"/><path d="M30.75 10.64h1.5v3h-1.5z" class="c10-cls-16" transform="rotate(-180 31.5 12.14)"/><path d="M26.17 62.37h6.67V63h-6.67z" class="c10-cls-17" transform="rotate(-180 29.5 62.685)" data-color-action="fill" style="fill:inherit"/><path d="M26.17 13.67h6.67v.63h-6.67z" class="c10-cls-17" transform="rotate(-180 29.5 13.985)" data-color-action="fill" style="fill:inherit"/><g class="c10-cls-18"><path d="M26.17 15.3l6.66-1v-.63l-6.66 1v.63zM26.17 16.75l6.66-1v-.63l-6.66 1v.63zM26.17 18.19l6.66-1v-.63l-6.66 1v.63zM26.17 19.64l6.66-1v-.63l-6.66 1v.63zM26.17 21.08l6.66-1v-.63l-6.66 1v.63zM26.17 22.53l6.66-1v-.63l-6.66 1v.63zM26.17 23.98l6.66-1v-.64l-6.66 1v.64zM26.17 25.42l6.66-1v-.63l-6.66 1v.63zM26.17 26.87l6.66-1.01v-.63l-6.66 1v.64zM26.17 28.31l6.66-1v-.63l-6.66 1v.63zM26.17 29.76l6.66-1v-.64l-6.66 1.01v.63zM26.17 31.2l6.66-1v-.63l-6.66 1v.63zM26.17 32.65l6.66-1v-.63l-6.66 1v.63zM26.17 34.09l6.66-1v-.63l-6.66 1v.63zM26.17 35.54l6.66-1v-.63l-6.66 1v.63zM26.17 36.98l6.66-1v-.63l-6.66 1v.63zM26.17 38.43l6.66-1v-.63l-6.66 1v.63zM26.17 39.88l6.66-1v-.64l-6.66 1v.64zM26.17 41.32l6.66-1v-.63l-6.66 1v.63zM26.17 42.77l6.66-1v-.64l-6.66 1v.64zM26.17 44.21l6.66-1v-.63l-6.66 1v.63zM26.17 45.66l6.66-1v-.64l-6.66 1v.64zM26.17 47.1l6.66-1v-.63l-6.66 1v.63zM26.17 48.55l6.66-1v-.64l-6.66 1.01v.63zM26.17 49.99l6.66-1v-.63l-6.66 1v.63zM26.17 51.44l6.66-1v-.63l-6.66 1v.63zM26.17 52.88l6.66-1v-.63l-6.66 1v.63zM26.17 54.33l6.66-1v-.63l-6.66 1v.63zM26.17 55.77l6.66-1v-.63l-6.66 1v.63zM26.17 57.22l6.66-1v-.63l-6.66 1v.63zM26.17 58.67l6.66-1.01v-.63l-6.66 1v.64zM26.17 60.11l6.66-1v-.63l-6.66 1v.63zM26.17 61.56l6.66-1v-.64l-6.66 1v.64zM26.17 63l6.66-1v-.63l-6.66 1V63z" class="c10-cls-17" data-color-action="fill" style="fill:inherit"/></g></g><g id="c10_implant_blade" data-name="implant blade"><path d="M2 2.02h55V64H2z" class="c10-cls-13" transform="rotate(-180 29.5 33.01)"/><path d="M26.17 13.64h6.67v49.33h-6.67z" class="c10-cls-11" transform="rotate(-180 29.5 38.31)" data-color-action="fill" style="fill:inherit"/><path d="M24.5 10.64h10v3h-10z" class="c10-cls-11" transform="rotate(-180 29.5 12.14)" data-color-action="fill" style="fill:inherit"/><path d="M30 13.64h1v49.33h-1z" class="c10-cls-16" transform="rotate(-180 30.5 38.31)"/><path d="M30.75 10.64h1.5v3h-1.5z" class="c10-cls-16" transform="rotate(-180 31.5 12.14)"/><path d="M26.17 13.64h6.67v.63h-6.67z" class="c10-cls-17" transform="rotate(-180 29.5 13.955)" data-color-action="fill" style="fill:inherit"/></g><g id="c10_border"><path d="M0 0h59v66H0z" class="c10-cls-7"/><path d="M0 0h59v66H0z" class="c10-cls-7" transform="rotate(-180 29.5 33)"/></g></defs></g></svg>