<svg version="1.1" xmlns="http://www.w3.org/2000/svg" xmlns:xlink="http://www.w3.org/1999/xlink" x="0px" y="0px" viewBox="0 0 59 283" style="enable-background:new 0 0 59 161;" xml:space="preserve"><defs><style type="text/css">.aQ-cls-2{fill:#929497;stroke:none;}.aQ-cls-3{font-family:'ProximaNova-Semibold',sans-serif;}.aQ-cls-4{font-size:15px;}.aQ-cls-5{fill:#C5C7C9;stroke:#C5C7C9;stroke-width:5;stroke-miterlimit:10;}.aQ-cls-6{fill:#F5D7CF;stroke:none;}.aQ-cls-7{fill:#F2C6BC;stroke:none;}.aQ-cls-8{fill:#FAE8E3;stroke:none;}.aQ-cls-9{fill:#EEEFEF;stroke:none;}.aQ-cls-10{fill:#E2E3E4;stroke:none;}.aQ-cls-11{fill:#FBFBFB;stroke:none;}.aQ-cls-12{opacity:0.55;fill:#3C3D3D;stroke:none;}.aQ-cls-13{fill:#FFD403;stroke:none;}.aQ-cls-14{fill:none;stroke:#C52636;stroke-width:3.622;stroke-miterlimit:10;}.aQ-cls-15{font-family:'ProximaNova-Bold',sans-serif;}.aQ-cls-16{font-size:13.6587px;}.aQ-cls-17{fill:none;stroke:none;}.aQ-cls-18{fill:#28418B;stroke:none;}.aQ-cls-19{fill:#787878;stroke:none;}.aQ-cls-20{fill:none;stroke:#C52636;stroke-width:2;stroke-miterlimit:10;}.aQ-cls-21{fill:#C52636;stroke:none;}.aQ-cls-22{fill:none;stroke:#C52636;stroke-width:2;stroke-linecap:round;stroke-miterlimit:10;}.aQ-cls-23{fill:#C5C7C9;stroke:none;}.aQ-cls-24{fill:#FFF;stroke:none;}.aQ-cls-25{fill:none;stroke:#28418B;stroke-width:2;stroke-miterlimit:10;}.aQ-cls-26{fill:#FFEF3E;stroke:none;}.aQ-cls-27{fill:none;stroke:#C52636;stroke-width:1.25;stroke-miterlimit:10;}.aQ-cls-28{fill:#9B9999;stroke:none;}.aQ-cls-29{fill:#DBDBDC;stroke:none;}.aQ-cls-30{fill:#3C3D3D;stroke:none;}.cQ-cls-2{fill:#C4C6C7;stroke:#C4C6C7;stroke-width:5;stroke-miterlimit:10;}.cQ-cls-3{fill:#EEEFEF;stroke:none;}.cQ-cls-4{fill:#FBFBFB;stroke:none;}.cQ-cls-5{fill:#E2E3E4;stroke:none;}.cQ-cls-6{opacity:0.55;fill:#3C3D3D;stroke:none;}.cQ-cls-7{fill:#28418B;stroke:none;}.cQ-cls-8{fill:#787878;stroke:none;}.cQ-cls-9{fill:#FFF;stroke:none;}.cQ-cls-10{fill:#FFEF3E;stroke:none;}.cQ-cls-11{fill:none;stroke:#C52636;stroke-width:1.25;stroke-miterlimit:10;}.cQ-cls-12{fill:none;stroke:none;}.aQ-cls-31{font-family:'ProximaNova-Semibold',sans-serif;font-size:33px;fill:#28418B;stroke:none;}.aQ-msng-cls-1{isolation:isolate;}.aQ-msng-cls-2{font-size:15px;fill:#929497;font-family:ProximaNova-Semibold,Proxima Nova;font-weight:700;stroke:none;}.aQ-msng-cls-3{fill:#C5C7C9;stroke:#C5C7C9;stroke-width:5px;}.aQ-msng-cls-11,.aQ-msng-cls-3{stroke-miterlimit:10;}.aQ-msng-cls-4{fill:#F5D7CF;stroke:none;}.aQ-msng-cls-5{fill:#F2C6BC;stroke:none;}.aQ-msng-cls-6{fill:#FAE8E3;stroke:none;}.aQ-msng-cls-7{fill:#EEEFEF;stroke:none;}.aQ-msng-cls-8{fill:#E2E3E4;stroke:none;}.aQ-msng-cls-9{fill:#FBFBFB;stroke:none;}.aQ-msng-cls-10{}.aQ-msng-cls-11,.aQ-msng-cls-12{fill:none;stroke:none;}.aQ-msng-cls-11{stroke:#787878;stroke-width:6.25px;}</style></defs><title>ToothQ_Layered</title><g class="aQ-cls-1" transform="translate(0 122)"><g id="_Qa">	<text transform="matrix(1 0 0 1 23.7625 150.7422)" class="aQ-cls-2 aQ-cls-3 aQ-cls-4">Q</text>	<g>		<path class="aQ-cls-5" d="M21.7,34.4c-2.9-3.3-2.9-16.9-1.2-19.6c1.7-2.6,17-3,18.2-2.1c1.6,1.1,1.5,17.8-1.7,21.5c0,0-0.1,0.1-0.1,0.1    c-0.5,5.3-2.4,19.6-2.9,22.8c-1.1,7.1-6.7,20.8-9.3,20.4s-0.7-13-1-21.6C23.5,44.9,22.5,38.9,21.7,34.4z" />		<path class="aQ-cls-6" d="M37.1,32.3c0,1.8-2.5,21-3,24.7c-1.1,7.1-6.7,20.8-9.3,20.4s-0.7-13-1-21.6c-0.4-11.9-1.6-18-2.4-22.6    C20.7,29,37.1,26.1,37.1,32.3z" />		<path class="aQ-cls-7" d="M33.5,51.7c0.6-4.6,1.5-14.5,1.5-16.3c0-1,0.9-2.9,1.7-4.5c0.2,0.4,0.3,0.9,0.3,1.4c0,1.8-2.5,21-3,24.7    c-0.7,5-3.7,13.1-6.3,17.5c0.7-1.3,1.5-3.2,2.2-5.3C31.1,65.1,32.9,56.4,33.5,51.7z" />		<path class="aQ-cls-7" d="M23.9,55.8c-0.4-11.9-1.6-18-2.4-22.6c-0.1-0.3,0-0.6,0.1-0.9l1.6,1.3c0,0,1.3,8.3,1.7,13.8    c0.4,5.5,0.1,15.8-0.4,18.7c-0.2,1.4-0.6,2.9-0.9,4.4C23.5,66.2,24,60.5,23.9,55.8z" />		<path class="aQ-cls-8" d="M28.1,35.8c0.3,2.2,0.5,4.7,0.1,14S26,75.5,25,75.5c-0.3,0,1.4-17.9,1.6-22.9s-0.4-14.5-0.7-17    C25.5,33,27.8,33.5,28.1,35.8z" />		<path class="aQ-cls-9" d="M37.1,34.2c3.1-3.7,3.2-20.4,1.7-21.5c-1.2-0.9-16.5-0.5-18.2,2.1c-1.8,2.8-1.8,17.5,1.6,20    C23.9,36.1,34.7,37,37.1,34.2z" />		<g>			<path class="aQ-cls-10" d="M35.7,34.5c2.4-3.6,2.6-19,1.6-22.1c0.7,0.1,1.2,0.2,1.4,0.3c1.6,1.1,1.5,17.8-1.7,21.5     c-0.5,0.6-1.4,1-2.6,1.3C35,35.2,35.4,34.9,35.7,34.5z" />			<path class="aQ-cls-10" d="M20.5,14.8c0.3-0.5,1-0.8,2-1.2c-0.2,0.2-0.3,0.3-0.4,0.5c-1.5,3-1.5,18.4,1.3,21c0.1,0.1,0.3,0.2,0.5,0.3     c-0.8-0.2-1.5-0.4-1.8-0.7C18.7,32.3,18.7,17.6,20.5,14.8z" />		</g>		<path class="aQ-cls-11" d="M28,24.5c0,3.7,0.4,9.5,0.5,11.6c-0.7,0-1.5-0.1-2.2-0.2c-0.5-2.5-1.1-8.4-1.1-11.3c0-2.7,0.2-9,0.5-11.7    c1-0.2,2.1-0.3,3.1-0.4C28.5,14.9,28,20.8,28,24.5z" />	</g></g><defs><g id="aQ_bone_graft" style="">	<g>		<g>							<ellipse transform="matrix(0.1539 -0.9881 0.9881 0.1539 -23.6537 49.9275)" class="aQ-cls-14" cx="17.3" cy="38.8" rx="12.7" ry="12.7" data-color-action="stroke" style="stroke:inherit" />			<line class="aQ-cls-14" x1="10.3" y1="29.2" x2="24.3" y2="48.4" data-color-action="stroke" style="stroke:inherit" />		</g>		<text transform="matrix(1 0 0 1 6.7031 43.357)" class="aQ-cls-15 aQ-cls-16">NA</text>	</g></g><g id="aQ_splinted_crowns" style="">	<g>		<g>							<ellipse transform="matrix(0.1539 -0.9881 0.9881 0.1539 -23.6537 49.9275)" class="aQ-cls-14" cx="17.3" cy="38.8" rx="12.7" ry="12.7" data-color-action="stroke" style="stroke:inherit" />			<line class="aQ-cls-14" x1="10.3" y1="29.2" x2="24.3" y2="48.4" data-color-action="stroke" style="stroke:inherit" />		</g>		<text transform="matrix(1 0 0 1 6.7031 43.357)" class="aQ-cls-15 aQ-cls-16">NA</text>	</g></g><g id="aQ_facial_V" style="">	<path class="aQ-cls-12" d="M24.2,35.5c2.7,0.6,7.2,0.8,10.2,0c-1.4-0.8-3.2-1.3-5.1-1.3C27.4,34.2,25.7,34.7,24.2,35.5z" data-color-action="fill" style="fill:inherit" /></g><g id="aQ_mid_facial" style="">	<ellipse class="aQ-cls-12" cx="29.4" cy="26.4" rx="3" ry="6.1" data-color-action="fill" style="fill:inherit" /></g><g id="aQ_mesial" style="">	<path class="aQ-cls-12" d="M39.7,18.9L37,20.5c0.6,1.7,0.3,4,0.6,6.4c0.1,1,0.6,1.6,1.3,2.1C39.5,25.9,39.7,22.1,39.7,18.9z" data-color-action="fill" style="fill:inherit" /></g><g id="aQ_line_angle_2" style="">	<path class="aQ-cls-12" d="M34.2,12.2L32.6,18c1,0.1,1.8,0.3,2.5,0.6c1,0.4,1.6,1.1,1.9,2l2.7-1.6c-0.1-3.2-0.4-5.8-1-6.2   C38.3,12.4,36.5,12.2,34.2,12.2z" data-color-action="fill" style="fill:inherit" /></g><g id="aQ_facial" style="">	<path class="aQ-cls-12" d="M24.1,13.2l1.2,5.2c1.9-0.4,4.9-0.6,7.3-0.4l1.6-5.8C31.1,12.2,27,12.5,24.1,13.2z" data-color-action="fill" style="fill:inherit" /></g><g id="aQ_line_angle_1" style="">	<path class="aQ-cls-12" d="M20.5,14.8c-0.5,0.8-0.8,2.5-1,4.5l2.7,1.8c0.4-1.2,1-2.1,1.9-2.4c0.3-0.1,0.7-0.2,1.2-0.3l-1.2-5.2   C22.3,13.6,20.9,14.1,20.5,14.8z" data-color-action="fill" style="fill:inherit" /></g><g id="aQ_distal" style="">	<path class="aQ-cls-12" d="M21.2,26.4c0.2-1.5,0.4-3.6,1-5.3l-2.7-1.8c-0.3,2.9-0.2,6.6,0.3,9.7C20.5,28.4,21.1,27.6,21.2,26.4z" data-color-action="fill" style="fill:inherit" /></g><g id="aQ_veneer" style="">	<g>		<g>							<ellipse transform="matrix(0.1539 -0.9881 0.9881 0.1539 -23.6537 49.9275)" class="aQ-cls-14" cx="17.3" cy="38.8" rx="12.7" ry="12.7" data-color-action="stroke" style="stroke:inherit" />			<line class="aQ-cls-14" x1="10.3" y1="29.2" x2="24.3" y2="48.4" data-color-action="stroke" style="stroke:inherit" />		</g>		<text transform="matrix(1 0 0 1 6.7031 43.357)" class="aQ-cls-15 aQ-cls-16">NA</text>	</g></g><g id="aQ_tissue_graft" style="">	<g>		<g>							<ellipse transform="matrix(0.1539 -0.9881 0.9881 0.1539 -23.6537 49.9275)" class="aQ-cls-14" cx="17.3" cy="38.8" rx="12.7" ry="12.7" data-color-action="stroke" style="stroke:inherit" />			<line class="aQ-cls-14" x1="10.3" y1="29.2" x2="24.3" y2="48.4" data-color-action="stroke" style="stroke:inherit" />		</g>		<text transform="matrix(1 0 0 1 6.7031 43.357)" class="aQ-cls-15 aQ-cls-16">NA</text>	</g></g><g id="aQ_tipped_lingual" style="">	<rect x="28" y="154.8" class="aQ-cls-17" width="3" height="3" /></g><g id="aQ_tipped_facial" style="">	<g>		<path class="aQ-cls-18" d="M25.1,8.9c1.2-3.2,4.5-3.6,7.2,5c0.5,1.5,4.2,1.7,3.6,0c-1.9-5.7-5-9.6-8.5-8.7c-1.2,0.3-2.3,1.6-2.8,3.2    C24.8,8.6,25,8.8,25.1,8.9z" data-color-action="fill" style="fill:inherit" />		<polygon class="aQ-cls-18" points="27,11.7 39.2,11.7 36.4,20.7   " data-color-action="fill" style="fill:inherit" />	</g></g><g id="aQ_surface_restoration_mesial" style="">	<path class="aQ-cls-19" d="M33.6,18.2c0,0,0.1,0,0.1,0c0.1,2.3-0.4,8.8-1,14.2c1.2-3.1,3.6-5.5,6.6-6.7c0.6-5.7,0.3-12.1-0.6-13   L33.6,18.2z" data-color-action="fill" style="fill:inherit" /></g><g id="aQ_surface_restoration_facial" style="">	<g>		<path class="aQ-cls-19" d="M32.7,32.6C32.7,32.5,32.7,32.5,32.7,32.6c0.6-5.6,1.1-12,1-14.3c-3.4,0-6.4,0.4-8.2,0.8    c-0.2,1.7-0.1,7.6,0.3,12.7c0.1,0.3,0.2,0.6,0.3,1c1.1-0.4,2.3-0.5,3.5-0.5C30.7,32.1,31.7,32.3,32.7,32.6z" data-color-action="fill" style="fill:inherit" />			</g></g><g id="aQ_surface_restoration_facial_V" style="">	<g>				<path class="aQ-cls-19" d="M32,35.9c0.1-1.2,0.3-2.3,0.7-3.4c-1-0.3-2-0.4-3.1-0.4c-1.2,0-2.4,0.2-3.5,0.5c0.3,1,0.5,2.1,0.5,3.2    C28.3,36.1,30.3,36.1,32,35.9z" data-color-action="fill" style="fill:inherit" />	</g></g><g id="aQ_surface_restoration_distal" style="">	<path class="aQ-cls-19" d="M20.5,14.8c-0.9,1.5-1.4,6.1-1.1,10.5c2.9,1.2,5.2,3.5,6.4,6.4c-0.3-5.1-0.5-10.9-0.3-12.6l-4.7-4.6   C20.7,14.6,20.6,14.7,20.5,14.8z" data-color-action="fill" style="fill:inherit" /></g><g id="aQ_surface_restoration_incisal" style="">	<path class="aQ-cls-19" d="M38.7,12.7c-1.2-0.9-15.2-0.5-17.9,1.8l4.7,4.6c0,0,0,0,0,0c1.8-0.4,4.8-0.7,8.1-0.8L38.7,12.7   C38.7,12.7,38.7,12.7,38.7,12.7z" data-color-action="fill" style="fill:inherit" /></g><g id="aQ_supra-erupted" style="">	<g>		<g>							<ellipse transform="matrix(0.1539 -0.9881 0.9881 0.1539 -23.6537 49.9275)" class="aQ-cls-14" cx="17.3" cy="38.8" rx="12.7" ry="12.7" data-color-action="stroke" style="stroke:inherit" />			<line class="aQ-cls-14" x1="10.3" y1="29.2" x2="24.3" y2="48.4" data-color-action="stroke" style="stroke:inherit" />		</g>		<text transform="matrix(1 0 0 1 6.7031 43.357)" class="aQ-cls-15 aQ-cls-16">NA</text>	</g></g><g id="aQ_sub-erupted" style="">	<g>		<g>			<line class="aQ-cls-20" x1="29.5" y1="44.8" x2="29.5" y2="37.9" data-color-action="stroke" style="stroke:inherit" />			<g>				<polygon class="aQ-cls-21" points="33.5,43.6 29.5,50.5 25.5,43.6     " data-color-action="fill" style="fill:inherit" />			</g>		</g>	</g></g><g id="aQ_sealant" style=""><text class="aQ-cls-31" transform="matrix(1 0 0 1 19.7 -18.45)" data-color-action="fill" style="fill:inherit">S</text></g><g id="aQ_rotated_mesial" style="">	<g>		<path class="aQ-cls-18" d="M9.7,28c-2.8-1.7-2.2-5.1,9.6-5.5c5-0.1,8.4,0,8.4,0l-0.1-2.8c0,0-0.9-0.1-7.7,0.2    C12.8,20.2,6.8,21.6,7,25.5c0.1,1,1,2.1,2.2,2.7C9.4,28.2,9.6,28,9.7,28z" data-color-action="fill" style="fill:inherit" />		<polygon class="aQ-cls-18" points="21.6,26.8 21.6,15.6 31.4,21.1   " data-color-action="fill" style="fill:inherit" />	</g></g><g id="aQ_rotated_distal" style="">	<g>		<path class="aQ-cls-18" d="M49.6,28c2.8-1.7,2.2-5.1-9.6-5.5c-5-0.1-8.4,0-8.4,0l0.1-2.8c0,0,0.9-0.1,7.7,0.2    c7.2,0.3,13.2,1.7,12.9,5.6c-0.1,1-1,2.1-2.2,2.7C49.9,28.2,49.7,28,49.6,28z" data-color-action="fill" style="fill:inherit" />		<polygon class="aQ-cls-18" points="37.6,26.8 37.6,15.6 27.8,21.1   " data-color-action="fill" style="fill:inherit" />	</g></g><g id="aQ_root_tips" style="">	<g>		<g>							<ellipse transform="matrix(0.1539 -0.9881 0.9881 0.1539 -23.6537 49.9275)" class="aQ-cls-14" cx="17.3" cy="38.8" rx="12.7" ry="12.7" data-color-action="stroke" style="stroke:inherit" />			<line class="aQ-cls-14" x1="10.3" y1="29.2" x2="24.3" y2="48.4" data-color-action="stroke" style="stroke:inherit" />		</g>		<text transform="matrix(1 0 0 1 6.7031 43.357)" class="aQ-cls-15 aQ-cls-16">NA</text>	</g></g><g id="aQ_root_decay" style="">	<g>		<g>							<ellipse transform="matrix(0.1539 -0.9881 0.9881 0.1539 -23.6537 49.9275)" class="aQ-cls-14" cx="17.3" cy="38.8" rx="12.7" ry="12.7" data-color-action="stroke" style="stroke:inherit" />			<line class="aQ-cls-14" x1="10.3" y1="29.2" x2="24.3" y2="48.4" data-color-action="stroke" style="stroke:inherit" />		</g>		<text transform="matrix(1 0 0 1 6.7031 43.357)" class="aQ-cls-15 aQ-cls-16">NA</text>	</g></g><g id="aQ_root_canal" style="">	<line class="aQ-cls-22" x1="26" y1="73" x2="30" y2="38.1" data-color-action="stroke" style="stroke:inherit" /></g><g id="aQ_root_abrasion" style="">	<g>		<g>							<ellipse transform="matrix(0.1539 -0.9881 0.9881 0.1539 -23.6537 49.9275)" class="aQ-cls-14" cx="17.3" cy="38.8" rx="12.7" ry="12.7" data-color-action="stroke" style="stroke:inherit" />			<line class="aQ-cls-14" x1="10.3" y1="29.2" x2="24.3" y2="48.4" data-color-action="stroke" style="stroke:inherit" />		</g>		<text transform="matrix(1 0 0 1 6.7031 43.357)" class="aQ-cls-15 aQ-cls-16">NA</text>	</g></g><g id="aQ_post" style="">	<g>		<g>							<ellipse transform="matrix(0.1539 -0.9881 0.9881 0.1539 -23.6537 49.9275)" class="aQ-cls-14" cx="17.3" cy="38.8" rx="12.7" ry="12.7" data-color-action="stroke" style="stroke:inherit" />			<line class="aQ-cls-14" x1="10.3" y1="29.2" x2="24.3" y2="48.4" data-color-action="stroke" style="stroke:inherit" />		</g>		<text transform="matrix(1 0 0 1 6.7031 43.357)" class="aQ-cls-15 aQ-cls-16">NA</text>	</g></g><g id="aQ_pins" style="">	<g>		<g>			<rect x="26.1" y="24.9" class="aQ-cls-19" width="2.3" height="22" data-color-action="fill" style="fill:inherit" />			<rect x="26.7" y="24.9" class="aQ-cls-23" width="0.3" height="22" />		</g>		<g>			<rect x="30.4" y="24.9" class="aQ-cls-19" width="2.3" height="22" data-color-action="fill" style="fill:inherit" />			<rect x="31" y="24.9" class="aQ-cls-23" width="0.3" height="22" />		</g>	</g></g><g id="aQ_open_contact_mesial" style="">	<g>		<g>							<ellipse transform="matrix(0.1539 -0.9881 0.9881 0.1539 -23.6537 49.9275)" class="aQ-cls-14" cx="17.3" cy="38.8" rx="12.7" ry="12.7" data-color-action="stroke" style="stroke:inherit" />			<line class="aQ-cls-14" x1="10.3" y1="29.2" x2="24.3" y2="48.4" data-color-action="stroke" style="stroke:inherit" />		</g>		<text transform="matrix(1 0 0 1 6.7031 43.357)" class="aQ-cls-15 aQ-cls-16">NA</text>	</g></g><g id="aQ_open_contact_distal" style="">	<g>		<g>							<ellipse transform="matrix(0.1539 -0.9881 0.9881 0.1539 -23.6537 49.9275)" class="aQ-cls-14" cx="17.3" cy="38.8" rx="12.7" ry="12.7" data-color-action="stroke" style="stroke:inherit" />			<line class="aQ-cls-14" x1="10.3" y1="29.2" x2="24.3" y2="48.4" data-color-action="stroke" style="stroke:inherit" />		</g>		<text transform="matrix(1 0 0 1 6.7031 43.357)" class="aQ-cls-15 aQ-cls-16">NA</text>	</g></g><g id="aQ_mesial_drift" style="">	<g>		<g>			<line class="aQ-cls-25" x1="32.1" y1="24.2" x2="21.2" y2="24.2" data-color-action="stroke" style="stroke:inherit" />			<g>				<polygon class="aQ-cls-18" points="30.9,20.2 37.8,24.2 30.9,28.2     " data-color-action="fill" style="fill:inherit" />			</g>		</g>	</g></g><g id="aQ_lingual_abfraction" style="">	<g>		<g>							<ellipse transform="matrix(0.1539 -0.9881 0.9881 0.1539 -23.6537 49.9275)" class="aQ-cls-14" cx="17.3" cy="38.8" rx="12.7" ry="12.7" data-color-action="stroke" style="stroke:inherit" />			<line class="aQ-cls-14" x1="10.3" y1="29.2" x2="24.3" y2="48.4" data-color-action="stroke" style="stroke:inherit" />		</g>		<text transform="matrix(1 0 0 1 6.7031 43.357)" class="aQ-cls-15 aQ-cls-16">NA</text>	</g></g><g id="aQ_internal_root_resorption" style="">	<g>		<g>							<ellipse transform="matrix(0.1539 -0.9881 0.9881 0.1539 -23.6537 49.9275)" class="aQ-cls-14" cx="17.3" cy="38.8" rx="12.7" ry="12.7" data-color-action="stroke" style="stroke:inherit" />			<line class="aQ-cls-14" x1="10.3" y1="29.2" x2="24.3" y2="48.4" data-color-action="stroke" style="stroke:inherit" />		</g>		<text transform="matrix(1 0 0 1 6.7031 43.357)" class="aQ-cls-15 aQ-cls-16">NA</text>	</g></g><g id="aQ_impacted_mesial" style="">	<g>		<g>							<ellipse transform="matrix(0.1539 -0.9881 0.9881 0.1539 -23.6537 49.9275)" class="aQ-cls-14" cx="17.3" cy="38.8" rx="12.7" ry="12.7" data-color-action="stroke" style="stroke:inherit" />			<line class="aQ-cls-14" x1="10.3" y1="29.2" x2="24.3" y2="48.4" data-color-action="stroke" style="stroke:inherit" />		</g>		<text transform="matrix(1 0 0 1 6.7031 43.357)" class="aQ-cls-15 aQ-cls-16">NA</text>	</g></g><g id="aQ_impacted_distal" style="">	<g>		<g>							<ellipse transform="matrix(0.1539 -0.9881 0.9881 0.1539 -23.6537 49.9275)" class="aQ-cls-14" cx="17.3" cy="38.8" rx="12.7" ry="12.7" data-color-action="stroke" style="stroke:inherit" />			<line class="aQ-cls-14" x1="10.3" y1="29.2" x2="24.3" y2="48.4" data-color-action="stroke" style="stroke:inherit" />		</g>		<text transform="matrix(1 0 0 1 6.7031 43.357)" class="aQ-cls-15 aQ-cls-16">NA</text>	</g></g><g id="aQ_gortex_membranes" style="">	<g>		<g>							<ellipse transform="matrix(0.1539 -0.9881 0.9881 0.1539 -23.6537 49.9275)" class="aQ-cls-14" cx="17.3" cy="38.8" rx="12.7" ry="12.7" data-color-action="stroke" style="stroke:inherit" />			<line class="aQ-cls-14" x1="10.3" y1="29.2" x2="24.3" y2="48.4" data-color-action="stroke" style="stroke:inherit" />		</g>		<text transform="matrix(1 0 0 1 6.7031 43.357)" class="aQ-cls-15 aQ-cls-16">NA</text>	</g></g><g id="aQ_frenum_pull" style="">	<g>		<g>							<ellipse transform="matrix(0.1539 -0.9881 0.9881 0.1539 -23.6537 49.9275)" class="aQ-cls-14" cx="17.3" cy="38.8" rx="12.7" ry="12.7" data-color-action="stroke" style="stroke:inherit" />			<line class="aQ-cls-14" x1="10.3" y1="29.2" x2="24.3" y2="48.4" data-color-action="stroke" style="stroke:inherit" />		</g>		<text transform="matrix(1 0 0 1 6.7031 43.357)" class="aQ-cls-15 aQ-cls-16">NA</text>	</g></g><g id="aQ_external_root_resorption" style="">	<g>		<g>							<ellipse transform="matrix(0.1539 -0.9881 0.9881 0.1539 -23.6537 49.9275)" class="aQ-cls-14" cx="17.3" cy="38.8" rx="12.7" ry="12.7" data-color-action="stroke" style="stroke:inherit" />			<line class="aQ-cls-14" x1="10.3" y1="29.2" x2="24.3" y2="48.4" data-color-action="stroke" style="stroke:inherit" />		</g>		<text transform="matrix(1 0 0 1 6.7031 43.357)" class="aQ-cls-15 aQ-cls-16">NA</text>	</g></g><g id="aQ_diastema_mesial" style="">	<g>		<g>							<ellipse transform="matrix(0.1539 -0.9881 0.9881 0.1539 -23.6537 49.9275)" class="aQ-cls-14" cx="17.3" cy="38.8" rx="12.7" ry="12.7" data-color-action="stroke" style="stroke:inherit" />			<line class="aQ-cls-14" x1="10.3" y1="29.2" x2="24.3" y2="48.4" data-color-action="stroke" style="stroke:inherit" />		</g>		<text transform="matrix(1 0 0 1 6.7031 43.357)" class="aQ-cls-15 aQ-cls-16">NA</text>	</g></g><g id="aQ_diastema_distal" style="">	<g>		<g>							<ellipse transform="matrix(0.1539 -0.9881 0.9881 0.1539 -23.6537 49.9275)" class="aQ-cls-14" cx="17.3" cy="38.8" rx="12.7" ry="12.7" data-color-action="stroke" style="stroke:inherit" />			<line class="aQ-cls-14" x1="10.3" y1="29.2" x2="24.3" y2="48.4" data-color-action="stroke" style="stroke:inherit" />		</g>		<text transform="matrix(1 0 0 1 6.7031 43.357)" class="aQ-cls-15 aQ-cls-16">NA</text>	</g></g><g id="aQ_distal_drift" style="">	<g>		<g>			<line class="aQ-cls-25" x1="26.9" y1="24.2" x2="37.8" y2="24.2" data-color-action="stroke" style="stroke:inherit" />			<g>				<polygon class="aQ-cls-18" points="28.1,28.2 21.2,24.2 28.1,20.2     " data-color-action="fill" style="fill:inherit" />			</g>		</g>	</g></g><g id="aQ_three_quarter_crown" style="">	<g>		<g>							<ellipse transform="matrix(0.1539 -0.9881 0.9881 0.1539 -23.6537 49.9275)" class="aQ-cls-14" cx="17.3" cy="38.8" rx="12.7" ry="12.7" data-color-action="stroke" style="stroke:inherit" />			<line class="aQ-cls-14" x1="10.3" y1="29.2" x2="24.3" y2="48.4" data-color-action="stroke" style="stroke:inherit" />		</g>		<text transform="matrix(1 0 0 1 6.7031 43.357)" class="aQ-cls-15 aQ-cls-16">NA</text>	</g></g><g id="aQ_crown" style="">	<path class="aQ-cls-26" d="M37.1,34.2c3.1-3.7,3.2-20.4,1.7-21.5c-1.2-0.9-16.5-0.5-18.2,2.1c-1.8,2.8-1.8,17.5,1.6,20   C23.9,36.1,34.7,37,37.1,34.2z" data-color-action="fill" style="fill:inherit" /></g><g id="aQ_cracked_surface_incisal" style="">	<polyline class="aQ-cls-27" points="30.8,20.5 27,16.7 32,16.7 27,11.9 32,11.9 28.2,8.1  " data-color-action="stroke" style="stroke:inherit" /></g><g id="aQ_cracked_surface_distal" style="">	<polyline class="aQ-cls-27" points="22.1,32.2 18.3,28.3 23.3,28.3 18.3,23.6 23.3,23.6 19.5,19.8  " data-color-action="stroke" style="stroke:inherit" /></g><g id="aQ_cracked_surface_facial" style="">	<polyline class="aQ-cls-27" points="30.8,32.2 27,28.3 32,28.3 27,23.6 32,23.6 28.2,19.8  " data-color-action="stroke" style="stroke:inherit" /></g><g id="aQ_cracked_surface_facial_V" style="">	<polyline class="aQ-cls-27" points="30.8,32.2 27,28.3 32,28.3 27,23.6 32,23.6 28.2,19.8  " data-color-action="stroke" style="stroke:inherit" /></g><g id="aQ_cracked_surface_mesial" style="">	<polyline class="aQ-cls-27" points="39.1,32.2 35.2,28.3 40.2,28.3 35.2,23.6 40.2,23.6 36.4,19.8  " data-color-action="stroke" style="stroke:inherit" /></g><g id="aQ_chipped_surface_incisal" style="">	<g>		<line class="aQ-cls-27" x1="33.3" y1="18.8" x2="25" y2="10.5" data-color-action="stroke" style="stroke:inherit" />		<line class="aQ-cls-27" x1="25" y1="18.8" x2="33.3" y2="10.5" data-color-action="stroke" style="stroke:inherit" />	</g></g><g id="aQ_chipped_surface_distal" style="">	<g>		<line class="aQ-cls-27" x1="25" y1="30.5" x2="16.6" y2="22.2" data-color-action="stroke" style="stroke:inherit" />		<line class="aQ-cls-27" x1="16.6" y1="30.5" x2="25" y2="22.2" data-color-action="stroke" style="stroke:inherit" />	</g></g><g id="aQ_chipped_surface_facial" style="">	<g>		<line class="aQ-cls-27" x1="33.3" y1="30.5" x2="25" y2="22.2" data-color-action="stroke" style="stroke:inherit" />		<line class="aQ-cls-27" x1="25" y1="30.5" x2="33.3" y2="22.2" data-color-action="stroke" style="stroke:inherit" />	</g></g><g id="aQ_chipped_surface_facial_V" style="">	<g>		<line class="aQ-cls-27" x1="33.3" y1="30.5" x2="25" y2="22.2" data-color-action="stroke" style="stroke:inherit" />		<line class="aQ-cls-27" x1="25" y1="30.5" x2="33.3" y2="22.2" data-color-action="stroke" style="stroke:inherit" />	</g></g><g id="aQ_chipped_surface_mesial" style="">	<g>		<line class="aQ-cls-27" x1="41.7" y1="30.5" x2="33.4" y2="22.2" data-color-action="stroke" style="stroke:inherit" />		<line class="aQ-cls-27" x1="33.4" y1="30.5" x2="41.7" y2="22.2" data-color-action="stroke" style="stroke:inherit" />	</g></g><g id="aQ_buccal_abfraction" style="">	<g>		<g>							<ellipse transform="matrix(0.1539 -0.9881 0.9881 0.1539 -23.6537 49.9275)" class="aQ-cls-14" cx="17.3" cy="38.8" rx="12.7" ry="12.7" data-color-action="stroke" style="stroke:inherit" />			<line class="aQ-cls-14" x1="10.3" y1="29.2" x2="24.3" y2="48.4" data-color-action="stroke" style="stroke:inherit" />		</g>		<text transform="matrix(1 0 0 1 6.7031 43.357)" class="aQ-cls-15 aQ-cls-16">NA</text>	</g></g><g id="aQ_braces" style="">	<g>		<g>							<rect x="23" y="14.8" transform="matrix(-1 -4.489399e-11 4.489399e-11 -1 59.3774 47.8657)" class="aQ-cls-23" width="13.5" height="18.2" />							<rect x="23" y="14.8" transform="matrix(-1 -4.489399e-11 4.489399e-11 -1 59.3774 30.3567)" class="aQ-cls-28" width="13.5" height="0.7" data-color-action="fill" style="fill:inherit" />							<rect x="23" y="22.4" transform="matrix(-1 -4.489399e-11 4.489399e-11 -1 59.3774 46.2123)" class="aQ-cls-28" width="13.5" height="1.4" data-color-action="fill" style="fill:inherit" />							<rect x="23" y="32.1" transform="matrix(-1 -4.489399e-11 4.489399e-11 -1 59.3774 65.1643)" class="aQ-cls-29" width="13.5" height="0.9" data-color-action="fill" style="fill:inherit" />			<g>				<g>					<g>						<path class="aQ-cls-30" d="M33.1,33h3.1c0.3,0,0.5-0.2,0.5-0.5v-7c0-0.3-0.2-0.5-0.5-0.5h-3.1c-0.3,0-0.5,0.2-0.5,0.5v7        C32.6,32.8,32.8,33,33.1,33z" data-color-action="fill" style="fill:inherit" />						<path class="aQ-cls-19" d="M33.1,33h3.1c0.3,0,0.5-0.2,0.5-0.5v-5.8c-0.7-0.1-1.3-0.2-2-0.2c-0.7,0-1.4,0.1-2.1,0.2v5.8        C32.6,32.8,32.8,33,33.1,33z" data-color-action="fill" style="fill:inherit" />						<path class="aQ-cls-23" d="M32.9,31.6v1.1c0,0.1,0.1,0.2,0.2,0.2h3.1c0.1,0,0.2-0.1,0.2-0.2v-1.1H32.9z" />					</g>					<g>						<path class="aQ-cls-30" d="M23.2,33h3.1c0.3,0,0.5-0.2,0.5-0.5v-7c0-0.3-0.2-0.5-0.5-0.5h-3.1c-0.3,0-0.5,0.2-0.5,0.5v7        C22.7,32.8,22.9,33,23.2,33z" data-color-action="fill" style="fill:inherit" />						<path class="aQ-cls-19" d="M23.2,33h3.1c0.3,0,0.5-0.2,0.5-0.5v-5.8c-0.7-0.1-1.3-0.2-2-0.2c-0.7,0-1.4,0.1-2.1,0.2v5.8        C22.7,32.8,22.9,33,23.2,33z" data-color-action="fill" style="fill:inherit" />						<path class="aQ-cls-23" d="M23,31.6v1.1c0,0.1,0.1,0.2,0.2,0.2h3.1c0.1,0,0.2-0.1,0.2-0.2v-1.1H23z" />					</g>				</g>				<g>					<g>						<path class="aQ-cls-30" d="M33.1,22.7h3.1c0.3,0,0.5-0.2,0.5-0.5v-7c0-0.3-0.2-0.5-0.5-0.5h-3.1c-0.3,0-0.5,0.2-0.5,0.5v7        C32.6,22.5,32.8,22.7,33.1,22.7z" data-color-action="fill" style="fill:inherit" />						<path class="aQ-cls-19" d="M33.1,22.7h3.1c0.3,0,0.5-0.2,0.5-0.5v-5.8c-0.7-0.1-1.3-0.2-2-0.2c-0.7,0-1.4,0.1-2.1,0.2v5.8        C32.6,22.5,32.8,22.7,33.1,22.7z" data-color-action="fill" style="fill:inherit" />						<path class="aQ-cls-23" d="M32.9,21.3v1.1c0,0.1,0.1,0.2,0.2,0.2h3.1c0.1,0,0.2-0.1,0.2-0.2v-1.1H32.9z" />					</g>					<g>						<path class="aQ-cls-30" d="M23.2,22.7h3.1c0.3,0,0.5-0.2,0.5-0.5v-7c0-0.3-0.2-0.5-0.5-0.5h-3.1c-0.3,0-0.5,0.2-0.5,0.5v7        C22.7,22.5,22.9,22.7,23.2,22.7z" data-color-action="fill" style="fill:inherit" />						<path class="aQ-cls-19" d="M23.2,22.7h3.1c0.3,0,0.5-0.2,0.5-0.5v-5.8c-0.7-0.1-1.3-0.2-2-0.2c-0.7,0-1.4,0.1-2.1,0.2v5.8        C22.7,22.5,22.9,22.7,23.2,22.7z" data-color-action="fill" style="fill:inherit" />						<path class="aQ-cls-23" d="M23,21.3v1.1c0,0.1,0.1,0.2,0.2,0.2h3.1c0.1,0,0.2-0.1,0.2-0.2v-1.1H23z" />					</g>				</g>			</g>		</g>		<g>							<rect x="8.6" y="23.2" transform="matrix(-1 -4.490154e-11 4.490154e-11 -1 59.3675 47.7829)" class="aQ-cls-19" width="42.2" height="1.4" data-color-action="fill" style="fill:inherit" />							<rect x="8.6" y="23.2" transform="matrix(-1 -4.490154e-11 4.490154e-11 -1 59.3675 46.581)" class="aQ-cls-30" width="42.2" height="0.2" data-color-action="fill" style="fill:inherit" />							<rect x="8.6" y="24" transform="matrix(-1 -4.490154e-11 4.490154e-11 -1 59.3675 48.434)" class="aQ-cls-23" width="42.2" height="0.4" />		</g>	</g></g><g id="aQ_apicoectomy" style="">	<g>		<g>							<ellipse transform="matrix(0.1539 -0.9881 0.9881 0.1539 -23.6537 49.9275)" class="aQ-cls-14" cx="17.3" cy="38.8" rx="12.7" ry="12.7" data-color-action="stroke" style="stroke:inherit" />			<line class="aQ-cls-14" x1="10.3" y1="29.2" x2="24.3" y2="48.4" data-color-action="stroke" style="stroke:inherit" />		</g>		<text transform="matrix(1 0 0 1 6.7031 43.357)" class="aQ-cls-15 aQ-cls-16">NA</text>	</g></g><g id="aQ_abscess" style="">	<circle class="aQ-cls-18" cx="29.5" cy="79.2" r="6.1" data-color-action="fill" style="fill:inherit" /></g><g id="aQ_blunted_roots" style="">	<g>		<g>							<ellipse transform="matrix(0.1539 -0.9881 0.9881 0.1539 -23.6537 49.9275)" class="aQ-cls-14" cx="17.3" cy="38.8" rx="12.7" ry="12.7" data-color-action="stroke" style="stroke:inherit" />			<line class="aQ-cls-14" x1="10.3" y1="29.2" x2="24.3" y2="48.4" data-color-action="stroke" style="stroke:inherit" />		</g>		<text transform="matrix(1 0 0 1 6.7031 43.357)" class="aQ-cls-15 aQ-cls-16">NA</text>	</g></g><g id="aQ_root_amputation" style="">	<g>		<g>							<ellipse transform="matrix(0.1539 -0.9881 0.9881 0.1539 -23.6537 49.9275)" class="aQ-cls-14" cx="17.3" cy="38.8" rx="12.7" ry="12.7" data-color-action="stroke" style="stroke:inherit" />			<line class="aQ-cls-14" x1="10.3" y1="29.2" x2="24.3" y2="48.4" data-color-action="stroke" style="stroke:inherit" />		</g>		<text transform="matrix(1 0 0 1 6.7031 43.357)" class="aQ-cls-15 aQ-cls-16">NA</text>	</g></g><g id="aQ_missing_crown" style="">	<g>		<g>							<ellipse transform="matrix(0.1539 -0.9881 0.9881 0.1539 -23.6537 49.9275)" class="aQ-cls-14" cx="17.3" cy="38.8" rx="12.7" ry="12.7" data-color-action="stroke" style="stroke:inherit" />			<line class="aQ-cls-14" x1="10.3" y1="29.2" x2="24.3" y2="48.4" data-color-action="stroke" style="stroke:inherit" />		</g>		<text transform="matrix(1 0 0 1 6.7031 43.357)" class="aQ-cls-15 aQ-cls-16">NA</text>	</g></g><g id="aQ_missing_tooth" style="" data-name="missing tooth">	<g>		<path class="aQ-cls-5" d="M21.7,34.4c-2.9-3.3-2.9-16.9-1.2-19.6c1.7-2.6,17-3,18.2-2.1c1.6,1.1,1.5,17.8-1.7,21.5c0,0-0.1,0.1-0.1,0.1    c-0.5,5.3-2.4,19.6-2.9,22.8c-1.1,7.1-6.7,20.8-9.3,20.4s-0.7-13-1-21.6C23.5,44.9,22.5,38.9,21.7,34.4z" />		<path class="aQ-cls-24" d="M37.1,32.3c0,1.8-2.5,21-3,24.7c-1.1,7.1-6.7,20.8-9.3,20.4s-0.7-13-1-21.6c-0.4-11.9-1.6-18-2.4-22.6    C20.7,29,37.1,26.1,37.1,32.3z" />		<path class="aQ-cls-24" d="M33.5,51.7c0.6-4.6,1.5-14.5,1.5-16.3c0-1,0.9-2.9,1.7-4.5c0.2,0.4,0.3,0.9,0.3,1.4c0,1.8-2.5,21-3,24.7    c-0.7,5-3.7,13.1-6.3,17.5c0.7-1.3,1.5-3.2,2.2-5.3C31.1,65.1,32.9,56.4,33.5,51.7z" />		<path class="aQ-cls-24" d="M23.9,55.8c-0.4-11.9-1.6-18-2.4-22.6c-0.1-0.3,0-0.6,0.1-0.9l1.6,1.3c0,0,1.3,8.3,1.7,13.8    c0.4,5.5,0.1,15.8-0.4,18.7c-0.2,1.4-0.6,2.9-0.9,4.4C23.5,66.2,24,60.5,23.9,55.8z" />		<path class="aQ-cls-24" d="M28.1,35.8c0.3,2.2,0.5,4.7,0.1,14S26,75.5,25,75.5c-0.3,0,1.4-17.9,1.6-22.9s-0.4-14.5-0.7-17    C25.5,33,27.8,33.5,28.1,35.8z" />		<path class="aQ-cls-24" d="M37.1,34.2c3.1-3.7,3.2-20.4,1.7-21.5c-1.2-0.9-16.5-0.5-18.2,2.1c-1.8,2.8-1.8,17.5,1.6,20    C23.9,36.1,34.7,37,37.1,34.2z" />		<g>			<path class="aQ-cls-24" d="M35.7,34.5c2.4-3.6,2.6-19,1.6-22.1c0.7,0.1,1.2,0.2,1.4,0.3c1.6,1.1,1.5,17.8-1.7,21.5     c-0.5,0.6-1.4,1-2.6,1.3C35,35.2,35.4,34.9,35.7,34.5z" />			<path class="aQ-cls-24" d="M20.5,14.8c0.3-0.5,1-0.8,2-1.2c-0.2,0.2-0.3,0.3-0.4,0.5c-1.5,3-1.5,18.4,1.3,21c0.1,0.1,0.3,0.2,0.5,0.3     c-0.8-0.2-1.5-0.4-1.8-0.7C18.7,32.3,18.7,17.6,20.5,14.8z" />		</g>		<path class="aQ-cls-24" d="M28,24.5c0,3.7,0.4,9.5,0.5,11.6c-0.7,0-1.5-0.1-2.2-0.2c-0.5-2.5-1.1-8.4-1.1-11.3c0-2.7,0.2-9,0.5-11.7    c1-0.2,2.1-0.3,3.1-0.4C28.5,14.9,28,20.8,28,24.5z" />	</g></g><g id="aQ_extracted_tooth" data-name="extracted tooth" style=""><g class="aQ-msng-cls-10"><line class="aQ-msng-cls-11" x1="9" y1="10.51" x2="50.67" y2="52.17" data-color-action="stroke" style="stroke:inherit" /><line class="aQ-msng-cls-11" x1="50.67" y1="10.51" x2="9" y2="52.17" data-color-action="stroke" style="stroke:inherit" /></g></g><g id="aQ_denture" style="">	<g>		<g>							<ellipse transform="matrix(0.1539 -0.9881 0.9881 0.1539 -23.6537 49.9275)" class="aQ-cls-14" cx="17.3" cy="38.8" rx="12.7" ry="12.7" data-color-action="stroke" style="stroke:inherit" />			<line class="aQ-cls-14" x1="10.3" y1="29.2" x2="24.3" y2="48.4" data-color-action="stroke" style="stroke:inherit" />		</g>		<text transform="matrix(1 0 0 1 6.7031 43.357)" class="aQ-cls-15 aQ-cls-16">NA</text>	</g></g><g id="aQ_maryland_bridge_pontic" style="">	<g>		<g>							<ellipse transform="matrix(0.1539 -0.9881 0.9881 0.1539 -23.6537 49.9275)" class="aQ-cls-14" cx="17.3" cy="38.8" rx="12.7" ry="12.7" data-color-action="stroke" style="stroke:inherit" />			<line class="aQ-cls-14" x1="10.3" y1="29.2" x2="24.3" y2="48.4" data-color-action="stroke" style="stroke:inherit" />		</g>		<text transform="matrix(1 0 0 1 6.7031 43.357)" class="aQ-cls-15 aQ-cls-16">NA</text>	</g></g><g id="aQ_maryland_bridge_abutment_mesial" style="">	<g>		<g>							<ellipse transform="matrix(0.1539 -0.9881 0.9881 0.1539 -23.6537 49.9275)" class="aQ-cls-14" cx="17.3" cy="38.8" rx="12.7" ry="12.7" data-color-action="stroke" style="stroke:inherit" />			<line class="aQ-cls-14" x1="10.3" y1="29.2" x2="24.3" y2="48.4" data-color-action="stroke" style="stroke:inherit" />		</g>		<text transform="matrix(1 0 0 1 6.7031 43.357)" class="aQ-cls-15 aQ-cls-16">NA</text>	</g></g><g id="aQ_maryland_bridge_abutment_distal" style="">	<g>		<g>							<ellipse transform="matrix(0.1539 -0.9881 0.9881 0.1539 -23.6537 49.9275)" class="aQ-cls-14" cx="17.3" cy="38.8" rx="12.7" ry="12.7" data-color-action="stroke" style="stroke:inherit" />			<line class="aQ-cls-14" x1="10.3" y1="29.2" x2="24.3" y2="48.4" data-color-action="stroke" style="stroke:inherit" />		</g>		<text transform="matrix(1 0 0 1 6.7031 43.357)" class="aQ-cls-15 aQ-cls-16">NA</text>	</g></g><g id="aQ_maryland_bridge_abutment" style="">	<g>		<g>							<ellipse transform="matrix(0.1539 -0.9881 0.9881 0.1539 -23.6537 49.9275)" class="aQ-cls-14" cx="17.3" cy="38.8" rx="12.7" ry="12.7" data-color-action="stroke" style="stroke:inherit" />			<line class="aQ-cls-14" x1="10.3" y1="29.2" x2="24.3" y2="48.4" data-color-action="stroke" style="stroke:inherit" />		</g>		<text transform="matrix(1 0 0 1 6.7031 43.357)" class="aQ-cls-15 aQ-cls-16">NA</text>	</g></g><g id="aQ_bridge_abutment_mesial" style="">	<g>		<g>							<ellipse transform="matrix(0.1539 -0.9881 0.9881 0.1539 -23.6537 49.9275)" class="aQ-cls-14" cx="17.3" cy="38.8" rx="12.7" ry="12.7" data-color-action="stroke" style="stroke:inherit" />			<line class="aQ-cls-14" x1="10.3" y1="29.2" x2="24.3" y2="48.4" data-color-action="stroke" style="stroke:inherit" />		</g>		<text transform="matrix(1 0 0 1 6.7031 43.357)" class="aQ-cls-15 aQ-cls-16">NA</text>	</g></g><g id="aQ_bridge_abutment_distal" style="">	<g>		<g>							<ellipse transform="matrix(0.1539 -0.9881 0.9881 0.1539 -23.6537 49.9275)" class="aQ-cls-14" cx="17.3" cy="38.8" rx="12.7" ry="12.7" data-color-action="stroke" style="stroke:inherit" />			<line class="aQ-cls-14" x1="10.3" y1="29.2" x2="24.3" y2="48.4" data-color-action="stroke" style="stroke:inherit" />		</g>		<text transform="matrix(1 0 0 1 6.7031 43.357)" class="aQ-cls-15 aQ-cls-16">NA</text>	</g></g><g id="aQ_bridge_abutment" style="">	<g>		<g>							<ellipse transform="matrix(0.1539 -0.9881 0.9881 0.1539 -23.6537 49.9275)" class="aQ-cls-14" cx="17.3" cy="38.8" rx="12.7" ry="12.7" data-color-action="stroke" style="stroke:inherit" />			<line class="aQ-cls-14" x1="10.3" y1="29.2" x2="24.3" y2="48.4" data-color-action="stroke" style="stroke:inherit" />		</g>		<text transform="matrix(1 0 0 1 6.7031 43.357)" class="aQ-cls-15 aQ-cls-16">NA</text>	</g></g><g id="aQ_bridge_pontic" style="">	<g>		<g>							<ellipse transform="matrix(0.1539 -0.9881 0.9881 0.1539 -23.6537 49.9275)" class="aQ-cls-14" cx="17.3" cy="38.8" rx="12.7" ry="12.7" data-color-action="stroke" style="stroke:inherit" />			<line class="aQ-cls-14" x1="10.3" y1="29.2" x2="24.3" y2="48.4" data-color-action="stroke" style="stroke:inherit" />		</g>		<text transform="matrix(1 0 0 1 6.7031 43.357)" class="aQ-cls-15 aQ-cls-16">NA</text>	</g></g><g id="aQ_implant_mini" style="">	<g>		<g>							<ellipse transform="matrix(0.1539 -0.9881 0.9881 0.1539 -23.6537 49.9275)" class="aQ-cls-14" cx="17.3" cy="38.8" rx="12.7" ry="12.7" data-color-action="stroke" style="stroke:inherit" />			<line class="aQ-cls-14" x1="10.3" y1="29.2" x2="24.3" y2="48.4" data-color-action="stroke" style="stroke:inherit" />		</g>		<text transform="matrix(1 0 0 1 6.7031 43.357)" class="aQ-cls-15 aQ-cls-16">NA</text>	</g></g><g id="aQ_implant_cylinder" style="">	<g>		<g>							<ellipse transform="matrix(0.1539 -0.9881 0.9881 0.1539 -23.6537 49.9275)" class="aQ-cls-14" cx="17.3" cy="38.8" rx="12.7" ry="12.7" data-color-action="stroke" style="stroke:inherit" />			<line class="aQ-cls-14" x1="10.3" y1="29.2" x2="24.3" y2="48.4" data-color-action="stroke" style="stroke:inherit" />		</g>		<text transform="matrix(1 0 0 1 6.7031 43.357)" class="aQ-cls-15 aQ-cls-16">NA</text>	</g></g><g id="aQ_implant_blade" style="">	<g>		<g>							<ellipse transform="matrix(0.1539 -0.9881 0.9881 0.1539 -23.6537 49.9275)" class="aQ-cls-14" cx="17.3" cy="38.8" rx="12.7" ry="12.7" data-color-action="stroke" style="stroke:inherit" />			<line class="aQ-cls-14" x1="10.3" y1="29.2" x2="24.3" y2="48.4" data-color-action="stroke" style="stroke:inherit" />		</g>		<text transform="matrix(1 0 0 1 6.7031 43.357)" class="aQ-cls-15 aQ-cls-16">NA</text>	</g></g><g id="aQ_watch_tooth" style="">	<g>		<path class="aQ-cls-13" d="M8.3,153.9c0-1.8,1.4-3.3,3.2-3.3c1.8,0,3.3,1.5,3.3,3.3c0,1.7-1.5,3.2-3.3,3.2    C9.7,157.1,8.3,155.6,8.3,153.9z M9.2,148l-0.8-18.1h6.2L13.7,148H9.2z" data-color-action="fill" style="fill:inherit" />	</g></g><g id="aQ_border" style="">	<rect transform="matrix(-1 8.977784e-11 -8.977784e-11 -1 59 161)" class="aQ-cls-17" width="59" height="161" /></g></defs></g><g class="cQ-cls-1"><g id="_Qc">	<g>		<g>			<path class="cQ-cls-2" d="M37,33.3c3.1,3.7,3.2,20.4,1.7,21.5c-1.2,0.9-16.5,0.5-18.2-2.1c-1.8-2.8-1.8-17.5,1.6-20     C23.9,31.3,34.7,30.5,37,33.3z" />		</g>		<g>			<path class="cQ-cls-3" d="M37,33.3c3.1,3.7,3.2,20.4,1.7,21.5c-1.2,0.9-16.5,0.5-18.2-2.1c-1.8-2.8-1.8-17.5,1.6-20     C23.9,31.3,34.7,30.5,37,33.3z" />		</g>		<path class="cQ-cls-4" d="M38.7,54.8c0.4-0.3,0.7-1.5,0.8-3.3c-0.6,0.5-1.3,1.1-2.2,1.1c-1.5,0-9.2-0.2-14-1.1c-1.8-0.3-3-1-3.7-1.7    c0.2,1.2,0.5,2.2,0.8,2.8C22.2,55.2,37.5,55.7,38.7,54.8z" />		<path class="cQ-cls-5" d="M22.1,39.1c-1.2-0.4,0.2-3.3,1.2-4.2c1.1-1.1,9-1.6,10.8-0.3c1.9,1.3,3,5.1,2.3,5.3c-0.7,0.2-2.3-3.3-4.4-3.4    S28.9,37,27.8,37c-1,0-3.3-0.9-3.8-0.3C23.4,37.2,22.5,39.2,22.1,39.1z" />	</g></g><defs><g id="cQ_mesial" style="">	<path class="cQ-cls-6" d="M39.7,48.5L37,46.9c0.6-1.7,0.3-4,0.6-6.4c0.1-1,0.6-1.6,1.3-2.1C39.5,41.5,39.7,45.4,39.7,48.5z" data-color-action="fill" style="fill:inherit" /></g><g id="cQ_line_angle_4" style="">	<path class="cQ-cls-6" d="M34.2,55.2l-1.6-5.8c1-0.1,1.8-0.3,2.5-0.6c1-0.4,1.6-1.1,1.9-2l2.7,1.6c-0.1,3.2-0.4,5.8-1,6.2   C38.3,55.1,36.5,55.2,34.2,55.2z" data-color-action="fill" style="fill:inherit" /></g><g id="cQ_lingual" style="">	<path class="cQ-cls-6" d="M24.1,54.2l1.2-5.2c1.9,0.4,4.9,0.6,7.3,0.4l1.6,5.8C31.1,55.2,27,54.9,24.1,54.2z" data-color-action="fill" style="fill:inherit" /></g><g id="cQ_line_angle_3" style="">	<path class="cQ-cls-6" d="M20.5,52.6c-0.5-0.8-0.8-2.5-1-4.5l2.7-1.8c0.4,1.2,1,2.1,1.9,2.4c0.3,0.1,0.7,0.2,1.2,0.3l-1.2,5.2   C22.3,53.8,20.9,53.3,20.5,52.6z" data-color-action="fill" style="fill:inherit" /></g><g id="cQ_distal" style="">	<path class="cQ-cls-6" d="M21.2,41.1c0.2,1.5,0.4,3.6,1,5.3l-2.7,1.8c-0.3-2.9-0.2-6.6,0.3-9.7C20.5,39,21.1,39.9,21.2,41.1z" data-color-action="fill" style="fill:inherit" /></g><g id="cQ_mid_lingual" style="">	<ellipse class="cQ-cls-6" cx="29.4" cy="41.1" rx="3" ry="6.1" data-color-action="fill" style="fill:inherit" /></g><g id="cQ_lingual_V" style="">	<path class="cQ-cls-6" d="M24.2,31.9c2.7-0.6,7.2-0.8,10.2,0c-1.4,0.8-3.2,1.3-5.1,1.3C27.4,33.2,25.7,32.7,24.2,31.9z" data-color-action="fill" style="fill:inherit" /></g><g id="cQ_tipped_lingual" style="">	<g>		<path class="cQ-cls-7" d="M31.3,59c-1.2,3.2-4.5,3.6-7.2-5c-0.5-1.5-4.2-1.7-3.6,0c1.9,5.7,5,9.6,8.5,8.7c1.2-0.3,2.3-1.6,2.8-3.2    C31.6,59.4,31.4,59.1,31.3,59z" data-color-action="fill" style="fill:inherit" />		<polygon class="cQ-cls-7" points="29.4,56.2 17.2,56.2 20,47.2   " data-color-action="fill" style="fill:inherit" />	</g></g><g id="cQ_tipped_facial" style=""></g><g id="cQ_surface_restoration_incisal" style="">	<path class="cQ-cls-8" d="M38.7,54.8c-1.2,0.9-15.2,0.5-17.9-1.8l4.7-4.6c0,0,0,0,0,0c1.8,0.4,4.8,0.7,8.1,0.8L38.7,54.8   C38.7,54.8,38.7,54.8,38.7,54.8z" data-color-action="fill" style="fill:inherit" /></g><g id="cQ_surface_restoration_mesial" style="">	<path class="cQ-cls-8" d="M33.6,49.3c0,0,0.1,0,0.1,0c0.1-2.3-0.4-8.8-1-14.2c1.2,3.1,3.6,5.5,6.6,6.7c0.6,5.7,0.3,12.1-0.6,13   L33.6,49.3z" data-color-action="fill" style="fill:inherit" /></g><g id="cQ_surface_restoration_lingual" style="">	<g>		<path class="cQ-cls-8" d="M32.7,35C32.7,35,32.7,35,32.7,35c0.6,5.6,1.1,12,1,14.3c-3.4,0-6.4-0.4-8.2-0.8c-0.2-1.7-0.1-7.6,0.3-12.7    c0.1-0.3,0.2-0.6,0.3-1c1.1,0.4,2.3,0.5,3.5,0.5C30.7,35.4,31.7,35.2,32.7,35z" data-color-action="fill" style="fill:inherit" />			</g></g><g id="cQ_surface_restoration_lingual_V" style="">	<g>				<path class="cQ-cls-8" d="M32,31.6c0.1,1.2,0.3,2.3,0.7,3.4c-1,0.3-2,0.4-3.1,0.4c-1.2,0-2.4-0.2-3.5-0.5c0.3-1,0.5-2.1,0.5-3.2    C28.3,31.5,30.3,31.4,32,31.6z" data-color-action="fill" style="fill:inherit" />	</g></g><g id="cQ_surface_restoration_distal" style="">	<path class="cQ-cls-8" d="M20.5,52.7c-0.9-1.5-1.4-6.1-1.1-10.5c2.9-1.2,5.2-3.5,6.4-6.4c-0.3,5.1-0.5,10.9-0.3,12.6L20.8,53   C20.7,52.9,20.6,52.8,20.5,52.7z" data-color-action="fill" style="fill:inherit" /></g><g id="cQ_sub-erupted" style=""></g><g id="cQ_rotated_mesial" style=""></g><g id="cQ_rotate_distal" style=""></g><g id="cQ_root_canal" style=""></g><g id="cQ_pins" style=""></g><g id="cQ_mesial_drift" style=""></g><g id="cQ_distal_drift" style=""></g><g id="cQ_crown" style="">	<path class="cQ-cls-10" d="M37,33.3c3.1,3.7,3.2,20.4,1.7,21.5c-1.2,0.9-16.5,0.5-18.2-2.1c-1.8-2.8-1.8-17.5,1.6-20   C23.9,31.3,34.7,30.5,37,33.3z" data-color-action="fill" style="fill:inherit" /></g><g id="cQ_cracked_surface_distal" style="">	<polyline class="cQ-cls-11" points="22.5,50.2 18.6,46.4 23.6,46.4 18.6,41.6 23.6,41.6 19.8,37.8  " data-color-action="stroke" style="stroke:inherit" /></g><g id="cQ_cracked_surface_lingual" style="">	<polyline class="cQ-cls-11" points="31.2,50.2 27.3,46.4 32.3,46.4 27.3,41.6 32.3,41.6 28.5,37.8  " data-color-action="stroke" style="stroke:inherit" /></g><g id="cQ_cracked_surface_lingual_V" style="">	<polyline class="cQ-cls-11" points="31.2,50.2 27.3,46.4 32.3,46.4 27.3,41.6 32.3,41.6 28.5,37.8  " data-color-action="stroke" style="stroke:inherit" /></g><g id="cQ_cracked_surface_mesial" style="">	<polyline class="cQ-cls-11" points="39.4,50.2 35.5,46.4 40.5,46.4 35.5,41.6 40.5,41.6 36.7,37.8  " data-color-action="stroke" style="stroke:inherit" /></g><g id="cQ_chipped_surface_distal" style="">	<g>		<line class="cQ-cls-11" x1="25.4" y1="48.5" x2="17.1" y2="40.2" data-color-action="stroke" style="stroke:inherit" />		<line class="cQ-cls-11" x1="17.1" y1="48.5" x2="25.4" y2="40.2" data-color-action="stroke" style="stroke:inherit" />	</g></g><g id="cQ_chipped_surface_lingual" style="">	<g>		<line class="cQ-cls-11" x1="33.7" y1="48.5" x2="25.3" y2="40.2" data-color-action="stroke" style="stroke:inherit" />		<line class="cQ-cls-11" x1="25.3" y1="48.5" x2="33.7" y2="40.2" data-color-action="stroke" style="stroke:inherit" />	</g></g><g id="cQ_chipped_surface_lingual_V" style="">	<g>		<line class="cQ-cls-11" x1="33.7" y1="48.5" x2="25.3" y2="40.2" data-color-action="stroke" style="stroke:inherit" />		<line class="cQ-cls-11" x1="25.3" y1="48.5" x2="33.7" y2="40.2" data-color-action="stroke" style="stroke:inherit" />	</g></g><g id="cQ_chipped_surface_mesial" style="">	<g>		<line class="cQ-cls-11" x1="42" y1="48.5" x2="33.7" y2="40.2" data-color-action="stroke" style="stroke:inherit" />		<line class="cQ-cls-11" x1="33.7" y1="48.5" x2="42" y2="40.2" data-color-action="stroke" style="stroke:inherit" />	</g></g><g id="cQ_abscess" style=""></g><g id="cQ_missing_tooth" style="" data-name="missing tooth">	<g>		<g>			<path class="cQ-cls-2" d="M37,33.3c3.1,3.7,3.2,20.4,1.7,21.5c-1.2,0.9-16.5,0.5-18.2-2.1c-1.8-2.8-1.8-17.5,1.6-20     C23.9,31.3,34.7,30.5,37,33.3z" data-color-action="fill,stroke" style="fill,stroke:inherit" />		</g>		<g>			<path class="cQ-cls-9" d="M37,33.3c3.1,3.7,3.2,20.4,1.7,21.5c-1.2,0.9-16.5,0.5-18.2-2.1c-1.8-2.8-1.8-17.5,1.6-20     C23.9,31.3,34.7,30.5,37,33.3z" />		</g>		<path class="cQ-cls-9" d="M38.7,54.8c0.4-0.3,0.7-1.5,0.8-3.3c-0.6,0.5-1.3,1.1-2.2,1.1c-1.5,0-9.2-0.2-14-1.1c-1.8-0.3-3-1-3.7-1.7    c0.2,1.2,0.5,2.2,0.8,2.8C22.2,55.2,37.5,55.7,38.7,54.8z" />		<path class="cQ-cls-9" d="M22.1,39.1c-1.2-0.4,0.2-3.3,1.2-4.2c1.1-1.1,9-1.6,10.8-0.3c1.9,1.3,3,5.1,2.3,5.3c-0.7,0.2-2.3-3.3-4.4-3.4    S28.9,37,27.8,37c-1,0-3.3-0.9-3.8-0.3C23.4,37.2,22.5,39.2,22.1,39.1z" />	</g></g><g id="cQ_watch_tooth" style=""></g><g id="cQ_border" style="">	<rect transform="matrix(-1 8.977784e-11 -8.977784e-11 -1 59 66)" class="cQ-cls-12" width="59" height="66" /></g></defs></g></svg>