<svg version="1.1" xmlns="http://www.w3.org/2000/svg" xmlns:xlink="http://www.w3.org/1999/xlink" x="0px" y="0px" viewBox="0 0 59 283" style="enable-background:new 0 0 59 161;" xml:space="preserve"><defs><style type="text/css">.aJ-cls-2{fill:#C4C6C7;stroke:#C4C6C7;stroke-width:5;stroke-miterlimit:10;}.aJ-cls-3{fill:#F5D7CF;stroke:none;}.aJ-cls-4{fill:#F2C6BC;stroke:none;}.aJ-cls-5{fill:#FAE8E3;stroke:none;}.aJ-cls-6{fill:#EEEFEF;stroke:none;}.aJ-cls-7{fill:#FBFBFB;stroke:none;}.aJ-cls-8{fill:#E2E3E4;stroke:none;}.aJ-cls-9{fill:#929497;stroke:none;}.aJ-cls-10{font-family:'ProximaNova-Semibold',sans-serif;}.aJ-cls-11{font-size:15px;}.aJ-cls-12{opacity:0.55;fill:#3C3D3D;stroke:none;}.aJ-cls-13{fill:#FFD403;stroke:none;}.aJ-cls-14{fill:none;stroke:#C52636;stroke-width:3.622;stroke-miterlimit:10;}.aJ-cls-15{font-family:'ProximaNova-Bold',sans-serif;}.aJ-cls-16{font-size:13.6587px;}.aJ-cls-17{fill:none;stroke:none;}.aJ-cls-18{fill:#28418B;stroke:none;}.aJ-cls-19{fill:#787878;stroke:none;}.aJ-cls-20{fill:none;stroke:#C52636;stroke-width:2;stroke-miterlimit:10;}.aJ-cls-21{fill:#C52636;stroke:none;}.aJ-cls-22{fill:none;stroke:#C52636;stroke-width:2;stroke-linecap:round;stroke-miterlimit:10;}.aJ-cls-23{fill:#C5C7C9;stroke:none;}.aJ-cls-24{fill:#FFF;stroke:none;}.aJ-cls-25{fill:none;stroke:#28418B;stroke-width:2;stroke-miterlimit:10;}.aJ-cls-26{fill:#FFEF3E;stroke:none;}.aJ-cls-27{fill:none;stroke:#C52636;stroke-width:1.25;stroke-miterlimit:10;}.aJ-cls-28{fill:#9B9999;stroke:none;}.aJ-cls-29{fill:#DBDBDC;stroke:none;}.aJ-cls-30{fill:#3C3D3D;stroke:none;}.bJ-cls-2{fill:#C4C6C7;stroke:#C4C6C7;stroke-width:5;stroke-miterlimit:10;}.bJ-cls-3{fill:#EEEFEF;stroke:none;}.bJ-cls-4{fill:#E2E3E4;stroke:none;}.bJ-cls-5{fill:#FBFBFB;stroke:none;}.bJ-cls-6{opacity:0.55;fill:#3C3D3D;stroke:none;}.bJ-cls-7{fill:#787878;stroke:none;}.bJ-cls-8{fill:none;stroke:none;}.bJ-cls-9{fill:#28418B;stroke:none;}.bJ-cls-10{font-family:'ProximaNova-Semibold',sans-serif;}.bJ-cls-11{font-size:33px;}.bJ-cls-12{fill:#FFF;stroke:none;}.bJ-cls-13{fill:#FFEF3E;stroke:none;}.bJ-cls-14{fill:none;stroke:#C52636;stroke-width:1.25;stroke-miterlimit:10;}.cJ-cls-2{fill:#C4C6C7;stroke:#C4C6C7;stroke-width:5;stroke-miterlimit:10;}.cJ-cls-3{fill:#EEEFEF;stroke:none;}.cJ-cls-4{fill:#E2E3E4;stroke:none;}.cJ-cls-5{fill:#FBFBFB;stroke:none;}.cJ-cls-6{opacity:0.55;fill:#3C3D3D;stroke:none;}.cJ-cls-7{fill:#28418B;stroke:none;}.cJ-cls-8{fill:none;stroke:none;}.cJ-cls-9{fill:#787878;stroke:none;}.cJ-cls-10{fill:#FFF;stroke:none;}.cJ-cls-11{fill:#FFEF3E;stroke:none;}.cJ-cls-12{fill:none;stroke:#C52636;stroke-width:1.25;stroke-miterlimit:10;}.aJ-msng-cls-1{isolation:isolate;}.aJ-msng-cls-2{fill:#C4C6C7;stroke:#C4C6C7;stroke-width:5px;}.aJ-msng-cls-11,.aJ-msng-cls-2{stroke-miterlimit:10;}.aJ-msng-cls-3{fill:#F5D7CF;stroke:none;}.aJ-msng-cls-4{fill:#F2C6BC;stroke:none;}.aJ-msng-cls-5{fill:#FAE8E3;stroke:none;}.aJ-msng-cls-6{fill:#EEEFEF;stroke:none;}.aJ-msng-cls-7{fill:#FBFBFB;stroke:none;}.aJ-msng-cls-8{fill:#E2E3E4;stroke:none;}.aJ-msng-cls-9{font-size:15px;fill:#929497;font-family:ProximaNova-Semibold,Proxima Nova;font-weight:700;stroke:none;}.aJ-msng-cls-10{}.aJ-msng-cls-11,.aJ-msng-cls-12{fill:none;stroke:none;}.aJ-msng-cls-11{stroke:#787878;stroke-width:6.25px;}</style></defs><title>ToothJS_Layered</title><g class="aJ-cls-1"><g id="_Ja">	<g>		<path class="aJ-cls-2" d="M8.1,129.6c0.8-3.8,1.5-7.1,2.7-8.5c2.2-7.1,1.3-20.7,0.9-27.1c-0.6-9.4,2-19.9,4.5-20.2    c1.3-0.2,2,9.2,3.9,17.6c1,4.4,3.3,8.4,5.5,10.9c1.2-2.7,2.4-6,3.2-9.1c2.5-10.4,1.7-19,2.8-19.3c1.1-0.3,3.3,3.1,4.4,9.7    c0.7,3.9,1.3,10.8,1.4,16.5c2.3-2.5,4.5-5.7,5.7-9.2c2.9-8.5,4.7-18.6,6.7-18.7c2-0.1,3.4,5.7,2,14.3c-0.8,4.7-7.3,25.6-7.2,27.7    c0.2,2.5,1,4.3,1.8,6.2c0.1,0,0.2,0.1,0.2,0.1c2.6,1.4,3.1,10.8,4,15.7c0.8,4.6-3.3,8.8-10.5,10.3c-2,0.4-5.2-0.7-8.3-1.8    c-1.9-0.7-3.2,0.1-4.9,0.8c-3.4,1.5-6,3.2-9.1,3.1s-7.9-1-10.7-6.5C6.2,140.1,6.9,135.2,8.1,129.6z" />		<path class="aJ-cls-3" d="M22.8,108c0,0,4.2-7.7,5.9-14.9c2.5-10.4,1.7-19,2.8-19.3s3.3,3.1,4.4,9.7c1.1,6.5,2.2,21.4,0.8,24.7    C35.3,111.4,23.5,113.6,22.8,108z" />		<path class="aJ-cls-4" d="M36.7,108.1c1.3-3,0.4-16.1-0.6-23.2c0.2,5.5-0.3,12.8-1.6,14.4c-1.9,2.3-5.7,2.8-6.2,1.4    c-0.5-1.4,1.6-6,2.2-11.6c0.3-2.9,0.2-5.8,0.1-8c-0.3,3.3-0.7,7.5-1.8,12c-1.7,7.2-5.9,14.9-5.9,14.9    C23.5,113.6,35.3,111.4,36.7,108.1z" />		<path class="aJ-cls-3" d="M9.6,123.6c3.6-5.8,2.5-22.3,2-29.6c-0.6-9.4,2-19.9,4.5-20.2c1.3-0.2,2,9.2,3.9,17.6    c1.7,7.3,6.8,13.7,9.8,13.5c3-0.1,10.6-6.4,13.2-14.1c2.9-8.5,4.7-18.6,6.7-18.7c2-0.1,3.4,5.7,2,14.3c-0.8,4.7-7.3,25.6-7.2,27.7    c0.3,3.6,1.7,5.8,3,8.6C48.6,124.9,8.4,125.6,9.6,123.6z" />		<path class="aJ-cls-5" d="M50.2,73.8c0.4-0.4,1,1.5,0.7,5.2c-0.5,8.5-4,17.7-8.3,25.6c-3.1,5.7-4.4,11.2-2.8,15.1    c1.6,3.9,3.7,6.8-0.4,6.3c-2.8-0.4-3.8-5.5-4-9.2c-0.3-9.7,8.3-13.2,13.9-33.1C51.2,76.9,49.5,74.4,50.2,73.8z" />		<path class="aJ-cls-4" d="M14.3,108.1c0,5.2,0.3,11.6-1,13.2c-0.4,0.5-1.3,1.1-3.3,1.7c3.3-6.3,2.1-21.9,1.6-28.9    c-0.3-5.1,0.3-10.6,1.4-14.6c-0.4,3.8-0.8,9.7-0.3,12.5C13.3,96.3,14.3,104.1,14.3,108.1z" />		<path class="aJ-cls-4" d="M51.7,86.3c-0.8,4.7-7.3,25.6-7.2,27.7c0.3,2.9,1.2,4.9,2.3,7.1l-1.7-0.3c0,0-1.3-1.4-2.1-4.1    c-1-3.5,0.1-6.2,1.5-10.2c1.7-4.9,3.7-9.9,6.6-22.8c1.3-5.7,0.4-8.8,0.2-10.3C52.3,75.5,52.7,80.2,51.7,86.3z" />		<path class="aJ-cls-4" d="M46.4,79.3c-1,4.8-2.4,10.3-3.2,12.9c-1.1,4-8.7,16.7-14.8,15.1c-6.1-1.6-9.6-14.9-10.1-17.8    c-0.7-4.2-0.7-8.1-0.8-11.9c0.6,3.5,1.3,8.8,2.5,13.7c1.7,7.3,6.8,13.7,9.8,13.5c3-0.1,10.6-6.4,13.2-14.1    C44.4,86.9,45.5,82.7,46.4,79.3z" />		<path class="aJ-cls-6" d="M11.3,120.6c-1.5,0.8-2.3,4.6-3.3,9c-1.2,5.6-1.9,10.5-1,12.3c2.8,5.4,7.5,6.4,10.7,6.5s5.7-1.6,9.1-3.1    c1.7-0.7,3-1.5,4.9-0.8c3.1,1.1,6.3,2.2,8.3,1.8c7.2-1.6,11.3-5.8,10.5-10.3c-0.9-4.8-1.4-14.3-4-15.7    C43.1,118.3,16.4,117.8,11.3,120.6z" />		<path class="aJ-cls-7" d="M21.4,143.9c0-0.8,1.3-2.6,1.6-3.6c0.3-1,0.9-0.4,0.9,0.2c0,0.6,0.3,3.1-0.2,3.7    C23.1,144.9,21.4,145,21.4,143.9z" />		<path class="aJ-cls-8" d="M46.6,120.2C46.6,120.2,46.6,120.2,46.6,120.2c0.1,0.1,0.2,0.1,0.3,0.2c2.4,1.9,2.9,10.8,3.7,15.5    c0.5,2.8-0.9,5.5-3.6,7.5c0.9-1.1,1.6-2.7,1.8-4.7c0.4-3.9-1.3-14.4-3.1-18.8C46,120,46.4,120.1,46.6,120.2z" />		<path class="aJ-cls-8" d="M9.5,145.2c-0.9-0.9-1.7-1.9-2.4-3.3c-0.9-1.8-0.2-6.7,1-12.3c1-4.5,1.8-8.2,3.3-9c0.4-0.2,1-0.4,1.6-0.6    c-1,1.9-2.2,5.7-3.1,10.3c-1.4,7-2,11.6-0.8,14.2C9.2,144.7,9.3,145,9.5,145.2z" />		<path class="aJ-cls-8" d="M31.8,144.4c-1.9-0.7-3.2,0.1-4.9,0.8c-0.8,0.4-1.6,0.7-2.3,1.1c1.3-0.7,3.3-2.4,4.4-2.7    c1.4-0.4,2.1-0.3,2.7,0.1c0.2,0.1,1,0.7,1.7,1.2C32.9,144.8,32.3,144.6,31.8,144.4z" />		<path class="aJ-cls-5" d="M16.4,77.8c0.8-0.2-0.8,2.7,0.7,15.5c1.1,9.4,3.5,12.6,3,13c-0.5,0.4-3.3-4.8-4.6-14.4    C14.8,85.9,15.8,78,16.4,77.8z" />		<path class="aJ-cls-5" d="M32.3,75.9c-0.4,0.2,0.7,2.5,1.2,6.8c0.5,4.3-0.4,8.1-0.1,8.2s1.5-4.5,1-8.3C33.9,78.9,32.5,75.9,32.3,75.9z" />		<path class="aJ-cls-7" d="M35.7,118.8c1.3,0.1,2.6,0.1,3.8,0.2c0.5,1.9,1.2,4.9,1.5,7.2c0.6,5.1,0.9,10.8,0,17.4    c-0.1,0.8-0.2,1.6-0.3,2.5c-0.2,0-0.3,0.1-0.5,0.1c-1.1,0.2-2.4,0-4-0.4c0.2-0.8,0.5-1.5,0.5-2.2c0.3-2.2,1.4-8.5,0.6-18.5    C37.1,122.8,36.2,120.4,35.7,118.8z" />	</g>	<text transform="matrix(1 0 0 1 20.7324 20.508)" class="aJ-cls-9 aJ-cls-10 aJ-cls-11">JS</text></g><defs><g id="aJS_bone_graft" style="">	<g>		<g>							<ellipse transform="matrix(0.1539 -0.9881 0.9881 0.1539 -106.1107 120.5387)" class="aJ-cls-14" cx="17.3" cy="122.2" rx="12.7" ry="12.7" data-color-action="stroke" style="stroke:inherit" />			<line class="aJ-cls-14" x1="10.3" y1="112.6" x2="24.3" y2="131.8" data-color-action="stroke" style="stroke:inherit" />		</g>		<text transform="matrix(1 0 0 1 6.7033 126.808)" class="aJ-cls-15 aJ-cls-16">NA</text>	</g></g><g id="aJS_splinted_crowns" style="">	<g>		<g>							<ellipse transform="matrix(0.1539 -0.9881 0.9881 0.1539 -106.1107 120.5387)" class="aJ-cls-14" cx="17.3" cy="122.2" rx="12.7" ry="12.7" data-color-action="stroke" style="stroke:inherit" />			<line class="aJ-cls-14" x1="10.3" y1="112.6" x2="24.3" y2="131.8" data-color-action="stroke" style="stroke:inherit" />		</g>		<text transform="matrix(1 0 0 1 6.7033 126.808)" class="aJ-cls-15 aJ-cls-16">NA</text>	</g></g><g id="aJS_mesial" style="">	<path class="aJ-cls-12" d="M11.2,135.2c0.1,0.9,0.3,1.9,0.5,2.9l-3.6,5.6c-0.4-0.5-0.7-1.1-1-1.7c-0.9-1.7-0.3-6.1,0.8-11.3   C9.5,131.5,10.9,132.9,11.2,135.2z" data-color-action="fill" style="fill:inherit" /></g><g id="aJS_line_angle_2" style="">	<path class="aJ-cls-12" d="M17.7,142c1.6-0.1,2.7-0.4,3.7-0.8l-1.6,7c-0.7,0.1-1.3,0.2-2,0.2c-2.8-0.1-6.8-0.8-9.6-4.7l3.6-5.6   C12.4,140.3,13.8,142.3,17.7,142z" data-color-action="fill" style="fill:inherit" /></g><g id="aJS_groove_1" style="">	<path class="aJ-cls-12" d="M27.7,138.1c2.6-0.2,4.5,1.2,7.1,2.1l1.4,5.6c-1.4-0.4-2.9-0.9-4.4-1.4c-1.9-0.7-3.2,0.1-4.9,0.8   c-2.7,1.1-4.8,2.4-7.1,2.9l1.6-7C23.8,140.1,24.8,138.4,27.7,138.1z" data-color-action="fill" style="fill:inherit" /></g><g id="aJS_line_angle_1" style="">	<path class="aJ-cls-12" d="M39.8,141c2.4-0.1,4-1.7,5.3-4l3.6,4.8c-1.8,2-4.7,3.5-8.5,4.4c-1.1,0.2-2.4,0-3.9-0.4l-1.4-5.6   C36.2,140.8,37.8,141.2,39.8,141z" data-color-action="fill" style="fill:inherit" /></g><g id="aJS_distal" style="">	<path class="aJ-cls-12" d="M48.6,141.9l-3.6-4.8c0.8-1.5,1.4-3.3,2-5.3c0.4-1.4,1.4-2.4,2.6-3.1c0.4,2.6,0.7,5.2,1,7.1   C51,138,50.3,140.1,48.6,141.9z" data-color-action="fill" style="fill:inherit" /></g><g id="aJS_buccal_pit" style="">	<ellipse class="aJ-cls-12" cx="29.5" cy="130.4" rx="3.7" ry="6" data-color-action="fill" style="fill:inherit" /></g><g id="aJS_buccal_V" style="">	<path class="aJ-cls-12" d="M41.7,119.2c-3.8,1.7-8,2.8-12.3,2.8c-4.4,0-8.7-1-12.6-2.7C23.9,118.4,35.1,118.5,41.7,119.2z" data-color-action="fill" style="fill:inherit" /></g><g id="aJS_veneer" style="">	<g>		<g>							<ellipse transform="matrix(0.1539 -0.9881 0.9881 0.1539 -106.1107 120.5387)" class="aJ-cls-14" cx="17.3" cy="122.2" rx="12.7" ry="12.7" data-color-action="stroke" style="stroke:inherit" />			<line class="aJ-cls-14" x1="10.3" y1="112.6" x2="24.3" y2="131.8" data-color-action="stroke" style="stroke:inherit" />		</g>		<text transform="matrix(1 0 0 1 6.7033 126.808)" class="aJ-cls-15 aJ-cls-16">NA</text>	</g></g><g id="aJS_tissue_graft" style="">	<g>		<g>							<ellipse transform="matrix(0.1539 -0.9881 0.9881 0.1539 -106.1107 120.5387)" class="aJ-cls-14" cx="17.3" cy="122.2" rx="12.7" ry="12.7" data-color-action="stroke" style="stroke:inherit" />			<line class="aJ-cls-14" x1="10.3" y1="112.6" x2="24.3" y2="131.8" data-color-action="stroke" style="stroke:inherit" />		</g>		<text transform="matrix(1 0 0 1 6.7033 126.808)" class="aJ-cls-15 aJ-cls-16">NA</text>	</g></g><g id="aJS_tipped_lingual" style="">	<rect x="28" y="3.2" transform="matrix(-1 -4.486867e-11 4.486867e-11 -1 59 9.5)" class="aJ-cls-17" width="3" height="3" /></g><g id="aJS_tipped_facial" style="">	<g>		<path class="aJ-cls-18" d="M32.9,148.8c-1.2,3.2-4.5,3.6-7.2-5c-0.5-1.5-4.2-1.7-3.6,0c1.9,5.7,5,9.6,8.5,8.7c1.2-0.3,2.3-1.6,2.8-3.2    C33.2,149.2,33,148.9,32.9,148.8z" data-color-action="fill" style="fill:inherit" />		<polygon class="aJ-cls-18" points="31,146 18.8,146 21.6,137   " data-color-action="fill" style="fill:inherit" />	</g></g><g id="aJS_surface_restoration_occlusal" style="">	<path class="aJ-cls-19" d="M31.8,144.5c-1.9-0.7-3.2,0.1-4.9,0.8c-3.4,1.5-6,3.2-9.1,3.1c-2,0-4.7-0.5-7.1-2.2l3.6-6   c0.7,0.7,1.8,1.2,3.6,1.2l0,0c0.8,0,2.1-0.6,3.6-1.4c0.8-0.4,1.7-0.8,2.6-1.2l0.5-0.2c1.4-0.6,3.3-1.4,5.8-1.4   c1.3,0,2.5,0.2,3.8,0.7c1.2,0.4,3.8,1.3,4.8,1.5c1-0.2,1.9-0.6,2.5-0.9l5.2,5.1c-1.7,1.2-3.9,2.1-6.6,2.7   C38.2,146.8,35,145.6,31.8,144.5z" data-color-action="fill" style="fill:inherit" /></g><g id="aJS_surface_restoration_mesial" style="">	<path class="aJ-cls-19" d="M7.1,142c-0.9-1.8-0.2-6.7,1-12.3c0.1-0.5,0.2-1,0.3-1.5c3.2-0.3,6-1.9,7.9-4.3c-0.6,3.2-1.2,6.5-1.4,7.2   c-1.1,5.2-1.3,7.4-1.3,8.3c0.2,0.3,0.4,0.6,0.6,0.8l-3.6,6C9.4,145.3,8.1,143.9,7.1,142z" data-color-action="fill" style="fill:inherit" /></g><g id="aJS_surface_restoration_buccal" style="">	<g>		<path class="aJ-cls-19" d="M16.4,123.9c1-1.2,1.7-2.6,2.1-4.2c3.1,2.4,6.9,3.8,11.1,3.8c4,0,7.6-1.3,10.6-3.5c0.3,1.3,0.8,2.6,1.5,3.7    c0.7,3.9,1.4,8.1,1.5,9c0.2,1.5,0.4,2.9,0.6,4.2c-0.3,0.4-1.6,1.7-4.7,2.4c-1-0.1-3.6-1-4.8-1.5c-1.2-0.4-2.5-0.7-3.8-0.7    c-2.5,0-4.4,0.8-5.8,1.4l-0.5,0.2c-0.9,0.4-1.8,0.8-2.6,1.2c-1.5,0.7-2.9,1.4-3.6,1.4l0,0c-2.4,0-3.5-1-4.2-2    c0-0.8,0.1-3.1,1.3-8.3C15.1,130.4,15.7,127.1,16.4,123.9z" data-color-action="fill" style="fill:inherit" />			</g></g><g id="aJS_surface_restoration_buccal_V" style="">	<g>				<path class="aJ-cls-19" d="M18.5,119.7c0.1-0.2,0.1-0.4,0.2-0.6c6.4-0.6,15.2-0.5,21.3,0c0,0.3,0.1,0.7,0.2,1c-3,2.2-6.6,3.5-10.6,3.5    C25.4,123.6,21.5,122.1,18.5,119.7z" data-color-action="fill" style="fill:inherit" />	</g></g><g id="aJS_surface_restoration_distal" style="">	<path class="aJ-cls-19" d="M43.7,137c-0.2-1.3-0.4-2.7-0.6-4.2c-0.1-1-0.8-5.2-1.5-9c1.7,2.8,4.6,4.8,8.1,5.3c0.4,2.5,0.6,5,1,6.9   c0.5,2.9-0.9,5.6-3.9,7.6l-5.2-5.1C42.9,137.9,43.5,137.3,43.7,137z" data-color-action="fill" style="fill:inherit" /></g><g id="aJS_surface_restoration" style="">	<g>		<g>			<path class="aJ-cls-19" d="M36.2,145.9c1.5,0.4,2.9,0.6,3.9,0.4c7.2-1.6,11.3-5.8,10.5-10.3c-0.4-2-0.7-4.7-1-7.3     c-0.8,0.9-1.5,2.5-1.7,5.3c-0.4,4.3-3.5,5.6-6,6.2C37.3,141.2,38.5,144.2,36.2,145.9z M7.1,141.9c2.8,5.4,7.5,6.4,10.7,6.5     c1.6,0,3.1-0.4,4.7-1.1c-1.7-0.3-3-0.9-3.3-1.9c-1.5-5.6-4.8-3.6-6.7-6.8c-2.1-3.5-1.3-6.2-4.9-6.3     C6.7,136.7,6.3,140.4,7.1,141.9z" data-color-action="fill" style="fill:inherit" />		</g>	</g></g><g id="aJS_supra-erupted" style="">	<g>		<g>							<ellipse transform="matrix(0.1539 -0.9881 0.9881 0.1539 -106.1107 120.5387)" class="aJ-cls-14" cx="17.3" cy="122.2" rx="12.7" ry="12.7" data-color-action="stroke" style="stroke:inherit" />			<line class="aJ-cls-14" x1="10.3" y1="112.6" x2="24.3" y2="131.8" data-color-action="stroke" style="stroke:inherit" />		</g>		<text transform="matrix(1 0 0 1 6.7033 126.808)" class="aJ-cls-15 aJ-cls-16">NA</text>	</g></g><g id="aJS_sub-erupted" style="">	<g>		<g>			<line class="aJ-cls-20" x1="29.5" y1="110.2" x2="29.5" y2="117.1" data-color-action="stroke" style="stroke:inherit" />			<g>				<polygon class="aJ-cls-21" points="25.5,111.4 29.5,104.5 33.5,111.4     " data-color-action="fill" style="fill:inherit" />			</g>		</g>	</g></g><g id="aJS_rotated_mesial" style="">	<g>		<path class="aJ-cls-18" d="M54.4,127c2.8,1.7,2.2,5.1-9.6,5.5c-5,0.1-8.4,0-8.4,0l0.1,2.8c0,0,0.9,0.1,7.7-0.2    c7.2-0.3,13.2-1.7,12.9-5.6c-0.1-1-1-2.1-2.2-2.7C54.7,126.8,54.5,126.9,54.4,127z" data-color-action="fill" style="fill:inherit" />		<polygon class="aJ-cls-18" points="42.4,128.2 42.4,139.4 32.7,133.8   " data-color-action="fill" style="fill:inherit" />	</g></g><g id="aJS_rotated_distal" style="">	<g>		<path class="aJ-cls-18" d="M4.3,127c-2.8,1.7-2.2,5.1,9.6,5.5c5,0.1,8.4,0,8.4,0l-0.1,2.8c0,0-0.9,0.1-7.7-0.2    c-7.2-0.3-13.2-1.7-12.9-5.6c0.1-1,1-2.1,2.2-2.7C4,126.8,4.2,126.9,4.3,127z" data-color-action="fill" style="fill:inherit" />		<polygon class="aJ-cls-18" points="16.3,128.2 16.3,139.4 26.1,133.8   " data-color-action="fill" style="fill:inherit" />	</g></g><g id="aJS_root_tips" style="">	<g>		<g>							<ellipse transform="matrix(0.1539 -0.9881 0.9881 0.1539 -106.1107 120.5387)" class="aJ-cls-14" cx="17.3" cy="122.2" rx="12.7" ry="12.7" data-color-action="stroke" style="stroke:inherit" />			<line class="aJ-cls-14" x1="10.3" y1="112.6" x2="24.3" y2="131.8" data-color-action="stroke" style="stroke:inherit" />		</g>		<text transform="matrix(1 0 0 1 6.7033 126.808)" class="aJ-cls-15 aJ-cls-16">NA</text>	</g></g><g id="aJS_root_decay" style="">	<g>		<g>							<ellipse transform="matrix(0.1539 -0.9881 0.9881 0.1539 -106.1107 120.5387)" class="aJ-cls-14" cx="17.3" cy="122.2" rx="12.7" ry="12.7" data-color-action="stroke" style="stroke:inherit" />			<line class="aJ-cls-14" x1="10.3" y1="112.6" x2="24.3" y2="131.8" data-color-action="stroke" style="stroke:inherit" />		</g>		<text transform="matrix(1 0 0 1 6.7033 126.808)" class="aJ-cls-15 aJ-cls-16">NA</text>	</g><g id="root_decay_3">	<g>		<g>							<ellipse transform="matrix(0.1539 -0.9881 0.9881 0.1539 -106.1107 120.5387)" class="aJ-cls-14" cx="17.3" cy="122.2" rx="12.7" ry="12.7" data-color-action="stroke" style="stroke:inherit" />			<line class="aJ-cls-14" x1="10.3" y1="112.6" x2="24.3" y2="131.8" data-color-action="stroke" style="stroke:inherit" />		</g>		<text transform="matrix(1 0 0 1 6.7033 126.808)" class="aJ-cls-15 aJ-cls-16">NA</text>	</g></g><g id="root_decay_2">	<g>		<g>							<ellipse transform="matrix(0.1539 -0.9881 0.9881 0.1539 -106.1107 120.5387)" class="aJ-cls-14" cx="17.3" cy="122.2" rx="12.7" ry="12.7" data-color-action="stroke" style="stroke:inherit" />			<line class="aJ-cls-14" x1="10.3" y1="112.6" x2="24.3" y2="131.8" data-color-action="stroke" style="stroke:inherit" />		</g>		<text transform="matrix(1 0 0 1 6.7033 126.808)" class="aJ-cls-15 aJ-cls-16">NA</text>	</g></g><g id="root_decay_1">	<g>		<g>							<ellipse transform="matrix(0.1539 -0.9881 0.9881 0.1539 -106.1107 120.5387)" class="aJ-cls-14" cx="17.3" cy="122.2" rx="12.7" ry="12.7" data-color-action="stroke" style="stroke:inherit" />			<line class="aJ-cls-14" x1="10.3" y1="112.6" x2="24.3" y2="131.8" data-color-action="stroke" style="stroke:inherit" />		</g>		<text transform="matrix(1 0 0 1 6.7033 126.808)" class="aJ-cls-15 aJ-cls-16">NA</text>	</g></g></g><g id="aJS_root_canal" style="">	<line class="aJ-cls-22" x1="15.7" y1="79.7" x2="20.1" y2="116.5" data-color-action="stroke" style="stroke:inherit" /><g id="root_canal_3">	<line class="aJ-cls-22" x1="15.7" y1="79.7" x2="20.1" y2="116.5" data-color-action="stroke" style="stroke:inherit" /></g><g id="root_canal_2">	<line class="aJ-cls-22" x1="32.6" y1="79.2" x2="30.7" y2="116.2" data-color-action="stroke" style="stroke:inherit" /></g><g id="root_canal_1">	<line class="aJ-cls-22" x1="50" y1="74.8" x2="39.4" y2="116.5" data-color-action="stroke" style="stroke:inherit" /></g></g><g id="aJS_root_abrasion" style="">	<g>		<g>							<ellipse transform="matrix(0.1539 -0.9881 0.9881 0.1539 -106.1107 120.5387)" class="aJ-cls-14" cx="17.3" cy="122.2" rx="12.7" ry="12.7" data-color-action="stroke" style="stroke:inherit" />			<line class="aJ-cls-14" x1="10.3" y1="112.6" x2="24.3" y2="131.8" data-color-action="stroke" style="stroke:inherit" />		</g>		<text transform="matrix(1 0 0 1 6.7033 126.808)" class="aJ-cls-15 aJ-cls-16">NA</text>	</g><g id="root_abrasion_3">	<g>		<g>							<ellipse transform="matrix(0.1539 -0.9881 0.9881 0.1539 -106.1107 120.5387)" class="aJ-cls-14" cx="17.3" cy="122.2" rx="12.7" ry="12.7" data-color-action="stroke" style="stroke:inherit" />			<line class="aJ-cls-14" x1="10.3" y1="112.6" x2="24.3" y2="131.8" data-color-action="stroke" style="stroke:inherit" />		</g>		<text transform="matrix(1 0 0 1 6.7033 126.808)" class="aJ-cls-15 aJ-cls-16">NA</text>	</g></g><g id="root_abrasion_2">	<g>		<g>							<ellipse transform="matrix(0.1539 -0.9881 0.9881 0.1539 -106.1107 120.5387)" class="aJ-cls-14" cx="17.3" cy="122.2" rx="12.7" ry="12.7" data-color-action="stroke" style="stroke:inherit" />			<line class="aJ-cls-14" x1="10.3" y1="112.6" x2="24.3" y2="131.8" data-color-action="stroke" style="stroke:inherit" />		</g>		<text transform="matrix(1 0 0 1 6.7033 126.808)" class="aJ-cls-15 aJ-cls-16">NA</text>	</g></g><g id="root_abrasion_1">	<g>		<g>							<ellipse transform="matrix(0.1539 -0.9881 0.9881 0.1539 -106.1107 120.5387)" class="aJ-cls-14" cx="17.3" cy="122.2" rx="12.7" ry="12.7" data-color-action="stroke" style="stroke:inherit" />			<line class="aJ-cls-14" x1="10.3" y1="112.6" x2="24.3" y2="131.8" data-color-action="stroke" style="stroke:inherit" />		</g>		<text transform="matrix(1 0 0 1 6.7033 126.808)" class="aJ-cls-15 aJ-cls-16">NA</text>	</g></g></g><g id="aJS_pins" style="">	<g>		<g>							<rect x="38.3" y="109.6" transform="matrix(-1 -4.481272e-11 4.481272e-11 -1 78.8253 241.3239)" class="aJ-cls-19" width="2.3" height="22" data-color-action="fill" style="fill:inherit" />							<rect x="39.6" y="109.6" transform="matrix(-1 -4.267887e-11 4.267887e-11 -1 79.5078 241.3239)" class="aJ-cls-23" width="0.3" height="22" />		</g>		<g>							<rect x="34" y="109.6" transform="matrix(-1 -4.481272e-11 4.481272e-11 -1 70.2115 241.3239)" class="aJ-cls-19" width="2.3" height="22" data-color-action="fill" style="fill:inherit" />							<rect x="35.3" y="109.6" transform="matrix(-1 -4.801371e-11 4.801371e-11 -1 70.8939 241.3239)" class="aJ-cls-23" width="0.3" height="22" />		</g>	</g>	<g>		<g>							<rect x="21.8" y="109.6" transform="matrix(-1 -4.481272e-11 4.481272e-11 -1 45.8567 241.3239)" class="aJ-cls-19" width="2.3" height="22" data-color-action="fill" style="fill:inherit" />							<rect x="23.1" y="109.6" transform="matrix(-1 -4.801371e-11 4.801371e-11 -1 46.5391 241.3239)" class="aJ-cls-23" width="0.3" height="22" />		</g>		<g>							<rect x="17.5" y="109.6" transform="matrix(-1 -4.481272e-11 4.481272e-11 -1 37.2428 241.3239)" class="aJ-cls-19" width="2.3" height="22" data-color-action="fill" style="fill:inherit" />							<rect x="18.8" y="109.6" transform="matrix(-1 -4.267887e-11 4.267887e-11 -1 37.9253 241.3239)" class="aJ-cls-23" width="0.3" height="22" />		</g>	</g></g><g id="aJS_post" style="">	<g>		<g>							<ellipse transform="matrix(0.1539 -0.9881 0.9881 0.1539 -106.1107 120.5387)" class="aJ-cls-14" cx="17.3" cy="122.2" rx="12.7" ry="12.7" data-color-action="stroke" style="stroke:inherit" />			<line class="aJ-cls-14" x1="10.3" y1="112.6" x2="24.3" y2="131.8" data-color-action="stroke" style="stroke:inherit" />		</g>		<text transform="matrix(1 0 0 1 6.7033 126.808)" class="aJ-cls-15 aJ-cls-16">NA</text>	</g></g><g id="aJS_open_contact_mesial" style="">	<g>		<g>							<ellipse transform="matrix(0.1539 -0.9881 0.9881 0.1539 -106.1107 120.5387)" class="aJ-cls-14" cx="17.3" cy="122.2" rx="12.7" ry="12.7" data-color-action="stroke" style="stroke:inherit" />			<line class="aJ-cls-14" x1="10.3" y1="112.6" x2="24.3" y2="131.8" data-color-action="stroke" style="stroke:inherit" />		</g>		<text transform="matrix(1 0 0 1 6.7033 126.808)" class="aJ-cls-15 aJ-cls-16">NA</text>	</g></g><g id="aJS_open_contact_distal" style="">	<g>		<g>							<ellipse transform="matrix(0.1539 -0.9881 0.9881 0.1539 -106.1107 120.5387)" class="aJ-cls-14" cx="17.3" cy="122.2" rx="12.7" ry="12.7" data-color-action="stroke" style="stroke:inherit" />			<line class="aJ-cls-14" x1="10.3" y1="112.6" x2="24.3" y2="131.8" data-color-action="stroke" style="stroke:inherit" />		</g>		<text transform="matrix(1 0 0 1 6.7033 126.808)" class="aJ-cls-15 aJ-cls-16">NA</text>	</g></g><g id="aJS_mesial_drift" style="">	<g>		<g>			<line class="aJ-cls-25" x1="26.9" y1="133.6" x2="37.8" y2="133.6" data-color-action="stroke" style="stroke:inherit" />			<g>				<polygon class="aJ-cls-18" points="28.1,137.5 21.2,133.6 28.1,129.6     " data-color-action="fill" style="fill:inherit" />			</g>		</g>	</g></g><g id="aJS_lingual_abfraction" style="">	<g>		<g>							<ellipse transform="matrix(0.1539 -0.9881 0.9881 0.1539 -106.1107 120.5387)" class="aJ-cls-14" cx="17.3" cy="122.2" rx="12.7" ry="12.7" data-color-action="stroke" style="stroke:inherit" />			<line class="aJ-cls-14" x1="10.3" y1="112.6" x2="24.3" y2="131.8" data-color-action="stroke" style="stroke:inherit" />		</g>		<text transform="matrix(1 0 0 1 6.7033 126.808)" class="aJ-cls-15 aJ-cls-16">NA</text>	</g></g><g id="aJS_internal_root_resorption" style="">	<g>		<g>							<ellipse transform="matrix(0.1539 -0.9881 0.9881 0.1539 -106.1107 120.5387)" class="aJ-cls-14" cx="17.3" cy="122.2" rx="12.7" ry="12.7" data-color-action="stroke" style="stroke:inherit" />			<line class="aJ-cls-14" x1="10.3" y1="112.6" x2="24.3" y2="131.8" data-color-action="stroke" style="stroke:inherit" />		</g>		<text transform="matrix(1 0 0 1 6.7033 126.808)" class="aJ-cls-15 aJ-cls-16">NA</text>	</g></g><g id="aJS_impacted_mesial" style="">	<g>		<g>							<ellipse transform="matrix(0.1539 -0.9881 0.9881 0.1539 -106.1107 120.5387)" class="aJ-cls-14" cx="17.3" cy="122.2" rx="12.7" ry="12.7" data-color-action="stroke" style="stroke:inherit" />			<line class="aJ-cls-14" x1="10.3" y1="112.6" x2="24.3" y2="131.8" data-color-action="stroke" style="stroke:inherit" />		</g>		<text transform="matrix(1 0 0 1 6.7033 126.808)" class="aJ-cls-15 aJ-cls-16">NA</text>	</g></g><g id="aJS_impacted_distal" style="">	<g>		<g>							<ellipse transform="matrix(0.1539 -0.9881 0.9881 0.1539 -106.1107 120.5387)" class="aJ-cls-14" cx="17.3" cy="122.2" rx="12.7" ry="12.7" data-color-action="stroke" style="stroke:inherit" />			<line class="aJ-cls-14" x1="10.3" y1="112.6" x2="24.3" y2="131.8" data-color-action="stroke" style="stroke:inherit" />		</g>		<text transform="matrix(1 0 0 1 6.7033 126.808)" class="aJ-cls-15 aJ-cls-16">NA</text>	</g></g><g id="aJS_gortex_membranes" style="">	<g>		<g>							<ellipse transform="matrix(0.1539 -0.9881 0.9881 0.1539 -106.1107 120.5387)" class="aJ-cls-14" cx="17.3" cy="122.2" rx="12.7" ry="12.7" data-color-action="stroke" style="stroke:inherit" />			<line class="aJ-cls-14" x1="10.3" y1="112.6" x2="24.3" y2="131.8" data-color-action="stroke" style="stroke:inherit" />		</g>		<text transform="matrix(1 0 0 1 6.7033 126.808)" class="aJ-cls-15 aJ-cls-16">NA</text>	</g></g><g id="aJS_frenum_pull" style="">	<g>		<g>							<ellipse transform="matrix(0.1539 -0.9881 0.9881 0.1539 -106.1107 120.5387)" class="aJ-cls-14" cx="17.3" cy="122.2" rx="12.7" ry="12.7" data-color-action="stroke" style="stroke:inherit" />			<line class="aJ-cls-14" x1="10.3" y1="112.6" x2="24.3" y2="131.8" data-color-action="stroke" style="stroke:inherit" />		</g>		<text transform="matrix(1 0 0 1 6.7033 126.808)" class="aJ-cls-15 aJ-cls-16">NA</text>	</g></g><g id="aJS_external_root_resorption" style="">	<g>		<g>							<ellipse transform="matrix(0.1539 -0.9881 0.9881 0.1539 -106.1107 120.5387)" class="aJ-cls-14" cx="17.3" cy="122.2" rx="12.7" ry="12.7" data-color-action="stroke" style="stroke:inherit" />			<line class="aJ-cls-14" x1="10.3" y1="112.6" x2="24.3" y2="131.8" data-color-action="stroke" style="stroke:inherit" />		</g>		<text transform="matrix(1 0 0 1 6.7033 126.808)" class="aJ-cls-15 aJ-cls-16">NA</text>	</g></g><g id="aJS_diastema_mesial" style="">	<g>		<g>							<ellipse transform="matrix(0.1539 -0.9881 0.9881 0.1539 -106.1107 120.5387)" class="aJ-cls-14" cx="17.3" cy="122.2" rx="12.7" ry="12.7" data-color-action="stroke" style="stroke:inherit" />			<line class="aJ-cls-14" x1="10.3" y1="112.6" x2="24.3" y2="131.8" data-color-action="stroke" style="stroke:inherit" />		</g>		<text transform="matrix(1 0 0 1 6.7033 126.808)" class="aJ-cls-15 aJ-cls-16">NA</text>	</g></g><g id="aJS_diastema_distal" style="">	<g>		<g>							<ellipse transform="matrix(0.1539 -0.9881 0.9881 0.1539 -106.1107 120.5387)" class="aJ-cls-14" cx="17.3" cy="122.2" rx="12.7" ry="12.7" data-color-action="stroke" style="stroke:inherit" />			<line class="aJ-cls-14" x1="10.3" y1="112.6" x2="24.3" y2="131.8" data-color-action="stroke" style="stroke:inherit" />		</g>		<text transform="matrix(1 0 0 1 6.7033 126.808)" class="aJ-cls-15 aJ-cls-16">NA</text>	</g></g><g id="aJS_distal_drift" style="">	<g>		<g>			<line class="aJ-cls-25" x1="32" y1="133.6" x2="21.2" y2="133.6" data-color-action="stroke" style="stroke:inherit" />			<g>				<polygon class="aJ-cls-18" points="30.9,129.6 37.8,133.6 30.9,137.5     " data-color-action="fill" style="fill:inherit" />			</g>		</g>	</g></g><g id="aJS_three_quarter_crown" style="">	<g>		<g>							<ellipse transform="matrix(0.1539 -0.9881 0.9881 0.1539 -106.1107 120.5387)" class="aJ-cls-14" cx="17.3" cy="122.2" rx="12.7" ry="12.7" data-color-action="stroke" style="stroke:inherit" />			<line class="aJ-cls-14" x1="10.3" y1="112.6" x2="24.3" y2="131.8" data-color-action="stroke" style="stroke:inherit" />		</g>		<text transform="matrix(1 0 0 1 6.7033 126.808)" class="aJ-cls-15 aJ-cls-16">NA</text>	</g></g><g id="aJS_crown" style="">	<path class="aJ-cls-26" d="M11.3,120.6c-1.5,0.8-2.3,4.6-3.3,9c-1.2,5.6-1.9,10.5-1,12.3c2.8,5.4,7.5,6.4,10.7,6.5s5.7-1.6,9.1-3.1   c1.7-0.7,3-1.5,4.9-0.8c3.1,1.1,6.3,2.2,8.3,1.8c7.2-1.6,11.3-5.8,10.5-10.3c-0.9-4.8-1.4-14.3-4-15.7   C43.1,118.3,16.4,117.8,11.3,120.6z" data-color-action="fill" style="fill:inherit" /></g><g id="aJS_cracked_surface_mesial" style="">	<polyline class="aJ-cls-27" points="11.8,126.8 15.7,130.7 10.7,130.7 15.7,135.4 10.7,135.4 14.5,139.2  " data-color-action="stroke" style="stroke:inherit" /></g><g id="aJS_cracked_surface_buccal" style="">	<polyline class="aJ-cls-27" points="27,126.8 30.8,130.7 25.8,130.7 30.8,135.4 25.8,135.4 29.7,139.2  " data-color-action="stroke" style="stroke:inherit" /></g><g id="aJS_cracked_surface_buccal_V" style="">	<polyline class="aJ-cls-27" points="27,126.8 30.8,130.7 25.8,130.7 30.8,135.4 25.8,135.4 29.7,139.2  " data-color-action="stroke" style="stroke:inherit" /></g><g id="aJS_cracked_surface_distal" style="">	<polyline class="aJ-cls-27" points="42.8,126.8 46.7,130.7 41.7,130.7 46.7,135.4 41.7,135.4 45.5,139.2  " data-color-action="stroke" style="stroke:inherit" /></g><g id="aJS_chipped_surface_mesial" style="">	<g>		<line class="aJ-cls-27" x1="18" y1="128.5" x2="9.7" y2="136.8" data-color-action="stroke" style="stroke:inherit" />		<line class="aJ-cls-27" x1="9.7" y1="128.5" x2="18" y2="136.8" data-color-action="stroke" style="stroke:inherit" />	</g></g><g id="aJS_chipped_surface_buccal" style="">	<g>		<line class="aJ-cls-27" x1="32.2" y1="128.5" x2="23.8" y2="136.8" data-color-action="stroke" style="stroke:inherit" />		<line class="aJ-cls-27" x1="23.8" y1="128.5" x2="32.2" y2="136.8" data-color-action="stroke" style="stroke:inherit" />	</g></g><g id="aJS_chipped_surface_buccal_V" style="">	<g>		<line class="aJ-cls-27" x1="32.2" y1="128.5" x2="23.8" y2="136.8" data-color-action="stroke" style="stroke:inherit" />		<line class="aJ-cls-27" x1="23.8" y1="128.5" x2="32.2" y2="136.8" data-color-action="stroke" style="stroke:inherit" />	</g></g><g id="aJS_chipped_surface_distal" style="">	<g>		<line class="aJ-cls-27" x1="47.2" y1="128.5" x2="38.8" y2="136.8" data-color-action="stroke" style="stroke:inherit" />		<line class="aJ-cls-27" x1="38.8" y1="128.5" x2="47.2" y2="136.8" data-color-action="stroke" style="stroke:inherit" />	</g></g><g id="aJS_buccal_abfraction" style="">	<g>		<g>							<ellipse transform="matrix(0.1539 -0.9881 0.9881 0.1539 -106.1107 120.5387)" class="aJ-cls-14" cx="17.3" cy="122.2" rx="12.7" ry="12.7" data-color-action="stroke" style="stroke:inherit" />			<line class="aJ-cls-14" x1="10.3" y1="112.6" x2="24.3" y2="131.8" data-color-action="stroke" style="stroke:inherit" />		</g>		<text transform="matrix(1 0 0 1 6.7033 126.808)" class="aJ-cls-15 aJ-cls-16">NA</text>	</g></g><g id="aJS_braces" style="">	<g>		<g>			<rect x="21.6" y="123" class="aJ-cls-23" width="13.5" height="18.2" />			<rect x="21.6" y="140.5" class="aJ-cls-28" width="13.5" height="0.7" data-color-action="fill" style="fill:inherit" />			<rect x="21.6" y="132.2" class="aJ-cls-28" width="13.5" height="1.4" data-color-action="fill" style="fill:inherit" />			<rect x="21.6" y="123" class="aJ-cls-29" width="13.5" height="0.9" data-color-action="fill" style="fill:inherit" />			<g>				<g>					<g>						<path class="aJ-cls-30" d="M24.9,123h-3.1c-0.3,0-0.5,0.2-0.5,0.5v7c0,0.3,0.2,0.5,0.5,0.5h3.1c0.3,0,0.5-0.2,0.5-0.5v-7        C25.4,123.2,25.2,123,24.9,123z" data-color-action="fill" style="fill:inherit" />						<path class="aJ-cls-19" d="M24.9,123h-3.1c-0.3,0-0.5,0.2-0.5,0.5v5.8c0.7,0.1,1.3,0.2,2,0.2c0.7,0,1.4-0.1,2.1-0.2v-5.8        C25.4,123.2,25.2,123,24.9,123z" data-color-action="fill" style="fill:inherit" />						<path class="aJ-cls-23" d="M25.1,124.4v-1.1c0-0.1-0.1-0.2-0.2-0.2h-3.1c-0.1,0-0.2,0.1-0.2,0.2v1.1H25.1z" />					</g>					<g>						<path class="aJ-cls-30" d="M34.8,123h-3.1c-0.3,0-0.5,0.2-0.5,0.5v7c0,0.3,0.2,0.5,0.5,0.5h3.1c0.3,0,0.5-0.2,0.5-0.5v-7        C35.3,123.2,35.1,123,34.8,123z" data-color-action="fill" style="fill:inherit" />						<path class="aJ-cls-19" d="M34.8,123h-3.1c-0.3,0-0.5,0.2-0.5,0.5v5.8c0.7,0.1,1.3,0.2,2,0.2c0.7,0,1.4-0.1,2.1-0.2v-5.8        C35.3,123.2,35.1,123,34.8,123z" data-color-action="fill" style="fill:inherit" />						<path class="aJ-cls-23" d="M35,124.4v-1.1c0-0.1-0.1-0.2-0.2-0.2h-3.1c-0.1,0-0.2,0.1-0.2,0.2v1.1H35z" />					</g>				</g>				<g>					<g>						<path class="aJ-cls-30" d="M24.9,133.3h-3.1c-0.3,0-0.5,0.2-0.5,0.5v7c0,0.3,0.2,0.5,0.5,0.5h3.1c0.3,0,0.5-0.2,0.5-0.5v-7        C25.4,133.5,25.2,133.3,24.9,133.3z" data-color-action="fill" style="fill:inherit" />						<path class="aJ-cls-19" d="M24.9,133.3h-3.1c-0.3,0-0.5,0.2-0.5,0.5v5.8c0.7,0.1,1.3,0.2,2,0.2c0.7,0,1.4-0.1,2.1-0.2v-5.8        C25.4,133.5,25.2,133.3,24.9,133.3z" data-color-action="fill" style="fill:inherit" />						<path class="aJ-cls-23" d="M25.1,134.7v-1.1c0-0.1-0.1-0.2-0.2-0.2h-3.1c-0.1,0-0.2,0.1-0.2,0.2v1.1H25.1z" />					</g>					<g>						<path class="aJ-cls-30" d="M34.8,133.3h-3.1c-0.3,0-0.5,0.2-0.5,0.5v7c0,0.3,0.2,0.5,0.5,0.5h3.1c0.3,0,0.5-0.2,0.5-0.5v-7        C35.3,133.5,35.1,133.3,34.8,133.3z" data-color-action="fill" style="fill:inherit" />						<path class="aJ-cls-19" d="M34.8,133.3h-3.1c-0.3,0-0.5,0.2-0.5,0.5v5.8c0.7,0.1,1.3,0.2,2,0.2c0.7,0,1.4-0.1,2.1-0.2v-5.8        C35.3,133.5,35.1,133.3,34.8,133.3z" data-color-action="fill" style="fill:inherit" />						<path class="aJ-cls-23" d="M35,134.7v-1.1c0-0.1-0.1-0.2-0.2-0.2h-3.1c-0.1,0-0.2,0.1-0.2,0.2v1.1H35z" />					</g>				</g>			</g>		</g>		<g>			<rect x="7.2" y="131.4" class="aJ-cls-19" width="42.2" height="1.4" data-color-action="fill" style="fill:inherit" />			<rect x="7.2" y="132.6" class="aJ-cls-30" width="42.2" height="0.2" data-color-action="fill" style="fill:inherit" />			<rect x="7.2" y="131.6" class="aJ-cls-23" width="42.2" height="0.4" />		</g>	</g></g><g id="aJS_apicoectomy" style="">	<g>		<g>							<ellipse transform="matrix(0.1539 -0.9881 0.9881 0.1539 -106.1107 120.5387)" class="aJ-cls-14" cx="17.3" cy="122.2" rx="12.7" ry="12.7" data-color-action="stroke" style="stroke:inherit" />			<line class="aJ-cls-14" x1="10.3" y1="112.6" x2="24.3" y2="131.8" data-color-action="stroke" style="stroke:inherit" />		</g>		<text transform="matrix(1 0 0 1 6.7033 126.808)" class="aJ-cls-15 aJ-cls-16">NA</text>	</g></g><g id="aJS_abscess" style="">	<circle class="aJ-cls-18" cx="29.5" cy="70.7" r="6.1" data-color-action="fill" style="fill:inherit" /></g><g id="aJS_blunted_roots" style="">	<g>		<g>							<ellipse transform="matrix(0.1539 -0.9881 0.9881 0.1539 -106.1107 120.5387)" class="aJ-cls-14" cx="17.3" cy="122.2" rx="12.7" ry="12.7" data-color-action="stroke" style="stroke:inherit" />			<line class="aJ-cls-14" x1="10.3" y1="112.6" x2="24.3" y2="131.8" data-color-action="stroke" style="stroke:inherit" />		</g>		<text transform="matrix(1 0 0 1 6.7033 126.808)" class="aJ-cls-15 aJ-cls-16">NA</text>	</g></g><g id="aJS_root_amputation" style="">	<g>		<g>							<ellipse transform="matrix(0.1539 -0.9881 0.9881 0.1539 -106.1107 120.5387)" class="aJ-cls-14" cx="17.3" cy="122.2" rx="12.7" ry="12.7" data-color-action="stroke" style="stroke:inherit" />			<line class="aJ-cls-14" x1="10.3" y1="112.6" x2="24.3" y2="131.8" data-color-action="stroke" style="stroke:inherit" />		</g>		<text transform="matrix(1 0 0 1 6.7033 126.808)" class="aJ-cls-15 aJ-cls-16">NA</text>	</g><g id="root_amputation_3">	<g>		<g>							<ellipse transform="matrix(0.1539 -0.9881 0.9881 0.1539 -106.1107 120.5387)" class="aJ-cls-14" cx="17.3" cy="122.2" rx="12.7" ry="12.7" data-color-action="stroke" style="stroke:inherit" />			<line class="aJ-cls-14" x1="10.3" y1="112.6" x2="24.3" y2="131.8" data-color-action="stroke" style="stroke:inherit" />		</g>		<text transform="matrix(1 0 0 1 6.7033 126.808)" class="aJ-cls-15 aJ-cls-16">NA</text>	</g></g><g id="root_amputation_2">	<g>		<g>							<ellipse transform="matrix(0.1539 -0.9881 0.9881 0.1539 -106.1107 120.5387)" class="aJ-cls-14" cx="17.3" cy="122.2" rx="12.7" ry="12.7" data-color-action="stroke" style="stroke:inherit" />			<line class="aJ-cls-14" x1="10.3" y1="112.6" x2="24.3" y2="131.8" data-color-action="stroke" style="stroke:inherit" />		</g>		<text transform="matrix(1 0 0 1 6.7033 126.808)" class="aJ-cls-15 aJ-cls-16">NA</text>	</g></g><g id="root_amputation_1">	<g>		<g>							<ellipse transform="matrix(0.1539 -0.9881 0.9881 0.1539 -106.1107 120.5387)" class="aJ-cls-14" cx="17.3" cy="122.2" rx="12.7" ry="12.7" data-color-action="stroke" style="stroke:inherit" />			<line class="aJ-cls-14" x1="10.3" y1="112.6" x2="24.3" y2="131.8" data-color-action="stroke" style="stroke:inherit" />		</g>		<text transform="matrix(1 0 0 1 6.7033 126.808)" class="aJ-cls-15 aJ-cls-16">NA</text>	</g></g></g><g id="aJS_missing_crown" style="">	<g>		<g>							<ellipse transform="matrix(0.1539 -0.9881 0.9881 0.1539 -106.1107 120.5387)" class="aJ-cls-14" cx="17.3" cy="122.2" rx="12.7" ry="12.7" data-color-action="stroke" style="stroke:inherit" />			<line class="aJ-cls-14" x1="10.3" y1="112.6" x2="24.3" y2="131.8" data-color-action="stroke" style="stroke:inherit" />		</g>		<text transform="matrix(1 0 0 1 6.7033 126.808)" class="aJ-cls-15 aJ-cls-16">NA</text>	</g></g><g id="aJS_missing_tooth" style="" data-name="missing tooth">	<g>		<path class="aJ-cls-2" d="M8.1,129.6c0.8-3.8,1.5-7.1,2.7-8.5c2.2-7.1,1.3-20.7,0.9-27.1c-0.6-9.4,2-19.9,4.5-20.2    c1.3-0.2,2,9.2,3.9,17.6c1,4.4,3.3,8.4,5.5,10.9c1.2-2.7,2.4-6,3.2-9.1c2.5-10.4,1.7-19,2.8-19.3c1.1-0.3,3.3,3.1,4.4,9.7    c0.7,3.9,1.3,10.8,1.4,16.5c2.3-2.5,4.5-5.7,5.7-9.2c2.9-8.5,4.7-18.6,6.7-18.7c2-0.1,3.4,5.7,2,14.3c-0.8,4.7-7.3,25.6-7.2,27.7    c0.2,2.5,1,4.3,1.8,6.2c0.1,0,0.2,0.1,0.2,0.1c2.6,1.4,3.1,10.8,4,15.7c0.8,4.6-3.3,8.8-10.5,10.3c-2,0.4-5.2-0.7-8.3-1.8    c-1.9-0.7-3.2,0.1-4.9,0.8c-3.4,1.5-6,3.2-9.1,3.1s-7.9-1-10.7-6.5C6.2,140.1,6.9,135.2,8.1,129.6z" data-color-action="fill,stroke" style="fill,stroke:inherit" />		<path class="aJ-cls-24" d="M22.8,108c0,0,4.2-7.7,5.9-14.9c2.5-10.4,1.7-19,2.8-19.3s3.3,3.1,4.4,9.7c1.1,6.5,2.2,21.4,0.8,24.7    C35.3,111.4,23.5,113.6,22.8,108z" />		<path class="aJ-cls-24" d="M36.7,108.1c1.3-3,0.4-16.1-0.6-23.2c0.2,5.5-0.3,12.8-1.6,14.4c-1.9,2.3-5.7,2.8-6.2,1.4    c-0.5-1.4,1.6-6,2.2-11.6c0.3-2.9,0.2-5.8,0.1-8c-0.3,3.3-0.7,7.5-1.8,12c-1.7,7.2-5.9,14.9-5.9,14.9    C23.5,113.6,35.3,111.4,36.7,108.1z" />		<path class="aJ-cls-24" d="M9.6,123.6c3.6-5.8,2.5-22.3,2-29.6c-0.6-9.4,2-19.9,4.5-20.2c1.3-0.2,2,9.2,3.9,17.6    c1.7,7.3,6.8,13.7,9.8,13.5c3-0.1,10.6-6.4,13.2-14.1c2.9-8.5,4.7-18.6,6.7-18.7c2-0.1,3.4,5.7,2,14.3c-0.8,4.7-7.3,25.6-7.2,27.7    c0.3,3.6,1.7,5.8,3,8.6C48.6,124.9,8.4,125.6,9.6,123.6z" />		<path class="aJ-cls-24" d="M50.2,73.8c0.4-0.4,1,1.5,0.7,5.2c-0.5,8.5-4,17.7-8.3,25.6c-3.1,5.7-4.4,11.2-2.8,15.1    c1.6,3.9,3.7,6.8-0.4,6.3c-2.8-0.4-3.8-5.5-4-9.2c-0.3-9.7,8.3-13.2,13.9-33.1C51.2,76.9,49.5,74.4,50.2,73.8z" />		<path class="aJ-cls-24" d="M14.3,108.1c0,5.2,0.3,11.6-1,13.2c-0.4,0.5-1.3,1.1-3.3,1.7c3.3-6.3,2.1-21.9,1.6-28.9    c-0.3-5.1,0.3-10.6,1.4-14.6c-0.4,3.8-0.8,9.7-0.3,12.5C13.3,96.3,14.3,104.1,14.3,108.1z" />		<path class="aJ-cls-24" d="M51.7,86.3c-0.8,4.7-7.3,25.6-7.2,27.7c0.3,2.9,1.2,4.9,2.3,7.1l-1.7-0.3c0,0-1.3-1.4-2.1-4.1    c-1-3.5,0.1-6.2,1.5-10.2c1.7-4.9,3.7-9.9,6.6-22.8c1.3-5.7,0.4-8.8,0.2-10.3C52.3,75.5,52.7,80.2,51.7,86.3z" />		<path class="aJ-cls-24" d="M46.4,79.3c-1,4.8-2.4,10.3-3.2,12.9c-1.1,4-8.7,16.7-14.8,15.1c-6.1-1.6-9.6-14.9-10.1-17.8    c-0.7-4.2-0.7-8.1-0.8-11.9c0.6,3.5,1.3,8.8,2.5,13.7c1.7,7.3,6.8,13.7,9.8,13.5c3-0.1,10.6-6.4,13.2-14.1    C44.4,86.9,45.5,82.7,46.4,79.3z" />		<path class="aJ-cls-24" d="M11.3,120.6c-1.5,0.8-2.3,4.6-3.3,9c-1.2,5.6-1.9,10.5-1,12.3c2.8,5.4,7.5,6.4,10.7,6.5s5.7-1.6,9.1-3.1    c1.7-0.7,3-1.5,4.9-0.8c3.1,1.1,6.3,2.2,8.3,1.8c7.2-1.6,11.3-5.8,10.5-10.3c-0.9-4.8-1.4-14.3-4-15.7    C43.1,118.3,16.4,117.8,11.3,120.6z" />		<path class="aJ-cls-24" d="M21.4,143.9c0-0.8,1.3-2.6,1.6-3.6c0.3-1,0.9-0.4,0.9,0.2c0,0.6,0.3,3.1-0.2,3.7    C23.1,144.9,21.4,145,21.4,143.9z" />		<path class="aJ-cls-24" d="M46.6,120.2C46.6,120.2,46.6,120.2,46.6,120.2c0.1,0.1,0.2,0.1,0.3,0.2c2.4,1.9,2.9,10.8,3.7,15.5    c0.5,2.8-0.9,5.5-3.6,7.5c0.9-1.1,1.6-2.7,1.8-4.7c0.4-3.9-1.3-14.4-3.1-18.8C46,120,46.4,120.1,46.6,120.2z" />		<path class="aJ-cls-24" d="M9.5,145.2c-0.9-0.9-1.7-1.9-2.4-3.3c-0.9-1.8-0.2-6.7,1-12.3c1-4.5,1.8-8.2,3.3-9c0.4-0.2,1-0.4,1.6-0.6    c-1,1.9-2.2,5.7-3.1,10.3c-1.4,7-2,11.6-0.8,14.2C9.2,144.7,9.3,145,9.5,145.2z" />		<path class="aJ-cls-24" d="M31.8,144.4c-1.9-0.7-3.2,0.1-4.9,0.8c-0.8,0.4-1.6,0.7-2.3,1.1c1.3-0.7,3.3-2.4,4.4-2.7    c1.4-0.4,2.1-0.3,2.7,0.1c0.2,0.1,1,0.7,1.7,1.2C32.9,144.8,32.3,144.6,31.8,144.4z" />		<path class="aJ-cls-24" d="M16.4,77.8c0.8-0.2-0.8,2.7,0.7,15.5c1.1,9.4,3.5,12.6,3,13c-0.5,0.4-3.3-4.8-4.6-14.4    C14.8,85.9,15.8,78,16.4,77.8z" />		<path class="aJ-cls-24" d="M32.3,75.9c-0.4,0.2,0.7,2.5,1.2,6.8c0.5,4.3-0.4,8.1-0.1,8.2s1.5-4.5,1-8.3C33.9,78.9,32.5,75.9,32.3,75.9z    " />		<path class="aJ-cls-24" d="M35.7,118.8c1.3,0.1,2.6,0.1,3.8,0.2c0.5,1.9,1.2,4.9,1.5,7.2c0.6,5.1,0.9,10.8,0,17.4    c-0.1,0.8-0.2,1.6-0.3,2.5c-0.2,0-0.3,0.1-0.5,0.1c-1.1,0.2-2.4,0-4-0.4c0.2-0.8,0.5-1.5,0.5-2.2c0.3-2.2,1.4-8.5,0.6-18.5    C37.1,122.8,36.2,120.4,35.7,118.8z" />	</g></g><g id="aJS_extracted_tooth" data-name="extracted tooth" style=""><g class="aJ-msng-cls-10"><line class="aJ-msng-cls-11" x1="9" y1="108.83" x2="50.67" y2="150.49" data-color-action="stroke" style="stroke:inherit" /><line class="aJ-msng-cls-11" x1="50.67" y1="108.83" x2="9" y2="150.49" data-color-action="stroke" style="stroke:inherit" /></g></g><g id="aJS_denture" style="">	<g>		<g>							<ellipse transform="matrix(0.1539 -0.9881 0.9881 0.1539 -106.1107 120.5387)" class="aJ-cls-14" cx="17.3" cy="122.2" rx="12.7" ry="12.7" data-color-action="stroke" style="stroke:inherit" />			<line class="aJ-cls-14" x1="10.3" y1="112.6" x2="24.3" y2="131.8" data-color-action="stroke" style="stroke:inherit" />		</g>		<text transform="matrix(1 0 0 1 6.7033 126.808)" class="aJ-cls-15 aJ-cls-16">NA</text>	</g></g><g id="aJS_maryland_bridge_pontic" style="">	<g>		<g>							<ellipse transform="matrix(0.1539 -0.9881 0.9881 0.1539 -106.1107 120.5387)" class="aJ-cls-14" cx="17.3" cy="122.2" rx="12.7" ry="12.7" data-color-action="stroke" style="stroke:inherit" />			<line class="aJ-cls-14" x1="10.3" y1="112.6" x2="24.3" y2="131.8" data-color-action="stroke" style="stroke:inherit" />		</g>		<text transform="matrix(1 0 0 1 6.7033 126.808)" class="aJ-cls-15 aJ-cls-16">NA</text>	</g></g><g id="aJS_maryland_bridge_abutment_mesial" style="">	<g>		<g>							<ellipse transform="matrix(0.1539 -0.9881 0.9881 0.1539 -106.1107 120.5387)" class="aJ-cls-14" cx="17.3" cy="122.2" rx="12.7" ry="12.7" data-color-action="stroke" style="stroke:inherit" />			<line class="aJ-cls-14" x1="10.3" y1="112.6" x2="24.3" y2="131.8" data-color-action="stroke" style="stroke:inherit" />		</g>		<text transform="matrix(1 0 0 1 6.7033 126.808)" class="aJ-cls-15 aJ-cls-16">NA</text>	</g></g><g id="aJS_maryland_bridge_abutment_distal" style="">	<g>		<g>							<ellipse transform="matrix(0.1539 -0.9881 0.9881 0.1539 -106.1107 120.5387)" class="aJ-cls-14" cx="17.3" cy="122.2" rx="12.7" ry="12.7" data-color-action="stroke" style="stroke:inherit" />			<line class="aJ-cls-14" x1="10.3" y1="112.6" x2="24.3" y2="131.8" data-color-action="stroke" style="stroke:inherit" />		</g>		<text transform="matrix(1 0 0 1 6.7033 126.808)" class="aJ-cls-15 aJ-cls-16">NA</text>	</g></g><g id="aJS_maryland_bridge_abutment" style="">	<g>		<g>							<ellipse transform="matrix(0.1539 -0.9881 0.9881 0.1539 -106.1107 120.5387)" class="aJ-cls-14" cx="17.3" cy="122.2" rx="12.7" ry="12.7" data-color-action="stroke" style="stroke:inherit" />			<line class="aJ-cls-14" x1="10.3" y1="112.6" x2="24.3" y2="131.8" data-color-action="stroke" style="stroke:inherit" />		</g>		<text transform="matrix(1 0 0 1 6.7033 126.808)" class="aJ-cls-15 aJ-cls-16">NA</text>	</g></g><g id="aJS_bridge_abutment_mesial" style="">	<g>		<g>							<ellipse transform="matrix(0.1539 -0.9881 0.9881 0.1539 -106.1107 120.5387)" class="aJ-cls-14" cx="17.3" cy="122.2" rx="12.7" ry="12.7" data-color-action="stroke" style="stroke:inherit" />			<line class="aJ-cls-14" x1="10.3" y1="112.6" x2="24.3" y2="131.8" data-color-action="stroke" style="stroke:inherit" />		</g>		<text transform="matrix(1 0 0 1 6.7033 126.808)" class="aJ-cls-15 aJ-cls-16">NA</text>	</g></g><g id="aJS_bridge_abutment_distal" style="">	<g>		<g>							<ellipse transform="matrix(0.1539 -0.9881 0.9881 0.1539 -106.1107 120.5387)" class="aJ-cls-14" cx="17.3" cy="122.2" rx="12.7" ry="12.7" data-color-action="stroke" style="stroke:inherit" />			<line class="aJ-cls-14" x1="10.3" y1="112.6" x2="24.3" y2="131.8" data-color-action="stroke" style="stroke:inherit" />		</g>		<text transform="matrix(1 0 0 1 6.7033 126.808)" class="aJ-cls-15 aJ-cls-16">NA</text>	</g></g><g id="aJS_bridge_abutment" style="">	<g>		<g>							<ellipse transform="matrix(0.1539 -0.9881 0.9881 0.1539 -106.1107 120.5387)" class="aJ-cls-14" cx="17.3" cy="122.2" rx="12.7" ry="12.7" data-color-action="stroke" style="stroke:inherit" />			<line class="aJ-cls-14" x1="10.3" y1="112.6" x2="24.3" y2="131.8" data-color-action="stroke" style="stroke:inherit" />		</g>		<text transform="matrix(1 0 0 1 6.7033 126.808)" class="aJ-cls-15 aJ-cls-16">NA</text>	</g></g><g id="aJS_bridge_pontic" style="">	<g>		<g>							<ellipse transform="matrix(0.1539 -0.9881 0.9881 0.1539 -106.1107 120.5387)" class="aJ-cls-14" cx="17.3" cy="122.2" rx="12.7" ry="12.7" data-color-action="stroke" style="stroke:inherit" />			<line class="aJ-cls-14" x1="10.3" y1="112.6" x2="24.3" y2="131.8" data-color-action="stroke" style="stroke:inherit" />		</g>		<text transform="matrix(1 0 0 1 6.7033 126.808)" class="aJ-cls-15 aJ-cls-16">NA</text>	</g></g><g id="aJS_implant_mini" style="">	<g>		<g>							<ellipse transform="matrix(0.1539 -0.9881 0.9881 0.1539 -106.1107 120.5387)" class="aJ-cls-14" cx="17.3" cy="122.2" rx="12.7" ry="12.7" data-color-action="stroke" style="stroke:inherit" />			<line class="aJ-cls-14" x1="10.3" y1="112.6" x2="24.3" y2="131.8" data-color-action="stroke" style="stroke:inherit" />		</g>		<text transform="matrix(1 0 0 1 6.7033 126.808)" class="aJ-cls-15 aJ-cls-16">NA</text>	</g></g><g id="aJS_implant_cylinder" style="">	<g>		<g>							<ellipse transform="matrix(0.1539 -0.9881 0.9881 0.1539 -106.1107 120.5387)" class="aJ-cls-14" cx="17.3" cy="122.2" rx="12.7" ry="12.7" data-color-action="stroke" style="stroke:inherit" />			<line class="aJ-cls-14" x1="10.3" y1="112.6" x2="24.3" y2="131.8" data-color-action="stroke" style="stroke:inherit" />		</g>		<text transform="matrix(1 0 0 1 6.7033 126.808)" class="aJ-cls-15 aJ-cls-16">NA</text>	</g></g><g id="aJS_implant_blade" style="">	<g>		<g>							<ellipse transform="matrix(0.1539 -0.9881 0.9881 0.1539 -106.1107 120.5387)" class="aJ-cls-14" cx="17.3" cy="122.2" rx="12.7" ry="12.7" data-color-action="stroke" style="stroke:inherit" />			<line class="aJ-cls-14" x1="10.3" y1="112.6" x2="24.3" y2="131.8" data-color-action="stroke" style="stroke:inherit" />		</g>		<text transform="matrix(1 0 0 1 6.7033 126.808)" class="aJ-cls-15 aJ-cls-16">NA</text>	</g></g><g id="aJS_watch_tooth" style="">	<g>		<path class="aJ-cls-13" d="M8.3,27.7c0-1.8,1.4-3.3,3.2-3.3c1.8,0,3.3,1.5,3.3,3.3c0,1.7-1.5,3.2-3.3,3.2C9.7,30.9,8.3,29.5,8.3,27.7z     M9.2,21.8L8.4,3.7h6.2l-0.8,18.1H9.2z" data-color-action="fill" style="fill:inherit" />	</g></g><g id="aJS_border" style="">	<rect y="0" class="aJ-cls-17" width="59" height="161" /></g></defs></g><g class="bJ-cls-1" transform="translate(0 161)"><g id="_Jb">	<g>		<g>			<path class="bJ-cls-2" d="M8.6,15c-1,1.3-1.1,7-0.8,10.8c0.4,3.8,1,5,1,6.8S7.8,36,8.4,40c0.6,3.9,7.5,6.6,9.3,6.9     c8,1.1,13.3-2.9,16.5-2c3.4,1,8.9,1,12.4-0.7c2.1-1,4.6-4.2,4.8-7.4s-0.7-7-0.3-8c0.4-1.1,0.3-3.6-0.3-7.7     c-0.3-2.1-2.2-7.7-8.1-8.2c-9.3-0.9-12.2-4.6-23-3.6C12.5,9.8,10.6,12.5,8.6,15z" />		</g>		<g>			<path class="bJ-cls-3" d="M8.6,15c-1,1.3-1.1,7-0.8,10.8c0.4,3.8,1,5,1,6.8S7.8,36,8.4,40c0.6,3.9,7.5,6.6,9.3,6.9     c8,1.1,13.3-2.9,16.5-2c3.4,1,8.9,1,12.4-0.7c2.1-1,4.6-4.2,4.8-7.4s-0.7-7-0.3-8c0.4-1.1,0.3-3.6-0.3-7.7     c-0.3-2.1-2.2-7.7-8.1-8.2c-9.3-0.9-12.2-4.6-23-3.6C12.5,9.8,10.6,12.5,8.6,15z" />		</g>		<path class="bJ-cls-4" d="M7.8,24.8c0.7,0.9,1.7,1.7,2.7,2.3c1.8,1-0.1,6.5-0.1,9.5c0,3,1.3,5.2,2.8,6.1c1.5,0.9,7.5,1.5,10,1.3    c2.5-0.1,6.9-2.1,9.6-2.5c2.7-0.4,6.5,2.1,9,1.8c2.5-0.3,5.5-2.2,6.9-3.8c1.5-1.6,1.5-6.4,1.2-7.8c-0.3-1.5-2.4-1.5-2.5-2.5    c-0.1-1,1.5-0.3,2.8-1.3c0.5-0.4,0.8-0.9,1.1-1.4c0,1.1,0,1.9-0.2,2.4c-0.4,1.1,0.5,4.8,0.3,8c-0.2,3.2-2.7,6.3-4.8,7.4    c-3.4,1.7-8.9,1.7-12.4,0.7c-3.2-0.9-8.5,3.1-16.5,2C15.9,46.6,9,43.9,8.4,40c-0.6-3.9,0.4-5.6,0.4-7.3c0-1.8-0.6-3-1-6.8    C7.8,25.5,7.8,25.2,7.8,24.8z" />		<path class="bJ-cls-4" d="M44.3,29.1c-0.7,1-2.1-1.3-3.1-0.6s-1,5.6-1.9,5.2c-0.9-0.4-0.1-5.3-1.3-5.5s-4-0.6-5.2-0.6    c-1.2,0-0.9,1.9-1.9,1.6c-1-0.3-0.4-1.9-2.4-1.9s-5.3,0.6-6.8,0.7c-1.5,0.1-1.5,7.1-2.7,6.6c-1.2-0.4,0.6-5.5-0.1-5.9    c-0.7-0.4-3.1-0.1-3.2-0.7c-0.1-0.6,2.5-0.9,2.8-1.6c0.3-0.7-5-6.2-4.1-6.6c0.9-0.4,6.8,6.9,8.4,6.5c1.6-0.4,3.1-0.6,4.4-0.7    c1.3-0.1,3.4-8.4,4.4-7.7c1,0.7-2.7,6.4-1.6,6.9c1,0.6,4.3,1.5,5.5,1.5s4.6-4.9,5.2-4.4c0.6,0.4-3.4,4.6-1.8,4.7    C40.4,26.7,45,28.1,44.3,29.1z" />		<path class="bJ-cls-5" d="M8,16.6c0.1-0.8,0.3-1.3,0.6-1.7c2-2.5,3.9-5.2,11-5.9c10.8-1,13.8,2.7,23,3.6c0.5,0,1,0.1,1.5,0.3    c-1.4,0.1-2.6,0.7-3.2,0.7c-1.2,0.1-4.2,0.6-6.4,0c-2.2-0.6-5.5-1.6-7.3-1.9c-4-0.7-9.2,0.3-10.7,0.6C14.2,12.8,9.5,15.2,8,16.6z" />	</g></g><defs><g id="bJS_cusp_4" style="">	<path class="bJ-cls-6" d="M29.6,33.7l-6.9,13.2c-1.5,0.2-3.2,0.2-5-0.1C15.9,46.6,9,43.9,8.4,40c0-0.1,0-0.2,0-0.3l18.2-7   C27.4,33.2,28.5,33.6,29.6,33.7z" data-color-action="fill" style="fill:inherit" /></g><g id="bJS_groove_2" style="">	<path class="bJ-cls-6" d="M30.3,33.8c0.7,0,1.3-0.1,1.9-0.3l6.2,12c-1.6-0.1-3.1-0.3-4.3-0.6c-2.4-0.7-6.2,1.5-11.4,2.1l6.9-13.2   C29.8,33.7,30.1,33.8,30.3,33.8z" data-color-action="fill" style="fill:inherit" /></g><g id="bJS_cusp_3" style="">	<path class="bJ-cls-6" d="M34.7,32.2l16.5,5.4c-0.5,2.9-2.8,5.6-4.7,6.5c-2.2,1.1-5.3,1.5-8.1,1.4l-6.2-12C33.2,33.2,34,32.8,34.7,32.2z   " data-color-action="fill" style="fill:inherit" /></g><g id="bJS_mesial" style="">	<path class="bJ-cls-6" d="M8.3,38.7c-0.2-3,0.5-4.5,0.5-6.1c0-1.8-0.6-3-1-6.8c-0.2-2-0.3-4.5-0.1-6.7c1.9,2.2,4.6,6.1,4.8,9.5   C12.7,31.4,10.4,35.5,8.3,38.7z" data-color-action="fill" style="fill:inherit" /></g><g id="bJS_mesial_pit" style="">	<path class="bJ-cls-6" d="M24.1,28.3c0,1.8,1,3.3,2.5,4.3l-18.2,7c0-0.3-0.1-0.7-0.1-1c2.1-3.1,4.4-7.3,4.2-10c-0.2-3.5-2.8-7.3-4.8-9.5   c0-0.4,0.1-0.9,0.1-1.2l18.3,6.5C24.9,25.3,24.1,26.7,24.1,28.3z" data-color-action="fill" style="fill:inherit" /></g><g id="bJS_central_pit" style="">	<ellipse class="bJ-cls-6" cx="30.3" cy="28.3" rx="6.2" ry="5.4" data-color-action="fill" style="fill:inherit" /></g><g id="bJS_distal_pit" style="">	<path class="bJ-cls-6" d="M36.5,28.3c0-1.7-0.9-3.2-2.3-4.2l15.7-5.9c0.1,0.2,0.2,0.4,0.3,0.7c-1.7,2-3.3,4.8-3.4,8.7   c-0.1,3.4,2.3,7.2,4.5,9.6c0,0.2,0,0.3-0.1,0.4l-16.5-5.4C35.8,31.2,36.5,29.9,36.5,28.3z" data-color-action="fill" style="fill:inherit" /></g><g id="bJS_distal" style="">	<path class="bJ-cls-6" d="M50.2,18.9c0.3,0.8,0.5,1.6,0.6,2.1c0.6,4.1,0.7,6.7,0.3,7.7s0.5,4.8,0.3,8c0,0.1,0,0.3-0.1,0.4   c-2.2-2.4-4.6-6.3-4.5-9.6C46.8,23.6,48.4,20.8,50.2,18.9z" data-color-action="fill" style="fill:inherit" /></g><g id="bJS_cusp_2" style="">	<path class="bJ-cls-6" d="M26.2,24.3L7.8,17.9C8,16.5,8.2,15.4,8.6,15c2-2.5,3.9-5.2,11-5.9C20.5,9.1,21.3,9,22.1,9l6.8,14.1   C27.8,23.3,26.9,23.7,26.2,24.3z" data-color-action="fill" style="fill:inherit" /></g><g id="bJS_groove_1" style="">	<path class="bJ-cls-6" d="M30.3,22.9c-0.5,0-1,0.1-1.5,0.2L22.1,9c6.9-0.2,10.4,1.7,15.7,2.9l-6.2,11.1C31.2,23,30.8,22.9,30.3,22.9z" data-color-action="fill" style="fill:inherit" /></g><g id="bJS_cusp_1" style="">	<path class="bJ-cls-6" d="M31.6,23.1l6.2-11.1c1.4,0.3,3,0.6,4.8,0.8c4.1,0.4,6.3,3.1,7.3,5.5l-15.7,5.9C33.5,23.6,32.6,23.2,31.6,23.1z   " data-color-action="fill" style="fill:inherit" /></g><g id="bJS_tipped_lingual" style=""></g><g id="bJS_tipped_facial" style=""></g><g id="bJS_surface_restoration_lingual" style="">	<path class="bJ-cls-7" d="M18.3,42.9C19,43,19.8,43,20.6,43c2.8,0,5.2-0.7,7.3-1.3c1.8-0.5,3.5-1,5.2-1c0.8,0,1.5,0.1,2.2,0.3   c1.1,0.3,2.7,0.5,4.2,0.5c1.7,0,3.2-0.2,4.4-0.6l3.1,3c-0.1,0.1-0.3,0.2-0.4,0.2c-3.4,1.7-8.9,1.7-12.4,0.7   c-3.2-0.9-8.5,3.1-16.5,2c-1.3-0.2-5.4-1.7-7.7-4.1l3-2.6C14.1,41.2,16.9,42.6,18.3,42.9z" data-color-action="fill" style="fill:inherit" /></g><g id="bJS_surface_restoration_mesial" style="">	<path class="bJ-cls-7" d="M8.4,40c-0.6-3.9,0.4-5.6,0.4-7.3s-0.6-3-1-6.8C7.4,22,7.6,16.2,8.6,15c0.8-1,1.5-2,2.6-2.8l2.2,3.4   c-0.5,0.5-0.9,1-1.4,1.6c-0.3,1.2-0.5,5-0.2,8.2c0.2,1.7,0.4,2.8,0.6,3.8c0.2,1.1,0.4,2.2,0.4,3.5c0,1-0.2,1.8-0.3,2.6   c-0.2,1.1-0.4,2.2-0.1,4.2c0.1,0.2,0.3,0.5,0.6,0.7l-3,2.6C9.2,41.9,8.6,41,8.4,40z" data-color-action="fill" style="fill:inherit" /></g><g id="bJS_surface_restoration_occlusal" style="">	<path class="bJ-cls-7" d="M19.9,13.1C21,13,22.1,13,23.1,13c3.8,0,6.4,0.8,9.4,1.6c2.7,0.8,5.7,1.7,9.8,2.1c3.9,0.4,4.5,4.7,4.6,4.8   c0.6,4.3,0.5,5.6,0.5,5.9c-0.5,1.4-0.3,2.8-0.1,4.8c0.1,1.4,0.3,2.9,0.2,4.2c-0.1,1.6-1.6,3.6-2.6,4c-1.2,0.6-3.2,1-5.3,1   c-1.5,0-3-0.2-4.2-0.5c-0.7-0.2-1.4-0.3-2.2-0.3c-1.7,0-3.4,0.5-5.2,1c-2.1,0.6-4.5,1.3-7.3,1.3c-0.8,0-1.5-0.1-2.3-0.2   c-1.7-0.3-5.6-2.4-5.9-3.5c-0.3-1.9-0.1-3,0.1-4.2c0.1-0.8,0.3-1.6,0.3-2.6c0-1.3-0.2-2.3-0.4-3.5c-0.2-1-0.4-2.1-0.6-3.8   c-0.3-3.3-0.1-7,0.2-8.2C13.6,15.1,14.9,13.6,19.9,13.1z" data-color-action="fill" style="fill:inherit" /></g><g id="bJS_surface_restoration_distal" style="">	<path class="bJ-cls-7" d="M44.7,40.5c1-0.5,2.5-2.4,2.6-4c0.1-1.3-0.1-2.9-0.2-4.2c-0.2-2-0.3-3.5,0.1-4.8c0-0.3,0.2-1.6-0.5-5.9   c0-0.1-0.4-2.5-2.2-3.9l2.8-2.9c2.3,2,3.1,4.8,3.3,6.2c0.6,4.1,0.7,6.7,0.3,7.7s0.5,4.8,0.3,8c-0.2,3-2.4,5.9-4.4,7.1l-3.1-3   C44.2,40.8,44.5,40.7,44.7,40.5z" data-color-action="fill" style="fill:inherit" /></g><g id="bJS_surface_restoration_buccal" style="">	<path class="bJ-cls-7" d="M42.2,16.7c-4.1-0.4-7.1-1.3-9.8-2.1c-3-0.9-5.5-1.6-9.4-1.6c-1,0-2,0.1-3.2,0.2c-3.6,0.3-5.3,1.2-6.5,2.4   l-2.2-3.4c1.7-1.4,4.1-2.6,8.4-3c10.8-1,13.8,2.7,23,3.6c2.1,0.2,3.6,1,4.8,2l-2.8,2.9C44,17.1,43.2,16.8,42.2,16.7z" data-color-action="fill" style="fill:inherit" /></g><g id="bJS_sub-erupted" style="">	<rect x="28" y="1.2" transform="matrix(-1 -4.486867e-11 4.486867e-11 -1 59 5.4968)" class="bJ-cls-8" width="3" height="3" />	<rect x="28" y="1.2" transform="matrix(-1 -4.486867e-11 4.486867e-11 -1 59 5.4968)" class="bJ-cls-8" width="3" height="3" />	<rect x="28" y="1.2" transform="matrix(-1 -4.486867e-11 4.486867e-11 -1 59 5.4968)" class="bJ-cls-8" width="3" height="3" /></g><g id="bJS_sealant" style="">	<text transform="matrix(1 0 0 1 19.699 39.47)" class="bJ-cls-9 bJ-cls-10 bJ-cls-11" data-color-action="fill" style="fill:inherit">S</text></g><g id="bJS_rotated_mesial" style=""></g><g id="bJS_rotated_distal" style=""></g><g id="bJS_root_canal" style="">	<rect x="28" y="1.2" transform="matrix(-1 -4.486867e-11 4.486867e-11 -1 59 5.4968)" class="bJ-cls-8" width="3" height="3" />	<rect x="28" y="1.2" transform="matrix(-1 -4.486867e-11 4.486867e-11 -1 59 5.4968)" class="bJ-cls-8" width="3" height="3" />	<rect x="28" y="1.2" transform="matrix(-1 -4.486867e-11 4.486867e-11 -1 59 5.4968)" class="bJ-cls-8" width="3" height="3" /></g><g id="bJS_pins" style="">	<rect x="28" y="1.2" transform="matrix(-1 -4.486867e-11 4.486867e-11 -1 59 5.4968)" class="bJ-cls-8" width="3" height="3" />	<rect x="28" y="1.2" transform="matrix(-1 -4.486867e-11 4.486867e-11 -1 59 5.4968)" class="bJ-cls-8" width="3" height="3" />	<rect x="28" y="1.2" transform="matrix(-1 -4.486867e-11 4.486867e-11 -1 59 5.4968)" class="bJ-cls-8" width="3" height="3" /></g><g id="bJS_mesial_drift" style=""></g><g id="bJS_distal_drift" style=""></g><g id="bJS_crown" style="">	<g>		<path class="bJ-cls-13" d="M8.6,15c-1,1.3-1.1,7-0.8,10.8c0.4,3.8,1,5,1,6.8S7.8,36,8.4,40c0.6,3.9,7.5,6.6,9.3,6.9    c8,1.1,13.3-2.9,16.5-2c3.4,1,8.9,1,12.4-0.7c2.1-1,4.6-4.2,4.8-7.4s-0.7-7-0.3-8c0.4-1.1,0.3-3.6-0.3-7.7    c-0.3-2.1-2.2-7.7-8.1-8.2c-9.3-0.9-12.2-4.6-23-3.6C12.5,9.8,10.6,12.5,8.6,15z" data-color-action="fill" style="fill:inherit" />	</g></g><g id="bJS_cracked_surface_occlusal" style="">	<polyline class="bJ-cls-14" points="28.2,23.7 32,27.6 27,27.6 32,32.3 27,32.3 30.8,36.1  " data-color-action="stroke" style="stroke:inherit" /></g><g id="bJS_chipped_surface_occlusal" style="">	<g>		<line class="bJ-cls-14" x1="25.7" y1="25.4" x2="34" y2="33.7" data-color-action="stroke" style="stroke:inherit" />		<line class="bJ-cls-14" x1="34" y1="25.4" x2="25.7" y2="33.7" data-color-action="stroke" style="stroke:inherit" />	</g></g><g id="bJS_abscess" style="">	<rect x="28" y="1.2" transform="matrix(-1 -4.486867e-11 4.486867e-11 -1 59 5.4968)" class="bJ-cls-8" width="3" height="3" />	<rect x="28" y="1.2" transform="matrix(-1 -4.486867e-11 4.486867e-11 -1 59 5.4968)" class="bJ-cls-8" width="3" height="3" />	<rect x="28" y="1.2" transform="matrix(-1 -4.486867e-11 4.486867e-11 -1 59 5.4968)" class="bJ-cls-8" width="3" height="3" /></g><g id="bJS_missing_tooth" style="" data-name="missing tooth">	<g>		<g>			<path class="bJ-cls-2" d="M8.6,15c-1,1.3-1.1,7-0.8,10.8c0.4,3.8,1,5,1,6.8S7.8,36,8.4,40c0.6,3.9,7.5,6.6,9.3,6.9     c8,1.1,13.3-2.9,16.5-2c3.4,1,8.9,1,12.4-0.7c2.1-1,4.6-4.2,4.8-7.4s-0.7-7-0.3-8c0.4-1.1,0.3-3.6-0.3-7.7     c-0.3-2.1-2.2-7.7-8.1-8.2c-9.3-0.9-12.2-4.6-23-3.6C12.5,9.8,10.6,12.5,8.6,15z" data-color-action="fill,stroke" style="fill,stroke:inherit" />		</g>		<g>			<path class="bJ-cls-12" d="M8.6,15c-1,1.3-1.1,7-0.8,10.8c0.4,3.8,1,5,1,6.8S7.8,36,8.4,40c0.6,3.9,7.5,6.6,9.3,6.9     c8,1.1,13.3-2.9,16.5-2c3.4,1,8.9,1,12.4-0.7c2.1-1,4.6-4.2,4.8-7.4s-0.7-7-0.3-8c0.4-1.1,0.3-3.6-0.3-7.7     c-0.3-2.1-2.2-7.7-8.1-8.2c-9.3-0.9-12.2-4.6-23-3.6C12.5,9.8,10.6,12.5,8.6,15z" />		</g>		<path class="bJ-cls-12" d="M7.8,24.8c0.7,0.9,1.7,1.7,2.7,2.3c1.8,1-0.1,6.5-0.1,9.5c0,3,1.3,5.2,2.8,6.1c1.5,0.9,7.5,1.5,10,1.3    c2.5-0.1,6.9-2.1,9.6-2.5c2.7-0.4,6.5,2.1,9,1.8c2.5-0.3,5.5-2.2,6.9-3.8c1.5-1.6,1.5-6.4,1.2-7.8c-0.3-1.5-2.4-1.5-2.5-2.5    c-0.1-1,1.5-0.3,2.8-1.3c0.5-0.4,0.8-0.9,1.1-1.4c0,1.1,0,1.9-0.2,2.4c-0.4,1.1,0.5,4.8,0.3,8c-0.2,3.2-2.7,6.3-4.8,7.4    c-3.4,1.7-8.9,1.7-12.4,0.7c-3.2-0.9-8.5,3.1-16.5,2C15.9,46.6,9,43.9,8.4,40c-0.6-3.9,0.4-5.6,0.4-7.3c0-1.8-0.6-3-1-6.8    C7.8,25.5,7.8,25.2,7.8,24.8z" />		<path class="bJ-cls-12" d="M44.3,29.1c-0.7,1-2.1-1.3-3.1-0.6s-1,5.6-1.9,5.2c-0.9-0.4-0.1-5.3-1.3-5.5s-4-0.6-5.2-0.6    c-1.2,0-0.9,1.9-1.9,1.6c-1-0.3-0.4-1.9-2.4-1.9s-5.3,0.6-6.8,0.7c-1.5,0.1-1.5,7.1-2.7,6.6c-1.2-0.4,0.6-5.5-0.1-5.9    c-0.7-0.4-3.1-0.1-3.2-0.7c-0.1-0.6,2.5-0.9,2.8-1.6c0.3-0.7-5-6.2-4.1-6.6c0.9-0.4,6.8,6.9,8.4,6.5c1.6-0.4,3.1-0.6,4.4-0.7    c1.3-0.1,3.4-8.4,4.4-7.7c1,0.7-2.7,6.4-1.6,6.9c1,0.6,4.3,1.5,5.5,1.5s4.6-4.9,5.2-4.4c0.6,0.4-3.4,4.6-1.8,4.7    C40.4,26.7,45,28.1,44.3,29.1z" />		<path class="bJ-cls-12" d="M8,16.6c0.1-0.8,0.3-1.3,0.6-1.7c2-2.5,3.9-5.2,11-5.9c10.8-1,13.8,2.7,23,3.6c0.5,0,1,0.1,1.5,0.3    c-1.4,0.1-2.6,0.7-3.2,0.7c-1.2,0.1-4.2,0.6-6.4,0c-2.2-0.6-5.5-1.6-7.3-1.9c-4-0.7-9.2,0.3-10.7,0.6C14.2,12.8,9.5,15.2,8,16.6z" />	</g></g><g id="bJS_watch_tooth" style=""></g><g id="bJS_border" style="">	<rect x="0" transform="matrix(-1 -4.488910e-11 4.488910e-11 -1 59 56)" class="bJ-cls-8" width="59" height="56" />	<rect x="0" y="0" class="bJ-cls-8" width="59" height="56" /></g></defs></g><g class="cJ-cls-1" transform="translate(0 217)"><g id="_Jc">	<g>		<path class="cJ-cls-2" d="M12.2,40c-1.5-0.8-2.3-4.6-3.3-9c-1.2-5.6-1.9-10.5-1-12.3c2.8-5.4,7.5-6.4,10.7-6.5c3.2-0.1,5.7,1.6,9.1,3.1    c1.7,0.7,3,1.5,4.9,0.8c3.1-1.1,6.3-2.2,8.3-1.8c7.2,1.6,11.3,5.8,10.5,10.3c-0.9,4.8-1.4,14.3-4,15.7C44,42.3,17.3,42.8,12.2,40z    " />		<path class="cJ-cls-3" d="M12.2,40c-1.5-0.8-2.3-4.6-3.3-9c-1.2-5.6-1.9-10.5-1-12.3c2.8-5.4,7.5-6.4,10.7-6.5c3.2-0.1,5.7,1.6,9.1,3.1    c1.7,0.7,3,1.5,4.9,0.8c3.1-1.1,6.3-2.2,8.3-1.8c7.2,1.6,11.3,5.8,10.5,10.3c-0.9,4.8-1.4,14.3-4,15.7C44,42.3,17.3,42.8,12.2,40z    " />		<path class="cJ-cls-4" d="M30.4,19.6c-1.3-0.1-1.5,1.8-1.4,2.5c0.1,0.8,0.4,2,0.9,1.9c0.5-0.1,0.9-1.1,1-2.1    C31,20.9,31.3,19.7,30.4,19.6z" />		<path class="cJ-cls-5" d="M8,18.7c2.8-5.4,7.5-6.4,10.7-6.5c3.2-0.1,5.7,1.6,9.1,3.1c1.7,0.7,3,1.5,4.9,0.8c3.1-1.1,6.3-2.2,8.3-1.8    c7,1.5,11.1,5.6,10.5,10.1c-0.5-1.6-1.4-3.5-2.7-4.4c-2.4-1.7-6.3-3-7.7-3.4c-1.5-0.3-6.6,1.7-9,2.1s-6.6-1.3-8.5-2.5    c-2.5-1.6-5.6-2.1-8.2-1.1c-1.5,0.6-5.6,2.7-7.2,6c-0.2,0.5-0.4,1.2-0.5,2C7.5,21.1,7.5,19.5,8,18.7z" />		<path class="cJ-cls-4" d="M32.4,39.5c4.3-0.1,13-1,14.7-1.5c0.9-0.2,1.8-1.1,2.5-1.9c-0.5,2.1-1.2,3.7-2.2,4.2    C44,42.3,17.3,42.8,12.2,40c-0.8-0.4-1.3-1.6-1.8-3.2c0.7,0.5,2,1.2,3.6,1.4C16.4,38.5,28.1,39.6,32.4,39.5z" />	</g></g><defs><g id="cJS_lingual_V" style="">	<path class="cJ-cls-6" d="M42.6,41.4c-3.8-1.7-8-2.8-12.3-2.8c-4.4,0-8.7,1-12.6,2.7C24.8,42.2,36,42.1,42.6,41.4z" data-color-action="fill" style="fill:inherit" /></g><g id="cJS_lingual_pit" style="">	<ellipse class="cJ-cls-6" cx="30.4" cy="30.2" rx="3.7" ry="6" data-color-action="fill" style="fill:inherit" /></g><g id="cJS_mesial" style="">	<path class="cJ-cls-6" d="M12.1,25.4c0.1-0.9,0.3-1.9,0.5-2.9L9,16.9c-0.4,0.5-0.7,1.1-1,1.7c-0.9,1.7-0.3,6.1,0.8,11.3   C10.4,29.1,11.8,27.7,12.1,25.4z" data-color-action="fill" style="fill:inherit" /></g><g id="cJS_line_angle_4" style="">	<path class="cJ-cls-6" d="M18.6,18.5c1.6,0.1,2.7,0.4,3.7,0.8l-1.6-7c-0.7-0.1-1.3-0.2-2-0.2c-2.8,0.1-6.8,0.8-9.6,4.7l3.6,5.6   C13.3,20.3,14.7,18.3,18.6,18.5z" data-color-action="fill" style="fill:inherit" /></g><g id="cJS_groove_2" style="">	<path class="cJ-cls-6" d="M28.5,22.4c2.6,0.2,4.5-1.2,7.1-2.1l1.4-5.6c-1.4,0.4-2.9,0.9-4.4,1.4c-1.9,0.7-3.2-0.1-4.9-0.8   c-2.7-1.1-4.8-2.4-7.1-2.9l1.6,7C24.7,20.5,25.7,22.2,28.5,22.4z" data-color-action="fill" style="fill:inherit" /></g><g id="cJS_line_angle_3" style="">	<path class="cJ-cls-6" d="M40.6,19.5c2.4,0.1,4,1.7,5.3,4l3.6-4.8c-1.8-2-4.7-3.5-8.5-4.4c-1.1-0.2-2.4,0-3.9,0.4l-1.4,5.6   C37.1,19.8,38.7,19.4,40.6,19.5z" data-color-action="fill" style="fill:inherit" /></g><g id="cJS_distal" style="">	<path class="cJ-cls-6" d="M49.5,18.7l-3.6,4.8c0.8,1.5,1.4,3.3,2,5.3c0.4,1.4,1.4,2.4,2.6,3.1c0.4-2.6,0.7-5.2,1-7.1   C51.9,22.5,51.1,20.5,49.5,18.7z" data-color-action="fill" style="fill:inherit" /></g><g id="cJS_tipped_lingual" style="">	<g>		<path class="cJ-cls-7" d="M27.2,10.8c1.2-3.2,4.5-3.6,7.2,5c0.5,1.5,4.2,1.7,3.6,0c-1.9-5.7-5-9.6-8.5-8.7c-1.2,0.3-2.3,1.6-2.8,3.2    C26.9,10.4,27.1,10.6,27.2,10.8z" data-color-action="fill" style="fill:inherit" />		<polygon class="cJ-cls-7" points="29.1,13.5 41.3,13.5 38.5,22.6   " data-color-action="fill" style="fill:inherit" />	</g>	<rect x="28" y="3.2" transform="matrix(-1 -4.486867e-11 4.486867e-11 -1 59 9.5)" class="cJ-cls-8" width="3" height="3" /></g><g id="cJS_tipped_facial" style=""></g><g id="cJS_surface_restoration_mesial" style="">	<path class="cJ-cls-9" d="M7.9,18.8c-0.9,1.8-0.2,6.7,1,12.3c0.1,0.5,0.2,1,0.3,1.5c3.2,0.3,6,1.9,7.9,4.3c-0.6-3.2-1.2-6.5-1.4-7.2   c-1.1-5.2-1.3-7.4-1.3-8.3c0.2-0.3,0.4-0.6,0.6-0.8l-3.6-6C10.1,15.5,8.9,16.8,7.9,18.8z" data-color-action="fill" style="fill:inherit" /></g><g id="cJS_surface_restoration_lingual" style="">	<g>		<path class="cJ-cls-9" d="M17.1,36.8c1,1.2,1.7,2.6,2.1,4.2c3.1-2.4,6.9-3.8,11.1-3.8c4,0,7.6,1.3,10.6,3.5c0.3-1.3,0.8-2.6,1.5-3.7    c0.7-3.9,1.4-8.1,1.5-9c0.2-1.5,0.4-2.9,0.6-4.2c-0.3-0.4-1.6-1.7-4.7-2.4c-1,0.1-3.6,1-4.8,1.5c-1.2,0.4-2.5,0.7-3.8,0.7    c-2.5,0-4.4-0.8-5.8-1.4l-0.5-0.2c-0.9-0.4-1.8-0.8-2.6-1.2c-1.5-0.7-2.9-1.4-3.6-1.4l0,0c-2.4,0-3.5,1-4.2,2    c0,0.8,0.1,3.1,1.3,8.3C15.9,30.3,16.5,33.6,17.1,36.8z" data-color-action="fill" style="fill:inherit" />			</g></g><g id="cJS_surface_restoration_lingual_V" style="">	<g>				<path class="cJ-cls-9" d="M19.2,41c0.1,0.2,0.1,0.4,0.2,0.6c6.4,0.6,15.2,0.5,21.3,0c0-0.3,0.1-0.7,0.2-1c-3-2.2-6.6-3.5-10.6-3.5    C26.1,37.2,22.3,38.6,19.2,41z" data-color-action="fill" style="fill:inherit" />	</g></g><g id="cJS_surface_restoration_distal" style="">	<path class="cJ-cls-9" d="M44.5,23.7c-0.2,1.3-0.4,2.7-0.6,4.2c-0.1,1-0.8,5.2-1.5,9c1.7-2.8,4.6-4.8,8.1-5.3c0.4-2.5,0.6-5,1-6.9   c0.5-2.9-0.9-5.6-3.9-7.6l-5.2,5.1C43.6,22.8,44.3,23.4,44.5,23.7z" data-color-action="fill" style="fill:inherit" /></g><g id="cJS_surface_restoration_occlusal" style="">	<path class="cJ-cls-9" d="M32.6,16.2c-1.9,0.7-3.2-0.1-4.9-0.8c-3.4-1.5-6-3.2-9.1-3.1c-2,0-4.7,0.5-7.1,2.2l3.6,6   c0.7-0.7,1.8-1.2,3.6-1.2l0,0c0.8,0,2.1,0.6,3.6,1.4c0.8,0.4,1.7,0.8,2.6,1.2l0.5,0.2c1.4,0.6,3.3,1.4,5.8,1.4   c1.3,0,2.5-0.2,3.8-0.7c1.2-0.4,3.8-1.3,4.8-1.5c1,0.2,1.9,0.6,2.5,0.9l5.2-5.1c-1.7-1.2-3.9-2.1-6.6-2.7   C38.9,14,35.7,15.1,32.6,16.2z" data-color-action="fill" style="fill:inherit" /></g><g id="cJS_sub-erupted" style=""></g><g id="cJS_rotated_mesial" style=""></g><g id="cJS_rotate_distal" style=""></g><g id="cJS_root_canal" style=""></g><g id="cJS_pins" style=""></g><g id="cJS_crown" style="">	<path class="cJ-cls-11" d="M12.2,40c-1.5-0.8-2.3-4.6-3.3-9c-1.2-5.6-1.9-10.5-1-12.3c2.8-5.4,7.5-6.4,10.7-6.5s5.7,1.6,9.1,3.1   c1.7,0.7,3,1.5,4.9,0.8c3.1-1.1,6.3-2.2,8.3-1.8c7.2,1.6,11.3,5.8,10.5,10.3c-0.9,4.8-1.4,14.3-4,15.7C44,42.3,17.3,42.8,12.2,40z" data-color-action="fill" style="fill:inherit" /></g><g id="cJS_cracked_surface_mesial" style="">	<polyline class="cJ-cls-12" points="12.8,21.7 16.7,25.6 11.7,25.6 16.7,30.3 11.7,30.3 15.5,34.1  " data-color-action="stroke" style="stroke:inherit" /></g><g id="cJS_cracked_surface_lingual" style="">	<polyline class="cJ-cls-12" points="28,21.7 31.8,25.6 26.8,25.6 31.8,30.3 26.8,30.3 30.7,34.1  " data-color-action="stroke" style="stroke:inherit" /></g><g id="cJS_cracked_surface_lingual_V" style="">	<polyline class="cJ-cls-12" points="28,21.7 31.8,25.6 26.8,25.6 31.8,30.3 26.8,30.3 30.7,34.1  " data-color-action="stroke" style="stroke:inherit" /></g><g id="cJS_cracked_surface_distal" style="">	<polyline class="cJ-cls-12" points="43.8,21.7 47.7,25.6 42.7,25.6 47.7,30.3 42.7,30.3 46.5,34.1  " data-color-action="stroke" style="stroke:inherit" /></g><g id="cJS_chipped_surface_mesial" style="">	<g>		<line class="cJ-cls-12" x1="19" y1="23.4" x2="10.7" y2="31.7" data-color-action="stroke" style="stroke:inherit" />		<line class="cJ-cls-12" x1="10.7" y1="23.4" x2="19" y2="31.7" data-color-action="stroke" style="stroke:inherit" />	</g></g><g id="cJS_chipped_surface_lingual" style="">	<g>		<line class="cJ-cls-12" x1="33.2" y1="23.4" x2="24.8" y2="31.7" data-color-action="stroke" style="stroke:inherit" />		<line class="cJ-cls-12" x1="24.8" y1="23.4" x2="33.2" y2="31.7" data-color-action="stroke" style="stroke:inherit" />	</g></g><g id="cJS_chipped_surface_lingual_V" style="">	<g>		<line class="cJ-cls-12" x1="33.2" y1="23.4" x2="24.8" y2="31.7" data-color-action="stroke" style="stroke:inherit" />		<line class="cJ-cls-12" x1="24.8" y1="23.4" x2="33.2" y2="31.7" data-color-action="stroke" style="stroke:inherit" />	</g></g><g id="cJS_chipped_surface_distal" style="">	<g>		<line class="cJ-cls-12" x1="48.2" y1="23.4" x2="39.8" y2="31.7" data-color-action="stroke" style="stroke:inherit" />		<line class="cJ-cls-12" x1="39.8" y1="23.4" x2="48.2" y2="31.7" data-color-action="stroke" style="stroke:inherit" />	</g></g><g id="cJS_abscess" style=""></g><g id="cJS_missing_tooth" style="" data-name="missing tooth">	<g>		<path class="cJ-cls-2" d="M12.2,40c-1.5-0.8-2.3-4.6-3.3-9c-1.2-5.6-1.9-10.5-1-12.3c2.8-5.4,7.5-6.4,10.7-6.5c3.2-0.1,5.7,1.6,9.1,3.1    c1.7,0.7,3,1.5,4.9,0.8c3.1-1.1,6.3-2.2,8.3-1.8c7.2,1.6,11.3,5.8,10.5,10.3c-0.9,4.8-1.4,14.3-4,15.7C44,42.3,17.3,42.8,12.2,40z    " data-color-action="fill,stroke" style="fill,stroke:inherit" />		<path class="cJ-cls-10" d="M12.2,40c-1.5-0.8-2.3-4.6-3.3-9c-1.2-5.6-1.9-10.5-1-12.3c2.8-5.4,7.5-6.4,10.7-6.5c3.2-0.1,5.7,1.6,9.1,3.1    c1.7,0.7,3,1.5,4.9,0.8c3.1-1.1,6.3-2.2,8.3-1.8c7.2,1.6,11.3,5.8,10.5,10.3c-0.9,4.8-1.4,14.3-4,15.7C44,42.3,17.3,42.8,12.2,40z    " />		<path class="cJ-cls-10" d="M30.4,19.6c-1.3-0.1-1.5,1.8-1.4,2.5c0.1,0.8,0.4,2,0.9,1.9c0.5-0.1,0.9-1.1,1-2.1    C31,20.9,31.3,19.7,30.4,19.6z" />		<path class="cJ-cls-10" d="M8,18.7c2.8-5.4,7.5-6.4,10.7-6.5c3.2-0.1,5.7,1.6,9.1,3.1c1.7,0.7,3,1.5,4.9,0.8c3.1-1.1,6.3-2.2,8.3-1.8    c7,1.5,11.1,5.6,10.5,10.1c-0.5-1.6-1.4-3.5-2.7-4.4c-2.4-1.7-6.3-3-7.7-3.4c-1.5-0.3-6.6,1.7-9,2.1s-6.6-1.3-8.5-2.5    c-2.5-1.6-5.6-2.1-8.2-1.1c-1.5,0.6-5.6,2.7-7.2,6c-0.2,0.5-0.4,1.2-0.5,2C7.5,21.1,7.5,19.5,8,18.7z" />		<path class="cJ-cls-10" d="M32.4,39.5c4.3-0.1,13-1,14.7-1.5c0.9-0.2,1.8-1.1,2.5-1.9c-0.5,2.1-1.2,3.7-2.2,4.2    C44,42.3,17.3,42.8,12.2,40c-0.8-0.4-1.3-1.6-1.8-3.2c0.7,0.5,2,1.2,3.6,1.4C16.4,38.5,28.1,39.6,32.4,39.5z" />	</g></g><g id="cJS_watch_tooth" style=""></g><g id="cJS_border" style="">	<rect x="0" transform="matrix(-1 -4.488910e-11 4.488910e-11 -1 59 66)" class="cJ-cls-8" width="59" height="66" />	<rect class="cJ-cls-8" width="59" height="66" /></g></defs></g></svg>