<svg xmlns="http://www.w3.org/2000/svg" viewBox="0 0 59 283"><defs><style>.a16-cls-1{isolation:isolate}.a16-cls-2,.a16-cls-24{fill:#c5c7c9}.a16-cls-24{stroke:none}.a16-cls-2{stroke:#c5c7c9;stroke-width:5px}.a16-cls-19,.a16-cls-2,.a16-cls-21,.a16-cls-23,.a16-cls-25,.a16-cls-26,.a16-cls-29,.a16-cls-32,.a16-cls-33{stroke-miterlimit:10}.a16-cls-3{fill:#f5d7cf;stroke:none}.a16-cls-4,.a16-cls-5{fill:#fae8e3;stroke:none}.a16-cls-5{fill:#f2c6bc}.a16-cls-6,.a16-cls-7{fill:#eeefef;stroke:none}.a16-cls-7{fill:#e2e3e4}.a16-cls-8,.a16-cls-9{fill:#fbfbfb;stroke:none}.a16-cls-9{font-size:15px;fill:#929497;font-family:ProximaNova-Semibold,Proxima Nova,sans-serif;font-weight:700}.a16-cls-10,.a16-cls-27,.a16-cls-36{fill:#3c3d3d;stroke:none}.a16-cls-10{opacity:.55}.a16-cls-11{fill:#ffd403;stroke:none}.a16-cls-12,.a16-cls-31{fill:#ffef3e;stroke:none}.a16-cls-13,.a16-cls-20{fill:#c52636;stroke:none}.a16-cls-14{fill:none;stroke:none}.a16-cls-19,.a16-cls-21,.a16-cls-23,.a16-cls-25,.a16-cls-26,.a16-cls-29,.a16-cls-32,.a16-cls-33{fill:none}.a16-cls-16,.a16-cls-37{fill:#28418b;stroke:none}.a16-cls-17,.a16-cls-18{fill:#787878;stroke:none}.a16-cls-19,.a16-cls-21,.a16-cls-23,.a16-cls-29,.a16-cls-32,.a16-cls-33{stroke:#c52636}.a16-cls-19,.a16-cls-21,.a16-cls-26{stroke-width:2px}.a16-cls-21{stroke-linecap:round}.a16-cls-22{fill:#fff;stroke:none}.a16-cls-25,.a16-cls-26{stroke:#28418b}.a16-cls-25{stroke-width:3px}.a16-cls-28{opacity:.6}.a16-cls-29{stroke-width:4px}.a16-cls-30{fill:#f05b85;stroke:none}.a16-cls-32,.a16-cls-33{stroke-width:1.25px}.a16-cls-34{fill:#9b9999;stroke:none}.a16-cls-35{fill:#dbdbdc;stroke:none}.b16-cls-1{isolation:isolate}.b16-cls-2{fill:#c5c7c9;stroke:#c5c7c9;stroke-width:5px}.b16-cls-16,.b16-cls-17,.b16-cls-2{stroke-miterlimit:10}.b16-cls-3{fill:#eeefef;stroke:none}.b16-cls-4,.b16-cls-5{fill:#e2e3e4;stroke:none}.b16-cls-5{fill:#fbfbfb}.b16-cls-14,.b16-cls-6{fill:#3c3d3d;stroke:none}.b16-cls-6{opacity:.55}.b16-cls-16,.b16-cls-17{fill:none}.b16-cls-7{fill:none;stroke:none}.b16-cls-13,.b16-cls-8,.b16-cls-9{fill:#787878;stroke:none}.b16-cls-9{font-size:33px;fill:#28418b;font-family:ProximaNova-Semibold,Proxima Nova,sans-serif;font-weight:700}.b16-cls-10{fill:#fff;stroke:none}.b16-cls-12{fill:#c52636;stroke:none}.b16-cls-15{fill:#ffef3e;stroke:none}.b16-cls-16,.b16-cls-17{stroke:#c52636;stroke-width:1.25px}.c16-cls-1{isolation:isolate}.c16-cls-16,.c16-cls-2{fill:#c5c7c9;stroke:none}.c16-cls-2{stroke:#c5c7c9;stroke-width:5px}.c16-cls-2,.c16-cls-20,.c16-cls-21{stroke-miterlimit:10}.c16-cls-3{fill:#eeefef;stroke:none}.c16-cls-4,.c16-cls-5{fill:#fbfbfb;stroke:none}.c16-cls-5{fill:#e2e3e4}.c16-cls-17,.c16-cls-6{fill:#3c3d3d;stroke:none}.c16-cls-6{opacity:.55}.c16-cls-20,.c16-cls-21{fill:none}.c16-cls-7,.c16-cls-9{fill:none;stroke:none}.c16-cls-9{fill:#28418b}.c16-cls-10,.c16-cls-11{fill:#787878;stroke:none}.c16-cls-12,.c16-cls-19{fill:#ffef3e;stroke:none}.c16-cls-13{fill:#fff;stroke:none}.c16-cls-14,.c16-cls-15{fill:#c52636;stroke:none}.c16-cls-18{opacity:.6}.c16-cls-20,.c16-cls-21{stroke:#c52636;stroke-width:1.25px}.a16-msng-cls-1{isolation:isolate}.a16-msng-cls-2{fill:#c5c7c9;stroke:#c5c7c9;stroke-width:5px}.a16-msng-cls-11,.a16-msng-cls-2{stroke-miterlimit:10}.a16-msng-cls-3{fill:#f5d7cf;stroke:none}.a16-msng-cls-4{fill:#fae8e3;stroke:none}.a16-msng-cls-5{fill:#f2c6bc;stroke:none}.a16-msng-cls-6{fill:#eeefef;stroke:none}.a16-msng-cls-7{fill:#e2e3e4;stroke:none}.a16-msng-cls-8{fill:#fbfbfb;stroke:none}.a16-msng-cls-9{font-size:15px;fill:#929497;font-family:ProximaNova-Semibold,Proxima Nova;font-weight:700;stroke:none}.a16-msng-cls-11{fill:none}.a16-msng-cls-12{fill:none;stroke:none}.a16-msng-cls-11{stroke:#787878;stroke-width:6.25px}</style></defs><g class="a16-cls-1"><g id="_16A" data-name="#16A"><path d="M46.15 126.8a3.14 3.14 0 0 0-1-.6c-1.9-5-5.28-13.06-5.28-23.2s-2.51-17.85-3.44-21.45-2.66-2.19-3.76 0-3.91 11.27-10 22.23c-2.7 4.85-7.47 14.2-8.81 22.63-.09.08-.19.15-.27.24-1.72 1.78-2.82 14.72-2 18.16s4.07 6.26 6.58 6.11 7-3 9.71-3 8.46 2.66 10.18 2.51 8-.94 8.77-4.54 1.83-16.43-.68-19.09z" class="a16-cls-2"/><path d="M13.59 128.52c.78-8.93 6.15-19.48 9.08-24.74 6.11-11 8.93-20 10-22.23s2.82-3.6 3.76 0S39.89 93 39.89 103c0 11.12 4.07 19.73 5.79 24.58s-32.78 8.75-32.09.94z" class="a16-cls-3"/><path d="M34.72 82.19c-.38 1 .53 5.54.43 10.87s-1.49 12.15-1.39 16.84-.43 6.93.11 10.23a34.89 34.89 0 0 1 .75 5.44c0 1.39 5.12 3.2 4.8 1s-1.17-5.33-2-9.81-.42-11.44-.42-17.3-2-18.12-2.28-17.27z" class="a16-cls-4"/><path d="M16.6 125.89c.32-3.94 2.13-8 3.94-13.22s5.76-11.3 8.21-18.23a28.3 28.3 0 0 0 1.61-7.07 136.64 136.64 0 0 1-7.69 16.4c-2.93 5.26-8.3 15.81-9.08 24.74a2.4 2.4 0 0 0 0 .55 3.54 3.54 0 0 0 3.01-3.17zM45.69 127.58c-1.69-4.85-5.8-13.46-5.8-24.58A72 72 0 0 0 37 83.63c.08 1.2.18 2.51.37 4a112.42 112.42 0 0 1 1.17 15.67 49.49 49.49 0 0 0 1.39 14c1.07 4.26 3.62 8.63 4.26 11.51.05.24.13.51.22.79 1.02-.67 1.52-1.33 1.28-2.02z" class="a16-cls-5"/><path d="M13.59 126.64c-1.72 1.78-2.82 14.72-2 18.16s4.07 6.26 6.58 6.11 7-3 9.71-3 8.46 2.66 10.18 2.51 8-.94 8.77-4.54 1.88-16.44-.63-19.1-28.07-4.84-32.61-.14z" class="a16-cls-6"/><path d="M14.24 146c-.64-3.84.21-17.89 1.58-20.71a6.08 6.08 0 0 0-2.23 1.31c-1.72 1.78-2.82 14.72-2 18.16a8.64 8.64 0 0 0 4.41 5.66 11.33 11.33 0 0 1-1.76-4.42zM46.15 126.8a5.57 5.57 0 0 0-2.22-1c1.77 3.91.9 17.59.26 21.56a4.78 4.78 0 0 1-.73 1.88c1.59-.68 3-1.71 3.32-3.28.78-3.66 1.88-16.5-.63-19.16zM27.83 147.94a18.3 18.3 0 0 1 4.65 1.06c-2-1-4.2-2.21-5.54-2.21-1.5 0-2.74 1.62-4 2.59a15.31 15.31 0 0 1 4.89-1.44z" class="a16-cls-7"/><path d="M34.61 131c-.11 4.16-.53 12.15-.75 14.07a35.64 35.64 0 0 1-.53 4.19 17.77 17.77 0 0 0 4.67 1.18h.25l.19-.87c.53-2.45.64-9.27.64-13.86 0-4 0-9-.49-11-1.42-.2-3-.37-4.55-.5a24.24 24.24 0 0 1 .57 6.79z" class="a16-cls-8"/><text class="a16-cls-9" transform="translate(20.48 20.51)">66</text></g><defs><g id="a66_bone_graft" data-name="bone graft"><path d="M2 23.31h55v103.01H2z" class="a16-cls-16" data-color-action="fill" style="fill:inherit"/><path d="M46.15 126.8a3.14 3.14 0 0 0-1-.6c-1.9-5-5.28-13.06-5.28-23.2s-2.51-17.85-3.44-21.45-2.66-2.19-3.76 0-3.91 11.27-10 22.23c-2.7 4.85-7.47 14.2-8.81 22.63-.09.08-.19.15-.27.24-1.72 1.78-2.82 14.72-2 18.16s4.07 6.26 6.58 6.11 7-3 9.71-3 8.46 2.66 10.18 2.51 8-.94 8.77-4.54 1.83-16.43-.68-19.09z" class="a16-cls-2"/><path d="M13.59 128.52c.78-8.93 6.15-19.48 9.08-24.74 6.11-11 8.93-20 10-22.23s2.82-3.6 3.76 0S39.89 93 39.89 103c0 11.12 4.07 19.73 5.79 24.58s-32.78 8.75-32.09.94z" class="a16-cls-3"/><path d="M34.72 82.19c-.38 1 .53 5.54.43 10.87s-1.49 12.15-1.39 16.84-.43 6.93.11 10.23a34.89 34.89 0 0 1 .75 5.44c0 1.39 5.12 3.2 4.8 1s-1.17-5.33-2-9.81-.42-11.44-.42-17.3-2-18.12-2.28-17.27z" class="a16-cls-4"/><path d="M16.6 125.89c.32-3.94 2.13-8 3.94-13.22s5.76-11.3 8.21-18.23a28.3 28.3 0 0 0 1.61-7.07 136.64 136.64 0 0 1-7.69 16.4c-2.93 5.26-8.3 15.81-9.08 24.74a2.4 2.4 0 0 0 0 .55 3.54 3.54 0 0 0 3.01-3.17zM45.69 127.58c-1.69-4.85-5.8-13.46-5.8-24.58A72 72 0 0 0 37 83.63c.08 1.2.18 2.51.37 4a112.42 112.42 0 0 1 1.17 15.67 49.49 49.49 0 0 0 1.39 14c1.07 4.26 3.62 8.63 4.26 11.51.05.24.13.51.22.79 1.02-.67 1.52-1.33 1.28-2.02z" class="a16-cls-5"/><path d="M13.59 126.64c-1.72 1.78-2.82 14.72-2 18.16s4.07 6.26 6.58 6.11 7-3 9.71-3 8.46 2.66 10.18 2.51 8-.94 8.77-4.54 1.88-16.44-.63-19.1-28.07-4.84-32.61-.14z" class="a16-cls-6"/><path d="M14.24 146c-.64-3.84.21-17.89 1.58-20.71a6.08 6.08 0 0 0-2.23 1.31c-1.72 1.78-2.82 14.72-2 18.16a8.64 8.64 0 0 0 4.41 5.66 11.33 11.33 0 0 1-1.76-4.42zM46.15 126.8a5.57 5.57 0 0 0-2.22-1c1.77 3.91.9 17.59.26 21.56a4.78 4.78 0 0 1-.73 1.88c1.59-.68 3-1.71 3.32-3.28.78-3.66 1.88-16.5-.63-19.16zM27.83 147.94a18.3 18.3 0 0 1 4.65 1.06c-2-1-4.2-2.21-5.54-2.21-1.5 0-2.74 1.62-4 2.59a15.31 15.31 0 0 1 4.89-1.44z" class="a16-cls-7"/><path d="M34.61 131c-.11 4.16-.53 12.15-.75 14.07a35.64 35.64 0 0 1-.53 4.19 17.77 17.77 0 0 0 4.67 1.18h.25l.19-.87c.53-2.45.64-9.27.64-13.86 0-4 0-9-.49-11-1.42-.2-3-.37-4.55-.5a24.24 24.24 0 0 1 .57 6.79z" class="a16-cls-8"/></g><g id="a66_splinted_crowns" data-name="splinted crowns"><path d="M2 118.59h55v7.67H2z" class="a16-cls-12" transform="rotate(-180 29.5 122.42)" data-color-action="fill" style="fill:inherit"/><path d="M46.15 126.8a3.14 3.14 0 0 0-1-.6c-1.9-5-5.28-13.06-5.28-23.2s-2.51-17.85-3.44-21.45-2.66-2.19-3.76 0-3.91 11.27-10 22.23c-2.7 4.85-7.47 14.2-8.81 22.63-.09.08-.19.15-.27.24-1.72 1.78-2.82 14.72-2 18.16s4.07 6.26 6.58 6.11 7-3 9.71-3 8.46 2.66 10.18 2.51 8-.94 8.77-4.54 1.83-16.43-.68-19.09z" class="a16-cls-2"/><path d="M13.59 128.52c.78-8.93 6.15-19.48 9.08-24.74 6.11-11 8.93-20 10-22.23s2.82-3.6 3.76 0S39.89 93 39.89 103c0 11.12 4.07 19.73 5.79 24.58s-32.78 8.75-32.09.94z" class="a16-cls-3"/><path d="M34.72 82.19c-.38 1 .53 5.54.43 10.87s-1.49 12.15-1.39 16.84-.43 6.93.11 10.23a34.89 34.89 0 0 1 .75 5.44c0 1.39 5.12 3.2 4.8 1s-1.17-5.33-2-9.81-.42-11.44-.42-17.3-2-18.12-2.28-17.27z" class="a16-cls-4"/><path d="M16.6 125.89c.32-3.94 2.13-8 3.94-13.22s5.76-11.3 8.21-18.23a28.3 28.3 0 0 0 1.61-7.07 136.64 136.64 0 0 1-7.69 16.4c-2.93 5.26-8.3 15.81-9.08 24.74a2.4 2.4 0 0 0 0 .55 3.54 3.54 0 0 0 3.01-3.17zM45.69 127.58c-1.69-4.85-5.8-13.46-5.8-24.58A72 72 0 0 0 37 83.63c.08 1.2.18 2.51.37 4a112.42 112.42 0 0 1 1.17 15.67 49.49 49.49 0 0 0 1.39 14c1.07 4.26 3.62 8.63 4.26 11.51.05.24.13.51.22.79 1.02-.67 1.52-1.33 1.28-2.02z" class="a16-cls-5"/><path d="M13.59 126.64c-1.72 1.78-2.82 14.72-2 18.16s4.07 6.26 6.58 6.11 7-3 9.71-3 8.46 2.66 10.18 2.51 8-.94 8.77-4.54 1.88-16.44-.63-19.1-28.07-4.84-32.61-.14z" class="a16-cls-6"/><path d="M14.24 146c-.64-3.84.21-17.89 1.58-20.71a6.08 6.08 0 0 0-2.23 1.31c-1.72 1.78-2.82 14.72-2 18.16a8.64 8.64 0 0 0 4.41 5.66 11.33 11.33 0 0 1-1.76-4.42zM46.15 126.8a5.57 5.57 0 0 0-2.22-1c1.77 3.91.9 17.59.26 21.56a4.78 4.78 0 0 1-.73 1.88c1.59-.68 3-1.71 3.32-3.28.78-3.66 1.88-16.5-.63-19.16zM27.83 147.94a18.3 18.3 0 0 1 4.65 1.06c-2-1-4.2-2.21-5.54-2.21-1.5 0-2.74 1.62-4 2.59a15.31 15.31 0 0 1 4.89-1.44z" class="a16-cls-7"/><path d="M34.61 131c-.11 4.16-.53 12.15-.75 14.07a35.64 35.64 0 0 1-.53 4.19 17.77 17.77 0 0 0 4.67 1.18h.25l.19-.87c.53-2.45.64-9.27.64-13.86 0-4 0-9-.49-11-1.42-.2-3-.37-4.55-.5a24.24 24.24 0 0 1 .57 6.79z" class="a16-cls-8"/></g><path id="a66_mesial" d="M16.35 139.56a16.38 16.38 0 0 0 .42 2.28l-3.9 5.88a8.28 8.28 0 0 1-1.32-2.91c-.39-1.71-.31-5.77.07-9.64 2.12.52 4.38 1.71 4.73 4.39z" class="a16-cls-10" data-color-action="fill" style="fill:inherit"/><path id="a66_line_angle_2" d="M21.44 145.07a7.79 7.79 0 0 0 2.86-.58l-1.1 4.77a20.15 20.15 0 0 1-5.08 1.66c-1.74.11-3.86-1.22-5.25-3.2l3.9-5.88c.5 1.76 1.61 3.33 4.67 3.23z" class="a16-cls-10" data-color-action="fill" style="fill:inherit" data-name="line angle 2"/><path id="a66_groove_1" d="M29.21 142.24c2-.09 3.54 1.05 5.56 1.84l1.55 6.1c-2.47-.65-6.41-2.24-8.48-2.24a14.29 14.29 0 0 0-4.63 1.31l1.1-4.77c1.88-.79 2.69-2.14 4.9-2.24z" class="a16-cls-10" data-color-action="fill" style="fill:inherit" data-name="groove 1"/><path id="a66_line_angle_1" d="M38.67 144.78c1.9-.06 3.17-1.21 4.12-3l3.67 4.95c-1.49 2.88-6.87 3.56-8.45 3.7a5.73 5.73 0 0 1-1.7-.26l-1.55-6.1a9.56 9.56 0 0 0 3.91.71z" class="a16-cls-10" data-color-action="fill" style="fill:inherit" data-name="line angle 1"/><path id="a66_distal" d="M46.78 145.9a3.38 3.38 0 0 1-.32.84l-3.67-4.95a21.08 21.08 0 0 0 1.53-4.07 4.44 4.44 0 0 1 3.39-2.86 61.55 61.55 0 0 1-.93 11.04z" class="a16-cls-10" data-color-action="fill" style="fill:inherit"/><ellipse id="a66_buccal_pit" cx="29.48" cy="134.99" class="a16-cls-10" rx="3.36" ry="5.4" data-color-action="fill" style="fill:inherit" data-name="buccal pit"/><path id="a66_buccal_V" d="M29.34 127.28a27 27 0 0 1-10.8-2.69c6.25-1.21 16.25-.69 22.41.46a27 27 0 0 1-11.61 2.23z" class="a16-cls-10" data-color-action="fill" style="fill:inherit" data-name="buccal V"/><path id="a66_veneer" d="M13.59 126.64c-1.72 1.78-2.82 14.72-2 18.16s4.07 6.26 6.58 6.11 7-3 9.71-3 8.46 2.66 10.18 2.51 8-.94 8.77-4.54 1.88-16.44-.63-19.1-28.07-4.84-32.61-.14z" class="a16-cls-12" data-color-action="fill" style="fill:inherit"/><path id="a66_tissue_graft" d="M12.03 109.67l17.47 13.88 17.47-13.88H12.03z" class="a16-cls-13" data-color-action="fill" style="fill:inherit" data-name="tissue graft"/><g id="a66_tipped_lingual" data-name="tipped lingual"><path d="M28 3.25h3v3h-3z" class="a16-cls-14" transform="rotate(-180 29.5 4.75)"/><path d="M28 3.25h3v3h-3z" class="a16-cls-14" transform="rotate(-180 29.5 4.75)"/><path d="M28 3.25h3v3h-3z" class="a16-cls-14" transform="rotate(-180 29.5 4.75)"/></g><g id="a66_tipped_facial" class="a16-cls-15" data-name="tipped facial"><path d="M33.15 153.5c-1.26 3.37-4.74 3.85-7.69-5.32-.5-1.56-4.42-1.76-3.84 0 2 6.08 5.31 10.2 9.06 9.27a4.86 4.86 0 0 0 3-3.38 5.27 5.27 0 0 1-.53-.57z" class="a16-cls-16" data-color-action="fill" style="fill:inherit"/><path d="M31.07 150.58H18.13l2.94-9.64 10 9.64z" class="a16-cls-16" data-color-action="fill" style="fill:inherit"/></g><path id="a66_surface_restoration_occlusal" d="M18.53 143.59L20 143c2.38-1 5.08-2.07 7.86-2.07a27.08 27.08 0 0 1 7.88 1.74c.71.23 1.72.56 2.32.72.37 0 .7-.11 1-.17l4.37 6a19.43 19.43 0 0 1-5.43 1.22c-1.72.16-7.52-2.51-10.18-2.51s-7.2 2.82-9.71 3a6.08 6.08 0 0 1-4.39-2.15l4.76-5.23z" class="a16-cls-17" data-color-action="fill" style="fill:inherit" data-name="surface restoration occlusal"/><path id="a66_surface_restoration_distal" d="M40.21 142.94c.26-1.86.45-7.8.51-12.82a11.61 11.61 0 0 0 7 6.2 59.73 59.73 0 0 1-.91 9.59c-.34 1.58-1.75 2.62-3.35 3.3l-4.37-6a11.73 11.73 0 0 0 1.12-.27z" class="a16-cls-17" data-color-action="fill" style="fill:inherit" data-name="surface restoration distal"/><path id="a66_surface_restoration_buccal" d="M20.13 125.18v-.85l.63-.08a15.74 15.74 0 0 0 9.8 3.26 16 16 0 0 0 9.05-2.71h.11v.46a11.51 11.51 0 0 0 1.06 4.83c-.05 5-.24 11-.51 12.82a13.32 13.32 0 0 1-2.16.46c-.6-.16-1.61-.49-2.32-.72a27.08 27.08 0 0 0-7.88-1.74c-2.78 0-5.48 1.1-7.86 2.07l-1.46.58a1 1 0 0 1-.13-.28c-.19-1.07-.12-6.9.11-12.23a11.48 11.48 0 0 0 1.56-5.87z" class="a16-cls-15 a16-cls-18" data-color-action="fill" style="fill:inherit" data-name="surface restoration buccal"/><path id="a66_surface_restoration_buccal_V" d="M20.72 124.26a76 76 0 0 1 18.85.55 16 16 0 0 1-9.05 2.71 15.74 15.74 0 0 1-9.8-3.26z" class="a16-cls-15 a16-cls-18" data-color-action="fill" style="fill:inherit" data-name="surface restoration buccal V"/><path id="a66_surface_restoration_mesial" d="M11.53 136.36a11.6 11.6 0 0 0 7-5.28c-.22 5.33-.29 11.16-.11 12.23a1 1 0 0 0 .11.22l-4.76 5.23a8.6 8.6 0 0 1-2.18-4 35.88 35.88 0 0 1-.06-8.4z" class="a16-cls-17" data-color-action="fill" style="fill:inherit" data-name="surface restoration mesial"/><g id="a66_supra-erupted" class="a16-cls-15"><path d="M29.5 116.89v-7.68" class="a16-cls-19" data-color-action="stroke" style="stroke:inherit"/><path d="M33.49 115.72l-3.99 6.91-3.99-6.91h7.98z" class="a16-cls-20" data-color-action="fill" style="fill:inherit"/></g><g id="a66_sub-erupted" class="a16-cls-15"><path d="M29.5 114.95v7.68" class="a16-cls-19" data-color-action="stroke" style="stroke:inherit"/><path d="M25.51 116.12l3.99-6.91 3.99 6.91h-7.98z" class="a16-cls-20" data-color-action="fill" style="fill:inherit"/></g><g id="a66_sealant"><path d="M28 3.25h3v3h-3z" class="a16-cls-14" transform="rotate(-180 29.5 4.75)"/><path d="M28 3.25h3v3h-3z" class="a16-cls-14" transform="rotate(-180 29.5 4.75)"/><path d="M28 3.25h3v3h-3z" class="a16-cls-14" transform="rotate(-180 29.5 4.75)"/></g><g id="a66_rotated_mesial" class="a16-cls-15" data-name="rotated mesial"><path d="M53.13 128.18c3 1.79 2.3 5.46-10.23 5.81-5.3.15-8.95 0-8.95 0l.07 3s1 .07 8.22-.24c7.62-.32 14-1.83 13.75-6a4 4 0 0 0-2.31-2.92c-.17.17-.42.28-.55.35z" class="a16-cls-16" data-color-action="fill" style="fill:inherit"/><path d="M40.43 129.47v11.89l-10.4-5.9 10.4-5.99z" class="a16-cls-16" data-color-action="fill" style="fill:inherit"/></g><g id="a66_rotated_distal" class="a16-cls-15" data-name="rotated distal"><path d="M5.87 128.18c-3 1.79-2.3 5.46 10.23 5.81 5.3.15 8.95 0 8.95 0L25 137s-1 .07-8.22-.24c-7.62-.32-14-1.83-13.75-6a4 4 0 0 1 2.31-2.92c.15.16.4.27.53.34z" class="a16-cls-16" data-color-action="fill" style="fill:inherit"/><path d="M18.57 129.47v11.89l10.4-5.9-10.4-5.99z" class="a16-cls-16" data-color-action="fill" style="fill:inherit"/></g><circle id="a66_root_decay" cx="32.75" cy="100.25" r="4.42" class="a16-cls-15 a16-cls-18" data-color-action="fill" style="fill:inherit" data-name="root decay"/><path id="a66_root_canal" d="M34.5 82.83l-3.67 37.84" class="a16-cls-21" data-color-action="stroke" style="stroke:inherit" data-name="root canal"/><path id="a66_root_abrasion" d="M30.92 92.34h3.5v13.83h-3.5z" class="a16-cls-15 a16-cls-23" transform="rotate(-180 32.665 99.255)" data-color-action="stroke" style="stroke:inherit" data-name="root abrasion"/><g id="a66_post"><path d="M28.18 101.4h3.14v41.77h-3.14z" class="a16-cls-18" transform="rotate(-180 29.755 122.285)" data-color-action="fill" style="fill:inherit"/><path d="M29.99 101.4h.47v41.77h-.47z" class="a16-cls-24" transform="rotate(-180 30.225 122.285)"/></g><g id="a66_pins"><path d="M37.91 113.74h2.42v23.43h-2.42z" class="a16-cls-18" transform="rotate(-180 39.12 125.45)" data-color-action="fill" style="fill:inherit"/><path d="M39.3 113.74h.36v23.43h-.36z" class="a16-cls-24" transform="rotate(-180 39.485 125.45)"/><path d="M33.33 113.74h2.42v23.43h-2.42z" class="a16-cls-18" transform="rotate(-180 34.54 125.45)" data-color-action="fill" style="fill:inherit"/><path d="M34.72 113.74h.36v23.43h-.36z" class="a16-cls-24" transform="rotate(-180 34.905 125.45)"/><path d="M23.25 113.74h2.42v23.43h-2.42z" class="a16-cls-18" transform="rotate(-180 24.46 125.45)" data-color-action="fill" style="fill:inherit"/><path d="M24.64 113.74H25v23.43h-.36z" class="a16-cls-24" transform="rotate(-180 24.825 125.45)"/><path d="M18.67 113.74h2.42v23.43h-2.42z" class="a16-cls-18" transform="rotate(-180 19.88 125.45)" data-color-action="fill" style="fill:inherit"/><path d="M20.06 113.74h.36v23.43h-.36z" class="a16-cls-24" transform="rotate(-180 20.24 125.45)"/></g><path id="a66_open_contact_mesial" d="M23.31 118l-7.5 4.75-7.5-4.75" class="a16-cls-25" data-color-action="stroke" style="stroke:inherit" data-name="open contact mesial"/><path id="a66_open_contact_distal" d="M50.33 118l-7.5 4.75-7.5-4.75" class="a16-cls-25" data-color-action="stroke" style="stroke:inherit" data-name="open contact distal"/><g id="a66_mesial_drift" class="a16-cls-15" data-name="mesial drift"><path d="M26.41 137.17h11.92" class="a16-cls-26" data-color-action="stroke" style="stroke:inherit"/><path d="M27.57 141.16l-6.9-3.99 6.9-3.99v7.98z" class="a16-cls-16" data-color-action="fill" style="fill:inherit"/></g><g id="a66_lingual_abfraction" data-name="lingual abfraction"><path d="M28 3.25h3v3h-3z" class="a16-cls-14" transform="rotate(-180 29.5 4.75)"/><path d="M28 3.25h3v3h-3z" class="a16-cls-14" transform="rotate(-180 29.5 4.75)"/><path d="M28 3.25h3v3h-3z" class="a16-cls-14" transform="rotate(-180 29.5 4.75)"/></g><ellipse id="a66_internal_root_resorption" cx="33.28" cy="100.28" class="a16-cls-15 a16-cls-20" rx="8.27" ry="3.34" transform="rotate(-80.22 33.277 100.281)" data-color-action="fill" style="fill:inherit" data-name="internal root resorption"/><g id="a66_impacted_mesial" class="a16-cls-15" data-name="impacted mesial"><ellipse cx="29.5" cy="114.13" class="a16-cls-26" rx="24.15" ry="45.46" data-color-action="stroke" style="stroke:inherit"/><path d="M40.91 114.13h12.76" class="a16-cls-26" data-color-action="stroke" style="stroke:inherit"/><path d="M42.08 118.12l-6.91-3.99 6.91-3.99v7.98z" class="a16-cls-16" data-color-action="fill" style="fill:inherit"/></g><g id="a66_impacted_distal" class="a16-cls-15" data-name="impacted distal"><ellipse cx="29.51" cy="114.13" class="a16-cls-26" rx="24.15" ry="45.46" data-color-action="stroke" style="stroke:inherit"/><path d="M18.11 114.13H5.35" class="a16-cls-26" data-color-action="stroke" style="stroke:inherit"/><path d="M16.94 110.14l6.91 3.99-6.91 3.99v-7.98z" class="a16-cls-16" data-color-action="fill" style="fill:inherit"/></g><path id="a66_gortex_membranes" d="M2 109.67h55v16.42H2z" class="a16-cls-13" transform="rotate(-180 29.5 117.88)" data-color-action="fill" style="fill:inherit" data-name="gortex membranes"/><path id="a66_frenum_pull" d="M40.16 123.26l-10.66-6.75-10.66 6.75" class="a16-cls-29" data-color-action="stroke" style="stroke:inherit" data-name="frenum pull"/><path id="a66_external_root_resorption" d="M35.56 103.83c.57 5.42 3.55 7.55 5.24 8.33a48 48 0 0 1-.91-9.16 63 63 0 0 0-.53-8.06c-1.46.78-4.36 3.06-3.8 8.89zm-16.37 6.73a9.2 9.2 0 0 0 6.88-5.56 10.49 10.49 0 0 0 .15-8.09c-1 2.17-2.21 4.48-3.55 6.88-.98 1.75-2.23 4.1-3.49 6.77z" class="a16-cls-15 a16-cls-20" data-color-action="fill" style="fill:inherit" data-name="external root resorption"/><g id="a66_distal_drift" class="a16-cls-15" data-name="distal drift"><path d="M32.59 137.17H20.67" class="a16-cls-26" data-color-action="stroke" style="stroke:inherit"/><path d="M31.43 133.18l6.9 3.99-6.9 3.99v-7.98z" class="a16-cls-16" data-color-action="fill" style="fill:inherit"/></g><path id="a66_three_quarter_crown" d="M47.69 136.67a59.06 59.06 0 0 1-.91 9.23c-.78 3.6-7 4.38-8.77 4.54s-7.52-2.51-10.18-2.51-7.2 2.82-9.71 3-5.79-2.66-6.58-6.11a34.82 34.82 0 0 1-.06-8.14z" class="a16-cls-15 a16-cls-31" data-color-action="fill" style="fill:inherit" data-name="three quarter crown"/><path id="a66_crown" d="M13.59 126.64c-1.72 1.78-2.82 14.72-2 18.16s4.07 6.26 6.58 6.11 7-3 9.71-3 8.46 2.66 10.18 2.51 8-.94 8.77-4.54 1.88-16.44-.63-19.1-28.07-4.84-32.61-.14z" class="a16-cls-12" data-color-action="fill" style="fill:inherit"/><path id="a66_cracked_surface_distal" d="M43.34 131.83l3.83 3.83h-5l5 4.75h-5l3.82 3.82" class="a16-cls-32" data-color-action="stroke" style="stroke:inherit" data-name="cracked surface distal"/><path id="a66_cracked_surface_buccal" d="M28.17 131.83l3.84 3.83H27l5 4.75h-5l3.83 3.82" class="a16-cls-32" data-color-action="stroke" style="stroke:inherit" data-name="cracked surface buccal"/><path id="a66_cracked_surface_buccal_V" d="M28.17 131.83l3.84 3.83H27l5 4.75h-5l3.83 3.82" class="a16-cls-32" data-color-action="stroke" style="stroke:inherit" data-name="cracked surface buccal V"/><path id="a66_cracked_surface_mesial" d="M12.34 131.83l3.83 3.83h-5l5 4.75h-5l3.82 3.82" class="a16-cls-32" data-color-action="stroke" style="stroke:inherit" data-name="cracked surface mesial"/><g id="a66_chipped_surface_distal" class="a16-cls-15" data-name="chipped surface distal"><path d="M39.83 133.5l8.34 8.33M48.17 133.5l-8.34 8.33" class="a16-cls-33" data-color-action="stroke" style="stroke:inherit"/></g><g id="a66_chipped_surface_buccal" class="a16-cls-15" data-name="chipped surface buccal"><path d="M25.67 133.5l8.33 8.33M34 133.5l-8.33 8.33" class="a16-cls-33" data-color-action="stroke" style="stroke:inherit"/></g><g id="a66_chipped_surface_buccal_V" class="a16-cls-15" data-name="chipped surface buccal V"><path d="M25.67 133.5l8.33 8.33M34 133.5l-8.33 8.33" class="a16-cls-33" data-color-action="stroke" style="stroke:inherit"/></g><g id="a66_chipped_surface_mesial" class="a16-cls-15" data-name="chipped surface mesial"><path d="M10.67 133.5l8.33 8.33M19 133.5l-8.33 8.33" class="a16-cls-33" data-color-action="stroke" style="stroke:inherit"/></g><path id="a66_buccal_abfraction" d="M13.19 124.59s7.3 5.75 16.31 5.75 16.31-5.75 16.31-5.75-7.3-5.75-16.31-5.75-16.31 5.75-16.31 5.75z" class="a16-cls-13" data-color-action="fill" style="fill:inherit" data-name="buccal abfraction"/><g id="a66_braces"><path d="M22.96 127.97h13.45v18.19H22.96z" class="a16-cls-24" transform="rotate(-180 29.69 137.065)"/><path d="M22.96 145.48h13.45v.68H22.96z" class="a16-cls-34" transform="rotate(-180 29.69 145.82)" data-color-action="fill" style="fill:inherit"/><path d="M22.96 137.22h13.45v1.36H22.96z" class="a16-cls-34" transform="rotate(-180 29.69 137.895)" data-color-action="fill" style="fill:inherit"/><path d="M22.96 127.97h13.45v.89H22.96z" class="a16-cls-35" transform="rotate(-180 29.69 128.42)" data-color-action="fill" style="fill:inherit"/><rect width="4.11" height="7.94" x="32.59" y="127.99" class="a16-cls-27" rx=".49" ry=".49" transform="rotate(-180 34.64 131.965)" data-color-action="fill" style="fill:inherit"/><path d="M33.08 128h3.13a.49.49 0 0 1 .49.49v5.83a13.14 13.14 0 0 1-4.11 0v-5.83a.49.49 0 0 1 .49-.49z" class="a16-cls-18" data-color-action="fill" style="fill:inherit"/><path d="M32.92 129.4v-1.11a.16.16 0 0 1 .16-.16h3.13a.16.16 0 0 1 .16.16v1.11z" class="a16-cls-24"/><rect width="4.11" height="7.94" x="22.67" y="127.99" class="a16-cls-27" rx=".49" ry=".49" transform="rotate(-180 24.725 131.965)" data-color-action="fill" style="fill:inherit"/><path d="M23.16 128h3.13a.49.49 0 0 1 .49.49v5.83a13.14 13.14 0 0 1-4.11 0v-5.83a.49.49 0 0 1 .49-.49z" class="a16-cls-18" data-color-action="fill" style="fill:inherit"/><path d="M23 129.4v-1.11a.16.16 0 0 1 .16-.16h3.13a.16.16 0 0 1 .16.16v1.11z" class="a16-cls-24"/><rect width="4.11" height="7.94" x="32.59" y="138.28" class="a16-cls-27" rx=".49" ry=".49" transform="rotate(-180 34.64 142.245)" data-color-action="fill" style="fill:inherit"/><path d="M33.08 138.28h3.13a.49.49 0 0 1 .49.49v5.83a13.14 13.14 0 0 1-4.11 0v-5.83a.49.49 0 0 1 .49-.49z" class="a16-cls-18" data-color-action="fill" style="fill:inherit"/><path d="M32.92 139.68v-1.11a.16.16 0 0 1 .16-.16h3.13a.16.16 0 0 1 .16.16v1.11z" class="a16-cls-24"/><rect width="4.11" height="7.94" x="22.67" y="138.28" class="a16-cls-27" rx=".49" ry=".49" transform="rotate(-180 24.725 142.245)" data-color-action="fill" style="fill:inherit"/><path d="M23.16 138.28h3.13a.49.49 0 0 1 .49.49v5.83a13.14 13.14 0 0 1-4.11 0v-5.83a.49.49 0 0 1 .49-.49z" class="a16-cls-18" data-color-action="fill" style="fill:inherit"/><path d="M23 139.68v-1.11a.16.16 0 0 1 .16-.16h3.13a.16.16 0 0 1 .16.16v1.11z" class="a16-cls-24"/><path d="M8.58 136.38h42.21v1.45H8.58z" class="a16-cls-18" transform="rotate(-180 29.685 137.11)" data-color-action="fill" style="fill:inherit"/><path d="M8.58 137.59h42.21v.25H8.58z" class="a16-cls-27" transform="rotate(-180 29.685 137.71)" data-color-action="fill" style="fill:inherit"/><path d="M8.58 136.58h42.21v.4H8.58z" class="a16-cls-24" transform="rotate(-180 29.685 136.785)"/></g><path id="a66_apicoectomy" d="M22.16 73l7.34 11.67L36.84 73H22.16z" class="a16-cls-17" data-color-action="fill" style="fill:inherit"/><circle id="a66_abscess" cx="29.5" cy="77.5" r="6.5" class="a16-cls-37" data-color-action="fill" style="fill:inherit"/><g id="a66_blunted_roots" data-name="blunted roots"><path d="M2 22h55v84.01H2z" class="a16-cls-22" transform="rotate(-180 29.5 64.005)"/><path d="M2 106.1h55v2H2z" class="a16-cls-36" transform="rotate(-180 29.5 107.095)" data-color-action="fill" style="fill:inherit"/></g><path id="a66_root_amputation" d="M2 21.67h55v102.06H2z" class="a16-cls-22" transform="rotate(-180 29.5 72.695)" data-name="root amputation"/><path id="a66_missing_crown" d="M2 123.73h55v35.43H2z" class="a16-cls-22" transform="rotate(-180 29.5 141.45)" data-name="missing crown"/><g id="a66_missing_tooth" data-name="missing tooth"><path d="M46.15 126.8a3.14 3.14 0 0 0-1-.6c-1.9-5-5.28-13.06-5.28-23.2s-2.51-17.85-3.44-21.45-2.66-2.19-3.76 0-3.91 11.27-10 22.23c-2.7 4.85-7.47 14.2-8.81 22.63-.09.08-.19.15-.27.24-1.72 1.78-2.82 14.72-2 18.16s4.07 6.26 6.58 6.11 7-3 9.71-3 8.46 2.66 10.18 2.51 8-.94 8.77-4.54 1.83-16.43-.68-19.09z" class="a16-cls-2"/><path d="M13.59 128.52c.78-8.93 6.15-19.48 9.08-24.74 6.11-11 8.93-20 10-22.23s2.82-3.6 3.76 0S39.89 93 39.89 103c0 11.12 4.07 19.73 5.79 24.58s-32.78 8.75-32.09.94z" class="a16-cls-22"/><path d="M34.72 82.19c-.38 1 .53 5.54.43 10.87s-1.49 12.15-1.39 16.84-.43 6.93.11 10.23a34.89 34.89 0 0 1 .75 5.44c0 1.39 5.12 3.2 4.8 1s-1.17-5.33-2-9.81-.42-11.44-.42-17.3-2-18.12-2.28-17.27zM16.6 125.89c.32-3.94 2.13-8 3.94-13.22s5.76-11.3 8.21-18.23a28.3 28.3 0 0 0 1.61-7.07 136.64 136.64 0 0 1-7.69 16.4c-2.93 5.26-8.3 15.81-9.08 24.74a2.4 2.4 0 0 0 0 .55 3.54 3.54 0 0 0 3.01-3.17zM45.69 127.58c-1.69-4.85-5.8-13.46-5.8-24.58A72 72 0 0 0 37 83.63c.08 1.2.18 2.51.37 4a112.42 112.42 0 0 1 1.17 15.67 49.49 49.49 0 0 0 1.39 14c1.07 4.26 3.62 8.63 4.26 11.51.05.24.13.51.22.79 1.02-.67 1.52-1.33 1.28-2.02z" class="a16-cls-22"/><path d="M13.59 126.64c-1.72 1.78-2.82 14.72-2 18.16s4.07 6.26 6.58 6.11 7-3 9.71-3 8.46 2.66 10.18 2.51 8-.94 8.77-4.54 1.88-16.44-.63-19.1-28.07-4.84-32.61-.14z" class="a16-cls-22"/><path d="M14.24 146c-.64-3.84.21-17.89 1.58-20.71a6.08 6.08 0 0 0-2.23 1.31c-1.72 1.78-2.82 14.72-2 18.16a8.64 8.64 0 0 0 4.41 5.66 11.33 11.33 0 0 1-1.76-4.42zM46.15 126.8a5.57 5.57 0 0 0-2.22-1c1.77 3.91.9 17.59.26 21.56a4.78 4.78 0 0 1-.73 1.88c1.59-.68 3-1.71 3.32-3.28.78-3.66 1.88-16.5-.63-19.16zM27.83 147.94a18.3 18.3 0 0 1 4.65 1.06c-2-1-4.2-2.21-5.54-2.21-1.5 0-2.74 1.62-4 2.59a15.31 15.31 0 0 1 4.89-1.44zM34.61 131c-.11 4.16-.53 12.15-.75 14.07a35.64 35.64 0 0 1-.53 4.19 17.77 17.77 0 0 0 4.67 1.18h.25l.19-.87c.53-2.45.64-9.27.64-13.86 0-4 0-9-.49-11-1.42-.2-3-.37-4.55-.5a24.24 24.24 0 0 1 .57 6.79z" class="a16-cls-22"/></g><g id="a66_extracted_tooth" class="a16-msng-cls-10" data-name="extracted tooth"><path d="M9 108.83l41.67 41.66M50.67 108.83L9 150.49" class="a16-msng-cls-11" data-color-action="stroke" style="stroke:inherit"/></g><g id="a66_denture"><path d="M2.5 23.16h54v135.01h-54z" class="a16-cls-22"/><path d="M57 100.22A22.63 22.63 0 0 0 44.78 97c-7.64 0-10 3.22-15.79 3.22S19.15 97 13.2 97A24.26 24.26 0 0 0 2 100.22v57.94h55z" class="a16-cls-30" data-color-action="fill" style="fill:inherit"/><path d="M13.59 126.64c-1.72 1.78-2.82 14.72-2 18.16s4.07 6.26 6.58 6.11 7-3 9.71-3 8.46 2.66 10.18 2.51 8-.94 8.77-4.54 1.88-16.44-.63-19.1-28.07-4.84-32.61-.14z" class="a16-cls-2"/><path d="M13.59 126.64c-1.72 1.78-2.82 14.72-2 18.16s4.07 6.26 6.58 6.11 7-3 9.71-3 8.46 2.66 10.18 2.51 8-.94 8.77-4.54 1.88-16.44-.63-19.1-28.07-4.84-32.61-.14z" class="a16-cls-6"/><path d="M14.24 146c-.64-3.84.21-17.89 1.58-20.71a6.08 6.08 0 0 0-2.23 1.31c-1.72 1.78-2.82 14.72-2 18.16a8.64 8.64 0 0 0 4.41 5.66 11.33 11.33 0 0 1-1.76-4.42zM46.15 126.8a5.57 5.57 0 0 0-2.22-1c1.77 3.91.9 17.59.26 21.56a4.78 4.78 0 0 1-.73 1.88c1.59-.68 3-1.71 3.32-3.28.78-3.66 1.88-16.5-.63-19.16zM27.83 147.94a18.3 18.3 0 0 1 4.65 1.06c-2-1-4.2-2.21-5.54-2.21-1.5 0-2.74 1.62-4 2.59a15.31 15.31 0 0 1 4.89-1.44z" class="a16-cls-7"/><path d="M34.61 131c-.11 4.16-.53 12.15-.75 14.07a35.64 35.64 0 0 1-.53 4.19 17.77 17.77 0 0 0 4.67 1.18h.25l.19-.87c.53-2.45.64-9.27.64-13.86 0-4 0-9-.49-11-1.42-.2-3-.37-4.55-.5a24.24 24.24 0 0 1 .57 6.79z" class="a16-cls-8"/></g><g id="a66_maryland_bridge_pontic" class="a16-cls-15" data-name="maryland bridge pontic"><path d="M2 135.34h55v7.67H2z" class="a16-cls-20" transform="rotate(-180 29.5 139.17)" data-color-action="fill" style="fill:inherit"/><path d="M13.59 126.64c-1.72 1.78-2.82 14.72-2 18.16s4.07 6.26 6.58 6.11 7-3 9.71-3 8.46 2.66 10.18 2.51 8-.94 8.77-4.54 1.88-16.44-.63-19.1-28.07-4.84-32.61-.14z" class="a16-cls-20" data-color-action="fill" style="fill:inherit"/></g><g id="a66_maryland_bridge_abutment_mesial" data-name="maryland bridge abutment mesial"><path d="M2 135.34h34.98v7.67H2z" class="a16-cls-15 a16-cls-20" transform="rotate(-180 19.49 139.17)" data-color-action="fill" style="fill:inherit"/><path d="M46.15 126.8a3.14 3.14 0 0 0-1-.6c-1.9-5-5.28-13.06-5.28-23.2s-2.51-17.85-3.44-21.45-2.66-2.19-3.76 0-3.91 11.27-10 22.23c-2.7 4.85-7.47 14.2-8.81 22.63-.09.08-.19.15-.27.24-1.72 1.78-2.82 14.72-2 18.16s4.07 6.26 6.58 6.11 7-3 9.71-3 8.46 2.66 10.18 2.51 8-.94 8.77-4.54 1.83-16.43-.68-19.09z" class="a16-cls-2"/><path d="M13.59 128.52c.78-8.93 6.15-19.48 9.08-24.74 6.11-11 8.93-20 10-22.23s2.82-3.6 3.76 0S39.89 93 39.89 103c0 11.12 4.07 19.73 5.79 24.58s-32.78 8.75-32.09.94z" class="a16-cls-3"/><path d="M34.72 82.19c-.38 1 .53 5.54.43 10.87s-1.49 12.15-1.39 16.84-.43 6.93.11 10.23a34.89 34.89 0 0 1 .75 5.44c0 1.39 5.12 3.2 4.8 1s-1.17-5.33-2-9.81-.42-11.44-.42-17.3-2-18.12-2.28-17.27z" class="a16-cls-4"/><path d="M16.6 125.89c.32-3.94 2.13-8 3.94-13.22s5.76-11.3 8.21-18.23a28.3 28.3 0 0 0 1.61-7.07 136.64 136.64 0 0 1-7.69 16.4c-2.93 5.26-8.3 15.81-9.08 24.74a2.4 2.4 0 0 0 0 .55 3.54 3.54 0 0 0 3.01-3.17zM45.69 127.58c-1.69-4.85-5.8-13.46-5.8-24.58A72 72 0 0 0 37 83.63c.08 1.2.18 2.51.37 4a112.42 112.42 0 0 1 1.17 15.67 49.49 49.49 0 0 0 1.39 14c1.07 4.26 3.62 8.63 4.26 11.51.05.24.13.51.22.79 1.02-.67 1.52-1.33 1.28-2.02z" class="a16-cls-5"/><path d="M13.59 126.64c-1.72 1.78-2.82 14.72-2 18.16s4.07 6.26 6.58 6.11 7-3 9.71-3 8.46 2.66 10.18 2.51 8-.94 8.77-4.54 1.88-16.44-.63-19.1-28.07-4.84-32.61-.14z" class="a16-cls-6"/><path d="M14.24 146c-.64-3.84.21-17.89 1.58-20.71a6.08 6.08 0 0 0-2.23 1.31c-1.72 1.78-2.82 14.72-2 18.16a8.64 8.64 0 0 0 4.41 5.66 11.33 11.33 0 0 1-1.76-4.42zM46.15 126.8a5.57 5.57 0 0 0-2.22-1c1.77 3.91.9 17.59.26 21.56a4.78 4.78 0 0 1-.73 1.88c1.59-.68 3-1.71 3.32-3.28.78-3.66 1.88-16.5-.63-19.16zM27.83 147.94a18.3 18.3 0 0 1 4.65 1.06c-2-1-4.2-2.21-5.54-2.21-1.5 0-2.74 1.62-4 2.59a15.31 15.31 0 0 1 4.89-1.44z" class="a16-cls-7"/><path d="M34.61 131c-.11 4.16-.53 12.15-.75 14.07a35.64 35.64 0 0 1-.53 4.19 17.77 17.77 0 0 0 4.67 1.18h.25l.19-.87c.53-2.45.64-9.27.64-13.86 0-4 0-9-.49-11-1.42-.2-3-.37-4.55-.5a24.24 24.24 0 0 1 .57 6.79z" class="a16-cls-8"/></g><g id="a66_maryland_bridge_abutment_distal" data-name="maryland bridge abutment distal"><path d="M22.02 135.34H57v7.67H22.02z" class="a16-cls-15 a16-cls-20" transform="rotate(-180 39.51 139.17)" data-color-action="fill" style="fill:inherit"/><path d="M46.15 126.8a3.14 3.14 0 0 0-1-.6c-1.9-5-5.28-13.06-5.28-23.2s-2.51-17.85-3.44-21.45-2.66-2.19-3.76 0-3.91 11.27-10 22.23c-2.7 4.85-7.47 14.2-8.81 22.63-.09.08-.19.15-.27.24-1.72 1.78-2.82 14.72-2 18.16s4.07 6.26 6.58 6.11 7-3 9.71-3 8.46 2.66 10.18 2.51 8-.94 8.77-4.54 1.83-16.43-.68-19.09z" class="a16-cls-2"/><path d="M13.59 128.52c.78-8.93 6.15-19.48 9.08-24.74 6.11-11 8.93-20 10-22.23s2.82-3.6 3.76 0S39.89 93 39.89 103c0 11.12 4.07 19.73 5.79 24.58s-32.78 8.75-32.09.94z" class="a16-cls-3"/><path d="M34.72 82.19c-.38 1 .53 5.54.43 10.87s-1.49 12.15-1.39 16.84-.43 6.93.11 10.23a34.89 34.89 0 0 1 .75 5.44c0 1.39 5.12 3.2 4.8 1s-1.17-5.33-2-9.81-.42-11.44-.42-17.3-2-18.12-2.28-17.27z" class="a16-cls-4"/><path d="M16.6 125.89c.32-3.94 2.13-8 3.94-13.22s5.76-11.3 8.21-18.23a28.3 28.3 0 0 0 1.61-7.07 136.64 136.64 0 0 1-7.69 16.4c-2.93 5.26-8.3 15.81-9.08 24.74a2.4 2.4 0 0 0 0 .55 3.54 3.54 0 0 0 3.01-3.17zM45.69 127.58c-1.69-4.85-5.8-13.46-5.8-24.58A72 72 0 0 0 37 83.63c.08 1.2.18 2.51.37 4a112.42 112.42 0 0 1 1.17 15.67 49.49 49.49 0 0 0 1.39 14c1.07 4.26 3.62 8.63 4.26 11.51.05.24.13.51.22.79 1.02-.67 1.52-1.33 1.28-2.02z" class="a16-cls-5"/><path d="M13.59 126.64c-1.72 1.78-2.82 14.72-2 18.16s4.07 6.26 6.58 6.11 7-3 9.71-3 8.46 2.66 10.18 2.51 8-.94 8.77-4.54 1.88-16.44-.63-19.1-28.07-4.84-32.61-.14z" class="a16-cls-6"/><path d="M14.24 146c-.64-3.84.21-17.89 1.58-20.71a6.08 6.08 0 0 0-2.23 1.31c-1.72 1.78-2.82 14.72-2 18.16a8.64 8.64 0 0 0 4.41 5.66 11.33 11.33 0 0 1-1.76-4.42zM46.15 126.8a5.57 5.57 0 0 0-2.22-1c1.77 3.91.9 17.59.26 21.56a4.78 4.78 0 0 1-.73 1.88c1.59-.68 3-1.71 3.32-3.28.78-3.66 1.88-16.5-.63-19.16zM27.83 147.94a18.3 18.3 0 0 1 4.65 1.06c-2-1-4.2-2.21-5.54-2.21-1.5 0-2.74 1.62-4 2.59a15.31 15.31 0 0 1 4.89-1.44z" class="a16-cls-7"/><path d="M34.61 131c-.11 4.16-.53 12.15-.75 14.07a35.64 35.64 0 0 1-.53 4.19 17.77 17.77 0 0 0 4.67 1.18h.25l.19-.87c.53-2.45.64-9.27.64-13.86 0-4 0-9-.49-11-1.42-.2-3-.37-4.55-.5a24.24 24.24 0 0 1 .57 6.79z" class="a16-cls-8"/></g><g id="a66_maryland_bridge_abutment" data-name="maryland bridge abutment"><path d="M2 135.34h55v7.67H2z" class="a16-cls-15 a16-cls-20" transform="rotate(-180 29.5 139.17)" data-color-action="fill" style="fill:inherit"/><path d="M46.15 126.8a3.14 3.14 0 0 0-1-.6c-1.9-5-5.28-13.06-5.28-23.2s-2.51-17.85-3.44-21.45-2.66-2.19-3.76 0-3.91 11.27-10 22.23c-2.7 4.85-7.47 14.2-8.81 22.63-.09.08-.19.15-.27.24-1.72 1.78-2.82 14.72-2 18.16s4.07 6.26 6.58 6.11 7-3 9.71-3 8.46 2.66 10.18 2.51 8-.94 8.77-4.54 1.83-16.43-.68-19.09z" class="a16-cls-2"/><path d="M13.59 128.52c.78-8.93 6.15-19.48 9.08-24.74 6.11-11 8.93-20 10-22.23s2.82-3.6 3.76 0S39.89 93 39.89 103c0 11.12 4.07 19.73 5.79 24.58s-32.78 8.75-32.09.94z" class="a16-cls-3"/><path d="M34.72 82.19c-.38 1 .53 5.54.43 10.87s-1.49 12.15-1.39 16.84-.43 6.93.11 10.23a34.89 34.89 0 0 1 .75 5.44c0 1.39 5.12 3.2 4.8 1s-1.17-5.33-2-9.81-.42-11.44-.42-17.3-2-18.12-2.28-17.27z" class="a16-cls-4"/><path d="M16.6 125.89c.32-3.94 2.13-8 3.94-13.22s5.76-11.3 8.21-18.23a28.3 28.3 0 0 0 1.61-7.07 136.64 136.64 0 0 1-7.69 16.4c-2.93 5.26-8.3 15.81-9.08 24.74a2.4 2.4 0 0 0 0 .55 3.54 3.54 0 0 0 3.01-3.17zM45.69 127.58c-1.69-4.85-5.8-13.46-5.8-24.58A72 72 0 0 0 37 83.63c.08 1.2.18 2.51.37 4a112.42 112.42 0 0 1 1.17 15.67 49.49 49.49 0 0 0 1.39 14c1.07 4.26 3.62 8.63 4.26 11.51.05.24.13.51.22.79 1.02-.67 1.52-1.33 1.28-2.02z" class="a16-cls-5"/><path d="M13.59 126.64c-1.72 1.78-2.82 14.72-2 18.16s4.07 6.26 6.58 6.11 7-3 9.71-3 8.46 2.66 10.18 2.51 8-.94 8.77-4.54 1.88-16.44-.63-19.1-28.07-4.84-32.61-.14z" class="a16-cls-6"/><path d="M14.24 146c-.64-3.84.21-17.89 1.58-20.71a6.08 6.08 0 0 0-2.23 1.31c-1.72 1.78-2.82 14.72-2 18.16a8.64 8.64 0 0 0 4.41 5.66 11.33 11.33 0 0 1-1.76-4.42zM46.15 126.8a5.57 5.57 0 0 0-2.22-1c1.77 3.91.9 17.59.26 21.56a4.78 4.78 0 0 1-.73 1.88c1.59-.68 3-1.71 3.32-3.28.78-3.66 1.88-16.5-.63-19.16zM27.83 147.94a18.3 18.3 0 0 1 4.65 1.06c-2-1-4.2-2.21-5.54-2.21-1.5 0-2.74 1.62-4 2.59a15.31 15.31 0 0 1 4.89-1.44z" class="a16-cls-7"/><path d="M34.61 131c-.11 4.16-.53 12.15-.75 14.07a35.64 35.64 0 0 1-.53 4.19 17.77 17.77 0 0 0 4.67 1.18h.25l.19-.87c.53-2.45.64-9.27.64-13.86 0-4 0-9-.49-11-1.42-.2-3-.37-4.55-.5a24.24 24.24 0 0 1 .57 6.79z" class="a16-cls-8"/></g><g id="a66_bridge_abutment_mesial" class="a16-cls-15" data-name="bridge abutment mesial"><path d="M2 135.34h34.98v7.67H2z" class="a16-cls-18" transform="rotate(-180 19.49 139.17)" data-color-action="fill" style="fill:inherit"/><path d="M13.59 126.64c-1.72 1.78-2.82 14.72-2 18.16s4.07 6.26 6.58 6.11 7-3 9.71-3 8.46 2.66 10.18 2.51 8-.94 8.77-4.54 1.88-16.44-.63-19.1-28.07-4.84-32.61-.14z" class="a16-cls-18" data-color-action="fill" style="fill:inherit"/></g><g id="a66_bridge_abutment_distal" class="a16-cls-15" data-name="bridge abutment distal"><path d="M22.02 135.34H57v7.67H22.02z" class="a16-cls-18" transform="rotate(-180 39.51 139.17)" data-color-action="fill" style="fill:inherit"/><path d="M13.59 126.64c-1.72 1.78-2.82 14.72-2 18.16s4.07 6.26 6.58 6.11 7-3 9.71-3 8.46 2.66 10.18 2.51 8-.94 8.77-4.54 1.88-16.44-.63-19.1-28.07-4.84-32.61-.14z" class="a16-cls-18" data-color-action="fill" style="fill:inherit"/></g><g id="a66_bridge_abutment" class="a16-cls-15" data-name="bridge abutment"><path d="M2 135.34h55v7.67H2z" class="a16-cls-18" transform="rotate(-180 29.5 139.17)" data-color-action="fill" style="fill:inherit"/><path d="M13.59 126.64c-1.72 1.78-2.82 14.72-2 18.16s4.07 6.26 6.58 6.11 7-3 9.71-3 8.46 2.66 10.18 2.51 8-.94 8.77-4.54 1.88-16.44-.63-19.1-28.07-4.84-32.61-.14z" class="a16-cls-18" data-color-action="fill" style="fill:inherit"/></g><g id="a66_bridge_pontic" data-name="bridge pontic"><path d="M46.15 126.8a3.14 3.14 0 0 0-1-.6c-1.9-5-5.28-13.06-5.28-23.2s-2.51-17.85-3.44-21.45-2.66-2.19-3.76 0-3.91 11.27-10 22.23c-2.7 4.85-7.47 14.2-8.81 22.63-.09.08-.19.15-.27.24-1.72 1.78-2.82 14.72-2 18.16s4.07 6.26 6.58 6.11 7-3 9.71-3 8.46 2.66 10.18 2.51 8-.94 8.77-4.54 1.83-16.43-.68-19.09z" class="a16-cls-2"/><path d="M13.59 128.52c.78-8.93 6.15-19.48 9.08-24.74 6.11-11 8.93-20 10-22.23s2.82-3.6 3.76 0S39.89 93 39.89 103c0 11.12 4.07 19.73 5.79 24.58s-32.78 8.75-32.09.94z" class="a16-cls-22"/><path d="M34.72 82.19c-.38 1 .53 5.54.43 10.87s-1.49 12.15-1.39 16.84-.43 6.93.11 10.23a34.89 34.89 0 0 1 .75 5.44c0 1.39 5.12 3.2 4.8 1s-1.17-5.33-2-9.81-.42-11.44-.42-17.3-2-18.12-2.28-17.27zM16.6 125.89c.32-3.94 2.13-8 3.94-13.22s5.76-11.3 8.21-18.23a28.3 28.3 0 0 0 1.61-7.07 136.64 136.64 0 0 1-7.69 16.4c-2.93 5.26-8.3 15.81-9.08 24.74a2.4 2.4 0 0 0 0 .55 3.54 3.54 0 0 0 3.01-3.17zM45.69 127.58c-1.69-4.85-5.8-13.46-5.8-24.58A72 72 0 0 0 37 83.63c.08 1.2.18 2.51.37 4a112.42 112.42 0 0 1 1.17 15.67 49.49 49.49 0 0 0 1.39 14c1.07 4.26 3.62 8.63 4.26 11.51.05.24.13.51.22.79 1.02-.67 1.52-1.33 1.28-2.02z" class="a16-cls-22"/><path d="M13.59 126.64c-1.72 1.78-2.82 14.72-2 18.16s4.07 6.26 6.58 6.11 7-3 9.71-3 8.46 2.66 10.18 2.51 8-.94 8.77-4.54 1.88-16.44-.63-19.1-28.07-4.84-32.61-.14z" class="a16-cls-6"/><path d="M14.24 146c-.64-3.84.21-17.89 1.58-20.71a6.08 6.08 0 0 0-2.23 1.31c-1.72 1.78-2.82 14.72-2 18.16a8.64 8.64 0 0 0 4.41 5.66 11.33 11.33 0 0 1-1.76-4.42zM46.15 126.8a5.57 5.57 0 0 0-2.22-1c1.77 3.91.9 17.59.26 21.56a4.78 4.78 0 0 1-.73 1.88c1.59-.68 3-1.71 3.32-3.28.78-3.66 1.88-16.5-.63-19.16zM27.83 147.94a18.3 18.3 0 0 1 4.65 1.06c-2-1-4.2-2.21-5.54-2.21-1.5 0-2.74 1.62-4 2.59a15.31 15.31 0 0 1 4.89-1.44z" class="a16-cls-7"/><path d="M34.61 131c-.11 4.16-.53 12.15-.75 14.07a35.64 35.64 0 0 1-.53 4.19 17.77 17.77 0 0 0 4.67 1.18h.25l.19-.87c.53-2.45.64-9.27.64-13.86 0-4 0-9-.49-11-1.42-.2-3-.37-4.55-.5a24.24 24.24 0 0 1 .57 6.79z" class="a16-cls-8"/><g class="a16-cls-15"><path d="M2 135.34h55v7.67H2z" class="a16-cls-18" transform="rotate(-180 29.5 139.17)" data-color-action="fill" style="fill:inherit"/><path d="M13.59 126.64c-1.72 1.78-2.82 14.72-2 18.16s4.07 6.26 6.58 6.11 7-3 9.71-3 8.46 2.66 10.18 2.51 8-.94 8.77-4.54 1.88-16.44-.63-19.1-28.07-4.84-32.61-.14z" class="a16-cls-18" data-color-action="fill" style="fill:inherit"/></g></g><g id="a66_implant_mini" data-name="implant mini"><path d="M1.61 22.04h55v137.17h-55z" class="a16-cls-22" transform="rotate(-180 29.115 90.625)"/><path d="M29.28 83.07h.44l1 8.49v40.84h-2.44V91.56l1-8.49z" class="a16-cls-18" data-color-action="fill" style="fill:inherit"/><path d="M29.58 83.07h.07l.4 8.49v40.84h-.37V91.56l-.1-8.49z" class="a16-cls-24"/><path d="M28.28 131.77h2.44v.63h-2.44z" class="a16-cls-27" transform="rotate(-180 29.5 132.085)" data-color-action="fill" style="fill:inherit"/><g class="a16-cls-28"><path d="M30.72 131.77l-2.44-1v.63l2.44 1v-.63zM30.72 130.32l-2.44-1v.63l2.44 1v-.63zM30.72 128.88l-2.44-1v.63l2.44 1v-.63zM30.72 127.43l-2.44-1v.63l2.44 1v-.63zM30.72 125.98l-2.44-1v.64l2.44 1v-.64zM30.72 124.54l-2.44-1v.63l2.44 1v-.63zM30.72 123.09l-2.44-1v.64l2.44 1v-.64zM30.72 121.65l-2.44-1v.63l2.44 1v-.63zM30.72 120.2l-2.44-1v.63l2.44 1.01v-.64zM30.72 118.76l-2.44-1v.63l2.44 1v-.63zM30.72 117.31l-2.44-1v.63l2.44 1v-.63zM30.72 115.87l-2.44-1v.63l2.44 1v-.63zM30.72 114.42l-2.44-1v.63l2.44 1v-.63zM30.72 112.98l-2.44-1v.63l2.44 1v-.63zM30.72 111.53l-2.44-1v.63l2.44 1v-.63zM30.72 110.08l-2.44-1v.64l2.44 1v-.64zM30.72 108.64l-2.44-1v.63l2.44 1v-.63zM30.72 107.19l-2.44-1v.64l2.44 1v-.64zM30.72 105.75l-2.44-1v.63l2.44 1v-.63zM30.72 104.3l-2.44-1v.64l2.44 1v-.64zM30.72 102.86l-2.44-1v.63l2.44 1v-.63zM30.72 101.41l-2.44-1v.63l2.44 1.01v-.64zM30.72 99.97l-2.44-1v.63l2.44 1v-.63zM30.72 98.52l-2.44-1v.63l2.44 1v-.63zM30.72 97.08l-2.44-1v.63l2.44 1v-.63zM30.72 95.63l-2.44-1v.63l2.44 1v-.63zM30.72 94.19l-2.44-1v.63l2.44 1v-.63zM30.72 92.74l-2.44-1v.63l2.44 1v-.63zM30.72 91.56l-.03-.28-2.27-.93-.07.61 2.37.97v-.37zM30.51 89.76l-1.93-.79-.07.61 2.08.85-.08-.67zM30.33 88.24l-1.58-.65-.08.61 1.74.71-.08-.67zM30.15 86.72l-1.24-.5-.07.6 1.39.57-.08-.67zM29.97 85.21l-.9-.37-.07.6 1.05.43-.08-.66zM29.8 83.69l-.57-.23-.07.6.71.29-.07-.66z" class="a16-cls-27" data-color-action="fill" style="fill:inherit"/></g><circle cx="29.5" cy="136.27" r="2.24" class="a16-cls-18" data-color-action="fill" style="fill:inherit"/><path d="M27.67 132.06h3.67v3h-3.67z" class="a16-cls-18" transform="rotate(-180 29.5 133.555)" data-color-action="fill" style="fill:inherit"/><path d="M29.96 132.06h.55v3h-.55z" class="a16-cls-24"/><path d="M30.3 137.63h.21a2.32 2.32 0 0 0 .52-1.29 2.37 2.37 0 0 0-.52-1.3H30a2 2 0 0 1 .73 1.37 1.5 1.5 0 0 1-.43 1.22z" class="a16-cls-24"/><path d="M28.28 125.7h2.44v.63h-2.44z" class="a16-cls-27" transform="rotate(-180 29.5 126.015)" data-color-action="fill" style="fill:inherit"/><path d="M26.89 132.08h5.22l-.87-5.71h-3.48l-.87 5.71z" class="a16-cls-18" data-color-action="fill" style="fill:inherit"/><path d="M30.15 132.08h.79l-.48-5.71h-.53l.22 5.71z" class="a16-cls-24"/></g><g id="a66_implant_cylinder" data-name="implant cylinder"><path d="M2 22h55v137.17H2z" class="a16-cls-22" transform="rotate(-180 29.5 90.585)"/><path d="M26.17 86.01h6.67v49.33h-6.67z" class="a16-cls-18" transform="rotate(-180 29.5 110.68)" data-color-action="fill" style="fill:inherit"/><path d="M24.5 135.35h10v3h-10z" class="a16-cls-18" transform="rotate(-180 29.5 136.845)" data-color-action="fill" style="fill:inherit"/><path d="M30 86.01h1v49.33h-1z" class="a16-cls-24" transform="rotate(-180 30.5 110.68)"/><path d="M30.75 135.35h1.5v3h-1.5z" class="a16-cls-24" transform="rotate(-180 31.5 136.845)"/><path d="M24.5 82.99h10v3h-10z" class="a16-cls-18" transform="rotate(-180 29.5 84.485)" data-color-action="fill" style="fill:inherit"/><path d="M30.75 82.99h1.5v3h-1.5z" class="a16-cls-24" transform="rotate(-180 31.5 84.485)"/><path d="M26.17 134.71h6.67v.63h-6.67z" class="a16-cls-27" transform="rotate(-180 29.5 135.03)" data-color-action="fill" style="fill:inherit"/><path d="M26.17 86.01h6.67v.63h-6.67z" class="a16-cls-27" transform="rotate(-180 29.5 86.33)" data-color-action="fill" style="fill:inherit"/><g class="a16-cls-28"><path d="M26.17 87.65l6.66-1.01v-.63l-6.66 1v.64zM26.17 89.09l6.66-1v-.63l-6.66 1v.63zM26.17 90.54l6.66-1v-.64l-6.66 1.01v.63zM26.17 91.98l6.66-1v-.63l-6.66 1v.63zM26.17 93.43l6.66-1v-.63l-6.66 1v.63zM26.17 94.87l6.66-1v-.63l-6.66 1v.63zM26.17 96.32l6.66-1v-.63l-6.66 1v.63zM26.17 97.76l6.66-1v-.63l-6.66 1v.63zM26.17 99.21l6.66-1v-.63l-6.66 1v.63zM26.17 100.66l6.66-1.01v-.63l-6.66 1v.64zM26.17 102.1l6.66-1v-.63l-6.66 1v.63zM26.17 103.55l6.66-1v-.64l-6.66 1v.64zM26.17 104.99l6.66-1v-.63l-6.66 1v.63zM26.17 106.44l6.66-1v-.64l-6.66 1.01v.63zM26.17 107.88l6.66-1v-.63l-6.66 1v.63zM26.17 109.33l6.66-1v-.64l-6.66 1v.64zM26.17 110.77l6.66-1v-.63l-6.66 1v.63zM26.17 112.22l6.66-1v-.63l-6.66 1v.63zM26.17 113.66l6.66-1v-.63l-6.66 1v.63zM26.17 115.11l6.66-1v-.63l-6.66 1v.63zM26.17 116.56l6.66-1.01v-.63l-6.66 1v.64zM26.17 118l6.66-1v-.63l-6.66 1v.63zM26.17 119.45l6.66-1.01v-.63l-6.66 1v.64zM26.17 120.89l6.66-1v-.63l-6.66 1v.63zM26.17 122.34l6.66-1v-.64l-6.66 1v.64zM26.17 123.78l6.66-1v-.63l-6.66 1v.63zM26.17 125.23l6.66-1v-.64l-6.66 1v.64zM26.17 126.67l6.66-1v-.63l-6.66 1v.63zM26.17 128.12l6.66-1v-.63l-6.66 1v.63zM26.17 129.56l6.66-1v-.63l-6.66 1v.63zM26.17 131.01l6.66-1v-.63l-6.66 1v.63zM26.17 132.46l6.66-1.01v-.63l-6.66 1v.64zM26.17 133.9l6.66-1v-.63l-6.66 1v.63zM26.17 135.35l6.66-1.01v-.63l-6.66 1v.64z" class="a16-cls-27" data-color-action="fill" style="fill:inherit"/></g></g><g id="a66_implant_blade" data-name="implant blade"><path d="M2 22h55v137.17H2z" class="a16-cls-22" transform="rotate(-180 29.5 90.585)"/><path d="M26.17 86.01h6.67v49.33h-6.67z" class="a16-cls-18" transform="rotate(-180 29.5 110.68)" data-color-action="fill" style="fill:inherit"/><path d="M24.5 135.35h10v3h-10z" class="a16-cls-18" transform="rotate(-180 29.5 136.845)" data-color-action="fill" style="fill:inherit"/><path d="M30 86.01h1v49.33h-1z" class="a16-cls-24" transform="rotate(-180 30.5 110.68)"/><path d="M30.75 135.35h1.5v3h-1.5z" class="a16-cls-24" transform="rotate(-180 31.5 136.845)"/><path d="M26.17 134.71h6.67v.63h-6.67z" class="a16-cls-27" transform="rotate(-180 29.5 135.03)" data-color-action="fill" style="fill:inherit"/></g><path id="a66_watch_tooth" d="M8.27 27.73a3.26 3.26 0 0 1 3.22-3.26 3.24 3.24 0 1 1 0 6.47 3.25 3.25 0 0 1-3.22-3.21zm1-5.91L8.39 3.73h6.15l-.8 18.09z" class="a16-cls-11" data-color-action="fill" style="fill:inherit" data-name="watch tooth"/><path id="a66_border" d="M0 0h59v161H0z" class="a16-cls-14" transform="rotate(-180 29.5 80.5)"/></defs></g><g class="b16-cls-1" transform="translate(0 161)"><g id="_16B" data-name="#16B"><path d="M12.33 18c-1.18 1.71-1.53 7.87-1.17 9a8.31 8.31 0 0 1 .47 3.76c-.23 1.17-1.06 5-.35 7.28a7.12 7.12 0 0 0 6.11 5.17c3.52.35 11.39.7 13 .59s10.33-1.17 12.8-1.06 4.46-3.52 4.7-6.46 0-6.58 0-8.57S47.32 20 46.73 19a26.8 26.8 0 0 0-6.93-5.4c-2-.82-15.15-1.94-17.61-1.17-3.76 1.19-8.57 3.65-9.86 5.57z" class="b16-cls-2"/><path d="M12.33 18c-1.18 1.71-1.53 7.87-1.17 9a8.31 8.31 0 0 1 .47 3.76c-.23 1.17-1.06 5-.35 7.28a7.12 7.12 0 0 0 6.11 5.17c3.52.35 11.39.7 13 .59s10.33-1.17 12.8-1.06 4.46-3.52 4.7-6.46 0-6.58 0-8.57S47.32 20 46.73 19a26.8 26.8 0 0 0-6.93-5.4c-2-.82-15.15-1.94-17.61-1.17-3.76 1.19-8.57 3.65-9.86 5.57z" class="b16-cls-3"/><path d="M30.06 28.41c-1.49.69-10 .23-9.39.82s8.69.35 9.39.94 0 6.93 1.06 6.93.82-6 1.29-6.46 7.4-.12 7.63-.59-5.4-.94-6.22-1.41-1.06-3.76-1.41-5.28-1.06-4.23-1.76-3.88.82 3.88.82 5 .11 3.23-1.41 3.93z" class="b16-cls-4"/><path d="M46.85 28.06c-.82.59-.47 2 0 2.82s-.12 2.58-.23 3.64a9.32 9.32 0 0 1-2.11 4.7c-1.17 1.06-3.64 1.29-5.75 1.76s-6.69.23-7.16-.23-1.76-.23-2.58.12-8.34.12-10.92-.35-5-1.88-5.64-2.94-.12-5 .23-6.46.7-2.11-.23-3.05A12.26 12.26 0 0 1 11 26.13a4.29 4.29 0 0 0 .11.88 8.31 8.31 0 0 1 .47 3.76c-.23 1.17-1.06 5-.35 7.28a7.12 7.12 0 0 0 6.11 5.17c3.52.35 11.39.7 13 .59s10.33-1.17 12.8-1.06 4.46-3.52 4.7-6.46 0-6.58 0-8.57v-.62a8.29 8.29 0 0 1-.99.96z" class="b16-cls-4"/><path d="M39.8 13.62c-2-.82-15.15-1.94-17.61-1.17a33.93 33.93 0 0 0-6.55 2.89c-1.52.89 1.64-.87 3.58-.87a47.79 47.79 0 0 1 8.72.74c1.06.35 2.35.7 3.05.12s5.87-1.41 8.45-1.17c1.71.16 4.23 2 2.82 1a13.92 13.92 0 0 0-2.46-1.54z" class="b16-cls-5"/></g><defs><g id="b66_splinted_crowns" data-name="splinted crowns"><path d="M28 1.25h3v3h-3z" class="b16-cls-7" transform="rotate(-180 29.5 2.75)"/><path d="M28 1.25h3v3h-3z" class="b16-cls-7" transform="rotate(-180 29.5 2.75)"/><path d="M28 1.25h3v3h-3z" class="b16-cls-7" transform="rotate(-180 29.5 2.75)"/></g><path id="b66_cusp_4" d="M29.26 34.94l-4 8.76c-2.78-.12-6-.31-7.88-.5a6.8 6.8 0 0 1-5.21-3.2l14.32-6.11a5.8 5.8 0 0 0 2.77 1.05z" class="b16-cls-6" data-color-action="fill" style="fill:inherit" data-name="cusp 4"/><path id="b66_groove_2" d="M30 35a5.86 5.86 0 0 0 1.77-.27l3.91 8.55c-2.36.24-4.49.48-5.22.53s-2.81 0-5.15-.09l4-8.76A5.91 5.91 0 0 0 30 35z" class="b16-cls-6" data-color-action="fill" style="fill:inherit" data-name="groove 2"/><path id="b66_cusp_3" d="M34 33.38l13.51 5c-.75 2.33-2.37 4.47-4.27 4.38a74.43 74.43 0 0 0-7.58.53l-3.91-8.55A5.79 5.79 0 0 0 34 33.38z" class="b16-cls-6" data-color-action="fill" style="fill:inherit" data-name="cusp 3"/><path id="b66_mesial" d="M11.18 37.69c-.53-2.27.22-5.81.44-6.93a8.31 8.31 0 0 0-.47-3.76 16.2 16.2 0 0 1 0-4.27 15.22 15.22 0 0 1 2.25 6.89 15.81 15.81 0 0 1-2.22 8.07z" class="b16-cls-6" data-color-action="fill" style="fill:inherit"/><path id="b66_mesial_pit" d="M26.11 25.09a5.59 5.59 0 0 0 .39 8.76L12.17 40a8.31 8.31 0 0 1-.9-1.92c0-.11-.06-.23-.09-.35a15.81 15.81 0 0 0 2.24-8.06 15.22 15.22 0 0 0-2.25-6.89 19.77 19.77 0 0 1 .62-3.5z" class="b16-cls-6" data-color-action="fill" style="fill:inherit" data-name="mesial pit"/><ellipse id="b66_central_pit" cx="29.95" cy="29.31" class="b16-cls-6" rx="5.78" ry="5.67" data-color-action="fill" style="fill:inherit" data-name="central pit"/><path id="b66_distal_pit" d="M35.73 29.31a5.62 5.62 0 0 0-2.15-4.42l13.25-5.68a9.8 9.8 0 0 1 .42 1.79 14.93 14.93 0 0 0-2.05 7.45 13.63 13.63 0 0 0 2.68 8 9.38 9.38 0 0 1-.4 1.87L34 33.38a5.6 5.6 0 0 0 1.73-4.07z" class="b16-cls-6" data-color-action="fill" style="fill:inherit" data-name="distal pit"/><path id="b66_distal" d="M47.25 21a51.2 51.2 0 0 1 .65 6.72c0 2 .23 5.64 0 8.57v.2a13.63 13.63 0 0 1-2.68-8A14.93 14.93 0 0 1 47.25 21z" class="b16-cls-6" data-color-action="fill" style="fill:inherit"/><path id="b66_cusp_2" d="M26.11 25.09l-14.33-5.86a4.71 4.71 0 0 1 .55-1.23c1.29-1.88 6.11-4.34 9.86-5.52a7 7 0 0 1 1.48-.21l4.92 11.53a5.79 5.79 0 0 0-2.48 1.29z" class="b16-cls-6" data-color-action="fill" style="fill:inherit" data-name="cusp 2"/><path id="b66_groove_1" d="M30 23.64a5.87 5.87 0 0 0-1.36.16l-4.98-11.57a83.92 83.92 0 0 1 12.83.77l-5.36 10.76a5.9 5.9 0 0 0-1.13-.12z" class="b16-cls-6" data-color-action="fill" style="fill:inherit" data-name="groove 1"/><path id="b66_cusp_1" d="M31.13 23.76L36.49 13a17.69 17.69 0 0 1 3.32.65A26.79 26.79 0 0 1 46.73 19a1.39 1.39 0 0 1 .1.2l-13.26 5.7a5.8 5.8 0 0 0-2.44-1.14z" class="b16-cls-6" data-color-action="fill" style="fill:inherit" data-name="cusp 1"/><g id="b66_veneer"><path d="M28 1.25h3v3h-3z" class="b16-cls-7" transform="rotate(-180 29.5 2.75)"/><path d="M28 1.25h3v3h-3z" class="b16-cls-7" transform="rotate(-180 29.5 2.75)"/><path d="M28 1.25h3v3h-3z" class="b16-cls-7" transform="rotate(-180 29.5 2.75)"/></g><g id="b66_tissue_graft" data-name="tissue graft"><path d="M28 1.25h3v3h-3z" class="b16-cls-7" transform="rotate(-180 29.5 2.75)"/><path d="M28 1.25h3v3h-3z" class="b16-cls-7" transform="rotate(-180 29.5 2.75)"/><path d="M28 1.25h3v3h-3z" class="b16-cls-7" transform="rotate(-180 29.5 2.75)"/></g><path id="b66_surface_restoration_lingual" d="M17.77 39.23c3 .3 9.21.59 11.67.59h.68c.43 0 1.37-.13 2.56-.26 3-.32 5.87-.61 8-.74l3.36 3.82a2.51 2.51 0 0 1-.86.11c-2.47-.12-11.16.94-12.8 1.06s-9.51-.23-13-.59A6.7 6.7 0 0 1 13 41l2.59-3.15a2.89 2.89 0 0 0 2.18 1.38z" class="b16-cls-8" data-color-action="fill" style="fill:inherit" data-name="surface restoration lingual"/><path id="b66_surface_restoration_mesial" d="M11.62 30.76a8.31 8.31 0 0 0-.47-3.76c-.35-1.17 0-7.33 1.17-9a4.22 4.22 0 0 1 .4-.48l3 2.61-.08.08A20.64 20.64 0 0 0 15 26a11.51 11.51 0 0 1 .5 5.5v.14c-.74 3.7-.52 4.88-.43 5.15a4.31 4.31 0 0 0 .46 1L13 41a8.07 8.07 0 0 1-1.73-3c-.71-2.19.12-6.07.35-7.24z" class="b16-cls-8" data-color-action="fill" style="fill:inherit" data-name="surface restoration mesial"/><path id="b66_surface_restoration_occlusal" d="M15.54 31.54A11.51 11.51 0 0 0 15 26a20.64 20.64 0 0 1 .63-5.87c.83-.88 4.24-2.82 7.63-3.89a14.43 14.43 0 0 1 2.12-.1A78.22 78.22 0 0 1 38.3 17.3a27.91 27.91 0 0 1 4.9 3.7 46.51 46.51 0 0 1 .71 6.66v2.25a60 60 0 0 1 0 6 5.49 5.49 0 0 1-1.06 2.77h-.08c-2.11 0-6 .39-10.09.82a92.4 92.4 0 0 1-2.56.26h-.68c-2.46 0-8.68-.29-11.67-.59a3.17 3.17 0 0 1-2.69-2.39c-.09-.27-.31-1.45.43-5.15z" class="b16-cls-8" data-color-action="fill" style="fill:inherit" data-name="surface restoration occlusal"/><path id="b66_surface_restoration_distal" d="M42.77 38.73h.08A5.49 5.49 0 0 0 43.92 36a60 60 0 0 0 0-6v-2.25A46.51 46.51 0 0 0 43.2 21c-.46-.46-1.25-1.13-2.08-1.79l2.58-3.06a18.81 18.81 0 0 1 3 2.83c.59.94 1.17 6.69 1.17 8.69s.23 5.64 0 8.57c-.21 2.59-1.78 5.71-3.84 6.34l-3.36-3.82c.83 0 1.53-.03 2.1-.03z" class="b16-cls-8" data-color-action="fill" style="fill:inherit" data-name="surface restoration distal"/><path id="b66_surface_restoration_buccal" d="M38.34 17.34a78.22 78.22 0 0 0-12.92-1.16 14.43 14.43 0 0 0-2.12.1 24.48 24.48 0 0 0-7.55 3.81l-3-2.61c1.69-1.8 6-4 9.47-5 2.46-.77 15.62.35 17.61 1.17a20 20 0 0 1 3.89 2.58l-2.58 3.06a18.09 18.09 0 0 0-2.8-1.95z" class="b16-cls-8" data-color-action="fill" style="fill:inherit" data-name="surface restoration buccal"/><g id="b66_supra-erupted"><path d="M28 1.25h3v3h-3z" class="b16-cls-7" transform="rotate(-180 29.5 2.75)"/><path d="M28 1.25h3v3h-3z" class="b16-cls-7" transform="rotate(-180 29.5 2.75)"/><path d="M28 1.25h3v3h-3z" class="b16-cls-7" transform="rotate(-180 29.5 2.75)"/></g><g id="b66_sub-erupted"><path d="M28 1.25h3v3h-3z" class="b16-cls-7" transform="rotate(-180 29.5 2.75)"/><path d="M28 1.25h3v3h-3z" class="b16-cls-7" transform="rotate(-180 29.5 2.75)"/><path d="M28 1.25h3v3h-3z" class="b16-cls-7" transform="rotate(-180 29.5 2.75)"/></g><text id="b66_sealant" class="b16-cls-9" transform="translate(19.7 39.47)" data-color-action="fill" style="fill:inherit">S</text><g id="b66_root_decay" data-name="root decay"><path d="M28 1.25h3v3h-3z" class="b16-cls-7" transform="rotate(-180 29.5 2.75)"/><path d="M28 1.25h3v3h-3z" class="b16-cls-7" transform="rotate(-180 29.5 2.75)"/><path d="M28 1.25h3v3h-3z" class="b16-cls-7" transform="rotate(-180 29.5 2.75)"/></g><g id="b66_root_canal" data-name="root canal"><path d="M28 1.25h3v3h-3z" class="b16-cls-7" transform="rotate(-180 29.5 2.75)"/><path d="M28 1.25h3v3h-3z" class="b16-cls-7" transform="rotate(-180 29.5 2.75)"/><path d="M28 1.25h3v3h-3z" class="b16-cls-7" transform="rotate(-180 29.5 2.75)"/></g><g id="b66_root_abrasion" data-name="root abrasion"><path d="M28 1.25h3v3h-3z" class="b16-cls-7" transform="rotate(-180 29.5 2.75)"/><path d="M28 1.25h3v3h-3z" class="b16-cls-7" transform="rotate(-180 29.5 2.75)"/><path d="M28 1.25h3v3h-3z" class="b16-cls-7" transform="rotate(-180 29.5 2.75)"/></g><g id="b66_post"><path d="M28 1.25h3v3h-3z" class="b16-cls-7" transform="rotate(-180 29.5 2.75)"/><path d="M28 1.25h3v3h-3z" class="b16-cls-7" transform="rotate(-180 29.5 2.75)"/><path d="M28 1.25h3v3h-3z" class="b16-cls-7" transform="rotate(-180 29.5 2.75)"/></g><g id="b66_pins"><path d="M28 1.25h3v3h-3z" class="b16-cls-7" transform="rotate(-180 29.5 2.75)"/><path d="M28 1.25h3v3h-3z" class="b16-cls-7" transform="rotate(-180 29.5 2.75)"/><path d="M28 1.25h3v3h-3z" class="b16-cls-7" transform="rotate(-180 29.5 2.75)"/></g><g id="b66_open_contact_mesial" data-name="open contact mesial"><path d="M28 1.25h3v3h-3z" class="b16-cls-7" transform="rotate(-180 29.5 2.75)"/><path d="M28 1.25h3v3h-3z" class="b16-cls-7" transform="rotate(-180 29.5 2.75)"/><path d="M28 1.25h3v3h-3z" class="b16-cls-7" transform="rotate(-180 29.5 2.75)"/></g><g id="b66_open_contact_distal" data-name="open contact distal"><path d="M28 1.25h3v3h-3z" class="b16-cls-7" transform="rotate(-180 29.5 2.75)"/><path d="M28 1.25h3v3h-3z" class="b16-cls-7" transform="rotate(-180 29.5 2.75)"/><path d="M28 1.25h3v3h-3z" class="b16-cls-7" transform="rotate(-180 29.5 2.75)"/></g><g id="b66_lingual_abfraction" data-name="lingual abfraction"><path d="M28 1.25h3v3h-3z" class="b16-cls-7" transform="rotate(-180 29.5 2.75)"/><path d="M28 1.25h3v3h-3z" class="b16-cls-7" transform="rotate(-180 29.5 2.75)"/><path d="M28 1.25h3v3h-3z" class="b16-cls-7" transform="rotate(-180 29.5 2.75)"/></g><g id="b66_internal_root_resorption" data-name="internal root resorption"><path d="M28 1.25h3v3h-3z" class="b16-cls-7" transform="rotate(-180 29.5 2.75)"/><path d="M28 1.25h3v3h-3z" class="b16-cls-7" transform="rotate(-180 29.5 2.75)"/><path d="M28 1.25h3v3h-3z" class="b16-cls-7" transform="rotate(-180 29.5 2.75)"/></g><g id="b66_gortex_membranes" data-name="gortex membranes"><path d="M28 1.25h3v3h-3z" class="b16-cls-7" transform="rotate(-180 29.5 2.75)"/><path d="M28 1.25h3v3h-3z" class="b16-cls-7" transform="rotate(-180 29.5 2.75)"/><path d="M28 1.25h3v3h-3z" class="b16-cls-7" transform="rotate(-180 29.5 2.75)"/></g><g id="b66_frenum_pull" data-name="frenum pull"><path d="M28 1.25h3v3h-3z" class="b16-cls-7" transform="rotate(-180 29.5 2.75)"/><path d="M28 1.25h3v3h-3z" class="b16-cls-7" transform="rotate(-180 29.5 2.75)"/><path d="M28 1.25h3v3h-3z" class="b16-cls-7" transform="rotate(-180 29.5 2.75)"/></g><g id="b66_external_root_resorption" data-name="external root resorption"><path d="M28 1.25h3v3h-3z" class="b16-cls-7" transform="rotate(-180 29.5 2.75)"/><path d="M28 1.25h3v3h-3z" class="b16-cls-7" transform="rotate(-180 29.5 2.75)"/><path d="M28 1.25h3v3h-3z" class="b16-cls-7" transform="rotate(-180 29.5 2.75)"/></g><path id="b66_three_quarter_crown" d="M12.33 18c-1.18 1.71-1.53 7.87-1.17 9a8.31 8.31 0 0 1 .47 3.76c-.23 1.17-1.06 5-.35 7.28a7.12 7.12 0 0 0 6.11 5.17c3.52.35 11.39.7 13 .59s10.33-1.17 12.8-1.06 4.46-3.52 4.7-6.46 0-6.58 0-8.57S47.32 20 46.73 19a26.8 26.8 0 0 0-6.93-5.4c-2-.82-15.15-1.94-17.61-1.17-3.76 1.19-8.57 3.65-9.86 5.57z" class="b16-cls-11 b16-cls-15" data-color-action="fill" style="fill:inherit" data-name="three quarter crown"/><path id="b66_crown" d="M12.33 18c-1.18 1.71-1.53 7.87-1.17 9a8.31 8.31 0 0 1 .47 3.76c-.23 1.17-1.06 5-.35 7.28a7.12 7.12 0 0 0 6.11 5.17c3.52.35 11.39.7 13 .59s10.33-1.17 12.8-1.06 4.46-3.52 4.7-6.46 0-6.58 0-8.57S47.32 20 46.73 19a26.8 26.8 0 0 0-6.93-5.4c-2-.82-15.15-1.94-17.61-1.17-3.76 1.19-8.57 3.65-9.86 5.57z" class="b16-cls-11 b16-cls-15" data-color-action="fill" style="fill:inherit"/><path id="b66_cracked_surface_occlusal" d="M28.17 23.74l3.84 3.83H27l5 4.75h-5l3.83 3.83" class="b16-cls-16" data-color-action="stroke" style="stroke:inherit" data-name="cracked surface occlusal"/><g id="b66_chipped_surface_occlusal" class="b16-cls-11" data-name="chipped surface occlusal"><path d="M25.67 25.41L34 33.75M34 25.41l-8.33 8.34" class="b16-cls-17" data-color-action="stroke" style="stroke:inherit"/></g><g id="b66_buccal_abfraction" data-name="buccal abfraction"><path d="M28 1.25h3v3h-3z" class="b16-cls-7" transform="rotate(-180 29.5 2.75)"/><path d="M28 1.25h3v3h-3z" class="b16-cls-7" transform="rotate(-180 29.5 2.75)"/><path d="M28 1.25h3v3h-3z" class="b16-cls-7" transform="rotate(-180 29.5 2.75)"/></g><g id="b66_braces"><path d="M28 1.25h3v3h-3z" class="b16-cls-7" transform="rotate(-180 29.5 2.75)"/><path d="M28 1.25h3v3h-3z" class="b16-cls-7" transform="rotate(-180 29.5 2.75)"/><path d="M28 1.25h3v3h-3z" class="b16-cls-7" transform="rotate(-180 29.5 2.75)"/></g><g id="b66_apicoectomy"><path d="M28 1.25h3v3h-3z" class="b16-cls-7" transform="rotate(-180 29.5 2.75)"/><path d="M28 1.25h3v3h-3z" class="b16-cls-7" transform="rotate(-180 29.5 2.75)"/><path d="M28 1.25h3v3h-3z" class="b16-cls-7" transform="rotate(-180 29.5 2.75)"/></g><g id="b66_abscess"><path d="M28 1.25h3v3h-3z" class="b16-cls-7" transform="rotate(-180 29.5 2.75)"/><path d="M28 1.25h3v3h-3z" class="b16-cls-7" transform="rotate(-180 29.5 2.75)"/><path d="M28 1.25h3v3h-3z" class="b16-cls-7" transform="rotate(-180 29.5 2.75)"/></g><g id="b66_blunted_roots" data-name="blunted roots"><path d="M28 1.25h3v3h-3z" class="b16-cls-7" transform="rotate(-180 29.5 2.75)"/><path d="M28 1.25h3v3h-3z" class="b16-cls-7" transform="rotate(-180 29.5 2.75)"/><path d="M28 1.25h3v3h-3z" class="b16-cls-7" transform="rotate(-180 29.5 2.75)"/></g><g id="b66_root_amputation" data-name="root amputation"><path d="M28 1.25h3v3h-3z" class="b16-cls-7" transform="rotate(-180 29.5 2.75)"/><path d="M28 1.25h3v3h-3z" class="b16-cls-7" transform="rotate(-180 29.5 2.75)"/><path d="M28 1.25h3v3h-3z" class="b16-cls-7" transform="rotate(-180 29.5 2.75)"/></g><path id="b66_missing_crown" d="M2 2.02h55v51.77H2z" class="b16-cls-10" transform="rotate(-180 29.5 27.905)" data-name="missing crown"/><g id="b66_missing_tooth" data-name="missing tooth"><path d="M12.33 18c-1.18 1.71-1.53 7.87-1.17 9a8.31 8.31 0 0 1 .47 3.76c-.23 1.17-1.06 5-.35 7.28a7.12 7.12 0 0 0 6.11 5.17c3.52.35 11.39.7 13 .59s10.33-1.17 12.8-1.06 4.46-3.52 4.7-6.46 0-6.58 0-8.57S47.32 20 46.73 19a26.8 26.8 0 0 0-6.93-5.4c-2-.82-15.15-1.94-17.61-1.17-3.76 1.19-8.57 3.65-9.86 5.57z" class="b16-cls-2"/><path d="M12.33 18c-1.18 1.71-1.53 7.87-1.17 9a8.31 8.31 0 0 1 .47 3.76c-.23 1.17-1.06 5-.35 7.28a7.12 7.12 0 0 0 6.11 5.17c3.52.35 11.39.7 13 .59s10.33-1.17 12.8-1.06 4.46-3.52 4.7-6.46 0-6.58 0-8.57S47.32 20 46.73 19a26.8 26.8 0 0 0-6.93-5.4c-2-.82-15.15-1.94-17.61-1.17-3.76 1.19-8.57 3.65-9.86 5.57z" class="b16-cls-10"/><path d="M30.06 28.41c-1.49.69-10 .23-9.39.82s8.69.35 9.39.94 0 6.93 1.06 6.93.82-6 1.29-6.46 7.4-.12 7.63-.59-5.4-.94-6.22-1.41-1.06-3.76-1.41-5.28-1.06-4.23-1.76-3.88.82 3.88.82 5 .11 3.23-1.41 3.93z" class="b16-cls-10"/><path d="M46.85 28.06c-.82.59-.47 2 0 2.82s-.12 2.58-.23 3.64a9.32 9.32 0 0 1-2.11 4.7c-1.17 1.06-3.64 1.29-5.75 1.76s-6.69.23-7.16-.23-1.76-.23-2.58.12-8.34.12-10.92-.35-5-1.88-5.64-2.94-.12-5 .23-6.46.7-2.11-.23-3.05A12.26 12.26 0 0 1 11 26.13a4.29 4.29 0 0 0 .11.88 8.31 8.31 0 0 1 .47 3.76c-.23 1.17-1.06 5-.35 7.28a7.12 7.12 0 0 0 6.11 5.17c3.52.35 11.39.7 13 .59s10.33-1.17 12.8-1.06 4.46-3.52 4.7-6.46 0-6.58 0-8.57v-.62a8.29 8.29 0 0 1-.99.96zM39.8 13.62c-2-.82-15.15-1.94-17.61-1.17a33.93 33.93 0 0 0-6.55 2.89c-1.52.89 1.64-.87 3.58-.87a47.79 47.79 0 0 1 8.72.74c1.06.35 2.35.7 3.05.12s5.87-1.41 8.45-1.17c1.71.16 4.23 2 2.82 1a13.92 13.92 0 0 0-2.46-1.54z" class="b16-cls-10"/></g><g id="b66_maryland_bridge_pontic" class="b16-cls-11" data-name="maryland bridge pontic"><path d="M12.33 18c-1.18 1.71-1.53 7.87-1.17 9a8.31 8.31 0 0 1 .47 3.76c-.23 1.17-1.06 5-.35 7.28a7.12 7.12 0 0 0 6.11 5.17c3.52.35 11.39.7 13 .59s10.33-1.17 12.8-1.06 4.46-3.52 4.7-6.46 0-6.58 0-8.57S47.32 20 46.73 19a26.8 26.8 0 0 0-6.93-5.4c-2-.82-15.15-1.94-17.61-1.17-3.76 1.19-8.57 3.65-9.86 5.57z" class="b16-cls-12" data-color-action="fill" style="fill:inherit"/><path d="M2 24.17h20.42v7.67H2zM36.58 24.17H57v7.67H36.58z" class="b16-cls-12" data-color-action="fill" style="fill:inherit"/></g><g id="b66_maryland_bridge_abutment_mesial" data-name="maryland bridge abutment mesial"><g class="b16-cls-11"><path d="M2 24.17h20.42v7.67H2z" class="b16-cls-12" data-color-action="fill" style="fill:inherit"/><ellipse cx="19.7" cy="28" class="b16-cls-12" rx="5.93" ry="13.62" data-color-action="fill" style="fill:inherit"/></g><path d="M12.33 18c-1.18 1.71-1.53 7.87-1.17 9a8.31 8.31 0 0 1 .47 3.76c-.23 1.17-1.06 5-.35 7.28a7.12 7.12 0 0 0 6.11 5.17c3.52.35 11.39.7 13 .59s10.33-1.17 12.8-1.06 4.46-3.52 4.7-6.46 0-6.58 0-8.57S47.32 20 46.73 19a26.8 26.8 0 0 0-6.93-5.4c-2-.82-15.15-1.94-17.61-1.17-3.76 1.19-8.57 3.65-9.86 5.57z" class="b16-cls-2"/><path d="M12.33 18c-1.18 1.71-1.53 7.87-1.17 9a8.31 8.31 0 0 1 .47 3.76c-.23 1.17-1.06 5-.35 7.28a7.12 7.12 0 0 0 6.11 5.17c3.52.35 11.39.7 13 .59s10.33-1.17 12.8-1.06 4.46-3.52 4.7-6.46 0-6.58 0-8.57S47.32 20 46.73 19a26.8 26.8 0 0 0-6.93-5.4c-2-.82-15.15-1.94-17.61-1.17-3.76 1.19-8.57 3.65-9.86 5.57z" class="b16-cls-3"/><path d="M30.06 28.41c-1.49.69-10 .23-9.39.82s8.69.35 9.39.94 0 6.93 1.06 6.93.82-6 1.29-6.46 7.4-.12 7.63-.59-5.4-.94-6.22-1.41-1.06-3.76-1.41-5.28-1.06-4.23-1.76-3.88.82 3.88.82 5 .11 3.23-1.41 3.93z" class="b16-cls-4"/><path d="M46.85 28.06c-.82.59-.47 2 0 2.82s-.12 2.58-.23 3.64a9.32 9.32 0 0 1-2.11 4.7c-1.17 1.06-3.64 1.29-5.75 1.76s-6.69.23-7.16-.23-1.76-.23-2.58.12-8.34.12-10.92-.35-5-1.88-5.64-2.94-.12-5 .23-6.46.7-2.11-.23-3.05A12.26 12.26 0 0 1 11 26.13a4.29 4.29 0 0 0 .11.88 8.31 8.31 0 0 1 .47 3.76c-.23 1.17-1.06 5-.35 7.28a7.12 7.12 0 0 0 6.11 5.17c3.52.35 11.39.7 13 .59s10.33-1.17 12.8-1.06 4.46-3.52 4.7-6.46 0-6.58 0-8.57v-.62a8.29 8.29 0 0 1-.99.96z" class="b16-cls-4"/><path d="M39.8 13.62c-2-.82-15.15-1.94-17.61-1.17a33.93 33.93 0 0 0-6.55 2.89c-1.52.89 1.64-.87 3.58-.87a47.79 47.79 0 0 1 8.72.74c1.06.35 2.35.7 3.05.12s5.87-1.41 8.45-1.17c1.71.16 4.23 2 2.82 1a13.92 13.92 0 0 0-2.46-1.54z" class="b16-cls-5"/></g><g id="b66_maryland_bridge_abutment_distal" data-name="maryland bridge abutment distal"><g class="b16-cls-11"><path d="M36.58 24.17H57v7.67H36.58z" class="b16-cls-12" data-color-action="fill" style="fill:inherit"/><ellipse cx="39.3" cy="28" class="b16-cls-12" rx="5.93" ry="13.62" data-color-action="fill" style="fill:inherit"/></g><path d="M12.33 18c-1.18 1.71-1.53 7.87-1.17 9a8.31 8.31 0 0 1 .47 3.76c-.23 1.17-1.06 5-.35 7.28a7.12 7.12 0 0 0 6.11 5.17c3.52.35 11.39.7 13 .59s10.33-1.17 12.8-1.06 4.46-3.52 4.7-6.46 0-6.58 0-8.57S47.32 20 46.73 19a26.8 26.8 0 0 0-6.93-5.4c-2-.82-15.15-1.94-17.61-1.17-3.76 1.19-8.57 3.65-9.86 5.57z" class="b16-cls-2"/><path d="M12.33 18c-1.18 1.71-1.53 7.87-1.17 9a8.31 8.31 0 0 1 .47 3.76c-.23 1.17-1.06 5-.35 7.28a7.12 7.12 0 0 0 6.11 5.17c3.52.35 11.39.7 13 .59s10.33-1.17 12.8-1.06 4.46-3.52 4.7-6.46 0-6.58 0-8.57S47.32 20 46.73 19a26.8 26.8 0 0 0-6.93-5.4c-2-.82-15.15-1.94-17.61-1.17-3.76 1.19-8.57 3.65-9.86 5.57z" class="b16-cls-3"/><path d="M30.06 28.41c-1.49.69-10 .23-9.39.82s8.69.35 9.39.94 0 6.93 1.06 6.93.82-6 1.29-6.46 7.4-.12 7.63-.59-5.4-.94-6.22-1.41-1.06-3.76-1.41-5.28-1.06-4.23-1.76-3.88.82 3.88.82 5 .11 3.23-1.41 3.93z" class="b16-cls-4"/><path d="M46.85 28.06c-.82.59-.47 2 0 2.82s-.12 2.58-.23 3.64a9.32 9.32 0 0 1-2.11 4.7c-1.17 1.06-3.64 1.29-5.75 1.76s-6.69.23-7.16-.23-1.76-.23-2.58.12-8.34.12-10.92-.35-5-1.88-5.64-2.94-.12-5 .23-6.46.7-2.11-.23-3.05A12.26 12.26 0 0 1 11 26.13a4.29 4.29 0 0 0 .11.88 8.31 8.31 0 0 1 .47 3.76c-.23 1.17-1.06 5-.35 7.28a7.12 7.12 0 0 0 6.11 5.17c3.52.35 11.39.7 13 .59s10.33-1.17 12.8-1.06 4.46-3.52 4.7-6.46 0-6.58 0-8.57v-.62a8.29 8.29 0 0 1-.99.96z" class="b16-cls-4"/><path d="M39.8 13.62c-2-.82-15.15-1.94-17.61-1.17a33.93 33.93 0 0 0-6.55 2.89c-1.52.89 1.64-.87 3.58-.87a47.79 47.79 0 0 1 8.72.74c1.06.35 2.35.7 3.05.12s5.87-1.41 8.45-1.17c1.71.16 4.23 2 2.82 1a13.92 13.92 0 0 0-2.46-1.54z" class="b16-cls-5"/></g><g id="b66_maryland_bridge_abutment" data-name="maryland bridge abutment"><g class="b16-cls-11"><path d="M2 24.17h20.42v7.67H2zM36.58 24.17H57v7.67H36.58z" class="b16-cls-12" data-color-action="fill" style="fill:inherit"/><ellipse cx="39.3" cy="28" class="b16-cls-12" rx="5.93" ry="13.62" data-color-action="fill" style="fill:inherit"/><ellipse cx="19.7" cy="28" class="b16-cls-12" rx="5.93" ry="13.62" data-color-action="fill" style="fill:inherit"/></g><path d="M12.33 18c-1.18 1.71-1.53 7.87-1.17 9a8.31 8.31 0 0 1 .47 3.76c-.23 1.17-1.06 5-.35 7.28a7.12 7.12 0 0 0 6.11 5.17c3.52.35 11.39.7 13 .59s10.33-1.17 12.8-1.06 4.46-3.52 4.7-6.46 0-6.58 0-8.57S47.32 20 46.73 19a26.8 26.8 0 0 0-6.93-5.4c-2-.82-15.15-1.94-17.61-1.17-3.76 1.19-8.57 3.65-9.86 5.57z" class="b16-cls-2"/><path d="M12.33 18c-1.18 1.71-1.53 7.87-1.17 9a8.31 8.31 0 0 1 .47 3.76c-.23 1.17-1.06 5-.35 7.28a7.12 7.12 0 0 0 6.11 5.17c3.52.35 11.39.7 13 .59s10.33-1.17 12.8-1.06 4.46-3.52 4.7-6.46 0-6.58 0-8.57S47.32 20 46.73 19a26.8 26.8 0 0 0-6.93-5.4c-2-.82-15.15-1.94-17.61-1.17-3.76 1.19-8.57 3.65-9.86 5.57z" class="b16-cls-3"/><path d="M30.06 28.41c-1.49.69-10 .23-9.39.82s8.69.35 9.39.94 0 6.93 1.06 6.93.82-6 1.29-6.46 7.4-.12 7.63-.59-5.4-.94-6.22-1.41-1.06-3.76-1.41-5.28-1.06-4.23-1.76-3.88.82 3.88.82 5 .11 3.23-1.41 3.93z" class="b16-cls-4"/><path d="M46.85 28.06c-.82.59-.47 2 0 2.82s-.12 2.58-.23 3.64a9.32 9.32 0 0 1-2.11 4.7c-1.17 1.06-3.64 1.29-5.75 1.76s-6.69.23-7.16-.23-1.76-.23-2.58.12-8.34.12-10.92-.35-5-1.88-5.64-2.94-.12-5 .23-6.46.7-2.11-.23-3.05A12.26 12.26 0 0 1 11 26.13a4.29 4.29 0 0 0 .11.88 8.31 8.31 0 0 1 .47 3.76c-.23 1.17-1.06 5-.35 7.28a7.12 7.12 0 0 0 6.11 5.17c3.52.35 11.39.7 13 .59s10.33-1.17 12.8-1.06 4.46-3.52 4.7-6.46 0-6.58 0-8.57v-.62a8.29 8.29 0 0 1-.99.96z" class="b16-cls-4"/><path d="M39.8 13.62c-2-.82-15.15-1.94-17.61-1.17a33.93 33.93 0 0 0-6.55 2.89c-1.52.89 1.64-.87 3.58-.87a47.79 47.79 0 0 1 8.72.74c1.06.35 2.35.7 3.05.12s5.87-1.41 8.45-1.17c1.71.16 4.23 2 2.82 1a13.92 13.92 0 0 0-2.46-1.54z" class="b16-cls-5"/></g><path id="b66_bridge_abutment" d="M12.33 18c-1.18 1.71-1.53 7.87-1.17 9a8.31 8.31 0 0 1 .47 3.76c-.23 1.17-1.06 5-.35 7.28a7.12 7.12 0 0 0 6.11 5.17c3.52.35 11.39.7 13 .59s10.33-1.17 12.8-1.06 4.46-3.52 4.7-6.46 0-6.58 0-8.57S47.32 20 46.73 19a26.8 26.8 0 0 0-6.93-5.4c-2-.82-15.15-1.94-17.61-1.17-3.76 1.19-8.57 3.65-9.86 5.57z" class="b16-cls-11 b16-cls-13" data-color-action="fill" style="fill:inherit" data-name="bridge abutment"/><path id="b66_bridge_pontic" d="M12.33 18c-1.18 1.71-1.53 7.87-1.17 9a8.31 8.31 0 0 1 .47 3.76c-.23 1.17-1.06 5-.35 7.28a7.12 7.12 0 0 0 6.11 5.17c3.52.35 11.39.7 13 .59s10.33-1.17 12.8-1.06 4.46-3.52 4.7-6.46 0-6.58 0-8.57S47.32 20 46.73 19a26.8 26.8 0 0 0-6.93-5.4c-2-.82-15.15-1.94-17.61-1.17-3.76 1.19-8.57 3.65-9.86 5.57z" class="b16-cls-11 b16-cls-13" data-color-action="fill" style="fill:inherit" data-name="bridge pontic"/><g id="b66_implant_mini" data-name="implant mini"><path d="M2 2.02h55v51.77H2z" class="b16-cls-10" transform="rotate(-180 29.5 27.905)"/><circle cx="29.5" cy="28" r="2.61" class="b16-cls-13" data-color-action="fill" style="fill:inherit"/></g><g id="b66_implant_cylinder" data-name="implant cylinder"><path d="M2 2.02h55v51.77H2z" class="b16-cls-10" transform="rotate(-180 29.5 27.905)"/><circle cx="29.5" cy="28" r="5" class="b16-cls-13" data-color-action="fill" style="fill:inherit"/><path d="M34.5 28a5 5 0 0 1-.09.89h-9.82a4.46 4.46 0 0 1 0-1.78h9.82a5 5 0 0 1 .09.89z" class="b16-cls-14" data-color-action="fill" style="fill:inherit"/></g><g id="b66_implant_blade" data-name="implant blade"><path d="M2 2.02h55v51.77H2z" class="b16-cls-10" transform="rotate(-180 29.5 27.905)"/><circle cx="29.5" cy="28" r="5" class="b16-cls-13" data-color-action="fill" style="fill:inherit"/></g><g id="b66_border"><path d="M0 0h59v56H0z" class="b16-cls-7"/><path d="M0 0h59v56H0z" class="b16-cls-7" transform="rotate(-180 29.5 28)"/></g></defs></g><g class="c16-cls-1" transform="translate(0 217)"><g id="_16C" data-name="#16C"><path d="M13.62 35.09c-1.72-1.78-2.82-14.72-2-18.16s4.07-6.26 6.58-6.11 7 3 9.71 3 8.41-2.69 10.09-2.53 8 .94 8.77 4.54 1.88 16.44-.63 19.1-27.98 4.86-32.52.16z" class="c16-cls-2"/><path d="M13.62 35.09c-1.72-1.78-2.82-14.72-2-18.16s4.07-6.26 6.58-6.11 7 3 9.71 3 8.41-2.69 10.09-2.53 8 .94 8.77 4.54 1.88 16.44-.63 19.1-27.98 4.86-32.52.16z" class="c16-cls-3"/><path d="M23.94 14.84c2 .4 2.69-.4 4-.27a9.41 9.41 0 0 0 3.5.13c2-.27 5.24-1.75 6.86-1.61a28.34 28.34 0 0 1 7 1.48 12.92 12.92 0 0 1 1.3.65c-1.32-3.08-6.95-3.78-8.57-3.93s-7.5 2.51-10.16 2.51-7.2-2.82-9.71-3c-2.11-.13-4.77 1.85-6 4.54 1.49-1 3.49-2.07 5.09-2 2.93.16 4.68 1.1 6.69 1.5z" class="c16-cls-4"/><path d="M46.19 34.93a7.79 7.79 0 0 0 1.33-4.1 12.84 12.84 0 0 1-2.6 1.62c-2.15.94-9.41 1.75-13.44 2a98 98 0 0 1-12.77-.13 22.29 22.29 0 0 1-6.22-2.27 7.42 7.42 0 0 0 1.14 3c4.53 4.74 30.05 2.55 32.56-.12zM27.84 15c-.65.18-1.34 2.29-1.08 4.3s.94 6.86 1.88 6.72-.13-5.24 0-6.86.14-4.45-.8-4.16z" class="c16-cls-5"/></g><defs><g id="c66_splinted_crowns" data-name="splinted crowns"><path d="M2 34.08h55v7.67H2z" class="c16-cls-12" transform="rotate(-180 29.5 37.91)" data-color-action="fill" style="fill:inherit"/><path d="M13.62 35.09c-1.72-1.78-2.82-14.72-2-18.16s4.07-6.26 6.58-6.11 7 3 9.71 3 8.41-2.69 10.09-2.53 8 .94 8.77 4.54 1.88 16.44-.63 19.1-27.98 4.86-32.52.16z" class="c16-cls-2"/><path d="M13.62 35.09c-1.72-1.78-2.82-14.72-2-18.16s4.07-6.26 6.58-6.11 7 3 9.71 3 8.41-2.69 10.09-2.53 8 .94 8.77 4.54 1.88 16.44-.63 19.1-27.98 4.86-32.52.16z" class="c16-cls-3"/><path d="M23.94 14.84c2 .4 2.69-.4 4-.27a9.41 9.41 0 0 0 3.5.13c2-.27 5.24-1.75 6.86-1.61a28.34 28.34 0 0 1 7 1.48 12.92 12.92 0 0 1 1.3.65c-1.32-3.08-6.95-3.78-8.57-3.93s-7.5 2.51-10.16 2.51-7.2-2.82-9.71-3c-2.11-.13-4.77 1.85-6 4.54 1.49-1 3.49-2.07 5.09-2 2.93.16 4.68 1.1 6.69 1.5z" class="c16-cls-4"/><path d="M46.19 34.93a7.79 7.79 0 0 0 1.33-4.1 12.84 12.84 0 0 1-2.6 1.62c-2.15.94-9.41 1.75-13.44 2a98 98 0 0 1-12.77-.13 22.29 22.29 0 0 1-6.22-2.27 7.42 7.42 0 0 0 1.14 3c4.53 4.74 30.05 2.55 32.56-.12zM27.84 15c-.65.18-1.34 2.29-1.08 4.3s.94 6.86 1.88 6.72-.13-5.24 0-6.86.14-4.45-.8-4.16z" class="c16-cls-5"/></g><path id="c66_lingual_V" d="M29.37 34.45a27 27 0 0 0-10.8 2.69c6.25 1.21 16.25.69 22.41-.46a27 27 0 0 0-11.61-2.23z" class="c16-cls-6" data-color-action="fill" style="fill:inherit" data-name="lingual V"/><ellipse id="c66_lingual" cx="29.51" cy="26.74" class="c16-cls-6" rx="3.36" ry="5.4" data-color-action="fill" style="fill:inherit"/><path id="c66_mesial" d="M16.39 22.17a16.38 16.38 0 0 1 .42-2.28L12.91 14a8.28 8.28 0 0 0-1.32 2.91c-.39 1.71-.31 5.77.07 9.64 2.11-.55 4.34-1.7 4.73-4.38z" class="c16-cls-6" data-color-action="fill" style="fill:inherit"/><path id="c66_line_angle_4" d="M21.47 16.66a7.79 7.79 0 0 1 2.86.58l-1.1-4.77a20.15 20.15 0 0 0-5.08-1.66c-1.73-.1-3.85 1.19-5.24 3.19l3.9 5.88c.5-1.75 1.6-3.31 4.66-3.22z" class="c16-cls-6" data-color-action="fill" style="fill:inherit" data-name="line angle 4"/><path id="c66_groove_2" d="M29.24 19.49c2 .09 3.54-1.05 5.56-1.84l1.55-6.1c-2.47.65-6.41 2.24-8.48 2.24a14.29 14.29 0 0 1-4.63-1.31l1.1 4.77c1.88.75 2.66 2.14 4.9 2.24z" class="c16-cls-6" data-color-action="fill" style="fill:inherit" data-name="groove 2"/><path id="c66_line_angle_3" d="M38.7 16.95c1.9.06 3.17 1.21 4.12 3L46.5 15c-1.5-2.89-6.88-3.57-8.5-3.71a5.73 5.73 0 0 0-1.7.26l-1.55 6.1a9.56 9.56 0 0 1 3.95-.7z" class="c16-cls-6" data-color-action="fill" style="fill:inherit" data-name="line angle 3"/><path id="c66_distal" d="M46.81 15.83a3.38 3.38 0 0 0-.31-.83l-3.67 4.95A21.08 21.08 0 0 1 44.35 24a4.44 4.44 0 0 0 3.39 2.86 61.55 61.55 0 0 0-.93-11.03z" class="c16-cls-6" data-color-action="fill" style="fill:inherit"/><g id="c66_veneer"><path d="M28 1.25h3v3h-3z" class="c16-cls-7" transform="rotate(-180 29.5 2.75)"/><path d="M28 1.25h3v3h-3z" class="c16-cls-7" transform="rotate(-180 29.5 2.75)"/><path d="M28 1.25h3v3h-3z" class="c16-cls-7" transform="rotate(-180 29.5 2.75)"/></g><g id="c66_tissue_graft" data-name="tissue graft"><path d="M28 1.25h3v3h-3z" class="c16-cls-7" transform="rotate(-180 29.5 2.75)"/><path d="M28 1.25h3v3h-3z" class="c16-cls-7" transform="rotate(-180 29.5 2.75)"/><path d="M28 1.25h3v3h-3z" class="c16-cls-7" transform="rotate(-180 29.5 2.75)"/></g><g id="c66_tipped_lingual" class="c16-cls-8" data-name="tipped lingual"><path d="M28.65 7.93c1.26-3.37 4.74-3.85 7.69 5.32.5 1.56 4.42 1.76 3.84 0C38.16 7.15 34.86 3 31.11 4a4.86 4.86 0 0 0-3 3.38c.2.15.43.41.54.55z" class="c16-cls-9" data-color-action="fill" style="fill:inherit"/><path d="M30.73 10.85h12.94l-2.94 9.64-10-9.64z" class="c16-cls-9" data-color-action="fill" style="fill:inherit"/></g><g id="c66_tipped_facial" data-name="tipped facial"><path d="M28 1.25h3v3h-3z" class="c16-cls-7" transform="rotate(-180 29.5 2.75)"/><path d="M28 1.25h3v3h-3z" class="c16-cls-7" transform="rotate(-180 29.5 2.75)"/><path d="M28 1.25h3v3h-3z" class="c16-cls-7" transform="rotate(-180 29.5 2.75)"/></g><path id="c66_surface_restoration_distal" d="M40.21 18.81c.26 1.86.45 7.8.51 12.82a11.61 11.61 0 0 1 7-6.2 59.73 59.73 0 0 0-.91-9.59c-.34-1.58-1.75-2.62-3.35-3.3l-4.37 6a11.73 11.73 0 0 1 1.12.27z" class="c16-cls-10" data-color-action="fill" style="fill:inherit" data-name="surface restoration distal"/><path id="c66_surface_restoration_lingual" d="M20.13 36.56v.85l.63.08a15.74 15.74 0 0 1 9.8-3.26 16 16 0 0 1 9.05 2.71h.11v-.46a11.51 11.51 0 0 1 1.06-4.83c-.05-5-.24-11-.51-12.82a13.32 13.32 0 0 0-2.27-.48c-.6.16-1.61.49-2.32.72a27.08 27.08 0 0 1-7.88 1.74c-2.78 0-5.48-1.1-7.86-2.07l-1.46-.58a1 1 0 0 0-.13.28c-.19 1.07-.12 6.9.11 12.23a11.48 11.48 0 0 1 1.67 5.89z" class="c16-cls-8 c16-cls-11" data-color-action="fill" style="fill:inherit" data-name="surface restoration lingual"/><path id="c66_surface_restoration_lingual_V" d="M20.72 37.49a76 76 0 0 0 18.85-.55 16 16 0 0 0-9.05-2.71 15.74 15.74 0 0 0-9.8 3.26z" class="c16-cls-8 c16-cls-11" data-color-action="fill" style="fill:inherit" data-name="surface restoration lingual V"/><path id="c66_surface_restoration_mesial" d="M11.53 25.39a11.6 11.6 0 0 1 7 5.28c-.22-5.33-.29-11.16-.11-12.23a1 1 0 0 1 .11-.22L13.75 13a8.6 8.6 0 0 0-2.18 4 35.88 35.88 0 0 0-.04 8.39z" class="c16-cls-10" data-color-action="fill" style="fill:inherit" data-name="surface restoration mesial"/><path id="c66_surface_restoration_occlusal" d="M18.53 18.16l1.46.58c2.38 1 5.08 2.07 7.86 2.07a27.08 27.08 0 0 0 7.88-1.74c.71-.23 1.72-.56 2.32-.72.37 0 .7.11 1 .17l4.37-6A19.43 19.43 0 0 0 38 11.3c-1.72-.16-7.52 2.51-10.18 2.51s-7.2-2.82-9.71-3A6.08 6.08 0 0 0 13.75 13l4.76 5.23z" class="c16-cls-10" data-color-action="fill" style="fill:inherit" data-name="surface restoration occlusal"/><g id="c66_supra-erupted"><path d="M28 1.25h3v3h-3z" class="c16-cls-7" transform="rotate(-180 29.5 2.75)"/><path d="M28 1.25h3v3h-3z" class="c16-cls-7" transform="rotate(-180 29.5 2.75)"/><path d="M28 1.25h3v3h-3z" class="c16-cls-7" transform="rotate(-180 29.5 2.75)"/></g><g id="c66_sub-erupted"><path d="M28 1.25h3v3h-3z" class="c16-cls-7" transform="rotate(-180 29.5 2.75)"/><path d="M28 1.25h3v3h-3z" class="c16-cls-7" transform="rotate(-180 29.5 2.75)"/><path d="M28 1.25h3v3h-3z" class="c16-cls-7" transform="rotate(-180 29.5 2.75)"/></g><g id="c66_sealant"><path d="M28 1.25h3v3h-3z" class="c16-cls-7" transform="rotate(-180 29.5 2.75)"/><path d="M28 1.25h3v3h-3z" class="c16-cls-7" transform="rotate(-180 29.5 2.75)"/><path d="M28 1.25h3v3h-3z" class="c16-cls-7" transform="rotate(-180 29.5 2.75)"/></g><g id="c66_root_decay" data-name="root decay"><path d="M28 1.25h3v3h-3z" class="c16-cls-7" transform="rotate(-180 29.5 2.75)"/><path d="M28 1.25h3v3h-3z" class="c16-cls-7" transform="rotate(-180 29.5 2.75)"/><path d="M28 1.25h3v3h-3z" class="c16-cls-7" transform="rotate(-180 29.5 2.75)"/></g><g id="c66_root_canal" data-name="root canal"><path d="M28 1.25h3v3h-3z" class="c16-cls-7" transform="rotate(-180 29.5 2.75)"/><path d="M28 1.25h3v3h-3z" class="c16-cls-7" transform="rotate(-180 29.5 2.75)"/><path d="M28 1.25h3v3h-3z" class="c16-cls-7" transform="rotate(-180 29.5 2.75)"/></g><g id="c66_root_abrasion" data-name="root abrasion"><path d="M28 1.25h3v3h-3z" class="c16-cls-7" transform="rotate(-180 29.5 2.75)"/><path d="M28 1.25h3v3h-3z" class="c16-cls-7" transform="rotate(-180 29.5 2.75)"/><path d="M28 1.25h3v3h-3z" class="c16-cls-7" transform="rotate(-180 29.5 2.75)"/></g><g id="c66_open_contact_mesial" data-name="open contact mesial"><path d="M28 1.25h3v3h-3z" class="c16-cls-7" transform="rotate(-180 29.5 2.75)"/><path d="M28 1.25h3v3h-3z" class="c16-cls-7" transform="rotate(-180 29.5 2.75)"/><path d="M28 1.25h3v3h-3z" class="c16-cls-7" transform="rotate(-180 29.5 2.75)"/></g><g id="c66_open_contact_distal" data-name="open contact distal"><path d="M28 1.25h3v3h-3z" class="c16-cls-7" transform="rotate(-180 29.5 2.75)"/><path d="M28 1.25h3v3h-3z" class="c16-cls-7" transform="rotate(-180 29.5 2.75)"/><path d="M28 1.25h3v3h-3z" class="c16-cls-7" transform="rotate(-180 29.5 2.75)"/></g><path id="c66_lingual_abfraction" d="M13.19 37.83s7.3 5.75 16.31 5.75 16.31-5.75 16.31-5.75-7.3-5.75-16.31-5.75-16.31 5.75-16.31 5.75z" class="c16-cls-15" data-color-action="fill" style="fill:inherit" data-name="lingual abfraction"/><g id="c66_internal_root_resorption" data-name="internal root resorption"><path d="M28 1.25h3v3h-3z" class="c16-cls-7" transform="rotate(-180 29.5 2.75)"/><path d="M28 1.25h3v3h-3z" class="c16-cls-7" transform="rotate(-180 29.5 2.75)"/><path d="M28 1.25h3v3h-3z" class="c16-cls-7" transform="rotate(-180 29.5 2.75)"/></g><g id="c66_gortex_membranes" data-name="gortex membranes"><path d="M28 1.25h3v3h-3z" class="c16-cls-7" transform="rotate(-180 29.5 2.75)"/><path d="M28 1.25h3v3h-3z" class="c16-cls-7" transform="rotate(-180 29.5 2.75)"/><path d="M28 1.25h3v3h-3z" class="c16-cls-7" transform="rotate(-180 29.5 2.75)"/></g><g id="c66_frenum_pull" data-name="frenum pull"><path d="M28 1.25h3v3h-3z" class="c16-cls-7" transform="rotate(-180 29.5 2.75)"/><path d="M28 1.25h3v3h-3z" class="c16-cls-7" transform="rotate(-180 29.5 2.75)"/><path d="M28 1.25h3v3h-3z" class="c16-cls-7" transform="rotate(-180 29.5 2.75)"/></g><g id="c66_external_root_resorption" data-name="external root resorption"><path d="M28 1.25h3v3h-3z" class="c16-cls-7" transform="rotate(-180 29.5 2.75)"/><path d="M28 1.25h3v3h-3z" class="c16-cls-7" transform="rotate(-180 29.5 2.75)"/><path d="M28 1.25h3v3h-3z" class="c16-cls-7" transform="rotate(-180 29.5 2.75)"/></g><path id="c66_three_quarter_crown" d="M11.49 24.63a33.29 33.29 0 0 1 .09-7.7c.78-3.44 4.07-6.26 6.58-6.11s7 3 9.71 3 8.45-2.69 10.13-2.53 8 .94 8.77 4.54a58.12 58.12 0 0 1 .89 8.8z" class="c16-cls-8 c16-cls-19" data-color-action="fill" style="fill:inherit" data-name="three quarter crown"/><path id="c66_crown" d="M13.62 35.09c-1.72-1.78-2.82-14.72-2-18.16s4.07-6.26 6.58-6.11 7 3 9.71 3 8.41-2.69 10.09-2.53 8 .94 8.77 4.54 1.88 16.44-.63 19.1-27.98 4.86-32.52.16z" class="c16-cls-8 c16-cls-19" data-color-action="fill" style="fill:inherit"/><path id="c66_cracked_surface_distal" d="M43.34 18.74l3.83 3.83h-5l5 4.75h-5l3.82 3.82" class="c16-cls-20" data-color-action="stroke" style="stroke:inherit" data-name="cracked surface distal"/><path id="c66_cracked_surface_lingual" d="M28.17 18.74l3.84 3.83H27l5 4.75h-5l3.83 3.82" class="c16-cls-20" data-color-action="stroke" style="stroke:inherit" data-name="cracked surface lingual"/><path id="c66_cracked_surface_lingual_V" d="M28.17 18.74l3.84 3.83H27l5 4.75h-5l3.83 3.82" class="c16-cls-20" data-color-action="stroke" style="stroke:inherit" data-name="cracked surface lingual V"/><path id="c66_cracked_surface_mesial" d="M12.34 18.74l3.83 3.83h-5l5 4.75h-5l3.82 3.82" class="c16-cls-20" data-color-action="stroke" style="stroke:inherit" data-name="cracked surface mesial"/><g id="c66_chipped_surface_distal" class="c16-cls-8" data-name="chipped surface distal"><path d="M39.83 20.41l8.34 8.33M48.17 20.41l-8.34 8.33" class="c16-cls-21" data-color-action="stroke" style="stroke:inherit"/></g><g id="c66_chipped_surface_lingual" class="c16-cls-8" data-name="chipped surface lingual"><path d="M25.67 20.41L34 28.74M34 20.41l-8.33 8.33" class="c16-cls-21" data-color-action="stroke" style="stroke:inherit"/></g><g id="c66_chipped_surface_lingual_V" class="c16-cls-8" data-name="chipped surface lingual V"><path d="M25.67 20.41L34 28.74M34 20.41l-8.33 8.33" class="c16-cls-21" data-color-action="stroke" style="stroke:inherit"/></g><g id="c66_chipped_surface_mesial" class="c16-cls-8" data-name="chipped surface mesial"><path d="M10.67 20.41L19 28.74M19 20.41l-8.33 8.33" class="c16-cls-21" data-color-action="stroke" style="stroke:inherit"/></g><g id="c66_buccal_abfraction" data-name="buccal abfraction"><path d="M28 1.25h3v3h-3z" class="c16-cls-7" transform="rotate(-180 29.5 2.75)"/><path d="M28 1.25h3v3h-3z" class="c16-cls-7" transform="rotate(-180 29.5 2.75)"/><path d="M28 1.25h3v3h-3z" class="c16-cls-7" transform="rotate(-180 29.5 2.75)"/></g><g id="c66_braces"><path d="M28 1.25h3v3h-3z" class="c16-cls-7" transform="rotate(-180 29.5 2.75)"/><path d="M28 1.25h3v3h-3z" class="c16-cls-7" transform="rotate(-180 29.5 2.75)"/><path d="M28 1.25h3v3h-3z" class="c16-cls-7" transform="rotate(-180 29.5 2.75)"/></g><g id="c66_apicoectomy"><path d="M28 1.25h3v3h-3z" class="c16-cls-7" transform="rotate(-180 29.5 2.75)"/><path d="M28 1.25h3v3h-3z" class="c16-cls-7" transform="rotate(-180 29.5 2.75)"/><path d="M28 1.25h3v3h-3z" class="c16-cls-7" transform="rotate(-180 29.5 2.75)"/></g><g id="c66_abscess"><path d="M28 1.25h3v3h-3z" class="c16-cls-7" transform="rotate(-180 29.5 2.75)"/><path d="M28 1.25h3v3h-3z" class="c16-cls-7" transform="rotate(-180 29.5 2.75)"/><path d="M28 1.25h3v3h-3z" class="c16-cls-7" transform="rotate(-180 29.5 2.75)"/></g><g id="c66_blunted_roots" data-name="blunted roots"><path d="M28 1.25h3v3h-3z" class="c16-cls-7" transform="rotate(-180 29.5 2.75)"/><path d="M28 1.25h3v3h-3z" class="c16-cls-7" transform="rotate(-180 29.5 2.75)"/><path d="M28 1.25h3v3h-3z" class="c16-cls-7" transform="rotate(-180 29.5 2.75)"/></g><g id="c66_root_amputation" data-name="root amputation"><path d="M28 1.25h3v3h-3z" class="c16-cls-7" transform="rotate(-180 29.5 2.75)"/><path d="M28 1.25h3v3h-3z" class="c16-cls-7" transform="rotate(-180 29.5 2.75)"/><path d="M28 1.25h3v3h-3z" class="c16-cls-7" transform="rotate(-180 29.5 2.75)"/></g><g id="c66_missing_crown" data-name="missing crown"><path d="M28 1.25h3v3h-3z" class="c16-cls-7" transform="rotate(-180 29.5 2.75)"/><path d="M28 1.25h3v3h-3z" class="c16-cls-7" transform="rotate(-180 29.5 2.75)"/><path d="M28 1.25h3v3h-3z" class="c16-cls-7" transform="rotate(-180 29.5 2.75)"/><path d="M2 2.02h55V64H2z" class="c16-cls-13" transform="rotate(-180 29.5 33.01)"/></g><g id="c66_missing_tooth" data-name="missing tooth"><path d="M13.62 35.09c-1.72-1.78-2.82-14.72-2-18.16s4.07-6.26 6.58-6.11 7 3 9.71 3 8.41-2.69 10.09-2.53 8 .94 8.77 4.54 1.88 16.44-.63 19.1-27.98 4.86-32.52.16z" class="c16-cls-2"/><path d="M13.62 35.09c-1.72-1.78-2.82-14.72-2-18.16s4.07-6.26 6.58-6.11 7 3 9.71 3 8.41-2.69 10.09-2.53 8 .94 8.77 4.54 1.88 16.44-.63 19.1-27.98 4.86-32.52.16z" class="c16-cls-13"/><path d="M23.94 14.84c2 .4 2.69-.4 4-.27a9.41 9.41 0 0 0 3.5.13c2-.27 5.24-1.75 6.86-1.61a28.34 28.34 0 0 1 7 1.48 12.92 12.92 0 0 1 1.3.65c-1.32-3.08-6.95-3.78-8.57-3.93s-7.5 2.51-10.16 2.51-7.2-2.82-9.71-3c-2.11-.13-4.77 1.85-6 4.54 1.49-1 3.49-2.07 5.09-2 2.93.16 4.68 1.1 6.69 1.5zM46.19 34.93a7.79 7.79 0 0 0 1.33-4.1 12.84 12.84 0 0 1-2.6 1.62c-2.15.94-9.41 1.75-13.44 2a98 98 0 0 1-12.77-.13 22.29 22.29 0 0 1-6.22-2.27 7.42 7.42 0 0 0 1.14 3c4.53 4.74 30.05 2.55 32.56-.12z" class="c16-cls-13"/><path d="M27.84 15c-.65.18-1.34 2.29-1.08 4.3s.94 6.86 1.88 6.72-.13-5.24 0-6.86.14-4.45-.8-4.16z" class="c16-cls-13"/></g><g id="c66_maryland_bridge_pontic" class="c16-cls-8" data-name="maryland bridge pontic"><path d="M13.62 35.09c-1.72-1.78-2.82-14.72-2-18.16s4.07-6.26 6.58-6.11 7 3 9.71 3 8.41-2.69 10.09-2.53 8 .94 8.77 4.54 1.88 16.44-.63 19.1-27.98 4.86-32.52.16z" class="c16-cls-14" data-color-action="fill" style="fill:inherit"/><path d="M2 20.96h55v7.67H2z" class="c16-cls-14" transform="rotate(-180 29.5 24.79)" data-color-action="fill" style="fill:inherit"/></g><g id="c66_maryland_bridge_abutment_mesial" class="c16-cls-8" data-name="maryland bridge abutment mesial"><path d="M2 21.16h20.42v7.67H2z" class="c16-cls-14" data-color-action="fill" style="fill:inherit"/><ellipse cx="19.7" cy="25" class="c16-cls-14" rx="5.93" ry="13.62" data-color-action="fill" style="fill:inherit"/></g><g id="c66_maryland_bridge_abutment_distal" class="c16-cls-8" data-name="maryland bridge abutment distal"><path d="M36.58 21.16H57v7.67H36.58z" class="c16-cls-14" data-color-action="fill" style="fill:inherit"/><ellipse cx="39.3" cy="25" class="c16-cls-14" rx="5.93" ry="13.62" data-color-action="fill" style="fill:inherit"/></g><g id="c66_maryland_bridge_abutment" class="c16-cls-8" data-name="maryland bridge abutment"><path d="M2 21.16h20.42v7.67H2zM36.58 21.16H57v7.67H36.58z" class="c16-cls-14" data-color-action="fill" style="fill:inherit"/><ellipse cx="39.3" cy="25" class="c16-cls-14" rx="5.93" ry="13.62" data-color-action="fill" style="fill:inherit"/><ellipse cx="19.7" cy="25" class="c16-cls-14" rx="5.93" ry="13.62" data-color-action="fill" style="fill:inherit"/></g><g id="c66_bridge_abutment_mesial" class="c16-cls-8" data-name="bridge abutment mesial"><path d="M13.62 35.09c-1.72-1.78-2.82-14.72-2-18.16s4.07-6.26 6.58-6.11 7 3 9.71 3 8.41-2.69 10.09-2.53 8 .94 8.77 4.54 1.88 16.44-.63 19.1-27.98 4.86-32.52.16z" class="c16-cls-11" data-color-action="fill" style="fill:inherit"/><path d="M2 20.73h34.98v7.67H2z" class="c16-cls-11" transform="rotate(-180 19.49 24.565)" data-color-action="fill" style="fill:inherit"/></g><g id="c66_bridge_abutment_distal" class="c16-cls-8" data-name="bridge abutment distal"><path d="M13.62 35.09c-1.72-1.78-2.82-14.72-2-18.16s4.07-6.26 6.58-6.11 7 3 9.71 3 8.41-2.69 10.09-2.53 8 .94 8.77 4.54 1.88 16.44-.63 19.1-27.98 4.86-32.52.16z" class="c16-cls-11" data-color-action="fill" style="fill:inherit"/><path d="M22.02 20.73H57v7.67H22.02z" class="c16-cls-11" transform="rotate(-180 39.51 24.565)" data-color-action="fill" style="fill:inherit"/></g><g id="c66_bridge_abutment" class="c16-cls-8" data-name="bridge abutment"><path d="M13.62 35.09c-1.72-1.78-2.82-14.72-2-18.16s4.07-6.26 6.58-6.11 7 3 9.71 3 8.41-2.69 10.09-2.53 8 .94 8.77 4.54 1.88 16.44-.63 19.1-27.98 4.86-32.52.16z" class="c16-cls-11" data-color-action="fill" style="fill:inherit"/><path d="M2 20.73h55v7.67H2z" class="c16-cls-11" transform="rotate(-180 29.5 24.565)" data-color-action="fill" style="fill:inherit"/></g><g id="c66_bridge_pontic" class="c16-cls-8" data-name="bridge pontic"><path d="M13.62 35.09c-1.72-1.78-2.82-14.72-2-18.16s4.07-6.26 6.58-6.11 7 3 9.71 3 8.41-2.69 10.09-2.53 8 .94 8.77 4.54 1.88 16.44-.63 19.1-27.98 4.86-32.52.16z" class="c16-cls-11" data-color-action="fill" style="fill:inherit"/><path d="M2 20.73h55v7.67H2z" class="c16-cls-11" transform="rotate(-180 29.5 24.565)" data-color-action="fill" style="fill:inherit"/></g><g id="c66_implant_mini" data-name="implant mini"><path d="M2 2.02h55V64H2z" class="c16-cls-13" transform="rotate(-180 29.5 33.01)"/><path d="M29.28 66h.44l1-8.5V16.67h-2.44V57.5l1 8.5z" class="c16-cls-11" data-color-action="fill" style="fill:inherit"/><path d="M29.58 66h.07l.4-8.5V16.67h-.37V57.5l-.1 8.5z" class="c16-cls-16"/><path d="M28.28 16.67h2.44v.63h-2.44z" class="c16-cls-17" transform="rotate(-180 29.5 16.985)" data-color-action="fill" style="fill:inherit"/><g class="c16-cls-18"><path d="M30.72 17.3l-2.44 1v-.63l2.44-1v.63zM30.72 18.75l-2.44 1v-.64l2.44-1v.64zM30.72 20.19l-2.44 1v-.63l2.44-1v.63zM30.72 21.64l-2.44 1V22l2.44-1v.64zM30.72 23.08l-2.44 1v-.63l2.44-1v.63zM30.72 24.53l-2.44 1v-.64l2.44-1v.64zM30.72 25.97l-2.44 1v-.63l2.44-1v.63zM30.72 27.42l-2.44 1v-.63l2.44-1v.63zM30.72 28.86l-2.44 1v-.63l2.44-1v.63zM30.72 30.31l-2.44 1v-.63l2.44-1v.63zM30.72 31.75l-2.44 1.01v-.64l2.44-1v.63zM30.72 33.2l-2.44 1v-.63l2.44-1v.63zM30.72 34.65l-2.44 1v-.64l2.44-1v.64zM30.72 36.09l-2.44 1v-.63l2.44-1v.63zM30.72 37.54l-2.44 1v-.64l2.44-1v.64zM30.72 38.98l-2.44 1v-.63l2.44-1v.63zM30.72 40.43l-2.44 1v-.63l2.44-1.01v.64zM30.72 41.87l-2.44 1v-.63l2.44-1v.63zM30.72 43.32l-2.44 1v-.63l2.44-1v.63zM30.72 44.76l-2.44 1v-.63l2.44-1v.63zM30.72 46.21l-2.44 1v-.63l2.44-1v.63zM30.72 47.65l-2.44 1.01v-.64l2.44-1v.63zM30.72 49.1l-2.44 1v-.63l2.44-1v.63zM30.72 50.55l-2.44 1v-.64l2.44-1v.64zM30.72 51.99l-2.44 1v-.63l2.44-1v.63zM30.72 53.44l-2.44 1v-.64l2.44-1v.64zM30.72 54.88l-2.44 1v-.63l2.44-1v.63zM30.72 56.33l-2.44 1v-.63l2.44-1.01v.64zM30.72 57.5l-.03.29-2.27.92-.07-.6 2.37-.97v.36zM30.51 59.3l-1.93.79-.07-.6 2.08-.85-.08.66zM30.33 60.82l-1.58.65-.08-.6 1.74-.71-.08.66zM30.15 62.34l-1.24.51-.07-.6 1.39-.57-.08.66zM29.97 63.86l-.9.37-.07-.6 1.05-.43-.08.66zM29.8 65.38l-.57.23-.07-.6.71-.3-.07.67z" class="c16-cls-17" data-color-action="fill" style="fill:inherit"/></g><circle cx="29.5" cy="12.79" r="2.24" class="c16-cls-11" data-color-action="fill" style="fill:inherit"/><path d="M27.67 14.01h3.67v3h-3.67z" class="c16-cls-11" transform="rotate(-180 29.5 15.51)" data-color-action="fill" style="fill:inherit"/><path d="M29.96 14.01h.55v3h-.55z" class="c16-cls-16"/><path d="M30.3 11.44h.21a2.32 2.32 0 0 1 .49 1.28 2.37 2.37 0 0 1-.52 1.3H30a2 2 0 0 0 .73-1.37 1.5 1.5 0 0 0-.43-1.21z" class="c16-cls-16"/><path d="M28.28 22.74h2.44v.63h-2.44z" class="c16-cls-17" transform="rotate(-180 29.5 23.05)" data-color-action="fill" style="fill:inherit"/><path d="M26.89 16.99h5.22l-.87 5.71h-3.48l-.87-5.71z" class="c16-cls-11" data-color-action="fill" style="fill:inherit"/><path d="M30.15 16.99h.79l-.48 5.71h-.53l.22-5.71z" class="c16-cls-16"/></g><g id="c66_implant_cylinder" data-name="implant cylinder"><path d="M2 2.02h55V64H2z" class="c16-cls-13" transform="rotate(-180 29.5 33.01)"/><path d="M26.17 13.67h6.67V63h-6.67z" class="c16-cls-11" transform="rotate(-180 29.5 38.335)" data-color-action="fill" style="fill:inherit"/><path d="M24.5 63h10v3h-10z" class="c16-cls-11" transform="rotate(-180 29.5 64.5)" data-color-action="fill" style="fill:inherit"/><path d="M30 13.67h1V63h-1z" class="c16-cls-16" transform="rotate(-180 30.5 38.335)"/><path d="M30.75 63h1.5v3h-1.5z" class="c16-cls-16" transform="rotate(-180 31.5 64.5)"/><path d="M24.5 10.64h10v3h-10z" class="c16-cls-11" transform="rotate(-180 29.5 12.14)" data-color-action="fill" style="fill:inherit"/><path d="M30.75 10.64h1.5v3h-1.5z" class="c16-cls-16" transform="rotate(-180 31.5 12.14)"/><path d="M26.17 62.37h6.67V63h-6.67z" class="c16-cls-17" transform="rotate(-180 29.5 62.685)" data-color-action="fill" style="fill:inherit"/><path d="M26.17 13.67h6.67v.63h-6.67z" class="c16-cls-17" transform="rotate(-180 29.5 13.985)" data-color-action="fill" style="fill:inherit"/><g class="c16-cls-18"><path d="M26.17 15.3l6.66-1v-.63l-6.66 1v.63zM26.17 16.75l6.66-1v-.63l-6.66 1v.63zM26.17 18.19l6.66-1v-.63l-6.66 1v.63zM26.17 19.64l6.66-1v-.63l-6.66 1v.63zM26.17 21.08l6.66-1v-.63l-6.66 1v.63zM26.17 22.53l6.66-1v-.63l-6.66 1v.63zM26.17 23.98l6.66-1v-.64l-6.66 1v.64zM26.17 25.42l6.66-1v-.63l-6.66 1v.63zM26.17 26.87l6.66-1.01v-.63l-6.66 1v.64zM26.17 28.31l6.66-1v-.63l-6.66 1v.63zM26.17 29.76l6.66-1v-.64l-6.66 1.01v.63zM26.17 31.2l6.66-1v-.63l-6.66 1v.63zM26.17 32.65l6.66-1v-.63l-6.66 1v.63zM26.17 34.09l6.66-1v-.63l-6.66 1v.63zM26.17 35.54l6.66-1v-.63l-6.66 1v.63zM26.17 36.98l6.66-1v-.63l-6.66 1v.63zM26.17 38.43l6.66-1v-.63l-6.66 1v.63zM26.17 39.88l6.66-1v-.64l-6.66 1v.64zM26.17 41.32l6.66-1v-.63l-6.66 1v.63zM26.17 42.77l6.66-1v-.64l-6.66 1v.64zM26.17 44.21l6.66-1v-.63l-6.66 1v.63zM26.17 45.66l6.66-1v-.64l-6.66 1v.64zM26.17 47.1l6.66-1v-.63l-6.66 1v.63zM26.17 48.55l6.66-1v-.64l-6.66 1.01v.63zM26.17 49.99l6.66-1v-.63l-6.66 1v.63zM26.17 51.44l6.66-1v-.63l-6.66 1v.63zM26.17 52.88l6.66-1v-.63l-6.66 1v.63zM26.17 54.33l6.66-1v-.63l-6.66 1v.63zM26.17 55.77l6.66-1v-.63l-6.66 1v.63zM26.17 57.22l6.66-1v-.63l-6.66 1v.63zM26.17 58.67l6.66-1.01v-.63l-6.66 1v.64zM26.17 60.11l6.66-1v-.63l-6.66 1v.63zM26.17 61.56l6.66-1v-.64l-6.66 1v.64zM26.17 63l6.66-1v-.63l-6.66 1V63z" class="c16-cls-17" data-color-action="fill" style="fill:inherit"/></g></g><g id="c66_implant_blade" data-name="implant blade"><path d="M2 2.02h55V64H2z" class="c16-cls-13" transform="rotate(-180 29.5 33.01)"/><path d="M26.17 13.64h6.67v49.33h-6.67z" class="c16-cls-11" transform="rotate(-180 29.5 38.31)" data-color-action="fill" style="fill:inherit"/><path d="M24.5 10.64h10v3h-10z" class="c16-cls-11" transform="rotate(-180 29.5 12.14)" data-color-action="fill" style="fill:inherit"/><path d="M30 13.64h1v49.33h-1z" class="c16-cls-16" transform="rotate(-180 30.5 38.31)"/><path d="M30.75 10.64h1.5v3h-1.5z" class="c16-cls-16" transform="rotate(-180 31.5 12.14)"/><path d="M26.17 13.64h6.67v.63h-6.67z" class="c16-cls-17" transform="rotate(-180 29.5 13.955)" data-color-action="fill" style="fill:inherit"/></g><g id="c66_border"><path d="M0 0h59v66H0z" class="c16-cls-7"/><path d="M0 0h59v66H0z" class="c16-cls-7" transform="rotate(-180 29.5 33)"/></g></defs></g></svg>