<svg version="1.1" xmlns="http://www.w3.org/2000/svg" xmlns:xlink="http://www.w3.org/1999/xlink" x="0px" y="0px" viewBox="0 0 59 283" style="enable-background:new 0 0 59 161;" xml:space="preserve"><defs><style type="text/css">.aF-cls-2{fill:#929497;stroke:none;}.aF-cls-3{font-family:'ProximaNova-Semibold',sans-serif;}.aF-cls-4{font-size:15px;}.aF-cls-5{fill:#C4C6C7;stroke:#C4C6C7;stroke-width:5;stroke-miterlimit:10;}.aF-cls-6{fill:#F4D6CE;stroke:none;}.aF-cls-7{fill:#F8E7E2;stroke:none;}.aF-cls-8{fill:#F0C5BC;stroke:none;}.aF-cls-9{fill:#EEE;stroke:none;}.aF-cls-10{fill:#E1E2E3;stroke:none;}.aF-cls-11{fill:#FAFBFB;stroke:none;}.aF-cls-12{opacity:0.55;fill:#3C3D3D;stroke:none;}.aF-cls-13{fill:#FFD403;stroke:none;}.aF-cls-14{fill:none;stroke:#C52636;stroke-width:3.622;stroke-miterlimit:10;}.aF-cls-15{font-family:'ProximaNova-Bold',sans-serif;}.aF-cls-16{font-size:13.6587px;}.aF-cls-17{fill:none;stroke:none;}.aF-cls-18{fill:#28418B;stroke:none;}.aF-cls-19{fill:#787878;stroke:none;}.aF-cls-20{fill:none;stroke:#C52636;stroke-width:2;stroke-miterlimit:10;}.aF-cls-21{fill:#C52636;stroke:none;}.aF-cls-22{fill:none;stroke:#C52636;stroke-width:2;stroke-linecap:round;stroke-miterlimit:10;}.aF-cls-23{fill:#C5C7C9;stroke:none;}.aF-cls-24{fill:#FFF;stroke:none;}.aF-cls-25{fill:none;stroke:#28418B;stroke-width:2;stroke-miterlimit:10;}.aF-cls-26{fill:#FFEF3E;stroke:none;}.aF-cls-27{fill:none;stroke:#C52636;stroke-width:1.25;stroke-miterlimit:10;}.aF-cls-28{fill:#9B9999;stroke:none;}.aF-cls-29{fill:#DBDBDC;stroke:none;}.aF-cls-30{fill:#3C3D3D;stroke:none;}.cF-cls-2{fill:#C4C6C7;stroke:#C4C6C7;stroke-width:5;stroke-miterlimit:10;}.cF-cls-3{fill:#EEE;stroke:none;}.cF-cls-4{fill:#FBFBFB;stroke:none;}.cF-cls-5{fill:#E2E3E4;stroke:none;}.cF-cls-6{opacity:0.55;fill:#3C3D3D;stroke:none;}.cF-cls-7{fill:#28418B;stroke:none;}.cF-cls-8{fill:#787878;stroke:none;}.cF-cls-9{fill:#FFF;stroke:none;}.cF-cls-10{fill:#FFEF3E;stroke:none;}.cF-cls-11{fill:none;stroke:#C52636;stroke-width:1.25;stroke-miterlimit:10;}.cF-cls-12{fill:none;stroke:none;}.aF-cls-31{font-family:'ProximaNova-Semibold',sans-serif;font-size:33px;fill:#28418B;stroke:none;}.aF-msng-cls-1{isolation:isolate;}.aF-msng-cls-2{font-size:15px;fill:#929497;font-family:ProximaNova-Semibold,Proxima Nova;font-weight:700;stroke:none;}.aF-msng-cls-3{fill:#C4C6C7;stroke:#C4C6C7;stroke-width:5px;}.aF-msng-cls-11,.aF-msng-cls-3{stroke-miterlimit:10;}.aF-msng-cls-4{fill:#F4D6CE;stroke:none;}.aF-msng-cls-5{fill:#F8E7E2;stroke:none;}.aF-msng-cls-6{fill:#F0C5BC;stroke:none;}.aF-msng-cls-7{fill:#EEE;stroke:none;}.aF-msng-cls-8{fill:#E1E2E3;stroke:none;}.aF-msng-cls-9{fill:#FAFBFB;stroke:none;}.aF-msng-cls-10{}.aF-msng-cls-11,.aF-msng-cls-12{fill:none;stroke:none;}.aF-msng-cls-11{stroke:#787878;stroke-width:6.25px;}</style></defs><title>ToothFS_Layered</title><g class="aF-cls-1"><g id="_Fa">	<text transform="matrix(1 0 0 1 20.125 20.508)" class="aF-cls-2 aF-cls-3 aF-cls-4">FS</text>	<g>		<g>			<g>				<path class="aF-cls-5" d="M17.8,126.4c0.7-2.3,1.7-4,2.8-5.4c0.2-6.3,1.2-14,2.6-21.8c2.5-14.2,6.3-27,7.7-27.1      c1.7-0.1,3.8,12.9,5.3,27c0.8,7.4,1.4,14.9,1.7,21.3c0.8,0.8,1.5,1.7,2,2.9c2,5,4.7,17.4,4,20.6c-0.7,3.4-9.8,4-14.1,4.4      c-4.2,0.3-13.3-1.3-14.3-3.7C14.1,141.4,16,131.8,17.8,126.4z" />				<path class="aF-cls-6" d="M20.6,121.9c0.2-6.4,1.2-14.5,2.6-22.7c2.5-14.2,6.3-27,7.7-27.1c1.7-0.1,3.8,12.9,5.3,27      c0.9,8.3,1.6,16.7,1.7,23.6C37.9,124.8,20.5,124.3,20.6,121.9z" />				<g>					<path class="aF-cls-7" d="M29.7,121.1l4.1,0.5c0,0-0.3-16.3-0.6-27.9c-0.4-17.5-1.8-19.8-2.1-20.1c-0.3-0.4,0.7,1.8,0.4,14.6       C31.3,96.2,29.7,121.1,29.7,121.1z" />				</g>				<g>					<path class="aF-cls-8" d="M24.2,98.6c0.8-6.2,1.9-12.1,2.9-17c-1.3,4.8-2.8,11.1-3.9,17.6c-1.4,8.2-2.4,16.2-2.6,22.7       c0,0.4,0.6,0.8,1.5,1.1C22.2,116.1,23,107.4,24.2,98.6z" />					<path class="aF-cls-8" d="M36.1,99.1c-1.1-10.5-2.5-20.4-3.9-24.7c1,5.3,1.9,14.4,2.7,24c0.7,8.8,1.3,17.7,1.4,25.1       c0.9-0.2,1.4-0.5,1.4-0.9C37.7,115.9,37,107.5,36.1,99.1z" />				</g>			</g>			<g>				<path class="aF-cls-9" d="M15.5,144.6c-1.3-3.2,0.5-12.8,2.3-18.3c2-6,5.1-8.4,10.4-8.5c5.3-0.1,9.8,1,11.6,5.5c2,5,4.7,17.4,4,20.6      c-0.7,3.4-9.8,4-14.1,4.4C25.5,148.7,16.5,147,15.5,144.6z" />				<g>					<path class="aF-cls-10" d="M19.7,126.7c1-4.1,2.4-6.7,4.2-8.1c-2.8,1.1-4.8,3.5-6.1,7.7c-1.8,5.4-3.6,15-2.3,18.3       c0.2,0.5,0.8,1,1.7,1.5C16.9,141,18.4,132.1,19.7,126.7z" />					<path class="aF-cls-10" d="M39.8,123.4c-1-2.4-2.6-3.8-4.7-4.6c1.3,0.9,2.3,2.4,3,4.5c1.6,5.2,3.7,17.5,3.8,22.8       c1.1-0.6,1.9-1.2,2-2.1C44.5,140.8,41.8,128.4,39.8,123.4z" />				</g>				<path class="aF-cls-11" d="M35.7,147.7c-0.2-4.7-0.6-11.9-1.4-19.9c-0.6-6-1.4-8.6-2-9.7c-0.7-0.1-1.4-0.2-2.1-0.2      c0.2,1.3,0.6,4.4,0.8,11.4c0.2,6.6-0.1,14.3-0.3,19C32,148.2,33.8,148,35.7,147.7z" />			</g>		</g>	</g></g><defs><g id="aFS_bone_graft" style="">	<g>		<g>							<ellipse transform="matrix(0.1539 -0.9881 0.9881 0.1539 -106.1107 120.5387)" class="aF-cls-14" cx="17.3" cy="122.2" rx="12.7" ry="12.7" data-color-action="stroke" style="stroke:inherit" />			<line class="aF-cls-14" x1="10.3" y1="112.6" x2="24.3" y2="131.8" data-color-action="stroke" style="stroke:inherit" />		</g>		<text transform="matrix(1 0 0 1 6.7033 126.808)" class="aF-cls-15 aF-cls-16">NA</text>	</g></g><g id="aFS_splinted_crowns" style="">	<g>		<g>							<ellipse transform="matrix(0.1539 -0.9881 0.9881 0.1539 -106.1107 120.5387)" class="aF-cls-14" cx="17.3" cy="122.2" rx="12.7" ry="12.7" data-color-action="stroke" style="stroke:inherit" />			<line class="aF-cls-14" x1="10.3" y1="112.6" x2="24.3" y2="131.8" data-color-action="stroke" style="stroke:inherit" />		</g>		<text transform="matrix(1 0 0 1 6.7033 126.808)" class="aF-cls-15 aF-cls-16">NA</text>	</g></g><g id="aFS_mesial" style="">	<path class="aF-cls-12" d="M19.5,136c0.2,1.3,0.5,3.2,1.3,4.7l-5.6,2.6c-0.3-2.5,0.1-6.4,0.9-10.2C17.7,133.5,19.2,134.4,19.5,136z" data-color-action="fill" style="fill:inherit" /></g><g id="aFS_line_angle_2" style="">	<path class="aF-cls-12" d="M23.3,142.6c0.4,0.1,0.9,0.1,1.5,0.2l-1.8,5c-3.5-0.6-6.9-1.8-7.5-3.2c-0.2-0.4-0.3-0.9-0.4-1.4l5.6-2.6   C21.3,141.6,22.1,142.4,23.3,142.6z" data-color-action="fill" style="fill:inherit" /></g><g id="aFS_facial" style="">	<path class="aF-cls-12" d="M33.8,142.6l1.9,5.1c-2.2,0.3-4.4,0.5-5.9,0.6c-1.7,0.1-4.3-0.1-6.8-0.5l1.8-5C27.2,143,30.9,143,33.8,142.6z   " data-color-action="fill" style="fill:inherit" /></g><g id="aFS_line_angle_1" style="">	<path class="aF-cls-12" d="M36.7,142c1.2-0.4,1.8-1,2.2-1.7l5.1,2c0,0.7,0,1.2-0.1,1.6c-0.5,2.1-4.3,3.2-8.1,3.7l-1.9-5.1   C34.9,142.5,35.9,142.3,36.7,142z" data-color-action="fill" style="fill:inherit" /></g><g id="aFS_distal" style="">	<path class="aF-cls-12" d="M38.9,140.4c0.7-1.4,0.4-3.3,0.9-5.2c0.3-1.2,1.5-1.8,2.8-2.2c0.8,3.6,1.4,7.1,1.4,9.4L38.9,140.4z" data-color-action="fill" style="fill:inherit" /></g><g id="aFS_mid_facial" style="">	<ellipse class="aF-cls-12" cx="29.1" cy="131.5" rx="3.4" ry="6.9" data-color-action="fill" style="fill:inherit" /></g><g id="aFS_facial_V" style="">	<path class="aF-cls-12" d="M22.2,119.6c1.6-1.1,3.6-1.7,6-1.7c2.9-0.1,5.6,0.3,7.7,1.3c-1.8,1.6-4.3,2.5-7.1,2.5   C26.3,121.7,23.9,120.9,22.2,119.6z" data-color-action="fill" style="fill:inherit" /></g><g id="aFS_veneer" style="">	<g>		<g>							<ellipse transform="matrix(0.1539 -0.9881 0.9881 0.1539 -106.1107 120.5387)" class="aF-cls-14" cx="17.3" cy="122.2" rx="12.7" ry="12.7" data-color-action="stroke" style="stroke:inherit" />			<line class="aF-cls-14" x1="10.3" y1="112.6" x2="24.3" y2="131.8" data-color-action="stroke" style="stroke:inherit" />		</g>		<text transform="matrix(1 0 0 1 6.7033 126.808)" class="aF-cls-15 aF-cls-16">NA</text>	</g></g><g id="aFS_tissue_graft" style="">	<g>		<g>							<ellipse transform="matrix(0.1539 -0.9881 0.9881 0.1539 -106.1107 120.5387)" class="aF-cls-14" cx="17.3" cy="122.2" rx="12.7" ry="12.7" data-color-action="stroke" style="stroke:inherit" />			<line class="aF-cls-14" x1="10.3" y1="112.6" x2="24.3" y2="131.8" data-color-action="stroke" style="stroke:inherit" />		</g>		<text transform="matrix(1 0 0 1 6.7033 126.808)" class="aF-cls-15 aF-cls-16">NA</text>	</g></g><g id="aFS_tipped_lingual" style="">	<rect x="28" y="3.2" transform="matrix(-1 -4.486867e-11 4.486867e-11 -1 59 9.5)" class="aF-cls-17" width="3" height="3" /></g><g id="aFS_tipped_facial" style="">	<g>		<path class="aF-cls-18" d="M32.9,151.7c-1.2,3.2-4.5,3.6-7.2-5c-0.5-1.5-4.2-1.7-3.6,0c1.9,5.7,5,9.6,8.5,8.7c1.2-0.3,2.3-1.6,2.8-3.2    C33.2,152.1,33,151.8,32.9,151.7z" data-color-action="fill" style="fill:inherit" />		<polygon class="aF-cls-18" points="31,149 18.8,149 21.6,139.9   " data-color-action="fill" style="fill:inherit" />	</g></g><g id="aFS_surface_restoration_incisal" style="">	<path class="aF-cls-19" d="M29.8,148.3c-4.2,0.3-12.9-1.3-14.2-3.6l6.5-4.3c0,0,0,0,0,0c1.8,0.5,4.4,0.9,6.6,0.9c0.2,0,0.5,0,0.6,0   l0.2,0c3.3-0.3,5.7-0.6,7.3-0.9c0,0,0,0,0,0l6.7,4.3C41.7,147.4,33.7,148,29.8,148.3z" data-color-action="fill" style="fill:inherit" /></g><g id="aFS_surface_restoration_mesial" style="">	<path class="aF-cls-19" d="M15.5,144.6c-1.1-2.7,0-9.8,1.4-15.2c3.4-0.9,6.1-3.2,7.5-6.3c-1.2,7.4-2.3,15.7-2.4,17.4l-6.5,4.3   C15.6,144.7,15.5,144.7,15.5,144.6z" data-color-action="fill" style="fill:inherit" /></g><g id="aFS_surface_restoration_facial" style="">	<g>		<path class="aF-cls-19" d="M34,121c0.2,1.3,0.6,2.6,1.2,3.7c0.9,6.2,1.7,13.1,1.7,15.8c-1.6,0.3-4.1,0.6-7.3,0.9l-0.2,0    c-0.2,0-0.4,0-0.6,0c-2.1,0-4.8-0.5-6.6-0.9c0.1-1.7,1.2-10,2.4-17.4c0.3-0.7,0.6-1.5,0.8-2.3c1.5,0.5,3,0.8,4.7,0.8    C31.3,121.6,32.7,121.4,34,121z" data-color-action="fill" style="fill:inherit" />			</g></g><g id="aFS_surface_restoration_facial_V" style="">	<g>				<path class="aF-cls-19" d="M25.4,118.2c0.8-0.2,1.8-0.3,2.8-0.3c2,0,4,0.1,5.7,0.6c0,0.3,0,0.6,0,0.9c0,0.6,0.1,1.1,0.1,1.7    c-1.3,0.4-2.7,0.6-4.1,0.6c-1.7,0-3.2-0.3-4.7-0.8c0.2-0.8,0.3-1.6,0.3-2.5C25.5,118.2,25.4,118.2,25.4,118.2z" data-color-action="fill" style="fill:inherit" />	</g></g><g id="aFS_surface_restoration_distal" style="">	<path class="aF-cls-19" d="M35.1,124.7c1.4,2.7,3.8,4.7,6.8,5.6c1.3,5.4,2.4,11.6,1.9,13.7c-0.1,0.3-0.2,0.5-0.3,0.7l-6.7-4.3   C36.8,137.7,36.1,130.9,35.1,124.7z" data-color-action="fill" style="fill:inherit" /></g><g id="aFS_supra-erupted" style="">	<g>		<g>							<ellipse transform="matrix(0.1539 -0.9881 0.9881 0.1539 -106.1107 120.5387)" class="aF-cls-14" cx="17.3" cy="122.2" rx="12.7" ry="12.7" data-color-action="stroke" style="stroke:inherit" />			<line class="aF-cls-14" x1="10.3" y1="112.6" x2="24.3" y2="131.8" data-color-action="stroke" style="stroke:inherit" />		</g>		<text transform="matrix(1 0 0 1 6.7033 126.808)" class="aF-cls-15 aF-cls-16">NA</text>	</g></g><g id="aFS_sub-erupted" style="">	<g>		<g>			<line class="aF-cls-20" x1="29.5" y1="109.5" x2="29.5" y2="116.4" data-color-action="stroke" style="stroke:inherit" />			<g>				<polygon class="aF-cls-21" points="25.5,110.7 29.5,103.8 33.5,110.7     " data-color-action="fill" style="fill:inherit" />			</g>		</g>	</g></g><g id="aFS_sealant" style=""><text class="aF-cls-31" transform="matrix(1 0 0 1 19.7 200.47)" data-color-action="fill" style="fill:inherit">S</text></g><g id="aFS_rotated_mesial" style="">	<g>		<path class="aF-cls-18" d="M50.9,127c2.8,1.7,2.2,5.1-9.6,5.5c-5,0.1-8.4,0-8.4,0l0.1,2.8c0,0,0.9,0.1,7.7-0.2    c7.2-0.3,13.2-1.7,12.9-5.6c-0.1-1-1-2.1-2.2-2.7C51.3,126.8,51.1,127,50.9,127z" data-color-action="fill" style="fill:inherit" />		<polygon class="aF-cls-18" points="39,128.2 39,139.4 29.2,133.9   " data-color-action="fill" style="fill:inherit" />	</g></g><g id="aFS_rotated_distal" style="">	<g>		<path class="aF-cls-18" d="M7.8,127c-2.8,1.7-2.2,5.1,9.6,5.5c5,0.1,8.4,0,8.4,0l-0.1,2.8c0,0-0.9,0.1-7.7-0.2    c-7.2-0.3-13.2-1.7-12.9-5.6c0.1-1,1-2.1,2.2-2.7C7.5,126.8,7.7,127,7.8,127z" data-color-action="fill" style="fill:inherit" />		<polygon class="aF-cls-18" points="19.7,128.2 19.7,139.4 29.5,133.9   " data-color-action="fill" style="fill:inherit" />	</g></g><g id="aFS_root_tips" style="">	<g>		<g>							<ellipse transform="matrix(0.1539 -0.9881 0.9881 0.1539 -106.1107 120.5387)" class="aF-cls-14" cx="17.3" cy="122.2" rx="12.7" ry="12.7" data-color-action="stroke" style="stroke:inherit" />			<line class="aF-cls-14" x1="10.3" y1="112.6" x2="24.3" y2="131.8" data-color-action="stroke" style="stroke:inherit" />		</g>		<text transform="matrix(1 0 0 1 6.7033 126.808)" class="aF-cls-15 aF-cls-16">NA</text>	</g></g><g id="aFS_root_decay" style="">	<g>		<g>							<ellipse transform="matrix(0.1539 -0.9881 0.9881 0.1539 -106.1107 120.5387)" class="aF-cls-14" cx="17.3" cy="122.2" rx="12.7" ry="12.7" data-color-action="stroke" style="stroke:inherit" />			<line class="aF-cls-14" x1="10.3" y1="112.6" x2="24.3" y2="131.8" data-color-action="stroke" style="stroke:inherit" />		</g>		<text transform="matrix(1 0 0 1 6.7033 126.808)" class="aF-cls-15 aF-cls-16">NA</text>	</g></g><g id="aFS_root_canal" style="">	<line class="aF-cls-22" x1="30.5" y1="76.7" x2="29.4" y2="115.5" data-color-action="stroke" style="stroke:inherit" /></g><g id="aFS_root_abrasion" style="">	<g>		<g>							<ellipse transform="matrix(0.1539 -0.9881 0.9881 0.1539 -106.1107 120.5387)" class="aF-cls-14" cx="17.3" cy="122.2" rx="12.7" ry="12.7" data-color-action="stroke" style="stroke:inherit" />			<line class="aF-cls-14" x1="10.3" y1="112.6" x2="24.3" y2="131.8" data-color-action="stroke" style="stroke:inherit" />		</g>		<text transform="matrix(1 0 0 1 6.7033 126.808)" class="aF-cls-15 aF-cls-16">NA</text>	</g></g><g id="aFS_pins" style="">	<g>		<g>							<rect x="30.3" y="106.7" transform="matrix(-1 -4.481272e-11 4.481272e-11 -1 62.9163 235.4809)" class="aF-cls-19" width="2.3" height="22" data-color-action="fill" style="fill:inherit" />							<rect x="31.6" y="106.7" transform="matrix(-1 -4.267887e-11 4.267887e-11 -1 63.5987 235.4809)" class="aF-cls-23" width="0.3" height="22" />		</g>		<g>							<rect x="26" y="106.7" transform="matrix(-1 -4.481272e-11 4.481272e-11 -1 54.3024 235.4809)" class="aF-cls-19" width="2.3" height="22" data-color-action="fill" style="fill:inherit" />							<rect x="27.3" y="106.7" transform="matrix(-1 -4.801371e-11 4.801371e-11 -1 54.9849 235.4809)" class="aF-cls-23" width="0.3" height="22" />		</g>	</g></g><g id="aFS_post" style="">	<g>		<g>							<ellipse transform="matrix(0.1539 -0.9881 0.9881 0.1539 -106.1107 120.5387)" class="aF-cls-14" cx="17.3" cy="122.2" rx="12.7" ry="12.7" data-color-action="stroke" style="stroke:inherit" />			<line class="aF-cls-14" x1="10.3" y1="112.6" x2="24.3" y2="131.8" data-color-action="stroke" style="stroke:inherit" />		</g>		<text transform="matrix(1 0 0 1 6.7033 126.808)" class="aF-cls-15 aF-cls-16">NA</text>	</g></g><g id="aFS_open_contact_mesial" style="">	<g>		<g>							<ellipse transform="matrix(0.1539 -0.9881 0.9881 0.1539 -106.1107 120.5387)" class="aF-cls-14" cx="17.3" cy="122.2" rx="12.7" ry="12.7" data-color-action="stroke" style="stroke:inherit" />			<line class="aF-cls-14" x1="10.3" y1="112.6" x2="24.3" y2="131.8" data-color-action="stroke" style="stroke:inherit" />		</g>		<text transform="matrix(1 0 0 1 6.7033 126.808)" class="aF-cls-15 aF-cls-16">NA</text>	</g></g><g id="aFS_open_contact_distal" style="">	<g>		<g>							<ellipse transform="matrix(0.1539 -0.9881 0.9881 0.1539 -106.1107 120.5387)" class="aF-cls-14" cx="17.3" cy="122.2" rx="12.7" ry="12.7" data-color-action="stroke" style="stroke:inherit" />			<line class="aF-cls-14" x1="10.3" y1="112.6" x2="24.3" y2="131.8" data-color-action="stroke" style="stroke:inherit" />		</g>		<text transform="matrix(1 0 0 1 6.7033 126.808)" class="aF-cls-15 aF-cls-16">NA</text>	</g></g><g id="aFS_mesial_drift" style="">	<g>		<g>			<line class="aF-cls-25" x1="26.9" y1="133.6" x2="37.8" y2="133.6" data-color-action="stroke" style="stroke:inherit" />			<g>				<polygon class="aF-cls-18" points="28.1,137.6 21.2,133.6 28.1,129.6     " data-color-action="fill" style="fill:inherit" />			</g>		</g>	</g></g><g id="aFS_lingual_abfraction" style="">	<g>		<g>							<ellipse transform="matrix(0.1539 -0.9881 0.9881 0.1539 -106.1107 120.5387)" class="aF-cls-14" cx="17.3" cy="122.2" rx="12.7" ry="12.7" data-color-action="stroke" style="stroke:inherit" />			<line class="aF-cls-14" x1="10.3" y1="112.6" x2="24.3" y2="131.8" data-color-action="stroke" style="stroke:inherit" />		</g>		<text transform="matrix(1 0 0 1 6.7033 126.808)" class="aF-cls-15 aF-cls-16">NA</text>	</g></g><g id="aFS_internal_root_resorption" style="">	<g>		<g>							<ellipse transform="matrix(0.1539 -0.9881 0.9881 0.1539 -106.1107 120.5387)" class="aF-cls-14" cx="17.3" cy="122.2" rx="12.7" ry="12.7" data-color-action="stroke" style="stroke:inherit" />			<line class="aF-cls-14" x1="10.3" y1="112.6" x2="24.3" y2="131.8" data-color-action="stroke" style="stroke:inherit" />		</g>		<text transform="matrix(1 0 0 1 6.7033 126.808)" class="aF-cls-15 aF-cls-16">NA</text>	</g></g><g id="aFS_impacted_mesial" style="">	<g>		<g>							<ellipse transform="matrix(0.1539 -0.9881 0.9881 0.1539 -106.1107 120.5387)" class="aF-cls-14" cx="17.3" cy="122.2" rx="12.7" ry="12.7" data-color-action="stroke" style="stroke:inherit" />			<line class="aF-cls-14" x1="10.3" y1="112.6" x2="24.3" y2="131.8" data-color-action="stroke" style="stroke:inherit" />		</g>		<text transform="matrix(1 0 0 1 6.7033 126.808)" class="aF-cls-15 aF-cls-16">NA</text>	</g></g><g id="aFS_impacted_distal" style="">	<g>		<g>							<ellipse transform="matrix(0.1539 -0.9881 0.9881 0.1539 -106.1107 120.5387)" class="aF-cls-14" cx="17.3" cy="122.2" rx="12.7" ry="12.7" data-color-action="stroke" style="stroke:inherit" />			<line class="aF-cls-14" x1="10.3" y1="112.6" x2="24.3" y2="131.8" data-color-action="stroke" style="stroke:inherit" />		</g>		<text transform="matrix(1 0 0 1 6.7033 126.808)" class="aF-cls-15 aF-cls-16">NA</text>	</g></g><g id="aFS_gortex_membranes" style="">	<g>		<g>							<ellipse transform="matrix(0.1539 -0.9881 0.9881 0.1539 -106.1107 120.5387)" class="aF-cls-14" cx="17.3" cy="122.2" rx="12.7" ry="12.7" data-color-action="stroke" style="stroke:inherit" />			<line class="aF-cls-14" x1="10.3" y1="112.6" x2="24.3" y2="131.8" data-color-action="stroke" style="stroke:inherit" />		</g>		<text transform="matrix(1 0 0 1 6.7033 126.808)" class="aF-cls-15 aF-cls-16">NA</text>	</g></g><g id="aFS_frenum_pull" style="">	<g>		<g>							<ellipse transform="matrix(0.1539 -0.9881 0.9881 0.1539 -106.1107 120.5387)" class="aF-cls-14" cx="17.3" cy="122.2" rx="12.7" ry="12.7" data-color-action="stroke" style="stroke:inherit" />			<line class="aF-cls-14" x1="10.3" y1="112.6" x2="24.3" y2="131.8" data-color-action="stroke" style="stroke:inherit" />		</g>		<text transform="matrix(1 0 0 1 6.7033 126.808)" class="aF-cls-15 aF-cls-16">NA</text>	</g></g><g id="aFS_external_root_resorption" style="">	<g>		<g>							<ellipse transform="matrix(0.1539 -0.9881 0.9881 0.1539 -106.1107 120.5387)" class="aF-cls-14" cx="17.3" cy="122.2" rx="12.7" ry="12.7" data-color-action="stroke" style="stroke:inherit" />			<line class="aF-cls-14" x1="10.3" y1="112.6" x2="24.3" y2="131.8" data-color-action="stroke" style="stroke:inherit" />		</g>		<text transform="matrix(1 0 0 1 6.7033 126.808)" class="aF-cls-15 aF-cls-16">NA</text>	</g></g><g id="aFS_diastema_mesial" style="">	<g>		<g>							<ellipse transform="matrix(0.1539 -0.9881 0.9881 0.1539 -106.1107 120.5387)" class="aF-cls-14" cx="17.3" cy="122.2" rx="12.7" ry="12.7" data-color-action="stroke" style="stroke:inherit" />			<line class="aF-cls-14" x1="10.3" y1="112.6" x2="24.3" y2="131.8" data-color-action="stroke" style="stroke:inherit" />		</g>		<text transform="matrix(1 0 0 1 6.7033 126.808)" class="aF-cls-15 aF-cls-16">NA</text>	</g></g><g id="aFS_diastema_distal" style="">	<g>		<g>							<ellipse transform="matrix(0.1539 -0.9881 0.9881 0.1539 -106.1107 120.5387)" class="aF-cls-14" cx="17.3" cy="122.2" rx="12.7" ry="12.7" data-color-action="stroke" style="stroke:inherit" />			<line class="aF-cls-14" x1="10.3" y1="112.6" x2="24.3" y2="131.8" data-color-action="stroke" style="stroke:inherit" />		</g>		<text transform="matrix(1 0 0 1 6.7033 126.808)" class="aF-cls-15 aF-cls-16">NA</text>	</g></g><g id="aFS_distal_drift" style="">	<g>		<g>			<line class="aF-cls-25" x1="32.1" y1="133.6" x2="21.2" y2="133.6" data-color-action="stroke" style="stroke:inherit" />			<g>				<polygon class="aF-cls-18" points="30.9,129.6 37.8,133.6 30.9,137.6     " data-color-action="fill" style="fill:inherit" />			</g>		</g>	</g></g><g id="aFS_three_quarter_crown" style="">	<g>		<g>							<ellipse transform="matrix(0.1539 -0.9881 0.9881 0.1539 -106.1107 120.5387)" class="aF-cls-14" cx="17.3" cy="122.2" rx="12.7" ry="12.7" data-color-action="stroke" style="stroke:inherit" />			<line class="aF-cls-14" x1="10.3" y1="112.6" x2="24.3" y2="131.8" data-color-action="stroke" style="stroke:inherit" />		</g>		<text transform="matrix(1 0 0 1 6.7033 126.808)" class="aF-cls-15 aF-cls-16">NA</text>	</g></g><g id="aFS_crown" style="">	<path class="aF-cls-26" d="M15.5,144.6c-1.3-3.2,0.5-12.8,2.3-18.3c2-6,5.1-8.4,10.4-8.5c5.3-0.1,9.8,1,11.6,5.5c2,5,4.7,17.4,4,20.6   c-0.7,3.4-9.8,4-14.1,4.4C25.5,148.7,16.5,147,15.5,144.6z" data-color-action="fill" style="fill:inherit" /></g><g id="aFS_cracked_surface_incisal" style="">	<polyline class="aF-cls-27" points="28.9,139.3 32.7,143.1 27.7,143.1 32.7,147.9 27.7,147.9 31.6,151.7  " data-color-action="stroke" style="stroke:inherit" /></g><g id="aFS_cracked_surface_mesial" style="">	<polyline class="aF-cls-27" points="18.3,125.8 22.2,129.7 17.2,129.7 22.2,134.4 17.2,134.4 21,138.2  " data-color-action="stroke" style="stroke:inherit" /></g><g id="aFS_cracked_surface_facial" style="">	<polyline class="aF-cls-27" points="28.9,125.8 32.7,129.7 27.7,129.7 32.7,134.4 27.7,134.4 31.6,138.2  " data-color-action="stroke" style="stroke:inherit" /></g><g id="aFS_cracked_surface_facial_V" style="">	<polyline class="aF-cls-27" points="28.9,125.8 32.7,129.7 27.7,129.7 32.7,134.4 27.7,134.4 31.6,138.2  " data-color-action="stroke" style="stroke:inherit" /></g><g id="aFS_cracked_surface_distal" style="">	<polyline class="aF-cls-27" points="39.2,125.8 43.1,129.7 38.1,129.7 43.1,134.4 38.1,134.4 41.9,138.2  " data-color-action="stroke" style="stroke:inherit" /></g><g id="aFS_chipped_surface_incisal" style="">	<g>		<line class="aF-cls-27" x1="34.1" y1="141" x2="25.7" y2="149.3" data-color-action="stroke" style="stroke:inherit" />		<line class="aF-cls-27" x1="25.7" y1="141" x2="34.1" y2="149.3" data-color-action="stroke" style="stroke:inherit" />	</g></g><g id="aFS_chipped_surface_mesial" style="">	<g>		<line class="aF-cls-27" x1="24.5" y1="127.5" x2="16.2" y2="135.8" data-color-action="stroke" style="stroke:inherit" />		<line class="aF-cls-27" x1="16.2" y1="127.5" x2="24.5" y2="135.8" data-color-action="stroke" style="stroke:inherit" />	</g></g><g id="aFS_chipped_surface_facial" style="">	<g>		<line class="aF-cls-27" x1="34.1" y1="127.5" x2="25.7" y2="135.8" data-color-action="stroke" style="stroke:inherit" />		<line class="aF-cls-27" x1="25.7" y1="127.5" x2="34.1" y2="135.8" data-color-action="stroke" style="stroke:inherit" />	</g></g><g id="aFS_chipped_surface_facial_V" style="">	<g>		<line class="aF-cls-27" x1="34.1" y1="127.5" x2="25.7" y2="135.8" data-color-action="stroke" style="stroke:inherit" />		<line class="aF-cls-27" x1="25.7" y1="127.5" x2="34.1" y2="135.8" data-color-action="stroke" style="stroke:inherit" />	</g></g><g id="aFS_chipped_surface_distal" style="">	<g>		<line class="aF-cls-27" x1="43.6" y1="127.5" x2="35.2" y2="135.8" data-color-action="stroke" style="stroke:inherit" />		<line class="aF-cls-27" x1="35.2" y1="127.5" x2="43.6" y2="135.8" data-color-action="stroke" style="stroke:inherit" />	</g></g><g id="aFS_buccal_abfraction" style="">	<g>		<g>							<ellipse transform="matrix(0.1539 -0.9881 0.9881 0.1539 -106.1107 120.5387)" class="aF-cls-14" cx="17.3" cy="122.2" rx="12.7" ry="12.7" data-color-action="stroke" style="stroke:inherit" />			<line class="aF-cls-14" x1="10.3" y1="112.6" x2="24.3" y2="131.8" data-color-action="stroke" style="stroke:inherit" />		</g>		<text transform="matrix(1 0 0 1 6.7033 126.808)" class="aF-cls-15 aF-cls-16">NA</text>	</g></g><g id="aFS_braces" style="">	<g>		<g>			<rect x="22.6" y="125" class="aF-cls-23" width="13.5" height="18.2" />			<rect x="22.6" y="142.5" class="aF-cls-28" width="13.5" height="0.7" data-color-action="fill" style="fill:inherit" />			<rect x="22.6" y="134.2" class="aF-cls-28" width="13.5" height="1.4" data-color-action="fill" style="fill:inherit" />			<rect x="22.6" y="125" class="aF-cls-29" width="13.5" height="0.9" data-color-action="fill" style="fill:inherit" />			<g>				<g>					<g>						<path class="aF-cls-30" d="M25.9,125h-3.1c-0.3,0-0.5,0.2-0.5,0.5v7c0,0.3,0.2,0.5,0.5,0.5h3.1c0.3,0,0.5-0.2,0.5-0.5v-7        C26.4,125.2,26.2,125,25.9,125z" data-color-action="fill" style="fill:inherit" />						<path class="aF-cls-19" d="M25.9,125h-3.1c-0.3,0-0.5,0.2-0.5,0.5v5.8c0.7,0.1,1.3,0.2,2,0.2c0.7,0,1.4-0.1,2.1-0.2v-5.8        C26.4,125.2,26.2,125,25.9,125z" data-color-action="fill" style="fill:inherit" />						<path class="aF-cls-23" d="M26.1,126.4v-1.1c0-0.1-0.1-0.2-0.2-0.2h-3.1c-0.1,0-0.2,0.1-0.2,0.2v1.1H26.1z" />					</g>					<g>						<path class="aF-cls-30" d="M35.8,125h-3.1c-0.3,0-0.5,0.2-0.5,0.5v7c0,0.3,0.2,0.5,0.5,0.5h3.1c0.3,0,0.5-0.2,0.5-0.5v-7        C36.3,125.2,36.1,125,35.8,125z" data-color-action="fill" style="fill:inherit" />						<path class="aF-cls-19" d="M35.8,125h-3.1c-0.3,0-0.5,0.2-0.5,0.5v5.8c0.7,0.1,1.3,0.2,2,0.2c0.7,0,1.4-0.1,2.1-0.2v-5.8        C36.3,125.2,36.1,125,35.8,125z" data-color-action="fill" style="fill:inherit" />						<path class="aF-cls-23" d="M36,126.4v-1.1c0-0.1-0.1-0.2-0.2-0.2h-3.1c-0.1,0-0.2,0.1-0.2,0.2v1.1H36z" />					</g>				</g>				<g>					<g>						<path class="aF-cls-30" d="M25.9,135.3h-3.1c-0.3,0-0.5,0.2-0.5,0.5v7c0,0.3,0.2,0.5,0.5,0.5h3.1c0.3,0,0.5-0.2,0.5-0.5v-7        C26.4,135.5,26.2,135.3,25.9,135.3z" data-color-action="fill" style="fill:inherit" />						<path class="aF-cls-19" d="M25.9,135.3h-3.1c-0.3,0-0.5,0.2-0.5,0.5v5.8c0.7,0.1,1.3,0.2,2,0.2c0.7,0,1.4-0.1,2.1-0.2v-5.8        C26.4,135.5,26.2,135.3,25.9,135.3z" data-color-action="fill" style="fill:inherit" />						<path class="aF-cls-23" d="M26.1,136.7v-1.1c0-0.1-0.1-0.2-0.2-0.2h-3.1c-0.1,0-0.2,0.1-0.2,0.2v1.1H26.1z" />					</g>					<g>						<path class="aF-cls-30" d="M35.8,135.3h-3.1c-0.3,0-0.5,0.2-0.5,0.5v7c0,0.3,0.2,0.5,0.5,0.5h3.1c0.3,0,0.5-0.2,0.5-0.5v-7        C36.3,135.5,36.1,135.3,35.8,135.3z" data-color-action="fill" style="fill:inherit" />						<path class="aF-cls-19" d="M35.8,135.3h-3.1c-0.3,0-0.5,0.2-0.5,0.5v5.8c0.7,0.1,1.3,0.2,2,0.2c0.7,0,1.4-0.1,2.1-0.2v-5.8        C36.3,135.5,36.1,135.3,35.8,135.3z" data-color-action="fill" style="fill:inherit" />						<path class="aF-cls-23" d="M36,136.7v-1.1c0-0.1-0.1-0.2-0.2-0.2h-3.1c-0.1,0-0.2,0.1-0.2,0.2v1.1H36z" />					</g>				</g>			</g>		</g>		<g>			<rect x="8.2" y="133.4" class="aF-cls-19" width="42.2" height="1.4" data-color-action="fill" style="fill:inherit" />			<rect x="8.2" y="134.6" class="aF-cls-30" width="42.2" height="0.2" data-color-action="fill" style="fill:inherit" />			<rect x="8.2" y="133.6" class="aF-cls-23" width="42.2" height="0.4" />		</g>	</g></g><g id="aFS_apicoectomy" style="">	<g>		<g>							<ellipse transform="matrix(0.1539 -0.9881 0.9881 0.1539 -106.1107 120.5387)" class="aF-cls-14" cx="17.3" cy="122.2" rx="12.7" ry="12.7" data-color-action="stroke" style="stroke:inherit" />			<line class="aF-cls-14" x1="10.3" y1="112.6" x2="24.3" y2="131.8" data-color-action="stroke" style="stroke:inherit" />		</g>		<text transform="matrix(1 0 0 1 6.7033 126.808)" class="aF-cls-15 aF-cls-16">NA</text>	</g></g><g id="aFS_abscess" style="">	<circle class="aF-cls-18" cx="29.5" cy="69.8" r="6.1" data-color-action="fill" style="fill:inherit" /></g><g id="aFS_blunted_roots" style="">	<g>		<g>							<ellipse transform="matrix(0.1539 -0.9881 0.9881 0.1539 -106.1107 120.5387)" class="aF-cls-14" cx="17.3" cy="122.2" rx="12.7" ry="12.7" data-color-action="stroke" style="stroke:inherit" />			<line class="aF-cls-14" x1="10.3" y1="112.6" x2="24.3" y2="131.8" data-color-action="stroke" style="stroke:inherit" />		</g>		<text transform="matrix(1 0 0 1 6.7033 126.808)" class="aF-cls-15 aF-cls-16">NA</text>	</g></g><g id="aFS_root_amputation" style="">	<g>		<g>							<ellipse transform="matrix(0.1539 -0.9881 0.9881 0.1539 -106.1107 120.5387)" class="aF-cls-14" cx="17.3" cy="122.2" rx="12.7" ry="12.7" data-color-action="stroke" style="stroke:inherit" />			<line class="aF-cls-14" x1="10.3" y1="112.6" x2="24.3" y2="131.8" data-color-action="stroke" style="stroke:inherit" />		</g>		<text transform="matrix(1 0 0 1 6.7033 126.808)" class="aF-cls-15 aF-cls-16">NA</text>	</g></g><g id="aFS_missing_crown" style="">	<g>		<g>							<ellipse transform="matrix(0.1539 -0.9881 0.9881 0.1539 -106.1107 120.5387)" class="aF-cls-14" cx="17.3" cy="122.2" rx="12.7" ry="12.7" data-color-action="stroke" style="stroke:inherit" />			<line class="aF-cls-14" x1="10.3" y1="112.6" x2="24.3" y2="131.8" data-color-action="stroke" style="stroke:inherit" />		</g>		<text transform="matrix(1 0 0 1 6.7033 126.808)" class="aF-cls-15 aF-cls-16">NA</text>	</g></g><g id="aFS_missing_tooth" style="" data-name="missing tooth">	<g>		<g>			<g>				<path class="aF-cls-5" d="M17.8,126.4c0.7-2.3,1.7-4,2.8-5.4c0.2-6.3,1.2-14,2.6-21.8c2.5-14.2,6.3-27,7.7-27.1      c1.7-0.1,3.8,12.9,5.3,27c0.8,7.4,1.4,14.9,1.7,21.3c0.8,0.8,1.5,1.7,2,2.9c2,5,4.7,17.4,4,20.6c-0.7,3.4-9.8,4-14.1,4.4      c-4.2,0.3-13.3-1.3-14.3-3.7C14.1,141.4,16,131.8,17.8,126.4z" data-color-action="fill,stroke" style="fill,stroke:inherit" />				<path class="aF-cls-24" d="M20.6,121.9c0.2-6.4,1.2-14.5,2.6-22.7c2.5-14.2,6.3-27,7.7-27.1c1.7-0.1,3.8,12.9,5.3,27      c0.9,8.3,1.6,16.7,1.7,23.6C37.9,124.8,20.5,124.3,20.6,121.9z" />				<g>					<path class="aF-cls-24" d="M29.7,121.1l4.1,0.5c0,0-0.3-16.3-0.6-27.9c-0.4-17.5-1.8-19.8-2.1-20.1c-0.3-0.4,0.7,1.8,0.4,14.6       C31.3,96.2,29.7,121.1,29.7,121.1z" />				</g>				<g>					<path class="aF-cls-24" d="M24.2,98.6c0.8-6.2,1.9-12.1,2.9-17c-1.3,4.8-2.8,11.1-3.9,17.6c-1.4,8.2-2.4,16.2-2.6,22.7       c0,0.4,0.6,0.8,1.5,1.1C22.2,116.1,23,107.4,24.2,98.6z" />					<path class="aF-cls-24" d="M36.1,99.1c-1.1-10.5-2.5-20.4-3.9-24.7c1,5.3,1.9,14.4,2.7,24c0.7,8.8,1.3,17.7,1.4,25.1       c0.9-0.2,1.4-0.5,1.4-0.9C37.7,115.9,37,107.5,36.1,99.1z" />				</g>			</g>			<g>				<path class="aF-cls-24" d="M15.5,144.6c-1.3-3.2,0.5-12.8,2.3-18.3c2-6,5.1-8.4,10.4-8.5c5.3-0.1,9.8,1,11.6,5.5c2,5,4.7,17.4,4,20.6      c-0.7,3.4-9.8,4-14.1,4.4C25.5,148.7,16.5,147,15.5,144.6z" />				<g>					<path class="aF-cls-24" d="M19.7,126.7c1-4.1,2.4-6.7,4.2-8.1c-2.8,1.1-4.8,3.5-6.1,7.7c-1.8,5.4-3.6,15-2.3,18.3       c0.2,0.5,0.8,1,1.7,1.5C16.9,141,18.4,132.1,19.7,126.7z" />					<path class="aF-cls-24" d="M39.8,123.4c-1-2.4-2.6-3.8-4.7-4.6c1.3,0.9,2.3,2.4,3,4.5c1.6,5.2,3.7,17.5,3.8,22.8       c1.1-0.6,1.9-1.2,2-2.1C44.5,140.8,41.8,128.4,39.8,123.4z" />				</g>				<path class="aF-cls-24" d="M35.7,147.7c-0.2-4.7-0.6-11.9-1.4-19.9c-0.6-6-1.4-8.6-2-9.7c-0.7-0.1-1.4-0.2-2.1-0.2      c0.2,1.3,0.6,4.4,0.8,11.4c0.2,6.6-0.1,14.3-0.3,19C32,148.2,33.8,148,35.7,147.7z" />			</g>		</g>	</g></g><g id="aFS_extracted_tooth" data-name="extracted tooth" style=""><g class="aF-msng-cls-10"><line class="aF-msng-cls-11" x1="9" y1="108.83" x2="50.67" y2="150.49" data-color-action="stroke" style="stroke:inherit" /><line class="aF-msng-cls-11" x1="50.67" y1="108.83" x2="9" y2="150.49" data-color-action="stroke" style="stroke:inherit" /></g></g><g id="aFS_denture" style="">	<g>		<g>							<ellipse transform="matrix(0.1539 -0.9881 0.9881 0.1539 -106.1107 120.5387)" class="aF-cls-14" cx="17.3" cy="122.2" rx="12.7" ry="12.7" data-color-action="stroke" style="stroke:inherit" />			<line class="aF-cls-14" x1="10.3" y1="112.6" x2="24.3" y2="131.8" data-color-action="stroke" style="stroke:inherit" />		</g>		<text transform="matrix(1 0 0 1 6.7033 126.808)" class="aF-cls-15 aF-cls-16">NA</text>	</g></g><g id="aFS_maryland_bridge_pontic" style="">	<g>		<g>							<ellipse transform="matrix(0.1539 -0.9881 0.9881 0.1539 -106.1107 120.5387)" class="aF-cls-14" cx="17.3" cy="122.2" rx="12.7" ry="12.7" data-color-action="stroke" style="stroke:inherit" />			<line class="aF-cls-14" x1="10.3" y1="112.6" x2="24.3" y2="131.8" data-color-action="stroke" style="stroke:inherit" />		</g>		<text transform="matrix(1 0 0 1 6.7033 126.808)" class="aF-cls-15 aF-cls-16">NA</text>	</g></g><g id="aFS_maryland_bridge_abutment_mesial" style="">	<g>		<g>							<ellipse transform="matrix(0.1539 -0.9881 0.9881 0.1539 -106.1107 120.5387)" class="aF-cls-14" cx="17.3" cy="122.2" rx="12.7" ry="12.7" data-color-action="stroke" style="stroke:inherit" />			<line class="aF-cls-14" x1="10.3" y1="112.6" x2="24.3" y2="131.8" data-color-action="stroke" style="stroke:inherit" />		</g>		<text transform="matrix(1 0 0 1 6.7033 126.808)" class="aF-cls-15 aF-cls-16">NA</text>	</g></g><g id="aFS_maryland_bridge_abutment_distal" style="">	<g>		<g>							<ellipse transform="matrix(0.1539 -0.9881 0.9881 0.1539 -106.1107 120.5387)" class="aF-cls-14" cx="17.3" cy="122.2" rx="12.7" ry="12.7" data-color-action="stroke" style="stroke:inherit" />			<line class="aF-cls-14" x1="10.3" y1="112.6" x2="24.3" y2="131.8" data-color-action="stroke" style="stroke:inherit" />		</g>		<text transform="matrix(1 0 0 1 6.7033 126.808)" class="aF-cls-15 aF-cls-16">NA</text>	</g></g><g id="aFS_maryland_bridge_abutment" style="">	<g>		<g>							<ellipse transform="matrix(0.1539 -0.9881 0.9881 0.1539 -106.1107 120.5387)" class="aF-cls-14" cx="17.3" cy="122.2" rx="12.7" ry="12.7" data-color-action="stroke" style="stroke:inherit" />			<line class="aF-cls-14" x1="10.3" y1="112.6" x2="24.3" y2="131.8" data-color-action="stroke" style="stroke:inherit" />		</g>		<text transform="matrix(1 0 0 1 6.7033 126.808)" class="aF-cls-15 aF-cls-16">NA</text>	</g></g><g id="aFS_bridge_abutment_mesial" style="">	<g>		<g>							<ellipse transform="matrix(0.1539 -0.9881 0.9881 0.1539 -106.1107 120.5387)" class="aF-cls-14" cx="17.3" cy="122.2" rx="12.7" ry="12.7" data-color-action="stroke" style="stroke:inherit" />			<line class="aF-cls-14" x1="10.3" y1="112.6" x2="24.3" y2="131.8" data-color-action="stroke" style="stroke:inherit" />		</g>		<text transform="matrix(1 0 0 1 6.7033 126.808)" class="aF-cls-15 aF-cls-16">NA</text>	</g></g><g id="aFS_bridge_abutment_distal" style="">	<g>		<g>							<ellipse transform="matrix(0.1539 -0.9881 0.9881 0.1539 -106.1107 120.5387)" class="aF-cls-14" cx="17.3" cy="122.2" rx="12.7" ry="12.7" data-color-action="stroke" style="stroke:inherit" />			<line class="aF-cls-14" x1="10.3" y1="112.6" x2="24.3" y2="131.8" data-color-action="stroke" style="stroke:inherit" />		</g>		<text transform="matrix(1 0 0 1 6.7033 126.808)" class="aF-cls-15 aF-cls-16">NA</text>	</g></g><g id="aFS_bridge_abutment" style="">	<g>		<g>							<ellipse transform="matrix(0.1539 -0.9881 0.9881 0.1539 -106.1107 120.5387)" class="aF-cls-14" cx="17.3" cy="122.2" rx="12.7" ry="12.7" data-color-action="stroke" style="stroke:inherit" />			<line class="aF-cls-14" x1="10.3" y1="112.6" x2="24.3" y2="131.8" data-color-action="stroke" style="stroke:inherit" />		</g>		<text transform="matrix(1 0 0 1 6.7033 126.808)" class="aF-cls-15 aF-cls-16">NA</text>	</g></g><g id="aFS_bridge_pontic" style="">	<g>		<g>							<ellipse transform="matrix(0.1539 -0.9881 0.9881 0.1539 -106.1107 120.5387)" class="aF-cls-14" cx="17.3" cy="122.2" rx="12.7" ry="12.7" data-color-action="stroke" style="stroke:inherit" />			<line class="aF-cls-14" x1="10.3" y1="112.6" x2="24.3" y2="131.8" data-color-action="stroke" style="stroke:inherit" />		</g>		<text transform="matrix(1 0 0 1 6.7033 126.808)" class="aF-cls-15 aF-cls-16">NA</text>	</g></g><g id="aFS_implant_mini" style="">	<g>		<g>							<ellipse transform="matrix(0.1539 -0.9881 0.9881 0.1539 -106.1107 120.5387)" class="aF-cls-14" cx="17.3" cy="122.2" rx="12.7" ry="12.7" data-color-action="stroke" style="stroke:inherit" />			<line class="aF-cls-14" x1="10.3" y1="112.6" x2="24.3" y2="131.8" data-color-action="stroke" style="stroke:inherit" />		</g>		<text transform="matrix(1 0 0 1 6.7033 126.808)" class="aF-cls-15 aF-cls-16">NA</text>	</g></g><g id="aFS_implant_cylinder" style="">	<g>		<g>							<ellipse transform="matrix(0.1539 -0.9881 0.9881 0.1539 -106.1107 120.5387)" class="aF-cls-14" cx="17.3" cy="122.2" rx="12.7" ry="12.7" data-color-action="stroke" style="stroke:inherit" />			<line class="aF-cls-14" x1="10.3" y1="112.6" x2="24.3" y2="131.8" data-color-action="stroke" style="stroke:inherit" />		</g>		<text transform="matrix(1 0 0 1 6.7033 126.808)" class="aF-cls-15 aF-cls-16">NA</text>	</g></g><g id="aFS_implant_blade" style="">	<g>		<g>							<ellipse transform="matrix(0.1539 -0.9881 0.9881 0.1539 -106.1107 120.5387)" class="aF-cls-14" cx="17.3" cy="122.2" rx="12.7" ry="12.7" data-color-action="stroke" style="stroke:inherit" />			<line class="aF-cls-14" x1="10.3" y1="112.6" x2="24.3" y2="131.8" data-color-action="stroke" style="stroke:inherit" />		</g>		<text transform="matrix(1 0 0 1 6.7033 126.808)" class="aF-cls-15 aF-cls-16">NA</text>	</g></g><g id="aFS_watch_tooth" style="">	<g>		<path class="aF-cls-13" d="M8.3,27.7c0-1.8,1.4-3.3,3.2-3.3c1.8,0,3.3,1.5,3.3,3.3c0,1.7-1.5,3.2-3.3,3.2C9.7,30.9,8.3,29.5,8.3,27.7z     M9.2,21.8L8.4,3.7h6.2l-0.8,18.1H9.2z" data-color-action="fill" style="fill:inherit" />	</g></g><g id="aFS_border" style="">	<rect y="0" transform="matrix(-1 -4.488910e-11 4.488910e-11 -1 59 161)" class="aF-cls-17" width="59" height="161" /></g></defs></g><g class="cF-cls-1" transform="translate(0 217)"><g id="_Fc">	<g>		<path class="cF-cls-2" d="M15.5,14.6c-1.3,3.2,0.5,12.8,2.3,18.3c2,6,5.1,8.4,10.4,8.5c5.3,0.1,9.8-1,11.6-5.5c2-5,4.7-17.4,4-20.6    c-0.7-3.4-9.8-4-14.1-4.4C25.6,10.5,16.5,12.2,15.5,14.6z" />		<g>			<g>				<g>					<path class="cF-cls-3" d="M15.5,14.6c-1.3,3.2,0.5,12.8,2.3,18.3c2,6,5.1,8.4,10.4,8.5c5.3,0.1,9.8-1,11.6-5.5c2-5,4.7-17.4,4-20.6       c-0.7-3.4-9.8-4-14.1-4.4C25.6,10.5,16.5,12.2,15.5,14.6z" />				</g>			</g>		</g>		<path class="cF-cls-4" d="M15.5,14.6c1-2.4,10.1-4.1,14.3-3.7c4.2,0.3,13.3,1,14.1,4.4c0.1,0.2,0.1,0.5,0.1,0.9c-2-0.5-6.3-1.5-9.9-1.9    c-4.9-0.5-7.9-0.4-10.6,0.1c-1.5,0.3-5.4,1.3-8.3,2C15.2,15.6,15.3,15,15.5,14.6z" />		<path class="cF-cls-5" d="M38.3,32.1c0.5,0.3-0.5,3.2-1.1,4.2c-1.2,2-4.6,2.5-6.9,2.7c-2.3,0.2-6.6-0.3-7.4-1.7c-0.8-1.3-3.4-6.3-2.3-6    c1,0.3,2.1,3,3.3,3.7c1.2,0.7,2.2-0.7,3.3-0.3c2.2,0.6,3.4,2.2,7,1.1C35.9,35.3,37.7,31.7,38.3,32.1z" />	</g></g><defs><g id="cFS_lingual_V" style="">	<path class="cF-cls-6" d="M22.2,39.6c1.6,1.1,3.6,1.7,6,1.7c2.9,0.1,5.6-0.3,7.7-1.3c-1.8-1.6-4.3-2.5-7.1-2.5   C26.3,37.5,23.9,38.3,22.2,39.6z" data-color-action="fill" style="fill:inherit" /></g><g id="cFS_mid_lingual" style="">	<ellipse class="cF-cls-6" cx="29.1" cy="27.7" rx="3.4" ry="6.9" data-color-action="fill" style="fill:inherit" /></g><g id="cFS_mesial" style="">	<path class="cF-cls-6" d="M19.5,23.2c0.2-1.3,0.5-3.2,1.3-4.7L15.1,16c-0.3,2.5,0.1,6.4,0.9,10.2C17.7,25.7,19.2,24.8,19.5,23.2z" data-color-action="fill" style="fill:inherit" /></g><g id="cFS_line_angle_4" style="">	<path class="cF-cls-6" d="M23.3,16.6c0.4-0.1,0.9-0.1,1.5-0.2l-1.8-5c-3.5,0.6-6.9,1.8-7.5,3.2c-0.2,0.4-0.3,0.9-0.4,1.4l5.6,2.6   C21.3,17.6,22.1,16.8,23.3,16.6z" data-color-action="fill" style="fill:inherit" /></g><g id="cFS_lingual" style="">	<path class="cF-cls-6" d="M33.8,16.6l1.9-5.1c-2.2-0.3-4.4-0.5-5.9-0.6c-1.7-0.1-4.3,0.1-6.8,0.5l1.8,5C27.2,16.2,30.9,16.2,33.8,16.6z" data-color-action="fill" style="fill:inherit" /></g><g id="cFS_line_angle_3" style="">	<path class="cF-cls-6" d="M36.7,17.2c1.2,0.4,1.8,1,2.2,1.7l5.1-2c0-0.7,0-1.2-0.1-1.6c-0.5-2.1-4.3-3.2-8.1-3.7l-1.9,5.1   C34.9,16.7,35.9,16.9,36.7,17.2z" data-color-action="fill" style="fill:inherit" /></g><g id="cFS_distal" style="">	<path class="cF-cls-6" d="M38.9,18.8c0.7,1.4,0.4,3.3,0.9,5.2c0.3,1.2,1.5,1.8,2.8,2.2c0.8-3.6,1.4-7.1,1.4-9.4L38.9,18.8z" data-color-action="fill" style="fill:inherit" /></g><g id="cFS_tipped_lingual" style="">	<g>		<path class="cF-cls-7" d="M27.3,7.1c1.2-3.2,4.5-3.6,7.2,5c0.5,1.5,4.2,1.7,3.6,0c-1.9-5.7-5-9.6-8.5-8.7c-1.2,0.3-2.3,1.6-2.8,3.2    C27,6.7,27.2,6.9,27.3,7.1z" data-color-action="fill" style="fill:inherit" />		<polygon class="cF-cls-7" points="29.3,9.8 41.4,9.8 38.6,18.9   " data-color-action="fill" style="fill:inherit" />	</g></g><g id="cFS_tipped_facial" style=""></g><g id="cFS_surface_restoration_mesial" style="">	<path class="cF-cls-8" d="M15.5,14.6c-1.1,2.7,0,9.8,1.4,15.2c3.4,0.9,6.1,3.2,7.5,6.3c-1.2-7.4-2.3-15.7-2.4-17.4l-6.5-4.3   C15.6,14.5,15.5,14.6,15.5,14.6z" data-color-action="fill" style="fill:inherit" /></g><g id="cFS_surface_restoration_lingual" style="">	<g>		<path class="cF-cls-8" d="M34,38.2c0.2-1.3,0.6-2.6,1.2-3.7c0.9-6.2,1.7-13.1,1.7-15.8c-1.6-0.3-4.1-0.6-7.3-0.9l-0.2,0    c-0.2,0-0.4,0-0.6,0c-2.1,0-4.8,0.5-6.6,0.9c0.1,1.7,1.2,10,2.4,17.4c0.3,0.7,0.6,1.5,0.8,2.3c1.5-0.5,3-0.8,4.7-0.8    C31.3,37.6,32.7,37.8,34,38.2z" data-color-action="fill" style="fill:inherit" />			</g></g><g id="cFS_surface_restoration_lingual_V" style="">	<g>				<path class="cF-cls-8" d="M25.4,41.1c0.8,0.2,1.8,0.3,2.8,0.3c2,0,4-0.1,5.7-0.6c0-0.3,0-0.6,0-0.9c0-0.6,0.1-1.1,0.1-1.7    c-1.3-0.4-2.7-0.6-4.1-0.6c-1.7,0-3.2,0.3-4.7,0.8c0.2,0.8,0.3,1.6,0.3,2.5C25.5,41,25.4,41,25.4,41.1z" data-color-action="fill" style="fill:inherit" />	</g></g><g id="cFS_surface_restoration_distal" style="">	<path class="cF-cls-8" d="M35.1,34.6c1.4-2.7,3.8-4.7,6.8-5.6c1.3-5.4,2.4-11.6,1.9-13.7c-0.1-0.3-0.2-0.5-0.3-0.7l-6.7,4.3   C36.8,21.5,36.1,28.4,35.1,34.6z" data-color-action="fill" style="fill:inherit" /></g><g id="cFS_surface_restoration_incisal" style="">	<path class="cF-cls-8" d="M29.8,10.9c-4.2-0.3-12.9,1.3-14.2,3.6l6.5,4.3c0,0,0,0,0,0c1.8-0.5,4.4-0.9,6.6-0.9c0.2,0,0.5,0,0.6,0l0.2,0   c3.3,0.3,5.7,0.6,7.3,0.9l0,0l6.7-4.3C41.7,11.8,33.7,11.2,29.8,10.9z" data-color-action="fill" style="fill:inherit" /></g><g id="cFS_sub-erupted" style=""></g><g id="cFS_rotated_mesial" style=""></g><g id="cFS_rotate_distal" style=""></g><g id="cFS_root_canal" style=""></g><g id="cFS_pins" style=""></g><g id="cFS_mesial_drift" style=""></g><g id="cFS_distal_drift" style=""></g><g id="cFS_crown" style="">	<path class="cF-cls-10" d="M15.5,14.6c-1.3,3.2,0.5,12.8,2.3,18.3c2,6,5.1,8.4,10.4,8.5c5.3,0.1,9.8-1,11.6-5.5c2-5,4.7-17.4,4-20.6   c-0.7-3.4-9.8-4-14.1-4.4C25.5,10.5,16.5,12.2,15.5,14.6z" data-color-action="fill" style="fill:inherit" /></g><g id="cFS_cracked_surface_mesial" style="">	<polyline class="cF-cls-11" points="17.1,17.6 20.9,21.4 15.9,21.4 20.9,26.1 15.9,26.1 19.7,30  " data-color-action="stroke" style="stroke:inherit" /></g><g id="cFS_cracked_surface_lingual" style="">	<polyline class="cF-cls-11" points="28.6,17.6 32.4,21.4 27.4,21.4 32.4,26.1 27.4,26.1 31.3,30  " data-color-action="stroke" style="stroke:inherit" /></g><g id="cFS_cracked_surface_lingual_V" style="">	<polyline class="cF-cls-11" points="28.6,17.6 32.4,21.4 27.4,21.4 32.4,26.1 27.4,26.1 31.3,30  " data-color-action="stroke" style="stroke:inherit" /></g><g id="cFS_cracked_surface_distal" style="">	<polyline class="cF-cls-11" points="40.2,17.6 44.1,21.4 39,21.4 44.1,26.1 39,26.1 42.9,30  " data-color-action="stroke" style="stroke:inherit" /></g><g id="cFS_chipped_surface_mesial" style="">	<g>		<line class="cF-cls-11" x1="23.2" y1="19.2" x2="14.9" y2="27.6" data-color-action="stroke" style="stroke:inherit" />		<line class="cF-cls-11" x1="14.9" y1="19.2" x2="23.2" y2="27.6" data-color-action="stroke" style="stroke:inherit" />	</g></g><g id="cFS_chipped_surface_lingual" style="">	<g>		<line class="cF-cls-11" x1="33.8" y1="19.2" x2="25.4" y2="27.6" data-color-action="stroke" style="stroke:inherit" />		<line class="cF-cls-11" x1="25.4" y1="19.2" x2="33.8" y2="27.6" data-color-action="stroke" style="stroke:inherit" />	</g></g><g id="cFS_chipped_surface_lingual_V" style="">	<g>		<line class="cF-cls-11" x1="33.8" y1="19.2" x2="25.4" y2="27.6" data-color-action="stroke" style="stroke:inherit" />		<line class="cF-cls-11" x1="25.4" y1="19.2" x2="33.8" y2="27.6" data-color-action="stroke" style="stroke:inherit" />	</g></g><g id="cFS_chipped_surface_distal" style="">	<g>		<line class="cF-cls-11" x1="44.6" y1="19.2" x2="36.2" y2="27.6" data-color-action="stroke" style="stroke:inherit" />		<line class="cF-cls-11" x1="36.2" y1="19.2" x2="44.6" y2="27.6" data-color-action="stroke" style="stroke:inherit" />	</g></g><g id="cFS_abscess" style=""></g><g id="cFS_missing_tooth" style="" data-name="missing tooth">	<g>		<path class="cF-cls-2" d="M15.5,14.6c-1.3,3.2,0.5,12.8,2.3,18.3c2,6,5.1,8.4,10.4,8.5c5.3,0.1,9.8-1,11.6-5.5c2-5,4.7-17.4,4-20.6    c-0.7-3.4-9.8-4-14.1-4.4C25.6,10.5,16.5,12.2,15.5,14.6z" data-color-action="fill,stroke" style="fill,stroke:inherit" />		<g>			<g>				<g>					<path class="cF-cls-9" d="M15.5,14.6c-1.3,3.2,0.5,12.8,2.3,18.3c2,6,5.1,8.4,10.4,8.5c5.3,0.1,9.8-1,11.6-5.5c2-5,4.7-17.4,4-20.6       c-0.7-3.4-9.8-4-14.1-4.4C25.6,10.5,16.5,12.2,15.5,14.6z" />				</g>			</g>		</g>		<path class="cF-cls-9" d="M15.5,14.6c1-2.4,10.1-4.1,14.3-3.7c4.2,0.3,13.3,1,14.1,4.4c0.1,0.2,0.1,0.5,0.1,0.9c-2-0.5-6.3-1.5-9.9-1.9    c-4.9-0.5-7.9-0.4-10.6,0.1c-1.5,0.3-5.4,1.3-8.3,2C15.2,15.6,15.3,15,15.5,14.6z" />		<path class="cF-cls-9" d="M38.3,32.1c0.5,0.3-0.5,3.2-1.1,4.2c-1.2,2-4.6,2.5-6.9,2.7c-2.3,0.2-6.6-0.3-7.4-1.7c-0.8-1.3-3.4-6.3-2.3-6    c1,0.3,2.1,3,3.3,3.7c1.2,0.7,2.2-0.7,3.3-0.3c2.2,0.6,3.4,2.2,7,1.1C35.9,35.3,37.7,31.7,38.3,32.1z" />	</g></g><g id="cFS_watch_tooth" style=""></g><g id="cFS_border" style="">	<rect x="0" transform="matrix(-1 -4.488910e-11 4.488910e-11 -1 59 66)" class="cF-cls-12" width="59" height="66" /></g></defs></g></svg>