<svg version="1.1" xmlns="http://www.w3.org/2000/svg" xmlns:xlink="http://www.w3.org/1999/xlink" x="0px" y="0px" viewBox="0 0 59 283" style="enable-background:new 0 0 59 161;" xml:space="preserve"><defs><style type="text/css">.aL-cls-2{fill:#929497;stroke:none;}.aL-cls-3{font-family:'ProximaNova-Semibold',sans-serif;}.aL-cls-4{font-size:15px;}.aL-cls-5{fill:#C4C6C7;stroke:#C4C6C7;stroke-width:5;stroke-miterlimit:10;}.aL-cls-6{fill:#F5D7CF;stroke:none;}.aL-cls-7{fill:#F2C6BC;stroke:none;}.aL-cls-8{fill:#FAE8E3;stroke:none;}.aL-cls-9{fill:#EEEFEF;stroke:none;}.aL-cls-10{fill:#E2E3E4;stroke:none;}.aL-cls-11{fill:#FBFBFB;stroke:none;}.aL-cls-12{opacity:0.55;fill:#3C3D3D;stroke:none;}.aL-cls-13{fill:#FFD403;stroke:none;}.aL-cls-14{fill:none;stroke:#C52636;stroke-width:3.622;stroke-miterlimit:10;}.aL-cls-15{font-family:'ProximaNova-Bold',sans-serif;}.aL-cls-16{font-size:13.6587px;}.aL-cls-17{fill:none;stroke:none;}.aL-cls-18{fill:#28418B;stroke:none;}.aL-cls-19{fill:#787878;stroke:none;}.aL-cls-20{fill:none;stroke:#C52636;stroke-width:2;stroke-miterlimit:10;}.aL-cls-21{fill:#C52636;stroke:none;}.aL-cls-22{fill:none;stroke:#C52636;stroke-width:2;stroke-linecap:round;stroke-miterlimit:10;}.aL-cls-23{fill:#C5C7C9;stroke:none;}.aL-cls-24{fill:#FFF;stroke:none;}.aL-cls-25{fill:none;stroke:#28418B;stroke-width:2;stroke-miterlimit:10;}.aL-cls-26{fill:#FFEF3E;stroke:none;}.aL-cls-27{fill:none;stroke:#C52636;stroke-width:1.25;stroke-miterlimit:10;}.aL-cls-28{fill:#9B9999;stroke:none;}.aL-cls-29{fill:#DBDBDC;stroke:none;}.aL-cls-30{fill:#3C3D3D;stroke:none;}.bL-cls-2{fill:#C4C6C7;stroke:#C4C6C7;stroke-width:5;stroke-miterlimit:10;}.bL-cls-3{fill:#EEEFEF;stroke:none;}.bL-cls-4{fill:#FCFCFC;stroke:none;}.bL-cls-5{fill:#E2E3E4;stroke:none;}.bL-cls-6{opacity:0.55;fill:#3C3D3D;stroke:none;}.bL-cls-7{fill:#787878;stroke:none;}.bL-cls-8{fill:none;stroke:none;}.bL-cls-9{fill:#28418B;stroke:none;}.bL-cls-10{font-family:'ProximaNova-Semibold',sans-serif;}.bL-cls-11{font-size:33px;}.bL-cls-12{fill:#FFF;stroke:none;}.bL-cls-13{fill:#FFEF3E;stroke:none;}.bL-cls-14{fill:none;stroke:#C52636;stroke-width:1.25;stroke-miterlimit:10;}.cL-cls-2{fill:#C4C6C7;stroke:#C4C6C7;stroke-width:5;stroke-miterlimit:10;}.cL-cls-3{fill:#EEEFEF;stroke:none;}.cL-cls-4{fill:#E2E3E4;stroke:none;}.cL-cls-5{fill:#FBFBFB;stroke:none;}.cL-cls-6{opacity:0.55;fill:#3C3D3D;stroke:none;}.cL-cls-7{fill:#28418B;stroke:none;}.cL-cls-8{fill:#787878;stroke:none;}.cL-cls-9{fill:#FFF;stroke:none;}.cL-cls-10{fill:#FFEF3E;stroke:none;}.cL-cls-11{fill:none;stroke:#C52636;stroke-width:1.25;stroke-miterlimit:10;}.cL-cls-12{fill:none;stroke:none;}.aL-msng-cls-1{isolation:isolate;}.aL-msng-cls-2{font-size:15px;fill:#929497;font-family:ProximaNova-Semibold,Proxima Nova;font-weight:700;stroke:none;}.aL-msng-cls-3{fill:#C4C6C7;stroke:#C4C6C7;stroke-width:5px;}.aL-msng-cls-11,.aL-msng-cls-3{stroke-miterlimit:10;}.aL-msng-cls-4{fill:#F5D7CF;stroke:none;}.aL-msng-cls-5{fill:#F2C6BC;stroke:none;}.aL-msng-cls-6{fill:#FAE8E3;stroke:none;}.aL-msng-cls-7{fill:#EEEFEF;stroke:none;}.aL-msng-cls-8{fill:#E2E3E4;stroke:none;}.aL-msng-cls-9{fill:#FBFBFB;stroke:none;}.aL-msng-cls-10{}.aL-msng-cls-11,.aL-msng-cls-12{fill:none;stroke:none;}.aL-msng-cls-11{stroke:#787878;stroke-width:6.25px;}</style></defs><title>ToothL_Layered</title><g class="aL-cls-1" transform="translate(0 122)"><g id="_La">	<text transform="matrix(1 0 0 1 25.6223 150.7422)" class="aL-cls-2 aL-cls-3 aL-cls-4">L</text>	<g>		<path class="aL-cls-5" d="M12.5,40.7c0.6-2.6,1.1-3.9,1.1-5.3c0,0,0,0,0,0c-1.6-2.6-2.7-9.7-2.9-12.1c-0.2-2.3,0.8-8.1,3.4-9.2    c2.9-1.2,11.4-1,13.1,0.1c1.7,1,2.5,0.9,3.2,0.4c0.9-0.7,6.5-1.8,11.2-1c4.7,0.8,5.5,5.3,5.4,9.2c-0.1,3.9-1.4,11.6-2.3,13.2    c0,0-0.1,0.1-0.1,0.1c-0.1,1.3,0.1,2.7,0.7,5c2.9,11.3,5,17.9,2.9,23.4c-1.7,4.5-7.4,11.5-9,11.1s2.1-7.3,1.7-15.1    c-0.3-5.2-5.9-14-13.3-13.4c-5.2,0.4-10,10-8.1,20.1c1.2,6.6,3,11,1.6,11.6c-1.4,0.6-7.9-6.2-10.2-14.9    C8.7,56.4,11.3,45.6,12.5,40.7z" />		<path class="aL-cls-6" d="M12.4,30.7c2,4.9,1.2,5.1,0.1,10c-1.1,4.9-3.7,15.7-1.7,23.4c2.4,8.7,8.8,15.5,10.2,14.9    c1.4-0.6-0.4-5-1.6-11.6c-1.8-10.1,2.9-19.7,8.1-20.1c7.4-0.6,13,8.2,13.3,13.4c0.4,7.8-3.4,14.7-1.7,15.1c1.6,0.4,7.3-6.6,9-11.1    c2-5.5,0-12.1-2.9-23.4c-1-4-0.8-5.3-0.1-8.1C45.7,30.7,10.3,25.7,12.4,30.7z" />		<path class="aL-cls-7" d="M12.7,48.8c1.1-6.5,2.3-9,2.7-10.9c0.4-1.9,0-6.2,0-6.2h-2.6c1.5,3.9,0.7,4.4-0.3,8.9    c-1.1,4.9-3.7,15.7-1.7,23.4c1.2,4.5,3.5,8.4,5.7,11.2c-1.8-3.4-4.2-8.9-4.7-11.8C11.2,60,11.5,56.2,12.7,48.8z" />		<path class="aL-cls-7" d="M37.5,48.2c-3.6-3.9-8.6-3.9-10.4-3.6s-6.5,3-8,8c-1.8,6.2-1.4,10.4-0.5,14.2c0.5,2.1,1.3,4.2,2.1,6.1    c-0.4-1.6-0.8-3.5-1.2-5.7c-1.8-10.1,2.9-19.7,8.1-20.1c7.4-0.6,13,8.2,13.3,13.4c0.2,3.8-0.6,7.3-1.3,10c1.1-3,2.4-7.3,2.5-10.3    C42.2,55.8,40.1,51,37.5,48.2z" />		<path class="aL-cls-7" d="M45.2,41.1c-1-4-0.8-5.3-0.1-8.1c0.1-0.4-0.8-0.8-2.3-1.3l-0.6,0.2c0,0,0.1,4.6,0.4,5.9c0.3,1.3,1.6,5.6,3,10    s3.3,10.6,2.4,15.4c-0.4,1.9-0.6,2.6-1.1,4.1c0.5-0.9,1-1.9,1.3-2.7C50.2,59,48.1,52.4,45.2,41.1z" />		<path class="aL-cls-8" d="M39.9,35.5c-0.3,1.2-0.1,2.3,0.1,3.2c0.2,0.8,1.5,4.3,4,10.5c2.5,6.2,2.4,11.8,1.9,15.1    c-0.4,2.2-3.5,8.6-3.8,8.1s2.8-5.5,3.1-10.9c0.4-6.7-5.4-17.5-6.6-19.8c-1.2-2.3-1.9-4.7-1.8-6C36.9,34.4,40.4,33.8,39.9,35.5z" />		<path class="aL-cls-9" d="M13.6,35.4c-1.6-2.6-2.7-9.7-2.9-12.1c-0.2-2.3,0.8-8.1,3.4-9.2c2.9-1.2,11.4-1,13.1,0.1s2.5,0.9,3.2,0.4    c0.9-0.7,6.5-1.8,11.2-1c4.7,0.8,5.5,5.3,5.4,9.2c-0.1,3.9-1.4,11.6-2.3,13.2C43.7,37.7,15.5,38.5,13.6,35.4z" />		<g>			<path class="aL-cls-10" d="M13.6,23.4c-0.2-2.3,0.6-8,2.4-9.8c-0.7,0.1-1.4,0.3-1.9,0.5c-2.6,1.1-3.6,6.9-3.4,9.2     c0.2,2.4,1.3,9.5,2.9,12.1c0.3,0.4,1.1,0.8,2.3,1.1C14.6,33.6,13.7,26,13.6,23.4z" />			<path class="aL-cls-10" d="M41.6,13.6c-0.1,0-0.1,0-0.2,0c2.3,1.8,2.8,5.8,2.7,9.2c-0.1,3.9-1,11.3-1.8,13.9c1.3-0.2,2.1-0.4,2.3-0.7     c1-1.6,2.2-9.3,2.3-13.2C47.1,18.9,46.2,14.4,41.6,13.6z" />		</g>		<path class="aL-cls-11" d="M25.2,17.5c-1.2,0.6-0.1,5.6,0.5,5.5C26.4,22.9,26.6,16.8,25.2,17.5z" />		<path class="aL-cls-8" d="M20,76.1c-0.5,0.3-4.1-4.9-5-11.4c-1.2-8.8,2.1-18.1,2.7-17.9c0.5,0.2-1,2.7-1.6,8.5    c-0.5,4.8,0.5,10.6,1.2,13.1C18,70.8,20.8,75.6,20,76.1z" />		<path class="aL-cls-11" d="M39.5,34.9c0.1-1.8,1-6.1,1-11.4c0-3.4-1-8.5-1.6-10.2c-1.2,0-2.3,0-3.4,0.1c0.7,1.6,2.1,7.2,1.8,11.6    c-0.2,3.3-1.2,9.7-1,12.2c1.1-0.1,2.2-0.1,3.2-0.2C39.2,36.4,39.4,36.3,39.5,34.9z" />	</g></g><defs><g id="aL_bone_graft" style="">	<g>		<g>							<ellipse transform="matrix(0.1539 -0.9881 0.9881 0.1539 -23.6537 49.9275)" class="aL-cls-14" cx="17.3" cy="38.8" rx="12.7" ry="12.7" data-color-action="stroke" style="stroke:inherit" />			<line class="aL-cls-14" x1="10.3" y1="29.2" x2="24.3" y2="48.4" data-color-action="stroke" style="stroke:inherit" />		</g>		<text transform="matrix(1 0 0 1 6.7031 43.357)" class="aL-cls-15 aL-cls-16">NA</text>	</g></g><g id="aL_splinted_crowns" style="">	<g>		<g>							<ellipse transform="matrix(0.1539 -0.9881 0.9881 0.1539 -23.6537 49.9275)" class="aL-cls-14" cx="17.3" cy="38.8" rx="12.7" ry="12.7" data-color-action="stroke" style="stroke:inherit" />			<line class="aL-cls-14" x1="10.3" y1="29.2" x2="24.3" y2="48.4" data-color-action="stroke" style="stroke:inherit" />		</g>		<text transform="matrix(1 0 0 1 6.7031 43.357)" class="aL-cls-15 aL-cls-16">NA</text>	</g></g><g id="aL_buccal_V" style="">	<path class="aL-cls-12" d="M38.8,37.1C33,37.6,24.2,37.7,18.7,37c3.1-1.3,6.5-2,10-2C32.2,35,35.6,35.8,38.8,37.1z" data-color-action="fill" style="fill:inherit" /></g><g id="aL_buccal_pit" style="">	<ellipse class="aL-cls-12" cx="28.8" cy="27.5" rx="3.4" ry="5.6" data-color-action="fill" style="fill:inherit" /></g><g id="aL_mesial" style="">	<path class="aL-cls-12" d="M12,16.5l2.8,4.3c-0.2,0.8-0.3,1.7-0.4,2.5c-0.3,2.1-1.6,3.3-3.1,4.1c-0.3-1.7-0.5-3.1-0.6-4   C10.6,21.8,11,18.7,12,16.5z" data-color-action="fill" style="fill:inherit" /></g><g id="aL_line_angle_2" style="">	<path class="aL-cls-12" d="M14.1,14.1c1.6-0.7,4.7-0.9,7.6-0.8l1,4.6c-0.8-0.3-1.7-0.6-3-0.6c-3.2-0.1-4.4,1.6-4.9,3.5L12,16.5   C12.6,15.4,13.3,14.5,14.1,14.1z" data-color-action="fill" style="fill:inherit" /></g><g id="aL_groove_1" style="">	<path class="aL-cls-12" d="M27.2,14.2c1.7,1,2.5,0.9,3.2,0.4c0.5-0.4,2.3-0.9,4.7-1.1l-1.2,4.9c-2.1,0.8-3.7,2.1-5.9,2   c-2.4-0.1-3.2-1.6-5.2-2.4l-1-4.6C24.2,13.4,26.4,13.7,27.2,14.2z" data-color-action="fill" style="fill:inherit" /></g><g id="aL_line_angle_1" style="">	<path class="aL-cls-12" d="M41.6,13.6c2,0.3,3.2,1.3,4.1,2.7l-3.3,4.6c-1-1.9-2.3-3.2-4.3-3.2c-1.6-0.1-3,0.3-4.1,0.8l1.2-4.9   C37,13.3,39.4,13.2,41.6,13.6z" data-color-action="fill" style="fill:inherit" /></g><g id="aL_distal" style="">	<path class="aL-cls-12" d="M43.9,25.3c-0.5-1.7-1-3.2-1.6-4.4l3.3-4.6c1.2,1.8,1.4,4.3,1.4,6.6c0,1.4-0.2,3.2-0.5,5.2   C45.3,27.5,44.3,26.6,43.9,25.3z" data-color-action="fill" style="fill:inherit" /></g><g id="aL_veneer" style="">	<g>		<g>							<ellipse transform="matrix(0.1539 -0.9881 0.9881 0.1539 -23.6537 49.9275)" class="aL-cls-14" cx="17.3" cy="38.8" rx="12.7" ry="12.7" data-color-action="stroke" style="stroke:inherit" />			<line class="aL-cls-14" x1="10.3" y1="29.2" x2="24.3" y2="48.4" data-color-action="stroke" style="stroke:inherit" />		</g>		<text transform="matrix(1 0 0 1 6.7031 43.357)" class="aL-cls-15 aL-cls-16">NA</text>	</g></g><g id="aL_tissue_graft" style="">	<g>		<g>							<ellipse transform="matrix(0.1539 -0.9881 0.9881 0.1539 -23.6537 49.9275)" class="aL-cls-14" cx="17.3" cy="38.8" rx="12.7" ry="12.7" data-color-action="stroke" style="stroke:inherit" />			<line class="aL-cls-14" x1="10.3" y1="29.2" x2="24.3" y2="48.4" data-color-action="stroke" style="stroke:inherit" />		</g>		<text transform="matrix(1 0 0 1 6.7031 43.357)" class="aL-cls-15 aL-cls-16">NA</text>	</g></g><g id="aL_tipped_lingual" style="">	<rect x="28" y="154.8" transform="matrix(-1 -4.486867e-11 4.486867e-11 -1 59 312.5)" class="aL-cls-17" width="3" height="3" /></g><g id="aL_tipped_facial" style="">	<g>		<path class="aL-cls-18" d="M33.9,9.9c-1.2-3.2-4.5-3.6-7.2,5c-0.5,1.5-4.2,1.7-3.6,0c1.9-5.7,5-9.6,8.5-8.7c1.2,0.3,2.3,1.6,2.8,3.2    C34.2,9.6,34,9.8,33.9,9.9z" data-color-action="fill" style="fill:inherit" />		<polygon class="aL-cls-18" points="32,12.7 19.8,12.7 22.6,21.8   " data-color-action="fill" style="fill:inherit" />	</g></g><g id="aL_surface_restoration_mesial" style="">	<path class="aL-cls-19" d="M13.8,14.4l4.5,6.1c-0.1,0-0.2,0-0.3,0c-0.2,0.8-0.4,1.8-0.3,2.3c0.1,1.2,0.2,6.3,0.3,10.6   c-1.3-2.9-3.8-5.2-6.8-6.3c-0.3-1.6-0.4-3-0.5-3.8C10.6,21.2,11.5,15.9,13.8,14.4z" data-color-action="fill" style="fill:inherit" /></g><g id="aL_surface_restoration_buccal" style="">	<g>		<path class="aL-cls-19" d="M18.7,35.2c-0.2-0.6-0.4-1.2-0.6-1.8c-0.2-4.4-0.2-9.4-0.3-10.6c0-0.5,0.1-1.5,0.3-2.3    c0.6-0.1,1.5-0.1,2.5-0.1c1.8,0,3.1,0.1,3.7,0.3c1.3,0.7,3,1.4,5.1,1.4c1.6,0,3-0.4,4.4-1.2c0.7-0.2,2.3-0.5,4.2-0.5    c0.7,0,1.3,0,1.9,0.1c0.1,0.4,0.2,1.1,0.1,2.2c0,1.4-0.6,7.7-1.1,12.2c0,0,0,0,0,0.1c-3-1.5-6.3-2.4-9.9-2.4    C25.3,32.6,21.8,33.5,18.7,35.2z" data-color-action="fill" style="fill:inherit" />			</g></g><g id="aL_surface_restoration_buccal_V" style="">	<g>				<path class="aL-cls-19" d="M19,37.1c-0.1-0.6-0.2-1.3-0.3-1.9c3.1-1.7,6.6-2.6,10.4-2.6c3.6,0,6.9,0.9,9.9,2.4    c-0.3,0.7-0.6,1.5-0.8,2.3C32.5,37.7,24.4,37.7,19,37.1z" data-color-action="fill" style="fill:inherit" />	</g></g><g id="aL_surface_restoration_distal" style="">	<path class="aL-cls-19" d="M47,22.9c0,1.5-0.3,3.6-0.6,5.7c-3.3,0.9-6.1,3.2-7.5,6.3c0.5-4.5,1-10.8,1.1-12.2c0-1,0-1.6-0.1-2l5-5.4   C46.7,17.2,47.1,20.2,47,22.9z" data-color-action="fill" style="fill:inherit" /></g><g id="aL_surface_restoration_occlusal" style="">	<path class="aL-cls-19" d="M14.2,14.2c2.9-1.2,11.4-1,13.1,0.1c1.7,1,2.5,0.9,3.2,0.4c0.9-0.7,6.5-1.8,11.2-1c1.4,0.2,2.5,0.8,3.3,1.6   l-5,5.4c0-0.1,0-0.1,0-0.2c-0.6-0.1-1.2-0.1-1.9-0.1c-1.9,0-3.5,0.3-4.2,0.5c-1.3,0.8-2.8,1.2-4.4,1.2c-2.1,0-3.8-0.7-5.1-1.4   c-0.6-0.1-1.9-0.3-3.7-0.3c-0.9,0-1.7,0-2.2,0.1l-4.5-6.1C14,14.3,14.1,14.3,14.2,14.2z" data-color-action="fill" style="fill:inherit" /></g><g id="aL_supra-erupted" style="">	<g>		<g>							<ellipse transform="matrix(0.1539 -0.9881 0.9881 0.1539 -23.6537 49.9275)" class="aL-cls-14" cx="17.3" cy="38.8" rx="12.7" ry="12.7" data-color-action="stroke" style="stroke:inherit" />			<line class="aL-cls-14" x1="10.3" y1="29.2" x2="24.3" y2="48.4" data-color-action="stroke" style="stroke:inherit" />		</g>		<text transform="matrix(1 0 0 1 6.7031 43.357)" class="aL-cls-15 aL-cls-16">NA</text>	</g></g><g id="aL_sub-erupted" style="">	<g>		<g>			<line class="aL-cls-20" x1="29.5" y1="45.8" x2="29.5" y2="39" data-color-action="stroke" style="stroke:inherit" />			<g>				<polygon class="aL-cls-21" points="33.5,44.7 29.5,51.6 25.5,44.7     " data-color-action="fill" style="fill:inherit" />			</g>		</g>	</g></g><g id="aL_rotated_mesial" style="">	<g>		<path class="aL-cls-18" d="M51.6,30.9c2.8-1.7,2.2-5.1-9.6-5.5c-5-0.1-8.4,0-8.4,0l0.1-2.8c0,0,0.9-0.1,7.7,0.2    c7.2,0.3,13.2,1.7,12.9,5.6c-0.1,1-1,2.1-2.2,2.7C51.9,31.1,51.7,31,51.6,30.9z" data-color-action="fill" style="fill:inherit" />		<polygon class="aL-cls-18" points="39.6,29.7 39.6,18.5 29.9,24.1   " data-color-action="fill" style="fill:inherit" />	</g></g><g id="aL_rotated_distal" style="">	<g>		<path class="aL-cls-18" d="M7.2,30.9c-2.8-1.7-2.2-5.1,9.6-5.5c5-0.1,8.4,0,8.4,0l-0.1-2.8c0,0-0.9-0.1-7.7,0.2    c-7.2,0.3-13.2,1.7-12.9,5.6c0.1,1,1,2.1,2.2,2.7C6.8,31.1,7,31,7.2,30.9z" data-color-action="fill" style="fill:inherit" />		<polygon class="aL-cls-18" points="19.1,29.7 19.1,18.5 28.9,24.1   " data-color-action="fill" style="fill:inherit" />	</g></g><g id="aL_root_tips" style="">	<g>		<g>							<ellipse transform="matrix(0.1539 -0.9881 0.9881 0.1539 -23.6537 49.9275)" class="aL-cls-14" cx="17.3" cy="38.8" rx="12.7" ry="12.7" data-color-action="stroke" style="stroke:inherit" />			<line class="aL-cls-14" x1="10.3" y1="29.2" x2="24.3" y2="48.4" data-color-action="stroke" style="stroke:inherit" />		</g>		<text transform="matrix(1 0 0 1 6.7031 43.357)" class="aL-cls-15 aL-cls-16">NA</text>	</g></g><g id="aL_root_decay" style="">	<g>		<g>							<ellipse transform="matrix(0.1539 -0.9881 0.9881 0.1539 -23.6537 49.9275)" class="aL-cls-14" cx="17.3" cy="38.8" rx="12.7" ry="12.7" data-color-action="stroke" style="stroke:inherit" />			<line class="aL-cls-14" x1="10.3" y1="29.2" x2="24.3" y2="48.4" data-color-action="stroke" style="stroke:inherit" />		</g>		<text transform="matrix(1 0 0 1 6.7031 43.357)" class="aL-cls-15 aL-cls-16">NA</text>	</g><g id="root_decay_2">	<g>		<g>							<ellipse transform="matrix(0.1539 -0.9881 0.9881 0.1539 -23.6537 49.9275)" class="aL-cls-14" cx="17.3" cy="38.8" rx="12.7" ry="12.7" data-color-action="stroke" style="stroke:inherit" />			<line class="aL-cls-14" x1="10.3" y1="29.2" x2="24.3" y2="48.4" data-color-action="stroke" style="stroke:inherit" />		</g>		<text transform="matrix(1 0 0 1 6.7031 43.357)" class="aL-cls-15 aL-cls-16">NA</text>	</g></g><g id="root_decay_1">	<g>		<g>							<ellipse transform="matrix(0.1539 -0.9881 0.9881 0.1539 -23.6537 49.9275)" class="aL-cls-14" cx="17.3" cy="38.8" rx="12.7" ry="12.7" data-color-action="stroke" style="stroke:inherit" />			<line class="aL-cls-14" x1="10.3" y1="29.2" x2="24.3" y2="48.4" data-color-action="stroke" style="stroke:inherit" />		</g>		<text transform="matrix(1 0 0 1 6.7031 43.357)" class="aL-cls-15 aL-cls-16">NA</text>	</g></g></g><g id="aL_root_canal" style="">	<line class="aL-cls-22" x1="15.5" y1="67.3" x2="17.9" y2="38.9" data-color-action="stroke" style="stroke:inherit" /><g id="root_canal_2">	<line class="aL-cls-22" x1="15.5" y1="67.3" x2="17.9" y2="38.9" data-color-action="stroke" style="stroke:inherit" /></g><g id="root_canal_1">	<line class="aL-cls-22" x1="44.8" y1="67.8" x2="39.8" y2="39.2" data-color-action="stroke" style="stroke:inherit" /></g></g><g id="aL_root_abrasion" style="">	<g>		<g>							<ellipse transform="matrix(0.1539 -0.9881 0.9881 0.1539 -23.6537 49.9275)" class="aL-cls-14" cx="17.3" cy="38.8" rx="12.7" ry="12.7" data-color-action="stroke" style="stroke:inherit" />			<line class="aL-cls-14" x1="10.3" y1="29.2" x2="24.3" y2="48.4" data-color-action="stroke" style="stroke:inherit" />		</g>		<text transform="matrix(1 0 0 1 6.7031 43.357)" class="aL-cls-15 aL-cls-16">NA</text>	</g><g id="root_abrasion_2">	<g>		<g>							<ellipse transform="matrix(0.1539 -0.9881 0.9881 0.1539 -23.6537 49.9275)" class="aL-cls-14" cx="17.3" cy="38.8" rx="12.7" ry="12.7" data-color-action="stroke" style="stroke:inherit" />			<line class="aL-cls-14" x1="10.3" y1="29.2" x2="24.3" y2="48.4" data-color-action="stroke" style="stroke:inherit" />		</g>		<text transform="matrix(1 0 0 1 6.7031 43.357)" class="aL-cls-15 aL-cls-16">NA</text>	</g></g><g id="root_abrasion_1">	<g>		<g>							<ellipse transform="matrix(0.1539 -0.9881 0.9881 0.1539 -23.6537 49.9275)" class="aL-cls-14" cx="17.3" cy="38.8" rx="12.7" ry="12.7" data-color-action="stroke" style="stroke:inherit" />			<line class="aL-cls-14" x1="10.3" y1="29.2" x2="24.3" y2="48.4" data-color-action="stroke" style="stroke:inherit" />		</g>		<text transform="matrix(1 0 0 1 6.7031 43.357)" class="aL-cls-15 aL-cls-16">NA</text>	</g></g></g><g id="aL_pins" style="">	<g>		<g>							<rect x="38.3" y="24.7" transform="matrix(-1 -4.481272e-11 4.481272e-11 -1 78.8349 71.378)" class="aL-cls-19" width="2.3" height="22" data-color-action="fill" style="fill:inherit" />							<rect x="39.6" y="24.7" transform="matrix(-1 -4.267887e-11 4.267887e-11 -1 79.5174 71.378)" class="aL-cls-23" width="0.3" height="22" />		</g>		<g>							<rect x="34" y="24.7" transform="matrix(-1 -4.521284e-11 4.521284e-11 -1 70.2211 71.378)" class="aL-cls-19" width="2.3" height="22" data-color-action="fill" style="fill:inherit" />							<rect x="35.3" y="24.7" transform="matrix(-1 -4.534651e-11 4.534651e-11 -1 70.9036 71.378)" class="aL-cls-23" width="0.3" height="22" />		</g>	</g>	<g>		<g>							<rect x="22.7" y="24.7" transform="matrix(-1 -4.481272e-11 4.481272e-11 -1 47.7478 71.378)" class="aL-cls-19" width="2.3" height="22" data-color-action="fill" style="fill:inherit" />							<rect x="24" y="24.7" transform="matrix(-1 -4.534651e-11 4.534651e-11 -1 48.4303 71.378)" class="aL-cls-23" width="0.3" height="22" />		</g>		<g>							<rect x="18.4" y="24.7" transform="matrix(-1 -4.481272e-11 4.481272e-11 -1 39.134 71.378)" class="aL-cls-19" width="2.3" height="22" data-color-action="fill" style="fill:inherit" />							<rect x="19.7" y="24.7" transform="matrix(-1 -4.534651e-11 4.534651e-11 -1 39.8165 71.378)" class="aL-cls-23" width="0.3" height="22" />		</g>	</g></g><g id="aL_post" style="">	<g>		<g>							<ellipse transform="matrix(0.1539 -0.9881 0.9881 0.1539 -23.6537 49.9275)" class="aL-cls-14" cx="17.3" cy="38.8" rx="12.7" ry="12.7" data-color-action="stroke" style="stroke:inherit" />			<line class="aL-cls-14" x1="10.3" y1="29.2" x2="24.3" y2="48.4" data-color-action="stroke" style="stroke:inherit" />		</g>		<text transform="matrix(1 0 0 1 6.7031 43.357)" class="aL-cls-15 aL-cls-16">NA</text>	</g></g><g id="aL_open_contact_mesial" style="">	<g>		<g>							<ellipse transform="matrix(0.1539 -0.9881 0.9881 0.1539 -23.6537 49.9275)" class="aL-cls-14" cx="17.3" cy="38.8" rx="12.7" ry="12.7" data-color-action="stroke" style="stroke:inherit" />			<line class="aL-cls-14" x1="10.3" y1="29.2" x2="24.3" y2="48.4" data-color-action="stroke" style="stroke:inherit" />		</g>		<text transform="matrix(1 0 0 1 6.7031 43.357)" class="aL-cls-15 aL-cls-16">NA</text>	</g></g><g id="aL_open_contact_distal" style="">	<g>		<g>							<ellipse transform="matrix(0.1539 -0.9881 0.9881 0.1539 -23.6537 49.9275)" class="aL-cls-14" cx="17.3" cy="38.8" rx="12.7" ry="12.7" data-color-action="stroke" style="stroke:inherit" />			<line class="aL-cls-14" x1="10.3" y1="29.2" x2="24.3" y2="48.4" data-color-action="stroke" style="stroke:inherit" />		</g>		<text transform="matrix(1 0 0 1 6.7031 43.357)" class="aL-cls-15 aL-cls-16">NA</text>	</g></g><g id="aL_mesial_drift" style="">	<g>		<g>			<line class="aL-cls-25" x1="26.9" y1="25.3" x2="37.8" y2="25.3" data-color-action="stroke" style="stroke:inherit" />			<g>				<polygon class="aL-cls-18" points="28.1,29.3 21.2,25.3 28.1,21.3     " data-color-action="fill" style="fill:inherit" />			</g>		</g>	</g></g><g id="aL_lingual_abfraction" style="">	<g>		<g>							<ellipse transform="matrix(0.1539 -0.9881 0.9881 0.1539 -23.6537 49.9275)" class="aL-cls-14" cx="17.3" cy="38.8" rx="12.7" ry="12.7" data-color-action="stroke" style="stroke:inherit" />			<line class="aL-cls-14" x1="10.3" y1="29.2" x2="24.3" y2="48.4" data-color-action="stroke" style="stroke:inherit" />		</g>		<text transform="matrix(1 0 0 1 6.7031 43.357)" class="aL-cls-15 aL-cls-16">NA</text>	</g></g><g id="aL_internal_root_resorption" style="">	<g>		<g>							<ellipse transform="matrix(0.1539 -0.9881 0.9881 0.1539 -23.6537 49.9275)" class="aL-cls-14" cx="17.3" cy="38.8" rx="12.7" ry="12.7" data-color-action="stroke" style="stroke:inherit" />			<line class="aL-cls-14" x1="10.3" y1="29.2" x2="24.3" y2="48.4" data-color-action="stroke" style="stroke:inherit" />		</g>		<text transform="matrix(1 0 0 1 6.7031 43.357)" class="aL-cls-15 aL-cls-16">NA</text>	</g></g><g id="aL_impacted_mesial" style="">	<g>		<g>							<ellipse transform="matrix(0.1539 -0.9881 0.9881 0.1539 -23.6537 49.9275)" class="aL-cls-14" cx="17.3" cy="38.8" rx="12.7" ry="12.7" data-color-action="stroke" style="stroke:inherit" />			<line class="aL-cls-14" x1="10.3" y1="29.2" x2="24.3" y2="48.4" data-color-action="stroke" style="stroke:inherit" />		</g>		<text transform="matrix(1 0 0 1 6.7031 43.357)" class="aL-cls-15 aL-cls-16">NA</text>	</g></g><g id="aL_impacted_distal" style="">	<g>		<g>							<ellipse transform="matrix(0.1539 -0.9881 0.9881 0.1539 -23.6537 49.9275)" class="aL-cls-14" cx="17.3" cy="38.8" rx="12.7" ry="12.7" data-color-action="stroke" style="stroke:inherit" />			<line class="aL-cls-14" x1="10.3" y1="29.2" x2="24.3" y2="48.4" data-color-action="stroke" style="stroke:inherit" />		</g>		<text transform="matrix(1 0 0 1 6.7031 43.357)" class="aL-cls-15 aL-cls-16">NA</text>	</g></g><g id="aL_gortex_membranes" style="">	<g>		<g>							<ellipse transform="matrix(0.1539 -0.9881 0.9881 0.1539 -23.6537 49.9275)" class="aL-cls-14" cx="17.3" cy="38.8" rx="12.7" ry="12.7" data-color-action="stroke" style="stroke:inherit" />			<line class="aL-cls-14" x1="10.3" y1="29.2" x2="24.3" y2="48.4" data-color-action="stroke" style="stroke:inherit" />		</g>		<text transform="matrix(1 0 0 1 6.7031 43.357)" class="aL-cls-15 aL-cls-16">NA</text>	</g></g><g id="aL_frenum_pull" style="">	<g>		<g>							<ellipse transform="matrix(0.1539 -0.9881 0.9881 0.1539 -23.6537 49.9275)" class="aL-cls-14" cx="17.3" cy="38.8" rx="12.7" ry="12.7" data-color-action="stroke" style="stroke:inherit" />			<line class="aL-cls-14" x1="10.3" y1="29.2" x2="24.3" y2="48.4" data-color-action="stroke" style="stroke:inherit" />		</g>		<text transform="matrix(1 0 0 1 6.7031 43.357)" class="aL-cls-15 aL-cls-16">NA</text>	</g></g><g id="aL_external_root_resorption" style="">	<g>		<g>							<ellipse transform="matrix(0.1539 -0.9881 0.9881 0.1539 -23.6537 49.9275)" class="aL-cls-14" cx="17.3" cy="38.8" rx="12.7" ry="12.7" data-color-action="stroke" style="stroke:inherit" />			<line class="aL-cls-14" x1="10.3" y1="29.2" x2="24.3" y2="48.4" data-color-action="stroke" style="stroke:inherit" />		</g>		<text transform="matrix(1 0 0 1 6.7031 43.357)" class="aL-cls-15 aL-cls-16">NA</text>	</g></g><g id="aL_diastema_mesial" style="">	<g>		<g>							<ellipse transform="matrix(0.1539 -0.9881 0.9881 0.1539 -23.6537 49.9275)" class="aL-cls-14" cx="17.3" cy="38.8" rx="12.7" ry="12.7" data-color-action="stroke" style="stroke:inherit" />			<line class="aL-cls-14" x1="10.3" y1="29.2" x2="24.3" y2="48.4" data-color-action="stroke" style="stroke:inherit" />		</g>		<text transform="matrix(1 0 0 1 6.7031 43.357)" class="aL-cls-15 aL-cls-16">NA</text>	</g></g><g id="aL_diastema_distal" style="">	<g>		<g>							<ellipse transform="matrix(0.1539 -0.9881 0.9881 0.1539 -23.6537 49.9275)" class="aL-cls-14" cx="17.3" cy="38.8" rx="12.7" ry="12.7" data-color-action="stroke" style="stroke:inherit" />			<line class="aL-cls-14" x1="10.3" y1="29.2" x2="24.3" y2="48.4" data-color-action="stroke" style="stroke:inherit" />		</g>		<text transform="matrix(1 0 0 1 6.7031 43.357)" class="aL-cls-15 aL-cls-16">NA</text>	</g></g><g id="aL_distal_drift" style="">	<g>		<g>			<line class="aL-cls-25" x1="32.1" y1="25.3" x2="21.2" y2="25.3" data-color-action="stroke" style="stroke:inherit" />			<g>				<polygon class="aL-cls-18" points="30.9,21.3 37.8,25.3 30.9,29.3     " data-color-action="fill" style="fill:inherit" />			</g>		</g>	</g></g><g id="aL_three_quarter_crown" style="">	<g>		<g>							<ellipse transform="matrix(0.1539 -0.9881 0.9881 0.1539 -23.6537 49.9275)" class="aL-cls-14" cx="17.3" cy="38.8" rx="12.7" ry="12.7" data-color-action="stroke" style="stroke:inherit" />			<line class="aL-cls-14" x1="10.3" y1="29.2" x2="24.3" y2="48.4" data-color-action="stroke" style="stroke:inherit" />		</g>		<text transform="matrix(1 0 0 1 6.7031 43.357)" class="aL-cls-15 aL-cls-16">NA</text>	</g></g><g id="aL_crown" style="">	<path class="aL-cls-26" d="M13.6,35.4c-1.6-2.6-2.7-9.7-2.9-12.1c-0.2-2.3,0.8-8.1,3.4-9.2c2.9-1.2,11.4-1,13.1,0.1s2.5,0.9,3.2,0.4   c0.9-0.7,6.5-1.8,11.2-1c4.7,0.8,5.5,5.3,5.4,9.2c-0.1,3.9-1.4,11.6-2.3,13.2C43.7,37.7,15.5,38.5,13.6,35.4z" data-color-action="fill" style="fill:inherit" /></g><g id="aL_cracked_surface_distal" style="">	<polyline class="aL-cls-27" points="46.2,29.2 42.3,25.3 47.3,25.3 42.3,20.6 47.3,20.6 43.5,16.8  " data-color-action="stroke" style="stroke:inherit" /></g><g id="aL_cracked_surface_buccal" style="">	<polyline class="aL-cls-27" points="31,29.2 27.2,25.3 32.2,25.3 27.2,20.6 32.2,20.6 28.3,16.8  " data-color-action="stroke" style="stroke:inherit" /></g><g id="aL_cracked_surface_buccal_V" style="">	<polyline class="aL-cls-27" points="31,29.2 27.2,25.3 32.2,25.3 27.2,20.6 32.2,20.6 28.3,16.8  " data-color-action="stroke" style="stroke:inherit" /></g><g id="aL_cracked_surface_mesial" style="">	<polyline class="aL-cls-27" points="15.2,29.2 11.3,25.3 16.3,25.3 11.3,20.6 16.3,20.6 12.5,16.8  " data-color-action="stroke" style="stroke:inherit" /></g><g id="aL_chipped_surface_distal" style="">	<g>		<line class="aL-cls-27" x1="40" y1="27.5" x2="48.3" y2="19.2" data-color-action="stroke" style="stroke:inherit" />		<line class="aL-cls-27" x1="48.3" y1="27.5" x2="40" y2="19.2" data-color-action="stroke" style="stroke:inherit" />	</g></g><g id="aL_chipped_surface_buccal" style="">	<g>		<line class="aL-cls-27" x1="25.8" y1="27.5" x2="34.2" y2="19.2" data-color-action="stroke" style="stroke:inherit" />		<line class="aL-cls-27" x1="34.2" y1="27.5" x2="25.8" y2="19.2" data-color-action="stroke" style="stroke:inherit" />	</g></g><g id="aL_chipped_surface_buccal_V" style="">	<g>		<line class="aL-cls-27" x1="25.8" y1="27.5" x2="34.2" y2="19.2" data-color-action="stroke" style="stroke:inherit" />		<line class="aL-cls-27" x1="34.2" y1="27.5" x2="25.8" y2="19.2" data-color-action="stroke" style="stroke:inherit" />	</g></g><g id="aL_chipped_surface_mesial" style="">	<g>		<line class="aL-cls-27" x1="10.8" y1="27.5" x2="19.2" y2="19.2" data-color-action="stroke" style="stroke:inherit" />		<line class="aL-cls-27" x1="19.2" y1="27.5" x2="10.8" y2="19.2" data-color-action="stroke" style="stroke:inherit" />	</g></g><g id="aL_buccal_abfraction" style="">	<g>		<g>							<ellipse transform="matrix(0.1539 -0.9881 0.9881 0.1539 -23.6537 49.9275)" class="aL-cls-14" cx="17.3" cy="38.8" rx="12.7" ry="12.7" data-color-action="stroke" style="stroke:inherit" />			<line class="aL-cls-14" x1="10.3" y1="29.2" x2="24.3" y2="48.4" data-color-action="stroke" style="stroke:inherit" />		</g>		<text transform="matrix(1 0 0 1 6.7031 43.357)" class="aL-cls-15 aL-cls-16">NA</text>	</g></g><g id="aL_braces" style="">	<g>		<g>							<rect x="22" y="16.8" transform="matrix(-1 -4.489399e-11 4.489399e-11 -1 57.3758 51.8689)" class="aL-cls-23" width="13.5" height="18.2" />							<rect x="22" y="16.8" transform="matrix(-1 -4.489399e-11 4.489399e-11 -1 57.3758 34.3599)" class="aL-cls-28" width="13.5" height="0.7" data-color-action="fill" style="fill:inherit" />							<rect x="22" y="24.4" transform="matrix(-1 -4.489399e-11 4.489399e-11 -1 57.3758 50.2155)" class="aL-cls-28" width="13.5" height="1.4" data-color-action="fill" style="fill:inherit" />							<rect x="22" y="34.1" transform="matrix(-1 -4.489399e-11 4.489399e-11 -1 57.3758 69.1675)" class="aL-cls-29" width="13.5" height="0.9" data-color-action="fill" style="fill:inherit" />			<g>				<g>					<g>						<path class="aL-cls-30" d="M32.1,35h3.1c0.3,0,0.5-0.2,0.5-0.5v-7c0-0.3-0.2-0.5-0.5-0.5h-3.1c-0.3,0-0.5,0.2-0.5,0.5v7        C31.6,34.8,31.8,35,32.1,35z" data-color-action="fill" style="fill:inherit" />						<path class="aL-cls-19" d="M32.1,35h3.1c0.3,0,0.5-0.2,0.5-0.5v-5.8c-0.7-0.1-1.3-0.2-2-0.2c-0.7,0-1.4,0.1-2.1,0.2v5.8        C31.6,34.8,31.8,35,32.1,35z" data-color-action="fill" style="fill:inherit" />						<path class="aL-cls-23" d="M31.9,33.6v1.1c0,0.1,0.1,0.2,0.2,0.2h3.1c0.1,0,0.2-0.1,0.2-0.2v-1.1H31.9z" />					</g>					<g>						<path class="aL-cls-30" d="M22.2,35h3.1c0.3,0,0.5-0.2,0.5-0.5v-7c0-0.3-0.2-0.5-0.5-0.5h-3.1c-0.3,0-0.5,0.2-0.5,0.5v7        C21.7,34.8,21.9,35,22.2,35z" data-color-action="fill" style="fill:inherit" />						<path class="aL-cls-19" d="M22.2,35h3.1c0.3,0,0.5-0.2,0.5-0.5v-5.8c-0.7-0.1-1.3-0.2-2-0.2c-0.7,0-1.4,0.1-2.1,0.2v5.8        C21.7,34.8,21.9,35,22.2,35z" data-color-action="fill" style="fill:inherit" />						<path class="aL-cls-23" d="M22,33.6v1.1c0,0.1,0.1,0.2,0.2,0.2h3.1c0.1,0,0.2-0.1,0.2-0.2v-1.1H22z" />					</g>				</g>				<g>					<g>						<path class="aL-cls-30" d="M32.1,24.7h3.1c0.3,0,0.5-0.2,0.5-0.5v-7c0-0.3-0.2-0.5-0.5-0.5h-3.1c-0.3,0-0.5,0.2-0.5,0.5v7        C31.6,24.5,31.8,24.7,32.1,24.7z" data-color-action="fill" style="fill:inherit" />						<path class="aL-cls-19" d="M32.1,24.7h3.1c0.3,0,0.5-0.2,0.5-0.5v-5.8c-0.7-0.1-1.3-0.2-2-0.2c-0.7,0-1.4,0.1-2.1,0.2v5.8        C31.6,24.5,31.8,24.7,32.1,24.7z" data-color-action="fill" style="fill:inherit" />						<path class="aL-cls-23" d="M31.9,23.3v1.1c0,0.1,0.1,0.2,0.2,0.2h3.1c0.1,0,0.2-0.1,0.2-0.2v-1.1H31.9z" />					</g>					<g>						<path class="aL-cls-30" d="M22.2,24.7h3.1c0.3,0,0.5-0.2,0.5-0.5v-7c0-0.3-0.2-0.5-0.5-0.5h-3.1c-0.3,0-0.5,0.2-0.5,0.5v7        C21.7,24.5,21.9,24.7,22.2,24.7z" data-color-action="fill" style="fill:inherit" />						<path class="aL-cls-19" d="M22.2,24.7h3.1c0.3,0,0.5-0.2,0.5-0.5v-5.8c-0.7-0.1-1.3-0.2-2-0.2c-0.7,0-1.4,0.1-2.1,0.2v5.8        C21.7,24.5,21.9,24.7,22.2,24.7z" data-color-action="fill" style="fill:inherit" />						<path class="aL-cls-23" d="M22,23.3v1.1c0,0.1,0.1,0.2,0.2,0.2h3.1c0.1,0,0.2-0.1,0.2-0.2v-1.1H22z" />					</g>				</g>			</g>		</g>		<g>							<rect x="7.6" y="25.2" transform="matrix(-1 -4.490154e-11 4.490154e-11 -1 57.3659 51.7861)" class="aL-cls-19" width="42.2" height="1.4" data-color-action="fill" style="fill:inherit" />							<rect x="7.6" y="25.2" transform="matrix(-1 -4.490154e-11 4.490154e-11 -1 57.3659 50.5842)" class="aL-cls-30" width="42.2" height="0.2" data-color-action="fill" style="fill:inherit" />							<rect x="7.6" y="26" transform="matrix(-1 -4.490154e-11 4.490154e-11 -1 57.3659 52.4372)" class="aL-cls-23" width="42.2" height="0.4" />		</g>	</g></g><g id="aL_apicoectomy" style="">	<g>		<g>							<ellipse transform="matrix(0.1539 -0.9881 0.9881 0.1539 -23.6537 49.9275)" class="aL-cls-14" cx="17.3" cy="38.8" rx="12.7" ry="12.7" data-color-action="stroke" style="stroke:inherit" />			<line class="aL-cls-14" x1="10.3" y1="29.2" x2="24.3" y2="48.4" data-color-action="stroke" style="stroke:inherit" />		</g>		<text transform="matrix(1 0 0 1 6.7031 43.357)" class="aL-cls-15 aL-cls-16">NA</text>	</g></g><g id="aL_abscess" style="">	<circle class="aL-cls-18" cx="29.5" cy="81.9" r="6.1" data-color-action="fill" style="fill:inherit" /></g><g id="aL_blunted_roots" style="">	<g>		<g>							<ellipse transform="matrix(0.1539 -0.9881 0.9881 0.1539 -23.6537 49.9275)" class="aL-cls-14" cx="17.3" cy="38.8" rx="12.7" ry="12.7" data-color-action="stroke" style="stroke:inherit" />			<line class="aL-cls-14" x1="10.3" y1="29.2" x2="24.3" y2="48.4" data-color-action="stroke" style="stroke:inherit" />		</g>		<text transform="matrix(1 0 0 1 6.7031 43.357)" class="aL-cls-15 aL-cls-16">NA</text>	</g></g><g id="aL_root_amputation" style="">	<g>		<g>							<ellipse transform="matrix(0.1539 -0.9881 0.9881 0.1539 -23.6537 49.9275)" class="aL-cls-14" cx="17.3" cy="38.8" rx="12.7" ry="12.7" data-color-action="stroke" style="stroke:inherit" />			<line class="aL-cls-14" x1="10.3" y1="29.2" x2="24.3" y2="48.4" data-color-action="stroke" style="stroke:inherit" />		</g>		<text transform="matrix(1 0 0 1 6.7031 43.357)" class="aL-cls-15 aL-cls-16">NA</text>	</g><g id="root_amputation_2">	<g>		<g>							<ellipse transform="matrix(0.1539 -0.9881 0.9881 0.1539 -23.6537 49.9275)" class="aL-cls-14" cx="17.3" cy="38.8" rx="12.7" ry="12.7" data-color-action="stroke" style="stroke:inherit" />			<line class="aL-cls-14" x1="10.3" y1="29.2" x2="24.3" y2="48.4" data-color-action="stroke" style="stroke:inherit" />		</g>		<text transform="matrix(1 0 0 1 6.7031 43.357)" class="aL-cls-15 aL-cls-16">NA</text>	</g></g><g id="root_amputation_1">	<g>		<g>							<ellipse transform="matrix(0.1539 -0.9881 0.9881 0.1539 -23.6537 49.9275)" class="aL-cls-14" cx="17.3" cy="38.8" rx="12.7" ry="12.7" data-color-action="stroke" style="stroke:inherit" />			<line class="aL-cls-14" x1="10.3" y1="29.2" x2="24.3" y2="48.4" data-color-action="stroke" style="stroke:inherit" />		</g>		<text transform="matrix(1 0 0 1 6.7031 43.357)" class="aL-cls-15 aL-cls-16">NA</text>	</g></g></g><g id="aL_missing_crown" style="">	<g>		<g>							<ellipse transform="matrix(0.1539 -0.9881 0.9881 0.1539 -23.6537 49.9275)" class="aL-cls-14" cx="17.3" cy="38.8" rx="12.7" ry="12.7" data-color-action="stroke" style="stroke:inherit" />			<line class="aL-cls-14" x1="10.3" y1="29.2" x2="24.3" y2="48.4" data-color-action="stroke" style="stroke:inherit" />		</g>		<text transform="matrix(1 0 0 1 6.7031 43.357)" class="aL-cls-15 aL-cls-16">NA</text>	</g></g><g id="aL_missing_tooth" style="" data-name="missing tooth">	<g>		<path class="aL-cls-5" d="M12.5,40.7c0.6-2.6,1.1-3.9,1.1-5.3c0,0,0,0,0,0c-1.6-2.6-2.7-9.7-2.9-12.1c-0.2-2.3,0.8-8.1,3.4-9.2    c2.9-1.2,11.4-1,13.1,0.1c1.7,1,2.5,0.9,3.2,0.4c0.9-0.7,6.5-1.8,11.2-1c4.7,0.8,5.5,5.3,5.4,9.2c-0.1,3.9-1.4,11.6-2.3,13.2    c0,0-0.1,0.1-0.1,0.1c-0.1,1.3,0.1,2.7,0.7,5c2.9,11.3,5,17.9,2.9,23.4c-1.7,4.5-7.4,11.5-9,11.1s2.1-7.3,1.7-15.1    c-0.3-5.2-5.9-14-13.3-13.4c-5.2,0.4-10,10-8.1,20.1c1.2,6.6,3,11,1.6,11.6c-1.4,0.6-7.9-6.2-10.2-14.9    C8.7,56.4,11.3,45.6,12.5,40.7z" data-color-action="fill,stroke" style="fill,stroke:inherit" />		<path class="aL-cls-24" d="M12.4,30.7c2,4.9,1.2,5.1,0.1,10c-1.1,4.9-3.7,15.7-1.7,23.4c2.4,8.7,8.8,15.5,10.2,14.9    c1.4-0.6-0.4-5-1.6-11.6c-1.8-10.1,2.9-19.7,8.1-20.1c7.4-0.6,13,8.2,13.3,13.4c0.4,7.8-3.4,14.7-1.7,15.1c1.6,0.4,7.3-6.6,9-11.1    c2-5.5,0-12.1-2.9-23.4c-1-4-0.8-5.3-0.1-8.1C45.7,30.7,10.3,25.7,12.4,30.7z" />		<path class="aL-cls-24" d="M12.7,48.8c1.1-6.5,2.3-9,2.7-10.9c0.4-1.9,0-6.2,0-6.2h-2.6c1.5,3.9,0.7,4.4-0.3,8.9    c-1.1,4.9-3.7,15.7-1.7,23.4c1.2,4.5,3.5,8.4,5.7,11.2c-1.8-3.4-4.2-8.9-4.7-11.8C11.2,60,11.5,56.2,12.7,48.8z" />		<path class="aL-cls-24" d="M37.5,48.2c-3.6-3.9-8.6-3.9-10.4-3.6s-6.5,3-8,8c-1.8,6.2-1.4,10.4-0.5,14.2c0.5,2.1,1.3,4.2,2.1,6.1    c-0.4-1.6-0.8-3.5-1.2-5.7c-1.8-10.1,2.9-19.7,8.1-20.1c7.4-0.6,13,8.2,13.3,13.4c0.2,3.8-0.6,7.3-1.3,10c1.1-3,2.4-7.3,2.5-10.3    C42.2,55.8,40.1,51,37.5,48.2z" />		<path class="aL-cls-24" d="M45.2,41.1c-1-4-0.8-5.3-0.1-8.1c0.1-0.4-0.8-0.8-2.3-1.3l-0.6,0.2c0,0,0.1,4.6,0.4,5.9    c0.3,1.3,1.6,5.6,3,10s3.3,10.6,2.4,15.4c-0.4,1.9-0.6,2.6-1.1,4.1c0.5-0.9,1-1.9,1.3-2.7C50.2,59,48.1,52.4,45.2,41.1z" />		<path class="aL-cls-24" d="M39.9,35.5c-0.3,1.2-0.1,2.3,0.1,3.2c0.2,0.8,1.5,4.3,4,10.5c2.5,6.2,2.4,11.8,1.9,15.1    c-0.4,2.2-3.5,8.6-3.8,8.1s2.8-5.5,3.1-10.9c0.4-6.7-5.4-17.5-6.6-19.8c-1.2-2.3-1.9-4.7-1.8-6C36.9,34.4,40.4,33.8,39.9,35.5z" />		<path class="aL-cls-24" d="M13.6,35.4c-1.6-2.6-2.7-9.7-2.9-12.1c-0.2-2.3,0.8-8.1,3.4-9.2c2.9-1.2,11.4-1,13.1,0.1s2.5,0.9,3.2,0.4    c0.9-0.7,6.5-1.8,11.2-1c4.7,0.8,5.5,5.3,5.4,9.2c-0.1,3.9-1.4,11.6-2.3,13.2C43.7,37.7,15.5,38.5,13.6,35.4z" />		<g>			<path class="aL-cls-24" d="M13.6,23.4c-0.2-2.3,0.6-8,2.4-9.8c-0.7,0.1-1.4,0.3-1.9,0.5c-2.6,1.1-3.6,6.9-3.4,9.2     c0.2,2.4,1.3,9.5,2.9,12.1c0.3,0.4,1.1,0.8,2.3,1.1C14.6,33.6,13.7,26,13.6,23.4z" />			<path class="aL-cls-24" d="M41.6,13.6c-0.1,0-0.1,0-0.2,0c2.3,1.8,2.8,5.8,2.7,9.2c-0.1,3.9-1,11.3-1.8,13.9c1.3-0.2,2.1-0.4,2.3-0.7     c1-1.6,2.2-9.3,2.3-13.2C47.1,18.9,46.2,14.4,41.6,13.6z" />		</g>		<path class="aL-cls-24" d="M25.2,17.5c-1.2,0.6-0.1,5.6,0.5,5.5C26.4,22.9,26.6,16.8,25.2,17.5z" />		<path class="aL-cls-24" d="M20,76.1c-0.5,0.3-4.1-4.9-5-11.4c-1.2-8.8,2.1-18.1,2.7-17.9c0.5,0.2-1,2.7-1.6,8.5    c-0.5,4.8,0.5,10.6,1.2,13.1C18,70.8,20.8,75.6,20,76.1z" />		<path class="aL-cls-24" d="M39.5,34.9c0.1-1.8,1-6.1,1-11.4c0-3.4-1-8.5-1.6-10.2c-1.2,0-2.3,0-3.4,0.1c0.7,1.6,2.1,7.2,1.8,11.6    c-0.2,3.3-1.2,9.7-1,12.2c1.1-0.1,2.2-0.1,3.2-0.2C39.2,36.4,39.4,36.3,39.5,34.9z" />	</g></g><g id="aL_extracted_tooth" data-name="extracted tooth" style=""><g class="aL-msng-cls-10"><line class="aL-msng-cls-11" x1="9" y1="10.51" x2="50.67" y2="52.17" data-color-action="stroke" style="stroke:inherit" /><line class="aL-msng-cls-11" x1="50.67" y1="10.51" x2="9" y2="52.17" data-color-action="stroke" style="stroke:inherit" /></g></g><g id="aL_denture" style="">	<g>		<g>							<ellipse transform="matrix(0.1539 -0.9881 0.9881 0.1539 -23.6537 49.9275)" class="aL-cls-14" cx="17.3" cy="38.8" rx="12.7" ry="12.7" data-color-action="stroke" style="stroke:inherit" />			<line class="aL-cls-14" x1="10.3" y1="29.2" x2="24.3" y2="48.4" data-color-action="stroke" style="stroke:inherit" />		</g>		<text transform="matrix(1 0 0 1 6.7031 43.357)" class="aL-cls-15 aL-cls-16">NA</text>	</g></g><g id="aL_maryland_bridge_pontic" style="">	<g>		<g>							<ellipse transform="matrix(0.1539 -0.9881 0.9881 0.1539 -23.6537 49.9275)" class="aL-cls-14" cx="17.3" cy="38.8" rx="12.7" ry="12.7" data-color-action="stroke" style="stroke:inherit" />			<line class="aL-cls-14" x1="10.3" y1="29.2" x2="24.3" y2="48.4" data-color-action="stroke" style="stroke:inherit" />		</g>		<text transform="matrix(1 0 0 1 6.7031 43.357)" class="aL-cls-15 aL-cls-16">NA</text>	</g></g><g id="aL_maryland_bridge_abutment_mesial" style="">	<g>		<g>							<ellipse transform="matrix(0.1539 -0.9881 0.9881 0.1539 -23.6537 49.9275)" class="aL-cls-14" cx="17.3" cy="38.8" rx="12.7" ry="12.7" data-color-action="stroke" style="stroke:inherit" />			<line class="aL-cls-14" x1="10.3" y1="29.2" x2="24.3" y2="48.4" data-color-action="stroke" style="stroke:inherit" />		</g>		<text transform="matrix(1 0 0 1 6.7031 43.357)" class="aL-cls-15 aL-cls-16">NA</text>	</g></g><g id="aL_maryland_bridge_abutment_distal" style="">	<g>		<g>							<ellipse transform="matrix(0.1539 -0.9881 0.9881 0.1539 -23.6537 49.9275)" class="aL-cls-14" cx="17.3" cy="38.8" rx="12.7" ry="12.7" data-color-action="stroke" style="stroke:inherit" />			<line class="aL-cls-14" x1="10.3" y1="29.2" x2="24.3" y2="48.4" data-color-action="stroke" style="stroke:inherit" />		</g>		<text transform="matrix(1 0 0 1 6.7031 43.357)" class="aL-cls-15 aL-cls-16">NA</text>	</g></g><g id="aL_maryland_bridge_abutment" style="">	<g>		<g>							<ellipse transform="matrix(0.1539 -0.9881 0.9881 0.1539 -23.6537 49.9275)" class="aL-cls-14" cx="17.3" cy="38.8" rx="12.7" ry="12.7" data-color-action="stroke" style="stroke:inherit" />			<line class="aL-cls-14" x1="10.3" y1="29.2" x2="24.3" y2="48.4" data-color-action="stroke" style="stroke:inherit" />		</g>		<text transform="matrix(1 0 0 1 6.7031 43.357)" class="aL-cls-15 aL-cls-16">NA</text>	</g></g><g id="aL_bridge_abutment_mesial" style="">	<g>		<g>							<ellipse transform="matrix(0.1539 -0.9881 0.9881 0.1539 -23.6537 49.9275)" class="aL-cls-14" cx="17.3" cy="38.8" rx="12.7" ry="12.7" data-color-action="stroke" style="stroke:inherit" />			<line class="aL-cls-14" x1="10.3" y1="29.2" x2="24.3" y2="48.4" data-color-action="stroke" style="stroke:inherit" />		</g>		<text transform="matrix(1 0 0 1 6.7031 43.357)" class="aL-cls-15 aL-cls-16">NA</text>	</g></g><g id="aL_bridge_abutment_distal" style="">	<g>		<g>							<ellipse transform="matrix(0.1539 -0.9881 0.9881 0.1539 -23.6537 49.9275)" class="aL-cls-14" cx="17.3" cy="38.8" rx="12.7" ry="12.7" data-color-action="stroke" style="stroke:inherit" />			<line class="aL-cls-14" x1="10.3" y1="29.2" x2="24.3" y2="48.4" data-color-action="stroke" style="stroke:inherit" />		</g>		<text transform="matrix(1 0 0 1 6.7031 43.357)" class="aL-cls-15 aL-cls-16">NA</text>	</g></g><g id="aL_bridge_abutment" style="">	<g>		<g>							<ellipse transform="matrix(0.1539 -0.9881 0.9881 0.1539 -23.6537 49.9275)" class="aL-cls-14" cx="17.3" cy="38.8" rx="12.7" ry="12.7" data-color-action="stroke" style="stroke:inherit" />			<line class="aL-cls-14" x1="10.3" y1="29.2" x2="24.3" y2="48.4" data-color-action="stroke" style="stroke:inherit" />		</g>		<text transform="matrix(1 0 0 1 6.7031 43.357)" class="aL-cls-15 aL-cls-16">NA</text>	</g></g><g id="aL_bridge_pontic" style="">	<g>		<g>							<ellipse transform="matrix(0.1539 -0.9881 0.9881 0.1539 -23.6537 49.9275)" class="aL-cls-14" cx="17.3" cy="38.8" rx="12.7" ry="12.7" data-color-action="stroke" style="stroke:inherit" />			<line class="aL-cls-14" x1="10.3" y1="29.2" x2="24.3" y2="48.4" data-color-action="stroke" style="stroke:inherit" />		</g>		<text transform="matrix(1 0 0 1 6.7031 43.357)" class="aL-cls-15 aL-cls-16">NA</text>	</g></g><g id="aL_implant_mini" style="">	<g>		<g>							<ellipse transform="matrix(0.1539 -0.9881 0.9881 0.1539 -23.6537 49.9275)" class="aL-cls-14" cx="17.3" cy="38.8" rx="12.7" ry="12.7" data-color-action="stroke" style="stroke:inherit" />			<line class="aL-cls-14" x1="10.3" y1="29.2" x2="24.3" y2="48.4" data-color-action="stroke" style="stroke:inherit" />		</g>		<text transform="matrix(1 0 0 1 6.7031 43.357)" class="aL-cls-15 aL-cls-16">NA</text>	</g></g><g id="aL_implant_cylinder" style="">	<g>		<g>							<ellipse transform="matrix(0.1539 -0.9881 0.9881 0.1539 -23.6537 49.9275)" class="aL-cls-14" cx="17.3" cy="38.8" rx="12.7" ry="12.7" data-color-action="stroke" style="stroke:inherit" />			<line class="aL-cls-14" x1="10.3" y1="29.2" x2="24.3" y2="48.4" data-color-action="stroke" style="stroke:inherit" />		</g>		<text transform="matrix(1 0 0 1 6.7031 43.357)" class="aL-cls-15 aL-cls-16">NA</text>	</g></g><g id="aL_implant_blade" style="">	<g>		<g>							<ellipse transform="matrix(0.1539 -0.9881 0.9881 0.1539 -23.6537 49.9275)" class="aL-cls-14" cx="17.3" cy="38.8" rx="12.7" ry="12.7" data-color-action="stroke" style="stroke:inherit" />			<line class="aL-cls-14" x1="10.3" y1="29.2" x2="24.3" y2="48.4" data-color-action="stroke" style="stroke:inherit" />		</g>		<text transform="matrix(1 0 0 1 6.7031 43.357)" class="aL-cls-15 aL-cls-16">NA</text>	</g></g><g id="aL_watch_tooth" style="">	<g>		<path class="aL-cls-13" d="M8.3,153.9c0-1.8,1.4-3.3,3.2-3.3c1.8,0,3.3,1.5,3.3,3.3c0,1.7-1.5,3.2-3.3,3.2    C9.7,157.1,8.3,155.6,8.3,153.9z M9.2,148l-0.8-18.1h6.2L13.7,148H9.2z" data-color-action="fill" style="fill:inherit" />	</g></g><g id="aL_border" style="">	<rect class="aL-cls-17" width="59" height="161" /></g></defs></g><g class="bL-cls-1" transform="translate(0 66)"><g id="_Lb">	<g>		<g>			<path class="bL-cls-2" d="M11.9,17.3c-1,2.4-1.1,10-1.1,12.2s-0.6,5.6,0.4,7.8s4,5.9,5.7,6.8c1.7,0.9,19.3,0.1,22.3-0.9     c3-1,6.2-5.4,6.6-7c0.4-1.7,1.9-6.5,1.5-8.1c-0.4-1.6,1.1-5.4,1.1-7.5c0-2.1-0.6-6-2.4-7.3c-1.9-1.4-6.6-2.1-12.3-1.7     c-5.9,0.4-7.8,2-11.2,2.5C16.8,15.1,12.8,15.2,11.9,17.3z" />			<path class="bL-cls-3" d="M11.9,17.3c-1,2.4-1.1,10-1.1,12.2s-0.6,5.6,0.4,7.8s4,5.9,5.7,6.8c1.7,0.9,19.3,0.1,22.3-0.9     c3-1,6.2-5.4,6.6-7c0.4-1.7,1.9-6.5,1.5-8.1c-0.4-1.6,1.1-5.4,1.1-7.5c0-2.1-0.6-6-2.4-7.3c-1.9-1.4-6.6-2.1-12.3-1.7     c-5.9,0.4-7.8,2-11.2,2.5C16.8,15.1,12.8,15.2,11.9,17.3z" />			<path class="bL-cls-4" d="M41.7,40.9c-2.2,0.8-7.8,0.3-10.4,0.4c-2.4,0.1-5.4,2.1-8.6,1.9c-2.7-0.1-4.4,0.1-7.1-1.2     c-1-0.5-3.6-3.2-3-2.4c1.3,1.9,3.2,3.9,4.4,4.6c1.7,0.9,19.3,0.1,22.3-0.9c1.9-0.6,3.8-2.6,5.1-4.4     C45.1,37.8,43.9,40.1,41.7,40.9z" />		</g>		<path class="bL-cls-5" d="M43.2,23.8c0.3,0.6-1.1,0.7-2.8,1.1S38.5,26,40,28.1s2.3,2.7,1.9,2.9c-0.4,0.2-4.3-3.5-5.2-4.1    s-3.8-0.3-4.7,0c-0.9,0.3-2.4,0.3-1.9,1.8c0.5,1.5,1.4,3.1,0.6,3.1c-0.8,0.1-2.1-3.1-2.6-3.5s-3.2,1.2-4.8,1.2    c-1.6-0.1-4.5-0.7-5.7-0.6c-1.1,0.1-1.1,2.8-1.9,2.6s0.1-2,0.2-2.6c0.1-0.6-3.4-2.5-2.5-3.4s2.9,2,3.6,2.2c0.7,0.2,5,0.3,5.7,0.1    s-1.7-5.4-0.8-5.1c0.9,0.3,2.7,4.3,3.8,4.2c1.1-0.1,5.3-1.9,7-2.1c1.7-0.2,3.7,0.3,4.2-0.6c0.5-0.9,2.1-3.5,2.5-2.9    c0.3,0.6-0.9,2.6-0.2,2.6C39.9,23.9,42.8,23.1,43.2,23.8z" />		<path class="bL-cls-5" d="M11.9,17.3c0.9-2.1,4.9-2.2,10.5-3.2c3.4-0.6,5.3-2.1,11.2-2.5c5.8-0.4,10.4,0.3,12.3,1.7    c1.8,1.3,2.4,5.2,2.4,7.3c0,1.7-1,4.6-1.1,6.5c-0.3-0.8-0.5-1.9-0.4-2.6c0.2-1.3,0.8-3.7,0.2-5.7s-0.6-3.4-2-4.1    c-1.4-0.7-5-1.4-7.9-1.4c-2.9,0.1-7.4,0.3-9.8,1.2c-2.4,0.9-9.1,1.9-10.9,2.2c-1.8,0.3-3.2,0-3.7,2.1c-0.5,1.7-1.3,4.1-1.8,6.1    C11,22,11.3,18.7,11.9,17.3z" />	</g></g><defs><g id="bL_cusp_1" style="">	<path class="bL-cls-6" d="M27.1,32.5l-5,12.1c-2.6,0-4.5-0.1-5-0.4c-1.7-0.9-4.7-4.6-5.7-6.8c-0.1-0.2-0.1-0.3-0.2-0.5L24.8,31   C25.4,31.6,26.2,32.2,27.1,32.5z" data-color-action="fill" style="fill:inherit" /></g><g id="bL_groove_1" style="">	<path class="bL-cls-6" d="M28.8,32.8c0.2,0,0.5,0,0.7,0L34,44c-3.7,0.3-8.4,0.5-12,0.5l5-12.1C27.6,32.6,28.2,32.8,28.8,32.8z" data-color-action="fill" style="fill:inherit" /></g><g id="bL_cusp_2" style="">	<path class="bL-cls-6" d="M32.2,31.5L45,37.9c-1.2,2-3.5,4.5-5.7,5.3c-0.8,0.3-2.8,0.6-5.3,0.8l-4.5-11.3C30.5,32.6,31.5,32.1,32.2,31.5   z" data-color-action="fill" style="fill:inherit" /></g><g id="bL_mesial" style="">	<path class="bL-cls-6" d="M10.6,33.7c0-1.5,0.2-3,0.2-4.2c0-1.8,0-7,0.6-10.3c1.2,2.1,2.2,4.5,2.3,7.1C13.7,29.1,12.2,31.6,10.6,33.7z" data-color-action="fill" style="fill:inherit" /></g><g id="bL_mesial_pit" style="">	<path class="bL-cls-6" d="M12.8,16.2l12.4,5.3c-1.3,1.2-2.1,2.9-2.1,4.9c0,1.8,0.7,3.4,1.7,4.5L11,36.8c-0.3-0.9-0.4-2-0.4-3.1   c1.6-2.2,3-4.6,3-7.4c0-2.6-1.1-5.1-2.3-7.1c0.1-0.8,0.3-1.5,0.5-2C12,16.9,12.4,16.5,12.8,16.2z" data-color-action="fill" style="fill:inherit" /></g><g id="bL_central_pit" style="">	<path class="bL-cls-6" d="M34.6,26.5c0,2.1-0.9,3.9-2.3,5c-0.8,0.6-1.7,1.1-2.7,1.2c-0.2,0-0.5,0-0.7,0c-0.6,0-1.2-0.1-1.8-0.3   c-0.8-0.3-1.6-0.8-2.2-1.5c-1.1-1.1-1.7-2.7-1.7-4.5c0-2,0.8-3.7,2.1-4.9c0.7-0.6,1.5-1.1,2.4-1.3c0.4-0.1,0.8-0.1,1.2-0.1   c0.5,0,0.9,0.1,1.4,0.2c0.9,0.2,1.8,0.7,2.5,1.4v0C33.8,22.9,34.6,24.6,34.6,26.5z" data-color-action="fill" style="fill:inherit" /></g><g id="bL_distal_pit" style="">	<path class="bL-cls-6" d="M34.6,26.5c0-1.9-0.7-3.5-1.9-4.7l14.5-6.9c0.5,1,0.8,2.2,1,3.4c-1.4,2.5-2.8,5.9-2.9,8.6   c-0.1,1.9,0.5,4.1,1.4,6.3c-0.3,1.3-0.7,2.4-0.8,3.1c-0.1,0.4-0.4,1.1-0.8,1.7l-12.7-6.4C33.6,30.3,34.6,28.5,34.6,26.5z" data-color-action="fill" style="fill:inherit" /></g><g id="bL_distal" style="">	<path class="bL-cls-6" d="M48.2,18.2c0.1,0.9,0.2,1.7,0.2,2.3c0,2.1-1.5,5.9-1.1,7.5c0.3,1-0.2,3.1-0.7,5.1c-0.9-2.2-1.5-4.4-1.4-6.3   C45.4,24.1,46.8,20.7,48.2,18.2z" data-color-action="fill" style="fill:inherit" /></g><g id="bL_cusp_3" style="">	<path class="bL-cls-6" d="M25.2,21.6l-12.4-5.3c1.7-1.1,5.1-1.3,9.6-2.1c0.8-0.1,1.5-0.3,2.3-0.6l3,6.7C26.7,20.5,25.9,20.9,25.2,21.6z" data-color-action="fill" style="fill:inherit" /></g><g id="bL_groove_2" style="">	<path class="bL-cls-6" d="M28.8,20.2c-0.4,0-0.8,0-1.2,0.1l-3-6.7c2.3-0.7,4.4-1.6,8.8-2l-3.3,8.8C29.7,20.2,29.3,20.2,28.8,20.2z" data-color-action="fill" style="fill:inherit" /></g><g id="bL_cusp_4" style="">	<path class="bL-cls-6" d="M30.2,20.3l3.3-8.8c0,0,0.1,0,0.1,0c5.8-0.4,10.4,0.3,12.3,1.7c0.5,0.4,0.9,0.9,1.2,1.6l-14.5,6.9   C31.9,21.1,31.1,20.6,30.2,20.3z" data-color-action="fill" style="fill:inherit" /></g><g id="bL_tipped_lingual" style=""></g><g id="bL_tipped_facial" style=""></g><g id="bL_surface_restoration_buccal" style="">	<path class="bL-cls-7" d="M18.6,40.4c0.5,0.1,1.5,0.1,3.6,0.1c6.6,0,14.4-0.7,15.8-1.1c0.7-0.2,1.7-1.2,2.5-2.1l3.3,2.4   c-1.3,1.5-2.9,3-4.5,3.6c-3,1-20.6,1.8-22.3,0.9c-1.3-0.7-3.3-3-4.7-5.1l3.2-2.4C16.4,38.1,17.8,39.8,18.6,40.4z" data-color-action="fill" style="fill:inherit" /></g><g id="bL_surface_restoration_mesial" style="">	<path class="bL-cls-7" d="M10.8,29.5c0-2.3,0.1-9.9,1.1-12.2c0.1-0.3,0.3-0.5,0.5-0.7l2.9,3.8C15,22,14.8,25,14.8,29.5   c0,0.7,0,1.5-0.1,2.2c-0.1,1.2-0.2,3.2,0.1,3.9c0.2,0.3,0.4,0.7,0.6,1.1l-3.2,2.4c-0.4-0.6-0.8-1.2-1-1.8   C10.2,35.1,10.8,31.8,10.8,29.5z" data-color-action="fill" style="fill:inherit" /></g><g id="bL_surface_restoration_occlusal" style="">	<path class="bL-cls-7" d="M14.8,29.5c0-5.4,0.3-8.8,0.6-10.1c0.9-0.3,2.8-0.6,4.4-0.8c1-0.1,2.1-0.3,3.2-0.5c1.6-0.3,2.8-0.7,4.1-1.1   c1.8-0.6,3.6-1.2,6.8-1.4c1-0.1,2-0.1,2.9-0.1c4.1,0,6.1,0.7,6.7,1c0.4,0.6,0.9,2.5,0.9,4.1c0,0.4-0.3,1.7-0.5,2.5   c-0.5,2.1-0.9,4-0.5,5.8c0,1.1-0.9,4.2-1.1,5.3c-0.1,0.4-0.2,0.8-0.3,1c-0.4,1.1-2.7,3.9-4,4.3c-1.4,0.4-9.1,1.1-15.8,1.1   c-2,0-3.1-0.1-3.6-0.1c-1-0.8-3-3.3-3.8-4.8c-0.3-0.7-0.2-2.7-0.1-3.9C14.8,31,14.8,30.2,14.8,29.5z" data-color-action="fill" style="fill:inherit" /></g><g id="bL_surface_restoration_distal" style="">	<path class="bL-cls-7" d="M42,35.1c0.1-0.3,0.2-0.6,0.3-1c0.3-1,1.1-4.2,1.1-5.3c-0.4-1.8,0-3.8,0.5-5.8c0.2-0.8,0.5-2,0.5-2.5   c0-1.6-0.5-3.5-0.9-4.1c-0.2-0.1-0.7-0.3-1.4-0.5l2.7-3.3c0.4,0.2,0.8,0.4,1.1,0.6c1.8,1.3,2.4,5.2,2.4,7.3c0,2.1-1.5,5.9-1.1,7.5   c0.4,1.6-1.1,6.5-1.5,8.1c-0.2,0.8-1,2.1-2.1,3.5l-3.3-2.4C41.2,36.5,41.8,35.6,42,35.1z" data-color-action="fill" style="fill:inherit" /></g><g id="bL_surface_restoration_lingual" style="">	<path class="bL-cls-7" d="M36.8,15.5c-0.9,0-1.9,0-2.9,0.1c-3.2,0.2-4.9,0.8-6.8,1.4c-1.2,0.4-2.5,0.8-4.1,1.1c-1.1,0.2-2.2,0.4-3.2,0.5   c-1.6,0.2-3.5,0.5-4.4,0.8c0,0.2-0.1,0.6-0.2,0.9l-2.9-3.8c1.5-1.4,5.1-1.6,10-2.4c3.4-0.6,5.3-2.1,11.2-2.5   c4.8-0.3,8.9,0.1,11.2,1.1L42.1,16C41,15.7,39.3,15.5,36.8,15.5z" data-color-action="fill" style="fill:inherit" /></g><g id="bL_sub-erupted" style="">	<rect x="28" y="51.8" transform="matrix(-1 -4.486867e-11 4.486867e-11 -1 59 106.5032)" class="bL-cls-8" width="3" height="3" />	<rect x="28" y="51.8" transform="matrix(-1 -4.486867e-11 4.486867e-11 -1 59 106.5032)" class="bL-cls-8" width="3" height="3" />	<rect x="28" y="51.8" transform="matrix(-1 -4.486867e-11 4.486867e-11 -1 59 106.5032)" class="bL-cls-8" width="3" height="3" /></g><g id="bL_sealant" style="">	<text transform="matrix(1 0 0 1 19.699 39.47)" class="bL-cls-9 bL-cls-10 bL-cls-11" data-color-action="fill" style="fill:inherit">S</text></g><g id="bL_rotated_mesial" style=""></g><g id="bL_rotated_distal" style=""></g><g id="bL_root_canal" style="">	<rect x="28" y="51.8" transform="matrix(-1 -4.486867e-11 4.486867e-11 -1 59 106.5032)" class="bL-cls-8" width="3" height="3" />	<rect x="28" y="51.8" transform="matrix(-1 -4.486867e-11 4.486867e-11 -1 59 106.5032)" class="bL-cls-8" width="3" height="3" />	<rect x="28" y="51.8" transform="matrix(-1 -4.486867e-11 4.486867e-11 -1 59 106.5032)" class="bL-cls-8" width="3" height="3" /></g><g id="bL_pins" style="">	<rect x="28" y="51.8" transform="matrix(-1 -4.486867e-11 4.486867e-11 -1 59 106.5032)" class="bL-cls-8" width="3" height="3" />	<rect x="28" y="51.8" transform="matrix(-1 -4.486867e-11 4.486867e-11 -1 59 106.5032)" class="bL-cls-8" width="3" height="3" />	<rect x="28" y="51.8" transform="matrix(-1 -4.486867e-11 4.486867e-11 -1 59 106.5032)" class="bL-cls-8" width="3" height="3" /></g><g id="bL_mesial_drift" style=""></g><g id="bL_distal_drift" style=""></g><g id="bL_crown" style="">	<path class="bL-cls-13" d="M11.9,17.3c-1,2.4-1.1,10-1.1,12.2s-0.6,5.6,0.4,7.8s4,5.9,5.7,6.8c1.7,0.9,19.3,0.1,22.3-0.9   c3-1,6.2-5.4,6.6-7c0.4-1.7,1.9-6.5,1.5-8.1c-0.4-1.6,1.1-5.4,1.1-7.5c0-2.1-0.6-6-2.4-7.3c-1.9-1.4-6.6-2.1-12.3-1.7   c-5.9,0.4-7.8,2-11.2,2.5C16.8,15.1,12.8,15.2,11.9,17.3z" data-color-action="fill" style="fill:inherit" /></g><g id="bL_cracked_surface_occlusal" style="">	<polyline class="bL-cls-14" points="30.8,33.2 27,29.3 32,29.3 27,24.6 32,24.6 28.2,20.8  " data-color-action="stroke" style="stroke:inherit" /></g><g id="bL_chipped_surface_occlusal" style="">	<g>		<line class="bL-cls-14" x1="33.3" y1="31.5" x2="25" y2="23.2" data-color-action="stroke" style="stroke:inherit" />		<line class="bL-cls-14" x1="25" y1="31.5" x2="33.3" y2="23.2" data-color-action="stroke" style="stroke:inherit" />	</g></g><g id="bL_abscess" style="">	<rect x="28" y="51.8" transform="matrix(-1 -4.486867e-11 4.486867e-11 -1 59 106.5032)" class="bL-cls-8" width="3" height="3" />	<rect x="28" y="51.8" transform="matrix(-1 -4.486867e-11 4.486867e-11 -1 59 106.5032)" class="bL-cls-8" width="3" height="3" />	<rect x="28" y="51.8" transform="matrix(-1 -4.486867e-11 4.486867e-11 -1 59 106.5032)" class="bL-cls-8" width="3" height="3" /></g><g id="bL_missing_tooth" style="" data-name="missing tooth">	<g>		<g>			<path class="bL-cls-2" d="M11.9,17.3c-1,2.4-1.1,10-1.1,12.2s-0.6,5.6,0.4,7.8s4,5.9,5.7,6.8c1.7,0.9,19.3,0.1,22.3-0.9     c3-1,6.2-5.4,6.6-7c0.4-1.7,1.9-6.5,1.5-8.1c-0.4-1.6,1.1-5.4,1.1-7.5c0-2.1-0.6-6-2.4-7.3c-1.9-1.4-6.6-2.1-12.3-1.7     c-5.9,0.4-7.8,2-11.2,2.5C16.8,15.1,12.8,15.2,11.9,17.3z" data-color-action="fill,stroke" style="fill,stroke:inherit" />			<path class="bL-cls-12" d="M11.9,17.3c-1,2.4-1.1,10-1.1,12.2s-0.6,5.6,0.4,7.8s4,5.9,5.7,6.8c1.7,0.9,19.3,0.1,22.3-0.9     c3-1,6.2-5.4,6.6-7c0.4-1.7,1.9-6.5,1.5-8.1c-0.4-1.6,1.1-5.4,1.1-7.5c0-2.1-0.6-6-2.4-7.3c-1.9-1.4-6.6-2.1-12.3-1.7     c-5.9,0.4-7.8,2-11.2,2.5C16.8,15.1,12.8,15.2,11.9,17.3z" />			<path class="bL-cls-12" d="M41.7,40.9c-2.2,0.8-7.8,0.3-10.4,0.4c-2.4,0.1-5.4,2.1-8.6,1.9c-2.7-0.1-4.4,0.1-7.1-1.2     c-1-0.5-3.6-3.2-3-2.4c1.3,1.9,3.2,3.9,4.4,4.6c1.7,0.9,19.3,0.1,22.3-0.9c1.9-0.6,3.8-2.6,5.1-4.4     C45.1,37.8,43.9,40.1,41.7,40.9z" />		</g>		<path class="bL-cls-12" d="M43.2,23.8c0.3,0.6-1.1,0.7-2.8,1.1S38.5,26,40,28.1s2.3,2.7,1.9,2.9c-0.4,0.2-4.3-3.5-5.2-4.1    s-3.8-0.3-4.7,0c-0.9,0.3-2.4,0.3-1.9,1.8c0.5,1.5,1.4,3.1,0.6,3.1c-0.8,0.1-2.1-3.1-2.6-3.5s-3.2,1.2-4.8,1.2    c-1.6-0.1-4.5-0.7-5.7-0.6c-1.1,0.1-1.1,2.8-1.9,2.6s0.1-2,0.2-2.6c0.1-0.6-3.4-2.5-2.5-3.4s2.9,2,3.6,2.2c0.7,0.2,5,0.3,5.7,0.1    s-1.7-5.4-0.8-5.1c0.9,0.3,2.7,4.3,3.8,4.2c1.1-0.1,5.3-1.9,7-2.1c1.7-0.2,3.7,0.3,4.2-0.6c0.5-0.9,2.1-3.5,2.5-2.9    c0.3,0.6-0.9,2.6-0.2,2.6C39.9,23.9,42.8,23.1,43.2,23.8z" />		<path class="bL-cls-12" d="M11.9,17.3c0.9-2.1,4.9-2.2,10.5-3.2c3.4-0.6,5.3-2.1,11.2-2.5c5.8-0.4,10.4,0.3,12.3,1.7    c1.8,1.3,2.4,5.2,2.4,7.3c0,1.7-1,4.6-1.1,6.5c-0.3-0.8-0.5-1.9-0.4-2.6c0.2-1.3,0.8-3.7,0.2-5.7s-0.6-3.4-2-4.1    c-1.4-0.7-5-1.4-7.9-1.4c-2.9,0.1-7.4,0.3-9.8,1.2c-2.4,0.9-9.1,1.9-10.9,2.2c-1.8,0.3-3.2,0-3.7,2.1c-0.5,1.7-1.3,4.1-1.8,6.1    C11,22,11.3,18.7,11.9,17.3z" />	</g></g><g id="bL_watch_tooth" style=""></g><g id="bL_border" style="">	<rect x="0" y="0" transform="matrix(-1 -4.488910e-11 4.488910e-11 -1 59 56)" class="bL-cls-8" width="59" height="56" />	<rect x="0" y="0" class="bL-cls-8" width="59" height="56" /></g></defs></g><g class="cL-cls-1"><g id="_Lc">	<g>		<g>			<path class="cL-cls-2" d="M14.3,32.1c-1.6,2.6-2.7,9.7-2.9,12.1c-0.2,2.3,0.8,8.1,3.4,9.2c2.9,1.2,11.4,1,13.1-0.1     c1.7-1,2.5-0.9,3.2-0.4c0.9,0.7,6.5,1.8,11.2,1s5.5-5.3,5.4-9.2s-1.4-11.6-2.3-13.2C44.3,29.8,16.2,29,14.3,32.1z" />		</g>		<g>			<path class="cL-cls-3" d="M14.3,32.1c-1.6,2.6-2.7,9.7-2.9,12.1c-0.2,2.3,0.8,8.1,3.4,9.2c2.9,1.2,11.4,1,13.1-0.1     c1.7-1,2.5-0.9,3.2-0.4c0.9,0.7,6.5,1.8,11.2,1s5.5-5.3,5.4-9.2s-1.4-11.6-2.3-13.2C44.3,29.8,16.2,29,14.3,32.1z" />		</g>		<path class="cL-cls-4" d="M30.4,49.6c1.2,0.1,1.6-1.3,1.5-2C31.8,47,31.6,46,31.1,46c-0.5,0-0.9,0.9-1.1,1.7S29.6,49.5,30.4,49.6z" />		<path class="cL-cls-5" d="M42.2,53.9c-4.7,0.8-10.3-0.3-11.2-1c-0.7-0.5-1.5-0.6-3.2,0.4c-1.7,1-10.2,1.3-13.1,0.1    c-1.4-0.6-2.3-2.5-2.8-4.5c0.9,1.3,2,2.4,2.8,2.7c1.2,0.5,3.8,0.7,7,0.7s5.9-1.1,7.4-1.6c1.5-0.6,2.4,0.5,4.5,1.2    c2.1,0.7,7.3,0.6,10.8-0.1c1.7-0.3,2.5-1.9,3-3.7C47,50.8,45.6,53.3,42.2,53.9z" />		<path class="cL-cls-4" d="M22.6,32.8c-3.8,0.3-7.7,1.1-9.3,1.5c0.3-0.9,0.6-1.7,1-2.2c1.9-3.1,30.1-2.3,31-0.6c0.2,0.4,0.5,1.2,0.8,2.3    c-1.5-0.4-3.8-1-6.3-1C35.6,32.8,27.6,32.4,22.6,32.8z" />	</g></g><defs><g id="cL_mesial" style="">	<path class="cL-cls-6" d="M12.7,51l2.8-4.3c-0.2-0.8-0.3-1.7-0.4-2.5c-0.3-2.1-1.6-3.3-3.1-4.1c-0.3,1.7-0.5,3.1-0.6,4   C11.2,45.7,11.6,48.8,12.7,51z" data-color-action="fill" style="fill:inherit" /></g><g id="cL_line_angle_4" style="">	<path class="cL-cls-6" d="M14.8,53.4c1.6,0.7,4.7,0.9,7.6,0.8l1-4.6c-0.8,0.3-1.7,0.6-3,0.6c-3.2,0.1-4.4-1.6-4.9-3.5L12.7,51   C13.2,52.1,13.9,53,14.8,53.4z" data-color-action="fill" style="fill:inherit" /></g><g id="cL_groove_2" style="">	<path class="cL-cls-6" d="M27.9,53.3c1.7-1,2.5-0.9,3.2-0.4c0.5,0.4,2.3,0.9,4.7,1.1l-1.2-4.9c-2.1-0.8-3.7-2.1-5.9-2   c-2.4,0.1-3.2,1.6-5.2,2.4l-1,4.6C24.9,54.1,27.1,53.8,27.9,53.3z" data-color-action="fill" style="fill:inherit" /></g><g id="cL_line_angle_3" style="">	<path class="cL-cls-6" d="M42.2,53.9c2-0.3,3.2-1.3,4.1-2.7l-3.3-4.6c-1,1.9-2.3,3.2-4.3,3.2c-1.6,0.1-3-0.3-4.1-0.8l1.2,4.9   C37.7,54.2,40.1,54.3,42.2,53.9z" data-color-action="fill" style="fill:inherit" /></g><g id="cL_distal" style="">	<path class="cL-cls-6" d="M44.6,42.2c-0.5,1.7-1,3.2-1.6,4.4l3.3,4.6c1.2-1.8,1.4-4.3,1.4-6.6c0-1.4-0.2-3.2-0.5-5.2   C46,40,44.9,40.9,44.6,42.2z" data-color-action="fill" style="fill:inherit" /></g><g id="cL_lingual_pit" style="">	<ellipse class="cL-cls-6" cx="29.4" cy="40" rx="3.4" ry="5.6" data-color-action="fill" style="fill:inherit" /></g><g id="cL_lingual_V" style="">	<path class="cL-cls-6" d="M39.5,30.4c-5.8-0.5-14.6-0.5-20.1,0.1c3.1,1.3,6.5,2,10,2C32.9,32.5,36.3,31.7,39.5,30.4z" data-color-action="fill" style="fill:inherit" /></g><g id="cL_tipped_lingual" style="">	<g>		<path class="cL-cls-7" d="M27.6,57c1.2,3.2,4.5,3.6,7.2-5c0.5-1.5,4.2-1.7,3.6,0c-1.9,5.7-5,9.6-8.5,8.7c-1.2-0.3-2.3-1.6-2.8-3.2    C27.3,57.4,27.5,57.1,27.6,57z" data-color-action="fill" style="fill:inherit" />		<polygon class="cL-cls-7" points="29.6,54.2 41.8,54.2 39,45.2   " data-color-action="fill" style="fill:inherit" />	</g></g><g id="cL_tipped_facial" style=""></g><g id="cL_surface_restoration_occlusal" style="">	<path class="cL-cls-8" d="M14.9,53.4c2.9,1.2,11.4,1,13.1-0.1c1.7-1,2.5-0.9,3.2-0.4c0.9,0.7,6.5,1.8,11.2,1c1.4-0.2,2.5-0.8,3.3-1.6   l-5-5.4c0,0.1,0,0.1,0,0.2c-0.6,0.1-1.2,0.1-1.9,0.1c-1.9,0-3.5-0.3-4.2-0.5c-1.3-0.8-2.8-1.2-4.4-1.2c-2.1,0-3.8,0.7-5.1,1.4   c-0.6,0.1-1.9,0.3-3.7,0.3c-0.9,0-1.7,0-2.2-0.1l-4.5,6.1C14.7,53.3,14.8,53.4,14.9,53.4z" data-color-action="fill" style="fill:inherit" /></g><g id="cL_surface_restoration_mesial" style="">	<path class="cL-cls-8" d="M14.6,53.2l4.5-6.1c-0.1,0-0.2,0-0.3,0c-0.2-0.8-0.4-1.8-0.3-2.3c0.1-1.2,0.2-6.3,0.3-10.6   c-1.3,2.9-3.8,5.2-6.8,6.3c-0.3,1.6-0.4,3-0.5,3.8C11.3,46.4,12.2,51.7,14.6,53.2z" data-color-action="fill" style="fill:inherit" /></g><g id="cL_surface_restoration_lingual" style="">	<g>		<path class="cL-cls-8" d="M19.4,32.4c-0.2,0.6-0.4,1.2-0.6,1.8c-0.2,4.4-0.2,9.4-0.3,10.6c0,0.5,0.1,1.5,0.3,2.3    c0.6,0.1,1.5,0.1,2.5,0.1c1.8,0,3.1-0.1,3.7-0.3c1.3-0.7,3-1.4,5.1-1.4c1.6,0,3,0.4,4.4,1.2c0.7,0.2,2.3,0.5,4.2,0.5    c0.7,0,1.3,0,1.9-0.1c0.1-0.4,0.2-1.1,0.1-2.2c0-1.4-0.6-7.7-1.1-12.2c0,0,0,0,0-0.1c-3,1.5-6.3,2.4-9.9,2.4    C26,35.1,22.5,34.1,19.4,32.4z" data-color-action="fill" style="fill:inherit" />			</g></g><g id="cL_surface_restoration_lingual_V" style="">	<g>				<path class="cL-cls-8" d="M19.7,30.5c-0.1,0.6-0.2,1.3-0.3,1.9c3.1,1.7,6.6,2.6,10.4,2.6c3.6,0,6.9-0.9,9.9-2.4    c-0.3-0.7-0.6-1.5-0.8-2.3C33.2,29.9,25.1,29.9,19.7,30.5z" data-color-action="fill" style="fill:inherit" />	</g></g><g id="cL_surface_restoration_distal" style="">	<path class="cL-cls-8" d="M47.8,44.7c0-1.5-0.3-3.6-0.6-5.7c-3.3-0.9-6.1-3.2-7.5-6.3c0.5,4.5,1,10.8,1.1,12.2c0,1,0,1.6-0.1,2l5,5.4   C47.4,50.4,47.8,47.4,47.8,44.7z" data-color-action="fill" style="fill:inherit" /></g><g id="cL_sub-erupted" style=""></g><g id="cL_rotated_mesial" style=""></g><g id="cL_rotate_distal" style=""></g><g id="cL_root_canal" style=""></g><g id="cL_pins" style=""></g><g id="cL_mesial_drift" style=""></g><g id="cL_distal_drift" style=""></g><g id="cL_crown" style="">	<path class="cL-cls-10" d="M14.3,32.1c-1.6,2.6-2.7,9.7-2.9,12.1c-0.2,2.3,0.8,8.1,3.4,9.2c2.9,1.2,11.4,1,13.1-0.1   c1.7-1,2.5-0.9,3.2-0.4c0.9,0.7,6.5,1.8,11.2,1s5.5-5.3,5.4-9.2c-0.1-3.9-1.4-11.6-2.3-13.2C44.3,29.8,16.2,29,14.3,32.1z" data-color-action="fill" style="fill:inherit" /></g><g id="cL_cracked_surface_distal" style="">	<polyline class="cL-cls-11" points="45.2,48.2 41.3,44.4 46.3,44.4 41.3,39.6 46.3,39.6 42.5,35.8  " data-color-action="stroke" style="stroke:inherit" /></g><g id="cL_cracked_surface_lingual" style="">	<polyline class="cL-cls-11" points="31,48.2 27.2,44.4 32.2,44.4 27.2,39.6 32.2,39.6 28.3,35.8  " data-color-action="stroke" style="stroke:inherit" /></g><g id="cL_cracked_surface_lingual_V" style="">	<polyline class="cL-cls-11" points="31,48.2 27.2,44.4 32.2,44.4 27.2,39.6 32.2,39.6 28.3,35.8  " data-color-action="stroke" style="stroke:inherit" /></g><g id="cL_cracked_surface_mesial" style="">	<polyline class="cL-cls-11" points="16.2,48.2 12.3,44.4 17.3,44.4 12.3,39.6 17.3,39.6 13.5,35.8  " data-color-action="stroke" style="stroke:inherit" /></g><g id="cL_chipped_surface_distal" style="">	<g>		<line class="cL-cls-11" x1="39" y1="46.5" x2="47.3" y2="38.2" data-color-action="stroke" style="stroke:inherit" />		<line class="cL-cls-11" x1="47.3" y1="46.5" x2="39" y2="38.2" data-color-action="stroke" style="stroke:inherit" />	</g></g><g id="cL_chipped_surface_lingual" style="">	<g>		<line class="cL-cls-11" x1="25.8" y1="46.5" x2="34.2" y2="38.2" data-color-action="stroke" style="stroke:inherit" />		<line class="cL-cls-11" x1="34.2" y1="46.5" x2="25.8" y2="38.2" data-color-action="stroke" style="stroke:inherit" />	</g></g><g id="cL_chipped_surface_lingual_V" style="">	<g>		<line class="cL-cls-11" x1="25.8" y1="46.5" x2="34.2" y2="38.2" data-color-action="stroke" style="stroke:inherit" />		<line class="cL-cls-11" x1="34.2" y1="46.5" x2="25.8" y2="38.2" data-color-action="stroke" style="stroke:inherit" />	</g></g><g id="cL_chipped_surface_mesial" style="">	<g>		<line class="cL-cls-11" x1="11.8" y1="46.5" x2="20.2" y2="38.2" data-color-action="stroke" style="stroke:inherit" />		<line class="cL-cls-11" x1="20.2" y1="46.5" x2="11.8" y2="38.2" data-color-action="stroke" style="stroke:inherit" />	</g></g><g id="cL_abscess" style=""></g><g id="cL_missing_tooth" style="" data-name="missing tooth">	<g>		<g>			<path class="cL-cls-2" d="M14.3,32.1c-1.6,2.6-2.7,9.7-2.9,12.1c-0.2,2.3,0.8,8.1,3.4,9.2c2.9,1.2,11.4,1,13.1-0.1     c1.7-1,2.5-0.9,3.2-0.4c0.9,0.7,6.5,1.8,11.2,1s5.5-5.3,5.4-9.2s-1.4-11.6-2.3-13.2C44.3,29.8,16.2,29,14.3,32.1z" data-color-action="fill,stroke" style="fill,stroke:inherit" />		</g>		<g>			<path class="cL-cls-9" d="M14.3,32.1c-1.6,2.6-2.7,9.7-2.9,12.1c-0.2,2.3,0.8,8.1,3.4,9.2c2.9,1.2,11.4,1,13.1-0.1     c1.7-1,2.5-0.9,3.2-0.4c0.9,0.7,6.5,1.8,11.2,1s5.5-5.3,5.4-9.2s-1.4-11.6-2.3-13.2C44.3,29.8,16.2,29,14.3,32.1z" />		</g>		<path class="cL-cls-9" d="M30.4,49.6c1.2,0.1,1.6-1.3,1.5-2C31.8,47,31.6,46,31.1,46c-0.5,0-0.9,0.9-1.1,1.7S29.6,49.5,30.4,49.6z" />		<path class="cL-cls-9" d="M42.2,53.9c-4.7,0.8-10.3-0.3-11.2-1c-0.7-0.5-1.5-0.6-3.2,0.4c-1.7,1-10.2,1.3-13.1,0.1    c-1.4-0.6-2.3-2.5-2.8-4.5c0.9,1.3,2,2.4,2.8,2.7c1.2,0.5,3.8,0.7,7,0.7s5.9-1.1,7.4-1.6c1.5-0.6,2.4,0.5,4.5,1.2    c2.1,0.7,7.3,0.6,10.8-0.1c1.7-0.3,2.5-1.9,3-3.7C47,50.8,45.6,53.3,42.2,53.9z" />		<path class="cL-cls-9" d="M22.6,32.8c-3.8,0.3-7.7,1.1-9.3,1.5c0.3-0.9,0.6-1.7,1-2.2c1.9-3.1,30.1-2.3,31-0.6c0.2,0.4,0.5,1.2,0.8,2.3    c-1.5-0.4-3.8-1-6.3-1C35.6,32.8,27.6,32.4,22.6,32.8z" />	</g></g><g id="cL_watch_tooth" style=""></g><g id="cL_border" style="">	<rect x="0" class="cL-cls-12" width="59" height="66" /></g></defs></g></svg>