<?xml version="1.0" encoding="UTF-8" standalone="no"?>
<!-- Created with Inkscape (http://www.inkscape.org/) -->

<svg
   xmlns:dc="http://purl.org/dc/elements/1.1/"
   xmlns:cc="http://creativecommons.org/ns#"
   xmlns:rdf="http://www.w3.org/1999/02/22-rdf-syntax-ns#"
   xmlns:svg="http://www.w3.org/2000/svg"
   xmlns="http://www.w3.org/2000/svg"
   xmlns:sodipodi="http://sodipodi.sourceforge.net/DTD/sodipodi-0.dtd"
   xmlns:inkscape="http://www.inkscape.org/namespaces/inkscape"
   width="64.866142"
   height="230.31496"
   viewBox="0 0 64.866141 230.31501"
   id="svg5303"
   version="1.1"
   inkscape:version="0.91 r13725"
   sodipodi:docname="10.svg">
  <defs
     id="defs5305" />
  <sodipodi:namedview
     id="base"
     pagecolor="#ffffff"
     bordercolor="#666666"
     borderopacity="1.0"
     inkscape:pageopacity="0.0"
     inkscape:pageshadow="2"
     inkscape:zoom="4"
     inkscape:cx="-24.67696"
     inkscape:cy="162.09325"
     inkscape:document-units="px"
     inkscape:current-layer="layer1"
     showgrid="true"
     fit-margin-top="0"
     fit-margin-left="0"
     fit-margin-right="0"
     fit-margin-bottom="0"
     objecttolerance="10000"
     inkscape:window-width="1739"
     inkscape:window-height="917"
     inkscape:window-x="-8"
     inkscape:window-y="-8"
     inkscape:window-maximized="1"
     units="px">
    <inkscape:grid
       type="xygrid"
       id="grid5927"
       originx="-9.5020207"
       originy="-814.67162" />
  </sodipodi:namedview>
  <metadata
     id="metadata5308">
    <rdf:RDF>
      <cc:Work
         rdf:about="">
        <dc:format>image/svg+xml</dc:format>
        <dc:type
           rdf:resource="http://purl.org/dc/dcmitype/StillImage" />
        <dc:title></dc:title>
      </cc:Work>
    </rdf:RDF>
  </metadata>
  <g
     inkscape:label="Layer 1"
     inkscape:groupmode="layer"
     id="layer1"
     transform="translate(-9.502021,-7.3756207)">
    <g
       id="g4200"
       transform="translate(-3.7503178,-9.5000017)">
      <ellipse
         ry="10.000002"
         rx="10.000003"
         cy="27.612028"
         cx="43.250015"
         id="path4185"
         style="opacity:1;fill:#e6e6e6;fill-opacity:1;fill-rule:evenodd;stroke:#000000;stroke-width:0;stroke-linejoin:miter;stroke-miterlimit:4;stroke-dasharray:none;stroke-opacity:1" />
      <text
         sodipodi:linespacing="125%"
         id="text5899-5"
         y="32.983543"
         x="34.594044"
         style="font-style:normal;font-weight:normal;font-size:40px;line-height:125%;font-family:sans-serif;letter-spacing:0px;word-spacing:0px;fill:#333333;fill-opacity:1;stroke:none;stroke-width:1px;stroke-linecap:butt;stroke-linejoin:miter;stroke-opacity:1"
         xml:space="preserve"><tspan
           style="font-style:normal;font-variant:normal;font-weight:normal;font-stretch:normal;font-size:15.00000286px;font-family:Roboto;-inkscape-font-specification:Roboto;fill:#333333"
           y="32.983543"
           x="34.594044"
           id="tspan5901-5"
           sodipodi:role="line">10</tspan></text>
    </g>
    <path
       style="opacity:1;fill:#333333;fill-opacity:1;stroke:#000000;stroke-width:0.025;stroke-miterlimit:4;stroke-dasharray:none;stroke-opacity:0.52941165"
       d="m 38.087634,53.867819 c -0.736448,-10e-7 -2.881217,2.142445 -3.433594,3.429687 -0.718587,1.674573 -0.990463,3.444766 -1.425782,9.287109 -0.697256,9.357789 -1.958331,15.763997 -4.115234,20.908204 -1.666175,3.973826 -3.449875,11.330444 -4.013672,16.558591 -0.151834,1.40798 -0.28296,4.0106 -0.292968,5.7832 -0.01789,3.16918 -0.006,3.24854 0.789062,4.74024 1.018033,1.91002 3.432916,4.24694 5.427734,5.2539 2.750484,1.38844 9.181582,3.09681 14.201172,3.77149 2.374578,0.31916 6.04443,0.15902 7.128906,-0.31055 1.3683,-0.59247 1.653599,-1.09729 2.283204,-4.04687 0.52334,-2.45176 0.585392,-3.37358 0.570312,-8.5 -0.02829,-9.61604 -1.105385,-16.288602 -4.201172,-26.013673 -0.610373,-1.917413 -1.688495,-5.68008 -2.394531,-8.361328 -2.180788,-8.281801 -4.826403,-15.475759 -7.117187,-19.34961 -1.014813,-1.716108 -2.566131,-3.15039 -3.40625,-3.15039 z m 9.761718,74.378901 c -3.615452,0.003 -4.87413,0.10647 -7.25,0.59571 -8.489075,1.74809 -12.450951,3.78327 -14.08789,7.23828 l -0.78711,1.66211 0,5.875 c 2.01e-4,6.27594 0.149621,7.62168 1.382813,12.43164 1.193861,4.65657 3.150649,8.85008 5.820312,12.47656 1.29226,1.75541 2.419739,2.69107 3.671875,3.04688 1.205392,0.34257 6.683967,0.3541 8.298828,0.0176 1.847635,-0.38503 3.385319,-2.03281 5.257813,-5.63672 2.667403,-5.13383 3.930516,-10.1246 4.433594,-17.51953 0.31728,-4.66365 0.319253,-11.93996 0.0039,-15.18359 -0.480353,-4.94085 -0.571543,-5.00891 -6.744141,-5.00391 z"
       id="tooth10"
       inkscape:label="tooth 10"
       inkscape:connector-curvature="0" />
    <g
       id="10_R"
       inkscape:label="Root"
       style="opacity:0"
       transform="translate(48.554491,-271.01501)">
      <circle
         r="9.9430752"
         cy="341.45563"
         cx="-8.8027849"
         id="path5006-06"
         style="opacity:1;fill:#2195de;fill-opacity:1;stroke:#000000;stroke-width:0.11384872;stroke-miterlimit:4;stroke-dasharray:none;stroke-opacity:0.52941165" />
      <text
         sodipodi:linespacing="125%"
         id="text5012-3"
         y="348.68698"
         x="-15.826676"
         style="font-style:normal;font-weight:normal;font-size:20.90592384px;line-height:125%;font-family:sans-serif;letter-spacing:0px;word-spacing:0px;fill:#ffffff;fill-opacity:1;stroke:none;stroke-width:1px;stroke-linecap:butt;stroke-linejoin:miter;stroke-opacity:1"
         xml:space="preserve"><tspan
           style="font-style:normal;font-variant:normal;font-weight:bold;font-stretch:normal;font-family:Raleway;-inkscape-font-specification:'Raleway Bold';fill:#ffffff"
           y="348.68698"
           x="-15.826676"
           id="tspan5014-8"
           sodipodi:role="line">R</tspan></text>
    </g>
    <g
       id="10_S"
       transform="translate(124.99971,19.000007)"
       inkscape:label="Surface"
       style="opacity:0">
      <circle
         r="9.9430771"
         cy="84.190613"
         cx="-85.248001"
         id="path5006-0"
         style="opacity:1;fill:#2195de;fill-opacity:1;stroke:#000000;stroke-width:0.11384872;stroke-miterlimit:4;stroke-dasharray:none;stroke-opacity:0.52941165" />
      <text
         sodipodi:linespacing="125%"
         id="text5012-0"
         y="91.511269"
         x="-91.468323"
         style="font-style:normal;font-weight:normal;font-size:20.90592384px;line-height:125%;font-family:sans-serif;letter-spacing:0px;word-spacing:0px;fill:#ffffff;fill-opacity:1;stroke:none;stroke-width:1px;stroke-linecap:butt;stroke-linejoin:miter;stroke-opacity:1"
         xml:space="preserve"><tspan
           style="font-style:normal;font-variant:normal;font-weight:bold;font-stretch:normal;font-family:Raleway;-inkscape-font-specification:'Raleway Bold';fill:#ffffff"
           y="91.511269"
           x="-91.468323"
           id="tspan5014-1"
           sodipodi:role="line">S</tspan></text>
    </g>
    <g
       id="10_T"
       transform="translate(102.9997,31.250008)"
       inkscape:label="Tooth"
       style="opacity:0">
      <path
         style="fill:#2195de;fill-opacity:1;fill-rule:nonzero;stroke:#000000;stroke-width:0.14981237px;stroke-linecap:butt;stroke-linejoin:miter;stroke-miterlimit:4;stroke-dasharray:none;stroke-opacity:1"
         d="m -52.14864,117.47888 c 0,5.54309 -4.419499,9.96257 -9.962567,9.96257 -5.468154,0 -9.887625,-4.41948 -9.887625,-9.96257 0,-5.46818 4.419471,-9.88762 9.887625,-9.88762 5.543068,0 9.962567,4.41944 9.962567,9.88762 z"
         id="path4337"
         inkscape:connector-curvature="0" />
      <path
         style="fill:#ffffff;fill-opacity:1;fill-rule:nonzero;stroke:none"
         d="m -55.819071,112.98451 -4.794032,0 0,12.28466 -2.846415,0 0,-12.28466 -4.719096,0 0,-2.5468 12.359543,0 0,2.5468 z"
         id="path4339"
         inkscape:connector-curvature="0" />
    </g>
  </g>
</svg>
