<?xml version="1.0" encoding="UTF-8" standalone="no"?>
<!-- Created with Inkscape (http://www.inkscape.org/) -->

<svg
   xmlns:dc="http://purl.org/dc/elements/1.1/"
   xmlns:cc="http://creativecommons.org/ns#"
   xmlns:rdf="http://www.w3.org/1999/02/22-rdf-syntax-ns#"
   xmlns:svg="http://www.w3.org/2000/svg"
   xmlns="http://www.w3.org/2000/svg"
   xmlns:sodipodi="http://sodipodi.sourceforge.net/DTD/sodipodi-0.dtd"
   xmlns:inkscape="http://www.inkscape.org/namespaces/inkscape"
   width="64.866142"
   height="230.31496"
   viewBox="0 0 64.866141 230.31501"
   id="svg5303"
   version="1.1"
   inkscape:version="0.91 r13725"
   sodipodi:docname="14.svg">
  <defs
     id="defs5305">
    <pattern
       y="0"
       x="0"
       height="6"
       width="6"
       patternUnits="userSpaceOnUse"
       id="EMFhbasepattern" />
  </defs>
  <sodipodi:namedview
     id="base"
     pagecolor="#ffffff"
     bordercolor="#666666"
     borderopacity="1.0"
     inkscape:pageopacity="0.0"
     inkscape:pageshadow="2"
     inkscape:zoom="2"
     inkscape:cx="14.135163"
     inkscape:cy="121.029"
     inkscape:document-units="px"
     inkscape:current-layer="layer1"
     showgrid="true"
     fit-margin-top="0"
     fit-margin-left="0"
     fit-margin-right="0"
     fit-margin-bottom="0"
     objecttolerance="10000"
     inkscape:window-width="1739"
     inkscape:window-height="917"
     inkscape:window-x="1731"
     inkscape:window-y="-8"
     inkscape:window-maximized="1"
     units="px">
    <inkscape:grid
       type="xygrid"
       id="grid5927"
       originx="-9.5020207"
       originy="-814.67162" />
  </sodipodi:namedview>
  <metadata
     id="metadata5308">
    <rdf:RDF>
      <cc:Work
         rdf:about="">
        <dc:format>image/svg+xml</dc:format>
        <dc:type
           rdf:resource="http://purl.org/dc/dcmitype/StillImage" />
        <dc:title />
      </cc:Work>
    </rdf:RDF>
  </metadata>
  <g
     inkscape:label="Layer 1"
     inkscape:groupmode="layer"
     id="layer1"
     transform="translate(-9.502021,-7.3756207)">
    <path
       style="fill:#333333;fill-opacity:1;fill-rule:evenodd;stroke:#000000;stroke-width:0;stroke-linejoin:miter;stroke-miterlimit:4;stroke-dasharray:none;stroke-opacity:1"
       d="m 44.662754,42.559225 c 0.983134,0 1.407738,0.49447 1.753906,2.041015 0.304681,1.361163 0.388077,2.28801 0.822266,9.13086 0.149621,2.357746 0.459083,6.157179 0.6875,8.443359 0.176976,1.771378 0.327634,3.620471 0.417969,4.972656 0.737085,-0.95359 1.481476,-1.916169 2.132812,-2.789062 4.960995,-6.648504 6.509986,-9.585694 8.367188,-15.867188 1.462638,-4.947024 2.938521,-6.656129 4.314453,-4.990234 0.476511,0.576931 0.786416,1.449908 1.408203,3.982422 0.684651,2.788515 0.772306,3.496043 0.630859,5.050781 -0.199976,2.198842 -0.902634,4.865286 -2.111328,8.007813 -2.427809,6.311974 -3.828917,10.693393 -4.498047,14.103515 0.47627,0.250714 0.832326,0.553856 1.117188,0.945313 1.241814,1.706425 2.662309,6.408645 3.779296,12.509765 1.170343,6.392489 1.321411,9.870762 0.535157,12.37695 -0.313016,0.99782 -0.672592,1.53206 -2.273438,3.38282 -2.232701,2.58134 -5.090099,5.22772 -6.697265,6.20117 -1.096062,0.66368 -1.219128,0.69092 -3.042969,0.66992 -2.011593,-0.0231 -3.729187,-0.50129 -6.042969,-1.67969 -0.569897,-0.29021 -1.463928,-0.71241 -1.986328,-0.93945 -0.160182,-0.0696 -0.369737,-0.16671 -0.570312,-0.25586 a 5.4962717,1.990294 0 0 1 -4.048829,0.0195 c -0.715039,0.3499 -1.956646,1.1081 -3.011718,1.85547 -1.204675,0.85334 -2.681281,1.77811 -3.28125,2.05664 -2.34009,1.08633 -4.435831,0.55225 -7.441407,-1.89844 -4.290764,-3.49857 -6.314225,-6.17177 -7.132812,-9.42578 -0.322698,-1.28306 -0.312428,-4.91359 0.01953,-7.23828 0.389693,-2.729349 1.274361,-6.83913 3.154297,-14.664062 l 1.224609,-5.103516 c -0.963173,-5.041365 -1.234385,-7.270873 -1.238281,-10.191406 -0.0035,-3.993695 0.568307,-6.397443 2.28711,-9.619141 1.072029,-2.009422 3.96975,-5.672816 5.679687,-7.177734 3.075638,-2.706907 5.630859,-3.659644 5.630859,-2.099609 0,0.745011 -0.761974,2.581383 -1.683593,4.05664 -1.664828,2.664918 -2.048463,4.302099 -2.039063,8.722657 0.0078,3.688208 0.248385,6.126659 0.830078,8.427734 0.259389,1.02603 0.58223,1.921122 1.046875,2.83789 0.355746,-1.354387 0.902496,-2.915948 1.681641,-4.8125 2.442325,-5.944889 4.452561,-11.207559 5.417969,-14.179687 1.683142,-5.181899 2.702573,-6.863281 4.160156,-6.863281 z m -5.410156,86.882815 c 0.620317,0.0145 1.240776,0.074 1.855468,0.18945 1.922264,0.36088 5.22204,0.81872 7.332032,1.01758 4.679914,0.44109 7.229394,1.45306 10.292968,4.08594 2.941648,2.52803 4.460891,4.8042 5.326172,7.98046 0.661996,2.43003 0.709738,3.31604 0.546875,9.98047 -0.14721,6.02356 -0.3065,7.76085 -0.908203,9.85157 -1.736741,6.03482 -4.308306,8.15318 -10.53125,8.67187 -1.633929,0.1362 -4.387144,0.1792 -6.117187,0.0957 -1.730043,-0.0834 -3.696357,-0.15146 -4.369141,-0.15234 -0.436807,-5.8e-4 -2.494054,0.004 -4.197266,0.008 -0.189488,0.0181 -0.495583,0.0556 -0.630859,0.0664 -1.444938,0.11573 -3.124562,0.0649 -4.619141,-0.0937 -4.298235,-0.10122 -5.76688,-0.53675 -7.423828,-1.89063 -1.933271,-1.57967 -3.828357,-4.87305 -4.761719,-8.27539 -1.358118,-4.95075 -0.946718,-9.87559 -0.949218,-17.66601 -0.0013,-3.71856 0.836582,-6.47545 1.560547,-7.47266 1.02142,-1.40698 2.612197,-3.16766 5.966797,-3.82422 2.912594,-0.57005 7.284728,-2.67382 11.626953,-2.57226 z m 1.05664,59.23242 c 2.313531,-0.11713 3.916078,0.43541 5.914063,1.74023 1.282166,0.83736 2.556716,1.52149 2.830078,1.52149 0.273354,0 1.132028,-0.39736 1.908203,-0.88282 2.26649,-1.41764 4.050763,-0.98238 7.484375,1.82618 6.375938,5.21522 7.483876,7.7731 6.179688,14.25 -0.756148,3.75523 -3.76374,12.01803 -4.927735,13.53711 -0.644717,0.84136 -1.049441,0.93721 -3.996094,0.94921 -1.873841,0.008 -4.011493,0.27984 -4.986328,0.63477 -2.63315,0.9587 -10.383561,0.51873 -16.289062,-0.92383 -4.655109,-1.13712 -4.701759,-1.13879 -6.419922,-0.39062 -2.168197,0.94412 -2.324671,0.80125 -4.048828,-3.65821 -3.62497,-9.37578 -4.738254,-18.17648 -2.701172,-21.35156 1.407496,-2.19376 6.355085,-4.45217 13.882812,-6.33594 2.137567,-0.53492 3.781804,-0.84573 5.169922,-0.91601 z"
       id="tooth14"
       inkscape:connector-curvature="0"
       inkscape:label="tooth 14" />
    <ellipse
       style="opacity:1;fill:#e6e6e6;fill-opacity:1;fill-rule:evenodd;stroke:#000000;stroke-width:0;stroke-linejoin:miter;stroke-miterlimit:4;stroke-dasharray:none;stroke-opacity:1"
       id="path4185"
       cx="41.249897"
       cy="17.612028"
       rx="10.000003"
       ry="10.000002" />
    <text
       xml:space="preserve"
       style="font-style:normal;font-weight:normal;font-size:40px;line-height:125%;font-family:sans-serif;letter-spacing:0px;word-spacing:0px;fill:#333333;fill-opacity:1;stroke:none;stroke-width:1px;stroke-linecap:butt;stroke-linejoin:miter;stroke-opacity:1"
       x="32.343922"
       y="22.983541"
       id="text5899-6"
       sodipodi:linespacing="125%"><tspan
         sodipodi:role="line"
         id="tspan5901-8"
         x="32.343922"
         y="22.983541"
         style="font-style:normal;font-variant:normal;font-weight:normal;font-stretch:normal;font-size:15.00000286px;font-family:Roboto;-inkscape-font-specification:Roboto;fill:#333333">14</tspan></text>
    <g
       id="14_R"
       transform="translate(87.749898,9.7500017)"
       inkscape:label="Root"
       style="opacity:0">
      <path
         style="fill:#2195de;fill-opacity:1;fill-rule:nonzero;stroke:#000000;stroke-width:0.14981239px;stroke-linecap:butt;stroke-linejoin:miter;stroke-miterlimit:4;stroke-dasharray:none;stroke-opacity:1"
         d="m -35.572904,68.304603 c 0,5.54307 -4.4195,9.962566 -9.96257,9.962566 -5.468154,0 -9.887622,-4.419496 -9.887622,-9.962566 0,-5.468154 4.419468,-9.887623 9.887622,-9.887623 5.54307,0 9.96257,4.419469 9.96257,9.887623 z"
         id="path4179"
         inkscape:connector-curvature="0" />
      <path
         style="fill:#ffffff;fill-opacity:1;fill-rule:nonzero;stroke:none"
         d="m -51.003628,75.570527 0,-14.831458 6.591727,0 c 0.674161,0 1.273414,0.149802 1.872666,0.449441 0.599257,0.22472 1.048697,0.599246 1.498138,1.123594 0.44944,0.44944 0.749065,0.973778 0.973789,1.573031 0.22472,0.599246 0.374532,1.198498 0.374532,1.797751 0,0.89887 -0.22472,1.797744 -0.749069,2.621717 -0.44944,0.749037 -1.123601,1.34829 -1.947574,1.647918 l 3.370804,5.618006 -3.220991,0 -2.996271,-5.018753 -2.846406,0 0,5.018753 -2.921345,0 z m 2.921345,-7.490644 3.595474,0 c 0.299639,0 0.524349,-0.07492 0.749069,-0.22472 0.22472,-0.07492 0.44944,-0.299639 0.599253,-0.524349 0.149801,-0.149801 0.299638,-0.449429 0.374532,-0.749058 0.07492,-0.299638 0.149802,-0.599252 0.149802,-0.89887 0,-0.374532 -0.07492,-0.674161 -0.149802,-0.973785 -0.149801,-0.299604 -0.299639,-0.524338 -0.44944,-0.749058 -0.22472,-0.22472 -0.449441,-0.374536 -0.674161,-0.524349 -0.22472,-0.149801 -0.44944,-0.149801 -0.749065,-0.149801 l -3.445662,0 0,4.794001 z"
         id="path4181"
         inkscape:connector-curvature="0" />
    </g>
    <g
       id="14_S"
       transform="translate(87.749898,60.000011)"
       inkscape:label="Surface"
       style="opacity:0">
      <path
         style="fill:#2195de;fill-opacity:1;fill-rule:nonzero;stroke:#000000;stroke-width:0.14981307px;stroke-linecap:butt;stroke-linejoin:miter;stroke-miterlimit:4;stroke-dasharray:none;stroke-opacity:1"
         d="m -35.29774,90.106129 c 0,5.543024 -4.419418,9.962541 -9.887637,9.962541 -5.543066,0 -9.962555,-4.419517 -9.962555,-9.962541 0,-5.468222 4.419489,-9.887739 9.962555,-9.887739 5.468219,0 9.887637,4.419517 9.887637,9.887739 z"
         id="path4183"
         inkscape:connector-curvature="0" />
      <path
         style="fill:#ffffff;fill-opacity:1;fill-rule:nonzero;stroke:none"
         d="m -41.065486,86.510589 c -0.07492,-0.07492 -0.224721,-0.224722 -0.524351,-0.374535 -0.224721,-0.224721 -0.599255,-0.374541 -0.973793,-0.524354 -0.29964,-0.149802 -0.749068,-0.29964 -1.123606,-0.374534 -0.449443,-0.149803 -0.898885,-0.224721 -1.348328,-0.224721 -0.823976,0 -1.348295,0.149802 -1.797738,0.449442 -0.374538,0.29964 -0.524351,0.749072 -0.524351,1.273423 0,0.29964 0,0.524351 0.149803,0.749072 0.149802,0.224721 0.374534,0.374534 0.674163,0.524347 0.299641,0.149803 0.599228,0.29964 1.04867,0.449443 0.449443,0.07492 0.898885,0.224721 1.498141,0.374538 0.674164,0.149802 1.348327,0.374534 1.947586,0.599255 0.599256,0.224721 1.123607,0.524351 1.498141,0.823977 0.449442,0.374538 0.749072,0.748973 0.973793,1.198415 0.224721,0.524348 0.29964,1.048698 0.29964,1.722862 0,0.823977 -0.149802,1.498141 -0.449442,2.0974 -0.29964,0.524347 -0.674164,0.97379 -1.198515,1.348327 -0.524347,0.29964 -1.123606,0.599256 -1.722862,0.749069 -0.674163,0.149802 -1.348327,0.224721 -2.097399,0.224721 -1.123606,0 -2.247184,-0.149802 -3.295872,-0.524347 -1.123596,-0.29964 -2.097378,-0.749072 -2.921359,-1.348328 l 1.273413,-2.546842 c 0.149802,0.149803 0.374534,0.29964 0.674163,0.524351 0.299605,0.224721 0.674154,0.374534 1.123596,0.599255 0.449443,0.224722 0.973783,0.374535 1.498134,0.524351 0.524319,0.149803 1.123574,0.224721 1.647925,0.224721 1.647957,0 2.397029,-0.52435 2.397029,-1.573048 0,-0.29964 -0.07492,-0.599259 -0.224721,-0.823981 -0.224722,-0.224721 -0.449443,-0.374534 -0.823977,-0.524347 -0.29964,-0.224721 -0.749072,-0.374538 -1.198515,-0.524351 -0.449442,-0.07492 -0.973789,-0.224721 -1.573048,-0.449442 -0.749041,-0.149803 -1.348289,-0.374534 -1.872636,-0.599157 -0.524351,-0.224721 -0.898875,-0.52435 -1.273413,-0.823976 -0.374534,-0.299641 -0.599255,-0.674164 -0.823966,-1.048702 -0.149802,-0.449443 -0.224721,-0.97379 -0.224721,-1.498141 0,-0.749072 0.149802,-1.423239 0.449432,-2.022494 0.224721,-0.599256 0.599255,-1.048698 1.123606,-1.423236 0.52434,-0.449443 1.048688,-0.749069 1.722844,-0.898885 0.674164,-0.224722 1.348296,-0.29964 2.097368,-0.29964 1.048698,0 2.022491,0.149802 2.921377,0.449442 0.82398,0.374534 1.647957,0.749069 2.247212,1.198511 l -1.273419,2.322125 z"
         id="path4185-4"
         inkscape:connector-curvature="0" />
    </g>
    <g
       id="14_T"
       transform="translate(91.749899,68.500012)"
       inkscape:label="Tooth"
       style="opacity:0">
      <path
         style="fill:#2195de;fill-opacity:1;fill-rule:nonzero;stroke:#000000;stroke-width:0.15037632px;stroke-linecap:butt;stroke-linejoin:miter;stroke-miterlimit:4;stroke-dasharray:none;stroke-opacity:1"
         d="m -39.446188,137.30938 c 0,5.56395 -4.436033,10.00011 -10,10.00011 -5.413531,0 -9.849628,-4.43616 -9.849628,-10.00011 0,-5.48879 4.436097,-9.92492 9.849628,-9.92492 5.563967,0 10,4.43613 10,9.92492 z"
         id="path4187"
         inkscape:connector-curvature="0" />
      <path
         style="fill:#ffffff;fill-opacity:1;fill-rule:nonzero;stroke:none"
         d="m -43.130337,132.79805 -4.812078,0 0,12.33094 -2.781952,0 0,-12.33094 -4.73685,0 0,-2.55643 12.33088,0 0,2.55643 z"
         id="path4189"
         inkscape:connector-curvature="0" />
    </g>
  </g>
</svg>
