<?xml version="1.0" encoding="UTF-8" standalone="no"?>
<!-- Created with Inkscape (http://www.inkscape.org/) -->

<svg
   xmlns:dc="http://purl.org/dc/elements/1.1/"
   xmlns:cc="http://creativecommons.org/ns#"
   xmlns:rdf="http://www.w3.org/1999/02/22-rdf-syntax-ns#"
   xmlns:svg="http://www.w3.org/2000/svg"
   xmlns="http://www.w3.org/2000/svg"
   xmlns:sodipodi="http://sodipodi.sourceforge.net/DTD/sodipodi-0.dtd"
   xmlns:inkscape="http://www.inkscape.org/namespaces/inkscape"
   width="64.866142"
   height="230.31496"
   viewBox="0 0 64.866141 230.31501"
   id="svg5303"
   version="1.1"
   inkscape:version="0.91 r13725"
   sodipodi:docname="15.svg">
  <defs
     id="defs5305" />
  <sodipodi:namedview
     id="base"
     pagecolor="#ffffff"
     bordercolor="#666666"
     borderopacity="1.0"
     inkscape:pageopacity="0.0"
     inkscape:pageshadow="2"
     inkscape:zoom="2"
     inkscape:cx="-100.95931"
     inkscape:cy="134.12554"
     inkscape:document-units="px"
     inkscape:current-layer="layer1"
     showgrid="true"
     fit-margin-top="0"
     fit-margin-left="0"
     fit-margin-right="0"
     fit-margin-bottom="0"
     objecttolerance="10000"
     inkscape:window-width="1739"
     inkscape:window-height="917"
     inkscape:window-x="-8"
     inkscape:window-y="-8"
     inkscape:window-maximized="1"
     units="px">
    <inkscape:grid
       type="xygrid"
       id="grid5927"
       originx="-9.5020207"
       originy="-814.67162" />
  </sodipodi:namedview>
  <metadata
     id="metadata5308">
    <rdf:RDF>
      <cc:Work
         rdf:about="">
        <dc:format>image/svg+xml</dc:format>
        <dc:type
           rdf:resource="http://purl.org/dc/dcmitype/StillImage" />
        <dc:title></dc:title>
      </cc:Work>
    </rdf:RDF>
  </metadata>
  <g
     inkscape:label="Layer 1"
     inkscape:groupmode="layer"
     id="layer1"
     transform="translate(-9.502021,-7.3756207)">
    <path
       style="fill:#333333;fill-opacity:1;fill-rule:evenodd;stroke:#000000;stroke-width:0;stroke-linejoin:miter;stroke-miterlimit:4;stroke-dasharray:none;stroke-opacity:1"
       d="m 49.703604,44.678365 c -0.361079,0.04523 -0.578125,0.204164 -0.578125,0.464844 0,0.13731 0.661732,1.727537 1.46875,3.535156 1.528772,3.42422 2.430357,6.078535 2.587891,7.615235 0.165745,1.617089 -0.442675,5.251041 -1.267579,7.574219 -0.185349,0.522013 -0.403575,1.053175 -0.642578,1.595703 0.01809,-0.116651 0.05174,-0.250471 0.06641,-0.363282 0.244263,-1.878707 0.214253,-4.74298 -0.06055,-5.875 -0.339654,-1.399409 -0.917406,-2.957853 -2.029297,-5.470703 -1.496979,-3.383129 -1.752492,-4.117932 -1.853516,-5.326172 -0.12836,-1.534867 -0.748093,-2.449469 -1.93164,-2.849609 l -0.002,0 c -0.339283,-0.114009 -1.047281,-0.172873 -1.833984,-0.154297 -1.195373,0.02821 -1.300321,0.05302 -1.552734,0.371094 -0.55944,0.70507 -0.854596,2.372585 -1.546875,8.777344 -0.49944,4.620979 -0.738739,6.395539 -1.111329,8.199218 -0.152589,0.738668 -0.342975,1.655733 -0.421874,2.039063 -0.0408,0.19803 -0.05163,0.345842 -0.06445,0.498047 -0.324319,-0.441293 -0.596413,-0.826524 -0.945312,-1.294922 -3.748862,-5.032887 -6.006001,-8.289418 -8.361328,-12.060547 -2.521048,-4.036419 -3.190788,-4.975304 -3.871094,-5.427734 -0.463388,-0.30813 -0.562663,-0.312929 -0.923828,-0.04297 -0.626521,0.46834 -0.727791,0.913908 -0.712891,3.173828 0.029,4.367289 0.564142,7.224468 2.519531,13.466797 1.787213,5.705528 2.032044,6.827753 2.027344,9.289062 -0.0023,1.278741 -0.05743,1.946327 -0.310547,2.949219 -1.401839,0.403696 -2.125505,0.929589 -2.833984,1.904297 -2.46101,3.3858 -4.205821,8.894122 -4.869141,15.369141 -0.21944,2.141939 -0.159138,5.852972 0.113282,6.982422 0.50815,2.106952 1.256632,3.431722 3.732422,6.599612 1.9578,2.50516 2.964168,3.52268 4.287109,4.33984 1.47872,0.91341 2.266744,1.14853 3.871094,1.14453 1.890911,-0.003 2.915059,-0.33177 5.515625,-1.7539 a 5.6320768,3.3234419 0 0 0 0.002,0.002 5.6320768,3.3234419 0 0 0 1.527343,1.2539 5.6320768,3.3234419 0 0 0 7.40625,-0.0254 c 5.818405,3.21542 2.440524,1.55393 4.861329,2.64649 1.595965,0.72031 2.820215,1.33335 7.980468,-0.67188 1.274238,-0.49517 4.873692,-3.11708 5.462891,-4.17968 0.562862,-1.01511 1.136004,-2.53613 1.375,-3.64844 0.231337,-1.0767 0.315247,-4.92508 0.152344,-7.015626 -0.366345,-4.701581 -1.973178,-16.5713 -2.63086,-19.4375 -0.18824,-0.820371 -0.359449,-1.37603 -0.5625,-1.796875 0.05781,-1.155351 0.07597,-3.009178 0.07813,-7.09961 0.0016,-4.93522 -0.04467,-7.697505 -0.146484,-8.853515 -0.365442,-4.15057 -0.769424,-5.982289 -1.666016,-7.548828 -1.436709,-2.51013 -8.002166,-7.760444 -10.857421,-8.683594 -0.581094,-0.18788 -1.086187,-0.25617 -1.447266,-0.210938 z M 40.92626,128.41665 c -4.020068,0.0734 -8.016034,1.82314 -10.724609,2.28125 -3.359574,0.56822 -4.988215,2.28799 -6.041016,3.66992 -0.746199,0.97947 -2.360453,4.5413 -2.451172,8.26562 -0.190046,7.8025 -0.01231,11.90194 1.21875,16.89649 0.846053,3.43245 2.653318,6.78242 4.541016,8.41601 1.697995,1.46942 2.332743,2.4865 6.916015,2.83203 1.634109,0.25344 3.687208,0.35176 5.386719,0.20899 0.103028,-0.009 0.343714,-0.0394 0.480469,-0.0527 1.815608,0.0144 3.421941,0.0198 3.828125,0.0312 0.6705,0.0188 3.812994,0.38789 5.535156,0.51758 1.722164,0.12971 3.438511,-0.74503 5.070313,-0.83789 6.214862,-0.35372 8.830736,-2.40642 10.710937,-8.4043 0.651409,-2.07792 0.85466,-3.81484 1.150391,-9.84375 0.327195,-6.67036 0.300829,-7.55835 -0.298828,-10.00976 -0.783799,-3.2042 -2.242102,-5.52446 -5.111328,-8.13477 -2.988143,-2.71853 -5.504919,-3.80075 -10.158204,-4.36718 -2.097987,-0.25537 -5.374372,-0.8022 -7.28125,-1.21485 -0.914657,-0.19794 -1.843776,-0.27085 -2.771484,-0.2539 z m -9.630859,57.86914 c -2.420611,-0.007 -4.437456,0.81042 -7.007813,2.69531 -3.49174,2.56053 -5.21819,4.58493 -6.353515,7.44922 -0.902188,2.27614 -0.93256,2.57384 -0.53711,5.26562 0.477404,3.2497 2.584648,12.40151 3.710938,16.11719 1.280131,4.22321 1.545818,4.3457 9.328125,4.26758 3.672714,-0.0368 8.17142,-0.23626 9.996094,-0.44336 1.824682,-0.2071 7.04963,-0.25667 11.611328,-0.10938 9.678995,0.31249 9.379094,0.43133 11.333984,-4.51757 1.53499,-3.8859 2.057758,-7.89732 1.871094,-14.35938 -0.173531,-6.00765 -0.802661,-8.04929 -3.220703,-10.44727 -3.062036,-3.03665 -4.597731,-3.48078 -9.658203,-2.79101 -3.075482,0.41921 -4.235795,0.41788 -5.185547,-0.006 -1.095472,-0.48944 -2.992701,-0.89707 -13.296875,-2.84961 -0.932351,-0.17667 -1.784927,-0.26914 -2.591797,-0.27148 z"
       id="tooth15"
       inkscape:label="tooth 15"
       inkscape:connector-curvature="0" />
    <ellipse
       style="opacity:1;fill:#e6e6e6;fill-opacity:1;fill-rule:evenodd;stroke:#000000;stroke-width:0;stroke-linejoin:miter;stroke-miterlimit:4;stroke-dasharray:none;stroke-opacity:1"
       id="path4185"
       cx="41.250439"
       cy="17.862028"
       rx="10.000003"
       ry="10.000002" />
    <text
       xml:space="preserve"
       style="font-style:normal;font-weight:normal;font-size:40px;line-height:125%;font-family:sans-serif;letter-spacing:0px;word-spacing:0px;fill:#333333;fill-opacity:1;stroke:none;stroke-width:1px;stroke-linecap:butt;stroke-linejoin:miter;stroke-opacity:1"
       x="32.094463"
       y="22.98354"
       id="text5899-8"
       sodipodi:linespacing="125%"><tspan
         sodipodi:role="line"
         id="tspan5901-4"
         x="32.094463"
         y="22.98354"
         style="font-style:normal;font-variant:normal;font-weight:normal;font-stretch:normal;font-size:15.00000286px;font-family:Roboto;-inkscape-font-specification:Roboto;fill:#333333">15</tspan></text>
    <g
       id="15_R"
       inkscape:label="Root"
       style="opacity:0"
       transform="translate(53.805225,-262.76502)">
      <circle
         r="9.9430752"
         cy="341.45563"
         cx="-8.8027849"
         id="path5006-06"
         style="opacity:1;fill:#2195de;fill-opacity:1;stroke:#000000;stroke-width:0.11384872;stroke-miterlimit:4;stroke-dasharray:none;stroke-opacity:0.52941165" />
      <text
         sodipodi:linespacing="125%"
         id="text5012-3"
         y="348.68698"
         x="-15.826676"
         style="font-style:normal;font-weight:normal;font-size:20.90592384px;line-height:125%;font-family:sans-serif;letter-spacing:0px;word-spacing:0px;fill:#ffffff;fill-opacity:1;stroke:none;stroke-width:1px;stroke-linecap:butt;stroke-linejoin:miter;stroke-opacity:1"
         xml:space="preserve"><tspan
           style="font-style:normal;font-variant:normal;font-weight:bold;font-stretch:normal;font-family:Raleway;-inkscape-font-specification:'Raleway Bold';fill:#ffffff"
           y="348.68698"
           x="-15.826676"
           id="tspan5014-8"
           sodipodi:role="line">R</tspan></text>
    </g>
    <g
       id="15_S"
       transform="translate(129.75045,65.750014)"
       inkscape:label="Surface"
       style="opacity:0">
      <circle
         r="9.9430771"
         cy="84.190613"
         cx="-85.248001"
         id="path5006-0"
         style="opacity:1;fill:#2195de;fill-opacity:1;stroke:#000000;stroke-width:0.11384872;stroke-miterlimit:4;stroke-dasharray:none;stroke-opacity:0.52941165" />
      <text
         sodipodi:linespacing="125%"
         id="text5012-0"
         y="91.511269"
         x="-91.468323"
         style="font-style:normal;font-weight:normal;font-size:20.90592384px;line-height:125%;font-family:sans-serif;letter-spacing:0px;word-spacing:0px;fill:#ffffff;fill-opacity:1;stroke:none;stroke-width:1px;stroke-linecap:butt;stroke-linejoin:miter;stroke-opacity:1"
         xml:space="preserve"><tspan
           style="font-style:normal;font-variant:normal;font-weight:bold;font-stretch:normal;font-family:Raleway;-inkscape-font-specification:'Raleway Bold';fill:#ffffff"
           y="91.511269"
           x="-91.468323"
           id="tspan5014-1"
           sodipodi:role="line">S</tspan></text>
    </g>
    <g
       id="15_T"
       transform="translate(106.50044,87.000017)"
       inkscape:label="Tooth"
       style="opacity:0">
      <path
         style="fill:#2195de;fill-opacity:1;fill-rule:nonzero;stroke:#000000;stroke-width:0.14981237px;stroke-linecap:butt;stroke-linejoin:miter;stroke-miterlimit:4;stroke-dasharray:none;stroke-opacity:1"
         d="m -52.14864,117.47888 c 0,5.54309 -4.419499,9.96257 -9.962567,9.96257 -5.468154,0 -9.887625,-4.41948 -9.887625,-9.96257 0,-5.46818 4.419471,-9.88762 9.887625,-9.88762 5.543068,0 9.962567,4.41944 9.962567,9.88762 z"
         id="path4337"
         inkscape:connector-curvature="0" />
      <path
         style="fill:#ffffff;fill-opacity:1;fill-rule:nonzero;stroke:none"
         d="m -55.819071,112.98451 -4.794032,0 0,12.28466 -2.846415,0 0,-12.28466 -4.719096,0 0,-2.5468 12.359543,0 0,2.5468 z"
         id="path4339"
         inkscape:connector-curvature="0" />
    </g>
  </g>
</svg>
