<?xml version="1.0" encoding="UTF-8" standalone="no"?>
<!-- Created with Inkscape (http://www.inkscape.org/) -->

<svg
   xmlns:dc="http://purl.org/dc/elements/1.1/"
   xmlns:cc="http://creativecommons.org/ns#"
   xmlns:rdf="http://www.w3.org/1999/02/22-rdf-syntax-ns#"
   xmlns:svg="http://www.w3.org/2000/svg"
   xmlns="http://www.w3.org/2000/svg"
   xmlns:sodipodi="http://sodipodi.sourceforge.net/DTD/sodipodi-0.dtd"
   xmlns:inkscape="http://www.inkscape.org/namespaces/inkscape"
   width="64.866142"
   height="230.31496"
   viewBox="0 0 64.866141 230.31501"
   id="svg5303"
   version="1.1"
   inkscape:version="0.91 r13725"
   sodipodi:docname="19.svg">
  <defs
     id="defs5305">
    <pattern
       y="0"
       x="0"
       height="6"
       width="6"
       patternUnits="userSpaceOnUse"
       id="EMFhbasepattern" />
    <pattern
       y="0"
       x="0"
       height="6"
       width="6"
       patternUnits="userSpaceOnUse"
       id="EMFhbasepattern-4" />
  </defs>
  <sodipodi:namedview
     id="base"
     pagecolor="#ffffff"
     bordercolor="#666666"
     borderopacity="1.0"
     inkscape:pageopacity="0.0"
     inkscape:pageshadow="2"
     inkscape:zoom="2.8284271"
     inkscape:cx="-188.71696"
     inkscape:cy="126.2395"
     inkscape:document-units="px"
     inkscape:current-layer="layer1"
     showgrid="true"
     fit-margin-top="0"
     fit-margin-left="0"
     fit-margin-right="0"
     fit-margin-bottom="0"
     objecttolerance="10000"
     inkscape:window-width="1739"
     inkscape:window-height="917"
     inkscape:window-x="-8"
     inkscape:window-y="-8"
     inkscape:window-maximized="1"
     units="px">
    <inkscape:grid
       type="xygrid"
       id="grid5927"
       originx="-9.5020207"
       originy="-814.67162" />
  </sodipodi:namedview>
  <metadata
     id="metadata5308">
    <rdf:RDF>
      <cc:Work
         rdf:about="">
        <dc:format>image/svg+xml</dc:format>
        <dc:type
           rdf:resource="http://purl.org/dc/dcmitype/StillImage" />
        <dc:title></dc:title>
      </cc:Work>
    </rdf:RDF>
  </metadata>
  <g
     inkscape:label="Layer 1"
     inkscape:groupmode="layer"
     id="layer1"
     transform="translate(-9.502021,-7.3756207)">
    <path
       style="fill:#333333;fill-opacity:1"
       d="m 40.047956,21.877584 c 0.810421,-0.04566 1.391839,0.31562 2.515625,1.207031 1.791599,1.421136 2.914448,1.838103 4.806641,1.789063 4.672716,-0.121041 6.195667,-0.04583 7.185547,0.353515 1.519651,0.61309 2.454102,1.336511 3.68164,2.84961 1.940751,2.392262 4.372284,7.8369 4.90625,10.984375 0.394319,2.324369 0.508082,5.790052 0.273438,8.353515 -0.588947,6.43379 -1.774317,6.048359 -6.574219,7.314454 -3.502743,0.923937 -7.938178,0.990464 -12.226563,-1.115235 -3.915973,-1.922848 -5.095703,-0.859375 -5.095703,-0.859375 -3.523824,2.230538 -8.234598,2.61399 -12.449219,3.513672 -2.041543,0.435797 -4.686339,0.204488 -5.728515,-0.501953 -1.023807,-0.694007 -2.919955,-3.263947 -3.40625,-4.617187 -0.81896,-2.279252 -1.002209,-4.016943 -0.845703,-7.970704 0.116466,-2.941336 0.235898,-4.087978 0.646484,-6.195312 1.060319,-5.442148 2.559199,-9.581215 4.169922,-11.515625 1.379188,-1.656373 2.357135,-1.981618 6.076172,-2.017578 4.62692,-0.04474 8.428526,-0.446691 10.191406,-1.078125 0.817155,-0.292699 1.386794,-0.466744 1.873047,-0.494141 z m 8.269531,48.445313 c 1.123717,0.01714 2.234382,0.06169 3.0625,0.128906 6.307908,0.512048 8.915329,2.60106 10.675782,8.558594 0.609917,2.063937 0.772653,3.780164 0.921874,9.726562 0.165085,6.579065 0.116347,7.454608 -0.554687,9.853516 -0.877095,3.135565 -2.418581,5.381285 -5.400391,7.876955 -3.105402,2.59915 -5.689784,3.59971 -10.433593,4.03515 -2.138809,0.19632 -5.483131,0.64765 -7.431641,1.00391 -4.984679,0.91143 -10.291889,-1.70841 -13.666016,-2.35156 -3.400401,-0.64816 -5.013462,-2.38645 -6.048828,-3.77539 -0.733848,-0.98445 -1.583331,-3.70604 -1.582031,-7.376956 0.0025,-7.690628 -0.41377,-12.552127 0.962891,-17.439453 0.946105,-3.35877 2.866505,-6.61049 4.826172,-8.169922 2.02323,-1.609999 3.70599,-1.912939 10.548828,-1.896484 2.922776,0.0069 5.870755,0.01259 6.552734,0.01172 0.68197,-8.67e-4 2.676023,-0.06997 4.429688,-0.152343 0.876835,-0.04122 2.013001,-0.05034 3.136718,-0.0332 z M 26.860456,122.96547 c 0.183589,0.005 0.274956,0.046 0.316406,0.10352 1.095106,0.13735 2.20876,0.58684 3.363281,1.34766 0.360541,0.17598 0.705673,0.33457 1.097657,0.54492 0.285135,0.15301 0.51881,0.27298 0.767578,0.40234 0.118044,0.0591 0.25157,0.12885 0.363281,0.1836 2.641907,0.89204 5.9013,0.57195 9.548828,-0.97071 2.680233,-1.13346 4.199015,-1.33724 6.140625,-0.40039 0.123583,0.0532 0.248349,0.11347 0.373047,0.17774 0.04149,0.0225 0.08303,0.0409 0.125,0.0644 0.188525,0.10219 0.389855,0.23945 0.585938,0.36719 0.55983,0.35426 1.151716,0.76071 1.83789,1.28515 1.01692,0.7775 2.972536,1.43203 4.714844,1.63086 0.537648,-0.13577 1.047863,-0.19946 1.535156,-0.19726 2.138236,-0.32179 2.923363,0.16234 4.402344,2.41601 2.140015,3.26088 2.960348,5.96676 2.431641,9.68555 -0.09573,0.92338 -0.289387,1.90523 -0.582032,2.98047 -0.03747,0.27192 -0.09365,0.47743 -0.173828,0.56054 -0.02661,0.0904 -0.05991,0.18754 -0.08789,0.2793 -0.562542,2.15917 -1.408106,4.53446 -2.558594,7.18945 -0.962151,2.22008 -1.70505,4.1788 -2.242188,5.99415 -0.503894,1.81555 -0.830475,3.48863 -0.988281,5.08398 -0.273028,3.39203 0.304361,6.65543 1.667969,10.80273 0.173654,0.52817 0.332237,1.0958 0.484375,1.67969 0.392406,1.32536 0.697231,2.78049 0.912109,4.34766 l 0.05469,-1.17774 0.06055,2.03711 c 0.120851,1.0687 0.197456,2.18777 0.236328,3.34571 2.1e-5,6.4e-4 -2.2e-5,0.001 0,0.002 0.0047,0.1 0.01358,0.20118 0.01758,0.30078 0.01523,0.38969 0.02119,0.78518 0.02539,1.17969 7e-6,6.5e-4 -6e-6,0.001 0,0.002 0.0012,0.12011 0.0078,0.24411 0.0078,0.36328 0,0.63948 0.02939,1.15102 0.04687,1.71485 0.01416,0.46156 0.01258,0.98662 0.03906,1.40039 0.0016,0.0242 0.0043,0.0443 0.0059,0.0684 0.0036,0.0517 0.0099,0.0975 0.01367,0.14843 0.133368,1.25005 0.303241,2.40888 0.511718,3.33985 0.0092,0.0331 0.01986,0.0632 0.0293,0.0957 0.23687,0.77615 0.536514,1.41208 0.914063,1.91211 0.05536,0.0734 0.07184,0.1092 0.123047,0.17773 0.02388,0.032 0.03562,0.0511 0.05859,0.082 0.04531,0.0649 0.09789,0.13541 0.138672,0.19727 0.809579,1.11715 0.985464,1.6164 0.369141,2.31055 -0.0043,0.11572 -0.0213,0.21867 -0.06055,0.29492 l 0.002,0 c -0.0064,0.0123 -0.01491,0.0229 -0.02148,0.0352 -0.0016,0.003 -0.0022,0.008 -0.0039,0.0117 l 0.002,0 c -0.06679,0.12948 -0.145643,0.25323 -0.232422,0.36524 -0.185288,0.2709 -0.411201,0.46694 -0.597656,0.52344 -0.1195,0.1103 -0.258939,0.20047 -0.394532,0.29882 -0.0053,0.004 -0.01033,0.008 -0.01563,0.0117 -0.03485,0.024 -0.06581,0.051 -0.101562,0.0742 -0.0087,0.006 -0.01856,0.01 -0.02734,0.0156 -7.47e-4,4.7e-4 -0.0012,10e-4 -0.002,0.002 -0.286846,0.19124 -0.585905,0.34668 -0.898438,0.46484 -0.01792,0.0506 -0.09959,0.0866 -0.265624,0.11133 -0.278093,0.0828 -0.5508,0.12891 -0.804688,0.12891 -0.01782,0 -0.04039,-0.0109 -0.05859,-0.0117 -0.0012,-6e-5 -0.0027,6e-5 -0.0039,0 -0.04844,0.003 -0.09901,0.0115 -0.146484,0.0117 -0.0031,1e-5 -0.0066,0 -0.0098,0 -0.03534,0 -0.07862,-0.0185 -0.115234,-0.0215 -0.03402,0.003 -0.08179,0.0215 -0.113282,0.0215 -0.223634,0 -0.512559,-0.13285 -0.839843,-0.34766 -0.05546,-0.0302 -0.105149,-0.046 -0.16211,-0.0801 -0.06113,-0.0363 -0.130562,-0.0922 -0.193359,-0.13281 -3.320062,-2.14505 -8.912065,-10.23664 -11.826172,-17.53711 -1.523905,-3.81648 -3.195865,-6.74625 -4.775391,-8.61133 -0.153079,-0.17315 -0.309082,-0.37161 -0.460937,-0.52734 -0.08048,-0.0853 -0.15846,-0.15502 -0.238281,-0.23438 -0.311662,-0.3019 -0.620222,-0.57534 -0.921875,-0.79687 -0.136713,-0.1004 -0.270357,-0.18265 -0.404297,-0.26563 -0.122971,-0.0732 -0.245319,-0.14703 -0.365235,-0.20312 -0.03871,-0.0196 -0.07683,-0.0406 -0.115234,-0.0586 -0.163453,-0.0695 -0.321688,-0.11203 -0.478516,-0.14844 -0.01229,-0.002 -0.02486,-0.006 -0.03711,-0.008 -1.229684,0.0158 -2.251796,1.3859 -3.330078,4.27148 -0.493815,1.90091 -1.092635,4.4843 -1.625,7.13477 -1.527037,7.60678 -1.537536,7.81784 0.332031,11.44921 0.02414,0.0469 0.0397,0.0809 0.06445,0.12891 6.71e-4,10e-4 0.0013,0.003 0.002,0.004 0.006,0.0116 0.0096,0.0196 0.01563,0.0312 0.383482,0.74351 0.686722,1.51107 0.941407,2.2539 0.05309,0.10716 0.106735,0.21428 0.154296,0.31641 0.221982,0.37696 0.361438,0.70671 0.410157,1.01367 0.341178,1.04359 0.266444,1.75187 -0.199219,2.24805 -0.01253,0.0245 -0.02563,0.0489 -0.03906,0.0723 -0.294392,0.65043 -0.68487,1.00055 -1.332032,0.98047 -0.04161,0.007 -0.07997,0.019 -0.123047,0.0234 -0.0892,0.009 -0.185723,0.007 -0.28125,0.006 -0.07501,0.0477 -0.151085,0.0957 -0.197265,0.0957 -0.05737,0 -0.08371,-0.0415 -0.08594,-0.11133 -0.111048,-0.0113 -0.221223,-0.0237 -0.339844,-0.0469 -1.307879,-0.25512 -3.076776,-1.22997 -5.3125,-2.92969 -0.01917,-0.0146 -0.03561,-0.0284 -0.05469,-0.043 -0.01993,-0.0151 -0.03663,-0.0258 -0.05664,-0.041 -4.4889,-3.41232 -6.283578,-5.70648 -7.013672,-12.55078 -0.07848,-0.59685 -0.144243,-1.28365 -0.197265,-2.03516 -0.275088,-1.67308 -0.442054,-3.44701 -0.505859,-5.30273 -0.0096,-0.16768 -0.0148,-0.33713 -0.02149,-0.51172 -0.0021,-0.0886 -0.0043,-0.17667 -0.0059,-0.26563 -0.02506,-0.84992 -0.0247,-1.73593 0.01758,-2.55078 0.05701,-2.63257 0.10322,-3.86881 0.216797,-3.2832 -0.05191,-9.02458 -0.282114,-14.18738 -0.853516,-17.70117 -0.01676,-0.1037 -0.03739,-0.19887 -0.05469,-0.30079 -0.18685,-1.07911 -0.404631,-2.01549 -0.666016,-2.84765 -0.469275,-1.495 -0.861189,-3.77901 -1.128906,-6.2168 -0.01387,-0.0318 -0.02671,-0.0514 -0.04102,-0.0937 -0.161269,-0.47243 -0.211265,-1.24805 -0.173828,-2.02148 -0.131609,-1.4586 -0.231225,-3.66092 -0.261719,-5.41602 -0.0083,-0.20641 -0.01546,-0.40879 -0.01758,-0.60742 -0.0059,-0.82451 0.01403,-1.42905 0.0625,-1.72461 0.0058,0.0199 0.0049,0.0528 0.01172,0.0703 0.0098,-0.0963 0.02317,-0.18805 0.03516,-0.28125 -0.009,0.0111 -0.01882,0.006 -0.02734,0.0312 -0.0095,0.0286 -0.01167,0.13176 -0.01953,0.17969 -0.265438,-0.91332 0.53935,-4.22212 1.826172,-5.43164 0.101781,-0.0957 0.169145,-0.14208 0.263672,-0.22656 0.128009,-0.15768 0.253827,-0.31409 0.402344,-0.47657 0.03912,-0.0428 0.07971,-0.0809 0.11914,-0.12304 0.07865,-0.11019 0.156137,-0.23767 0.236328,-0.31446 0.330703,-0.27681 0.489882,-0.41624 0.736329,-0.62695 0.144794,-0.12771 0.289692,-0.25142 0.435546,-0.36914 0.908778,-0.77759 1.348408,-1.12232 2.056641,-1.39062 0.759273,-0.44985 1.511234,-0.71259 2.306641,-0.78711 0.226695,-0.0372 0.454136,-0.0588 0.68164,-0.0684 0.227063,-0.0389 0.444701,-0.0642 0.636719,-0.0586 z"
       id="tooth19"
       inkscape:label="tooth 19"
       inkscape:connector-curvature="0" />
    <ellipse
       style="opacity:1;fill:#e6e6e6;fill-opacity:1;fill-rule:evenodd;stroke:#000000;stroke-width:0;stroke-linejoin:miter;stroke-miterlimit:4;stroke-dasharray:none;stroke-opacity:1"
       id="path4185"
       cx="38.682045"
       cy="227.41158"
       rx="10.000003"
       ry="10.000002" />
    <text
       xml:space="preserve"
       style="font-style:normal;font-weight:normal;font-size:40px;line-height:125%;font-family:sans-serif;letter-spacing:0px;word-spacing:0px;fill:#333333;fill-opacity:1;stroke:none;stroke-width:1px;stroke-linecap:butt;stroke-linejoin:miter;stroke-opacity:1"
       x="29.929886"
       y="232.5331"
       id="text5899-7"
       sodipodi:linespacing="125%"><tspan
         sodipodi:role="line"
         id="tspan5901-3"
         x="29.929886"
         y="232.5331"
         style="font-style:normal;font-variant:normal;font-weight:normal;font-stretch:normal;font-size:15.00000286px;font-family:Roboto;-inkscape-font-specification:Roboto;fill:#333333">19</tspan></text>
    <g
       id="19_R"
       inkscape:label="Root"
       style="opacity:0"
       transform="translate(50.704882,-183.98757)">
      <circle
         r="9.9430752"
         cy="341.45563"
         cx="-8.8027849"
         id="path5006-06"
         style="opacity:1;fill:#2195de;fill-opacity:1;stroke:#000000;stroke-width:0.11384872;stroke-miterlimit:4;stroke-dasharray:none;stroke-opacity:0.52941165" />
      <text
         sodipodi:linespacing="125%"
         id="text5012-3"
         y="348.68698"
         x="-15.826676"
         style="font-style:normal;font-weight:normal;font-size:20.90592384px;line-height:125%;font-family:sans-serif;letter-spacing:0px;word-spacing:0px;fill:#ffffff;fill-opacity:1;stroke:none;stroke-width:1px;stroke-linecap:butt;stroke-linejoin:miter;stroke-opacity:1"
         xml:space="preserve"><tspan
           style="font-style:normal;font-variant:normal;font-weight:bold;font-stretch:normal;font-family:Raleway;-inkscape-font-specification:'Raleway Bold';fill:#ffffff"
           y="348.68698"
           x="-15.826676"
           id="tspan5014-8"
           sodipodi:role="line">R</tspan></text>
    </g>
    <g
       id="19_S"
       transform="translate(127.443,5.5705494)"
       inkscape:label="Surface"
       style="opacity:0">
      <circle
         r="9.9430771"
         cy="84.190613"
         cx="-85.248001"
         id="path5006-0"
         style="opacity:1;fill:#2195de;fill-opacity:1;stroke:#000000;stroke-width:0.11384872;stroke-miterlimit:4;stroke-dasharray:none;stroke-opacity:0.52941165" />
      <text
         sodipodi:linespacing="125%"
         id="text5012-0"
         y="91.511269"
         x="-91.468323"
         style="font-style:normal;font-weight:normal;font-size:20.90592384px;line-height:125%;font-family:sans-serif;letter-spacing:0px;word-spacing:0px;fill:#ffffff;fill-opacity:1;stroke:none;stroke-width:1px;stroke-linecap:butt;stroke-linejoin:miter;stroke-opacity:1"
         xml:space="preserve"><tspan
           style="font-style:normal;font-variant:normal;font-weight:bold;font-stretch:normal;font-family:Raleway;-inkscape-font-specification:'Raleway Bold';fill:#ffffff"
           y="91.511269"
           x="-91.468323"
           id="tspan5014-1"
           sodipodi:role="line">S</tspan></text>
    </g>
    <g
       id="19_T"
       transform="translate(103.69299,-78.588629)"
       inkscape:label="Tooth"
       style="opacity:0">
      <path
         style="fill:#2195de;fill-opacity:1;fill-rule:nonzero;stroke:#000000;stroke-width:0.14981237px;stroke-linecap:butt;stroke-linejoin:miter;stroke-miterlimit:4;stroke-dasharray:none;stroke-opacity:1"
         d="m -52.14864,117.47888 c 0,5.54309 -4.419499,9.96257 -9.962567,9.96257 -5.468154,0 -9.887625,-4.41948 -9.887625,-9.96257 0,-5.46818 4.419471,-9.88762 9.887625,-9.88762 5.543068,0 9.962567,4.41944 9.962567,9.88762 z"
         id="path4337"
         inkscape:connector-curvature="0" />
      <path
         style="fill:#ffffff;fill-opacity:1;fill-rule:nonzero;stroke:none"
         d="m -55.819071,112.98451 -4.794032,0 0,12.28466 -2.846415,0 0,-12.28466 -4.719096,0 0,-2.5468 12.359543,0 0,2.5468 z"
         id="path4339"
         inkscape:connector-curvature="0" />
    </g>
  </g>
</svg>
