<?xml version="1.0" encoding="UTF-8" standalone="no"?>
<!-- Created with Inkscape (http://www.inkscape.org/) -->

<svg
   xmlns:dc="http://purl.org/dc/elements/1.1/"
   xmlns:cc="http://creativecommons.org/ns#"
   xmlns:rdf="http://www.w3.org/1999/02/22-rdf-syntax-ns#"
   xmlns:svg="http://www.w3.org/2000/svg"
   xmlns="http://www.w3.org/2000/svg"
   xmlns:sodipodi="http://sodipodi.sourceforge.net/DTD/sodipodi-0.dtd"
   xmlns:inkscape="http://www.inkscape.org/namespaces/inkscape"
   width="64.866142"
   height="230.31496"
   viewBox="0 0 64.866141 230.31501"
   id="svg5303"
   version="1.1"
   inkscape:version="0.91 r13725"
   sodipodi:docname="2.svg">
  <defs
     id="defs5305" />
  <sodipodi:namedview
     id="base"
     pagecolor="#ffffff"
     bordercolor="#666666"
     borderopacity="1.0"
     inkscape:pageopacity="0.0"
     inkscape:pageshadow="2"
     inkscape:zoom="2"
     inkscape:cx="-131.78708"
     inkscape:cy="75.671199"
     inkscape:document-units="px"
     inkscape:current-layer="layer1"
     showgrid="true"
     fit-margin-top="0"
     fit-margin-left="0"
     fit-margin-right="0"
     fit-margin-bottom="0"
     objecttolerance="10000"
     inkscape:window-width="1739"
     inkscape:window-height="917"
     inkscape:window-x="-8"
     inkscape:window-y="-8"
     inkscape:window-maximized="1"
     units="px">
    <inkscape:grid
       type="xygrid"
       id="grid5927"
       originx="-9.5020207"
       originy="-814.67162" />
  </sodipodi:namedview>
  <metadata
     id="metadata5308">
    <rdf:RDF>
      <cc:Work
         rdf:about="">
        <dc:format>image/svg+xml</dc:format>
        <dc:type
           rdf:resource="http://purl.org/dc/dcmitype/StillImage" />
        <dc:title></dc:title>
      </cc:Work>
    </rdf:RDF>
  </metadata>
  <g
     inkscape:label="Layer 1"
     inkscape:groupmode="layer"
     id="layer1"
     transform="translate(-9.502021,-7.3756207)">
    <path
       style="fill:#333333;fill-opacity:1;fill-rule:evenodd;stroke:#000000;stroke-width:0;stroke-linejoin:miter;stroke-miterlimit:4;stroke-dasharray:none;stroke-opacity:1"
       d="m 34.73278,44.678365 c -0.367727,-0.04523 -0.884771,0.02306 -1.476563,0.210938 -2.907822,0.92315 -9.59348,6.173464 -11.05664,8.683594 -0.913099,1.566539 -1.323143,3.398258 -1.695313,7.548828 -0.103687,1.15601 -0.150069,3.918295 -0.148437,8.853515 0.0022,4.084251 0.01948,5.937816 0.07813,7.09375 -0.204118,0.421338 -0.375476,0.97915 -0.564453,1.802735 -0.657682,2.8662 -2.264515,14.735919 -2.63086,19.4375 -0.162903,2.090545 -0.07899,5.938925 0.152344,7.015625 0.238996,1.11231 0.812138,2.63333 1.375,3.64844 0.589199,1.0626 4.188653,3.68451 5.46289,4.17968 5.160254,2.00523 6.384504,1.39219 7.980469,0.67188 2.420805,-1.09256 -0.957076,0.56893 4.861328,-2.64649 a 5.6320768,3.3234419 0 0 0 7.40625,0.0254 5.6320768,3.3234419 0 0 0 1.529297,-1.25585 c 2.601492,1.42271 3.624416,1.75066 5.515625,1.7539 1.60435,0.004 2.392374,-0.23112 3.871094,-1.14453 1.322941,-0.81716 2.329309,-1.83468 4.287109,-4.33984 2.47579,-3.16789 3.226225,-4.49266 3.734375,-6.599611 0.27242,-1.12945 0.332722,-4.840483 0.113282,-6.982422 -0.66332,-6.475019 -2.410084,-11.983341 -4.871094,-15.369141 -0.764447,-1.051707 -1.532069,-1.583581 -3.167969,-2 -0.248624,-0.94877 -0.308117,-1.615475 -0.310547,-2.853516 -0.005,-2.461309 0.259264,-3.583534 2.177735,-9.289062 2.098999,-6.242329 2.671995,-9.099508 2.703125,-13.466797 0.016,-2.25992 -0.09114,-2.705488 -0.763672,-3.173828 -0.38769,-0.26996 -0.494768,-0.265161 -0.992188,0.04297 -0.73027,0.45243 -1.450049,1.391315 -4.15625,5.427734 -2.528309,3.771129 -4.952372,7.02766 -8.976562,12.060547 -0.04528,0.05663 -0.07817,0.100041 -0.123047,0.15625 -0.09173,-0.444953 -0.182473,-0.891905 -0.28711,-1.398438 -0.372589,-1.803679 -0.613841,-3.578239 -1.113281,-8.199218 -0.69228,-6.404759 -0.985482,-8.072274 -1.544922,-8.777344 -0.252413,-0.31807 -0.359314,-0.342884 -1.554687,-0.371094 -0.7877,-0.0186 -1.495206,0.04001 -1.833984,0.154297 -1.184697,0.39983 -1.80517,1.31398 -1.933594,2.849609 -0.101024,1.20824 -0.356537,1.943043 -1.853516,5.326172 -1.111892,2.51285 -1.689643,4.071294 -2.029297,5.470703 -0.256198,1.055392 -0.289058,3.59069 -0.0957,5.455079 -0.110363,-0.271536 -0.225212,-0.544104 -0.322266,-0.8125 -0.84009,-2.323178 -1.459812,-5.95713 -1.291015,-7.574219 0.160435,-1.5367 1.0798,-4.191015 2.636719,-7.615235 0.821874,-1.807619 1.49414,-3.397846 1.49414,-3.535156 0,-0.26068 -0.218211,-0.419611 -0.585937,-0.464844 z m 8.515625,83.738285 c -0.927708,-0.017 -1.856827,0.056 -2.771485,0.2539 -1.906877,0.41265 -5.183262,0.95948 -7.28125,1.21485 -4.653285,0.56643 -7.17006,1.64865 -10.158203,4.36718 -2.869226,2.61031 -4.327529,4.93057 -5.111328,8.13477 -0.599657,2.45141 -0.626023,3.3394 -0.298828,10.00976 0.295731,6.02891 0.498982,7.76583 1.150391,9.84375 1.880201,5.99788 4.496075,8.05058 10.710937,8.4043 1.631802,0.0929 3.348149,0.9676 5.070313,0.83789 1.722162,-0.12969 4.866609,-0.49878 5.537109,-0.51758 0.406184,-0.0114 2.010564,-0.0168 3.826172,-0.0312 0.136755,0.0133 0.377441,0.0441 0.480469,0.0527 1.700124,0.14283 3.754278,0.0446 5.388671,-0.20899 4.581302,-0.34569 5.216336,-1.36285 6.914063,-2.83203 1.887698,-1.63359 3.694963,-4.98356 4.541016,-8.41601 1.231061,-4.99455 1.408796,-9.09399 1.21875,-16.89649 -0.09072,-3.72432 -1.704973,-7.28615 -2.451172,-8.26562 -1.052801,-1.38193 -2.681442,-3.1017 -6.041016,-3.66992 -2.708575,-0.45811 -6.704541,-2.20781 -10.724609,-2.28125 z m 9.630859,57.86914 c -0.80687,0.002 -1.657493,0.0948 -2.589844,0.27148 -10.304174,1.95254 -12.203356,2.36017 -13.298828,2.84961 -0.949753,0.42374 -2.110065,0.42507 -5.185547,0.006 -5.060472,-0.68977 -6.596167,-0.24564 -9.658203,2.79101 -2.418042,2.39798 -3.047172,4.43962 -3.220703,10.44727 -0.186664,6.46206 0.336104,10.47348 1.871094,14.35938 1.954889,4.9489 1.654989,4.83006 11.333984,4.51757 4.561698,-0.14729 9.786646,-0.0977 11.611328,0.10938 1.824674,0.2071 6.32338,0.40656 9.996094,0.44336 7.782307,0.0781 8.047993,-0.0444 9.328125,-4.26758 1.12629,-3.71568 3.233534,-12.86749 3.710938,-16.11719 0.39545,-2.69178 0.365078,-2.98948 -0.53711,-5.26562 -1.135325,-2.86429 -2.861775,-4.88869 -6.353515,-7.44922 -2.570357,-1.88489 -4.587202,-2.70234 -7.007813,-2.69531 z"
       id="tooth02"
       inkscape:label="tooth 2"
       inkscape:connector-curvature="0" />
    <ellipse
       style="opacity:1;fill:#e6e6e6;fill-opacity:1;fill-rule:evenodd;stroke:#000000;stroke-width:0;stroke-linejoin:miter;stroke-miterlimit:4;stroke-dasharray:none;stroke-opacity:1"
       id="path4185"
       cx="41.250317"
       cy="17.862028"
       rx="10.000003"
       ry="10.000002" />
    <text
       xml:space="preserve"
       style="font-style:normal;font-weight:normal;font-size:40px;line-height:125%;font-family:sans-serif;letter-spacing:0px;word-spacing:0px;fill:#333333;fill-opacity:1;stroke:none;stroke-width:1px;stroke-linecap:butt;stroke-linejoin:miter;stroke-opacity:1"
       x="37.094341"
       y="22.98354"
       id="text5899-8"
       sodipodi:linespacing="125%"><tspan
         sodipodi:role="line"
         id="tspan5901-4"
         x="37.094341"
         y="22.98354"
         style="font-style:normal;font-variant:normal;font-weight:normal;font-stretch:normal;font-size:15.00000286px;font-family:Roboto;-inkscape-font-specification:Roboto;fill:#333333">2</tspan></text>
    <g
       id="2_R"
       inkscape:label="Root"
       style="opacity:0"
       transform="translate(48.805104,-263.51502)">
      <circle
         r="9.9430752"
         cy="341.45563"
         cx="-8.8027849"
         id="path5006-06"
         style="opacity:1;fill:#2195de;fill-opacity:1;stroke:#000000;stroke-width:0.11384872;stroke-miterlimit:4;stroke-dasharray:none;stroke-opacity:0.52941165" />
      <text
         sodipodi:linespacing="125%"
         id="text5012-3"
         y="348.68698"
         x="-15.826676"
         style="font-style:normal;font-weight:normal;font-size:20.90592384px;line-height:125%;font-family:sans-serif;letter-spacing:0px;word-spacing:0px;fill:#ffffff;fill-opacity:1;stroke:none;stroke-width:1px;stroke-linecap:butt;stroke-linejoin:miter;stroke-opacity:1"
         xml:space="preserve"><tspan
           style="font-style:normal;font-variant:normal;font-weight:bold;font-stretch:normal;font-family:Raleway;-inkscape-font-specification:'Raleway Bold';fill:#ffffff"
           y="348.68698"
           x="-15.826676"
           id="tspan5014-8"
           sodipodi:role="line">R</tspan></text>
    </g>
    <g
       id="2_S"
       transform="translate(126.00032,66.750016)"
       inkscape:label="Surface"
       style="opacity:0">
      <circle
         r="9.9430771"
         cy="84.190613"
         cx="-85.248001"
         id="path5006-0"
         style="opacity:1;fill:#2195de;fill-opacity:1;stroke:#000000;stroke-width:0.11384872;stroke-miterlimit:4;stroke-dasharray:none;stroke-opacity:0.52941165" />
      <text
         sodipodi:linespacing="125%"
         id="text5012-0"
         y="91.511269"
         x="-91.468323"
         style="font-style:normal;font-weight:normal;font-size:20.90592384px;line-height:125%;font-family:sans-serif;letter-spacing:0px;word-spacing:0px;fill:#ffffff;fill-opacity:1;stroke:none;stroke-width:1px;stroke-linecap:butt;stroke-linejoin:miter;stroke-opacity:1"
         xml:space="preserve"><tspan
           style="font-style:normal;font-variant:normal;font-weight:bold;font-stretch:normal;font-family:Raleway;-inkscape-font-specification:'Raleway Bold';fill:#ffffff"
           y="91.511269"
           x="-91.468323"
           id="tspan5014-1"
           sodipodi:role="line">S</tspan></text>
    </g>
    <g
       id="2_T"
       transform="translate(103.50031,87.000018)"
       inkscape:label="Tooth"
       style="opacity:0">
      <path
         style="fill:#2195de;fill-opacity:1;fill-rule:nonzero;stroke:#000000;stroke-width:0.14981237px;stroke-linecap:butt;stroke-linejoin:miter;stroke-miterlimit:4;stroke-dasharray:none;stroke-opacity:1"
         d="m -52.14864,117.47888 c 0,5.54309 -4.419499,9.96257 -9.962567,9.96257 -5.468154,0 -9.887625,-4.41948 -9.887625,-9.96257 0,-5.46818 4.419471,-9.88762 9.887625,-9.88762 5.543068,0 9.962567,4.41944 9.962567,9.88762 z"
         id="path4337"
         inkscape:connector-curvature="0" />
      <path
         style="fill:#ffffff;fill-opacity:1;fill-rule:nonzero;stroke:none"
         d="m -55.819071,112.98451 -4.794032,0 0,12.28466 -2.846415,0 0,-12.28466 -4.719096,0 0,-2.5468 12.359543,0 0,2.5468 z"
         id="path4339"
         inkscape:connector-curvature="0" />
    </g>
  </g>
</svg>
