<?xml version="1.0" encoding="UTF-8" standalone="no"?>
<!-- Created with Inkscape (http://www.inkscape.org/) -->

<svg
   xmlns:dc="http://purl.org/dc/elements/1.1/"
   xmlns:cc="http://creativecommons.org/ns#"
   xmlns:rdf="http://www.w3.org/1999/02/22-rdf-syntax-ns#"
   xmlns:svg="http://www.w3.org/2000/svg"
   xmlns="http://www.w3.org/2000/svg"
   xmlns:sodipodi="http://sodipodi.sourceforge.net/DTD/sodipodi-0.dtd"
   xmlns:inkscape="http://www.inkscape.org/namespaces/inkscape"
   width="64.866142"
   height="230.31496"
   viewBox="0 0 64.866141 230.31501"
   id="svg5303"
   version="1.1"
   inkscape:version="0.91 r13725"
   sodipodi:docname="22.svg">
  <defs
     id="defs5305" />
  <sodipodi:namedview
     id="base"
     pagecolor="#ffffff"
     bordercolor="#666666"
     borderopacity="1.0"
     inkscape:pageopacity="0.0"
     inkscape:pageshadow="2"
     inkscape:zoom="4"
     inkscape:cx="-103.72798"
     inkscape:cy="91.57319"
     inkscape:document-units="px"
     inkscape:current-layer="layer1"
     showgrid="true"
     fit-margin-top="0"
     fit-margin-left="0"
     fit-margin-right="0"
     fit-margin-bottom="0"
     objecttolerance="10000"
     inkscape:window-width="1739"
     inkscape:window-height="917"
     inkscape:window-x="-8"
     inkscape:window-y="-8"
     inkscape:window-maximized="1"
     units="px">
    <inkscape:grid
       type="xygrid"
       id="grid5927"
       originx="-9.5020207"
       originy="-814.67162" />
  </sodipodi:namedview>
  <metadata
     id="metadata5308">
    <rdf:RDF>
      <cc:Work
         rdf:about="">
        <dc:format>image/svg+xml</dc:format>
        <dc:type
           rdf:resource="http://purl.org/dc/dcmitype/StillImage" />
        <dc:title></dc:title>
      </cc:Work>
    </rdf:RDF>
  </metadata>
  <g
     inkscape:label="Layer 1"
     inkscape:groupmode="layer"
     id="layer1"
     transform="translate(-9.502021,-7.3756207)">
    <path
       style="fill:#333333;fill-opacity:1;fill-rule:evenodd;stroke:#000000;stroke-width:0;stroke-linejoin:miter;stroke-miterlimit:4;stroke-dasharray:none;stroke-opacity:1"
       d="m 40.066861,72.483053 c 1.56519,0.0057 3.011405,0.281356 3.984375,0.759766 1.89716,0.932769 6.06052,5.511931 8.199219,9.019531 3.871209,6.34913 7.650391,16.515828 7.650391,20.57617 0,4.04091 -0.614315,4.85716 -7.064453,9.36133 -2.3107,1.61356 -5.060979,3.75711 -6.111329,4.76562 -1.050219,1.0085 -2.424487,2.12942 -3.054687,2.49024 -1.51371,0.86673 -2.464829,0.84654 -4.798828,-0.0996 -3.235309,-1.31144 -11.470524,-6.24594 -13.027344,-7.80664 -1.45066,-1.45436 -1.460938,-1.48785 -1.460938,-4.63477 0,-5.8627 3.253872,-20.089668 6.050782,-26.457028 2.589499,-5.89513 5.121023,-7.990809 9.632812,-7.974609 z m 1.480469,52.265627 c 0.718836,-0.0148 1.334942,0.19749 2.091797,0.63086 0.6302,0.36082 2.006421,1.48173 3.05664,2.49023 1.05035,1.00851 3.798676,3.15402 6.109376,4.76758 6.450138,4.50417 7.066406,5.31846 7.066406,9.35937 0,4.06034 -3.781135,14.22705 -7.652344,20.57618 -0.190394,0.31225 -0.413376,0.64088 -0.632812,0.96679 -0.477963,16.18925 -0.526022,33.59669 0.05469,36.07032 0.38135,1.6249 -0.243014,2.56758 -0.240234,2.65039 0.0177,0.52626 -2.116989,0.45371 -3.167969,-0.2461 -2.58239,-1.72594 -7.096793,-9.0053 -10.669922,-17.20508 -1.809686,-4.15279 -4.694662,-12.60528 -7.083984,-20.27343 -0.02517,-0.0566 -0.05099,-0.10089 -0.07617,-0.15821 -2.79691,-6.36736 -6.050782,-20.59432 -6.050782,-26.45703 0,-3.14692 0.01028,-3.1804 1.460938,-4.63476 1.55682,-1.5607 9.792035,-6.4952 13.027344,-7.80664 1.166999,-0.47308 1.988195,-0.71565 2.707031,-0.73047 z"
       id="tooth22"
       inkscape:label="tooth 22"
       inkscape:connector-curvature="0" />
    <ellipse
       style="opacity:1;fill:#e6e6e6;fill-opacity:1;fill-rule:evenodd;stroke:#000000;stroke-width:0;stroke-linejoin:miter;stroke-miterlimit:4;stroke-dasharray:none;stroke-opacity:1"
       id="path4185"
       cx="38.750412"
       cy="227.36206"
       rx="10.000003"
       ry="10.000002" />
    <text
       xml:space="preserve"
       style="font-style:normal;font-weight:normal;font-size:40px;line-height:125%;font-family:sans-serif;letter-spacing:0px;word-spacing:0px;fill:#333333;fill-opacity:1;stroke:none;stroke-width:1px;stroke-linecap:butt;stroke-linejoin:miter;stroke-opacity:1"
       x="30.594444"
       y="232.73358"
       id="text5899-1"
       sodipodi:linespacing="125%"><tspan
         sodipodi:role="line"
         id="tspan5901-5"
         x="30.594444"
         y="232.73358"
         style="font-style:normal;font-variant:normal;font-weight:normal;font-stretch:normal;font-size:15.00000286px;font-family:Roboto;-inkscape-font-specification:Roboto;fill:#333333">22</tspan></text>
    <g
       id="22_R"
       inkscape:label="Root"
       style="opacity:0"
       transform="translate(52.555201,-160.51499)">
      <circle
         r="9.9430752"
         cy="341.45563"
         cx="-8.8027849"
         id="path5006-06"
         style="opacity:1;fill:#2195de;fill-opacity:1;stroke:#000000;stroke-width:0.11384872;stroke-miterlimit:4;stroke-dasharray:none;stroke-opacity:0.52941165" />
      <text
         sodipodi:linespacing="125%"
         id="text5012-3"
         y="348.68698"
         x="-15.826676"
         style="font-style:normal;font-weight:normal;font-size:20.90592384px;line-height:125%;font-family:sans-serif;letter-spacing:0px;word-spacing:0px;fill:#ffffff;fill-opacity:1;stroke:none;stroke-width:1px;stroke-linecap:butt;stroke-linejoin:miter;stroke-opacity:1"
         xml:space="preserve"><tspan
           style="font-style:normal;font-variant:normal;font-weight:bold;font-stretch:normal;font-family:Raleway;-inkscape-font-specification:'Raleway Bold';fill:#ffffff"
           y="348.68698"
           x="-15.826676"
           id="tspan5014-8"
           sodipodi:role="line">R</tspan></text>
    </g>
    <g
       id="22_S"
       transform="translate(125.75043,60.250014)"
       inkscape:label="Surface"
       style="opacity:0">
      <circle
         r="9.9430771"
         cy="84.190613"
         cx="-85.248001"
         id="path5006-0"
         style="opacity:1;fill:#2195de;fill-opacity:1;stroke:#000000;stroke-width:0.11384872;stroke-miterlimit:4;stroke-dasharray:none;stroke-opacity:0.52941165" />
      <text
         sodipodi:linespacing="125%"
         id="text5012-0"
         y="91.511269"
         x="-91.468323"
         style="font-style:normal;font-weight:normal;font-size:20.90592384px;line-height:125%;font-family:sans-serif;letter-spacing:0px;word-spacing:0px;fill:#ffffff;fill-opacity:1;stroke:none;stroke-width:1px;stroke-linecap:butt;stroke-linejoin:miter;stroke-opacity:1"
         xml:space="preserve"><tspan
           style="font-style:normal;font-variant:normal;font-weight:bold;font-stretch:normal;font-family:Raleway;-inkscape-font-specification:'Raleway Bold';fill:#ffffff"
           y="91.511269"
           x="-91.468323"
           id="tspan5014-1"
           sodipodi:role="line">S</tspan></text>
    </g>
    <g
       id="22_T"
       transform="translate(103.75042,-20.750002)"
       inkscape:label="Tooth"
       style="opacity:0">
      <path
         style="fill:#2195de;fill-opacity:1;fill-rule:nonzero;stroke:#000000;stroke-width:0.14981237px;stroke-linecap:butt;stroke-linejoin:miter;stroke-miterlimit:4;stroke-dasharray:none;stroke-opacity:1"
         d="m -52.14864,117.47888 c 0,5.54309 -4.419499,9.96257 -9.962567,9.96257 -5.468154,0 -9.887625,-4.41948 -9.887625,-9.96257 0,-5.46818 4.419471,-9.88762 9.887625,-9.88762 5.543068,0 9.962567,4.41944 9.962567,9.88762 z"
         id="path4337"
         inkscape:connector-curvature="0" />
      <path
         style="fill:#ffffff;fill-opacity:1;fill-rule:nonzero;stroke:none"
         d="m -55.819071,112.98451 -4.794032,0 0,12.28466 -2.846415,0 0,-12.28466 -4.719096,0 0,-2.5468 12.359543,0 0,2.5468 z"
         id="path4339"
         inkscape:connector-curvature="0" />
    </g>
  </g>
</svg>
