<?xml version="1.0" encoding="UTF-8" standalone="no"?>
<!-- Created with Inkscape (http://www.inkscape.org/) -->

<svg
   xmlns:dc="http://purl.org/dc/elements/1.1/"
   xmlns:cc="http://creativecommons.org/ns#"
   xmlns:rdf="http://www.w3.org/1999/02/22-rdf-syntax-ns#"
   xmlns:svg="http://www.w3.org/2000/svg"
   xmlns="http://www.w3.org/2000/svg"
   xmlns:sodipodi="http://sodipodi.sourceforge.net/DTD/sodipodi-0.dtd"
   xmlns:inkscape="http://www.inkscape.org/namespaces/inkscape"
   width="64.866142"
   height="230.31496"
   viewBox="0 0 64.866141 230.31501"
   id="svg5303"
   version="1.1"
   inkscape:version="0.91 r13725"
   sodipodi:docname="26.svg">
  <defs
     id="defs5305">
    <inkscape:path-effect
       effect="spiro"
       id="path-effect4312"
       is_visible="true" />
    <inkscape:path-effect
       effect="spiro"
       id="path-effect4308"
       is_visible="true" />
  </defs>
  <sodipodi:namedview
     id="base"
     pagecolor="#ffffff"
     bordercolor="#666666"
     borderopacity="1.0"
     inkscape:pageopacity="0.0"
     inkscape:pageshadow="2"
     inkscape:zoom="4.0000002"
     inkscape:cx="-49.30613"
     inkscape:cy="84.397747"
     inkscape:document-units="px"
     inkscape:current-layer="layer1"
     showgrid="false"
     fit-margin-top="0"
     fit-margin-left="0"
     fit-margin-right="0"
     fit-margin-bottom="0"
     objecttolerance="10000"
     inkscape:window-width="1739"
     inkscape:window-height="917"
     inkscape:window-x="-8"
     inkscape:window-y="-8"
     inkscape:window-maximized="1"
     units="px">
    <inkscape:grid
       type="xygrid"
       id="grid5927"
       originx="-9.5020207"
       originy="-814.67162" />
  </sodipodi:namedview>
  <metadata
     id="metadata5308">
    <rdf:RDF>
      <cc:Work
         rdf:about="">
        <dc:format>image/svg+xml</dc:format>
        <dc:type
           rdf:resource="http://purl.org/dc/dcmitype/StillImage" />
        <dc:title></dc:title>
      </cc:Work>
    </rdf:RDF>
  </metadata>
  <g
     inkscape:label="Layer 1"
     inkscape:groupmode="layer"
     id="layer1"
     transform="translate(-9.502021,-7.3756207)">
    <path
       style="fill:#333333;fill-opacity:1;fill-rule:evenodd;stroke:#000000;stroke-width:0;stroke-linejoin:miter;stroke-miterlimit:4;stroke-dasharray:none;stroke-opacity:1"
       d="m 41.178161,70.108053 c -2.415012,-0.01804 -4.825889,0.299632 -5.871093,0.964844 -1.39156,0.885855 -3.301081,3.466073 -5.125,6.923828 -2.54923,4.833025 -4.08392,9.861125 -4.957032,16.246094 -0.31974,2.338776 -0.388531,3.771317 -0.394531,8.261721 -0.0096,5.93334 0.114481,6.87889 1.220703,9.25 0.94563,2.02692 3.900538,4.22525 7.460938,5.55078 3.094639,1.15213 9.207064,2.51701 12.564453,2.80664 3.678789,0.31739 7.013059,0.014 8.199219,-0.7461 0.797169,-0.51083 1.000337,-1.04633 1.398437,-3.69531 0.44939,-2.98955 0.437019,-15.986323 -0.01953,-20.841794 C 55.032405,88.209477 54.290039,84.754223 52.488709,80.096334 50.91114,76.017178 48.537329,72.096814 47.0766,71.160787 46.013915,70.479816 43.593174,70.12609 41.178162,70.108053 Z m 9.082031,54.763667 c -0.848449,0.004 -1.746315,0.0437 -2.666015,0.12305 -3.357389,0.28962 -9.469814,1.65646 -12.564453,2.80859 -3.560399,1.32554 -6.515308,3.5219 -7.460938,5.54883 -1.106219,2.3711 -1.230283,3.31862 -1.220703,9.25196 0.006,4.4904 0.07674,5.92098 0.396485,8.25976 0.873109,6.38497 2.405848,11.41307 4.955078,16.2461 0.0021,0.004 0.0037,0.008 0.0059,0.0117 0.240177,1.40699 0.628161,3.17691 1.142578,5.17969 1.77274,6.90073 2.73987,15.50941 2.75,24.49024 0.007,6.86964 0.613357,12.37342 1.591797,14.46093 1.76382,3.76342 3.928787,3.14822 6.154297,-1.74609 2.953289,-6.49488 7.179153,-21.8981 10.164062,-37.04883 0.82479,-4.18666 1.848642,-9.66941 2.34961,-13.34375 0.579944,-2.47114 0.969051,-5.16209 1.314453,-8.83594 0.45655,-4.85548 0.468921,-17.85224 0.01953,-20.84179 -0.3981,-2.64897 -0.601268,-3.18449 -1.398437,-3.69532 -0.88962,-0.57011 -2.987854,-0.88207 -5.533204,-0.86914 z"
       id="tooth26"
       inkscape:label="tooth 26"
       inkscape:connector-curvature="0" />
    <ellipse
       style="opacity:1;fill:#e6e6e6;fill-opacity:1;fill-rule:evenodd;stroke:#000000;stroke-width:0;stroke-linejoin:miter;stroke-miterlimit:4;stroke-dasharray:none;stroke-opacity:1"
       id="path4185"
       cx="40.504169"
       cy="227.52597"
       rx="10.000006"
       ry="10.000004" />
    <text
       xml:space="preserve"
       style="font-style:normal;font-weight:normal;font-size:40px;line-height:125%;font-family:sans-serif;letter-spacing:0px;word-spacing:0px;fill:#333333;fill-opacity:1;stroke:none;stroke-width:1px;stroke-linecap:butt;stroke-linejoin:miter;stroke-opacity:1"
       x="32.105545"
       y="232.55911"
       id="text5899-0"
       sodipodi:linespacing="125%"><tspan
         sodipodi:role="line"
         id="tspan5901-8"
         x="32.105545"
         y="232.55911"
         style="font-style:normal;font-variant:normal;font-weight:normal;font-stretch:normal;font-size:15.00000286px;font-family:Roboto;-inkscape-font-specification:Roboto;fill:#333333">26</tspan></text>
    <g
       id="26_R"
       inkscape:label="Root"
       style="opacity:0"
       transform="translate(51.218042,-160.42786)">
      <circle
         r="9.9430752"
         cy="341.45563"
         cx="-8.8027849"
         id="path5006-06"
         style="opacity:1;fill:#2195de;fill-opacity:1;stroke:#000000;stroke-width:0.11384872;stroke-miterlimit:4;stroke-dasharray:none;stroke-opacity:0.52941165" />
      <text
         sodipodi:linespacing="125%"
         id="text5012-3"
         y="348.68698"
         x="-15.826676"
         style="font-style:normal;font-weight:normal;font-size:20.90592384px;line-height:125%;font-family:sans-serif;letter-spacing:0px;word-spacing:0px;fill:#ffffff;fill-opacity:1;stroke:none;stroke-width:1px;stroke-linecap:butt;stroke-linejoin:miter;stroke-opacity:1"
         xml:space="preserve"><tspan
           style="font-style:normal;font-variant:normal;font-weight:bold;font-stretch:normal;font-family:Raleway;-inkscape-font-specification:'Raleway Bold';fill:#ffffff"
           y="348.68698"
           x="-15.826676"
           id="tspan5014-8"
           sodipodi:role="line">R</tspan></text>
    </g>
    <g
       id="26_S"
       transform="translate(127.91327,58.587139)"
       inkscape:label="Surface"
       style="opacity:0">
      <circle
         r="9.9430771"
         cy="84.190613"
         cx="-85.248001"
         id="path5006-0"
         style="opacity:1;fill:#2195de;fill-opacity:1;stroke:#000000;stroke-width:0.11384872;stroke-miterlimit:4;stroke-dasharray:none;stroke-opacity:0.52941165" />
      <text
         sodipodi:linespacing="125%"
         id="text5012-0"
         y="91.511269"
         x="-91.468323"
         style="font-style:normal;font-weight:normal;font-size:20.90592384px;line-height:125%;font-family:sans-serif;letter-spacing:0px;word-spacing:0px;fill:#ffffff;fill-opacity:1;stroke:none;stroke-width:1px;stroke-linecap:butt;stroke-linejoin:miter;stroke-opacity:1"
         xml:space="preserve"><tspan
           style="font-style:normal;font-variant:normal;font-weight:bold;font-stretch:normal;font-family:Raleway;-inkscape-font-specification:'Raleway Bold';fill:#ffffff"
           y="91.511269"
           x="-91.468323"
           id="tspan5014-1"
           sodipodi:role="line">S</tspan></text>
    </g>
    <g
       id="26_T"
       transform="translate(103.91326,-22.662876)"
       inkscape:label="Tooth"
       style="opacity:0">
      <path
         style="fill:#2195de;fill-opacity:1;fill-rule:nonzero;stroke:#000000;stroke-width:0.14981237px;stroke-linecap:butt;stroke-linejoin:miter;stroke-miterlimit:4;stroke-dasharray:none;stroke-opacity:1"
         d="m -52.14864,117.47888 c 0,5.54309 -4.419499,9.96257 -9.962567,9.96257 -5.468154,0 -9.887625,-4.41948 -9.887625,-9.96257 0,-5.46818 4.419471,-9.88762 9.887625,-9.88762 5.543068,0 9.962567,4.41944 9.962567,9.88762 z"
         id="path4337"
         inkscape:connector-curvature="0" />
      <path
         style="fill:#ffffff;fill-opacity:1;fill-rule:nonzero;stroke:none"
         d="m -55.819071,112.98451 -4.794032,0 0,12.28466 -2.846415,0 0,-12.28466 -4.719096,0 0,-2.5468 12.359543,0 0,2.5468 z"
         id="path4339"
         inkscape:connector-curvature="0" />
    </g>
  </g>
</svg>
