<?xml version="1.0" encoding="UTF-8" standalone="no"?>
<!-- Created with Inkscape (http://www.inkscape.org/) -->

<svg
   xmlns:dc="http://purl.org/dc/elements/1.1/"
   xmlns:cc="http://creativecommons.org/ns#"
   xmlns:rdf="http://www.w3.org/1999/02/22-rdf-syntax-ns#"
   xmlns:svg="http://www.w3.org/2000/svg"
   xmlns="http://www.w3.org/2000/svg"
   xmlns:sodipodi="http://sodipodi.sourceforge.net/DTD/sodipodi-0.dtd"
   xmlns:inkscape="http://www.inkscape.org/namespaces/inkscape"
   width="64.866142"
   height="230.31496"
   viewBox="0 0 64.866141 230.31501"
   id="svg5303"
   version="1.1"
   inkscape:version="0.91 r13725"
   sodipodi:docname="29.svg">
  <defs
     id="defs5305" />
  <sodipodi:namedview
     id="base"
     pagecolor="#ffffff"
     bordercolor="#666666"
     borderopacity="1.0"
     inkscape:pageopacity="0.0"
     inkscape:pageshadow="2"
     inkscape:zoom="4"
     inkscape:cx="-61.10298"
     inkscape:cy="119.12128"
     inkscape:document-units="px"
     inkscape:current-layer="layer1"
     showgrid="true"
     fit-margin-top="0"
     fit-margin-left="0"
     fit-margin-right="0"
     fit-margin-bottom="0"
     objecttolerance="10000"
     inkscape:window-width="1739"
     inkscape:window-height="917"
     inkscape:window-x="-8"
     inkscape:window-y="-8"
     inkscape:window-maximized="1"
     units="px">
    <inkscape:grid
       type="xygrid"
       id="grid5927"
       originx="-9.5020207"
       originy="-814.67162" />
  </sodipodi:namedview>
  <metadata
     id="metadata5308">
    <rdf:RDF>
      <cc:Work
         rdf:about="">
        <dc:format>image/svg+xml</dc:format>
        <dc:type
           rdf:resource="http://purl.org/dc/dcmitype/StillImage" />
        <dc:title></dc:title>
      </cc:Work>
    </rdf:RDF>
  </metadata>
  <g
     inkscape:label="Layer 1"
     inkscape:groupmode="layer"
     id="layer1"
     transform="translate(-9.502021,-7.3756207)">
    <path
       style="fill:#333333;fill-opacity:1;fill-rule:evenodd;stroke:#000000;stroke-width:0;stroke-linejoin:miter;stroke-miterlimit:4;stroke-dasharray:none;stroke-opacity:1"
       d="m 43.152077,23.4811 c -0.443693,0.02495 -0.935252,0.09921 -1.521485,0.21289 -2.779879,0.53907 -4.710431,1.733973 -6.83789,4.232422 -4.81756,5.657579 -9.394814,18.364255 -8.564454,23.777344 0.46083,3.004019 6.479506,8.641161 12.410157,11.625 1.851109,0.9313 4.136353,1.057304 5.601562,0.308594 0.548021,-0.27999 2.074722,-1.467895 3.394531,-2.640625 2.47788,-2.20176 4.706589,-3.476563 6.080079,-3.476563 1.009489,0 1.928524,-0.792642 2.552734,-2.201172 C 56.972321,53.728301 56.87735,48.579857 56.06028,44.092428 54.28899,34.3644 51.030126,27.420065 47.021217,24.834615 45.373775,23.772121 44.483155,23.406256 43.152077,23.4811 Z m -2.134766,52.873047 c -2.67656,0.02336 -4.386195,0.12747 -5.226563,0.314453 -3.04801,0.67798 -4.68387,1.941493 -6.957031,5.376953 -2.963449,4.478679 -4.425039,9.524598 -4.162109,14.367187 0.26649,4.90775 1.848604,7.35837 5.777344,8.95508 3.195119,1.29854 9.929518,2.78125 12.636718,2.78125 2.333241,0 2.574237,-0.0679 5.884766,-1.63867 4.278399,-2.02998 7.560636,-4.17635 7.847656,-4.44141 0.17609,-0.16261 -0.03074,0.0542 0.382813,-0.29492 0.64972,-0.54842 1.649239,-2.287025 1.412109,-4.345705 -0.72062,-6.256529 -4.969207,-18.406576 -7.060547,-20.191406 l -0.960937,-0.820312 -6.572266,-0.05859 c -1.110275,-0.0099 -2.109766,-0.01169 -3.001953,-0.0039 z m 1.474609,38.033203 c -1.335477,-0.0775 -2.824366,0.24545 -4.123046,0.94922 -6.657201,3.60771 -13.412398,10.42452 -13.929688,14.05664 -0.819009,5.75093 3.046949,18.30663 7.666016,25.91015 0.467018,9.58228 1.385821,20.63974 2.330078,24.95508 1.192719,5.45099 1.947278,12.64917 1.955078,18.66211 0.008,6.61964 0.430603,9.00973 1.589844,9 1.025419,-0.008 3.623799,-3.53408 6.505859,-8.82617 6.982159,-12.82068 8.851944,-21.34942 9.871094,-45.01758 0.03515,-0.81642 0.04482,-1.40367 0.07226,-2.14844 1.438095,-3.69598 2.627104,-8.1933 3.496094,-13.33398 0.91716,-5.42568 1.023802,-11.65094 0.232422,-13.57422 -0.70068,-1.70303 -1.732065,-2.66016 -2.865234,-2.66015 -1.54175,0 -4.044733,-1.54101 -6.826172,-4.20313 -1.48149,-1.41792 -3.195396,-2.85482 -3.810547,-3.19336 -0.616762,-0.33947 -1.362776,-0.52968 -2.164063,-0.57617 z"
       id="tooth29"
       inkscape:label="tooth 29"
       inkscape:connector-curvature="0" />
    <g
       id="29_R"
       inkscape:label="Root"
       style="opacity:0"
       transform="translate(52.054474,-175.765)">
      <circle
         r="9.9430752"
         cy="341.45563"
         cx="-8.8027849"
         id="path5006-06"
         style="opacity:1;fill:#2195de;fill-opacity:1;stroke:#000000;stroke-width:0.11384872;stroke-miterlimit:4;stroke-dasharray:none;stroke-opacity:0.52941165" />
      <text
         sodipodi:linespacing="125%"
         id="text5012-3"
         y="348.68698"
         x="-15.826676"
         style="font-style:normal;font-weight:normal;font-size:20.90592384px;line-height:125%;font-family:sans-serif;letter-spacing:0px;word-spacing:0px;fill:#ffffff;fill-opacity:1;stroke:none;stroke-width:1px;stroke-linecap:butt;stroke-linejoin:miter;stroke-opacity:1"
         xml:space="preserve"><tspan
           style="font-style:normal;font-variant:normal;font-weight:bold;font-stretch:normal;font-family:Raleway;-inkscape-font-specification:'Raleway Bold';fill:#ffffff"
           y="348.68698"
           x="-15.826676"
           id="tspan5014-8"
           sodipodi:role="line">R</tspan></text>
    </g>
    <g
       id="29_S"
       transform="translate(126.99971,7.7500046)"
       inkscape:label="Surface"
       style="opacity:0">
      <circle
         r="9.9430771"
         cy="84.190613"
         cx="-85.248001"
         id="path5006-0"
         style="opacity:1;fill:#2195de;fill-opacity:1;stroke:#000000;stroke-width:0.11384872;stroke-miterlimit:4;stroke-dasharray:none;stroke-opacity:0.52941165" />
      <text
         sodipodi:linespacing="125%"
         id="text5012-0"
         y="91.511269"
         x="-91.468323"
         style="font-style:normal;font-weight:normal;font-size:20.90592384px;line-height:125%;font-family:sans-serif;letter-spacing:0px;word-spacing:0px;fill:#ffffff;fill-opacity:1;stroke:none;stroke-width:1px;stroke-linecap:butt;stroke-linejoin:miter;stroke-opacity:1"
         xml:space="preserve"><tspan
           style="font-style:normal;font-variant:normal;font-weight:bold;font-stretch:normal;font-family:Raleway;-inkscape-font-specification:'Raleway Bold';fill:#ffffff"
           y="91.511269"
           x="-91.468323"
           id="tspan5014-1"
           sodipodi:role="line">S</tspan></text>
    </g>
    <g
       id="29_T"
       transform="translate(104.74969,-74.750011)"
       inkscape:label="Tooth"
       style="opacity:0">
      <path
         style="fill:#2195de;fill-opacity:1;fill-rule:nonzero;stroke:#000000;stroke-width:0.14981237px;stroke-linecap:butt;stroke-linejoin:miter;stroke-miterlimit:4;stroke-dasharray:none;stroke-opacity:1"
         d="m -52.14864,117.47888 c 0,5.54309 -4.419499,9.96257 -9.962567,9.96257 -5.468154,0 -9.887625,-4.41948 -9.887625,-9.96257 0,-5.46818 4.419471,-9.88762 9.887625,-9.88762 5.543068,0 9.962567,4.41944 9.962567,9.88762 z"
         id="path4337"
         inkscape:connector-curvature="0" />
      <path
         style="fill:#ffffff;fill-opacity:1;fill-rule:nonzero;stroke:none"
         d="m -55.819071,112.98451 -4.794032,0 0,12.28466 -2.846415,0 0,-12.28466 -4.719096,0 0,-2.5468 12.359543,0 0,2.5468 z"
         id="path4339"
         inkscape:connector-curvature="0" />
    </g>
    <ellipse
       style="opacity:1;fill:#e6e6e6;fill-opacity:1;fill-rule:evenodd;stroke:#000000;stroke-width:0;stroke-linejoin:miter;stroke-miterlimit:4;stroke-dasharray:none;stroke-opacity:1"
       id="path4185"
       cx="41.999691"
       cy="226.61206"
       rx="10.000003"
       ry="10.000002" />
    <text
       xml:space="preserve"
       style="font-style:normal;font-weight:normal;font-size:40px;line-height:125%;font-family:sans-serif;letter-spacing:0px;word-spacing:0px;fill:#333333;fill-opacity:1;stroke:none;stroke-width:1px;stroke-linecap:butt;stroke-linejoin:miter;stroke-opacity:1"
       x="34.343716"
       y="231.98358"
       id="text5899-3"
       sodipodi:linespacing="125%"><tspan
         sodipodi:role="line"
         id="tspan5901-1"
         x="34.343716"
         y="231.98358"
         style="font-style:normal;font-variant:normal;font-weight:normal;font-stretch:normal;font-size:15.00000286px;font-family:Roboto;-inkscape-font-specification:Roboto;fill:#333333">29</tspan></text>
  </g>
</svg>
