<?xml version="1.0" encoding="UTF-8" standalone="no"?>
<!-- Created with Inkscape (http://www.inkscape.org/) -->

<svg
   xmlns:osb="http://www.openswatchbook.org/uri/2009/osb"
   xmlns:dc="http://purl.org/dc/elements/1.1/"
   xmlns:cc="http://creativecommons.org/ns#"
   xmlns:rdf="http://www.w3.org/1999/02/22-rdf-syntax-ns#"
   xmlns:svg="http://www.w3.org/2000/svg"
   xmlns="http://www.w3.org/2000/svg"
   xmlns:sodipodi="http://sodipodi.sourceforge.net/DTD/sodipodi-0.dtd"
   xmlns:inkscape="http://www.inkscape.org/namespaces/inkscape"
   width="64.866142"
   height="230.31496"
   viewBox="0 0 64.866141 230.31501"
   id="svg5303"
   version="1.1"
   inkscape:version="0.91 r13725"
   sodipodi:docname="32.svg">
  <defs
     id="defs5305">
    <inkscape:path-effect
       effect="powerstroke"
       id="path-effect7879-8"
       is_visible="true"
       offset_points="0,0.46535075"
       sort_points="true"
       interpolator_type="Linear"
       interpolator_beta="0.2"
       start_linecap_type="zerowidth"
       linejoin_type="round"
       miter_limit="4"
       end_linecap_type="zerowidth"
       cusp_linecap_type="round" />
    <inkscape:path-effect
       effect="powerstroke"
       id="path-effect7879"
       is_visible="true"
       offset_points="0,0.85386708"
       sort_points="true"
       interpolator_type="Linear"
       interpolator_beta="0.2"
       start_linecap_type="zerowidth"
       linejoin_type="round"
       miter_limit="4"
       end_linecap_type="zerowidth"
       cusp_linecap_type="round" />
    <linearGradient
       id="linearGradient6202"
       osb:paint="solid">
      <stop
         style="stop-color:#b3b3b3;stop-opacity:1;"
         offset="0"
         id="stop6204" />
    </linearGradient>
    <pattern
       y="0"
       x="0"
       height="6"
       width="6"
       patternUnits="userSpaceOnUse"
       id="EMFhbasepattern" />
  </defs>
  <sodipodi:namedview
     id="base"
     pagecolor="#ffffff"
     bordercolor="#666666"
     borderopacity="1.0"
     inkscape:pageopacity="0.0"
     inkscape:pageshadow="2"
     inkscape:zoom="2.8284273"
     inkscape:cx="-21.799825"
     inkscape:cy="130.78655"
     inkscape:document-units="px"
     inkscape:current-layer="layer1"
     showgrid="true"
     fit-margin-top="0"
     fit-margin-left="0"
     fit-margin-right="0"
     fit-margin-bottom="0"
     objecttolerance="10000"
     inkscape:window-width="1739"
     inkscape:window-height="917"
     inkscape:window-x="-8"
     inkscape:window-y="-8"
     inkscape:window-maximized="1"
     units="px">
    <inkscape:grid
       type="xygrid"
       id="grid5927"
       originx="-9.5020207"
       originy="-814.67162" />
  </sodipodi:namedview>
  <metadata
     id="metadata5308">
    <rdf:RDF>
      <cc:Work
         rdf:about="">
        <dc:format>image/svg+xml</dc:format>
        <dc:type
           rdf:resource="http://purl.org/dc/dcmitype/StillImage" />
        <dc:title></dc:title>
      </cc:Work>
    </rdf:RDF>
  </metadata>
  <g
     inkscape:label="Layer 1"
     inkscape:groupmode="layer"
     id="layer1"
     transform="translate(-9.502021,-7.3756207)">
    <path
       style="fill:#333333;fill-opacity:1;fill-rule:evenodd;stroke:#000000;stroke-width:0;stroke-linejoin:miter;stroke-miterlimit:4;stroke-dasharray:none;stroke-opacity:1"
       d="m 30.316567,24.895162 c -0.660668,0.01997 -1.302927,0.08719 -1.873047,0.207031 -3.839799,0.80711 -7.195272,5.243582 -9.378906,12.400391 -1.387644,4.547949 -1.525639,7.596018 -0.457031,10.054688 1.448024,3.331599 5.18407,6.40625 7.785156,6.40625 1.01977,0 1.868367,0.523272 3.722656,2.294921 1.32078,1.2619 2.855197,2.575862 3.410157,2.919922 1.464759,0.90812 5.925312,1.629692 10.550781,1.707032 4.558219,0.0763 5.075114,-0.140202 8.970703,-3.738282 1.25464,-1.158799 3.30786,-2.935179 4.5625,-3.949218 1.25464,-1.01403 2.772144,-2.459808 3.371094,-3.210938 C 63.150829,47.26523 62.637246,42.455124 59.291176,34.147115 55.426797,24.552177 54.642495,24.12622 44.373208,26.0436 c -5.175009,0.96621 -7.625866,0.908506 -9.103516,-0.214844 -0.828,-0.629482 -2.97112,-0.993506 -4.953125,-0.933594 z m 8.564453,52.439453 c -0.64195,-8.3e-4 -2.439094,0.352581 -4.089844,0.275391 -1.650759,-0.0773 -4.276887,1.045845 -5.835937,1.171875 -5.937752,0.48014 -8.39168,2.441045 -10.048828,8.027344 -0.574123,1.935339 -0.726729,3.543281 -0.867188,9.11914 -0.155397,6.169075 -0.108218,6.988865 0.523438,9.238285 0.825627,2.94019 2.273249,5.04852 5.080078,7.38867 2.923175,2.43718 5.356827,3.37293 9.822266,3.78125 2.013289,0.18407 5.161924,0.60929 6.996093,0.94336 4.692169,0.85463 9.689106,-1.60202 12.865235,-2.20508 3.200869,-0.60776 4.716796,-2.23861 5.691406,-3.54102 0.69079,-0.9231 1.491444,-3.4758 1.490234,-6.91796 -0.003,-7.211393 0.391573,-11.768798 -0.904297,-16.351567 -0.890599,-3.14948 -2.700242,-6.19985 -4.544921,-7.66211 -1.90449,-1.509669 -3.328243,-3.210732 -9.769532,-3.195312 -2.751259,0.006 -5.766243,-0.07147 -6.408203,-0.07227 z m -2.144531,56.898435 a 5.9101472,3.8567913 0 0 0 -4.537109,1.32813 5.9101472,3.8567913 0 0 0 -0.988282,1.04297 c -3.238656,-1.04758 -5.000481,-1.23283 -6.722656,-0.48243 -2.447992,1.06669 -3.508221,1.47872 -5.638672,4.2168 -1.239186,1.59262 -2.403163,4.13662 -2.529297,4.93359 -0.31431,1.98594 -0.689618,6.72661 0.02734,10.14258 0.887854,4.23016 1.755183,7.31751 2.867188,9.49219 0.629067,2.07933 1.418799,4.37454 1.740234,6.05078 0.475782,2.4811 1.423175,5.83022 2.207031,7.80664 1.694171,4.2717 2.581882,8.3369 2.763672,12.65235 0.0979,2.32408 0.233228,3.57333 0.423828,3.93359 0.33821,0.63924 2.629683,1.56271 4.857422,1.95703 2.896089,0.51258 4.832493,-0.25017 11.832031,-4.66016 6.385119,-4.02285 9.735112,-6.63129 10.925782,-9.47851 1.303359,-3.11663 2.189558,-11.07578 3.05664,-17.50781 0.22968,-0.86168 0.479158,-1.96185 0.802735,-3.59766 1.706489,-8.62693 1.523901,-16.62913 0.832031,-19.96875 -0.77612,-3.74626 -2.479002,-5.72287 -6.144531,-6.92773 -1.27669,-0.41965 -5.656693,-0.72085 -6.914063,-0.44922 -1.496818,0.32337 -2.046074,0.74495 -3.755859,1.52148 a 5.9101472,3.8567913 0 0 0 -1.316406,-1.0664 5.9101472,3.8567913 0 0 0 -3.789063,-0.93946 z"
       id="tooth32"
       inkscape:label="tooth 32"
       inkscape:connector-curvature="0" />
    <g
       id="g4269"
       transform="translate(-3.9999001,0)">
      <ellipse
         ry="10.000002"
         rx="10.000003"
         cy="227.2052"
         cx="45.575771"
         id="path4185"
         style="opacity:1;fill:#e6e6e6;fill-opacity:1;fill-rule:evenodd;stroke:#000000;stroke-width:0;stroke-linejoin:miter;stroke-miterlimit:4;stroke-dasharray:none;stroke-opacity:1" />
      <text
         sodipodi:linespacing="125%"
         id="text5899-0"
         y="232.50349"
         x="36.823601"
         style="font-style:normal;font-weight:normal;font-size:40px;line-height:125%;font-family:sans-serif;letter-spacing:0px;word-spacing:0px;fill:#333333;fill-opacity:1;stroke:none;stroke-width:1px;stroke-linecap:butt;stroke-linejoin:miter;stroke-opacity:1"
         xml:space="preserve"><tspan
           style="font-style:normal;font-variant:normal;font-weight:normal;font-stretch:normal;font-size:15.00000286px;font-family:Roboto;-inkscape-font-specification:Roboto;fill:#333333"
           y="232.50349"
           x="36.823601"
           id="tspan5901-8"
           sodipodi:role="line">32</tspan></text>
    </g>
    <g
       id="32_R"
       inkscape:label="Root"
       style="opacity:0"
       transform="translate(48.423698,-169.38959)">
      <circle
         r="9.9430752"
         cy="341.45563"
         cx="-8.8027849"
         id="path5006-06"
         style="opacity:1;fill:#2195de;fill-opacity:1;stroke:#000000;stroke-width:0.11384872;stroke-miterlimit:4;stroke-dasharray:none;stroke-opacity:0.52941165" />
      <text
         sodipodi:linespacing="125%"
         id="text5012-3"
         y="348.68698"
         x="-15.826676"
         style="font-style:normal;font-weight:normal;font-size:20.90592384px;line-height:125%;font-family:sans-serif;letter-spacing:0px;word-spacing:0px;fill:#ffffff;fill-opacity:1;stroke:none;stroke-width:1px;stroke-linecap:butt;stroke-linejoin:miter;stroke-opacity:1"
         xml:space="preserve"><tspan
           style="font-style:normal;font-variant:normal;font-weight:bold;font-stretch:normal;font-family:Raleway;-inkscape-font-specification:'Raleway Bold';fill:#ffffff"
           y="348.68698"
           x="-15.826676"
           id="tspan5014-8"
           sodipodi:role="line">R</tspan></text>
    </g>
    <g
       id="32_S"
       transform="translate(125.51538,12.743909)"
       inkscape:label="Surface"
       style="opacity:0">
      <circle
         r="9.9430771"
         cy="84.190613"
         cx="-85.248001"
         id="path5006-0"
         style="opacity:1;fill:#2195de;fill-opacity:1;stroke:#000000;stroke-width:0.11384872;stroke-miterlimit:4;stroke-dasharray:none;stroke-opacity:0.52941165" />
      <text
         sodipodi:linespacing="125%"
         id="text5012-0"
         y="91.511269"
         x="-91.468323"
         style="font-style:normal;font-weight:normal;font-size:20.90592384px;line-height:125%;font-family:sans-serif;letter-spacing:0px;word-spacing:0px;fill:#ffffff;fill-opacity:1;stroke:none;stroke-width:1px;stroke-linecap:butt;stroke-linejoin:miter;stroke-opacity:1"
         xml:space="preserve"><tspan
           style="font-style:normal;font-variant:normal;font-weight:bold;font-stretch:normal;font-family:Raleway;-inkscape-font-specification:'Raleway Bold';fill:#ffffff"
           y="91.511269"
           x="-91.468323"
           id="tspan5014-1"
           sodipodi:role="line">S</tspan></text>
    </g>
    <g
       id="32_T"
       transform="translate(102.82601,-76.718566)"
       inkscape:label="Tooth"
       style="opacity:0">
      <path
         style="fill:#2195de;fill-opacity:1;fill-rule:nonzero;stroke:#000000;stroke-width:0.14981237px;stroke-linecap:butt;stroke-linejoin:miter;stroke-miterlimit:4;stroke-dasharray:none;stroke-opacity:1"
         d="m -52.14864,117.47888 c 0,5.54309 -4.419499,9.96257 -9.962567,9.96257 -5.468154,0 -9.887625,-4.41948 -9.887625,-9.96257 0,-5.46818 4.419471,-9.88762 9.887625,-9.88762 5.543068,0 9.962567,4.41944 9.962567,9.88762 z"
         id="path4337"
         inkscape:connector-curvature="0" />
      <path
         style="fill:#ffffff;fill-opacity:1;fill-rule:nonzero;stroke:none"
         d="m -55.819071,112.98451 -4.794032,0 0,12.28466 -2.846415,0 0,-12.28466 -4.719096,0 0,-2.5468 12.359543,0 0,2.5468 z"
         id="path4339"
         inkscape:connector-curvature="0" />
    </g>
  </g>
</svg>
