<?xml version="1.0" encoding="UTF-8" standalone="no"?>
<!-- Created with Inkscape (http://www.inkscape.org/) -->

<svg
   xmlns:dc="http://purl.org/dc/elements/1.1/"
   xmlns:cc="http://creativecommons.org/ns#"
   xmlns:rdf="http://www.w3.org/1999/02/22-rdf-syntax-ns#"
   xmlns:svg="http://www.w3.org/2000/svg"
   xmlns="http://www.w3.org/2000/svg"
   xmlns:sodipodi="http://sodipodi.sourceforge.net/DTD/sodipodi-0.dtd"
   xmlns:inkscape="http://www.inkscape.org/namespaces/inkscape"
   width="64.866142"
   height="230.31496"
   viewBox="0 0 64.866141 230.31501"
   id="svg5303"
   version="1.1"
   inkscape:version="0.91 r13725"
   sodipodi:docname="4.svg">
  <defs
     id="defs5305" />
  <sodipodi:namedview
     id="base"
     pagecolor="#ffffff"
     bordercolor="#666666"
     borderopacity="1.0"
     inkscape:pageopacity="0.0"
     inkscape:pageshadow="2"
     inkscape:zoom="4"
     inkscape:cx="-64.22798"
     inkscape:cy="152.27631"
     inkscape:document-units="px"
     inkscape:current-layer="layer1"
     showgrid="true"
     fit-margin-top="0"
     fit-margin-left="0"
     fit-margin-right="0"
     fit-margin-bottom="0"
     objecttolerance="10000"
     inkscape:window-width="1739"
     inkscape:window-height="917"
     inkscape:window-x="-8"
     inkscape:window-y="-8"
     inkscape:window-maximized="1"
     units="px">
    <inkscape:grid
       type="xygrid"
       id="grid5927"
       originx="-9.5020207"
       originy="-814.67162" />
  </sodipodi:namedview>
  <metadata
     id="metadata5308">
    <rdf:RDF>
      <cc:Work
         rdf:about="">
        <dc:format>image/svg+xml</dc:format>
        <dc:type
           rdf:resource="http://purl.org/dc/dcmitype/StillImage" />
        <dc:title></dc:title>
      </cc:Work>
    </rdf:RDF>
  </metadata>
  <g
     inkscape:label="Layer 1"
     inkscape:groupmode="layer"
     id="layer1"
     transform="translate(-9.502021,-7.3756207)">
    <path
       style="fill:#333333;fill-opacity:1;fill-rule:evenodd;stroke:#000000;stroke-width:0;stroke-linejoin:miter;stroke-miterlimit:4;stroke-dasharray:none;stroke-opacity:1"
       d="m 35.480612,37.471334 c -1.159241,-0.0097 -1.581844,2.38037 -1.589844,9 -0.0078,6.01294 -0.762359,13.211119 -1.955078,18.662109 -0.944257,4.315342 -1.86306,15.3728 -2.330078,24.955079 -4.619067,7.603523 -8.485025,20.159218 -7.666016,25.910158 0.51729,3.63212 7.272487,10.44893 13.929688,14.05664 2.077889,1.12603 4.642409,1.27829 6.287109,0.37304 0.615151,-0.33854 2.329057,-1.77544 3.810547,-3.19335 2.781439,-2.66212 5.284422,-4.20313 6.826172,-4.20313 1.133169,0 2.164554,-0.95713 2.865234,-2.66016 0.79138,-1.92328 0.684738,-8.14854 -0.232422,-13.57421 -0.86899,-5.14068 -2.057999,-9.638009 -3.496094,-13.333988 -0.02745,-0.744765 -0.03712,-1.332018 -0.07227,-2.148438 -1.01915,-23.66816 -2.888935,-32.196907 -9.871094,-45.017578 -2.88206,-5.292089 -5.48044,-8.818172 -6.505859,-8.826172 z m 4.939453,98.271486 c -2.866414,0 -9.99588,1.68025 -13.378907,3.15234 -4.159793,1.81012 -5.835024,4.59063 -6.117187,10.1543 -0.278393,5.48981 1.268518,11.20789 4.40625,16.28515 2.406847,3.89461 4.137968,5.32712 7.365234,6.09571 1.186387,0.28261 4.01256,0.39626 8.714844,0.35156 l 6.957031,-0.0644 1.019532,-0.93164 c 2.214333,-2.02338 6.711608,-15.79595 7.474609,-22.88868 0.251076,-2.33383 -0.808164,-4.30407 -1.496094,-4.92578 -0.437869,-0.39577 -0.21785,-0.15159 -0.404297,-0.33593 -0.303899,-0.30049 -3.778578,-2.73387 -8.308593,-5.03516 -3.505225,-1.78066 -3.761961,-1.85742 -6.232422,-1.85742 z m -1.201172,45.03515 c -1.058142,0.0573 -2.16657,0.33671 -3.160156,0.82813 -6.366577,3.14899 -12.827563,9.09925 -13.322266,12.26953 -0.891395,5.71268 4.02169,19.12304 9.193359,25.09375 2.283837,2.63673 4.355631,3.8979 7.339844,4.4668 2.517292,0.47989 3.429062,0.28999 5.78711,-1.20508 4.303579,-2.72855 7.803591,-10.05777 9.705078,-20.32422 0.877127,-4.73579 0.979487,-10.16894 0.222656,-11.84766 -0.670092,-1.48649 -1.658496,-2.32226 -2.742188,-2.32226 -1.474445,0 -3.865378,-1.34435 -6.52539,-3.66797 -1.416821,-1.23765 -3.058182,-2.49161 -3.646485,-2.78711 -0.786454,-0.39507 -1.79342,-0.56118 -2.851562,-0.50391 z"
       id="tooth04"
       inkscape:label="tooth 4"
       inkscape:connector-curvature="0" />
    <g
       id="g4161"
       transform="translate(-29.499923,0)">
      <ellipse
         ry="10.000002"
         rx="10.000003"
         cy="17.862028"
         cx="70.250023"
         id="path4185"
         style="opacity:1;fill:#e6e6e6;fill-opacity:1;fill-rule:evenodd;stroke:#000000;stroke-width:0;stroke-linejoin:miter;stroke-miterlimit:4;stroke-dasharray:none;stroke-opacity:1" />
      <text
         sodipodi:linespacing="125%"
         id="text5899-5"
         y="22.98354"
         x="66.094048"
         style="font-style:normal;font-weight:normal;font-size:40px;line-height:125%;font-family:sans-serif;letter-spacing:0px;word-spacing:0px;fill:#333333;fill-opacity:1;stroke:none;stroke-width:1px;stroke-linecap:butt;stroke-linejoin:miter;stroke-opacity:1"
         xml:space="preserve"><tspan
           style="font-style:normal;font-variant:normal;font-weight:normal;font-stretch:normal;font-size:15.00000286px;font-family:Roboto;-inkscape-font-specification:Roboto;fill:#333333"
           y="22.98354"
           x="66.094048"
           id="tspan5901-0"
           sodipodi:role="line">54</tspan></text>
    </g>
    <g
       id="4_R"
       inkscape:label="Root"
       style="opacity:0"
       transform="translate(49.054889,-268.26501)">
      <circle
         r="9.9430752"
         cy="341.45563"
         cx="-8.8027849"
         id="path5006-06"
         style="opacity:1;fill:#2195de;fill-opacity:1;stroke:#000000;stroke-width:0.11384872;stroke-miterlimit:4;stroke-dasharray:none;stroke-opacity:0.52941165" />
      <text
         sodipodi:linespacing="125%"
         id="text5012-3"
         y="348.68698"
         x="-15.826676"
         style="font-style:normal;font-weight:normal;font-size:20.90592384px;line-height:125%;font-family:sans-serif;letter-spacing:0px;word-spacing:0px;fill:#ffffff;fill-opacity:1;stroke:none;stroke-width:1px;stroke-linecap:butt;stroke-linejoin:miter;stroke-opacity:1"
         xml:space="preserve"><tspan
           style="font-style:normal;font-variant:normal;font-weight:bold;font-stretch:normal;font-family:Raleway;-inkscape-font-specification:'Raleway Bold';fill:#ffffff"
           y="348.68698"
           x="-15.826676"
           id="tspan5014-8"
           sodipodi:role="line">R</tspan></text>
    </g>
    <g
       id="4_S"
       transform="translate(124.25011,69.250013)"
       inkscape:label="Surface"
       style="opacity:0">
      <circle
         r="9.9430771"
         cy="84.190613"
         cx="-85.248001"
         id="path5006-0"
         style="opacity:1;fill:#2195de;fill-opacity:1;stroke:#000000;stroke-width:0.11384872;stroke-miterlimit:4;stroke-dasharray:none;stroke-opacity:0.52941165" />
      <text
         sodipodi:linespacing="125%"
         id="text5012-0"
         y="91.511269"
         x="-91.468323"
         style="font-style:normal;font-weight:normal;font-size:20.90592384px;line-height:125%;font-family:sans-serif;letter-spacing:0px;word-spacing:0px;fill:#ffffff;fill-opacity:1;stroke:none;stroke-width:1px;stroke-linecap:butt;stroke-linejoin:miter;stroke-opacity:1"
         xml:space="preserve"><tspan
           style="font-style:normal;font-variant:normal;font-weight:bold;font-stretch:normal;font-family:Raleway;-inkscape-font-specification:'Raleway Bold';fill:#ffffff"
           y="91.511269"
           x="-91.468323"
           id="tspan5014-1"
           sodipodi:role="line">S</tspan></text>
    </g>
    <g
       id="4_T"
       transform="translate(102.0001,83.500011)"
       inkscape:label="Tooth"
       style="opacity:0">
      <path
         style="fill:#2195de;fill-opacity:1;fill-rule:nonzero;stroke:#000000;stroke-width:0.14981237px;stroke-linecap:butt;stroke-linejoin:miter;stroke-miterlimit:4;stroke-dasharray:none;stroke-opacity:1"
         d="m -52.14864,117.47888 c 0,5.54309 -4.419499,9.96257 -9.962567,9.96257 -5.468154,0 -9.887625,-4.41948 -9.887625,-9.96257 0,-5.46818 4.419471,-9.88762 9.887625,-9.88762 5.543068,0 9.962567,4.41944 9.962567,9.88762 z"
         id="path4337"
         inkscape:connector-curvature="0" />
      <path
         style="fill:#ffffff;fill-opacity:1;fill-rule:nonzero;stroke:none"
         d="m -55.819071,112.98451 -4.794032,0 0,12.28466 -2.846415,0 0,-12.28466 -4.719096,0 0,-2.5468 12.359543,0 0,2.5468 z"
         id="path4339"
         inkscape:connector-curvature="0" />
    </g>
  </g>
</svg>
