<?xml version="1.0" encoding="UTF-8" standalone="no"?>
<!-- Created with Inkscape (http://www.inkscape.org/) -->

<svg
   xmlns:dc="http://purl.org/dc/elements/1.1/"
   xmlns:cc="http://creativecommons.org/ns#"
   xmlns:rdf="http://www.w3.org/1999/02/22-rdf-syntax-ns#"
   xmlns:svg="http://www.w3.org/2000/svg"
   xmlns="http://www.w3.org/2000/svg"
   xmlns:sodipodi="http://sodipodi.sourceforge.net/DTD/sodipodi-0.dtd"
   xmlns:inkscape="http://www.inkscape.org/namespaces/inkscape"
   width="64.866142"
   height="230.31496"
   viewBox="0 0 64.866141 230.31501"
   id="svg5303"
   version="1.1"
   inkscape:version="0.91 r13725"
   sodipodi:docname="12.svg">
  <defs
     id="defs5305" />
  <sodipodi:namedview
     id="base"
     pagecolor="#ffffff"
     bordercolor="#666666"
     borderopacity="1.0"
     inkscape:pageopacity="0.0"
     inkscape:pageshadow="2"
     inkscape:zoom="4"
     inkscape:cx="-46.85298"
     inkscape:cy="177.10214"
     inkscape:document-units="px"
     inkscape:current-layer="layer1"
     showgrid="true"
     fit-margin-top="0"
     fit-margin-left="0"
     fit-margin-right="0"
     fit-margin-bottom="0"
     objecttolerance="10000"
     inkscape:window-width="1739"
     inkscape:window-height="917"
     inkscape:window-x="-8"
     inkscape:window-y="-8"
     inkscape:window-maximized="1"
     units="px">
    <inkscape:grid
       type="xygrid"
       id="grid5927"
       originx="-9.5020207"
       originy="-814.67162" />
  </sodipodi:namedview>
  <metadata
     id="metadata5308">
    <rdf:RDF>
      <cc:Work
         rdf:about="">
        <dc:format>image/svg+xml</dc:format>
        <dc:type
           rdf:resource="http://purl.org/dc/dcmitype/StillImage" />
        <dc:title></dc:title>
      </cc:Work>
    </rdf:RDF>
  </metadata>
  <g
     inkscape:label="Layer 1"
     inkscape:groupmode="layer"
     id="layer1"
     transform="translate(-9.502021,-7.3756207)">
    <path
       style="fill:#333333;fill-opacity:1;fill-rule:evenodd;stroke:#000000;stroke-width:0;stroke-linejoin:miter;stroke-miterlimit:4;stroke-dasharray:none;stroke-opacity:1"
       d="m 31.857897,38.416647 c -0.367443,0.03064 -0.690094,0.223001 -0.958985,0.589843 -0.49212,0.67134 -0.535078,2.495094 -0.330078,13.839844 0.228943,12.670192 -0.02923,17.842829 -1.689453,32.548828 -0.621688,1.093804 -1.039463,2.059249 -1.414062,3.189453 -1.57111,4.740031 -3.904297,19.106525 -3.904297,24.041015 0,2.24138 0.145412,2.78361 1.138672,4.23633 0.641179,0.93782 1.917069,2.04674 2.917968,2.53711 0.9781,0.47926 3.442403,2.40063 5.476563,4.26953 2.034139,1.86885 4.388812,3.83583 5.232422,4.36914 1.868139,1.18096 3.570965,1.00398 5.859375,-0.60742 7.310058,-5.14733 10.890565,-7.96678 12.265625,-9.65625 l 1.607422,-1.97461 -0.03125,-4.94727 c -0.07065,-10.69238 -3.026768,-23.78207 -6.773438,-30.71484 -0.649036,-2.719764 -1.475987,-5.715538 -2.501953,-9.082031 -0.38649,-1.268187 -0.784737,-2.518409 -1.191406,-3.75 -0.05182,-3.658518 -0.03789,-7.511278 0.02148,-12.529297 0.14856,-12.55722 0.116366,-14.57527 -0.240234,-15.31836 -1.181905,-2.46251 -3.774541,2.19502 -6.603516,10.732422 -0.899735,-1.859298 -1.783872,-3.535485 -2.640625,-5.011719 -0.05159,-0.08948 -0.130151,-0.257034 -0.148437,-0.253906 -2.445891,-4.162783 -4.631829,-6.629569 -6.091797,-6.507812 z M 39.605944,138.8893 c -3.587529,0.0422 -7.138657,0.61761 -9.025391,1.70899 -3.402,1.96789 -5.90766,7.94034 -6.570313,15.6582 -0.256136,2.98306 -0.234679,4.01972 0.134766,6.10156 0.244835,1.37962 0.676333,2.78593 0.957031,3.125 0.632667,0.76422 7.169266,5.34639 9.117188,6.39063 2.988943,1.60231 5.52738,2.04064 8.322265,1.4375 3.126314,-0.67467 9.683876,-3.66173 11.794922,-5.37305 0.550045,-0.44588 1.349223,-1.44244 1.775391,-2.21289 0.751446,-1.35852 0.773477,-1.53391 0.738281,-5.82227 -0.03046,-3.70175 -0.157471,-4.91143 -0.78125,-7.43164 -1.438172,-5.81058 -4.285515,-10.57775 -7.220703,-12.08789 -2.031757,-1.04534 -5.654658,-1.5363 -9.242187,-1.49414 z m 0.25,41.77344 c -0.666498,0.0419 -1.317073,0.22695 -1.990235,0.55273 -0.810655,0.39233 -3.072771,1.83805 -5.027343,3.21289 -1.95464,1.37485 -4.323833,2.79 -5.263672,3.14258 -0.961814,0.36078 -2.186634,1.17537 -2.802735,1.86524 -0.954442,1.06871 -1.095703,1.46832 -1.095703,3.11718 0,3.63003 2.242266,14.19857 3.751953,17.68555 0.768535,1.77518 1.691282,2.98324 4.419922,5.78516 4.469268,4.58919 6.250229,5.62131 9.679688,5.60937 3.147128,-0.0111 5.107218,-0.97374 7.632812,-3.74804 4.117447,-4.52308 7.559973,-15.35616 7.634766,-24.02735 l 0.03125,-3.63867 -1.544922,-1.45313 c -1.321309,-1.24277 -4.762799,-3.31685 -11.787109,-7.10351 -1.374317,-0.74084 -2.527843,-1.06992 -3.638672,-1 z"
       id="tooth12"
       inkscape:label="tooth 12"
       inkscape:connector-curvature="0" />
    <ellipse
       style="opacity:1;fill:#e6e6e6;fill-opacity:1;fill-rule:evenodd;stroke:#000000;stroke-width:0;stroke-linejoin:miter;stroke-miterlimit:4;stroke-dasharray:none;stroke-opacity:1"
       id="path4185"
       cx="38.750435"
       cy="17.612028"
       rx="10.000003"
       ry="10.000002" />
    <text
       xml:space="preserve"
       style="font-style:normal;font-weight:normal;font-size:40px;line-height:125%;font-family:sans-serif;letter-spacing:0px;word-spacing:0px;fill:#333333;fill-opacity:1;stroke:none;stroke-width:1px;stroke-linecap:butt;stroke-linejoin:miter;stroke-opacity:1"
       x="29.294302"
       y="22.73354"
       id="text5899"
       sodipodi:linespacing="125%"><tspan
         sodipodi:role="line"
         id="tspan5901"
         x="29.294302"
         y="22.73354"
         style="font-style:normal;font-variant:normal;font-weight:normal;font-stretch:normal;font-size:15.00000286px;font-family:Roboto;-inkscape-font-specification:Roboto;fill:#333333">62</tspan></text>
    <g
       id="12_R"
       inkscape:label="Root"
       style="opacity:0"
       transform="translate(48.555221,-268.76502)">
      <circle
         r="9.9430752"
         cy="341.45563"
         cx="-8.8027849"
         id="path5006-06"
         style="opacity:1;fill:#2195de;fill-opacity:1;stroke:#000000;stroke-width:0.11384872;stroke-miterlimit:4;stroke-dasharray:none;stroke-opacity:0.52941165" />
      <text
         sodipodi:linespacing="125%"
         id="text5012-3"
         y="348.68698"
         x="-15.826676"
         style="font-style:normal;font-weight:normal;font-size:20.90592384px;line-height:125%;font-family:sans-serif;letter-spacing:0px;word-spacing:0px;fill:#ffffff;fill-opacity:1;stroke:none;stroke-width:1px;stroke-linecap:butt;stroke-linejoin:miter;stroke-opacity:1"
         xml:space="preserve"><tspan
           style="font-style:normal;font-variant:normal;font-weight:bold;font-stretch:normal;font-family:Raleway;-inkscape-font-specification:'Raleway Bold';fill:#ffffff"
           y="348.68698"
           x="-15.826676"
           id="tspan5014-8"
           sodipodi:role="line">R</tspan></text>
    </g>
    <g
       id="12_S"
       transform="translate(126.25044,71.500016)"
       inkscape:label="Surface"
       style="opacity:0">
      <circle
         r="9.9430771"
         cy="84.190613"
         cx="-85.248001"
         id="path5006-0"
         style="opacity:1;fill:#2195de;fill-opacity:1;stroke:#000000;stroke-width:0.11384872;stroke-miterlimit:4;stroke-dasharray:none;stroke-opacity:0.52941165" />
      <text
         sodipodi:linespacing="125%"
         id="text5012-0"
         y="91.511269"
         x="-91.468323"
         style="font-style:normal;font-weight:normal;font-size:20.90592384px;line-height:125%;font-family:sans-serif;letter-spacing:0px;word-spacing:0px;fill:#ffffff;fill-opacity:1;stroke:none;stroke-width:1px;stroke-linecap:butt;stroke-linejoin:miter;stroke-opacity:1"
         xml:space="preserve"><tspan
           style="font-style:normal;font-variant:normal;font-weight:bold;font-stretch:normal;font-family:Raleway;-inkscape-font-specification:'Raleway Bold';fill:#ffffff"
           y="91.511269"
           x="-91.468323"
           id="tspan5014-1"
           sodipodi:role="line">S</tspan></text>
    </g>
    <g
       id="12_T"
       transform="translate(102.75043,82.000016)"
       inkscape:label="Tooth"
       style="opacity:0">
      <path
         style="fill:#2195de;fill-opacity:1;fill-rule:nonzero;stroke:#000000;stroke-width:0.14981237px;stroke-linecap:butt;stroke-linejoin:miter;stroke-miterlimit:4;stroke-dasharray:none;stroke-opacity:1"
         d="m -52.14864,117.47888 c 0,5.54309 -4.419499,9.96257 -9.962567,9.96257 -5.468154,0 -9.887625,-4.41948 -9.887625,-9.96257 0,-5.46818 4.419471,-9.88762 9.887625,-9.88762 5.543068,0 9.962567,4.41944 9.962567,9.88762 z"
         id="path4337"
         inkscape:connector-curvature="0" />
      <path
         style="fill:#ffffff;fill-opacity:1;fill-rule:nonzero;stroke:none"
         d="m -55.819071,112.98451 -4.794032,0 0,12.28466 -2.846415,0 0,-12.28466 -4.719096,0 0,-2.5468 12.359543,0 0,2.5468 z"
         id="path4339"
         inkscape:connector-curvature="0" />
    </g>
  </g>
</svg>
