<?xml version="1.0" encoding="UTF-8" standalone="no"?>
<!-- Created with Inkscape (http://www.inkscape.org/) -->

<svg
   xmlns:dc="http://purl.org/dc/elements/1.1/"
   xmlns:cc="http://creativecommons.org/ns#"
   xmlns:rdf="http://www.w3.org/1999/02/22-rdf-syntax-ns#"
   xmlns:svg="http://www.w3.org/2000/svg"
   xmlns="http://www.w3.org/2000/svg"
   xmlns:sodipodi="http://sodipodi.sourceforge.net/DTD/sodipodi-0.dtd"
   xmlns:inkscape="http://www.inkscape.org/namespaces/inkscape"
   width="64.866142"
   height="230.31496"
   viewBox="0 0 64.866141 230.31501"
   id="svg5303"
   version="1.1"
   inkscape:version="0.91 r13725"
   sodipodi:docname="18.svg">
  <defs
     id="defs5305">
    <inkscape:path-effect
       effect="powerstroke"
       id="path-effect7879-8"
       is_visible="true"
       offset_points="0,0.46535075"
       sort_points="true"
       interpolator_type="Linear"
       interpolator_beta="0.2"
       start_linecap_type="zerowidth"
       linejoin_type="round"
       miter_limit="4"
       end_linecap_type="zerowidth"
       cusp_linecap_type="round" />
    <inkscape:path-effect
       effect="powerstroke"
       id="path-effect7879"
       is_visible="true"
       offset_points="0,0.85386708"
       sort_points="true"
       interpolator_type="Linear"
       interpolator_beta="0.2"
       start_linecap_type="zerowidth"
       linejoin_type="round"
       miter_limit="4"
       end_linecap_type="zerowidth"
       cusp_linecap_type="round" />
  </defs>
  <sodipodi:namedview
     id="base"
     pagecolor="#ffffff"
     bordercolor="#666666"
     borderopacity="1.0"
     inkscape:pageopacity="0.0"
     inkscape:pageshadow="2"
     inkscape:zoom="3.6349999"
     inkscape:cx="-64.444626"
     inkscape:cy="146.08539"
     inkscape:document-units="px"
     inkscape:current-layer="layer1"
     showgrid="true"
     fit-margin-top="0"
     fit-margin-left="0"
     fit-margin-right="0"
     fit-margin-bottom="0"
     objecttolerance="10000"
     inkscape:window-width="1739"
     inkscape:window-height="917"
     inkscape:window-x="1731"
     inkscape:window-y="-8"
     inkscape:window-maximized="1"
     units="px">
    <inkscape:grid
       type="xygrid"
       id="grid5927"
       originx="-9.5020207"
       originy="-814.67162" />
  </sodipodi:namedview>
  <metadata
     id="metadata5308">
    <rdf:RDF>
      <cc:Work
         rdf:about="">
        <dc:format>image/svg+xml</dc:format>
        <dc:type
           rdf:resource="http://purl.org/dc/dcmitype/StillImage" />
        <dc:title />
      </cc:Work>
    </rdf:RDF>
  </metadata>
  <g
     inkscape:label="Layer 1"
     inkscape:groupmode="layer"
     id="layer1"
     transform="translate(-9.502021,-7.3756207)">
    <path
       style="fill:#333333;fill-opacity:1"
       d="m 40.541932,22.736959 c 0.07782,0.0019 0.149074,0.01266 0.214844,0.03125 0.283068,0.08001 1.120473,0.619783 1.861328,1.201172 0.740873,0.581378 1.844206,1.25273 2.451172,1.490234 1.130349,0.442286 1.787703,0.465537 7.242187,0.269532 6.101588,-0.219303 9.656836,4.459378 10.957032,14.414062 0.38626,2.957207 0.417106,7.246539 0.0625,8.91211 -0.735741,3.455788 -2.506953,5.610923 -6.212891,7.560546 -4.116217,2.165492 -6.683821,2.745023 -8.818359,1.994141 -1.025826,-0.360887 -4.95167,-2.784135 -7.677735,-4.740234 l -0.77539,-0.556641 -4.466797,2.447266 c -3.830682,2.098623 -5.677935,2.913753 -7.507813,3.310546 -0.843111,0.182825 -2.703182,0.01225 -3.8125,-0.349609 -1.497291,-0.488397 -3.358508,-1.61934 -5.503906,-3.341797 -2.004011,-1.608989 -2.526562,-2.408555 -2.740234,-4.205078 -0.426456,-3.585437 1.130814,-12.270695 3.451171,-19.253906 1.028174,-3.094303 1.596357,-4.256403 2.476563,-5.060547 1.178749,-1.076907 2.185326,-1.264874 7.439453,-1.390625 5.180585,-0.12401 7.078258,-0.440371 8.585938,-1.435547 1.373729,-0.906764 2.22871,-1.310007 2.773437,-1.296875 z m 3.710938,48.320313 c 1.467696,0.07997 2.923529,0.744761 4.316406,0.824218 6.062737,0.345908 8.613087,2.35332 10.447265,8.21875 0.635465,2.032026 0.834555,3.729223 1.123047,9.625 0.319186,6.523059 0.29201,7.391777 -0.292968,9.789063 -0.764614,3.133427 -2.185381,5.402407 -4.984375,7.955077 -2.915001,2.6585 -5.370773,3.71756 -9.910157,4.27148 -2.046633,0.24973 -5.243314,0.78396 -7.103515,1.1875 -4.75877,1.03236 -9.913992,-1.43104 -13.166016,-1.98242 -3.27734,-0.55567 -4.865547,-2.23843 -5.892578,-3.58984 -0.727935,-0.95785 -2.302125,-4.44192 -2.390625,-8.083985 -0.185393,-7.630182 -0.01144,-11.637234 1.189453,-16.521484 0.825343,-3.356646 2.588196,-6.632949 4.429688,-8.230469 1.901227,-1.649326 2.426507,-2.715477 8.990234,-2.875 2.803549,-0.06779 6.558795,-0.05965 7.212891,-0.07813 0.654088,-0.01838 3.720381,-0.377081 5.40039,-0.503906 0.210001,-0.01586 0.421189,-0.01728 0.63086,-0.0059 z M 26.643495,126.3229 c 0.08119,-0.003 0.16608,0.006 0.248046,0.006 0.349786,-0.007 0.707274,0.01 1.070313,0.0449 0.600688,0.0196 1.185446,0.13814 1.769531,0.34179 1.014781,0.26654 2.091177,0.68016 3.242188,1.24024 0.03537,0.0172 0.07191,0.0352 0.107422,0.0527 0.377304,0.1762 0.761863,0.3613 1.160156,0.56446 l 2.96289,1.50976 c 0.769548,0.14733 1.523343,0.184 2.304688,0.0996 0.04534,-0.0133 0.0947,-0.0358 0.140625,-0.0508 l 3.318359,-1.5625 c 0.648414,-0.30534 1.226591,-0.55106 1.775391,-0.76758 1.778284,-0.87545 2.767122,-1.11693 4.035156,-0.83594 0.529139,0.0376 1.034355,0.14404 1.544922,0.32422 3.981682,1.40538 7.749703,4.43727 8.951172,7.20117 0.01435,0.033 0.02514,0.0718 0.03906,0.10547 0.529918,0.89378 0.731814,1.76812 0.726562,3.125 0.03656,0.30699 0.06055,0.61508 0.06055,0.92188 -0.005,3.5177 -0.849756,7.75909 -2.242188,11.68164 -0.36952,1.08286 -0.770467,2.16884 -1.228515,3.24414 -2.50431,5.88015 -2.736132,7.19853 -2.236328,12.66797 0.305876,3.35751 1.769099,10.60696 3.25,16.11133 0.588733,2.18678 1.012174,3.80413 1.349609,5.18359 l 0,0.004 c 0.877508,3.58787 0.962312,4.9897 0.451172,6.33007 -0.0015,0.004 -0.0024,0.008 -0.0039,0.0117 -0.04424,0.23663 -0.10368,0.44376 -0.181641,0.62305 -0.0308,0.0708 -0.07079,0.13055 -0.103516,0.19922 -0.02524,0.11453 -0.05972,0.23813 -0.115234,0.38476 -0.09566,0.40028 -0.227372,0.72377 -0.404297,0.94141 -0.254938,0.31383 -0.570549,0.53234 -0.921875,0.68164 -0.614645,0.66547 -1.253185,1.12695 -1.716797,1.12695 -0.23207,0 -0.561709,-0.1756 -0.943359,-0.45117 -0.170957,-0.0394 -0.341545,-0.0845 -0.50586,-0.16211 -0.853495,-0.403 -2.689501,-2.65941 -4.71289,-5.53711 -0.0553,-0.0756 -0.115273,-0.15854 -0.171875,-0.23632 -0.08338,-0.11049 -0.152173,-0.19566 -0.238281,-0.31055 -0.392259,-0.52339 -0.816112,-1.14297 -1.25,-1.79688 -0.517512,-0.7685 -1.040442,-1.60447 -1.570313,-2.4707 -1.926065,-2.96744 -3.635388,-5.96968 -4.498047,-8.18945 -0.678858,-1.74671 -1.249157,-3.09176 -1.765625,-4.10742 -0.02603,-0.0496 -0.05827,-0.12202 -0.08398,-0.16993 -0.0047,-0.009 -0.009,-0.0166 -0.01367,-0.0254 -0.806179,-1.49559 -1.459383,-2.16694 -2.142578,-2.13672 -0.11114,0.007 -0.222028,0.0293 -0.335938,0.0723 -0.599392,0.2261 -1.247726,0.9435 -2.044921,2.08398 -0.151561,0.2169 -0.294166,0.45081 -0.429688,0.70118 -2.03283,3.75547 -2.251147,11.05266 -0.328125,15.14257 1.061919,2.25998 1.648673,3.57056 1.931641,4.51368 0.177213,0.32191 0.292968,0.67488 0.292968,0.97461 0,0.0776 -0.0087,0.12905 -0.01172,0.19726 7.2e-4,0.0148 0.01172,0.0365 0.01172,0.0508 0,0.25395 -0.02141,0.43774 -0.05273,0.57032 0.02536,0.64096 -0.154395,1.18013 -0.535156,1.64843 l 0.0039,0 c -0.114385,0.14104 -0.311553,0.26539 -0.533203,0.37696 -0.226659,0.16599 -0.488997,0.2559 -0.785156,0.27539 -0.205586,0.0426 -0.413278,0.0703 -0.613282,0.0703 -0.517017,0 -0.766167,-0.0716 -0.748047,-0.27149 -1.279837,-0.41233 -2.897405,-1.50301 -4.779296,-3.26953 -6.286775,-5.90141 -7.191915,-8.84419 -7.884766,-25.66015 -0.168915,-4.09919 -0.363204,-7.42143 -0.615234,-10.2168 -0.0084,-0.0934 -0.01879,-0.17139 -0.02734,-0.26367 -0.427503,-4.44263 -0.995486,-7.57156 -1.810547,-10.22071 -0.410608,-1.33453 -0.7463,-2.63289 -1.021484,-3.89257 -0.938923,-3.8815 -1.232288,-6.98089 -0.839844,-9.52149 0.02853,-0.52122 0.09234,-0.97045 0.179687,-1.39062 l 0.0098,-0.92383 0.07422,0.5293 c 0.0163,-0.0586 0.0347,-0.11841 0.05273,-0.17579 0.128252,-0.46145 0.312591,-0.8714 0.539063,-1.27539 -5.42e-4,-0.0152 -0.0059,-0.0229 -0.0059,-0.0391 0,-0.064 0.09915,-0.19784 0.25,-0.36523 0.09278,-0.14255 0.180532,-0.28471 0.28711,-0.42969 0.366646,-0.4986 0.745441,-0.94689 1.128906,-1.37305 0.0028,-0.003 0.005,-0.007 0.0078,-0.01 0.0036,-0.004 0.0081,-0.008 0.01172,-0.0117 1.133232,-1.25483 2.339373,-2.1937 3.617188,-2.81641 0.134189,-0.0733 0.269544,-0.13404 0.404297,-0.19922 0.0032,-10e-4 0.0065,-0.003 0.0098,-0.004 1.008698,-0.4864 2.035387,-0.75754 3.132813,-0.79492 z m 12.15625,43.34179 c -8.5e-4,-1.7e-4 -0.0031,0.002 -0.0039,0.002 0.0064,0.003 0.01494,0.01 0.02148,0.0137 -0.0026,-9e-4 -0.01511,-0.0151 -0.01758,-0.0156 z m 17.24414,25.67969 -0.376953,0.0371 c 0.0477,0.0152 0.0898,0.0197 0.134766,0.0293 0.09121,-0.016 0.157408,-0.0467 0.242187,-0.0664 z m -20.396484,1.3418 -0.28125,0.29687 c -0.132418,0.14034 -0.256908,0.28674 -0.386719,0.42188 0.0155,-0.004 0.02976,-0.0108 0.04492,-0.0156 0.258129,-0.23452 0.461378,-0.43838 0.625,-0.62695 3.04e-4,-0.024 -0.0016,-0.0514 -0.002,-0.0762 z"
       id="path6565-86-1-7"
       inkscape:connector-curvature="0" />
    <ellipse
       style="opacity:1;fill:#e6e6e6;fill-opacity:1;fill-rule:evenodd;stroke:#000000;stroke-width:0;stroke-linejoin:miter;stroke-miterlimit:4;stroke-dasharray:none;stroke-opacity:1"
       id="path4185"
       cx="39.851791"
       cy="227.35075"
       rx="10.000006"
       ry="10.000004" />
    <text
       xml:space="preserve"
       style="font-style:normal;font-weight:normal;font-size:40px;line-height:125%;font-family:sans-serif;letter-spacing:0px;word-spacing:0px;fill:#333333;fill-opacity:1;stroke:none;stroke-width:1px;stroke-linecap:butt;stroke-linejoin:miter;stroke-opacity:1"
       x="31.423359"
       y="232.73746"
       id="text5899-0"
       sodipodi:linespacing="125%"><tspan
         sodipodi:role="line"
         id="tspan5901-8"
         x="31.423359"
         y="232.73746"
         style="font-style:normal;font-variant:normal;font-weight:normal;font-stretch:normal;font-size:15.00000286px;font-family:Roboto;-inkscape-font-specification:Roboto;fill:#333333">68</tspan></text>
    <g
       id="18_S"
       transform="translate(123.19131,7.4384481)"
       inkscape:label="Surface"
       style="opacity:0">
      <circle
         r="9.9430771"
         cy="84.190613"
         cx="-85.248001"
         id="path5006-0"
         style="opacity:1;fill:#2195de;fill-opacity:1;stroke:#000000;stroke-width:0.11384872;stroke-miterlimit:4;stroke-dasharray:none;stroke-opacity:0.52941165" />
      <text
         sodipodi:linespacing="125%"
         id="text5012-0"
         y="91.511269"
         x="-91.468323"
         style="font-style:normal;font-weight:normal;font-size:20.90592384px;line-height:125%;font-family:sans-serif;letter-spacing:0px;word-spacing:0px;fill:#ffffff;fill-opacity:1;stroke:none;stroke-width:1px;stroke-linecap:butt;stroke-linejoin:miter;stroke-opacity:1"
         xml:space="preserve"><tspan
           style="font-style:normal;font-variant:normal;font-weight:bold;font-stretch:normal;font-family:Raleway;-inkscape-font-specification:'Raleway Bold';fill:#ffffff"
           y="91.511269"
           x="-91.468323"
           id="tspan5014-1"
           sodipodi:role="line">S</tspan></text>
    </g>
    <g
       id="18_R"
       inkscape:label="Root"
       style="opacity:0"
       transform="translate(46.571411,-182.9225)">
      <circle
         r="9.9430752"
         cy="341.45563"
         cx="-8.8027849"
         id="path5006-06"
         style="opacity:1;fill:#2195de;fill-opacity:1;stroke:#000000;stroke-width:0.11384872;stroke-miterlimit:4;stroke-dasharray:none;stroke-opacity:0.52941165" />
      <text
         sodipodi:linespacing="125%"
         id="text5012-3"
         y="348.68698"
         x="-15.826676"
         style="font-style:normal;font-weight:normal;font-size:20.90592384px;line-height:125%;font-family:sans-serif;letter-spacing:0px;word-spacing:0px;fill:#ffffff;fill-opacity:1;stroke:none;stroke-width:1px;stroke-linecap:butt;stroke-linejoin:miter;stroke-opacity:1"
         xml:space="preserve"><tspan
           style="font-style:normal;font-variant:normal;font-weight:bold;font-stretch:normal;font-family:Raleway;-inkscape-font-specification:'Raleway Bold';fill:#ffffff"
           y="348.68698"
           x="-15.826676"
           id="tspan5014-8"
           sodipodi:role="line">R</tspan></text>
    </g>
    <g
       id="18_T"
       transform="translate(101.64214,-77.274433)"
       inkscape:label="Tooth"
       style="opacity:0">
      <path
         style="fill:#2195de;fill-opacity:1;fill-rule:nonzero;stroke:#000000;stroke-width:0.14981237px;stroke-linecap:butt;stroke-linejoin:miter;stroke-miterlimit:4;stroke-dasharray:none;stroke-opacity:1"
         d="m -52.14864,117.47888 c 0,5.54309 -4.419499,9.96257 -9.962567,9.96257 -5.468154,0 -9.887625,-4.41948 -9.887625,-9.96257 0,-5.46818 4.419471,-9.88762 9.887625,-9.88762 5.543068,0 9.962567,4.41944 9.962567,9.88762 z"
         id="path4337"
         inkscape:connector-curvature="0" />
      <path
         style="fill:#ffffff;fill-opacity:1;fill-rule:nonzero;stroke:none"
         d="m -55.819071,112.98451 -4.794032,0 0,12.28466 -2.846415,0 0,-12.28466 -4.719096,0 0,-2.5468 12.359543,0 0,2.5468 z"
         id="path4339"
         inkscape:connector-curvature="0" />
    </g>
  </g>
</svg>
