<?xml version="1.0" encoding="UTF-8" standalone="no"?>
<!-- Created with Inkscape (http://www.inkscape.org/) -->

<svg
   xmlns:dc="http://purl.org/dc/elements/1.1/"
   xmlns:cc="http://creativecommons.org/ns#"
   xmlns:rdf="http://www.w3.org/1999/02/22-rdf-syntax-ns#"
   xmlns:svg="http://www.w3.org/2000/svg"
   xmlns="http://www.w3.org/2000/svg"
   xmlns:sodipodi="http://sodipodi.sourceforge.net/DTD/sodipodi-0.dtd"
   xmlns:inkscape="http://www.inkscape.org/namespaces/inkscape"
   width="64.866142"
   height="230.31496"
   viewBox="0 0 64.866141 230.31501"
   id="svg5303"
   version="1.1"
   inkscape:version="0.91 r13725"
   sodipodi:docname="28.svg">
  <defs
     id="defs5305" />
  <sodipodi:namedview
     id="base"
     pagecolor="#ffffff"
     bordercolor="#666666"
     borderopacity="1.0"
     inkscape:pageopacity="0.0"
     inkscape:pageshadow="2"
     inkscape:zoom="4"
     inkscape:cx="-61.10298"
     inkscape:cy="137.02388"
     inkscape:document-units="px"
     inkscape:current-layer="layer1"
     showgrid="true"
     fit-margin-top="0"
     fit-margin-left="0"
     fit-margin-right="0"
     fit-margin-bottom="0"
     objecttolerance="10000"
     inkscape:window-width="1739"
     inkscape:window-height="917"
     inkscape:window-x="-8"
     inkscape:window-y="-8"
     inkscape:window-maximized="1"
     units="px">
    <inkscape:grid
       type="xygrid"
       id="grid5927"
       originx="-9.5020207"
       originy="-814.67162" />
  </sodipodi:namedview>
  <metadata
     id="metadata5308">
    <rdf:RDF>
      <cc:Work
         rdf:about="">
        <dc:format>image/svg+xml</dc:format>
        <dc:type
           rdf:resource="http://purl.org/dc/dcmitype/StillImage" />
        <dc:title></dc:title>
      </cc:Work>
    </rdf:RDF>
  </metadata>
  <g
     inkscape:label="Layer 1"
     inkscape:groupmode="layer"
     id="layer1"
     transform="translate(-9.502021,-7.3756207)">
    <path
       style="fill:#333333;fill-opacity:1;fill-rule:evenodd;stroke:#000000;stroke-width:0;stroke-linejoin:miter;stroke-miterlimit:4;stroke-dasharray:none;stroke-opacity:1"
       d="m 43.222334,27.430319 c -3.043109,-0.01099 -4.622111,0.941281 -8.587891,5.175781 -2.421249,2.585359 -3.241848,3.69991 -3.923828,5.33789 -1.339609,3.217491 -3.328125,12.968859 -3.328125,16.31836 0,1.521419 0.123764,1.890842 0.970703,2.876953 0.54669,0.63654 1.634802,1.389766 2.488282,1.722656 0.83396,0.32533 2.935472,1.627915 4.669922,2.896484 1.734379,1.268581 3.741587,2.602804 4.460937,2.964844 1.59288,0.80161 3.044894,0.681641 4.996094,-0.412109 6.233008,-3.493981 9.286525,-5.406015 10.458984,-6.552735 l 1.371094,-1.341796 -0.02734,-3.357422 c -0.06636,-8.001021 -3.121771,-17.996433 -6.77539,-22.169922 -2.24111,-2.559881 -3.980819,-3.448785 -6.773438,-3.458984 z m -0.839844,49.8125 c -3.180119,-0.03639 -6.392334,0.386882 -8.193359,1.289062 -2.601859,1.303331 -5.125541,5.416811 -6.400391,10.431641 -0.552939,2.17507 -0.664406,3.21927 -0.691406,6.414062 -0.0312,3.701069 -0.01181,3.85292 0.654297,5.025396 0.37777,0.66493 1.084686,1.52533 1.572266,1.91015 1.871309,1.47695 7.685752,4.05445 10.457031,4.63672 2.477489,0.52054 4.727444,0.14263 7.376953,-1.24023 1.72672,-0.90123 7.521211,-4.85411 8.082031,-5.51368 0.24882,-0.292627 0.630627,-1.506582 0.847657,-2.697262 0.327489,-1.79673 0.348143,-2.693046 0.121093,-5.267578 -0.5874,-6.6609 -2.808569,-11.815281 -5.824219,-13.513672 -1.672474,-0.94192 -4.821833,-1.43822 -8.001953,-1.474609 z m 0.671875,45.009761 c -0.670522,0.0523 -1.324729,0.28318 -2.001953,0.68946 -0.81551,0.48923 -3.092184,2.29134 -5.058593,4.00586 -1.96642,1.71451 -4.349383,3.47832 -5.294922,3.91796 -0.96757,0.44989 -2.200483,1.46776 -2.820313,2.32813 -0.96019,1.33272 -1.101562,1.83048 -1.101562,3.88672 0,4.52688 2.256591,17.70617 3.77539,22.05469 0.301553,0.86341 0.628769,1.62153 1.076172,2.42968 1.730193,14.11261 1.990468,18.76067 1.759766,30.60547 -0.2027,10.40762 -0.158485,12.08139 0.328125,12.69727 2.836159,3.58974 11.625018,-11.04604 17.654297,-29.40039 1.220427,-3.71523 2.144041,-6.92563 2.830078,-9.80469 3.306255,-6.59384 5.83039,-17.7441 5.894531,-26.95508 l 0.0332,-4.53906 -1.554687,-1.8125 c -1.32928,-1.54991 -4.790764,-4.13524 -11.857422,-8.85742 -1.382644,-0.92393 -2.544572,-1.3333 -3.66211,-1.2461 z"
       id="tooth28"
       inkscape:label="tooth 28"
       inkscape:connector-curvature="0" />
    <ellipse
       style="opacity:1;fill:#e6e6e6;fill-opacity:1;fill-rule:evenodd;stroke:#000000;stroke-width:0;stroke-linejoin:miter;stroke-miterlimit:4;stroke-dasharray:none;stroke-opacity:1"
       id="path4185"
       cx="38.499634"
       cy="227.11206"
       rx="10.000003"
       ry="10.000002" />
    <text
       xml:space="preserve"
       style="font-style:normal;font-weight:normal;font-size:40px;line-height:125%;font-family:sans-serif;letter-spacing:0px;word-spacing:0px;fill:#333333;fill-opacity:1;stroke:none;stroke-width:1px;stroke-linecap:butt;stroke-linejoin:miter;stroke-opacity:1"
       x="30.343666"
       y="232.48358"
       id="text5899-2"
       sodipodi:linespacing="125%"><tspan
         sodipodi:role="line"
         id="tspan5901-6"
         x="30.343666"
         y="232.48358"
         style="font-style:normal;font-variant:normal;font-weight:normal;font-stretch:normal;font-size:15.00000286px;font-family:Roboto;-inkscape-font-specification:Roboto;fill:#333333">78</tspan></text>
    <g
       id="28_R"
       inkscape:label="Root"
       style="opacity:0"
       transform="translate(52.054424,-177.015)">
      <circle
         r="9.9430752"
         cy="341.45563"
         cx="-8.8027849"
         id="path5006-06"
         style="opacity:1;fill:#2195de;fill-opacity:1;stroke:#000000;stroke-width:0.11384872;stroke-miterlimit:4;stroke-dasharray:none;stroke-opacity:0.52941165" />
      <text
         sodipodi:linespacing="125%"
         id="text5012-3"
         y="348.68698"
         x="-15.826676"
         style="font-style:normal;font-weight:normal;font-size:20.90592384px;line-height:125%;font-family:sans-serif;letter-spacing:0px;word-spacing:0px;fill:#ffffff;fill-opacity:1;stroke:none;stroke-width:1px;stroke-linecap:butt;stroke-linejoin:miter;stroke-opacity:1"
         xml:space="preserve"><tspan
           style="font-style:normal;font-variant:normal;font-weight:bold;font-stretch:normal;font-family:Raleway;-inkscape-font-specification:'Raleway Bold';fill:#ffffff"
           y="348.68698"
           x="-15.826676"
           id="tspan5014-8"
           sodipodi:role="line">R</tspan></text>
    </g>
    <g
       id="28_S"
       transform="translate(127.24965,7.5000045)"
       inkscape:label="Surface"
       style="opacity:0">
      <circle
         r="9.9430771"
         cy="84.190613"
         cx="-85.248001"
         id="path5006-0"
         style="opacity:1;fill:#2195de;fill-opacity:1;stroke:#000000;stroke-width:0.11384872;stroke-miterlimit:4;stroke-dasharray:none;stroke-opacity:0.52941165" />
      <text
         sodipodi:linespacing="125%"
         id="text5012-0"
         y="91.511269"
         x="-91.468323"
         style="font-style:normal;font-weight:normal;font-size:20.90592384px;line-height:125%;font-family:sans-serif;letter-spacing:0px;word-spacing:0px;fill:#ffffff;fill-opacity:1;stroke:none;stroke-width:1px;stroke-linecap:butt;stroke-linejoin:miter;stroke-opacity:1"
         xml:space="preserve"><tspan
           style="font-style:normal;font-variant:normal;font-weight:bold;font-stretch:normal;font-family:Raleway;-inkscape-font-specification:'Raleway Bold';fill:#ffffff"
           y="91.511269"
           x="-91.468323"
           id="tspan5014-1"
           sodipodi:role="line">S</tspan></text>
    </g>
    <g
       id="28_T"
       transform="translate(104.49964,-71.500011)"
       inkscape:label="Tooth"
       style="opacity:0">
      <path
         style="fill:#2195de;fill-opacity:1;fill-rule:nonzero;stroke:#000000;stroke-width:0.14981237px;stroke-linecap:butt;stroke-linejoin:miter;stroke-miterlimit:4;stroke-dasharray:none;stroke-opacity:1"
         d="m -52.14864,117.47888 c 0,5.54309 -4.419499,9.96257 -9.962567,9.96257 -5.468154,0 -9.887625,-4.41948 -9.887625,-9.96257 0,-5.46818 4.419471,-9.88762 9.887625,-9.88762 5.543068,0 9.962567,4.41944 9.962567,9.88762 z"
         id="path4337"
         inkscape:connector-curvature="0" />
      <path
         style="fill:#ffffff;fill-opacity:1;fill-rule:nonzero;stroke:none"
         d="m -55.819071,112.98451 -4.794032,0 0,12.28466 -2.846415,0 0,-12.28466 -4.719096,0 0,-2.5468 12.359543,0 0,2.5468 z"
         id="path4339"
         inkscape:connector-curvature="0" />
    </g>
  </g>
</svg>
