<?xml version="1.0" encoding="utf-8"?>
<!-- Generator: Adobe Illustrator 25.2.3, SVG Export Plug-In . SVG Version: 6.00 Build 0)  -->
<svg version="1.1" id="Layer_1" xmlns="http://www.w3.org/2000/svg" xmlns:xlink="http://www.w3.org/1999/xlink" x="0px" y="0px"
	 viewBox="0 0 180 180" style="enable-background:new 0 0 180 180;" xml:space="preserve">
<g>
	<path xmlns:default="http://www.w3.org/2000/svg" d="M94.63,95.17c2.12,0,3.83-1.79,3.83-4s-1.72-4-3.83-4
		c-2.12,0-3.83,1.79-3.83,4S92.51,95.17,94.63,95.17z M94.63,97.17c-2.56,0-7.67,1.34-7.67,4v2h15.33v-2
		C102.29,98.51,97.18,97.17,94.63,97.17z"/>
</g>
<g>
	<path xmlns:default="http://www.w3.org/2000/svg" d="M84.98,98.89c1.66,0,3.01-1.41,3.01-3.14s-1.35-3.14-3.01-3.14
		c-1.66,0-3.01,1.41-3.01,3.14S83.32,98.89,84.98,98.89z M84.98,100.46c-2.01,0-6.02,1.05-6.02,3.14v1.57H91v-1.57
		C91,101.51,86.99,100.46,84.98,100.46z"/>
</g>
<g>
	<path xmlns:default="http://www.w3.org/2000/svg" d="M87.71,88.75h-3.5v3.5h-1.17v-3.5h-3.5v-1.17h3.5v-3.5h1.17v3.5h3.5V88.75z"/>
</g>
<g transform="translate(0, 0)">
	<g transform="translate(0, 0) rotate(0)">
		<path d="M83.38,75.17h-2.5v3.75h2.5V75.17z M98.38,75.17h-2.5v3.75h2.5V75.17z M99.63,75.17v5h-5v-5h-10v5h-5v-5h-5v30h30v-30
			H99.63z M102.13,102.67h-25v-20h25V102.67z"/>
	</g>
</g>
</svg>
