<svg id="Layer_1" data-name="Layer 1" xmlns="http://www.w3.org/2000/svg" viewBox="0 0 30 30"><path d="M94.63,95.17a4,4,0,1,0-3.84-4A3.92,3.92,0,0,0,94.63,95.17Zm0,2c-2.56,0-7.67,1.34-7.67,4v2h15.33v-2C102.29,98.51,97.18,97.17,94.63,97.17Z" transform="translate(-74.63 -75.17)"/><path d="M87.71,91.75h-3.5v3.5H83v-3.5h-3.5V90.59H83v-3.5h1.17v3.5h3.5Z" transform="translate(-74.63 -75.17)"/><path d="M83.38,75.17h-2.5v3.75h2.5Zm15,0h-2.5v3.75h2.5Zm1.25,0v5h-5v-5h-10v5h-5v-5h-5v30h30v-30Zm2.5,27.5h-25v-20h25Z" transform="translate(-74.63 -75.17)"/></svg>