<?xml version="1.0" encoding="utf-8"?>
<!-- Generator: Adobe Illustrator 19.2.1, SVG Export Plug-In . SVG Version: 6.00 Build 0)  -->
<svg version="1.1" id="Layer_1" xmlns="http://www.w3.org/2000/svg" xmlns:xlink="http://www.w3.org/1999/xlink" x="0px" y="0px"
	 viewBox="0 0 432 432" style="enable-background:new 0 0 432 432;" xml:space="preserve">
<style type="text/css">
	.st0{fill:#6B7073;}
	.st1{fill-rule:evenodd;clip-rule:evenodd;fill:#424143;}
	.st2{fill:#FFFFFF;}
</style>
<g>
	<path class="st0" d="M299.3,62.7V36H126v26.7H79.3V396h273.3V62.7H299.3z M139.3,62.7V49.3H286v13.3v26.7h-10v23.3
		c0,3.7-3,6.7-6.7,6.7c-3.7,0-6.7-3-6.7-6.7V89.3h-100v23.3c0,3.7-3,6.7-6.7,6.7s-6.7-3-6.7-6.7V89.3h-10V62.7z M203.8,329.1
		c0,7.7-1.7,13.4-5.1,17.1c-3.4,3.7-7.9,5.6-13.3,5.6c-5.5,0-10-1.9-13.5-5.6c-3.5-3.8-5.2-9.5-5.2-17.1V195.5H126
		c-6.4,0-11.1-1.4-14.2-4.2c-3.1-2.8-4.6-6.5-4.6-11.1c0-4.8,1.6-8.5,4.8-11.3c3.2-2.8,7.9-4.1,14-4.1h118.5
		c6.4,0,11.2,1.4,14.4,4.3c3.1,2.8,4.7,6.6,4.7,11.2c0,4.6-1.6,8.3-4.8,11.1c-3.2,2.8-7.9,4.2-14.3,4.2h-40.7V329.1z M321,348.6
		c-2.5,2.2-5.6,3.2-9.3,3.2c-3.3,0-6.1-0.9-8.3-2.8c-2.3-1.9-4.9-4.9-7.8-9l-20.7-30.5L253.6,340c-3.1,4.3-5.7,7.3-7.8,9.1
		c-2.1,1.8-4.8,2.7-8.1,2.7c-3.6,0-6.7-1.1-9.3-3.4c-2.6-2.3-3.8-4.9-3.8-7.8c0-3,2-7.3,5.9-12.9l25.9-37.1l-22.9-30.9
		c-4-5.1-6-9.5-6-13.3c0-2.9,1.2-5.5,3.6-7.6c2.4-2.2,5.5-3.2,9.3-3.2c3.4,0,6.1,0.9,8.3,2.8c2.2,1.9,4.8,4.9,7.7,8.9l18.5,25.4
		l18-25.4c3-4.2,5.6-7.2,7.8-9c2.2-1.8,4.9-2.7,8.2-2.7c3.8,0,6.9,1.1,9.4,3.2c2.5,2.1,3.7,4.7,3.7,7.7c0,2.2-0.5,4.2-1.5,6.2
		c-1,2-2.6,4.3-4.7,7.1l-22.9,30.9l25.9,37.1c4.1,5.8,6.1,10.2,6.1,13.1C324.8,343.8,323.6,346.4,321,348.6z"/>
	<path class="st0" d="M156,79.3c-3.7,0-6.7,3-6.7,6.7v3.3h13.3V86C162.7,82.3,159.7,79.3,156,79.3z"/>
	<path class="st0" d="M269.3,79.3c-3.7,0-6.7,3-6.7,6.7v3.3H276V86C276,82.3,273,79.3,269.3,79.3z"/>
</g>
</svg>
